<?xml version="1.0" encoding="UTF-8" standalone="no"?>
<svg
   height="189.14999"
   width="189.16"
   version="1.1"
   id="svg4"
   xmlns="http://www.w3.org/2000/svg"
   xmlns:svg="http://www.w3.org/2000/svg">
  <defs
     id="defs4" />
  <path
     d="M 0,0 H 189.16001 V 189.15 H 0 Z"
     fill="#9b2423"
     fill-rule="evenodd"
     id="path2" />
  <g
     fill="#ecece7"
     id="g4"
     transform="translate(-5.3929615,-5.3937596)">
    <path
       d="m 73.760703,54.710387 2.336507,9.468403 0.368881,-0.24562 c 0,0 3.841451,-5.164318 8.846763,-1.952454 3.21572,2.153105 3.59676,6.006506 1.72916,8.838726 l -8.731546,11.313671 2.705388,1.598761 c 0,0 0.157883,0.112007 0.253784,0.111363 0.0937,-6.3e-4 0.238346,-0.111363 0.238346,-0.111363 L 94.789295,72.418198 c 1.991502,-1.454656 5.710395,-2.943756 9.284385,0.634196 2.55556,3.311571 0.75989,6.783732 -1.41384,8.957463 0,0 -11.19954,9.542994 -16.233217,14.142315 -0.921855,0.842311 -2.20002,1.357344 -3.443135,1.475501 -2.280476,-0.06896 -4.040259,-0.818479 -6.025267,-1.844377 0,0 -1.516285,11.298354 -1.048571,21.520714 0.477691,10.44034 3.507447,18.44557 3.507447,18.44558 l 35.785403,16.47882 c 0,0 -5.79626,-8.33496 -5.90291,-23.56785 -0.13102,-18.71451 3.81784,-21.7932 3.68965,-32.385128 -0.1836,-15.170418 -4.91863,-26.562616 -4.91863,-26.562616 z m -13.035688,0.24562 c -4.652044,1.74e-4 -8.423228,3.771358 -8.423402,8.423402 -3.19e-4,4.652393 3.771009,8.424121 8.423402,8.424295 4.652742,3.2e-4 8.424615,-3.771553 8.424296,-8.424295 -1.74e-4,-4.652394 -3.771902,-8.423722 -8.424296,-8.423402 z m 21.259026,7.850888 c -2.213643,-0.03641 -3.735201,1.925651 -3.735201,1.925651 l -9.468403,12.665921 7.685654,3.996896 9.161155,-12.051423 c 0,0 2.115615,-3.345709 -1.229882,-5.687651 -0.861019,-0.602737 -1.675444,-0.837263 -2.413323,-0.849394 z m -33.372076,7.150644 c -0.398554,0.04504 -0.802605,0.15234 -1.1495,0.353692 -0.279546,0.162264 -0.673152,0.584414 -0.840458,0.771692 -0.03662,0.05711 -0.08603,0.121637 -0.138444,0.216147 l -14.376324,30.83192 c 0,0 -0.303753,0.56719 -0.473381,0.86637 -0.864674,1.96055 -0.900036,2.11383 -0.809197,4.63371 l 3.962956,24.01354 -9.420173,7.9804 v 13.75914 l 18.40091,-15.8554 c 0,0 0.363254,-0.2722 0.512675,-0.44121 0.484528,-0.54809 1.005383,-1.12635 1.217373,-1.82651 0.243583,-0.80451 0.06552,-1.68339 0,-2.52141 -0.02297,-0.29444 -0.137549,-0.8753 -0.137549,-0.8753 l -2.297204,-14.60318 14.434375,15.30432 -2.48299,23.99834 c -0.0357,0.21426 -0.05805,0.43052 -0.067,0.64755 -0.01904,0.22687 0.0031,0.52819 0.0061,0.57519 0.174623,2.75544 2.456886,4.90294 5.217851,4.90972 2.88513,-7.8e-4 5.22691,-2.33365 5.239282,-5.21875 l 2.561588,-24.1734 c 0,0 0.08962,-0.84006 0.133971,-1.26026 0.08723,-0.82604 0.21209,-1.9523 0.02144,-2.76076 -0.185493,-0.7865 -0.570217,-1.12284 -1.065539,-1.7613 -0.307824,-0.39681 -1.028024,-1.10038 -1.028024,-1.10038 l -15.00687,-16.06083 c 0,0 -0.159899,-0.1189 -0.187567,-0.2081 -0.03678,-0.11864 0.0491,-0.36978 0.0491,-0.36978 l 10.956402,-23.999234 0.869947,0.347438 16.347527,8.348378 h 0.007 c 0.867232,0.59827 1.919927,0.923597 3.002804,0.927995 1.296077,-0.0041 2.540949,-0.467244 3.477079,-1.294191 l 15.983085,-13.53675 c 2.11764,-1.809712 2.75624,-4.535758 0.94398,-6.581857 -1.87504,-1.715868 -4.428903,-1.950216 -6.234185,-0.353542 l -14.397755,12.3158 c 0,0 -0.195754,0.142801 -0.309928,0.147374 -0.137503,0.0055 -0.385842,-0.147374 -0.385842,-0.147374 L 51.09195,70.410374 c -0.131189,-0.05832 -0.248254,-0.114736 -0.394785,-0.161663 -0.220047,-0.06311 -0.578929,-0.161263 -0.80027,-0.197389 -0.423864,-0.06919 -0.858482,-0.142032 -1.285254,-0.09378 z"
       id="path3" />
    <path
       d="m 154.26222,48.706484 c -1.71386,6.470355 -2.23174,14.207323 -0.98226,20.83633 2.51817,9.440975 8.2296,16.758029 15.36759,22.829113 1.25962,1.13342 2.68314,1.911916 4.09805,2.642978 V 75.394629 c -4.24271,-0.672857 -7.42293,-4.471722 -9.71262,-7.821759 -3.85745,-5.940026 -6.3186,-12.434706 -8.77069,-18.866386 z m -24.46515,8.54928 c -0.97638,0.0029 -2.01611,0.0374 -3.05596,0.0721 5.63891,4.31605 7.39749,10.8076 9.25397,16.931588 1.93565,6.730582 4.34718,13.184022 8.1574,18.750413 7.14594,9.483055 17.97584,13.667085 28.59306,10.619355 -9.39273,-3.908137 -15.17435,-13.058059 -19.49904,-20.920672 -3.92044,-6.197417 -5.02842,-14.030027 -10.24859,-19.121223 -3.82026,-3.623132 -8.16294,-6.340603 -13.20084,-6.331417 z m 1.52006,28.371633 c -0.65947,12.115276 3.43089,22.191183 10.77911,30.606933 7.77973,9.08787 20.20959,13.71427 30.64913,17.0634 v -19.62027 c -6.67852,-0.13085 -12.76012,-2.35003 -17.89287,-5.44061 -10.14569,-6.15461 -17.351,-13.217065 -23.53554,-22.609453 z m -14.06015,37.701043 c 9.46836,2.25485 13.89348,8.34766 19.17565,14.70159 4.22534,5.39486 9.82994,8.60289 16.00552,9.69328 7.69141,1.29452 15.01267,0.0964 20.30739,-5.5724 -12.31639,-2.1885 -19.54553,-9.76208 -27.94637,-16.67505 -9.83416,-6.5832 -17.47169,-9.75121 -27.54219,-2.14742 z m 14.01972,19.52024 c 1.11607,6.21275 3.07083,12.05043 6.60221,16.79101 9.71514,11.45194 22.33288,11.2408 34.86663,11.46464 v -19.62028 c -7.95425,1.86512 -17.70091,2.7523 -25.07145,0.95244 -6.72177,-1.37969 -11.78396,-5.36509 -16.39739,-9.58783 z"
       id="path4" />
  </g>
</svg>
