<?xml version="1.0" encoding="UTF-8" standalone="no"?>
<!DOCTYPE svg PUBLIC "-//W3C//DTD SVG 1.1//EN" "http://www.w3.org/Graphics/SVG/1.1/DTD/svg11.dtd">
<svg xmlns="http://www.w3.org/2000/svg" xmlns:xlink="http://www.w3.org/1999/xlink" version="1.1" width="2338.5826pt" height="1315.4526pt" viewBox="0 0 2338.5826 1315.4526">
<g enable-background="new">
<path transform="matrix(2.7777777,0,0,2.7777777,0,0)" d="M 0 0 L 841.8898 0 L 841.8898 473.563 L 0 473.563 Z " fill="#ffffff"/>
<symbol id="font_0_1">
<path d="M .522 .69200006 L .50600007 .577 L .33100004 .577 L .33100004 0 L .184 0 L .184 .577 L 0 .577 L 0 .69200006 L .522 .69200006 Z "/>
</symbol>
<symbol id="font_0_2">
<path d="M .46500004 .56700006 L .46500004 0 L .323 0 L .323 .24100001 L .14199999 .24100001 L .14199999 0 L 0 0 L 0 .56700006 L .14199999 .56700006 L .14199999 .351 L .323 .351 L .323 .56700006 L .46500004 .56700006 Z "/>
</symbol>
<symbol id="font_0_3">
<path d="M .14199999 .56700006 L .14199999 0 L 0 0 L 0 .56700006 L .14199999 .56700006 Z "/>
</symbol>
<symbol id="font_0_4">
<path d="M .252 .59400007 C .33666668 .59400007 .40566669 .5693334 .45900003 .52000007 L .393 .444 C .3516667 .47533337 .308 .49100004 .262 .49100004 C .23600002 .49100004 .21533335 .48633338 .20000002 .47700004 C .18533336 .46833337 .17800002 .45533336 .17800002 .43800003 C .17800002 .42666666 .18100001 .41733337 .187 .41000004 C .193 .4026667 .20366669 .3956667 .21900001 .38900004 C .23433335 .38233338 .25866667 .37399999 .292 .36400003 C .352 .34533335 .39633335 .32200004 .425 .294 C .45433335 .26666669 .469 .22866668 .469 .18 C .469 .14466667 .45933334 .11333334 .44 .086 C .4213333 .058666666 .39400003 .037333337 .358 .022000002 C .32266668 .0073333347 .28066669 .0000000009313226 .23200001 .0000000009313226 C .18266668 .0000000009313226 .13800001 .0073333347 .098000008 .022000002 C .058666666 .037333337 .026 .05766667 0 .083000008 L .07100001 .161 C .117666687 .123 .1696667 .104 .22700002 .104 C .25633333 .104 .27933333 .10966667 .296 .12100001 C .31333334 .133 .322 .149 .322 .169 C .322 .18833335 .31466667 .20333334 .3 .214 C .286 .22533334 .25766669 .23733334 .21500002 .25000004 C .14766668 .27 .1 .294 .072 .32200004 C .044666668 .35000003 .031000004 .3853334 .031000004 .42800004 C .031000004 .46200005 .04066667 .4916667 .060000007 .517 C .080000009 .54233339 .10666668 .56133338 .14000002 .574 C .17400003 .5873334 .21133335 .59400007 .252 .59400007 Z "/>
</symbol>
<symbol id="font_0_5">
<path d="M 0 0 Z "/>
</symbol>
<symbol id="font_0_6">
<path d="M .38400004 0 L .35300002 .120000008 L .17700002 .120000008 L .14700002 0 L 0 0 L .18200001 .56700006 L .35200004 .56700006 L .53300008 0 L .38400004 0 M .20300001 .22200002 L .32700003 .22200002 L .26500003 .46600003 L .20300001 .22200002 Z "/>
</symbol>
<use xlink:href="#font_0_1" transform="matrix(116.666667,0,0,-116.666667,157.76818,666.843)"/>
<use xlink:href="#font_0_2" transform="matrix(116.666667,0,0,-116.666667,223.33484,666.843)"/>
<use xlink:href="#font_0_3" transform="matrix(116.666667,0,0,-116.666667,294.61817,666.843)"/>
<use xlink:href="#font_0_4" transform="matrix(116.666667,0,0,-116.666667,321.21818,668.4764)"/>
<use xlink:href="#font_0_5" transform="matrix(116.666667,0,0,-116.666667,379.31819,666.843)"/>
<use xlink:href="#font_0_3" transform="matrix(116.666667,0,0,-116.666667,416.3015,666.843)"/>
<use xlink:href="#font_0_4" transform="matrix(116.666667,0,0,-116.666667,442.90153,668.4764)"/>
<use xlink:href="#font_0_5" transform="matrix(116.666667,0,0,-116.666667,501.00154,666.843)"/>
<use xlink:href="#font_0_6" transform="matrix(116.666667,0,0,-116.666667,528.41818,666.843)"/>
<use xlink:href="#font_0_5" transform="matrix(116.666667,0,0,-116.666667,589.6682,666.843)"/>
<symbol id="font_1_1">
<path d="M .531 .69200006 L .49900005 .577 L .326 .577 L .245 0 L .10000001 0 L .18100001 .577 L 0 .577 L .016000003 .69200006 L .531 .69200006 Z "/>
</symbol>
<symbol id="font_1_2">
<path d="M .22000003 .56700006 L .14000002 0 L 0 0 L .08 .56700006 L .22000003 .56700006 Z "/>
</symbol>
<symbol id="font_1_3">
<path d="M .467 .56700006 L .43800003 .45900003 L .293 .45900003 L .22800002 0 L .088 0 L .15300001 .45900003 L 0 .45900003 L .015000001 .56700006 L .467 .56700006 Z "/>
</symbol>
<symbol id="font_1_4">
<path d="M .22000003 .56700006 L .15600002 .11100001 L .388 .11100001 L .35700003 0 L 0 0 L .08 .56700006 L .22000003 .56700006 Z "/>
</symbol>
<symbol id="font_1_5">
<path d="M .44300003 .56700006 L .414 .46600003 L .20500002 .46600003 L .187 .33900003 L .37 .33900003 L .356 .24000001 L .17300001 .24000001 L .15400002 .102000009 L .37600003 .102000009 L .36200003 0 L 0 0 L .078999999 .56700006 L .44300003 .56700006 Z "/>
</symbol>
<symbol id="font_1_6">
<path d="M 0 0 Z "/>
</symbol>
<symbol id="font_1_7">
<path d="M .305 .59400007 C .385 .59400007 .45300005 .5686667 .50900009 .518 L .43400003 .44500003 C .41466669 .46033336 .39400003 .4716667 .372 .47900004 C .35000003 .48700003 .32833336 .49100004 .307 .49100004 C .28033338 .49100004 .25933335 .48600004 .244 .476 C .22866668 .4666667 .22100002 .45200003 .22100002 .432 C .22100002 .41733337 .22766668 .405 .24100001 .395 C .25433336 .38500003 .28066669 .37333337 .32000003 .36 C .3706667 .3446667 .40900005 .323 .43500004 .29500003 C .4616667 .26766668 .47500003 .23233335 .47500003 .18900001 C .47500003 .15433334 .46566669 .12266668 .44700004 .094000007 C .42900003 .06533334 .40133334 .042333336 .36400003 .025000003 C .32666669 .008333335 .28033335 .0000000009313226 .22500001 .0000000009313226 C .177 .0000000009313226 .13366668 .007666668 .095 .023000002 C .057 .038333339 .025333336 .058666666 0 .084 L .077 .162 C .11833333 .124000009 .16733332 .105 .224 .105000007 C .25533334 .105 .28033335 .111 .29900003 .123 C .31766669 .135 .32700003 .15133333 .32700003 .172 C .32700003 .19200002 .32033337 .20766668 .307 .21900001 C .29433335 .231 .27033336 .24266668 .23500002 .254 C .17766667 .27133335 .13633333 .293 .111 .319 C .08566668 .34566669 .07300001 .3776667 .07300001 .41500003 C .07300001 .45033337 .082333337 .48133336 .101 .508 C .11966667 .53533336 .14633334 .55633339 .18100001 .57100006 C .21633335 .58633336 .25766669 .59400007 .305 .59400007 Z "/>
</symbol>
<symbol id="font_1_8">
<path d="M .24400002 .56700006 C .32666669 .56700006 .3926667 .5503333 .44200004 .517 C .492 .48433338 .517 .42633335 .517 .34300003 C .517 .24300002 .49 .16066666 .43600003 .096 C .3826667 .032 .29733337 0 .18 0 L 0 0 L .08 .56700006 L .24400002 .56700006 M .20600002 .46500004 L .15400002 .102000009 L .20000002 .102000009 C .26333336 .102000009 .308 .12633334 .33400003 .17500001 C .36 .22366667 .37300004 .28100003 .37300004 .347 C .37300004 .39166669 .3623334 .42233337 .34100003 .439 C .31966669 .45633338 .29 .46500004 .252 .46500004 L .20600002 .46500004 Z "/>
</symbol>
<use xlink:href="#font_1_1" transform="matrix(116.666667,0,0,-116.666667,624.3181,666.843)"/>
<use xlink:href="#font_1_2" transform="matrix(116.666667,0,0,-116.666667,679.5014,666.843)"/>
<use xlink:href="#font_1_3" transform="matrix(116.666667,0,0,-116.666667,713.1014,666.843)"/>
<use xlink:href="#font_1_4" transform="matrix(116.666667,0,0,-116.666667,767.0014,666.843)"/>
<use xlink:href="#font_1_5" transform="matrix(116.666667,0,0,-116.666667,820.7848,666.843)"/>
<use xlink:href="#font_1_6" transform="matrix(116.666667,0,0,-116.666667,871.88479,666.843)"/>
<use xlink:href="#font_1_7" transform="matrix(116.666667,0,0,-116.666667,897.668,668.4764)"/>
<use xlink:href="#font_1_4" transform="matrix(116.666667,0,0,-116.666667,961.9514,666.843)"/>
<use xlink:href="#font_1_2" transform="matrix(116.666667,0,0,-116.666667,1015.6181,666.843)"/>
<use xlink:href="#font_1_8" transform="matrix(116.666667,0,0,-116.666667,1048.9848,666.843)"/>
<use xlink:href="#font_1_5" transform="matrix(116.666667,0,0,-116.666667,1117.118,666.843)"/>
<path transform="matrix(2.7777777,0,0,2.7777777,0,0)" stroke-width="2.5" stroke-linecap="butt" stroke-miterlimit="4" stroke-linejoin="miter" fill="none" stroke="#3059ab" d="M 56.376546 262.5635 L 785.5132 262.5635 "/>
</g>
</svg>
