<svg xmlns="http://www.w3.org/2000/svg" width="265" height="265" fill-rule="evenodd"><path d="M251.75 132.5c0-65.86-53.39-119.25-119.25-119.25S13.25 66.64 13.25 132.5 66.64 251.75 132.5 251.75s119.25-53.39 119.25-119.25" fill="#fff"/><path d="M83.21 158.864c-7.642 2.085-10.24-.353-13.937-3.232 2.537 11.803 10.711 17.222 17.867 18.923 8.27 1.965 14.525 2.396 17.349 9.101-.494-12.853 6.532-20.177 11.739-27.919s-2.848-23.963-11.858-25.445c-.228 5.104 3.437 8.318 2.297 15.041-2.513-4.5-4.216-15.041-21.514-15.07.368 1.841 1.26 1.791 1.853 3.294-5.493.706-11.384-3.236-13.424-9.682-4.813 15.352 4.552 28.462 9.628 34.991zm42.491 3.172c-5.2 6.091-4.098 14.222-7.853 20.99-4.591 8.274-15.402 9.125-21.877 14.033-5.872 4.45-7.541 14.472-1.659 19.739 6.453 5.778 15.727 2.589 20.396-2.848 4.361-5.079 4.143-17.564 12.288-24.569 4.863-4.182 12.685-5.384 17.29-10.779l71.012-83.183-1.434-13.809-19.348-.184zm15.685 13.531c-3.251 3.808-8.09 6.198-13.102 5.906l81.798-95.817.874 8.419zm-16.189 3.108c-1.422-4.952.089-9.722 3.08-13.226l68.141-79.836 8.153.078zm-58.688-63.416c-4.401-2.244-5.189-4.437-7.034-7.42-7.525 17.441-4.464 30.772 4.938 46.182-2.776.734-6.333.318-8.206-.568-.21 12.516 14.304 17.267 14.657 18.937l-3.906-.324c8.629 16.312 26.276 1.13 37.167 18.55 4.716.26 14.11-10.49 11.253-18.601-1.125 2.196-3.498 4.488-5.744 5.264 2.444-7.934 16.512-24.182 19.741-34.066 5.521-16.896-2.237-50.773-15.795-62.621.361 3.119.42 6.374-.018 9.855-13.942-5.47-7.743-24.803-.366-34.341-19.989 9.555-53.571 27.554-46.69 59.153"/><path d="M238.369 132.5c0-58.47-47.399-105.869-105.869-105.869a105.42 105.42 0 0 0-67.175 24.04l149.366 148.554c14.802-18.209 23.678-41.429 23.678-66.725zM50.309 65.775c-14.801 18.21-23.678 41.429-23.678 66.725 0 58.47 47.399 105.869 105.869 105.869 25.503 0 48.899-9.019 67.175-24.04zM265 132.5C265 59.322 205.678 0 132.5 0S0 59.322 0 132.5 59.322 265 132.5 265 265 205.678 265 132.5" fill="#b71f2e"/></svg>