<svg xmlns="http://www.w3.org/2000/svg" width="265" height="265"><g fill-rule="evenodd"><path d="M251.75 132.5c0-65.86-53.39-119.25-119.25-119.25S13.25 66.64 13.25 132.5 66.64 251.75 132.5 251.75s119.25-53.39 119.25-119.25" fill="#fff"/><path d="M106.729 172.569c0-3.982 3.222-7.209 7.213-7.209a7.21 7.21 0 0 1 7.209 7.209 7.21 7.21 0 1 1-14.422 0zm66.105 0a9.14 9.14 0 0 1 9.14-9.135 9.14 9.14 0 0 1 9.135 9.135 9.14 9.14 0 0 1-9.135 9.14 9.14 9.14 0 0 1-9.14-9.14zm-71.438-23.327l32.619-84.459c1.595-4.185 5.651-7.19 10.435-7.19h34.136c6.172 0 11.177 5.006 11.177 11.182v48.586h14.095c7.72 0 13.975 6.255 13.975 13.971v41.238h-20.585c0 8.439-6.84 15.275-15.275 15.275s-15.28-6.835-15.28-15.275h-6.103-4.397-26.978c0 8.439-6.84 15.275-15.275 15.275s-15.28-6.835-15.28-15.275H85.01l-4.54 11.745-31.601-10.228 2.586-7.979 24.051 7.79 52.089-134.884 7.822 3.019-41.4 107.21zm49.337-27.291h5.462v15.123h-10.887zm-13.468 15.123h-17.455l20.34-29.112 3.383 3.627a1.65 1.65 0 0 0 2.337.083c.668-.622.701-1.669.083-2.332l-9.02-9.675c-.622-.668-1.678-.705-2.341-.078a1.65 1.65 0 0 0-.083 2.332l3.383 3.623-21.857 31.532h-.94l26.743-69.281c.41-1.069 1.438-1.816 2.613-1.816h34.136c1.544 0 2.798 1.249 2.798 2.793v48.586h-4.462V90.902c0-1.696-1.369-3.084-3.065-3.084l-6.398.014c-.171 0-.35.018-.516.041-.101.018-.203.037-.383.092-.147.046-.29.101-.429.166l-.184.097-.207.129-.221.157c-.281.23-.516.502-.701.807l-6.941 12.634-13.605-2.828a2.89 2.89 0 0 0-.853-.12c-1.696 0-3.07 1.378-3.07 3.074 0 1.401.931 2.59 2.217 2.959l16.034 3.381a3.03 3.03 0 0 0 .848.12c1.115 0 2.097-.599 2.636-1.489l.115-.212 2.06-3.757v11.223h-16.229c-.244 0-.484.018-.714.064-.383.069-.742.198-1.12.396l-.281.175-.171.12-.184.147c-.521.442-.922 1.014-1.148 1.669l-7.149 20.193" fill="#000000"/></g><path d="M164.072 79.09a6.4 6.4 0 1 1 12.806 0 6.4 6.4 0 1 1-12.806 0" fill="#161313"/><path d="M238.369 132.5c0-58.47-47.399-105.869-105.869-105.869a105.42 105.42 0 0 0-67.175 24.04l149.366 148.554c14.802-18.209 23.678-41.429 23.678-66.725zM50.309 65.775c-14.801 18.21-23.678 41.429-23.678 66.725 0 58.47 47.399 105.869 105.869 105.869 25.503 0 48.899-9.019 67.175-24.04zM265 132.5C265 59.322 205.678 0 132.5 0S0 59.322 0 132.5 59.322 265 132.5 265 265 205.678 265 132.5" fill="#b71f2e" fill-rule="evenodd"/></svg>