<svg xmlns="http://www.w3.org/2000/svg" width="265" height="265" fill-rule="evenodd"><path d="M251.75 132.5c0-65.86-53.39-119.25-119.25-119.25S13.25 66.64 13.25 132.5 66.64 251.75 132.5 251.75s119.25-53.39 119.25-119.25" fill="#fff"/><path d="M167.635 184.154c18.845-11.669 42.488-33.247 49.077-48.671 6.372-14.913 12.202-36.062-8.134-51.111s-36.198 5.761-40.943 11.93c-4.111-5.345-16.568-21.675-33.048-16.157-.303-12.661-10.748-22.86-23.418-22.86-12.899 0-23.41 10.531-23.414 23.426l-.014 38.776c-.001 2.519-2.541 4.84-5.043 4.84h-7.895v-9.423H53.686c-5.659 0-10.278 4.619-10.278 10.278v36.598c0 5.658 4.619 10.278 10.278 10.278h36.598c5.658 0 10.278-4.62 10.278-10.278v-26.537H74.803v-5.28h7.895c5.566 0 10.655-4.846 10.657-10.476l.013-38.776c.004-9.771 8.029-17.789 17.8-17.789 9.778 0 17.789 8.011 17.789 17.789v2.125a33.85 33.85 0 0 0-2.265 1.537c-20.336 15.049-14.506 36.198-8.134 51.111 6.59 15.423 30.233 37.002 49.077 48.671zM69.166 120.54H53.686c-2.547 0-4.642 2.094-4.642 4.641v36.598c0 2.547 2.094 4.641 4.642 4.641h36.598c2.547 0 4.641-2.094 4.641-4.641v-20.901H69.166z"/><path d="M238.369 132.5c0-58.47-47.399-105.869-105.869-105.869a105.42 105.42 0 0 0-67.175 24.04l149.366 148.554c14.802-18.209 23.678-41.429 23.678-66.725zM50.309 65.775c-14.801 18.21-23.678 41.429-23.678 66.725 0 58.47 47.399 105.869 105.869 105.869 25.503 0 48.899-9.019 67.175-24.04zM265 132.5C265 59.322 205.678 0 132.5 0S0 59.322 0 132.5 59.322 265 132.5 265 265 205.678 265 132.5" fill="#b71f2e"/></svg>