<svg xmlns="http://www.w3.org/2000/svg" width="265" height="265" fill-rule="evenodd"><path d="M251.75 132.5c0-65.86-53.39-119.25-119.25-119.25S13.25 66.64 13.25 132.5 66.64 251.75 132.5 251.75s119.25-53.39 119.25-119.25" fill="#fff"/><path d="M116.743 178.951c5.513 2.131 8.126-1.063 11.128-4.552 1.161-4.351.482-8.416-1.452-12.866l-12.968 8.903c.777 4.061 2.033 6.768 3.292 8.515m21.193-24.971l-9.001 6.29c1.354 3.779 2.225 7.259 2.225 12.003 4.07-.487 8.13-2.417 11.132-10.744-.098-2.805-1.546-5.32-4.356-7.55m12.476-11.096c13.741-7.84 19.741-12.776 22.354-16.649 3.096-4.543 8.036-12.481 11.226-18.481 5.709-10.936 17.324-25.548 25.838-33.58-11.123-13.741-18.289-19.356-29.711-26.321-25.646 13.741-68.898 17.029-74.513 27.192-12.973 10.257-22.162 29.225-33.196 46.258-2.511 3.775-3.288 7.643-1.546 16.837l1.161 39.097c3.386 5.03 13.451-1.546 13.545-4.646 3.971-13.254 4.744-23.417 3.878-37.837 1.447-4.838 4.351-8.711 10.351-14.125l11.231-6.875-9.582 10.257c-6.486 9.1-.197 11.615 4.257 25.262 4.641-3.971 5.325-4.941 11.709-8.809l6.482-5.419-4.74 6.482c-8.711 7.255-23.323 15.483-21.389 29.131 1.452 3.391 2.323 6.772 8.322 2.229 13.933-10.842 29.613-20.134 44.324-30.002m-88.647 42.385l93.485-.094v13.259H61.765v-13.165"/><path d="M238.369 132.5c0-58.47-47.399-105.869-105.869-105.869a105.42 105.42 0 0 0-67.175 24.04l149.366 148.554c14.802-18.209 23.678-41.429 23.678-66.725zM50.309 65.775c-14.801 18.21-23.678 41.429-23.678 66.725 0 58.47 47.399 105.869 105.869 105.869 25.503 0 48.899-9.019 67.175-24.04zM265 132.5C265 59.322 205.678 0 132.5 0S0 59.322 0 132.5 59.322 265 132.5 265 265 205.678 265 132.5" fill="#b71f2e"/></svg>