<svg xmlns="http://www.w3.org/2000/svg" width="265" height="265" fill-rule="evenodd"><path d="M251.75 132.5c0-65.86-53.39-119.25-119.25-119.25S13.25 66.64 13.25 132.5 66.64 251.75 132.5 251.75s119.25-53.39 119.25-119.25" fill="#fff"/><path d="M122.945 102.511l3.621 2.054 11.055-19.488-.867-.492 7.423-13.086 6.937 3.935-7.423 13.085-.867-.492-11.055 19.488 30.338 17.21-55.593 98-39.162-22.216zm-28.938 89.364l6.243 3.542a3.71 3.71 0 0 1 1.392 5.041 3.71 3.71 0 0 1-5.041 1.392l-6.243-3.542a3.71 3.71 0 0 1-1.392-5.041 3.71 3.71 0 0 1 5.041-1.392zm23.462-47.583a3.56 3.56 0 1 0-6.197-3.515c-.97 1.712-.371 3.886 1.341 4.856s3.885.371 4.856-1.341zm9.176 5.205a3.56 3.56 0 0 0-1.341-4.856c-1.712-.97-3.886-.371-4.857 1.34s-.371 3.886 1.341 4.857 3.886.37 4.856-1.341zm9.176 5.205a3.56 3.56 0 0 0-1.341-4.856c-1.712-.97-3.886-.371-4.856 1.341s-.371 3.886 1.341 4.856 3.886.371 4.856-1.341zm-23.524-1.292a3.56 3.56 0 0 0-1.341-4.856c-1.712-.97-3.886-.371-4.856 1.341s-.371 3.886 1.341 4.856 3.886.371 4.856-1.341zm9.176 5.205c.971-1.711.37-3.886-1.341-4.857s-3.886-.37-4.857 1.341-.37 3.886 1.341 4.857 3.886.37 4.857-1.341zm9.176 5.205c.971-1.711.37-3.886-1.341-4.856s-3.886-.371-4.857 1.341-.37 3.886 1.341 4.856 3.886.371 4.857-1.341zm-23.524-1.293c.971-1.711.37-3.886-1.341-4.856s-3.886-.371-4.857 1.341-.37 3.886 1.341 4.857 3.886.371 4.857-1.341zm9.175 5.205a3.56 3.56 0 0 0-1.341-4.856c-1.712-.97-3.886-.371-4.856 1.341s-.371 3.886 1.341 4.856 3.886.371 4.856-1.341zm9.176 5.205c.971-1.711.371-3.886-1.341-4.857s-3.886-.37-4.856 1.341-.371 3.886 1.341 4.857 3.886.37 4.856-1.341zm-23.524-1.292c.971-1.712.371-3.886-1.341-4.857s-3.886-.37-4.856 1.341-.371 3.886 1.341 4.857 3.885.37 4.856-1.341zm9.175 5.205c.971-1.711.371-3.886-1.34-4.856s-3.886-.371-4.857 1.341a3.56 3.56 0 0 0 1.341 4.856c1.712.97 3.886.371 4.856-1.341zm9.176 5.205c.971-1.711.371-3.886-1.341-4.857s-3.886-.37-4.856 1.341-.371 3.886 1.341 4.857 3.886.37 4.856-1.341zm-19.925-11.303c.478-.842.183-1.912-.66-2.39a1.75 1.75 0 0 0-2.389.66c-.477.842-.183 1.912.659 2.389s1.912.182 2.389-.66zm18.351 10.41c.478-.842.183-1.912-.659-2.39a1.75 1.75 0 0 0-2.389.66c-.477.842-.183 1.912.66 2.39a1.75 1.75 0 0 0 2.389-.66m62.635-114.078l4.457-1.231c6.087 22.048-7.012 45.139-29.06 51.227l-1.23-4.457c19.599-5.411 31.245-25.94 25.833-45.539zm-45.539-25.833c-19.6 5.411-31.245 25.94-25.833 45.539l-4.457 1.231c-6.087-22.048 7.011-45.139 29.059-51.227zm34.007 29.017l4.457-1.231c4.339 15.715-4.997 32.172-20.712 36.511l-1.231-4.457c13.266-3.663 21.148-17.558 17.485-30.824zm-30.824-17.485c-13.266 3.663-21.148 17.558-17.485 30.824l-4.457 1.23c-4.339-15.714 4.997-32.172 20.712-36.511zm18.751 20.819l4.457-1.231c2.508 9.084-2.889 18.597-11.973 21.106l-1.231-4.457c6.636-1.832 10.578-8.783 8.746-15.418zm-15.418-8.746c-6.636 1.832-10.578 8.783-8.746 15.418l-4.457 1.231c-2.509-9.084 2.888-18.598 11.972-21.106z"/><path d="M238.369 132.5c0-58.47-47.399-105.869-105.869-105.869a105.42 105.42 0 0 0-67.175 24.04l149.366 148.554c14.802-18.209 23.678-41.429 23.678-66.725zM50.309 65.775c-14.801 18.21-23.678 41.429-23.678 66.725 0 58.47 47.399 105.869 105.869 105.869 25.503 0 48.899-9.019 67.175-24.04zM265 132.5C265 59.322 205.678 0 132.5 0S0 59.322 0 132.5 59.322 265 132.5 265 265 205.678 265 132.5" fill="#b71f2e"/></svg>