<svg xmlns="http://www.w3.org/2000/svg" xmlns:xlink="http://www.w3.org/1999/xlink" width="265" height="265"><g fill-rule="evenodd"><path d="M251.75 132.5c0-65.86-53.39-119.25-119.25-119.25S13.25 66.64 13.25 132.5 66.64 251.75 132.5 251.75s119.25-53.39 119.25-119.25" fill="#fff"/><use xlink:href="#B"/><use xlink:href="#B" x="-72.945" y="79.042"/><use xlink:href="#B" x="-68.082" y="73.773"/><use xlink:href="#B" x="-63.219" y="68.503"/><use xlink:href="#B" x="-58.356" y="63.234"/><use xlink:href="#B" x="-53.493" y="57.964"/><use xlink:href="#B" x="-48.63" y="52.695"/><use xlink:href="#B" x="-43.767" y="47.425"/><use xlink:href="#B" x="-38.904" y="42.156"/><use xlink:href="#B" x="-34.041" y="36.887"/><use xlink:href="#B" x="-29.178" y="31.617"/><use xlink:href="#B" x="-24.315" y="26.347"/><use xlink:href="#B" x="-19.452" y="21.078"/><use xlink:href="#B" x="-14.589" y="15.809"/><use xlink:href="#B" x="-9.726" y="10.539"/><use xlink:href="#B" x="-4.863" y="5.27"/><use xlink:href="#B" x="-77.809" y="84.312"/><path d="M150.257 116.689a2.091 2.091 0 0 0-2.197 3.558 2.091 2.091 0 0 0 2.197-3.558m-56.524 91.508a2.091 2.091 0 0 0-2.197 3.558 2.091 2.091 0 0 0 2.197-3.558"/><path d="M97.502 202.097a2.09 2.09 0 0 0-2.198 3.558 2.09 2.09 0 1 0 2.198-3.558"/><use xlink:href="#C"/><use xlink:href="#C" x="3.768" y="-6.101"/><use xlink:href="#C" x="7.536" y="-12.201"/><use xlink:href="#C" x="11.304" y="-18.301"/><use xlink:href="#D"/><use xlink:href="#D" x="3.768" y="-6.1"/><use xlink:href="#C" x="22.609" y="-36.603"/><use xlink:href="#D" x="11.304" y="-18.301"/><use xlink:href="#C" x="30.146" y="-48.804"/><use xlink:href="#C" x="33.914" y="-54.904"/><use xlink:href="#C" x="37.682" y="-61.005"/><path d="M142.72 128.89a2.091 2.091 0 1 0-2.198 3.558 2.091 2.091 0 0 0 2.198-3.558m3.769-6.1a2.091 2.091 0 0 0-2.198 3.558 2.091 2.091 0 1 0 2.198-3.558"/><use xlink:href="#C" x="-11.305" y="18.302"/><path d="M153.07 118.074a2.091 2.091 0 0 0-1.478 3.912 2.091 2.091 0 0 0 1.478-3.912m-38.024 100.612a2.09 2.09 0 0 0-1.478 3.911 2.09 2.09 0 0 0 1.478-3.911"/><use xlink:href="#E"/><path d="M120.115 205.271a2.091 2.091 0 1 0-1.478 3.912 2.091 2.091 0 0 0 1.478-3.912m2.536-6.708a2.091 2.091 0 0 0-1.478 3.912 2.091 2.091 0 1 0 1.478-3.912"/><use xlink:href="#E" x="7.606" y="-20.122"/><use xlink:href="#E" x="10.14" y="-26.829"/><path d="M130.255 178.441a2.09 2.09 0 0 0-1.478 3.911 2.09 2.09 0 0 0 1.478-3.911m2.535-6.707a2.09 2.09 0 0 0-1.478 3.911 2.09 2.09 0 1 0 1.478-3.911"/><use xlink:href="#E" x="17.745" y="-46.952"/><use xlink:href="#E" x="20.28" y="-53.659"/><path d="M140.395 151.611a2.091 2.091 0 0 0-1.478 3.912 2.091 2.091 0 1 0 1.478-3.912m2.535-6.707a2.091 2.091 0 1 0-1.478 3.912 2.091 2.091 0 0 0 1.478-3.912m2.535-6.708a2.09 2.09 0 0 0-1.478 3.911 2.09 2.09 0 1 0 1.478-3.911m2.535-6.707a2.09 2.09 0 1 0-1.478 3.911 2.09 2.09 0 1 0 1.478-3.911"/><use xlink:href="#E" x="32.955" y="-87.197"/><use xlink:href="#F"/><use xlink:href="#G"/><use xlink:href="#H"/><path d="M70.54 167.637a2.09 2.09 0 1 0-3.37 2.475 2.09 2.09 0 0 0 3.37-2.475"/><use xlink:href="#H" x="11.559" y="-8.489"/><use xlink:href="#G" x="23.116" y="-16.979"/><use xlink:href="#H" x="23.117" y="-16.979"/><use xlink:href="#I"/><use xlink:href="#G" x="40.454" y="-29.713"/><path d="M105.215 142.169a2.091 2.091 0 1 0-3.37 2.475 2.091 2.091 0 0 0 3.37-2.475m5.779-4.245a2.091 2.091 0 0 0-3.37 2.476 2.091 2.091 0 1 0 3.37-2.476"/><use xlink:href="#I" x="23.117" y="-16.979"/><use xlink:href="#F" x="-23.116" y="16.979"/><path d="M128.332 125.19a2.09 2.09 0 0 0-3.37 2.476 2.09 2.09 0 1 0 3.37-2.476"/><use xlink:href="#F" x="-11.558" y="8.489"/><use xlink:href="#I" x="46.233" y="-33.957"/><path d="M53.203 180.371a2.091 2.091 0 1 0-3.37 2.476 2.091 2.091 0 0 0 3.37-2.476m90.861-70.609a2.091 2.091 0 1 0-3.78 1.787 2.091 2.091 0 0 0 3.78-1.787m-97.243 45.961a2.091 2.091 0 0 0-3.781 1.787 2.091 2.091 0 0 0 3.781-1.787"/><use xlink:href="#J"/><use xlink:href="#J" x="6.483" y="-3.064"/><use xlink:href="#K"/><use xlink:href="#J" x="19.449" y="-9.192"/><path d="M79.235 140.403a2.091 2.091 0 0 0-3.781 1.787 2.091 2.091 0 1 0 3.781-1.787m6.483-3.064a2.091 2.091 0 0 0-3.781 1.787 2.091 2.091 0 1 0 3.781-1.787"/><use xlink:href="#J" x="38.898" y="-18.385"/><use xlink:href="#J" x="45.381" y="-21.448"/><use xlink:href="#K" x="38.898" y="-18.385"/><use xlink:href="#K" x="45.381" y="-21.449"/><path d="M118.132 122.018a2.09 2.09 0 0 0-3.781 1.787 2.09 2.09 0 0 0 3.781-1.787"/><use xlink:href="#K" x="58.347" y="-27.577"/><path d="M131.098 115.891a2.091 2.091 0 1 0-3.78 1.787 2.091 2.091 0 1 0 3.78-1.787m6.483-3.065a2.091 2.091 0 1 0-3.78 1.787 2.091 2.091 0 1 0 3.78-1.787"/></g><path d="M184.486 77.716c.585.582 3.49 5.043 3.49 5.043l-2.72 5.33c-.627.657-27.131 21.13-27.131 21.13l-5.809-5.141 17.318-27.91c.378-.389 5.552-4.65 5.552-4.65l5.809 2.84s6.119-5.821 11.891-5.821c8.823 0 10.935 9.862 11.233 11.12.653 2.708 8.922 41.024 11.048 45.451 2.383 4.956 10.795 4.918 10.795 4.918v4.944s-9.386-.442-13.054-4.944c-2.58-3.177-3.569-7.271-5.56-15.898l-3.566-14.89-3.705-16.132c-.797-3.486-1.639-6.251-3.369-7.989-4.529-4.521-12.223 2.599-12.223 2.599"/><path d="M238.369 132.5c0-58.47-47.399-105.869-105.869-105.869a105.42 105.42 0 0 0-67.175 24.04l149.366 148.554c14.802-18.209 23.678-41.429 23.678-66.725zM50.309 65.775c-14.801 18.21-23.678 41.429-23.678 66.725 0 58.47 47.399 105.869 105.869 105.869 25.503 0 48.899-9.019 67.175-24.04zM265 132.5C265 59.322 205.678 0 132.5 0S0 59.322 0 132.5 59.322 265 132.5 265 265 205.678 265 132.5" fill="#b71f2e" fill-rule="evenodd"/><defs ><path id="B" d="M147.759 114.793a2.09 2.09 0 1 0-2.836 3.073 2.09 2.09 0 1 0 2.836-3.073"/><path id="C" d="M101.27 195.996a2.09 2.09 0 1 0-2.198 3.558 2.09 2.09 0 1 0 2.198-3.558"/><path id="D" d="M116.343 171.594a2.09 2.09 0 1 0-2.198 3.557 2.09 2.09 0 1 0 2.198-3.557"/><path id="E" d="M117.58 211.978a2.09 2.09 0 1 0-1.478 3.912 2.09 2.09 0 1 0 1.478-3.912"/><path id="F" d="M145.669 112.456a2.09 2.09 0 1 0-3.37 2.476 2.09 2.09 0 1 0 3.37-2.476"/><path id="G" d="M58.982 176.127a2.09 2.09 0 0 0-3.37 2.475 2.09 2.09 0 0 0 3.37-2.475"/><path id="H" d="M64.761 171.882a2.09 2.09 0 1 0-3.37 2.475 2.09 2.09 0 1 0 3.37-2.475"/><path id="I" d="M93.657 150.658a2.09 2.09 0 0 0-3.37 2.476 2.09 2.09 0 0 0 3.37-2.476"/><path id="J" d="M53.303 152.659a2.09 2.09 0 1 0-3.781 1.787 2.09 2.09 0 1 0 3.781-1.787"/><path id="K" d="M66.269 146.531a2.09 2.09 0 1 0-3.781 1.787 2.09 2.09 0 0 0 3.781-1.787"/></defs></svg>