<svg xmlns="http://www.w3.org/2000/svg" width="265" height="265"><path d="M251.75 132.5c0-65.86-53.39-119.25-119.25-119.25S13.25 66.64 13.25 132.5 66.64 251.75 132.5 251.75s119.25-53.39 119.25-119.25" fill="#fff" fill-rule="evenodd"/><path d="M173.771 77.227H90.983v110.385h82.788zm-35.319 117.288v6.344h-3.32v26.163l-2.801.043a79.35 79.35 0 0 1-2.718-.043V200.86h-3.308v-6.344H84.084V70.335h42.222v-6.342h3.308V37.978l2.718-.043 2.801.043v26.016h3.32v6.342h42.222v124.18z"/><path d="M152.85 105.443a5.275 5.275 0 1 1 0 10.55 5.275 5.275 0 1 1 0-10.55m.465 41.038c0-.264-.201-.465-.465-.465-.253 0-.465.201-.465.465v30.677c0 1.712-1.385 3.096-3.108 3.096-1.714 0-3.099-1.385-3.099-3.096v-49.051-1.617c0-.264-.212-.465-.465-.465-.264 0-.465.201-.465.465v21.079c0 1.543-1.258 2.79-2.801 2.79a2.79 2.79 0 0 1-2.792-2.79v-21.481a8.22 8.22 0 0 1 8.225-8.225h9.936a8.22 8.22 0 0 1 8.225 8.225v21.481a2.791 2.791 0 1 1-5.582 0v-21.016a.47.47 0 0 0-.465-.465.46.46 0 0 0-.465.465v50.604c0 1.712-1.396 3.096-3.108 3.096s-3.11-1.385-3.11-3.096zm-37.634-63.143a7.47 7.47 0 0 1 7.474 7.462 7.47 7.47 0 0 1-7.474 7.465c-4.123 0-7.462-3.342-7.462-7.465a7.46 7.46 0 0 1 7.462-7.462m.602 53.46c0-.329-.268-.593-.602-.593-.327 0-.598.264-.598.593v39.473a3.993 3.993 0 1 1-7.986 0v-63.11-2.084c0-.327-.271-.591-.602-.591s-.598.264-.598.591v27.126c0 1.987-1.612 3.595-3.595 3.595s-3.595-1.608-3.595-3.595V110.57a10.59 10.59 0 0 1 10.588-10.581h12.78a10.58 10.58 0 0 1 10.581 10.581v27.633a3.593 3.593 0 1 1-7.187 0v-27.031a.6.6 0 0 0-.602-.602c-.329 0-.598.264-.598.602v65.099a3.994 3.994 0 0 1-7.988 0z" fill-rule="evenodd"/><path d="M189.003 109.491c12.516 15.423 25.15 23.109 37.899 23.035 0 5.92-.55 11.725-1.585 17.347-25.308-6.872-37.402-20.328-36.313-40.382m24.757 71.124c-14.05-.972-22.421-8.818-25.116-23.522 9.799 7.95 20.624 10.624 32.475 8.056a93.99 93.99 0 0 1-7.359 15.466m10.064-23.997l-1.236 4.271c-7.559 4.619-18.427 1.394-22.739-5.636-3.572-5.834-8.489-10.106-15.687-12.273 9.587-4.704 17.379-3.182 23.72 4.24 4.621 5.412 9.936 8.552 15.942 9.397m.846-32.569c-8.15-4.767-13.818-10.931-17.009-18.499-5.742-13.617-10.16-21.693-22.432-20.942 4.323 4.165 6.396 6.215 7.474 11.777 3.985 20.455 15.085 30.689 31.967 27.665m1.099-6.259c-15.953-9.567-21.724-22.949-17.306-40.129 3.024 7.76 6.831 14.102 11.418 19.018a94.31 94.31 0 0 1 5.888 21.111"/><path d="M238.369 132.5c0-58.47-47.399-105.869-105.869-105.869a105.42 105.42 0 0 0-67.175 24.04l149.366 148.554c14.802-18.209 23.678-41.429 23.678-66.725zM50.309 65.775c-14.801 18.21-23.678 41.429-23.678 66.725 0 58.47 47.399 105.869 105.869 105.869 25.503 0 48.899-9.019 67.175-24.04zM265 132.5C265 59.322 205.678 0 132.5 0S0 59.322 0 132.5 59.322 265 132.5 265 265 205.678 265 132.5" fill="#b71f2e" fill-rule="evenodd"/></svg>