<svg xmlns="http://www.w3.org/2000/svg" width="265" height="265" fill-rule="evenodd"><path d="M251.75 132.5c0-65.86-53.39-119.25-119.25-119.25S13.25 66.64 13.25 132.5 66.64 251.75 132.5 251.75s119.25-53.39 119.25-119.25" fill="#fff"/><path d="M155.496 103.204l28.182 27.663 7.595-13.499h18.354c3.484-.024 4.118-.473 5.63-3.201l3.019-5.447c.835-1.508.096-2.259-1.179-3.105l-12.364-8.198-.101-4.873c-.039-1.869-.295-3.456-2.362-4.625l-10.851-5.866V70.347c0-1.061-.814-1.538-1.549-.818zm-73.332 7.188L70.277 89.952c-1.306-2.245-4.733-1.705-4.654 1.123v26.915c.176 1.35 1.959 3.765 2.773 5.018.542.836.887 2.692.881 4.846l-.086 32.862-6.318 17.073v14.108c0 12.145 17.406 12.473 17.406-.384v-11.187l18.043-28.561 50.602 11.259v29.564c0 11.268 15.951 11.381 15.951 0v-30.404l13.215-21.366-31.272-30.47z"/><path d="M238.369 132.5c0-58.47-47.399-105.869-105.869-105.869a105.42 105.42 0 0 0-67.175 24.04l149.366 148.554c14.802-18.209 23.678-41.429 23.678-66.725zM50.309 65.775c-14.801 18.21-23.678 41.429-23.678 66.725 0 58.47 47.399 105.869 105.869 105.869 25.503 0 48.899-9.019 67.175-24.04zM265 132.5C265 59.322 205.678 0 132.5 0S0 59.322 0 132.5 59.322 265 132.5 265 265 205.678 265 132.5" fill="#b71f2e"/></svg>