<svg xmlns="http://www.w3.org/2000/svg" width="265" height="265" fill-rule="evenodd"><path d="M251.75 132.5c0-65.86-53.39-119.25-119.25-119.25S13.25 66.64 13.25 132.5 66.64 251.75 132.5 251.75s119.25-53.39 119.25-119.25" fill="#fff"/><path d="M125.214 205.786c-1.08-1.478-.876-2.882-.778-4.569-2.218-2.134-2.388-4.502-2.147-6.995l-1.556-1.098c-.822 1.329-2.092 1.686-3.387 2.333.494 2.166-.392 2.952-1.684 4.431 1.481 1.502 1.342 2.948 1.32 4.849 2.032.404 2.469 1.591 3.382 3.151 1.691-.863 2.918-.321 4.569.138-.438-.779.19-1.517.28-2.24zm9.231-6.08c-.243-2.304-1.46-3.287-3.156-4.569.95-2.941-.894-4.65-2.24-6.124l-.222-.827c2.24-.236 3.275-1.485 4.569-3.107h1.231c-.492 2.444.302 4.156 1.511 6.169-1.677 2.255-.607 4.616.044 6.355v.684c-.831.148-1.182.965-1.738 1.418zm-7.271-20.018c1.312-1.416 2.683-1.439 4.435-1.6-1.574-2.405-1.558-4.778-1.231-7.498-.769-.761-1.05-1.779-1.551-2.693-.464 1.463-1.575 2.029-2.653 2.924 1.224 2.388.53 3.933-.733 6.031 1.183.644 1.252 1.764 1.733 2.836zm13.942-8.595c-.171-1.623-1.278-1.895-2.329-2.742.378-1.266.264-2.547.32-3.84.959.875 2.161 1.071 3.338 1.462-.961 1.597-1.122 3.54-1.329 5.12zm-12.338 55.808c-1.514-2.329-1.153-4.274-.458-6.764-.968-1.121-1.059-2.47-1.369-3.84-1.738.606-3.403.332-5.164.138-6.729-3.333-1.649-.262-6.72-1.964-1.687-.645-2.414-1.929-3.347-3.338-3.174-1.429-3.957-3.81-4.022-7.04-1.89-2.871-.267-5.375.782-7.311-.181-3.036 1.345-4.404 3.787-5.76 1.066-2.686 2.942-3.744 5.449-4.795v-1.058c-1.171-1.192-.745-2.181-.733-3.609-2.376-3.093-1.824-6.042.231-9.049-1.691-3.919.992-6.767 4.067-9.004.765-2.964 2.674-4.206 5.347-5.253.001-.869.484-1.585.733-2.378-1.861-3.101-.997-5.877 1.649-7.404-1.771-2.233-1.455-4.166-.556-6.631-1.206-2.383-.669-4.13.324-6.395-1.216-2.503-.66-4.56.271-6.991-1.003-2.951-.421-5.666.364-8.56-1.1-3.188-.404-5.114.644-7.769-1.42-2.474-.949-4.503.044-6.987-1.459-2.593-.979-4.723.138-7.275-1.244-2.544-.766-4.68.049-7.222-1.772-2.509-1.372-4.537-.187-7.129-1.356-2.453-.933-4.573-.138-7.075-.621-1.879-.082-3.479.413-5.267-1.049-2.16-.911-5.089.316-7.164-1.144-2.328-.826-4.423-.316-6.822-1.41-2.551-.917-4.707-.089-7.311-1.071-2.133-1.227-5.351.271-7.315l.867-.733 6.307-3.924h2.289c1.213 2.436.625 4.196-.413 6.489 1.65 2.352 1.145 4.191-.089 6.533 1.614 2.746 1.153 4.961-.049 7.689 1.973 2.468 1.576 4.493.32 7.129 1.463 2.196 1.086 4.013.413 6.347.585 2.08-.007 3.747-.684 5.667 1.242 2.546.731 4.67-.138 7.187 1.298 2.566.72 4.701-.227 7.222 1.72 2.478 1.385 4.549.364 7.164 1.494 2.55.959 4.492-.324 6.915 1.607 2.655 1.19 4.85 0 7.493 1.36 3.021.81 5.652-.453 8.538 1.433 2.526.882 4.579-.32 7 1.13 2.366.627 4.144-.324 6.4 1.44 2.666.871 4.698-.364 7.222 1.665 2.564 1.092 4.451-.364 6.858.545 1.751.043 3.282-.32 4.982 3.672-1.052 6.118.421 8.364 3.196 3.951.682 5.24 3.182 5.302 6.902 2.315 3.437 1.179 6.204-1.782 8.595.726 3.353-2.168 4.721-4.844 6.262 1.755 2.145 1.506 3.981.867 6.444 2.157 2.956 1.971 5.937.093 8.547 1.972 3.614.318 5.7-1.876 8.182.229 4.034-2.397 6.494-5.804 7.355.694 2.058-.101 3.535-.916 5.351 2.347 2.914 1.967 5.512-.453 7.995"/><path d="M238.369 132.5c0-58.47-47.399-105.869-105.869-105.869a105.42 105.42 0 0 0-67.175 24.04l149.366 148.554c14.802-18.209 23.678-41.429 23.678-66.725zM50.309 65.775c-14.801 18.21-23.678 41.429-23.678 66.725 0 58.47 47.399 105.869 105.869 105.869 25.503 0 48.899-9.019 67.175-24.04zM265 132.5C265 59.322 205.678 0 132.5 0S0 59.322 0 132.5 59.322 265 132.5 265 265 205.678 265 132.5" fill="#b71f2e"/></svg>