<svg xmlns="http://www.w3.org/2000/svg" width="265" height="265" fill-rule="evenodd"><path d="M251.75 132.5c0-65.86-53.39-119.25-119.25-119.25S13.25 66.64 13.25 132.5 66.64 251.75 132.5 251.75s119.25-53.39 119.25-119.25" fill="#fff"/><path d="M202.907 186.677l1.712-.411c-.258 3.255-.671 6.128-2.977 6.711-8.735 1.454-14.759-.926-20.889-3.348-4.456-1.761-8.979-3.548-14.609-3.501-4.494.037-8.937 1.853-13.61 3.762-5.709 2.334-11.734 4.794-19.27 4.887-6.609.081-11.211-1.857-16.047-3.891-5.225-2.199-10.764-4.53-19.609-3.917-7.033.487-11.361 2.368-15.252 4.059-5.189 2.255-9.711 4.22-17.784 3.097-3.539-.494-3.531-3.971-3.903-6.852l1.688.439c8.439 1.874 12.628.053 17.535-2.079 4.368-1.899 9.227-4.011 17.29-4.569 10.319-.715 16.55 1.907 22.427 4.38 4.253 1.79 8.298 3.492 13.585 3.428 6.329-.077 11.817-2.32 17.019-4.446 5.213-2.129 10.169-4.155 15.885-4.202 6.848-.057 11.913 1.944 16.907 3.918 5.832 2.304 11.553 4.564 19.903 2.536zm0-13.58l1.712-.412c-.258 3.255-.671 6.128-2.977 6.71-8.735 1.454-14.759-.926-20.889-3.347-4.456-1.761-8.979-3.547-14.609-3.501-4.494.037-8.937 1.852-13.61 3.762-5.709 2.332-11.734 4.794-19.27 4.886-6.609.081-11.211-1.856-16.047-3.891-5.225-2.199-10.764-4.529-19.609-3.917-7.033.487-11.361 2.369-15.252 4.06-5.189 2.255-9.711 4.22-17.784 3.096-3.539-.493-3.531-3.971-3.903-6.851l1.688.439c8.439 1.874 12.628.053 17.535-2.079 4.368-1.898 9.227-4.011 17.29-4.569 10.319-.716 16.55 1.906 22.427 4.38 4.253 1.789 8.298 3.492 13.585 3.428 6.329-.078 11.817-2.32 17.019-4.446 5.213-2.13 10.169-4.155 15.885-4.202 6.848-.057 11.913 1.945 16.907 3.918 5.832 2.304 11.553 4.564 19.903 2.536m-89.425-7.572c2.398.747 4.866 1.701 7.595 2.848 2.569 1.086 4.86 2.048 7.331 2.61l77.862-22.616c4.518-1.312 11.193-7.246 9.882-11.763l-.241-.831z"/><path d="M110.999 161.703l35.234-31.281 19.562 13.463c2.174 1.497 4.844 1.764 7.176.963l37.989-11.666a8.09 8.09 0 0 0 5.35-10.06c-1.295-4.237-5.822-6.65-10.059-5.349l-34.556 10.612-33.701-23.194c-1.383-.952-2.967-1.407-4.537-1.406a7.83 7.83 0 0 0-5.414 1.979l-43.163 38.319c-4.287 3.807-7.556 7.494-10.819 12.208l-8.031 11.603c2.963.443 5.365.228 8.494-.98.896-.346 1.768-.735 2.65-1.113 2.7-1.164 5.177-2.203 8.008-3.062 3.767-1.142 7.602-1.782 11.526-2.056 5.493-.382 9.923-.015 14.289 1.018zm62.648-55.592c4.995-7.499 2.964-17.627-4.536-22.621s-17.626-2.964-22.62 4.536-2.964 17.627 4.536 22.621 17.626 2.964 22.62-4.536"/><path d="M238.369 132.5c0-58.47-47.399-105.869-105.869-105.869a105.42 105.42 0 0 0-67.175 24.04l149.366 148.554c14.802-18.209 23.678-41.429 23.678-66.725zM50.309 65.775A105.42 105.42 0 0 0 26.631 132.5c0 58.47 47.399 105.869 105.869 105.869 25.503 0 48.899-9.019 67.175-24.04zM265 132.5C265 59.322 205.678 0 132.5 0S0 59.322 0 132.5 59.322 265 132.5 265 265 205.678 265 132.5" fill="#b71f2e"/></svg>