<svg xmlns="http://www.w3.org/2000/svg" width="265" height="265" fill-rule="evenodd"><path d="M251.75 132.5c0-65.86-53.39-119.25-119.25-119.25S13.25 66.64 13.25 132.5 66.64 251.75 132.5 251.75s119.25-53.39 119.25-119.25" fill="#fff"/><path d="M102.086 203.375c-11.382-3.023-13.836-6.652-25.599-2.962-1.798.564-3.588 1.225-5.452 1.839 1.598 1.419 3.246 2.784 4.94 4.091 7.644-2.653 9.839-2.581 16.48-.273 14.106 4.902 19.516 4.848 32.216.401 7.943-2.782 10.097-2.746 16.846-.401 14.096 4.898 19.515 4.851 32.216.401 7.62-2.67 9.917-2.743 16.049-.674 1.675-1.319 3.303-2.693 4.883-4.122-7.073-2.42-10.48-4.265-20.053-1.262-6.438 2.018-13.706 5.554-23.464 2.962-11.383-3.024-13.836-6.651-25.599-2.962-6.436 2.018-13.705 5.554-23.463 2.962zm0-11.111c-11.382-3.023-13.836-6.652-25.599-2.962-4.445 1.395-8.837 3.379-14.438 3.79a93.06 93.06 0 0 0 4.487 4.89c3.486-.664 6.519-1.726 9.073-2.622 7.942-2.783 10.1-2.745 16.846-.401 14.106 4.902 19.516 4.848 32.216.401 7.943-2.782 10.097-2.745 16.846-.401 14.096 4.899 19.515 4.851 32.216.401 7.942-2.783 10.101-2.744 16.847-.4 3.097 1.077 5.817 1.953 8.372 2.58 1.466-1.508 2.882-3.065 4.243-4.669a25.67 25.67 0 0 1-2.986-.606c-11.381-3.023-13.836-6.652-25.598-2.962-6.438 2.019-13.706 5.555-23.464 2.962-11.383-3.024-13.836-6.652-25.599-2.962-6.436 2.019-13.705 5.555-23.463 2.962m16.078-29.746H73.77c-2.662 0-4.223 2.977-2.709 5.166l3.632 5.252H56.126l10.598 13.933 6.966-2.328c12.378-3.883 14.963-.064 26.941 3.117 10.27 2.728 17.922-.993 24.695-3.117 10.138-3.179 13.706-1.196 21.244 1.375l-4.304-13.472h-12.78l40.43-48.271 1.126 2.275.707 5.752-7.273 6.02c-.784.649-.953 1.65-.244 2.443l7.325 8.191c1.473 1.646 3.962-.578 2.496-2.226l1.143 1.279c1.473 1.648 3.966-.581 2.493-2.229l-4.997-5.587 6.228-5.154c.579-.479.714-1.092.574-1.639l-1.526-12.351 7.536-14.832 14.738-29.771c-2.823-12.305-13.839-21.483-27-21.483-12.897 0-24.128 8.927-27.001 21.488l22.697 45.847-42.087 50.248h-3.285zm30.68-86.362c2.036-1.985 5.492-1.154 9.437.472l7.398 27.813h-2.833zm26.874 36.939a3.14 3.14 0 0 0-3.138-3.138 3.14 3.14 0 0 0-3.138 3.138 3.14 3.14 0 0 0 3.138 3.138 3.14 3.14 0 0 0 3.138-3.138zm1.423 4.469a1.24 1.24 0 0 0-.869-.22l-5.019.617a1.25 1.25 0 0 0-1.092 1.26l-6.117-12.356h18.393zm-2.686-41.319c3.746-2.77 7.402-2.763 11.305.157l-7.457 28.039h-3.848zm13.746.385c3.945-1.626 7.402-2.459 9.439-.476l-14.003 28.288h-2.833zm-27.478-.225c3.903-2.921 7.559-2.93 11.305-.162v28.199h-3.848zm-83.588 96.039h33.246m-33.246 0h33.246l-1.466-3.841c-.31-.814-1.054-1.326-1.925-1.326H77.12c-.85 0-1.444.826-1.173 1.632z"/><path d="M238.369 132.5c0-58.47-47.399-105.869-105.869-105.869a105.42 105.42 0 0 0-67.175 24.04l149.366 148.554c14.802-18.209 23.678-41.429 23.678-66.725zM50.309 65.775c-14.801 18.21-23.678 41.429-23.678 66.725 0 58.47 47.399 105.869 105.869 105.869 25.503 0 48.899-9.019 67.175-24.04zM265 132.5C265 59.322 205.678 0 132.5 0S0 59.322 0 132.5 59.322 265 132.5 265 265 205.678 265 132.5" fill="#b71f2e"/></svg>