<svg xmlns="http://www.w3.org/2000/svg" width="265" height="265" fill-rule="evenodd"><path d="M251.75 132.5c0-65.86-53.39-119.25-119.25-119.25S13.25 66.64 13.25 132.5 66.64 251.75 132.5 251.75s119.25-53.39 119.25-119.25" fill="#fff"/><path d="M182.176 90.785c0-4.719-1.913-8.991-5.005-12.083s-7.364-5.005-12.083-5.005-8.991 1.913-12.083 5.005S148 86.066 148 90.785s1.913 8.991 5.005 12.083 7.364 5.005 12.083 5.005 8.991-1.913 12.083-5.005 5.005-7.364 5.005-12.083zm-2.328-14.759c3.777 3.777 6.114 8.996 6.114 14.759s-2.337 10.982-6.114 14.759-8.996 6.114-14.759 6.114-10.982-2.337-14.759-6.114-6.114-8.996-6.114-14.759 2.337-10.982 6.114-14.759 8.996-6.114 14.759-6.114 10.982 2.337 14.759 6.114zm11.503 12.866h17.163v3.786h-17.163zm-6.125-15.075L199.11 63.73l2.218 3.061-13.884 10.087zm-13.819-8.594l5.304-16.323 3.593 1.168L175 66.392zm-16.231 1.168l-5.304-16.323 3.593-1.168 5.304 16.323zm-12.444 10.486L128.848 66.79l2.218-3.061 13.884 10.087zm-3.907 15.8h-17.162v-3.786h17.162zm6.125 15.075l-13.884 10.088-2.218-3.061 13.884-10.088zm13.819 8.594l-5.304 16.323-3.593-1.168 5.304-16.323zM175 115.178l5.304 16.323-3.593 1.168-5.304-16.323zm12.444-10.487l13.884 10.088-2.218 3.061-13.884-10.088zM69.722 199.685h65.017v6.201H69.722zM86.81 144.84c-1.906 3.792-3.531 7.424-3.856 11.179-.317 3.654.603 7.558 3.723 12.087 3.658 5.31 5.127 10.034 4.943 14.523-.183 4.497-2.012 8.641-4.951 12.825l-3.091-2.174c2.542-3.62 4.122-7.126 4.271-10.798.15-3.679-1.121-7.649-4.279-12.232-3.695-5.363-4.776-10.079-4.388-14.557.379-4.377 2.164-8.394 4.255-12.554zm32.453 0c-1.906 3.792-3.531 7.424-3.856 11.179-.316 3.654.603 7.559 3.723 12.087 3.658 5.31 5.127 10.034 4.943 14.523-.183 4.497-2.012 8.641-4.951 12.825l-3.091-2.174c2.542-3.62 4.122-7.126 4.271-10.798.15-3.679-1.121-7.649-4.279-12.232-3.695-5.363-4.775-10.079-4.388-14.557.379-4.377 2.164-8.394 4.255-12.554zm-16.226 0c-1.906 3.792-3.531 7.424-3.856 11.179-.316 3.654.603 7.558 3.723 12.087 3.658 5.31 5.127 10.034 4.943 14.524-.183 4.497-2.013 8.641-4.951 12.824l-3.091-2.174c2.542-3.619 4.122-7.125 4.271-10.798.15-3.679-1.121-7.649-4.279-12.232-3.695-5.363-4.775-10.079-4.388-14.557.379-4.377 2.164-8.394 4.255-12.554z"/><path d="M238.369 132.5c0-58.47-47.399-105.869-105.869-105.869a105.42 105.42 0 0 0-67.175 24.04l149.366 148.554c14.802-18.209 23.678-41.429 23.678-66.725zM50.309 65.775A105.42 105.42 0 0 0 26.631 132.5c0 58.47 47.399 105.869 105.869 105.869 25.503 0 48.899-9.019 67.175-24.04zM265 132.5C265 59.322 205.678 0 132.5 0S0 59.322 0 132.5 59.322 265 132.5 265 265 205.678 265 132.5" fill="#b71f2e"/></svg>