<svg  xmlns="http://www.w3.org/2000/svg" version="1.1" viewBox="-5.0 -10.0 110.0 135.0">
 <path d="m39.062 23.438c0 4.3164-3.4961 7.8125-7.8125 7.8125s-7.8125-3.4961-7.8125-7.8125 3.4961-7.8125 7.8125-7.8125 7.8125 3.4961 7.8125 7.8125"/>
 <path d="m9.2227 55.793 3.3086 0.74609 4.9375-19.75c0.41016-1.6406 1.2461-3.0781 2.3594-4.2344l-5.1016-1.1523c-3.3672-0.75781-6.7109 1.3555-7.4727 4.7188l-2.75 12.195c-0.75781 3.3672 1.3555 6.7109 4.7188 7.4727z"/>
 <path d="m84.375 68.75-21.875 3.125-20.312 15.625h-14.062l-9.375 6.25h-18.75v6.25h100v-46.875z"/>
 <path d="m15.234 81.203c0.10938-0.19531 0.19531-0.40625 0.26172-0.61719l3.1562-10.516c0.050781 0.015626 0.097656 0.039063 0.14844 0.054688 0.21484 0.054688 0.42969 0.089844 0.64453 0.12109l13.375 6.6875v7.4453h6.25v-9.375c0-1.1836-0.66797-2.2656-1.7266-2.7969l-11.297-5.6484c0.13672-0.3125 0.25-0.63672 0.33594-0.98047l5.3945-21.578 8.207 8.207c0.60938 0.60938 1.4102 0.91406 2.2109 0.91406 0.80078 0 1.6016-0.30469 2.2109-0.91406l5.6016-5.6016v30.941l3.125-2.4023v-31.664l0.64844-0.64844c1.2188-1.2188 1.2188-3.1992 0-4.418-0.19531-0.19531-0.41797-0.35156-0.64844-0.48437v-3.5586c0-0.86328-0.69922-1.5625-1.5625-1.5625-0.86328 0-1.5625 0.69922-1.5625 1.5625v3.5586c-0.23047 0.13281-0.44922 0.28516-0.64844 0.48437l-7.1641 7.1641-10.289-10.289c-0.27734-0.27734-0.59766-0.48437-0.93359-0.63281-0.77344-0.77344-1.7461-1.3711-2.8828-1.6562-3.3438-0.83594-6.7422 1.1992-7.5781 4.5469l-10.895 40.918-6.7539 12.16h7.1484l5.2344-9.4219z"/>
 <path d="m54.688 18.75h18.75c3.4531 0 6.25-2.7969 6.25-6.25s-2.7969-6.25-6.25-6.25c-0.58984 0-1.1523 0.10938-1.6953 0.26172-0.62109-3.6914-3.8125-6.5117-7.6797-6.5117s-7.0586 2.8203-7.6797 6.5117c-0.54297-0.15234-1.1016-0.26172-1.6953-0.26172-3.4531 0-6.25 2.7969-6.25 6.25s2.7969 6.25 6.25 6.25z"/>
 <path d="m56.938 72.211 4.3086-3.3125 21.656-3.0938 8.6289-8.6328-13.406-25.922z"/>
 <path d="m98.172 50.531-7.5469-14.594-3.2773 6.3398 6.5039 12.574z"/>
<text x="0.0" y="117.5" font-size="5.0" font-weight="bold" font-family="Arbeit Regular, Helvetica, Arial-Unicode, Arial, Sans-serif" fill="#000000">Created by Berkah Icon</text><text x="0.0" y="122.5" font-size="5.0" font-weight="bold" font-family="Arbeit Regular, Helvetica, Arial-Unicode, Arial, Sans-serif" fill="#000000">from Noun Project</text></svg>