<?xml version="1.0" encoding="UTF-8" standalone="no"?>
<!DOCTYPE svg PUBLIC "-//W3C//DTD SVG 1.1//EN" "http://www.w3.org/Graphics/SVG/1.1/DTD/svg11.dtd">
<svg width="100%" height="100%" viewBox="0 0 58 50" version="1.1" xmlns="http://www.w3.org/2000/svg" xmlns:xlink="http://www.w3.org/1999/xlink" xml:space="preserve" xmlns:serif="http://www.serif.com/" style="fill-rule:evenodd;clip-rule:evenodd;stroke-linejoin:round;stroke-miterlimit:2;">
    <g transform="matrix(1,0,0,1,-2934.64,-734.177)">
        <g transform="matrix(0.340546,0,0,0.291698,2746.6,910.179)">
            <g transform="matrix(2.84586e-16,-5.42594,4.64764,-2.31752e-15,-594.779,3310.55)">
                <path d="M718.901,259.061c1.559,1.559 2.435,3.674 2.435,5.879c-0,2.205 -0.876,4.32 -2.435,5.879l-5.879,-5.879l5.879,-5.879Z" style="fill:#f5bb00;"/>
            </g>
        </g>
        <g transform="matrix(0.340546,0,0,0.291698,2746.6,910.179)">
            <g transform="matrix(4.68258,-2.66968e-15,0,5.46674,-2743.11,-2568.86)">
                <path d="M719.178,375.665c1.046,-0 1.895,0.849 1.895,1.895c-0,1.046 -0.849,1.895 -1.895,1.895c-1.046,-0 -1.895,-0.849 -1.895,-1.895c-0,-1.046 0.849,-1.895 1.895,-1.895Zm5.154,-0c1.046,-0 1.895,0.849 1.895,1.895c-0,1.046 -0.849,1.895 -1.895,1.895c-1.046,-0 -1.895,-0.849 -1.895,-1.895c-0,-1.046 0.849,-1.895 1.895,-1.895Zm-15.322,14.64c-3.38,-3.38 -5.279,-7.965 -5.279,-12.745c-0,-4.78 1.899,-9.365 5.279,-12.745l6.866,6.866c-1.559,1.559 -2.435,3.674 -2.435,5.879c0,2.205 0.876,4.319 2.435,5.879c0,-0 -6.534,6.536 -6.866,6.866Zm25.489,-0.001l-6.865,-6.865c1.559,-1.56 2.435,-3.674 2.435,-5.879c-0,-2.205 -0.876,-4.32 -2.435,-5.879l6.866,-6.866c1.084,1.084 2.015,2.292 2.781,3.59c1.587,2.684 2.498,5.814 2.498,9.155c-0,3.341 -0.911,6.471 -2.498,9.154c-0.766,1.299 -1.698,2.506 -2.782,3.59Z" style="fill:#df4d4d;fill-opacity:1;"/>
            </g>
        </g>
        <g transform="matrix(0.340546,0,0,0.291698,2746.6,910.179)">
            <g transform="matrix(4.68258,-2.66968e-15,0,5.46674,-2743.11,-2568.86)">
                <path d="M725.326,375.947c0.541,0.334 0.901,0.931 0.901,1.613c-0,1.046 -0.849,1.895 -1.895,1.895c-0.682,-0 -1.279,-0.361 -1.613,-0.901l2.607,-2.607Zm-4.535,2.607c-0.334,0.54 -0.932,0.901 -1.613,0.901c-1.046,-0 -1.895,-0.849 -1.895,-1.895c-0,-0.682 0.36,-1.279 0.901,-1.613l2.607,2.607Zm-11.781,11.751c-3.38,-3.38 -5.279,-7.965 -5.279,-12.745c-0,-4.78 1.899,-9.365 5.279,-12.745l6.866,6.866c-1.559,1.559 -2.435,3.674 -2.435,5.879c0,2.205 0.876,4.319 2.435,5.879c0,-0 -6.534,6.536 -6.866,6.866Zm25.489,-0.001l-6.865,-6.865c1.559,-1.56 2.435,-3.674 2.435,-5.879c-0,-2.205 -0.876,-4.32 -2.435,-5.879l6.866,-6.866c1.084,1.084 2.015,2.292 2.781,3.59c1.587,2.684 2.498,5.814 2.498,9.155c-0,3.341 -0.911,6.471 -2.498,9.154c-0.766,1.299 -1.698,2.506 -2.782,3.59Z" style="fill:#df4d4d;"/>
            </g>
        </g>
    </g>
</svg>
