<svg width="522" height="541" xmlns="http://www.w3.org/2000/svg" xmlns:xlink="http://www.w3.org/1999/xlink" xml:space="preserve" overflow="hidden"><g transform="translate(-660 -343)"><g><path d="M817.338 839.899C816.866 801.909 803.983 724.26 713.305 680.188 805.39 709.504 849.694 787.484 854.202 845.649 950.899 864.971 1036.72 910.557 1176.05 862.413L1176.52 862.11C1176.52 862.11 993.179 863.788 916.503 808.216 956.118 809.703 1001.7 800.725 1016.64 778.267 1032.54 754.343 1034.19 729.622 1073.42 728.361 1095.45 727.642 1170.17 733.23 1178 623.285 1154.1 663.727 1128.2 680.435 1089.1 670.443 1064.14 664.087 1018.56 644.926 985.978 683.931 959.085 716.107 930.217 732.842 884.146 727.861 902.579 702.894 1177.26 345.512 1177.26 345.512 1177.26 345.512 825.362 628.521 805.938 645.004 802.204 593.336 817.64 574.373 838.295 551.661 855.222 533.086 884.611 507.921 861.207 454.823 842.31 411.908 844.779 385.954 896.341 344.772 855.25 347.774 792.53 375.462 799.946 451.082 804.454 496.745 772.148 500.712 760.362 507.238 729.732 524.22 725.749 573.633 724.733 612.06 721.271 599.558 676.687 407.532 661 345.407 661 345.435 661 862.11 661 862.11L662.182 862.11C721.903 838.545 771.571 834.945 817.338 839.899" fill="#BF2F38" fill-rule="evenodd" fill-opacity="1"/></g></g></svg>