<?xml version="1.0" encoding="UTF-8"?>
<svg xmlns="http://www.w3.org/2000/svg" xmlns:xlink="http://www.w3.org/1999/xlink" width="130.411pt" height="55.1445pt" viewBox="0 0 130.411 55.1445" version="1.1">
<defs>
<clipPath id="clip1">
  <path d="M 0 0 L 130.410156 0 L 130.410156 41 L 0 41 Z M 0 0 "/>
</clipPath>
<clipPath id="clip2">
  <path d="M 58 46 L 64 46 L 64 55.144531 L 58 55.144531 Z M 58 46 "/>
</clipPath>
<clipPath id="clip3">
  <path d="M 127 46 L 130.410156 46 L 130.410156 53 L 127 53 Z M 127 46 "/>
</clipPath>
</defs>
<g id="surface1">
<g clip-path="url(#clip1)" clip-rule="nonzero">
<path style=" stroke:none;fill-rule:nonzero;fill:rgb(38.903809%,13.83667%,56.591797%);fill-opacity:1;" d="M 0.0664062 40.472656 L 130.40625 40.472656 L 130.40625 0 L 0.0664062 0 Z M 0.0664062 40.472656 "/>
</g>
<path style=" stroke:none;fill-rule:nonzero;fill:rgb(98.94104%,82.312012%,2.116394%);fill-opacity:1;" d="M 86.4375 13.757812 C 86.4375 12.84375 87.257812 12.289062 88.429688 12.289062 C 89.65625 12.289062 90.796875 13.070312 91.292969 14.246094 L 91.578125 14.246094 L 91.34375 12.5 C 90.734375 12.222656 89.421875 11.816406 88.269531 11.816406 C 86.457031 11.816406 85.140625 12.992188 85.140625 14.351562 C 85.140625 17.207031 90.8125 17.84375 90.8125 20.195312 C 90.8125 21.484375 89.550781 22.035156 88.359375 22.035156 C 86.96875 22.035156 85.695312 21.191406 85.316406 19.582031 L 85.003906 19.582031 L 85.363281 22.015625 C 86.285156 22.269531 87.535156 22.5625 88.519531 22.5625 C 90.601562 22.5625 92.113281 21.222656 92.113281 19.617188 C 92.113281 16.613281 86.4375 16.078125 86.4375 13.757812 M 92.363281 12.023438 L 100.738281 12.023438 L 100.980469 14.246094 L 100.6875 14.246094 C 100.445312 12.824219 100.148438 12.640625 99.5 12.640625 L 97.253906 12.640625 L 97.253906 20.726562 C 97.253906 21.597656 97.546875 21.90625 98.53125 21.90625 L 98.902344 21.90625 L 98.902344 22.246094 L 94.199219 22.246094 L 94.199219 21.90625 L 94.570312 21.90625 C 95.554688 21.90625 95.847656 21.597656 95.847656 20.726562 L 95.847656 12.640625 L 93.601562 12.640625 C 92.953125 12.640625 92.664062 12.816406 92.421875 14.25 L 92.128906 14.25 Z M 83.699219 12.425781 C 83.445312 10.796875 82.945312 10.683594 82.246094 10.683594 L 77.839844 10.683594 L 77.839844 15.488281 L 81.289062 15.488281 C 82 15.488281 82.335938 15.398438 82.433594 14.253906 L 82.808594 14.253906 L 82.808594 17.5625 L 82.433594 17.5625 C 82.277344 16.160156 81.902344 16.246094 81.089844 16.246094 L 77.839844 16.246094 L 77.839844 20.449219 C 77.839844 21.359375 78.257812 21.535156 78.984375 21.535156 L 81.941406 21.535156 C 83.300781 21.535156 83.746094 21.242188 84.222656 19.582031 L 84.582031 19.582031 L 84.273438 22.246094 L 74.511719 22.246094 L 74.511719 21.867188 C 76.09375 21.832031 76.203125 21.613281 76.203125 20.410156 L 76.210938 11.804688 C 76.210938 10.601562 76.097656 10.382812 74.519531 10.347656 L 74.519531 9.972656 L 83.90625 9.976562 L 84.058594 12.425781 Z M 93.28125 32.222656 L 92.988281 32.222656 C 92.773438 33.167969 92.5 33.417969 91.722656 33.4375 L 88.019531 33.4375 C 89.972656 31.71875 92.976562 29.480469 92.976562 27.105469 C 92.976562 25.53125 91.777344 24.347656 90.140625 24.347656 C 88.457031 24.347656 87.179688 25.5625 86.992188 27.339844 L 87.242188 27.339844 C 87.597656 26.074219 88.582031 25.234375 89.6875 25.234375 C 90.859375 25.234375 91.746094 26.15625 91.746094 27.324219 C 91.746094 30.121094 87.191406 33.566406 86.789062 33.957031 L 86.789062 34.402344 L 92.992188 34.402344 L 93.121094 33.4375 Z M 74.65625 34.402344 L 74.65625 34.027344 C 76.136719 34.027344 76.207031 33.773438 76.207031 33 L 76.210938 33 L 76.210938 25.699219 C 75.683594 26.140625 74.761719 26.71875 74.148438 26.988281 L 74.019531 26.769531 C 74.972656 26.15625 76.34375 24.980469 76.738281 24.445312 L 77.3125 24.445312 L 77.3125 32.789062 C 77.332031 33.796875 77.523438 33.988281 79 34.027344 L 79 34.402344 Z M 97.777344 25.96875 L 94.257812 30.796875 L 97.777344 30.796875 Z M 93.449219 31.582031 L 93.449219 31.222656 L 98.421875 24.445312 L 98.882812 24.445312 L 98.882812 30.796875 L 100.171875 30.796875 L 100.171875 31.582031 L 98.882812 31.582031 L 98.882812 34.402344 L 97.777344 34.402344 L 97.777344 31.582031 L 93.449219 31.582031 M 82.8125 24.742188 C 81.632812 24.742188 80.621094 25.414062 80.621094 26.402344 C 80.621094 27.265625 81.105469 27.863281 83.332031 28.722656 C 84.292969 28.171875 84.972656 27.488281 84.972656 26.59375 C 84.972656 25.460938 84.011719 24.742188 82.8125 24.742188 M 82.421875 29.539062 C 81.253906 30.117188 80.550781 30.9375 80.550781 31.957031 C 80.550781 33.289062 81.597656 34.164062 82.898438 34.164062 C 84.183594 34.164062 85.246094 33.335938 85.246094 32.113281 C 85.246094 31.0625 84.40625 30.367188 82.421875 29.539062 M 83.65625 28.929688 C 85.453125 29.664062 86.257812 30.46875 86.257812 31.671875 C 86.257812 33.304688 84.78125 34.5625 82.882812 34.5625 C 81.03125 34.5625 79.558594 33.414062 79.558594 31.988281 C 79.558594 30.890625 80.414062 29.992188 82.078125 29.382812 C 80.464844 28.722656 79.695312 27.953125 79.695312 26.890625 C 79.695312 25.507812 81.117188 24.347656 82.832031 24.347656 C 84.542969 24.347656 85.914062 25.351562 85.914062 26.605469 C 85.914062 27.609375 85.164062 28.378906 83.65625 28.929688 "/>
<path style=" stroke:none;fill-rule:nonzero;fill:rgb(100%,100%,100%);fill-opacity:1;" d="M 109.882812 12.425781 L 109.726562 9.976562 L 100.34375 9.96875 L 100.34375 10.34375 C 101.921875 10.382812 102.03125 10.601562 102.03125 11.804688 L 102.023438 20.410156 C 102.023438 21.613281 101.914062 21.832031 100.335938 21.867188 L 100.335938 22.246094 L 110.09375 22.246094 L 110.402344 19.582031 L 110.042969 19.582031 C 109.566406 21.242188 109.125 21.535156 107.765625 21.535156 L 104.808594 21.535156 C 104.078125 21.535156 103.660156 21.359375 103.660156 20.449219 L 103.660156 16.246094 L 106.914062 16.246094 C 107.722656 16.246094 108.101562 16.160156 108.257812 17.5625 L 108.632812 17.5625 L 108.632812 14.253906 L 108.257812 14.253906 C 108.15625 15.398438 107.820312 15.488281 107.109375 15.488281 L 103.660156 15.488281 L 103.660156 10.683594 L 108.066406 10.683594 C 108.765625 10.683594 109.265625 10.796875 109.519531 12.425781 Z M 26.40625 16.542969 L 28.667969 11.1875 L 30.910156 16.542969 Z M 44.320312 9.976562 L 44.320312 10.351562 C 45.898438 10.390625 46.007812 10.605469 46.007812 11.8125 L 46.007812 19.660156 L 37.765625 9.976562 L 34.8125 9.976562 L 34.8125 10.351562 C 35.503906 10.367188 35.871094 10.527344 36.324219 10.84375 L 36.324219 20.546875 C 36.324219 21.296875 36.035156 21.832031 35.375 21.832031 C 34.847656 21.832031 34.601562 21.25 34.316406 20.628906 L 29.722656 9.976562 L 28.324219 9.976562 L 24.085938 19.917969 C 23.328125 21.570312 23.191406 21.835938 22.78125 21.835938 C 22.269531 21.835938 22.089844 21.378906 22.003906 20.054688 L 21.398438 11.371094 C 21.398438 10.605469 21.632812 10.347656 23.113281 10.347656 L 23.113281 9.972656 L 19.785156 9.972656 L 15.449219 19.9375 L 11.089844 9.976562 L 7.632812 9.976562 L 7.632812 10.351562 C 9.113281 10.351562 9.347656 10.605469 9.347656 11.375 L 8.824219 19.757812 C 8.722656 21.554688 8.546875 21.871094 7.105469 21.871094 L 7.105469 22.246094 L 11.210938 22.246094 L 11.210938 21.871094 C 10.320312 21.832031 9.570312 21.613281 9.628906 20.609375 L 10.164062 11.730469 L 10.203125 11.730469 L 14.839844 22.246094 L 15.292969 22.246094 L 19.792969 11.730469 L 19.832031 11.730469 L 20.402344 20.570312 C 20.484375 21.613281 19.574219 21.871094 18.648438 21.871094 L 18.648438 22.246094 L 26.265625 22.246094 L 26.265625 21.871094 L 26.191406 21.871094 C 25.109375 21.871094 24.597656 21.675781 24.597656 21.140625 C 24.597656 20.863281 24.855469 20.273438 24.992188 19.898438 L 26.085938 17.304688 L 31.226562 17.304688 L 32.519531 20.390625 C 32.597656 20.589844 32.734375 20.882812 32.734375 21.199219 C 32.734375 21.75 32.324219 21.871094 31.199219 21.871094 L 30.929688 21.871094 L 30.929688 22.246094 L 38.957031 22.246094 L 38.957031 21.871094 C 37.28125 21.871094 37.210938 21.574219 37.210938 20.15625 L 37.210938 11.691406 L 46.382812 22.382812 L 46.894531 22.382812 L 46.894531 11.375 C 46.894531 10.605469 46.964844 10.351562 48.449219 10.351562 L 48.449219 9.976562 Z M 74.222656 21.867188 L 74.222656 22.242188 L 69.339844 22.242188 L 69.339844 21.867188 C 70.828125 21.832031 71.011719 21.636719 71.027344 20.601562 L 71.027344 16.25 L 63.78125 16.25 L 63.78125 20.40625 L 63.785156 20.40625 C 63.785156 21.613281 63.894531 21.828125 65.472656 21.867188 L 65.472656 22.242188 L 60.589844 22.242188 L 60.589844 21.867188 C 62.070312 21.867188 62.140625 21.613281 62.140625 20.839844 L 62.144531 20.839844 L 62.144531 11.375 L 62.140625 11.371094 C 62.140625 10.605469 62.066406 10.347656 60.589844 10.347656 L 60.589844 9.972656 L 65.472656 9.972656 L 65.472656 10.347656 C 63.894531 10.386719 63.78125 10.605469 63.78125 11.808594 L 63.777344 11.808594 L 63.773438 15.488281 L 71.019531 15.488281 L 71.023438 11.636719 C 71.011719 10.585938 70.835938 10.382812 69.335938 10.351562 L 69.335938 9.976562 L 74.21875 9.976562 L 74.21875 10.351562 C 72.738281 10.351562 72.667969 10.605469 72.667969 11.375 L 72.660156 11.375 L 72.660156 20.839844 L 72.667969 20.84375 C 72.667969 21.613281 72.738281 21.867188 74.222656 21.867188 M 55.160156 9.675781 C 57.230469 9.675781 58.753906 10.371094 59.671875 10.769531 L 59.828125 13.210938 L 59.449219 13.210938 C 58.800781 11.375 57.429688 10.171875 55.277344 10.171875 C 51.984375 10.171875 50.339844 12.71875 50.339844 16.035156 C 50.339844 19.609375 52.496094 22.019531 55.496094 22.019531 C 56.394531 22.019531 58.640625 21.421875 59.984375 19.03125 L 60.359375 19.03125 L 59.414062 21.351562 C 58.238281 21.910156 57.292969 22.5625 54.964844 22.5625 C 50.957031 22.5625 48.566406 19.917969 48.566406 16.269531 C 48.566406 12.441406 51.035156 9.675781 55.160156 9.675781 M 115.335938 16.675781 C 114.882812 16.675781 114.582031 16.695312 114.109375 16.636719 L 114.109375 10.292969 C 114.464844 10.253906 114.726562 10.253906 115.097656 10.253906 C 118.15625 10.253906 118.988281 11.601562 118.988281 13.445312 C 118.988281 15.824219 117.539062 16.675781 115.335938 16.675781 M 122.042969 19.960938 L 120.476562 18.460938 C 119.542969 17.527344 118.949219 17.117188 118.214844 16.539062 C 119.84375 16.066406 120.855469 14.816406 120.855469 13.328125 C 120.855469 11.300781 119.207031 9.796875 115.539062 9.796875 C 114.246094 9.796875 113.851562 9.816406 113.039062 9.855469 C 112.226562 9.894531 111.015625 9.976562 110.539062 9.976562 L 110.539062 10.351562 L 110.972656 10.351562 C 112.125 10.351562 112.464844 10.707031 112.464844 11.941406 L 112.464844 20.222656 C 112.464844 21.550781 112.046875 21.867188 110.875 21.867188 L 110.539062 21.867188 L 110.539062 22.246094 L 116.152344 22.246094 L 116.152344 21.867188 L 115.695312 21.867188 C 114.582031 21.867188 114.109375 21.570312 114.109375 20.378906 L 114.109375 17.09375 C 114.425781 17.117188 114.683594 17.132812 115.121094 17.132812 C 115.640625 17.132812 115.957031 17.117188 116.425781 17.097656 C 117.9375 17.964844 119.121094 19.292969 119.820312 19.960938 C 121.628906 21.683594 122.050781 22.40625 125.523438 22.246094 L 125.523438 21.867188 C 123.996094 21.769531 123.214844 21.132812 122.042969 19.960938 M 115.335938 16.675781 C 114.882812 16.675781 114.582031 16.695312 114.109375 16.636719 L 114.109375 10.292969 C 114.464844 10.253906 114.726562 10.253906 115.097656 10.253906 C 118.15625 10.253906 118.988281 11.601562 118.988281 13.445312 C 118.988281 15.824219 117.539062 16.675781 115.335938 16.675781 M 122.042969 19.960938 L 120.476562 18.460938 C 119.542969 17.527344 118.949219 17.117188 118.214844 16.539062 C 119.84375 16.066406 120.855469 14.816406 120.855469 13.328125 C 120.855469 11.300781 119.207031 9.796875 115.539062 9.796875 C 114.246094 9.796875 113.851562 9.816406 113.039062 9.855469 C 112.226562 9.894531 111.015625 9.976562 110.539062 9.976562 L 110.539062 10.351562 L 110.972656 10.351562 C 112.125 10.351562 112.464844 10.707031 112.464844 11.941406 L 112.464844 20.222656 C 112.464844 21.550781 112.046875 21.867188 110.875 21.867188 L 110.539062 21.867188 L 110.539062 22.246094 L 116.152344 22.246094 L 116.152344 21.867188 L 115.695312 21.867188 C 114.582031 21.867188 114.109375 21.570312 114.109375 20.378906 L 114.109375 17.09375 C 114.425781 17.117188 114.683594 17.132812 115.121094 17.132812 C 115.640625 17.132812 115.957031 17.117188 116.425781 17.097656 C 117.9375 17.964844 119.121094 19.292969 119.820312 19.960938 C 121.628906 21.683594 122.050781 22.40625 125.523438 22.246094 L 125.523438 21.867188 C 123.996094 21.769531 123.214844 21.132812 122.042969 19.960938 "/>
<path style=" stroke:none;fill-rule:nonzero;fill:rgb(52.55127%,51.687622%,51.902771%);fill-opacity:1;" d="M 3.011719 45.753906 L 3.011719 52.371094 L 2.1875 52.371094 L 2.1875 45.753906 L 0 45.753906 L 0 45.0625 L 5.210938 45.0625 L 5.210938 45.753906 Z M 3.011719 45.753906 "/>
<path style=" stroke:none;fill-rule:nonzero;fill:rgb(52.55127%,51.687622%,51.902771%);fill-opacity:1;" d="M 9.648438 52.371094 L 9.648438 48.886719 C 9.648438 48.039062 9.421875 47.554688 8.644531 47.554688 C 7.679688 47.554688 6.996094 48.507812 6.996094 49.785156 L 6.996094 52.371094 L 6.183594 52.371094 L 6.183594 44.464844 L 6.996094 44.464844 L 6.996094 47.097656 C 6.996094 47.453125 6.976562 47.898438 6.910156 48.171875 L 6.929688 48.179688 C 7.246094 47.390625 7.917969 46.882812 8.847656 46.882812 C 10.082031 46.882812 10.460938 47.660156 10.460938 48.613281 L 10.460938 52.371094 Z M 9.648438 52.371094 "/>
<path style=" stroke:none;fill-rule:nonzero;fill:rgb(52.55127%,51.687622%,51.902771%);fill-opacity:1;" d="M 14.023438 47.507812 C 13.265625 47.507812 12.726562 48.0625 12.59375 48.90625 L 15.324219 48.90625 C 15.347656 48.070312 14.847656 47.507812 14.023438 47.507812 M 16.148438 49.511719 L 12.550781 49.511719 C 12.496094 51.125 13.136719 51.796875 14.339844 51.796875 C 14.902344 51.796875 15.496094 51.65625 15.898438 51.453125 L 15.972656 52.144531 C 15.476562 52.351562 14.871094 52.46875 14.199219 52.46875 C 12.574219 52.46875 11.707031 51.59375 11.707031 49.707031 C 11.707031 48.09375 12.574219 46.890625 14.066406 46.890625 C 15.550781 46.890625 16.167969 47.921875 16.167969 49.113281 C 16.167969 49.210938 16.167969 49.351562 16.148438 49.511719 "/>
<path style=" stroke:none;fill-rule:nonzero;fill:rgb(52.55127%,51.687622%,51.902771%);fill-opacity:1;" d="M 22.308594 52.46875 C 20.046875 52.46875 19.613281 51.203125 19.613281 49.945312 L 19.613281 45.0625 L 20.445312 45.0625 L 20.445312 49.871094 C 20.445312 50.921875 20.792969 51.785156 22.375 51.785156 C 23.71875 51.785156 24.378906 51.222656 24.378906 49.664062 L 24.378906 45.0625 L 25.191406 45.0625 L 25.191406 49.601562 C 25.191406 51.472656 24.207031 52.46875 22.308594 52.46875 "/>
<path style=" stroke:none;fill-rule:nonzero;fill:rgb(52.55127%,51.687622%,51.902771%);fill-opacity:1;" d="M 30.246094 52.371094 L 30.246094 48.886719 C 30.246094 48.039062 30.019531 47.554688 29.242188 47.554688 C 28.277344 47.554688 27.59375 48.507812 27.59375 49.785156 L 27.59375 52.371094 L 26.78125 52.371094 L 26.78125 46.988281 L 27.582031 46.988281 C 27.582031 47.335938 27.550781 47.855469 27.496094 48.179688 L 27.519531 48.191406 C 27.820312 47.410156 28.503906 46.882812 29.445312 46.882812 C 30.679688 46.882812 31.058594 47.660156 31.058594 48.613281 L 31.058594 52.371094 Z M 30.246094 52.371094 "/>
<path style=" stroke:none;fill-rule:nonzero;fill:rgb(52.55127%,51.687622%,51.902771%);fill-opacity:1;" d="M 32.597656 46.988281 L 33.410156 46.988281 L 33.410156 52.371094 L 32.597656 52.371094 Z M 33.011719 46.015625 C 32.695312 46.015625 32.445312 45.777344 32.445312 45.460938 C 32.445312 45.160156 32.695312 44.910156 33.011719 44.910156 C 33.3125 44.910156 33.574219 45.160156 33.574219 45.460938 C 33.574219 45.777344 33.3125 46.015625 33.011719 46.015625 "/>
<path style=" stroke:none;fill-rule:nonzero;fill:rgb(52.55127%,51.687622%,51.902771%);fill-opacity:1;" d="M 37.167969 52.371094 L 36.324219 52.371094 L 34.289062 46.988281 L 35.207031 46.988281 L 36.464844 50.496094 C 36.570312 50.835938 36.671875 51.136719 36.769531 51.453125 L 36.777344 51.453125 C 36.863281 51.160156 36.960938 50.835938 37.070312 50.542969 L 38.359375 46.988281 L 39.246094 46.988281 Z M 37.167969 52.371094 "/>
<path style=" stroke:none;fill-rule:nonzero;fill:rgb(52.55127%,51.687622%,51.902771%);fill-opacity:1;" d="M 41.769531 47.507812 C 41.011719 47.507812 40.46875 48.0625 40.339844 48.90625 L 43.070312 48.90625 C 43.089844 48.070312 42.59375 47.507812 41.769531 47.507812 M 43.890625 49.511719 L 40.296875 49.511719 C 40.242188 51.125 40.882812 51.796875 42.082031 51.796875 C 42.648438 51.796875 43.242188 51.65625 43.644531 51.453125 L 43.71875 52.144531 C 43.21875 52.351562 42.613281 52.46875 41.941406 52.46875 C 40.320312 52.46875 39.453125 51.59375 39.453125 49.707031 C 39.453125 48.09375 40.320312 46.890625 41.8125 46.890625 C 43.296875 46.890625 43.914062 47.921875 43.914062 49.113281 C 43.914062 49.210938 43.914062 49.351562 43.890625 49.511719 "/>
<path style=" stroke:none;fill-rule:nonzero;fill:rgb(52.55127%,51.687622%,51.902771%);fill-opacity:1;" d="M 47.78125 47.691406 C 46.589844 47.5 46.027344 48.410156 46.027344 50.214844 L 46.027344 52.371094 L 45.214844 52.371094 L 45.214844 46.988281 L 46.015625 46.988281 C 46.015625 47.347656 45.972656 47.878906 45.894531 48.34375 L 45.90625 48.355469 C 46.121094 47.5625 46.6875 46.761719 47.8125 46.890625 Z M 47.78125 47.691406 "/>
<path style=" stroke:none;fill-rule:nonzero;fill:rgb(52.55127%,51.687622%,51.902771%);fill-opacity:1;" d="M 49.644531 52.46875 C 49.242188 52.46875 48.832031 52.425781 48.503906 52.363281 L 48.527344 51.613281 C 48.875 51.710938 49.304688 51.785156 49.730469 51.785156 C 50.507812 51.785156 51.050781 51.441406 51.050781 50.878906 C 51.050781 49.578125 48.429688 50.390625 48.429688 48.472656 C 48.429688 47.574219 49.164062 46.890625 50.53125 46.890625 C 50.867188 46.890625 51.246094 46.945312 51.582031 47.011719 L 51.558594 47.714844 C 51.203125 47.59375 50.8125 47.53125 50.445312 47.53125 C 49.652344 47.53125 49.261719 47.855469 49.261719 48.386719 C 49.261719 49.675781 51.894531 48.9375 51.894531 50.769531 C 51.894531 51.722656 51.050781 52.46875 49.644531 52.46875 "/>
<path style=" stroke:none;fill-rule:nonzero;fill:rgb(52.55127%,51.687622%,51.902771%);fill-opacity:1;" d="M 53.953125 46.988281 L 53.140625 46.988281 L 53.140625 52.371094 L 53.953125 52.371094 Z M 54.113281 45.460938 C 54.113281 45.160156 53.855469 44.910156 53.550781 44.910156 C 53.238281 44.910156 52.988281 45.160156 52.988281 45.460938 C 52.988281 45.777344 53.238281 46.015625 53.550781 46.015625 C 53.855469 46.015625 54.113281 45.777344 54.113281 45.460938 "/>
<path style=" stroke:none;fill-rule:nonzero;fill:rgb(52.55127%,51.687622%,51.902771%);fill-opacity:1;" d="M 57.308594 52.457031 C 56.226562 52.457031 55.914062 51.984375 55.914062 50.867188 L 55.914062 47.628906 L 54.742188 47.628906 L 54.742188 46.988281 L 55.914062 46.988281 L 55.914062 45.203125 L 56.726562 44.976562 L 56.726562 46.988281 L 58.304688 46.988281 L 58.304688 47.628906 L 56.726562 47.628906 L 56.726562 50.53125 C 56.726562 51.496094 56.898438 51.746094 57.539062 51.746094 C 57.808594 51.746094 58.089844 51.710938 58.304688 51.648438 L 58.304688 52.351562 C 58.023438 52.414062 57.644531 52.457031 57.308594 52.457031 "/>
<g clip-path="url(#clip2)" clip-rule="nonzero">
<path style=" stroke:none;fill-rule:nonzero;fill:rgb(52.55127%,51.687622%,51.902771%);fill-opacity:1;" d="M 61.253906 52.933594 C 60.625 54.59375 60.148438 55.144531 58.96875 55.144531 C 58.773438 55.144531 58.503906 55.121094 58.285156 55.089844 L 58.371094 54.34375 C 58.589844 54.417969 58.804688 54.449219 59.042969 54.449219 C 59.691406 54.449219 60.019531 54.148438 60.441406 53.011719 L 60.6875 52.371094 L 58.632812 46.988281 L 59.5625 46.988281 L 60.6875 50.074219 C 60.863281 50.5625 60.980469 50.953125 61.101562 51.355469 L 61.109375 51.355469 C 61.210938 51.007812 61.4375 50.335938 61.652344 49.71875 L 62.617188 46.988281 L 63.503906 46.988281 Z M 61.253906 52.933594 "/>
</g>
<path style=" stroke:none;fill-rule:nonzero;fill:rgb(52.55127%,51.687622%,51.902771%);fill-opacity:1;" d="M 68.484375 47.5625 C 67.640625 47.5625 66.839844 48.203125 66.839844 49.644531 C 66.839844 51.019531 67.433594 51.777344 68.484375 51.777344 C 69.332031 51.777344 70.101562 51.125 70.101562 49.644531 C 70.101562 48.34375 69.558594 47.5625 68.484375 47.5625 M 68.367188 52.46875 C 66.925781 52.46875 65.996094 51.59375 65.996094 49.707031 C 65.996094 48.167969 66.949219 46.890625 68.5625 46.890625 C 69.871094 46.890625 70.945312 47.617188 70.945312 49.589844 C 70.945312 51.191406 69.960938 52.46875 68.367188 52.46875 "/>
<path style=" stroke:none;fill-rule:nonzero;fill:rgb(52.55127%,51.687622%,51.902771%);fill-opacity:1;" d="M 75.308594 45.191406 C 75.039062 45.105469 74.746094 45.074219 74.464844 45.074219 C 73.640625 45.074219 73.273438 45.550781 73.273438 46.589844 L 73.273438 46.988281 L 74.863281 46.988281 L 74.863281 47.628906 L 73.273438 47.628906 L 73.273438 52.371094 L 72.460938 52.371094 L 72.460938 47.628906 L 71.289062 47.628906 L 71.289062 46.988281 L 72.460938 46.988281 L 72.460938 46.609375 C 72.460938 45.105469 73.207031 44.410156 74.496094 44.410156 C 74.800781 44.410156 75.089844 44.445312 75.382812 44.511719 Z M 75.308594 45.191406 "/>
<path style=" stroke:none;fill-rule:nonzero;fill:rgb(52.55127%,51.687622%,51.902771%);fill-opacity:1;" d="M 85.097656 52.371094 L 84.449219 47.867188 C 84.320312 46.976562 84.265625 46.4375 84.222656 46.035156 L 84.199219 46.035156 C 84.125 46.339844 84.015625 46.761719 83.84375 47.261719 L 82.132812 52.371094 L 81.1875 52.371094 L 79.566406 47.585938 C 79.378906 47.054688 79.1875 46.480469 79.097656 46.035156 L 79.085938 46.035156 C 79.054688 46.621094 78.980469 47.207031 78.894531 47.953125 L 78.363281 52.371094 L 77.507812 52.371094 L 78.546875 45.0625 L 79.597656 45.0625 L 81.265625 50 C 81.449219 50.53125 81.601562 51.019531 81.675781 51.417969 L 81.699219 51.417969 C 81.804688 50.921875 81.914062 50.597656 82.097656 50.074219 L 83.808594 45.0625 L 84.894531 45.0625 L 85.976562 52.371094 Z M 85.097656 52.371094 "/>
<path style=" stroke:none;fill-rule:nonzero;fill:rgb(52.55127%,51.687622%,51.902771%);fill-opacity:1;" d="M 90.167969 49.847656 C 88.140625 49.847656 87.710938 50.488281 87.710938 51.007812 C 87.710938 51.496094 88.054688 51.808594 88.585938 51.808594 C 89.539062 51.808594 90.167969 50.867188 90.167969 49.9375 Z M 90.210938 52.371094 C 90.210938 51.960938 90.210938 51.546875 90.265625 51.234375 L 90.242188 51.234375 C 89.984375 51.917969 89.289062 52.46875 88.367188 52.46875 C 87.515625 52.46875 86.894531 52.015625 86.894531 51.160156 C 86.894531 50.03125 88.066406 49.253906 90.167969 49.253906 L 90.167969 48.808594 C 90.167969 47.996094 89.875 47.542969 88.941406 47.542969 C 88.421875 47.542969 87.773438 47.703125 87.296875 48.007812 L 87.222656 47.292969 C 87.730469 47.066406 88.359375 46.890625 89.085938 46.890625 C 90.566406 46.890625 90.988281 47.628906 90.988281 48.648438 L 90.988281 50.757812 C 90.988281 51.289062 90.988281 51.894531 91.011719 52.371094 Z M 90.210938 52.371094 "/>
<path style=" stroke:none;fill-rule:nonzero;fill:rgb(52.55127%,51.687622%,51.902771%);fill-opacity:1;" d="M 96.003906 52.371094 L 96.003906 48.886719 C 96.003906 48.039062 95.777344 47.554688 94.996094 47.554688 C 94.035156 47.554688 93.351562 48.507812 93.351562 49.785156 L 93.351562 52.371094 L 92.539062 52.371094 L 92.539062 46.988281 L 93.339844 46.988281 C 93.339844 47.335938 93.308594 47.855469 93.253906 48.179688 L 93.277344 48.191406 C 93.578125 47.410156 94.261719 46.882812 95.203125 46.882812 C 96.4375 46.882812 96.816406 47.660156 96.816406 48.613281 L 96.816406 52.371094 Z M 96.003906 52.371094 "/>
<path style=" stroke:none;fill-rule:nonzero;fill:rgb(52.55127%,51.687622%,51.902771%);fill-opacity:1;" d="M 100.390625 52.4375 C 99.1875 52.4375 98.0625 51.90625 98.0625 49.871094 C 98.0625 48.105469 98.949219 46.914062 100.703125 46.914062 C 101.148438 46.914062 101.59375 46.980469 101.972656 47.097656 L 101.882812 47.8125 C 101.527344 47.671875 101.105469 47.574219 100.652344 47.574219 C 99.492188 47.574219 98.917969 48.429688 98.917969 49.730469 C 98.917969 50.835938 99.265625 51.742188 100.5625 51.742188 C 101.039062 51.742188 101.558594 51.625 101.917969 51.441406 L 101.992188 52.144531 C 101.636719 52.285156 101.050781 52.4375 100.390625 52.4375 "/>
<path style=" stroke:none;fill-rule:nonzero;fill:rgb(52.55127%,51.687622%,51.902771%);fill-opacity:1;" d="M 106.585938 52.371094 L 106.585938 48.886719 C 106.585938 48.039062 106.355469 47.554688 105.578125 47.554688 C 104.613281 47.554688 103.933594 48.507812 103.933594 49.785156 L 103.933594 52.371094 L 103.121094 52.371094 L 103.121094 44.464844 L 103.933594 44.464844 L 103.933594 47.097656 C 103.933594 47.453125 103.910156 47.898438 103.84375 48.171875 L 103.867188 48.179688 C 104.179688 47.390625 104.851562 46.882812 105.785156 46.882812 C 107.019531 46.882812 107.398438 47.660156 107.398438 48.613281 L 107.398438 52.371094 Z M 106.585938 52.371094 "/>
<path style=" stroke:none;fill-rule:nonzero;fill:rgb(52.55127%,51.687622%,51.902771%);fill-opacity:1;" d="M 110.960938 47.507812 C 110.203125 47.507812 109.660156 48.0625 109.53125 48.90625 L 112.257812 48.90625 C 112.28125 48.070312 111.785156 47.507812 110.960938 47.507812 M 113.082031 49.511719 L 109.488281 49.511719 C 109.433594 51.125 110.074219 51.796875 111.273438 51.796875 C 111.835938 51.796875 112.433594 51.65625 112.835938 51.453125 L 112.910156 52.144531 C 112.410156 52.351562 111.804688 52.46875 111.132812 52.46875 C 109.507812 52.46875 108.640625 51.59375 108.640625 49.707031 C 108.640625 48.09375 109.507812 46.890625 111.003906 46.890625 C 112.488281 46.890625 113.105469 47.921875 113.105469 49.113281 C 113.105469 49.210938 113.105469 49.351562 113.082031 49.511719 "/>
<path style=" stroke:none;fill-rule:nonzero;fill:rgb(52.55127%,51.687622%,51.902771%);fill-opacity:1;" d="M 115.214844 52.46875 C 114.816406 52.46875 114.40625 52.425781 114.078125 52.363281 L 114.101562 51.613281 C 114.449219 51.710938 114.882812 51.785156 115.304688 51.785156 C 116.082031 51.785156 116.625 51.441406 116.625 50.878906 C 116.625 49.578125 114.003906 50.390625 114.003906 48.472656 C 114.003906 47.574219 114.738281 46.890625 116.105469 46.890625 C 116.441406 46.890625 116.820312 46.945312 117.15625 47.011719 L 117.132812 47.714844 C 116.777344 47.59375 116.386719 47.53125 116.019531 47.53125 C 115.226562 47.53125 114.835938 47.855469 114.835938 48.386719 C 114.835938 49.675781 117.46875 48.9375 117.46875 50.769531 C 117.46875 51.722656 116.625 52.46875 115.214844 52.46875 "/>
<path style=" stroke:none;fill-rule:nonzero;fill:rgb(52.55127%,51.687622%,51.902771%);fill-opacity:1;" d="M 120.425781 52.457031 C 119.34375 52.457031 119.027344 51.984375 119.027344 50.867188 L 119.027344 47.628906 L 117.859375 47.628906 L 117.859375 46.988281 L 119.027344 46.988281 L 119.027344 45.203125 L 119.839844 44.976562 L 119.839844 46.988281 L 121.421875 46.988281 L 121.421875 47.628906 L 119.839844 47.628906 L 119.839844 50.53125 C 119.839844 51.496094 120.015625 51.746094 120.652344 51.746094 C 120.921875 51.746094 121.207031 51.710938 121.421875 51.648438 L 121.421875 52.351562 C 121.140625 52.414062 120.761719 52.457031 120.425781 52.457031 "/>
<path style=" stroke:none;fill-rule:nonzero;fill:rgb(52.55127%,51.687622%,51.902771%);fill-opacity:1;" d="M 124.421875 47.507812 C 123.664062 47.507812 123.121094 48.0625 122.992188 48.90625 L 125.722656 48.90625 C 125.742188 48.070312 125.246094 47.507812 124.421875 47.507812 M 126.542969 49.511719 L 122.949219 49.511719 C 122.894531 51.125 123.535156 51.796875 124.734375 51.796875 C 125.300781 51.796875 125.894531 51.65625 126.296875 51.453125 L 126.371094 52.144531 C 125.871094 52.351562 125.265625 52.46875 124.59375 52.46875 C 122.972656 52.46875 122.105469 51.59375 122.105469 49.707031 C 122.105469 48.09375 122.972656 46.890625 124.464844 46.890625 C 125.949219 46.890625 126.566406 47.921875 126.566406 49.113281 C 126.566406 49.210938 126.566406 49.351562 126.542969 49.511719 "/>
<g clip-path="url(#clip3)" clip-rule="nonzero">
<path style=" stroke:none;fill-rule:nonzero;fill:rgb(52.55127%,51.687622%,51.902771%);fill-opacity:1;" d="M 130.378906 47.691406 C 129.1875 47.5 128.625 48.410156 128.625 50.214844 L 128.625 52.371094 L 127.8125 52.371094 L 127.8125 46.988281 L 128.613281 46.988281 C 128.613281 47.347656 128.570312 47.878906 128.492188 48.34375 L 128.503906 48.355469 C 128.722656 47.5625 129.285156 46.761719 130.410156 46.890625 Z M 130.378906 47.691406 "/>
</g>
</g>
</svg>
