<?xml version="1.0" encoding="utf-8"?>
<!-- Generator: Adobe Illustrator 27.1.1, SVG Export Plug-In . SVG Version: 6.00 Build 0)  -->
<svg version="1.1" id="Ebene_1" xmlns="http://www.w3.org/2000/svg" xmlns:xlink="http://www.w3.org/1999/xlink" x="0px" y="0px"
	 viewBox="0 0 94.6 39.6" style="enable-background:new 0 0 94.6 39.6;" xml:space="preserve">
<style type="text/css">
	.st0{fill:none;}
	.st1{fill:#FF0000;}
	.st2{fill:#111F6D;}
</style>
<rect class="st0" width="28.4" height="28.4"/>
<path class="st1" d="M22.3,0.1v13.3l-5.9-2.6l-5.9,2.6V0.1H0.1v39.4h10.4V28.9c0-3.2,2.6-6.3,5.9-6.3s5.9,3.1,5.9,6.3v10.6h10.4V0.1
	H22.3L22.3,0.1z"/>
<path class="st2" d="M48.6,0.2h1.5v2.5h2.2V0.2h1.5v6.5h-1.5V4h-2.2v2.7h-1.5V0.2z"/>
<path class="st2" d="M57.5,3.4c0-2.1,1.2-3.4,3-3.4s3,1.2,3,3.4s-1.2,3.4-3,3.4S57.5,5.5,57.5,3.4z M61.9,3.4c0-1.3-0.6-2.1-1.5-2.1
	S59,2.1,59,3.4s0.6,2.1,1.5,2.1S61.9,4.7,61.9,3.4z"/>
<path class="st2" d="M66.6,3.5c0-2.2,1.4-3.4,3.1-3.4c0.8,0,1.5,0.4,2,0.9l-0.8,0.9c-0.3-0.3-0.7-0.5-1.2-0.5
	c-0.9,0-1.6,0.8-1.6,2.1s0.6,2.1,1.6,2.1c0.5,0,1-0.3,1.3-0.6l0.8,0.9c-0.5,0.6-1.3,1-2.1,1C68,6.8,66.6,5.7,66.6,3.5L66.6,3.5z"/>
<path class="st2" d="M75.2,0.2h1.5v2.5h2.2V0.2h1.5v6.5h-1.5V4h-2.2v2.7h-1.5V0.2z"/>
<path class="st2" d="M48,16.8l0.8-1c0.5,0.4,1.1,0.7,1.6,0.7c0.6,0,0.9-0.2,0.9-0.6s-0.4-0.5-0.9-0.8l-0.8-0.4
	c-0.7-0.3-1.3-0.8-1.3-1.8c0-1.1,1-1.9,2.3-1.9c0.8,0,1.5,0.3,2.1,0.9L52,12.8c-0.4-0.3-0.8-0.5-1.4-0.5s-0.8,0.2-0.8,0.6
	c0,0.4,0.4,0.6,1,0.8l0.8,0.3c0.8,0.3,1.3,0.9,1.3,1.8c0,1.1-0.9,2-2.5,2C49.6,17.8,48.7,17.4,48,16.8L48,16.8z"/>
<path class="st2" d="M56.1,14.4c0-2.2,1.4-3.4,3.1-3.4c0.8,0,1.5,0.4,2,0.9l-0.8,0.9c-0.3-0.3-0.7-0.5-1.2-0.5
	c-0.9,0-1.6,0.8-1.6,2.1s0.6,2.1,1.6,2.1c0.5,0,1-0.3,1.3-0.6l0.8,0.9c-0.5,0.6-1.3,1-2.1,1C57.5,17.8,56.1,16.6,56.1,14.4
	L56.1,14.4z"/>
<path class="st2" d="M64.6,11.1h1.5v2.5h2.2v-2.5h1.5v6.5h-1.5v-2.7h-2.2v2.7h-1.5V11.1z"/>
<path class="st2" d="M73.8,14.6v-3.5h1.5v3.7c0,1.3,0.4,1.7,1.1,1.7s1.2-0.4,1.2-1.7v-3.7H79v3.5c0,2.2-0.9,3.1-2.6,3.1
	S73.8,16.8,73.8,14.6z"/>
<path class="st2" d="M82.9,11.1h1.5v5.3H87v1.2h-4.1V11.1L82.9,11.1z"/>
<path class="st2" d="M90.4,11.1h4.1v1.2h-2.6v1.3h2.2v1.2h-2.2v1.5h2.7v1.2h-4.2C90.4,17.6,90.4,11.1,90.4,11.1z"/>
<path class="st2" d="M47.9,25.3c0-2.1,1.2-3.4,3-3.4s3,1.2,3,3.4s-1.2,3.4-3,3.4S47.9,27.4,47.9,25.3z M52.3,25.3
	c0-1.3-0.6-2.1-1.5-2.1s-1.5,0.8-1.5,2.1s0.6,2.1,1.5,2.1S52.3,26.6,52.3,25.3z"/>
<path class="st2" d="M57.5,22h4.1v1.2H59v1.5h2.3V26H59v2.5h-1.5C57.5,28.6,57.5,22,57.5,22z"/>
<path class="st2" d="M65.3,22h4.1v1.2h-2.7v1.5H69V26h-2.3v2.5h-1.5L65.3,22L65.3,22z"/>
<path class="st2" d="M73.2,22h4.1v1.2h-2.6v1.3h2.2v1.2h-2.2v1.5h2.7v1.2h-4.2V22L73.2,22z"/>
<path class="st2" d="M81.3,22h1.5l1.7,3.2l0.7,1.4l0,0C85.1,26,85,25.1,85,24.4V22h1.4v6.5h-1.5l-1.7-3.3l-0.7-1.4l0,0
	c0.1,0.7,0.2,1.6,0.2,2.4v2.3h-1.4V22L81.3,22z"/>
<path class="st2" d="M48.6,33h2.2c1.4,0,2.4,0.4,2.4,1.6c0,0.6-0.3,1.2-0.9,1.4l0,0c0.7,0.2,1.2,0.7,1.2,1.5c0,1.3-1.1,1.9-2.5,1.9
	h-2.4C48.6,39.5,48.6,33,48.6,33z M50.8,35.6c0.7,0,1-0.3,1-0.8s-0.3-0.7-1-0.7h-0.7v1.5H50.8z M50.9,38.4c0.8,0,1.2-0.3,1.2-0.9
	s-0.4-0.8-1.2-0.8h-0.8v1.7C50.1,38.4,50.9,38.4,50.9,38.4z"/>
<path class="st2" d="M57.3,36.5V33h1.5v3.7c0,1.3,0.4,1.7,1.1,1.7s1.2-0.4,1.2-1.7V33h1.4v3.5c0,2.2-0.9,3.2-2.6,3.2
	S57.3,38.7,57.3,36.5z"/>
<path class="st2" d="M71.5,39.5L70,36.9c0.7-0.3,1.2-0.9,1.2-1.9c0-1.5-1.1-2-2.5-2h-2.4l0,0v6.5h1.5v-2.3h0.8l1.2,2.3H71.5z
	 M67.8,34.1h0.8c0.8,0,1.2,0.2,1.2,0.9c0,0.6-0.4,1-1.2,1l0,0h-0.8V34.1z M68.4,36.8L68.4,36.8L68.4,36.8L68.4,36.8z"/>
<path class="st2" d="M74.4,36.3c0-2.2,1.4-3.4,3.2-3.4c0.9,0,1.6,0.4,2.1,0.8l-0.8,1c-0.3-0.3-0.7-0.5-1.2-0.5c-1,0-1.7,0.8-1.7,2.1
	s0.6,2.1,1.8,2.1c0.3,0,0.5-0.1,0.7-0.2V37h-1.1v-1.2h2.4v3c-0.4,0.4-1.2,0.8-2.2,0.8C75.8,39.6,74.4,38.5,74.4,36.3L74.4,36.3z"/>
</svg>
