<svg viewBox="0 0 266.315886842 257.282952631" width="266.315886842pt" height="257.282952631pt" xmlns="http://www.w3.org/2000/svg" xmlns:xlink="http://www.w3.org/1999/xlink" xmlns:h5="http://www.w3.org/1999/xhtml"><path fill="#ffffff" fill-rule="nonzero" d="M 0 0v 257.282952631h 266.315886842v -257.282952631Z "/><g transform="translate(8.503937008 8.503937008)"><path fill="#b2d5f4" fill-rule="nonzero" transform="translate(77.908722345 197.256160578)" d="M 0 0m 0 1.367925969c 7.61317429 -2.77096883 16.126331712 -1.269869485 22.332648257 3.937848438l -14.576600913 17.371716505l -7.756047345 -21.309564944Z "/><path fill="none" stroke="#0074d9" stroke-width="1" stroke-linecap="butt" stroke-linejoin="miter" stroke-miterlimit="4" transform="translate(77.908722345 197.256160578)" d="M 0 0m 0 1.367925969c 7.61317429 -2.77096883 16.126331712 -1.269869485 22.332648257 3.937848438"/><path fill="#ffc6c3" fill-rule="nonzero" transform="translate(94.986504489 79.37007874)" d="M 0 0m 0 17.007874016c 6.076328143 -10.524509068 17.305845637 -17.007874016 29.458501924 -17.007874016c 12.152656287 0 23.382173781 6.483364948 29.458501924 17.007874016l -29.458501924 17.007874016l -29.458501924 -17.007874016Z "/><path fill="none" stroke="#ff4136" stroke-width="1" stroke-linecap="butt" stroke-linejoin="miter" stroke-miterlimit="4" transform="translate(94.986504489 79.37007874)" d="M 0 0m 0 17.007874016c 6.076328143 -10.524509068 17.305845637 -17.007874016 29.458501924 -17.007874016c 12.152656287 0 23.382173781 6.483364948 29.458501924 17.007874016"/><path fill="none" stroke="#000000" stroke-width="1.2" stroke-linecap="butt" stroke-linejoin="miter" stroke-miterlimit="4" transform="translate(11.059179642)" d="M 0 0m 113.385826772 0c -62.564485039 0 -113.385826772 50.821341732 -113.385826772 113.385826772c 0 62.564485039 50.821341732 113.385826772 113.385826772 113.385826772c 62.564485039 0 113.385826772 -50.821341732 113.385826772 -113.385826772c 0 -62.564485039 -50.821341732 -113.385826772 -113.385826772 -113.385826772Z "/><path fill="none" transform="translate(208.616974917 18.983858268)" d="M 0 0h 11.9823v 10.23h -11.9823v -10.23Z "/><g transform="translate(208.61697487 18.98385822)"><g transform="matrix(1 0 0 -1 0 7.513)"><use xlink:href="#g9AF2FCDC7D502736E115E482D897EFF2" x="0" y="0" fill="#000000" fill-rule="nonzero"/></g><g transform="matrix(1 0 0 -1 6.985 10.23)"><use xlink:href="#gBFCC2410A697C41E2DD3187C83DA8F3" x="0" y="0" fill="#000000" fill-rule="nonzero"/></g></g><path fill="none" stroke="#0074d9" stroke-width="1.2" stroke-linecap="butt" stroke-linejoin="miter" stroke-miterlimit="4" transform="translate(26.25 56.692913386)" d="M 0 0l 59.41476969 163.240738105"/><path fill="none" stroke="#0074d9" stroke-width="1.2" stroke-linecap="butt" stroke-linejoin="miter" stroke-miterlimit="4" transform="translate(85.66476969 56.692913386)" d="M 0 0m 0 163.240738105l 136.975243137 -163.240738105"/><path fill="none" transform="translate(87.559311293 185.409260137)" d="M 0 0h 7.04v 7.634h -7.04v -7.634Z "/><g transform="translate(87.55931123 185.409260074)"><g transform="matrix(1 0 0 -1 0 7.513)"><use xlink:href="#g8829B9D1CFBE2EDF5BE2A9FB7B313CD1" x="0" y="0" fill="#000000" fill-rule="nonzero"/></g></g><path fill="none" stroke="#ff4136" stroke-width="1.2" stroke-linecap="butt" stroke-linejoin="miter" stroke-miterlimit="4" transform="translate(26.25 56.692913386)" d="M 0 0m 98.195006413 56.692913386l -98.195006413 -56.692913386"/><path fill="none" stroke="#ff4136" stroke-width="1.2" stroke-linecap="butt" stroke-linejoin="miter" stroke-miterlimit="4" transform="translate(124.445006413 56.692913386)" d="M 0 0m 0 56.692913386l 98.195006413 -56.692913386"/><path fill="none" transform="translate(118.175006413 67.049141732)" d="M 0 0h 12.54v 7.634h -12.54v -7.634Z "/><g transform="translate(118.175006319 67.049141669)"><g transform="matrix(1 0 0 -1 0 7.513)"><use xlink:href="#g847DCE2A3EE7D23E3D551BDE0EE8A683" x="0" y="0" fill="#000000" fill-rule="nonzero"/></g><g transform="matrix(1 0 0 -1 5.5 7.513)"><use xlink:href="#g8829B9D1CFBE2EDF5BE2A9FB7B313CD1" x="0" y="0" fill="#000000" fill-rule="nonzero"/></g></g><path fill="none" stroke="#cccccc" stroke-width="0.8" stroke-linecap="butt" stroke-linejoin="miter" stroke-miterlimit="4" transform="translate(26.25 56.692913386)" d="M 0 0h 196.390012827"/><path fill="none" stroke="#000000" stroke-width="1.2" stroke-linecap="butt" stroke-linejoin="miter" stroke-miterlimit="4" transform="translate(121.326896177 110.267716535)" d="M 0 0m 0 6.236220472l 6.236220472 -6.236220472"/><path fill="none" stroke="#000000" stroke-width="1.2" stroke-linecap="butt" stroke-linejoin="miter" stroke-miterlimit="4" transform="translate(121.326896177 110.267716535)" d="M 0 0l 6.236220472 6.236220472"/><path fill="none" stroke="#000000" stroke-width="1.2" stroke-linecap="butt" stroke-linejoin="miter" stroke-miterlimit="4" transform="translate(23.131889764 53.57480315)" d="M 0 0m 0 6.236220472l 6.236220472 -6.236220472"/><path fill="none" stroke="#000000" stroke-width="1.2" stroke-linecap="butt" stroke-linejoin="miter" stroke-miterlimit="4" transform="translate(23.131889764 53.57480315)" d="M 0 0l 6.236220472 6.236220472"/><path fill="none" stroke="#000000" stroke-width="1.2" stroke-linecap="butt" stroke-linejoin="miter" stroke-miterlimit="4" transform="translate(82.546659454 216.815541254)" d="M 0 0m 0 6.236220472l 6.236220472 -6.236220472"/><path fill="none" stroke="#000000" stroke-width="1.2" stroke-linecap="butt" stroke-linejoin="miter" stroke-miterlimit="4" transform="translate(82.546659454 216.815541254)" d="M 0 0l 6.236220472 6.236220472"/><path fill="none" stroke="#000000" stroke-width="1.2" stroke-linecap="butt" stroke-linejoin="miter" stroke-miterlimit="4" transform="translate(219.52190259 53.57480315)" d="M 0 0m 0 6.236220472l 6.236220472 -6.236220472"/><path fill="none" stroke="#000000" stroke-width="1.2" stroke-linecap="butt" stroke-linejoin="miter" stroke-miterlimit="4" transform="translate(219.52190259 53.57480315)" d="M 0 0l 6.236220472 6.236220472"/><path fill="none" transform="translate(115.221006413 117.637795276)" d="M 0 0h 18.448v 17.755h -18.448v -17.755Z "/><g transform="translate(115.221006335 117.637795197)"><g transform="matrix(1 0 0 -1 5 12.513)"><use xlink:href="#g93668732B0E42348DDA57839D5743AC6" x="0" y="0" fill="#000000" fill-rule="nonzero"/></g></g><path fill="none" transform="translate(0 47.936413386)" d="M 0 0h 18.25v 17.513h -18.25v -17.513Z "/><g transform="translate(-7.9e-8 47.936413276)"><g transform="matrix(1 0 0 -1 5 12.513)"><use xlink:href="#gDD78C4AC18CD51C41481EB0565E89892" x="0" y="0" fill="#000000" fill-rule="nonzero"/></g></g><path fill="none" transform="translate(64.212342565 222.762078615)" d="M 0 0h 18.624v 17.513h -18.624v -17.513Z "/><g transform="translate(64.212342471 222.762078505)"><g transform="matrix(1 0 0 -1 5 12.513)"><use xlink:href="#gEC10EBF41C87FA9C1C1D1A4F34582802" x="0" y="0" fill="#000000" fill-rule="nonzero"/></g></g><path fill="none" transform="translate(230.640012827 47.815413386)" d="M 0 0h 18.668v 17.755h -18.668v -17.755Z "/><g transform="translate(230.640012764 47.815413307)"><g transform="matrix(1 0 0 -1 5 12.513)"><use xlink:href="#g9AF2FCDC7D502736E115E482D897EFF2" x="0" y="0" fill="#000000" fill-rule="nonzero"/></g></g></g><defs><symbol id="g9AF2FCDC7D502736E115E482D897EFF2" overflow="visible"><path d="M 0 0m 1.628 2.398c 0 1.408 0.616 2.838 1.309 3.63c 0.561 0.649 1.529 1.298 2.618 1.298c 1.144 0 1.705 -0.869 1.705 -2.057c 0 -0.099 -0.033 -0.451 -0.033 -0.55c 0 -0.099 0.066 -0.154 0.209 -0.154c 0.055 0 0.099 0.011 0.132 0.022c 0.055 0.077 0.088 0.154 0.11 0.231l 0.682 2.783c 0 0.099 -0.055 0.154 -0.165 0.154c -0.044 0 -0.11 -0.044 -0.198 -0.143l -0.715 -0.803c -0.429 0.627 -1.034 0.946 -1.815 0.946c -0.605 0 -1.199 -0.143 -1.804 -0.418c -1.221 -0.572 -2.112 -1.474 -2.684 -2.706c -0.286 -0.605 -0.429 -1.221 -0.429 -1.848c 0 -0.88 0.275 -1.595 0.836 -2.167c 0.561 -0.572 1.276 -0.858 2.156 -0.858c 0.869 0 1.661 0.319 2.376 0.946c 0.297 0.253 0.55 0.561 0.759 0.902c 0.297 0.495 0.451 0.836 0.451 1.045c 0 0.099 -0.055 0.154 -0.176 0.154c -0.099 0 -0.154 -0.044 -0.176 -0.143c -0.231 -0.715 -0.594 -1.287 -1.089 -1.694c -0.627 -0.517 -1.287 -0.781 -1.969 -0.781c -1.32 0 -2.09 0.891 -2.09 2.211Z "/></symbol><symbol id="gBFCC2410A697C41E2DD3187C83DA8F3" overflow="visible"><path d="M 0 0m 2.3331 5.1128c -0.3311 -0.3234 -0.8239 -0.4851 -1.4938 -0.4851v -0.3388c 0.4543 0 0.8162 0.0693 1.0934 0.2002v -3.8346c 0 -0.1001 -0.0077 -0.1617 -0.0308 -0.1925c -0.0385 -0.0847 -0.2695 -0.1309 -0.693 -0.1309h -0.3157v -0.3311l 1.3706 0.0308l 1.3783 -0.0308v 0.3311h -0.3157c -0.4235 0 -0.6545 0.0462 -0.7007 0.1309c -0.0154 0.0308 -0.0231 0.0924 -0.0231 0.1925v 4.2119c 0 0.2079 -0.0308 0.2464 -0.2695 0.2464Z "/></symbol><symbol id="g8829B9D1CFBE2EDF5BE2A9FB7B313CD1" overflow="visible"><path d="M 0 0m 3.41 4.862c -0.759 0 -1.441 -0.33 -2.046 -0.979c -0.605 -0.649 -0.913 -1.364 -0.913 -2.134c 0 -1.078 0.726 -1.87 1.804 -1.87c 0.759 0 1.507 0.297 2.255 0.88c 0.165 -0.583 0.506 -0.88 1.012 -0.88c 0.396 0 0.957 0.418 0.957 0.814c 0 0.099 -0.055 0.143 -0.176 0.143c -0.077 0 -0.143 -0.044 -0.176 -0.132c -0.088 -0.231 -0.319 -0.506 -0.572 -0.506c -0.187 0 -0.286 0.352 -0.286 1.067c 0 0.154 0.033 0.275 0.099 0.352c 0.297 0.363 0.561 0.781 0.77 1.243c 0.275 0.594 0.44 1.034 0.484 1.32v 0.044c -0.033 0.077 -0.099 0.11 -0.176 0.11c -0.055 -0.011 -0.121 -0.099 -0.198 -0.253c -0.231 -0.792 -0.55 -1.474 -0.979 -2.035v 0.55c 0 1.276 -0.638 2.266 -1.859 2.266Z m 1.023 -2.541c 0 -0.649 0.011 -1.045 0.022 -1.188c -0.715 -0.627 -1.441 -0.935 -2.178 -0.935c -0.627 0 -0.935 0.385 -0.935 1.144c 0 0.638 0.363 1.826 0.616 2.222c 0.418 0.649 0.902 0.979 1.441 0.979c 0.341 0 0.572 -0.132 0.715 -0.396c 0.077 -0.132 0.132 -0.264 0.187 -0.385c 0.088 -0.253 0.132 -0.924 0.132 -1.441Z "/></symbol><symbol id="g847DCE2A3EE7D23E3D551BDE0EE8A683" overflow="visible"><path d="M 0 0m 2.607 7.326c -0.561 0 -1.034 -0.198 -1.441 -0.594c -0.407 -0.396 -0.616 -0.858 -0.616 -1.419c 0 -0.374 0.275 -0.649 0.616 -0.649c 0.33 0 0.605 0.286 0.605 0.616c 0 0.363 -0.264 0.616 -0.616 0.616c -0.033 0 -0.055 0 -0.077 -0.011c 0.209 0.539 0.693 1.012 1.386 1.012c 0.902 0 1.408 -0.781 1.408 -1.727c 0 -0.737 -0.374 -1.529 -1.122 -2.365l -2.068 -2.332c -0.143 -0.165 -0.132 -0.154 -0.132 -0.473h 4.081l 0.319 1.98h -0.363c -0.088 -0.561 -0.165 -0.88 -0.231 -0.979c -0.055 -0.055 -0.385 -0.077 -0.99 -0.077h -1.837l 1.067 1.045c 0.748 0.704 1.694 1.463 2.013 2.046c 0.22 0.385 0.33 0.77 0.33 1.155c 0 1.298 -1.012 2.156 -2.332 2.156Z "/></symbol><symbol id="g93668732B0E42348DDA57839D5743AC6" overflow="visible"><path d="M 0 0m 7.722 2.893c 0.275 0.627 0.418 1.254 0.418 1.892c 0 0.858 -0.253 1.562 -0.77 2.123c -0.517 0.561 -1.199 0.847 -2.046 0.847c -0.583 0 -1.166 -0.143 -1.749 -0.429c -1.188 -0.583 -2.057 -1.507 -2.618 -2.761c -0.275 -0.616 -0.418 -1.232 -0.418 -1.859c 0 -0.869 0.253 -1.573 0.77 -2.123c 0.517 -0.55 1.199 -0.825 2.057 -0.825c 0.572 0 1.144 0.143 1.727 0.418c 1.199 0.583 2.068 1.496 2.629 2.717Z m -0.638 2.321c 0 -1.463 -0.66 -2.926 -1.364 -3.795c -0.484 -0.605 -1.32 -1.287 -2.288 -1.287c -1.177 0 -1.793 1.023 -1.793 2.266c 0 0.385 0.077 0.902 0.22 1.529c 0.297 1.298 1.045 2.442 2.024 3.036c 0.473 0.286 0.935 0.429 1.375 0.429c 1.188 0 1.826 -0.946 1.826 -2.178Z "/></symbol><symbol id="gDD78C4AC18CD51C41481EB0565E89892" overflow="visible"><path d="M 0 0m 1.507 0.033c 0.198 0 0.88 -0.033 1.089 -0.033c 0.165 0 0.242 0.088 0.242 0.253c 0 0.099 -0.066 0.165 -0.209 0.176c -0.319 0.011 -0.473 0.121 -0.473 0.33c 0 0.099 0.099 0.319 0.308 0.649c 0.297 0.495 0.506 0.858 0.649 1.1h 2.673c 0 -0.077 0.011 -0.231 0.044 -0.473c 0.077 -0.803 0.121 -1.243 0.121 -1.298c 0 -0.209 -0.242 -0.308 -0.737 -0.308c -0.209 0 -0.308 -0.088 -0.308 -0.264c 0 -0.11 0.066 -0.165 0.198 -0.165c 0.264 0 1.1 0.033 1.364 0.033c 0.22 0 1.001 -0.033 1.221 -0.033c 0.165 0 0.242 0.088 0.242 0.264c 0 0.11 -0.099 0.165 -0.297 0.165c -0.308 0 -0.495 0.022 -0.55 0.055c -0.055 0.033 -0.099 0.132 -0.11 0.297l -0.66 6.798c -0.033 0.209 -0.022 0.297 -0.253 0.297c -0.132 0 -0.242 -0.066 -0.319 -0.209l -3.784 -6.347c -0.33 -0.55 -0.77 -0.847 -1.309 -0.891c -0.176 -0.011 -0.264 -0.099 -0.264 -0.264c 0 -0.11 0.066 -0.165 0.187 -0.165c 0.176 0 0.759 0.033 0.935 0.033Z m 3.905 6.314l 0.33 -3.41h -2.365Z "/></symbol><symbol id="gEC10EBF41C87FA9C1C1D1A4F34582802" overflow="visible"><path d="M 0 0m 8.316 5.973c 0 1.001 -0.99 1.54 -2.068 1.54h -3.652c -0.253 0 -0.363 -0.011 -0.363 -0.264c 0 -0.176 0.22 -0.165 0.352 -0.165c 0.33 -0.011 0.528 -0.033 0.583 -0.044c 0.055 -0.011 0.077 -0.044 0.077 -0.099c 0 -0.022 -0.011 -0.088 -0.044 -0.198l -1.452 -5.841c -0.055 -0.242 -0.165 -0.385 -0.33 -0.44c -0.077 -0.022 -0.275 -0.033 -0.616 -0.033c -0.231 0 -0.341 -0.088 -0.341 -0.264c 0 -0.11 0.11 -0.165 0.341 -0.165h 3.883c 0.715 0 1.375 0.22 2.002 0.649c 0.693 0.473 1.045 1.056 1.045 1.738c 0 0.869 -0.715 1.397 -1.496 1.551c 0.968 0.231 2.079 0.968 2.079 2.035Z m -2.222 1.111c 0.759 0 1.144 -0.352 1.144 -1.067c 0 -0.561 -0.22 -1.023 -0.682 -1.397c -0.462 -0.374 -0.979 -0.55 -1.54 -0.55h -1.529l 0.66 2.64c 0.088 0.374 0.088 0.374 0.55 0.374Z m 0.308 -3.795c 0.154 -0.253 0.231 -0.506 0.231 -0.781c 0 -0.572 -0.22 -1.067 -0.671 -1.474c -0.451 -0.407 -0.957 -0.605 -1.54 -0.605h -1.485c -0.11 0 -0.187 0 -0.231 0.011c -0.066 0 -0.099 0.022 -0.099 0.055c 0 0.011 0 0.044 0.011 0.088c 0.341 1.397 0.605 2.453 0.781 3.157h 2.024c 0.473 0 0.792 -0.154 0.979 -0.451Z "/></symbol></defs></svg>