<svg viewBox="0 0 296.586746881 255.118110236" width="296.586746881pt" height="255.118110236pt" xmlns="http://www.w3.org/2000/svg" xmlns:xlink="http://www.w3.org/1999/xlink" xmlns:h5="http://www.w3.org/1999/xhtml"><path fill="#ffffff" fill-rule="nonzero" d="M 0 0v 255.118110236h 296.586746881v -255.118110236Z "/><g transform="translate(8.503937008 8.503937008)"><path fill="none" stroke="#000000" stroke-width="1" stroke-linecap="butt" stroke-linejoin="miter" stroke-miterlimit="4" transform="translate(59.527559055 59.527559055)" d="M 0 0m 59.527559055 0c -32.846354646 0 -59.527559055 26.681204409 -59.527559055 59.527559055c 0 32.846354646 26.681204409 59.527559055 59.527559055 59.527559055c 32.846354646 0 59.527559055 -26.681204409 59.527559055 -59.527559055c 0 -32.846354646 -26.681204409 -59.527559055 -59.527559055 -59.527559055Z "/><path fill="none" stroke="#aaaaaa" stroke-width="0.7" stroke-linecap="butt" stroke-linejoin="miter" stroke-miterlimit="4" transform="translate(19.842519685 148.818897638)" d="M 0 0h 198.42519685"/><path fill="none" stroke="#aaaaaa" stroke-width="0.7" stroke-linecap="butt" stroke-linejoin="miter" stroke-miterlimit="4" transform="translate(134.929133858 75.401574803)" d="M 0 0m 23.811023622 0c -13.138541858 0 -23.811023622 10.672481764 -23.811023622 23.811023622c 0 13.138541858 10.672481764 23.811023622 23.811023622 23.811023622c 13.138541858 0 23.811023622 -10.672481764 23.811023622 -23.811023622c 0 -13.138541858 -10.672481764 -23.811023622 -23.811023622 -23.811023622Z "/><path fill="none" stroke="#aaaaaa" stroke-width="0.7" stroke-linecap="butt" stroke-linejoin="miter" stroke-miterlimit="4" transform="translate(39.68503937 79.37007874)" d="M 0 0m 39.68503937 0c -21.897569764 0 -39.68503937 17.787469606 -39.68503937 39.68503937c 0 21.897569764 17.787469606 39.68503937 39.68503937 39.68503937c 21.897569764 0 39.68503937 -17.787469606 39.68503937 -39.68503937c 0 -21.897569764 -17.787469606 -39.68503937 -39.68503937 -39.68503937Z "/><path fill="none" stroke="#0074d9" stroke-width="1.1" stroke-linecap="butt" stroke-linejoin="miter" stroke-miterlimit="4" transform="translate(59.527559055 119.05511811)" d="M 0 0m 59.527559055 0c -32.846354646 0 -59.527559055 26.681204409 -59.527559055 59.527559055c 0 32.846354646 26.681204409 59.527559055 59.527559055 59.527559055c 32.846354646 0 59.527559055 -26.681204409 59.527559055 -59.527559055c 0 -32.846354646 -26.681204409 -59.527559055 -59.527559055 -59.527559055Z "/><path fill="none" stroke="#ff4136" stroke-width="1.1" stroke-linecap="butt" stroke-linejoin="miter" stroke-miterlimit="4" transform="translate(159.186056799 8.695036716)" d="M 0 0m 60.196408033 0c -33.21541481 0 -60.196408033 26.980993223 -60.196408033 60.196408033c 0 33.21541481 26.980993223 60.196408033 60.196408033 60.196408033c 33.21541481 0 60.196408033 -26.980993223 60.196408033 -60.196408033c 0 -33.21541481 -26.980993223 -60.196408033 -60.196408033 -60.196408033Z "/><path fill="none" stroke="#25a333" stroke-width="1.1" stroke-linecap="butt" stroke-linejoin="miter" stroke-miterlimit="4" transform="translate(74.409448819 79.37007874)" d="M 0 0m 0 79.37007874v -79.37007874"/><path fill="none" stroke="#000000" stroke-width="0.9" stroke-linecap="butt" stroke-linejoin="miter" stroke-miterlimit="4" transform="translate(117.666141732 117.666141732)" d="M 0 0m 0 2.777952756l 2.777952756 -2.777952756"/><path fill="none" stroke="#000000" stroke-width="0.9" stroke-linecap="butt" stroke-linejoin="miter" stroke-miterlimit="4" transform="translate(117.666141732 117.666141732)" d="M 0 0l 2.777952756 2.777952756"/><path fill="none" transform="translate(130.368826609 130.368826609)" d="M 0 0h 18.448v 17.755h -18.448v -17.755Z "/><g transform="translate(130.368826559 130.368826559)"><g transform="matrix(1 0 0 -1 5 12.513)"><use xlink:href="#g93668732B0E42348DDA57839D5743AC6" x="0" y="0" fill="#000000" fill-rule="nonzero"/></g></g></g><defs><symbol id="g93668732B0E42348DDA57839D5743AC6" overflow="visible"><path d="M 0 0m 7.722 2.893c 0.275 0.627 0.418 1.254 0.418 1.892c 0 0.858 -0.253 1.562 -0.77 2.123c -0.517 0.561 -1.199 0.847 -2.046 0.847c -0.583 0 -1.166 -0.143 -1.749 -0.429c -1.188 -0.583 -2.057 -1.507 -2.618 -2.761c -0.275 -0.616 -0.418 -1.232 -0.418 -1.859c 0 -0.869 0.253 -1.573 0.77 -2.123c 0.517 -0.55 1.199 -0.825 2.057 -0.825c 0.572 0 1.144 0.143 1.727 0.418c 1.199 0.583 2.068 1.496 2.629 2.717Z m -0.638 2.321c 0 -1.463 -0.66 -2.926 -1.364 -3.795c -0.484 -0.605 -1.32 -1.287 -2.288 -1.287c -1.177 0 -1.793 1.023 -1.793 2.266c 0 0.385 0.077 0.902 0.22 1.529c 0.297 1.298 1.045 2.442 2.024 3.036c 0.473 0.286 0.935 0.429 1.375 0.429c 1.188 0 1.826 -0.946 1.826 -2.178Z "/></symbol></defs></svg>