<svg viewBox="0 0 81.799775028 81.799775028" width="81.799775028pt" height="81.799775028pt" xmlns="http://www.w3.org/2000/svg" xmlns:xlink="http://www.w3.org/1999/xlink" xmlns:h5="http://www.w3.org/1999/xhtml"><path fill="#f2f2cc" fill-rule="nonzero" d="M 0 0v 81.799775028h 81.799775028v -81.799775028Z "/><g transform="translate(8.503937008 8.503937008)"><path fill="none" stroke="#000000" stroke-width="0.5" stroke-linecap="butt" stroke-linejoin="miter" stroke-miterlimit="4" d="M 0 0m 32.395950506 0c -17.875567154 0 -32.395950506 14.520383352 -32.395950506 32.395950506c 0 17.875567154 14.520383352 32.395950506 32.395950506 32.395950506c 17.875567154 0 32.395950506 -14.520383352 32.395950506 -32.395950506c 0 -17.875567154 -14.520383352 -32.395950506 -32.395950506 -32.395950506Z "/><path fill="none" stroke="#000000" stroke-width="0.5" stroke-linecap="butt" stroke-linejoin="miter" stroke-miterlimit="4" transform="translate(0 11.780345639)" d="M 0 0m 20.615604868 0c -11.375360916 0 -20.615604868 9.240243951 -20.615604868 20.615604868c 0 11.375360916 9.240243951 20.615604868 20.615604868 20.615604868c 11.375360916 0 20.615604868 -9.240243951 20.615604868 -20.615604868c 0 -11.375360916 -9.240243951 -20.615604868 -20.615604868 -20.615604868Z "/><path fill="#ffdc00" fill-rule="nonzero" stroke="#ff4136" stroke-width="0.4" stroke-linecap="butt" stroke-linejoin="miter" stroke-miterlimit="4" transform="translate(0.341633826 36.983604748)" d="M 0 0m 0.097609665 0c -0.053859451 0 -0.097609665 0.043750213 -0.097609665 0.097609665c 0 0.053859451 0.043750213 0.097609665 0.097609665 0.097609665c 0.053859451 0 0.097609665 -0.043750213 0.097609665 -0.097609665c 0 -0.053859451 -0.043750213 -0.097609665 -0.097609665 -0.097609665Z "/><path fill="#ffdc00" fill-rule="nonzero" stroke="#ff4136" stroke-width="0.4" stroke-linecap="butt" stroke-linejoin="miter" stroke-miterlimit="4" transform="translate(0.371713283 37.175121287)" d="M 0 0m 0.106203795 0c -0.058601555 0 -0.106203795 0.04760224 -0.106203795 0.106203795c 0 0.058601555 0.04760224 0.106203795 0.106203795 0.106203795c 0.058601555 0 0.106203795 -0.04760224 0.106203795 -0.106203795c 0 -0.058601555 -0.04760224 -0.106203795 -0.106203795 -0.106203795Z "/><path fill="#ffdc00" fill-rule="nonzero" stroke="#ff4136" stroke-width="0.4" stroke-linecap="butt" stroke-linejoin="miter" stroke-miterlimit="4" transform="translate(0.405933148 37.38312918)" d="M 0 0m 0.115980899 0c -0.063996405 0 -0.115980899 0.051984495 -0.115980899 0.115980899c 0 0.063996405 0.051984495 0.115980899 0.115980899 0.115980899c 0.063996405 0 0.115980899 -0.051984495 0.115980899 -0.115980899c 0 -0.063996405 -0.051984495 -0.115980899 -0.115980899 -0.115980899Z "/><path fill="#ffdc00" fill-rule="nonzero" stroke="#ff4136" stroke-width="0.4" stroke-linecap="butt" stroke-linejoin="miter" stroke-miterlimit="4" transform="translate(0.445086661 37.609822815)" d="M 0 0m 0.127167617 0c -0.070169057 0 -0.127167617 0.056998561 -0.127167617 0.127167617c 0 0.070169057 0.056998561 0.127167617 0.127167617 0.127167617c 0.070169057 0 0.127167617 -0.056998561 0.127167617 -0.127167617c 0 -0.070169057 -0.056998561 -0.127167617 -0.127167617 -0.127167617Z "/><path fill="#ffdc00" fill-rule="nonzero" stroke="#ff4136" stroke-width="0.4" stroke-linecap="butt" stroke-linejoin="miter" stroke-miterlimit="4" transform="translate(0.490165686 37.857796724)" d="M 0 0m 0.140047339 0c -0.077275881 0 -0.140047339 0.062771458 -0.140047339 0.140047339c 0 0.077275881 0.062771458 0.140047339 0.140047339 0.140047339c 0.077275881 0 0.140047339 -0.062771458 0.140047339 -0.140047339c 0 -0.077275881 -0.062771458 -0.140047339 -0.140047339 -0.140047339Z "/><path fill="#ffdc00" fill-rule="nonzero" stroke="#ff4136" stroke-width="0.4" stroke-linecap="butt" stroke-linejoin="miter" stroke-miterlimit="4" transform="translate(0.542423227 38.130138909)" d="M 0 0m 0.154978065 0c -0.085514417 0 -0.154978065 0.069463648 -0.154978065 0.154978065c 0 0.085514417 0.069463648 0.154978065 0.154978065 0.154978065c 0.085514417 0 0.154978065 -0.069463648 0.154978065 -0.154978065c 0 -0.085514417 -0.069463648 -0.154978065 -0.154978065 -0.154978065Z "/><path fill="#ffdc00" fill-rule="nonzero" stroke="#ff4136" stroke-width="0.4" stroke-linecap="butt" stroke-linejoin="miter" stroke-miterlimit="4" transform="translate(0.603460017 38.430550677)" d="M 0 0m 0.172417148 0c -0.095137023 0 -0.172417148 0.077280124 -0.172417148 0.172417148c 0 0.095137023 0.077280124 0.172417148 0.172417148 0.172417148c 0.095137023 0 0.172417148 -0.077280124 0.172417148 -0.172417148c 0 -0.095137023 -0.077280124 -0.172417148 -0.172417148 -0.172417148Z "/><path fill="#ffdc00" fill-rule="nonzero" stroke="#ff4136" stroke-width="0.4" stroke-linecap="butt" stroke-linejoin="miter" stroke-miterlimit="4" transform="translate(0.675346341 38.763501722)" d="M 0 0m 0.192956097 0c -0.106470087 0 -0.192956097 0.08648601 -0.192956097 0.192956097c 0 0.106470087 0.08648601 0.192956097 0.192956097 0.192956097c 0.106470087 0 0.192956097 -0.08648601 0.192956097 -0.192956097c 0 -0.106470087 -0.08648601 -0.192956097 -0.192956097 -0.192956097Z "/><path fill="#ffdc00" fill-rule="nonzero" stroke="#ff4136" stroke-width="0.4" stroke-linecap="butt" stroke-linejoin="miter" stroke-miterlimit="4" transform="translate(0.760796345 39.134432423)" d="M 0 0m 0.217370384 0c -0.1199415 0 -0.217370384 0.097428884 -0.217370384 0.217370384c 0 0.1199415 0.097428884 0.217370384 0.217370384 0.217370384c 0.1199415 0 0.217370384 -0.097428884 0.217370384 -0.217370384c 0 -0.1199415 -0.097428884 -0.217370384 -0.217370384 -0.217370384Z "/><path fill="#ffdc00" fill-rule="nonzero" stroke="#ff4136" stroke-width="0.4" stroke-linecap="butt" stroke-linejoin="miter" stroke-miterlimit="4" transform="translate(0.863422124 39.550019533)" d="M 0 0m 0.246692035 0c -0.136120718 0 -0.246692035 0.110571317 -0.246692035 0.246692035c 0 0.136120718 0.110571317 0.246692035 0.246692035 0.246692035c 0.136120718 0 0.246692035 -0.110571317 0.246692035 -0.246692035c 0 -0.136120718 -0.110571317 -0.246692035 -0.246692035 -0.246692035Z "/><path fill="#ffdc00" fill-rule="nonzero" stroke="#ff4136" stroke-width="0.4" stroke-linecap="butt" stroke-linejoin="miter" stroke-miterlimit="4" transform="translate(0.98811178 40.018527096)" d="M 0 0m 0.282317651 0c -0.155778363 0 -0.282317651 0.126539288 -0.282317651 0.282317651c 0 0.155778363 0.126539288 0.282317651 0.282317651 0.282317651c 0.155778363 0 0.282317651 -0.126539288 0.282317651 -0.282317651c 0 -0.155778363 -0.126539288 -0.282317651 -0.282317651 -0.282317651Z "/><path fill="#ffdc00" fill-rule="nonzero" stroke="#ff4136" stroke-width="0.4" stroke-linecap="butt" stroke-linejoin="miter" stroke-miterlimit="4" transform="translate(1.141604872 40.550271022)" d="M 0 0m 0.326172821 0c -0.179976944 0 -0.326172821 0.146195877 -0.326172821 0.326172821c 0 0.179976944 0.146195877 0.326172821 0.326172821 0.326172821c 0.179976944 0 0.326172821 -0.146195877 0.326172821 -0.326172821c 0 -0.179976944 -0.146195877 -0.326172821 -0.326172821 -0.326172821Z "/><path fill="#ffdc00" fill-rule="nonzero" stroke="#ff4136" stroke-width="0.4" stroke-linecap="butt" stroke-linejoin="miter" stroke-miterlimit="4" transform="translate(1.333390655 41.158231953)" d="M 0 0m 0.380968759 0c -0.210212465 0 -0.380968759 0.170756293 -0.380968759 0.380968759c 0 0.210212465 0.170756293 0.380968759 0.380968759 0.380968759c 0.210212465 0 0.380968759 -0.170756293 0.380968759 -0.380968759c 0 -0.210212465 -0.170756293 -0.380968759 -0.380968759 -0.380968759Z "/><path fill="#ffdc00" fill-rule="nonzero" stroke="#ff4136" stroke-width="0.4" stroke-linecap="butt" stroke-linejoin="miter" stroke-miterlimit="4" transform="translate(1.577150099 41.858851101)" d="M 0 0m 0.450614314 0c -0.248641769 0 -0.450614314 0.201972545 -0.450614314 0.450614314c 0 0.248641769 0.201972545 0.450614314 0.450614314 0.450614314c 0.248641769 0 0.450614314 -0.201972545 0.450614314 -0.450614314c 0 -0.248641769 -0.201972545 -0.450614314 -0.450614314 -0.450614314Z "/><path fill="#ffdc00" fill-rule="nonzero" stroke="#ff4136" stroke-width="0.4" stroke-linecap="butt" stroke-linejoin="miter" stroke-miterlimit="4" transform="translate(1.893144395 42.673020076)" d="M 0 0m 0.540898398 0c -0.298459082 0 -0.540898398 0.242439317 -0.540898398 0.540898398c 0 0.298459082 0.242439317 0.540898398 0.540898398 0.540898398c 0.298459082 0 0.540898398 -0.242439317 0.540898398 -0.540898398c 0 -0.298459082 -0.242439317 -0.540898398 -0.540898398 -0.540898398Z "/><path fill="#ffdc00" fill-rule="nonzero" stroke="#ff4136" stroke-width="0.4" stroke-linecap="butt" stroke-linejoin="miter" stroke-miterlimit="4" transform="translate(2.312311107 43.627175882)" d="M 0 0m 0.660660316 0c -0.364541792 0 -0.660660316 0.296118524 -0.660660316 0.660660316c 0 0.364541792 0.296118524 0.660660316 0.660660316 0.660660316c 0.364541792 0 0.660660316 -0.296118524 0.660660316 -0.660660316c 0 -0.364541792 -0.296118524 -0.660660316 -0.660660316 -0.660660316Z "/><path fill="#ffdc00" fill-rule="nonzero" stroke="#ff4136" stroke-width="0.4" stroke-linecap="butt" stroke-linejoin="miter" stroke-miterlimit="4" transform="translate(2.88356326 44.754078765)" d="M 0 0m 0.823875217 0c -0.454601163 0 -0.823875217 0.369274054 -0.823875217 0.823875217c 0 0.454601163 0.369274054 0.823875217 0.823875217 0.823875217c 0.454601163 0 0.823875217 -0.369274054 0.823875217 -0.823875217c 0 -0.454601163 -0.369274054 -0.823875217 -0.823875217 -0.823875217Z "/><path fill="#ffdc00" fill-rule="nonzero" stroke="#ff4136" stroke-width="0.4" stroke-linecap="butt" stroke-linejoin="miter" stroke-miterlimit="4" transform="translate(3.68734396 46.091799501)" d="M 0 0m 1.053526846 0c -0.581319257 0 -1.053526846 0.472207589 -1.053526846 1.053526846c 0 0.581319257 0.472207589 1.053526846 1.053526846 1.053526846c 0.581319257 0 1.053526846 -0.472207589 1.053526846 -1.053526846c 0 -0.581319257 -0.472207589 -1.053526846 -1.053526846 -1.053526846Z "/><path fill="#ffdc00" fill-rule="nonzero" stroke="#ff4136" stroke-width="0.4" stroke-linecap="butt" stroke-linejoin="miter" stroke-miterlimit="4" transform="translate(4.861873123 47.67612318)" d="M 0 0m 1.389106607 0c -0.7664868 0 -1.389106607 0.622619807 -1.389106607 1.389106607c 0 0.7664868 0.622619807 1.389106607 1.389106607 1.389106607c 0.7664868 0 1.389106607 -0.622619807 1.389106607 -1.389106607c 0 -0.7664868 -0.622619807 -1.389106607 -1.389106607 -1.389106607Z "/><path fill="#ffdc00" fill-rule="nonzero" stroke="#ff4136" stroke-width="0.4" stroke-linecap="butt" stroke-linejoin="miter" stroke-miterlimit="4" transform="translate(6.655771802 49.510792283)" d="M 0 0m 1.901649086 0c -1.049299539 0 -1.901649086 0.852349547 -1.901649086 1.901649086c 0 1.049299539 0.852349547 1.901649086 1.901649086 1.901649086c 1.049299539 0 1.901649086 -0.852349547 1.901649086 -1.901649086c 0 -1.049299539 -0.852349547 -1.901649086 -1.901649086 -1.901649086Z "/><path fill="#ffdc00" fill-rule="nonzero" stroke="#ff4136" stroke-width="0.4" stroke-linecap="butt" stroke-linejoin="miter" stroke-miterlimit="4" transform="translate(9.533943392 51.463837291)" d="M 0 0m 2.723983826 0c -1.503050692 0 -2.723983826 1.220933135 -2.723983826 2.723983826c 0 1.503050692 1.220933135 2.723983826 2.723983826 2.723983826c 1.503050692 0 2.723983826 -1.220933135 2.723983826 -2.723983826c 0 -1.503050692 -1.220933135 -2.723983826 -2.723983826 -2.723983826Z "/><path fill="#ffdc00" fill-rule="nonzero" stroke="#ff4136" stroke-width="0.4" stroke-linecap="butt" stroke-linejoin="miter" stroke-miterlimit="4" transform="translate(14.365625111 52.918272094)" d="M 0 0m 4.104464318 0c -2.264777739 0 -4.104464318 1.839686579 -4.104464318 4.104464318c 0 2.264777739 1.839686579 4.104464318 4.104464318 4.104464318c 2.264777739 0 4.104464318 -1.839686579 4.104464318 -4.104464318c 0 -2.264777739 -1.839686579 -4.104464318 -4.104464318 -4.104464318Z "/><path fill="#ffdc00" fill-rule="nonzero" stroke="#ff4136" stroke-width="0.4" stroke-linecap="butt" stroke-linejoin="miter" stroke-miterlimit="4" transform="translate(22.516334394 51.695665701)" d="M 0 0m 6.433238398 0c -3.549758016 0 -6.433238398 2.883480382 -6.433238398 6.433238398c 0 3.549758016 2.883480382 6.433238398 6.433238398 6.433238398c 3.549758016 0 6.433238398 -2.883480382 6.433238398 -6.433238398c 0 -3.549758016 -2.883480382 -6.433238398 -6.433238398 -6.433238398Z "/><path fill="#ffdc00" fill-rule="nonzero" stroke="#ff4136" stroke-width="0.4" stroke-linecap="butt" stroke-linejoin="miter" stroke-miterlimit="4" transform="translate(34.137668275 42.149570013)" d="M 0 0m 9.753619507 0c -5.381891186 0 -9.753619507 4.371728321 -9.753619507 9.753619507c 0 5.381891186 4.371728321 9.753619507 9.753619507 9.753619507c 5.381891186 0 9.753619507 -4.371728321 9.753619507 -9.753619507c 0 -5.381891186 -4.371728321 -9.753619507 -9.753619507 -9.753619507Z "/><path fill="#ffdc00" fill-rule="nonzero" stroke="#ff4136" stroke-width="0.4" stroke-linecap="butt" stroke-linejoin="miter" stroke-miterlimit="4" transform="translate(41.231209735 20.615604868)" d="M 0 0m 11.780345639 0c -6.500206238 0 -11.780345639 5.280139401 -11.780345639 11.780345639c 0 6.500206238 5.280139401 11.780345639 11.780345639 11.780345639c 6.500206238 0 11.780345639 -5.280139401 11.780345639 -11.780345639c 0 -6.500206238 -5.280139401 -11.780345639 -11.780345639 -11.780345639Z "/><path fill="#ffdc00" fill-rule="nonzero" stroke="#ff4136" stroke-width="0.4" stroke-linecap="butt" stroke-linejoin="miter" stroke-miterlimit="4" transform="translate(34.137668275 3.135091984)" d="M 0 0m 9.753619507 0c -5.381891186 0 -9.753619507 4.371728321 -9.753619507 9.753619507c 0 5.381891186 4.371728321 9.753619507 9.753619507 9.753619507c 5.381891186 0 9.753619507 -4.371728321 9.753619507 -9.753619507c 0 -5.381891186 -4.371728321 -9.753619507 -9.753619507 -9.753619507Z "/><path fill="#ffdc00" fill-rule="nonzero" stroke="#ff4136" stroke-width="0.4" stroke-linecap="butt" stroke-linejoin="miter" stroke-miterlimit="4" transform="translate(22.516334394 0.229758514)" d="M 0 0m 6.433238398 0c -3.549758016 0 -6.433238398 2.883480382 -6.433238398 6.433238398c 0 3.549758016 2.883480382 6.433238398 6.433238398 6.433238398c 3.549758016 0 6.433238398 -2.883480382 6.433238398 -6.433238398c 0 -3.549758016 -2.883480382 -6.433238398 -6.433238398 -6.433238398Z "/><path fill="#ffdc00" fill-rule="nonzero" stroke="#ff4136" stroke-width="0.4" stroke-linecap="butt" stroke-linejoin="miter" stroke-miterlimit="4" transform="translate(14.365625111 3.664700284)" d="M 0 0m 4.104464318 0c -2.264777739 0 -4.104464318 1.839686579 -4.104464318 4.104464318c 0 2.264777739 1.839686579 4.104464318 4.104464318 4.104464318c 2.264777739 0 4.104464318 -1.839686579 4.104464318 -4.104464318c 0 -2.264777739 -1.839686579 -4.104464318 -4.104464318 -4.104464318Z "/><path fill="#ffdc00" fill-rule="nonzero" stroke="#ff4136" stroke-width="0.4" stroke-linecap="butt" stroke-linejoin="miter" stroke-miterlimit="4" transform="translate(9.533943392 7.880096069)" d="M 0 0m 2.723983826 0c -1.503050692 0 -2.723983826 1.220933135 -2.723983826 2.723983826c 0 1.503050692 1.220933135 2.723983826 2.723983826 2.723983826c 1.503050692 0 2.723983826 -1.220933135 2.723983826 -2.723983826c 0 -1.503050692 -1.220933135 -2.723983826 -2.723983826 -2.723983826Z "/><path fill="#ffdc00" fill-rule="nonzero" stroke="#ff4136" stroke-width="0.4" stroke-linecap="butt" stroke-linejoin="miter" stroke-miterlimit="4" transform="translate(6.655771802 11.477810557)" d="M 0 0m 1.901649086 0c -1.049299539 0 -1.901649086 0.852349547 -1.901649086 1.901649086c 0 1.049299539 0.852349547 1.901649086 1.901649086 1.901649086c 1.049299539 0 1.901649086 -0.852349547 1.901649086 -1.901649086c 0 -1.049299539 -0.852349547 -1.901649086 -1.901649086 -1.901649086Z "/><path fill="#ffdc00" fill-rule="nonzero" stroke="#ff4136" stroke-width="0.4" stroke-linecap="butt" stroke-linejoin="miter" stroke-miterlimit="4" transform="translate(4.861873123 14.337564619)" d="M 0 0m 1.389106607 0c -0.7664868 0 -1.389106607 0.622619807 -1.389106607 1.389106607c 0 0.7664868 0.622619807 1.389106607 1.389106607 1.389106607c 0.7664868 0 1.389106607 -0.622619807 1.389106607 -1.389106607c 0 -0.7664868 -0.622619807 -1.389106607 -1.389106607 -1.389106607Z "/><path fill="#ffdc00" fill-rule="nonzero" stroke="#ff4136" stroke-width="0.4" stroke-linecap="butt" stroke-linejoin="miter" stroke-miterlimit="4" transform="translate(3.68734396 16.59304782)" d="M 0 0m 1.053526846 0c -0.581319257 0 -1.053526846 0.472207589 -1.053526846 1.053526846c 0 0.581319257 0.472207589 1.053526846 1.053526846 1.053526846c 0.581319257 0 1.053526846 -0.472207589 1.053526846 -1.053526846c 0 -0.581319257 -0.472207589 -1.053526846 -1.053526846 -1.053526846Z "/><path fill="#ffdc00" fill-rule="nonzero" stroke="#ff4136" stroke-width="0.4" stroke-linecap="butt" stroke-linejoin="miter" stroke-miterlimit="4" transform="translate(2.88356326 18.390071813)" d="M 0 0m 0.823875217 0c -0.454601163 0 -0.823875217 0.369274054 -0.823875217 0.823875217c 0 0.454601163 0.369274054 0.823875217 0.823875217 0.823875217c 0.454601163 0 0.823875217 -0.369274054 0.823875217 -0.823875217c 0 -0.454601163 -0.369274054 -0.823875217 -0.823875217 -0.823875217Z "/><path fill="#ffdc00" fill-rule="nonzero" stroke="#ff4136" stroke-width="0.4" stroke-linecap="butt" stroke-linejoin="miter" stroke-miterlimit="4" transform="translate(2.312311107 19.843404498)" d="M 0 0m 0.660660316 0c -0.364541792 0 -0.660660316 0.296118524 -0.660660316 0.660660316c 0 0.364541792 0.296118524 0.660660316 0.660660316 0.660660316c 0.364541792 0 0.660660316 -0.296118524 0.660660316 -0.660660316c 0 -0.364541792 -0.296118524 -0.660660316 -0.660660316 -0.660660316Z "/><path fill="#ffdc00" fill-rule="nonzero" stroke="#ff4136" stroke-width="0.4" stroke-linecap="butt" stroke-linejoin="miter" stroke-miterlimit="4" transform="translate(1.893144395 21.037084139)" d="M 0 0m 0.540898398 0c -0.298459082 0 -0.540898398 0.242439317 -0.540898398 0.540898398c 0 0.298459082 0.242439317 0.540898398 0.540898398 0.540898398c 0.298459082 0 0.540898398 -0.242439317 0.540898398 -0.540898398c 0 -0.298459082 -0.242439317 -0.540898398 -0.540898398 -0.540898398Z "/><path fill="#ffdc00" fill-rule="nonzero" stroke="#ff4136" stroke-width="0.4" stroke-linecap="butt" stroke-linejoin="miter" stroke-miterlimit="4" transform="translate(1.577150099 22.031821283)" d="M 0 0m 0.450614314 0c -0.248641769 0 -0.450614314 0.201972545 -0.450614314 0.450614314c 0 0.248641769 0.201972545 0.450614314 0.450614314 0.450614314c 0.248641769 0 0.450614314 -0.201972545 0.450614314 -0.450614314c 0 -0.248641769 -0.201972545 -0.450614314 -0.450614314 -0.450614314Z "/><path fill="#ffdc00" fill-rule="nonzero" stroke="#ff4136" stroke-width="0.4" stroke-linecap="butt" stroke-linejoin="miter" stroke-miterlimit="4" transform="translate(1.333390655 22.871731542)" d="M 0 0m 0.380968759 0c -0.210212465 0 -0.380968759 0.170756293 -0.380968759 0.380968759c 0 0.210212465 0.170756293 0.380968759 0.380968759 0.380968759c 0.210212465 0 0.380968759 -0.170756293 0.380968759 -0.380968759c 0 -0.210212465 -0.170756293 -0.380968759 -0.380968759 -0.380968759Z "/><path fill="#ffdc00" fill-rule="nonzero" stroke="#ff4136" stroke-width="0.4" stroke-linecap="butt" stroke-linejoin="miter" stroke-miterlimit="4" transform="translate(1.141604872 23.589284349)" d="M 0 0m 0.326172821 0c -0.179976944 0 -0.326172821 0.146195877 -0.326172821 0.326172821c 0 0.179976944 0.146195877 0.326172821 0.326172821 0.326172821c 0.179976944 0 0.326172821 -0.146195877 0.326172821 -0.326172821c 0 -0.179976944 -0.146195877 -0.326172821 -0.326172821 -0.326172821Z "/><path fill="#ffdc00" fill-rule="nonzero" stroke="#ff4136" stroke-width="0.4" stroke-linecap="butt" stroke-linejoin="miter" stroke-miterlimit="4" transform="translate(0.98811178 24.208738614)" d="M 0 0m 0.282317651 0c -0.155778363 0 -0.282317651 0.126539288 -0.282317651 0.282317651c 0 0.155778363 0.126539288 0.282317651 0.282317651 0.282317651c 0.155778363 0 0.282317651 -0.126539288 0.282317651 -0.282317651c 0 -0.155778363 -0.126539288 -0.282317651 -0.282317651 -0.282317651Z "/><path fill="#ffdc00" fill-rule="nonzero" stroke="#ff4136" stroke-width="0.4" stroke-linecap="butt" stroke-linejoin="miter" stroke-miterlimit="4" transform="translate(0.863422124 24.748497409)" d="M 0 0m 0.246692035 0c -0.136120718 0 -0.246692035 0.110571317 -0.246692035 0.246692035c 0 0.136120718 0.110571317 0.246692035 0.246692035 0.246692035c 0.136120718 0 0.246692035 -0.110571317 0.246692035 -0.246692035c 0 -0.136120718 -0.110571317 -0.246692035 -0.246692035 -0.246692035Z "/><path fill="#ffdc00" fill-rule="nonzero" stroke="#ff4136" stroke-width="0.4" stroke-linecap="butt" stroke-linejoin="miter" stroke-miterlimit="4" transform="translate(0.760796345 25.22272782)" d="M 0 0m 0.217370384 0c -0.1199415 0 -0.217370384 0.097428884 -0.217370384 0.217370384c 0 0.1199415 0.097428884 0.217370384 0.217370384 0.217370384c 0.1199415 0 0.217370384 -0.097428884 0.217370384 -0.217370384c 0 -0.1199415 -0.097428884 -0.217370384 -0.217370384 -0.217370384Z "/><path fill="#ffdc00" fill-rule="nonzero" stroke="#ff4136" stroke-width="0.4" stroke-linecap="butt" stroke-linejoin="miter" stroke-miterlimit="4" transform="translate(0.675346341 25.642487095)" d="M 0 0m 0.192956097 0c -0.106470087 0 -0.192956097 0.08648601 -0.192956097 0.192956097c 0 0.106470087 0.08648601 0.192956097 0.192956097 0.192956097c 0.106470087 0 0.192956097 -0.08648601 0.192956097 -0.192956097c 0 -0.106470087 -0.08648601 -0.192956097 -0.192956097 -0.192956097Z "/><path fill="#ffdc00" fill-rule="nonzero" stroke="#ff4136" stroke-width="0.4" stroke-linecap="butt" stroke-linejoin="miter" stroke-miterlimit="4" transform="translate(0.603460017 26.01651604)" d="M 0 0m 0.172417148 0c -0.095137023 0 -0.172417148 0.077280124 -0.172417148 0.172417148c 0 0.095137023 0.077280124 0.172417148 0.172417148 0.172417148c 0.095137023 0 0.172417148 -0.077280124 0.172417148 -0.172417148c 0 -0.095137023 -0.077280124 -0.172417148 -0.172417148 -0.172417148Z "/><path fill="#ffdc00" fill-rule="nonzero" stroke="#ff4136" stroke-width="0.4" stroke-linecap="butt" stroke-linejoin="miter" stroke-miterlimit="4" transform="translate(0.542423227 26.351805973)" d="M 0 0m 0.154978065 0c -0.085514417 0 -0.154978065 0.069463648 -0.154978065 0.154978065c 0 0.085514417 0.069463648 0.154978065 0.154978065 0.154978065c 0.085514417 0 0.154978065 -0.069463648 0.154978065 -0.154978065c 0 -0.085514417 -0.069463648 -0.154978065 -0.154978065 -0.154978065Z "/><path fill="#ffdc00" fill-rule="nonzero" stroke="#ff4136" stroke-width="0.4" stroke-linecap="butt" stroke-linejoin="miter" stroke-miterlimit="4" transform="translate(0.490165686 26.654009611)" d="M 0 0m 0.140047339 0c -0.077275881 0 -0.140047339 0.062771458 -0.140047339 0.140047339c 0 0.077275881 0.062771458 0.140047339 0.140047339 0.140047339c 0.077275881 0 0.140047339 -0.062771458 0.140047339 -0.140047339c 0 -0.077275881 -0.062771458 -0.140047339 -0.140047339 -0.140047339Z "/><path fill="#ffdc00" fill-rule="nonzero" stroke="#ff4136" stroke-width="0.4" stroke-linecap="butt" stroke-linejoin="miter" stroke-miterlimit="4" transform="translate(0.445086661 26.927742962)" d="M 0 0m 0.127167617 0c -0.070169057 0 -0.127167617 0.056998561 -0.127167617 0.127167617c 0 0.070169057 0.056998561 0.127167617 0.127167617 0.127167617c 0.070169057 0 0.127167617 -0.056998561 0.127167617 -0.127167617c 0 -0.070169057 -0.056998561 -0.127167617 -0.127167617 -0.127167617Z "/><path fill="#ffdc00" fill-rule="nonzero" stroke="#ff4136" stroke-width="0.4" stroke-linecap="butt" stroke-linejoin="miter" stroke-miterlimit="4" transform="translate(0.405933148 27.176810033)" d="M 0 0m 0.115980899 0c -0.063996405 0 -0.115980899 0.051984495 -0.115980899 0.115980899c 0 0.063996405 0.051984495 0.115980899 0.115980899 0.115980899c 0.063996405 0 0.115980899 -0.051984495 0.115980899 -0.115980899c 0 -0.063996405 -0.051984495 -0.115980899 -0.115980899 -0.115980899Z "/><path fill="#ffdc00" fill-rule="nonzero" stroke="#ff4136" stroke-width="0.4" stroke-linecap="butt" stroke-linejoin="miter" stroke-miterlimit="4" transform="translate(0.371713283 27.404372135)" d="M 0 0m 0.106203795 0c -0.058601555 0 -0.106203795 0.04760224 -0.106203795 0.106203795c 0 0.058601555 0.04760224 0.106203795 0.106203795 0.106203795c 0.058601555 0 0.106203795 -0.04760224 0.106203795 -0.106203795c 0 -0.058601555 -0.04760224 -0.106203795 -0.106203795 -0.106203795Z "/><path fill="#ffdc00" fill-rule="nonzero" stroke="#ff4136" stroke-width="0.4" stroke-linecap="butt" stroke-linejoin="miter" stroke-miterlimit="4" transform="translate(0.341633826 27.613076935)" d="M 0 0m 0.097609665 0c -0.053859451 0 -0.097609665 0.043750213 -0.097609665 0.097609665c 0 0.053859451 0.043750213 0.097609665 0.097609665 0.097609665c 0.053859451 0 0.097609665 -0.043750213 0.097609665 -0.097609665c 0 -0.053859451 -0.043750213 -0.097609665 -0.097609665 -0.097609665Z "/></g></svg>