<svg viewBox="0 0 215.433070866 294.803149606" width="215.433070866pt" height="294.803149606pt" xmlns="http://www.w3.org/2000/svg" xmlns:xlink="http://www.w3.org/1999/xlink" xmlns:h5="http://www.w3.org/1999/xhtml"><path fill="#ffffff" fill-rule="nonzero" d="M 0 0v 294.803149606h 215.433070866v -294.803149606Z "/><g transform="translate(8.503937008 8.503937008)"><path fill="none" stroke="#0074d9" stroke-width="0.4" stroke-linecap="butt" stroke-linejoin="miter" stroke-miterlimit="4" transform="translate(59.527559055)" d="M 0 0m 0 277.795275591v -277.795275591"/><path fill="none" stroke="#2ecc40" stroke-width="0.4" stroke-linecap="butt" stroke-linejoin="miter" stroke-miterlimit="4" transform="translate(99.212598425)" d="M 0 0m 0 277.795275591v -277.795275591"/><path fill="none" stroke="#0074d9" stroke-width="0.4" stroke-linecap="butt" stroke-linejoin="miter" stroke-miterlimit="4" transform="translate(0 168.661417323)" d="M 0 0m 29.763779528 0c -16.423177323 0 -29.763779528 13.340602205 -29.763779528 29.763779528c 0 16.423177323 13.340602205 29.763779528 29.763779528 29.763779528c 16.423177323 0 29.763779528 -13.340602205 29.763779528 -29.763779528c 0 -16.423177323 -13.340602205 -29.763779528 -29.763779528 -29.763779528Z "/><path fill="none" stroke="#2ecc40" stroke-width="0.4" stroke-linecap="butt" stroke-linejoin="miter" stroke-miterlimit="4" transform="translate(0 180.566929134)" d="M 0 0m 17.858267717 0c -9.853906394 0 -17.858267717 8.004361323 -17.858267717 17.858267717c 0 9.853906394 8.004361323 17.858267717 17.858267717 17.858267717c 9.853906394 0 17.858267717 -8.004361323 17.858267717 -17.858267717c 0 -9.853906394 -8.004361323 -17.858267717 -17.858267717 -17.858267717Z "/><path fill="none" stroke="#ff4136" stroke-width="0.4" stroke-linecap="butt" stroke-linejoin="miter" stroke-miterlimit="4" transform="translate(35.716535433 186.519685039)" d="M 0 0m 11.905511811 0c -6.569270929 0 -11.905511811 5.336240882 -11.905511811 11.905511811c 0 6.569270929 5.336240882 11.905511811 11.905511811 11.905511811c 6.569270929 0 11.905511811 -5.336240882 11.905511811 -11.905511811c 0 -6.569270929 -5.336240882 -11.905511811 -11.905511811 -11.905511811Z "/><path fill="none" stroke="#ff4136" stroke-width="0.4" stroke-linecap="butt" stroke-linejoin="miter" stroke-miterlimit="4" transform="translate(59.527559055 178.582677165)" d="M 0 0m 19.842519685 0c -10.948784882 0 -19.842519685 8.893734803 -19.842519685 19.842519685c 0 10.948784882 8.893734803 19.842519685 19.842519685 19.842519685c 10.948784882 0 19.842519685 -8.893734803 19.842519685 -19.842519685c 0 -10.948784882 -8.893734803 -19.842519685 -19.842519685 -19.842519685Z "/><path fill="none" stroke="#2ecc40" stroke-width="0.4" stroke-linecap="butt" stroke-linejoin="miter" stroke-miterlimit="4" transform="translate(35.716535433 198.42519685)" d="M 0 0m 63.496062992 0h -63.496062992"/><path fill="none" stroke="#ff4136" stroke-width="0.4" stroke-linecap="butt" stroke-linejoin="miter" stroke-miterlimit="4" transform="translate(28.197264816 170.227932035)" d="M 0 0m 9.399088272 0c -5.186266523 0 -9.399088272 4.212821749 -9.399088272 9.399088272c 0 5.186266523 4.212821749 9.399088272 9.399088272 9.399088272c 5.186266523 0 9.399088272 -4.212821749 9.399088272 -9.399088272c 0 -5.186266523 -4.212821749 -9.399088272 -9.399088272 -9.399088272Z "/><path fill="none" stroke="#ff4136" stroke-width="0.4" stroke-linecap="butt" stroke-linejoin="miter" stroke-miterlimit="4" transform="translate(59.527559055 138.897637795)" d="M 0 0m 19.842519685 0c -10.948784882 0 -19.842519685 8.893734803 -19.842519685 19.842519685c 0 10.948784882 8.893734803 19.842519685 19.842519685 19.842519685c 10.948784882 0 19.842519685 -8.893734803 19.842519685 -19.842519685c 0 -10.948784882 -8.893734803 -19.842519685 -19.842519685 -19.842519685Z "/><path fill="none" stroke="#2ecc40" stroke-width="0.4" stroke-linecap="butt" stroke-linejoin="miter" stroke-miterlimit="4" transform="translate(30.790116753 158.74015748)" d="M 0 0m 68.422481673 0l -68.422481673 27.368992669"/><path fill="none" stroke="#0074d9" stroke-width="0.4" stroke-linecap="butt" stroke-linejoin="miter" stroke-miterlimit="4" transform="translate(41.211387038 158.74015748)" d="M 0 0m 18.316172017 0l -18.316172017 12.210781345"/><path fill="none" stroke="#ff4136" stroke-width="0.4" stroke-linecap="butt" stroke-linejoin="miter" stroke-miterlimit="4" transform="translate(17.282194564 169.621539243)" d="M 0 0m 5.760731521 0c -3.178679482 0 -5.760731521 2.58205204 -5.760731521 5.760731521c 0 3.178679482 2.58205204 5.760731521 5.760731521 5.760731521c 3.178679482 0 5.760731521 -2.58205204 5.760731521 -5.760731521c 0 -3.178679482 -2.58205204 -5.760731521 -5.760731521 -5.760731521Z "/><path fill="none" stroke="#ff4136" stroke-width="0.4" stroke-linecap="butt" stroke-linejoin="miter" stroke-miterlimit="4" transform="translate(59.527559055 99.212598425)" d="M 0 0m 19.842519685 0c -10.948784882 0 -19.842519685 8.893734803 -19.842519685 19.842519685c 0 10.948784882 8.893734803 19.842519685 19.842519685 19.842519685c 10.948784882 0 19.842519685 -8.893734803 19.842519685 -19.842519685c 0 -10.948784882 -8.893734803 -19.842519685 -19.842519685 -19.842519685Z "/><path fill="none" stroke="#2ecc40" stroke-width="0.4" stroke-linecap="butt" stroke-linejoin="miter" stroke-miterlimit="4" transform="translate(21.778375264 119.05511811)" d="M 0 0m 77.434223161 0l -77.434223161 61.947378529"/><path fill="none" stroke="#0074d9" stroke-width="0.4" stroke-linecap="butt" stroke-linejoin="miter" stroke-miterlimit="4" transform="translate(21.42992126 119.05511811)" d="M 0 0m 38.097637795 0l -38.097637795 50.796850394"/><path fill="none" stroke="#ff4136" stroke-width="0.4" stroke-linecap="butt" stroke-linejoin="miter" stroke-miterlimit="4" transform="translate(10.504863363 173.913849004)" d="M 0 0m 3.501621121 0c -1.932138509 0 -3.501621121 1.569482612 -3.501621121 3.501621121c 0 1.932138509 1.569482612 3.501621121 3.501621121 3.501621121c 1.932138509 0 3.501621121 -1.569482612 3.501621121 -3.501621121c 0 -1.932138509 -1.569482612 -3.501621121 -3.501621121 -3.501621121Z "/><path fill="none" stroke="#ff4136" stroke-width="0.4" stroke-linecap="butt" stroke-linejoin="miter" stroke-miterlimit="4" transform="translate(59.527559055 59.527559055)" d="M 0 0m 19.842519685 0c -10.948784882 0 -19.842519685 8.893734803 -19.842519685 19.842519685c 0 10.948784882 8.893734803 19.842519685 19.842519685 19.842519685c 10.948784882 0 19.842519685 -8.893734803 19.842519685 -19.842519685c 0 -10.948784882 -8.893734803 -19.842519685 -19.842519685 -19.842519685Z "/><path fill="none" stroke="#2ecc40" stroke-width="0.4" stroke-linecap="butt" stroke-linejoin="miter" stroke-miterlimit="4" transform="translate(14.637924358 79.37007874)" d="M 0 0m 84.574674067 0l -84.574674067 101.489608881"/><path fill="none" stroke="#0074d9" stroke-width="0.4" stroke-linecap="butt" stroke-linejoin="miter" stroke-miterlimit="4" transform="translate(11.905511811 79.37007874)" d="M 0 0m 47.622047244 0l -47.622047244 95.244094488"/><path fill="none" stroke="#ff4136" stroke-width="0.4" stroke-linecap="butt" stroke-linejoin="miter" stroke-miterlimit="4" transform="translate(6.781620652 178.080334895)" d="M 0 0m 2.260540217 0c -1.247329923 0 -2.260540217 1.013210294 -2.260540217 2.260540217c 0 1.247329923 1.013210294 2.260540217 2.260540217 2.260540217c 1.247329923 0 2.260540217 -1.013210294 2.260540217 -2.260540217c 0 -1.247329923 -1.013210294 -2.260540217 -2.260540217 -2.260540217Z "/><path fill="none" stroke="#ff4136" stroke-width="0.4" stroke-linecap="butt" stroke-linejoin="miter" stroke-miterlimit="4" transform="translate(4.658678535 181.343375556)" d="M 0 0m 1.552892845 0c -0.856861426 0 -1.552892845 0.696031419 -1.552892845 1.552892845c 0 0.856861426 0.696031419 1.552892845 1.552892845 1.552892845c 0.856861426 0 1.552892845 -0.696031419 1.552892845 -1.552892845c 0 -0.856861426 -0.696031419 -1.552892845 -1.552892845 -1.552892845Z "/><path fill="none" stroke="#ff4136" stroke-width="0.4" stroke-linecap="butt" stroke-linejoin="miter" stroke-miterlimit="4" transform="translate(3.369484475 183.82409746)" d="M 0 0m 1.123161492 0c -0.61974254 0 -1.123161492 0.503418951 -1.123161492 1.123161492c 0 0.61974254 0.503418951 1.123161492 1.123161492 1.123161492c 0.61974254 0 1.123161492 -0.503418951 1.123161492 -1.123161492c 0 -0.61974254 -0.503418951 -1.123161492 -1.123161492 -1.123161492Z "/></g></svg>