<svg viewBox="0 0 243.779527559 237.737083918" width="243.779527559pt" height="237.737083918pt" xmlns="http://www.w3.org/2000/svg" xmlns:xlink="http://www.w3.org/1999/xlink" xmlns:h5="http://www.w3.org/1999/xhtml"><path fill="#ffffff" fill-rule="nonzero" d="M 0 0v 237.737083918h 243.779527559v -237.737083918Z "/><g transform="translate(8.503937008 8.503937008)"><path fill="none" stroke="#000000" stroke-width="1" stroke-linecap="butt" stroke-linejoin="miter" stroke-miterlimit="4" transform="translate(104.881889764 161.57480315)" d="M 0 0m 0 8.503937008v -8.503937008h 8.503937008"/><path fill="none" stroke="#000000" stroke-width="1" stroke-linecap="butt" stroke-linejoin="miter" stroke-miterlimit="4" transform="translate(141.852200991 104.089286078)" d="M 0 0m 11.8433843 2.090008994l -6.966696647 4.876687653l -4.876687653 -6.966696647"/><path fill="none" stroke="#000000" stroke-width="1" stroke-linecap="butt" stroke-linejoin="miter" stroke-miterlimit="4" transform="translate(67.582603804 91.606445935)" d="M 0 0l 7.60615249 3.803076245l -3.803076245 7.60615249"/><path fill="none" stroke="#000000" stroke-width="1.5" stroke-linecap="butt" stroke-linejoin="miter" stroke-miterlimit="4" transform="translate(28.346456693 28.346456693)" d="M 0 0m 0 141.732283465h 170.078740157l -99.212598425 -141.732283465l -70.866141732 141.732283465"/><path fill="none" stroke="#0074d9" stroke-width="0.8" stroke-linecap="butt" stroke-linejoin="miter" stroke-miterlimit="4" transform="translate(113.385826772)" d="M 0 0v 198.42519685"/><path fill="none" stroke="#ff4136" stroke-width="0.8" stroke-linecap="butt" stroke-linejoin="miter" stroke-miterlimit="4" transform="translate(7.086614173 44.645669291)" d="M 0 0m 0 153.779527559l 219.68503937 -153.779527559"/><path fill="none" stroke="#2ecc40" stroke-width="0.8" stroke-linecap="butt" stroke-linejoin="miter" stroke-miterlimit="4" transform="translate(0 67.322834646)" d="M 0 0m 205.511811024 102.755905512l -205.511811024 -102.755905512"/><path fill="none" stroke="#b10dc9" stroke-width="1.2" stroke-linecap="butt" stroke-linejoin="miter" stroke-miterlimit="4" transform="translate(16.672364901 27.302286161)" d="M 0 0m 96.713461871 0c -53.364940845 0 -96.713461871 43.348521026 -96.713461871 96.713461871c 0 53.364940845 43.348521026 96.713461871 96.713461871 96.713461871c 53.364940845 0 96.713461871 -43.348521026 96.713461871 -96.713461871c 0 -53.364940845 -43.348521026 -96.713461871 -96.713461871 -96.713461871Z "/><path fill="none" stroke="#aaaaaa" stroke-width="0.4" stroke-linecap="butt" stroke-linejoin="miter" stroke-miterlimit="4" transform="translate(28.346456693 124.015748031)" d="M 0 0m 85.039370079 0l -85.039370079 46.062992126"/><path fill="none" stroke="#aaaaaa" stroke-width="0.4" stroke-linecap="butt" stroke-linejoin="miter" stroke-miterlimit="4" transform="translate(113.385826772 124.015748031)" d="M 0 0l 85.039370079 46.062992126"/><path fill="none" stroke="#aaaaaa" stroke-width="0.4" stroke-linecap="butt" stroke-linejoin="miter" stroke-miterlimit="4" transform="translate(99.212598425 28.346456693)" d="M 0 0m 14.173228346 95.669291339l -14.173228346 -95.669291339"/><path fill="#000000" fill-rule="nonzero" transform="translate(26.078740157 167.811023622)" d="M 0 0m 2.267716535 0c -1.251289701 0 -2.267716535 1.016426835 -2.267716535 2.267716535c 0 1.251289701 1.016426835 2.267716535 2.267716535 2.267716535c 1.251289701 0 2.267716535 -1.016426835 2.267716535 -2.267716535c 0 -1.251289701 -1.016426835 -2.267716535 -2.267716535 -2.267716535Z "/><path fill="#000000" fill-rule="nonzero" transform="translate(196.157480315 167.811023622)" d="M 0 0m 2.267716535 0c -1.251289701 0 -2.267716535 1.016426835 -2.267716535 2.267716535c 0 1.251289701 1.016426835 2.267716535 2.267716535 2.267716535c 1.251289701 0 2.267716535 -1.016426835 2.267716535 -2.267716535c 0 -1.251289701 -1.016426835 -2.267716535 -2.267716535 -2.267716535Z "/><path fill="#000000" fill-rule="nonzero" transform="translate(96.94488189 26.078740157)" d="M 0 0m 2.267716535 0c -1.251289701 0 -2.267716535 1.016426835 -2.267716535 2.267716535c 0 1.251289701 1.016426835 2.267716535 2.267716535 2.267716535c 1.251289701 0 2.267716535 -1.016426835 2.267716535 -2.267716535c 0 -1.251289701 -1.016426835 -2.267716535 -2.267716535 -2.267716535Z "/><path fill="#000000" fill-rule="nonzero" transform="translate(111.118110236 121.748031496)" d="M 0 0m 2.267716535 0c -1.251289701 0 -2.267716535 1.016426835 -2.267716535 2.267716535c 0 1.251289701 1.016426835 2.267716535 2.267716535 2.267716535c 1.251289701 0 2.267716535 -1.016426835 2.267716535 -2.267716535c 0 -1.251289701 -1.016426835 -2.267716535 -2.267716535 -2.267716535Z "/><path fill="#000000" fill-rule="nonzero" transform="translate(111.118110236 167.811023622)" d="M 0 0m 2.267716535 0c -1.251289701 0 -2.267716535 1.016426835 -2.267716535 2.267716535c 0 1.251289701 1.016426835 2.267716535 2.267716535 2.267716535c 1.251289701 0 2.267716535 -1.016426835 2.267716535 -2.267716535c 0 -1.251289701 -1.016426835 -2.267716535 -2.267716535 -2.267716535Z "/><path fill="#000000" fill-rule="nonzero" transform="translate(146.551181102 96.94488189)" d="M 0 0m 2.267716535 0c -1.251289701 0 -2.267716535 1.016426835 -2.267716535 2.267716535c 0 1.251289701 1.016426835 2.267716535 2.267716535 2.267716535c 1.251289701 0 2.267716535 -1.016426835 2.267716535 -2.267716535c 0 -1.251289701 -1.016426835 -2.267716535 -2.267716535 -2.267716535Z "/><path fill="#000000" fill-rule="nonzero" transform="translate(61.511811024 96.94488189)" d="M 0 0m 2.267716535 0c -1.251289701 0 -2.267716535 1.016426835 -2.267716535 2.267716535c 0 1.251289701 1.016426835 2.267716535 2.267716535 2.267716535c 1.251289701 0 2.267716535 -1.016426835 2.267716535 -2.267716535c 0 -1.251289701 -1.016426835 -2.267716535 -2.267716535 -2.267716535Z "/><path fill="none" transform="translate(8.571456693 162.449190157)" d="M 0 0h 15.775v 15.2591h -15.775v -15.2591Z "/><g transform="translate(8.571456614 162.449190142)"><g transform="matrix(1 0 0 -1 5 10.2591)"><use xlink:href="#g541F81E05891D12A66EDBCE1491D4BDF" x="0" y="0" fill="#000000" fill-rule="nonzero"/></g></g><path fill="none" transform="translate(201.253623975 172.907167282)" d="M 0 0h 16.0368v 15.2591h -16.0368v -15.2591Z "/><g transform="translate(201.253623928 172.907167266)"><g transform="matrix(1 0 0 -1 5 10.2591)"><use xlink:href="#g7D38DDCC0AC339613198229876DF969C" x="0" y="0" fill="#000000" fill-rule="nonzero"/></g></g><path fill="none" transform="translate(91.178798425 8.917956693)" d="M 0 0h 16.0676v 15.4285h -16.0676v -15.4285Z "/><g transform="translate(91.178798315 8.917956614)"><g transform="matrix(1 0 0 -1 5 10.2591)"><use xlink:href="#g515717E9E1F801038097A74580DAADE1" x="0" y="0" fill="#000000" fill-rule="nonzero"/></g></g><path fill="none" transform="translate(125.385826772 116.301498031)" d="M 0 0h 15.9136v 15.4285h -15.9136v -15.4285Z "/><g transform="translate(125.385826693 116.301497953)"><g transform="matrix(1 0 0 -1 5 10.2591)"><use xlink:href="#g974B0ED84B7B2091D6FDFEC1D9459835" x="0" y="0" fill="#000000" fill-rule="nonzero"/></g></g><path fill="none" transform="translate(87.647026772 170.078740157)" d="M 0 0h 25.7388v 15.3438h -25.7388v -15.3438Z "/><g transform="translate(87.647026724 170.07874011)"><g transform="matrix(1 0 0 -1 5 10.2591)"><use xlink:href="#gD0BA93D0F566120F8E82E57305EC7665" x="0" y="0" fill="#000000" fill-rule="nonzero"/></g><g transform="matrix(1 0 0 -1 13.2544 10.2591)"><use xlink:href="#g972305A90F1E1828C8BB1B9DC8431789" x="0" y="0" fill="#000000" fill-rule="nonzero"/></g><g transform="matrix(1 0 0 -1 17.3277 10.2591)"><use xlink:href="#g1B7456FBFE79FBA91D8228BE619EAC63" x="0" y="0" fill="#000000" fill-rule="nonzero"/></g></g><path fill="none" transform="translate(136.222847638 67.868798425)" d="M 0 0h 25.1921v 15.3438h -25.1921v -15.3438Z "/><g transform="translate(136.222847575 67.868798378)"><g transform="matrix(1 0 0 -1 5 10.2591)"><use xlink:href="#gD0BA93D0F566120F8E82E57305EC7665" x="0" y="0" fill="#000000" fill-rule="nonzero"/></g><g transform="matrix(1 0 0 -1 13.2544 10.2591)"><use xlink:href="#g1B7456FBFE79FBA91D8228BE619EAC63" x="0" y="0" fill="#000000" fill-rule="nonzero"/></g><g transform="matrix(1 0 0 -1 16.6655 10.2591)"><use xlink:href="#g8815C6D2FA722CE7EC66298F9BE074C8" x="0" y="0" fill="#000000" fill-rule="nonzero"/></g></g><path fill="none" transform="translate(25.925227559 91.540698425)" d="M 0 0h 25.8543v 15.3438h -25.8543v -15.3438Z "/><g transform="translate(25.925227559 91.540698378)"><g transform="matrix(1 0 0 -1 5 10.2591)"><use xlink:href="#gD0BA93D0F566120F8E82E57305EC7665" x="0" y="0" fill="#000000" fill-rule="nonzero"/></g><g transform="matrix(1 0 0 -1 13.2544 10.2591)"><use xlink:href="#g8815C6D2FA722CE7EC66298F9BE074C8" x="0" y="0" fill="#000000" fill-rule="nonzero"/></g><g transform="matrix(1 0 0 -1 16.781 10.2591)"><use xlink:href="#g972305A90F1E1828C8BB1B9DC8431789" x="0" y="0" fill="#000000" fill-rule="nonzero"/></g></g></g><defs><symbol id="g541F81E05891D12A66EDBCE1491D4BDF" overflow="visible"><path d="M 0 0m 1.0549 0.0231c 0.1386 0 0.616 -0.0231 0.7623 -0.0231c 0.1155 0 0.1694 0.0616 0.1694 0.1771c 0 0.0693 -0.0462 0.1155 -0.1463 0.1232c -0.2233 0.0077 -0.3311 0.0847 -0.3311 0.231c 0 0.0693 0.0693 0.2233 0.2156 0.4543c 0.2079 0.3465 0.3542 0.6006 0.4543 0.77h 1.8711c 0 -0.0539 0.0077 -0.1617 0.0308 -0.3311c 0.0539 -0.5621 0.0847 -0.8701 0.0847 -0.9086c 0 -0.1463 -0.1694 -0.2156 -0.5159 -0.2156c -0.1463 0 -0.2156 -0.0616 -0.2156 -0.1848c 0 -0.077 0.0462 -0.1155 0.1386 -0.1155c 0.1848 0 0.77 0.0231 0.9548 0.0231c 0.154 0 0.7007 -0.0231 0.8547 -0.0231c 0.1155 0 0.1694 0.0616 0.1694 0.1848c 0 0.077 -0.0693 0.1155 -0.2079 0.1155c -0.2156 0 -0.3465 0.0154 -0.385 0.0385c -0.0385 0.0231 -0.0693 0.0924 -0.077 0.2079l -0.462 4.7586c -0.0231 0.1463 -0.0154 0.2079 -0.1771 0.2079c -0.0924 0 -0.1694 -0.0462 -0.2233 -0.1463l -2.6488 -4.4429c -0.231 -0.385 -0.539 -0.5929 -0.9163 -0.6237c -0.1232 -0.0077 -0.1848 -0.0693 -0.1848 -0.1848c 0 -0.077 0.0462 -0.1155 0.1309 -0.1155c 0.1232 0 0.5313 0.0231 0.6545 0.0231Z m 2.7335 4.4198l 0.231 -2.387h -1.6555Z "/></symbol><symbol id="g7D38DDCC0AC339613198229876DF969C" overflow="visible"><path d="M 0 0m 5.8212 4.1811c 0 0.7007 -0.693 1.078 -1.4476 1.078h -2.5564c -0.1771 0 -0.2541 -0.0077 -0.2541 -0.1848c 0 -0.1232 0.154 -0.1155 0.2464 -0.1155c 0.231 -0.0077 0.3696 -0.0231 0.4081 -0.0308c 0.0385 -0.0077 0.0539 -0.0308 0.0539 -0.0693c 0 -0.0154 -0.0077 -0.0616 -0.0308 -0.1386l -1.0164 -4.0887c -0.0385 -0.1694 -0.1155 -0.2695 -0.231 -0.308c -0.0539 -0.0154 -0.1925 -0.0231 -0.4312 -0.0231c -0.1617 0 -0.2387 -0.0616 -0.2387 -0.1848c 0 -0.077 0.077 -0.1155 0.2387 -0.1155h 2.7181c 0.5005 0 0.9625 0.154 1.4014 0.4543c 0.4851 0.3311 0.7315 0.7392 0.7315 1.2166c 0 0.6083 -0.5005 0.9779 -1.0472 1.0857c 0.6776 0.1617 1.4553 0.6776 1.4553 1.4245Z m -1.5554 0.7777c 0.5313 0 0.8008 -0.2464 0.8008 -0.7469c 0 -0.3927 -0.154 -0.7161 -0.4774 -0.9779c -0.3234 -0.2618 -0.6853 -0.385 -1.078 -0.385h -1.0703l 0.462 1.848c 0.0616 0.2618 0.0616 0.2618 0.385 0.2618Z m 0.2156 -2.6565c 0.1078 -0.1771 0.1617 -0.3542 0.1617 -0.5467c 0 -0.4004 -0.154 -0.7469 -0.4697 -1.0318c -0.3157 -0.2849 -0.6699 -0.4235 -1.078 -0.4235h -1.0395c -0.077 0 -0.1309 0 -0.1617 0.0077c -0.0462 0 -0.0693 0.0154 -0.0693 0.0385c 0 0.0077 0 0.0308 0.0077 0.0616c 0.2387 0.9779 0.4235 1.7171 0.5467 2.2099h 1.4168c 0.3311 0 0.5544 -0.1078 0.6853 -0.3157Z "/></symbol><symbol id="g515717E9E1F801038097A74580DAADE1" overflow="visible"><path d="M 0 0m 1.1396 1.6786c 0 0.9856 0.4312 1.9866 0.9163 2.541c 0.3927 0.4543 1.0703 0.9086 1.8326 0.9086c 0.8008 0 1.1935 -0.6083 1.1935 -1.4399c 0 -0.0693 -0.0231 -0.3157 -0.0231 -0.385c 0 -0.0693 0.0462 -0.1078 0.1463 -0.1078c 0.0385 0 0.0693 0.0077 0.0924 0.0154c 0.0385 0.0539 0.0616 0.1078 0.077 0.1617l 0.4774 1.9481c 0 0.0693 -0.0385 0.1078 -0.1155 0.1078c -0.0308 0 -0.077 -0.0308 -0.1386 -0.1001l -0.5005 -0.5621c -0.3003 0.4389 -0.7238 0.6622 -1.2705 0.6622c -0.4235 0 -0.8393 -0.1001 -1.2628 -0.2926c -0.8547 -0.4004 -1.4784 -1.0318 -1.8788 -1.8942c -0.2002 -0.4235 -0.3003 -0.8547 -0.3003 -1.2936c 0 -0.616 0.1925 -1.1165 0.5852 -1.5169c 0.3927 -0.4004 0.8932 -0.6006 1.5092 -0.6006c 0.6083 0 1.1627 0.2233 1.6632 0.6622c 0.2079 0.1771 0.385 0.3927 0.5313 0.6314c 0.2079 0.3465 0.3157 0.5852 0.3157 0.7315c 0 0.0693 -0.0385 0.1078 -0.1232 0.1078c -0.0693 0 -0.1078 -0.0308 -0.1232 -0.1001c -0.1617 -0.5005 -0.4158 -0.9009 -0.7623 -1.1858c -0.4389 -0.3619 -0.9009 -0.5467 -1.3783 -0.5467c -0.924 0 -1.463 0.6237 -1.463 1.5477Z "/></symbol><symbol id="g974B0ED84B7B2091D6FDFEC1D9459835" overflow="visible"><path d="M 0 0m 5.4054 2.0251c 0.1925 0.4389 0.2926 0.8778 0.2926 1.3244c 0 0.6006 -0.1771 1.0934 -0.539 1.4861c -0.3619 0.3927 -0.8393 0.5929 -1.4322 0.5929c -0.4081 0 -0.8162 -0.1001 -1.2243 -0.3003c -0.8316 -0.4081 -1.4399 -1.0549 -1.8326 -1.9327c -0.1925 -0.4312 -0.2926 -0.8624 -0.2926 -1.3013c 0 -0.6083 0.1771 -1.1011 0.539 -1.4861c 0.3619 -0.385 0.8393 -0.5775 1.4399 -0.5775c 0.4004 0 0.8008 0.1001 1.2089 0.2926c 0.8393 0.4081 1.4476 1.0472 1.8403 1.9019Z m -0.4466 1.6247c 0 -1.0241 -0.462 -2.0482 -0.9548 -2.6565c -0.3388 -0.4235 -0.924 -0.9009 -1.6016 -0.9009c -0.8239 0 -1.2551 0.7161 -1.2551 1.5862c 0 0.2695 0.0539 0.6314 0.154 1.0703c 0.2079 0.9086 0.7315 1.7094 1.4168 2.1252c 0.3311 0.2002 0.6545 0.3003 0.9625 0.3003c 0.8316 0 1.2782 -0.6622 1.2782 -1.5246Z "/></symbol><symbol id="gD0BA93D0F566120F8E82E57305EC7665" overflow="visible"><path d="M 0 0m 4.5738 0.1232c 0 -0.0847 0.0462 -0.1232 0.1463 -0.1232l 0.9471 0.0231c 0.1771 0.0077 0.8008 -0.0231 0.9471 -0.0231c 0.1155 0 0.1771 0.0616 0.1771 0.1848c 0 0.077 -0.077 0.1155 -0.2387 0.1155c -0.3157 0 -0.4697 0.0308 -0.4697 0.1001c 0 0.0231 0.0154 0.077 0.0385 0.1771l 1.0164 4.0579c 0.0385 0.1617 0.1155 0.2618 0.2156 0.3003c 0.0462 0.0154 0.1848 0.0231 0.4081 0.0231c 0.1925 0 0.2772 0.0077 0.2772 0.1848c 0 0.077 -0.077 0.1155 -0.2387 0.1155h -1.0087c -0.2233 0 -0.2233 -0.0154 -0.3234 -0.1617l -2.7412 -4.2658l -0.5852 4.2273c -0.0308 0.1925 -0.0462 0.2002 -0.2695 0.2002h -1.0472c -0.1694 0 -0.2541 -0.0077 -0.2541 -0.1771c 0 -0.0847 0.0847 -0.1232 0.2464 -0.1232c 0.154 0 0.4697 0.0231 0.4697 -0.1001c 0 -0.0154 -0.0077 -0.0616 -0.0308 -0.1386l -0.9702 -3.8731c -0.0693 -0.2926 -0.2464 -0.4697 -0.5159 -0.5236c -0.1925 -0.0231 -0.4466 0.0077 -0.4466 -0.2002c 0 -0.0847 0.0462 -0.1232 0.1386 -0.1232c 0.1386 0 0.6237 0.0231 0.7623 0.0231c 0.1463 0 0.6391 -0.0231 0.7854 -0.0231c 0.1155 0 0.1694 0.0616 0.1694 0.1848c 0 0.0693 -0.0539 0.1078 -0.1694 0.1155c -0.3234 0 -0.4851 0.1001 -0.4851 0.3003c 0 0.0308 0.0077 0.0847 0.0308 0.1694l 1.001 4.0117l 0.6391 -4.5815c 0.0231 -0.1309 0.0693 -0.2002 0.1463 -0.2002c 0.0616 0 0.1232 0.0539 0.1925 0.154l 2.9953 4.6739l -1.0472 -4.1965c -0.0462 -0.1694 -0.1232 -0.2695 -0.2387 -0.308c -0.0462 -0.0154 -0.1925 -0.0231 -0.4312 -0.0231c -0.1617 0 -0.2387 -0.0154 -0.2387 -0.1771Z "/></symbol><symbol id="g972305A90F1E1828C8BB1B9DC8431789" overflow="visible"><path d="M 0 0m 3.8346 1.1088c 0 0.0693 -0.0385 0.1078 -0.1232 0.1078c -0.0616 0 -0.1078 -0.0539 -0.1309 -0.1617c -0.154 -0.6083 -0.3388 -0.9163 -0.5467 -0.9163c -0.1309 0 -0.2002 0.1078 -0.2002 0.3234c 0 0.1001 0.0308 0.2849 0.1001 0.5544l 0.4389 1.7325c 0.0385 0.1463 0.0539 0.231 0.0539 0.2695c 0 0.154 -0.0847 0.231 -0.2541 0.231c -0.1617 0 -0.2695 -0.0924 -0.3234 -0.2695c -0.1617 0.2849 -0.3927 0.4235 -0.6853 0.4235c -0.5005 0 -0.9394 -0.2541 -1.3244 -0.7623c -0.3542 -0.4774 -0.5313 -0.9702 -0.5313 -1.4861c 0 -0.6699 0.3927 -1.2397 1.0395 -1.2397c 0.3311 0 0.6545 0.1771 0.9625 0.5313c 0.0847 -0.2926 0.3465 -0.5313 0.7084 -0.5313c 0.5313 0 0.693 0.6237 0.8162 1.1935Z m -1.2089 1.771c 0.0693 -0.1617 0.1078 -0.2695 0.1078 -0.3388c 0 -0.0308 -0.0077 -0.0693 -0.0154 -0.1232l -0.3773 -1.4784c -0.0231 -0.0847 -0.077 -0.1771 -0.1463 -0.2695c -0.2849 -0.3542 -0.5621 -0.5313 -0.8316 -0.5313c -0.3003 0 -0.4543 0.231 -0.4543 0.6853c 0 0.1848 0.0462 0.462 0.1386 0.8316c 0.1617 0.6545 0.3927 1.0934 0.6776 1.3321c 0.154 0.1309 0.3003 0.1925 0.4466 0.1925c 0.2079 0 0.3619 -0.1001 0.4543 -0.3003Z "/></symbol><symbol id="g1B7456FBFE79FBA91D8228BE619EAC63" overflow="visible"><path d="M 0 0m 2.1637 3.4265c -0.2772 0 -0.5544 -0.1309 -0.8239 -0.3927l 0.5313 2.1945c -0.0154 0.0693 -0.0385 0.1155 -0.1309 0.1155c -0.2541 0 -0.8162 -0.0693 -0.9163 -0.077c -0.1155 -0.0154 -0.1771 -0.0693 -0.1771 -0.1848c 0 -0.077 0.0693 -0.1155 0.2156 -0.1155c 0.1463 0 0.3465 0.0077 0.3465 -0.1001c 0 -0.0308 -0.0385 -0.1848 -0.1078 -0.4697l -0.616 -2.4794c -0.0847 -0.3234 -0.1232 -0.5852 -0.1232 -0.7777c 0 -0.6622 0.3542 -1.2243 0.9856 -1.2243c 0.5005 0 0.9394 0.2541 1.3244 0.77c 0.3465 0.4774 0.5236 0.9779 0.5236 1.4938c 0 0.6699 -0.3927 1.2474 -1.0318 1.2474Z m -0.0154 -0.231c 0.3003 0 0.4466 -0.231 0.4466 -0.6853c 0 -0.2079 -0.0462 -0.4851 -0.1386 -0.8316c -0.1694 -0.6545 -0.3927 -1.1011 -0.6622 -1.3398c -0.154 -0.1309 -0.3003 -0.1925 -0.4466 -0.1925c -0.3157 0 -0.4697 0.2464 -0.4697 0.7392c 0 0.1694 0.0385 0.4235 0.1155 0.7623l 0.1694 0.693c 0.0231 0.1155 0.0616 0.2002 0.1078 0.2618c 0.3003 0.3927 0.5929 0.5929 0.8778 0.5929Z "/></symbol><symbol id="g8815C6D2FA722CE7EC66298F9BE074C8" overflow="visible"><path d="M 0 0m 2.5256 2.5025c 0 -0.1925 0.1001 -0.2926 0.308 -0.2926c 0.2772 0 0.4543 0.2387 0.4543 0.5159c 0 0.4312 -0.4543 0.6776 -0.9163 0.6776c -0.5313 0 -1.0164 -0.231 -1.4322 -0.6853c -0.4158 -0.4543 -0.6237 -0.9548 -0.6237 -1.4938c 0 -0.7546 0.5005 -1.309 1.2551 -1.309c 0.4081 0 0.77 0.1001 1.0857 0.2926c 0.2618 0.1617 0.4543 0.3234 0.5775 0.4851c 0.0539 0.0693 0.077 0.1232 0.077 0.1463c 0 0.0847 -0.0385 0.1309 -0.1232 0.1309c -0.0385 0 -0.077 -0.0308 -0.1232 -0.0924c -0.2541 -0.3388 -0.5698 -0.5544 -0.9317 -0.6468c -0.2387 -0.0616 -0.4158 -0.0924 -0.5467 -0.0924c -0.4389 0 -0.6545 0.2695 -0.6545 0.8008c 0 0.4774 0.2233 1.1704 0.4081 1.5015c 0.1848 0.3388 0.5775 0.7392 1.0318 0.7392c 0.2926 0 0.4928 -0.0847 0.6006 -0.2464c -0.2387 -0.0231 -0.4466 -0.1771 -0.4466 -0.4312Z "/></symbol></defs></svg>