<svg viewBox="0 0 224.353488189 215.234477791" width="224.353488189pt" height="215.234477791pt" xmlns="http://www.w3.org/2000/svg" xmlns:xlink="http://www.w3.org/1999/xlink" xmlns:h5="http://www.w3.org/1999/xhtml"><path fill="#ffffff" fill-rule="nonzero" d="M 0 0v 215.234477791h 224.353488189v -215.234477791Z "/><g transform="translate(14.173228346 14.173228346)"><path fill="none" stroke="#e6e6e6" stroke-width="0.3" stroke-linecap="butt" stroke-linejoin="miter" stroke-miterlimit="4" transform="translate(14.878149606 148.084646519)" d="M 0 0m 0 33.003374578v -33.003374578"/><path fill="none" stroke="#e6e6e6" stroke-width="0.3" stroke-linecap="butt" stroke-linejoin="miter" stroke-miterlimit="4" transform="translate(14.878149606 11.00928094)" d="M 0 0m 0 127.154105737v -127.154105737"/><path fill="none" stroke="#e6e6e6" stroke-width="0.3" stroke-linecap="butt" stroke-linejoin="miter" stroke-miterlimit="4" transform="translate(21.681299213 11.00928094)" d="M 0 0m 0 170.078740157v -170.078740157"/><path fill="none" stroke="#e6e6e6" stroke-width="0.3" stroke-linecap="butt" stroke-linejoin="miter" stroke-miterlimit="4" transform="translate(28.484448819 11.00928094)" d="M 0 0m 0 170.078740157v -170.078740157"/><path fill="none" stroke="#e6e6e6" stroke-width="0.3" stroke-linecap="butt" stroke-linejoin="miter" stroke-miterlimit="4" transform="translate(35.287598425 148.084646519)" d="M 0 0m 0 33.003374578v -33.003374578"/><path fill="none" stroke="#e6e6e6" stroke-width="0.3" stroke-linecap="butt" stroke-linejoin="miter" stroke-miterlimit="4" transform="translate(35.287598425 11.00928094)" d="M 0 0m 0 127.154105737v -127.154105737"/><path fill="none" stroke="#e6e6e6" stroke-width="0.3" stroke-linecap="butt" stroke-linejoin="miter" stroke-miterlimit="4" transform="translate(48.893897638 148.084646519)" d="M 0 0m 0 33.003374578v -33.003374578"/><path fill="none" stroke="#e6e6e6" stroke-width="0.3" stroke-linecap="butt" stroke-linejoin="miter" stroke-miterlimit="4" transform="translate(48.893897638 11.00928094)" d="M 0 0m 0 127.154105737v -127.154105737"/><path fill="none" stroke="#e6e6e6" stroke-width="0.3" stroke-linecap="butt" stroke-linejoin="miter" stroke-miterlimit="4" transform="translate(55.697047244 11.00928094)" d="M 0 0m 0 170.078740157v -170.078740157"/><path fill="none" stroke="#e6e6e6" stroke-width="0.3" stroke-linecap="butt" stroke-linejoin="miter" stroke-miterlimit="4" transform="translate(62.50019685 11.00928094)" d="M 0 0m 0 170.078740157v -170.078740157"/><path fill="none" stroke="#e6e6e6" stroke-width="0.3" stroke-linecap="butt" stroke-linejoin="miter" stroke-miterlimit="4" transform="translate(69.303346457 145.25000085)" d="M 0 0m 0 35.838020247v -35.838020247"/><path fill="none" stroke="#e6e6e6" stroke-width="0.3" stroke-linecap="butt" stroke-linejoin="miter" stroke-miterlimit="4" transform="translate(69.303346457 11.00928094)" d="M 0 0m 0 124.319460067v -124.319460067"/><path fill="none" stroke="#e6e6e6" stroke-width="0.3" stroke-linecap="butt" stroke-linejoin="miter" stroke-miterlimit="4" transform="translate(82.909645669 11.00928094)" d="M 0 0m 0 170.078740157v -170.078740157"/><path fill="none" stroke="#e6e6e6" stroke-width="0.3" stroke-linecap="butt" stroke-linejoin="miter" stroke-miterlimit="4" transform="translate(89.712795276 11.00928094)" d="M 0 0m 0 170.078740157v -170.078740157"/><path fill="none" stroke="#e6e6e6" stroke-width="0.3" stroke-linecap="butt" stroke-linejoin="miter" stroke-miterlimit="4" transform="translate(96.515944882 11.00928094)" d="M 0 0m 0 170.078740157v -170.078740157"/><path fill="none" stroke="#e6e6e6" stroke-width="0.3" stroke-linecap="butt" stroke-linejoin="miter" stroke-miterlimit="4" transform="translate(103.319094488 11.00928094)" d="M 0 0m 0 170.078740157v -170.078740157"/><path fill="none" stroke="#e6e6e6" stroke-width="0.3" stroke-linecap="butt" stroke-linejoin="miter" stroke-miterlimit="4" transform="translate(116.925393701 11.00928094)" d="M 0 0m 0 170.078740157v -170.078740157"/><path fill="none" stroke="#e6e6e6" stroke-width="0.3" stroke-linecap="butt" stroke-linejoin="miter" stroke-miterlimit="4" transform="translate(123.728543307 11.00928094)" d="M 0 0m 0 170.078740157v -170.078740157"/><path fill="none" stroke="#e6e6e6" stroke-width="0.3" stroke-linecap="butt" stroke-linejoin="miter" stroke-miterlimit="4" transform="translate(130.531692913 11.00928094)" d="M 0 0m 0 170.078740157v -170.078740157"/><path fill="none" stroke="#e6e6e6" stroke-width="0.3" stroke-linecap="butt" stroke-linejoin="miter" stroke-miterlimit="4" transform="translate(137.33484252 11.00928094)" d="M 0 0m 0 170.078740157v -170.078740157"/><path fill="none" stroke="#e6e6e6" stroke-width="0.3" stroke-linecap="butt" stroke-linejoin="miter" stroke-miterlimit="4" transform="translate(150.941141732 11.00928094)" d="M 0 0m 0 170.078740157v -170.078740157"/><path fill="none" stroke="#e6e6e6" stroke-width="0.3" stroke-linecap="butt" stroke-linejoin="miter" stroke-miterlimit="4" transform="translate(157.744291339 11.00928094)" d="M 0 0m 0 170.078740157v -170.078740157"/><path fill="none" stroke="#e6e6e6" stroke-width="0.3" stroke-linecap="butt" stroke-linejoin="miter" stroke-miterlimit="4" transform="translate(164.547440945 11.00928094)" d="M 0 0m 0 170.078740157v -170.078740157"/><path fill="none" stroke="#e6e6e6" stroke-width="0.3" stroke-linecap="butt" stroke-linejoin="miter" stroke-miterlimit="4" transform="translate(171.350590551 11.00928094)" d="M 0 0m 0 170.078740157v -170.078740157"/><path fill="none" stroke="#e6e6e6" stroke-width="0.3" stroke-linecap="butt" stroke-linejoin="miter" stroke-miterlimit="4" transform="translate(8.075 176.228628522)" d="M 0 0h 41.669291339"/><path fill="none" stroke="#e6e6e6" stroke-width="0.3" stroke-linecap="butt" stroke-linejoin="miter" stroke-miterlimit="4" transform="translate(71.004133858 176.228628522)" d="M 0 0h 107.149606299"/><path fill="none" stroke="#e6e6e6" stroke-width="0.3" stroke-linecap="butt" stroke-linejoin="miter" stroke-miterlimit="4" transform="translate(8.075 171.369235946)" d="M 0 0h 170.078740157"/><path fill="none" stroke="#e6e6e6" stroke-width="0.3" stroke-linecap="butt" stroke-linejoin="miter" stroke-miterlimit="4" transform="translate(8.075 166.50984337)" d="M 0 0h 170.078740157"/><path fill="none" stroke="#e6e6e6" stroke-width="0.3" stroke-linecap="butt" stroke-linejoin="miter" stroke-miterlimit="4" transform="translate(8.075 161.650450794)" d="M 0 0h 41.669291339"/><path fill="none" stroke="#e6e6e6" stroke-width="0.3" stroke-linecap="butt" stroke-linejoin="miter" stroke-miterlimit="4" transform="translate(71.004133858 161.650450794)" d="M 0 0h 107.149606299"/><path fill="none" stroke="#e6e6e6" stroke-width="0.3" stroke-linecap="butt" stroke-linejoin="miter" stroke-miterlimit="4" transform="translate(8.075 151.931665642)" d="M 0 0h 41.669291339"/><path fill="none" stroke="#e6e6e6" stroke-width="0.3" stroke-linecap="butt" stroke-linejoin="miter" stroke-miterlimit="4" transform="translate(71.004133858 151.931665642)" d="M 0 0h 107.149606299"/><path fill="none" stroke="#e6e6e6" stroke-width="0.3" stroke-linecap="butt" stroke-linejoin="miter" stroke-miterlimit="4" transform="translate(8.075 147.072273066)" d="M 0 0h 170.078740157"/><path fill="none" stroke="#e6e6e6" stroke-width="0.3" stroke-linecap="butt" stroke-linejoin="miter" stroke-miterlimit="4" transform="translate(8.075 142.21288049)" d="M 0 0h 56.976377953"/><path fill="none" stroke="#e6e6e6" stroke-width="0.3" stroke-linecap="butt" stroke-linejoin="miter" stroke-miterlimit="4" transform="translate(73.838779528 142.21288049)" d="M 0 0h 104.31496063"/><path fill="none" stroke="#e6e6e6" stroke-width="0.3" stroke-linecap="butt" stroke-linejoin="miter" stroke-miterlimit="4" transform="translate(8.075 137.353487914)" d="M 0 0h 56.976377953"/><path fill="none" stroke="#e6e6e6" stroke-width="0.3" stroke-linecap="butt" stroke-linejoin="miter" stroke-miterlimit="4" transform="translate(73.838779528 137.353487914)" d="M 0 0h 104.31496063"/><path fill="none" stroke="#e6e6e6" stroke-width="0.3" stroke-linecap="butt" stroke-linejoin="miter" stroke-miterlimit="4" transform="translate(8.075 127.634702762)" d="M 0 0h 170.078740157"/><path fill="none" stroke="#e6e6e6" stroke-width="0.3" stroke-linecap="butt" stroke-linejoin="miter" stroke-miterlimit="4" transform="translate(8.075 122.775310187)" d="M 0 0h 170.078740157"/><path fill="none" stroke="#e6e6e6" stroke-width="0.3" stroke-linecap="butt" stroke-linejoin="miter" stroke-miterlimit="4" transform="translate(8.075 117.915917611)" d="M 0 0h 170.078740157"/><path fill="none" stroke="#e6e6e6" stroke-width="0.3" stroke-linecap="butt" stroke-linejoin="miter" stroke-miterlimit="4" transform="translate(8.075 113.056525035)" d="M 0 0h 54.141732283"/><path fill="none" stroke="#e6e6e6" stroke-width="0.3" stroke-linecap="butt" stroke-linejoin="miter" stroke-miterlimit="4" transform="translate(71.004133858 113.056525035)" d="M 0 0h 107.149606299"/><path fill="none" stroke="#e6e6e6" stroke-width="0.3" stroke-linecap="butt" stroke-linejoin="miter" stroke-miterlimit="4" transform="translate(8.075 103.337739883)" d="M 0 0h 54.141732283"/><path fill="none" stroke="#e6e6e6" stroke-width="0.3" stroke-linecap="butt" stroke-linejoin="miter" stroke-miterlimit="4" transform="translate(71.004133858 103.337739883)" d="M 0 0h 107.149606299"/><path fill="none" stroke="#e6e6e6" stroke-width="0.3" stroke-linecap="butt" stroke-linejoin="miter" stroke-miterlimit="4" transform="translate(8.075 98.478347307)" d="M 0 0h 170.078740157"/><path fill="none" stroke="#e6e6e6" stroke-width="0.3" stroke-linecap="butt" stroke-linejoin="miter" stroke-miterlimit="4" transform="translate(8.075 93.618954731)" d="M 0 0h 170.078740157"/><path fill="none" stroke="#e6e6e6" stroke-width="0.3" stroke-linecap="butt" stroke-linejoin="miter" stroke-miterlimit="4" transform="translate(8.075 88.759562155)" d="M 0 0h 54.141732283"/><path fill="none" stroke="#e6e6e6" stroke-width="0.3" stroke-linecap="butt" stroke-linejoin="miter" stroke-miterlimit="4" transform="translate(71.004133858 88.759562155)" d="M 0 0h 107.149606299"/><path fill="none" stroke="#e6e6e6" stroke-width="0.3" stroke-linecap="butt" stroke-linejoin="miter" stroke-miterlimit="4" transform="translate(8.075 79.040777003)" d="M 0 0h 54.141732283"/><path fill="none" stroke="#e6e6e6" stroke-width="0.3" stroke-linecap="butt" stroke-linejoin="miter" stroke-miterlimit="4" transform="translate(71.004133858 79.040777003)" d="M 0 0h 107.149606299"/><path fill="none" stroke="#e6e6e6" stroke-width="0.3" stroke-linecap="butt" stroke-linejoin="miter" stroke-miterlimit="4" transform="translate(8.075 74.181384427)" d="M 0 0h 170.078740157"/><path fill="none" stroke="#e6e6e6" stroke-width="0.3" stroke-linecap="butt" stroke-linejoin="miter" stroke-miterlimit="4" transform="translate(8.075 69.321991851)" d="M 0 0h 170.078740157"/><path fill="none" stroke="#e6e6e6" stroke-width="0.3" stroke-linecap="butt" stroke-linejoin="miter" stroke-miterlimit="4" transform="translate(8.075 64.462599275)" d="M 0 0h 54.141732283"/><path fill="none" stroke="#e6e6e6" stroke-width="0.3" stroke-linecap="butt" stroke-linejoin="miter" stroke-miterlimit="4" transform="translate(71.004133858 64.462599275)" d="M 0 0h 107.149606299"/><path fill="none" stroke="#e6e6e6" stroke-width="0.3" stroke-linecap="butt" stroke-linejoin="miter" stroke-miterlimit="4" transform="translate(8.075 54.743814124)" d="M 0 0h 54.141732283"/><path fill="none" stroke="#e6e6e6" stroke-width="0.3" stroke-linecap="butt" stroke-linejoin="miter" stroke-miterlimit="4" transform="translate(71.004133858 54.743814124)" d="M 0 0h 107.149606299"/><path fill="none" stroke="#e6e6e6" stroke-width="0.3" stroke-linecap="butt" stroke-linejoin="miter" stroke-miterlimit="4" transform="translate(8.075 49.884421548)" d="M 0 0h 170.078740157"/><path fill="none" stroke="#e6e6e6" stroke-width="0.3" stroke-linecap="butt" stroke-linejoin="miter" stroke-miterlimit="4" transform="translate(8.075 45.025028972)" d="M 0 0h 170.078740157"/><path fill="none" stroke="#e6e6e6" stroke-width="0.3" stroke-linecap="butt" stroke-linejoin="miter" stroke-miterlimit="4" transform="translate(8.075 40.165636396)" d="M 0 0h 54.141732283"/><path fill="none" stroke="#e6e6e6" stroke-width="0.3" stroke-linecap="butt" stroke-linejoin="miter" stroke-miterlimit="4" transform="translate(71.004133858 40.165636396)" d="M 0 0h 107.149606299"/><path fill="none" stroke="#e6e6e6" stroke-width="0.3" stroke-linecap="butt" stroke-linejoin="miter" stroke-miterlimit="4" transform="translate(8.075 30.446851244)" d="M 0 0h 54.141732283"/><path fill="none" stroke="#e6e6e6" stroke-width="0.3" stroke-linecap="butt" stroke-linejoin="miter" stroke-miterlimit="4" transform="translate(71.004133858 30.446851244)" d="M 0 0h 107.149606299"/><path fill="none" stroke="#e6e6e6" stroke-width="0.3" stroke-linecap="butt" stroke-linejoin="miter" stroke-miterlimit="4" transform="translate(8.075 25.587458668)" d="M 0 0h 170.078740157"/><path fill="none" stroke="#e6e6e6" stroke-width="0.3" stroke-linecap="butt" stroke-linejoin="miter" stroke-miterlimit="4" transform="translate(8.075 20.728066092)" d="M 0 0h 170.078740157"/><path fill="none" stroke="#e6e6e6" stroke-width="0.3" stroke-linecap="butt" stroke-linejoin="miter" stroke-miterlimit="4" transform="translate(8.075 15.868673516)" d="M 0 0h 54.141732283"/><path fill="none" stroke="#e6e6e6" stroke-width="0.3" stroke-linecap="butt" stroke-linejoin="miter" stroke-miterlimit="4" transform="translate(71.004133858 15.868673516)" d="M 0 0h 107.149606299"/><path fill="none" stroke="#c8c8c8" stroke-width="0.5" stroke-linecap="butt" stroke-linejoin="miter" stroke-miterlimit="4" transform="translate(8.075 148.084646519)" d="M 0 0m 0 33.003374578v -33.003374578"/><path fill="none" stroke="#c8c8c8" stroke-width="0.5" stroke-linecap="butt" stroke-linejoin="miter" stroke-miterlimit="4" transform="translate(8.075 11.00928094)" d="M 0 0m 0 127.154105737v -127.154105737"/><path fill="none" stroke="#c8c8c8" stroke-width="0.5" stroke-linecap="butt" stroke-linejoin="miter" stroke-miterlimit="4" transform="translate(42.090748031 148.084646519)" d="M 0 0m 0 33.003374578v -33.003374578"/><path fill="none" stroke="#c8c8c8" stroke-width="0.5" stroke-linecap="butt" stroke-linejoin="miter" stroke-miterlimit="4" transform="translate(42.090748031 11.00928094)" d="M 0 0m 0 127.154105737v -127.154105737"/><path fill="none" stroke="#c8c8c8" stroke-width="0.5" stroke-linecap="butt" stroke-linejoin="miter" stroke-miterlimit="4" transform="translate(76.106496063 11.00928094)" d="M 0 0m 0 170.078740157v -170.078740157"/><path fill="none" stroke="#c8c8c8" stroke-width="0.5" stroke-linecap="butt" stroke-linejoin="miter" stroke-miterlimit="4" transform="translate(110.122244094 148.084646519)" d="M 0 0m 0 33.003374578v -33.003374578"/><path fill="none" stroke="#c8c8c8" stroke-width="0.5" stroke-linecap="butt" stroke-linejoin="miter" stroke-miterlimit="4" transform="translate(110.122244094 11.00928094)" d="M 0 0m 0 127.154105737v -127.154105737"/><path fill="none" stroke="#c8c8c8" stroke-width="0.5" stroke-linecap="butt" stroke-linejoin="miter" stroke-miterlimit="4" transform="translate(144.137992126 148.084646519)" d="M 0 0m 0 33.003374578v -33.003374578"/><path fill="none" stroke="#c8c8c8" stroke-width="0.5" stroke-linecap="butt" stroke-linejoin="miter" stroke-miterlimit="4" transform="translate(144.137992126 11.00928094)" d="M 0 0m 0 127.154105737v -127.154105737"/><path fill="none" stroke="#c8c8c8" stroke-width="0.5" stroke-linecap="butt" stroke-linejoin="miter" stroke-miterlimit="4" transform="translate(178.153740157 148.084646519)" d="M 0 0m 0 33.003374578v -33.003374578"/><path fill="none" stroke="#c8c8c8" stroke-width="0.5" stroke-linecap="butt" stroke-linejoin="miter" stroke-miterlimit="4" transform="translate(178.153740157 11.00928094)" d="M 0 0m 0 127.154105737v -127.154105737"/><path fill="none" stroke="#c8c8c8" stroke-width="0.5" stroke-linecap="butt" stroke-linejoin="miter" stroke-miterlimit="4" transform="translate(8.075 181.088021098)" d="M 0 0h 41.669291339"/><path fill="none" stroke="#c8c8c8" stroke-width="0.5" stroke-linecap="butt" stroke-linejoin="miter" stroke-miterlimit="4" transform="translate(71.004133858 181.088021098)" d="M 0 0h 107.149606299"/><path fill="none" stroke="#c8c8c8" stroke-width="0.5" stroke-linecap="butt" stroke-linejoin="miter" stroke-miterlimit="4" transform="translate(8.075 156.791058218)" d="M 0 0h 41.669291339"/><path fill="none" stroke="#c8c8c8" stroke-width="0.5" stroke-linecap="butt" stroke-linejoin="miter" stroke-miterlimit="4" transform="translate(71.004133858 156.791058218)" d="M 0 0h 107.149606299"/><path fill="none" stroke="#c8c8c8" stroke-width="0.5" stroke-linecap="butt" stroke-linejoin="miter" stroke-miterlimit="4" transform="translate(8.075 132.494095338)" d="M 0 0h 170.078740157"/><path fill="none" stroke="#c8c8c8" stroke-width="0.5" stroke-linecap="butt" stroke-linejoin="miter" stroke-miterlimit="4" transform="translate(8.075 108.197132459)" d="M 0 0h 54.141732283"/><path fill="none" stroke="#c8c8c8" stroke-width="0.5" stroke-linecap="butt" stroke-linejoin="miter" stroke-miterlimit="4" transform="translate(71.004133858 108.197132459)" d="M 0 0h 107.149606299"/><path fill="none" stroke="#c8c8c8" stroke-width="0.5" stroke-linecap="butt" stroke-linejoin="miter" stroke-miterlimit="4" transform="translate(8.075 83.900169579)" d="M 0 0h 54.141732283"/><path fill="none" stroke="#c8c8c8" stroke-width="0.5" stroke-linecap="butt" stroke-linejoin="miter" stroke-miterlimit="4" transform="translate(71.004133858 83.900169579)" d="M 0 0h 107.149606299"/><path fill="none" stroke="#c8c8c8" stroke-width="0.5" stroke-linecap="butt" stroke-linejoin="miter" stroke-miterlimit="4" transform="translate(8.075 59.603206699)" d="M 0 0h 54.141732283"/><path fill="none" stroke="#c8c8c8" stroke-width="0.5" stroke-linecap="butt" stroke-linejoin="miter" stroke-miterlimit="4" transform="translate(71.004133858 59.603206699)" d="M 0 0h 107.149606299"/><path fill="none" stroke="#c8c8c8" stroke-width="0.5" stroke-linecap="butt" stroke-linejoin="miter" stroke-miterlimit="4" transform="translate(8.075 35.30624382)" d="M 0 0h 54.141732283"/><path fill="none" stroke="#c8c8c8" stroke-width="0.5" stroke-linecap="butt" stroke-linejoin="miter" stroke-miterlimit="4" transform="translate(71.004133858 35.30624382)" d="M 0 0h 107.149606299"/><path fill="none" stroke="#c8c8c8" stroke-width="0.5" stroke-linecap="butt" stroke-linejoin="miter" stroke-miterlimit="4" transform="translate(8.075 11.00928094)" d="M 0 0h 54.141732283"/><path fill="none" stroke="#c8c8c8" stroke-width="0.5" stroke-linecap="butt" stroke-linejoin="miter" stroke-miterlimit="4" transform="translate(71.004133858 11.00928094)" d="M 0 0h 107.149606299"/><path fill="none" stroke="#000000" stroke-width="0.8" stroke-linecap="butt" stroke-linejoin="miter" stroke-miterlimit="4" transform="translate(8.075 132.494095338)" d="M 0 0h 183.608830997"/><path fill="#000000" fill-rule="nonzero" stroke="#000000" stroke-width="0.8" stroke-linecap="butt" stroke-linejoin="miter" stroke-miterlimit="4" stroke-dashoffset="0" stroke-dasharray="" transform="translate(190.904303437 131.324803999)" d="M 0 0m 3.118110236 1.169291339l -3.118110236 -1.169291339l 0.779527559 1.169291339l -0.779527559 1.169291339l 3.118110236 -1.169291339Z "/><path fill="none" stroke="#000000" stroke-width="0.8" stroke-linecap="butt" stroke-linejoin="miter" stroke-miterlimit="4" transform="translate(76.106496063 2.338582677)" d="M 0 0m 0 178.749438421v -178.749438421"/><path fill="#000000" fill-rule="nonzero" stroke="#000000" stroke-width="0.8" stroke-linecap="butt" stroke-linejoin="miter" stroke-miterlimit="4" stroke-dashoffset="0" stroke-dasharray="" transform="translate(74.937204724)" d="M 0 0m 1.169291339 0l -1.169291339 3.118110236l 1.169291339 -0.779527559l 1.169291339 0.779527559l -1.169291339 -3.118110236Z "/><path fill="none" stroke="#000000" stroke-width="0.6" stroke-linecap="butt" stroke-linejoin="miter" stroke-miterlimit="4" transform="translate(8.075 129.659449669)" d="M 0 0m 0 5.669291339v -5.669291339"/><path fill="none" transform="translate(0 139.580709512)" d="M 0 0h 16.15v 11.6h -16.15v -11.6Z "/><g transform="translate(-1.26e-7 139.580709401)"><g transform="translate(2 2)"><path fill="#ffffff" fill-rule="nonzero" d="M 0 0v 7.58h 12.15v -7.58Z "/><g transform="matrix(1 0 0 -1 1 7.08)"><use xlink:href="#g769096BA7538C9DB0AE1F13573F95E13" x="0" y="0" fill="#000000" fill-rule="nonzero"/><use xlink:href="#gD51D1BA75A4578B9DA0C9BBB90D056B7" x="5.5" y="0" fill="#000000" fill-rule="nonzero"/></g></g></g><path fill="none" stroke="#000000" stroke-width="0.6" stroke-linecap="butt" stroke-linejoin="miter" stroke-miterlimit="4" transform="translate(42.090748031 129.659449669)" d="M 0 0m 0 5.669291339v -5.669291339"/><path fill="none" transform="translate(34.015748031 139.580709512)" d="M 0 0h 16.15v 11.6h -16.15v -11.6Z "/><g transform="translate(34.015747906 139.580709401)"><g transform="translate(2 2)"><path fill="#ffffff" fill-rule="nonzero" d="M 0 0v 7.58h 12.15v -7.58Z "/><g transform="matrix(1 0 0 -1 1 7.08)"><use xlink:href="#g769096BA7538C9DB0AE1F13573F95E13" x="0" y="0" fill="#000000" fill-rule="nonzero"/><use xlink:href="#g90E80DFA2ED72D656149A2EAA0923C99" x="5.5" y="0" fill="#000000" fill-rule="nonzero"/></g></g></g><path fill="none" stroke="#000000" stroke-width="0.6" stroke-linecap="butt" stroke-linejoin="miter" stroke-miterlimit="4" transform="translate(76.106496063 129.659449669)" d="M 0 0m 0 5.669291339v -5.669291339"/><path fill="none" stroke="#000000" stroke-width="0.6" stroke-linecap="butt" stroke-linejoin="miter" stroke-miterlimit="4" transform="translate(110.122244094 129.659449669)" d="M 0 0m 0 5.669291339v -5.669291339"/><path fill="none" transform="translate(104.797244094 139.580709512)" d="M 0 0h 10.65v 11.6h -10.65v -11.6Z "/><g transform="translate(104.797244 139.580709401)"><g transform="translate(2 2)"><path fill="#ffffff" fill-rule="nonzero" d="M 0 0v 7.58h 6.65v -7.58Z "/><g transform="matrix(1 0 0 -1 1 7.08)"><use xlink:href="#g90E80DFA2ED72D656149A2EAA0923C99" x="0" y="0" fill="#000000" fill-rule="nonzero"/></g></g></g><path fill="none" stroke="#000000" stroke-width="0.6" stroke-linecap="butt" stroke-linejoin="miter" stroke-miterlimit="4" transform="translate(144.137992126 129.659449669)" d="M 0 0m 0 5.669291339v -5.669291339"/><path fill="none" transform="translate(138.812992126 139.580709512)" d="M 0 0h 10.65v 11.6h -10.65v -11.6Z "/><g transform="translate(138.812992031 139.580709401)"><g transform="translate(2 2)"><path fill="#ffffff" fill-rule="nonzero" d="M 0 0v 7.58h 6.65v -7.58Z "/><g transform="matrix(1 0 0 -1 1 7.08)"><use xlink:href="#gD51D1BA75A4578B9DA0C9BBB90D056B7" x="0" y="0" fill="#000000" fill-rule="nonzero"/></g></g></g><path fill="none" stroke="#000000" stroke-width="0.6" stroke-linecap="butt" stroke-linejoin="miter" stroke-miterlimit="4" transform="translate(178.153740157 129.659449669)" d="M 0 0m 0 5.669291339v -5.669291339"/><path fill="none" transform="translate(172.828740157 139.580709512)" d="M 0 0h 10.65v 11.68h -10.65v -11.68Z "/><g transform="translate(172.828740063 139.580709433)"><g transform="translate(2 2)"><path fill="#ffffff" fill-rule="nonzero" d="M 0 0v 7.58h 6.65v -7.58Z "/><g transform="matrix(1 0 0 -1 1 7.08)"><use xlink:href="#gEC79FC52D225D04391F52749EE46159D" x="0" y="0" fill="#000000" fill-rule="nonzero"/></g></g></g><path fill="none" stroke="#000000" stroke-width="0.6" stroke-linecap="butt" stroke-linejoin="miter" stroke-miterlimit="4" transform="translate(73.271850394 181.088021098)" d="M 0 0h 5.669291339"/><path fill="none" transform="translate(52.86988189 175.288021098)" d="M 0 0h 16.15v 11.6h -16.15v -11.6Z "/><g transform="translate(52.869881764 175.288020987)"><g transform="translate(2 2)"><path fill="#ffffff" fill-rule="nonzero" d="M 0 0v 7.58h 12.15v -7.58Z "/><g transform="matrix(1 0 0 -1 1 7.08)"><use xlink:href="#g769096BA7538C9DB0AE1F13573F95E13" x="0" y="0" fill="#000000" fill-rule="nonzero"/><use xlink:href="#gD51D1BA75A4578B9DA0C9BBB90D056B7" x="5.5" y="0" fill="#000000" fill-rule="nonzero"/></g></g></g><path fill="none" stroke="#000000" stroke-width="0.6" stroke-linecap="butt" stroke-linejoin="miter" stroke-miterlimit="4" transform="translate(73.271850394 156.791058218)" d="M 0 0h 5.669291339"/><path fill="none" transform="translate(52.86988189 150.991058218)" d="M 0 0h 16.15v 11.6h -16.15v -11.6Z "/><g transform="translate(52.869881764 150.991058108)"><g transform="translate(2 2)"><path fill="#ffffff" fill-rule="nonzero" d="M 0 0v 7.58h 12.15v -7.58Z "/><g transform="matrix(1 0 0 -1 1 7.08)"><use xlink:href="#g769096BA7538C9DB0AE1F13573F95E13" x="0" y="0" fill="#000000" fill-rule="nonzero"/><use xlink:href="#g90E80DFA2ED72D656149A2EAA0923C99" x="5.5" y="0" fill="#000000" fill-rule="nonzero"/></g></g></g><path fill="none" stroke="#000000" stroke-width="0.6" stroke-linecap="butt" stroke-linejoin="miter" stroke-miterlimit="4" transform="translate(73.271850394 132.494095338)" d="M 0 0h 5.669291339"/><path fill="none" stroke="#000000" stroke-width="0.6" stroke-linecap="butt" stroke-linejoin="miter" stroke-miterlimit="4" transform="translate(73.271850394 108.197132459)" d="M 0 0h 5.669291339"/><path fill="none" transform="translate(58.36988189 102.397132459)" d="M 0 0h 10.65v 11.6h -10.65v -11.6Z "/><g transform="translate(58.369881795 102.397132348)"><g transform="translate(2 2)"><path fill="#ffffff" fill-rule="nonzero" d="M 0 0v 7.58h 6.65v -7.58Z "/><g transform="matrix(1 0 0 -1 1 7.08)"><use xlink:href="#g90E80DFA2ED72D656149A2EAA0923C99" x="0" y="0" fill="#000000" fill-rule="nonzero"/></g></g></g><path fill="none" stroke="#000000" stroke-width="0.6" stroke-linecap="butt" stroke-linejoin="miter" stroke-miterlimit="4" transform="translate(73.271850394 83.900169579)" d="M 0 0h 5.669291339"/><path fill="none" transform="translate(58.36988189 78.100169579)" d="M 0 0h 10.65v 11.6h -10.65v -11.6Z "/><g transform="translate(58.369881795 78.100169469)"><g transform="translate(2 2)"><path fill="#ffffff" fill-rule="nonzero" d="M 0 0v 7.58h 6.65v -7.58Z "/><g transform="matrix(1 0 0 -1 1 7.08)"><use xlink:href="#gD51D1BA75A4578B9DA0C9BBB90D056B7" x="0" y="0" fill="#000000" fill-rule="nonzero"/></g></g></g><path fill="none" stroke="#000000" stroke-width="0.6" stroke-linecap="butt" stroke-linejoin="miter" stroke-miterlimit="4" transform="translate(73.271850394 59.603206699)" d="M 0 0h 5.669291339"/><path fill="none" transform="translate(58.36988189 53.763206699)" d="M 0 0h 10.65v 11.68h -10.65v -11.68Z "/><g transform="translate(58.369881795 53.763206621)"><g transform="translate(2 2)"><path fill="#ffffff" fill-rule="nonzero" d="M 0 0v 7.58h 6.65v -7.58Z "/><g transform="matrix(1 0 0 -1 1 7.08)"><use xlink:href="#gEC79FC52D225D04391F52749EE46159D" x="0" y="0" fill="#000000" fill-rule="nonzero"/></g></g></g><path fill="none" stroke="#000000" stroke-width="0.6" stroke-linecap="butt" stroke-linejoin="miter" stroke-miterlimit="4" transform="translate(73.271850394 35.30624382)" d="M 0 0h 5.669291339"/><path fill="none" transform="translate(58.36988189 29.50624382)" d="M 0 0h 10.65v 11.6h -10.65v -11.6Z "/><g transform="translate(58.369881795 29.50624371)"><g transform="translate(2 2)"><path fill="#ffffff" fill-rule="nonzero" d="M 0 0v 7.58h 6.65v -7.58Z "/><g transform="matrix(1 0 0 -1 1 7.08)"><use xlink:href="#g9FDA399337BA5CEE43DE6885B462BE24" x="0" y="0" fill="#000000" fill-rule="nonzero"/></g></g></g><path fill="none" stroke="#000000" stroke-width="0.6" stroke-linecap="butt" stroke-linejoin="miter" stroke-miterlimit="4" transform="translate(73.271850394 11.00928094)" d="M 0 0h 5.669291339"/><path fill="none" transform="translate(58.36988189 5.16428094)" d="M 0 0h 10.65v 11.69h -10.65v -11.69Z "/><g transform="translate(58.369881795 5.16428083)"><g transform="translate(2 2)"><path fill="#ffffff" fill-rule="nonzero" d="M 0 0v 7.58h 6.65v -7.58Z "/><g transform="matrix(1 0 0 -1 1 7.08)"><use xlink:href="#g53E88946A301F5C1DCEA2C720F6596D3" x="0" y="0" fill="#000000" fill-rule="nonzero"/></g></g></g><path fill="none" stroke="#000000" stroke-width="0.6" stroke-linecap="butt" stroke-linejoin="miter" stroke-miterlimit="4" transform="translate(73.489485121 132.995194632)" d="M 0 0m 2.115911649 0l -2.115911649 2.115911649"/><path fill="none" transform="translate(62.338385827 135.612205575)" d="M 0 0h 10.65v 11.68h -10.65v -11.68Z "/><g transform="translate(62.338385732 135.612205496)"><g transform="translate(2 2)"><path fill="#ffffff" fill-rule="nonzero" d="M 0 0v 7.58h 6.65v -7.58Z "/><g transform="matrix(1 0 0 -1 1 7.08)"><use xlink:href="#g6DFAD7171EBFBAC7EAFD0C61FA59A787" x="0" y="0" fill="#000000" fill-rule="nonzero"/></g></g></g><path fill="none" transform="translate(183.024291339 118.286378803)" d="M 0 0h 10.72v 11.94h -10.72v -11.94Z "/><g transform="translate(183.024291307 118.286378756)"><g transform="translate(2 2)"><path fill="#ffffff" fill-rule="nonzero" d="M 0 0v 7.83h 6.72v -7.83Z "/><g transform="matrix(1 0 0 -1 0.5 7.33)"><use xlink:href="#g8F3B43BF00419FE170D741E9CC615A47" x="0" y="0" fill="#000000" fill-rule="nonzero"/></g></g></g><path fill="none" transform="translate(78.374212598 0.278122335)" d="M 0 0h 10.18v 13.88h -10.18v -13.88Z "/><g transform="translate(78.374212567 0.278122272)"><g transform="translate(2 2)"><path fill="#ffffff" fill-rule="nonzero" d="M 0 0v 7.83h 6.18v -7.83Z "/><g transform="matrix(1 0 0 -1 0.5 7.33)"><use xlink:href="#gF318040A2BA9CD3C6D4E0BBBF71596E3" x="0" y="0" fill="#000000" fill-rule="nonzero"/></g></g></g><path fill="none" stroke="#2ecc40" stroke-width="1.5" stroke-linecap="butt" stroke-linejoin="miter" stroke-miterlimit="4" transform="translate(8.075 128.768035402)" d="M 0 0m 0 0.437823584l 4.251968504 -0.437823584"/><path fill="none" stroke="#2ecc40" stroke-width="1.5" stroke-linecap="butt" stroke-linejoin="miter" stroke-miterlimit="4" transform="translate(12.326968504 128.271916285)" d="M 0 0m 0 0.496119117l 4.251968504 -0.496119117"/><path fill="none" stroke="#2ecc40" stroke-width="1.5" stroke-linecap="butt" stroke-linejoin="miter" stroke-miterlimit="4" transform="translate(16.578937008 127.709739675)" d="M 0 0m 0 0.56217661l 4.251968504 -0.56217661"/><path fill="none" stroke="#2ecc40" stroke-width="1.5" stroke-linecap="butt" stroke-linejoin="miter" stroke-miterlimit="4" transform="translate(20.830905512 127.07271012)" d="M 0 0m 0 0.637029555l 4.251968504 -0.637029555"/><path fill="none" stroke="#2ecc40" stroke-width="1.5" stroke-linecap="butt" stroke-linejoin="miter" stroke-miterlimit="4" transform="translate(25.082874016 126.350861065)" d="M 0 0m 0 0.721849055l 4.251968504 -0.721849055"/><path fill="none" stroke="#2ecc40" stroke-width="1.5" stroke-linecap="butt" stroke-linejoin="miter" stroke-miterlimit="4" transform="translate(29.33484252 125.532898924)" d="M 0 0m 0 0.81796214l 4.251968504 -0.81796214"/><path fill="none" stroke="#2ecc40" stroke-width="1.5" stroke-linecap="butt" stroke-linejoin="miter" stroke-miterlimit="4" transform="translate(33.586811024 124.60602639)" d="M 0 0m 0 0.926872534l 4.251968504 -0.926872534"/><path fill="none" stroke="#2ecc40" stroke-width="1.5" stroke-linecap="butt" stroke-linejoin="miter" stroke-miterlimit="4" transform="translate(37.838779528 123.555742212)" d="M 0 0m 0 1.050284178l 4.251968504 -1.050284178"/><path fill="none" stroke="#2ecc40" stroke-width="1.5" stroke-linecap="butt" stroke-linejoin="miter" stroke-miterlimit="4" transform="translate(42.090748031 122.36561432)" d="M 0 0m 0 1.190127892l 4.251968504 -1.190127892"/><path fill="none" stroke="#2ecc40" stroke-width="1.5" stroke-linecap="butt" stroke-linejoin="miter" stroke-miterlimit="4" transform="translate(46.342716535 121.017022741)" d="M 0 0m 0 1.348591579l 4.251968504 -1.348591579"/><path fill="none" stroke="#2ecc40" stroke-width="1.5" stroke-linecap="butt" stroke-linejoin="miter" stroke-miterlimit="4" transform="translate(50.594685039 119.488868279)" d="M 0 0m 0 1.528154462l 4.251968504 -1.528154462"/><path fill="none" stroke="#2ecc40" stroke-width="1.5" stroke-linecap="butt" stroke-linejoin="miter" stroke-miterlimit="4" transform="translate(54.846653543 117.757242414)" d="M 0 0m 0 1.731625865l 4.251968504 -1.731625865"/><path fill="none" stroke="#2ecc40" stroke-width="1.5" stroke-linecap="butt" stroke-linejoin="miter" stroke-miterlimit="4" transform="translate(59.098622047 115.795053244)" d="M 0 0m 0 1.96218917l 4.251968504 -1.96218917"/><path fill="none" stroke="#2ecc40" stroke-width="1.5" stroke-linecap="butt" stroke-linejoin="miter" stroke-miterlimit="4" transform="translate(63.350590551 113.571601621)" d="M 0 0m 0 2.223451623l 4.251968504 -2.223451623"/><path fill="none" stroke="#2ecc40" stroke-width="1.5" stroke-linecap="butt" stroke-linejoin="miter" stroke-miterlimit="4" transform="translate(67.602559055 111.052100855)" d="M 0 0m 0 2.519500767l 4.251968504 -2.519500767"/><path fill="none" stroke="#2ecc40" stroke-width="1.5" stroke-linecap="butt" stroke-linejoin="miter" stroke-miterlimit="4" transform="translate(71.854527559 108.197132459)" d="M 0 0m 0 2.854968396l 4.251968504 -2.854968396"/><path fill="none" stroke="#2ecc40" stroke-width="1.5" stroke-linecap="butt" stroke-linejoin="miter" stroke-miterlimit="4" transform="translate(76.106496063 104.962029437)" d="M 0 0m 0 3.235103022l 4.251968504 -3.235103022"/><path fill="none" stroke="#2ecc40" stroke-width="1.5" stroke-linecap="butt" stroke-linejoin="miter" stroke-miterlimit="4" transform="translate(80.358464567 101.296177453)" d="M 0 0m 0 3.665851984l 4.251968504 -3.665851984"/><path fill="none" stroke="#2ecc40" stroke-width="1.5" stroke-linecap="butt" stroke-linejoin="miter" stroke-miterlimit="4" transform="translate(84.610433071 97.142222947)" d="M 0 0m 0 4.153954505l 4.251968504 -4.153954505"/><path fill="none" stroke="#2ecc40" stroke-width="1.5" stroke-linecap="butt" stroke-linejoin="miter" stroke-miterlimit="4" transform="translate(88.862401575 92.435175825)" d="M 0 0m 0 4.707047122l 4.251968504 -4.707047122"/><path fill="none" stroke="#2ecc40" stroke-width="1.5" stroke-linecap="butt" stroke-linejoin="miter" stroke-miterlimit="4" transform="translate(93.114370079 87.101392661)" d="M 0 0m 0 5.333783165l 4.251968504 -5.333783165"/><path fill="none" stroke="#2ecc40" stroke-width="1.5" stroke-linecap="butt" stroke-linejoin="miter" stroke-miterlimit="4" transform="translate(97.366338583 81.057424519)" d="M 0 0m 0 6.043968142l 4.251968504 -6.043968142"/><path fill="none" stroke="#2ecc40" stroke-width="1.5" stroke-linecap="butt" stroke-linejoin="miter" stroke-miterlimit="4" transform="translate(101.618307087 74.208711368)" d="M 0 0m 0 6.848713151l 4.251968504 -6.848713151"/><path fill="none" stroke="#2ecc40" stroke-width="1.5" stroke-linecap="butt" stroke-linejoin="miter" stroke-miterlimit="4" transform="translate(105.870275591 66.448102656)" d="M 0 0m 0 7.760608712l 4.251968504 -7.760608712"/><path fill="none" stroke="#2ecc40" stroke-width="1.5" stroke-linecap="butt" stroke-linejoin="miter" stroke-miterlimit="4" transform="translate(110.122244094 57.654180899)" d="M 0 0m 0 8.793921757l 4.251968504 -8.793921757"/><path fill="none" stroke="#2ecc40" stroke-width="1.5" stroke-linecap="butt" stroke-linejoin="miter" stroke-miterlimit="4" transform="translate(114.374212598 47.689362064)" d="M 0 0m 0 9.964818835l 4.251968504 -9.964818835"/><path fill="none" stroke="#2ecc40" stroke-width="1.5" stroke-linecap="butt" stroke-linejoin="miter" stroke-miterlimit="4" transform="translate(118.626181102 36.397743015)" d="M 0 0m 0 11.291619048l 4.251968504 -11.291619048"/><path fill="none" stroke="#2ecc40" stroke-width="1.5" stroke-linecap="butt" stroke-linejoin="miter" stroke-miterlimit="4" transform="translate(122.878149606 23.602662358)" d="M 0 0m 0 12.795080657l 4.251968504 -12.795080657"/><path fill="none" stroke="#2ecc40" stroke-width="1.5" stroke-linecap="butt" stroke-linejoin="miter" stroke-miterlimit="4" transform="translate(127.13011811 11.00928094)" d="M 0 0m 0 12.593381418l 3.693197712 -12.593381418"/><path fill="none" stroke="#ff851b" stroke-width="1.5" stroke-linecap="butt" stroke-linejoin="miter" stroke-miterlimit="4" transform="translate(80.727093011 177.096306031)" d="M 0 0m 0 3.991715066l 0.804914863 -3.991715066"/><path fill="none" stroke="#ff851b" stroke-width="1.5" stroke-linecap="butt" stroke-linejoin="miter" stroke-miterlimit="4" transform="translate(81.532007874 172.921668479)" d="M 0 0m 0 4.174637553l 1.017070866 -4.174637553"/><path fill="none" stroke="#ff851b" stroke-width="1.5" stroke-linecap="butt" stroke-linejoin="miter" stroke-miterlimit="4" transform="translate(82.54907874 169.360232424)" d="M 0 0m 0 3.561436055l 1.017070866 -3.561436055"/><path fill="none" stroke="#ff851b" stroke-width="1.5" stroke-linecap="butt" stroke-linejoin="miter" stroke-miterlimit="4" transform="translate(83.566149606 166.254712918)" d="M 0 0m 0 3.105519505l 1.017070866 -3.105519505"/><path fill="none" stroke="#ff851b" stroke-width="1.5" stroke-linecap="butt" stroke-linejoin="miter" stroke-miterlimit="4" transform="translate(84.583220472 163.501518275)" d="M 0 0m 0 2.753194644l 1.017070866 -2.753194644"/><path fill="none" stroke="#ff851b" stroke-width="1.5" stroke-linecap="butt" stroke-linejoin="miter" stroke-miterlimit="4" transform="translate(85.600291339 161.028788752)" d="M 0 0m 0 2.472729522l 1.017070866 -2.472729522"/><path fill="none" stroke="#ff851b" stroke-width="1.5" stroke-linecap="butt" stroke-linejoin="miter" stroke-miterlimit="4" transform="translate(86.617362205 158.784628891)" d="M 0 0m 0 2.244159862l 1.017070866 -2.244159862"/><path fill="none" stroke="#ff851b" stroke-width="1.5" stroke-linecap="butt" stroke-linejoin="miter" stroke-miterlimit="4" transform="translate(87.634433071 156.73033494)" d="M 0 0m 0 2.054293951l 1.017070866 -2.054293951"/><path fill="none" stroke="#ff851b" stroke-width="1.5" stroke-linecap="butt" stroke-linejoin="miter" stroke-miterlimit="4" transform="translate(88.651503937 154.836270964)" d="M 0 0m 0 1.894063976l 1.017070866 -1.894063976"/><path fill="none" stroke="#ff851b" stroke-width="1.5" stroke-linecap="butt" stroke-linejoin="miter" stroke-miterlimit="4" transform="translate(89.668574803 153.079240257)" d="M 0 0m 0 1.757030707l 1.017070866 -1.757030707"/><path fill="none" stroke="#ff851b" stroke-width="1.5" stroke-linecap="butt" stroke-linejoin="miter" stroke-miterlimit="4" transform="translate(90.685645669 151.440745198)" d="M 0 0m 0 1.638495058l 1.017070866 -1.638495058"/><path fill="none" stroke="#ff851b" stroke-width="1.5" stroke-linecap="butt" stroke-linejoin="miter" stroke-miterlimit="4" transform="translate(91.702716535 149.905797918)" d="M 0 0m 0 1.53494728l 1.017070866 -1.53494728"/><path fill="none" stroke="#ff851b" stroke-width="1.5" stroke-linecap="butt" stroke-linejoin="miter" stroke-miterlimit="4" transform="translate(92.719787402 148.462084947)" d="M 0 0m 0 1.443712972l 1.017070866 -1.443712972"/><path fill="none" stroke="#ff851b" stroke-width="1.5" stroke-linecap="butt" stroke-linejoin="miter" stroke-miterlimit="4" transform="translate(93.736858268 147.099366491)" d="M 0 0m 0 1.362718456l 1.017070866 -1.362718456"/><path fill="none" stroke="#ff851b" stroke-width="1.5" stroke-linecap="butt" stroke-linejoin="miter" stroke-miterlimit="4" transform="translate(94.753929134 145.809035453)" d="M 0 0m 0 1.290331038l 1.017070866 -1.290331038"/><path fill="none" stroke="#ff851b" stroke-width="1.5" stroke-linecap="butt" stroke-linejoin="miter" stroke-miterlimit="4" transform="translate(95.771 144.583787774)" d="M 0 0m 0 1.225247678l 1.017070866 -1.225247678"/><path fill="none" stroke="#ff851b" stroke-width="1.5" stroke-linecap="butt" stroke-linejoin="miter" stroke-miterlimit="4" transform="translate(96.788070866 143.417371999)" d="M 0 0m 0 1.166415776l 1.017070866 -1.166415776"/><path fill="none" stroke="#ff851b" stroke-width="1.5" stroke-linecap="butt" stroke-linejoin="miter" stroke-miterlimit="4" transform="translate(97.805141732 142.304396252)" d="M 0 0m 0 1.112975747l 1.017070866 -1.112975747"/><path fill="none" stroke="#ff851b" stroke-width="1.5" stroke-linecap="butt" stroke-linejoin="miter" stroke-miterlimit="4" transform="translate(98.822212598 141.240177531)" d="M 0 0m 0 1.06421872l 1.017070866 -1.06421872"/><path fill="none" stroke="#ff851b" stroke-width="1.5" stroke-linecap="butt" stroke-linejoin="miter" stroke-miterlimit="4" transform="translate(99.839283465 140.220622648)" d="M 0 0m 0 1.019554883l 1.017070866 -1.019554883"/><path fill="none" stroke="#ff851b" stroke-width="1.5" stroke-linecap="butt" stroke-linejoin="miter" stroke-miterlimit="4" transform="translate(100.856354331 139.242133154)" d="M 0 0m 0 0.978489494l 1.017070866 -0.978489494"/><path fill="none" stroke="#ff851b" stroke-width="1.5" stroke-linecap="butt" stroke-linejoin="miter" stroke-miterlimit="4" transform="translate(101.873425197 138.301528691)" d="M 0 0m 0 0.940604464l 1.017070866 -0.940604464"/><path fill="none" stroke="#ff851b" stroke-width="1.5" stroke-linecap="butt" stroke-linejoin="miter" stroke-miterlimit="4" transform="translate(102.890496063 137.395984626)" d="M 0 0m 0 0.905544065l 1.017070866 -0.905544065"/><path fill="none" stroke="#ff851b" stroke-width="1.5" stroke-linecap="butt" stroke-linejoin="miter" stroke-miterlimit="4" transform="translate(103.907566929 136.522980906)" d="M 0 0m 0 0.87300372l 1.017070866 -0.87300372"/><path fill="none" stroke="#ff851b" stroke-width="1.5" stroke-linecap="butt" stroke-linejoin="miter" stroke-miterlimit="4" transform="translate(104.924637795 135.680259781)" d="M 0 0m 0 0.842721125l 1.017070866 -0.842721125"/><path fill="none" stroke="#ff851b" stroke-width="1.5" stroke-linecap="butt" stroke-linejoin="miter" stroke-miterlimit="4" transform="translate(105.941708661 134.865790618)" d="M 0 0m 0 0.814469163l 1.017070866 -0.814469163"/><path fill="none" stroke="#ff851b" stroke-width="1.5" stroke-linecap="butt" stroke-linejoin="miter" stroke-miterlimit="4" transform="translate(106.958779528 134.077740425)" d="M 0 0m 0 0.788050193l 1.017070866 -0.788050193"/><path fill="none" stroke="#ff851b" stroke-width="1.5" stroke-linecap="butt" stroke-linejoin="miter" stroke-miterlimit="4" transform="translate(107.975850394 133.314449007)" d="M 0 0m 0 0.763291418l 1.017070866 -0.763291418"/><path fill="none" stroke="#ff851b" stroke-width="1.5" stroke-linecap="butt" stroke-linejoin="miter" stroke-miterlimit="4" transform="translate(108.99292126 132.574407905)" d="M 0 0m 0 0.740041102l 1.017070866 -0.740041102"/><path fill="none" stroke="#ff851b" stroke-width="1.5" stroke-linecap="butt" stroke-linejoin="miter" stroke-miterlimit="4" transform="translate(110.009992126 131.856242451)" d="M 0 0m 0 0.718165453l 1.017070866 -0.718165453"/><path fill="none" stroke="#ff851b" stroke-width="1.5" stroke-linecap="butt" stroke-linejoin="miter" stroke-miterlimit="4" transform="translate(111.027062992 131.158696402)" d="M 0 0m 0 0.697546049l 1.017070866 -0.697546049"/><path fill="none" stroke="#ff851b" stroke-width="1.5" stroke-linecap="butt" stroke-linejoin="miter" stroke-miterlimit="4" transform="translate(112.044133858 130.480618712)" d="M 0 0m 0 0.67807769l 1.017070866 -0.67807769"/><path fill="none" stroke="#ff851b" stroke-width="1.5" stroke-linecap="butt" stroke-linejoin="miter" stroke-miterlimit="4" transform="translate(113.061204724 129.820952107)" d="M 0 0m 0 0.659666605l 1.017070866 -0.659666605"/><path fill="none" stroke="#ff851b" stroke-width="1.5" stroke-linecap="butt" stroke-linejoin="miter" stroke-miterlimit="4" transform="translate(114.078275591 129.178723168)" d="M 0 0m 0 0.642228939l 1.017070866 -0.642228939"/><path fill="none" stroke="#ff851b" stroke-width="1.5" stroke-linecap="butt" stroke-linejoin="miter" stroke-miterlimit="4" transform="translate(115.095346457 128.55303369)" d="M 0 0m 0 0.625689478l 1.017070866 -0.625689478"/><path fill="none" stroke="#ff851b" stroke-width="1.5" stroke-linecap="butt" stroke-linejoin="miter" stroke-miterlimit="4" transform="translate(116.112417323 127.94305313)" d="M 0 0m 0 0.60998056l 1.017070866 -0.60998056"/><path fill="none" stroke="#ff851b" stroke-width="1.5" stroke-linecap="butt" stroke-linejoin="miter" stroke-miterlimit="4" transform="translate(117.129488189 127.348011973)" d="M 0 0m 0 0.595041157l 1.017070866 -0.595041157"/><path fill="none" stroke="#ff851b" stroke-width="1.5" stroke-linecap="butt" stroke-linejoin="miter" stroke-miterlimit="4" transform="translate(118.146559055 126.7671959)" d="M 0 0m 0 0.580816073l 1.017070866 -0.580816073"/><path fill="none" stroke="#ff851b" stroke-width="1.5" stroke-linecap="butt" stroke-linejoin="miter" stroke-miterlimit="4" transform="translate(119.163629921 126.199940629)" d="M 0 0m 0 0.567255271l 1.017070866 -0.567255271"/><path fill="none" stroke="#ff851b" stroke-width="1.5" stroke-linecap="butt" stroke-linejoin="miter" stroke-miterlimit="4" transform="translate(120.180700787 125.64562735)" d="M 0 0m 0 0.55431328l 1.017070866 -0.55431328"/><path fill="none" stroke="#ff851b" stroke-width="1.5" stroke-linecap="butt" stroke-linejoin="miter" stroke-miterlimit="4" transform="translate(121.197771654 125.103678664)" d="M 0 0m 0 0.541948685l 1.017070866 -0.541948685"/><path fill="none" stroke="#ff851b" stroke-width="1.5" stroke-linecap="butt" stroke-linejoin="miter" stroke-miterlimit="4" transform="translate(122.21484252 124.573554975)" d="M 0 0m 0 0.530123689l 1.017070866 -0.530123689"/><path fill="none" stroke="#ff851b" stroke-width="1.5" stroke-linecap="butt" stroke-linejoin="miter" stroke-miterlimit="4" transform="translate(123.231913386 124.054751253)" d="M 0 0m 0 0.518803722l 1.017070866 -0.518803722"/><path fill="none" stroke="#ff851b" stroke-width="1.5" stroke-linecap="butt" stroke-linejoin="miter" stroke-miterlimit="4" transform="translate(124.248984252 123.546794148)" d="M 0 0m 0 0.507957105l 1.017070866 -0.507957105"/><path fill="none" stroke="#ff851b" stroke-width="1.5" stroke-linecap="butt" stroke-linejoin="miter" stroke-miterlimit="4" transform="translate(125.266055118 123.049239392)" d="M 0 0m 0 0.497554756l 1.017070866 -0.497554756"/><path fill="none" stroke="#ff851b" stroke-width="1.5" stroke-linecap="butt" stroke-linejoin="miter" stroke-miterlimit="4" transform="translate(126.283125984 122.561669465)" d="M 0 0m 0 0.487569926l 1.017070866 -0.487569926"/><path fill="none" stroke="#ff851b" stroke-width="1.5" stroke-linecap="butt" stroke-linejoin="miter" stroke-miterlimit="4" transform="translate(127.30019685 122.083691493)" d="M 0 0m 0 0.477977972l 1.017070866 -0.477977972"/><path fill="none" stroke="#ff851b" stroke-width="1.5" stroke-linecap="butt" stroke-linejoin="miter" stroke-miterlimit="4" transform="translate(128.317267717 121.61493534)" d="M 0 0m 0 0.468756153l 1.017070866 -0.468756153"/><path fill="none" stroke="#ff851b" stroke-width="1.5" stroke-linecap="butt" stroke-linejoin="miter" stroke-miterlimit="4" transform="translate(129.334338583 121.155051891)" d="M 0 0m 0 0.459883449l 1.017070866 -0.459883449"/><path fill="none" stroke="#ff851b" stroke-width="1.5" stroke-linecap="butt" stroke-linejoin="miter" stroke-miterlimit="4" transform="translate(130.351409449 120.703711488)" d="M 0 0m 0 0.451340403l 1.017070866 -0.451340403"/><path fill="none" stroke="#ff851b" stroke-width="1.5" stroke-linecap="butt" stroke-linejoin="miter" stroke-miterlimit="4" transform="translate(131.368480315 120.260602509)" d="M 0 0m 0 0.443108978l 1.017070866 -0.443108978"/><path fill="none" stroke="#ff851b" stroke-width="1.5" stroke-linecap="butt" stroke-linejoin="miter" stroke-miterlimit="4" transform="translate(132.385551181 119.825430081)" d="M 0 0m 0 0.435172428l 1.017070866 -0.435172428"/><path fill="none" stroke="#ff851b" stroke-width="1.5" stroke-linecap="butt" stroke-linejoin="miter" stroke-miterlimit="4" transform="translate(133.402622047 119.397914894)" d="M 0 0m 0 0.427515187l 1.017070866 -0.427515187"/><path fill="none" stroke="#ff851b" stroke-width="1.5" stroke-linecap="butt" stroke-linejoin="miter" stroke-miterlimit="4" transform="translate(134.419692913 118.977792129)" d="M 0 0m 0 0.420122764l 1.017070866 -0.420122764"/><path fill="none" stroke="#ff851b" stroke-width="1.5" stroke-linecap="butt" stroke-linejoin="miter" stroke-miterlimit="4" transform="translate(135.43676378 118.564810473)" d="M 0 0m 0 0.412981656l 1.017070866 -0.412981656"/><path fill="none" stroke="#ff851b" stroke-width="1.5" stroke-linecap="butt" stroke-linejoin="miter" stroke-miterlimit="4" transform="translate(136.453834646 118.158731213)" d="M 0 0m 0 0.40607926l 1.017070866 -0.40607926"/><path fill="none" stroke="#ff851b" stroke-width="1.5" stroke-linecap="butt" stroke-linejoin="miter" stroke-miterlimit="4" transform="translate(137.470905512 117.759327409)" d="M 0 0m 0 0.399403804l 1.017070866 -0.399403804"/><path fill="none" stroke="#ff851b" stroke-width="1.5" stroke-linecap="butt" stroke-linejoin="miter" stroke-miterlimit="4" transform="translate(138.487976378 117.366383133)" d="M 0 0m 0 0.392944276l 1.017070866 -0.392944276"/><path fill="none" stroke="#ff851b" stroke-width="1.5" stroke-linecap="butt" stroke-linejoin="miter" stroke-miterlimit="4" transform="translate(139.505047244 116.979692768)" d="M 0 0m 0 0.386690366l 1.017070866 -0.386690366"/><path fill="none" stroke="#ff851b" stroke-width="1.5" stroke-linecap="butt" stroke-linejoin="miter" stroke-miterlimit="4" transform="translate(140.52211811 116.599060358)" d="M 0 0m 0 0.380632409l 1.017070866 -0.380632409"/><path fill="none" stroke="#ff851b" stroke-width="1.5" stroke-linecap="butt" stroke-linejoin="miter" stroke-miterlimit="4" transform="translate(141.539188976 116.22429902)" d="M 0 0m 0 0.374761339l 1.017070866 -0.374761339"/><path fill="none" stroke="#ff851b" stroke-width="1.5" stroke-linecap="butt" stroke-linejoin="miter" stroke-miterlimit="4" transform="translate(142.556259843 115.855230383)" d="M 0 0m 0 0.369068637l 1.017070866 -0.369068637"/><path fill="none" stroke="#ff851b" stroke-width="1.5" stroke-linecap="butt" stroke-linejoin="miter" stroke-miterlimit="4" transform="translate(143.573330709 115.491684085)" d="M 0 0m 0 0.363546298l 1.017070866 -0.363546298"/><path fill="none" stroke="#ff851b" stroke-width="1.5" stroke-linecap="butt" stroke-linejoin="miter" stroke-miterlimit="4" transform="translate(144.590401575 115.1334973)" d="M 0 0m 0 0.358186785l 1.017070866 -0.358186785"/><path fill="none" stroke="#ff851b" stroke-width="1.5" stroke-linecap="butt" stroke-linejoin="miter" stroke-miterlimit="4" transform="translate(145.607472441 114.780514297)" d="M 0 0m 0 0.352983003l 1.017070866 -0.352983003"/><path fill="none" stroke="#ff851b" stroke-width="1.5" stroke-linecap="butt" stroke-linejoin="miter" stroke-miterlimit="4" transform="translate(146.624543307 114.432586037)" d="M 0 0m 0 0.34792826l 1.017070866 -0.34792826"/><path fill="none" stroke="#ff851b" stroke-width="1.5" stroke-linecap="butt" stroke-linejoin="miter" stroke-miterlimit="4" transform="translate(147.641614173 114.089569792)" d="M 0 0m 0 0.343016245l 1.017070866 -0.343016245"/><path fill="none" stroke="#ff851b" stroke-width="1.5" stroke-linecap="butt" stroke-linejoin="miter" stroke-miterlimit="4" transform="translate(148.658685039 113.751328796)" d="M 0 0m 0 0.338240996l 1.017070866 -0.338240996"/><path fill="none" stroke="#ff851b" stroke-width="1.5" stroke-linecap="butt" stroke-linejoin="miter" stroke-miterlimit="4" transform="translate(149.675755906 113.417731917)" d="M 0 0m 0 0.333596879l 1.017070866 -0.333596879"/><path fill="none" stroke="#ff851b" stroke-width="1.5" stroke-linecap="butt" stroke-linejoin="miter" stroke-miterlimit="4" transform="translate(150.692826772 113.088653352)" d="M 0 0m 0 0.329078566l 1.017070866 -0.329078566"/><path fill="none" stroke="#ff851b" stroke-width="1.5" stroke-linecap="butt" stroke-linejoin="miter" stroke-miterlimit="4" transform="translate(151.709897638 112.763972339)" d="M 0 0m 0 0.324681013l 1.017070866 -0.324681013"/><path fill="none" stroke="#ff851b" stroke-width="1.5" stroke-linecap="butt" stroke-linejoin="miter" stroke-miterlimit="4" transform="translate(152.726968504 112.443572895)" d="M 0 0m 0 0.320399443l 1.017070866 -0.320399443"/><path fill="none" stroke="#ff851b" stroke-width="1.5" stroke-linecap="butt" stroke-linejoin="miter" stroke-miterlimit="4" transform="translate(153.74403937 112.127343568)" d="M 0 0m 0 0.316229327l 1.017070866 -0.316229327"/><path fill="none" stroke="#ff851b" stroke-width="1.5" stroke-linecap="butt" stroke-linejoin="miter" stroke-miterlimit="4" transform="translate(154.761110236 111.815177199)" d="M 0 0m 0 0.312166369l 1.017070866 -0.312166369"/><path fill="none" stroke="#ff851b" stroke-width="1.5" stroke-linecap="butt" stroke-linejoin="miter" stroke-miterlimit="4" transform="translate(155.778181102 111.506970707)" d="M 0 0m 0 0.308206492l 1.017070866 -0.308206492"/><path fill="none" stroke="#ff851b" stroke-width="1.5" stroke-linecap="butt" stroke-linejoin="miter" stroke-miterlimit="4" transform="translate(156.795251969 111.202624887)" d="M 0 0m 0 0.30434582l 1.017070866 -0.30434582"/><path fill="none" stroke="#ff851b" stroke-width="1.5" stroke-linecap="butt" stroke-linejoin="miter" stroke-miterlimit="4" transform="translate(157.812322835 110.902044215)" d="M 0 0m 0 0.300580672l 1.017070866 -0.300580672"/><path fill="none" stroke="#ff851b" stroke-width="1.5" stroke-linecap="butt" stroke-linejoin="miter" stroke-miterlimit="4" transform="translate(158.829393701 110.605136669)" d="M 0 0m 0 0.296907547l 1.017070866 -0.296907547"/><path fill="none" stroke="#ff851b" stroke-width="1.5" stroke-linecap="butt" stroke-linejoin="miter" stroke-miterlimit="4" transform="translate(159.846464567 110.311813558)" d="M 0 0m 0 0.29332311l 1.017070866 -0.29332311"/><path fill="none" stroke="#ff851b" stroke-width="1.5" stroke-linecap="butt" stroke-linejoin="miter" stroke-miterlimit="4" transform="translate(160.863535433 110.021989369)" d="M 0 0m 0 0.289824189l 1.017070866 -0.289824189"/><path fill="none" stroke="#ff851b" stroke-width="1.5" stroke-linecap="butt" stroke-linejoin="miter" stroke-miterlimit="4" transform="translate(161.880606299 109.73558161)" d="M 0 0m 0 0.286407759l 1.017070866 -0.286407759"/><path fill="none" stroke="#ff851b" stroke-width="1.5" stroke-linecap="butt" stroke-linejoin="miter" stroke-miterlimit="4" transform="translate(162.897677165 109.452510672)" d="M 0 0m 0 0.283070937l 1.017070866 -0.283070937"/><path fill="none" stroke="#ff851b" stroke-width="1.5" stroke-linecap="butt" stroke-linejoin="miter" stroke-miterlimit="4" transform="translate(163.914748031 109.172699699)" d="M 0 0m 0 0.279810973l 1.017070866 -0.279810973"/><path fill="none" stroke="#ff851b" stroke-width="1.5" stroke-linecap="butt" stroke-linejoin="miter" stroke-miterlimit="4" transform="translate(164.931818898 108.896074459)" d="M 0 0m 0 0.27662524l 1.017070866 -0.27662524"/><path fill="none" stroke="#ff851b" stroke-width="1.5" stroke-linecap="butt" stroke-linejoin="miter" stroke-miterlimit="4" transform="translate(165.948889764 108.622563226)" d="M 0 0m 0 0.273511233l 1.017070866 -0.273511233"/><path fill="none" stroke="#ff851b" stroke-width="1.5" stroke-linecap="butt" stroke-linejoin="miter" stroke-miterlimit="4" transform="translate(166.96596063 108.35209667)" d="M 0 0m 0 0.270466556l 1.017070866 -0.270466556"/><path fill="none" stroke="#ff851b" stroke-width="1.5" stroke-linecap="butt" stroke-linejoin="miter" stroke-miterlimit="4" transform="translate(167.983031496 108.084607752)" d="M 0 0m 0 0.267488918l 1.017070866 -0.267488918"/><path fill="none" stroke="#ff851b" stroke-width="1.5" stroke-linecap="butt" stroke-linejoin="miter" stroke-miterlimit="4" transform="translate(169.000102362 107.820031621)" d="M 0 0m 0 0.264576131l 1.017070866 -0.264576131"/><path fill="none" stroke="#ff851b" stroke-width="1.5" stroke-linecap="butt" stroke-linejoin="miter" stroke-miterlimit="4" transform="translate(170.017173228 107.558305524)" d="M 0 0m 0 0.261726097l 1.017070866 -0.261726097"/><path fill="none" stroke="#ff851b" stroke-width="1.5" stroke-linecap="butt" stroke-linejoin="miter" stroke-miterlimit="4" transform="translate(171.034244094 107.299368712)" d="M 0 0m 0 0.258936812l 1.017070866 -0.258936812"/><path fill="none" stroke="#ff851b" stroke-width="1.5" stroke-linecap="butt" stroke-linejoin="miter" stroke-miterlimit="4" transform="translate(172.051314961 107.04316236)" d="M 0 0m 0 0.256206352l 1.017070866 -0.256206352"/><path fill="none" stroke="#ff851b" stroke-width="1.5" stroke-linecap="butt" stroke-linejoin="miter" stroke-miterlimit="4" transform="translate(173.068385827 106.789629483)" d="M 0 0m 0 0.253532877l 1.017070866 -0.253532877"/><path fill="none" stroke="#ff851b" stroke-width="1.5" stroke-linecap="butt" stroke-linejoin="miter" stroke-miterlimit="4" transform="translate(174.085456693 106.538714863)" d="M 0 0m 0 0.250914621l 1.017070866 -0.250914621"/><path fill="none" stroke="#ff851b" stroke-width="1.5" stroke-linecap="butt" stroke-linejoin="miter" stroke-miterlimit="4" transform="translate(175.102527559 106.290364973)" d="M 0 0m 0 0.24834989l 1.017070866 -0.24834989"/><path fill="none" stroke="#ff851b" stroke-width="1.5" stroke-linecap="butt" stroke-linejoin="miter" stroke-miterlimit="4" transform="translate(176.119598425 106.044527913)" d="M 0 0m 0 0.24583706l 1.017070866 -0.24583706"/><path fill="none" stroke="#ff851b" stroke-width="1.5" stroke-linecap="butt" stroke-linejoin="miter" stroke-miterlimit="4" transform="translate(177.136669291 105.801153341)" d="M 0 0m 0 0.243374571l 1.017070866 -0.243374571"/><path fill="none" transform="translate(103.894581102 41.872362064)" d="M 0 0h 14.7316v 11.634h -14.7316v -11.634Z "/><g transform="translate(103.894580976 41.872362016)"><g transform="matrix(1 0 0 -1 2 9.513)"><use xlink:href="#g1570446F77F9A6C1B85605F46F92409E" x="0" y="0" fill="#000000" fill-rule="nonzero"/></g><g transform="matrix(1 0 0 -1 7.126 5.52)"><use xlink:href="#gB4F8E97E8EFD98CA94EE40D9890E0542" x="0" y="0" fill="#000000" fill-rule="nonzero"/></g></g><path fill="none" transform="translate(167.983031496 94.11109667)" d="M 0 0h 28.024v 14.241h -28.024v -14.241Z "/><g transform="translate(167.983031417 94.111096576)"><g transform="matrix(1 0 0 -1 2 9.513)"><use xlink:href="#g2FC7C9A3CB1EC0A5B9AFF011E7A236B1" x="0" y="0" fill="#000000" fill-rule="nonzero"/><use xlink:href="#gA5D58AB94CE34C72AAD44A3326399386" x="3.058" y="0" fill="#000000" fill-rule="nonzero"/></g><g transform="matrix(1 0 0 -1 11.174 9.513)"><use xlink:href="#g9C5E01F97914784D6046F24928CB3533" x="0" y="0" fill="#000000" fill-rule="nonzero"/></g><g transform="matrix(1 0 0 -1 15.453 9.513)"><use xlink:href="#g7FDD4349A49914F62F30F23AE9794251" x="0" y="0" fill="#000000" fill-rule="nonzero"/></g><g transform="matrix(1 0 0 -1 21.745 9.513)"><use xlink:href="#g44903F1336FFA3AC82F2FDAECC383B22" x="0" y="0" fill="#000000" fill-rule="nonzero"/></g></g></g><defs><symbol id="g769096BA7538C9DB0AE1F13573F95E13" overflow="visible"><path d="M 0 0m 4.63 2.26c 0.13 0 0.27 0.23 0.27 0.33c 0 0.08 -0.04 0.17 -0.14 0.17h -3.91c -0.12 0 -0.25 -0.19 -0.25 -0.34c 0 -0.08 0.06 -0.16 0.15 -0.16Z "/></symbol><symbol id="gD51D1BA75A4578B9DA0C9BBB90D056B7" overflow="visible"><path d="M 0 0m 0.61 4.68c 0 -0.21 0.19 -0.39 0.4 -0.39c 0.17 0 0.47 0.18 0.47 0.4c 0 0.08 -0.02 0.14 -0.04 0.21c -0.02 0.07 -0.08 0.16 -0.08 0.24c 0 0.25 0.26 0.61 0.99 0.61c 0.36 0 0.87 -0.25 0.87 -1.21c 0 -0.64 -0.23 -1.16 -0.82 -1.76l -0.74 -0.73c -0.98 -1 -1.14 -1.48 -1.14 -2.07c 0 0 0.51 0.02 0.83 0.02h 1.75c 0.32 0 0.78 -0.02 0.78 -0.02c 0.13 0.53 0.23 1.28 0.24 1.58c -0.06 0.05 -0.19 0.07 -0.29 0.05c -0.17 -0.71 -0.34 -0.96 -0.7 -0.96h -1.78c 0 0.48 0.69 1.16 0.74 1.21l 1.01 0.97c 0.57 0.55 1 0.99 1 1.75c 0 1.08 -0.88 1.52 -1.69 1.52c -1.11 0 -1.8 -0.82 -1.8 -1.42Z "/></symbol><symbol id="g90E80DFA2ED72D656149A2EAA0923C99" overflow="visible"><path d="M 0 0m 2.88 1.22v 3.47c 0 0.6 0.01 1.21 0.03 1.34c 0 0.05 -0.02 0.05 -0.06 0.05c -0.55 -0.34 -1.08 -0.59 -1.96 -1c 0.02 -0.11 0.06 -0.21 0.15 -0.27c 0.46 0.19 0.68 0.25 0.87 0.25c 0.17 0 0.2 -0.24 0.2 -0.58v -3.26c 0 -0.83 -0.27 -0.88 -0.97 -0.91c -0.06 -0.06 -0.06 -0.27 0 -0.33c 0.49 0.01 0.85 0.02 1.39 0.02c 0.48 0 0.72 -0.01 1.22 -0.02c 0.06 0.06 0.06 0.27 0 0.33c -0.7 0.03 -0.87 0.08 -0.87 0.91Z "/></symbol><symbol id="gEC79FC52D225D04391F52749EE46159D" overflow="visible"><path d="M 0 0m 2.15 5.75c 0.43 0 0.83 -0.26 0.83 -0.9c 0 -0.5 -0.58 -1.27 -1.57 -1.41l 0.05 -0.32c 0.17 0.02 0.35 0.02 0.48 0.02c 0.57 0 1.31 -0.16 1.31 -1.29c 0 -1.33 -0.89 -1.6 -1.24 -1.6c -0.51 0 -0.6 0.23 -0.72 0.41c -0.1 0.14 -0.23 0.26 -0.43 0.26c -0.21 0 -0.42 -0.19 -0.42 -0.35c 0 -0.4 0.84 -0.67 1.44 -0.67c 1.19 0 2.25 0.77 2.25 2.09c 0 1.09 -0.82 1.48 -1.41 1.58l -0.01 0.02c 0.82 0.39 1.05 0.8 1.05 1.33c 0 0.3 -0.07 0.54 -0.31 0.79c -0.22 0.22 -0.57 0.39 -1.09 0.39c -1.47 0 -1.89 -0.96 -1.89 -1.29c 0 -0.14 0.1 -0.34 0.34 -0.34c 0.35 0 0.39 0.33 0.39 0.52c 0 0.64 0.69 0.76 0.95 0.76Z "/></symbol><symbol id="g9FDA399337BA5CEE43DE6885B462BE24" overflow="visible"><path d="M 0 0m 4.3 2.19h -0.83v 2.92c 0 0.5 0 0.89 0.02 0.97l -0.02 0.02h -0.32c -0.07 0 -0.12 -0.06 -0.16 -0.11c -0.63 -0.77 -1.79 -2.42 -2.71 -3.85c 0.03 -0.15 0.09 -0.42 0.39 -0.42h 2.04v -0.92c 0 -0.46 -0.38 -0.46 -0.81 -0.49c -0.06 -0.06 -0.06 -0.27 0 -0.33c 0.32 0.01 0.72 0.02 1.18 0.02c 0.39 0 0.77 -0.01 1.09 -0.02c 0.06 0.06 0.06 0.27 0 0.33c -0.49 0.04 -0.7 0.02 -0.7 0.49v 0.92h 0.69c 0.14 0 0.29 0.19 0.29 0.31c 0 0.1 -0.04 0.16 -0.15 0.16Z m -1.59 2.88v -2.88h -1.91c 0.51 0.82 1.22 1.94 1.91 2.88Z "/></symbol><symbol id="g53E88946A301F5C1DCEA2C720F6596D3" overflow="visible"><path d="M 0 0m 3.19 1.89c 0 -0.95 -0.5 -1.65 -1.1 -1.65c -0.38 0 -0.51 0.25 -0.66 0.45c -0.13 0.17 -0.3 0.32 -0.51 0.32c -0.19 0 -0.38 -0.17 -0.38 -0.37c 0 -0.41 0.85 -0.75 1.42 -0.75c 1.24 0 2.12 0.92 2.12 2.18c 0 0.97 -0.67 1.84 -1.79 1.84c -0.43 0 -0.8 -0.09 -0.98 -0.16l 0.2 1.67c 0.37 -0.04 0.69 -0.09 1.17 -0.09c 0.3 0 0.64 0.02 1.05 0.06l 0.16 0.68l -0.07 0.04c -0.57 -0.06 -1.11 -0.11 -1.64 -0.11c -0.37 0 -0.73 0.02 -1.08 0.05l -0.34 -2.88c 0.53 0.2 0.91 0.24 1.27 0.24c 0.65 0 1.16 -0.43 1.16 -1.52Z "/></symbol><symbol id="g6DFAD7171EBFBAC7EAFD0C61FA59A787" overflow="visible"><path d="M 0 0m 2.28 -0.1c 0.77 0 1.94 0.78 1.94 3.13c 0 0.99 -0.24 1.84 -0.68 2.42c -0.26 0.35 -0.68 0.65 -1.22 0.65c -0.99 0 -1.93 -1.18 -1.93 -3.16c 0 -1.07 0.33 -2.07 0.88 -2.62c 0.28 -0.28 0.62 -0.42 1.01 -0.42Z m 0.04 5.85c 0.17 0 0.33 -0.06 0.45 -0.17c 0.31 -0.26 0.58 -1.02 0.58 -2.36c 0 -0.92 -0.03 -1.55 -0.17 -2.06c -0.22 -0.82 -0.71 -0.91 -0.89 -0.91c -0.93 0 -1.03 1.71 -1.03 2.58c 0 2.46 0.61 2.92 1.06 2.92Z "/></symbol><symbol id="g8F3B43BF00419FE170D741E9CC615A47" overflow="visible"><path d="M 0 0m 5.27 3.73c 0 0.46 -0.45 0.69 -0.95 0.69c -0.43 0 -0.77 -0.23 -1.03 -0.69c -0.21 0.46 -0.56 0.69 -1.07 0.69c -0.49 0 -0.89 -0.23 -1.21 -0.68c -0.27 -0.39 -0.41 -0.68 -0.41 -0.87c 0 -0.09 0.05 -0.14 0.15 -0.14c 0.09 0 0.15 0.05 0.17 0.14c 0.19 0.58 0.61 1.26 1.28 1.26c 0.33 0 0.49 -0.21 0.49 -0.62c 0 -0.21 -0.18 -0.99 -0.53 -2.33c -0.17 -0.67 -0.47 -1 -0.9 -1c -0.14 0 -0.27 0.03 -0.38 0.08c 0.26 0.1 0.39 0.28 0.39 0.54c 0 0.26 -0.13 0.39 -0.4 0.39c -0.33 0 -0.58 -0.28 -0.58 -0.61c 0 -0.46 0.47 -0.69 0.96 -0.69c 0.42 0 0.76 0.23 1.03 0.69c 0.19 -0.46 0.55 -0.69 1.07 -0.69c 0.48 0 0.88 0.23 1.2 0.68c 0.27 0.39 0.41 0.68 0.41 0.87c 0 0.09 -0.05 0.14 -0.15 0.14c -0.09 0 -0.14 -0.05 -0.17 -0.14c -0.17 -0.57 -0.62 -1.26 -1.27 -1.26c -0.33 0 -0.5 0.2 -0.5 0.61c 0 0.13 0.05 0.41 0.16 0.86l 0.34 1.35c 0.19 0.75 0.5 1.13 0.94 1.13c 0.14 0 0.27 -0.03 0.38 -0.08c -0.27 -0.09 -0.4 -0.27 -0.4 -0.54c 0 -0.26 0.14 -0.39 0.41 -0.39c 0.32 0 0.57 0.29 0.57 0.61Z "/></symbol><symbol id="gF318040A2BA9CD3C6D4E0BBBF71596E3" overflow="visible"><path d="M 0 0m 1.63 4.42c -0.45 0 -0.8 -0.25 -1.05 -0.75c -0.19 -0.39 -0.29 -0.66 -0.29 -0.81c 0 -0.09 0.05 -0.14 0.16 -0.14c 0.14 0 0.15 0.06 0.19 0.21c 0.23 0.79 0.55 1.19 0.96 1.19c 0.13 0 0.2 -0.09 0.2 -0.27c 0 -0.16 -0.05 -0.39 -0.16 -0.68c -0.38 -1.03 -0.57 -1.72 -0.57 -2.09c 0 -0.76 0.47 -1.21 1.24 -1.21c 0.33 0 0.64 0.12 0.92 0.36c -0.35 -1.32 -0.9 -1.98 -1.65 -1.98c -0.34 0 -0.57 0.11 -0.69 0.33c 0.4 0.02 0.6 0.21 0.6 0.57c 0 0.25 -0.13 0.38 -0.4 0.38c -0.37 0 -0.59 -0.31 -0.59 -0.68c 0 -0.55 0.5 -0.9 1.08 -0.9c 1.15 0 2.09 1.06 2.34 2.04l 0.94 3.78c 0.03 0.11 0.04 0.19 0.04 0.24c 0 0.2 -0.11 0.3 -0.32 0.3c -0.16 0 -0.29 -0.08 -0.38 -0.23c -0.06 -0.21 -0.11 -0.39 -0.14 -0.54l -0.64 -2.57c -0.1 -0.36 -0.63 -0.81 -1.08 -0.81c -0.38 0 -0.57 0.25 -0.57 0.76c 0 0.42 0.17 1.06 0.5 1.92c 0.13 0.35 0.2 0.59 0.2 0.73c 0 0.49 -0.35 0.85 -0.84 0.85Z "/></symbol><symbol id="g1570446F77F9A6C1B85605F46F92409E" overflow="visible"><path d="M 0 0m 1.364 1.419c 0 0.264 0.055 0.627 0.165 1.078h 0.539c 0.715 0 1.265 0.088 1.661 0.253c 0.363 0.154 0.605 0.374 0.726 0.649c 0.077 0.187 0.11 0.363 0.11 0.506c 0 0.605 -0.572 0.957 -1.188 0.957c -0.429 0 -0.858 -0.11 -1.287 -0.33c -0.847 -0.44 -1.584 -1.441 -1.584 -2.651c 0 -1.122 0.649 -2.002 1.738 -2.002c 0.583 0 1.1 0.143 1.551 0.418c 0.374 0.231 0.649 0.462 0.825 0.693c 0.077 0.099 0.11 0.176 0.11 0.209c 0 0.121 -0.055 0.187 -0.176 0.187c -0.055 0 -0.11 -0.044 -0.176 -0.132c -0.363 -0.484 -0.814 -0.792 -1.331 -0.924c -0.341 -0.088 -0.594 -0.132 -0.781 -0.132c -0.627 0 -0.902 0.594 -0.902 1.221Z m 2.761 2.486c 0 -0.726 -0.704 -1.089 -2.123 -1.089h -0.385c 0.209 0.726 0.517 1.21 0.935 1.441c 0.33 0.187 0.605 0.286 0.825 0.286c 0.396 0 0.748 -0.242 0.748 -0.638Z "/></symbol><symbol id="gB4F8E97E8EFD98CA94EE40D9890E0542" overflow="visible"><path d="M 0 0m 4.4891 2.8105c 0 0.3927 -0.4004 0.5852 -0.8162 0.5852c -0.3465 0 -0.6314 -0.1694 -0.847 -0.5082c -0.1848 0.3388 -0.4928 0.5082 -0.9163 0.5082c -0.2849 0 -0.5852 -0.1232 -0.8855 -0.3773c -0.3157 -0.2618 -0.4774 -0.5313 -0.4774 -0.8085c 0 -0.0847 0.0539 -0.1309 0.154 -0.1309c 0.0847 0 0.1386 0.0462 0.1771 0.1463c 0.1386 0.4158 0.5159 0.9009 1.0087 0.9009c 0.2849 0 0.4235 -0.154 0.4235 -0.4697c 0 -0.1001 -0.0539 -0.3619 -0.154 -0.7854l -0.2618 -1.0318c -0.0693 -0.2926 -0.3542 -0.6468 -0.6853 -0.6468c -0.1309 0 -0.2464 0.0231 -0.3388 0.077c 0.154 0.0693 0.2926 0.2387 0.2926 0.4158c 0 0.1848 -0.1463 0.3157 -0.3311 0.3157c -0.2618 0 -0.462 -0.231 -0.462 -0.4928c 0 -0.385 0.4081 -0.5852 0.8239 -0.5852c 0.3542 0 0.6391 0.1694 0.847 0.5082c 0.1848 -0.3388 0.4851 -0.5082 0.9086 -0.5082c 0.4235 0 0.7623 0.1694 1.0241 0.5082c 0.2233 0.3003 0.3388 0.5313 0.3388 0.6776c 0 0.0847 -0.0462 0.1309 -0.1463 0.1309c -0.0847 0 -0.1463 -0.0539 -0.1771 -0.154c -0.1309 -0.4081 -0.5236 -0.8932 -1.0087 -0.8932c -0.2849 0 -0.4312 0.154 -0.4312 0.462c 0 0.1155 0.1309 0.693 0.3927 1.7171c 0.1309 0.5005 0.3619 0.7546 0.7084 0.7546l 0.0693 -0.0077c 0.0924 0 0.1848 -0.0231 0.2695 -0.0616c -0.1925 -0.0847 -0.2849 -0.2233 -0.2849 -0.4235c 0 -0.1848 0.1463 -0.3157 0.3311 -0.3157c 0.2618 0 0.4543 0.231 0.4543 0.4928Z "/></symbol><symbol id="g2FC7C9A3CB1EC0A5B9AFF011E7A236B1" overflow="visible"><path d="M 0 0m 1.584 0.033l 1.221 -0.033v 0.429c -0.396 0 -0.638 0.011 -0.715 0.055c -0.077 0.044 -0.11 0.176 -0.11 0.385v 6.765l -1.617 -0.121v -0.418c 0.385 0 0.627 -0.033 0.704 -0.099c 0.077 -0.066 0.121 -0.22 0.121 -0.473v -5.654c 0 -0.209 -0.033 -0.341 -0.11 -0.385c -0.077 -0.044 -0.319 -0.055 -0.715 -0.055v -0.429Z "/></symbol><symbol id="gA5D58AB94CE34C72AAD44A3326399386" overflow="visible"><path d="M 0 0m 3.454 4.543c 0.495 0 0.748 -0.385 0.748 -1.166v -2.508c 0 -0.209 -0.033 -0.341 -0.11 -0.385c -0.077 -0.044 -0.319 -0.066 -0.726 -0.066v -0.418l 1.265 0.033l 1.254 -0.033v 0.418c -0.352 0 -0.583 0.011 -0.693 0.044c -0.11 0.033 -0.154 0.11 -0.154 0.242v 2.057c 0 0.517 -0.011 0.88 -0.044 1.089c -0.11 0.671 -0.605 1.012 -1.474 1.012c -0.693 0 -1.21 -0.33 -1.551 -0.99v 0.99l -1.617 -0.121v -0.418c 0.396 0 0.638 -0.033 0.726 -0.099c 0.088 -0.066 0.121 -0.209 0.121 -0.462v -2.893c 0 -0.209 -0.044 -0.341 -0.121 -0.385c -0.077 -0.044 -0.319 -0.066 -0.726 -0.066v -0.418l 1.265 0.033l 1.254 -0.033v 0.418c -0.407 0 -0.638 0.022 -0.715 0.066c -0.077 0.044 -0.121 0.176 -0.121 0.385v 1.98c 0 0.891 0.561 1.694 1.419 1.694Z "/></symbol><symbol id="g9C5E01F97914784D6046F24928CB3533" overflow="visible"><path d="M 0 0m 3.498 -2.728c 0.099 0 0.154 0.055 0.154 0.154c 0 0.033 -0.022 0.077 -0.055 0.121c -0.572 0.44 -1.034 1.166 -1.375 2.167c -0.297 0.869 -0.451 1.727 -0.451 2.574v 0.924c 0 0.847 0.154 1.705 0.451 2.574c 0.341 1.001 0.803 1.727 1.375 2.167c 0.033 0.033 0.055 0.077 0.055 0.121c 0 0.099 -0.055 0.154 -0.154 0.154c -0.011 0 -0.044 -0.011 -0.077 -0.033c -0.66 -0.506 -1.21 -1.254 -1.661 -2.255c -0.429 -0.957 -0.649 -1.859 -0.649 -2.728v -0.924c 0 -0.869 0.22 -1.771 0.649 -2.728c 0.451 -1.001 1.001 -1.749 1.661 -2.255c 0.033 -0.022 0.066 -0.033 0.077 -0.033Z "/></symbol><symbol id="g7FDD4349A49914F62F30F23AE9794251" overflow="visible"><path d="M 0 0m 5.797 4.103c 0 0.506 -0.495 0.759 -1.045 0.759c -0.473 0 -0.847 -0.253 -1.133 -0.759c -0.231 0.506 -0.616 0.759 -1.177 0.759c -0.539 0 -0.979 -0.253 -1.331 -0.748c -0.297 -0.429 -0.451 -0.748 -0.451 -0.957c 0 -0.099 0.055 -0.154 0.165 -0.154c 0.099 0 0.165 0.055 0.187 0.154c 0.209 0.638 0.671 1.386 1.408 1.386c 0.363 0 0.539 -0.231 0.539 -0.682c 0 -0.231 -0.198 -1.089 -0.583 -2.563c -0.187 -0.737 -0.517 -1.1 -0.99 -1.1c -0.154 0 -0.297 0.033 -0.418 0.088c 0.286 0.11 0.429 0.308 0.429 0.594c 0 0.286 -0.143 0.429 -0.44 0.429c -0.363 0 -0.638 -0.308 -0.638 -0.671c 0 -0.506 0.517 -0.759 1.056 -0.759c 0.462 0 0.836 0.253 1.133 0.759c 0.209 -0.506 0.605 -0.759 1.177 -0.759c 0.528 0 0.968 0.253 1.32 0.748c 0.297 0.429 0.451 0.748 0.451 0.957c 0 0.099 -0.055 0.154 -0.165 0.154c -0.099 0 -0.154 -0.055 -0.187 -0.154c -0.187 -0.627 -0.682 -1.386 -1.397 -1.386c -0.363 0 -0.55 0.22 -0.55 0.671c 0 0.143 0.055 0.451 0.176 0.946l 0.374 1.485c 0.209 0.825 0.55 1.243 1.034 1.243c 0.154 0 0.297 -0.033 0.418 -0.088c -0.297 -0.099 -0.44 -0.297 -0.44 -0.594c 0 -0.286 0.154 -0.429 0.451 -0.429c 0.352 0 0.627 0.319 0.627 0.671Z "/></symbol><symbol id="g44903F1336FFA3AC82F2FDAECC383B22" overflow="visible"><path d="M 0 0m 0.858 -2.695c 0.66 0.506 1.21 1.254 1.661 2.255c 0.429 0.957 0.649 1.859 0.649 2.728v 0.924c 0 0.869 -0.22 1.771 -0.649 2.728c -0.451 1.001 -1.001 1.749 -1.661 2.255c -0.033 0.022 -0.066 0.033 -0.077 0.033c -0.099 0 -0.154 -0.055 -0.154 -0.154c 0 -0.044 0.022 -0.088 0.055 -0.121c 0.572 -0.44 1.034 -1.166 1.375 -2.167c 0.297 -0.869 0.451 -1.727 0.451 -2.574v -0.924c 0 -0.847 -0.154 -1.705 -0.451 -2.574c -0.341 -1.001 -0.803 -1.727 -1.375 -2.167c -0.033 -0.044 -0.055 -0.088 -0.055 -0.121c 0 -0.099 0.055 -0.154 0.154 -0.154c 0.011 0 0.044 0.011 0.077 0.033Z "/></symbol></defs></svg>