<svg viewBox="0 0 334.315519875 192.5615869" width="334.315519875pt" height="192.5615869pt" xmlns="http://www.w3.org/2000/svg" xmlns:xlink="http://www.w3.org/1999/xlink" xmlns:h5="http://www.w3.org/1999/xhtml"><path fill="#ffffff" fill-rule="nonzero" d="M 0 0v 192.5615869h 334.315519875v -192.5615869Z "/><g transform="translate(14.173228346 14.173228346)"><path fill="none" stroke="#c8c8c8" stroke-width="0.5" stroke-linecap="butt" stroke-linejoin="miter" stroke-miterlimit="4" transform="translate(12.365 108.939539656)" d="M 0 0m 0 55.275590551v -55.275590551"/><path fill="none" stroke="#c8c8c8" stroke-width="0.5" stroke-linecap="butt" stroke-linejoin="miter" stroke-miterlimit="4" transform="translate(12.365 22.482846743)" d="M 0 0m 0 76.535433071v -76.535433071"/><path fill="none" stroke="#c8c8c8" stroke-width="0.5" stroke-linecap="butt" stroke-linejoin="miter" stroke-miterlimit="4" transform="translate(83.231141732 108.939539656)" d="M 0 0m 0 55.275590551v -55.275590551"/><path fill="none" stroke="#c8c8c8" stroke-width="0.5" stroke-linecap="butt" stroke-linejoin="miter" stroke-miterlimit="4" transform="translate(83.231141732 22.482846743)" d="M 0 0m 0 76.535433071v -76.535433071"/><path fill="none" stroke="#c8c8c8" stroke-width="0.5" stroke-linecap="butt" stroke-linejoin="miter" stroke-miterlimit="4" transform="translate(224.963425197 108.939539656)" d="M 0 0m 0 55.275590551v -55.275590551"/><path fill="none" stroke="#c8c8c8" stroke-width="0.5" stroke-linecap="butt" stroke-linejoin="miter" stroke-miterlimit="4" transform="translate(224.963425197 22.482846743)" d="M 0 0m 0 76.535433071v -76.535433071"/><path fill="none" stroke="#c8c8c8" stroke-width="0.5" stroke-linecap="butt" stroke-linejoin="miter" stroke-miterlimit="4" transform="translate(295.829566929 108.939539656)" d="M 0 0m 0 55.275590551v -55.275590551"/><path fill="none" stroke="#c8c8c8" stroke-width="0.5" stroke-linecap="butt" stroke-linejoin="miter" stroke-miterlimit="4" transform="translate(295.829566929 22.482846743)" d="M 0 0m 0 76.535433071v -76.535433071"/><path fill="none" stroke="#c8c8c8" stroke-width="0.5" stroke-linecap="butt" stroke-linejoin="miter" stroke-miterlimit="4" transform="translate(12.365 140.593082963)" d="M 0 0h 115.37007874"/><path fill="none" stroke="#c8c8c8" stroke-width="0.5" stroke-linecap="butt" stroke-linejoin="miter" stroke-miterlimit="4" transform="translate(148.99492126 140.593082963)" d="M 0 0h 146.834645669"/><path fill="none" stroke="#c8c8c8" stroke-width="0.5" stroke-linecap="butt" stroke-linejoin="miter" stroke-miterlimit="4" transform="translate(12.365 93.348988475)" d="M 0 0h 283.464566929"/><path fill="none" stroke="#c8c8c8" stroke-width="0.5" stroke-linecap="butt" stroke-linejoin="miter" stroke-miterlimit="4" transform="translate(12.365 46.104893987)" d="M 0 0h 283.464566929"/><path fill="none" stroke="#000000" stroke-width="0.8" stroke-linecap="butt" stroke-linejoin="miter" stroke-miterlimit="4" transform="translate(12.365 93.348988475)" d="M 0 0h 291.265480507"/><path fill="#000000" fill-rule="nonzero" stroke="#000000" stroke-width="0.8" stroke-linecap="butt" stroke-linejoin="miter" stroke-miterlimit="4" stroke-dashoffset="0" stroke-dasharray="" transform="translate(302.850952946 92.179697136)" d="M 0 0m 3.118110236 1.169291339l -3.118110236 -1.169291339l 0.779527559 1.169291339l -0.779527559 1.169291339l 3.118110236 -1.169291339Z "/><path fill="none" stroke="#000000" stroke-width="0.8" stroke-linecap="butt" stroke-linejoin="miter" stroke-miterlimit="4" transform="translate(154.097283465 2.338582675)" d="M 0 0m 0 161.876547532v -161.876547532"/><path fill="#000000" fill-rule="nonzero" stroke="#000000" stroke-width="0.8" stroke-linecap="butt" stroke-linejoin="miter" stroke-miterlimit="4" stroke-dashoffset="0" stroke-dasharray="" transform="translate(152.927992126)" d="M 0 0m 1.169291339 0l -1.169291339 3.118110236l 1.169291339 -0.779527559l 1.169291339 0.779527559l -1.169291339 -3.118110236Z "/><path fill="none" stroke="#000000" stroke-width="0.6" stroke-linecap="butt" stroke-linejoin="miter" stroke-miterlimit="4" transform="translate(12.365 90.514342806)" d="M 0 0m 0 5.669291339v -5.669291339"/><path fill="none" transform="translate(0 100.435602648)" d="M 0 0h 24.73v 11.94h -24.73v -11.94Z "/><g transform="translate(-7.9e-8 100.435602601)"><g transform="translate(2 2)"><path fill="#ffffff" fill-rule="nonzero" d="M 0 0v 7.83h 20.73v -7.83Z "/><g transform="matrix(1 0 0 -1 1 7.33)"><use xlink:href="#gE8ADFB55DBC888FEFF5896D44F418AFF" x="0" y="0" fill="#000000" fill-rule="nonzero"/></g><g transform="matrix(1 0 0 -1 8.78 7.33)"><use xlink:href="#g187F960CD8D343F130EAFAB63E4BE0DE" x="0" y="0" fill="#000000" fill-rule="nonzero"/></g><g transform="matrix(1 0 0 -1 13.78 7.33)"><use xlink:href="#g5CF1D204351052BE9DFCEAA5213E13C0" x="0" y="0" fill="#000000" fill-rule="nonzero"/></g></g></g><path fill="none" stroke="#000000" stroke-width="0.6" stroke-linecap="butt" stroke-linejoin="miter" stroke-miterlimit="4" transform="translate(83.231141732 90.514342806)" d="M 0 0m 0 5.669291339v -5.669291339"/><path fill="none" transform="translate(73.366141732 100.435602648)" d="M 0 0h 19.73v 11.94h -19.73v -11.94Z "/><g transform="translate(73.366141669 100.435602601)"><g transform="translate(2 2)"><path fill="#ffffff" fill-rule="nonzero" d="M 0 0v 7.83h 15.73v -7.83Z "/><g transform="matrix(1 0 0 -1 1 7.33)"><use xlink:href="#gE8ADFB55DBC888FEFF5896D44F418AFF" x="0" y="0" fill="#000000" fill-rule="nonzero"/></g><g transform="matrix(1 0 0 -1 8.78 7.33)"><use xlink:href="#g5CF1D204351052BE9DFCEAA5213E13C0" x="0" y="0" fill="#000000" fill-rule="nonzero"/></g></g></g><path fill="none" stroke="#000000" stroke-width="0.6" stroke-linecap="butt" stroke-linejoin="miter" stroke-miterlimit="4" transform="translate(224.963425197 90.514342806)" d="M 0 0m 0 5.669291339v -5.669291339"/><path fill="none" transform="translate(218.988425197 100.435602648)" d="M 0 0h 11.95v 11.94h -11.95v -11.94Z "/><g transform="translate(218.988425118 100.435602601)"><g transform="translate(2 2)"><path fill="#ffffff" fill-rule="nonzero" d="M 0 0v 7.83h 7.95v -7.83Z "/><g transform="matrix(1 0 0 -1 1 7.33)"><use xlink:href="#g5CF1D204351052BE9DFCEAA5213E13C0" x="0" y="0" fill="#000000" fill-rule="nonzero"/></g></g></g><path fill="none" stroke="#000000" stroke-width="0.6" stroke-linecap="butt" stroke-linejoin="miter" stroke-miterlimit="4" transform="translate(295.829566929 90.514342806)" d="M 0 0m 0 5.669291339v -5.669291339"/><path fill="none" transform="translate(287.354566929 100.435602648)" d="M 0 0h 16.95v 11.94h -16.95v -11.94Z "/><g transform="translate(287.354566835 100.435602601)"><g transform="translate(2 2)"><path fill="#ffffff" fill-rule="nonzero" d="M 0 0v 7.83h 12.95v -7.83Z "/><g transform="matrix(1 0 0 -1 1 7.33)"><use xlink:href="#g187F960CD8D343F130EAFAB63E4BE0DE" x="0" y="0" fill="#000000" fill-rule="nonzero"/></g><g transform="matrix(1 0 0 -1 6 7.33)"><use xlink:href="#g5CF1D204351052BE9DFCEAA5213E13C0" x="0" y="0" fill="#000000" fill-rule="nonzero"/></g></g></g><path fill="none" stroke="#000000" stroke-width="0.6" stroke-linecap="butt" stroke-linejoin="miter" stroke-miterlimit="4" transform="translate(151.262637795 140.593082963)" d="M 0 0h 5.669291339"/><path fill="none" transform="translate(130.860669291 134.793082963)" d="M 0 0h 16.15v 11.6h -16.15v -11.6Z "/><g transform="translate(130.860669165 134.793082853)"><g transform="translate(2 2)"><path fill="#ffffff" fill-rule="nonzero" d="M 0 0v 7.58h 12.15v -7.58Z "/><g transform="matrix(1 0 0 -1 1 7.08)"><use xlink:href="#g769096BA7538C9DB0AE1F13573F95E13" x="0" y="0" fill="#000000" fill-rule="nonzero"/><use xlink:href="#g90E80DFA2ED72D656149A2EAA0923C99" x="5.5" y="0" fill="#000000" fill-rule="nonzero"/></g></g></g><path fill="none" stroke="#000000" stroke-width="0.6" stroke-linecap="butt" stroke-linejoin="miter" stroke-miterlimit="4" transform="translate(151.262637795 93.348988475)" d="M 0 0h 5.669291339"/><path fill="none" stroke="#000000" stroke-width="0.6" stroke-linecap="butt" stroke-linejoin="miter" stroke-miterlimit="4" transform="translate(151.262637795 46.104893987)" d="M 0 0h 5.669291339"/><path fill="none" transform="translate(294.970940849 79.14127194)" d="M 0 0h 10.72v 11.94h -10.72v -11.94Z "/><g transform="translate(294.970940818 79.141271892)"><g transform="translate(2 2)"><path fill="#ffffff" fill-rule="nonzero" d="M 0 0v 7.83h 6.72v -7.83Z "/><g transform="matrix(1 0 0 -1 0.5 7.33)"><use xlink:href="#g8F3B43BF00419FE170D741E9CC615A47" x="0" y="0" fill="#000000" fill-rule="nonzero"/></g></g></g><path fill="none" transform="translate(156.365 0.278122333)" d="M 0 0h 10.18v 13.88h -10.18v -13.88Z "/><g transform="translate(156.364999969 0.27812227)"><g transform="translate(2 2)"><path fill="#ffffff" fill-rule="nonzero" d="M 0 0v 7.83h 6.18v -7.83Z "/><g transform="matrix(1 0 0 -1 0.5 7.33)"><use xlink:href="#gF318040A2BA9CD3C6D4E0BBBF71596E3" x="0" y="0" fill="#000000" fill-rule="nonzero"/></g></g></g><path fill="none" stroke="#0074d9" stroke-width="1.2" stroke-linecap="butt" stroke-linejoin="miter" stroke-miterlimit="4" transform="translate(12.365 87.458843591)" d="M 0 0m 0 5.890523972l 2.819674189 -5.890523972"/><path fill="none" stroke="#0074d9" stroke-width="1.2" stroke-linecap="butt" stroke-linejoin="miter" stroke-miterlimit="4" transform="translate(15.184674189 81.515851301)" d="M 0 0m 0 5.94299229l 2.891039153 -5.94299229"/><path fill="none" stroke="#0074d9" stroke-width="1.2" stroke-linecap="butt" stroke-linejoin="miter" stroke-miterlimit="4" transform="translate(18.075713342 75.766963446)" d="M 0 0m 0 5.748887855l 2.891039153 -5.748887855"/><path fill="none" stroke="#0074d9" stroke-width="1.2" stroke-linecap="butt" stroke-linejoin="miter" stroke-miterlimit="4" transform="translate(20.966752495 70.306481699)" d="M 0 0m 0 5.460481747l 2.891039153 -5.460481747"/><path fill="none" stroke="#0074d9" stroke-width="1.2" stroke-linecap="butt" stroke-linejoin="miter" stroke-miterlimit="4" transform="translate(23.857791648 65.223976873)" d="M 0 0m 0 5.082504826l 2.891039153 -5.082504826"/><path fill="none" stroke="#0074d9" stroke-width="1.2" stroke-linecap="butt" stroke-linejoin="miter" stroke-miterlimit="4" transform="translate(26.748830801 60.60281965)" d="M 0 0m 0 4.621157222l 2.891039153 -4.621157222"/><path fill="none" stroke="#0074d9" stroke-width="1.2" stroke-linecap="butt" stroke-linejoin="miter" stroke-miterlimit="4" transform="translate(29.639869954 56.518813017)" d="M 0 0m 0 4.084006634l 2.891039153 -4.084006634"/><path fill="none" stroke="#0074d9" stroke-width="1.2" stroke-linecap="butt" stroke-linejoin="miter" stroke-miterlimit="4" transform="translate(32.530909107 53.038948825)" d="M 0 0m 0 3.479864191l 2.891039153 -3.479864191"/><path fill="none" stroke="#0074d9" stroke-width="1.2" stroke-linecap="butt" stroke-linejoin="miter" stroke-miterlimit="4" transform="translate(35.42194826 50.220308902)" d="M 0 0m 0 2.818639923l 2.891039153 -2.818639923"/><path fill="none" stroke="#0074d9" stroke-width="1.2" stroke-linecap="butt" stroke-linejoin="miter" stroke-miterlimit="4" transform="translate(38.312987413 48.109128705)" d="M 0 0m 0 2.111180198l 2.891039153 -2.111180198"/><path fill="none" stroke="#0074d9" stroke-width="1.2" stroke-linecap="butt" stroke-linejoin="miter" stroke-miterlimit="4" transform="translate(41.204026566 46.7400389)" d="M 0 0m 0 1.369089805l 2.891039153 -1.369089805"/><path fill="none" stroke="#0074d9" stroke-width="1.2" stroke-linecap="butt" stroke-linejoin="miter" stroke-miterlimit="4" transform="translate(44.095065719 46.135497303)" d="M 0 0m 0 0.604541597l 2.891039153 -0.604541597"/><path fill="none" stroke="#0074d9" stroke-width="1.2" stroke-linecap="butt" stroke-linejoin="miter" stroke-miterlimit="4" transform="translate(46.986104872 46.135497303)" d="M 0 0l 2.891039153 0.169923187"/><path fill="none" stroke="#0074d9" stroke-width="1.2" stroke-linecap="butt" stroke-linejoin="miter" stroke-miterlimit="4" transform="translate(49.877144025 46.30542049)" d="M 0 0l 2.891039153 0.941600642"/><path fill="none" stroke="#0074d9" stroke-width="1.2" stroke-linecap="butt" stroke-linejoin="miter" stroke-miterlimit="4" transform="translate(52.768183178 47.247021132)" d="M 0 0l 2.891039153 1.697832585"/><path fill="none" stroke="#0074d9" stroke-width="1.2" stroke-linecap="butt" stroke-linejoin="miter" stroke-miterlimit="4" transform="translate(55.659222332 48.944853717)" d="M 0 0l 2.891039153 2.426214193"/><path fill="none" stroke="#0074d9" stroke-width="1.2" stroke-linecap="butt" stroke-linejoin="miter" stroke-miterlimit="4" transform="translate(58.550261485 51.371067911)" d="M 0 0l 2.891039153 3.114797485"/><path fill="none" stroke="#0074d9" stroke-width="1.2" stroke-linecap="butt" stroke-linejoin="miter" stroke-miterlimit="4" transform="translate(61.441300638 54.485865396)" d="M 0 0l 2.891039153 3.75228731"/><path fill="none" stroke="#0074d9" stroke-width="1.2" stroke-linecap="butt" stroke-linejoin="miter" stroke-miterlimit="4" transform="translate(64.332339791 58.238152706)" d="M 0 0l 2.891039153 4.328226627"/><path fill="none" stroke="#0074d9" stroke-width="1.2" stroke-linecap="butt" stroke-linejoin="miter" stroke-miterlimit="4" transform="translate(67.223378944 62.566379333)" d="M 0 0l 2.891039153 4.833168035"/><path fill="none" stroke="#0074d9" stroke-width="1.2" stroke-linecap="butt" stroke-linejoin="miter" stroke-miterlimit="4" transform="translate(70.114418097 67.399547368)" d="M 0 0l 2.891039153 5.258828748"/><path fill="none" stroke="#0074d9" stroke-width="1.2" stroke-linecap="butt" stroke-linejoin="miter" stroke-miterlimit="4" transform="translate(73.00545725 72.658376116)" d="M 0 0l 2.891039153 5.598226455"/><path fill="none" stroke="#0074d9" stroke-width="1.2" stroke-linecap="butt" stroke-linejoin="miter" stroke-miterlimit="4" transform="translate(75.896496403 78.25660257)" d="M 0 0l 2.891039153 5.845793857"/><path fill="none" stroke="#0074d9" stroke-width="1.2" stroke-linecap="butt" stroke-linejoin="miter" stroke-miterlimit="4" transform="translate(78.787535556 84.102396428)" d="M 0 0l 2.891039153 5.997469993"/><path fill="none" stroke="#0074d9" stroke-width="1.2" stroke-linecap="butt" stroke-linejoin="miter" stroke-miterlimit="4" transform="translate(81.678574709 90.099866421)" d="M 0 0l 2.891039153 6.050766849"/><path fill="none" stroke="#0074d9" stroke-width="1.2" stroke-linecap="butt" stroke-linejoin="miter" stroke-miterlimit="4" transform="translate(84.569613862 96.15063327)" d="M 0 0l 2.891039153 6.00481017"/><path fill="none" stroke="#0074d9" stroke-width="1.2" stroke-linecap="butt" stroke-linejoin="miter" stroke-miterlimit="4" transform="translate(87.460653015 102.15544344)" d="M 0 0l 2.891039153 5.860353807"/><path fill="none" stroke="#0074d9" stroke-width="1.2" stroke-linecap="butt" stroke-linejoin="miter" stroke-miterlimit="4" transform="translate(90.351692168 108.015797247)" d="M 0 0l 2.891039153 5.619767343"/><path fill="none" stroke="#0074d9" stroke-width="1.2" stroke-linecap="butt" stroke-linejoin="miter" stroke-miterlimit="4" transform="translate(93.242731321 113.63556459)" d="M 0 0l 2.891039153 5.28699723"/><path fill="none" stroke="#0074d9" stroke-width="1.2" stroke-linecap="butt" stroke-linejoin="miter" stroke-miterlimit="4" transform="translate(96.133770474 118.92256182)" d="M 0 0l 2.891039153 4.867502051"/><path fill="none" stroke="#0074d9" stroke-width="1.2" stroke-linecap="butt" stroke-linejoin="miter" stroke-miterlimit="4" transform="translate(99.024809627 123.790063871)" d="M 0 0l 2.891039153 4.368162979"/><path fill="none" stroke="#0074d9" stroke-width="1.2" stroke-linecap="butt" stroke-linejoin="miter" stroke-miterlimit="4" transform="translate(101.915848781 128.158226849)" d="M 0 0l 2.891039153 3.797170904"/><path fill="none" stroke="#0074d9" stroke-width="1.2" stroke-linecap="butt" stroke-linejoin="miter" stroke-miterlimit="4" transform="translate(104.806887934 131.955397753)" d="M 0 0l 2.891039153 3.163892075"/><path fill="none" stroke="#0074d9" stroke-width="1.2" stroke-linecap="butt" stroke-linejoin="miter" stroke-miterlimit="4" transform="translate(107.697927087 135.119289828)" d="M 0 0l 2.891039153 2.478714457"/><path fill="none" stroke="#0074d9" stroke-width="1.2" stroke-linecap="butt" stroke-linejoin="miter" stroke-miterlimit="4" transform="translate(110.58896624 137.598004285)" d="M 0 0l 2.891039153 1.752877337"/><path fill="none" stroke="#0074d9" stroke-width="1.2" stroke-linecap="butt" stroke-linejoin="miter" stroke-miterlimit="4" transform="translate(113.480005393 139.350881621)" d="M 0 0l 2.891039153 0.998286957"/><path fill="none" stroke="#0074d9" stroke-width="1.2" stroke-linecap="butt" stroke-linejoin="miter" stroke-miterlimit="4" transform="translate(116.371044546 140.349168578)" d="M 0 0l 2.891039153 0.227321213"/><path fill="none" stroke="#0074d9" stroke-width="1.2" stroke-linecap="butt" stroke-linejoin="miter" stroke-miterlimit="4" transform="translate(119.262083699 140.029116406)" d="M 0 0m 0 0.547373385l 2.891039153 -0.547373385"/><path fill="none" stroke="#0074d9" stroke-width="1.2" stroke-linecap="butt" stroke-linejoin="miter" stroke-miterlimit="4" transform="translate(122.153122852 138.716027242)" d="M 0 0m 0 1.313089165l 2.891039153 -1.313089165"/><path fill="none" stroke="#0074d9" stroke-width="1.2" stroke-linecap="butt" stroke-linejoin="miter" stroke-miterlimit="4" transform="translate(125.044162005 136.658761508)" d="M 0 0m 0 2.057265734l 2.891039153 -2.057265734"/><path fill="none" stroke="#0074d9" stroke-width="1.2" stroke-linecap="butt" stroke-linejoin="miter" stroke-miterlimit="4" transform="translate(127.935201158 133.891065489)" d="M 0 0m 0 2.767696019l 2.891039153 -2.767696019"/><path fill="none" stroke="#0074d9" stroke-width="1.2" stroke-linecap="butt" stroke-linejoin="miter" stroke-miterlimit="4" transform="translate(130.826240311 130.458338985)" d="M 0 0m 0 3.432726504l 2.891039153 -3.432726504"/><path fill="none" stroke="#0074d9" stroke-width="1.2" stroke-linecap="butt" stroke-linejoin="miter" stroke-miterlimit="4" transform="translate(133.717279464 126.416890601)" d="M 0 0m 0 4.041448384l 2.891039153 -4.041448384"/><path fill="none" stroke="#0074d9" stroke-width="1.2" stroke-linecap="butt" stroke-linejoin="miter" stroke-miterlimit="4" transform="translate(136.608318617 121.833014088)" d="M 0 0m 0 4.583876513l 2.891039153 -4.583876513"/><path fill="none" stroke="#0074d9" stroke-width="1.2" stroke-linecap="butt" stroke-linejoin="miter" stroke-miterlimit="4" transform="translate(139.49935777 116.781900898)" d="M 0 0m 0 5.05111319l 2.891039153 -5.05111319"/><path fill="none" stroke="#0074d9" stroke-width="1.2" stroke-linecap="butt" stroke-linejoin="miter" stroke-miterlimit="4" transform="translate(142.390396923 111.346406781)" d="M 0 0m 0 5.435494116l 2.891039153 -5.435494116"/><path fill="none" stroke="#0074d9" stroke-width="1.2" stroke-linecap="butt" stroke-linejoin="miter" stroke-miterlimit="4" transform="translate(145.281436077 105.615692669)" d="M 0 0m 0 5.730714112l 2.891039153 -5.730714112"/><path fill="none" stroke="#0074d9" stroke-width="1.2" stroke-linecap="butt" stroke-linejoin="miter" stroke-miterlimit="4" transform="translate(148.17247523 99.683762121)" d="M 0 0m 0 5.931930548l 2.891039153 -5.931930548"/><path fill="none" stroke="#0074d9" stroke-width="1.2" stroke-linecap="butt" stroke-linejoin="miter" stroke-miterlimit="4" transform="translate(151.063514383 93.647919344)" d="M 0 0m 0 6.035842777l 2.891039153 -6.035842777"/><path fill="none" stroke="#0074d9" stroke-width="1.2" stroke-linecap="butt" stroke-linejoin="miter" stroke-miterlimit="4" transform="translate(153.954553536 87.607173066)" d="M 0 0m 0 6.040746279l 2.891039153 -6.040746279"/><path fill="none" stroke="#0074d9" stroke-width="1.2" stroke-linecap="butt" stroke-linejoin="miter" stroke-miterlimit="4" transform="translate(156.845592689 81.660612447)" d="M 0 0m 0 5.946560618l 2.891039153 -5.946560618"/><path fill="none" stroke="#0074d9" stroke-width="1.2" stroke-linecap="butt" stroke-linejoin="miter" stroke-miterlimit="4" transform="translate(159.736631842 75.905781679)" d="M 0 0m 0 5.754830768l 2.891039153 -5.754830768"/><path fill="none" stroke="#0074d9" stroke-width="1.2" stroke-linecap="butt" stroke-linejoin="miter" stroke-miterlimit="4" transform="translate(162.627670995 70.437079919)" d="M 0 0m 0 5.46870176l 2.891039153 -5.46870176"/><path fill="none" stroke="#0074d9" stroke-width="1.2" stroke-linecap="butt" stroke-linejoin="miter" stroke-miterlimit="4" transform="translate(165.518710148 65.344212817)" d="M 0 0m 0 5.092867102l 2.891039153 -5.092867102"/><path fill="none" stroke="#0074d9" stroke-width="1.2" stroke-linecap="butt" stroke-linejoin="miter" stroke-miterlimit="4" transform="translate(168.409749301 60.710721033)" d="M 0 0m 0 4.633491784l 2.891039153 -4.633491784"/><path fill="none" stroke="#0074d9" stroke-width="1.2" stroke-linecap="butt" stroke-linejoin="miter" stroke-miterlimit="4" transform="translate(171.300788454 56.612609881)" d="M 0 0m 0 4.098111152l 2.891039153 -4.098111152"/><path fill="none" stroke="#0074d9" stroke-width="1.2" stroke-linecap="butt" stroke-linejoin="miter" stroke-miterlimit="4" transform="translate(174.191827607 53.117102578)" d="M 0 0m 0 3.495507303l 2.891039153 -3.495507303"/><path fill="none" stroke="#0074d9" stroke-width="1.2" stroke-linecap="butt" stroke-linejoin="miter" stroke-miterlimit="4" transform="translate(177.08286676 50.281537551)" d="M 0 0m 0 2.835565027l 2.891039153 -2.835565027"/><path fill="none" stroke="#0074d9" stroke-width="1.2" stroke-linecap="butt" stroke-linejoin="miter" stroke-miterlimit="4" transform="translate(179.973905913 48.152427888)" d="M 0 0m 0 2.129109664l 2.891039153 -2.129109664"/><path fill="none" stroke="#0074d9" stroke-width="1.2" stroke-linecap="butt" stroke-linejoin="miter" stroke-miterlimit="4" transform="translate(182.864945066 46.764698361)" d="M 0 0m 0 1.387729527l 2.891039153 -1.387729527"/><path fill="none" stroke="#0074d9" stroke-width="1.2" stroke-linecap="butt" stroke-linejoin="miter" stroke-miterlimit="4" transform="translate(185.755984219 46.141112541)" d="M 0 0m 0 0.62358582l 2.891039153 -0.62358582"/><path fill="none" stroke="#0074d9" stroke-width="1.2" stroke-linecap="butt" stroke-linejoin="miter" stroke-miterlimit="4" transform="translate(188.647023372 46.141112541)" d="M 0 0l 2.891039153 0.150786855"/><path fill="none" stroke="#0074d9" stroke-width="1.2" stroke-linecap="butt" stroke-linejoin="miter" stroke-miterlimit="4" transform="translate(191.538062526 46.291899395)" d="M 0 0l 2.891039153 0.922686102"/><path fill="none" stroke="#0074d9" stroke-width="1.2" stroke-linecap="butt" stroke-linejoin="miter" stroke-miterlimit="4" transform="translate(194.429101679 47.214585498)" d="M 0 0l 2.891039153 1.679450102"/><path fill="none" stroke="#0074d9" stroke-width="1.2" stroke-linecap="butt" stroke-linejoin="miter" stroke-miterlimit="4" transform="translate(197.320140832 48.8940356)" d="M 0 0l 2.891039153 2.408665304"/><path fill="none" stroke="#0074d9" stroke-width="1.2" stroke-linecap="butt" stroke-linejoin="miter" stroke-miterlimit="4" transform="translate(200.211179985 51.302700904)" d="M 0 0l 2.891039153 3.098370051"/><path fill="none" stroke="#0074d9" stroke-width="1.2" stroke-linecap="butt" stroke-linejoin="miter" stroke-miterlimit="4" transform="translate(203.102219138 54.401070955)" d="M 0 0l 2.891039153 3.737250799"/><path fill="none" stroke="#0074d9" stroke-width="1.2" stroke-linecap="butt" stroke-linejoin="miter" stroke-miterlimit="4" transform="translate(205.993258291 58.138321754)" d="M 0 0l 2.891039153 4.314827689"/><path fill="none" stroke="#0074d9" stroke-width="1.2" stroke-linecap="butt" stroke-linejoin="miter" stroke-miterlimit="4" transform="translate(208.884297444 62.453149442)" d="M 0 0l 2.891039153 4.82162646"/><path fill="none" stroke="#0074d9" stroke-width="1.2" stroke-linecap="butt" stroke-linejoin="miter" stroke-miterlimit="4" transform="translate(211.775336597 67.274775902)" d="M 0 0l 2.891039153 5.249333856"/><path fill="none" stroke="#0074d9" stroke-width="1.2" stroke-linecap="butt" stroke-linejoin="miter" stroke-miterlimit="4" transform="translate(214.66637575 72.524109758)" d="M 0 0l 2.891039153 5.590933996"/><path fill="none" stroke="#0074d9" stroke-width="1.2" stroke-linecap="butt" stroke-linejoin="miter" stroke-miterlimit="4" transform="translate(217.557414903 78.115043755)" d="M 0 0l 2.891039153 5.840823454"/><path fill="none" stroke="#0074d9" stroke-width="1.2" stroke-linecap="butt" stroke-linejoin="miter" stroke-miterlimit="4" transform="translate(220.448454056 83.955867209)" d="M 0 0l 2.891039153 5.994903177"/><path fill="none" stroke="#0074d9" stroke-width="1.2" stroke-linecap="butt" stroke-linejoin="miter" stroke-miterlimit="4" transform="translate(223.339493209 89.950770385)" d="M 0 0l 2.891039153 6.050645724"/><path fill="none" stroke="#0074d9" stroke-width="1.2" stroke-linecap="butt" stroke-linejoin="miter" stroke-miterlimit="4" transform="translate(226.230532362 96.001416109)" d="M 0 0l 2.891039153 6.007136723"/><path fill="none" stroke="#0074d9" stroke-width="1.2" stroke-linecap="butt" stroke-linejoin="miter" stroke-miterlimit="4" transform="translate(229.121571515 102.008552832)" d="M 0 0l 2.891039153 5.865089875"/><path fill="none" stroke="#0074d9" stroke-width="1.2" stroke-linecap="butt" stroke-linejoin="miter" stroke-miterlimit="4" transform="translate(232.012610668 107.873642707)" d="M 0 0l 2.891039153 5.626835238"/><path fill="none" stroke="#0074d9" stroke-width="1.2" stroke-linecap="butt" stroke-linejoin="miter" stroke-miterlimit="4" transform="translate(234.903649822 113.500477945)" d="M 0 0l 2.891039153 5.296281014"/><path fill="none" stroke="#0074d9" stroke-width="1.2" stroke-linecap="butt" stroke-linejoin="miter" stroke-miterlimit="4" transform="translate(237.794688975 118.796758958)" d="M 0 0l 2.891039153 4.878849437"/><path fill="none" stroke="#0074d9" stroke-width="1.2" stroke-linecap="butt" stroke-linejoin="miter" stroke-miterlimit="4" transform="translate(240.685728128 123.675608395)" d="M 0 0l 2.891039153 4.381387831"/><path fill="none" stroke="#0074d9" stroke-width="1.2" stroke-linecap="butt" stroke-linejoin="miter" stroke-miterlimit="4" transform="translate(243.576767281 128.056996226)" d="M 0 0l 2.891039153 3.812056289"/><path fill="none" stroke="#0074d9" stroke-width="1.2" stroke-linecap="butt" stroke-linejoin="miter" stroke-miterlimit="4" transform="translate(246.467806434 131.869052515)" d="M 0 0l 2.891039153 3.180193821"/><path fill="none" stroke="#0074d9" stroke-width="1.2" stroke-linecap="butt" stroke-linejoin="miter" stroke-miterlimit="4" transform="translate(249.358845587 135.049246336)" d="M 0 0l 2.891039153 2.496165159"/><path fill="none" stroke="#0074d9" stroke-width="1.2" stroke-linecap="butt" stroke-linejoin="miter" stroke-miterlimit="4" transform="translate(252.24988474 137.545411495)" d="M 0 0l 2.891039153 1.771190743"/><path fill="none" stroke="#0074d9" stroke-width="1.2" stroke-linecap="butt" stroke-linejoin="miter" stroke-miterlimit="4" transform="translate(255.140923893 139.316602238)" d="M 0 0l 2.891039153 1.017162663"/><path fill="none" stroke="#0074d9" stroke-width="1.2" stroke-linecap="butt" stroke-linejoin="miter" stroke-miterlimit="4" transform="translate(258.031963046 140.333764901)" d="M 0 0l 2.891039153 0.246449594"/><path fill="none" stroke="#0074d9" stroke-width="1.2" stroke-linecap="butt" stroke-linejoin="miter" stroke-miterlimit="4" transform="translate(260.923002199 140.051908392)" d="M 0 0m 0 0.528306103l 2.891039153 -0.528306103"/><path fill="none" stroke="#0074d9" stroke-width="1.2" stroke-linecap="butt" stroke-linejoin="miter" stroke-miterlimit="4" transform="translate(263.814041352 138.757512642)" d="M 0 0m 0 1.29439575l 2.891039153 -1.29439575"/><path fill="none" stroke="#0074d9" stroke-width="1.2" stroke-linecap="butt" stroke-linejoin="miter" stroke-miterlimit="4" transform="translate(266.705080505 136.718259818)" d="M 0 0m 0 2.039252823l 2.891039153 -2.039252823"/><path fill="none" stroke="#0074d9" stroke-width="1.2" stroke-linecap="butt" stroke-linejoin="miter" stroke-miterlimit="4" transform="translate(269.596119658 133.967600731)" d="M 0 0m 0 2.750659087l 2.891039153 -2.750659087"/><path fill="none" stroke="#0074d9" stroke-width="1.2" stroke-linecap="butt" stroke-linejoin="miter" stroke-miterlimit="4" transform="translate(272.487158811 130.550655716)" d="M 0 0m 0 3.416945015l 2.891039153 -3.416945015"/><path fill="none" stroke="#0074d9" stroke-width="1.2" stroke-linecap="butt" stroke-linejoin="miter" stroke-miterlimit="4" transform="translate(275.378197964 126.523474507)" d="M 0 0m 0 4.027181209l 2.891039153 -4.027181209"/><path fill="none" stroke="#0074d9" stroke-width="1.2" stroke-linecap="butt" stroke-linejoin="miter" stroke-miterlimit="4" transform="translate(278.269237117 121.952116824)" d="M 0 0m 0 4.571357683l 2.891039153 -4.571357683"/><path fill="none" stroke="#0074d9" stroke-width="1.2" stroke-linecap="butt" stroke-linejoin="miter" stroke-miterlimit="4" transform="translate(281.160276271 116.911568766)" d="M 0 0m 0 5.040548058l 2.891039153 -5.040548058"/><path fill="none" stroke="#0074d9" stroke-width="1.2" stroke-linecap="butt" stroke-linejoin="miter" stroke-miterlimit="4" transform="translate(284.051315424 111.48451278)" d="M 0 0m 0 5.427055986l 2.891039153 -5.427055986"/><path fill="none" stroke="#0074d9" stroke-width="1.2" stroke-linecap="butt" stroke-linejoin="miter" stroke-miterlimit="4" transform="translate(286.942354577 105.759971381)" d="M 0 0m 0 5.724541399l 2.891039153 -5.724541399"/><path fill="none" stroke="#0074d9" stroke-width="1.2" stroke-linecap="butt" stroke-linejoin="miter" stroke-miterlimit="4" transform="translate(289.83339373 99.831846876)" d="M 0 0m 0 5.928124505l 2.891039153 -5.928124505"/><path fill="none" stroke="#0074d9" stroke-width="1.2" stroke-linecap="butt" stroke-linejoin="miter" stroke-miterlimit="4" transform="translate(292.724432883 93.797381039)" d="M 0 0m 0 6.034465837l 2.891039153 -6.034465837"/><path fill="none" stroke="#0074d9" stroke-width="1.2" stroke-linecap="butt" stroke-linejoin="miter" stroke-miterlimit="4" transform="translate(295.615472036 93.349956096)" d="M 0 0m 0 0.447424943l 0.214094893 -0.447424943"/><path fill="none" stroke="#ff4136" stroke-width="1.2" stroke-linecap="butt" stroke-linejoin="miter" stroke-miterlimit="4" transform="translate(12.365 46.114223781)" d="M 0 0l 2.819674189 0.359284352"/><path fill="none" stroke="#ff4136" stroke-width="1.2" stroke-linecap="butt" stroke-linejoin="miter" stroke-miterlimit="4" transform="translate(15.184674189 46.473508133)" d="M 0 0l 2.891039153 1.137297948"/><path fill="none" stroke="#ff4136" stroke-width="1.2" stroke-linecap="butt" stroke-linejoin="miter" stroke-miterlimit="4" transform="translate(18.075713342 47.610806082)" d="M 0 0l 2.891039153 1.887562558"/><path fill="none" stroke="#ff4136" stroke-width="1.2" stroke-linecap="butt" stroke-linejoin="miter" stroke-miterlimit="4" transform="translate(20.966752495 49.49836864)" d="M 0 0l 2.891039153 2.606864605"/><path fill="none" stroke="#ff4136" stroke-width="1.2" stroke-linecap="butt" stroke-linejoin="miter" stroke-miterlimit="4" transform="translate(23.857791648 52.105233245)" d="M 0 0l 2.891039153 3.283405042"/><path fill="none" stroke="#ff4136" stroke-width="1.2" stroke-linecap="butt" stroke-linejoin="miter" stroke-miterlimit="4" transform="translate(26.748830801 55.388638287)" d="M 0 0l 2.891039153 3.906086265"/><path fill="none" stroke="#ff4136" stroke-width="1.2" stroke-linecap="butt" stroke-linejoin="miter" stroke-miterlimit="4" transform="translate(29.639869954 59.294724552)" d="M 0 0l 2.891039153 4.464694144"/><path fill="none" stroke="#ff4136" stroke-width="1.2" stroke-linecap="butt" stroke-linejoin="miter" stroke-miterlimit="4" transform="translate(32.530909107 63.759418696)" d="M 0 0l 2.891039153 4.950065574"/><path fill="none" stroke="#ff4136" stroke-width="1.2" stroke-linecap="butt" stroke-linejoin="miter" stroke-miterlimit="4" transform="translate(35.42194826 68.70948427)" d="M 0 0l 2.891039153 5.354238785"/><path fill="none" stroke="#ff4136" stroke-width="1.2" stroke-linecap="butt" stroke-linejoin="miter" stroke-miterlimit="4" transform="translate(38.312987413 74.063723055)" d="M 0 0l 2.891039153 5.670583934"/><path fill="none" stroke="#ff4136" stroke-width="1.2" stroke-linecap="butt" stroke-linejoin="miter" stroke-miterlimit="4" transform="translate(41.204026566 79.734306989)" d="M 0 0l 2.891039153 5.893911866"/><path fill="none" stroke="#ff4136" stroke-width="1.2" stroke-linecap="butt" stroke-linejoin="miter" stroke-miterlimit="4" transform="translate(44.095065719 85.628218855)" d="M 0 0l 2.891039153 6.02055923"/><path fill="none" stroke="#ff4136" stroke-width="1.2" stroke-linecap="butt" stroke-linejoin="miter" stroke-miterlimit="4" transform="translate(46.986104872 91.648778085)" d="M 0 0l 2.891039153 6.048448569"/><path fill="none" stroke="#ff4136" stroke-width="1.2" stroke-linecap="butt" stroke-linejoin="miter" stroke-miterlimit="4" transform="translate(49.877144025 97.697226653)" d="M 0 0l 2.891039153 5.977122402"/><path fill="none" stroke="#ff4136" stroke-width="1.2" stroke-linecap="butt" stroke-linejoin="miter" stroke-miterlimit="4" transform="translate(52.768183178 103.674349056)" d="M 0 0l 2.891039153 5.807750726"/><path fill="none" stroke="#ff4136" stroke-width="1.2" stroke-linecap="butt" stroke-linejoin="miter" stroke-miterlimit="4" transform="translate(55.659222332 109.482099781)" d="M 0 0l 2.891039153 5.543111822"/><path fill="none" stroke="#ff4136" stroke-width="1.2" stroke-linecap="butt" stroke-linejoin="miter" stroke-miterlimit="4" transform="translate(58.550261485 115.025211603)" d="M 0 0l 2.891039153 5.187546685"/><path fill="none" stroke="#ff4136" stroke-width="1.2" stroke-linecap="butt" stroke-linejoin="miter" stroke-miterlimit="4" transform="translate(61.441300638 120.212758288)" d="M 0 0l 2.891039153 4.746887814"/><path fill="none" stroke="#ff4136" stroke-width="1.2" stroke-linecap="butt" stroke-linejoin="miter" stroke-miterlimit="4" transform="translate(64.332339791 124.959646102)" d="M 0 0l 2.891039153 4.228363543"/><path fill="none" stroke="#ff4136" stroke-width="1.2" stroke-linecap="butt" stroke-linejoin="miter" stroke-miterlimit="4" transform="translate(67.223378944 129.188009645)" d="M 0 0l 2.891039153 3.640479463"/><path fill="none" stroke="#ff4136" stroke-width="1.2" stroke-linecap="butt" stroke-linejoin="miter" stroke-miterlimit="4" transform="translate(70.114418097 132.828489108)" d="M 0 0l 2.891039153 2.992878912"/><path fill="none" stroke="#ff4136" stroke-width="1.2" stroke-linecap="butt" stroke-linejoin="miter" stroke-miterlimit="4" transform="translate(73.00545725 135.82136802)" d="M 0 0l 2.891039153 2.29618478"/><path fill="none" stroke="#ff4136" stroke-width="1.2" stroke-linecap="butt" stroke-linejoin="miter" stroke-miterlimit="4" transform="translate(75.896496403 138.1175528)" d="M 0 0l 2.891039153 1.561825265"/><path fill="none" stroke="#ff4136" stroke-width="1.2" stroke-linecap="butt" stroke-linejoin="miter" stroke-miterlimit="4" transform="translate(78.787535556 139.679378064)" d="M 0 0l 2.891039153 0.801846405"/><path fill="none" stroke="#ff4136" stroke-width="1.2" stroke-linecap="butt" stroke-linejoin="miter" stroke-miterlimit="4" transform="translate(81.678574709 140.48122447)" d="M 0 0l 2.891039153 0.028714488"/><path fill="none" stroke="#ff4136" stroke-width="1.2" stroke-linecap="butt" stroke-linejoin="miter" stroke-miterlimit="4" transform="translate(84.569613862 139.765050511)" d="M 0 0m 0 0.744888447l 2.891039153 -0.744888447"/><path fill="none" stroke="#ff4136" stroke-width="1.2" stroke-linecap="butt" stroke-linejoin="miter" stroke-miterlimit="4" transform="translate(87.460653015 138.258777881)" d="M 0 0m 0 1.506272631l 2.891039153 -1.506272631"/><path fill="none" stroke="#ff4136" stroke-width="1.2" stroke-linecap="butt" stroke-linejoin="miter" stroke-miterlimit="4" transform="translate(90.351692168 136.015829154)" d="M 0 0m 0 2.242948726l 2.891039153 -2.242948726"/><path fill="none" stroke="#ff4136" stroke-width="1.2" stroke-linecap="butt" stroke-linejoin="miter" stroke-miterlimit="4" transform="translate(93.242731321 133.07299646)" d="M 0 0m 0 2.942832694l 2.891039153 -2.942832694"/><path fill="none" stroke="#ff4136" stroke-width="1.2" stroke-linecap="butt" stroke-linejoin="miter" stroke-miterlimit="4" transform="translate(96.133770474 129.478552446)" d="M 0 0m 0 3.594444013l 2.891039153 -3.594444013"/><path fill="none" stroke="#ff4136" stroke-width="1.2" stroke-linecap="butt" stroke-linejoin="miter" stroke-miterlimit="4" transform="translate(99.024809627 125.291458445)" d="M 0 0m 0 4.187094001l 2.891039153 -4.187094001"/><path fill="none" stroke="#ff4136" stroke-width="1.2" stroke-linecap="butt" stroke-linejoin="miter" stroke-miterlimit="4" transform="translate(101.915848781 120.580397301)" d="M 0 0m 0 4.711061144l 2.891039153 -4.711061144"/><path fill="none" stroke="#ff4136" stroke-width="1.2" stroke-linecap="butt" stroke-linejoin="miter" stroke-miterlimit="4" transform="translate(104.806887934 115.422646733)" d="M 0 0m 0 5.157750568l 2.891039153 -5.157750568"/><path fill="none" stroke="#ff4136" stroke-width="1.2" stroke-linecap="butt" stroke-linejoin="miter" stroke-miterlimit="4" transform="translate(107.697927087 109.902811715)" d="M 0 0m 0 5.519835018l 2.891039153 -5.519835018"/><path fill="none" stroke="#ff4136" stroke-width="1.2" stroke-linecap="butt" stroke-linejoin="miter" stroke-miterlimit="4" transform="translate(110.58896624 104.111436661)" d="M 0 0m 0 5.791375055l 2.891039153 -5.791375055"/><path fill="none" stroke="#ff4136" stroke-width="1.2" stroke-linecap="butt" stroke-linejoin="miter" stroke-miterlimit="4" transform="translate(113.480005393 98.143520179)" d="M 0 0m 0 5.967916482l 2.891039153 -5.967916482"/><path fill="none" stroke="#ff4136" stroke-width="1.2" stroke-linecap="butt" stroke-linejoin="miter" stroke-miterlimit="4" transform="translate(116.371044546 92.096956771)" d="M 0 0m 0 6.046563408l 2.891039153 -6.046563408"/><path fill="none" stroke="#ff4136" stroke-width="1.2" stroke-linecap="butt" stroke-linejoin="miter" stroke-miterlimit="4" transform="translate(119.262083699 86.07093102)" d="M 0 0m 0 6.026025751l 2.891039153 -6.026025751"/><path fill="none" stroke="#ff4136" stroke-width="1.2" stroke-linecap="butt" stroke-linejoin="miter" stroke-miterlimit="4" transform="translate(122.153122852 80.164290619)" d="M 0 0m 0 5.906640401l 2.891039153 -5.906640401"/><path fill="none" stroke="#ff4136" stroke-width="1.2" stroke-linecap="butt" stroke-linejoin="miter" stroke-miterlimit="4" transform="translate(125.044162005 74.473924929)" d="M 0 0m 0 5.69036569l 2.891039153 -5.69036569"/><path fill="none" stroke="#ff4136" stroke-width="1.2" stroke-linecap="butt" stroke-linejoin="miter" stroke-miterlimit="4" transform="translate(127.935201158 69.093175658)" d="M 0 0m 0 5.380749272l 2.891039153 -5.380749272"/><path fill="none" stroke="#ff4136" stroke-width="1.2" stroke-linecap="butt" stroke-linejoin="miter" stroke-miterlimit="4" transform="translate(130.826240311 64.110305729)" d="M 0 0m 0 4.982869929l 2.891039153 -4.982869929"/><path fill="none" stroke="#ff4136" stroke-width="1.2" stroke-linecap="butt" stroke-linejoin="miter" stroke-miterlimit="4" transform="translate(133.717279464 59.607051468)" d="M 0 0m 0 4.503254261l 2.891039153 -4.503254261"/><path fill="none" stroke="#ff4136" stroke-width="1.2" stroke-linecap="butt" stroke-linejoin="miter" stroke-miterlimit="4" transform="translate(136.608318617 55.657281842)" d="M 0 0m 0 3.949769625l 2.891039153 -3.949769625"/><path fill="none" stroke="#ff4136" stroke-width="1.2" stroke-linecap="butt" stroke-linejoin="miter" stroke-miterlimit="4" transform="translate(139.49935777 52.325786754)" d="M 0 0m 0 3.331495088l 2.891039153 -3.331495088"/><path fill="none" stroke="#ff4136" stroke-width="1.2" stroke-linecap="butt" stroke-linejoin="miter" stroke-miterlimit="4" transform="translate(142.390396923 49.667214263)" d="M 0 0m 0 2.658572492l 2.891039153 -2.658572492"/><path fill="none" stroke="#ff4136" stroke-width="1.2" stroke-linecap="butt" stroke-linejoin="miter" stroke-miterlimit="4" transform="translate(145.281436077 47.725174165)" d="M 0 0m 0 1.942040098l 2.891039153 -1.942040098"/><path fill="none" stroke="#ff4136" stroke-width="1.2" stroke-linecap="butt" stroke-linejoin="miter" stroke-miterlimit="4" transform="translate(148.17247523 46.531522644)" d="M 0 0m 0 1.193651521l 2.891039153 -1.193651521"/><path fill="none" stroke="#ff4136" stroke-width="1.2" stroke-linecap="butt" stroke-linejoin="miter" stroke-miterlimit="4" transform="translate(151.063514383 46.105839719)" d="M 0 0m 0 0.425682924l 2.891039153 -0.425682924"/><path fill="none" stroke="#ff4136" stroke-width="1.2" stroke-linecap="butt" stroke-linejoin="miter" stroke-miterlimit="4" transform="translate(153.954553536 46.105839719)" d="M 0 0l 2.891039153 0.349268347"/><path fill="none" stroke="#ff4136" stroke-width="1.2" stroke-linecap="butt" stroke-linejoin="miter" stroke-miterlimit="4" transform="translate(156.845592689 46.455108066)" d="M 0 0l 2.891039153 1.118490407"/><path fill="none" stroke="#ff4136" stroke-width="1.2" stroke-linecap="butt" stroke-linejoin="miter" stroke-miterlimit="4" transform="translate(159.736631842 47.573598473)" d="M 0 0l 2.891039153 1.869365351"/><path fill="none" stroke="#ff4136" stroke-width="1.2" stroke-linecap="butt" stroke-linejoin="miter" stroke-miterlimit="4" transform="translate(162.627670995 49.442963823)" d="M 0 0l 2.891039153 2.589576228"/><path fill="none" stroke="#ff4136" stroke-width="1.2" stroke-linecap="butt" stroke-linejoin="miter" stroke-miterlimit="4" transform="translate(165.518710148 52.032540051)" d="M 0 0l 2.891039153 3.267309086"/><path fill="none" stroke="#ff4136" stroke-width="1.2" stroke-linecap="butt" stroke-linejoin="miter" stroke-miterlimit="4" transform="translate(168.409749301 55.299849137)" d="M 0 0l 2.891039153 3.891446758"/><path fill="none" stroke="#ff4136" stroke-width="1.2" stroke-linecap="butt" stroke-linejoin="miter" stroke-miterlimit="4" transform="translate(171.300788454 59.191295895)" d="M 0 0l 2.891039153 4.451751225"/><path fill="none" stroke="#ff4136" stroke-width="1.2" stroke-linecap="butt" stroke-linejoin="miter" stroke-miterlimit="4" transform="translate(174.191827607 63.643047119)" d="M 0 0l 2.891039153 4.939031552"/><path fill="none" stroke="#ff4136" stroke-width="1.2" stroke-linecap="butt" stroke-linejoin="miter" stroke-miterlimit="4" transform="translate(177.08286676 68.582078671)" d="M 0 0l 2.891039153 5.345294656"/><path fill="none" stroke="#ff4136" stroke-width="1.2" stroke-linecap="butt" stroke-linejoin="miter" stroke-miterlimit="4" transform="translate(179.973905913 73.927373327)" d="M 0 0l 2.891039153 5.663876413"/><path fill="none" stroke="#ff4136" stroke-width="1.2" stroke-linecap="butt" stroke-linejoin="miter" stroke-miterlimit="4" transform="translate(182.864945066 79.59124974)" d="M 0 0l 2.891039153 5.889550979"/><path fill="none" stroke="#ff4136" stroke-width="1.2" stroke-linecap="butt" stroke-linejoin="miter" stroke-miterlimit="4" transform="translate(185.755984219 85.48080072)" d="M 0 0l 2.891039153 6.018616511"/><path fill="none" stroke="#ff4136" stroke-width="1.2" stroke-linecap="butt" stroke-linejoin="miter" stroke-miterlimit="4" transform="translate(188.647023372 91.49941723)" d="M 0 0l 2.891039153 6.048955885"/><path fill="none" stroke="#ff4136" stroke-width="1.2" stroke-linecap="butt" stroke-linejoin="miter" stroke-miterlimit="4" transform="translate(191.538062526 97.548373116)" d="M 0 0l 2.891039153 5.980071432"/><path fill="none" stroke="#ff4136" stroke-width="1.2" stroke-linecap="butt" stroke-linejoin="miter" stroke-miterlimit="4" transform="translate(194.429101679 103.528444548)" d="M 0 0l 2.891039153 5.813093095"/><path fill="none" stroke="#ff4136" stroke-width="1.2" stroke-linecap="butt" stroke-linejoin="miter" stroke-miterlimit="4" transform="translate(197.320140832 109.341537643)" d="M 0 0l 2.891039153 5.550759897"/><path fill="none" stroke="#ff4136" stroke-width="1.2" stroke-linecap="butt" stroke-linejoin="miter" stroke-miterlimit="4" transform="translate(200.211179985 114.89229754)" d="M 0 0l 2.891039153 5.197375011"/><path fill="none" stroke="#ff4136" stroke-width="1.2" stroke-linecap="butt" stroke-linejoin="miter" stroke-miterlimit="4" transform="translate(203.102219138 120.089672551)" d="M 0 0l 2.891039153 4.758735173"/><path fill="none" stroke="#ff4136" stroke-width="1.2" stroke-linecap="butt" stroke-linejoin="miter" stroke-miterlimit="4" transform="translate(205.993258291 124.848407725)" d="M 0 0l 2.891039153 4.242035596"/><path fill="none" stroke="#ff4136" stroke-width="1.2" stroke-linecap="butt" stroke-linejoin="miter" stroke-miterlimit="4" transform="translate(208.884297444 129.090443321)" d="M 0 0l 2.891039153 3.655751942"/><path fill="none" stroke="#ff4136" stroke-width="1.2" stroke-linecap="butt" stroke-linejoin="miter" stroke-miterlimit="4" transform="translate(211.775336597 132.746195263)" d="M 0 0l 2.891039153 3.009501295"/><path fill="none" stroke="#ff4136" stroke-width="1.2" stroke-linecap="butt" stroke-linejoin="miter" stroke-miterlimit="4" transform="translate(214.66637575 135.755696558)" d="M 0 0l 2.891039153 2.313884403"/><path fill="none" stroke="#ff4136" stroke-width="1.2" stroke-linecap="butt" stroke-linejoin="miter" stroke-miterlimit="4" transform="translate(217.557414903 138.069580961)" d="M 0 0l 2.891039153 1.580311792"/><path fill="none" stroke="#ff4136" stroke-width="1.2" stroke-linecap="butt" stroke-linejoin="miter" stroke-miterlimit="4" transform="translate(220.448454056 139.649892752)" d="M 0 0l 2.891039153 0.820816594"/><path fill="none" stroke="#ff4136" stroke-width="1.2" stroke-linecap="butt" stroke-linejoin="miter" stroke-miterlimit="4" transform="translate(223.339493209 140.470709346)" d="M 0 0l 2.891039153 0.047857161"/><path fill="none" stroke="#ff4136" stroke-width="1.2" stroke-linecap="butt" stroke-linejoin="miter" stroke-miterlimit="4" transform="translate(226.230532362 139.792679211)" d="M 0 0m 0 0.725887296l 2.891039153 -0.725887296"/><path fill="none" stroke="#ff4136" stroke-width="1.2" stroke-linecap="butt" stroke-linejoin="miter" stroke-miterlimit="4" transform="translate(229.121571515 138.304954524)" d="M 0 0m 0 1.487724686l 2.891039153 -1.487724686"/><path fill="none" stroke="#ff4136" stroke-width="1.2" stroke-linecap="butt" stroke-linejoin="miter" stroke-miterlimit="4" transform="translate(232.012610668 136.079796286)" d="M 0 0m 0 2.225158239l 2.891039153 -2.225158239"/><path fill="none" stroke="#ff4136" stroke-width="1.2" stroke-linecap="butt" stroke-linejoin="miter" stroke-miterlimit="4" transform="translate(234.903649822 133.153704796)" d="M 0 0m 0 2.926091489l 2.891039153 -2.926091489"/><path fill="none" stroke="#ff4136" stroke-width="1.2" stroke-linecap="butt" stroke-linejoin="miter" stroke-miterlimit="4" transform="translate(237.794688975 129.574678092)" d="M 0 0m 0 3.579026705l 2.891039153 -3.579026705"/><path fill="none" stroke="#ff4136" stroke-width="1.2" stroke-linecap="butt" stroke-linejoin="miter" stroke-miterlimit="4" transform="translate(240.685728128 125.401424606)" d="M 0 0m 0 4.173253486l 2.891039153 -4.173253486"/><path fill="none" stroke="#ff4136" stroke-width="1.2" stroke-linecap="butt" stroke-linejoin="miter" stroke-miterlimit="4" transform="translate(243.576767281 120.702400151)" d="M 0 0m 0 4.699024455l 2.891039153 -4.699024455"/><path fill="none" stroke="#ff4136" stroke-width="1.2" stroke-linecap="butt" stroke-linejoin="miter" stroke-miterlimit="4" transform="translate(246.467806434 115.554685003)" d="M 0 0m 0 5.147715148l 2.891039153 -5.147715148"/><path fill="none" stroke="#ff4136" stroke-width="1.2" stroke-linecap="butt" stroke-linejoin="miter" stroke-miterlimit="4" transform="translate(249.358845587 110.042719521)" d="M 0 0m 0 5.511965482l 2.891039153 -5.511965482"/><path fill="none" stroke="#ff4136" stroke-width="1.2" stroke-linecap="butt" stroke-linejoin="miter" stroke-miterlimit="4" transform="translate(252.24988474 104.256919029)" d="M 0 0m 0 5.785800492l 2.891039153 -5.785800492"/><path fill="none" stroke="#ff4136" stroke-width="1.2" stroke-linecap="butt" stroke-linejoin="miter" stroke-miterlimit="4" transform="translate(255.140923893 98.292190695)" d="M 0 0m 0 5.964728334l 2.891039153 -5.964728334"/><path fill="none" stroke="#ff4136" stroke-width="1.2" stroke-linecap="butt" stroke-linejoin="miter" stroke-miterlimit="4" transform="translate(258.031963046 92.246376724)" d="M 0 0m 0 6.045813971l 2.891039153 -6.045813971"/><path fill="none" stroke="#ff4136" stroke-width="1.2" stroke-linecap="butt" stroke-linejoin="miter" stroke-miterlimit="4" transform="translate(260.923002199 86.218649404)" d="M 0 0m 0 6.02772732l 2.891039153 -6.02772732"/><path fill="none" stroke="#ff4136" stroke-width="1.2" stroke-linecap="butt" stroke-linejoin="miter" stroke-miterlimit="4" transform="translate(263.814041352 80.307884342)" d="M 0 0m 0 5.910765062l 2.891039153 -5.910765062"/><path fill="none" stroke="#ff4136" stroke-width="1.2" stroke-linecap="butt" stroke-linejoin="miter" stroke-miterlimit="4" transform="translate(266.705080505 74.611038556)" d="M 0 0m 0 5.696845785l 2.891039153 -5.696845785"/><path fill="none" stroke="#ff4136" stroke-width="1.2" stroke-linecap="butt" stroke-linejoin="miter" stroke-miterlimit="4" transform="translate(269.596119658 69.22156005)" d="M 0 0m 0 5.389478506l 2.891039153 -5.389478506"/><path fill="none" stroke="#ff4136" stroke-width="1.2" stroke-linecap="butt" stroke-linejoin="miter" stroke-miterlimit="4" transform="translate(272.487158811 64.227854938)" d="M 0 0m 0 4.993705112l 2.891039153 -4.993705112"/><path fill="none" stroke="#ff4136" stroke-width="1.2" stroke-linecap="butt" stroke-linejoin="miter" stroke-miterlimit="4" transform="translate(275.378197964 59.71183728)" d="M 0 0m 0 4.516017658l 2.891039153 -4.516017658"/><path fill="none" stroke="#ff4136" stroke-width="1.2" stroke-linecap="butt" stroke-linejoin="miter" stroke-miterlimit="4" transform="translate(278.269237117 55.747585407)" d="M 0 0m 0 3.964251873l 2.891039153 -3.964251873"/><path fill="none" stroke="#ff4136" stroke-width="1.2" stroke-linecap="butt" stroke-linejoin="miter" stroke-miterlimit="4" transform="translate(281.160276271 52.400126781)" d="M 0 0m 0 3.347458626l 2.891039153 -3.347458626"/><path fill="none" stroke="#ff4136" stroke-width="1.2" stroke-linecap="butt" stroke-linejoin="miter" stroke-miterlimit="4" transform="translate(284.051315424 49.724371317)" d="M 0 0m 0 2.675755464l 2.891039153 -2.675755464"/><path fill="none" stroke="#ff4136" stroke-width="1.2" stroke-linecap="butt" stroke-linejoin="miter" stroke-miterlimit="4" transform="translate(286.942354577 47.764210672)" d="M 0 0m 0 1.960160645l 2.891039153 -1.960160645"/><path fill="none" stroke="#ff4136" stroke-width="1.2" stroke-linecap="butt" stroke-linejoin="miter" stroke-miterlimit="4" transform="translate(289.83339373 46.551798271)" d="M 0 0m 0 1.212412401l 2.891039153 -1.212412401"/><path fill="none" stroke="#ff4136" stroke-width="1.2" stroke-linecap="butt" stroke-linejoin="miter" stroke-miterlimit="4" transform="translate(292.724432883 46.107021876)" d="M 0 0m 0 0.444776395l 2.891039153 -0.444776395"/><path fill="none" stroke="#ff4136" stroke-width="1.2" stroke-linecap="butt" stroke-linejoin="miter" stroke-miterlimit="4" transform="translate(295.615472036 46.107021876)" d="M 0 0l 0.214094893 0.024449549"/><path fill="none" transform="translate(173.351354331 31.863893987)" d="M 0 0h 32.358v 14.241h -32.358v -14.241Z "/><g transform="translate(173.351354236 31.863893892)"><g transform="matrix(1 0 0 -1 2 9.513)"><use xlink:href="#g316D45BB6425B2B3622251A815E109FB" x="0" y="0" fill="#000000" fill-rule="nonzero"/><use xlink:href="#g8081A8237C24C95555CB26B7002BAA27" x="4.334" y="0" fill="#000000" fill-rule="nonzero"/><use xlink:href="#gA5D58AB94CE34C72AAD44A3326399386" x="7.392" y="0" fill="#000000" fill-rule="nonzero"/></g><g transform="matrix(1 0 0 -1 15.508 9.513)"><use xlink:href="#g9C5E01F97914784D6046F24928CB3533" x="0" y="0" fill="#000000" fill-rule="nonzero"/></g><g transform="matrix(1 0 0 -1 19.787 9.513)"><use xlink:href="#g7FDD4349A49914F62F30F23AE9794251" x="0" y="0" fill="#000000" fill-rule="nonzero"/></g><g transform="matrix(1 0 0 -1 26.079 9.513)"><use xlink:href="#g44903F1336FFA3AC82F2FDAECC383B22" x="0" y="0" fill="#000000" fill-rule="nonzero"/></g></g><path fill="none" transform="translate(262.261566929 31.863893987)" d="M 0 0h 33.568v 14.241h -33.568v -14.241Z "/><g transform="translate(262.26156685 31.863893892)"><g transform="matrix(1 0 0 -1 2 9.513)"><use xlink:href="#gC88DEEEC0C223773BFB3C83D51935C1E" x="0" y="0" fill="#000000" fill-rule="nonzero"/><use xlink:href="#g3BAF23AB431BDA7FCE4D7083470CFBD3" x="4.884" y="0" fill="#000000" fill-rule="nonzero"/><use xlink:href="#g316D45BB6425B2B3622251A815E109FB" x="10.384" y="0" fill="#000000" fill-rule="nonzero"/></g><g transform="matrix(1 0 0 -1 16.718 9.513)"><use xlink:href="#g9C5E01F97914784D6046F24928CB3533" x="0" y="0" fill="#000000" fill-rule="nonzero"/></g><g transform="matrix(1 0 0 -1 20.997 9.513)"><use xlink:href="#g7FDD4349A49914F62F30F23AE9794251" x="0" y="0" fill="#000000" fill-rule="nonzero"/></g><g transform="matrix(1 0 0 -1 27.289 9.513)"><use xlink:href="#g44903F1336FFA3AC82F2FDAECC383B22" x="0" y="0" fill="#000000" fill-rule="nonzero"/></g></g></g><defs><symbol id="gE8ADFB55DBC888FEFF5896D44F418AFF" overflow="visible"><path d="M 0 0m 6.98 2.7h -6.18c -0.16 0 -0.24 -0.07 -0.24 -0.2c 0 -0.13 0.08 -0.2 0.24 -0.2h 6.18c 0.16 0 0.24 0.07 0.24 0.2c 0 0.12 -0.12 0.2 -0.24 0.2Z "/></symbol><symbol id="g187F960CD8D343F130EAFAB63E4BE0DE" overflow="visible"><path d="M 0 0m 2.37 6.66c -0.51 0 -0.94 -0.18 -1.31 -0.54c -0.37 -0.36 -0.56 -0.78 -0.56 -1.29c 0 -0.34 0.25 -0.59 0.56 -0.59c 0.3 0 0.55 0.26 0.55 0.56c 0 0.33 -0.24 0.56 -0.56 0.56c -0.03 0 -0.05 0 -0.07 -0.01c 0.19 0.49 0.63 0.92 1.26 0.92c 0.82 0 1.28 -0.71 1.28 -1.57c 0 -0.67 -0.34 -1.39 -1.02 -2.15l -1.88 -2.12c -0.13 -0.15 -0.12 -0.14 -0.12 -0.43h 3.71l 0.29 1.8h -0.33c -0.08 -0.51 -0.15 -0.8 -0.21 -0.89c -0.05 -0.05 -0.35 -0.07 -0.9 -0.07h -1.67l 0.97 0.95c 0.68 0.64 1.54 1.33 1.83 1.86c 0.2 0.35 0.3 0.7 0.3 1.05c 0 1.18 -0.92 1.96 -2.12 1.96Z "/></symbol><symbol id="g5CF1D204351052BE9DFCEAA5213E13C0" overflow="visible"><path d="M 0 0m 5.24 4.31h -3.3c -0.41 0 -0.77 -0.16 -1.06 -0.47c -0.14 -0.15 -0.61 -0.79 -0.61 -0.92c 0.04 -0.07 0.04 -0.13 0.16 -0.13c 0.07 0 0.13 0.04 0.19 0.13c 0.32 0.49 0.73 0.74 1.22 0.74h 0.51c -0.23 -0.87 -0.65 -1.94 -1.25 -3.21c -0.05 -0.12 -0.08 -0.21 -0.08 -0.26c 0 -0.2 0.11 -0.3 0.32 -0.3c 0.19 0 0.33 0.11 0.42 0.32c 0.18 0.57 0.31 1.01 0.38 1.31l 0.55 2.14h 1.03c -0.27 -1.19 -0.41 -2.02 -0.41 -2.49c 0 -0.49 0.11 -1.28 0.48 -1.28c 0.21 0 0.44 0.2 0.44 0.41c 0 0.05 -0.02 0.13 -0.06 0.23c -0.19 0.47 -0.28 1 -0.28 1.61c 0 0.47 0.06 0.98 0.17 1.52h 1.09c 0.35 0 0.52 0.12 0.52 0.37c 0 0.23 -0.18 0.28 -0.43 0.28Z "/></symbol><symbol id="g769096BA7538C9DB0AE1F13573F95E13" overflow="visible"><path d="M 0 0m 4.63 2.26c 0.13 0 0.27 0.23 0.27 0.33c 0 0.08 -0.04 0.17 -0.14 0.17h -3.91c -0.12 0 -0.25 -0.19 -0.25 -0.34c 0 -0.08 0.06 -0.16 0.15 -0.16Z "/></symbol><symbol id="g90E80DFA2ED72D656149A2EAA0923C99" overflow="visible"><path d="M 0 0m 2.88 1.22v 3.47c 0 0.6 0.01 1.21 0.03 1.34c 0 0.05 -0.02 0.05 -0.06 0.05c -0.55 -0.34 -1.08 -0.59 -1.96 -1c 0.02 -0.11 0.06 -0.21 0.15 -0.27c 0.46 0.19 0.68 0.25 0.87 0.25c 0.17 0 0.2 -0.24 0.2 -0.58v -3.26c 0 -0.83 -0.27 -0.88 -0.97 -0.91c -0.06 -0.06 -0.06 -0.27 0 -0.33c 0.49 0.01 0.85 0.02 1.39 0.02c 0.48 0 0.72 -0.01 1.22 -0.02c 0.06 0.06 0.06 0.27 0 0.33c -0.7 0.03 -0.87 0.08 -0.87 0.91Z "/></symbol><symbol id="g8F3B43BF00419FE170D741E9CC615A47" overflow="visible"><path d="M 0 0m 5.27 3.73c 0 0.46 -0.45 0.69 -0.95 0.69c -0.43 0 -0.77 -0.23 -1.03 -0.69c -0.21 0.46 -0.56 0.69 -1.07 0.69c -0.49 0 -0.89 -0.23 -1.21 -0.68c -0.27 -0.39 -0.41 -0.68 -0.41 -0.87c 0 -0.09 0.05 -0.14 0.15 -0.14c 0.09 0 0.15 0.05 0.17 0.14c 0.19 0.58 0.61 1.26 1.28 1.26c 0.33 0 0.49 -0.21 0.49 -0.62c 0 -0.21 -0.18 -0.99 -0.53 -2.33c -0.17 -0.67 -0.47 -1 -0.9 -1c -0.14 0 -0.27 0.03 -0.38 0.08c 0.26 0.1 0.39 0.28 0.39 0.54c 0 0.26 -0.13 0.39 -0.4 0.39c -0.33 0 -0.58 -0.28 -0.58 -0.61c 0 -0.46 0.47 -0.69 0.96 -0.69c 0.42 0 0.76 0.23 1.03 0.69c 0.19 -0.46 0.55 -0.69 1.07 -0.69c 0.48 0 0.88 0.23 1.2 0.68c 0.27 0.39 0.41 0.68 0.41 0.87c 0 0.09 -0.05 0.14 -0.15 0.14c -0.09 0 -0.14 -0.05 -0.17 -0.14c -0.17 -0.57 -0.62 -1.26 -1.27 -1.26c -0.33 0 -0.5 0.2 -0.5 0.61c 0 0.13 0.05 0.41 0.16 0.86l 0.34 1.35c 0.19 0.75 0.5 1.13 0.94 1.13c 0.14 0 0.27 -0.03 0.38 -0.08c -0.27 -0.09 -0.4 -0.27 -0.4 -0.54c 0 -0.26 0.14 -0.39 0.41 -0.39c 0.32 0 0.57 0.29 0.57 0.61Z "/></symbol><symbol id="gF318040A2BA9CD3C6D4E0BBBF71596E3" overflow="visible"><path d="M 0 0m 1.63 4.42c -0.45 0 -0.8 -0.25 -1.05 -0.75c -0.19 -0.39 -0.29 -0.66 -0.29 -0.81c 0 -0.09 0.05 -0.14 0.16 -0.14c 0.14 0 0.15 0.06 0.19 0.21c 0.23 0.79 0.55 1.19 0.96 1.19c 0.13 0 0.2 -0.09 0.2 -0.27c 0 -0.16 -0.05 -0.39 -0.16 -0.68c -0.38 -1.03 -0.57 -1.72 -0.57 -2.09c 0 -0.76 0.47 -1.21 1.24 -1.21c 0.33 0 0.64 0.12 0.92 0.36c -0.35 -1.32 -0.9 -1.98 -1.65 -1.98c -0.34 0 -0.57 0.11 -0.69 0.33c 0.4 0.02 0.6 0.21 0.6 0.57c 0 0.25 -0.13 0.38 -0.4 0.38c -0.37 0 -0.59 -0.31 -0.59 -0.68c 0 -0.55 0.5 -0.9 1.08 -0.9c 1.15 0 2.09 1.06 2.34 2.04l 0.94 3.78c 0.03 0.11 0.04 0.19 0.04 0.24c 0 0.2 -0.11 0.3 -0.32 0.3c -0.16 0 -0.29 -0.08 -0.38 -0.23c -0.06 -0.21 -0.11 -0.39 -0.14 -0.54l -0.64 -2.57c -0.1 -0.36 -0.63 -0.81 -1.08 -0.81c -0.38 0 -0.57 0.25 -0.57 0.76c 0 0.42 0.17 1.06 0.5 1.92c 0.13 0.35 0.2 0.59 0.2 0.73c 0 0.49 -0.35 0.85 -0.84 0.85Z "/></symbol><symbol id="g316D45BB6425B2B3622251A815E109FB" overflow="visible"><path d="M 0 0m 3.96 1.43c 0 0.836 -0.572 1.364 -1.705 1.584c -0.517 0.099 -0.847 0.22 -1.023 0.341c -0.176 0.121 -0.264 0.297 -0.264 0.506c 0 0.517 0.385 0.77 1.155 0.77c 0.748 0 1.155 -0.418 1.21 -1.265c 0.011 -0.088 0.066 -0.132 0.176 -0.132c 0.121 0 0.187 0.099 0.187 0.297v 1.089c 0 0.209 -0.055 0.308 -0.165 0.308c -0.121 0 -0.286 -0.198 -0.396 -0.286c -0.275 0.187 -0.616 0.286 -1.012 0.286c -0.979 0 -1.76 -0.44 -1.76 -1.375c 0 -0.374 0.154 -0.693 0.473 -0.946c 0.385 -0.319 0.748 -0.385 1.441 -0.506c 0.715 -0.143 1.078 -0.462 1.078 -0.957c 0 -0.627 -0.385 -0.946 -1.166 -0.946c -0.759 0 -1.243 0.506 -1.452 1.507c -0.033 0.143 -0.088 0.22 -0.187 0.22c -0.121 0 -0.187 -0.11 -0.187 -0.319v -1.419c 0 -0.209 0.055 -0.308 0.165 -0.308c 0.033 0 0.088 0.033 0.176 0.11c 0.198 0.176 0.11 0.143 0.308 0.341c 0.319 -0.297 0.715 -0.451 1.177 -0.451c 1.045 0 1.771 0.539 1.771 1.551Z "/></symbol><symbol id="g8081A8237C24C95555CB26B7002BAA27" overflow="visible"><path d="M 0 0m 2.134 6.611c 0 0.33 -0.275 0.616 -0.605 0.616c -0.33 0 -0.616 -0.286 -0.616 -0.616c 0 -0.33 0.275 -0.627 0.605 -0.627c 0.341 0 0.616 0.286 0.616 0.627Z m -0.561 -6.578l 1.144 -0.033v 0.429c -0.363 0 -0.583 0.022 -0.649 0.066c -0.066 0.044 -0.088 0.165 -0.088 0.363v 4.037l -1.573 -0.132v -0.418c 0.363 0 0.594 -0.033 0.671 -0.088c 0.077 -0.055 0.11 -0.209 0.11 -0.462v -2.926c 0 -0.209 -0.033 -0.341 -0.11 -0.385c -0.077 -0.044 -0.319 -0.055 -0.715 -0.055v -0.429Z "/></symbol><symbol id="gA5D58AB94CE34C72AAD44A3326399386" overflow="visible"><path d="M 0 0m 3.454 4.543c 0.495 0 0.748 -0.385 0.748 -1.166v -2.508c 0 -0.209 -0.033 -0.341 -0.11 -0.385c -0.077 -0.044 -0.319 -0.066 -0.726 -0.066v -0.418l 1.265 0.033l 1.254 -0.033v 0.418c -0.352 0 -0.583 0.011 -0.693 0.044c -0.11 0.033 -0.154 0.11 -0.154 0.242v 2.057c 0 0.517 -0.011 0.88 -0.044 1.089c -0.11 0.671 -0.605 1.012 -1.474 1.012c -0.693 0 -1.21 -0.33 -1.551 -0.99v 0.99l -1.617 -0.121v -0.418c 0.396 0 0.638 -0.033 0.726 -0.099c 0.088 -0.066 0.121 -0.209 0.121 -0.462v -2.893c 0 -0.209 -0.044 -0.341 -0.121 -0.385c -0.077 -0.044 -0.319 -0.066 -0.726 -0.066v -0.418l 1.265 0.033l 1.254 -0.033v 0.418c -0.407 0 -0.638 0.022 -0.715 0.066c -0.077 0.044 -0.121 0.176 -0.121 0.385v 1.98c 0 0.891 0.561 1.694 1.419 1.694Z "/></symbol><symbol id="g9C5E01F97914784D6046F24928CB3533" overflow="visible"><path d="M 0 0m 3.498 -2.728c 0.099 0 0.154 0.055 0.154 0.154c 0 0.033 -0.022 0.077 -0.055 0.121c -0.572 0.44 -1.034 1.166 -1.375 2.167c -0.297 0.869 -0.451 1.727 -0.451 2.574v 0.924c 0 0.847 0.154 1.705 0.451 2.574c 0.341 1.001 0.803 1.727 1.375 2.167c 0.033 0.033 0.055 0.077 0.055 0.121c 0 0.099 -0.055 0.154 -0.154 0.154c -0.011 0 -0.044 -0.011 -0.077 -0.033c -0.66 -0.506 -1.21 -1.254 -1.661 -2.255c -0.429 -0.957 -0.649 -1.859 -0.649 -2.728v -0.924c 0 -0.869 0.22 -1.771 0.649 -2.728c 0.451 -1.001 1.001 -1.749 1.661 -2.255c 0.033 -0.022 0.066 -0.033 0.077 -0.033Z "/></symbol><symbol id="g7FDD4349A49914F62F30F23AE9794251" overflow="visible"><path d="M 0 0m 5.797 4.103c 0 0.506 -0.495 0.759 -1.045 0.759c -0.473 0 -0.847 -0.253 -1.133 -0.759c -0.231 0.506 -0.616 0.759 -1.177 0.759c -0.539 0 -0.979 -0.253 -1.331 -0.748c -0.297 -0.429 -0.451 -0.748 -0.451 -0.957c 0 -0.099 0.055 -0.154 0.165 -0.154c 0.099 0 0.165 0.055 0.187 0.154c 0.209 0.638 0.671 1.386 1.408 1.386c 0.363 0 0.539 -0.231 0.539 -0.682c 0 -0.231 -0.198 -1.089 -0.583 -2.563c -0.187 -0.737 -0.517 -1.1 -0.99 -1.1c -0.154 0 -0.297 0.033 -0.418 0.088c 0.286 0.11 0.429 0.308 0.429 0.594c 0 0.286 -0.143 0.429 -0.44 0.429c -0.363 0 -0.638 -0.308 -0.638 -0.671c 0 -0.506 0.517 -0.759 1.056 -0.759c 0.462 0 0.836 0.253 1.133 0.759c 0.209 -0.506 0.605 -0.759 1.177 -0.759c 0.528 0 0.968 0.253 1.32 0.748c 0.297 0.429 0.451 0.748 0.451 0.957c 0 0.099 -0.055 0.154 -0.165 0.154c -0.099 0 -0.154 -0.055 -0.187 -0.154c -0.187 -0.627 -0.682 -1.386 -1.397 -1.386c -0.363 0 -0.55 0.22 -0.55 0.671c 0 0.143 0.055 0.451 0.176 0.946l 0.374 1.485c 0.209 0.825 0.55 1.243 1.034 1.243c 0.154 0 0.297 -0.033 0.418 -0.088c -0.297 -0.099 -0.44 -0.297 -0.44 -0.594c 0 -0.286 0.154 -0.429 0.451 -0.429c 0.352 0 0.627 0.319 0.627 0.671Z "/></symbol><symbol id="g44903F1336FFA3AC82F2FDAECC383B22" overflow="visible"><path d="M 0 0m 0.858 -2.695c 0.66 0.506 1.21 1.254 1.661 2.255c 0.429 0.957 0.649 1.859 0.649 2.728v 0.924c 0 0.869 -0.22 1.771 -0.649 2.728c -0.451 1.001 -1.001 1.749 -1.661 2.255c -0.033 0.022 -0.066 0.033 -0.077 0.033c -0.099 0 -0.154 -0.055 -0.154 -0.154c 0 -0.044 0.022 -0.088 0.055 -0.121c 0.572 -0.44 1.034 -1.166 1.375 -2.167c 0.297 -0.869 0.451 -1.727 0.451 -2.574v -0.924c 0 -0.847 -0.154 -1.705 -0.451 -2.574c -0.341 -1.001 -0.803 -1.727 -1.375 -2.167c -0.033 -0.044 -0.055 -0.088 -0.055 -0.121c 0 -0.099 0.055 -0.154 0.154 -0.154c 0.011 0 0.044 0.011 0.077 0.033Z "/></symbol><symbol id="gC88DEEEC0C223773BFB3C83D51935C1E" overflow="visible"><path d="M 0 0m 2.761 4.576c 0.462 0 0.814 -0.11 1.056 -0.33c -0.264 -0.033 -0.451 -0.275 -0.451 -0.528c 0 -0.363 0.176 -0.539 0.539 -0.539c 0.363 0 0.539 0.187 0.539 0.55c 0 0.781 -0.847 1.199 -1.694 1.199c -0.682 0 -1.243 -0.242 -1.694 -0.748c -0.451 -0.506 -0.682 -1.111 -0.682 -1.804c 0 -0.671 0.231 -1.265 0.682 -1.76c 0.451 -0.495 1.001 -0.737 1.672 -0.737c 0.55 0 0.979 0.154 1.287 0.473c 0.253 0.253 0.418 0.506 0.506 0.77c 0.033 0.099 0.044 0.165 0.044 0.209c 0 0.099 -0.066 0.143 -0.187 0.143c -0.088 0 -0.143 -0.044 -0.176 -0.132c -0.231 -0.737 -0.682 -1.111 -1.375 -1.111c -0.319 0 -0.627 0.143 -0.935 0.44c -0.363 0.341 -0.539 0.913 -0.539 1.727c 0 1.1 0.418 2.178 1.408 2.178Z "/></symbol><symbol id="g3BAF23AB431BDA7FCE4D7083470CFBD3" overflow="visible"><path d="M 0 0m 2.739 -0.121c 0.682 0 1.254 0.242 1.727 0.726c 0.473 0.484 0.715 1.067 0.715 1.749c 0 0.693 -0.231 1.298 -0.693 1.804c -0.462 0.506 -1.045 0.77 -1.738 0.77c -0.693 0 -1.265 -0.264 -1.738 -0.77c -0.473 -0.506 -0.704 -1.111 -0.704 -1.804c 0 -0.682 0.231 -1.265 0.704 -1.749c 0.473 -0.484 1.056 -0.726 1.727 -0.726Z m 0.011 0.352c -0.528 0 -0.924 0.231 -1.199 0.704c -0.176 0.308 -0.264 0.814 -0.264 1.507c 0 0.671 0.088 1.155 0.253 1.463c 0.264 0.473 0.66 0.704 1.199 0.704c 0.517 0 0.913 -0.231 1.188 -0.682c 0.187 -0.308 0.275 -0.803 0.275 -1.485c 0 -1.276 -0.374 -2.211 -1.452 -2.211Z "/></symbol></defs></svg>