<?xml version="1.0" standalone="no"?>
<!DOCTYPE svg PUBLIC "-//W3C//DTD SVG 20010904//EN"
 "http://www.w3.org/TR/2001/REC-SVG-20010904/DTD/svg10.dtd">
<svg version="1.0" xmlns="http://www.w3.org/2000/svg"
 width="858.000000pt" height="1280.000000pt" viewBox="0 0 858.000000 1280.000000"
 preserveAspectRatio="xMidYMid meet">
<metadata>
Created by potrace 1.15, written by Peter Selinger 2001-2017
</metadata>
<g transform="translate(0.000000,1280.000000) scale(0.100000,-0.100000)"
fill="#000000" stroke="none">
<path d="M4235 12794 c-998 -45 -1852 -213 -2520 -496 -381 -162 -699 -377
-868 -589 -81 -100 -150 -236 -177 -344 -19 -79 -20 -138 -20 -4965 0 -4861 0
-4885 20 -4965 91 -358 453 -682 1045 -933 598 -253 1319 -410 2210 -479 273
-21 1054 -24 1305 -5 803 60 1409 172 1961 361 779 267 1253 628 1366 1041 17
62 18 295 18 4980 0 4685 -1 4918 -18 4980 -112 409 -583 771 -1347 1035 -538
185 -1172 306 -1895 360 -198 15 -896 27 -1080 19z m1135 -138 c536 -47 963
-117 1385 -226 846 -218 1450 -570 1643 -955 73 -148 82 -332 23 -479 -44
-109 -110 -205 -211 -306 -437 -437 -1371 -768 -2535 -899 -235 -27 -400 -39
-675 -51 -311 -13 -330 -13 -330 5 0 12 -13 15 -55 15 -42 0 -55 -3 -55 -15 0
-18 -19 -18 -330 -5 -1063 46 -1974 239 -2634 559 -409 199 -686 443 -785 692
-16 41 -32 93 -36 117 l-7 42 41 0 41 0 0 60 0 60 -40 0 c-46 0 -46 0 -24 83
70 273 376 558 828 773 639 303 1473 485 2521 548 170 10 1061 -3 1235 -18z
m-4566 -1892 c15 -25 65 -84 109 -131 615 -649 2243 -1063 3977 -1012 1385 41
2561 345 3222 831 99 72 272 244 313 310 17 27 32 48 35 48 3 0 4 -2014 2
-4475 l-2 -4475 -25 -12 c-14 -6 -23 -16 -21 -22 3 -6 13 -35 22 -63 10 -29
20 -53 23 -53 11 0 -8 -246 -22 -291 -83 -256 -364 -517 -779 -723 -596 -295
-1341 -471 -2363 -558 -238 -21 -1166 -17 -1425 5 -1318 112 -2342 442 -2829
912 -140 135 -221 259 -255 392 -22 83 -22 83 24 83 l40 0 0 60 0 60 -41 0
-41 0 7 40 c4 22 3 40 -2 40 -4 0 -8 32 -8 71 0 73 0 74 45 55 11 -4 24 9 45
46 17 29 30 56 30 60 0 4 -20 21 -44 38 -34 25 -45 29 -52 18 -5 -7 -9 -16 -9
-20 0 -5 -3 -8 -7 -8 -5 0 -8 1984 -8 4410 0 2426 2 4410 5 4410 3 -1 18 -21
34 -46z"/>
<path d="M4760 11555 l0 -297 153 4 c175 5 218 18 278 85 48 53 63 100 63 198
1 108 -18 169 -68 220 -59 59 -121 76 -288 82 l-138 6 0 -298z m275 214 c95
-26 134 -88 135 -208 0 -97 -15 -144 -61 -185 -42 -39 -105 -56 -204 -56 l-65
0 0 230 0 230 78 0 c42 0 95 -5 117 -11z"/>
<path d="M1000 11210 l0 -60 70 0 70 0 0 60 0 60 -70 0 -70 0 0 -60z"/>
<path d="M1290 11210 l0 -60 70 0 70 0 0 60 0 60 -70 0 -70 0 0 -60z"/>
<path d="M1580 11210 l0 -60 70 0 70 0 0 60 0 60 -70 0 -70 0 0 -60z"/>
<path d="M1869 11266 c-2 -2 -2 -29 -1 -60 l4 -56 69 0 69 0 0 60 0 60 -68 0
c-38 0 -71 -2 -73 -4z"/>
<path d="M2157 11263 c-4 -3 -7 -30 -7 -60 l0 -53 75 0 75 0 0 60 0 60 -68 0
c-38 0 -72 -3 -75 -7z"/>
<path d="M2447 11263 c-4 -3 -7 -30 -7 -60 l0 -53 75 0 75 0 0 60 0 60 -68 0
c-38 0 -72 -3 -75 -7z"/>
<path d="M2737 11263 c-4 -3 -7 -30 -7 -60 l0 -53 75 0 75 0 0 60 0 60 -68 0
c-38 0 -72 -3 -75 -7z"/>
<path d="M3027 11264 c-4 -4 -7 -31 -7 -61 l0 -53 75 0 76 0 -3 58 -3 57 -65
3 c-36 2 -69 0 -73 -4z"/>
<path d="M3317 11264 c-4 -4 -7 -31 -7 -61 l0 -53 75 0 76 0 -3 58 -3 57 -65
3 c-36 2 -69 0 -73 -4z"/>
<path d="M3600 11210 l0 -60 75 0 76 0 -3 58 -3 57 -72 3 -73 3 0 -61z"/>
<path d="M3890 11210 l0 -60 75 0 76 0 -3 58 -3 57 -72 3 -73 3 0 -61z"/>
<path d="M4180 11210 l0 -60 75 0 76 0 -3 58 -3 57 -72 3 -73 3 0 -61z"/>
<path d="M4470 11211 l0 -61 45 0 45 0 0 -45 0 -45 55 0 55 0 0 89 c0 111 -4
115 -117 120 l-83 3 0 -61z"/>
<path d="M4560 10845 l0 -75 55 0 55 0 0 75 0 75 -55 0 -55 0 0 -75z"/>
<path d="M4560 10555 l0 -75 55 0 55 0 0 75 0 75 -55 0 -55 0 0 -75z"/>
<path d="M4560 10265 l0 -75 55 0 55 0 0 75 0 75 -55 0 -55 0 0 -75z"/>
<path d="M4560 9980 l0 -70 55 0 55 0 0 70 0 70 -55 0 -55 0 0 -70z"/>
<path d="M4560 9400 l0 -70 55 0 55 0 0 70 0 70 -55 0 -55 0 0 -70z"/>
<path d="M4560 9110 l0 -70 55 0 55 0 0 70 0 70 -55 0 -55 0 0 -70z"/>
<path d="M4560 8820 l0 -70 55 0 55 0 0 70 0 70 -55 0 -55 0 0 -70z"/>
<path d="M4560 8530 l0 -70 55 0 55 0 0 70 0 70 -55 0 -55 0 0 -70z"/>
<path d="M4560 8240 l0 -70 55 0 55 0 0 70 0 70 -55 0 -55 0 0 -70z"/>
<path d="M4560 7950 l0 -70 55 0 55 0 0 70 0 70 -55 0 -55 0 0 -70z"/>
<path d="M4560 7660 l0 -70 55 0 55 0 0 70 0 70 -55 0 -55 0 0 -70z"/>
<path d="M4560 7375 l0 -75 55 0 55 0 0 75 0 75 -55 0 -55 0 0 -75z"/>
<path d="M4560 7085 l0 -75 55 0 55 0 0 75 0 75 -55 0 -55 0 0 -75z"/>
<path d="M4560 6795 l0 -75 55 0 55 0 0 75 0 75 -55 0 -55 0 0 -75z"/>
<path d="M4560 6505 l0 -75 55 0 55 0 0 75 0 75 -55 0 -55 0 0 -75z"/>
<path d="M4560 6215 l0 -75 55 0 55 0 0 75 0 75 -55 0 -55 0 0 -75z"/>
<path d="M4560 5925 l0 -75 55 0 55 0 0 75 0 75 -55 0 -55 0 0 -75z"/>
<path d="M4560 5635 l0 -75 55 0 55 0 0 75 0 75 -55 0 -55 0 0 -75z"/>
<path d="M4560 5345 l0 -75 55 0 55 0 0 75 0 75 -55 0 -55 0 0 -75z"/>
<path d="M4560 5058 l0 -73 55 0 55 0 0 73 0 72 -55 0 -55 0 0 -72z"/>
<path d="M4560 4768 l0 -73 55 0 55 0 0 73 0 72 -55 0 -55 0 0 -72z"/>
<path d="M4560 4480 l0 -70 55 0 55 0 0 70 0 70 -55 0 -55 0 0 -70z"/>
<path d="M4560 4190 l0 -70 55 0 55 0 0 70 0 70 -55 0 -55 0 0 -70z"/>
<path d="M4560 3900 l0 -70 55 0 55 0 0 70 0 70 -55 0 -55 0 0 -70z"/>
<path d="M4560 3610 l0 -70 55 0 55 0 0 70 0 70 -55 0 -55 0 0 -70z"/>
<path d="M4560 3320 l0 -70 55 0 55 0 0 70 0 70 -55 0 -55 0 0 -70z"/>
<path d="M4189 3176 c-2 -2 -2 -29 -1 -60 l4 -56 69 0 69 0 0 60 0 60 -68 0
c-38 0 -71 -2 -73 -4z"/>
<path d="M4480 3125 l0 -55 40 0 40 0 0 -55 0 -55 55 0 55 0 0 70 c0 68 -1 70
-25 70 -22 0 -25 4 -25 40 l0 40 -70 0 -70 0 0 -55z"/>
<path d="M4770 3125 l0 -55 33 0 c17 0 49 -3 70 -6 l37 -7 0 62 0 61 -70 0
-70 0 0 -55z"/>
<path d="M3950 3161 l-54 -6 3 -55 c1 -30 4 -56 5 -57 5 -6 141 13 139 20 -2
4 -3 30 -3 57 0 42 -3 50 -17 48 -10 -1 -43 -4 -73 -7z"/>
<path d="M5056 3119 c-4 -28 -5 -53 -3 -55 2 -2 36 -7 75 -10 l72 -7 0 62 0
61 -69 0 -68 0 -7 -51z"/>
<path d="M5345 3105 c-3 -31 -5 -58 -3 -60 2 -2 35 -5 73 -7 l70 -3 3 58 3 57
-55 0 c-30 0 -61 3 -69 6 -11 4 -16 -8 -22 -51z"/>
<path d="M3700 3143 c-99 -10 -96 -7 -90 -66 l5 -52 69 2 c38 2 71 4 73 6 6 7
-9 117 -16 115 -3 0 -22 -3 -41 -5z"/>
<path d="M5637 3109 c-4 -13 -7 -40 -7 -60 l0 -36 67 -6 c37 -4 68 -5 70 -3 3
2 7 29 10 60 l6 56 -34 0 c-19 0 -50 3 -70 6 -32 5 -37 3 -42 -17z"/>
<path d="M3445 3114 c-5 -1 -36 -5 -67 -9 -55 -6 -58 -8 -58 -34 0 -16 3 -43
6 -60 5 -25 11 -30 28 -26 11 2 42 7 69 10 45 6 47 7 46 38 -2 48 -13 84 -24
81z"/>
<path d="M5926 3069 c-18 -90 -19 -87 27 -94 23 -3 56 -9 73 -11 l31 -6 7 58
c3 31 5 58 4 59 -2 2 -33 6 -70 10 -65 7 -67 6 -72 -16z"/>
<path d="M3100 3065 l-65 -11 3 -44 c4 -65 8 -72 39 -66 16 3 47 8 70 11 l43
7 -6 41 c-12 75 -11 74 -84 62z"/>
<path d="M6217 3043 c-3 -5 -9 -32 -12 -60 l-7 -50 46 -6 c25 -4 57 -9 70 -13
21 -5 24 -1 34 48 5 29 8 56 6 59 -2 4 -23 9 -46 13 -24 4 -53 9 -64 12 -12 3
-24 2 -27 -3z"/>
<path d="M2807 3012 c-53 -12 -66 -18 -63 -31 3 -9 8 -33 12 -53 7 -43 13 -44
95 -27 l51 11 -6 52 c-4 28 -10 54 -14 57 -4 3 -37 -1 -75 -9z"/>
<path d="M6491 2946 c-6 -25 -11 -49 -11 -54 0 -7 111 -42 133 -42 5 0 27 83
27 102 0 9 -22 18 -58 26 -80 17 -78 17 -91 -32z"/>
<path d="M2507 2944 c-45 -14 -48 -17 -42 -41 3 -14 9 -38 12 -54 3 -16 7 -29
10 -29 2 0 33 7 69 16 l66 17 -7 36 c-14 80 -19 82 -108 55z"/>
<path d="M6781 2907 c-5 -12 -11 -38 -15 -57 l-6 -36 66 -17 c36 -10 67 -17
69 -15 1 2 9 26 17 54 l15 52 -69 20 -69 20 -8 -21z"/>
<path d="M2243 2872 c-28 -10 -55 -20 -58 -24 -4 -4 0 -29 10 -56 l16 -50 67
19 c37 10 67 19 68 19 1 0 -6 25 -14 55 -8 30 -20 55 -26 54 -6 -1 -34 -8 -63
-17z"/>
<path d="M7064 2837 c-30 -86 -33 -98 -21 -102 7 -3 38 -14 69 -24 l57 -20 17
55 c10 29 16 55 13 57 -2 1 -32 12 -67 24 -45 15 -65 18 -68 10z"/>
<path d="M4560 2740 l0 -70 55 0 55 0 0 70 0 70 -55 0 -55 0 0 -70z"/>
<path d="M1957 2778 c-63 -22 -62 -19 -30 -96 11 -26 18 -32 31 -27 9 4 37 14
62 23 25 8 47 16 49 18 8 7 -32 104 -42 103 -7 0 -38 -10 -70 -21z"/>
<path d="M7340 2745 c0 -2 -9 -26 -19 -53 l-20 -50 52 -20 c29 -11 59 -23 68
-27 12 -4 21 6 35 42 10 26 20 51 22 54 2 4 -27 18 -63 33 -68 27 -75 29 -75
21z"/>
<path d="M1690 2673 c-30 -13 -56 -26 -58 -27 -2 -3 36 -97 42 -103 3 -3 117
45 125 52 7 8 -33 105 -43 104 -6 0 -36 -12 -66 -26z"/>
<path d="M7595 2597 c-9 -23 -19 -47 -22 -53 -2 -7 22 -24 54 -40 32 -15 60
-29 63 -31 6 -4 50 82 50 97 0 5 -21 19 -47 31 -27 12 -55 25 -64 30 -14 7
-20 0 -34 -34z"/>
<path d="M1428 2547 c-32 -18 -58 -35 -58 -38 0 -4 12 -27 26 -53 l26 -47 57
32 c31 17 58 33 60 35 6 5 -41 104 -48 103 -3 0 -32 -15 -63 -32z"/>
<path d="M4560 2453 l0 -73 55 0 55 0 0 73 0 72 -55 0 -55 0 0 -72z"/>
<path d="M7847 2451 l-27 -49 33 -20 c19 -11 45 -27 59 -36 26 -17 26 -17 57
28 17 24 31 47 31 50 0 5 -114 76 -122 76 -3 0 -17 -22 -31 -49z"/>
<path d="M1180 2394 c-30 -21 -57 -38 -59 -40 -5 -4 48 -82 61 -90 4 -3 29 10
55 28 26 18 51 36 56 39 7 5 -46 99 -56 99 -1 0 -27 -16 -57 -36z"/>
<path d="M8092 2298 c-18 -23 -32 -44 -32 -47 0 -3 23 -26 51 -50 l51 -44 38
44 39 44 -32 28 c-18 15 -44 36 -58 47 l-26 19 -31 -41z"/>
<path d="M944 2199 l-52 -51 38 -34 c21 -19 42 -34 47 -34 5 0 28 20 52 44
l44 45 -32 40 c-18 23 -36 41 -39 41 -4 0 -30 -23 -58 -51z"/>
<path d="M4560 2166 l0 -76 55 0 55 0 0 73 0 74 -55 2 -55 2 0 -75z"/>
<path d="M8297 2095 l-39 -33 45 -55 44 -54 46 34 47 35 -42 54 c-24 30 -47
54 -53 54 -5 -1 -27 -16 -48 -35z"/>
<path d="M4560 1875 l0 -75 55 0 55 0 0 75 0 75 -55 0 -55 0 0 -75z"/>
<path d="M4518 1653 l-48 -4 0 -60 0 -59 73 0 c102 0 121 12 125 78 l3 52 -53
-2 c-29 -1 -74 -3 -100 -5z"/>
<path d="M1000 1590 l0 -60 70 0 70 0 0 60 0 60 -70 0 -70 0 0 -60z"/>
<path d="M1290 1590 l0 -60 70 0 70 0 0 60 0 60 -70 0 -70 0 0 -60z"/>
<path d="M1580 1590 l0 -60 70 0 70 0 0 60 0 60 -70 0 -70 0 0 -60z"/>
<path d="M1868 1594 c-1 -31 -1 -58 1 -60 2 -2 35 -4 73 -4 l68 0 0 60 0 60
-69 0 -69 0 -4 -56z"/>
<path d="M2152 1593 l3 -58 73 -3 72 -3 0 61 0 60 -75 0 -76 0 3 -57z"/>
<path d="M2442 1593 l3 -58 73 -3 72 -3 0 61 0 60 -75 0 -76 0 3 -57z"/>
<path d="M2732 1593 l3 -58 73 -3 72 -3 0 61 0 60 -75 0 -76 0 3 -57z"/>
<path d="M3022 1593 l3 -58 70 0 70 0 3 58 3 57 -76 0 -76 0 3 -57z"/>
<path d="M3312 1593 l3 -58 70 0 70 0 3 58 3 57 -76 0 -76 0 3 -57z"/>
<path d="M3600 1590 l0 -61 73 3 72 3 3 58 3 57 -76 0 -75 0 0 -60z"/>
<path d="M3890 1590 l0 -61 73 3 72 3 3 58 3 57 -76 0 -75 0 0 -60z"/>
<path d="M4180 1590 l0 -61 73 3 72 3 3 58 3 57 -76 0 -75 0 0 -60z"/>
<path d="M4910 1595 c-63 -20 -114 -66 -147 -133 -25 -51 -28 -68 -28 -157 0
-89 3 -106 28 -157 35 -71 85 -114 156 -135 69 -20 169 -14 233 14 42 19 46
24 50 62 2 23 2 41 1 41 -2 0 -28 -14 -58 -31 -46 -26 -65 -31 -124 -31 -42 0
-80 6 -99 16 -125 65 -150 300 -43 407 65 66 175 72 276 16 26 -15 48 -27 49
-27 1 0 0 19 -3 42 -6 41 -8 44 -61 65 -64 26 -160 29 -230 8z"/>
<path d="M222 11833 c-5 -10 -49 -121 -97 -248 -48 -126 -96 -251 -106 -277
l-19 -48 43 0 43 0 26 73 25 72 135 3 134 3 24 -76 24 -75 43 0 43 0 -26 68
c-14 37 -64 169 -112 295 l-87 227 -42 0 c-30 0 -45 -5 -51 -17z m103 -210
c28 -75 52 -140 53 -145 2 -4 -44 -8 -102 -8 -76 0 -106 3 -106 12 0 17 94
278 100 278 3 0 28 -62 55 -137z"/>
<path d="M70 1304 l0 -296 153 4 c132 3 157 6 187 24 107 62 108 222 2 275
l-33 17 35 20 c64 38 73 141 18 200 -39 41 -86 52 -234 52 l-128 0 0 -296z
m273 220 c21 -8 47 -54 47 -84 0 -12 -13 -35 -29 -51 -28 -28 -33 -29 -120
-29 l-91 0 0 83 c0 46 3 87 6 90 8 8 162 1 187 -9z m17 -249 c20 -10 33 -28
41 -54 13 -45 7 -78 -20 -112 -17 -21 -29 -24 -121 -29 -56 -3 -104 -3 -106
-1 -2 2 -4 51 -4 108 l0 103 90 0 c62 0 100 -5 120 -15z"/>
</g>
</svg>
