<?xml version="1.0" encoding="UTF-8" standalone="no"?>
<!-- Generator: Adobe Illustrator 27.9.0, SVG Export Plug-In . SVG Version: 6.00 Build 0)  -->

<svg
   version="1.1"
   id="Calque_1"
   x="0px"
   y="0px"
   viewBox="0 0 202.20395 202.40417"
   xml:space="preserve"
   sodipodi:docname="LOGO CNRS_BLEU.svg"
   width="202.20395"
   height="202.40417"
   inkscape:version="1.2.2 (b0a8486541, 2022-12-01)"
   xmlns:inkscape="http://www.inkscape.org/namespaces/inkscape"
   xmlns:sodipodi="http://sodipodi.sourceforge.net/DTD/sodipodi-0.dtd"
   xmlns="http://www.w3.org/2000/svg"
   xmlns:svg="http://www.w3.org/2000/svg"><defs
   id="defs311" /><sodipodi:namedview
   id="namedview309"
   pagecolor="#ffffff"
   bordercolor="#000000"
   borderopacity="0.25"
   inkscape:showpageshadow="2"
   inkscape:pageopacity="0.0"
   inkscape:pagecheckerboard="0"
   inkscape:deskcolor="#d1d1d1"
   showgrid="false"
   inkscape:zoom="0.28031832"
   inkscape:cx="98.102757"
   inkscape:cy="101.67013"
   inkscape:window-width="1920"
   inkscape:window-height="1173"
   inkscape:window-x="0"
   inkscape:window-y="35"
   inkscape:window-maximized="1"
   inkscape:current-layer="Calque_1" />
<style
   type="text/css"
   id="style292">
	.st0{fill:#00284B;}
	.st1{fill:#FFFFFF;}
</style>
<g
   id="g306"
   transform="translate(-196.3,-320.5)">
	<path
   class="st0"
   d="m 293.2,320.7 c -1.8,-0.1 -3.6,-0.2 -5.4,-0.2 -25,0 -47.7,10.6 -67.5,31.8 -18,19.2 -24,34.7 -24,53.3 0,10 1.8,20.9 4.4,33.8 4.9,24.2 19.3,47.6 39.5,64.2 15.4,12.7 32.6,19.1 50.7,19.3 9.4,0.1 19,-1.6 28.8,-5 31.6,-10.9 61.7,-42.1 73.4,-75.8 3.7,-10.7 5.5,-21.1 5.4,-31 -0.1,-24.2 -11.1,-45.4 -32.2,-60.5 -25.5,-18.5 -50.1,-28.5 -73.1,-29.9 z"
   id="path294" />
	<g
   id="g304">
		<path
   class="st1"
   d="m 257.2,421.9 h -6.9 v 0.2 c -0.1,1.3 -0.9,13.1 -11.4,13.1 -9.4,0 -14.2,-8.5 -14.2,-25.1 0,-16.7 4.8,-25.1 14.2,-25.1 10.7,0 11.4,12.6 11.4,13.1 v 0.2 h 6.9 c 0.6,0 1.3,-0.3 1.7,-0.7 0.4,-0.4 0.6,-1 0.6,-1.6 -0.1,-3.3 -1.8,-19.6 -20.8,-19.6 -15.3,0 -23.4,11.6 -23.4,33.7 0,22.1 8.1,33.8 23.4,33.8 18.3,0 20.5,-14.9 20.8,-19.5 0,-0.6 -0.2,-1.2 -0.6,-1.7 -0.5,-0.5 -1.1,-0.8 -1.7,-0.8 z"
   id="path296" />
		<path
   class="st1"
   d="m 365,406.1 v 0 l -6,-2.6 c -5.7,-2.5 -7.8,-5 -7.8,-9.4 0,-5.7 4.2,-9.6 10.5,-9.6 3.7,0 6.7,0.8 10.4,4.5 l 0.2,0.2 3.2,-2.9 c 1.8,-1.7 1.3,-3.3 0.5,-4.3 -3.1,-3.7 -8.1,-5.7 -14.1,-5.7 -11.5,0 -19.8,7.5 -19.8,17.8 0,10.2 6.4,14.4 13.3,17.5 l 6.1,2.7 c 6.1,2.7 9,5.1 9,11 0,8 -7.3,10.2 -11.6,10.2 -3.7,0 -7.8,-0.8 -12.9,-6.5 l -0.2,-0.2 -3.3,2.9 c -1.7,1.5 -1.7,2.8 -0.1,4.9 4.6,5.9 11.3,7.1 16.1,7.1 10.4,0 21,-6.4 21,-18.6 0.2,-10.5 -5.7,-15.2 -14.5,-19 z"
   id="path298" />
		<path
   class="st1"
   d="m 306.1,395.7 c 0,-10.4 -8.4,-19.2 -18.9,-19.2 -4.9,0 -9.4,1.9 -12.7,4.9 v -3.6 h -6.3 c -1.9,0 -2.6,1.2 -2.6,2.7 v 60.8 c 0,1.7 1,2.6 2.6,2.6 h 6.3 v -47.8 c 0,-6.3 5.1,-11.4 11.4,-11.4 6.3,0 11.4,5.1 11.4,11.4 v 47.8 h 6.2 c 1.7,0 2.6,-1 2.6,-2.6 0,0 0,-45.5 0,-45.6 z"
   id="path300" />
		<path
   class="st1"
   d="m 342,381 c 0.3,-0.4 0.5,-0.9 0.5,-1.5 0,-1 -0.7,-1.9 -1.6,-2.2 -1.8,-0.6 -3.7,-0.9 -5.8,-0.9 -4.9,0 -9.4,1.9 -12.7,4.9 v -3.6 h -6.3 c -1.9,0 -2.6,1.2 -2.6,2.7 v 60.8 c 0,1.7 1,2.6 2.6,2.6 h 6.3 V 396 c 0,-6.3 5.1,-11.4 11.4,-11.4 1.6,0 3.2,0.4 4.6,1 z"
   id="path302" />
	</g>
</g>
</svg>
