<?xml version="1.0" encoding="UTF-8" standalone="no"?>
<!-- Created with Inkscape (http://www.inkscape.org/) -->

<svg
   version="1.1"
   id="svg1"
   width="495.14816"
   height="516.20532"
   viewBox="0 0 495.14816 516.20532"
   sodipodi:docname="page-1-col.svg"
   inkscape:version="1.4.3 (0d15f75042, 2025-12-25)"
   xmlns:inkscape="http://www.inkscape.org/namespaces/inkscape"
   xmlns:sodipodi="http://sodipodi.sourceforge.net/DTD/sodipodi-0.dtd"
   xmlns="http://www.w3.org/2000/svg"
   xmlns:svg="http://www.w3.org/2000/svg">
  <sodipodi:namedview
     id="namedview1"
     pagecolor="#ffffff"
     bordercolor="#000000"
     borderopacity="0.25"
     inkscape:showpageshadow="2"
     inkscape:pageopacity="0.0"
     inkscape:pagecheckerboard="0"
     inkscape:deskcolor="#d1d1d1"
     inkscape:zoom="0.69886365"
     inkscape:cx="264.71544"
     inkscape:cy="363.44715"
     inkscape:window-width="1670"
     inkscape:window-height="970"
     inkscape:window-x="0"
     inkscape:window-y="0"
     inkscape:window-maximized="1"
     inkscape:current-layer="svg1" />
  <defs
     id="defs1">
    <clipPath
       clipPathUnits="userSpaceOnUse"
       id="clipPath475">
      <path
         d="M -69.208204,-11.1238 H 74.791799 V 4.3602004 H -69.208204 Z"
         id="path475" />
    </clipPath>
  </defs>
  <g
     id="g1"
     transform="translate(-287.99948,-507.25668)">
    <path
       id="path180"
       d="m 0,0 h -170.043 l -5.013,-5.013 v -169.223 l 5.013,-5.012 H 0 l 5.013,5.012 V -5.013 Z M 3.638,-5.583 V -9.458 C 3.23,-8.236 2.651,-6.933 1.839,-5.702 v 0.071 H 1.793 c -1.155,1.727 -2.782,3.294 -5.07,4.256 h 2.707 z m -8.852,-172.29 h -159.64 c -2.614,0.632 -4.706,2.071 -6.278,4.279 V -5.677 c 1.366,1.915 3.37,3.579 6.303,4.302 H -5.188 c 2.613,-0.632 4.705,-2.071 6.277,-4.278 v -167.918 c -1.366,-1.915 -3.37,-3.579 -6.303,-4.302 m -168.467,166.144 c 0.303,1.417 0.843,3.181 1.799,4.873 v -165.551 c -0.167,0.297 -0.343,0.579 -0.495,0.898 -0.657,1.385 -1.058,2.776 -1.304,3.94 z m 175.52,4.888 c 0.167,-0.297 0.344,-0.579 0.495,-0.898 0.657,-1.385 1.058,-2.776 1.304,-3.94 v -155.839 c -0.303,-1.418 -0.843,-3.182 -1.799,-4.873 z m -171.312,5.466 h 2.707 c -2.288,-0.962 -3.915,-2.529 -5.07,-4.256 h -0.046 v -0.071 c -0.812,-1.231 -1.391,-2.534 -1.799,-3.756 v 3.875 z m -4.208,-172.291 v 3.876 c 0.408,-1.221 0.987,-2.525 1.799,-3.756 v -0.071 h 0.046 c 1.155,-1.727 2.782,-3.294 5.07,-4.256 h -2.707 z m 173.111,-4.207 h -2.707 c 2.288,0.962 3.915,2.529 5.07,4.256 h 0.046 v 0.071 c 0.812,1.231 1.391,2.535 1.799,3.756 v -3.876 z"
       style="fill:#d9c377;fill-opacity:1;fill-rule:nonzero;stroke:none"
       transform="matrix(1.3333333,0,0,-1.3333333,521.40747,784.1696)" />
    <path
       id="path182"
       d="m 0,0 v 356.368 l -0.439,0.137 c -1.116,0.349 -4.012,1.624 -4.012,3.323 v 0.625 h -171.096 v -0.625 c 0,-1.699 -2.897,-2.974 -4.014,-3.323 L -180,356.368 V 0.531 c -0.637,-2.549 -3.125,-13.056 -2.34,-18.666 l 0.043,-0.308 0.296,-0.097 c 0.027,-0.009 0.855,-0.289 2.001,-0.793 v -3.284 l 0.439,-0.136 c 1.117,-0.347 4.014,-1.619 4.014,-3.323 v -0.625 H -4.451 v 0.625 c 0,1.699 2.896,2.974 4.012,3.323 L 0,-22.616 v 3.339 c 1.075,0.467 1.845,0.728 1.87,0.737 l 0.296,0.097 0.043,0.308 C 2.948,-12.858 0.789,-3.245 0,0 m -178.75,349.659 c 0.164,0.342 0.446,0.905 0.844,1.601 V -0.858 c 0,-3.393 -0.287,-7.24 -0.844,-11.466 z m 0,-365.486 c 0.892,5.625 1.344,10.652 1.344,14.969 v 352.957 c 1.655,2.67 4.601,6.385 8.483,7.104 h 157.845 c 3.88,-0.719 6.828,-4.437 8.484,-7.107 V -0.858 c 0,-4.317 0.452,-9.344 1.344,-14.969 v -2.912 c -2.704,-1.276 -6.45,-3.577 -7.099,-6.712 h -163.433 c -0.639,3.085 -4.275,5.362 -6.968,6.65 z M -2.094,351.257 c 0.398,-0.695 0.68,-1.257 0.844,-1.599 V -12.324 c -0.557,4.226 -0.844,8.073 -0.844,11.466 z m 0.844,4.208 v -3.644 c -1.271,2.23 -3.622,5.633 -6.886,7.382 h 2.506 c 0.483,-2.086 3.278,-3.325 4.38,-3.738 m -173.118,3.738 h 2.504 c -3.264,-1.749 -5.615,-5.152 -6.886,-7.382 v 3.644 c 1.103,0.413 3.899,1.652 4.382,3.738 m -7.02,-376.897 c -0.422,3.693 0.538,9.537 1.388,13.673 v -14.216 c -0.602,0.254 -1.093,0.437 -1.388,0.543 m 2.638,-4.019 v 1.79 c 2.392,-1.195 5.313,-3.109 5.943,-5.528 h -1.561 c -0.483,2.086 -3.279,3.325 -4.382,3.738 m 177.5,0 c -1.102,-0.413 -3.897,-1.652 -4.38,-3.738 h -1.694 c 0.641,2.46 3.66,4.402 6.074,5.593 z m 2.507,4.019 C 0.984,-17.792 0.538,-17.96 0,-18.183 v 13.516 c 0.813,-4.081 1.657,-9.521 1.257,-13.027"
       style="fill:#d9c377;fill-opacity:1;fill-rule:nonzero;stroke:none"
       transform="matrix(1.3333333,0,0,-1.3333333,780,987.86067)" />
    <path
       id="path315"
       d="M 0.58576875,-6.953125e-4 V -4.2897578 H 3.19905 v 0.6914062 H 1.4060812 v 1.0664063 H 2.870925 v 0.6914062 H 1.4060812 v 1.14843754 h 1.875 V -6.953125e-4 Z M 8.2293234,-2.1452266 c 0,0.6269532 -0.1992187,1.15429691 -0.5976562,1.58203129 -0.079102,0.0791016 -0.1494141,0.14648437 -0.2109375,0.19921875 -0.055664,0.046875 -0.1171875,0.09375 -0.1875,0.140625 -0.070312,0.0410156 -0.1494141,0.0791016 -0.234375,0.1171875 C 6.9197531,-0.0739375 6.8230734,-0.03878125 6.7058859,-6.953125e-4 6.7439719,0.07547656 6.7791281,0.13407031 6.8113547,0.17508594 c 0.029297,0.046875 0.073242,0.0996094 0.1289062,0.1640625 0.099609,0.0996094 0.2021485,0.19042969 0.3046875,0.26953125 0.038086,0.0234375 0.073242,0.0410156 0.1054688,0.0585938 0.029297,0.0234375 0.064453,0.0410156 0.1054687,0.0585938 0.038086,0.0234375 0.082031,0.046875 0.1289063,0.0703125 0.046875,0.0292969 0.1054687,0.0644531 0.1757812,0.10546875 L 7.0691672,1.5110234 C 6.9754172,1.4407109 6.8933859,1.3762578 6.8230734,1.3235234 6.7586203,1.2766484 6.7000266,1.2239141 6.6472922,1.1711797 L 6.4715109,1.0305547 C 6.4158469,0.98367969 6.3572531,0.92508594 6.2957297,0.85477344 l -0.1992188,-0.1875 C 6.0320578,0.60282031 5.9793234,0.54129688 5.9324484,0.47977344 L 5.8269797,0.37430469 C 5.8035422,0.34207813 5.7801047,0.30692188 5.7566672,0.26883594 5.7332297,0.23660938 5.7039328,0.20145313 5.6746359,0.16336719 5.6511984,0.13114063 5.6219016,0.08719531 5.5926047,0.03446094 5.4578391,0.02567188 5.3523703,0.01395313 5.2761984,-6.953125e-4 5.2058859,-0.00655469 5.1355734,-0.02413281 5.0652609,-0.04757031 4.8543234,-0.11788281 4.6609641,-0.21749219 4.4910422,-0.35225781 4.3269797,-0.49288281 4.1804953,-0.65108594 4.0574484,-0.83272656 3.9314719,-1.0202266 3.8347922,-1.222375 3.7644797,-1.4421016 c -0.064453,-0.2255859 -0.09375,-0.4599609 -0.09375,-0.703125 0,-0.328125 0.052734,-0.6269531 0.1640625,-0.9023437 0.1171875,-0.2724609 0.2724609,-0.5068359 0.46875,-0.703125 0.2021484,-0.1933594 0.4453125,-0.3457031 0.7265625,-0.4570313 0.28125,-0.1083984 0.5888672,-0.1640625 0.9257812,-0.1640625 0.3339844,0 0.6445313,0.055664 0.9257813,0.1640625 0.28125,0.1113282 0.5185547,0.2636719 0.7148437,0.4570313 0.2021485,0.1962891 0.3574219,0.4306641 0.46875,0.703125 0.1083985,0.2753906 0.1640625,0.5742187 0.1640625,0.9023437 z m -0.8671875,0 c 0,-0.2167968 -0.035156,-0.4160156 -0.1054687,-0.5976562 -0.070312,-0.1875 -0.1699219,-0.3457031 -0.2929688,-0.4804688 -0.1259765,-0.140625 -0.2753906,-0.2460937 -0.4453125,-0.3164062 -0.1728515,-0.076172 -0.3603515,-0.1171875 -0.5625,-0.1171875 -0.2050781,0 -0.3925781,0.041016 -0.5625,0.1171875 -0.1728515,0.070312 -0.3222656,0.1757812 -0.4453125,0.3164062 -0.1259765,0.1347657 -0.2226562,0.2929688 -0.2929687,0.4804688 -0.070312,0.1816406 -0.1054688,0.3808594 -0.1054688,0.5976562 0,0.2197266 0.035156,0.421875 0.1054688,0.609375 0.070312,0.1816407 0.1669922,0.3398438 0.2929687,0.4804688 0.1230469,0.13476561 0.272461,0.24023436 0.4453125,0.31640624 0.1699219,0.0703125 0.3574219,0.10546875 0.5625,0.10546875 0.2021485,0 0.3896485,-0.0351563 0.5625,-0.10546875 0.1699219,-0.0761719 0.319336,-0.18164063 0.4453125,-0.31640624 0.1230469,-0.140625 0.2226563,-0.2988281 0.2929688,-0.4804688 0.070312,-0.1875 0.1054687,-0.3896484 0.1054687,-0.609375 z m 5.1152341,0.46875 c 0,0.1962891 -0.01172,0.3691407 -0.03516,0.515625 -0.01758,0.1494141 -0.04687,0.27832035 -0.09375,0.38671879 -0.04687,0.11132812 -0.111328,0.2109375 -0.1875,0.3046875 -0.07031,0.0878906 -0.164062,0.16992187 -0.28125,0.24609375 -0.158203,0.10253906 -0.328125,0.17578125 -0.515625,0.2226562475 C 11.176585,0.05203906 10.94514,0.08133594 10.672679,0.08133594 c -0.275391,0 -0.503906,-0.0234375 -0.6914064,-0.0703125 -0.1816407,-0.046875 -0.3574219,-0.12304688 -0.5273438,-0.234375 -0.1113281,-0.0761719 -0.2050781,-0.15820313 -0.28125,-0.24609375 -0.070312,-0.09375 -0.1289062,-0.19335938 -0.1757812,-0.3046875 -0.041016,-0.10839844 -0.070312,-0.23730469 -0.09375,-0.38671879 -0.017578,-0.1464843 -0.023437,-0.3193359 -0.023437,-0.515625 v -2.6132812 h 0.8085937 v 2.6601562 c 0,0.63281254 0.3339847,0.94921879 1.0078127,0.94921879 0.310547,0 0.550782,-0.0761719 0.714844,-0.234375 0.164063,-0.16406249 0.246093,-0.40136719 0.246093,-0.71484379 v -2.6601562 h 0.820312 z m 1.001953,1.6757812875 V -4.2897578 h 0.820313 V -6.953125e-4 Z M 18.395339,-2.9772578 c 0,0.234375 -0.04395,0.4541016 -0.128906,0.65625 -0.08789,0.1962891 -0.208008,0.3632812 -0.363281,0.5039062 -0.149415,0.1259766 -0.325196,0.2197266 -0.527344,0.28125 -0.205078,0.055664 -0.451172,0.082031 -0.738281,0.082031 h -0.210938 c -0.05566,0 -0.117187,-0.00293 -0.1875,-0.011719 V -6.953125e-4 H 15.418777 V -4.2897578 h 1.464843 c 0.28125,0 0.506836,0.029297 0.679688,0.082031 0.169922,0.055664 0.328125,0.1464844 0.46875,0.2695313 0.240234,0.2431641 0.363281,0.5625 0.363281,0.9609377 z m -0.855469,0.058594 c 0,-0.234375 -0.05859,-0.4042968 -0.175781,-0.515625 -0.117187,-0.1083984 -0.301758,-0.1640625 -0.550781,-0.1640625 h -0.574219 v 1.4296875 l 0.210938,0.011719 h 0.105468 0.07031 c 0.319336,0 0.550781,-0.058594 0.691406,-0.1757813 0.146484,-0.1230468 0.222656,-0.3193359 0.222656,-0.5859375 z m 5.176758,2.9179687875 V -3.1530391 c -0.0088,0.064453 -0.01758,0.1142579 -0.02344,0.1523438 0,0.032227 -0.0088,0.067383 -0.02344,0.1054687 -0.0088,0.041016 -0.02051,0.087891 -0.03516,0.140625 -0.01758,0.055664 -0.04102,0.1289063 -0.07031,0.2226563 L 21.579909,-6.953125e-4 H 20.841628 L 19.939284,-2.4967891 c -0.01758,-0.052734 -0.03223,-0.1054687 -0.04687,-0.1523437 -0.01758,-0.046875 -0.0293,-0.09375 -0.03516,-0.140625 -0.0088,-0.046875 -0.02051,-0.09668 -0.03516,-0.1523438 -0.0088,-0.061523 -0.02051,-0.140625 -0.03516,-0.234375 v 3.1757812875 h -0.75 V -4.2897578 h 0.984375 l 1.148437,3.0585937 c 0.02344,0.064453 0.03809,0.1142579 0.04687,0.1523438 0.01465,0.041016 0.02637,0.0996094 0.03516,0.17578124 0.01465,-0.09375 0.02637,-0.15527344 0.03516,-0.18750004 0.0059,-0.038086 0.02344,-0.084961 0.04687,-0.140625 l 1.183593,-3.0585937 h 0.984375 v 4.2890624875 z m 1.957031,0 V -4.2897578 h 2.613282 v 0.6914062 h -1.792969 v 1.0664063 h 1.464844 v 0.6914062 h -1.464844 v 1.14843754 h 1.875 V -6.953125e-4 Z M 31.004714,0.03446094 29.16487,-2.7428828 29.024245,-3.0006953 c -0.01758,-0.023437 -0.0293,-0.041016 -0.03516,-0.058594 -0.0088,-0.023437 -0.01758,-0.052734 -0.02344,-0.09375 v 3.1523439875 h -0.78515 V -4.2897578 h 0.949219 l 1.734375,2.71875 c 0.06152,0.09375 0.108398,0.1816406 0.140625,0.2578125 0.0293,0.070312 0.05859,0.140625 0.08203,0.2109375 v -3.1875 h 0.773438 V 0.03446094 Z M 34.617019,-3.5983516 V -6.953125e-4 H 33.796706 V -3.5983516 h -1.289062 v -0.6914062 h 3.398437 v 0.6914062 z M 179.4344,-3.4225703 v 1.1015625 h 1.51172 v 0.6914062 h -1.51172 v 1.80468754 h -0.82031 V -4.1139766 h 2.66016 v 0.6914063 z m 2.57227,3.59765624 V -4.1139766 h 2.61328 v 0.6914063 h -1.79297 v 1.0664062 h 1.46484 v 0.6914063 h -1.46484 v 1.14843749 h 1.875 v 0.69140625 z m 5.91797,0 -0.33985,-1.0546875 h -1.4414 l -0.35157,1.0546875 h -0.85547 l 1.5586,-4.28906254 h 0.72656 l 1.55859,4.28906254 z m -1.06641,-3.30468754 -0.49219,1.546875 h 0.9961 z m 3.76465,-0.2929687 v 3.59765624 h -0.82031 V -3.4225703 h -1.28907 v -0.6914063 h 3.39844 v 0.6914063 z m 5.42578,1.921875 c 0,0.1962891 -0.0117,0.3691406 -0.0352,0.51562499 -0.0176,0.14941406 -0.0469,0.27832031 -0.0937,0.38671875 -0.0469,0.11132812 -0.11133,0.2109375 -0.1875,0.3046875 -0.0703,0.0878906 -0.16406,0.16992187 -0.28125,0.24609375 -0.1582,0.10253906 -0.32812,0.17578125 -0.51562,0.22265625 -0.1875,0.0527344 -0.41895,0.0820313 -0.69141,0.0820313 -0.27539,0 -0.5039,-0.0234375 -0.6914,-0.0703125 -0.18165,-0.046875 -0.35743,-0.12304688 -0.52735,-0.234375 -0.11133,-0.07617188 -0.20508,-0.15820313 -0.28125,-0.24609375 -0.0703,-0.09375 -0.1289,-0.19335938 -0.17578,-0.3046875 -0.041,-0.10839844 -0.0703,-0.23730469 -0.0937,-0.38671875 -0.0176,-0.14648434 -0.0234,-0.31933584 -0.0234,-0.51562494 v -2.6132813 h 0.8086 v 2.6601562 c 0,0.63281254 0.33398,0.94921879 1.00781,0.94921879 0.31055,0 0.55078,-0.0761719 0.71484,-0.234375 0.16407,-0.1640625 0.2461,-0.40136719 0.2461,-0.71484379 v -2.6601562 h 0.82031 z m 3.27246,1.67578124 -0.98437,-1.72265624 h -0.41016 v 1.72265624 h -0.82031 V -4.1139766 h 1.42968 c 0.15528,0 0.29297,0.00586 0.41016,0.011719 0.11719,0.00879 0.2168,0.029297 0.30469,0.058594 0.0937,0.023437 0.17578,0.055664 0.24609,0.09375 0.0703,0.041016 0.13477,0.09082 0.19922,0.1523438 0.23438,0.2197266 0.35156,0.5273437 0.35156,0.9257812 0,0.328125 -0.0791,0.5976563 -0.23437,0.8085938 -0.041,0.055664 -0.0791,0.1025391 -0.11719,0.140625 -0.041,0.041016 -0.0879,0.076172 -0.14062,0.1054687 -0.0469,0.032227 -0.10547,0.058594 -0.17579,0.082031 -0.0644,0.023437 -0.14062,0.046875 -0.23437,0.070312 l 1.06641,1.83984374 z m -0.11719,-3.02343754 c 0,-0.2109375 -0.0586,-0.3574218 -0.17578,-0.4453125 -0.11133,-0.084961 -0.30176,-0.1289062 -0.57422,-0.1289062 h -0.52734 v 1.1835937 h 0.52734 c 0.26367,0 0.45703,-0.046875 0.57422,-0.140625 0.11719,-0.09375 0.17578,-0.2490234 0.17578,-0.46875 z m 1.69922,3.02343754 V -4.1139766 h 2.61328 v 0.6914063 h -1.79297 v 1.0664062 h 1.46485 v 0.6914063 h -1.46485 v 1.14843749 h 1.875 v 0.69140625 z m 5.88281,-3.26953124 c -0.46289,-0.2021484 -0.83203,-0.3046875 -1.11328,-0.3046875 -0.19629,0 -0.35156,0.035156 -0.46875,0.1054687 -0.11133,0.070312 -0.16406,0.1699219 -0.16406,0.2929688 0,0.087891 0.0264,0.1640625 0.082,0.234375 0.0615,0.064453 0.16992,0.1347656 0.32813,0.2109375 0.66211,0.3603516 1.09277,0.6386719 1.28906,0.8320312 0.085,0.09375 0.15527,0.2080079 0.21094,0.3398438 0.0527,0.1347656 0.082,0.2753906 0.082,0.42187499 0,0.39257812 -0.13477,0.69140625 -0.39844,0.90234375 -0.2666,0.2109375 -0.63867,0.31640625 -1.11328,0.31640625 -0.0644,0 -0.12891,-0.005859 -0.19922,-0.0117188 -0.0644,0 -0.12598,-0.005859 -0.1875,-0.0117188 -0.0791,-0.008789 -0.14941,-0.0205078 -0.21094,-0.0351563 -0.0557,-0.008789 -0.11718,-0.0234375 -0.1875,-0.046875 -0.0645,-0.0234375 -0.13476,-0.0498047 -0.21093,-0.08203125 -0.0791,-0.03808594 -0.17286,-0.08496094 -0.28125,-0.140625 l -0.28125,-0.12890625 0.33984,-0.75 c 0.0762,0.046875 0.14355,0.0878906 0.19922,0.1171875 0.0615,0.0234375 0.11719,0.046875 0.16406,0.0703125 0.0469,0.0234375 0.0879,0.0439453 0.12891,0.0585938 0.0381,0.0175781 0.0762,0.0351563 0.11718,0.0585938 0.1084,0.0410156 0.2168,0.0703125 0.32813,0.09375 0.1084,0.0175781 0.20508,0.0234375 0.29297,0.0234375 0.1875,0 0.33398,-0.0380859 0.44531,-0.1171875 0.11719,-0.0761719 0.17578,-0.18164063 0.17578,-0.31640625 0,-0.0849609 -0.0293,-0.16406244 -0.082,-0.23437494 -0.0557,-0.070312 -0.15234,-0.1435547 -0.29297,-0.2226563 l -0.66797,-0.375 c -0.1875,-0.1083984 -0.34863,-0.2109375 -0.48047,-0.3046875 -0.12597,-0.09375 -0.22851,-0.1875 -0.30468,-0.28125 -0.0703,-0.09375 -0.12305,-0.1875 -0.15235,-0.28125 -0.0322,-0.099609 -0.0469,-0.2109375 -0.0469,-0.328125 0,-0.1083984 0.0117,-0.2138671 0.0351,-0.3164062 0.0293,-0.099609 0.0733,-0.1933594 0.12891,-0.28125 0.0703,-0.1083984 0.17578,-0.2138672 0.31641,-0.3164063 0.0762,-0.052734 0.15527,-0.09668 0.23437,-0.1289062 0.0762,-0.038086 0.15527,-0.070312 0.23438,-0.09375 0.085,-0.023437 0.17578,-0.038086 0.26953,-0.046875 0.0996,-0.00586 0.21386,-0.011719 0.33984,-0.011719 0.14649,0 0.28418,0.00879 0.41016,0.023437 0.13183,0.017578 0.26367,0.043945 0.39844,0.082031 0.0527,0.017578 0.0996,0.032227 0.14062,0.046875 0.0469,0.017578 0.0937,0.035156 0.14063,0.058594 0.0469,0.017578 0.0937,0.035156 0.14062,0.058594 0.0527,0.023437 0.11719,0.052734 0.1875,0.082031 z m 6.73536,2.61328124 c -0.0645,0.13476562 -0.12305,0.234375 -0.17579,0.3046875 -0.0469,0.0644531 -0.10546,0.12597656 -0.17578,0.1875 -0.1875,0.1640625 -0.40429,0.24609375 -0.64453,0.24609375 -0.17285,0 -0.32226,-0.0351563 -0.44531,-0.10546875 -0.12598,-0.07617188 -0.26367,-0.20507813 -0.41016,-0.38671875 -0.11718,0.0878906 -0.208,0.14941406 -0.26953,0.1875 -0.0557,0.04101562 -0.11133,0.0703125 -0.16406,0.09375 -0.13477,0.0703125 -0.27832,0.12304687 -0.43359,0.15234375 -0.14942,0.0380859 -0.30176,0.0585938 -0.45704,0.0585938 -0.19628,0 -0.375,-0.0292969 -0.53906,-0.0820313 -0.16406,-0.0527344 -0.30469,-0.13183594 -0.42187,-0.234375 -0.11133,-0.09960938 -0.19629,-0.22265625 -0.25782,-0.36328125 -0.0644,-0.14648438 -0.0937,-0.31054688 -0.0937,-0.4921875 0,-0.21679689 0.0615,-0.42480469 0.1875,-0.62109379 0.13184,-0.2021484 0.33985,-0.4130859 0.6211,-0.6328125 l 0.1875,-0.1523437 -0.30469,-0.375 c -0.11133,-0.1464844 -0.19336,-0.28125 -0.24609,-0.3984375 -0.0469,-0.1230469 -0.0703,-0.2578125 -0.0703,-0.3984375 0,-0.1699219 0.0293,-0.328125 0.0937,-0.46875 0.0703,-0.1464844 0.16407,-0.2695313 0.28125,-0.3632813 0.12305,-0.099609 0.27247,-0.1787109 0.44532,-0.234375 0.16992,-0.052734 0.36328,-0.082031 0.57422,-0.082031 0.40429,0 0.7207,0.082031 0.94921,0.2460937 0.22559,0.1640625 0.33985,0.3955079 0.33985,0.6914063 0,0.2753906 -0.15821,0.515625 -0.46875,0.7265625 l -0.36328,0.2460937 -0.32813,-0.3984375 0.2461,-0.2226562 c 0.085,-0.076172 0.1289,-0.1669922 0.1289,-0.2695313 0,-0.1171875 -0.0527,-0.2138671 -0.15234,-0.2929687 -0.10254,-0.084961 -0.22852,-0.1289063 -0.375,-0.1289063 -0.16406,0 -0.30176,0.052734 -0.41016,0.1523438 -0.11133,0.09375 -0.16406,0.2197266 -0.16406,0.375 0,0.1113281 0.0264,0.2226562 0.082,0.3398437 0.0615,0.1171875 0.15527,0.2548829 0.28125,0.4101563 l 1.14844,1.4296875 c 0.0469,-0.076172 0.082,-0.140625 0.10547,-0.1875 0.0293,-0.052734 0.0586,-0.1171875 0.082,-0.1875 0.0293,-0.084961 0.0498,-0.1640625 0.0586,-0.234375 0.0147,-0.076172 0.0264,-0.1875 0.0352,-0.328125 h 0.80859 c -0.009,0.1113281 -0.0176,0.2080078 -0.0234,0.2929687 -0.009,0.087891 -0.0205,0.1640625 -0.0351,0.234375 -0.0176,0.064453 -0.0352,0.1230469 -0.0586,0.1757813 -0.0176,0.055664 -0.0351,0.1142578 -0.0586,0.1757812 -0.0234,0.046875 -0.0527,0.09375 -0.082,0.140625 -0.0234,0.041016 -0.0557,0.082031 -0.0937,0.1289063 -0.0322,0.046875 -0.0703,0.099609 -0.11719,0.15234374 -0.0469,0.046875 -0.10547,0.10253906 -0.17578,0.1640625 0.1084,0.12597656 0.19043,0.2109375 0.24609,0.2578125 0.0527,0.0410156 0.1084,0.0585938 0.16407,0.0585938 0.0762,0 0.14355,-0.0263672 0.19922,-0.0820313 0.0615,-0.0615234 0.1289,-0.1640625 0.19921,-0.3046875 z m -3.16407,-1.31250004 -0.19922,0.2109375 c -0.10253,0.1025391 -0.17285,0.1933594 -0.21093,0.2695313 -0.041,0.070312 -0.0586,0.1582031 -0.0586,0.2578125 0,0.17285155 0.0527,0.32226561 0.16407,0.44531249 0.10839,0.1171875 0.2373,0.17578125 0.38671,0.17578125 0.0527,0 0.1084,-0.00293 0.16407,-0.0117188 0.0527,-0.0146484 0.1084,-0.0351563 0.16406,-0.0585938 0.0762,-0.0380859 0.14355,-0.0761719 0.19922,-0.1171875 0.0527,-0.0380859 0.12304,-0.0996094 0.21094,-0.1875 z m 6.76758,-1.6289062 v 3.59765624 h -0.82031 V -3.4225703 h -1.28906 v -0.6914063 h 3.39843 v 0.6914063 z m 4.14844,3.59765624 -0.98438,-1.72265624 h -0.41015 v 1.72265624 h -0.82032 V -4.1139766 h 1.42969 c 0.15528,0 0.29297,0.00586 0.41016,0.011719 0.11719,0.00879 0.2168,0.029297 0.30469,0.058594 0.0937,0.023437 0.17578,0.055664 0.24609,0.09375 0.0703,0.041016 0.13477,0.09082 0.19922,0.1523438 0.23437,0.2197266 0.35156,0.5273437 0.35156,0.9257812 0,0.328125 -0.0791,0.5976563 -0.23437,0.8085938 -0.041,0.055664 -0.0791,0.1025391 -0.11719,0.140625 -0.041,0.041016 -0.0879,0.076172 -0.14063,0.1054687 -0.0469,0.032227 -0.10547,0.058594 -0.17578,0.082031 -0.0644,0.023437 -0.14062,0.046875 -0.23437,0.070312 l 1.0664,1.83984374 z m -0.11719,-3.02343754 c 0,-0.2109375 -0.0586,-0.3574218 -0.17578,-0.4453125 -0.11133,-0.084961 -0.30176,-0.1289062 -0.57422,-0.1289062 h -0.52734 v 1.1835937 h 0.52734 c 0.26367,0 0.45703,-0.046875 0.57422,-0.140625 0.11719,-0.09375 0.17578,-0.2490234 0.17578,-0.46875 z m 4.11035,3.02343754 -0.33984,-1.0546875 h -1.44141 l -0.35156,1.0546875 h -0.85547 l 1.5586,-4.28906254 h 0.72656 l 1.55859,4.28906254 z m -1.0664,-3.30468754 -0.49219,1.546875 h 0.99609 z m 2.49609,3.30468754 V -4.1139766 h 0.82031 v 4.28906254 z m 3.54492,-3.59765624 v 3.59765624 h -0.82031 V -3.4225703 h -1.28906 v -0.6914063 h 3.39843 v 0.6914063 z m 4.3125,0.328125 c -0.46289,-0.2021484 -0.83203,-0.3046875 -1.11328,-0.3046875 -0.19629,0 -0.35156,0.035156 -0.46875,0.1054687 -0.11133,0.070312 -0.16406,0.1699219 -0.16406,0.2929688 0,0.087891 0.0264,0.1640625 0.082,0.234375 0.0615,0.064453 0.16992,0.1347656 0.32812,0.2109375 0.66211,0.3603516 1.09278,0.6386719 1.28907,0.8320312 0.085,0.09375 0.15527,0.2080079 0.21093,0.3398438 0.0527,0.1347656 0.082,0.2753906 0.082,0.42187499 0,0.39257812 -0.13477,0.69140625 -0.39844,0.90234375 -0.2666,0.2109375 -0.63867,0.31640625 -1.11328,0.31640625 -0.0645,0 -0.12891,-0.005859 -0.19922,-0.0117188 -0.0644,0 -0.12598,-0.005859 -0.1875,-0.0117188 -0.0791,-0.008789 -0.14942,-0.0205078 -0.21094,-0.0351563 -0.0557,-0.008789 -0.11719,-0.0234375 -0.1875,-0.046875 -0.0644,-0.0234375 -0.13476,-0.0498047 -0.21094,-0.08203125 -0.0791,-0.03808594 -0.17285,-0.08496094 -0.28125,-0.140625 l -0.28125,-0.12890625 0.33985,-0.75 c 0.0762,0.046875 0.14355,0.0878906 0.19922,0.1171875 0.0615,0.0234375 0.11718,0.046875 0.16406,0.0703125 0.0469,0.0234375 0.0879,0.0439453 0.1289,0.0585938 0.0381,0.0175781 0.0762,0.0351563 0.11719,0.0585938 0.1084,0.0410156 0.2168,0.0703125 0.32813,0.09375 0.1084,0.0175781 0.20508,0.0234375 0.29297,0.0234375 0.1875,0 0.33398,-0.0380859 0.44531,-0.1171875 0.11719,-0.0761719 0.17578,-0.18164063 0.17578,-0.31640625 0,-0.0849609 -0.0293,-0.16406244 -0.082,-0.23437494 -0.0557,-0.070312 -0.15235,-0.1435547 -0.29297,-0.2226563 l -0.66797,-0.375 c -0.1875,-0.1083984 -0.34863,-0.2109375 -0.48047,-0.3046875 -0.12597,-0.09375 -0.22851,-0.1875 -0.30469,-0.28125 -0.0703,-0.09375 -0.12304,-0.1875 -0.15234,-0.28125 -0.0322,-0.099609 -0.0469,-0.2109375 -0.0469,-0.328125 0,-0.1083984 0.0117,-0.2138671 0.0351,-0.3164062 0.0293,-0.099609 0.0732,-0.1933594 0.12891,-0.28125 0.0703,-0.1083984 0.17578,-0.2138672 0.3164,-0.3164063 0.0762,-0.052734 0.15528,-0.09668 0.23438,-0.1289062 0.0762,-0.038086 0.15527,-0.070312 0.23437,-0.09375 0.085,-0.023437 0.17579,-0.038086 0.26954,-0.046875 0.0996,-0.00586 0.21386,-0.011719 0.33984,-0.011719 0.14648,0 0.28418,0.00879 0.41016,0.023437 0.13183,0.017578 0.26367,0.043945 0.39843,0.082031 0.0527,0.017578 0.0996,0.032227 0.14063,0.046875 0.0469,0.017578 0.0937,0.035156 0.14062,0.058594 0.0469,0.017578 0.0937,0.035156 0.14063,0.058594 0.0527,0.023437 0.11719,0.052734 0.1875,0.082031 z"
       style="fill:#231f20;fill-opacity:1;fill-rule:nonzero;stroke:none"
       aria-label="EquipmEntOthEr prOficiEnciEs &amp; languagEs&#10;attacks &amp; spEllcasting&#10;fEaturEs &amp; traits"
       transform="matrix(1.3333333,0,0,1.3333333,384.6096,1017.8173)"
       sodipodi:nodetypes="cccccccccccccsccccccccccccccccccccccccscccscccscccsscccscccscccscccsscccccscccccsccsscsccscccccscccssccccsccsscsccccscssccccccccccccccccccccccccccccccccccccccccccccccccccccccccccccccccccccccccccccccccccccccccccccccccccccccccccccccscccccscccccsccsscsccsccccccsccccssscccccscsccsssccccccccccccccscsccccscscccccccccscccscsccccccsccccccscccccccccsscccccssccscccccscccscsccccscscscccccccccccccccccsscccccscsccccccccccccccccccccsccccssscccccscsccsssccccccccccccccccccccccccccccscsccccscscccccccccscccscsccccccsccccccsccccccc" />
  </g>
</svg>
