<svg viewBox="0 0 396.850393701 304.430313386" width="396.850393701pt" height="304.430313386pt" xmlns="http://www.w3.org/2000/svg" xmlns:xlink="http://www.w3.org/1999/xlink" xmlns:h5="http://www.w3.org/1999/xhtml"><path fill="#ffffff" fill-rule="nonzero" d="M 0 0v 304.430313386h 396.850393701v -304.430313386Z "/><g transform="translate(28.346456693 28.346456693)"><g transform="matrix(1 0 0 -1 0 10.5644)"><use xlink:href="#gE9C1545B3320FA3CF4DFE253152C187E" x="0" y="0" fill="#000000" fill-rule="nonzero"/><use xlink:href="#g686687B33546154445D3140D949E3B5D" x="11.6424" y="0" fill="#000000" fill-rule="nonzero"/><use xlink:href="#gACD5F553D8FAFBDC63F8CA15CEE86C82" x="20.9902" y="0" fill="#000000" fill-rule="nonzero"/><use xlink:href="#g4CF8E16E1597801E57BED25C7C865F1" x="29.106" y="0" fill="#000000" fill-rule="nonzero"/><use xlink:href="#g37D37CD1495495361D4BD346C7710EA3" x="36.4056" y="0" fill="#000000" fill-rule="nonzero"/><use xlink:href="#g2D3B4F5190C77C2035E22228FAFE0716" x="44.275" y="0" fill="#000000" fill-rule="nonzero"/><use xlink:href="#g37D37CD1495495361D4BD346C7710EA3" x="49.1876" y="0" fill="#000000" fill-rule="nonzero"/><use xlink:href="#gACD5F553D8FAFBDC63F8CA15CEE86C82" x="57.057" y="0" fill="#000000" fill-rule="nonzero"/><use xlink:href="#g5C35C6B074D7F7909E24EE6274A603E6" x="65.1728" y="0" fill="#000000" fill-rule="nonzero"/></g></g><g transform="translate(28.346456693 47.710856693)"><g transform="translate(1.453543307)"><g><path fill="#ffffff" fill-rule="nonzero" stroke="#000000" stroke-width="0.8" stroke-linecap="butt" stroke-linejoin="miter" stroke-miterlimit="4" d="M 0 0v 20h 70.28v -20Z "/><g transform="matrix(1 0 0 -1 4 14.116)"><use xlink:href="#g15FDC9540829902C6A15285882DDF5D4" x="0" y="0" fill="#000000" fill-rule="nonzero"/><use xlink:href="#g6DDC0B1539D34995AD07EFE28A10D26C" x="9.072" y="0" fill="#000000" fill-rule="nonzero"/><use xlink:href="#g268E15286C97764CD8876C9ED473757C" x="16.356" y="0" fill="#000000" fill-rule="nonzero"/><use xlink:href="#g8F65250A60F832F97E3E35BFA953458B" x="22.68" y="0" fill="#000000" fill-rule="nonzero"/><use xlink:href="#gD99F495715AA37C3C68EC2F683F18248" x="28.368" y="0" fill="#000000" fill-rule="nonzero"/><use xlink:href="#g29C2CF9FF01D76A52112BC3746A075D6" x="34.5" y="0" fill="#000000" fill-rule="nonzero"/><use xlink:href="#gD99F495715AA37C3C68EC2F683F18248" x="38.328" y="0" fill="#000000" fill-rule="nonzero"/><use xlink:href="#g268E15286C97764CD8876C9ED473757C" x="44.46" y="0" fill="#000000" fill-rule="nonzero"/><use xlink:href="#g49E56CD80A4200AB53E8FC93E781FD55" x="55.38" y="0" fill="#000000" fill-rule="nonzero"/></g></g></g><g transform="translate(77.733543307)"><g transform="matrix(1 0 0 -1 0 10.513)"><use xlink:href="#gB5CAAF92F0AAC5D056618E9037710D1B" x="0" y="0" fill="#000000" fill-rule="nonzero"/><use xlink:href="#g4219BC89FA3AAAEFCF3FE517094689E4" x="8.096" y="0" fill="#000000" fill-rule="nonzero"/><use xlink:href="#gCCF13623E43E7E3CF9E9A30EAD81337F" x="12.98" y="0" fill="#000000" fill-rule="nonzero"/><use xlink:href="#gE430C86ACBD14DBA90023A8809998BA9" x="17.314" y="0" fill="#000000" fill-rule="nonzero"/><use xlink:href="#g992DAE7EC445D79649F36CBA22FE73D8" x="22.814" y="0" fill="#000000" fill-rule="nonzero"/><use xlink:href="#g66850B9E6D943556B4514DB893CD08CE" x="28.93" y="0" fill="#000000" fill-rule="nonzero"/><use xlink:href="#gD8CAA00A782C273933863CE2AFE28829" x="35.046" y="0" fill="#000000" fill-rule="nonzero"/><use xlink:href="#g4D2A141AA7BF381107380276919D80EC" x="39.358" y="0" fill="#000000" fill-rule="nonzero"/></g><g transform="matrix(1 0 0 -1 47.905 10.513)"><use xlink:href="#g7FDD4349A49914F62F30F23AE9794251" x="0" y="0" fill="#000000" fill-rule="nonzero"/></g><g transform="matrix(1 0 0 -1 54.197 6.52)"><use xlink:href="#g25B224D96CA3F5CCC7E774117FEA026D" x="0" y="0" fill="#000000" fill-rule="nonzero"/></g><g transform="matrix(1 0 0 -1 61.638744444 10.513)"><use xlink:href="#g6CA3708905D5D56BD06755CEABD69DE1" x="0" y="0" fill="#000000" fill-rule="nonzero"/></g><g transform="matrix(1 0 0 -1 72.641188889 10.513)"><use xlink:href="#g8894C0A608DBD285706C131FF554A2B1" x="0" y="0" fill="#000000" fill-rule="nonzero"/></g><g transform="matrix(1 0 0 -1 78.141188889 10.513)"><use xlink:href="#g7FDD4349A49914F62F30F23AE9794251" x="0" y="0" fill="#000000" fill-rule="nonzero"/></g><g transform="matrix(1 0 0 -1 86.877633333 10.513)"><use xlink:href="#gDDD45F8C02017DD13480202EA2B099EF" x="0" y="0" fill="#000000" fill-rule="nonzero"/></g><g transform="matrix(1 0 0 -1 97.880077778 10.513)"><use xlink:href="#gA754BD559092BEFA127826A2A25BC17" x="0" y="0" fill="#000000" fill-rule="nonzero"/></g><g transform="matrix(1 0 0 -1 106.435633333 10.513)"><use xlink:href="#g2389F7618E8CE27CC7151A1D8E5DEAD4" x="0" y="0" fill="#000000" fill-rule="nonzero"/></g><g transform="matrix(1 0 0 -1 118.049188889 10.513)"><use xlink:href="#g5DF7FDD026DB928A9BECE5CB45FEF99F" x="0" y="0" fill="#000000" fill-rule="nonzero"/></g><g transform="matrix(1 0 0 -1 123.549188889 10.513)"><use xlink:href="#g4E5BF43E5EFA72E1A8415D4D8F5287AD" x="0" y="0" fill="#000000" fill-rule="nonzero"/></g></g></g><g transform="translate(28.346456693 76.510856693)"><g transform="matrix(1 0 0 -1 43.109543307 5.464)"><use xlink:href="#gFD567E7B397ADF00826F4253C32029E1" x="0" y="0" fill="#4a7c59" fill-rule="nonzero"/><use xlink:href="#gB1571A8AD97B337ED23E41FA5DD379BD" x="4.496" y="0" fill="#4a7c59" fill-rule="nonzero"/><use xlink:href="#gC793A0A8175F90E47C5FB71A5799F39A" x="8.584" y="0" fill="#4a7c59" fill-rule="nonzero"/><use xlink:href="#g64B02548378EB48A8197B9E81C55C3DB" x="10.632" y="0" fill="#4a7c59" fill-rule="nonzero"/><use xlink:href="#gD88E21950AAF0FFF629A36C23E696669" x="14.928" y="0" fill="#4a7c59" fill-rule="nonzero"/><use xlink:href="#g89D860EBDEB65B0C8F2254C1EB82B22E" x="17.584" y="0" fill="#4a7c59" fill-rule="nonzero"/><use xlink:href="#gB1571A8AD97B337ED23E41FA5DD379BD" x="20.04" y="0" fill="#4a7c59" fill-rule="nonzero"/><use xlink:href="#g3E89BCE78B7E004754F1BE5EEB6CE3AA" x="24.128" y="0" fill="#4a7c59" fill-rule="nonzero"/></g><path fill="none" stroke="#4a7c59" stroke-width="0.5" stroke-linecap="butt" stroke-linejoin="miter" stroke-miterlimit="4" transform="translate(77.733543307)" d="M 0 0h 85.039370079"/><g transform="matrix(1 0 0 -1 77.733543307 22.913)"><use xlink:href="#g7FDD4349A49914F62F30F23AE9794251" x="0" y="0" fill="#000000" fill-rule="nonzero"/></g><g transform="matrix(1 0 0 -1 87.081098863 22.913)"><use xlink:href="#g8DBC885062845FD28572A9997804BEA2" x="0" y="0" fill="#000000" fill-rule="nonzero"/></g><g transform="matrix(1 0 0 -1 97.473654418 22.913)"><use xlink:href="#gC8E481438285A0E013830E0AE21DE9E1" x="0" y="0" fill="#000000" fill-rule="nonzero"/></g><g transform="matrix(1 0 0 -1 102.973654418 22.913)"><use xlink:href="#g847DCE2A3EE7D23E3D551BDE0EE8A683" x="0" y="0" fill="#000000" fill-rule="nonzero"/></g><g transform="matrix(1 0 0 -1 108.473654418 22.913)"><use xlink:href="#gF2E9DE7382F8BB82A14E9A8C0CA6C0F0" x="0" y="0" fill="#000000" fill-rule="nonzero"/></g><g transform="matrix(1 0 0 -1 113.364987752 22.913)"><use xlink:href="#g93E2B88EAD8DFDF0BE4D6467DB923DB5" x="0" y="0" fill="#000000" fill-rule="nonzero"/></g><g transform="matrix(1 0 0 -1 118.864987752 22.913)"><use xlink:href="#gDCF33896590FB4FA75025AD13DB0C7CC" x="0" y="0" fill="#000000" fill-rule="nonzero"/></g></g><g transform="translate(28.346456693 108.223856693)"><g transform="translate(1.453543307)"><g><path fill="#ffffff" fill-rule="nonzero" stroke="#000000" stroke-width="0.8" stroke-linecap="butt" stroke-linejoin="miter" stroke-miterlimit="4" d="M 0 0v 20h 70.28v -20Z "/><g transform="matrix(1 0 0 -1 4 14.116)"><use xlink:href="#g15FDC9540829902C6A15285882DDF5D4" x="0" y="0" fill="#000000" fill-rule="nonzero"/><use xlink:href="#g6DDC0B1539D34995AD07EFE28A10D26C" x="9.072" y="0" fill="#000000" fill-rule="nonzero"/><use xlink:href="#g268E15286C97764CD8876C9ED473757C" x="16.356" y="0" fill="#000000" fill-rule="nonzero"/><use xlink:href="#g8F65250A60F832F97E3E35BFA953458B" x="22.68" y="0" fill="#000000" fill-rule="nonzero"/><use xlink:href="#gD99F495715AA37C3C68EC2F683F18248" x="28.368" y="0" fill="#000000" fill-rule="nonzero"/><use xlink:href="#g29C2CF9FF01D76A52112BC3746A075D6" x="34.5" y="0" fill="#000000" fill-rule="nonzero"/><use xlink:href="#gD99F495715AA37C3C68EC2F683F18248" x="38.328" y="0" fill="#000000" fill-rule="nonzero"/><use xlink:href="#g268E15286C97764CD8876C9ED473757C" x="44.46" y="0" fill="#000000" fill-rule="nonzero"/><use xlink:href="#g46D79F9649228E51EC58B44F019E6D22" x="55.38" y="0" fill="#000000" fill-rule="nonzero"/></g></g></g><g transform="translate(77.733543307)"><g transform="matrix(1 0 0 -1 0 10.513)"><use xlink:href="#g41D432C84A56494018B210BD210F883B" x="0" y="0" fill="#000000" fill-rule="nonzero"/><use xlink:href="#g4219BC89FA3AAAEFCF3FE517094689E4" x="8.404" y="0" fill="#000000" fill-rule="nonzero"/><use xlink:href="#g55A7CE01FEF58ABF26DCDA5BD3DA34B" x="13.288" y="0" fill="#000000" fill-rule="nonzero"/><use xlink:href="#g4D2A141AA7BF381107380276919D80EC" x="17.567" y="0" fill="#000000" fill-rule="nonzero"/><use xlink:href="#gD8CAA00A782C273933863CE2AFE28829" x="22.451" y="0" fill="#000000" fill-rule="nonzero"/><use xlink:href="#g411C3BFBD4650795D699CF8B009BBEE3" x="26.763" y="0" fill="#000000" fill-rule="nonzero"/><use xlink:href="#g13D937BB10A31EC78824D081E8D671A3" x="35.926" y="0" fill="#000000" fill-rule="nonzero"/><use xlink:href="#g5635C2E77DCE3A68CBA0E998B566F8ED" x="38.984" y="0" fill="#000000" fill-rule="nonzero"/><use xlink:href="#g4D2A141AA7BF381107380276919D80EC" x="45.1" y="0" fill="#000000" fill-rule="nonzero"/><use xlink:href="#gD8CAA00A782C273933863CE2AFE28829" x="49.984" y="0" fill="#000000" fill-rule="nonzero"/><use xlink:href="#g3E788B64C66C7CF92E8EF7B9397C8477" x="57.959" y="0" fill="#000000" fill-rule="nonzero"/><use xlink:href="#g7F5967141EBC89EE5F97D32C1B3CF866" x="61.017" y="0" fill="#000000" fill-rule="nonzero"/><use xlink:href="#g66850B9E6D943556B4514DB893CD08CE" x="70.18" y="0" fill="#000000" fill-rule="nonzero"/><use xlink:href="#g4219BC89FA3AAAEFCF3FE517094689E4" x="76.296" y="0" fill="#000000" fill-rule="nonzero"/><use xlink:href="#gD8CAA00A782C273933863CE2AFE28829" x="81.18" y="0" fill="#000000" fill-rule="nonzero"/><use xlink:href="#g13D937BB10A31EC78824D081E8D671A3" x="85.492" y="0" fill="#000000" fill-rule="nonzero"/><use xlink:href="#gC0D2A859579FFB562717100DE739703C" x="88.55" y="0" fill="#000000" fill-rule="nonzero"/><use xlink:href="#g4219BC89FA3AAAEFCF3FE517094689E4" x="94.05" y="0" fill="#000000" fill-rule="nonzero"/><use xlink:href="#g4D2A141AA7BF381107380276919D80EC" x="98.934" y="0" fill="#000000" fill-rule="nonzero"/><use xlink:href="#g66850B9E6D943556B4514DB893CD08CE" x="107.481" y="0" fill="#000000" fill-rule="nonzero"/><use xlink:href="#g4D2A141AA7BF381107380276919D80EC" x="113.597" y="0" fill="#000000" fill-rule="nonzero"/></g><g transform="matrix(1 0 0 -1 122.144 10.513)"><use xlink:href="#g8CAF94BAEF81D91CC1530A3D4F0B18EF" x="0" y="0" fill="#000000" fill-rule="nonzero"/></g><g transform="matrix(1 0 0 -1 128.524 10.513)"><use xlink:href="#g9C5E01F97914784D6046F24928CB3533" x="0" y="0" fill="#000000" fill-rule="nonzero"/></g><g transform="matrix(1 0 0 -1 132.803 10.513)"><use xlink:href="#g7FDD4349A49914F62F30F23AE9794251" x="0" y="0" fill="#000000" fill-rule="nonzero"/></g><g transform="matrix(1 0 0 -1 139.095 10.513)"><use xlink:href="#g44903F1336FFA3AC82F2FDAECC383B22" x="0" y="0" fill="#000000" fill-rule="nonzero"/></g><g transform="matrix(1 0 0 -1 146.429555556 10.513)"><use xlink:href="#g2389F7618E8CE27CC7151A1D8E5DEAD4" x="0" y="0" fill="#000000" fill-rule="nonzero"/></g><g transform="matrix(1 0 0 -1 158.043111111 10.513)"><use xlink:href="#g7FDD4349A49914F62F30F23AE9794251" x="0" y="0" fill="#000000" fill-rule="nonzero"/></g><g transform="matrix(1 0 0 -1 164.335111111 6.52)"><use xlink:href="#g777C235EA19CAB599B58B593B0044621" x="0" y="0" fill="#000000" fill-rule="nonzero"/></g><g transform="matrix(1 0 0 -1 171.776855556 10.513)"><use xlink:href="#g6CA3708905D5D56BD06755CEABD69DE1" x="0" y="0" fill="#000000" fill-rule="nonzero"/></g><g transform="matrix(1 0 0 -1 182.7793 10.513)"><use xlink:href="#g93E2B88EAD8DFDF0BE4D6467DB923DB5" x="0" y="0" fill="#000000" fill-rule="nonzero"/></g><g transform="matrix(1 0 0 -1 188.2793 10.513)"><use xlink:href="#g7FDD4349A49914F62F30F23AE9794251" x="0" y="0" fill="#000000" fill-rule="nonzero"/></g><g transform="matrix(1 0 0 -1 194.5713 10.513)"><use xlink:href="#g4E5BF43E5EFA72E1A8415D4D8F5287AD" x="0" y="0" fill="#000000" fill-rule="nonzero"/></g></g></g><g transform="translate(28.346456693 137.023856693)"><g transform="matrix(1 0 0 -1 43.109543307 5.464)"><use xlink:href="#gFD567E7B397ADF00826F4253C32029E1" x="0" y="0" fill="#4a7c59" fill-rule="nonzero"/><use xlink:href="#gB1571A8AD97B337ED23E41FA5DD379BD" x="4.496" y="0" fill="#4a7c59" fill-rule="nonzero"/><use xlink:href="#gC793A0A8175F90E47C5FB71A5799F39A" x="8.584" y="0" fill="#4a7c59" fill-rule="nonzero"/><use xlink:href="#g64B02548378EB48A8197B9E81C55C3DB" x="10.632" y="0" fill="#4a7c59" fill-rule="nonzero"/><use xlink:href="#gD88E21950AAF0FFF629A36C23E696669" x="14.928" y="0" fill="#4a7c59" fill-rule="nonzero"/><use xlink:href="#g89D860EBDEB65B0C8F2254C1EB82B22E" x="17.584" y="0" fill="#4a7c59" fill-rule="nonzero"/><use xlink:href="#gB1571A8AD97B337ED23E41FA5DD379BD" x="20.04" y="0" fill="#4a7c59" fill-rule="nonzero"/><use xlink:href="#g3E89BCE78B7E004754F1BE5EEB6CE3AA" x="24.128" y="0" fill="#4a7c59" fill-rule="nonzero"/></g><path fill="none" stroke="#4a7c59" stroke-width="0.5" stroke-linecap="butt" stroke-linejoin="miter" stroke-miterlimit="4" transform="translate(77.733543307)" d="M 0 0h 85.039370079"/><g transform="matrix(1 0 0 -1 77.733543307 22.913)"><use xlink:href="#g8CAF94BAEF81D91CC1530A3D4F0B18EF" x="0" y="0" fill="#000000" fill-rule="nonzero"/></g><g transform="matrix(1 0 0 -1 84.113543307 18.92)"><use xlink:href="#g24C97E338F6D0205BFA2AEE81EF0C1DC" x="0" y="0" fill="#000000" fill-rule="nonzero"/></g><g transform="matrix(1 0 0 -1 87.863443307 22.913)"><use xlink:href="#g9C5E01F97914784D6046F24928CB3533" x="0" y="0" fill="#000000" fill-rule="nonzero"/></g><g transform="matrix(1 0 0 -1 92.142443307 22.913)"><use xlink:href="#g7FDD4349A49914F62F30F23AE9794251" x="0" y="0" fill="#000000" fill-rule="nonzero"/></g><g transform="matrix(1 0 0 -1 98.434443307 22.913)"><use xlink:href="#g44903F1336FFA3AC82F2FDAECC383B22" x="0" y="0" fill="#000000" fill-rule="nonzero"/></g><g transform="matrix(1 0 0 -1 105.768998863 22.913)"><use xlink:href="#g2389F7618E8CE27CC7151A1D8E5DEAD4" x="0" y="0" fill="#000000" fill-rule="nonzero"/></g><g transform="matrix(1 0 0 -1 117.382554418 22.913)"><use xlink:href="#g93E2B88EAD8DFDF0BE4D6467DB923DB5" x="0" y="0" fill="#000000" fill-rule="nonzero"/></g><g transform="matrix(1 0 0 -1 122.882554418 22.913)"><use xlink:href="#g7FDD4349A49914F62F30F23AE9794251" x="0" y="0" fill="#000000" fill-rule="nonzero"/></g><g transform="matrix(1 0 0 -1 129.174554418 18.92)"><use xlink:href="#g25B224D96CA3F5CCC7E774117FEA026D" x="0" y="0" fill="#000000" fill-rule="nonzero"/></g><g transform="matrix(1 0 0 -1 136.616298863 22.913)"><use xlink:href="#g6CA3708905D5D56BD06755CEABD69DE1" x="0" y="0" fill="#000000" fill-rule="nonzero"/></g><g transform="matrix(1 0 0 -1 147.618743307 22.913)"><use xlink:href="#g93E2B88EAD8DFDF0BE4D6467DB923DB5" x="0" y="0" fill="#000000" fill-rule="nonzero"/></g></g><g transform="matrix(1 0 0 -1 28.346456693 187.968856693)"><use xlink:href="#g6A1F25408D4BADEF900CBB609DEED61" x="0" y="0" fill="#000000" fill-rule="nonzero"/><use xlink:href="#g8A910A6E70931B86E8B815CA5261BBA3" x="9.972" y="0" fill="#000000" fill-rule="nonzero"/><use xlink:href="#g8F65250A60F832F97E3E35BFA953458B" x="16.872" y="0" fill="#000000" fill-rule="nonzero"/><use xlink:href="#g8F65250A60F832F97E3E35BFA953458B" x="22.56" y="0" fill="#000000" fill-rule="nonzero"/><use xlink:href="#g29C2CF9FF01D76A52112BC3746A075D6" x="28.248" y="0" fill="#000000" fill-rule="nonzero"/><use xlink:href="#gCE444BD0C7692D5C92DBC9C474C66E3E" x="32.076" y="0" fill="#000000" fill-rule="nonzero"/><use xlink:href="#gA81297B2A945A8A4BEF40374F95E61DF" x="38.976" y="0" fill="#000000" fill-rule="nonzero"/><use xlink:href="#g26E5D8434ED6EFA37CE6E6EB317D55A8" x="45.3" y="0" fill="#000000" fill-rule="nonzero"/></g><g transform="translate(28.346456693 202.268856693)"><g transform="translate(6.937543307)"><g><path fill="#e4ebe6" fill-rule="nonzero" stroke="#4a7c59" stroke-width="0.8" stroke-linecap="butt" stroke-linejoin="miter" stroke-miterlimit="4" d="M 0 0v 20h 64.796v -20Z "/><g transform="matrix(1 0 0 -1 4 14.116)"><use xlink:href="#g6A1F25408D4BADEF900CBB609DEED61" x="0" y="0" fill="#4a7c59" fill-rule="nonzero"/><use xlink:href="#g8A910A6E70931B86E8B815CA5261BBA3" x="9.972" y="0" fill="#4a7c59" fill-rule="nonzero"/><use xlink:href="#g8F65250A60F832F97E3E35BFA953458B" x="16.872" y="0" fill="#4a7c59" fill-rule="nonzero"/><use xlink:href="#g8F65250A60F832F97E3E35BFA953458B" x="22.56" y="0" fill="#4a7c59" fill-rule="nonzero"/><use xlink:href="#g29C2CF9FF01D76A52112BC3746A075D6" x="28.248" y="0" fill="#4a7c59" fill-rule="nonzero"/><use xlink:href="#gCE444BD0C7692D5C92DBC9C474C66E3E" x="32.076" y="0" fill="#4a7c59" fill-rule="nonzero"/><use xlink:href="#gA81297B2A945A8A4BEF40374F95E61DF" x="38.976" y="0" fill="#4a7c59" fill-rule="nonzero"/><use xlink:href="#g49E56CD80A4200AB53E8FC93E781FD55" x="49.896" y="0" fill="#4a7c59" fill-rule="nonzero"/></g></g></g><g transform="translate(77.733543307)"><g transform="matrix(1 0 0 -1 0 10.513)"><use xlink:href="#g1F936ABABCFCA1A2BBE0CFCFA07FF2CB" x="0" y="0" fill="#000000" fill-rule="nonzero"/><use xlink:href="#g5635C2E77DCE3A68CBA0E998B566F8ED" x="8.558" y="0" fill="#000000" fill-rule="nonzero"/><use xlink:href="#g90BA286DC3F12EE562A49B9ADD98A010" x="18.337" y="0" fill="#000000" fill-rule="nonzero"/><use xlink:href="#g134E412E79E5635DAA32952FF37CC5D1" x="22.913" y="0" fill="#000000" fill-rule="nonzero"/><use xlink:href="#g4D2A141AA7BF381107380276919D80EC" x="29.029" y="0" fill="#000000" fill-rule="nonzero"/><use xlink:href="#gD8CAA00A782C273933863CE2AFE28829" x="33.913" y="0" fill="#000000" fill-rule="nonzero"/><use xlink:href="#g90BA286DC3F12EE562A49B9ADD98A010" x="38.225" y="0" fill="#000000" fill-rule="nonzero"/><use xlink:href="#g134E412E79E5635DAA32952FF37CC5D1" x="42.801" y="0" fill="#000000" fill-rule="nonzero"/><use xlink:href="#g4D2A141AA7BF381107380276919D80EC" x="48.917" y="0" fill="#000000" fill-rule="nonzero"/><use xlink:href="#g66850B9E6D943556B4514DB893CD08CE" x="57.464" y="0" fill="#000000" fill-rule="nonzero"/><use xlink:href="#g4D2A141AA7BF381107380276919D80EC" x="63.58" y="0" fill="#000000" fill-rule="nonzero"/><use xlink:href="#g992DAE7EC445D79649F36CBA22FE73D8" x="68.464" y="0" fill="#000000" fill-rule="nonzero"/><use xlink:href="#g3A9BDBC8D3B7CA2ACF827C6132721DC0" x="74.58" y="0" fill="#000000" fill-rule="nonzero"/><use xlink:href="#g5635C2E77DCE3A68CBA0E998B566F8ED" x="84.051" y="0" fill="#000000" fill-rule="nonzero"/><use xlink:href="#gE430C86ACBD14DBA90023A8809998BA9" x="90.167" y="0" fill="#000000" fill-rule="nonzero"/><use xlink:href="#g411C3BFBD4650795D699CF8B009BBEE3" x="95.667" y="0" fill="#000000" fill-rule="nonzero"/><use xlink:href="#g5C439AA279B992F69BD71BCF81CBC727" x="104.522" y="0" fill="#000000" fill-rule="nonzero"/><use xlink:href="#gD8CAA00A782C273933863CE2AFE28829" x="110.638" y="0" fill="#000000" fill-rule="nonzero"/><use xlink:href="#g4D2A141AA7BF381107380276919D80EC" x="114.95" y="0" fill="#000000" fill-rule="nonzero"/><use xlink:href="#gCCF13623E43E7E3CF9E9A30EAD81337F" x="119.834" y="0" fill="#000000" fill-rule="nonzero"/><use xlink:href="#g66850B9E6D943556B4514DB893CD08CE" x="127.831" y="0" fill="#000000" fill-rule="nonzero"/><use xlink:href="#g4D2A141AA7BF381107380276919D80EC" x="133.947" y="0" fill="#000000" fill-rule="nonzero"/><use xlink:href="#gCCF13623E43E7E3CF9E9A30EAD81337F" x="142.494" y="0" fill="#000000" fill-rule="nonzero"/><use xlink:href="#gE430C86ACBD14DBA90023A8809998BA9" x="146.828" y="0" fill="#000000" fill-rule="nonzero"/><use xlink:href="#g411C3BFBD4650795D699CF8B009BBEE3" x="152.328" y="0" fill="#000000" fill-rule="nonzero"/><use xlink:href="#g411C3BFBD4650795D699CF8B009BBEE3" x="161.491" y="0" fill="#000000" fill-rule="nonzero"/><use xlink:href="#g4D2A141AA7BF381107380276919D80EC" x="170.654" y="0" fill="#000000" fill-rule="nonzero"/></g><g transform="matrix(1 0 0 -1 179.201 10.513)"><use xlink:href="#g8894C0A608DBD285706C131FF554A2B1" x="0" y="0" fill="#000000" fill-rule="nonzero"/></g><g transform="matrix(1 0 0 -1 184.701 10.513)"><use xlink:href="#g4D2A141AA7BF381107380276919D80EC" x="3.663" y="0" fill="#000000" fill-rule="nonzero"/><use xlink:href="#g55A7CE01FEF58ABF26DCDA5BD3DA34B" x="8.547" y="0" fill="#000000" fill-rule="nonzero"/><use xlink:href="#g66850B9E6D943556B4514DB893CD08CE" x="16.489" y="0" fill="#000000" fill-rule="nonzero"/><use xlink:href="#g4D2A141AA7BF381107380276919D80EC" x="22.605" y="0" fill="#000000" fill-rule="nonzero"/><use xlink:href="#gE58F5F96D3042638142ED2F785BA5607" x="31.152" y="0" fill="#000000" fill-rule="nonzero"/><use xlink:href="#gD8CAA00A782C273933863CE2AFE28829" x="37.268" y="0" fill="#000000" fill-rule="nonzero"/><use xlink:href="#gE430C86ACBD14DBA90023A8809998BA9" x="41.58" y="0" fill="#000000" fill-rule="nonzero"/><use xlink:href="#g66850B9E6D943556B4514DB893CD08CE" x="47.388" y="0" fill="#000000" fill-rule="nonzero"/><use xlink:href="#g992DAE7EC445D79649F36CBA22FE73D8" x="53.504" y="0" fill="#000000" fill-rule="nonzero"/><use xlink:href="#g13D937BB10A31EC78824D081E8D671A3" x="59.62" y="0" fill="#000000" fill-rule="nonzero"/><use xlink:href="#g55A7CE01FEF58ABF26DCDA5BD3DA34B" x="62.678" y="0" fill="#000000" fill-rule="nonzero"/></g><g transform="matrix(1 0 0 -1 0 25.176)"><use xlink:href="#gA754BD559092BEFA127826A2A25BC17" x="0" y="0" fill="#000000" fill-rule="nonzero"/></g><g transform="matrix(1 0 0 -1 5.5 25.176)"><use xlink:href="#g72CA907C693333BD1DBF8BDB710FDF9F" x="3.663" y="0" fill="#000000" fill-rule="nonzero"/><use xlink:href="#g90BA286DC3F12EE562A49B9ADD98A010" x="10.384" y="0" fill="#000000" fill-rule="nonzero"/><use xlink:href="#g4D2A141AA7BF381107380276919D80EC" x="15.268" y="0" fill="#000000" fill-rule="nonzero"/><use xlink:href="#gCCF13623E43E7E3CF9E9A30EAD81337F" x="23.815" y="0" fill="#000000" fill-rule="nonzero"/><use xlink:href="#gE430C86ACBD14DBA90023A8809998BA9" x="28.149" y="0" fill="#000000" fill-rule="nonzero"/><use xlink:href="#g5635C2E77DCE3A68CBA0E998B566F8ED" x="33.649" y="0" fill="#000000" fill-rule="nonzero"/><use xlink:href="#g55A7CE01FEF58ABF26DCDA5BD3DA34B" x="39.457" y="0" fill="#000000" fill-rule="nonzero"/></g><g transform="matrix(1 0 0 -1 52.899 25.176)"><use xlink:href="#g847DCE2A3EE7D23E3D551BDE0EE8A683" x="0" y="0" fill="#000000" fill-rule="nonzero"/></g><g transform="matrix(1 0 0 -1 58.399 25.176)"><use xlink:href="#g4D2A141AA7BF381107380276919D80EC" x="3.663" y="0" fill="#000000" fill-rule="nonzero"/><use xlink:href="#g55A7CE01FEF58ABF26DCDA5BD3DA34B" x="8.547" y="0" fill="#000000" fill-rule="nonzero"/></g><g transform="matrix(1 0 0 -1 74.888 25.176)"><use xlink:href="#g93E2B88EAD8DFDF0BE4D6467DB923DB5" x="0" y="0" fill="#000000" fill-rule="nonzero"/></g><g transform="matrix(1 0 0 -1 80.388 25.176)"><use xlink:href="#g4E5BF43E5EFA72E1A8415D4D8F5287AD" x="0" y="0" fill="#000000" fill-rule="nonzero"/><use xlink:href="#g41D432C84A56494018B210BD210F883B" x="6.721" y="0" fill="#000000" fill-rule="nonzero"/><use xlink:href="#gE430C86ACBD14DBA90023A8809998BA9" x="15.125" y="0" fill="#000000" fill-rule="nonzero"/><use xlink:href="#g5635C2E77DCE3A68CBA0E998B566F8ED" x="20.625" y="0" fill="#000000" fill-rule="nonzero"/><use xlink:href="#g90BA286DC3F12EE562A49B9ADD98A010" x="26.741" y="0" fill="#000000" fill-rule="nonzero"/></g><g transform="matrix(1 0 0 -1 115.676 25.176)"><use xlink:href="#g7FDD4349A49914F62F30F23AE9794251" x="0" y="0" fill="#000000" fill-rule="nonzero"/></g><g transform="matrix(1 0 0 -1 121.968 21.183)"><use xlink:href="#g25B224D96CA3F5CCC7E774117FEA026D" x="0" y="0" fill="#000000" fill-rule="nonzero"/></g><g transform="matrix(1 0 0 -1 129.409744444 25.176)"><use xlink:href="#g6CA3708905D5D56BD06755CEABD69DE1" x="0" y="0" fill="#000000" fill-rule="nonzero"/></g><g transform="matrix(1 0 0 -1 140.412188889 25.176)"><use xlink:href="#g8894C0A608DBD285706C131FF554A2B1" x="0" y="0" fill="#000000" fill-rule="nonzero"/></g><g transform="matrix(1 0 0 -1 145.912188889 25.176)"><use xlink:href="#g7FDD4349A49914F62F30F23AE9794251" x="0" y="0" fill="#000000" fill-rule="nonzero"/></g><g transform="matrix(1 0 0 -1 154.648633333 25.176)"><use xlink:href="#gDDD45F8C02017DD13480202EA2B099EF" x="0" y="0" fill="#000000" fill-rule="nonzero"/></g><g transform="matrix(1 0 0 -1 165.651077778 25.176)"><use xlink:href="#gA754BD559092BEFA127826A2A25BC17" x="0" y="0" fill="#000000" fill-rule="nonzero"/></g><g transform="matrix(1 0 0 -1 174.206633333 25.176)"><use xlink:href="#g2389F7618E8CE27CC7151A1D8E5DEAD4" x="0" y="0" fill="#000000" fill-rule="nonzero"/></g><g transform="matrix(1 0 0 -1 185.820188889 25.176)"><use xlink:href="#g9C5E01F97914784D6046F24928CB3533" x="0" y="0" fill="#000000" fill-rule="nonzero"/></g><g transform="matrix(1 0 0 -1 190.099188889 25.176)"><use xlink:href="#g7FDD4349A49914F62F30F23AE9794251" x="0" y="0" fill="#000000" fill-rule="nonzero"/></g><g transform="matrix(1 0 0 -1 198.835633333 25.176)"><use xlink:href="#g6CA3708905D5D56BD06755CEABD69DE1" x="0" y="0" fill="#000000" fill-rule="nonzero"/></g><g transform="matrix(1 0 0 -1 209.838077778 25.176)"><use xlink:href="#g847DCE2A3EE7D23E3D551BDE0EE8A683" x="0" y="0" fill="#000000" fill-rule="nonzero"/></g><g transform="matrix(1 0 0 -1 215.338077778 25.176)"><use xlink:href="#g44903F1336FFA3AC82F2FDAECC383B22" x="0" y="0" fill="#000000" fill-rule="nonzero"/></g><g transform="matrix(1 0 0 -1 219.617077778 25.176)"><use xlink:href="#g9C5E01F97914784D6046F24928CB3533" x="0" y="0" fill="#000000" fill-rule="nonzero"/></g><g transform="matrix(1 0 0 -1 223.896077778 25.176)"><use xlink:href="#g7FDD4349A49914F62F30F23AE9794251" x="0" y="0" fill="#000000" fill-rule="nonzero"/></g><g transform="matrix(1 0 0 -1 232.632522222 25.176)"><use xlink:href="#g6CA3708905D5D56BD06755CEABD69DE1" x="0" y="0" fill="#000000" fill-rule="nonzero"/></g><g transform="matrix(1 0 0 -1 243.634966667 25.176)"><use xlink:href="#g93E2B88EAD8DFDF0BE4D6467DB923DB5" x="0" y="0" fill="#000000" fill-rule="nonzero"/></g><g transform="matrix(1 0 0 -1 249.134966667 25.176)"><use xlink:href="#g44903F1336FFA3AC82F2FDAECC383B22" x="0" y="0" fill="#000000" fill-rule="nonzero"/></g><g transform="matrix(1 0 0 -1 253.413966667 25.176)"/><g transform="matrix(1 0 0 -1 0 39.839)"><use xlink:href="#g4D2A141AA7BF381107380276919D80EC" x="0" y="0" fill="#000000" fill-rule="nonzero"/><use xlink:href="#g55A7CE01FEF58ABF26DCDA5BD3DA34B" x="4.884" y="0" fill="#000000" fill-rule="nonzero"/><use xlink:href="#g3E788B64C66C7CF92E8EF7B9397C8477" x="12.826" y="0" fill="#000000" fill-rule="nonzero"/><use xlink:href="#g4D2A141AA7BF381107380276919D80EC" x="15.884" y="0" fill="#000000" fill-rule="nonzero"/><use xlink:href="#gCCF13623E43E7E3CF9E9A30EAD81337F" x="20.768" y="0" fill="#000000" fill-rule="nonzero"/><use xlink:href="#gCCF13623E43E7E3CF9E9A30EAD81337F" x="28.765" y="0" fill="#000000" fill-rule="nonzero"/><use xlink:href="#gE430C86ACBD14DBA90023A8809998BA9" x="33.099" y="0" fill="#000000" fill-rule="nonzero"/><use xlink:href="#g3E788B64C66C7CF92E8EF7B9397C8477" x="38.599" y="0" fill="#000000" fill-rule="nonzero"/><use xlink:href="#g992DAE7EC445D79649F36CBA22FE73D8" x="41.657" y="0" fill="#000000" fill-rule="nonzero"/><use xlink:href="#g55A7CE01FEF58ABF26DCDA5BD3DA34B" x="47.773" y="0" fill="#000000" fill-rule="nonzero"/><use xlink:href="#g13D937BB10A31EC78824D081E8D671A3" x="52.052" y="0" fill="#000000" fill-rule="nonzero"/><use xlink:href="#gE430C86ACBD14DBA90023A8809998BA9" x="55.11" y="0" fill="#000000" fill-rule="nonzero"/><use xlink:href="#g5635C2E77DCE3A68CBA0E998B566F8ED" x="60.61" y="0" fill="#000000" fill-rule="nonzero"/><use xlink:href="#gCCF13623E43E7E3CF9E9A30EAD81337F" x="66.726" y="0" fill="#000000" fill-rule="nonzero"/><use xlink:href="#gCCF13623E43E7E3CF9E9A30EAD81337F" x="74.723" y="0" fill="#000000" fill-rule="nonzero"/><use xlink:href="#gE430C86ACBD14DBA90023A8809998BA9" x="79.057" y="0" fill="#000000" fill-rule="nonzero"/><use xlink:href="#g5635C2E77DCE3A68CBA0E998B566F8ED" x="84.557" y="0" fill="#000000" fill-rule="nonzero"/><use xlink:href="#g55A7CE01FEF58ABF26DCDA5BD3DA34B" x="90.365" y="0" fill="#000000" fill-rule="nonzero"/></g><g transform="matrix(1 0 0 -1 98.307 39.839)"><use xlink:href="#g7FDD4349A49914F62F30F23AE9794251" x="0" y="0" fill="#000000" fill-rule="nonzero"/></g><g transform="matrix(1 0 0 -1 107.654555556 39.839)"><use xlink:href="#g2389F7618E8CE27CC7151A1D8E5DEAD4" x="0" y="0" fill="#000000" fill-rule="nonzero"/></g><g transform="matrix(1 0 0 -1 119.268111111 39.839)"><use xlink:href="#g847DCE2A3EE7D23E3D551BDE0EE8A683" x="0" y="0" fill="#000000" fill-rule="nonzero"/></g><g transform="matrix(1 0 0 -1 124.768111111 39.839)"><use xlink:href="#g4D2A141AA7BF381107380276919D80EC" x="3.663" y="0" fill="#000000" fill-rule="nonzero"/><use xlink:href="#g55A7CE01FEF58ABF26DCDA5BD3DA34B" x="8.547" y="0" fill="#000000" fill-rule="nonzero"/></g><g transform="matrix(1 0 0 -1 141.257111111 39.839)"><use xlink:href="#g7FDD4349A49914F62F30F23AE9794251" x="0" y="0" fill="#000000" fill-rule="nonzero"/></g><g transform="matrix(1 0 0 -1 150.604666667 39.839)"><use xlink:href="#g2389F7618E8CE27CC7151A1D8E5DEAD4" x="0" y="0" fill="#000000" fill-rule="nonzero"/></g><g transform="matrix(1 0 0 -1 162.218222222 39.839)"><use xlink:href="#g93E2B88EAD8DFDF0BE4D6467DB923DB5" x="0" y="0" fill="#000000" fill-rule="nonzero"/></g><g transform="matrix(1 0 0 -1 167.718222222 39.839)"><use xlink:href="#g4E5BF43E5EFA72E1A8415D4D8F5287AD" x="0" y="0" fill="#000000" fill-rule="nonzero"/></g></g></g><g transform="translate(28.346456693 250.907856693)"><g transform="translate(6.937543307)"><g><path fill="#e4ebe6" fill-rule="nonzero" stroke="#4a7c59" stroke-width="0.8" stroke-linecap="butt" stroke-linejoin="miter" stroke-miterlimit="4" d="M 0 0v 20h 64.796v -20Z "/><g transform="matrix(1 0 0 -1 4 14.116)"><use xlink:href="#g6A1F25408D4BADEF900CBB609DEED61" x="0" y="0" fill="#4a7c59" fill-rule="nonzero"/><use xlink:href="#g8A910A6E70931B86E8B815CA5261BBA3" x="9.972" y="0" fill="#4a7c59" fill-rule="nonzero"/><use xlink:href="#g8F65250A60F832F97E3E35BFA953458B" x="16.872" y="0" fill="#4a7c59" fill-rule="nonzero"/><use xlink:href="#g8F65250A60F832F97E3E35BFA953458B" x="22.56" y="0" fill="#4a7c59" fill-rule="nonzero"/><use xlink:href="#g29C2CF9FF01D76A52112BC3746A075D6" x="28.248" y="0" fill="#4a7c59" fill-rule="nonzero"/><use xlink:href="#gCE444BD0C7692D5C92DBC9C474C66E3E" x="32.076" y="0" fill="#4a7c59" fill-rule="nonzero"/><use xlink:href="#gA81297B2A945A8A4BEF40374F95E61DF" x="38.976" y="0" fill="#4a7c59" fill-rule="nonzero"/><use xlink:href="#g46D79F9649228E51EC58B44F019E6D22" x="49.896" y="0" fill="#4a7c59" fill-rule="nonzero"/></g></g></g><g transform="translate(77.733543307)"><g transform="matrix(1 0 0 -1 0 10.513)"><use xlink:href="#g1F936ABABCFCA1A2BBE0CFCFA07FF2CB" x="0" y="0" fill="#000000" fill-rule="nonzero"/><use xlink:href="#g5635C2E77DCE3A68CBA0E998B566F8ED" x="8.558" y="0" fill="#000000" fill-rule="nonzero"/><use xlink:href="#g66850B9E6D943556B4514DB893CD08CE" x="18.337" y="0" fill="#000000" fill-rule="nonzero"/><use xlink:href="#g4219BC89FA3AAAEFCF3FE517094689E4" x="24.453" y="0" fill="#000000" fill-rule="nonzero"/><use xlink:href="#gD8CAA00A782C273933863CE2AFE28829" x="29.337" y="0" fill="#000000" fill-rule="nonzero"/><use xlink:href="#g13D937BB10A31EC78824D081E8D671A3" x="33.649" y="0" fill="#000000" fill-rule="nonzero"/><use xlink:href="#gC0D2A859579FFB562717100DE739703C" x="36.707" y="0" fill="#000000" fill-rule="nonzero"/><use xlink:href="#g4D2A141AA7BF381107380276919D80EC" x="42.207" y="0" fill="#000000" fill-rule="nonzero"/><use xlink:href="#g55A7CE01FEF58ABF26DCDA5BD3DA34B" x="50.754" y="0" fill="#000000" fill-rule="nonzero"/><use xlink:href="#g4D2A141AA7BF381107380276919D80EC" x="55.033" y="0" fill="#000000" fill-rule="nonzero"/><use xlink:href="#gD8CAA00A782C273933863CE2AFE28829" x="59.917" y="0" fill="#000000" fill-rule="nonzero"/><use xlink:href="#g411C3BFBD4650795D699CF8B009BBEE3" x="64.229" y="0" fill="#000000" fill-rule="nonzero"/><use xlink:href="#g4D2A141AA7BF381107380276919D80EC" x="73.392" y="0" fill="#000000" fill-rule="nonzero"/><use xlink:href="#g2D9538F389D3CD820021984E8E8B5A3C" x="81.939" y="0" fill="#000000" fill-rule="nonzero"/><use xlink:href="#g55A7CE01FEF58ABF26DCDA5BD3DA34B" x="91.102" y="0" fill="#000000" fill-rule="nonzero"/><use xlink:href="#g4D2A141AA7BF381107380276919D80EC" x="95.381" y="0" fill="#000000" fill-rule="nonzero"/><use xlink:href="#gD8CAA00A782C273933863CE2AFE28829" x="100.265" y="0" fill="#000000" fill-rule="nonzero"/><use xlink:href="#g411C3BFBD4650795D699CF8B009BBEE3" x="104.577" y="0" fill="#000000" fill-rule="nonzero"/><use xlink:href="#g4D2A141AA7BF381107380276919D80EC" x="113.74" y="0" fill="#000000" fill-rule="nonzero"/><use xlink:href="#g72CA907C693333BD1DBF8BDB710FDF9F" x="122.287" y="0" fill="#000000" fill-rule="nonzero"/></g><g transform="matrix(1 0 0 -1 129.008 10.513)"><use xlink:href="#g312A15A35952CEA30EA1DD615DAEABC5" x="0" y="0" fill="#000000" fill-rule="nonzero"/></g><g transform="matrix(1 0 0 -1 133.65 10.513)"><use xlink:href="#g7FDD4349A49914F62F30F23AE9794251" x="0" y="0" fill="#000000" fill-rule="nonzero"/></g><g transform="matrix(1 0 0 -1 139.942 6.52)"><use xlink:href="#g777C235EA19CAB599B58B593B0044621" x="0" y="0" fill="#000000" fill-rule="nonzero"/></g><g transform="matrix(1 0 0 -1 144.9393 10.513)"><use xlink:href="#g5111BA2C45C2844593FFC2F098B3AD34" x="0" y="0" fill="#000000" fill-rule="nonzero"/></g><g transform="matrix(1 0 0 -1 149.5813 4.1572)"><use xlink:href="#g24C97E338F6D0205BFA2AEE81EF0C1DC" x="0" y="0" fill="#000000" fill-rule="nonzero"/></g><g transform="matrix(1 0 0 -1 156.386755556 10.513)"><use xlink:href="#g2389F7618E8CE27CC7151A1D8E5DEAD4" x="0" y="0" fill="#000000" fill-rule="nonzero"/></g><g transform="matrix(1 0 0 -1 168.000311111 10.513)"><use xlink:href="#g93E2B88EAD8DFDF0BE4D6467DB923DB5" x="0" y="0" fill="#000000" fill-rule="nonzero"/></g><g transform="matrix(1 0 0 -1 173.500311111 10.513)"><use xlink:href="#g7FDD4349A49914F62F30F23AE9794251" x="0" y="0" fill="#000000" fill-rule="nonzero"/></g><g transform="matrix(1 0 0 -1 179.792311111 6.52)"><use xlink:href="#g25B224D96CA3F5CCC7E774117FEA026D" x="0" y="0" fill="#000000" fill-rule="nonzero"/></g><g transform="matrix(1 0 0 -1 184.789611111 10.513)"><use xlink:href="#g4D2A141AA7BF381107380276919D80EC" x="3.663" y="0" fill="#000000" fill-rule="nonzero"/><use xlink:href="#g55A7CE01FEF58ABF26DCDA5BD3DA34B" x="8.547" y="0" fill="#000000" fill-rule="nonzero"/></g><g transform="matrix(1 0 0 -1 201.278611111 10.513)"><use xlink:href="#g9C5E01F97914784D6046F24928CB3533" x="0" y="0" fill="#000000" fill-rule="nonzero"/></g><g transform="matrix(1 0 0 -1 205.557611111 10.513)"><use xlink:href="#g93E2B88EAD8DFDF0BE4D6467DB923DB5" x="0" y="0" fill="#000000" fill-rule="nonzero"/></g><g transform="matrix(1 0 0 -1 211.057611111 10.513)"><use xlink:href="#g7FDD4349A49914F62F30F23AE9794251" x="0" y="0" fill="#000000" fill-rule="nonzero"/></g><g transform="matrix(1 0 0 -1 217.349611111 10.513)"><use xlink:href="#g44903F1336FFA3AC82F2FDAECC383B22" x="0" y="0" fill="#000000" fill-rule="nonzero"/></g><g transform="matrix(1 0 0 -1 221.628611111 6.52)"><use xlink:href="#g24C97E338F6D0205BFA2AEE81EF0C1DC" x="0" y="0" fill="#000000" fill-rule="nonzero"/></g><g transform="matrix(1 0 0 -1 228.434066667 10.513)"><use xlink:href="#g2389F7618E8CE27CC7151A1D8E5DEAD4" x="0" y="0" fill="#000000" fill-rule="nonzero"/></g><g transform="matrix(1 0 0 -1 240.047622222 10.513)"><use xlink:href="#g93E2B88EAD8DFDF0BE4D6467DB923DB5" x="0" y="0" fill="#000000" fill-rule="nonzero"/></g><g transform="matrix(1 0 0 -1 245.547622222 10.513)"><use xlink:href="#gA7B66580AB18612C5A48A112C9872D56" x="0" y="0" fill="#000000" fill-rule="nonzero"/></g><g transform="matrix(1 0 0 -1 0 25.176)"><use xlink:href="#g66850B9E6D943556B4514DB893CD08CE" x="0" y="0" fill="#000000" fill-rule="nonzero"/><use xlink:href="#g753D044DBB2ACFEB54AD413CC47D2DE7" x="6.116" y="0" fill="#000000" fill-rule="nonzero"/><use xlink:href="#gE430C86ACBD14DBA90023A8809998BA9" x="9.174" y="0" fill="#000000" fill-rule="nonzero"/><use xlink:href="#gC59C98D84F68DC3B730C0776C86D5621" x="14.674" y="0" fill="#000000" fill-rule="nonzero"/></g><g transform="matrix(1 0 0 -1 24.453 25.176)"><use xlink:href="#g8CAF94BAEF81D91CC1530A3D4F0B18EF" x="0" y="0" fill="#000000" fill-rule="nonzero"/></g><g transform="matrix(1 0 0 -1 30.833 21.183)"><use xlink:href="#g24C97E338F6D0205BFA2AEE81EF0C1DC" x="0" y="0" fill="#000000" fill-rule="nonzero"/></g><g transform="matrix(1 0 0 -1 34.5829 25.176)"><use xlink:href="#g9C5E01F97914784D6046F24928CB3533" x="0" y="0" fill="#000000" fill-rule="nonzero"/></g><g transform="matrix(1 0 0 -1 38.8619 25.176)"><use xlink:href="#g7FDD4349A49914F62F30F23AE9794251" x="0" y="0" fill="#000000" fill-rule="nonzero"/></g><g transform="matrix(1 0 0 -1 45.1539 25.176)"><use xlink:href="#g44903F1336FFA3AC82F2FDAECC383B22" x="0" y="0" fill="#000000" fill-rule="nonzero"/></g><g transform="matrix(1 0 0 -1 52.488455556 25.176)"><use xlink:href="#g2389F7618E8CE27CC7151A1D8E5DEAD4" x="0" y="0" fill="#000000" fill-rule="nonzero"/></g><g transform="matrix(1 0 0 -1 64.102011111 25.176)"><use xlink:href="#g93E2B88EAD8DFDF0BE4D6467DB923DB5" x="0" y="0" fill="#000000" fill-rule="nonzero"/></g><g transform="matrix(1 0 0 -1 69.602011111 25.176)"><use xlink:href="#g7FDD4349A49914F62F30F23AE9794251" x="0" y="0" fill="#000000" fill-rule="nonzero"/></g><g transform="matrix(1 0 0 -1 75.894011111 21.183)"><use xlink:href="#g25B224D96CA3F5CCC7E774117FEA026D" x="0" y="0" fill="#000000" fill-rule="nonzero"/></g><g transform="matrix(1 0 0 -1 83.335755556 25.176)"><use xlink:href="#g6CA3708905D5D56BD06755CEABD69DE1" x="0" y="0" fill="#000000" fill-rule="nonzero"/></g><g transform="matrix(1 0 0 -1 94.3382 25.176)"><use xlink:href="#g93E2B88EAD8DFDF0BE4D6467DB923DB5" x="0" y="0" fill="#000000" fill-rule="nonzero"/></g><g transform="matrix(1 0 0 -1 102.893755556 25.176)"><use xlink:href="#g2389F7618E8CE27CC7151A1D8E5DEAD4" x="0" y="0" fill="#000000" fill-rule="nonzero"/></g><g transform="matrix(1 0 0 -1 114.507311111 25.176)"><use xlink:href="#g93E2B88EAD8DFDF0BE4D6467DB923DB5" x="0" y="0" fill="#000000" fill-rule="nonzero"/></g><g transform="matrix(1 0 0 -1 120.007311111 25.176)"><use xlink:href="#g312A15A35952CEA30EA1DD615DAEABC5" x="0" y="0" fill="#000000" fill-rule="nonzero"/></g><g transform="matrix(1 0 0 -1 124.649311111 25.176)"><use xlink:href="#g7FDD4349A49914F62F30F23AE9794251" x="0" y="0" fill="#000000" fill-rule="nonzero"/></g><g transform="matrix(1 0 0 -1 130.941311111 21.183)"><use xlink:href="#g25B224D96CA3F5CCC7E774117FEA026D" x="0" y="0" fill="#000000" fill-rule="nonzero"/></g><g transform="matrix(1 0 0 -1 138.383055556 25.176)"><use xlink:href="#g6CA3708905D5D56BD06755CEABD69DE1" x="0" y="0" fill="#000000" fill-rule="nonzero"/></g><g transform="matrix(1 0 0 -1 149.3855 25.176)"><use xlink:href="#g23FF2CB0A5B3999574DE734D483151BD" x="0" y="0" fill="#000000" fill-rule="nonzero"/></g><g transform="matrix(1 0 0 -1 154.8855 25.176)"><use xlink:href="#g5111BA2C45C2844593FFC2F098B3AD34" x="0" y="0" fill="#000000" fill-rule="nonzero"/></g><g transform="matrix(1 0 0 -1 162.583055556 25.176)"><use xlink:href="#g2389F7618E8CE27CC7151A1D8E5DEAD4" x="0" y="0" fill="#000000" fill-rule="nonzero"/></g><g transform="matrix(1 0 0 -1 174.196611111 25.176)"><use xlink:href="#g93E2B88EAD8DFDF0BE4D6467DB923DB5" x="0" y="0" fill="#000000" fill-rule="nonzero"/></g><g transform="matrix(1 0 0 -1 179.696611111 25.176)"><use xlink:href="#g9C5E01F97914784D6046F24928CB3533" x="0" y="0" fill="#000000" fill-rule="nonzero"/></g><g transform="matrix(1 0 0 -1 183.975611111 25.176)"><use xlink:href="#g7FDD4349A49914F62F30F23AE9794251" x="0" y="0" fill="#000000" fill-rule="nonzero"/></g><g transform="matrix(1 0 0 -1 192.712055556 25.176)"><use xlink:href="#g6CA3708905D5D56BD06755CEABD69DE1" x="0" y="0" fill="#000000" fill-rule="nonzero"/></g><g transform="matrix(1 0 0 -1 203.7145 25.176)"><use xlink:href="#g23FF2CB0A5B3999574DE734D483151BD" x="0" y="0" fill="#000000" fill-rule="nonzero"/></g><g transform="matrix(1 0 0 -1 209.2145 25.176)"><use xlink:href="#g44903F1336FFA3AC82F2FDAECC383B22" x="0" y="0" fill="#000000" fill-rule="nonzero"/></g><g transform="matrix(1 0 0 -1 213.4935 25.176)"><use xlink:href="#g9C5E01F97914784D6046F24928CB3533" x="0" y="0" fill="#000000" fill-rule="nonzero"/></g><g transform="matrix(1 0 0 -1 217.7725 25.176)"><use xlink:href="#g7FDD4349A49914F62F30F23AE9794251" x="0" y="0" fill="#000000" fill-rule="nonzero"/></g><g transform="matrix(1 0 0 -1 226.508944444 25.176)"><use xlink:href="#gDDD45F8C02017DD13480202EA2B099EF" x="0" y="0" fill="#000000" fill-rule="nonzero"/></g><g transform="matrix(1 0 0 -1 237.511388889 25.176)"><use xlink:href="#g23FF2CB0A5B3999574DE734D483151BD" x="0" y="0" fill="#000000" fill-rule="nonzero"/></g><g transform="matrix(1 0 0 -1 243.011388889 25.176)"><use xlink:href="#g44903F1336FFA3AC82F2FDAECC383B22" x="0" y="0" fill="#000000" fill-rule="nonzero"/></g><g transform="matrix(1 0 0 -1 247.290388889 25.176)"><use xlink:href="#g4E5BF43E5EFA72E1A8415D4D8F5287AD" x="0" y="0" fill="#000000" fill-rule="nonzero"/></g></g></g><defs><symbol id="gE9C1545B3320FA3CF4DFE253152C187E" overflow="visible"><path d="M 0 0m 11.1342 4.2196h -0.7238c -0.3388 -2.1252 -0.77 -3.4958 -3.619 -3.4958h -2.3408v 4.3428h 0.847c 1.4784 0 1.6324 -0.6622 1.6324 -1.8018h 0.7238v 4.3274h -0.7238c 0 -1.1396 -0.1386 -1.8018 -1.6324 -1.8018h -0.847v 3.9578h 2.3408c 2.4794 0 2.8798 -1.1242 3.1262 -2.9876h 0.7238l -0.4774 3.7114h -9.5634v -0.7238h 1.6632v -9.0244h -1.6632v -0.7238h 9.8252Z "/></symbol><symbol id="g686687B33546154445D3140D949E3B5D" overflow="visible"><path d="M 0 0m 9.009 0v 0.7238h -1.0934l -2.5872 3.0646l 1.8018 2.002c 0.2002 0.2156 0.2926 0.3234 1.5708 0.3234v 0.7238l -1.4168 -0.0462l -1.5862 0.0462v -0.7238c 0.2156 0 0.4004 -0.0308 0.5852 -0.1386c -0.0616 -0.0924 -0.0616 -0.1232 -0.1232 -0.1848l -1.2936 -1.4476l -1.5092 1.771h 0.616v 0.7238l -1.8634 -0.0462l -1.694 0.0462v -0.7238h 1.0934l 2.4024 -2.8336l -2.0174 -2.2638c -0.2618 -0.2926 -0.8162 -0.2926 -1.5554 -0.2926v -0.7238l 1.4168 0.0462l 1.5862 -0.0462v 0.7238c -0.2772 0 -0.5698 0.077 -0.5698 0.1694c 0 0 0 0.0308 0.1078 0.154l 1.4938 1.6786l 1.694 -2.002h -0.6006v -0.7238l 1.848 0.0462Z "/></symbol><symbol id="gACD5F553D8FAFBDC63F8CA15CEE86C82" overflow="visible"><path d="M 0 0m 7.6076 1.8018c 0 0.2772 -0.2926 0.2772 -0.3696 0.2772c -0.2618 0 -0.2926 -0.077 -0.385 -0.3234c -0.3234 -0.7392 -1.2012 -1.232 -2.2022 -1.232c -2.1714 0 -2.1868 2.0482 -2.1868 2.8336h 4.6508c 0.3388 0 0.4928 0 0.4928 0.4158c 0 0.4774 -0.0924 1.6016 -0.8624 2.3716c -0.5698 0.5544 -1.386 0.8316 -2.4486 0.8316c -2.464 0 -3.8038 -1.5862 -3.8038 -3.5112c 0 -2.0636 1.54 -3.5574 4.0194 -3.5574c 2.4332 0 3.0954 1.6324 3.0954 1.8942Z m -1.463 2.0636h -3.6806c 0.0308 0.6006 0.0462 1.2474 0.3696 1.7556c 0.4004 0.616 1.0164 0.8008 1.463 0.8008c 1.8018 0 1.8326 -2.0174 1.848 -2.5564Z "/></symbol><symbol id="g4CF8E16E1597801E57BED25C7C865F1" overflow="visible"><path d="M 0 0m 6.8068 5.6672c 0 0.8162 -0.8316 1.2628 -1.6324 1.2628c -1.078 0 -1.694 -0.77 -2.0482 -1.7402v 1.7402l -2.5564 -0.1232v -0.7238c 0.9548 0 1.0626 0 1.0626 -0.6006v -4.7586h -1.0626v -0.7238l 1.9404 0.0462c 0.5852 0 1.5708 0 2.1252 -0.0462v 0.7238h -1.3398v 2.695c 0 1.078 0.385 2.9568 1.925 2.9568c 0 0 -0.2926 -0.2618 -0.2926 -0.7084c 0 -0.6314 0.4928 -0.9394 0.9394 -0.9394c 0.4466 0 0.9394 0.3234 0.9394 0.9394Z "/></symbol><symbol id="g37D37CD1495495361D4BD346C7710EA3" overflow="visible"><path d="M 0 0m 7.3612 1.8018c 0 0.2156 -0.2156 0.2156 -0.3696 0.2156c -0.2772 0 -0.2926 -0.0308 -0.3696 -0.231c -0.4004 -0.9702 -1.1396 -1.2628 -1.925 -1.2628c -2.1406 0 -2.1406 2.2638 -2.1406 2.9722c 0 0.8624 0 2.8644 1.9866 2.8644c 0.539 0 0.8008 -0.0462 1.001 -0.0924c -0.2772 -0.2464 -0.308 -0.5698 -0.308 -0.7084c 0 -0.6776 0.539 -0.9702 0.9548 -0.9702c 0.4774 0 0.9702 0.3234 0.9702 0.9702c 0 1.3244 -1.7864 1.4168 -2.6796 1.4168c -2.7566 0 -3.8962 -1.771 -3.8962 -3.5574c 0 -2.0482 1.4476 -3.5112 3.8192 -3.5112c 2.4948 0 2.9568 1.7864 2.9568 1.8942Z "/></symbol><symbol id="g2D3B4F5190C77C2035E22228FAFE0716" overflow="visible"><path d="M 0 0m 4.4044 0v 0.7238h -0.9548v 6.2062l -2.6796 -0.1232v -0.7238c 0.9086 0 1.0164 0 1.0164 -0.6006v -4.7586h -1.0626v -0.7238l 1.8788 0.0462Z m -0.7392 9.3478c 0 0.6622 -0.539 1.2012 -1.2012 1.2012c -0.6622 0 -1.2012 -0.539 -1.2012 -1.2012c 0 -0.6622 0.539 -1.2012 1.2012 -1.2012c 0.6622 0 1.2012 0.539 1.2012 1.2012Z "/></symbol><symbol id="g5C35C6B074D7F7909E24EE6274A603E6" overflow="visible"><path d="M 0 0m 6.391 2.156c 0 0.6622 -0.308 1.2012 -0.847 1.6324c -0.6006 0.4466 -1.0934 0.539 -2.2946 0.7392c -0.5698 0.1078 -1.5708 0.2772 -1.5708 1.001c 0 0.9548 1.4322 0.9548 1.7248 0.9548c 1.155 0 1.7402 -0.4466 1.8172 -1.2936c 0.0154 -0.231 0.0308 -0.308 0.3542 -0.308c 0.3696 0 0.3696 0.077 0.3696 0.4312v 1.232c 0 0.2926 0 0.4312 -0.2772 0.4312c -0.0616 0 -0.0924 0 -0.693 -0.2926c -0.4004 0.2002 -0.9394 0.2926 -1.5554 0.2926c -0.462 0 -2.8336 0 -2.8336 -2.0174c 0 -0.616 0.308 -1.0318 0.616 -1.2936c 0.616 -0.539 1.2012 -0.6314 2.387 -0.847c 0.5544 -0.0924 1.7094 -0.2926 1.7094 -1.2012c 0 -1.155 -1.4168 -1.155 -1.7556 -1.155c -1.6324 0 -2.0328 1.1242 -2.2176 1.7864c -0.077 0.2156 -0.154 0.2156 -0.3696 0.2156c -0.3696 0 -0.3696 -0.0924 -0.3696 -0.4466v -1.6786c 0 -0.2926 0 -0.4312 0.2772 -0.4312c 0.1078 0 0.1386 0 0.462 0.231l 0.4004 0.2618c 0.7084 -0.4928 1.5092 -0.4928 1.8172 -0.4928c 0.4774 0 2.849 0 2.849 2.2484Z "/></symbol><symbol id="g15FDC9540829902C6A15285882DDF5D4" overflow="visible"><path d="M 0 0m 8.676 3.288h -0.564c -0.264 -1.656 -0.6 -2.724 -2.82 -2.724h -1.824v 3.384h 0.66c 1.152 0 1.272 -0.516 1.272 -1.404h 0.564v 3.372h -0.564c 0 -0.888 -0.108 -1.404 -1.272 -1.404h -0.66v 3.084h 1.824c 1.932 0 2.244 -0.876 2.436 -2.328h 0.564l -0.372 2.892h -7.452v -0.564h 1.296v -7.032h -1.296v -0.564h 7.656Z "/></symbol><symbol id="g6DDC0B1539D34995AD07EFE28A10D26C" overflow="visible"><path d="M 0 0m 7.02 0v 0.564h -0.852l -2.016 2.388l 1.404 1.56c 0.156 0.168 0.228 0.252 1.224 0.252v 0.564l -1.104 -0.036l -1.236 0.036v -0.564c 0.168 0 0.312 -0.024 0.456 -0.108c -0.048 -0.072 -0.048 -0.096 -0.096 -0.144l -1.008 -1.128l -1.176 1.38h 0.48v 0.564l -1.452 -0.036l -1.32 0.036v -0.564h 0.852l 1.872 -2.208l -1.572 -1.764c -0.204 -0.228 -0.636 -0.228 -1.212 -0.228v -0.564l 1.104 0.036l 1.236 -0.036v 0.564c -0.216 0 -0.444 0.06 -0.444 0.132c 0 0 0 0.024 0.084 0.12l 1.164 1.308l 1.32 -1.56h -0.468v -0.564l 1.44 0.036Z "/></symbol><symbol id="g268E15286C97764CD8876C9ED473757C" overflow="visible"><path d="M 0 0m 5.928 1.404c 0 0.216 -0.228 0.216 -0.288 0.216c -0.204 0 -0.228 -0.06 -0.3 -0.252c -0.252 -0.576 -0.936 -0.96 -1.716 -0.96c -1.692 0 -1.704 1.596 -1.704 2.208h 3.624c 0.264 0 0.384 0 0.384 0.324c 0 0.372 -0.072 1.248 -0.672 1.848c -0.444 0.432 -1.08 0.648 -1.908 0.648c -1.92 0 -2.964 -1.236 -2.964 -2.736c 0 -1.608 1.2 -2.772 3.132 -2.772c 1.896 0 2.412 1.272 2.412 1.476Z m -1.14 1.608h -2.868c 0.024 0.468 0.036 0.972 0.288 1.368c 0.312 0.48 0.792 0.624 1.14 0.624c 1.404 0 1.428 -1.572 1.44 -1.992Z "/></symbol><symbol id="g8F65250A60F832F97E3E35BFA953458B" overflow="visible"><path d="M 0 0m 5.304 4.416c 0 0.636 -0.648 0.984 -1.272 0.984c -0.84 0 -1.32 -0.6 -1.596 -1.356v 1.356l -1.992 -0.096v -0.564c 0.744 0 0.828 0 0.828 -0.468v -3.708h -0.828v -0.564l 1.512 0.036c 0.456 0 1.224 0 1.656 -0.036v 0.564h -1.044v 2.1c 0 0.84 0.3 2.304 1.5 2.304c 0 0 -0.228 -0.204 -0.228 -0.552c 0 -0.492 0.384 -0.732 0.732 -0.732c 0.348 0 0.732 0.252 0.732 0.732Z "/></symbol><symbol id="gD99F495715AA37C3C68EC2F683F18248" overflow="visible"><path d="M 0 0m 5.736 1.404c 0 0.168 -0.168 0.168 -0.288 0.168c -0.216 0 -0.228 -0.024 -0.288 -0.18c -0.312 -0.756 -0.888 -0.984 -1.5 -0.984c -1.668 0 -1.668 1.764 -1.668 2.316c 0 0.672 0 2.232 1.548 2.232c 0.42 0 0.624 -0.036 0.78 -0.072c -0.216 -0.192 -0.24 -0.444 -0.24 -0.552c 0 -0.528 0.42 -0.756 0.744 -0.756c 0.372 0 0.756 0.252 0.756 0.756c 0 1.032 -1.392 1.104 -2.088 1.104c -2.148 0 -3.036 -1.38 -3.036 -2.772c 0 -1.596 1.128 -2.736 2.976 -2.736c 1.944 0 2.304 1.392 2.304 1.476Z "/></symbol><symbol id="g29C2CF9FF01D76A52112BC3746A075D6" overflow="visible"><path d="M 0 0m 3.432 0v 0.564h -0.744v 4.836l -2.088 -0.096v -0.564c 0.708 0 0.792 0 0.792 -0.468v -3.708h -0.828v -0.564l 1.464 0.036Z m -0.576 7.284c 0 0.516 -0.42 0.936 -0.936 0.936c -0.516 0 -0.936 -0.42 -0.936 -0.936c 0 -0.516 0.42 -0.936 0.936 -0.936c 0.516 0 0.936 0.42 0.936 0.936Z "/></symbol><symbol id="g49E56CD80A4200AB53E8FC93E781FD55" overflow="visible"><path d="M 0 0m 5.928 0v 0.564h -1.68v 6.912c 0 0.264 0 0.384 -0.312 0.384c -0.132 0 -0.156 0 -0.264 -0.084c -0.924 -0.684 -2.16 -0.684 -2.412 -0.684h -0.24v -0.564h 0.24c 0.192 0 0.852 0.012 1.56 0.24v -6.204h -1.668v -0.564c 0.528 0.036 1.8 0.036 2.388 0.036c 0.588 0 1.86 0 2.388 -0.036Z "/></symbol><symbol id="gB5CAAF92F0AAC5D056618E9037710D1B" overflow="visible"><path d="M 0 0m 4.796 3.74c 0.792 0.187 1.914 0.759 1.914 1.826c 0 0.968 -1.188 1.947 -2.871 1.947h -3.454v -0.341h 0.352c 0.649 0 0.781 -0.121 0.781 -0.429v -5.907c 0 -0.462 -0.165 -0.495 -0.979 -0.495h -0.154v -0.341c 0.374 0.022 1.045 0.033 1.683 0.033c 0.638 0 1.1 -0.011 1.529 -0.033v 0.341h -0.385c -0.704 0 -0.737 0.154 -0.737 0.473l -0.011 2.816h 0.737c 0.803 0 0.759 0 0.891 -0.022c 0.506 -0.11 0.935 -0.517 1.034 -1.012c 0.033 -0.132 0.033 -0.121 0.044 -0.792c 0 -0.704 0 -0.682 0.033 -0.836c 0.22 -1.166 1.573 -1.21 1.782 -1.21c 0.693 0 1.045 0.561 1.067 1.21c 0 0.132 -0.022 0.187 -0.132 0.187c -0.121 0 -0.154 -0.055 -0.154 -0.187c 0 -0.484 -0.297 -0.957 -0.715 -0.957c -0.374 0 -0.539 0.253 -0.66 0.825c -0.099 0.418 -0.198 1.463 -0.297 1.694c -0.143 0.616 -0.726 1.023 -1.298 1.21Z m 0.77 1.804c 0 -0.594 -0.132 -1.001 -0.462 -1.254c -0.542666443 -0.407 -1.084837738 -0.407 -1.991 -0.407h -0.649v 2.959c 0.011 0.253 0.033 0.33 0.682 0.33h 0.737c 1.683 -0.078278992 1.683 -1.212402893 1.683 -1.628Z "/></symbol><symbol id="g4219BC89FA3AAAEFCF3FE517094689E4" overflow="visible"><path d="M 0 0m 3.806 7.282c 0 0.198 -0.198 0.396 -0.396 0.396c -0.165 0 -0.286 -0.121 -0.33 -0.187l -1.32 -1.683l 0.187 -0.198l 1.672 1.342c 0.099 0.077 0.187 0.198 0.187 0.33Z m 0.462 -6.017c -0.352 -1.012 -1.21 -1.111 -1.474 -1.111c -0.385 0 -0.649 0.143 -0.891 0.341c -0.462 0.385 -0.682 0.99 -0.682 1.881v 0.165h 3.146c 0.176 0 0.198 0.033 0.198 0.22c 0 1.265 -0.715 2.167 -1.969 2.167c -1.342 0 -2.288 -1.177 -2.288 -2.508c 0 -1.518 1.177 -2.541 2.442 -2.541c 1.298 0 1.815 1.199 1.815 1.43c 0 0.066 -0.033 0.132 -0.132 0.132c -0.077 0 -0.121 -0.044 -0.165 -0.176Z m -1.683 3.421c 1.111 0 1.254 -1.43 1.254 -1.87v -0.033h -2.607v 0.077c 0.088 1.452 0.913 1.826 1.353 1.826Z "/></symbol><symbol id="gCCF13623E43E7E3CF9E9A30EAD81337F" overflow="visible"><path d="M 0 0m 3.685 4.752v -1.265c 0 -0.154 -0.022 -0.198 -0.132 -0.198c -0.132 0 -0.154 0.066 -0.154 0.187c 0 0.165 -0.055 1.243 -1.254 1.243c -0.902 0 -1.254 -0.396 -1.254 -0.825c 0 -0.451 0.374 -0.66 0.704 -0.759c 0.516698212 -0.15500943 0.781 -0.143 1.276 -0.308c 0.699875 -0.233288086 1.089 -0.792 1.089 -1.408c 0 -0.737 -0.418 -1.54 -1.782 -1.54c -0.528 0 -0.902 0.176 -1.199 0.473c -0.343221786 -0.396025009 -0.411306107 -0.474583969 -0.519952423 -0.474583969c -0.061688354 0 -0.096047577 0.037494431 -0.096047577 0.232583969v 1.529c 0 0.197990768 0.033 0.231 0.143 0.231c 0.088 0 0.116321106 -0.022944809 0.143 -0.143c 0.088 -0.396 0.21286937 -0.745836624 0.360292969 -0.979c 0.354707031 -0.561 0.866256714 -0.627 1.179707031 -0.627c 0.737 0 1.243 0.341 1.243 1.001c 0 0.506 -0.363 0.781 -0.836 0.935c -0.297684982 0.096920715 -1.078 0.165 -1.54 0.429c -0.363 0.209 -0.693 0.572 -0.693 1.078c 0 0.583 0.363 1.364 1.771 1.364c 0.473 0 0.77 -0.132 1.023 -0.308c 0.286 0.275 0.326916992 0.308 0.407 0.308c 0.066 0 0.121 -0.011 0.121 -0.176Z "/></symbol><symbol id="gE430C86ACBD14DBA90023A8809998BA9" overflow="visible"><path d="M 0 0m 2.75 0.154c -0.66 0 -1.166 0.451 -1.364 0.99c -0.121 0.341 -0.165 0.726 -0.165 1.43c 0 0.704 0.088 1.166 0.385 1.54c 0.233487488 0.294021393 0.649 0.572 1.111 0.572c 0.462 0 0.968 -0.253 1.166 -0.572c 0.297 -0.374 0.385 -0.836 0.385 -1.54c 0 -0.704 -0.044 -1.089 -0.165 -1.43c -0.198 -0.539 -0.693 -0.99 -1.353 -0.99Z m 2.431 2.2c 0 1.408 -1.1 2.574 -2.431 2.574c -1.375 0 -2.442 -1.199 -2.442 -2.574c 0 -1.419 1.144 -2.475 2.431 -2.475c 1.331 0 2.442 1.078 2.442 2.475Z "/></symbol><symbol id="g992DAE7EC445D79649F36CBA22FE73D8" overflow="visible"><path d="M 0 0m 5.885 0l -1.584 -0.121v 0.99c -0.231 -0.528 -0.671 -0.99 -1.419 -0.99c -1.463 0 -1.672 0.789217773 -1.672 1.551v 2.211c 0 0.649 -0.066 0.759 -0.715 0.759h -0.143v 0.341l 1.617 0.121v -3.696c 0 -0.55 0.099 -1.023 0.946 -1.023c 0.741876953 0 1.353 0.635754883 1.353 1.705v 2.046c 0 0.418 -0.209 0.506 -0.715 0.506h -0.143v 0.341l 1.617 0.121v -3.938c 0 -0.451 0.088 -0.583 0.748 -0.583h 0.11Z "/></symbol><symbol id="g66850B9E6D943556B4514DB893CD08CE" overflow="visible"><path d="M 0 0m 2.695 -0.121c 1.012 0 1.474 0.715 1.485 0.726v -0.726h 0.044c 0 0 1.529 0.121 1.54 0.121h 0.033v 0.341h -0.121c -0.627 0 -0.737 0.121 -0.737 0.561v 6.732h -0.011c -0.077 0 -1.573 -0.121 -1.573 -0.121v -0.341h 0.132c 0.561 0 0.726 -0.11 0.726 -0.517v -2.464c -0.363 0.44 -0.858 0.671 -1.386 0.671c -1.408 0 -2.453 -1.188 -2.453 -2.486c 0 -1.38214389 1.057933426 -2.497 2.321 -2.497Z m 0.077 0.242c -0.407 0 -0.693 0.165 -0.957 0.429c -0.363 0.429 -0.528 0.847 -0.528 1.804c 0 0.286 0.011 0.902 0.242 1.386c 0.242 0.506 0.792 0.88 1.342 0.88c 0.572 0 1.023 -0.33 1.298 -0.869v -2.64c -0.077 -0.242 -0.561 -0.99 -1.397 -0.99Z "/></symbol><symbol id="gD8CAA00A782C273933863CE2AFE28829" overflow="visible"><path d="M 0 0m 1.166 0.814c 0 -0.451 -0.11 -0.473 -0.858 -0.473v -0.341c 0.286 0 0.781 0.033 1.265 0.033c 0.484 0 1.166 -0.033 1.386 -0.033v 0.341c -1.067 0 -1.067 0.055 -1.067 0.616v 0.781c 0 0.924 0 1.034 0.011 1.122c 0.165 1.606 1.012 1.76 1.265 1.76c 0.055 0 0.088 0 0.143 -0.011c -0.154 -0.088 -0.253 -0.22 -0.253 -0.44c 0 -0.297 0.231 -0.462 0.473 -0.462c 0.176 0 0.473 0.11 0.473 0.484c 0 0.374 -0.363 0.671 -0.814 0.671c -0.704 0 -1.144 -0.572 -1.353 -1.21v 1.21l -1.529 -0.121v -0.341h 0.143c 0.539 -0.033 0.66 -0.066 0.704 -0.429c 0.011 -0.055 0.011 -0.583 0.011 -1.705Z "/></symbol><symbol id="g4D2A141AA7BF381107380276919D80EC" overflow="visible"><path d="M 0 0m 4.268 1.265c -0.352 -1.012 -1.21 -1.111 -1.474 -1.111c -0.385 0 -0.649 0.143 -0.891 0.341c -0.462 0.385 -0.682 0.99 -0.682 1.881v 0.165h 3.146c 0.176 0 0.198 0.033 0.198 0.22c 0 1.265 -0.715 2.167 -1.969 2.167c -1.342 0 -2.288 -1.177 -2.288 -2.508c 0 -1.518 1.177 -2.541 2.442 -2.541c 1.298 0 1.815 1.199 1.815 1.43c 0 0.066 -0.033 0.132 -0.132 0.132c -0.077 0 -0.121 -0.044 -0.165 -0.176Z m -1.683 3.421c 1.111 0 1.254 -1.43 1.254 -1.87v -0.033h -2.607v 0.077c 0.088 1.452 0.913 1.826 1.353 1.826Z "/></symbol><symbol id="g7FDD4349A49914F62F30F23AE9794251" overflow="visible"><path d="M 0 0m 5.797 4.103c 0 0.506 -0.495 0.759 -1.045 0.759c -0.473 0 -0.847 -0.253 -1.133 -0.759c -0.231 0.506 -0.616 0.759 -1.177 0.759c -0.539 0 -0.979 -0.253 -1.331 -0.748c -0.297 -0.429 -0.451 -0.748 -0.451 -0.957c 0 -0.099 0.055 -0.154 0.165 -0.154c 0.099 0 0.165 0.055 0.187 0.154c 0.209 0.638 0.671 1.386 1.408 1.386c 0.363 0 0.539 -0.231 0.539 -0.682c 0 -0.231 -0.198 -1.089 -0.583 -2.563c -0.187 -0.737 -0.517 -1.1 -0.99 -1.1c -0.154 0 -0.297 0.033 -0.418 0.088c 0.286 0.11 0.429 0.308 0.429 0.594c 0 0.286 -0.143 0.429 -0.44 0.429c -0.363 0 -0.638 -0.308 -0.638 -0.671c 0 -0.506 0.517 -0.759 1.056 -0.759c 0.462 0 0.836 0.253 1.133 0.759c 0.209 -0.506 0.605 -0.759 1.177 -0.759c 0.528 0 0.968 0.253 1.32 0.748c 0.297 0.429 0.451 0.748 0.451 0.957c 0 0.099 -0.055 0.154 -0.165 0.154c -0.099 0 -0.154 -0.055 -0.187 -0.154c -0.187 -0.627 -0.682 -1.386 -1.397 -1.386c -0.363 0 -0.55 0.22 -0.55 0.671c 0 0.143 0.055 0.451 0.176 0.946l 0.374 1.485c 0.209 0.825 0.55 1.243 1.034 1.243c 0.154 0 0.297 -0.033 0.418 -0.088c -0.297 -0.099 -0.44 -0.297 -0.44 -0.594c 0 -0.286 0.154 -0.429 0.451 -0.429c 0.352 0 0.627 0.319 0.627 0.671Z "/></symbol><symbol id="g25B224D96CA3F5CCC7E774117FEA026D" overflow="visible"><path d="M 0 0m 0.9163 3.2648c 0.2464 0 0.4312 0.1848 0.4312 0.4312c 0 0.2772 -0.1463 0.4235 -0.4312 0.4312c 0.1694 0.3619 0.5544 0.6545 1.0549 0.6545c 0.6776 0 1.1242 -0.5082 1.1242 -1.1858c 0 -0.3696 -0.1309 -0.7238 -0.4004 -1.0703c -0.1309 -0.1771 -0.231 -0.3003 -0.3003 -0.3696l -1.8249 -1.8095c -0.1001 -0.0924 -0.0847 -0.1155 -0.0847 -0.3465h 3.1724l 0.2387 1.4476h -0.3234c -0.0539 -0.4081 -0.1155 -0.6468 -0.1848 -0.7007c -0.0385 -0.0231 -0.2772 -0.0385 -0.7315 -0.0385h -1.309c 0.5159 0.4543 0.9933 0.8624 1.4476 1.2243c 0.3465 0.2695 0.5929 0.5082 0.7469 0.7161c 0.231 0.3003 0.3465 0.616 0.3465 0.9471c 0 0.4774 -0.1848 0.8547 -0.5621 1.1319c -0.3311 0.2541 -0.7469 0.385 -1.2397 0.385c -0.4235 0 -0.7854 -0.1232 -1.1011 -0.3696c -0.3311 -0.2695 -0.5005 -0.6083 -0.5005 -1.0241c 0 -0.2618 0.1925 -0.4543 0.4312 -0.4543Z "/></symbol><symbol id="g6CA3708905D5D56BD06755CEABD69DE1" overflow="visible"><path d="M 0 0m 7.678 2.97h -6.798c -0.176 0 -0.264 -0.077 -0.264 -0.22c 0 -0.143 0.088 -0.22 0.264 -0.22h 6.798c 0.176 0 0.264 0.077 0.264 0.22c 0 0.132 -0.132 0.22 -0.264 0.22Z "/></symbol><symbol id="g8894C0A608DBD285706C131FF554A2B1" overflow="visible"><path d="M 0 0m 1.298 3.465c 0.055 0 0.121 0.044 0.176 0.121c 0.33 0.495 0.781 0.737 1.353 0.737c 0.385 0 0.682 -0.22 0.88 -0.671c 0.121 -0.297 0.187 -0.748 0.187 -1.353c 0 -0.693 -0.088 -1.177 -0.253 -1.463c -0.275 -0.451 -0.649 -0.682 -1.122 -0.682c -0.737 0 -1.32 0.528 -1.518 1.1c 0.033 -0.011 0.055 0 0.099 0c 0.33 0 0.605 0.253 0.605 0.583c 0 0.341 -0.275 0.572 -0.605 0.572c -0.385 0 -0.55 -0.209 -0.55 -0.616c 0 -1.1 0.891 -2.035 1.991 -2.035c 0.671 0 1.243 0.242 1.705 0.726c 0.462 0.484 0.693 1.067 0.693 1.738c 0 0.638 -0.187 1.188 -0.561 1.661c -0.407 0.517 -0.913 0.77 -1.529 0.77c -0.517 0 -0.968 -0.165 -1.331 -0.495v 1.958c 0.297 -0.088 0.583 -0.132 0.88 -0.132c 0.506 0 0.946 0.121 1.32 0.374c 0.341 0.209 0.572 0.418 0.704 0.616c 0.066 0.088 0.099 0.154 0.099 0.187c 0 0.11 -0.055 0.165 -0.165 0.165c -0.605 -0.231 -1.122 -0.352 -1.54 -0.352c -0.495 0 -0.968 0.099 -1.419 0.308c -0.055 0.022 -0.099 0.033 -0.143 0.033c -0.099 0 -0.154 -0.099 -0.154 -0.308v -3.212c 0 -0.231 0 -0.33 0.198 -0.33Z "/></symbol><symbol id="gDDD45F8C02017DD13480202EA2B099EF" overflow="visible"><path d="M 0 0m 7.678 3.014h -3.135v 3.135c 0 0.176 -0.088 0.264 -0.264 0.264c -0.176 0 -0.264 -0.088 -0.264 -0.264v -3.135h -3.135c -0.176 0 -0.264 -0.088 -0.264 -0.264c 0 -0.176 0.088 -0.264 0.264 -0.264h 3.135v -3.135c 0 -0.176 0.088 -0.264 0.264 -0.264c 0.176 0 0.264 0.088 0.264 0.264v 3.135h 3.135c 0.176 0 0.264 0.088 0.264 0.264c 0 0.143 -0.121 0.264 -0.264 0.264Z "/></symbol><symbol id="gA754BD559092BEFA127826A2A25BC17" overflow="visible"><path d="M 0 0m 4.213 5.544c 0.363 0 0.539 0.187 0.539 0.561c 0 0.792 -0.594 1.221 -1.408 1.221c -0.913 0 -1.639 -0.429 -2.178 -1.298c -0.473 -0.748 -0.704 -1.595 -0.704 -2.552c 0 -1.397 0.253 -2.376 0.77 -2.959c 0.44 -0.506 0.946 -0.759 1.529 -0.759c 0.671 0 1.221 0.253 1.65 0.759c 0.407 0.484 0.616 1.067 0.616 1.738c 0 0.671 -0.198 1.243 -0.594 1.716c -0.418 0.506 -0.957 0.77 -1.606 0.77c -0.572 0 -1.012 -0.319 -1.309 -0.935v 0.066c 0 1.243 0.308 2.299 0.968 2.783c 0.286 0.209 0.583 0.308 0.88 0.308c 0.396 0 0.682 -0.11 0.869 -0.341c -0.374 0 -0.561 -0.209 -0.561 -0.539c 0 -0.308 0.231 -0.539 0.539 -0.539Z m -0.429 -1.804c 0.121 -0.253 0.187 -0.748 0.187 -1.474c 0 -0.715 -0.055 -1.188 -0.176 -1.43c -0.22 -0.451 -0.561 -0.682 -1.034 -0.682c -0.319 0 -0.561 0.11 -0.737 0.33c -0.143 0.176 -0.242 0.33 -0.286 0.451c -0.132 0.341 -0.198 0.858 -0.198 1.562c 0 0.308 0.044 0.605 0.121 0.891c 0.143 0.517 0.55 1.001 1.155 1.001c 0.429 0 0.759 -0.22 0.968 -0.649Z "/></symbol><symbol id="g2389F7618E8CE27CC7151A1D8E5DEAD4" overflow="visible"><path d="M 0 0m 7.678 4.037h -6.798c -0.176 0 -0.264 -0.088 -0.264 -0.253c 0 -0.165 0.088 -0.253 0.264 -0.253h 6.798c 0.176 0 0.264 0.088 0.264 0.253c 0 0.132 -0.121 0.253 -0.264 0.253Z m 0 -2.068h -6.798c -0.176 0 -0.264 -0.088 -0.264 -0.253c 0 -0.165 0.088 -0.253 0.264 -0.253h 6.798c 0.176 0 0.264 0.088 0.264 0.253c 0 0.143 -0.121 0.253 -0.264 0.253Z "/></symbol><symbol id="g5DF7FDD026DB928A9BECE5CB45FEF99F" overflow="visible"><path d="M 0 0m 2.739 -0.242c 1.551 0 2.321 1.254 2.321 3.762c 0 1.683 -0.352 2.805 -1.045 3.355c -0.385 0.297 -0.814 0.451 -1.265 0.451c -1.551 0 -2.321 -1.265 -2.321 -3.806c 0 -2.024 0.539 -3.762 2.31 -3.762Z m 1.232 6.006c 0.077 -0.385 0.11 -1.089 0.11 -2.112c 0 -1.012 -0.044 -1.76 -0.121 -2.244c -0.143 -0.88 -0.55 -1.32 -1.221 -1.32c -0.253 0 -0.506 0.099 -0.737 0.286c -0.297 0.253 -0.473 0.77 -0.55 1.562c -0.033 0.275 -0.044 0.847 -0.044 1.716c 0 0.957 0.033 1.628 0.088 1.991c 0.099 0.605 0.297 0.99 0.605 1.155c 0.242 0.132 0.451 0.198 0.638 0.198c 0.715 0 1.111 -0.583 1.232 -1.232Z "/></symbol><symbol id="g4E5BF43E5EFA72E1A8415D4D8F5287AD" overflow="visible"><path d="M 0 0m 2.112 0.583c 0 0.319 -0.264 0.583 -0.583 0.583c -0.319 0 -0.583 -0.264 -0.583 -0.583c 0 -0.319 0.264 -0.583 0.583 -0.583c 0.319 0 0.583 0.264 0.583 0.583Z "/></symbol><symbol id="gFD567E7B397ADF00826F4253C32029E1" overflow="visible"><path d="M 0 0m 4.304 1.904c 0 0.232 -0.056 0.56 -0.264 0.816c -0.2 0.248 -0.296 0.272 -1.056 0.496c -0.152 0.04 -0.4 0.112 -0.44 0.128c -0.272 0.12 -0.408 0.376 -0.408 0.704c 0 0.656 0.616 1.368 1.296 1.368c 0.752 0 0.976 -0.544 0.976 -1.136c 0 -0.208 -0.008 -0.264 -0.04 -0.44l -0.008 -0.112c 0 -0.08 0.08 -0.08 0.12 -0.08c 0.088 0 0.112 0.008 0.144 0.144l 0.416 1.656c 0.008 0.032 0.016 0.08 0.016 0.112c 0 0 -0.008 0.08 -0.088 0.08c -0.04 0 -0.048 -0.008 -0.12 -0.096l -0.36 -0.448c -0.312 0.536 -0.88 0.544 -1.04 0.544c -0.984 0 -1.856 -0.984 -1.856 -1.904c 0 -0.416 0.176 -0.84 0.64 -1.056c 0.048 -0.024 0.224 -0.072 0.344 -0.104l 0.392 -0.112c 0.416 -0.12 0.48 -0.144 0.616 -0.288c 0.088 -0.112 0.176 -0.288 0.176 -0.576c 0 -0.728 -0.624 -1.528 -1.336 -1.528c -0.6 0 -1.2 0.288 -1.2 1.12c 0 0.184 0.04 0.4 0.064 0.488l 0.008 0.048c 0 0.088 -0.072 0.088 -0.12 0.088c -0.096 0 -0.112 -0.016 -0.144 -0.136l -0.416 -1.672c -0.016 -0.056 -0.024 -0.08 -0.024 -0.104c 0 -0.048 0.04 -0.08 0.088 -0.08c 0.056 0 0.064 0.016 0.128 0.096c 0.088 0.096 0.296 0.352 0.376 0.456c 0.296 -0.432 0.808 -0.552 1.224 -0.552c 1.008 0 1.896 1.072 1.896 2.08Z "/></symbol><symbol id="gB1571A8AD97B337ED23E41FA5DD379BD" overflow="visible"><path d="M 0 0m 4.072 2.224c 0 0.76 -0.472 1.312 -1.168 1.312c -0.992 0 -2.024 -1.136 -2.024 -2.304c 0 -0.824 0.504 -1.32 1.168 -1.32c 0.992 0 2.024 1.136 2.024 2.312Z m -0.56 0.312c 0 -0.344 -0.176 -1.168 -0.432 -1.648c -0.232 -0.44 -0.64 -0.8 -1.032 -0.8c -0.312 0 -0.608 0.248 -0.608 0.824c 0 0.4 0.208 1.288 0.464 1.72c 0.296 0.488 0.68 0.728 0.992 0.728c 0.392 0 0.616 -0.352 0.616 -0.824Z "/></symbol><symbol id="gC793A0A8175F90E47C5FB71A5799F39A" overflow="visible"><path d="M 0 0m 2.24 1.144c 0 0.08 -0.064 0.08 -0.12 0.08c -0.04 0 -0.088 0 -0.112 -0.04l -0.056 -0.2c -0.136 -0.56 -0.288 -0.896 -0.512 -0.896c -0.208 0 -0.208 0.216 -0.208 0.328c 0 0.056 0 0.176 0.048 0.368l 1.144 4.568c 0.008 0.024 0.024 0.104 0.024 0.104c 0 0.072 -0.048 0.096 -0.112 0.096c -0.024 0 -0.104 -0.008 -0.128 -0.016l -0.792 -0.064c -0.096 -0.008 -0.184 -0.016 -0.184 -0.168c 0 -0.088 0.08 -0.088 0.192 -0.088c 0.384 0 0.4 -0.056 0.4 -0.136c 0 -0.024 -0.024 -0.136 -0.024 -0.136l -1 -4c -0.008 -0.032 -0.048 -0.192 -0.048 -0.312c 0 -0.424 0.288 -0.72 0.672 -0.72c 0.304 0 0.464 0.216 0.568 0.416c 0.136 0.28 0.248 0.792 0.248 0.816Z "/></symbol><symbol id="g64B02548378EB48A8197B9E81C55C3DB" overflow="visible"><path d="M 0 0m 4.488 1.144c 0 0.08 -0.064 0.08 -0.12 0.08c -0.096 0 -0.104 -0.008 -0.152 -0.184c -0.112 -0.448 -0.264 -0.952 -0.536 -0.952c -0.208 0 -0.208 0.216 -0.208 0.328c 0 0.056 0 0.184 0.056 0.408l 0.576 2.304c 0.016 0.048 0.024 0.088 0.024 0.112c 0 0.088 -0.064 0.208 -0.224 0.208c -0.24 0 -0.296 -0.232 -0.312 -0.296l -0.584 -2.336c -0.04 -0.144 -0.04 -0.16 -0.112 -0.264c -0.152 -0.224 -0.384 -0.464 -0.736 -0.464c -0.36 0 -0.432 0.352 -0.432 0.616c 0 0.488 0.264 1.208 0.464 1.752c 0.064 0.168 0.104 0.28 0.104 0.432c 0 0.4 -0.264 0.648 -0.608 0.648c -0.744 0 -1.024 -1.184 -1.024 -1.232c 0 -0.08 0.08 -0.08 0.12 -0.08c 0.104 0 0.112 0.016 0.144 0.128c 0.064 0.248 0.28 1.008 0.744 1.008c 0.088 0 0.176 -0.024 0.176 -0.232c 0 -0.192 -0.08 -0.408 -0.192 -0.72c -0.208 -0.56 -0.416 -1.152 -0.416 -1.568c 0 -0.696 0.464 -0.928 0.896 -0.928c 0.424 0 0.696 0.24 0.888 0.48c 0.144 -0.432 0.488 -0.48 0.64 -0.48c 0.296 0 0.464 0.2 0.584 0.448c 0.144 0.304 0.24 0.784 0.24 0.784Z "/></symbol><symbol id="gD88E21950AAF0FFF629A36C23E696669" overflow="visible"><path d="M 0 0m 2.848 1.144c 0 0.08 -0.064 0.08 -0.12 0.08c -0.096 0 -0.096 -0.008 -0.16 -0.152c -0.144 -0.384 -0.464 -0.984 -0.92 -0.984c -0.216 0 -0.216 0.2 -0.216 0.328c 0 0.056 0 0.184 0.056 0.408l 0.592 2.376h 0.68c 0.136 0 0.224 0 0.224 0.152c 0 0.096 -0.072 0.096 -0.2 0.096h -0.64l 0.296 1.184c 0.032 0.112 0.032 0.128 0.032 0.168c 0 0.168 -0.136 0.208 -0.216 0.208c -0.2 0 -0.28 -0.168 -0.312 -0.288l -0.312 -1.272h -0.68c -0.136 0 -0.224 0 -0.224 -0.152c 0 -0.096 0.072 -0.096 0.2 -0.096h 0.64l -0.576 -2.296c -0.008 -0.032 -0.04 -0.16 -0.04 -0.272c 0 -0.4 0.264 -0.72 0.68 -0.72c 0.808 0 1.216 1.192 1.216 1.232Z "/></symbol><symbol id="g89D860EBDEB65B0C8F2254C1EB82B22E" overflow="visible"><path d="M 0 0m 2.648 1.144c 0 0.08 -0.064 0.08 -0.12 0.08c -0.104 0 -0.104 -0.016 -0.136 -0.136c -0.064 -0.232 -0.28 -1 -0.744 -1c -0.064 0 -0.176 0.008 -0.176 0.224c 0 0.208 0.104 0.472 0.208 0.768l 0.512 1.368c 0.08 0.232 0.096 0.296 0.096 0.448c 0 0.44 -0.304 0.64 -0.6 0.64c -0.752 0 -1.024 -1.192 -1.024 -1.232c 0 -0.08 0.08 -0.08 0.12 -0.08c 0.104 0 0.112 0.016 0.144 0.128c 0.072 0.264 0.28 1.008 0.744 1.008c 0.088 0 0.176 -0.04 0.176 -0.224c 0 -0.192 -0.088 -0.424 -0.144 -0.576l -0.24 -0.664l -0.296 -0.792c -0.112 -0.304 -0.144 -0.392 -0.144 -0.552c 0 -0.312 0.192 -0.64 0.608 -0.64c 0.752 0 1.016 1.2 1.016 1.232Z m 0.216 3.744c 0 0.168 -0.12 0.344 -0.36 0.344c -0.256 0 -0.512 -0.248 -0.512 -0.504c 0 -0.176 0.128 -0.344 0.36 -0.344c 0.256 0 0.512 0.248 0.512 0.504Z "/></symbol><symbol id="g3E89BCE78B7E004754F1BE5EEB6CE3AA" overflow="visible"><path d="M 0 0m 4.688 1.144c 0 0.08 -0.064 0.08 -0.12 0.08c -0.104 0 -0.104 -0.016 -0.136 -0.136c -0.064 -0.216 -0.28 -1 -0.744 -1c -0.168 0 -0.176 0.12 -0.176 0.232c 0 0.2 0.08 0.408 0.144 0.6c 0.16 0.424 0.488 1.32 0.488 1.784c 0 0.656 -0.44 0.832 -0.832 0.832c -0.656 0 -1.04 -0.48 -1.144 -0.632c -0.056 0.392 -0.328 0.632 -0.672 0.632c -0.288 0 -0.448 -0.184 -0.576 -0.424c -0.152 -0.32 -0.256 -0.808 -0.256 -0.808c 0 -0.08 0.08 -0.08 0.12 -0.08c 0.104 0 0.112 0.008 0.152 0.184c 0.144 0.56 0.296 0.952 0.544 0.952c 0.208 0 0.208 -0.232 0.208 -0.32c 0 -0.128 -0.024 -0.28 -0.056 -0.408l -0.6 -2.4c -0.016 -0.048 -0.024 -0.088 -0.024 -0.112c 0 -0.088 0.064 -0.208 0.224 -0.208c 0.096 0 0.232 0.056 0.288 0.208l 0.32 1.28c 0.04 0.176 0.088 0.344 0.128 0.52c 0.104 0.408 0.104 0.416 0.24 0.648c 0.112 0.192 0.472 0.792 1.08 0.792c 0.352 0 0.368 -0.36 0.368 -0.528c 0 -0.496 -0.352 -1.448 -0.464 -1.768c -0.104 -0.272 -0.128 -0.344 -0.128 -0.512c 0 -0.352 0.224 -0.64 0.608 -0.64c 0.744 0 1.016 1.192 1.016 1.232Z "/></symbol><symbol id="g8DBC885062845FD28572A9997804BEA2" overflow="visible"><path d="M 0 0m 6.193 0.044h -2.09c -0.693 0 -1.309 0.231 -1.815 0.704c -0.506 0.473 -0.792 1.045 -0.858 1.738h 4.763c 0.176 0 0.264 0.088 0.264 0.264c 0 0.176 -0.088 0.264 -0.264 0.264h -4.763c 0.066 0.693 0.352 1.265 0.858 1.738c 0.506 0.473 1.122 0.704 1.815 0.704h 2.09c 0.176 0 0.264 0.088 0.264 0.253c 0 0.176 -0.088 0.264 -0.264 0.264h -2.09c -0.891 0 -1.65 -0.308 -2.277 -0.935c -0.627 -0.627 -0.935 -1.386 -0.935 -2.288c 0 -0.902 0.308 -1.661 0.935 -2.288c 0.627 -0.627 1.386 -0.935 2.277 -0.935h 2.09c 0.176 0 0.264 0.088 0.264 0.264c 0 0.132 -0.121 0.253 -0.264 0.253Z "/></symbol><symbol id="gC8E481438285A0E013830E0AE21DE9E1" overflow="visible"><path d="M 0 0m 3.146 -1.342v 2.728c 0 0.627 -0.385 1.089 -1.144 1.364c 0.759 0.275 1.144 0.737 1.144 1.364v 2.728c 0 0.638 0.682 1.056 1.353 1.056c 0.121 0 0.176 0.055 0.176 0.176c 0 0.121 -0.055 0.176 -0.176 0.176c -0.506 0 -0.968 -0.11 -1.375 -0.319c -0.517 -0.264 -0.77 -0.627 -0.77 -1.089v -2.728c 0 -0.693 -0.66 -1.188 -1.353 -1.188c -0.121 0 -0.176 -0.055 -0.176 -0.176c 0 -0.121 0.055 -0.176 0.176 -0.176c 0.704 0 1.353 -0.506 1.353 -1.188v -2.728c 0 -0.462 0.253 -0.825 0.77 -1.089c 0.407 -0.209 0.869 -0.319 1.375 -0.319c 0.121 0 0.176 0.055 0.176 0.176c 0 0.121 -0.055 0.176 -0.176 0.176c -0.671 0 -1.353 0.418 -1.353 1.056Z "/></symbol><symbol id="g847DCE2A3EE7D23E3D551BDE0EE8A683" overflow="visible"><path d="M 0 0m 2.607 7.326c -0.561 0 -1.034 -0.198 -1.441 -0.594c -0.407 -0.396 -0.616 -0.858 -0.616 -1.419c 0 -0.374 0.275 -0.649 0.616 -0.649c 0.33 0 0.605 0.286 0.605 0.616c 0 0.363 -0.264 0.616 -0.616 0.616c -0.033 0 -0.055 0 -0.077 -0.011c 0.209 0.539 0.693 1.012 1.386 1.012c 0.902 0 1.408 -0.781 1.408 -1.727c 0 -0.737 -0.374 -1.529 -1.122 -2.365l -2.068 -2.332c -0.143 -0.165 -0.132 -0.154 -0.132 -0.473h 4.081l 0.319 1.98h -0.363c -0.088 -0.561 -0.165 -0.88 -0.231 -0.979c -0.055 -0.055 -0.385 -0.077 -0.99 -0.077h -1.837l 1.067 1.045c 0.748 0.704 1.694 1.463 2.013 2.046c 0.22 0.385 0.33 0.77 0.33 1.155c 0 1.298 -1.012 2.156 -2.332 2.156Z "/></symbol><symbol id="gF2E9DE7382F8BB82A14E9A8C0CA6C0F0" overflow="visible"><path d="M 0 0m 1.529 1.166c -0.352 0 -0.583 -0.264 -0.583 -0.616c 0 -0.33 0.253 -0.605 0.583 -0.605c 0.154 0 0.286 0.044 0.385 0.143l 0.011 -0.088c 0 -0.693 -0.231 -1.287 -0.693 -1.76c -0.077 -0.088 -0.121 -0.154 -0.121 -0.198c 0 -0.11 0.044 -0.165 0.143 -0.165c 0.099 0 0.231 0.132 0.418 0.385c 0.374 0.528 0.561 1.111 0.561 1.738c 0 0.583 -0.198 1.166 -0.704 1.166Z "/></symbol><symbol id="g93E2B88EAD8DFDF0BE4D6467DB923DB5" overflow="visible"><path d="M 0 0m 3.333 3.883c 0.726 0.275 1.408 0.968 1.408 1.903c 0 0.473 -0.231 0.858 -0.682 1.155c -0.396 0.253 -0.847 0.385 -1.353 0.385c -0.495 0 -0.924 -0.132 -1.309 -0.385c -0.429 -0.286 -0.649 -0.66 -0.649 -1.133c 0 -0.363 0.242 -0.616 0.594 -0.616c 0.352 0 0.594 0.253 0.594 0.605c 0 0.363 -0.209 0.561 -0.627 0.583c 0.286 0.385 0.737 0.583 1.353 0.583c 0.66 0 0.99 -0.385 0.99 -1.166c 0 -0.462 -0.088 -0.847 -0.253 -1.166c -0.297 -0.528 -0.704 -0.627 -1.386 -0.627c -0.132 -0.022 -0.198 -0.077 -0.198 -0.176c 0 -0.165 0.077 -0.165 0.297 -0.165h 0.473c 0.825 0 1.243 -0.583 1.243 -1.76c 0 -0.935 -0.341 -1.749 -1.177 -1.749c -0.715 0 -1.243 0.242 -1.562 0.726c 0.385 -0.011 0.671 0.275 0.671 0.649c 0 0.374 -0.275 0.649 -0.649 0.649c -0.429 0 -0.649 -0.22 -0.649 -0.671c 0 -0.539 0.242 -0.968 0.726 -1.309c 0.429 -0.297 0.935 -0.44 1.496 -0.44c 0.627 0 1.166 0.209 1.639 0.616c 0.473 0.407 0.704 0.913 0.704 1.529c 0 1.034 -0.814 1.749 -1.694 1.98Z "/></symbol><symbol id="gDCF33896590FB4FA75025AD13DB0C7CC" overflow="visible"><path d="M 0 0m 3.146 4.114v 2.728c 0 0.462 -0.253 0.825 -0.77 1.089c -0.407 0.209 -0.869 0.319 -1.375 0.319c -0.121 0 -0.176 -0.055 -0.176 -0.176c 0 -0.121 0.055 -0.176 0.176 -0.176c 0.671 0 1.353 -0.418 1.353 -1.056v -2.728c 0 -0.627 0.385 -1.089 1.144 -1.364c -0.759 -0.275 -1.144 -0.737 -1.144 -1.364v -2.728c 0 -0.638 -0.682 -1.056 -1.353 -1.056c -0.121 0 -0.176 -0.055 -0.176 -0.176c 0 -0.121 0.055 -0.176 0.176 -0.176c 0.506 0 0.968 0.11 1.375 0.319c 0.517 0.264 0.77 0.627 0.77 1.089v 2.728c 0 0.682 0.649 1.188 1.353 1.188c 0.121 0 0.176 0.055 0.176 0.176c 0 0.121 -0.055 0.176 -0.176 0.176c -0.704 0 -1.353 0.506 -1.353 1.188Z "/></symbol><symbol id="g46D79F9649228E51EC58B44F019E6D22" overflow="visible"><path d="M 0 0m 6.204 2.664h -0.564c -0.036 -0.24 -0.144 -1.008 -0.312 -1.092c -0.132 -0.072 -1.032 -0.072 -1.224 -0.072h -1.764c 0.564 0.468 1.188 0.984 1.728 1.38c 1.368 1.008 2.136 1.572 2.136 2.712c 0 1.38 -1.248 2.268 -2.94 2.268c -1.452 0 -2.58 -0.744 -2.58 -1.824c 0 -0.708 0.576 -0.888 0.864 -0.888c 0.384 0 0.864 0.264 0.864 0.864c 0 0.624 -0.504 0.816 -0.684 0.864c 0.348 0.288 0.804 0.42 1.236 0.42c 1.032 0 1.584 -0.816 1.584 -1.716c 0 -0.828 -0.456 -1.644 -1.296 -2.496l -2.412 -2.46c -0.156 -0.144 -0.156 -0.168 -0.156 -0.408v -0.216h 5.148Z "/></symbol><symbol id="g41D432C84A56494018B210BD210F883B" overflow="visible"><path d="M 0 0m 0.385 0.341v -0.341h 4.07c 1.881 0 3.333 1.771 3.333 3.718c 0 2.024 -1.496 3.806 -3.421 3.806h -1.859h -2.123v -0.352c 0.847 0 1.122 -0.011 1.122 -0.385v -6.061c 0 -0.319 -0.143 -0.385 -1.122 -0.385Z m 3.542 0h -0.946c -0.495 0 -0.517 0.099 -0.517 0.429v 6.061c 0 0.286 0.121 0.341 0.462 0.341h 1.155c 1.87 0 2.596 -1.463 2.596 -3.476c 0 -1.1 -0.154 -3.355 -2.75 -3.355Z "/></symbol><symbol id="g55A7CE01FEF58ABF26DCDA5BD3DA34B" overflow="visible"><path d="M 0 0m 3.377 1.342v 0.649h 0.275v -0.649c 0 -0.814 -0.343803711 -1.463 -1.234964508 -1.463c -0.998035492 0 -1.273035492 0.814 -1.273035492 1.529v 2.992h -0.935v 0.242c 0.968 0.033 1.408 1.045 1.419 2.123h 0.275v -2.013h 1.573v -0.352h -1.573v -3.113c 0 -0.572 0.198 -1.133 0.713097458 -1.133c 0.544554886 0 0.760902542 0.627 0.760902542 1.188Z "/></symbol><symbol id="g411C3BFBD4650795D699CF8B009BBEE3" overflow="visible"><path d="M 0 0m 4.268 3.377v -2.563c 0 -0.417813522 -0.121 -0.473 -0.682 -0.473h -0.176v -0.341c 0.143 0 0.99 0.033 1.232 0.033c 0.319 0 0.979 -0.033 1.243 -0.033v 0.341h -0.187c -0.55 0 -0.671 0.055 -0.671 0.462v 2.068c 0 1.067 0.726 1.749 1.485 1.749c 0.528 0 0.814 -0.363 0.814 -1.177v -2.618c 0 -0.44 -0.121 -0.484 -0.682 -0.484h -0.176v -0.341c 0.143 0 0.913 0.033 1.111 0.033c 0.484 0 1.111 -0.033 1.364 -0.033v 0.341c -0.561 0 -0.858 0 -0.858 0.341v 2.662c 0 1.133 -0.583 1.518 -1.485 1.518c -0.77 0 -1.287 -0.429 -1.606 -1.067c -0.11 0.715 -0.638 1.067 -1.441 1.067c -0.825 0 -1.331 -0.462 -1.65 -1.144v 1.144l -1.551 -0.121v -0.341c 0.792 0 0.858 -0.099 0.858 -0.594v -3.047c 0 -0.385 -0.176 -0.418 -0.682 -0.418h -0.176v -0.341c 0.264 0 0.913 0.033 1.122 0.033c 0.473 0 1.089 -0.033 1.353 -0.033v 0.341c -0.726 0 -0.858 0 -0.858 0.495v 2.046c 0 1.045 0.715 1.738 1.485 1.738c 0.55 0 0.814 -0.352 0.814 -1.243Z "/></symbol><symbol id="g13D937BB10A31EC78824D081E8D671A3" overflow="visible"><path d="M 0 0m 0.363 0v 0.341c 0.671 0 0.858 0.003104492 0.858 0.407v 3.091c 0 0.489811523 -0.121 0.561 -0.814 0.561v 0.341l 1.54 0.121v -4.114c 0 -0.396170868 0.165 -0.407 0.77 -0.407v -0.341c -0.253 0 -0.726 0.033 -1.155 0.033c -0.385 0 -0.935 -0.033 -1.199 -0.033Z m 1.056 6.193c 0.341 0 0.572 0.242 0.572 0.583c 0 0.374 -0.297 0.572 -0.583 0.572c -0.286 0 -0.572 -0.187 -0.572 -0.572c 0 -0.275 0.165 -0.583 0.583 -0.583Z "/></symbol><symbol id="g5635C2E77DCE3A68CBA0E998B566F8ED" overflow="visible"><path d="M 0 0m 5.027 3.322c 0 1.111 -0.517 1.54 -1.529 1.54c -0.814 0 -1.331 -0.55 -1.595 -1.155v 1.155l -1.551 -0.121v -0.341h 0.143c 0.704 0 0.715 -0.190480469 0.715 -0.649v -2.937c 0 -0.462 -0.121 -0.473 -0.858 -0.473v -0.341c 0.253 0 0.968 0.033 1.232 0.033c 0.198 0 1.1 -0.033 1.243 -0.033v 0.341c -0.726 0 -0.858 0.028038116 -0.858 0.451v 2.046c 0 1.111 0.759 1.76 1.485 1.76c 0.506 0 0.814 -0.33363623 0.814 -1.133v -2.673c 0 -0.437862305 -0.132 -0.451 -0.858 -0.451v -0.341c 0.253 0.011 0.858 0.033 1.342 0.033c 0.198 0 0.99 -0.022 1.133 -0.033v 0.341h -0.198c -0.594 0 -0.66 0.121651749 -0.66 0.396Z "/></symbol><symbol id="g3E788B64C66C7CF92E8EF7B9397C8477" overflow="visible"><path d="M 0 0m 1.947 0.847c 0 -0.484 0.077 -0.506 0.858 -0.506v -0.341c -0.275 0 -0.792 0.033 -1.232 0.033c -0.44 0 -0.935 -0.033 -1.21 -0.033v 0.341c 0.737 0 0.858 0.033 0.858 0.44v 5.852c 0 0.517 -0.242 0.539 -0.858 0.539v 0.341l 1.584 0.121Z "/></symbol><symbol id="g7F5967141EBC89EE5F97D32C1B3CF866" overflow="visible"><path d="M 0 0m 4.356 3.102c 0 0.451 -0.044 0.869 -0.363 1.188c -0.407 0.407 -0.847 0.638 -1.639 0.638c -0.638 0 -1.562 -0.429 -1.562 -1.232c 0 -0.341 0.198 -0.528 0.506 -0.528c 0.308 0 0.506 0.198 0.506 0.517c 0 0.264 -0.187 0.495 -0.561 0.495c 0.264 0.33 0.759 0.506 1.155 0.506c 0.594 0 1.199 -0.473 1.199 -1.364v -0.451c -2.442 -0.066 -3.124 -1.078 -3.124 -1.815c 0 -0.924 1.056 -1.177 1.738 -1.177c 0.616 0 1.221 0.319 1.463 0.957c 0.011 -0.209 0.187 -0.902 0.869 -0.902c 0.33 0 0.891 0.242 0.891 1.034v 0.627h -0.275v -0.627c 0 -0.572 -0.253 -0.693 -0.385 -0.693c -0.22 0 -0.418 0.143 -0.418 0.759Z m -0.759 -1.562c 0 -0.968 -0.715 -1.419 -1.298 -1.419c -0.605 0 -0.979 0.463192383 -0.979 0.946c 0 0.528 0.396 1.496 2.277 1.573Z "/></symbol><symbol id="gC0D2A859579FFB562717100DE739703C" overflow="visible"><path d="M 0 0m 1.881 4.004c -0.109527344 0.271927734 0.099 0.396 0.594 0.396v 0.341c -0.286 0 -0.968 -0.033 -1.265 -0.033c -0.198 0 -0.726 0.011 -1.001 0.033v -0.341h 0.066c 0.495 0 0.662901901 -0.044864746 0.77 -0.308l 1.65 -4.059c 0.031541748 -0.077592834 0.066 -0.154 0.198 -0.154c 0.099 0 0.170367065 0.030837128 0.22 0.154l 1.485 3.685c 0.106892822 0.265252136 0.341 0.682 0.99 0.682v 0.341c -0.209 -0.022 -0.495 -0.033 -0.825 -0.033c -0.165 0 -0.858 0.033 -0.957 0.033v -0.341c 0.429 0 0.615779114 -0.351912048 0.484 -0.682l -1.144 -2.86Z "/></symbol><symbol id="g8CAF94BAEF81D91CC1530A3D4F0B18EF" overflow="visible"><path d="M 0 0m 6.072 6.963c 0 0.484 -0.473 0.792 -0.99 0.792c -0.682 0 -1.155 -0.44 -1.408 -1.309c -0.055 -0.198 -0.176 -0.759 -0.352 -1.683h -0.715c -0.242 0 -0.363 -0.011 -0.363 -0.242c 0 -0.121 0.11 -0.176 0.341 -0.176h 0.66l -0.803 -4.257c -0.121 -0.627 -0.231 -1.089 -0.33 -1.397c -0.132 -0.407 -0.319 -0.616 -0.561 -0.616c -0.165 0 -0.297 0.044 -0.418 0.121c 0.352 0.055 0.528 0.264 0.528 0.616c 0 0.286 -0.143 0.429 -0.44 0.429c -0.374 0 -0.638 -0.33 -0.638 -0.704c 0 -0.484 0.451 -0.792 0.968 -0.792c 0.275 0 0.528 0.11 0.737 0.341c 0.352 0.363 0.627 0.88 0.825 1.573c 0.121 0.429 0.231 0.847 0.308 1.265l 0.638 3.421h 0.902c 0.253 0 0.363 0.011 0.363 0.264c 0 0.099 -0.11 0.154 -0.33 0.154h -0.847c 0.066 0.451 0.374 2.112 0.473 2.321c 0.11 0.231 0.264 0.341 0.462 0.341c 0.165 0 0.308 -0.044 0.429 -0.121c -0.341 -0.077 -0.517 -0.275 -0.517 -0.616c 0 -0.286 0.143 -0.429 0.44 -0.429c 0.374 0 0.638 0.33 0.638 0.704Z "/></symbol><symbol id="g9C5E01F97914784D6046F24928CB3533" overflow="visible"><path d="M 0 0m 3.498 -2.728c 0.099 0 0.154 0.055 0.154 0.154c 0 0.033 -0.022 0.077 -0.055 0.121c -0.572 0.44 -1.034 1.166 -1.375 2.167c -0.297 0.869 -0.451 1.727 -0.451 2.574v 0.924c 0 0.847 0.154 1.705 0.451 2.574c 0.341 1.001 0.803 1.727 1.375 2.167c 0.033 0.033 0.055 0.077 0.055 0.121c 0 0.099 -0.055 0.154 -0.154 0.154c -0.011 0 -0.044 -0.011 -0.077 -0.033c -0.66 -0.506 -1.21 -1.254 -1.661 -2.255c -0.429 -0.957 -0.649 -1.859 -0.649 -2.728v -0.924c 0 -0.869 0.22 -1.771 0.649 -2.728c 0.451 -1.001 1.001 -1.749 1.661 -2.255c 0.033 -0.022 0.066 -0.033 0.077 -0.033Z "/></symbol><symbol id="g44903F1336FFA3AC82F2FDAECC383B22" overflow="visible"><path d="M 0 0m 0.858 -2.695c 0.66 0.506 1.21 1.254 1.661 2.255c 0.429 0.957 0.649 1.859 0.649 2.728v 0.924c 0 0.869 -0.22 1.771 -0.649 2.728c -0.451 1.001 -1.001 1.749 -1.661 2.255c -0.033 0.022 -0.066 0.033 -0.077 0.033c -0.099 0 -0.154 -0.055 -0.154 -0.154c 0 -0.044 0.022 -0.088 0.055 -0.121c 0.572 -0.44 1.034 -1.166 1.375 -2.167c 0.297 -0.869 0.451 -1.727 0.451 -2.574v -0.924c 0 -0.847 -0.154 -1.705 -0.451 -2.574c -0.341 -1.001 -0.803 -1.727 -1.375 -2.167c -0.033 -0.044 -0.055 -0.088 -0.055 -0.121c 0 -0.099 0.055 -0.154 0.154 -0.154c 0.011 0 0.044 0.011 0.077 0.033Z "/></symbol><symbol id="g777C235EA19CAB599B58B593B0044621" overflow="visible"><path d="M 0 0m 2.7181 2.7181c 0.5159 0.2079 1.0087 0.6622 1.0087 1.3167c 0 0.3465 -0.1848 0.6237 -0.5467 0.8239c -0.3003 0.1694 -0.6391 0.2541 -1.0164 0.2541c -0.3773 0 -0.7084 -0.077 -0.9933 -0.2387c -0.3465 -0.1925 -0.5236 -0.462 -0.5236 -0.8085c 0 -0.2926 0.1463 -0.4389 0.4312 -0.4389c 0.2387 0 0.4158 0.1848 0.4158 0.4235c 0 0.2387 -0.1232 0.3773 -0.3619 0.4158c 0.2233 0.2387 0.5544 0.3619 1.0087 0.3619c 0.5005 0 0.7854 -0.3003 0.7854 -0.7931c 0 -0.3619 -0.1001 -0.6545 -0.2926 -0.8855c -0.2156 -0.2541 -0.3696 -0.2926 -0.8162 -0.3234c -0.2079 -0.0154 -0.3465 0.0077 -0.3465 -0.1463c 0 -0.0924 0.077 -0.1386 0.2233 -0.1386h 0.4081c 0.6622 0 0.9856 -0.5005 0.9856 -1.1935c 0 -0.6776 -0.308 -1.1935 -0.9548 -1.1935c -0.5621 0 -0.9702 0.154 -1.2243 0.4697c 0.2695 0.0308 0.4081 0.1848 0.4081 0.4543c 0 0.2541 -0.1925 0.4466 -0.4466 0.4466c -0.3003 0 -0.4543 -0.154 -0.4543 -0.4697c 0 -0.3927 0.2002 -0.7084 0.5929 -0.9317c 0.3311 -0.1848 0.7084 -0.2772 1.1396 -0.2772c 0.4697 0 0.8778 0.1309 1.232 0.3927c 0.385 0.2849 0.5775 0.6545 0.5775 1.1088c 0 0.7161 -0.6237 1.2089 -1.2397 1.3706Z "/></symbol><symbol id="g24C97E338F6D0205BFA2AEE81EF0C1DC" overflow="visible"><path d="M 0 0m 2.1868 4.2273c -0.1925 0 -0.3234 -0.077 -0.3927 -0.2387l -1.2936 -3.2494h 0.3465l 1.7094 2.8259c 0.0385 0.0693 0.0616 0.1463 0.0616 0.231c 0 0.231 -0.2002 0.4312 -0.4312 0.4312Z "/></symbol><symbol id="g6A1F25408D4BADEF900CBB609DEED61" overflow="visible"><path d="M 0 0m 9.192 2.724c 0 0.24 -0.084 0.252 -0.288 0.252c -0.156 0 -0.264 0 -0.276 -0.204c -0.084 -1.608 -1.536 -2.34 -2.748 -2.34c -0.936 0 -1.944 0.288 -2.568 1.02c -0.564 0.684 -0.708 1.584 -0.708 2.664c 0 0.672 0.036 1.968 0.792 2.76c 0.78 0.792 1.824 0.924 2.448 0.924c 1.296 0 2.436 -0.912 2.7 -2.436c 0.036 -0.228 0.048 -0.252 0.324 -0.252c 0.312 0 0.324 0.024 0.324 0.336v 2.58c 0 0.228 0 0.336 -0.216 0.336c -0.108 0 -0.132 -0.024 -0.228 -0.108l -0.792 -0.708c -0.744 0.6 -1.548 0.816 -2.364 0.816c -2.988 0 -4.824 -1.788 -4.824 -4.248c 0 -2.46 1.836 -4.248 4.824 -4.248c 2.244 0 3.6 1.476 3.6 2.856Z "/></symbol><symbol id="g8A910A6E70931B86E8B815CA5261BBA3" overflow="visible"><path d="M 0 0m 6.504 2.616c 0 1.608 -1.104 2.82 -3.06 2.82c -1.968 0 -3.06 -1.224 -3.06 -2.82c 0 -1.488 1.056 -2.688 3.06 -2.688c 2.016 0 3.06 1.212 3.06 2.688Z m -1.536 0.132c 0 -1.044 0 -2.34 -1.524 -2.34c -1.524 0 -1.524 1.296 -1.524 2.34c 0 0.54 0 1.152 0.204 1.56c 0.228 0.444 0.732 0.696 1.32 0.696c 0.504 0 1.008 -0.192 1.272 -0.612c 0.252 -0.408 0.252 -1.068 0.252 -1.644Z "/></symbol><symbol id="gCE444BD0C7692D5C92DBC9C474C66E3E" overflow="visible"><path d="M 0 0m 6.696 4.764c 0 0.276 -0.204 0.696 -0.756 0.696c -0.18 0 -0.744 -0.036 -1.272 -0.456c -0.216 0.144 -0.72 0.396 -1.608 0.396c -1.728 0 -2.388 -0.936 -2.388 -1.776c 0 -0.492 0.24 -0.984 0.624 -1.26c -0.336 -0.42 -0.408 -0.816 -0.408 -1.068c 0 -0.18 0.048 -0.768 0.528 -1.152c -0.156 -0.036 -1.032 -0.288 -1.032 -1.044c 0 -0.612 0.66 -1.512 3.06 -1.512c 2.124 0 3.06 0.708 3.06 1.548c 0 0.36 -0.096 1.116 -0.9 1.524c -0.672 0.336 -1.392 0.336 -2.544 0.336c -0.312 0 -0.864 0 -0.924 0.012c -0.528 0.084 -0.66 0.54 -0.66 0.756c 0 0.12 0.048 0.3 0.12 0.396c 0.552 -0.288 1.164 -0.312 1.464 -0.312c 1.728 0 2.388 0.936 2.388 1.776c 0 0.564 -0.3 0.96 -0.48 1.152c 0.36 0.192 0.612 0.216 0.744 0.228c -0.024 -0.06 -0.048 -0.168 -0.048 -0.24c 0 -0.3 0.204 -0.516 0.516 -0.516c 0.312 0 0.516 0.228 0.516 0.516Z m -2.58 -1.14c 0 -0.54 0 -1.344 -1.056 -1.344c -1.056 0 -1.056 0.804 -1.056 1.344c 0 0.54 0 1.344 1.056 1.344c 1.056 0 1.056 -0.804 1.056 -1.344Z m 1.356 -4.524c 0 -0.432 -0.468 -1.08 -2.028 -1.08c -1.44 0 -2.028 0.552 -2.028 1.104c 0 0.72 0.756 0.72 0.924 0.72h 1.404c 0.372 0 1.728 0 1.728 -0.744Z "/></symbol><symbol id="gA81297B2A945A8A4BEF40374F95E61DF" overflow="visible"><path d="M 0 0m 5.928 1.404c 0 0.216 -0.228 0.216 -0.288 0.216c -0.204 0 -0.228 -0.06 -0.3 -0.252c -0.252 -0.576 -0.936 -0.96 -1.716 -0.96c -1.692 0 -1.704 1.596 -1.704 2.208h 3.624c 0.264 0 0.384 0 0.384 0.324c 0 0.372 -0.072 1.248 -0.672 1.848c -0.444 0.432 -1.08 0.648 -1.908 0.648c -1.92 0 -2.964 -1.236 -2.964 -2.736c 0 -1.608 1.2 -2.772 3.132 -2.772c 1.896 0 2.412 1.272 2.412 1.476Z m -1.14 1.608h -2.868c 0.024 0.468 0.036 0.972 0.288 1.368c 0.312 0.48 0.792 0.624 1.14 0.624c 1.404 0 1.428 -1.572 1.44 -1.992Z m 0.132 4.692c 0 0.372 -0.336 0.744 -0.72 0.744c -0.276 0 -0.42 -0.156 -0.564 -0.312l -1.344 -1.584l 0.36 -0.444l 1.812 0.972c 0.192 0.108 0.456 0.24 0.456 0.624Z "/></symbol><symbol id="g26E5D8434ED6EFA37CE6E6EB317D55A8" overflow="visible"><path d="M 0 0m 4.98 1.68c 0 0.516 -0.24 0.936 -0.66 1.272c -0.468 0.348 -0.852 0.42 -1.788 0.576c -0.444 0.084 -1.224 0.216 -1.224 0.78c 0 0.744 1.116 0.744 1.344 0.744c 0.9 0 1.356 -0.348 1.416 -1.008c 0.012 -0.18 0.024 -0.24 0.276 -0.24c 0.288 0 0.288 0.06 0.288 0.336v 0.96c 0 0.228 0 0.336 -0.216 0.336c -0.048 0 -0.072 0 -0.54 -0.228c -0.312 0.156 -0.732 0.228 -1.212 0.228c -0.36 0 -2.208 0 -2.208 -1.572c 0 -0.48 0.24 -0.804 0.48 -1.008c 0.48 -0.42 0.936 -0.492 1.86 -0.66c 0.432 -0.072 1.332 -0.228 1.332 -0.936c 0 -0.9 -1.104 -0.9 -1.368 -0.9c -1.272 0 -1.584 0.876 -1.728 1.392c -0.06 0.168 -0.12 0.168 -0.288 0.168c -0.288 0 -0.288 -0.072 -0.288 -0.348v -1.308c 0 -0.228 0 -0.336 0.216 -0.336c 0.084 0 0.108 0 0.36 0.18l 0.312 0.204c 0.552 -0.384 1.176 -0.384 1.416 -0.384c 0.372 0 2.22 0 2.22 1.752Z "/></symbol><symbol id="g1F936ABABCFCA1A2BBE0CFCFA07FF2CB" overflow="visible"><path d="M 0 0m 4.268 -0.242c 1.958 0 3.663 1.727 3.663 4.004c 0 2.277 -1.716 3.993 -3.674 3.993c -1.958 0 -3.674 -1.716 -3.674 -3.993c 0 -2.277 1.727 -4.004 3.685 -4.004Z m 0 0.286c -1.111 0 -2.519 1.023 -2.519 3.872c 0 2.574 1.419 3.564 2.519 3.564c 1.1 0 2.519 -0.99 2.519 -3.564c 0 -2.849 -1.408 -3.872 -2.519 -3.872Z "/></symbol><symbol id="g90BA286DC3F12EE562A49B9ADD98A010" overflow="visible"><path d="M 0 0m 2.772 -0.121c 1.386 0 1.793 1.254 1.793 1.441c 0 0.066 -0.055 0.099 -0.154 0.099c -0.088 0 -0.11 -0.022 -0.132 -0.099c -0.209 -0.66 -0.638 -1.166 -1.441 -1.166c -0.649 0 -1.551 0.572 -1.551 2.244c 0 0.891 0.198 1.419 0.594 1.87c 0.242 0.242 0.495 0.374 0.869 0.374c 0.495 0 0.957 -0.154 1.199 -0.396c -0.429 -0.022 -0.517 -0.33 -0.517 -0.495c 0 -0.297 0.187 -0.517 0.517 -0.517c 0.286 0 0.495 0.198 0.495 0.528c 0 0.737 -0.869 1.166 -1.683 1.166c -1.419 0 -2.398 -1.254 -2.398 -2.552c 0 -1.199 0.913 -2.497 2.409 -2.497Z "/></symbol><symbol id="g134E412E79E5635DAA32952FF37CC5D1" overflow="visible"><path d="M 0 0m 3.53183252 4.862178589c 1.01096875 0 1.49516748 -0.484641846 1.49516748 -1.518178925v -2.629c 0 -0.360475586 0.22 -0.374 0.858 -0.374v -0.341c -0.264 0 -0.891 0.033 -1.364 0.033c -0.198 0 -0.968 -0.033 -1.111 -0.033v 0.341c 0.022173889 0 0.043812683 -8.392e-6 0.064927795 -8.392e-6c 0.628330688 0 0.793072205 0.007390457 0.793072205 0.462008392v 2.552c 0 0.88 -0.264 1.243 -0.814 1.243c -0.580421875 0 -1.485 -0.517 -1.485 -1.76v -1.991c 0 -0.483929169 0.077 -0.506 0.858 -0.506v -0.341c -0.143 0 -0.979 0.033 -1.177 0.033c -0.484 0 -1.045 -0.033 -1.298 -0.033v 0.341c 0.814 0 0.858 0.044 0.858 0.517v 5.742000336c 0 0.495 -0.121 0.572 -0.858 0.572v 0.341l 1.584 0.121v -3.828h 0.011c 0.484 1.012 1.309006714 1.056178589 1.58483252 1.056178589Z "/></symbol><symbol id="g3A9BDBC8D3B7CA2ACF827C6132721DC0" overflow="visible"><path d="M 0 0m 2.992 2.816l -0.858 1.111c -0.085125626 0.110226929 -0.100804687 0.151529297 -0.100804687 0.215423828c 0 0.158232422 0.174036194 0.247183105 0.386804688 0.257576172v 0.341c -0.286 0 -0.803 -0.033 -1.21 -0.033c -0.407 0 -0.781 0.022 -1.023 0.033v -0.341c 0.506 0 0.768623322 -0.00106012 1.023 -0.33c 0.455710617 -0.589289551 0.903460937 -1.175539063 1.364 -1.76l -0.495 -0.638c -0.583 -0.715 -0.583 -0.726 -0.671 -0.803c -0.304390961 -0.266342133 -0.781 -0.506 -1.276 -0.528v -0.341c 0.202425781 0.004855469 0.637782974 0.033 0.946 0.033c 0.200307556 0 0.719840027 -0.033258652 0.975623428 -0.033258652c 0.012811569 0 0.024961655 0.00008342 0.036376572 0.000258652v 0.341c -0.194670425 0.025118759 -0.317267822 0.138914108 -0.317267822 0.316402908c 0 0.133414444 0.069269989 0.302817062 0.229267822 0.497597092l 0.759 0.924l 1.001 -1.331c 0.038993469 -0.051848175 0.062601776 -0.110447983 0.062601776 -0.155292755c 0 -0.180150513 -0.295718658 -0.251707245 -0.392601776 -0.251707245v -0.341c 0.297 0 0.913 0.033 1.166 0.033c 0.407 0 0.836 -0.033 1.078 -0.033v 0.341c -0.627 0 -0.800981812 0.023531769 -1.067 0.374c -0.474033264 0.633300125 -0.959247803 1.255419312 -1.452000336 1.87l 0.847 1.056c 0.591314453 0.739148438 1.1 0.726 1.474 0.759v 0.341c -0.198 -0.011 -0.561 -0.033 -0.924 -0.033c -0.363 0 -0.781 0.022 -1.034 0.033v -0.341c 0.157570099 -0.007162354 0.322133698 -0.127980408 0.322133698 -0.331742249c 0 -0.181424805 0 -0.181424805 -0.850134033 -1.252257751Z "/></symbol><symbol id="g5C439AA279B992F69BD71BCF81CBC727" overflow="visible"><path d="M 0 0m 1.892 4.147v 3.487h -0.011c -0.077 0 -1.496 -0.121 -1.573 -0.121v -0.341h 0.143c 0.506 -0.022 0.649 -0.088 0.693 -0.352c 0.011 -0.044 0.011 -0.22 0.022 -3.41l -0.011 -3.41h 0.286l 0.396 0.682c 0.484 -0.704 1.049940735 -0.803 1.452 -0.803c 1.254 0 2.442 1.045 2.442 2.475c 0 1.43 -1.089 2.508 -2.321 2.508c -0.413499023 0 -0.99 -0.099 -1.518 -0.715Z m 1.364 -4.026c -0.266062836 0 -0.737 0.066 -1.155 0.643886719c -0.084916992 0.117401367 -0.176 0.236113281 -0.176 0.423113281v 2.464c 0 0.192616821 0.541425217 0.968 1.419 0.968c 0.527224548 0 1.474 -0.44 1.474 -2.145c 0 -0.484 -0.022 -1.309 -0.473 -1.815c -0.253 -0.286 -0.605 -0.539 -1.089 -0.539Z "/></symbol><symbol id="gE58F5F96D3042638142ED2F785BA5607" overflow="visible"><path d="M 0 0m 0.308 4.4c 0.77 0 0.858 -0.055 0.858 -0.572v -5.17c 0 -0.44 -0.143 -0.451 -0.858 -0.451v -0.341c 0.253 0 1.078 0.033 1.232 0.033c 0.198 0 1.045 -0.033 1.243 -0.033v 0.341c -0.737 0 -0.858 0 -0.858 0.506v 1.936c 0.165 -0.396 0.737 -0.77 1.342 -0.77c 1.260638672 0 2.464 0.989357315 2.464 2.552c 0 1.287 -1.031711914 2.431 -2.288 2.431c -0.429 0 -0.979 -0.088 -1.551 -0.726v 0.726l -1.584 -0.121Z m 1.617 -3.278v 2.574c 0.264 0.484 0.759 0.88 1.43 0.88c 0.682 0 1.452 -0.759 1.452 -2.211c 0 -1.507211487 -0.902 -2.244 -1.562 -2.244c -0.869 0 -1.276 0.792 -1.32 1.001Z "/></symbol><symbol id="g72CA907C693333BD1DBF8BDB710FDF9F" overflow="visible"><path d="M 0 0m 2.112 4.158c 0 0.319 -0.264 0.583 -0.583 0.583c -0.319 0 -0.583 -0.264 -0.583 -0.583c 0 -0.319 0.264 -0.583 0.583 -0.583c 0.319 0 0.583 0.264 0.583 0.583Z m 0 -3.575c 0 0.319 -0.264 0.583 -0.583 0.583c -0.319 0 -0.583 -0.264 -0.583 -0.583c 0 -0.319 0.264 -0.583 0.583 -0.583c 0.319 0 0.583 0.264 0.583 0.583Z "/></symbol><symbol id="g2D9538F389D3CD820021984E8E8B5A3C" overflow="visible"><path d="M 0 0m 3.432 5.808l -1.32 1.683c -0.044 0.066 -0.165 0.187 -0.33 0.187c -0.198 0 -0.396 -0.198 -0.396 -0.396c 0 -0.132 0.088 -0.253 0.187 -0.33l 1.672 -1.342Z m 0.924 -2.706c 0 0.451 -0.044 0.869 -0.363 1.188c -0.407 0.407 -0.847 0.638 -1.639 0.638c -0.638 0 -1.562 -0.429 -1.562 -1.232c 0 -0.341 0.198 -0.528 0.506 -0.528c 0.308 0 0.506 0.198 0.506 0.517c 0 0.264 -0.187 0.495 -0.561 0.495c 0.264 0.33 0.759 0.506 1.155 0.506c 0.594 0 1.199 -0.473 1.199 -1.364v -0.451c -2.442 -0.066 -3.124 -1.078 -3.124 -1.815c 0 -0.924 1.056 -1.177 1.738 -1.177c 0.616 0 1.221 0.319 1.463 0.957c 0.011 -0.209 0.187 -0.902 0.869 -0.902c 0.33 0 0.891 0.242 0.891 1.034v 0.627h -0.275v -0.627c 0 -0.572 -0.253 -0.693 -0.385 -0.693c -0.22 0 -0.418 0.143 -0.418 0.759Z m -0.759 -1.562c 0 -0.968 -0.715 -1.419 -1.298 -1.419c -0.605 0 -0.979 0.463192383 -0.979 0.946c 0 0.528 0.396 1.496 2.277 1.573Z "/></symbol><symbol id="g312A15A35952CEA30EA1DD615DAEABC5" overflow="visible"><path d="M 0 0m 3.828 -3.267c 0.099 0 0.154 0.055 0.154 0.154c 0 0.055 -0.022 0.088 -0.055 0.121c -0.616 0.473 -1.111 1.265 -1.485 2.376c -0.319 0.957 -0.484 1.881 -0.484 2.794v 1.144c 0 0.913 0.165 1.837 0.484 2.794c 0.374 1.111 0.869 1.903 1.485 2.376c 0.033 0.033 0.055 0.066 0.055 0.121c 0 0.099 -0.055 0.154 -0.154 0.154c -0.044 0 -0.077 -0.011 -0.088 -0.033c -0.715 -0.55 -1.309 -1.364 -1.782 -2.453c -0.451 -1.034 -0.682 -2.024 -0.682 -2.959v -1.144c 0 -0.935 0.231 -1.925 0.682 -2.959c 0.473 -1.089 1.067 -1.903 1.782 -2.453c 0.011 -0.022 0.044 -0.033 0.088 -0.033Z "/></symbol><symbol id="g5111BA2C45C2844593FFC2F098B3AD34" overflow="visible"><path d="M 0 0m 0.902 -3.234c 0.715 0.55 1.309 1.364 1.782 2.453c 0.451 1.034 0.682 2.024 0.682 2.959v 1.144c 0 0.935 -0.231 1.925 -0.682 2.959c -0.473 1.089 -1.067 1.903 -1.782 2.453c -0.011 0.022 -0.044 0.033 -0.088 0.033c -0.099 0 -0.154 -0.055 -0.154 -0.154c 0 -0.055 0.022 -0.088 0.055 -0.121c 0.616 -0.473 1.111 -1.265 1.485 -2.376c 0.319 -0.957 0.484 -1.881 0.484 -2.794v -1.144c 0 -0.913 -0.165 -1.837 -0.484 -2.794c -0.374 -1.111 -0.869 -1.903 -1.485 -2.376c -0.033 -0.033 -0.055 -0.066 -0.055 -0.121c 0 -0.099 0.055 -0.154 0.154 -0.154c 0.044 0 0.077 0.011 0.088 0.033Z "/></symbol><symbol id="gA7B66580AB18612C5A48A112C9872D56" overflow="visible"><path d="M 0 0m 1.232 -2.123c 0.132 0 1.001 0.865851364 1.001 2.112c 0 0.462 -0.11 1.177 -0.704 1.177c -0.407 0 -0.583 -0.319 -0.583 -0.583c 0 -0.242 0.143 -0.583 0.572 -0.583c 0.198 0 0.352 0.077 0.451 0.176v -0.066c 0 -0.869 -0.319 -1.518 -0.803 -2.024c -0.021505859 -0.022483398 -0.044 -0.066 -0.044 -0.088c 0 -0.044 0.022 -0.121 0.11 -0.121Z "/></symbol><symbol id="g753D044DBB2ACFEB54AD413CC47D2DE7" overflow="visible"><path d="M 0 0m 0.935 7.04c 0 -0.121 0.088 -0.583 0.583 -0.583c 0.231 0 0.33 0.099 0.484 0.22c 0.022 -0.11 0.022 -0.099 -0.011 -0.561c -0.077 -0.462 -0.253 -0.88 -0.55 -1.254c -0.209 -0.264 -0.341 -0.319 -0.341 -0.407c 0 -0.055 0.077 -0.132 0.132 -0.132c 0.044 0 0.11 0.055 0.231 0.176c 0.528 0.583 0.803 1.243 0.803 1.98c 0 0.693 -0.297 1.155 -0.737 1.155c -0.352 0 -0.594 -0.264 -0.594 -0.594Z "/></symbol><symbol id="gC59C98D84F68DC3B730C0776C86D5621" overflow="visible"><path d="M 0 0m 3.74 5.808l -1.32 1.683c -0.044 0.066 -0.165 0.187 -0.33 0.187c -0.198 0 -0.396 -0.198 -0.396 -0.396c 0 -0.132 0.088 -0.253 0.187 -0.33l 1.672 -1.342Z m 2.145 -5.808l -1.584 -0.121v 0.99c -0.231 -0.528 -0.671 -0.99 -1.419 -0.99c -1.463 0 -1.672 0.789217773 -1.672 1.551v 2.211c 0 0.649 -0.066 0.759 -0.715 0.759h -0.143v 0.341l 1.617 0.121v -3.696c 0 -0.55 0.099 -1.023 0.946 -1.023c 0.741876953 0 1.353 0.635754883 1.353 1.705v 2.046c 0 0.418 -0.209 0.506 -0.715 0.506h -0.143v 0.341l 1.617 0.121v -3.938c 0 -0.451 0.088 -0.583 0.748 -0.583h 0.11Z "/></symbol><symbol id="g23FF2CB0A5B3999574DE734D483151BD" overflow="visible"><path d="M 0 0m 2.959 7.326c -0.451 -0.462 -1.111 -0.693 -1.98 -0.693v -0.429c 0.572 0 1.045 0.088 1.408 0.264v -5.566c 0 -0.198 -0.044 -0.33 -0.143 -0.385c -0.099 -0.055 -0.374 -0.088 -0.814 -0.088h -0.385v -0.429c 0.275 0.022 0.869 0.033 1.782 0.033c 0.913 0 1.507 -0.011 1.782 -0.033v 0.429h -0.385c -0.451 0 -0.726 0.033 -0.814 0.088c -0.088 0.055 -0.143 0.187 -0.143 0.385v 6.094c 0 0.264 -0.022 0.33 -0.308 0.33Z "/></symbol></defs></svg>