<?xml version="1.0" encoding="UTF-8" standalone="no"?>
<svg
   version="1.1"
   id="Layer_1"
   sodipodi:docname="BY.svg"
   inkscape:version="1.3.2 (091e20e, 2023-11-25, custom)"
   x="0px"
   y="0px"
   width="100"
   height="450"
   viewBox="0 0 100 450"
   enable-background="new 0 0 900 450"
   xml:space="preserve"
   xmlns:inkscape="http://www.inkscape.org/namespaces/inkscape"
   xmlns:sodipodi="http://sodipodi.sourceforge.net/DTD/sodipodi-0.dtd"
   xmlns="http://www.w3.org/2000/svg"
   xmlns:svg="http://www.w3.org/2000/svg"
   xmlns:rdf="http://www.w3.org/1999/02/22-rdf-syntax-ns#"
   xmlns:cc="http://creativecommons.org/ns#"
   xmlns:dc="http://purl.org/dc/elements/1.1/"><metadata
   id="metadata11"><rdf:RDF><cc:Work
       rdf:about=""><dc:format>image/svg+xml</dc:format><dc:type
         rdf:resource="http://purl.org/dc/dcmitype/StillImage" /></cc:Work></rdf:RDF></metadata><defs
   id="defs9" /><sodipodi:namedview
   pagecolor="#ffffff"
   bordercolor="#666666"
   borderopacity="1"
   objecttolerance="10"
   gridtolerance="10"
   guidetolerance="10"
   inkscape:pageopacity="0"
   inkscape:pageshadow="2"
   inkscape:window-width="1920"
   inkscape:window-height="1009"
   id="namedview7"
   showgrid="false"
   inkscape:zoom="1.0119484"
   inkscape:cx="312.26889"
   inkscape:cy="190.22709"
   inkscape:window-x="1912"
   inkscape:window-y="-8"
   inkscape:window-maximized="1"
   inkscape:current-layer="Layer_1"
   fit-margin-top="0"
   fit-margin-left="0"
   fit-margin-right="0"
   fit-margin-bottom="0"
   inkscape:showpageshadow="2"
   inkscape:pagecheckerboard="0"
   inkscape:deskcolor="#d1d1d1" />

<rect
   id="bg"
   width="100"
   height="450"
   x="0"
   y="2.8421709e-14"
   style="fill:#ffffff;stroke:none" />

<path
   id="orn"
   inkscape:connector-curvature="0"
   d="M 0.006,442.549 H 4.392 V 438.826 435.1 H 0.006 v 3.727 z m 0,-21.977 h 4.386 v 3.725 3.727 h 4.386 v 3.353 3.726 h 4.386 v 3.727 3.723 h 4.386 v 3.729 3.718 h 3.947 4.386 4.386 v -3.724 -3.729 h 4.386 v -3.723 -3.727 h 4.386 v -3.726 -3.354 h 4.386 v -3.725 -3.726 h 4.386 v -3.727 -3.726 h -4.386 v -3.726 -3.726 H 39.04 v -3.724 -3.727 h -4.386 v -3.353 -3.728 h -4.386 v -3.724 -3.727 h -4.386 v -3.726 -3.725 h -4.386 v 3.725 3.726 h -3.947 v 3.727 3.724 h -4.386 v 3.728 3.353 H 8.778 v 3.727 3.724 H 4.392 v 3.726 3.726 H 0.006 v 3.726 z m 0,-22.35 h 4.386 v -3.353 -3.729 H 0.006 v 3.729 z m 0,-29.43 h 4.386 v 3.726 3.726 h 4.386 v 3.726 3.727 h 4.386 v -3.727 -3.726 h 4.386 v -3.726 -3.726 h 3.947 v -3.724 -3.729 H 17.55 v -3.723 -3.354 h -4.386 v -3.724 -3.727 H 8.778 v 3.727 3.724 H 4.392 v 3.354 3.723 H 0.006 v 3.729 z m 0,-29.429 h 4.386 v -3.727 -3.726 H 0.006 v 3.726 z m 0,-21.979 h 4.386 v 3.727 3.353 h 4.386 v 3.726 3.726 h 4.386 v 3.726 3.727 h 4.386 v 3.725 3.727 h 3.947 v 3.726 3.725 h 4.386 v -3.725 -3.726 h 4.386 v -3.727 -3.725 h 4.386 v -3.727 -3.726 h 4.386 v -3.726 -3.726 h 4.386 v -3.353 -3.727 h 4.386 v -3.726 -3.727 h 4.386 v 3.727 3.726 h 4.386 v 3.727 3.353 h 4.387 v 3.726 3.726 h 4.386 v 3.726 3.727 h 4.386 v 3.725 3.727 h 3.947 v 3.726 3.725 h 4.386 v -3.725 -3.726 h 4.386 v -3.727 -3.725 h 4.386 v -3.727 -3.726 h 4.386 v -3.726 -3.726 h 4.386 v -3.353 -3.727 H 100 v -3.726 -3.727 -3.723 -3.726 h -4.387 v -3.727 -3.726 h -4.386 v -3.725 -3.727 h -4.386 v -3.727 -3.725 h -4.386 v 3.725 3.727 h -4.386 v 3.727 3.725 h -4.386 v 3.726 3.727 h 4.386 4.386 v 3.726 3.723 h -4.386 -4.386 -3.947 v -3.723 -3.726 H 65.35 v -3.727 -3.726 h -4.386 v -3.725 -3.727 h 4.386 v -3.727 -3.725 h 4.386 v -3.354 -3.726 h 3.947 v -3.724 -3.721 h 4.386 v -3.725 -3.727 h 4.386 v -3.726 -3.726 h 4.386 v 3.726 3.726 h 4.386 v 3.727 3.725 h 4.386 v 3.727 3.724 H 100 v -3.724 -3.727 -3.725 -3.727 -3.726 -3.726 h -4.387 v -3.354 -3.725 h -4.386 v -3.717 -3.726 h -4.386 v -3.726 -3.727 H 82.455 V 225 221.275 h 4.386 v -3.726 -3.726 h 4.386 v -3.725 -3.726 h 4.386 v -3.725 -3.353 H 100 v -3.726 -3.725 -3.726 -3.725 -3.726 -3.725 h -4.387 v 3.725 3.726 h -4.386 v 3.725 3.726 h -4.386 v 3.725 3.726 h -4.386 v -3.726 -3.725 h -4.386 v -3.726 -3.725 h -4.386 v -3.726 -3.725 h -3.947 v -3.726 -3.353 H 65.35 v -3.725 -3.726 h -4.386 v -3.725 -3.726 h 4.386 v -3.725 -3.726 h 4.386 v -3.726 -3.725 h 3.947 4.386 4.386 v 3.725 3.726 h -4.386 -4.386 v 3.726 3.725 h 4.386 v 3.726 3.725 h 4.386 v 3.726 3.725 h 4.386 v -3.725 -3.726 h 4.386 v -3.725 -3.726 h 4.386 v -3.725 -3.726 H 100 v -3.726 -3.725 -3.726 -3.725 h -4.387 v -3.726 -3.353 h -4.386 v -3.725 -3.726 h -4.386 v -3.725 -3.726 h -4.386 v -3.725 -3.726 H 78.069 V 99.45 95.724 h -4.386 v 3.726 3.725 h -3.947 v 3.726 3.725 H 65.35 v 3.726 3.725 h -4.386 v 3.726 3.725 h -4.387 v 3.353 3.726 h -4.386 v 3.725 3.726 h -4.386 v -3.726 -3.725 H 43.42 v -3.726 -3.353 h -4.386 v -3.725 -3.726 h -4.386 v -3.725 -3.726 h -4.386 v -3.725 -3.726 H 25.876 V 99.45 95.724 H 21.49 v 3.726 3.725 h -3.947 v 3.726 3.725 h -4.386 v 3.726 3.725 H 8.772 v 3.726 3.725 H 4.386 v 3.353 3.726 H 0 v 3.725 3.726 3.725 3.726 h 4.386 v 3.726 3.725 h 4.386 v 3.726 3.725 h 4.386 v 3.726 3.725 h 4.386 v -3.725 -3.726 h 3.947 v -3.725 -3.726 h 4.386 v -3.725 -3.726 h -4.386 -3.947 v -3.726 -3.725 h 3.947 4.386 4.386 v 3.725 3.726 h 4.386 v 3.726 3.725 h 4.386 v 3.726 3.725 h -4.386 v 3.726 3.725 h -4.386 v 3.353 3.726 h -4.386 v 3.725 3.726 h -4.386 v 3.725 3.726 h -3.947 v 3.539 0.186 3.726 h -4.386 v -3.726 -0.186 -3.539 H 8.772 v -3.726 -3.725 H 4.386 v -3.726 -3.725 H 0 v 3.725 3.726 3.725 3.726 3.725 3.726 h 4.386 v 3.353 3.725 h 4.386 v 3.726 3.725 h 4.386 v 3.726 3.726 h 4.386 v 3.725 3.725 h -4.386 v 3.726 3.726 H 8.772 v 3.725 3.728 H 4.386 v 3.726 3.353 H 0 v 3.726 3.726 3.727 3.726 3.726 3.724 h 4.386 v -3.724 -3.726 h 4.386 v -3.726 -3.727 h 4.386 v -3.538 -0.188 -3.726 h 4.386 v 3.726 0.188 3.538 h 3.947 v 3.727 3.726 h 4.386 v 3.726 3.724 h 4.386 v 3.726 3.354 h 4.386 v 3.725 3.726 h 4.386 v 3.726 3.726 h -4.386 v 3.726 3.727 h -4.386 v 3.726 3.724 h -4.386 -4.386 -3.947 v -3.724 -3.726 h 3.947 4.386 v -3.727 -3.726 h -4.386 v -3.726 -3.726 h -3.947 v -3.726 -3.725 h -4.386 v 3.725 3.726 H 8.772 v 3.726 3.726 H 4.386 v 3.726 3.727 H 0 v 3.726 3.724 3.726 3.727 h 0.006 z m 0,-29.801 h 4.386 v -3.726 -3.726 H 0.006 v 3.726 z m 0,-117.715 h 4.386 v -3.726 -3.726 H 0.006 v 3.726 z m 0,-51.78 h 4.386 v -3.726 -3.725 H 0.006 v 3.725 z m 0,-29.429 h 4.386 v 3.726 3.353 h 4.386 v 3.725 3.726 h 4.386 v -3.726 -3.725 h 4.386 v -3.353 -3.726 h 3.947 V 84.934 81.208 H 17.55 V 77.483 73.757 H 13.164 V 70.032 66.306 H 8.778 v 3.726 3.725 H 4.392 v 3.726 3.725 H 0.006 v 3.726 z m 0,-29.801 H 4.392 V 55.133 51.78 H 0.006 v 3.353 z m 0,-21.979 h 4.386 v 3.725 3.726 h 4.386 v 3.725 3.726 h 4.386 v 3.353 3.725 h 4.386 v 3.726 3.725 h 3.947 v 3.726 3.725 h 4.386 V 70.036 66.31 h 4.386 v -3.725 -3.726 h 4.386 V 55.134 51.78 h 4.386 V 48.054 44.33 h 4.386 v -3.726 -3.725 h 4.386 V 33.153 29.427 H 43.427 V 25.702 21.978 H 39.04 V 18.625 14.9 H 34.654 V 11.174 7.451 H 30.268 V 3.726 0 h -4.386 -4.386 -3.947 v 3.726 3.725 h -4.386 v 3.726 3.725 H 8.778 v 3.726 3.353 H 4.392 v 3.725 3.726 H 0.006 v 3.725 z m 0,-21.978 H 4.392 V 11.176 7.451 H 0.006 v 3.726 z m 8.77,353.891 v -3.724 -3.729 h 4.386 v 3.729 3.724 z m 0,-280.133 v -3.725 -3.726 h 4.386 v 3.726 3.725 z m 4.387,331.913 v -3.727 -3.726 h 4.386 v -3.727 -3.725 h 3.947 v -3.724 -3.727 h 4.386 v 3.727 3.724 h 4.386 v 3.725 3.727 h 4.386 v 3.726 3.727 h -4.386 v 3.725 3.727 h -4.386 v 3.353 3.726 h -4.386 v -3.726 -3.353 h -3.947 v -3.727 -3.725 z m 0,-383.693 v -3.726 -3.726 h 4.386 v -3.725 -3.724 h 3.947 V 18.625 14.9 h 4.386 v 3.726 3.353 h 4.386 v 3.725 3.726 h 4.386 v 3.725 3.726 h -4.386 v 3.725 3.726 h -4.386 v 3.725 3.726 H 21.496 V 48.057 44.332 H 17.549 V 40.606 36.88 Z m 8.332,383.693 h 4.386 v -3.727 -3.726 h -4.386 v 3.726 z m 0,-383.693 h 4.386 v -3.726 -3.726 h -4.386 v 3.726 z m 4.386,331.913 h 4.386 v 3.726 3.726 h 4.386 v 3.726 3.727 h 4.386 v -3.727 -3.726 h 4.386 v -3.726 -3.726 h 4.386 v -3.724 -3.729 h -4.386 v -3.723 -3.354 h -4.386 v -3.724 -3.727 h -4.386 v 3.727 3.724 h -4.386 v 3.354 3.723 h -4.386 v 3.729 z m 0,-125.165 v -3.727 -3.726 -3.726 -3.727 -3.721 -3.725 -3.726 -3.726 -3.725 -3.726 h 4.386 v -3.725 -3.353 h 4.386 v -3.726 -3.725 h 4.386 v -3.726 -3.725 h 4.386 v -3.726 -3.725 h 4.386 v -3.726 -3.353 h 4.386 v 3.353 3.726 h 4.386 v 3.725 3.726 h 4.387 v 3.725 3.726 h 4.386 v 3.725 3.726 h 4.386 v 3.353 3.725 h 3.947 v 3.726 3.725 3.726 3.726 3.725 3.725 3.726 3.726 3.725 3.728 h -3.947 v 3.726 3.353 h -4.386 v 3.726 3.726 H 60.97 v 3.727 3.726 h -4.387 v 3.726 3.724 h -4.386 v 3.726 3.354 h -4.386 v -3.354 -3.726 h -4.386 v -3.724 -3.726 h -4.386 v -3.726 -3.727 h -4.386 v -3.726 -3.726 h -4.386 v -3.353 -3.726 z m 0,-154.968 h 4.386 v 3.726 3.353 h 4.386 v 3.725 3.726 h 4.386 v -3.726 -3.725 h 4.386 v -3.353 -3.726 h 4.386 v -3.725 -3.726 h -4.386 v -3.725 -3.726 h -4.386 v -3.725 -3.726 h -4.386 v 3.726 3.725 h -4.386 v 3.726 3.725 h -4.386 v 3.726 z m 5.263,140.066 H 35.53 V 225 221.275 H 31.144 V 225 Z m 3.509,140.067 v -3.724 -3.729 h 4.386 v 3.729 3.724 z m 0,-280.133 v -3.725 -3.726 h 4.386 v 3.726 3.725 z m 4.386,162.045 h 4.386 v -3.353 -3.726 h 4.386 v -3.725 -3.726 h 4.386 v 3.726 3.727 h 4.386 v 3.725 3.354 h 4.387 v -3.354 -3.725 -3.727 -3.726 h -4.387 v -3.726 -3.727 H 52.197 V 225 221.275 h 4.386 v -3.726 -3.726 h 4.387 v -3.725 -3.726 -3.725 -3.353 h -4.387 v 3.353 3.725 h -4.386 v 3.726 3.725 h -4.386 v -3.725 -3.726 h -4.386 v -3.725 -3.353 h -4.386 v 3.353 3.725 3.726 3.725 h 4.386 v 3.726 3.726 h 4.386 v 3.725 3.725 h -4.386 v 3.726 3.726 h -4.386 v 3.725 3.728 3.726 z M 47.811,450 h 4.386 v -3.724 -3.729 -3.723 -3.727 h -4.386 v 3.727 3.723 3.729 z m 0,-51.778 h 4.386 v -3.353 -3.729 -3.723 -3.726 h -4.386 v 3.726 3.723 3.729 z m 0,-51.409 h 4.386 v -3.726 -3.725 -3.727 -3.726 h -4.386 v 3.726 3.727 3.725 z m 0,-81.208 h 4.386 v -3.726 -3.728 h -4.386 v 3.728 z m 0,-73.759 h 4.386 v -3.726 -3.725 h -4.386 v 3.725 z m 0,-73.758 h 4.386 v -3.726 -3.725 -3.726 -3.725 h -4.386 v 3.725 3.726 3.725 z m 0,-51.78 h 4.386 v -3.725 -3.726 -3.725 -3.353 h -4.386 v 3.353 3.725 3.726 z m 0,-51.407 h 4.386 V 11.176 7.451 3.726 0 h -4.386 v 3.726 3.725 3.726 z m 4.384,405.671 h 4.386 v 3.725 3.727 h 4.387 v 3.353 3.726 h 4.386 v 3.727 3.723 h 4.386 v 3.729 3.718 h 3.947 4.386 4.386 v -3.724 -3.729 h 4.386 v -3.723 -3.727 h 4.386 v -3.726 -3.354 h 4.386 v -3.725 -3.726 H 100 v -3.727 -3.726 h -4.387 v -3.726 -3.726 h -4.386 v -3.724 -3.727 h -4.386 v -3.353 -3.728 h -4.386 v -3.724 -3.727 h -4.386 v -3.726 -3.725 h -4.386 v 3.725 3.726 h -3.947 v 3.727 3.724 H 65.35 v 3.728 3.353 h -4.386 v 3.727 3.724 h -4.387 v 3.726 3.726 h -4.386 v 3.726 3.727 h 0.004 z m 0,-51.78 h 4.386 v 3.726 3.726 h 4.387 v 3.726 3.727 h 4.386 v -3.727 -3.726 h 4.386 v -3.726 -3.726 h 3.947 v -3.724 -3.729 H 69.74 v -3.723 -3.354 h -4.386 v -3.724 -3.727 h -4.386 v 3.727 3.724 h -4.387 v 3.354 3.723 h -4.386 v 3.729 z m 0,-280.133 h 4.386 v 3.726 3.353 h 4.387 v 3.725 3.726 h 4.386 v -3.726 -3.725 h 4.386 v -3.353 -3.726 h 3.947 V 84.934 81.208 H 69.74 v -3.725 -3.726 h -4.386 v -3.725 -3.726 h -4.386 v 3.726 3.725 h -4.387 v 3.726 3.725 h -4.386 v 3.726 z m 0,-51.78 h 4.386 v 3.725 3.726 h 4.387 v 3.725 3.726 h 4.386 v 3.353 3.725 h 4.386 v 3.726 3.725 h 3.947 v 3.726 3.725 h 4.386 V 70.036 66.31 h 4.386 v -3.725 -3.726 h 4.386 V 55.134 51.78 h 4.386 V 48.054 44.33 h 4.386 V 40.604 36.879 H 100 V 33.153 29.427 H 95.613 V 25.702 21.978 H 91.227 V 18.625 14.9 H 86.841 V 11.174 7.451 H 82.455 V 3.726 0 H 78.069 73.683 69.736 V 3.726 7.451 H 65.35 v 3.726 3.725 h -4.386 v 3.726 3.353 h -4.387 v 3.725 3.726 h -4.386 v 3.725 3.724 h 0.004 z m 8.772,331.913 v -3.724 -3.729 h 4.386 v 3.729 3.724 z m 0,-280.133 v -3.725 -3.726 h 4.386 v 3.726 3.725 z m 3.508,140.066 h 4.386 V 225 221.275 H 64.475 V 225 Z m 0.878,191.847 v -3.727 -3.726 h 4.386 v -3.727 -3.725 h 3.947 v -3.724 -3.727 h 4.386 v 3.727 3.724 h 4.386 v 3.725 3.727 h 4.386 v 3.726 3.727 h -4.386 v 3.725 3.727 h -4.386 v 3.353 3.726 h -4.386 v -3.726 -3.353 h -3.947 v -3.727 -3.725 z m 0,-383.693 v -3.726 -3.726 h 4.386 v -3.725 -3.724 h 3.947 V 18.625 14.9 h 4.386 v 3.726 3.353 h 4.386 v 3.725 3.726 h 4.386 v 3.725 3.726 h -4.386 v 3.725 3.726 h -4.386 v 3.725 3.726 H 73.686 V 48.057 44.332 H 69.739 V 40.606 36.88 Z m 8.332,383.693 h 4.386 v -3.727 -3.726 h -4.386 v 3.726 z m 0,-383.693 h 4.386 v -3.726 -3.726 h -4.386 v 3.726 z m 4.385,331.913 h 4.386 v 3.726 3.726 h 4.386 v 3.726 3.727 h 0.219 4.167 v -3.727 -3.726 h 4.386 v -3.726 -3.726 H 100 v -3.724 -3.729 h -4.387 v -3.723 -3.354 h -4.386 v -3.724 -3.727 h -4.386 v 3.727 3.724 h -4.386 v 3.354 3.723 h -4.386 v 3.729 z m 0,-280.133 h 4.386 v 3.726 3.353 h 4.386 v 3.725 3.726 h 4.386 v -3.726 -3.725 h 4.386 V 92.385 88.659 H 100 V 84.934 81.208 H 95.613 V 77.483 73.757 H 91.227 V 70.032 66.306 H 87.06 86.841 v 3.726 3.725 h -4.386 v 3.726 3.725 h -4.386 v 3.726 z m 8.772,280.133 v -3.724 -3.729 h 4.386 v 3.729 3.724 z m 0,-280.133 v -3.725 -3.726 h 4.386 v 3.726 3.725 z m 8.771,353.89 H 100 v -3.723 -3.726 h -4.387 v 3.727 z m 0,-44.327 H 100 v -3.353 -3.729 h -4.387 v 3.729 z m 0,-58.859 H 100 v -3.727 -3.726 h -4.387 v 3.726 z m 0,-51.78 H 100 v -3.726 -3.726 h -4.387 v 3.726 z m 0,-117.715 H 100 v -3.725 -3.726 h -4.387 v 3.726 z m 0,-51.78 H 100 v -3.726 -3.725 h -4.387 v 3.725 z m 0,-59.23 H 100 V 55.133 51.78 h -4.387 v 3.353 z m 0,-43.957 H 100 V 11.176 7.451 h -4.387 v 3.726 z"
   style="fill:#cc0000;fill-opacity:1;stroke:none" />
</svg>
