<?xml version="1.0" encoding="UTF-8" standalone="no"?>
<svg
   width="201.00429"
   height="224.86038"
   viewBox="0 0 257.28549 287.82129"
   version="1.1"
   id="svg6"
   sodipodi:docname="PG.svg"
   inkscape:version="1.3.2 (091e20e, 2023-11-25, custom)"
   xmlns:inkscape="http://www.inkscape.org/namespaces/inkscape"
   xmlns:sodipodi="http://sodipodi.sourceforge.net/DTD/sodipodi-0.dtd"
   xmlns="http://www.w3.org/2000/svg"
   xmlns:svg="http://www.w3.org/2000/svg">
  <defs
     id="defs6" />
  <sodipodi:namedview
     id="namedview6"
     pagecolor="#ffffff"
     bordercolor="#000000"
     borderopacity="0.25"
     inkscape:showpageshadow="2"
     inkscape:pageopacity="0.0"
     inkscape:pagecheckerboard="0"
     inkscape:deskcolor="#d1d1d1"
     inkscape:zoom="1.6833333"
     inkscape:cx="-3.5643564"
     inkscape:cy="176.13861"
     inkscape:window-width="1920"
     inkscape:window-height="1009"
     inkscape:window-x="1912"
     inkscape:window-y="-8"
     inkscape:window-maximized="1"
     inkscape:current-layer="svg6" />
  <title
     id="title1">Flag of Papua New Guinea</title>
  <path
     fill="#fcd116"
     d="m 86.770154,105.35351 c -5.67222,7.32645 -19.095,-7.36966 -35.175,-7.70533 -16.08,-0.33567 -27.47067,15.40966 -32.16,20.77033 -4.68933,5.36067 -19.76432952,33.49967 -19.42966952,36.51467 0.33467,3.015 9.38067002,-8.37467 12.73033952,-10.38467 0.33466,4.02 -3.6853395,8.71034 -2.68034,10.05 1.005,1.33967 11.72433,-8.04 15.40967,-8.37466 1.005,2.68033 -2.01,5.35966 -1.005,9.37966 1.34067,1.33967 7.37067,-6.70033 11.39067,-8.37466 0.66933,3.015 -3.68534,8.71033 -1.34067,12.39466 1.67533,0.33467 11.72433,-11.38966 15.075,-12.73033 3.35067,-1.34067 -1.67534,11.055 0,12.06 3.015,-2.01 12.39567,-12.73034 15.41067,-14.07 3.015,-1.33967 -0.33467,13.73533 1.005,13.73533 3.68433,-2.68033 13.065,-15.40966 14.07,-17.41966 1.005,-2.01 -1.005,19.42966 9.37966,30.82033 10.38467,11.39067 26.131006,24.45467 27.805336,24.45467 2.01,-3.68534 -0.66933,-11.38967 1.005,-11.055 4.68933,5.025 13.39966,12.39466 15.40966,12.39466 2.01,0 -1.34067,-8.04 1.33967,-8.04 5.36067,5.025 20.77033,24.79034 50.92033,33.83534 -2.01,-5.69534 -6.36567,-10.72034 -6.70033,-13.39967 2.01,0.33467 9.046,3.68534 10.38567,3.34967 1.33966,-0.33567 -14.74034,-20.1 -13.73534,-22.78034 3.68534,-0.33466 5.36067,2.01 6.70034,0.33467 -1.67534,-2.67933 -15.74534,-18.42467 -15.74534,-22.11 0,-3.68534 4.35567,0.67033 5.69534,0 1.33966,-0.67034 -5.35967,-14.74034 -4.02,-16.41467 1.33966,-1.67433 16.07899,9.045 19.76433,9.045 3.68533,0 1.005,-13.065 2.68033,-13.73533 1.67534,-0.67034 14.07101,7.035 16.75034,7.035 2.67933,0 2.34466,-5.69534 3.34966,-5.025 1.005,0.67033 30.15,29.81533 20.1,63.98533 -10.05,24.45567 -30.14899,37.52067 -59.62966,26.80034 1.67433,2.68033 17.41966,15.74533 34.50466,11.055 17.085,-4.69034 37.85433,-18.09 35.50967,-51.58967 -2.34467,-33.49966 -13.40067,-38.19 -15.075,-43.215 -1.67433,-5.025 2.68134,1.33967 6.36567,2.68034 3.68433,1.34067 -0.67034,-7.03601 -1.67534,-10.72134 -1.005,-3.68534 11.055,7.70533 14.07,8.71033 3.015,1.005 -7.035,-27.46966 -10.05,-29.47966 -3.015,-2.01 3.015,0.66933 5.025,1.33966 2.01,0.67034 -18.42567,-31.155 -22.78033,-31.155 -4.35467,0 3.68433,-1.67533 6.03,-1.67533 2.34567,0 -23.44866,-20.77034 -27.80433,-20.77034 -4.35567,0 9.37866,-5.36067 10.71933,-5.69533 2.34567,0.33466 -29.81433,-17.085 -58.62467,0.33466 -1.67533,-1.33866 13.56851,-11.89116 14.07,-16.41366 0.16784,-1.17283 -5.02399,-3.68533 -5.35966,-5.025 -0.33567,-1.33966 8.04,-5.35965 8.37466,-8.37465 -2.01,-2.68033 -5.69533,-1.67534 -7.70533,-2.34466 -0.5015,-2.512504 7.036,-8.710339 6.36567,-11.389669 -0.5025,-1.5075 -6.03101,-2.01 -7.37067,-1.005 -1.33967,1.005 3.5185,-7.035 2.68033,-9.379665 -0.66933,-1.005 -3.34966,-0.334665 -6.03,0.334665 -1.67533,-0.334665 8.71034,-14.7403351 6.70034,-16.75033507 -2.01,-2.01000003 -30.15101,14.73933007 -40.53567,33.49966507 -10.38467,18.760319 -2.34366,33.835319 -3.68433,40.199989 -1.34067,6.36466 -3.01601,12.73033 -7.37067,12.73033 -4.35467,0 -14.403656,-6.70033 -17.754326,-10.05 -3.35067,-3.34966 -4.02,-5.69533 -8.71034,-7.035 -4.69033,-1.33966 -15.40966,2.68034 -19.42966,3.015 -4.02,0.33467 -19.76534,-3.015 -20.77034,-2.01 -1.005,1.005 15.40967,7.035 19.095,9.045 3.68534,2.01 4.02101,4.69034 6.70034,6.36467 2.67933,1.67433 27.80433,9.045 19.76433,19.42966 z m 98.155326,47.235 c 8.04,8.04 62.31,44.22 62.31,88.44 0,44.22 -39.53067,42.88134 -50.92033,41.54067 12.73033,10.71933 60.97033,8.70933 60.97033,-41.54067 0,-44.22 -62.31,-88.44 -70.35,-92.46 -8.04,-4.02 -10.05,-4.02 -2.01,4.02 z"
     id="path3" />
</svg>
