<svg xmlns="http://www.w3.org/2000/svg" xmlns:xlink="http://www.w3.org/1999/xlink" width="400" height="511" viewBox="-40 -102.2 80 102.2"  fill="#00f">
<path d="M-37.175342-94.368205a92.195445 92.195445 0 0 1 74.350684 0Q43-12 0-1q-43-11-37.175342-93.368205z"/>
<path id="a" d="m0-84.5 1.125 2.551443L3.897114-82.25 2.25-80l1.647114 2.25L1.125-78.051443 0-75.5l-1.125-2.551443-2.772114.301443L-2.25-80l-1.647114-2.25 2.772114.301443" fill="#ff0"/>
<use xlink:href="#a" x="-10.5" y="-14"/>
<use xlink:href="#a" x="10.5" y="-14"/>
<path d="m0-70 9 18 6-8 15 20a10 10 0 0 1-.384761 2.747211A46.400549 46.400549 0 0 1 0-6.090878A46.400549 46.400549 0 0 1-29.615239-37.252789 10 10 0 0 1-30-40l15-20 6 8z" fill="#fff"/>
<path id="b" d="M-29.615239-37.252789A10 10 0 0 0-15-31.339746a10 10 0 0 1 10 0 10 10 0 0 0 10 0 10 10 0 0 1 10 0A10 10 0 0 0 29.615239-37.252789L30-37.113249v7.320508a10 10 0 0 0-5 1.339746 10 10 0 0 1-10 0 10 10 0 0 0-10 0 10 10 0 0 1-10 0 10 10 0 0 0-10 0 10 10 0 0 1-10 0 10 10 0 0 0-5-1.339746v-7.320508"/> 
<use xlink:href="#b" y="5.773503"/>
<path d="M-40-93.066239a92.195445 92.195445 0 0 1 2.824658-1.301966l2.97064 47.448778A49.301041 49.301041 0 0 0 0-3.036262a49.301041 49.301041 0 0 0 34.204702-43.883164l2.97064-47.448778A92.195445 92.195445 0 0 1 40-93.066239L37.099526-46.73819A52.201533 52.201533 0 0 1 0 0a52.201533 52.201533 0 0 1-37.099526-46.738189z" fill="red"/>
</svg>