<?xml version="1.0" encoding="UTF-8" standalone="no"?>
<svg
   version="1.1"
   id="CoA"
   x="0px"
   y="0px"
   viewBox="0 0 495 615"
   xml:space="preserve"
   sodipodi:docname="SK_new.svg"
   inkscape:version="1.3.2 (091e20e, 2023-11-25, custom)"
   width="495"
   height="615"
   xmlns:inkscape="http://www.inkscape.org/namespaces/inkscape"
   xmlns:sodipodi="http://sodipodi.sourceforge.net/DTD/sodipodi-0.dtd"
   xmlns="http://www.w3.org/2000/svg"
   xmlns:svg="http://www.w3.org/2000/svg"><defs
   id="defs1"><clipPath
     clipPathUnits="userSpaceOnUse"
     id="clipPath3"><path
       id="path4"
       class="st2"
       d="m 432.249,441.551 c -12.85,-22.624 -33.105,-47.128 -60.578,-47.128 -40.55,0 -55.349,32.692 -55.349,32.692 0,0 -26.623,-68.913 -76.322,-68.913 -49.699,0 -76.322,68.914 -76.322,68.914 0,0 -14.799,-32.692 -55.349,-32.692 -27.473,0 -47.728,24.504 -60.578,47.128 49.952,79.35 129.634,128.313 192.245,158.448 62.615,-30.135 142.3,-79.098 192.253,-158.449 z"
       style="stroke:none;stroke-width:1.5;stroke-dasharray:none;stroke-opacity:1" /></clipPath></defs><sodipodi:namedview
   id="namedview1"
   pagecolor="#ffffff"
   bordercolor="#000000"
   borderopacity="0.25"
   inkscape:showpageshadow="2"
   inkscape:pageopacity="0.0"
   inkscape:pagecheckerboard="0"
   inkscape:deskcolor="#d1d1d1"
   inkscape:zoom="1.355"
   inkscape:cx="241.32841"
   inkscape:cy="308.11808"
   inkscape:window-width="1920"
   inkscape:window-height="1009"
   inkscape:window-x="1912"
   inkscape:window-y="-8"
   inkscape:window-maximized="1"
   inkscape:current-layer="CoA" />
<style
   type="text/css"
   id="style1">
	.st0{fill:#EE1C25;}
	.st1{fill:#FFFFFF;}
	.st2{fill:#0B4EA2;}
</style>
<path
   id="path5"
   class="st0"
   d="M 247.49745,615 C 145.66336,566.27873 0,469.57701 0,278.28547 0,86.993793 9.207019,0 9.207019,0 H 247.49643 485.78992 C 485.78992,0 495,86.994841 495,278.28547 495,469.57599 349.33766,566.27873 247.49745,615 Z"
   style="fill:#ffffff;fill-opacity:1;stroke:none;stroke-width:1.54239;stroke-dasharray:none;stroke-opacity:1" /><path
   id="Shield_1_"
   class="st0"
   d="M 247.497,609 C 148.749,561.467 7.5,467.124 7.5,280.498 7.5,93.872 16.428,9 16.428,9 h 231.068 231.072 c 0,0 8.931,84.873 8.931,271.498 0,186.625 -141.248,280.969 -240.002,328.502 z"
   style="stroke:none;stroke-width:1.5;stroke-dasharray:none;stroke-opacity:1" />
<path
   id="Cross"
   class="st1"
   d="M 268.602,378.354 V 275.275 c 30.109,-0.382 82.69,-0.085 125.27,14.163 0,0 -1.226,-16.61 -1.226,-35.964 0,-19.35 1.226,-35.961 1.226,-35.961 -46.42,15.533 -98.551,14.486 -125.27,14.055 v -64.735 c 24.353,-0.216 59.447,0.947 99.126,14.225 0,0 -1.226,-16.611 -1.226,-35.964 0,-19.351 1.226,-35.962 1.226,-35.962 -39.621,13.257 -74.671,14.438 -99.018,14.227 1.251,-40.991 13.193,-92.66 13.193,-92.66 0,0 -24.578,1.917 -34.403,1.917 -9.825,0 -34.403,-1.918 -34.403,-1.918 0,0 11.943,51.669 13.193,92.66 -24.346,0.211 -59.397,-0.971 -99.018,-14.227 0,0 1.226,16.611 1.226,35.962 0,19.353 -1.226,35.964 -1.226,35.964 39.679,-13.278 74.773,-14.441 99.126,-14.225 v 64.735 c -26.72,0.432 -78.85,1.478 -125.27,-14.055 0,0 1.226,16.611 1.226,35.961 0,19.355 -1.226,35.964 -1.226,35.964 42.58,-14.248 95.161,-14.545 125.27,-14.163 v 103.078 h 42.204 z" /><path
   id="Peaks"
   class="st2"
   d="m 439.749,450.551 c -12.85,-22.624 -33.105,-47.128 -60.578,-47.128 -40.55,0 -55.349,32.692 -55.349,32.692 0,0 -26.623,-68.913 -76.322,-68.913 -49.699,0 -76.322,68.914 -76.322,68.914 0,0 -14.799,-32.692 -55.349,-32.692 -27.473,0 -47.728,24.504 -60.578,47.128 49.952,79.35 129.634,128.313 192.245,158.448 62.615,-30.135 142.3,-79.098 192.253,-158.449 z"
   style="stroke:none;stroke-width:1.5;stroke-dasharray:none;stroke-opacity:1" />

</svg>
