<?xml version="1.0" ?><!-- Uploaded to: SVG Repo, www.svgrepo.com, Generator: SVG Repo Mixer Tools -->
<svg width="800px" height="800px" viewBox="0 0 128 128" data-name="Слой 1" id="Слой_1" xmlns="http://www.w3.org/2000/svg"><defs><style>.cls-1{fill:#ffe082;}.cls-2{fill:#404040;}.cls-3{fill:#9e9e9e;}.cls-4{fill:#f5f5f5;}</style></defs><title/><path class="cls-1" d="M82,93V81.82a20.38,20.38,0,0,1,6.65-15.23,37,37,0,1,0-49.39-.09A20.59,20.59,0,0,1,46,81.82V92.59"/><path class="cls-2" d="M82,95a2,2,0,0,1-2-2V81.82A22.38,22.38,0,0,1,87.31,65.1,35,35,0,1,0,40.59,65,22.61,22.61,0,0,1,48,81.82V92.58a2,2,0,0,1-4,0V81.82A18.6,18.6,0,0,0,37.92,68,39,39,0,1,1,90,68.08a18.38,18.38,0,0,0-6,13.74V93A2,2,0,0,1,82,95Z"/><path class="cls-3" d="M82,92v16a18.05,18.05,0,0,1-18,18h0a18.05,18.05,0,0,1-18-18V92Z"/><path class="cls-2" d="M64,128a20,20,0,0,1-20-20V92a2,2,0,0,1,2-2H82a2,2,0,0,1,2,2v16A20,20,0,0,1,64,128ZM48,94v14a16,16,0,0,0,32,0V94Z"/><line class="cls-4" x1="54" x2="82" y1="102" y2="98"/><path class="cls-2" d="M54,104a2,2,0,0,1-.28-4l28-4a2,2,0,0,1,.57,4l-28,4Z"/><line class="cls-4" x1="54" x2="82" y1="110" y2="106"/><path class="cls-2" d="M54,112a2,2,0,0,1-.28-4l28-4a2,2,0,0,1,.57,4l-28,4Z"/></svg>