<svg xmlns="http://www.w3.org/2000/svg" width="265" height="265" fill-rule="evenodd"><path d="M265 132.5C265 59.322 205.678 0 132.5 0S0 59.322 0 132.5 59.322 265 132.5 265 265 205.678 265 132.5" fill="#24578e"/><path d="M146.784 193.74l6.806 9.563c1.577 2.216 4.741 3.617 7.323 3.846 3.087.274 6.561-1.259 8.953-3.868 3.129-3.412 3.079-5.949 3.272-10.336 2.188 2.8 4.176 4.089 7.078 5.969s7.655 2.371 10.834.559c3.221-1.836 5.104-5.687 4.872-9.809l-.657-11.692h-23.76c-1.765 0-2.369.189-3.352 1.111l-14.654 13.684c-.55.512-1.282.972-2.033.972zm-25.128-47.1h21.805v11.175h-21.805zm77.96-19.813h32.389c1.771 0 2.956-.892 3.491-1.804 2.168-3.697-.991-12.172-11.635-11.897-1.375.035-3.836.682-5.26 1.4l-8.306 4.191-5.899 3.219c-1.084.591-1.843 1.489-4.119 3.699-.352.334-.637.497-.661 1.192zm-83.769-16.224l.545 13.551H88.88a7.18 7.18 0 0 0-7.155 7.155 7.18 7.18 0 0 0 7.155 7.155h27.512v27.46H88.88a7.18 7.18 0 0 0-7.155 7.155 7.18 7.18 0 0 0 7.155 7.155h27.512v13.507h22.071l9.909 13.851c2.684 3.751 7.057 6.498 11.894 6.664 7.122.245 14.404-3.53 16.829-10.291 3.07 2.505 7.104 3.747 11.862 2.867 3.817-.922 6.883-2.046 9.654-4.957 3.423-3.584 4.475-7.742 4.194-11.658l-.877-12.244 31.749-.046 2.888-7.006h-65.909c-28.459 0-26.959-37.21-1.357-37.21h64.806c2.264-.149 5.467-2.026 7.42-5.249 2.626-4.311 1.897-10.055-.879-14.051-2.41-3.469-5.085-5.393-8.954-7.024-5.665-2.364-11.986-1.323-17.305 1.465l-13.757 7.212c-.809.424-1.517 1.039-2.149 1.699l-7.721 8.083c-.645.668-1.075.981-1.827.981h-18.292l-19.085-15.985 22.935-27.221 43.406-21.113-2.951-5.451-42.962 20.762c-1.183.572-2.155 1.554-3 2.561l-25.373 30.223zM53.3 57.968h12.538v146.638H53.3zm70.008-34.559l37.653 24.133-37.653 24.133-5.057-8.249 17.234-11.046H82.327v-9.676h53.158l-17.234-11.046z" fill="#fff"/></svg>