<svg xmlns="http://www.w3.org/2000/svg" width="265" height="265"><path d="M132.499 0C59.528 0 0 59.511 0 132.468S59.532 265 132.5 265 265 205.422 265 132.468 205.471 0 132.499 0" fill="#24578e"/><path d="M119.193 34.807c0-4.615 3.738-8.356 8.356-8.356h2.443v86.175h5.013V26.451h2.443a8.36 8.36 0 0 1 8.356 8.356h12.836c5.334 0 9.891 3.339 11.696 8.035a10.71 10.71 0 0 1 .336.993l23.813 70.603-16.33 4.53-19.051-54.722-3.923 45.952 19.646 120.93-22.978 3.927-19.325-98.857-19.376 98.857-22.974-3.927 19.65-120.93-3.927-45.952-19.059 54.722-16.322-4.53 23.813-70.615a11.28 11.28 0 0 1 .332-.982c1.801-4.7 6.362-8.035 11.7-8.035zm21.76 23.217h12.531v5.013h-12.531z" fill="#fff" fill-rule="evenodd"/></svg>