<svg xmlns="http://www.w3.org/2000/svg" width="265" height="265" fill-rule="evenodd"><path d="M265 132.5C265 59.322 205.678 0 132.5 0S0 59.322 0 132.5 59.322 265 132.5 265 265 205.678 265 132.5" fill="#24578e"/><path d="M46.804 151.99l-.036 47.186c6.517.082 15.031.076 22.229 1.873 3.145.705 5.776 1.849 8.914 2.628l10.071 2.758c.759.409 18.104 30.941 18.344 31.254 1.561-.926 3.513-2.209 9.35-5.165 10.848-5.494 17.684-4.334 27.613-8.041 9.558-3.569 14.584-5.568 23.529-12.055 2.566-1.861 5.117-4.343 8.196-5.995 2.743-1.472 6.385-3.749 9.116-5.42l28.127-16.879c7.843-5.234 1.086-13.102-5.659-9.532l-27.875 14.751c-1.943 1.028-3.104-.934-1.573-1.934 3.134-2.046 6.739-3.995 9.987-5.95l32.695-19.709c5.591-3.353-.041-12.192-6.309-8.518l-37.782 19.605c-2.036 1.116-3.013-.889-1.246-1.966l41.841-24.736c5.224-3.091.541-13.031-6.243-9.067l-41.878 22.321c-2.608 1.356-2.685-1.33-1.522-2.05l31.554-19.511c6.557-4.055 1.474-13.255-6.629-8.933l-31.346 16.72-27.503-.44c.957-3.404 1.127-7.064.502-11.88-.35-3.444-3.753-5.875-6.934-3.515-2.354 1.747-6.829 10.679-9.549 14.973l-16.23-.007c-2.746-.001-2.253-3.798-.499-4.734 6.316-3.374 14.937-7.042 20.107-15.723 1.036-1.883 2.852-5.211 1-7.465-2.804-3.412-7.029-.618-8.795.292-10.942 5.638-21.077 10.65-31.532 16.91-9.176 5.494-9.545 13.558-24.326 17.15-3.442.837-5.877.646-9.71.802zm104.346-2.415l-20.211-.206-6.506 9.789c-.654.933-1.852 2.602-.76 4.187 1.55 2.248 6.055-1.002 7.529-1.821zM50.658 155.87l.016 39.373c6.08.007 12.333.211 18.416 1.891 5.325 1.124 10.499 3.168 16.32 4.654-1.132-1.948-1.502-2.721-2.579-5.119 2.525-1.924 7.914-3.805 11.508-8.744 8.14-11.185 2.786-12.335 11.761-26.784l8.165-12.35-13.309.036c-6.179.016-8.652-8.203-2.748-11.761 3.595-2.001 9.952-5.535 12.368-7.404 3.02-2.337 8.064-9.039 7.411-10.538-.53-1.218-27.598 13.958-32.214 16.596-8.619 4.924-10.22 8.948-15.759 13.359-5.249 4.18-11.62 6.6-19.355 6.791zm153.676-94.911h-16.246v-10.14h16.246zm-16.246 7.002l-34.309-.648c-7.248-.137-13.121 5.626-13.121 12.876v10.319h15.483v-3.657c0-1.914 1.55-3.436 3.464-3.399l28.483.538v5.21h16.246V64.557h-16.246zm-37.415 29.17c0-1.255-1.017-2.273-2.273-2.273s-2.273 1.017-2.273 2.273 1.017 2.273 2.273 2.273 2.273-1.017 2.273-2.273zm0 19.535c0-1.255-1.017-2.273-2.273-2.273s-2.273 1.018-2.273 2.273 1.017 2.273 2.273 2.273 2.273-1.017 2.273-2.273zm0-9.767c0-1.255-1.017-2.273-2.273-2.273s-2.273 1.017-2.273 2.273 1.017 2.273 2.273 2.273 2.273-1.018 2.273-2.273zm0 19.535c0-1.255-1.017-2.273-2.273-2.273s-2.273 1.017-2.273 2.273 1.017 2.273 2.273 2.273 2.273-1.017 2.273-2.273zm9.05-32.184c-.502-1.151-1.841-1.677-2.992-1.175s-1.677 1.841-1.175 2.992 1.841 1.677 2.992 1.175 1.677-1.841 1.175-2.992zm7.808 17.907c-.502-1.151-1.841-1.677-2.992-1.175s-1.677 1.841-1.175 2.992 1.841 1.677 2.992 1.175 1.677-1.841 1.175-2.992zm-3.904-8.953c-.502-1.15-1.841-1.677-2.992-1.175s-1.677 1.841-1.175 2.992 1.841 1.677 2.992 1.175 1.677-1.841 1.175-2.992zm7.808 17.907c-.502-1.151-1.841-1.677-2.992-1.175s-1.677 1.841-1.175 2.992 1.841 1.677 2.992 1.175 1.677-1.841 1.175-2.992zm-34.306-26.86c.502-1.151 1.841-1.677 2.992-1.175s1.677 1.841 1.175 2.992-1.841 1.677-2.992 1.175-1.677-1.841-1.175-2.992zm-7.808 17.907c.501-1.151 1.841-1.677 2.992-1.175s1.677 1.841 1.175 2.992-1.841 1.677-2.992 1.175-1.677-1.841-1.175-2.992zm3.904-8.953c.502-1.15 1.841-1.677 2.992-1.175s1.677 1.841 1.175 2.992-1.841 1.677-2.992 1.175-1.677-1.841-1.175-2.992zm-7.808 17.907c.501-1.151 1.841-1.677 2.992-1.175s1.676 1.841 1.175 2.992-1.841 1.677-2.992 1.175-1.677-1.841-1.175-2.992" fill="#fff"/></svg>