<svg xmlns="http://www.w3.org/2000/svg" width="265" height="265" fill-rule="evenodd"><path d="M265 132.5C265 59.323 205.677 0 132.5 0S0 59.323 0 132.5 59.323 265 132.5 265 265 205.678 265 132.5" fill="#24578e"/><path d="M152.426 52.049a14.46 14.46 0 0 0-12.663-16.06c-7.933-.936-15.126 4.737-16.065 12.671a14.46 14.46 0 0 0 12.663 16.059c7.933.936 15.126-4.737 16.065-12.67zm-13.923 9.233c6.026-.26 10.706-5.355 10.452-11.381a10.91 10.91 0 0 0-11.37-10.44 10.94 10.94 0 0 0-10.452 11.381 10.91 10.91 0 0 0 11.37 10.44zm27.935 13.96l-5.808-4.53c-2.191-1.709-4.7-1.922-7.412-1.922h-30.6c-4.567.038-6.157.674-9.509 4.117L93.525 92.265c-.686.678-1.893 1.43-3.741 1.43l-27.999.005c-16.5.003-16.021 21.428 0 21.428h30.501c7.197.026 8.546-.645 11.797-3.728l14.109-13.216v34.198l-31.237 25.35c-5.038 4.088-4.603 9.454-2.592 14.701l14.985 39.097c5.778 15.075 27.709 8.047 21.96-7.672l-12.434-33.994 25.726-20.275v78.037c0 16.453 23.09 16.559 23.118 0V97.215c.221-1.022.884-1.333 1.667-.762l12.818 9.364v30.193c.027 14.986 21.333 15.574 21.333 0v-32.475c.021-4.412-.312-6.906-3.599-10.106-1.977-1.925-4.555-3.596-6.832-5.406-2.498-1.986-8.863-6.5-10.759-8.407 4.268-14.734 6.601-29.909 5.901-45.332l-6.688-2.802c.012 19.468-1.046 27.584-5.123 43.761zm-11.816 65.566c-5.528.944-10.994 3.419-16.636 8.292v78.634c-.067 12.022 16.65 11.357 16.636.275zm-50.002 28.103l25.202-20.062-10.73-12.716-28.131 22.601c-5.393 4.333-5.38 6.946-3.18 12.736l14.549 38.284c4.376 11.517 20.032 6.694 15.529-5.37zm45.867-39.951l4.152-.194V96.72c0-3.382 3.109-5.184 6.115-3.465l14.866 11.107v32.49c0 9.8 14.516 9.919 14.516 0v-34.018c0-4.415-1.243-6.144-4.119-8.344l-25.099-19.205c-1.732-1.338-4.304-3.398-7.009-3.059-3.211 19.649-3.375 37.227-3.421 56.735zm-54.484-17.581c2.667-.001 3.803-.534 5.542-2.281l16.648-16.727c-.014-7.197-.2-12.585.605-19.509L95.846 94.67c-1.941 1.845-3.119 2.748-6.629 2.745l-27.907-.019c-10.785.091-10.256 14.009 0 14.002zm28.916 13.29c5.608 2.392 12.733 3.665 19.738 3.852-.128-9.24-.059-18.836.298-28.561l-20.037-.223zm0-32.075l20.413.285c.488-7.692 1.256-14.541 2.229-20.777h-22.353c-.283 6.123-.388 11.451-.289 20.492zm10.186 49.889c3.252-2.69 5.62-4.456 10.92-6.594-7.661.04-13.73-.98-20.014-3.48z" fill="#fff"/></svg>