<svg height="264.567" width="264.568" xmlns="http://www.w3.org/2000/svg" xmlns:xlink="http://www.w3.org/1999/xlink"><clipPath id="a"><path d="m44.87 471.68h228.24v228.241h-228.24z"/></clipPath><g clip-path="url(#a)" fill-rule="evenodd" stroke-width=".999999" transform="matrix(1.33333 0 0 -1.33333 -79.703 913.35)"><path d="m0 0c54.79 0 99.213 44.438 99.213 99.177 0 54.81-44.423 99.248-99.213 99.248s-99.213-44.438-99.213-99.248c0-54.739 44.423-99.177 99.213-99.177" fill="#24578e" transform="translate(158.99 486.588)"/><g fill="#fff"><path d="m0 0-.18.06-.194.06-.225.074-.239.076-.508.164-.552.179-.583.195-.583.223-.583.224-.554.239-.479.21-.448.224-.434.224-.403.253-.195.135-.179.15-.165.179-.149.18-.135.193-.134.225-.104.239-.091.254-.015.029v.016l-.015.029-.014.12-.045.284.015.298.014.166.045.149.061.149.074.15.104.135.15.119.165.104.194.09.239.074.285.045.149.016h.09l.193.014.21.015.224.015.494.015.538.015h.583l1.196.015h1.181l.538-.015h1.57l.105-.015h.135l-.016.03-.029.059-.045.09-.06.12-.075.164-.09.179-.09.194-.104.225-.119.239-.255.508-.523 1.076-.269.508-.119.254-.12.223-.105.21-.09.179-.09.165-.074.134-.03.06-.03.044-.044.076-.09.149-.194.284-.195.269-.224.239-.254.209-.284.164-.15.075-.165.045-.179.044-.194.03-.135.015-.149.016-.18.014-.194.016-.419.029-.478.045-.494.03-.538.06-.538.06-.554.059-.538.09-.268.045-.135.029h-.045l-.045.016-.358.059-.673.15-.329.074-.315.105-.299.12-.298.134-.269.179-.255.195-.239.253-.224.285-.104.164-.016.03-.015.015-.014.044-.061.135-.104.314-.029.179-.031.179.015.18.03.179.06.179.104.164.135.18.194.149.24.15.149.059.149.06.344.12.194.045.225.074.464.119.522.135.569.15.568.134 1.181.284.554.134.538.12.493.12.224.044.209.06.18.03.18.045.149.029.119.031.105.03.075.015.06.014h.014l-.014.031-.03.029-.045.045-.046.059-.059.076-.15.179-.178.224-.196.239-.223.269-.239.299-1.017 1.225-.254.284-.225.269-.209.239-.179.224-.15.165-.075.074-.045.06-.194.194-.209.194-.209.18-.21.164-.224.135-.239.104-.239.074-.27.061h-.433l-.135-.03-.134-.016-.149-.015-.329-.059-.389-.06-.419-.059-.448-.075-.479-.06-.493-.075-1.002-.105-.478-.029-.254-.016h-.18l-.702-.029h-.673l-.329.029-.315.061-.313.074-.299.119-.299.151-.285.194-.283.254-.075.06-.03.044-.044.06-.09.135-.106.149-.089.179-.059.18-.045.178-.03.195.03.21.059.209.105.209.074.104.09.105.105.104.12.105.149.105.149.104.18.105.194.104.224.134.239.135.255.135.269.135.583.313 1.226.612.598.315.583.283.284.135.255.134.254.12.225.119.209.105.194.089.164.075.135.075.104.044.074.031.045.029-.014.016-.045.029-.06.045-.075.059-.104.076-.105.09-.135.104-.133.104-.315.24-.344.254-.374.284-.388.283-.763.583-.344.254-.329.239-.149.105-.134.104-.12.09-.105.075-.09.059-.074.045-.15.09-.299.179-.299.15-.313.119-.315.09-.329.014h-.164l-.165-.014-.179-.045-.179-.045-.164-.06-.165-.074-.195-.075-.209-.09-.239-.09-.239-.103-.538-.225-.569-.225-.612-.223-.613-.21-.599-.194-.299-.089-.239-.06-.448-.135-.449-.119-.434-.09-.433-.045h-.419l-.224.015-.209.045-.225.045-.209.075-.224.089-.209.12-.12.074-.03.016v.015l-.03.014-.074.06-.18.164-.164.195-.151.209-.058.119-.046.135-.029.134-.016.135v.149l.03.149.045.165.074.165.106.178.134.18.165.18.209.193.239.225.284.253.299.27.329.299.344.299.374.313.732.612.718.614.344.283.314.269.299.239.269.224.224.18.105.089.09.06.075.06.059.06.045.045.045.029.015.015h.015l-.03.015-.09.03-.12.06-.164.075-.194.089-.225.104-.268.105-.27.135-.299.119-.613.284-.628.269-.613.269-.283.12-.255.104-.239.105-.195.074-.179.075-.134.045-.479.165-.239.059-.239.045-.24.03h-.239l-.239-.015-.224-.06-.239-.074-.239-.12-.12-.075-.09-.059-.238-.165-.255-.179-.299-.224-.344-.24-.344-.238-.374-.269-.388-.269-.808-.523-.403-.239-.209-.12-.106-.06-.089-.045-.628-.343-.314-.15-.314-.149-.314-.119-.329-.105-.314-.06-.343-.045-.329-.015-.359.031-.359.089-.18.045-.044.015-.03.015-.045.014-.149.09-.165.09-.165.104-.165.135-.148.164-.135.18-.09.194-.06.224-.015.119v.135l.015.134.03.135.045.149.075.165.074.149.105.18.12.193.149.21.15.239.18.254.178.254.195.284.419.582.867 1.196.433.567.209.285.195.254.179.253.165.225.164.209.135.179.119.165.105.134.075.105.06.074.014.03-.029.015-.075.015-.09.015-.119.015-.15.03-.179.03-.195.045-.209.029-.448.09-.509.09-.523.089-.524.09-.507.09-.479.089-.224.03-.209.03-.18.03-.164.03-.15.015-.12.015-.403.044-.389.015-.374-.029-.194-.03-.18-.045-.178-.06-.166-.074-.164-.09-.164-.12-.165-.134-.134-.15-.135-.149-.164-.179-.18-.21-.193-.224-.21-.238-.21-.254-.478-.538-.509-.553-.538-.553-.523-.508-.418-.389-.419-.373-.419-.329-.209-.149-.224-.135-.239-.105-.24-.104-.254-.075-.254-.06-.284-.015h-.448l-.061.015h-.029l-.135.03-.284.09-.299.134-.134.09-.12.105-.12.119-.089.15-.075.164-.045.179-.015.225v.238l.06.269.075.299.059.164.075.195.075.209.09.224.179.478.209.509.225.537.239.568.463 1.09.225.523.209.494.105.224.089.209.09.209.075.18.075.164.059.135.06.119.045.104.029.075.016.06.015.015h-.15l-.09-.015h-.239l-.284-.015-.344-.015-.389-.03-.403-.015-.434-.029-.882-.045-.419-.031-.403-.029-.359-.015-.314-.03-.149-.015h-.12l-.105-.015-.089-.015-.329-.045-.329-.06-.299-.074-.299-.105-.269-.149-.254-.164-.225-.225-.104-.134-.09-.15-.18-.299-.089-.164-.09-.194-.119-.209-.105-.225-.254-.477-.284-.524-.299-.537-.314-.553-.329-.538-.165-.254-.075-.135-.045-.059-.029-.045-.269-.389-.269-.388-.269-.358-.285-.329-.314-.299-.164-.135-.179-.119-.195-.105-.209-.104-.21-.075-.239-.06-.239-.06h-.089l-.03-.015h-.284l-.255.03-.269.06-.239.12-.119.074-.12.09-.09.105-.09.134-.074.15-.06.164-.045.194-.015.224v.239l.015.135.015.149.03.329.06.388.059.419.06.463.075.478.075.493.179 1.001.075.493.09.478.074.449.075.418.075.388.06.329.029.15.016.134.03.119.015.09.014.09.015.06v.044l.015.015-.015.015-.015-.015-.044-.015-.06-.014-.075-.015-.09-.03-.209-.06-.269-.075-.299-.09-.344-.104-.359-.105-.374-.104-.194-.06-.045-.015-.03-.015h-.015l-.029-.03-.045-.03-.06-.045-.075-.059-.09-.075-.104-.075-.24-.179-.283-.209-.314-.239-.329-.254-.359-.269-.718-.553-.359-.284-.344-.254-.313-.254-.3-.224-.254-.194-.119-.09-.105-.075-.089-.059-.076-.06-.059-.045-.045-.045-.03-.015-.015-.015-.03-.134-.074-.314-.09-.314-.18-.672-.194-.687-.224-.687-.12-.33-.06-.164-.075-.179-.284-.762-.149-.344-.165-.343-.194-.329-.224-.284-.254-.284-.284-.239-.165-.104-.179-.105-.195-.09-.104-.045-.045-.015-.03-.014-.194-.045-.21-.03-.224-.03-.239.015-.225.045-.224.104-.104.075-.105.075-.09.104-.089.12-.075.135-.075.164-.06.179-.059.194-.03.209v.045l-.015.075-.015.164-.045.359-.015.209-.015.105v.029l-.015-.014-.03-.015-.045-.03-.074-.06-.076-.06-.104-.074-.12-.09-.119-.105-.15-.104-.164-.12-.165-.134-.373-.284-.404-.314-.434-.328-.448-.344-.942-.718-.927-.702-.434-.329-.418-.314-.374-.299-.179-.133-.165-.12-.149-.12-.135-.104-.119-.09-.105-.074-.105-.075-.059-.06-.06-.045-.045-.03h-.015v-.015l-.015-.014-.015-.09-.075-.15-.134-.299-.195-.284-.224-.268-.269-.254-.15-.12-.074-.06-.03-.014-.03-.016-.165-.074-.194-.09-.224-.06-.224-.03h-.225l-.119.016h-.015l-.015-.016-.045-.029-.045-.031-.06-.059-.089-.06-.09-.075-.12-.074-.119-.105-.135-.104-.314-.225-.344-.268-.373-.284-.419-.314-.419-.329-1.779-1.359-.434-.315-.403-.313-.389-.299-.358-.269-.315-.239-.134-.12-.135-.089-.119-.09-.105-.09-.09-.059-.074-.06-.06-.045-.03-.03-.03-.015-.015-.014-.03-.106-.074-.193-.09-.194-.105-.195-.134-.194-.15-.18-.075-.104-.089-.06-.195-.149-.209-.135-.254-.119-.135-.03-.134-.03h-.284l-.15.045h-.045l-.015-.015-.045-.03-.044-.03-.045-.045-.15-.104-.179-.15-.224-.164-.254-.194-.285-.209-.299-.225-.314-.254-.673-.508-.702-.523-.673-.522-.314-.24-.314-.239-.269-.209-.254-.194-.225-.179-.194-.135-.149-.12-.06-.044-.045-.03-.03-.03-.029-.015-.016-.015h.016v-.015l.014-.044.21-.599.179-.582.06-.299.06-.284.029-.283v-.3l-.014-.283-.06-.3-.09-.298-.134-.299-.075-.165-.015-.014-.016-.015-.029-.03-.09-.135-.119-.134-.12-.135-.149-.12-.15-.103-.179-.075-.18-.06-.209-.015-.225.015-.239.074-.119.061-.135.059-.135.09-.134.105-.134.119-.015.014h-.015v.016l-.03.015-.165.149-.179.18-.209.193-.21.21-.224.224-.239.239-.06.06-.03.045h-.015l-.03-.031-.075-.044-.104-.089-.135-.09-.164-.135-.18-.135-.209-.164-.224-.179-.254-.179-.254-.195-.539-.418-.553-.419-.553-.418-.254-.194-.254-.194-.225-.179-.224-.165-.194-.149-.18-.135-.134-.105-.12-.089-.075-.06-.059-.044v-.016l.015-.014.074-.09.15-.179.164-.21.18-.223.194-.24.209-.254.434-.552.448-.583.434-.598.404-.612.329-.509.314-.492.254-.493.119-.254.09-.254.06-.27.06-.268.015-.27v-.283l-.046-.299-.074-.314-.015-.045v-.015l-.015-.029-.03-.061-.059-.134-.165-.284-.105-.149-.12-.12-.134-.119-.149-.09-.165-.06-.194-.045h-.225l-.239.031-.254.074-.149.059-.135.076-.165.074-.179.105-.194.119-.21.12-.224.134-.239.15-.508.313-.539.344-.553.359-.538.359-.538.343-.508.329-.24.164-.224.15-.209.134-.195.135-.179.119-.165.105-.134.089-.104.075-.09.06-.075.045-.03.029v-.029l-.015-.045-.015-.074v-.106l-.015-.119-.03-.135-.015-.164-.015-.18-.059-.387-.045-.434-.06-.448-.119-.956-.046-.479-.059-.433-.03-.404-.03-.178-.015-.165-.015-.15v-.134l-.015-.105v-.089l-.015-.374.015-.358.045-.344.075-.329.059-.164.075-.15.09-.164.104-.134.12-.15.135-.135.299-.238.179-.135.194-.164.225-.165.224-.178.254-.195.254-.194.539-.434.552-.448.524-.463.269-.239.12-.119.059-.061.015-.014.03-.03.06-.06.135-.119.239-.254.478-.479z" transform="translate(204.455 548.79)"/><path d="m0 0h-136.663l-1.316 2.092-1.256 2.151h141.792l-1.241-2.151z" transform="translate(227.329 541.707)"/><path d="m0 0v-22.264h22.77l.957 1.913.897 1.957.852 1.973.792 1.987.732 2.017.704 2.032.628 2.047.583 2.061.523 2.078.479 2.091.417 2.108z" transform="translate(208.641 571.054)"/><path d="m0 0-1.076 1.494-1.031 1.539-.973 1.57-.941 1.598-.882 1.629-.822 1.644-.778 1.688-.733 1.688-.672 1.719-.629 1.748-.567 1.763-.524 1.778-.449 1.793-.403 1.793-.359 1.823-.284 1.823-.239 1.837-.18 1.838-.119 1.838-.075 1.853v1.853l.045 1.852.105 1.838.164 1.838.224 1.838.269 1.838.329 1.823.389 1.807.449 1.793.493 1.779.553 1.763.613 1.748.658 1.733.702 1.703.778 1.674.807 1.658.868 1.644.911 1.599.972 1.584 1.017 1.539 1.061 1.524 1.107 1.479 1.151 1.434 1.196 1.42 1.241 1.375 1.285 1.329 1.316 1.285 1.361 1.255 1.405 1.21 1.436 1.166 1.465 1.12 1.51 1.077 1.525 1.03 1.569.986 1.6.927 1.63.881 1.644.837 1.675.777 1.704.732 1.72.673 1.749.627 1.749.568 1.779.508 1.794.463 1.809.404 1.809.343 1.824.299 1.839.239 1.839.18 1.854.119 1.839.06 1.854.014 1.853-.045 1.839-.119 1.839-.149 1.839-.224 1.824-.269 1.824-.344 1.809-.389 1.794-.433 1.779-.508 1.765-.538 1.748-.612 1.735-.658 1.705-.717 1.673-.762 1.661-.821 1.644-.867 1.6-.912 1.569-.971 1.556-1.016 1.509-1.061 1.48-1.106 1.45-1.15 1.405-1.195 1.376-1.24 1.331-1.286 1.3-1.314 1.241-1.36 1.211-1.405 1.166-1.434z" transform="translate(93.252 562.327)"/><path d="m0 0 1.077-1.449 1.032-1.479.972-1.509.942-1.54.882-1.568.837-1.599.792-1.629.733-1.644.688-1.673.627-1.688.583-1.704.524-1.733.463-1.748.419-1.748.359-1.763.298-1.779.255-1.792.18-1.793-7.79 11.057-2.946-2.077 13.471-19.11 9.823 21.216-3.29 1.524-5.666-12.282-.194 1.808-.24 1.793-.298 1.793-.359 1.779-.404 1.777-.448 1.748-.509 1.749-.567 1.718-.614 1.718-.658 1.689-.702 1.673-.763 1.644-.807 1.628-.868 1.599-.896 1.584-.957 1.539-.986 1.524-1.047 1.479-1.077 1.464z" transform="translate(187.56 630.655)"/></g></g></svg>