<svg height="264.567" width="264.568" xmlns="http://www.w3.org/2000/svg" xmlns:xlink="http://www.w3.org/1999/xlink"><clipPath id="a"><path d="m44.87 465.63h228.24v228.241h-228.24z"/></clipPath><g clip-path="url(#a)" fill-rule="evenodd" transform="matrix(1.33333 0 0 -1.33333 -79.703 905.283)"><path d="m0 0c54.79 0 99.213 44.439 99.213 99.177 0 54.81-44.423 99.248-99.213 99.248s-99.213-44.438-99.213-99.248c0-54.738 44.423-99.177 99.213-99.177" fill="#24578e" transform="translate(158.99 480.538)"/><g fill="#fff"><path d="m0 0v-36.144l-6.517 11.293-2.77-1.594 10.881-18.839 10.881 18.839-2.769 1.594-6.517-11.293v36.144zm-50.781 4.738h-2.993l2.112 3.703zm18.461 0h-5.65l-1.566 6.583 7.44-4.92zm-11.216 18.546-.028.518-.084.517-.14.503-.182.489-.238.461-.279.433-.322.406-.378.363-.405.336-.434.279-.461.238-.49.182-.504.139-.503.084-.518.028-.531-.028-.503-.084-.504-.139-.489-.182-.462-.238-.433-.279-.406-.336-.363-.363-.336-.406-.28-.433-.237-.461-.183-.489-.139-.503-.084-.517-.028-.518.028-.517.084-.517.139-.503.183-.475.237-.475.28-.434.336-.405.363-.364.406-.321.433-.293.462-.238.489-.182.504-.139.503-.071.531-.027.518.027.503.071.504.139.49.182.461.238.434.293.405.321.378.364.322.405.279.434.238.475.182.475.14.503.084.517zm-16.49-18.462 3.217 5.59-8.349 10.818-.251.364-.21.391-.168.405-.112.419-.084.419-.028.448h-8.517v36.045h-2.419v-41.971l.027-.685.084-.671.126-.671.182-.671.224-.657.279-.657.336-.643.378-.628.433-.616.462-.6.517-.573.56-.56.601-.544.643-.518.686-.489.713-.475.755-.434.783-.419.812-.391.853-.349.866-.322.896-.293.909-.266.937-.237.951-.182.965-.168.965-.126zm28.139 25.353-10.097 9.029-.294.223-.321.182-.336.14-.363.097-.364.042-.378-.013-12.405-1.091-.405-.069-.392-.126-.364-.182-.335-.238-.294-.279-.251-.322-.197-.363-5.664-12.299-.139-.35-.084-.363-.028-.364.014-.377.069-.363.113-.349.167-.336.196-.308 8.279-10.734.252-.279.308-.252.321-.209.364-.154.364-.112.392-.042h.391l.378.07.377.112.35.168.321.209.294.265.252.294.209.336.154.349.098.377.056.378-.014.391-.056.392-.112.363-.168.349-.21.336-7.272 9.42 2.979 6.471.588-6.653-.448-.07-.21-.027-.195-.028-.182-.014-.154-.028-.154-.014-.14-.028 6.252-8.093 7.622 1.817 3.706 8.679-.42-.055-.433-.056-.434-.07-.475-.056-.476-.07-.489-.069-1.007-.141-.672 7.576 6.49-5.787-4.545-10.664-.126-.377-.071-.377-.027-.392.042-.377.098-.377.14-.364.195-.335.238-.308.28-.265.321-.224.35-.182.364-.125.377-.07.392-.028.391.042.378.097.364.14.336.196.307.238.265.279.224.322.168.349 5.315 12.467.125.349.071.378.013.377-.028.364-.084.377-.125.349-.182.336-.224.293zm2.28-2.698 1.762.21 1.371.196 1.356.237 1.357.28.657.168.671.167.658.182.643.196.644.209.628.224.63.252.616.251.601.28.587.293.574.322.559.321.545.35.532.377.517.391.504.419.476.434.461.461.448.489.419.503.405.532.378.559.35.586.335.616.308.642.14.322.07.168.014.042.014.027v.015l.014.027.168.391.168.406.392.811.209.405.223.391.252.363.266.35.28.322.308.293.321.238.182.098.182.097.182.084.195.07.196.042.209.042.21.014.225.014.224-.014.237-.028.126-.028.084-.014.182-.042.349-.084.672-.209.657-.252.657-.252.658-.251.671-.224.349-.098.084-.014.015-.014h.042l.056-.014.279-.069 1.119-.266 2.279-.531 1.133-.28 1.148-.293 1.131-.322 1.134-.335 1.105-.377 1.09-.406 1.049-.447.532-.251.503-.252.503-.266.49-.279.475-.293.477-.308.461-.322.447-.335.434-.363.406-.364.405-.391.392-.42.377-.419.364-.447.336-.461.335-.489.307-.517.281-.532.139-.265.014-.028.015-.028.013-.028.042-.07.154-.294.336-.559.378-.53.418-.504.462-.461.239-.21.251-.209.252-.182.265-.182.266-.168.28-.167.279-.14.294-.126.293-.126.308-.097.309-.098.307-.07.321-.056.322-.042.322-.028h.699l.098.014h.252l.154.014h.182l.181.014h.21l.238.014h.238l.251.014.56.028.587.014.629.028.672.028 1.357.042 1.383.056.672.028.658.013.628.028.588.029v35.304h2.406v-35.22l-.014-.965-.084-.964-.126-.951-.168-.964-.224-.937-.279-.95-.322-.922-.363-.909-.42-.909-.461-.88-.504-.867-.56-.838-.601-.825-.629-.81-.686-.783-.713-.741-.769-.726-.783-.7-.839-.67-.868-.644-.895-.6-.923-.573-.95-.531-.993-.504-1.008-.461-1.021-.433-1.062-.377-1.064-.35-1.09-.321-1.105-.266-1.119-.223-1.118-.196-1.148-.14-1.132-.111-1.147-.057-1.147-.027h-37.271l.378 2.613.028.378-.028.377-.084.377-.14.363-.182.336-.224.308-.265.279-.308.238-7.231 4.766 4.993 11.74.168.475zm25.342 7.841h.013l.042.014h.392l.308.014.349.014.364.014.364.014.336.014h.307l.126.014h.335l.839.028.84-.014.852-.056.854-.069.839-.127.825-.153.825-.196.797-.252.392-.139.391-.14.378-.168.378-.182.363-.181.35-.21.35-.224.336-.223.335-.252.322-.265.307-.28.308-.293.28-.308.28-.321.265-.35.238-.349.252-.363.265-.378.518-.783.252-.405.21-.405.195-.42.126-.405h-19.202zm39.662-93.098-.881.098-.896.084-.894.084-.896.056-.894.042-.896.042-.88.013-.896.014-.895-.014-.895-.013-.895-.042-.895-.042-.881-.056-.894-.084-.896-.084-.895-.098-.895-.111-.881-.126-.895-.139-.895-.155-.895-.167-.895-.181-.895-.197-.881-.21-.896-.223-.894-.238-.896-.237-.895-.266-.881-.28-.895-.279-.895-.307-.881-.294-1.735-.573-1.748-.503-1.734-.475-1.748-.419-1.734-.378-1.748-.322-1.735-.279-1.748-.224-1.733-.195-1.749-.126-1.734-.097-1.748-.029h-1.734l-1.749.056-1.733.099-1.749.153-1.734.195-1.748.238-1.734.293-1.749.35-1.734.378-1.748.433-1.734.489-1.748.531-1.735.573-.111.028-.056.028-.028.014h-.015l-.055.013-1.119.378-1.119.364-1.119.334-1.105.308-1.118.294-1.119.279-1.119.238-1.105.238-1.119.21-1.119.182-1.118.167-1.105.154-1.12.125-1.118.098-1.119.083-1.119.071-1.118.042-1.105.013h-.951l-1.385-.013-1.37-.056-1.371-.099-1.371-.111-1.384-.153-1.371-.182-1.37-.223-1.371-.239-1.37-.279-1.385-.308-1.371 1.203-1.342 1.23-1.315 1.258.923.251.923.252.923.223.923.224.938.195.922.197.924.167.923.168.923.154.922.125.923.126.924.112.922.098.924.083.937.056.923.056.922.042.924.042.923.014h.839l1.385-.028 1.384-.042 1.384-.084 1.385-.112 1.385-.14 1.398-.167 1.385-.209 1.384-.224 1.385-.266 1.384-.294 1.399-.321 1.385-.35 1.384-.377 1.385-.418 1.384-.448.7-.223.349-.126.084-.029.042-.013.07-.029.251-.084 1.036-.348 1.035-.323 1.034-.306 1.036-.294 1.034-.279 1.035-.252 1.035-.238 1.035-.223 1.035-.197 1.035-.181 1.035-.167 1.035-.155 1.035-.126 1.035-.111 1.034-.084 1.035-.084 1.021-.055 1.036-.042 1.034-.014 1.035-.015 1.035.015 1.035.042 1.035.042 1.035.069 1.035.084 1.035.111 1.034.113 1.035.139 1.036.168 1.035.168 1.034.196 1.035.21 1.035.237 1.034.252 1.022.266 1.035.279 1.035.293 1.034.321 1.035.336.518.182.266.084.223.084.924.307.923.308.923.279.936.266.923.264.924.239.923.237.923.224.923.196.922.195.923.182.924.153.937.155.923.139.923.126.923.111.923.098.923.084.923.07.924.056.936.042.923.028.923.014.924.014.922-.014.923-.028.923-.028.924-.056.923-.07.936-.07.923-.083.924-.112.923-.112.923-.14.923-.14.922-.153-1.356-1.37-1.398-1.342zm8.181 8.47-1.454.364-1.44.322-1.455.278-1.441.252-1.454.21-1.44.182-1.455.139-1.441.113-1.454.069-1.454.042h-1.441l-1.454-.028-1.441-.07-1.455-.097-1.439-.141-1.455-.182-1.454-.209-1.441-.238-1.455-.279-1.44-.307-1.455-.349-1.44-.392-1.455-.42-1.454-.461-1.441-.489-1.413-.461-1.412-.447-1.412-.406-1.413-.377-1.412-.349-1.413-.322-1.412-.28-1.412-.251-1.413-.223-1.413-.197-1.413-.153-1.412-.126-1.413-.098-1.412-.07-1.412-.042h-1.413l-1.412.028-1.413.056-1.412.098-1.413.126-1.413.154-1.412.182-1.413.21-1.412.251-1.413.279-1.412.307-1.413.336-1.412.377-1.413.406-1.412.433-1.413.461-.363.126-.084.028-.042.014h-.014l-.07.028-.308.112-.602.195-1.202.392-1.217.363-1.203.336-1.202.308-1.203.292-1.217.266-1.203.237-1.202.21-1.217.196-1.203.168-1.203.139-1.216.126-1.203.084-1.203.07-1.216.056-1.203.014h-1.147l-1.119-.028-1.105-.042-1.118-.07-1.119-.084-1.119-.112-1.105-.125-1.119-.154-1.119-.167-1.104-.197-1.119-.209-1.119-.223-1.105-.266-1.119-.265-1.119-.294-1.104-.322-1.12-.336-1.104-.363-.56-.182-.279-.097-.14-.042-.028-.014h-.014l-.014-.014-.112-.042-.224-.07-.88-.293-1.623 1.872-1.566 1.929 1.286.405 1.287.434.322.112.265.084.518.167 1.034.35 1.021.321 1.036.294 1.034.293 1.021.266 1.035.265 1.035.238 1.021.223 1.035.196 1.035.196 1.021.168 1.035.153 1.021.14 1.035.126 1.034.097 1.021.098 1.036.07 1.034.056 1.021.042 1.035.015h.503l.266.013h.21l1.553-.028 1.538-.056 1.538-.097 1.553-.14 1.538-.168 1.553-.21 1.538-.251 1.539-.279 1.552-.323 1.538-.363 1.553-.391 1.538-.433 1.552-.476 1.553-.503.377-.126.056-.027.056-.015.14-.055.294-.098 1.146-.378 1.147-.363 1.161-.335 1.147-.308 1.147-.294 1.161-.264 1.146-.252 1.161-.224 1.147-.196 1.147-.182 1.16-.167 1.147-.126 1.147-.112 1.16-.098 1.147-.069 1.147-.042 1.161-.028h1.147l1.147.028 1.161.042 1.146.056 1.161.097 1.147.098 1.147.14 1.16.154 1.147.182 1.147.195 1.16.224 1.148.238 1.146.264 1.162.294 1.146.308 1.161.335 1.147.35 1.146.378.573.195.533.181 1.02.335 1.035.336 1.035.308 1.021.293 1.035.28 1.035.251 1.021.252 1.035.224 1.02.21 1.036.195 1.035.168 1.02.167 1.035.14 1.036.126 1.02.112 1.035.098 1.035.07 1.021.056 1.035.055 1.035.029h2.056l1.02-.029 1.036-.042 1.035-.055 1.02-.071 1.035-.084 1.035-.111 1.021-.112 1.035-.14 1.035-.167 1.021-.168 1.035-.182 1.02-.21 1.036-.223 1.035-.237 1.02-.252 1.035-.28 1.036-.279-1.511-1.985z" transform="translate(177.856 576.963)"/><path d="m0 0-.028.517-.084.517-.14.504-.182.475-.237.461-.28.447-.336.406-.363.363-.406.321-.434.294-.461.237-.489.182-.504.126-.504.084-.531.028-.517-.028-.504-.084-.503-.126-.49-.182-.461-.237-.434-.294-.405-.321-.378-.363-.322-.406-.28-.447-.237-.461-.196-.475-.126-.504-.084-.517-.028-.517.028-.517.084-.517.126-.504.196-.488.237-.462.28-.433.322-.405.378-.364.405-.335.434-.28.461-.237.49-.182.503-.14.504-.083.517-.029.531.029.504.083.504.14.489.182.461.237.434.28.406.335.363.364.336.405.28.433.237.462.182.488.14.504.084.517z" transform="translate(131.97 623.28)"/></g></g></svg>