<svg height="264.567" width="264.568" xmlns="http://www.w3.org/2000/svg" xmlns:xlink="http://www.w3.org/1999/xlink"><clipPath id="a"><path d="m44.87 477.731h228.24v228.24h-228.24z"/></clipPath><g clip-path="url(#a)" fill-rule="evenodd" transform="matrix(1.33333 0 0 -1.33333 -79.703 921.417)"><path d="m0 0c54.79 0 99.213 44.438 99.213 99.177 0 54.81-44.423 99.248-99.213 99.248s-99.213-44.438-99.213-99.248c0-54.739 44.423-99.177 99.213-99.177" fill="#24578e" transform="translate(158.99 492.638)"/><g fill="#fff"><path d="m0 0-4.38 24.869-.452-.478-.478-.451-.494-.398-.519-.369-.534-.314-.562-.274-.56-.219-.589-.177-.603-.138-.602-.081-.615-.028-.603.014-.616.068-.615.109-.617.165-.602.205-.603.26-.575.301 4.381-24.87.109-.493.164-.492.205-.465.261-.437.287-.425.342-.383.37-.342.397-.315.438-.273.451-.233.48-.178.492-.136.507-.082.507-.041.506.013.506.069.494.109.493.164.465.205.438.261.41.287.397.342.342.369.315.397.273.438.234.451.177.479.137.492.082.506.042.507-.014.506zm-33.207 23.064-4.381-24.87-.109-.493-.165-.492-.205-.465-.26-.437-.287-.425-.342-.383-.37-.342-.397-.315-.438-.273-.452-.233-.479-.178-.492-.136-.507-.082-.506-.041-.507.013-.507.069-.492.109-.493.164-.465.205-.438.261-.411.287-.397.342-.342.369-.315.397-.274.438-.233.451-.177.479-.137.492-.082.506-.042.507.014.506.068.506 4.381 24.869.452-.478.465-.451.506-.398.521-.369.534-.314.561-.274.561-.219.588-.177.603-.138.602-.081.616-.028.602.014.616.068.616.109.616.165.602.205.602.26zm53.015 54.924-6.489 17.812-7.583-4.83 5.817-15.992zm2.792-7.674.137-.451.082-.452.041-.452v-.465l-.055-.451-.109-.452-.151-.424-.192-.424-.233-.396-.287-.37-.301-.328-.356-.301-.369-.26-.411-.232-.424-.178-.439-.137-.451-.083-.452-.04-.465.014-.452.055-.451.095-.425.151-.425.191-.396.246-.357.274-.341.314-.301.343-.261.383-.232.396-.178.424zm-83.745 25.486-6.489-17.812 8.255-3.01 5.817 15.992zm-9.281-25.486-.136-.451-.083-.452-.041-.452v-.465l.055-.451.11-.452.15-.424.192-.424.232-.396.288-.37.301-.328.356-.301.369-.26.411-.232.424-.178.438-.137.452-.083.452-.04.465.014.452.055.452.095.424.151.424.191.397.246.356.274.343.314.301.343.26.383.232.396.178.424zm18.89 23.844 15.961 15.964v-40.616l-4.298-24.418.588.301.589.261.602.204.616.165.616.109.616.069.616.013.602-.027.602-.082.603-.137.588-.179.575-.218.548-.274.547-.314.507-.369.506-.397.466-.452.451-.479 3.245 18.386.082.342.136.328.165.301.219.274.26.246.274.206.315.177.328.11.342.082.356.013.356-.013.342-.082.329-.11.314-.177.274-.206.26-.246.219-.274.165-.301.137-.328.082-.342 3.244-18.386.452.479.465.452.507.397.506.369.547.314.548.274.574.218.589.179.603.137.602.082.602.027.616-.013.616-.069.617-.109.615-.165.602-.204.589-.261.589-.301-4.299 24.418v40.616l15.961-15.964 7.583 4.829-19.191 19.179-.315.3-.341.247-.37.233-.397.177-.398.151-.423.095-.424.069-.425.014h-25.844l-.424-.014-.424-.069-.425-.095-.397-.151-.397-.177-.369-.233-.343-.247-.314-.3-19.191-19.179zm-4.626 11.34 14.441 14.46.451.397.479.368.506.329.535.274.561.232.575.178.588.137.589.081.602.028h25.844l.603-.028.587-.081.589-.137.575-.178.561-.232.534-.274.507-.329.479-.368.452-.397 14.44-14.46.645-.123.656-.177.643-.219.63-.26.629-.315.616-.343.589-.396.589-.438.561-.465.534-.506.506-.534.479-.574.452-.602.424-.616.384-.642.356-.657.301-.684.274-.684.232-.698.192-.711.15-.712.097-.711.068-.697.014-.698-.028-.698-.068-.67-.124-.657-.15-.643 4.188-11.518.233.055.247.014.246-.028.233-.082.219-.137.177-.164.151-.192.109-.219 1.931-5.307.068-.246.014-.246-.041-.247-.082-.232-.123-.205-.165-.192-.205-.151-.219-.095.178-.589.136-.588.082-.588.028-.602-.028-.602-.082-.602-.136-.588-.178-.574-.233-.561-.273-.534-.329-.506-.369-.479-.398-.438-.451-.41-.479-.369-.507-.328-.533-.274-.562-.233-.575-.178-.589-.137-.588-.082-.602-.013-.603.013-.602.082-.588.137-.575.178-.562.233-.533.274-.507.328-.48.369-.437.41-.411.438-.369.479-.328.506-.275.534-.232.561-.233-.07-.246-.012-.247.041-.232.082-.219.123-.179.164-.15.205-.109.219-1.93 5.308-.056.246-.013.246.028.246.082.233.122.205.165.191.205.137.22.109-4.737 13.024-.534.437-.493.466-.492.506-.452.52-.438.548-.397.56-.383.588-.343.616-.314.629-.274.629-.246.644-.22.656-.164.656-9.431 9.439v-34.308l4.777-27.155.466-.56.424-.603.397-.628.369-.671.329-.684.301-.698.274-.725.218-.738.193-.753.164-.766.109-.766.082-.78.028-.766v-.779l-.041-.767-.082-.752-.11-.752-.164-.726-.191-.71-.234-.685 4.901-27.824.083-.63.041-.643-.029-.629-.068-.643-.123-.615-.178-.616-.232-.602-.274-.574-.315-.547-.369-.521-.411-.492-.438-.465-.493-.41-.507-.37-.548-.342-.574-.287-.589-.232-.616-.193-.616-.136-.629-.082-.644-.028-.628.015-.644.082-.616.123-.616.178-.603.218-.574.274-.548.328-.521.369-.492.397-.452.452-.425.478-.369.521-.328.547-.288.574-.246.588-.178.616-.138.615-4.913 27.824-.452.562-.425.601-.396.63-.369.67-.329.685-.301.697-.275.725-.232.739-.191.752-.151.766-.109.766-.082.78-.041.766v.779l.041.767.082.752.123.753.164.724.191.712.234.684-3.765 21.341-3.765-21.341.233-.684.192-.712.164-.724.123-.753.082-.752.042-.767v-.779l-.042-.766-.082-.78-.109-.766-.15-.766-.192-.752-.233-.739-.274-.725-.301-.697-.329-.685-.369-.67-.397-.63-.424-.601-.452-.562-4.914-27.824-.137-.615-.178-.616-.246-.588-.288-.574-.328-.547-.37-.521-.424-.478-.452-.452-.493-.397-.52-.369-.547-.328-.575-.274-.602-.218-.616-.178-.616-.123-.644-.082-.629-.015-.644.028-.629.082-.616.136-.616.193-.589.232-.575.287-.548.342-.506.37-.493.41-.438.465-.41.492-.37.521-.315.547-.274.574-.232.602-.178.616-.123.615-.069.643-.027.629.041.643.082.63 4.9 27.824-.233.685-.191.71-.164.726-.11.752-.082.752-.041.767v.779l.027.766.083.78.109.766.164.766.192.753.219.738.274.725.301.698.328.684.37.671.397.628.424.603.466.56 4.777 27.155v34.308l-9.431-9.439-.164-.656-.22-.656-.246-.644-.274-.629-.314-.629-.343-.616-.383-.588-.397-.56-.438-.548-.452-.52-.493-.506-.493-.466-.533-.437-4.736-13.024.219-.109.205-.137.164-.191.123-.205.083-.233.027-.246-.013-.246-.055-.246-1.93-5.308-.11-.219-.151-.205-.177-.164-.22-.123-.232-.082-.246-.041-.247.012-.232.07-.233-.561-.288-.534-.315-.506-.369-.479-.411-.438-.438-.41-.479-.369-.506-.328-.534-.274-.561-.233-.575-.178-.589-.137-.602-.082-.602-.013-.603.013-.588.082-.589.137-.575.178-.561.233-.534.274-.507.328-.479.369-.451.41-.397.438-.37.479-.328.506-.274.534-.233.561-.177.574-.138.588-.082.602-.027.602.027.602.082.588.138.588.177.589-.219.095-.205.151-.165.192-.123.205-.082.232-.041.247.014.246.068.246 1.93 5.307.11.219.15.192.179.164.218.137.233.082.247.028.246-.014.232-.055 4.189 11.518-.15.643-.124.657-.068.67-.027.698.013.698.069.697.096.711.15.712.192.711.232.698.274.684.301.684.356.657.384.642.424.616.451.602.479.574.507.534.534.506.561.465.589.438.588.396.617.343.629.315.63.26.643.219.657.177z" transform="translate(182.903 521.585)"/><path d="m0 0-.353-.75-.41-.72-.453-.693-.509-.664-.537-.622-.58-.594-.623-.551-.651-.509-.692-.453-.708-.424-.749-.367-.765-.311-.777-.269-.807-.226-.805-.155-.821-.113-.835-.057h-.82l-.835.057-.82.113-.806.155-.807.226-.777.269-.765.311-.734.367-.723.424-.678.453-.665.509-.622.551-.581.594-.537.622-.495.664-.467.693-.396.72-.368.75h2.829l.382-.608.439-.579.466-.552.51-.509.537-.466.58-.438.608-.396.623-.34.65-.296.68-.255.692-.212.708-.155.707-.099.721-.057h.722l.707.057.722.099.692.155.694.212.678.255.651.296.637.34.608.396.565.438.552.466.495.509.482.552.424.579.381.608zm2.023 2.12.156.848.099.863.056.862v.862l-.056.877-.113.848-.17.862-.212.834-.269.82-.325.806-.368.777-.424.764-.467.734-.51.693-.551.665-.594.636-.637.593-.665.552-.706.508-.723.453-.762.424-.793.367-.806.312-.82.268-.835.226-.849.156-.863.113-.862.056h-.863l-.878-.056-.848-.113-.863-.156-.835-.226-.82-.268-.806-.312-.792-.367-.75-.424-.736-.453-.706-.508-.665-.552-.637-.593-.594-.636-.552-.665-.509-.693-.467-.734-.41-.764-.382-.777-.311-.806-.269-.82-.226-.834-.156-.862-.113-.848-.057-.877-.014-.862.057-.862.099-.863.17-.848h3.904l-.184.665-.141.678-.085.693-.043.693.014.692.056.693.1.678.155.679.199.664.24.65.283.622.325.622.368.58 1.499.254 1.5.212 1.513.156 1.514.113 1.513.042h1.528l1.513-.042 1.514-.113 1.513-.156 1.5-.212 1.499-.254.368-.58.325-.622.297-.622.24-.65.185-.664.155-.679.1-.678.055-.693.015-.692-.043-.693-.085-.693-.14-.678-.17-.665z" transform="translate(170.475 654.267)"/></g></g></svg>