<svg clip-rule="evenodd" fill-rule="evenodd" height="265" stroke-miterlimit="10" width="265" xmlns="http://www.w3.org/2000/svg"><path d="m0 132.5c0-73.175 59.319-132.5 132.496-132.5 73.185 0 132.504 59.324 132.504 132.5 0 73.183-59.319 132.5-132.504 132.5-73.177.001-132.496-59.317-132.496-132.5" fill="#005387" fill-rule="nonzero"/><g fill="none" stroke="#fff"><path d="m62.823 108.669v-47.455h145.902v19.384" stroke-width="17"/><path d="m62.823 205.137h145.902v-50.068" stroke-linecap="square" stroke-width="17"/><path d="m62.823 108.669v96.468" stroke-linecap="square" stroke-width="6"/></g><path d="m125.32 117.191-17.519-24.353 28.284-10z" fill="#fff"/><path d="m214.544 98.316c-38.633-14.778-29.918 16.038-88.422.263" fill="none" stroke="#fff" stroke-linecap="square" stroke-width="8"/><path d="m230.592 103.372 15.244 25.838-29.073 7.4z" fill="#fff"/><path d="m140.091 122.925c35.953 11.999 32.878-21.064 88.018-1.09" fill="none" stroke="#fff" stroke-linecap="square" stroke-width="8"/></svg>