<?xml version="1.0" encoding="UTF-8" standalone="no"?>
<svg
   height="240"
   viewBox="0 0 50.799998 63.500002"
   width="192"
   version="1.1"
   id="svg6"
   sodipodi:docname="AI.svg"
   inkscape:version="1.3.2 (091e20e, 2023-11-25, custom)"
   xmlns:inkscape="http://www.inkscape.org/namespaces/inkscape"
   xmlns:sodipodi="http://sodipodi.sourceforge.net/DTD/sodipodi-0.dtd"
   xmlns="http://www.w3.org/2000/svg"
   xmlns:svg="http://www.w3.org/2000/svg">
  <defs
     id="defs6" />
  <sodipodi:namedview
     id="namedview6"
     pagecolor="#ffffff"
     bordercolor="#000000"
     borderopacity="0.25"
     inkscape:showpageshadow="2"
     inkscape:pageopacity="0.0"
     inkscape:pagecheckerboard="0"
     inkscape:deskcolor="#d1d1d1"
     inkscape:zoom="3.324"
     inkscape:cx="96.119134"
     inkscape:cy="119.88568"
     inkscape:window-width="1920"
     inkscape:window-height="1009"
     inkscape:window-x="1912"
     inkscape:window-y="-8"
     inkscape:window-maximized="1"
     inkscape:current-layer="svg6" />
  <g
     transform="translate(-1.0583333,-232.17707)"
     id="g6">
    <path
       d="m 1.0583333,232.17707 c 0,33.29588 3.8608765,44.76863 11.5897437,52.49754 4.609612,4.57608 6.65299,6.29802 13.810255,11.00246 7.157274,-4.70444 9.200649,-6.42638 13.810261,-11.00246 7.728868,-7.72891 11.58974,-19.20166 11.58974,-52.49754 -5.621656,2.40694 -8.825192,3.57385 -13.461006,3.50245 -4.14698,-0.0638 -8.540908,-1.9898 -11.938995,-3.50245 -3.398085,1.51265 -7.792001,3.43857 -11.938987,3.50245 -4.6358187,0.0714 -7.8393567,-1.09551 -13.4610117,-3.50245 z"
       fill="#ffffff"
       stroke-width="0.381233"
       id="path1" />
    <g
       transform="matrix(0.77356547,0,0,0.73749905,-182.3757,184.68477)"
       id="g5">
      <circle
         cx="15.07813"
         cy="-30.97657"
         fill="#ffffff"
         r="0"
         id="circle1" />
      <g
         id="g2">
        <path
           d="m 271,87 c 1.543,3.6293 6.49,7.637 7.85,9.6011 -1.731,1.964 -2.077,1.7501 -1.85,5.3989 3.01,-3.1493 3.064,-3.4776 5,-3 4.241,4.232 0.759,13.321 -2.746,15.297 -3.504,2.108 -2.868,-0.073 -8.12,2.569 2.408,2.059 5.198,-0.302 7.478,0.329 1.239,1.47 -0.589,4.149 0.374,6.672 2.015,-0.194 1.773,-4.262 2.242,-5.737 1.472,-5.404 10.322,-9.173 10.772,-14.13 1.866,-0.876 3.731,-0.274 6,1 -1.13,-4.644 -4.868,-4.594 -5.87,-6.0444 -2.385,-3.6446 -4.499,-7.8024 -9.593,-8.881 -3.867,-0.8188 -3.578,0.2463 -6.056,-1.444 C 274.938,87.4292 270.25,85.1572 271,87 Z"
           fill="#ff9900"
           id="path2" />
        <circle
           cx="281.31705"
           cy="91.127861"
           fill="#ffffff"
           r="0.805969"
           id="circle2" />
      </g>
      <g
         transform="matrix(-0.46715699,-0.884169,0.88416899,-0.467157,308.31179,382.6492)"
         id="g3">
        <path
           d="m 271,87 c 1.543,3.6293 6.49,7.637 7.85,9.6011 -1.731,1.964 -2.077,1.7501 -1.85,5.3989 3.01,-3.1493 3.064,-3.4776 5,-3 4.241,4.232 0.759,13.321 -2.746,15.297 -3.504,2.108 -2.868,-0.073 -8.12,2.569 2.408,2.059 5.198,-0.302 7.478,0.329 1.239,1.47 -0.589,4.149 0.374,6.672 2.015,-0.194 1.773,-4.262 2.242,-5.737 1.472,-5.404 10.322,-9.173 10.772,-14.13 1.866,-0.876 3.731,-0.274 6,1 -1.13,-4.644 -4.868,-4.594 -5.87,-6.0444 -2.385,-3.6446 -4.499,-7.8024 -9.593,-8.881 -3.867,-0.8188 -3.578,0.2463 -6.056,-1.444 C 274.938,87.4292 270.25,85.1572 271,87 Z"
           fill="#ff9900"
           id="path3" />
        <circle
           cx="281.31705"
           cy="91.127861"
           fill="#ffffff"
           r="0.805969"
           id="circle3" />
      </g>
      <g
         transform="matrix(-0.51503599,0.857166,-0.85716599,-0.51503599,492.99828,-82.935809)"
         id="g4">
        <path
           d="m 271,87 c 1.543,3.6293 6.49,7.637 7.85,9.6011 -1.731,1.964 -2.077,1.7501 -1.85,5.3989 3.01,-3.1493 3.064,-3.4776 5,-3 4.241,4.232 0.759,13.321 -2.746,15.297 -3.504,2.108 -2.868,-0.073 -8.12,2.569 2.408,2.059 5.198,-0.302 7.478,0.329 1.239,1.47 -0.589,4.149 0.374,6.672 2.015,-0.194 1.773,-4.262 2.242,-5.737 1.472,-5.404 10.322,-9.173 10.772,-14.13 1.866,-0.876 3.731,-0.274 6,1 -1.13,-4.644 -4.868,-4.594 -5.87,-6.0444 -2.385,-3.6446 -4.499,-7.8024 -9.593,-8.881 -3.867,-0.8188 -3.578,0.2463 -6.056,-1.444 C 274.938,87.4292 270.25,85.1572 271,87 Z"
           fill="#ff9900"
           id="path4" />
        <circle
           cx="281.31705"
           cy="91.127861"
           fill="#ffffff"
           r="0.805969"
           id="circle4" />
      </g>
    </g>
    <path
       d="m 7.4300387,277.60944 c 1.4814946,2.81218 3.2195483,5.06645 5.2182843,7.0652 4.609613,4.57608 6.652744,6.29799 13.810009,11.00243 7.157275,-4.70444 9.200914,-6.42635 13.810527,-11.00243 1.998701,-1.99871 3.73629,-4.25309 5.21777,-7.0652 z"
       fill="#99ccff"
       stroke-width="0.381233"
       id="path5" />
  </g>
</svg>
