<?xml version="1.0" encoding="UTF-8" standalone="no"?>
<svg
   width="317.90735"
   height="324.59918"
   version="1.1"
   id="svg71"
   sodipodi:docname="AS.svg"
   inkscape:version="1.3.2 (091e20e, 2023-11-25, custom)"
   xmlns:inkscape="http://www.inkscape.org/namespaces/inkscape"
   xmlns:sodipodi="http://sodipodi.sourceforge.net/DTD/sodipodi-0.dtd"
   xmlns="http://www.w3.org/2000/svg"
   xmlns:svg="http://www.w3.org/2000/svg">
  <defs
     id="defs71" />
  <sodipodi:namedview
     id="namedview71"
     pagecolor="#ffffff"
     bordercolor="#000000"
     borderopacity="0.25"
     inkscape:showpageshadow="2"
     inkscape:pageopacity="0.0"
     inkscape:pagecheckerboard="0"
     inkscape:deskcolor="#d1d1d1"
     inkscape:zoom="1.139"
     inkscape:cx="-165.49605"
     inkscape:cy="174.27568"
     inkscape:window-width="1920"
     inkscape:window-height="1009"
     inkscape:window-x="1912"
     inkscape:window-y="-8"
     inkscape:window-maximized="1"
     inkscape:current-layer="g71" />
  <g
     id="g71"
     transform="translate(-665.361,-75.921)">
    <path
       d="m 766.471,277.926 c 6.665,0.512 6.437,7.12 6.437,7.12 l 23.602,0.526 c 3.019,-8.229 6.152,-7.276 11.886,-3.212 5.448,3.861 11.393,5.585 11.393,5.585 2.279,-11.81 19.026,-9.422 19.026,-9.422 7.14,-17.054 7.747,-16.827 3.494,-18.987 -4.253,-2.16 -5.988,-5.814 -5.988,-5.814 -4.037,-4.873 -6.164,-11.922 -6.62,-16.246 -0.456,-4.324 -5.469,2.164 -6.38,0.799 -0.911,-1.364 -8.355,-0.568 -8.355,-0.568 1.823,1.933 -4.405,0.796 -4.405,0.796 0.608,0.455 0,2.274 0,2.274 -0.608,-0.796 -5.317,-1.592 -5.317,-1.592 -0.456,1.023 -1.519,2.16 -1.519,2.16 -2.582,-1.137 -7.747,-0.91 -7.747,-0.91 -7.595,-0.114 -12.152,2.274 -14.279,3.525 -2.127,1.251 -9.722,5.116 -15.95,11.142 -6.228,6.026 -9.722,5.344 -9.722,5.344 -1.823,6.708 -16.709,14.894 -16.709,14.894 -2.43,2.16 -9.874,3.183 -13.671,0 -3.797,-3.183 0,-8.868 0,-8.868 1.405,-2.658 2.798,-2.548 2.953,-11.77 0.105,-6.236 6.542,-11.182 13.149,-18.43 8.078,-8.861 19.368,-23.449 19.368,-23.449 0.057,4.477 2.506,5.202 2.506,5.202 2.222,-4.562 5.412,-8.229 5.412,-8.229 0.171,0.384 0.627,0.64 0.627,0.64 2.506,-3.411 4.044,-4.775 4.044,-4.775 -0.854,-0.341 -7.861,0 -14.412,5.713 -6.551,5.713 -11.051,3.795 -11.051,3.795 -4.557,-1.45 -4.956,-4.946 -4.956,-4.946 -3.327,-14.317 9.741,-24.558 9.741,-24.558 -17.545,-4.178 -4.899,-26.434 16.861,-35.899 21.76,-9.465 21.532,-13.729 21.532,-13.729 1.253,1.45 2.279,4.008 2.279,4.008 0.228,-0.171 1.823,-2.558 14.355,-8.101 12.532,-5.543 18.57,-10.318 18.57,-10.318 1.595,3.07 1.253,5.287 1.253,5.287 34.292,-12.023 68.072,-39.608 68.072,-39.608 0.968,2.302 0.456,5.798 0.456,5.798 5.582,-5.159 25.748,-17.182 25.748,-17.182 0.342,7.674 -5.981,10.616 -5.981,10.616 0.684,1.109 1.082,3.112 1.082,3.112 3.304,-1.791 18.684,-12.535 18.684,-12.535 5.639,4.86 0.513,12.833 0.513,12.833 1.994,-0.298 3.475,-2.046 3.475,-2.046 1.424,8.271 -7.747,15.562 -7.747,15.562 1.595,0.043 4.272,-1.535 4.272,-1.535 -1.709,9.039 -18.855,19.058 -18.855,19.058 2.506,2.217 0.114,5.159 -1.937,6.481 -2.051,1.322 -5.696,4.221 -4.557,5.415 1.139,1.194 8.716,-4.136 8.716,-4.136 1.31,3.795 -8.431,11.256 -8.431,11.256 6.779,0.895 25.634,-7.674 25.634,-7.674 -1.538,7.291 -8.659,12.961 -17.431,16.244 -8.773,3.283 -8.317,3.795 -8.317,3.795 1.538,1.236 13.671,-2.302 13.671,-2.302 -3.646,8.143 -16.292,13.729 -16.292,13.729 3.475,2.942 8.203,-0.469 12.931,-3.709 4.728,-3.24 11.165,-6.012 18.285,-8.399 7.121,-2.388 12.133,-0.597 12.133,-0.597 5.924,-1.876 10.937,0.767 10.937,0.767 11.393,0.938 12.532,5.074 12.532,5.074 1.253,0.298 2.222,0.81 5.127,2.942 2.905,2.132 2.734,8.74 2.62,11.981 -0.114,3.24 -1.025,3.24 -1.595,4.136 -0.57,0.896 -0.627,1.919 -0.627,3.155 0,1.236 -2.848,8.911 -20.45,8.996 -17.602,0.085 -26.678,0 -26.678,0 -1.453,0 -3.19,0.853 -3.19,0.853 -7.405,3.667 -3.494,-2.501 -12.304,4.747 -8.81,7.248 -13.292,5.997 -13.292,5.997 -1.443,1.734 -10.671,10.318 -15.95,13.729 -5.279,3.411 -4.329,3.098 0.266,5.088 4.595,1.99 11.545,0 11.545,0 -4.443,2.956 -1.367,4.32 -1.367,4.32 5.848,-3.553 9.38,-2.245 9.38,-2.245 1.861,5.088 -4.823,13.132 -4.823,13.132 2.582,0.341 7.443,0 7.443,0 -1.177,3.439 -6.038,7.22 -9.608,8.385 -3.57,1.165 -2.924,1.62 -1.861,3.78 1.063,2.16 0.152,4.349 0.152,4.349 -6.228,-4.32 -6.456,-0.455 -6.456,-0.455 -0.719,5.12 -0.608,12.45 -0.608,12.45 -4.405,-2.217 -4.633,0.739 -4.633,0.739 -1.139,4.661 -6.532,10.062 -6.532,10.062 -0.228,-2.899 -2.886,-3.638 -2.886,-3.638 -2.81,5.4 -7.975,8.641 -7.975,8.641 -0.684,4.661 0.608,11.199 0.608,11.199 -3.342,-0.682 -4.557,-0.625 -5.089,0.171 -0.532,0.796 0.76,1.194 0.76,1.194 l 43.521,1.08 c 0.608,0.057 3.19,0.341 3.266,5.059 0.076,4.718 -3.798,4.946 -3.798,4.946 l -47.622,-1.137 c 0,0 0.228,1.307 -2.279,2.615 -2.507,1.308 -1.671,-1.478 -2.355,4.377 -0.684,5.855 -10.178,-0.455 -10.178,-0.455 -1.519,2.274 -5.241,5.23 -5.241,5.23 -2.127,-6.424 -4.329,-8.413 -7.747,-2.842 -3.418,5.571 6.152,4.605 6.152,4.605 0,0 55.901,-8.243 58.939,-8.527 3.038,-0.284 6.38,-0.114 7.747,4.15 1.367,4.264 -6.76,4.946 -6.76,4.946 l -57.344,6.253 c -1.215,3.411 -6,3.127 -6,3.127 0.38,3.24 -3.038,5.287 -4.785,6.481 -1.747,1.194 -7.215,0.625 -7.215,0.625 -6.684,4.548 -9.95,0.966 -9.95,0.966 -4.329,1.876 -7.064,1.08 -10.633,-0.455 -3.57,-1.535 -3.266,-5.855 -3.266,-5.855 l -36.191,3.752 c -1.709,0.597 -2.886,1.734 -2.886,1.734 1.291,1.649 -2.592,5.479 -2.592,5.479 1.082,0.746 3.161,2.835 3.446,7.355 0.301,4.781 -5.839,5.585 -2.763,8.911 3.076,3.326 8.687,0.576 14.953,-2.43 6.266,-3.006 12.418,-2.622 15.095,-2.601 2.677,0.021 10.14,1.897 14.782,3.539 4.643,1.641 6.238,0.661 6.551,-1.727 0.313,-2.388 2.393,-3.07 2.393,-3.07 -0.57,2.345 0.684,3.39 0.684,3.39 1.794,0.128 4.927,-1.62 4.927,-1.62 -0.285,1.727 -2.563,2.814 -2.563,2.814 -4.557,3.048 1.709,1.919 1.709,1.919 12.475,-2.558 16.918,-2.302 20.165,-1.961 3.247,0.341 18.57,6.864 18.57,6.864 0.57,-1.535 0.171,-5.329 0.171,-5.329 3.931,1.066 5.526,3.326 5.526,3.326 1.481,-1.62 0.513,-4.349 0.513,-4.349 12.646,7.077 -2.62,10.275 -6.665,11.639 -4.044,1.364 -3.987,3.027 -3.987,3.027 3.361,-1.066 5.696,-1.45 8.488,-1.663 2.791,-0.213 1.823,-0.043 8.488,-1.364 6.665,-1.322 10.083,1.492 10.083,1.492 -5.582,0.298 -7.234,1.961 -7.234,1.961 3.532,2.43 0.171,4.477 0.171,4.477 -5.07,-6.395 -9.399,0.256 -9.399,0.256 1.737,-0.256 6.836,0.81 8.288,1.727 1.124,0.709 3.76,2.004 7.035,3.517 4.625,2.137 3.76,0.767 7.348,2.132 3.588,1.365 2.222,4.818 2.222,4.818 -1.538,-2.814 -4.842,-3.795 -4.842,-3.795 -0.285,3.795 -4.101,4.434 -4.101,4.434 4.671,-5.202 -5.412,-7.461 -10.14,-7.376 -4.728,0.085 -8.26,3.112 -8.26,3.112 9.513,8.911 16.121,6.012 16.121,6.012 -1.196,3.24 -9.057,1.961 -9.057,1.961 3.646,2.771 3.247,4.733 3.247,4.733 -1.937,-1.876 -5.127,-0.938 -11.962,-5.372 -6.835,-4.434 -12.931,-2.984 -12.931,-2.984 6.665,7.12 -2.449,11.341 -2.449,11.341 -3.361,1.919 1.424,4.519 1.424,4.519 -4.215,0.767 -4.785,-3.453 -4.785,-3.453 -2.222,-0.426 -5.412,2.26 -5.412,2.26 0.228,-4.349 5.924,-2.174 6.095,-6.694 0.171,-4.52 -5.298,-8.015 -21.419,-5.798 -16.121,2.217 -20.849,-2.942 -20.849,-2.942 -1.367,0.043 -1.652,1.407 -1.652,1.407 2.677,2.558 3.874,3.624 3.418,5.415 -0.456,1.791 0.854,2.388 0.854,2.388 -2.962,-0.171 -3.19,-3.709 -3.19,-3.709 -0.057,1.45 -0.684,1.578 -1.652,3.112 -0.968,1.535 -0.057,3.496 -0.057,3.496 -1.253,-1.109 -3.532,-2.43 -1.367,-5.585 1.667,-2.43 -3.475,-5.543 -3.475,-5.543 -1.994,-2.046 -7.291,-0.128 -7.291,-0.128 -10.994,2.174 -17.431,-4.775 -17.431,-4.775 -1.253,0 -3.646,-0.682 -3.646,-0.682 -11.621,5.202 -21.817,-6.054 -21.817,-6.054 -8.772,1.663 -12.76,-2.558 -15.437,-6.694 -2.677,-4.136 -3.19,-4.477 -6.722,-6.608 -3.532,-2.132 -6.833,-8.163 -3.589,-11.341 2.829,-2.771 1.994,-3.411 1.994,-3.411 -4.557,-7.66 8.127,-10.13 8.355,-11.963 0.332,-2.675 2.981,-4.366 5.829,-4.537 2.848,-0.171 2.848,0.085 4.728,-1.833 1.88,-1.919 5.469,0.469 5.469,0.469 0.741,-0.554 7.007,-5.415 12.589,-2.899 5.583,2.516 10.197,0.725 10.197,0.725 3.931,-0.853 36.571,-5.287 36.571,-5.287 2.108,-3.155 3.589,-6.95 12.589,-8.996 9,-2.046 15.836,-7.632 15.836,-7.632 -1.595,-1.705 -4.272,-1.62 -5.639,-1.791 -1.367,-0.171 -4.215,-2.601 -4.215,-2.601 -1.652,0.725 -2.499,0.37 -14.298,7.546 -10.538,6.41 -10.842,-6.309 -10.842,-6.309 l -22.994,0.042 c -0.399,4.86 -4.101,6.779 -4.101,6.779 l -8.374,0.426 c -4.671,-2.473 -4.728,-10.701 -4.728,-10.701 -25.292,0.384 -39.362,9.422 -39.362,9.422 -28.653,-14.667 -51.097,-17.992 -51.097,-17.992 34.805,-3.795 53.204,-13.473 53.204,-13.473 19.197,11.512 37.255,11.81 37.255,11.81 0.684,-6.95 5.355,-8.655 5.355,-8.655 z"
       id="path4" />
    <path
       d="m 725.09,335.68 c -7.273,4.265 -5.958,6.594 -5.325,7.904 0.646,1.336 0.721,2.615 -1.253,4.605 -1.975,1.99 -1.785,2.681 -1.785,2.681 0.304,7.069 5.311,8.57 7.399,10.304 1.749,1.452 4.715,6.002 4.715,6.002 3.722,5.344 7.671,5.4 10.595,5.4 2.924,0 2.664,-0.248 1.177,-1.563 -1.398,-1.237 -4.329,-3.638 -4.329,-3.638 3.911,1.364 7.633,5.457 7.633,5.457 7.39,8.086 14.203,7.021 17.203,6.623 3,-0.398 2.468,-2.132 2.468,-2.132 -0.158,-0.288 -3.076,-0.512 -3.076,-0.512 -11.089,-1.052 -14.431,-8.328 -14.431,-8.328 6.684,6.566 17.165,7.902 20.393,7.781 3.228,-0.121 3.038,0.803 2.354,0.974 -0.684,0.171 -1.671,0 -3.152,-0.114 -1.481,-0.114 -1.481,0.256 -1.139,0.881 0.342,0.625 1.737,0.689 3.503,0.625 1.766,-0.064 0.342,0.128 4.927,3.688 4.586,3.56 16.007,0.682 16.007,0.682 -7.377,-1.833 -8.402,-5.159 -8.402,-5.159 -10.026,1.172 -14.099,-4.839 -14.099,-4.839 -1.794,-1.791 -7.151,-4.56 -7.151,-4.56 -5.666,-2.432 -6.549,-7.56 -6.549,-7.56 1.595,2.27 4.7,4.872 8.63,5.959 3.93,1.087 5.041,1.663 5.041,1.663 -1.88,0.277 -2.991,-0.341 -2.991,-0.341 -3.931,-1.151 -1.709,0.448 -1.709,0.448 4.329,3.453 5.526,3.198 5.526,3.198 11.364,1.172 5.725,-3.368 5.725,-3.368 8.089,1.919 9.428,-1.109 9.428,-1.109 1.68,3.56 7.804,2.281 7.804,2.281 -8.146,3.922 -1.965,2.802 -1.965,2.802 8.231,-1.544 9.845,0.552 9.845,0.552 2.228,2.072 4.481,1.784 4.481,1.784 0,0 1.481,0.043 4.614,0.67 3.133,0.627 7.918,3.295 12.475,2.731 4.557,-0.564 5.298,0.866 5.298,0.866 -0.854,-0.295 -2.848,-0.6 -6.38,0.978 -3.532,1.578 -9.627,2.089 -18.513,0 -8.886,-2.089 -9.57,-1.833 -9.57,-1.833 2.108,1.577 3.987,3.795 4.386,5.329 0.399,1.534 1.937,1.62 1.937,1.62 0.627,-1.961 3.304,-2.814 3.304,-2.814 1.753,1.62 6.437,3.752 6.437,3.752 0.513,-1.066 0,-1.812 0,-1.812 3.418,3.262 7.405,2.281 7.405,2.281 1.081,-0.765 0.741,-2.601 0.741,-2.601 1.367,-0.043 1.595,0.81 2.563,1.45 0.968,0.64 4.044,0.213 4.044,0.213 -1.139,-0.469 -1.937,-2.217 -1.937,-2.217 4.5,-3.112 14.241,-1.748 14.241,-1.748 7.035,1.236 6.152,5.841 6.152,5.841 1.424,0.682 3.304,2.814 3.304,2.814 0.598,-1.62 0.057,-3.262 0.057,-3.262 3.219,1.535 3.902,5.287 3.902,5.287 3.731,-4.264 -3.56,-9.06 -3.56,-9.06 3.532,-0.448 7.434,-0.128 9.798,0.213 2.364,0.341 5.753,1.578 8.516,3.88 2.763,2.302 7.719,3.368 7.719,3.368 -0.152,-0.951 -2.791,-2.558 -3.389,-2.899 -0.598,-0.341 -0.854,-1.172 -0.854,-1.172 2.421,0.426 4.101,0.213 4.101,0.213 -8.516,-5.202 -10.652,-7.674 -10.652,-7.674 3.19,0.405 4.956,-1.578 4.956,-1.578 -6.722,0.149 -6.95,-1.599 -6.95,-1.599 0.826,0.234 3.874,0.981 7.89,0.192 4.016,-0.789 9.598,0.021 9.598,0.021 -2.905,-4.669 -14.156,-3.88 -17.744,-3.688 -3.588,0.192 -4.984,-0.277 -4.984,-0.277 0.57,-0.277 1.168,-0.874 3.987,-0.895 2.82,-0.021 5.582,0.213 8.772,-1.983 3.19,-2.196 7.567,-1.471 7.567,-1.471 -1.063,-2.103 -6.114,-2.842 -10.557,0 -4.443,2.842 -8.469,1.933 -8.469,1.933 7.026,-0.995 9.076,-3.468 9.076,-3.468 -2.127,-0.512 -3.304,0.171 -7.519,0.995 -4.215,0.824 -5.355,-0.625 -5.355,-0.625 4.633,-2.757 7.861,-3.866 7.861,-3.866 -3.949,-0.824 -7.595,-2.51 -7.595,-2.51 -4.101,3.857 -7.291,6.034 -15.152,1.913 -7.861,-4.121 -11.962,-3.638 -11.962,-3.638 6.912,-4.093 14.013,-2.331 19.178,0.767 5.165,3.098 6.646,0.568 6.646,0.568 -1.633,-1.023 -1.405,-1.904 -1.405,-1.904 12.532,6.395 17.963,2.416 20.735,0.54 2.772,-1.876 -1.253,-4.377 -1.253,-4.377 -0.266,4.065 -5.393,5.912 -9.418,4.548 -4.025,-1.364 -7.747,-3.098 -13.538,-5.514 -5.791,-2.416 -13.045,-1.165 -19.805,0.256 -6.76,1.421 -7.633,0.739 -8.241,0.199 -0.608,-0.54 -0.949,-2.189 -4.405,-0.767 -3.456,1.421 -11.507,-2.359 -16.52,-3.553 -5.013,-1.194 -13.219,-0.541 -20.317,3.354 -7.098,3.895 -10.595,2.928 -12.722,1.961 -2.127,-0.967 -3.456,-3.638 -1.177,-6.026 2.279,-2.388 2.468,-3.041 2.279,-6.481 -0.19,-3.439 -3.57,-5.486 -3.57,-5.486 3.114,-3.212 3.874,-3.922 2.81,-5.315 -1.063,-1.393 0.608,-1.364 2.393,-2.16 1.785,-0.796 0.987,-0.91 0.57,-1.961 -0.418,-1.052 -1.443,-0.881 -1.443,-0.881 -4.139,0.171 -6.418,-0.966 -6.418,-0.966 -6.855,-3.155 -13.216,2.984 -13.216,2.984 -3.894,-2.983 -4.785,-1.052 -5.469,-0.313 -0.684,0.739 -2.051,1.251 -3.874,1.421 -1.658,0.155 -4.164,0.804 -5.033,2.353 0,0 -0.768,1.245 0.19,2.608 0,0 1.064,1.605 -0.872,3.544 -1.937,1.94 -2.62,2.409 -2.022,4.242 0.598,1.833 0.427,3.24 -0.313,4.434 0,0 -0.883,-1.023 -0.655,-2.281 0.228,-1.258 0.228,-1.983 -0.057,-2.665 0,0 -1.908,1.876 -2.25,3.219 0,0 -0.797,-2.068 1.965,-4.839 2.762,-2.771 4.021,-4.151 3.247,-5.223 -0.57,-0.789 -2.591,0.488 -3.077,0.773 z"
       fill="#ffc221"
       id="path5" />
    <path
       d="m 732.94,366.24 c 0,0 -3.456,-2.643 -3.038,-6.31 0.418,-3.667 0.348,-4.121 -0.035,-4.889 0,0 -0.63,0.365 -0.611,1.791 0.018,1.338 -0.172,2.729 -0.304,2.984 0,0 -1.785,-3.041 -2.506,-3.61 0,0 0.608,-3.183 -0.38,-4.548 -0.987,-1.364 -1.943,-1.45 -3.076,-1.023 -1.568,0.59 -2.752,2.047 2.517,6.367 0,0 1.964,1.563 3.332,5.031 1.367,3.468 3.646,4.008 4.101,4.207 z m 17.128,-10.147 c 0,0 -0.266,-2.075 1.595,-5.742 1.861,-3.667 0.745,-6.391 0.327,-7.301 -0.418,-0.91 -0.669,-0.572 1.208,-2.148 2.31,-1.939 -0.89,-4.387 2.908,-7.787 0,0 2.506,-2.149 3.076,-3.03 0,0 -4.025,2.16 -6.646,3.24 -2.62,1.08 -12.646,5.997 -10.443,9.294 2.203,3.297 1.975,3.468 1.633,4.832 0,0 -5.962,-3.155 -3.874,-8.271 0,0 0.947,-2.061 3.456,-4.377 2.279,-2.103 0.911,0.455 5.544,-2.189 0,0 3.684,-2.189 5.62,-5.145 0,0 -2.43,1.535 -3.304,1.791 0,0 -5.355,0.966 -7.519,3.24 -2.165,2.274 -6.76,6.225 -5.203,10.63 0,0 -5.355,-0.654 -6.57,-6.225 0,0 -9.912,12.222 10.899,17.907 10e-4,0.002 3.799,1.011 7.293,1.281 z"
       id="path6" />
    <path
       d="m 841.606,315.23 c 7.772,-1.175 52.815,-7.982 56.908,-8.397 4.481,-0.455 6.197,-1.053 7.671,2.558 1.671,4.093 -6.152,4.15 -6.152,4.15 l -53.699,6.088 c -2.634,0.304 -3.223,-0.701 -3.223,-0.701 -0.465,-0.858 -1.363,-2 -1.982,-2.748 0,-0.001 -0.707,-0.771 0.477,-0.95 z"
       fill="#ffc221"
       id="path7" />
    <path
       d="m 731.61,339.66 c 0,0 -5.81,12.236 17.032,15.263 0,0 0.057,-1.364 0.968,-3.283 0.911,-1.919 2.905,-5.798 1.025,-8.314 -1.88,-2.516 1.538,-1.194 2.051,-4.477 0.513,-3.283 -0.342,-2.814 1.253,-4.946 0,0 -7.177,2.601 -9.912,5.756 -2.734,3.155 3.703,5.543 -0.114,8.996 0,0 -3.19,-1.151 -5.07,-4.605 0.002,10e-4 -4.441,0.087 -7.233,-4.39 z"
       fill="#5a3719"
       id="path8" />
    <path
       d="m 753.94,354.69 c 0,0 5.639,4.882 12.361,4.669 6.722,-0.213 9.57,-2.004 11.279,-4.669 0,0 1.307,2.065 1.31,3.432 0,0 5.81,-4.818 15.836,-0.64 10.026,4.178 6.95,3.03 9.171,3.327 0,0 -4.262,-0.758 -14.013,3.708 -10.025,4.592 -36.172,3.027 -35.944,-9.827 z"
       id="path9" />
    <path
       d="m 744.597,333.096 c 0,0 2.535,0.384 5.07,-2.473 0,0 -3.418,0.64 -5.07,2.473 z m -19.155,22.725 c 0,0 -4.713,-3.709 -1.694,-4.434 0,0 2.15,-0.341 1.694,4.434 z"
       fill="#5a3719"
       id="path10" />
    <path
       d="m 828.049,379.017 c 0,0 2.506,-4.48 9.741,-4.48 7.235,0 8.089,3.326 17.203,3.965 0,0 -10.944,3.084 -18.57,0.256 -3.987,-1.478 -7.576,-0.249 -8.374,0.259 z"
       id="path11" />
    <path
       d="m 756.446,357.952 c 0,0 10.823,6.566 20.45,-0.554 0,0 0.798,0.767 1.481,2.515 0,0 7.291,-7.036 20.336,0.554 0,0 -1.603,-0.178 -7.747,2.473 -8.004,3.454 -28.026,5.714 -34.52,-4.988 z"
       fill="#5a3719"
       id="path12" />
    <path
       d="m 798.2,364.604 c 0,0 10.367,1.202 19.14,0.682 5.39,-0.319 11.222,-1.306 8.317,0.52 -2.905,1.825 -1.481,1.996 10.937,0.845 12.418,-1.151 -0.114,2.345 8.431,3.453 0,-10e-4 -20.71,10.573 -46.825,-5.5 z"
       id="path13" />
    <path
       d="m 825.429,357.995 c 0,0 6.095,-2.217 11.735,0.426 5.639,2.643 4.785,2.857 8.545,3.24 0,0 -2.62,3.752 -8.829,0.725 -6.21,-3.027 -7.855,-3.611 -11.451,-4.391 z m 6.779,18.717 c 0,0 5.98,-2.983 12.591,0.118 0.827,0.388 2.631,1.137 4.327,1.502 0,0 -5.065,1.57 -10.254,-0.043 -2.157,-0.67 -3.873,-1.193 -6.664,-1.577 z M 802.643,366.01 c 0,0 13.33,1.236 20.564,-0.205 0,0 -8.374,4.042 12.646,2.166 0,0 4.671,-0.512 4.101,0.213 -0.57,0.725 -0.911,1.279 1.367,1.961 10e-4,0.001 -15.607,6.993 -38.678,-4.135 z"
       fill="#5a3719"
       id="path14" />
    <path
       d="m 736.05,354.69 c 0,0 0.114,1.023 3.076,2.345 2.962,1.322 4.557,3.688 5.184,4.967 0.627,1.279 2.136,3.193 4.586,3.803 0,0 -10.45,2.181 -15.133,-3.255 0,0 -3.551,-3.916 2.174,-7.86"
       id="path15" />
    <path
       d="m 818.31,378.8 c 0,0 -4.158,-0.256 -9.798,-2.217 -5.639,-1.961 -7.121,-0.298 -10.31,-2.686 -3.19,-2.388 -9.627,-0.895 -10.823,-0.725 -1.196,0.171 -4.614,0 -0.342,-2.771 0,0 -3.418,-0.085 -4.728,-1.791 0,0 -1.538,1.492 -7.291,0.938 0,0 2.563,4.026 -7.747,2.866 0,0 3.076,3.572 6.779,4.297 3.703,0.725 5.247,0.485 7.633,-0.213 0,0 -0.684,3.112 4.101,4.306 4.785,1.194 5.753,2.132 8.203,3.112 0,0 0.342,-2.004 -6.038,-6.651 0,0 3.418,-0.171 8.317,1.023 4.897,1.194 16.005,4.051 22.044,0.512 z m 2.582,4.775 c 0,0 1.025,2.388 4.177,1.848 3.152,-0.54 8.336,-1.464 13.349,1.094 0,0 0.854,-4.264 -9.209,-4.562 0,0 -6.304,0.341 -8.317,1.62 z m -85.218,-27.372 c 0,0 -3.874,3.183 -0.361,6.495 3.209,3.025 8.165,2.757 10.538,2.672 0,0 -1.424,-0.81 -2.677,-2.686 -1.253,-1.876 -1.296,-3.144 -3.931,-4.349 -2.734,-1.25 -3.057,-1.577 -3.569,-2.132 z m -4.064,-16.542 c 0,0 -5.81,12.236 17.032,15.263 0,0 0.057,-1.364 0.968,-3.283 0.911,-1.919 2.905,-5.798 1.025,-8.314 -1.88,-2.516 1.538,-1.194 2.051,-4.477 0.513,-3.283 -0.342,-2.814 1.253,-4.946 0,0 -7.177,2.601 -9.912,5.756 -2.734,3.155 3.703,5.543 -0.114,8.996 0,0 -3.19,-1.151 -5.07,-4.605 0.002,0.001 -4.441,0.087 -7.233,-4.39 z"
       fill="#5a3719"
       id="path16" />
    <path
       d="m 791.65,367.89 c 0,0 4.785,-0.767 16.975,3.795 12.19,4.562 17.26,3.411 19.083,3.283 0,0 -6.876,3.592 -17.526,-1.097 -9.417,-4.147 -10.044,-2.57 -18.532,-5.981 z"
       id="path17" />
    <path
       d="m 867.962,365.158 c 0,0 2.783,-0.095 4.405,0.668 0,0 1.063,-0.91 3.608,-1.18 0,0 -1.671,-1.677 -8.013,0.512 z m -8.335,-6.75 c 0,0 2.791,-0.128 3.627,-1.464 0,0 -1.405,-1.791 -3.551,-2.643 0,-10e-4 0.436,1.904 -0.076,4.107 z m -93.668,-31.153 c 0,0 -0.513,-1.364 2.392,-1.791 2.905,-0.426 40.881,-5.841 40.881,-5.841 0,0 2.013,-0.003 2.298,1.322 0.308,1.432 -0.228,2.503 -9.399,3.575 -9.171,1.072 -33.381,4.099 -33.381,4.099 0,0 -2.564,0.427 -2.791,-1.364 z"
       fill="#ffc221"
       id="path18" />
    <path
       d="m 803.004,325.621 c 0,0 0,5.372 5.469,6.168 5.306,0.772 7.13,-0.331 8.545,-3.125 0.371,-0.734 1.999,-6.343 -0.357,-6.771 -0.926,-0.168 -2.569,-0.072 -3.744,0.43 -1.83,0.782 -3.528,1.698 -2.924,2.615 1.291,1.961 1.543,2.416 1.063,2.558 -1.312,0.389 -2.277,-0.764 -2.544,-1.563 -0.333,-0.996 0.723,-1.637 -2.848,-1.109 -1.46,0.216 -2.66,0.171 -2.66,0.797 z"
       fill="#ffc221"
       id="path19" />
    <path
       d="m 825.752,321.491 c 2.794,0.322 2.582,6.233 -0.76,8.905 -3.599,2.877 -7.033,1.848 -7.033,1.848 -1.816,-0.767 -1.588,-0.512 -0.183,-2.643 1.33,-2.018 1.957,-4.734 1.215,-6.623 -0.237,-0.604 0.418,-1.094 1.345,-1.293 0.002,-10e-4 2.53,-0.527 5.416,-0.194 z"
       fill="#ffc221"
       id="path20" />
    <path
       d="m 828.182,322.011 c 0,0 1.994,2.509 -0.495,7.134 0,0 -1.1,1.364 1.368,1.165 2.468,-0.199 7.975,-2.842 7.405,-6.225 0,0 -0.19,-0.824 -1.633,-0.739 -1.443,0.085 -0.266,-0.796 0.342,-0.966 0.608,-0.17 2.487,-0.867 -2.392,-4.008 0,0 -0.805,-0.725 -1.747,-0.426 -0.744,0.236 -3.343,1.302 -3.343,2.814 10e-4,0.62 0.495,1.251 0.495,1.251 z"
       fill="#ffc221"
       id="path21" />
    <path
       d="m 833.518,317.761 c 0,0 3.893,2.79 3.874,3.619 -0.019,0.829 -0.361,1.952 0.665,1.853 1.025,-0.099 5.241,-0.995 4.082,-3.78 -1.158,-2.786 -2.317,-3.766 -4.272,-4.448 -1.956,-0.682 -2.449,0.242 -4.12,1.506 -10e-4,0 -1.216,0.739 -0.229,1.25 z m -21.058,3.937 c 0,0 0.646,-2.075 -2.848,-2.842 0,0 1.481,-1.222 4.443,-0.568 2.942,0.649 2.628,2.587 2.605,2.842 0,0 -2.301,-0.086 -4.2,0.568 z m 7.596,-0.483 c 0,0 4.048,-0.709 5.848,-0.483 0,0 -1.994,-4.462 -7.386,-2.942 0,0 1.936,2.189 1.538,3.425 z m 6.93,-1.109 c 0,0 0,-1.364 3.437,-2.729 0,0 -1.668,-1.57 -3.987,-1.421 -2.658,0.171 -3.19,1.137 -3.19,1.137 0,0 2.886,1.002 3.74,3.013 z m 1.348,-4.661 c 0,0 2.127,0.54 3.456,1.677 0,0 2.016,-2.2 3.722,-2.672 0,0 -3.342,-1.791 -7.178,0.995 z"
       fill="#ffc221"
       id="path22" />
    <path
       d="m 716.514,304.701 c 0,0 9.383,-7.95 14.64,-6.992 5.256,0.957 2.62,0.298 8.374,-0.597 5.753,-0.895 11.678,-1.492 14.07,-1.194 0,0 -6.95,-4.988 -19.368,-4.903 0,0 -8.772,3.027 -14.811,7.035 0,0 -11.621,-6.481 -23.64,-2.601 0,0 13.045,4.732 20.735,9.252 z"
       fill="#5a3719"
       id="path23" />
    <path
       d="m 816.286,318.472 1.566,-0.263 c 0,0 2.644,3.274 0.723,3.311 -1.501,0.03 -0.894,-0.462 -1.178,-1.414 -0.285,-0.952 -0.797,-1.378 -1.111,-1.634 z m -11.791,0.256 c 0,0 -0.94,1.169 0.826,0.895 2.151,-0.333 1.737,0.072 4.101,-1.528 0,0 1.453,-1.542 4.158,-0.582 0,0 2.279,0.746 4.13,-0.149 1.851,-0.895 2.279,-0.831 3.275,-0.746 0.997,0.085 0.93,0.3 2.26,-0.671 1.329,-0.971 3.636,-0.225 5.089,-1.44 1.453,-1.215 3.275,-0.192 0,-2.537 0,0 -0.684,-0.682 -0.627,-1.258 0,0 1.253,0.362 2.25,1.258 0.997,0.895 2.649,0.618 2.934,0.469 0,0 0.171,-2.921 3.076,-5.607 2.905,-2.686 2.934,-2.899 1.225,-2.921 -1.709,-0.021 -4.586,-0.682 -5.554,0 -0.968,0.682 -9.485,6.267 -14.44,7.205 -4.956,0.939 -9.513,2.346 -12.703,7.612 z M 672.253,288.173 c 0,0 15.209,3.922 18.627,5.571 0,0 0.816,-2.544 -6.095,-4.534 0,0 16.785,-0.512 34.558,7.561 0,0 8.567,-7.346 36.137,-5.072 0,0 0.054,-2.435 0.244,-4.308 0,0 -19.368,-0.568 -37.141,-11.369 0,-10e-4 -15.911,7.83 -46.33,12.151 z m 84.534,7.347 c -1.063,-15.548 4.899,-16.94 4.899,-16.94 0,0 2.808,0.016 5.848,0.483 0,0 -4.709,5.599 -3.456,16.713 0,0 0.494,1.791 -3.494,1.791 -3.924,0 -3.797,-2.047 -3.797,-2.047 z"
       fill="#ffc221"
       id="path24" />
    <path
       d="m 760.85,305.81 c 0,0 -2.886,-2.956 -3.19,-6.367 0,0 -0.076,-0.881 2.848,-0.796 2.924,0.085 3.306,-0.281 4.025,1.421 0.7,1.655 2.544,5.145 3,5.543 z"
       fill="#5a3719"
       id="path25" />
    <path
       d="m 767.096,298.048 c -0.265,-2.034 -0.367,-3.77 -0.321,-5.91 0.19,-8.669 1.629,-7.899 2.199,-6.818 l 2.966,0.054 c 0,0 -2.165,-9.778 -4.709,-4.065 -2.5,5.612 -2.317,9.266 -2.013,13.7 0.175,2.554 0.512,4.144 0.797,5.1 z"
       fill="#ffc221"
       id="path26" />
    <path
       d="m 800.593,298.071 c 0,0 5.725,0.874 -3.048,2.963 0,0 0.427,10.6 10.795,3.176 0,0 6.124,-3.915 10.367,-5.507 0,0 2.136,-0.739 1.88,-2.338 0,0 0.171,-1.883 -2.051,-1.514 0,0 -1.75,0.041 -2.877,-0.37 0,0 -1.225,-1.442 -2.051,-0.888 -0.826,0.554 -2.763,0.234 -1.253,2.068 1.51,1.833 1.965,1.364 2.706,0.831 0.741,-0.533 4.016,-1.833 0.997,0.874 -3.019,2.707 -5.383,-1.492 -6.352,-2.26 z m -28.653,1.201 -2.544,-0.057 c 0,0 -1.367,2.047 -2.3,-1.167 l -1.08,2.06 c 0,0 3.152,11.382 5.924,-0.836 z"
       fill="#5a3719"
       id="path27" />
    <path
       d="m 768.332,286.14 c 0,0 -1.291,7.447 0.342,12.052 l 27.533,0.512 c 0,0 -0.342,-5.344 0.076,-12.563 h -3.911 c 0,0 -0.532,5.997 -0.038,9.692 l -0.645,0.013 c 0,0 -0.494,-5.186 0.037,-9.705 h -3.228 c 0,0 -0.532,5.543 -0.114,9.749 h -0.608 c 0,0 -0.456,-4.86 0.076,-9.749 h -3.19 c 0,0 -0.586,5.02 0.041,9.68 l -0.762,-0.016 c 0,0 -0.646,-5.088 0.038,-9.664 h -3.532 c 0,0 -0.873,4.69 -0.038,9.721 h -0.722 c 0,0 -0.797,-4.804 0.076,-9.721 h -3.532 c 0,0 -0.835,5.315 -0.114,9.721 h -0.684 c 0,0 -0.57,-5.145 0.19,-9.721 h -3.304 c 0,0 -0.873,4.491 -0.152,9.721 h -0.722 c 0,0 -0.532,-3.894 0.152,-9.721 h -3.265 z m 29.09,13.587 c 0,0 -0.762,-13.474 1.823,-16.94 2.585,-3.466 3.114,-2.786 7.519,0 4.405,2.785 10.102,5.798 11.013,6.139 0.911,0.341 2.203,0.682 2.203,3.127 0,2.445 0.456,3.183 -3.342,0.114 -0.569,-0.46 -2.345,-2.085 -3.627,-2.494 -3.403,-1.086 0.818,0.762 2.032,2.494 1.029,1.468 1.823,1.307 -0.835,1.99 -2.658,0.683 -11.849,3.751 -16.786,5.57 z"
       fill="#ffc221"
       id="path28" />
    <path
       d="m 807.06,290.08 c 0,0 -1.994,-2.519 0.541,-3.095 2.535,-0.576 2.734,3.986 3.161,6.736 0.428,2.75 -3.189,-2.779 -3.702,-3.641 z m -3.702,11.742 c 0,0 -2.962,1.087 -1.025,2.046 1.937,0.959 7.405,-3.581 5.526,-3.283 -1.881,0.299 -4.501,1.237 -4.501,1.237 z m 4.016,-4.157 c 0,0 2.62,-0.256 2.108,0.874 -0.513,1.13 -1.453,0.412 -1.851,0.163 -0.4,-0.248 -2.251,-0.888 -0.257,-1.037 z"
       id="path29" />
    <path
       d="m 821.328,294.141 c 0,0 0.703,5.13 5.108,6.431 0,0 2.544,0.632 2.013,-1.613 0,0 -0.437,-1.876 -0.797,-2.658 -0.361,-0.782 -2.127,-1.279 -2.317,-1.364 -0.19,-0.085 -0.418,-0.625 0.798,-0.227 1.215,0.398 1.405,0.441 1.31,-0.412 -0.095,-0.853 -0.81,-0.51 -1.926,-1.055 -0.429,-0.21 0.046,-0.494 0.502,-0.394 0.456,0.099 1.538,0.426 1.557,-1.336 0,0 0.241,-0.98 -1.101,-1.052 -1.462,-0.078 -1.348,-0.732 -0.892,-0.831 0.456,-0.099 1.986,0.961 2.411,-0.782 0.437,-1.791 -2.108,-0.76 -1.766,-1.684 0.342,-0.924 2.145,0.528 2.295,-0.568 0.145,-1.066 1.602,-1.53 -0.879,-1.874 -1.177,-0.163 -0.089,-0.685 1.233,-0.499 1.415,0.199 2.269,-1.549 3.086,-2.118 0.817,-0.568 5.431,-3.325 -0.721,-2.416 -6.153,0.909 -7.956,3.894 -8.355,4.491 -0.401,0.596 -2.11,4.12 -1.559,9.961 z"
       fill="#ffc221"
       id="path30" />
    <path
       d="m 835.661,298.117 c 0.791,-0.152 1.538,0.063 1.807,0.614 1.013,2.078 -1.31,1.336 -2.601,2.871 -1.291,1.535 -1.329,1.222 -3.152,0.685 -1.823,-0.537 -2.506,-3.3 -2.506,-3.3 -0.204,-0.848 0.584,-0.92 1.528,-0.812 -10e-4,10e-4 3.022,0.309 4.924,-0.058 z m -6.662,-1.105 c 0,0 0.128,0.622 1.172,0.707 1.044,0.085 4.078,0.348 5.882,-0.234 0,0 0.665,-0.131 0.366,-1.306 0,0 -0.024,-0.762 -1.648,-0.453 -1.624,0.309 -3.973,0 -4.756,-0.171 -0.783,-0.17 -1.42,0.015 -1.016,1.457 z m -0.247,-3.723 c 0,0 -0.057,1.62 1.576,1.833 1.633,0.213 3.666,0.205 4.513,0.038 0.646,-0.128 1.81,-0.364 1.905,-1.317 0.095,-0.952 0.361,-1.663 -1.652,-1.165 -2.013,0.497 -4.443,0.171 -4.69,0.114 -0.247,-0.057 -1.614,-0.47 -1.652,0.497 z m 0.741,-3.269 c 0,0 -0.399,0.739 -0.342,1.45 0.057,0.711 1.234,0.952 3.361,0.981 2.127,0.029 4.025,-0.284 4.158,-0.995 0.133,-0.711 0.646,-1.535 -1.025,-1.279 -1.671,0.256 -3.779,0.327 -4.614,-0.014 -0.836,-0.342 -1.398,-0.46 -1.538,-0.143 z"
       fill="#ffc221"
       id="path31" />
    <path
       d="m 907.571,298.263 c 0,0 -0.028,1.482 1.139,2.942 l -59.029,-1.695 c 0,0 0.862,-0.533 1.082,-2.832 z"
       fill="#5a3719"
       id="path32" />
    <path
       d="m 829.967,287.576 c 0,0 -0.513,1.492 0.551,1.791 1.063,0.298 2.886,0.625 5.298,0.242 0,0 1.215,0.085 1.633,-1.208 0.418,-1.293 0.375,-0.568 -3.059,-1.251 0,0 -1.081,-0.315 2.053,-0.327 0,0 1.747,0.057 2.013,-0.242 0.266,-0.298 2.582,-2.132 -0.418,-2.018 -3,0.114 -1.519,-0.526 0,-0.526 1.519,0 1.994,0.313 2.487,-0.171 0.494,-0.483 0.038,-0.156 -0.779,-0.981 -0.816,-0.824 -0.247,-0.583 0.342,-0.128 0.589,0.455 0.949,0.597 1.614,0.014 0.665,-0.583 -0.513,-1.435 0,-1.336 0.513,0.099 0.76,1.073 2.696,0.135 1.936,-0.938 4.557,-0.448 5.269,0.085 0.712,0.533 2.734,1.215 3.959,-0.043 1.225,-1.258 -1.453,-2.281 -0.313,-2.452 1.14,-0.171 1.937,0.234 2.393,-0.682 0.456,-0.917 -1.766,-1.791 0.37,-2.366 2.136,-0.576 0.342,-6.566 -0.399,-7.12 0,0 -2.392,1.407 -5.013,5.649 -2.621,4.242 -4.158,6.715 -7.719,5.415 -5.136,-1.876 -7.761,0.821 -8.556,1.307 -1.232,0.753 2.575,1.123 0.354,1.165 -2.222,0.043 -2.222,0.234 -2.449,0.576 -0.228,0.341 -0.029,0.64 0.37,0.661 0.399,0.021 1.253,0.874 -0.114,0.831 -1.367,-0.043 -2.336,-0.256 -1.934,1.197 0,0 0.025,0.317 0.823,0.402 0.797,0.085 1.082,0.917 -0.399,0.917 -0.95,0.002 -1.045,0.37 -1.073,0.464 z m 5.459,14.801 c 0,0 -1.054,0.746 0.399,0.831 1.453,0.085 2.222,0.362 2.677,-0.416 0.456,-0.778 2.421,-0.458 1.111,-1.546 -1.31,-1.086 -2.193,-0.468 -4.187,1.131 z"
       fill="#ffc221"
       id="path33" />
    <path
       d="m 841.52,284.62 c 0,0 4.915,-4.626 9.023,-1.492 4.108,3.134 4.506,3.603 4.563,3.667 0.057,0.064 0.484,0.405 -0.627,1.386 -1.111,0.981 -0.029,0.959 1.196,0.362 1.225,-0.597 1.31,-0.043 1.908,0.618 0.598,0.661 1.398,1.045 -0.497,1.066 -1.895,0.021 -5.968,0 -5.968,0 0,0 -2.763,0.234 -1.367,-0.895 1.396,-1.13 1.196,-2.473 0.484,-2.558 -0.712,-0.085 -0.057,0.682 -0.484,1.215 -0.427,0.533 -1.396,1.023 -2.364,1.002 -0.968,-0.021 -1.823,0.701 -0.285,1.257 1.538,0.555 -0.171,0.919 -0.968,0.897 -0.797,-0.022 -4.643,0.298 -0.74,0.767 3.902,0.469 -0.352,0.356 2.506,1.989 3.161,1.806 0.883,5.643 -0.313,5.984 0,0 -1.31,0.713 0.342,0.516 1.652,-0.196 2.563,-0.431 1.396,0.464 -1.168,0.895 -3.503,3.88 -6.75,1.599 0,0 -1.481,-0.703 1.168,-0.831 2.649,-0.128 -2.165,-0.694 -2.962,-1.232 -0.797,-0.538 -3.845,-3.65 -1.937,-3.266 1.908,0.384 1.225,-0.725 0.085,-1.13 -1.14,-0.405 -1.367,-2.153 -0.085,-1.769 1.282,0.384 2.791,1.098 3.817,1.05 1.025,-0.048 0.741,-0.475 -1.453,-1.157 -2.193,-0.682 -3.105,-0.789 -2.592,-2.643 0.513,-1.854 2.905,0.725 2.336,-0.661 -0.569,-1.386 -2.649,-0.703 -1.538,-2.537 1.111,-1.833 1.367,-1.045 1.88,-0.81 0.513,0.235 1.333,0.06 -0.114,-1.023 -0.913,-0.684 0.082,-1.609 0.34,-1.835 z"
       fill="#ffc221"
       id="path34" />
    <path
       d="m 845.053,285.899 c 0,0 -0.029,-0.618 0.854,-0.512 0.883,0.107 0.655,-0.32 0.911,-0.448 0.256,-0.128 2.466,0.658 0.399,1.407 -0.764,0.277 -1.964,0.079 -2.164,-0.447 z"
       id="path35" />
    <path
       d="m 849.753,291.143 c 0,0 -1.661,0.846 -0.157,2.589 1.282,1.486 1.275,1.957 1.168,2.945 -0.108,0.988 56.807,1.585 56.807,1.585 0,0 -0.1,-3.656 2.336,-5.713 0,0.001 -31.102,-0.724 -60.154,-1.406 z"
       fill="#ffc221"
       id="path36" />
    <path
       d="m 908.54,297.261 c 0,0 0.231,-3.084 1.937,-4.106 0.94,-0.563 2.18,-0.235 2.721,2.251 0.77,3.536 -2.227,6.544 -3.618,5.201 -1.325,-1.278 -1.04,-3.346 -1.04,-3.346 z"
       fill="#5a3719"
       id="path37" />
    <path
       d="m 843.32,310.56 c 0,0 3.788,-3.219 4.358,-4.669 0,0 10.254,7.264 9.627,0.594 0,0 0.029,-1.788 0.313,-3.493 0,0 3.707,0.364 4.272,-2.596 l -9.57,-0.282 c 0,0 -0.997,-0.213 -2.478,1.386 -1.481,1.599 -4.529,3.349 -7.377,1.823 0,0 -1.192,-1.035 -2.405,-0.161 -1.213,0.874 -1.27,1.13 -0.273,2.068 0.998,0.939 3.134,3.817 3.533,5.33 z m 22.017,-20.06 -5.611,-0.213 c 0,0 -2.051,-2.878 -6.038,-6.076 0,0 -1.168,-0.512 1.082,-2.302 2.25,-1.791 2.905,-3.709 2.991,-4.583 0.086,-0.874 -0.142,-2.238 0.712,-1.194 0.854,1.045 6.665,6.289 7.491,4.733 0.826,-1.556 0.968,-2.281 1.111,-2.75 0.143,-0.469 0.342,-1.919 1.168,-0.405 0.826,1.514 1.393,1.127 1.424,5.052 0,0 0.142,3.88 0.741,5.287 -0.002,0 -7.35,-2.354 -5.071,2.451 z m -24.353,-11.938 c 0,0 4.272,2.388 6.38,-0.853 2.108,-3.24 3.532,-3.752 1.937,-6.864 -1.595,-3.112 0.044,-4.562 1.247,-5.841 1.203,-1.279 2.228,-1.066 2.399,-6.012 0.171,-4.946 3.589,-6.608 5.127,-8.143 1.538,-1.535 5.412,-3.88 -0.456,-4.86 -5.867,-0.981 -17.488,-4.008 -20.507,-8.527 -3.019,-4.519 -4.386,-1.833 -4.443,-1.663 -0.057,0.171 -1.025,3.496 1.994,9.508 3.019,6.012 5.582,9.877 8.488,11.824 2.905,1.947 5.526,3.013 4.044,7.021 -1.482,4.007 -4.045,11.17 -6.21,14.41 z"
       fill="#7b3c20"
       id="path38" />
    <path
       d="m 856.76,265.78 c 0,0 0.741,10.275 8.26,13.942 0,0 1.709,-4.008 1.025,-7.973 0,0 2.449,0.213 3.133,1.322 0,0 0.114,-2.984 -3.418,-4.072 -3.532,-1.087 -1.823,-7.781 -0.57,-8.548 1.253,-0.767 0.854,-2.103 0,-3.311 -0.854,-1.208 -1.082,-3.041 1.88,-2.274 2.962,0.767 2.506,-0.81 0.741,-2.26 -1.765,-1.45 -1.709,-3.24 0.797,-3.24 2.506,0 6.665,-2.43 4.158,-3.198 -2.506,-0.767 -3.304,-1.577 0.114,-2.558 3.418,-0.981 5.07,-2.217 2.506,-2.515 -2.563,-0.298 -4.272,-1.194 -1.766,-1.62 2.506,-0.426 -0.456,-2.984 -3.361,-3.112 -2.905,-0.128 -9.171,1.066 -4.215,-2.899 4.956,-3.965 -7.121,-1.066 -2.165,-3.667 4.956,-2.601 -1.652,-1.45 -2.563,-1.492 -0.911,-0.042 -0.901,0 -0.565,-1.322 0.337,-1.322 -0.689,-1.919 -2.113,-1.109 -1.424,0.81 -1.424,0.81 -1.367,-1.023 0.057,-1.833 -1.709,-0.469 -2.791,0 -1.082,0.469 -3.817,2.515 -4.899,1.407 -1.082,-1.108 -1.709,-2.26 -5.07,-0.213 -3.361,2.046 -2.563,0.213 -2.506,-0.682 0.057,-0.895 1.31,-4.434 -3.304,-0.64 -4.614,3.795 -0.854,-4.093 -4.5,-1.407 -3.646,2.686 -4.044,3.155 -4.614,1.961 -0.57,-1.194 -1.26,-2.174 -5.273,0.384 -4.013,2.558 -1.05,-1.535 -0.481,-2.43 0.569,-0.895 2.279,-6.694 -1.253,-2.174 0,0 -1.709,3.155 -5.526,-2.473 0,0 -4.044,5.591 -5.07,3.115 -1.025,-2.475 -2.051,-2.731 -3.361,-1.111 -1.31,1.62 -0.342,-0.085 -0.911,-1.45 -0.569,-1.365 -0.911,-3.88 -7.633,1.023 -6.722,4.903 2.336,1.322 -2.791,3.539 -5.127,2.217 -17.488,9.209 -6.152,7.589 11.336,-1.62 -5.526,4.434 -1.595,5.543 3.931,1.109 2.677,4.519 17.431,0.469 14.754,-4.05 12.361,-0.64 19.88,-3.88 7.519,-3.24 -1.709,1.109 8.374,0.895 10.083,-0.213 1.709,0.043 3.646,2.132 1.937,2.089 10.481,7.035 18.456,7.845 7.975,0.81 9.912,-2.174 7.633,1.279 -2.279,3.453 -3.076,4.775 -4.443,5.969 -1.367,1.194 -5.127,3.922 -5.184,8.698 -0.057,4.775 -6.266,5.543 -3.987,10.829 0.002,-10e-4 3.534,-3.412 5.413,-5.288 z"
       fill="#5a3719"
       id="path39" />
    <path
       d="m 869.88,277.27 c 0,0 -1.823,-1.279 -1.785,-3.553 0,0 1.291,0.227 1.785,1.052 0,0 4.595,-5.202 -0.893,-7.077 -5.487,-1.876 -2.754,-6.85 -0.893,-6.879 1.861,-0.029 2.185,-0.54 0.618,-2.615 -1.567,-2.075 -1.453,-2.16 1.661,-2.7 3.114,-0.54 2.691,-1.194 1.307,-1.961 -1.383,-0.767 -2.444,-2.018 -2.444,-2.018 0,0 8.808,-3.837 5.959,-5.599 -2.849,-1.762 0,-1.307 2.544,-3.127 2.544,-1.819 2.886,-2.16 3.266,-2.871 0,0 -2.515,0.256 -4.371,-0.114 0,0 2.198,-1.08 0,-2.871 -2.199,-1.791 -3.11,-3.411 -6.604,-2.587 -3.494,0.824 -2.355,-0.341 -0.987,-1.791 1.367,-1.45 0.721,-2.274 -1.747,-2.643 0,0 0.304,-1.478 2.165,-3.326 0,0 -4.747,0.341 -6.342,-0.483 0,0 1.899,-1.307 2.051,-2.871 0,0 -2.62,0.853 -5.924,0.54 0,0 1.937,-1.677 1.937,-3.155 0,0 -5.734,1.279 -8.393,3.297 0,0 -0.57,-0.114 -1.025,-0.739 -0.456,-0.625 -0.798,-1.251 -7.14,0.767 0,0 0.722,-2.814 2.241,-3.951 1.519,-1.137 1.291,-3.411 -8.583,2.757 0,0 -1.329,-0.796 -2.43,-3.752 0,0 -2.127,3.013 -3.76,4.036 0,0 -1.367,0.574 -1.196,-1.347 0.171,-1.921 -0.968,-0.552 -1.994,0 -1.025,0.552 -1.709,1.916 -1.196,-1.964 0.513,-3.88 -1.367,-4.69 -1.367,-4.69 0,0 -3.076,4.349 -4.842,4.818 0,0 -3.247,-3.155 -4.386,-5.244 -1.139,-2.089 -1.139,-2.857 -2.279,0.767 -1.139,3.624 -2.563,3.922 -2.563,3.922 0,0 -1.937,-1.663 -2.165,-2.558 0,0 -0.342,0.981 -0.968,1.407 0,0 -1.709,-2.004 -1.652,-4.903 0,0 -10.595,5.841 -11.905,9.38 0,0 -10.026,-0.597 -14.184,0.171 0,0 1.025,-3.24 3.646,-4.86 0,0 -2.62,-0.298 -2.734,-2.984 0,0 2.108,0.298 3.418,-0.043 1.31,-0.341 -1.823,-4.136 1.481,-4.221 3.304,-0.085 5.412,1.577 3.93,-2.814 -1.481,-4.391 -0.797,-4.391 -0.797,-4.391 0,0 5.753,3.411 6.665,2.558 0.912,-0.853 -0.741,-2.686 4.386,-1.833 5.127,0.853 3.703,-2.089 5.696,-2.217 1.994,-0.128 3.076,1.279 1.823,-8.015 -1.253,-9.294 6.209,4.605 1.139,-9.422 0,0 -1.282,-4.242 -4.329,-6.054 0,0 -0.684,3.07 -4.13,0.362 -3.446,-2.708 -10.225,-3.667 -7.377,-5.798 2.848,-2.132 4.187,-4.988 3.361,-6.779 0,0 -3.359,3.511 -9.2,1.002 -4.614,-1.983 -5.582,1.663 -10.31,0.597 0,0 0.085,-1.215 4.073,-4.349 3.988,-3.134 -2.307,1.045 -4.785,1.599 -2.478,0.554 -3.19,0.107 2.051,-3.944 5.241,-4.05 15.608,-11.213 14.184,-17.097 0,0 2.449,3.112 8.886,0.853 6.437,-2.259 11.222,-3.07 13.159,-6.395 1.937,-3.326 7.007,-6.694 8.317,-7.419 1.31,-0.725 3.076,-1.236 1.082,1.919 -1.994,3.155 -5.241,8.57 -14.127,12.236 -8.886,3.667 -12.304,6.353 -13.899,8.271 -1.595,1.919 -9.684,6.225 -4.443,5.5 5.241,-0.725 14.355,0.128 10.083,-1.109 -4.272,-1.236 -9.114,0.767 -5.184,-2.814 3.93,-3.581 4.614,-4.775 10.31,-7.163 5.696,-2.388 12.019,-7.845 11.393,-2.047 -0.627,5.798 -11.222,11.981 -13.842,13.856 -2.62,1.876 -1.652,1.578 -1.595,2.345 0.057,0.767 -0.399,2.345 -1.481,3.07 -1.082,0.725 -0.741,1.535 -0.456,3.155 0.285,1.62 -0.285,2.26 0.513,2.515 0.798,0.255 1.595,0.384 1.823,1.535 0.228,1.151 0.826,1.3 2.364,1.172 1.538,-0.128 2.506,0.021 2.62,0.917 0.114,0.895 1.566,2.11 1.737,-0.618 0.171,-2.729 1.168,-3.262 -1.623,-2.004 -2.791,1.258 -3.389,0.81 -3.332,-0.49 0.057,-1.3 -0.256,-1.002 -1.424,-1.109 -1.168,-0.107 -1.567,-1.748 0.513,-2.835 2.079,-1.087 2.051,0.021 4.643,-2.132 2.592,-2.153 2.592,-2.75 2.991,-3.752 0.399,-1.002 -3.703,2.921 -5.668,3.816 -1.965,0.895 -1.453,-0.618 -1.111,-2.857 0.342,-2.239 5.241,-5.159 7.491,-5.202 2.25,-0.043 7.32,1.279 5.127,4.349 -2.193,3.07 -8.402,6.715 -5.725,6.992 2.677,0.277 3.105,-0.767 4.643,0.597 1.538,1.364 0.114,4.136 -0.598,5.607 -0.712,1.471 -2.193,3.326 -2.848,3.667 0,0 -2.82,-5.031 -2.734,-1.045 0.086,3.986 -0.598,5.415 0,5.564 0.598,0.149 3.731,2.238 4.728,2.281 0.997,0.043 -5.412,3.006 -2.734,3.198 2.677,0.192 6.921,-1.172 8.402,-3.944 0,0 -5.44,-1.322 -7.633,-3.368 0,0 6.352,-1.492 4.586,-7.61 0,0 6.323,1.727 3.589,4.583 -2.734,2.857 -4.386,2.43 -2.022,3.24 2.364,0.81 3.532,1.492 3.532,1.492 0,0 1.617,0.81 0.68,2.132 -0.937,1.322 -0.965,3.326 -0.168,3.283 0.797,-0.043 3.475,-1.279 1.225,-2.643 -2.25,-1.364 2.563,-1.13 0.513,-2.281 -2.051,-1.151 -2.592,-1.428 -3.133,-1.983 -0.541,-0.554 25.748,-15.967 12.475,-10.19 0,0 2.763,-5.99 6.636,-6.012 3.873,-0.022 4.158,3.048 1.965,5.372 -2.193,2.324 -3.617,5.948 -8.772,6.8 0,0 7.367,3.61 -1.339,9.508 0,0 -1.889,0.895 -1.206,1.549 0.684,0.654 5.848,-2.274 6.57,-3.922 0.722,-1.649 1.823,-2.928 3.798,-3.894 1.975,-0.966 11.697,-7.589 14.621,-12.592 2.924,-5.003 3.722,-5.173 9.418,-9.749 5.696,-4.576 4.709,-3.667 5.431,-4.775 0.722,-1.108 1.025,-2.928 3.646,-4.406 2.621,-1.478 12.798,-7.134 15.988,-9.437 3.19,-2.302 9.722,-6.537 12.532,-10.119 2.81,-3.581 10.378,-8.156 12.266,-7.305 1.889,0.851 -0.19,3.525 -4.633,6.907 -4.443,3.382 -15.456,12.279 -17.241,13.643 -1.785,1.364 -11.127,8.186 -14.621,8.641 -3.494,0.455 -3.114,1.677 -5.203,3.951 -2.089,2.274 -6.912,7.049 -8.545,8.357 -1.633,1.307 -5.507,3.979 -5.734,5.855 -0.228,1.876 0.684,2.103 -2.43,5.031 -3.114,2.928 -12.228,9.55 -15.532,10.602 0,0 5.848,1.933 2.354,5.884 -3.494,3.951 -3.266,3.382 -3.532,3.638 0,0 8.88,-1.307 2.582,5.599 0,0 -1.215,1.99 1.595,-0.085 3.004,-2.218 1.709,-5.258 1.367,-5.685 0,0 4.709,-2.928 10.14,-3.013 5.431,-0.085 5.241,-0.455 0.38,-1.848 0,0 3.456,-4.207 6.38,-2.132 2.924,2.075 1.975,3.269 -1.101,4.917 -3.076,1.649 -7.633,2.331 -11.013,4.207 0,0 6.418,1.251 9.874,-1.364 3.456,-2.615 3.608,-1.307 4.063,-0.853 0.456,0.455 0.836,1.307 -0.684,3.496 -1.52,2.189 -1.671,2.302 -1.595,2.786 0.076,0.483 -0.114,1.99 -3.228,2.501 -3.114,0.512 -4.519,1.819 -3.456,3.297 1.063,1.478 1.101,5.145 -1.557,4.804 -2.658,-0.341 -1.937,-2.444 -2.962,-3.269 -1.025,-0.824 -2.468,-2.103 -7.102,0.313 -4.633,2.416 -5.013,-0.455 -4.785,-1.961 0,0 -3,2.615 -5.507,0.199 -2.506,-2.416 -0.228,-3.354 1.215,-4.576 1.443,-1.222 7.329,-3.78 3.798,-3.326 -3.531,0.454 -8.81,0.682 -10.026,-2.046 -1.215,-2.729 2.62,-2.416 3.228,-2.16 0.608,0.256 3.114,2.274 3.19,-0.37 0.076,-2.643 3.987,-2.928 2.658,-3.468 -1.329,-0.54 -3.19,1.137 -3.722,1.791 0,0 -2.734,-3.809 -7.139,-2.558 -4.405,1.251 1.405,0.739 2.582,0.938 1.177,0.199 0.494,2.388 -3.456,5.941 -3.95,3.553 -2.165,2.473 0.76,2.473 2.924,0 10.102,0.028 5.924,3.439 -4.178,3.411 -5.848,5.116 -8.013,4.519 -2.165,-0.597 0.266,-2.018 1.215,-2.615 0.949,-0.597 1.519,-1.649 -0.532,-0.881 -2.051,0.768 -2.772,0.91 -4.405,-1.99 -1.633,-2.899 -0.949,-2.046 -0.266,-3.951 0.684,-1.904 2.279,-3.922 0.38,-3.212 -1.899,0.71 -1.709,0.767 -1.557,-1.421 0.152,-2.189 -2.165,-2.672 -2.165,-2.672 0,0 0.911,2.189 0.076,3.581 -0.835,1.392 -0.873,1.876 0.494,2.245 1.367,0.37 2.658,1.535 0.797,2.814 -1.861,1.279 -1.633,1.109 -0.456,1.876 1.177,0.767 2.886,1.649 1.063,3.439 -1.823,1.79 -0.304,1.251 0.608,1.251 0.912,0 2.974,0.767 3.006,2.53 0.032,1.762 -0.12,2.189 2.842,0.54 2.962,-1.649 8.886,-1.45 8.81,0.853 -0.076,2.302 -0.76,2.871 2.393,0.91 3.153,-1.961 4.557,1.848 6.722,0 2.165,-1.848 3.532,-3.638 6.038,-0.483 2.506,3.155 1.725,4.109 -1.329,6.338 -3.054,2.229 1.481,0.512 3.798,-0.682 2.317,-1.194 8.81,-1.99 12.532,-0.341 3.722,1.649 4.785,1.279 7.519,0.142 2.734,-1.137 4.139,-1.393 8.279,1.364 4.139,2.757 7.367,3.269 9.532,3.212 0,0 -4.595,1.791 -9.76,2.132 -5.165,0.341 -7.747,1.307 -8.772,2.103 0,0 3.106,1.876 3.718,4.178 0,0 3.384,-0.455 5.055,0.227 0,0 -0.873,2.444 1.215,3.752 2.089,1.307 3.532,1.791 1.975,3.581 -1.557,1.791 2.393,1.023 0.152,3.553 -2.241,2.53 -2.848,3.809 -2.924,5.855 -0.076,2.047 0.494,2.359 -1.519,2.558 -2.013,0.199 0.342,2.444 -0.57,5.116 -0.911,2.672 -6.532,2.388 -6.304,9.55 0,0 1.557,-3.496 4.899,-6.566 3.342,-3.07 3.456,-3.354 3.38,-5.202 -0.076,-1.848 -0.228,-1.421 1.557,-2.814 1.785,-1.393 -0.797,-2.7 0.987,-4.69 1.785,-1.99 0.228,-1.592 2.317,-3.61 2.089,-2.018 -1.823,-2.274 0.304,-4.349 2.127,-2.075 -5.127,-4.434 -3.038,-5.77 2.089,-1.336 5.696,-3.183 -6.456,-2.984 0,0 2.924,-4.832 13.178,-3.78 0,0 -2.696,1.904 -2.924,3.78 0,0 1.177,0.597 1.899,0.767 0,0 -0.397,1.375 -2.354,3.041 0,0 5.431,3.041 6.304,4.832 0,0 -3.304,1.023 -4.139,2.473 0,0 1.443,1.649 1.937,3.78 0,0 -3.684,-0.455 -4.177,2.302 -0.494,2.757 -1.595,0.881 -1.595,2.501 0,1.62 0.114,2.274 -1.177,2.53 -1.291,0.256 -0.228,1.62 0,2.53 0.228,0.91 0.646,2.984 0.456,3.638 0,0 -1.861,0.028 -2.734,0.284 0,0 0.57,3.951 -1.633,4.519 -2.203,0.568 1.177,1.364 -1.177,1.791 -2.355,0.426 -2.051,0.568 -4.937,5.742 0,0 2.468,-1.393 5.013,-3.07 2.544,-1.677 -0.19,-1.165 4.025,-5.315 4.215,-4.15 3.456,-4.463 3.114,-6.566 -0.342,-2.103 -0.418,-3.809 1.101,-5.798 1.519,-1.99 2.013,-4.264 7.405,-3.979 0,0 -1.595,-3.588 -3.57,-4.522 0,0 2.582,-1.788 5.317,-2.043 0,0 -2.393,-2.871 -7.291,-5.656 0,0 4.025,-3.468 4.975,-5.116 0,0 -1.861,0.284 -3.342,-0.057 0,0 0.698,-1.659 4.329,-4.036 0,0 1.937,1.876 1.861,3.837 0,0 6.228,-3.581 9.76,-3.183 0,0 1.785,4.491 -6.874,12.904 0,0 5.355,0.512 7.633,0.199 0,0 -1.291,4.15 -7.785,6.594 -6.494,2.444 1.404,5.301 -5.241,4.804 -6.645,-0.497 -4.595,1.791 -4.405,5.173 0.19,3.382 0.418,6.85 0.266,7.788 0,0 -5.317,-1.734 -5.203,3.411 0.114,5.145 -2.734,6.225 -3.304,6.708 0,0 -1.543,-1.379 -3.874,-2.189 -0.005,0.005 -3.303,6.267 -8.626,9.925 z"
       fill="#5a3719"
       id="path40" />
    <path
       d="m 862.28,212.78 c 0,0 1.823,-0.298 4.899,1.62 3.076,1.918 6.095,-2.046 2.677,-3.07 -3.418,-1.024 0.057,-2.217 3.133,0.256 3.076,2.473 4.272,1.236 5.412,0.384 1.14,-0.852 2.506,-1.322 0.399,-2.771 -2.108,-1.45 1.424,-0.767 3.019,0.256 1.595,1.023 0.968,2.089 0.741,2.388 -0.227,0.299 -0.399,3.624 2.734,0.512 3.133,-3.112 4.671,-6.225 4.614,-7.76 0,0 1.709,1.066 1.937,3.027 0.228,1.961 2.62,-1.066 3.418,-2.132 0.797,-1.066 2.165,-3.756 1.994,-5.779 0,0 2.108,3.26 5.241,0 3.133,-3.26 1.766,-1.213 5.526,-2.194 3.76,-0.981 8.488,-3.752 11.051,-6.864 2.563,-3.112 2.734,-1.023 6.038,-1.791 3.304,-0.767 9.969,-5.372 10.595,-7.888 0.627,-2.515 0.513,-4.05 -0.456,-3.198 -0.969,0.852 -0.57,0.171 -1.994,-0.725 -1.424,-0.895 -3.532,1.151 -3.532,1.151 0,0 2.108,1.62 0.513,2.302 -1.595,0.682 -3.133,2.942 -6.152,2.089 -3.019,-0.853 -6.152,2.771 -6.152,2.771 0,0 2.62,2.174 -0.911,3.539 -3.532,1.364 -2.962,1.833 -5.127,0.341 0,0 -3.76,4.775 -5.924,5.756 0,0 -1.025,-0.085 -1.709,-0.981 0,0 -2.449,2.771 -3.703,3.326 0,0 -1.538,-1.492 -2.962,-1.961 0,0 -2.962,3.667 -5.469,4.818 0,0 -0.741,-1.364 -2.336,-2.302 0,0 -0.788,4.796 -6.038,7.632 0,0 0.342,-1.279 -2.279,-3.027 0,0 -6.494,5.628 -9.057,6.182 -2.563,0.554 -0.171,-1.194 0.171,-1.919 0.342,-0.725 1.937,-3.112 -1.196,-4.093 -3.133,-0.981 -2.62,0.682 -3.304,0.981 -0.684,0.298 -0.741,-0.554 -2.848,-0.256 -2.108,0.298 -1.766,1.236 -2.677,1.578 -0.911,0.341 -4.557,-0.597 -4.386,1.833 0.171,2.43 1.88,4.093 -1.31,5.5 -3.192,1.407 1.195,1.109 5.41,0.469 z"
       fill="#7b3c20"
       id="path41" />
    <path
       d="m 875.44,205.92 c 0,0 0.741,-3.07 -1.937,-4.562 0,0 17.203,-2.643 4.215,-9.209 0,0 15.437,-3.198 11.792,-8.143 -3.646,-4.946 -7.19,-3.837 -7.725,-3.752 -0.535,0.085 3.282,-2.857 4.307,-2.473 1.025,0.384 13.444,5.159 10.254,1.066 -3.19,-4.093 -2.905,-3.837 -3.418,-5.031 0,0 4.101,0 10.311,6.054 0,0 1.31,-1.364 1.139,-3.837 0,0 4.443,1.236 5.81,2.558 0,0 0.741,-1.535 0.456,-2.388 0,0 3.817,2.046 5.127,4.221 0,0 1.766,-1.535 2.051,-3.283 0,0 3.817,1.578 4.785,2.771 0,0 1.253,-1.663 0.797,-4.05 0,0 6.323,1.876 7.177,-2.046 0,0 6.361,1.379 2.227,3.855 -5.313,3.183 -0.537,-0.785 -5.987,3.009 -4.226,2.942 -6.589,6.395 -8.621,5.685 -1.493,-0.522 -3.285,3.823 -5.336,1.691 -2.051,-2.132 -2.051,-1.151 -3.475,1.066 -1.424,2.217 -3.646,4.477 -3.646,4.477 0,0 -1.109,-0.64 -1.95,-1.492 0,0 -1.24,2.046 -2.835,3.581 0,0 -1.253,-1.663 -3.247,-2.686 0,0 -3.133,3.624 -5.07,4.86 0,0 -1.823,-1.791 -3.76,-2.388 0,0 -0.285,4.903 -4.101,7.419 0,0 -0.797,-1.62 -3.247,-2.601 0.002,0 -1.935,3.1 -6.093,5.628 z"
       fill="#5a3719"
       id="path42" />
    <path
       d="m 866.39,198.41 c 0,0 -2.09,1.606 -0.741,3.326 1.349,1.719 1.424,-0.298 3.133,-0.469 1.709,-0.171 22.786,-3.795 3.703,-9.508 0,0 0.797,-0.725 4.101,-1.023 3.304,-0.298 15.266,-3.539 9.684,-7.802 -5.582,-4.264 -10.225,1.449 -5.526,-3.667 3.76,-4.093 0.741,-6.097 0.741,-6.097 0,0 -11.108,7.419 -13.557,8.783 -2.449,1.364 -5.981,3.965 -1.823,5.329 4.158,1.364 7.007,-4.519 7.405,-3.198 0.399,1.322 -8.374,6.182 -7.12,8.442 1.253,2.26 0.968,4.136 3.133,3.709 2.165,-0.426 8.032,1.109 3.247,0.938 -4.785,-0.171 -6.38,1.237 -6.38,1.237 z"
       fill="#5a3719"
       id="path43" />
    <path
       d="m 874.02,187.798 c 0,0 -1.937,1.361 0.627,0.679 2.563,-0.682 7.69,-1.791 6.722,-3.112 -0.97,-1.322 -4.387,0.262 -7.349,2.433 z"
       id="path44" />
    <path
       d="m 907.86,165.8 c 0,0 9.798,-0.256 13.842,2.473 4.044,2.729 5.981,4.519 7.177,4.903 0,0 -0.171,3.709 -6.437,1.066 0,0 0.342,1.791 -0.342,3.539 0,0 -2.336,-1.535 -5.013,-2.217 0,0 -0.456,1.407 -1.31,2.217 0,0 -2.791,-2.814 -5.924,-3.667 0,0 -0.627,1.407 -1.196,1.919 0,0 -3.361,-1.919 -5.924,-1.876 0,0 0.513,2.047 0,2.857 0,0 -7.121,-5.585 -13.444,-4.86 0,0 3.076,4.477 5.07,6.694 0,0 -12.817,-1.023 -10.709,-7.93 2.108,-6.907 -0.171,-5.172 8.203,-5.123 8.374,0.049 16.007,0.005 16.007,0.005 z"
       fill="#7b3c20"
       id="path45" />
    <path
       d="m 847.76,184.88 c 0,0 -1.481,1.207 0,2.231 1.481,1.023 6.551,-2.643 7.234,-3.155 0.684,-0.512 2.506,-0.426 0,1.45 -2.506,1.876 -5.07,3.922 -6.665,5.969 0,0 8.488,-2.302 14.013,-7.077 5.525,-4.775 -0.257,-1.682 9.171,-6.225 9.428,-4.543 14.355,-11.853 9.285,-11.085 -5.07,0.767 -9.627,6.566 -13.557,8.783 -3.93,2.217 -6.152,2.515 -5.526,1.236 0.627,-1.279 3.532,-0.767 8.943,-5.116 5.412,-4.349 4.215,-4.05 4.272,-5.585 0.057,-1.535 -2.051,-5.329 6.095,-9.593 8.146,-4.264 33.495,-19.101 35.659,-24.174 0,0 -7.405,0.81 -17.146,8.015 -9.741,7.205 -14.956,10.574 -17.646,11.469 -2.69,0.895 -2.348,0.298 -4.114,2.388 -1.766,2.089 -11.393,11.384 -13.159,12.748 -1.766,1.364 -2.279,2.26 -2.43,5.041 -0.066,1.267 -11.068,9.554 -14.429,12.68 z"
       fill="#5a3719"
       id="path46" />
    <path
       d="m 881.25,165.56 c 0,0 -1.88,0.873 -3.703,0 -1.823,-0.873 -1.253,-4.796 3.133,-7.141 4.386,-2.345 12.361,-5.841 16.406,-6.353 0,0 -0.57,5.074 -13.159,9.337 0,0 0.798,2.642 -2.677,4.157 z"
       fill="#5a3719"
       id="path47" />
    <path
       d="m 885.7,162.26 c 0,0 0.366,1.248 0,2.388 0,0 23.412,2.26 35.489,-11.981 0,0 -16.577,1.535 -23.184,5.5 0,0 4.158,-5.202 16.577,-9.508 12.418,-4.306 17.488,-9.636 18.57,-12.577 0,0 -15.705,5.5 -23.184,5.5 0,0 -1.481,-0.043 -2.905,0.767 -1.424,0.81 -11.45,8.101 -14.127,9.337 0,0 5.639,-0.469 7.633,-2.302 -10e-4,0 -3.92,10.539 -14.869,12.876 z"
       fill="#aa5323"
       id="path48" />
    <path
       d="m 840.87,175.64 c 0,0 -3.019,2.132 -1.766,3.198 1.253,1.066 3.411,1.279 8,-2.558 4.589,-3.837 15.697,-13.388 8.678,-13.771 0,0 -8.988,-0.554 -8.678,4.946 0.314,5.554 -5.783,7.836 -6.234,8.185 z m -20.735,-3.241 c 0,0 5.924,3.453 3.703,6.31 0,0 18.172,-15.434 13.045,-18.76 -5.127,-3.326 -9.171,2.942 -7.918,3.581 1.253,0.64 3.93,-0.554 2.962,0.64 -0.968,1.194 -10.652,7.718 -11.792,8.229 z m -4.728,-4.988 c 0,0 3.987,1.194 4.158,2.899 0.171,1.705 12.019,-8.357 8.886,-12.577 -1.437,-1.935 -8.032,-2.729 -8.317,1.066 -0.285,3.795 5.924,-0.384 3.76,2.345 -2.838,3.578 -7.632,5.67 -8.487,6.267 z m 42.642,-8.408 c 0,0 -2.539,1.842 -0.26,2.951 2.279,1.109 3.76,-0.64 4.899,-1.663 1.139,-1.023 6.779,-5.159 8.089,-7.802 1.31,-2.643 3.247,-3.453 5.298,-4.818 2.051,-1.364 16.52,-8.57 25.406,-16.543 8.886,-7.973 5.184,-5.926 14.412,-11.043 9.228,-5.116 15.266,-9.806 17.203,-15.349 0,0 -4.272,1.407 -8.032,3.837 -3.76,2.43 -12.247,7.76 -13.956,8.484 -1.709,0.724 -4.101,0.853 -5.355,2.174 -1.253,1.322 -1.139,2.899 -5.583,6.566 -4.443,3.667 -27.4,19.868 -30.191,22.17 -2.791,2.305 -11.93,11.036 -11.93,11.036 z"
       fill="#5a3719"
       id="path49" />
    <path
       d="m 839.58,164.37 c 0,0 2.506,-1.382 7.215,-1.06 4.709,0.321 23.317,-17.699 28.71,-21.337 5.393,-3.638 22.254,-15.804 24.533,-18.021 2.279,-2.217 2.658,-4.605 4.633,-5.912 1.975,-1.307 3.798,-1.137 8.355,-3.752 4.557,-2.615 26.431,-15.69 25.14,-23.307 0,0 -32.583,19.555 -40.103,25.922 -7.519,6.367 -28.406,20.806 -32.128,23.137 -3.722,2.331 -6.684,6.367 -12.912,11.426 -6.228,5.059 -12.379,9.322 -13.443,12.904 z"
       fill="#aa5323"
       id="path50" />
    <path
       d="m 832.74,157.44 c 0,0 6.03,-0.617 6.836,2.331 0,0 12.912,-8.868 15.874,-12.506 2.962,-3.638 -0.987,-1.535 6.38,-6.367 7.367,-4.832 31.824,-21.943 35.318,-25.013 3.494,-3.07 10.102,-7.106 15.418,-10.687 5.317,-3.581 26.128,-13.757 23.773,-22.114 0,0 -15.266,10.232 -18.684,12.45 -3.418,2.217 -4.861,0.966 -8.355,3.695 -3.494,2.729 -11.165,8.186 -12.532,9.891 -1.367,1.705 -13.064,10.687 -18.76,14.496 -5.696,3.809 -18.456,11.199 -24.609,16.543 -6.153,5.343 -18.077,15.235 -20.659,17.281 z"
       fill="#aa5323"
       id="path51" />
    <path
       d="m 813.95,155.69 c 0,0 3.051,0.044 3.962,1.238 0,0 5.64,-4.947 11.64,-0.058 0,0 22.026,-14.894 24.229,-18.646 2.203,-3.752 5.772,-3.809 14.355,-10.062 8.583,-6.253 13.975,-8.868 19.672,-13.302 5.696,-4.434 10.481,-9.437 14.583,-12.108 4.101,-2.672 14.431,-9.437 12.684,-15.292 0,0 -8.355,4.775 -13.823,10.744 -5.468,5.969 -5.013,0.853 -10.557,5.855 -5.545,5.003 -14.127,11.824 -21.267,15.349 -7.14,3.525 -2.81,3.127 -7.975,6.424 -5.165,3.297 -4.785,2.786 -6.684,3.24 -1.899,0.455 -4.785,1.819 -6.684,4.036 -1.899,2.217 -6.988,5.23 -12.532,8.357 -5.545,3.126 -19.178,11.241 -21.603,14.225 z"
       fill="#aa5323"
       id="path52" />
    <path
       d="m 820.59,144.26 c 0,0 -1.196,-2.473 0.911,-4.221 2.108,-1.748 5.924,-6.353 6.551,-9.252 0.627,-2.899 0.171,-2.43 6.266,-4.946 6.095,-2.515 19.937,-8.996 27.742,-13.814 7.804,-4.818 19.653,-12.577 22.102,-14.453 2.449,-1.876 8.393,-6.054 10.804,-8.015 0,0 1.158,3.283 -1.462,5.543 -2.62,2.26 -12.703,9.337 -14.355,10.446 -1.652,1.109 -10.937,7.333 -13.785,8.911 -2.848,1.578 -9.912,5.159 -12.418,7.248 -2.506,2.089 -2.184,2.729 -13.368,8.186 -11.184,5.457 -11.697,6.012 -11.355,6.438 0.342,0.426 5.355,-1.748 7.747,-3.155 2.393,-1.407 11.564,-5.585 14.298,-7.76 2.734,-2.174 7.348,-5.585 9.342,-6.694 1.994,-1.109 18.513,-11 23.241,-14.496 4.728,-3.496 6.038,-4.647 7.064,-4.05 1.025,0.597 2.677,0.64 0.57,2.643 -2.108,2.004 -8.829,7.888 -11.393,9.593 -2.563,1.705 -10.595,6.481 -12.817,7.632 -2.222,1.151 -3.076,3.283 -4.329,4.178 -1.253,0.895 -4.899,3.496 -9.342,4.519 -4.443,1.023 -5.241,4.349 -8.146,6.225 -2.905,1.876 -23.579,13.004 -24.206,13.558 0,0 1.25,-1.28 0.338,-4.264 z"
       fill="#aa5323"
       id="path53" />
    <path
       d="m 892.13,97.834 c 0,0 -1.139,1.009 -0.513,1.578 0.827,0.75 3.703,2.771 7.291,-0.789 3.589,-3.56 13.23,-11.32 16.356,-13.153 3.126,-1.833 4.607,-3.581 4.493,-6.097 0.001,0 -14.81,7.888 -27.627,18.461 z m 20.393,-1.364 c 0,0 2.279,-3.795 7.861,-7.376 5.582,-3.581 13.963,-8.795 15.095,-10.062 0,0 1.994,2.26 -2.392,5.031 -4.386,2.771 -12.931,8.442 -13.956,9.252 -1.025,0.81 -2.734,2.046 -6.608,3.155 z"
       fill="#aa5323"
       id="path54" />
    <path
       d="m 799,137.78 c 0,0 -6.209,3.326 -3.987,5.415 2.222,2.089 5.526,1.45 6.893,0.853 1.367,-0.597 3.987,-1.236 4.386,-1.364 0.399,-0.128 5.81,-1.663 7.177,-4.178 1.367,-2.515 5.013,-5.415 7.918,-7.504 2.905,-2.089 3.93,-4.178 3.532,-5.67 -10e-4,-10e-4 -24.453,11.55 -25.919,12.448 z m -36.913,28.694 c 0,0 4.29,-2.551 10.311,-0.938 0,0 -0.285,-1.467 -1.196,-2.226 0,0 7.291,-1.91 8.886,-5.15 1.595,-3.24 1.937,-2.558 3.361,-3.496 1.424,-0.938 11.279,-8.868 10.14,-10.574 -1.139,-1.706 -1.367,-3.922 -2.222,-4.818 0,0 -2.051,2.814 -11.621,7.461 -9.57,4.647 -20.222,8.143 -27.969,18.589 -7.747,10.446 -6.95,16.5 2.506,19.143 0,0 6.665,-4.178 22.9,-2.729 16.235,1.45 21.76,7.546 22.786,8.655 1.025,1.109 4.329,5.116 1.139,11.895 0,0 3.247,1.407 3.532,-1.705 0.285,-3.112 0.456,-2.388 1.196,-1.919 0.741,0.469 1.652,0.554 1.31,-1.833 -0.342,-2.388 -1.481,-7.717 -2.962,-9.55 -1.481,-1.833 0.171,-1.023 1.139,-0.64 0.968,0.384 4.386,3.155 2.336,-1.961 -2.051,-5.116 -2.563,-2.601 -2.62,-2.345 -0.057,0.256 -0.456,1.535 -4.899,-1.791 -4.443,-3.326 -8.488,-4.946 -11.507,-5.798 -3.019,-0.852 -0.911,-0.853 0.854,-1.492 1.766,-0.64 4.158,-1.023 4.956,-2.984 0,0 -1.766,0.426 -5.013,-0.725 -3.247,-1.151 -9.741,-1.279 -14.982,2.643 0,0 1.652,-6.054 -3.133,-5.713 -4.785,0.341 -8.146,0.213 -13.216,4.221 0,0 -0.285,-6.097 4.5,-9.252 4.785,-3.155 4.158,-1.236 6.836,-2.046 2.678,-0.81 2.905,-3.496 1.766,-4.349 0,0 6.266,1.066 16.804,-7.674 0,0 -5.662,7.419 -12.544,8.911 0,0 -1.09,3.949 -7.337,4.818 -6.246,0.869 -6.094,4.477 -6.037,5.372 z"
       fill="#7b3c20"
       id="path55" />
    <path
       d="m 744.1,202.61 c 0,0 3.074,-18.372 20.279,-19.702 15.076,-1.165 19.861,0.711 22.862,1.677 3.001,0.966 10.329,3.127 7.481,5.486 -2.848,2.359 -4.481,1.933 -4.481,1.933 0,0 3.304,-3.667 0.304,-4.292 -3,-0.625 -3.266,1.194 -3.684,2.729 -0.418,1.535 -0.608,3.382 -2.089,4.576 0,0 -1.519,-1.762 -3.684,-0.227 -2.165,1.535 -0.304,1.592 0.57,1.336 0.873,-0.256 2.013,-0.711 1.785,0.625 -0.228,1.336 -1.443,3.638 -5.013,5.514 -3.57,1.876 -3.38,1.762 -7.633,2.444 -4.253,0.682 -8.203,2.359 -13.633,7.021 -5.431,4.661 -11.374,3.106 -12.57,-2.103 -1.025,-4.467 -0.494,-7.017 -0.494,-7.017 z"
       fill="#5a3719"
       id="path56" />
    <path
       d="m 763.794,202.035 c 0,0 1.652,-3.624 -1.31,-5.287 0,0 -9.058,1.553 -11.735,-1.194 0,0 9.855,-0.512 15.95,-2.899 6.095,-2.388 4.272,-4.05 2.165,-4.434 -2.108,-0.384 -5.981,0.554 -6.38,2.473 0,0 -1.196,-2.046 0.342,-3.411 1.538,-1.365 3.931,-1.62 6.095,-0.981 2.165,0.64 4.101,1.578 11.222,-2.132 0,0 4.101,0.938 4.215,3.709 0.114,2.771 -0.285,3.922 -0.627,4.349 -0.342,0.426 -0.854,1.236 -1.709,1.151 -0.854,-0.085 -1.937,-0.298 -3.019,1.62 -1.082,1.919 -1.732,3.581 -3.543,4.86 0,0 2.119,-5.969 -3.122,-7.376 0,0 -4.329,2.558 -7.633,2.686 0,0.002 4.216,3.924 -0.911,6.866 z"
       id="path57" />
    <path
       d="m 773.25,191.078 c 0,0 -1.994,-2.196 0.627,-2.43 2.62,-0.234 6.095,1.684 5.412,3.304 -0.684,1.62 -3.76,1.556 -6.039,-0.874 z"
       fill="#5a3719"
       id="path58" />
    <path
       d="m 921.3,161.96 c 0,0 -4.785,1.364 -0.342,4.306 4.443,2.942 6.608,5.5 9.855,6.353 3.247,0.853 6.608,2.046 6.551,5.287 -0.057,3.24 -0.684,4.519 -2.449,6.736 -1.766,2.217 0.968,3.198 3.304,1.919 2.336,-1.279 4.329,-1.961 5.867,-2.857 1.538,-0.896 4.101,-0.767 1.766,0.426 -2.336,1.194 -4.785,1.919 -1.766,2.004 3.019,0.085 21.191,0.426 25.007,-0.81 3.816,-1.236 8.772,-1.62 9.228,-6.566 0,0 0.171,-2.196 1.595,-3.112 1.424,-0.917 2.393,-3.027 0.313,-1.599 -2.079,1.428 -3.674,2.153 -4.073,1.727 -0.399,-0.426 -0.513,-0.725 0.997,-1.428 1.51,-0.703 2.364,-0.043 3.76,-2.11 1.396,-2.068 1.259,-1.727 0.516,-2.515 -0.744,-0.789 -2.31,-1.364 -1.541,-2.366 0.769,-1.002 1.538,-3.986 -1.794,-2.238 -3.332,1.748 -9.893,6.253 -12.931,6.964 -3.038,0.711 -5.355,1.635 -9.456,2.466 -4.101,0.831 -6.646,1.712 -11.013,4.128 -4.367,2.416 -4.063,-1.334 -3.304,-1.847 0,0 1.671,2.927 6.114,-0.882 4.443,-3.809 2.997,-0.238 13.861,-3.809 10.864,-3.571 8.203,-4.15 12.456,-6.367 4.253,-2.217 8.279,-2.302 5.317,-5.258 -2.962,-2.956 -3.304,-3.212 -7.139,0 -3.836,3.212 -14.431,8.385 -20.773,8.527 0,0 24.495,-10.574 21.988,-12.108 -2.506,-1.535 -5.203,-2.899 -6.912,-3.269 -1.709,-0.37 -2.165,-0.796 -6.114,0.966 -3.949,1.762 -4.595,2.189 -5.734,2.302 -1.139,0.113 -4.443,0.767 -9.114,3.183 -4.671,2.416 -7.177,3.382 -10.292,5.287 0,0 2.165,-4.377 11.811,-7.276 9.646,-2.899 14.583,-5.571 13.519,-6.054 -1.063,-0.483 -3.456,-0.881 -5.279,-0.597 -1.823,0.284 -1.291,-0.142 -7.177,2.189 -5.886,2.331 -3.38,1.819 -8.127,2.842 -4.747,1.023 -6.684,2.075 -9.038,3.07 0,0 0.96,-1.28 4.158,-2.452 1.643,-0.601 -1.798,-1.221 2.763,-1.406 0.372,-0.015 0.828,0.093 1.281,-0.036 5.896,-1.691 12.342,-4.008 11.355,-4.178 -0.987,-0.171 -6.722,-0.767 -12.532,1.904 -5.81,2.672 -3.152,1.762 -5.203,2.189 -2.051,0.426 -6.38,3.155 -7.823,4.32 -1.444,1.164 -3.456,2.045 -3.456,2.045 z"
       fill="#ffffff"
       id="path59" />
    <path
       d="m 777.84,188.43 c 0,0 2.279,0.682 2.848,2.281 0.569,1.599 1.994,-0.703 1.937,-1.428 -0.057,-0.725 -1.453,-3.922 -3.931,-2.43 -2.478,1.492 -1.235,1.439 -0.854,1.577 z"
       fill="#5a3719"
       id="path60" />
    <path
       d="m 771.484,220.027 c 0,0 4.863,-2.287 8.943,-2.004 0,0 -1.595,-5.756 1.253,-4.775 2.848,0.981 2.051,0.597 2.62,0.554 0,0 0.171,-3.795 -0.57,-5.287 0,0 2.905,0.682 5.867,0.725 0,0 -2.791,-5.457 0.285,-9.209 0,0 1.689,3.581 5.487,4.477 0,0 0.018,-1.535 0,-3.155 0,0 2.26,-0.256 4.026,0.682 1.766,0.938 3.247,-9.891 -1.994,-12.279 0,0 -1.253,2.046 -6.152,3.07 -4.899,1.023 -4.859,2.007 -6.873,5.694 -2.014,3.687 -3.779,3.729 -7.881,6.372 -4.101,2.643 -6.594,8.015 -6.829,8.484 0.002,0 2.16,2.643 1.818,6.651 z"
       fill="#7b3c20"
       id="path61" />
    <path
       d="m 934.91,157.12 c 1.781,-0.312 -1.798,-1.221 2.763,-1.406 0.372,-0.015 0.828,0.093 1.281,-0.036 5.896,-1.691 12.342,-4.008 11.355,-4.178 -0.987,-0.171 -6.722,-0.767 -12.532,1.904 -5.81,2.672 -3.152,1.762 -5.203,2.189 -2.051,0.426 -6.38,3.155 -7.823,4.32 -1.443,1.165 -3.456,2.046 -3.456,2.046 0,0 -4.785,1.364 -0.342,4.306 4.443,2.942 6.608,5.5 9.855,6.353 3.247,0.853 6.608,2.046 6.551,5.287 -0.057,3.24 -0.684,4.519 -2.449,6.736 -1.766,2.217 0.968,3.198 3.304,1.919 2.336,-1.279 4.329,-1.961 5.867,-2.857 1.538,-0.896 4.101,-0.767 1.766,0.426 -2.336,1.194 -4.785,1.919 -1.766,2.004 3.019,0.085 21.191,0.426 25.007,-0.81 3.816,-1.236 8.772,-1.62 9.228,-6.566 0,0 0.171,-2.196 1.595,-3.112 1.424,-0.917 2.393,-3.027 0.313,-1.599 -2.079,1.428 -3.674,2.153 -4.073,1.727 -0.399,-0.426 -0.513,-0.725 0.997,-1.428 1.51,-0.703 2.364,-0.043 3.76,-2.11 1.396,-2.068 1.259,-1.727 0.516,-2.515 -0.382,-0.405 -0.98,-0.753 -1.368,-1.132 0,0 -1.094,-0.957 -2.366,-0.147 -1.272,0.81 -6.855,3.169 -9.095,3.439 -2.241,0.27 -4.557,1.222 -8.583,3.183 -4.026,1.961 -10.709,5.955 -11.773,2.245 0,0 -2.915,1.04 -3.551,1.364 -4.489,2.288 -4.097,-0.959 -3.304,-1.847 0,0 -2.354,2.643 -2.26,0.241 0.095,-2.402 1.614,-1.99 4.234,-2.757 2.62,-0.767 6.76,-2.473 5.051,-3.894 -1.709,-1.421 -3.513,1.411 -5.412,2.276 -1.899,0.865 -5.696,1.632 -6.285,-1.125 -0.589,-2.757 -0.57,-4.676 -5.715,-4.974 -5.145,-0.298 -4.956,-3.51 -3.551,-4.889 1.405,-1.379 2.641,-3.738 7.464,-4.583 z"
       fill="#999999"
       id="path62" />
    <path
       d="m 951.263,182.053 c 0,0 8.013,-3.695 15.38,-5.429 7.367,-1.734 1.595,0.227 0.342,0.625 -1.253,0.398 -12.722,4.178 -15.418,5.429 -2.697,1.251 -2.141,0.181 -0.304,-0.625 z m 1.861,1.62 c 0,0 9,-2.984 10.671,-1.734 1.671,1.251 0.304,0.625 -1.671,0.91 -1.975,0.284 -7.405,1.194 -8.848,1.165 -1.444,-0.028 -0.152,-0.341 -0.152,-0.341 z m 14.431,-3.126 c 0,0 1.709,-0.313 1.899,0.313 0.19,0.625 -0.76,0.711 -1.709,0.597 -0.95,-0.114 -1.785,-0.655 -0.19,-0.91 z"
       id="path63" />
    <path
       d="m 729.838,258.967 c 0,0 -0.336,-7.902 3.651,-11.91 3.987,-4.008 23.355,-24.163 26.317,-29.797 0,0 2.506,1.742 2.62,4.94 0,0 3.247,-5.592 5.81,-7.699 0,0 2.279,2.327 1.88,6.974 0,0 4.671,-2.473 11.906,-2.515 0,0 -2.677,3.155 -2.791,4.988 0,0 10.026,-1.109 15.266,-0.256 0,0 -13.785,7.717 -9.912,8.399 3.873,0.682 7.918,-0.043 7.918,-0.043 0,0 -4.386,4.477 -11.393,5.372 0,0 8.886,-0.128 10.652,1.876 0,0 -8.659,1.322 -15.608,6.608 0,0 -0.649,-0.298 -0.695,-2.26 0,0 -0.216,1.748 -2.21,3.411 -1.994,1.663 -6.779,5.202 -8.545,6.992 -1.766,1.791 -5.07,5.329 -8.602,5.159 0,0 0.797,-2.729 -1.823,-3.581 -2.62,-0.853 -5.639,-0.256 -7.747,2.004 0,0 -9.342,0.128 -12.304,0.554 0,0 2.108,-3.368 4.044,-3.283 1.937,0.085 9.741,1.151 10.424,-4.178 0.684,-5.329 -5.013,-3.922 -2.848,-7.077 2.165,-3.155 1.652,-3.027 1.709,-3.326 0,0 -1.766,0.981 -2.791,3.795 -1.025,2.814 -1.766,4.988 -5.469,7.802 -3.703,2.814 -5.236,4.518 -6.261,6.479 0.002,0.002 -1.687,0.237 -3.198,0.572 z"
       fill="#ffffff"
       id="path64" />
    <path
       d="m 738.82,254.19 c 0,0 0.304,-1.08 3.038,-1.535 2.734,-0.455 2.848,-1.762 2.506,-2.331 -0.342,-0.569 -1.975,-0.568 0.684,-3.581 0,0 0.949,0.256 1.595,0.995 0.646,0.739 3.645,7.163 -7.823,6.452 z"
       fill="#ffffff"
       id="path65" />
    <path
       d="m 732.257,248.61 c 0.142,5.265 7.042,3.309 7.042,3.309 -2.458,1.868 -3.961,3.247 -4.993,4.537 0.456,-2.558 -3.891,-3.198 -3.891,-3.198 0.358,-1.564 0.93,-3.219 1.842,-4.648 z m 25.371,-28.138 c 0.999,-1.307 1.756,-2.406 2.179,-3.211 0,0 2.506,1.742 2.62,4.94 0,0 3.247,-5.592 5.81,-7.699 0,0 2.279,2.327 1.88,6.974 0,0 4.671,-2.473 11.905,-2.515 0,0 -2.677,3.155 -2.791,4.988 0,0 10.026,-1.109 15.266,-0.256 0,0 -13.785,7.717 -9.912,8.399 3.874,0.682 7.918,-0.043 7.918,-0.043 0,0 -4.386,4.477 -11.393,5.372 0,0 8.886,-0.128 10.652,1.876 0,0 -2.53,0.386 -5.952,1.576 0,0 -2.555,-2.4 -9.96,-2.059 0,0 5.76,-3.223 10.329,-4.264 0,0 -2.013,-2.643 -5.165,-0.227 0,0 -6.266,-4.32 -1.101,-7.987 0,0 -3.646,-0.767 -6.038,0.938 0,0 0.114,-2.956 2.772,-4.292 0,0 -7.026,-1.137 -8.772,4.036 0,0 -1.329,-2.132 -0.722,-4.548 0,0 -4.253,2.446 -6.19,5.217 0.002,10e-4 -0.639,-5.254 -3.335,-7.215 m -13.616,33.416 c -1.261,0.31 -2.949,0.443 -5.187,0.304 0,0 0.192,-0.681 1.639,-1.189 0,0 0.415,0.864 3.548,0.885"
       fill="#999999"
       id="path66" />
    <path
       d="m 756.787,233.969 c 0,0 3.19,2.515 4.329,4.05 0,0 2.905,-2.047 3.987,-3.709 0,0 2.279,1.492 3.076,3.709 0,0 1.595,-1.109 1.937,-2.643 0,0 4.022,0.853 5.343,2.174 0,0 0.615,-3.88 0,-6.31 0,0 2.803,0.213 4.512,0.938 0,0 -1.589,-2.558 6.525,-5.841 0,0 -6.136,1.317 -8.462,4.008 0,0 -2.62,0.128 -3.76,-0.682 0,0 0.171,3.922 0.057,5.798 0,0 -1.581,-0.64 -4.664,-1.364 0,0 -0.747,1.279 -1.26,1.577 0,0 -1.937,-1.535 -2.791,-3.496 0,0 -2.963,2.691 -4.101,3.837 0,0 -2.791,-1.961 -4.728,-2.046 z"
       id="path67" />
    <path
       d="m 738.44,273.88 c 0,0 1.253,0.597 4.215,-1.791 2.962,-2.388 11.336,-7.717 12.133,-11.981 0.797,-4.264 -2.677,-4.519 -5.412,-3.283 -2.734,1.236 -1.595,3.624 -1.481,4.391 0.114,0.767 0.171,3.752 -4.272,7.888 -4.443,4.137 -5.183,4.776 -5.183,4.776 z"
       fill="#ffc221"
       id="path68" />
    <path
       d="m 737.477,275.24 c 0,0 -6.722,-2.814 -0.684,-5.841 6.038,-3.027 8.716,-3.837 9.399,-6.353 0.684,-2.516 0.285,-2.089 -1.937,-1.023 -2.222,1.066 -10.766,4.903 -12.076,1.322 0,0 3.532,1.364 7.918,-0.767 4.386,-2.131 7.975,-2.771 5.184,-3.667 -2.791,-0.895 -12.874,0.213 -14.526,0.682 -1.652,0.469 -1.253,0.384 -1.538,2.046 -0.285,1.663 -2.165,5.159 -2.848,6.182 -0.684,1.023 -2.336,5.287 0.741,7.163 3.075,1.876 7.951,1.747 10.367,0.256 z"
       fill="#ffc221"
       id="path69" />
    <path
       d="m 734.858,260.573 c 0,0 -1.54,0.213 -1.255,0.81 0.285,0.597 0.687,0.512 1.255,0.554 0.568,0.042 1.423,-0.298 1.536,-0.682 0.114,-0.383 -0.965,-0.809 -1.536,-0.682 z"
       id="path70" />
    <path
       d="m 737.078,273.748 c 0,0 -3.19,-1.535 0.399,-3.496 3.589,-1.961 7.462,-3.837 7.975,-4.647 0,-0.001 -1.709,2.429 -8.374,8.143 z"
       fill="#ffffff"
       id="path71" />
  </g>
</svg>
