<?xml version="1.0" encoding="UTF-8" standalone="no"?>
<svg
   width="89.044319"
   height="171.15579"
   viewBox="-7200 -3600 1068.5318 2053.8695"
   fill="#046a38"
   stroke="#000000"
   stroke-width="7"
   version="1.1"
   id="svg52"
   sodipodi:docname="Flag_of_Dominica.svg"
   inkscape:version="1.3.2 (091e20e, 2023-11-25, custom)"
   xmlns:inkscape="http://www.inkscape.org/namespaces/inkscape"
   xmlns:sodipodi="http://sodipodi.sourceforge.net/DTD/sodipodi-0.dtd"
   xmlns:xlink="http://www.w3.org/1999/xlink"
   xmlns="http://www.w3.org/2000/svg"
   xmlns:svg="http://www.w3.org/2000/svg">
  <defs
     id="defs52" />
  <sodipodi:namedview
     id="namedview52"
     pagecolor="#ffffff"
     bordercolor="#000000"
     borderopacity="0.25"
     inkscape:showpageshadow="2"
     inkscape:pageopacity="0.0"
     inkscape:pagecheckerboard="0"
     inkscape:deskcolor="#d1d1d1"
     inkscape:zoom="0.84166667"
     inkscape:cx="66.534653"
     inkscape:cy="-166.93069"
     inkscape:window-width="1920"
     inkscape:window-height="1009"
     inkscape:window-x="1912"
     inkscape:window-y="-8"
     inkscape:window-maximized="1"
     inkscape:current-layer="svg52" />
  <title
     id="title1">Flag of Dominica</title>
  <g
     transform="rotate(86,-1918.6501,-4892.6063)"
     id="g9">
    <ellipse
       cx="492"
       cy="-213"
       rx="530"
       ry="108"
       id="ellipse7" />
    <ellipse
       cx="498"
       cy="-318"
       rx="530"
       ry="114"
       id="ellipse8" />
    <ellipse
       cx="523"
       cy="-267"
       rx="586"
       ry="91"
       id="ellipse9" />
  </g>
  <path
     fill="#9c4a00"
     d="m -6226.5,-1769.339 c -161,17 -865,25 -895,3 -30,-22 -75,-115 -75,-120 92,-4 52,-53 99,-79 46,-27 112,-9 132,23 20,33 4,65 29,66 26,0 526,-24 710,-11 30,2 53,29 53,59 0,30 -23,56 -53,59 z"
     id="path9" />
  <path
     id="c"
     fill="#ffcd00"
     d="m -6706.5,-1819.339 c -1,70 101,50 103,108 -3,61 -172,4 -174,-109 7,-112 172,-167 174,-103 2,53 -101,35 -103,104 z" />
  <use
     xlink:href="#c"
     x="60"
     id="use9"
     transform="translate(0,-1.3689484e-5)" />
  <use
     xlink:href="#c"
     x="125"
     id="use10"
     transform="translate(0,-1.3689484e-5)" />
  <use
     xlink:href="#c"
     x="186"
     id="use11"
     transform="translate(0,-1.3689484e-5)" />
  <g
     transform="matrix(0.85,0,0,1.8,-6665.5,-2637.339)"
     id="g17">
    <g
       transform="rotate(48.1)"
       id="g13">
      <ellipse
         cx="317"
         cy="154"
         rx="68"
         ry="58"
         id="ellipse11" />
      <ellipse
         cx="245"
         cy="229"
         rx="68"
         ry="58"
         id="ellipse12" />
      <ellipse
         cx="148"
         cy="242"
         rx="68"
         ry="58"
         id="ellipse13" />
    </g>
    <ellipse
       transform="rotate(63.2)"
       cx="251"
       cy="100"
       rx="73"
       ry="57"
       id="ellipse14" />
    <g
       transform="rotate(57.7)"
       id="g16">
      <ellipse
         cx="175"
         cy="124"
         rx="69"
         ry="57"
         id="ellipse15" />
      <ellipse
         cx="109"
         cy="192"
         rx="69"
         ry="57"
         id="ellipse16" />
    </g>
  </g>
  <path
     fill="#9063cd"
     d="m -6842.5,-3269.339 c 0,0 -176,152 -156,565 22,416 389,611 389,611 h 58 v -1176 z"
     id="path17" />
  <g
     transform="matrix(0.85,0,0,1.8,-6665.5,-2637.339)"
     id="g25">
    <g
       transform="rotate(40.6)"
       id="g19">
      <ellipse
         cx="421"
         cy="95"
         rx="58"
         ry="68"
         id="ellipse17" />
      <ellipse
         cx="337"
         cy="151"
         rx="58"
         ry="68"
         id="ellipse18" />
      <ellipse
         cx="255"
         cy="132"
         rx="58"
         ry="68"
         id="ellipse19" />
    </g>
    <ellipse
       transform="rotate(24.1)"
       cx="305"
       cy="161"
       rx="58"
       ry="73"
       id="ellipse20" />
    <g
       transform="rotate(29.9)"
       id="g24">
      <ellipse
         cx="450"
         cy="70"
         rx="57"
         ry="69"
         id="ellipse21" />
      <ellipse
         cx="375"
         cy="79"
         rx="57"
         ry="69"
         id="ellipse22" />
      <ellipse
         cx="279"
         cy="87"
         rx="57"
         ry="69"
         id="ellipse23" />
      <ellipse
         cx="192"
         cy="106"
         rx="57"
         ry="69"
         id="ellipse24" />
    </g>
  </g>
  <ellipse
     transform="rotate(66.5)"
     fill="#d50032"
     stroke-width="4"
     cx="-4927.4604"
     cy="4912.0273"
     rx="456"
     ry="148"
     id="ellipse25" />
  <g
     transform="matrix(1.25,0,0,0.85,-6665.5,-2637.339)"
     id="g35">
    <ellipse
       cx="56"
       cy="-579"
       rx="49"
       ry="63"
       id="ellipse26" />
    <ellipse
       cx="50"
       cy="-658"
       rx="49"
       ry="63"
       id="ellipse27" />
    <ellipse
       cx="-18"
       cy="-563"
       rx="46"
       ry="67"
       id="ellipse28" />
    <ellipse
       cx="-4"
       cy="-649"
       rx="46"
       ry="66"
       id="ellipse29" />
    <ellipse
       cx="-80"
       cy="-647"
       rx="52"
       ry="67"
       id="ellipse30" />
    <ellipse
       cx="15"
       cy="-758"
       rx="49"
       ry="63"
       id="ellipse31" />
    <ellipse
       cx="-50"
       cy="-746"
       rx="46"
       ry="66"
       id="ellipse32" />
    <ellipse
       cx="-148"
       cy="-643"
       rx="46"
       ry="67"
       id="ellipse33" />
    <ellipse
       cx="-132"
       cy="-693"
       rx="46"
       ry="66"
       id="ellipse34" />
    <ellipse
       cx="-113"
       cy="-749"
       rx="46"
       ry="66"
       id="ellipse35" />
  </g>
  <g
     transform="rotate(66.2,-1309.9151,-6431.0977)"
     id="g37">
    <ellipse
       cx="103"
       cy="-216"
       rx="543"
       ry="188"
       id="ellipse36" />
    <ellipse
       cx="245"
       cy="-323"
       rx="114"
       ry="36"
       id="ellipse37" />
  </g>
  <path
     d="m -6287.5,-2543.339 c 153,187 134,306 118,406 l -217,-233 v -234 z"
     id="path37" />
  <path
     d="m -6274.5,-2392.339 c 154,187 135,306 119,406 l -295,-457 v -307 c 23,60 23,171 176,358 z"
     id="path38" />
  <path
     d="m -6269.5,-2270.339 c 157,183 140,303 126,404 -50,-115 -78,-188 -236,-372 -157,-184 -83,-317 -74,-386 25,59 27,170 184,354 z"
     id="path39" />
  <ellipse
     transform="rotate(65)"
     cx="-5161.2031"
     cy="4631.4067"
     rx="202"
     ry="66"
     id="ellipse39" />
  <ellipse
     transform="rotate(65.7)"
     cx="-5034.6284"
     cy="4792.6558"
     rx="166"
     ry="58"
     id="ellipse40" />
  <ellipse
     transform="rotate(66.8)"
     cx="-4904.8911"
     cy="4983.5381"
     rx="166"
     ry="58"
     id="ellipse41" />
  <ellipse
     transform="rotate(62)"
     cx="-5502.895"
     cy="4382.1313"
     rx="127"
     ry="46"
     id="ellipse42" />
  <ellipse
     transform="rotate(65.6)"
     cx="-5199.3291"
     cy="4794.6655"
     rx="127"
     ry="46"
     id="ellipse43" />
  <g
     stroke-linecap="round"
     id="g48"
     transform="translate(-6665.5,-2637.339)">
    <path
       fill="none"
       d="m 439,750 a 59,59 0 1 0 0,118"
       id="path43" />
    <path
       d="m 21,-146 a 217.37168,46.078789 68 1 0 82,-43"
       id="path44" />
    <ellipse
       transform="rotate(65.6)"
       cx="-166"
       cy="-233"
       rx="127"
       ry="46"
       id="ellipse44" />
    <ellipse
       transform="rotate(66.8)"
       cx="-167"
       cy="-145"
       rx="127"
       ry="46"
       id="ellipse45" />
    <path
       d="m -30,-299 a 158.12673,33.66569 59.7 1 0 54,-41"
       id="path45" />
    <path
       d="m 1,-349 a 146.17761,33.412025 59.8 1 0 65,-21"
       id="path46" />
    <path
       d="m 117,-323 a 216.56673,46.551728 59.3 1 0 75,-56"
       id="path47" />
    <path
       d="m 48,-388 a 161,34 62.4 1 0 53,-45"
       id="path48" />
  </g>
  <g
     fill="#9063cd"
     id="g50"
     transform="translate(-6665.5,-2637.339)">
    <path
       id="n"
       d="m 97,-553 c -29,30 1,84 27,106 31,26 201,207 321,56 -96,-2 -276,-228 -348,-162 z" />
    <use
       xlink:href="#n"
       x="-21"
       y="-89"
       id="use48" />
    <use
       xlink:href="#n"
       x="-48"
       y="-174"
       id="use49" />
    <use
       xlink:href="#n"
       x="-107"
       y="-271"
       id="use50" />
    <path
       d="m -219,-917 c 61,-46 173,-59 260,-15 73,36 194,181 285,216 -64,11 -103,1 -144,-18 -81,58 -110,67 -192,79 -115,16 -210,-14 -244,-73 -34,-57 -19,-147 35,-189 z"
       id="path50" />
  </g>
  <g
     transform="matrix(1.4,0,0,0.7,-6665.5,-2637.339)"
     id="g51">
    <ellipse
       fill="#d50032"
       cx="-64"
       cy="-1181"
       rx="38"
       ry="44"
       id="ellipse50" />
    <ellipse
       fill="#000000"
       stroke="none"
       cx="-66"
       cy="-1184"
       rx="13"
       ry="23"
       id="ellipse51" />
  </g>
  <g
     fill="#ffcd00"
     id="g52"
     transform="translate(-6665.5,-2637.339)">
    <ellipse
       transform="rotate(69.6)"
       cx="-747"
       cy="-11"
       rx="45"
       ry="73"
       id="ellipse52" />
    <path
       d="m -206,-786 c 5,23 -12,55 -50,66 -38,16 -67,52 -84,111 -58,-134 -21,-191 41,-205 53,-17 85,-15 93,28 z"
       id="path52" />
  </g>
  <circle
     fill="#000000"
     stroke="none"
     cx="-6927.5"
     cy="-3393.3391"
     r="13"
     id="circle52" />
</svg>
