<?xml version="1.0" encoding="UTF-8" standalone="no"?>
<svg
   height="267.23569"
   viewBox="0 0 144.43236 267.23569"
   width="144.43236"
   version="1.1"
   id="svg103"
   sodipodi:docname="Flag_of_the_Commissioner_of_the_British_Indian_Ocean_Territory.svg"
   inkscape:version="1.3.2 (091e20e, 2023-11-25, custom)"
   xmlns:inkscape="http://www.inkscape.org/namespaces/inkscape"
   xmlns:sodipodi="http://sodipodi.sourceforge.net/DTD/sodipodi-0.dtd"
   xmlns:xlink="http://www.w3.org/1999/xlink"
   xmlns="http://www.w3.org/2000/svg"
   xmlns:svg="http://www.w3.org/2000/svg">
  <defs
     id="defs103" />
  <sodipodi:namedview
     id="namedview103"
     pagecolor="#ffffff"
     bordercolor="#000000"
     borderopacity="0.25"
     inkscape:showpageshadow="2"
     inkscape:pageopacity="0.0"
     inkscape:pagecheckerboard="0"
     inkscape:deskcolor="#d1d1d1"
     inkscape:zoom="1.3423244"
     inkscape:cx="-83.437359"
     inkscape:cy="108.76656"
     inkscape:window-width="1419"
     inkscape:window-height="784"
     inkscape:window-x="41"
     inkscape:window-y="0"
     inkscape:window-maximized="0"
     inkscape:current-layer="svg103" />
  <clipPath
     id="a">
    <path
       d="m 0,0 v 75 h 350 v 75 H 300 Z M 300,0 H 150 V 200 H 0 v -50 z"
       id="path1" />
  </clipPath>
  <clipPath
     id="b">
    <path
       d="M 0,0 H 300 V 150 H 0 Z"
       id="path2" />
  </clipPath>
  <path
     d="M 72.116633,54.632543 69.973676,258.20388 c 0,10.7143 9.688118,10.7143 10.714541,0 L 78.54526,54.632543 Z"
     fill="#a24300"
     stroke="#ffffff"
     stroke-width="1.2927"
     id="path13" />
  <g
     transform="matrix(0.43857038,0,0,0.3768272,-252.0951,0.16183385)"
     id="g40">
    <g
       transform="matrix(-0.314512,0.10485,-0.138292,-0.303235,1046.472,373.319)"
       id="g21">
      <g
         id="d"
         fill="none"
         stroke="#000000">
        <path
           d="m 496.063,549.213 17.717,70.866 35.433,-53.15 -17.717,88.583 35.433,-35.433 -35.433,88.582 35.433,-35.433 -35.433,88.583 35.433,-35.433 -35.433,106.299 35.433,-35.433 -35.433,106.299 35.433,-35.433 -35.433,106.299 -17.716,53.151 -17.717,17.72 -17.717,-17.72 -17.716,-53.151 -35.433,-106.299 35.433,35.433 -35.433,-106.299 35.433,35.433 -35.433,-106.299 35.433,35.433 -35.433,-88.583 35.433,35.433 -35.433,-88.582 35.433,35.433 -17.717,-88.583 35.433,53.15 z"
           fill="#006d00"
           stroke="#ffffff"
           stroke-width="8.25"
           transform="translate(177.1655,-224.0517)"
           id="path14" />
        <path
           d="M 496.063,549.213 V 1045.28"
           transform="translate(177.1655,-224.0517)"
           id="path15" />
        <path
           d="M 425.197,868.11 496.063,974.409 566.929,868.11"
           transform="translate(177.1655,-224.0517)"
           id="path16" />
        <path
           d="m 425.197,797.244 70.866,106.299 70.866,-106.299"
           transform="translate(177.1655,-224.0517)"
           id="path17" />
        <path
           d="m 425.197,726.378 70.866,106.299 70.866,-106.299"
           transform="translate(177.1655,-224.0517)"
           id="path18" />
        <path
           d="m 425.197,673.228 70.866,88.583 70.866,-88.583"
           transform="translate(177.1655,-224.0517)"
           id="path19" />
        <path
           d="m 425.197,620.079 70.866,88.582 70.866,-88.582"
           transform="translate(177.1655,-224.0517)"
           id="path20" />
        <path
           d="m 442.913,566.929 53.15,106.299 53.15,-106.299"
           transform="translate(177.1655,-224.0517)"
           id="path21" />
      </g>
    </g>
    <use
       transform="matrix(0.236516,-0.281856,0.294964,0.227618,354.5673,204.654)"
       xlink:href="#d"
       id="use21" />
    <use
       transform="matrix(0.15164,0.335243,-0.332899,0.167308,907.5388,-153.4696)"
       xlink:href="#d"
       id="use22" />
    <use
       transform="matrix(-0.209517,0.302465,-0.314697,-0.199448,1141.363,167.5798)"
       xlink:href="#d"
       id="use23" />
    <use
       transform="matrix(-0.207724,-0.258384,0.236176,-0.235153,689.9856,567.2772)"
       xlink:href="#d"
       id="use24" />
    <g
       transform="matrix(-0.362184,-0.09947167,-0.209809,0.317733,1222.415,-24.22945)"
       id="g31">
      <g
         id="e"
         fill="none"
         stroke="#000000">
        <path
           d="m 460.63,549.213 28.643,70.866 42.223,-53.15 -10.184,88.583 27.9,-35.433 -17.716,88.582 25.249,-35.433 -25.249,88.583 35.433,-35.433 -35.433,106.299 35.433,-35.433 -35.433,106.299 35.433,-35.433 -35.433,106.299 -17.716,53.151 -17.717,17.72 -17.717,-17.72 -17.716,-53.151 -35.433,-106.299 35.433,35.433 -35.433,-106.299 35.433,35.433 -35.433,-106.299 35.433,35.433 -45.617,-88.583 45.617,35.433 -53.15,-88.582 42.966,35.433 -25.25,-88.583 35.433,53.15 z"
           fill="#006d00"
           stroke="#ffffff"
           stroke-width="8.25"
           transform="translate(283.4647,-124.0162)"
           id="path24" />
        <path
           d="m 467.208,584.646 28.855,124.016 v 336.618"
           transform="translate(283.4647,-124.0162)"
           id="path25" />
        <path
           d="m 436.23,885.827 59.833,88.582 60.682,-88.582"
           transform="translate(283.4647,-124.0162)"
           id="path26" />
        <path
           d="m 434.533,814.961 61.53,88.582 60.682,-88.582"
           transform="translate(283.4647,-124.0162)"
           id="path27" />
        <path
           d="m 435.381,744.095 60.682,88.582 59.833,-88.582"
           transform="translate(283.4647,-124.0162)"
           id="path28" />
        <path
           d="m 432.835,690.945 63.228,70.866 53.149,-70.866"
           transform="translate(283.4647,-124.0162)"
           id="path29" />
        <path
           d="m 425.197,637.796 70.866,70.865 45.406,-70.865"
           transform="translate(283.4647,-124.0162)"
           id="path30" />
        <path
           d="m 436.124,593.238 53.15,86.886 35.327,-95.478"
           transform="translate(283.4647,-124.0162)"
           id="path31" />
      </g>
    </g>
    <use
       transform="matrix(0.360878,0.10411,0.01321056,0.380525,452.7614,-239.2657)"
       xlink:href="#e"
       id="use31" />
    <g
       fill="none"
       stroke="#000000"
       transform="matrix(0.04613187,-0.364743,0.326017,0.06479648,386.00474,315.20953)"
       id="g39">
      <path
         d="m 354.331,531.496 88.583,88.583 17.716,-53.149 v 88.582 l 35.433,-35.433 -17.716,88.583 35.432,-35.434 -17.716,88.584 35.433,-35.433 -17.716,106.299 35.433,-35.433 -35.433,106.299 35.433,-35.433 -17.717,106.298 -17.716,53.151 -17.717,17.72 -17.717,-17.72 -17.716,-53.151 -53.15,-82.294 35.434,11.429 -35.433,-106.299 35.433,35.433 -53.15,-106.299 35.433,35.433 -53.15,-88.584 53.15,35.434 -70.866,-88.583 53.149,35.433 -70.866,-70.866 70.866,35.433 z"
         fill="#006d00"
         stroke="#ffffff"
         stroke-width="8.25"
         id="path32" />
      <path
         d="m 378.962,560.015 63.952,95.497 17.716,53.15 8.859,45.205 8.858,78.811 9.315,70.866 8.401,141.736"
         id="path33" />
      <path
         d="m 425.197,903.544 63.665,70.866 50.749,-88.583"
         id="path34" />
      <path
         d="m 417.082,814.961 70.579,88.583 50.75,-88.583"
         id="path35" />
      <path
         d="m 407.48,752.443 70.867,80.235 45.948,-88.583"
         id="path36" />
      <path
         d="m 372.047,637.796 88.583,70.866 25.831,-70.866"
         id="path37" />
      <path
         d="m 360.618,602.363 82.296,53.149 10.515,-53.149"
         id="path38" />
      <path
         d="m 389.764,690.945 81.095,70.866 33.946,-70.866"
         id="path39" />
    </g>
  </g>
  <g
     transform="matrix(0.253333,0,0,0.253333,37.704512,132.28484)"
     id="g103">
    <path
       d="m 52.504,257.674 98.536,-17.68 102.642,17.68 -47.626,19.801 -87.861,1.415 z"
       fill="#9d9d9d"
       stroke="#000000"
       stroke-width="1.008"
       id="path40" />
    <path
       d="m 151.789,98.445 c -17.223,5.987 -36.302,-8.425 -67.359,15.094 0,0 -54.144,-23.163 -58.257,30.371 -0.165,2.167 8.57,15.223 9.786,14.29 6.804,-5.224 -3.23,5.072 -3.23,6.56 0,1.5 0.998,2.333 1.335,2.994 0.331,0.667 1.163,1.665 1.329,4.494 0.165,2.828 -6.137,10.544 -3.474,13.372 2.657,2.829 2.822,10.984 2.822,13.311 0,2.326 1.666,8.816 2.829,10.151 1.163,1.328 3.159,4.653 3.159,7.481 0,2.829 1.163,10.647 0.661,12.637 -0.496,1.996 2.994,4.494 6.16,5.492 3.159,0.998 43.935,1.706 101.162,0.708 57.233,-0.998 76.328,8.057 99.974,-0.543 3.655,-1.328 4.322,-4.322 3.992,-5.988 -0.337,-1.659 0,-6.979 0.998,-8.314 0.998,-1.328 7.653,-11.975 6.318,-13.971 1.256,-1.134 10.589,5.39 4.645,-0.436 -1.524,-1.493 0.853,-17.216 1.673,-20.528 0.827,-3.318 2.096,-9.549 3.621,-10.706 1.532,-1.157 -2.598,-5.488 -2.305,-6.27 0.298,-0.788 1.411,-3.229 2.962,-4.341 0,0 2.885,-13.527 1.106,-20.176 -1.767,-6.655 -8.27,-36.583 -48.862,-30.588 0,0 -54.34,-20.9 -71.045,-15.094 z"
       fill="#c8102e"
       stroke="#000000"
       stroke-width="1.629"
       id="path41" />
    <g
       transform="matrix(1.085779,0,0,1.085779,6.91471,26.11209)"
       id="g83">
      <g
         stroke-width="1.241"
         transform="matrix(0.496967,-0.04459677,0.08946727,0.726775,44.70009,100.5425)"
         id="g43">
        <g
           id="f">
          <path
             d="m 49.75,0.125 c -5.093,0.89 -15.156,29.245 -12.609,38.75 1.763,6.58 4.498,11.12 6.047,13.906 -3.405,-4.685 -11.383,-13.75 -22.25,-13.75 -13.664,0 -15.431,29.948 -15.094,31.875 10e-4,0.007 -0.002,0.026 0,0.032 10e-4,0.004 0.029,0.027 0.031,0.031 0.002,-10e-4 0.029,0.001 0.031,0 0.613,-0.715 6.142,-13.094 19.657,-13.094 8.896,0 15.829,7.035 18.375,10.031 -0.001,0.945 0.022,1.858 0.031,2.782 C 41.965,73.516 40.687,80.219 34.5,88.656 27.023,98.852 4.128,99.897 0.281,100 h 49.532 c 0.047,0 0.109,0.003 0.156,0 0.022,0.002 0.04,-0.001 0.062,0 0.047,0.003 0.109,0 0.157,0 H 99.719 C 95.872,99.897 72.539,98.852 65.063,88.656 58.875,80.219 58.035,73.516 56.031,70.688 c 0.009,-0.924 0.032,-1.837 0.032,-2.782 2.545,-2.996 9.478,-10.031 18.375,-10.031 13.514,0 19.043,12.379 19.656,13.094 0.002,0.001 0.029,-10e-4 0.031,0 0.002,-0.004 0.03,-0.027 0.031,-0.031 0.002,-0.006 -0.001,-0.025 0,-0.032 0.337,-1.927 -1.43,-31.875 -15.093,-31.875 -10.868,0 -18.846,9.065 -22.25,13.75 1.548,-2.786 4.29,-8.575 5.718,-13.906 C 65.118,29.219 55.091,0.132 50,0.125 c -0.08,0 -0.169,-0.014 -0.25,0 z m -6.437,52.844 c 0.352,0.49 0.662,0.912 0.906,1.281 0.005,0.008 0.541,2.977 0.547,2.984 -0.003,0.064 2.627,10.186 2.624,10.25 -0.264,-0.392 -3.737,-13.915 -4.077,-14.515 z m 13.375,0 c -0.341,0.6 -4.033,14.123 -4.297,14.515 -0.003,-0.064 3.393,-13.139 3.39,-13.203 0,-0.01 -0.437,2.964 -0.437,2.953 0.244,-0.369 0.991,-3.775 1.344,-4.265 z"
             fill="#f7d917"
             stroke="#000000"
             stroke-width="1.241"
             id="path42" />
          <path
             d="m 42,67.578 c 0,0 4,-1.859 8,-1.859 4,0 8,1.859 8,1.859 v 4.953 c 0,0 -4,-1.859 -8,-1.859 -4,0 -8,1.859 -8,1.859 z"
             fill="#f7d917"
             stroke="#000000"
             stroke-width="1.241"
             id="path43" />
        </g>
      </g>
      <use
         transform="matrix(0.495379,0.05970303,-0.06359282,0.729495,168.9189,96.59048)"
         xlink:href="#f"
         id="use43" />
      <g
         stroke="#000000"
         id="g82">
        <g
           fill="#f7d917"
           id="g54">
          <g
             stroke-width="0.715"
             id="g46">
            <path
               d="m 24.308,134.56 9.69,-11.814 c 0,0 0.903,1.168 0,0 C 14.132,97.065 13.127,82.331 15.363,74.87 c 2.236,-7.461 6.709,-15.544 18.635,-25.493 11.926,-9.948 20.156,-4.419 31.336,-4.419 11.181,0 14.163,2.487 23.852,3.731 9.69,1.243 35.778,2.487 35.778,2.487 v -6.84 c 0,0 1.029,0.192 0,0 -11.518,-2.147 -26.088,0 -35.778,-2.487 -9.689,-2.487 -17.889,-3.108 -28.324,-3.108 -10.435,0 -17.92,-3.043 -24.628,1.31 C 29.525,44.403 21.326,51.864 15.363,58.082 9.4,64.3 6.419,76.735 7.164,84.818 c 0.746,8.083 3.727,14.923 8.199,21.14 4.473,6.218 3.727,11.192 5.218,15.544 1.491,4.353 3.727,13.679 3.727,13.058 z"
               id="path44" />
            <path
               d="m 239.255,134.56 -9.69,-11.814 c 0,0 -0.904,1.168 0,0 19.865,-25.681 20.87,-40.415 18.634,-47.876 -2.236,-7.461 -6.708,-15.544 -18.634,-25.493 -11.926,-9.948 -20.156,-4.419 -31.337,-4.419 -11.181,0 -14.162,2.487 -23.852,3.731 -9.69,1.243 -35.778,2.487 -35.778,2.487 v -6.84 c 0,0 -1.029,0.192 0,0 11.519,-2.147 26.088,0 35.778,-2.487 9.69,-2.487 17.889,-3.108 28.324,-3.108 10.436,0 17.92,-3.043 24.629,1.31 6.708,4.352 14.907,11.813 20.87,18.031 5.963,6.218 8.945,18.653 8.199,26.736 -0.745,8.083 -3.727,14.923 -8.199,21.14 -4.472,6.218 -3.727,11.192 -5.217,15.544 -1.491,4.353 -3.727,13.679 -3.727,13.058 z"
               id="path45" />
            <path
               d="m 115.553,38.701 h 34.563 v 70.894 h -34.563 z"
               stroke-width="0.835"
               id="path46" />
          </g>
          <g
             stroke-width="0.5"
             transform="translate(0,-8)"
             id="g49">
            <path
               d="m 119.684,-15.799 c 0,0 3.72,3.028 6.575,6.922 2.856,3.893 4.846,8.652 4.846,8.652 0,0 -4.759,-1.99 -8.652,-4.846 -3.894,-2.855 -6.922,-6.575 -6.922,-6.575 v 26.302 c 0,0 3.028,-3.72 6.922,-6.575 3.893,-2.856 8.652,-4.846 8.652,-4.846 0,0 -1.534,3.927 -2.524,8.653 -0.891,4.25 -8.183,14.064 -8.183,14.064 l 21.303,1.429 c 0,0 -3.542,-11.243 -4.969,-15.493 -1.536,-4.578 -2.167,-8.653 -2.167,-8.653 0,0 4.759,1.99 8.653,4.846 3.893,2.855 6.921,6.575 6.921,6.575 v -26.302 c 0,0 -3.028,3.72 -6.921,6.575 -3.894,2.856 -8.653,4.846 -8.653,4.846 0,0 1.99,-4.759 4.846,-8.652 2.855,-3.894 6.575,-6.922 6.575,-6.922 z"
               id="path47" />
            <path
               d="m 150,23.076 a 17.143,17.143 0 1 1 -34.286,0 17.143,17.143 0 1 1 34.286,0 z"
               transform="translate(-0.022093,8)"
               id="path48" />
            <path
               d="m 116.074,33.535 h 34.102 c 0,0 0.494,-6.596 -1.974,-9.064 -2.379,0 -10.594,0 -10.594,0 l -0.179,-9.888 h -3.945 -6.097 l -0.179,9.888 c 0,0 -7.127,0.357 -10.41,0.357 -1.489,4.041 -1.26,4.381 -1.26,4.381 z"
               id="path49" />
          </g>
          <g
             stroke-width="0.75"
             id="g53">
            <path
               d="m 110.877,107.221 c 0,0 6.212,5.056 10.979,11.557 4.767,6.501 8.09,14.446 8.09,14.446 0,0 -7.946,-3.323 -14.446,-8.09 -6.501,-4.767 -11.557,-10.979 -11.557,-10.979 v 43.916 c 0,0 5.056,-6.211 11.557,-10.979 6.5,-4.767 14.446,-8.09 14.446,-8.09 0,0 -3.323,7.946 -8.09,14.447 -4.767,6.5 -10.979,11.557 -10.979,11.557 h 43.916 c 0,0 -6.212,-5.057 -10.979,-11.557 -4.767,-6.501 -8.09,-14.447 -8.09,-14.447 0,0 7.946,3.323 14.446,8.09 6.501,4.768 11.557,10.979 11.557,10.979 v -43.916 c 0,0 -5.056,6.212 -11.557,10.979 -6.5,4.767 -14.446,8.09 -14.446,8.09 0,0 3.323,-7.945 8.09,-14.446 4.767,-6.501 10.979,-11.557 10.979,-11.557 z"
               id="path50" />
            <path
               d="m 27.24,181.78 21.625,-3.813 c 0,0 -6.995,-3.901 -12.819,-9.475 C 30.222,162.918 25.57,155.67 25.57,155.67 c 0,0 8.402,1.892 15.632,5.458 7.23,3.566 13.288,8.806 13.288,8.806 l -7.626,-43.249 c 0,0 -3.901,6.995 -9.475,12.819 -5.574,5.824 -12.822,10.475 -12.822,10.475 0,0 1.892,-8.401 5.458,-15.631 3.566,-7.23 8.806,-13.288 8.806,-13.288 l -21.625,3.813 z"
               id="path51" />
            <path
               d="m 226.839,121.06 c 0,0 5.24,6.058 8.806,13.288 3.566,7.23 5.458,15.631 5.458,15.631 0,0 -7.248,-4.651 -12.822,-10.475 -5.574,-5.824 -9.475,-12.819 -9.475,-12.819 l -7.626,43.249 c 0,0 6.058,-5.24 13.288,-8.806 7.23,-3.566 15.632,-5.458 15.632,-5.458 0,0 -4.652,7.248 -10.476,12.822 -5.823,5.574 -12.819,9.475 -12.819,9.475 l 21.625,3.813 10.034,-56.907 z"
               id="path52" />
            <path
               d="m 27.464,179.533 0.15,31.506 c 0,0 52.648,-17.928 105.296,-17.928 52.648,0 105.296,17.928 105.296,17.928 v -31.506 c 0,0 -52.685,-17.929 -105.371,-17.929 -52.686,0 -105.371,17.929 -105.371,17.929 z"
               id="path53" />
          </g>
        </g>
        <g
           fill="#ffffff"
           id="g81">
          <g
             transform="matrix(0.661234,0,0,0.661234,21.24618,-360.3206)"
             id="g55">
            <path
               id="g"
               d="m 2.02,723.052 a 12.122,12.122 0 1 1 -24.243,0 12.122,12.122 0 1 1 24.243,0 z" />
          </g>
          <use
             transform="matrix(0.661234,0,0,0.661234,10.96519,-378.6019)"
             xlink:href="#g"
             id="use55" />
          <use
             transform="matrix(0.661234,0,0,0.661234,8.822333,-400.0304)"
             xlink:href="#g"
             id="use56" />
          <use
             transform="matrix(0.661234,0,0,0.661234,15.25091,-420.0304)"
             xlink:href="#g"
             id="use57" />
          <use
             transform="matrix(0.661234,0,0,0.661234,28.82233,-436.459)"
             xlink:href="#g"
             id="use58" />
          <use
             transform="matrix(0.661234,0,0,0.661234,47.39376,-447.8875)"
             xlink:href="#g"
             id="use59" />
          <use
             transform="matrix(0.661234,0,0,0.661234,68.10805,-446.459)"
             xlink:href="#g"
             id="use60" />
          <use
             transform="matrix(0.661234,0,0,0.661234,88.82233,-443.0304)"
             xlink:href="#g"
             id="use61" />
          <use
             transform="matrix(0.661234,0,0,0.661234,109.5366,-440.8875)"
             xlink:href="#g"
             id="use62" />
          <use
             transform="matrix(-0.661234,0,0,0.661234,242.3163,-360.3206)"
             xlink:href="#g"
             id="use63" />
          <use
             transform="matrix(-0.661234,0,0,0.661234,252.5973,-378.6019)"
             xlink:href="#g"
             id="use64" />
          <use
             transform="matrix(-0.661234,0,0,0.661234,254.7402,-400.0304)"
             xlink:href="#g"
             id="use65" />
          <use
             transform="matrix(-0.661234,0,0,0.661234,248.3116,-420.0304)"
             xlink:href="#g"
             id="use66" />
          <use
             transform="matrix(-0.661234,0,0,0.661234,234.7402,-436.459)"
             xlink:href="#g"
             id="use67" />
          <use
             transform="matrix(-0.661234,0,0,0.661234,216.1687,-447.8875)"
             xlink:href="#g"
             id="use68" />
          <use
             transform="matrix(-0.661234,0,0,0.661234,195.4544,-446.459)"
             xlink:href="#g"
             id="use69" />
          <use
             transform="matrix(-0.661234,0,0,0.661234,174.7402,-443.0304)"
             xlink:href="#g"
             id="use70" />
          <use
             transform="matrix(-0.661234,0,0,0.661234,154.0259,-440.8875)"
             xlink:href="#g"
             id="use71" />
          <g
             transform="translate(1.040326)"
             id="g79">
            <use
               transform="matrix(0.661234,0,0,0.661234,138.4742,-378.3206)"
               xlink:href="#g"
               id="use72" />
            <use
               transform="matrix(0.661234,0,0,0.661234,138.4742,-392.6019)"
               xlink:href="#g"
               id="use73" />
            <use
               transform="matrix(0.661234,0,0,0.661234,138.4742,-404.0304)"
               xlink:href="#g"
               id="use74" />
            <use
               transform="matrix(0.661234,0,0,0.661234,138.4742,-414.459)"
               xlink:href="#g"
               id="use75" />
            <use
               transform="matrix(0.661234,0,0,0.661234,138.4742,-447.8875)"
               xlink:href="#g"
               id="use76" />
            <use
               transform="matrix(0.661234,0,0,0.661234,138.4742,-446.459)"
               xlink:href="#g"
               id="use77" />
            <use
               transform="matrix(0.661234,0,0,0.661234,138.4742,-439.0304)"
               xlink:href="#g"
               id="use78" />
            <use
               transform="matrix(0.661234,0,0,0.661234,138.4742,-428.8875)"
               xlink:href="#g"
               id="use79" />
          </g>
          <g
             transform="translate(-0.457137,-2)"
             id="g80">
            <path
               id="h"
               d="m 143.571,136.291 a 10.357,10.357 0 1 1 -20.714,0 10.357,10.357 0 1 1 20.714,0 z" />
          </g>
          <use
             transform="translate(-108.7143,16.78571)"
             xlink:href="#h"
             id="use80" />
          <use
             transform="translate(107.2857,16.78571)"
             xlink:href="#h"
             id="use81" />
        </g>
      </g>
    </g>
    <g
       transform="translate(0,-2.6e-4)"
       id="g102">
      <g
         stroke="#000000"
         id="g94">
        <path
           d="m 134.791,210.096 h 34.762 v 15.153 h -34.762 z"
           fill="#012169"
           stroke-width="0.841"
           id="path83" />
        <path
           d="m 16.043,233.111 a 22.995,8.556 0 1 1 -45.99,0 22.995,8.556 0 1 1 45.99,0 z"
           fill="#3e8225"
           stroke-width="1.5"
           transform="matrix(-0.678154,-0.06882792,0.02382547,0.957698,195.4766,-0.830297)"
           id="path84" />
        <path
           d="m 36.937,229.285 -8.709,8.709 10.101,5.832 23.493,-6.294 -4.187,-13.304 z"
           fill="#c8102e"
           stroke-width="1.086"
           id="path85" />
        <path
           d="m 267.406,229.285 8.71,8.709 -10.102,5.832 -23.493,-6.294 4.187,-13.304 z"
           fill="#c8102e"
           stroke-width="1.086"
           id="path86" />
        <path
           d="m 16.043,233.111 a 22.995,8.556 0 1 1 -45.99,0 22.995,8.556 0 1 1 45.99,0 z"
           fill="#3e8225"
           stroke-width="1.5"
           transform="matrix(0.678154,-0.06882792,-0.02382547,0.957698,108.8665,-0.830297)"
           id="path87" />
        <g
           fill="#ffffff"
           id="g93">
          <g
             transform="translate(1.069518,-3.475935)"
             id="g87">
            <path
               id="i"
               d="m 126.203,214.704 a 4.278,4.278 0 1 1 -8.556,0 4.278,4.278 0 1 1 8.556,0 z" />
          </g>
          <use
             transform="translate(2.406416,10.16042)"
             xlink:href="#i"
             id="use87" />
          <use
             transform="translate(-52.40642,6.149728)"
             xlink:href="#i"
             id="use88" />
          <use
             transform="translate(-47.05882,18.98396)"
             xlink:href="#i"
             id="use89" />
          <use
             transform="matrix(-1,0,0,1,303.0748,-3.475943)"
             xlink:href="#i"
             id="use90" />
          <use
             transform="matrix(-1,0,0,1,301.7379,10.16041)"
             xlink:href="#i"
             id="use91" />
          <use
             transform="matrix(-1,0,0,1,356.5507,6.14972)"
             xlink:href="#i"
             id="use92" />
          <use
             transform="matrix(-1,0,0,1,351.2031,18.98395)"
             xlink:href="#i"
             id="use93" />
        </g>
      </g>
      <g
         id="g101">
        <path
           d="m 238.538,280.603 c 3.267,-0.567 22.977,-5.253 27.127,-7.76 -2.678,-4.828 -7.484,-8.605 -3.744,-7.018 2.014,0.855 3.607,-5.799 -2.239,-10.885 -16.973,5.567 -57.68,15.739 -108.829,15.739 -52.344,0 -93.562,-10.707 -110.535,-16.273 -5.846,5.086 -4.025,10.864 -4.378,13.023 -0.003,0.017 0.003,2.725 1.069,4.879 5.754,6.251 24.394,9.332 27.662,9.9 15.352,2.666 30.705,6.697 86.148,6.697 51.289,0 72.366,-5.635 87.719,-8.302 z"
           fill="#ffffff"
           stroke="#000000"
           stroke-width="1.714"
           id="path94" />
        <g
           transform="matrix(1.085779,0,0,1.085779,-81.34112,-69.11104)"
           id="g100">
          <path
             d="m 132.906,289.655 c -3.009,0.523 -22.147,7.301 -25.968,9.61 0.003,0.014 -0.003,0.045 0,0.061 0.325,1.988 -3.322,11.251 2.062,15.935 15.632,-5.127 59.525,-20.406 106.634,-20.406 48.209,0 88.14,15.279 103.772,20.406 5.384,-4.684 1.737,-13.947 2.063,-15.935 0.003,-0.016 -0.004,-0.047 0,-0.061 -3.822,-2.309 -22.96,-9.087 -25.969,-9.61 -14.14,-2.455 -28.772,-11.586 -79.835,-11.586 -47.237,0 -68.619,9.131 -82.759,11.586 z"
             fill="#ffffff"
             stroke="#000000"
             stroke-width="1.578"
             id="path95" />
          <g
             transform="matrix(1.384389,-0.143242,0.15642,1.267764,-86.62648,-64.7552)"
             id="g96">
            <g
               id="j"
               stroke="#000000">
              <g
                 transform="matrix(0.4996,0,0,0.4996,56.86367,150.9007)"
                 id="g95">
                <path
                   id="k"
                   d="m 115.508,301.56 a 1.872,1.872 0 1 1 -3.743,0 1.872,1.872 0 1 1 3.743,0 z" />
              </g>
              <use
                 transform="matrix(0.4996,0,0,0.4996,55.52674,153.307)"
                 xlink:href="#k"
                 id="use95" />
              <use
                 transform="matrix(0.4996,0,0,0.4996,57.3984,154.9114)"
                 xlink:href="#k"
                 id="use96" />
              <path
                 d="m 113.518,303.669 8.526,-3.166 -4.185,2.392 2.686,-0.083 -2.492,1.168 4.001,0.275 z"
                 id="path96" />
            </g>
          </g>
          <use
             transform="matrix(1.384389,-0.143242,0.15642,1.267764,-45.03159,-76.65847)"
             xlink:href="#j"
             id="use97" />
          <use
             transform="matrix(1.378425,0.192343,-0.151629,1.268346,100.1696,-120.8592)"
             xlink:href="#j"
             id="use98" />
          <use
             transform="matrix(1.384389,0.143242,0.15642,-1.267764,54.4337,659.4577)"
             xlink:href="#j"
             id="use99" />
          <use
             transform="matrix(1.384389,0.143242,0.15642,-1.267764,96.41226,670.4203)"
             xlink:href="#j"
             id="use100" />
        </g>
      </g>
    </g>
  </g>
</svg>
