<?xml version="1.0" encoding="UTF-8" standalone="no"?>
<svg
   width="613.20001"
   height="159.2"
   version="1.1"
   id="svg12"
   sodipodi:docname="IR.svg"
   inkscape:version="1.3.2 (091e20e, 2023-11-25, custom)"
   xmlns:inkscape="http://www.inkscape.org/namespaces/inkscape"
   xmlns:sodipodi="http://sodipodi.sourceforge.net/DTD/sodipodi-0.dtd"
   xmlns:xlink="http://www.w3.org/1999/xlink"
   xmlns="http://www.w3.org/2000/svg"
   xmlns:svg="http://www.w3.org/2000/svg">
  <defs
     id="defs12" />
  <sodipodi:namedview
     id="namedview12"
     pagecolor="#ffffff"
     bordercolor="#000000"
     borderopacity="0.25"
     inkscape:showpageshadow="2"
     inkscape:pageopacity="0.0"
     inkscape:pagecheckerboard="0"
     inkscape:deskcolor="#d1d1d1"
     inkscape:zoom="1.947619"
     inkscape:cx="306.78484"
     inkscape:cy="79.327628"
     inkscape:window-width="1920"
     inkscape:window-height="1009"
     inkscape:window-x="1912"
     inkscape:window-y="-8"
     inkscape:window-maximized="1"
     inkscape:current-layer="svg12" />
  <g
     id="g9">
    <g
       id="tb4">
      <g
         id="tb1"
         fill="none"
         stroke="#ffffff"
         stroke-width="2">
        <path
           id="tbp1"
           d="M 0,1 H 26 M 1,10 V 5 h 8 v 4 h 8 V 5 H 12 M 4,9 H 6 M 26,9 H 21 V 5 h 8 m 0,-5 v 9 h 8 V 0 m -4,0 v 9"
           transform="scale(1.4)" />
        <path
           id="tbp2"
           d="m 0,7 h 9 m 1,0 h 9"
           transform="scale(2.8)" />
        <use
           xlink:href="#tbp2"
           y="120"
           id="use3" />
        <use
           xlink:href="#tbp1"
           y="145.2"
           id="use4" />
      </g>
      <g
         id="tb3">
        <use
           xlink:href="#tb1"
           x="56"
           id="use5" />
        <use
           xlink:href="#tb1"
           x="112"
           id="use6" />
        <use
           xlink:href="#tb1"
           x="168"
           id="use7" />
      </g>
    </g>
    <use
       xlink:href="#tb3"
       x="168"
       id="use8" />
    <use
       xlink:href="#tb4"
       x="392"
       id="use9" />
  </g>
  <g
     fill="#da0000"
     transform="matrix(45,0,0,45,306.6,79.6)"
     id="g12">
    <g
       id="emblem_half">
      <path
         d="M -0.54815,0.83638 A 0.912046,0.912046 0 0 0 0.328544,-0.722384 1,1 0 0 1 -0.54815,0.83638"
         id="path9" />
      <path
         d="M 0.618339,0.661409 A 0.763932,0.763932 0 0 0 0.421644,-0.741049 1,1 0 0 1 0.618339,0.661409"
         id="path10" />
      <path
         d="M 0,1 -0.05,0 0,-0.787278 a 0.309995,0.309995 0 0 0 0.118034,0.099087 v 0.587785 L 0.077809,0.892905 Z"
         id="path11" />
      <path
         d="M -0.02,-0.85 0,-0.831217 A 0.14431,0.14431 0 0 0 0.252075,-0.967708 0.136408,0.136408 0 0 1 0,-0.924634"
         id="path12" />
    </g>
    <use
       xlink:href="#emblem_half"
       transform="scale(-1,1)"
       id="use12" />
  </g>
</svg>
