<?xml version="1.0" encoding="UTF-8" standalone="no"?>
<svg
   width="196.51424"
   height="161.77722"
   version="1.1"
   id="svg11"
   sodipodi:docname="MZ.svg"
   inkscape:version="1.3.2 (091e20e, 2023-11-25, custom)"
   xmlns:inkscape="http://www.inkscape.org/namespaces/inkscape"
   xmlns:sodipodi="http://sodipodi.sourceforge.net/DTD/sodipodi-0.dtd"
   xmlns="http://www.w3.org/2000/svg"
   xmlns:svg="http://www.w3.org/2000/svg">
  <defs
     id="defs11" />
  <sodipodi:namedview
     id="namedview11"
     pagecolor="#ffffff"
     bordercolor="#000000"
     borderopacity="0.25"
     inkscape:showpageshadow="2"
     inkscape:pageopacity="0.0"
     inkscape:pagecheckerboard="0"
     inkscape:deskcolor="#d1d1d1"
     inkscape:zoom="1.9162594"
     inkscape:cx="221.00348"
     inkscape:cy="44.618177"
     inkscape:window-width="1920"
     inkscape:window-height="1009"
     inkscape:window-x="1912"
     inkscape:window-y="-8"
     inkscape:window-maximized="1"
     inkscape:current-layer="svg11" />
  <g
     stroke="#000000"
     stroke-linejoin="round"
     stroke-width="1.575"
     id="g11"
     transform="translate(-32.709531,-212.60708)">
    <path
       fill="#ffffff"
       fill-rule="evenodd"
       d="m 67.724,352.427 h 52.699 c 4.24,4.757 13.7,6.697 22.711,-0.056 16.518,-9.045 48.473,0.056 48.473,0.056 l 6.292,-6.685 -15.338,-50.34 -5.506,-5.899 c 0,0 -11.797,-7.078 -34.215,-4.719 -22.418,2.359 -30.283,-0.786 -30.283,-0.786 0,0 -19.663,2.36 -25.17,5.112 -0.604,0.49 -6.292,6.292 -6.292,6.292 z"
       id="path8" />
    <g
       stroke-linecap="round"
       id="g10">
      <path
         fill="none"
         d="m 78.343,339.45 c 0,0 50.339,-6.293 64.89,12.977 -8.218,5.624 -15.453,6.087 -23.203,0.395 1.234,-2.057 18.09,-19.665 60.958,-13.765"
         id="path9" />
      <path
         d="m 132.221,289.11 -0.393,55.453 m 45.227,-54.667 9.439,44.048 m -98.587,-44.74 -5.238,22.716"
         id="path10" />
    </g>
    <path
       fill-rule="evenodd"
       d="m 33.497,358.465 12.393,14.531 c 1.456,0.868 2.748,0.813 4.041,0 l 18.367,-22.04 7.715,-9.551 c 1.194,-1.415 1.575,-2.993 1.469,-4.408 l 14.748,-13.105 3.131,0.301 c -1.425,-0.369 -2.47,-1.063 -1.349,-2.625 l 3.306,-2.571 2.571,3.305 -4.04,4.776 h -4.04 l -7.715,6.98 3.372,2.98 5.077,13.918 6.245,-4.409 -4.04,-14.325 8.816,-9.552 -3.307,-5.143 2.205,-2.939 c 0,0 30.513,19.21 42.268,14.068 0.318,0.115 0.71,-13.7 0.71,-13.7 0,0 -31.59,-3.306 -32.326,-9.551 -0.736,-6.245 6.98,-6.98 6.98,-6.98 l -3.307,-4.775 0.736,-2.572 5.51,6.98 12.49,-10.654 73.468,83.755 c 4.011,-1.626 4.868,-2.607 5.144,-6.612 -0.104,-0.1 -72,-82.653 -72,-82.653 l 5.51,-5.876 c 1.086,-1.225 1.468,-1.745 1.47,-3.675 l 8.448,-7.346 c 2.541,0.873 4.161,2.396 5.51,4.407 l 23.228,-19.685 c 0.612,0.612 2.472,1.224 3.734,0.536 l 38.402,-36.861 -41.854,29.562 -1.469,-1.102 c 0,-1.225 1.518,-1.527 0,-3.673 -1.626,-1.952 -4.04,1.836 -4.407,1.836 -0.367,0 -6.058,-2.01 -7.305,-4.558 l -0.41,6.762 -10.653,9.919 -8.081,-0.368 -11.756,11.388 -1.469,4.408 1.837,3.674 c 0,0 -6.246,5.51 -6.246,5.142 0,-0.368 -1.262,-1.623 -1.316,-1.786 l 5.357,-4.826 0.735,-3.306 -1.788,-2.791 c -0.542,0.394 -7.396,7.567 -7.764,6.832 l -19.835,-22.408 1.101,-4.04 -12.489,-13.593 c -4.553,-1.572 -11.755,-1.836 -13.225,8.082 -1.144,2.33 -10.653,0.367 -10.653,0.367 l -5.143,1.102 -29.02,41.143 16.163,19.469 33.061,-41.877 0.982,-11.864 6.937,7.757 c 2.313,0.297 4.516,0.323 6.612,-0.735 l 19.588,21.863 -3.262,3.183 2.963,3.23 c 1.102,-0.734 2.154,-1.615 3.256,-2.351 0.368,0.491 0.98,1.422 1.348,1.912 -1.641,0.893 -2.793,2.082 -4.434,2.976 -2.626,-1.712 -5.162,-3.844 -4.97,-7.236 l -11.02,9.183 -0.367,1.837 -32.694,27.183 -2.939,0.368 -0.734,8.449 21.306,-17.632 v -2.573 l 2.204,1.837 16.53,-13.223 c 0,0 1.102,1.469 0.736,1.469 -0.366,0 -14.695,13.224 -14.695,13.224 l -0.367,1.469 -2.571,2.204 -1.47,-1.102 -19.837,17.632 h -2.938 l -11.02,11.022 c -2.843,0.247 -5.306,0.548 -7.715,2.203 z"
       id="path11" />
  </g>
</svg>
