<?xml version="1.0" encoding="UTF-8" standalone="no"?>
<svg
   xmlns="http://www.w3.org/2000/svg"
   version="1.1"
   id="lst-logo-mark"
   viewBox="0 0 151 141.74462"
   height="40.003483mm"
   width="42.581207mm">
  <g
     transform="translate(-114.35405,-259.61837)"
     id="layer1">
    <path
       id="rect4281"
       d="m 204.19686,299.42269 0,14.68703 17.44126,0 0,51.1703 17.66844,0 0,-51.1703 17.43772,0 0,-14.68703 z"
       style="opacity:1;fill:#004876;fill-opacity:1;stroke:none;stroke-width:1.5;stroke-linecap:round;stroke-linejoin:round;stroke-miterlimit:4;stroke-dasharray:3, 6;stroke-dashoffset:0;stroke-opacity:1" />
    <path
       id="rect4286"
       d="m 128.93387,276.70715 0,66.31518 24.84868,0 15.82989,-17.89913 -22.32158,0 0,-48.41605 -18.35699,0 z"
       style="opacity:1;fill:#004876;fill-opacity:1;stroke:none;stroke-width:1.5;stroke-linecap:round;stroke-linejoin:round;stroke-miterlimit:4;stroke-dasharray:3, 6;stroke-dashoffset:0;stroke-opacity:1" />
    <path
       id="path4291"
       d="m 227.70122,259.61836 -113.34717,128.17038 2.70572,2.39528 113.34717,-128.17038 -2.70572,-2.39528 z"
       style="color:#000000;font-style:normal;font-variant:normal;font-weight:normal;font-stretch:normal;font-size:medium;line-height:normal;font-family:sans-serif;text-indent:0;text-align:start;text-decoration:none;text-decoration-line:none;text-decoration-style:solid;text-decoration-color:#000000;letter-spacing:normal;word-spacing:normal;text-transform:none;direction:ltr;block-progression:tb;writing-mode:lr-tb;baseline-shift:baseline;text-anchor:start;white-space:normal;clip-rule:nonzero;display:inline;overflow:visible;visibility:visible;opacity:1;isolation:auto;mix-blend-mode:normal;color-interpolation:sRGB;color-interpolation-filters:linearRGB;solid-color:#000000;solid-opacity:1;fill:#004876;fill-opacity:1;fill-rule:evenodd;stroke:none;stroke-width:2;stroke-linecap:butt;stroke-linejoin:miter;stroke-miterlimit:4;stroke-dasharray:none;stroke-dashoffset:0;stroke-opacity:1;color-rendering:auto;image-rendering:auto;shape-rendering:auto;enable-background:accumulate" />
    <path
       id="rect4300"
       d="m 190.94767,332.96271 c -0.0901,0 -0.17646,0.009 -0.26622,0.0109 -0.0313,-9e-5 -0.0611,-0.004 -0.0923,-0.004 l 0.007,0.007 c -12.8316,0.13302 -22.59907,7.44259 -23.77322,17.86008 -1.24358,11.03243 3.29731,16.71889 18.50606,23.18051 8.22502,3.4945 10.23469,4.82223 10.54497,6.97083 0.78133,5.41041 -7.71456,6.27399 -16.38358,1.66463 l -5.55821,-3.0524 -9.40921,12.88752 c 1.90588,2.14166 12.18915,6.86513 16.92663,7.84751 6.05139,1.25485 14.73622,0.48479 20.1778,-1.78886 9.90301,-4.13773 15.03482,-13.90681 12.4616,-23.73063 -1.77354,-6.77086 -5.78233,-10.16619 -18.18663,-15.40043 -11.27103,-4.75604 -13.13273,-6.63334 -9.83866,-9.92739 2.10644,-2.10645 8.99091,-1.61728 13.84937,0.9867 1.09288,0.58574 2.86493,1.54309 4.48278,2.36027 l 3.59898,-4.92998 1.16772,-1.60074 3.11985,-4.27335 0.61048,-0.83764 c -0.83481,-0.70263 -1.75188,-1.38727 -2.70813,-2.05505 -1.57452,-1.22751 -3.59038,-2.35922 -5.88118,-3.30795 -3.09048,-1.36214 -6.59761,-2.36645 -10.57694,-2.71522 -0.12139,-0.0127 -0.23763,-0.0182 -0.35847,-0.0284 -0.5913,-0.0458 -1.1918,-0.076 -1.80305,-0.0924 -0.20273,-0.005 -0.41802,-0.032 -0.61757,-0.032 z"
       style="opacity:1;fill:#004876;fill-opacity:1;stroke:none;stroke-width:2;stroke-linecap:round;stroke-linejoin:round;stroke-miterlimit:4;stroke-dasharray:none;stroke-dashoffset:0;stroke-opacity:1" />
  </g>
</svg>
