<svg id="a" width="10mm" height="10mm" version="1.1" viewBox="0 0 53.71 53.71" xmlns="http://www.w3.org/2000/svg">
<g id="b" transform="translate(-37.845 -92.564)">
<path id="c" d="m80.76 104.91-1.0315 0.73433 4.1858 5.871c-6.5604-3.6407-13.876-5.2511-21.088-4.8726-7.3542 0.38601-14.6 2.8386-20.825 7.3091l-1.0263-2.3621-1.1601 0.50384 9.4904 21.84 1.1601-0.50385-0.71365-1.6423c8.0112-7.6364 17.837-8.6896 26.608-2.9321l-7.1577 0.68368 0.11885 1.2599 10.34-0.9865-5.9903-8.4062-1.0294 0.73433 3.8044 5.3387c-3.1358-1.9422-6.4228-3.0637-9.7178-3.3765-6.1037-0.57957-12.236 1.6126-17.5 6.4782l-6.7055-15.431c11.836-8.6298 27.549-9.6623 40.38-2.7383l-6.611 0.63149 0.11937 1.2578 10.34-0.98444zm7.6621 6.6797-4.5636 10.503c-3.8505-2.9781-8.139-4.9675-12.576-5.949-7.5208-1.6634-15.47-0.435-22.445 3.7667l4.3579-6.1154-1.0289-0.73225-5.9903 8.4041 10.338 0.9865 0.12092-1.2578-6.5986-0.63045c10.678-6.1254 23.499-5.1496 33.354 2.6045l-4.4586 10.26 1.1601 0.50385 9.4924-21.84z" color="#000000"/>
</g>
</svg>
