<svg id="a" width="10mm" height="10mm" version="1.1" viewBox="0 0 53.71 53.71" xmlns="http://www.w3.org/2000/svg">
<g id="b" transform="translate(-148.79 -137.79)">
<path id="c" d="m186.43 150.7c-3.8459 0-7.3314 1.5622-9.8552 4.086l-2.0025-2.0025c-6.5371 6.5371-6.5371 17.178 0 23.715l2.003-2.0014c2.5238 2.5236 6.009 4.0855 9.8547 4.0855 7.6919 0 13.941-6.2494 13.941-13.941 0-7.6919-6.2494-13.941-13.941-13.941zm0 1.2656c7.0082 0 12.676 5.6675 12.676 12.676s-5.6675 12.676-12.676 12.676c-7.0082 0-12.676-5.6675-12.676-12.676s5.668-12.676 12.676-12.676zm-23.777 6.9004v2.9569h-11.731v5.6291h11.731v2.9647l5.8027-5.7852zm1.2656 3.0412 2.7347 2.7166-2.7347 2.667v-1.1043h-11.731v-3.098h11.731z" color="#000000"/>
</g>
</svg>
