<svg width="10mm" height="10mm" version="1.1" viewBox="0 0 200 200" xmlns="http://www.w3.org/2000/svg">
<g fill="none">
<g stroke="#000" stroke-width="5">
<path d="m60.064 47.5v105"/>
<path d="m139.94 47.5v105"/>
<path d="m125.66 39.534c-30.312 17.5-60.623 35-90.933 52.5"/>
<path d="m165.27 92.034c-30.312-17.5-60.623-35-90.933-52.5"/>
<path d="m125.66 160.47c-30.312-17.5-60.623-35-90.933-52.5"/>
<path d="m165.27 107.97c-30.312 17.5-60.623 35-90.933 52.5"/>
<path d="m100.29 54.182v-38.602"/>
<path d="m100 184.25v-38.602"/>
<path d="m173.37 141.89c-11.143-6.4331-22.286-12.867-33.43-19.301"/>
<path d="m60.064 77.408c-11.143-6.4331-22.286-12.867-33.43-19.301"/>
<path d="m173.37 57.771c-11.143 6.4331-22.286 12.867-33.43 19.301"/>
<path d="m60.064 122.59c-11.143 6.4331-22.286 12.867-33.43 19.301"/>
</g>
</g>
</svg>
