<svg id="a" width="10mm" height="10mm" version="1.1" viewBox="0 0 53.71 53.71" xmlns="http://www.w3.org/2000/svg">
<g id="b" transform="translate(-107.98 -100.53)">
<path id="c" d="m117 107.5-0.63303 1.0955 6.6678 3.8499h-11.187v1.2635h11.186l-6.6668 3.8494 0.63303 1.0961 8.5643-4.9454h8.3323c-6.3884 2.582-10.902 8.8446-10.902 16.153 0 9.6112 7.8048 17.416 17.416 17.416 9.6112 0 17.416-7.8047 17.416-17.416 0-9.6112-7.8048-17.416-17.416-17.416-0.0161 0-0.032 4.7e-4 -0.0481 5.2e-4v-1e-3h-14.799zm23.411 6.2115c8.9276 0 16.152 7.2228 16.152 16.15s-7.2244 16.152-16.152 16.152c-8.9276 0-16.15-7.2249-16.15-16.152s7.2228-16.15 16.15-16.15z" color="#000000"/>
</g>
</svg>
