<svg id="a" width="10mm" height="10mm" version="1.1" viewBox="0 0 53.71 53.71" xmlns="http://www.w3.org/2000/svg">
<g id="b" transform="translate(-252.76 -49.08)">
<path id="c" d="m289.01 55.159-0.6289 1.0961 5.6229 3.2262h-22.929c-7.2692-0.13724-11.675 3.074-13.682 7.0316-2.0068 3.9576-1.8278 8.4422-0.52349 11.386l0.0274 0.0625 10.824 18.75 2.2226-1.2831-8.0021-13.861c1.9467 1.4638 4.3658 2.3322 6.9851 2.3322 6.4228 0 11.643-5.2198 11.643-11.643 0-4.3975-2.4472-8.2308-6.0518-10.211h19.229l-5.3676 3.0861 0.63097 1.0976 7.2755-4.1837h7.0549v-2.5647h-6.7975zm-18.587 6.8833c0.12057-8.3e-4 0.24446 9.7e-4 0.36742 0.0021 4.8472 0.87627 8.5147 5.1101 8.5147 10.213 0 5.7392-4.6395 10.377-10.379 10.377s-10.379-4.638-10.379-10.377c0-0.19581 6e-3 -0.39031 0.0165-0.58342 0.12921-1.3469 0.47461-2.7376 1.1162-4.0029 1.5527-3.062 4.6134-5.586 10.743-5.6286zm-1.4966 7.5194c-1.4812 0-2.6954 1.2143-2.6954 2.6954 0 1.4812 1.2142 2.6954 2.6954 2.6954s2.6954-1.2143 2.6954-2.6954c0-1.4812-1.2142-2.6954-2.6954-2.6954zm0 1.2635c0.79753 0 1.4314 0.63442 1.4314 1.4319 0 0.79753-0.63391 1.4294-1.4314 1.4294s-1.4299-0.63184-1.4299-1.4294c0-0.79752 0.63236-1.4319 1.4299-1.4319z" color="#000000"/>
</g>
</svg>
