<svg id="a" width="10mm" height="10mm" version="1.1" viewBox="0 0 53.71 53.71" xmlns="http://www.w3.org/2000/svg">
<g id="b" transform="translate(-93.79 -80.661)">
<path id="c" d="m102.64 87.619v1.264h36.008v-1.264zm0 5.6446v1.2656h36.008v-1.2656zm0.55242 3.6634-4.0587 7.0859 1.0976 0.6289 2.3926-4.1765v17.364h1.2656v-17.238l2.4009 4.0582 1.0893-0.64439zm34.775 0-4.0587 7.0859 1.0976 0.6289 2.3926-4.1765v17.364h1.2656v-17.238l2.4009 4.0582 1.0893-0.64439zm-17.324 20.17c-6.356 0-12.43 1.2124-18.003 3.4174v1.3343c5.5552-2.2629 11.633-3.5114 18.003-3.5114 6.3711 0 12.449 1.2487 18.005 3.5119v-1.3343c-5.5738-2.2054-11.649-3.4179-18.005-3.4179zm0 5.5666c-6.3566 0-12.43 1.2155-18.003 3.421v1.3286c5.555-2.2626 11.633-3.5094 18.003-3.5094 6.3708 0 12.449 1.2474 18.005 3.5104v-1.3291c-5.5741-2.2059-11.648-3.4215-18.005-3.4215z" color="#000000"/>
</g>
</svg>
