<svg id="a" width="10mm" height="10mm" version="1.1" viewBox="0 0 53.71 53.71" xmlns="http://www.w3.org/2000/svg">
<g id="b" transform="translate(-103.23 -88.434)">
<path id="c" d="m108.02 97.122v1.264h10.398v-1.264zm28.316 2.4593-3.8943 2.1203-8.9958-0.22634-1.5679 0.85369 4.6855 8.6062 1.11-0.60461-4.0804-7.4946 0.15916-0.0863 8.9953 0.22427 4.1925-2.2831zm5.5537 0.65629 1.7053 3.1316-8.3049 4.5212 2.6722 4.9082 8.3044-4.5212 1.7947 3.2959 4.1036-9.5824zm2.2112 1.7601 6.1309 1.0459-2.4489 5.7175-1.1648-2.1399-8.1411 4.4312-1.4418-2.6489 8.139-4.4344zm-36.08 2.1389v1.264h10.398v-1.264zm0 7.014v1.2645h10.398v-1.2645zm21.868 0.44546-0.89349 0.894 3.9848 3.9848 0.89349-0.894zm15.106 3.8886-4.193 2.2826-4.6927 7.6786-0.15916 0.0863-4.0814-7.4962-1.11 0.6041 4.6855 8.6062 1.5679-0.85369 4.6938-7.6765 3.8943-2.1198zm-20.072 2.0149-0.632 1.0945 4.8803 2.8179 0.632-1.0945zm-16.902 0.66559v1.264h10.398v-1.264zm13.814 6.4399-0.32763 1.2211 5.4436 1.4583 0.32711-1.2206zm-13.814 0.57464v1.264h10.398v-1.264zm0 7.0146v1.264h10.398v-1.264zm12.568 0v1.264h5.6353v-1.264z" stroke-width=".3347"/>
</g>
</svg>
