<svg id="a" width="10mm" height="10mm" version="1.1" viewBox="0 0 53.71 53.71" xmlns="http://www.w3.org/2000/svg">
<g id="b" transform="translate(-23.177 -129.98)">
<path id="c" d="m42.061 139.78-3.8334 14.306 2.5275 0.67696 3.8334-14.306zm15.942 0-2.5275 0.67696 3.8334 14.306 2.5275-0.67696zm-12.433 3.5378v1.2774h8.924v-1.2774zm-1.3338 5.1191v1.2774h11.591v-1.2774zm-9.9922 4.4907-6.5722 3.793 6.5722 3.7713 0.63097-1.0976-3.5791-2.0526h7.2316v-1.2661h-7.2058l3.5533-2.0526zm31.576 0-0.63097 1.0955 3.5533 2.0526h-7.2058v1.2661h7.2316l-3.5791 2.0526 0.63097 1.0976 6.5722-3.7713zm-22.939 0.67179v1.2774h14.301v-1.2774zm0 5.1971v1.2774h14.301v-1.2774zm-2.126 0.11369-2.5275 0.67696 3.8334 14.306 2.5275-0.67696zm18.553 0-3.8334 14.306 2.5275 0.67696 3.8334-14.306zm-15.072 5.0488v1.2774h11.591v-1.2774zm1.3332 5.1191v1.2774h8.924v-1.2774z" color="#000000" stroke-width=".63912"/>
</g>
</svg>
