<svg id="a" width="10mm" height="10mm" version="1.1" viewBox="0 0 53.71 53.71" xmlns="http://www.w3.org/2000/svg">
<g id="b" transform="translate(-35.596 -83.854)">
<path id="c" d="m77.458 89.702v4.5362h-5.3444v-4.4933h-2.743v4.4933h-5.3501v-4.3021h-2.743v4.3599c-1.9299 0.16259-3.761 0.66684-5.4327 1.4526l-2.1782-3.7729-2.3756 1.3715 2.1813 3.7781c-1.5434 1.0831-2.8851 2.4327-3.9594 3.9827l-3.793-2.1895-1.3715 2.3756 3.8018 2.1947c-0.77246 1.6686-1.2658 3.4937-1.4196 5.4162h-4.422v2.743h4.4354c0.17114 1.9126 0.67766 3.7269 1.4614 5.3837l-3.8571 2.2272 1.3715 2.375 3.8675-2.2329c1.0763 1.5257 2.4141 2.8528 3.9481 3.9181l-2.2443 3.8866 2.3756 1.3715 2.2479-3.8938c1.6529 0.76703 3.4598 1.2598 5.363 1.4201v4.3455h-16.122v1.2692h37.385v-1.2692h-2.3399v-4.2871h2.3926v-1.555h-13.079c5.3723-2.5706 9.0873-8.0579 9.0873-14.406 0-6.3483-3.7155-11.837-9.0883-14.408h13.08v-1.5544h-2.3926v-4.5362zm-14.817 6.0906h2.9264c6.7196 1.355 11.771 7.2861 11.771 14.408s-5.0512 13.051-11.771 14.406h-2.9264c-7.995 0-14.408-6.4108-14.408-14.406s6.4134-14.408 14.408-14.408zm-5.2e-4 11.343c-1.6969 0-3.0939 1.3758-3.0939 3.0644 0 1.6886 1.397 3.0629 3.0939 3.0629 1.6969 0 3.0934-1.3743 3.0934-3.0629 0-1.6886-1.3965-3.0644-3.0934-3.0644zm0 1.2656c1.0217 0 1.8278 0.80251 1.8278 1.7989 0 0.99636-0.80614 1.7968-1.8278 1.7968-1.0216 0-1.8283-0.80043-1.8283-1.7968 0-0.99635 0.80667-1.7989 1.8283-1.7989zm1.3798 17.76h5.3501v4.2871h-5.3501zm8.093 0h5.3444v4.2871h-5.3444z" color="#000000"/>
</g>
</svg>
