<svg id="a" width="10mm" height="10mm" version="1.1" viewBox="0 0 53.71 53.71" xmlns="http://www.w3.org/2000/svg">
<g id="b" transform="translate(-63.984 -94.854)">
<path id="c" d="m99.754 101.66-2.1942 3.7998c-2.0427-0.95429-4.3202-1.4883-6.7216-1.4883-5.3407 0-10.071 2.6377-12.959 6.6797l-3.7026-2.1373-1.4738 2.5533 3.6923 2.1316c-0.74869 1.6115-1.2354 3.3684-1.4056 5.2167h-4.2556v2.9481h4.2556c0.70348 7.6394 6.8164 13.724 14.468 14.383v4.5522h-19.284v1.4635h41.331v-1.4635h-19.099v-4.5687c1.8258-0.1789 3.5615-0.66719 5.1542-1.4113l2.1942 3.7998 2.5533-1.4743-2.203-3.8158c4.0263-2.89 6.6518-7.6107 6.6518-12.939 0-2.3563-0.5137-4.5933-1.4345-6.6063l3.839-2.2164-1.4738-2.5528-3.8349 2.2138c-1.0294-1.4587-2.2975-2.7367-3.7476-3.7775l2.203-3.8158zm-8.9157 3.575c8.1002 0 14.654 6.5542 14.654 14.654s-6.5542 14.652-14.654 14.652-14.652-6.5521-14.652-14.652 6.5521-14.654 14.652-14.654zm0 11.608c-1.6756 0-3.0468 1.3712-3.0468 3.0468 0 1.6756 1.3713 3.0468 3.0468 3.0468 1.6756 0 3.0489-1.3712 3.0489-3.0468 0-1.6756-1.3733-3.0468-3.0489-3.0468zm0 1.2635c0.99194 0 1.7834 0.79142 1.7834 1.7834s-0.79142 1.7834-1.7834 1.7834c-0.99193 0-1.7813-0.79141-1.7813-1.7834s0.78935-1.7834 1.7813-1.7834z" color="#000000"/>
</g>
</svg>
