<svg width="10mm" height="10mm" version="1.1" viewBox="0 0 200 200" xmlns="http://www.w3.org/2000/svg">
<g fill="none" stroke-linejoin="round">
<g stroke="#000" stroke-width="5">
<path d="m100.42 43.145c-8.4545-4.5148-19.038-4.8024-27.725-0.75346-3.2071 1.4948-6.1339 3.5257-9.2683 5.1674-7.6671 4.0157-16.442 5.6085-25.097 5.5795-6.7789-0.02268-13.554-1.0114-20.056-2.9271v105.71c5.6662 1.821 11.605 2.7926 17.556 2.8721 9.9522 0.13304 19.855-2.2328 28.972-6.2267 5.3022-2.3228 10.432-5.216 16.092-6.427 6.5675-1.4051 13.626-0.38535 19.527 2.8211 5.9012-3.2065 12.959-4.2262 19.527-2.8211 5.6606 1.211 10.79 4.1042 16.092 6.427 9.1166 3.9939 19.02 6.3597 28.972 6.2267 5.9511-0.0796 11.89-1.0511 17.556-2.8721v-105.71c-6.5026 1.9156-13.278 2.9044-20.056 2.9271-8.655 0.02896-17.43-1.5638-25.097-5.5795-3.1344-1.6417-6.0612-3.6726-9.2683-5.1674-8.6872-4.0489-19.271-3.7613-27.725 0.75346z"/>
<path d="m100.42 43.145v105.82"/>
<path d="m100.42 49.288c0 1.9558 0 3.9105-0.96235 5.4431-0.96235 1.5325-2.8873 2.6439-6.0075 4.4453l-11.751 6.7844c-4.9879 2.8798-7.6514 8.5639-6.6726 14.24 0.97883 5.6757 5.3924 10.139 11.063 11.206 2.8564 0.54257 5.7062 1.0607 8.0941 1.8758 2.3879 0.81516 4.3117 1.9258 5.274 3.4598 0.96235 1.5339 0.96235 3.4859 0.96235 5.4417"/>
<path d="m124.56 147.49c1.6863-4.0684-1.8554-6.8744-2.9298-10.422 0.46027-2.6074 2.8461-4.9052 2.7213-8.1145 1.2706-3.1168 2.3598-6.34 4.1912-9.1845 2.0512-2.5582 2.1798-6.6253 5.967-7.1795 3.1148-2.4208-1.6517-5.7889 0.0364-8.7052 1.6369-3.2328 2.4473-7.0342 1.1871-10.532 0.88481-2.4024 5.2399-0.57752 7.2352-2.5016 4.4346 0.37362 8.2126-2.4095 12.661-2.0859 2.271-2.1077 6.5844-1.8524 7.8105-5.1524 0.90536-3.5058 6.7624-1.5964 6.9382-6.0857 1.6217-4.0424 5.4647-6.0654 8.8623-8.367 1.0491-0.45269 2.1377-1.1054 3.3299-0.84695"/>
</g>
</g>
</svg>
