<svg width="10mm" height="10mm" version="1.1" viewBox="0 0 200 200" xmlns="http://www.w3.org/2000/svg">
<path d="m36.976 64.062v70.768h10v-27.738l22.463 27.738h12.867l-22.154-27.359h2.125c11.927 0 21.703-9.7756 21.703-21.703 0-11.927-9.7756-21.705-21.703-21.705zm10 10h15.301c6.5231 0 11.703 5.182 11.703 11.705-1e-5 6.5231-5.18 11.703-11.703 11.703h-15.301z"/>
<g fill="none" stroke="#000" stroke-width="5">
<path d="m101.92 44.645c-8.4545-4.5148-19.038-4.8024-27.725-0.75346-3.2071 1.4948-6.1339 3.5257-9.2683 5.1674-7.6671 4.0157-16.442 5.6085-25.097 5.5795-6.7789-0.02268-13.554-1.0114-20.056-2.9271v105.71c5.6662 1.821 11.605 2.7926 17.556 2.8721 9.9522 0.13304 19.855-2.2328 28.972-6.2267 5.3022-2.3228 10.432-5.216 16.092-6.427 6.5675-1.4051 13.626-0.38535 19.527 2.8211 5.9012-3.2065 12.959-4.2262 19.527-2.8211 5.6606 1.211 10.79 4.1042 16.092 6.427 9.1166 3.9939 19.02 6.3597 28.972 6.2267 5.9511-0.0796 11.89-1.0511 17.556-2.8721v-105.71c-6.5026 1.9156-13.278 2.9044-20.056 2.9271-8.655 0.02896-17.43-1.5638-25.097-5.5795-3.1344-1.6417-6.0612-3.6726-9.2683-5.1674-8.6872-4.0489-19.271-3.7613-27.725 0.75346z"/>
<path d="m101.92 44.645v105.82"/>
</g>
</svg>
