<svg id="a" width="10mm" height="10mm" version="1.1" viewBox="0 0 53.71 53.71" xmlns="http://www.w3.org/2000/svg">
<g id="b" transform="translate(-12.887 -82.435)">
<path id="c" d="m39.11 86.335v2.4851c-10.99 0.33441-19.81 9.3605-19.81 20.431s8.8203 20.096 19.81 20.431v2.5652h1.2635v-2.5652c10.99-0.33468 19.81-9.3607 19.81-20.431-1e-6 -5.1388-1.9011-9.837-5.0369-13.43-0.0019-2e-3 -0.0038-5e-3 -0.0057-7e-3a20.386 20.386 0 0 0-0.27078-0.30437l-5.17e-4 -5.2e-4a20.386 20.386 0 0 0-0.70383-0.74052l-0.0021 2e-3c-3.5588-3.5446-8.4147-5.7869-13.79-5.9505v-2.4851zm0.63149 3.7403c5.2861 0 10.069 2.1345 13.536 5.5888l-27.004 27.241c-3.524-3.4762-5.7077-8.3076-5.7077-13.654 0-10.598 8.5776-19.176 19.176-19.176z" color="#000000" stroke-linecap="round"/>
</g>
</svg>
