<svg id="a" width="10mm" height="10mm" version="1.1" viewBox="0 0 53.71 53.71" xmlns="http://www.w3.org/2000/svg">
<g id="b" transform="translate(-210.95 -58.494)">
<path id="c" d="m239.78 62.201-2.4924 2.4918v4.3589c-2.7675 0.1375-5.2846 1.2361-7.2254 2.9678l-2.7187-2.7187v-2.9998h-1.265v3.5248l3.0851 3.0851c-1.7457 1.9297-2.8602 4.4404-3.0174 7.2042h-3.8406l-2.1213-2.1213-0.89452 0.89452 2.4924 2.4924h4.3589c0.13735 2.7676 1.2354 5.2851 2.9668 7.2259l-2.7182 2.7182h-2.9998v1.265h3.5243l3.0851-3.0851c1.9296 1.7461 4.4405 2.861 7.2047 3.0179v3.8401l-2.1213 2.1213 0.89451 0.89452 2.4924-2.4924v-4.3584c2.7682-0.13761 5.2862-1.2362 7.2275-2.9683l2.7177 2.7182-2e-3 3.0008h1.2656v-3.5243l-3.0846-3.0846c1.747-1.9302 2.8625-4.442 3.0189-7.2073h3.8396l2.1208 2.1234 0.89452-0.89452-2.4918-2.4924h-4.3584c-0.13778-2.768-1.2369-5.2858-2.9693-7.227l2.7182-2.7187 3.0014 2e-3v-1.265l-3.5243-5.1e-4 -3.0851 3.0851c-1.9303-1.7467-4.442-2.8618-7.2068-3.0184v-3.8401l2.1234-2.1208zm-1.9017 8.1013c5.7997 0 10.488 4.6885 10.488 10.488 0 5.7997-4.6885 10.487-10.488 10.487s-10.488-4.687-10.488-10.487c0-5.7997 4.6885-10.488 10.488-10.488zm0 7.6817c-1.5416 0-2.805 1.2649-2.805 2.8066 0 1.5416 1.2634 2.805 2.805 2.805s2.8045-1.2634 2.8045-2.805c0-1.5416-1.2628-2.8066-2.8045-2.8066zm0 1.2656c0.85797 0 1.541 0.68303 1.541 1.541 0 0.85795-0.68302 1.5394-1.541 1.5394s-1.5394-0.68149-1.5394-1.5394c0-0.85797 0.68147-1.541 1.5394-1.541zm-5.6095 16.061-9.0108 5.2028h-7.119v2.7802h7.119l9.0108 5.2028 0.63252-1.0955-7.1133-4.1072h33.686v-2.7802h-33.686l7.1133-4.1067z" color="#000000"/>
</g>
</svg>
