<svg width="10mm" height="10mm" version="1.1" viewBox="0 0 200 200" xmlns="http://www.w3.org/2000/svg">
<g fill="none">
<g stroke="#000" stroke-width="5">
<circle cx="100" cy="100" r="8.1586"/>
<path d="m100 33.559a66.441 66.441 0 0 0-14.873 1.8555l-26.727 26.725-7.1309-7.1309a66.441 66.441 0 0 0-17.711 44.992 66.441 66.441 0 0 0 1.8555 14.873l26.725 26.727-7.1309 7.1309a66.441 66.441 0 0 0 44.992 17.711 66.441 66.441 0 0 0 14.873-1.8555l26.727-26.725 7.1309 7.1309a66.441 66.441 0 0 0 17.711-44.992 66.441 66.441 0 0 0-1.6641-14.682l-26.916-26.918 7.2051-7.2031a66.441 66.441 0 0 0-45.066-17.639z"/>
<path d="m21.406 175.21h157.19"/>
</g>
</g>
</svg>
