<svg id="a" width="10mm" height="10mm" version="1.1" viewBox="0 0 53.71 53.71" xmlns="http://www.w3.org/2000/svg">
<g id="b" transform="translate(-142.12 -144.87)">
<path id="c" d="m161.45 149.07-1.82 0.48834 3.8706 2.2345h-7.8496l-1.3322 1.3322h4.469l-6.798 3.9253-0.48783 1.82 3.8706-2.2345-3.9248 6.798 0.48731 1.82 2.2345-3.8706 5.2e-4 7.8502 1.3322 1.3322v-4.4705l3.9253 6.7996 1.82 0.48783-2.2345-3.8706 6.7986 3.9248 1.82-0.48783-3.8716-2.235h7.8512l1.3322-1.3322h-4.4695l6.7986-3.9253 0.48731-1.82-3.8716 2.2355 3.9259-6.7996-0.48783-1.8195-2.2345 3.8706-5.2e-4 -7.8502-1.3322-1.3322v4.4695l-3.9254-6.7986-1.8195-0.48731 2.2345 3.8706zm2.1813 4.0612c4.493 0 8.121 3.63 8.121 8.123 0 4.493-3.628 8.121-8.121 8.121-4.493 0-8.123-3.6279-8.123-8.121 0-4.493 3.63-8.123 8.123-8.123zm0 5.1015c-1.6604 0-3.0195 1.3611-3.0195 3.0215 0 1.6604 1.359 3.0194 3.0195 3.0194s3.0194-1.359 3.0194-3.0194c0-1.6604-1.359-3.0215-3.0194-3.0215zm21.605 0.39687v10.309l-2.5332-4.3873-1.0935 0.63303 4.2597 7.3768 4.2597-7.3789-1.0955-0.63097-2.5337 4.3853v-10.307zm-21.605 0.86868c0.97676 0 1.7539 0.77921 1.7539 1.756 0 0.97677-0.77714 1.7539-1.7539 1.7539-0.97677 0-1.756-0.77713-1.756-1.7539 0-0.97676 0.7792-1.756 1.756-1.756zm9.5782 13.299v1.2656h17.336v-1.2656zm-25.802 4.4643v2.6195h43.117v-2.6195zm38.461 3.1884-4.2597 7.3768 1.0935 0.63303 2.5332-4.3873v10.309h1.2635v-10.307l2.5337 4.3853 1.0955-0.63097z" color="#000000" stroke-width="1.3322"/>
</g>
</svg>
