<svg id="a" width="10mm" height="10mm" version="1.1" viewBox="0 0 53.71 53.71" xmlns="http://www.w3.org/2000/svg">
<g id="b" transform="translate(-74.669 -118.72)">
<path id="c" d="m104.99 122.82v17.776c-0.6015-0.24367-1.1248-0.55091-1.6009-0.90485-1.1346-0.84333-2.0048-1.9783-2.9357-3.1657-1.862-2.3748-4.0907-4.9457-9.1095-5.0059h-10.16v1.2656h10.152c4.6062 0.058 6.2755 2.168 8.121 4.5217 0.9233 1.1776 1.8598 2.4204 3.1781 3.4003 1.3183 0.97987 3.0202 1.6668 5.3496 1.7461h17.937v-1.264h-17.895c-0.0399-1e-3 -0.0779-4e-3 -0.11731-6e-3v-18.363zm-18.33 17.219-9.5374 5.5077 9.633 5.5609 0.63304-1.0961-6.5882-3.8044h23.307v-1.2656h-23.407l6.5929-3.807zm21.324 8.6542c-2.3293 0.0794-4.0312 0.76628-5.3496 1.7462-1.3183 0.97987-2.2548 2.2227-3.1781 3.4003-1.8466 2.3552-3.5157 4.4664-8.1287 4.5217h-10.145v1.2656h10.16c5.0188-0.0602 7.2475-2.6332 9.1095-5.008 0.93099-1.1874 1.8011-2.3203 2.9357-3.1636 0.47618-0.35394 0.99944-0.66118 1.6009-0.90486v17.776h2.9202v-18.363c0.0394-2e-3 0.0774-5e-3 0.1173-6e-3h17.895v-1.2642h-17.926z" color="#000000"/>
</g>
</svg>
