<svg id="a" width="10mm" height="10mm" version="1.1" viewBox="0 0 53.71 53.71" xmlns="http://www.w3.org/2000/svg">
<g id="b" transform="translate(-67.786 -111.49)">
<path id="c" d="m96.397 119.2c-5.9877 0-10.828 4.8406-10.828 10.828v0.60358c0 5.9877 4.8401 10.828 10.828 10.828h19.76v-1.2656h-14.306c3.5508-1.8614 5.9779-5.584 5.9779-9.865 0-4.281-2.4271-8.0025-5.9779-9.8635h14.306v-1.2656h-19.457zm0.30282 1.2676c5.4547 0 9.8614 4.4067 9.8614 9.8614 0 5.4547-4.4067 9.8635-9.8614 9.8635-5.4547 0-9.863-4.4088-9.863-9.8635 0-5.4547 4.4083-9.8614 9.863-9.8614zm0 7.0998c-1.5181 0-2.7637 1.2456-2.7637 2.7636s1.244 2.7616 2.7621 2.7616 2.7636-1.2435 2.7636-2.7616-1.244-2.7636-2.7621-2.7636zm0 1.2656c0.83388 0 1.4966 0.66421 1.4966 1.4981s-0.66422 1.496-1.4981 1.496-1.496-0.66214-1.496-1.496 0.66369-1.4981 1.4976-1.4981zm-11.258 13.186v15.484h1.2656v-15.484zm-5.949 1.9162v2.9704h-6.3676v5.6116h6.3676v3.1326l5.8281-5.8281zm13.164 0-5.8281 5.8865 5.8281 5.8281v-3.1326h6.3671v-5.6116h-6.3671zm-1.2656 3.0758v1.1601h6.365v3.0804h-6.3671l0.0021 0.63252v0.709l-2.7776-2.7771zm-10.633 2e-3 2.775 2.8029-2.775 2.7771v-1.3415h-6.3671v-3.0804h6.3671z" color="#000000"/>
</g>
</svg>
