<svg id="a" width="10mm" height="10mm" version="1.1" viewBox="0 0 53.71 53.71" xmlns="http://www.w3.org/2000/svg">
<g id="b" transform="translate(-97.338 -130.69)">
<path id="c" d="m141.04 138.69-31.212 5.1e-4c-1.7009 0-3.0897 1.3748-3.0897 3.0577v0.0217c0 1.6829 1.3889 3.0572 3.0897 3.0572h0.16433v5.2e-4h28.566c1.022 0 1.8263 0.79389 1.8263 1.805v0.0212c0 1.0111-0.80431 1.8066-1.8263 1.8066h-0.16433v-2e-3h-28.566c-1.7009 0-3.0897 1.3743-3.0897 3.0572v0.0212c0 1.6829 1.3889 3.0577 3.0897 3.0577h0.16433v1e-3h31.489v-1.2521h-31.489v5.1e-4h-0.16433c-1.0219 0-1.8262-0.79596-1.8262-1.8071v-0.0212c0-1.0112 0.80431-1.8045 1.8262-1.8045h28.566v-5.2e-4h0.16433c1.7009 0 3.0903-1.3748 3.0903-3.0577v-0.0212c0-1.6829-1.3894-3.0577-3.0903-3.0577h-28.566v1e-3h-0.16433c-1.0219 0-1.8262-0.79596-1.8262-1.8071v-0.0207c0-1.0112 0.80431-1.805 1.8262-1.805h31.212zm-38.738 18.294v2.7285h43.783v-2.7285zm21.26 4.0359v11.804l-3.1678-5.488-1.0955 0.63304 4.8746 8.445 4.916-8.5137-1.0955-0.63252-3.1678 5.4849v-11.733z" color="#000000" stroke-width=".99471"/>
</g>
</svg>
