<svg id="a" width="10mm" height="10mm" version="1.1" viewBox="0 0 53.71 53.71" xmlns="http://www.w3.org/2000/svg">
<g id="b" transform="translate(-83.5 -150.56)">
<path id="c" d="m110.35 155.47c-5.9713 0-10.824 4.8528-10.824 10.824 0 5.9713 4.8529 10.826 10.824 10.826 5.9713 0 10.826-4.8549 10.826-10.826 0-5.9713-4.8549-10.824-10.826-10.824zm0 1.2635c5.2877 0 9.5607 4.273 9.5607 9.5607 0 5.2876-4.273 9.5607-9.5607 9.5607-5.2876 0-9.5607-4.273-9.5607-9.5607 0-5.2877 4.273-9.5607 9.5607-9.5607zm0 6.9004c-1.4625 0-2.6618 1.1978-2.6618 2.6603s1.1993 2.6624 2.6618 2.6624 2.6624-1.1998 2.6624-2.6624-1.1998-2.6603-2.6624-2.6603zm0 1.264c0.77889 0 1.3968 0.61742 1.3968 1.3963 0 0.77889-0.61792 1.3984-1.3968 1.3984-0.77888 0-1.3963-0.61947-1.3963-1.3984 0-0.77888 0.61742-1.3963 1.3963-1.3963zm-6.9334 1.3973c0 2.4761 1.3226 4.7657 3.467 6.0038 2.1443 1.238 4.7891 1.238 6.9334 0s3.467-3.5277 3.467-6.0038h-1.2635c0 2.0262-1.0813 3.8952-2.836 4.9082-1.7547 1.0131-3.9132 1.0131-5.6679 0-1.7547-1.0131-2.8339-2.8821-2.8339-4.9082zm6.9334 11.416c-5.9713 0-10.824 4.8549-10.824 10.826 0 5.9713 4.8529 10.824 10.824 10.824 5.9713 0 10.826-4.8528 10.826-10.824 0-5.9713-4.8549-10.826-10.826-10.826zm0 1.2656c5.2877 0 9.5607 4.273 9.5607 9.5606 0 5.2877-4.273 9.5607-9.5607 9.5607-5.2876 0-9.5607-4.273-9.5607-9.5607 0-5.2876 4.273-9.5606 9.5607-9.5606zm0 2.6272c-1.1973 0-2.3943 0.30961-3.4665 0.92862-2.1443 1.238-3.467 3.5277-3.467 6.0038h1.2661c0-2.0262 1.0792-3.8952 2.8339-4.9082 1.7547-1.0131 3.9132-1.0131 5.6679 0 1.7547 1.0131 2.836 2.8821 2.836 4.9082h1.2635c0-2.4761-1.3226-4.7657-3.467-6.0038-1.0722-0.61901-2.2697-0.92862-3.467-0.92862zm0 4.271c-1.4625 0-2.6618 1.1998-2.6618 2.6624s1.1993 2.6603 2.6618 2.6603 2.6624-1.1978 2.6624-2.6603-1.1998-2.6624-2.6624-2.6624zm0 1.264c0.77889 0 1.3968 0.61947 1.3968 1.3984 0 0.77888-0.61792 1.3963-1.3968 1.3963-0.77888 0-1.3963-0.61742-1.3963-1.3963 0-0.77889 0.61742-1.3984 1.3963-1.3984z" color="#000000" stroke-width="1.0329"/>
</g>
</svg>
