<svg id="a" width="10mm" height="10mm" version="1.1" viewBox="0 0 53.71 53.71" xmlns="http://www.w3.org/2000/svg">
<g id="b" transform="translate(-95.209 -154.11)">
<path id="c" d="m113.63 159c-5.9713 0-10.824 4.8528-10.824 10.824 0 5.9713 4.8528 10.826 10.824 10.826 5.9713 0 10.826-4.8549 10.826-10.826 0-5.9713-4.8549-10.824-10.826-10.824zm0 1.2635c5.2877 0 9.5606 4.273 9.5606 9.5606 0 5.2877-4.273 9.5607-9.5606 9.5607-5.2877 0-9.5607-4.273-9.5607-9.5607 0-5.2877 4.273-9.5606 9.5607-9.5606zm0 6.9004c-1.4625 0-2.6619 1.1978-2.6619 2.6603 0 1.4625 1.1993 2.6624 2.6619 2.6624s2.6624-1.1998 2.6624-2.6624c0-1.4625-1.1998-2.6603-2.6624-2.6603zm0 1.264c0.77889 0 1.3968 0.61742 1.3968 1.3963 0 0.77889-0.61792 1.3984-1.3968 1.3984-0.77888 0-1.3963-0.61948-1.3963-1.3984 0-0.77887 0.61742-1.3963 1.3963-1.3963zm12.922 0.74672v1.2661h14.771v-1.2661zm7.3866 1.5084-5.9521 7.0063h3.1192v6.688h5.6658v-6.688h3.1171zm-5.2e-4 1.9684 3.2184 3.7739h-1.65v6.688h-3.1368v-6.688h-1.65zm-20.308 8.6429c-5.9713 0-10.824 4.8528-10.824 10.824 0 5.9713 4.8528 10.826 10.824 10.826 5.9713 0 10.826-4.8549 10.826-10.826 0-5.9713-4.8549-10.824-10.826-10.824zm0 1.2635c5.2877 0 9.5606 4.273 9.5606 9.5607 0 5.2877-4.273 9.5607-9.5606 9.5607-5.2877 0-9.5607-4.273-9.5607-9.5607 0-5.2877 4.273-9.5607 9.5607-9.5607zm0 6.9004c-1.4625 0-2.6619 1.1978-2.6619 2.6603 0 1.4625 1.1993 2.6624 2.6619 2.6624 1.4625 0 2.6624-1.1998 2.6624-2.6624 0-1.4625-1.1998-2.6603-2.6624-2.6603zm0 1.264c0.77889 0 1.3968 0.61743 1.3968 1.3963 0 0.77889-0.61792 1.3984-1.3968 1.3984-0.77888 0-1.3963-0.61948-1.3963-1.3984 0-0.77887 0.61742-1.3963 1.3963-1.3963z" color="#000000" stroke-width="1.0329"/>
</g>
</svg>
