<svg id="a" width="10mm" height="10mm" version="1.1" viewBox="0 0 53.71 53.71" xmlns="http://www.w3.org/2000/svg">
<g id="b" transform="translate(-49.435 -95.919)">
<path id="c" d="m64.465 104.7-0.0134 1.2661c5.1158 0.0522 8.8177 1.7678 11.697 4.2282 2.288 1.9551 4.0465 4.3942 5.501 6.8446l-6.5572-3.7858-0.63097 1.0955 9.4981 5.4844v-10.986h-1.2656v7.475c-1.486-2.497-3.3074-5.0236-5.7232-7.0879-3.0691-2.6225-7.1098-4.4785-12.506-4.5336zm-0.11162 8.478c-6.13 2.8e-4 -11.139 4.8629-11.378 10.935h-0.0103v12.518h1.3007v-6.782c1.9063 3.6278 5.7116 6.1066 10.088 6.1066 4.7184 0 8.7732-2.881 10.5-6.9768l0.63148 7.9726c0.1733 2.1569 1.6364 3.8985 3.8003 3.8985 2.1639 0 3.7526-1.7689 3.9259-3.9259 0.17913-1.9665 0.30029-3.9262 0.45681-5.8741 0.11893-1.4802 1.1769-2.6624 2.6619-2.6624 1.485 0 2.436 1.1822 2.5549 2.6624 0.12782 1.9742 0.25391 3.9275 0.41031 5.8741 0.1733 2.1569 1.762 3.9259 3.9259 3.9259 2.1639 0 3.7526-1.7689 3.9259-3.9259 0.17914-1.9665 0.3003-3.9262 0.45682-5.8741 0.10073-1.2536 0.875-2.2933 2.0118-2.5823v-1.2878c-1.8261 0.31417-3.1204 1.9357-3.2758 3.87-0.17913 1.9665-0.30031 3.9262-0.45682 5.8741-0.11893 1.4802-1.1769 2.6624-2.6618 2.6624s-2.5414-1.1822-2.6603-2.6624c-0.1278-1.9742-0.2539-3.9275-0.41031-5.8741-0.1733-2.1569-1.6566-3.9259-3.8204-3.9259-2.1639 0-3.7526 1.7689-3.9259 3.9259-0.17915 1.9665-0.3003 3.9262-0.45682 5.8741-0.11893 1.4802-1.1769 2.6624-2.6618 2.6624-1.485 0-2.4158-1.1548-2.5347-2.635l-1.0144-12.806h-3e-3c-0.2225-6.0871-5.2384-10.966-11.379-10.967zm5.2e-4 1.2656c5.5985 0 10.123 4.5244 10.123 10.123 0 5.5986-4.5244 10.123-10.123 10.123-5.3142 0-9.66-4.0763-10.088-9.2785v-1.2976h-0.0248c0.23655-5.3873 4.666-9.6697 10.113-9.6697zm0 7.3825c-1.5054 0-2.7383 1.235-2.7383 2.7404s1.2329 2.7383 2.7383 2.7383c1.5054 0 2.7399-1.2329 2.7399-2.7383s-1.2345-2.7404-2.7399-2.7404zm0 1.2661c0.82175 0 1.4743 0.65257 1.4743 1.4743s-0.65258 1.4748-1.4743 1.4748c-0.82176 0-1.4748-0.65309-1.4748-1.4748s0.65309-1.4743 1.4748-1.4743z" color="#000000"/>
</g>
</svg>
