<svg id="a" width="10mm" height="10mm" version="1.1" viewBox="0 0 53.71 53.71" xmlns="http://www.w3.org/2000/svg">
<g id="b" transform="translate(-145.6 -116.85)">
<path id="c" d="m172.45 126.31c-1.4014 0-2.436 1.2991-2.436 2.7693v23.055a4.8236 4.8236 0 0 0-2.3818 4.1584 4.8236 4.8236 0 0 0 4.8235 4.8235 4.8236 4.8236 0 0 0 4.824-4.8235 4.8236 4.8236 0 0 0-2.3828-4.16v-23.053c0-1.4702-1.0346-2.7693-2.436-2.7693zm0 1.2656h0.0114c0.59727 0 1.172 0.60675 1.172 1.5038v18.114c-0.59175 7e-3 -1.716 0.0183-2.3534 0.0114v-18.126c0-0.89703 0.57268-1.5038 1.17-1.5038zm-21.586 1.2681v1.2656h17.156v-1.2656zm26.027 0v1.2656h17.156v-1.2656zm-26.027 7.0332v1.2656h17.156v-1.2656zm26.027 0v1.2656h17.156v-1.2656zm-26.027 7.0332v1.2656h17.156v-1.2656zm26.027 0v1.2656h17.156v-1.2656zm-26.027 7.0332v1.2656h17.156v-1.2656zm26.027 0v1.2656h17.156v-1.2656zm-26.027 7.0332v1.1798h14.898v-1.1798zm28.285 0v1.1798h14.898v-1.1798z" color="#000000"/>
</g>
</svg>
