<svg id="a" width="10mm" height="10mm" version="1.1" viewBox="0 0 53.71 53.71" xmlns="http://www.w3.org/2000/svg">
<g id="b" transform="translate(-73.564 -90.951)">
<path id="c" d="m82.423 99.757v14.559h1.2656v-13.295h25.111v13.295h1.2635v-14.559zm6.2632 3.76a1.0202 1.0202 0 0 0-1.0201 1.0201 1.0202 1.0202 0 0 0 1.0201 1.0201 1.0202 1.0202 0 0 0 1.0201-1.0201 1.0202 1.0202 0 0 0-1.0201-1.0201zm16.519 0.22634a1.0202 1.0202 0 0 0-1.0201 1.0201 1.0202 1.0202 0 0 0 1.0201 1.0201 1.0202 1.0202 0 0 0 1.0201-1.0201 1.0202 1.0202 0 0 0-1.0201-1.0201zm-3.9672 0.87023a1.0202 1.0202 0 0 0-1.0201 1.0201 1.0202 1.0202 0 0 0 1.0201 1.0201 1.0202 1.0202 0 0 0 1.0201-1.0201 1.0202 1.0202 0 0 0-1.0201-1.0201zm12.138 1.0036a1.0202 1.0202 0 0 0-1.0206 1.0201 1.0202 1.0202 0 0 0 1.0206 1.0201 1.0202 1.0202 0 0 0 1.0201-1.0201 1.0202 1.0202 0 0 0-1.0201-1.0201zm-14.843 1.4113a1.0202 1.0202 0 0 0-1.0201 1.0201 1.0202 1.0202 0 0 0 1.0201 1.0201 1.0202 1.0202 0 0 0 1.0201-1.0201 1.0202 1.0202 0 0 0-1.0201-1.0201zm-11.268 0.0155a1.0202 1.0202 0 0 0-1.0201 1.0206 1.0202 1.0202 0 0 0 1.0201 1.0201 1.0202 1.0202 0 0 0 1.0201-1.0201 1.0202 1.0202 0 0 0-1.0201-1.0206zm26.612 2.8856a1.0202 1.0202 0 0 0-1.0201 1.0201 1.0202 1.0202 0 0 0 1.0201 1.0201 1.0202 1.0202 0 0 0 1.0201-1.0201 1.0202 1.0202 0 0 0-1.0201-1.0201zm-25.797 0.81546a1.0202 1.0202 0 0 0-1.0201 1.0201 1.0202 1.0202 0 0 0 1.0201 1.0201 1.0202 1.0202 0 0 0 1.0201-1.0201 1.0202 1.0202 0 0 0-1.0201-1.0201zm9.4408 0.57774a1.0202 1.0202 0 0 0-1.0201 1.0201 1.0202 1.0202 0 0 0 1.0201 1.0201 1.0202 1.0202 0 0 0 1.0206-1.0201 1.0202 1.0202 0 0 0-1.0206-1.0201zm16.829 1.7296-0.63252 1.0955 5.241 3.0257h-6.6415v1.2656h6.7179l-5.3175 3.0603 0.63046 1.0955 8.2796-4.7635zm-2.5435 0.82889a1.0202 1.0202 0 0 0-1.0201 1.0201 1.0202 1.0202 0 0 0 1.0201 1.0206 1.0202 1.0202 0 0 0 1.0201-1.0206 1.0202 1.0202 0 0 0-1.0201-1.0201zm-21.625 0.45475a1.0202 1.0202 0 0 0-1.0201 1.0206 1.0202 1.0202 0 0 0 1.0201 1.0201 1.0202 1.0202 0 0 0 1.0201-1.0201 1.0202 1.0202 0 0 0-1.0201-1.0206zm9.942 0.31368a1.0202 1.0202 0 0 0-1.0201 1.0201 1.0202 1.0202 0 0 0 1.0201 1.0206 1.0202 1.0202 0 0 0 1.0201-1.0206 1.0202 1.0202 0 0 0-1.0201-1.0201zm-6.1237 1.5136a1.0202 1.0202 0 0 0-1.0201 1.0201 1.0202 1.0202 0 0 0 1.0201 1.0201 1.0202 1.0202 0 0 0 1.0201-1.0201 1.0202 1.0202 0 0 0-1.0201-1.0201zm15.219 0.65061a1.0202 1.0202 0 0 0-1.0201 1.0201 1.0202 1.0202 0 0 0 1.0201 1.0201 1.0202 1.0202 0 0 0 1.0201-1.0201 1.0202 1.0202 0 0 0-1.0201-1.0201zm-31.009 0.35967v1.2656h9.6676v-1.2656zm19.287 0.46353a1.0202 1.0202 0 0 0-1.0201 1.0201 1.0202 1.0202 0 0 0 1.0201 1.0201 1.0202 1.0202 0 0 0 1.0201-1.0201 1.0202 1.0202 0 0 0-1.0201-1.0201zm7.7546 0.98031a1.0202 1.0202 0 0 0-1.0201 1.0201 1.0202 1.0202 0 0 0 1.0201 1.0201 1.0202 1.0202 0 0 0 1.0201-1.0201 1.0202 1.0202 0 0 0-1.0201-1.0201zm-3.9672 1.9286a1.0202 1.0202 0 0 0-1.0201 1.0206 1.0202 1.0202 0 0 0 1.0201 1.0201 1.0202 1.0202 0 0 0 1.0201-1.0201 1.0202 1.0202 0 0 0-1.0201-1.0206zm-18.862 0.75086v14.559h27.64v-14.559h-1.2635v13.295h-25.111v-13.295zm29.72 1.1379a1.0202 1.0202 0 0 0-1.0201 1.0201 1.0202 1.0202 0 0 0 1.0201 1.0201 1.0202 1.0202 0 0 0 1.0201-1.0201 1.0202 1.0202 0 0 0-1.0201-1.0201zm-13.963 0.79324a1.0202 1.0202 0 0 0-1.0201 1.0201 1.0202 1.0202 0 0 0 1.0201 1.0201 1.0202 1.0202 0 0 0 1.0201-1.0201 1.0202 1.0202 0 0 0-1.0201-1.0201zm16.194 2.4278a1.0202 1.0202 0 0 0-1.0201 1.0201 1.0202 1.0202 0 0 0 1.0201 1.0201 1.0202 1.0202 0 0 0 1.0201-1.0201 1.0202 1.0202 0 0 0-1.0201-1.0201zm-18.656 0.94361a1.0202 1.0202 0 0 0-1.0201 1.0201 1.0202 1.0202 0 0 0 1.0201 1.0201 1.0202 1.0202 0 0 0 1.0201-1.0201 1.0202 1.0202 0 0 0-1.0201-1.0201zm-1.0351 3.7011a1.0202 1.0202 0 0 0-1.0201 1.0201 1.0202 1.0202 0 0 0 1.0201 1.0201 1.0202 1.0202 0 0 0 1.0201-1.0201 1.0202 1.0202 0 0 0-1.0201-1.0201z" stroke-width="1.428"/>
</g>
</svg>
