<svg id="a" width="10mm" height="10mm" version="1.1" viewBox="0 0 53.71 53.71" xmlns="http://www.w3.org/2000/svg">
<g id="b" transform="translate(-161.21 -129.98)">
<path id="c" d="m169.83 138.72v2.8562h36.463v-2.8562zm8.9348 5.3294c-2.7636 5.2366-1.3632 8.7592-0.0253 11.943 1.3379 3.1843 2.6141 6.0387 0.0527 11.053l1.1266 0.57619c2.7367-5.3569 1.3251-8.9334-0.0134-12.119-1.3385-3.1858-2.6031-5.9721-0.0217-10.863zm8.7323 0c-2.7636 5.2366-1.3632 8.7592-0.0253 11.943 1.3379 3.1843 2.6141 6.0387 0.0527 11.053l1.1271 0.57619c2.7367-5.3569 1.3246-8.9334-0.014-12.119-1.3385-3.1858-2.6026-5.9721-0.0212-10.863zm8.7323 0c-2.7636 5.2366-1.3632 8.7592-0.0253 11.943 1.3379 3.1843 2.6141 6.0387 0.0527 11.053l1.1271 0.57619c2.7367-5.3569 1.3251-8.9334-0.0134-12.119-1.3385-3.1858-2.6031-5.9721-0.0217-10.863zm-17.66 26.016c0 1.2933-0.68863 2.4865-1.8087 3.1331-0.56096 0.32387-1.1864 0.48578-1.8118 0.48524v1.264c0.8442 5.3e-4 1.6885-0.21736 2.4443-0.65371 0.84452-0.48758 1.5087-1.2073 1.9296-2.0521 0.42087 0.84476 1.0835 1.5645 1.928 2.0521 1.5097 0.87163 3.3732 0.87163 4.8829 0 0.84451-0.48758 1.5082-1.2073 1.9291-2.0521 0.42086 0.84476 1.0835 1.5645 1.928 2.0521 1.5097 0.87163 3.3732 0.87163 4.8829 0 0.84484-0.48777 1.5083-1.2079 1.9286-2.0531 0.42084 0.84517 1.0847 1.5653 1.9296 2.0531 0.75515 0.43599 1.5981 0.65388 2.4417 0.65371v-1.264c-0.62484 2.7e-4 -1.2492-0.16164-1.8097-0.48524-1.1201-0.64667-1.8087-1.8398-1.8087-3.1331h-1.5059c0 1.2933-0.68758 2.4865-1.8076 3.1331s-2.4978 0.64667-3.6179 0c-1.1201-0.64667-1.8087-1.8398-1.8087-3.1331h-1.5058c0 1.2933-0.6881 2.4865-1.8082 3.1331s-2.4973 0.64667-3.6174 0-1.8087-1.8398-1.8087-3.1331h-0.23978z" color="#000000"/>
</g>
</svg>
