<svg id="a" width="10mm" height="10mm" version="1.1" viewBox="0 0 53.71 53.71" xmlns="http://www.w3.org/2000/svg">
<g id="b" transform="translate(-82.435 -68.596)">
<path id="c" d="m109.29 75.747c-10.875 0-19.705 8.8303-19.705 19.705 0 10.875 8.8302 19.705 19.705 19.705 10.875 0 19.705-8.8297 19.705-19.705 0-10.875-8.8302-19.705-19.705-19.705zm0 1.2656c9.9796 0 18.094 7.9093 18.427 17.807h-11.873l6.5996-3.8106-0.63252-1.094-9.5901 5.5371 9.5901 5.5371 0.63252-1.0955-6.596-3.8106h11.87c-0.33241 9.8984-8.4478 17.808-18.428 17.808s-18.095-7.9098-18.428-17.808h11.87l-6.596 3.8106 0.63252 1.0955 9.5901-5.5371-9.5901-5.5371-0.63252 1.094 6.5996 3.8106h-11.873c0.33295-9.8979 8.4477-17.807 18.427-17.807zm0 15.579a2.8604 2.8604 0 0 0-2.8603 2.8603 2.8604 2.8604 0 0 0 2.8603 2.8603 2.8604 2.8604 0 0 0 2.8603-2.8603 2.8604 2.8604 0 0 0-2.8603-2.8603z" color="#000000"/>
</g>
</svg>
