<svg width="10mm" height="10mm" version="1.1" viewBox="0 0 200 200" xmlns="http://www.w3.org/2000/svg">
<g fill="none">
<g stroke="#000" stroke-width="10">
<path d="m38.305 171.82v-138.16c0-2.3996 1.9318-4.3314 4.3314-4.3314h62.337c2.3996 0 4.3314 1.9318 4.3314 4.3314v138.16"/>
<path d="m38.305 84.414h71"/>
<path d="m26.559 171.82h94.492"/>
<path d="m157.64 55.626 9.4547 80.332c0.51043 4.2911-0.51199 8.6243-2.8865 12.235-4.4493 6.7648-12.811 9.8081-20.567 7.4859-7.7567-2.3222-13.07-9.4595-13.123-17.556l-0.0532-37.547c-2e-4 -8.9258-7.2356-16.161-16.161-16.161"/>
</g>
</g>
<path d="m125.21 23.179v10.102c3.3851 1.4714 6.7715 2.9434 11.189 6.3945 4.418 3.4511 9.8683 8.8808 13.15 15.35 3.2821 6.4688 4.3957 13.976 5.5098 21.482l18.377-8.5a81.074 81.074 0 0 0-48.227-44.828z"/>
</svg>
