<svg width="10mm" height="10mm" version="1.1" viewBox="0 0 200 200" xmlns="http://www.w3.org/2000/svg">
<path d="m77.838 37.945-0.92004 2.0233c-8.5703 18.852-13.006 39.322-13.006 60.031s4.4355 41.179 13.006 60.031l0.92004 2.0233a1.5512 1.5512 32.74 0 0 1.4139 0.90911l25.316-0.03c25.134 0 47.968-6.6671 64.83-17.795 16.863-11.128 27.959-27.093 27.959-45.139 0-18.045-11.096-34.011-27.959-45.139-16.861-11.127-39.693-17.794-64.824-17.795h-6e-3l-25.316-0.03011a1.5512 1.5512 147.26 0 0-1.4139 0.90912zm7.0331 9.0975 19.693 0.02344h4e-3c23.351 0 44.411 6.3027 59.322 16.143 14.911 9.8399 23.467 22.841 23.467 36.791s-8.5559 26.951-23.467 36.791c-14.911 9.8399-35.972 16.143-59.322 16.143h-4e-3l-19.693 0.0234c-7.1446-16.745-10.959-34.729-10.959-52.957s3.8143-36.212 10.959-52.957z"/>
<path d="m128.57 131.31v9.6582h10v-9.6582zm0-16.553v9.6582h10v-9.6582zm0-16.553v9.6582h10v-9.6582zm-10.783-31.354-1.4824 9.8906c1.3298 0.19914 2.6423 0.58568 3.8691 1.1406l2e-3 2e-3c1.4022 0.63356 2.7156 1.4965 3.8594 2.5352l0.14063 0.12891 0.0645 0.0625 6.8574-7.2793-0.10937-0.10352-0.20703-0.19141-0.01-0.0098c-1.9199-1.7458-4.106-3.1846-6.4766-4.2559h-2e-3c-2.0686-0.93551-4.2587-1.5834-6.5059-1.9199zm38.982 0-1.4805 9.8906c1.3298 0.19914 2.6403 0.58568 3.8672 1.1406h2e-3v2e-3c1.4044 0.63453 2.7203 1.4983 3.8652 2.5391l2e-3 2e-3 0.13281 0.12305 0.0664 0.0625 6.8574-7.2793-0.10938-0.10352-0.20898-0.19141-0.01-0.0098c-1.9199-1.7458-4.106-3.1846-6.4766-4.2559h-2e-3c-2.0686-0.93551-4.2587-1.5834-6.5059-1.9199zm-46.451 0.0059c-0.82494 0.12508-1.6414 0.29272-2.4473 0.5-2.257 0.58009-4.4194 1.4776-6.4219 2.6621-1.5965 0.94399-3.0846 2.0652-4.4336 3.3418l6.873 7.2637c0.80291-0.75983 1.6967-1.4341 2.6504-1.998h2e-3c1.1896-0.70369 2.4852-1.2408 3.8203-1.584 0.48083-0.12367 0.96838-0.22278 1.457-0.29688zm38.984 0c-0.82493 0.12508-1.6433 0.29272-2.4492 0.5-2.2564 0.58011-4.4199 1.4779-6.4219 2.6621-1.596 0.94382-3.0831 2.0656-4.4316 3.3418l6.873 7.2637c0.80292-0.75983 1.6967-1.4341 2.6504-1.998 1.1896-0.70369 2.4852-1.2408 3.8203-1.584h2e-3c0.48083-0.12367 0.96643-0.22278 1.4551-0.29688zm-15.773 13.592c-2.1758 1.2279-4.3506 2.4577-6.5253 3.6875 0.66467 1.2853 1.1823 2.6415 1.461 3.8047v4.2166h10.183s-3e-3 -3.1157 0-4.2498c0.32563-1.402 0.85674-2.5769 1.4648-3.752-2.1938-1.2371-4.3889-2.4719-6.5839-3.7071zm41.162-1.2324-8.7051 4.9199c0.54013 0.95589 0.97336 1.9766 1.2871 3.0312v2e-3h2e-3c0.3688 1.2385 0.57199 2.5381 0.60547 3.8398l6e-3 0.20508v0.0957h10l-2e-3 -0.22266-6e-3 -0.30274v-0.01562c-0.0546-2.1804-0.39431-4.3509-1.0195-6.4512v-2e-3c-0.52794-1.7741-1.2562-3.4859-2.168-5.0996zm-82.273 0.0332c-0.40628 0.72133-0.77456 1.4595-1.1035 2.2109-0.90471 2.0666-1.5203 4.248-1.832 6.4805-0.15603 1.1168-0.22616 2.243-0.23047 3.3691h9.9961c0.0038-0.66426 0.045-1.3279 0.13672-1.9844v-2e-3c0.18496-1.3244 0.55423-2.6301 1.0898-3.8535 0.19775-0.45175 0.41793-0.89133 0.65625-1.3145z"/>
<circle cx="126.17" cy="176.59" r="7.6271"/>
<path d="m126.17 176.59-41.472-71.832" stroke="#000" stroke-width="10"/>
<path d="m16.102 47.488v10h40.016a163.74 163.74 0 0 1 3.1191-10h-43.135zm0 23.756v10h35.555a163.74 163.74 0 0 1 1.4688-10h-37.023zm0 23.756v10h34.613a163.74 163.74 0 0 1-0.37891-5.2988 163.74 163.74 0 0 1 0.33594-4.7012h-34.57zm0 23.756v10h37.154a163.74 163.74 0 0 1-1.5566-10h-35.598zm0 23.756v10h43.357a163.74 163.74 0 0 1-3.2129-10h-40.145z"/>
</svg>
