<svg id="a" width="10mm" height="10mm" version="1.1" viewBox="0 0 53.71 53.71" xmlns="http://www.w3.org/2000/svg">
<g id="b" transform="translate(-22.822 -107.27)">
<path id="c" d="m57.346 111.4v11.649l7.6507 3.8706-19.148 4.8359 17.471 4.438-17.471 4.4266 11.497 5.3113v3.328h-21.189l7.7039-4.3165-0.62684-1.0976-10.679 6.0115 10.677 6.0823 0.63097-1.096-7.6192-4.3181h21.102v6.2932h1.2656v-11.686l-9.0775-4.2194 18.925-4.6803-17.358-4.4442 17.358-4.4643-9.848-5.0369v-10.887zm-11.278 1.0346-0.62684 1.0976 7.7039 4.3165h-20.518v1.2656h20.431l-7.6192 4.3181 0.63097 1.0961 10.677-6.0823zm-15.173 30.495v13.926h1.2754v-13.926z" color="#000000"/>
</g>
</svg>
