<svg id="a" width="10mm" height="10mm" version="1.1" viewBox="0 0 53.71 53.71" xmlns="http://www.w3.org/2000/svg">
<g id="b" transform="translate(-95.209 -115.08)">
<path id="c" d="m112.69 118.29v24.373c8e-3 0.9648 0.44255 1.9901 1.0098 3.037 0.44843 0.82773 0.99295 1.6561 1.5327 2.3998-1.2942 3.4439-2.2181 7.1809-2.5973 11.532 1.7131 1.0033 1.7301 1.0242 1.7301 1.0242s1.9603 1.239 3.0763 1.9374c2.232 1.3967 4.4592 2.7771 4.4592 2.7771l0.3359 0.20929 9.0155-5.7072-0.0134-0.36122c-0.17964-5.2432-1.5971-10.238-3.4871-15.027 2.004-3.2724 3.245-5.6515 3.7352-10.482l4e-3 -0.031v-15.682h-3.0422c-1.156 6.62-1.9519 9.552-6.3133 16.611l-2e-3 2e-3c-2.4273 3.9403-4.6448 7.6776-6.3448 11.787-0.35252-0.5204-0.69105-1.0625-0.97772-1.5916-0.52122-0.96208-0.85039-1.8968-0.85524-2.4453v-3.0735l0.17571-0.71179c1.6237-8.591 3.8752-13.362 8.1907-20.578h-1.4712c-3.2689 5.5234-5.3685 9.7917-6.8952 15.577v-15.577zm17.535 4.7377v10.872c-0.57349 5.6088-2.0715 7.4966-4.8922 12.097-1.6792 2.7115-3.3645 4.9782-4.27 7.7871-0.3413 1.0588-0.56424 2.1888-0.632 3.4344-1.7743-0.0325-3.3465 0.18036-4.9201 0.64492 1.1393-8.5883 4.5558-14.522 8.892-21.561v-2e-3c3.4264-5.5463 4.822-8.9485 5.8224-13.272zm-3.3078 22.811c1.6358 4.3245 2.8017 8.7737 3.0091 13.377l-7.2833 4.6085c-1.2823-4.2752-1.1778-7.1617-0.37517-9.6516 0.82486-2.5588 2.4301-4.7489 4.1408-7.5117l2e-3 -2e-3c0.1777-0.28984 0.33774-0.5474 0.50643-0.82011zm-6.9763 12.641c0.15631-9.5e-4 0.31443 5.6e-4 0.4749 4e-3 0.0423 1.4753 0.29268 3.1126 0.79995 4.9718-0.76852-0.4771-1.7908-1.1127-3.1037-1.9342-1.0151-0.63523-2.0064-1.2587-2.8117-1.7704 0.0155-0.17281 0.0329-0.34351 0.0501-0.51418 1.4976-0.50232 2.9337-0.74647 4.5904-0.75654z" color="#000000"/>
</g>
</svg>
