<svg width="10mm" height="10mm" version="1.1" viewBox="0 0 200 200" xmlns="http://www.w3.org/2000/svg">
<g fill="none" stroke="#000" stroke-width="5">
<circle cx="100" cy="100" r="74.756"/>
<circle cx="100" cy="100" r="30.566"/>
</g>
<circle cx="45.243" cy="66.101" r="3.9571"/>
<circle cx="59.004" cy="60.169" r="3.9571"/>
<circle cx="54.184" cy="84.852" r="3.9571"/>
<circle cx="34.693" cy="104.29" r="3.9571"/>
<circle cx="61.123" cy="99.682" r="3.9571"/>
<circle cx="43.591" cy="131.94" r="3.9571"/>
<circle cx="62.977" cy="131.94" r="3.9571"/>
<circle cx="81.356" cy="136.55" r="3.9571"/>
<circle cx="77.595" cy="162.39" r="3.9571"/>
<circle cx="106.3" cy="138.19" r="3.9571"/>
<circle cx="118.64" cy="157.26" r="3.9571"/>
<circle cx="133.9" cy="134.32" r="3.9571"/>
<circle cx="161.55" cy="117.06" r="3.9571"/>
<circle cx="152.22" cy="97.564" r="3.9571"/>
<circle cx="155.83" cy="74.788" r="3.9571"/>
<circle cx="127.22" cy="69.809" r="3.9571"/>
<circle cx="140.25" cy="51.96" r="3.9571"/>
<circle cx="109.11" cy="39.513" r="3.9571"/>
<circle cx="94.015" cy="61.6" r="3.9571"/>
<circle cx="77.383" cy="58.104" r="3.9571"/>
<circle cx="74.364" cy="39.407" r="3.9571"/>
<circle cx="82.508" cy="34.868" r="2.459"/>
<circle cx="85.018" cy="43.895" r="2.459"/>
<circle cx="78.875" cy="48.576" r="2.459"/>
<circle cx="92.396" cy="37.715" r="2.459"/>
<circle cx="101.65" cy="33.445" r="2.459"/>
<circle cx="99.474" cy="43.22" r="2.459"/>
<circle cx="92.358" cy="49.4" r="2.459"/>
<circle cx="86.89" cy="55.43" r="2.459"/>
<circle cx="85.093" cy="63.595" r="2.459"/>
<circle cx="104.72" cy="61.123" r="2.459"/>
<circle cx="103.11" cy="51.497" r="2.459"/>
<circle cx="111.61" cy="48.426" r="2.459"/>
<circle cx="113.59" cy="57.415" r="2.459"/>
<circle cx="117.56" cy="65.13" r="2.459"/>
<circle cx="124.61" cy="59.849" r="2.459"/>
<circle cx="132.47" cy="57.04" r="2.459"/>
<circle cx="121.05" cy="50.898" r="2.459"/>
<circle cx="119.44" cy="43.37" r="2.459"/>
<circle cx="118.24" cy="34.681" r="2.459"/>
<circle cx="127.04" cy="40.823" r="2.459"/>
<circle cx="136.78" cy="43.22" r="2.459"/>
<circle cx="130.41" cy="48.539" r="2.459"/>
<circle cx="136.14" cy="64.007" r="2.459"/>
<circle cx="143.63" cy="60.224" r="2.459"/>
<circle cx="150.04" cy="55.692" r="2.459"/>
<circle cx="155.54" cy="65.692" r="2.459"/>
<circle cx="146.07" cy="67.078" r="2.459"/>
<circle cx="145.54" cy="74.606" r="2.459"/>
<circle cx="138.05" cy="72.546" r="2.459"/>
<circle cx="132.58" cy="79.512" r="2.459"/>
<circle cx="140.97" cy="81.572" r="2.459"/>
<circle cx="136.89" cy="89.437" r="2.459"/>
<circle cx="145.58" cy="90.411" r="2.459"/>
<circle cx="150.6" cy="82.845" r="2.459"/>
<circle cx="157.6" cy="89.1" r="2.459"/>
<circle cx="162.69" cy="81.909" r="2.459"/>
<circle cx="165.35" cy="90.86" r="2.459"/>
<circle cx="162.66" cy="99.811" r="2.459"/>
<circle cx="165.95" cy="107.94" r="2.459"/>
<circle cx="154.98" cy="106.52" r="2.459"/>
<circle cx="137.6" cy="98.575" r="2.459"/>
<circle cx="136.96" cy="107.83" r="2.459"/>
<circle cx="144.98" cy="104.08" r="2.459"/>
<circle cx="144.68" cy="111.87" r="2.459"/>
<circle cx="151.42" cy="116.4" r="2.459"/>
<circle cx="144.9" cy="120.45" r="2.459"/>
<circle cx="137.98" cy="117.19" r="2.459"/>
<circle cx="131.46" cy="123.18" r="2.459"/>
<circle cx="139.66" cy="126.22" r="2.459"/>
<circle cx="158.84" cy="124.72" r="2.459"/>
<circle cx="149.85" cy="127.11" r="2.459"/>
<circle cx="143.74" cy="132.13" r="2.459"/>
<circle cx="156.66" cy="132.66" r="2.459"/>
<circle cx="140.93" cy="141.65" r="2.459"/>
<circle cx="134.46" cy="143.37" r="2.459"/>
<circle cx="144.83" cy="148.35" r="2.459"/>
<circle cx="137.98" cy="154.79" r="2.459"/>
<circle cx="131.16" cy="152.02" r="2.459"/>
<circle cx="127.83" cy="161.68" r="2.459"/>
<circle cx="116.29" cy="165.62" r="2.459"/>
<circle cx="104.49" cy="165.69" r="2.459"/>
<circle cx="108.09" cy="158.28" r="2.459"/>
<circle cx="85.954" cy="165.47" r="2.459"/>
<circle cx="87.789" cy="157.45" r="2.459"/>
<circle cx="99.999" cy="156.78" r="2.459"/>
<circle cx="93.669" cy="150.63" r="2.459"/>
<circle cx="98.575" cy="144.08" r="2.459"/>
<circle cx="105.58" cy="150.11" r="2.459"/>
<circle cx="113.86" cy="148.09" r="2.459"/>
<circle cx="123.44" cy="147.75" r="2.459"/>
<circle cx="115.69" cy="140.07" r="2.459"/>
<circle cx="124.49" cy="139.4" r="2.459"/>
<circle cx="117.64" cy="132.13" r="2.459"/>
<circle cx="126.14" cy="129.29" r="2.459"/>
<circle cx="91.347" cy="138.39" r="2.459"/>
<circle cx="86.366" cy="144.46" r="2.459"/>
<circle cx="81.497" cy="151.65" r="2.459"/>
<circle cx="72.658" cy="151.95" r="2.459"/>
<circle cx="69.025" cy="159.02" r="2.459"/>
<circle cx="64.531" cy="150.63" r="2.459"/>
<circle cx="73.517" cy="142.58" r="2.459"/>
<circle cx="71.716" cy="134.48" r="2.459"/>
<circle cx="65.996" cy="141.37" r="2.459"/>
<circle cx="56.515" cy="151.48" r="2.459"/>
<circle cx="56.144" cy="142.21" r="2.459"/>
<circle cx="49.1" cy="144.23" r="2.459"/>
<circle cx="52.436" cy="134.96" r="2.459"/>
<circle cx="50.9" cy="127.6" r="2.459"/>
<circle cx="58.633" cy="122.46" r="2.459"/>
<circle cx="70.551" cy="125.11" r="2.459"/>
<circle cx="65.572" cy="116.84" r="2.459"/>
<circle cx="63.03" cy="108.74" r="2.459"/>
<circle cx="55.614" cy="114.25" r="2.459"/>
<circle cx="46.451" cy="119.49" r="2.459"/>
<circle cx="38.612" cy="123.2" r="2.459"/>
<circle cx="35.805" cy="115.1" r="2.459"/>
<circle cx="44.862" cy="110.59" r="2.459"/>
<circle cx="52.807" cy="106.2" r="2.459"/>
<circle cx="44.756" cy="100.95" r="2.459"/>
<circle cx="51.801" cy="95.233" r="2.459"/>
<circle cx="36.176" cy="95.127" r="2.459"/>
<circle cx="44.703" cy="91.79" r="2.459"/>
<circle cx="62.553" cy="89.248" r="2.459"/>
<circle cx="36.229" cy="84.163" r="2.459"/>
<circle cx="44.703" cy="83.422" r="2.459"/>
<circle cx="40.307" cy="75.318" r="2.459"/>
<circle cx="50.053" cy="76.324" r="2.459"/>
<circle cx="65.572" cy="81.303" r="2.459"/>
<circle cx="60.646" cy="75.53" r="2.459"/>
<circle cx="54.714" cy="69.544" r="2.459"/>
<circle cx="63.136" cy="68.273" r="2.459"/>
<circle cx="71.345" cy="72.564" r="2.459"/>
<circle cx="77.383" cy="68.485" r="2.459"/>
<circle cx="70.392" cy="65.413" r="2.459"/>
<circle cx="68.432" cy="58.369" r="2.459"/>
<circle cx="50" cy="56.462" r="2.459"/>
<circle cx="55.561" cy="50.212" r="2.459"/>
<circle cx="64.778" cy="51.642" r="2.459"/>
<circle cx="71.504" cy="50.636" r="2.459"/>
<circle cx="65.784" cy="43.114" r="2.459"/>
<circle cx="94.643" cy="163.52" r="2.459"/>
<circle cx="150.32" cy="138.56" r="3.9571"/>
</svg>
