<svg id="a" width="10mm" height="10mm" version="1.1" viewBox="0 0 53.71 53.71" xmlns="http://www.w3.org/2000/svg">
<g id="b" transform="translate(-62.209 -165.47)">
<path id="c" d="m95.26 172.85-10.468 0.0175-1.9236 1.9183 0.70228 5.6773 2.2366-1.6149 2e-3 -2.5e-4c0.15951-0.10314 0.2561-0.1013 0.36326-0.0689 0.10772 0.0326 0.22764 0.1237 0.30753 0.25928 0.15976 0.27117 0.22523 0.64876-0.33498 1.1099l-0.0121 0.0113-2.3331 2.1564 0.69606 5.6271 2.2366-1.6149 2e-3 -2.5e-4c0.15952-0.10314 0.2561-0.1013 0.36326-0.0689 0.10772 0.0326 0.22764 0.1237 0.30753 0.25929 0.15976 0.27117 0.22548 0.6508-0.33472 1.112l-0.01235 9e-3 -2.3331 2.1564 0.69631 5.6291 2.2366-1.6149c0.16106-0.10476 0.25741-0.10318 0.36512-0.0707 0.10772 0.0326 0.22764 0.1237 0.30752 0.25928 0.15976 0.27117 0.22548 0.65081-0.33472 1.112l-0.01204 0.0118-2.3331 2.1564 0.696 5.6265 2.2366-1.6149 2e-3 -2.5e-4c0.15951-0.10316 0.25616-0.1009 0.36332-0.0684 0.10772 0.0326 0.22764 0.12368 0.30753 0.25927 0.15976 0.27117 0.22523 0.64875-0.33498 1.1099l-0.01207 0.0115-2.3331 2.1564 0.69511 5.6194 2.2258-1.6057c0.52948-0.31922 0.76848-0.22488 0.98715-0.0556 0.21999 0.17045 0.34896 0.53751 0.33024 0.69543l-0.0055 0.0398 0.02141 2.3494 4.4232-0.0139zm-1.2657 1.2683-0.0066 36.409-1.903 5e-3 -0.0093-1.0184c0.06424-0.68081-0.23735-1.3502-0.8155-1.7981-0.5911-0.45801-1.5458-0.55766-2.4251-0.0229l-0.02027 0.0128-0.55129 0.39676-0.35317-2.8551 1.8178-1.6792c0.47348-0.38977 0.74062-0.87883 0.8343-1.367 0.09366-0.48812 0.01244-0.97532-0.21596-1.363-0.22842-0.38771-0.58617-0.69445-1.031-0.829-0.4448-0.13454-0.97673-0.0682-1.4212 0.22115l-0.01316 8e-3 -0.54199 0.39197-0.35412-2.8628 1.8178-1.6792c4.57e-4 -3.7e-4 -7.31e-4 -2e-3 -2.46e-4 -2e-3 0.47265-0.38959 0.74097-0.87725 0.83455-1.3649l-6.3e-5 -5.1e-4c0.09367-0.48812 0.01225-0.97687-0.21616-1.3646-0.22842-0.38771-0.58591-0.69239-1.0307-0.82695-0.4448-0.13455-0.97699-0.0703-1.4215 0.21907l-0.01291 0.01-0.54199 0.39197-0.35418-2.8633 1.8176-1.6812c0.47348-0.38977 0.74088-0.87678 0.83455-1.3649 0.09366-0.48812 0.01225-0.97687-0.21616-1.3646-0.22842-0.38771-0.58591-0.69241-1.0307-0.82696-0.4448-0.13454-0.97698-0.0703-1.4215 0.21907l-0.01294 9e-3 -0.54224 0.38991-0.35412-2.8628 1.8178-1.6792c0.47348-0.38977 0.74062-0.87883 0.8343-1.3669 0.09366-0.48812 0.0125-0.97482-0.2159-1.3625-0.22842-0.38771-0.58617-0.69446-1.031-0.829-0.4448-0.13455-0.97673-0.0682-1.4212 0.2211l-0.01319 7e-3 -0.54199 0.39196-0.36216-2.944 1.1142-1.1121z" color="#000000"/>
</g>
</svg>
