<svg id="a" width="10mm" height="10mm" version="1.1" viewBox="0 0 53.71 53.71" xmlns="http://www.w3.org/2000/svg">
<g id="b" transform="translate(-63.274 -203.08)">
<path id="c" d="m93.686 223.73-0.8475 0.93947c2.4973 2.2573 2.4624 6.3697-0.01602 8.5137-2.0454 1.7694-3.5198 1.8814-4.6442 1.5586-1.1244-0.32287-1.9302-1.1647-2.3869-1.6428-1.204-1.2602-1.0826-2.6827-0.51728-3.4959 0.28269-0.40661 0.65836-0.64227 1.0604-0.67799 0.40203-0.0357 0.88707 0.10862 1.449 0.68781l0.90848-0.88108c-0.75895-0.78227-1.6454-1.1393-2.4691-1.0661-0.82375 0.0732-1.5281 0.55497-1.988 1.2165-0.91979 1.323-0.93013 3.4442 0.64234 5.0901 0.44135 0.46196 1.4294 1.5489 2.9533 1.9864s3.551 0.14277 5.8182-1.8185c3.0725-2.6579 3.1011-7.6408 0.03721-10.41zm-19.816 0.0408c-1.9238-8e-3 -3.8635 0.75162-5.2482 2.2836l0.93947 0.8475c2.2573-2.4973 6.3697-2.4629 8.5137 0.0155 1.7694 2.0454 1.8814 3.5182 1.5586 4.6426-0.32287 1.1244-1.1642 1.9318-1.6423 2.3885-1.2602 1.204-2.6812 1.0832-3.4944 0.5178-0.40661-0.28268-0.64176-0.65837-0.67748-1.0604-0.0357-0.40204 0.10604-0.8876 0.68523-1.4495l-0.88057-0.90796c-0.78227 0.75895-1.1398 1.6448-1.0666 2.4686 0.0732 0.82375 0.55548 1.5286 1.217 1.9885 1.323 0.91979 3.4437 0.92962 5.0896-0.64285 0.46196-0.44136 1.5489-1.4289 1.9864-2.9528s0.14278-3.5531-1.8185-5.8203c-1.3289-1.5362-3.2381-2.3106-5.162-2.3187zm30.527 5.2e-4c-0.11117 3e-4 -0.2232 6e-3 -0.3359 0.0155-0.9016 0.079-1.843 0.46951-2.666 1.2557-0.46195 0.44136-1.5468 1.4289-1.9844 2.9528s-0.14277 3.5516 1.8185 5.8188c2.6579 3.0725 7.6387 3.1006 10.408 0.0367l-0.93792-0.8475c-2.2573 2.4973-6.3713 2.4629-8.5152-0.0155-1.7694-2.0454-1.8814-3.5203-1.5586-4.6447 0.32287-1.1244 1.1663-1.9297 1.6444-2.3864 1.2602-1.204 2.6811-1.0852 3.4944-0.51986 0.4066 0.28268 0.64176 0.66043 0.67748 1.0625 0.0357 0.40203-0.10656 0.8876-0.68575 1.4495l0.88108 0.90589c0.78227-0.75894 1.1377-1.6428 1.0645-2.4665-0.0732-0.82375-0.55342-1.5286-1.2149-1.9885-0.57881-0.40241-1.3116-0.63054-2.0898-0.62838z" color="#000000"/>
</g>
</svg>
