<svg id="a" width="10mm" height="10mm" version="1.1" viewBox="0 0 53.71 53.71" xmlns="http://www.w3.org/2000/svg">
<g id="b" transform="translate(-113.31 -170.79)">
<path id="c" d="m126.2 176.16v5.2e-4c-1.9505 0-3.3751 1.6078-3.5352 3.484l-3.3693 39.491 0.86145-0.21704s9.0407-2.1708 11.655-2.8701h8.201v-1.2656h-5.9051c0.40481-0.48544 0.67239-1.0876 0.74104-1.758 4e-5 -3.4e-4 -3e-5 -7.7e-4 0-1e-3 0.0343-0.2437 0.0355-0.49861-6e-3 -0.76171l-0.0155-0.0982-5.2e-4 -5e-3c-5e-4 -3e-3 -1e-3 -7e-3 -2e-3 -0.01l-0.26458-1.6903h5.4519v-1.2744h-5.6513l-4.6318-29.585c-0.14127-0.90261-0.50766-1.7445-1.1054-2.3828-0.5977-0.63827-1.4471-1.0563-2.4241-1.0563zm27.915 0c-0.97701 0-1.8264 0.418-2.4241 1.0563-0.59769 0.63827-0.96408 1.4802-1.1054 2.3828l-5.0529 32.277h-5.4302v1.2656h5.3806c0.16939 1.223 0.99842 2.2086 2.1198 2.6329 3.6e-4 1.3e-4 6.8e-4 3.8e-4 1e-3 5.1e-4 0.10005 0.0442 0.214 0.0857 0.35037 0.12558 1.6976 0.4962 12.204 3.0179 12.204 3.0179l0.86145 0.21704-3.3693-39.491c-0.16005-1.8762-1.5847-3.484-3.5352-3.484zm-27.915 1.2661c0.63249 0 1.1098 0.23948 1.5002 0.65629 0.39032 0.41682 0.67167 1.025 0.77928 1.7126l4.6008 29.389h-1.6144c-1.8748 0-3.4086 1.5333-3.4086 3.4081 0 1.1246 0.5521 2.1265 1.3984 2.7482-3.0966 0.7661-7.8219 1.894-8.7478 2.1291l3.2169-37.717c0.11355-1.3311 1.0068-2.326 2.2753-2.326zm27.915 0c1.2685 0 2.1618 0.99484 2.2753 2.326l3.2169 37.717c-0.92589-0.23507-5.6512-1.363-8.7478-2.1291 0.84626-0.62164 1.3984-1.6235 1.3984-2.7482 0-1.8748-1.5338-3.4081-3.4086-3.4081-0.61411 0-1.1904 0.17375-1.6883 0.47336l4.6746-29.862c0.10761-0.68754 0.38896-1.2957 0.77928-1.7126 0.39032-0.41681 0.86768-0.65629 1.5002-0.65629zm-22.649 33.023v9e-3h0.16278c1.1128 0.0897 1.972 1.0839 1.972 2.22 0 1.1911-0.94362 2.0583-2.1348 2.0583s-2.1425-0.95346-2.1425-2.1446c0-1.1911 0.95137-2.1425 2.1425-2.1425zm17.383 0c1.1911 0 2.1425 0.95138 2.1425 2.1425 0 1.1911-0.95137 2.1446-2.1425 2.1446-1.1911 0-2.1348-0.86715-2.1348-2.0583 0-1.1911 0.94362-2.2288 2.1348-2.2288z" color="#000000"/>
</g>
</svg>
