<svg id="a" width="10mm" height="10mm" version="1.1" viewBox="0 0 53.71 53.71" xmlns="http://www.w3.org/2000/svg">
<g id="b" transform="translate(-66.467 -120.76)">
<path id="c" d="m112.66 133.8-26.834 5.2e-4c-2.4746 0-4.5136 1.8868-4.7553 4.2984-8e-3 0.0794-0.0141 0.15926-0.0181 0.23978-4e-3 0.0799-6e-3 0.16048-6e-3 0.24133v0.00103c0 0.0813 2e-3 0.16203 6e-3 0.24236 3e-3 0.053 7e-3 0.10561 0.0119 0.15813 2e-3 0.0275 3e-3 0.0553 6e-3 0.0827 1.4e-4 1e-3 3.8e-4 3e-3 5.2e-4 4e-3 0.24502 2.4082 2.2826 4.2907 4.7547 4.2907h26.834c2.4722 0 4.5092-1.8825 4.7542-4.2907 1.9e-4 -2e-3 3.3e-4 -4e-3 5.1e-4 -6e-3 8e-3 -0.0786 0.014-0.15756 0.0181-0.2372 4e-5 -6.8e-4 -3e-5 -1e-3 0-2e-3 3e-3 -0.0536 3e-3 -0.10769 4e-3 -0.16175 4.5e-4 -0.0271 2e-3 -0.0539 2e-3 -0.0811-1e-5 -0.0812-2e-3 -0.16168-6e-3 -0.24185-4e-3 -0.0805-0.0101-0.16035-0.0181-0.23978-0.24169-2.4116-2.2801-4.2984-4.7547-4.2984zm-23.739 1.2645h20.642c-0.96585 0.86667-1.5756 2.1229-1.5756 3.5166 0 1.392 0.60819 2.6464 1.572 3.5124h-20.635c0.96325-0.86601 1.571-2.1204 1.571-3.5124 0-1.3937-0.60927-2.6499-1.5746-3.5166zm-3.1502 0.0558c1.9186 0 3.4608 1.5422 3.4608 3.4608 0 1.9186-1.5422 3.4608-3.4608 3.4608-1.9162 0-3.4569-1.5383-3.4608-3.4535-1e-5 -2e-3 0-5e-3 0-7e-3v-5.1e-4c5.6e-4 -1.9181 1.5425-3.4597 3.4608-3.4597zm26.944 0c1.7987 0 3.2668 1.3555 3.4432 3.1058 6e-3 0.0584 0.01 0.11704 0.0129 0.17622 3e-3 0.0589 5e-3 0.11814 5e-3 0.17777 0 0.0175-1e-3 0.0348-2e-3 0.0522-6.1e-4 0.0427-1e-3 0.0854-3e-3 0.12764-4e-5 8.6e-4 5e-5 2e-3 0 3e-3 -2e-3 0.0455-6e-3 0.0904-0.0103 0.1354-1e-3 0.0147-2e-3 0.0297-3e-3 0.0444-0.1793 1.7473-1.6461 3.0996-3.4427 3.0996-1.9186 0-3.4613-1.5422-3.4613-3.4608 0-1.9186 1.5427-3.4608 3.4613-3.4608zm-40.547 6.3908-0.63252 1.0955 6.2141 3.5879h-8.5408v2.8386h8.5408l-6.2141 3.5879 0.63252 1.0955 8.1122-4.6834h36.923v-2.8386h-36.923zm40.493 10.358-26.834 5.2e-4c-2.4746 0-4.5136 1.8868-4.7553 4.2984-8e-3 0.0794-0.0141 0.15925-0.0181 0.23977-4e-3 0.0799-6e-3 0.16048-6e-3 0.24133v0.00104c0 0.0813 2e-3 0.16203 6e-3 0.24236 3e-3 0.053 8e-3 0.10561 0.0119 0.15813 2e-3 0.0275 3e-3 0.0553 6e-3 0.0827 1.4e-4 1e-3 3.8e-4 3e-3 5.2e-4 4e-3 0.24501 2.4082 2.2826 4.2907 4.7547 4.2907h26.834c2.4722 0 4.5092-1.8825 4.7542-4.2907 1.9e-4 -2e-3 3.3e-4 -4e-3 5.1e-4 -6e-3 8e-3 -0.0786 0.014-0.15755 0.0181-0.23719 4e-5 -6.8e-4 -3e-5 -1e-3 0-2e-3 3e-3 -0.0536 3e-3 -0.10768 4e-3 -0.16174 4.5e-4 -0.0271 2e-3 -0.0539 2e-3 -0.0811-1e-5 -0.0812-2e-3 -0.16167-6e-3 -0.24184-4e-3 -0.0805-0.0101-0.16035-0.0181-0.23978-0.24169-2.4116-2.2801-4.2984-4.7547-4.2984zm-23.739 1.2645h20.642c-0.96585 0.86665-1.5756 2.1229-1.5756 3.5166 0 1.392 0.60818 2.6464 1.572 3.5124h-20.635c0.96325-0.86601 1.571-2.1204 1.571-3.5124 0-1.3937-0.60926-2.6499-1.5746-3.5166zm-3.1502 0.0558c1.9186 0 3.4608 1.5422 3.4608 3.4608 0 1.9186-1.5422 3.4608-3.4608 3.4608-1.9162 0-3.4569-1.5383-3.4608-3.4535-1e-5 -2e-3 0-5e-3 0-7e-3v-1e-3c5.5e-4 -1.9181 1.5425-3.4597 3.4608-3.4597zm26.944 0c1.7987 0 3.2668 1.3555 3.4432 3.1058 6e-3 0.0584 0.01 0.11704 0.0129 0.17622 3e-3 0.0589 5e-3 0.11813 5e-3 0.17776 0 0.0175-1e-3 0.0348-2e-3 0.0522-6.1e-4 0.0427-1e-3 0.0854-3e-3 0.12764-4e-5 8.6e-4 5e-5 2e-3 0 3e-3 -2e-3 0.0455-6e-3 0.0904-0.0103 0.13539-1e-3 0.0147-2e-3 0.0297-3e-3 0.0444-0.1793 1.7473-1.6461 3.0996-3.4427 3.0996-1.9186 0-3.4613-1.5422-3.4613-3.4608 0-1.9186 1.5427-3.4608 3.4613-3.4608z" color="#000000"/>
</g>
</svg>
