<svg id="a" width="10mm" height="10mm" version="1.1" viewBox="0 0 53.71 53.71" xmlns="http://www.w3.org/2000/svg">
<g id="b" transform="translate(-96.984 -103.73)">
<path id="c" d="m123.84 111.46c-1.7546 0-3.1771 1.211-3.1771 2.7053 0 0.92592 0.54584 9.6664 1.3787 16.182h1.1643v12.702c-1.5448 0.2984-2.7208 1.6657-2.7208 3.2944 0 1.845 1.5088 3.3538 3.3538 3.3538 1.845 0 3.3554-1.5088 3.3554-3.3538 0-1.6289-1.1774-2.9967-2.7228-3.2949v-12.701h1.1663c0.83289-6.5156 1.3787-15.256 1.3787-16.182-1e-5 -1.4943-1.422-2.7053-3.1766-2.7053zm-1e-3 32.793c1.1613 0 2.0898 0.92849 2.0898 2.0898 0 1.1613-0.92848 2.0882-2.0898 2.0882s-2.0877-0.92694-2.0877-2.0882c0-1.1613 0.92642-2.0898 2.0877-2.0898z" color="#000000"/>
</g>
</svg>
