<svg id="a" width="10mm" height="10mm" version="1.1" viewBox="0 0 53.71 53.71" xmlns="http://www.w3.org/2000/svg">
<g id="b" transform="translate(-48.169 -72.948)">
<path id="c" d="m70.082 78.161v17.396l5.2e-4 3e-3h-16.782v2.7848h16.16c-4e-3 6e-3 -7e-3 0.0129-0.0114 0.0191-0.44699 0.69758-1.1218 1.2712-1.9358 1.8733-1.628 1.2041-3.8018 2.5197-5.1738 5.3728-1.0299 2.1416-1.4213 3.6887-1.5095 5.871-0.0882 2.1823 0.16588 9.9648 0.16588 9.9648l1.2635-0.0176s-0.24932-7.8319-0.16589-9.896c0.0834-2.0641 0.40048-3.3263 1.3849-5.3733 1.2134-2.5232 3.086-3.6482 4.7868-4.9062 0.85041-0.62896 1.6623-1.2932 2.2479-2.2071 0.5856-0.91391 0.91177-2.0678 0.83405-3.5388v-17.346zm8.6191 0v17.346c-0.0777 1.471 0.24845 2.6249 0.83406 3.5388 0.5856 0.91388 1.3975 1.5781 2.2479 2.2071 1.7008 1.2579 3.5718 2.383 4.7852 4.9062 0.98445 2.047 1.3036 3.3092 1.387 5.3733 0.0834 2.0641-0.16795 9.896-0.16795 9.896l1.2656 0.0181s0.25409-7.783 0.16588-9.9653c-0.0882-2.1823-0.48007-3.7294-1.51-5.871-1.3721-2.8531-3.5458-4.1687-5.1738-5.3728-0.814-0.60203-1.4883-1.1757-1.9353-1.8733-4e-3 -6e-3 -7e-3 -0.0129-0.0114-0.0191h16.16v-2.7848h-16.783v-17.399zm-3.6933 25.115-5.3728 9.3632 1.0955 0.63045 3.6571-6.3717 9e-3 14.542 1.2662-1e-5 -0.0103-14.521 3.6664 6.35 1.0955-0.63045z" color="#000000"/>
</g>
</svg>
