<svg id="a" width="10mm" height="10mm" version="1.1" viewBox="0 0 53.71 53.71" xmlns="http://www.w3.org/2000/svg">
<g id="b" transform="translate(-11.345 -122.16)">
<path id="c" d="m36.918 126.36v11.803c-0.0238 10.56-2.8552 14.245-5.7904 17.711-2.8852 3.4067-5.9377 7.1763-6.0363 15.807h1.3012c0.09031-8.3421 2.8212-11.556 5.7397-15.002 2.8588-3.3756 5.8274-7.4136 6.0684-17.327 0.24086 9.9135 3.2075 13.952 6.0663 17.327 2.9186 3.4461 5.6514 6.6601 5.7418 15.002h1.3012c-0.09879-8.6305-3.1532-12.4-6.0384-15.807-2.9351-3.4657-5.7645-7.1512-5.7883-17.711v-11.803h-1.2997zm-10.088 5.0302c-4.951 0-8.9777 4.0278-8.9777 8.9788 0 4.9509 4.0268 8.9783 8.9777 8.9783s8.9788-4.0273 8.9788-8.9783c0-4.951-4.0278-8.9788-8.9788-8.9788zm22.741 0c-4.9509 0-8.9777 4.0278-8.9777 8.9788 0 4.9509 4.0268 8.9783 8.9777 8.9783 4.951 0 8.9788-4.0273 8.9788-8.9783 0-4.951-4.0278-8.9788-8.9788-8.9788zm-22.741 1.2656c4.2673 0 7.7132 3.4459 7.7132 7.7132s-3.4459 7.7127-7.7132 7.7127c-4.2673 0-7.7127-3.4454-7.7127-7.7127s3.4454-7.7132 7.7127-7.7132zm22.741 0c4.2673 0 7.7132 3.4459 7.7132 7.7132s-3.4459 7.7127-7.7132 7.7127c-4.2673 0-7.7127-3.4454-7.7127-7.7127s3.4454-7.7132 7.7127-7.7132zm-22.741 5.1759c-1.3931 0-2.5352 1.1442-2.5352 2.5373s1.1421 2.5352 2.5352 2.5352 2.5373-1.1421 2.5373-2.5352c0-1.3931-1.1442-2.5373-2.5373-2.5373zm22.741 0c-1.3931 0-2.5352 1.1442-2.5352 2.5373s1.1421 2.5352 2.5352 2.5352c1.3931 0 2.5373-1.1421 2.5373-2.5352 0-1.3931-1.1442-2.5373-2.5373-2.5373zm-22.741 1.2656c0.70948 0 1.2723 0.56228 1.2723 1.2718s-0.5628 1.2712-1.2723 1.2712c-0.70949 0-1.2712-0.56176-1.2712-1.2712s0.56175-1.2718 1.2712-1.2718zm22.741 0c0.70948 0 1.2723 0.56228 1.2723 1.2718s-0.5628 1.2712-1.2723 1.2712c-0.70949 0-1.2712-0.56176-1.2712-1.2712s0.56175-1.2718 1.2712-1.2718zm-22.996 14.239-8.8181 12.391 2.2794 1.6226 8.8201-12.388zm23.252 0-2.2815 1.6252 8.8186 12.388 2.281-1.6226zm-11.643 0.19534-5.3728 9.3632 1.0955 0.63046 3.6571-6.3717 0.0088 14.527h1.2661l-0.01033-14.506 3.667 6.35 1.0955-0.63046z" color="#000000"/>
</g>
</svg>
