<svg id="a" width="10mm" height="10mm" version="1.1" viewBox="0 0 53.71 53.71" xmlns="http://www.w3.org/2000/svg">
<g id="b" transform="translate(-4.1181 -85.337)">
<path id="c" d="m11.466 94.052v36.281h30.088v-4.8369h7.8962v-2.8153h-1.1012v-19.708c1.212-0.28993 2.1311-1.392 2.1311-2.6846 0-1.5096-1.2536-2.7631-2.7631-2.7631s-2.7631 1.2536-2.7631 2.7631c0 1.2925 0.91933 2.3945 2.1311 2.6846v19.708h-5.5309v-28.629zm1.2656 1.2656h27.556v33.752h-27.556zm13.777 5.7459c-6.1389 0-11.129 4.9902-11.129 11.129 0 6.1389 4.9902 11.129 11.129 11.129 6.1389 0 11.129-4.9902 11.129-11.129 0-6.1389-4.9902-11.129-11.129-11.129zm0 1.2656c4.9814 0 9.0905 3.676 9.7668 8.4682l-9.0852 5.2446v-9.6718l-10.541 6.0859c-2e-3 -0.0876-4e-3 -0.17536-4e-3 -0.26355 0-5.4552 4.4083-9.8635 9.8635-9.8635zm-0.58394 6.2342v9.6702l10.449-6.0322c-5e-3 5.4512-4.4128 9.8562-9.865 9.8562-4.8938 0-8.9424-3.5498-9.7245-8.2186z" color="#000000"/>
</g>
</svg>
