<svg id="a" width="10mm" height="10mm" version="1.1" viewBox="0 0 53.71 53.71" xmlns="http://www.w3.org/2000/svg">
<g id="b" transform="translate(-22.822 -113.31)">
<path id="c" d="m56.433 116.51-13.264 2e-3v21.064l-2.5466 2.5471 2.1735 2.1714-2.3497 2.3518 2.2619 2.2619-2.095 2.095h-11.292v12.621h12.505l1.2805 2.1957h13.356l1.2671-2.1957h12.305v-12.621h-13.066l2.1441-2.142-2.2185-2.219 2.1952-2.1952-2.2402-2.2402 2.297-2.295-2.713-2.7125 5.1e-4 -18.688zm-11.999 1.2656h10.733v16.186c-1.0377-0.87055-2.3756-1.1854-3.5491-0.91571-1.2822 0.29461-2.359 1.4231-2.359 3.0603v3.5223l-6.737 0.60617-0.11059-0.11059 2.0231-2.0236zm7.9494 16.444c0.72542-0.0132 1.552 0.27701 2.1699 0.89142l2.8029 2.8009-2.297 2.295 2.2402 2.2402-2.1952 2.1952 2.2185 2.219-2.2929 2.2908 2.2112 2.2112-2.2267 2.2262 2.3518 2.3518-2.2836 2.2851 1.9963 1.9963-1.3477 2.3316h-5.2069v-26.449c0-1.1389 0.56127-1.641 1.3767-1.8283 0.1528-0.0351 0.31525-0.0543 0.48266-0.0574zm-3.1249 7.6554v2.3229l-6.8554 0.6165-0.16795-0.16795 2.3492-2.3518-2e-3 -2e-3zm0 4.5703v2.6034l-0.12195-0.29559-6.5138 0.58602-0.27853-0.27854 2.1523-2.1523-0.0341-0.0341zm-18.672 3.8235h11.178l0.59634 0.59583 0.25322 0.70539-2.0138 2.0138 2.0035 2.0035 0.14883 0.41445-2.1973 2.1952 2.1616 2.1616h-12.131zm27.349 0h10.833v10.09h-10.309l0.19947-0.3452-1.7875-1.787 2.2836-2.2851-2.3518-2.3518 2.2267-2.2262zm-8.6765 0.72141v2.3394l-6.536 0.58756-0.33332-0.33331 2.174-2.174zm0 4.5868v2.3327l-6.6068 0.59428-0.30747-0.30696 2.2004-2.1988zm0 4.5806v2.3968h-5.426l-0.48214-0.82786 1.3539-1.1617z" color="#000000"/>
</g>
</svg>
