<svg id="a" width="10mm" height="10mm" version="1.1" viewBox="0 0 53.71 53.71" xmlns="http://www.w3.org/2000/svg">
<g id="b" transform="translate(-70.725 -22.822)">
<path id="c" d="m93.406 23.805v10.805h-2.2614l-2.2479 8.3866h2.5962l-1.8681 6.9706h2.574l-1.8748 6.998h2.5916l-1.865 6.9551h2.5161l-1.9007 7.0921h3.5021v4.5372h4.824v-4.5372h3.5021l-1.9007-7.0921h2.5161l-1.865-6.9551h2.5916l-1.8748-6.998h2.574l-1.8681-6.9706h2.5962l-2.2479-8.3866h-2.2614v-10.805zm1.2661 1.2635h5.8162v9.541h-5.8162zm-2.5569 10.805h10.93l1.5704 5.8596h-14.071zm0.68781 7.1231h9.5545l1.5296 5.7071h-12.614zm-15.83 0.14521v26.457h12.457l-2.3745-26.457h-0.57826zm31.132 0-0.0506 0.57412-2.3244 25.883h12.457v-26.457zm-29.867 1.2635h7.6579l2.1487 23.93h-9.8066zm31.025 0h7.66v23.93h-9.8087zm-15.755 5.5619h8.1416l1.5369 5.7325h-11.215zm0.7152 6.998h6.7112l1.5255 5.6896h-9.7622zm0.6506 6.9551h5.41l1.5606 5.8265h-8.5313zm1.5586 7.0921h2.2929v3.2711h-2.2929z" color="#000000"/>
</g>
</svg>
