<svg id="a" width="10mm" height="10mm" version="1.1" viewBox="0 0 53.71 53.71" xmlns="http://www.w3.org/2000/svg">
<g id="b" transform="translate(-84.209 -86.693)">
<path id="c" d="m130.75 92.942-17.842 17.842h17.842zm-1.2656 3.0546v13.523h-13.523zm-34.167 6.7867-1.203 2.0862 17.043 9.8397h22.551v-2.4081h-21.906zm-0.24804 4.4576-0.31678 0.54828-2.1513 3.7264 12.586 7.2662 2.4676-4.2742zm0.46302 1.7291 10.394 6.0012-1.2025 2.082-10.394-6.0012zm17.655 7.3422 17.842 17.842v-17.842zm-15.067 0.3328-9.6935 2.4903 3.2577 1.8826-2.5017 4.332 0.65216 0.37723 2.281 1.3162 2.9337 1.6955 2.5022-4.3341 3.2577 1.8805zm18.12 0.93121h13.523v13.523zm-19.177 0.89659 1.3007 4.6586-1.3653-0.7891-2.5017 4.3336-1.6273-0.93947-1.6268-0.93948 2.5022-4.332-1.3653-0.78858z" color="#000000"/>
</g>
</svg>
