<svg id="a" width="10mm" height="10mm" version="1.1" viewBox="0 0 53.71 53.71" xmlns="http://www.w3.org/2000/svg">
<g id="b" transform="translate(-75.338 -99.467)">
<path id="c" d="m101.72 104.3-0.0331 44.036 17.961-4.8126-0.0336-34.429zm1.2366 1.6113 15.422 4.1305v10.629h-11.523v-2e-3h0.0202v-2.0872c0-2.4026-1.7222-4.4304-3.9186-4.7672zm1.2036 1.3162a0.60851 0.60851 0 0 0-0.60823 0.60875 0.60851 0.60851 0 0 0 0.60823 0.60823 0.60851 0.60851 0 0 0 0.60875-0.60823 0.60851 0.60851 0 0 0-0.60875-0.60875zm2.4598 0.48215a1.0202 1.0202 0 0 0-1.0206 1.0201 1.0202 1.0202 0 0 0 1.0206 1.0201 1.0202 1.0202 0 0 0 1.0201-1.0201 1.0202 1.0202 0 0 0-1.0201-1.0201zm2.4841 0.37672a0.60851 0.60851 0 0 0-0.60875 0.60823 0.60851 0.60851 0 0 0 0.60875 0.60875 0.60851 0.60851 0 0 0 0.60875-0.60875 0.60851 0.60851 0 0 0-0.60875-0.60823zm2.2061 0.67799a0.60851 0.60851 0 0 0-0.60823 0.60875 0.60851 0.60851 0 0 0 0.60823 0.60823 0.60851 0.60851 0 0 0 0.60875-0.60823 0.60851 0.60851 0 0 0-0.60875-0.60875zm-6.9892 0.68626a0.60851 0.60851 0 0 0-0.60823 0.60824 0.60851 0.60851 0 0 0 0.60823 0.60874 0.60851 0.60851 0 0 0 0.60875-0.60874 0.60851 0.60851 0 0 0-0.60875-0.60824zm9.4067 0.18966a0.60851 0.60851 0 0 0-0.60823 0.60875 0.60851 0.60851 0 0 0 0.60823 0.60823 0.60851 0.60851 0 0 0 0.60875-0.60823 0.60851 0.60851 0 0 0-0.60875-0.60875zm-5.1563 0.17621a1.0202 1.0202 0 0 0-1.0201 1.0201 1.0202 1.0202 0 0 0 1.0201 1.0201 1.0202 1.0202 0 0 0 1.0201-1.0201 1.0202 1.0202 0 0 0-1.0201-1.0201zm7.6734 0.37724a1.0202 1.0202 0 0 0-1.0201 1.0201 1.0202 1.0202 0 0 0 1.0201 1.0201 1.0202 1.0202 0 0 0 1.0201-1.0201 1.0202 1.0202 0 0 0-1.0201-1.0201zm-10.081 0.7152a0.60851 0.60851 0 0 0-0.60823 0.60875 0.60851 0.60851 0 0 0 0.60823 0.60823 0.60851 0.60851 0 0 0 0.60875-0.60823 0.60851 0.60851 0 0 0-0.60875-0.60875zm4.7031 0.19534a0.60851 0.60851 0 0 0-0.60875 0.60823 0.60851 0.60851 0 0 0 0.60875 0.60875 0.60851 0.60851 0 0 0 0.60875-0.60875 0.60851 0.60851 0 0 0-0.60875-0.60823zm-6.8513 0.78497a0.60851 0.60851 0 0 0-0.60875 0.60823 0.60851 0.60851 0 0 0 0.60875 0.60875 0.60851 0.60851 0 0 0 0.60823-0.60875 0.60851 0.60851 0 0 0-0.60823-0.60823zm8.8806 0.0119a1.0202 1.0202 0 0 0-1.0201 1.0201 1.0202 1.0202 0 0 0 1.0201 1.0201 1.0202 1.0202 0 0 0 1.0201-1.0201 1.0202 1.0202 0 0 0-1.0201-1.0201zm-4.4576 0.50023a0.60851 0.60851 0 0 0-0.60875 0.60875 0.60851 0.60851 0 0 0 0.60875 0.60823 0.60851 0.60851 0 0 0 0.60823-0.60823 0.60851 0.60851 0 0 0-0.60823-0.60875zm2.1513 0.58808a0.60851 0.60851 0 0 0-0.60875 0.60823 0.60851 0.60851 0 0 0 0.60875 0.60875 0.60851 0.60851 0 0 0 0.60823-0.60875 0.60851 0.60851 0 0 0-0.60823-0.60823zm-3.9812 0.0217a0.60851 0.60851 0 0 0-0.60823 0.60875 0.60851 0.60851 0 0 0 0.60823 0.60875 0.60851 0.60851 0 0 0 0.60875-0.60875 0.60851 0.60851 0 0 0-0.60875-0.60875zm8.5049 0.47697a0.60851 0.60851 0 0 0-0.60824 0.60875 0.60851 0.60851 0 0 0 0.60824 0.60823 0.60851 0.60851 0 0 0 0.60875-0.60823 0.60851 0.60851 0 0 0-0.60875-0.60875zm1.8407 1.0201a0.60851 0.60851 0 0 0-0.60823 0.60875 0.60851 0.60851 0 0 0 0.60823 0.60823 0.60851 0.60851 0 0 0 0.60875-0.60823 0.60851 0.60851 0 0 0-0.60875-0.60875zm-5.4777 0.1664a0.60851 0.60851 0 0 0-0.60823 0.60874 0.60851 0.60851 0 0 0 0.60823 0.60824 0.60851 0.60851 0 0 0 0.60875-0.60824 0.60851 0.60851 0 0 0-0.60875-0.60874zm-3.0158 0.13177a1.0202 1.0202 0 0 0-1.0206 1.0201 1.0202 1.0202 0 0 0 1.0206 1.0201 1.0202 1.0202 0 0 0 1.0201-1.0201 1.0202 1.0202 0 0 0-1.0201-1.0201zm-5.504 0.26458c1.4873 0.32252 2.6841 1.7395 2.6841 3.5114v15.469c0 1.7833-1.2112 3.2066-2.7125 3.5171v-5.6668h0.0284zm10.948 0.59067a0.60851 0.60851 0 0 0-0.60823 0.60823 0.60851 0.60851 0 0 0 0.60823 0.60875 0.60851 0.60851 0 0 0 0.60875-0.60875 0.60851 0.60851 0 0 0-0.60875-0.60823zm-2.5818 1.0025a0.60851 0.60851 0 0 0-0.60875 0.60875 0.60851 0.60851 0 0 0 0.60875 0.60823 0.60851 0.60851 0 0 0 0.60875-0.60823 0.60851 0.60851 0 0 0-0.60875-0.60875zm4.391 0.10955a0.60851 0.60851 0 0 0-0.60875 0.60875 0.60851 0.60851 0 0 0 0.60875 0.60875 0.60851 0.60851 0 0 0 0.60823-0.60875 0.60851 0.60851 0 0 0-0.60823-0.60875zm-2.1751 1.1818a1.0202 1.0202 0 0 0-1.0201 1.0201 1.0202 1.0202 0 0 0 1.0201 1.0201 1.0202 1.0202 0 0 0 1.0206-1.0201 1.0202 1.0202 0 0 0-1.0206-1.0201zm-4.9759 0.0729a0.60851 0.60851 0 0 0-0.60823 0.60874 0.60851 0.60851 0 0 0 0.60823 0.60824 0.60851 0.60851 0 0 0 0.60875-0.60824 0.60851 0.60851 0 0 0-0.60875-0.60874zm8.3742 0.81545a0.60851 0.60851 0 0 0-0.60875 0.60875 0.60851 0.60851 0 0 0 0.60875 0.60823 0.60851 0.60851 0 0 0 0.60823-0.60823 0.60851 0.60851 0 0 0-0.60823-0.60875zm-6.226 0.0941a0.60851 0.60851 0 0 0-0.60823 0.60875 0.60851 0.60851 0 0 0 0.60823 0.60823 0.60851 0.60851 0 0 0 0.60875-0.60823 0.60851 0.60851 0 0 0-0.60875-0.60875zm-3.8359 2.9693h11.503v8.7555h-11.537v-2e-3h0.0341zm0 9.9963h11.503l0.0289 10.669-15.479 4.146v-7.8967c2.2105-0.32355 3.947-2.3578 3.947-4.7708zm3.8359 0.57774a0.60851 0.60851 0 0 0-0.60823 0.60823 0.60851 0.60851 0 0 0 0.60823 0.60875 0.60851 0.60851 0 0 0 0.60875-0.60875 0.60851 0.60851 0 0 0-0.60875-0.60823zm6.226 0.094a0.60851 0.60851 0 0 0-0.60875 0.60823 0.60851 0.60851 0 0 0 0.60875 0.60875 0.60851 0.60851 0 0 0 0.60823-0.60875 0.60851 0.60851 0 0 0-0.60823-0.60823zm-3.3982 0.0651a1.0202 1.0202 0 0 0-1.0201 1.0201 1.0202 1.0202 0 0 0 1.0201 1.0201 1.0202 1.0202 0 0 0 1.0206-1.0201 1.0202 1.0202 0 0 0-1.0206-1.0201zm-4.9759 0.75035a0.60851 0.60851 0 0 0-0.60823 0.60823 0.60851 0.60851 0 0 0 0.60823 0.60875 0.60851 0.60851 0 0 0 0.60875-0.60875 0.60851 0.60851 0 0 0-0.60875-0.60823zm7.151 1.2542a0.60851 0.60851 0 0 0-0.60875 0.60875 0.60851 0.60851 0 0 0 0.60875 0.60875 0.60851 0.60851 0 0 0 0.60823-0.60875 0.60851 0.60851 0 0 0-0.60823-0.60875zm-4.391 0.11007a0.60851 0.60851 0 0 0-0.60875 0.60824 0.60851 0.60851 0 0 0 0.60875 0.60874 0.60851 0.60851 0 0 0 0.60875-0.60874 0.60851 0.60851 0 0 0-0.60875-0.60824zm2.5818 1.0025a0.60851 0.60851 0 0 0-0.60823 0.60874 0.60851 0.60851 0 0 0 0.60823 0.60824 0.60851 0.60851 0 0 0 0.60875-0.60824 0.60851 0.60851 0 0 0-0.60875-0.60874zm-5.4441 0.032a1.0202 1.0202 0 0 0-1.0206 1.0201 1.0202 1.0202 0 0 0 1.0206 1.0201 1.0202 1.0202 0 0 0 1.0201-1.0201 1.0202 1.0202 0 0 0-1.0201-1.0201zm-23.716 0.56017v1.2361h5.6095v9.3224h-5.6095v1.2366h6.8435v-1.1638l8.0507-4.6488-8.0507-4.6478v-1.3348zm26.732 0.39481a0.60851 0.60851 0 0 0-0.60823 0.60823 0.60851 0.60851 0 0 0 0.60823 0.60875 0.60851 0.60851 0 0 0 0.60875-0.60875 0.60851 0.60851 0 0 0-0.60875-0.60823zm5.4777 0.16639a0.60851 0.60851 0 0 0-0.60823 0.60824 0.60851 0.60851 0 0 0 0.60823 0.60874 0.60851 0.60851 0 0 0 0.60875-0.60874 0.60851 0.60851 0 0 0-0.60875-0.60824zm-1.8407 1.0201a0.60851 0.60851 0 0 0-0.60824 0.60823 0.60851 0.60851 0 0 0 0.60824 0.60875 0.60851 0.60851 0 0 0 0.60875-0.60875 0.60851 0.60851 0 0 0-0.60875-0.60823zm-8.5049 0.47645a0.60851 0.60851 0 0 0-0.60823 0.60875 0.60851 0.60851 0 0 0 0.60823 0.60875 0.60851 0.60851 0 0 0 0.60875-0.60875 0.60851 0.60851 0 0 0-0.60875-0.60875zm3.9812 0.0222a0.60851 0.60851 0 0 0-0.60875 0.60875 0.60851 0.60851 0 0 0 0.60875 0.60823 0.60851 0.60851 0 0 0 0.60823-0.60823 0.60851 0.60851 0 0 0-0.60823-0.60875zm2.3063 0.2651a1.0202 1.0202 0 0 0-1.0201 1.0201 1.0202 1.0202 0 0 0 1.0201 1.0201 1.0202 1.0202 0 0 0 1.0201-1.0201 1.0202 1.0202 0 0 0-1.0201-1.0201zm-4.4576 0.32298a0.60851 0.60851 0 0 0-0.60875 0.60823 0.60851 0.60851 0 0 0 0.60875 0.60875 0.60851 0.60851 0 0 0 0.60823-0.60875 0.60851 0.60851 0 0 0-0.60823-0.60823zm-16.851 0.0915 5.5728 3.2189h-5.5728zm12.428 0.42065a0.60851 0.60851 0 0 0-0.60875 0.60874 0.60851 0.60851 0 0 0 0.60875 0.60824 0.60851 0.60851 0 0 0 0.60823-0.60824 0.60851 0.60851 0 0 0-0.60823-0.60874zm6.8513 0.78496a0.60851 0.60851 0 0 0-0.60875 0.60875 0.60851 0.60851 0 0 0 0.60875 0.60823 0.60851 0.60851 0 0 0 0.60875-0.60823 0.60851 0.60851 0 0 0-0.60875-0.60875zm5.378 0.0873a1.0202 1.0202 0 0 0-1.0201 1.0201 1.0202 1.0202 0 0 0 1.0201 1.0201 1.0202 1.0202 0 0 0 1.0201-1.0201 1.0202 1.0202 0 0 0-1.0201-1.0201zm-10.081 0.10801a0.60851 0.60851 0 0 0-0.60823 0.60823 0.60851 0.60851 0 0 0 0.60823 0.60875 0.60851 0.60851 0 0 0 0.60875-0.60875 0.60851 0.60851 0 0 0-0.60875-0.60823zm2.4076 0.26923a1.0202 1.0202 0 0 0-1.0201 1.0201 1.0202 1.0202 0 0 0 1.0201 1.0201 1.0202 1.0202 0 0 0 1.0201-1.0201 1.0202 1.0202 0 0 0-1.0201-1.0201zm5.1563 0.99942a0.60851 0.60851 0 0 0-0.60823 0.60824 0.60851 0.60851 0 0 0 0.60823 0.60874 0.60851 0.60851 0 0 0 0.60875-0.60874 0.60851 0.60851 0 0 0-0.60875-0.60824zm-9.4067 0.18966a0.60851 0.60851 0 0 0-0.60823 0.60875 0.60851 0.60851 0 0 0 0.60823 0.60823 0.60851 0.60851 0 0 0 0.60875-0.60823 0.60851 0.60851 0 0 0-0.60875-0.60875zm6.9892 0.68626a0.60851 0.60851 0 0 0-0.60823 0.60823 0.60851 0.60851 0 0 0 0.60823 0.60875 0.60851 0.60851 0 0 0 0.60875-0.60875 0.60851 0.60851 0 0 0-0.60875-0.60823zm-4.6902 0.23151a1.0202 1.0202 0 0 0-1.0206 1.0201 1.0202 1.0202 0 0 0 1.0206 1.0201 1.0202 1.0202 0 0 0 1.0201-1.0201 1.0202 1.0202 0 0 0-1.0201-1.0201zm2.4841 0.44648a0.60851 0.60851 0 0 0-0.60874 0.60875 0.60851 0.60851 0 0 0 0.60874 0.60823 0.60851 0.60851 0 0 0 0.60875-0.60823 0.60851 0.60851 0 0 0-0.60875-0.60875zm-4.9439 0.85887a0.60851 0.60851 0 0 0-0.60823 0.60823 0.60851 0.60851 0 0 0 0.60823 0.60875 0.60851 0.60851 0 0 0 0.60875-0.60875 0.60851 0.60851 0 0 0-0.60875-0.60823z"/>
</g>
</svg>
