<svg id="a" width="10mm" height="10mm" version="1.1" viewBox="0 0 53.71 53.71" xmlns="http://www.w3.org/2000/svg">
<g id="b" transform="translate(-141.34 -102.66)">
<path id="c" d="m190.14 109.03c-7.0431-8e-3 -13.668 3.6198-17.433 9.693-4.1544 6.7014-4.0936 15.196 0.15606 21.838 3.9387 6.1555 10.832 9.711 18.05 9.431 0.0214-0.34033 0.0508-0.8084 0.078-1.2413-6.8304 0.31066-13.361-3.0331-17.086-8.8558-3.9949-6.2434-4.0522-14.222-0.14676-20.522 3.6895-5.9516 10.294-9.3996 17.226-9.0873-0.0235-0.37692-0.0558-0.89678-0.077-1.2387-0.25616-0.01-0.51218-0.0168-0.7674-0.0171zm-0.31833 2.1399c-0.33625-1.5e-4 -0.60888 0.27249-0.60875 0.60875 1.6e-4 0.33605 0.2727 0.60836 0.60875 0.60823 0.33606 1.3e-4 0.60859-0.27218 0.60875-0.60823 1.3e-4 -0.33626-0.27249-0.6089-0.60875-0.60875zm-2.0857 0.0946c-0.32899 8e-3 -0.59338 0.27774-0.59325 0.60875 1.6e-4 0.33605 0.2727 0.60836 0.60875 0.60823 0.33606 1.3e-4 0.60859-0.27218 0.60875-0.60823 1.3e-4 -0.33626-0.27249-0.6089-0.60875-0.60875-5e-3 0-0.0103-1.3e-4 -0.0155 0zm-2.3368 0.45475c-0.32899 8e-3 -0.59286 0.27775-0.59273 0.60875 1.6e-4 0.33605 0.2727 0.60836 0.60875 0.60823 0.33606 1.3e-4 0.60859-0.27218 0.60875-0.60823 1.3e-4 -0.33626-0.27249-0.6089-0.60875-0.60875-5e-3 0-0.0108-1.3e-4 -0.016 0zm-2.2128 0.77463c-0.55118 0.014-0.9937 0.46556-0.99373 1.0201 4e-5 0.56336 0.45673 1.02 1.0201 1.0201 0.56336-5e-5 1.02-0.45673 1.0201-1.0201-3e-5 -0.56333-0.45673-1.0201-1.0201-1.0201-9e-3 0-0.0175-2.2e-4 -0.0264 0zm4.8472 0.62064c-0.33624-1.5e-4 -0.60887 0.27248-0.60874 0.60874 1.6e-4 0.33605 0.2727 0.60837 0.60874 0.60824 0.33606 1.3e-4 0.60859-0.27219 0.60875-0.60824 1.3e-4 -0.33626-0.27249-0.60889-0.60875-0.60874zm2.3523 0.0315c-0.32898 8e-3 -0.59285 0.27774-0.59272 0.60875 1.6e-4 0.33605 0.27269 0.60836 0.60874 0.60823 0.33606 1.3e-4 0.60859-0.27218 0.60875-0.60823 1.3e-4 -0.33626-0.27249-0.6089-0.60875-0.60875-5e-3 0-0.0108-1.3e-4 -0.016 0zm-9.4402 0.67438c-0.32898 8e-3 -0.59337 0.27773-0.59324 0.60874 1.6e-4 0.33605 0.2727 0.60837 0.60875 0.60824 0.33606 1.3e-4 0.60859-0.27219 0.60875-0.60824 1.3e-4 -0.33626-0.27249-0.60889-0.60875-0.60874-5e-3 0-0.0103-1.3e-4 -0.0155 0zm5.1594 0.23512c-0.33625-1.5e-4 -0.60888 0.27249-0.60875 0.60875 1.6e-4 0.33605 0.2727 0.60836 0.60875 0.60823 0.33606 1.3e-4 0.60859-0.27218 0.60875-0.60823 1.3e-4 -0.33626-0.27249-0.6089-0.60875-0.60875zm-6.9474 1.1762c-0.32899 8e-3 -0.59286 0.27774-0.59273 0.60875 1.6e-4 0.33605 0.2727 0.60836 0.60875 0.60823 0.33606 1.3e-4 0.60859-0.27218 0.60875-0.60823 1.3e-4 -0.33626-0.27249-0.6089-0.60875-0.60875-5e-3 0-0.0108-1.3e-4 -0.016 0zm11.448 0.11007c-0.32899 8e-3 -0.59286 0.27774-0.59273 0.60875 1.6e-4 0.33605 0.2727 0.60836 0.60875 0.60823 0.33606 1.3e-4 0.60859-0.27218 0.60875-0.60823 1.3e-4 -0.33626-0.27249-0.6089-0.60875-0.60875-5e-3 0-0.0108-1.3e-4 -0.016 0zm-2.5874 0.26613c-0.33625-1.5e-4 -0.60888 0.27249-0.60875 0.60875 1.6e-4 0.33605 0.2727 0.60836 0.60875 0.60823 0.33606 1.3e-4 0.60859-0.27218 0.60875-0.60823 1.3e-4 -0.33626-0.27249-0.6089-0.60875-0.60875zm-4.7516 0.20413c-0.32898 8e-3 -0.59285 0.27773-0.59273 0.60874 1.6e-4 0.33605 0.2727 0.60837 0.60875 0.60824 0.33606 1.3e-4 0.60859-0.27219 0.60875-0.60824 1.3e-4 -0.33626-0.27249-0.60889-0.60875-0.60874-5e-3 -1e-5 -0.0108-1.3e-4 -0.016 0zm1.9916 0.0315c-0.32898 8e-3 -0.59285 0.27774-0.59273 0.60875 1.6e-4 0.33605 0.2727 0.60836 0.60875 0.60823 0.33606 1.3e-4 0.60859-0.27218 0.60875-0.60823 1.3e-4 -0.33626-0.27249-0.6089-0.60875-0.60875-5e-3 0-0.0108-1.3e-4 -0.016 0zm-3.8732 0.67386c-0.33624-1.5e-4 -0.60887 0.27249-0.60874 0.60875 1.6e-4 0.33605 0.2727 0.60836 0.60874 0.60823 0.33606 1.3e-4 0.60859-0.27218 0.60875-0.60823 1.3e-4 -0.33626-0.27249-0.6089-0.60875-0.60875zm-4.3599 0.43925c-0.33624-1.5e-4 -0.60887 0.27249-0.60874 0.60875 1.6e-4 0.33605 0.2727 0.60836 0.60874 0.60823 0.33606 1.3e-4 0.60859-0.27218 0.60875-0.60823 1.3e-4 -0.33626-0.27249-0.6089-0.60875-0.60875zm13.361 0.48627c-0.32898 8e-3 -0.59285 0.27775-0.59272 0.60875 1.6e-4 0.33605 0.27269 0.60836 0.60874 0.60823 0.33606 1.3e-4 0.60859-0.27218 0.60875-0.60823 1.3e-4 -0.33626-0.27249-0.6089-0.60875-0.60875-5e-3 -1e-5 -0.0108-1.3e-4 -0.016 0zm-11.432 0.14108c-0.32898 8e-3 -0.59337 0.27774-0.59324 0.60875 1.6e-4 0.33605 0.2727 0.60836 0.60875 0.60823 0.33606 1.3e-4 0.60859-0.27218 0.60875-0.60823 1.3e-4 -0.33626-0.27249-0.6089-0.60875-0.60875-5e-3 0-0.0103-1.3e-4 -0.0155 0zm8.6718 0.1881c-0.33625-1.5e-4 -0.60888 0.27249-0.60875 0.60875 1.6e-4 0.33605 0.2727 0.60836 0.60875 0.60823 0.33605 1.3e-4 0.60859-0.27218 0.60875-0.60823 1.3e-4 -0.33626-0.2725-0.6089-0.60875-0.60875zm-3.0748 0.0145c-0.55119 0.014-0.99371 0.46555-0.99374 1.0201 4e-5 0.56334 0.45674 1.02 1.0201 1.0201 0.56336-4e-5 1.0201-0.45675 1.0201-1.0201-3e-5 -0.56336-0.45674-1.0201-1.0201-1.0201-9e-3 0-0.0176-2.2e-4 -0.0264 0zm-28.517 0.26975c-6.3231 0-11.461 5.1398-11.461 11.463s5.1377 11.461 11.461 11.461c6.3231 0 11.463-5.1382 11.463-11.461s-5.1398-11.463-11.463-11.463zm26.806 0.13333-7.6838 2.3182 0.3576 1.1818 3.8158-1.1508c-2.145 2.6732-3.2848 6.0484-3.1636 9.5255 0.14909 4.278 2.1912 8.2702 5.5743 10.893l0.75809-0.97668c-3.094-2.3985-4.9615-6.0467-5.0979-9.9591-0.12583-3.6107 1.2345-7.0998 3.7398-9.6666l-1.1167 5.4927 1.2108 0.24443zm-7.3205 0.31936c-0.33625-1.5e-4 -0.60888 0.27249-0.60875 0.60875 1.6e-4 0.33605 0.2727 0.60836 0.60875 0.60823 0.33606 1.3e-4 0.60859-0.27218 0.60875-0.60823 1.3e-4 -0.33626-0.27249-0.6089-0.60875-0.60875zm-19.485 0.78186c5.6557 0 10.228 4.5727 10.228 10.228 0 5.6556-4.5727 10.227-10.228 10.227-5.6556 0-10.227-4.5711-10.227-10.227 0-5.6556 4.5711-10.228 10.227-10.228zm33.418 0.35864c-0.55119 0.014-0.99371 0.46554-0.99374 1.0201 4e-5 0.56336 0.45674 1.02 1.0201 1.0201 0.56335-4e-5 1.02-0.45673 1.0201-1.0201-3e-5 -0.56336-0.45674-1.0201-1.0201-1.0201-9e-3 0-0.0175-2.2e-4 -0.0263 0zm-2.8608 0.61598c-0.33624-1.5e-4 -0.60887 0.27249-0.60874 0.60875 1.6e-4 0.33605 0.2727 0.60836 0.60874 0.60823 0.33606 1.3e-4 0.60859-0.27218 0.60875-0.60823 1.3e-4 -0.33626-0.27249-0.6089-0.60875-0.60875zm-2.9326 0.0315c-0.32899 8e-3 -0.59338 0.27775-0.59325 0.60875 1.6e-4 0.33605 0.2727 0.60836 0.60875 0.60823 0.33606 1.3e-4 0.60859-0.27218 0.60875-0.60823 1.3e-4 -0.33626-0.27249-0.6089-0.60875-0.60875-5e-3 0-0.0103-1.3e-4 -0.0155 0zm1.5994 1.772c-0.32898 8e-3 -0.59285 0.27774-0.59273 0.60875 1.6e-4 0.33605 0.2727 0.60836 0.60875 0.60823 0.33606 1.3e-4 0.60859-0.27218 0.60875-0.60823 1.3e-4 -0.33626-0.27249-0.6089-0.60875-0.60875-5e-3 0-0.0108-1.3e-4 -0.016 0zm-11.62 0.0155c-0.33625-1.5e-4 -0.60888 0.27249-0.60875 0.60875 1.6e-4 0.33605 0.2727 0.60836 0.60875 0.60823 0.33606 1.3e-4 0.60859-0.27218 0.60875-0.60823 1.3e-4 -0.33626-0.27249-0.6089-0.60875-0.60875zm16.711 0.14728c-0.14998-5.4e-4 -0.2996 4e-3 -0.44856 0.0124-2.3833 0.13916-4.6151 1.4428-5.8828 3.5822-1.6904 2.8526-1.2525 6.4917 1.0666 8.8615 1.7621 1.8006 4.281 2.5307 6.6564 2.064 0.0111-0.17921 0.0282-0.44967 0.0388-0.6196 0.0169-0.27227 0.0256-0.41639 0.0408-0.66197-2.0666 0.52441-4.306-0.0647-5.8534-1.6459-1.9322-1.9744-2.2951-4.9925-0.88677-7.369 1.3821-2.3323 4.1261-3.4642 6.7417-2.7998-0.0175-0.27843-0.0561-0.89322-0.0806-1.2831-0.46392-0.0919-0.93-0.1389-1.3922-0.14056zm-6.8947 0.339c-0.32899 8e-3 -0.59286 0.27775-0.59273 0.60874 1.6e-4 0.33605 0.2727 0.60837 0.60875 0.60824 0.33605 1.3e-4 0.60858-0.27219 0.60874-0.60824 1.3e-4 -0.33624-0.27249-0.60889-0.60874-0.60874-5e-3 0-0.0108-1.3e-4 -0.016 0zm-7.4957 0.15709c-0.32899 8e-3 -0.59337 0.27775-0.59325 0.60875 1.6e-4 0.33605 0.2727 0.60836 0.60875 0.60823 0.33606 1.3e-4 0.60859-0.27218 0.60875-0.60823 1.3e-4 -0.33626-0.27249-0.6089-0.60875-0.60875-5e-3 0-0.0103-1.3e-4 -0.0155 0zm-19.577 1.0707v2.7792h-6.3128v5.4534h6.258v3.207l5.672-5.8203-0.42994-0.43149zm26.304 1.1245c-0.32899 8e-3 -0.59286 0.27774-0.59273 0.60875 1.6e-4 0.33605 0.2727 0.60836 0.60875 0.60823 0.33606 1.3e-4 0.60858-0.27218 0.60874-0.60823 1.3e-4 -0.33626-0.27248-0.6089-0.60874-0.60875-5e-3 0-0.0108-1.3e-4 -0.016 0zm-9.7539 0.0786c-0.32899 8e-3 -0.59337 0.27773-0.59325 0.60874 1.6e-4 0.33605 0.2727 0.60837 0.60875 0.60824 0.33606 1.3e-4 0.60859-0.27219 0.60875-0.60824 1.3e-4 -0.33626-0.27249-0.60889-0.60875-0.60874-5e-3 -1e-5 -0.0103-1.3e-4 -0.0155 0zm2.1797 0.10955c-0.33625-1.5e-4 -0.60888 0.27249-0.60875 0.60875 1.6e-4 0.33605 0.2727 0.60836 0.60875 0.60823 0.33606 1.3e-4 0.60859-0.27218 0.60875-0.60823 1.3e-4 -0.33626-0.27249-0.6089-0.60875-0.60875zm3.9362 1.4898c-0.32899 8e-3 -0.59338 0.27775-0.59325 0.60875 1.6e-4 0.33605 0.2727 0.60836 0.60875 0.60823 0.33606 1.3e-4 0.60859-0.27218 0.60875-0.60823 1.3e-4 -0.33626-0.27249-0.6089-0.60875-0.60875-5e-3 0-0.0103-1.3e-4 -0.0155 0zm-21.432 0.17829 2.6484 2.6505-2.7027 2.7735v-1.4066h-6.256v-2.9843h6.3102zm24.019 0.18241c-0.32899 8e-3 -0.59286 0.27775-0.59273 0.60875 1.6e-4 0.33605 0.2727 0.60836 0.60874 0.60823 0.33606 1.3e-4 0.60859-0.27218 0.60875-0.60823 1.3e-4 -0.33626-0.27249-0.6089-0.60875-0.60875-5e-3 0-0.0108-1.3e-4 -0.016 0zm-6.8683 0.47026c-0.33625-1.5e-4 -0.60888 0.27249-0.60875 0.60875 1.6e-4 0.33605 0.2727 0.60836 0.60875 0.60823 0.33606 1.3e-4 0.60859-0.27218 0.60875-0.60823 1.3e-4 -0.33626-0.27249-0.6089-0.60875-0.60875zm-2.5094 0.48627c-0.32898 8e-3 -0.59285 0.27775-0.59273 0.60875 1.6e-4 0.33605 0.2727 0.60836 0.60875 0.60823 0.33606 1.3e-4 0.60859-0.27218 0.60875-0.60823 1.3e-4 -0.33626-0.27249-0.6089-0.60875-0.60875-5e-3 -1e-5 -0.0108-1.4e-4 -0.016 0zm6.6647 0.59583c-0.33625-1.5e-4 -0.60888 0.27249-0.60875 0.60875 1.6e-4 0.33605 0.2727 0.60836 0.60875 0.60823 0.33606 1.3e-4 0.60859-0.27218 0.60875-0.60823 1.3e-4 -0.33626-0.27249-0.6089-0.60875-0.60875zm2.2789 0.79634c-0.55118 0.014-0.9937 0.46554-0.99373 1.0201 4e-5 0.56336 0.45673 1.02 1.0201 1.0201 0.56336-4e-5 1.02-0.45673 1.0201-1.0201-3e-5 -0.56336-0.45673-1.0201-1.0201-1.0201-9e-3 0-0.0176-2.2e-4 -0.0264 0zm-6.4342 0.42684c-0.33625-1.5e-4 -0.60888 0.27249-0.60875 0.60875 1.6e-4 0.33605 0.2727 0.60836 0.60875 0.60823 0.33606 1.3e-4 0.60859-0.27218 0.60875-0.60823 1.3e-4 -0.33626-0.27249-0.6089-0.60875-0.60875zm-2.4572 0.76482c-0.55119 0.014-0.99371 0.46554-0.99374 1.0201 4e-5 0.56335 0.45673 1.02 1.0201 1.0201 0.56336-4e-5 1.02-0.45673 1.0201-1.0201-3e-5 -0.56336-0.45673-1.0201-1.0201-1.0201-9e-3 0-0.0176-2.2e-4 -0.0264 0zm6.5345 0.0977c-0.33625-1.5e-4 -0.60888 0.27249-0.60875 0.60875 1.6e-4 0.33605 0.2727 0.60836 0.60875 0.60823 0.33606 1.3e-4 0.60859-0.27218 0.60875-0.60823 1.3e-4 -0.33626-0.27249-0.6089-0.60875-0.60875zm2.9481 1.2232c-0.33625-1.5e-4 -0.60888 0.27248-0.60875 0.60874 1.6e-4 0.33605 0.2727 0.60836 0.60875 0.60823 0.33606 1.3e-4 0.60859-0.27218 0.60875-0.60823 1.3e-4 -0.33626-0.27249-0.60889-0.60875-0.60874zm-6.9474 0.40772c-0.33625-1.5e-4 -0.60888 0.27249-0.60875 0.60875 1.6e-4 0.33605 0.2727 0.60836 0.60875 0.60823 0.33606 1.3e-4 0.60859-0.27218 0.60875-0.60823 1.3e-4 -0.33626-0.27249-0.6089-0.60875-0.60875zm4.8457 0.3452c-0.32899 8e-3 -0.59286 0.27774-0.59273 0.60875 1.6e-4 0.33605 0.2727 0.60836 0.60875 0.60823 0.33606 1.3e-4 0.60859-0.27218 0.60875-0.60823 1.3e-4 -0.33626-0.27249-0.6089-0.60875-0.60875-5e-3 0-0.0108-1.3e-4 -0.016 0zm-6.7433 0.76843c-0.32898 8e-3 -0.59285 0.27774-0.59273 0.60875 1.6e-4 0.33605 0.2727 0.60836 0.60875 0.60823 0.33606 1.3e-4 0.60859-0.27218 0.60875-0.60823 1.3e-4 -0.33626-0.27249-0.6089-0.60875-0.60875-5e-3 0-0.0108-1.3e-4 -0.016 0zm9.3467 0.48627c-0.32899 8e-3 -0.59337 0.27775-0.59325 0.60875 1.6e-4 0.33605 0.2727 0.60836 0.60875 0.60823 0.33606 1.3e-4 0.60859-0.27218 0.60875-0.60823 1.3e-4 -0.33626-0.27249-0.6089-0.60875-0.60875-5e-3 -1e-5 -0.0103-1.3e-4 -0.0155 0zm-7.0099 0.50178c-0.32899 8e-3 -0.59337 0.27775-0.59324 0.60875 1.6e-4 0.33605 0.2727 0.60836 0.60874 0.60823 0.33606 1.3e-4 0.60859-0.27218 0.60875-0.60823 1.3e-4 -0.33626-0.27249-0.6089-0.60875-0.60875-5e-3 0-0.0103-1.3e-4 -0.0155 0zm5.2379 0.29766c-0.33624-1.5e-4 -0.60887 0.27249-0.60874 0.60875 1.6e-4 0.33605 0.2727 0.60836 0.60874 0.60823 0.33606 1.3e-4 0.60859-0.27218 0.60875-0.60823 1.3e-4 -0.33626-0.27249-0.6089-0.60875-0.60875zm3.544 0.48627c-0.32898 8e-3 -0.59337 0.27775-0.59324 0.60875 1.6e-4 0.33605 0.2727 0.60836 0.60875 0.60823 0.33606 1.3e-4 0.60859-0.27218 0.60875-0.60823 1.3e-4 -0.33626-0.27249-0.6089-0.60875-0.60875-5e-3 -1e-5 -0.0103-1.3e-4 -0.0155 0zm-10.475 0.36071c-0.32899 8e-3 -0.59338 0.27773-0.59325 0.60874 1.6e-4 0.33603 0.2727 0.60837 0.60875 0.60824 0.33606 1.3e-4 0.60859-0.27221 0.60875-0.60824 1.3e-4 -0.33626-0.27249-0.60889-0.60875-0.60874-5e-3 -1e-5 -0.0103-1.3e-4 -0.0155 0zm2.8381 0.65887c-0.32898 8e-3 -0.59285 0.27774-0.59272 0.60875 1.6e-4 0.33605 0.2727 0.60836 0.60874 0.60823 0.33606 1.3e-4 0.60859-0.27218 0.60875-0.60823 1.3e-4 -0.33626-0.27249-0.6089-0.60875-0.60875-5e-3 0-0.0108-1.3e-4 -0.016 0zm5.2694 0.26613c-0.33625-1.5e-4 -0.60888 0.27249-0.60875 0.60875 1.6e-4 0.33605 0.2727 0.60836 0.60875 0.60823 0.33606 1.3e-4 0.60859-0.27218 0.60875-0.60823 1.3e-4 -0.33626-0.27249-0.6089-0.60875-0.60875zm3.9941 0.81804c-0.55119 0.014-0.99371 0.46554-0.99374 1.0201 4e-5 0.56336 0.45674 1.0201 1.0201 1.0201 0.56335-4e-5 1.02-0.45674 1.0201-1.0201-3e-5 -0.56336-0.45674-1.0201-1.0201-1.0201-9e-3 0-0.0175-2.2e-4 -0.0264 0zm2.8272 0.24857c-0.32899 8e-3 -0.59286 0.27775-0.59273 0.60874 1.6e-4 0.33605 0.2727 0.60837 0.60875 0.60824 0.33606 1.3e-4 0.60859-0.27219 0.60875-0.60824 1.3e-4 -0.33624-0.27249-0.60889-0.60875-0.60874-5e-3 -1e-5 -0.0108-1.3e-4 -0.016 0zm-13.387 0.23151c-0.55118 0.014-0.9937 0.46554-0.99373 1.0201 4e-5 0.56336 0.45673 1.02 1.0201 1.0201 0.56336-4e-5 1.02-0.45673 1.0201-1.0201-3e-5 -0.56336-0.45673-1.0201-1.0201-1.0201-9e-3 0-0.0176-2.2e-4 -0.0264 0zm15.771 4e-3c-0.32898 8e-3 -0.59337 0.27775-0.59324 0.60875 1.6e-4 0.33605 0.2727 0.60836 0.60875 0.60823 0.33605 1.3e-4 0.60858-0.27218 0.60874-0.60823 1.3e-4 -0.33626-0.27249-0.6089-0.60874-0.60875-5e-3 0-0.0103-1.3e-4 -0.0155 0zm-7.6057 0.25115c-0.32899 8e-3 -0.59338 0.27774-0.59325 0.60875 1.6e-4 0.33605 0.2727 0.60836 0.60875 0.60823 0.33606 1.3e-4 0.60859-0.27218 0.60875-0.60823 1.3e-4 -0.33626-0.27249-0.6089-0.60875-0.60875-5e-3 0-0.0103-1.3e-4 -0.0155 0zm-5.3635 0.3762c-0.32899 8e-3 -0.59286 0.27775-0.59273 0.60875 1.6e-4 0.33605 0.2727 0.60836 0.60875 0.60823 0.33606 1.3e-4 0.60859-0.27218 0.60875-0.60823 1.3e-4 -0.33626-0.27249-0.6089-0.60875-0.60875-5e-3 -1e-5 -0.0108-1.3e-4 -0.016 0zm10.601 1.3327c-0.33625-1.5e-4 -0.60888 0.2725-0.60875 0.60875 1.6e-4 0.33603 0.2727 0.60836 0.60875 0.60823 0.33606 1.3e-4 0.60859-0.2722 0.60875-0.60823 1.3e-4 -0.33625-0.27249-0.6089-0.60875-0.60875zm2.0541 0.21962c-0.33625-1.5e-4 -0.60888 0.27249-0.60875 0.60875 1.6e-4 0.33605 0.2727 0.60836 0.60875 0.60823 0.33605 1.3e-4 0.60859-0.27218 0.60875-0.60823 1.3e-4 -0.33626-0.2725-0.6089-0.60875-0.60875zm-6.8528 0.58033c-0.32899 8e-3 -0.59338 0.27775-0.59325 0.60875 1.6e-4 0.33605 0.2727 0.60836 0.60875 0.60823 0.33606 1.3e-4 0.60859-0.27218 0.60875-0.60823 1.3e-4 -0.33626-0.27249-0.6089-0.60875-0.60875-5e-3 0-0.0103-1.3e-4 -0.0155 0zm-4.8147 0.0315c-0.32898 8e-3 -0.59285 0.27775-0.59273 0.60875 1.6e-4 0.33605 0.2727 0.60836 0.60875 0.60823 0.33606 1.3e-4 0.60859-0.27218 0.60875-0.60823 1.3e-4 -0.33626-0.27249-0.6089-0.60875-0.60875-5e-3 -1e-5 -0.0108-1.3e-4 -0.016 0zm-2.1327 0.12506c-0.33625-1.5e-4 -0.60888 0.273-0.60875 0.60926 1.6e-4 0.33605 0.2727 0.60785 0.60875 0.60772 0.33606 1.3e-4 0.60858-0.27167 0.60874-0.60772 1.3e-4 -0.33626-0.27249-0.60941-0.60874-0.60926zm9.5033 0.18862c-0.32899 8e-3 -0.59337 0.27775-0.59324 0.60874 1.6e-4 0.33605 0.2727 0.60837 0.60874 0.60824 0.33606 1.3e-4 0.60859-0.27219 0.60875-0.60824 1.3e-4 -0.33624-0.27248-0.60889-0.60875-0.60874-5e-3 0-0.0103-1.3e-4 -0.0155 0zm2.0386 1.5368c-0.32899 8e-3 -0.59338 0.27774-0.59325 0.60875 1.6e-4 0.33605 0.2727 0.60836 0.60875 0.60823 0.33606 1.3e-4 0.60859-0.27218 0.60875-0.60823 1.3e-4 -0.33626-0.27249-0.6089-0.60875-0.60875-5e-3 0-0.0103-1.3e-4 -0.0155 0zm-7.5742 0.0625c-0.32898 8e-3 -0.59337 0.27776-0.59324 0.60875 1.6e-4 0.33605 0.2727 0.60836 0.60875 0.60823 0.33605 1.3e-4 0.60858-0.27218 0.60874-0.60823 1.3e-4 -0.33624-0.27249-0.6089-0.60874-0.60875-5e-3 -1e-5 -0.0103-1.3e-4 -0.0155 0zm-2.1957 0.23461c-0.33625-1.5e-4 -0.60888 0.27249-0.60875 0.60875 1.6e-4 0.33605 0.2727 0.60836 0.60875 0.60823 0.33606 1.3e-4 0.60859-0.27218 0.60875-0.60823 1.3e-4 -0.33626-0.27249-0.6089-0.60875-0.60875zm6.5707 0.0941c-0.33625-1.5e-4 -0.60888 0.27249-0.60875 0.60875 1.6e-4 0.33605 0.2727 0.60836 0.60875 0.60823 0.33606 1.3e-4 0.60859-0.27218 0.60875-0.60823 1.3e-4 -0.33626-0.27249-0.6089-0.60875-0.60875zm5.2534 0.11007c-0.32898 8e-3 -0.59285 0.27775-0.59272 0.60875 1.6e-4 0.33605 0.27269 0.60836 0.60874 0.60823 0.33606 1.3e-4 0.60859-0.27218 0.60875-0.60823 1.3e-4 -0.33626-0.27249-0.6089-0.60875-0.60875-5e-3 -1e-5 -0.0108-1.3e-4 -0.016 0zm-7.6528 0.031c-0.33625-1.5e-4 -0.60888 0.27249-0.60874 0.60875 1.6e-4 0.33605 0.27269 0.60836 0.60874 0.60823 0.33606 1.3e-4 0.60859-0.27218 0.60875-0.60823 1.3e-4 -0.33626-0.27249-0.6089-0.60875-0.60875zm4.0147 1.2862c-0.32898 8e-3 -0.59337 0.27774-0.59324 0.60875 1.6e-4 0.33605 0.2727 0.60836 0.60875 0.60823 0.33606 1.3e-4 0.60859-0.27218 0.60875-0.60823 1.3e-4 -0.33626-0.27249-0.6089-0.60875-0.60875-5e-3 0-0.0103-1.3e-4 -0.0155 0zm-4.8772 0.51728c-0.33624-1.5e-4 -0.60888 0.27249-0.60874 0.60875 1.5e-4 0.33605 0.27269 0.60836 0.60874 0.60823 0.33606 1.3e-4 0.60859-0.27218 0.60875-0.60823 1.3e-4 -0.33626-0.27249-0.6089-0.60875-0.60875zm7.151 0.25115c-0.32899 8e-3 -0.59286 0.27773-0.59273 0.60874 1.6e-4 0.33605 0.2727 0.60837 0.60875 0.60824 0.33605 1.3e-4 0.60859-0.27219 0.60875-0.60824 1.3e-4 -0.33626-0.27249-0.60889-0.60875-0.60874-5e-3 -1e-5 -0.0108-1.3e-4 -0.016 0zm-4.9346 0.13694c-0.55119 0.014-0.99371 0.46554-0.99374 1.0201 4e-5 0.56336 0.45673 1.02 1.0201 1.0201 0.56336-4e-5 1.02-0.45673 1.0201-1.0201-3e-5 -0.56336-0.45673-1.0201-1.0201-1.0201-9e-3 0-0.0175-2.2e-4 -0.0263 0zm2.2216 1.2743c-0.32898 8e-3 -0.59285 0.27774-0.59272 0.60875 1.6e-4 0.33605 0.27269 0.60836 0.60874 0.60823 0.33606 1.3e-4 0.60859-0.27218 0.60875-0.60823 1.3e-4 -0.33626-0.27249-0.6089-0.60875-0.60875-5e-3 0-0.0108-1.3e-4 -0.016 0zm3.1368 0.51728c-0.33624-1.5e-4 -0.60887 0.27249-0.60874 0.60875 1.6e-4 0.33605 0.2727 0.60836 0.60874 0.60823 0.33606 1.3e-4 0.60859-0.27218 0.60875-0.60823 1.3e-4 -0.33626-0.27249-0.6089-0.60875-0.60875z"/>
</g>
</svg>
