<svg id="a" width="10mm" height="10mm" version="1.1" viewBox="0 0 53.71 53.71" xmlns="http://www.w3.org/2000/svg">
<g id="b" transform="translate(-3.3061 -101.95)">
<path id="c" d="m31.168 111.31-7.1701 4.1408 0.61701 1.0682 4.0618-2.3446-6.6327 11.398 1.0702 0.61909 6.8192-11.721v5.0508h1.2346zm8.2755 0.12092-9.2294 15.986v5.3201l4.7387-2.7352 9.1643-15.873zm0.45321 1.6867 2.5321 1.4614-8.3793 14.518-2.5998 1.5028 5.1e-4 -2.8525zm-24.588 12.404-0.0155 5.2e-4 -5.4591 5.2e-4v19.516h-2.2944v1.2656h45.242v-1.2656h-2.0407c-0.0401-0.82278-0.13526-1.4935-0.32866-2.0624-0.21317-0.62704-0.57331-1.1381-1.0682-1.4748-0.98967-0.67342-2.2811-0.68871-4.1114-0.72089h-2.2738c-0.78639 0.0187-1.6928-0.069-2.3104-0.37465-0.61769-0.30574-0.99347-0.7077-0.98444-1.7363v-0.9843c-6e-3 -1.2866-0.66101-2.2453-1.4821-2.7776-0.82106-0.53234-1.775-0.7077-2.5724-0.69143h-13.078c-1.5484-7e-3 -2.781-1.2206-2.8494-2.5017v-2.1997c-0.0197-1.2414-0.48247-2.2698-1.2816-2.9435-0.79897-0.67354-1.8752-0.99032-3.0913-1.049zm-4.2085 1.2645h4.1481c1.0313 0.0497 1.8225 0.31748 2.3378 0.7519 0.51534 0.43443 0.81524 1.0385 0.83044 1.9983v2.2226l2e-3 0.0176c0.10368 2.0197 1.9106 3.6966 4.1093 3.7052h13.101l8e-3 -2e-3c0.57455-0.0117 1.3198 0.14145 1.8572 0.48989s0.90047 0.82312 0.90433 1.7188v0.96893c-0.0125 1.4235 0.74805 2.4148 1.6898 2.881 0.94176 0.46615 2.017 0.52697 2.9022 0.50592l-0.0155 2e-3h2.236c1.8092 0.0318 2.9037 0.14701 3.422 0.49971 0.25917 0.17635 0.4337 0.40234 0.58188 0.83819 0.13077 0.38465 0.21889 0.92894 0.25838 1.6542h-38.374z" color="#000000"/>
</g>
</svg>
