<svg id="a" width="10mm" height="10mm" version="1.1" viewBox="0 0 53.71 53.71" xmlns="http://www.w3.org/2000/svg">
<g id="b" transform="translate(-34.177 -155.89)">
<path id="c" d="m64.431 166.83-7.1112 4.1062 7.1711 4.1388 0.6165-1.0682-4.4333-2.3456 14.328-0.0568 1e-3 -1.2366-14.329 0.0568 4.3744-2.5254zm-12.67 4.2917v3.7047h-8.0977v2.6799h9.3343v-6.3846zm3.0205 5.7201v2.8401h-11.133v10.416h11.133v2.8381h23.635v-16.094zm1.2366 1.2366h2.3337v13.623h-2.3337zm3.5683 0h17.596v6.6549l-17.596-6.5169zm0 1.4542 17.596 6.5174v5.3671l-17.596-6.5169zm-14.701 1.3834h9.8966v7.9473h-9.8966zm14.701 5.3004 14.809 5.4849h-14.809zm-15.923 6.0544v2.6799h8.0977v3.7052h1.2366v-6.3851z" color="#000000"/>
</g>
</svg>
