<svg id="a" width="10mm" height="10mm" version="1.1" viewBox="0 0 53.71 53.71" xmlns="http://www.w3.org/2000/svg">
<g id="b" transform="translate(-12.177 -187.47)">
<path id="c" d="m56.668 192.56v9.3116l-2.3399-4.0535-1.0702 0.61702 4.0271 6.9763 4.0271-6.9727-1.0702-0.61909-2.3399 4.0525v-9.3121zm-23.007 3.0148v7.6967l-0.05633-0.0563-2.9099 2.9094v-2.9802l-13.942 5.2e-4v22.357h13.942v-2.9817l2.9099 2.9094 0.05633-0.0563v7.6982h16.51v-7.8863l0.23306 0.23306 2.6432-2.8551v-16.483l-2.6432-2.8525-0.23306 0.23306v-7.8848zm1.2361 1.234h14.039v7.8832h0.0031l-1.3617 1.3622-2.8494-2.8494-2.7833 2.7833-2.8164-2.8164-2.7854 2.7828-1.4459-1.4469zm-16.879 7.6011h11.411v19.826h-11.411zm32.398 0.61805v18.588l-2.7792-2.7538v-13.078zm-11.221 5.2e-4 -0.06615 18.655-2.7833-2.7792v-13.164zm-5.5371 0.0279v18.53l-2.8711-2.5776v-13.373zm11.207 0.0739v18.384l-2.9125-2.6386-0.03204-13.123zm2.712 17.461 1.3617 1.3617h-0.0031v7.8827h-14.039v-7.6998l1.4459-1.4454 2.7854 2.7833 2.8164-2.8169 2.7833 2.7833zm9.7074 0.64286-4.0271 6.9763 1.0702 0.61701 2.3399-4.0535v9.3116h1.234v-9.3121l2.3399 4.0525 1.0702-0.61908z" color="#000000"/>
</g>
</svg>
