<svg id="a" width="10mm" height="10mm" version="1.1" viewBox="0 0 53.71 53.71" xmlns="http://www.w3.org/2000/svg">
<g id="b" transform="translate(-60.967 -121.82)">
<path id="c" d="m81.561 127.36 6.3283 10.732 6.1945-10.732zm2.1384 1.2346h8.246l-4.0561 7.027zm-4.4623 2.6949c-8e-3 4e-3 -0.0165 8e-3 -0.0248 0.0119h-8.4837v1.2346h6.2286c-7.1119 4.4995-10.796 13.031-8.9855 21.433 1.9955 9.2591 10.136 15.914 19.607 16.027s17.77-6.3439 19.986-15.553c2.0504-8.5179-1.604-17.307-8.879-21.908h6.2301v-1.2346h-10.541l5.0798 8.7989 1.0702-0.61701-3.8597-6.688c7.7349 4.0453 11.75 12.839 9.6986 21.359-2.0834 8.655-9.8678 14.714-18.769 14.607s-16.539-6.3499-18.414-15.052c-1.8143-8.4183 2.233-16.96 9.802-20.916l-3.8613 6.6895 1.0702 0.61701 5.0782-8.7989h-2.0268z" color="#000000"/>
</g>
</svg>
