<svg id="a" width="10mm" height="10mm" version="1.1" viewBox="0 0 53.71 53.71" xmlns="http://www.w3.org/2000/svg">
<g id="b" transform="translate(-60.967 -121.82)">
<path id="c" d="m78.467 128.97v13.903h1.2345v-12.667h16.242v12.667h1.2345v-13.903zm9.3948 3.5724-5.7402 5.7407h2.9585v6.195h5.4534v-6.2735h2.99zm0 1.7482 2.6794 2.6799h-1.2423v6.2735h-2.9843v-6.1955h-1.2108zm-10.179 10.94-12.04 6.9515 9.3555 16.204 12.04-6.9515-0.61702-1.0692-10.97 6.3335-8.121-14.066 10.97-6.3335zm20.278 0-0.61702 1.0692 10.97 6.3335-8.121 14.066-10.97-6.3335-0.61753 1.0692 12.041 6.9515 9.3555-16.204zm-15.581 4.9242-5.365 3.0975-1.4795-2.5621-2.1012 7.8414 7.7344 2.0722-1.495-2.5895 5.4327-3.1368zm10.885 0-2.727 4.7227 5.4333 3.1368-1.495 2.5895 7.7344-2.0722-2.1017-7.8414-1.479 2.5621zm-11.337 1.6862 1.4924 2.5843-5.4333 3.1368 0.62115 1.0759-3.6608-0.98031 1.0098-3.7677 0.60513 1.049zm11.788 0 5.3656 3.098 0.60565-1.049 1.0092 3.7677-3.6608 0.98031 0.62115-1.0759-5.4327-3.1368z" color="#000000"/>
</g>
</svg>
