<svg width="10mm" height="10mm" version="1.1" viewBox="0 0 200 200" xmlns="http://www.w3.org/2000/svg">
<path d="m82.469 27.965c-1.939 0-5.133 0.109-8.416 1.494-2.102 0.886-3.704 1.857-5.551 3.023-1.853 1.171-3.164 2.05-6.057 3.543-2.867 1.481-5.177 2.412-7.927 3.237-2.887 0.866-5.427 1.634-8.485 2.084-3.271 0.481-3.549 0.549-8.902 0.644-0.814 0.015-1.86-0.022-2.977-0.078-1.552-0.077-3.268-0.201-5-0.351v128.81c1.7 0.142 3.414 0.254 5 0.32 1.093 0.046 2.137 0.075 3.03 0.059 5.406-0.097 6.28-0.218 9.541-0.697 3.474-0.511 6.316-1.378 9.193-2.241 3.014-0.904 5.697-1.99 8.785-3.584 3.013-1.555 4.056-2.192 5.889-3.349 1.598-1.01 3.581-1.891 5.408-2.516 1.786-0.611 4.771-0.957 6.297-0.957 1.316 0 4.383 0.525 6.058 0.961 1.175 0.306 4.032 1.656 5.795 3.086 0.802 0.65 1.936 1.482 2.879 2.406 0.277 0.271 0.543 0.548 0.772 0.832 1e-3 2e-3 2e-3 4e-3 4e-3 6e-3 0.733 0.911 1.632 2.06 2.466 3.125 0.836-1.067 1.737-2.219 2.471-3.131 0.02-0.025 0.042-0.049 0.063-0.074 0.214-0.258 0.457-0.509 0.709-0.756 0.943-0.924 2.077-1.758 2.879-2.408 1.763-1.43 4.618-2.78 5.793-3.086 1.675-0.436 4.744-0.961 6.06-0.961 1.526 0 4.509 0.346 6.295 0.957 1.827 0.625 3.812 1.506 5.41 2.516 1.833 1.157 2.876 1.794 5.889 3.349 3.088 1.594 5.771 2.68 8.785 3.584 2.877 0.863 5.717 1.73 9.191 2.241 3.261 0.479 4.135 0.6 9.541 0.697 0.866 0.015 1.872-0.01 2.928-0.053 1.582-0.064 3.298-0.177 5-0.318v-128.81c-0.869 0.075-1.66 0.114-2.5 0.172-0.84 0.059-1.728 0.137-2.5 0.174-1.059 0.051-2.05 0.084-2.828 0.07-5.353-0.095-5.631-0.163-8.902-0.644-3.058-0.45-5.596-1.218-8.483-2.084-2.75-0.825-5.062-1.756-7.929-3.237-2.893-1.493-4.202-2.372-6.055-3.543-1.847-1.166-3.449-2.137-5.551-3.023-3.283-1.385-6.477-1.494-8.416-1.494-2.21 0-4.977 0.481-7.879 1.625-2.222 0.876-5.078 2.739-7.437 5.262-3e-3 2e-3 -5e-3 5e-3 -8e-3 7e-3 -0.721 0.772-1.552 1.727-2.492 3.104-4e-3 5e-3 -6e-3 8e-3 -0.01 0.014-0.94-1.379-1.769-2.331-2.49-3.104-4e-3 -4e-3 -8e-3 -0.01-0.012-0.014-2.361-2.526-5.221-4.392-7.445-5.269-2.902-1.144-5.669-1.625-7.879-1.625zm0 5c1.44 0 3.736 0.365 6.045 1.275 1.113 0.439 3.895 2.18 5.625 4.031 0.691 0.741 1.302 1.431 2.14 2.686 0.365 0.546 0.738 1.134 1.098 1.713 0.157 0.252 0.294 0.475 0.428 0.693v114.6c-0.162-0.123-0.408-0.311-0.504-0.389-2.463-1.997-5.388-3.442-7.686-4.041-2.041-0.531-4.984-1.121-7.318-1.121-2.125 0-5.227 0.307-7.914 1.227-2.123 0.726-4.409 1.721-6.461 3.017-1.818 1.148-2.569 1.616-5.512 3.135-2.868 1.48-5.18 2.413-7.93 3.238-2.886 0.866-5.424 1.633-8.482 2.082-3.272 0.481-3.549 0.551-8.902 0.647-0.805 0.014-1.839-0.022-2.942-0.076v-118.75c1.107 0.047 2.164 0.076 3.067 0.06 5.406-0.096 6.28-0.22 9.541-0.699 3.474-0.511 6.314-1.377 9.191-2.24 3.014-0.904 5.699-1.988 8.787-3.582 3.063-1.581 4.635-2.623 6.432-3.758 1.804-1.139 3.079-1.908 4.824-2.645 2.277-0.96 4.761-1.101 6.473-1.101zm35.652 0c1.712 0 4.196 0.141 6.473 1.101 1.745 0.737 3.02 1.506 4.824 2.645 1.797 1.135 3.369 2.177 6.432 3.758 3.088 1.594 5.771 2.678 8.785 3.582 2.877 0.863 5.719 1.729 9.193 2.24 3.261 0.479 4.135 0.603 9.541 0.699 0.863 0.016 1.865-0.01 2.916-0.052v118.75c-1.063 0.051-2.058 0.084-2.838 0.07-5.353-0.096-5.63-0.166-8.902-0.647-3.058-0.449-5.596-1.216-8.483-2.082-2.75-0.825-5.061-1.758-7.929-3.238-2.943-1.519-3.694-1.987-5.512-3.135-2.052-1.296-4.338-2.291-6.461-3.017-2.687-0.92-5.789-1.227-7.914-1.227-2.334 0-5.279 0.59-7.32 1.121-2.298 0.599-5.221 2.044-7.684 4.041-0.083 0.068-0.303 0.236-0.437 0.338v-114.58c0.128-0.21 0.258-0.422 0.408-0.662 0.36-0.579 0.733-1.167 1.098-1.713 0.837-1.255 1.449-1.945 2.14-2.686 1.73-1.851 4.511-3.592 5.625-4.031 2.309-0.91 4.605-1.275 6.045-1.275z"/>
</svg>
