<svg id="a" width="10mm" height="10mm" version="1.1" viewBox="0 0 53.71 53.71" xmlns="http://www.w3.org/2000/svg">
<g id="b" transform="translate(-27.79 -71.08)">
<path id="c" d="m54.986 78.795c-0.74356 2e-3 -1.494 0.10539-2.2309 0.30076-3.4831 0.92374-6.7343 3.853-7.9075 7.8336-0.51768-0.27341-1.0632-0.58043-1.7312-0.71469-0.73623-0.14798-1.6001-0.0195-2.4903 0.55087l-6e-3 2e-3 -4e-3 2e-3c-3.2758 2.1737-5.4694 5.4982-5.7449 9.8356-4.177 4.0775-3.93 9.8402-1.1317 13.676 2.3828 3.2664 6.6764 5.1479 11.453 3.5734 2.4237 3.2415 5.7213 3.8233 8.5318 2.6918 2.7366-1.1018 5.0666-3.6762 6.2162-6.7205h1.1528c2.0246-0.0236 3.6825 0.97077 4.5765 1.6738l3.451 3.451 0.89452-0.89452-3.5197-3.5192-0.0289-0.0217c-1.0295-0.81225-2.94-1.9834-5.3888-1.9549h-9.8707c0.13967-0.67394 0.13003-1.3251 0.12248-1.9218-2e-3 -0.16189-3e-3 -0.31909-3e-3 -0.47284h3.9817v-4.2654l-4.7578-4.7501-0.0253-0.0217c-0.86478-0.69741-1.9268-0.54891-2.6505-0.18965l-5.6482 2.6799-2e-3 2e-3c-1.0754 0.52345-1.6714 0.13463-1.9492-0.40256-0.27749-0.53659-0.23475-1.2663 0.71468-1.8025l7.9199-3.6835c0.58764-0.27143 1.5593-0.11621 1.9203 0.17932l5.4395 5.4379 0.89452-0.89504-4.5181-4.5181c0.45624-0.30247 0.82647-0.38691 1.1369-0.38189 0.42393 7e-3 0.80044 0.20118 1.1446 0.47439l3.9238 3.9238 0.89452-0.89452-3.1564-3.1564c0.47425-0.32448 0.85691-0.41496 1.1762-0.4098 0.42392 7e-3 0.79993 0.20118 1.1441 0.47439l3.4143 3.4241 0.89452-0.89452-2.542-2.5471c0.4781-0.32912 0.86332-0.42119 1.1844-0.41599 0.42392 7e-3 0.80045 0.2017 1.1446 0.4749l13.711 13.803 0.89452-0.89452-6.966-7.013c2.0198-4.3306 0.90045-9.2183-2.0888-12.464-1.6618-1.8046-3.9206-3.1013-6.5262-3.528-0.87631-2.1869-2.2629-3.6528-3.8918-4.4292-0.83662-0.39879-1.7291-0.61496-2.6391-0.6718-0.17063-0.0106-0.34156-0.0159-0.51315-0.0155zm-2e-3 1.2645c0.91437-3e-3 1.7987 0.17927 2.6086 0.56534 1.1817 0.56331 2.2284 1.5606 2.9926 3.1435-0.57967-0.0214-1.173-1e-3 -1.7777 0.0656-1.3193 0.14585-2.6921 0.51014-4.0938 1.1291l0.5116 1.156c5.1685-2.2824 9.6439-0.81768 12.4 2.1756 2.5693 2.79 3.5885 6.9106 2.0603 10.644l-5.8549-5.8942-0.0274-0.0212c-0.4764-0.38069-1.1252-0.7431-1.9239-0.75603-0.65999-0.0107-1.3762 0.22975-2.1063 0.7767l-0.0382-0.0382-0.0274-0.0238c-0.4764-0.38068-1.1246-0.74053-1.9234-0.75345l-5.2e-4 -5.1e-4c-0.66067-0.0107-1.3791 0.22852-2.1105 0.77618-0.47122-0.36544-1.1014-0.70273-1.8717-0.7152-0.64618-0.0104-1.3477 0.21915-2.0624 0.74207l-0.0744-0.0744-0.0232-0.0196c-0.43069-0.35725-0.97182-0.57223-1.5431-0.63459-0.57125-0.0624-1.1727 0.028-1.7208 0.28112l-7.984 3.715-0.0217 0.0119c-1.4371 0.80913-1.7961 2.3794-1.2227 3.4882 0.57314 1.1083 2.0793 1.7103 3.6251 0.95911h2e-3l5.656-2.6836 4e-3 -2e-3c0.47932-0.23797 0.83959-0.31529 1.2831 0.0367l4.3243 4.3165v2.4748h-2.6128c0.0137-0.061 0.0287-0.12117 0.046-0.17983 0.16062-0.54391 0.45323-1.0129 1.1896-1.494l-0.6935-1.0588c-0.94677 0.61852-1.4743 1.4012-1.7089 2.1957-0.23464 0.79457-0.20807 1.5711-0.19896 2.2908 9e-3 0.71969 2e-3 1.3802-0.1819 1.9725-0.1841 0.59232-0.52449 1.1421-1.3183 1.7089l0.73432 1.0294c0.68498-0.48917 1.1601-1.0392 1.4728-1.6087v0.0698h7.8042c-1.0908 2.5328-3.1284 4.6631-5.3237 5.547-2.3076 0.92906-4.734 0.63169-6.8332-1.9973 0.48236-0.21661 0.96814-0.46804 1.4562-0.75861l-0.64647-1.0857c-5.3444 3.1816-9.976 1.4204-12.467-1.9942-2.256-3.0925-2.6854-7.5256 0.10852-11.052 0.0481 0.79954 0.15624 1.6288 0.33073 2.4872l1.2402-0.25218c-1.2404-6.1024 0.92244-10.27 4.8674-12.891 0.67525-0.43209 1.102-0.46807 1.5565-0.37672 0.455 0.0914 0.95782 0.37371 1.5627 0.68522 0.60488 0.31153 1.3236 0.64301 2.2128 0.6935 0.88916 0.0505 1.9108-0.19455 3.0861-0.89865l-0.64854-1.0837c-1.0149 0.60801-1.7514 0.75523-2.3652 0.72037-0.24363-0.0138-0.47383-0.0585-0.69815-0.12557 1.003-3.61 3.9942-6.3101 7.0637-7.1241 0.63984-0.16969 1.2792-0.25889 1.9048-0.26097z" color="#000000"/>
</g>
</svg>
