<svg id="a" width="10mm" height="10mm" version="1.1" viewBox="0 0 53.71 53.71" xmlns="http://www.w3.org/2000/svg">
<g id="b" transform="translate(-99.447 -89.467)">
<path id="c" d="m133.9 100.96-0.61909 1.0702 5.919 3.4179h-26.199v1.2346h26.173l-5.92 3.4179 0.61701 1.0687 8.8558-5.1134zm-23.887 0.73432-6.7598 6.7598 0.87282 0.87281 6.7598-6.7598zm33.614 3.775v20.529l-3.4179-5.92-1.0687 0.61702 5.1134 8.8558 5.0958-8.8263-1.0702-0.61908-3.4179 5.919v-20.556zm-35.349 1.2438 3.1672 11.432 1.1948-0.31884-2.298-8.1897 21.962 21.977h12.097v-1.234h-11.586l-21.582-21.598 8.1902 2.2986 0.31936-1.1922zm-2.5942 3.2375v6.2089h1.2361v-6.2089zm0 8.2951v6.2089h1.2361v-6.2089zm0 8.293v5.1527h5.1527v-1.2361h-3.9166v-3.9166zm7.2368 3.9166v1.2361h6.2089v-1.2361zm8.2951 0v1.2361h6.2089v-1.2361z" color="#000000"/>
</g>
</svg>
