<svg id="a" width="10mm" height="10mm" version="1.1" viewBox="0 0 53.71 53.71" xmlns="http://www.w3.org/2000/svg">
<g id="b" transform="translate(-56.887 -173.63)">
<path id="c" d="m83.111 177.13v4.2008c-1.699 0.22374-3.1761 1.3358-3.8437 2.9476-0.74941 1.8092-0.33569 3.8966 1.049 5.2813 0.37348 0.37347 0.79828 0.67572 1.2547 0.90432l-15.866 11.135v22.234h36.074v-22.251l-15.715-11.196c1.5429-0.84193 2.5254-2.4678 2.5254-4.2519h-1.2661c0 1.4503-0.86877 2.7533-2.2086 3.3083-0.0815 0.0338-0.16368 0.064-0.2465 0.0915l-0.97875-0.69711-1.0759 0.75551c-0.59367-0.15979-1.1488-0.4729-1.603-0.92708-1.0255-1.0255-1.3307-2.5627-0.77567-3.9026 0.51817-1.251 1.6887-2.0926 3.022-2.1988h0.91932v-5.4338zm1.494 13.771 14.87 10.592h-31.416l15.043-10.558c0.49566 0.0662 1.0026 0.0561 1.5022-0.0341zm-16.433 13.356h31.142v17.111h-31.142z" color="#000000"/>
</g>
</svg>
