<svg id="a" width="10mm" height="10mm" version="1.1" viewBox="0 0 53.71 53.71" xmlns="http://www.w3.org/2000/svg">
<g id="b" transform="translate(-82.79 -107.63)">
<path id="c" d="m101.72 111.07c-1.2848 0-2.3399 1.0531-2.3399 2.3378v35.348c-1.5054 0.82994-2.5296 2.4332-2.5296 4.2674 0 2.6812 2.1882 4.8674 4.8695 4.8674 2.6812 0 4.8669-2.1862 4.8669-4.8674 0-1.8347-1.0236-3.4382-2.529-4.268v-13.617h13.263v-1.2635h-13.263v-20.467c0-1.2848-1.0531-2.3378-2.3378-2.3378zm0 1.264c0.60583 0 1.0723 0.46801 1.0723 1.0738v29.664h-2.1466v-29.664c0-0.60583 0.46853-1.0738 1.0744-1.0738zm10.825 23.177-5.4317 9.4082h15.334v-1.2656h-5.2012zm0 2.5316 3.2401 5.611h-6.4802z" color="#000000"/>
</g>
</svg>
