<svg id="a" width="10mm" height="10mm" version="1.1" viewBox="0 0 53.71 53.71" xmlns="http://www.w3.org/2000/svg">
<g id="b" transform="translate(-46.242 -73.564)">
<path id="c" d="m79.862 82.899-2.6774 17.28 2.5394 0.42271 2.6774-17.282zm10.002 0.0227-5.4183 6.8611 0.99425 0.78342 3.1585-4.0008-2.3533 14.918 1.248 0.20929 2.3869-15.131 1.8784 4.9888 1.1834-0.44545zm-31.086 6.5826c-0.79356 0.0366-1.4885 0.63565-1.6133 1.4474l-2.434 15.833c-0.142 0.92364 0.50263 1.8031 1.4263 1.9451l15.733 2.42c0.92364 0.142 1.8062-0.5042 1.9482-1.4278l2.434-15.832c0.142-0.92365-0.50573-1.8062-1.4294-1.9482l-15.733-2.419c-0.05773-9e-3 -0.11487-0.0147-0.17208-0.0176-0.05364-3e-3 -0.10729-3e-3 -0.1602-5.1e-4zm0.04961 1.3064c0.02727-8.9e-4 0.0555 2e-4 0.08423 5e-3l15.733 2.4195c0.22988 0.0354 0.37072 0.22592 0.33538 0.45579l-2.4345 15.833c-0.03534 0.22988-0.22642 0.36969-0.4563 0.33434l-15.733-2.4184c-0.22988-0.0354-0.36969-0.22643-0.33435-0.45631l2.434-15.833c0.03093-0.20114 0.18113-0.33331 0.37207-0.33952zm6.6735 2.6556c-3.3313-1e-3 -6.2684 2.4342-6.7898 5.8255-0.5753 3.7421 2.0043 7.2583 5.7464 7.8336 3.7421 0.5753 7.2583-2.0033 7.8336-5.7454 0.5753-3.7421-2.0038-7.2583-5.7459-7.8336-0.35082-0.054-0.69977-0.08-1.0444-0.0801zm-0.0026 1.3069c0.27983 4.6e-4 0.5632 0.0216 0.84853 0.0656 3.0435 0.4679 5.1193 3.2982 4.6514 6.3417-0.4679 3.0435-3.2982 5.1198-6.3417 4.6519-3.0435-0.46791-5.1208-3.2987-4.6529-6.3422 0.42404-2.7582 2.7897-4.7214 5.4948-4.717zm-13.681 15.134-0.19172 1.2485 42.75 6.7841 0.19223-1.249z" color="#000000"/>
</g>
</svg>
