<svg id="a" width="10mm" height="10mm" version="1.1" viewBox="0 0 53.71 53.71" xmlns="http://www.w3.org/2000/svg">
<g id="b" transform="translate(-88.113 -106.92)">
<path id="c" d="m106.24 126.67v4.3904h-3.4613v5.4338h3.4613v4.3925h17.458v-4.3925h3.4613v-5.4338h-3.4613v-4.3904zm-10.385 0.2372 5.2e-4 4.2643h-6.1273v5.2142l6.1268-2e-3v4.2649l6.8709-6.8709zm38.229 0-6.8709 6.8704 6.8709 6.8709v-4.2649l6.1268 2e-3v-5.2142h-6.1273zm-26.58 1.0263h14.931v11.688h-14.931zm-10.385 2.0247 3.8199 3.8199-3.8199 3.8199 1e-3 -2.4794-6.1257 2e-3v-2.6846l6.1257 1e-3zm35.701 0-1e-3 2.4789 6.1257-1e-3v2.6846l-6.1257-2e-3 1e-3 2.4794-3.8199-3.8199zm-28.776 2.3678h2.1957v2.9042h-2.1957zm19.654 0h2.1957v2.9042h-2.1957z" color="#000000"/>
</g>
</svg>
