<svg id="a" width="10mm" height="10mm" version="1.1" viewBox="0 0 53.71 53.71" xmlns="http://www.w3.org/2000/svg">
<g id="b" transform="translate(-141.34 -146.31)">
<path id="c" d="m153.62 152.96v32.459h22.834v7.9375h1.2635v-7.9375h12.729v-1.2656h-12.729v-8.1406h-1.2635v8.1406h-20.872l20.872-25.652v6.8156h1.2635v-7.9608h7.9613v-1.2661h-8.8946l-21.898 26.914v-30.045zm-7.676 8.2734v1.2635h1.74l-0.0217 7.6445h-1.7182v1.2656h4.746v-1.2656h-1.7622l0.0207-7.6445h1.7415v-1.2635zm30.51 5.4317v7.998h1.2635v-7.998zm-17.555 19.444v1.5394h-0.96428v1.1612h0.96428v2.4706c0 0.41066 0.0124 0.6835 0.0372 0.81855 0.21965 0.82673 1.5345 0.96977 2.4412 0.90847l0.0103-1.2387c-0.21376-0.013-1.1408 0.0339-1.3022-0.24753-0.0137-0.0606-0.0207-0.31712-0.0207-0.67541v-2.036h1.1544v-1.1612h-1.0129v-1.5394zm13.85 2.1472v1.3384h-4.7599v1.2661h4.7599v1.3379l1.8521-0.98547 1.8516-0.98547-1.8516-0.98547z"/>
</g>
</svg>
