<svg id="a" width="10mm" height="10mm" version="1.1" viewBox="0 0 53.71 53.71" xmlns="http://www.w3.org/2000/svg">
<g id="b" transform="translate(-65.758 -107.27)">
<path id="c" d="m103.11 112.19c-4.8203-0.011-9.0751 4.2671-10.11 9.0558l-1.6717-0.30592 0.0062 0.76584 0.08578 10.357 2.6262 0.48059-2.0541 10.998 1.2423 0.23203 2.0547-11.002 2.6293 0.4811 4.0251-10.369-1.9384-0.35502c0.45763-0.79197 0.89977-1.4534 1.3875-1.9244 0.63794-0.61608 1.3197-0.94739 2.4179-0.93948h3.8457v-1.2656h-3.8415c-1.3848-9e-3 -2.4759 0.4986-3.3006 1.295-0.72856 0.70359-1.2764 1.6015-1.8268 2.5936l-4.4421-0.81339c0.94024-4.1997 4.8307-8.0309 8.8625-8.0207h4.5486v-1.2635h-4.5449zm-10.504 10.271 7.6057 1.3927-3.0939 7.967-4.4416-0.81287zm-6.2131 18.146c-0.573 2.5e-4 -1.0378 0.46517-1.0377 1.0382 2.4e-4 0.57274 0.46492 1.0369 1.0377 1.0372 0.57301 1.3e-4 1.0374-0.46415 1.0377-1.0372 1.3e-4 -0.57327-0.46439-1.0383-1.0377-1.0382zm-5.7082 3.5755c-0.573 2.5e-4 -1.0378 0.46517-1.0377 1.0382 2.4e-4 0.57274 0.46492 1.0369 1.0377 1.0372 0.57301 1.3e-4 1.0374-0.46415 1.0377-1.0372 1.3e-4 -0.57327-0.46439-1.0383-1.0377-1.0382zm18.567 0c-0.573 2.5e-4 -1.0378 0.46517-1.0377 1.0382 2.4e-4 0.57274 0.46492 1.0369 1.0377 1.0372 0.57301 1.3e-4 1.0374-0.46415 1.0377-1.0372 1.3e-4 -0.57327-0.46439-1.0383-1.0377-1.0382zm-21.48 5.0183c-0.56063 0.0145-1.0109 0.47412-1.0108 1.0382 2.4e-4 0.57274 0.46492 1.0369 1.0377 1.0372 0.57301 1.3e-4 1.0374-0.46415 1.0377-1.0372 1.3e-4 -0.57327-0.46439-1.0383-1.0377-1.0382-9e-3 1e-5 -0.01797-2.3e-4 -0.02687 0zm24.401 0c-0.56063 0.0145-1.0109 0.47412-1.0108 1.0382 2.4e-4 0.57274 0.46492 1.0369 1.0377 1.0372 0.57301 1.3e-4 1.0374-0.46415 1.0377-1.0372 1.3e-4 -0.57327-0.4644-1.0383-1.0377-1.0382-9e-3 1e-5 -0.018-2.3e-4 -0.0269 0zm-28.796 4.0122v2.8531h38.473v-2.8531z" color="#000000"/>
</g>
</svg>
