<svg id="a" width="10mm" height="10mm" version="1.1" viewBox="0 0 53.71 53.71" xmlns="http://www.w3.org/2000/svg">
<g id="b" transform="translate(-109.76 -142.76)">
<path id="c" d="m132.6 151.5-1.2444 0.23202 1.9373 10.384h2.2236v3.6432h2.3244v-3.6432h2.2236l1.9374-10.384-1.2438-0.23202-1.7441 9.3529h-4.67zm1.3922 15.885c-0.35796 8e-3 -0.7017 0.21475-0.8599 0.55759-0.22009 0.47702-7e-3 1.0558 0.47077 1.2759 0.47702 0.22009 1.0558 7e-3 1.2759-0.47025 0.22009-0.47702 7e-3 -1.0563-0.47025-1.2764-0.13416-0.0619-0.27644-0.0898-0.41651-0.0868zm5.2348 0c-0.14007-3e-3 -0.28235 0.0249-0.41651 0.0868-0.47711 0.22009-0.69035 0.7994-0.47026 1.2764 0.22009 0.47703 0.79887 0.69035 1.2759 0.47026 0.47733-0.22009 0.69087-0.79888 0.47078-1.2759-0.1582-0.34285-0.50195-0.55004-0.8599-0.55759zm-2.6174 2.0386c-0.52534 0-0.9617 0.43687-0.9617 0.96221 0 0.52535 0.43636 0.9617 0.9617 0.9617s0.9617-0.43635 0.9617-0.9617c0-0.52534-0.43636-0.96221-0.9617-0.96221zm-4.2674 1.5384c-0.35795 8e-3 -0.70171 0.21475-0.8599 0.55758-0.2201 0.47702-7e-3 1.0558 0.47026 1.2759 0.47701 0.2201 1.0558 7e-3 1.2759-0.47025 0.2201-0.47702 7e-3 -1.0563-0.46974-1.2764-0.13416-0.0619-0.27644-0.0898-0.41651-0.0868zm8.4884 0c-0.12482 3e-3 -0.25075 0.0318-0.37 0.0868-0.47711 0.22009-0.68984 0.79939-0.46974 1.2764 0.22009 0.47703 0.79888 0.69035 1.2759 0.47026 0.47732-0.22009 0.69035-0.79888 0.47025-1.2759-0.16506-0.35775-0.53193-0.56793-0.9064-0.55759zm-4.2209 2.93c-0.52534 0-0.9617 0.43687-0.9617 0.96221 0 0.52535 0.43636 0.9617 0.9617 0.9617s0.9617-0.43635 0.9617-0.9617c0-0.52534-0.43636-0.96221-0.9617-0.96221zm-5.8865 0.64182c-0.36749-5e-3 -0.72894 0.21007-0.89142 0.56224-0.2201 0.47701-7e-3 1.0563 0.47025 1.2764 0.47702 0.22009 1.0563 7e-3 1.2764-0.47026 0.22009-0.47701 7e-3 -1.0563-0.47025-1.2764-7e-3 -3e-3 -0.0153-7e-3 -0.0227-0.0103-0.11679-0.0539-0.23976-0.0799-0.36225-0.0816zm11.773 0c-0.1225 2e-3 -0.24546 0.0278-0.36225 0.0816-7e-3 3e-3 -0.0157 7e-3 -0.0227 0.0103-0.47733 0.22009-0.69034 0.79939-0.47025 1.2764s0.79938 0.69034 1.2764 0.47025c0.47732-0.22009 0.69036-0.79939 0.47026-1.2764-0.16249-0.35217-0.52393-0.56741-0.89142-0.56224zm-5.9113 3.8272c-0.51431 0.0134-0.93689 0.44456-0.93689 0.9617 0 0.52533 0.43636 0.96169 0.9617 0.96169s0.9617-0.43636 0.9617-0.96169c0-0.52535-0.43636-0.9617-0.9617-0.9617-8e-3 0-0.0166-2.2e-4 -0.0248 0zm-18.102 0.76532v8.5938h36.254v-8.5938h-12.803l-2.7285 2.728h-5.1914l-2.7285-2.728zm1.264 1.265h11.015l2.7285 2.7275h6.2384l2.7285-2.7275h11.016v6.0653h-33.727z" color="#000000" style="paint-order:markers stroke fill"/>
</g>
</svg>
