<svg id="a" width="10mm" height="10mm" version="1.1" viewBox="0 0 53.71 53.71" xmlns="http://www.w3.org/2000/svg">
<g id="b" transform="translate(-117.21 -123.24)">
<path id="c" d="m140.05 131.99-1.2444 0.23203 1.9373 10.384h2.2236v3.6432h2.3244v-3.6432h2.2236l1.9374-10.384-1.2438-0.23203-1.7441 9.3529h-4.67zm3.9372 15.886c-1.4987 0.039-2.7301 1.2955-2.7301 2.8024 0 1.5308 1.2716 2.8024 2.8024 2.8024 1.5308 0 2.8024-1.2716 2.8024-2.8024 0-1.5308-1.2716-2.8024-2.8024-2.8024-0.0233 0-0.0485-6.4e-4 -0.0724 0zm0 6.9861c-1.4987 0.039-2.7301 1.2955-2.7301 2.8024 0 1.5308 1.2716 2.8024 2.8024 2.8024 1.5308 0 2.8024-1.2716 2.8024-2.8024 0-1.5308-1.2716-2.8024-2.8024-2.8024-0.0233 0-0.0485-6.4e-4 -0.0724 0zm-18.055 4.7548v8.5938h36.254v-8.5938h-12.803l-2.7285 2.728h-5.1914l-2.7285-2.728zm1.264 1.265h11.015l2.7285 2.7275h6.2384l2.7285-2.7275h11.016v6.0653h-33.727z" color="#000000" style="paint-order:markers stroke fill"/>
</g>
</svg>
