<svg id="a" width="10mm" height="10mm" version="1.1" viewBox="0 0 53.71 53.71" xmlns="http://www.w3.org/2000/svg">
<g id="b" transform="translate(-118.98 -68.242)">
<path id="c" d="m158.78 72.154-0.0165 5.1e-4c-5.6181 0.0853-10.236 3.5175-12.545 9.2067l-6.3722-2.3534-4.9919 23.276 2.4846 0.91777 0.43822-1.187-1.4568-0.53796 4.4561-20.776 16.604 6.1319-10.118 18.685-1.4568-0.53795-0.43822 1.1875 2.4862 0.91777 11.334-20.934-6.4373-2.3776c1.3689-3.4465 3.9114-4.7964 6.1547-4.6892l1.7208 0.0233v-1.2702l-1.6459-0.016-0.016-1e-3c-2.8593-0.13668-5.8712 1.6584-7.3995 5.516l-4.1569-1.5358c2.1537-5.293 6.2666-8.3023 11.377-8.3798l1.8418 0.0662v-1.2666zm-17.035 21.225-1.2635 0.0894c0.56199 7.894-1.751 13.263-7.5044 17.924l0.96222-3.3672-1.217-0.34726-1.6681 5.842 6.1753-0.22996-0.046-1.2619-3.1306 0.11472c5.7906-4.832 8.2659-10.702 7.692-18.764zm6.5138 2.4055c-5.6759 5.7531-7.6108 11.823-6.351 19.259l-2.3042-2.1218-0.85524 0.92863 4.5434 4.1889 2.5296-5.5242-1.1508-0.52659-1.4568 3.1838c-1.343-7.2815 0.38934-12.865 5.9474-18.499z" color="#000000" style="paint-order:markers stroke fill"/>
</g>
</svg>
