<svg id="a" width="10mm" height="10mm" version="1.1" viewBox="0 0 53.71 53.71" xmlns="http://www.w3.org/2000/svg">
<g id="b" transform="translate(-160.85 -209.82)">
<path id="c" d="m197.22 216.15-0.0202 5.2e-4c-4.423 0.2236-7.8845 3.736-8.9622 8.2532l-1.6376-0.28215 0.14418 10.489 2.3275 0.40101 0.13281 0.0227-2.943 17.092 1.2475 0.21498 2.9425-17.093 0.13332 0.0233 2.3285 0.40101 3.6416-9.8371-1.4335-0.24649c0.47601-1.0527 0.9264-1.5675 1.355-1.8516 0.52603-0.3487 1.1402-0.40791 1.9958-0.5426l3.4029-0.0305-0.0124-1.2671-3.5176 0.0346-0.0465 6e-3c-0.81607 0.12934-1.6806 0.18772-2.5208 0.74465-0.73154 0.48495-1.3574 1.3028-1.9394 2.6851l-1.635-0.28164-1.249-0.21497-1.4671-0.2527c0.98508-4.021 4.0103-7.0109 7.7706-7.2042l4.687 0.0465 0.0119-1.265zm-9.3348 9.4754 6.9562 1.1973-2.7507 7.4244-1.2914-0.22273-1.5131-0.26045-1.2914-0.22221zm-9.0682 7.2332-1.2206 0.32608 1.0723 4.0018 1.2206-0.32608zm1.6836 5.7242-1.2227 0.32039 3.5507 13.598 1.2227-0.31833zm20.478 3.1058-9.7364 9.7364 0.89452 0.89452 9.7364-9.7364zm-31.031 4.4178-0.63252 1.0955 8.8847 5.1289 0.63252-1.0955zm-0.0801 8.2486v2.8515h36.239v-2.8515z" color="#000000" style="paint-order:markers stroke fill"/>
</g>
</svg>
