<svg width="10mm" height="10mm" version="1.1" viewBox="0 0 200 200" xmlns="http://www.w3.org/2000/svg">
<g fill="none">
<g stroke="#000" stroke-width="5">
<path d="m100 77.51a238.98 238.98 0 0 0-31.437 2.248 238.98 238.98 0 0 0-1.4473 20.242 238.98 238.98 0 0 0 1.4473 20.242 238.98 238.98 0 0 0 31.437 2.248 238.98 238.98 0 0 0 31.438-2.248 238.98 238.98 0 0 0 1.4473-20.242 238.98 238.98 0 0 0-0.91797-20.287 238.98 238.98 0 0 0-31.967-2.2031z"/>
<path d="m84.665 100h30.669"/>
<path d="m92.333 86.72 15.335 26.56"/>
<path d="m107.67 86.72-15.335 26.56"/>
</g>
</g>
</svg>
