<svg id="a" width="10mm" height="10mm" version="1.1" viewBox="0 0 53.71 53.71" xmlns="http://www.w3.org/2000/svg">
<g id="b" transform="translate(-34.532 -113.66)">
<path id="c" d="m55.446 118.53c-5.954 0-10.795 4.8391-10.795 10.793 0 5.954 4.8412 10.795 10.795 10.795s10.793-4.8407 10.793-10.795c0-5.954-4.8391-10.793-10.793-10.793zm0 1.2635c5.2704 0 9.5291 4.2593 9.5291 9.5296 0 5.2703-4.2588 9.5291-9.5291 9.5291s-9.5291-4.2588-9.5291-9.5291c0-5.2704 4.2588-9.5296 9.5291-9.5296zm16.852 3.2556v13.47l-3.006-5.208-1.0955 0.63252 4.5822 7.938h-5.0374v1.264h5.0374l-4.5822 7.938 1.0955 0.63252 3.006-5.208v13.47h1.2656v-13.416l3.0055 5.2064 1.0961-0.63252-4.6137-7.9907h5.0726v-1.264h-5.0726l4.6137-7.9907-1.0961-0.63252-3.0055 5.2064v-13.416zm-16.852 3.4949c-1.5284 0-2.7812 1.2508-2.7812 2.7792s1.2529 2.7812 2.7812 2.7812 2.7792-1.2529 2.7792-2.7812-1.2508-2.7792-2.7792-2.7792zm0 1.2635c0.8447 0 1.5157 0.67097 1.5157 1.5157s-0.67097 1.5172-1.5157 1.5172-1.5177-0.67252-1.5177-1.5172 0.67304-1.5157 1.5177-1.5157zm0 13.102c-5.954 0-10.795 4.8407-10.795 10.795 0 5.954 4.8412 10.793 10.795 10.793s10.793-4.8391 10.793-10.793c0-5.954-4.8391-10.795-10.793-10.795zm0 1.2656c5.2704 0 9.5291 4.2588 9.5291 9.5291s-4.2588 9.5296-9.5291 9.5296-9.5291-4.2593-9.5291-9.5296 4.2588-9.5291 9.5291-9.5291zm0 6.7479c-1.5284 0-2.7812 1.2529-2.7812 2.7812s1.2529 2.7792 2.7812 2.7792 2.7792-1.2508 2.7792-2.7792-1.2508-2.7812-2.7792-2.7812zm0 1.264c0.8447 0 1.5157 0.67252 1.5157 1.5172s-0.67097 1.5157-1.5157 1.5157-1.5177-0.67097-1.5177-1.5157 0.67304-1.5172 1.5177-1.5172z" color="#000000" stroke-dashoffset="2.3906" style="paint-order:markers stroke fill"/>
</g>
</svg>
