<svg id="a" width="10mm" height="10mm" version="1.1" viewBox="0 0 53.71 53.71" xmlns="http://www.w3.org/2000/svg">
<g id="b" transform="translate(-25.661 -141.69)">
<path id="c" d="m52.516 148.94c-10.821 0-19.608 8.7862-19.608 19.608s8.7862 19.608 19.608 19.608c10.821 0 19.607-8.7862 19.607-19.608s-8.7857-19.608-19.607-19.608zm0 1.2656c10.138 0 18.342 8.2043 18.342 18.342 0 4.8637-1.8891 9.2814-4.9733 12.563-0.76202 0.123-1.5497-0.0302-2.2459-0.46457-1.0852-0.67662-1.7751-1.9502-1.7751-3.3419h-1.5472c0 1.3917-0.68987 2.6653-1.7751 3.3419-1.0852 0.67663-2.3931 0.67663-3.4783 0-1.0852-0.67662-1.7756-1.9502-1.7756-3.3419h-1.5451c0 1.3917-0.68987 2.6653-1.7751 3.3419-1.0852 0.67663-2.3936 0.67663-3.4789 0-1.0852-0.67662-1.7751-1.9502-1.7751-3.3419h-1.5472c0 1.3917-0.68987 2.6653-1.7751 3.3419-0.69549 0.43364-1.4826 0.58739-2.2438 0.46509-3.0849-3.2812-4.9749-7.6992-4.9749-12.563 0-10.138 8.2064-18.342 18.344-18.342zm-9.2558 5.7738c-1.1299 2.4345-1.4631 4.2899-1.3436 5.8415s0.6839 2.7595 1.2185 3.8928c1.0693 2.2665 2.1253 4.2236 0.23461 9.0584l1.1777 0.45888c1.9998-5.1139 0.79706-7.7993-0.26768-10.056-0.53237-1.1285-1.0033-2.1532-1.1033-3.4515-0.09996-1.2983 0.16302-2.9112 1.2304-5.211zm8.7561 0c-1.1299 2.4345-1.4631 4.2899-1.3436 5.8415 0.11946 1.5516 0.6839 2.7595 1.2185 3.8928 1.0693 2.2665 2.1268 4.2236 0.23616 9.0584l1.1777 0.45888c1.9998-5.1139 0.79551-7.7993-0.26923-10.056-0.53237-1.1285-1.0018-2.1532-1.1017-3.4515-0.09996-1.2983 0.16302-2.9112 1.2304-5.211zm8.7576 0c-1.1299 2.4345-1.4651 4.2899-1.3457 5.8415 0.11947 1.5516 0.68597 2.7595 1.2206 3.8928 1.0693 2.2665 2.1253 4.2236 0.23461 9.0584l1.1777 0.45888c1.9998-5.1139 0.79705-7.7993-0.26769-10.056-0.53237-1.1285-1.0033-2.1532-1.1033-3.4515-0.1-1.2983 0.16302-2.9112 1.2304-5.211zm-8.2594 23.584c0.40617 0.88286 1.0503 1.6387 1.88 2.1559 1.4811 0.92343 3.3352 0.92343 4.8162 0 0.82902-0.51686 1.4727-1.2719 1.879-2.1539 0.40622 0.88195 1.0499 1.637 1.879 2.1539 0.51225 0.31939 1.0691 0.52544 1.6397 0.62374-3.2273 2.8305-7.4574 4.546-12.092 4.546-4.6352 0-8.866-1.7157-12.094-4.5465 0.56984-0.0985 1.1266-0.30427 1.6381-0.62322 0.82901-0.51686 1.4727-1.2719 1.879-2.1539 0.40622 0.88195 1.0499 1.637 1.879 2.1539 1.4811 0.92343 3.3352 0.92343 4.8162 0 0.82967-0.51728 1.4738-1.2731 1.88-2.1559z" color="#000000" stroke-dashoffset="2.3906" style="paint-order:markers stroke fill"/>
</g>
</svg>
