<svg id="a" width="10mm" height="10mm" version="1.1" viewBox="0 0 53.71 53.71" xmlns="http://www.w3.org/2000/svg">
<g id="b" transform="translate(-161.05 -83.616)">
<path id="c" d="m178.55 89.397v14.986h5.8901v5.0152l3.4685 3.469 5.2e-4 -5.1e-4 1e-3 5.1e-4 3.469-3.469v-5.0152h5.8901v-14.986h-1.2656v13.72h-16.188v-13.72zm7.1536 14.986h4.4106v3.7068h-4.4106zm0.47956 4.9702h3.452l-1.7255 1.7239zm-24.203 3.4008v1.264h21.699l4.2302 4.2297 4.2323-4.2297h21.697v-1.264h-22.222l-3.7073 3.7068-3.7068-3.7068zm47.113 4.8364-42.448 12.568v1.387h42.448zm-1.2661 1.6934v10.996h-37.135z" color="#000000" stroke-dashoffset="2.3906" style="paint-order:markers stroke fill"/>
</g>
</svg>
