<svg id="a" width="10mm" height="10mm" version="1.1" viewBox="0 0 53.71 53.71" xmlns="http://www.w3.org/2000/svg">
<g id="b" transform="translate(-86.37 -78.798)">
<path id="c" d="m113.22 85.93c-10.885 0-19.722 8.8389-19.722 19.724 0 10.885 8.8369 19.723 19.722 19.723 10.885 0 19.725-8.8374 19.725-19.723 0-10.885-8.8395-19.724-19.725-19.724zm0 1.2656c10.202 0 18.459 8.257 18.459 18.459 0 4.0298-1.2896 7.7555-3.4773 10.789h-29.963c-2.1874-3.0335-3.4763-6.7592-3.4763-10.789 0-10.202 8.255-18.459 18.457-18.459zm-9.5503 5.8772c-1.7532 5.02-0.72614 7.9129 0.22273 10.348 0.94887 2.4348 1.8124 4.359 0.0625 8.4315l1.1622 0.49971c1.8759-4.3659 0.89977-6.968-0.045-9.3922-0.94473-2.4242-1.865-4.7224-0.20722-9.4692zm8.7716 0c-1.7532 5.02-0.72614 7.9129 0.22273 10.348 0.94887 2.4348 1.8103 4.359 0.0605 8.4315l1.1622 0.49971c1.8759-4.3659 0.89977-6.968-0.045-9.3922-0.94473-2.4242-1.865-4.7224-0.20722-9.4692zm8.7695 0c-1.7532 5.02-0.72614 7.9129 0.22273 10.348 0.94887 2.4348 1.8103 4.359 0.0605 8.4315l1.1643 0.49971c1.8759-4.3659 0.89771-6.968-0.047-9.3922-0.94474-2.4242-1.8644-4.7224-0.20671-9.4692zm-21.974 24.635h27.969c-3.3838 3.9228-8.3922 6.4043-13.985 6.4043s-10.6-2.4814-13.984-6.4043z" color="#000000" stroke-dashoffset="2.3906" style="paint-order:markers stroke fill"/>
</g>
</svg>
