<svg id="a" width="10mm" height="10mm" version="1.1" viewBox="0 0 53.71 53.71" xmlns="http://www.w3.org/2000/svg">
<g id="b" transform="translate(-85.337 -90.155)">
<path id="c" d="m95.707 98.462c-8.6995 10.813-8.6995 26.283 0 37.096l0.9865-0.79323c-4.0256-5.0037-6.1051-11.046-6.2399-17.123h7.1288c0.13601 4.5305 1.7346 9.0269 4.7976 12.753l0.97824-0.80253c-2.8749-3.4975-4.3791-7.7074-4.515-11.951h21.562v8.0124l0.9431-0.55088 6.4549-3.7713 7.3985-4.3222-14.797-8.6439v8.0124h-21.562c0.13598-4.2431 1.6402-8.4529 4.515-11.95l-0.97824-0.80253c-3.0629 3.7262-4.6615 8.2224-4.7976 12.753h-7.1293c0.13474-6.0772 2.2147-12.119 6.2404-17.123zm25.956 12.107 5.5118 3.2205 5.5123 3.22-5.5123 3.2205-5.5118 3.2205v-6.441z" color="#000000" stroke-dashoffset="2.3906" style="paint-order:markers stroke fill"/>
</g>
</svg>
