<svg id="a" width="10mm" height="10mm" version="1.1" viewBox="0 0 53.71 53.71" xmlns="http://www.w3.org/2000/svg">
<g id="b" transform="translate(-189.27 -60.214)">
<path id="c" d="m210.72 65.15c-4.9897 4.3035-7.0936 8.6627-7.3851 12.771-0.2915 4.1086 1.2057 7.9086 3.1972 11.172 2.5048 4.1043 3.1204 8.924 0.0512 15.172l1.1348 0.55862c3.2162-6.5474 2.5872-11.978-0.10594-16.391-1.9107-3.1309-3.2812-6.6744-3.0153-10.422 0.26589-3.7476 2.1438-7.7578 6.9489-11.902zm8.707 0c-4.9897 4.3035-7.0936 8.6627-7.3851 12.771-0.2915 4.1086 1.2057 7.9086 3.1972 11.172 2.5048 4.1043 3.1204 8.924 0.0512 15.172l1.1348 0.55862c3.2162-6.5474 2.5877-11.978-0.10542-16.391-1.9107-3.1309-3.2817-6.6744-3.0158-10.422 0.26589-3.7476 2.1443-7.7578 6.9494-11.902zm8.707 0c-4.9897 4.3035-7.0931 8.6627-7.3846 12.771-0.2915 4.1086 1.2057 7.9086 3.1972 11.172 2.5048 4.1043 3.1199 8.924 0.0506 15.172l1.1348 0.55862c3.2162-6.5474 2.5877-11.978-0.10542-16.391-1.9107-3.1309-3.2817-6.6744-3.0158-10.422 0.26589-3.7476 2.1443-7.7578 6.9494-11.902zm-28.437 42.576v1.2635h32.865v-1.2635z" color="#000000" stroke-dashoffset="2.3906" style="paint-order:markers stroke fill"/>
</g>
</svg>
