<svg width="10mm" height="10mm" version="1.1" viewBox="0 0 200 200" xmlns="http://www.w3.org/2000/svg">
<g fill="none">
<g stroke="#000" stroke-width="5">
<path d="m100 83.714a31.377 31.377 0 0 1-15.689 27.174 31.377 31.377 0 0 1-31.377 0 31.377 31.377 0 0 1-15.689-27.174"/>
<path d="m162.75 83.714a31.377 31.377 0 0 1-15.689 27.174 31.377 31.377 0 0 1-31.377 0 31.377 31.377 0 0 1-15.689-27.174"/>
<path d="m194.13 115.09a31.377 31.377 0 0 1-22.187-9.1902 31.377 31.377 0 0 1-9.1902-22.187"/>
<path d="m37.245 83.714a31.377 31.377 0 0 1-31.377 31.377"/>
</g>
</g>
</svg>
