<svg id="a" width="10mm" height="10mm" version="1.1" viewBox="0 0 53.71 53.71" xmlns="http://www.w3.org/2000/svg">
<g id="b" transform="translate(-35.436 -121.47)" stroke-dashoffset="2.3906">
<path id="c" d="m304.91-2.439c-1.5418 0-2.8045 1.2626-2.8045 2.8045 0 1.5418 1.2626 2.805 2.8045 2.805 1.5418 0 2.805-1.2632 2.805-2.805 0-1.5418-1.2632-2.8045-2.805-2.8045zm-14.963 3.8215v1.2656h6.6947c-7.9861 3.6806-12.657 12.299-11.201 21.127 1.5613 9.4633 9.7118 16.439 19.303 16.519 9.5909 0.0808 17.86-6.7556 19.58-16.191 1.6252-8.9127-3.0338-17.717-11.142-21.455h6.6926v-1.2656h-10.386l5.1697 8.9529 1.094-0.63304-3.5166-6.0911c7.8508 3.3867 12.393 11.764 10.843 20.265-1.6118 8.8388-9.3382 15.23-18.322 15.155-8.9842-0.0757-16.604-6.5963-18.067-15.461-1.3895-8.4221 3.1645-16.625 10.898-19.96l-3.5171 6.0926 1.094 0.63304 5.1697-8.9529zm2.3141 13.932-0.63303 1.0955 5.8291 3.3652h-10.044v1.264h10.372l-6.1666 3.5605 0.63252 1.0955 8.9943-5.1935zm25.3 0-8.984 5.1873 8.9938 5.1935 0.63252-1.0955-6.1666-3.5605h10.372v-1.264h-10.044l5.8291-3.3652zm-12.65 2.3642c-1.5418 0-2.8045 1.2626-2.8045 2.8045 0 1.5418 1.2626 2.805 2.8045 2.805 1.5418 0 2.805-1.2632 2.805-2.805 0-1.5418-1.2632-2.8045-2.805-2.8045z" color="#000000" style="paint-order:markers stroke fill"/>
<path id="d" d="m62.29 126.96c-1.5418 0-2.8045 1.2626-2.8045 2.8045 0 1.5418 1.2626 2.805 2.8045 2.805 1.5418 0 2.805-1.2632 2.805-2.805 0-1.5418-1.2632-2.8045-2.805-2.8045zm-14.963 3.8215v1.2656h6.6947c-7.9861 3.6806-12.657 12.299-11.201 21.127 1.5613 9.4633 9.7118 16.439 19.303 16.519 9.5909 0.0808 17.86-6.7556 19.58-16.191 1.6252-8.9127-3.0338-17.717-11.142-21.455h6.6926v-1.2656h-10.386l5.1697 8.9529 1.094-0.63304-3.5166-6.0911c7.8508 3.3867 12.393 11.764 10.843 20.265-1.6118 8.8388-9.3382 15.23-18.322 15.155-8.9842-0.0757-16.604-6.5963-18.067-15.461-1.3895-8.4221 3.1645-16.625 10.898-19.96l-3.5171 6.0926 1.094 0.63304 5.1697-8.9529zm2.3141 13.932-0.63304 1.0955 5.8291 3.3652h-10.044v1.264h10.372l-6.1665 3.5605 0.63252 1.0955 8.9943-5.1935zm25.3 0-8.984 5.1873 8.9938 5.1935 0.63252-1.0955-6.1666-3.5605h10.372v-1.264h-10.044l5.8291-3.3652zm-12.65 2.3642c-1.5418 0-2.8045 1.2626-2.8045 2.8045 0 1.5418 1.2626 2.805 2.8045 2.805 1.5418 0 2.805-1.2632 2.805-2.805 0-1.5418-1.2632-2.8045-2.805-2.8045z" color="#000000" style="paint-order:markers stroke fill"/>
</g>
</svg>
