<svg id="a" width="10mm" height="10mm" version="1.1" viewBox="0 0 53.71 53.71" xmlns="http://www.w3.org/2000/svg">
<g id="b" transform="translate(-73.636 -128.01)">
<path id="c" d="m100.49 133.5c-1.5419 0-2.8045 1.2626-2.8045 2.8045 0 1.5418 1.2626 2.805 2.8045 2.805 1.5418 0 2.805-1.2632 2.805-2.805 0-1.5418-1.2632-2.8045-2.805-2.8045zm-14.963 3.8215v1.2656h6.6947c-7.9861 3.6806-12.657 12.299-11.201 21.127 1.5613 9.4633 9.7118 16.439 19.303 16.519 9.5908 0.0808 17.86-6.7556 19.58-16.191 1.6252-8.9127-3.0338-17.717-11.142-21.455h6.6926v-1.2656h-10.386l5.1697 8.9529 1.094-0.63304-3.5166-6.0911c7.8508 3.3867 12.393 11.764 10.843 20.265-1.6118 8.8388-9.3382 15.23-18.322 15.155-8.9842-0.0757-16.604-6.5963-18.067-15.461-1.3895-8.4221 3.1645-16.625 10.898-19.96l-3.5171 6.0926 1.094 0.63304 5.1697-8.9529zm10.505 5.6947-0.63304 1.0955 5.2617 3.0375c-0.0565-1e-3 -0.1128-2e-3 -0.1695-2e-3 -5.1885 0-9.4082 4.2197-9.4082 9.4082s4.2197 9.4082 9.4082 9.4082c5.1886 0 9.4077-4.2197 9.4077-9.4082 0-3.5746-2.0028-6.6893-4.9454-8.2812l0.092-0.0532zm4.4592 5.3966c0.49965 0 0.98844 0.0445 1.463 0.13023l-6.5314 3.7719 0.63252 1.0961 7.5753-4.3729c2.9411 1.2264 5.0028 4.126 5.0028 7.5174 0 4.5049-3.6372 8.1442-8.1421 8.1442-4.5049 0-8.1427-3.6393-8.1427-8.1442s3.6378-8.1427 8.1427-8.1427z" color="#000000" stroke-dashoffset="2.3906" style="paint-order:markers stroke fill"/>
</g>
</svg>
