<svg id="a" width="10mm" height="10mm" version="1.1" viewBox="0 0 53.71 53.71" xmlns="http://www.w3.org/2000/svg">
<g id="b" transform="translate(-14.098 -107.71)">
<path id="c" d="m33.357 112.6c-5.9488 0-10.783 4.8366-10.783 10.785 0 5.9488 4.8345 10.783 10.783 10.783 5.9488 0 10.785-4.834 10.785-10.783 0-5.9488-4.8361-10.785-10.785-10.785zm0 1.264c5.2652 0 9.5214 4.2562 9.5214 9.5214 0 5.2652-4.2562 9.5193-9.5214 9.5193s-9.5198-4.2542-9.5198-9.5193c0-5.2651 4.2547-9.5214 9.5198-9.5214zm17.271 2.5647v6.5355h-3.2892l5.9981 7.1226 0.48266-0.57412 5.5134-6.5484h-3.1368v-6.5355zm1.2635 1.264h3.0412v6.5371h1.6836l-3.2794 3.8923-3.2794-3.8923h1.834zm-18.535 2.9523c-1.506 0-2.7404 1.2344-2.7404 2.7404 0 1.506 1.2344 2.7399 2.7404 2.7399 1.506 0 2.742-1.2339 2.742-2.7399 0-1.506-1.236-2.7404-2.742-2.7404zm0 1.2635c0.82233 0 1.4764 0.65458 1.4764 1.4769 0 0.82234-0.65406 1.4743-1.4764 1.4743s-1.4748-0.65199-1.4748-1.4743c0-0.82233 0.65252-1.4769 1.4748-1.4769zm19.978 9.3266c-1.9079 0-3.4716 1.5637-3.4716 3.4716 0 1.9079 1.5637 3.4711 3.4716 3.4711 1.9079 0 3.4737-1.5632 3.4737-3.4711 0-1.9079-1.5658-3.4716-3.4737-3.4716zm-19.978 3.7161c-5.9488 0-10.783 4.8366-10.783 10.785 0 5.9488 4.8345 10.783 10.783 10.783 5.9488 0 10.785-4.834 10.785-10.783 0-5.9488-4.8361-10.785-10.785-10.785zm0 1.264c5.2652 0 9.5214 4.2562 9.5214 9.5214 0 5.2652-4.2562 9.5193-9.5214 9.5193s-9.5198-4.2542-9.5198-9.5193c0-5.2651 4.2547-9.5214 9.5198-9.5214zm19.98 2.8174-0.4842 0.57413-5.5139 6.5469h3.2892v6.5371h5.5681v-6.5371h3.1368zm0 1.9627 3.2773 3.8928h-1.6816v6.5371h-3.0412v-6.5371h-1.8319zm-19.98 2.0009c-1.506 0-2.7404 1.2344-2.7404 2.7404 0 1.506 1.2344 2.7399 2.7404 2.7399 1.506 0 2.742-1.2339 2.742-2.7399 0-1.506-1.236-2.7404-2.742-2.7404zm0 1.2635c0.82233 0 1.4764 0.6546 1.4764 1.4769 0 0.82234-0.65406 1.4743-1.4764 1.4743s-1.4748-0.65199-1.4748-1.4743c0-0.82231 0.65252-1.4769 1.4748-1.4769z" color="#000000" stroke-dashoffset="2.3906" style="paint-order:markers stroke fill"/>
</g>
</svg>
