<svg id="a" width="10mm" height="10mm" version="1.1" viewBox="0 0 53.71 53.71" xmlns="http://www.w3.org/2000/svg">
<g id="b" transform="translate(-86.37 -155.89)">
<path id="c" d="m122.35 160.46c-4.2226 0-7.6605 3.4359-7.6605 7.6584 0 4.2226 3.438 7.66 7.6605 7.66s7.66-3.4374 7.66-7.66c0-4.2226-3.4374-7.6584-7.66-7.6584zm0 1.264c3.5389 0 6.3944 2.8555 6.3944 6.3944s-2.8555 6.3944-6.3944 6.3944c-3.5389 0-6.3944-2.8555-6.3944-6.3944 0-3.5389 2.8555-6.3944 6.3944-6.3944zm-24.895 9.326-0.63304 1.0955 6.3252 3.6525h-13.68v1.2656h13.99l-6.6544 3.8416 0.63252 1.0961 8.553-4.9377h10.436c-5.1022 2.2812-8.6625 7.4026-8.6625 13.348 0 8.0633 6.5497 14.614 14.613 14.614s14.615-6.5503 14.615-14.614c0-8.0633-6.5518-14.613-14.615-14.613-0.0143 0-0.0286 4.7e-4 -0.0429 5.2e-4v-5.2e-4h-16.654zm24.92 6.0136c7.3797 0 13.35 5.9678 13.35 13.348 0 7.3797-5.9699 13.35-13.35 13.35-7.3797 0-13.348-5.9704-13.348-13.35s5.9678-13.348 13.348-13.348zm1e-3 10.525c-1.5514 0-2.8226 1.2706-2.8226 2.822 0 1.5514 1.2712 2.8226 2.8226 2.8226s2.822-1.2712 2.822-2.8226c0-1.5514-1.2706-2.822-2.822-2.822zm0 1.2656c0.86775 0 1.5586 0.68872 1.5586 1.5565 0 0.86775-0.69081 1.5586-1.5586 1.5586-0.86776 0-1.5586-0.69081-1.5586-1.5586 0-0.86777 0.6908-1.5565 1.5586-1.5565z" color="#000000" stroke-dashoffset="2.3906" style="paint-order:markers stroke fill"/>
</g>
</svg>
