<svg id="a" width="10mm" height="10mm" version="1.1" viewBox="0 0 53.71 53.71" xmlns="http://www.w3.org/2000/svg">
<g id="b" transform="translate(-39.158 -105.3)">
<path id="c" d="m62.226 127.31v2.7538h-2.1859v1.2656h2.1859v1.6526c0 0.74295-0.53096 1.2656-1.2015 1.2656h-17.242c-7e-3 0-0.0126-2e-3 -0.0196-2e-3v2.7668c7e-3 0 0.0126 1e-3 0.0196 1e-3h17.242c2.1916 0 3.9667-1.8406 3.9667-4.0313v-1.6526h2.0454v1.6526c0 2.1907 1.7751 4.0313 3.9667 4.0313h17.242c7e-3 0 0.013-1e-3 0.0196-1e-3v-2.7668c-7e-3 1e-4 -0.0129 2e-3 -0.0196 2e-3h-17.242c-0.67052 0-1.2015-0.52261-1.2015-1.2656v-1.6526h2.1859v-1.2656h-2.1859v-2.7538h-2.7652v2.7538h-2.0454v-2.7538z" color="#000000"/>
</g>
</svg>
