<svg id="a" width="10mm" height="10mm" version="1.1" viewBox="0 0 53.71 53.71" xmlns="http://www.w3.org/2000/svg">
<g id="b" transform="translate(-74.348 -143.67)">
<path id="c" d="m98.003 152.01-0.63304 1.0961 4.4648 2.5776h-11.141v1.2656h5.1552l-9.648 5.5702 0.63252 1.0961 4.4648-2.5776-2.9394 5.0906h-9.1106l4.0649-2.3456-0.63304-1.0955-7.0507 4.07 7.0647 4.0804 0.63252-1.0955-4.0649-2.3477h8.3664l-1.9007 3.2918 1.0961 0.63252 2.266-3.9243h0.31161v10.6h1.2656v-5.1552l5.5707 9.6485 1.0961-0.63304-2.5781-4.4648 9.6485 5.5707 0.63304-1.0961-4.4643-2.5776h11.14v-1.2656h-5.1552l9.648-5.5707-0.63252-1.0961-4.4648 2.5781 2.9166-5.0519h9.1193l-4.0649 2.3477 0.63252 1.0955 7.0647-4.0804-7.0507-4.07-0.63304 1.0955 4.0649 2.3456h-8.4021l1.9229-3.3306-1.0961-0.63304-2.2882 3.9636h-0.28939v-10.64h-1.2656v5.1552l-5.5702-9.648-1.0961 0.63252 2.5776 4.4648zm3.2008 5.025c5.7794 0 10.449 4.6721 10.449 10.452 0 0.0432-3e-3 0.0856-3e-3 0.12868h-4.825v1.2661h4.733c-0.6804 5.1172-5.0483 9.0542-10.354 9.0542-5.7794 0-10.451-4.6695-10.451-10.449 0-0.0309 0.0018-0.0612 0.0021-0.092h4.8266v-1.2661h-4.7382c0.66457-5.1354 5.0419-9.0935 10.361-9.0935zm0 7.7055c-1.5082 0-2.744 1.2378-2.744 2.7461 0 1.5082 1.2358 2.744 2.744 2.744 1.5082 0 2.744-1.2358 2.744-2.744s-1.2358-2.7461-2.744-2.7461zm0 1.2656c0.82457 0 1.4785 0.65594 1.4785 1.4805 0 0.82458-0.65389 1.4785-1.4785 1.4785-0.82458 0-1.4805-0.65389-1.4805-1.4785 0-0.82459 0.65595-1.4805 1.4805-1.4805zm0.25321 20.312 4.593 2.652 10.514 0.0765v-2.7285z" color="#000000"/>
</g>
</svg>
