<svg id="a" width="10mm" height="10mm" version="1.1" viewBox="0 0 53.71 53.71" xmlns="http://www.w3.org/2000/svg">
<g id="b" transform="translate(-53.446 -101.86)">
<path id="c" d="m79.834 107.89-1.2206 0.32814 1.8206 6.7991c-2.9421 0.1456-5.6165 1.3168-7.6755 3.1616l-6.3981-3.6933-0.63097 1.095 6.0983 3.5223c-1.8565 2.051-3.0391 4.722-3.1993 7.6626l-7.1313 1.9105 0.32814 1.2211 6.7991-1.8226c0.14561 2.9426 1.3169 5.618 3.1621 7.6776l-3.6938 6.3976 1.0955 0.63148 3.5207-6.0999c2.0511 1.8574 4.7226 3.0407 7.6636 3.2008l1.9105 7.1313 1.218-0.32711 0.42788 1.5968h-4.7713l-0.76842-2.867-1.2206 0.3266 0.68058 2.5404h-4.7718l-0.76843-2.867-1.2206 0.3266 0.68058 2.5404h-4.7713l-0.76894-2.867-1.2227 0.3266 0.6811 2.5404h-4.6498l-0.76739-2.867-1.2227 0.32815 1.0196 3.8029h41.488v-2.6205h-16.68l-0.40461-1.5105-1.2196 0.32557-1.5699-5.8555c2.9422-0.14575 5.617-1.3174 7.6766-3.1626l6.3986 3.6944 0.63149-1.0955-6.1009-3.5212c1.8572-2.051 3.0412-4.7223 3.2019-7.6626l7.1314-1.9115-0.32815-1.2206-6.7991 1.8206c-0.14574-2.9416-1.3173-5.6156-3.1621-7.6745l3.6938-6.3991-1.095-0.63097-3.5228 6.0994c-2.0509-1.8564-4.7217-3.0396-7.6616-3.2003zm1.2237 8.4419c6.1492-1e-5 11.121 4.97 11.121 11.119 0 6.1492-4.9721 11.121-11.121 11.121-6.1492 0-11.119-4.9716-11.119-11.121s4.97-11.119 11.119-11.119zm0 8.3416c-1.5256 0-2.775 1.252-2.775 2.7776 0 1.5256 1.2494 2.7771 2.775 2.7771s2.7776-1.2515 2.7776-2.7771c0-1.5256-1.252-2.7776-2.7776-2.7776zm0 1.3322c0.80652 0 1.4475 0.63887 1.4475 1.4454s-0.64094 1.4469-1.4475 1.4469c-0.80654 0-1.4454-0.64041-1.4454-1.4469s0.63885-1.4454 1.4454-1.4454z" color="#000000"/>
</g>
</svg>
