<svg id="a" width="10mm" height="10mm" version="1.1" viewBox="0 0 53.71 53.71" xmlns="http://www.w3.org/2000/svg">
<g id="b" transform="translate(-12.7 -52.123)">
<path id="c" d="m39.555 58.159c-1.5326 0-2.7895 1.2564-2.7895 2.789 0 1.5326 1.2569 2.789 2.7895 2.789s2.789-1.2564 2.789-2.789c0-1.5326-1.2564-2.789-2.789-2.789zm-6.7851 3.1424c-9.0436 3.2927-14.425 12.615-12.754 22.096 1.6712 9.4807 9.9153 16.401 19.539 16.401s17.868-6.9199 19.539-16.401c1.6712-9.4807-3.7101-18.803-12.754-22.096l-0.43202 1.1896c8.4745 3.0855 13.506 11.803 11.94 20.688-1.5661 8.8846-9.2746 15.354-18.293 15.354s-16.727-6.469-18.293-15.354c-1.5661-8.8846 3.4648-17.602 11.939-20.688zm2.373 2.42c-1.1032 0-2.0118 0.90854-2.0118 2.0118v25.26c-0.60255 0.54878-0.98237 1.3386-0.98237 2.2123 0 1.646 1.3482 2.9941 2.9941 2.9941 1.646 0 2.9941-1.3482 2.9941-2.9941 0-0.87364-0.37982-1.6635-0.98237-2.2123v-6.2038h11.023v-1.2656h-3.6561v-10.973l2.3596 4.086 1.0955-0.63252-4.1093-7.1174-4.0644 7.0409 1.0955 0.63304 2.3595-4.0876v11.05h-6.1035v-17.791c0-1.1032-0.90854-2.0118-2.0118-2.0118zm0 1.2656c0.42429 0 0.74569 0.32191 0.74569 0.74621v17.791h-1.4919v-17.791c0-0.4243 0.32191-0.74621 0.74621-0.74621z" color="#000000" fill="#010100"/>
</g>
</svg>
