<svg id="a" width="10mm" height="10mm" version="1.1" viewBox="0 0 53.71 53.71" xmlns="http://www.w3.org/2000/svg">
<g id="b" transform="translate(-120.65 -102.13)">
<path id="c" d="m146.87 107.43v1.2656h1.2666v-1.2656zm0 3.4081v9.7932h1.2656v-9.7932zm-10.98 0.11472-0.63304 1.0955 5.2839 3.051h-14.79v1.2656h14.803l-5.2839 3.0505 0.63303 1.096 8.2698-4.7754zm23.227 0-8.2832 4.7832 8.2698 4.7754 0.63303-1.096-5.2839-3.0505h14.803v-1.2656h-14.79l5.2839-3.051zm-12.247 11.825v1.2635h1.2666v-1.2635zm0 3.3864v9.7932h1.2656v-9.7932zm-16.803 0.68574v1.2635h3.6132v22.428h27.648v-22.428h3.6111v-1.2635h-4.8767v22.426h-25.119v-22.426z" color="#000000" fill="#010100"/>
</g>
</svg>
