<svg id="a" width="10mm" height="10mm" version="1.1" viewBox="0 0 53.71 53.71" xmlns="http://www.w3.org/2000/svg">
<g id="b" transform="translate(-275.96 -4.4979)">
<path id="c" d="m304.31 9.4537c-2.3484 2.6884-3.3896 4.9092-3.637 6.8983s0.30944 3.6839 0.96119 5.2679c0.65176 1.584 1.3928 3.0803 1.6795 4.7635 0.28668 1.6832 0.15124 3.5678-1.0294 6.0296l1.141 0.54674c1.2758-2.6603 1.4621-4.8749 1.1364-6.7872-0.3257-1.9123-1.13-3.5081-1.7575-5.0333-0.62758-1.5252-1.0831-2.9568-0.87488-4.6307 0.20817-1.6739 1.0898-3.6541 3.3336-6.2229zm12.445 2.8515c-2.7267 1.8544-4.2096 3.5929-4.9826 5.2953-0.77301 1.7024-0.81566 3.3243-0.79686 4.8493 0.0188 1.525 0.0897 2.9606-0.33951 4.453-0.42926 1.4924-1.3507 3.0795-3.4437 4.9082l0.83199 0.95343c2.2307-1.949 3.3283-3.7791 3.8266-5.5118 0.49838-1.7327 0.40699-3.3283 0.38861-4.8183-0.0184-1.49 0.0275-2.8657 0.68368-4.3108 0.65618-1.4451 1.9428-3.0051 4.5429-4.7734zm-28.303 1.1095c-0.27617 3.286 0.14237 5.5328 0.97824 7.2052 0.83587 1.6724 2.0673 2.726 3.2639 3.6716 1.1966 0.94558 2.3587 1.7954 3.2479 3.0685 0.88914 1.2731 1.542 2.9881 1.6449 5.7655l1.2635-0.04703c-0.10967-2.9601-0.83888-4.9649-1.8712-6.443-1.0323-1.4781-2.3309-2.4123-3.5-3.3362-1.1692-0.92388-2.2081-1.8246-2.9177-3.2442s-1.1114-3.4017-0.84801-6.535zm8.2109 21.088 5.4022 9.3555-4.6948 8.1308h-12.752v1.2635h36.391v-1.2635h-12.79l-4.6948-8.1292 5.4028-9.3571zm2.1916 1.2656h7.8806l-3.9414 6.8259zm3.9414 9.3555 3.9631 6.8652h-7.9272z" color="#000000"/>
</g>
</svg>
