<svg id="a" width="10mm" height="10mm" version="1.1" viewBox="0 0 53.71 53.71" xmlns="http://www.w3.org/2000/svg">
<g id="b" transform="translate(-64.294 -42.069)">
<path id="c" d="m75.644 46.181v1.2656h4.2313c-2.5428 1.5356-4.2524 4.3173-4.2524 7.4982 0 4.8329 3.933 8.7659 8.7659 8.7659 0.65204 0 1.2868-0.0736 1.8986-0.20929l-7.1494 7.1494c-2.1318 1.6-3.5135 4.148-3.5135 7.013 0 7e-3 5e-4 0.01482 5.2e-4 0.02222-0.0117 2.2192 0.82909 4.4418 2.5244 6.1371l7.8429 7.8429 0.89349-0.89348-4.6023-4.6023c0.67457 0.1669 1.3793 0.25735 2.1048 0.25735 4.8328 0 8.7638-3.9309 8.7638-8.7638 1e-5 -4.8328-3.9309-8.7638-8.7638-8.7638-0.66139 0-1.3051 0.076-1.925 0.21549l7.7706-7.646c0.19766-0.17735 0.38653-0.36423 0.56741-0.55862l0.0346-0.03411-1e-3 -1e-3c1.4377-1.5621 2.3177-3.6456 2.3177-5.9309 0-4.8329-3.9309-8.7633-8.7638-8.7633-2.9149-9.4e-4 -5.8298-6.75e-4 -8.7447-5.17e-4zm8.7447 1.2661c4.1492 0 7.4977 3.3485 7.4977 7.4977 0 4.1492-3.3485 7.5003-7.4977 7.5003-4.1492 0-7.5003-3.3511-7.5003-7.5003 0-4.1492 3.3511-7.4977 7.5003-7.4977zm-2e-3 4.7341c-1.502 0-2.7321 1.2306-2.7321 2.7326 0 1.502 1.2301 2.7342 2.7321 2.7342s2.7347-1.2322 2.7347-2.7342c0-1.502-1.2327-2.7326-2.7347-2.7326zm0 1.264c0.81838 0 1.4692 0.65027 1.4692 1.4686s-0.65078 1.4686-1.4692 1.4686-1.4686-0.65027-1.4686-1.4686 0.65026-1.4686 1.4686-1.4686zm1e-3 16.718h5.2e-4c4.1492 0 7.4998 3.3511 7.4998 7.5003 0 4.1492-3.3506 7.4998-7.4998 7.4998-2.069 0-3.9393-0.83351-5.2948-2.1833l-0.0222-0.0222c-1.3498-1.3555-2.1833-3.2253-2.1833-5.2943 0-0.0945 4e-3 -0.18803 7e-3 -0.28164 3e-3 -0.0646 4e-3 -0.12924 9e-3 -0.19379 5e-3 -0.0744 0.0105-0.14846 0.017-0.22221 0.17028-1.6142 0.87594-3.1848 2.1229-4.4318l0.9555-0.9555c1.2331-0.88983 2.7479-1.4154 4.3884-1.4154zm14.005 2.6215-0.63303 1.0961 5.2793 3.0484h-8.0584v1.2661h8.0775l-5.2803 3.0484 0.63252 1.0961 8.2656-4.7734zm-14.006 2.2226c-1.502 0-2.7321 1.2322-2.7321 2.7342 0 1.502 1.2301 2.7326 2.7321 2.7326s2.7347-1.2306 2.7347-2.7326c0-1.502-1.2327-2.7342-2.7347-2.7342zm0 1.2656c0.81838 0 1.4692 0.65028 1.4692 1.4686 0 0.81838-0.65078 1.4666-1.4692 1.4666s-1.4686-0.6482-1.4686-1.4666c0-0.81837 0.65026-1.4686 1.4686-1.4686z" color="#000000"/>
</g>
</svg>
