<svg id="a" width="10mm" height="10mm" version="1.1" viewBox="0 0 53.71 53.71" xmlns="http://www.w3.org/2000/svg">
<g id="b" transform="translate(-78.052 -121.71)">
<path id="c" d="m83.252 129.2v1.2635h3.4535c-1.6474 1.1986-2.7254 3.1354-2.7254 5.3227 0 3.6305 2.9577 6.5877 6.5882 6.5877 2.1873 0 4.1246-1.0776 5.3237-2.7249v0.10542c0 4.6689 3.667 8.0197 8.2207 8.0197 4.5537 0 8.2186-3.3507 8.2186-8.0197v-0.10491c1.1992 1.647 3.1367 2.7244 5.3237 2.7244 3.6305 0 6.5877-2.9572 6.5877-6.5877 0-2.1873-1.0776-4.1241-2.7249-5.3227h3.453v-1.2635h-7.3157c-3.6305 0-6.5882 2.9556-6.5882 6.5862 0 7e-3 1e-3 0.0134 1e-3 0.0202v3.9481c0 4.0114-3.1025 6.7541-6.9551 6.7541-3.8527 0-6.9551-2.7427-6.9551-6.7541v-3.9744l-2e-3 1e-3c-3e-3 -3.6281-2.9584-6.581-6.5872-6.581h-4e-3zm7.3164 1.264c2.9468 0 5.3222 2.3753 5.3222 5.3222 0 2.9469-2.3753 5.3222-5.3222 5.3222-2.9469 0-5.3227-2.3753-5.3227-5.3222 0-2.9469 2.3758-5.3222 5.3227-5.3222zm27.087 0c2.9469 0 5.3222 2.3753 5.3222 5.3222 0 2.9469-2.3753 5.3222-5.3222 5.3222s-5.3227-2.3753-5.3227-5.3222c0-2.9469 2.3758-5.3222 5.3227-5.3222zm-27.087 2.9688c-1.2927 0-2.3539 1.0607-2.3539 2.3533 0 1.2927 1.0612 2.3554 2.3539 2.3554 1.2927 0 2.3533-1.0628 2.3533-2.3554 0-1.2927-1.0607-2.3533-2.3533-2.3533zm27.087 0c-1.2927 0-2.3539 1.0607-2.3539 2.3533 0 1.2927 1.0612 2.3554 2.3539 2.3554 1.2927 0 2.3533-1.0627 2.3533-2.3554s-1.0607-2.3533-2.3533-2.3533zm-27.087 1.2656c0.60901 0 1.0898 0.47878 1.0898 1.0878 0 0.60902-0.48084 1.0899-1.0898 1.0899-0.60902 0-1.0899-0.48084-1.0899-1.0899 0-0.60901 0.48084-1.0878 1.0899-1.0878zm27.087 0c0.60902 0 1.0898 0.47877 1.0898 1.0878s-0.48083 1.0899-1.0898 1.0899c-0.60901 0-1.0899-0.48085-1.0899-1.0899s0.48085-1.0878 1.0899-1.0878zm-18.889 13.274v1.2656h27.736v-1.2656zm23.023 1.3891-4.7816 8.2832 1.096 0.63303 3.0484-5.2793v14.938h1.2661v-14.957l3.0484 5.2803 1.0961-0.63252z" color="#000000"/>
</g>
</svg>
