<svg id="a" width="10mm" height="10mm" version="1.1" viewBox="0 0 53.71 53.71" xmlns="http://www.w3.org/2000/svg">
<g id="b" transform="translate(-78.798 -92.564)">
<path id="c" d="m85.455 98.474v1.2656h40.397v-1.2656zm4.5935 4.2189v1.2656h31.209v-1.2656zm3.8029 4.2189v1.2635h23.603v-1.2635zm4.1972 4.2168v1.2656h15.209v-1.2656zm6.8533 3.3807v8.7395l-3.0665-5.2726-1.0935 0.63665 4.1703 7.1696c0.0242 0.84186 0.0622 1.4156-0.061 1.725-0.0718 0.18021-0.17202 0.31857-0.45113 0.49816-0.27575 0.17742-0.73638 0.37073-1.4159 0.55449l-11.965 2.0293c-0.68962 0.11703-1.3406 0.39904-1.8417 0.86558-0.50118 0.46653-0.83561 1.1414-0.83561 1.91 0 1.5295 1.2497 2.7808 2.7786 2.7833h0.0047 29.123c0.82832 0 1.4764 0.64807 1.4764 1.4764 0 0.82831-0.64808 1.4743-1.4764 1.4743h-32.104v1.2661h32.103c1.5072 0 2.7425-1.2332 2.7425-2.7404 0-1.5072-1.2352-2.7425-2.7425-2.7425h-29.127v5.2e-4c-0.84991-2e-3 -1.5131-0.66714-1.5131-1.5177 0-0.4231 0.15299-0.72325 0.43356-0.98443 0.28058-0.26119 0.70439-0.46079 1.1896-0.54312l12.035-2.0428 0.0295-8e-3c0.7659-0.20524 1.3407-0.42747 1.7911-0.71727 0.4504-0.2898 0.77252-0.67248 0.94102-1.0955 0.27408-0.68812 0.20635-1.3576 0.16278-2.1156l4.2163-7.2456-1.094-0.63665-3.1445 5.4054v-8.8723z" color="#000000" stroke-dashoffset="2.3906" style="paint-order:markers stroke fill"/>
</g>
</svg>
