<svg id="a" width="10mm" height="10mm" version="1.1" viewBox="0 0 53.71 53.71" xmlns="http://www.w3.org/2000/svg">
<g id="b" transform="translate(-26.987 -73.29)">
<path id="c" d="m69.878 82.158-2.7187 9.1095 1.2128 0.36122 1.834-6.1469c3.5902 11.319 3.3212 17.395 0.10026 29.318l-1.8309-6.1381-1.2108 0.36122 2.7166 9.1095 0.87798-0.90072 0.0847 0.0238c0.015-0.0534 0.0275-0.10188 0.0424-0.15503l5.4891-5.6338-0.90641-0.88315-3.8928 3.9951c3.0406-11.46 3.3063-17.915-0.0543-28.815l3.8416 3.9429 0.90641-0.88264zm-13.791 3.2949-0.0196 2e-3c-9e-3 3.7e-4 -0.0167 2e-3 -0.0253 2e-3h-24.833v1.2635h21.676c-0.63505 0.54288-1.158 1.2147-1.5994 1.9275-1.0246 1.6545-1.7397 3.571-2.6799 4.9532l-0.11111 0.16227v6e-3h-17.286v1.2656h17.286v18.438h-17.286v1.264h32.602v-20.95l-0.0863-0.14624c-0.80825-1.3889-1.6625-3.3618-2.8122-5.0333-1.1497-1.6715-2.6822-3.1135-4.8069-3.1523zm0.0155 1.2733c1.5556 0.0381 2.7232 1.0792 3.7677 2.5978 1.0168 1.4783 1.8327 3.3228 2.6753 4.7987v19.35h-12.785v-19.359c1.0008-1.5369 1.7094-3.3621 2.5993-4.7992 0.92309-1.4906 1.9408-2.5009 3.7424-2.588z" color="#000000"/>
</g>
</svg>
