<svg id="a" width="10mm" height="10mm" version="1.1" viewBox="0 0 53.71 53.71" xmlns="http://www.w3.org/2000/svg">
<g id="b" transform="translate(-137.99 -83.272)">
<path id="c" d="m173.75 88.963-7.4414 7.5644-2.5916 9.6273-8.385-8.2636-2.0118 2.0407 9.541 9.4025-0.0377 0.14056-9.357 9.3689 2.0278 2.0236 5.8353-5.8425-2.3006 8.5462-5.1945 1.7332-0.0465 1.5668 7.7763-1.7947 3.6308-13.442 9.1762 9.0434 2.0118-2.0407-9.4041-9.2682 9.3999-9.4118-2.0273-2.0252-7.4776 7.4874 2.003-7.4171 6.9159-7.0296zm-5.9004 30.582c-1.8998 0-3.4706 1.5708-3.4706 3.4706 0 1.8998 1.5708 3.4711 3.4706 3.4711s3.4706-1.5714 3.4706-3.4711c0-1.8998-1.5708-3.4706-3.4706-3.4706zm-13.932 8.8827v2.8634h20.93v-2.8634z" color="#000000" stroke-dashoffset="2.3906" style="paint-order:markers stroke fill"/>
</g>
</svg>
