<svg id="a" width="10mm" height="10mm" version="1.1" viewBox="0 0 53.71 53.71" xmlns="http://www.w3.org/2000/svg">
<g id="b" transform="translate(-149.22 -135.47)">
<path id="c" d="m167.38 142.44-2.0443 4.3749h0.85731c0.0473 0.14181 0.373 1.1232 0.70797 2.4443 0.35993 1.4196 0.66665 3.1716 0.60719 4.0525-0.0788 1.167-0.66133 2.3958-1.3302 3.7755s-1.4269 2.9216-1.4412 4.7635c-0.0146 1.8709 0.78217 3.4308 1.463 4.8183 0.68079 1.3875 1.2482 2.6094 1.2697 3.7445 0.0129 0.67666-0.37819 2.1789-0.81649 3.377-0.12581 0.34391-0.24835 0.65527-0.36432 0.94102h2.6417c0.0125-0.0337 0.0242-0.0615 0.0367-0.0956 0.47855-1.3081 0.99401-2.8406 0.96687-4.2695-0.0353-1.8613-0.84481-3.4043-1.5214-4.7832-0.67654-1.3789-1.2196-2.5871-1.2108-3.713 9e-3 -1.1485 0.53607-2.3469 1.1953-3.7068 0.65921-1.3598 1.4478-2.8693 1.5704-4.686 0.10271-1.5216-0.29316-3.3061-0.678-4.824-0.18198-0.71774-0.36631-1.3543-0.51263-1.8386h0.64647zm8.6977 0-2.0443 4.3749h0.85731c0.0473 0.14181 0.373 1.1232 0.70797 2.4443 0.35993 1.4196 0.66665 3.1716 0.60719 4.0525-0.0788 1.167-0.66133 2.3958-1.3302 3.7755s-1.4269 2.9216-1.4412 4.7635c-0.0146 1.8709 0.78217 3.4308 1.463 4.8183 0.68079 1.3875 1.2482 2.6094 1.2697 3.7445 0.0129 0.67666-0.37819 2.1789-0.81649 3.377-0.12581 0.34391-0.24835 0.65527-0.36432 0.94102h2.6417c0.0125-0.0337 0.0242-0.0615 0.0367-0.0956 0.47855-1.3081 0.99401-2.8406 0.96687-4.2695-0.0353-1.8613-0.84481-3.4043-1.5214-4.7832-0.67654-1.3789-1.2196-2.5871-1.2108-3.713 9e-3 -1.1485 0.53607-2.3469 1.1953-3.7068 0.65921-1.3598 1.4478-2.8693 1.5704-4.686 0.10271-1.5216-0.29316-3.3061-0.678-4.824-0.18198-0.71774-0.36631-1.3543-0.51263-1.8386h0.64647zm8.6982 0-2.0443 4.3749h0.85732c0.0473 0.14181 0.37299 1.1232 0.70796 2.4443 0.35993 1.4196 0.66666 3.1716 0.6072 4.0525-0.0788 1.167-0.66133 2.3958-1.3302 3.7755s-1.4269 2.9216-1.4413 4.7635c-0.0146 1.8709 0.78217 3.4308 1.463 4.8183 0.68079 1.3875 1.2482 2.6094 1.2697 3.7445 0.0129 0.67666-0.37818 2.1789-0.81648 3.377-0.12581 0.34391-0.24835 0.65527-0.36432 0.94102h2.6417c0.0125-0.0337 0.0242-0.0615 0.0367-0.0956 0.47855-1.3081 0.994-2.8406 0.96686-4.2695-0.0353-1.8613-0.8448-3.4043-1.5214-4.7832-0.67654-1.3789-1.2196-2.5871-1.2108-3.713 9e-3 -1.1485 0.53607-2.3469 1.1953-3.7068 0.65921-1.3598 1.4478-2.8693 1.5704-4.686 0.10271-1.5216-0.29315-3.3061-0.67799-4.824-0.18198-0.71774-0.36631-1.3543-0.51263-1.8386h0.64647zm-25.9 37.295v2.4644h34.412v-2.4644z" color="#000000"/>
</g>
</svg>
