<svg id="a" width="10mm" height="10mm" version="1.1" viewBox="0 0 53.71 53.71" xmlns="http://www.w3.org/2000/svg">
<g id="b" transform="translate(-235.21 -69.321)">
<path id="c" d="m253.44 77.457-3.0164 8.6486h1.6702c-0.18854 6.2712 1.6694 9.3192 2.5094 11.735 0.4594 1.3214 0.66788 2.4241 0.27957 4.1853-0.35516 1.6108-1.2832 3.7874-3.145 6.8714h2.8603c1.4688-2.5832 2.3073-4.6009 2.6908-6.3402 0.48573-2.2031 0.1837-3.9719-0.35709-5.5273-0.99306-2.8563-2.5952-5.116-2.3761-10.924h1.9001zm8.6475 0-3.0164 8.6486h1.6702c-0.18854 6.2712 1.6694 9.3192 2.5094 11.735 0.45939 1.3214 0.66787 2.4241 0.27956 4.1853-0.35515 1.6108-1.2832 3.7874-3.145 6.8714h2.8603c1.4688-2.5832 2.3073-4.6009 2.6908-6.3402 0.48574-2.2031 0.1837-3.9719-0.35708-5.5273-0.99306-2.8563-2.5952-5.116-2.3761-10.924h1.9002zm8.648 0-3.0164 8.6486h1.6702c-0.18854 6.2712 1.6694 9.3192 2.5094 11.735 0.4594 1.3214 0.66788 2.4241 0.27957 4.1853-0.35516 1.6108-1.2832 3.7874-3.145 6.8714h2.8603c1.4688-2.5832 2.3073-4.6009 2.6908-6.3402 0.48573-2.2031 0.18371-3.9719-0.35708-5.5273-0.99306-2.8563-2.5952-5.116-2.3761-10.924h1.9002zm-22.493 34.974v2.4644h27.653v-2.4644z" color="#000000"/>
</g>
</svg>
