<svg width="10mm" height="10mm" version="1.1" viewBox="0 0 200 200" xmlns="http://www.w3.org/2000/svg">
<path d="m30.34 87.191c0-3.866 3.134-7 7-7h6.0762c3.866 0 7-3.134 7-7v-3.161c0-3.866 3.134-7 7-7h57.01c3.866 0 7 3.134 7 7v3.161c0 3.866 3.134 7 7 7h20.462c3.866 0 7 3.134 7 7v3.8963c0 3.866 3.134 7 7 7h0.77725c3.866 0 7-3.134 7-7v-11.819c0-3.01 2.44-5.45 5.45-5.45 2.2464 0.06763 4.1987 1.562 4.8507 3.7127l5.1398 15.283c1.1747 3.4928 1.7737 7.1533 1.7737 10.838v19.298c0 3.685-0.59905 7.3455-1.7737 10.838l-5.1398 15.283c-0.65198 2.1507-2.6044 3.6451-4.8507 3.7127-3.01 0-5.45-2.44-5.45-5.45v-11.819c0-3.866-3.134-7-7-7h-0.77725c-3.866 0-7 3.134-7 7v18.509c0 3.866-3.134 7-7 7h-69.469c-1.8565 0-3.637-0.7375-4.9497-2.0502l-18.226-18.226c-1.3128-1.3128-3.0932-2.0502-4.9497-2.0502h-14.041c-3.866 0-7-3.134-7-7 0.04704-14.835 0.06388-29.67 0.08693-44.505z" fill="none" stroke="#000" stroke-width="8"/>
<path d="m55.339 43.033v8h18.746v11.996h26.5v-11.996h18.744v-8z"/>
<path d="m30.315 103.47h-13.926v29.254l-6-6v-26.12l-2.2695-2.2695v-23.849l8.2695-8.2695v29.254h13.938z"/>
</svg>
