<svg id="a" width="10mm" height="10mm" version="1.1" viewBox="0 0 53.71 53.71" xmlns="http://www.w3.org/2000/svg">
<g id="b" transform="translate(-78.052 -121.71)">
<path id="c" d="m111.56 127.22v2.6727c0.89564 0.3893 1.7917 0.77878 2.9605 1.6919 1.1689 0.91311 2.6111 2.3496 3.4794 4.0612 0.39458 0.77769 0.66752 1.6136 0.87902 2.4789l2.4944 21.195v1e-3c0.0982 0.82587-0.0979 1.6588-0.555 2.3539-0.85916 1.3063-2.4593 1.8886-3.9569 1.4402-1.4978-0.44842-2.5188-1.8178-2.529-3.3864l-0.0139-9.9255c-6e-5 -3.0765-2.5222-5.5991-5.5986-5.5991v-14.161c0-1.343-1.0956-2.5151-2.4691-2.5151h-16.493c-1.3735 0-2.4691 1.1721-2.4691 2.5151v37.224h-1.7849v2.6458h25.001v-2.6458h-1.7849v-20.417c1.6466 1e-5 2.9528 1.3066 2.9528 2.9533v1e-3l0.0139 9.9384v4e-3c0.0178 2.7158 1.809 5.1231 4.4158 5.9035 2.6066 0.78044 5.4309-0.24735 6.9262-2.5208l5.3e-4 -5.3e-4c0.79916-1.2152 1.1435-2.6743 0.97203-4.1186v-2e-3l-2.2081-18.759 2.527-1.1689a21.451 21.451 0 0 0-12.76-11.861zm-21.626 2.9538h16.14v9.2676h-16.14zm0 11.913h16.14v10.757l-16.14 5.6823zm6.7696 2.3322v2.775h-2.775v2.6004h2.775v2.775h2.6004v-2.775h2.775v-2.6004h-2.775v-2.775zm-2.6479 16.298h7.8961v2.9662h-7.8961z" color="#000000" stroke-width=".26458"/>
</g>
</svg>
