<svg id="a" width="10mm" height="10mm" version="1.1" viewBox="0 0 53.71 53.71" xmlns="http://www.w3.org/2000/svg">
<g id="b" transform="translate(-120.12 -67.469)">
<path id="c" d="m134.87 76.638c-1.6285 0-3.1326 1.2244-3.1326 2.9104v7.4264l2.5993-0.45424v-6.9722c0-0.0989 0.13171-0.31058 0.5333-0.31058h24.203c0.40159 0 0.5333 0.21165 0.5333 0.31058v6.9722l2.5998 0.45424v-7.4264c0-1.686-1.5046-2.9104-3.1331-2.9104zm5.8637 5.1237c0 3.1517-2.38 6.5596-6.3107 6.996l-8e-3 2e-3 -6.2833 0.77102-0.33589-2.5502-6.3919 4.839 7.4311 3.0572-0.36432-2.7683 6.2534-0.76688h-0.0139c5.2812-0.58623 8.6248-5.1239 8.6248-9.5798zm9.8748 0c0 4.4559 3.3436 8.9936 8.6248 9.5798h-0.0139l6.2534 0.76688-0.36431 2.7683 7.4311-3.0572-6.3919-4.839-0.33589 2.5502-6.2833-0.77102-8e-3 -2e-3c-3.9307-0.43632-6.3107-3.8443-6.3107-6.996zm-4.9361 8.754v14.518l-2.6825-0.0134 3.9279 6.9882 4.0359-6.9484-2.6815-0.0134v-14.531zm-11.336 3.1218-2.5993 0.45424v3.5677c0 1.686 1.5041 2.9104 3.1326 2.9104h8.6982v-2.5998h-8.6982c-0.40159 0-0.5333-0.21164-0.5333-0.31057zm25.27 5.2e-4v4.0215c0 0.0989-0.13171 0.31057-0.5333 0.31057h-8.6718v2.5998h8.6718c1.6285 0 3.1331-1.2244 3.1331-2.9104v-3.5672z" color="#000000"/>
</g>
</svg>
