<svg id="a" width="10mm" height="10mm" version="1.1" viewBox="0 0 53.71 53.71" xmlns="http://www.w3.org/2000/svg">
<g id="b" transform="translate(-78.052 -121.71)">
<path id="c" d="m92.514 128.31c-1.6285 0-3.1326 1.2239-3.1326 2.9099v34.688c0 1.686 1.5041 2.9099 3.1326 2.9099h14.721c1.6285 0 3.1331-1.2239 3.1331-2.9099v-8.7788h-2.5998v8.7788c0 0.0989-0.13171 0.31058-0.5333 0.31058h-14.721c-0.40159 0-0.5333-0.21165-0.5333-0.31058v-34.688c0-0.0989 0.13171-0.31058 0.5333-0.31058h14.721c0.40159 0 0.5333 0.21165 0.5333 0.31058v8.4625h2.5998v-8.4625c0-1.686-1.5046-2.9099-3.1331-2.9099zm5.5128 9.6723-2.2975 1.7291c2.1996 3.6932 7.5694 7.0766 12.102 6.1991l-0.0134 4e-3 5.9531-1.1266 0.47491 2.7518 6.1867-5.1278-7.5411-2.7202 0.43718 2.5347-5.9831 1.1312-8e-3 5.2e-4c-3.5226 0.68195-7.8408-2.5275-9.3111-5.3759zm16.219 11.412-0.47491 2.7518-5.9531-1.1266 0.0134 4e-3c-4.5327-0.87751-9.9025 2.5059-12.102 6.1991l2.2975 1.7291c1.4702-2.8484 5.7884-6.0578 9.3111-5.3759l8e-3 5.2e-4 5.9831 1.1312-0.43718 2.5347 7.5411-2.7202z" color="#000000"/>
</g>
</svg>
