<svg width="10mm" height="10mm" version="1.1" viewBox="0 0 200 200" xmlns="http://www.w3.org/2000/svg">
<g fill="none">
<path d="m86.347 39.195 85.042 1e-6c2.8218 0 5.0936 2.2717 5.0936 5.0936v111.42c0 2.8218-2.2717 5.0936-5.0936 5.0936h-142.78c-2.8218 0-5.0936-2.2717-5.0936-5.0936l-1e-6 -53.688z" stroke="#000" stroke-linejoin="round" stroke-width="10"/>
</g>
<path d="m95.07 60.258-39.531 39.531h-29.787l-2.235 5.2959 6.26e-4 5.2959h76.621v-13.004h-16.693l27.227-27.227 27.229 27.227h-16.695v13.004h55.277v-50.123z"/>
<path d="m110.67 150.61-27.227-27.227h16.695v-13.004h21.066v13.004h16.695z"/>
</svg>
