<svg width="10mm" height="10mm" version="1.1" viewBox="0 0 200 200" xmlns="http://www.w3.org/2000/svg">
<path d="m94.764 28.66a37.882 37.882 0 0 0-32.709 37.371 37.882 37.882 0 0 0 2.3457 12.854 37.882 37.882 0 0 0-12.303 4.3926 37.882 37.882 0 0 0-16.012 47.016l4.6504-2.6856a26.442 26.442 0 0 1 11.76-31.35 26.442 26.442 0 0 1 34.418 7.3711l5.3457-3.0879a7.9036 7.9036 0 0 1-0.22656-1.1406 7.9036 7.9036 0 0 1 5.0527-7.3359v-6.0566a26.442 26.442 0 0 1-23.592-26.119 26.442 26.442 0 0 1 21.27-25.859zm10.344 0v5.3145a26.442 26.442 0 0 1 21.271 25.914 26.442 26.442 0 0 1-23.592 26.119v6.0566a7.9036 7.9036 0 0 1 5.0527 7.3359 7.9036 7.9036 0 0 1-0.10351 1.2129l5.2227 3.0156a26.442 26.442 0 0 1 34.418-7.3711 26.442 26.442 0 0 1 11.807 31.377l4.7305 2.7305a37.882 37.882 0 0 0-16.139-47.088 37.882 37.882 0 0 0-12.305-4.3926 37.882 37.882 0 0 0 2.3477-12.854 37.882 37.882 0 0 0-32.711-37.371zm-10.016 76.828-5.1992 3.002a26.442 26.442 0 0 1-10.955 33.566 26.442 26.442 0 0 1-33.029-5.4902l-4.6504 2.6855a37.882 37.882 0 0 0 48.721 9.6406 37.882 37.882 0 0 0 10.018-8.3887 37.882 37.882 0 0 0 9.8965 8.3887 37.882 37.882 0 0 0 48.721-9.6426l-4.6484-2.6836a26.442 26.442 0 0 1-33.031 5.4902 26.442 26.442 0 0 1-10.824-33.492l-5.2207-3.0156a7.9036 7.9036 0 0 1-4.9531 1.7559 7.9036 7.9036 0 0 1-4.8438-1.8164z"/>
<g fill="none" stroke="#000" stroke-width="10">
<path d="m84.057 71.896a31.76 31.76 0 0 1 31.76 1e-6"/>
<path d="m131.7 99.401a31.76 31.76 0 0 1-15.88 27.505"/>
<path d="m84.057 126.91a31.76 31.76 0 0 1-15.88-27.505"/>
</g>
</svg>
