<svg id="a" width="10mm" height="10mm" version="1.1" viewBox="0 0 53.71 53.71" xmlns="http://www.w3.org/2000/svg">
<g id="b" transform="translate(-80.962 -53.181)">
<path id="c" d="m93.866 57.614v9.7446h27.904v-9.7446h-1.2635v8.4791h-25.375v-8.4791zm4.6013 1.9854v1.2656h18.701v-1.2656zm9.3612 9.0785-4.2023 7.2802 1.0945 0.632 2.4655-4.2705v7.4538h1.2635v-7.49l2.4644 4.27 1.0961-0.63252zm-13.962 10.278v23.503h27.904v-23.503h-1.2635v22.237h-25.375v-22.237zm4.6111 2.6355v0.108h-0.0191v1.2656h18.701v-0.108h0.0191v-1.2656zm-9e-3 6.3702v1.2656h18.701v-1.2656zm0 6.2616v1.2656h18.701v-1.2656z" color="#000000"/>
</g>
</svg>
