<svg width="10mm" height="10mm" version="1.1" viewBox="0 0 200 200" xmlns="http://www.w3.org/2000/svg">
<path d="m63.146 84.172v31.657h-6.4218v-20.532h-7.9594v-4.8389q8.3664 0.18089 9.2708-6.2861z"/>
<path d="m95.251 96.337h-6.1504q-0.1809-5.6077 2.8491-9.1804 3.0752-3.6179 8.6377-3.6179 4.5224 0 7.5976 2.623 3.2561 2.8039 3.2561 7.281 0 4.2058-2.8039 7.1906-1.4019 1.4924-6.1504 4.5676-4.1606 2.7586-5.8338 5.1103h14.969v5.5173h-23.245q0.04522-4.9294 2.9395-8.4568 1.8542-2.1707 7.0549-5.6982 3.7083-2.5325 4.3867-3.1204 2.2612-2.0803 2.2612-4.6128 0-2.216-1.3567-3.5274-1.3115-1.3567-3.3918-1.3567-2.623 0-3.9345 2.3969-1.0854 1.9446-1.0854 4.8841z"/>
<path d="m141.78 101.49v-4.5224q2.623 0.22612 4.3867-0.54268 2.3516-0.9497 2.3516-3.3918 0-1.9446-1.3115-3.0752t-3.1657-1.1306q-2.3516 0-3.6631 1.5828-1.2663 1.5376-1.221 4.0701h-6.1052q0.18089-4.8841 3.1204-7.9141 2.9848-3.03 7.8237-3.03 4.1154 0 7.2358 2.2612 3.3918 2.5325 3.3918 6.5122 0 2.3516-1.1306 4.0249-1.1758 1.8542-3.3013 2.4421v0.09045q2.5778 0.58791 4.0701 2.5777 1.5376 1.9446 1.5376 4.6128 0 4.7937-3.5727 7.688-3.3013 2.7134-8.1855 2.7134-5.4268 0-8.6377-3.0752t-3.1204-8.4568h6.1052q0.0905 2.7586 1.4472 4.3867 1.4472 1.8542 4.1154 1.8542 2.216 0 3.6631-1.3567 1.4924-1.4019 1.4924-3.6179 0-3.1656-2.4873-4.1606-1.4019-0.54268-4.8389-0.54268z"/>
<g fill="none" stroke="#000" stroke-width="5">
<rect x="33.933" y="67.279" width="132.13" height="65.442"/>
<rect x="17.848" y="44.61" width="164.3" height="110.78"/>
<path d="m77.978 67.279v65.442"/>
<path d="m122.02 67.279v65.442"/>
</g>
</svg>
