<svg id="a" width="10mm" height="10mm" version="1.1" viewBox="0 0 53.71 53.71" xmlns="http://www.w3.org/2000/svg">
<g id="b" transform="translate(-84.931 -98.16)">
<path id="c" d="m107.53 108.99v26.615h-12.793v5.4317h18.793v-32.047zm1.2656 1.2661h3.4711v29.516h-16.264v-2.9006h12.793zm7.3256 3.2794v1.2635h18.701v-1.2635zm-20.332 5.193-7.0399 4.1724 7.0394 4.1713 0.63666-1.1023-4.1109-2.4366h11.3l-4.1109 2.4366 0.63665 1.1023 7.0394-4.1713-7.0399-4.1724-0.63665 1.1033 4.1119 2.4365h-11.301l4.1119-2.4365zm20.332 3.5528v1.264h18.701v-1.264zm0 8.7462v1.2635h18.701v-1.2635zm0 8.7462v1.2635h18.701v-1.2635z" color="#000000"/>
</g>
</svg>
