<svg id="a" width="10mm" height="10mm" version="1.1" viewBox="0 0 53.71 53.71" xmlns="http://www.w3.org/2000/svg">
<g id="b" transform="translate(-150.02 -82.55)">
<path id="c" d="m188.1 85.83-1.7498 6.5309 7.1624 4.1352 4.746-4.7465-0.89452-0.89452-4.0607 4.0587-5.4803-3.1642 1.4996-5.5914zm-1.5994 9.7891-9.2888 5.3609 0.63252 1.0961 9.2873-5.3635zm3.668 2.7518-2.7812 24.924 1.2578 0.14108 2.7792-24.926zm-20.024 5.2927c-8.0881 0-14.659 6.5704-14.659 14.659 0 8.0881 6.5704 14.658 14.659 14.658 8.0881 0 14.658-6.5699 14.658-14.658 0-8.0882-6.5699-14.659-14.658-14.659zm0 1.2661c7.4045 0 13.392 5.988 13.392 13.392 0 5.0243-2.7587 9.3939-6.8446 11.686l-1.4717-2.5487c3.9843-2.2384 6.0871-6.865 5.0875-11.402-1.0549-4.7887-5.2844-8.2072-10.164-8.2072-4.8793 0-9.1093 3.4186-10.164 8.2072-0.99953 4.5372 1.1031 9.1633 5.087 11.402l-1.4717 2.5487c-4.0861-2.2918-6.8456-6.661-6.8456-11.685 0-7.4045 5.99-13.392 13.395-13.392zm0 4.1853c4.2896 0 7.998 2.9933 8.9276 7.213 0.88193 4.0034-0.97081 8.0708-4.4834 10.036l-1.4485-2.5089-1.095 0.63304 3.5135 6.0859c-1.6554 0.73148-3.4858 1.1405-5.4141 1.1405s-3.759-0.40902-5.4147-1.1405l3.514-6.0859-1.0961-0.63304-1.448 2.5084c-3.5123-1.9654-5.3653-6.0324-4.4834-10.036 0.9296-4.2197 4.6385-7.213 8.9281-7.213zm0 5.9609c-1.7856 0-3.2463 1.4608-3.2463 3.2463 0 1.7855 1.4608 3.2458 3.2463 3.2458 1.7855 0 3.2458-1.4603 3.2458-3.2458 0-1.7855-1.4603-3.2463-3.2458-3.2463zm0 1.264c1.1019 0 1.9823 0.88042 1.9823 1.9823 0 1.1018-0.88043 1.9823-1.9823 1.9823-1.1019 0-1.9828-0.88045-1.9828-1.9823 0-1.1019 0.88093-1.9823 1.9828-1.9823z" color="#000000"/>
</g>
</svg>
