<svg id="a" width="10mm" height="10mm" version="1.1" viewBox="0 0 53.71 53.71" xmlns="http://www.w3.org/2000/svg">
<g id="b" transform="translate(-81.756 -82.021)">
<path id="c" d="m108.31 86.471c-0.89502 0-1.9851 0.38368-3.283 1.6816l-11.483 11.482c-1.4047 1.4047-3.0215 2.9861-3.0215 5.3397v17.652h12.317v8.6537h23.865v-36.156h-6.0782c-0.89504 0-1.9851 0.38368-3.283 1.6816l-2.9554 2.9554v-13.291zm0 1.2656h4.8126v13.291l-7.2616 7.2616c-1.4047 1.4047-3.0215 2.9861-3.0215 5.3397v7.7349h-11.053v-16.055c5e-3 -1.3142 0.58753-2.3808 1.3668-3.1368 0.78282-0.75937 1.7831-1.1603 2.3906-1.1581h10.08v-11.67l0.29714-0.29714c1.1518-1.1518 1.8031-1.3105 2.3885-1.3105zm-3.9512 2.8732v9.1405h-8.8123c-0.11444-3.1e-4 -0.2303 7e-3 -0.34675 0.0186zm16.268 5.7805h4.8126v33.627h-21.336v-16.055c5e-3 -1.3142 0.58754-2.3808 1.3668-3.1368 0.78282-0.75937 1.7831-1.1603 2.3906-1.1581h10.08v-11.67l0.29714-0.29714c1.1518-1.1518 1.8031-1.3105 2.3885-1.3105zm-3.9512 2.8732v9.1405h-8.8123c-0.11444-3.2e-4 -0.2303 7e-3 -0.34675 0.0186z" color="#000000"/>
</g>
</svg>
