<svg id="a" width="10mm" height="10mm" version="1.1" viewBox="0 0 53.71 53.71" xmlns="http://www.w3.org/2000/svg">
<g id="b" transform="translate(-107.42 -94.985)">
<path id="c" d="m130.79 97.444v6.6353h-2.6598l6.0818 7.1189 6.2141-7.1639h-2.697v-6.5903h-5.3733zm1.2656 1.264h4.4085v6.5898h1.1896l-3.4339 3.961-3.3455-3.916h1.1813zm-16.678 12.997v24.808h37.8v-24.808h-2.8531v21.957h-32.094v-21.957zm18.901 5.3955-0.51934 0.74776s-1.0791 1.5547-2.1606 3.4106c-0.54074 0.92795-1.0844 1.9307-1.4996 2.8727s-0.72088 1.7982-0.72088 2.5781c0 2.6981 2.2023 4.8984 4.9005 4.8984s4.8984-2.2003 4.8984-4.8984c0-0.77995-0.30561-1.6362-0.72088-2.5781-0.41526-0.94198-0.95736-1.9447-1.4981-2.8727-1.0815-1.8559-2.1601-3.4106-2.1601-3.4106zm0 2.2908c0.34351 0.50813 0.79373 1.1447 1.586 2.5042 0.52587 0.90246 1.0488 1.875 1.4335 2.7476 0.3847 0.87263 0.6134 1.6683 0.6134 2.0665 0 2.0145-1.6184 3.6349-3.6329 3.6349-2.0145 0-3.6349-1.6204-3.6349-3.6349 0-0.39821 0.22871-1.1939 0.6134-2.0665 0.3847-0.87263 0.90763-1.8452 1.4335-2.7476 0.79229-1.3596 1.2446-1.9962 1.588-2.5042z" color="#000000"/>
</g>
</svg>
