<svg id="a" width="10mm" height="10mm" version="1.1" viewBox="0 0 53.71 53.71" xmlns="http://www.w3.org/2000/svg">
<g id="b" transform="translate(-52.917 -106.36)">
<path id="c" d="m95.081 112.12-4.1662 7.2187 1.0955 0.63304 2.4319-4.2152v10.726h-5.393v-4.6679h-31.555v28.025h31.555v-4.6679h5.393v9.1529h1.2656v-9.1529h6.3417v-18.689h-6.3417v-10.736l2.4314 4.2271 1.0976-0.63097zm-36.322 10.961h29.025v25.494h-29.025zm30.291 4.6679h5.393v5.994c-0.88414 0.27304-1.5332 1.1013-1.5332 2.0707 0 0.9694 0.6491 1.7987 1.5332 2.0722v6.0213h-5.393zm6.6585 0h5.0762v16.158h-5.0762v-6.0213c0.8846-0.27353 1.5348-1.1028 1.5348-2.0722 0-0.9694-0.65019-1.7976-1.5348-2.0707z" color="#000000"/>
</g>
</svg>
