<svg id="a" width="10mm" height="10mm" version="1.1" viewBox="0 0 53.71 53.71" xmlns="http://www.w3.org/2000/svg">
<g id="b" transform="translate(-83.344 -88.106)">
<path id="c" d="m94.364 106.3v8.0248h-5.7893l4.2271-2.4314-0.63097-1.0976-7.2228 4.1558 7.2187 4.1662 0.63304-1.0955-4.2152-2.4319h5.7795v8.0238h41.086v-17.314zm1.2656 1.2656h11.95v1.4893h1.2656v-1.4893h12.062v14.783h-12.062v-1.4898h-1.2656v1.4898h-11.95v-6.7582h3.9672c0.27124 0.83745 1.0629 1.45 1.9859 1.45 0.92297 0 1.7131-0.61259 1.9838-1.45h10.694v-1.2656h-10.693c-0.26998-0.83873-1.0605-1.4521-1.9844-1.4521-0.92389 0-1.716 0.61338-1.9864 1.4521h-3.9667zm26.543 0h12.013v14.783h-12.013zm-14.593 3.0086v1.9554h1.2656v-1.9554zm0 6.8099v1.956h1.2656v-1.956z" color="#000000"/>
</g>
</svg>
