<svg id="a" width="10mm" height="10mm" version="1.1" viewBox="0 0 53.71 53.71" xmlns="http://www.w3.org/2000/svg">
<g id="b" transform="translate(-114.59 -210.61)">
<path id="c" d="m147.27 218.19c-0.63521 0-1.1632 0.52656-1.1632 1.1622l5.2e-4 2.2593h-3.5853v3.0567h-15.339v-1.3849c0-1.4532-1.1895-2.6427-2.6427-2.6427h-5.6658v1.2656h5.6658c0.77428 0 1.3772 0.6029 1.3772 1.3772v5.0938c0 0.77427-0.6029 1.3767-1.3772 1.3767h-5.6658v1.2656h5.6658c1.4532 0 2.6427-1.189 2.6427-2.6422v-1.3849h15.339v3.0567h3.5853v19.295h-4.3584v2.3239h10.683v-2.3239h-4.0003v-19.295h3.5843v-3.0567h1.9332c0.63565 0 1.1622-0.52596 1.1622-1.1612 0-0.63522-0.52656-1.1632-1.1622-1.1632l-1.9332 5.2e-4v-3.0567h-3.5843v-2.2593c0-0.63564-0.52595-1.1622-1.1612-1.1622zm-3.4825 4.687h6.9644v5.9061h-6.9644zm14.897 8.9318-1.2656 5.2e-4v16.258l-4.4332-7.2548-1.0976 0.63097 6.1576 10.25 6.0379-10.252-1.0955-0.63304-4.3036 7.2481zm-39.87 23.656v1.2656h39.125v-1.2656z" color="#000000"/>
</g>
</svg>
