<svg id="a" width="10mm" height="10mm" version="1.1" viewBox="0 0 53.71 53.71" xmlns="http://www.w3.org/2000/svg">
<g id="b" transform="translate(-49.546 -115.97)">
<path id="c" d="m67.686 124.08-4.0452 7.0037 1.0961 0.63304 2.3378-4.0473v6.427h-6.5996v8.0941h-5.8048l4.0473-2.3378-0.63304-1.0961-7.0037 4.0452 7.0802 4.0876 0.63252-1.0955-4.0488-2.3378h5.7304v8.0936h6.5996v6.4265l-2.3378-4.0473-1.0961 0.63304 4.0452 7.0037 4.0876-7.0802-1.0955-0.63251-2.3378 4.0488v-6.3521h33.381v-17.453h-33.381v-6.3526l2.3378 4.0488 1.0955-0.63252zm-5.9454 11.283h5.334v5.5382c-0.60547 0.20202-1.0879 0.68433-1.2898 1.2898h-4.0442zm6.5996 0h5.5097v1.4211h1.2656v-1.4211h12.006v14.922h-12.006v-1.4226h-1.2656v1.4226h-5.5097v-5.5397c0.60499-0.2016 1.0867-0.68331 1.2883-1.2883h11.041l-4.0488 2.3378 0.63252 1.0955 7.0802-4.0876-7.0037-4.0452-0.63304 1.0961 4.0473 2.3378h-11.115c-0.20154-0.60552-0.6832-1.0878-1.2883-1.2898zm20.047 0h12.071v14.922h-12.071zm-14.537 3.0773v1.8066h1.2656v-1.8066zm-12.109 5.0162h4.0442c0.20198 0.60499 0.68448 1.0867 1.2898 1.2883v5.5397h-5.334zm12.109 1.943v1.8061h1.2656v-1.8061z" color="#000000" stroke-dashoffset="2.3906" style="paint-order:markers stroke fill"/>
</g>
</svg>
