<svg id="a" width="10mm" height="10mm" version="1.1" viewBox="0 0 53.71 53.71" xmlns="http://www.w3.org/2000/svg">
<g id="b" transform="translate(-81.207 -170)">
<path id="c" d="m85.864 182.78v28.151h31.463v-4.6819h12.934v-18.787h-12.934v-4.6819zm1.264 1.264h28.934v25.621h-28.934zm30.199 4.6834h11.668v16.256h-11.668zm-23.028 4.022-7.1365 4.1191 7.0879 4.0917 0.63096-1.0935-4.1196-2.3792h8.6646c0.27121 0.85641 1.076 1.4847 2.0174 1.4847s1.7473-0.62826 2.019-1.4847h7.274v-1.2656h-7.274c-0.2717-0.85641-1.0776-1.4842-2.019-1.4842s-1.7462 0.62774-2.0174 1.4842h-8.6098l4.1155-2.3771z" color="#000000" stroke-dashoffset="2.3906" style="paint-order:markers stroke fill"/>
</g>
</svg>
