<svg id="a" width="10mm" height="10mm" version="1.1" viewBox="0 0 53.71 53.71" xmlns="http://www.w3.org/2000/svg">
<g id="b" transform="translate(-81.552 -132.14)">
<path id="c" d="m86.088 144.92v28.15h25.113v-4.6814h13.261v-8.7612h6.2627v-1.2656h-6.2627v-8.7607h-13.261v-4.6814zm1.2635 1.2635h22.584v12.179h-6.3097l4.1155-2.3771-0.63303-1.0955-7.1365 4.1191 7.0879 4.0917 0.63097-1.0935-4.1196-2.3792h6.3645v12.177h-22.584zm23.849 4.6834h11.996v7.4952h-4.0959c-0.2717-0.85641-1.0776-1.4842-2.019-1.4842s-1.7462 0.62774-2.0174 1.4842h-3.8633zm0 8.7607h3.8633c0.27122 0.85641 1.076 1.4847 2.0174 1.4847s1.7473-0.62826 2.019-1.4847h4.0959v7.4952h-11.996z" color="#000000" stroke-dashoffset="2.3906" style="paint-order:markers stroke fill"/>
</g>
</svg>
