<svg id="a" width="10mm" height="10mm" version="1.1" viewBox="0 0 53.71 53.71" xmlns="http://www.w3.org/2000/svg">
<g id="b" transform="translate(-67.786 -99.103)">
<path id="c" d="m74.108 117.32v17.271h41.066v-17.271zm1.2635 1.2635h11.953v1.2475h1.2656v-1.2475h12.044v6.7391h-3.947c-0.27171-0.8564-1.0776-1.4842-2.019-1.4842-0.94145 0-1.7462 0.62774-2.0174 1.4842h-10.972l4.1155-2.3771-0.63303-1.0955-7.1365 4.1191 7.088 4.0917 0.63097-1.0935-4.1196-2.3792h11.027c0.27122 0.85641 1.076 1.4847 2.0174 1.4847 0.94144 0 1.7473-0.62825 2.019-1.4847h3.947v6.7376h-12.044v-1.2454h-1.2656v1.2454h-11.953zm26.528 0h12.009v14.742h-12.009v-6.7376h5.5165v-1.2656h-5.5165zm-14.575 2.8179v2.1503h1.2656v-2.1503zm0 6.9582v2.1503h1.2656v-2.1503z" color="#000000" stroke-dashoffset="2.3906" style="paint-order:markers stroke fill"/>
</g>
</svg>
