<svg id="a" width="10mm" height="10mm" version="1.1" viewBox="0 0 53.71 53.71" xmlns="http://www.w3.org/2000/svg">
<g id="b" transform="translate(-48.513 -120.78)">
<path id="c" d="m75.382 131.36-4.1191 7.1365 1.0955 0.63304 2.3771-4.1155v6.1025h-19.9v17.271h19.9v5.5273h1.2656v-5.5273h19.9v-17.271h-19.9v-6.1572l2.3792 4.1196 1.0935-0.63097zm-19.283 11.02h11.998v1.2475h1.2656v-1.2475h5.3733v5.6141c-0.85641 0.27122-1.4842 1.076-1.4842 2.0174s0.62773 1.7473 1.4842 2.019v5.0917h-5.3733v-1.2454h-1.2656v1.2454h-11.998zm19.902 0h18.635v14.742h-18.635v-5.0917c0.85639-0.27171 1.4847-1.0776 1.4847-2.019s-0.62826-1.7462-1.4847-2.0174zm-7.9044 2.8179v2.1503h1.2656v-2.1503zm0 3.4789v2.1503h1.2656v-2.1503zm0 3.4794v2.1502h1.2656v-2.1502z" color="#000000" stroke-dashoffset="2.3906" style="paint-order:markers stroke fill"/>
</g>
</svg>
