<svg id="a" width="10mm" height="10mm" version="1.1" viewBox="0 0 53.71 53.71" xmlns="http://www.w3.org/2000/svg">
<g id="b" transform="translate(-106.1 -109.01)">
<path id="c" d="m132.95 120.87c-2.9617 0-5.613 1.3336-7.3975 3.4277h-17.937v1.2635h17.03c-0.89379 1.47-1.4185 3.1885-1.4185 5.0317 0 4.4648 3.0261 8.2256 7.1329 9.3632v4.9733h-3.2561l5.8477 5.9335 5.8456-5.9335h-3.2556v-4.9738c4.1064-1.1382 7.1329-4.8985 7.1329-9.3627 0-1.8431-0.52454-3.5618-1.4185-5.0317h17.029v-1.2635h-17.937c-1.7849-2.0941-4.4368-3.4277-7.3985-3.4277zm0 1.264c2.1729 0 4.1455 0.82193 5.642 2.1637h-11.284c1.4966-1.3418 3.4691-2.1637 5.642-2.1637zm-6.7929 3.4272h13.586c1.0425 1.4063 1.666 3.1428 1.666 5.0317 0 3.7742-2.4606 6.9599-5.8674 8.0522v-4.949h-5.1816v4.9496c-3.4075-1.0919-5.8689-4.2779-5.8689-8.0527 0-1.889 0.62359-3.6254 1.666-5.0317zm-14.123 0.091c-1.5312 0-2.7874 1.2556-2.7874 2.7869 0 1.5312 1.2562 2.7854 2.7874 2.7854 1.5313 0 2.7848-1.2541 2.7848-2.7854 0-1.5313-1.2536-2.7869-2.7848-2.7869zm6.9138 0c-1.5312 0-2.7869 1.2556-2.7869 2.7869 0 1.5312 1.2557 2.7854 2.7869 2.7854 1.5313 0 2.7854-1.2541 2.7854-2.7854 0-1.5313-1.2541-2.7869-2.7854-2.7869zm28.008 0c-1.5313 0-2.7874 1.2556-2.7874 2.7869 0 1.5312 1.2562 2.7854 2.7874 2.7854s2.7848-1.2541 2.7848-2.7854c0-1.5313-1.2536-2.7869-2.7848-2.7869zm6.9138 0c-1.5313 0-2.7869 1.2556-2.7869 2.7869 0 1.5312 1.2556 2.7854 2.7869 2.7854 1.5312 0 2.7854-1.2541 2.7854-2.7854 0-1.5313-1.2541-2.7869-2.7854-2.7869zm-41.835 1.2656c0.8476 0 1.5193 0.67376 1.5193 1.5214s-0.67169 1.5198-1.5193 1.5198-1.5214-0.67221-1.5214-1.5198c0-0.8476 0.67375-1.5214 1.5214-1.5214zm6.9138 0c0.8476 0 1.5198 0.67376 1.5198 1.5214s-0.67221 1.5198-1.5198 1.5198-1.5214-0.67221-1.5214-1.5198c0-0.8476 0.67375-1.5214 1.5214-1.5214zm28.008 0c0.8476 0 1.5193 0.67376 1.5193 1.5214s-0.67168 1.5198-1.5193 1.5198-1.5214-0.67221-1.5214-1.5198c0-0.8476 0.67376-1.5214 1.5214-1.5214zm6.9138 0c0.8476 0 1.5198 0.67376 1.5198 1.5214s-0.6722 1.5198-1.5198 1.5198-1.5214-0.67221-1.5214-1.5198c0-0.8476 0.67376-1.5214 1.5214-1.5214zm-22.244 8.044h2.6526v3.976c-0.43366 0.0683-0.87493 0.1142-1.3281 0.1142-0.45189 0-0.89195-0.0458-1.3245-0.11368zm2.6526 5.254v5.9795h1.5369l-2.8308 2.8308-2.8314-2.8308h1.4728v-5.979c0.4343 0.0595 0.87404 0.10128 1.3245 0.10128 0.45158 0 0.89271-0.042 1.3281-0.1018z" color="#000000"/>
</g>
</svg>
