<svg id="a" width="10mm" height="10mm" version="1.1" viewBox="0 0 53.71 53.71" xmlns="http://www.w3.org/2000/svg">
<g id="b" transform="translate(-44.039 -56.429)">
<path id="c" d="m68.352 62.472c-4.0264 0-7.6304 2.4124-10.187 6.1877-2.557 3.7753-4.1129 8.9369-4.1129 14.625 0 5.6881 1.5559 10.848 4.1129 14.623 2.4798 3.6613 5.9442 6.0405 9.8237 6.181v6e-3h0.33486c0.0097 3e-5 0.01926 5.2e-4 0.02894 5.2e-4 0.0097 0 0.01927-4.9e-4 0.02894-5.2e-4h5.024v5.2e-4c0.0081 2e-5 0.01617-5.2e-4 0.02429-5.2e-4h0.20154v-4e-3c5.1322-0.10159 9.7485-4.1555 12.224-10.478 2.5114-6.4152 2.5116-14.253-2e-3 -20.666-2.3888-6.095-6.7696-10.082-11.681-10.447v-0.0279h-5.6426v4e-3c-0.05876-1e-3 -0.11728-4e-3 -0.17622-4e-3zm0 1.2656c3.5218 0 6.7515 2.1047 9.141 5.6327 2.3895 3.528 3.8943 8.4579 3.8943 13.914 0 5.4565-1.5048 10.386-3.8943 13.914-2.3895 3.528-5.6193 5.6307-9.141 5.6307-3.5218 0-6.751-2.1027-9.1405-5.6307-2.3895-3.528-3.8943-8.4573-3.8943-13.914 0-5.4565 1.5048-10.386 3.8943-13.914 2.3895-3.528 5.6188-5.6327 9.1405-5.6327zm4.9294 0h0.11989c4.5574-0.0165 8.8885 3.5856 11.273 9.6702 2.3847 6.0846 2.3848 13.658 2e-3 19.744-2.3827 6.0865-6.7101 9.6906-11.268 9.6774v2e-3h-0.13074c2.0155-1.0725 3.8076-2.7776 5.2612-4.9237 2.557-3.7753 4.1114-8.9348 4.1114-14.623 0-5.688-1.5543-10.85-4.1114-14.625-1.4528-2.1451-3.2438-3.8497-5.2581-4.9222zm-5.2751 6.6213c-2.6604 0-5.0381 1.5187-6.7128 3.8669-1.6747 2.3483-2.6856 5.5426-2.6856 9.0589 0 3.5163 1.0109 6.7101 2.6856 9.0584 1.6747 2.3483 4.0524 3.8654 6.7128 3.8654 2.6604 0 5.0401-1.5171 6.7148-3.8654 1.6747-2.3483 2.6841-5.5421 2.6841-9.0584 0-3.5163-1.0094-6.7106-2.6841-9.0589-1.6747-2.3483-4.0544-3.8669-6.7148-3.8669zm-0.42168 1.2811c-3.278 2.1562-5.3347 6.7319-5.2948 11.785 0.03919 4.9564 2.0908 9.3954 5.2974 11.504-2.018-0.14747-3.8627-1.3554-5.2643-3.3207-1.4981-2.1006-2.4489-5.0515-2.4489-8.324 0-3.2725 0.95086-6.2239 2.4489-8.3246 1.401-1.9645 3.2447-3.1719 5.2617-3.3202zm2.2681 0.28835c1.4555 0.48683 2.7742 1.5409 3.8375 3.0319 1.4981 2.1006 2.451 5.052 2.451 8.3246 0 3.2725-0.95293 6.2234-2.451 8.324-1.0633 1.4909-2.382 2.545-3.8375 3.0319-3.5391-1.1883-6.2563-5.7741-6.2994-11.225-0.04379-5.5386 2.6906-10.277 6.2994-11.487zm1.2826 6.8786c-0.97469 0-1.8176 0.58269-2.3766 1.402-0.55901 0.8193-0.87695 1.8962-0.87695 3.0742 0 1.178 0.31794 2.2549 0.87695 3.0742 0.55901 0.8193 1.4019 1.4025 2.3766 1.4025 0.9747 0 1.8181-0.5832 2.3771-1.4025 0.55901-0.81929 0.87902-1.8962 0.87902-3.0742 0-1.178-0.32001-2.2549-0.87902-3.0742-0.55901-0.81929-1.4024-1.402-2.3771-1.402zm0 1.2656c0.47371 0 0.94205 0.27772 1.3322 0.84956 0.39017 0.57185 0.65836 1.4163 0.65836 2.3611 0 0.94479-0.26819 1.7898-0.65836 2.3616-0.39017 0.57184-0.85851 0.84956-1.3322 0.84956s-0.94153-0.27772-1.3317-0.84956c-0.39017-0.57184-0.65836-1.4168-0.65836-2.3616 0-0.94478 0.26819-1.7892 0.65836-2.3611 0.39017-0.57184 0.858-0.84956 1.3317-0.84956z" color="#000000" stroke-dashoffset="2.3906" style="paint-order:markers stroke fill"/>
</g>
</svg>
