<svg id="a" width="10mm" height="10mm" version="1.1" viewBox="0 0 53.71 53.71" xmlns="http://www.w3.org/2000/svg">
<g id="b" transform="translate(-44.185 -16.669)">
<path id="c" d="m58.794 36.52c-1.4828 0-2.8894 0.75976-3.9548 1.7518-0.25242 0.23505-0.49789 0.47605-0.70177 0.74207-0.47133 0.7682-1.1595 1.3968-1.8485 1.3968h-7.3815v2.6872h7.4316c0.7579-0.0321 1.1593 0.42974 1.6314 0.93328 0.2753 0.30827 0.52859 0.66428 0.84336 0.98082 1.0467 1.0526 2.4417 1.9766 3.9801 1.9766h20.951c2.4102 0 4.4356-1.6429 5.0307-3.867h5.6414l1.7524 7.4063h5.0045c-0.99423-3.5319-2.0261-7.0559-3.0443-10.582-0.25601-0.88659-1.0458-1.4931-1.9213-1.5317-0.20205-9e-3 -0.40873 0.0126-0.61443 0.0677-0.8875 0.2378-1.4677 1.0269-1.5188 1.9048h-5.2994c-0.59515-2.224-2.6206-3.867-5.0307-3.867zm0 1.2656h20.951c2.1974 0 3.9476 1.7502 3.9476 3.9476v0.0429c0 2.1974-1.7502 3.947-3.9476 3.947h-20.951c-0.99842 0-2.1842-0.69919-3.0835-1.6035-0.44964-0.45217-0.8268-0.94602-1.0806-1.3829s-0.36484-0.83584-0.36484-0.96066v-0.0429c0-0.64924 0.54935-1.71 1.4356-2.5352 0.88623-0.82526 2.0617-1.4123 3.0934-1.4123z" color="#000000"/>
</g>
</svg>
