<svg id="a" width="10mm" height="10mm" version="1.1" viewBox="0 0 53.71 53.71" xmlns="http://www.w3.org/2000/svg">
<g id="b" transform="translate(-65.352 -73.29)">
<path id="c" d="m77.6 82.748v34.793h2.6639v-22.735h23.887v22.735h2.6639v-34.793zm2.6639 2.666h23.887v6.7267h-23.887zm11.943 23.078c-2.0957 0-3.8241 1.7268-3.8241 3.8225 0 2.0957 1.7284 3.8241 3.8241 3.8241s3.8225-1.7284 3.8225-3.8241c0-2.0957-1.7268-3.8225-3.8225-3.8225zm0 2.6644c0.65541 0 1.1586 0.50266 1.1586 1.1581 0 0.6554-0.50318 1.1581-1.1586 1.1581s-1.1581-0.50267-1.1581-1.1581c0-0.65541 0.50266-1.1581 1.1581-1.1581z" color="#000000"/>
</g>
</svg>
