<svg id="a" width="10mm" height="10mm" version="1.1" viewBox="0 0 53.71 53.71" xmlns="http://www.w3.org/2000/svg">
<g id="b" transform="translate(-84.931 -65.352)">
<path id="c" d="m111.79 68.834c-11.489 0-20.83 9.339-20.83 20.828 0 8.6345 5.2765 16.053 12.775 19.208l-4e-3 3e-3 11.619 6.7086 1.1834-2.0485-5.2942-3.0561c0.18356 5e-3 0.36615 0.0139 0.55087 0.0139 11.489 0 20.828-9.339 20.828-20.828 0-11.489-9.339-20.828-20.828-20.828zm0 2.3632c10.211 0 18.463 8.254 18.463 18.465 0 10.211-8.252 18.463-18.463 18.463-0.63204 0-1.2567-0.0318-1.8722-0.0935l6.7484-3.8959-1.1834-2.0484-9.077 5.2405c-7.5774-2.2999-13.081-9.3285-13.081-17.666 0-10.211 8.254-18.465 18.465-18.465zm-7.7287 4.3879-0.89451 0.89452 2.9807 2.9807-2.9161 2.9176 0.89452 0.89452 3.8106-3.8122zm15.453 0-3.8752 3.8752 3.8127 3.8122 0.89452-0.89452-2.9177-2.9176 2.9802-2.9807zm-10.616 1.2676 2.1198 3.0438-2.3761 3.4112h1.5436l1.6035-2.3032 1.6046 2.3032h1.5405l-2.3745-3.4101 2.1203-3.0448h-1.542l-1.3493 1.9374-1.3488-1.9374zm-11.629 8.6114v2.666h29.039v-2.666zm15.871 5.0524v1.1085h1.2051v-1.1085zm0.0682 2.1714v6.3495h1.0687v-6.3495zm-8.2083 0.092c-0.37517 0-0.7295 0.0777-1.063 0.23306-0.32969 0.15537-0.66128 0.37138-0.99477 0.64802v-0.70487h-1.0687v6.0813h1.0687v-4.4726c0.2918-0.22359 0.5836-0.40738 0.87539-0.55139 0.29559-0.144 0.58929-0.216 0.88109-0.216 0.30696 0 0.54191 0.0417 0.70486 0.12505 0.16296 0.0796 0.28801 0.20085 0.37518 0.3638 0.0796 0.15158 0.13074 0.35433 0.15347 0.60824 0.0265 0.25011 0.0398 0.51538 0.0398 0.79581v3.3471h1.0687v-3.7962c0-0.11367-4e-3 -0.22737-0.0114-0.34106-8e-3 -0.11747-0.0171-0.2198-0.0284-0.30696 0.29938-0.23116 0.59876-0.42064 0.89814-0.56844 0.29938-0.15158 0.59876-0.22737 0.89814-0.22737 0.30695 0 0.54191 0.0417 0.70486 0.12505 0.16296 0.0834 0.28801 0.20653 0.37517 0.36949 0.0796 0.15158 0.13074 0.35433 0.15348 0.60823 0.0265 0.25391 0.0398 0.51728 0.0398 0.79013v3.3471h1.0687v-3.853c0-0.75793-0.16674-1.3472-0.50023-1.7678-0.32969-0.42444-0.84318-0.63665-1.5405-0.63665-0.40549 0-0.78634 0.0815-1.1426 0.24443-0.35622 0.15916-0.75034 0.42064-1.1824 0.78444-0.1478-0.32212-0.37328-0.57412-0.67645-0.75602-0.29938-0.18191-0.66507-0.27285-1.0971-0.27285zm14.592 0.0222c-0.37517 0-0.74086 0.0777-1.0971 0.23306-0.35622 0.15537-0.70107 0.37138-1.0346 0.64802v-0.70487h-1.0687v6.0591h1.0687v-4.4504c0.2918-0.22359 0.59686-0.40738 0.91519-0.55139 0.31833-0.144 0.62339-0.216 0.91519-0.216 0.28422 0 0.51539 0.0398 0.6935 0.11937 0.17811 0.0758 0.31454 0.19327 0.40928 0.35243 0.0909 0.14401 0.15348 0.34485 0.18758 0.60255 0.0341 0.2539 0.0512 0.52675 0.0512 0.81855v3.3249h1.0687v-3.8308c0-0.77687-0.18-1.3718-0.54002-1.7849-0.36001-0.41308-0.88297-0.6196-1.5689-0.6196z" color="#000000"/>
</g>
</svg>
