<svg id="a" width="10mm" height="10mm" version="1.1" viewBox="0 0 53.71 53.71" xmlns="http://www.w3.org/2000/svg">
<g id="b" transform="translate(-49.212 -98.954)">
<path id="c" d="m76.067 108.48c-5.959 0-11.549 0.77473-16.414 2.1482-1.1672 0.32948-2.2963 0.69025-3.3745 1.0868-0.41577 1.0692-0.78195 2.1768-1.1017 3.3156 5.3e-4 -2.4e-4 0.0011-2.9e-4 0.0021-5.2e-4 -0.94197 3.353-1.4593 6.9832-1.4593 10.778 0 3.7928 0.51658 7.4217 1.4578 10.774 6e-3 3e-3 0.01334 5e-3 0.01964 8e-3 -6e-3 -3e-3 -0.01292-2e-3 -0.01912-5e-3 0.31965 1.1378 0.68578 2.2451 1.1012 3.3135 1.0782 0.39651 2.2073 0.75676 3.3745 1.0862 4.8655 1.3735 10.455 2.1487 16.415 2.1487 5.9591 0 11.549-0.77521 16.414-2.1487 1.1671-0.32947 2.2963-0.68972 3.3745-1.0862 0.41545-1.0683 0.78159-2.1757 1.1012-3.3135-4e-3 2e-3 -8e-3 1e-3 -0.0119 3e-3 4e-3 -2e-3 8e-3 -3e-3 0.0114-5e-3 0.9414-3.3521 1.4588-6.9813 1.4588-10.775 0-3.794-0.51758-7.4239-1.4593-10.777 6.8e-4 2.9e-4 1e-3 2.3e-4 2e-3 5.2e-4 -0.31984-1.1389-0.68642-2.2468-1.1023-3.3161-1.0782-0.39651-2.2073-0.75727-3.3745-1.0868-4.8655-1.3735-10.455-2.1482-16.414-2.1482zm0 2.666c6.5859 0 12.698 0.9984 17.716 2.6701 1.2546 3.6196 1.9663 7.6876 1.9663 11.991 0 4.3026-0.71166 8.3698-1.9658 11.989 3e-3 -9.5e-4 5e-3 -2e-3 8e-3 -3e-3 -3e-3 9.5e-4 -6e-3 4e-3 -8e-3 5e-3 -5.0181 1.6718-11.131 2.6706-17.717 2.6706-6.5861 0-12.699-0.99882-17.717-2.6706-5e-3 -2e-3 -9e-3 -5e-3 -0.01344-7e-3 4e-3 1e-3 0.0071 3e-3 0.01085 4e-3 -1.2538-3.6188-1.9653-7.6854-1.9653-11.987 0-4.3032 0.71184-8.371 1.9663-11.99 3.4e-4 -1.1e-4 7.98e-4 -4e-4 1e-3 -5.1e-4 5.0182-1.672 11.131-2.6706 17.717-2.6706zm9.5669 8.9137c-1.5694 0-2.7277 0.32424-3.4747 0.97306-0.747 0.64883-1.1204 1.4499-1.1204 2.4024 0 1.0561 0.43153 1.8807 1.295 2.4743 0.62363 0.42795 2.1007 0.90084 4.4307 1.4185 0.50028 0.11734 0.82243 0.24487 0.96635 0.38292 0.13709 0.14495 0.20567 0.32793 0.20567 0.5488 0 0.32441-0.12675 0.58343-0.38033 0.7767-0.37691 0.2761-0.93921 0.41393-1.6862 0.41393-0.67846 0-1.2059-0.1447-1.5828-0.4346-0.37693-0.2968-0.62699-0.7285-0.75033-1.2945l-2.9988 0.0305 0.0997 0.41497c0.26725 1.0423 0.83252 1.8668 1.696 2.4743 0.87034 0.60741 2.0491 0.91106 3.5362 0.91106 1.6379 0 2.8753-0.36201 3.7114-1.0868s1.2537-1.5911 1.2537-2.5988c0-0.92492-0.30126-1.6465-0.90435-2.1642-0.60993-0.51078-1.6857-0.94196-3.2277-1.294-1.5351-0.35202-2.433-0.62477-2.6934-0.81804-0.19189-0.14495-0.28779-0.32106-0.28779-0.52813 0-0.24159 0.10937-0.4383 0.32867-0.59015 0.32896-0.21397 0.87383-0.32091 1.6345-0.32091 0.60308 0 1.0659 0.1138 1.388 0.34158 0.32895 0.22778 0.55168 0.55597 0.66818 0.98392l2.9776 0.0816-0.25373-0.58911c-0.27414-0.95943-0.77425-1.6845-1.5007-2.1745-0.72645-0.49007-1.8366-0.73484-3.3306-0.73484zm-17.99 0.24856c-1.3764 0-2.5631 0.58326-3.5595 1.7498v-1.5012h-2.7848v10.995h3.0215v-4.8209c0-1.0561 0.07898-1.812 0.23668-2.2676 0.16488-0.45556 0.4339-0.80435 0.80667-1.0459 0.37276-0.24158 0.79186-0.36225 1.2578-0.36225 0.38711 0 0.69194 0.076 0.91416 0.22789 0.2294 0.15185 0.39786 0.38289 0.50539 0.6935 0.10749 0.31061 0.16123 1.0008 0.16123 2.0707v5.5046h3.0215v-4.7589c0-1.0354 0.0821-1.7913 0.24702-2.2676 0.16488-0.48316 0.4339-0.84912 0.80667-1.0976 0.37274-0.24849 0.77077-0.37259 1.1937-0.37259 0.58065 0 1.0108 0.20701 1.2904 0.62115 0.20789 0.31751 0.31161 1.0214 0.31161 2.112v5.7635h3.0215v-7.0301c0-1.0492-0.10373-1.8085-0.31161-2.2779-0.28675-0.63502-0.72055-1.1143-1.3012-1.4387-0.58065-0.33132-1.2904-0.49713-2.1291-0.49713-0.65951 0-1.2797 0.1447-1.8604 0.4346s-1.1219 0.99666-1.6237 1.5834c-0.34408-0.5867-0.78476-1.2935-1.3224-1.5834-0.53765-0.2899-1.172-0.4346-1.9032-0.4346z" color="#000000"/>
</g>
</svg>
