<svg id="a" width="10mm" height="10mm" version="1.1" viewBox="0 0 53.71 53.71" xmlns="http://www.w3.org/2000/svg">
<g id="b" transform="translate(-97.631 -74.613)">
<path id="c" d="m124.49 84.142c-5.959 0-11.549 0.77473-16.414 2.1482-1.1672 0.32948-2.2963 0.69025-3.3745 1.0868-0.41577 1.0692-0.78196 2.1768-1.1017 3.3156 5.3e-4 -2.4e-4 1e-3 -2.88e-4 2e-3 -5.17e-4 -0.94197 3.353-1.4594 6.9832-1.4594 10.778 0 3.7928 0.51659 7.4217 1.4578 10.774 6e-3 3e-3 0.0133 5e-3 0.0196 8e-3 -6e-3 -3e-3 -0.0129-2e-3 -0.0191-5e-3 0.31964 1.1378 0.68577 2.2451 1.1012 3.3135 1.0782 0.39651 2.2073 0.75676 3.3745 1.0862 4.8655 1.3735 10.455 2.1487 16.414 2.1487 5.9591 0 11.549-0.77521 16.415-2.1487 1.1671-0.32947 2.2963-0.68973 3.3745-1.0862 0.41545-1.0683 0.78158-2.1757 1.1012-3.3135-4e-3 2e-3 -8e-3 1e-3 -0.0119 3e-3 4e-3 -2e-3 8e-3 -3e-3 0.0114-5e-3 0.94139-3.3521 1.4588-6.9814 1.4588-10.775 0-3.794-0.51759-7.4239-1.4593-10.777 6.7e-4 2.9e-4 1e-3 2.27e-4 2e-3 5.17e-4 -0.31983-1.1389-0.68642-2.2467-1.1023-3.3161-1.0782-0.39651-2.2073-0.75728-3.3745-1.0868-4.8655-1.3735-10.455-2.1482-16.415-2.1482zm0 2.666c6.5859 0 12.698 0.99842 17.716 2.6701 1.2546 3.6196 1.9663 7.6876 1.9663 11.991 0 4.3026-0.71167 8.3698-1.9658 11.989 3e-3 -9.5e-4 5e-3 -2e-3 8e-3 -3e-3 -3e-3 9.5e-4 -6e-3 4e-3 -8e-3 5e-3 -5.0181 1.6718-11.131 2.6706-17.717 2.6706-6.586 0-12.699-0.99882-17.717-2.6706-5e-3 -2e-3 -9e-3 -5e-3 -0.0134-7e-3 4e-3 1e-3 7e-3 3e-3 0.0108 4e-3 -1.2538-3.6187-1.9652-7.6854-1.9652-11.987 0-4.3032 0.71184-8.371 1.9663-11.99 3.4e-4 -1.1e-4 8.6e-4 -4.06e-4 1e-3 -5.17e-4 5.0182-1.6719 11.131-2.6706 17.717-2.6706zm-13.772 4.9067v13.974h2.6644v-6.151h4.3791v11.871l9.6061-5.5325v-6.3381h4.3791v12.246l10.221-5.9066h-2.7197l-4.8369 2.7926v-11.798h-7.0435v-5.1573h-2.6644v14.111l-4.2773 2.4691v-11.423h-7.0435v-5.1573z" color="#000000"/>
</g>
</svg>
