<svg id="a" width="10mm" height="10mm" version="1.1" viewBox="0 0 53.71 53.71" xmlns="http://www.w3.org/2000/svg">
<g id="b" transform="translate(-40.217 -72.231)">
<path id="c" d="m67.071 81.76c-5.959 0-11.549 0.77473-16.415 2.1482-1.1672 0.32948-2.2963 0.69024-3.3745 1.0868-0.41577 1.0692-0.78195 2.1768-1.1017 3.3156 5.3e-4 -2.4e-4 0.0011-2.9e-4 0.0021-5.2e-4 -0.94196 3.353-1.4593 6.9832-1.4593 10.778 0 3.7928 0.51659 7.4217 1.4578 10.774 6e-3 3e-3 0.01334 5e-3 0.01964 8e-3 -6e-3 -3e-3 -0.01292-2e-3 -0.01912-5e-3 0.31964 1.1378 0.68578 2.2451 1.1012 3.3135 1.0782 0.39651 2.2073 0.75676 3.3745 1.0862 4.8655 1.3735 10.455 2.1487 16.415 2.1487 5.9591 0 11.549-0.77521 16.415-2.1487 1.1671-0.32947 2.2963-0.68973 3.3745-1.0862 0.41545-1.0683 0.78158-2.1757 1.1012-3.3135-4e-3 2e-3 -8e-3 1e-3 -0.0119 3e-3 4e-3 -2e-3 8e-3 -3e-3 0.0114-5e-3 0.94139-3.3521 1.4588-6.9814 1.4588-10.775 0-3.794-0.51759-7.4239-1.4593-10.777 6.7e-4 2.9e-4 1e-3 2.2e-4 2e-3 5.1e-4 -0.31983-1.1389-0.68642-2.2467-1.1023-3.3161-1.0782-0.39651-2.2073-0.75728-3.3745-1.0868-4.8655-1.3735-10.455-2.1482-16.415-2.1482zm0 2.666c6.5859 0 12.698 0.99843 17.716 2.6701 1.2546 3.6196 1.9663 7.6876 1.9663 11.991 0 4.3026-0.71167 8.3698-1.9658 11.989 3e-3 -9.5e-4 5e-3 -2e-3 8e-3 -3e-3 -3e-3 9.5e-4 -6e-3 4e-3 -8e-3 5e-3 -5.0181 1.6718-11.131 2.6706-17.717 2.6706-6.586 0-12.699-0.99882-17.717-2.6706-5e-3 -2e-3 -9e-3 -5e-3 -0.01344-7e-3 4e-3 1e-3 0.0071 3e-3 0.01085 4e-3 -1.2538-3.6187-1.9653-7.6854-1.9653-11.987 0-4.3032 0.71184-8.371 1.9663-11.99 3.41e-4 -1.1e-4 8.99e-4 -4.1e-4 1e-3 -5.2e-4 5.0182-1.672 11.131-2.6706 17.717-2.6706zm-6.1087 3.96v14.489h2.6644v-2.7828h4.3791v10.763l0.0041-4e-3v3e-3l9.201-5.3113v-8.9979l-6.5407 3.776v-6.7769h-7.0435v-5.1578z" color="#000000"/>
</g>
</svg>
