<svg id="a" width="10mm" height="10mm" version="1.1" viewBox="0 0 53.71 53.71" xmlns="http://www.w3.org/2000/svg">
<g id="b" transform="translate(-19.579 -145.79)">
<path id="c" d="m46.435 151.74c-11.528 0-20.902 9.3724-20.902 20.9 0 11.528 9.3745 20.901 20.902 20.901 11.528 0 20.901-9.373 20.901-20.901 0-11.528-9.373-20.9-20.901-20.9zm0 2.6639c10.087 0 18.237 8.1488 18.237 18.236 0 10.087-8.1493 18.237-18.237 18.237-10.087 0-18.236-8.1493-18.236-18.237 0-10.087 8.1488-18.236 18.236-18.236zm-9.3503 10.446c-1.1521 0-2.5482 0.17481-3.3662 0.524-0.81123 0.34919-1.4349 0.85915-1.8712 1.5301-0.42947 0.66414-0.6444 1.3798-0.6444 2.1466 0 1.1914 0.46049 2.2013 1.3808 3.0298 0.65444 0.58882 2.2038 1.0848 3.8261 1.4893 1.2613 0.31445 2.0686 0.53408 2.4231 0.65733 0.51809 0.18486 0.87966 0.40399 1.0842 0.65732 0.21132 0.24648 0.31678 0.54727 0.31678 0.9033 0 0.5546-0.24858 1.0412-0.74621 1.4588-0.49083 0.41081-1.224 0.61598-2.1988 0.61598-0.9203 0-1.9056-0.23256-2.451-0.69815-0.53855-0.46558-0.8966-1.1952-1.0738-2.188l-2.945 0.28784c0.1977 1.6843 0.80482 2.9682 1.8206 3.8514 1.0157 0.87639 2.7237 1.3146 4.6188 1.3146 1.3021 0 2.3892-0.18178 3.2618-0.54467 0.87259-0.36972 1.5475-0.93098 2.0247-1.6841 0.47719-0.75315 0.71572-1.5609 0.71572-2.4236 0-0.95171-0.20085-1.7495-0.60306-2.3931-0.39539-0.65045-0.94778-1.1604-1.6568-1.5301-0.70217-0.37658-1.7893-0.73963-3.2618-1.0888-1.4725-0.34919-2.8103-0.68486-3.192-1.0067-0.29995-0.25333-0.4501-0.5576-0.4501-0.91364 0-0.39027 0.16019-0.70203 0.48059-0.93482 0.49764-0.36289 1.5969-0.54416 2.4763-0.54416 0.85214 0 1.8056 0.17081 2.2283 0.51315 0.42947 0.33549 0.70866 0.89029 0.83819 1.664l3.0272-0.13332c-0.0477-1.3831-0.54889-2.4892-1.5033-3.3176-0.94757-0.82847-2.6779-1.2428-4.5594-1.2428zm8.2708 0.25683v15.056h2.8117v-11.852l3.4122 11.852h2.9146l2.9755-11.852v11.852h2.8122v-15.056h-4.5403l-2.6892 10.27-3.1667-10.27z" stroke-width="2.665"/>
</g>
</svg>
