<svg id="a" width="10mm" height="10mm" version="1.1" viewBox="0 0 53.71 53.71" xmlns="http://www.w3.org/2000/svg">
<g id="b" transform="translate(-78.317 -48.154)">
<path id="c" d="m124.43 56.513c-3.2269 3.6565-5.3706 8.3306-6.2177 13.378-0.15503 0.92376-0.26543 1.8602-0.33228 2.805 1.5713 0.76275 4.7015 2.3136 4.7015 2.3136s-3.1325 1.546-4.7015 2.3136c0.0669 0.94483 0.17725 1.8812 0.33228 2.805 0.84709 5.0474 2.9908 9.7215 6.2177 13.378l1.9978-1.7637c-3.0298-3.4332-5.0299-7.9556-5.704-12.843l5.2297-2.5585v-2.6624l-5.2297-2.5585c0.67416-4.8876 2.6742-9.4099 5.704-12.843zm-40.511 9.8149v17.363h16.174l6.1133-6.1128v-5.1372l-6.1133-6.1133zm2.666 2.6655h10.946v12.032h-10.946zm22.033 0.77153v2.0578h6.3536v-2.0578zm-8.4233 0.43408 3.3455 3.346v2.929l-3.3455 3.346zm8.4233 3.7817v2.0583h6.3536v-2.0583zm0 4.2163v2.0578h6.3536v-2.0578z" color="#000000"/>
</g>
</svg>
