<svg id="a" width="10mm" height="10mm" version="1.1" viewBox="0 0 53.71 53.71" xmlns="http://www.w3.org/2000/svg">
<g id="b" transform="translate(-38.1 -78.317)">
<path id="c" d="m72.04 87.612v2.666h6.7965l-9.5865 5.5351c-3.174-2.4868-6.844-4.4174-10.888-5.611l-0.75344 2.5544c3.3566 0.9907 6.4293 2.5327 9.14 4.501l-15.14 8.7416 10.428 6.0213-18.553 10.711h42.944v-2.666h-4.7816c-0.31305-8.7007-4.1232-16.691-10.248-22.414l7.2316-4.1749-2.419 4.1904 2.3084 1.3322 6.5722-11.387zm8.339 2.666h0.0961l-0.0481 0.0832zm-11.396 8.7669c5.9514 5.2621 9.6755 12.791 9.9978 21.02h-25.553l13.938-8.0471-10.428-6.0193z" color="#000000"/>
</g>
</svg>
