<svg id="a" width="10mm" height="10mm" version="1.1" viewBox="0 0 53.71 53.71" xmlns="http://www.w3.org/2000/svg">
<g id="b" transform="translate(-29.633 -77.787)">
<path id="c" d="m33.837 95.903c-1.478 0-2.6877 1.2092-2.6877 2.6872v12.106c0 1.478 1.2097 2.6872 2.6877 2.6872h29.924v-1.3622l-12.083-6.9763c0.02872-0.13614 0.04393-0.27701 0.04393-0.42116 0-0.14346-0.01547-0.28357-0.04393-0.4191l12.083-6.9768v-1.3245zm34.525 4e-3v16.21h-2.5389v1.2656h3.8044v-16.212h8.3948v16.212h3.8044v-1.2656h-2.5409v-16.21zm-34.525 1.2591h27.498l-10.286 5.9392c-0.36783-0.33756-0.8565-0.54467-1.3901-0.54467-0.911 0-1.6919 0.60404-1.9616 1.4299h-1.6128v-1.4454c0-0.73546-0.61226-1.3457-1.3477-1.3457h-9.3379c-0.73546 0-1.3477 0.6102-1.3477 1.3457v1.4454h-1.6387v-5.4007c0-0.79904 0.62517-1.4237 1.4242-1.4237zm1.5622 5.2968h9.3379c0.05654 0 0.08217 0.0262 0.08217 0.0827v4.1558c0 0.0565-0.02564 0.0822-0.08217 0.0822h-9.3379c-0.05654 0-0.08165-0.0257-0.08165-0.0822v-4.1558c0-0.0565 0.02512-0.0827 0.08165-0.0827zm14.26 1.3632c0.44772 0 0.79685 0.34913 0.79685 0.79685s-0.34913 0.79685-0.79685 0.79685-0.79685-0.34913-0.79685-0.79685 0.34913-0.79685 0.79685-0.79685zm-17.246 1.4299h1.6387v1.4454c0 0.73546 0.61226 1.3457 1.3477 1.3457h9.3379c0.73546 0 1.3477-0.6102 1.3477-1.3457v-1.4454h1.6128c0.26989 0.82562 1.0508 1.4294 1.9616 1.4294 0.53294 0 1.0209-0.2068 1.3885-0.54363l10.354 5.9774h-27.565c-0.79903 0-1.4242-0.62466-1.4242-1.4237z" color="#000000"/>
</g>
</svg>
