<svg id="a" width="10mm" height="10mm" version="1.1" viewBox="0 0 53.71 53.71" xmlns="http://www.w3.org/2000/svg">
<g id="b" transform="translate(-62.971 -78.846)">
<path id="c" d="m89.826 80.555c-13.88 0-25.146 11.266-25.146 25.146 0 13.88 11.266 25.147 25.146 25.147 13.88 0 25.146-11.266 25.146-25.147 0-13.88-11.266-25.146-25.146-25.146zm0 1.2635c13.197 0 23.881 10.686 23.881 23.883 0 13.197-10.684 23.881-23.881 23.881-13.197 0-23.881-10.684-23.881-23.881 0-13.197 10.684-23.883 23.881-23.883zm2.9797 3.8597c-1.2827 0.0339-2.4168 0.96851-2.651 2.2784l-3.2856 18.379c-0.23629 1.3216 0.51943 2.5992 1.7296 3.0649l-0.5302 2.9657h1.2852l0.50022-2.7967c1.2015-0.11735 2.236-1.0176 2.4582-2.2608l1.2392-6.9308h11.021v-1.2635h-10.795l0.3669-2.0526h10.428v-1.2656h-10.201l1.2273-6.8662c0.26766-1.497-0.73849-2.9414-2.2355-3.2091-0.18713-0.0335-0.37332-0.04717-0.55656-0.04237zm0.02687 1.264c0.10049-2e-3 0.20337 6e-3 0.30696 0.02429 0.8287 0.14817 1.361 0.91176 1.2128 1.7405l-2.3353 13.061-2.9538-0.52813 2.3352-13.061c0.12965-0.72511 0.73066-1.2228 1.434-1.2366zm-3.9915 15.541 2.9533 0.52813-0.72812 4.0742c-0.14817 0.82871-0.91232 1.3605-1.741 1.2123-0.82871-0.14817-1.361-0.91175-1.2128-1.7405zm-13.362 12.161c-0.97408 0-1.7777 0.80359-1.7777 1.7777 0 0.97409 0.80359 1.7772 1.7777 1.7772 0.97406 0 1.7772-0.80306 1.7772-1.7772 0-0.97408-0.80309-1.7777-1.7772-1.7777zm6.287 0c-0.97408 0-1.7772 0.80359-1.7772 1.7777 0 0.97409 0.80307 1.7772 1.7772 1.7772s1.7772-0.80306 1.7772-1.7772c0-0.97408-0.80307-1.7777-1.7772-1.7777zm6.287 0c-0.97406 0-1.7772 0.80359-1.7772 1.7777 0 0.97409 0.80309 1.7772 1.7772 1.7772 0.97408 0 1.7777-0.80306 1.7777-1.7772 0-0.97408-0.80359-1.7777-1.7777-1.7777z" color="#000000"/>
</g>
</svg>
