<svg id="a" width="10mm" height="10mm" version="1.1" viewBox="0 0 53.71 53.71" xmlns="http://www.w3.org/2000/svg">
<g id="b" transform="translate(-44.979 -112.98)">
<path id="c" d="m60.801 131.03c-1.221 2.6682-1.91 5.6693-1.91 8.8408 0 3.1388 0.67364 6.1116 1.8712 8.7592h1.3927c-1.2733-2.6104-1.9983-5.5892-1.9983-8.7592 0-3.2028 0.73911-6.2111 2.0371-8.8408zm4.0132 0c-1.6305 2.4802-2.59 5.5004-2.59 8.754 0 3.2939 0.98342 6.3487 2.651 8.846h1.5405c-1.8269-2.4037-2.9259-5.4805-2.9259-8.846 0-3.3235 1.0732-6.3641 2.8593-8.754zm3.4861 0c-1.6305 2.4802-2.59 5.5004-2.59 8.754 0 3.2939 0.98342 6.3487 2.651 8.846h1.5405c-1.8269-2.4037-2.9259-5.4805-2.9259-8.846 0-3.3235 1.0732-6.3641 2.8593-8.754zm10.654 0c-1.6305 2.4802-2.59 5.5004-2.59 8.754 0 3.2939 0.98342 6.3487 2.651 8.846h1.5405c-1.8269-2.4037-2.9259-5.4805-2.9259-8.846 0-3.3235 1.0732-6.3641 2.8593-8.754zm3.4918 0c-1.6305 2.4802-2.59 5.5004-2.59 8.754 0 3.2939 0.98342 6.3487 2.651 8.846h1.5405c-1.8269-2.4037-2.9259-5.4805-2.9259-8.846 0-3.3235 1.0732-6.3641 2.8593-8.754zm3.4918 0c-1.6305 2.4802-2.59 5.5004-2.59 8.754 0 3.2939 0.98342 6.3487 2.651 8.846h1.5405c-1.8269-2.4037-2.9259-5.4805-2.9259-8.846 0-3.3235 1.0732-6.3641 2.8593-8.754zm-36.974 8.1669v1.2661h7.3422v-1.2661zm20.373 0v1.2661h4.9956v-1.2661zm17.926 0v1.2661h7.443v-1.2661z" color="#000000"/>
</g>
</svg>
