<svg id="a" width="10mm" height="10mm" version="1.1" viewBox="0 0 53.71 53.71" xmlns="http://www.w3.org/2000/svg">
<g id="b" transform="translate(-28.575 -44.715)">
<path id="c" d="m55.16 60.82c-2.442 2.9724-3.9011 6.6976-3.9011 10.749 0 4.0518 1.4593 7.7772 3.9016 10.75h1.6676c-2.6819-2.8754-4.3036-6.6377-4.3036-10.75 0-4.112 1.6217-7.8739 4.3036-10.749zm3.4556 0c-2.4456 2.9723-3.9114 6.695-3.9114 10.749s1.4658 7.7772 3.9114 10.75h1.6578c-2.6819-2.8754-4.3036-6.6377-4.3036-10.75s1.6217-7.8739 4.3036-10.749zm3.4453 0c-2.4456 2.9723-3.9114 6.695-3.9114 10.749s1.4658 7.7772 3.9114 10.75h1.6759c-2.6869-2.8764-4.3217-6.6334-4.3217-10.75s1.6348-7.873 4.3217-10.749zm-19.384 1.9498c-1.221 2.6682-1.9094 5.6688-1.9094 8.8403 0 3.1388 0.67313 6.1121 1.8707 8.7597h1.3927c-1.2733-2.6104-1.9983-5.5898-1.9983-8.7597 0-3.2028 0.73911-6.2106 2.0371-8.8403zm4.0132 0c-1.6305 2.4802-2.59 5.4999-2.59 8.7535 0 3.2939 0.98343 6.3492 2.651 8.8465h1.5405c-1.8269-2.4037-2.9259-5.481-2.9259-8.8465 0-3.3235 1.0732-6.3636 2.8593-8.7535zm3.4861 0c-1.6305 2.4801-2.5895 5.4999-2.5895 8.7535 0 3.2939 0.98343 6.3492 2.651 8.8465h1.54c-1.8269-2.4037-2.9259-5.481-2.9259-8.8465 0-3.3235 1.0732-6.3636 2.8593-8.7535zm14.094 0c-1.6305 2.4801-2.59 5.4999-2.59 8.7535 0 3.2939 0.98343 6.3492 2.651 8.8465h1.5405c-1.8269-2.4037-2.9259-5.481-2.9259-8.8465 0-3.3235 1.0732-6.3636 2.8593-8.7535zm3.4918 0c-1.6305 2.4801-2.59 5.4999-2.59 8.7535 0 3.2939 0.98343 6.3492 2.651 8.8465h1.5405c-1.8269-2.4037-2.9259-5.481-2.9259-8.8465 0-3.3235 1.0732-6.3636 2.8593-8.7535zm3.4918 0c-1.6305 2.4801-2.59 5.4999-2.59 8.7535 0 3.2939 0.98343 6.3492 2.651 8.8465h1.5405c-1.8269-2.4037-2.9259-5.481-2.9259-8.8465 0-3.3235 1.0732-6.3636 2.8593-8.7535zm-40.414 8.1664v1.2661h7.3422v-1.2661zm41.739 0v1.2661h7.443v-1.2661z" color="#000000"/>
</g>
</svg>
