<svg id="a" width="10mm" height="10mm" version="1.1" viewBox="0 0 53.71 53.71" xmlns="http://www.w3.org/2000/svg">
<g id="b" transform="translate(-116.42 -103.19)">
<path id="c" d="m143.27 110.33c-10.881 0-19.717 8.8335-19.717 19.715s8.8356 19.717 19.717 19.717c10.881 0 19.715-8.8356 19.715-19.717s-8.834-19.715-19.715-19.715zm0 1.2656c10.197 0 18.45 8.2516 18.45 18.449 0 10.197-8.2521 18.451-18.45 18.451s-18.451-8.2537-18.451-18.451c0-10.197 8.2537-18.449 18.451-18.449zm-2.0014 2.9006v4.871h-2.8071l4.808 4.9501 4.808-4.9501h-2.8071v-4.871zm-13.246 9.9069v6.4957h3.4277v5.2307h27.064v-6.4962h-3.4277v-5.2302zm1.2656 1.2656h24.535v3.9646h-6.4968c-0.27365-0.89079-1.1067-1.5462-2.0826-1.5462h-3.9512c-0.9759 0-1.81 0.65537-2.0841 1.5462h-9.9208zm3.4277 5.2302h6.4926c0.27351 0.89132 1.108 1.5456 2.0846 1.5456h3.9512c0.9766 0 1.81-0.65432 2.0831-1.5456h9.9219v3.9651h-24.533z" color="#000000"/>
</g>
</svg>
