<svg id="a" width="10mm" height="10mm" version="1.1" viewBox="0 0 53.71 53.71" xmlns="http://www.w3.org/2000/svg">
<g id="b" transform="translate(-1.3229 -126.21)">
<path id="c" d="m25.49 133.54v7.1701h-2.9492l5.6369 5.6369 5.6369-5.6369h-2.791v-7.1701zm1.264 1.2656h3.006v7.168h1.0015l-2.5838 2.5838-2.5859-2.5838h1.1622zm-22.338 11.845v6.4316h6.4125v5.1547h41.111v-6.4316h-6.412v-5.1547zm1.2656 1.2656h38.58v3.8948l-38.58 6e-3zm44.993 5.1527v3.9021h-38.58v-3.8943zm-26.972 11.597c-2.307-0.0186-3.9295 1.617-3.9295 1.617l-0.0021 2e-3 -5.2968 5.2658 0.89245 0.89607 5.2912-5.2596 0.0036-4e-3c7e-3 -6e-3 1.3473-1.2673 3.0313-1.2537 1.6873 0.0136 2.6329 1.248 2.6329 1.248l0.01964 0.0253 3.6602 3.9047 6e-3 6e-3c0.97911 0.97911 2.1412 1.4991 3.3187 1.4764 1.1774-0.0227 2.3251-0.57896 3.3047-1.5586l4e-3 -4e-3 5.2441-5.4379-0.91003-0.8785-5.2322 5.4255c-0.80344 0.80344-1.6353 1.1721-2.434 1.1875-0.79752 0.0154-1.6075-0.31592-2.3962-1.1033-1e-3 -1e-3 -3e-3 -8.5e-4 -4e-3 -2e-3l-3.6153-3.8576c-0.19207-0.23337-1.4645-1.6779-3.5879-1.695z" color="#000000"/>
</g>
</svg>
