<svg id="a" width="10mm" height="10mm" version="1.1" viewBox="0 0 53.71 53.71" xmlns="http://www.w3.org/2000/svg">
<g id="b" transform="translate(-91.017 -48.419)">
<path id="c" d="m121.48 49.682-9.9188 7.3412 4.4039 2.2148 1.1307 0.56793 4.4034 2.2154zm-1.216 2.4159 0.0114 7.7949-6.2766-3.1574zm-3.7589 7.4523-9.9198 7.3417 4.4039 2.2148-2.0795 4.1346h-13.431v2.681h12.083l-8.0016 15.909 1.1307 0.56844 8.2874-16.478h14.375l6.734 3.8881 0.33177-0.57619-5.7351-3.312h15.591v-2.681h-15.591l5.7351-3.3119-0.33177-0.57619-6.735 3.8881h-13.026l1.7937-3.5667 4.4034 2.2159zm-1.217 2.4164 0.0119 7.7949-6.2771-3.1569z" color="#000000" stroke-width=".25657"/>
</g>
</svg>
