<svg id="a" width="10mm" height="10mm" version="1.1" viewBox="0 0 53.71 53.71" xmlns="http://www.w3.org/2000/svg">
<g id="b" transform="translate(-55.827 -93.398)">
<path id="c" d="m80.427 106.17v13.106h-2.9461v1.2656h2.9461v4.1755h-2.9461v1.264h2.9461v2.9905c-0.90474 0.47865-1.526 1.4305-1.526 2.5192 0 1.565 1.2829 2.8474 2.8479 2.8474 1.565 0 2.8453-1.2824 2.8453-2.8474 0-1.0892-0.62061-2.0413-1.5255-2.5197v-2.99h2.2329l8.1757 8.1737h11.449v-1.2635h-10.925l-8.1742-8.1742h-2.758v-4.1755h2.758l8.1742-8.1742h10.925v-1.2656h-11.449l-8.1757 8.1742h-2.2329v-13.106zm-10.477 1.1777-0.16433 1.2537 6.9308 0.90382c-6.6363 2.4157-12.342 6.8544-16.279 12.694l1.049 0.70745c3.7785-5.6056 9.2538-9.8709 15.626-12.199l-4.0401 5.4643 1.0154 0.75189 6.0978-8.2424zm11.799 22.56c0.88132 0 1.5818 0.70101 1.5818 1.5823 0 0.88133-0.7005 1.5818-1.5818 1.5818-0.88132 0-1.5823-0.70049-1.5823-1.5818 0-0.88132 0.70101-1.5823 1.5823-1.5823z" color="#000000"/>
</g>
</svg>
