<svg id="a" width="10mm" height="10mm" version="1.1" viewBox="0 0 53.71 53.71" xmlns="http://www.w3.org/2000/svg">
<g id="b" transform="translate(-47.096 -78.846)">
<path id="c" d="m72.492 82.683v4.9118h-4.3909v3.4106c-3.0103 0.52817-5.3005 3.1497-5.3005 6.3112v21.598h-7.0373v1.2635h7.0373v8.5421h1.2656v-5.087h26.807v5.087h1.2656v-31.403c0-3.1615-2.2902-5.7831-5.3005-6.3112v-3.4106h-4.3909v-4.9118zm1.2656 1.2656h7.4238v3.6463h-7.4238zm-4.391 4.9118h16.206v3.3161h0.31832c2.7841 0.0873 4.9821 2.3333 4.9821 5.1402v25.053h-26.807v-25.053c0-2.807 2.198-5.0529 4.9821-5.1402h0.31833z" color="#000000"/>
</g>
</svg>
