<svg id="a" width="10mm" height="10mm" version="1.1" viewBox="0 0 53.71 53.71" xmlns="http://www.w3.org/2000/svg">
<g id="b" transform="translate(-40.746 -74.877)">
<path id="c" d="m52.212 79.099v25.703h27.672v-25.703h-8.1406v17.424h-11.391v-17.424zm1.2656 1.2656h5.6095v17.422h13.922v-17.422h5.6095v23.174h-25.141zm26.687 24.859-23.822 14.502 2.8246 4.6395 9.5276-5.8002 4.346 5.4854 3.2995-2.0092-2.8773-6.3794 9.526-5.7991zm-27.906 1.7291v2.8531h16.202l4.5672-2.7802v-0.0729zm27.485 9e-3 1.509 2.4789-9.401 5.7232 2.8758 6.3805-1.3896 0.84594-4.3455-5.4854-9.401 5.7232-1.509-2.4789z" color="#000000"/>
</g>
</svg>
