<svg id="a" width="10mm" height="10mm" version="1.1" viewBox="0 0 53.71 53.71" xmlns="http://www.w3.org/2000/svg">
<g id="b" transform="translate(-51.329 -75.406)">
<path id="c" d="m87.504 80.042v8.8284l-2.9626-5.131-1.0961 0.63097 4.7206 8.1773 4.6602-8.0719-1.0955-0.63304-2.9626 5.131v-8.9318zm-4.5465 13.174v3.0685h1.2661v-1.803l3.1311-0.09457v23.573h1.265v-23.573l3.5099 0.09457v1.803h1.2656v-3.0685zm10.522 3.2184v0.63252c0 4.4277-1.2915 8.4589-3.5646 11.676v1.9632c2.8991-3.4701 4.6336-8.0013 4.7718-13.008h4.3393v-1.2635zm-19.042 0.0016-6.7681 6.7691h-10.549v1.264h11.072l6.7675-6.7675h6.5123c-0.31107 4.1727-3.2537 6.0585-5.5258 6.0585h-0.87075v1.2656h0.87075c3.1151 0 6.904-2.6806 6.904-7.9571v-0.63252zm9.5322 9.0294c-2.8227 2.8227-4.9594 4.1036-8.1365 4.1036h-10.219l4.8085-2.7771-0.63252-1.094-8.1881 4.7263 7.9964 4.6157 0.63097-1.0961-5.3888-3.1114h10.993c3.5333 0 6.1112-1.5523 9.0315-4.4726zm1.8102 7.4543c-2.9824 2.145-6.6906 3.3936-10.879 3.3936v1.2656c4.1266 0 7.8249-1.1653 10.879-3.1766zm-28.659 3.528v1.2656h10.549l6.7681 6.7676h24.811v-1.2635h-24.288l-6.7675-6.7696z" color="#000000"/>
</g>
</svg>
