<svg id="a" width="10mm" height="10mm" version="1.1" viewBox="0 0 53.71 53.71" xmlns="http://www.w3.org/2000/svg">
<g id="b" transform="translate(-72.496 -59.002)">
<path id="c" d="m85.539 64.676v27.623h27.623v-27.623zm1.2656 1.2635h4.3227v7.105h13.67v10.885h-13.67v7.1045h-4.3227zm5.5883 0h19.506v12.435l-4.4948-1.1048v-6.6952h-15.011zm19.506 12.66v12.434h-19.506v-4.6344h15.011v-6.6952zm-12.942 19.796-0.54106 1.1426 5.3749 2.5466h-22.023v1.2656h21.9l-5.287 2.5492 0.54881 1.1405 9.0589-4.3651zm13.67 0.14625c-2.359 0-4.3067 1.8648-4.3067 4.176 0 2.3112 1.9478 4.1755 4.3067 4.1755s4.3067-1.8642 4.3067-4.1755c0-2.3112-1.9478-4.176-4.3067-4.176z" color="#000000"/>
</g>
</svg>
