<svg id="a" width="10mm" height="10mm" version="1.1" viewBox="0 0 53.71 53.71" xmlns="http://www.w3.org/2000/svg">
<g id="b" transform="translate(-35.719 -84.137)">
<path id="c" d="m55.087 89.422v13.341l-2.8319-5.9412-1.1426 0.54519 4.6447 9.742 4.5703-9.7813-1.1467-0.53486-2.8282 6.0523v-13.423zm21.067 15.599c-1.3979 0.2425-2.6905 0.7928-3.806 1.5798l0.81856 0.96066c0.91282-0.62329 1.9593-1.0652 3.0882-1.2764zm3.2334 0-0.10076 1.2645c1.1287 0.21126 2.1751 0.65259 3.0877 1.2759l0.81856-0.96066c-1.1154-0.78685-2.4078-1.3372-3.8055-1.5798zm-9.325 3.8659c-0.48904 0.69326-0.88678 1.4553-1.1762 2.2681h-30.799v1.2656h37.182c-0.36919 0.50622-0.5886 1.1283-0.5886 1.7988 0 1.6844 1.378 3.0624 3.0624 3.0624 1.6844 0 3.0649-1.378 3.0649-3.0624 0-1.6665-1.3517-3.0346-3.0117-3.0634v-1e-3h-7.5608c0.21367-0.51168 0.47765-0.99717 0.78651-1.4495zm15.416 0-0.96067 0.81907c0.62279 0.91272 1.0639 1.959 1.2749 3.0877l1.2661-0.10128c-0.24251-1.3977-0.79345-2.6901-1.5803-3.8055zm-7.7349 3.5336c1.0007 0 1.7988 0.79815 1.7988 1.7988s-0.79816 1.7968-1.7988 1.7968c-1.0007 0-1.7968-0.79609-1.7968-1.7968s0.79609-1.7988 1.7968-1.7988zm-22.025 1.2836c-5.2005 0-9.4294 4.2294-9.4294 9.4299 0 5.2005 4.2289 9.4299 9.4294 9.4299 5.2005 0 9.4299-4.2294 9.4299-9.4299 0-5.2005-4.2294-9.4299-9.4299-9.4299zm0 1.264c4.5168 0 8.1644 3.6491 8.1644 8.1659 0 4.5168-3.6475 8.1638-8.1644 8.1638-4.5168 0-8.1659-3.647-8.1659-8.1638 0-4.5168 3.6491-8.1659 8.1659-8.1659zm30.074 0.85627c-0.21104 1.1288-0.65237 2.175-1.2754 3.0877l0.96119 0.81907c0.78681-1.1154 1.3378-2.4078 1.5803-3.8054zm-16.046 5.2e-4 -1.2645 0.10077c0.2425 1.3977 0.79343 2.69 1.5803 3.8054l0.96015-0.81804c-0.62348-0.91267-1.0646-1.9592-1.2759-3.0882zm-14.028 4.2462c-1.6844 0-3.0623 1.3785-3.0623 3.0629 0 1.6843 1.378 3.0644 3.0623 3.0644s3.0624-1.3801 3.0624-3.0644c0-1.6844-1.378-3.0629-3.0624-3.0629zm26.654 0.98496c-0.91244 0.62282-1.9586 1.0638-3.0872 1.2748l0.10128 1.2661c1.3977-0.24254 2.6901-0.79289 3.8055-1.5798zm-9.2062 5.1e-4 -0.81907 0.96067c1.1155 0.78696 2.4081 1.3372 3.806 1.5798l0.10129-1.2661c-1.1287-0.21099-2.1754-0.65152-3.0882-1.2743zm-17.448 0.27854c1.0007 0 1.7989 0.79816 1.7989 1.7989 0 1.0007-0.79816 1.7983-1.7989 1.7983s-1.7988-0.79767-1.7988-1.7983c0-1.0007 0.79815-1.7989 1.7988-1.7989z" color="#000000"/>
</g>
</svg>
