<svg id="a" width="10mm" height="10mm" version="1.1" viewBox="0 0 53.71 53.71" xmlns="http://www.w3.org/2000/svg">
<g id="b" transform="translate(-43.392 -77.258)">
<path id="c" d="m70.247 82.621c-4.6039 0-8.3499 3.746-8.3499 8.3499 0 4.3907 3.4078 7.9981 7.7168 8.323v6.2167c-1.3777 0.29359-2.42 1.5237-2.42 2.9854 0 0.32944 0.0536 0.64675 0.15141 0.94465l-5.3847 3.1083c-2.4359-3.5693-7.264-4.7166-11.067-2.5213-3.9871 2.302-5.3581 7.4189-3.0561 11.406 2.3019 3.9871 7.4189 5.3581 11.406 3.0562 3.8026-2.1954 5.2231-6.9506 3.3497-10.845l5.3868-3.1099c0.55998 0.62121 1.3699 1.0134 2.2665 1.0134 0.89652 0 1.7057-0.39232 2.2655-1.0134l5.3873 3.1099c-1.8735 3.8942-0.45293 8.6494 3.3497 10.845 3.9871 2.302 9.1036 0.93092 11.406-3.0562 2.302-3.9871 0.93096-9.1041-3.0562-11.406-3.8024-2.1954-8.6306-1.048-11.066 2.5213l-5.3842-3.1083c0.09778-0.2979 0.15141-0.61521 0.15141-0.94465 0-1.4616-1.0424-2.6918-2.42-2.9854v-6.2167c4.3092-0.32464 7.7168-3.9321 7.7168-8.323 0-4.6039-3.7455-8.3499-8.3494-8.3499zm0 1.2656c3.9202 0 7.0838 3.1641 7.0838 7.0843 0 3.7068-2.829 6.7355-6.4513 7.0543v-4.0706c1.3775-0.29366 2.42-1.5233 2.42-2.9848 0-1.6784-1.3741-3.0525-3.0525-3.0525-1.6784 0-3.053 1.3741-3.053 3.0525 0 1.4614 1.0426 2.691 2.42 2.9848v4.0706c-3.6222-0.31913-6.4528-3.3477-6.4528-7.0543 0-3.9202 3.1656-7.0843 7.0859-7.0843zm0 5.2963c0.99476 0 1.787 0.79221 1.787 1.787 0 0.99478-0.79223 1.789-1.787 1.789-0.99477 0-1.7875-0.79426-1.7875-1.789 0-0.99476 0.79271-1.787 1.7875-1.787zm0 17.526c0.99477 0 1.787 0.79221 1.787 1.787 0 0.99478-0.79221 1.789-1.787 1.789-0.99476 0-1.7875-0.79426-1.7875-1.789 0-0.99476 0.79272-1.787 1.7875-1.787zm-15.23 3.4608c2.2647-0.0155 4.4747 1.0599 5.8446 3.0138l-3.5254 2.035c-0.94317-1.0459-2.529-1.3338-3.7946-0.60307-1.4536 0.83921-1.9565 2.7167-1.1172 4.1703 0.83921 1.4536 2.7162 1.9565 4.1698 1.1172 1.2657-0.73078 1.8096-2.2486 1.3751-3.5884l3.5248-2.035c1.535 3.2964 0.32667 7.2608-2.8836 9.1142-3.395 1.9601-7.7168 0.80242-9.6769-2.5926-1.9601-3.395-0.80293-7.7189 2.5921-9.679 1.1035-0.63709 2.305-0.94431 3.4913-0.9524zm30.458 0c1.1863 8e-3 2.3878 0.31531 3.4913 0.9524 3.395 1.9601 4.5522 6.284 2.5921 9.679-1.9601 3.395-6.2819 4.5527-9.6769 2.5926-3.2102-1.8534-4.4185-5.8178-2.8835-9.1142l3.5254 2.035c-0.43445 1.3398 0.10886 2.8576 1.3746 3.5884 1.4536 0.83921 3.3306 0.33631 4.1698-1.1172 0.83922-1.4536 0.33683-3.3311-1.1167-4.1703-1.2656-0.73068-2.852-0.44285-3.7951 0.60307l-3.5254-2.035c1.3699-1.9539 3.5799-3.0292 5.8446-3.0138zm-30.453 5.2994c0.63362-0.0183 1.2533 0.30327 1.5952 0.89555 0.49738 0.86149 0.20574 1.9448-0.65577 2.4422-0.86149 0.49738-1.9438 0.20727-2.4412-0.65422-0.49739-0.8615-0.20778-1.9438 0.65371-2.4412 0.26922-0.15543 0.56-0.23404 0.84801-0.24236zm30.448 0c0.28801 8e-3 0.57879 0.0869 0.84801 0.24236 0.86149 0.49738 1.1516 1.5797 0.65423 2.4412-0.49738 0.86149-1.5797 1.1516-2.4412 0.65422-0.86151-0.49739-1.1532-1.5807-0.65577-2.4422 0.34195-0.59228 0.96111-0.91385 1.5947-0.89555z" color="#000000"/>
</g>
</svg>
