<svg id="a" width="10mm" height="10mm" version="1.1" viewBox="0 0 53.71 53.71" xmlns="http://www.w3.org/2000/svg">
<g id="b" transform="translate(-38.894 -54.24)">
<path id="c" d="m47.488 62.258v1.2635h14.369v-1.2635zm17.628 0v27.455l-2.8298-6.1304-1.1488 0.52917 4.6467 10.064 4.5759-10.002-1.1503-0.52555-2.8283 6.1795v-27.57zm4.5243 0v1.2635h14.37v-1.2635zm-22.153 8.7266v1.2656h14.369v-1.2656zm22.153 0v1.2656h14.37v-1.2656zm-22.153 8.7282v1.264h14.369v-1.264zm22.153 0v1.264h14.369v-1.264zm-22.153 8.7266v1.2661h10.17v-1.2661zm26.352 0v1.2661h10.17v-1.2661zm-29.526 8.7581v2.7332h42.872v-2.7332z" color="#000000"/>
</g>
</svg>
