<svg id="a" width="10mm" height="10mm" version="1.1" viewBox="0 0 53.71 53.71" xmlns="http://www.w3.org/2000/svg">
<g id="b" transform="translate(-71.702 -111.65)">
<path id="c" d="m106.63 122.85c-8.6391 0-15.654 7.0168-15.654 15.656 0 8.6391 7.0153 15.656 15.654 15.656 8.6391 0 15.656-7.0174 15.656-15.656 0-8.6391-7.0174-15.656-15.656-15.656zm0 1.2656c7.9554 0 14.392 6.4349 14.392 14.39 0 7.9554-6.437 14.393-14.392 14.393-7.9554 0-14.39-6.4375-14.39-14.393 0-7.9554 6.4349-14.39 14.39-14.39zm0 11.634c-1.5145 0-2.7559 1.2414-2.7559 2.7559s1.2414 2.7559 2.7559 2.7559c1.5145 0 2.7559-1.2414 2.7559-2.7559s-1.2414-2.7559-2.7559-2.7559zm0 1.2661c0.83088 0 1.4924 0.65893 1.4924 1.4898 0 0.83088-0.66153 1.4924-1.4924 1.4924s-1.4903-0.66152-1.4903-1.4924 0.65946-1.4898 1.4903-1.4898zm-27.817 1.8025-3.9884 13.723 1.2149 0.3514 3.7228-12.809h3.375l-3.6406 12.432 1.2149 0.35553 4.115-14.053z" color="#000000"/>
</g>
</svg>
