<svg id="a" width="10mm" height="10mm" version="1.1" viewBox="0 0 53.71 53.71" xmlns="http://www.w3.org/2000/svg">
<g id="b" transform="translate(-58.737 -77.258)">
<path id="c" d="m70.677 80.814-1.0821 0.65629 12.695 20.87v25.074l2.5409-5.1e-4v-9.1953c1.7153 2.203 4.3904 3.6236 7.3928 3.6236 5.1659 0 9.3669-4.201 9.3669-9.3669 0-5.1658-4.201-9.3674-9.3669-9.3674-3.0025 0-5.6775 1.4206-7.3928 3.6236v-4.3915l12.693-20.87-1.08-0.65578-12.885 21.172zm21.547 23.559c4.4822 0 8.1034 3.6196 8.1034 8.1018 0 1.9969-0.72012 3.8217-1.9136 5.2328l-6.1433-6.1433-0.89452 0.89452 6.1474 6.1474c-1.4201 1.228-3.2705 1.972-5.2994 1.972-3.2982 0-6.1273-1.962-7.3928-4.7837v-6.6394c1.2655-2.8212 4.0947-4.7821 7.3928-4.7821z" color="#000000"/>
</g>
</svg>
