<svg id="a" width="10mm" height="10mm" version="1.1" viewBox="0 0 53.71 53.71" xmlns="http://www.w3.org/2000/svg">
<g id="b" transform="translate(-26.723 -72.496)">
<path id="c" d="m44.405 76.342-5.4395 5.4395v40.578h29.225v-40.578l-5.4395-5.4395zm0.52348 1.2656h17.299l4.6995 4.6989v38.789h-26.697v-38.789zm2.3477 21.578c-1.1091 2.1029-1.5789 3.712-1.6681 5.0524-0.0892 1.3404 0.21583 2.3908 0.55862 3.2892 0.6856 1.7968 1.4952 2.9043 0.34003 5.7971l1.1736 0.46871c1.286-3.2204 0.30299-5.0533-0.33176-6.7169-0.31738-0.83179-0.55262-1.6409-0.47852-2.7538 0.0741-1.1129 0.47178-2.5491 1.5255-4.547zm6.5841 0c-1.1091 2.1029-1.5809 3.712-1.6702 5.0524-0.0892 1.3404 0.21789 2.3908 0.56069 3.2892 0.68559 1.7968 1.4952 2.9043 0.34003 5.7971l1.1736 0.46871c1.286-3.2204 0.303-5.0533-0.33176-6.7169-0.31738-0.83179-0.55262-1.6409-0.47853-2.7538 0.0741-1.1129 0.47128-2.5491 1.525-4.547zm6.5841 0c-1.1091 2.1029-1.5809 3.712-1.6702 5.0524-0.0892 1.3404 0.2179 2.3908 0.56069 3.2892 0.6856 1.7968 1.4931 2.9043 0.33796 5.7971l1.1756 0.46871c1.286-3.2204 0.30248-5.0533-0.33228-6.7169-0.31737-0.83179-0.55417-1.6409-0.48007-2.7538 0.0741-1.1129 0.47332-2.5491 1.527-4.547zm-16.197 17.787v1.2656h18.662v-1.2656z" color="#000000"/>
</g>
</svg>
