<svg id="a" width="10mm" height="10mm" version="1.1" viewBox="0 0 53.71 53.71" xmlns="http://www.w3.org/2000/svg">
<g id="b" transform="translate(-98.69 -63.765)">
<path id="c" d="m136.55 72.548-2e-3 2e-3v-2e-3l-6.5608 6.5841 1e-3 5.2e-4 -1e-3 5.1e-4 6.5608 6.5841v-2e-3l2e-3 2e-3v-3.4804h5.3263v-6.2093h-5.3263zm-22.01 1e-3v3.4809h-5.3263v6.2093h5.3263v3.4804l2e-3 -2e-3v2e-3l6.5603-6.5841-1e-3 -1e-3 1e-3 -1e-3 -6.5603-6.5841v2e-3zm1.2656 3.0608 3.5088 3.5243-3.5088 3.5243v-1.6857h-5.3263v-3.6773h5.3263zm19.478 0v1.6857h5.3263v3.6773h-5.3263v1.6857l-3.5083-3.5243zm-9.7379 0.24391c-1.8041 0-3.2809 1.4768-3.2809 3.2809 0 1.8041 1.4768 3.2794 3.2809 3.2794s3.2794-1.4753 3.2794-3.2794c0-1.8041-1.4753-3.2809-3.2794-3.2809zm-9.9663 14.513 9.7271 16.845 8.9938-15.58h5.4808v-1.2656zm2.1937 1.2656h15.066l-7.5329 13.049zm-8.5597 9.8263v2.4298h11.05v-2.4298zm21.612 0v2.4298h11.051v-2.4298zm-21.611 5.9666v1.2661h8.631v-1.2661zm24.031 0v1.2661h8.631v-1.2661zm-13.031 2e-3v1.2635h10.662v-1.2635z" color="#000000"/>
</g>
</svg>
