<svg id="a" width="10mm" height="10mm" version="1.1" viewBox="0 0 53.71 53.71" xmlns="http://www.w3.org/2000/svg">
<g id="b" transform="translate(-93.662 -109.54)">
<path id="c" d="m98.578 126.28v20.229h1.2656v-9.5007h9.217v-0.14004c-0.095-3.2623 1.5904-6.3148 4.3987-7.9726 2.8084-1.6578 6.2914-1.6551 9.0976 6e-3 2.5738 1.5238 4.1956 4.2206 4.3708 7.1737v0.93276h11.9l-5.8922 3.4029 0.63304 1.096 8.8884-5.133-8.8847-5.1289-0.63252 1.0955 5.8952 3.4034h-10.659c-0.27709-3.2679-2.1136-6.2363-4.9749-7.9303-1.6005-0.9476-3.3956-1.423-5.1914-1.4242-1.7958-1e-3 -3.5917 0.47039-5.1935 1.4159-2.8675 1.6927-4.709 4.6654-4.9863 7.9385h-7.9866v-9.464z" color="#000000"/>
</g>
</svg>
