<svg id="a" width="10mm" height="10mm" version="1.1" viewBox="0 0 53.71 53.71" xmlns="http://www.w3.org/2000/svg">
<g id="b" transform="translate(-51.065 -71.702)">
<path id="c" d="m65.588 81.695-0.89452 0.89452 7.4037 7.4037 0.89452-0.89452zm28.865 0-7.4037 7.4037 0.89452 0.89452 2.7921-2.7921c6.0641 5.7265 6.5662 15.21 1.1007 21.544-5.5123 6.3883-15.083 7.2428-21.64 1.9322-6.1165-4.9542-7.5286-13.589-3.5486-20.182v6.6327h1.265v-10.279l-8.9638 5.1754 0.63252 1.0955 6.1562-3.5543c-4.5045 7.153-3.0253 16.678 3.6623 22.095 7.077 5.7322 17.444 4.8066 23.394-2.0888 5.8912-6.8276 5.3559-17.081-1.1643-23.265l3.7171-3.7171z" color="#000000" stroke-width=".26458"/>
</g>
</svg>
