<svg id="a" width="10mm" height="10mm" version="1.1" viewBox="0 0 53.71 53.71" xmlns="http://www.w3.org/2000/svg">
<g id="b" transform="translate(-39.952 -87.577)">
<path id="c" d="m65.907 101.12c0.63624-0.0147 1.2776-0.0134 1.9229 5e-3 2.5161 0.0704 4.9274 0.39736 7.1686 0.93689l-0.32815 1.2247c-2.143-0.51375-4.4572-0.82943-6.8755-0.89711-3.112-0.0871-6.1151 0.24383-8.848 0.90641l-0.33383-1.2459c2.2916-0.54562 4.7484-0.87072 7.2941-0.92966zm-9.4309 1.5214 0.339 1.2666c-4.9864 1.6154-8.804 4.3782-10.259 7.6791-0.28764 0.65265-0.47774 1.3042-0.57929 1.9518h-1.2661c0.10394-0.82314 0.32904-1.6478 0.68781-2.4619 1.6797-3.8112 5.7957-6.7638 11.077-8.4357zm20.658 0.0186c1.5373 0.49092 2.977 1.0838 4.2804 1.7761 3.688 1.9591 6.3577 4.6841 7.2487 7.9044 0.1106 0.39977 0.1904 0.79973 0.24133 1.1984h-1.2795c-0.04436-0.28616-0.10175-0.5731-0.18138-0.86093-0.76542-2.7666-3.1418-5.2754-6.6229-7.1246-1.2142-0.64503-2.5664-1.2019-4.0153-1.6676zm11.752 13.096c-0.2844 2.0232-1.2967 3.957-2.8934 5.6369-2.4808 2.6101-6.3462 4.6702-11.168 5.8017l-0.28887-1.2314c4.6341-1.0875 8.2836-3.0687 10.539-5.442 1.408-1.4814 2.2788-3.0914 2.5487-4.7651zm-42.901 0c0.21174 1.2893 0.78129 2.547 1.6847 3.7465 1.7231 2.288 4.6917 4.318 8.648 5.6694l-4.1517-7.2084 1.0961-0.63148 5.9583 10.344-12.091 0.0832-0.0083-1.265 8.97-0.0615c-4.2305-1.4114-7.479-3.5761-9.4315-6.1686-1.0507-1.3951-1.7128-2.9278-1.9332-4.5077zm11.021 10.611-0.0181 0.0594 0.05219-5.2e-4z" color="#000000" stroke-width=".26458"/>
</g>
</svg>
