<svg id="a" width="10mm" height="10mm" version="1.1" viewBox="0 0 53.71 53.71" xmlns="http://www.w3.org/2000/svg">
<g id="b" transform="translate(-36.777 -89.694)">
<path id="c" d="m79.507 97.026c-0.45087 0.0191-0.90492 0.12701-1.3364 0.33228-1.5306 0.72825-2.2846 2.4493-1.8629 4.0334l-3.8587 1.8361c-2.9183-2.0316-6.4613-3.2267-10.283-3.2267-6.4843 0-12.173 3.432-15.352 8.5752v-8.4269h-1.2656v10.869c-0.91391 2.1581-1.4196 4.5305-1.4196 7.0197 0 9.9538 8.0834 18.037 18.037 18.037 9.9538 0 18.035-8.0834 18.035-18.037 0-5.6197-2.5769-10.642-6.6115-13.952l3.2618-1.5518c0.96308 1.3264 2.7745 1.8274 4.3052 1.0992 1.7257-0.82108 2.466-2.905 1.6449-4.6307-0.61582-1.2943-1.9418-2.0345-3.2944-1.9771zm-17.341 4.2406c3.2964 0 6.3663 0.9523 8.9576 2.5916l-9.372 4.4592 0.54364 1.1431 10.027-4.7708c4.0203 3.0624 6.6146 7.8988 6.6146 13.349 0 9.2701-7.5009 16.772-16.771 16.772-9.2701 0-16.772-7.5014-16.772-16.772 0-2.4078 0.50946-4.6942 1.4211-6.7629l9.694-3.6241-0.44131-1.1834-8.4026 3.1404c2.9043-4.9891 8.3055-8.3416 14.5-8.3416z" color="#000000"/>
</g>
</svg>
