<svg id="a" width="10mm" height="10mm" version="1.1" viewBox="0 0 53.71 53.71" xmlns="http://www.w3.org/2000/svg">
<g id="b" transform="translate(-43.127 -67.469)">
<path id="c" d="m70.029 71.553c-0.24323-9.9e-5 -0.48708 0.0042-0.73174 0.01395-7.8292 0.31107-14.578 5.6196-16.727 13.155-2.1483 7.5351 0.78749 15.605 7.2755 19.998l0.70901-1.0485c-6.0396-4.0894-8.7674-11.588-6.7676-18.602 1.9998-7.0143 8.2722-11.946 15.56-12.236s13.933 4.1291 16.483 10.963c2.5155 6.741 0.47866 14.314-5.0446 18.891l2.6029-8.9571-1.2149-0.35347-3.2324 11.131 11.281-2.5662-0.28112-1.2346-6.8409 1.556c4.7802-4.9741 6.3746-12.318 3.915-18.909-2.6538-7.1115-9.4472-11.796-16.987-11.799zm0.0858 33.885-7.9318 4.6669h-13.306v2.3223h13.305l7.9328 4.6674 0.64027-1.0899-6.0797-3.5776h26.413v-2.3223h-26.412l6.0792-3.577z"/>
</g>
</svg>
