<svg id="a" width="10mm" height="10mm" version="1.1" viewBox="0 0 53.71 53.71" xmlns="http://www.w3.org/2000/svg">
<g id="b" transform="translate(-195.53 -105.04)">
<path id="c" d="m222.62 109.31c-0.24323-1e-4 -0.48707 4e-3 -0.73173 0.0139-3.0565 0.12143-5.9427 1.013-8.4605 2.4929l0.69298 1.0573c2.329-1.3565 4.995-2.1719 7.8181-2.2841 2.3171-0.0921 4.5674 0.29503 6.6435 1.0811l0.70952-1.0826c-2.0865-0.8278-4.3431-1.2775-6.672-1.2785zm9.2522 2.5471-0.69763 1.0645c3.2553 1.9189 5.8598 4.9134 7.2471 8.631 0.34932 0.93609 0.60217 1.8884 0.77877 2.8463l1.2738-0.0506c-0.18941-1.0904-0.46997-2.1748-0.86713-3.2391-1.4828-3.9735-4.2593-7.1872-7.7349-9.2522zm-20.784 1.5952c-2.7794 2.2871-4.8912 5.394-5.9268 9.0263-0.47555 1.668-0.68769 3.3607-0.68161 5.0354l1.263-0.0501c-8.3e-4 -1.5423 0.19747-3.1012 0.63562-4.638 0.95082-3.3349 2.875-6.1901 5.4074-8.3085zm29.655 13.74-1.2692 0.0506c0.0606 5.0017-2.0985 9.8865-6.0973 13.2l2.6029-8.9571-1.2149-0.35347-3.2324 11.131 11.281-2.5662-0.28112-1.2346-6.8409 1.556c3.3384-3.4739 5.1164-8.104 5.0514-12.826zm-34.759 3.1171-1.2697 0.0506c0.78574 4.8224 3.4922 9.252 7.722 12.116l0.709-1.0485c-3.8935-2.6363-6.3998-6.6915-7.1613-11.118zm16.721 12.885-7.9318 4.6669h-13.306v2.3223h13.305l7.9328 4.6674 0.64027-1.0899-6.0797-3.5776h26.413v-2.3223h-26.412l6.0792-3.577z"/>
</g>
</svg>
