<svg id="a" width="10mm" height="10mm" version="1.1" viewBox="0 0 53.71 53.71" xmlns="http://www.w3.org/2000/svg">
<g id="b" transform="translate(-23.283 -80.962)">
<path id="c" d="m31.74 89.523v1.2656h26.053l0.0021 34.059h-26.055v1.2656h27.701l9.0961-18.227-9.0961-18.363zm12.184 9.6501c-4.7665 0-8.6444 3.8785-8.6444 8.645 0 4.7665 3.8779 8.6444 8.6444 8.6444s8.6424-3.8779 8.6424-8.6444c0-4.7665-3.8759-8.645-8.6424-8.645zm0 1.2661c4.0828 0 7.3789 3.296 7.3789 7.3789s-3.296 7.3789-7.3789 7.3789c-4.0828 0-7.3789-3.296-7.3789-7.3789 0-4.0828 3.296-7.3789 7.3789-7.3789z"/>
</g>
</svg>
