<svg id="a" width="10mm" height="10mm" version="1.1" viewBox="0 0 53.71 53.71" xmlns="http://www.w3.org/2000/svg">
<g id="b" transform="translate(-40.746 -80.169)">
<path id="c" d="m48.99 89.576v1.2635h24.434l11.25 16.184-11.25 16.184h-24.434v1.2656h25.096l12.127-17.45-12.127-17.447zm14.398 10.181v14.533h13.932v-14.533zm-7.476 0.89245v3.6137h-6.9221v5.5196h6.9221v3.6148l7.2766-6.3753zm8.74 0.37311h11.402v12.004h-11.402zm5.701 1.8469c-0.55069 0-1.0041 0.45338-1.0041 1.0041s0.45339 1.0036 1.0041 1.0036 1.0061-0.45287 1.0061-1.0036-0.45545-1.0041-1.0061-1.0041zm0 6.3014c-0.55069 0-1.0041 0.45285-1.0041 1.0036 0 0.55069 0.45339 1.0041 1.0041 1.0041s1.0056-0.45339 1.0056-1.0041c0-0.5507-0.45493-1.0036-1.0056-1.0036z"/>
</g>
</svg>
