<svg id="a" width="10mm" height="10mm" version="1.1" viewBox="0 0 53.71 53.71" xmlns="http://www.w3.org/2000/svg">
<g id="b" transform="translate(-46.831 -66.94)">
<path id="c" d="m55.606 75.673v1.2656h24.954l9.7462 16.855-9.7462 16.858h-24.954v1.264h25.684l10.477-18.122-10.477-18.121zm36.32 0.01964v36.205h1.2656v-36.205zm-25.127 10.706v14.791h14.789v-14.791zm1.264 1.2656h12.262v12.26h-12.262zm-6.9324 0.75292v3.283h-5.5919v4.1858h5.5919v3.2856l5.6141-5.3795zm15.893 0.83302-6.4725 9.1798h0.81235l6.473-9.1798zm-6.0653 0.04857c-1.1579 0-2.1037 0.94588-2.1037 2.1037 0 1.1579 0.94588 2.1037 2.1037 2.1037s2.1032-0.94588 2.1032-2.1037c0-1.1579-0.94536-2.1037-2.1032-2.1037zm0 0.66404c0.79848 0 1.4371 0.64123 1.4371 1.4397 0 0.79848-0.63864 1.4397-1.4371 1.4397s-1.4397-0.64123-1.4397-1.4397c0-0.79848 0.64123-1.4397 1.4397-1.4397zm6.4704 4.0685c-1.1579 0-2.1032 0.94638-2.1032 2.1043 0 1.1579 0.94536 2.1032 2.1032 2.1032 1.1579 0 2.1037-0.94535 2.1037-2.1032 0-1.1579-0.94588-2.1043-2.1037-2.1043zm0 0.66405c0.79848 0 1.4397 0.64172 1.4397 1.4402 0 0.79848-0.64123 1.4387-1.4397 1.4387-0.79848 0-1.4392-0.64019-1.4392-1.4387 0-0.7985 0.64071-1.4402 1.4392-1.4402zm-6.7453 4.4013 0.14056 0.0987 0.06925-0.0987z"/>
</g>
</svg>
