<svg id="a" width="10mm" height="10mm" version="1.1" viewBox="0 0 53.71 53.71" xmlns="http://www.w3.org/2000/svg">
<g id="b" transform="translate(-15.346 -74.083)">
<path id="c" d="m24.12 82.817v1.2656h24.954l9.7462 16.855-9.7462 16.858h-24.954v1.264h25.684l10.477-18.122-10.477-18.121zm5.17e-4 6.2663v23.711h23.711v-23.711zm1.2656 1.2656h21.18v21.18h-21.18zm8.4899 2.1699v2.7094h-2.2774v2.4293l-1.8712 0.83406v6.1448l4.2442 4.2442h4.131l4.1873-4.1879v-6.8709h-0.98237l-2.1601 2.1596v-5.4839h-2.1389v-1.9787h-0.7829zm0.66404 0.66456h1.8045v5.6911h0.66404v-3.7109h1.4748v6.3143h0.66404v-0.555l2.4355-2.435h0.04289v5.9294l-3.7987 3.7992h-3.5801l-3.8535-3.8556v-5.4374l1.2051-0.53847v0.16123h0.66404v-2.6541h1.6133v2.9822h0.66404z"/>
</g>
</svg>
