<svg id="a" width="10mm" height="10mm" version="1.1" viewBox="0 0 53.71 53.71" xmlns="http://www.w3.org/2000/svg">
<g id="b" transform="translate(-39.91 -85.681)">
<path id="c" d="m65.571 94.093v11.01h-8.7499v25.795h31.51v-25.795h-8.7519v-11.01zm1.2656 1.2656h11.478v9.7446h-11.478zm-18.137 5.7552c-0.6976 0.0174-1.2575 0.58902-1.2573 1.2909 9e-5 0.48244 0.26512 0.90266 0.65732 1.124v20.269h-2.6226l3.2401 5.9175h-3.5176v1.2656h7.0662v-1.2656h-3.5176l3.2401-5.9175h-2.6226v-6.9908h-5.1e-4v-13.277c0.20575-0.11592 0.37653-0.28674 0.49247-0.49248h4.6726v-1.2656h-4.6726c-0.22123-0.39247-0.64184-0.65723-1.1245-0.65733-0.0111 0-0.0225-2.7e-4 -0.0336 0zm9.385 5.255h6.7345l-6.7345 6.7345zm8.5235 0h20.457v15.078l-8.1876 8.1876h-20.793v-14.742zm20.457 16.867v6.3986h-6.3986z" color="#000000" stroke-width="1.3793"/>
</g>
</svg>
