<svg id="a" width="10mm" height="10mm" version="1.1" viewBox="0 0 53.71 53.71" xmlns="http://www.w3.org/2000/svg">
<g id="b" transform="translate(-87.402 -97.382)">
<path id="c" d="m104.74 106.3v17.799c-3.402 0.23809-6.4096 2.3795-7.7282 5.563-1.4 3.3798-0.62411 7.2746 1.9627 9.8614 2.5868 2.5868 6.4816 3.3606 9.8614 1.9606 3.1838-1.3188 5.3252-4.3244 5.563-7.7267h17.798v-1.2656h-20.587v-2.3136l-5.0731 2.9461 2.4686 1.434c-0.38097 0.96607-1.1405 1.7607-2.1384 2.174-1.4606 0.60498-3.1377 0.27037-4.2556-0.8475-1.1179-1.1179-1.4509-2.7934-0.84595-4.254 0.41335-0.9979 1.208-1.7574 2.174-2.1384l1.4335 2.4681 2.9461-5.0731h-2.3136v-20.587zm0 19.066v1.5214h-2.3136l0.87282 1.5028c-1.1986 0.52604-2.181 1.499-2.7016 2.7559-0.79938 1.9299-0.35777 4.1562 1.1193 5.6332 1.4771 1.4771 3.7049 1.9202 5.6348 1.1209 1.2574-0.52083 2.2296-1.5034 2.7549-2.7027l1.5033 0.87333v-2.3136h1.5203c-0.23459 2.8926-2.0644 5.4346-4.7785 6.5588-2.9104 1.2056-6.2551 0.54033-8.4827-1.6872-2.2276-2.2276-2.8928-5.5722-1.6872-8.4827 1.1242-2.7139 3.6659-4.5451 6.5583-4.7801zm0.63303 6.7908a0.96749 0.96749 0 0 0-0.96738 0.96739 0.96749 0.96749 0 0 0 0.96738 0.96738 0.96749 0.96749 0 0 0 0.96739-0.96738 0.96749 0.96749 0 0 0-0.96739-0.96739z" color="#000000"/>
</g>
</svg>
