<svg id="a" width="10mm" height="10mm" version="1.1" viewBox="0 0 53.71 53.71" xmlns="http://www.w3.org/2000/svg">
<g id="b" transform="translate(-19.05 -111.65)">
<path id="c" d="m27.335 121.02 9.1131 17.488-9.1131 17.49h24.99l12.151-17.49-12.151-17.488zm2.0841 1.2635h22.246l11.27 16.225-11.27 16.224h-22.246l8.4553-16.224zm15.796 7.3443c-0.08671-1e-3 -0.17382-2e-5 -0.26148 4e-3 -1.4026 0.0584-2.8775 0.7862-4.1522 2.3141l0.97255 0.8108c1.0989-1.3172 2.2196-1.8192 3.2324-1.8614 1.0127-0.0422 1.9611 0.38723 2.682 1.1095 1.4418 1.4445 1.9347 3.9321-0.08216 5.949l-0.0021 4e-3 -2.297 2.3611c-0.76325 0.77463-1.2348 1.3446-1.4454 2.1523-0.21093 0.80908-0.18138 1.7256-0.18138 3.3869h1.2656c0-1.6682 0.0031-2.5394 0.14056-3.0665 0.1374-0.52705 0.38871-0.84105 1.125-1.588l0.0021-2e-3 2.2872-2.3533c2.4737-2.4737 1.9593-5.8558 0.08217-7.7365-0.87989-0.88154-2.0671-1.4626-3.3678-1.4836zm-0.85214 18.392c-0.34622 0-0.63252 0.2863-0.63252 0.63252s0.2863 0.63252 0.63252 0.63252c0.34622 0 0.63252-0.2863 0.63252-0.63252s-0.2863-0.63252-0.63252-0.63252z"/>
</g>
</svg>
