<svg id="a" width="10mm" height="10mm" version="1.1" viewBox="0 0 53.71 53.71" xmlns="http://www.w3.org/2000/svg">
<g id="b" transform="translate(-24.606 -93.133)">
<path id="c" d="m42.613 102.72-8.5695 8.5695 0.89452 0.89504 7.675-7.675 13.075 13.076h-4.1558v4.8049h4.1527l-13.072 13.072-7.6734-7.6734-0.89504 0.89504 8.5685 8.5685 14.862-14.862h5.5066v3.3492l5.8983-5.7537-5.8983-5.7521v3.3517h-5.5035zm1.5792 10.541c-1.2843 5e-3 -2.6943 0.63814-4.115 2.0448l0.89038 0.89814c1.2606-1.2482 2.3553-1.6743 3.2287-1.6774 0.87347-3e-3 1.5933 0.40598 2.1466 1.0682 0.55332 0.66216 0.90403 1.5775 0.9493 2.4531 0.04527 0.87555-0.20073 1.6849-0.76378 2.2479l-2.4846 2.434-0.0021 2e-3c-0.69242 0.69242-1.0665 1.2524-1.2402 1.8082s-0.13281 1.0269-0.13281 1.4826v1.7715h1.2656v-1.7715c0-0.50758-0.01895-0.80678 0.07441-1.1054 0.09336-0.29857 0.31426-0.67755 0.92759-1.2909l2.4846-2.434 0.0021-2e-3c0.86108-0.86108 1.1925-2.0523 1.1327-3.2086-0.05979-1.1563-0.4966-2.3048-1.2423-3.1972-0.7457-0.89239-1.837-1.528-3.1213-1.5234zm-0.93638 16.227c-0.34352 0-0.632 0.28943-0.632 0.63252 0 0.3431 0.28849 0.63252 0.632 0.63252s0.63304-0.28942 0.63304-0.63252c0-0.34309-0.28952-0.63252-0.63304-0.63252z"/>
</g>
</svg>
