<svg id="a" width="10mm" height="10mm" version="1.1" viewBox="0 0 53.71 53.71" xmlns="http://www.w3.org/2000/svg">
<g id="b" transform="translate(-49.212 -77.258)">
<path id="c" d="m67.219 86.847-8.5695 8.5695 0.89452 0.89504 7.675-7.675 13.06 13.06h-4.1403v4.8049h4.1682l-13.088 13.088-7.6734-7.6734-0.89503 0.89503 8.5685 8.5685 14.878-14.878h5.4911v3.3486l5.8983-5.7531-5.8983-5.7526v3.3522h-5.519zm-0.6873 9.8681 0.33383 14.045h1.3823l0.33383-14.045zm0.86661 16.239c-0.34352 0-0.63149 0.28942-0.63149 0.63251 0 0.3431 0.28797 0.63252 0.63149 0.63252s0.63355-0.28942 0.63355-0.63252c0-0.34309-0.29004-0.63251-0.63355-0.63251z"/>
</g>
</svg>
