<svg id="a" width="10mm" height="10mm" version="1.1" viewBox="0 0 53.71 53.71" xmlns="http://www.w3.org/2000/svg">
<g id="b" transform="translate(-38.629 -81.756)">
<path id="c" d="m46.869 91.173v1.2656h24.604l11.093 16.172-11.093 16.174h-24.604v1.2656h25.271l11.959-17.439-11.959-17.438zm10.605 3.3342c-0.2254 2e-3 -0.42228 8e-3 -0.58652 0.0171l0.0682 1.2635c1.1432-0.0615 4.3864 0.0147 7.4259 1.5374 0.6838 0.34255 1.3562 0.76123 1.9978 1.2645l-18.652 10.768 0.0486 0.41238c0.44994 3.9109 1.8915 6.6892 3.729 8.6305l-2.7347 1.5787 0.63304 1.0955 3.0613-1.7673c0.82863 0.70715 1.7091 1.2767 2.5988 1.7224 3.3407 1.6736 6.7445 1.7388 8.0584 1.6681l-0.0682-1.2619c-1.1432 0.0615-4.3843-0.0141-7.4238-1.5368-0.6839-0.34261-1.3569-0.76164-1.9988-1.265l18.651-10.768-0.047-0.41238c-0.44996-3.9111-1.8919-6.6892-3.7295-8.6305l2.7337-1.5782-0.63304-1.0955-3.0603 1.7668c-0.82839-0.70681-1.7083-1.2768-2.5978-1.7224-2.9231-1.4644-5.8962-1.6984-7.474-1.6867zm9.9017 4.9676c1.6816 1.6881 3.0178 4.1391 3.5114 7.7349l-18.253 10.539c-1.682-1.6884-3.0191-4.1396-3.5124-7.736z"/>
</g>
</svg>
