<svg id="a" width="10mm" height="10mm" version="1.1" viewBox="0 0 53.71 53.71" xmlns="http://www.w3.org/2000/svg">
<g id="b" transform="translate(-31.485 -111.39)">
<path id="c" d="m53.992 120.98-8.5695 8.5695 0.89451 0.89503 7.675-7.675 15.476 15.477-15.476 15.476-7.6734-7.6734-0.89503 0.89503 8.5685 8.5685 17.266-17.266zm-1.3622 10.36-0.06408 1.264c1.596 0.083 2.8937 0.35069 3.8819 0.9586l-8.6517 4.9945 0.07804 0.43718c0.27685 1.5557 0.78311 2.7698 1.4934 3.685l-1.2707 0.73329 0.63304 1.0955 1.5544-0.89711c0.06919 0.0551 0.13917 0.10922 0.21084 0.16072 1.3157 0.94537 2.9628 1.269 4.8126 1.3653l0.06666-1.2635c-1.5965-0.083-2.8951-0.35129-3.8835-0.95963l8.6527-4.9956-0.07803-0.43563c-0.277-1.5566-0.78356-2.7712-1.4945-3.6866l1.2697-0.73329-0.63252-1.094-1.5534 0.89659c-0.069-0.0549-0.13884-0.10884-0.21032-0.1602-1.3157-0.94537-2.9649-1.269-4.8147-1.3653zm4.8224 3.1026c0.54666 0.6741 0.95695 1.6026 1.2346 2.8567l-8.201 4.7341c-0.54646-0.67389-0.95707-1.6021-1.2346-2.8536z"/>
</g>
</svg>
