<svg id="a" width="10mm" height="10mm" version="1.1" viewBox="0 0 53.71 53.71" xmlns="http://www.w3.org/2000/svg">
<g id="b" transform="translate(-43.127 -77.787)">
<path id="c" d="m70.517 87.787c-2.33 0.0521-4.5769 1.2836-5.8276 3.4499l-6.0554 10.489 1.0955 0.63304 6.056-10.489c1.5664-2.713 4.9842-3.6288 7.6972-2.0624 2.713 1.5664 3.6288 4.9842 2.0624 7.6972l-2.4887 4.3103-2.9704-1.7146-0.02377 8.1421 7.0394-4.0917-2.9492-1.7027 2.4887-4.3108c1.9058-3.301 0.77555-7.52-2.5254-9.4258-1.1347-0.65513-2.3783-0.95177-3.5987-0.92449zm14.933 14.391-12.796 7.3877c-1.0755-1.2622-2.9425-1.623-4.4271-0.76584-1.4847 0.85717-2.1061 2.6543-1.5508 4.2168l-12.796 7.3877 0.63304 1.0966 12.796-7.3877c1.0755 1.2622 2.943 1.623 4.4276 0.76584 1.4847-0.85717 2.1056-2.6542 1.5503-4.2168l12.796-7.3877z"/>
</g>
</svg>
