<svg id="a" width="10mm" height="10mm" version="1.1" viewBox="0 0 53.71 53.71" xmlns="http://www.w3.org/2000/svg">
<g id="b" transform="translate(-33.602 -88.635)">
<path id="c" d="m59.825 97.384v8.7173h-2.7404l3.3734 5.7128 3.3729-5.7128h-2.7404v-8.7173zm0.63304 14.605c-1.9264 0-3.5016 1.5737-3.5016 3.5 0 1.9264 1.5752 3.5021 3.5016 3.5021s3.5021-1.5757 3.5021-3.5021c0-1.9264-1.5757-3.5-3.5021-3.5zm-9.3891 0.12764v2.7404h-8.7173v1.2656h8.7173v2.7404l5.7128-3.3729zm18.778 0-5.7128 3.3734 5.7128 3.3729v-2.7404h8.7173v-1.2656h-8.7173zm-9.3886 7.0492-3.3734 5.7128h2.7404v8.7173h1.2656v-8.7173h2.7404z"/>
</g>
</svg>
