<svg id="a" width="10mm" height="10mm" version="1.1" viewBox="0 0 53.71 53.71" xmlns="http://www.w3.org/2000/svg">
<g id="b" transform="translate(-27.517 -66.675)">
<path id="c" d="m53.739 75.424v8.7173h-2.7404l3.3734 5.7128 3.3729-5.7128h-2.7404v-8.7173zm14.526 0c-1.1012 4e-3 -2.2956 0.5512-3.4861 1.7405l0.89452 0.89659c1.0311-1.03 1.9106-1.369 2.5973-1.3715 0.68669-2e-3 1.2508 0.31929 1.6934 0.85369 0.44263 0.53441 0.72532 1.28 0.76171 1.9901 0.0364 0.71008-0.15988 1.3574-0.60152 1.803l-2.0603 2.035-0.0021 2e-3c-0.58032 0.58548-0.90238 1.068-1.0526 1.5529-0.15026 0.48483-0.11369 0.8923-0.11369 1.2692v1.4805h1.264v-1.4805c0-0.42834-0.01271-0.66521 0.05839-0.89452 0.0708-0.22834 0.24184-0.53086 0.73846-1.033l0.0041-4e-3 2.0583-2.035 0.0041-2e-3c0.73833-0.74491 1.0175-1.7696 0.96686-2.758-0.0507-0.98837-0.41896-1.967-1.0526-2.7321-0.6337-0.76509-1.571-1.3165-2.6722-1.3126zm-0.78704 13.617c-0.34351 0-0.632 0.28942-0.632 0.63252 0 0.34309 0.28849 0.632 0.632 0.632 0.34352 0 0.63304-0.28891 0.63304-0.632 0-0.3431-0.28952-0.63252-0.63304-0.63252zm-13.106 0.98805c-1.9264 0-3.5016 1.5737-3.5016 3.5 0 1.9264 1.5752 3.5021 3.5016 3.5021 1.9264 0 3.5021-1.5757 3.5021-3.5021 0-1.9264-1.5757-3.5-3.5021-3.5zm-9.3891 0.12764v2.7404h-8.7173v1.2656h8.7173v2.7404l5.7128-3.3729zm18.778 0-5.7128 3.3734 5.7128 3.3729v-2.7404h8.7173v-1.2656h-8.7173zm-9.3886 7.0492-3.3734 5.7128h2.7404v8.7173h1.2656v-8.7173h2.7404z"/>
</g>
</svg>
