<svg id="a" width="10mm" height="10mm" version="1.1" viewBox="0 0 53.71 53.71" xmlns="http://www.w3.org/2000/svg">
<g id="b" transform="translate(-55.298 -53.71)">
<path id="c" d="m78.746 56.877v4.2018h-6.6637v-1.5394h-2.3404v5.4193h2.3404v-1.5394h5.7113c-0.24729 0.33973-0.40486 0.74934-0.44442 1.1782l-2.7693 30.047 2.8381 3.9367-0.46974 5.673h10.409l-0.46974-5.673 2.8391-3.9367-2.7693-30.047c-0.0395-0.42888-0.19764-0.83849-0.44494-1.1782h5.7113v1.5394h2.3404v-5.4193h-2.3404v1.5394h-6.6637v-4.2018zm1.2656 1.2635h4.283v2.9383h-4.283zm-0.54932 5.6642h5.3806c0.48035 0 0.80341 0.3589 0.85421 0.91003l2.7264 29.57-2.1673 3.0071h-8.2072l-2.1663-3.0071 2.7264-29.57c0.0508-0.55113 0.37282-0.91003 0.85317-0.91003zm-0.77153 34.753h6.9246l0.36897 4.4307h-7.6626z"/>
</g>
</svg>
