<svg id="a" width="10mm" height="10mm" version="1.1" viewBox="0 0 53.71 53.71" xmlns="http://www.w3.org/2000/svg">
<g id="b" transform="translate(-6.35 -76.994)">
<path id="c" d="m20.522 83.799-8.4884 14.732 0.0119-0.0176c-2.7287 4.4033-2.8621 9.961-0.33435 14.503 2.5278 4.5425 7.3204 7.3598 12.494 7.3598h28.792l-4.2034 2.4278 0.63252 1.0935 7.0802-4.086-7.0838-4.0897-0.63304 1.0955 3.975 2.295h-28.559c-4.7146 0-9.0829-2.5675-11.388-6.7107-2.3056-4.1432-2.1851-9.2091 0.3023-13.223l6e-3 -8e-3 8.494-14.742zm3.6174 11.614c-5.9055 0-10.705 4.7993-10.705 10.705s4.7998 10.707 10.705 10.707c5.9055 0 10.707-4.8019 10.707-10.707s-4.8014-10.705-10.707-10.705zm0 1.2635c5.2218 0 9.4413 4.2194 9.4413 9.4413s-4.2195 9.4413-9.4413 9.4413-9.4418-4.2195-9.4418-9.4413 4.22-9.4413 9.4418-9.4413zm0.062 6.705c-1.5043 0-2.7378 1.232-2.7378 2.7363 0 1.5043 1.2335 2.7383 2.7378 2.7383 1.5043 0 2.7368-1.2341 2.7368-2.7383 0-1.5043-1.2325-2.7363-2.7368-2.7363zm0 1.2656c0.82061 0 1.4728 0.65009 1.4728 1.4707s-0.65216 1.4728-1.4728 1.4728c-0.82062 0-1.4723-0.65216-1.4723-1.4728s0.65165-1.4707 1.4723-1.4707zm29.727 15.138 0.047 0.0274-0.047 0.0274z"/>
</g>
</svg>
