<svg width="10mm" height="10mm" version="1.1" viewBox="0 0 200 200" xmlns="http://www.w3.org/2000/svg">
<g fill="none">
<g stroke="#000" stroke-width="5">
<circle cx="67.161" cy="83.671" r="7.9449"/>
<circle cx="133.38" cy="83.671" r="7.9449"/>
<circle cx="100.27" cy="83.671" r="7.9449"/>
<circle cx="67.161" cy="116.33" r="7.9449"/>
<circle cx="133.38" cy="116.33" r="7.9449"/>
<circle cx="100.27" cy="116.33" r="7.9449"/>
<path d="m46.967 49.664h106.07"/>
<path d="m46.967 150.34h106.07"/>
<path d="m67.161 49.664v26.062"/>
<path d="m67.161 91.616v16.769"/>
<path d="m67.161 124.27v26.062"/>
<path d="m100.27 49.664v26.062"/>
<path d="m100.27 91.616v16.769"/>
<path d="m100.27 124.27v26.062"/>
<path d="m133.38 49.664v26.062"/>
<path d="m133.38 91.616v16.769"/>
<path d="m133.38 124.27v26.062"/>
<path d="m46.967 83.671 12.249-2e-6"/>
<path d="m75.106 83.671h17.218"/>
<path d="m108.21 83.671h17.218"/>
<path d="m141.32 83.671 11.711 2e-6"/>
<path d="m46.967 116.33h12.249"/>
<path d="m75.106 116.33h17.218"/>
<path d="m108.21 116.33h17.218"/>
<path d="m141.32 116.33h11.711"/>
</g>
</g>
</svg>
