<svg id="a" width="10mm" height="10mm" version="1.1" viewBox="0 0 53.71 53.71" xmlns="http://www.w3.org/2000/svg">
<g id="b" transform="translate(-106.56 -122.18)">
<path id="c" d="m122.15 131-2.5745 0.68937 3.9305 14.666 2.574-0.68937zm22.537 0-3.9295 14.666 2.5735 0.68937 3.93-14.666zm-18.983 3.4324v1.264h15.43v-1.264zm1.4102 5.5883v1.2656h12.61v-1.2656zm-10.431 4.9284-0.63097 1.0955 4.0861 2.3596h-11.549v1.2656h11.604l-4.0845 2.3596 0.63097 1.0955 7.0528-4.07zm33.472 0-7.1091 4.1057 7.0528 4.07 0.63097-1.0955-4.0845-2.3596h11.604v-1.2656h-11.549l4.086-2.3596zm-21.566 0.66146v1.2656h9.6599v-1.2656zm0 5.5878v1.2656h9.6599v-1.2656zm-5.0829 0.52038-3.9305 14.666 2.5745 0.68936 3.93-14.666zm19.825 0-2.5735 0.68937 3.9295 14.666 2.574-0.68936zm-16.217 5.0695v1.2656h12.61v-1.2656zm-1.4102 5.5898v1.2635h15.43v-1.2635z" color="#000000" stroke-dashoffset="2.3906" style="paint-order:markers stroke fill"/>
</g>
</svg>
