<svg id="a" width="10mm" height="10mm" version="1.1" viewBox="0 0 53.71 53.71" xmlns="http://www.w3.org/2000/svg">
<g id="b" transform="translate(-98.954 -121.44)">
<path id="c" d="m103.52 129.51v29.826h7.629v7.7422h29.324v-7.7422h7.629v-29.826zm1.2661 1.2635h42.051v27.297h-7.6269v7.7422h-26.795v-7.7422h-7.6285zm12.343 7.9499c-1.2545 0-2.2864 1.017-2.3151 2.265l-0.49764 5.1842 1.2578 0.12092 0.31781-3.2975c0.35868 0.22857 0.78343 0.36174 1.2371 0.36174 0.44196 0 0.856-0.12635 1.2087-0.34417l0.79426 9.9064c0.0199 1.2554 1.0571 2.28 2.3172 2.28 1.2586 0 2.2935-1.0222 2.3156-2.2758l0.84852-9.9167c0.35484 0.22157 0.77242 0.35037 1.2185 0.35037 0.43949 0 0.85235-0.12447 1.2041-0.34003l0.76585 9.8986c0.018 1.2571 1.056 2.2836 2.3172 2.2836 1.2574 0 2.2916-1.0203 2.3156-2.2722l0.87902-9.9229c0.35603 0.22315 0.77585 0.35295 1.2237 0.35295 0.44677 0 0.86511-0.12925 1.2206-0.3514l0.28526 3.2814 1.2614-0.10955-0.44959-5.147c-6e-3 -1.2678-1.0489-2.3079-2.3177-2.3079-1.2674 0-2.3103 1.038-2.3182 2.3037l-0.87643 9.8919c-0.35585-0.22372-0.7756-0.35398-1.2237-0.35398-0.43974 0-0.85221 0.12497-1.2041 0.34106l-0.76533-9.8981c-0.0183-1.2568-1.0566-2.2846-2.3177-2.2846-1.2576 0-2.2914 1.022-2.3151 2.2743l-0.85059 9.9172c-0.3545-0.22129-0.77154-0.34985-1.217-0.34985-0.44186 0-0.85627 0.12612-1.2092 0.34416l-0.79582-9.9043c-0.0199-1.2555-1.0551-2.2815-2.3151-2.2815zm0 1.2656c0.58856 0 1.0506 0.46392 1.0506 1.0526s-0.46192 1.0506-1.0506 1.0506c-0.58862 0-1.0526-0.46189-1.0526-1.0506 0-0.58868 0.46403-1.0526 1.0526-1.0526zm8.7028 0c0.58861 0 1.0526 0.46386 1.0526 1.0526 1e-5 0.5888-0.46403 1.0506-1.0526 1.0506-0.58862 0-1.0506-0.46196-1.0506-1.0506 1e-5 -0.58862 0.46197-1.0526 1.0506-1.0526zm8.7054 0c0.58861 0 1.0526 0.46424 1.0526 1.0526 1e-5 0.58841-0.46403 1.0506-1.0526 1.0506-0.58862 0-1.0532-0.46202-1.0532-1.0506 0-0.58855 0.46455-1.0526 1.0532-1.0526zm-13.088 11.842c0.58861 0 1.0506 0.46399 1.0506 1.0526-1e-5 0.58867-0.46197 1.0526-1.0506 1.0526-0.58854 0-1.0526-0.46389-1.0526-1.0526s0.46394-1.0526 1.0526-1.0526zm8.6698 0c0.58862 0 1.0511 0.46395 1.0511 1.0526 0 0.58871-0.46249 1.0526-1.0511 1.0526s-1.0526-0.46393-1.0526-1.0526c0-0.58871 0.46404-1.0526 1.0526-1.0526z"/>
</g>
</svg>
