<svg id="a" width="10mm" height="10mm" version="1.1" viewBox="0 0 53.71 53.71" xmlns="http://www.w3.org/2000/svg">
<g id="b" transform="translate(-158.75 -45.244)">
<path id="c" d="m169.79 51.902v2.898h4.0943v-2.898zm19.231 0-8.924 15.455 1.0955 0.63252 7.1934-12.46v36.757h1.264v-36.761l7.1934 12.463 1.0955-0.63046zm-12.398 5.1e-4v9.4263h4.054l0.72347-1.2656h-3.5135v-8.1607zm23.527 0v8.1607h-3.513l0.72347 1.2656h4.0535v-9.4263zm-30.36 6.2487v2.898h4.0943v-2.898zm6.8528 5.2477v17.563h9.9022v-1.2656h-8.6367v-15.032h1.2521l0.72347-1.2656zm21.511 0 0.72347 1.2656h1.2521v15.032h-8.754v1.2656h10.02v-17.563zm-28.364 1.0015v2.898h4.0943v-2.898zm0 6.2492v2.898h4.0943v-2.898zm0 6.2492v2.898h4.0943v-2.898zm6.8332 6.1981v9.1984h1.264v-7.9328h8.6579v-1.2656zm14.752 0v1.2656h8.7752v7.9328h1.264v-9.1984zm-21.585 0.0512v2.898h4.0943v-2.898zm0 6.2492v2.8985h4.0943v-2.8985z" stop-color="#000000"/>
</g>
</svg>
