<svg width="10mm" height="10mm" version="1.1" viewBox="0 0 200 200" xmlns="http://www.w3.org/2000/svg">
<path d="m130.2 28.655v103.86c0 3.5766-0.58207 7.1294-1.7234 10.519l-0.86122 2.5578c-3.1708 9.417-8.1193 18.138-14.577 25.69l-6.5794 7.6941c-1.6149 1.8885-3.9718 2.9807-6.4566 2.992-2.4848-0.0113-4.8417-1.1035-6.4566-2.992l-6.5794-7.6941c-6.4578-7.5519-11.406-16.273-14.577-25.69l-0.86122-2.5578c-1.1413-3.3896-1.7234-6.9424-1.7234-10.519v-100.41c0-7.8015 6.2807-14.082 14.082-14.082h15.89c7.8015 0 14.082 6.2807 14.082 14.082v84.143c0 7.8015-6.2807 14.082-14.082 14.082-7.8015 0-14.082-6.2807-14.082-14.082v-76.547" fill="none" stroke="#000" stroke-width="5"/>
</svg>
