<svg width="10mm" height="10mm" version="1.1" viewBox="0 0 200 200" xmlns="http://www.w3.org/2000/svg">
<path d="m49.83 73.076v53.771h5l9.76e-4 -23.666 22.069 23.666h6.8359l-22.068-23.666h4.6465c8.2839 0 15.053-6.7688 15.053-15.053 0-8.2839-6.7688-15.053-15.053-15.053zm5 5h11.484c5.5817-1e-6 10.053 4.471 10.053 10.053 0 5.5817-4.471 10.053-10.053 10.053h-11.484z"/>
<path d="m85.367 25.928a76.669 76.669 0 0 0-57.4 74.072 76.669 76.669 0 0 0 57.012 73.986 233.19 233.19 0 0 0 12.537-73.986 233.19 233.19 0 0 0-12.148-74.072z" fill="none" stroke="#000" stroke-width="5"/>
<path d="m111.76 76.146v5.7168l54.529 30.225v-5.7168l-54.529-30.225zm0 33.783v5.7168l54.529 30.225v-5.7168l-54.529-30.225zm0 33.781v5.7168l54.529 30.225v-5.7168l-54.529-30.225z"/>
</svg>
