<svg id="a" width="10mm" height="10mm" version="1.1" viewBox="0 0 53.71 53.71" xmlns="http://www.w3.org/2000/svg">
<g id="b" transform="translate(-28.31 -105.57)">
<path id="c" d="m55.236 106.68v3.1564h-12.635v24.611c-0.81541 0.29089-1.4051 1.0746-1.4051 1.9849 0 0.91031 0.58968 1.6924 1.4051 1.9828v7.7726h1.2656v-7.7313c0.59998-0.16985 1.0943-0.60132 1.3498-1.1612h22.652v8.8925h1.2656v-36.351h-12.635v-3.1564zm-11.369 4.422h24.002v24.928h-22.504c-0.03006-0.15259-0.07701-0.29952-0.13849-0.43873l19.731-20.718-0.91571-0.87126-19.65 20.633c-0.16189-0.0993-0.33836-0.17663-0.52452-0.22944zm12.001 28.666-4.8359 9.6408 1.0134 0.50798 3.1905-6.3614v14.605h1.2635v-14.607l3.1921 6.3645 1.0123-0.50747z"/>
</g>
</svg>
