<svg id="a" width="10mm" height="10mm" version="1.1" viewBox="0 0 53.71 53.71" xmlns="http://www.w3.org/2000/svg">
<g id="b" transform="translate(-83.873 -100.81)">
<path id="c" d="m115.11 109.23c-2.7635 0-5.0178 2.2537-5.0178 5.0173 0 2.5492 1.9182 4.6635 4.3848 4.9764v4.5294h1.2635v-4.5289c2.4676-0.31198 4.3868-2.4271 4.3868-4.977 0-2.7635-2.2537-5.0173-5.0173-5.0173zm0 1.2656c2.0799 0 3.7517 1.6718 3.7517 3.7517s-1.6718 3.7522-3.7517 3.7522-3.7543-1.6724-3.7543-3.7522 1.6744-3.7517 3.7543-3.7517zm12.912 16.254-12.282 4.0938v-4.0721h-1.2635v4.4928l-12.601 4.2003h-12.761v1.2656h12.967l26.342-8.7814zm-1.172 8.7147v1.2656h5.4901v-1.2656z"/>
</g>
</svg>
