<svg id="a" width="10mm" height="10mm" version="1.1" viewBox="0 0 53.71 53.71" xmlns="http://www.w3.org/2000/svg">
<g id="b" transform="translate(-43.127 -99.748)">
<g id="c" transform="translate(-10.518 21.125)">
<path id="d" d="m87.516 94.653 3.2775 2.1073-3.2775 2.1073" fill="none" stroke="#000" stroke-width="1.265"/>
<path id="e" d="m78.829 96.76h11.808" fill="none" stroke="#000" stroke-width="1.265"/>
<path id="f" d="m95.025 91.506v22.25h-33.375v-22.25" fill="none" stroke="#000" stroke-width="1.265"/>
<path id="g" d="m95.188 105.33h4.1638v14.118" fill="none" stroke="#000" stroke-width="1.265"/>
<path id="h" d="m68.922 94.672 3.2775 2.1073-3.2775 2.1073" fill="none" stroke="#000" stroke-width="1.265"/>
<path id="i" d="m64.512 96.779h7.5306" fill="none" stroke="#000" stroke-width="1.265"/>
<path id="j" d="m70.297 101.95 3.8076-0.82747-0.82747 3.8076" fill="none" stroke="#000" stroke-width="1.265"/>
<path id="k" d="m68.669 106.55 5.3249-5.3249" fill="none" stroke="#000" stroke-width="1.265"/>
<path id="l" d="m78.289 93.98c-1.5276 0-2.7793 1.2517-2.7793 2.7793 0 1.5276 1.2517 2.7793 2.7793 2.7793 1.5276 0 2.7793-1.2517 2.7793-2.7793 0-1.5276-1.2517-2.7793-2.7793-2.7793z"/>
</g>
</g>
</svg>
