<svg id="a" width="10mm" height="10mm" version="1.1" viewBox="0 0 53.71 53.71" xmlns="http://www.w3.org/2000/svg">
<g id="b" transform="translate(-29.898 -80.962)">
<g id="c" transform="translate(-62.884 -11.07)">
<path id="d" transform="translate(68.385 67.01)" d="m34.127 50.185c-1.5196 0-2.7812 1.2617-2.7812 2.7813s1.2616 2.7793 2.7812 2.7793c1.5196 0 2.7793-1.2597 2.7793-2.7793s-1.2597-2.7813-2.7793-2.7813z" stop-color="#000000" style="paint-order:stroke fill markers"/>
<path id="e" transform="translate(124.7 91.238)" d="m7.0314 18.393-0.00782 9.2203 7.9531-4.6896m-3.2184-12.414c0.70102 4.7056-1.5718 11.873-4.419 16.651" fill="none" stroke="#000" stroke-width="1.265" style="paint-order:stroke fill markers"/>
<path id="f" d="m113 102.47h25.828zm-2.5544 1.8056-6.8962 13.727zm-7.783 18.069 5.1e-4 15.289z" fill="none" stroke="#000" stroke-width="2.665" style="paint-order:stroke fill markers"/>
<circle id="g" cx="111.34" cy="102.45" r="2.0656" fill="none" stroke="#000" stroke-width="1.265" style="paint-order:stroke fill markers"/>
<path id="h" d="m99.272 137.39h6.7824" fill="none" stroke="#000" stroke-width="1.265" style="paint-order:stroke fill markers"/>
</g>
</g>
</svg>
