<svg id="a" width="10mm" height="10mm" version="1.1" viewBox="0 0 53.71 53.71" xmlns="http://www.w3.org/2000/svg">
<g id="b" transform="translate(-69.321 -96.044)">
<g id="c" transform="translate(-182.35 151.04)" fill="none" stroke="#000">
<path id="d" d="m277.26-13.266 9.207 0.49539-5.1166 7.6853m-12.083-3.0789c7.0921 0.38579 11.745-1.5248 16.73-4.3158" stroke-width="1.265" style="paint-order:stroke fill markers"/>
<circle id="e" cx="269.06" cy="-19.701" r="3.4733" stroke-width="1.265" style="paint-order:stroke fill markers"/>
<path id="f" d="m272.45-42.729 12.621 12.621m-13.013-18.902c1.6261 1.6261 1.6261 4.2624 0 5.8885-1.626 1.6261-4.2624 1.6261-5.8885-1e-6 -1.6261-1.6261-1.6261-4.2624 0-5.8885 1.626-1.6261 4.2624-1.6261 5.8885 1e-6z" stroke-width="2.665" style="paint-order:stroke fill markers"/>
<path id="g" d="m282.84-28.027c1.6029-1.6029 4.2017-1.6029 5.8046 3e-6 1.6029 1.6029 1.6029 4.2017 0 5.8046" stroke-width="2.665" style="paint-order:stroke fill markers"/>
<path id="h" d="m279.45-24.635 6.2945-6.2945 5.805 5.805-6.2945 6.2945" stroke-width="2.665" style="paint-order:stroke fill markers"/>
</g>
</g>
</svg>
