<svg id="a" width="10mm" height="10mm" version="1.1" viewBox="0 0 53.71 53.71" xmlns="http://www.w3.org/2000/svg">
<g id="b" transform="translate(-48.948 -93.927)">
<g id="c" transform="translate(-275.65 -32.405)">
<path id="d" d="m359.59 145.98-3.8567 4.4712 5.8642 1.0149m-10.469 6.5387v-27.536m-3.4923 19.662c-6.3128-0.74483-10.492-3.3738-9.9045-6.2313 0.58706-2.8575 5.7699-5.116 12.285-5.3532 6.5146-0.23718 12.474 1.6157 14.126 4.3916s-1.4829 5.6712-7.4298 6.8624m-17.293 7.8847h23.418z" fill="none" stroke="#000" stroke-width="1.265" style="paint-order:stroke fill markers"/>
<path id="e" d="m339.12 160.64c-0.69208 3e-5 -1.2531 0.56107-1.2532 1.2532 3e-5 0.69208 0.56107 1.2531 1.2532 1.2532 0.69208-3e-5 1.2531-0.56107 1.2532-1.2532-3e-5 -0.69208-0.56107-1.2531-1.2532-1.2532zm8.4951 0c-0.69209 2e-5 -1.2531 0.56106-1.2532 1.2532 3e-5 0.69209 0.56107 1.2531 1.2532 1.2532 0.69208-3e-5 1.2531-0.56107 1.2532-1.2532-3e-5 -0.69208-0.56107-1.2531-1.2532-1.2532zm8.4951 0c-0.69209 2e-5 -1.2531 0.56106-1.2532 1.2532 3e-5 0.69209 0.56107 1.2531 1.2532 1.2532 0.69208-3e-5 1.2531-0.56107 1.2532-1.2532-3e-5 -0.69208-0.56107-1.2531-1.2532-1.2532zm8.4951 0c-0.69208 3e-5 -1.2531 0.56107-1.2532 1.2532 3e-5 0.69208 0.56107 1.2531 1.2532 1.2532 0.69209-2e-5 1.2531-0.56106 1.2532-1.2532-3e-5 -0.69209-0.56107-1.2531-1.2532-1.2532zm-16.99 4.2519c-0.69209 2e-5 -1.2531 0.56107-1.2532 1.2532 3e-5 0.69209 0.56107 1.2531 1.2532 1.2532 0.69208-3e-5 1.2531-0.56107 1.2532-1.2532-2e-5 -0.69209-0.56106-1.2531-1.2532-1.2532zm8.4951 0c-0.69209 2e-5 -1.2531 0.56107-1.2532 1.2532 3e-5 0.69209 0.56107 1.2531 1.2532 1.2532 0.69208-3e-5 1.2531-0.56107 1.2532-1.2532-2e-5 -0.69209-0.56106-1.2531-1.2532-1.2532zm8.4951 0c-0.69209 3e-5 -1.2531 0.56107-1.2532 1.2532 3e-5 0.69208 0.56107 1.2531 1.2532 1.2532 0.69209-2e-5 1.2531-0.56106 1.2532-1.2532-2e-5 -0.69209-0.56107-1.2531-1.2532-1.2532zm-8.4951 4.2519c-0.69209 2e-5 -1.2531 0.56106-1.2532 1.2532 2e-5 0.69209 0.56107 1.2531 1.2532 1.2532 0.69209-3e-5 1.2531-0.56107 1.2532-1.2532-3e-5 -0.69208-0.56107-1.2531-1.2532-1.2532zm8.4951 0c-0.69208 3e-5 -1.2531 0.56107-1.2532 1.2532 2e-5 0.69209 0.56106 1.2531 1.2532 1.2532 0.69209-2e-5 1.2531-0.56107 1.2532-1.2532-3e-5 -0.69209-0.56107-1.2531-1.2532-1.2532zm0 4.2519c-0.69208 3e-5 -1.2531 0.56107-1.2532 1.2532 3e-5 0.69208 0.56107 1.2531 1.2532 1.2532 0.69209-2e-5 1.2531-0.56106 1.2532-1.2532-3e-5 -0.69209-0.56107-1.2531-1.2532-1.2532z" style="paint-order:stroke fill markers"/>
</g>
</g>
</svg>
