<svg id="a" width="10mm" height="10mm" version="1.1" viewBox="0 0 53.71 53.71" xmlns="http://www.w3.org/2000/svg">
<g id="b" transform="translate(-23.812 -74.083)">
<path id="c" d="m57.362 120.22 6.1651-3.5592-6.1651-3.5586m-13.389 7.1178-6.1651-3.5592 6.1651-3.5586m-5.3789 3.5589h24.146m-3.6113-21.303-3.8567 4.4712 5.8642 1.0149m-10.469 6.5387v-27.536m-3.4923 19.662c-6.3128-0.74483-10.492-3.3738-9.9045-6.2313 0.58706-2.8575 5.7699-5.116 12.285-5.3532 6.5146-0.23718 12.474 1.6157 14.126 4.3916s-1.4829 5.6712-7.4298 6.8624m-17.293 7.8847h23.418zm-5.0643 4.2203v10.757zm33.546 0v10.757z" fill="none" stroke="#000" stroke-width="1.265" style="paint-order:stroke fill markers"/>
</g>
</svg>
