<svg width="10mm" height="10mm" version="1.1" viewBox="0 0 200 200" xmlns="http://www.w3.org/2000/svg">
<g fill="none">
<g stroke="#000" stroke-width="5">
<path d="m182.99 102.33c-0.56336-0.32428-1.128-0.64628-1.694-0.96599-3.2841-1.8551-6.6262-3.6398-10.172-4.927s-7.3174-2.0689-11.083-1.859c-5.6781 0.31647-10.968 2.8348-16.102 5.2798-5.1345 2.445-10.464 4.9075-16.148 5.099-5.467 0.18424-10.828-1.7796-15.516-4.5983-0.45651-0.27448-0.90799-0.5573-1.3542-0.84823"/>
<path d="m176.03 59.275c-0.1716-0.032042-0.34323-0.063967-0.51487-0.095774-3.9346-0.72913-7.8983-1.3985-11.899-1.484-4.0007-0.085574-8.0634 0.43139-11.747 1.9955-5.2343 2.2228-9.3599 6.3813-13.365 10.419-4.0046 4.0375-8.1856 8.1573-13.467 10.266-4.6557 1.859-9.8557 2.0012-14.808 1.2263-0.08969-0.014033-0.17934-0.028362-0.26893-0.042986"/>
<path d="m174.58 144.86c-0.30825-0.36161-0.61757-0.72232-0.92795-1.0821-2.4716-2.8651-5.0225-5.6838-7.937-8.1044s-6.2176-4.4434-9.8561-5.5322c-5.4859-1.6416-11.362-1.0811-17.065-0.53652-5.7035 0.54459-11.598 1.039-17.046-0.72187-3.9681-1.2826-7.4551-3.702-10.421-6.6464"/>
<path d="m100 15.191v29.363"/>
<path d="m100 50.255v29.363"/>
<path d="m100 85.319v29.363"/>
<path d="m100 120.38v29.363"/>
<path d="m100 155.45v29.363"/>
</g>
</g>
<circle cx="76.006" cy="51.748" r="10.646"/>
<circle cx="76.006" cy="101.64" r="10.646"/>
<circle cx="34.217" cy="152.74" r="10.646"/>
<circle cx="29.82" cy="115.34" r="5.3496"/>
<circle cx="49.538" cy="138.54" r="5.3496"/>
<circle cx="57.303" cy="154.38" r="5.3496"/>
<circle cx="75.729" cy="158.95" r="5.3496"/>
<circle cx="26.591" cy="91.684" r="5.3496"/>
<circle cx="46.666" cy="99.25" r="5.3496"/>
<circle cx="47.79" cy="68.014" r="5.3496"/>
<circle cx="71.235" cy="75.505" r="5.3496"/>
<circle cx="51.31" cy="48.688" r="5.3496"/>
</svg>
