<svg id="a" width="10mm" height="10mm" version="1.1" viewBox="0 0 53.71 53.71" xmlns="http://www.w3.org/2000/svg">
<g id="b" transform="translate(-25.135 -57.679)">
<path id="c" d="m48.866 65.473a2.7602 2.7602 0 0 0-2.76 2.76 2.7602 2.7602 0 0 0 0.02842 0.39584l-7.0662 5.3511c-0.33596-0.1454-0.70558-0.22583-1.093-0.22583-1.5249 0-2.7735 1.2501-2.7735 2.775 0 0.74977 0.30202 1.4332 0.79013 1.9337l-2.6432 8.7178a2.7602 2.7602 0 0 0-2.219 2.7063 2.7602 2.7602 0 0 0 1.4278 2.4174v10.026h-2.1291v1.2656h6.9236v-1.2656h-2.1306v-10.025a2.7602 2.7602 0 0 0 1.4283-2.4179 2.7602 2.7602 0 0 0-0.76016-1.9022l2.6484-8.7395c1.2582-0.26199 2.2128-1.3838 2.2128-2.7161 0-0.15423-0.01263-0.30559-0.03721-0.4532l4.8679-3.6866c2.936 3.4438 4.4284 6.517 4.515 12.107l-3.5471-5.362-1.0563 0.69763 5.2772 7.9742 4.2814-8.492-1.1291-0.5705-2.5812 5.1201c-0.21247-5.4311-1.852-8.7939-4.7522-12.238l1.1524-0.87229a2.7602 2.7602 0 0 0 1.1245 0.23978 2.7602 2.7602 0 0 0 2.4655-1.5188h8.9932a2.7602 2.7602 0 0 0 2.4655 1.5188 2.7602 2.7602 0 0 0 1.142-0.24753l7.9726 6.2678 1.6485-2.096-8.029-6.3097a2.7602 2.7602 0 0 1 0-5.2e-4 2.7602 2.7602 0 0 0 0.02584-0.37465 2.7602 2.7602 0 0 0-2.76-2.76 2.7602 2.7602 0 0 0-2.3657 1.3374h-9.1927a2.7602 2.7602 0 0 0-2.3657-1.3374zm-10.891 9.5467c0.84126 0 1.51 0.6682 1.51 1.5095 0 0.84125-0.66873 1.51-1.51 1.51-0.84125 0-1.5095-0.66874-1.5095-1.51 0-0.84126 0.66822-1.5095 1.5095-1.5095z" stop-color="#000000" style="paint-order:stroke fill markers"/>
</g>
</svg>
