<svg id="a" width="10mm" height="10mm" version="1.1" viewBox="0 0 53.71 53.71" xmlns="http://www.w3.org/2000/svg">
<g id="b" transform="translate(-17.992 -57.415)">
<path id="c" d="m41.723 65.208a2.7602 2.7602 0 0 0-2.76 2.76 2.7602 2.7602 0 0 0 0.02842 0.39585l-7.0652 5.3511c-0.33581-0.14543-0.70552-0.22634-1.093-0.22634-1.5249 0-2.7755 1.2506-2.7755 2.7755 0 0.7494 0.30197 1.4322 0.79013 1.9327l-2.6432 8.7188a2.7602 2.7602 0 0 0-2.218 2.7063 2.7602 2.7602 0 0 0 1.4268 2.4169v10.026h-2.1291v1.2656h6.9241v-1.2656h-2.1291v-10.026a2.7602 2.7602 0 0 0 1.4273-2.4174 2.7602 2.7602 0 0 0-0.76068-1.9032l2.65-8.739c1.2578-0.262 2.2107-1.3833 2.2107-2.7156 0-0.15324-0.01246-0.30391-0.03669-0.45062l7.028-5.3247a2.7602 2.7602 0 0 0 1.125 0.23978 2.7602 2.7602 0 0 0 2.4655-1.5188h8.9932a2.7602 2.7602 0 0 0 2.4655 1.5188 2.7602 2.7602 0 0 0 1.1415-0.24753l7.9742 6.2673 1.6464-2.0955-8.0279-6.3092a2.7602 2.7602 0 0 0 0.02584-0.37569 2.7602 2.7602 0 0 0-2.76-2.76 2.7602 2.7602 0 0 0-2.3657 1.3374h-9.1932a2.7602 2.7602 0 0 0-2.3652-1.3374zm-2.0929 6.2652-0.87488 9.5214 1.2599 0.11524 0.58911-6.4089c2.5179 4.8263 2.5479 7.7326 1.8366 12.758l1.2521 0.17777c0.69565-4.9154 0.63637-8.2279-1.6862-12.955l4.6881 3.283 0.72657-1.0372zm-8.7969 3.2814c0.84126 0 1.51 0.66822 1.51 1.5095s-0.66873 1.51-1.51 1.51c-0.84125 0-1.5095-0.66873-1.5095-1.51s0.66821-1.5095 1.5095-1.5095z" stop-color="#000000" style="paint-order:stroke fill markers"/>
</g>
</svg>
