<svg id="a" width="10mm" height="10mm" version="1.1" viewBox="0 0 53.71 53.71" xmlns="http://www.w3.org/2000/svg">
<g id="b" transform="translate(-44.185 -87.577)">
<path id="c" d="m60.843 95.267a2.7602 2.7602 0 0 0-2.76 2.76 2.7602 2.7602 0 0 0 0.77566 1.9188l-7.2993 12.84c-1.254 0.26529-2.2035 1.3865-2.2035 2.7161 0 1.0431 0.58455 1.957 1.4418 2.4303v14.4h-2.1291v1.2656h6.9236v-1.2656h-2.1286v-14.401c0.85699-0.47354 1.4413-1.3868 1.4413-2.4293 0-0.72843-0.28553-1.394-0.74982-1.8908l5.8968-10.37c4.0175 2.0549 6.5682 4.325 8.784 9.4475l-5.333-3.5982-0.70745 1.0485 7.9277 5.348 0.70332-9.4847-1.2599-0.0935-0.42581 5.717c-2.2734-4.9316-5.0726-7.4114-9.0651-9.4821l0.81442-1.432a2.7602 2.7602 0 0 0 1.8299-1.465h12.516a2.7602 2.7602 0 0 0 2.4769 1.542 2.7602 2.7602 0 0 0 1.1731-0.262l12.439 8.3819 1.4883-2.2086-12.36-8.3323a2.7602 2.7602 0 0 0 0.02067-0.33952 2.7602 2.7602 0 0 0-2.76-2.76 2.7602 2.7602 0 0 0-2.3502 1.3126h-12.769a2.7602 2.7602 0 0 0-2.3502-1.3126zm-8.7137 18.724c0.84126 0 1.51 0.66874 1.51 1.51 0 0.84126-0.66873 1.5095-1.51 1.5095-0.84125 0-1.5095-0.66821-1.5095-1.5095 0-0.84125 0.66822-1.51 1.5095-1.51z" stop-color="#000000" style="paint-order:stroke fill markers"/>
</g>
</svg>
