<svg id="a" width="10mm" height="10mm" version="1.1" viewBox="0 0 53.71 53.71" xmlns="http://www.w3.org/2000/svg">
<g id="b" transform="translate(-26.458 -56.356)">
<path id="c" d="m60.601 64.017c-1.0137 0-1.9052 0.55249-2.389 1.371h-12.696a2.7602 2.7602 0 0 0-2.3502-1.3121 2.7602 2.7602 0 0 0-2.76 2.76 2.7602 2.7602 0 0 0 0.72554 1.8655l-7.2605 12.77a2.7602 2.7602 0 0 1-5.17e-4 0 2.7602 2.7602 0 0 0-2.1973 2.7027 2.7602 2.7602 0 0 0 1.4268 2.4164v14.55h-2.1291v1.2656h6.9236v-1.2656h-2.1286v-14.549a2.7602 2.7602 0 0 0 1.4273-2.4169 2.7602 2.7602 0 0 0-0.72864-1.8691l7.2569-12.766a2.7602 2.7602 0 0 0 1.9213-1.4852h12.491c0.4613 0.89623 1.396 1.5136 2.4676 1.5136 0.39834 0 0.77789-0.08549 1.1214-0.23874l8.8057 5.935c-2.3329 3.8166-5.065 6.3461-10.29 8.0047l4.0561-5.0741-0.98805-0.79117-5.9686 7.4709 9.3963 1.4666 0.19534-1.25-5.5635-0.86817c4.9818-1.7577 7.8849-4.4752 10.213-8.2501l2.5869 1.7436 1.4903-2.2092-12.311-8.2977c0.02078-0.13608 0.03152-0.27544 0.03152-0.41703 0-1.5249-1.2506-2.7755-2.7755-2.7755zm0 1.2656c0.84126 0 1.51 0.66873 1.51 1.51 0 0.84125-0.66873 1.51-1.51 1.51s-1.5095-0.66873-1.5095-1.51c0-0.84126 0.66821-1.51 1.5095-1.51z" fill="#000002" stop-color="#000000" style="paint-order:stroke fill markers"/>
</g>
</svg>
