<svg id="a" width="10mm" height="10mm" version="1.1" viewBox="0 0 53.71 53.71" xmlns="http://www.w3.org/2000/svg">
<g id="b" transform="translate(-39.158 -47.89)">
<path id="c" d="m52.136 51.67v12.721h9.6366v-7.1019l15.476 9.4475v5.2e-4c0.0105 0.054 0.0246 0.10773 0.0413 0.16019l-14.735 15.269c-0.45962-0.12315-0.97407 2.5e-4 -1.3214 0.36432-0.50458 0.52897-0.48296 1.3852 0.046 1.8898 0.52896 0.50462 1.3837 0.48503 1.8882-0.0439 0.34771-0.36452 0.44684-0.88513 0.30179-1.3384l14.733-15.268c0.45962 0.12349 0.97523-3.3e-4 1.3229-0.36483 0.44149-0.46285 0.48203-1.1759 0.1297-1.6841v-5.2e-4c-0.0503-0.0726-0.10804-0.14101-0.17414-0.20412-0.50818-0.48465-1.3191-0.48672-1.8294-0.0171l-15.879-9.6919v-4.1377zm1.2635 1.2656h7.1096v10.19h-7.1096zm17.048 2.2056-0.11214 1.2599 3.2902 0.29199c-0.80267 0.53168-1.5542 0.95542-3.0003 2.3322l0.87126 0.91571c1.5313-1.4578 2.2861-1.8518 3.0081-2.3084l-2.1663 3.083 1.0346 0.72708 3.9992-5.688zm-2.4164 8.2259c-0.52066 1.8156-0.48222 2.7924-0.57257 3.699l-1.7942-2.7735-1.062 0.6873 3.775 5.8374 3.1636-6.1919-1.126-0.57567-1.7156 3.3554c0.0618-0.78764-4e-3 -1.7775 0.51004-3.5533 4e-3 -0.0129-1.1782-0.48473-1.1782-0.48472zm-7.0481 21.675v8.0527h-4.2127v1.2635h11.092v-1.2635h-4.2132v-8.0527zm-4.2127 11.511v1.2656h11.092v-1.2656z" stop-color="#000000" style="paint-order:stroke fill markers"/>
</g>
</svg>
