<svg id="a" width="10mm" height="10mm" version="1.1" viewBox="0 0 53.71 53.71" xmlns="http://www.w3.org/2000/svg">
<g id="b" transform="translate(-48.419 -64.558)">
<path id="c" d="m84.25 76.399-10.051 5.16e-4v13.962h-6.1118v1.264h6.1118v14.227h8.2667c0.26376 0.34834 0.6814 0.57567 1.1462 0.57567 0.78645 0 1.4376-0.65119 1.4376-1.4376 0-0.37104-0.1452-0.71179-0.38086-0.96841l7.8522-25.865-0.58394-0.19534c-4.1831-1.3939-5.7238-1.5427-7.6874-1.5586zm-15.439 0.28215-3.2344 5.6033 1.0955 0.63304 1.5079-2.6102v8.6837h1.2635v-8.6858l1.5079 2.6122 1.094-0.63304zm6.6518 0.98392h7.5215v26.035c-0.35892 0.17717-0.63613 0.5003-0.75138 0.88884h-6.7701zm8.7871 0.0062c1.8173 0.026 3.2019 0.20363 6.6931 1.3276l-6.6931 22.047zm-24.785 11.92c-0.78645 0-1.4376 0.65066-1.4376 1.4371 0 0.78645 0.65119 1.4376 1.4376 1.4376 0.57396 0 1.0765-0.34667 1.3064-0.83975h5.9082v-1.264h-5.9423c-0.24304-0.45647-0.72522-0.77101-1.2723-0.77101z" stop-color="#000000" style="paint-order:stroke fill markers"/>
</g>
</svg>
