<svg id="a" width="10mm" height="10mm" version="1.1" viewBox="0 0 53.71 53.71" xmlns="http://www.w3.org/2000/svg">
<g id="b" transform="translate(-108.48 -106.1)">
<path id="c" d="m138.93 115.14v3.5197h-0.078c-4.7668 0-8.6599 3.6332-8.6599 8.17v5.148h-6.6688v1.264h6.6688v5.6642c0 4.5369 3.8931 8.17 8.6599 8.17h0.078v3.6985h6.8187v-35.635zm1.2661 1.2635h4.2871v33.108h-4.2871zm-20.276 3.2437v6.3123h1.2635v-2.9456c1.8834 3.43 2.2071 4.882 2.2071 7.3789h1.2635c0-2.5987-0.42078-4.3915-2.3115-7.8853l2.5053 1.4459 0.63045-1.0955zm18.932 0.27802h0.078v25.885h-0.078c-4.1295 0-7.3964-3.0903-7.3964-6.904v-12.076c0-3.8136 3.2669-6.9045 7.3964-6.9045zm-23.952 11.281c-0.78645 0-1.4376 0.65066-1.4376 1.4371 0 0.78645 0.65119 1.4376 1.4376 1.4376 0.57396 0 1.0765-0.34666 1.3064-0.83974h5.9082v-1.264h-5.9423c-0.24304-0.45647-0.72522-0.77101-1.2723-0.77101z" stop-color="#000000" style="paint-order:stroke fill markers"/>
</g>
</svg>
