<svg id="a" width="10mm" height="10mm" version="1.1" viewBox="0 0 53.71 53.71" xmlns="http://www.w3.org/2000/svg">
<g id="b" transform="translate(-64.558 -87.312)">
<path id="c" d="m102.4 91.286-0.95136 0.83251 1.8821 2.1456c-3.2363-0.71806-6.3204-0.94671-8.6124-0.94671v1.2656c2.2152 0 5.2342 0.2249 8.3726 0.92294l-5e-3 0.02274-2.8887 0.57568 0.24702 1.2392 6.1903-1.233zm-4.3005 9.1478-10.051 5.2e-4v13.962h-6.1118v1.264h6.1118v14.227h8.2667c0.26376 0.34834 0.68141 0.57567 1.1462 0.57567 0.78645 0 1.4376-0.65118 1.4376-1.4376 0-0.37104-0.1452-0.7118-0.38086-0.96842l7.8522-25.865-0.58394-0.19533c-4.1831-1.3939-5.7238-1.5426-7.6874-1.5586zm-8.7871 1.2661h7.5215v26.035c-0.35892 0.17717-0.63612 0.5003-0.75138 0.88884h-6.7701zm8.7871 6e-3c1.8173 0.026 3.2019 0.20362 6.6931 1.3276l-6.6931 22.047zm-24.785 11.92c-0.78645 0-1.4376 0.65066-1.4376 1.4371 0 0.78645 0.65119 1.4376 1.4376 1.4376 0.57396 0 1.0765-0.34666 1.3064-0.83974h5.9082v-1.264h-5.9423c-0.24304-0.45647-0.72522-0.77102-1.2723-0.77102zm8.7152 3.2975v8.6842l-1.5079-2.6102-1.0955 0.63304 3.2344 5.6033 3.2344-5.6033-1.094-0.63304-1.5079 2.6122v-8.6863z" stop-color="#000000" style="paint-order:stroke fill markers"/>
</g>
</svg>
