<svg id="a" width="10mm" height="10mm" version="1.1" viewBox="0 0 53.71 53.71" xmlns="http://www.w3.org/2000/svg">
<g id="b" transform="translate(-33.073 -71.173)">
<path id="c" d="m66.511 78.652-1.1152 0.59738c3.5377 6.595 3.276 13.126 0.54208 18.507l-1.3761-8.2098-1.2459 0.20877 1.8474 11.033 8.4532-7.1954-0.82062-0.96273-5.1005 4.3424c2.2904-5.4604 2.2429-11.932-1.1844-18.321zm-27.549 5.3614v1.2656h5.8141c0.89678 0 1.5999 0.7026 1.5999 1.5994v5.3087c0 0.89678-0.70312 1.5994-1.5999 1.5994h-5.8141v1.2661h5.8141c1.5757 0 2.8655-1.2898 2.8655-2.8655v-0.08837l19.472 19.448h0.0057v2.6639h10.745v-2.6639h-6.9789l-23.244-23.218v-1.4506c0-1.5757-1.2898-2.8649-2.8655-2.8649zm0.59945 32.127v1.2635h41.332v-1.2635z"/>
</g>
</svg>
