<svg id="a" width="10mm" height="10mm" version="1.1" viewBox="0 0 53.71 53.71" xmlns="http://www.w3.org/2000/svg">
<g id="b" transform="translate(-68.792 -81.756)">
<path id="c" d="m95.647 112.97v-21.898m4.5244 7.0719-4.5244-7.8654-4.5244 7.8654m9.0489 7.754-4.5244 7.8654-4.5244-7.8654m-12.965 21.692c-2.2866 0-4.1403-1.8701-4.1403-4.177s1.8537-4.177 4.1403-4.177c2.2866 0 4.1403 1.8701 4.1403 4.177s-1.8537 4.177-4.1403 4.177m39.119-4.177c0 2.3069-1.8537 4.177-4.1403 4.177-2.2866 0-4.1403-1.8701-4.1403-4.177s1.8537-4.177 4.1403-4.177c2.2866 0 4.1403 1.8701 4.1403 4.177zm-43.259 1e-5c0-2.314 1.8628-4.1768 4.1768-4.1768h34.906c2.314 0 4.1768 1.8628 4.1768 4.1768 0 2.314-1.8629 4.1768-4.1768 4.1768h-34.906c-2.314 0-4.1768-1.8628-4.1768-4.1768" fill="none" stroke="#000" stroke-width="1.265"/>
</g>
</svg>
