<svg id="a" width="10mm" height="10mm" version="1.1" viewBox="0 0 53.71 53.71" xmlns="http://www.w3.org/2000/svg">
<g id="b" transform="translate(-43.921 -80.698)">
<g id="c" transform="translate(-111.15 .59299)">
<path id="d" d="m168.01 129.29v-39.764h27.838v39.764" fill="none" stroke="#000" stroke-width="1.265"/>
<path id="e" d="m167.38 85.266h14.629v4.2783" fill="none" stroke="#000" stroke-width="1.265"/>
<path id="f" d="m175.39 98.081c-1.6032-8.2e-5 -3.0673 0.91059-3.776 2.3487-0.70851 1.4381-0.5386 3.1538 0.43822 4.425m0 4.2902c-0.97703 1.2713-1.147 2.9873-0.43822 4.4256 0.70868 1.4381 2.1728 2.3488 3.776 2.3487" fill="none" stroke="#000" stroke-width="1.265"/>
<path id="g" transform="rotate(195)" d="m-195.82-52.829a0.66013 0.66013 0 0 0 0.47446-0.63323 0.66013 0.66013 0 0 0-0.66006-0.6604 0.66013 0.66013 0 0 0-0.66027 0.66055 0.66013 0.66013 0 0 0 0.65992 0.6599 0.66013 0.66013 0 0 0 0.18595-0.02682zm-4.4676 3.22e-4a0.66013 0.66013 0 0 0 0.47433-0.63373 0.66013 0.66013 0 0 0-0.65992-0.6599 0.66013 0.66013 0 0 0-0.66041 0.66005 0.66013 0.66013 0 0 0 0.65992 0.6599 0.66013 0.66013 0 0 0 0.18608-0.02632zm-4.4673-3.12e-4a0.66013 0.66013 0 0 0 0.47396-0.6331 0.66013 0.66013 0 0 0-0.66005-0.6604 0.66013 0.66013 0 0 0-0.66041 0.66005 0.66013 0.66013 0 0 0 0.66055 0.66027 0.66013 0.66013 0 0 0 0.18595-0.02682zm-4.4678-1.78e-4a0.66013 0.66013 0 0 0 0.47396-0.6331 0.66013 0.66013 0 0 0-0.66006-0.6604 0.66013 0.66013 0 0 0-0.66027 0.66055 0.66013 0.66013 0 0 0 0.66042 0.65977 0.66013 0.66013 0 0 0 0.18595-0.02682zm-4.4676 3.21e-4a0.66013 0.66013 0 0 0 0.47383-0.6336 0.66013 0.66013 0 0 0-0.65992-0.6599 0.66013 0.66013 0 0 0-0.66041 0.66005 0.66013 0.66013 0 0 0 0.66056 0.66027 0.66013 0.66013 0 0 0 0.18594-0.02682zm3.8888-2.2484c0.0416-0.01388 0.0828-0.0319 0.1223-0.05471 0.31578-0.18235 0.42385-0.58622 0.24142-0.90195-0.14649-0.25352-0.44247-0.3803-0.72701-0.3113-0.0612 0.01484-0.11994 0.03827-0.17445 0.06975-0.31579 0.18214-0.42419 0.58579-0.24205 0.90159 0.15942 0.27654 0.48835 0.39381 0.77979 0.29662zm3.8696-2.2342c0.0416-0.01389 0.0823-0.03177 0.1218-0.05457 0.31578-0.18236 0.42385-0.58622 0.24142-0.90195-0.14648-0.2535-0.44247-0.3803-0.72701-0.3113-0.0612 0.01484-0.11994 0.03827-0.17445 0.06975-0.31604 0.1822-0.42439 0.5862-0.24192 0.90209 0.15957 0.27631 0.48885 0.39321 0.78016 0.29599zm3.8691-2.234c0.0416-0.01389 0.0823-0.03177 0.1218-0.05457 0.31553-0.18231 0.42366-0.58581 0.24156-0.90146-0.14646-0.25393-0.44277-0.38075-0.72765-0.31167-0.0612 0.01494-0.11982 0.03867-0.17431 0.07025-0.31552 0.18231-0.42365 0.58581-0.24155 0.90146 0.15957 0.27631 0.48884 0.39321 0.78015 0.29599zm3.8688-2.2334c0.0416-0.01388 0.0828-0.03189 0.1223-0.0547 0.31578-0.18236 0.42385-0.58622 0.24142-0.90195-0.14658-0.25368-0.44278-0.38022-0.72751-0.31117-0.0612 0.01484-0.11994 0.03827-0.17445 0.06975-0.31552 0.18231-0.42365 0.58581-0.24155 0.90146 0.15942 0.27654 0.48835 0.39381 0.77979 0.29662z"/>
</g>
</g>
</svg>
