<svg width="10mm" height="10mm" version="1.1" viewBox="0 0 200 200" xmlns="http://www.w3.org/2000/svg">
<path d="m175.4 95.187c-2.4896-39.431-35.349-70.738-75.398-70.738-40.05 0-72.909 31.307-75.398 70.738zm-140.21-4.996c4.722-31.589 31.881-55.742 64.805-55.742s60.083 24.153 64.805 55.742zm-10.597 14.617 2e-3 4e-3c2.4896 39.431 35.349 70.738 75.398 70.738 40.05 0 72.909-31.307 75.398-70.738l2e-3 -4e-3zm140.2 5.0001c-4.722 31.589-31.881 55.742-64.807 55.742s-60.085-24.153-64.807-55.742z"/>
</svg>
