<svg width="10mm" height="10mm" version="1.1" viewBox="0 0 200 200" xmlns="http://www.w3.org/2000/svg">
<g fill="none">
<g stroke="#000" stroke-width="10">
<path d="m27.77 167.07v-129.02c0-2.2408 1.8039-4.0447 4.0447-4.0447h58.211c2.2408 0 4.0447 1.8039 4.0447 4.0447v129.02"/>
<path d="m27.77 85.446h66.301"/>
<path d="m16.801 167.07h88.238"/>
<path d="m136.88 58.564 8.3208 75.015c0.44922 4.0071-0.45058 8.0535-2.5403 11.425-3.9157 6.317-11.275 9.1589-18.1 6.9904-6.8264-2.1685-11.502-8.8334-11.549-16.394l-0.0468-35.062c-1.8e-4 -8.335-6.3678-15.091-14.223-15.091"/>
</g>
</g>
<path d="m108.34 28.264v9.4333c2.9791 1.374 5.9594 2.7486 9.8471 5.9712 3.8881 3.2227 8.6848 8.293 11.573 14.334 2.8885 6.0406 3.8685 13.051 4.849 20.06l16.173-7.9374a71.35 75.708 0 0 0-42.443-41.861z"/>
<rect x="166.02" y="18.143" width="13.524" height="153.72" rx="6.7618" ry="6.7618" fill="none" stroke="#000" stroke-width="5"/>
<circle cx="172.78" cy="168.35" r="15.95"/>
<rect x="166.02" y="99.252" width="13.524" height="72.611"/>
</svg>
