<svg width="10mm" height="10mm" version="1.1" viewBox="0 0 200 200" xmlns="http://www.w3.org/2000/svg">
<path d="m141.08 181.55c3.8304 0.0403 7.6619 0.0531 11.492-0.0229 1.5024-0.0459 3.1027-0.32585 4.2737-1.3397 1.2677-1.0931 2.04-2.6238 2.7276-4.1202 1.4302-3.2605 2.6968-6.5912 3.8292-9.9664 1.5096-4.4463 2.964-8.9331 5.0614-13.147 3.0686-6.2622 6.994-12.085 9.6866-18.534 4.2145-9.9574 6.1039-20.804 6.1631-31.588 0.0743-13.872-2.8857-27.805-8.9376-40.308-2.2428-4.6284-4.9496-9.0353-8.1198-13.087-1.4631-1.9152-2.9471-3.9265-3.5321-6.3069-0.44769-1.872-0.41758-3.8136-0.39821-5.7256 8e-3 -1.0713 0.14208-2.1383 0.0943-3.21-0.0457-2.4917-0.0401-4.992-0.3234-7.4713-0.17621-1.5276-0.58324-3.0571-1.4268-4.3588-0.54963-0.83636-1.1848-1.6582-2.0317-2.2117-1.0118-0.60127-2.2224-0.62925-3.3595-0.76536-2.4637-0.20278-4.8964-0.6665-7.3571-0.89306-1.2515-0.0866-2.551-0.1797-3.7616 0.22003-0.79438 0.29076-1.4858 0.87384-1.9164 1.6-0.48815 0.99364-0.54363 2.1257-0.63552 3.2109-0.19572 3.3396-0.13233 6.6872-0.15514 10.031 0.0876 7.0417 3.1924 13.999 8.418 18.729 2.6782 2.4583 5.7166 4.5135 8.2163 7.1679 3.7029 3.8732 6.5375 8.4987 8.83 13.319 5.3682 11.402 7.2774 24.329 5.8439 36.825-1.5145 13.357-6.7666 26.266-15.013 36.883-4.3172 5.5767-9.423 10.543-15.125 14.694h-87.243c-10.985-7.9888-19.746-19.023-24.941-31.58-4.9057-11.781-6.7589-24.863-5.0158-37.522 1.2761-9.3345 4.4609-18.454 9.5908-26.377 2.1727-3.3434 4.7677-6.4327 7.8408-8.9852 2.7084-2.2869 5.6355-4.376 7.8704-7.1619 3.8764-4.7539 5.9933-10.914 5.8202-17.048-0.01399-3.0853 0.03361-6.1752-0.17116-9.2556-0.09591-1.016-0.16503-2.0792-0.65314-2.9965-0.57131-0.90608-1.5366-1.5671-2.6041-1.7185-1.6214-0.24515-3.2666-0.022-4.881 0.17271-1.9655 0.27031-3.9297 0.55602-5.9071 0.72711-1.1589 0.13179-2.4254 0.21896-3.3572 1.0052-1.5336 1.3379-2.5538 3.2274-2.9002 5.2282-0.38422 2.1384-0.39734 4.3194-0.45725 6.4846-0.0106 1.0744-0.05447 2.1503-0.02937 3.224 0.12528 2.0359 0.16692 4.0849-0.02453 6.118-0.14764 1.605-0.66834 3.163-1.4758 4.5555-1.2693 2.2213-3.0004 4.1259-4.442 6.2305-5.0934 7.2401-8.7658 15.421-11.253 23.898-3.4221 11.76-4.4818 24.199-3.1384 36.37 1.0392 9.3159 3.5971 18.508 7.9336 26.838 3.0569 5.9293 6.7506 11.545 9.2225 17.765 2.081 5.1792 3.5617 10.578 5.6871 15.74 0.81648 1.9435 1.5343 3.9532 2.6971 5.7257 0.72664 1.1141 1.738 2.1069 3.0359 2.5071 1.6526 0.54211 3.416 0.39994 5.1278 0.44761 2.989 0.0258 5.9782 0.0208 8.967-0.0152-1.39e-4 -3.3644-2.79e-4 -6.7288-4.18e-4 -10.093 3.5916 0 7.1833 1e-5 10.775 1e-5v10.093h13.02v-10.093h10.775v10.093h13.02c1e-5 -3.3644 1e-5 -6.7288 2e-5 -10.093h10.775v10.093h13.02v-10.093h10.775v10.093z"/>
<path d="m102.17 37.417v62.654" fill="none" stroke="#000" stroke-width="20"/>
<circle cx="102.17" cy="134.64" r="10"/>
</svg>
