<svg width="10mm" height="10mm" version="1.1" viewBox="0 0 200 200" xmlns="http://www.w3.org/2000/svg">
<circle cx="107.04" cy="115.84" r="5.3183"/>
<path d="m15.6 61.652 72.988 72.988c7.9993 7.9993 19.249 9.3151 28.195 5.6094 8.9464-3.7057 15.971-12.59 15.971-23.902v-48.891h-97.209l-5.8047-5.8047h-14.141zm29.945 15.805h77.209v38.891c0 7.2826-4.2168 12.352-9.7988 14.664-5.582 2.3122-12.147 1.7082-17.297-3.4414l-50.113-50.113z"/>
<path d="m124.31 126.35-0.64648 2.4141h-2e-3l-0.64648 2.416 61.553 16.492v-5.1777z"/>
<path d="m128.4 113.93-1.293 4.8301 57.457 15.396v-5.1777z"/>
</svg>
