<svg width="10mm" height="10mm" version="1.1" viewBox="0 0 200 200" xmlns="http://www.w3.org/2000/svg">
<g fill="none">
<g stroke="#000">
<path d="m15.466 33.258h7.9043c5.8097 0 10.487 4.6771 10.487 10.487v59.924c0 5.8096-4.6771 10.487-10.487 10.487h-7.9043" stroke-width="5"/>
<path d="m113.77 47.868v-19.947l62.977 16.875-22.734 84.846c-6.2648 23.381-27.453 39.639-51.658 39.639l-5.1086-0.17867c6.2111 0 16.524-10.232 16.524-20.16v-49.399" stroke-width="10"/>
<path d="m113.77 79.542v-11.674" stroke-width="10"/>
</g>
</g>
<path d="m33.857 62.869h94.496a5 5 0 0 0 5-5 5 5 0 0 0-5-5h-94.496"/>
<path d="m33.857 94.543h94.496a5 5 0 0 0 5-5 5 5 0 0 0-5-5h-94.496"/>
</svg>
