<svg id="a" width="10mm" height="10mm" version="1.1" viewBox="0 0 53.71 53.71" xmlns="http://www.w3.org/2000/svg">
<g id="b" transform="translate(-19.949 -60.903)">
<path id="c" d="m31.883 64.316c-2.662 6.0921-1.777 13.101 2.1864 18.319l-6.1392-3.5445-0.63252 1.0955 9.5198 5.4963v-11.033h-1.265v7.8176c-4.0916-4.911-5.0921-11.736-2.5104-17.644zm19.549 5.0038-3.868 3.868c-1.1982 1.1982-1.198 3.1567 0 4.3548l0.43512 0.43512-19.131 18.922a2.8027 2.8027 0 0 0-2.8081 0.69608 2.8027 2.8027 0 0 0 0 3.9641 2.8027 2.8027 0 0 0 3.8137 0.12971l18.615 7.0709a2.8027 2.8027 0 0 0 0.79013 1.6185 2.8027 2.8027 0 0 0 3.9641 0 2.8027 2.8027 0 0 0 0.77463-1.5084l6.9339 1.2325c4.2995 0.76421 8.0827-3.0189 7.3184-7.3184l-2.1348-12.008-1.1415 1.141 0.27388 1.5389-12.548 12.548a2.8027 2.8027 0 0 0-3.299 0.28009l-18.607-7.0673a2.8027 2.8027 0 0 0-0.09095-0.43046l19.147-18.938 0.4408 0.44028c1.1981 1.1981 3.156 1.1987 4.3543 5.3e-4l3.8685-3.868-0.93586-0.93586-3.868 3.8685c-0.69613 0.69613-1.7873 0.69574-2.4836-5.29e-4l-2.7471-2.7466c-0.69625-0.69625-0.69623-1.7874 0-2.4836l3.868-3.8685zm14.118 25.726 1.417 7.9711c0.61062 3.4354-2.3493 6.3948-5.7847 5.7841l-7.2688-1.2919a2.8027 2.8027 0 0 0-0.26303-0.56379z" color="#000000" stroke-width=".26458"/>
</g>
</svg>
