<svg id="a" width="10mm" height="10mm" version="1.1" viewBox="0 0 53.71 53.71" xmlns="http://www.w3.org/2000/svg">
<g id="b" transform="translate(-23.046 -72.948)">
<path id="c" d="m45.137 75.479-0.63717 1.094 7.3789 4.2948h-16.367v1.2656h16.487l-7.4993 4.3889 0.63872 1.0919 10.395-6.0844zm13.585 10.392c-1.6945 7e-6 -3.0788 1.3851-3.0789 3.0794v0.61547l-18.441-0.14779c-0.48532-0.91856-1.439-1.4934-2.4779-1.4934-0.77407-8.8e-5 -1.475 0.31387-1.9823 0.82114-0.50727 0.50726-0.82071 1.2082-0.82062 1.9823 4e-3 1.4684 1.1403 2.6849 2.605 2.7885l8.1628 18.162c-0.37734 0.48779-0.58345 1.0866-0.58601 1.7032-1.6e-4 1.5482 1.2548 2.8031 2.8029 2.8029 0.57878-2e-3 1.1427-0.18333 1.6144-0.51883l4.0318 5.7748c2.4998 3.5806 7.85 3.5806 10.35 0l6.9815-10-1.6138-5.2e-4 -0.89452 1.2816h-17.745c-0.28827-1.1871-1.3119-2.0507-2.5306-2.1348l-8.1597-18.154c0.0896-0.11643 0.17007-0.23996 0.24029-0.36897l18.463 0.14831v0.6227c0 1.6944 1.3844 3.0794 3.0789 3.0794l5.4705 5.17e-4v-1.3234l-5.4705 5.17e-4c-0.98447 0-1.756-0.77234-1.756-1.757l-5.2e-4 -3.8845c0-0.98465 0.77194-1.756 1.7565-1.756l5.4705-5.17e-4v-1.3229zm-11.099 28.174h16.828l-4.6349 6.6384c-1.9974 2.8609-6.183 2.8604-8.1804-5.2e-4l-4.2261-6.0534c0.0924-0.1864 0.16393-0.38229 0.2129-0.58446z" color="#000000" stroke-width=".26458"/>
</g>
</svg>
