<svg width="10mm" height="10mm" version="1.1" viewBox="0 0 200 200" xmlns="http://www.w3.org/2000/svg">
<circle cx="100" cy="100" r="6.6479"/>
<circle cx="100" cy="100" r="50.424" fill="none" stroke="#000" stroke-width="10"/>
<path d="m85.362 53.087a34.064 34.064 0 0 1 24.021-24.157l3.5588 22.336-15.716-1.6128z"/>
<path d="m122.82 56.477a34.064 34.064 45 0 1 34.067-0.09643l-13.278 18.311-9.9727-12.254z"/>
<path d="m146.91 85.362a34.064 34.064 45 0 1 24.157 24.021l-22.336 3.5588 1.6128-15.716z"/>
<path d="m143.52 122.82a34.064 34.064 45 0 1 0.0964 34.067l-18.311-13.278 12.254-9.9727z"/>
<path d="m114.64 146.91a34.064 34.064 45 0 1-24.021 24.157l-3.5588-22.336 15.716 1.6128z"/>
<path d="m77.177 143.52a34.064 34.064 45 0 1-34.067 0.0964l13.278-18.311 9.9727 12.254z"/>
<path d="m53.087 114.64a34.064 34.064 45 0 1-24.157-24.021l22.336-3.5588-1.6128 15.716z"/>
<path d="m56.477 77.177a34.064 34.064 45 0 1-0.0964-34.067l18.311 13.278-12.254 9.9727z"/>
</svg>
