<svg width="10mm" height="10mm" version="1.1" viewBox="0 0 200 200" xmlns="http://www.w3.org/2000/svg">
<g fill="none">
<g stroke="#000" stroke-width="5">
<circle cx="100" cy="58.898" r="8.0508"/>
<circle cx="100" cy="58.898" r="23.835"/>
<circle cx="31.355" cy="106.96" r="8.0508"/>
<circle cx="31.355" cy="106.96" r="23.835"/>
</g>
</g>
<path d="m91.357 125.9c-3.3253 4.749-2.158 11.369 2.591 14.694 4.749 3.3253 11.369 2.158 14.694-2.591s2.158-11.369-2.591-14.694c-4.749-3.3253-11.369-2.158-14.694 2.591z"/>
<g fill="none" stroke="#000">
<g stroke-width="5">
<circle transform="rotate(250)" cx="-158.19" cy="121.89" r="8.0508"/>
<circle transform="rotate(250)" cx="-158.19" cy="121.89" r="23.835"/>
<path d="m37.95 102.35 55.455-38.83"/>
<path d="m65.677 82.931 34.323 49.018 34.323-49.018"/>
<path d="m106.59 63.516 55.455 38.83"/>
</g>
<path d="m20.251 42.421a150.49 150.49 0 0 1 79.749-22.868 150.49 150.49 0 0 1 79.747 22.867" stroke-width="10"/>
</g>
</svg>
