<svg id="a" width="10mm" height="10mm" version="1.1" viewBox="0 0 53.71 53.71" xmlns="http://www.w3.org/2000/svg">
<g id="b" transform="translate(-72.231 -74.612)">
<g id="c" transform="matrix(.26458 0 0 .26458 130.34 -54.227)">
<path id="d" d="m-138.84 678.98h84.051c14.069 0 25.395-10.785 25.395-24.18v-50.877z" fill="none" stroke="#000" stroke-width="10.072" style="paint-order:stroke fill markers"/>
<path id="e" d="m-100.07 541.02-7.4375 12.883 4.5801 2.6445-14.262 24.703c-1.1228-0.26748-2.2907-0.41406-3.4902-0.41406-0.73006 0-1.4484 0.0568-2.1524 0.1582l-21.924-37.975-13.303 7.6816 7.4375 12.883 4.5801-2.6445 14.277 24.727c-1.2878 1.3687-2.3289 2.971-3.0469 4.7344h-43.859v15.361h14.877v-5.2891h28.523c0.55787 1.829 1.4539 3.5153 2.6133 4.9883l-21.939 38 13.305 7.6797 7.4375-12.883-4.5801-2.6445 14.262-24.701c1.1234 0.26783 2.292 0.41406 3.4922 0.41406 0.72939 0 1.4471-0.057 2.1504-0.1582l21.924 37.973 13.303-7.6797-7.4375-12.883-4.5801 2.6445-14.275-24.727c1.2875-1.3685 2.325-2.9713 3.043-4.7344h43.861v-15.361h-14.877v5.2891h-28.521c-0.55782-1.83-1.4552-3.5167-2.6152-4.9902l21.939-37.998zm-20.609 49.889c2.9166 0 5.1719 2.2553 5.1719 5.1719s-2.2553 5.1738-5.1719 5.1738c-2.9166 0-5.1738-2.2573-5.1738-5.1738s2.2573-5.1719 5.1738-5.1719z" color="#000000" style="paint-order:stroke fill markers"/>
<path id="f" transform="matrix(1.1619 0 0 1.1571 57.351 -70.282)" d="m-196.98 488.51-30.626 17.682 30.626 17.682" fill="none" stroke="#000" stroke-width="4.1235" style="paint-order:stroke fill markers"/>
<path id="g" d="m-204.31 515.41h68.02" fill="none" stroke="#000" stroke-width="4.7811" style="paint-order:stroke fill markers"/>
</g>
</g>
</svg>
