<svg width="10mm" height="10mm" version="1.1" viewBox="0 0 200 200" xmlns="http://www.w3.org/2000/svg">
<circle cx="100" cy="147.32" r="12.474" fill="none" stroke="#000" stroke-width="5"/>
<circle cx="100" cy="147.32" r="4.1314"/>
<g fill="none" stroke="#000">
<path d="m87.156 133.02a14.831 14.831 0 0 1 12.844-7.4152 14.831 14.831 0 0 1 12.844 7.4152" stroke-width="5"/>
<path transform="scale(1,-1)" d="m87.156-158.86a14.831 14.831 0 0 1 12.844-7.4153 14.831 14.831 0 0 1 12.844 7.4153" stroke-width="5"/>
<path d="m92.118 157.42c-2.5035 0.78838-5.0332 1.4936-7.5838 2.1132-6.7317 1.6353-13.66 2.6821-20.578 2.3234-6.9182-0.35869-13.85-2.1771-19.676-5.9251-4.6775-3.0091-8.548-7.2046-11.41-11.973s-4.7325-10.101-5.7507-15.569c-1.6744-8.9912-1.0561-18.335 1.2184-27.194 2.2744-8.8584 6.1752-17.249 10.98-25.031 6.1602-9.9767 13.823-19.006 22.515-26.874 4.3356-3.9245 8.9285-7.5647 13.739-10.889-9.595 10.267-16.841 22.716-21.029 36.13-2.9764 9.5332-4.4185 19.544-4.2435 29.53 0.10237 5.8405 0.78286 11.778 3.1493 17.119 1.3906 3.1383 3.4024 6.0767 6.1967 8.0705 2.3056 1.6451 5.0109 3.035 7.8528 3.035h65.003c2.8418 0 5.5472-1.39 7.8528-3.035 2.7942-1.9937 4.8061-4.9322 6.1966-8.0705 2.3664-5.3406 3.0469-11.278 3.1493-17.119 0.17502-9.9855-1.2672-19.997-4.2435-29.53-4.1879-13.414-11.434-25.863-21.029-36.13 4.8109 3.3247 9.4039 6.9649 13.739 10.889 8.6928 7.8687 16.355 16.898 22.515 26.874 4.805 7.7818 8.7057 16.172 10.98 25.031 2.2744 8.8584 2.8927 18.202 1.2184 27.194-1.0182 5.4678-2.8884 10.8-5.7507 15.569s-6.7328 8.9642-11.41 11.973c-5.8261 3.748-12.758 5.5664-19.676 5.9251-6.9182 0.35869-13.847-0.68804-20.578-2.3234-2.5506-0.61962-5.0803-1.3248-7.5838-2.1132" stroke-width="10"/>
<path transform="scale(1,-1)" d="m87.156-156.53a14.831 14.831 0 0 1 12.844-7.4153 14.831 14.831 0 0 1 12.844 7.4153" stroke-width="5"/>
</g>
</svg>
