<svg id="a" width="10mm" height="10mm" version="1.1" viewBox="0 0 53.71 53.71" xmlns="http://www.w3.org/2000/svg">
<g id="b" transform="translate(-46.104 -155.54)">
<path id="c" d="m74.629 162.54v17.393h2.0686v22.326h13.189v-33.375l-0.17777-0.18345c-3.8103-3.9473-8.0742-6.1063-14.443-6.1547zm-18.47 0.28215-0.12712 1.2573 4.6617 0.47025 0.12712-1.2568zm6.1893 0.62477-0.12712 1.2573 4.6597 0.46973 0.12712-1.2568zm13.547 0.42323c5.6023 0.18085 9.2696 2.0299 12.726 5.5506v31.574h-10.658v-22.328h-2.0681zm-7.3577 0.20102-0.12712 1.2573 4.6602 0.47025 0.12661-1.2573zm-12.397 6.5552v1.2635h4.6855v-1.2635zm6.2208 0v1.2635h4.6834v-1.2635zm6.2208 0v1.2635h4.6834v-1.2635zm4.4881 6.0921-4.6602 0.47025 0.12712 1.2568 4.6597-0.46974zm-6.1898 0.62425-4.6597 0.47026 0.12712 1.2573 4.6597-0.47025zm-6.1872 0.62425-4.6617 0.47077 0.12712 1.2568 4.6617-0.47025z" color="#000000"/>
</g>
</svg>
