<svg width="10mm" height="10mm" version="1.1" viewBox="0 0 200 200" xmlns="http://www.w3.org/2000/svg">
<g fill="none" stroke="#000" stroke-width="6">
<path d="m192.36 84.427c-4.3612 4.8905-8.7224 9.7809-11.923 14.742-3.2007 4.9616-5.2406 9.9937-6.4119 14.966-1.1713 4.9731-1.4742 9.8865-2.7355 15.148-1.2613 5.2623-3.4807 10.874-6.8571 17.635s-7.9096 14.673-12.443 22.584l-36.241-21.082 4.3532-7.5972c-3.5665-2.0747-7.1311-4.1485-11.77-5.8674-4.6391-1.7189-10.351-3.0816-15.569-4.4293-5.2186-1.3478-9.9455-2.6809-23.744-9.9988-13.797-7.3179-36.666-20.621-59.535-33.924 1.451-2.5324 2.9019-5.0643 4.8366-7.2062s4.3523-3.8923 6.4071-5.0934c2.0547-1.2012 3.7458-1.8526 6.2083-1.9024 2.4625-0.04981 5.6956 0.50144 10.122 2.1305 4.4268 1.6291 10.047 4.3354 14.921 6.0641 4.8745 1.7287 9.0027 2.4805 16.339 2.355 7.3358-0.12547 17.881-1.1278 29.072-2.7817s23.029-3.9593 29.892-5.538c6.8628-1.5787 8.7538-2.4307 12.932-6.1142 4.1778-3.6835 10.644-10.199 17.11-16.714"/>
<path d="m100.18 79.749c0.482 3.8288 0.9638 7.656 3.4565 10.987 2.4927 3.3309 6.9943 6.1659 11.232 7.9905 4.2382 1.8248 8.2124 2.6397 18.142 4.617 9.9292 1.9772 25.813 5.1164 41.694 8.2554"/>
</g>
</svg>
