<svg width="10mm" height="10mm" version="1.1" viewBox="0 0 200 200" xmlns="http://www.w3.org/2000/svg">
<g fill="none">
<path d="m122.1 73.123c-14.179-8.1862-31.649-8.1862-45.828 0l-21.319-36.926c27.372-15.803 61.092-15.803 88.467 0z" stroke="#000" stroke-width="5"/>
</g>
<g stroke-width="5">
<path d="m99.321 31.748-3.6246 8.1409h1.2934l2.349 11.051c0.1397 0.65725 0.06752 1.3405-0.20577 1.9544l-4.2588 9.5662c-0.70299 1.579-0.76575 3.3713-0.17459 4.9954l4.6515 12.781c0.2088 0.57365 0.2088 1.2016 0 1.7753l-2.1477 5.9007h4.854l1.5802-4.3407c0.57521-1.5803 0.57521-3.3144 0-4.8946l-4.6524-12.781c-0.18742-0.51491-0.16766-1.0805 0.05525-1.5811l4.2588-9.5653c0.66481-1.4932 0.84048-3.1597 0.5006-4.7587l-2.1477-10.102h1.2934z"/>
<path d="m111.21 31.748-3.6246 8.1409h1.2934l2.349 11.051c0.1397 0.65725 0.0675 1.3405-0.20577 1.9544l-4.2588 9.5662c-0.70299 1.579-0.76574 3.3713-0.17459 4.9954l4.6515 12.781c0.20881 0.57365 0.20881 1.2016 0 1.7753l-2.1477 5.9007h4.854l1.5802-4.3407c0.57519-1.5803 0.57519-3.3144 0-4.8946l-4.6524-12.781c-0.18742-0.51491-0.16766-1.0805 0.0553-1.5811l4.2588-9.5653c0.66482-1.4932 0.84045-3.1597 0.50059-4.7587l-2.1477-10.102h1.2934z"/>
<path d="m87.433 31.748-3.6246 8.1409h1.2934l2.349 11.051c0.1397 0.65725 0.06753 1.3405-0.20577 1.9544l-4.2588 9.5662c-0.70299 1.579-0.76575 3.3713-0.17459 4.9954l4.6515 12.781c0.2088 0.57365 0.2088 1.2016 0 1.7753l-2.1477 5.9007h4.854l1.5802-4.3407c0.5752-1.5803 0.5752-3.3144 0-4.8946l-4.6524-12.781c-0.18742-0.51491-0.16765-1.0805 0.05523-1.5811l4.2588-9.5653c0.66482-1.4932 0.84046-3.1597 0.50059-4.7587l-2.1477-10.102h1.2934z"/>
</g>
<circle cx="173.33" cy="45.302" r="16.38"/>
<path d="m172.93 70.285c-7.1904-0.67634-13.674 4.2465-16.085 10.588-6.3288 12.26-12.657 24.52-18.986 36.78-14.303-3.6571-28.654-7.6284-42.928-11.088-5.4555-1.102-9.5077 3.0721-11.885 7.2484-10.18 14.94-20.477 29.808-30.584 44.792-3.8878 6.4074 2.3171 15.251 9.9081 14.116 6.5424-0.5632 8.8209-7.1181 12.243-11.514 7.5185-10.99 15.037-21.978 22.555-32.969 16.608 4.6134 33.216 9.4589 49.826 13.927 7.7521 1.7032 15.321-3.3998 17.947-10.325 7.0782-13.826 14.347-27.568 21.305-41.448 3.7749-8.996-3.2733-19.667-13.317-20.108z"/>
<path d="m42.249 90.185v28.164h10.916l-21.852 24.269-21.852-24.269h10.916v-28.164z"/>
</svg>
