<svg width="10mm" height="10mm" version="1.1" viewBox="0 0 200 200" xmlns="http://www.w3.org/2000/svg">
<g fill="none" stroke="#000" stroke-width="5">
<path d="m100.26 166.49c-24.659 0-49.032-5.2883-71.511-15.523-5.1594-16.544-7.7639-33.751-7.7639-51.056 0-17.336 2.6139-34.573 7.7484-51.113 22.313-10.069 46.524-15.286 71.015-15.286 24.659 0 49.032 5.2883 71.511 15.523 5.1594 16.544 7.7639 33.751 7.7639 51.056 0 17.336-2.6139 34.573-7.7484 51.113-22.313 10.069-46.524 15.286-71.015 15.286z"/>
<circle cx="83.492" cy="110.09" r="33.66"/>
<path d="m83.362 76.421a24.762 24.762 0 0 1 24.706-23.089 24.762 24.762 0 0 1 24.762 24.762 24.762 24.762 0 0 1-16.784 23.442"/>
<path d="m115.78 100.64a20.949 20.949 0 0 1 8.3931-1.7548 20.949 20.949 0 0 1 20.949 20.949 20.949 20.949 0 0 1-20.949 20.949 20.949 20.949 0 0 1-16.211-7.6798"/>
</g>
</svg>
