<svg width="10mm" height="10mm" version="1.1" viewBox="0 0 200 200" xmlns="http://www.w3.org/2000/svg">
<rect x="46.186" y="46.186" width="107.63" height="107.63" fill="none" stroke="#000" stroke-width="5"/>
<circle cx="67.712" cy="100" r="6.5678"/>
<circle cx="89.237" cy="100" r="6.5678"/>
<circle cx="110.76" cy="100" r="6.5678"/>
<circle cx="132.29" cy="100" r="6.5678"/>
<circle cx="78.475" cy="79.343" r="6.5678"/>
<circle cx="100" cy="79.343" r="6.5678"/>
<circle cx="121.53" cy="79.343" r="6.5678"/>
<circle cx="67.712" cy="141.31" r="6.5678"/>
<circle cx="89.237" cy="141.31" r="6.5678"/>
<circle cx="110.76" cy="141.31" r="6.5678"/>
<circle cx="132.29" cy="141.31" r="6.5678"/>
<circle cx="78.475" cy="120.66" r="6.5678"/>
<circle cx="100" cy="120.66" r="6.5678"/>
<circle cx="121.53" cy="120.66" r="6.5678"/>
<circle cx="67.712" cy="58.686" r="6.5678"/>
<circle cx="89.237" cy="58.686" r="6.5678"/>
<circle cx="110.76" cy="58.686" r="6.5678"/>
<circle cx="132.29" cy="58.686" r="6.5678"/>
</svg>
