<svg width="10mm" height="10mm" version="1.1" viewBox="0 0 200 200" xmlns="http://www.w3.org/2000/svg">
<g fill="none" stroke="#000" stroke-width="5">
<path d="m99.985 163.44c-24.526 0-48.873-4.1648-71.987-12.291-6.5085-16.231-9.8635-33.589-9.8635-51.11 0-17.535 3.3603-34.906 9.9-51.171 23.127-8.1428 47.465-12.304 71.98-12.304 24.526 0 48.873 4.1648 71.987 12.291 6.5085 16.231 9.8635 33.589 9.8635 51.11 0 17.535-3.3603 34.906-9.9 51.171-23.127 8.1428-47.465 12.304-71.98 12.304z"/>
<path d="m50.573 115.74 65.168-65.168"/>
<path d="m50.785 149.22 98.43-98.43"/>
<path d="m84.259 149.43 65.168-65.168"/>
</g>
</svg>
