<svg width="10mm" height="10mm" version="1.1" viewBox="0 0 200 200" xmlns="http://www.w3.org/2000/svg">
<path d="m111.09 13.183h31.91v128.24h-85.991v-74.156" fill="none" stroke="#000" stroke-width="5"/>
<path d="m111.09 10.683v56.582h-56.582z"/>
<path d="m143 79.672c7.2979 1.6512 14.504 3.7234 21.582 6.2093 5.838 14.544 8.8474 30.099 8.8474 45.799 0 15.713-3.0141 31.279-8.8801 45.854-20.744 7.2967-42.575 11.026-64.565 11.026-21.999 0-43.838-3.7321-64.571-11.014-5.838-14.544-8.8474-30.099-8.8474-45.799 0-15.713 3.0141-31.279 8.8801-45.854 7.0724-2.4877 14.271-4.5608 21.559-6.2127" fill="none" stroke="#000" stroke-width="5"/>
</svg>
