<svg width="10mm" height="10mm" version="1.1" viewBox="0 0 200 200" xmlns="http://www.w3.org/2000/svg">
<circle cx="100" cy="100" r="5.6179"/>
<g fill="none" stroke="#000">
<circle cx="100" cy="100" r="21.573" stroke-width="10"/>
<g stroke-width="5">
<path d="m105.27 55.079a5.3215 5.3215 0 0 1 0.052 0.74175 5.3215 5.3215 0 0 1-5.3215 5.3215 5.3215 5.3215 0 0 1-5.3215-5.3215 5.3215 5.3215 0 0 1 0.051944-0.74171l5.2695-37.123z"/>
<path d="m100 61.143v17.285"/>
<path d="m135.49 71.962a5.3215 5.3215 0 0 1-0.48773 0.56127 5.3215 5.3215 0 0 1-7.5257-3.6e-5 5.3215 5.3215 0 0 1 0-7.5257 5.3215 5.3215 0 0 1 0.5612-0.48774l29.976-22.523z"/>
<path d="m127.48 72.524-12.222 12.222"/>
<path d="m144.92 105.27a5.3215 5.3215 0 0 1-0.74175 0.052 5.3215 5.3215 0 0 1-5.3215-5.3215 5.3215 5.3215 0 0 1 5.3215-5.3215 5.3215 5.3215 0 0 1 0.74171 0.05194l37.123 5.2695z"/>
<path d="m138.86 100-17.285 1e-6"/>
<path d="m128.04 135.49a5.3215 5.3215 0 0 1-0.56127-0.48773 5.3215 5.3215 0 0 1 4e-5 -7.5257 5.3215 5.3215 0 0 1 7.5257 0 5.3215 5.3215 0 0 1 0.48775 0.56119l22.523 29.976z"/>
<path d="m127.48 127.48-12.222-12.222"/>
<path d="m94.73 144.92a5.3215 5.3215 0 0 1-0.052-0.74175 5.3215 5.3215 0 0 1 5.3215-5.3215 5.3215 5.3215 0 0 1 5.3215 5.3215 5.3215 5.3215 0 0 1-0.0519 0.74172l-5.2696 37.123z"/>
<path d="m100 138.86v-17.285"/>
<path d="m64.51 128.04a5.3215 5.3215 0 0 1 0.48773-0.56126 5.3215 5.3215 0 0 1 7.5257 3e-5 5.3215 5.3215 0 0 1 0 7.5257 5.3215 5.3215 0 0 1-0.5612 0.48774l-29.976 22.523z"/>
<path d="m72.524 127.48 12.222-12.222"/>
<path d="m55.079 94.73a5.3215 5.3215 0 0 1 0.74175-0.052 5.3215 5.3215 0 0 1 5.3215 5.3215 5.3215 5.3215 0 0 1-5.3215 5.3215 5.3215 5.3215 0 0 1-0.74171-0.0519l-37.123-5.2696z"/>
<path d="m61.143 100 17.285-1e-6"/>
<path d="m71.962 64.51a5.3215 5.3215 0 0 1 0.56127 0.48773 5.3215 5.3215 0 0 1-4e-5 7.5257 5.3215 5.3215 0 0 1-7.5257 0 5.3215 5.3215 0 0 1-0.48775-0.56119l-22.523-29.976z"/>
<path d="m72.524 72.524 12.222 12.222"/>
</g>
</g>
</svg>
