<svg width="10mm" height="10mm" version="1.1" viewBox="0 0 200 200" xmlns="http://www.w3.org/2000/svg">
<circle cx="100" cy="100" r="5.5938"/>
<g fill="none" stroke="#000">
<circle cx="100" cy="100" r="36.904" stroke-width="10"/>
<path d="m131.96 81.548 41.04-23.695" stroke-width="10"/>
<path d="m94.599 63.493v-47.829" stroke-width="5"/>
</g>
<path d="m94.6 15.664v5h20.328l1.0625-5zm0 10.506v5h18.094l1.0625-5zm0 10.506v5h15.861l1.0625-5zm0 10.506v5h13.627l1.0645-5z"/>
<circle transform="rotate(120)" cx="36.603" cy="-136.6" r="5.5938"/>
<path d="m100 136.9-1e-5 47.389" fill="none" stroke="#000" stroke-width="10"/>
<path d="m134.32 113.58 41.421 23.915" fill="none" stroke="#000" stroke-width="5"/>
<path d="m175.74 137.49-4.3301-2.5-10.164 17.605 3.7989 3.4202zm-9.0983-5.2529-4.3301-2.5-9.0469 15.67 3.7989 3.4202zm-9.0983-5.2529-4.3301-2.5-7.9307 13.736 3.7989 3.4202zm-9.0983-5.2529-4.3301-2.5-6.8135 11.801 3.7979 3.4218z"/>
<path d="m68.04 81.548-41.04-23.695" fill="none" stroke="#000" stroke-width="10"/>
<path d="m71.084 122.93-41.421 23.915" fill="none" stroke="#000" stroke-width="5"/>
<path d="m29.663 146.84 4.3301-2.5-10.164-17.605-4.8614 1.5799zm9.0983-5.2529 4.3301-2.5-9.0469-15.67-4.8614 1.5798zm9.0983-5.2529 4.3301-2.5-7.9307-13.736-4.8614 1.5798zm9.0983-5.2529 4.3301-2.5-6.8135-11.801-4.8624 1.5782z"/>
</svg>
