<svg id="a" width="10mm" height="10mm" version="1.1" viewBox="0 0 53.71 53.71" xmlns="http://www.w3.org/2000/svg">
<g id="b" transform="translate(-152.69 -102.66)">
<path id="c" d="m171.83 112.21-0.632 1.0945 14.083 8.1313-7.0244 0.11834 0.016 1.265 10.375-0.16433-5.2214-8.9442-1.094 0.63407 3.4856 5.9412zm-1.8702 9.2397c-0.16949 7.1e-4 -0.33886 0.0206-0.50229 0.061-0.29055 0.0717-0.56205 0.20711-0.7798 0.40928l-3e-3 3e-3 -3.3342 3.0959c-1.386 1.1204-0.61647 2.5685 0.47956 2.819l0.16898 5.2e-4v8.8868l-0.0909 1e-3c-0.87263 0.17626-1.5026 0.96859-1.5033 1.8908 8e-5 0.0452 1e-3 0.0902 5e-3 0.13539l-0.55242 3e-3 3e-3 0.6351 0.26355-1e-3 0.89245 2.1162 0.38292-2e-3 2e-3 0.32763 0.27233-1e-3 3e-3 0.6227 5.2e-4 1e-3c5e-3 0.40049 0.18181 0.76214 0.40411 0.98547 0.22228 0.22332 0.4524 0.34123 0.62735 0.45114 0.17495 0.10988 0.29473 0.20053 0.37517 0.31264 0.0795 0.11076 0.14262 0.25732 0.14986 0.55862-9e-3 0.65474-0.3126 0.87321-0.72037 0.93896-0.40975 0.066-0.9304-0.11164-1.2387-0.62528-0.15696-0.26207-0.50083-0.34944-0.76792-0.19534-0.26733 0.15381-0.35647 0.49082-0.19947 0.75293 0.53379 0.88936 1.5089 1.2945 2.3874 1.1529 0.87859-0.14165 1.6534-0.92185 1.663-2.0221v-0.016c-9e-3 -0.48187-0.14414-0.8832-0.35657-1.1793-0.21241-0.29606-0.47711-0.47425-0.68626-0.60564-0.20914-0.13141-0.36443-0.22615-0.43098-0.29301-0.0665-0.0668-0.0821-0.0757-0.0842-0.22996l-3e-3 -0.61495 0.38551-1e-3 -2e-3 -0.32814 0.38344-2e-3 0.87488-2.1229 0.26355-1e-3 -3e-3 -0.63459-0.57309 3e-3c3e-5 -9.1e-4 -3e-3 -3e-3 -8e-3 -4e-3 3e-3 -0.0389 4e-3 -0.0783 4e-3 -0.1173-4e-5 -0.93497-0.64682-1.7349-1.5343-1.8981l-0.0713 5.2e-4v-8.8884c0.0674-0.0169 0.13479-0.0383 0.20154-0.0662l5e-3 -3e-3 2.8468-1.1906 4.2907 2.3316-0.59118 1.0237 0.54829 0.31626 15.656 9.0392c0.58359 0.80282 1.5292 1.3276 2.5916 1.3276 1.7614 0 3.2014-1.4415 3.2014-3.2029 0-1.6741-1.3008-3.0599-2.9419-3.1931l-16.148-9.3224-0.65629 1.1364-3.6716-2.0991-0.16227-1.4097-0.0119-0.0284c-0.23646-0.68106-0.97036-1.0444-1.7048-1.0413zm6.6699 5.1708 13.854 7.999c-0.9718 0.55171-1.6314 1.5967-1.6314 2.7879 0 0.0213 6.1e-4 0.0424 1e-3 0.0636l-13.866-8.0052zm15.425 8.8491c1.0777 0 1.9379 0.86012 1.9379 1.9379s-0.86013 1.9374-1.9379 1.9374-1.9394-0.85961-1.9394-1.9374 0.86167-1.9379 1.9394-1.9379z"/>
</g>
</svg>
