<svg id="a" width="10mm" height="10mm" version="1.1" viewBox="0 0 53.71 53.71" xmlns="http://www.w3.org/2000/svg">
<g id="b" transform="translate(-100.53 -48.016)">
<path id="c" d="m116.65 54.555v6.9634h1.1601v3.6592h-1.1601v22.769a4.1557 4.1557 0 0 0-1.3725 3.0835 4.1557 4.1557 0 0 0 4.1558 4.1558 4.1557 4.1557 0 0 0 4.1553-4.1558 4.1557 4.1557 0 0 0-1.3725-3.083v-22.77h-1.1601v-3.6592h1.1601v-6.9634zm15.971 8.2589c-3.0935 0-5.6038 2.5119-5.6038 5.6053v3.3347h-1.2754v6.3138c0 3.7999 3.0792 6.8792 6.8792 6.8792 3.7999 0 6.8786-3.0793 6.8786-6.8792v-6.3138h-1.2754v-3.3347c0-3.0934-2.5098-5.6053-5.6033-5.6053zm0 1.2656c2.4145 0 4.3398 1.9253 4.3398 4.3398v3.3347h-1.5746v-3.4205c0-1.521-1.2442-2.7657-2.7652-2.7657-1.521 0-2.7637 1.2447-2.7637 2.7657v3.4205h-1.5746v-3.3347c0-2.4145 1.9237-4.3398 4.3382-4.3398zm0 2.7544c0.84206 0 1.5017 0.65759 1.5017 1.4996v3.4205h-3.0019v-3.4205c0-0.84206 0.6581-1.4996 1.5002-1.4996zm-5.6136 6.1872h11.229v5.0467c0 3.121-2.4942 5.6152-5.6152 5.6152-3.121 0-5.6136-2.4942-5.6136-5.6152zm5.6136 3.0644a0.99579 0.99579 0 0 0-0.99581 0.9958 0.99579 0.99579 0 0 0 0.71055 0.95395l-0.47852 2.6019h1.5281l-0.47904-2.6019a0.99579 0.99579 0 0 0 0.71055-0.95395 0.99579 0.99579 0 0 0-0.9958-0.9958zm-13.188 13.345a1.5995 1.5995 0 0 1 1.5994 1.5994 1.5995 1.5995 0 0 1-1.5994 1.5999 1.5995 1.5995 0 0 1-1.5999-1.5999 1.5995 1.5995 0 0 1 1.5999-1.5994z"/>
</g>
</svg>
