<svg id="a" width="10mm" height="10mm" version="1.1" viewBox="0 0 53.71 53.71" xmlns="http://www.w3.org/2000/svg">
<g id="b" transform="translate(-69.306 -128.56)">
<path id="c" d="m93.379 134.42v6.9634h1.1601v3.6592h-1.1601v22.769c-0.8731 0.78741-1.3718 1.9078-1.3725 3.0835-8e-5 2.2952 1.8601 4.1559 4.1553 4.1558 2.295-2.1e-4 4.1554-1.8608 4.1553-4.1558-8.6e-4 -1.1755-0.49904-2.2957-1.372-3.083v-22.77h-1.1606v-3.6592h1.1606v-6.9634zm-3.885 32.843c-0.28024 4e-3 -0.53362 0.16747-0.65164 0.42168-1.3711 2.9404-0.83023 6.3707 1.2526 8.7421l1.0955-0.95911c-1.7124-1.9447-2.1548-4.7508-1.0278-7.1675 0.17071-0.36459 0.0133-0.79854-0.3514-0.96894-0.0993-0.0463-0.20775-0.0696-0.3173-0.0682zm13.24 6e-3c-0.0759 9e-3 -0.1498 0.0303-0.2191 0.0625-0.36553 0.16963-0.52391 0.60379-0.35347 0.96894 1.1271 2.4172 0.6856 5.2238-1.0273 7.1686l1.0945 0.95808c2.083-2.3714 2.6243-5.8017 1.2532-8.7421-0.13298-0.28586-0.43475-0.45375-0.74776-0.416zm-6.5717 2.0273c0.88328 8e-5 1.5998 0.71611 1.5999 1.5994 2e-4 0.88346-0.71642 1.5998-1.5999 1.5999-0.88368 2e-4 -1.5996-0.71624-1.5994-1.5999 9e-5 -0.88348 0.7159-1.5996 1.5994-1.5994z" color="#000000" stroke-linecap="round"/>
</g>
</svg>
