<svg id="a" width="10mm" height="10mm" version="1.1" viewBox="0 0 53.71 53.71" xmlns="http://www.w3.org/2000/svg">
<g id="b" transform="translate(-72.496 -83.079)">
<path id="c" d="m95.177 95.13c3.6874 3.269 6.011 8.0407 6.011 13.366 0 7.2246-4.2754 13.431-10.436 16.243h4.5325c3.1542-2.3085 5.5968-5.518 6.9463-9.274 0.10943-0.30457 0.23845-0.56759 0.63749-0.94854 0.39904-0.38094 1.2185-0.5013 2.2709-0.78039 0.63672-0.16884 1.3656-0.42811 1.9436-1.0547s0.86713-1.5384 0.86713-2.6133v-2e-3c-7.6e-4 -0.94468-0.27575-1.7843-0.74414-2.4179-0.0658-0.089-0.13513-0.17261-0.20619-0.25321-0.4162-0.50869-0.95963-0.90931-1.5792-1.1539-0.35201-0.17682-0.70444-0.32929-1.0446-0.46824 0 0-0.62497-0.22595-0.92615-0.52509-0.30119-0.29944-0.50731-1.2597-0.50731-1.2597-0.76867-3.347-2.3748-6.3766-4.584-8.8579zm9.3313 13.271c0.88592 0 1.5803 0.69434 1.5803 1.5803s-0.69435 1.5803-1.5803 1.5803-1.5803-0.69435-1.5803-1.5803 0.69434-1.5803 1.5803-1.5803z" color="#000000" style="paint-order:stroke fill markers"/>
</g>
</svg>
