<svg width="10mm" height="10mm" version="1.1" viewBox="0 0 200 200" xmlns="http://www.w3.org/2000/svg">
<g fill="none">
<g stroke="#000">
<g stroke-width="5">
<circle cx="146.97" cy="147.8" r="13.02"/>
<circle cx="71.304" cy="150.77" r="10.054"/>
<path d="m80.911 147.8 53.044 1.5e-4"/>
<path d="m160 147.8h10.718a7.0411 7.0411 135 0 0 7.0411-7.0411v-31.387a7.0411 7.0411 45 0 0-7.0411-7.0411h-64.357"/>
<path d="m133.47 93.962v-38.774a5.2745 5.2745 46 0 0-5.0905-5.2713l-35-1.2222a6.403 6.403 143.5 0 0-6.4084 4.7423l-25.277 94.363"/>
<path d="m19.428 151.46 21.379 5.7285 32.769-122.29"/>
</g>
<path d="m33.792 29.767 100.75 100.75" stroke-width="10"/>
<path d="m134.54 29.767-100.75 100.75" stroke-width="10"/>
</g>
</g>
</svg>
