<svg width="10mm" height="10mm" version="1.1" viewBox="0 0 200 200" xmlns="http://www.w3.org/2000/svg">
<g fill="none" stroke="#000" stroke-width="5">
<path d="m53.651 140.44c-8.8436-12.066-15.052-26.046-18.126-40.684-1.0002-4.762-1.4452-12.637-1.4452-17.504v-58.602h131.84v58.602c0 4.8674-0.44496 12.742-1.4452 17.504-3.0747 14.638-9.2828 28.618-18.126 40.684-11.684 15.941-27.954 28.48-46.346 35.717-18.392-7.2369-34.663-19.776-46.346-35.717z"/>
<path d="m112.45 72.359-4.2648 7.3868v14.635l13.242 49.42c0.82165 3.0664-1.489 6.0777-4.6636 6.0777h-33.53c-3.1746 0-5.4852-3.0112-4.6635-6.0777l13.242-49.42v-14.635l-4.2648-7.3868"/>
</g>
<path d="m87.441 110.71-8.8672 33.09c-0.82164 3.0664 1.4895 6.0781 4.6641 6.0781h33.529c3.1746 0 5.4857-3.0117 4.6641-6.0781l-8.8672-33.09h-25.123z"/>
<path d="m112.61 41.408c-5.1428 0.031468-9.4666 1.6369-13.512 3.2168v5.3535c0.30021-0.11691 0.61594-0.23172 0.91211-0.34766 4.3033-1.6845 8.1965-3.1863 12.605-3.2188 4.6727 0.06896 8.6867 1.594 12.982 3.2734 4.304 1.6827 8.8984 3.5274 14.42 3.5645h0.04883c5.3411-0.068805 9.7815-1.6864 13.852-3.2715v-5.3535c-0.30106 0.11758-0.61407 0.23294-0.91211 0.34961-4.2942 1.681-8.304 3.2056-12.979 3.2715-4.4071-0.035-8.3046-1.5339-12.609-3.2168-4.3127-1.6861-9.0296-3.5434-14.76-3.6211h-0.04883z"/>
<path d="m112.61 53.25c-5.1428 0.03147-9.4666 1.6369-13.512 3.2168v5.3535c0.30021-0.11691 0.61594-0.23172 0.91211-0.34766 4.3033-1.6845 8.1965-3.1863 12.605-3.2188 4.6727 0.06896 8.6867 1.594 12.982 3.2734 4.304 1.6827 8.8984 3.5274 14.42 3.5645h0.0488c5.3411-0.0688 9.7815-1.6864 13.852-3.2715v-5.3535c-0.30106 0.11758-0.61407 0.23294-0.91211 0.34961-4.2942 1.681-8.304 3.2056-12.979 3.2715-4.4071-0.035-8.3046-1.5339-12.609-3.2168-4.3127-1.6861-9.0296-3.5434-14.76-3.6211h-0.0254z"/>
<path d="m122.76 67.885v5.3027c0.9386 0.34416 1.8798 0.70627 2.8359 1.0801 4.304 1.6827 8.8984 3.5274 14.42 3.5645h0.04883c5.341-0.0688 9.7815-1.6864 13.852-3.2715v-5.3535c-0.30106 0.11758-0.61407 0.23294-0.91211 0.34961-4.2942 1.681-8.304 3.2056-12.979 3.2715-4.4071-0.035-8.3046-1.5339-12.609-3.2168-1.4933-0.58382-3.0407-1.1827-4.6562-1.7266z"/>
<path d="m122.76 31.124v5.3027c0.9386 0.34416 1.8798 0.70627 2.8359 1.0801 4.304 1.6827 8.8984 3.5274 14.42 3.5645h0.0488c5.341-0.0688 9.7815-1.6864 13.852-3.2715v-5.3535c-0.30106 0.11758-0.61407 0.23294-0.91211 0.34961-4.2942 1.681-8.304 3.2056-12.979 3.2715-4.4071-0.035-8.3046-1.5339-12.609-3.2168-1.4933-0.58382-3.0407-1.1827-4.6562-1.7266z"/>
</svg>
