<svg width="10mm" height="10mm" version="1.1" viewBox="0 0 200 200" xmlns="http://www.w3.org/2000/svg">
<g fill="none">
<g stroke="#000">
<path d="m100 33.605a63.531 63.531 0 0 0-45.924 19.77 47.853 47.853 0 0 1 2.1465 14.1 47.853 47.853 0 0 1-13.258 32.912l0.042968 65.715h113.98l0.00976-65.756a47.853 47.853 0 0 1-13.225-32.871 47.853 47.853 0 0 1 2.3164-13.941 63.531 63.531 0 0 0-46.094-19.928z" stroke-width="5"/>
<path d="m75.463 38.59 24.537 37.064 24.537-37.064" stroke-width="5"/>
<path d="m42.998 150.01h114" stroke-width="10"/>
<path d="m100 75.654v54.007" stroke-width="5"/>
<path d="m42.998 129.49h114" stroke-width="10"/>
</g>
</g>
<path d="m63.18 44.049v85.823h10v-90.886z"/>
<path d="m136.82 44.049v85.823h-10v-90.886z"/>
</svg>
