<svg width="10mm" height="10mm" version="1.1" viewBox="0 0 200 200" xmlns="http://www.w3.org/2000/svg">
<g fill="none">
<g stroke="#000" stroke-width="5">
<path d="m53.654 138.96c-8.8436-12.066-15.052-26.046-18.126-40.684-1.0002-4.762-1.4452-12.637-1.4452-17.504v-58.602h131.84v58.602c0 4.8674-0.44496 12.742-1.4452 17.504-3.0747 14.638-9.2828 28.618-18.126 40.684-11.684 15.941-27.954 28.48-46.346 35.717-18.392-7.2369-34.663-19.776-46.346-35.717z"/>
<path d="m122.33 103.45a31.583 14.307 45 0 1-32.449-12.216 31.583 14.307 45 0 1-12.216-32.449 31.583 14.307 45 0 1 32.449 12.216 31.583 14.307 45 0 1 12.216 32.449z"/>
<path d="m77.665 103.45a14.307 31.583 45 0 0 32.449-12.216 14.307 31.583 45 0 0 12.216-32.449 14.307 31.583 45 0 0-32.449 12.216 14.307 31.583 45 0 0-12.216 32.449z"/>
</g>
</g>
<circle cx="89.362" cy="42.996" r="3.97"/>
<circle cx="70.86" cy="80.823" r="3.97"/>
<circle cx="53.729" cy="48.026" r="3.97"/>
<circle cx="63.824" cy="45.392" r="2.6458"/>
<circle cx="74.206" cy="43.856" r="2.6458"/>
<circle cx="53.39" cy="59.163" r="2.6458"/>
<circle cx="139.88" cy="47.14" r="2.6458"/>
<circle cx="132.73" cy="84.343" r="2.6458"/>
<circle cx="142.4" cy="83.669" r="2.6458"/>
<circle cx="103.29" cy="73.632" r="2.6458"/>
<circle cx="63.969" cy="68.988" r="2.6458"/>
<circle cx="74.094" cy="122.68" r="1.6924"/>
<circle cx="89.831" cy="111.07" r="1.6924"/>
<circle cx="98.676" cy="108.21" r="1.6924"/>
<circle cx="108.85" cy="111.44" r="1.6924"/>
<circle cx="109.69" cy="126.43" r="1.6924"/>
<circle cx="113.03" cy="98.146" r="1.6924"/>
<circle cx="98.729" cy="79.555" r="1.6924"/>
<circle cx="85.434" cy="99.311" r="1.6924"/>
<circle cx="86.758" cy="66.525" r="1.6924"/>
<circle cx="53.072" cy="73.358" r="1.6924"/>
<circle cx="67.214" cy="60.169" r="1.6924"/>
<circle cx="101.12" cy="42.696" r="1.6924"/>
<circle cx="116.78" cy="45.393" r="1.6924"/>
<circle cx="133.18" cy="58.726" r="1.6924"/>
<circle cx="118.28" cy="66.366" r="1.6924"/>
<circle cx="133.93" cy="68.014" r="1.6924"/>
<circle cx="143.37" cy="66.816" r="1.6924"/>
<circle cx="132.21" cy="92.808" r="1.6924"/>
<circle cx="139.25" cy="94.98" r="1.6924"/>
<circle cx="140.07" cy="105.47" r="1.6924"/>
<circle cx="133.93" cy="113.63" r="1.6924"/>
<circle cx="61.017" cy="107.52" r="1.6924"/>
<circle cx="80.773" cy="66.419" r=".96416"/>
<circle cx="82.415" cy="91.843" r=".96416"/>
<circle cx="102.97" cy="87.394" r=".96416"/>
<circle cx="112.18" cy="64.301" r=".96416"/>
<circle cx="117.9" cy="91.631" r=".96416"/>
<circle cx="58.501" cy="88.239" r="2.6458"/>
<circle cx="68.014" cy="96.928" r="2.6458"/>
<circle cx="66.891" cy="115.43" r="2.6458"/>
<circle cx="88.538" cy="120.52" r="2.6458"/>
<circle cx="99.999" cy="120.67" r="2.6458"/>
<circle cx="79.699" cy="130.11" r="2.6458"/>
<circle cx="89.587" cy="133.93" r="2.6458"/>
<circle cx="100.22" cy="135.2" r="2.6458"/>
<circle cx="120.9" cy="113.78" r="2.6458"/>
<circle cx="126.59" cy="37.972" r="3.97"/>
<circle cx="143.2" cy="57.414" r="3.97"/>
<circle cx="122.27" cy="122.91" r="3.97"/>
</svg>
