<svg width="10mm" height="10mm" version="1.1" viewBox="0 0 200 200" xmlns="http://www.w3.org/2000/svg">
<path d="m15.713 46.98v105.4h168.66v-105.4h-168.66zm5 5h158.66v95.405h-158.66v-95.405zm79.586 21.291c-0.442-1e-3 -0.887 0.011-1.338 0.036-2.518 0.137-4.265 0.52-6.594 1.445-1.893 0.752-3.686 1.817-5.443 3.23-0.874 0.704-2.231 2.024-2.844 2.768-0.603 0.732-1.674 2.292-2.131 3.105-0.723 1.288-1.546 3.144-1.924 4.34-0.411 1.303-0.721 3.25-0.837 5.274-0.101 1.747-0.112 12.334-0.014 13.219 0.32 2.904 0.995 5.282 2.162 7.609 1.276 2.544 3.164 4.929 5.355 6.764 1.545 1.292 3.386 2.428 5.25 3.238 1.88 0.817 4.219 1.413 6.403 1.633 0.378 0.038 0.786 0.08 0.906 0.093v2e-3c0.12 0.014 0.795 0.015 1.5 2e-3 1.956-0.034 3.767-0.355 5.82-1.031 4.614-1.518 7.943-3.924 10.815-7.81 0.659-0.893 1.222-1.826 1.803-2.995 0.654-1.316 1.012-2.284 1.404-3.791 0.706-2.715 0.894-5.46 0.82-11.996-0.073-6.473-0.272-8.169-1.279-10.972-1.211-3.369-2.989-6.131-5.418-8.416-1.698-1.598-3.481-2.798-5.653-3.803-2.805-1.299-5.673-1.937-8.763-1.944zm47.33 0.057c-11.066-9e-3 -18.364 7e-3 -18.399 0.041-0.034 0.035-0.039 2.128-0.011 5.279l0.047 5.221 6.414 0.02c3.527 0.01 6.462 0.042 6.519 0.07 0.058 0.028 0.122 0.097 0.145 0.154 0.022 0.058 0.041 8.642 0.041 19.075 0 10.432 0.016 19.832 0.035 20.888l0.035 1.92 0.631 0.02c1.51 0.048 9.577 0.04 9.656-0.01 0.073-0.046 0.085-0.743 0.076-4.297-0.049-19.585-0.031-37.502 0.037-37.621l0.077-0.131 6.482-0.039c3.565-0.022 6.504-0.063 6.533-0.092s0.046-2.399 0.037-5.267l-0.015-5.215-18.34-0.016zm-107.97 0.016v7.406c0 4.073 0.021 15.928 0.047 26.344 0.026 10.415 0.047 18.951 0.047 18.968-1e-3 0.031 31.258 0.015 31.287-0.015 0.047-0.048 0.151-9.951 0.108-10.235l-0.053-0.343-7.592-8e-3c-4.176-4e-3 -8.62 0.017-9.875 0.047-2.737 0.064-3.144 0.044-3.334-0.174-0.074-0.085-0.16-0.244-0.191-0.354-0.034-0.117-0.073-8.673-0.094-20.918l-0.037-20.718h-10.313zm60.625 10.57c1.452 0 2.267 0.12 3.35 0.496 3.149 1.093 5.501 3.444 6.59 6.59 0.57 1.648 0.615 2.338 0.574 8.881-0.018 2.867-0.06 5.266-0.1 5.681-0.219 2.291-0.676 3.686-1.73 5.286-1.005 1.525-2.52 2.775-4.428 3.652-0.906 0.417-2.356 0.786-3.318 0.846-0.31 0.019-0.661 0.042-0.781 0.052-0.473 0.041-1.82-0.082-2.536-0.23-1.94-0.402-3.613-1.305-4.998-2.695-0.911-0.915-1.463-1.678-1.994-2.754-0.467-0.947-0.677-1.515-0.853-2.305-0.326-1.462-0.326-1.455-0.354-7.352-0.026-5.629 8e-3 -6.878 0.209-7.841 0.412-1.975 1.503-3.893 3.098-5.446 1.306-1.271 2.648-2.06 4.295-2.521 0.963-0.27 1.572-0.339 2.976-0.34z"/>
</svg>
