<svg width="10mm" height="10mm" version="1.1" viewBox="0 0 200 200" xmlns="http://www.w3.org/2000/svg">
<g fill="none" stroke="#000" stroke-width="6">
<path d="m47.79 137.53c-7.3223 0-13.258-5.9359-13.258-13.258l-18.684-5.0064-5.8089-12.457 8.5381-10.926 41.048-8.689 29.513-26.966c14.656 0.6351 29.816 1.292 44.943 1.9475l26.217 25.468 25.767 6.8913 3.7453 14.232-10.037 13.783-14.77 2.3432c0.10891 0.68712 0.16358 1.3812 0.16358 2.0763 0 7.3223-5.9359 13.258-13.258 13.258s-13.258-5.9359-13.258-13.258l-77.88 6e-3c-1.284 6.152-6.7016 10.556-12.98 10.556z"/>
<path d="m81.946 86.441 14.415-14.193 33.557 1.4541 3.4133 12.739z"/>
</g>
</svg>
