<svg width="10mm" height="10mm" version="1.1" viewBox="0 0 200 200" xmlns="http://www.w3.org/2000/svg">
<path d="m116.72 54.436c-4.3608 0.0059-8.7065 0.32721-12.97 0.9579-1.7605 0.26042-3.7174 1.869-4.3328 3.5389-4.8447 13.146-7.3739 27.041-7.4667 41.068 0.0928 14.026 2.622 27.922 7.4667 41.068 0.6154 1.6699 2.5723 3.2785 4.3328 3.5389 4.2636 0.63068 8.6093 0.95204 12.97 0.95789 35.446-3e-5 64.18-20.4 64.18-45.564 3.2e-4 -25.164-28.734-45.564-64.18-45.564z"/>
<circle cx="78.019" cy="67.002" r="8.3157"/>
<circle cx="53.231" cy="67.002" r="6.4089"/>
<circle cx="31.674" cy="67.002" r="5.0847"/>
<circle cx="67.214" cy="99.947" r="8.3157"/>
<circle cx="42.426" cy="99.947" r="6.4089"/>
<circle cx="20.869" cy="99.947" r="5.0847"/>
<circle cx="78.019" cy="132.89" r="8.3157"/>
<circle cx="53.231" cy="132.89" r="6.4089"/>
<circle cx="31.674" cy="132.89" r="5.0847"/>
</svg>
