<svg width="10mm" height="10mm" version="1.1" viewBox="0 0 200 200" xmlns="http://www.w3.org/2000/svg">
<path d="m148.03 45.578c-1.4816-2.4646-4.6595-3.2562-7.1241-1.7746l-9.9867 6.0036 2.6748 4.4493 28.272 47.029 9.9867-6.0036c2.4646-1.4816 3.2562-4.6595 1.7746-7.1241z"/>
<path d="m141.91 58.836-12.847 7.7233 23.001 24.982 6.9837-4.1983zm5.7779 35.336-22.999-24.983-7.8826 4.7387 23.001 24.982zm-12.257 7.3681-22.999-24.983-3.5688 2.1454-1.5947 6.396 12.335 20.519 6.3967 1.592z"/>
<rect x="67.585" y="131.57" width="29.237" height="35.805" rx="2.9661" ry="2.9661"/>
<path d="m39.281 32.533c-4.1034 0.007786-8.3792 0.065094-12.645 0.12109l0.046875 109.37h67.096l7.9023-7.9004c0.01671-1.9481 0.03994-4.0634 0.04883-5.834 0.02197-4.376 0.01561-8.2563-0.01758-11.916l-22.283 13.396-6.3965-1.5918-9.9336-16.525 1.5938-6.3965 34.113-20.508c-0.21794-0.9551-0.42808-1.9127-0.67188-2.8613-1.521-5.9182-3.5384-11.864-5.6758-16.867-2.1374-5.0037-4.3889-9.0098-6.7344-12.635-2.3456-3.6251-4.8317-6.959-7.2656-9.7695-1.3241-1.5289-2.6122-2.8766-3.8574-4.1172-2.7282-2.7182-6.0088-4.2206-9.7344-4.6543-4.1615-0.48449-8.6265-0.92074-13.975-1.1328-3.5767-0.14183-7.5079-0.18357-11.611-0.17578zm0.025391 9c4.0337-0.007331 7.8474 0.033813 11.23 0.16797 5.0587 0.2006 9.2428 0.60902 13.289 1.0801 0.81163 0.09449 3.9153 1.5851 4.4238 2.0918 1.1353 1.1312 2.2566 2.3075 3.4043 3.6328 2.1102 2.4366 4.3816 5.4694 6.5156 8.7676 2.1341 3.2983 4.0853 6.7696 6.0117 11.279 1.0878 2.5465 1.8023 5.0277 2.457 8.4746h-59.9l0.015625-35.375c4.2653-0.056001 8.5191-0.11184 12.553-0.11914z"/>
</svg>
