<svg width="10mm" height="10mm" version="1.1" viewBox="0 0 200 200" xmlns="http://www.w3.org/2000/svg">
<g fill="none" stroke="#000" stroke-width="5">
<path d="m150.34 180h-100.67v-94.83a10.489 10.489 112.5 0 1 3.072-7.4165l1.2738-1.2738a10.489 10.489 157.5 0 1 7.4165-3.072h41.183v-41.183a10.489 10.489 112.5 0 1 3.072-7.4165l1.7339-1.7339a10.489 10.489 157.5 0 1 7.4165-3.072h35.505z"/>
<path d="m53.373 77.115 53.175-53.175"/>
</g>
<circle cx="91.314" cy="107.36" r="17.108"/>
<path d="m91.314 107.36h89.976" fill="none" stroke="#000" stroke-width="5"/>
<path d="m158.26 94.068 23.027 13.295-23.027 13.294" fill="none" stroke="#000" stroke-width="5"/>
<circle cx="91.314" cy="107.36" r="17.108"/>
<g fill="none" stroke="#000" stroke-width="5">
<path d="m91.314 107.36 32.94-32.94a13.382 13.382 157.5 0 1 9.4625-3.9195h47.574"/>
<path d="m158.26 57.209 23.027 13.295-23.027 13.294"/>
<path d="m91.314 107.36 32.94 32.94a13.382 13.382 22.5 0 0 9.4625 3.9195h47.574"/>
<path d="m158.26 157.52 23.027-13.294-23.027-13.294"/>
</g>
</svg>
