<svg width="10mm" height="10mm" version="1.1" viewBox="0 0 200 200" xmlns="http://www.w3.org/2000/svg">
<rect x="19.55" y="19.55" width="160.9" height="160.9" rx="24.569" ry="24.569" fill="none" stroke="#000" stroke-width="5"/>
<path d="m109.93 30.346v5.0371c10.646 1.6191 20.437 5.8106 28.738 11.908l3.5586-3.5586c-9.2611-6.9643-20.295-11.687-32.297-13.387zm0 14.266v5.0742c6.7893 1.329 13.097 3.989 18.637 7.707l3.5703-3.5703c-6.5295-4.5558-14.066-7.7574-22.207-9.2109zm0 14.379v5.1875c2.963 0.81743 5.7771 1.9773 8.3926 3.459l3.6191-3.6191c-3.6794-2.2514-7.706-3.9854-12.012-5.0273z"/>
<path d="m156.27 57.768-3.5618 3.5618c6.383 8.6727 10.342 18.56 11.901 28.741l5.0326-3e-6c-1.6241-11.473-6.0869-22.615-13.371-32.303zm-10.087 10.087-3.588 3.588c3.8611 5.7405 6.4406 12.082 7.7285 18.628l5.0492-1e-6c-1.3956-7.8385-4.4608-15.431-9.1896-22.216zm-10.167 10.167-3.6681 3.6681c1.5171 2.6731 2.6869 5.4832 3.4886 8.3803l5.1182-1e-6c-1.0098-4.1937-2.6308-8.2671-4.9387-12.048z"/>
<path d="m169.65 109.93h-5.0371c-1.6191 10.646-5.8106 20.437-11.908 28.738l3.5586 3.5586c6.9643-9.2611 11.687-20.295 13.387-32.297zm-14.266 0h-5.0742c-1.329 6.7893-3.989 13.097-7.707 18.637l3.5703 3.5703c4.5558-6.5295 7.7574-14.066 9.2109-22.207zm-14.379 0h-5.1875c-0.81744 2.963-1.9773 5.7771-3.459 8.3926l3.6191 3.6191c2.2514-3.6794 3.9854-7.706 5.0273-12.012z"/>
<path d="m142.23 156.27-3.5618-3.5618c-8.6727 6.383-18.56 10.342-28.741 11.901l1e-5 5.0326c11.473-1.6241 22.615-6.0869 32.303-13.371zm-10.087-10.087-3.588-3.588c-5.7405 3.8611-12.082 6.4406-18.628 7.7285v5.0492c7.8385-1.3956 15.431-4.4608 22.216-9.1896zm-10.167-10.167-3.6681-3.6681c-2.6732 1.5171-5.4832 2.6869-8.3803 3.4886v5.1182c4.1937-1.0098 8.2671-2.6308 12.048-4.9387z"/>
<path d="m90.07 169.65v-5.0371c-10.646-1.6191-20.437-5.8106-28.738-11.908l-3.5586 3.5586c9.2611 6.9643 20.295 11.687 32.297 13.387zm-7e-6 -14.266 7e-6 -5.0742c-6.7893-1.329-13.097-3.989-18.637-7.707l-3.5703 3.5703c6.5295 4.5558 14.066 7.7574 22.207 9.2109zm7e-6 -14.379v-5.1875c-2.963-0.81744-5.7771-1.9773-8.3926-3.459l-3.6191 3.6191c3.6794 2.2514 7.706 3.9854 12.012 5.0273z"/>
<path d="m43.726 142.23 3.5618-3.5618c-6.383-8.6727-10.342-18.56-11.901-28.741l-5.0326 1e-5c1.6241 11.473 6.0869 22.615 13.371 32.303zm10.087-10.087 3.588-3.588c-3.8611-5.7405-6.4406-12.082-7.7285-18.628h-5.0492c1.3956 7.8385 4.4608 15.431 9.1896 22.216zm10.167-10.167 3.6681-3.6681c-1.5171-2.6732-2.6869-5.4832-3.4886-8.3803h-5.1182c1.0098 4.1937 2.6308 8.2671 4.9387 12.048z"/>
<path d="m30.346 90.07 5.0371-4e-6c1.6191-10.646 5.8106-20.437 11.908-28.738l-3.5586-3.5586c-6.9643 9.2611-11.687 20.295-13.387 32.297zm14.266-8e-6 5.0742 7e-6c1.329-6.7893 3.989-13.097 7.707-18.637l-3.5703-3.5703c-4.5558 6.5295-7.7574 14.066-9.2109 22.207zm14.379 7e-6 5.1875-1e-6c0.81744-2.963 1.9773-5.7771 3.459-8.3926l-3.6191-3.6191c-2.2514 3.6794-3.9854 7.706-5.0273 12.012z"/>
<path d="m57.768 43.726 3.5618 3.5618c8.6727-6.383 18.56-10.342 28.741-11.901l-1e-5 -5.0326c-11.473 1.6241-22.615 6.0869-32.303 13.371zm10.087 10.087 3.588 3.588c5.7405-3.8611 12.082-6.4406 18.628-7.7285v-5.0492c-7.8385 1.3956-15.431 4.4608-22.216 9.1896zm10.167 10.167 3.6681 3.6681c2.6732-1.5171 5.4832-2.6869 8.3803-3.4886v-5.1182c-4.1937 1.0098-8.2671 2.6308-12.048 4.9387z"/>
<path d="m79.343 84.216h41.314" stroke="#000" stroke-width="5"/>
<path d="m79.343 115.78h41.314" stroke="#000" stroke-width="5"/>
</svg>
