<svg width="10mm" height="10mm" version="1.1" viewBox="0 0 200 200" xmlns="http://www.w3.org/2000/svg">
<g fill="none">
<g stroke="#000" stroke-width="5">
<path d="m125.68 156.75c-0.20073-1.1257-0.40148-2.2512-0.70703-3.3048-0.2096-0.72279-0.46863-1.4119-0.7432-2.0904-0.20786-0.51371-0.84161-0.95023-1.4069-0.97665-1.3218-0.0618-2.6519-0.11298-4.0259-0.113-1.7289-6e-5 -3.8839 0.0974-5.1316 0.45527-1.2477 0.35792-2.8368 1.3353-4.2674 2.389-1.4306 1.0538-2.9681 2.3474-4.5051 3.6406h-54.737c0.22236-1.279 0.44482-2.5582 0.18377-3.7505-0.26102-1.1923-1.0057-2.2983-1.5214-3.6362-0.51564-1.3378-0.80211-2.9072-0.5998-4.3351s0.89316-2.7138 2.1992-3.8364c1.306-1.1226 3.2266-2.0819 6.5996-3.0036 3.3729-0.92174 8.1978-1.8061 13.23-2.7986 5.032-0.99261 10.271-2.0935 14.472-3.4488 4.201-1.3554 7.3639-2.9646 9.8243-4.6649 2.4605-1.7003 4.2186-3.4913 5.852-5.5993 1.2426-1.6036 2.4131-3.3905 3.5664-5.2213l3.1457-1.4334c2.7384 0.40026 5.555 0.7981 8.7583 1.1836 4.0108 0.48262 8.6284 0.94602 13.752 1.0749 5.1234 0.12889 10.752-0.0763 14.251-0.28316 3.4988-0.20688 4.8666-0.41476 5.9815 0.028 1.1149 0.44271 1.9772 1.5355 2.5638 2.8561 0.58668 1.3206 0.89816 2.8692 1.2028 5.5998 0.30461 2.7305 0.60244 6.6429 0.72206 9.631 0.11978 2.9885 0.0616 5.053-0.10367 6.8701-0.16533 1.8171-0.43778 3.3869-0.91168 4.7242-0.47396 1.3374-1.1495 2.4425-1.5931 3.4188-0.44355 0.97622-0.65489 1.8232-0.62033 2.9061 0.0346 1.0828 0.3761 3.0597 0.51671 3.7188z"/>
<path d="m26.589 173.09h146.82"/>
<path d="m21.504 37.5h111.23"/>
<path d="m107.99 37.499a30.975 30.975 0 0 1 0.10113 2.5009 30.975 30.975 0 0 1-30.975 30.975 30.975 30.975 0 0 1-30.975-30.975 30.975 30.975 0 0 1 0.10166-2.5075"/>
<path d="m77.119 98.305v-17.585"/>
<path d="m106.27 90.494-8.7924-15.229"/>
<path d="m127.61 69.153-15.229-8.7924"/>
<path d="m47.966 90.494 8.7924-15.229"/>
<path d="m26.625 69.153 15.229-8.7924"/>
</g>
</g>
</svg>
