<svg width="10mm" height="10mm" version="1.1" viewBox="0 0 200 200" xmlns="http://www.w3.org/2000/svg">
<g fill="none">
<g stroke="#000" stroke-width="5">
<path d="m22.172 155.5v11.086h154.98v-11.086c0-5.0529-2.8603-9.722-7.5035-12.248-4.6432-2.5264-10.364-2.5264-15.007 0s-7.5035 7.1955-7.5035 12.248z"/>
<path d="m31.759 141.23c-3.1282 2.1772-7.3994 1.4116-9.5766-1.7166s-1.4116-7.3994 1.7167-9.5766l25.346-17.641a11 11 0 0 1 9.7375-1.4152l31.781 10.51 36.442-10.125c5.6066-1.5578 11.374 1.7017 12.932 7.3083s-1.7017 11.374-7.3083 12.932l-39.842 11.07a11 11 0 0 1-8.4669-1.085l-28.973-16.817z"/>
<circle cx="163.82" cy="113.78" r="11"/>
<path d="m55.444 63.609c0.39793-4.7041 4.1066-9.2048 8.9935-9.4725 5.1024-0.42833 9.7384 2.0584 14.374 3.7522 3.7929 1.0748 8.4789 0.70862 11.266-2.3638 2.2627-2.7438-4.2454-4.3287-7.2183-5.0774-9.0775-1.0987-15.258-7.3049-18.378-15.782-1.8953-5.8788 0.9912-12.185 4.9617-16.509 1.9265-2.1098 4.2044-3.8614 6.6426-5.3403 4.3254-2.6469 9.4959-3.9926 14.542-3.1349 4.7041 0.39793 9.2048 4.1066 9.4725 8.9935 0.42833 5.1024-2.0584 9.7384-3.7522 14.374-1.0748 3.793-0.70862 8.4789 2.3638 11.266 2.7438 2.2627 4.3287-4.2454 5.0774-7.2183 1.0987-9.0775 7.3049-15.258 15.782-18.378 5.8788-1.8953 12.185 0.9912 16.509 4.9617 2.1098 1.9265 3.8614 4.2044 5.3404 6.6426 2.6468 4.3254 3.9926 9.4959 3.1349 14.542-0.39793 4.7041-4.1066 9.2048-8.9935 9.4725-5.1024 0.42833-9.7384-2.0584-14.374-3.7522-3.7929-1.0748-8.4789-0.70862-11.266 2.3638-2.2627 2.7438 4.2454 4.3287 7.2183 5.0774 9.0775 1.0987 15.258 7.3049 18.378 15.782 1.8953 5.8788-0.9912 12.185-4.9617 16.509-1.9265 2.1098-4.2044 3.8614-6.6426 5.3403-4.3254 2.6469-9.4959 3.9926-14.542 3.1349-4.7041-0.39793-9.2048-4.1066-9.4725-8.9935-0.42833-5.1024 2.0584-9.7384 3.7522-14.374 1.0748-3.793 0.70863-8.4789-2.3638-11.266-2.7438-2.2627-4.3287 4.2454-5.0774 7.2183-1.0987 9.0775-7.3049 15.258-15.782 18.378-5.8788 1.8953-12.185-0.9912-16.509-4.9617-2.1098-1.9265-3.8614-4.2044-5.3403-6.6426-2.6469-4.3254-3.9926-9.4959-3.1349-14.542z"/>
</g>
</g>
</svg>
