<svg width="10mm" height="10mm" version="1.1" viewBox="0 0 200 200" xmlns="http://www.w3.org/2000/svg">
<path d="m100.15 91.967c9.3142 0 18.627 0 24.532 0.28727 5.9052 0.28727 8.402 0.86154 10.936 1.6731 2.5344 0.81159 5.106 1.8602 7.7652 3.3835 2.6591 1.5233 5.4056 3.5207 7.3188 5.1412s3.193 2.7152 4.0724 4.106c3.2944 5.2098 9.403 7.892 15.328 6.193 5.9252-1.699 9.8599-7.2123 9.7173-13.375-0.16215-7.0077-4.4727-10.075-10.203-12.346-3.0686-1.2166-3.5062-2.0073-7.0862-3.8905-3.5799-1.8832-9.1977-4.8045-12.381-6.6769s-3.9326-2.6964-4.2952-3.6577c-0.36253-0.96133-0.33756-2.0599-0.1004-2.9093 0.23715-0.84934 0.68658-1.4486 1.3113-1.7733 0.62474-0.3247 1.4237-0.37463 2.3975-0.38708 0.97382-0.01244 2.1224 0.01253 3.0588 0.18757 0.93642 0.17504 1.6605 0.49963 2.5967 0.68664 0.93625 0.18702 2.0848 0.23695 3.5515 0.33596 1.4668 0.09901 3.2516 0.24705 5.0354 0.395 15.999-2e-6 29.733 11.386 32.699 27.107 2.9659 15.722-5.6762 31.329-20.576 37.158s-31.838 0.22997-40.328-13.331c-1.1716-1.6946-2.3439-3.3903-3.8912-4.9624s-3.4698-3.0202-5.2551-4.144c-1.7852-1.1237-3.4331-1.9227-5.2184-2.3974-1.7853-0.47465-3.7079-0.62446-7.1786-0.6994-3.4707-0.075-8.4893-0.075-13.509-0.075"/>
<circle cx="53.182" cy="100" r="47.669" fill="none" stroke="#000" stroke-width="5"/>
<path d="m84.797 115.81h-33.857v15.73l-31.536-31.536 31.536-31.536v15.73l33.857-7.5e-4z" fill="none" stroke="#000" stroke-width="5"/>
</svg>
