<svg width="10mm" height="10mm" version="1.1" viewBox="0 0 200 200" xmlns="http://www.w3.org/2000/svg">
<g fill="none">
<g stroke="#000" stroke-width="5">
<path d="m89.239 10.771c-2.1403 8.7272-4.0627 17.508-5.7648 26.331-2.4805 12.858-4.4911 26.126-2.0254 38.986 2.0483 10.684 7.0795 20.522 10.762 30.758 2.0448 5.6829 3.6824 11.523 4.668 17.481 2.1736 13.141 1.1394 26.638-1.2734 39.737-1.5578 8.4574-3.6865 16.81-6.367 24.981"/>
<path d="m110.85 10.771c-2.1403 8.7272-4.0627 17.508-5.7648 26.331-2.4804 12.858-4.4911 26.126-2.0254 38.986 2.0483 10.684 7.0795 20.522 10.762 30.758 2.0448 5.6829 3.6824 11.523 4.668 17.481 2.1736 13.141 1.1394 26.638-1.2734 39.737-1.5578 8.4574-3.6865 16.81-6.367 24.981"/>
<path d="m100.04 10.771c-2.1403 8.7272-4.0627 17.508-5.7648 26.331-2.4805 12.858-4.4911 26.126-2.0254 38.986 2.0483 10.684 7.0795 20.522 10.762 30.758 2.0448 5.6829 3.6824 11.523 4.668 17.481 2.1736 13.141 1.1394 26.638-1.2734 39.737-1.5578 8.4574-3.6865 16.81-6.367 24.981"/>
</g>
</g>
</svg>
