<svg width="10mm" height="10mm" version="1.1" viewBox="0 0 200 200" xmlns="http://www.w3.org/2000/svg">
<path d="m91.525 3.8145-54.898 54.896 11.072 126.56h87.652l6.498-74.283c-1.7135-1.7121-3.2294-3.6201-4.5215-5.6797l-6.5586 74.963h-78.488l-10.469-119.67 49.713-49.715 44.805 44.807v-6.6973c0-0.12302 8e-3 -0.24452 0.01-0.36719l-44.814-44.812z"/>
<rect x="59.541" y="60.973" width="10.337" height="33.558"/>
<rect x="113.17" y="60.973" width="10.337" height="33.558"/>
<rect x="59.541" y="134.38" width="10.337" height="33.558"/>
<rect x="113.17" y="134.38" width="10.337" height="33.558"/>
<g fill="none" stroke="#000" stroke-width="5">
<path d="m64.709 151.16h53.632"/>
<path d="m64.709 77.752h53.632"/>
<path d="m91.525 77.752v73.407"/>
<path d="m143.49 88.59c0 11.485 9.2471 20.732 20.732 20.732s20.73-9.2471 20.73-20.732v-20.801h-41.462z"/>
<path d="m147.33 67.789v-18.795c0-9.3605 7.5357-16.896 16.896-16.896s16.896 7.5357 16.896 16.896v18.795"/>
</g>
<circle cx="164.23" cy="83.857" r="5.131"/>
<path d="m162.68 86.641-3.2793 12.234h9.6543l-3.2793-12.234h-3.0957z"/>
</svg>
