<svg width="10mm" height="10mm" version="1.1" viewBox="0 0 200 200" xmlns="http://www.w3.org/2000/svg">
<g fill="none" stroke="#000" stroke-width="5">
<path d="m146.51 95.262a54.847 54.847 0 0 1 8.3342 29.065 54.847 54.847 0 0 1-54.847 54.847 54.847 54.847 0 0 1-54.847-54.847 54.847 54.847 0 0 1 8.342-29.077l46.505-74.427z"/>
<path d="m70.531 148.73h58.938a3.7961 3.7961 0 0 0 3.1837-5.8636l-24.39-37.558v-22.786h-21.466a2.8234 2.8234 0 0 0-1.9965 4.8199l6.9386 6.9386-5e-6 11.028-24.39 37.558a3.7961 3.7961 0 0 0 3.1837 5.8636z"/>
</g>
</svg>
