<svg width="10mm" height="10mm" version="1.1" viewBox="0 0 200 200" xmlns="http://www.w3.org/2000/svg">
<g fill="none">
<g stroke="#000" stroke-width="5">
<path d="m160.19 68.483c3.2093 1.7618 5.3358 3.095 7.0471 4.4012 2.8463 2.1725 4.5441 4.2698 5.7175 5.9178s1.8226 2.8464 2.1968 3.92 0.47413 2.0224 0.29996 3.239c-0.17416 1.2166-0.62205 2.7013-1.0698 4.1855"/>
<path d="m90.928 77.302c7.292 1.8979 14.583 3.7955 23.796 5.3934 5.0588 0.87736 10.697 1.6644 16.498 2.3983 4.7637 0.60275 9.6369 1.1697 14.388 1.7214 5.096 0.59172 10.052 1.1659 14.48 1.6865 4.7273 0.55582 8.8527 1.0506 11.904 1.4404 5.91 0.7549 7.7924 1.116 9.1437 1.5968 1.3514 0.48077 2.1715 1.0805 3.2275 2.7978s2.3482 4.5515 2.8442 6.6426c0.49598 2.0911 0.19636 3.4393-0.47773 4.6624-0.67408 1.2231-1.7227 2.3217-3.1457 3.2704s-3.2207 1.7477-8.7135 2.0724c-3.7646 0.22254-9.2649 0.22219-14.813 0.11957-2.5472-0.0471-5.1044-0.11578-7.5085-0.19434-7.6404-0.24966-13.733-0.59921-19.85-1.3482-0.49096-0.0601-0.9821-0.1228-1.4724-0.1876-5.619-0.74253-11.134-1.762-15.107-2.3592-4.3196-0.64926-6.8164-0.79907-10.837-0.17496-4.0201 0.6241-9.563 2.0223-16.954 2.9462-7.3906 0.92391-16.629 1.3733-22.022 1.2987-5.3931-0.0747-6.9411-0.67389-8.5142-1.6974s-3.1711-2.4716-5.2434-3.6205c-2.0723-1.1488-4.6191-1.9977-7.7902-2.5222s-6.9662-0.72426-12.434-0.82416c-5.4682-0.0999-12.61-0.0999-19.751-0.0999v-35.655c6.8913-0.64918 13.783-1.2984 20.725-2.1724 6.9413-0.87393 13.932-1.9725 19.8-3.0462 5.8676-1.0737 10.612-2.1223 16.429-4.1698 5.8176-2.0475 12.709-5.0936 18.177-7.4156 5.4682-2.3221 9.513-3.92 12.534-4.7939 3.0214-0.87383 5.0188-1.0236 7.9903-0.42414 2.9714 0.59949 6.9164 1.9478 15.106 5.6682 2.3415 1.0637 5.03 2.3213 7.8675 3.6724"/>
<path d="m102.74 80.26c1.5802-0.38694 3.1597-0.7737 4.3235-1.4164 1.1639-0.64269 1.9129-1.5415 2.3748-2.3652s0.63665-1.5727 0.61183-2.8958c-0.0248-1.3232-0.24953-3.2207-0.47438-5.1194"/>
<path d="m117.33 83.133c0.63578-0.52037 1.2714-1.0407 1.8888-1.8s1.2166-1.758 1.404-3.081c0.18743-1.3229-0.0373-2.9708-0.26215-4.6199"/>
<path d="m74.444 110.92c0.25128 1.43 0.50235 2.8588 1.1651 4.185 0.66274 1.3261 1.7364 2.5496 3.0973 3.3981 1.3609 0.84857 3.0088 1.323 4.7065 1.4726s3.4455-0.0252 4.7934-0.53702c1.3479-0.51184 2.2967-1.3608 3.133-2.3094 0.83635-0.94868 1.5604-1.9973 1.7895-3.3447 0.22904-1.3473-0.03729-2.9942-0.3038-4.6422"/>
<path d="m92.825 109.14c0.69126 1.7729 1.3821 3.5447 2.252 5.1046 0.86994 1.56 1.9186 2.9082 3.5791 3.7317 1.6605 0.82348 3.9326 1.1231 5.9797 0.77336 2.047-0.34973 3.8697-1.3484 4.9306-2.6401 1.0609-1.2916 1.3605-2.8771 1.3278-4.537s-0.39808-3.3944-0.76372-5.1301"/>
<path d="m111.56 106.49c0.53982 2.1986 1.0794 4.3959 1.9497 6.1655 0.87039 1.7695 2.0709 3.1113 3.3474 4.2943s2.6286 2.2073 4.4004 2.7136c1.7719 0.50627 3.9634 0.49527 5.8954 0.0527 1.5428-0.3534 2.9203-0.98185 4.0912-2.0931"/>
<path d="m160.05 88.498 1e-5 -45.353"/>
<path d="m131.24 109.38v58.279c0 5.2425 6.4254 9.463 14.407 9.463 7.9813 0 14.407-4.2205 14.407-9.463v-56.552"/>
<path d="m131.24 43.145v41.951"/>
</g>
</g>
<path d="m140.52 119.32v45.072c0 1.8626 2.2828 3.3621 5.1185 3.3621 2.8356 0 5.1185-1.4995 5.1185-3.3621v-45.072"/>
<path d="m124.07 43.145h43.146" stroke="#000" stroke-width="5"/>
</svg>
