<svg width="10mm" height="10mm" version="1.1" viewBox="0 0 200 200" xmlns="http://www.w3.org/2000/svg">
<g fill="none" stroke="#000" stroke-width="5">
<path d="m22.226 22.226 155.55 155.55"/>
<path d="m177.77 22.226-155.55 155.55"/>
<path d="m61.27 152.56c7.3982-9.2005 9.7552-22.459 4.9897-33.403-4.3379-11.819-14.031-21.699-14.739-34.757-1.4299-13.908 4.0614-28.676 15.183-37.396"/>
<path d="m101.27 152.56c7.3982-9.2005 9.7552-22.459 4.9897-33.403-4.3379-11.819-14.031-21.699-14.739-34.757-1.4299-13.908 4.0614-28.676 15.183-37.396"/>
<path d="m141.27 152.56c7.3982-9.2005 9.7552-22.459 4.9897-33.403-4.3379-11.819-14.031-21.699-14.739-34.757-1.4299-13.908 4.0614-28.676 15.183-37.396"/>
</g>
</svg>
