<svg width="10mm" height="10mm" version="1.1" viewBox="0 0 200 200" xmlns="http://www.w3.org/2000/svg">
<g fill="none">
<path d="m152.46 110.18a58.876 58.876 0 0 1 6.4176 26.73 58.876 58.876 0 0 1-58.876 58.876 58.876 58.876 0 0 1-58.876-58.876 58.876 58.876 0 0 1 6.4283-26.751l52.447-102.93z" stroke="#000" stroke-width="5"/>
</g>
<path d="m97.926 112.43v6.9392h-26.188q0.42539-3.9348 2.5523-7.4443 2.1269-3.536 8.4014-9.3585 5.0515-4.7059 6.1947-6.3808 1.542-2.313 1.542-4.5729 0-2.4992-1.3559-3.8285-1.3293-1.3559-3.6956-1.3559-2.3396 0-3.7221 1.4091t-1.5952 4.6793l-7.4443-0.74443q0.66467-6.1681 4.1741-8.8534 3.5095-2.6853 8.7736-2.6853 5.7693 0 9.0661 3.1107t3.2968 7.7368q0 2.6321-0.95712 5.0249-0.93054 2.3662-2.9777 4.9717-1.3559 1.7281-4.892 4.9717-3.536 3.2436-4.4932 4.3071-0.93054 1.0635-1.5154 2.0738z"/>
<path d="m115.61 80.236q5.663 0 8.8534 4.0412 3.8019 4.7856 3.8019 15.872 0 11.06-3.8285 15.899-3.1638 3.988-8.8268 3.988-5.6896 0-9.1724-4.3602-3.4829-4.3868-3.4829-15.606 0-11.007 3.8285-15.846 3.1638-3.988 8.8268-3.988zm0 6.1947q-1.3559 0-2.4194 0.87736-1.0635 0.85078-1.6484 3.0841-0.77102 2.898-0.77102 9.7573 0 6.8594 0.69126 9.4383 0.69125 2.5523 1.7281 3.4031 1.0635 0.85078 2.4194 0.85078t2.4194-0.85078q1.0635-0.87736 1.6484-3.1106 0.77101-2.8714 0.77101-9.7308t-0.69125-9.4117q-0.69126-2.5789-1.7547-3.4297-1.0369-0.87736-2.3928-0.87736z"/>
<path d="m77.302 154.78h5.5382v3.1005q2.9722-3.6137 7.0777-3.6137 2.1811 0 3.7848 0.89808 1.6037 0.89809 2.6301 2.7156 1.4968-1.8175 3.2288-2.7156 1.732-0.89808 3.6992-0.89808 2.5018 0 4.2338 1.0264 1.732 1.005 2.5873 2.9722 0.6201 1.454 0.6201 4.7042v14.519h-6.0086v-12.979q0-3.3785-0.6201-4.3621-0.83393-1.283-2.566-1.283-1.2616 0-2.3735 0.76978-1.1119 0.76979-1.6037 2.2666-0.49181 1.4754-0.49181 4.6829v10.905h-6.0086v-12.445q0-3.3144-0.32074-4.2766-0.32074-0.96223-1.005-1.4327-0.66287-0.47042-1.8175-0.47042-1.3899 0-2.5018 0.7484t-1.6037 2.1597q-0.47042 1.4113-0.47042 4.6829v11.034h-6.0086z"/>
<path d="m116.69 177.49v-31.347h6.0086v31.347z"/>
<path d="m62.847 132.6h74.306" fill="none" stroke="#000" stroke-width="5"/>
</svg>
