<svg width="10mm" height="10mm" version="1.1" viewBox="0 0 200 200" xmlns="http://www.w3.org/2000/svg">
<path d="m92.334 77.639h-5.7627v-21.718q-3.1582 2.9531-7.4443 4.3682v-5.2295q2.2559-0.73828 4.9014-2.7891 2.6455-2.0713 3.6299-4.8193h4.6758zm7.6953-7.7314 5.7422-0.59473q0.2461 1.9482 1.4561 3.0967 1.21 1.1279 2.7891 1.1279 1.8047 0 3.0557-1.4561 1.251-1.4766 1.251-4.4297 0-2.7686-1.251-4.1426-1.2305-1.3945-3.2197-1.3945-2.4814 0-4.4502 2.1943l-4.6758-0.67676 2.9531-15.647h15.237v5.3936h-10.869l-0.90234 5.1064q1.9277-0.96387 3.9375-0.96387 3.835 0 6.501 2.7891t2.666 7.2393q0 3.7119-2.1533 6.624-2.9326 3.9785-8.1416 3.9785-4.1631 0-6.7881-2.2354t-3.1377-6.0088z"/>
<path d="m107.53 90.287c-2.4354 0-4.5337 0.95395-6.2969 2.8632v-2.4571h-4.9278v17.998h5.3457v-8.746c0-1.7286 0.14086-2.9653 0.41991-3.7109 0.29176-0.74565 0.76619-1.3155 1.4258-1.7109 0.6596-0.39542 1.4021-0.59375 2.2265-0.59375 0.68497 0 1.2239 0.1245 1.6172 0.37305 0.40591 0.24854 0.70426 0.62636 0.89454 1.1348 0.19027 0.5084 0.28516 1.6395 0.28516 3.3906v9.8631h5.3457v-8.6445c0-1.6947 0.14576-2.9314 0.4375-3.7109 0.29175-0.79084 0.76814-1.3902 1.4277-1.7969 0.6596-0.40672 1.363-0.60937 2.1114-0.60937 1.0274 0 1.7885 0.33971 2.2832 1.0176 0.36785 0.51969 0.55274 1.672 0.55274 3.457v10.287h5.3457v-11.508c0-1.7172-0.18292-2.9603-0.55078-3.7285-0.50738-1.0394-1.2753-1.8244-2.3027-2.3554-1.0274-0.54228-2.2834-0.81249-3.7676-0.81249-1.1669 0-2.2636 0.23643-3.291 0.71094-1.0274 0.4745-1.9852 1.192-2.873 2.1523-0.60886-0.96026-1.3885-1.6778-2.3398-2.1523-0.95133-0.4745-2.0753-0.71094-3.3691-0.71094zm-34.299 0.40625v27.363h4.9668v-12.06c0.7357 0.96026 1.7051 1.7179 2.9102 2.2715 1.1924 0.55358 2.4552 0.83008 3.7871 0.83008 1.3572 0 2.5742-0.26589 3.6523-0.79688 1.0782-0.53098 1.8578-1.276 2.3398-2.2363 0.48201-0.96026 0.72461-2.2877 0.72461-3.9824v-11.388h-5.3477v8.2695c0 2.5307-0.0949 4.084-0.28515 4.6601-0.20296 0.56488-0.56392 1.0165-1.084 1.3554-0.52006 0.32763-1.1794 0.49218-1.9785 0.49218-0.91329 0-1.732-0.21954-2.4551-0.66015-0.72302-0.45191-1.218-1.0068-1.4844-1.6621-0.26637-0.66656-0.39844-2.2874-0.39844-4.8632v-7.5917h-5.3477z"/>
<g fill="none" stroke="#000" stroke-width="5">
<rect x="47.252" y="18.316" width="104.38" height="162.66"/>
<path d="m99.443 18.316v-16.106"/>
<path d="m99.443 197.08v-16.106"/>
<path d="m65.904 132.32h-18.652"/>
<path d="m151.63 132.32h-18.652"/>
<path d="m117.61 132.32h-36.327"/>
</g>
</svg>
