<svg width="10mm" height="10mm" version="1.1" viewBox="0 0 200 200" xmlns="http://www.w3.org/2000/svg">
<path d="m35.568 166 24.657-65.995 26.575 2.86e-4 -12.669 66 50.674-5e-3 -12.172-65.995h26.808l24.461 66 2.101-5e-3v-19.485l-132 5e-3v-19.475h132l5e-3 -16.48-132 1e-3z"/>
<g fill="none" stroke="#000" stroke-width="5">
<path d="m34 34h132v132l-132 0.00499z"/>
<path d="m34 100h132"/>
<path d="m166 73.6h-132"/>
<path d="m34 47.2h132"/>
<path d="m60.4 34-0.175 66"/>
<path d="m86.8 34 8e-6 66"/>
<path d="m113.2 34v66"/>
<path d="m139.6 34v66"/>
</g>
</svg>
