<svg width="10mm" height="10mm" version="1.1" viewBox="0 0 200 200" xmlns="http://www.w3.org/2000/svg">
<g fill="none">
<path d="m67.161 29.237h65.678l6.3e-4 35.144c15.907 10.848 25.423 28.861 25.423 48.119 0 32.178-26.085 58.263-58.263 58.263s-58.263-26.085-58.263-58.263c0-19.237 9.496-37.235 25.4-48.052z" stroke="#000" stroke-width="10"/>
</g>
<path d="m97.638 136.93-7.6904-32.212h6.6577l4.856 22.126 5.8887-22.126h7.7344l5.647 22.5 4.9438-22.5h6.5478l-7.8223 32.212h-6.8994l-6.416-24.082-6.394 24.082zm-29.861 0v-32.212h6.1743v17.095l7.229-8.2178h7.6025l-7.9761 8.5254 8.5474 14.81h-6.6577l-5.8667-10.481-2.8784 3.0103v7.4707z"/>
<path d="m100 50.847v38.771" fill="none" stroke="#000" stroke-width="5"/>
<path d="m80.614 70.233h38.771" fill="none" stroke="#000" stroke-width="5"/>
</svg>
