<svg width="10mm" height="10mm" version="1.1" viewBox="0 0 200 200" xmlns="http://www.w3.org/2000/svg">
<g fill="none">
<g stroke="#000" stroke-width="5">
<ellipse cx="71.012" cy="85.471" rx="15.667" ry="15.249"/>
<ellipse cx="128.99" cy="85.471" rx="15.667" ry="15.249"/>
<path d="m13.163 129.78c4.9938 0 9.9875-1.2562 14.462-3.7687 8.9492-5.025 14.462-14.311 14.462-24.361v-0.92553 0.92553c0 10.05 5.5129 19.336 14.462 24.361s19.975 5.025 28.924 0 14.462-14.311 14.462-24.361l0.06413-0.92553 0.0641 0.92553c0 10.05 5.5129 19.336 14.462 24.361 8.9492 5.025 19.975 5.025 28.924 0s14.462-14.311 14.462-24.361v-0.92553 0.92553c0 10.05 5.5129 19.336 14.462 24.361 4.4746 2.5125 9.4684 3.7687 14.462 3.7687"/>
</g>
</g>
</svg>
