<svg width="10mm" height="10mm" version="1.1" viewBox="0 0 200 200" xmlns="http://www.w3.org/2000/svg">
<g fill="none">
<g stroke="#000" stroke-width="5.5">
<path d="m148.22 49.479 9.9046-3.605m-29.734 10.822 9.9046-3.605m-29.734 10.822 9.9046-3.605m-29.734 10.822 9.9046-3.605m-29.734 10.822 9.9046-3.605m-29.734 10.822 9.9046-3.605m-29.734 10.822 9.9046-3.605m-29.734 10.822 9.9046-3.605"/>
<path transform="rotate(70)" d="m76.531-133.09a20.659 20.765 0 0 1 20.659-20.765 20.659 20.765 0 0 1 20.659 20.765"/>
<path d="m148.22 150.52 9.9046 3.605m-29.734-10.822 9.9046 3.605m-29.734-10.822 9.9046 3.605m-29.734-10.822 9.9046 3.605m-29.734-10.822 9.9046 3.605m-29.734-10.822 9.9046 3.605m-29.734-10.822 9.9046 3.605m-29.734-10.822 9.9046 3.605"/>
<path transform="rotate(110)" d="m70.088-201.5a20.659 20.765 0 0 1 20.659-20.765 20.659 20.765 0 0 1 20.659 20.765"/>
</g>
</g>
</svg>
