<svg width="10mm" height="10mm" version="1.1" viewBox="0 0 200 200" xmlns="http://www.w3.org/2000/svg">
<g fill="none">
<g stroke="#000" stroke-width="5">
<path d="m99.845 142.59-15.594-58.198c-1.0877-4.0593 1.3046-8.203 5.364-9.2907 4.0593-1.0877 8.203 1.3046 9.2907 5.364l12.221 45.61"/>
<path d="m107.11 111.07c-0.96618-3.6059 1.1589-7.2866 4.7647-8.2528 3.6059-0.96619 7.2866 1.1589 8.2528 4.7647l4.6157 17.226"/>
<path d="m120.94 110.65c-0.96618-3.6058 1.1589-7.2866 4.7648-8.2528 3.6058-0.96618 7.2866 1.1589 8.2528 4.7647l4.5382 16.937"/>
<path d="m94.665 123.27c-2.9678-3.2906-6.5547-6.3434-10.937-7.4522-2.1879-0.46353-4.7299 1.1082-4.5923 3.5024-0.0971 4.3527 1.5451 8.4616 2.5447 12.637 1.763 6.5092 3.4556 13.039 5.2637 19.535 1.1526 3.7316 4.4162 6.049 7.0093 8.7391 4.1796 4.1095 8.411 8.1682 12.557 12.311 2.6882 2.8332 3.1092 6.8136 4.1836 10.392 0.86537 3.2296 1.7307 6.4592 2.5961 9.6888 0.51812 1.17 1.8254 0.2719 2.7184 0.14895 10.905-2.9219 21.809-5.8438 32.714-8.7657 1.17-0.51812 0.27191-1.8254 0.14895-2.7184-1.0074-3.9202-2.1828-7.8026-3.069-11.75-0.61026-3.5163 1.336-6.635 2.5208-9.7944 1.8153-4.5253 3.7961-8.9886 5.4897-13.56 1.1295-3.6713 0.70726-7.5409 0.84748-11.323 0.0253-4.4431-1.7749-8.5763-2.7676-12.842-1.2627-4.6264-2.4396-9.2788-3.7574-13.889-1.2933-3.7716-6.2128-5.5322-9.6161-3.4653-2.6381 1.436-4.0158 4.7229-3.1891 7.6117"/>
<path d="m81.931 132.88h-34.59v-117h105v107.89"/>
</g>
</g>
<path d="m67.889 37.473h-2.6602v-10.026q-1.4579 1.3632-3.4365 2.0165v-2.4141q1.0414-0.34081 2.2626-1.2875 1.2212-0.95617 1.6757-2.2247h2.1585z"/>
<path d="m104.5 35.002v2.4709h-9.325q0.15147-1.4011 0.90883-2.6508 0.75736-1.2591 2.9916-3.3324 1.7987-1.6757 2.2058-2.2721 0.54909-0.82363 0.54909-1.6283 0-0.8899-0.48282-1.3632-0.47335-0.48282-1.3159-0.48282-0.8331 0-1.3254 0.50175-0.49228 0.50175-0.56802 1.6662l-2.6508-0.26508q0.23667-2.1963 1.4863-3.1525t3.1241-0.95617q2.0543 0 3.2282 1.1076t1.1739 2.7549q0 0.93723-0.34081 1.7893-0.33135 0.84256-1.0603 1.7703-0.48281 0.61536-1.7419 1.7703t-1.5999 1.5337q-0.33134 0.37868-0.53962 0.73842z"/>
<path d="m130.23 33.672 2.575-0.31241q0.12307 0.98457 0.66269 1.5053 0.53962 0.52068 1.3064 0.52068 0.82363 0 1.3822-0.62482 0.56802-0.62482 0.56802-1.6851 0-1.0035-0.53962-1.5905-0.53961-0.58695-1.3159-0.58695-0.51121 0-1.2212 0.19881l0.29348-2.1679q1.0792 0.0284 1.6472-0.46388 0.56802-0.50175 0.56802-1.3254 0-0.70056-0.41654-1.1171-0.41655-0.41655-1.1076-0.41655-0.68163 0-1.1644 0.47335-0.48282 0.47335-0.58696 1.3822l-2.452-0.41655q0.25561-1.2591 0.76683-2.007 0.52068-0.75736 1.439-1.1834 0.92777-0.43548 2.0733-0.43548 1.9597 0 3.143 1.2496 0.9751 1.0224 0.9751 2.3099 0 1.8271-1.9975 2.9158 1.1928 0.25561 1.9029 1.1455 0.71949 0.8899 0.71949 2.149 0 1.8271-1.3348 3.1146t-3.3229 1.2875q-1.8839 0-3.1241-1.0792-1.2402-1.0887-1.439-2.8401z"/>
<path d="m65.531 66.723v-2.7928h-5.6802v-2.3289l6.021-8.8138h2.2342v8.8043h1.723v2.3383h-1.723v2.7928zm0-5.1311v-4.743l-3.1904 4.743z"/>
<path d="m95.173 62.912 2.6508-0.27454q0.1136 0.89936 0.67216 1.4295 0.55855 0.52068 1.2875 0.52068 0.8331 0 1.4106-0.67216 0.57749-0.68162 0.57749-2.0449 0-1.278-0.57749-1.9123-0.56802-0.64376-1.4863-0.64376-1.1455 0-2.0543 1.013l-2.1585-0.31241 1.3632-7.2233h7.034v2.4898h-5.0175l-0.41655 2.3573q0.8899-0.44495 1.8177-0.44495 1.7703 0 3.001 1.2875t1.2307 3.3418q0 1.7135-0.99403 3.0578-1.3538 1.8366-3.7584 1.8366-1.9218 0-3.1336-1.0319t-1.4484-2.7738z"/>
<path d="m139.22 56.124-2.575 0.28401q-0.0947-0.79523-0.49228-1.1739-0.39761-0.37868-1.0319-0.37868-0.84256 0-1.4295 0.75736-0.57748 0.75736-0.72896 3.1525 0.99404-1.1739 2.4709-1.1739 1.6662 0 2.8496 1.2686 1.1928 1.2686 1.1928 3.2756 0 2.1301-1.2496 3.4176t-3.2093 1.2875q-2.1017 0-3.4554-1.6283-1.3538-1.6378-1.3538-5.3583 0-3.8152 1.4106-5.5003t3.6637-1.6851q1.581 0 2.6129 0.8899 1.0414 0.88043 1.3254 2.5656zm-6.0305 5.8033q0 1.297 0.59642 2.007 0.59642 0.70056 1.3632 0.70056 0.73842 0 1.2307-0.57749t0.49228-1.8934q0-1.3538-0.53015-1.9786-0.53015-0.63429-1.3254-0.63429-0.76682 0-1.297 0.60589-0.53015 0.59642-0.53015 1.7703z"/>
<path d="m60.291 84.631v-2.4709h9.0978v1.9313q-1.1266 1.1076-2.291 3.1809t-1.7798 4.4116q-0.60589 2.3289-0.59642 4.1655h-2.5656q0.06627-2.878 1.1834-5.8695 1.1266-2.9916 3.001-5.3488z"/>
<path d="m130.47 92.64 2.575-0.28401q0.0947 0.78576 0.49228 1.1644 0.39761 0.37868 1.0508 0.37868 0.82362 0 1.4011-0.75736 0.57749-0.75736 0.73843-3.143-1.0035 1.1644-2.5088 1.1644-1.6378 0-2.8306-1.2591-1.1834-1.2686-1.1834-3.2945 0-2.1111 1.2496-3.3986 1.2591-1.297 3.1998-1.297 2.1111 0 3.4649 1.6378 1.3538 1.6283 1.3538 5.3678 0 3.8057-1.4106 5.4909-1.4106 1.6851-3.6732 1.6851-1.6283 0-2.6318-0.8615-1.0035-0.87096-1.2875-2.594zm6.021-5.8127q0-1.2875-0.59642-1.9975-0.58695-0.71002-1.3632-0.71002-0.73842 0-1.2307 0.58695-0.48281 0.57749-0.48281 1.9029 0 1.3443 0.53015 1.9786 0.53015 0.62482 1.3254 0.62482 0.76682 0 1.2875-0.60589 0.53015-0.60589 0.53015-1.7798z"/>
<path d="m61.779 125.61-3.1771-2.4617q1.5149-1.7043 3.1561-3.2613 0.65225-0.63121 0.82058-0.79953-0.52601-0.0842-3.0088-0.69433-1.7884-0.44185-2.3565-0.65226l1.2414-3.7031q2.7563 1.1151 4.9234 2.4617-0.50497-3.4296-0.50497-5.5967h3.7452q0 1.536-0.56809 5.6388 0.42081-0.16832 1.8095-0.82057 1.8936-0.86266 3.4927-1.4728l1.1151 3.8083q-2.3355 0.52601-5.4074 1.031l2.5248 2.8404q0.75745 0.86265 1.1993 1.4097l-3.2192 2.1251-2.8405-4.692q-1.2835 2.2724-2.9457 4.8393z"/>
<g fill="none" stroke="#000" stroke-width="5">
<path d="m47.34 45.13h105"/>
<path d="m152.34 74.38h-105"/>
<path d="m47.34 103.63h42.066"/>
<path d="m82.34 115.78v-99.901"/>
<path d="m117.34 15.88v87.823"/>
<path d="m152.34 103.63c-7.0006-0.0781-14.002-0.15615-21.005-0.23424"/>
<path d="m85.392 103.63v-8.6499"/>
</g>
</svg>
