<svg width="10mm" height="10mm" version="1.1" viewBox="0 0 200 200" xmlns="http://www.w3.org/2000/svg">
<g fill="none">
<g stroke="#000" stroke-width="5">
<path d="m77.39 68.873h39.138"/>
<path d="m94.924 87.347h41.696"/>
<path d="m74.148 87.347h10.599"/>
<path d="m94.924 105.82h41.696"/>
<path d="m74.148 105.82h10.599"/>
<path d="m93.133 124.3h41.696"/>
<path d="m72.357 124.3h10.599"/>
<path d="m92.621 142.77h41.696"/>
<path d="m71.846 142.77h10.599"/>
</g>
</g>
<path d="m43.408 43.746c-2.1594 0-3.8984 1.7391-3.8984 3.8984v8.2246c0 2.1594 1.7391 3.8984 3.8984 3.8984h12.281v-5.2344h84.91v5.2344h12.283c2.1594 0 3.8965-1.7391 3.8965-3.8984v-8.2246c0-2.1594-1.7371-3.8984-3.8965-3.8984h-109.47z"/>
<g fill="none" stroke="#000" stroke-width="5">
<path d="m63.22 166.03h89.287c-2.5278-8.1099-3.9364-16.568-4.1734-25.059-0.4574-16.386 3.419-32.663 2.9749-49.05-0.39817-14.695-4.3355-29.281-11.386-42.18h-89.587c5.5847 10.628 8.9374 22.422 9.7785 34.399 1.2078 17.2-2.7021 34.392-2.2666 51.629 0.2597 10.28 2.0774 20.52 5.3719 30.262z"/>
<path d="m27.565 27.565 144.87 144.87"/>
<path d="m172.43 27.565-144.87 144.87"/>
</g>
</svg>
