<svg width="10mm" height="10mm" version="1.1" viewBox="0 0 200 200" xmlns="http://www.w3.org/2000/svg">
<g fill="none">
<g stroke="#000" stroke-width="5">
<path d="m77.997 114.47c0 3.3613-2.706 6.0673-6.0673 6.0673s-6.0673-2.706-6.0673-6.0673v-8.294"/>
<path d="m109.16 106.18h4.4328c1.8355 0 3.3131-1.4776 3.3131-3.3131v-76.281c0-1.8354-1.4776-3.3131-3.3131-3.3131h-48.814c-1.8354 0-3.3131 1.4776-3.3131 3.3131v76.281c0 1.8355 3.3131 3.3131 3.3131 3.3131h26.704"/>
<path d="m91.478 113.8c0 3.7348-3.0067 6.7415-6.7415 6.7415s-6.7415-3.0067-6.7415-6.7415v-7.6198"/>
<path d="m65.863 113.57c0 3.8593-3.1069 6.9662-6.9662 6.9662s-6.9662-3.1069-6.9662-6.9662v-11.985c0-3.8593 3.1069-6.9662 6.9662-6.9662h2.5668"/>
<path d="m79.907 149.87c0.0624-1.2848 0.12475-2.5697 0.23719-4.5438s0.27461-4.631 0.5804-7.1716c0.3058-2.5406 0.75521-4.9624 1.4603-6.8725s1.6663-3.3083 2.9957-4.4883 3.0272-2.1413 4.1386-3.121c1.1115-0.97977 1.6359-1.9785 1.8984-2.9658 0.26255-0.9873 0.26255-1.963 0.26255-2.9396v-34.244c0-4.8967 3.9421-8.8388 8.8388-8.8388s8.8388 3.9421 8.8388 8.8388v34.244"/>
</g>
</g>
<rect transform="rotate(90)" x="32.059" y="-105.63" width="14.619" height="14.619" rx="0" ry="0"/>
<path d="m116.91 93.721 5.8936 20.693c0.26684 0.93692 0.2333 1.9339-0.0959 2.8508l-14.771 41.142c-0.33497 0.93297-0.50624 1.9168-0.50624 2.9081v23.608h-36.547v-15.663c0-0.96632-0.34784-1.9004-0.97991-2.6313l-17.002-19.662c-0.63207-0.73094-0.97991-1.665-0.97991-2.6313v-31.759" fill="none" stroke="#000" stroke-width="5"/>
<path transform="rotate(90)" d="m14.586-56.977c0 2.2301 1.7953 4.0254 4.0254 4.0254h5.0859c2.2301 0 4.0254-1.7953 4.0254-4.0254v-3.7227h-3.252v-56.568h3.252v-4.1152c0-2.2301-1.7953-4.0254-4.0254-4.0254h-5.0859c-2.2301 0-4.0254 1.7953-4.0254 4.0254v64.406z"/>
<path d="m174.78 78.076-19.068 33.026-19.068-33.026" fill="none" stroke="#000" stroke-width="5"/>
<path d="m155.72 111.1v-91.289" fill="none" stroke="#000" stroke-width="5"/>
</svg>
