<svg width="10mm" height="10mm" version="1.1" viewBox="0 0 200 200" xmlns="http://www.w3.org/2000/svg">
<g fill="none">
<g stroke="#000">
<path d="m109.87 165.78h-72.26l-17.117-33.477a4.1271 4.1271 0 0 1 3.872-6.0012l74.233 3.5544 18.165-45.542a8.0148 8.0148 0 0 1 9.5188-4.7724l6.247 1.6739z" stroke-width="10"/>
<path d="m130.6 63.639 9.3495 3.1618 11.831-34.984-10.622-3.592a9.5654 9.5654 0 0 0-12.037 5.7465l-5.5338 14.98a11.352 11.352 0 0 0 7.0122 14.688z" stroke-width="10"/>
<path d="m158.69 75.635 23.007 19.305 5.2903-30.003" stroke-width="5"/>
<path d="m163.29 56.254c5.0971 6.7187 9.2912 14.122 12.434 21.947 1.9212 4.7835 3.4511 9.7242 4.5692 14.756" stroke-width="5"/>
</g>
</g>
</svg>
