<svg width="10mm" height="10mm" version="1.1" viewBox="0 0 200 200" xmlns="http://www.w3.org/2000/svg">
<g fill="none">
<circle cx="73.857" cy="99.325" r="13.333" stroke="#000" stroke-width="10"/>
</g>
<circle cx="153.05" cy="151.37" r="11"/>
<path d="m60.524 99.325-38.34-2e-6" fill="none" stroke="#000" stroke-width="10"/>
<rect x="13.183" y="68.325" width="18" height="62" rx="6" ry="6"/>
<path d="m87.19 99.325 38.34-2e-6" fill="none" stroke="#000" stroke-width="10"/>
<rect transform="scale(-1,1)" x="-134.53" y="68.325" width="18" height="62" rx="6" ry="6"/>
<rect transform="scale(-1,1)" x="-158.05" y="56.318" width="10" height="95.051" rx="5" ry="5"/>
<g stroke="#000" stroke-width="5">
<path d="m153.05 99.325h32.868"/>
<path d="m153.05 76.403h32.868"/>
<path d="m153.05 122.25h32.868"/>
</g>
<g fill="none" stroke="#000" stroke-width="5">
<path d="m61.673 141.72a12.183 12.431 0 0 0 6.0917 10.765 12.183 12.431 0 0 0 12.183 1e-5 12.183 12.431 0 0 0 6.0917-10.765v-1.5019"/>
<path d="m86.04 141.72a12.183 12.431 0 0 0 6.0917 10.765 12.183 12.431 0 0 0 12.183 1e-5 12.183 12.431 0 0 0 6.0917-10.765v-1.5019"/>
<path d="m128.68 152.49a12.183 12.431 0 0 1-12.183-1e-5 12.183 12.431 0 0 1-6.0917-10.765"/>
<path d="m19.032 152.49a12.183 12.431 0 0 0 12.183 0 12.183 12.431 0 0 0 6.0917-10.765v-1.5019"/>
<path d="m37.307 141.72a12.183 12.431 0 0 0 6.0917 10.765 12.183 12.431 0 0 0 12.183 1e-5 12.183 12.431 0 0 0 6.0917-10.765v-1.5019"/>
</g>
</svg>
