<svg width="10mm" height="10mm" version="1.1" viewBox="0 0 200 200" xmlns="http://www.w3.org/2000/svg">
<g fill="none">
<g stroke="#000" stroke-width="5">
<path d="m126.03 128.24v-2.2472c0-6.0399-4.8963-10.936-10.936-10.936h-56.928c-5.2952 0-9.5879-4.2926-9.5879-9.5879v-19.775c-1e-6 -5.2952 4.2926-9.5879 9.5879-9.5879h56.928c6.0399 0 10.936-4.8963 10.936-10.936v-2.2472h-92.433v20.974h-11.835v-13.932h-9.5879v61.422h9.5879v-14.681h11.835v11.535z" stroke-linejoin="round"/>
<path d="m143.17 84.844v-12.611c-0.0135-11.221 9.0552-20.317 20.256-20.317 11.2-1.1e-5 20.291 9.0964 20.305 20.317v13.233" stroke-linejoin="round"/>
<rect x="138.74" y="84.844" width="49.407" height="39.799" rx="0" ry="0"/>
</g>
</g>
<path d="m163.44 93.708c-3.0729 9.4e-4 -5.5634 2.4924-5.5632 5.5653 5e-3 2.0205 1.106 3.8791 2.8746 4.8559l-3.5555 13.267h12.491l-3.5555-13.267c1.7687-0.97675 2.869-2.8354 2.8746-4.8559 1.9e-4 -3.0736-2.4916-5.5655-5.5653-5.5653z"/>
<path d="m79.597 76.106-4e-6 38.951" fill="none" stroke="#000" stroke-width="5"/>
<path d="m99.222 76.106v38.951" fill="none" stroke="#000" stroke-width="5"/>
</svg>
