<svg width="10mm" height="10mm" version="1.1" viewBox="0 0 200 200" xmlns="http://www.w3.org/2000/svg">
<g fill="none">
<path d="m18.644 125.11v-8.4746l4.9788-4.9788h14.513l10.222 10.222 10.222-10.222h23.729l10.222 10.222 12.722-12.722h25l11.695-11.695h29.395a5.139 5.139 0 0 1 5.139 5.139v41.629a5.139 5.139 0 0 1-5.139 5.139h-27.276l-14.83-14.831h-101.17z" stroke="#000" stroke-linejoin="round" stroke-width="5"/>
</g>
<rect x="154.95" y="104.14" width="10.454" height="38.538" rx="5.227" ry="5.227"/>
<g fill="none" stroke="#000" stroke-width="10">
<path d="m62.84 50.864a104.45 104.45 0 0 1 114.73-13.912"/>
<path d="m78.008 65.798a83.266 83.266 0 0 1 88.742-10.557"/>
<path d="m93.832 81.383a61.232 61.232 0 0 1 61.65-7.0792"/>
</g>
</svg>
