<svg width="10mm" height="10mm" version="1.1" viewBox="0 0 200 200" xmlns="http://www.w3.org/2000/svg">
<circle cx="98.292" cy="99.476" r="6.1516"/>
<path d="m176.93 89.889-3.842 6.6546 13.933 8.0441 5.6251-5.6251z"/>
<path d="m67.277 172.37-3.842-6.6546-13.933 8.0441 2.0589 7.684z"/>
<g fill="none" stroke="#000" stroke-width="5">
<path d="m50.336 50h44.021a50.313 50.313 15 0 1 25.156 6.7406l73.13 42.222-16.492 16.492-23.339-13.475"/>
<path d="m165.12 82.683-22.011 38.124a50.313 50.313 135 0 1-18.416 18.416l-73.13 42.222-6.0366-22.529 23.339-13.475"/>
<path d="m79.423 165.74-22.011-38.124a50.313 50.313 75 0 1-6.7406-25.156l-1e-6 -84.443 22.529 6.0366 6e-6 26.949"/>
</g>
<path d="m50.672 36.168 7.684 4e-6v-16.088l-7.684-2.0589z"/>
</svg>
