<svg width="10mm" height="10mm" version="1.1" viewBox="0 0 200 200" xmlns="http://www.w3.org/2000/svg">
<g fill="none">
<g stroke="#000">
<g stroke-width="7">
<path d="m76.179 56.629c0 7.741 1.2797 15.428 3.8633 22.737 11.033-2.0391 18.984-11.595 18.984-22.738s-7.9513-20.698-18.984-22.737c-2.5836 7.3096-3.8633 14.997-3.8633 22.738z"/>
<path d="m66.666 56.628h-24.569"/>
<path d="m70.811 31.58-23.271-7.8792"/>
<path d="m70.511 81.677-23.271 7.8792"/>
<path d="m145.67 56.629c0 7.741-1.2797 15.428-3.8633 22.737-11.033-2.0391-18.984-11.595-18.984-22.738s7.9513-20.698 18.984-22.737c2.5836 7.3096 3.8633 14.997 3.8633 22.738z"/>
<path d="m155.18 56.628h24.569"/>
<path d="m151.04 31.58 23.271-7.8792"/>
<path d="m151.34 81.677 23.271 7.8792"/>
</g>
<g stroke-width="8">
<rect x="53.461" y="109.4" width="123.62" height="25.731" rx="0" ry="0"/>
<path d="m11.017 135.13h28.39"/>
<circle cx="71.716" cy="161.76" r="14.089"/>
<circle cx="154.98" cy="161.76" r="14.089"/>
</g>
</g>
</g>
</svg>
