<svg width="10mm" height="10mm" version="1.1" viewBox="0 0 200 200" xmlns="http://www.w3.org/2000/svg">
<g fill="none" stroke="#000" stroke-width="5">
<rect x="70.233" y="90.254" width="59.534" height="70.763"/>
<path d="m82.521 38.771c-6.8076 0-12.289 5.4795-12.289 12.287v27.861h59.535v-27.861c0-6.8076-5.4814-12.287-12.289-12.287h-34.957z"/>
</g>
<path d="m87.283 46.822c-4.9526 0-8.9395 4.0237-8.9395 9.0215v0.51172h43.312v-0.51172c0-4.9978-3.9869-9.0215-8.9394-9.0215h-25.434z"/>
<g fill="none" stroke="#000" stroke-linecap="round" stroke-width="8">
<path d="m80.456 26.373a27.64 27.64 0 0 1 19.544-8.0956 27.64 27.64 0 0 1 19.544 8.0956"/>
<path d="m71.981 17.898a39.625 39.625 0 0 1 28.019-11.606 39.625 39.625 0 0 1 28.019 11.606"/>
<path d="m54.46 91.457a27.64 27.64 0 0 1-8.0956-19.544 27.64 27.64 0 0 1 8.0956-19.544"/>
<path d="m45.986 99.931a39.625 39.625 0 0 1-11.606-28.019 39.625 39.625 0 0 1 11.606-28.019"/>
<path d="m145.54 91.457a27.64 27.64 0 0 0 8.0956-19.544 27.64 27.64 0 0 0-8.0956-19.544"/>
<path d="m154.01 99.931a39.625 39.625 0 0 0 11.606-28.019 39.625 39.625 0 0 0-11.606-28.019"/>
<path d="m80.456 173.42a27.64 27.64 0 0 0 19.544 8.0956 27.64 27.64 0 0 0 19.544-8.0956"/>
<path d="m71.981 181.89a39.625 39.625 0 0 0 28.019 11.606 39.625 39.625 0 0 0 28.019-11.606"/>
</g>
</svg>
