<svg width="10mm" height="10mm" version="1.1" viewBox="0 0 200 200" xmlns="http://www.w3.org/2000/svg">
<g fill="none">
<circle cx="75.345" cy="158.16" r="24.47" stroke="#000" stroke-width="13"/>
</g>
<path d="m115.92 158.16a40.572 40.572 0 0 0-40.572-40.572h-4.3702v-31.992h98.131v72.564z"/>
<path d="m77.475 94.954v-7.839l27.725-56.844a5.7539 5.7539 148 0 1 5.1716-3.2316h52.659l-0.42373 75.291" fill="none" stroke="#000" stroke-width="13"/>
<path d="m22.771 144.87h15.131v18.127h-15.131a5.3932 5.3932 45 0 1-5.3932-5.3932v-7.3407a5.3932 5.3932 135 0 1 5.3932-5.3932z"/>
<path d="m39.145 71.102-29.476 20.786a12.868 12.868 107.12 0 0-4.6312 15.038l13.433 35.785 16.975-7.4043c-0.0168-0.22839-0.03177-0.45692-0.04492-0.68555 0.01-13.506 6.3658-26.222 17.162-34.336z"/>
</svg>
