<svg width="10mm" height="10mm" version="1.1" viewBox="0 0 200 200" xmlns="http://www.w3.org/2000/svg">
<g fill="none" stroke="#000">
<path d="m19.829 35.381 16.062 101.41h128.22l16.062-101.41" stroke-width="10"/>
<path d="m24.142 62.61c9.6129-0.27093 16.112-13.684 25.286-13.807 9.6074 0.28488 16.117 13.673 25.286 13.807 9.6129-0.27094 16.112-13.684 25.286-13.807 9.6074 0.28488 16.117 13.673 25.286 13.807 9.6129-0.27093 16.112-13.684 25.286-13.807 9.6075 0.28488 16.117 13.673 25.286 13.807" stroke-width="5"/>
</g>
<path d="m66.376 82.117v-5.6148h30.8v4.5438q-4.5438 4.8359-9.0226 12.852-4.4464 8.0165-6.8806 16.487-1.7526 5.9718-2.2394 13.08h-6.0043q0.09737-5.6148 2.207-13.566 2.1096-7.9516 6.0367-15.319 3.9596-7.3999 8.406-12.463z"/>
<path d="m102.95 100q0-8.4384 1.7201-13.566 1.7526-5.1604 5.1604-7.9516 3.4403-2.7912 8.6332-2.7912 3.8298 0 6.7183 1.5579 2.8885 1.5254 4.771 4.4464 1.8824 2.8885 2.9534 7.0753 1.071 4.1543 1.071 11.23 0 8.3735-1.7202 13.534-1.7201 5.128-5.1604 7.9516-3.4078 2.7912-8.6332 2.7912-6.8806 0-10.808-4.9332-4.706-5.9394-4.706-19.344zm6.0043 0q0 11.716 2.7263 15.611 2.7587 3.8622 6.7832 3.8622t6.7508-3.8947q2.7587-3.8947 2.7587-15.579 0-11.749-2.7587-15.611-2.7263-3.8622-6.8157-3.8622-4.0245 0-6.4262 3.4078-3.0184 4.349-3.0184 16.066z"/>
</svg>
