<svg width="10mm" height="10mm" version="1.1" viewBox="0 0 200 200" xmlns="http://www.w3.org/2000/svg">
<path d="m102.27 63.136 11.69 50.636h-28.35l11.69-50.636zm14.478 62.712 5.2826 22.881h15.348l-26.17-97.669h-22.846l-26.17 97.669h15.348l5.2826-22.881z"/>
<path d="m61.917 172c-28.258-16.315-42.985-48.817-36.619-80.82 6.3658-32.003 32.41-56.396 64.76-60.655 32.351-4.259 63.82 12.562 78.252 41.827 9.4999 20.241 11.528 50.792-1.6304 68.397-4.4204 5.7314-7.055 13.379-12.823 19.147" fill="none" stroke="#000" stroke-width="10"/>
<path d="m181.88 151.37-42.369 24.462 12.711-47.437z"/>
</svg>
