<svg id="a" width="10mm" height="10mm" version="1.1" viewBox="0 0 53.71 53.71" xmlns="http://www.w3.org/2000/svg">
<g id="b" transform="translate(-12.888 -223.5)">
<g id="c" fill="none" stroke="#000">
<path id="d" d="m30.564 229.05h18.157" stroke-width="3.852"/>
<path id="e" d="m34.555 229.51v10.585l1.777 9.3488h6.6207l1.777-9.3488v-10.585" stroke-width="2.752"/>
<path id="f" d="m41.694 250.45v5.3472s0.6851-0.50467 1.5729-0.50467c0.88779 0 4.398 0.25681 4.398 4.1586 3.29 0 4.4538 2.0736 4.5199 3.5927 0 0 0.10762 0.83732-0.15452 1.8157 0 0 2.0668 1.2555 2.0668 3.6507 0 2.3952-2.3688 4.1028-2.3688 4.1028h-24.172s-2.3688-1.7076-2.3688-4.1028c0-2.3951 2.0668-3.6507 2.0668-3.6507-0.26215-0.97835-0.15452-1.8157-0.15452-1.8157 0.06611-1.5191 1.2299-3.5927 4.5199-3.5927 0-3.9018 3.5102-4.1586 4.398-4.1586 0.88778 0 1.5729 0.50467 1.5729 0.50467v-5.3472" stroke-width=".952"/>
<path id="g" d="m41.2 260.09s5.0028 0 5.0028 4.5005" stroke-width=".952"/>
<g id="h" transform="translate(-.085278)" stroke-width=".952">
<path id="i" d="m41.2 260.09s5.0028 0 5.0076 4.4957c0 0 4.0105 0.24103 4.0105 5.3016"/>
<path id="j" d="m38.255 260.09s-5.0028 0-5.0076 4.4957c0 0-4.0105 0.24103-4.0105 5.3016"/>
</g>
</g>
</g>
</svg>
