<svg width="10mm" height="10mm" version="1.1" viewBox="0 0 200 200" xmlns="http://www.w3.org/2000/svg">
<path d="m35.274 25.384a14.928 17.502 0 0 0-14.927 17.5 14.928 17.502 0 0 0 0.06281 1.0375h-0.03823l4.2881 84.629h0.02731a10.632 12.465 0 0 0 10.586 11.726 10.632 12.465 0 0 0 10.586-11.726h0.02727l4.2881-84.629h-0.03551a14.928 17.502 0 0 0 0.06279-1.0375 14.928 17.502 0 0 0-14.93-17.5z"/>
<path d="m47.229 167.91a11.954 11.954 0 0 1-11.954 11.954 11.954 11.954 0 0 1-11.954-11.954 11.954 11.954 0 0 1 11.954-11.954 11.954 11.954 0 0 1 11.954 11.954z"/>
<path d="m90.559 129.16c-0.61509-3.9592 1.5409-8.4145 5.5174-9.6152 4.122-1.3764 8.4439-0.2552 12.606 0.21212 3.3435 0.12583 7.1345-1.1158 8.8169-4.2084 1.3158-2.7165-4.3691-2.7185-6.9709-2.7398-7.7064 0.91413-14.048-2.9647-18.321-9.33-2.7418-4.4681-1.6259-10.248 0.78148-14.61 1.1657-2.1262 2.693-4.0275 4.4072-5.736 3.0363-3.0502 7.0305-5.1967 11.364-5.5012 3.9592-0.61509 8.4145 1.5409 9.6152 5.5174 1.3764 4.122 0.25521 8.4438-0.21212 12.606-0.1258 3.3436 1.1158 7.1345 4.2084 8.8169 2.7165 1.3158 2.7185-4.3691 2.7399-6.9709-0.91414-7.7064 2.9647-14.048 9.33-18.321 4.4681-2.7418 10.248-1.6259 14.61 0.78148 2.1262 1.1657 4.0275 2.693 5.7361 4.4072 3.0501 3.0364 5.1967 7.0305 5.5012 11.364 0.61511 3.9592-1.5409 8.4145-5.5174 9.6152-4.122 1.3764-8.4439 0.2552-12.606-0.21213-3.3435-0.12582-7.1345 1.1158-8.8169 4.2084-1.3158 2.7165 4.3691 2.7185 6.9709 2.7398 7.7064-0.91413 14.048 2.9647 18.321 9.33 2.7418 4.4681 1.6259 10.248-0.78147 14.61-1.1657 2.1262-2.693 4.0275-4.4072 5.736-3.0363 3.0502-7.0305 5.1967-11.364 5.5012-3.9592 0.61509-8.4145-1.5409-9.6152-5.5174-1.3764-4.122-0.2552-8.4439 0.21212-12.606 0.1258-3.3435-1.1158-7.1345-4.2084-8.8169-2.7165-1.3158-2.7185 4.3691-2.7398 6.9709 0.91413 7.7064-2.9647 14.048-9.33 18.321-4.4681 2.7418-10.248 1.6259-14.61-0.78148-2.1262-1.1657-4.0275-2.693-5.736-4.4072-3.0502-3.0363-5.1967-7.0305-5.5012-11.364z"/>
<path d="m92.585 29.237h65.678l6.3e-4 35.144c15.907 10.848 25.423 28.861 25.423 48.119 0 32.178-26.085 58.263-58.263 58.263s-58.263-26.085-58.263-58.263c0-19.237 9.496-37.235 25.4-48.052z" fill="none" stroke="#000" stroke-width="10"/>
</svg>
