<svg width="10mm" height="10mm" version="1.1" viewBox="0 0 200 200" xmlns="http://www.w3.org/2000/svg">
<path d="m80.846 113.72c-5.2968 6.4e-4 -9.5903 4.295-9.5898 9.5918 6.24e-4 3.7577 2.1956 7.1689 5.6152 8.7266l-4.6211 26.213h17.193l-4.623-26.213c3.4204-1.5571 5.6162-4.9684 5.6172-8.7266 4.33e-4 -5.2976-4.2942-9.5922-9.5918-9.5918z"/>
<path d="m128.89 131.96c0 17.165-9.1573 33.026-24.022 41.608-14.865 8.5824-33.18 8.5824-48.045 0s-24.022-24.443-24.022-41.608v-41.51h96.09z" fill="none" stroke="#000" stroke-width="10"/>
<path d="m96.582 90.879v-35.586c1e-6 -12.598 6.7419-24.277 17.652-30.576 10.91-6.2991 24.398-6.2991 35.309 0 10.91 6.2991 17.654 17.978 17.654 30.576v32.831h-20v-32.831c0-5.485-2.9041-10.513-7.6543-13.256-4.7502-2.7425-10.558-2.7425-15.309 0-4.7502 2.7425-7.6523 7.7708-7.6523 13.256v35.586" fill="none" stroke="#000" stroke-width="10"/>
</svg>
