<svg width="10mm" height="10mm" version="1.1" viewBox="0 0 200 200" xmlns="http://www.w3.org/2000/svg">
<path d="m23.97 85.318a14.681 14.681 0 0 0-12.713 7.3418 14.681 14.681 0 0 0 0 14.68 14.681 14.681 0 0 0 12.713 7.3418h14.682v-29.363zm2e-3 9.4375a5.2434 5.2434 0 0 1 5.2421 5.2441 5.2434 5.2434 0 0 1-5.2422 5.2441 5.2434 5.2434 0 0 1-5.2441-5.2441 5.2434 5.2434 0 0 1 5.2441-5.2441z"/>
<path d="m176.03 85.318a14.681 14.681 0 0 1 12.713 7.3418 14.681 14.681 0 0 1 0 14.68 14.681 14.681 0 0 1-12.713 7.3418h-14.682v-29.363zm-2e-3 9.4375a5.2434 5.2434 0 0 0-5.2421 5.2441 5.2434 5.2434 0 0 0 5.2422 5.2441 5.2434 5.2434 0 0 0 5.2441-5.2441 5.2434 5.2434 0 0 0-5.2441-5.2441z"/>
<g fill="none" stroke="#000">
<rect x="78.662" y="84.259" width="83.957" height="31.482" stroke-width="10"/>
<path d="m78.662 100h-45.187" stroke-width="10"/>
<g stroke-width="5">
<path d="m100 138.56v41.949"/>
<path d="m91.236 138.56h17.528"/>
<path d="m91.236 180.51h17.528"/>
</g>
</g>
</svg>
