<svg id="a" width="10mm" height="10mm" version="1.1" viewBox="0 0 53.71 53.71" xmlns="http://www.w3.org/2000/svg">
<g id="b" transform="translate(-31.485 -56.885)">
<path id="c" d="m36.087 104.83c0.26178 0.26179 0.66569 0.38566 0.95809 0.3201 0.14799-0.0332 0.26664-0.10191 0.34896-0.16261l6.7166-3.4586 3.494-3.494 0.97783 0.97783 2.6547-2.6547 0.99025 0.99025 4.4496-4.4496 8.8695-4.2924 8.9562-8.9562 2.1599 2.1599 4.2716-4.2716-15.221-15.221-4.2716 4.2716 2.1117 2.1117-19.987 19.987 0.99025 0.99025-2.6547 2.6547 0.97783 0.97783-3.494 3.494-3.4575 6.7147c-0.06119 0.0824-0.13016 0.20101-0.1637 0.35078-0.06556 0.29239 0.06015 0.69815 0.32193 0.95993zm1.2169-1.2197 3.1169-6.0504 3.3325-3.3325 2.9346 2.9346-3.3325 3.3325zm11.28-6.3862-4.8917-4.8917 1.66-1.66 4.8376 4.9458zm3.6446-1.6641-6.8722-6.8722 1.751-1.751 6.8722 6.8722zm2.6459-2.6459-6.8722-6.8722 16.446-16.446 9.1593 9.1593-8.8056 8.8056-8.8666 4.2924zm21.789-12.892-13.434-13.434 2.4819-2.4818 13.434 13.434z" color="#000000" fill="#000" stroke-linecap="round" style="paint-order:stroke fill markers"/>
</g>
</svg>
