<svg width="10mm" height="10mm" version="1.1" viewBox="0 0 200 200" xmlns="http://www.w3.org/2000/svg">
<g fill="none">
<g stroke="#000">
<path d="m169.69 50a70.711 70.711 0 0 1 20.711 50 70.711 70.711 0 0 1-20.711 50" stroke-width="10"/>
<path d="m69.687 150a70.711 70.711 0 0 1 0-100" stroke-width="10"/>
<circle cx="119.69" cy="100" r="55.431" stroke-width="5"/>
</g>
</g>
<path d="m24.576 30.387a13.454 15.774 0 0 0-13.453 15.772 13.454 15.774 0 0 0 0.05661 0.93505h-0.03445l3.8647 76.272h0.02461a9.5821 11.234 0 0 0 9.5407 10.568 9.5821 11.234 0 0 0 9.5407-10.568h0.02458l3.8647-76.272h-0.032a13.454 15.774 0 0 0 0.05659-0.93505 13.454 15.774 0 0 0-13.456-15.772z"/>
<path d="m35.35 158.84a10.774 10.774 0 0 1-10.774 10.774 10.774 10.774 0 0 1-10.774-10.774 10.774 10.774 0 0 1 10.774-10.774 10.774 10.774 0 0 1 10.774 10.774z"/>
<path d="m102.21 132.77v-65.542h21.897q5.7811 0 8.83 0.62592 4.2764 0.80475 7.1669 3.0849 2.8905 2.2354 4.6328 6.3039 1.7818 4.0685 1.7818 8.9417 0 8.3605-4.712 14.173-4.712 5.7674-17.026 5.7674h-14.888v26.646zm7.6817-34.381h15.007q7.4441 0 10.572-3.1296 3.1281-3.1296 3.1281-8.8075 0-4.1132-1.861-7.0192-1.8214-2.9508-4.8308-3.8896-1.9402-0.58121-7.1669-0.58121h-14.849z"/>
</svg>
