<svg width="10mm" height="10mm" version="1.1" viewBox="0 0 200 200" xmlns="http://www.w3.org/2000/svg">
<path d="m52.693 22.845a14.928 17.502 0 0 0-14.927 17.5 14.928 17.502 0 0 0 0.0628 1.0375h-0.0382l4.2881 84.629h0.02731a10.632 12.465 0 0 0 10.586 11.726 10.632 12.465 0 0 0 10.586-11.726h0.02727l4.2881-84.629h-0.03551a14.928 17.502 0 0 0 0.06279-1.0375 14.928 17.502 0 0 0-14.93-17.5z"/>
<path d="m64.648 165.37a11.954 11.954 0 0 1-11.954 11.954 11.954 11.954 0 0 1-11.954-11.954 11.954 11.954 0 0 1 11.954-11.954 11.954 11.954 0 0 1 11.954 11.954z"/>
<path d="m156.36 19.492-75.258 91.102h45.473l-32.118 71.099 76.936-93.133h-46.234z" stroke-width="5"/>
</svg>
