<svg width="10mm" height="10mm" version="1.1" viewBox="0 0 200 200" xmlns="http://www.w3.org/2000/svg">
<g fill="none">
<g stroke="#000">
<path d="m67.161 12.491h65.678l6.3e-4 35.144c15.907 10.848 25.423 28.861 25.423 48.119 0 32.178-26.085 58.263-58.263 58.263s-58.263-26.085-58.263-58.263c0-19.237 9.496-37.235 25.4-48.052z" stroke-width="10"/>
<g stroke-width="5">
<path d="m195.2 88.731h-17.064v-6.6315l-15.317 13.654 15.317 13.654v-6.6315h17.064z"/>
<path d="m100 54.57 20.963 35.872c5.8736 10.051 3.5951 22.817-5.404 30.277-8.9992 7.4599-22.12 7.4599-31.12 0-8.9988-7.4599-11.278-20.226-5.404-30.277z"/>
<path d="m4.8049 88.731h17.064v-6.6315l15.317 13.654-15.317 13.654v-6.6315h-17.064z"/>
</g>
<g stroke-width="10">
<path d="m58.016 173.73h36.653"/>
<path d="m105.33 173.73h36.653"/>
<path d="m23.411 173.73h23.941"/>
<path d="m23.411 192.48v-37.5"/>
<path d="m176.59 173.73h-23.941"/>
<path d="m176.59 192.48v-37.5"/>
</g>
</g>
</g>
</svg>
