<svg width="10mm" height="10mm" version="1.1" viewBox="0 0 200 200" xmlns="http://www.w3.org/2000/svg">
<g fill="none">
<path d="m38.47 6.547h65.678l6.3e-4 35.144c15.907 10.848 25.423 28.861 25.423 48.119 0 32.178-26.085 58.263-58.263 58.263s-58.263-26.085-58.263-58.263c0-19.237 9.496-37.235 25.4-48.052z" stroke="#000" stroke-width="10"/>
</g>
<path d="m27.287 196.23h-7.5384v-15.277q0-4.8481-0.48288-6.2574-0.48289-1.4375-1.5828-2.2268-1.0731-0.78922-2.6022-0.78922-1.9584 0-3.5143 1.1275-1.556 1.1275-2.1462 2.9878-0.56336 1.8603-0.56336 6.8776v13.558h-7.5384v-29.934h7.0018v4.3971q3.7289-5.0736 9.3894-5.0736 2.4949 0 4.5606 0.95836 2.0657 0.93016 3.1119 2.3959 1.0731 1.4657 1.4755 3.326 0.42923 1.8603 0.42923 5.3273z"/>
<path d="m30.159 198.73 10.401-36.439h6.046l-10.516 36.439z"/>
<path d="m49.634 166.29h6.9482v4.0871q3.7289-4.7636 8.8797-4.7636 2.7364 0 4.7484 1.1838t3.2997 3.5797q1.8779-2.3959 4.0509-3.5797t4.6411-1.1838q3.1388 0 5.3117 1.353 2.173 1.3248 3.2461 3.918 0.77798 1.9167 0.77798 6.2011v19.139h-7.5384v-17.109q0-4.4535-0.77798-5.7501-1.0462-1.6912-3.2192-1.6912-1.5828 0-2.9778 1.0147t-2.012 2.9878q-0.61702 1.9449-0.61702 6.1729v14.375h-7.5384v-16.405q0-4.369-0.4024-5.6374-0.40241-1.2684-1.2609-1.8885-0.83163-0.6201-2.2803-0.6201-1.7438 0-3.1388 0.98653-1.395 0.98654-2.012 2.8469-0.59019 1.8603-0.59019 6.1729v14.544h-7.5384z"/>
<path d="m99.049 162.23v-7.3286h7.5384v7.3286zm0 33.993v-29.934h7.5384v29.934z"/>
<path d="m140.23 196.23h-7.5384v-15.277q0-4.8481-0.48288-6.2574-0.48289-1.4375-1.5828-2.2268-1.0731-0.78922-2.6022-0.78922-1.9584 0-3.5143 1.1275-1.556 1.1275-2.1462 2.9878-0.56337 1.8603-0.56337 6.8776v13.558h-7.5384v-29.934h7.0018v4.3971q3.7289-5.0736 9.3894-5.0736 2.4949 0 4.5606 0.95836 2.0657 0.93016 3.1119 2.3959 1.0731 1.4657 1.4755 3.326 0.42923 1.8603 0.42923 5.3273z"/>
<path d="m148.94 83.686v-35.169h-13.805l28.424-31.568 28.424 31.568h-13.805v35.169z" fill="none" stroke="#000" stroke-width="5"/>
<path d="m49.204 99.585h-5.1934l-2.0645-6.4137h-9.4514l-1.9516 6.4137h-5.0644l9.2095-28.236h5.0483zm-8.7901-11.171-3.258-10.478-3.1935 10.478z"/>
<path d="m51.704 71.349h4.7741v15.293q0 3.6402 0.17742 4.7188 0.30644 1.7334 1.4516 2.7927 1.1613 1.0401 3.1612 1.0401 2.0322 0 3.0644-0.98227 1.0322-1.0015 1.2419-2.446 0.20967-1.4445 0.20967-4.7958v-15.62h4.7741v14.83q0 5.0847-0.38709 7.1841t-1.4355 3.5439q-1.0322 1.4445-2.7741 2.3112-1.7419 0.84745-4.5483 0.84745-3.387 0-5.1451-0.92449-1.7419-0.94375-2.758-2.4268-1.0161-1.5023-1.3387-3.1394-0.46773-2.4268-0.46773-7.1648z"/>
<path d="m80.913 99.585v-23.459h-7.016v-4.7765h18.79v4.7765h-6.9999v23.459z"/>
<path d="m94.203 85.64q0-4.3143 1.0806-7.2418 0.80644-2.1571 2.1935-3.8713 1.4032-1.7142 3.0645-2.5424 2.2096-1.1171 5.0967-1.1171 5.2257 0 8.3546 3.8713 3.1451 3.8713 3.1451 10.766 0 6.8374-3.1128 10.709-3.1128 3.852-8.3224 3.852-5.2741 0-8.3869-3.8328-3.1128-3.852-3.1128-10.593zm4.9192-0.1926q0 4.7958 1.8548 7.2804 1.8548 2.4653 4.7096 2.4653t4.6773-2.446q1.8387-2.4653 1.8387-7.3767 0-4.8536-1.7903-7.2418-1.7742-2.3883-4.7257-2.3883t-4.758 2.4268q-1.8064 2.4075-1.8064 7.2804z"/>
</svg>
