<svg width="10mm" height="10mm" version="1.1" viewBox="0 0 200 200" xmlns="http://www.w3.org/2000/svg">
<path d="m33.473 1.5469-0.001953 4.9961-0.023437 32.773c-15.906 11.876-25.402 30.54-25.402 50.494 0 10.277 2.4797 19.98 6.8477 28.568l7.4805-7.4785c-2.7811-6.4642-4.3281-13.591-4.3281-21.09 0-17.592 8.6762-34.031 23.213-43.918l2.1855-1.4863 0.023438-32.859h55.682v22.578l10-10v-22.578h-75.676zm82.695 43.84-6.9883 6.9883c9.7634 9.8697 15.393 23.276 15.393 37.436 0 29.476-23.788 53.262-53.264 53.262-14.626 0-27.847-5.8627-37.461-15.365l-7.0273 7.0274c11.438 11.328 27.159 18.338 44.488 18.338 34.88 0 63.264-28.382 63.264-63.262 0-16.825-6.77-32.713-18.404-44.424z"/>
<path d="m27.287 196.23h-7.5384v-15.277q0-4.8481-0.48288-6.2574-0.48288-1.4375-1.5828-2.2268-1.0731-0.78922-2.6022-0.78922-1.9584 0-3.5143 1.1275-1.556 1.1275-2.1462 2.9878-0.56337 1.8603-0.56337 6.8776v13.558h-7.5384v-29.934h7.0018v4.3971q3.7289-5.0736 9.3894-5.0736 2.4949 0 4.5606 0.95836 2.0657 0.93016 3.1119 2.3959 1.0731 1.4657 1.4755 3.326 0.42923 1.8603 0.42923 5.3273z"/>
<path d="m30.159 198.73 10.401-36.439h6.046l-10.516 36.439z"/>
<path d="m49.634 166.29h6.9482v4.0871q3.7289-4.7636 8.8797-4.7636 2.7363 0 4.7484 1.1838 2.012 1.1838 3.2997 3.5797 1.8779-2.3959 4.0509-3.5797t4.6411-1.1838q3.1388 0 5.3117 1.353 2.173 1.3248 3.2461 3.918 0.77798 1.9167 0.77798 6.2011v19.139h-7.5384v-17.109q0-4.4535-0.77798-5.7501-1.0463-1.6912-3.2192-1.6912-1.5828 0-2.9778 1.0147t-2.012 2.9878q-0.61702 1.9449-0.61702 6.1729v14.375h-7.5384v-16.405q0-4.369-0.4024-5.6374t-1.2609-1.8885q-0.83164-0.6201-2.2803-0.6201-1.7438 0-3.1388 0.98653-1.395 0.98654-2.012 2.8469-0.59019 1.8603-0.59019 6.1729v14.544h-7.5384z"/>
<path d="m99.049 162.23v-7.3286h7.5384v7.3286zm0 33.993v-29.934h7.5384v29.934z"/>
<path d="m140.23 196.23h-7.5384v-15.277q0-4.8481-0.48288-6.2574-0.48289-1.4375-1.5828-2.2268-1.0731-0.78922-2.6022-0.78922-1.9584 0-3.5143 1.1275-1.556 1.1275-2.1462 2.9878-0.56337 1.8603-0.56337 6.8776v13.558h-7.5384v-29.934h7.0018v4.3971q3.7289-5.0736 9.3894-5.0736 2.4949 0 4.5606 0.95836 2.0657 0.93016 3.1119 2.3959 1.0731 1.4657 1.4755 3.326 0.42923 1.8603 0.42923 5.3273z"/>
<path d="m148.94 102.37v35.169h-13.805l28.424 31.568 28.424-31.568h-13.805v-35.169z" fill="none" stroke="#000" stroke-width="5"/>
<path d="m4.4943 142.92 132.28-132.28" fill="none" stroke="#000" stroke-width="10"/>
</svg>
