<svg width="10mm" height="10mm" version="1.1" viewBox="0 0 200 200" xmlns="http://www.w3.org/2000/svg">
<g fill="none">
<g stroke="#000" stroke-width="10">
<path d="m41.905 151.69v-132.71c0-2.298 1.85-4.1481 4.1481-4.1481h59.699c2.2981 0 4.1481 1.85 4.1481 4.1481v132.31"/>
<path d="m41.905 67.595h67.995"/>
<path d="m156.19 40.025 9.0546 76.932c0.48882 4.1095-0.49033 8.2593-2.7644 11.717-4.261 6.4785-12.269 9.393-19.697 7.1691-7.4284-2.2239-12.517-9.0592-12.568-16.813l-0.051-35.958c-2e-4 -8.5481-6.9294-15.477-15.477-15.477"/>
</g>
</g>
<path d="m125.13 8.9514v9.6745c3.2418 1.4091 6.4849 2.8188 10.715 6.1239 4.231 3.305 9.4507 8.505 12.593 14.7 3.1432 6.195 4.2097 13.385 5.2766 20.573l17.599-8.1403a77.643 77.643 0 0 0-46.186-42.931z"/>
<g fill="none" stroke="#000">
<path d="m30.508 151.69h16.396" stroke-width="10"/>
<path d="m57.564 162.35-15.659-15.659" stroke-width="7"/>
<path d="m121.3 151.69h-16.396" stroke-width="10"/>
<path d="m94.241 162.35 15.659-15.659" stroke-width="7"/>
<path d="m58.902 171.9h9.1622v-33.129h15.678v33.129h9.1622l-17.001 20.261z" stroke-width="5"/>
</g>
</svg>
