<svg width="10mm" height="10mm" version="1.1" viewBox="0 0 200 200" xmlns="http://www.w3.org/2000/svg">
<g fill="none">
<g stroke="#000" stroke-width="5">
<circle cx="138.35" cy="117.37" r="20.975"/>
<circle cx="77.674" cy="117.37" r="20.975"/>
<path d="m157.65 125.57 21.07-7.669 8.5245-55.149-41.458 3.6271-4.5194-25.631h-52.958l-2.8652 32.749-11.627 2.1822-2.7789 21.795"/>
<path d="m117.61 120.48h-19.188"/>
<path d="m12.766 138.35c6.7307 0 13.462 0 18.238-0.37086 4.7754-0.37086 7.5957-1.1124 10.03-2.0305 2.4341-0.9181 4.482-2.0127 6.169-3.5516s3.0134-3.5222 3.6913-5.2603c0.67793-1.7381 0.70718-3.2314 0.14506-5.0094-0.56212-1.7779-1.7163-3.8405-3.6194-5.6106-1.9032-1.7701-4.5556-3.247-6.6075-4.146-2.0518-0.89892-3.5039-1.2196-4.9549-1.5399 0 0-23.091 27.519-23.091 27.519z"/>
</g>
</g>
<path d="m71.023 97.481c-8.5552 2.8607-14.323 10.871-14.323 19.892 0 4.5218 1.4613 8.9225 4.166 12.546l-11.472-0.0322c0.64273-0.92045 1.1555-1.8682 1.5004-2.7526 0.67793-1.7381 0.70718-3.2314 0.14506-5.0094-0.56212-1.7779-1.7163-3.8405-3.6194-5.6106-1.8353-1.707-4.3674-3.1413-6.3857-4.0476l32.476-34.342z"/>
</svg>
