<svg width="10mm" height="10mm" version="1.1" viewBox="0 0 200 200" xmlns="http://www.w3.org/2000/svg">
<g fill="none">
<g stroke="#000" stroke-width="5">
<rect x="51.835" y="20.076" width="16.929" height="35.056"/>
<rect x="43.076" y="124.86" width="25.085" height="46.989"/>
<path d="m81.649 179.92-0.0024-64.748c-6.1859-0.95178-11.605-4.6493-14.735-10.054-3.689-6.3702-3.689-14.219 0-20.589 3.1296-5.4044 8.5489-9.102 14.735-10.054l0.0021-36.876h36.701v30.49l34.253 21.404-7.6099 12.178-4.1116-2.5816c-1.54-0.96693-3.0657-0.29282-3.6971 1.4106-2.8681 7.7366-9.9873 13.596-18.823 15.217l-0.0119 64.201z"/>
<rect transform="scale(-1,1)" x="-148.17" y="20.076" width="16.929" height="35.056"/>
<rect transform="scale(-1,1)" x="-156.92" y="124.86" width="25.085" height="46.989"/>
</g>
</g>
</svg>
