<svg width="10mm" height="10mm" version="1.1" viewBox="0 0 200 200" xmlns="http://www.w3.org/2000/svg">
<circle cx="98.623" cy="55.182" r="11.5"/>
<path d="m77.752 76.254v10.264h9.2754c2.6558 0 4.7949 2.1391 4.7949 4.7949v42.99c0 2.6558-2.1391 4.7949-4.7949 4.7949h-9.2754v10.264h46.441v-10.264h-9.2773c-2.6558 0-4.793-2.1391-4.793-4.7949v-58.049h-32.371z"/>
<g fill="none" stroke="#000" stroke-width="5">
<path d="m47.013 48.989v-14.31c0-9.6274 7.7506-17.378 17.378-17.378h71.219c9.6274 0 17.378 7.7506 17.378 17.378l1e-5 37.898"/>
<path d="m68.51 182.7h-4.1191c-9.6274 0-17.378-7.7506-17.378-17.378v-101.08"/>
<path d="m152.99 87.83-1e-5 77.492c0 9.6274-7.7506 17.378-17.378 17.378h-51.846"/>
<path d="m33.157 88.242 13.856-23.999 13.856 23.999"/>
<path d="m107.76 196.56-23.999-13.856 23.999-13.856"/>
<path d="m166.84 48.576-13.856 23.999-13.856-23.999"/>
</g>
</svg>
