<svg width="10mm" height="10mm" version="1.1" viewBox="0 0 200 200" xmlns="http://www.w3.org/2000/svg">
<g fill="none">
<g stroke="#000" stroke-width="8">
<circle cx="48.822" cy="129.71" r="15.307"/>
<circle cx="122.76" cy="129.71" r="15.307"/>
<circle cx="169.16" cy="129.71" r="15.307"/>
</g>
</g>
<path d="m48.981 94.701v8"/>
<path d="m56.129 59.191v27.707h-39.336l9.373-25.752c0.43224-1.1876 1.5311-1.9551 2.7949-1.9551zm-7.1484 43.51h15.148v-51.51h-35.168c-4.5995 0-8.7394 2.8967-10.312 7.2188l-10.111 27.783v40.607l14.556-2e-3c0.97348-13.579 12.273-24.098 25.887-24.098z"/>
<path d="m20.401 126.8v-8"/>
<path d="m62.748 42.691h12.018l12.348 63.525 86.756-22.067 13.513-26.522h-109.71" fill="none" stroke="#000" stroke-width="5"/>
</svg>
