<svg width="10mm" height="10mm" version="1.1" viewBox="0 0 200 200" xmlns="http://www.w3.org/2000/svg">
<path d="m171.19 29.481c-11.354 8.9701-21.729 19.169-30.893 30.367-10.794 13.19-19.887 27.744-27.08 43.178-2.2886 4.9107-4.3622 9.9187-6.2617 14.992-0.053-0.12876-0.0833-0.26594-0.13672-0.39454-3.1141-7.4917-7.0553-15.016-12.84-21.414-6.0939-6.7404-13.934-11.812-22.58-14.607l-3.0762 9.5137c6.9504 2.2468 13.34 6.3804 18.238 11.799 4.672 5.1677 8.1547 11.641 11.025 18.547 1.8066 4.3461 3.3593 8.7981 4.6504 13.324l7.6967 0.0469c3.4263-9.541 8.19-18.664 12.346-27.582 6.8462-14.69 15.502-28.541 25.756-41.07 8.7055-10.638 18.568-20.332 29.354-28.854z"/>
<path d="m100 45.75c-29.899 0-54.25 24.351-54.25 54.25s24.351 54.25 54.25 54.25 54.25-24.351 54.25-54.25c0-7.9313-1.7267-15.464-4.8027-22.264-2.5053 3.3652-4.9644 6.7651-7.3867 10.191 1.0926 3.8338 1.6894 7.8802 1.6894 12.072 0 24.225-19.525 43.75-43.75 43.75s-43.75-19.525-43.75-43.75 19.525-43.75 43.75-43.75c9.7274 0 18.693 3.1536 25.945 8.4902 2.0596-2.8056 4.14-5.5959 6.2539-8.3613-9.0145-6.6738-20.155-10.629-32.199-10.629z"/>
<g fill="none" stroke="#000" stroke-width="10">
<path d="m78.5 56.029v-33.571h43v33.519"/>
<path d="m31.76 31.76 21.872 21.872"/>
<path d="m3.4939 100h30.932"/>
<path d="m31.76 168.24 21.872-21.872"/>
<path d="m100 196.51v-30.932"/>
<path d="m168.24 168.24-21.872-21.872"/>
<path d="m196.51 100h-30.932"/>
</g>
</svg>
