<svg width="10mm" height="10mm" version="1.1" viewBox="0 0 200 200" xmlns="http://www.w3.org/2000/svg">
<g fill="none">
<g stroke="#000" stroke-width="5">
<path d="m83.401 91.981a11.422 11.422 0 0 1-5.711 9.8917 11.422 11.422 0 0 1-11.422 0 11.422 11.422 0 0 1-5.711-9.8917"/>
<path d="m60.557 91.981a11.422 11.422 0 0 1-11.422 11.422"/>
<path d="m117.67 103.4a11.422 11.422 0 0 1-8.0766-3.3454 11.422 11.422 0 0 1-3.3454-8.0766"/>
<path d="m106.24 91.981a11.422 11.422 0 0 1-5.711 9.8917 11.422 11.422 0 0 1-11.422 0 11.422 11.422 0 0 1-5.711-9.8917"/>
<path d="m131.23 139.38v-78.8h-93.782l-14.382 8.3034v62.194l14.382 8.3034z"/>
<path d="m131.23 139.38h4.1517l10.23-5.9064v-66.988l-10.23-5.9064-4.1517-1e-6"/>
<rect x="6.2921" y="91.475" width="17" height="17" rx="0" ry="0"/>
</g>
</g>
<circle cx="167.45" cy="164.38" r="14.311"/>
<rect x="160.14" y="21.092" width="14.625" height="145.01" rx="7.3124" ry="7.3124" fill="none" stroke="#000" stroke-width="5"/>
<rect x="160.14" y="98.095" width="14.625" height="68.007" rx="0" ry="0"/>
<path d="m37.453 60.575v78.8" stroke="#000" stroke-width="5"/>
</svg>
