<svg width="10mm" height="10mm" version="1.1" viewBox="0 0 200 200" xmlns="http://www.w3.org/2000/svg">
<g fill="none">
<g stroke="#000" stroke-width="5">
<path d="m64.477 60.957v78.087"/>
<path d="m135.52 60.957v78.087"/>
<path d="m116.25 50.097c-22.53 13.007-45.06 26.015-67.589 39.022"/>
<path d="m151.34 89.119c-22.53-13.007-45.06-26.015-67.589-39.022"/>
<path d="m116.19 150.02c-22.534-13.01-45.066-26.019-67.599-39.028"/>
<path d="m151.41 110.99c-22.534 13.009-45.066 26.019-67.599 39.028"/>
<path d="m100.25 59.329v-23.535"/>
<path d="m100 164.21v-23.541"/>
<path d="m155.63 131.77c-6.7018-3.8693-13.404-7.7388-20.105-11.608"/>
<path d="m64.477 79.983c-6.7219-3.8807-13.444-7.7618-20.166-11.643"/>
<path d="m155.68 68.048c-6.7182 3.8788-13.437 7.7578-20.155 11.637"/>
<path d="m64.477 120.16c-6.7012 3.8688-13.403 7.7379-20.104 11.607"/>
<circle cx="100" cy="100" r="75"/>
</g>
</g>
</svg>
