<svg width="10mm" height="10mm" version="1.1" viewBox="0 0 200 200" xmlns="http://www.w3.org/2000/svg">
<g fill="none" stroke="#000" stroke-linecap="round" stroke-width="10">
<path d="m104.66 101.69c-5.0093-0.63924-9.7846-2.989-13.347-6.5678-3.3734-3.3885-5.6357-7.8257-6.6036-12.508-0.96795-4.6823-0.66352-9.5956 0.67141-14.187 2.6299-9.045 9.344-16.769 17.835-20.847s18.613-4.5113 27.504-1.3991c11.64 4.0747 20.727 13.898 25.636 25.212 5.7348 13.219 6.1138 28.667 1.0593 42.161-4.2086 11.236-12.014 20.976-21.61 28.178-4.1346 3.1031-8.5963 5.7553-13.215 8.0773"/>
<path d="m118.01 73.729c3.4409 1.5159 6.4702 3.9541 8.6864 6.9915 2.5487 3.493 3.9996 7.737 4.3608 12.046 0.36122 4.3089-0.34438 8.6774-1.8185 12.742-1.9944 5.4998-5.4244 10.497-9.9576 14.195-5.4057 4.4096-12.194 6.8634-19.068 8.0508-6.2266 1.0756-12.646 1.1678-18.856 0-8.0049-1.5053-15.601-5.1234-21.822-10.381-6.2299-5.2658-11.035-12.103-14.433-19.518"/>
</g>
<circle cx="39.195" cy="64.407" r="5"/>
<circle cx="40.008" cy="81.462" r="5"/>
<circle cx="107.2" cy="156.14" r="5"/>
</svg>
