<svg width="10mm" height="10mm" version="1.1" viewBox="0 0 200 200" xmlns="http://www.w3.org/2000/svg">
<g fill="none">
<g stroke="#000" stroke-width="5">
<path d="m90.932 86.64-19.643-10.504c-10.475-5.6016-23.639-5.6951-34.351-0.56359-10.712 5.1316-18.789 15.444-21.295 27.079-2.5061 11.635 0.58819 24.338 8.1038 33.551 7.5155 9.2143 19.282 14.786 31.154 14.786h99.367c7.5455-0.0486 15.016-3.4302 20.02-9.0917 5.0053-5.6615 7.4581-13.516 6.5383-21.026-0.9198-7.5092-5.2049-14.545-11.463-18.772-6.2585-4.2263-14.384-5.5621-21.654-3.5331"/>
<path d="m50.869 71.914c4.309-14.322 15.117-26.561 28.818-32.485 13.701-5.9239 30.046-5.3894 43.284 1.5117 13.238 6.9012 23.082 20.058 25.882 34.751 2.8006 14.694-1.5387 30.609-11.484 41.761"/>
<path d="m113.26 51.994v79.24"/>
<path d="m98.126 105.03 15.131 26.207 15.131-26.207"/>
</g>
</g>
</svg>
