<svg id="a" width="10mm" height="10mm" version="1.1" viewBox="0 0 53.71 53.71" xmlns="http://www.w3.org/2000/svg">
<g id="b" transform="translate(-52.388 -71.437)">
<g id="c" transform="translate(163.42 -42.971)" fill="none" stroke="#000" stroke-width="1.265">
<circle id="d" cx="-92.886" cy="146.9" r="4.8968"/>
<path id="e" d="m-95.06 142.33v-3.2507h4.348v3.1337"/>
<path id="f" d="m-99.712 140.08 1.9234 1.9234zm13.652 0-1.9234 1.9234zm-16.48 6.8259h2.7203zm16.587 0h2.7202zm-11.835 4.9025-1.9234 1.9234zm9.8051 0 1.9234 1.9234zm-4.9025 2.0304v2.7202z"/>
<path id="g" d="m-101.53 137.15a5.3909 5.3909 0 0 1-3.8119-1.579 5.3909 5.3909 0 0 1-1.579-3.8119"/>
<path id="h" d="m-101.53 133.71a1.9513 1.9513 0 0 1-1.3798-0.57152 1.9513 1.9513 0 0 1-0.57152-1.3798"/>
<path id="i" d="m-60.788 136.56h-12.105l-2.5466-2.5466v-4.8617l2.5466-2.5466h12.105"/>
<path id="j" d="m-75.135 130.14h-8.1423v2.8773h8.1754"/>
<path id="k" d="m-83.476 131.58h-8.8836s-3.5372-4.0362-4.4799-4.0348c-0.94272 1e-3 -3.8054 3.4034-3.8054 3.4034"/>
</g>
</g>
</svg>
