<svg id="a" width="10mm" height="10mm" version="1.1" viewBox="0 0 53.71 53.71" xmlns="http://www.w3.org/2000/svg">
<g id="b" transform="translate(-92.869 -97.102)">
<g id="c" transform="translate(79.819 .26319)" fill="none" stroke="#000" stroke-width="1.265">
<path id="d" d="m39.903 106.01c-10.907 3e-5 -19.749 8.842-19.749 19.749 0.019 6.1212 2.8754 11.888 7.7334 15.612h24.032c4.858-3.7243 7.7144-9.4907 7.7334-15.612h-8.7933c-5e-5 -6.051-4.9054-10.956-10.956-10.956zm3.3466 2.2407v3.4975c5.3121 1.2858 9.4394 5.4665 10.657 10.795h3.4944c-1.323-7.224-6.9405-12.898-14.151-14.292z"/>
<path id="e" d="m47.725 125.76a7.8216 7.8216 0 0 1-7.8216 7.8216 7.8216 7.8216 0 0 1-7.8216-7.8216 7.8216 7.8216 0 0 1 7.8216-7.8216 7.8216 7.8216 0 0 1 7.8216 7.8216z"/>
</g>
</g>
</svg>
