<svg width="10mm" height="10mm" version="1.1" viewBox="0 0 200 200" xmlns="http://www.w3.org/2000/svg">
<g fill="none" stroke="#000" stroke-width="7">
<circle cx="44.42" cy="133.56" r="12.734"/>
<circle cx="162.43" cy="133.56" r="12.734"/>
</g>
<path d="m64.457 50.205a6.4838 6.4838 0 0 0-5.7246 3.4395l-14.17 26.641-29.574 10.342a5.4887 5.4887 0 0 0-3.6758 5.1816v32.629a3.8951 3.8951 0 0 0 3.8945 3.8945h6.5156c0-8.5664 4.8851-16.382 12.586-20.135s16.869-2.7848 23.615 2.4941c6.7466 5.2789 9.8898 13.945 8.0996 22.322h31.234v-82.914a3.8951 3.8951 0 0 0-3.8945-3.8945zm0.98047 7.5h24.32v21.674h-35.473z"/>
<rect x="104.04" y="102.1" width="84.643" height="7.7902"/>
</svg>
