<svg width="10mm" height="10mm" version="1.1" viewBox="0 0 200 200" xmlns="http://www.w3.org/2000/svg">
<g fill="none">
<g stroke="#000" stroke-width="5">
<path d="m166.14 23.193v58.726c-0.0603 7.7207-1.0467 15.434-2.9312 22.921-4.089 16.246-12.434 31.339-23.651 43.782-10.903 12.095-24.523 21.727-39.561 27.977-15.037-6.2496-28.657-15.882-39.561-27.977-11.217-12.443-19.562-27.537-23.651-43.782-1.8845-7.4874-2.8709-15.2-2.9312-22.921v-58.726z"/>
<g stroke-linecap="round">
<path d="m87.057 62.056v-14.758c0-2.9655 2.3874-5.3528 5.3528-5.3528s5.3528 2.3874 5.3528 5.3528v17.984"/>
<path d="m97.763 57.954v-13.409c0-2.9655 2.3874-5.3528 5.3528-5.3528 2.9655 0 5.3528 2.3874 5.3528 5.3528v17.155"/>
<path d="m108.47 57.314v-6.6754c0-3.1709 2.5527-5.7236 5.7236-5.7236 3.1708 0 5.7236 2.5527 5.7236 5.7236v6.9204c0.42821 10.627 0.85541 21.253 1.2816 31.878 1.0497 7.9911 2.0983 15.981 3.146 23.97 0.89988 3.7963 2.6966 11.386 2.6966 11.386s-9.1169 3.2966-12.434 4.4943c-7.4071 1.2276-18.516 3.0671-27.775 4.5991-4.3733-0.13381-13.123-0.40442-13.123-0.40442s1.1995-8.688 1.7977-13.034c0.4005-11.335 0.79998-22.67 1.1985-34.007-0.0017-6.2071-0.0045-12.415-0.0082-18.624l4e-6 -16.45c0-2.8703 2.3107-5.181 5.181-5.181s5.181 2.3107 5.181 5.181v17.498" stroke-linejoin="round"/>
<path d="m75.976 105.62c2.1898-3.6953 4.3797-7.391 5.8492-10.712 1.4695-3.3208 2.2186-6.267 2.743-7.8903 0.52443-1.6233 0.82405-1.9229 1.8107-2.2851 0.98662-0.36214 2.6594-0.78658 4.2702-0.72386 1.6107 0.06273 3.1587 0.61201 4.3445 1.4988s2.0098 2.1102 2.3214 3.5707 0.11192 3.1584-0.46238 6.8038-1.5231 9.2381-2.8465 14.457c-1.3234 5.2184-3.0212 10.062-4.7189 14.905"/>
</g>
<path d="m60.432 128.08c-2.6493-5.2333-8.05-9.6508-8.1209-15.322 0.18742-7.7987 9.4664-13.071 9.5514-20.514-0.19707-7.7943-9.4585-13.076-9.5515-20.514 0.18742-7.7987 9.4664-13.071 9.5514-20.514-0.14805-5.8555-5.4118-10.293-8.0608-15.292"/>
<path d="m144.97 128.08c-2.6493-5.2333-8.05-9.6508-8.1209-15.322 0.18743-7.7987 9.4664-13.071 9.5514-20.514-0.19707-7.7943-9.4585-13.076-9.5515-20.514 0.18742-7.7987 9.4664-13.071 9.5514-20.514-0.14805-5.8555-5.4118-10.293-8.0608-15.292"/>
</g>
</g>
</svg>
