<svg width="10mm" height="10mm" version="1.1" viewBox="0 0 200 200" xmlns="http://www.w3.org/2000/svg">
<path d="m56.557 131.55c-4.3812 1.008-8.8153 1.8794-13.058 3.3956-1.1891 0.43082-2.3569 0.91734-3.5251 1.4015-0.26268 2.1384-0.76894 4.3644-2.2181 6.0345-2.2382 2.5413-5.8413 3.5158-9.1328 3.1829-1.6438-0.19189-3.3312-0.62734-4.6869-1.6095-0.30085-0.49124-0.67053-0.55298-1.0859-0.20024-2.2262 1.2111-4.4524 2.4222-6.6785 3.6334 0.71562 1.2436 0.65431 2.7479 0.57146 4.1334-0.12284 0.97525-0.49572 1.923-0.37228 2.9233 0.21052 2.8305 0.94598 5.5871 1.5627 8.3483 1.0351 4.283 2.0878 8.5644 3.3069 12.799 0.18558 0.82467 0.69974 1.7122 1.6416 1.7636 0.83448-0.0325 1.3809-0.7983 1.9256-1.3393 2.2091-2.5886 4.0866-5.4382 5.9707-8.2662 3.0451-4.6169 5.7485-9.4458 8.4031-14.294 2.4703 3.706 4.9248 7.4647 6.6085 11.608 1.4686 3.5747 2.752 7.2278 3.8538 10.932 0.31219 0.96358 0.39027 2.0144 0.0378 2.9791-0.48703 1.6246-1.1029 3.2064-1.6895 4.7968 5.7788 1.6735 11.557 3.3471 17.336 5.0206 0.26381-8.2265 0.55393-16.452 0.8358-24.678 0.11565-1.837-0.50014-3.5986-1.1514-5.2849-1.7312-4.438-3.3885-8.9086-5.3149-13.267-1.0348-2.3918-2.364-4.6719-3.0914-7.1865-0.62959-2.2314-0.27931-4.565-0.04989-6.826z"/>
<path d="m63.571 43.662c-1.0103 0.12019-1.5949 1.0876-1.9065 1.9646-0.32768 0.64264-0.53046 1.5951-1.3238 1.7938-0.83512-0.11255-1.3696-0.88048-2.0526-1.3097-1.7012-1.1732-3.7932-1.6029-5.8092-1.8572-3.2956-0.32039-6.608 0.37889-9.7173 1.433-2.4487 0.82445-4.697 2.2673-6.3603 4.2566-2.0183 2.308-3.3998 5.1044-4.2953 8.0221-0.39462 1.0396-0.55911 2.2273-1.3062 3.0912-0.70972 0.56447-1.6233 0.79158-2.4012 1.2499-2.1035 1.0945-4.1697 2.2724-6.1438 3.5859-0.755 0.61197-1.6161 1.1351-2.2145 1.9118-0.41016 0.60761-0.70371 1.8942 0.08995 2.2726 1.1364-0.0261 2.0999-0.74713 3.1053-1.2006 2.3566-1.18 4.9008-1.9982 7.501-2.4223 0.8098-0.18361 1.7639 0.14865 2.0667 0.97173 0.37153 1.0918 0.0076 2.3063 0.45237 3.3905 0.34205 1.0655 1.2053 2.1248 0.77458 3.2919-0.45173 1.0546-1.1308 1.9951-1.6037 3.0419-0.6678 1.3636-1.6188 2.6911-3.0736 3.2814-1.9413 0.82589-4.0224 1.2551-5.9906 2.0121-2.5925 0.9399-5.2709 2.1064-6.9922 4.3605-1.9756 2.5463-3.0932 5.6168-4.2108 8.6048-1.3663 3.9277-2.6612 7.957-2.8905 12.138-0.11565 1.77 0.19767 3.5569 0.94885 5.1667 1.9509 4.5094 3.7465 9.1041 6.2177 13.365 0.68273 1.2473 1.4621 2.4637 2.1283 3.7056l-0.26419 3.8394c-2.0242 0.85093-4.1292 1.5776-5.9818 2.7779-0.69834 0.42232-1.2823 1.2831-0.88373 2.1054 0.46114 1.0616 1.1295 2.129 0.96998 3.3394-0.16819 0.51284-0.02646 1.7907 0.63549 1.6072 3.7244-2.0248 7.4488-4.0503 11.173-6.0751 0.77851 0.79999 1.4655 1.7 2.3343 2.4047 1.7889 1.0904 4.1343 1.1557 6.0434 0.33978 0.96926-0.40525 1.8344-1.1778 2.0561-2.2427 0.46802-1.6721 0.64188-3.407 0.90482-5.1192 3.6673-1.5511 7.3684-3.0751 11.259-3.9749 3.0345-0.76409 6.0639-1.5513 9.0977-2.3167 0.86748-0.19869 2.0213-0.2968 2.5596 0.58093 0.2982 0.66745 0.85973 1.3547 1.6724 0.96116 1.5074-0.42494 2.9591-1.0217 4.4309-1.5526 0.88913 1.2701 1.6566 2.8047 3.1282 3.4891 1.2178 0.45768 2.5408 0.4992 3.8235 0.62846 1.0478 0.11905 2.1587-0.18494 2.8588-1.0087 0.85485-0.90431 1.8114-1.9417 1.7463-3.2796 0.04044-1.1423-0.35943-2.3071 0-3.4292 0.5814-0.20047 1.5858-0.14404 1.7076-0.91012 0.06198-0.645-0.12586-1.5265 0.80273-1.4101 6.5376-1.2747 13.025-2.8268 19.408-4.7319 0.60404-0.30149 1.9688-0.34367 1.7692-1.2974-0.19729-0.82626-0.31672-1.6754-0.56334-2.4874-0.59399-0.56423-1.5512-0.14359-2.2815-0.1338-5.175 0.79898-10.319 1.7944-15.5 2.5578-1.6219 0.25032-3.2445 0.49522-4.8674 0.73936-0.1217-0.78256-0.79219-1.4345-1.6108-1.0686-0.90187 0.20629-1.8258 0.27322-2.748 0.30981-0.62906-2.3831-1.3068-4.7809-1.3942-7.2598-0.13757-2.4482-1.22-4.7038-1.6354-7.1014-0.5167-2.7146-1.0281-5.4481-2.0421-8.0309-0.99738-2.593-2.1889-5.286-4.4714-7.0046-1.5723-1.1895-3.2811-2.2003-5.0435-3.0807-1.6089-0.72389-3.3319-1.141-5.0224-1.6248-0.0189-0.80441-0.66879-1.4535-0.49289-2.2727-0.0032-0.44085-0.08617-0.963 0.50699-0.66894 0.87243 0.11274 2.0697 0.27446 2.5878-0.6267 0.15232-0.81264 1.2905-0.91311 1.1566-1.8554 0.11452-0.85601-0.21581-1.7719 0.13909-2.586 0.51417-0.61505 1.4409-0.32182 2.1336-0.29575 0.82798 0.30645 1.5049-0.36691 1.3432-1.2076-0.11943-1.503-0.28346-3.0058-0.26079-4.5171 0.07068-0.73348-0.16857-1.8441 0.11263-2.3378 1.749 0.26914 3.4825 0.65911 5.2424 0.84498 0.89201 0.15277 1.7159-0.65124 1.5086-1.5562-0.01512-0.93553-0.89257-1.459-1.6829-1.7058-0.49523-0.40017-1.946-0.14774-1.6107-1.0439 0.50865-3.2678 0.85776-6.5623 0.92946-9.8705 0.02268-1.8438 0.20939-3.6814 0.23395-5.5241-0.01512-0.57001-0.18633-1.4353-0.91189-1.4382zm-6.1525 63.423c0.4365 1.9928 0.94159 3.9792 1.7674 5.8515 0.41949 1.1404 1.084 2.1856 1.4136 3.357-0.50676 0.51168-1.6496 0.53013-2.3941 0.84674-0.4207 0.18648-1.473 0.2744-1.1478 0.94181 0.12964 0.52098 0.25928 1.0422 0.38903 1.5632l-24.684 7.6189-1.4629-4.7372 23.374-7.214c0.58174-1.7921 1.3773-3.5098 1.8836-5.3287 0.2982-0.96311 0.5794-1.9313 0.86082-2.8994z"/>
<path d="m142.11 70.955c-0.0487-0.0984-0.10015-0.1985-0.16403-0.31249-0.071-0.12696-0.15307-0.26835-0.24605-0.41602-0.093-0.14767-0.19729-0.30214-0.3084-0.45312-0.1115-0.151-0.23056-0.29866-0.35755-0.43555-0.12699-0.1369-0.26116-0.26177-0.40036-0.36718-0.0696-0.0527-0.14022-0.10141-0.21279-0.14453-0.073-0.0431-0.14778-0.0807-0.2245-0.11524-0.15345-0.0692-0.31597-0.12299-0.49025-0.16407-0.17423-0.0411-0.36094-0.0707-0.56247-0.0918-0.20145-0.0212-0.41699-0.0336-0.65234-0.043-0.23547-9e-3 -0.48888-0.0147-0.76759-0.037-0.13946-0.0113-0.28497-0.0265-0.43752-0.0488-8e-3 -1e-3 -0.0189-5e-3 -0.0265-6e-3l-32.914 32.914h21.379l-0.59765 63.867h55.744c0.0113-0.1092 0.0227-0.22054 0.0389-0.32421 0.0227-0.17114 0.0525-0.33661 0.09-0.50391 0.0378-0.16728 0.0824-0.33668 0.13266-0.50781 0.0503-0.17114 0.10545-0.345 0.15836-0.52149 0.0525-0.1765 0.10243-0.35561 0.14665-0.53906 0.0442-0.18342 0.0828-0.37058 0.10733-0.5625 0.0265-0.19192 0.0378-0.38825 0.0389-0.59375 2e-3 -0.20549-8e-3 -0.42085-0.0227-0.64843-0.0151-0.22757-0.0378-0.46839-0.0665-0.72657-0.0113-0.11357-0.0302-0.24457-0.0431-0.36522h-50.99l0.59958-63.867h-13.937z"/>
<path d="m145.01 60.573c0.35338-0.0181 0.72128-0.0411 1.0996-0.0742 0.44278-0.0387 0.88657-0.0884 1.289-0.15039 0.40252-0.062 0.76343-0.13459 1.0762-0.19336 0.15647-0.0295 0.30123-0.0561 0.43162-0.0742 0.1304-0.0181 0.24756-0.0295 0.34961-0.0295 0.10205 1.3e-4 0.18935 0.0125 0.27137 0.037 0.0824 0.0246 0.15874 0.061 0.24038 0.11523 0.0813 0.0542 0.16819 0.12541 0.26759 0.21483 0.0994 0.0894 0.21127 0.19805 0.34772 0.32814 0.13606 0.13005 0.29518 0.28211 0.45505 0.46094 0.0801 0.0894 0.16101 0.18542 0.23849 0.28906 0.0688 0.092 0.13455 0.19264 0.19729 0.29688l0.19351-0.19336v-36.709h15.518v21.186l13.887-13.887c-0.0416-0.12986-0.0616-0.19767-0.10545-0.334-0.30501-0.9522-0.66123-2.0566-1.039-3.252-0.18897-0.59766-0.38302-1.2177-0.57619-1.8535-0.0189-0.0637-0.0378-0.1313-0.0567-0.19532l-0.034-0.0333-6.7832 6.7832v-13.707h-26.104v39.811z"/>
<path d="m157.04 52.282c-0.52611 3.0178-0.49569 6.1036-0.19427 9.1436 0.15685 2.0253 0.60937 4.0957 0.11074 6.109-0.36132 1.4843-1.2203 2.847-2.429 3.7854-0.4927-2.2125-2.073-4.1321-4.1324-5.0714-2.0594-0.97849-4.5166-1.0366-6.637-0.21354 1.9821 0.12329 3.8259 1.2872 4.8756 2.9595 1.0501 1.5846 1.3282 3.5451 1.1872 5.4083-0.15534 2.1182-0.67019 4.187-0.96186 6.2872-0.46068 3.0145-0.75617 6.0555-0.84438 9.1043-2.167-0.32273-4.116-1.7911-5.0214-3.7865-0.51844-1.1176-0.71766-2.3806-0.56943-3.6035-1.0714 1.6334-1.4138 3.691-1.0209 5.5964 0.4879 2.5035 1.6828 4.8312 1.9445 7.3859 0.20334 1.8034-0.0907 3.6198-0.5624 5.3591-0.20598 0.76951-0.16441 1.7228-0.86245 2.2532-0.80296 0.56001-1.8966 0.54072-2.7807 0.1886 0.39749-0.93895 0.17084-2.0452-0.4374-2.841-0.73871-0.97812-1.6204-1.8373-2.4617-2.7259-0.36283-0.37183-0.73001-0.73969-1.101-1.1035 0.67869 2.4414 1.3834 4.8835 1.8109 7.3843 0.56844 3.5571 0.51643 7.1803 1.08 10.739 0.7305 5.0075 2.7354 9.9055 6.1369 13.696 2.532 2.842 5.8371 5.0177 9.5066 6.0658 1.463 0.43041 2.9667 0.71152 4.4797 0.89459-0.75251-1.3026-1.7595-2.446-2.9294-3.3892-1.5931-1.3593-3.5462-2.251-5.0195-3.756-1.369-1.3758-1.9124-3.3517-1.983-5.2457-0.0624-1.6121 0.20636-3.2601-0.23395-4.84-0.61754-2.3793-2.1436-4.4881-4.136-5.9121 2.192 0.22979 4.2238 1.5624 5.324 3.4694-0.58076-3.8741 0.35301-7.9398 2.5409-11.186 0.4038-0.60377 0.84873-1.18 1.3318-1.7224-0.0888 3.0962-0.0911 6.1976 0.0794 9.291 0.11263 1.9437 0.53816 3.8943 1.4758 5.6143 0.13795 0.19642 0.43665 0.98075 0.40906 0.36812 0.2177-2.299 0.2279-4.6095 0.21619-6.9165 3e-3 -2.0255 0.14966-4.0805 0.82764-6.0055 0.7305-2.1634 1.7542-4.2307 2.253-6.4696 0.20901-0.87632 0.36548-1.7651 0.46783-2.6601 0.65446 1.5179 0.77382 3.217 0.52006 4.8386-0.2211 1.5317-0.51904 3.0873-0.25965 4.6353 0.35868 2.3622 1.4131 4.5628 2.6954 6.5573 0.24 0.36601 0.4916 0.72434 0.75462 1.0742 0.21543-1.8063 0.88293-3.5325 1.803-5.0936 0.9208-1.6112 1.9293-3.2484 2.2058-5.1168 0.3919-2.4414-0.0578-4.9067-0.367-7.3299-0.35565-2.5477-0.74298-5.091-1.1395-7.6327 0.63999 2.4991 1.9041 4.8181 3.59 6.765 1.0406 1.2464 2.1281 2.611 2.3169 4.2815 0.12623 1.2567 0.034 2.5228 0.0521 3.7834-3e-3 2.9033-0.21052 5.819-0.85999 8.6549 0.0605 0.0659 0.41541-0.42072 0.59089-0.5668 0.80085-0.87199 1.6871-1.6656 2.4467-2.5744 0.51889-0.62378 0.79419-1.4374 0.71943-2.2487-0.0722-0.89375-0.13682-1.8205 0.19729-2.6749 0.44463-1.2859 1.5152-2.3282 2.8062-2.7525-0.73111 1.0722-0.80632 2.507-0.28157 3.6819 0.56288 1.3097 1.3155 2.6042 1.3336 4.07 0.0265 1.9029-1.0355 3.5582-1.6391 5.301-0.45664 1.3242-0.66849 2.7321-0.62275 4.132 1.9947-0.58304 3.6615-2.1571 4.3569-4.1156 0.34092 4.3585-0.60926 8.7914-2.6321 12.662-1.8501 3.5681-4.5352 6.7048-7.794 9.06 3.4838-0.41523 6.9477-1.428 9.91-3.3493 4.563-2.9261 7.9245-7.5303 9.7031-12.619 1.5059-4.2915 1.9428-8.9558 1.2421-13.451-0.71282 2.0312-2.4414 3.6716-4.5144 4.2595 0.27364-1.3559 0.22677-2.7496 0.0465-4.1139-0.10961-0.83468 8e-3 -1.6869 0.3273-2.4639 1.1876-2.9486 1.7788-6.1707 1.4439-9.3463-0.29783-3.2093-1.6015-6.1933-2.8367-9.1313-0.46447-1.1073-0.92753-2.2151-1.3901-3.3232 0.2846 2.0095 0.50275 4.0356 0.50687 6.067-3e-3 1.466-0.34167 2.9662-1.2007 4.1759-0.75235 1.0965-1.828 1.9633-3.0499 2.4846 0.35339-3.9902-0.0537-8.0158-0.93203-11.914-0.86268-3.8558-2.0526-7.7352-4.3437-11.003-1.0014-1.4258-2.1979-2.7144-3.5461-3.8181 1.4149 2.0197 1.6808 4.8811 0.38861 7.0259-0.11905 0.2008-0.27288 0.53404-0.33562 0.1059-0.80054-1.934-1.5551-3.907-2.6675-5.6896-1.0656-1.6674-2.5422-3.0446-3.463-4.81-0.73928-1.3362-1.4631-2.7691-2.753-3.6635-1.2474-0.91583-2.7869-1.5577-3.6249-2.9279-0.78444-1.3015-0.95032-2.8479-1.2405-4.3094-0.0718-0.40915-0.13909-0.81903-0.20221-1.2296z"/>
</svg>
