<svg width="10mm" height="10mm" version="1.1" viewBox="0 0 200 200" xmlns="http://www.w3.org/2000/svg">
<path d="m50.629 41.514c-0.69-0.01239-1.4287 0.02005-2.2266 0.10938-2.1277 0.2382-4.6872 0.89104-6.9297 1.9062-2.2425 1.0152-4.1672 2.3921-5.6328 4.0078s-2.4716 3.4695-3.1602 5.041c-0.68857 1.5715-1.0587 2.8609-1.2793 4.4766-0.09478 0.69407-0.15964 1.4555-0.21094 2.2441-2.7516 0.66947-4.9597 1.9898-6.8105 3.2656-1.9566 1.3488-3.5273 2.6541-4.2246 3.6699-0.69731 1.0158-0.52076 1.7394-0.01758 1.8535 0.50319 0.11409 1.3333-0.37994 2.7988-1.0332 1.4655-0.65327 3.5649-1.4645 6.0898-1.9941 1.1333-0.2377 2.3556-0.41696 3.6211-0.56641-0.08719 0.54871-0.12958 1.1241-0.08984 1.75 0.08855 1.395 0.58352 3.0365 1.2813 4.2988 0.14188 0.2567 0.29228 0.49613 0.44922 0.72461-0.27565 0.35984-0.54613 0.74354-0.80469 1.1719-0.85816 1.4217-1.6047 3.2852-1.9824 4.8984-1.7949 0.51309-3.5649 1.0399-5.2148 1.6309-2.4895 0.89159-4.7325 1.9156-6.4629 2.8867-1.7304 0.97109-2.9479 1.8881-3.8926 2.8594-0.94472 0.97123-1.6162 1.9955-2.7285 5.4121s-2.6648 9.2265-3.4238 12.555c-0.75907 3.3282-0.72507 4.1758-0.63672 5.041 0.088346 0.86516 0.23027 1.7478 0.89257 3.3457s2.2184 4.4696 3.3379 6.6992c2.2966 4.5741 4.8807 9.7323 6.9316 13.701 1.6222 3.1383 5.3695 4.3312 8.5078 2.709l0.13476-0.0684c3.1383-1.6222 4.3312-5.3695 2.709-8.5078l-6.4062-12.395c-0.61173-1.1524-1.2236-2.3067-1.6094-3.166-0.38578-0.85929-0.54536-1.4249-0.38672-2.4492s0.63634-2.5071 1.166-3.752c0.52967-1.2449 1.1106-2.2511 1.4902-2.8867 0.37961-0.63564 0.5561-0.89953 0.75977-0.94335 0.02548-5e-3 0.05223-7e-3 0.07815-6e-3 0.18132 0.0109 0.36452 0.19811 0.42578 0.61523 0.07001 0.47671-0.01824 1.2541-0.09766 2.3047-0.07943 1.0505-0.14905 2.3742-0.06055 3.416s0.33494 1.8 0.58203 2.4414c0.2471 0.64139 0.49397 1.1651 0.74024 1.6875l6.873 13.295c2.608 5.0454 0.61768 11.29-4.4277 13.898l-0.13282 0.0703c-4.5498 2.3518-10.073 0.96381-13.027-3.0312-0.0048 0.0236-0.0128 0.0567-0.0176 0.0801-1.9725 9.688-2.3734 13.333-2.5605 15.256-0.18714 1.9227-0.16094 2.121 0.26368 3.332s1.2483 3.4346 2.3594 7.3047c1.111 3.8701 2.508 9.3863 3.9062 14.904 2.8963-3.4956 5.7934-6.9902 8.5898-10.91 2.7964-3.92 5.4928-8.2658 6.916-10.588 1.4232-2.322 1.5723-2.6219 2.8711-0.79883 1.2988 1.8231 3.7455 5.7697 5.6055 9.6524 1.86 3.8826 3.1341 7.7021 3.9707 10.012 0.83656 2.3096 1.2365 3.108 1.0488 4.1562-0.18765 1.0482-0.96124 2.3478-1.498 3.8711-0.53681 1.5233-0.8371 3.2698-1.1367 5.0176 2.8464 0.39951 5.693 0.7988 8.5645 1.498 2.8714 0.69925 5.7677 1.6985 8.6641 2.6973 0.29962-1.7728 0.59784-3.5446 0.78515-5.4297 0.18732-1.8851 0.26275-3.8827 0.4375-6.3047 0.17476-2.422 0.45013-5.2689 0.40039-7.416-0.04974-2.1472-0.42423-3.5957-0.57422-5.2188-0.14998-1.6231-0.0752-3.4209-0.125-4.7442-0.0498-1.3232-0.22487-2.1717-0.92383-3.8945s-1.9215-4.3198-3.5195-7.9277c-1.598-3.608-3.5722-8.2268-4.6582-10.674-1.086-2.447-1.2838-2.7219-1.2344-4.0703s0.34846-3.7696 0.42969-6.8906c0.08122-3.121-0.05713-6.9416 0.08008-9.4824s0.54946-3.8013 0.80859-4.4883c0.25913-0.68693 0.36648-0.79935 0.52148-0.40819 0.155 0.39114 0.35851 1.2849 0.78711 2.3496 0.42859 1.0647 1.0813 2.2993 2.3437 4.2148 1.2625 1.9156 3.1344 4.5127 4.7676 6.5254s3.0277 3.4419 4.2637 4.4746 2.3134 1.6676 3.2402 2.0293c0.92687 0.36165 1.7035 0.45101 2.5684 0.30078 0.86482-0.15023 1.8175-0.54009 2.5234-1.0078 0.70593-0.46773 1.1642-1.0146 1.5879-1.7383 0.4237-0.72368 0.81293-1.6243 0.875-2.5332 0.06207-0.90889-0.20231-1.8262-1.1113-3.3711-0.90902-1.5449-2.4623-3.7158-3.4512-5.2871-0.98886-1.5713-1.414-2.5435-1.873-3.541-0.45902-0.99753-0.95278-2.022-1.4473-3.4609-0.49448-1.4389-0.98965-3.292-1.5547-6.1699-0.56504-2.8778-1.1994-6.7789-1.8613-9.7715-0.66198-2.9926-1.351-5.076-1.9512-6.6738-0.60021-1.5978-1.1127-2.7115-1.7305-3.6914-0.61776-0.97995-1.3418-1.8268-2.7812-2.7734-1.4394-0.94663-3.5942-1.9923-5.2773-2.6836-1.6832-0.69132-2.8941-1.0275-3.5625-1.4453-0.66836-0.4178-0.79224-0.91683-1.1289-1.3789-0.33667-0.46208-0.88725-0.88715-1.1562-1.1992-0.269-0.31207-0.25655-0.51145 0-0.54297s0.75653 0.10569 1.2559 0.19922c0.49933 0.09352 0.99817 0.14316 1.2598 1e-6 0.26159-0.14316 0.28635-0.48038 0.29882-0.70508 0.01252-0.22468 0.01346-0.33746 0.23243-0.40038 0.21896-0.06293 0.65522-0.07531 0.93555-0.1875 0.28032-0.11219 0.40648-0.32441 0.40039-1.0918-0.0061-0.76739-0.14449-2.0901-0.05664-2.7461 0.08785-0.65596 0.39921-0.64255 0.99219-0.64258 0.59298-2.7e-5 1.4677-0.01287 2.0605-0.05664 0.59287-0.04377 0.90594-0.11926 1.0117-1.5918 0.0947-1.3184 0.01712-3.7937-0.07031-6.3516 0.18012 0.04776 0.359 0.09382 0.53711 0.13672 1.5443 0.37195 3.0081 0.54936 4.0996 0.55664 1.0915 0.0073 1.8116-0.15699 2.1973-0.55078 0.38567-0.3938 0.43832-1.0187 0.16602-1.6289-0.27231-0.61023-0.87103-1.2043-2.3887-1.7852-0.16801-0.0643-0.34979-0.12941-0.53906-0.19336 0.09365-1.0537 0.18545-2.2047 0.26367-3.7715 0.10318-2.0667 0.18513-4.8499 0.19141-7.1602 0.0063-2.3103-0.06342-4.1457-0.12891-5.166s-0.1281-1.2266-0.41211-1.1992c-0.28401 0.02739-0.7897 0.28938-1.2207 0.78906-0.43101 0.49969-0.78764 1.2382-1.209 2.0527-0.27345 0.52865-0.57348 1.0931-0.83984 1.877-0.14218-0.24097-0.28467-0.47319-0.42969-0.6875-0.73588-1.0873-1.5126-1.794-2.5781-2.367-1.0655-0.57302-2.4206-1.0123-3.9453-1.3203-0.95292-0.19252-1.9711-0.33483-3.1211-0.35547z"/>
<path d="m103.46 20.465a0.23337 0.23337 0 0 0-0.25977 0.06588l-7.828 9.1154a2.2672 2.2672 0 0 0-0.51796 1.111l-7.0829 43.261a1.7689 1.7689 0 0 1-0.58385 1.0469l-4.7964 4.1881a1.5956 1.5956 0 0 0-0.53872 1.052l-1.8813 19.958a1.1286 1.1286 0 0 1-0.63244 0.91071l-3.1417 1.5164a0.76975 0.76975 0 0 0-0.40865 0.89146l2.5894 9.7035a1.4674 1.4674 0 0 1-0.17301 1.1558l-4.2035 6.74 4.405 2.7472 4.2035-6.74a1.4674 1.4674 0 0 1 0.96185-0.66384l9.8549-1.9425a0.76975 0.76975 0 0 0 0.62078-0.75916l-0.02034-3.4885a1.1286 1.1286 0 0 1 0.53962-0.9686l17.095-10.469a1.5956 1.5956 0 0 0 0.70614-0.94762l1.6509-6.1498a1.7689 1.7689 0 0 1 0.685-0.98382l35.733-25.392a2.2672 2.2672 0 0 0 0.76986-0.95391l4.7405-11.041a0.23337 0.23337 0 0 0-0.31808-0.30196l-42.712 21.287c-0.31461 0.15679-0.78818 0.09946-1.0605-0.12278-2.5096-2.0479-5.2302-3.7308-7.9925-4.9892-0.31988-0.14572-0.57962-0.54251-0.57723-0.89402l0.32426-47.722a0.23337 0.23337 0 0 0-0.15134-0.21869zm-3.5323 17.508a2.8602 2.8602 0 0 1 0.91308 3.9393 2.8602 2.8602 0 0 1-3.9404 0.91472 2.8602 2.8602 0 0 1-0.91203-3.941 2.8602 2.8602 0 0 1 3.9393-0.91307zm41.797 26.067a2.8602 2.8602 0 0 1 0.91306 3.9393 2.8602 2.8602 0 0 1-3.9404 0.91473 2.8602 2.8602 0 0 1-0.9137-3.942 2.8602 2.8602 0 0 1 3.941-0.91204zm-42.292-16.264a3.7606 3.7606 0 0 1 1.1996 5.1815 3.7606 3.7606 0 0 1-5.1798 1.2006 3.7606 3.7606 0 0 1-1.2022-5.1808 3.7606 3.7606 0 0 1 5.1825-1.2012zm33.707 21.022a3.7606 3.7606 0 0 1 1.1996 5.1814 3.7606 3.7606 0 0 1-5.1798 1.2006 3.7606 3.7606 0 0 1-1.2022-5.1808 3.7606 3.7606 0 0 1 5.1825-1.2012zm-34.163-10.881a4.661 4.661 0 0 1 1.4881 6.4202 4.661 4.661 0 0 1-6.4213 1.4898 4.661 4.661 0 0 1-1.4887-6.4229 4.661 4.661 0 0 1 6.4219-1.4871zm25.258 15.752a4.661 4.661 0 0 1 1.4881 6.4202 4.661 4.661 0 0 1-6.4213 1.4898 4.661 4.661 0 0 1-1.4887-6.4229 4.661 4.661 0 0 1 6.4219-1.4871z"/>
<rect x="139.88" y="132.36" width="15.678" height="31.144" rx="2.0127" ry="2.0127"/>
<path d="m179.7 72.053c-1.7915-5.12e-4 -3.5003 0.01046-5.0996 0.03906-6.3973 0.11442-10.988 0.50006-14.756 1.0215-3.7677 0.52144-7.4067 1.2578-10.586 3.7676-3.1794 2.5099-5.3216 6.1872-7.543 11.166-1.238 2.7747-2.4904 6.0021-3.627 9.2148-0.64917-0.05129-1.3435-0.08036-2.1152-0.06836-2.5756 0.04005-5.9526 0.49431-8.125 0.90625-2.1725 0.41194-3.1385 0.78069-3.7969 1.5898-0.65834 0.80916-1.0089 2.0569-1.1836 3.3555-0.17469 1.2985-0.17508 2.6474 0.125 3.6836s0.90112 1.76 1.5879 2.209c0.68678 0.44902 1.4608 0.62368 4.0449 0.71094 1.4578 0.0493 3.5374 0.0688 5.8223 0.0781-0.60299 3.0372-0.89334 5.9396-0.9375 9.332-0.0678 5.2057 0.36182 11.62 0.74805 15.648 0.38622 4.0285 0.58909 5.9276 1.8008 7.8203 0.30249 0.47253 1.2009 1.4434 2.123 1.877 0.92212 0.43358 1.6926 0.5483 2.5898 0.65234 1.7944 0.20809 4.3096 0.26433 9.0293 0.31445 7.8164 0.083 21.866 0.0934 36.607 0.0957l2.0098-7.5 8.7402-32.623h-53.834c1.382-4.5555 3.3992-10.114 5.2402-14.24 2.0232-4.5345 3.7762-7.1001 5.3418-8.3359 1.5657-1.236 3.5185-1.7474 6.9668-2.2246 3.4484-0.47724 7.6972-0.84096 13.859-0.95117 5.1012-0.09124 11.622 0.0039 18.307 0.12109-0.0275-1.0169-9e-3 -1.577-0.13477-2.0859-0.2491-1.0111-1.0728-1.8472-1.3106-2.4844-0.23775-0.63714 0.11219-1.0731-0.0371-1.6719-0.0988-0.39623-0.4116-0.8615-0.66601-1.3008-3.8942-0.06386-7.7136-0.11619-11.191-0.11719zm-26.332 40.23a7.9774 7.9774 0 0 1 3.1699 0.75l-3.957 6.8906 6.2012-5.3906a7.9774 7.9774 0 0 1 2.2031 3.4551l-3.9844-0.23633-1.498 2.6211 0.67382 4.1191 2.1719-3.3711 2.9727-0.4082a7.9774 7.9774 0 0 1-4.3027 6.6289l-2.6387-4.4961-3.1406 5.0547a7.9774 7.9774 0 0 1-4.8652-4.0117l4.4102-1.2695 1.3476 2.3223-0.26562-4.7207 0.041 2e-3 0.74805-1.1973-3.4453-0.90039-0.33203-4.4199a7.9774 7.9774 0 0 1 4.4902-1.4219zm-6.8398 4.0449 0.50976 3.7461 3.9785 0.12109-4.8066 3.3711a7.9774 7.9774 0 0 1-0.82032-3.3066 7.9774 7.9774 0 0 1 1.1387-3.9316z"/>
<path d="m153.97 110.17v-8.9513c0-2.8756 2.315-5.1907 5.1907-5.1907h21.535c2.8756 0 5.1907 2.315 5.1907 5.1907v8.9513"/>
<circle cx="169.93" cy="88.083" r="8.7394"/>
</svg>
