<svg id="a" width="10mm" height="10mm" version="1.1" viewBox="0 0 53.71 53.71" xmlns="http://www.w3.org/2000/svg">
<g id="b" transform="translate(-55.827 -84.931)">
<path id="c" d="m91.128 97.592v7.5313l-1.2842 0.0196 0.0212 1.3818-2.4815 0.50592-0.2527-1.2108-3.2386 0.67592 0.2496 1.1953-2.2081 0.4501-0.24753-1.1849-3.2386 0.67593 0.24391 1.17-2.2081 0.45011-0.24185-1.1596-3.2386 0.67644 0.23875 1.1436-2.2081 0.4501-0.23668-1.1333-3.2386 0.67593 0.23358 1.1178-2.1735 0.44286-0.68988-1.5601-3.0257 1.3389 0.68368 1.5456c-0.46007 0.35808-0.86854 0.7745-1.2196 1.2356l-1.5446-0.64337-1.2723 3.0546 1.5162 0.63148c-0.0863 0.54761-0.11151 1.1119-0.0574 1.6852 5e-3 0.0488 0.0145 0.0957 0.0202 0.14418l-1.4397 0.54984 1.1803 3.0908 1.4376-0.54932c0.37398 0.53222 0.81839 1.01 1.3255 1.4123l-0.54519 1.2165 3.02 1.3524 0.54932-1.2268c0.29658 0.0499 0.59696 0.0872 0.90486 0.0961h0.016l1.1054 1e-3v1.1395h3.3083v-1.1369l2.2536 2e-3v1.1348h3.3088v-1.1322l2.2531 2e-3v1.1302h3.3088v-1.1276l2.2536 2e-3v1.1255h3.3083v-1.1229l2.2536 2e-3v1.1214h3.3083v-1.2211c0.82299-0.19306 1.6008-0.48842 2.3218-0.8723l0.80718 1.0831 2.6526-1.9771-0.84801-1.1379c0.54198-0.59545 1.009-1.2567 1.3906-1.9694l1.4371 0.4284 0.94516-3.1709-1.2924-0.38499c0.0596-0.39434 0.0857-0.81825 0.0646-1.3167-0.0163-0.38632-0.0631-0.76442-0.12299-1.1384l1.2366-0.37931-0.96997-3.1631-1.3317 0.40824c-0.37007-0.67871-0.81856-1.3075-1.3327-1.8769l0.80306-1.08-2.6551-1.974-0.75189 1.0113c-0.72301-0.38958-1.5014-0.68696-2.3218-0.88264l-0.0196-1.2743-0.75861 0.0114v-7.5117zm10.795 0v18.271h1.2656v-18.271zm-13.319 2.2128-0.89452 0.89452 1.5446 1.5467-1.4764 1.4785 0.89245 0.89297 2.3735-2.3714zm17.316 0-2.4412 2.4412 2.373 2.3714 0.89452-0.89297-1.4785-1.4785 1.5467-1.5467zm-13.527 8.723c3.3222 0.66711 5.8133 3.5199 5.9609 7.0094 0.0426 1.0063-0.0607 1.211-0.41755 2.2267-0.85023 2.4197-2.9019 4.2942-5.518 4.8318l-25.892-0.0191c-2.2274-0.0644-4.0487-1.7806-4.2618-4.0354-0.21301-2.2549 1.2579-4.2907 3.4339-4.779l25.429-5.1837v6.0472c-0.52953 0.2436-0.90227 0.78043-0.90227 1.3958 0 0.84026 0.69505 1.5353 1.5353 1.5353s1.5348-0.69505 1.5348-1.5353c0-0.61535-0.37274-1.1522-0.90227-1.3958z"/>
</g>
</svg>
