<svg id="a" width="10mm" height="10mm" version="1.1" viewBox="0 0 53.71 53.71" xmlns="http://www.w3.org/2000/svg">
<g id="b" transform="translate(-55.562 -68.792)">
<path id="c" d="m75.465 73.618s2.0654 1.5092 3.1032 2.3435c0.99924 0.80334 0.77921 2.1361-0.41134 2.6598-2.7724 1.2196-5.6366 2.3299-8.3282 3.4199-1.4949 0.60542-1.6722 2.9194-0.25373 3.9744 1.507 1.1209 3.8318 2.8339 3.8318 2.8339h3.7682s-2.1236-1.8518-3.2618-2.7709c-0.87621-0.70751-0.8946-2.1598 0.19017-2.6758 2.6357-1.2537 5.329-2.2161 7.9799-3.3564 1.5957-0.68641 2.8796-2.3209 1.1715-3.5466-1.3549-0.97225-4.3698-2.882-4.3698-2.882zm12.167 0s2.0654 1.5092 3.1032 2.3435c0.99924 0.80334 0.77921 2.1361-0.41134 2.6598-2.7724 1.2196-5.6366 2.3299-8.3282 3.4199-1.4949 0.60542-1.6722 2.9194-0.25373 3.9744 1.507 1.1209 3.8318 2.8339 3.8318 2.8339h3.7682s-2.1236-1.8518-3.2618-2.7709c-0.87621-0.70751-0.8946-2.1598 0.19017-2.6758 2.6357-1.2537 5.329-2.2161 7.9799-3.3564 1.5957-0.68641 2.8796-2.3209 1.1715-3.5466-1.3549-0.97225-4.3698-2.882-4.3698-2.882zm-14.264 16.617v8.3752h3.5543v-8.3752zm12.192 0v8.3752h3.5569v-8.3752zm-4.4736 0.61133c-0.68203 0-1.2964 0.04779-1.7772 0.13488-0.24037 0.04354-0.44515 0.09168-0.64079 0.1757-0.0978 0.04201-0.19578 0.09082-0.30696 0.18965-0.11118 0.09884-0.25942 0.29462-0.25942 0.55862v11.78c-0.31409 0.0661-0.61003 0.14205-0.88315 0.22789-0.53343 0.16765-0.9836 0.36673-1.3457 0.63666-0.36205 0.26992-0.67748 0.66631-0.67748 1.172v10.4h12.094v-10.4c0-0.50577-0.31588-0.90211-0.678-1.172-0.3621-0.26991-0.81424-0.46901-1.3477-0.63666-0.27259-0.0857-0.56738-0.16141-0.88057-0.22737v-11.78c0-0.264-0.14875-0.45978-0.25993-0.55862-0.11118-0.09884-0.21069-0.14764-0.30851-0.18965-0.19564-0.08402-0.39836-0.13216-0.63872-0.1757-0.48073-0.08709-1.0951-0.13488-1.7772-0.13488zm-6.4539 0.65422h1.0273v5.8441h-1.0273zm12.193 0h1.0253v5.8441h-1.0253zm-5.7392 0.60926h0.31264c0.62048 0 1.1815 0.04834 1.5508 0.11524 0.0845 0.0153 0.10736 0.02748 0.16795 0.04341v11.219c-0.58944-0.0648-1.2175-0.10077-1.8753-0.10077-0.65737 0-1.2853 0.0361-1.8748 0.10077v-11.219c0.0604-0.01585 0.082-0.0282 0.16588-0.04341 0.36928-0.0669 0.9324-0.11524 1.5529-0.11524zm0.15606 12.541c1.4466 0 2.752 0.18881 3.6427 0.4687 0.44533 0.13995 0.78442 0.30792 0.96893 0.44546 0.18451 0.13753 0.17002 0.19049 0.17002 0.15606v9.1369h-9.5648v-9.1369c0 0.0344-0.0144-0.0185 0.17002-0.15606 0.18446-0.13753 0.52523-0.30551 0.97048-0.44546 0.89052-0.27988 2.1961-0.4687 3.6427-0.4687zm-11.511 3.576v9.449h4.5858v-9.449zm18.438 0v9.449h4.5858v-9.449zm-17.172 1.2656h2.0567v6.9179h-2.0567zm18.438 0h2.0547v6.9179h-2.0547z"/>
</g>
</svg>
