<svg width="10mm" height="10mm" version="1.1" viewBox="0 0 200 200" xmlns="http://www.w3.org/2000/svg">
<g fill="none">
<g stroke="#000">
<circle cx="100" cy="100" r="65.042" stroke-width="8"/>
<path d="m37.677 162.32a88.136 88.136 0 0 1-25.814-62.321 88.136 88.136 0 0 1 25.814-62.321" stroke-width="12"/>
<path d="m162.32 37.677a88.136 88.136 0 0 1 0 124.64" stroke-width="12"/>
<path d="m82.392 54.106 63.501 63.501" stroke-linecap="round" stroke-width="6"/>
</g>
</g>
<path d="m93.783 88.539-4.134-27.176-4.8796-4.8796 3.4723 44.574 1.5633 1.5633-28.602 28.602 6.9915 6.9915 28.602-28.602 1.5633 1.5633 44.574 3.4723-4.8796-4.8796-27.176-4.134-17.095-17.095z"/>
</svg>
