<svg id="a" width="10mm" height="10mm" version="1.1" viewBox="0 0 53.71 53.71" xmlns="http://www.w3.org/2000/svg">
<g id="b" transform="translate(-108.21 -64.823)">
<path id="c" d="m126.75 75.053c-0.72519 0-1.3281 0.60084-1.3281 1.326 0 0.72519 0.60289 1.3265 1.3281 1.3265s1.326-0.60135 1.326-1.3265c0-0.72517-0.60083-1.326-1.326-1.326zm5.5464 0c-0.72519 0-1.3286 0.60084-1.3286 1.326 0 0.72519 0.60341 1.3265 1.3286 1.3265s1.326-0.60135 1.326-1.3265c0-0.72517-0.60083-1.326-1.326-1.326zm5.5459 0c-0.72519 0-1.3281 0.60084-1.3281 1.326 0 0.72519 0.6029 1.3265 1.3281 1.3265s1.3265-0.60135 1.3265-1.3265c0-0.72517-0.60134-1.326-1.3265-1.326zm5.5464 0c-0.72519 0-1.3281 0.60084-1.3281 1.326 0 0.72519 0.6029 1.3265 1.3281 1.3265s1.3265-0.60135 1.3265-1.3265c0-0.72517-0.60134-1.326-1.3265-1.326zm-11.725 4.178v11.894h-4.2633l7.6677 9.0625 7.6683-9.0625h-4.2659v-11.894zm1.2661 1.2655h4.2772v11.894h2.8024l-4.9413 5.8379-4.9413-5.8379h2.8029zm-9.0237 0.74414-0.96067 0.82424 3.42 3.992h-9.3653v22.246h36.137v-22.246h-9.3653l3.42-3.992-0.96118-0.82424-5.209 6.0818h10.849v19.715h-33.605v-19.715h10.849z"/>
</g>
</svg>
