<svg width="10mm" height="10mm" version="1.1" viewBox="0 0 200 200" xmlns="http://www.w3.org/2000/svg">
<g fill="none">
<g stroke="#000">
<g stroke-width="10">
<path d="m136.26 61.304c6.0634 0.9574 11.944 3.0589 17.241 6.1613 9.4744 5.549 16.998 14.351 21.025 24.566 2.1666 5.4969 3.3412 11.383 3.45 17.291h-115.88c-7.6927-2.8085-13.76-9.6931-15.58-17.678-0.9394-4.1215-0.7972-8.4717 0.3062-12.552 1.1034-4.0807 3.1577-7.8891 5.88-11.123 5.4446-6.4679 13.479-10.504 21.828-11.83 12.829-2.0376 25.846 1.9981 37.752 7.1909"/>
<path d="m123.67 77.334-6.0911-3.0191c-4.1678-2.0822-7.3124-6.1083-8.323-10.656-1.0107-4.5481 0.13273-9.527 3.0264-13.178 2.5431-3.2091 6.3748-5.3553 10.434-5.8943 4.0589-0.53899 8.3009 0.52416 11.653 2.8753 2.3636 1.6577 4.288 3.9358 5.5272 6.5433s1.7904 5.5382 1.5832 8.4178"/>
<path d="m162.95 74.682c2.3179-3.3087 3.9503-7.0953 4.7647-11.052 0.52259-2.539 0.70879-5.1796 0.20362-7.7222-0.50518-2.5426-1.7432-4.9876-3.7242-6.6596-1.7812-1.5035-4.0888-2.3179-6.4139-2.4808-2.3252-0.16292-4.6671 0.30018-6.8443 1.1325-4.1959 1.604-7.841 4.6121-10.212 8.4275"/>
</g>
<g stroke-width="5">
<circle cx="143.06" cy="84.432" r="6.5678"/>
<path d="m46.66 91.423c-3.261 0.7228-6.6571 0.83119-9.9576 0.3178-4.3407-0.6752-8.5625-2.4692-11.785-5.4546-3.2226-2.9854-5.3739-7.2089-5.4819-11.601-0.0764-3.1076 0.86591-6.221 2.5899-8.8076 1.724-2.5867 4.2144-4.6431 7.0499-5.9169 3.9606-1.7793 8.4214-2.0197 12.606-3.178 2.4494-0.67795 4.8287-1.6853 6.8856-3.178 3.2229-2.3388 5.562-5.8667 6.4619-9.7458"/>
<path d="m10.263 125.05h179.47"/>
<path d="m84.367 158.05h31.265l-15.633-27.077z"/>
</g>
</g>
</g>
</svg>
