<svg width="10mm" height="10mm" version="1.1" viewBox="0 0 200 200" xmlns="http://www.w3.org/2000/svg">
<g fill="none">
<path d="m67.697 29.005h65.678l6.3e-4 35.144c15.907 10.848 25.423 28.861 25.423 48.119 0 32.178-26.085 58.263-58.263 58.263s-58.263-26.085-58.263-58.263c0-19.237 9.496-37.235 25.4-48.052z" stroke="#000" stroke-width="10"/>
</g>
<path d="m57.221 135.81v-41.602h8.1728l17.027 27.782v-27.782h7.8039v41.602h-8.4282l-16.771-27.129v27.129z"/>
<path d="m98.453 105.67h7.3498v4.1148q3.9445-4.7958 9.393-4.7958 2.8945 0 5.0229 1.1919 2.1283 1.1919 3.4905 3.604 1.9864-2.4121 4.285-3.604t4.9094-1.1919q3.3202 0 5.6188 1.3621 2.2986 1.3338 3.4337 3.9445 0.82295 1.9297 0.82295 6.2431v19.268h-7.9741v-17.225q0-4.4837-0.82296-5.7891-1.1067-1.7027-3.4053-1.7027-1.6743 0-3.1499 1.0216t-2.1283 3.008q-0.65269 1.9581-0.65269 6.2147v14.473h-7.9741v-16.516q0-4.3986-0.42567-5.6755-0.42567-1.277-1.3338-1.9013-0.87971-0.62431-2.4121-0.62431-1.8446 0-3.3202 0.99322t-2.1283 2.8662q-0.62431 1.8729-0.62431 6.2147v14.643h-7.9741z"/>
<path d="m80.919 53.098q0-6.0751 2.2289-9.0047 2.2548-2.9296 6.0905-2.9296 3.9653 0 6.1942 2.9296 2.2548 2.8988 2.2548 9.0047 0 6.0751-2.2548 9.0047-2.2289 2.9296-6.0646 2.9296-3.9653 0-6.2201-2.8988-2.2289-2.9296-2.2289-9.0356zm5.6758-0.06168q0 4.4098 0.85526 5.9209 0.64792 1.1102 1.7883 1.1102 1.1663 0 1.8142-1.1102 0.82935-1.5111 0.82935-5.9209t-0.82935-5.8901q-0.64793-1.141-1.8142-1.141-1.1403 0-1.7883 1.1102-0.85526 1.5111-0.85526 5.9209zm8.1898 35.834h-5.3907l20.241-47.706h5.2352zm11.766-11.873q0-6.0751 2.2289-9.0047 2.2548-2.9296 6.1423-2.9296 3.9135 0 6.1423 2.9296 2.2548 2.9296 2.2548 9.0047 0 6.1059-2.2548 9.0356-2.2289 2.9296-6.0646 2.9296-3.9653 0-6.2201-2.9296-2.2289-2.9296-2.2289-9.0356zm5.6758-0.03084q0 4.4098 0.85525 5.8901 0.64793 1.141 1.7883 1.141 1.1663 0 1.7883-1.1102 0.85526-1.5111 0.85526-5.9209t-0.82934-5.9209q-0.64792-1.1102-1.8142-1.1102-1.1663 0-1.7883 1.1102-0.85525 1.5111-0.85525 5.9209z"/>
</svg>
