<svg width="10mm" height="10mm" version="1.1" viewBox="0 0 200 200" xmlns="http://www.w3.org/2000/svg">
<circle cx="81.012" cy="118.43" r="14.195"/>
<circle cx="131.91" cy="118.43" r="14.195"/>
<path d="m63.233 81.992v20.127h-19.802v5.084h109.75v-25.211z"/>
<path d="m113.95 38.882a62.69 62.69 0 0 1 47.168 75.069 62.69 62.69 0 0 1-75.069 47.168 62.69 62.69 0 0 1-47.168-75.069 62.69 62.69 0 0 1 75.069-47.168zm-0.2893-25.839-6.2051 13.395a74.027 74.027 0 0 0-14.885 0.06055l-6.2324-13.453-11.76 2.6816 0.2207 14.67a74.027 74.027 0 0 0-13.357 6.625l-11.48-9.4375-9.4297 7.5195 6.6074 13.209a74.027 74.027 0 0 0-9.2012 11.678l-14.441-3.5254-5.2344 10.867 11.736 9.0723a74.027 74.027 0 0 0-2.1699 7.123 74.027 74.027 0 0 0-1.1348 7.3574l-14.51 3.084v12.061l14.539 3.0898a74.027 74.027 0 0 0 3.2246 14.516l-11.684 9.0332 5.2324 10.867 14.439-3.5234a74.027 74.027 0 0 0 9.1602 11.768l-6.5625 13.119 9.4297 7.5176 11.451-9.416a74.027 74.027 0 0 0 13.387 6.5137l-0.2207 14.76 11.758 2.6836 6.2051-13.395a74.027 74.027 0 0 0 14.889-0.0586l6.2305 13.451 11.76-2.6816-0.22266-14.67a74.027 74.027 0 0 0 13.359-6.625l11.48 9.4375 9.4277-7.5176-6.6074-13.213a74.027 74.027 0 0 0 9.2031-11.676l14.441 3.5254 5.2324-10.867-11.736-9.0723a74.027 74.027 0 0 0 2.1699-7.1211 74.027 74.027 0 0 0 1.291-7.3926l14.355-3.0508v-12.061l-14.355-3.0527a74.027 74.027 0 0 0-3.3418-14.605l11.617-8.9805-5.2324-10.867-14.268 3.4824a74.027 74.027 0 0 0-9.3398-11.705l6.5723-13.141-9.4297-7.5195-11.348 9.332a74.027 74.027 0 0 0-13.49-6.4941l0.22071-14.693z"/>
</svg>
