<svg id="a" width="10mm" height="10mm" version="1.1" viewBox="0 0 53.71 53.71" xmlns="http://www.w3.org/2000/svg">
<g id="b" transform="translate(-85.725 -108.48)">
<path id="c" d="m124.5 114.09 0.28318 32.449 1.4082-0.70331c2.2807-1.1403 4.3829-3.3001 5.9883-5.5196 1.6054-2.2195 2.7538-4.3635 2.7538-6.164v-17.297c0-1.5932-1.4359-2.7657-3.0293-2.7657zm-21.115 8.6873c-1.7203 0-3.1368 1.4165-3.1368 3.1368v14.739c0 0.87158 0.46018 1.6394 1.0898 2.2226s1.45 1.0402 2.4216 1.4196c1.9432 0.75864 4.5076 1.1937 7.3458 1.1937h0.0899c2.8382 0 5.4026-0.43509 7.3458-1.1937 0.97158-0.37932 1.7924-0.8364 2.4221-1.4196s1.0899-1.351 1.0899-2.2226v-14.739c0-1.7203-1.4165-3.1368-3.1368-3.1368zm0 1.9647h15.531c0.66562 0 1.17 0.50642 1.17 1.172v14.739c0 0.19627-0.0903 0.44093-0.45734 0.78083-0.36701 0.3399-0.98927 0.71398-1.8025 1.0315-1.6264 0.63497-3.9988 1.0583-6.6311 1.0583h-0.0899c-2.6323 0-5.0042-0.42336-6.6306-1.0583-0.81319-0.31748-1.436-0.69156-1.803-1.0315s-0.45889-0.58456-0.45889-0.78083v-14.739c0-0.66558 0.50645-1.172 1.172-1.172zm-10.869 1.8655c-1.2479 0-2.2836 1.0352-2.2836 2.2831v12.623c0 1.3887 0.74858 2.9583 1.7834 4.6018 1.0348 1.6435 2.373 3.2459 3.9202 4.1346l1.4588 0.83974 0.18345-24.482zm0 1.9647h3.084l-0.14263 18.734c-0.63588-0.65564-1.2614-1.4156-1.7792-2.2381-0.92125-1.4632-1.4805-3.0906-1.4805-3.5548v-12.623c0-0.19326 0.12507-0.31833 0.31833-0.31833zm9.7493 17.918-0.94465 0.0351c-0.94437 0-1.0306 1.3668-1.094 2.2789v3.2541c0 0.64982 0.34545 1.2477 0.76016 1.5958 0.41471 0.34812 0.87344 0.52507 1.3121 0.65009 0.0811 0.0323 1.3943 0.55913 3.1543 1.1157 1.8133 0.57341 3.97 1.1679 5.6973 1.1679 1.7273-1e-5 3.882-0.59448 5.6953-1.1679 1.7609-0.55687 3.0767-1.084 3.1564-1.1157 0.43857-0.125 0.89776-0.30206 1.3126-0.65009 0.41481-0.34802 0.75964-0.94572 0.75964-1.5958v-3.2541c0-0.65005-0.24986-1.2242-0.68161-1.6754-0.43175-0.45117-1.1782-0.7826-1.9296-0.56844l-8e-3 2e-3 -0.01 2e-3c-7.0206 1.4041-9.601 1.7615-16.592 0l-0.016-4e-3c-0.18427-0.0525-0.38038-0.0773-0.57154-0.0703zm17.688 1.9725c5e-3 6e-3 8e-3 0.0112 0.0191 0.0233 0.0674 0.0704 0.13695 0.24781 0.13695 0.31833v3.2541c0 0.0705 0.0255 0.0212-0.0589 0.092-0.0843 0.0708-0.30459 0.18288-0.58756 0.26354l-0.0491 0.0134-0.0465 0.0196s-1.375 0.5499-3.1135 1.0997c-1.7385 0.54978-3.8738 1.0759-5.1036 1.0759-1.2298 1e-5 -3.365-0.52613-5.1036-1.0759s-3.1151-1.0997-3.1151-1.0997l-0.047-0.0196-0.047-0.0134c-0.28291-0.0806-0.50337-0.19287-0.58756-0.26354-0.0842-0.0707-0.0589-0.0212-0.0589-0.092v-3.2541c0-0.0617 0.0484-0.2063 0.11162-0.28681 0.0263-0.0335 0.0373-0.0552 0.046-0.0532 7.329 1.7214 10.352 1.3557 17.605-2e-3z"/>
</g>
</svg>
