<svg id="a" width="10mm" height="10mm" version="1.1" viewBox="0 0 53.71 53.71" xmlns="http://www.w3.org/2000/svg">
<g id="b" transform="translate(-7.9375 -85.99)">
<path id="c" d="m36.173 91.871c-5.4002 0-9.7229 4.6604-9.7229 10.375v0.94877c-0.65296 0.0166-1.2424 0.0668-1.7141 0.14677-0.28929 0.049-0.53238 0.10448-0.75345 0.19327-0.11053 0.0444-0.21838 0.0934-0.33848 0.19327-0.1201 0.0999-0.28628 0.30116-0.28628 0.58601v13.732c-0.38534 0.0632-0.74827 0.13566-1.0785 0.21911-0.59773 0.15105-1.0972 0.32839-1.4976 0.56844-0.40043 0.24006-0.79375 0.60156-0.79375 1.1544v11.988h13.85v-11.988c0-0.55289-0.39435-0.91439-0.79479-1.1544-0.40044-0.24005-0.89882-0.41739-1.4966-0.56844-0.33064-0.0836-0.69392-0.15637-1.08-0.21962v-13.731c0-0.28486-0.16671-0.48615-0.28681-0.58601-0.1201-0.0999-0.22743-0.14886-0.33796-0.19327-0.22107-0.0888-0.4626-0.14426-0.7519-0.19327-0.38803-0.0657-0.85917-0.11048-1.3761-0.13436v-0.96118c0-5.0812 3.7869-9.1095 8.4594-9.1095 4.6712 0 8.279 4.0498 8.6501 9.1565l0.5023 6.9169-3.0608-5.8606-1.1214 0.58601 4.7816 9.1545 4.3904-9.4961-1.1462-0.53124-2.6117 5.6477-0.47232-6.5092c-0.41106-5.6565-4.5105-10.33-9.9121-10.33zm-18.39 10.5v9.727h4.2421v-9.727zm14.017 0v9.727h4.2421v-9.727zm-12.752 1.2661h1.711v7.197h-1.711zm14.017 0h1.711v7.197h-1.711zm-6.166 0.81597h0.02326c0.77755 0 1.4812 0.0546 1.9549 0.13487 0.15606 0.0264 0.23137 0.0537 0.32453 0.0801v13.219c-0.68892-0.0639-1.427-0.0997-2.2014-0.0997h-0.17932c-0.77391 0-1.5112 0.0359-2.1994 0.0997v-13.219c0.0932-0.0264 0.16796-0.0536 0.32402-0.0801 0.47372-0.0803 1.1758-0.13487 1.9534-0.13487zm-0.07751 14.6h0.17932c1.6752 0 3.1877 0.17528 4.2344 0.43977 0.52331 0.13224 0.93094 0.29265 1.1565 0.42788 0.13227 0.0793 0.17026 0.12843 0.17984 0.13281v10.66h-11.319v-10.66c0.0102-6e-3 0.0486-0.0548 0.17776-0.13229 0.22557-0.13523 0.63321-0.29564 1.1565-0.42788 1.0466-0.26449 2.5592-0.43977 4.2344-0.43977zm22.129 0.0496c-3.8483 0-6.9825 3.1342-6.9825 6.9825 0 3.8483 3.1342 6.9805 6.9825 6.9805 3.8483 0 6.9804-3.1321 6.9804-6.9805 0-3.8483-3.1321-6.9825-6.9804-6.9825zm-35.299 3.8706v10.846h5.2266v-10.846zm21.293 0v10.846h5.2266v-10.846zm-20.027 1.2656h2.6954v8.3163h-2.6954zm21.293 0h2.6954v8.3163h-2.6954z"/>
</g>
</svg>
