<svg id="a" width="10mm" height="10mm" version="1.1" viewBox="0 0 53.71 53.71" xmlns="http://www.w3.org/2000/svg">
<g id="b" transform="translate(-52.652 -101.07)">
<path id="c" d="m58.001 107.32v14.66h2.1642v-6.289h1.9756c1.8282 2.5076 2.2576 3.373 3.6876 6.289h2.8401c-1.9137-4.944-2.304-4.3569-3.899-6.4466 1.6869-0.48641 2.9326-2.0484 2.9326-3.885v-0.28526c0-2.2214-1.8215-4.0432-4.0426-4.0432zm29.903 1.9642c-1.3797 9e-5 -2.7594 0.52288-3.8049 1.5684l0.06098-0.0584-24.392 21.263-0.0289 0.0289c-3.0354 3.0354-3.153 7.9429-0.17983 10.916 2.9732 2.9732 7.8808 2.8555 10.916-0.17983l0.02894-0.0289 21.262-24.394c2.031-2.0961 2.0145-5.4765-0.05633-7.5473l-1e-3 -5.2e-4c-1.0455-1.0455-2.4248-1.568-3.8044-1.5679zm-27.739 0.19999h3.4944c1.0594 0 1.8769 0.81977 1.8769 1.879v0.28526c0 1.0592-0.81747 1.8769-1.8769 1.8769h-3.4944zm27.738 2.25c0.74329 2.8e-4 1.4869 0.28798 2.0614 0.86248 1.149 1.149 1.1505 2.9737 0.0016 4.1228l-0.03049 0.03-21.215 24.339c-2.1295 2.1196-5.4287 2.161-7.4192 0.17053s-1.9478-5.2888 0.17156-7.4187l24.339-21.214 0.03049-0.0305c0.5745-0.5745 1.3176-0.86172 2.0609-0.86144zm-5.16e-4 1.6226c-0.33472 0-0.66942 0.1263-0.92191 0.37879-0.50497 0.50497-0.5055 1.3399-5.17e-4 1.8448 0.50496 0.50496 1.3404 0.50497 1.8454 0 0.50497-0.50497 0.50392-1.3399-1e-3 -1.8448-0.25249-0.25249-0.58719-0.37879-0.92191-0.37879zm3.221 9.6831 2.1404 10.879 1.2402-0.24391-1.4924-7.584c5.9924 6.2869 6.6373 9.521 6.6373 16.32h1.2635c0-6.8524-0.86405-10.69-6.8792-17.076l7.1877 2.3807 0.39843-1.1994zm-26.17 11.042c-0.90453 9e-5 -1.809 0.34393-2.4954 1.0304-1.373 1.373-1.3735 3.6179-5.2e-4 4.9909 1.373 1.373 3.6184 1.373 4.9914 0 1.373-1.373 1.373-3.6184 0-4.9914-0.6865-0.68649-1.5909-1.03-2.4955-1.0299zm-5.2e-4 1.2578c0.57785 0 1.1562 0.22235 1.6009 0.66714 0.88958 0.88957 0.88958 2.3118 0 3.2014-0.88958 0.88958-2.3118 0.88906-3.2014-5.1e-4 -0.88958-0.88958-0.88958-2.3113 0-3.2008 0.44479-0.44479 1.0226-0.66714 1.6004-0.66714zm-7.2321 11.025v2.1637h41.674v-2.1637z"/>
</g>
</svg>
