<svg id="a" width="10mm" height="10mm" version="1.1" viewBox="0 0 53.71 53.71" xmlns="http://www.w3.org/2000/svg">
<g id="b" transform="translate(-3.3482 -81.374)">
<path id="c" d="m12.107 97.646c-0.86462 0-1.5797 0.7172-1.5797 1.5818v2.7621h-5.4544v2.7244h5.4544v6.2637c0 0.8646 0.71513 1.5797 1.5797 1.5797h1.5157v1.8655c0 2.4175 1.9529 4.3884 4.3594 4.3884 2.4065 0 4.3594-1.9709 4.3594-4.3884v-1.8655h1.5157c0.86462 0 1.5797-0.71514 1.5797-1.5797v-6.2637h9.5338v6.2637c0 0.8646 0.71513 1.5797 1.5797 1.5797h1.5157v1.8655c0 2.4175 1.9529 4.3884 4.3594 4.3884 2.4065 0 4.3594-1.9709 4.3594-4.3884v-1.8655h1.5157c0.86461 0 1.5798-0.71514 1.5798-1.5797v-6.2637h5.4539v-2.7244h-5.4539v-2.7621c0-0.86462-0.71514-1.5818-1.5798-1.5818h-11.75c-0.86462 0-1.5797 0.7172-1.5797 1.5818v2.7621h-9.5338v-2.7621c0-0.86462-0.71513-1.5818-1.5797-1.5818zm0 1.2656h11.75c0.18569 0 0.31626 0.13057 0.31626 0.31626v11.75c0 0.18568-0.13057 0.31419-0.31626 0.31419h-11.75c-0.18569 0-0.31626-0.12851-0.31626-0.31419v-11.75c0-0.18569 0.13057-0.31626 0.31626-0.31626zm24.443 0h11.75c0.18569 0 0.31626 0.13057 0.31626 0.31626v11.75c0 0.18568-0.13057 0.31419-0.31626 0.31419h-11.75c-0.18569 0-0.31626-0.12851-0.31626-0.31419v-11.75c0-0.18569 0.13057-0.31626 0.31626-0.31626zm-21.662 13.646h6.1877v1.8655c0 1.7438-1.3717 3.1228-3.0939 3.1228-1.7222 0-3.0939-1.379-3.0939-3.1228zm24.443 0h6.1877v1.8655c0 1.7438-1.3717 3.1228-3.0939 3.1228-1.7222 1e-5 -3.0939-1.379-3.0939-3.1228z" color="#000000" fill="#000" stroke-dashoffset="9.0352" style="paint-order:markers stroke fill"/>
</g>
</svg>
