<svg width="10mm" height="10mm" version="1.1" viewBox="0 0 200 200" xmlns="http://www.w3.org/2000/svg">
<path d="m56.843 31.177h86.313a32.332 32.332 0 0 1 28 48.497l-43.157 74.75a32.332 32.332 0 0 1-56 0l-43.157-74.75a32.332 32.332 0 0 1 28-48.497z" fill="none" stroke="#000" stroke-width="5"/>
<path d="m106.47 58.219q0-5.1282 1.5339-8.6081 1.1447-2.5641 3.1136-4.6017 1.9918-2.0375 4.3498-3.022 3.1364-1.3278 7.2344-1.3278 7.4176 0 11.859 4.6017 4.4643 4.6017 4.4643 12.798 0 8.1273-4.4185 12.729-4.4185 4.5788-11.813 4.5788-7.4863 0-11.905-4.5559-4.4185-4.5788-4.4185-12.592zm6.9826-0.22894q0 5.7006 2.6328 8.6539 2.6328 2.9304 6.685 2.9304t6.6392-2.9075q2.6099-2.9304 2.6099-8.7683 0-5.7692-2.5412-8.6081-2.5183-2.8388-6.7079-2.8388t-6.7537 2.8846q-2.5641 2.8617-2.5641 8.6539zm-18.842 16.804v-33.562h6.7766v33.562zm-33.631-33.562h13.416q3.9835 0 5.9295 0.34341 1.9689 0.32051 3.5028 1.3736 1.5568 1.0531 2.587 2.8159 1.0302 1.7399 1.0302 3.9148 0 2.3581-1.282 4.3269-1.2592 1.9689-3.4341 2.9533 3.0678 0.89286 4.7161 3.0449 1.6484 2.152 1.6484 5.0595 0 2.2894-1.076 4.4643-1.0531 2.152-2.9075 3.457-1.8315 1.2821-4.533 1.5797-1.6941 0.18315-8.1731 0.22894h-11.424zm6.7766 5.5861v7.761h4.4414q3.9606 0 4.9222-0.11447 1.7399-0.20604 2.7244-1.1905 1.0073-1.0073 1.0073-2.6328 0-1.5568-0.86997-2.5183-0.84707-0.98443-2.5412-1.1905-1.0073-0.11447-5.7921-0.11447zm0 13.347v8.9744h6.2729q3.663 0 4.6474-0.20604 1.511-0.27472 2.4496-1.3278 0.96154-1.076 0.96154-2.8617 0-1.511-0.7326-2.5641t-2.1291-1.5339q-1.3736-0.48077-5.9982-0.48077z"/>
<path d="m88.064 95.127c-1.6184 0-2.9199 1.3035-2.9199 2.9219v29.713h5.293v-21.676h1.4551v50.738h6.7871v-32.951h2.6406v32.951h6.7871v-50.738h1.4551v21.676h5.293v-29.713c0-1.6184-1.3015-2.9219-2.9199-2.9219z"/>
<circle cx="100" cy="85.487" r="6.25"/>
</svg>
