<svg width="10mm" height="10mm" version="1.1" viewBox="0 0 200 200" xmlns="http://www.w3.org/2000/svg">
<g fill="none" stroke="#000" stroke-width="5">
<path d="m70.551 162.08v7.8492c0 4.6747-3.7896 8.4643-8.4643 8.4643h-13.3c-4.6747 0-8.4643-3.7896-8.4643-8.4643v-9.3846c0-1.3674-0.64421-2.6548-1.7386-3.4746l-2.5228-1.8897c-1.0944-0.81975-1.7386-2.1072-1.7386-3.4746v-58.694c-4.7974 0-8.6864-3.8891-8.6864-8.6864v-25.212c0-4.7974 3.8891-8.6864 8.6864-8.6864h3c0-2.0516 0-4.1021 0.47114-7.3627s1.4135-7.7299 2.6588-10.939c1.2453-3.2088 2.7933-5.1562 5.4404-6.5671s6.3922-2.2848 13.758-2.888c7.366-0.60329 18.352-0.93608 25.68-1.1025 10.131-0.24974 21.225-0.18074 29.338 0 7.3285 0.16638 18.314 0.49918 25.68 1.1025 7.366 0.60329 11.111 1.4772 13.758 2.888s4.1951 3.3584 5.4404 6.5671c1.2453 3.2088 2.1877 7.678 2.6588 10.939 0.47114 3.2606 0.47114 5.3112 0.47114 7.3627h3c4.7974 1e-6 8.6864 3.8891 8.6864 8.6864v25.212c0 4.7974-3.889 8.6864-8.6864 8.6864v58.694c0 1.3674-0.64421 2.6548-1.7386 3.4746l-2.5228 1.8897c-1.0944 0.81975-1.7386 2.1072-1.7386 3.4746v9.3846c0 4.6747-3.7896 8.4643-8.4643 8.4643h-13.3c-4.6747 0-8.4643-3.7896-8.4643-8.4643v-7.8492h-58.898z"/>
<path d="m55.257 80.085c-3.4556 0-6.1619-2.9731-5.8379-6.4135l3.2278-34.277c0.06264-0.6652 0.64749-1.2947 1.3065-1.4051 2.8511-0.47753 5.7833-0.94784 9.3719-1.3585 4.0904-0.46812 9.034-0.85892 15.289-1.0543 14.725-0.1757 28.566-0.42405 42.771 0 6.255 0.19538 11.199 0.58618 15.289 1.0543 3.5886 0.41068 6.5208 0.88098 9.3719 1.3585 0.65897 0.11037 1.2438 0.73988 1.3064 1.4051l3.2278 34.277c0.32398 3.4404-2.3823 6.4135-5.8379 6.4135h-89.486z"/>
</g>
</svg>
