<svg width="10mm" height="10mm" version="1.1" viewBox="0 0 200 200" xmlns="http://www.w3.org/2000/svg">
<path d="m82.708 187.12c-6.2624-0.38897-13.264-1.1664-17.189-3.5954-3.9258-2.429-4.7696-6.5088-5.1898-13.66s-0.41663-17.378-0.43909-31.568c-0.02246-14.189-0.07088-32.34-0.01944-50.525 0.05145-18.185 0.20278-36.402 0.72136-47.299s1.4047-14.475 3.7639-17.572c2.3592-3.0969 6.1916-5.7127 11.361-7.3678s11.671-2.3487 15.942-2.6956c4.2708-0.34692 6.3071-0.34692 8.3427-0.34692s4.0719 0 8.3427 0.34692 10.773 1.0406 15.942 2.6956 9.0014 4.2709 11.361 7.3677c2.3592 3.0969 3.2453 6.6749 3.7639 17.572 0.51858 10.897 0.66992 29.114 0.72136 47.299 0.0514 18.185 3e-3 36.335-0.0194 50.525s-0.0189 24.417-0.43906 31.568c-0.42014 7.151-1.2639 11.231-5.1898 13.66-3.9258 2.429-10.927 3.2064-17.189 3.5954-6.2624 0.38897-11.777 0.38897-17.292 0.38897-5.5153 0-11.03 0-17.292-0.38897z" fill="none" stroke="#000" stroke-width="5"/>
<path d="m99.615 59.895c-6.9862 0.03787-13.843 1.7137-20.028 4.8644-2.3883 1.2165-3.1067 4.3143-1.7603 6.6333l8.25 14.209c0.30821 0.53083 1.0515 0.89716 1.6611 0.82503 3.9424-0.46653 7.9072-0.72168 11.877-0.76427 3.9772 0.02931 7.9497 0.27194 11.9 0.72675 0.60979 0.0702 1.3533-0.2977 1.6615-0.82854l8.2541-14.217c1.3464-2.319 0.62544-5.4132-1.7653-6.6249-6.1957-3.1402-13.06-4.8023-20.051-4.8241z"/>
<rect x="77.278" y="142.06" width="45.445" height="21.292" rx="5.1907" ry="5.1907"/>
</svg>
