<svg width="10mm" height="10mm" version="1.1" viewBox="0 0 200 200" xmlns="http://www.w3.org/2000/svg">
<g fill="none">
<g stroke="#000" stroke-width="5">
<path d="m112.5 38.517a75 75 0 0 1 75 75 75 75 0 0 1-75 75 75 75 0 0 1-75-75 75 75 0 0 1 4.3993-25.309"/>
<path d="m158.94 54.628a66.96 66.96 0 0 1-46.44 18.721"/>
<path d="m66.295 172.18a66.96 66.96 0 0 1 46.205-18.496 66.96 66.96 0 0 1 46.205 18.496"/>
<path d="m112.5 38.479v150.08"/>
<path d="m37.462 113.52h150.08"/>
<path d="m112.5 38.517a37.5 75 0 0 1 37.5 75 37.5 75 0 0 1-37.5 75 37.5 75 0 0 1-37.5-75 37.5 75 0 0 1 1.0337-17.489"/>
</g>
</g>
<path d="m131.34 94.344c-1.3394-8.7073-5.7111-16.918-12.187-22.891-4.8532-4.4756-10.901-7.7127-17.39-8.929-4.9639-0.93049-10.147-0.67187-14.993 0.74818 5.3934 2.9986 10.159 7.1209 13.903 12.026 2.445 3.2038 4.4556 6.7353 6.0016 10.457 1.7252 4.1536 2.8727 8.5466 3.399 13.013l-13.453 2.7995 29.611 21.538 18.562-31.562z"/>
<g fill="none" stroke="#000" stroke-linejoin="round" stroke-width="5">
<path d="m67.797 99.73 44.703-19.903v-48.289l-44.703 19.903z"/>
<path d="m67.797 99.73-44.703-19.903v-48.289l44.703 19.903z"/>
<path d="m23.093 31.539 44.703-19.903 44.703 19.903"/>
<path d="m83.915 18.812-44.703 19.903v12.983l11.707 5.2121v-12.983l44.703-19.903"/>
</g>
</svg>
