<svg width="10mm" height="10mm" version="1.1" viewBox="0 0 200 200" xmlns="http://www.w3.org/2000/svg">
<path d="m65.714 126.71h-10.113l-3.2585-9.9722h-15.815l-3.2024 9.9722h-10.057l15.927-43.513h10.899zm-15.562-17.135-4.944-15.085q-0.47754-1.4326-0.67418-3.7923h-0.25282q-0.16854 1.9102-0.75845 3.6799l-4.9721 15.197z"/>
<path d="m14.089 61.758v76.483h60.805l-5e-6 -59.11-17.373-17.373z" fill="none" stroke="#000" stroke-width="5"/>
<path d="m57.521 61.758v17.373l17.359-0.01362" fill="none" stroke="#000" stroke-width="5"/>
<path d="m134.21 90.089h18.353q-0.68057-2.2393-1.8441-5.5324l6.7179-1.3611q1.6465 4.3688 2.5027 6.8935h16.729v5.9276h-6.5203q-3.315 9.9671-9.55 16.839 6.7618 4.6762 16.685 7.135-3.6444 4.4347-4.8299 6.4544-10.033-3.359-17.036-8.8694-7.0472 5.3128-17.3 9.1328-2.371-3.82-4.3908-6.3666 9.8573-3.0736 16.509-7.5961-6.3227-7.0472-8.9572-16.729h-7.0692zm28.474 5.9276h-14.621q2.2613 7.2009 7.3326 12.448 5.1153-5.269 7.2887-12.448z"/>
<g fill="none" stroke="#000" stroke-width="5">
<path d="m125.11 61.758v76.483h60.805v-59.11l-17.373-17.373z"/>
<path d="m168.54 61.758v17.373l17.359-0.01362"/>
<path d="m92.511 87.818 21.1 12.182-21.1 12.182"/>
<path d="m113.61 100h-32.223"/>
</g>
</svg>
