<svg width="10mm" height="10mm" version="1.1" viewBox="0 0 200 200" xmlns="http://www.w3.org/2000/svg">
<path d="m65.233 38.789a13.938 13.938 0 0 0-12.034 13.75 13.938 13.938 0 0 0 0.86304 4.7291 13.938 13.938 0 0 0-4.5265 1.6161 13.938 13.938 0 0 0-5.8911 17.298l1.711-0.98808a9.7286 9.7286 0 0 1 4.3267-11.534 9.7286 9.7286 0 0 1 12.663 2.712l1.9668-1.1361a2.9079 2.9079 0 0 1-0.08336-0.41967 2.9079 2.9079 0 0 1 1.859-2.6991v-2.2284a9.7286 9.7286 0 0 1-8.68-9.6099 9.7286 9.7286 0 0 1 7.8256-9.5143zm3.8057 0v1.9553a9.7286 9.7286 0 0 1 7.8263 9.5344 9.7286 9.7286 0 0 1-8.68 9.6099v2.2284a2.9079 2.9079 0 0 1 1.859 2.6991 2.9079 2.9079 0 0 1-0.03808 0.44625l1.9216 1.1095a9.7286 9.7286 0 0 1 12.663-2.712 9.7286 9.7286 0 0 1 4.344 11.544l1.7405 1.0046a13.938 13.938 0 0 0-5.9378-17.325 13.938 13.938 0 0 0-4.5272-1.6161 13.938 13.938 0 0 0 0.86376-4.7291 13.938 13.938 0 0 0-12.035-13.75zm-3.685 28.267-1.9129 1.1045a9.7286 9.7286 0 0 1-4.0307 12.35 9.7286 9.7286 0 0 1-12.152-2.02l-1.711 0.98808a13.938 13.938 0 0 0 17.926 3.547 13.938 13.938 0 0 0 3.6857-3.0864 13.938 13.938 0 0 0 3.6412 3.0864 13.938 13.938 0 0 0 17.926-3.5478l-1.7103-0.98736a9.7286 9.7286 0 0 1-12.153 2.02 9.7286 9.7286 0 0 1-3.9825-12.323l-1.9208-1.1095a2.9079 2.9079 0 0 1-1.8224 0.64603 2.9079 2.9079 0 0 1-1.7821-0.6683z"/>
<g fill="none" stroke="#000">
<g stroke-width="3">
<path d="m61.293 54.697a11.685 11.685 0 0 1 11.685 0"/>
<path d="m78.821 64.817a11.685 11.685 0 0 1-5.8426 10.12"/>
<path d="m61.293 74.936a11.685 11.685 0 0 1-5.8426-10.12"/>
</g>
<path d="m166.14 23.959v58.725c-0.0603 7.7206-1.0467 15.434-2.9312 22.921-4.0889 16.246-12.434 31.339-23.651 43.781-10.903 12.095-24.523 21.727-39.561 27.977-15.037-6.2495-28.657-15.882-39.56-27.977-11.217-12.443-19.562-27.537-23.651-43.781-1.8845-7.4873-2.8709-15.2-2.9312-22.921v-58.725z" stroke-width="5"/>
</g>
<circle cx="133.03" cy="60.337" r="4.6841"/>
<path d="m123.51 60.337c0-3.4005 1.8142-6.5426 4.7591-8.2429l-7.5632-13.1c-7.6251 4.4022-12.322 12.538-12.322 21.343z"/>
<path d="m137.79 68.579c-2.9449 1.7003-6.5733 1.7003-9.518 0l-7.5632 13.1c7.6251 4.4022 17.019 4.4022 24.644 0z"/>
<path d="m137.79 52.094c2.9449 1.7003 4.7591 4.8424 4.7591 8.2429h15.126c0-8.8045-4.6972-16.94-12.322-21.343z"/>
<path d="m109.82 92.914-3.2254 5.5864v13.048l10.473 39.088c0.64209 2.3963-1.1636 4.7496-3.6444 4.7496h-27.09c-2.4809 0-4.2866-2.3533-3.6444-4.7496l10.473-39.088v-13.048l-3.2254-5.5864" fill="none" stroke="#000" stroke-width="4"/>
<path d="m89.991 123.37-7.308 27.271c-0.64209 2.3963 1.1637 4.7485 3.6446 4.7485h27.09c2.4809 0 4.2867-2.3521 3.6446-4.7485l-7.3065-27.271z"/>
</svg>
