<svg id="a" width="10mm" height="10mm" version="1.1" viewBox="0 0 53.71 53.71" xmlns="http://www.w3.org/2000/svg">
<g id="b" transform="translate(-15.875 -71.437)">
<path id="c" d="m53.006 80.89-1.1612 0.50282 2.0314 4.6943 1.1617-0.50281zm6.5712 0-2.0319 4.6943 1.1612 0.50281 2.0319-4.6943zm-25.293 2.1673c-4.7764 0-9.1773 1.9057-11.394 5.039l-0.15658 0.22273 0.05271 0.26561s0.177 0.89342 0.29094 2.0392 0.14472 2.5492-0.07596 3.4199c-0.23046 0.90931-0.95687 2.315-1.6268 3.4411-0.66991 1.1261-1.2738 1.9921-1.2738 1.9921l-0.11524 0.16433v16.055h28.596v-16.055l-0.11369-0.16433s-0.60546-0.86603-1.2754-1.9921c-0.66991-1.1261-1.3963-2.5318-1.6268-3.4411-0.22069-0.87074-0.18988-2.2742-0.07597-3.4199 0.11394-1.1457 0.29094-2.0392 0.29094-2.0392l0.05271-0.26561-0.15658-0.22273c-2.2169-3.1333-6.6162-5.039-11.393-5.039zm0 1.2656c1.7189 0 3.3704 0.28044 4.8617 0.77515l-4.8715 7.2424-4.869-7.2368c1.4962-0.49827 3.1533-0.78083 4.8788-0.78083zm6.0756 1.2387c0.0148 7e-3 0.02861 0.0141 0.04341 0.0207v19.474h-12.24v-19.474c0.0097-4e-3 0.01874-9e-3 0.02842-0.0134l5.4498 8.0993v11.233h1.2635v-11.235zm7.2502 0.0656-0.50281 1.1612 4.6943 2.0319 0.50281-1.1612zm17.362 0-4.6943 2.0319 0.50281 1.1612 4.6943-2.0319zm-8.6816 1.3343c-1.7117 0-3.1114 1.3997-3.1114 3.1114s1.3997 3.1135 3.1114 3.1135c1.7117 0 3.113-1.4018 3.113-3.1135s-1.4013-3.1114-3.113-3.1114zm-13.305 0.17776c0.58164 0.46816 1.0924 0.98057 1.5074 1.5332-0.0439 0.23417-0.15978 0.80359-0.26148 1.8262-0.1203 1.2096-0.19256 2.6738 0.10697 3.8556 0.30292 1.1952 1.073 2.609 1.7679 3.777 0.63519 1.0677 1.1139 1.7537 1.2087 1.8908v5.0338h-4.3295zm-17.405 1e-3v17.916h-4.3295v-5.0338c0.09477-0.13718 0.57352-0.8231 1.2087-1.8908 0.69484-1.168 1.4649-2.5818 1.7679-3.777 0.29952-1.1818 0.22726-2.646 0.10697-3.8556-0.1017-1.0227-0.21754-1.5921-0.26148-1.8262 0.41485-0.55244 0.92587-1.0642 1.5074-1.5322zm26.221 4.1873-4.6943 2.0319 0.50281 1.1612 4.6943-2.0314zm8.9793 0-0.50281 1.1617 4.6943 2.0314 0.50281-1.1612zm-6.905 2.7332-2.0314 4.6943 1.1612 0.50282 2.0319-4.6943zm4.8302 0-1.1612 0.50281 2.0319 4.6943 1.1612-0.50282zm-37.455 13.578h26.064v2.4686h-26.064zm0 5.0514h26.064v1.7405h-26.064z"/>
</g>
</svg>
