<svg width="10mm" height="10mm" version="1.1" viewBox="0 0 200 200" xmlns="http://www.w3.org/2000/svg">
<g fill="none">
<circle cx="100" cy="100" r="74" stroke="#000" stroke-width="6"/>
</g>
<circle cx="78.708" cy="70.869" r="12.5"/>
<path d="m110.56 76.885-22.342 7.3294a9.4785 9.4785 0 0 0-2.4519 16.792l26.593 18.467a9.3353 9.3353 0 0 0 7.6965 1.3613l18.825-4.9449 14.953 3.5225a7.7259 7.7259 0 0 0 9.1716-5.3 6.9275 6.9275 0 0 0-5-8.6336l-14.892-3.8718a19.429 19.429 0 0 0-9.1383-0.15479l-13.844 3.103-14.936-10.805 11.03-3.9009a6.2544 6.2544 0 0 0 3.6436-8.4058l-0.21575-0.49257a7.4058 7.4058 0 0 0-9.092-4.0655z"/>
<path d="m47.796 80.975c3.5813 8.2042 6.3697 16.792 10.837 24.577 5.1791 7.8971 10.12 15.968 15.636 23.634 4.1023 4.8251 8.4683 9.4536 12.984 13.889 4.718 4.0716 11.363 4.1648 16.992 2.2206 15.637-4.1602 31.334-8.1244 46.932-12.408 2.8258-1.07 6.912-5.221 3.1987-7.766-4.9436-1.4082-9.9945-2.5385-15.018-3.6508-4.4201-0.0649-8.589 1.8432-12.882 2.7349-4.0091 0.809-7.9108 2.6928-12.038 2.439-3.976-1.2541-6.984-4.4196-10.472-6.6236-8.6902-6.3409-17.655-12.321-26.124-18.953-3.6113-3.0464-7.1643-6.3947-8.7663-10.971-3.7714-7.8251-6.9204-15.975-11.289-23.49-1.6479-3.244-5.1449-6.5088-8.9759-4.4301-3.6962 1.1568-3.6722 5.288-3.1559 8.4155 0.2603 3.5399 0.70645 7.0957 2.1411 10.383z"/>
</svg>
