<svg width="10mm" height="10mm" version="1.1" viewBox="0 0 200 200" xmlns="http://www.w3.org/2000/svg">
<path d="m27.266 35.955 139.48 139.48" stroke="#000" stroke-width="10"/>
<path d="m62.164 24.236-0.001953 4.998-0.019531 26.041 9.9941 9.9941 0.021484-31.033h55.682v32.787l2.1836 1.4883c14.545 9.9193 23.24 26.377 23.24 43.988 0 9.7532-2.6167 18.875-7.1699 26.727l7.2363 7.2363c6.277-9.8207 9.9336-21.47 9.9336-33.963 0-19.976-9.5172-38.652-25.424-50.555v-37.709h-75.676zm-12.295 49.877c-8.3814 10.867-13.133 24.299-13.133 38.387 0 34.88 28.384 63.264 63.264 63.264 14.452 0 27.781-4.8835 38.445-13.072l-7.1016-7.1016c-8.7884 6.3955-19.612 10.174-31.344 10.174-29.476 0-53.264-23.788-53.264-53.264 0-11.417 3.6736-22.336 10.213-31.307l-7.0801-7.0801zm50.432 6.9727c-1.1139-0.003779-2.2363 0.043811-3.3652 0.14258-2.5511 0.22319-5.0068 0.74128-7.3652 1.4746l4.0898 4.0898c1.2132-0.25945 2.445-0.47323 3.7109-0.58398 15.676-1.3715 29.669 8.6219 32.385 24.025l0.02734 0.1621 0.56446 1.7949 4.7695-1.5-0.49219-1.5684c-3.0676-16.691-17.698-27.981-34.324-28.037zm-28.805 14.654c-4.18 5.7986-6.6543 12.886-6.6543 20.514h5c0-6.2681 1.9357-12.095 5.2285-16.939l-3.5742-3.5742z"/>
<path d="m114.11 100.72 22.111 14.167 1.0983-23.75" fill="none" stroke="#000" stroke-width="5"/>
<path d="m59.502 116.25h15.678" fill="none" stroke="#000" stroke-width="5"/>
<path d="m27.266 35.955 139.48 139.48"/>
</svg>
