<svg id="a" width="10mm" height="10mm" version="1.1" viewBox="0 0 53.71 53.71" xmlns="http://www.w3.org/2000/svg">
<g id="b" transform="translate(-28.046 -69.585)">
<path id="c" d="m62.494 79.488v6.2187h7.0859v27.686h-8.1737v-4.5351h-13.01v4.5351h-8.1742v-27.686h7.0843v-6.2187zm-1.2635 1.2635h-12.658v26.842h12.658zm7.0838 6.2187h-5.6425v1.4924h5.6426zm-21.184 0h-5.6426v1.4924h5.6426zm21.184 2.758h-5.6425v1.6836h5.6426zm-21.184 0h-5.6426v1.6836h5.6426zm21.184 2.9492h-5.6425v1.6836h5.6426zm-21.184 0h-5.6426v1.6836h5.6426zm21.184 2.9492h-5.6425v1.6836h5.6426zm-21.184 0h-5.6426v1.6836h5.6426zm21.184 2.9471h-5.6425v1.6857h5.6426zm-21.184 0h-5.6426v1.6857h5.6426zm21.184 2.9497h-5.6425v1.6852h5.6426zm-21.184 0h-5.6426v1.6852h5.6426zm21.184 2.9492h-5.6425v1.6836h5.6426zm-21.184 0h-5.6426v1.6836h5.6426zm21.184 2.9492h-5.6425v1.6836h5.6426zm-21.184 0h-5.6426v1.6836h5.6426zm21.184 2.9492h-5.6425v1.7575h5.6426zm-21.184 0h-5.6426v1.7575h5.6426z"/>
</g>
</svg>
