<svg id="a" width="10mm" height="10mm" version="1.1" viewBox="0 0 53.71 53.71" xmlns="http://www.w3.org/2000/svg">
<g id="b" transform="translate(-6.35 -97.631)">
<path id="c" d="m22.026 111.24v2.666h3.5579v2.9843h-16.167l-0.02532 1.3084c-0.0495 2.5716 0.11964 4.6881-1.5079 8.9865l-0.68316 1.8045h52.011l-0.68368-1.8045c-1.6276-4.2984-1.4579-6.4149-1.5074-8.9865l-0.0253-1.3084h-16.167v-2.9843h3.5574v-2.666zm6.2218 2.666h9.9141v2.9843h-9.9141zm-16.255 5.6503h42.426c0.0299 1.7708 0.31895 3.9562 1.1545 6.7676h-44.734c0.83551-2.8113 1.124-4.9967 1.1539-6.7676zm32.182 12.721c-1.888-0.0378-3.3348 0.84831-4.5511 1.5487-1.2163 0.70042-2.209 1.234-3.3631 1.2325-1.1886-2e-3 -2.4928-0.62202-3.4907-1.2314l-0.98289 2.6128c1.2004 0.67685 2.7526 1.2822 4.47 1.2847 1.9646 3e-3 3.4715-0.88441 4.6969-1.5901 1.2254-0.70567 2.1627-1.2112 3.1662-1.1911 1.0346 0.0207 2.002 0.54409 3.2246 1.2346s2.7094 1.5347 4.6307 1.5291c1.7076-5e-3 3.2008-0.59897 4.3289-1.248l-0.97462-2.5921c-0.89126 0.56647-2.1238 1.1725-3.3621 1.1762-1.1287 3e-3 -2.1087-0.50565-3.3125-1.1854-1.2037-0.6798-2.6234-1.5432-4.4804-1.5803z"/>
</g>
</svg>
