<svg width="10mm" height="10mm" version="1.1" viewBox="0 0 200 200" xmlns="http://www.w3.org/2000/svg">
<g fill="none" stroke="#000" stroke-width="5">
<path d="m99.732 166.49c25.849 0 51.398-5.2883 74.962-15.523 5.4084-16.544 8.1386-33.751 8.1386-51.056 0-17.336-2.74-34.573-8.1224-51.113-23.39-10.069-48.769-15.286-74.442-15.286-25.849 0-51.398 5.2883-74.962 15.523-5.4084 16.544-8.1386 33.751-8.1386 51.056 0 17.336 2.74 34.573 8.1223 51.113 23.39 10.069 48.769 15.286 74.442 15.286z"/>
<path d="m152.11 106.36c-4.6068 0-9.0248-1.83-12.282-5.0875-2.1364-2.1364-3.6785-4.793-5.0868-7.7099-1.8176 4.4164-4.7191 8.1803-8.6855 10.47-5.3742 3.1028-11.996 3.1028-17.37 0-3.9664-2.29-6.8679-6.0539-8.6849-10.473-1.817 4.4187-4.7184 8.1826-8.6849 10.473-5.3742 3.1028-11.996 3.1028-17.37 0-3.9664-2.29-6.8679-6.0539-8.6855-10.47-1.4083 2.9169-2.9505 5.5736-5.0868 7.7099-3.2575 3.2575-7.6755 5.0875-12.282 5.0875"/>
</g>
</svg>
