<svg id="a" width="10mm" height="10mm" version="1.1" viewBox="0 0 53.71 53.71" xmlns="http://www.w3.org/2000/svg">
<g id="b" transform="translate(-45.244 -68.792)">
<path id="c" d="m81.738 99.168-0.63304-1.0961 7.4977-4.3289h-41.962v-1.2661h41.963l-7.4988-4.3284 0.63304-1.0961 9.3979 5.4245h6.4208v1.2661h-6.4234zm-13.167-7.2254c-5.7871 0-10.492-4.7053-10.492-10.492 0-5.7871 4.7048-10.492 10.492-10.492s10.492 4.7048 10.492 10.492-4.7053 10.492-10.492 10.492zm0-1.2656c5.1034 0 9.2268-4.1234 9.2268-9.2268 0-5.1034-4.1234-9.2263-9.2268-9.2263s-9.2263 4.1229-9.2263 9.2263c1e-6 5.1034 4.1229 9.2268 9.2263 9.2268zm0-6.0999c-1.7194 0-3.1269-1.4076-3.1269-3.1269-1e-6 -1.7194 1.4076-3.1269 3.1269-3.1269s3.1269 1.4076 3.1269 3.1269c-1e-6 1.7194-1.4076 3.1269-3.1269 3.1269zm0-1.2656c1.0357 0 1.8614-0.82566 1.8614-1.8614 0-1.0357-0.82566-1.8614-1.8614-1.8614-1.0357 0-1.8614 0.82566-1.8614 1.8614 0 1.0357 0.82566 1.8614 1.8614 1.8614z"/>
</g>
</svg>
