<svg id="a" width="10mm" height="10mm" version="1.1" viewBox="0 0 53.71 53.71" xmlns="http://www.w3.org/2000/svg">
<g id="b" transform="translate(-46.831 -107.16)">
<path id="c" d="m51.218 119.39v29.236h5.9097v-3.5641h3.0608v3.5641h8.0274v-3.5641h8.5664v3.5641h10.857v-3.5641h2.9631v3.5641h5.5526v-29.236h-24.83zm1.2635 1.2661h42.41v26.705h-3.0236v-3.5646h-5.4922v3.5646h-8.3282v-3.5646h-11.098v3.5646h-5.4963v-3.5646h-5.5898v3.5646h-3.3827zm26.797 1.7596-17.291 17.425 2.7564-10.236-1.2206-0.32969-2.714 10.078-3.2432-11.556-1.2185 0.34158 4.0406 14.399 11.086-2.7714-0.30644-1.2268-8.1184 2.0293 17.128-17.262z"/>
</g>
</svg>
