<svg id="a" width="10mm" height="10mm" version="1.1" viewBox="0 0 53.71 53.71" xmlns="http://www.w3.org/2000/svg">
<g id="b" transform="translate(-21.431 -61.383)">
<path id="c" d="m24.644 68.613v23.633h31.758v-23.633zm34.042 0v23.635h1.2656v-11.777l6.4394 5.704v-3.2964h5.5371v-4.8989h-5.5371v-3.2949l-6.4394 5.7025v-11.774zm-32.776 1.2635h29.227v21.104h-29.227zm39.216 7.6192v1.7503h5.5387v2.3688h-5.5387v1.7503l-3.3125-2.9357zm-40.481 16.99v1.2656h31.758v-1.2656zm15.879 1.3539-5.7459 6.4859h3.297v5.5392h4.8984v-5.5392h3.297zm0 1.9079 2.9378 3.3145h-1.7518v5.5371h-2.3694v-5.5371h-1.7518z"/>
</g>
</svg>
