<svg id="a" width="10mm" height="10mm" version="1.1" viewBox="0 0 53.71 53.71" xmlns="http://www.w3.org/2000/svg">
<g id="b" transform="translate(-67.998 -92.869)">
<path id="c" d="m109.99 100.24c-5.6053 0-10.163 4.5574-10.163 10.163 0 4.0226 2.3478 7.5048 5.7449 9.1509-1.3468-0.64463-2.8536-1.0066-4.4442-1.0066v5.2e-4c-0.20488 0-0.40783 8e-3 -0.60979 0.0196v-0.0191h-30.572l-0.39222 1.465 25.299 17.068 0.0134 6e-3c1.7396 1.3332 3.9052 2.113 6.2621 2.113 5.6956 0 10.326-4.6309 10.326-10.327 0-4.0875-2.3854-7.626-5.8374-9.2986 1.3254 0.63429 2.8086 0.99012 4.3739 0.99012 5.6053 0 10.162-4.5569 10.162-10.162s-4.5569-10.163-10.162-10.163zm-38.476 19.571h24.667c-3.2033 1.755-5.38 5.1583-5.38 9.0625 0 1.7015 0.41572 3.3064 1.1472 4.7227zm29.614 0c5.0119 0 9.0625 4.0506 9.0625 9.0625s-4.0506 9.0604-9.0625 9.0604c-5.0119 0-9.0604-4.0485-9.0604-9.0604s4.0485-9.0625 9.0604-9.0625zm-4.3072 6.4451c-1.4377 0-2.6169 1.1792-2.6169 2.6169 0 1.4377 1.1792 2.6169 2.6169 2.6169 1.4377 0 2.6174-1.1792 2.6174-2.6169 0-1.4377-1.1797-2.6169-2.6174-2.6169zm8.6176 0c-1.4377 0-2.6174 1.1792-2.6174 2.6169 0 1.4377 1.1797 2.6169 2.6174 2.6169 1.4377 0 2.6148-1.1792 2.6148-2.6169 0-1.4377-1.1771-2.6169-2.6148-2.6169z"/>
</g>
</svg>
