<svg id="a" width="10mm" height="10mm" version="1.1" viewBox="0 0 53.71 53.71" xmlns="http://www.w3.org/2000/svg">
<g id="b" transform="translate(-61.912 -77.258)">
<path id="c" d="m81.788 81.804-2.4846 0.96687c5.9042 15.198 0.41845 32.436-13.182 41.43l1.4707 2.2231c5.8457-3.8655 10.295-9.156 13.132-15.156 0.26302 8.2404 7.0339 14.853 15.338 14.853 8.47 0 15.352-6.8794 15.352-15.349s-6.8815-15.35-15.352-15.35c-5.0193 0-9.4797 2.4167-12.281 6.1479 1.1067-6.4789 0.52041-13.297-1.9926-19.766zm14.274 14.882c7.7864 0 14.086 6.2996 14.086 14.086 0 7.7864-6.2996 14.084-14.086 14.084-7.7864 0-14.084-6.2975-14.084-14.084 0-7.7864 6.2975-14.086 14.084-14.086zm-6.5924 10.124c-2.1801 0-3.961 1.7809-3.961 3.961s1.7809 3.9605 3.961 3.9605 3.961-1.7804 3.961-3.9605-1.7809-3.961-3.961-3.961zm13.186 0c-2.1801 0-3.961 1.7809-3.961 3.961s1.7809 3.9605 3.961 3.9605c2.1801 0 3.961-1.7804 3.961-3.9605s-1.7809-3.961-3.961-3.961z"/>
</g>
</svg>
