<svg id="a" width="10mm" height="10mm" version="1.1" viewBox="0 0 53.71 53.71" xmlns="http://www.w3.org/2000/svg">
<g id="b" transform="translate(-51.858 -75.406)">
<path id="c" d="m78.713 81.883c-11.247 0-20.377 9.1322-20.377 20.379 0 0.66131 0.03441 1.3143 0.09612 1.9596 0.029 0.30324 0.06584 0.60408 0.108 0.90331 0.0032 0.0226 0.0055 0.0456 0.0088 0.0682 0.04009 0.27772 0.08782 0.55283 0.13901 0.82682 0.0088 0.0473 0.01617 0.095 0.02532 0.14211 0.04832 0.2488 0.10342 0.49504 0.16071 0.74053 0.01751 0.0751 0.03385 0.15055 0.05219 0.2253 0.05638 0.2297 0.11832 0.45712 0.18242 0.68368 0.02399 0.0848 0.04729 0.16987 0.07235 0.25425 0.06567 0.22104 0.13587 0.44001 0.20877 0.65784 0.02859 0.0855 0.05713 0.17086 0.08682 0.2558 0.07511 0.21484 0.15361 0.42775 0.23564 0.63924 0.03337 0.0861 0.0673 0.17185 0.1018 0.25735 0.08544 0.21164 0.17386 0.42136 0.26613 0.62942 0.03536 0.0798 0.07165 0.159 0.108 0.23822 0.09411 0.20501 0.19081 0.4085 0.29146 0.60979 0.04324 0.0865 0.08787 0.17207 0.13229 0.25786 0.09922 0.19155 0.20035 0.38205 0.30541 0.56999 0.05063 0.0906 0.10306 0.18001 0.15503 0.26975 0.1072 0.18508 0.21586 0.36902 0.32866 0.55036 0.04963 0.0798 0.10123 0.15811 0.15193 0.23719 0.12094 0.18857 0.24258 0.37643 0.36949 0.56069 0.04452 0.0647 0.09118 0.12761 0.13643 0.19172 0.13525 0.1916 0.27128 0.3823 0.4129 0.56896 0.04384 0.0578 0.08992 0.11373 0.13436 0.17105 0.15007 0.1935 0.30106 0.38625 0.45785 0.57412 0.0104 0.0125 0.0216 0.0242 0.03204 0.0367 0.56984 0.6795 1.1825 1.3215 1.835 1.9213 0.01489 0.0137 0.02899 0.0282 0.04393 0.0419 0.14894 0.13611 0.30285 0.26673 0.45579 0.39843 0.08751 0.0754 0.1732 0.15294 0.262 0.22686 0.13762 0.11451 0.27948 0.22393 0.42013 0.33486 0.1095 0.0864 0.21737 0.17472 0.32866 0.2589 0.13492 0.10201 0.27332 0.19947 0.41083 0.29817 0.12024 0.0863 0.23956 0.17359 0.36174 0.25735 0.13799 0.0946 0.2787 0.18523 0.4191 0.27647 0.12681 0.0824 0.25315 0.16528 0.38189 0.24495 0.13874 0.0858 0.27973 0.16805 0.42065 0.25063 0.13475 0.079 0.26947 0.15814 0.40618 0.23409 0.14 0.0778 0.28175 0.15233 0.42374 0.22686 0.14272 0.0749 0.28579 0.14904 0.43047 0.22066 0.14077 0.0697 0.28271 0.13712 0.4253 0.2036 0.1493 0.0696 0.29937 0.13751 0.45061 0.20361 0.14165 0.0619 0.28407 0.12213 0.42737 0.18087 0.15326 0.0628 0.3074 0.12375 0.4625 0.18293 0.14915 0.0569 0.29879 0.11242 0.44959 0.16588 0.15599 0.0553 0.31306 0.10808 0.47077 0.15968 0.14562 0.0476 0.29118 0.0951 0.43822 0.13953 0.16871 0.051 0.339 0.098 0.50952 0.14469 0.14438 0.0395 0.28846 0.0794 0.43409 0.11576 0.17588 0.044 0.35357 0.0831 0.53123 0.12247 0.14225 0.0315 0.28402 0.0645 0.42736 0.093 0.18822 0.0374 0.3784 0.0691 0.56845 0.10128 0.13316 0.0226 0.26543 0.0477 0.39945 0.0677 0.20347 0.0303 0.40906 0.0538 0.61444 0.078 0.12859 0.0152 0.25619 0.0332 0.3855 0.046 0.22357 0.0221 0.44927 0.0364 0.6749 0.0512 0.10955 7e-3 0.21813 0.0178 0.32814 0.0233 0.33792 0.0167 0.67755 0.0264 1.0196 0.0264s0.68166-0.01 1.0196-0.0264c0.10816-5e-3 0.21476-0.0157 0.32247-0.0227 0.22816-0.0149 0.45658-0.0299 0.68264-0.0522 0.12528-0.0124 0.24901-0.0298 0.37362-0.0444 0.20881-0.0246 0.41742-0.0488 0.62425-0.0796 0.134-0.02 0.26633-0.0446 0.39946-0.0672 0.19005-0.0322 0.38021-0.0638 0.56844-0.10128 0.14254-0.0283 0.28333-0.0612 0.42478-0.0925 0.17956-0.0397 0.35917-0.079 0.53692-0.12351 0.14268-0.0357 0.28383-0.075 0.4253-0.11369 0.17266-0.0472 0.34492-0.0952 0.51573-0.14676 0.14681-0.0444 0.2923-0.0915 0.4377-0.13901 0.15821-0.0518 0.31584-0.10469 0.47232-0.1602 0.14853-0.0527 0.29594-0.1073 0.44287-0.16329 0.15943-0.0608 0.31793-0.12346 0.47542-0.1881 0.13807-0.0567 0.27533-0.11458 0.41186-0.17415 0.1553-0.0678 0.30925-0.13778 0.46251-0.20929 0.14279-0.0666 0.28483-0.13432 0.42581-0.20413 0.14185-0.0702 0.28224-0.14256 0.4222-0.216 0.14154-0.0743 0.28263-0.14889 0.42219-0.22635 0.1433-0.0796 0.28466-0.16206 0.42582-0.24494 0.13411-0.0787 0.26835-0.15707 0.40049-0.23875 0.13313-0.0823 0.26373-0.16794 0.39481-0.25321 0.13805-0.0898 0.27666-0.17881 0.41238-0.27182 0.12088-0.0829 0.23912-0.16937 0.35811-0.25476 0.13954-0.10011 0.27964-0.19932 0.41651-0.30283 0.10749-0.0813 0.212-0.16622 0.31782-0.2496 0.14427-0.11364 0.28936-0.22622 0.43046-0.34364 0.0937-0.078 0.18418-0.15961 0.27647-0.23927 0.14551-0.12555 0.2922-0.24975 0.43408-0.3793 0.0694-0.0634 0.13562-0.12998 0.20412-0.1943 0.38159-0.35814 0.75171-0.72787 1.1048-1.1142 0.17436-0.19073 0.34293-0.38667 0.51004-0.58394 0.0343-0.0405 0.0704-0.0796 0.10439-0.12041 0.14275-0.1712 0.27985-0.34709 0.41703-0.52296 0.0582-0.0747 0.11848-0.14772 0.1757-0.22325 0.12838-0.16939 0.2515-0.34277 0.37465-0.51624 0.0585-0.0824 0.11842-0.16371 0.1757-0.24702 0.12109-0.17603 0.23731-0.35541 0.35295-0.53536 0.0545-0.0849 0.11-0.16903 0.1633-0.25477 0.11386-0.18312 0.22308-0.36911 0.33124-0.55604 0.0491-0.0848 0.0989-0.16915 0.14677-0.25476 0.10506-0.18779 0.20617-0.3781 0.3054-0.56948 0.0468-0.0903 0.0935-0.18069 0.13901-0.27181 0.0976-0.19542 0.19172-0.39278 0.28319-0.5917 0.0396-0.0861 0.0789-0.17219 0.1173-0.2589 0.0891-0.20128 0.1746-0.40411 0.25735-0.60875 0.0377-0.0932 0.0748-0.18672 0.11111-0.2806 0.0795-0.2054 0.15594-0.41209 0.22892-0.62063 0.0307-0.0877 0.0599-0.17587 0.0894-0.26407 0.0732-0.2187 0.14393-0.4385 0.20981-0.66043 0.0237-0.0799 0.046-0.16046 0.0687-0.24081 0.065-0.22943 0.12738-0.45983 0.18449-0.69246 0.019-0.0775 0.0361-0.15573 0.0543-0.23358 0.0557-0.23919 0.10886-0.47907 0.15606-0.7214 0.0125-0.064 0.0228-0.1286 0.0346-0.19276 0.0477-0.25805 0.0929-0.51689 0.13074-0.77824 6e-3 -0.0403 0.01-0.0811 0.0155-0.12144 0.0395-0.28468 0.0753-0.57057 0.10284-0.85886 0.0617-0.64508 0.0961-1.2979 0.0961-1.9591 0-11.247-9.1317-20.379-20.379-20.379zm0 1.2661c10.563 0 19.113 8.5498 19.113 19.113 0 0.75112-0.0482 1.4906-0.13229 2.219-0.0492 2e-3 -0.0978 7e-3 -0.14728 7e-3 -1.5676 0-3.0052-0.88745-4.2308-2.3322-0.74418-0.8773-1.4262-1.9722-2.0469-3.2489-0.62073 1.2767-1.3027 2.3716-2.0469 3.2489-1.2255 1.4447-2.6626 2.3322-4.2302 2.3322-1.5676 0-3.0052-0.88745-4.2308-2.3322-0.74447-0.87763-1.4265-1.9731-2.0474-3.2504-0.62095 1.2775-1.3034 2.3728-2.0479 3.2504-1.2255 1.4447-2.661 2.3322-4.2287 2.3322-1.5676 0-3.0047-0.88745-4.2302-2.3322-0.74452-0.87768-1.4275-1.973-2.0485-3.2504-0.62092 1.2774-1.303 2.3728-2.0474 3.2504-1.2255 1.4447-2.6631 2.3322-4.2307 2.3322-0.04983 0-0.09878-5e-3 -0.14831-7e-3 -0.08411-0.72841-0.13229-1.4679-0.13229-2.219 0-10.563 8.5503-19.113 19.114-19.113z"/>
</g>
</svg>
