<svg id="a" width="10mm" height="10mm" version="1.1" viewBox="0 0 53.71 53.71" xmlns="http://www.w3.org/2000/svg">
<g id="b" transform="translate(-51.065 -121.71)">
<path id="c" d="m55.623 134.73v27.672h44.594v-27.672zm2.5027 1.2656h39.588v25.141h-39.588zm19.794 2.0743c-1.1728 0-2.1234 0.91816-2.1234 2.0505 0.37372 4.4022 1.1632 13.203 1.1632 13.203 0.0946 0.42813 0.48846 0.74995 0.96015 0.74983 0.4715-1.2e-4 0.86559-0.32183 0.96015-0.74983 0 0 1.1632-12.669 1.1632-13.203 0-1.1324-0.95056-2.0505-2.1234-2.0505zm0 18.098a1.4469 1.4469 0 0 0-1.4469 1.4469 1.4469 1.4469 0 0 0 1.4469 1.4469 1.4469 1.4469 0 0 0 1.4469-1.4469 1.4469 1.4469 0 0 0-1.4469-1.4469z" fill="#000"/>
</g>
</svg>
