<svg id="a" width="10mm" height="10mm" version="1.1" viewBox="0 0 53.71 53.71" xmlns="http://www.w3.org/2000/svg">
<g id="b" transform="translate(-50.535 -82.815)">
<path id="c" d="m88.677 85.968-0.63097 1.0955 5.1335 2.9652h-31.938v1.2635h31.947l-5.1356 2.9647 0.63356 1.0961 8.1225-4.6896zm-30.265 4.2649-4.6896 8.123 1.0961 0.63303 2.9647-5.1351v31.947h1.2635v-31.938l2.9652 5.1335 1.0955-0.63096zm37.323 3.2194v31.947l-2.9647-5.1351-1.0961 0.63303 4.6896 8.123 4.6953-8.1328-1.0955-0.63096-2.9652 5.1335v-31.938zm-33.215 6.3841v19.668h29.742v-19.668zm1.2656 1.2655h27.211v17.136h-27.211zm2.3575 2.2324v12.672h22.494v-12.672zm1.2656 1.2656h5.8425v10.14h-5.8425zm7.1081 0h5.7485v10.14h-5.7485zm7.0141 0h5.8425v10.14h-5.8425zm-12.743 4.4385v1.2635h3.0706v-1.2635zm7.0688 0v1.2635h3.0701v-1.2635zm7.0683 0v1.2635h3.0701v-1.2635zm-16.819 14.949-8.1328 4.6953 8.123 4.6896 0.63304-1.096-5.1351-2.9647h31.947v-1.2635h-31.938l5.1335-2.9652z"/>
</g>
</svg>
