<svg id="a" width="10mm" height="10mm" version="1.1" viewBox="0 0 53.71 53.71" xmlns="http://www.w3.org/2000/svg">
<g id="b" transform="translate(-70.379 -91.546)">
<path id="c" d="m86.635 106.92v22.961h34.868v-22.961zm1.2661 1.2656h32.335v20.43h-32.335zm-14.936 1.8655 3.3398 8.3494-3.3398 8.3478h10.617v-1.2635h-8.7478l2.8339-7.0843-2.8339-7.0838h8.7478v-1.2656zm16.746 0.20877v16.281h28.715v-16.281zm1.2656 1.2656h7.7876v13.75h-7.7876zm9.0527 0h8.0781v13.75h-8.0781zm9.3436 0h7.7892v13.75h-7.7892zm3.9507 2.218c-0.27273-7e-3 -0.5491 0.0415-0.81339 0.14934-0.84575 0.34521-1.3627 1.2163-1.2661 2.127l0.99425-0.10542c-0.0504-0.47534 0.21563-0.91885 0.64854-1.0955 0.43292-0.17671 0.92217-0.0458 1.2108 0.3297 0.28861 0.37544 0.29449 0.89815 0.016 1.2816-0.27847 0.38342-0.84008 0.57076-1.3539 0.55243v8e-3c-0.0132 4e-4 -0.0256-8e-3 -0.0388-8e-3l4e-3 0.99993c0.012 4.3e-4 0.0251-6e-3 0.0372-6e-3v6e-3c0.81109-0.033 1.6495 0.30954 2.0645 0.97462 0.41493 0.66508 0.35152 1.5248-0.154 2.1213s-1.3258 0.78649-2.0371 0.47646c-0.71125-0.31002-1.14-1.0506-1.0568-1.834l-0.99425-0.10542c-0.12861 1.2108 0.54018 2.373 1.6521 2.8577s2.4136 0.17888 3.1993-0.74828c0.78572-0.92717 0.88194-2.2652 0.23823-3.297-0.30163-0.48347-0.73823-0.81776-1.2165-1.0568 0.15542-0.12114 0.34296-0.18317 0.46663-0.35346 0.53762-0.74023 0.52445-1.7532-0.0331-2.4784-0.27876-0.36265-0.66439-0.61019-1.0842-0.7245-0.15742-0.0429-0.31954-0.0671-0.48317-0.0713zm-9.4707 0.2868c-0.23294 9e-3 -0.4673 0.0484-0.69815 0.12041-1.2312 0.38387-2.0227 1.5909-1.8852 2.8732l0.99426-0.10749c-0.0873-0.8137 0.40831-1.5671 1.1896-1.8107 0.78127-0.24359 1.617 0.0953 2.0076 0.81442 0.39062 0.71912 0.22189 1.6025-0.4098 2.1151l-8e-3 6e-3 -3.9377 3.453v1.2051h5.3108v-0.99994h-4.0276l3.3068-2.9001-0.0155 0.0114c1.0031-0.81403 1.2755-2.236 0.6599-3.3693-0.50015-0.92077-1.4778-1.4507-2.4872-1.4113zm-10.362 0.1478v0.99993h1.6268v7.5215h0.99994v-8.5214z"/>
</g>
</svg>
