<svg id="a" width="10mm" height="10mm" version="1.1" viewBox="0 0 53.71 53.71" xmlns="http://www.w3.org/2000/svg">
<g id="b" transform="translate(-25.4,-92.075)">
<path id="c" d="m32.934 98.37-0.89452 0.89452 9.6165 9.6165v20.097l-9.6165 9.6165 0.89452 0.89452 9.0196-9.0196h21.291l9.0196 9.0196 0.89452-0.89452-8.1251-8.1251h11.49v-22.961h-11.609l8.2445-8.2444-0.89452-0.89452-9.139 9.139h-21.052zm10.404 10.405h18.522l-2.0743 2.0743h-14.373zm20.311 0h11.609v20.43h-11.489l-2.0738-2.0743h11.753v-16.281h-11.873zm-20.727 1.372 1.8102 1.8102v13.945l-1.8102 1.8102zm-14.936 0.4935 3.3398 8.3494-3.3398 8.3478h10.617v-1.2635h-8.7478l2.8339-7.0843-2.8339-7.0838h8.7478v-1.2656zm18.691 1.4743h7.1076v4.7346l-1.1865 1.1865-1.4604-1.4604v-1.8082h-1.8082zm8.3726 0h3.4696l-3.4696 3.4696zm5.2586 0h2.8195v13.75h-2.6996l-2.5761-2.5761h3.5848v-0.99994h-4.0277l3.3068-2.9001-0.0155 0.0114c1.0031-0.81403 1.2755-2.236 0.65991-3.3693-0.50015-0.92077-1.4778-1.4507-2.4872-1.4113-0.23294 9e-3 -0.4673 0.0484-0.69815 0.12041-1.2312 0.38387-2.0227 1.5909-1.8852 2.8732l0.99426-0.10749c-0.0873-0.8137 0.40831-1.5671 1.1896-1.8107 0.78128-0.24359 1.617 0.0953 2.0076 0.81442 0.39062 0.71912 0.22189 1.6025-0.4098 2.1151l-8e-3 6e-3 -3.6602 3.2096-1.3539-1.3539v-3.1128zm4.085 0h7.7892v13.75h-7.7892zm-18.396 1.1079 2.5141 2.5141v0.0305h0.0305l1.5963 1.5963v3.1326l-4.1408 4.1408zm22.347 1.11c-0.27273-7e-3 -0.5491 0.0415-0.81339 0.14934-0.84575 0.34521-1.3627 1.2163-1.2661 2.127l0.99425-0.10542c-0.0504-0.47534 0.21563-0.91885 0.64854-1.0955 0.43292-0.17671 0.92217-0.0458 1.2108 0.32969 0.28861 0.37544 0.29451 0.89816 0.016 1.2816-0.27847 0.38342-0.84008 0.57075-1.3539 0.55242v8e-3c-0.0132 4e-4 -0.0256-8e-3 -0.0388-8e-3l4e-3 0.99994c0.012 4.3e-4 0.0251-6e-3 0.0372-6e-3v6e-3c0.81109-0.033 1.6495 0.30953 2.0645 0.97461 0.41493 0.66508 0.35153 1.5248-0.15399 2.1213-0.50552 0.59653-1.3258 0.78649-2.0371 0.47646-0.71125-0.31002-1.14-1.0506-1.0568-1.834l-0.99426-0.10542c-0.12861 1.2108 0.54019 2.373 1.6521 2.8577s2.4136 0.17888 3.1993-0.74828c0.78572-0.92717 0.88194-2.2652 0.23823-3.297-0.30163-0.48347-0.73824-0.81776-1.2165-1.0568 0.15542-0.12115 0.34297-0.18318 0.46664-0.35347 0.53762-0.74023 0.52448-1.7531-0.0331-2.4784-0.27876-0.36265-0.66439-0.6102-1.0842-0.72451-0.15742-0.0429-0.31955-0.0671-0.48318-0.0713zm-17.206 4.0308 0.56637 0.56637-0.56637 0.56638zm2.6469 0.27492v0.58291l-0.29146-0.29146zm-1.1865 1.1865 1.1865 1.1865v4.8534h-7.2264l3.5796-3.5796v1.0036h0.99994v-2.0035zm2.4515 2.4515 3.5884 3.5884h-3.5884zm-9.757 4.854h14.611l2.0743 2.0743h-18.76z"/>
</g>
</svg>
