<svg id="a" width="10mm" height="10mm" version="1.1" viewBox="0 0 53.71 53.71" xmlns="http://www.w3.org/2000/svg">
<g id="b" transform="translate(-24.742 -153.11)">
<path id="c" d="m51.458 165.39c-1.5387 0-3.0218 0.23935-4.4152 0.68161l0.38292 1.203c1.2719-0.40196 2.6263-0.61909 4.0323-0.61909 0.7111 0 1.409 0.056 2.0898 0.16278l0.17983-1.2521c-0.73977-0.11571-1.4977-0.17622-2.2696-0.17622zm7.9701 2.3694-0.66301 1.0702c1.7664 1.1573 3.2408 2.7223 4.2897 4.5625l1.0754-0.65732c-1.1532-2.0064-2.7696-3.7131-4.702-4.9754zm-17.717 1.3653c-1.7025 1.5279-3.0448 3.4488-3.883 5.6198l1.1679 0.47904c0.76191-1.9923 1.987-3.7538 3.5445-5.1537zm-13.77 1.2955-0.89504 0.89504 4.3625 4.3625 4.363-4.3625-0.89504-0.89504-3.468 3.468zm41 1.7704-0.63304 1.0955 4.3811 2.529h-21.551v0.0186c-2.0992 0.19644-3.7538 1.9735-3.7538 4.1222 0 2.2792 1.8617 4.1403 4.1408 4.1403 2.2792 0 4.1403-1.8611 4.1403-4.1403 0-1.1156-0.44624-2.1312-1.1689-2.8773h17.867l-4.1646 2.405 0.63304 1.0955 7.3184-4.2266zm-41.047 3.6174v1.2656h7.0275v-1.2656zm23.631 1.2707c1.5955 0 2.8748 1.2818 2.8748 2.8773 0 1.5955-1.2792 2.8748-2.8748 2.8748-1.5955 0-2.8753-1.2792-2.8753-2.8748 0-1.5955 1.2797-2.8773 2.8753-2.8773zm14.453 1.34-1.2537 0.1726c0.04812 0.46141 0.07338 0.92976 0.07338 1.404 0 1.7141-0.32232 3.3518-0.9095 4.8566l1.1865 0.42995c0.63805-1.6398 0.98857-3.4226 0.98857-5.2865 0-0.53278-0.0295-1.0585-0.08527-1.5766zm-27.841 2.2846-1.2661 0.0289c0.12016 2.4111 0.82746 4.6688 1.9802 6.6342l1.1054-0.60409c-1.0556-1.7928-1.7046-3.8544-1.8195-6.0591zm-10.243 2.035v1.2656h7.0275v-1.2656zm3.514 1.3958-4.3625 4.3625 0.89504 0.89503 3.4675-3.468 3.468 3.468 0.89504-0.89503zm29.588 5.193c-1.5243 1.5584-3.4275 2.7443-5.5625 3.4086l0.37414 1.2046c2.34-0.73045 4.4278-2.0346 6.0994-3.747zm-17.414 1.4402-0.76946 0.99477c2.0593 1.5166 4.5297 2.5062 7.212 2.7683l0.14004-1.2557c-2.4491-0.23512-4.7029-1.1311-6.5825-2.5073z" color="#000000" fill="#000" stroke-dashoffset="9.0352" style="paint-order:markers stroke fill"/>
</g>
</svg>
