<svg id="a" width="10mm" height="10mm" version="1.1" viewBox="0 0 53.71 53.71" xmlns="http://www.w3.org/2000/svg">
<g id="b" transform="translate(-89.811 -43.695)">
<path id="c" d="m96.062 51.714v13.465h3.4861v-5.1289h4.8488v-2.8841h-4.8488v-2.5678h5.1392v-2.8841zm38.522 0.0377a0.8825 0.8825 0 0 0-0.62477 0.25787l-35.834 35.834a0.8825 0.8825 0 0 0 0 1.248 0.8825 0.8825 0 0 0 1.248 0l35.834-35.834a0.8825 0.8825 0 0 0 0-1.248 0.8825 0.8825 0 0 0-0.62321-0.25787zm-21.826 3.4773c-0.96171-8e-3 -2.096 0.25668-3.3538 0.80615v-0.54054h-2.9482v9.6842h3.529v-6.2446c0.87713-1.2832 2.7616-0.85984 2.7616 0.49351v5.7511h3.3564v-6.2244c0-2.4229-1.274-3.7066-3.345-3.7254zm4.4716 20.694v13.465h3.4861v-5.1289h4.8488v-2.8841h-4.8488v-2.5678h5.1392v-2.8841zm16.696 3.515c-0.9617-8e-3 -2.096 0.25669-3.3538 0.80615v-0.54054h-2.9481v9.6842h3.529v-6.2446c0.87713-1.2832 2.7616-0.85985 2.7616 0.49351v5.7511h3.3564v-6.2244c0-2.4229-1.274-3.7066-3.345-3.7254z" fill="#001600"/>
</g>
</svg>
