<svg id="a" width="10mm" height="10mm" version="1.1" viewBox="0 0 53.71 53.71" xmlns="http://www.w3.org/2000/svg">
<g id="b" transform="translate(-69.506 -91.876)">
<path id="c" d="m78.689 102.94c-2.5597 0-4.6622 2.1025-4.6622 4.6622v17.83c0 2.1953 1.5469 4.0528 3.6018 4.5377v-2.8344c-0.5684-0.34595-0.93793-0.96812-0.93793-1.7033v-17.83c0-1.1294 0.8689-1.9978 1.9983-1.9978h35.346c1.1294 0 1.9978 0.86838 1.9978 1.9978v17.83c0 0.73514-0.36902 1.3573-0.93741 1.7033v2.8344c2.0549-0.48486 3.6018-2.3424 3.6018-4.5377v-17.83c0-2.5597-2.1025-4.6622-4.6622-4.6622zm17.673 4.6979-5.5821 6.1965h2.7631v11.316h5.6369v-11.316h2.7642zm-16.368 8.2098v2.0665h11.055v-2.0665zm21.681 0v2.0665h11.055v-2.0665zm-21.681 4.1522v2.0665h11.055v-2.0665zm21.681 0v2.0665h11.055v-2.0665zm-21.681 4.1522v2.0666h11.055v-2.0666zm21.681 0v2.0666h11.055v-2.0666zm-21.681 4.1522v2.0665h32.736v-2.0665zm0 4.1522v2.0665h32.736v-2.0665z" color="#000000" fill="#000" style="paint-order:markers stroke fill"/>
</g>
</svg>
