<svg id="a" width="10mm" height="10mm" version="1.1" viewBox="0 0 53.71 53.71" xmlns="http://www.w3.org/2000/svg">
<g id="b" transform="translate(-8.6664 -88.261)">
<path id="c" d="m23.252 96.101c-1.0041 0-2.0086 0.38127-2.7709 1.1436-1.5247 1.5247-1.5241 4.0161 5.17e-4 5.5407 0.89706 0.89706 2.1285 1.2659 3.3011 1.1074l9.8873 9.8872-4.6927 3e-3 -0.55656-2.5011-7.0838 0.34363-6.4316-1.1855 7.705 11.295 7.7168-1.8867-0.7674-3.4473h6.7314l12.056 12.056c-0.15845 1.1726 0.21036 2.404 1.1074 3.3011 1.5247 1.5247 4.0161 1.5247 5.5407 0 1.5247-1.5247 1.5247-4.0161 0-5.5408-0.89716-0.89715-2.1293-1.2661-3.3021-1.1074l-8.709-8.709h12.261c0.34897 0 0.64854-0.30112 0.64854-0.65009v-1.3203c0-0.34897-0.29957-0.65061-0.64854-0.65061h-14.882l-13.233-13.233c0.15868-1.1728-0.21026-2.405-1.1074-3.3021-0.76233-0.76234-1.7663-1.1436-2.7704-1.1436zm3.436 5.794 11.885 11.885h-3.113l-10.329-10.329c0.32-0.17438 0.62083-0.39552 0.8909-0.66559s0.49119-0.57089 0.66559-0.8909zm-9.0268 10.34 3.59 0.66249 6.166-0.30076 1.4061 6.318-5.6622 1.3829zm20.42 4.1662h3.113l9.1509 9.1509c-0.32001 0.17439-0.62083 0.39551-0.8909 0.66559-0.27007 0.27007-0.49121 0.57092-0.66559 0.89091zm-10.096 7.1954-0.63097 1.0955 6.1283 3.5393h-14.605v1.2656h14.625l-6.1288 3.5388 0.63252 1.0961 9.1131-5.2617z" color="#000000" fill="#000" stroke-dashoffset="2.3906" style="paint-order:markers stroke fill"/>
</g>
</svg>
