<svg width="10mm" height="10mm" version="1.1" viewBox="0 0 200 200" xmlns="http://www.w3.org/2000/svg">
<path d="m87.893 14.652c-0.72042 4.2442-0.96922 8.5631-0.79688 12.863 0.1149 4.5729 0.86264 9.0986 1.0879 13.662 0.24756 4.6969-1.6462 9.5773-5.4414 12.469-0.51761-2.2587-1.5658-4.3931-3.0313-6.1875-4.4467-5.4953-12.561-7.2187-19.039-4.6387 4.5423 0.26627 8.6642 3.2272 10.687 7.2519 2.3587 4.4352 1.9943 9.6816 1.1738 14.471-1.6541 8.8942-2.9089 17.885-3.1387 26.939-1.5017-0.23395-2.9622-0.72359-4.3047-1.4355-4.9067-2.5221-7.8813-8.2325-7.1504-13.699-1.2772 1.9696-2.0793 4.243-2.332 6.5762-0.57343 5.4158 2.0234 10.419 3.3457 15.527 1.3999 4.703 1.2658 9.7564-0.03137 14.465-0.56449 1.68-0.41651 3.6236-1.4883 5.1055-1.5335 1.7028-4.2271 1.6768-6.2207 0.89257 0.81365-1.9231 0.34549-4.1884-0.89844-5.8184-2.2063-2.8127-4.7844-5.311-7.3008-7.8438 0.82261 2.8787 1.6056 5.7684 2.3359 8.6719 1.419 5.2701 2.0548 10.705 2.3867 16.141 0.52431 8.1251 1.2715 16.37 4.1484 24.055 3.5478 9.8647 10.154 18.774 19.141 24.305 6.9151 4.3572 15.114 6.0988 23.176 6.6387 9.1361 0.54481 18.454 0.49976 27.363-1.832 8.074-2.0564 15.444-6.5709 21.09-12.68 11.377-12.146 16.226-29.725 13.66-46.066-1.4641 4.1621-4.9986 7.5198-9.248 8.7246 0.58394-2.8772 0.44527-5.8354 0.0665-8.7285-0.38343-2.4589 0.71641-4.7348 1.5254-6.9785 2.6011-7.3106 3.0924-15.403 1.0332-22.91-1.7722-6.4905-4.7623-12.55-7.2598-18.775-0.47244-1.3567-0.1818 0.0265-0.10356 0.69336 0.50317 4.2944 1.0599 8.6344 0.72654 12.963-0.36624 5.1181-3.8937 9.733-8.6016 11.68 0.47607-5.5906 0.28309-11.233-0.51367-16.785-1.0567-6.989-2.651-13.935-5.209-20.537-2.5912-6.7124-6.729-12.897-12.354-17.437 3.0749 4.3733 3.4823 10.697 0.31445 15.137-1.0226-2.584-2.0939-5.1511-3.2559-7.6758-1.4834-3.3961-3.6103-6.4518-6.0078-9.2617-2.1818-2.4992-3.6881-5.4633-5.3379-8.3144-1.3037-2.321-3.3115-4.1415-5.5879-5.4805-2.5398-1.5478-5.259-3.2846-6.375-6.1953-1.2585-3.1758-1.6418-6.6065-2.2344-9.9492zm-11.299 88.924h12.086l10.272 16.453 10.061-16.453h11.98l-15.93 24.873 17.502 26.338h-12.471l-11.354-17.711-11.387 17.711h-12.402l17.502-26.723z"/>
</svg>
