<svg width="10mm" height="10mm" version="1.1" viewBox="0 0 200 200" xmlns="http://www.w3.org/2000/svg">
<path d="m100 2.3594-55.424 61.555a74.606 74.606 0 0 0-19.182 49.941 74.606 74.606 0 0 0 74.605 74.607 74.606 74.606 0 0 0 74.605-74.607 74.606 74.606 0 0 0-19.164-49.922l-55.441-61.574zm-1.8965 48.424c0.63169-0.005061 1.2644 0.00498 1.8965 0.03125 10.113-0.42032 20.258 3.1983 27.809 9.9414 3.4071 3.0428 6.3231 6.7315 8.2774 10.971 1.958 4.2473 2.9131 9.0168 2.4316 13.768-0.57765 5.7002-3.2429 11.085-7.3828 15.023 0.23069 0.72338 0.43353 1.4783 0.57812 2.2754 0.28157 1.5524 0.34008 3.2477-0.08789 4.959-0.51407 2.0556-1.6035 3.6968-2.668 5.0703-0.27766 0.35827-0.53795 0.66634-0.80859 0.99609 8.0157-3.5078 10.259-4.4604 11.049-4.7383 0.93784-0.33003 2.0124-0.67956 2.6367-0.87305s0.79985-0.23067 1.0898-0.38672c0.28999-0.15605 0.69476-0.43059 1.0879-0.76758s0.77466-0.73696 1.0586-1.1113c0.28393-0.37437 0.4707-0.72465 0.87696-0.94336 0.40626-0.21876 1.0314-0.30596 1.8555-0.31836 0.82408-0.0124 1.8472 0.05073 2.7148 0.36328 0.86769 0.31251 1.5791 0.87398 2.0156 1.7168 0.43648 0.84279 0.59781 1.9673 0.62891 2.8535s-0.06729 1.5338-0.11719 2.0332c-0.0499 0.49946-0.05011 0.84939 0.02539 1.0488 0.0755 0.19945 0.22427 0.24927 0.54883 0.44922 0.32457 0.19995 0.82398 0.55075 1.248 1.3125 0.42408 0.76174 0.77491 1.935 0.78711 3.0957 0.0122 1.1608-0.31364 2.3098-1.0312 3.2207-0.71762 0.91094-1.8279 1.5849-2.8574 1.8535-1.0295 0.26858-1.9784 0.13075-2.8711-0.28711s-1.7292-1.1176-2.5156-1.6172-1.5241-0.79791-2.4668-0.9043c-0.94271-0.1064-2.09-0.01891-3.0254 0.13672-0.93543 0.15564-1.6582 0.37955-13.703 5.8301-1.256 0.56836-3.4765 1.5895-4.9531 2.2598-0.48999 2.6477-0.98285 5.4566-1.8965 8.2266 1.5076 0.61556 3.8325 1.5654 5.1211 2.0918 13.171 5.3807 13.671 5.6047 14.52 5.6543 0.84878 0.0496 2.0466-0.07432 2.8457-0.13672s1.198-0.06172 1.7598-0.07422 1.286-0.03804 1.9473 0.03906c0.66128 0.0771 1.2611 0.25456 1.75 0.47657s0.86738 0.48791 1.207 0.86328c0.33963 0.37537 0.63962 0.86107 0.73632 1.5098 0.0967 0.64868-0.00776 1.46-0.17578 2.1484-0.16778 0.68839-0.39813 1.2544-0.75976 1.6602-0.36164 0.40572-0.85631 0.65214-1.0859 0.88671-0.2296 0.2346-0.1935 0.4561-0.1582 0.78711s0.06995 0.77162-0.02735 1.4512c-0.0972 0.67956-0.32637 1.5977-0.75 2.3476s-1.0422 1.3334-1.8672 1.7129c-0.82498 0.37954-1.8579 0.55555-2.6875 0.56055-0.82959 5e-3 -1.4558-0.16399-2.0781-0.45508-0.62238-0.29109-1.2406-0.70475-1.7793-1.2695-0.53869-0.56479-0.99681-1.2816-1.332-1.6836-0.33523-0.40199-0.54891-0.49013-0.97265-0.5918-0.42377-0.10167-1.059-0.21476-2.0918-0.60742s-2.4634-1.0641-16.094-6.5117c-0.98131-0.3922-2.716-1.0738-3.8144-1.5117-1.2419 1.162-2.623 2.1752-4.1211 2.9961-3.1799 1.7425-6.802 2.5994-10.426 2.4883-3.6238 0.11111-7.2459-0.74577-10.426-2.4883-1.7265-0.94607-3.2983-2.1465-4.6777-3.5391-1.5685 0.71836-3.8863 1.7705-5.2129 2.3789-12.088 5.5434-12.895 5.952-13.523 6.1543-0.62872 0.20191-1.0769 0.19763-1.3887 0.21093-0.31174 0.0133-0.48597 0.04644-0.79102 0.36524-0.30504 0.3188-0.74172 0.9245-1.1816 1.4434-0.43992 0.51886-0.8836 0.95094-1.4336 1.3809-0.54999 0.42991-1.207 0.85671-2.0977 1.0703-0.89061 0.21355-2.0144 0.21249-2.8848 0.03125-0.87037-0.1812-1.4852-0.54253-1.9668-0.98438-0.48159-0.44185-0.83025-0.96296-0.95312-1.7891-0.12287-0.82611-0.021409-1.9552 0.019531-2.7441 0.040936-0.78896 0.022484-1.2388-0.097656-1.7051-0.12014-0.46631-0.3409-0.94961-0.45117-1.1914s-0.10978-0.24201-0.21484-0.35938c-0.10506-0.11736-0.31666-0.35234-0.52344-0.58398-0.20678-0.23165-0.4092-0.45981-0.53516-0.77344s-0.17361-0.71177-0.12695-1.373 0.18767-1.585 0.51562-2.3926c0.32796-0.8076 0.84211-1.4997 1.3535-1.8867 0.5114-0.38702 1.0201-0.47036 1.7109-0.53124 0.69084-0.06093 1.5631-0.09927 2.1953 0.08593 0.63224 0.18518 1.0247 0.5933 1.5137 0.91602 0.48899 0.32273 1.0738 0.55985 14.062-4.916 1.789-0.75422 4.2405-1.816 6.4355-2.7578-0.36481-1.2584-0.6635-2.5166-0.91797-3.7617-4.7971-1.8648-9.2125-3.5678-12.703-4.8848-13.203-4.9813-13.777-4.7204-14.252-4.377-0.47466 0.34345-0.84897 0.76827-1.4727 0.98047-0.62369 0.21224-1.4966 0.21274-2.1895 0.18164-0.69282-0.0311-1.2048-0.09432-1.7324-0.45898-0.52758-0.36469-1.0712-1.0315-1.4336-1.8242-0.36238-0.79274-0.54409-1.7105-0.61914-2.3691-0.075049-0.65866-0.043991-1.0582 0.068359-1.377 0.11235-0.31876 0.30728-0.55656 0.50391-0.79688 0.19662-0.24032 0.39617-0.48369 0.49609-0.60547 0.099919-0.12177 0.099449-0.12283 0.19922-0.36914s0.30041-0.73794 0.40039-1.209 0.098267-0.9206 0.023437-1.707c-0.074828-0.78647-0.22395-1.9096-0.13672-2.7402 0.087227-0.83062 0.41286-1.3679 0.875-1.8301 0.46214-0.46215 1.0601-0.84994 1.9219-1.0684 0.43089-0.10916 0.92675-0.17546 1.4277-0.19336 0.50098-0.0179 1.0075 0.01201 1.457 0.09961 0.89898 0.17515 1.5727 0.57657 2.1406 0.98243 0.56797 0.40583 1.0304 0.81695 1.4922 1.3164 0.46183 0.49946 0.92371 1.0852 1.2422 1.3906 0.31848 0.30543 0.49266 0.33213 0.80469 0.33203 0.31202-1.1e-4 0.7616-0.02667 1.3984 0.14844 0.63683 0.17505 1.4615 0.55019 14.795 6.0058 0.38984 0.15952 1.1196 0.45471 1.5312 0.62305-0.22833-0.41143-0.47283-0.80942-0.73633-1.1914-0.75946-1.101-1.8024-2.2333-2.8613-3.5996-1.0644-1.3735-2.1539-3.0147-2.668-5.0703-0.42796-1.7113-0.36946-3.4066-0.087891-4.959 0.14459-0.79713 0.34743-1.552 0.57812-2.2754-4.1399-3.9386-6.8052-9.3232-7.3828-15.023-0.48144-4.7508 0.47366-9.5202 2.4316-13.768 1.9542-4.2392 4.8703-7.9279 8.2773-10.971 7.0785-6.3216 16.437-9.8967 25.912-9.9727zm0.13281 4.9902c-8.2648 0.050701-16.554 3.2108-22.715 8.7129-2.9652 2.6482-5.4439 5.8144-7.0664 9.334-1.6188 3.5115-2.378 7.4207-1.998 11.17 0.37986 3.7484 1.9628 7.4011 4.3828 10.316 0.45478-1.2436 0.80341-2.4079 0.88476-3.5 0.1536-2.0619-0.64266-4.6235-0.8125-7.7773-0.11245-2.0882 0.14481-4.1856 0.75586-6.1855a2.5 2.5 0 0 1 3.1211-1.6602 2.5 2.5 0 0 1 1.6602 3.1211c-0.43872 1.4359-0.62566 2.9578-0.54492 4.457 0.12243 2.2735 1.0549 5.0576 0.80469 8.416-0.24148 3.2416-1.576 5.8914-2.4883 8.2148-0.45491 1.1585-0.82551 2.2556-1.0137 3.293-0.18678 1.0298-0.19113 2.0189 0.017578 2.8535 0.25217 1.0084 0.90121 2.0978 1.7715 3.2207 0.87581 1.13 1.9915 2.3234 3.0254 3.8223 0.15276 0.22145 0.27977 0.4508 0.42188 0.67578 0.71296-0.09625 1.4385-0.10215 2.1582-0.01172 1.4983 0.18828 2.9193 0.78084 4.1074 1.7129 1.2607 0.98897 2.1545 2.2684 2.7734 3.5977 0.47889 1.0285 0.79039 2.0767 1.0156 3.1035a2.5 2.5 0 0 1 1.1035 0.33203c1.3624 0.81299 2.8524 1.4242 4.3926 1.8047 1.8742 0.46298 3.9143 0.60356 6.0371 0.60156 2.1016-0.00206 4.1214-0.14371 5.9766-0.60156 1.54-0.38008 3.0268-0.99158 4.3887-1.8047a2.5 2.5 0 0 1 1.1055-0.33399c0.22521-1.0262 0.53703-2.0737 1.0156-3.1016 0.61895-1.3293 1.5128-2.6087 2.7734-3.5977 1.1881-0.93205 2.6091-1.5246 4.1074-1.7129 0.72035-0.09051 1.4466-0.08478 2.1602 0.01172 0.14194-0.22468 0.26737-0.45461 0.41993-0.67578 1.0339-1.4988 2.1496-2.6922 3.0254-3.8223 0.87027-1.1229 1.5193-2.2124 1.7715-3.2207 0.20873-0.83457 0.20436-1.8237 0.01758-2.8535-0.18816-1.0374-0.55876-2.1344-1.0137-3.293-0.91233-2.3235-2.2468-4.9733-2.4883-8.2148-0.25019-3.3584 0.68225-6.1425 0.80468-8.416 0.08074-1.4993-0.1062-3.0211-0.54492-4.457a2.5 2.5 0 0 1 1.6602-3.1211 2.5 2.5 0 0 1 3.1211 1.6602c0.61105 1.9999 0.86831 4.0974 0.75586 6.1855-0.16984 3.1538-0.9661 5.7155-0.8125 7.7773 0.08135 1.0921 0.42999 2.2564 0.88477 3.5 2.42-2.9153 4.003-6.568 4.3828-10.316 0.37993-3.7492-0.37928-7.6584-1.998-11.17-1.6225-3.5196-4.1012-6.6858-7.0664-9.334-6.5716-5.8689-15.565-9.0735-24.367-8.6816a2.5002 2.5002 0 0 1-0.22266 0c-0.55013-0.024489-1.1014-0.034631-1.6523-0.03125zm11.004 36.332c1.4794 0.004868 3.0841 0.17408 4.3809 0.46094 2.0749 0.45898 3.364 1.2192 4.0527 2.332 0.68879 1.1128 0.77608 2.5781 0.65234 4.123-0.12373 1.545-0.45916 3.1686-1.1035 4.457s-1.5974 2.2419-2.5508 3.1953c-1.29 0.38878-2.5797 0.77641-3.8418 0.82031-1.2621 0.04387-2.4968-0.25493-3.7676-1.1641s-2.5775-2.428-3.3984-4.0078c-0.82095-1.5798-1.157-3.2218-1.166-4.5723-0.00909-1.3504 0.3092-2.4108 0.91797-3.3555s1.5083-1.7734 3.3887-2.1094c0.70513-0.12599 1.5479-0.18261 2.4355-0.17969zm-19.965 1.0586c0.88761-0.00292 1.7304 0.053701 2.4355 0.17969 1.8804 0.33597 2.7819 1.1666 3.3906 2.1113 0.60877 0.94469 0.92706 2.0031 0.91797 3.3535-0.0091 1.3504-0.34507 2.9924-1.166 4.5723-0.82094 1.5798-2.1276 3.0987-3.3984 4.0078s-2.5074 1.2099-3.7695 1.166-2.5498-0.43349-3.8398-0.82227c-0.95339-0.95339-1.906-1.9046-2.5508-3.1934s-0.97978-2.914-1.1035-4.459c-0.12374-1.5449-0.036409-3.0102 0.65234-4.123 0.68875-1.1129 1.9779-1.8711 4.0527-2.3301 1.2968-0.28686 2.8996-0.45802 4.3789-0.46289zm10.211 10.982c0.35104-0.0038 0.67669 0.06883 0.97461 0.20704 0.47666 0.22112 0.88258 0.60814 1.4121 1.3144 0.52952 0.70631 1.1824 1.731 1.7031 2.7109s0.90929 1.9145 1.1562 3.168c0.24697 1.2534 0.3525 2.8255 0.37891 3.8848 0.0264 1.0592-0.02647 1.6075-0.22071 2.1191-0.19422 0.51166-0.53033 0.9878-1.0332 1.3672-0.50286 0.37939-1.1726 0.66074-1.7461 0.63476-0.57348-0.02597-1.0509-0.35995-1.457-0.69531-0.40615-0.33535-0.74063-0.67069-1.0762-0.8125s-0.6721-0.08994-0.95508 0.11328c-0.28298 0.20323-0.51207 0.55633-0.93555 0.90039-0.42348 0.34407-1.0413 0.68055-1.7383 0.60157-0.69699-0.07898-1.4739-0.57471-1.9863-1.4043-0.51247-0.8296-0.7597-1.9937-0.72461-3.1504s0.35245-2.305 0.82031-3.5586 1.0857-2.6134 1.5801-3.6992c0.49435-1.0858 0.86561-1.8965 1.3867-2.4883 0.52111-0.59179 1.1913-0.9643 1.8008-1.123 0.22856-0.05953 0.44953-0.08756 0.66016-0.08985zm-19.033 14.137c1.0914 2.8573 1.6679 5.8164 2.1836 8.5898 0.80423 4.3251 1.566 8.4364 3.4824 11.684 1.3931 2.3605 3.4557 4.3567 5.8594 5.6738 2.4037 1.3172 5.1944 1.9789 7.9336 1.8828a2.5002 2.5002 0 0 1 0.17578 0c2.7392 0.09607 5.5299-0.56566 7.9336-1.8828 2.4037-1.3172 4.4663-3.3134 5.8594-5.6738 1.9164-3.2472 2.6782-7.3585 3.4824-11.684 0.51571-2.7734 1.0922-5.7326 2.1836-8.5898-0.64553 0.13759-1.2719 0.41806-1.7871 0.82227-0.65223 0.51165-1.2099 1.2659-1.6172 2.1406-0.41053 0.88168-0.68331 1.8998-0.87891 2.9941-0.21385 1.1965-0.33704 2.563-0.68945 4.0371-0.35528 1.4861-0.96216 3.0939-2.1914 4.4316-0.99726 1.0853-2.2294 1.7915-3.4629 2.25-1.2257 0.45562-2.4422 0.66871-3.5781 0.81641-1.7804 0.23151-3.5535 0.31541-5.3027 0.31641-1.7751 0.0015-3.5762-0.08132-5.3828-0.31641-1.1357-0.14779-2.3505-0.36278-3.5762-0.81836-1.2334-0.45846-2.4656-1.1627-3.4629-2.248-1.2293-1.3378-1.8361-2.9455-2.1914-4.4316-0.35241-1.4741-0.47561-2.8406-0.68945-4.0371-0.19559-1.0944-0.46838-2.1125-0.87891-2.9941-0.40732-0.87476-0.96496-1.629-1.6172-2.1406-0.51526-0.4042-1.1416-0.68466-1.7871-0.82227z"/>
</svg>
