<svg width="10mm" height="10mm" version="1.1" viewBox="0 0 200 200" xmlns="http://www.w3.org/2000/svg">
<path d="m55.719 46.695 10 10h68.496l10-10h-88.496zm97.586 13.539-10 10v64.047l10 10v-84.047zm-106.61 0.066406v83.914l10-10v-63.914l-10-10zm10 96.543-10 10v0.47852c0 2.7114 2.3394 5.0508 5.0508 5.0508h96.508c2.7114 0 5.0508-2.3394 5.0508-5.0508v-0.41211l-10-10v5.4629h-86.609v-5.5293z"/>
<path d="m73.26 64.236 5 5h43.414l5-5h-53.414zm59.748 16.295-5 5v15.994h-15.994l-0.73242 0.73242 4.2676 4.2676h14.91c1.3696 0 2.5488-1.1811 2.5488-2.5508v-23.443zm-66.016 0.066406v23.377c0 1.3696 1.1792 2.5508 2.5488 2.5508h14.844l4.2676-4.2676-0.73242-0.73242h-15.928v-15.928l-5-5z"/>
<path d="m130.56 24.152c-0.61475 0-1.1094 0.49462-1.1094 1.1094v25.324c0 0.61475 0.49462 1.1094 1.1094 1.1094h8.6562l3.3691-3.3691v-23.064c0-0.61475-0.49462-1.1094-1.1094-1.1094h-10.916z"/>
<path d="m124.01 137.61a7.3093 7.3093 0 0 0-4.7266 6.7734 7.3093 7.3093 0 0 0 7.3105 7.3105 7.3093 7.3093 0 0 0 6.7734-4.7266z"/>
<path d="m75.947 137.59-9.3301 9.3301a7.3093 7.3093 0 0 0 6.793 4.7734 7.3093 7.3093 0 0 0 7.3105-7.3105 7.3093 7.3093 0 0 0-4.7734-6.793z"/>
<path d="m100 137.08a7.3093 7.3093 0 0 0-7.3086 7.3086 7.3093 7.3093 0 0 0 7.3086 7.3105 7.3093 7.3093 0 0 0 7.3086-7.3105 7.3093 7.3093 0 0 0-7.3086-7.3086z"/>
<path d="m126.59 116.42a7.3093 7.3093 0 0 0-1.0137 0.13281l8.2363 8.2363a7.3093 7.3093 0 0 0 0.0859-1.0605 7.3093 7.3093 0 0 0-7.3086-7.3086z"/>
<path d="m100 116.42a7.3093 7.3093 0 0 0-4.5371 1.6562l-1.1152 1.1152a7.3093 7.3093 0 0 0-1.6562 4.5371 7.3093 7.3093 0 0 0 7.3086 7.3105 7.3093 7.3093 0 0 0 7.3086-7.3105 7.3093 7.3093 0 0 0-1.4375-4.252l-1.6191-1.6191a7.3093 7.3093 0 0 0-4.252-1.4375z"/>
<path d="m73.41 116.42a7.3093 7.3093 0 0 0-7.3086 7.3086 7.3093 7.3093 0 0 0 0.12695 0.95312l8.1367-8.1367a7.3093 7.3093 0 0 0-0.95508-0.125z"/>
<g stroke="#000" stroke-width="5">
<path d="m172.4 29.823-144.87 144.87"/>
<path d="m27.532 29.823 144.87 144.87"/>
</g>
</svg>
