<svg width="10mm" height="10mm" version="1.1" viewBox="0 0 200 200" xmlns="http://www.w3.org/2000/svg">
<path d="m100 34.42c-9.3194 0-18.191 1.9776-26.234 5.5137l-1.5195 11.912 10.811 5.8066c5.2325-2.0793 10.944-3.2324 16.943-3.2324 18.184 0 33.783 10.488 41.113 25.783l17.924-8.6934c-10.641-21.911-33.134-37.09-59.037-37.09zm-59.383 37.838c-3.9665 8.4361-6.1973 17.837-6.1973 27.742 0 36.1 29.48 65.58 65.58 65.58 5.7682 0 11.364-0.75984 16.701-2.1719l0.33789-5.8066-13.07-4.1953 3.9766-8.5215c-2.5797 0.44831-5.2315 0.69531-7.9453 0.69531-25.291 0-45.58-20.289-45.58-45.58 0-7.5505 1.8196-14.648 5.0293-20.9h-15.256l-3.5762-6.8418zm103.15 40.537c-2.663 9.212-8.1311 17.193-15.438 22.975l-0.0469 12.076 4.8086 8.709c12.806-7.5353 22.853-19.285 28.207-33.322l-17.531-10.438z"/>
<path d="m92.569 17.454h14.861c3.4904 0 6.3003 2.8099 6.3003 6.3003v14.365c0 3.4904-2.8099 6.3003-6.3003 6.3003h-14.861c-3.4904 0-6.3003-2.8099-6.3003-6.3003v-14.365c0-3.4904 2.8099-6.3003 6.3003-6.3003z"/>
<path d="m153.11 36.377 10.509 10.509c2.4681 2.4681 2.4681 6.4419 0 8.91l-10.158 10.158c-2.4681 2.4681-6.4419 2.4681-8.91 0l-10.509-10.509c-2.468-2.4681-2.4681-6.4419 0-8.91l10.158-10.158c2.4681-2.4681 6.4419-2.4681 8.91-1e-6z"/>
<path d="m163.62 153.12-10.509 10.509c-2.4681 2.4681-6.4419 2.4681-8.91 0l-10.158-10.158c-2.4681-2.468-2.4681-6.4419 0-8.91l10.509-10.509c2.4681-2.4681 6.4419-2.4681 8.91 0l10.158 10.158c2.4681 2.4681 2.4681 6.4419 0 8.91z"/>
<path d="m107.43 182.55h-14.861c-3.4904 0-6.3003-2.8099-6.3003-6.3003v-14.365c0-3.4904 2.8099-6.3003 6.3003-6.3003h14.861c3.4904 0 6.3003 2.8099 6.3003 6.3003v14.365c0 3.4904-2.8099 6.3003-6.3003 6.3003z"/>
<path d="m46.884 163.62-10.509-10.509c-2.4681-2.468-2.4681-6.4419 0-8.91l10.158-10.158c2.4681-2.4681 6.4419-2.4681 8.91 0l10.509 10.509c2.4681 2.4681 2.4681 6.4419 0 8.91l-10.158 10.158c-2.4681 2.4681-6.4419 2.4681-8.91 0z"/>
<path d="m17.454 107.43v-14.861c0-3.4904 2.8099-6.3003 6.3003-6.3003h14.365c3.4904 0 6.3003 2.8099 6.3003 6.3003v14.861c0 3.4904-2.8099 6.3003-6.3003 6.3003h-14.365c-3.4904 0-6.3003-2.8099-6.3003-6.3003z"/>
</svg>
