<svg id="a" width="10mm" height="10mm" version="1.1" viewBox="0 0 53.71 53.71" xmlns="http://www.w3.org/2000/svg">
<g id="b" transform="translate(-15.875 -104.78)">
<path id="c" d="m27.079 113.5v6.5707h3.9868v2.2412c0 0.86876-0.69438 1.556-1.5193 1.556h-6.1634v25.899h22.861v-25.899h-6.1634c-0.82488 0-1.5193-0.68722-1.5193-1.556v-2.2412h3.9874v-6.5707zm1.3229 1.3229h12.824v3.9248l-3.9874 5.3e-4v3.5636c0 1.5806 1.2829 2.8789 2.8422 2.8789h4.8405v23.253h-20.215v-23.253h4.8405c1.3284 0 2.404-0.96111 2.7089-2.2174h0.13333v-4.2251l-3.9868-5.3e-4zm27.19 9.6371v21.287l-4.1248-7.1443-1.0955 0.63251 5.8689 10.165 5.8374-10.11-1.0955-0.63201-4.1253 7.1448v-21.342zm-27.632 5.6679 6.8538 11.927 6.8544-11.927zm2.2862 1.3229h9.1359l-4.5677 7.9489z" stroke-width=".26458"/>
</g>
</svg>
