<svg id="a" width="10mm" height="10mm" version="1.1" viewBox="0 0 53.71 53.71" xmlns="http://www.w3.org/2000/svg">
<g id="b" transform="translate(-62.706 -97.102)">
<path id="c" d="m92.195 112.47-8.4729 22.965h1.2971l8.4724-22.965zm-22.584 0.14107v4.5351h2.5962v1.395c0.0056 0.22784-0.05806 0.3046-0.19689 0.40515-0.13882 0.10054-0.37848 0.17005-0.57258 0.17104h-4.4576v16.246h15.182v-16.246h-4.4576c-0.19409-1e-3 -0.43375-0.0705-0.57258-0.17104-0.13882-0.10055-0.20245-0.17731-0.19689-0.40515v-1.395h2.5962v-4.5351h-5.8224zm1.1906 1.1906h7.5391v2.1539h-2.5962v2.5714l5.29e-4 -0.015c-0.01466 0.59949 0.29506 1.1141 0.68833 1.3989 0.39326 0.28482 0.8441 0.39524 1.265 0.39739h3.2732v13.865h-12.801v-13.865h3.2732c0.42094-2e-3 0.87178-0.11257 1.265-0.39739 0.39327-0.28482 0.70298-0.79939 0.68833-1.3989l5.29e-4 0.015v-2.5714h-2.5962zm23.238 1.0914v4.176l4.176-4.176zm8.2801 0-8.2801 8.2801v3.8127l12.093-12.093zm7.9174 0-16.197 16.197v1.9058h1.9069l16.196-16.196v-1.9069zm1.9058 6.011-12.092 12.092h3.8137l8.2786-8.2786zm0 7.9168-4.1755 4.1749h4.1755z" color="#000000" fill="#000"/>
</g>
</svg>
