<svg id="a" width="10mm" height="10mm" version="1.1" viewBox="0 0 53.71 53.71" xmlns="http://www.w3.org/2000/svg">
<g id="b" transform="translate(-35.719 -76.994)">
<path id="c" d="m65.069 92.366-8.4729 22.965h1.2971l8.4724-22.965zm-22.584 0.14108v4.5351h2.5962v1.3952c0.0056 0.22784-0.05806 0.3046-0.19689 0.40514-0.13882 0.10054-0.37848 0.17006-0.57257 0.17105h-4.4576v16.246h15.182v-16.246h-4.4576c-0.19409-1e-3 -0.43375-0.0705-0.57257-0.17105-0.13882-0.10054-0.20245-0.1773-0.19689-0.40514v-1.3952h2.5962v-4.5351h-5.8224zm1.1906 1.1906h7.5391v2.1539h-2.5962v2.5714l5.29e-4 -0.01499c-0.01466 0.5995 0.29507 1.1141 0.68833 1.3989 0.39326 0.28482 0.8441 0.39524 1.265 0.3974h3.2731v13.865h-12.801v-13.865h3.2732c0.42094-2e-3 0.87178-0.11258 1.265-0.3974 0.39327-0.28482 0.70298-0.79939 0.68833-1.3989l5.03e-4 0.01499v-2.5714h-2.5962zm20.665 9.232v11.927h1.265v-11.927zm19.687 0v11.927h1.265v-11.927zm-13.398 1.0961-4.8555 4.8555 4.8788 4.8788 0.89452-0.89452-3.9843-3.9843 3.961-3.961zm8.3742 0-0.89452 0.89452 3.961 3.961-3.9843 3.9843 0.89452 0.89452 4.8788-4.8788z" color="#000000" fill="#000"/>
</g>
</svg>
