<svg width="10mm" height="10mm" version="1.1" viewBox="0 0 200 200" xmlns="http://www.w3.org/2000/svg">
<path d="m14.195 143.75-9.2161-34.428c2.2952-2.2599 4.5904-4.5198 6.7974-6.6385s4.3256-4.096 5.7911-5.332 2.2777-1.7303 3.3369-2.613 2.3657-2.1539 3.6544-3.9192c1.2888-1.7654 2.5599-4.0252 3.6016-6.6381s1.8538-5.5789 2.3658-7.521c0.51202-1.9421 0.72388-2.8601 1.077-3.7078 0.35311-0.8477 0.84745-1.6245 2.1541-2.79s3.4253-2.7191 5.385-4.1669 3.7606-2.7895 4.8906-3.6017c1.13-0.81217 1.589-1.0947 2.172-1.2358 0.58299-0.14116 1.2892-0.14116 2.7725-0.22343s3.7437-0.24673 6.1724-0.32893 5.0253-0.0822 6.7358 0.08034 2.5344 0.48712 2.9583 0.88691c0.42389 0.39979 0.44886 0.87418 0.23654 1.4106s-0.66175 1.1356-1.2233 1.6223c-0.56157 0.48672-1.2357 0.86123-2.6087 1.0361s-3.4453 0.14991-4.8707 0.16538-2.2037 0.07147-2.6803 0.11192c-0.47659 0.04046-0.65136 0.06543-1.0114 0.1872-0.36007 0.12177-0.90508 0.34043-1.1528 0.5628s-0.19774 0.44709-0.36022 2.0949-0.537 4.7189-0.72421 6.3668c-0.18721 1.648-0.18721 1.8727 0.0628 2.4471 0.25001 0.57438 0.74937 1.4982 1.2365 2.0471s0.96156 0.72371 1.3731 0.69844c0.41151-0.02527 0.76106-0.24998 1.8597-0.97408 1.0986-0.7241 2.9463-1.9475 4.257-2.8713s2.0848-1.548 2.647-1.8601c0.56224-0.31206 0.91179-0.31206 1.2864-0.2244 0.37464 0.08766 0.77412 0.26243 1.1359 0.6248 0.36179 0.36237 0.68638 0.91167 0.74835 1.4982 0.06197 0.58648-0.13777 1.2107-0.41239 1.7598-0.27462 0.54909-0.62417 1.0235-1.3107 1.6975s-1.7102 1.5479-3.0835 2.8089-3.0961 2.9088-4.432 4.3446-2.2847 2.6592-2.9836 3.4206c-0.69895 0.76139-1.1484 1.061-1.5355 1.3607-0.38711 0.29968-0.71169 0.5993-1.885 1.0861-1.1733 0.48681-3.1957 1.1609-4.5066 1.6229-1.3109 0.46192-1.9101 0.7116-2.3348 0.94888-0.42469 0.23728-0.67437 0.46199-1.2984 0.84894-0.62408 0.38695-1.6228 0.93624-2.2972 1.4608-0.6744 0.52454-1.0239 1.0239-2.4596 2.9964s-3.9575 5.4181-7.0037 10.387-6.6166 11.461-8.8388 15.78c-2.2222 4.3196-3.0961 6.4669-3.9512 8.89-0.85512 2.4231-1.6912 5.1212-2.5276 7.82h-5e-6z"/>
<circle cx="100" cy="100" r="14.382"/>
<path d="m100 44.617c-17.902 0-33.827 8.5286-43.955 21.73 0.16174 1.0036 0.2383 2.0602 0.1543 2.9121-0.09441 0.95747-0.24305 2.1787-0.39062 3.4414 0.16875-0.11672 0.36826-0.24495 0.51953-0.35156 1.1502-0.81061 1.7456-1.3616 2.9707-2.0605 9.1591-12.534 23.965-20.672 40.701-20.672s31.542 8.1378 40.701 20.672c1.2251 0.69894 1.8205 1.2499 2.9707 2.0605 0.15127 0.10661 0.35078 0.23485 0.51953 0.35156-0.14758-1.2627-0.29622-2.4839-0.39063-3.4414-0.084-0.85191-7e-3 -1.9085 0.1543-2.9121-10.128-13.202-26.053-21.73-43.955-21.73zm-50.34 53.676c-1.1322 0.41095-2.2623 0.8011-3.0762 1.0879-1.2279 0.43266-1.5731 0.60731-1.5488 0.59375 0.0092-0.0052-0.32363 0.20997-0.41211 0.27344 0.13464 30.443 24.903 55.135 55.377 55.135s55.242-24.692 55.377-55.135c-0.0885-0.0635-0.42135-0.2786-0.41211-0.27344 0.0243 0.01356-0.32096-0.16109-1.5488-0.59375-0.81392-0.2868-1.944-0.67694-3.0762-1.0879 0.0189 0.5678 0.043 1.1346 0.043 1.707 0 27.855-22.527 50.383-50.383 50.383s-50.383-22.527-50.383-50.383c0-0.57246 0.02409-1.1392 0.04297-1.707z"/>
<path d="m51.228 120.44 48.77-20.201 48.773 20.202" fill="none" stroke="#000" stroke-width="9"/>
<path d="m185.81 143.75 9.2161-34.428c-2.2952-2.2599-4.5904-4.5198-6.7974-6.6384-2.207-2.1187-4.3256-4.096-5.7911-5.332-1.4655-1.2359-2.2777-1.7303-3.3369-2.613s-2.3657-2.1539-3.6544-3.9192-2.5599-4.0252-3.6016-6.6381-1.8538-5.5789-2.3658-7.521c-0.51202-1.9421-0.72388-2.8601-1.077-3.7078s-0.84746-1.6245-2.1542-2.79c-1.3067-1.1655-3.4253-2.7191-5.385-4.1669-1.9598-1.4478-3.7606-2.7895-4.8906-3.6017-1.13-0.81218-1.589-1.0947-2.172-1.2358-0.583-0.14116-1.2892-0.14116-2.7725-0.22343s-3.7437-0.24673-6.1724-0.32893-5.0253-0.0822-6.7358 0.08033c-1.7104 0.16254-2.5344 0.48712-2.9583 0.88691-0.42389 0.39979-0.44886 0.87418-0.23653 1.4106 0.21232 0.53638 0.66175 1.1356 1.2233 1.6223 0.56157 0.48671 1.2357 0.86123 2.6087 1.0361s3.4453 0.14991 4.8707 0.16538 2.2037 0.07147 2.6803 0.11192c0.47659 0.04046 0.65137 0.06543 1.0114 0.1872 0.36006 0.12177 0.90507 0.34043 1.1527 0.5628 0.24768 0.22237 0.19774 0.44709 0.36022 2.0949s0.537 4.7189 0.72421 6.3668c0.18721 1.648 0.18721 1.8727-0.0628 2.4471-0.25001 0.57438-0.74937 1.4982-1.2365 2.0471-0.48716 0.54894-0.96155 0.72371-1.3731 0.69844-0.41151-0.02527-0.76106-0.24998-1.8597-0.97408-1.0986-0.72409-2.9463-1.9475-4.257-2.8713-1.3108-0.92381-2.0848-1.548-2.647-1.8601-0.56224-0.31206-0.91179-0.31206-1.2864-0.2244-0.37464 0.08765-0.77413 0.26243-1.1359 0.6248s-0.68638 0.91167-0.74835 1.4982c-0.062 0.58648 0.13778 1.2107 0.4124 1.7598s0.62417 1.0235 1.3107 1.6975c0.68653 0.67404 1.7102 1.5479 3.0835 2.8089 1.3733 1.2609 3.0961 2.9088 4.432 4.3446s2.2847 2.6592 2.9836 3.4206 1.1484 1.061 1.5355 1.3607c0.38711 0.29968 0.71169 0.5993 1.885 1.0861 1.1733 0.48681 3.1957 1.1609 4.5066 1.6229s1.9101 0.7116 2.3348 0.94888c0.42468 0.23728 0.67436 0.46199 1.2984 0.84894 0.62407 0.38695 1.6228 0.93624 2.2972 1.4608 0.67439 0.52454 1.024 1.0239 2.4596 2.9964 1.4357 1.9725 3.9575 5.4181 7.0037 10.387s6.6166 11.461 8.8388 15.78c2.2222 4.3196 3.0961 6.4669 3.9512 8.89 0.85511 2.4231 1.6912 5.1212 2.5276 7.82h-1e-5z"/>
</svg>
