<svg width="10mm" height="10mm" version="1.1" viewBox="0 0 200 200" xmlns="http://www.w3.org/2000/svg">
<g fill="none" stroke="#000" stroke-width="10">
<path d="m35.022 27.966v30.003a41.805 41.805 0 0 0 20.902 36.204 41.805 41.805 0 0 0 41.805 1e-6 41.805 41.805 0 0 0 20.902-36.204v-30.003"/>
<path d="m76.827 99.774v41.956a24.795 24.795 45 0 0 24.795 24.795h17.015a24.795 24.795 135 0 0 24.795-24.795v-4.9788"/>
</g>
<path d="m143.43 98.523a21.603 21.603 0 0 0-21.604 21.604 21.603 21.603 0 0 0 21.604 21.604 21.603 21.603 0 0 0 21.604-21.604 21.603 21.603 0 0 0-21.604-21.604zm-2.5 11.342h5v7.7617h7.7617v5h-7.7617v7.7617h-5v-7.7617h-7.7617v-5h7.7617v-7.7617z"/>
</svg>
