<?xml version="1.0" encoding="UTF-8" standalone="no"?>
<svg
   width="265"
   height="265"
   fill-rule="evenodd"
   version="1.1"
   id="svg2"
   xmlns="http://www.w3.org/2000/svg"
   xmlns:svg="http://www.w3.org/2000/svg">
  <defs
     id="defs2" />
  <path
     d="M 132.5,0 C 59.529,0 0,59.51 0,132.466 0,205.422 59.532,265 132.5,265 205.468,265 265,205.419 265,132.466 265,59.513 205.472,0 132.5,0"
     fill="#005387"
     fill-rule="nonzero"
     id="path1" />
  <path
     d="m 105.862,55.133 5.414,-28.444 65.392,15.392 -16.28,62.008 c -1.213,4.612 -1.045,8.351 1.287,11.575 l 24.552,33.914 c 3.276,4.526 7.343,7.992 10.922,9.067 19.071,5.328 25.72,15.985 19.981,31.877 l 2.246,0.586 -1.91,7.112 -15.414,-3.407 1.06,-4.847 6.951,1.534 c 8.545,-14.205 3.963,-23.496 -14.179,-28.56 -4.944,-1.478 -9.757,-5.862 -13.284,-10.735 l -24.556,-33.914 c -3.437,-4.746 -3.377,-10.067 -1.993,-15.34 l 15.116,-57.56 -56.366,-13.269 -4.541,23.847 z m 66.537,126.318 c -6.022,-1.369 -3.537,-7.56 4.187,-7.09 5.388,0.329 12.448,4.444 15.369,9.273 2.746,4.541 -2.817,8.653 -5.817,5.694 -4.616,-4.556 -8.672,-6.724 -13.739,-7.877 m -114.347,0.056 h 46.265 c 14.817,0 25.944,13.716 38.239,13.716 h 47.426 v 4.481 h -47.426 c -13.795,0 -24.187,-13.713 -38.239,-13.713 H 58.052 Z M 52.436,62.715 h 69.411 l -2.19,63.944 c -0.187,5.392 0.899,9.739 4.429,12.634 l 30.302,24.832 c 3.119,2.556 5.925,4.534 9.082,5.198 l 14.604,3.063 c 12.638,2.649 18.254,8.952 16.523,20.672 -0.47,2.537 0.168,3.813 1.911,3.832 l 0.003,8.642 h -64.534 c -1.638,0 -3.463,-0.672 -5.597,-1.634 0,0 -21.739,-12.922 -25.758,-12.97 l -0.549,14.605 H 54.895 L 52.981,181.19 c -5.549,-6.739 -4.642,-21.616 2.735,-44.631 2.978,-9.295 0.25,-39.56 -3.28,-73.844"
     fill="#ecece7"
     id="path2" />
</svg>
