<?xml version="1.0" encoding="UTF-8" standalone="no"?>
<svg
   width="265"
   height="265"
   version="1.1"
   id="svg2"
   xmlns="http://www.w3.org/2000/svg"
   xmlns:svg="http://www.w3.org/2000/svg">
  <defs
     id="defs2" />
  <path
     d="M 0,132.501 C 0,59.321 59.32,0 132.5,0 205.68,0 265,59.321 265,132.5 265,205.679 205.68,265 132.5,265 59.32,265 0,205.685 0,132.501"
     fill="#005387"
     id="path1" />
  <path
     d="m 117.917,45.955 c 0,-9.784 7.931,-17.71 17.71,-17.71 a 17.71,17.71 0 0 1 17.706,17.71 17.71,17.71 0 0 1 -17.706,17.706 c -9.78,0 -17.71,-7.926 -17.71,-17.706 z m 44.13,78.599 a 9.1,9.1 0 0 1 0.15,1.609 c 0,1.632 -0.553,3.077 -1.215,4.479 l -19.056,41.283 c -1.412,3.016 -4.474,5.103 -8.02,5.103 a 8.86,8.86 0 0 1 -8.855,-8.86 c 0.005,-1.187 0.235,-2.331 0.666,-3.377 l 18.104,-39.689 -3.396,-20.295 c -0.319,-1.013 -1.313,-1.599 -2.364,-1.384 -1.008,0.216 -1.656,1.055 -1.618,2.083 l 3.114,19.066 -11.955,26.223 -17.884,9.873 4.324,-7.275 V 121.79 l -2.261,4.015 c -0.183,0.385 -0.999,1.632 -0.999,1.632 -1.102,1.416 -2.622,2.5 -4.376,3.044 l -43.094,15.126 c -0.933,0.338 -1.937,0.516 -2.983,0.516 -4.887,0 -8.855,-3.959 -8.855,-8.86 0,-3.94 2.584,-7.279 6.149,-8.428 0.009,-0.014 0.366,-0.108 0.366,-0.108 4.155,-1.21 40.097,-14.272 40.097,-14.272 l 20.206,-39.126 a 8.86,8.86 0 0 1 7.626,-4.348 h 19.614 a 8.86,8.86 0 0 1 8.71,7.242 l 0.042,0.253 z m 1.51,11.078 74.274,-40.824 a 111,111 0 0 1 4.306,15.07 L 152.77,159.003 Z M 54.903,212.782 A 112.72,112.72 0 0 1 44.486,201.075 l 79.846,-43.886 -0.3,0.633 -2.406,5.286 a 13.24,13.24 0 0 0 -1.004,5.065 c 0,2.692 0.802,5.202 2.181,7.289 l -67.9,37.32"
     fill="#ecece7"
     id="path2" />
</svg>
