<?xml version="1.0" encoding="UTF-8" standalone="no"?>
<svg
   width="265"
   height="265"
   fill-rule="nonzero"
   version="1.1"
   id="svg2"
   xmlns="http://www.w3.org/2000/svg"
   xmlns:svg="http://www.w3.org/2000/svg">
  <defs
     id="defs2" />
  <path
     d="M 132.5,0 C 59.529,0 0,59.51 0,132.468 0,205.426 59.532,265 132.5,265 205.468,265 265,205.421 265,132.468 265,59.515 205.472,0 132.5,0"
     fill="#005387"
     id="path1" />
  <path
     d="m 209.158,126.195 c -0.812,2.571 -2.632,6.045 -4.735,10.07 -6.804,13.008 -17.086,32.664 -17.086,62.878 v 10.667 c 0,3.825 -3.115,6.94 -6.94,6.94 h -64.011 c -3.825,0 -6.932,-3.115 -6.932,-6.94 v -11.097 l 11.629,-0.948 c 7.967,-0.631 10.584,-5.837 11.373,-10.096 l 14.401,-77.208 h 65.408 c -0.423,5.26 -1.461,10.531 -3.107,15.734 M 119.906,41.266 V 71.99 H 84.073 c 6.483,-13.491 19.963,-24.784 35.832,-30.724 m -18.169,145.278 c -13.725,0 -18.615,-10.1 -18.615,-19.555 V 145.38 H 72.708 c -2.046,0 -3.919,-0.831 -5.003,-2.224 -1.567,-2.005 -1.288,-4.833 -0.778,-6.849 L 81.109,80.1 81.132,80.009 c 0.045,-0.185 0.102,-0.37 0.151,-0.551 h 57.385 c 2.243,0 3.916,0.525 4.708,1.476 0.94,1.129 0.823,3.043 0.563,4.452 l -18.822,100.916 c -0.521,2.809 -1.642,3.783 -4.629,4.021 l -11.033,0.895 v -4.674 z M 211.483,93.387 H 150.04 l 1.235,-6.634 c 1.008,-5.396 -0.619,-8.737 -2.156,-10.591 -0.978,-1.174 -2.537,-2.488 -4.943,-3.323 V 36.758 c 33.684,0 61.749,24.509 67.307,56.629 M 144.176,29.293 c -15.213,0 -30.803,4.863 -43.905,13.699 C 88.796,50.729 80.327,60.855 75.902,71.99 H 75.823 60.104 c -8.503,0 -13.381,4.444 -13.381,12.192 V 187.22 c 0,9.16 5.966,15.315 14.846,15.315 a 20.46,20.46 0 0 0 1.654,-0.068 l 38.762,-3.149 v 10.493 c 0,7.944 6.46,14.405 14.401,14.405 h 64.011 c 7.944,0 14.405,-6.46 14.405,-14.405 v -10.667 c 0,-28.379 9.772,-47.058 16.236,-59.416 2.364,-4.516 4.229,-8.084 5.241,-11.282 2.435,-7.71 3.674,-15.575 3.674,-23.376 0,-41.783 -33.994,-75.777 -75.777,-75.777 m -46.201,72.304 a 8.71,8.71 0 0 0 -8.707,8.703 8.71,8.71 0 0 0 8.707,8.707 8.71,8.71 0 0 0 8.703,-8.707 8.71,8.71 0 0 0 -8.703,-8.703"
     fill="#ecece7"
     id="path2" />
</svg>
