<?xml version="1.0" encoding="UTF-8" standalone="no"?>
<svg
   width="265"
   height="265"
   fill-rule="evenodd"
   version="1.1"
   id="svg2"
   xmlns="http://www.w3.org/2000/svg"
   xmlns:svg="http://www.w3.org/2000/svg">
  <defs
     id="defs2" />
  <path
     d="M 0,132.501 C 0,59.321 59.321,0 132.5,0 205.679,0 265,59.32 265,132.5 265,205.68 205.68,265 132.5,265 59.32,265 0,205.685 0,132.501"
     fill="#005387"
     fill-rule="nonzero"
     id="path1" />
  <path
     d="M 65.01,110.837 C 75.33,98.059 80.297,77.663 79.908,49.657 l 22.974,-5.851 27.539,62.004 v 58.337 H 98.85 V 47.079 l -13.625,3.475 v 113.593 h -18.03 v 13.63 h 63.227 V 189.14 H 67.195 v 13.63 h 63.227 v 8.658 h -65.41 v -100.586 -0.003 z m 134.978,0 v 100.586 h -65.41 v -8.658 h 63.231 v -13.63 h -63.231 v -11.363 h 63.231 v -13.63 H 179.78 V 50.55 L 166.146,47.08 V 164.148 H 134.58 V 105.81 l 27.539,-62.004 22.969,5.851 c -0.385,28.006 4.583,48.402 14.902,61.18 z m -88.975,-58.79 c 14.376,5.109 28.692,5.119 42.958,0.032 l -21.472,48.333 -21.486,-48.365"
     fill="#ecece7"
     id="path2" />
</svg>
