<?xml version="1.0" encoding="UTF-8" standalone="no"?>
<svg
   width="265"
   height="265"
   fill-rule="evenodd"
   version="1.1"
   id="svg2"
   xmlns="http://www.w3.org/2000/svg"
   xmlns:svg="http://www.w3.org/2000/svg">
  <defs
     id="defs2" />
  <path
     d="M 265,132.5 C 265,59.322 205.677,0 132.5,0 59.323,0 0,59.322 0,132.5 0,205.678 59.323,265 132.5,265 205.677,265 265,205.678 265,132.5"
     fill="#005387"
     id="path1" />
  <path
     d="m 206.339,101.033 h 31.731 c 2.968,9.972 4.569,20.531 4.569,31.467 a 110.94,110.94 0 0 1 -1.32,17.08 h -34.981 z m -179.797,1.302 a 110.22,110.22 0 0 0 -4.182,30.165 110.98,110.98 0 0 0 1.13,15.778 h 39.379 v 8.661 h 27.225 l 8.089,-8.661 h 23.8 a 3.5,3.5 0 0 0 3.489,-3.489 v -38.966 a 3.5,3.5 0 0 0 -3.489,-3.489 h -23.8 L 90.094,93.673 H 62.869 v 8.661 z m 116.91,-9.031 H 197.4 c 2.765,0 5.029,2.262 5.029,5.028 v 53.948 c 0,2.766 -2.263,5.029 -5.029,5.029 h -53.948 c -2.765,0 -5.028,-2.262 -5.028,-5.029 V 98.332 c 0,-2.765 2.263,-5.028 5.028,-5.028 z m 42.09,16.886 v 30.232 H 155.31 V 110.19 Z m -3.079,3.079 h -24.075 v 24.075 h 24.075 z M 67.939,98.995 h 6.117 v 52.622 h -6.117 z m 34.343,13.062 h 15.359 v 25.975 H 102.282 Z M 80.901,167.17 125.072,194.578 81.207,221.81 77.18,215.242 104.787,198.43 H 43.979 v -7.704 h 60.809 L 76.874,173.737 Z m 103.121,0 -44.172,27.408 43.865,27.232 4.027,-6.568 -27.608,-16.812 h 60.809 v -7.704 h -60.809 l 27.914,-16.989 z"
     fill="#ecece7"
     id="path2" />
</svg>
