<?xml version="1.0" encoding="UTF-8" standalone="no"?>
<svg
   height="264.56601"
   width="264.56735"
   version="1.1"
   id="svg22"
   xmlns="http://www.w3.org/2000/svg"
   xmlns:svg="http://www.w3.org/2000/svg">
  <defs
     id="defs22" />
  <clipPath
     id="a">
    <path
       d="M 44.87,471.68 H 273.11 V 699.921 H 44.87 Z"
       id="path1" />
  </clipPath>
  <g
     clip-path="url(#a)"
     fill-rule="evenodd"
     transform="matrix(1.33333,0,0,-1.33333,-79.702467,913.34838)"
     id="g22">
    <path
       d="m 0,0 c 54.79,0 99.213,44.438 99.213,99.177 0,54.81 -44.423,99.248 -99.213,99.248 -54.79,0 -99.213,-44.438 -99.213,-99.248 C -99.213,44.438 -54.79,0 0,0"
       fill="#005387"
       transform="translate(158.99,486.588)"
       id="path2" />
    <g
       fill="#ecece7"
       id="g21">
      <path
         d="M 0,0 19.295,13.654 24.787,5.88 5.493,-7.773 Z"
         transform="translate(147.41,597.617)"
         id="path3" />
      <path
         d="m 0,0 -0.031,-0.72 -0.095,-0.72 -0.14,-0.703 -0.219,-0.704 -0.25,-0.672 -0.329,-0.641 -0.36,-0.626 -0.423,-0.594 -0.469,-0.548 -0.517,-0.515 -0.547,-0.47 -0.595,-0.422 -0.61,-0.36 -0.658,-0.329 -0.673,-0.25 -0.688,-0.218 -0.72,-0.141 -0.704,-0.095 -0.736,-0.03 -0.719,0.03 -0.72,0.095 -0.704,0.141 -0.689,0.218 -0.673,0.25 -0.657,0.329 -0.626,0.36 -0.579,0.422 -0.548,0.47 -0.516,0.515 -0.47,0.548 -0.422,0.594 -0.376,0.626 -0.313,0.641 -0.266,0.672 -0.203,0.704 -0.141,0.703 -0.094,0.72 -0.031,0.72 v 31.421 l 0.031,0.719 0.094,0.72 0.141,0.72 0.203,0.688 0.266,0.672 0.313,0.657 0.376,0.61 0.422,0.594 0.47,0.548 0.516,0.515 0.548,0.469 0.579,0.423 0.626,0.36 0.657,0.328 0.673,0.25 0.689,0.22 0.704,0.14 0.72,0.094 0.719,0.031 0.736,-0.031 0.704,-0.094 0.72,-0.14 0.688,-0.22 0.673,-0.25 0.658,-0.328 0.61,-0.36 0.595,-0.423 0.547,-0.469 0.517,-0.515 0.469,-0.548 0.423,-0.594 0.36,-0.61 0.329,-0.657 0.25,-0.672 0.219,-0.688 0.14,-0.72 0.095,-0.72 L 0,31.421 Z"
         transform="translate(156.017,559.549)"
         id="path4" />
      <path
         d="m 182.588,556.233 h -10.86 v -29.904 h 10.86 z"
         id="path5" />
      <path
         d="m 147.253,561.676 h 29.905 v -10.885 h -29.905 z"
         id="path6" />
      <path
         d="M 0,0 -4.836,23.163 4.475,25.102 9.31,1.955 Z"
         transform="translate(164.796,606.406)"
         id="path7" />
      <path
         d="m 0,0 19.937,14.843 0.14,-0.563 0.204,-0.564 0.266,-0.547 0.313,-0.501 0.344,-0.484 0.407,-0.438 0.438,-0.407 0.485,-0.344 0.501,-0.312 L 3.099,-4.176 Z"
         transform="translate(104.533,556.452)"
         id="path8" />
      <path
         d="m 0,0 -13.161,35.769 -0.14,0.438 -0.078,0.438 -0.016,0.469 0.031,0.454 0.078,0.437 0.141,0.438 0.188,0.423 0.251,0.375 0.281,0.36 0.329,0.328 0.359,0.266 0.392,0.234 0.422,0.188 53.972,19.863 -6.164,16.782 -4.883,-1.799 4.381,-11.902 -49.106,-18.079 -0.656,-0.266 -0.626,-0.313 -0.595,-0.376 -0.564,-0.406 -0.547,-0.454 -0.501,-0.5 -0.454,-0.532 -0.407,-0.579 -0.375,-0.594 -0.313,-0.626 -0.282,-0.657 -0.204,-0.672 -0.171,-0.688 -0.11,-0.688 -0.063,-0.704 v -0.704 l 0.063,-0.704 0.11,-0.688 0.156,-0.688 0.219,-0.673 13.176,-35.769 0.438,0.407 0.47,0.344 0.516,0.313 0.532,0.266 0.564,0.204 0.563,0.156 0.595,0.094 0.594,0.031 z"
         transform="translate(130.994,578.66)"
         id="path9" />
      <path
         d="M 0,0 -0.986,0.031 -1.972,0.109 -2.957,0.25 -3.912,0.454 -4.867,0.72 -5.806,1.016 -6.729,1.392 -7.621,1.799 -8.498,2.268 -9.342,2.8 l -0.814,0.563 -0.767,0.61 -0.735,0.657 -0.704,0.704 -0.658,0.734 -0.61,0.782 -0.563,0.798 -0.533,0.845 -0.469,0.876 -0.407,0.891 -0.376,0.923 -0.296,0.938 -0.267,0.954 -0.203,0.97 -0.141,0.97 -0.078,0.985 -0.032,1.001 v 8.023 l 2.629,1.955 0.595,-0.046 0.595,0.031 0.579,0.078 0.578,0.125 0.58,0.187 0.532,0.251 0.516,0.297 V 17.001 l 0.032,-0.782 0.093,-0.767 0.141,-0.766 0.204,-0.751 0.25,-0.735 0.313,-0.719 0.36,-0.673 0.423,-0.672 0.453,-0.61 0.501,-0.594 0.563,-0.548 0.58,-0.516 0.625,-0.454 0.658,-0.422 0.688,-0.359 0.72,-0.314 0.72,-0.25 L -2.316,6.866 -1.549,6.725 -0.783,6.632 0,6.6 H 24.428 V 0 Z"
         transform="translate(144.17,539.467)"
         id="path10" />
      <path
         d="M 0,0 6.604,2.424 V 33.673 L 4.381,32.922 2.175,32.093 0,31.202 Z"
         transform="translate(127.176,629.444)"
         id="path11" />
      <path
         d="m 0,0 v 44.606 l -6.604,-2.44 V 16.797 L -0.532,0.313 Z"
         transform="translate(133.78,577.707)"
         id="path12" />
      <path
         d="m 0,0 -20.234,12.903 7.793,1.72 -0.265,1.565 -0.33,1.532 -0.375,1.548 -0.438,1.518 -0.501,1.485 -0.563,1.486 -0.611,1.455 -0.657,1.439 -0.72,1.407 -0.766,1.376 -0.83,1.346 -0.876,1.313 -0.923,1.283 -0.971,1.251 -1.017,1.204 -1.064,1.173 -1.096,1.127 -1.157,1.094 -1.189,1.032 11.58,13.717 1.423,-1.236 1.393,-1.298 1.346,-1.329 1.299,-1.377 1.267,-1.423 1.205,-1.454 1.174,-1.487 1.126,-1.532 1.065,-1.564 1.017,-1.611 0.97,-1.626 0.924,-1.658 0.86,-1.69 0.813,-1.72 0.751,-1.736 0.689,-1.767 0.643,-1.783 0.593,-1.799 0.517,-1.829 0.47,-1.831 0.422,-1.861 0.344,-1.861 7.793,1.736 z"
         transform="translate(200.553,586.528)"
         id="path13" />
      <path
         d="M 0,0 -0.016,0.422 -0.11,0.845 -0.251,1.251 -0.438,1.642 -0.673,2.002 -0.97,2.33 -1.283,2.611 -1.644,2.862 -2.035,3.05 -2.441,3.19 -2.864,3.269 -3.302,3.3 -3.725,3.269 -4.163,3.19 -4.569,3.05 -4.945,2.862 -5.305,2.611 -5.634,2.33 -5.916,2.002 -6.166,1.642 -6.354,1.251 -6.494,0.845 -6.573,0.422 -6.604,0 l 0.031,-0.438 0.079,-0.422 0.14,-0.407 0.188,-0.391 0.25,-0.36 0.282,-0.328 0.329,-0.282 0.36,-0.234 0.376,-0.203 0.406,-0.141 0.438,-0.078 0.423,-0.032 0.438,0.032 0.423,0.078 0.406,0.141 0.391,0.203 0.361,0.234 0.313,0.282 0.297,0.328 0.235,0.36 0.187,0.391 0.141,0.407 0.094,0.422 z"
         transform="translate(133.78,572.545)"
         id="path14" />
      <path
         d="M 0,0 -0.032,0.532 -0.125,1.048 -0.266,1.564 -0.47,2.064 -0.736,2.534 -1.049,2.956 -1.393,3.363 -1.8,3.723 -2.238,4.02 -2.692,4.285 -3.193,4.489 -3.709,4.629 -4.226,4.723 -4.757,4.754 -5.289,4.723 -5.822,4.629 -6.338,4.489 -6.823,4.285 -7.292,4.02 -7.731,3.723 -8.122,3.363 -8.482,2.956 -8.795,2.534 -9.045,2.064 -9.249,1.564 -9.405,1.048 -9.484,0.532 -9.514,0 l 0.03,-0.532 0.079,-0.531 0.156,-0.517 0.204,-0.485 0.25,-0.469 0.313,-0.438 0.36,-0.39 0.391,-0.361 0.439,-0.312 0.469,-0.251 0.485,-0.203 0.516,-0.156 0.533,-0.079 0.532,-0.03 0.531,0.03 0.517,0.079 0.516,0.156 0.501,0.203 0.454,0.251 0.438,0.312 0.407,0.361 0.344,0.39 0.313,0.438 0.266,0.469 0.204,0.485 0.141,0.517 0.093,0.531 z"
         transform="translate(169.381,630.539)"
         id="path15" />
      <path
         d="m 0,0 -0.033,0.532 -0.093,0.516 -0.141,0.517 -0.203,0.5 -0.267,0.469 -0.297,0.422 -0.36,0.407 -0.406,0.344 -0.423,0.313 -0.47,0.265 -0.5,0.204 -0.516,0.14 L -4.226,4.723 -4.758,4.755 -5.29,4.723 -5.823,4.629 -6.338,4.489 -6.824,4.285 -7.293,4.02 -7.732,3.707 -8.122,3.363 -8.483,2.956 -8.795,2.534 -9.046,2.065 -9.249,1.565 -9.39,1.048 -9.484,0.532 -9.515,0 l 0.031,-0.531 0.094,-0.532 0.141,-0.517 0.203,-0.484 0.251,-0.47 0.312,-0.437 0.361,-0.391 0.39,-0.36 0.439,-0.313 0.469,-0.25 0.486,-0.203 0.515,-0.157 0.533,-0.094 0.532,-0.015 0.532,0.015 0.517,0.094 0.516,0.157 0.5,0.203 0.47,0.25 0.423,0.313 0.406,0.36 0.36,0.391 0.297,0.437 0.267,0.47 0.203,0.484 0.141,0.517 0.093,0.532 z"
         transform="translate(174.217,607.391)"
         id="path16" />
      <path
         d="M 0,0 -0.032,0.532 -0.11,1.064 -0.266,1.58 -0.47,2.065 -0.72,2.534 -1.033,2.972 -1.393,3.379 -1.785,3.723 -2.223,4.035 -2.692,4.286 -3.177,4.505 -3.693,4.646 -4.225,4.74 -4.758,4.771 -5.289,4.74 -5.806,4.646 -6.322,4.505 -6.823,4.286 -7.293,4.035 -7.715,3.723 -8.122,3.379 -8.482,2.972 -8.779,2.534 -9.045,2.065 -9.249,1.58 -9.39,1.064 -9.483,0.532 -9.515,0 l 0.032,-0.531 0.093,-0.517 0.141,-0.516 0.204,-0.5 0.266,-0.454 0.297,-0.437 0.36,-0.408 0.407,-0.343 0.422,-0.313 0.47,-0.266 0.501,-0.203 0.516,-0.141 0.517,-0.094 0.531,-0.031 0.533,0.031 0.532,0.094 0.516,0.141 0.485,0.203 0.469,0.266 0.438,0.313 0.392,0.343 0.36,0.408 0.313,0.437 0.25,0.454 0.204,0.5 0.156,0.516 0.078,0.517 z"
         transform="translate(154.906,593.722)"
         id="path17" />
      <path
         d="m 0,0 -0.031,0.75 -0.078,0.735 -0.157,0.735 -0.188,0.72 -0.266,0.703 -0.313,0.673 -0.36,0.657 -0.422,0.61 -0.454,0.595 -0.517,0.547 -0.548,0.5 -0.579,0.47 -0.626,0.422 -0.656,0.36 -0.673,0.312 -0.704,0.25 -0.721,0.204 -0.735,0.156 -0.735,0.078 -0.752,0.032 -0.735,-0.032 -0.751,-0.078 -0.736,-0.156 -0.719,-0.204 -0.689,-0.25 -0.689,-0.312 -0.641,-0.36 -0.626,-0.422 -0.595,-0.47 -0.547,-0.5 -0.501,-0.547 -0.47,-0.595 -0.407,-0.61 -0.36,-0.657 L -18.294,3.643 -18.559,2.94 -18.763,2.22 -18.904,1.485 -18.998,0.75 -19.029,0 l 0.031,-0.751 0.094,-0.735 0.141,-0.735 0.204,-0.719 0.265,-0.705 0.313,-0.672 0.36,-0.657 0.407,-0.626 0.47,-0.578 0.501,-0.548 0.547,-0.516 0.595,-0.453 0.626,-0.423 0.641,-0.36 0.689,-0.312 0.689,-0.266 0.719,-0.203 0.736,-0.141 0.751,-0.094 0.735,-0.015 0.752,0.015 0.735,0.094 0.735,0.141 0.721,0.203 0.704,0.266 0.673,0.312 0.656,0.36 0.626,0.423 0.579,0.453 0.548,0.516 0.517,0.548 0.454,0.578 0.422,0.626 0.36,0.657 0.313,0.672 0.266,0.705 0.188,0.719 0.157,0.735 0.078,0.735 z"
         transform="translate(156.768,611.959)"
         id="path18" />
      <path
         d="M 0,0 -0.031,0.563 -0.125,1.126 -0.266,1.673 -0.47,2.206 -0.735,2.722 -1.048,3.191 -1.408,3.644 -1.799,4.036 -2.238,4.395 -2.723,4.708 -3.224,4.974 -3.755,5.177 -4.303,5.318 -4.867,5.412 -5.446,5.443 -6.009,5.412 -6.572,5.318 -7.12,5.177 -7.652,4.974 -8.153,4.708 -8.638,4.395 -9.076,4.036 -9.483,3.644 -9.843,3.191 -10.156,2.722 -10.406,2.206 -10.609,1.673 -10.75,1.126 -10.844,0.563 -10.875,0 l 0.031,-0.563 0.094,-0.562 0.141,-0.548 0.203,-0.532 0.25,-0.516 0.313,-0.469 0.36,-0.454 0.407,-0.391 0.438,-0.359 0.485,-0.314 0.501,-0.265 0.532,-0.203 0.548,-0.141 0.563,-0.095 0.563,-0.03 0.579,0.03 0.564,0.095 0.548,0.141 0.531,0.203 0.501,0.265 0.485,0.314 0.439,0.359 0.391,0.391 0.36,0.454 0.313,0.469 0.265,0.516 0.204,0.532 0.141,0.548 0.094,0.562 z"
         transform="translate(152.699,556.232)"
         id="path19" />
      <path
         d="M 0,0 -0.016,0.563 -0.11,1.126 -0.266,1.673 -0.469,2.206 -0.72,2.722 -1.032,3.191 -1.393,3.644 -1.799,4.036 -2.238,4.395 -2.707,4.708 -3.224,4.974 -3.755,5.177 -4.303,5.318 -4.866,5.412 -5.43,5.443 -5.993,5.412 -6.557,5.318 -7.105,5.177 -7.636,4.974 -8.153,4.708 -8.622,4.395 -9.061,4.036 -9.467,3.644 -9.827,3.191 -10.14,2.722 -10.391,2.206 -10.594,1.673 -10.75,1.126 -10.828,0.563 -10.86,0 l 0.032,-0.563 0.078,-0.562 0.156,-0.548 0.203,-0.532 0.251,-0.516 0.313,-0.469 0.36,-0.454 0.406,-0.391 0.439,-0.359 0.469,-0.314 0.517,-0.265 0.531,-0.203 0.548,-0.141 0.564,-0.095 0.563,-0.03 0.564,0.03 0.563,0.095 0.548,0.141 0.531,0.203 0.517,0.265 0.469,0.314 0.439,0.359 0.406,0.391 0.361,0.454 0.312,0.469 0.251,0.516 0.203,0.532 0.156,0.548 0.094,0.562 z"
         transform="translate(182.588,556.232)"
         id="path20" />
      <path
         d="M 0,0 -0.016,0.564 -0.11,1.126 -0.266,1.69 -0.469,2.221 -0.72,2.722 -1.032,3.191 -1.393,3.645 -1.799,4.035 -2.238,4.396 -2.707,4.708 -3.224,4.974 -3.755,5.178 -4.303,5.319 -4.866,5.412 -5.43,5.444 -5.993,5.412 -6.557,5.319 -7.105,5.178 -7.636,4.974 -8.153,4.708 -8.622,4.396 -9.061,4.035 -9.467,3.645 -9.827,3.191 -10.14,2.722 -10.391,2.221 -10.594,1.69 -10.75,1.126 -10.828,0.564 -10.86,0 l 0.032,-0.562 0.078,-0.564 0.156,-0.547 0.203,-0.532 0.251,-0.516 0.313,-0.469 0.36,-0.438 0.406,-0.407 0.439,-0.359 0.469,-0.313 0.517,-0.251 0.531,-0.203 0.548,-0.156 0.564,-0.094 0.563,-0.016 0.564,0.016 0.563,0.094 0.548,0.156 0.531,0.203 0.517,0.251 0.469,0.313 0.439,0.359 0.406,0.407 0.361,0.438 0.312,0.469 0.251,0.516 0.203,0.532 0.156,0.547 0.094,0.564 z"
         transform="translate(182.588,526.329)"
         id="path21" />
    </g>
  </g>
</svg>
