<?xml version="1.0" encoding="UTF-8" standalone="no"?>
<svg
   height="264.56601"
   width="264.56735"
   version="1.1"
   id="svg14"
   xmlns="http://www.w3.org/2000/svg"
   xmlns:svg="http://www.w3.org/2000/svg">
  <defs
     id="defs14" />
  <clipPath
     id="a">
    <path
       d="m 78.886,479.36 h 228.24 V 707.6 H 78.886 Z"
       id="path1" />
  </clipPath>
  <g
     clip-path="url(#a)"
     fill-rule="evenodd"
     stroke-width="0.999999"
     transform="matrix(1.33333,0,0,-1.33333,-125.05702,923.58569)"
     id="g14">
    <path
       d="m 0,0 c 54.79,0 99.213,44.438 99.213,99.177 0,54.81 -44.423,99.248 -99.213,99.248 -54.79,0 -99.213,-44.438 -99.213,-99.248 C -99.213,44.438 -54.79,0 0,0"
       fill="#005387"
       transform="translate(193.006,494.266)"
       id="path2" />
    <g
       fill="#ecece7"
       id="g13">
      <path
         d="m 0,0 -13.909,20.171 -8.12,-5.596 13.924,-20.17 z"
         transform="translate(181.763,603.63)"
         id="path3" />
      <path
         d="m 0,0 -0.029,-0.703 -0.074,-0.717 -0.146,-0.689 -0.19,-0.688 -0.25,-0.674 -0.293,-0.645 -0.352,-0.615 -0.396,-0.601 -0.439,-0.556 -0.484,-0.528 -0.528,-0.483 -0.556,-0.439 -0.587,-0.396 -0.63,-0.352 -0.645,-0.292 -0.659,-0.25 -0.689,-0.19 -0.704,-0.132 -0.704,-0.088 -0.703,-0.029 -0.718,0.029 -0.704,0.088 -0.703,0.132 -0.689,0.19 -0.66,0.25 -0.645,0.292 -0.63,0.352 -0.586,0.396 -0.557,0.439 -0.528,0.483 -0.483,0.528 -0.44,0.556 -0.396,0.601 -0.351,0.615 -0.293,0.645 -0.249,0.674 -0.191,0.688 -0.147,0.689 -0.073,0.717 L -18.13,0 v 32.563 l 0.029,0.718 0.073,0.703 0.147,0.703 0.191,0.689 0.249,0.659 0.293,0.645 0.351,0.629 0.396,0.586 0.44,0.557 0.483,0.527 0.528,0.484 0.557,0.439 0.586,0.396 0.63,0.351 0.645,0.293 0.66,0.249 0.689,0.191 0.703,0.146 0.704,0.088 0.718,0.015 0.703,-0.015 0.704,-0.088 0.704,-0.146 0.689,-0.191 0.659,-0.249 0.645,-0.293 0.63,-0.351 0.587,-0.396 0.556,-0.439 0.528,-0.484 0.484,-0.527 0.439,-0.557 0.396,-0.586 0.352,-0.629 0.293,-0.645 0.25,-0.659 0.19,-0.689 0.146,-0.703 0.074,-0.703 L 0,32.563 Z"
         transform="translate(169.451,586.081)"
         id="path4" />
      <path
         d="m 191.378,588.279 h -30.985 v -11.265 h 30.985 z"
         id="path5" />
      <path
         d="M 0,0 -20.418,13.55 -25.87,5.332 -5.454,-8.218 Z"
         transform="translate(200.862,591.384)"
         id="path6" />
      <path
         d="m 0,0 v 6.343 h -23.48 l -0.747,0.029 -0.734,0.088 -0.732,0.132 -0.733,0.205 -0.704,0.234 -0.674,0.308 -0.66,0.352 -0.645,0.395 -0.586,0.44 -0.572,0.483 -0.527,0.527 -0.484,0.572 -0.454,0.6 -0.396,0.63 -0.337,0.659 -0.308,0.689 -0.249,0.703 -0.19,0.718 -0.133,0.732 -0.088,0.747 -0.029,0.747 v 77.929 l -1.627,-1.157 -1.612,-1.201 -1.568,-1.231 -1.539,-1.274 V 16.333 l 0.029,-0.952 0.074,-0.952 0.146,-0.938 0.19,-0.937 0.25,-0.908 0.293,-0.908 0.351,-0.879 0.396,-0.865 0.455,-0.835 0.498,-0.805 0.543,-0.777 0.6,-0.747 0.631,-0.703 0.659,-0.674 0.718,-0.63 0.748,-0.6 0.776,-0.542 0.807,-0.498 0.835,-0.454 0.865,-0.396 0.879,-0.351 0.895,-0.293 0.923,-0.249 0.938,-0.191 0.938,-0.146 L -24.433,0.03 -23.48,0 Z"
         transform="translate(180.239,566.13)"
         id="path7" />
      <path
         d="M 0,0 18.145,-18.149 H 9.073 V -35.39 H -9.058 v 17.241 h -9.072 z"
         transform="translate(244.319,631.301)"
         id="path8" />
      <path
         d="M 0,0 0.161,-0.762 0.263,-1.538 0.307,-2.314 0.293,-3.091 0.219,-3.867 0.088,-4.629 l -0.176,-0.762 -0.235,-0.747 -0.293,-0.717 -0.337,-0.704 -0.396,-0.673 -0.439,-0.63 -0.485,-0.615 -0.527,-0.572 -0.571,-0.527 -0.616,-0.483 -0.631,-0.44 -0.673,-0.395 -0.704,-0.352 -84.321,-37.807 -1.481,3.311 40.351,18.091 -12.678,28.27 10.274,4.614 12.693,-28.271 34.473,15.469 0.542,0.263 0.499,0.308 0.484,0.352 0.439,0.395 0.41,0.44 0.382,0.468 0.322,0.484 0.279,0.527 0.249,0.542 0.19,0.571 0.132,0.572 0.088,0.6 0.044,0.586 -0.014,0.601 -0.06,0.586 -0.117,0.586 -0.674,2.754 2.698,1.215 z"
         transform="translate(250.358,580.72)"
         id="path9" />
      <path
         d="M 0,0 -0.029,0.513 -0.103,1.025 -0.235,1.523 -0.425,2.007 -0.659,2.476 -0.939,2.9 -1.261,3.296 -1.627,3.662 -2.037,3.999 -2.463,4.277 -2.932,4.512 -3.401,4.687 -3.899,4.819 -4.412,4.907 -4.925,4.936 -5.438,4.907 -5.951,4.819 -6.449,4.687 -6.933,4.512 -7.402,4.277 -7.826,3.999 -8.222,3.662 -8.589,3.296 -8.912,2.9 -9.205,2.476 -9.439,2.007 -9.615,1.523 -9.747,1.025 -9.835,0.513 -9.864,0 l 0.029,-0.513 0.088,-0.512 0.132,-0.498 0.176,-0.484 0.234,-0.454 0.293,-0.439 0.323,-0.396 0.367,-0.366 0.396,-0.322 0.424,-0.279 0.469,-0.234 0.484,-0.191 0.498,-0.131 0.513,-0.074 0.513,-0.029 0.513,0.029 0.513,0.074 0.498,0.131 0.469,0.191 0.469,0.234 0.426,0.279 0.41,0.322 0.366,0.366 0.322,0.396 0.28,0.439 0.234,0.454 0.19,0.484 0.132,0.498 0.074,0.512 z"
         transform="translate(203.06,587.268)"
         id="path10" />
      <path
         d="M 0,0 -0.029,0.513 -0.103,1.025 -0.249,1.524 -0.425,1.992 -0.66,2.461 -0.939,2.886 -1.261,3.296 -1.627,3.662 -2.037,3.984 -2.463,4.263 -2.932,4.497 -3.401,4.688 -3.899,4.82 -4.412,4.892 -4.925,4.922 -5.453,4.892 -5.951,4.82 -6.449,4.688 -6.933,4.497 -7.402,4.263 -7.827,3.984 -8.223,3.662 -8.589,3.296 -8.926,2.886 -9.205,2.461 -9.439,1.992 -9.615,1.524 -9.747,1.025 -9.835,0.513 -9.864,0 l 0.029,-0.527 0.088,-0.498 0.132,-0.498 0.176,-0.483 0.234,-0.469 0.279,-0.425 0.337,-0.41 0.366,-0.352 0.396,-0.337 0.425,-0.278 0.469,-0.234 0.484,-0.176 0.498,-0.147 0.498,-0.073 0.528,-0.029 0.513,0.029 0.513,0.073 0.498,0.147 0.469,0.176 0.469,0.234 0.426,0.278 0.41,0.337 0.366,0.352 0.322,0.41 0.279,0.425 0.235,0.469 0.176,0.483 0.146,0.498 0.074,0.498 z"
         transform="translate(182.643,600.832)"
         id="path11" />
      <path
         d="m 0,0 -0.029,0.732 -0.073,0.732 -0.147,0.733 -0.19,0.703 -0.235,0.704 -0.293,0.673 -0.352,0.645 -0.396,0.63 -0.44,0.6 -0.469,0.556 -0.527,0.514 -0.557,0.483 -0.601,0.44 L -4.925,8.54 -5.584,8.876 -6.259,9.17 -6.947,9.419 -7.666,9.609 -8.384,9.741 -9.117,9.829 -9.85,9.858 -10.597,9.829 -11.33,9.741 -12.048,9.609 -12.766,9.419 -13.455,9.17 -14.129,8.876 -14.788,8.54 -15.404,8.145 -16.005,7.705 -16.562,7.222 -17.09,6.708 -17.559,6.152 -17.999,5.552 -18.395,4.922 -18.746,4.277 -19.039,3.604 -19.273,2.9 -19.464,2.197 -19.611,1.464 -19.684,0.732 -19.713,0 l 0.029,-0.732 0.073,-0.733 0.147,-0.733 0.191,-0.717 0.234,-0.689 0.293,-0.673 0.351,-0.66 0.396,-0.615 0.44,-0.6 0.469,-0.557 0.528,-0.527 0.557,-0.469 0.601,-0.44 0.616,-0.395 0.659,-0.352 0.674,-0.293 0.689,-0.234 0.718,-0.19 0.718,-0.147 0.733,-0.073 0.747,-0.029 0.733,0.029 0.733,0.073 0.718,0.147 0.719,0.19 0.688,0.234 0.675,0.293 0.659,0.352 0.616,0.395 0.601,0.44 0.557,0.469 0.527,0.527 0.469,0.557 0.44,0.6 0.396,0.615 0.352,0.66 0.293,0.673 0.235,0.689 0.19,0.717 0.147,0.733 0.073,0.733 z"
         transform="translate(170.243,640.398)"
         id="path12" />
      <path
         d="M 0,0 -0.029,0.542 -0.102,1.098 -0.234,1.626 -0.425,2.153 -0.659,2.651 -0.952,3.12 -1.274,3.574 -1.656,3.984 -2.052,4.35 -2.506,4.673 -2.975,4.966 -3.474,5.2 -4.001,5.39 -4.528,5.522 -5.085,5.595 -5.628,5.625 -6.185,5.595 -6.727,5.522 -7.269,5.39 -7.782,5.2 -8.295,4.966 -8.764,4.673 -9.204,4.35 -9.614,3.984 -9.981,3.574 -10.318,3.12 -10.597,2.651 -10.831,2.153 -11.021,1.626 -11.154,1.098 -11.242,0.542 -11.27,0 l 0.028,-0.557 0.088,-0.542 0.133,-0.542 0.19,-0.527 0.234,-0.498 0.279,-0.469 0.337,-0.44 0.367,-0.41 0.41,-0.381 0.44,-0.322 0.469,-0.293 0.513,-0.234 0.513,-0.191 0.542,-0.131 0.542,-0.074 0.557,-0.029 0.543,0.029 0.557,0.074 0.527,0.131 0.527,0.191 0.499,0.234 0.469,0.293 0.454,0.322 0.396,0.381 0.382,0.41 0.322,0.44 0.293,0.469 0.234,0.498 0.191,0.527 0.132,0.542 0.073,0.542 z"
         transform="translate(197.006,582.654)"
         id="path13" />
    </g>
  </g>
</svg>
