<?xml version="1.0" encoding="UTF-8" standalone="no"?>
<svg
   height="264.56601"
   width="264.56735"
   version="1.1"
   id="svg11"
   xmlns="http://www.w3.org/2000/svg"
   xmlns:svg="http://www.w3.org/2000/svg">
  <defs
     id="defs11" />
  <path
     d="m 132.28367,264.56601 c 73.05315,0 132.28367,-59.25052 132.28367,-132.23567 C 264.56734,59.250519 205.33682,0 132.28367,0 59.230519,0 0,59.250519 0,132.33034 0,205.31549 59.230519,264.56601 132.28367,264.56601"
     fill="#005387"
     fill-rule="evenodd"
     id="path1"
     style="stroke-width:1.33333" />
  <path
     d="m 171.86367,65.723005 1.78133,1.705329 1.81733,1.670663 1.87466,1.613329 1.91199,1.55733 1.948,1.519996 1.98533,1.446663 2.02266,1.40933 2.07733,1.35333 0.31466,0.259999 0.27867,0.297332 0.22267,0.370666 0.14933,0.370666 0.0733,0.407999 v 0.426666 l -0.056,0.407999 -0.148,0.389332 -0.22266,0.351999 -0.25867,0.315999 -0.33467,0.26 -2.15199,1.371996 -2.208,1.31733 -2.22799,1.24133 -2.26266,1.206664 -2.29999,1.111997 -2.33867,1.057331 -2.35732,0.999997 -2.39333,0.927998 -2.41199,0.853331 -2.432,0.797332 -2.46666,0.723998 -2.46799,0.647998 -2.50533,0.593332 -2.50533,0.501332 -2.52266,0.445332 -2.52399,0.370666 -2.54266,0.314666 -2.55999,0.222666 -2.56133,0.149333 -2.56,0.092 -0.61333,-0.01867 -0.59333,-0.09333 -0.59333,-0.146666 -0.576,-0.222666 -0.53733,-0.278666 -0.52,-0.333333 -0.464,-0.389332 -0.42666,-0.426666 -0.37067,-0.482665 -0.33333,-0.519999 -0.26,-0.555998 -0.204,-0.574666 -0.13067,-0.593332 -0.0747,-0.611998 -1.70667,-26.371934 -0.0373,-0.01867 h -0.092 l -0.14933,0.03867 -0.204,0.036 -0.26,0.03733 -0.296,0.056 -0.35333,0.03733 -0.408,0.05467 -0.42667,0.03733 -0.48266,0.03733 -0.51867,0.01867 -0.53866,0.01867 -0.57467,-0.01867 -0.61333,-0.03733 -0.63067,-0.056 -0.64933,-0.092 -0.668,-0.112 -0.61199,-0.110666 -0.55734,-0.148 -0.53866,-0.129333 -0.46267,-0.149333 -0.42666,-0.166666 -0.38934,-0.149333 -0.33466,-0.148 -0.29733,-0.129333 -0.25867,-0.129333 -0.20533,-0.130666 -0.18534,-0.092 -0.12933,-0.09333 -0.0933,-0.07333 -0.0547,-0.03867 -0.02,-0.01733 -18.38795,21.678613 -0.464,0.501332 -0.5,0.443999 -0.55733,0.389332 -0.574667,0.334666 -0.613332,0.259999 -0.649331,0.222666 -0.649332,0.148 -0.667998,0.07467 -0.667999,0.01733 -0.667998,-0.05467 -0.667998,-0.130666 -0.649332,-0.184 -0.611999,-0.242666 -2.59866,-1.24133 -2.559993,-1.279997 -2.523994,-1.335997 -2.503994,-1.409329 -2.467994,-1.463997 -2.431994,-1.502663 -2.393327,-1.577329 -0.277332,-0.222666 -0.242667,-0.258666 -0.166666,-0.297333 -0.129333,-0.314666 -0.07333,-0.351999 -0.02,-0.353332 0.056,-0.333333 0.110666,-0.333332 0.149333,-0.314666 0.222666,-0.278666 0.26,-0.241333 6.64265,-5.19332 6.60665,-5.247987 6.549317,-5.322653 1.633329,-1.261331 1.669329,-1.222663 1.66933,-1.187997 1.68933,-1.149331 1.72532,-1.11333 1.76267,-1.074664 1.78133,-1.019998 1.83732,-0.982664 1.16933,-0.574665 1.18667,-0.538665 1.188,-0.518666 1.18799,-0.482665 1.20533,-0.445332 1.22533,-0.407999 1.224,-0.389333 1.22533,-0.351999 1.24266,-0.315999 1.244,-0.277333 1.24266,-0.259999 1.26133,-0.204 1.244,-0.185332 1.26133,-0.148 1.28,-0.112 1.26266,-0.09333 1.26133,-0.05467 h 1.28133 l 1.26133,0.01867 1.28,0.056 1.28,0.07333 1.26133,0.129333 1.28133,0.149333 1.26266,0.185333 1.26133,0.222666 1.26133,0.259999 1.26133,0.296 1.26266,0.333332 1.24267,0.353333 1.24266,0.407999 1.244,0.425332 1.22399,0.463999 0.79867,0.334666 0.77866,0.370665 0.76,0.389333 0.744,0.407999 0.74133,0.426665 0.724,0.463999 0.724,0.481332 0.704,0.482666 0.68799,0.518665 0.704,0.538665 1.356,1.130664 1.35333,1.167997 1.31733,1.242664 1.336,1.279997 1.31866,1.29733 1.31733,1.335996 1.33466,1.354664 1.356,1.35333 1.372,1.371996 1.39199,1.334664 z"
     fill="#ecece7"
     fill-rule="evenodd"
     id="path2"
     style="stroke-width:1.33333" />
  <path
     d="m 171.86367,65.723005 1.78133,1.705329 1.81733,1.670663 1.87466,1.613329 1.91199,1.55733 1.948,1.519996 1.98533,1.446663 2.02266,1.40933 2.07733,1.35333 0.31466,0.259999 0.27867,0.297332 0.22267,0.370666 0.14933,0.370666 0.0733,0.407999 v 0.426666 l -0.056,0.407999 -0.148,0.389332 -0.22266,0.351999 -0.25867,0.315999 -0.33467,0.26 -2.15199,1.371996 -2.208,1.31733 -2.22799,1.24133 -2.26266,1.206664 -2.29999,1.111997 -2.33867,1.057331 -2.35732,0.999997 -2.39333,0.927998 -2.41199,0.853331 -2.432,0.797332 -2.46666,0.723998 -2.46799,0.647998 -2.50533,0.593332 -2.50533,0.501332 -2.52266,0.445332 -2.52399,0.370666 -2.54266,0.314666 -2.55999,0.222666 -2.56133,0.149333 -2.56,0.092 -0.61333,-0.01867 -0.59333,-0.09333 -0.59333,-0.146666 -0.576,-0.222666 -0.53733,-0.278666 -0.52,-0.333333 -0.464,-0.389332 -0.42666,-0.426666 -0.37067,-0.482665 -0.33333,-0.519999 -0.26,-0.555998 -0.204,-0.574666 -0.13067,-0.593332 -0.0747,-0.611998 -1.70667,-26.371934 -0.0373,-0.01867 h -0.092 l -0.14933,0.03867 -0.204,0.036 -0.26,0.03733 -0.296,0.056 -0.35333,0.03733 -0.408,0.05467 -0.42667,0.03733 -0.48266,0.03733 -0.51867,0.01867 -0.53866,0.01867 -0.57467,-0.01867 -0.61333,-0.03733 -0.63067,-0.056 -0.64933,-0.092 -0.668,-0.112 -0.61199,-0.110666 -0.55734,-0.148 -0.53866,-0.129333 -0.46267,-0.149333 -0.42666,-0.166666 -0.38934,-0.149333 -0.33466,-0.148 -0.29733,-0.129333 -0.25867,-0.129333 -0.20533,-0.130666 -0.18534,-0.092 -0.12933,-0.09333 -0.0933,-0.07333 -0.0547,-0.03867 -0.02,-0.01733 -18.38795,21.678613 -0.464,0.501332 -0.5,0.443999 -0.55733,0.389332 -0.574667,0.334666 -0.613332,0.259999 -0.649331,0.222666 -0.649332,0.148 -0.667998,0.07467 -0.667999,0.01733 -0.667998,-0.05467 -0.667998,-0.130666 -0.649332,-0.184 -0.611999,-0.242666 -2.59866,-1.24133 -2.559993,-1.279997 -2.523994,-1.335997 -2.503994,-1.409329 -2.467994,-1.463997 -2.431994,-1.502663 -2.393327,-1.577329 -0.277332,-0.222666 -0.242667,-0.258666 -0.166666,-0.297333 -0.129333,-0.314666 -0.07333,-0.351999 -0.02,-0.353332 0.056,-0.333333 0.110666,-0.333332 0.149333,-0.314666 0.222666,-0.278666 0.26,-0.241333 6.64265,-5.19332 6.60665,-5.247987 6.549317,-5.322653 1.633329,-1.261331 1.669329,-1.222663 1.66933,-1.187997 1.68933,-1.149331 1.72532,-1.11333 1.76267,-1.074664 1.78133,-1.019998 1.83732,-0.982664 1.16933,-0.574665 1.18667,-0.538665 1.188,-0.518666 1.18799,-0.482665 1.20533,-0.445332 1.22533,-0.407999 1.224,-0.389333 1.22533,-0.351999 1.24266,-0.315999 1.244,-0.277333 1.24266,-0.259999 1.26133,-0.204 1.244,-0.185332 1.26133,-0.148 1.28,-0.112 1.26266,-0.09333 1.26133,-0.05467 h 1.28133 l 1.26133,0.01867 1.28,0.056 1.28,0.07333 1.26133,0.129333 1.28133,0.149333 1.26266,0.185333 1.26133,0.222666 1.26133,0.259999 1.26133,0.296 1.26266,0.333332 1.24267,0.353333 1.24266,0.407999 1.244,0.425332 1.22399,0.463999 0.79867,0.334666 0.77866,0.370665 0.76,0.389333 0.744,0.407999 0.74133,0.426665 0.724,0.463999 0.724,0.481332 0.704,0.482666 0.68799,0.518665 0.704,0.538665 1.356,1.130664 1.35333,1.167997 1.31733,1.242664 1.336,1.279997 1.31866,1.29733 1.31733,1.335996 1.33466,1.354664 1.356,1.35333 1.372,1.371996 1.39199,1.334664 z"
     fill="none"
     stroke="#005387"
     stroke-linecap="round"
     stroke-miterlimit="22.926"
     stroke-width="0.377332"
     id="path3" />
  <path
     d="m 186.16967,84.843005 -1.70666,1.019998 -1.70667,0.983997 -1.72532,0.945331 -1.74533,0.907998 -1.72533,0.853331 -1.76266,0.834665 -1.74533,0.778664 -1.76267,0.742665 -1.76132,0.685332 -1.78133,0.667998 -1.76267,0.630665 -1.78132,0.574666 -1.8,0.537332 -1.78266,0.519998 -1.8,0.462666 -1.79866,0.426665 -1.80133,0.390666 -1.79866,0.351999 -1.82,0.314666 -1.79866,0.278666 -1.81733,0.258666 -1.80133,0.203999 -1.81733,0.166667 -1.81999,0.149333 -1.81733,0.092 -1.81866,0.07467 -1.8,0.01867 h -1.81866 l -1.81866,-0.036 -1.8,-0.05733 -1.81866,-0.110666 -1.79866,-0.130666 -1.82,-0.184 -1.79866,-0.186666 -1.79999,-0.239999 -1.8,-0.278666 -1.78133,-0.296 -1.79999,-0.334665 -1.78133,-0.352 -1.78133,-0.389332 -1.78133,-0.426666 -1.76266,-0.463998 -1.76267,-0.482666 -1.76266,-0.499999 -1.74533,-0.555998 -1.74399,-0.574665 -1.744,-0.594666 -1.72533,-0.629331 L 98.940554,91.223 97.232558,90.537669 95.525896,89.832337 93.8379,89.091006 92.148571,88.311008 90.479242,87.513676 88.808579,86.697678 87.156583,85.84568 85.505921,84.972349 83.873925,84.064352 82.239262,83.137687 80.6446,82.172356 l -1.614663,-0.963997 -1.577329,-1.001331 -1.57733,-1.038664 -1.558662,-1.057331 -0.204,-0.110666 -0.203999,-0.110667 -0.204,-0.07467 -0.203999,-0.056 -0.222666,-0.03733 -0.204,-0.01867 h -0.426666 l -0.427999,0.056 -0.425332,0.112 -0.409332,0.147999 -0.389332,0.166667 -0.370666,0.185332 -0.315999,0.204 -0.316,0.185333 -0.239999,0.185333 -0.222666,0.147999 -0.149333,0.130667 -0.056,0.03733 -0.036,0.036 -0.03733,0.02 v 0.01733 l -0.351999,0.407999 -0.278666,0.409332 -0.241333,0.407999 -0.166666,0.406666 -0.130666,0.407999 -0.07467,0.426666 -0.03733,0.407998 0.01867,0.426666 0.056,0.407999 0.09333,0.407999 0.129333,0.407999 0.166667,0.407999 0.205332,0.407999 0.222667,0.407999 0.259999,0.389332 0.277333,0.389333 0.315999,0.389332 0.333332,0.390666 0.705332,0.741331 0.761331,0.703998 0.797332,0.667999 0.815998,0.649332 0.798664,0.574665 0.797332,0.537332 0.371999,0.259999 0.370665,0.222666 0.890665,0.518666 0.909331,0.463998 0.946664,0.407999 0.945331,0.351999 1.002664,0.297333 1.001331,0.259999 1.021331,0.204 1.057331,0.148 h 0.147999 l 0.149333,0.01867 h 0.222666 l 0.26,0.01867 0.277332,0.01867 0.611999,0.01867 0.631998,0.036 0.278666,0.01867 h 0.258666 l 0.205333,0.01867 h 0.166666 l 0.110667,0.01867 h 0.03733 l 0.426665,0.630665 0.445333,0.611998 0.482665,0.574666 0.519999,0.555998 0.611998,0.613332 0.649332,0.555999 0.686665,0.518665 0.686665,0.445332 0.723998,0.389333 0.722665,0.353332 0.761331,0.295999 0.778665,0.26 0.779998,0.222666 0.815998,0.166667 0.817331,0.12934 0.834665,0.092 0.834665,0.056 0.853331,0.0187 0.853331,-0.0187 0.873334,-0.036 0.44533,-0.0373 0.44533,-0.0747 0.42533,-0.0933 0.428,-0.110667 0.83467,-0.258667 0.83466,-0.242666 0.0187,0.02 0.0373,0.07333 0.0733,0.09333 0.0933,0.129333 0.112,0.166666 0.12933,0.185331 0.27867,0.372 0.26,0.38934 0.12933,0.18533 0.11066,0.148 0.0933,0.12933 0.0747,0.112 0.056,0.0547 0.0173,0.0373 0.29733,0.38933 0.316,0.39067 0.31466,0.36933 0.33467,0.33467 0.352,0.316 0.372,0.31466 0.37066,0.27867 0.39067,0.25866 0.38933,0.26 0.408,0.22267 0.42667,0.204 0.408,0.204 0.44533,0.16666 0.42666,0.16667 0.44534,0.13067 0.464,0.12933 0.92799,0.204 0.92667,0.12933 0.96533,0.0747 0.94666,0.0187 0.964,-0.0373 0.96533,-0.11066 0.96533,-0.14934 0.94667,-0.20266 0.81599,-0.22267 0.816,-0.29733 0.79867,-0.352 0.76133,-0.39067 h 0.0173 l 0.0373,0.0187 0.0747,0.0187 0.0933,0.0373 0.20267,0.0747 0.26,0.0733 0.26,0.0747 0.22267,0.0733 0.0747,0.0387 0.0733,0.0173 0.0373,0.0187 h 0.0187 l 1.89333,0.57466 1.92933,0.59467 0.96533,0.27733 0.984,0.24133 0.98266,0.22267 0.964,0.16666 0.984,0.12934 0.984,0.0747 h 0.96399 l 0.48267,-0.0373 0.48267,-0.0373 0.48266,-0.0733 0.48267,-0.0933 0.464,-0.11067 0.48266,-0.13066 0.464,-0.16667 0.46267,-0.18533 0.46399,-0.204 0.44534,-0.25867 0.57599,-0.35333 0.53734,-0.38933 0.52,-0.42667 0.46399,-0.48133 h 0.0187 l 0.0373,0.0173 0.11067,0.0373 0.16667,0.056 0.18666,0.056 0.204,0.0547 0.16667,0.056 0.11067,0.0373 0.0373,0.0187 0.89066,0.25867 0.90933,0.24133 0.90934,0.22267 0.90933,0.168 0.92799,0.12933 0.928,0.092 0.92667,0.056 h 0.91066 l 0.908,-0.056 0.90933,-0.11067 0.89066,-0.18533 0.872,-0.24133 0.428,-0.12933 0.42667,-0.16667 0.42533,-0.18667 0.40933,-0.204 0.408,-0.22133 0.39067,-0.22267 0.38933,-0.26 0.38933,-0.27866 0.76,-0.57467 0.744,-0.63066 0.70399,-0.66667 0.33334,-0.35333 0.33466,-0.37066 h 0.12934 l 0.0933,0.0187 h 0.22266 l 0.25867,0.0187 h 0.26 l 0.24133,0.0187 h 0.22267 l 1.65199,0.112 1.66933,0.0733 0.85467,0.0187 h 0.83466 l 0.83467,-0.0187 0.816,-0.056 0.81733,-0.0933 0.81599,-0.14667 0.79734,-0.18667 0.76266,-0.24133 0.76,-0.296001 0.37066,-0.185333 0.352,-0.185333 0.35334,-0.203999 0.352,-0.222667 0.33466,-0.259999 0.33333,-0.259999 0.55734,-0.445333 0.49999,-0.481332 0.46534,-0.501332 0.42533,-0.537332 0.39066,-0.538665 0.372,-0.574665 0.31467,-0.593332 0.29733,-0.611999 h 0.092 l 0.13067,0.01867 0.148,0.01867 0.18533,0.01867 0.204,0.01867 0.44533,0.056 0.44533,0.056 0.204,0.01733 0.18667,0.01867 0.14667,0.01867 0.13066,0.01867 h 0.0933 l 0.81599,0.01867 0.81734,-0.01867 0.79599,-0.03733 0.79867,-0.056 0.78,-0.07333 0.75999,-0.112 0.76134,-0.148 0.72399,-0.185333 0.724,-0.222666 0.704,-0.277332 0.70533,-0.316 0.668,-0.370665 0.648,-0.426666 0.65066,-0.481332 0.61334,-0.538665 0.59333,-0.593332 1.14933,-1.223997 0.52,-0.649332 0.26,-0.314666 0.22266,-0.351999 0.20533,-0.334666 0.16667,-0.370666 0.148,-0.370665 0.092,-0.389333 0.0747,-0.389332 0.0187,-0.409332 -0.0187,-0.425333 -0.0747,-0.445332 -0.148,-0.538665 -0.16667,-0.481332 -0.18666,-0.426666 -0.20267,-0.351999 -0.224,-0.315999 -0.22266,-0.258666 -0.24134,-0.222666 -0.24,-0.168 -0.24133,-0.129333 -0.24266,-0.092 -0.24,-0.07467 -0.24134,-0.01867 h -0.22266 l -0.204,0.01867 -0.204,0.056 -0.18533,0.07333 -0.724,0.407999 -0.668,0.389332 -0.612,0.407999 -0.55733,0.370666 -0.26,0.168 -0.24,0.166666 -0.22267,0.166666 -0.20533,0.148 -0.18533,0.130666 -0.16667,0.110666 -0.16666,0.09333 z"
     fill="#ecece7"
     fill-rule="evenodd"
     id="path4"
     style="stroke-width:1.33333" />
  <path
     d="m 186.16967,84.843005 -1.70666,1.019998 -1.70667,0.983997 -1.72532,0.945331 -1.74533,0.907998 -1.72533,0.853331 -1.76266,0.834665 -1.74533,0.778664 -1.76267,0.742665 -1.76132,0.685332 -1.78133,0.667998 -1.76267,0.630665 -1.78132,0.574666 -1.8,0.537332 -1.78266,0.519998 -1.8,0.462666 -1.79866,0.426665 -1.80133,0.390666 -1.79866,0.351999 -1.82,0.314666 -1.79866,0.278666 -1.81733,0.258666 -1.80133,0.203999 -1.81733,0.166667 -1.81999,0.149333 -1.81733,0.092 -1.81866,0.07467 -1.8,0.01867 h -1.81866 l -1.81866,-0.036 -1.8,-0.05733 -1.81866,-0.110666 -1.79866,-0.130666 -1.82,-0.184 -1.79866,-0.186666 -1.79999,-0.239999 -1.8,-0.278666 -1.78133,-0.296 -1.79999,-0.334665 -1.78133,-0.352 -1.78133,-0.389332 -1.78133,-0.426666 -1.76266,-0.463998 -1.76267,-0.482666 -1.76266,-0.499999 -1.74533,-0.555998 -1.74399,-0.574665 -1.744,-0.594666 -1.72533,-0.629331 L 98.940554,91.223 97.232558,90.537669 95.525896,89.832337 93.8379,89.091006 92.148571,88.311008 90.479242,87.513676 88.808579,86.697678 87.156583,85.84568 85.505921,84.972349 83.873925,84.064352 82.239262,83.137687 80.6446,82.172356 l -1.614663,-0.963997 -1.577329,-1.001331 -1.57733,-1.038664 -1.558662,-1.057331 -0.204,-0.110666 -0.203999,-0.110667 -0.204,-0.07467 -0.203999,-0.056 -0.222666,-0.03733 -0.204,-0.01867 h -0.426666 l -0.427999,0.056 -0.425332,0.112 -0.409332,0.147999 -0.389332,0.166667 -0.370666,0.185332 -0.315999,0.204 -0.316,0.185333 -0.239999,0.185333 -0.222666,0.147999 -0.149333,0.130667 -0.056,0.03733 -0.036,0.036 -0.03733,0.02 v 0.01733 l -0.351999,0.407999 -0.278666,0.409332 -0.241333,0.407999 -0.166666,0.406666 -0.130666,0.407999 -0.07467,0.426666 -0.03733,0.407998 0.01867,0.426666 0.056,0.407999 0.09333,0.407999 0.129333,0.407999 0.166667,0.407999 0.205332,0.407999 0.222667,0.407999 0.259999,0.389332 0.277333,0.389333 0.315999,0.389332 0.333332,0.390666 0.705332,0.741331 0.761331,0.703998 0.797332,0.667999 0.815998,0.649332 0.798664,0.574665 0.797332,0.537332 0.371999,0.259999 0.370665,0.222666 0.890665,0.518666 0.909331,0.463998 0.946664,0.407999 0.945331,0.351999 1.002664,0.297333 1.001331,0.259999 1.021331,0.204 1.057331,0.148 h 0.147999 l 0.149333,0.01867 h 0.222666 l 0.26,0.01867 0.277332,0.01867 0.611999,0.01867 0.631998,0.036 0.278666,0.01867 h 0.258666 l 0.205333,0.01867 h 0.166666 l 0.110667,0.01867 h 0.03733 l 0.426665,0.630665 0.445333,0.611998 0.482665,0.574666 0.519999,0.555998 0.611998,0.613332 0.649332,0.555999 0.686665,0.518665 0.686665,0.445332 0.723998,0.389333 0.722665,0.353332 0.761331,0.295999 0.778665,0.26 0.779998,0.222666 0.815998,0.166667 0.817331,0.12934 0.834665,0.092 0.834665,0.056 0.853331,0.0187 0.853331,-0.0187 0.873334,-0.036 0.44533,-0.0373 0.44533,-0.0747 0.42533,-0.0933 0.428,-0.110667 0.83467,-0.258667 0.83466,-0.242666 0.0187,0.02 0.0373,0.07333 0.0733,0.09333 0.0933,0.129333 0.112,0.166666 0.12933,0.185331 0.27867,0.372 0.26,0.38934 0.12933,0.18533 0.11066,0.148 0.0933,0.12933 0.0747,0.112 0.056,0.0547 0.0173,0.0373 0.29733,0.38933 0.316,0.39067 0.31466,0.36933 0.33467,0.33467 0.352,0.316 0.372,0.31466 0.37066,0.27867 0.39067,0.25866 0.38933,0.26 0.408,0.22267 0.42667,0.204 0.408,0.204 0.44533,0.16666 0.42666,0.16667 0.44534,0.13067 0.464,0.12933 0.92799,0.204 0.92667,0.12933 0.96533,0.0747 0.94666,0.0187 0.964,-0.0373 0.96533,-0.11066 0.96533,-0.14934 0.94667,-0.20266 0.81599,-0.22267 0.816,-0.29733 0.79867,-0.352 0.76133,-0.39067 h 0.0173 l 0.0373,0.0187 0.0747,0.0187 0.0933,0.0373 0.20267,0.0747 0.26,0.0733 0.26,0.0747 0.22267,0.0733 0.0747,0.0387 0.0733,0.0173 0.0373,0.0187 h 0.0187 l 1.89333,0.57466 1.92933,0.59467 0.96533,0.27733 0.984,0.24133 0.98266,0.22267 0.964,0.16666 0.984,0.12934 0.984,0.0747 h 0.96399 l 0.48267,-0.0373 0.48267,-0.0373 0.48266,-0.0733 0.48267,-0.0933 0.464,-0.11067 0.48266,-0.13066 0.464,-0.16667 0.46267,-0.18533 0.46399,-0.204 0.44534,-0.25867 0.57599,-0.35333 0.53734,-0.38933 0.52,-0.42667 0.46399,-0.48133 h 0.0187 l 0.0373,0.0173 0.11067,0.0373 0.16667,0.056 0.18666,0.056 0.204,0.0547 0.16667,0.056 0.11067,0.0373 0.0373,0.0187 0.89066,0.25867 0.90933,0.24133 0.90934,0.22267 0.90933,0.168 0.92799,0.12933 0.928,0.092 0.92667,0.056 h 0.91066 l 0.908,-0.056 0.90933,-0.11067 0.89066,-0.18533 0.872,-0.24133 0.428,-0.12933 0.42667,-0.16667 0.42533,-0.18667 0.40933,-0.204 0.408,-0.22133 0.39067,-0.22267 0.38933,-0.26 0.38933,-0.27866 0.76,-0.57467 0.744,-0.63066 0.70399,-0.66667 0.33334,-0.35333 0.33466,-0.37066 h 0.12934 l 0.0933,0.0187 h 0.22266 l 0.25867,0.0187 h 0.26 l 0.24133,0.0187 h 0.22267 l 1.65199,0.112 1.66933,0.0733 0.85467,0.0187 h 0.83466 l 0.83467,-0.0187 0.816,-0.056 0.81733,-0.0933 0.81599,-0.14667 0.79734,-0.18667 0.76266,-0.24133 0.76,-0.296001 0.37066,-0.185333 0.352,-0.185333 0.35334,-0.203999 0.352,-0.222667 0.33466,-0.259999 0.33333,-0.259999 0.55734,-0.445333 0.49999,-0.481332 0.46534,-0.501332 0.42533,-0.537332 0.39066,-0.538665 0.372,-0.574665 0.31467,-0.593332 0.29733,-0.611999 h 0.092 l 0.13067,0.01867 0.148,0.01867 0.18533,0.01867 0.204,0.01867 0.44533,0.056 0.44533,0.056 0.204,0.01733 0.18667,0.01867 0.14667,0.01867 0.13066,0.01867 h 0.0933 l 0.81599,0.01867 0.81734,-0.01867 0.79599,-0.03733 0.79867,-0.056 0.78,-0.07333 0.75999,-0.112 0.76134,-0.148 0.72399,-0.185333 0.724,-0.222666 0.704,-0.277332 0.70533,-0.316 0.668,-0.370665 0.648,-0.426666 0.65066,-0.481332 0.61334,-0.538665 0.59333,-0.593332 1.14933,-1.223997 0.52,-0.649332 0.26,-0.314666 0.22266,-0.351999 0.20533,-0.334666 0.16667,-0.370666 0.148,-0.370665 0.092,-0.389333 0.0747,-0.389332 0.0187,-0.409332 -0.0187,-0.425333 -0.0747,-0.445332 -0.148,-0.538665 -0.16667,-0.481332 -0.18666,-0.426666 -0.20267,-0.351999 -0.224,-0.315999 -0.22266,-0.258666 -0.24134,-0.222666 -0.24,-0.168 -0.24133,-0.129333 -0.24266,-0.092 -0.24,-0.07467 -0.24134,-0.01867 h -0.22266 l -0.204,0.01867 -0.204,0.056 -0.18533,0.07333 -0.724,0.407999 -0.668,0.389332 -0.612,0.407999 -0.55733,0.370666 -0.26,0.168 -0.24,0.166666 -0.22267,0.166666 -0.20533,0.148 -0.18533,0.130666 -0.16667,0.110666 -0.16666,0.09333 z"
     fill="none"
     stroke="#005387"
     stroke-linecap="round"
     stroke-miterlimit="22.926"
     stroke-width="0.377332"
     id="path5" />
  <path
     d="m 192.88667,102.73901 0.24133,-0.27867 0.22267,-0.27733 0.204,-0.29734 0.20533,-0.31466 0.16667,-0.29733 0.16666,-0.33334 0.26,-0.668 0.20267,-0.68666 0.14933,-0.722665 0.0933,-0.723998 0.0187,-0.741332 v -4.413322 l -0.0387,-0.297333 -0.092,-0.295999 -0.14799,-0.259999 -0.22267,-0.204 -0.24133,-0.185333 -0.27867,-0.092 -0.31467,-0.056 -0.29733,0.01867 -0.27866,0.092 -0.27867,0.148 -0.22267,0.186666 -0.66799,0.685332 -0.724,0.630665 -0.74267,0.574665 -0.796,0.519999 -0.83599,0.462665 -0.87333,0.409332 -0.88934,0.333333 -0.90933,0.278666 -0.92666,0.202666 -0.92933,0.149333 -1.52,0.166666 -1.50399,0.09333 h -1.52133 l -1.50267,-0.07467 -0.316,0.518665 -0.33333,0.501332 -0.37066,0.481332 -0.38934,0.482666 -0.40933,0.445332 -0.44533,0.445332 -0.464,0.425333 -0.464,0.372001 -0.38933,0.31467 -0.40933,0.29733 -0.42534,0.26 -0.42799,0.25867 -0.42667,0.22266 -0.44533,0.204 -0.44533,0.204 -0.44534,0.16667 -0.44533,0.148 -0.464,0.13066 -0.908,0.22267 -0.91066,0.148 -0.908,0.112 -0.90933,0.0733 -0.89066,0.0187 h -0.91067 l -0.87066,-0.0187 -1.74533,-0.0733 -0.46267,-0.0373 -0.50133,-0.0373 -0.556,-0.0187 -0.31733,-0.0187 -0.31467,-0.0187 -0.63066,0.612 -0.64933,0.57467 -0.63067,0.51866 -0.63066,0.46533 -0.44534,0.31467 -0.46533,0.31467 -0.46266,0.27866 -0.484,0.26 -0.48133,0.22267 -0.50134,0.22266 -0.48133,0.18534 -0.50133,0.16666 -0.50133,0.148 -0.52,0.12933 -0.5,0.112 -0.52133,0.0933 -1.02,0.12933 -1.02,0.0747 h -1.01999 l -1.02133,-0.0573 -1.02,-0.092 -0.984,-0.148 -1.00266,-0.18533 -0.964,-0.22266 -0.964,-0.26 -0.96533,-0.27734 -0.39067,0.31467 -0.40799,0.296 -0.42667,0.27866 -0.42667,0.26 -0.66799,0.352 -0.68667,0.29734 -0.68533,0.25999 -0.70667,0.204 -0.70399,0.16667 -0.688,0.12933 -0.704,0.0747 -0.68667,0.0547 h -0.68666 l -0.68667,-0.0173 -0.68666,-0.0373 -0.668,-0.0747 -0.668,-0.0933 -0.668,-0.12933 -1.29866,-0.26 -2.20799,-0.612 -2.17066,-0.648 -2.172,-0.74266 -0.70533,0.33333 -0.74133,0.29733 -0.76133,0.26 -0.76,0.204 -1.05867,0.22267 -1.05733,0.16666 -1.07599,0.11067 -1.076,0.056 -1.05733,-0.0173 -1.07733,-0.076 -0.53733,-0.0733 -0.53867,-0.0933 -0.51866,-0.092 -0.52,-0.12933 -0.52,-0.13067 -0.51867,-0.16667 -0.52,-0.18533 -0.50133,-0.204 -0.5,-0.22266 -0.484,-0.24134 -0.48266,-0.27733 -0.46267,-0.29733 -0.464,-0.316 -0.46399,-0.37067 -0.48267,-0.408 -0.48267,-0.48133 -0.48133,-0.52 -0.26,-0.296 -0.26,-0.316 -0.26,-0.31466 -0.27866,-0.35333 -0.26,-0.37067 -0.296,-0.408 -0.55733,0.168 -0.612,0.16667 -0.316,0.0547 -0.352,0.056 -0.352,0.056 -0.35333,0.0187 -0.909332,0.0373 -0.927997,0.0173 -0.926665,-0.036 -0.909331,-0.056 -0.927997,-0.0933 -0.909332,-0.148 -0.890664,-0.18533 -0.890664,-0.24 -0.890665,-0.29733 -0.873331,-0.33467 -0.834665,-0.408 -0.834664,-0.462665 -0.797331,-0.519999 -0.779999,-0.593332 -0.741331,-0.630665 -0.353332,-0.334666 -0.333333,-0.351999 -0.427999,-0.425332 -0.406666,-0.463999 -0.371999,-0.482665 -0.371999,-0.481332 -1.167997,-0.01867 -1.150664,-0.09333 -1.167997,-0.148 -1.131997,-0.203999 -1.13333,-0.277333 -1.111998,-0.334666 -1.094663,-0.407999 -1.077331,-0.463999 -1.038664,-0.518665 -1.002664,-0.575998 -1.298664,-0.851998 -1.26133,-0.909331 -1.206664,-0.963998 -1.150663,-1.038664 -0.258666,-0.204 -0.297333,-0.147999 -0.314666,-0.09333 -0.334666,-0.01733 -0.334666,0.036 -0.314665,0.09333 -0.296,0.166667 -0.261332,0.203999 -0.204,0.26 -0.166666,0.295999 -0.092,0.334666 -0.03867,0.314665 v 2.187995 l 0.01867,0.482665 0.02,0.499999 0.05467,0.482666 0.056,0.481332 0.185332,0.946664 0.26,0.945331 0.297332,0.927998 0.389333,0.907997 0.426665,0.890665 0.482666,0.889331 0.538665,0.871994 0.591999,0.85334 0.631998,0.83466 0.667998,0.816 0.705332,0.816 0.759998,0.77866 0.779998,0.77867 0.815998,0.74266 1.410663,1.168 1.447997,1.13199 1.502662,1.09333 1.52133,1.02 1.539996,0.98267 1.595996,0.92799 1.613329,0.88934 1.651996,0.81733 2.411994,1.13066 2.449328,1.05733 2.48666,1.00133 2.505327,0.94533 2.52266,0.872 2.54266,0.816 2.57866,0.74133 2.57999,0.668 2.59733,0.612 2.61733,0.55733 2.63466,0.46266 2.65332,0.408 2.63466,0.352 2.672,0.26 2.65332,0.22267 2.672,0.12933 2.67199,0.0747 h 2.67199 l 2.672,-0.0747 2.67199,-0.12933 2.67199,-0.22267 2.65333,-0.26 2.65466,-0.352 2.65333,-0.408 2.61599,-0.46266 2.61599,-0.55733 2.61733,-0.612 2.57733,-0.668 2.57999,-0.74133 2.54266,-0.816 2.52399,-0.872 2.504,-0.94533 2.46799,-1.00133 2.46799,-1.05733 2.412,-1.13066 1.65066,-0.81733 1.61466,-0.88934 1.57867,-0.92799 1.55733,-0.98267 1.52266,-1.02 1.484,-1.09333 1.46533,-1.13199 1.41066,-1.168 0.98266,-0.92666 0.92933,-0.89067 0.42667,-0.44533 0.42533,-0.42667 0.40933,-0.408 z"
     fill="#ecece7"
     fill-rule="evenodd"
     id="path6"
     style="stroke-width:1.33333" />
  <path
     d="m 192.88667,102.73901 0.24133,-0.27867 0.22267,-0.27733 0.204,-0.29734 0.20533,-0.31466 0.16667,-0.29733 0.16666,-0.33334 0.26,-0.668 0.20267,-0.68666 0.14933,-0.722665 0.0933,-0.723998 0.0187,-0.741332 v -4.413322 l -0.0387,-0.297333 -0.092,-0.295999 -0.14799,-0.259999 -0.22267,-0.204 -0.24133,-0.185333 -0.27867,-0.092 -0.31467,-0.056 -0.29733,0.01867 -0.27866,0.092 -0.27867,0.148 -0.22267,0.186666 -0.66799,0.685332 -0.724,0.630665 -0.74267,0.574665 -0.796,0.519999 -0.83599,0.462665 -0.87333,0.409332 -0.88934,0.333333 -0.90933,0.278666 -0.92666,0.202666 -0.92933,0.149333 -1.52,0.166666 -1.50399,0.09333 h -1.52133 l -1.50267,-0.07467 -0.316,0.518665 -0.33333,0.501332 -0.37066,0.481332 -0.38934,0.482666 -0.40933,0.445332 -0.44533,0.445332 -0.464,0.425333 -0.464,0.372001 -0.38933,0.31467 -0.40933,0.29733 -0.42534,0.26 -0.42799,0.25867 -0.42667,0.22266 -0.44533,0.204 -0.44533,0.204 -0.44534,0.16667 -0.44533,0.148 -0.464,0.13066 -0.908,0.22267 -0.91066,0.148 -0.908,0.112 -0.90933,0.0733 -0.89066,0.0187 h -0.91067 l -0.87066,-0.0187 -1.74533,-0.0733 -0.46267,-0.0373 -0.50133,-0.0373 -0.556,-0.0187 -0.31733,-0.0187 -0.31467,-0.0187 -0.63066,0.612 -0.64933,0.57467 -0.63067,0.51866 -0.63066,0.46533 -0.44534,0.31467 -0.46533,0.31467 -0.46266,0.27866 -0.484,0.26 -0.48133,0.22267 -0.50134,0.22266 -0.48133,0.18534 -0.50133,0.16666 -0.50133,0.148 -0.52,0.12933 -0.5,0.112 -0.52133,0.0933 -1.02,0.12933 -1.02,0.0747 h -1.01999 l -1.02133,-0.0573 -1.02,-0.092 -0.984,-0.148 -1.00266,-0.18533 -0.964,-0.22266 -0.964,-0.26 -0.96533,-0.27734 -0.39067,0.31467 -0.40799,0.296 -0.42667,0.27866 -0.42667,0.26 -0.66799,0.352 -0.68667,0.29734 -0.68533,0.25999 -0.70667,0.204 -0.70399,0.16667 -0.688,0.12933 -0.704,0.0747 -0.68667,0.0547 h -0.68666 l -0.68667,-0.0173 -0.68666,-0.0373 -0.668,-0.0747 -0.668,-0.0933 -0.668,-0.12933 -1.29866,-0.26 -2.20799,-0.612 -2.17066,-0.648 -2.172,-0.74266 -0.70533,0.33333 -0.74133,0.29733 -0.76133,0.26 -0.76,0.204 -1.05867,0.22267 -1.05733,0.16666 -1.07599,0.11067 -1.076,0.056 -1.05733,-0.0173 -1.07733,-0.076 -0.53733,-0.0733 -0.53867,-0.0933 -0.51866,-0.092 -0.52,-0.12933 -0.52,-0.13067 -0.51867,-0.16667 -0.52,-0.18533 -0.50133,-0.204 -0.5,-0.22266 -0.484,-0.24134 -0.48266,-0.27733 -0.46267,-0.29733 -0.464,-0.316 -0.46399,-0.37067 -0.48267,-0.408 -0.48267,-0.48133 -0.48133,-0.52 -0.26,-0.296 -0.26,-0.316 -0.26,-0.31466 -0.27866,-0.35333 -0.26,-0.37067 -0.296,-0.408 -0.55733,0.168 -0.612,0.16667 -0.316,0.0547 -0.352,0.056 -0.352,0.056 -0.35333,0.0187 -0.909332,0.0373 -0.927997,0.0173 -0.926665,-0.036 -0.909331,-0.056 -0.927997,-0.0933 -0.909332,-0.148 -0.890664,-0.18533 -0.890664,-0.24 -0.890665,-0.29733 -0.873331,-0.33467 -0.834665,-0.408 -0.834664,-0.462665 -0.797331,-0.519999 -0.779999,-0.593332 -0.741331,-0.630665 -0.353332,-0.334666 -0.333333,-0.351999 -0.427999,-0.425332 -0.406666,-0.463999 -0.371999,-0.482665 -0.371999,-0.481332 -1.167997,-0.01867 -1.150664,-0.09333 -1.167997,-0.148 -1.131997,-0.203999 -1.13333,-0.277333 -1.111998,-0.334666 -1.094663,-0.407999 -1.077331,-0.463999 -1.038664,-0.518665 -1.002664,-0.575998 -1.298664,-0.851998 -1.26133,-0.909331 -1.206664,-0.963998 -1.150663,-1.038664 -0.258666,-0.204 -0.297333,-0.147999 -0.314666,-0.09333 -0.334666,-0.01733 -0.334666,0.036 -0.314665,0.09333 -0.296,0.166667 -0.261332,0.203999 -0.204,0.26 -0.166666,0.295999 -0.092,0.334666 -0.03867,0.314665 v 2.187995 l 0.01867,0.482665 0.02,0.499999 0.05467,0.482666 0.056,0.481332 0.185332,0.946664 0.26,0.945331 0.297332,0.927998 0.389333,0.907997 0.426665,0.890665 0.482666,0.889331 0.538665,0.871994 0.591999,0.85334 0.631998,0.83466 0.667998,0.816 0.705332,0.816 0.759998,0.77866 0.779998,0.77867 0.815998,0.74266 1.410663,1.168 1.447997,1.13199 1.502662,1.09333 1.52133,1.02 1.539996,0.98267 1.595996,0.92799 1.613329,0.88934 1.651996,0.81733 2.411994,1.13066 2.449328,1.05733 2.48666,1.00133 2.505327,0.94533 2.52266,0.872 2.54266,0.816 2.57866,0.74133 2.57999,0.668 2.59733,0.612 2.61733,0.55733 2.63466,0.46266 2.65332,0.408 2.63466,0.352 2.672,0.26 2.65332,0.22267 2.672,0.12933 2.67199,0.0747 h 2.67199 l 2.672,-0.0747 2.67199,-0.12933 2.67199,-0.22267 2.65333,-0.26 2.65466,-0.352 2.65333,-0.408 2.61599,-0.46266 2.61599,-0.55733 2.61733,-0.612 2.57733,-0.668 2.57999,-0.74133 2.54266,-0.816 2.52399,-0.872 2.504,-0.94533 2.46799,-1.00133 2.46799,-1.05733 2.412,-1.13066 1.65066,-0.81733 1.61466,-0.88934 1.57867,-0.92799 1.55733,-0.98267 1.52266,-1.02 1.484,-1.09333 1.46533,-1.13199 1.41066,-1.168 0.98266,-0.92666 0.92933,-0.89067 0.42667,-0.44533 0.42533,-0.42667 0.40933,-0.408 z"
     fill="none"
     stroke="#005387"
     stroke-linecap="round"
     stroke-miterlimit="22.926"
     stroke-width="0.377332"
     id="path7" />
  <g
     fill="#ecece7"
     fill-rule="evenodd"
     id="g11"
     transform="translate(-3.3071e-4,-9.9475e-4)">
    <path
       d="M 0,0 -0.612,-0.125 -1.196,-0.251 -1.739,-0.362 -2.254,-0.474 -2.755,-0.57 -3.215,-0.668 -3.66,-0.751 -4.077,-0.849 -4.48,-0.918 -4.856,-1.002 -5.219,-1.071 -5.553,-1.141 -5.872,-1.211 -6.179,-1.266 -6.471,-1.321 -6.749,-1.378 -7.265,-1.475 -7.737,-1.559 -8.182,-1.642 -8.6,-1.711 -9.422,-1.851 -9.63,-1.878 -9.866,-1.92 l -0.265,-0.027 -0.278,-0.042 -0.307,-0.029 -0.319,-0.027 -0.683,-0.056 -0.695,-0.042 -0.724,-0.027 h -1.545 l -0.765,0.027 -0.724,0.029 -0.681,0.041 -0.641,0.055 -0.612,0.071 -0.279,0.027 -0.278,0.042 -0.25,0.027 -0.223,0.029 -0.209,0.042 -0.167,0.027 -0.153,0.014 -0.111,0.028 -0.07,0.014 -0.042,0.013 -0.139,0.029 -0.125,0.027 -0.195,0.042 -0.167,0.042 -0.125,0.027 -0.084,0.014 -0.069,0.015 -0.084,0.027 h -0.027 l -0.042,0.014 -0.112,0.028 -0.222,0.056 -0.432,0.111 -0.403,0.111 -0.362,0.112 -0.32,0.111 -0.139,0.041 -0.139,0.042 -0.112,0.042 -0.097,0.027 -0.069,0.029 -0.071,0.027 -0.167,0.069 -0.305,0.112 -0.279,0.111 -0.251,0.098 -0.208,0.084 -0.195,0.069 -0.181,0.069 -0.153,0.056 -0.265,0.111 -0.25,0.098 -0.055,0.027 h -0.015 l -0.014,0.014 -0.236,0.084 -0.459,0.194 -0.46,0.181 -0.431,0.167 -0.39,0.153 -0.181,0.07 -0.167,0.069 -0.139,0.056 -0.125,0.042 -0.097,0.042 -0.084,0.027 -0.209,0.07 -0.375,0.111 -0.334,0.111 -0.32,0.098 -0.292,0.084 -0.265,0.083 -0.236,0.069 -0.223,0.069 -0.209,0.056 -0.181,0.056 -0.362,0.084 -0.32,0.083 -0.153,0.042 -0.07,0.013 h -0.014 l -0.013,0.014 -0.042,0.015 -0.083,0.013 -0.182,0.042 -0.348,0.083 -0.723,0.14 -0.751,0.139 -0.766,0.125 -0.807,0.111 -0.822,0.098 -0.862,0.083 -0.877,0.055 -0.919,0.056 -0.96,0.028 -0.974,0.014 h -1.002 L -43.197,3.31 -44.13,3.269 -44.589,3.254 -45.02,3.227 -45.41,3.199 -45.577,3.185 -45.744,3.171 -45.883,3.157 -46.022,3.144 -46.119,3.129 h -0.154 l -0.028,-0.014 h -0.042 l -0.612,-0.083 -0.57,-0.069 -0.515,-0.084 -0.474,-0.069 -0.445,-0.07 -0.403,-0.084 -0.39,-0.069 -0.362,-0.069 -0.682,-0.154 -0.083,-0.028 h -0.042 L -50.934,2.322 -51.018,2.309 -51.352,2.225 -52.007,2.059 -52.312,1.961 -52.605,1.878 -52.884,1.794 -53.134,1.725 -53.385,1.641 -53.607,1.571 -53.802,1.516 -53.969,1.46 -54.122,1.404 -54.247,1.363 -54.33,1.335 -54.387,1.308 -54.456,1.293 -54.665,1.195 -55.068,1.043 -55.416,0.918 -55.723,0.792 -56.001,0.682 -56.237,0.598 -56.446,0.515 -56.64,0.431 -56.807,0.375 -57.099,0.25 -57.225,0.194 h -0.028 l -0.111,-0.055 -0.432,-0.167 -0.418,-0.167 -0.375,-0.153 -0.181,-0.07 -0.153,-0.069 -0.139,-0.056 -0.139,-0.042 -0.111,-0.056 -0.098,-0.027 -0.069,-0.042 -0.071,-0.014 -0.027,-0.013 -0.028,-0.014 h -0.041 l -0.084,-0.028 -0.154,-0.056 -0.292,-0.083 -0.25,-0.084 -0.237,-0.069 -0.208,-0.07 -0.195,-0.055 -0.167,-0.042 -0.154,-0.056 -0.278,-0.069 -0.25,-0.07 -0.111,-0.028 h -0.042 l -0.056,-0.014 -0.236,-0.055 -0.474,-0.098 -0.501,-0.097 -0.528,-0.097 -0.557,-0.084 -0.585,-0.07 -0.626,-0.055 -0.654,-0.056 -0.695,-0.041 -0.739,-0.028 -0.778,-0.014 h -1.727 l -0.793,0.014 -0.737,0.028 -0.71,0.027 -0.668,0.056 -0.626,0.056 -0.585,0.069 -0.57,0.084 -0.529,0.083 -0.515,0.098 -0.487,0.096 -0.237,0.056 -0.111,0.028 -0.056,0.014 h -0.028 l -0.028,0.014 -0.069,0.014 -0.111,0.028 -0.251,0.069 -0.292,0.084 -0.167,0.041 -0.195,0.057 -0.195,0.055 -0.236,0.07 -0.251,0.083 -0.278,0.084 -0.306,0.096 -0.098,0.029 -0.041,0.027 -0.07,0.015 -0.084,0.041 -0.111,0.042 -0.125,0.042 -0.14,0.055 -0.138,0.07 -0.167,0.055 -0.376,0.154 -0.404,0.166 -0.431,0.167 -0.223,0.097 h -0.014 l -0.042,0.014 -0.069,0.028 -0.139,0.056 -0.139,0.056 -0.167,0.069 -0.181,0.069 -0.195,0.084 -0.237,0.083 -0.264,0.112 -0.293,0.111 -0.347,0.139 -0.376,0.139 -0.209,0.083 -0.111,0.042 -0.056,0.029 -0.042,0.013 -0.083,0.028 -0.098,0.028 -0.139,0.056 -0.167,0.055 -0.181,0.056 -0.208,0.069 -0.237,0.07 -0.251,0.084 -0.264,0.069 -0.292,0.083 -0.293,0.084 -0.64,0.181 -0.334,0.083 -0.167,0.042 -0.083,0.013 -0.042,0.014 -0.334,0.084 -0.334,0.069 -0.362,0.084 -0.376,0.07 -0.417,0.069 -0.431,0.069 -0.46,0.084 -0.515,0.07 -0.542,0.083 -0.599,0.07 -0.153,0.027 h -0.055 l -0.042,0.014 h -0.153 l -0.098,0.015 -0.139,0.013 -0.139,0.014 -0.167,0.014 -0.362,0.028 -0.418,0.027 -0.431,0.014 -0.932,0.056 -0.96,0.014 -1.003,0.014 -0.988,-0.014 -0.96,-0.028 -0.918,-0.042 -0.905,-0.055 -0.863,-0.084 -0.835,-0.083 -0.807,-0.111 -0.779,-0.126 -0.752,-0.125 -0.724,-0.152 -0.709,-0.154 -0.084,-0.028 h -0.041 l -0.014,-0.014 h -0.042 l -0.028,-0.013 -0.084,-0.014 -0.32,-0.084 -0.334,-0.083 -0.18,-0.056 -0.195,-0.055 -0.223,-0.056 -0.223,-0.07 -0.25,-0.083 -0.278,-0.083 -0.307,-0.084 -0.32,-0.097 -0.362,-0.111 -0.389,-0.125 -0.07,-0.029 -0.084,-0.028 -0.11,-0.041 -0.14,-0.056 -0.153,-0.055 -0.167,-0.071 -0.181,-0.069 -0.195,-0.083 -0.431,-0.167 -0.445,-0.181 -0.474,-0.18 -0.222,-0.098 -0.126,-0.042 -0.013,-0.014 -0.237,-0.097 -0.264,-0.097 -0.154,-0.056 -0.152,-0.069 -0.182,-0.07 -0.208,-0.083 -0.237,-0.084 -0.25,-0.097 -0.292,-0.111 -0.321,-0.125 -0.055,-0.029 -0.07,-0.027 -0.097,-0.028 -0.098,-0.042 -0.125,-0.041 -0.139,-0.042 -0.306,-0.098 -0.348,-0.111 -0.404,-0.112 -0.417,-0.111 -0.446,-0.111 -0.027,-0.014 h -0.042 l -0.014,-0.014 h -0.042 l -0.056,-0.013 -0.069,-0.015 -0.111,-0.027 -0.14,-0.029 -0.167,-0.041 -0.111,-0.028 -0.125,-0.027 -0.126,-0.029 -0.041,-0.013 -0.056,-0.014 -0.097,-0.014 -0.126,-0.014 -0.167,-0.028 -0.18,-0.028 -0.224,-0.041 -0.236,-0.028 -0.264,-0.042 -0.279,-0.028 -0.598,-0.069 -0.626,-0.056 -0.682,-0.042 -0.71,-0.042 -0.751,-0.027 h -1.559 l -0.724,0.027 -0.71,0.029 -0.709,0.055 -0.376,0.041 -0.376,0.042 -0.389,0.042 -0.418,0.056 -0.431,0.069 -0.46,0.07 -0.25,0.042 -0.251,0.042 -0.264,0.042 -0.307,0.054 -0.334,0.071 -0.361,0.069 -0.404,0.083 -0.459,0.084 -0.25,0.056 -0.265,0.042 -0.278,0.055 -0.293,0.07 -0.306,0.055 -0.32,0.07 -0.348,0.069 -0.362,0.069 -0.389,0.084 -0.404,0.083 -0.417,0.084 -0.445,0.097 -0.474,0.098 -0.487,0.097 -0.514,0.112 -0.543,0.111 1.029,-1.628 1.058,-1.613 1.1,-1.586 1.141,-1.558 0.278,-0.055 0.251,-0.056 0.487,-0.097 0.445,-0.084 0.389,-0.083 0.363,-0.07 0.334,-0.055 0.305,-0.055 0.293,-0.056 0.529,-0.084 0.501,-0.069 0.487,-0.07 0.459,-0.07 0.905,-0.097 0.862,-0.084 0.835,-0.041 0.822,-0.028 0.848,-0.014 h 0.891 l 0.863,0.014 0.821,0.042 0.404,0.014 0.375,0.028 0.348,0.027 0.153,0.014 h 0.139 l 0.126,0.014 0.097,0.014 h 0.097 l 0.056,0.014 0.14,0.014 0.542,0.069 0.487,0.056 0.46,0.07 0.417,0.069 0.404,0.07 0.376,0.055 0.347,0.07 0.348,0.084 0.32,0.069 0.167,0.028 0.028,0.014 h 0.028 l 0.125,0.041 0.557,0.14 0.515,0.138 0.236,0.071 0.223,0.069 0.209,0.056 0.195,0.054 0.167,0.057 0.153,0.056 0.139,0.041 0.098,0.042 0.083,0.028 0.055,0.014 0.181,0.069 0.348,0.125 0.307,0.125 0.277,0.098 0.265,0.097 0.223,0.097 0.222,0.084 0.195,0.069 0.181,0.07 0.334,0.139 0.167,0.07 0.07,0.027 0.042,0.015 0.028,0.013 0.055,0.014 0.125,0.056 0.446,0.18 0.431,0.167 0.404,0.167 0.181,0.069 0.167,0.07 0.167,0.056 0.139,0.055 0.125,0.056 0.097,0.028 0.098,0.042 0.056,0.014 0.083,0.027 0.32,0.111 0.293,0.084 0.278,0.083 0.25,0.084 0.223,0.07 0.223,0.069 0.195,0.056 0.181,0.055 0.333,0.098 0.306,0.069 0.279,0.083 0.069,0.015 h 0.042 l 0.014,0.014 h 0.042 l 0.069,0.027 0.585,0.126 0.599,0.125 0.626,0.111 0.654,0.098 0.681,0.097 0.71,0.07 0.738,0.069 0.78,0.056 0.807,0.041 0.835,0.028 0.89,0.014 0.891,-0.014 0.849,-0.014 0.821,-0.041 0.793,-0.042 0.362,-0.028 0.334,-0.028 0.139,-0.014 0.139,-0.014 0.112,-0.013 h 0.097 l 0.084,-0.015 h 0.055 l 0.042,-0.013 h 0.014 l 0.125,-0.014 0.473,-0.07 0.431,-0.055 0.39,-0.057 0.362,-0.069 0.334,-0.056 0.32,-0.055 0.293,-0.056 0.542,-0.125 0.265,-0.056 0.056,-0.013 h 0.027 l 0.028,-0.014 0.139,-0.028 0.279,-0.07 0.528,-0.153 0.487,-0.139 0.223,-0.055 0.209,-0.07 0.195,-0.055 0.18,-0.056 0.154,-0.056 0.139,-0.042 0.111,-0.042 0.098,-0.027 0.055,-0.028 0.042,-0.014 0.111,-0.042 0.182,-0.069 0.361,-0.139 0.306,-0.125 0.279,-0.111 0.25,-0.098 0.223,-0.083 0.195,-0.07 0.167,-0.069 0.306,-0.125 0.278,-0.112 0.014,-0.013 0.223,-0.084 0.445,-0.181 0.404,-0.167 0.195,-0.069 0.167,-0.07 0.153,-0.055 0.139,-0.056 0.111,-0.056 0.098,-0.028 0.055,-0.027 0.028,-0.014 0.056,-0.015 0.375,-0.125 0.348,-0.111 0.32,-0.111 0.293,-0.097 0.278,-0.098 0.265,-0.084 0.25,-0.069 0.459,-0.139 0.432,-0.111 0.403,-0.111 h 0.056 v -0.014 h 0.042 l 0.153,-0.042 0.278,-0.056 0.598,-0.125 0.626,-0.125 0.641,-0.097 0.668,-0.098 0.71,-0.083 0.723,-0.07 0.766,-0.07 0.793,-0.041 0.835,-0.028 0.877,-0.014 h 1.795 l 0.891,0.014 0.835,0.028 0.793,0.041 0.779,0.056 0.724,0.069 0.71,0.084 0.682,0.098 0.64,0.097 0.626,0.126 0.598,0.11 0.292,0.07 0.14,0.042 0.069,0.014 h 0.056 l 0.042,0.014 0.111,0.027 0.417,0.111 0.432,0.125 0.474,0.14 0.25,0.069 0.264,0.083 0.292,0.098 0.307,0.111 0.334,0.112 0.361,0.111 0.196,0.069 0.041,0.015 0.028,0.014 0.056,0.013 0.084,0.042 0.11,0.041 0.126,0.042 0.152,0.07 0.167,0.07 0.182,0.069 0.403,0.154 0.432,0.18 0.236,0.097 0.056,0.015 0.014,0.013 0.07,0.028 0.278,0.111 0.152,0.056 0.167,0.069 0.182,0.07 0.209,0.083 0.222,0.098 0.264,0.097 0.292,0.111 0.334,0.126 0.376,0.152 0.098,0.042 h 0.042 l 0.056,0.028 0.083,0.028 0.111,0.042 0.125,0.042 0.153,0.041 0.182,0.055 0.181,0.071 0.209,0.054 0.222,0.071 0.473,0.138 0.529,0.14 0.543,0.139 0.056,0.013 0.125,0.029 0.263,0.055 0.279,0.07 0.278,0.055 0.307,0.056 0.32,0.056 0.348,0.055 0.389,0.07 0.404,0.055 0.445,0.07 0.237,0.028 0.125,0.014 0.042,0.013 h 0.112 l 0.096,0.015 0.112,0.013 0.126,0.014 0.138,0.014 0.321,0.014 0.347,0.028 0.78,0.056 0.821,0.041 0.849,0.014 0.891,0.014 0.876,-0.014 0.849,-0.028 0.821,-0.027 0.779,-0.056 0.738,-0.07 0.71,-0.07 0.696,-0.096 0.654,-0.098 0.626,-0.111 0.612,-0.125 0.585,-0.125 0.139,-0.042 h 0.042 l 0.014,-0.014 h 0.027 l 0.07,-0.015 0.154,-0.041 0.292,-0.069 0.305,-0.098 0.363,-0.097 0.194,-0.056 0.209,-0.069 0.237,-0.07 0.25,-0.07 0.265,-0.083 0.292,-0.098 0.32,-0.096 0.083,-0.029 0.056,-0.027 0.084,-0.028 0.098,-0.042 0.125,-0.041 0.138,-0.056 0.154,-0.056 0.167,-0.069 0.18,-0.07 0.39,-0.153 0.431,-0.181 0.446,-0.167 0.222,-0.097 h 0.028 v -0.013 h 0.014 l 0.028,-0.015 0.084,-0.027 0.319,-0.125 0.362,-0.154 0.196,-0.069 0.209,-0.084 0.236,-0.097 0.25,-0.097 0.292,-0.098 0.307,-0.125 0.334,-0.125 0.18,-0.069 0.056,-0.014 0.07,-0.028 0.097,-0.029 0.126,-0.041 0.152,-0.055 0.167,-0.042 0.181,-0.07 0.209,-0.055 0.223,-0.07 0.237,-0.07 0.501,-0.139 0.542,-0.138 0.14,-0.029 0.069,-0.027 h 0.056 l 0.153,-0.042 0.668,-0.139 0.347,-0.07 0.376,-0.069 0.404,-0.07 0.418,-0.069 0.459,-0.056 0.487,-0.07 0.528,-0.069 0.14,-0.014 h 0.056 l 0.069,-0.014 h 0.098 l 0.111,-0.014 0.139,-0.014 0.139,-0.014 0.334,-0.027 0.376,-0.015 0.39,-0.027 0.821,-0.028 0.862,-0.028 h 1.74 l 0.821,0.028 0.835,0.055 0.863,0.07 0.891,0.097 0.459,0.056 0.474,0.069 0.501,0.084 0.514,0.083 0.265,0.042 0.263,0.042 0.223,0.042 0.182,0.028 0.069,0.013 0.056,0.014 0.097,0.015 0.223,0.041 0.445,0.097 0.473,0.084 0.487,0.097 0.515,0.111 1.142,1.558 1.099,1.586 1.058,1.613 z"
       transform="matrix(1.33333,0,0,-1.33333,224.895,188.679)"
       id="path8" />
    <path
       d="m 0,0 h -1.016 l -1.058,0.013 -1.016,0.042 -1.002,0.056 -0.96,0.069 -0.946,0.098 -0.918,0.097 -0.891,0.126 -0.877,0.138 -0.835,0.154 -0.821,0.167 -0.793,0.18 -0.112,0.028 h -0.014 l -0.069,0.014 -0.056,0.014 -0.083,0.014 -0.098,0.028 -0.153,0.041 -0.194,0.042 -0.112,0.042 -0.125,0.027 -0.139,0.029 -0.153,0.041 -0.181,0.042 -0.195,0.055 -0.209,0.042 -0.223,0.07 -0.25,0.055 -0.265,0.07 -0.278,0.07 -0.083,0.014 -0.042,0.013 -0.042,0.014 -0.069,0.028 -0.098,0.028 -0.111,0.042 -0.139,0.055 -0.14,0.056 -0.167,0.056 -0.181,0.069 -0.18,0.083 -0.418,0.153 -0.431,0.181 -1.893,0.765 -0.223,0.097 -0.097,0.042 h -0.042 l -0.042,0.028 -0.111,0.042 -0.195,0.084 -0.39,0.152 -0.403,0.153 -0.417,0.167 -0.474,0.167 -0.25,0.097 -0.278,0.098 -0.14,0.055 -0.042,0.014 -0.055,0.014 -0.084,0.028 -0.083,0.028 -0.111,0.027 -0.112,0.029 -0.278,0.083 -0.292,0.069 -0.167,0.042 -0.042,0.014 h -0.014 l -0.056,0.014 -0.084,0.028 -0.375,0.083 -0.403,0.07 -0.237,0.041 -0.251,0.042 -0.264,0.042 -0.292,0.027 -0.321,0.042 -0.347,0.042 h -0.042 l -0.014,0.014 h -0.125 l -0.07,0.014 h -0.097 l -0.209,0.013 -0.237,0.015 -0.278,0.027 -0.584,0.015 -0.626,0.027 h -0.683 l -0.668,-0.013 -0.626,-0.014 -0.598,-0.028 -0.543,-0.029 -0.501,-0.041 -0.473,-0.055 -0.446,-0.056 -0.403,-0.056 -0.39,-0.069 -0.362,-0.07 -0.347,-0.083 -0.167,-0.028 -0.042,-0.014 -0.042,-0.014 -0.111,-0.027 -0.237,-0.057 -0.237,-0.069 -0.264,-0.07 -0.278,-0.097 -0.307,-0.097 -0.348,-0.111 -0.18,-0.07 -0.209,-0.069 -0.111,-0.042 -0.056,-0.014 -0.07,-0.028 -0.07,-0.028 -0.11,-0.041 -0.126,-0.056 -0.139,-0.055 -0.153,-0.056 -0.181,-0.069 -0.181,-0.084 -0.417,-0.154 -0.209,-0.096 h -0.042 V 3.533 h -0.028 L -37.701,3.505 -37.811,3.463 -37.923,3.408 -38.062,3.366 -38.215,3.296 -38.382,3.241 -38.577,3.157 -38.8,3.074 -39.05,2.976 -39.329,2.865 -39.663,2.74 -40.039,2.587 -40.233,2.517 -40.303,2.489 -40.386,2.462 -40.498,2.42 -40.651,2.364 -40.818,2.295 -41.013,2.239 -41.235,2.155 -41.486,2.086 -41.75,2.003 -42.028,1.905 -42.335,1.808 -42.655,1.724 -42.989,1.627 -43.337,1.53 -44.06,1.335 -44.436,1.238 -44.631,1.182 -44.728,1.168 -44.742,1.154 -44.812,1.14 -45.118,1.071 -45.452,1.001 -45.786,0.931 -46.148,0.848 -46.538,0.779 -46.969,0.695 -47.428,0.626 -47.943,0.542 -48.222,0.486 -48.5,0.445 -48.653,0.417 h -0.07 l -0.041,-0.014 -0.07,-0.014 h -0.083 l -0.098,-0.014 -0.125,-0.014 -0.153,-0.014 -0.153,-0.028 -0.181,-0.014 -0.39,-0.042 -0.445,-0.041 -0.459,-0.042 -0.961,-0.069 -1.002,-0.056 -1.015,-0.042 -1.476,1.336 -1.433,1.376 -1.406,1.406 -1.377,1.446 0.988,-0.083 0.974,-0.071 0.946,-0.027 0.96,-0.014 h 0.961 l 0.96,0.028 0.918,0.042 0.891,0.042 0.849,0.069 0.418,0.042 0.375,0.041 0.376,0.042 0.334,0.027 0.306,0.042 0.265,0.029 0.222,0.042 0.195,0.027 0.139,0.014 0.084,0.013 0.264,0.057 0.223,0.041 0.222,0.042 0.195,0.042 0.181,0.042 0.167,0.027 0.154,0.042 0.25,0.041 0.222,0.056 0.181,0.042 0.167,0.028 0.14,0.041 0.069,0.015 h 0.014 l 0.084,0.027 0.334,0.083 0.64,0.167 0.598,0.167 0.279,0.084 0.264,0.07 0.25,0.083 0.223,0.07 0.209,0.069 0.181,0.056 0.167,0.056 0.139,0.055 0.111,0.041 0.084,0.029 0.208,0.069 0.376,0.14 0.32,0.125 0.292,0.125 0.265,0.097 0.237,0.083 0.208,0.084 0.181,0.07 0.168,0.069 0.152,0.069 0.279,0.098 0.125,0.056 0.431,0.18 0.418,0.167 0.389,0.154 0.349,0.125 0.152,0.069 0.14,0.056 0.139,0.042 0.111,0.055 0.098,0.028 0.083,0.028 0.056,0.027 0.042,0.014 0.264,0.084 0.236,0.069 0.223,0.07 0.195,0.069 0.181,0.057 0.181,0.041 0.153,0.055 0.278,0.07 0.237,0.07 0.431,0.11 h 0.028 v 0.015 h 0.028 l 0.111,0.027 0.223,0.056 0.473,0.098 0.487,0.084 0.515,0.083 0.529,0.083 0.571,0.07 0.598,0.055 0.64,0.056 0.668,0.041 0.696,0.029 0.752,0.013 h 0.778 l 0.767,-0.013 0.723,-0.014 0.682,-0.042 0.334,-0.014 0.306,-0.028 0.293,-0.028 0.264,-0.014 0.236,-0.027 0.195,-0.014 0.153,-0.028 h 0.111 l 0.029,-0.014 h 0.041 l 0.056,-0.014 0.083,-0.014 0.348,-0.056 0.32,-0.056 0.279,-0.041 0.25,-0.042 0.223,-0.042 0.209,-0.041 0.194,-0.042 0.334,-0.069 0.168,-0.042 h 0.013 l 0.028,-0.015 0.418,-0.096 0.417,-0.112 0.362,-0.111 0.334,-0.098 0.153,-0.055 0.139,-0.041 0.125,-0.042 0.112,-0.029 0.083,-0.041 0.084,-0.028 0.055,-0.014 0.042,-0.013 0.042,-0.015 0.097,-0.041 0.167,-0.07 0.307,-0.111 0.278,-0.112 0.251,-0.097 0.208,-0.084 0.195,-0.083 0.181,-0.055 0.153,-0.07 0.279,-0.111 0.25,-0.098 0.027,-0.013 0.112,-0.042 0.445,-0.181 0.445,-0.181 0.418,-0.167 0.39,-0.167 0.181,-0.069 0.153,-0.056 0.139,-0.055 0.125,-0.056 0.098,-0.027 0.083,-0.042 0.056,-0.015 0.028,-0.014 0.055,-0.013 0.112,-0.042 0.236,-0.07 0.404,-0.125 0.376,-0.111 0.348,-0.111 0.306,-0.098 0.278,-0.083 0.25,-0.069 0.237,-0.071 0.223,-0.055 0.39,-0.112 0.361,-0.083 0.084,-0.027 0.696,-0.153 0.709,-0.154 0.738,-0.125 0.766,-0.125 0.779,-0.111 0.807,-0.098 0.849,-0.083 0.862,-0.069 0.905,-0.042 0.933,-0.042 0.96,-0.014 h 1.976 l 0.96,0.014 0.933,0.042 0.904,0.042 0.864,0.069 0.848,0.083 0.807,0.098 0.794,0.111 0.751,0.125 0.738,0.125 0.709,0.154 0.696,0.153 0.083,0.027 0.363,0.083 0.403,0.112 0.209,0.055 0.236,0.071 0.251,0.069 0.279,0.083 0.305,0.098 0.348,0.111 0.376,0.111 0.418,0.125 0.222,0.07 0.112,0.042 0.055,0.013 0.028,0.014 0.055,0.015 0.084,0.042 0.098,0.027 0.125,0.056 0.139,0.055 0.167,0.056 0.167,0.069 0.389,0.167 0.418,0.167 0.446,0.181 0.459,0.181 0.111,0.042 0.015,0.013 h 0.013 l 0.25,0.098 0.265,0.111 0.167,0.07 0.167,0.055 0.194,0.083 0.224,0.084 0.236,0.097 0.279,0.112 0.305,0.111 0.181,0.07 0.084,0.041 0.042,0.015 0.042,0.013 0.056,0.014 0.083,0.028 0.084,0.041 0.111,0.029 0.125,0.042 0.14,0.041 0.152,0.055 0.334,0.098 0.376,0.111 0.403,0.112 0.432,0.096 0.013,0.015 h 0.029 l 0.153,0.042 0.333,0.069 0.195,0.042 0.209,0.041 0.223,0.042 0.25,0.042 0.278,0.041 0.321,0.056 0.348,0.056 0.083,0.014 0.056,0.014 h 0.042 l 0.027,0.014 h 0.112 l 0.153,0.028 0.194,0.014 0.238,0.027 0.263,0.014 0.293,0.028 0.306,0.028 0.334,0.014 0.683,0.042 0.722,0.014 0.766,0.013 h 0.779 l 0.752,-0.013 0.71,-0.029 0.668,-0.041 0.626,-0.056 0.599,-0.055 0.57,-0.07 0.528,-0.083 0.516,-0.083 0.487,-0.084 0.473,-0.098 0.222,-0.056 0.112,-0.027 h 0.028 V 10.18 h 0.027 L 35.251,10.07 35.487,10 35.766,9.93 35.933,9.875 36.1,9.834 l 0.18,-0.057 0.196,-0.069 0.222,-0.07 0.237,-0.069 0.264,-0.084 0.042,-0.014 0.07,-0.027 0.069,-0.028 0.098,-0.028 0.125,-0.055 0.126,-0.042 0.138,-0.056 0.154,-0.069 0.347,-0.125 0.39,-0.154 0.418,-0.167 0.432,-0.18 0.125,-0.056 0.278,-0.098 0.153,-0.069 0.167,-0.069 0.195,-0.07 0.208,-0.084 0.223,-0.083 0.265,-0.097 0.292,-0.125 0.334,-0.125 0.362,-0.14 0.208,-0.069 0.084,-0.029 0.11,-0.041 0.14,-0.055 0.167,-0.056 0.181,-0.056 0.209,-0.069 0.237,-0.07 0.236,-0.083 0.264,-0.07 0.278,-0.084 0.599,-0.167 0.641,-0.167 0.334,-0.083 0.083,-0.027 h 0.013 L 46.065,6.383 46.203,6.342 46.37,6.314 46.552,6.272 46.775,6.216 47.038,6.175 47.178,6.133 47.345,6.106 47.526,6.064 47.721,6.022 47.943,5.98 48.18,5.939 48.43,5.882 48.514,5.869 48.653,5.855 48.848,5.828 49.07,5.786 49.349,5.757 49.641,5.715 49.989,5.688 50.351,5.646 50.74,5.605 51.144,5.563 51.993,5.494 52.884,5.452 53.802,5.41 54.763,5.382 h 0.973 l 0.947,0.014 0.946,0.027 0.975,0.071 0.988,0.083 L 58.228,4.131 56.808,2.725 55.375,1.349 53.9,0.013 52.884,0.055 51.896,0.111 50.921,0.18 50.462,0.222 50.03,0.263 49.627,0.305 49.446,0.319 49.293,0.347 49.14,0.361 49.015,0.375 48.917,0.389 h -0.083 l -0.07,0.014 -0.028,0.014 H 48.653 L 48.5,0.445 48.222,0.486 47.943,0.542 47.428,0.626 46.969,0.695 46.537,0.779 46.148,0.848 45.786,0.931 45.452,1.001 45.132,1.071 44.812,1.14 44.742,1.154 44.729,1.168 44.631,1.182 44.45,1.238 44.061,1.335 43.337,1.53 42.988,1.627 42.655,1.724 42.335,1.808 42.028,1.905 41.75,2.003 41.485,2.086 41.235,2.155 41.026,2.239 40.818,2.295 40.651,2.364 40.498,2.42 40.386,2.462 40.303,2.489 40.234,2.517 40.038,2.587 39.662,2.74 39.343,2.865 39.05,2.976 38.8,3.074 38.577,3.157 38.382,3.241 38.215,3.296 38.063,3.366 37.937,3.408 37.812,3.463 37.7,3.505 37.645,3.533 H 37.617 V 3.547 H 37.575 L 37.366,3.643 36.963,3.797 36.768,3.881 36.601,3.95 36.434,4.006 36.295,4.061 36.169,4.117 36.072,4.158 35.988,4.186 35.919,4.214 35.863,4.228 35.752,4.27 35.557,4.339 35.362,4.409 35.015,4.52 34.708,4.617 34.43,4.714 34.166,4.784 33.929,4.853 33.693,4.91 33.581,4.937 33.554,4.951 H 33.539 L 33.497,4.965 33.33,4.993 32.983,5.076 32.621,5.146 32.231,5.215 31.827,5.271 31.382,5.327 30.909,5.382 30.408,5.423 29.865,5.452 29.28,5.48 28.641,5.494 27.973,5.507 H 27.305 L 26.664,5.48 26.08,5.465 25.802,5.438 25.566,5.423 25.357,5.41 H 25.273 L 25.19,5.396 H 25.064 L 25.05,5.382 H 25.008 L 24.66,5.34 24.341,5.298 24.048,5.271 23.783,5.229 23.533,5.187 23.311,5.146 22.893,5.076 22.518,4.993 22.434,4.965 22.392,4.951 H 22.364 L 22.322,4.937 22.155,4.895 21.863,4.826 21.585,4.743 21.474,4.714 21.362,4.687 21.278,4.659 21.195,4.631 21.14,4.617 21.098,4.603 20.958,4.548 20.681,4.45 20.43,4.353 19.957,4.186 19.539,4.019 19.136,3.866 18.746,3.714 18.551,3.63 18.44,3.588 18.398,3.56 H 18.37 L 18.259,3.518 18.036,3.421 16.157,2.656 15.712,2.475 15.295,2.322 15.113,2.239 14.933,2.17 14.766,2.114 14.626,2.058 14.487,2.003 14.376,1.961 14.292,1.933 14.209,1.905 14.167,1.891 14.125,1.878 14.056,1.864 13.764,1.794 13.499,1.724 13.249,1.669 13.026,1.599 12.818,1.557 12.622,1.502 12.455,1.46 12.288,1.419 12.15,1.39 12.024,1.363 11.912,1.321 11.718,1.279 11.578,1.238 11.468,1.21 11.384,1.196 11.328,1.182 11.259,1.168 H 11.244 L 11.148,1.14 10.34,0.96 9.533,0.793 8.685,0.639 7.808,0.501 6.917,0.375 5.998,0.278 5.052,0.18 4.092,0.111 3.104,0.055 2.073,0.013 1.03,0 Z"
       transform="matrix(1.33333,0,0,-1.33333,132.284,213.492)"
       id="path9" />
    <path
       d="M 0,0 -9.282,-16.079 -18.564,0 l 2.769,1.585 4.913,-8.525 v 31.544 h 3.201 V -6.94 l 4.912,8.525 z"
       transform="matrix(1.33333,0,0,-1.33333,144.66,161.176)"
       id="path10" />
    <path
       d="m 194.426,667.112 h -2.84 v -17.165 h 2.84 z"
       transform="matrix(1.33333,0,0,-1.33333,-125.057,913.35)"
       id="path11" />
  </g>
</svg>
