<?xml version="1.0" encoding="UTF-8" standalone="no"?>
<svg
   height="264.56601"
   width="264.56735"
   version="1.1"
   id="svg5"
   xmlns="http://www.w3.org/2000/svg"
   xmlns:svg="http://www.w3.org/2000/svg">
  <defs
     id="defs5" />
  <clipPath
     id="a">
    <path
       d="m 44.87,477.731 h 228.24 v 228.24 H 44.87 Z"
       id="path1" />
  </clipPath>
  <g
     clip-path="url(#a)"
     fill-rule="evenodd"
     transform="matrix(1.33333,0,0,-1.33333,-79.702467,921.41503)"
     id="g5">
    <path
       d="m 0,0 c 54.79,0 99.213,44.438 99.213,99.177 0,54.81 -44.423,99.248 -99.213,99.248 -54.79,0 -99.213,-44.438 -99.213,-99.248 C -99.213,44.438 -54.79,0 0,0"
       fill="#005387"
       transform="translate(158.99,492.638)"
       id="path2" />
    <g
       fill="#ecece7"
       id="g4">
      <path
         d="m 0,0 -4.38,24.869 -0.452,-0.478 -0.478,-0.451 -0.494,-0.398 -0.519,-0.369 -0.534,-0.314 -0.562,-0.274 -0.56,-0.219 -0.589,-0.177 -0.603,-0.138 -0.602,-0.081 -0.615,-0.028 -0.603,0.014 -0.616,0.068 -0.615,0.109 -0.617,0.165 -0.602,0.205 -0.603,0.26 -0.575,0.301 4.381,-24.87 0.109,-0.493 0.164,-0.492 0.205,-0.465 0.261,-0.437 0.287,-0.425 0.342,-0.383 0.37,-0.342 0.397,-0.315 0.438,-0.273 0.451,-0.233 0.48,-0.178 0.492,-0.136 0.507,-0.082 0.507,-0.041 0.506,0.013 0.506,0.069 0.494,0.109 0.493,0.164 0.465,0.205 0.438,0.261 0.41,0.287 0.397,0.342 0.342,0.369 0.315,0.397 0.273,0.438 0.234,0.451 0.177,0.479 0.137,0.492 0.082,0.506 0.042,0.507 -0.014,0.506 z m -33.207,23.064 -4.381,-24.87 -0.109,-0.493 -0.165,-0.492 -0.205,-0.465 -0.26,-0.437 -0.287,-0.425 -0.342,-0.383 -0.37,-0.342 -0.397,-0.315 -0.438,-0.273 -0.452,-0.233 -0.479,-0.178 -0.492,-0.136 -0.507,-0.082 -0.506,-0.041 -0.507,0.013 -0.507,0.069 -0.492,0.109 -0.493,0.164 -0.465,0.205 -0.438,0.261 -0.411,0.287 -0.397,0.342 -0.342,0.369 -0.315,0.397 -0.274,0.438 -0.233,0.451 -0.177,0.479 -0.137,0.492 -0.082,0.506 -0.042,0.507 0.014,0.506 0.068,0.506 4.381,24.869 0.452,-0.478 0.465,-0.451 0.506,-0.398 0.521,-0.369 0.534,-0.314 0.561,-0.274 0.561,-0.219 0.588,-0.177 0.603,-0.138 0.602,-0.081 0.616,-0.028 0.602,0.014 0.616,0.068 0.616,0.109 0.616,0.165 0.602,0.205 0.602,0.26 z M 19.808,77.988 13.319,95.8 5.736,90.97 11.553,74.978 Z m 2.792,-7.674 0.137,-0.451 0.082,-0.452 0.041,-0.452 v -0.465 l -0.055,-0.451 -0.109,-0.452 -0.151,-0.424 -0.192,-0.424 -0.233,-0.396 -0.287,-0.37 -0.301,-0.328 -0.356,-0.301 -0.369,-0.26 -0.411,-0.232 -0.424,-0.178 -0.439,-0.137 -0.451,-0.083 -0.452,-0.04 -0.465,0.014 -0.452,0.055 -0.451,0.095 -0.425,0.151 -0.425,0.191 -0.396,0.246 -0.357,0.274 -0.341,0.314 -0.301,0.343 -0.261,0.383 -0.232,0.396 -0.178,0.424 z m -83.745,25.486 -6.489,-17.812 8.255,-3.01 5.817,15.992 z m -9.281,-25.486 -0.136,-0.451 -0.083,-0.452 -0.041,-0.452 v -0.465 l 0.055,-0.451 0.11,-0.452 0.15,-0.424 0.192,-0.424 0.232,-0.396 0.288,-0.37 0.301,-0.328 0.356,-0.301 0.369,-0.26 0.411,-0.232 0.424,-0.178 0.438,-0.137 0.452,-0.083 0.452,-0.04 0.465,0.014 0.452,0.055 0.452,0.095 0.424,0.151 0.424,0.191 0.397,0.246 0.356,0.274 0.343,0.314 0.301,0.343 0.26,0.383 0.232,0.396 0.178,0.424 z m 18.89,23.844 15.961,15.964 V 69.506 l -4.298,-24.418 0.588,0.301 0.589,0.261 0.602,0.204 0.616,0.165 0.616,0.109 0.616,0.069 0.616,0.013 0.602,-0.027 0.602,-0.082 0.603,-0.137 0.588,-0.179 0.575,-0.218 0.548,-0.274 0.547,-0.314 0.507,-0.369 0.506,-0.397 0.466,-0.452 0.451,-0.479 3.245,18.386 0.082,0.342 0.136,0.328 0.165,0.301 0.219,0.274 0.26,0.246 0.274,0.206 0.315,0.177 0.328,0.11 0.342,0.082 0.356,0.013 0.356,-0.013 0.342,-0.082 0.329,-0.11 0.314,-0.177 0.274,-0.206 0.26,-0.246 0.219,-0.274 0.165,-0.301 0.137,-0.328 0.082,-0.342 3.244,-18.386 0.452,0.479 0.465,0.452 0.507,0.397 0.506,0.369 0.547,0.314 0.548,0.274 0.574,0.218 0.589,0.179 0.603,0.137 0.602,0.082 0.602,0.027 0.616,-0.013 0.616,-0.069 0.617,-0.109 0.615,-0.165 0.602,-0.204 0.589,-0.261 0.589,-0.301 -4.299,24.418 v 40.616 L 3.71,94.158 l 7.583,4.829 -19.191,19.179 -0.315,0.3 -0.341,0.247 -0.37,0.233 -0.397,0.177 -0.398,0.151 -0.423,0.095 -0.424,0.069 -0.425,0.014 h -25.844 l -0.424,-0.014 -0.424,-0.069 -0.425,-0.095 -0.397,-0.151 -0.397,-0.177 -0.369,-0.233 -0.343,-0.247 -0.314,-0.3 -19.191,-19.179 z m -4.626,11.34 14.441,14.46 0.451,0.397 0.479,0.368 0.506,0.329 0.535,0.274 0.561,0.232 0.575,0.178 0.588,0.137 0.589,0.081 0.602,0.028 h 25.844 l 0.603,-0.028 0.587,-0.081 0.589,-0.137 0.575,-0.178 0.561,-0.232 0.534,-0.274 0.507,-0.329 0.479,-0.368 0.452,-0.397 14.44,-14.46 0.645,-0.123 0.656,-0.177 0.643,-0.219 0.63,-0.26 0.629,-0.315 0.616,-0.343 0.589,-0.396 0.589,-0.438 0.561,-0.465 0.534,-0.506 0.506,-0.534 0.479,-0.574 0.452,-0.602 0.424,-0.616 0.384,-0.642 0.356,-0.657 0.301,-0.684 0.274,-0.684 0.232,-0.698 0.192,-0.711 0.15,-0.712 0.097,-0.711 0.068,-0.697 0.014,-0.698 -0.028,-0.698 -0.068,-0.67 -0.124,-0.657 -0.15,-0.643 4.188,-11.518 0.233,0.055 0.247,0.014 0.246,-0.028 0.233,-0.082 0.219,-0.137 0.177,-0.164 0.151,-0.192 0.109,-0.219 1.931,-5.307 0.068,-0.246 0.014,-0.246 -0.041,-0.247 -0.082,-0.232 -0.123,-0.205 -0.165,-0.192 -0.205,-0.151 -0.219,-0.095 0.178,-0.589 0.136,-0.588 0.082,-0.588 0.028,-0.602 -0.028,-0.602 -0.082,-0.602 -0.136,-0.588 -0.178,-0.574 -0.233,-0.561 -0.273,-0.534 -0.329,-0.506 -0.369,-0.479 -0.398,-0.438 -0.451,-0.41 -0.479,-0.369 -0.507,-0.328 -0.533,-0.274 -0.562,-0.233 -0.575,-0.178 -0.589,-0.137 -0.588,-0.082 -0.602,-0.013 -0.603,0.013 -0.602,0.082 -0.588,0.137 -0.575,0.178 -0.562,0.233 -0.533,0.274 -0.507,0.328 -0.48,0.369 -0.437,0.41 -0.411,0.438 -0.369,0.479 -0.328,0.506 -0.275,0.534 -0.232,0.561 -0.233,-0.07 -0.246,-0.012 -0.247,0.041 -0.232,0.082 -0.219,0.123 -0.179,0.164 -0.15,0.205 -0.109,0.219 -1.93,5.308 -0.056,0.246 -0.013,0.246 0.028,0.246 0.082,0.233 0.122,0.205 0.165,0.191 0.205,0.137 0.22,0.109 -4.737,13.024 -0.534,0.437 -0.493,0.466 -0.492,0.506 -0.452,0.52 -0.438,0.548 -0.397,0.56 -0.383,0.588 -0.343,0.616 -0.314,0.629 -0.274,0.629 -0.246,0.644 -0.22,0.656 -0.164,0.656 -9.431,9.439 V 69.726 l 4.777,-27.155 0.466,-0.56 0.424,-0.603 0.397,-0.628 0.369,-0.671 0.329,-0.684 0.301,-0.698 0.274,-0.725 0.218,-0.738 0.193,-0.753 0.164,-0.766 0.109,-0.766 0.082,-0.78 0.028,-0.766 V 32.654 L -1.642,31.887 -1.724,31.135 -1.834,30.383 -1.998,29.657 -2.189,28.947 -2.423,28.262 2.478,0.438 2.561,-0.192 2.602,-0.835 2.573,-1.464 2.505,-2.107 2.382,-2.722 2.204,-3.338 1.972,-3.94 1.698,-4.514 1.383,-5.061 1.014,-5.582 0.603,-6.074 0.165,-6.539 l -0.493,-0.41 -0.507,-0.37 -0.548,-0.342 -0.574,-0.287 -0.589,-0.232 -0.616,-0.193 -0.616,-0.136 -0.629,-0.082 -0.644,-0.028 -0.628,0.015 -0.644,0.082 -0.616,0.123 -0.616,0.178 -0.603,0.218 -0.574,0.274 -0.548,0.328 -0.521,0.369 -0.492,0.397 -0.452,0.452 -0.425,0.478 -0.369,0.521 -0.328,0.547 -0.288,0.574 -0.246,0.588 -0.178,0.616 -0.138,0.615 -4.913,27.824 -0.452,0.562 -0.425,0.601 -0.396,0.63 -0.369,0.67 -0.329,0.685 -0.301,0.697 -0.275,0.725 -0.232,0.739 -0.191,0.752 -0.151,0.766 -0.109,0.766 -0.082,0.78 -0.041,0.766 v 0.779 l 0.041,0.767 0.082,0.752 0.123,0.753 0.164,0.724 0.191,0.712 0.234,0.684 -3.765,21.341 -3.765,-21.341 0.233,-0.684 0.192,-0.712 0.164,-0.724 0.123,-0.753 0.082,-0.752 0.042,-0.767 v -0.779 l -0.042,-0.766 -0.082,-0.78 -0.109,-0.766 -0.15,-0.766 -0.192,-0.752 -0.233,-0.739 -0.274,-0.725 -0.301,-0.697 -0.329,-0.685 -0.369,-0.67 -0.397,-0.63 -0.424,-0.601 -0.452,-0.562 -4.914,-27.824 -0.137,-0.615 -0.178,-0.616 -0.246,-0.588 -0.288,-0.574 -0.328,-0.547 -0.37,-0.521 -0.424,-0.478 -0.452,-0.452 -0.493,-0.397 -0.52,-0.369 -0.547,-0.328 -0.575,-0.274 -0.602,-0.218 -0.616,-0.178 -0.616,-0.123 -0.644,-0.082 -0.629,-0.015 -0.644,0.028 -0.629,0.082 -0.616,0.136 -0.616,0.193 -0.589,0.232 -0.575,0.287 -0.548,0.342 -0.506,0.37 -0.493,0.41 -0.438,0.465 -0.41,0.492 -0.37,0.521 -0.315,0.547 -0.274,0.574 -0.232,0.602 -0.178,0.616 -0.123,0.615 -0.069,0.643 -0.027,0.629 0.041,0.643 0.082,0.63 4.9,27.824 -0.233,0.685 -0.191,0.71 -0.164,0.726 -0.11,0.752 -0.082,0.752 -0.041,0.767 v 0.779 l 0.027,0.766 0.083,0.78 0.109,0.766 0.164,0.766 0.192,0.753 0.219,0.738 0.274,0.725 0.301,0.698 0.328,0.684 0.37,0.671 0.397,0.628 0.424,0.603 0.466,0.56 4.777,27.155 v 34.308 l -9.431,-9.439 -0.164,-0.656 -0.22,-0.656 -0.246,-0.644 -0.274,-0.629 -0.314,-0.629 -0.343,-0.616 -0.383,-0.588 -0.397,-0.56 -0.438,-0.548 -0.452,-0.52 -0.493,-0.506 -0.493,-0.466 -0.533,-0.437 -4.736,-13.024 0.219,-0.109 0.205,-0.137 0.164,-0.191 0.123,-0.205 0.083,-0.233 0.027,-0.246 -0.013,-0.246 -0.055,-0.246 -1.93,-5.308 -0.11,-0.219 -0.151,-0.205 -0.177,-0.164 -0.22,-0.123 -0.232,-0.082 -0.246,-0.041 -0.247,0.012 -0.232,0.07 -0.233,-0.561 -0.288,-0.534 -0.315,-0.506 -0.369,-0.479 -0.411,-0.438 -0.438,-0.41 -0.479,-0.369 -0.506,-0.328 -0.534,-0.274 -0.561,-0.233 -0.575,-0.178 -0.589,-0.137 -0.602,-0.082 -0.602,-0.013 -0.603,0.013 -0.588,0.082 -0.589,0.137 -0.575,0.178 -0.561,0.233 -0.534,0.274 -0.507,0.328 -0.479,0.369 -0.451,0.41 -0.397,0.438 -0.37,0.479 -0.328,0.506 -0.274,0.534 -0.233,0.561 -0.177,0.574 -0.138,0.588 -0.082,0.602 -0.027,0.602 0.027,0.602 0.082,0.588 0.138,0.588 0.177,0.589 -0.219,0.095 -0.205,0.151 -0.165,0.192 -0.123,0.205 -0.082,0.232 -0.041,0.247 0.014,0.246 0.068,0.246 1.93,5.307 0.11,0.219 0.15,0.192 0.179,0.164 0.218,0.137 0.233,0.082 0.247,0.028 0.246,-0.014 0.232,-0.055 4.189,11.518 -0.15,0.643 -0.124,0.657 -0.068,0.67 -0.027,0.698 0.013,0.698 0.069,0.697 0.096,0.711 0.15,0.712 0.192,0.711 0.232,0.698 0.274,0.684 0.301,0.684 0.356,0.657 0.384,0.642 0.424,0.616 0.451,0.602 0.479,0.574 0.507,0.534 0.534,0.506 0.561,0.465 0.589,0.438 0.588,0.396 0.617,0.343 0.629,0.315 0.63,0.26 0.643,0.219 0.657,0.177 z"
         transform="translate(182.903,521.585)"
         id="path3" />
      <path
         d="m 0,0 -0.353,-0.75 -0.41,-0.72 -0.453,-0.693 -0.509,-0.664 -0.537,-0.622 -0.58,-0.594 -0.623,-0.551 -0.651,-0.509 -0.692,-0.453 -0.708,-0.424 -0.749,-0.367 -0.765,-0.311 -0.777,-0.269 -0.807,-0.226 -0.805,-0.155 -0.821,-0.113 -0.835,-0.057 h -0.82 l -0.835,0.057 -0.82,0.113 -0.806,0.155 -0.807,0.226 -0.777,0.269 -0.765,0.311 -0.734,0.367 -0.723,0.424 -0.678,0.453 -0.665,0.509 -0.622,0.551 -0.581,0.594 -0.537,0.622 -0.495,0.664 -0.467,0.693 -0.396,0.72 -0.368,0.75 h 2.829 l 0.382,-0.608 0.439,-0.579 0.466,-0.552 0.51,-0.509 0.537,-0.466 0.58,-0.438 0.608,-0.396 0.623,-0.34 0.65,-0.296 0.68,-0.255 0.692,-0.212 0.708,-0.155 0.707,-0.099 0.721,-0.057 h 0.722 l 0.707,0.057 0.722,0.099 0.692,0.155 0.694,0.212 0.678,0.255 0.651,0.296 0.637,0.34 0.608,0.396 0.565,0.438 0.552,0.466 0.495,0.509 0.482,0.552 0.424,0.579 L -2.829,0 Z M 2.023,2.12 2.179,2.968 2.278,3.831 2.334,4.693 V 5.555 L 2.278,6.432 2.165,7.28 1.995,8.142 1.783,8.976 l -0.269,0.82 -0.325,0.806 -0.368,0.777 -0.424,0.764 -0.467,0.734 -0.51,0.693 -0.551,0.665 -0.594,0.636 -0.637,0.593 -0.665,0.552 -0.706,0.508 -0.723,0.453 -0.762,0.424 -0.793,0.367 -0.806,0.312 -0.82,0.268 -0.835,0.226 -0.849,0.156 -0.863,0.113 -0.862,0.056 h -0.863 l -0.878,-0.056 -0.848,-0.113 -0.863,-0.156 -0.835,-0.226 -0.82,-0.268 -0.806,-0.312 -0.792,-0.367 -0.75,-0.424 -0.736,-0.453 -0.706,-0.508 -0.665,-0.552 -0.637,-0.593 -0.594,-0.636 -0.552,-0.665 -0.509,-0.693 -0.467,-0.734 -0.41,-0.764 -0.382,-0.777 -0.311,-0.806 -0.269,-0.82 -0.226,-0.834 -0.156,-0.862 -0.113,-0.848 -0.057,-0.877 -0.014,-0.862 0.057,-0.862 0.099,-0.863 0.17,-0.848 h 3.904 l -0.184,0.665 -0.141,0.678 -0.085,0.693 -0.043,0.693 0.014,0.692 0.056,0.693 0.1,0.678 0.155,0.679 0.199,0.664 0.24,0.65 0.283,0.622 0.325,0.622 0.368,0.58 1.499,0.254 1.5,0.212 1.513,0.156 1.514,0.113 1.513,0.042 h 1.528 l 1.513,-0.042 1.514,-0.113 1.513,-0.156 1.5,-0.212 1.499,-0.254 0.368,-0.58 0.325,-0.622 0.297,-0.622 0.24,-0.65 0.185,-0.664 0.155,-0.679 0.1,-0.678 L -1.457,5.541 -1.442,4.849 -1.485,4.156 -1.57,3.463 -1.71,2.785 -1.88,2.12 Z"
         transform="translate(170.475,654.267)"
         id="path4" />
    </g>
  </g>
</svg>
