<?xml version="1.0" encoding="UTF-8" standalone="no"?>
<svg
   height="264.56601"
   width="264.56735"
   version="1.1"
   id="svg8"
   xmlns="http://www.w3.org/2000/svg"
   xmlns:svg="http://www.w3.org/2000/svg">
  <defs
     id="defs8" />
  <clipPath
     id="a">
    <path
       d="M 44.87,471.68 H 273.11 V 699.921 H 44.87 Z"
       id="path1" />
  </clipPath>
  <g
     clip-path="url(#a)"
     fill-rule="evenodd"
     transform="matrix(1.33333,0,0,-1.33333,-79.702467,913.34838)"
     id="g8">
    <path
       d="m 0,0 c -54.79,0 -99.213,44.438 -99.213,99.177 0,54.81 44.423,99.248 99.213,99.248 54.79,0 99.213,-44.438 99.213,-99.248 C 99.213,44.438 54.79,0 0,0"
       fill="#005387"
       transform="translate(158.99,486.588)"
       id="path2" />
    <g
       fill="#ecece7"
       id="g7">
      <path
         d="m 0,0 h 125.318 l -1.23,-1.457 -1.276,-1.428 -1.307,-1.413 -1.338,-1.366 h -115 L 3.83,-4.298 2.522,-2.885 1.246,-1.457 Z"
         transform="translate(96.324,533.954)"
         id="path3" />
      <path
         d="m 0,0 0.744,0.03 0.73,0.076 0.729,0.137 0.714,0.197 0.7,0.244 0.683,0.303 0.654,0.35 0.638,0.394 0.593,0.441 0.562,0.471 0.517,0.531 0.486,0.562 0.441,0.592 0.394,0.638 0.35,0.653 0.305,0.684 0.242,0.698 0.182,0.714 0.137,0.728 0.092,0.746 0.03,0.728 v 12.757 l -0.03,0.41 -0.092,0.395 -0.137,0.379 -0.197,0.349 -0.243,0.334 -0.289,0.273 -0.318,0.244 -0.35,0.197 -0.38,0.137 -0.395,0.09 L 7.081,25.514 6.687,25.482 6.291,25.392 5.911,25.255 5.546,25.058 5.227,24.814 4.939,24.541 4.696,24.207 4.498,23.858 4.362,23.479 4.27,23.084 4.255,22.674 V 9.917 L 4.225,9.446 4.149,8.976 4.012,8.52 3.829,8.079 3.601,7.654 3.328,7.274 3.009,6.91 2.644,6.591 2.264,6.317 1.839,6.09 1.398,5.907 0.942,5.771 0.471,5.695 0,5.665 h -31.181 l -0.472,0.03 -0.471,0.076 -0.47,0.136 -0.441,0.183 -0.411,0.227 -0.394,0.274 -0.35,0.319 -0.319,0.364 -0.274,0.38 -0.228,0.425 -0.182,0.441 -0.137,0.456 -0.076,0.47 -0.03,0.471 v 12.757 l -0.03,0.41 -0.077,0.395 -0.152,0.379 -0.197,0.349 -0.228,0.334 -0.289,0.273 -0.334,0.244 -0.349,0.197 -0.38,0.137 -0.395,0.09 -0.396,0.032 -0.41,-0.032 -0.395,-0.09 -0.38,-0.137 -0.35,-0.197 -0.334,-0.244 -0.273,-0.273 -0.243,-0.334 -0.198,-0.349 -0.137,-0.379 -0.091,-0.395 -0.03,-0.41 V 9.917 l 0.03,-0.728 0.076,-0.746 0.137,-0.728 0.198,-0.714 0.242,-0.698 0.305,-0.684 0.334,-0.653 0.395,-0.638 0.441,-0.592 0.486,-0.562 0.532,-0.531 0.562,-0.471 0.593,-0.441 0.623,-0.394 0.668,-0.35 0.669,-0.303 0.699,-0.244 0.729,-0.197 0.73,-0.137 0.729,-0.076 0.745,-0.03 z"
         transform="translate(164.522,536.794)"
         id="path4" />
      <path
         d="M 0,0 H 14.907 L 5.912,-8.398 h 9.026 L 27.747,3.538 14.938,15.474 H 5.912 L 14.907,7.076 H 0 Z"
         transform="translate(207.769,577.874)"
         id="path5" />
      <path
         d="m 0,0 4.97,26.804 12.019,-14.366 0.319,-0.334 0.35,-0.304 0.379,-0.274 0.411,-0.227 0.426,-0.183 21.046,-7.836 0.485,-0.152 0.502,-0.091 0.502,-0.045 0.501,0.015 0.501,0.076 0.486,0.136 0.472,0.183 0.456,0.243 0.41,0.273 0.395,0.334 0.335,0.38 0.303,0.395 0.258,0.44 0.198,0.471 0.152,0.486 0.092,0.486 0.045,0.516 -0.015,0.501 -0.076,0.501 -0.137,0.486 -0.183,0.471 -0.243,0.456 -0.273,0.41 -0.334,0.395 -0.38,0.334 -0.396,0.303 -0.44,0.259 -0.471,0.197 -19.922,7.426 -13.645,16.295 -0.365,0.38 -0.395,0.334 -0.426,0.288 -0.47,0.228 -0.487,0.182 -0.502,0.122 -20.3,3.766 -0.456,0.061 -0.472,0.015 -0.471,-0.03 -0.456,-0.091 -0.44,-0.122 -0.441,-0.182 -20.363,-9.461 -0.44,-0.243 -0.426,-0.304 -0.38,-0.334 -0.349,-0.38 -0.304,-0.41 -0.243,-0.455 -0.198,-0.471 -0.151,-0.486 -0.076,-0.501 -0.031,-0.516 V 4.389 l 0.015,-0.501 0.092,-0.501 0.137,-0.487 0.197,-0.47 0.243,-0.441 0.289,-0.41 0.349,-0.379 0.38,-0.335 0.411,-0.303 0.44,-0.243 0.471,-0.197 0.486,-0.137 0.502,-0.076 0.502,-0.031 0.501,0.031 0.501,0.076 0.486,0.137 0.471,0.197 0.441,0.243 0.41,0.303 0.38,0.335 0.335,0.379 0.304,0.41 0.243,0.441 0.182,0.47 0.152,0.487 0.076,0.501 0.03,0.501 v 19.575 l 14.831,6.91 -5.683,-30.722 -0.076,-0.471 -0.015,-0.471 v -27.699 l -7.294,-26.728 -0.106,-0.517 -0.061,-0.546 -0.015,-0.532 0.06,-0.547 0.107,-0.531 0.167,-0.501 0.213,-0.501 0.273,-0.471 0.319,-0.44 0.35,-0.396 0.41,-0.364 0.426,-0.318 0.471,-0.274 0.501,-0.228 0.502,-0.166 0.531,-0.123 0.533,-0.045 0.546,-0.015 0.532,0.06 0.532,0.107 0.516,0.167 0.502,0.213 0.456,0.273 0.441,0.319 0.41,0.349 0.365,0.409 0.319,0.426 0.274,0.471 0.212,0.501 0.183,0.501 7.46,27.396 0.107,0.456 0.061,0.44 0.015,0.471 v 25.179 l 0.167,-0.486 0.198,-0.471 0.243,-0.455 0.304,-0.41 0.334,-0.395 0.365,-0.35 0.41,-0.319 0.425,-0.272 22.08,-12.529 v -25.392 l 0.03,-0.547 0.076,-0.531 0.152,-0.517 0.182,-0.501 0.244,-0.486 0.303,-0.455 0.334,-0.425 0.38,-0.38 0.426,-0.334 0.456,-0.304 0.471,-0.243 0.516,-0.182 0.518,-0.152 0.531,-0.076 0.547,-0.03 0.532,0.03 0.532,0.076 0.532,0.152 0.502,0.182 0.47,0.243 0.456,0.304 0.425,0.334 0.381,0.38 0.334,0.425 0.304,0.455 0.243,0.486 0.197,0.501 0.137,0.517 0.076,0.531 0.03,0.547 v 28.383 l -0.03,0.547 -0.076,0.547 -0.151,0.516 -0.183,0.516 -0.259,0.472 -0.288,0.455 -0.349,0.425 -0.395,0.38 -0.427,0.349 -0.455,0.289 z"
         transform="translate(170.585,607.03)"
         id="path6" />
      <path
         d="M 0,0 0.03,0.713 0.106,1.412 0.243,2.111 0.44,2.794 0.684,3.462 0.973,4.1 1.322,4.723 1.717,5.315 2.157,5.878 2.643,6.393 3.16,6.879 3.723,7.304 4.315,7.699 4.924,8.049 5.577,8.353 6.23,8.595 6.914,8.793 7.612,8.93 8.327,9.005 9.026,9.036 9.74,9.005 10.439,8.93 11.139,8.793 11.822,8.595 12.49,8.353 13.129,8.049 13.752,7.699 14.345,7.304 14.892,6.879 15.424,6.393 15.894,5.878 16.335,5.315 16.73,4.723 17.08,4.1 17.368,3.462 17.627,2.794 17.809,2.111 17.946,1.412 18.037,0.713 18.067,0 18.037,-0.699 17.946,-1.413 17.809,-2.111 17.627,-2.794 17.368,-3.447 17.08,-4.101 16.73,-4.723 16.335,-5.3 15.894,-5.862 15.424,-6.378 14.892,-6.864 14.345,-7.305 13.752,-7.7 13.129,-8.049 12.49,-8.337 11.822,-8.596 11.139,-8.778 10.439,-8.914 9.74,-9.005 9.026,-9.036 8.327,-9.005 7.612,-8.914 6.914,-8.778 6.23,-8.596 5.577,-8.337 4.924,-8.049 4.315,-7.7 3.723,-7.305 3.16,-6.864 2.643,-6.378 2.157,-5.862 1.717,-5.3 1.322,-4.723 0.973,-4.101 0.684,-3.447 0.44,-2.794 0.243,-2.111 0.106,-1.413 0.03,-0.699 Z"
         transform="translate(160.374,657.328)"
         id="path7" />
    </g>
  </g>
</svg>
