<?xml version="1.0" encoding="UTF-8" standalone="no"?>
<svg
   width="265.09579"
   height="265.09579"
   fill-rule="evenodd"
   version="1.1"
   id="svg5"
   xmlns="http://www.w3.org/2000/svg"
   xmlns:svg="http://www.w3.org/2000/svg">
  <defs
     id="defs1">
    <clipPath
       id="A">
      <path
         d="M 0,0 H 198.425 V 198.425 H 0 Z"
         id="path1" />
    </clipPath>
  </defs>
  <g
     clip-path="url(#A)"
     transform="matrix(1.336,0,0,-1.336,0,265.0958)"
     id="g5">
    <path
       d="m 198.425,99.213 c 0,54.794 -44.419,99.213 -99.213,99.213 C 44.418,198.426 0,154.006 0,99.213 0,44.42 44.419,0 99.213,0 c 54.794,0 99.213,44.419 99.213,99.213"
       fill="#005387"
       id="path2" />
    <g
       fill="#ecece7"
       id="g4">
      <path
         d="m 83.07,166.155 a 10.84,10.84 0 0 1 -21.679,0 10.84,10.84 0 0 1 21.679,0 z M 53.02,36.504 59.934,103.159 59.933,125.51 51.904,94.185 c -0.731,-2.852 -3.656,-4.592 -6.51,-3.865 a 5.37,5.37 0 0 0 -3.864,6.51 l 13.208,51.527 a 5.38,5.38 0 0 0 5.195,4.03 l 24.595,0.003 a 5.34,5.34 0 0 0 2.635,-0.682 l 21.238,-11.915 23.449,6.674 a 5.37,5.37 0 0 0 6.609,-3.691 c 0.802,-2.833 -0.86,-5.803 -3.692,-6.609 l -25.581,-7.281 c -1.413,-0.384 -2.787,-0.225 -4.079,0.48 l -20.58,11.546 V 103.57 l 7.819,-66.887 c 0.397,-3.401 -2.308,-6.591 -5.399,-6.771 -3.359,-0.393 -6.426,2.012 -6.815,5.343 l -7.23,61.849 H 71.668 L 65.252,35.238 c -0.346,-3.336 -3.382,-5.781 -6.745,-5.432 -3.363,0.349 -5.832,3.364 -5.487,6.701 m 68.872,130.834 h 24.006 v -15.75 h -24.006 z"
         id="path3" />
      <path
         d="m 99.067,166.365 8.847,13.804 8.847,-13.804 -3.024,-1.854 -4.05,6.318 v -15.572 h -3.547 v 15.572 l -4.05,-6.318 z m 45.457,-75.762 7.821,9.181 c 0.638,0.749 0.966,1.661 0.998,2.579 l 0.778,13.402 c 0.134,2.317 -1.647,4.457 -3.968,4.457 -2.283,0 -4.321,-1.618 -4.457,-3.968 l -0.702,-12.085 -5.911,-6.941 h -18.21 l -12.445,-4.384 -10.537,4.612 a 4.23,4.23 0 0 1 -5.557,-2.174 c -0.927,-2.117 0.056,-4.631 2.174,-5.557 l 11.849,-5.186 c 1.021,-0.51 2.204,-0.596 3.292,-0.212 l 11.225,3.96 V 66.363 l -3.44,-30.501 c -0.304,-2.693 1.651,-5.144 4.344,-5.448 2.625,0 5.137,1.581 5.448,4.344 l 3.564,31.605 h 0.166 l 8.575,-13.038 -0.435,-15.763 c -0.075,-2.709 2.079,-5.061 4.789,-5.061 2.69,0 4.986,2.06 5.061,4.789 l 0.484,17.544 a 4.88,4.88 0 0 1 -0.805,2.596 l -7.937,12.069 v 19.669 a 4.23,4.23 0 0 1 3.835,1.436 z m -4.691,18.154 c 0,4.999 -4.052,9.052 -9.051,9.052 -4.999,0 -9.052,-4.052 -9.052,-9.052 0,-5 4.052,-9.051 9.052,-9.051 a 9.05,9.05 0 0 1 9.051,9.051"
         id="path4" />
    </g>
  </g>
</svg>
