<?xml version="1.0" encoding="UTF-8" standalone="no"?>
<svg
   height="264.56601"
   width="264.56601"
   version="1.1"
   id="svg1"
   xmlns="http://www.w3.org/2000/svg"
   xmlns:svg="http://www.w3.org/2000/svg">
  <defs
     id="defs1" />
  <circle
     cx="132.283"
     cy="132.283"
     fill="#005387"
     r="132.283"
     id="circle1" />
  <path
     d="m 67.508815,45.781375 c -6.93479,0 -12.70899,5.77421 -12.70898,12.709 -1e-5,6.93476 5.77419,12.707 12.70898,12.70704 6.93476,-4e-5 12.70899,-5.77228 12.70899,-12.70704 0,-6.93479 -5.77423,-12.70896 -12.70899,-12.709 z m 0.51368,28.61719 c -6.34121,0 -11.44726,5.10606 -11.44726,11.44728 V 122.0841 c 0,5.78476 0.77604,7.37586 2.07617,8.16605 3.03783,-1.3985 6.25601,-2.51426 9.65234,-3.26173 l 11.16407,-2.45704 v -20.83203 l 5.53319,7.26954 c 1.57473,2.24492 4.38872,3.07616 6.85157,2.22263 0.46964,-0.10243 0.93533,-0.25739 1.38672,-0.48046 L 118.8135,100.30091 c 0.86402,-0.426515 1.57493,-1.034155 2.11914,-1.749995 h 3.79103 l 0.45312,-0.0113 c 0.23674,-0.048 0.61207,0.51629 1.38085,1.880845 l 6.89063,12.23047 6.54101,-1.43947 -2.25,-3.99216 0.0253,-4.22657 66.82814,-8.369155 0.0975,-0.0189 c 0.91465,-0.1731 1.61817,-0.2298 2.15822,-0.21883 0.90002,0.0189 1.34453,0.22374 1.54492,0.38279 0.19578,0.15533 0.43832,0.53945 0.62302,1.25 l 6.22658,-1.3711 c -0.45063,-1.90371 -1.29335,-3.64452 -2.86718,-4.89453 -1.17865,-0.93611 -2.55103,-1.45761 -4.05275,-1.66405 -1.44272,-0.19842 -3.00582,-0.0998 -4.62501,0.19125 l -71.57615,8.96288 c -0.63822,-1.1433 -0.95012,-2.27792 -2.31641,-3.59765 -1.37858,-1.33157 -3.68259,-1.74433 -5.71875,-1.47266 l 0.42382,-0.0302 -2.99217,0.0302 c -1.51069,-2.87218 -5.10955,-4.21482 -8.03712,-2.76952 l -20.787105,10.21678 c -0.83911,0.531165 -0.85165,0.24113 -1.37305,-0.50192 l -12.61328,-17.9805 c -0.1816,-0.2589 -0.38353,-0.49383 -0.5957,-0.71482 -1.92661,-3.59263 -5.7125,-6.02737 -10.08985,-6.02737 z M 227.41505,94.677885 68.872095,129.57044 c -24.2051,5.32717 -39.51856,29.28314 -34.1914,53.48829 l 0.10549,0.47656 c 5.32717,24.20515 29.28119,39.51859 53.48632,34.19138 L 219.56739,188.83022 c 2.13834,-3.61727 4.12142,-7.33724 5.83597,-11.20898 l -0.33978,0.0741 c 1.21118,-1.20279 1.97072,-2.85864 1.97072,-4.6699 0,-3.60681 -3.00458,-6.60938 -6.61134,-6.60942 -3.60677,4e-5 -6.60937,3.00261 -6.60937,6.60942 0,2.82126 1.8466,5.24957 4.37302,6.18357 l -67.93357,14.95117 c 1.25509,-1.20881 2.05079,-2.89123 2.05079,-4.74025 0,-3.60677 -3.0026,-6.60937 -6.60938,-6.60937 -3.60674,0 -6.60937,3.0026 -6.60937,6.60937 0,2.85551 1.89294,5.30642 4.4668,6.21487 l -57.361325,12.62498 c -19.1237,4.20884 -37.72672,-7.68488 -41.93556,-26.80857 l -0.10544,-0.47656 c -4.20883,-19.12373 7.68294,-37.72671 26.80663,-41.93556 L 230.49918,103.92584 c -0.89356,-3.14332 -1.9214,-6.228345 -3.08402,-9.248045 z m -12.46677,15.537105 -44.12697,9.55271 -21.87695,7.33985 -1.26562,-2.2461 -6.53907,1.43947 3.10157,5.50586 c 0.007,0.0824 0.0178,0.16441 0.0314,0.24605 0.16769,0.46095 0.43894,0.87727 0.79296,1.21678 l 5.28126,9.37501 0.13477,0.17575 c 1.21112,1.58774 1.37474,2.84243 1.07812,4.1992 -0.29662,1.35681 -1.2449,2.85604 -2.74219,4.09962 l -0.1113,0.0918 -7.90821,7.87499 -0.11717,0.15042 c -3.64054,4.61182 -3.81034,10.39537 -1.10352,14.40624 2.70678,4.01087 8.03435,6.11886 13.77539,4.85352 l -0.002,0.002 75.07615,-16.47655 c 1.72747,-0.37924 2.82051,-2.08698 2.44142,-3.81445 -0.3792,-1.72747 -2.08694,-2.82051 -3.81445,-2.44142 l -75.07812,16.47462 c -3.58794,0.79064 -5.92647,-0.46265 -7.08789,-2.18362 -1.14953,-1.70336 -1.37926,-3.99659 0.76953,-6.77148 l 7.42773,-7.39843 c 2.30235,-1.96528 4.07734,-4.51253 4.73047,-7.50002 0.64716,-2.96024 0.004,-6.30542 -2.03515,-9.14645 l -3.63477,-6.45313 62.87108,-21.08205 z m -139.375015,30.5156 -4.04882,0.89065 c -4.04161,0.88947 -7.70923,2.49463 -10.95118,4.60936 v 54.83006 c 4.41888,2.93748 9.55023,4.78601 15,5.26563 z"
     fill="#ecece7"
     stroke-dashoffset="2.39055"
     stroke-width="0.999999"
     id="path1" />
</svg>
