<?xml version="1.0" encoding="UTF-8" standalone="no"?>
<svg
   height="70.114578mm"
   viewBox="0 0 70.114578 70.114578"
   width="70.114578mm"
   version="1.1"
   id="svg2"
   xmlns="http://www.w3.org/2000/svg"
   xmlns:svg="http://www.w3.org/2000/svg">
  <defs
     id="defs2" />
  <g
     transform="translate(-69.85,-113.50625)"
     id="g2">
    <path
       d="m 139.96458,148.56433 c 0,19.35983 -15.69667,35.0565 -35.05649,35.0565 -19.359832,0 -35.05809,-15.69667 -35.05809,-35.0565 0,-19.35982 15.696671,-35.05808 35.05809,-35.05808 19.36141,0 35.05649,15.69799 35.05649,35.05808"
       fill="#005387"
       stroke-width="0.264583"
       id="path1" />
    <path
       d="m 104.90738,120.16889 c -1.32666,0 -2.62967,0.0976 -3.90777,0.27337 v 13.0359 c -0.0367,1.42614 2.3027,3.47702 3.1688,3.48557 0.10911,1.94858 1.40362,3.76126 2.95589,3.80494 0,0 -0.0274,-0.0756 0.11214,-0.24133 0.39087,-0.25086 1.48904,-0.25168 1.88102,0 0.13951,0.16574 0.11317,0.24133 0.11317,0.24133 1.55228,-0.0438 2.84676,-1.85636 2.95589,-3.80494 0.86611,-0.009 3.20537,-2.05943 3.1688,-3.48557 v -11.31921 c -3.23433,-1.27959 -6.75658,-1.99006 -10.44794,-1.99006 z m -5.621363,0.55759 c -0.754263,0.15127 -1.495425,0.33809 -2.226737,0.54777 v 13.74076 l -5.78466,7.08226 c -0.38727,0.47551 -0.317013,1.17476 0.157096,1.56373 0.47561,0.3878 1.175216,0.31751 1.564246,-0.1571 l 6.290055,-7.69307 z m 6.778913,20.96255 c -0.26667,-0.0209 -0.51672,0.13221 -0.61908,0.3793 -0.13023,0.31509 0.0198,0.6763 0.33486,0.80667 0.31531,0.13085 0.67681,-0.0193 0.80719,-0.33486 0.13024,-0.31534 -0.0199,-0.67661 -0.33538,-0.80667 -0.0599,-0.0246 -0.123,-0.0397 -0.18759,-0.0444 z m 4.22507,0 c -0.0647,0.004 -0.12857,0.0198 -0.18862,0.0444 -0.31509,0.13039 -0.46464,0.49158 -0.33435,0.80666 0.1304,0.31507 0.49157,0.46464 0.80667,0.33435 0.31508,-0.13039 0.46464,-0.49105 0.33435,-0.80615 -0.10232,-0.24683 -0.35167,-0.39989 -0.61805,-0.37931 z m -2.11357,0.41702 c -0.34086,1.5e-4 -0.61689,0.27615 -0.61702,0.61702 1.1e-4,0.34084 0.27616,0.61739 0.61702,0.61753 0.34117,3.1e-4 0.61792,-0.27637 0.61805,-0.61753 -1.3e-4,-0.34116 -0.27689,-0.6173 -0.61805,-0.61702 z m -2.96778,1.65055 c -0.26657,-0.0205 -0.51605,0.13322 -0.61805,0.38034 -0.13039,0.31489 0.0191,0.67599 0.33383,0.80667 0.31511,0.13085 0.67701,-0.0187 0.8077,-0.33383 0.13129,-0.31554 -0.0189,-0.67784 -0.33486,-0.80822 -0.0601,-0.0247 -0.12383,-0.0397 -0.18862,-0.0444 z m 5.93659,0 c -0.0646,0.004 -0.12771,0.0204 -0.18758,0.045 -0.31624,0.13011 -0.46663,0.49194 -0.33538,0.8077 0.1307,0.31521 0.49207,0.46472 0.80718,0.33383 0.31508,-0.1304 0.46516,-0.49104 0.33486,-0.80615 -0.10211,-0.24743 -0.35222,-0.40116 -0.61908,-0.38034 z m -2.96881,0.58756 c -0.34116,1.3e-4 -0.61733,0.2769 -0.61702,0.61805 1.1e-4,0.34086 0.27616,0.6174 0.61702,0.61753 0.34117,3.1e-4 0.61792,-0.27637 0.61805,-0.61753 3.1e-4,-0.34146 -0.27658,-0.61836 -0.61805,-0.61805 z m -3.82302,1.48208 c -0.26667,-0.0209 -0.51621,0.13219 -0.61857,0.37931 -0.13023,0.31509 0.0193,0.67628 0.33435,0.80666 0.31532,0.13084 0.67733,-0.0193 0.8077,-0.33486 0.13023,-0.3153 -0.0199,-0.6766 -0.33538,-0.80667 -0.06,-0.0246 -0.12351,-0.0394 -0.1881,-0.0444 z m 7.64759,0 c -0.0646,0.004 -0.12768,0.0197 -0.18758,0.0444 -0.31537,0.1301 -0.46554,0.49137 -0.33538,0.80667 0.1304,0.31552 0.49236,0.46567 0.8077,0.33486 0.31475,-0.1307 0.46369,-0.49179 0.33331,-0.80667 -0.10231,-0.24684 -0.35168,-0.39987 -0.61805,-0.3793 z m -3.82457,0.75706 c -0.34086,1.4e-4 -0.61691,0.27615 -0.61702,0.61702 -3.1e-4,0.34117 0.27586,0.61791 0.61702,0.61805 0.34147,3.1e-4 0.61836,-0.27658 0.61805,-0.61805 -1.3e-4,-0.34116 -0.27688,-0.61733 -0.61805,-0.61702 z m -7.03265,0.28939 v 5.2e-4 c -0.2131,0.009 -0.41515,0.0782 -0.6351,0.18965 l -0.003,0.003 h -0.003 c -1.529836,0.80014 -3.495597,1.77709 -5.232755,2.70061 -1.737168,0.92352 -3.214373,1.7503 -3.909322,2.42517 -0.935199,0.81822 -1.506309,1.57781 -2.300118,2.11925 -0.799139,0.54509 -1.85458,0.92923 -3.893819,0.97359 l -0.42168,0.009 v 11.00294 h 3.244246 0.0062 c 1.208708,-0.0309 2.10927,0.30043 3.223059,0.68316 0.863829,0.29684 1.848252,0.61623 3.128491,0.7736 1.348359,2.54071 2.32126,4.66818 4.034896,7.3334 0.347319,-0.26353 3.350262,-1.71993 4.269512,-2.02313 1.03569,-0.34163 3.72955,-0.54438 6.273,-1.67897 2.54342,-1.13455 8.4207,-5.53992 14.06529,-8.63306 1.50954,-0.921 0.38784,-3.01603 -1.04335,-2.25154 l -7.01404,3.65972 c -0.45052,0.17211 -0.59593,-0.26933 -0.34778,-0.46354 l 9.93893,-5.94795 c 1.24299,-0.87511 0.15948,-2.98827 -1.1927,-2.14199 l -8.89764,4.70359 c -0.53272,0.26144 -0.81108,-0.16567 -0.37724,-0.42788 l 9.61646,-5.77071 c 1.53964,-0.95303 0.41766,-3.12185 -1.45055,-2.19728 l -9.47591,5.10821 c -0.68026,0.35585 -0.97286,-0.20918 -0.34778,-0.58394 l 7.33133,-4.38216 c 1.17054,-0.8395 0.33771,-2.89381 -1.06298,-2.26911 -3.02318,1.37551 -5.66928,2.72808 -8.20984,4.10879 l -6.08955,-0.15038 0.41703,-0.74001 c 1.38844,-2.42988 -1.02329,-4.40282 -2.14612,-2.68355 l -2.01745,3.35638 -3.462837,-0.0501 h -0.0124 c -0.29911,0.009 -0.403461,-0.11536 -0.45992,-0.29972 -0.0557,-0.18141 -0.0091,-0.40931 0.184484,-0.57361 1.284847,-0.70419 1.38381,-0.73971 3.321243,-1.95544 l 0.0269,-0.0181 0.0233,-0.0196 c 0.89151,-0.76867 1.48388,-1.73803 1.68,-2.52956 0.0981,-0.39574 0.14212,-0.80559 -0.16898,-1.13068 -0.15545,-0.16243 -0.39525,-0.2379 -0.60824,-0.22841 z m -0.0202,0.87953 c -0.0132,0.003 0.0184,0.0522 -0.0362,0.27182 -0.13222,0.53324 -0.6515,1.42651 -1.39785,2.07532 -1.891398,1.18616 -1.950804,1.20071 -3.294372,1.93787 l -0.03617,0.0176 -0.02894,0.0269 c -0.469889,0.38487 -0.622308,0.9882 -0.466638,1.49603 0.15567,0.50785 0.666075,0.92857 1.308964,0.90848 l 2.936256,0.0424 -2.436545,4.0535 c -0.319859,0.51631 -0.474532,0.8122 -0.611332,1.63039 -0.332179,1.98615 -1.892878,4.00332 -4.036446,5.15368 0.29286,0.50316 0.561855,0.98225 0.817004,1.44746 -0.902509,-0.15945 -1.64051,-0.40196 -2.344559,-0.64389 -1.103309,-0.37941 -2.147845,-0.7653 -3.525883,-0.73019 h -2.368848 v -9.40355 c 1.791887,-0.1076 3.089876,-0.43346 3.942395,-1.01493 0.942969,-0.64318 1.524184,-1.4375 2.395203,-2.19625 l 0.0093,-0.006 0.0088,-0.009 c 0.48417,-0.47019 1.992317,-1.36676 3.713986,-2.28203 1.720858,-0.91487 3.683758,-1.89167 5.226555,-2.69854 0.11876,-0.0603 0.17706,-0.0675 0.22531,-0.0765 z m 2.37402,0.14263 c -0.26667,-0.0209 -0.5162,0.13221 -0.61857,0.3793 -0.13085,0.31532 0.0188,0.67681 0.33435,0.80719 0.31532,0.13085 0.67683,-0.0188 0.80718,-0.33435 0.13069,-0.31554 -0.0196,-0.67713 -0.33538,-0.80718 -0.06,-0.0246 -0.12313,-0.0403 -0.18758,-0.045 z m 9.35963,0 c -0.0648,0.004 -0.12854,0.0198 -0.18862,0.0444 -0.3155,0.13039 -0.46516,0.49238 -0.33434,0.8077 0.13039,0.31551 0.49185,0.46516 0.80718,0.33435 0.31519,-0.13069 0.46474,-0.49207 0.33383,-0.80719 -0.10231,-0.24683 -0.35167,-0.39989 -0.61805,-0.3793 z m -4.68033,0.92759 c -0.34085,1.3e-4 -0.6174,0.27617 -0.61754,0.61702 -3.2e-4,0.34116 0.27637,0.61791 0.61754,0.61805 0.34149,3.1e-4 0.61835,-0.27656 0.61805,-0.61805 -1.4e-4,-0.34116 -0.27688,-0.61733 -0.61805,-0.61702 z m -4.28656,5.76916 5.07152,0.12609 c -1.88803,1.04914 -3.74597,2.12036 -5.68699,3.23598 -0.55757,0.3002 -1.19381,-0.14912 -0.84078,-0.78032 z"
       fill="#ecece7"
       id="path2" />
  </g>
</svg>
