<?xml version="1.0" encoding="UTF-8" standalone="no"?>
<!-- Created with Inkscape (http://www.inkscape.org/) -->

<svg
   width="70.114578mm"
   height="70.114594mm"
   viewBox="0 0 70.114578 70.114594"
   version="1.1"
   id="svg1"
   xmlns="http://www.w3.org/2000/svg"
   xmlns:svg="http://www.w3.org/2000/svg">
  <defs
     id="defs1" />
  <g
     id="layer1"
     transform="translate(-152.13541,-151.07708)">
    <path
       d="m 222.24999,186.13517 c 0,19.35983 -15.69667,35.0565 -35.05648,35.0565 -19.35984,0 -35.0581,-15.69667 -35.0581,-35.0565 0,-19.35983 15.69667,-35.05809 35.0581,-35.05809 19.3614,0 35.05648,15.69799 35.05648,35.05809"
       fill="#005387"
       id="path340-6-0"
       style="display:inline;stroke-width:0.264583" />
    <path
       id="path1-8"
       style="fill:#ecece7;fill-opacity:1;stroke-width:1;stroke-linecap:round"
       d="m 187.2756,156.86634 c -0.45399,-0.058 -0.86924,0.26244 -0.92848,0.71626 l -1.35528,10.46065 c -0.0714,-0.003 -0.1072,-0.004 -0.18179,-0.007 l -1.11418,-8.35869 c -0.0603,-0.45564 -0.47927,-0.77563 -0.93473,-0.71392 -0.45425,0.0604 -0.77375,0.47728 -0.71392,0.93161 l 0.039,0.29026 c -0.32747,0.0642 -0.71632,0.16997 -1.1212,0.34408 -1.07787,0.46351 -2.31506,1.45907 -2.83382,3.35892 -0.47863,1.75289 -0.75776,2.88146 -0.75449,3.73578 0.002,0.42716 0.0805,0.81526 0.3121,1.12665 0.23157,0.3114 0.58528,0.4878 0.94955,0.57504 0.44648,0.1069 0.90047,-0.0231 1.23901,-0.26215 0.33855,-0.23909 0.59398,-0.57064 0.81379,-0.94409 0.43963,-0.74692 0.72933,-1.67715 0.88479,-2.49755 0.22474,-1.18598 0.58256,-2.77362 0.76073,-3.55632 l 0.79038,5.92747 c -0.45379,0.003 -0.83282,0.0243 -1.00416,0.0835 -0.59895,0.20707 -0.64762,0.41374 -0.72016,0.79598 -0.11247,0.59258 0.26659,0.69148 0.25814,0.90248 -0.0122,0.30376 -0.73316,0.45174 -0.73316,1.37401 0,0.92235 0.50431,0.65316 0.50431,1.15089 0,0.49772 -0.28209,0.31605 -0.28209,1.14857 0,0.83253 0.59639,0.81218 0.60952,1.07451 0.0131,0.26233 -0.20783,0.0749 -0.16815,0.89792 0.0369,0.76652 1.56209,0.90776 2.32535,0.92381 l -3.88792,30.00794 -1.12198,-0.14751 c -0.45433,-0.0599 -0.87124,0.25966 -0.93161,0.71392 -0.0598,0.45405 0.25921,0.87083 0.71314,0.93159 l 1.12666,0.14902 -0.34798,2.68792 c -0.0579,0.45425 0.2629,0.86962 0.71704,0.92848 0.45512,0.0598 0.8724,-0.26105 0.9316,-0.71626 l 0.34721,-2.68168 1.05644,0.13967 c 0.45512,0.0597 0.8724,-0.26106 0.9316,-0.71626 0.0603,-0.45434 -0.25886,-0.87165 -0.71314,-0.93238 l -1.06112,-0.13967 3.24891,-25.0901 3.77245,28.28752 -1.04786,0.1389 c -0.45429,0.0607 -0.77346,0.47805 -0.71314,0.9324 0.0608,0.45394 0.47755,0.77298 0.93161,0.71313 l 1.04864,-0.13815 0.39324,2.94852 c 0.0603,0.4546 0.47777,0.77422 0.93238,0.71391 0.45532,-0.0607 0.77486,-0.47952 0.71314,-0.93471 l -0.39246,-2.94384 1.13602,-0.14978 c 0.45394,-0.0607 0.773,-0.47755 0.71314,-0.93161 -0.0588,-0.4555 -0.47621,-0.77677 -0.9316,-0.71702 l -1.13681,0.15052 -4.42941,-33.22797 c 0.29933,-0.006 0.59802,-0.0121 0.89337,-0.021 0.96218,-0.0273 1.13902,-0.1996 1.72121,-0.33473 1.05243,-0.2873 1.60553,-0.26785 2.73629,0.0788 1.13076,0.34665 4.59431,2.80024 6.44321,4.22419 1.8489,1.42397 6.81579,3.4647 8.58651,3.28247 1.33037,-0.16051 1.54603,-0.84614 1.50196,-2.13473 -0.0281,-1.23766 -0.98647,-5.42617 -1.22497,-6.096 -0.2385,-0.66983 -0.96516,-1.17767 -2.21744,-1.56594 -1.25228,-0.38827 -4.07083,-0.73416 -6.20835,-1.21482 -2.13751,-0.48066 -4.94492,-0.90191 -6.36908,-1.68453 -1.93847,-1.06525 -2.57717,-2.77063 -3.53757,-2.79768 -0.91984,-0.0259 -1.11601,-0.0222 -1.57845,0.0216 l 1.10014,-8.49756 c 0.0408,0.21236 0.42345,2.24306 0.42522,3.93473 0.001,1.00002 0.17908,2.06507 0.53993,2.9142 0.18042,0.42456 0.40491,0.79993 0.7225,1.08218 0.31758,0.28225 0.77454,0.45483 1.23277,0.36515 0.74624,-0.14601 1.36055,-0.75511 1.55424,-1.66893 0.19368,-0.91381 0.11478,-2.15402 -0.20989,-3.96361 -0.34932,-1.94697 -1.54813,-3.02861 -2.62394,-3.55632 -0.54957,-0.26958 -1.07683,-0.40858 -1.46294,-0.4814 l 0.0531,-0.40885 c 0.0597,-0.45539 -0.26153,-0.87279 -0.71704,-0.9316 z m 0.51886,2.46086 c 0.0203,0.005 0.0467,0.0106 0.0624,0.0136 -0.0317,0.0355 -0.0585,0.0752 -0.0796,0.11777 z m 1.02367,0.27855 c 0.0608,0.0264 0.0559,0.001 0.11781,0.032 0.86222,0.42294 1.76021,1.18219 2.04969,2.7956 0.31413,1.75087 0.35296,2.90699 0.21534,3.55632 -0.13762,0.64932 -0.30383,0.76833 -0.71938,0.84968 -0.12266,0.024 -0.18894,0.007 -0.33004,-0.11776 -0.14109,-0.12547 -0.31089,-0.3731 -0.45176,-0.70456 -0.28172,-0.66295 -0.4563,-1.63596 -0.45722,-2.50379 -0.002,-1.8083 -0.36695,-3.61196 -0.42445,-3.90742 z m -7.43411,1.89286 c -0.0888,0.38412 -0.57684,2.48553 -0.84967,3.92538 -0.13707,0.72327 -0.40922,1.57683 -0.75137,2.15813 -0.17108,0.29066 -0.36081,0.50955 -0.51652,0.61951 -0.15571,0.10991 -0.24459,0.12758 -0.3831,0.0943 -0.22072,-0.0528 -0.29543,-0.11067 -0.34486,-0.17712 -0.0494,-0.0665 -0.10498,-0.2004 -0.10612,-0.49778 -0.002,-0.59479 0.24519,-1.71668 0.71938,-3.45333 0.43406,-1.58967 1.37133,-2.29898 2.23226,-2.66919 z" />
  </g>
</svg>
