<?xml version="1.0" encoding="UTF-8" standalone="no"?>
<!-- Created with Inkscape (http://www.inkscape.org/) -->

<svg
   width="70.114578mm"
   height="70.114586mm"
   viewBox="0 0 70.114578 70.114586"
   version="1.1"
   id="svg1"
   xmlns="http://www.w3.org/2000/svg"
   xmlns:svg="http://www.w3.org/2000/svg">
  <defs
     id="defs1" />
  <g
     id="layer1"
     transform="translate(-71.702083,-78.845833)">
    <path
       d="m 141.81666,113.90392 c 0,19.35983 -15.69667,35.0565 -35.05648,35.0565 -19.359837,0 -35.058097,-15.69667 -35.058097,-35.0565 0,-19.359827 15.69667,-35.058087 35.058097,-35.058087 19.3614,0 35.05648,15.69799 35.05648,35.058087"
       fill="#005387"
       id="path340-6-0"
       style="display:inline;stroke-width:0.264583" />
    <path
       id="rect2-1"
       style="fill:#ecece7;fill-opacity:1;stroke-linecap:round"
       d="m 119.12289,87.797793 c -1.97095,0 -3.57601,1.60506 -3.57601,3.57601 0,1.97096 1.60506,3.57808 3.57601,3.57808 1.97096,0 3.57807,-1.60712 3.57807,-3.57808 0,-1.97095 -1.60711,-3.57601 -3.57807,-3.57601 z m 0,0.7984 c 1.53861,0 2.77761,1.23901 2.77761,2.77761 0,1.53861 -1.239,2.77709 -2.77761,2.77709 -1.5386,0 -2.77709,-1.23848 -2.77709,-2.77709 0,-1.5386 1.23849,-2.77761 2.77709,-2.77761 z m -3.60908,7.3303 c -0.75821,0 -1.59252,0.44392 -2.21486,1.30845 l -0.004,0.006 -0.004,0.004 c 0,0 -0.91256,1.35635 -1.94717,2.849427 -1.03461,1.49307 -2.21924,3.15201 -2.65617,3.64061 -0.96567,1.07985 -3.93017,4.18747 -5.85752,6.30246 -0.41232,0.45246 -0.66419,0.97926 -0.73949,1.49965 -0.14382,0.0619 -0.27947,0.14942 -0.3974,0.26716 l -2.738847,2.73524 -2.57503,-3.34502 c -0.21065,-0.27365 -0.50999,-0.4306 -0.82528,-0.47646 -0.0848,-0.0173 -0.17239,-0.0281 -0.26251,-0.0279 l -3.05253,5.2e-4 c -0.0479,-2.9e-4 -0.095,0.003 -0.14159,0.008 -0.40302,-0.01 -0.80308,0.17167 -1.05885,0.524 l -3.144,4.33049 c -0.23102,0.22996 -0.37361,0.54903 -0.37362,0.90227 v 5.4622 c 0,0.70436 0.5674,1.27124 1.27176,1.27124 0.70436,0 1.27124,-0.56688 1.27124,-1.27124 v -4.80798 c 0,0 -0.002,-0.53279 0.5116,-0.53278 0.51393,-1e-5 0.43046,0.69298 0.43046,0.69298 -0.0857,1.86031 0.0672,3.67915 -0.17001,5.57899 l -1.53686,11.60032 c -0.12163,0.91812 0.51953,1.75527 1.43764,1.87689 0.91811,0.12163 1.75526,-0.51953 1.87689,-1.43764 l 1.14463,-9.42836 c 0,0 0.0167,-0.29921 0.17983,-0.29921 0.16312,3e-5 0.17932,0.29921 0.17932,0.29921 l 1.14463,9.42836 c 0.12164,0.9181 0.95878,1.55926 1.87689,1.43764 0.9181,-0.12162 1.55927,-0.95877 1.43764,-1.87689 l -1.53686,-11.60032 c -0.14021,-2.00197 -0.0186,-3.73104 -0.0186,-5.59449 1e-5,-0.8611 0.39063,-0.59011 0.4532,-0.46871 0.14601,0.23708 0.25546,0.41019 0.447,0.60203 0.49767,0.49843 1.2043,0.57308 1.70274,0.0754 l 3.865397,-3.85971 c 0.0557,-0.0556 0.10299,-0.11597 0.14624,-0.17829 0.13917,-0.001 0.27906,-0.0157 0.41703,-0.046 0.52834,-0.11588 1.04735,-0.42559 1.47278,-0.89245 0.99334,-0.9947 2.34091,-2.4517 3.47834,-3.7052 1.14147,-1.25794 2.03598,-2.26586 2.20142,-2.46652 0.0922,-0.11183 0.20467,-0.2819 0.40617,-0.57619 0.20151,-0.2943 0.46557,-0.68501 0.77153,-1.1312 0.61191,-0.89238 1.38663,-2.00721 2.12855,-3.01325 0.21965,-0.29786 0.41039,-0.54875 0.56069,-0.71882 0.0234,0.18407 0.0493,0.38968 0.0393,0.79065 -0.0634,2.5329 0.008,5.27499 0.008,7.72873 l -2.35903,24.87497 c -0.1,1.05438 0.67984,1.99758 1.73426,2.09754 1.05437,0.1 1.9976,-0.68001 2.09755,-1.73426 l 2.08411,-21.84569 v -0.0196 c 0,0 0.004,-0.1831 0.0682,-0.34365 0.032,-0.0803 0.0751,-0.14316 0.11937,-0.17983 0.0443,-0.0367 0.0892,-0.0625 0.20671,-0.0625 0.23292,0 0.29131,0.0983 0.37104,0.26975 0.0797,0.17143 0.0961,0.35915 0.0961,0.35915 v 0.006 l 2.08205,21.81624 c 0.1,1.05441 1.04315,1.83476 2.09754,1.73478 1.05441,-0.1 1.83423,-1.04367 1.73426,-2.09806 l -2.35954,-24.87859 c -4.9e-4,-2.78556 -0.10697,-5.77865 -0.10697,-8.51576 0.009,-0.47894 0.11619,-0.68623 0.12867,-0.70125 0.0179,0.001 0.0666,0.008 0.1447,0.045 0.33406,0.15851 0.94887,0.7568 1.43557,1.25005 1.1892,1.2052 2.99322,2.85051 3.14451,2.98845 l 0.031,8.07031 c 0.004,1.00158 0.82673,1.81764 1.82832,1.81229 1.00184,-0.005 1.81616,-0.82827 1.81229,-1.82986 l -0.0331,-8.75037 v -0.002 c -0.006,-0.84504 -0.66684,-1.48345 -1.0604,-1.87482 l -0.0119,-0.0119 -6.14639,-5.222417 c -0.53678,-0.46567 -1.16803,-0.72001 -1.76785,-0.72244 h -0.002 c -2.32471,-0.002 -4.6499,-1.6e-4 -6.97425,0 z m -5.2e-4,0.79892 h 5.2e-4 c 2.32397,-1.6e-4 4.64941,2e-5 6.9727,0.002 0.36777,0.001 0.84058,0.1716 1.24798,0.52503 v 0.002 l 6.11694,5.195547 0.002,0.004 c 0.35963,0.35848 0.82193,0.96805 0.82424,1.31103 l 0.0331,8.74779 c 0.002,0.57228 -0.44549,1.02442 -1.01751,1.02733 -0.57227,0.003 -1.02101,-0.44159 -1.02319,-1.01389 l -0.0336,-8.41964 -0.12867,-0.11731 c 0,0 -2.03945,-1.85888 -3.24632,-3.08198 -0.47992,-0.48637 -1.0468,-1.119347 -1.65984,-1.410247 -0.15326,-0.0727 -0.31678,-0.12661 -0.50385,-0.12506 -0.18706,0.002 -0.3977,0.0796 -0.54312,0.22273 -0.29083,0.28629 -0.36239,0.693647 -0.37104,1.275367 v 0.002 0.004 c 0,2.76437 0.10749,5.76467 0.10749,8.53488 v 0.0196 l 2.36316,24.91631 c 0.0595,0.62693 -0.38492,1.16477 -1.01182,1.22421 -0.62694,0.0594 -1.16684,-0.3844 -1.22628,-1.01131 l -2.0805,-21.80125 -0.002,-0.006 c -3.1e-4,-0.006 -0.0159,-0.31175 -0.16794,-0.63872 -0.1535,-0.33003 -0.52888,-0.73226 -1.09606,-0.73226 -0.2823,0 -0.53725,0.0974 -0.71675,0.24598 -0.17949,0.14861 -0.28493,0.33294 -0.3514,0.49971 -0.13293,0.33353 -0.12506,0.64492 -0.12506,0.64492 l 0.002,-0.0393 -2.08411,21.82606 c -0.0595,0.62707 -0.59776,1.07126 -1.22473,1.01182 -0.62691,-0.0594 -1.07282,-0.59779 -1.01338,-1.22473 l 2.36316,-24.91579 v -0.0196 c 0,-2.47315 -0.0724,-5.21427 -0.01,-7.72252 0.0135,-0.54022 -10e-4,-0.91468 -0.0687,-1.20717 -0.0336,-0.14624 -0.0752,-0.28154 -0.18552,-0.41031 -0.1103,-0.128767 -0.33486,-0.216727 -0.50592,-0.193267 -0.34214,0.0469 -0.47899,0.243067 -0.66765,0.455267 -0.18866,0.21219 -0.39028,0.48167 -0.61547,0.78703 -0.75178,1.01942 -1.53056,2.14159 -2.14457,3.03703 -0.307,0.44771 -0.57135,0.8383 -0.77153,1.13068 -0.20019,0.29237 -0.36132,0.51541 -0.36329,0.5178 -0.0839,0.10176 -1.03816,1.18562 -2.17558,2.43912 -1.13743,1.25349 -2.49144,2.71773 -3.4649,3.69177 l -0.006,0.006 -0.008,0.006 c -0.32295,0.3544 -0.71229,0.57596 -1.05265,0.65061 -0.009,0.002 -0.0175,0.002 -0.0269,0.004 -0.0233,-0.28972 -0.14002,-0.57356 -0.36226,-0.79634 -0.16454,-0.16479 -0.36387,-0.27016 -0.57309,-0.32607 0.0772,-0.29526 0.24131,-0.61583 0.50281,-0.90279 1.91515,-2.1016 4.86294,-5.19184 5.86166,-6.30866 0.54525,-0.60972 1.6803,-2.21854 2.7187,-3.71709 1.03466,-1.493157 1.93855,-2.839677 1.9451,-2.849427 l 0.002,-0.002 c 0.49679,-0.68838 1.13463,-0.97462 1.56476,-0.97462 z m -21.561467,6.278167 a 3.5783257,3.5783257 0 0 0 -3.5786,3.57859 3.5783257,3.5783257 0 0 0 3.5786,3.57808 3.5783257,3.5783257 0 0 0 3.57807,-3.57808 3.5783257,3.5783257 0 0 0 -3.57807,-3.57859 z" />
  </g>
</svg>
