<?xml version="1.0" encoding="UTF-8" standalone="no"?>
<!-- Created with Inkscape (http://www.inkscape.org/) -->

<svg
   width="70.114586mm"
   height="70.114578mm"
   viewBox="0 0 70.114586 70.114578"
   version="1.1"
   id="svg1"
   xmlns="http://www.w3.org/2000/svg"
   xmlns:svg="http://www.w3.org/2000/svg">
  <defs
     id="defs1" />
  <g
     id="layer1"
     transform="translate(-69.585417,-80.9625)">
    <path
       d="m 139.7,116.02058 c 0,19.35983 -15.69667,35.0565 -35.05649,35.0565 -19.359835,0 -35.058093,-15.69667 -35.058093,-35.0565 0,-19.35982 15.696671,-35.05808 35.058093,-35.05808 19.36141,0 35.05649,15.69799 35.05649,35.05808"
       fill="#005387"
       id="path340"
       style="display:inline;stroke-width:0.264583" />
    <path
       id="rect1"
       style="display:inline;fill:#ecece7;stroke-width:1.265;paint-order:stroke fill markers"
       d="m 98.584681,90.26994 c -0.06502,0.003 -0.135311,0.0257 -0.206706,0.0672 -2.300874,1.61967 -2.979249,2.41681 -4.341337,5.13612 -0.107984,0.18219 -0.134122,0.28375 0.05168,0.31058 l 3.081983,0.47025 c 0.323734,0.0624 0.514129,0.0202 0.60358,-0.34468 l 1.121379,-5.01985 c 0.08687,-0.40614 -0.07837,-0.63139 -0.310575,-0.6196 z m 4.584739,1.16117 c -0.49965,0.0108 -0.42685,0.89039 -0.42685,0.89039 l -0.74259,4.6054 c -0.22911,0.59995 -0.52521,0.68994 -1.44849,0.62115 l -8.108037,-1.10381 c 0,0 -0.336389,-0.0988 -0.625801,0.16433 -0.919494,0.83605 1.899008,5.79084 0.04444,8.8098 -0.537909,0.97224 -3.363207,6.52825 -5.285465,9.8671 -2.118138,3.67923 -7.195426,12.18582 -7.195426,12.18582 -0.838373,1.41996 -0.338189,3.24141 1.089855,4.0659 0.255423,0.14751 0.522563,0.25258 0.794784,0.31833 -0.229275,-0.49215 -0.439854,-0.99806 -0.632003,-1.51826 -0.02426,-0.0656 -0.04317,-0.1319 -0.05736,-0.19843 -0.562992,-0.62136 -0.689189,-1.55858 -0.24753,-2.32389 0.376622,-0.65263 1.067212,-1.01052 1.770952,-0.99219 0.319879,0.007 0.642382,0.0948 0.93896,0.26613 0.948795,0.54803 1.274608,1.76114 0.726571,2.70992 -0.04773,0.0827 -0.100904,0.16057 -0.15813,0.23357 0.146214,0.34749 0.303613,0.68756 0.470772,1.0201 0.174154,-0.17709 0.328661,-0.37958 0.458887,-0.60514 0,0 4.828481,-8.64926 6.955648,-12.32327 2.962326,-5.08425 6.704781,-12.74251 9.259903,-14.42341 2.26606,-1.49072 4.14194,-1.6994 5.25084,-3.08199 2.45462,-3.0605 -0.87496,-8.82044 -2.72593,-9.17773 -0.0386,-0.007 -0.0747,-0.0106 -0.108,-0.01 z m 19.44015,0.0739 c -3.60074,1.03363 -6.24716,4.36119 -6.24716,8.28683 0,3.56867 2.18679,6.64233 5.2896,7.94784 -0.0905,-1.05699 -0.17194,-1.98349 -0.23254,-2.67581 -1.68941,-1.13884 -2.79518,-3.06979 -2.79518,-5.27203 0,-3.51961 2.82364,-6.34989 6.34173,-6.3562 -0.75138,-0.68251 -1.53772,-1.32702 -2.35645,-1.93063 z m -27.274304,6.7262 4.213697,0.52452 -0.218075,1.48363 -0.707967,-0.0997 v -1.04489 a 0.23169293,0.23169293 0 0 0 -0.228927,-0.23203 0.23169293,0.23169293 0 0 0 -0.232543,0.23203 v 0.9803 l -0.784449,-0.11111 v -0.9865 a 0.23169293,0.23169293 0 0 0 -0.228926,-0.22893 0.23169293,0.23169293 0 0 0 -0.232544,0.22893 v 0.92191 L 96.131084,99.7893 V 98.86274 A 0.23169293,0.23169293 0 0 0 95.89854,98.6302 0.23169293,0.23169293 0 0 0 95.669613,98.86274 V 99.7247 L 95.12701,99.6482 Z m 24.858954,2.00505 c -0.0891,0.004 -0.17694,0.0102 -0.26407,0.017 0.16362,0.78608 0.37977,1.56138 0.77825,2.24121 0.0959,0.004 0.19516,0.0126 0.2992,0.0217 0.28427,0.0262 0.76096,0.22793 1.11673,0.55552 0.35577,0.32759 0.58215,0.73616 0.61547,1.13069 0.11832,1.40056 0.47835,5.29122 0.73587,8.94157 0.12882,1.82517 0.2303,3.59 0.26303,4.92683 0.0164,0.66843 0.0137,1.23313 -0.006,1.62006 -0.007,0.14334 -0.0203,0.22801 -0.0305,0.31057 -0.1489,0.19653 -0.343,0.39686 -0.57154,0.57723 0.13129,0.84985 0.22466,1.67925 0.28112,2.48718 0.94657,-0.41347 1.71358,-1.07367 2.23656,-1.82417 0.25215,-0.36183 0.24257,-0.54671 0.27802,-0.75706 0.0353,-0.21035 0.0529,-0.42742 0.0661,-0.67335 0.0265,-0.49182 0.0256,-1.09334 0.01,-1.79472 -0.0343,-1.40275 -0.13809,-3.18925 -0.2682,-5.03225 -0.26003,-3.686 -0.62366,-7.60655 -0.73897,-8.97155 -0.0908,-1.07478 -0.64444,-1.97002 -1.33635,-2.60707 -0.69189,-0.63706 -1.52943,-1.05878 -2.44068,-1.14309 -0.35498,-0.0329 -0.69529,-0.0409 -1.02165,-0.0264 z m -25.179347,0.17415 0.65474,0.0925 v 1.0511 a 0.23169293,0.23169293 0 0 0 0.228927,0.23254 0.23169293,0.23169293 0 0 0 0.232544,-0.23254 v -0.98547 l 0.784448,0.11059 v 0.98908 a 0.23169293,0.23169293 0 0 0 0.232544,0.23203 0.23169293,0.23169293 0 0 0 0.228926,-0.23203 v -0.92449 l 0.784449,0.11111 v 0.93121 a 0.23169293,0.23169293 0 0 0 0.232543,0.22944 0.23169293,0.23169293 0 0 0 0.228927,-0.22944 v -0.86559 l 0.595313,0.0837 -0.224276,1.52601 -4.213696,-0.52452 z m 36.134747,0.91622 c -0.55801,2.2696 -2.32738,4.04988 -4.59093,4.62349 0.059,0.67161 0.12622,1.44318 0.19637,2.27377 2.43408,-0.51331 4.49485,-2.05927 5.70042,-4.15479 -0.38977,-0.93969 -0.8259,-1.85467 -1.30586,-2.74247 z m -15.78457,0.94413 c -0.26136,0.17584 -0.5327,0.35742 -0.82165,0.54364 -0.65613,0.42284 -1.31442,0.9512 -1.84072,1.61437 -0.5263,0.66314 -0.95112,1.51897 -0.85989,2.50114 0.10859,1.16905 0.42342,2.70667 0.84284,4.35735 l 2.15284,-0.75654 v -5.2e-4 c -0.38024,-1.53098 -0.65855,-2.90932 -0.74207,-3.80855 -0.0187,-0.20097 0.0729,-0.50335 0.37724,-0.88677 0.30429,-0.38341 0.79377,-0.79236 1.29707,-1.11672 0.15146,-0.0977 0.29747,-0.19309 0.43822,-0.28577 -0.36153,-0.67835 -0.64693,-1.40254 -0.84388,-2.16163 z m -0.33589,9.00927 -2.14767,0.75603 v 10e-4 c 0.25035,0.93708 0.52814,1.89701 0.81648,2.836 0.36766,1.19721 0.75256,2.34923 1.12138,3.35329 l 2.13372,-0.75138 c -0.3536,-0.96226 -0.73111,-2.09361 -1.09192,-3.26853 -0.29587,-0.96349 -0.5805,-1.96414 -0.83199,-2.92644 z m 0.45527,4.81159 c 0.29413,0 0.53692,0.2464 0.53692,0.54054 0,0.29415 -0.24279,0.5395 -0.53692,0.5395 -0.29414,0 -0.54002,-0.24535 -0.54002,-0.5395 0,-0.29414 0.24588,-0.54054 0.54002,-0.54054 z m 1.74253,2.10582 -2.13527,0.75189 v 10e-4 c 0.40797,1.0576 0.73813,1.84338 1.16427,2.43603 0.80955,1.12584 2.00024,1.68494 3.07474,1.93942 0.42747,0.10137 0.84097,0.15945 1.22784,0.18551 -0.0468,-0.74128 -0.12904,-1.50852 -0.24702,-2.30321 -0.15292,-0.0205 -0.30706,-0.0482 -0.45888,-0.0842 -0.72106,-0.17077 -1.35897,-0.50243 -1.75907,-1.05885 -0.10689,-0.14875 -0.48417,-0.90004 -0.86661,-1.86758 z m 4.38991,1.13843 a 1.1314337,1.1314337 0 0 0 -0.14728,0.0145 1.1314337,1.1314337 0 0 0 -0.93224,1.30328 c 1.09996,6.64093 -0.29911,11.5111 -3.02876,14.94224 -2.72966,3.43115 -6.86793,5.45767 -11.42772,6.09678 -9.119564,1.27822 -19.647554,-3.06887 -23.036843,-12.24834 a 1.1314337,1.1314337 0 0 0 -1.451074,-0.66973 1.1314337,1.1314337 0 0 0 -0.669727,1.45417 c 3.830476,10.37438 15.420303,15.11441 25.471314,13.70563 5.0255,-0.7044 9.73231,-2.96691 12.885,-6.92981 3.15272,-3.9629 4.67128,-9.59193 3.49023,-16.7225 a 1.1314337,1.1314337 0 0 0 -1.1529,-0.94619 z" />
  </g>
</svg>
