<?xml version="1.0" encoding="UTF-8" standalone="no"?>
<!-- Created with Inkscape (http://www.inkscape.org/) -->

<svg
   width="70.114578mm"
   height="70.114586mm"
   viewBox="0 0 70.114578 70.114586"
   version="1.1"
   id="svg1"
   xmlns="http://www.w3.org/2000/svg"
   xmlns:svg="http://www.w3.org/2000/svg">
  <defs
     id="defs1" />
  <g
     id="layer1"
     transform="translate(-36.5125,-75.141667)">
    <path
       d="m 36.5125,110.19896 c 0,-19.360887 15.694819,-35.057293 35.056233,-35.057293 19.363531,0 35.058347,15.696141 35.058347,35.057293 0,19.363 -15.694816,35.05729 -35.058347,35.05729 C 52.207319,145.25651 36.5125,129.56196 36.5125,110.19896"
       fill="#005387"
       id="path1"
       style="stroke-width:0.264583" />
    <path
       id="rect1"
       style="color:#005387;fill:#ecece7;fill-opacity:1;stroke-width:1;-inkscape-stroke:none;paint-order:stroke fill markers"
       d="m 71.570566,88.110129 c -10.009618,0 -18.099669,8.10627 -18.099669,18.131191 v 10.81639 h 2.09548 v -10.81639 c 0,-8.902941 7.120709,-16.037271 16.004189,-16.037271 8.88351,0 16.004202,7.13433 16.004202,16.037271 v 10.81639 h 2.093917 v -10.81639 c 0,-10.024921 -8.088489,-18.131191 -18.098119,-18.131191 z m -4.05866,4.81417 v 6.50917 c -2.577079,1.433301 -4.327898,4.184801 -4.327898,7.332881 0,4.61825 3.766769,8.3845 8.385008,8.3845 4.618252,0 8.384511,-3.76625 8.384511,-8.3845 0,-3.14742 -1.750171,-5.89829 -4.326361,-7.331851 v -6.5102 z m 2.099611,2.09962 h 3.91604 v 3.59151 c -0.62902,-0.15157 -1.28411,-0.2341 -1.958541,-0.2341 -0.67391,0 -1.328909,0.0822 -1.957499,0.23358 z m -7.281211,1.01182 -1.48621,1.48621 2.647381,2.647901 1.486221,-1.486211 z m 18.48001,0 -2.648421,2.6479 1.486221,1.486211 2.647899,-2.647901 z m -9.2413,4.464841 c 3.472302,0 6.26577,2.79347 6.26577,6.26577 0,3.4723 -2.793468,6.2637 -6.26577,6.2637 -3.472288,0 -6.26318,-2.7914 -6.26318,-6.2637 0,-3.4723 2.790892,-6.26577 6.26318,-6.26577 z m -14.116959,5.21054 v 2.10168 h 3.743948 v -2.10168 z m 24.492039,0 v 2.10168 h 3.74396 v -2.10168 z m -18.452619,7.64294 -2.647381,2.6479 1.48621,1.48622 2.647392,-2.64791 z m 16.156639,0 -1.486221,1.48621 2.648421,2.64791 1.485699,-1.48622 z m -26.177219,5.64048 v 4.87671 h 36.197788 v -4.87671 z m 0.14883,6.17999 -4.69739,4.69894 1.48467,1.48466 4.69894,-4.69739 z m 35.900141,0 -1.484151,1.48621 4.697388,4.69739 1.484141,-1.48466 z m -18.999883,0.4687 v 6.64456 h 2.099623 v -6.64456 z" />
  </g>
</svg>
