<?xml version="1.0" encoding="utf-8"?>
<!-- Generator: Adobe Illustrator 21.0.0, SVG Export Plug-In . SVG Version: 6.00 Build 0)  -->
<svg version="1.1" id="Слой_1" xmlns="http://www.w3.org/2000/svg" xmlns:xlink="http://www.w3.org/1999/xlink" x="0px" y="0px"
	 viewBox="0 0 281.8 273.8" style="enable-background:new 0 0 281.8 273.8;" xml:space="preserve">
<g>
	<rect x="186.7" y="121.6" width="2.4" height="45.6"/>
	<rect x="43.4" y="77.2" transform="matrix(0.5004 -0.8658 0.8658 0.5004 -61.2454 86.7775)" width="2.4" height="38.5"/>
	<rect x="126.5" y="222.3" width="2.4" height="37.4"/>
	<polygon points="267.1,145.1 267.7,144.4 267.1,143.7 267.1,143.7 266.5,142.8 266,142.1 266,142.1 247.1,116.1 245.2,117.5 
		264,143.5 264,143.5 264.4,144 264.7,144.4 245.9,170.3 247.8,171.7 266,146.7 266,146.7 266,146.6 267.1,145.1 	"/>
	<rect x="232.9" y="152.9" transform="matrix(0.5876 -0.8091 0.8091 0.5876 -23.0624 262.8658)" width="26.9" height="2.4"/>
	<polygon points="214.9,102.2 177.7,114.3 134,89.1 134,50.2 131.7,50.2 131.7,87.7 128.5,85.9 127.7,85.4 126.8,85.9 123.7,87.7 
		123.7,50.2 121.3,50.2 121.3,89.1 93.7,105.1 94.9,107.1 126.5,88.9 126.5,88.9 127.7,88.2 128.8,88.9 128.8,88.8 176.3,116.3 
		176.3,172.5 143.6,191.5 144.8,193.5 177.7,174.5 214.9,186.6 215.6,184.3 178.7,172.3 178.7,116.5 215.6,104.5 	"/>
	<rect x="226.8" y="58.8" transform="matrix(0.3094 -0.9509 0.9509 0.3094 111.8973 274.0325)" width="35.7" height="2.4"/>
	<polygon points="70.4,107.1 70.5,107.1 84.9,129.5 88.7,129.5 88.7,100.8 85.1,100.8 85.1,123.1 85.1,123.1 70.7,100.8 66.8,100.8 
		66.8,129.5 70.4,129.5 	"/>
	<polygon points="79,171.2 79,135.9 76.6,135.9 76.6,166.5 42.6,186.1 43.9,188.2 76.6,169.3 76.6,171.2 76.6,173.2 76.6,173.9 
		78.9,175.3 78.9,175.3 80.6,176.2 47.8,195.1 49,197.2 83,177.6 110.5,193.5 111.7,191.5 79,172.5 	"/>
	<polygon points="135.1,209.5 135,209.5 120.6,187.2 116.7,187.2 116.7,215.9 120.3,215.9 120.3,193.5 120.3,193.5 134.7,215.9 
		138.6,215.9 138.6,187.2 135.1,187.2 	"/>
	<path d="M34.9,188.8c-3.1-1.8-7-1.8-7-1.8c-3.9,0-7,1.8-7,1.8c-3.2,1.8-4.9,5.2-4.9,5.2c-1.8,3.4-1.8,7.8-1.8,7.8
		c0,4.3,1.8,7.7,1.8,7.7c1.8,3.4,4.9,5.2,4.9,5.2c3.1,1.8,7.1,1.8,7.1,1.8c3.9,0,7-1.8,7-1.8c3.1-1.8,4.9-5.2,4.9-5.2
		c1.8-3.4,1.8-7.8,1.8-7.8c0-4.5-1.8-7.8-1.8-7.8C38.1,190.6,34.9,188.8,34.9,188.8z M36.4,208c-1.2,2.6-3.5,4-3.5,4
		c-2.2,1.4-5,1.4-5,1.4c-2.8,0-5.1-1.4-5.1-1.4c-2.2-1.4-3.4-4-3.4-4c-1.3-2.6-1.3-6.1-1.3-6.1c0-3.6,1.2-6.3,1.2-6.3
		c1.2-2.6,3.4-4,3.4-4c2.2-1.4,5.1-1.4,5.1-1.4c2.9,0,5.1,1.4,5.1,1.4c2.2,1.4,3.4,4,3.4,4c1.2,2.6,1.2,6.2,1.2,6.2
		C37.7,205.4,36.4,208,36.4,208z"/>
	<path d="M120.6,41.9c3.2,1.8,7.1,1.8,7.1,1.8c3.9,0,7-1.8,7-1.8c3.1-1.8,4.9-5.2,4.9-5.2c1.8-3.4,1.8-7.8,1.8-7.8
		c0-4.5-1.8-7.8-1.8-7.8c-1.8-3.3-4.9-5.2-4.9-5.2c-3.1-1.8-7-1.8-7-1.8c-3.9,0-7,1.8-7,1.8c-3.2,1.8-4.9,5.2-4.9,5.2
		c-1.8,3.4-1.8,7.8-1.8,7.8c0,4.3,1.8,7.7,1.8,7.7C117.5,40.1,120.6,41.9,120.6,41.9z M119.1,22.8c1.2-2.6,3.5-4,3.5-4
		c2.2-1.4,5.1-1.4,5.1-1.4c2.9,0,5.1,1.4,5.1,1.4c2.2,1.4,3.5,4,3.5,4c1.2,2.6,1.2,6.2,1.2,6.2c0,3.6-1.2,6.2-1.2,6.2
		c-1.2,2.6-3.5,4-3.5,4c-2.2,1.4-5,1.4-5,1.4c-2.8,0-5-1.4-5-1.4c-2.2-1.4-3.5-4-3.5-4c-1.2-2.6-1.2-6.1-1.2-6.1
		C117.9,25.5,119.1,22.8,119.1,22.8z"/>
	<polygon points="239.7,198.5 239.6,198.5 225.3,176.2 221.3,176.2 221.3,204.9 224.9,204.9 224.9,182.5 225,182.5 239.4,204.9 
		243.3,204.9 243.3,176.2 239.7,176.2 	"/>
	<polygon points="224.9,89.3 225,89.3 239.4,111.7 243.3,111.7 243.3,83 239.7,83 239.7,105.3 239.6,105.3 225.3,83 221.3,83 
		221.3,111.7 224.9,111.7 	"/>
</g>
</svg>
