<svg width="87" height="77" viewBox="0 0 87 77" fill="none" xmlns="http://www.w3.org/2000/svg">
<path d="M55.29 0H38.77V6.89H55.29V0Z" fill="#B6DAFD"/>
<path d="M65.95 6.89H55.29V13.69H65.95V6.89Z" fill="#B6DAFD"/>
<path d="M72.66 13.69H65.95V20.4H72.66V13.69Z" fill="#B6DAFD"/>
<path d="M79.54 20.4H72.66V30.17H79.54V20.4Z" fill="#B6DAFD"/>
<path d="M86.33 30.16H79.54V46.54H86.33V30.16Z" fill="#B6DAFD"/>
<path d="M79.54 46.55H72.67V56.32H79.54V46.55Z" fill="#B6DAFD"/>
<path d="M72.67 56.31H65.95V63.11H72.67V56.31Z" fill="#B6DAFD"/>
<path d="M65.95 63.11H55.29V69.96H65.95V63.11Z" fill="#B6DAFD"/>
<path d="M55.29 69.96H35.84V76.65H55.29V69.96Z" fill="#B6DAFD"/>
<path d="M35.84 63.11H25.18V69.96H35.84V63.11Z" fill="#B6DAFD"/>
<path d="M25.18 56.31H18.39V63.11H25.18V56.31Z" fill="#B6DAFD"/>
<path d="M18.39 46.55H11.52V56.32H18.39V46.55Z" fill="#B6DAFD"/>
<path d="M4.87 33.97V20.4H0V40.8H4.87V46.55H11.52V33.97H4.87Z" fill="#B6DAFD"/>
<path d="M18.31 27.17H11.52V33.96H18.31V27.17Z" fill="#B6DAFD"/>
<path d="M38.77 6.89H18.39V13.69H38.77V6.89Z" fill="#B6DAFD"/>
<path d="M45.5 13.69H38.79V20.4H45.5V13.69Z" fill="#B6DAFD"/>
<path d="M18.32 27.17H38.79V20.4H18.39V13.69H4.87V20.4H18.32V27.17Z" fill="#B6DAFD"/>
<path d="M38.79 30.16H31.98V36.87H38.79V30.16Z" fill="#B6DAFD"/>
<path d="M59.09 30.16H52.28V36.87H59.09V30.16Z" fill="#B6DAFD"/>
<path d="M59.16 50.47H31.98V56.31H59.16V50.47Z" fill="#B6DAFD"/>
</svg>
