<?xml version="1.0" encoding="UTF-8"?>
<svg xmlns="http://www.w3.org/2000/svg" xmlns:xlink="http://www.w3.org/1999/xlink" width="158.74" height="56.6904" viewBox="0 0 158.74 56.6904">
<defs>
<clipPath id="clip-0">
<path clip-rule="nonzero" d="M 5 5 L 158.738281 5 L 158.738281 56.691406 L 5 56.691406 Z M 5 5 "/>
</clipPath>
<clipPath id="clip-1">
<path clip-rule="nonzero" d="M 0 0 L 158.738281 0 L 158.738281 56.691406 L 0 56.691406 Z M 0 0 "/>
</clipPath>
</defs>
<g clip-path="url(#clip-0)">
<path fill-rule="nonzero" fill="rgb(7.157898%, 23.571777%, 45.758057%)" fill-opacity="1" d="M 5.667969 56.691406 L 158.738281 56.691406 L 158.738281 5.667969 L 5.667969 5.667969 Z M 5.667969 56.691406 "/>
</g>
<g clip-path="url(#clip-1)">
<path fill-rule="nonzero" fill="rgb(41.531372%, 76.147461%, 93.499756%)" fill-opacity="1" d="M 0 0 L 0 56.691406 L 5.667969 56.691406 L 5.667969 5.667969 L 158.738281 5.667969 L 158.738281 0 Z M 0 0 "/>
</g>
<path fill-rule="nonzero" fill="rgb(100%, 100%, 100%)" fill-opacity="1" d="M 17.007812 22.675781 L 22.078125 22.675781 L 22.078125 28.535156 L 22.125 28.535156 L 26.644531 22.675781 L 32.894531 22.675781 L 26.921875 29.324219 L 33.863281 39.683594 L 27.542969 39.683594 L 23.488281 33.0625 L 22.078125 34.65625 L 22.078125 39.683594 L 17.007812 39.683594 Z M 17.007812 22.675781 "/>
<path fill-rule="nonzero" fill="rgb(100%, 100%, 100%)" fill-opacity="1" d="M 49.078125 33.105469 C 49.078125 37.820312 46.613281 40.082031 41.585938 40.082031 C 36.558594 40.082031 34.070312 37.820312 34.070312 33.105469 L 34.070312 22.675781 L 39.140625 22.675781 L 39.140625 31.9375 C 39.140625 33.675781 39.140625 35.84375 41.609375 35.84375 C 44.007812 35.84375 44.007812 33.675781 44.007812 31.9375 L 44.007812 22.675781 L 49.078125 22.675781 Z M 49.078125 33.105469 "/>
<path fill-rule="nonzero" fill="rgb(100%, 100%, 100%)" fill-opacity="1" d="M 56.519531 22.675781 L 61.589844 22.675781 L 61.589844 35.324219 L 68.746094 35.324219 L 68.746094 39.683594 L 56.519531 39.683594 Z M 56.519531 22.675781 "/>
<path fill-rule="nonzero" fill="rgb(100%, 100%, 100%)" fill-opacity="1" d="M 70.300781 22.675781 L 83.800781 22.675781 L 83.800781 27.035156 L 75.324219 27.035156 L 75.324219 29.15625 L 83.023438 29.15625 L 83.023438 33.207031 L 75.324219 33.207031 L 75.324219 35.324219 L 84.046875 35.324219 L 84.046875 39.683594 L 70.300781 39.683594 Z M 70.300781 22.675781 "/>
<path fill-rule="nonzero" fill="rgb(100%, 100%, 100%)" fill-opacity="1" d="M 100.359375 33.105469 C 100.359375 37.820312 97.894531 40.082031 92.871094 40.082031 C 87.839844 40.082031 85.351562 37.820312 85.351562 33.105469 L 85.351562 22.675781 L 90.421875 22.675781 L 90.421875 31.9375 C 90.421875 33.675781 90.421875 35.84375 92.890625 35.84375 C 95.289062 35.84375 95.289062 33.675781 95.289062 31.9375 L 95.289062 22.675781 L 100.359375 22.675781 Z M 100.359375 33.105469 "/>
<path fill-rule="nonzero" fill="rgb(100%, 100%, 100%)" fill-opacity="1" d="M 111.660156 39.683594 L 105.988281 39.683594 L 101.078125 22.675781 L 106.195312 22.675781 L 108.894531 32.992188 L 108.941406 32.992188 L 111.589844 22.675781 L 116.800781 22.675781 Z M 111.660156 39.683594 "/>
<path fill-rule="nonzero" fill="rgb(100%, 100%, 100%)" fill-opacity="1" d="M 117.519531 22.675781 L 131.011719 22.675781 L 131.011719 27.035156 L 122.539062 27.035156 L 122.539062 29.15625 L 130.238281 29.15625 L 130.238281 33.207031 L 122.539062 33.207031 L 122.539062 35.324219 L 131.265625 35.324219 L 131.265625 39.683594 L 117.519531 39.683594 Z M 117.519531 22.675781 "/>
<path fill-rule="nonzero" fill="rgb(100%, 100%, 100%)" fill-opacity="1" d="M 132.578125 22.675781 L 137.765625 22.675781 L 142.558594 31.773438 L 142.605469 31.773438 L 142.605469 22.675781 L 147.402344 22.675781 L 147.402344 39.683594 L 142.46875 39.683594 L 137.417969 30.394531 L 137.371094 30.394531 L 137.371094 39.683594 L 132.578125 39.683594 Z M 132.578125 22.675781 "/>
</svg>
