<?xml version="1.0" encoding="utf-8"?>
<!-- Generator: Adobe Illustrator 25.0.1, SVG Export Plug-In . SVG Version: 6.00 Build 0)  -->
<svg version="1.1" id="Layer_1" xmlns="http://www.w3.org/2000/svg" xmlns:xlink="http://www.w3.org/1999/xlink" x="0px" y="0px"
	 viewBox="0 0 324.1 86.1" style="enable-background:new 0 0 324.1 86.1;" xml:space="preserve">
<style type="text/css">
	.st0{fill:#FFFFFF;}
</style>
<g>
	<g>
		<g>
			<g>
				<path class="st0" d="M42.6,84.9l-9.9-16.4c0,0-0.3-0.4-0.3-1l0-0.4v-0.8V37.1h-3.7v30.5v0.9c0.3,0.3,6.5,10.9,6.5,10.9H19.9
					c0,0,6.2-10.6,6.5-10.9v-0.9V37.1h-3.7v29.2v0.8l0,0.4c0,0.6-0.3,1-0.3,1l-9.9,16.4H42.6z"/>
			</g>
			<g>
				<path class="st0" d="M39.6,15.8c0,0,1.9-7.7-4.8-12.7c0,0-2.6-2.4-7.7-2.4c-4.5,0-7.1,2.4-7.1,2.4c-6.1,4.2-4.5,12.7-4.5,12.7
					H39.6z"/>
				<path class="st0" d="M16.2,17.9h22.6c0.2-0.4,0.3-0.9,0.5-1.3H15.8C15.9,17,16,17.5,16.2,17.9z"/>
				<path class="st0" d="M38.5,18.7H16.6c0.2,0.5,0.5,0.9,0.8,1.3h20.4C38,19.6,38.3,19.1,38.5,18.7z"/>
				<path class="st0" d="M18.8,21.9h17.4c0.3-0.3,0.6-0.7,0.9-1.1H17.9C18.2,21.2,18.5,21.5,18.8,21.9z"/>
				<path class="st0" d="M20.7,23.4h13.7c0.4-0.2,0.7-0.5,1-0.8H19.7C20,22.9,20.3,23.2,20.7,23.4z"/>
				<path class="st0" d="M22.6,24.5c1.5,0.7,3.2,1.1,4.9,1.1c1.8,0,3.4-0.4,4.9-1.1H22.6z"/>
			</g>
			<path class="st0" d="M51,26.1H32.5c0,0-1.7,0-3.1,0.9c-1.1,0.7-1.8,2.4-1.9,2.5h0c0-0.1-0.8-1.8-1.9-2.5
				c-1.4-0.9-3.1-0.9-3.1-0.9H4.1l-3.7,5.9h17c0,0,0.5,0,0.8,0.1c0.5,0.1,1.4,0.3,2.3,1c1.3,0.9,1.6,1.4,1.9,1.7
				c0.2,0.2,0.6,0.7,0.6,0.7h4.2h0.5l0,0H29h3.2c0,0,0.4-0.5,0.6-0.7c0.3-0.3,0.7-0.8,1.9-1.7c0.9-0.7,1.8-0.9,2.3-1
				c0.3-0.1,0.8-0.1,0.8-0.1h17L51,26.1z"/>
			<g>
				<g>
					<path class="st0" d="M2.2,33.9v27.8c0,0,0,0.3,0,0.4c0,0.3,0,0.6,0,0.8c0.3,3,1.2,5.2,3,8.1c2.7,4.5,7.7,7.7,7.7,7.7l2.3-3.7
						c0,0-3.2-1.7-5.7-5.5c-0.5-0.8-1-1.5-1.4-2.2c-0.3-0.7-0.6-1.2-0.8-1.8c-0.1-0.4-0.3-0.8-0.3-1.2c-0.1-0.5-0.2-0.9-0.2-1.4
						c0-0.2,0-0.9,0-0.9v-0.1V33.9H2.2z"/>
					<path class="st0" d="M9.3,33.9V62c0,0,0,0.1,0,0.2c0,0.1,0,0.3,0,0.5c0,0.1,0,0.2,0,0.3c0.1,0.4,0.2,0.8,0.4,1.4
						c0.3,0.9,0.9,2.1,1.7,3.4c2.1,3.4,5.1,4.9,5.1,4.9l2.3-3.6c0,0-0.8-0.4-1.7-1.3c-0.6-0.6-1.4-1.4-2-2.3c-0.6-1-1-1.9-1.2-2.6
						c-0.2-0.6-0.2-1.1-0.2-1.4c0-0.3,0-0.4,0-0.4V33.9H9.3z"/>
				</g>
				<g>
					<path class="st0" d="M52.9,33.9v27.8c0,0,0,0.3,0,0.4c0,0.3,0,0.6,0,0.8c-0.3,3-1.2,5.2-3,8.1c-2.7,4.5-7.7,7.7-7.7,7.7
						L39.9,75c0,0,3.2-1.7,5.7-5.5c0.5-0.8,1-1.5,1.4-2.2c0.3-0.7,0.6-1.2,0.8-1.8c0.1-0.4,0.3-0.8,0.3-1.2c0.1-0.5,0.2-0.9,0.2-1.4
						c0-0.2,0-0.9,0-0.9v-0.1V33.9H52.9z"/>
					<path class="st0" d="M45.8,33.9V62c0,0,0,0.1,0,0.2c0,0.1,0,0.3,0,0.5c0,0.1,0,0.2,0,0.3c-0.1,0.4-0.2,0.8-0.4,1.4
						c-0.3,0.9-0.9,2.1-1.7,3.4c-2.1,3.4-5.1,4.9-5.1,4.9l-2.3-3.6c0,0,0.8-0.4,1.7-1.3c0.6-0.6,1.4-1.4,2-2.3c0.6-1,1-1.9,1.2-2.6
						c0.2-0.6,0.2-1.1,0.2-1.4c0-0.3,0-0.4,0-0.4V33.9H45.8z"/>
				</g>
			</g>
		</g>
	</g>
	<g>
		<g>
			<path class="st0" d="M80.6,11.7v8.1h-1.7v-0.9h-9.2v0.9h-1.7v-8c-0.3,0.1-0.8,0.3-1.6,0.6l-0.9-1.7c2.3-0.5,4.2-1.5,5.9-2.9h-5.8
				V6.2h7.7V4.7c-2.8,0.1-4.8,0.1-6,0.1l-0.6-1.7c0.7,0,1.6,0,2.6,0c5,0,8.7-0.3,11.3-0.9l0.8,1.5c-1.7,0.3-3.8,0.6-6.3,0.8v1.6h7.9
				v1.6h-6c1.4,1.4,3.5,2.3,6.2,2.9l-0.8,1.7c-0.2-0.1-0.5-0.2-0.8-0.3C81.1,11.9,80.8,11.8,80.6,11.7z M69,11.2h4.3V7.8
				C72.2,9.3,70.8,10.5,69,11.2z M78.9,12.8h-9.2v1.4h9.2V12.8z M69.7,17.4h9.2v-1.6h-9.2V17.4z M75,7.8v3.5h4.6
				C77.7,10.5,76.2,9.3,75,7.8z"/>
			<path class="st0" d="M93.3,14c-0.5,2-1.3,3.9-2.4,5.6L89.5,18c1.1-1.6,1.8-3.2,2.2-5L93.3,14z M92.2,10.9c-1-0.9-1.9-1.5-2.6-2
				l1.1-1.4c0.9,0.5,1.8,1.1,2.8,1.8L92.2,10.9z M94,4.3h2.5V2.3h1.7v1.9h3.4V2.3h1.7v1.9h3.1v1.5h-3.1v1.9h3.4v1.6h-3.6
				c0.5,1,1.8,2,3.8,3l-0.8,1.7c-1.1-0.7-2.1-1.4-2.8-2v3.8h-6v1.2c0,0.4,0.2,0.7,0.7,0.7h5.5c0.5,0,0.8-0.2,0.9-0.6
				c0.1-0.4,0.2-1.1,0.3-2.1l1.8,0.7c-0.2,1.7-0.5,2.8-0.8,3.1c-0.3,0.3-1,0.5-1.9,0.5h-6.1c-0.8,0-1.4-0.1-1.7-0.4
				c-0.3-0.3-0.5-0.9-0.5-1.7v-4.2c-0.3,0.3-0.9,0.7-1.7,1.2l-1.1-1.6c2.1-0.9,3.4-2,3.9-3.2h-3V7.7h2.9V5.8H94v-1l-1.1,1.4
				c-1-0.9-1.9-1.7-2.8-2.2l1.2-1.4c1.1,0.7,2,1.3,2.7,1.9V4.3z M97.2,12.4v1.8h4.3v-1.8H97.2z M98.6,9.2c-0.3,0.6-0.6,1.2-1.1,1.7
				h4.8c-0.4-0.5-0.8-1-1.1-1.7H98.6z M98.2,5.8v1.8h3.4V5.8H98.2z"/>
			<path class="st0" d="M116.9,4.9c-0.7,0.1-1.6,0.2-2.9,0.3l-0.4-1.6c2.8-0.1,5.2-0.6,7.2-1.3l0.6,1.5c-0.9,0.3-1.8,0.6-2.8,0.8
				v2.6h2.8v1.6h-2.8V9c1.4,1.3,2.4,2.3,3.2,3.1l-1,1.6c-0.4-0.5-0.7-1-1.1-1.4c-0.3-0.4-0.7-0.8-1-1.3v8.7l-1.7,0.1v-7.7
				c-0.5,1.2-1.3,2.6-2.5,4.2l-1-1.7c1.6-1.8,2.7-3.7,3.5-5.8h-3.4V7.2h3.5V4.9z M121.2,15.6v-1.7l6.3-0.9V2.2h1.7v10.5l1.7-0.3v1.7
				l-1.7,0.3v5.4h-1.7v-5.1L121.2,15.6z M125.3,11.8c-1.3-1.1-2.4-1.9-3.4-2.5L123,8c0.9,0.5,2.1,1.3,3.5,2.3L125.3,11.8z
				 M125.6,7.2c-1.4-1.1-2.5-1.9-3.4-2.4l1.1-1.2c0.8,0.5,2,1.2,3.4,2.3L125.6,7.2z"/>
			<path class="st0" d="M144.2,7.7H142V11c1-0.3,1.7-0.6,2.2-0.8V12c-0.4,0.2-1.1,0.5-2.2,0.9v4.6c0,0.9-0.1,1.5-0.4,1.8
				c-0.3,0.3-0.9,0.4-1.8,0.4h-1.5l-0.4-1.9l1.6,0.1c0.4,0,0.6-0.2,0.6-0.6v-3.8c-1.1,0.3-1.9,0.5-2.5,0.6l-0.4-2
				c1.1-0.1,2.1-0.3,3-0.6V7.7h-2.8V6h2.8V2.2h1.8V6h2.2V4.8h4V2.2h1.9v2.6h4.4v1.7h-4.4V9h3.8v1.6c-0.2,0.7-0.6,1.6-1.2,2.6
				c-0.6,1.1-1.3,1.9-2,2.6c1.2,1,2.7,1.8,4.2,2.2l-1,1.8c-1.6-0.5-3.2-1.5-4.6-2.8c-2,1.5-3.8,2.4-5.6,2.8l-1-1.7
				c1.8-0.4,3.6-1.2,5.4-2.4c-1-1-1.9-2.3-2.8-4l1.6-0.6c0.9,1.5,1.7,2.7,2.6,3.6c1.3-1,2.2-2.3,2.7-3.9h-7.4V9h3.7V6.5h-4
				L144.2,7.7z"/>
			<path class="st0" d="M172.3,8.8c0.3,1.5,1,3.1,2,4.8c1.1,1.7,2.5,3.1,4.4,4.3l-1.4,1.7c-3.4-2.2-5.7-5.8-6.9-10.8h-0.3
				c-0.8,4.5-3.3,8.1-7.5,10.9l-1.4-1.8c1.8-1,3.3-2.3,4.6-4c1.3-1.6,2-3.3,2.3-5.1h-6.4v-2h6.8c0.2-1.1,0.2-2.7,0.2-4.7h2
				c0,2.1-0.1,3.7-0.1,4.7h7.9v2L172.3,8.8z"/>
			<path class="st0" d="M199,12.3v1.4c-1.1,0.6-2.4,1.1-4.1,1.6h7.8v1.5H195v0.8c0,1.3-0.6,2-1.7,2h-2.7l-0.4-1.5l2.6,0.1
				c0.4,0,0.6-0.2,0.6-0.6v-0.8h-8.1v-1.5h8.1v-0.8c0.9-0.1,2-0.4,3.3-0.8h-7.9v-1.4H199z M200.7,11.5h-13.5v2.7h-1.7V10h0.9
				l-0.2-7.2c1.6,0,3-0.2,4.1-0.5l0.8,1.4c-0.7,0.2-1.8,0.4-3.3,0.5l0.1,1h2.9v1.3h-2.9l0,1.1h2.8v1.3H188l0,1.3h11.7l0-1.3h-2.6
				V7.5h2.7l0-1.1h-2.7V5.2h2.7l0-1h-3V2.7h4.6l-0.2,7.4h1v4.2h-1.7V11.5z M194.2,4.8c-0.6,0.4-1.4,0.8-2.2,1.1l-1-1.3
				c1-0.3,1.7-0.5,2.1-0.8c-0.3-0.2-0.7-0.5-1.3-0.9l1-0.9c0.5,0.3,1,0.7,1.5,1c0.5-0.4,0.9-0.7,1.1-1l0.9,0.8
				c-0.3,0.4-0.6,0.7-1.1,1c0.2,0.2,0.6,0.6,1,1l-1.1,0.8C194.6,5.2,194.3,4.8,194.2,4.8z M194.3,8.6c-0.6,0.4-1.3,0.7-2.2,1
				l-0.8-1.3c0.9-0.2,1.5-0.4,1.9-0.7c-0.2-0.2-0.7-0.5-1.3-0.9l1-0.8c0.2,0.2,0.5,0.3,0.7,0.4c0.2,0.2,0.5,0.4,0.8,0.6
				c0.4-0.2,0.8-0.6,1.3-1.2l1,0.8c-0.5,0.5-0.9,0.8-1.3,1.1c0.4,0.3,0.7,0.6,1.1,1l-1.2,0.9C194.7,9,194.4,8.6,194.3,8.6z"/>
		</g>
		<g>
			<path class="st0" d="M72.1,84.5h-1.7V72.3h-3.3v-1.6h8.2v1.6h-3.3V84.5z"/>
			<path class="st0" d="M76.9,70.7h7.4v1.6h-5.7v3.8h5.5v1.6h-5.5v5.2h5.7v1.6h-7.4V70.7z"/>
			<path class="st0" d="M96.6,73.4c-1-0.9-2.3-1.3-3.6-1.3c-3.1,0-5.4,2.6-5.4,5.6c0,3,2.3,5.6,5.4,5.6c1.3,0,2.6-0.5,3.7-1.4v2
				c-1.1,0.6-2.4,1-3.6,1c-3.9,0-7.2-3.1-7.2-7.1c0-4.1,3.3-7.2,7.3-7.2c1.2,0,2.4,0.3,3.5,0.9V73.4z"/>
			<path class="st0" d="M106.9,76.3v-5.5h1.7v13.7h-1.7v-6.6h-6.5v6.6h-1.7V70.7h1.7v5.5H106.9z"/>
			<path class="st0" d="M111.1,70.1l10.3,10.8V70.7h1.7v14.3l-10.3-10.8v10.2h-1.7V70.1z"/>
			<path class="st0" d="M139.2,77.6c0,4.1-3.2,7.2-7.2,7.2c-4,0-7.2-3.1-7.2-7.2c0-3.9,3.3-7.2,7.2-7.2
				C135.9,70.5,139.2,73.7,139.2,77.6z M137.5,77.6c0-3-2.3-5.6-5.5-5.6c-3.2,0-5.5,2.5-5.5,5.6c0,3.1,2.5,5.6,5.5,5.6
				C135,83.2,137.5,80.7,137.5,77.6z"/>
			<path class="st0" d="M142.8,82.9h4.2v1.6H141V70.7h1.7V82.9z"/>
			<path class="st0" d="M161.7,77.6c0,4.1-3.2,7.2-7.2,7.2c-4,0-7.2-3.1-7.2-7.2c0-3.9,3.3-7.2,7.2-7.2
				C158.4,70.5,161.7,73.7,161.7,77.6z M160,77.6c0-3-2.3-5.6-5.5-5.6c-3.2,0-5.5,2.5-5.5,5.6c0,3.1,2.5,5.6,5.5,5.6
				C157.4,83.2,160,80.7,160,77.6z"/>
			<path class="st0" d="M176,77.6v0.5c0,3.8-2.7,6.7-6.5,6.7c-3.8,0-6.9-3.3-6.9-7.1c0-4,3.2-7.2,7.1-7.2c2.1,0,4.2,1,5.6,2.7
				l-1.2,1.1c-1-1.3-2.6-2.2-4.3-2.2c-3.1,0-5.5,2.5-5.5,5.6c0,2.9,2.4,5.6,5.3,5.6c2.1,0,4.4-1.8,4.5-4.1h-3.6v-1.6H176z"/>
			<path class="st0" d="M176.5,70.7h2l3.4,5.9l3.4-5.9h2l-4.5,7.8v6H181v-6L176.5,70.7z"/>
		</g>
		<g>
			<path class="st0" d="M71,40.8h-1.7V28.6H66V27h8.2v1.6H71V40.8z"/>
			<path class="st0" d="M83.9,32.6V27h1.7v13.7h-1.7v-6.6h-6.5v6.6h-1.7V27h1.7v5.5H83.9z"/>
			<path class="st0" d="M88.2,27h7.4v1.6h-5.7v3.8h5.5V34h-5.5v5.2h5.7v1.6h-7.4V27z"/>
			<path class="st0" d="M111.5,32.6V27h1.7v13.7h-1.7v-6.6h-6.5v6.6h-1.7V27h1.7v5.5H111.5z"/>
			<path class="st0" d="M129.3,33.9c0,4.1-3.2,7.2-7.2,7.2c-4,0-7.2-3.1-7.2-7.2c0-3.9,3.3-7.2,7.2-7.2
				C126,26.7,129.3,30,129.3,33.9z M127.5,33.9c0-3-2.3-5.6-5.5-5.6c-3.2,0-5.5,2.5-5.5,5.6c0,3.1,2.5,5.6,5.5,5.6
				C125,39.5,127.5,37,127.5,33.9z"/>
			<path class="st0" d="M130.9,26.4l10.3,10.8V27h1.7v14.3l-10.3-10.8v10.2h-1.7V26.4z"/>
			<path class="st0" d="M158.1,33.9v0.5c0,3.8-2.7,6.7-6.5,6.7c-3.8,0-6.9-3.3-6.9-7.1c0-4,3.2-7.2,7.1-7.2c2.1,0,4.2,1,5.6,2.7
				l-1.2,1.1c-1-1.3-2.6-2.2-4.3-2.2c-3.1,0-5.5,2.5-5.5,5.6c0,2.9,2.4,5.6,5.3,5.6c2.1,0,4.4-1.8,4.5-4.1h-3.6v-1.6H158.1z"/>
			<path class="st0" d="M173,27h2.2l-6.2,6.2l6.3,7.6H173l-5.2-6.4l-0.7,0.7v5.7h-1.7V27h1.7v6L173,27z"/>
			<path class="st0" d="M189.9,33.9c0,4.1-3.2,7.2-7.2,7.2c-4,0-7.2-3.1-7.2-7.2c0-3.9,3.3-7.2,7.2-7.2
				C186.7,26.7,189.9,30,189.9,33.9z M188.2,33.9c0-3-2.3-5.6-5.5-5.6c-3.2,0-5.5,2.5-5.5,5.6c0,3.1,2.5,5.6,5.5,5.6
				C185.7,39.5,188.2,37,188.2,33.9z"/>
			<path class="st0" d="M191.6,26.4l10.3,10.8V27h1.7v14.3l-10.3-10.8v10.2h-1.7V26.4z"/>
			<path class="st0" d="M218.8,33.9v0.5c0,3.8-2.7,6.7-6.5,6.7c-3.8,0-6.9-3.3-6.9-7.1c0-4,3.2-7.2,7.1-7.2c2.1,0,4.2,1,5.6,2.7
				l-1.2,1.1c-1-1.3-2.6-2.2-4.3-2.2c-3.1,0-5.5,2.5-5.5,5.6c0,2.9,2.4,5.6,5.3,5.6c2.1,0,4.4-1.8,4.5-4.1h-3.6v-1.6H218.8z"/>
		</g>
		<g>
			<g>
				<path class="st0" d="M212.6,77.6v0.5c0,3.8-2.7,6.7-6.5,6.7c-3.9,0-7-3.3-7-7.1c0-4,3.2-7.2,7.1-7.2c2.1,0,4.3,1,5.6,2.7
					l-1.2,1.1c-1-1.4-2.6-2.2-4.3-2.2c-3.1,0-5.5,2.5-5.5,5.6c0,2.9,2.4,5.6,5.3,5.6c2.1,0,4.4-1.8,4.5-4.1h-3.6v-1.6H212.6z"/>
				<path class="st0" d="M215.9,70.7v8.1c0,2.2,0.7,4.3,3.3,4.3c2.6,0,3.3-2.1,3.3-4.3v-8.1h1.7v8.7c0,3-1.9,5.3-5,5.3
					c-3.2,0-5-2.3-5-5.3v-8.7H215.9z"/>
				<path class="st0" d="M228.8,81.1l-1.6,3.4h-1.8l6.6-14.3l6.6,14.3h-1.8l-1.6-3.4H228.8z M231.9,73.9l-2.4,5.6h4.9L231.9,73.9z"
					/>
				<path class="st0" d="M239.7,70.1L250,80.9V70.7h1.7v14.3l-10.3-10.8v10.3h-1.7V70.1z"/>
				<path class="st0" d="M266.9,77.6v0.5c0,3.8-2.7,6.7-6.5,6.7c-3.9,0-7-3.3-7-7.1c0-4,3.2-7.2,7.1-7.2c2.1,0,4.3,1,5.6,2.7
					l-1.2,1.1c-1-1.4-2.6-2.2-4.3-2.2c-3.1,0-5.5,2.5-5.5,5.6c0,2.9,2.4,5.6,5.3,5.6c2.1,0,4.4-1.8,4.5-4.1h-3.6v-1.6H266.9z"/>
				<path class="st0" d="M277.3,82.9v1.6h-9.8l7-12.2h-6v-1.6h8.8l-7,12.2H277.3z"/>
				<path class="st0" d="M287.1,76.3v-5.5h1.7v13.8h-1.7v-6.6h-6.6v6.6h-1.7V70.7h1.7v5.5H287.1z"/>
				<path class="st0" d="M304.9,77.6c0,4.1-3.2,7.2-7.2,7.2c-4,0-7.2-3.1-7.2-7.2c0-3.9,3.3-7.2,7.2-7.2
					C301.6,70.5,304.9,73.7,304.9,77.6z M303.2,77.6c0-3-2.3-5.6-5.5-5.6c-3.2,0-5.5,2.5-5.5,5.6c0,3.1,2.5,5.6,5.5,5.6
					C300.7,83.2,303.2,80.8,303.2,77.6z"/>
				<path class="st0" d="M308.2,70.7v8.1c0,2.2,0.7,4.3,3.3,4.3c2.6,0,3.3-2.1,3.3-4.3v-8.1h1.7v8.7c0,3-1.9,5.3-5,5.3
					c-3.2,0-5-2.3-5-5.3v-8.7H308.2z"/>
			</g>
		</g>
		<path class="st0" d="M216,2c-0.8,1.6-1.4,2.8-1.8,3.8c-0.6,1.7-0.8,3.4-0.8,5.2c0,2.9,0.9,5.9,2.6,9h-1.4
			c-0.9-1.3-1.7-2.7-2.3-4.3c-0.6-1.6-0.9-3.2-0.9-4.8c0-2.1,0.5-4.3,1.6-6.3c0.6-1.1,1.1-2,1.6-2.7H216z"/>
		<path class="st0" d="M223.4,4.5V8c0,5.3-0.6,9.2-1.8,11.6l-1.3-1.4c1-2.2,1.5-5.8,1.5-10.5V3.1h7.8C229.5,3,229.3,2.6,229,2
			l1.8-0.2c0.2,0.3,0.4,0.8,0.7,1.3h6.5v1.4H223.4z M228.6,17.1l1,1.2c-1.3,0.6-3.2,1.1-5.6,1.5l-0.8-1.5
			C225.6,18.1,227.4,17.7,228.6,17.1z M232.6,17.1H225v-6.2h5.1v-0.9H224V8.8h13.9v1.3h-6.2v0.9h5.1v6.2H232.6
			c2.4,0.6,4.1,1,5.1,1.2l-0.9,1.4c-0.7-0.2-1.5-0.5-2.3-0.7c-1-0.3-1.8-0.5-2.7-0.8L232.6,17.1z M230.1,13.4v-1.3h-3.5v1.3H230.1z
			 M230.1,15.9v-1.3h-3.5v1.3H230.1z M235.2,13.4v-1.3h-3.5v1.3H235.2z M235.2,15.9v-1.3h-3.5v1.3H235.2z"/>
		<path class="st0" d="M247,6.7c-0.1,1.9-0.5,3.8-1.1,5.8l-1.8-0.7c0.7-1.6,1.1-3.4,1.2-5.5L247,6.7z M246,19.4l-1.6-1.5
			c1.1-0.8,2-1.8,2.6-3.1c0.6-1.3,0.9-3.2,0.9-5.8V2.3h1.9v8C249.8,14.2,248.6,17.3,246,19.4z M251.4,12.4C251,10,250.6,8.2,250,7
			l1.7-0.6c0.7,1.8,1.2,3.7,1.6,5.6L251.4,12.4z M253.6,2.5h1.8v16.7h-1.8V2.5z M257.4,12.3c-0.2-1.7-0.7-3.5-1.6-5.4l1.6-0.6
			c0.8,2,1.5,3.8,1.9,5.5L257.4,12.3z M259.6,2.1h1.9v17.7h-1.9V2.1z"/>
		<path class="st0" d="M271.2,11.1c0,2.1-0.5,4.2-1.6,6.3c-0.5,1-1.1,1.9-1.6,2.7h-1.4c0.8-1.6,1.4-2.8,1.8-3.8
			c0.6-1.7,0.8-3.4,0.8-5.2c0-2.9-0.9-5.9-2.6-9h1.4c0.9,1.2,1.7,2.7,2.3,4.3C270.9,8,271.2,9.6,271.2,11.1z"/>
		<path class="st0" d="M196.9,69.5c-0.7,1.4-1.3,2.6-1.6,3.5c-0.5,1.5-0.8,3.1-0.8,4.7c0,2.6,0.8,5.3,2.3,8.1h-1.3
			c-0.8-1.1-1.6-2.4-2.1-3.9c-0.5-1.4-0.8-2.9-0.8-4.3c0-1.9,0.5-3.8,1.5-5.7c0.5-1,1-1.8,1.5-2.4H196.9z"/>
		<path class="st0" d="M323.9,77.6c0,1.9-0.5,3.8-1.5,5.7c-0.5,0.9-1,1.7-1.5,2.4h-1.3c0.7-1.4,1.3-2.5,1.6-3.4
			c0.5-1.5,0.8-3.1,0.8-4.7c0-2.6-0.8-5.3-2.3-8.1h1.3c0.8,1.1,1.5,2.4,2.1,3.9C323.6,74.8,323.9,76.3,323.9,77.6z"/>
		<path class="st0" d="M228.8,9.3V7.6h4.3v1.8l1.7,0V7.6h2.4V6.3h-2.4V5h-1.7v1.2h-4.3V5h-1.7v1.2h-2.7v1.3h2.7v1.8L228.8,9.3z"/>
		<g>
			<path class="st0" d="M68.7,48.9V57c0,2.2,0.7,4.3,3.3,4.3c2.6,0,3.3-2.1,3.3-4.3v-8.1h1.7v8.7c0,3-1.9,5.3-5,5.3
				c-3.2,0-5-2.3-5-5.3v-8.7H68.7z"/>
			<path class="st0" d="M79.7,48.2L90,59V48.9h1.7v14.3L81.4,52.4v10.2h-1.7V48.2z"/>
			<path class="st0" d="M96.8,62.6h-1.7V48.9h1.7V62.6z"/>
			<path class="st0" d="M104.1,59.1l4.1-10.2h1.9l-6,14.5l-6-14.5h1.9L104.1,59.1z"/>
			<path class="st0" d="M111.4,48.9h7.4v1.6h-5.7v3.8h5.5v1.6h-5.5v5.2h5.7v1.6h-7.4V48.9z"/>
			<path class="st0" d="M129.6,62.6h-2.1l-4-5.8h-0.7v5.8h-1.7V48.9h2.1c1.2,0,2.5,0,3.6,0.6c1.1,0.7,1.8,2,1.8,3.3
				c0,2-1.3,3.6-3.3,3.8L129.6,62.6z M122.8,55.4h0.5c1.7,0,3.6-0.3,3.6-2.5c0-2.1-2-2.5-3.7-2.5h-0.5V55.4z"/>
			<path class="st0" d="M137.5,51.5c-0.5-0.9-1.2-1.3-2.2-1.3c-1.1,0-2.3,0.7-2.3,1.9c0,1.1,1.1,1.6,1.9,2l1,0.4
				c1.9,0.8,3.4,1.8,3.4,4.1c0,2.5-1.9,4.3-4.4,4.3c-2.2,0-4-1.6-4.2-3.8l1.7-0.4c0,1.5,1.2,2.6,2.7,2.6c1.5,0,2.5-1.2,2.5-2.7
				c0-1.5-1.2-2.1-2.4-2.6l-0.9-0.4c-1.6-0.7-3-1.6-3-3.5c0-2.2,2-3.6,4-3.6c1.5,0,2.8,0.7,3.5,2.1L137.5,51.5z"/>
			<path class="st0" d="M143.3,62.6h-1.7V48.9h1.7V62.6z"/>
			<path class="st0" d="M150.1,62.6h-1.7V50.5h-3.3v-1.6h8.2v1.6h-3.3V62.6z"/>
			<path class="st0" d="M154,48.9h2l3.4,5.9l3.4-5.9h2l-4.5,7.8v6h-1.7v-6L154,48.9z"/>
			<path class="st0" d="M185.2,55.8c0,4.1-3.2,7.2-7.2,7.2c-4,0-7.2-3.1-7.2-7.2c0-3.9,3.3-7.2,7.2-7.2
				C182,48.6,185.2,51.8,185.2,55.8z M183.5,55.8c0-3-2.3-5.6-5.5-5.6c-3.2,0-5.5,2.5-5.5,5.6c0,3.1,2.5,5.6,5.5,5.6
				C181,61.3,183.5,58.9,183.5,55.8z"/>
			<path class="st0" d="M189,50.5v3.9h4.8v1.6H189v6.7h-1.7V48.9h6.7v1.6H189z"/>
			<path class="st0" d="M208.5,51.5c-0.5-0.9-1.2-1.3-2.2-1.3c-1.1,0-2.3,0.7-2.3,1.9c0,1.1,1.1,1.6,1.9,2l1,0.4
				c1.9,0.8,3.4,1.8,3.4,4.1c0,2.5-1.9,4.3-4.4,4.3c-2.2,0-4-1.6-4.2-3.8l1.7-0.4c0,1.5,1.2,2.6,2.7,2.6c1.5,0,2.5-1.2,2.5-2.7
				c0-1.5-1.2-2.1-2.4-2.6l-0.9-0.4c-1.6-0.7-3-1.6-3-3.5c0-2.2,2-3.6,4-3.6c1.5,0,2.8,0.7,3.5,2.1L208.5,51.5z"/>
			<path class="st0" d="M222.7,51.5c-1-0.9-2.3-1.3-3.6-1.3c-3.1,0-5.4,2.6-5.4,5.6c0,3,2.3,5.6,5.4,5.6c1.3,0,2.6-0.5,3.7-1.4v2
				c-1.1,0.6-2.4,1-3.6,1c-3.9,0-7.2-3.1-7.2-7.1c0-4.1,3.3-7.2,7.3-7.2c1.2,0,2.4,0.3,3.5,0.9V51.5z"/>
			<path class="st0" d="M227.3,62.6h-1.7V48.9h1.7V62.6z"/>
			<path class="st0" d="M230.6,48.9h7.4v1.6h-5.7v3.8h5.5v1.6h-5.5v5.2h5.7v1.6h-7.4V48.9z"/>
			<path class="st0" d="M240.8,48.2L251.1,59V48.9h1.7v14.3l-10.3-10.8v10.2h-1.7V48.2z"/>
			<path class="st0" d="M265.6,51.5c-1-0.9-2.3-1.3-3.6-1.3c-3.1,0-5.4,2.6-5.4,5.6c0,3,2.3,5.6,5.4,5.6c1.3,0,2.6-0.5,3.7-1.4v2
				c-1.1,0.6-2.4,1-3.6,1c-3.9,0-7.2-3.1-7.2-7.1c0-4.1,3.3-7.2,7.3-7.2c1.2,0,2.4,0.3,3.5,0.9V51.5z"/>
			<path class="st0" d="M268,48.9h7.4v1.6h-5.7v3.8h5.5v1.6h-5.5v5.2h5.7v1.6H268V48.9z"/>
		</g>
		<path class="st0" d="M286.8,59.2l-1.6,3.4h-1.8l6.6-14.3l6.6,14.3h-1.8l-1.6-3.4H286.8z M289.9,52.1l-2.4,5.6h4.9L289.9,52.1z"/>
		<path class="st0" d="M298,48.3l10.3,10.8V48.9h1.7v14.3l-10.3-10.8v10.2H298V48.3z"/>
		<path class="st0" d="M312.7,48.9h2.8c4.2,0,7.7,2.2,7.7,6.8c0,4.7-3.4,6.9-7.8,6.9h-2.8V48.9z M314.4,61.1h0.6
			c3.5,0,6.5-1.3,6.5-5.3c0-4-3-5.3-6.5-5.3h-0.6V61.1z"/>
	</g>
</g>
</svg>
