<svg viewBox="0 0 283.464566929 154.979" width="283.464566929pt" height="154.979pt" xmlns="http://www.w3.org/2000/svg" xmlns:xlink="http://www.w3.org/1999/xlink" xmlns:h5="http://www.w3.org/1999/xhtml"><path fill="#ffffff" fill-rule="nonzero" d="M 0 0v 154.979h 283.464566929v -154.979Z "/><g transform="matrix(1 0 0 -1 11 18.238)"><use xlink:href="#gD355BF4F81D64465081A1B40E1986DB4" x="0" y="0" fill="#000000" fill-rule="nonzero"/><use xlink:href="#gBFE09989B12480F1B7796D69E0D7287C" x="5.335" y="0" fill="#000000" fill-rule="nonzero"/><use xlink:href="#gBFE09989B12480F1B7796D69E0D7287C" x="10.329" y="0" fill="#000000" fill-rule="nonzero"/></g><g transform="matrix(1 0 0 -1 28.996 18.238)"><use xlink:href="#g14CB754CE297B694D18D364D9C1BAD84" x="0" y="0" fill="#000000" fill-rule="nonzero"/><use xlink:href="#g4FC526A993AC97C2A7055B69F4E908C9" x="6.127" y="0" fill="#000000" fill-rule="nonzero"/><use xlink:href="#gBFE09989B12480F1B7796D69E0D7287C" x="11.517" y="0" fill="#000000" fill-rule="nonzero"/><use xlink:href="#gD91D82170ED5F219BEA1B53E81DC19AF" x="16.434" y="0" fill="#000000" fill-rule="nonzero"/><use xlink:href="#g3CE57ED74C3DBA63F54F2735C0855367" x="20.438" y="0" fill="#000000" fill-rule="nonzero"/><use xlink:href="#gDD50B131DFBA2C7EA73123CA4C98C33" x="25.146" y="0" fill="#000000" fill-rule="nonzero"/><use xlink:href="#g4E5D026409004C23B788CF76C0C2AF69" x="28.127" y="0" fill="#000000" fill-rule="nonzero"/><use xlink:href="#gBFE09989B12480F1B7796D69E0D7287C" x="32.417" y="0" fill="#000000" fill-rule="nonzero"/><use xlink:href="#g38178746B45E40B27C1ECDAD3F62C0A9" x="40.084" y="0" fill="#000000" fill-rule="nonzero"/></g><a transform="translate(28.996 7.425)"><rect width="45.199" height="14.388" fill="transparent" stroke="none"/></a><g transform="matrix(1 0 0 -1 74.195 18.238)"><use xlink:href="#g4C1ED41FE02ABB1BA3896D4213CC7460" x="0" y="0" fill="#000000" fill-rule="nonzero"/></g><g transform="translate(11 31.438)"><g transform="matrix(1 0 0 -1 0 7.513)"><use xlink:href="#gE3B2328C75ACE1D90CB96F5D0BC30712" x="0" y="0" fill="#000000" fill-rule="nonzero"/><use xlink:href="#g31D79080895A54A2C03F3BFF9340AC07" x="6.699" y="0" fill="#000000" fill-rule="nonzero"/><use xlink:href="#gC14BE50F1468F5902AA9D472AD29244E" x="12.87" y="0" fill="#000000" fill-rule="nonzero"/><use xlink:href="#g47C477A4B9B11053B4775F3BF201C465" x="18.249" y="0" fill="#000000" fill-rule="nonzero"/><use xlink:href="#g91B01334F80632633C2B229D930B162" x="22.869" y="0" fill="#000000" fill-rule="nonzero"/><use xlink:href="#g2D5B92E3E4024BC0BA8952CC9DC03EB3" x="27.885" y="0" fill="#000000" fill-rule="nonzero"/><use xlink:href="#gD2AA3B4ACBC41440BCB2A32823E63FB0" x="31.427" y="0" fill="#000000" fill-rule="nonzero"/><use xlink:href="#gC14BE50F1468F5902AA9D472AD29244E" x="36.124" y="0" fill="#000000" fill-rule="nonzero"/><use xlink:href="#gD67E39117C46D5D7F0BCA6C694099DA2" x="44.253" y="0" fill="#000000" fill-rule="nonzero"/><use xlink:href="#gBEC4FA6960B1D9FF0F7FEE7720207F05" x="49.907" y="0" fill="#000000" fill-rule="nonzero"/></g><g transform="matrix(1 0 0 -1 52.591 7.513)"><use xlink:href="#gA583550D4A9AF5E4B050D091A0D6D555" x="2.75" y="0" fill="#000000" fill-rule="nonzero"/><use xlink:href="#g3BC6300649CA32A3B6F5E66435D77781" x="6.028" y="0" fill="#000000" fill-rule="nonzero"/><use xlink:href="#gBFE09989B12480F1B7796D69E0D7287C" x="11.363" y="0" fill="#000000" fill-rule="nonzero"/><use xlink:href="#gD91D82170ED5F219BEA1B53E81DC19AF" x="16.28" y="0" fill="#000000" fill-rule="nonzero"/><use xlink:href="#gF9510C9866DCA99AFC3FC8A8DB318BDC" x="20.372" y="0" fill="#000000" fill-rule="nonzero"/><use xlink:href="#g9787446D80B11CDE2529516BF2D1ACCA" x="29.062" y="0" fill="#000000" fill-rule="nonzero"/><use xlink:href="#gB38329E71763B8BD4CF776D24C5AFFE1" x="34.089" y="0" fill="#000000" fill-rule="nonzero"/><use xlink:href="#gB9DC4B1E70B7779F66D7CC9B775B364E" x="37.565" y="0" fill="#000000" fill-rule="nonzero"/><use xlink:href="#g4E5D026409004C23B788CF76C0C2AF69" x="40.513" y="0" fill="#000000" fill-rule="nonzero"/><use xlink:href="#gDAEF01F2D8957876B63D52895EE853E4" x="47.553" y="0" fill="#000000" fill-rule="nonzero"/><use xlink:href="#g9787446D80B11CDE2529516BF2D1ACCA" x="53.361" y="0" fill="#000000" fill-rule="nonzero"/><use xlink:href="#g4E5D026409004C23B788CF76C0C2AF69" x="58.388" y="0" fill="#000000" fill-rule="nonzero"/><use xlink:href="#gB38329E71763B8BD4CF776D24C5AFFE1" x="62.678" y="0" fill="#000000" fill-rule="nonzero"/><use xlink:href="#g6553513FE64203BDE37F7BF6C55D1886" x="68.904" y="0" fill="#000000" fill-rule="nonzero"/><use xlink:href="#g525D29E90AD4E5DCC336104F62B1760B" x="75.471" y="0" fill="#000000" fill-rule="nonzero"/><use xlink:href="#gBFE09989B12480F1B7796D69E0D7287C" x="81.389" y="0" fill="#000000" fill-rule="nonzero"/><use xlink:href="#g5E76F8DBE7C3C7A9A461E8EC1D70F6FB" x="86.383" y="0" fill="#000000" fill-rule="nonzero"/><use xlink:href="#gD91D82170ED5F219BEA1B53E81DC19AF" x="91.927" y="0" fill="#000000" fill-rule="nonzero"/><use xlink:href="#gBFE09989B12480F1B7796D69E0D7287C" x="95.931" y="0" fill="#000000" fill-rule="nonzero"/><use xlink:href="#gF9510C9866DCA99AFC3FC8A8DB318BDC" x="100.848" y="0" fill="#000000" fill-rule="nonzero"/><use xlink:href="#gEC09E6B8EA933E4C3BF631014D088804" x="109.538" y="0" fill="#000000" fill-rule="nonzero"/><use xlink:href="#g5D279FAE8446F75B298AD3FAD5B8DC82" x="115.566" y="0" fill="#000000" fill-rule="nonzero"/><use xlink:href="#gD91D82170ED5F219BEA1B53E81DC19AF" x="121.517" y="0" fill="#000000" fill-rule="nonzero"/><use xlink:href="#g5E76F8DBE7C3C7A9A461E8EC1D70F6FB" x="125.521" y="0" fill="#000000" fill-rule="nonzero"/><use xlink:href="#g1E471D2E98C4E85A3CE47F56E86025C4" x="130.988" y="0" fill="#000000" fill-rule="nonzero"/><use xlink:href="#gBFE09989B12480F1B7796D69E0D7287C" x="136.367" y="0" fill="#000000" fill-rule="nonzero"/><use xlink:href="#gB38329E71763B8BD4CF776D24C5AFFE1" x="144.034" y="0" fill="#000000" fill-rule="nonzero"/><use xlink:href="#g525D29E90AD4E5DCC336104F62B1760B" x="147.51" y="0" fill="#000000" fill-rule="nonzero"/><use xlink:href="#g9787446D80B11CDE2529516BF2D1ACCA" x="153.428" y="0" fill="#000000" fill-rule="nonzero"/><use xlink:href="#gB38329E71763B8BD4CF776D24C5AFFE1" x="158.455" y="0" fill="#000000" fill-rule="nonzero"/></g><g transform="matrix(1 0 0 -1 217.272 7.513)"><use xlink:href="#gAD68FEA307F3714AA7A4971A05BB9F08" x="0" y="0" fill="#000000" fill-rule="nonzero"/></g><g transform="matrix(1 0 0 -1 223.564 3.52)"><use xlink:href="#g762C2B488963F19620BDFDE6014862BF" x="0" y="0" fill="#000000" fill-rule="nonzero"/></g><g transform="matrix(1 0 0 -1 232.060644444 7.513)"><use xlink:href="#gE81B0ECA098F8EC5798C0696251FF32B" x="0" y="0" fill="#000000" fill-rule="nonzero"/></g><g transform="matrix(1 0 0 -1 0 22.176)"><use xlink:href="#g2EA9A9B4B73FFBAC53D252108C26B78B" x="0" y="0" fill="#000000" fill-rule="nonzero"/></g><g transform="matrix(1 0 0 -1 5.698 18.183)"><use xlink:href="#g762C2B488963F19620BDFDE6014862BF" x="0" y="0" fill="#000000" fill-rule="nonzero"/></g><g transform="matrix(1 0 0 -1 14.805755556 22.176)"><use xlink:href="#gAB7BA41276115F79AA822638BC19E937" x="0" y="0" fill="#000000" fill-rule="nonzero"/></g><g transform="matrix(1 0 0 -1 26.419311111 22.176)"><use xlink:href="#g5B1C3E8B3F3A864C0BFE9DA43D9BA9F0" x="0" y="0" fill="#000000" fill-rule="nonzero"/></g><g transform="matrix(1 0 0 -1 31.864311111 18.183)"><use xlink:href="#g762C2B488963F19620BDFDE6014862BF" x="0" y="0" fill="#000000" fill-rule="nonzero"/></g><g transform="matrix(1 0 0 -1 37.916511111 22.176)"><use xlink:href="#g85F2EE8B895E97692CFADEC6255BB859" x="0" y="0" fill="#000000" fill-rule="nonzero"/><use xlink:href="#g162FFC49A5D51E5E20A023FB65F6BB60" x="5.17" y="0" fill="#000000" fill-rule="nonzero"/><use xlink:href="#g525D29E90AD4E5DCC336104F62B1760B" x="13.387" y="0" fill="#000000" fill-rule="nonzero"/><use xlink:href="#gBFE09989B12480F1B7796D69E0D7287C" x="19.305" y="0" fill="#000000" fill-rule="nonzero"/><use xlink:href="#gD91D82170ED5F219BEA1B53E81DC19AF" x="24.222" y="0" fill="#000000" fill-rule="nonzero"/><use xlink:href="#gBFE09989B12480F1B7796D69E0D7287C" x="28.226" y="0" fill="#000000" fill-rule="nonzero"/></g><g transform="matrix(1 0 0 -1 73.809511111 22.176)"><use xlink:href="#g2B0146345296F240F86CB4E1CE7A9433" x="0" y="0" fill="#000000" fill-rule="nonzero"/></g><g transform="matrix(1 0 0 -1 83.465066667 22.176)"><use xlink:href="#gB0C9E69BC65C8148402011051E029BAD" x="0" y="0" fill="#000000" fill-rule="nonzero"/></g><g transform="matrix(1 0 0 -1 95.078622222 22.176)"><use xlink:href="#gA2B1395F7EE990BA3E0C8AED043208DD" x="0" y="0" fill="#000000" fill-rule="nonzero"/></g><g transform="matrix(1 0 0 -1 100.578622222 22.176)"><use xlink:href="#g85F2EE8B895E97692CFADEC6255BB859" x="0" y="0" fill="#000000" fill-rule="nonzero"/><use xlink:href="#g525D29E90AD4E5DCC336104F62B1760B" x="5.17" y="0" fill="#000000" fill-rule="nonzero"/><use xlink:href="#g9787446D80B11CDE2529516BF2D1ACCA" x="11.088" y="0" fill="#000000" fill-rule="nonzero"/><use xlink:href="#g4E5D026409004C23B788CF76C0C2AF69" x="16.115" y="0" fill="#000000" fill-rule="nonzero"/><use xlink:href="#gEB245AFE22C398BE296AC5F7AF6ADF12" x="23.155" y="0" fill="#000000" fill-rule="nonzero"/><use xlink:href="#g5E76F8DBE7C3C7A9A461E8EC1D70F6FB" x="29.117" y="0" fill="#000000" fill-rule="nonzero"/><use xlink:href="#gEB245AFE22C398BE296AC5F7AF6ADF12" x="37.411" y="0" fill="#000000" fill-rule="nonzero"/><use xlink:href="#g5E76F8DBE7C3C7A9A461E8EC1D70F6FB" x="43.373" y="0" fill="#000000" fill-rule="nonzero"/><use xlink:href="#gEB245AFE22C398BE296AC5F7AF6ADF12" x="48.917" y="0" fill="#000000" fill-rule="nonzero"/><use xlink:href="#g1A21308A8093B77381851E026859DC0C" x="54.879" y="0" fill="#000000" fill-rule="nonzero"/><use xlink:href="#gB38329E71763B8BD4CF776D24C5AFFE1" x="58.597" y="0" fill="#000000" fill-rule="nonzero"/><use xlink:href="#gD91D82170ED5F219BEA1B53E81DC19AF" x="62.073" y="0" fill="#000000" fill-rule="nonzero"/><use xlink:href="#gDD50B131DFBA2C7EA73123CA4C98C33" x="66.165" y="0" fill="#000000" fill-rule="nonzero"/><use xlink:href="#g1E471D2E98C4E85A3CE47F56E86025C4" x="69.146" y="0" fill="#000000" fill-rule="nonzero"/><use xlink:href="#gDD50B131DFBA2C7EA73123CA4C98C33" x="74.613" y="0" fill="#000000" fill-rule="nonzero"/><use xlink:href="#g9787446D80B11CDE2529516BF2D1ACCA" x="77.594" y="0" fill="#000000" fill-rule="nonzero"/><use xlink:href="#g36F90904A4043C6A677E73471A30013F" x="82.621" y="0" fill="#000000" fill-rule="nonzero"/><use xlink:href="#g4E5D026409004C23B788CF76C0C2AF69" x="88.275" y="0" fill="#000000" fill-rule="nonzero"/><use xlink:href="#g5E76F8DBE7C3C7A9A461E8EC1D70F6FB" x="92.565" y="0" fill="#000000" fill-rule="nonzero"/><use xlink:href="#g36F90904A4043C6A677E73471A30013F" x="98.109" y="0" fill="#000000" fill-rule="nonzero"/><use xlink:href="#g8FE23DF7094EE2D558758B421CB0DF33" x="101.013" y="0" fill="#000000" fill-rule="nonzero"/><use xlink:href="#gB38329E71763B8BD4CF776D24C5AFFE1" x="106.854" y="0" fill="#000000" fill-rule="nonzero"/><use xlink:href="#gDD50B131DFBA2C7EA73123CA4C98C33" x="110.33" y="0" fill="#000000" fill-rule="nonzero"/><use xlink:href="#g5E76F8DBE7C3C7A9A461E8EC1D70F6FB" x="113.311" y="0" fill="#000000" fill-rule="nonzero"/><use xlink:href="#gEB245AFE22C398BE296AC5F7AF6ADF12" x="118.855" y="0" fill="#000000" fill-rule="nonzero"/><use xlink:href="#g4E5D026409004C23B788CF76C0C2AF69" x="124.817" y="0" fill="#000000" fill-rule="nonzero"/></g><g transform="matrix(1 0 0 -1 0 36.839)"><use xlink:href="#gAD68FEA307F3714AA7A4971A05BB9F08" x="0" y="0" fill="#000000" fill-rule="nonzero"/></g><g transform="matrix(1 0 0 -1 6.292 36.839)"><use xlink:href="#g5310E062DB6BDE2A703F63D870CADBE5" x="0" y="0" fill="#000000" fill-rule="nonzero"/></g><g transform="matrix(1 0 0 -1 11.183333333 36.839)"><use xlink:href="#g2EA9A9B4B73FFBAC53D252108C26B78B" x="0" y="0" fill="#000000" fill-rule="nonzero"/></g><g transform="matrix(1 0 0 -1 16.881333333 36.839)"><use xlink:href="#g5310E062DB6BDE2A703F63D870CADBE5" x="0" y="0" fill="#000000" fill-rule="nonzero"/></g><g transform="matrix(1 0 0 -1 21.772666667 36.839)"><use xlink:href="#g5B1C3E8B3F3A864C0BFE9DA43D9BA9F0" x="0" y="0" fill="#000000" fill-rule="nonzero"/></g><g transform="matrix(1 0 0 -1 30.273222222 36.839)"><use xlink:href="#gC7786DE3A0FDF2F0F116313154DFBC08" x="0" y="0" fill="#000000" fill-rule="nonzero"/></g><g transform="matrix(1 0 0 -1 40.665777778 36.839)"><use xlink:href="#gA549392EF3CBA3CB389CB26F092EF8" x="0" y="0" fill="#000000" fill-rule="nonzero"/></g><g transform="matrix(1 0 0 -1 47.991777778 36.839)"><use xlink:href="#g4C1ED41FE02ABB1BA3896D4213CC7460" x="0" y="0" fill="#000000" fill-rule="nonzero"/></g></g><g transform="translate(11 81.477)"><g transform="matrix(1 0 0 -1 0 7.238)"><use xlink:href="#gE3B2328C75ACE1D90CB96F5D0BC30712" x="0" y="0" fill="#000000" fill-rule="nonzero"/><use xlink:href="#g31D79080895A54A2C03F3BFF9340AC07" x="6.699" y="0" fill="#000000" fill-rule="nonzero"/><use xlink:href="#gC14BE50F1468F5902AA9D472AD29244E" x="12.87" y="0" fill="#000000" fill-rule="nonzero"/><use xlink:href="#g47C477A4B9B11053B4775F3BF201C465" x="18.249" y="0" fill="#000000" fill-rule="nonzero"/><use xlink:href="#g91B01334F80632633C2B229D930B162" x="22.869" y="0" fill="#000000" fill-rule="nonzero"/><use xlink:href="#g2D5B92E3E4024BC0BA8952CC9DC03EB3" x="27.885" y="0" fill="#000000" fill-rule="nonzero"/><use xlink:href="#gD2AA3B4ACBC41440BCB2A32823E63FB0" x="31.427" y="0" fill="#000000" fill-rule="nonzero"/><use xlink:href="#gC14BE50F1468F5902AA9D472AD29244E" x="36.124" y="0" fill="#000000" fill-rule="nonzero"/><use xlink:href="#g2DD3E926205855EAF1753B8A91BFE40C" x="44.253" y="0" fill="#000000" fill-rule="nonzero"/><use xlink:href="#gBEC4FA6960B1D9FF0F7FEE7720207F05" x="49.907" y="0" fill="#000000" fill-rule="nonzero"/></g><g transform="matrix(1 0 0 -1 52.591 7.238)"><use xlink:href="#gF697F4206A782C3B42F4E05D5EA9B2A0" x="2.75" y="0" fill="#000000" fill-rule="nonzero"/><use xlink:href="#g5E76F8DBE7C3C7A9A461E8EC1D70F6FB" x="10.461" y="0" fill="#000000" fill-rule="nonzero"/><use xlink:href="#gB7E01F34AB4FF1C26BADF7D662D6A5FF" x="18.755" y="0" fill="#000000" fill-rule="nonzero"/><use xlink:href="#g5E76F8DBE7C3C7A9A461E8EC1D70F6FB" x="24.332" y="0" fill="#000000" fill-rule="nonzero"/><use xlink:href="#g8FE23DF7094EE2D558758B421CB0DF33" x="29.876" y="0" fill="#000000" fill-rule="nonzero"/><use xlink:href="#g36F90904A4043C6A677E73471A30013F" x="38.467" y="0" fill="#000000" fill-rule="nonzero"/><use xlink:href="#g5E76F8DBE7C3C7A9A461E8EC1D70F6FB" x="41.371" y="0" fill="#000000" fill-rule="nonzero"/><use xlink:href="#g1E471D2E98C4E85A3CE47F56E86025C4" x="46.838" y="0" fill="#000000" fill-rule="nonzero"/><use xlink:href="#gBFE09989B12480F1B7796D69E0D7287C" x="52.217" y="0" fill="#000000" fill-rule="nonzero"/><use xlink:href="#g6553513FE64203BDE37F7BF6C55D1886" x="59.884" y="0" fill="#000000" fill-rule="nonzero"/><use xlink:href="#gB7E01F34AB4FF1C26BADF7D662D6A5FF" x="65.912" y="0" fill="#000000" fill-rule="nonzero"/><use xlink:href="#gF9560AC257AD9BBCF737B0F29E336B2F" x="71.577" y="0" fill="#000000" fill-rule="nonzero"/><use xlink:href="#g4E5D026409004C23B788CF76C0C2AF69" x="77.286" y="0" fill="#000000" fill-rule="nonzero"/><use xlink:href="#gB38329E71763B8BD4CF776D24C5AFFE1" x="81.576" y="0" fill="#000000" fill-rule="nonzero"/><use xlink:href="#gF1225D4F4E45B3D330508564A2DC8008" x="85.052" y="0" fill="#000000" fill-rule="nonzero"/></g></g><g transform="translate(11 101.915)"><g transform="matrix(1 0 0 -1 0 7.238)"><use xlink:href="#gE3B2328C75ACE1D90CB96F5D0BC30712" x="0" y="0" fill="#000000" fill-rule="nonzero"/><use xlink:href="#g31D79080895A54A2C03F3BFF9340AC07" x="6.699" y="0" fill="#000000" fill-rule="nonzero"/><use xlink:href="#gC14BE50F1468F5902AA9D472AD29244E" x="12.87" y="0" fill="#000000" fill-rule="nonzero"/><use xlink:href="#g47C477A4B9B11053B4775F3BF201C465" x="18.249" y="0" fill="#000000" fill-rule="nonzero"/><use xlink:href="#g91B01334F80632633C2B229D930B162" x="22.869" y="0" fill="#000000" fill-rule="nonzero"/><use xlink:href="#g2D5B92E3E4024BC0BA8952CC9DC03EB3" x="27.885" y="0" fill="#000000" fill-rule="nonzero"/><use xlink:href="#gD2AA3B4ACBC41440BCB2A32823E63FB0" x="31.427" y="0" fill="#000000" fill-rule="nonzero"/><use xlink:href="#gC14BE50F1468F5902AA9D472AD29244E" x="36.124" y="0" fill="#000000" fill-rule="nonzero"/><use xlink:href="#gD67E39117C46D5D7F0BCA6C694099DA2" x="44.253" y="0" fill="#000000" fill-rule="nonzero"/><use xlink:href="#gBEC4FA6960B1D9FF0F7FEE7720207F05" x="49.907" y="0" fill="#000000" fill-rule="nonzero"/></g><g transform="matrix(1 0 0 -1 52.591 7.238)"><use xlink:href="#g6553513FE64203BDE37F7BF6C55D1886" x="2.75" y="0" fill="#000000" fill-rule="nonzero"/><use xlink:href="#g525D29E90AD4E5DCC336104F62B1760B" x="9.317" y="0" fill="#000000" fill-rule="nonzero"/><use xlink:href="#gBFE09989B12480F1B7796D69E0D7287C" x="15.235" y="0" fill="#000000" fill-rule="nonzero"/><use xlink:href="#gB38329E71763B8BD4CF776D24C5AFFE1" x="22.902" y="0" fill="#000000" fill-rule="nonzero"/><use xlink:href="#gD91D82170ED5F219BEA1B53E81DC19AF" x="26.378" y="0" fill="#000000" fill-rule="nonzero"/><use xlink:href="#g8FE23DF7094EE2D558758B421CB0DF33" x="30.47" y="0" fill="#000000" fill-rule="nonzero"/><use xlink:href="#g36F90904A4043C6A677E73471A30013F" x="36.311" y="0" fill="#000000" fill-rule="nonzero"/><use xlink:href="#gB7E01F34AB4FF1C26BADF7D662D6A5FF" x="39.215" y="0" fill="#000000" fill-rule="nonzero"/><use xlink:href="#gF9510C9866DCA99AFC3FC8A8DB318BDC" x="47.63" y="0" fill="#000000" fill-rule="nonzero"/><use xlink:href="#g9787446D80B11CDE2529516BF2D1ACCA" x="56.32" y="0" fill="#000000" fill-rule="nonzero"/><use xlink:href="#gD91D82170ED5F219BEA1B53E81DC19AF" x="61.347" y="0" fill="#000000" fill-rule="nonzero"/><use xlink:href="#g1E471D2E98C4E85A3CE47F56E86025C4" x="65.604" y="0" fill="#000000" fill-rule="nonzero"/><use xlink:href="#gBFE09989B12480F1B7796D69E0D7287C" x="70.983" y="0" fill="#000000" fill-rule="nonzero"/><use xlink:href="#g36F90904A4043C6A677E73471A30013F" x="75.9" y="0" fill="#000000" fill-rule="nonzero"/><use xlink:href="#g5E76F8DBE7C3C7A9A461E8EC1D70F6FB" x="78.804" y="0" fill="#000000" fill-rule="nonzero"/><use xlink:href="#g8FE23DF7094EE2D558758B421CB0DF33" x="84.348" y="0" fill="#000000" fill-rule="nonzero"/><use xlink:href="#g4E5D026409004C23B788CF76C0C2AF69" x="90.189" y="0" fill="#000000" fill-rule="nonzero"/><use xlink:href="#gF9560AC257AD9BBCF737B0F29E336B2F" x="97.229" y="0" fill="#000000" fill-rule="nonzero"/><use xlink:href="#gD91D82170ED5F219BEA1B53E81DC19AF" x="102.938" y="0" fill="#000000" fill-rule="nonzero"/><use xlink:href="#g5E76F8DBE7C3C7A9A461E8EC1D70F6FB" x="106.942" y="0" fill="#000000" fill-rule="nonzero"/><use xlink:href="#g5E76F8DBE7C3C7A9A461E8EC1D70F6FB" x="112.563" y="0" fill="#000000" fill-rule="nonzero"/><use xlink:href="#gD14A2C15FA7E7E6DA17092C3143CABC8" x="118.107" y="0" fill="#000000" fill-rule="nonzero"/><use xlink:href="#g5E76F8DBE7C3C7A9A461E8EC1D70F6FB" x="124.267" y="0" fill="#000000" fill-rule="nonzero"/><use xlink:href="#gD14A2C15FA7E7E6DA17092C3143CABC8" x="129.811" y="0" fill="#000000" fill-rule="nonzero"/><use xlink:href="#gB38329E71763B8BD4CF776D24C5AFFE1" x="135.971" y="0" fill="#000000" fill-rule="nonzero"/><use xlink:href="#g525D29E90AD4E5DCC336104F62B1760B" x="139.447" y="0" fill="#000000" fill-rule="nonzero"/><use xlink:href="#gDD50B131DFBA2C7EA73123CA4C98C33" x="145.365" y="0" fill="#000000" fill-rule="nonzero"/><use xlink:href="#g4E5D026409004C23B788CF76C0C2AF69" x="148.346" y="0" fill="#000000" fill-rule="nonzero"/><use xlink:href="#gDD50B131DFBA2C7EA73123CA4C98C33" x="155.386" y="0" fill="#000000" fill-rule="nonzero"/><use xlink:href="#g4E5D026409004C23B788CF76C0C2AF69" x="158.367" y="0" fill="#000000" fill-rule="nonzero"/><use xlink:href="#g8FE23DF7094EE2D558758B421CB0DF33" x="165.407" y="0" fill="#000000" fill-rule="nonzero"/><use xlink:href="#gEB245AFE22C398BE296AC5F7AF6ADF12" x="171.248" y="0" fill="#000000" fill-rule="nonzero"/><use xlink:href="#g9787446D80B11CDE2529516BF2D1ACCA" x="177.21" y="0" fill="#000000" fill-rule="nonzero"/><use xlink:href="#g2E78C0ACEE1FBDF39EC1D5F9B4AD747D" x="182.237" y="0" fill="#000000" fill-rule="nonzero"/><use xlink:href="#g36F90904A4043C6A677E73471A30013F" x="187.66" y="0" fill="#000000" fill-rule="nonzero"/><use xlink:href="#gBFE09989B12480F1B7796D69E0D7287C" x="190.564" y="0" fill="#000000" fill-rule="nonzero"/><use xlink:href="#gB38329E71763B8BD4CF776D24C5AFFE1" x="198.231" y="0" fill="#000000" fill-rule="nonzero"/><use xlink:href="#g5E76F8DBE7C3C7A9A461E8EC1D70F6FB" x="201.707" y="0" fill="#000000" fill-rule="nonzero"/></g><g transform="matrix(1 0 0 -1 0 21.626)"><use xlink:href="#g2E78C0ACEE1FBDF39EC1D5F9B4AD747D" x="0" y="0" fill="#000000" fill-rule="nonzero"/><use xlink:href="#gBFE09989B12480F1B7796D69E0D7287C" x="5.533" y="0" fill="#000000" fill-rule="nonzero"/><use xlink:href="#g3CE57ED74C3DBA63F54F2735C0855367" x="13.2" y="0" fill="#000000" fill-rule="nonzero"/><use xlink:href="#g5E76F8DBE7C3C7A9A461E8EC1D70F6FB" x="17.908" y="0" fill="#000000" fill-rule="nonzero"/><use xlink:href="#gEB245AFE22C398BE296AC5F7AF6ADF12" x="23.452" y="0" fill="#000000" fill-rule="nonzero"/><use xlink:href="#gB38329E71763B8BD4CF776D24C5AFFE1" x="29.414" y="0" fill="#000000" fill-rule="nonzero"/><use xlink:href="#g9787446D80B11CDE2529516BF2D1ACCA" x="32.89" y="0" fill="#000000" fill-rule="nonzero"/><use xlink:href="#gDD50B131DFBA2C7EA73123CA4C98C33" x="37.917" y="0" fill="#000000" fill-rule="nonzero"/><use xlink:href="#gEB245AFE22C398BE296AC5F7AF6ADF12" x="40.898" y="0" fill="#000000" fill-rule="nonzero"/><use xlink:href="#gBFE09989B12480F1B7796D69E0D7287C" x="46.86" y="0" fill="#000000" fill-rule="nonzero"/><use xlink:href="#g7FF42B92D9D80783DC2C1CC317042C56" x="51.854" y="0" fill="#000000" fill-rule="nonzero"/><use xlink:href="#g162FFC49A5D51E5E20A023FB65F6BB60" x="60.17" y="0" fill="#000000" fill-rule="nonzero"/><use xlink:href="#gDD50B131DFBA2C7EA73123CA4C98C33" x="68.387" y="0" fill="#000000" fill-rule="nonzero"/><use xlink:href="#gB38329E71763B8BD4CF776D24C5AFFE1" x="71.368" y="0" fill="#000000" fill-rule="nonzero"/><use xlink:href="#g525D29E90AD4E5DCC336104F62B1760B" x="74.844" y="0" fill="#000000" fill-rule="nonzero"/><use xlink:href="#gDD50B131DFBA2C7EA73123CA4C98C33" x="80.762" y="0" fill="#000000" fill-rule="nonzero"/><use xlink:href="#gEB245AFE22C398BE296AC5F7AF6ADF12" x="83.743" y="0" fill="#000000" fill-rule="nonzero"/><use xlink:href="#gB38329E71763B8BD4CF776D24C5AFFE1" x="92.455" y="0" fill="#000000" fill-rule="nonzero"/><use xlink:href="#g525D29E90AD4E5DCC336104F62B1760B" x="95.931" y="0" fill="#000000" fill-rule="nonzero"/><use xlink:href="#gDD50B131DFBA2C7EA73123CA4C98C33" x="101.849" y="0" fill="#000000" fill-rule="nonzero"/><use xlink:href="#g4E5D026409004C23B788CF76C0C2AF69" x="104.83" y="0" fill="#000000" fill-rule="nonzero"/><use xlink:href="#g4E5D026409004C23B788CF76C0C2AF69" x="111.87" y="0" fill="#000000" fill-rule="nonzero"/><use xlink:href="#gF9510C9866DCA99AFC3FC8A8DB318BDC" x="116.16" y="0" fill="#000000" fill-rule="nonzero"/><use xlink:href="#g9787446D80B11CDE2529516BF2D1ACCA" x="124.85" y="0" fill="#000000" fill-rule="nonzero"/><use xlink:href="#g36F90904A4043C6A677E73471A30013F" x="129.877" y="0" fill="#000000" fill-rule="nonzero"/><use xlink:href="#g36F90904A4043C6A677E73471A30013F" x="132.781" y="0" fill="#000000" fill-rule="nonzero"/><use xlink:href="#g7FF42B92D9D80783DC2C1CC317042C56" x="138.435" y="0" fill="#000000" fill-rule="nonzero"/><use xlink:href="#g5E76F8DBE7C3C7A9A461E8EC1D70F6FB" x="144.001" y="0" fill="#000000" fill-rule="nonzero"/><use xlink:href="#g3CE57ED74C3DBA63F54F2735C0855367" x="149.622" y="0" fill="#000000" fill-rule="nonzero"/><use xlink:href="#g8FE23DF7094EE2D558758B421CB0DF33" x="154.33" y="0" fill="#000000" fill-rule="nonzero"/><use xlink:href="#gF9510C9866DCA99AFC3FC8A8DB318BDC" x="160.171" y="0" fill="#000000" fill-rule="nonzero"/><use xlink:href="#gBFE09989B12480F1B7796D69E0D7287C" x="168.861" y="0" fill="#000000" fill-rule="nonzero"/><use xlink:href="#gEB245AFE22C398BE296AC5F7AF6ADF12" x="173.778" y="0" fill="#000000" fill-rule="nonzero"/><use xlink:href="#gB38329E71763B8BD4CF776D24C5AFFE1" x="179.74" y="0" fill="#000000" fill-rule="nonzero"/><use xlink:href="#g4C1ED41FE02ABB1BA3896D4213CC7460" x="183.216" y="0" fill="#000000" fill-rule="nonzero"/></g></g><g transform="translate(11 136.741)"><g transform="matrix(1 0 0 -1 0 7.238)"><use xlink:href="#gE3B2328C75ACE1D90CB96F5D0BC30712" x="0" y="0" fill="#000000" fill-rule="nonzero"/><use xlink:href="#g31D79080895A54A2C03F3BFF9340AC07" x="6.699" y="0" fill="#000000" fill-rule="nonzero"/><use xlink:href="#gC14BE50F1468F5902AA9D472AD29244E" x="12.87" y="0" fill="#000000" fill-rule="nonzero"/><use xlink:href="#g47C477A4B9B11053B4775F3BF201C465" x="18.249" y="0" fill="#000000" fill-rule="nonzero"/><use xlink:href="#g91B01334F80632633C2B229D930B162" x="22.869" y="0" fill="#000000" fill-rule="nonzero"/><use xlink:href="#g2D5B92E3E4024BC0BA8952CC9DC03EB3" x="27.885" y="0" fill="#000000" fill-rule="nonzero"/><use xlink:href="#gD2AA3B4ACBC41440BCB2A32823E63FB0" x="31.427" y="0" fill="#000000" fill-rule="nonzero"/><use xlink:href="#gC14BE50F1468F5902AA9D472AD29244E" x="36.124" y="0" fill="#000000" fill-rule="nonzero"/><use xlink:href="#g2DD3E926205855EAF1753B8A91BFE40C" x="44.253" y="0" fill="#000000" fill-rule="nonzero"/><use xlink:href="#gBEC4FA6960B1D9FF0F7FEE7720207F05" x="49.907" y="0" fill="#000000" fill-rule="nonzero"/></g><g transform="matrix(1 0 0 -1 52.591 7.238)"><use xlink:href="#gD162C393A90025E62FE9FC38ECBA74D4" x="2.75" y="0" fill="#000000" fill-rule="nonzero"/><use xlink:href="#gBFE09989B12480F1B7796D69E0D7287C" x="8.294" y="0" fill="#000000" fill-rule="nonzero"/><use xlink:href="#g4E5D026409004C23B788CF76C0C2AF69" x="13.211" y="0" fill="#000000" fill-rule="nonzero"/><use xlink:href="#g214BF76848B7F505DA7C31C530469F23" x="17.501" y="0" fill="#000000" fill-rule="nonzero"/></g></g><defs><symbol id="gD355BF4F81D64465081A1B40E1986DB4" overflow="visible"><path d="M 0 0m 4.345 6.941c -0.638 0.088 -0.616 0.297 -1.694 0.297c -1.111 0 -2.09 -0.737 -2.09 -1.903c 0 -1.155 0.957 -1.683 1.925 -2.057c 0.66 -0.253 1.474 -0.561 1.474 -1.639c 0 -0.891 -0.495 -1.353 -1.375 -1.353c -1.023 0 -1.683 0.473 -1.925 1.562c -0.143 0.044 -0.253 0.022 -0.363 -0.033c 0.044 -0.847 0.088 -1.133 0.22 -1.672c 0.693 0 1.001 -0.253 1.98 -0.253c 0.495 0 0.968 0.121 1.353 0.363c 0.638 0.396 1.034 1.067 1.034 1.771c 0 1.166 -0.88 1.683 -1.782 2.024c -0.66 0.242 -1.76 0.66 -1.76 1.584c 0 0.616 0.561 1.232 1.21 1.232c 1.067 0 1.408 -0.682 1.628 -1.408c 0.121 -0.022 0.264 -0.011 0.363 0.066c -0.044 0.528 -0.088 0.836 -0.198 1.419Z "/></symbol><symbol id="gBFE09989B12480F1B7796D69E0D7287C" overflow="visible"><path d="M 0 0m 4.246 1.023c -0.407 -0.418 -0.726 -0.594 -1.364 -0.594c -0.396 0 -0.858 0.231 -1.199 0.792c -0.22 0.363 -0.352 0.869 -0.352 1.507l 2.926 -0.022c 0.132 0 0.209 0.066 0.209 0.187c 0 0.924 -0.33 1.914 -1.859 1.914c -0.957 0 -2.2 -0.913 -2.2 -2.585c 0 -0.616 0.154 -1.21 0.517 -1.628c 0.374 -0.44 0.891 -0.704 1.683 -0.704c 0.836 0 1.43 0.385 1.87 0.957c -0.033 0.11 -0.099 0.165 -0.231 0.176Z m -2.882 2.079c 0.209 1.243 0.979 1.342 1.243 1.342c 0.418 0 0.913 -0.231 0.913 -1.155c 0 -0.099 -0.044 -0.154 -0.165 -0.154Z "/></symbol><symbol id="g14CB754CE297B694D18D364D9C1BAD84" overflow="visible"><path d="M 0 0m 3.091 3.971h -1.001v 1.98c 0 0.484 0.132 0.704 0.726 0.704h 0.825c 0.825 0 1.001 -0.44 1.243 -1.199c 0.132 -0.022 0.253 0 0.363 0.055c -0.055 0.451 -0.22 1.507 -0.242 1.595c 0 0.022 -0.011 0.033 -0.044 0.033c -0.187 -0.033 -0.275 -0.044 -0.539 -0.044h -2.805c -0.33 0 -0.979 0.011 -1.419 0.022c -0.066 -0.066 -0.066 -0.297 0 -0.363c 0.77 -0.033 0.957 -0.088 0.957 -1.001v -4.411c 0 -0.913 -0.187 -0.968 -0.957 -1.001c -0.066 -0.066 -0.066 -0.297 0 -0.363c 0.407 0.011 1.067 0.022 1.43 0.022h 2.365c 0.528 0 1.408 -0.022 1.408 -0.022c 0.154 0.55 0.319 1.276 0.407 1.837c -0.11 0.066 -0.242 0.088 -0.385 0.055c -0.22 -0.792 -0.605 -1.441 -1.441 -1.441h -1.276c -0.462 0 -0.616 0.176 -0.616 0.693v 2.431h 1.001c 0.935 0 0.968 -0.253 1.001 -0.748c 0.066 -0.066 0.297 -0.066 0.363 0c -0.011 0.286 -0.022 0.594 -0.022 0.968c 0 0.308 0.011 0.682 0.022 0.946c -0.066 0.066 -0.297 0.066 -0.363 0c -0.033 -0.605 -0.066 -0.748 -1.001 -0.748Z "/></symbol><symbol id="g4FC526A993AC97C2A7055B69F4E908C9" overflow="visible"><path d="M 0 0m 2.002 3.938c -0.253 0.374 -0.176 0.385 0.319 0.44c 0.066 0.066 0.066 0.297 0 0.363c -0.297 -0.011 -0.781 -0.022 -1.111 -0.022c -0.33 0 -0.66 0.011 -0.946 0.022c -0.066 -0.066 -0.066 -0.297 0 -0.363c 0.374 -0.033 0.682 -0.22 0.99 -0.671l 0.957 -1.397c 0.055 -0.077 0.055 -0.11 0.011 -0.165l -0.924 -1.188c -0.44 -0.561 -0.682 -0.594 -1.067 -0.616c -0.066 -0.066 -0.066 -0.297 0 -0.363c 0.22 0.011 0.462 0.022 0.792 0.022c 0.33 0 0.638 -0.011 0.924 -0.022c 0.066 0.066 0.066 0.297 0 0.363c -0.396 0.044 -0.484 0.088 -0.242 0.44l 0.693 1.001c 0.088 0.132 0.132 0.121 0.198 0.022l 0.638 -0.88c 0.385 -0.528 0.209 -0.55 -0.143 -0.583c -0.066 -0.066 -0.066 -0.297 0 -0.363c 0.33 0.011 0.693 0.022 1.089 0.022c 0.418 0 0.715 -0.011 0.979 -0.022c 0.066 0.066 0.066 0.297 0 0.363c -0.495 0.033 -0.66 0.066 -1.1 0.693l -0.99 1.397c -0.044 0.066 -0.055 0.099 0 0.165l 0.924 1.177c 0.407 0.517 0.671 0.572 1.067 0.605c 0.066 0.066 0.066 0.297 0 0.363c -0.22 -0.011 -0.473 -0.022 -0.803 -0.022c -0.33 0 -0.638 0.011 -0.924 0.022c -0.066 -0.066 -0.066 -0.297 0 -0.363c 0.407 -0.044 0.528 -0.077 0.264 -0.451l -0.715 -1.001c -0.077 -0.11 -0.121 -0.099 -0.209 0.022Z "/></symbol><symbol id="gD91D82170ED5F219BEA1B53E81DC19AF" overflow="visible"><path d="M 0 0m 1.936 3.938c -0.022 0.44 -0.033 0.726 -0.088 0.836c -0.022 0.055 -0.044 0.088 -0.132 0.088c -0.308 -0.121 -0.594 -0.22 -1.353 -0.319c -0.022 -0.066 0 -0.242 0.022 -0.308c 0.594 -0.055 0.715 -0.11 0.715 -0.748v -2.145c 0 -0.913 -0.132 -0.957 -0.814 -1.001c -0.066 -0.066 -0.066 -0.297 0 -0.363c 0.385 0.011 0.814 0.022 1.254 0.022c 0.44 0 0.946 -0.011 1.331 -0.022c 0.066 0.066 0.066 0.297 0 0.363c -0.77 0.055 -0.902 0.088 -0.902 1.001v 1.529c 0 0.286 0.132 0.539 0.264 0.737c 0.121 0.176 0.374 0.539 0.506 0.539c 0.099 0 0.198 -0.022 0.286 -0.143c 0.077 -0.11 0.209 -0.253 0.396 -0.253c 0.264 0 0.517 0.275 0.517 0.55c 0 0.209 -0.198 0.528 -0.66 0.528c -0.517 0 -0.968 -0.484 -1.221 -0.913c -0.066 -0.121 -0.121 -0.033 -0.121 0.022Z "/></symbol><symbol id="g3CE57ED74C3DBA63F54F2735C0855367" overflow="visible"><path d="M 0 0m 4.378 1.001c -0.044 0.099 -0.132 0.143 -0.231 0.154c -0.374 -0.484 -0.847 -0.726 -1.32 -0.726c -0.803 0 -1.474 0.814 -1.474 2.101c 0 1.21 0.528 1.936 1.254 1.936c 0.649 0 0.737 -0.385 0.781 -0.77c 0.033 -0.297 0.187 -0.396 0.418 -0.396c 0.231 0 0.539 0.143 0.539 0.484c 0 0.605 -0.627 1.045 -1.683 1.045c -1.089 0 -2.255 -0.979 -2.255 -2.541c 0 -1.419 0.792 -2.398 2.178 -2.398c 0.66 0 1.243 0.209 1.793 1.111Z "/></symbol><symbol id="gDD50B131DFBA2C7EA73123CA4C98C33" overflow="visible"><path d="M 0 0m 1.991 1.342v 2.189c 0 0.55 0.044 1.254 0.044 1.254c 0 0.044 -0.055 0.077 -0.143 0.077c -0.308 -0.121 -0.748 -0.22 -1.507 -0.319c -0.022 -0.066 0 -0.242 0.022 -0.308c 0.605 -0.055 0.715 -0.121 0.715 -0.748v -2.145c 0 -0.913 -0.121 -0.946 -0.792 -1.001c -0.066 -0.066 -0.066 -0.297 0 -0.363c 0.363 0.011 0.792 0.022 1.232 0.022c 0.44 0 0.858 -0.011 1.221 -0.022c 0.066 0.066 0.066 0.297 0 0.363c -0.671 0.044 -0.792 0.088 -0.792 1.001Z m -1.001 5.247c 0 -0.286 0.264 -0.572 0.528 -0.572c 0.308 0 0.572 0.297 0.572 0.528c 0 0.264 -0.231 0.572 -0.528 0.572c -0.264 0 -0.572 -0.264 -0.572 -0.528Z "/></symbol><symbol id="g4E5D026409004C23B788CF76C0C2AF69" overflow="visible"><path d="M 0 0m 0.528 1.518c 0.044 -0.539 0.077 -1.056 0.077 -1.518c 0.11 0.022 0.22 0.033 0.275 0.033c 0.077 0 0.143 0 0.22 -0.022c 0.297 -0.077 0.594 -0.121 1.001 -0.121c 0.616 0 1.749 0.297 1.749 1.386c 0 0.748 -0.539 1.188 -1.287 1.463c -0.66 0.253 -1.1 0.418 -1.1 1.023c 0 0.451 0.396 0.704 0.77 0.704c 0.242 0 0.88 -0.088 1.023 -1.023c 0.066 -0.066 0.286 -0.055 0.352 0.011c 0.033 0.396 0.055 0.803 0.066 1.166c -0.341 0.055 -0.869 0.209 -1.441 0.209c -0.814 0 -1.551 -0.528 -1.551 -1.232c 0 -0.803 0.363 -1.144 1.21 -1.496c 0.913 -0.374 1.122 -0.605 1.122 -1.078c 0 -0.539 -0.528 -0.77 -0.935 -0.77c -0.429 0 -0.671 0.143 -0.781 0.264c -0.242 0.253 -0.363 0.737 -0.429 1.012c -0.066 0.066 -0.275 0.055 -0.341 -0.011Z "/></symbol><symbol id="g38178746B45E40B27C1ECDAD3F62C0A9" overflow="visible"><path d="M 0 0m 3.168 1.342v 3.817c 0 0.66 0.011 1.331 0.033 1.474c 0 0.055 -0.022 0.055 -0.066 0.055c -0.605 -0.374 -1.188 -0.649 -2.156 -1.1c 0.022 -0.121 0.066 -0.231 0.165 -0.297c 0.506 0.209 0.748 0.275 0.957 0.275c 0.187 0 0.22 -0.264 0.22 -0.638v -3.586c 0 -0.913 -0.297 -0.968 -1.067 -1.001c -0.066 -0.066 -0.066 -0.297 0 -0.363c 0.539 0.011 0.935 0.022 1.529 0.022c 0.528 0 0.792 -0.011 1.342 -0.022c 0.066 0.066 0.066 0.297 0 0.363c -0.77 0.033 -0.957 0.088 -0.957 1.001Z "/></symbol><symbol id="g4C1ED41FE02ABB1BA3896D4213CC7460" overflow="visible"><path d="M 0 0m 0.627 0.473c 0 -0.319 0.264 -0.583 0.583 -0.583c 0.319 0 0.583 0.264 0.583 0.583c 0 0.319 -0.264 0.583 -0.583 0.583c -0.319 0 -0.583 -0.264 -0.583 -0.583Z "/></symbol><symbol id="gE3B2328C75ACE1D90CB96F5D0BC30712" overflow="visible"><path d="M 0 0m 3.553 4.015h -0.891v 2.079c 0 0.264 0.187 0.539 0.451 0.539h 0.935c 0.825 0 1.056 -0.418 1.298 -1.177c 0.132 -0.022 0.363 0 0.473 0.055c -0.055 0.451 -0.11 1.507 -0.132 1.595c 0 0.022 -0.011 0.033 -0.044 0.033c -0.187 -0.033 -0.275 -0.044 -0.539 -0.044h -3.245c 0 0 -1.144 0.011 -1.694 0.022c -0.066 -0.066 -0.066 -0.308 0 -0.374c 0.77 -0.033 0.957 -0.088 0.957 -1.001v -4.4c 0 -0.913 -0.187 -0.957 -0.957 -0.99c -0.066 -0.066 -0.066 -0.308 0 -0.374c 0.539 0.011 1.705 0.022 1.705 0.022h 2.585c 0.528 0 1.518 -0.022 1.518 -0.022c 0.154 0.55 0.209 1.276 0.297 1.837c -0.11 0.066 -0.352 0.088 -0.495 0.055c -0.22 -0.792 -0.715 -1.408 -1.551 -1.408h -1.111c -0.242 0 -0.451 0.231 -0.451 0.528v 2.519h 0.891c 0.759 0 0.968 -0.209 1.001 -0.704c 0.066 -0.066 0.407 -0.066 0.473 0c -0.011 0.385 -0.022 0.594 -0.022 0.968c 0 0.374 0.011 0.616 0.022 0.946c -0.066 0.066 -0.407 0.066 -0.473 0c -0.033 -0.605 -0.264 -0.704 -1.001 -0.704Z "/></symbol><symbol id="g31D79080895A54A2C03F3BFF9340AC07" overflow="visible"><path d="M 0 0m 2.013 0.803l 0.682 0.957c 0.044 0.055 0.077 0.088 0.11 0.033l 0.528 -1.001c 0.187 -0.352 0.077 -0.385 -0.308 -0.44c -0.066 -0.066 -0.066 -0.308 0 -0.374c 0.22 0.011 0.913 0.022 1.496 0.022c 0.572 0 1.254 -0.011 1.474 -0.022c 0.066 0.066 0.066 0.308 0 0.374c -0.407 0.066 -0.781 0.209 -1.133 0.737l -0.968 1.441c -0.055 0.088 -0.055 0.121 -0.022 0.165l 0.979 1.188c 0.308 0.374 0.704 0.506 1.045 0.539c 0.066 0.066 0.066 0.308 0 0.374c -0.22 -0.011 -0.561 -0.022 -0.924 -0.022c -0.429 0 -0.88 0.011 -1.1 0.022c -0.066 -0.066 -0.066 -0.308 0 -0.374c 0.396 -0.033 0.484 -0.154 0.264 -0.473l -0.594 -0.847c -0.033 -0.055 -0.088 -0.055 -0.132 0.022l -0.495 0.836c -0.231 0.396 -0.088 0.418 0.33 0.462c 0.066 0.066 0.066 0.308 0 0.374c -0.22 -0.011 -0.935 -0.022 -1.54 -0.022c -0.539 0 -1.166 0.011 -1.386 0.022c -0.066 -0.066 -0.066 -0.308 0 -0.374c 0.495 0 0.715 -0.297 1.023 -0.737l 0.979 -1.397c 0.033 -0.044 0.033 -0.088 -0.033 -0.165l -1.012 -1.254c -0.275 -0.352 -0.759 -0.473 -1.089 -0.517c -0.066 -0.066 -0.066 -0.308 0 -0.374c 0.22 0.011 0.561 0.022 0.913 0.022c 0.473 0 0.99 -0.011 1.21 -0.022c 0.066 0.066 0.066 0.308 0 0.374c -0.198 0.044 -0.539 0.11 -0.297 0.451Z "/></symbol><symbol id="gC14BE50F1468F5902AA9D472AD29244E" overflow="visible"><path d="M 0 0m 4.741 1.419c -0.451 -0.462 -1.045 -0.583 -1.463 -0.583c -0.858 0 -1.386 0.495 -1.386 1.573c 0 0.077 0.011 0.121 0.011 0.176h 2.64c 0.264 0 0.319 0.187 0.319 0.341c 0 0.935 -0.363 1.958 -1.98 1.958c -1.155 0 -2.475 -1.023 -2.475 -2.706c 0 -0.638 0.231 -1.309 0.704 -1.738c 0.418 -0.374 0.957 -0.55 1.738 -0.55c 0.759 0 1.507 0.385 2.057 1.188c 0 0.143 -0.055 0.341 -0.165 0.341Z m -2.794 1.606c 0.011 0.385 0.066 0.803 0.22 1.023c 0.176 0.264 0.473 0.374 0.594 0.374c 0.297 0 0.704 -0.286 0.704 -1.166c 0 -0.066 0 -0.209 -0.022 -0.231Z "/></symbol><symbol id="g47C477A4B9B11053B4775F3BF201C465" overflow="visible"><path d="M 0 0m 2.508 2.948c 0 0.396 0.121 0.561 0.264 0.726c 0.088 0.11 0.187 0.187 0.352 0.187c 0.099 0 0.22 -0.099 0.308 -0.209c 0.077 -0.088 0.264 -0.176 0.517 -0.176c 0.319 0 0.627 0.33 0.627 0.792c 0 0.286 -0.33 0.616 -0.726 0.616c -0.385 0 -0.803 -0.33 -1.309 -1.056h -0.044c -0.022 0.33 -0.077 0.869 -0.077 0.869c -0.011 0.099 -0.099 0.187 -0.253 0.187c -0.517 -0.132 -1.1 -0.286 -1.826 -0.363c -0.022 -0.066 0 -0.275 0.022 -0.341c 0.605 -0.055 0.715 -0.154 0.715 -0.781v -2.057c 0 -0.913 -0.121 -0.935 -0.792 -0.99c -0.066 -0.066 -0.066 -0.308 0 -0.374c 0.462 0.011 0.924 0.022 1.507 0.022c 0.583 0 1.034 -0.011 1.507 -0.022c 0.066 0.066 0.066 0.308 0 0.374c -0.671 0.044 -0.792 0.077 -0.792 0.99Z "/></symbol><symbol id="g91B01334F80632633C2B229D930B162" overflow="visible"><path d="M 0 0m 4.642 0.957c 0 0.132 -0.022 0.341 -0.143 0.341c -0.44 -0.407 -0.814 -0.616 -1.133 -0.616c -0.825 0 -1.474 0.594 -1.474 1.914c 0 1.221 0.275 1.826 0.858 1.826c 0.407 0 0.572 -0.429 0.605 -0.781c 0.033 -0.297 0.33 -0.517 0.682 -0.517c 0.352 0 0.605 0.275 0.605 0.616c 0 0.495 -0.594 1.144 -1.793 1.144c -1.298 0 -2.442 -1.045 -2.442 -2.673c 0 -0.715 0.253 -1.342 0.682 -1.749c 0.429 -0.407 0.935 -0.572 1.716 -0.572c 0.66 0 1.419 0.462 1.837 1.067Z "/></symbol><symbol id="g2D5B92E3E4024BC0BA8952CC9DC03EB3" overflow="visible"><path d="M 0 0m 2.552 1.342v 2.189c 0 0.55 0.044 1.166 0.044 1.166c 0 0.121 -0.099 0.187 -0.253 0.187c -0.308 -0.121 -1.199 -0.209 -1.958 -0.308c -0.022 -0.066 0 -0.286 0.022 -0.352c 0.605 -0.055 0.715 -0.143 0.715 -0.77v -2.112c 0 -0.913 -0.121 -0.935 -0.792 -0.99c -0.066 -0.066 -0.066 -0.308 0 -0.374c 0.462 0.011 0.924 0.022 1.507 0.022c 0.583 0 1.034 -0.011 1.507 -0.022c 0.066 0.066 0.066 0.308 0 0.374c -0.671 0.044 -0.792 0.077 -0.792 0.99Z m -1.485 5.214c 0 -0.363 0.264 -0.726 0.704 -0.726c 0.495 0 0.781 0.396 0.781 0.682c 0 0.33 -0.253 0.726 -0.715 0.726c -0.517 0 -0.77 -0.352 -0.77 -0.682Z "/></symbol><symbol id="gD2AA3B4ACBC41440BCB2A32823E63FB0" overflow="visible"><path d="M 0 0m 0.528 1.606c 0.044 -0.539 0.099 -1.056 0.187 -1.474c 0.209 -0.066 0.913 -0.242 1.529 -0.242c 0.847 0 1.903 0.462 1.903 1.419c 0 0.374 -0.088 0.671 -0.341 0.946c -0.308 0.352 -0.77 0.627 -1.276 0.847c -0.44 0.187 -0.594 0.539 -0.594 0.858c 0 0.253 0.209 0.462 0.528 0.462c 0.385 0 0.759 -0.352 1.034 -1.023c 0.198 -0.033 0.319 -0.022 0.429 0.055c 0 0.396 -0.044 0.814 -0.143 1.166c -0.352 0.154 -0.627 0.264 -1.232 0.264c -0.583 0 -1.133 -0.22 -1.485 -0.572c -0.253 -0.253 -0.374 -0.561 -0.374 -0.858c 0 -0.33 0.132 -0.594 0.341 -0.825c 0.341 -0.374 0.946 -0.759 1.276 -0.913c 0.44 -0.198 0.561 -0.594 0.561 -0.858c 0 -0.352 -0.352 -0.539 -0.649 -0.539c -0.495 0 -1.023 0.506 -1.254 1.309c -0.176 0.033 -0.264 0.022 -0.44 -0.022Z "/></symbol><symbol id="gD67E39117C46D5D7F0BCA6C694099DA2" overflow="visible"><path d="M 0 0m 4.037 1.342v 3.971c 0 0.583 0.088 1.21 0.088 1.21c 0 0.143 -0.088 0.187 -0.187 0.187c -0.11 0 -0.297 -0.044 -0.55 -0.165c -0.671 -0.308 -1.419 -0.572 -2.376 -0.968c 0.011 -0.187 0.088 -0.363 0.242 -0.473c 0.594 0.253 0.99 0.275 1.144 0.275c 0.143 0 0.209 -0.044 0.209 -0.594v -3.443c 0 -0.913 -0.528 -0.957 -1.133 -0.99c -0.11 -0.066 -0.11 -0.308 0 -0.374c 0.902 0.011 1.419 0.022 1.859 0.022c 0.44 0 0.935 -0.011 1.837 -0.022c 0.11 0.066 0.11 0.308 0 0.374c -0.605 0.033 -1.133 0.077 -1.133 0.99Z "/></symbol><symbol id="gBEC4FA6960B1D9FF0F7FEE7720207F05" overflow="visible"><path d="M 0 0m 0.539 0.638c 0 -0.418 0.352 -0.748 0.792 -0.748c 0.44 0 0.814 0.352 0.814 0.77c 0 0.429 -0.352 0.759 -0.792 0.759c -0.44 0 -0.814 -0.352 -0.814 -0.781Z "/></symbol><symbol id="gA583550D4A9AF5E4B050D091A0D6D555" overflow="visible"><path d="M 0 0m 0.484 2.772c 0 -0.495 0.044 -3.036 2.332 -5.016c 0.11 0.022 0.198 0.099 0.231 0.187c -0.363 0.418 -1.65 1.936 -1.65 4.829c 0 2.893 1.298 4.411 1.65 4.807c -0.033 0.11 -0.11 0.187 -0.231 0.198c -1.309 -1.122 -2.332 -2.959 -2.332 -5.005Z "/></symbol><symbol id="g3BC6300649CA32A3B6F5E66435D77781" overflow="visible"><path d="M 0 0m 3.113 3.553c 0.935 0 0.968 -0.253 1.001 -0.748c 0.066 -0.066 0.297 -0.066 0.363 0c -0.011 0.275 -0.022 0.594 -0.022 0.968c 0 0.374 0.011 0.66 0.022 0.946c -0.066 0.066 -0.297 0.066 -0.363 0c -0.033 -0.605 -0.066 -0.748 -1.001 -0.748h -1.023v 1.98c 0 0.594 0.132 0.704 0.616 0.704h 0.495c 1.166 0 1.441 -0.44 1.683 -1.199c 0.132 0 0.253 0.022 0.341 0.055c -0.055 0.451 -0.22 1.507 -0.242 1.595c 0 0.022 -0.011 0.033 -0.044 0.033c -0.187 -0.033 -0.242 -0.044 -0.517 -0.044h -2.805c -0.352 0 -0.979 0.011 -1.419 0.022c -0.066 -0.066 -0.066 -0.297 0 -0.363c 0.77 -0.033 0.957 -0.088 0.957 -1.001v -4.411c 0 -0.913 -0.187 -0.968 -0.957 -1.001c -0.066 -0.066 -0.066 -0.297 0 -0.363c 0.385 0.011 0.935 0.022 1.43 0.022c 0.495 0 1.034 -0.011 1.419 -0.022c 0.066 0.066 0.066 0.297 0 0.363c -0.77 0.033 -0.957 0.088 -0.957 1.001v 2.211Z "/></symbol><symbol id="gF9510C9866DCA99AFC3FC8A8DB318BDC" overflow="visible"><path d="M 0 0m 1.87 3.938c -0.011 0.33 -0.033 0.726 -0.088 0.836c -0.022 0.055 -0.044 0.088 -0.132 0.088c -0.308 -0.121 -0.594 -0.22 -1.353 -0.319c -0.022 -0.066 0 -0.242 0.022 -0.308c 0.594 -0.055 0.715 -0.11 0.715 -0.748v -2.145c 0 -0.902 -0.143 -0.957 -0.748 -1.001c -0.066 -0.066 -0.066 -0.297 0 -0.363c 0.33 0.011 0.748 0.022 1.188 0.022c 0.44 0 0.781 -0.011 1.111 -0.022c 0.066 0.066 0.066 0.297 0 0.363c -0.561 0.055 -0.682 0.099 -0.682 1.001v 1.804c 0 0.231 0.099 0.363 0.187 0.462c 0.44 0.429 0.847 0.649 1.188 0.649c 0.418 0 0.726 -0.264 0.726 -1.001v -1.914c 0 -0.902 -0.088 -0.957 -0.682 -1.001c -0.055 -0.066 -0.055 -0.297 0 -0.363c 0.275 0.011 0.682 0.022 1.122 0.022c 0.44 0 0.803 -0.011 1.078 -0.022c 0.055 0.066 0.055 0.297 0 0.363c -0.55 0.044 -0.649 0.099 -0.649 1.001v 1.749c 0 0.154 0 0.308 -0.011 0.44c 0.528 0.583 1.023 0.726 1.452 0.726c 0.418 0 0.66 -0.242 0.66 -0.979v -1.936c 0 -0.902 -0.11 -0.957 -0.682 -1.001c -0.055 -0.066 -0.055 -0.297 0 -0.363c 0.275 0.011 0.682 0.022 1.122 0.022c 0.44 0 0.825 -0.011 1.133 -0.022c 0.055 0.066 0.055 0.297 0 0.363c -0.605 0.044 -0.704 0.099 -0.704 1.001v 1.738c 0 0.979 -0.165 1.749 -1.133 1.749c -0.561 0 -1.243 -0.209 -1.815 -0.814c -0.033 -0.033 -0.099 -0.088 -0.121 0.011c -0.099 0.451 -0.528 0.803 -1.1 0.803c -0.638 0 -1.21 -0.374 -1.672 -0.891c -0.055 -0.055 -0.121 -0.132 -0.132 0Z "/></symbol><symbol id="g9787446D80B11CDE2529516BF2D1ACCA" overflow="visible"><path d="M 0 0m 3.223 0.528c 0.066 -0.341 0.187 -0.638 0.737 -0.638c 0.418 0 0.814 0.187 1.045 0.407c -0.022 0.132 -0.066 0.231 -0.187 0.297c -0.077 -0.066 -0.264 -0.176 -0.407 -0.176c -0.319 0 -0.33 0.429 -0.33 0.935v 1.617c 0 1.562 -0.858 1.859 -1.661 1.859c -0.902 0 -1.815 -0.594 -1.815 -1.221c 0 -0.264 0.132 -0.396 0.385 -0.396c 0.319 0 0.517 0.231 0.517 0.374c 0 0.077 -0.011 0.154 -0.033 0.198c -0.011 0.033 -0.022 0.099 -0.022 0.22c 0 0.341 0.462 0.462 0.88 0.462c 0.374 0 0.891 -0.187 0.891 -1.43c 0 -0.077 -0.033 -0.121 -0.066 -0.132l -0.946 -0.231c -1.056 -0.264 -1.815 -0.847 -1.815 -1.595c 0 -0.902 0.616 -1.188 1.386 -1.188c 0.385 0 0.715 0.088 1.199 0.462l 0.22 0.176Z m 0 2.035v -1.452c 0 -0.143 -0.066 -0.22 -0.154 -0.286c -0.286 -0.231 -0.66 -0.484 -0.968 -0.484c -0.55 0 -0.792 0.44 -0.792 0.781c 0 0.495 0.231 1.001 1.045 1.21Z "/></symbol><symbol id="gB38329E71763B8BD4CF776D24C5AFFE1" overflow="visible"><path d="M 0 0m 0.473 4.719c -0.154 0 -0.198 -0.132 -0.198 -0.22v -0.143c 0 -0.055 0.011 -0.066 0.055 -0.066h 0.649v -3.311c 0 -0.781 0.341 -1.089 0.847 -1.089c 0.506 0 1.056 0.242 1.485 0.726c -0.022 0.11 -0.088 0.176 -0.198 0.187c -0.286 -0.22 -0.616 -0.308 -0.902 -0.308c -0.297 0 -0.363 0.33 -0.363 1.012v 2.783h 1.144c 0.11 0 0.264 0.044 0.264 0.143v 0.22c 0 0.044 -0.033 0.066 -0.088 0.066h -1.32v 0.429c 0 0.715 0.044 1.155 0.044 1.155c 0 0.066 -0.033 0.099 -0.088 0.099c -0.044 0 -0.143 -0.044 -0.242 -0.099c -0.121 -0.066 -0.231 -0.121 -0.374 -0.154c -0.132 -0.044 -0.242 -0.077 -0.242 -0.154c 0 -0.132 0.033 -0.055 0.033 -1.276Z "/></symbol><symbol id="gB9DC4B1E70B7779F66D7CC9B775B364E" overflow="visible"><path d="M 0 0m 1.419 7.678c -0.341 0 -0.583 -0.231 -0.583 -0.539c 0 -0.341 0.286 -0.451 0.484 -0.484c 0.209 -0.022 0.396 -0.088 0.396 -0.341c 0 -0.231 -0.396 -0.737 -0.968 -0.88c 0 -0.11 0.022 -0.187 0.099 -0.264c 0.66 0.121 1.298 0.649 1.298 1.419c 0 0.66 -0.286 1.089 -0.726 1.089Z "/></symbol><symbol id="gDAEF01F2D8957876B63D52895EE853E4" overflow="visible"><path d="M 0 0m 1.639 0h 2.343c 0.297 0 1.309 -0.022 1.309 -0.022c 0.11 0.55 0.22 1.265 0.286 1.837c -0.11 0.055 -0.231 0.077 -0.363 0.055c -0.22 -0.792 -0.627 -1.441 -1.793 -1.441h -0.693c -0.429 0 -0.627 0.209 -0.627 0.77v 4.554c 0 0.913 0.187 0.968 0.957 1.001c 0.066 0.066 0.066 0.297 0 0.363c -0.495 -0.011 -1.012 -0.022 -1.43 -0.022c -0.396 0 -0.913 0.011 -1.419 0.022c -0.066 -0.066 -0.066 -0.297 0 -0.363c 0.77 -0.033 0.957 -0.088 0.957 -1.001v -4.411c 0 -0.913 -0.187 -0.968 -0.957 -1.001c -0.066 -0.066 -0.066 -0.297 0 -0.363c 0.429 0.011 1.056 0.022 1.43 0.022Z "/></symbol><symbol id="g6553513FE64203BDE37F7BF6C55D1886" overflow="visible"><path d="M 0 0m 3.85 1.342v 4.202c 0 0.704 0.11 1.122 0.506 1.122h 0.242c 0.825 0 1.342 -0.286 1.529 -1.133c 0.121 0 0.275 0.011 0.374 0.055c -0.077 0.506 -0.132 1.067 -0.143 1.562c 0 0.011 -0.022 0.033 -0.033 0.033c -0.374 -0.033 -1.595 -0.088 -2.464 -0.088h -0.946c -0.847 0 -2.145 0.055 -2.563 0.088c -0.022 0 -0.044 -0.022 -0.044 -0.033c -0.044 -0.495 -0.154 -1.067 -0.275 -1.595c 0.11 -0.044 0.242 -0.055 0.374 -0.055c 0.22 0.88 0.726 1.166 1.452 1.166h 0.539c 0.407 0 0.517 -0.418 0.517 -1.089v -4.235c 0 -0.913 -0.187 -0.968 -1.067 -1.001c -0.066 -0.066 -0.066 -0.297 0 -0.363c 0.539 0.011 1.1 0.022 1.54 0.022c 0.418 0 0.979 -0.011 1.529 -0.022c 0.066 0.066 0.066 0.297 0 0.363c -0.88 0.033 -1.067 0.088 -1.067 1.001Z "/></symbol><symbol id="g525D29E90AD4E5DCC336104F62B1760B" overflow="visible"><path d="M 0 0m 1.837 3.146c 0 0.231 0.099 0.363 0.187 0.462c 0.418 0.407 0.979 0.649 1.408 0.649c 0.22 0 0.451 -0.143 0.583 -0.396c 0.11 -0.22 0.132 -0.517 0.132 -0.847v -1.672c 0 -0.902 -0.11 -0.946 -0.682 -1.001c -0.055 -0.066 -0.055 -0.297 0 -0.363c 0.308 0.011 0.682 0.022 1.122 0.022c 0.44 0 0.803 -0.011 1.166 -0.022c 0.055 0.066 0.055 0.297 0 0.363c -0.616 0.055 -0.737 0.099 -0.737 1.001v 1.639c 0 0.605 -0.044 1.144 -0.297 1.474c -0.187 0.242 -0.528 0.374 -0.913 0.374c -0.539 0 -1.199 -0.143 -1.87 -0.891c 0 -0.011 -0.011 -0.011 -0.022 -0.022c -0.033 -0.044 -0.088 -0.11 -0.088 0.022l 0.011 2.475c 0 0.715 0.044 1.155 0.044 1.155c 0 0.077 -0.044 0.11 -0.143 0.11c -0.275 -0.11 -1.1 -0.264 -1.54 -0.297c -0.022 -0.088 0 -0.264 0.066 -0.33c 0.033 0 0.066 0 0.099 0c 0.484 -0.033 0.605 -0.033 0.605 -0.902v -4.807c 0 -0.913 -0.132 -0.957 -0.77 -1.001c -0.066 -0.066 -0.066 -0.297 0 -0.363c 0.363 0.011 0.77 0.022 1.21 0.022c 0.418 0 0.781 -0.011 1.089 -0.022c 0.066 0.066 0.066 0.297 0 0.363c -0.561 0.044 -0.66 0.088 -0.66 1.001Z "/></symbol><symbol id="g5E76F8DBE7C3C7A9A461E8EC1D70F6FB" overflow="visible"><path d="M 0 0m 0.451 2.255c 0 -1.122 0.748 -2.365 2.31 -2.365c 0.704 0 1.243 0.253 1.617 0.616c 0.495 0.484 0.715 1.177 0.715 1.848c 0 1.144 -0.627 2.475 -2.31 2.475c -0.726 0 -1.32 -0.297 -1.727 -0.77c -0.396 -0.473 -0.605 -1.111 -0.605 -1.804Z m 2.167 2.189c 0.946 0 1.529 -0.858 1.529 -2.442c 0 -1.386 -0.715 -1.727 -1.232 -1.727c -1.144 0 -1.518 1.386 -1.518 2.233c 0 0.957 0.231 1.936 1.221 1.936Z "/></symbol><symbol id="gEC09E6B8EA933E4C3BF631014D088804" overflow="visible"><path d="M 0 0m 2.794 2.772c 0 0.495 -0.044 3.036 -2.332 5.016c -0.11 -0.022 -0.198 -0.099 -0.231 -0.187c 0.363 -0.418 1.65 -1.936 1.65 -4.829c 0 -2.893 -1.298 -4.411 -1.65 -4.807c 0.033 -0.11 0.11 -0.187 0.231 -0.198c 1.309 1.122 2.332 2.959 2.332 5.005Z "/></symbol><symbol id="g5D279FAE8446F75B298AD3FAD5B8DC82" overflow="visible"><path d="M 0 0m 1.144 5.753v -4.411c 0 -0.913 -0.187 -0.968 -0.957 -1.001c -0.066 -0.066 -0.066 -0.297 0 -0.363c 0.495 0.011 1.034 0.022 1.43 0.022c 0.385 0 1.034 -0.011 1.584 -0.022c 0.066 0.066 0.066 0.297 0 0.363c -0.858 0.044 -1.122 0.088 -1.122 1.001v 1.87c 0.242 -0.077 0.506 -0.11 0.891 -0.11c 2.002 0 2.607 1.309 2.607 2.244c 0 0.649 -0.429 1.826 -2.464 1.826c -0.418 0 -1.067 -0.077 -1.507 -0.077c -0.407 0 -0.979 0.011 -1.419 0.022c -0.066 -0.066 -0.066 -0.297 0 -0.363c 0.77 -0.033 0.957 -0.088 0.957 -1.001Z m 0.935 0.341c 0 0.319 0.165 0.704 0.957 0.704c 0.759 0 1.518 -0.253 1.518 -1.65c 0 -1.188 -0.572 -1.672 -1.639 -1.672c -0.275 0 -0.715 0.022 -0.836 0.055Z "/></symbol><symbol id="g1E471D2E98C4E85A3CE47F56E86025C4" overflow="visible"><path d="M 0 0m 3.575 4.378c 0.594 -0.044 0.66 -0.176 0.429 -0.737l -0.891 -2.156c -0.176 -0.429 -0.231 -0.429 -0.407 0.033l -0.792 2.123c -0.198 0.528 -0.242 0.66 0.341 0.737c 0.066 0.066 0.066 0.297 0 0.363c -0.363 -0.011 -0.748 -0.022 -1.111 -0.022c -0.363 0 -0.693 0.011 -1.023 0.022c -0.066 -0.066 -0.066 -0.297 0 -0.363c 0.583 -0.066 0.66 -0.242 0.88 -0.803l 1.408 -3.476c 0.066 -0.165 0.132 -0.231 0.275 -0.231c 0.11 0 0.187 0.066 0.264 0.253l 1.463 3.443c 0.209 0.484 0.33 0.759 0.946 0.814c 0.066 0.066 0.066 0.297 0 0.363c -0.22 -0.011 -0.484 -0.022 -0.77 -0.022c -0.363 0 -0.737 0.011 -1.012 0.022c -0.066 -0.066 -0.066 -0.297 0 -0.363Z "/></symbol><symbol id="gAD68FEA307F3714AA7A4971A05BB9F08" overflow="visible"><path d="M 0 0m 5.797 4.103c 0 0.506 -0.495 0.759 -1.045 0.759c -0.473 0 -0.847 -0.253 -1.133 -0.759c -0.231 0.506 -0.616 0.759 -1.177 0.759c -0.539 0 -0.979 -0.253 -1.331 -0.748c -0.297 -0.429 -0.451 -0.748 -0.451 -0.957c 0 -0.099 0.055 -0.154 0.165 -0.154c 0.099 0 0.165 0.055 0.187 0.154c 0.209 0.638 0.671 1.386 1.408 1.386c 0.363 0 0.539 -0.231 0.539 -0.682c 0 -0.231 -0.198 -1.089 -0.583 -2.563c -0.187 -0.737 -0.517 -1.1 -0.99 -1.1c -0.154 0 -0.297 0.033 -0.418 0.088c 0.286 0.11 0.429 0.308 0.429 0.594c 0 0.286 -0.143 0.429 -0.44 0.429c -0.363 0 -0.638 -0.308 -0.638 -0.671c 0 -0.506 0.517 -0.759 1.056 -0.759c 0.462 0 0.836 0.253 1.133 0.759c 0.209 -0.506 0.605 -0.759 1.177 -0.759c 0.528 0 0.968 0.253 1.32 0.748c 0.297 0.429 0.451 0.748 0.451 0.957c 0 0.099 -0.055 0.154 -0.165 0.154c -0.099 0 -0.154 -0.055 -0.187 -0.154c -0.187 -0.627 -0.682 -1.386 -1.397 -1.386c -0.363 0 -0.55 0.22 -0.55 0.671c 0 0.143 0.055 0.451 0.176 0.946l 0.374 1.485c 0.209 0.825 0.55 1.243 1.034 1.243c 0.154 0 0.297 -0.033 0.418 -0.088c -0.297 -0.099 -0.44 -0.297 -0.44 -0.594c 0 -0.286 0.154 -0.429 0.451 -0.429c 0.352 0 0.627 0.319 0.627 0.671Z "/></symbol><symbol id="g762C2B488963F19620BDFDE6014862BF" overflow="visible"><path d="M 0 0m 1.2628 3.3957c -0.2541 0 -0.462 -0.1386 -0.6237 -0.4235c -0.1078 -0.1925 -0.1925 -0.3927 -0.2464 -0.616c -0.0231 -0.0847 -0.0308 -0.1309 -0.0308 -0.1463c 0 -0.0847 0.0539 -0.1309 0.1617 -0.1309c 0.1463 0 0.154 0.0847 0.1925 0.2464c 0.1309 0.5313 0.308 0.8008 0.5313 0.8008c 0.1463 0 0.2156 -0.1155 0.2156 -0.3465c 0 -0.0847 -0.0385 -0.2849 -0.1232 -0.616l -0.4081 -1.6478c -0.0539 -0.2079 -0.077 -0.3157 -0.077 -0.3234c 0 -0.1771 0.1001 -0.2695 0.2926 -0.2695c 0.1463 0 0.2541 0.0616 0.3234 0.1848c 0.0231 0.0462 0.0693 0.2079 0.1386 0.4774l 0.1617 0.6776c 0.0924 0.3619 0.1463 0.5621 0.1617 0.6083c 0.0616 0.2002 0.154 0.3927 0.2849 0.5698c 0.3234 0.4543 0.693 0.6853 1.1165 0.6853c 0.2772 0 0.4158 -0.1694 0.4158 -0.5005c 0 -0.3003 -0.1463 -0.8316 -0.4466 -1.6016c -0.077 -0.2002 -0.1155 -0.3388 -0.1155 -0.4235c 0 -0.4158 0.3388 -0.6776 0.7546 -0.6776c 0.3619 0 0.6545 0.1848 0.8624 0.5544c 0.1771 0.3157 0.2618 0.5236 0.2618 0.6314c 0 0.0847 -0.0539 0.1309 -0.154 0.1309c -0.0539 -0.0077 -0.1078 -0.0462 -0.1617 -0.1232c -0.0077 -0.0077 -0.0077 -0.0231 -0.0077 -0.0308c -0.1771 -0.5929 -0.4389 -0.8932 -0.7777 -0.8932c -0.1078 0 -0.1617 0.077 -0.1617 0.2387c 0 0.1078 0.0616 0.308 0.1771 0.6006c 0.2695 0.6853 0.4004 1.1781 0.4004 1.4707c 0 0.3542 -0.1232 0.6006 -0.3619 0.7315c -0.1925 0.1078 -0.4158 0.1617 -0.6545 0.1617c -0.5005 0 -0.924 -0.2156 -1.2628 -0.6468c -0.0693 0.3773 -0.4004 0.6468 -0.8393 0.6468Z "/></symbol><symbol id="gE81B0ECA098F8EC5798C0696251FF32B" overflow="visible"><path d="M 0 0m 7.678 3.014h -3.135v 3.135c 0 0.176 -0.088 0.264 -0.264 0.264c -0.176 0 -0.264 -0.088 -0.264 -0.264v -3.135h -3.135c -0.176 0 -0.264 -0.088 -0.264 -0.264c 0 -0.176 0.088 -0.264 0.264 -0.264h 3.135v -3.135c 0 -0.176 0.088 -0.264 0.264 -0.264c 0.176 0 0.264 0.088 0.264 0.264v 3.135h 3.135c 0.176 0 0.264 0.088 0.264 0.264c 0 0.143 -0.121 0.264 -0.264 0.264Z "/></symbol><symbol id="g2EA9A9B4B73FFBAC53D252108C26B78B" overflow="visible"><path d="M 0 0m 1.793 4.862c -0.495 0 -0.88 -0.275 -1.155 -0.825c -0.209 -0.429 -0.319 -0.726 -0.319 -0.891c 0 -0.099 0.055 -0.154 0.176 -0.154c 0.154 0 0.165 0.066 0.209 0.231c 0.253 0.869 0.605 1.309 1.056 1.309c 0.143 0 0.22 -0.099 0.22 -0.297c 0 -0.176 -0.055 -0.429 -0.176 -0.748c -0.418 -1.133 -0.627 -1.892 -0.627 -2.299c 0 -0.836 0.517 -1.331 1.364 -1.331c 0.363 0 0.704 0.132 1.012 0.396c -0.385 -1.452 -0.99 -2.178 -1.815 -2.178c -0.374 0 -0.627 0.121 -0.759 0.363c 0.44 0.022 0.66 0.231 0.66 0.627c 0 0.275 -0.143 0.418 -0.44 0.418c -0.407 0 -0.649 -0.341 -0.649 -0.748c 0 -0.605 0.55 -0.99 1.188 -0.99c 1.265 0 2.299 1.166 2.574 2.244l 1.034 4.158c 0.033 0.121 0.044 0.209 0.044 0.264c 0 0.22 -0.121 0.33 -0.352 0.33c -0.176 0 -0.319 -0.088 -0.418 -0.253c -0.066 -0.231 -0.121 -0.429 -0.154 -0.594l -0.704 -2.827c -0.11 -0.396 -0.693 -0.891 -1.188 -0.891c -0.418 0 -0.627 0.275 -0.627 0.836c 0 0.462 0.187 1.166 0.55 2.112c 0.143 0.385 0.22 0.649 0.22 0.803c 0 0.539 -0.385 0.935 -0.924 0.935Z "/></symbol><symbol id="gAB7BA41276115F79AA822638BC19E937" overflow="visible"><path d="M 0 0m 7.678 4.037h -6.798c -0.176 0 -0.264 -0.088 -0.264 -0.253c 0 -0.165 0.088 -0.253 0.264 -0.253h 6.798c 0.176 0 0.264 0.088 0.264 0.253c 0 0.132 -0.121 0.253 -0.264 0.253Z m 0 -2.068h -6.798c -0.176 0 -0.264 -0.088 -0.264 -0.253c 0 -0.165 0.088 -0.253 0.264 -0.253h 6.798c 0.176 0 0.264 0.088 0.264 0.253c 0 0.143 -0.121 0.253 -0.264 0.253Z "/></symbol><symbol id="g5B1C3E8B3F3A864C0BFE9DA43D9BA9F0" overflow="visible"><path d="M 0 0m 1.782 1.012l -0.187 -0.022c 0.528 0.517 0.935 0.891 1.21 1.144l 1.056 0.979c 0.253 0.231 0.517 0.517 0.77 0.836c 0.341 0.418 0.506 0.671 0.506 0.759c 0 0.099 -0.055 0.154 -0.165 0.154c -0.077 0 -0.143 -0.044 -0.198 -0.143c -0.275 -0.451 -0.528 -0.671 -0.77 -0.671c -0.242 0 -0.418 0.198 -0.517 0.33c -0.264 0.319 -0.528 0.484 -0.781 0.484c -0.286 0 -0.583 -0.132 -0.891 -0.418c -0.308 -0.286 -0.462 -0.572 -0.462 -0.858c 0 -0.11 0.055 -0.165 0.176 -0.165c 0.077 0 0.143 0.055 0.187 0.154c 0.121 0.319 0.418 0.473 0.869 0.473c 0.154 0 0.374 -0.055 0.671 -0.154c 0.264 -0.099 0.517 -0.154 0.748 -0.165c -0.616 -0.605 -1.089 -1.045 -1.43 -1.342l -0.979 -0.913c -0.165 -0.165 -0.374 -0.385 -0.605 -0.66c -0.341 -0.429 -0.517 -0.682 -0.517 -0.781c 0 -0.099 0.055 -0.154 0.176 -0.154c 0.066 0 0.132 0.055 0.209 0.165c 0.275 0.429 0.572 0.649 0.88 0.649c 0.176 0 0.374 -0.132 0.594 -0.407c 0.22 -0.275 0.473 -0.407 0.726 -0.407c 0.374 0 0.748 0.198 1.144 0.583c 0.396 0.385 0.594 0.759 0.594 1.122c 0 0.099 -0.055 0.154 -0.176 0.154c -0.077 0 -0.143 -0.055 -0.198 -0.165c -0.165 -0.473 -0.638 -0.88 -1.254 -0.88c -0.264 0 -1.122 0.319 -1.386 0.319Z "/></symbol><symbol id="g85F2EE8B895E97692CFADEC6255BB859" overflow="visible"><path d="M 0 0m 1.144 1.045c -0.341 0 -0.583 -0.231 -0.583 -0.539c 0 -0.341 0.286 -0.451 0.484 -0.484c 0.209 -0.022 0.396 -0.088 0.396 -0.341c 0 -0.231 -0.396 -0.737 -0.968 -0.88c 0 -0.11 0.022 -0.187 0.099 -0.264c 0.66 0.121 1.298 0.649 1.298 1.419c 0 0.66 -0.286 1.089 -0.726 1.089Z "/></symbol><symbol id="g162FFC49A5D51E5E20A023FB65F6BB60" overflow="visible"><path d="M 0 0m 2.233 4.378c 0.066 0.066 0.066 0.297 0 0.363c -0.33 -0.011 -0.715 -0.022 -1.111 -0.022c -0.418 0 -0.715 0.011 -1.001 0.022c -0.066 -0.066 -0.066 -0.297 0 -0.363c 0.517 -0.055 0.638 -0.165 0.869 -0.737l 1.441 -3.553c 0.066 -0.154 0.154 -0.22 0.264 -0.22c 0.099 0 0.187 0.066 0.264 0.242l 1.111 2.706l 1.133 -2.728c 0.066 -0.154 0.154 -0.22 0.264 -0.22c 0.099 0 0.187 0.066 0.253 0.231l 1.441 3.487c 0.176 0.451 0.363 0.759 0.924 0.792c 0.066 0.066 0.066 0.297 0 0.363c -0.22 -0.011 -0.462 -0.022 -0.792 -0.022c -0.33 0 -0.792 0.011 -1.122 0.022c -0.066 -0.066 -0.066 -0.297 0 -0.363c 0.825 -0.044 0.715 -0.363 0.561 -0.748l -0.924 -2.288c -0.11 -0.275 -0.154 -0.275 -0.242 -0.044l -0.946 2.409c -0.209 0.517 -0.187 0.627 0.396 0.671c 0.066 0.066 0.066 0.297 0 0.363c -0.33 -0.011 -0.77 -0.022 -1.1 -0.022c -0.275 0 -0.638 0.011 -0.968 0.022c -0.066 -0.066 -0.066 -0.297 0 -0.363c 0.517 -0.044 0.649 -0.363 0.847 -0.858l 0.066 -0.176l -0.77 -1.947c -0.143 -0.363 -0.165 -0.374 -0.308 -0.022l -0.88 2.266c -0.209 0.528 -0.198 0.704 0.33 0.737Z "/></symbol><symbol id="g2B0146345296F240F86CB4E1CE7A9433" overflow="visible"><path d="M 0 0m 5.907 1.507c -0.253 -0.869 -0.616 -1.309 -1.067 -1.309c -0.143 0 -0.22 0.11 -0.22 0.319c 0 0.154 0.066 0.407 0.198 0.748c 0.44 1.199 0.66 1.991 0.66 2.398c 0 0.77 -0.517 1.199 -1.287 1.199c -0.649 0 -1.21 -0.286 -1.661 -0.869c -0.088 0.484 -0.473 0.869 -1.034 0.869c -0.616 0 -0.858 -0.572 -1.012 -1.067c -0.11 -0.352 -0.165 -0.561 -0.165 -0.638c 0 -0.099 0.055 -0.154 0.176 -0.154c 0.055 0 0.088 0.011 0.121 0.033c 0.055 0.099 0.088 0.176 0.099 0.253c 0.198 0.836 0.451 1.254 0.748 1.254c 0.198 0 0.297 -0.154 0.297 -0.462c 0 -0.143 -0.055 -0.44 -0.176 -0.891l -0.627 -2.497c -0.033 -0.143 -0.099 -0.429 -0.099 -0.484c 0 -0.22 0.121 -0.33 0.363 -0.33c 0.209 0 0.363 0.11 0.44 0.33c 0.022 0.055 0.088 0.33 0.209 0.803l 0.231 0.979l 0.33 1.254c 0.121 0.253 0.308 0.506 0.539 0.77c 0.319 0.352 0.715 0.528 1.188 0.528c 0.363 0 0.539 -0.242 0.539 -0.715c 0 -0.418 -0.231 -1.254 -0.704 -2.508c -0.077 -0.198 -0.11 -0.363 -0.11 -0.506c 0 -0.539 0.407 -0.935 0.935 -0.935c 0.484 0 0.869 0.275 1.144 0.825c 0.209 0.44 0.319 0.737 0.319 0.88c 0 0.099 -0.055 0.154 -0.176 0.154c -0.033 0 -0.198 -0.099 -0.198 -0.231Z "/></symbol><symbol id="gB0C9E69BC65C8148402011051E029BAD" overflow="visible"><path d="M 0 0m 7.524 3.41c 0.11 0.055 0.165 0.132 0.165 0.253c 0 0.121 -0.055 0.209 -0.165 0.264l -6.314 2.992c -0.033 0.011 -0.077 0.022 -0.121 0.022c -0.176 0 -0.264 -0.088 -0.264 -0.275c 0 -0.099 0.055 -0.176 0.154 -0.22l 5.874 -2.783l -5.874 -2.783c -0.099 -0.044 -0.154 -0.121 -0.154 -0.22c 0 -0.187 0.088 -0.275 0.264 -0.275c 0.044 0 0.088 0.011 0.121 0.033Z m -0.066 -4.202h -6.358c -0.176 0 -0.264 -0.088 -0.264 -0.253c 0 -0.176 0.088 -0.264 0.264 -0.264h 6.358c 0.176 0 0.264 0.088 0.264 0.264c 0 0.132 -0.121 0.253 -0.264 0.253Z "/></symbol><symbol id="gA2B1395F7EE990BA3E0C8AED043208DD" overflow="visible"><path d="M 0 0m 3.333 3.883c 0.726 0.275 1.408 0.968 1.408 1.903c 0 0.473 -0.231 0.858 -0.682 1.155c -0.396 0.253 -0.847 0.385 -1.353 0.385c -0.495 0 -0.924 -0.132 -1.309 -0.385c -0.429 -0.286 -0.649 -0.66 -0.649 -1.133c 0 -0.363 0.242 -0.616 0.594 -0.616c 0.352 0 0.594 0.253 0.594 0.605c 0 0.363 -0.209 0.561 -0.627 0.583c 0.286 0.385 0.737 0.583 1.353 0.583c 0.66 0 0.99 -0.385 0.99 -1.166c 0 -0.462 -0.088 -0.847 -0.253 -1.166c -0.297 -0.528 -0.704 -0.627 -1.386 -0.627c -0.132 -0.022 -0.198 -0.077 -0.198 -0.176c 0 -0.165 0.077 -0.165 0.297 -0.165h 0.473c 0.825 0 1.243 -0.583 1.243 -1.76c 0 -0.935 -0.341 -1.749 -1.177 -1.749c -0.715 0 -1.243 0.242 -1.562 0.726c 0.385 -0.011 0.671 0.275 0.671 0.649c 0 0.374 -0.275 0.649 -0.649 0.649c -0.429 0 -0.649 -0.22 -0.649 -0.671c 0 -0.539 0.242 -0.968 0.726 -1.309c 0.429 -0.297 0.935 -0.44 1.496 -0.44c 0.627 0 1.166 0.209 1.639 0.616c 0.473 0.407 0.704 0.913 0.704 1.529c 0 1.034 -0.814 1.749 -1.694 1.98Z "/></symbol><symbol id="gEB245AFE22C398BE296AC5F7AF6ADF12" overflow="visible"><path d="M 0 0m 2.024 3.938c -0.066 -0.077 -0.132 -0.099 -0.132 0c -0.011 0.297 -0.033 0.726 -0.088 0.836c -0.022 0.055 -0.044 0.088 -0.132 0.088c -0.308 -0.121 -0.594 -0.22 -1.353 -0.319c -0.022 -0.066 0 -0.242 0.022 -0.308c 0.594 -0.055 0.715 -0.11 0.715 -0.748v -2.145c 0 -0.902 -0.11 -0.946 -0.77 -1.001c -0.066 -0.066 -0.066 -0.297 0 -0.363c 0.33 0.011 0.77 0.022 1.21 0.022c 0.44 0 0.77 -0.011 1.1 -0.022c 0.066 0.066 0.066 0.297 0 0.363c -0.561 0.055 -0.671 0.099 -0.671 1.001v 1.804c 0 0.231 0.099 0.363 0.187 0.462c 0.418 0.407 0.913 0.649 1.342 0.649c 0.22 0 0.451 -0.143 0.583 -0.396c 0.11 -0.22 0.132 -0.517 0.132 -0.847v -1.672c 0 -0.902 -0.11 -0.946 -0.682 -1.001c -0.055 -0.066 -0.055 -0.297 0 -0.363c 0.33 0.011 0.682 0.022 1.122 0.022c 0.44 0 0.836 -0.011 1.166 -0.022c 0.055 0.066 0.055 0.297 0 0.363c -0.616 0.055 -0.737 0.099 -0.737 1.001v 1.639c 0 0.605 -0.044 1.133 -0.297 1.474c -0.187 0.242 -0.528 0.374 -0.913 0.374c -0.539 0 -1.155 -0.143 -1.804 -0.891Z "/></symbol><symbol id="g1A21308A8093B77381851E026859DC0C" overflow="visible"><path d="M 0 0m 2.981 2.453c 0.143 0 0.297 0.308 0.297 0.44c 0 0.11 -0.044 0.22 -0.154 0.22h -2.409c -0.132 0 -0.275 -0.253 -0.275 -0.451c 0 -0.11 0.066 -0.209 0.165 -0.209Z "/></symbol><symbol id="g36F90904A4043C6A677E73471A30013F" overflow="visible"><path d="M 0 0m 1.045 1.342c 0 -0.913 -0.121 -0.968 -0.792 -1.001c -0.066 -0.066 -0.066 -0.297 0 -0.363c 0.385 0.011 0.792 0.022 1.232 0.022c 0.44 0 0.858 -0.011 1.221 -0.022c 0.066 0.066 0.066 0.297 0 0.363c -0.671 0.033 -0.792 0.088 -0.792 1.001v 5.071c 0 0.715 0.044 1.155 0.044 1.155c 0 0.077 -0.044 0.11 -0.143 0.11c -0.275 -0.11 -1.1 -0.264 -1.54 -0.297c -0.022 -0.088 0 -0.264 0.066 -0.33c 0.638 -0.044 0.704 -0.077 0.704 -0.902Z "/></symbol><symbol id="g8FE23DF7094EE2D558758B421CB0DF33" overflow="visible"><path d="M 0 0m 2.387 -0.11c 0.429 0 0.946 0.22 1.485 0.66c 0.055 0.044 0.154 0.066 0.165 -0.011c 0.033 -0.275 0.121 -0.649 0.121 -0.649c 0.088 -0.033 0.143 -0.022 0.209 0c 0.242 0.198 0.627 0.363 1.298 0.44c 0.066 0.066 0.066 0.231 0 0.297c -0.704 0.055 -0.803 0.264 -0.803 0.803v 2.112c 0 0.33 0.044 1.133 0.044 1.133c 0 0.033 -0.033 0.066 -0.088 0.066c -0.055 -0.011 -0.22 -0.022 -0.385 -0.022c -0.352 0 -0.748 0.011 -1.122 0.022c -0.066 -0.066 -0.066 -0.297 0 -0.363c 0.539 -0.033 0.682 -0.165 0.682 -0.891v -2.123c 0 -0.209 -0.022 -0.297 -0.176 -0.429c -0.407 -0.352 -0.825 -0.528 -1.1 -0.528c -0.33 0 -0.88 0.154 -0.88 1.133v 2.002c 0 0.33 0.044 1.133 0.044 1.133c 0 0.033 -0.033 0.066 -0.088 0.066c -0.055 -0.011 -0.22 -0.022 -0.385 -0.022c -0.352 0 -0.748 0.011 -1.122 0.022c -0.066 -0.066 -0.066 -0.297 0 -0.363c 0.528 -0.044 0.682 -0.165 0.682 -0.88v -2.112c 0 -0.759 0.33 -1.496 1.419 -1.496Z "/></symbol><symbol id="g5310E062DB6BDE2A703F63D870CADBE5" overflow="visible"><path d="M 0 0m 1.529 1.166c -0.352 0 -0.583 -0.264 -0.583 -0.616c 0 -0.33 0.253 -0.605 0.583 -0.605c 0.154 0 0.286 0.044 0.385 0.143l 0.011 -0.088c 0 -0.693 -0.231 -1.287 -0.693 -1.76c -0.077 -0.088 -0.121 -0.154 -0.121 -0.198c 0 -0.11 0.044 -0.165 0.143 -0.165c 0.099 0 0.231 0.132 0.418 0.385c 0.374 0.528 0.561 1.111 0.561 1.738c 0 0.583 -0.198 1.166 -0.704 1.166Z "/></symbol><symbol id="gC7786DE3A0FDF2F0F116313154DFBC08" overflow="visible"><path d="M 0 0m 6.193 0.044h -2.09c -0.693 0 -1.309 0.231 -1.815 0.704c -0.506 0.473 -0.792 1.045 -0.858 1.738h 4.763c 0.176 0 0.264 0.088 0.264 0.264c 0 0.176 -0.088 0.264 -0.264 0.264h -4.763c 0.066 0.693 0.352 1.265 0.858 1.738c 0.506 0.473 1.122 0.704 1.815 0.704h 2.09c 0.176 0 0.264 0.088 0.264 0.253c 0 0.176 -0.088 0.264 -0.264 0.264h -2.09c -0.891 0 -1.65 -0.308 -2.277 -0.935c -0.627 -0.627 -0.935 -1.386 -0.935 -2.288c 0 -0.902 0.308 -1.661 0.935 -2.288c 0.627 -0.627 1.386 -0.935 2.277 -0.935h 2.09c 0.176 0 0.264 0.088 0.264 0.264c 0 0.132 -0.121 0.253 -0.264 0.253Z "/></symbol><symbol id="gA549392EF3CBA3CB389CB26F092EF8" overflow="visible"><path d="M 0 0m 6.259 7.535h -4.972c -0.154 0 -0.264 -0.011 -0.319 -0.044c -0.055 -0.121 -0.099 -0.22 -0.11 -0.308c -0.055 -0.539 -0.11 -1.089 -0.176 -1.617c 0 -0.165 0.077 -0.253 0.231 -0.253c 0.121 0 0.198 0.066 0.231 0.198c 0.165 1.023 1.243 1.551 2.508 1.551h 0.803l -4.048 -6.6c -0.066 -0.121 -0.099 -0.187 -0.099 -0.22c 0 -0.198 0.165 -0.242 0.418 -0.242h 5.566c 0.319 0 0.385 0.055 0.407 0.341l 0.297 2.145c 0 0.165 -0.077 0.242 -0.231 0.242c -0.055 0 -0.11 -0.022 -0.143 -0.055c -0.066 -0.132 -0.099 -0.231 -0.11 -0.308c -0.231 -1.078 -1.232 -1.892 -2.53 -1.892h -1.474l 4.048 6.6c 0.066 0.121 0.099 0.187 0.099 0.22c 0 0.209 -0.132 0.242 -0.396 0.242Z m -4.543 -0.473c -0.132 -0.077 -0.275 -0.187 -0.44 -0.33l 0.033 0.33Z m 3.289 0h 1.001l -4.037 -6.589h -1.012Z m 0.682 -6.589c 0.231 0.143 0.451 0.33 0.638 0.539l -0.077 -0.539Z "/></symbol><symbol id="g2DD3E926205855EAF1753B8A91BFE40C" overflow="visible"><path d="M 0 0m 0.55 4.994c 0 -0.275 0.253 -0.594 0.649 -0.594c 0.319 0 0.638 0.242 0.638 0.583c 0 0.055 -0.022 0.132 -0.055 0.231c -0.033 0.077 -0.066 0.165 -0.066 0.286c 0 0.253 0.385 0.759 0.913 0.759c 0.561 0 0.946 -0.693 0.946 -1.353c 0 -0.737 -0.044 -1.21 -0.627 -1.76l -0.935 -0.891c -1.364 -1.298 -1.551 -1.606 -1.584 -1.903l 0.044 -0.352h 4.246c 0.132 0.418 0.264 1.177 0.341 1.804c -0.143 0.066 -0.242 0.11 -0.495 0.11c -0.242 -0.748 -0.561 -1.045 -1.056 -1.045h -1.43c 0.033 0.352 0.143 0.649 0.506 0.979l 0.649 0.594c 1.309 1.21 1.749 1.474 1.749 2.497c 0 1.144 -0.968 1.771 -2.101 1.771c -1.573 0 -2.332 -1.034 -2.332 -1.716Z "/></symbol><symbol id="gF697F4206A782C3B42F4E05D5EA9B2A0" overflow="visible"><path d="M 0 0m 1.628 7.095c -0.396 0 -0.979 0.011 -1.419 0.022c -0.066 -0.066 -0.066 -0.297 0 -0.363c 0.77 -0.033 0.957 -0.088 0.957 -1.001v -4.411c 0 -0.913 -0.187 -0.968 -0.957 -1.001c -0.066 -0.066 -0.066 -0.297 0 -0.363c 0.429 0.011 1.012 0.022 1.43 0.022c 0.407 0 0.869 -0.022 2.002 -0.022c 1.551 0 3.597 0.704 3.597 3.41c 0 2.046 -1.683 3.729 -3.795 3.729c -0.781 0 -1.386 -0.022 -1.815 -0.022Z m 0.473 -6.171v 5.28c 0 0.385 0.385 0.539 0.924 0.539c 2.376 0 3.157 -1.925 3.157 -3.619c 0 -2.222 -1.331 -2.772 -2.882 -2.772c -1.078 0 -1.199 0.22 -1.199 0.572Z "/></symbol><symbol id="gB7E01F34AB4FF1C26BADF7D662D6A5FF" overflow="visible"><path d="M 0 0m 2.244 -1.76c 0.176 0.308 0.319 0.616 0.451 0.946c 0.88 2.123 1.375 3.256 1.947 4.488c 0.22 0.462 0.374 0.638 0.891 0.704c 0.066 0.066 0.066 0.297 0 0.363c -0.22 -0.011 -0.473 -0.022 -0.781 -0.022c -0.33 0 -0.671 0.011 -1.001 0.022c -0.066 -0.066 -0.066 -0.297 0 -0.363c 0.352 -0.033 0.704 -0.099 0.528 -0.495l -1.089 -2.519c -0.077 -0.176 -0.176 -0.209 -0.264 0.011l -0.979 2.288c -0.198 0.462 -0.253 0.671 0.363 0.715c 0.066 0.066 0.066 0.297 0 0.363c -0.407 -0.011 -0.847 -0.022 -1.243 -0.022c -0.374 0 -0.671 0.011 -0.891 0.022c -0.066 -0.066 -0.066 -0.297 0 -0.363c 0.44 -0.055 0.583 -0.154 0.869 -0.825l 1.243 -2.893c 0.099 -0.22 0.264 -0.726 0.154 -1.034c -0.132 -0.363 -0.264 -0.671 -0.429 -1.012c -0.121 -0.22 -0.275 -0.319 -0.55 -0.319c -0.154 0 -0.198 0.033 -0.319 0.033c -0.319 0 -0.484 -0.33 -0.484 -0.473c 0 -0.231 0.22 -0.407 0.517 -0.407c 0.231 0 0.671 0.088 1.067 0.792Z "/></symbol><symbol id="gF9560AC257AD9BBCF737B0F29E336B2F" overflow="visible"><path d="M 0 0m 1.716 4.048c -0.011 0.33 -0.033 0.616 -0.088 0.726c -0.022 0.055 -0.044 0.088 -0.132 0.088c -0.308 -0.121 -0.594 -0.22 -1.353 -0.319c -0.022 -0.066 0 -0.242 0.022 -0.308c 0.594 -0.055 0.715 -0.11 0.715 -0.748v -4.697c 0 -0.913 -0.121 -0.968 -0.792 -1.001c -0.066 -0.066 -0.066 -0.297 0 -0.363c 0.385 0.011 0.792 0.022 1.232 0.022c 0.44 0 0.968 -0.011 1.331 -0.022c 0.066 0.066 0.066 0.297 0 0.363c -0.781 0.044 -0.902 0.088 -0.902 1.001v 1.188c 0 0.143 0.044 0.132 0.154 0.088c 0.275 -0.11 0.605 -0.176 0.957 -0.176c 0.616 0 1.166 0.187 1.617 0.616c 0.517 0.506 0.814 1.188 0.814 2.079c 0 1.166 -0.825 2.244 -1.947 2.244c -0.506 0 -1.067 -0.33 -1.507 -0.825c -0.066 -0.066 -0.11 -0.066 -0.121 0.044Z m 0.209 -0.407c 0.286 0.352 0.792 0.682 1.111 0.682c 0.704 0 1.309 -0.792 1.309 -2.035c 0 -0.902 -0.319 -2.024 -1.551 -2.024c -0.198 0 -0.583 0.055 -0.781 0.231c -0.22 0.198 -0.264 0.264 -0.264 0.66v 2.002c 0 0.231 0.044 0.33 0.176 0.484Z "/></symbol><symbol id="gF1225D4F4E45B3D330508564A2DC8008" overflow="visible"><path d="M 0 0m 1.254 6.292c 0 0.33 0.44 0.594 1.067 0.594c 0.627 0 1.045 -0.627 1.045 -1.342c 0 -0.517 -0.165 -0.836 -0.605 -1.243c -0.715 -0.649 -0.77 -1.298 -0.77 -1.771v -0.506c 0 -0.077 0.088 -0.11 0.176 -0.11c 0.088 0 0.187 0.033 0.187 0.11v 0.484c 0 0.264 0.011 0.528 0.154 0.803c 0.099 0.187 0.319 0.363 0.572 0.55c 0.517 0.374 1.199 0.858 1.199 1.727c 0 1.001 -0.726 1.661 -1.848 1.661c -0.583 0 -1.045 -0.154 -1.364 -0.429c -0.33 -0.264 -0.561 -0.572 -0.561 -0.99c 0 -0.385 0.275 -0.473 0.451 -0.473c 0.209 0 0.429 0.132 0.429 0.385c 0 0.143 -0.022 0.209 -0.066 0.264c -0.044 0.055 -0.066 0.121 -0.066 0.286Z m 0.33 -5.819c 0 -0.319 0.264 -0.583 0.583 -0.583c 0.319 0 0.583 0.264 0.583 0.583c 0 0.319 -0.264 0.583 -0.583 0.583c -0.319 0 -0.583 -0.264 -0.583 -0.583Z "/></symbol><symbol id="gD14A2C15FA7E7E6DA17092C3143CABC8" overflow="visible"><path d="M 0 0m 1.925 1.342v 2.948h 1.023c 0.099 0 0.253 0.044 0.253 0.143v 0.22c 0 0.044 -0.033 0.066 -0.088 0.066h -1.188v 0.627c 0 1.694 0.506 1.958 0.869 1.958c 0.33 0 0.506 -0.132 0.66 -0.517c 0.088 -0.198 0.209 -0.352 0.44 -0.352c 0.187 0 0.451 0.231 0.451 0.451c 0 0.187 -0.121 0.385 -0.352 0.561c -0.286 0.198 -0.572 0.231 -0.99 0.231c -0.924 0 -1.947 -0.803 -1.947 -2.519v -0.44h -0.561c -0.198 0 -0.253 -0.132 -0.253 -0.22v -0.143c 0 -0.055 0.011 -0.066 0.055 -0.066h 0.759v -2.948c 0 -0.913 -0.176 -0.957 -0.77 -1.001c -0.066 -0.066 -0.066 -0.297 0 -0.363c 0.385 0.011 0.77 0.022 1.21 0.022c 0.44 0 0.968 -0.011 1.353 -0.022c 0.066 0.066 0.066 0.297 0 0.363c -0.858 0.044 -0.924 0.088 -0.924 1.001Z "/></symbol><symbol id="g2E78C0ACEE1FBDF39EC1D5F9B4AD747D" overflow="visible"><path d="M 0 0m 1.837 4.334c -0.066 -0.066 -0.11 -0.044 -0.11 0.055v 2.024c 0 0.715 0.044 1.155 0.044 1.155c 0 0.077 -0.044 0.11 -0.143 0.11c -0.275 -0.11 -1.1 -0.264 -1.54 -0.297c -0.022 -0.088 0 -0.264 0.066 -0.33c 0.033 0 0.066 0 0.099 0c 0.484 -0.033 0.605 -0.033 0.605 -0.902v -5.368c 0 -0.429 -0.011 -0.627 -0.044 -0.781c 0.055 -0.088 0.11 -0.132 0.242 -0.132c 0.066 0.066 0.176 0.165 0.264 0.264c 0.11 0.132 0.176 0.132 0.297 0.033c 0.253 -0.209 0.583 -0.275 0.968 -0.275c 1.122 0 2.431 1.023 2.431 2.772c 0 1.342 -0.99 2.167 -1.947 2.167c -0.473 0 -0.891 -0.187 -1.232 -0.495Z m 0.077 -0.341c 0.286 0.253 0.616 0.352 0.935 0.352c 0.671 0 1.221 -0.814 1.221 -1.881c 0 -1.254 -0.506 -2.2 -1.551 -2.2c -0.341 0 -0.572 0.242 -0.792 0.517v 2.75c 0 0.231 0.044 0.341 0.187 0.462Z "/></symbol><symbol id="g7FF42B92D9D80783DC2C1CC317042C56" overflow="visible"><path d="M 0 0m 3.674 0.55c 0.055 0.044 0.154 0.066 0.165 -0.011c 0.033 -0.264 0.121 -0.649 0.121 -0.649c 0.088 -0.033 0.143 -0.022 0.209 0c 0.242 0.198 0.627 0.363 1.298 0.44c 0.066 0.066 0.066 0.231 0 0.297c -0.704 0.055 -0.803 0.264 -0.803 0.803v 4.983c 0 0.715 0.044 1.155 0.044 1.155c 0 0.077 -0.044 0.11 -0.143 0.11c -0.275 -0.11 -1.1 -0.264 -1.54 -0.297c -0.022 -0.088 0 -0.264 0.066 -0.33c 0.033 0 0.066 0 0.099 0c 0.484 -0.033 0.605 -0.033 0.605 -0.902v -1.408c 0 -0.077 -0.022 -0.099 -0.099 -0.099c -0.044 0 -0.495 0.187 -0.858 0.187c -0.726 0 -1.21 -0.242 -1.65 -0.66c -0.473 -0.473 -0.759 -1.122 -0.759 -1.936c 0 -1.353 0.682 -2.343 1.87 -2.343c 0.429 0 0.836 0.22 1.375 0.66Z m 0.121 0.814c 0 -0.209 -0.022 -0.297 -0.176 -0.429c -0.407 -0.352 -0.759 -0.528 -1.034 -0.528c -0.594 0 -1.21 0.649 -1.21 2.024c 0 0.792 0.154 1.232 0.319 1.463c 0.341 0.517 0.803 0.55 1.023 0.55c 0.396 0 0.671 -0.143 0.891 -0.396c 0.154 -0.176 0.187 -0.253 0.187 -0.594Z "/></symbol><symbol id="gD162C393A90025E62FE9FC38ECBA74D4" overflow="visible"><path d="M 0 0m 3.707 1.342v 1.496c 0 0.33 0.011 0.506 0.198 0.836l 1.309 2.376c 0.308 0.561 0.55 0.66 1.045 0.704c 0.066 0.066 0.066 0.297 0 0.363c -0.308 -0.011 -0.66 -0.022 -0.913 -0.022c -0.253 0 -0.649 0.011 -1.001 0.022c -0.066 -0.066 -0.066 -0.297 0 -0.363c 0.484 -0.033 0.66 -0.143 0.429 -0.583l -1.221 -2.299c -0.088 -0.165 -0.143 -0.154 -0.242 0.022l -1.276 2.255c -0.264 0.462 -0.22 0.572 0.396 0.605c 0.066 0.066 0.066 0.297 0 0.363c -0.396 -0.011 -0.814 -0.022 -1.254 -0.022c -0.429 0 -0.792 0.011 -1.122 0.022c -0.066 -0.066 -0.055 -0.297 0.011 -0.363c 0.462 -0.033 0.649 -0.099 1.034 -0.737l 1.441 -2.431c 0.198 -0.319 0.231 -0.44 0.231 -0.847v -1.397c 0 -0.913 -0.187 -0.968 -1.067 -1.001c -0.066 -0.066 -0.066 -0.297 0 -0.363c 0.539 0.011 1.111 0.022 1.54 0.022c 0.429 0 0.979 -0.011 1.529 -0.022c 0.066 0.066 0.066 0.297 0 0.363c -0.88 0.033 -1.067 0.088 -1.067 1.001Z "/></symbol><symbol id="g214BF76848B7F505DA7C31C530469F23" overflow="visible"><path d="M 0 0m 1.584 7.238c -0.264 0 -0.583 -0.209 -0.583 -0.803c 0 -0.77 0.154 -1.155 0.253 -2.123c 0.088 -0.858 0.154 -1.848 0.176 -2.079c 0.011 -0.066 0.044 -0.143 0.154 -0.143c 0.11 0 0.143 0.099 0.154 0.22c 0.022 0.154 0.022 0.814 0.165 2.002c 0.11 0.946 0.264 1.408 0.264 2.123c 0 0.594 -0.319 0.803 -0.583 0.803Z m -0.583 -6.765c 0 -0.319 0.264 -0.583 0.583 -0.583c 0.319 0 0.583 0.264 0.583 0.583c 0 0.319 -0.264 0.583 -0.583 0.583c -0.319 0 -0.583 -0.264 -0.583 -0.583Z "/></symbol></defs></svg>