<svg xmlns="http://www.w3.org/2000/svg" xml:space="preserve" style="enable-background:new 0 0 685.5 103.3" viewBox="0 0 685.5 103.3"><path d="M161.5 103.2c-4.8 0-9.1-2.7-11.2-7l-26.1-54.5-26.1 54.5c-2.1 4.3-6.4 7-11.2 7-4.8 0-9.1-2.7-11.2-7L49.6 41.7 32 78.5h11.9c6.8 0 12.4 5.6 12.4 12.4s-5.6 12.4-12.4 12.4H12.4c-4.3 0-8.2-2.2-10.5-5.8s-2.5-8.1-.7-12L38.5 7.6c2.1-4.3 6.4-7 11.2-7 4.8 0 9.1 2.7 11.2 7L87 62.1l26.1-54.5c2.1-4.3 6.4-7 11.2-7 4.8 0 9.1 2.7 11.2 7l26.1 54.5 26.1-54.5c3-6.2 10.4-8.8 16.5-5.8 6.2 3 8.8 10.4 5.8 16.5l-37.3 77.9c-2.1 4.3-6.4 7-11.2 7z" style="fill:#ee7100"></path><path d="M685.5 76c0-8.2-3.5-13.3-11.5-13.3s-5.9 1.2-7.3 2.5v-1.9h-8.2v29h8.2V76.4c0-5 2-6.6 5.3-6.6s5.3 1.5 5.3 6.7v15.7h8.2V75.8v.2zm-52-1.4c.3-2.9 2.1-5.2 5.1-5.2s5.3 2.6 5.6 5.2h-10.7zm5.5-11.8c-7.9 0-13.8 6.2-13.8 15.2s5.7 15.1 14.6 15.1 8.6-1.7 11.1-4.7l-5.8-4.5c-1.2 1.3-3.1 2-5.3 2s-6.1-1.5-6.4-5.5H652c0-.6.1-1.3.1-2.4 0-8.3-4.8-15.2-13.1-15.2m-20.3-10.7-8.2 3.8V65c-1.5-1.3-3.8-2.3-6.6-2.3-7.7 0-12.1 6.1-12.1 14.8S597.2 93 603.9 93s5-1.2 6.6-2.4v1.8h8.2V52.1zm-13.2 33.7c-3.2 0-5.3-2.5-5.3-8.5s1.7-7.4 4.9-7.4 4.3.9 5.5 2.5v11c-1.2 1.4-2.5 2.4-5 2.4m-20.3-22.4h-8.2v29h8.2v-29zm-4.1-11.1c-2.5 0-4.7 2-4.7 4.4s2.1 4.4 4.7 4.4 4.7-2 4.7-4.4-2.1-4.4-4.7-4.4m-29.4 22.3c.3-2.9 2.1-5.2 5.1-5.2s5.3 2.6 5.6 5.2h-10.7zm5.5-11.8c-7.9 0-13.8 6.2-13.8 15.2s5.7 15.1 14.6 15.1 8.6-1.7 11.1-4.7l-5.8-4.5c-1.2 1.3-3.1 2-5.3 2s-6.1-1.5-6.4-5.5h18.6c0-.6.1-1.3.1-2.4 0-8.3-4.8-15.2-13.1-15.2m-24.9-9.1-3.6 18.9c-.4 1.8-.8 4.8-1 6.4-.3-1.6-.9-4.5-1.4-6.4l-4.9-18.9h-7.2l-4.9 18.9c-.5 1.9-1.1 4.8-1.4 6.4-.2-1.6-.7-4.5-1-6.4l-3.6-18.9h-8.6l8.6 38.7h7.8l5.2-19.9c.6-2.3 1.2-5.2 1.4-6.6.2 1.4.8 4.3 1.4 6.6l5.1 19.9h8.1l8.6-38.7h-8.6zm-41.6 22.9h-13.5v7.1h13.5v-7.1zm-32.3 9.2c-3.2 0-5.3-2.5-5.3-8.5s1.7-7.4 4.9-7.4 4.3.9 5.5 2.5v11c-1.2 1.4-2.5 2.4-5 2.4m13.1-22.4h-8.2v1.7c-1.5-1.3-3.8-2.3-6.6-2.3-7.7 0-12.1 6.1-12.1 14.8s5.4 15.5 12.1 15.5 5-1.2 6.6-2.4c0 4.5-1.7 5.9-8.1 6.7l2.9 5.8c10.9-1.1 13.4-6 13.4-15.6V63.4zm-35.1-.6c-2.9 0-5 1.2-6.4 2.5v-1.9H422v29h8.2V76.7c0-5 2.1-6.3 5.3-6.3s3.4.8 4.7 1.9l2.1-7.5c-1.1-1.1-3.1-2-5.7-2M397 74.6c.3-2.9 2.1-5.2 5.1-5.2s5.3 2.6 5.6 5.2H397zm5.5-11.8c-7.9 0-13.8 6.2-13.8 15.2s5.7 15.1 14.6 15.1 8.6-1.7 11.1-4.7l-5.8-4.5c-1.2 1.3-3.1 2-5.3 2s-6.1-1.5-6.4-5.5h18.6c0-.6.1-1.3.1-2.4 0-8.3-4.8-15.2-13.1-15.2m-31.8 23c-2.4 0-4.3-.9-5.5-2.5V72.4c1.2-1.4 2.5-2.4 5-2.4s5.3 2.5 5.3 8.5-1.7 7.4-4.9 7.4m1.1-23.1c-3 0-5 1.2-6.6 2.4V52.1l-8.2 3.8v36.5h8.2v-1.7c1.5 1.3 3.8 2.3 6.6 2.3 7.7 0 12.1-6.1 12.1-14.8s-5.4-15.5-12.1-15.4M349.4 76c0-8.2-3.1-13.3-11.1-13.3s-7.8 1.7-9.9 3.7c-2.3-2.7-4.6-3.7-8.6-3.7s-5.4 1.2-6.8 2.5v-1.9h-8.2v29h8.2V76.4c0-5 1.7-6.6 5-6.6s5 1.5 5 6.7v15.7h8.2V76.3c0-5 1.7-6.6 5-6.6s5 1.5 5 6.7v15.7h8.2V75.7v.3zm-66.6-22.3h-8l-15.9 38.7h8.9l3.3-8.6h15.1l3.3 8.6h9.1l-15.8-38.7zm-8.9 22.7 2.7-7c.8-2.3 1.7-4.6 2.1-6 .4 1.4 1.2 3.8 2.1 6l2.7 7h-9.6zM369.8.6h-8.3v14.8h-17V.6h-8.3v38.7h8.3V23h17v16.3h8.3V.6zm-39.2 0h-32.1v7.6h11.9v31.1h8.3V8.2h11.9V.6zm-52.7 31.7c-5.8 0-9.8-4.5-9.8-12.3s3.8-12.2 9.6-12.2 9.8 4.5 9.8 12.3-3.8 12.2-9.6 12.2m0-32.3c-10.8 0-18.3 7.5-18.3 20s7.4 19.9 18.2 19.9 18.3-7.5 18.3-20S288.7 0 277.9 0" style="fill:#54565a"></path></svg>
