<svg height="48pt" viewBox="0 0 48 48" width="48pt" xmlns="http://www.w3.org/2000/svg" xmlns:xlink="http://www.w3.org/1999/xlink"><linearGradient id="a" gradientTransform="matrix(49.077 0 0 49.651 -1.017 -.909)" gradientUnits="userSpaceOnUse" x1="0" x2=".907488" y1=".5" y2=".920078"><stop offset="0" stop-color="#00c4ff"/><stop offset=".83888397938" stop-color="#0072ff"/></linearGradient><path d="m20.509 12.697c-.278 1.259-1.528 2.061-2.79 1.79-1.263-.271-2.062-1.519-1.785-2.784l1.484-6.893c.679-3.156 3.085-3.866 5.369-1.584l8.169 8.161 11.273-.91c3.218-.26 4.655 1.872 3.207 4.757l-4.934 9.829 3.826 9.915c1.162 3.012-.481 5.038-3.668 4.521l-11.318-1.836-8.939 7.36c-2.492 2.053-4.829 1.117-5.216-2.088l-1.3-10.771-9.97-6.346c-2.723-1.734-2.521-4.163.452-5.422l8.184-3.464c1.189-.503 2.562.052 3.066 1.24.503 1.188-.052 2.562-1.241 3.066l-5.369 2.281 9.254 5.884 1.24 10.296 8.505-6.996 11.126 1.801-3.744-9.698 4.761-9.465-10.973.889-7.768-7.756z" fill="url(#a)"/></svg>