<?xml version="1.0" encoding="UTF-8" standalone="no"?>
<!-- Created with Inkscape (http://www.inkscape.org/) -->

<svg
   version="1.1"
   id="svg1"
   width="755.90533"
   height="185.19333"
   viewBox="0 0 755.90533 185.19333"
   sodipodi:docname="logo_umit_eng.svg"
   inkscape:version="1.4.2 (ebf0e940d0, 2025-05-08)"
   xmlns:inkscape="http://www.inkscape.org/namespaces/inkscape"
   xmlns:sodipodi="http://sodipodi.sourceforge.net/DTD/sodipodi-0.dtd"
   xmlns="http://www.w3.org/2000/svg"
   xmlns:svg="http://www.w3.org/2000/svg">
  <sodipodi:namedview
     id="namedview1"
     pagecolor="#ffffff"
     bordercolor="#000000"
     borderopacity="0.25"
     inkscape:showpageshadow="2"
     inkscape:pageopacity="0.0"
     inkscape:pagecheckerboard="0"
     inkscape:deskcolor="#d1d1d1"
     inkscape:zoom="0.47883598"
     inkscape:cx="356.07182"
     inkscape:cy="120.08287"
     inkscape:window-width="1916"
     inkscape:window-height="1154"
     inkscape:window-x="0"
     inkscape:window-y="0"
     inkscape:window-maximized="0"
     inkscape:current-layer="svg1" />
  <defs
     id="defs1">
    <clipPath
       clipPathUnits="userSpaceOnUse"
       id="clipPath3">
      <path
         d="M 0,0 H 5669.29 V 1388.95 H 0 Z"
         transform="translate(0,-2.5000001e-5)"
         id="path3" />
    </clipPath>
    <clipPath
       clipPathUnits="userSpaceOnUse"
       id="clipPath5">
      <path
         d="M 0,0 H 5669.29 V 1388.95 H 0 Z"
         transform="translate(0,-2.5000001e-5)"
         id="path5" />
    </clipPath>
    <clipPath
       clipPathUnits="userSpaceOnUse"
       id="clipPath7">
      <path
         d="M 0,0 H 5669.29 V 1388.95 H 0 Z"
         transform="translate(0,-2.5000001e-5)"
         id="path7" />
    </clipPath>
  </defs>
  <g
     id="g1"
     transform="translate(0,-0.14000463)">
    <g
       id="group-R5">
      <path
         id="path2"
         d="m 2710.69,1388.95 v -185.31 h 317.12 V 498.949 h 224.45 v 704.691 h 319.72 v 185.31 z m -378.69,0 V 498.949 h 224.45 v 890.001 z m -1212.72,0 V 498.949 h 219.24 v 568.981 l 251.86,-311.895 h 20.88 l 250.56,311.895 V 498.949 h 224.46 V 1388.95 H 1882.7 l -279.27,-343.21 -279.26,343.21 z M 0,1388.95 V 894.359 C 0,641.195 156.598,487.211 442.387,487.211 c 276.66,0 439.781,146.152 439.781,411.066 V 1388.95 H 657.711 V 903.496 c 0,-155.293 -78.297,-225.766 -215.324,-225.766 -143.543,0 -217.93,82.215 -217.93,228.379 V 1388.95 H 0 v 0"
         style="fill:#4c4240;fill-opacity:1;fill-rule:nonzero;stroke:none"
         transform="matrix(0.13333333,0,0,-0.13333333,0,185.33333)"
         clip-path="url(#clipPath3)" />
      <path
         id="path4"
         d="M 5359.23,876.215 V 342.219 h 310.06 v 54.027 h -251.34 v 479.969 z m -402.14,-48.543 c 139.37,0 219.24,-109.621 219.24,-217.668 0,-96.316 -64.99,-219.238 -223.95,-219.238 -119.79,-0.789 -217.66,91.613 -217.66,217.668 0,108.836 76.73,219.238 222.37,219.238 z m -3.13,55.594 c -173.04,0 -279.54,-128.414 -279.54,-277.176 0,-144.863 111.19,-270.918 277.19,-270.918 176.16,0 285.79,126.844 285.79,276.394 0,147.985 -112.75,271.7 -283.44,271.7 z M 4298.2,636.625 v 187.918 h 73.61 c 68.12,0 110.4,-26.621 110.4,-92.395 0,-77.515 -55.59,-95.523 -129.19,-95.523 z m -58.72,-294.406 h 58.72 v 242.726 h 49.34 c 45.41,0 78.3,-17.226 127.62,-95.527 l 93.96,-147.199 h 69.69 l -103.36,159.73 c -43.84,67.332 -59.5,81.434 -93.96,99.442 64.98,19.57 101.01,64.98 101.01,131.539 0,81.429 -55.6,143.285 -162.86,143.285 H 4239.48 Z M 4032.93,876.215 V 342.219 h 58.73 v 533.996 z m -530.08,0 v -51.672 h 188.7 V 342.219 h 58.72 v 482.324 h 191.06 v 51.672 h -438.48 v 0"
         style="fill:#4c4240;fill-opacity:1;fill-rule:nonzero;stroke:none"
         transform="matrix(0.13333333,0,0,-0.13333333,0,185.33333)"
         clip-path="url(#clipPath5)" />
      <path
         id="path6"
         d="m 5093.9,153.289 55.89,-71.2187 V 1.98828 h 22.2 V 82.0703 l 55.9,71.2187 h -26.18 l -41.05,-52.129 -40.59,52.129 z m -173.42,0 v -19.078 h 51.91 V 1.98828 h 21.74 V 134.211 h 52.79 v 19.078 z m -76.62,0 V 1.98828 h 21.74 V 153.289 Z m -104.58,2 c -25.96,0 -44.59,-16.187 -44.59,-37.707 0,-18.6406 8.43,-30.6211 30.84,-43.7109 29.95,-17.5195 32.83,-24.4023 32.83,-34.6094 0,-11.7617 -9.54,-19.9609 -22.18,-19.9609 -15.76,0 -30.18,8.1992 -40.82,22.1797 V 13.9688 c 11.97,-8.86724 25.95,-13.9805188 40.82,-13.9805188 26.4,0 43.92,17.3125188 43.92,39.5000188 0,20.6328 -6.88,31.2812 -38.82,49.6836 -23.08,13.3161 -24.85,20.6371 -24.85,29.0661 0,10.434 8.42,17.532 22.18,17.532 13.54,0 25.3,-5.782 35.5,-15.758 v 24.617 c -10.43,6.891 -22.41,10.66 -34.83,10.66 z M 4552.6,134.211 h 18.41 c 16.42,0 25.29,-8.422 25.29,-23.07 0,-20.1801 -13.99,-24.1801 -29.73,-24.1801 h -13.97 z m -21.74,19.078 V 1.98828 h 21.74 V 67.8789 h 9.75 c 10.66,0 20.2,-4.6601 35.5,-28.6172 l 23.96,-37.27342 h 25.74 l -26.62,40.38282 c -14.65,22.1875 -18.86,25.7383 -27.74,31.5 16.63,6.6602 25.3,19.75 25.3,37.2699 0,22.179 -15.77,42.148 -45.93,42.148 z m -151.08,0 V 1.98828 h 87.85 V 21.5195 h -66.12 v 47.0313 h 61.91 v 19.3008 h -61.91 v 46.1364 h 64.12 v 19.301 z m -187.35,0 65.22,-152.17962 h 4.89 l 63.89,152.17962 h -21.52 L 4260.09,47.0313 4214.17,153.289 Z m -74.74,0 V 1.98828 h 21.74 V 153.289 Z m -211.33,0 V 1.98828 h 20.86 V 118.461 L 4027.71,1.98828 h 18.86 V 153.289 h -20.85 V 35.9414 L 3924.33,153.289 Z m -199.47,0 V 65.6602 c 0,-44.5899 23.31,-65.6719188 65.24,-65.6719188 43.7,0 64.77,24.6211188 64.77,65.8906188 v 87.4101 h -21.74 V 65.8789 c 0,-33.0469 -14.19,-46.5781 -43.03,-46.5781 -28.84,0 -43.49,12.8711 -43.49,46.3594 v 87.6288 z m -246.25,0 V 1.98828 h 87.87 V 21.5195 h -66.12 v 47.0313 h 61.9 v 19.3008 h -61.9 v 46.1364 h 64.11 v 19.301 z m -181.66,0 v -19.078 h 51.92 V 1.98828 h 21.74 V 134.211 h 52.8 v 19.078 z m -96.1,-28.609 24.63,-58.5706 h -47.71 z m -7.54,29.492 -65,-152.18372 h 22.18 l 19.08,44.60152 h 64.34 l 20.19,-44.60152 h 22.18 L 3190.64,154.172 Z M 2953.27,153.289 3018.5,1.10938 h 4.88 l 63.89,152.17962 h -21.52 L 3020.94,47.0313 2975.01,153.289 Z m -74.73,0 V 1.98828 h 21.73 V 153.289 Z m -148.31,-19.078 h 18.42 c 16.41,0 25.29,-8.422 25.29,-23.07 0,-20.1801 -13.98,-24.1801 -29.73,-24.1801 h -13.98 z m -21.74,19.078 V 1.98828 h 21.74 V 67.8789 h 9.76 c 10.65,0 20.19,-4.6601 35.5,-28.6172 l 23.96,-37.27342 h 25.73 l -26.62,40.38282 c -14.64,22.1875 -18.86,25.7383 -27.73,31.5 16.64,6.6602 25.29,19.75 25.29,37.2699 0,22.179 -15.75,42.148 -45.92,42.148 z m -129.95,-19.078 h 19.96 c 24.18,0 31.28,-9.09 31.28,-23.289 0,-14.422 -5.99,-24.1915 -31.28,-24.1915 h -19.96 z m -21.75,19.078 V 1.98828 h 21.75 V 67.6602 h 20.85 c 32.61,0 52.8,13.0898 52.8,42.8088 0,26.621 -18.41,42.82 -49.25,42.82 z m -306.14,0 V 1.98828 h 20.85 V 118.461 L 2372,1.98828 h 18.85 V 153.289 H 2370 V 35.9414 L 2268.62,153.289 Z m -128.78,-28.609 24.62,-58.5706 h -47.7 z m -7.55,29.492 -65,-152.18372 h 22.19 l 19.07,44.60152 h 64.34 l 20.19,-44.60152 h 22.18 L 2129.63,154.172 Z m -203.34,-0.883 V 1.98828 h 87.85 V 21.5195 h -66.11 v 47.0313 h 61.89 v 19.3008 h -61.89 v 46.1364 h 64.11 v 19.301 z m -144.4,0 V 1.98828 h 90.07 V 21.7383 h -68.11 V 153.289 Z m -144.31,-18.41 c 38.82,0 58.57,-31.07 58.57,-56.7892 0,-38.6015 -27.74,-57.6796 -59.9,-57.6796 -31.06,0 -57.91,23.289 -57.91,56.789 0,32.1718 21.75,57.6798 59.24,57.6798 z m -0.67,20.41 c -52.58,0 -80.97,-38.609 -80.97,-78.0898 0,-41.4804 31.94,-77.2109188 79.86,-77.2109188 52.58,0 82.75,37.5000188 82.75,77.8828188 0,43.0199 -33.5,77.4179 -81.64,77.4179 z m -214.68,-21.078 h 18.41 c 16.42,0 25.29,-8.422 25.29,-23.07 0,-20.1801 -13.97,-24.1801 -29.72,-24.1801 h -13.98 z m -21.74,19.078 V 1.98828 h 21.74 V 67.8789 h 9.76 c 10.65,0 20.19,-4.6601 35.5,-28.6172 l 23.96,-37.27342 h 25.73 l -26.62,40.38282 c -14.64,22.1875 -18.86,25.7383 -27.73,31.5 16.64,6.6602 25.29,19.75 25.29,37.2699 0,22.179 -15.75,42.148 -45.92,42.148 z m -187.35,0 55.91,-71.2187 V 1.98828 h 22.18 V 82.0703 l 55.91,71.2187 h -26.18 l -41.04,-52.129 -40.6,52.129 z m -173.41,0 v -19.078 h 51.91 V 1.98828 h 21.74 V 134.211 h 52.8 v 19.078 z m -235.381,0 V 1.98828 h 87.852 V 21.5195 h -66.114 v 47.0313 h 61.891 v 19.3008 h -61.891 v 46.1364 h 64.11 v 19.301 z m -199.465,0 V 1.98828 h 21.742 V 67.8789 h 84.969 V 1.98828 h 21.742 V 153.289 H 696.285 V 87.8516 h -84.969 v 65.4374 z m -181.668,0 V 134.211 H 459.82 V 1.98828 h 21.743 V 134.211 h 52.796 v 19.078 H 407.906 v 0"
         style="fill:#4c4240;fill-opacity:1;fill-rule:nonzero;stroke:none"
         transform="matrix(0.13333333,0,0,-0.13333333,0,185.33333)"
         clip-path="url(#clipPath7)" />
    </g>
  </g>
</svg>
