<?xml version="1.0" encoding="UTF-8" standalone="no"?>
<!-- Created with Inkscape (http://www.inkscape.org/) -->

<svg
   width="511.99997"
   height="511.99997"
   viewBox="0 0 135.46699 135.46699"
   version="1.1"
   id="svg5"
   xml:space="preserve"
   sodipodi:docname="Cyclcone Propeller Logo CWRK.svg"
   inkscape:version="1.3.2 (091e20e, 2023-11-25, custom)"
   xmlns:inkscape="http://www.inkscape.org/namespaces/inkscape"
   xmlns:sodipodi="http://sodipodi.sourceforge.net/DTD/sodipodi-0.dtd"
   xmlns="http://www.w3.org/2000/svg"
   xmlns:svg="http://www.w3.org/2000/svg"><sodipodi:namedview
     id="namedview1"
     pagecolor="#505050"
     bordercolor="#eeeeee"
     borderopacity="1"
     inkscape:showpageshadow="0"
     inkscape:pageopacity="0"
     inkscape:pagecheckerboard="0"
     inkscape:deskcolor="#505050"
     inkscape:zoom="0.27828521"
     inkscape:cx="-28.747486"
     inkscape:cy="583.93331"
     inkscape:window-width="1920"
     inkscape:window-height="1009"
     inkscape:window-x="-8"
     inkscape:window-y="-8"
     inkscape:window-maximized="1"
     inkscape:current-layer="svg5" /><defs
     id="defs2" /><g
     id="layer2"
     style="display:inline"><rect
       style="display:none;fill:#ffffff;fill-opacity:1;fill-rule:evenodd;stroke:none;stroke-width:0.637992;stroke-opacity:1"
       id="rect1920"
       width="135.46666"
       height="135.46666"
       x="0"
       y="0"
       ry="0.00014076089" /><path
       id="rect1138"
       style="display:inline;opacity:1;fill:#ffffff;fill-opacity:1;fill-rule:evenodd;stroke-width:10.414;stroke-linecap:round"
       d="M 67.7335,0 A 67.733498,67.733398 0 0 0 0,67.7335 67.733498,67.733398 0 0 0 67.7335,135.467 67.733498,67.733398 0 0 0 135.467,67.7335 67.733498,67.733398 0 0 0 67.7335,0 Z" /></g><g
     id="g372"
     style="display:none"><circle
       style="display:inline;fill:#ffffff;fill-opacity:1;fill-rule:evenodd;stroke:none;stroke-width:0.264584;stroke-linecap:round;stroke-dasharray:none"
       id="circle362"
       cx="67.73333"
       cy="67.73333"
       r="14.914313" /><g
       id="g1215"
       style="fill:#ffffff"><path
         id="path396"
         style="display:inline;fill:#ffffff;fill-opacity:1;fill-rule:evenodd;stroke:none;stroke-width:0.264584;stroke-linecap:round;stroke-dasharray:none"
         d="M 69.068822,8.1462928 C 58.45389,8.1152905 48.366236,11.378374 40.129432,16.930274 c -0.6336,0.42707 -1.255978,0.867674 -1.867074,1.32137 -4.583215,3.402723 -8.516781,7.541391 -11.546094,12.223057 -7.7e-5,1.2e-4 7.8e-5,3.96e-4 0,5.16e-4 -4.240892,6.554249 -6.710201,14.172702 -6.710201,22.325308 -2.7e-5,1.88666 0.239024,3.717346 0.688332,5.463762 0.08986,0.349284 0.188095,0.695366 0.294556,1.037666 1.171076,3.765298 3.332275,7.094263 6.179483,9.68212 9.3e-5,8.4e-5 4.25e-4,-8.4e-5 5.17e-4,0 1.035269,0.940933 2.161184,1.784254 3.363111,2.514581 0.601019,0.365197 1.221092,0.702202 1.858289,1.009243 0.955795,0.460562 1.950194,0.85365 2.977086,1.173058 0.342298,0.10647 0.688384,0.204687 1.037666,0.294557 1.746406,0.449349 3.577102,0.688314 5.463762,0.688331 1.310004,-2.12e-4 2.617346,-0.118165 3.906231,-0.352434 -0.189802,-0.640483 -0.351532,-1.288953 -0.484726,-1.943555 -0.03811,-0.191773 -0.07377,-0.384026 -0.10697,-0.576711 -0.08872,-0.487404 -0.16162,-0.977555 -0.218592,-1.469681 -0.02443,-0.196768 -0.04631,-0.393845 -0.06563,-0.59118 -0.0626,-0.663813 -0.09622,-1.33004 -0.10077,-1.996782 0.0028,-0.688987 0.03655,-1.377501 0.101286,-2.063445 0.03365,-0.301514 0.07327,-0.602331 0.118857,-0.902273 0.04546,-0.376645 0.100249,-0.752105 0.164331,-1.126032 0.06982,-0.359081 0.148216,-0.716441 0.235128,-1.071772 0.06967,-0.311097 0.145828,-0.620706 0.228411,-0.928628 0.106536,-0.376185 0.222674,-0.749584 0.3483,-1.119831 0.08996,-0.273412 0.185064,-0.545107 0.285254,-0.814939 0.146876,-0.390419 0.304376,-0.776759 0.472324,-1.158588 0.102956,-0.23241 0.20977,-0.463091 0.320395,-0.69195 0.191462,-0.402888 0.394637,-0.800105 0.609266,-1.191144 3.521231,-6.375177 9.861046,-10.699024 17.081687,-11.649964 3.432628,-12.667544 15.015125,-21.788666 28.199382,-22.073125 0.211093,-0.0045 0.422606,-0.0067 0.634588,-0.0067 l 5.17e-4,-0.0021 c 1.45586,1.26e-4 2.796912,-0.790531 3.501603,-2.064479 1.068423,-1.934175 0.366719,-4.368276 -1.56735,-5.436891 -0.271525,-0.15675 -0.543216,-0.310608 -0.815455,-0.461973 C 91.177827,13.001899 87.580053,11.488562 83.973376,10.39319 83.418502,10.224671 82.86349,10.066135 82.308357,9.9172485 80.087823,9.321701 77.866441,8.8819572 75.656033,8.5896777 75.103432,8.5166078 74.551909,8.452751 74.000833,8.3979577 73.449757,8.3431644 72.899477,8.2978025 72.350284,8.2610148 71.251898,8.1874393 70.157534,8.1494726 69.068822,8.1462928 Z m 12.413521,4.2423092 c 4.434713,0.145948 8.781004,2.445717 12.992226,4.877053 l 0.01757,0.0098 0.0155,0.0098 c 0.932868,0.51543 1.253796,1.627656 0.738458,2.560574 -0.334041,0.601765 -0.960044,0.970546 -1.648482,0.970486 -0.624121,0.03206 -1.034119,0.06568 -1.685689,0.115238 C 78.65359,21.647088 67.162188,30.62847 63.17201,43.212973 56.214718,44.508419 50.327884,48.613766 46.673752,54.252636 38.087967,34.954607 60.204058,11.688327 81.482343,12.388602 Z" /><path
         id="path1139"
         style="display:inline;fill:#ffffff;fill-opacity:1;fill-rule:evenodd;stroke:none;stroke-width:0.264584;stroke-linecap:round;stroke-dasharray:none"
         d="m 118.66947,98.683418 c 5.33432,-9.1773 7.55223,-19.545006 6.86255,-29.454238 -0.0531,-0.762248 -0.12344,-1.521545 -0.21081,-2.277618 -0.65523,-5.670542 -2.27264,-11.146444 -4.81243,-16.110739 -6e-5,-1.27e-4 -3.8e-4,-1.31e-4 -4.5e-4,-2.58e-4 -3.5557,-6.949845 -8.91881,-12.897556 -15.97918,-16.973859 -1.63388,-0.943353 -3.33883,-1.651672 -5.075921,-2.135768 -0.347419,-0.09682 -0.696253,-0.184788 -1.045924,-0.26374 -3.846381,-0.868467 -7.809949,-0.661297 -11.474703,0.510529 -1.19e-4,3.9e-5 -1.4e-4,4.1e-4 -2.58e-4,4.48e-4 -1.332507,0.426103 -2.625802,0.979513 -3.859247,1.655249 -0.616779,0.337899 -1.218671,0.706396 -1.803175,1.104704 -0.876755,0.597462 -1.714379,1.262093 -2.504441,1.991703 -0.263354,0.243204 -0.521456,0.493815 -0.773926,0.751367 -1.262351,1.287757 -2.384649,2.753704 -3.327994,4.387591 -0.654818,1.134603 -1.206339,2.325771 -1.647898,3.559112 0.649575,0.155868 1.292032,0.340041 1.925531,0.551993 0.185135,0.06288 0.369461,0.128126 0.552931,0.195717 0.466464,0.166868 0.927398,0.34881 1.382077,0.545534 0.182621,0.07723 0.364235,0.156817 0.544792,0.238753 0.606179,0.277693 1.199958,0.581691 1.779649,0.911121 0.59528,0.346919 1.174676,0.720404 1.736353,1.119439 0.244294,0.179899 0.484999,0.364619 0.721963,0.55407 0.303454,0.227692 0.601217,0.46287 0.893006,0.70533 0.276064,0.240007 0.546349,0.48658 0.810618,0.739513 0.234583,0.215885 0.464633,0.436644 0.69001,0.662124 0.272518,0.280355 0.537822,0.567633 0.795652,0.861552 0.191802,0.214614 0.379545,0.432824 0.563131,0.654507 0.264675,0.322408 0.520505,0.651977 0.767205,0.988338 0.149795,0.205368 0.296163,0.413212 0.439049,0.623446 0.25318,0.367255 0.495592,0.741818 0.726928,1.123212 3.760449,6.237064 4.335103,13.889428 1.548321,20.618156 9.254101,9.306515 11.361971,23.897814 5.016196,35.457944 -0.10165,0.18506 -0.205501,0.36934 -0.311492,0.55292 l 0.0016,0.001 c -0.728039,1.26075 -0.713836,2.81746 0.03709,4.06471 1.140833,1.89237 3.599679,2.50173 5.492161,1.36108 0.271512,-0.15677 0.540602,-0.31513 0.807808,-0.47521 3.473688,-2.08108 6.583168,-4.44017 9.335118,-7.01596 0.42338,-0.39627 0.83819,-0.79766 1.24469,-1.20398 1.62603,-1.62526 3.11755,-3.32916 4.47587,-5.09729 0.33958,-0.44203 0.67065,-0.88774 0.99364,-1.33759 0.32299,-0.44985 0.63741,-0.90372 0.94387,-1.36094 0.61291,-0.91445 1.19297,-1.84321 1.74008,-2.784472 z m -9.88071,8.629272 c -2.34375,3.7676 -6.50855,6.38171 -10.719762,8.81307 l -0.01727,0.0103 -0.01624,0.009 c -0.912809,0.55017 -2.036489,0.27199 -2.586751,-0.64077 -0.354123,-0.59017 -0.360495,-1.31669 -0.01622,-1.91287 0.284295,-0.55653 0.460179,-0.92841 0.743045,-1.51746 6.009498,-11.83983 3.977088,-26.282364 -4.926318,-36.030211 2.356757,-6.672915 1.744839,-13.823736 -1.311499,-19.807742 21.005475,2.213506 30.096615,32.999743 18.851015,51.077143 z" /><path
         id="path1141"
         style="display:inline;fill:#ffffff;fill-opacity:1;fill-rule:evenodd;stroke:none;stroke-width:0.264584;stroke-linecap:round;stroke-dasharray:none"
         d="m 15.461696,96.370277 c 5.280615,9.208303 13.150357,16.312923 22.076844,20.670263 0.686676,0.33514 1.379416,0.65387 2.07788,0.95624 5.238448,2.26783 10.789423,3.60506 16.358524,3.88768 1.4e-4,2e-5 3.03e-4,-2.6e-4 4.48e-4,-2.6e-4 7.796593,0.3956 15.629016,-1.27514 22.689383,-5.35144 1.633908,-0.94331 3.099805,-2.06568 4.38759,-3.328 0.257558,-0.25246 0.508158,-0.51057 0.751368,-0.77392 2.675305,-2.89683 4.477674,-6.43297 5.29522,-10.19265 2.6e-5,-1.2e-4 -2.85e-4,-3.3e-4 -2.59e-4,-4.5e-4 0.297238,-1.36704 0.464618,-2.763767 0.496136,-4.169829 0.01576,-0.703096 -0.0024,-1.408598 -0.05511,-2.113948 -0.07904,-1.058023 -0.235815,-2.115742 -0.472645,-3.164761 -0.07894,-0.349673 -0.166928,-0.698501 -0.26374,-1.045923 -0.484055,-1.737106 -1.192453,-3.442019 -2.135768,-5.075923 -0.655186,-1.13439 -1.411008,-2.207605 -2.258333,-3.206677 -0.459773,0.484614 -0.9405,0.948912 -1.440805,1.391562 -0.147023,0.128892 -0.295691,0.2559 -0.445962,0.380994 -0.377743,0.320535 -0.765777,0.628745 -1.163484,0.924147 -0.158194,0.119539 -0.317925,0.237028 -0.479163,0.352427 -0.543578,0.38612 -1.103738,0.748348 -1.678878,1.085661 -0.598081,0.342068 -1.211226,0.657097 -1.837639,0.944006 -0.277944,0.121615 -0.558269,0.237712 -0.84082,0.348203 -0.348914,0.148953 -0.701466,0.289234 -1.057337,0.420701 -0.345884,0.119075 -0.694565,0.229862 -1.045746,0.332259 -0.304253,0.09521 -0.610461,0.184062 -0.918421,0.266504 -0.379054,0.09583 -0.760496,0.181951 -1.143952,0.258279 -0.281762,0.0588 -0.564609,0.112284 -0.848385,0.160433 -0.411551,0.06801 -0.824881,0.124782 -1.239529,0.17025 -0.252751,0.02704 -0.505933,0.04988 -0.759444,0.0685 -0.444642,0.03563 -0.890229,0.05829 -1.336194,0.06793 C 60.89179,90.770654 53.977322,87.442137 49.543463,81.664349 36.856734,85.025378 23.166364,79.555197 16.327885,68.27953 16.218443,68.098968 16.110778,67.916891 16.004788,67.73331 l -0.0017,8.85e-4 c -0.727822,-1.260875 -2.083074,-2.02693 -3.538687,-2.000234 -2.209257,0.04181 -3.9664011,1.866549 -3.9248102,4.075811 1.08e-5,0.313522 0.00261,0.62574 0.00764,0.937188 0.065424,4.048842 0.553716,7.921275 1.4084406,11.592429 0.1314896,0.564793 0.2716986,1.124724 0.4203326,1.679923 0.594501,2.220813 1.324362,4.364458 2.176447,6.424862 0.213019,0.5151 0.433481,1.02467 0.661567,1.529313 0.228087,0.504642 0.46394,1.003873 0.706674,1.497885 0.485482,0.988021 0.999781,1.954747 1.541383,2.899189 z M 12.928882,83.498695 C 10.83792,79.585148 10.656434,74.67127 10.656421,69.808574 l -2.85e-4,-0.02011 3.26e-4,-0.01856 c -0.02006,-1.065601 0.782694,-1.899646 1.848298,-1.919807 0.688164,-0.01159 1.320535,0.346147 1.664704,0.942388 0.339822,0.524472 0.573937,0.862732 0.942637,1.402226 7.248844,11.124293 20.772651,16.585441 33.666237,13.748789 4.600535,5.377469 11.099287,8.422943 17.809757,8.76808 -12.41969,17.08452 -43.626923,9.56456 -53.659611,-9.213114 z" /></g></g><g
     id="layer1"
     style="display:inline"><g
       id="g5239"
       style="fill:#48b0b3;fill-opacity:1"><path
         id="circle3432"
         style="display:inline;fill:#48b0b3;fill-opacity:1;fill-rule:evenodd;stroke:none;stroke-width:0.264584;stroke-linecap:round;stroke-dasharray:none"
         d="M 77.714947,-29.292031 C 58.217095,-18.587939 49.45437,14.446601 69.105159,26.294007 l 0.0062,-0.0058 A 22.935165,22.935165 0 0 1 78.450636,8.0797609 C 75.290407,-4.816062 81.143562,-18.618909 93.019221,-25.178503 l -5.47e-4,-0.0021 a 4.0012217,4.0012217 0 0 0 2.066928,-3.500158 4.0012217,4.0012217 0 0 0 -4.000715,-4.001331 c -4.81351,-0.09122 -9.323216,1.168416 -13.36994,3.390021 z"
         transform="rotate(28.91434)" /><path
         id="path3485"
         style="display:inline;fill:#48b0b3;fill-opacity:1;fill-rule:evenodd;stroke:none;stroke-width:0.264584;stroke-linecap:round;stroke-dasharray:none"
         d="M 108.82802,108.1525 C 119.99918,88.918448 110.44719,56.103425 87.50128,56.103428 l -0.0024,0.0081 a 22.935165,22.935165 45 0 1 1.403262,20.41573 c 9.36477,9.412245 11.478828,24.255052 4.695394,36.004302 l 0.0015,0.002 a 4.0012217,4.0012217 45 0 0 0.03709,4.06473 4.0012217,4.0012217 45 0 0 5.492158,1.36107 c 4.169376,-2.40718 7.381096,-5.81438 9.699606,-9.80638 z" /><path
         id="path3489"
         style="display:inline;fill:#48b0b3;fill-opacity:1;fill-rule:evenodd;stroke:none;stroke-width:0.264584;stroke-linecap:round;stroke-dasharray:none"
         d="m 12.181958,83.112794 c 11.071598,19.291536 44.266237,27.426776 55.739189,7.555037 l -0.0058,-0.0061 A 22.935165,22.935165 0 0 1 49.53316,81.669098 C 36.699532,85.073104 22.788255,79.482529 16.004823,67.733278 l -0.0025,2.99e-4 a 4.0012217,4.0012217 0 0 0 -3.538704,-2.000245 4.0012217,4.0012217 0 0 0 -3.9248005,4.075814 c -9e-6,4.814375 1.3448528,9.299406 3.6427715,13.303295 z" /></g><g
       id="g5234"
       style="fill:#01696c;fill-opacity:1"><circle
         style="display:inline;fill:#01696c;fill-opacity:1;fill-rule:evenodd;stroke:none;stroke-width:0.264584;stroke-linecap:round;stroke-dasharray:none"
         id="circle3428"
         cx="67.73333"
         cy="67.73333"
         r="14.914313" /><path
         id="path3469"
         style="display:inline;fill:#01696c;fill-opacity:1;fill-rule:evenodd;stroke:none;stroke-width:0.264584;stroke-linecap:round;stroke-dasharray:none"
         d="M 69.068822,8.1462928 C 42.939732,8.0699793 20.006063,27.954001 20.006063,52.800525 c -1.76e-4,12.074637 9.788165,21.863209 21.862802,21.863318 1.310005,-2.12e-4 2.617344,-0.118165 3.906231,-0.352434 A 22.935165,22.935165 0 0 1 44.798409,67.7335 22.935165,22.935165 0 0 1 47.780664,56.472144 l 0.0052,-0.04548 -0.0083,0.0021 C 36.304666,36.557007 59.947299,11.877219 82.190018,11.934701 c 4.616413,0.01193 9.173009,1.089771 13.34237,3.496953 C 86.84353,10.415139 77.778521,8.1717308 69.068822,8.1462928 Z" /><path
         id="path3487"
         style="display:inline;fill:#01696c;fill-opacity:1;fill-rule:evenodd;stroke:none;stroke-width:0.264584;stroke-linecap:round;stroke-dasharray:none"
         d="m 118.66947,98.683425 c 13.13064,-22.590302 7.37741,-52.393456 -14.14032,-64.816716 -10.456851,-6.037472 -23.828174,-2.454806 -29.865586,8.002082 -0.65482,1.134603 -1.206339,2.325768 -1.647899,3.559111 a 22.935165,22.935165 45 0 1 6.184979,2.44312 22.935165,22.935165 45 0 1 8.261495,8.213384 l 0.03675,0.02728 0.0023,-0.0083 c 22.945901,7.2e-5 32.497901,32.815085 21.326761,52.049104 -2.31853,3.99197 -5.53027,7.39918 -9.699609,9.80638 8.688859,-5.01651 15.164209,-11.74534 19.541079,-19.275442 z" /><path
         id="path3491"
         style="display:inline;fill:#01696c;fill-opacity:1;fill-rule:evenodd;stroke:none;stroke-width:0.264584;stroke-linecap:round;stroke-dasharray:none"
         d="M 15.461693,96.370277 C 28.460148,119.0369 57.147052,128.95603 78.664776,116.53276 89.121805,110.4956 92.704787,97.124357 86.667562,86.667361 86.012377,85.532969 85.256558,84.459757 84.409231,83.460683 a 22.935165,22.935165 0 0 1 -5.208293,4.134789 22.935165,22.935165 0 0 1 -11.243747,3.047973 l -0.042,0.01819 0.006,0.0061 C 56.448216,110.53947 23.253581,102.40424 12.182002,83.112738 9.8841196,79.108847 8.5392592,74.623794 8.5392323,69.80944 8.5392279,79.842468 11.128891,88.8147 15.461715,96.370232 Z" /></g></g><g
     id="g980"
     style="display:none"><g
       id="g946"
       style="display:none;vector-effect:non-scaling-stroke;stroke-width:0.264584;stroke-dasharray:none;-inkscape-stroke:hairline"><circle
         style="vector-effect:non-scaling-stroke;fill:none;fill-rule:evenodd;stroke:#f66151;stroke-width:0.264584;stroke-linecap:round;stroke-dasharray:none;-inkscape-stroke:hairline"
         id="circle914"
         cx="67.73333"
         cy="67.73333"
         r="25.945383" /><circle
         style="vector-effect:non-scaling-stroke;fill:none;fill-rule:evenodd;stroke:#000000;stroke-width:0.264584;stroke-linecap:round;stroke-dasharray:none;-inkscape-stroke:hairline"
         id="circle916"
         cx="90.20269"
         cy="54.760635"
         r="25.945383" /><circle
         style="vector-effect:non-scaling-stroke;fill:none;fill-rule:evenodd;stroke:#000000;stroke-width:0.264584;stroke-linecap:round;stroke-dasharray:none;-inkscape-stroke:hairline"
         id="circle918"
         cx="45.263969"
         cy="54.760635"
         r="18.993338" /><circle
         style="vector-effect:non-scaling-stroke;fill:none;fill-rule:evenodd;stroke:#000000;stroke-width:0.264584;stroke-linecap:round;stroke-dasharray:none;-inkscape-stroke:hairline"
         id="circle920"
         cx="90.20269"
         cy="54.760632"
         r="18.993338" /><path
         style="vector-effect:non-scaling-stroke;fill:none;fill-rule:evenodd;stroke:#e01b24;stroke-width:0.264584;stroke-linecap:round;stroke-dasharray:none;-inkscape-stroke:hairline"
         d="M 45.263969,54.760634 H 90.202687"
         id="path922" /><circle
         style="vector-effect:non-scaling-stroke;fill:none;fill-rule:evenodd;stroke:#000000;stroke-width:0.264584;stroke-linecap:round;stroke-dasharray:none;-inkscape-stroke:hairline"
         id="circle924"
         cx="67.73333"
         cy="67.73333"
         r="19.924742" /><circle
         style="vector-effect:non-scaling-stroke;fill:none;fill-rule:evenodd;stroke:#000000;stroke-width:0.264584;stroke-linecap:round;stroke-dasharray:none;-inkscape-stroke:hairline"
         id="circle926"
         cx="67.73333"
         cy="67.73333"
         r="12.972695" /><circle
         style="vector-effect:non-scaling-stroke;fill:none;fill-rule:evenodd;stroke:#ed333b;stroke-width:0.264584;stroke-linecap:round;stroke-dasharray:none;-inkscape-stroke:hairline"
         id="circle928"
         cx="67.73333"
         cy="54.760632"
         r="3.4760227" /><circle
         style="vector-effect:non-scaling-stroke;fill:none;fill-rule:evenodd;stroke:#ed333b;stroke-width:0.264584;stroke-linecap:round;stroke-dasharray:none;-inkscape-stroke:hairline"
         id="circle930"
         cx="67.73333"
         cy="51.284611"
         r="3.4760227" /><circle
         style="vector-effect:non-scaling-stroke;fill:none;fill-rule:evenodd;stroke:#ed333b;stroke-width:0.264584;stroke-linecap:round;stroke-dasharray:none;-inkscape-stroke:hairline"
         id="circle932"
         cx="67.733498"
         cy="67.733498"
         r="51.890594" /><circle
         style="vector-effect:non-scaling-stroke;fill:none;fill-rule:evenodd;stroke:#000000;stroke-width:0.264584;stroke-linecap:round;stroke-dasharray:none;-inkscape-stroke:hairline"
         id="circle934"
         cx="67.73333"
         cy="93.678711"
         r="25.945383" /><circle
         style="vector-effect:non-scaling-stroke;fill:none;fill-rule:evenodd;stroke:#e01b24;stroke-width:0.264584;stroke-linecap:round;stroke-dasharray:none;-inkscape-stroke:hairline"
         id="circle936"
         cx="67.733498"
         cy="116.14807"
         r="3.4760227" /><circle
         style="vector-effect:non-scaling-stroke;fill:none;fill-rule:evenodd;stroke:#000000;stroke-width:0.264584;stroke-linecap:round;stroke-dasharray:none;-inkscape-stroke:hairline"
         id="circle938"
         cx="67.73333"
         cy="93.678711"
         r="18.993338" /><path
         style="vector-effect:non-scaling-stroke;fill:#0000d4;fill-rule:evenodd;stroke:#e01b24;stroke-width:0.264584;stroke-linecap:round;stroke-dasharray:none;-inkscape-stroke:hairline"
         d="M 45.263969,54.760634 H 26.270631"
         id="path940" /><path
         style="vector-effect:non-scaling-stroke;fill:none;fill-rule:evenodd;stroke:#1a5fb4;stroke-width:0.264584;stroke-linecap:round;stroke-dasharray:none;-inkscape-stroke:hairline"
         d="M 26.270631,54.760635 C 26.270631,17.147703 88.545767,0 112.67308,41.789732 99.314561,18.652098 64.257307,28.981727 64.257307,54.760635 Z"
         id="path942" /><path
         style="vector-effect:non-scaling-stroke;fill:none;fill-rule:evenodd;stroke:#63452c;stroke-width:0.264584;stroke-linecap:round;stroke-dasharray:none;-inkscape-stroke:hairline"
         d="M 50.477998,57.770957 C 33.643141,28.61213 92.095941,6.1491822 112.63629,41.726111 L 67.73333,67.733327 Z"
         id="path944" /></g><path
       style="display:inline;vector-effect:non-scaling-stroke;fill:none;fill-rule:evenodd;stroke:#ff7800;stroke-width:0.264584;stroke-linecap:round;stroke-dasharray:none;-inkscape-stroke:hairline"
       d="M 41.869116,52.800614 H 93.597554"
       id="path952" /><circle
       style="display:inline;vector-effect:non-scaling-stroke;fill:none;fill-rule:evenodd;stroke:#e01b24;stroke-width:0.264584;stroke-linecap:round;stroke-dasharray:none;-inkscape-stroke:hairline"
       id="circle956"
       cx="67.73333"
       cy="67.73333"
       r="14.914313" /><circle
       style="display:inline;vector-effect:non-scaling-stroke;fill:none;fill-rule:evenodd;stroke:#613583;stroke-width:0.264584;stroke-linecap:round;stroke-dasharray:none;-inkscape-stroke:hairline"
       id="circle960"
       cx="67.73333"
       cy="67.73333"
       r="59.730846" /><circle
       style="display:inline;vector-effect:non-scaling-stroke;fill:none;fill-rule:evenodd;stroke:#a51d2d;stroke-width:0.264584;stroke-linecap:round;stroke-dasharray:none;-inkscape-stroke:hairline"
       id="circle968"
       cx="67.73333"
       cy="67.73333"
       r="22.935165" /><path
       style="vector-effect:non-scaling-stroke;fill:#26a269;fill-rule:evenodd;stroke:#613583;stroke-width:0.264584;stroke-linecap:round;stroke-dasharray:none;-inkscape-stroke:hairline"
       d="M 41.869695,52.799604 H 20.006117"
       id="path974" /><circle
       style="vector-effect:non-scaling-stroke;fill:none;fill-opacity:0;fill-rule:evenodd;stroke:#000000;stroke-width:0.264584;stroke-linecap:round;stroke-dasharray:none;-inkscape-stroke:hairline"
       id="path1034"
       cx="67.73333"
       cy="67.73333"
       r="67.733292" /><g
       id="g5302"
       style="display:inline"><path
         style="display:inline;vector-effect:non-scaling-stroke;fill:#9141ac;fill-opacity:0;fill-rule:evenodd;stroke:#000000;stroke-width:0.264584;stroke-linecap:round;stroke-dasharray:none;-inkscape-stroke:hairline"
         d="m 20.006118,52.800612 c 0,-33.128827 40.77044,-57.4352291 75.526016,-37.369088 l -1.934593,7.503666 c -16.029795,0 -29.865425,13.087389 -29.865425,29.864954 z"
         id="path2424" /><path
         style="display:inline;vector-effect:non-scaling-stroke;fill:#9141ac;fill-opacity:0;fill-rule:evenodd;stroke:#000000;stroke-width:0.264584;stroke-linecap:round;stroke-dasharray:none;-inkscape-stroke:hairline"
         d="M 47.777739,56.428627 C 33.923581,32.432521 71.273929,1.4260443 95.532131,15.431524 l -1.93459,7.503666 c -16.191551,0 -29.865425,13.176926 -29.865425,29.864954 z"
         id="path2480" /></g><g
       id="g5294"
       style="display:inline"><circle
         style="display:inline;vector-effect:non-scaling-stroke;fill:none;fill-rule:evenodd;stroke:#63452c;stroke-width:0.264584;stroke-linecap:round;stroke-dasharray:none;-inkscape-stroke:hairline"
         id="circle958"
         cx="67.73333"
         cy="52.800606"
         r="4.0012217" /><circle
         style="display:inline;vector-effect:non-scaling-stroke;fill:none;fill-rule:evenodd;stroke:#63452c;stroke-width:0.264584;stroke-linecap:round;stroke-dasharray:none;-inkscape-stroke:hairline"
         id="circle966"
         cx="67.73333"
         cy="48.799385"
         r="4.0012217" /><circle
         style="display:inline;vector-effect:non-scaling-stroke;fill:none;fill-rule:evenodd;stroke:#63452c;stroke-width:0.264584;stroke-linecap:round;stroke-dasharray:none;-inkscape-stroke:hairline"
         id="circle972"
         cx="91.084602"
         cy="-28.680824"
         r="4.0012217"
         transform="rotate(28.914341)" /><circle
         style="display:inline;vector-effect:non-scaling-stroke;fill:none;fill-rule:evenodd;stroke:#63452c;stroke-width:0.264584;stroke-linecap:round;stroke-dasharray:none;-inkscape-stroke:hairline"
         id="circle1642"
         cx="67.73333"
         cy="131.46539"
         r="4.0012217" /></g><g
       id="g5298"
       style="display:inline"><circle
         style="display:inline;vector-effect:non-scaling-stroke;fill:none;fill-rule:evenodd;stroke:#26a269;stroke-width:0.264584;stroke-linecap:round;stroke-dasharray:none;-inkscape-stroke:hairline"
         id="circle950"
         cx="41.869118"
         cy="52.800613"
         r="21.862999" /><circle
         style="display:inline;vector-effect:non-scaling-stroke;fill:none;fill-rule:evenodd;stroke:#26a269;stroke-width:0.264584;stroke-linecap:round;stroke-dasharray:none;-inkscape-stroke:hairline"
         id="circle964"
         cx="93.597549"
         cy="52.800613"
         r="21.862999" /></g><g
       id="g5280"
       style="display:inline"><circle
         style="display:inline;vector-effect:non-scaling-stroke;fill:none;fill-rule:evenodd;stroke:#1a5fb4;stroke-width:0.264584;stroke-linecap:round;stroke-dasharray:none;-inkscape-stroke:hairline"
         id="circle948"
         cx="67.73333"
         cy="67.73333"
         r="29.865423" /><circle
         style="display:inline;vector-effect:non-scaling-stroke;fill:none;fill-rule:evenodd;stroke:#1a5fb4;stroke-width:0.264584;stroke-linecap:round;stroke-dasharray:none;-inkscape-stroke:hairline"
         id="circle962"
         cx="93.597542"
         cy="52.800613"
         r="29.865423" /><circle
         style="display:inline;vector-effect:non-scaling-stroke;fill:none;fill-rule:evenodd;stroke:#1a5fb4;stroke-width:0.264584;stroke-linecap:round;stroke-dasharray:none;-inkscape-stroke:hairline"
         id="circle970"
         cx="67.73333"
         cy="97.598755"
         r="29.865423" /></g><g
       id="g5325"><path
         id="circle3426"
         style="display:inline;vector-effect:non-scaling-stroke;fill:none;fill-rule:evenodd;stroke:#26a269;stroke-width:0.264584;stroke-linecap:round;stroke-dasharray:none;-inkscape-stroke:hairline"
         d="M 69.068822,8.1462928 C 42.93968,8.0699791 20.006063,27.953953 20.006063,52.800525 A 21.862999,21.862999 0 0 0 41.868865,74.663843 21.862999,21.862999 0 0 0 45.775096,74.311409 22.935165,22.935165 0 0 1 44.798409,67.7335 22.935165,22.935165 0 0 1 64.763648,45.014934 C 68.251276,32.144415 80.151664,22.935091 93.597618,22.935091 l 1.93477,-7.503437 C 86.843512,10.415129 77.778537,8.1717308 69.068822,8.1462928 Z" /><circle
         style="display:inline;vector-effect:non-scaling-stroke;fill:none;fill-rule:evenodd;stroke:#a51d2d;stroke-width:0.264584;stroke-linecap:round;stroke-dasharray:none;-inkscape-stroke:hairline"
         id="circle3430"
         cx="67.73333"
         cy="67.73333"
         r="22.935165" /><path
         id="path3477"
         style="display:none;vector-effect:non-scaling-stroke;fill:none;fill-rule:evenodd;stroke:#26a269;stroke-width:0.264584;stroke-linecap:round;stroke-dasharray:none;-inkscape-stroke:hairline"
         d="M 69.068822,8.1462928 C 42.939732,8.0699793 20.006063,27.954001 20.006063,52.800525 c -1.76e-4,12.074637 9.788165,21.863209 21.862802,21.863318 1.310005,-2.12e-4 2.617344,-0.118165 3.906231,-0.352434 A 22.935165,22.935165 0 0 1 44.798409,67.7335 22.935165,22.935165 0 0 1 64.763648,45.014934 C 68.196282,32.347364 79.778747,23.22627 92.96303,22.941809 c 0.211093,-0.0045 0.422606,-0.0067 0.634588,-0.0067 l 5.17e-4,-0.0021 c 1.455864,1.26e-4 2.79691,-0.790529 3.501603,-2.064479 1.068425,-1.934179 0.366723,-4.368274 -1.56735,-5.436891 C 86.84353,10.415154 77.778521,8.1717308 69.068822,8.1462928 Z" /></g></g></svg>
