<?xml version="1.0" encoding="utf-8"?><svg version="1.1" xmlns="http://www.w3.org/2000/svg" xmlns:xlink="http://www.w3.org/1999/xlink" x="0px" y="0px" viewBox="0 0 155.2 43.1" style="enable-background:new 0 0 155.2 43.1;" xml:space="preserve"><style type="text/css">.st0{display:none;}
/* .st1{display:inline;fill:white;} */
.st2{fill:white;}
.st3{display:inline;}</style><g><g><g class="st0"><path class="st1" d="M114.3,52.7c-0.1-0.2-0.4-0.4-0.6-0.5c-0.3-0.2-0.6-0.2-0.9-0.2c-0.8,0-1.4,0.3-1.9,1.1v-1h-1.4v6.4h1.5v-2.9c0-0.7,0.1-1.2,0.1-1.5c0.1-0.2,0.2-0.5,0.4-0.7c0.2-0.2,0.4-0.2,0.7-0.2c0.2,0,0.4,0.1,0.5,0.2c0.1,0.1,0.2,0.3,0.3,0.5c0,0.2,0.1,0.7,0.1,1.4v3.3h1.5v-4c0-0.5,0-0.9-0.1-1.1C114.6,53.2,114.5,53,114.3,52.7L114.3,52.7z"/><rect x="116.4" y="52.1" class="st1" width="1.5" height="6.4"/><rect x="116.4" y="49.7" class="st1" width="1.5" height="1.6"/><path class="st1" d="M122.2,55.5c-0.1,0.2-0.1,0.4-0.2,0.5c0,0.1-0.1,0.3-0.2,0.6l-0.3-1.1l-1.1-3.3h-1.6l2.3,6.4h1.4l2.3-6.4h-1.6L122.2,55.5L122.2,55.5z"/><path class="st1" d="M93.6,56.5v-2c0-0.8-0.1-1.3-0.2-1.5c-0.1-0.3-0.4-0.5-0.7-0.7c-0.4-0.2-0.9-0.2-1.5-0.2h-0.1c-0.7,0-1.2,0.2-1.6,0.4s-0.6,0.8-0.8,1.4l1.4,0.3c0.1-0.3,0.2-0.5,0.4-0.6c0.1-0.1,0.4-0.2,0.6-0.2c0.4,0,0.7,0.1,0.9,0.2c0.1,0.2,0.2,0.4,0.2,0.7v0.2c-0.2,0.1-0.6,0.2-1,0.3c-0.1,0-0.3,0.1-0.4,0.1c-0.5,0.1-0.9,0.2-1.2,0.4c-0.3,0.1-0.5,0.4-0.6,0.6c-0.2,0.3-0.2,0.6-0.2,1c0,0.5,0.2,1,0.5,1.4c0.3,0.4,0.8,0.5,1.4,0.5c0.2,0,0.4,0,0.6-0.1c0.1,0,0.2-0.1,0.3-0.1c0.3-0.2,0.6-0.4,0.8-0.6c0,0,0,0.1,0,0.2c0.1,0.2,0.1,0.4,0.2,0.5h1.5c-0.1-0.3-0.2-0.6-0.3-0.8C93.6,57.4,93.6,57,93.6,56.5L93.6,56.5z M92.1,55.9c0,0.4,0,0.7-0.1,0.8c0,0.2-0.2,0.4-0.4,0.6c-0.2,0.2-0.4,0.3-0.6,0.3h-0.2c-0.2,0-0.4-0.1-0.6-0.3c-0.2-0.2-0.2-0.4-0.2-0.6s0.1-0.4,0.3-0.6c0.1-0.1,0.4-0.2,0.7-0.3h0.1c0.4-0.1,0.7-0.2,0.9-0.3L92.1,55.9L92.1,55.9z"/><path class="st1" d="M106.1,54.6c0,0.7,0,1.2-0.1,1.5c0,0.3-0.2,0.6-0.4,0.8c-0.2,0.2-0.6,0.3-1,0.3c-0.4,0-0.8-0.1-1.1-0.3c-0.2-0.2-0.4-0.5-0.5-0.9c0-0.2-0.1-0.7-0.1-1.5v-4.8h-1.6v4.8c0,1,0,1.7,0.2,2.2c0,0.4,0.2,0.7,0.4,1c0.2,0.3,0.5,0.6,0.9,0.8c0.4,0.2,1,0.3,1.7,0.3c0.6,0,1.1-0.1,1.5-0.3c0.4-0.2,0.7-0.4,1-0.7c0.2-0.3,0.4-0.7,0.4-1.1c0.1-0.4,0.2-1.2,0.2-2.2v-4.7h-1.6L106.1,54.6L106.1,54.6z"/><rect x="95.2" y="49.7" class="st1" width="1.5" height="8.9"/><path class="st1" d="M86.5,52.2c-0.2,0.1-0.4,0.4-0.6,0.8v-0.9h-1.4v6.4h1.5v-2c0-1.1,0-1.8,0.1-2.2c0.1-0.4,0.2-0.6,0.4-0.7c0.1-0.2,0.3-0.2,0.5-0.2s0.4,0.1,0.7,0.3l0.4-1.5c-0.3-0.2-0.6-0.3-1-0.3C86.9,52,86.7,52.1,86.5,52.2L86.5,52.2z"/><path class="st1" d="M153.6,52.1l-1.3,4.6l-1.4-4.6h-1.6l2.2,6.5c-0.1,0.4-0.2,0.6-0.4,0.9c-0.2,0.2-0.4,0.4-0.8,0.4c-0.2,0-0.4,0-0.6-0.1l0.2,1.3c0.3,0.1,0.6,0.1,0.9,0.1s0.6,0,0.8-0.1c0.2-0.1,0.4-0.2,0.6-0.3c0.2-0.1,0.3-0.3,0.4-0.5c0.1-0.2,0.2-0.5,0.4-0.9l0.4-1.1l2-6.2L153.6,52.1L153.6,52.1z"/><path class="st1" d="M148.2,57.3c-0.1,0-0.2,0-0.3-0.1c0-0.1-0.1-0.2-0.1-0.2c0-0.1,0-0.4,0-0.9v-2.6h1v-1.4h-1v-2.3l-1.5,1v1.3h-0.7v1.4h0.7v2.8c0,0.6,0,1,0,1.2c0,0.3,0.1,0.5,0.2,0.6c0.1,0.2,0.3,0.3,0.5,0.4c0.2,0.1,0.5,0.2,0.7,0.2c0.5,0,0.9-0.1,1.2-0.2l-0.1-1.3C148.5,57.2,148.3,57.3,148.2,57.3L148.2,57.3z"/><rect x="143" y="52.1" class="st1" width="1.5" height="6.4"/><rect x="143" y="49.7" class="st1" width="1.5" height="1.6"/><path class="st1" d="M130.8,55.8c0-1.3-0.2-2.3-0.7-2.9c-0.5-0.6-1.1-0.9-1.9-0.9h-0.1c-0.8,0-1.4,0.3-1.9,0.9c-0.5,0.6-0.7,1.4-0.7,2.5c0,0.9,0.1,1.6,0.6,2.2c0.4,0.7,1.2,1.1,2.1,1.1h0.1c0.6,0,1.1-0.2,1.6-0.5c0.4-0.3,0.7-0.8,0.9-1.4l-1.5-0.3c-0.1,0.3-0.2,0.5-0.4,0.7c-0.2,0.1-0.4,0.2-0.6,0.2h-0.1c-0.3,0-0.6-0.2-0.8-0.4c-0.2-0.3-0.3-0.7-0.4-1.2L130.8,55.8L130.8,55.8z M127.1,54.8c0-0.5,0.1-0.8,0.3-1.1c0.2-0.2,0.5-0.4,0.8-0.4s0.6,0.1,0.8,0.4c0.2,0.2,0.3,0.6,0.3,1.1H127.1z"/><path class="st1" d="M134.2,52.2c-0.2,0.1-0.4,0.4-0.6,0.8v-0.9h-1.4v6.4h1.5v-2c0-1.1,0-1.8,0.2-2.2c0.1-0.4,0.2-0.6,0.3-0.7c0.2-0.2,0.3-0.2,0.6-0.2c0.2,0,0.4,0.1,0.7,0.3l0.5-1.5c-0.3-0.2-0.6-0.3-1-0.3C134.6,52,134.4,52.1,134.2,52.2L134.2,52.2z"/><path class="st1" d="M139.3,54.5c-0.8-0.2-1.3-0.4-1.4-0.5c-0.1-0.1-0.2-0.2-0.2-0.3c0-0.2,0-0.3,0.2-0.4c0.2-0.1,0.5-0.2,0.9-0.2c0.3,0,0.6,0.1,0.7,0.2c0.2,0.2,0.3,0.3,0.3,0.6l1.4-0.3c-0.2-0.6-0.4-1-0.8-1.3c-0.4-0.3-1-0.4-1.7-0.4c-0.8,0-1.4,0.2-1.8,0.6c-0.4,0.3-0.6,0.8-0.6,1.4c0,0.6,0.2,1.1,0.7,1.4c0.3,0.3,1.1,0.6,2.3,0.8c0.2,0.1,0.4,0.2,0.5,0.2c0.1,0.1,0.1,0.2,0.1,0.3c0,0.2-0.1,0.3-0.2,0.4c-0.2,0.2-0.5,0.2-0.9,0.2c-0.4,0-0.6-0.1-0.9-0.2c-0.2-0.2-0.3-0.4-0.4-0.8l-1.5,0.2c0.1,0.6,0.4,1.1,0.9,1.5c0.4,0.4,1.1,0.5,1.9,0.5c0.8,0,1.5-0.2,1.9-0.6c0.4-0.4,0.7-0.9,0.7-1.5c0-0.6-0.2-1-0.5-1.3C140.7,55,140.1,54.7,139.3,54.5L139.3,54.5z"/><path class="st1" d="M46.6,53c-0.4-0.6-0.8-0.9-1.3-1c-0.1,0-0.3,0-0.4,0c-0.7,0-1.3,0.3-1.7,0.8c-0.5,0.6-0.7,1.4-0.7,2.5c0,0.8,0.2,1.5,0.5,2.2c0.4,0.7,1,1.1,1.8,1.1c0.2,0,0.3,0,0.5,0c0.5-0.1,0.9-0.4,1.2-1v1c0,0.4,0,0.6-0.1,0.8c0,0.2-0.2,0.4-0.3,0.4c-0.2,0.1-0.5,0.2-0.9,0.2c-0.3,0-0.6,0-0.7-0.2c-0.1-0.1-0.2-0.2-0.2-0.5L42.6,59v0.2c0,0.6,0.2,1,0.6,1.4c0.4,0.4,1,0.6,2,0.6h0c0.5,0,0.9-0.1,1.3-0.2c0.3-0.1,0.6-0.3,0.8-0.5c0.2-0.2,0.4-0.5,0.5-0.9c0.1-0.4,0.2-0.9,0.2-1.7v-5.8h-1.4V53z M46.1,56.7c-0.2,0.3-0.5,0.5-0.9,0.5h0c-0.4,0-0.6-0.2-0.9-0.5c-0.2-0.3-0.4-0.8-0.4-1.5s0.1-1.2,0.4-1.5s0.5-0.5,0.9-0.5c0.4,0,0.7,0.2,0.9,0.5c0.2,0.3,0.4,0.8,0.4,1.5C46.5,55.9,46.4,56.4,46.1,56.7L46.1,56.7z"/><path class="st1" d="M23.3,52.7c-0.1-0.2-0.4-0.4-0.6-0.5c-0.2-0.2-0.6-0.2-0.9-0.2c-0.8,0-1.4,0.3-1.9,1.1v-1h-1.4v6.4H20v-2.9c0-0.7,0-1.2,0.1-1.5c0.1-0.2,0.2-0.5,0.4-0.7c0.2-0.2,0.4-0.2,0.7-0.2c0.2,0,0.4,0.1,0.5,0.2c0.1,0.1,0.2,0.3,0.3,0.5c0.1,0.2,0.1,0.7,0.1,1.4v3.3h1.5v-4c0-0.5,0-0.9-0.1-1.1C23.6,53.2,23.5,53,23.3,52.7L23.3,52.7z"/><rect x="15.3" y="49.7" class="st1" width="1.5" height="1.6"/><path class="st1" d="M30.1,56.5v-2c0-0.8,0-1.3-0.2-1.5c-0.1-0.3-0.3-0.5-0.7-0.7c-0.3-0.2-0.8-0.2-1.5-0.2h-0.1c-0.7,0-1.2,0.2-1.6,0.4s-0.7,0.8-0.8,1.4l1.4,0.3c0.1-0.3,0.2-0.5,0.4-0.6c0.2-0.1,0.4-0.2,0.6-0.2c0.4,0,0.6,0.1,0.8,0.2c0.2,0.2,0.2,0.4,0.2,0.7v0.2c-0.2,0.1-0.5,0.2-1,0.3c-0.2,0-0.3,0.1-0.4,0.1c-0.5,0.1-0.9,0.2-1.2,0.4c-0.3,0.1-0.5,0.4-0.6,0.6c-0.2,0.3-0.2,0.6-0.2,1c0,0.5,0.2,1,0.5,1.4c0.4,0.4,0.8,0.5,1.4,0.5c0.2,0,0.4,0,0.6-0.1c0.1,0,0.2-0.1,0.3-0.1c0.3-0.2,0.6-0.4,0.8-0.6c0,0,0,0.1,0.1,0.2c0,0.2,0.1,0.4,0.1,0.5h1.5c-0.2-0.3-0.2-0.6-0.3-0.8C30.1,57.4,30.1,57,30.1,56.5L30.1,56.5z M28.6,55.9c0,0.4,0,0.7,0,0.8c-0.1,0.2-0.2,0.4-0.4,0.6c-0.2,0.2-0.4,0.3-0.6,0.3h-0.2c-0.2,0-0.4-0.1-0.6-0.3c-0.2-0.2-0.2-0.4-0.2-0.6s0.1-0.4,0.3-0.6c0.1-0.1,0.4-0.2,0.7-0.3h0.1c0.4-0.1,0.7-0.2,0.9-0.3L28.6,55.9L28.6,55.9z"/><path class="st1" d="M3.6,51.1c0.4,0,0.8,0.1,1.1,0.4c0.3,0.2,0.5,0.6,0.6,1.1l1.6-0.4c-0.2-0.7-0.4-1.2-0.8-1.6c-0.6-0.6-1.4-1-2.4-1c-1.1,0-2,0.4-2.7,1.2c-0.7,0.8-1,2-1,3.4c0,1.4,0.3,2.5,1,3.3c0.7,0.8,1.6,1.2,2.6,1.2c0.8,0,1.5-0.2,2.1-0.7c0.6-0.5,0.9-1.2,1.2-2.2l-1.5-0.5C5.2,56,5,56.4,4.7,56.7C4.4,57,4,57.2,3.6,57.2c-0.6,0-1.1-0.2-1.4-0.7c-0.3-0.5-0.5-1.3-0.5-2.4s0.2-1.8,0.6-2.3C2.6,51.3,3,51.1,3.6,51.1L3.6,51.1z"/><path class="st1" d="M37.8,49.7h-0.8l-3.1,8.9h1.7l0.7-2h3.1l0.7,2h1.8l-3.2-8.9H37.8L37.8,49.7z M37.8,55h-1.1l1.1-3.3l0,0l1,3.2C38.8,55,37.8,55,37.8,55z"/><path class="st1" d="M13.2,52.8c-0.1-0.2-0.3-0.4-0.6-0.6c-0.3-0.2-0.6-0.2-1-0.2c-0.7,0-1.2,0.3-1.7,1v-3.3H8.4v8.9h1.5v-3.2c0-0.6,0.1-1,0.1-1.2c0.1-0.3,0.2-0.5,0.4-0.7c0.2-0.1,0.4-0.2,0.7-0.2c0.2,0,0.4,0.1,0.5,0.2c0.2,0.1,0.2,0.3,0.3,0.4c0,0.2,0.1,0.6,0.1,1.3v3.4h1.5v-3.8c0-0.6,0-1-0.1-1.3C13.4,53.2,13.4,53,13.2,52.8L13.2,52.8z"/><rect x="15.3" y="52.1" class="st1" width="1.5" height="6.4"/><rect x="70.5" y="49.7" class="st1" width="1.5" height="8.9"/><path class="st1" d="M81.2,54.9c0,0.9,0,1.5-0.1,1.8c-0.1,0.2-0.2,0.5-0.4,0.6c-0.2,0.2-0.4,0.2-0.7,0.2c-0.2,0-0.4-0.1-0.6-0.2c-0.1-0.1-0.2-0.3-0.3-0.5c-0.1-0.2-0.1-0.8-0.1-1.7v-3h-1.5v4.1c0,0.6,0.1,1.1,0.2,1.4c0.2,0.3,0.4,0.6,0.6,0.8c0.3,0.2,0.6,0.3,1,0.3c0.4,0,0.8-0.1,1.1-0.3c0.4-0.2,0.6-0.5,0.8-0.8v1h1.4v-6.4h-1.5L81.2,54.9L81.2,54.9z"/><path class="st1" d="M75.8,57.3c-0.1,0-0.2,0-0.3-0.1c-0.1-0.1-0.1-0.2-0.1-0.2c0-0.1,0-0.4,0-0.9v-2.6h1v-1.4h-1v-2.3l-1.5,1v1.3h-0.7v1.4h0.7v2.8c0,0.6,0,1,0,1.2c0,0.3,0.1,0.5,0.2,0.6c0.1,0.2,0.2,0.3,0.5,0.4c0.2,0.1,0.4,0.2,0.7,0.2c0.4,0,0.8-0.1,1.2-0.2l-0.1-1.3C76.1,57.2,75.9,57.3,75.8,57.3L75.8,57.3z"/><path class="st1" d="M51.7,52.2c-0.2,0.1-0.4,0.4-0.7,0.8v-0.9h-1.4v6.4h1.5v-2c0-1.1,0-1.8,0.1-2.2c0.1-0.4,0.2-0.6,0.3-0.7c0.1-0.2,0.3-0.2,0.5-0.2c0.2,0,0.5,0.1,0.7,0.3l0.5-1.5c-0.3-0.2-0.7-0.3-1-0.3C52.1,52,51.8,52.1,51.7,52.2L51.7,52.2z"/><path class="st1" d="M67.3,54.9c0,0.9,0,1.5-0.1,1.8c-0.1,0.2-0.2,0.5-0.4,0.6s-0.4,0.2-0.7,0.2s-0.4-0.1-0.6-0.2s-0.2-0.3-0.3-0.5c0-0.2-0.1-0.8-0.1-1.7v-3h-1.5v4.1c0,0.6,0,1.1,0.2,1.4c0.1,0.3,0.4,0.6,0.6,0.8c0.3,0.2,0.6,0.3,1.1,0.3c0.4,0,0.7-0.1,1.1-0.3c0.3-0.2,0.6-0.5,0.8-0.8v1h1.4v-6.4h-1.5L67.3,54.9L67.3,54.9z"/><rect x="54.1" y="52.1" class="st1" width="1.5" height="6.4"/><rect x="54.1" y="49.7" class="st1" width="1.5" height="1.6"/><path class="st1" d="M60.5,57c-0.2,0.2-0.4,0.3-0.7,0.3c-0.4,0-0.7-0.2-0.9-0.5c-0.2-0.3-0.4-0.8-0.4-1.6c0-0.7,0.1-1.2,0.4-1.5c0.2-0.3,0.5-0.4,0.9-0.4c0.3,0,0.5,0.1,0.7,0.3c0.2,0.2,0.3,0.4,0.4,0.7l1.5-0.3c-0.2-0.7-0.5-1.2-0.9-1.6c-0.4-0.3-1-0.5-1.6-0.5c-0.9,0-1.5,0.3-2.1,0.9c-0.5,0.6-0.7,1.4-0.7,2.5s0.2,1.9,0.7,2.5c0.5,0.6,1.2,0.9,2,0.9c0.7,0,1.3-0.2,1.8-0.6c0.4-0.4,0.7-1,0.9-1.7l-1.5-0.3C60.8,56.6,60.7,56.9,60.5,57L60.5,57z"/></g><g><g><path class="st2" d="M88.1,36.3c0.1,0,0.2-0.1,0.2-0.1c0,0,0.1,0.1,0.2,0.1c0.1,0,0-0.1,0.1-0.1c0.1,0,0.1,0.1,0.2,0.1c0,0,0.1,0.1,0.1,0.1c-0.1,0-0.1,0.1-0.2,0.2c0,0-0.1,0-0.2,0.1c-0.1,0-0.2,0.1-0.2,0.1c-0.1,0-0.2,0-0.2,0.1c0,0.1,0,0.1,0,0.2c0,0.1-0.1,0.2,0,0.2c0,0.1,0,0.2,0,0.3c0,0.2-0.1,0.3-0.1,0.4c0,0.1-0.1,0.5-0.2,0.7c-0.1,0.1-0.5,0.1-0.7,0.2c-0.2,0-0.4,0-0.6,0c-0.1-0.1-0.6-0.3-0.7-0.5c-0.1,0-0.4-0.4-0.4-0.5c0-0.1-0.1-0.6,0-0.8c0-0.2,0-0.8,0-0.8c0-0.1,0.5-0.6,0.7-0.8c0.2-0.2,0.3-0.3,0.5-0.3c0.2,0,0.6,0,0.7,0c0.2,0,0.4,0.3,0.6,0.4c0.1,0.1,0.2,0.3,0.2,0.3c0.1,0.1,0,0.1,0,0.2C87.9,36.1,88,36.3,88.1,36.3L88.1,36.3L88.1,36.3z"/><path class="st2" d="M86.1,16.2c0.1,0,0.3,0.2,0.4,0.4c0,0.2,0,0.7,0,0.7s0.2,0,0.4-0.1c0.2-0.1,0.3-0.2,0.4-0.2c0.1,0,0.3,0.2,0.3,0.2s-0.3,0.5-0.3,0.6c0,0.2-0.1,1.2-0.2,1.5c-0.2,0.3-0.5,0.6-1,0.7c-0.4,0.1-0.9-0.1-1.1-0.3c-0.2-0.2-0.3-0.4-0.2-0.8c0.1-0.4,0.1-0.8,0.1-0.9c0-0.2,0.2-0.4,0.5-0.8c0.2-0.3,0.3-0.5,0.5-0.7C85.9,16.2,86,16.2,86.1,16.2L86.1,16.2L86.1,16.2z"/><path class="st2" d="M103.8,17.6c-0.2-0.1-0.6-0.3-1-0.3c-0.4,0-0.7,0.2-0.8,0.3c-0.1,0.1-0.8,0.3-1.2,0.3c-0.3,0-0.7,0.1-0.9,0.2c-0.2,0.1-0.7,0-0.9,0.1c-0.2,0-0.5,0.1-0.8,0.1c-0.4,0-1,0.3-1.2,0.3c-0.2,0-0.5,0-0.7,0h-0.1c-0.2,0-0.4,0.2-0.5,0.3c-0.1,0-0.9,0.3-1.2,0.3h-0.7c-0.2,0-0.3,0-0.4,0.1c-0.3,0.2-0.4,0.2-0.7,0.2c-0.1,0-0.4,0.1-0.7,0.2c0,0-0.1,0-0.1,0c-0.4,0.1-0.9,0.2-0.9,0.2s0.2-0.2,0.2-0.4c0,0,0.3-0.2,0.6-0.3c0,0,0.1,0,0.1,0c0.3-0.1,0.6-0.3,0.8-0.4c0.2-0.1,0.5-0.5,0.9-0.8l0,0c0,0,0.1-0.1,0.1-0.1c0.1,0,0.1,0,0.1,0l0,0c0.2-0.2,0.3-0.3,0.4-0.3c0.2-0.2,0.4-0.3,0.6-0.3c0.2,0,0.5-0.2,0.8-0.4c0-0.1,0.2-0.2,0.5-0.5c0.4-0.4,1-0.8,1.1-1.1c0.2-0.4,0.8-1.2,1.1-1.6c0.2-0.4,0.4-0.9,0.3-1.1c-0.1-0.2-0.3-0.5-0.5-0.7c-0.2-0.1-0.7-0.2-1-0.2c-0.4,0.1-0.7,0.3-0.8,0.6c0,0.1-0.1,0.3-0.2,0.4c-0.1,0.2-0.2,0.5-0.3,0.8c-0.1,0.3-0.8,1.1-0.8,1.1s0.1-0.4,0.1-0.6c0-0.2,0.1-0.7,0.1-0.9c0-0.2-0.1-0.7-0.2-1c-0.2-0.2-0.5-0.7-1-0.8l0,0H94c0,0-0.1,0-0.2,0h-0.1c-0.3,0-0.5,0-0.6,0.1s-0.7,0.6-0.7,0.8c0,0.2,0,1.1,0,1.2c0,0.2-0.1,0.7-0.1,0.9c0,0.1-0.1,0.8-0.2,1.3c0,0.2-0.1,0.5-0.2,0.6c0,0.1,0,0.1,0,0.2c-0.2,0.5-0.8,1.7-0.8,1.7s0-1.3,0.1-1.6c0-0.3,0.2-0.5,0.2-0.8c0-0.4,0.1-1.6,0.2-1.9c0.1-0.4,0.1-0.6-0.1-1c-0.2-0.5-0.9-0.8-1-0.9c-0.2-0.1-0.7-0.3-1-0.3c-0.3,0-0.4,0.1-0.6,0.2c-0.2,0.1-0.4,0.4-0.5,0.7c-0.1,0.3-0.4,0.7-0.4,0.7l0.1,0c0,0,0.1,0.5,0,0.8c-0.1,0.3,0.1,0.5,0.2,0.9c0.2,0.3,0.2,0.7,0.2,0.9c0.1,0.3,0.2,0.8,0.2,1.1c0,0.2,0,0.9-0.1,1.1c-0.1,0.2,0,0.4,0.1,0.6c0.1,0.3,0.2,0.4,0.3,0.6c0,0.2,0.4,0.2,0.7,0.2s0.3-0.1,0.7-0.2c0.4-0.1,0.7-0.5,0.7-0.5s0.1,0.1,0.2,0.3c0.1,0.2,0,0.3-0.1,0.4c-0.1,0.1-0.3,0.3-0.3,0.3s0,0.1,0.1,0.1c0.2,0,0.3,0.3,0.3,0.3l-0.2,0c0,0-0.2-0.2-0.5-0.3c-0.2,0-0.2,0.1-0.5,0.4c-0.2,0.2-0.8,0.4-1.1,0.6c-0.3,0.2-1.6,0.7-1.9,0.8c-0.4,0.1-0.5,0.1-0.9,0.2c-0.3,0.1-1,0.6-1.3,0.7c-0.3,0.1-0.4,0.1-0.6,0.1c-0.1,0-0.3,0.3-0.6,0.5s-0.5,0.2-0.8,0.2c-0.3,0-0.5,0.2-0.8,0.4c-0.3,0.2-1.3,0.7-1.7,0.9c-0.4,0.2-0.6,0.3-0.9,0.3c-0.4,0-0.6,0-0.7,0.2c-0.2,0.2-0.3,0.5-0.4,0.8c-0.1,0.2,0.2,0.5,0.6,0.7c0.3,0.2,1.2,0.4,1.3,0.2c0.2,0,0.4-0.5,0.5-0.7c0.1-0.2,0.5-0.3,0.9-0.5c0.3-0.2,1.3-0.8,3.1-1.6c1.8-0.8,4.8-1.7,4.8-1.7v0.7c0,0.3-0.1,0.5,0.2,0.9c0.2,0.4,0.5,0.6,0.5,0.8c0,0.3-0.1,0.3-0.5,0.6c-0.3,0.2-1.2,1.4-1.4,1.5c-0.3,0.1-0.5,0.2-0.7,0.4c-0.2,0.2,0,0.3,0,0.5c0.1,0.2,0.2,0.3,0.4,0.2c0.3,0,0.4,0.1,0.8,0c0.3-0.1,0.9-0.1,1.2-0.2c0.4-0.1,1.4-0.4,1.4-0.4s0,0.1,0,0.3c0,0.1-0.1,0.6-0.2,0.8c0,0.2-0.5,0.5-0.8,0.7c-0.3,0.1-0.7,0.5-1,0.5c-0.2,0.1-0.3,0.3-0.4,0.3c-0.2,0.1-1.2,0.4-1.3,0.4c-0.2,0-0.2,0.5-0.2,0.8s0.8,0.5,0.9,0.5c0.2,0,0.4-0.1,0.9-0.2c0.4-0.1,1.2-0.3,1.4-0.4c0.2,0,0.1,0.4,0.1,0.4l-0.5,0.5c0,0-0.2,0-0.4,0c-0.2,0.1-0.5,0.4-0.7,0.5c-0.2,0.1-0.9,0.2-1.4,0.4c-0.4,0.1-0.8,0.4-0.8,0.4s-0.1,0.8,0.1,0.9c0.1,0.2,0.6,0.3,0.9,0.3c0.2,0,0.6-0.1,0.9-0.3c0.3-0.2,1.3-0.7,1.5-0.8c0.2-0.1,0.5,0.1,0.5,0.1s0,0.1,0,0.4s0.1,1,0.1,1s-0.1,0.1-0.3,0.3c-0.2,0.2-0.7,0.4-0.7,0.4s0,0.3,0.1,0.3c0.2,0,0.7,0,0.7,0s0.2,0.3,0.1,0.6c0,0.3,0.1,0.8,0,1C91,37.5,91,37.8,91,37.8s-0.2-0.3-0.5-0.5c-0.3-0.2-0.3-0.2-0.4-0.1c-0.1,0.2,0,0.4,0.1,0.6c0.1,0.2,0.2,0.4,0.2,0.6s0,1.3,0,1.5c0,0.1,0.5,0.5,0.7,0.6c0.2,0.1,0.7,0.2,1,0.3c0.1,0,0.1,0,0.2,0c0.1,0,0.1,0,0.2,0c0.2,0,0.7-0.2,0.9-0.6c0.2-0.4,0.3-1.2,0.4-1.4c0-0.3,0-1,0-1l0.2-0.1l0.1-0.2h0c0,0,0.1,0,0.1,0h0c0.1,0,0.2,0,0.2-0.1c0.1-0.1,0.4-0.1,0.8-0.1h1.2c0.1,0,0.2,0,0.2,0c0.3,0,0.7-0.3,0.9-0.5c0.2-0.2,0.3-1,0.3-1s-0.5-0.7-0.7-0.8c-0.2-0.1-0.4-0.2-0.7-0.2h0c-0.2,0-0.3,0-0.6-0.2c-0.3-0.2-0.7-0.2-0.9-0.2c-0.2,0-0.5-0.2-0.6-0.2c0,0-0.1,0-0.1,0h-0.2l-0.1-0.5l0.1-0.3c0,0,0,0,0-0.1c0.1,0,0.1-0.1,0.1-0.2v-0.1c0-0.1,0-0.2,0-0.2v0l0,0v0c0.1-0.2,0.2-0.3,0.5-0.3c0.2-0.1,0.6-0.2,0.8-0.3c0.3-0.1,0.6-0.2,0.8-0.3c0,0,0.1-0.1,0.2-0.2c0.1-0.1,0.1-0.2,0.1-0.4c0-0.2,0-0.4-0.1-0.5c0-0.1,0-0.2-0.1-0.2c-0.1-0.1-0.6-0.1-0.6-0.1s-0.2-0.1-0.3-0.2c-0.1-0.1-0.4,0-0.4,0L94.5,30c0,0,0.7-0.2,0.9-0.2c0.2-0.1,0.5-0.3,0.6-0.4c0-0.1,0.2-0.3,0.2-0.5c0-0.1,0-0.2,0-0.3c-0.1-0.2-0.2-0.7-0.4-0.7c-0.1,0-0.4-0.3-0.7-0.3c-0.2,0-0.7-0.1-0.8-0.2c-0.1-0.1-0.3-0.3-0.4-0.5c0-0.1,0.2-0.2,0.3-0.4c0.1-0.1,0.6-0.1,0.7-0.1c0.2,0,0.5,0,0.6-0.2s0.5-0.2,0.5-0.4v-0.1c0-0.1,0.1-0.2,0.1-0.3s-0.1-0.3-0.1-0.4v-0.1c-0.1-0.2-0.3-0.4-0.5-0.4c-0.2,0-0.6-0.2-0.9-0.3c-0.2,0-0.6,0.1-0.6,0.1s0-0.2,0-0.3c0-0.1,0.2-0.3,0.4-0.5c0.1-0.1,0.2-0.3,0.3-0.5c0.1-0.2,0.3-0.5,0.3-0.7c0-0.1,0.1-0.7,0-0.8c-0.1-0.1-0.7-0.5-0.7-0.5s0.5-0.1,0.7-0.2c0.2,0,0.6-0.1,0.9-0.2c0,0,0.1,0,0.1,0c0.4-0.1,0.6-0.2,1.1-0.2c0.5,0,2.6-0.4,3.1-0.5c0.4,0,2.9-0.2,3-0.3s0.5-0.2,0.5-0.3c0.1-0.1,0.1-0.9,0.1-0.9S104,17.7,103.8,17.6L103.8,17.6z M92.7,21.6c-0.2,0.3-0.5,0.8-0.5,0.8s0,0,0,0c0,0,0,0-0.1-0.1C92,22.2,91.8,22,91.7,22c-0.2-0.2-0.4-0.3-0.4-0.3l0.8-0.2h0.1l0.7-0.2C92.8,21.2,92.8,21.4,92.7,21.6L92.7,21.6z M94,36.2C94,36.2,94,36.1,94,36.2l0.1,0c0.1-0.1,0.2-0.1,0.4-0.1c0.2,0,0.1,0.4,0.1,0.4l-0.4,0.3h0L94,36.8l-0.1,0L93.8,37l-0.1,0l0-0.4c0,0,0-0.2,0-0.4v-0.3l0.1,0.1L94,36.2L94,36.2z"/></g><path class="st2" d="M114.7,22.1c0,0-1.1,0.3-1.6,0.5c-0.5,0.2-1,0.3-1,0.3s-0.2-0.3-0.5-0.2c-0.3,0.2-1.5,0.6-1.7,0.8c-0.2,0.3-0.1,1.2,0,1.4c0.1,0.2,0.4,0.7,0.4,0.7s0.3,0.6,0.7,0.9c0.3,0.3,0.8,0.3,0.8,0.3h2.1c0,0-0.8,2.4-0.9,2.8c-0.1,0.4-0.8,1.5-0.7,1.7c0,0.3-0.5,0.2-0.5,0.4c0,0.2-0.7,1-0.8,1.2c-0.1,0.2-0.2,0.4-0.2,0.4l0,0l-0.6,0.2l-1.1,1.3l0,0c0,0,0.4,0.1,0.7-0.1c0.2-0.2,0.9-0.6,0.9-0.6s0.2,0.2,0.5,0.1c0.4,0,1.1-0.3,1.1-0.3s0.1,0.2,0.5,0c0.4-0.2,1.6-1.4,1.7-1.7c0-0.3,0-0.5,0.3-0.7c0.3-0.2,0.6-1.3,0.7-1.5c0.1-0.2,0.5-1,0.5-1s1.8,1.8,2,2.2c0.2,0.4,1.8,2.5,2.2,2.9c0.4,0.5,1.9,1.9,2.2,2.2c0.3,0.3,2,0.9,2.6,1c0.5,0.1,1.5,0.3,1.9,0.2c0.4,0,1.6-0.5,2.1-0.4c0.4,0,0.9-0.4,0.9-0.4l0,0l-0.1-0.3l-0.1-0.3l-0.3-0.2l0,0c0,0-2.7-1.9-3.1-2c-0.3-0.2-1.8-0.8-2-1c-0.2-0.3-3.1-2.6-3.8-3.2c-0.7-0.5-2.2-1.9-2.5-1.9c-0.3-0.1-0.4-0.1-0.7-0.2c-0.3-0.1-0.5-0.2-0.5-0.2s1-1.8,1.6-2.3c0.6-0.5,0.9-0.8,1.4-0.9c0.4-0.1,2.3-0.5,2.7-0.7c0.4-0.1,0.9-0.5,0.9-0.8c0-0.3,0-0.6,0.1-0.9c0-0.2,0.2-0.6,0.2-0.6l0,0l-0.2-0.6l0,0c0,0-1-0.4-1.4-0.6c-0.4-0.2-0.9-0.1-1.3,0c-0.3,0.1-0.9,0.2-0.9,0.2s-0.3-1.3-0.5-1.7c-0.1-0.4-0.4-1.1-1-1.5c-0.5-0.3-1.2-0.6-1.7-0.4c-0.6,0.2-1.1,0.8-1.2,0.9c-0.1,0.2-0.3,0.7-0.3,1.1s0,1.1-0.1,1.5c-0.1,0.3-0.2,1.1-0.2,1.1l0,0L114.7,22.1L114.7,22.1L114.7,22.1z"/><g><path class="st2" d="M147.4,8.4c0.3-0.1,0.5-0.1,0.7-0.2c0.2-0.1,0.2,0.1,0.4,0.2c0.2,0.1,0.2,0.2,0.2,0.2s-0.2,0.3-0.3,0.6c-0.1,0.2-0.2,0.6,0,0.8c0.1,0.2,0.3,0.3,0.3,0.3l0,0l0.5-0.1l0.2,0.1l0.4,0.1l0,0c0,0,0.2,0.5,0.1,0.7c-0.1,0.2-0.5,0.5-0.7,0.8c-0.1,0.3-1,1.2-1.1,1.5c-0.1,0.3-0.3,0.6-0.3,0.7c0,0.2-0.1,0.9-0.1,0.9l0,0l0.3,0.2l0,0c0,0,0-0.3,0.3-0.4c0.3-0.1,0.3-0.3,0.5-0.2c0.2,0.1,0-0.1,0.5,0c0.5,0,0.6,0,0.6,0l0,0l0.4,0.2l0.2,0.3l0,0c0,0-0.2,0.4-0.2,0.6c0,0.3-0.2,0.4-0.5,0.4c-0.3,0-0.7,0.3-0.7,0.3l0,0l-0.6,0.4l-0.5,0.3l0,0c0,0,0.5,0.2,0.6,0.5c0.1,0.2-0.1,0.5-0.1,0.8c0,0.2,0,0.7,0,0.7l0,0l-0.4,0.3l-0.6,0.5l0.4,0l0.4-0.2l0.4,0.2l0.3,0.1l0.3-0.2l0.3,0l0.2-0.1h0.9l0.3,0.1l0.3,0l0.2,0l0.5,0l0.5,0h0.3c0.2,0.2,0.1,0.2,0.4,0.3c0.2,0,0.6,0,0.6,0l0,0l0.3,0.1l0,0c0,0,0.2,0.4,0.5,0.5c0.2,0.3,0.4,0.6,0.3,1c0,0.3-0.2,1-0.2,1.2c0,0.2,0,0.6,0,0.6s-0.6,0.3-0.9,0.7c-0.3,0.4-1,0.9-1.2,1.1c-0.2,0.2-0.9,0.2-0.9,0.2s-0.3,0.2-0.6,0.3c-0.3,0.1-0.6-0.1-0.6-0.1v-0.6c0.1-0.2,0.4-0.4,0.4-0.4l0,0l0.4-0.5l0.1-0.4l0.5-0.1l0,0c0,0,0.2-0.5,0.7-0.9c0.4-0.3,0.3-0.7,0.3-0.7l0,0l-0.4-0.4l0,0c0,0-0.8-0.2-1.3-0.1c-0.5,0-1.4,0.3-2.1,0.3s-2.3,0.6-2.5,0.7c-0.2,0.1-1,0.3-1.2,0.4c-0.2,0.1-0.5,0.4-0.5,0.4l0,0l-0.4,0l0,0c0,0-0.3,0.5-0.5,0.5c-0.2,0-0.7,0.3-0.7,0.3s-0.9,0.9-1.1,1c-0.2,0.1-0.5,0-0.5,0s-0.9,0.8-1.1,0.8c-0.2,0.1-1.5,0.1-1.7,0c-0.2-0.1-0.5-0.5-0.5-0.7s0.1-0.5,0.1-0.5l0,0l0.6-0.2l0.4-0.3l0.9-0.5l0.7-0.2l0.6-0.4l0.4-0.4l0.4-0.2l0.5-0.5l0.5-0.5l0,0c0,0-0.9,0-1.4,0c-0.5,0-0.7-0.6-0.7-1c0-0.3,0.1-0.6,0.1-0.6l0,0l0.2-0.2l0,0c0,0,0-3.1,0-3.5c0-0.3,0-0.7,0-0.7l0,0l0.2-0.2l0,0v-1.8c0-0.3,0.1-0.6,0.3-0.6c0.2-0.1,0.5-0.5,0.8-0.6c0.2-0.1,0.3-0.2,0.6-0.2s0.6,0.3,0.6,0.3s0.3,0.4,0.4,0.8s-0.1,0.9-0.1,0.9l0,0l-0.2,0.2l0,0c0,0,0.1,0.9-0.1,1.4c-0.1,0.5-0.2,0.7-0.2,0.7s0,2.2,0,2.6c0,0.3,0,1-0.1,1.3c-0.2,0.2-0.3,0.6-0.3,0.6l0,0l0.1,0.3l0.3-0.1l0.5-0.2l0.6-0.4l0.6-0.4l0.6-0.7l0.4-0.7l0-0.9l0,0c0,0-0.6,0.3-0.9,0.5c-0.2,0.1-0.5,0.3-0.5,0.3s-0.7-0.3-0.7-0.4c0-0.2-0.1-0.7-0.1-0.7l0,0v-0.2l0.2-0.3v-0.2l0.6-0.5h0.4l0.5-0.3l0.4-0.4l0,0c0,0,0.1-0.4-0.1-0.7c-0.2-0.2-0.4-0.6-0.4-0.6l0,0l0.4-0.5l0.1-0.2l-0.4-0.3l-0.6-0.2l-0.2-0.5l0.2-0.6l0,0c0,0,0-0.5,0.3-0.7c0.2-0.2,0.9-0.9,0.9-0.9s0.1-0.7,0.1-1.2C147.1,8.8,147.4,8.4,147.4,8.4L147.4,8.4L147.4,8.4z"/><path class="st2" d="M139.8,13.8c0.3,0,0.4,0.2,0.7,0.5c0.2,0.3,0.4,0.6,0.5,0.8c0.1,0.3,0,0.4,0.1,0.8c0.1,0.4,0,0.8,0,0.8l0,0l-0.3,0.4l0,0c0,0,0.1,0.9,0,1.3c-0.1,0.4-0.4,0.6-0.4,0.6s0.5,0.3,0.4,0.6c0,0.2,0,1.6-0.2,1.9c-0.3,0.2-1,0.8-1,0.8s-0.4,0.4-0.7,0.4s-1.3-0.9-1.3-0.9s-0.4-0.3-0.5-0.7c0-0.3,0-1.5,0-1.5l0,0l0-0.8l0.1-0.5v-0.6l-0.2-0.4l0,0c0,0-0.2-1.1,0-1.4c0.2-0.2,0.3-0.4,0.3-0.4l0,0l0.1-0.4l0,0c0,0,0.5-0.4,0.7-0.7c0.3-0.2,0.9-0.5,0.9-0.5S139.5,13.7,139.8,13.8L139.8,13.8L139.8,13.8z"/><path class="st2" d="M136.2,25.4c0.2,0.2,0.3,0.5,0.3,0.5l0,0l-0.5,0.5l0,0c0,0,0,1,0,1.2v0.8l0,0v0.5l0,0c0,0,0.6,0.3,0.7,0.8c0,0.4-0.2,1.5-0.4,1.8c-0.2,0.3-0.7,0.7-0.9,0.8c-0.2,0-0.9-0.9-1-1.1c-0.2-0.3-0.4-0.9-0.2-1.4c0.1-0.5-0.2-1,0-1.3c0.2-0.3,0.2-0.8,0.2-0.8l0,0l0.3-0.5l0.2-0.7l0-0.4l0.5-0.4l0,0c0,0,0.2-0.1,0.5-0.1L136.2,25.4L136.2,25.4z"/><path class="st2" d="M143.4,26c0,0.5,0.1,0.7,0.4,0.9c0.3,0.2,0.7,0.6,0.9,0.7c0.2,0,0.5,0.1,0.5,0.1l0,0l-0.1,0.3l0,0c0,0-0.2,0.3-0.2,0.6c0,0.2,0.3,0.4,0.3,0.4s-0.1,1.1,0,1.4c0,0.2,0.3,0.6,0.3,0.6s-0.6,0.3-1,0.3c-0.3,0-0.9-0.3-1.1-0.2c-0.2,0.1-0.7,0.1-0.9,0.3c-0.2,0.2-0.6,0.4-0.6,0.4s-1.5,0.2-2.1,0.4c-0.6,0.2-1.3,0.6-1.5,0.7c-0.2,0-0.8,0.6-0.8,0.6l0,0l-0.2,0.4l0,0c0,0,0.2,0.8,0.2,1.1c0,0.4,0.5,1.2,0.5,1.2s0.2,0.2,0.6,0.1c0.4,0,1.6-0.2,1.6-0.2s0-0.3,0.4-0.4c0.3-0.1,0.6-0.3,0.9-0.3c0.4,0,0.9-0.5,0.9-0.5s0.9-0.2,1.2-0.2c0.4-0.1,0.6,0,1.1-0.2c0.4-0.2,0.7-0.4,0.7-0.4l0,0l0.7-0.1l0,0c0,0-0.2,0.8-0.2,1c0,0.2,0,0.8-0.4,1.3c-0.4,0.4-0.6,0.6-0.6,0.6l0,0l0,0.4l-0.4,0.4l0,0c0,0-0.8-1-1.1-1c-0.3-0.1-0.6-0.1-0.7,0.1c-0.1,0.2,0,1,0.1,1.3c0,0.3,0,0.7,0,0.7l0,0l0.2,0.4l0,0c0,0-0.2,1.3,0.1,1.4c0.3,0.1,0.5,0.3,0.5,0.3l0,0l0.7,0l0,0c0,0,0.9-0.1,1-0.4c0.1-0.3,0.4-0.3,0.4-0.3l0,0l0.4-0.5l0,0c0,0,0.4-0.9,0.7-1.4c0.4-0.5,0.5-0.9,0.5-1.1c0-0.2,0.4-0.6,0.3-1.3c-0.1-0.7-0.1-2.3-0.1-2.3s2,0,2.6-0.1c0.5-0.1,0.9-0.3,0.8-0.6c-0.2-0.2,0.3-0.7,0.3-1c0-0.3-0.4-1.2-0.5-1.4c-0.1-0.2-0.1-0.2-0.8-0.2s-1.5,0.1-1.9,0.2c-0.4,0.1-1,0.4-1.2,0.2c-0.2-0.2-0.7-0.7-0.7-0.8v-0.9c0,0,0.7-1,0.8-1.4c0.1-0.3,0.2-1.3-0.1-1.7c-0.3-0.4-0.4-0.9-0.8-0.9c-0.4-0.1-1.4-0.1-1.8,0.1C144,25,143.4,25.4,143.4,26L143.4,26L143.4,26z"/></g><path class="st2" d="M17.9,16.8c-0.9-1.4-2.4-2.6-5.4-1.9h-0.1c-0.6,0.1-1.2,0.3-1.9,0.6c-0.2,0-0.3-1.2,0-1.9c0.3-0.8,0.4-2.5-1.5-2.3c-1.3,0.1-1,1.1-1.1,1.6c-0.1,0.6,0,3.2-0.2,3.8c-0.5,1-1.9,1.3-2.5,2.2c-0.6,1-0.5,2,0.8,2.1c1.2,0,1.9-0.5,1.9-0.2c0,0.2,0.1,3-0.2,3.4c-0.2,0.3-3.4,1.5-3.6,2.4c0.1-1,0.1-2.8-0.3-3.7c-0.4-0.9-1.9-2.1-2.9-0.9c-1.1,1.3-0.7,2.4-0.4,4.3c0.2,1.9,2.4,2.2,3,1.6c0.2-0.1,0.4-0.2,0.9-0.2c1.2,0,2.7-0.2,3.2-0.3c0,1.2,0.2,7.2,0.1,9.3c-0.1,2,0.2,4.3,0.7,5.1c0.1,0.2,0.2,0.5,0.2,0.8c0.1,0.9,0.5,1.5,0.9,0c0.3-1.6,0.1-2.3,0.6-3.4c0.6-1.1,0-9.3,0.5-12.1c0.2-0.6,1.4-0.6,2.2-0.8c0.1,0,0.1,0,0.1,0c0.2,0,0.5-0.1,0.6-0.2c0.8-0.5-0.3-1.2,1.4-2.2c1.4-0.8,3.4-3.7,3.5-5.7v-0.5C18.1,17.2,18,17,17.9,16.8L17.9,16.8z M14.7,18.9c-0.5,1.1-0.9,2.5-2.2,3.4c0,0,0,0-0.1,0c-0.1,0.1-0.3,0.2-0.5,0.3c-1.6,0.9-1.7,0.6-1.7,0c0-0.7,0-1.7,0-2c0,0-0.2-1.4,0.8-1.7c0.3-0.1,0.8-0.3,1.4-0.4l0,0C13.7,18.2,15,18,14.7,18.9L14.7,18.9z"/><g><path class="st2" d="M25.7,23.6c0.3-1.4,0.7-3.6,1.9-3.8c0.4-0.1,1.2-0.1,1.9,0.6c0.6,0.7-0.2,3.8-0.5,5.8c-0.2,2-0.6,5.6,0,7.3c0.6,1.6,0,3.3-1,3.6c-0.9,0.3-2.4-0.5-2.5-3.4C25.3,30.7,25.3,25.6,25.7,23.6L25.7,23.6L25.7,23.6z"/><path class="st2" d="M39,19.7c0.1-0.1-0.1-0.7,0-1.2c0.1-0.4,0.2-0.7,0.8-0.9c1.3-0.5,1.7,0,2,0.2c0.4,0.1,1,0.7,1.1,1.3c0.1,0.6,0,1.2-0.5,1.5c-0.5,0.3-1.3,0.4-1.5,0.6c-0.2,0.2-0.8,0.2-0.9,0C39.8,21,38.9,19.9,39,19.7L39,19.7L39,19.7z"/><path class="st2" d="M39.8,21.5c0,0-0.3,0.7,0.2,0.8c0.5,0,0.4-0.2,0.3-0.6C40.4,21.4,39.9,21.4,39.8,21.5L39.8,21.5L39.8,21.5z"/><path class="st2" d="M42.8,14.9c-2.5-1.4-5.6-0.6-7.6,0.2c-0.1,0-0.2,0.1-0.4,0.2c-0.2,0-0.3,0.1-0.4,0.2c-0.1,0-0.1,0.1-0.2,0.1c-0.3,0.2-0.6,0.3-0.7,0.4c0,0-0.1,0.1-0.2,0.1c0,0,0,0,0,0.1c-0.8,0.6-1.8,1.3-1.4,2.1c0.3,0.8,1,0.8,1.3,0.6c0.1,0,0.2-0.1,0.2-0.1c0.1,0,0.1,0,0.1,0c0.2,0,0.5,0,0.7,0.5c0,0.1,0,0.1,0.1,0.2c0.2,0.5,0.2,0.8,0,1.1c0,0-0.1,0-0.1,0.1c0,0-0.3,0.2-0.5,0.3c-0.1,0-0.1,0-0.2,0.1c-0.7,0.4-1.7,1-1.1,1.5c0.5,0.5,0.8,0.8,1.1,1c0.2,0.1,0.3,0.2,0.4,0.2c0,0,0.1,0.1,0.2,0.1c0.2,0,0.1,0-0.2,0.1c-0.1,0-0.2,0-0.4,0.1c-0.3,0.1-0.7,0.3-1.1,0.6c-0.7,0.6-1.1,0.7-1.3,1.5c-0.2,0.8-0.5,1.5,0.1,2.4c0.6,0.9,1.2,1,1.9,1.1c0.7,0,0.2,0.7-0.1,1c-0.2,0.3-1.2,1.7-1.3,2.4c-0.1,0.7,1,1.3,1.6,1.1c0,0,0.1,0,0.2,0c0.3-0.1,0.6-0.2,0.9-0.4l0,0c0,0,0.1,0,0.2-0.1c0.2-0.2,0.5-0.4,0.8-0.6c0.2-0.2,0.3-0.3,0.5-0.5c0,0,0-0.1,0.1-0.1c0.9-1,1.8-1.7,2.1-2c0.2-0.3-0.2,0.7-0.5,1c-0.3,0.3-1.3,2-0.1,1.9c1.2-0.1,1.9-1,2.1-1.1c0.2-0.2,0.3,0.2,0.6,0.5c0.2,0.4,1.6-0.2,1.8-0.8c0.2-0.6,0-0.8-0.3-1.2c-0.3-0.3-0.3-1,0.1-1.8c0.5-0.8,0.9-2,1.2-2.4c0.2-0.3,0.5-1.8-0.3-2.1c-0.9-0.4-1.9-0.1-2.3,1.3c-0.5,1.4-1.2-1.9-1.4-2.4C38.3,22.7,38.5,22,39,22c0.6,0.1,0.2-2.4-0.7-2.7c-0.9-0.3-1.4,0.3-1.6-0.5c-0.2-0.8-0.5-1.1-0.5-1.3c0-0.2,4.7-1.4,5.7-0.7c0.9,0.8,1.1,1.2,1.3,1.9c0.1,0.7,0.5,3.2,0.6,4.5c0,1.2,0,6.5-0.2,8c-0.1,1.5-0.9,3.5-1.4,4.1c-0.5,0.7-0.8,0.6-1,0.3c-0.2-0.3-1.2-1.8-3.1-1.3c-0.7,0.2-1.4,0.4-2.1,0.5c-0.2,0.1-0.4,0.2-0.7,0.2c-0.3,0.1-0.5,0.2-0.8,0.2h-0.1c0,0-0.1,0-0.1,0c-0.4,0.2-0.6,0.3-0.8,0.4c0,0-0.1,0.1-0.1,0.1c-0.4,0.4-1,0.3-1.4,0.1c-0.3-0.2-1.6,0.5-1.6,1v0.1l0,0.1c0.3,0.6,0.8,1.8,2.8,1.3c0,0,0.1,0,0.2,0c0.3-0.1,0.6-0.2,0.9-0.3c0.1,0,0.1,0,0.2-0.1c0.1,0,0.1,0,0.1,0c0.2-0.1,0.5-0.2,0.7-0.3c0.3-0.1,0.6-0.2,0.9-0.4c0.8-0.3,1.7-0.5,2.9-0.4c1.8,0.1,1.5,0.3,2.1,0.5c0.6,0.2,1.8,0,2.7-1.5c0.8-1.6,1.4-5.3,1.5-8.5C45.4,24.5,46.4,16.9,42.8,14.9L42.8,14.9z M33.8,25.4c0,0,0.1,0,0.1,0.1c0.2,0.2,0,0.2,0,0.3l-0.1,0c-0.1,0-0.3-0.1-0.2-0.2C33.6,25.6,33.7,25.4,33.8,25.4L33.8,25.4z M36.9,26c0.4,0.5,0.9,2.3,0.9,2.3s0,0.3-0.2,0.5c-0.1,0.1-1,1-1.8,1.9c-0.1,0.2-0.3,0.3-0.4,0.5c-0.3,0.3-0.5,0.6-0.8,0.8c-0.1,0-0.1,0.1-0.2,0.2c0,0,0,0,0,0c-0.2,0.1-0.3,0.1-0.4,0.1c-0.5-0.1,0-0.7,0.1-1c0-0.1,0.1-0.2,0.2-0.3c0-0.1,0.1-0.1,0.1-0.2c0-0.1,0.1-0.2,0.2-0.3c0.2-0.3,0.5-0.7,0.8-0.8c0,0,0.1-0.1,0.2-0.1c0.1,0,0.2-0.1,0.2-0.1c0.5-0.3,0.7-0.5,0.8-0.7c0-0.2,0.3-0.7,0.1-1c-0.2-0.4-0.6-0.3-0.4-0.8C36.3,26.3,36.5,25.5,36.9,26L36.9,26z"/></g><g><path class="st2" d="M64.7,34.2c-0.5-0.4-0.4-0.9,0-0.8c0.4,0,0.8,0,1.2,0c0.4,0,0.7,0,0.8,0.2c0.1,0.2,0.2,0.2,0.3-0.1c0.2-0.3,0.9-0.8,1.1-1.1c0.1-0.3,0.8-0.6,1.2-0.5c0.5,0.2,1,0.3,0.9,0.8c0,0.5,0,0.8-0.4,1c-0.4,0.3-1.3,1-1.4,1.3c-0.1,0.2,0.2,0.2,0.4,0.4c0.2,0.2,2.4,1.8,3.1,2.4c0.8,0.6,1.3,1.1,2.1,1.5c0.9,0.4,1.9,1.2,0.9,1.3c-1.1,0.1-2,0-2.2,0.1c-0.2,0-1.1-0.2-1.6-0.2c-0.4,0-1.5-0.3-1.8-0.6c-0.3-0.3-1.1-1-1.4-1.4c-0.2-0.3-0.6-0.8-0.7-1c-0.1-0.2-0.8-0.9-1.2-0.2c-0.3,0.6-0.6,0.8-0.7,1.2c-0.1,0.2-0.6,1-1,1.5c-0.2,0.3-0.5,0.3-0.3,0c0.3-0.6,0.1-0.1,0.9-1.4c0.8-1.3,1-1.8,0.8-2.4C65.5,35.3,65.2,34.5,64.7,34.2L64.7,34.2L64.7,34.2z"/><path class="st2" d="M65.8,21.5L65.8,21.5c0,0,0.1,0,0.2-0.1c0,0,0.1,0,0.1,0h0.1c0.1,0,0.2-0.1,0.3-0.1c0,0,0.1,0,0.1,0c0.4-0.1,0.9-0.3,1.4-0.5c1.8-1,2.2-1.9,2.4-3.3c0.2-1.4-0.9-4.6-2.5-4.8c-0.7-0.1-1.1-0.2-1.3-0.4c0,0-0.1-0.1-0.1-0.1c-0.2-0.2-0.2-0.4-0.1-0.7c0-0.1,0-0.1,0.1-0.2c0.1-0.3,0.2-0.7,0-1c-0.1-0.1-0.2-0.2-0.4-0.4c-0.1-0.1-0.2-0.1-0.1-0.1c0.1,0-0.1,0-0.1,0h0c-0.1,0-0.2-0.1-0.2-0.1c-0.2-0.1-0.5-0.1-0.7,0c0,0-0.1,0-0.2,0.1c0,0-0.1,0-0.1,0c0,0-0.1,0.1-0.1,0.1c-0.2,0.2-0.3,0.5-0.4,0.9c-0.1,0.4-0.1,0.8,0,1c0,0.1,0,0.2,0,0.2c0.1,0.3,0,0.5,0,0.6c0,0,0,0.1,0,0.1c-0.1,0-0.1,0-0.2,0h-0.1c-0.2-0.1-0.3-0.5-0.6-0.9c-0.1-0.2-0.3-0.4-0.5-0.5c-0.2-0.1-0.3-0.2-0.5-0.2h-0.4c-0.2,0-0.4,0-0.6,0.1h-0.1c-0.1,0-0.2,0.1-0.2,0.1c0,0-0.1,0-0.1,0c-0.1,0.1-0.2,0.2-0.2,0.3c-0.1,0.2-0.2,0.4-0.3,0.5c-0.1,0.4-0.1,0.8,0,1.1c0,0,0,0,0,0.1c0.2,0.3,0.3,1,0,1.6c0,0.1,0,0.1-0.1,0.1c0,0.1-0.1,0.2-0.2,0.2c-0.4,0.2-0.9,0.2-1.2,1c-0.7-0.3-1.1,0.1-1.5,0.5c-0.4,0.5-0.5,4.6-0.2,5.7c0.3,1.1,1.9,0.7,2.2,0.5c0.1,0.6,0.4,0.8,0.9,0.8c0.1,0,0.1,0,0.2,0h0.1c0.1,0,0.2,0,0.3-0.1c0.1,0,0.2,0,0.2,0c0.1,0,0.2-0.1,0.2-0.1c0,0,0,0,0.1,0c0.5-0.2,0.5,0.1,0,0.3c-0.1,0-0.2,0.1-0.3,0.1h0c0,0-0.1,0-0.2,0.1c-0.1,0-0.2,0.1-0.3,0.1h0c-0.1,0-0.2,0.1-0.2,0.1c-0.4,0.2-0.8,0.5-0.9,0.9c-0.2,0.6,0.5,1,0.9,1h0.2c0,0,0.1,0,0.1,0h0c0.2,0,0.3,0,0,0.5c0,0-0.1,0-0.1,0.1c-0.1,0.1-0.2,0.2-0.3,0.3c-0.1,0.1-0.2,0.3-0.4,0.4c-1.4,1.5-4.2,7.4-4.6,8.6C55.1,36.6,55,36.8,55,37l0,0.1c0.1,0.3,0.2,0.3,0.5,0.1c0.3-0.3,0.6-0.2,1.1-0.2c0.5,0,0.6-0.2,0.8-1.1c0.2-0.9,1.2-3,1.4-2.9c0.4,0.3,1,0.5,1.4,0.5c0.1,0,0.2,0,0.2,0h0.1c0.1,0,0.2,0,0.3-0.1h0c0,0,0.1,0,0.2-0.1c0.2,0,0.5-0.2,0.8-0.2h0c0.1-0.1,0.3-0.1,0.4-0.2c0.1,0,0.2-0.1,0.3-0.1c0.3-0.2,0.9-0.7,0.4,0.2c-0.3,0.6-0.5,1.3-0.7,1.8c-0.1,0.3-0.2,0.7-0.3,1c-0.1,0.2-0.1,0.4-0.2,0.6c-0.4,1.7-0.5,3.2-0.5,4c0,0.7,0.2,1.2,0.5,1.5c0.1,0.2,0.3,0.3,0.4,0.4c0.1,0.1,0.2,0.1,0.3,0.1c0.5-0.1,1.6-1.8,0.8-1.2c-0.7,0.5-1,0.4-1.1,0.1c0,0,0-0.1,0-0.1c0-0.2-0.1-0.5,0-0.8c0-0.2,0-0.4,0.1-0.5c0-0.2,0-0.3,0.1-0.5c0.1-0.7,0.7-3.6,1.1-4.7c0.1-0.3,0.3-0.8,0.5-1.1v0c0.1-0.2,0.2-0.4,0.2-0.5c0.1-0.5,0.1-0.9,0.1-0.9h0c0.1,0,0.2-0.1,0.4-0.1c0,0,0.1,0,0.1,0c0,0,0,0,0,0h0.1c0,0,0.1,0,0.2,0l0,0c0.2-0.1,0.5-0.2,0.8-0.3c0,0,0.1,0,0.2,0c0.1,0,0.1,0,0.1,0c0.1,0,0.2-0.1,0.4-0.1c0,0,0.1,0,0.1,0h0c1.2-0.4,2.3-0.8,2.5-0.9c0.4-0.3,0.7-0.5,0.3-1.3c-0.4-0.8-2.1-0.3-2.6,0.1c0,0-0.1,0-0.2,0.1c0,0,0,0,0,0c0,0-0.1,0-0.1,0c-0.1,0-0.2,0.1-0.4,0.2c-0.1,0-0.1,0-0.1,0c0.1,0-0.1,0.1-0.2,0.1c-0.2,0.1-0.6,0.3-0.9,0.4h0c0,0-0.1,0-0.1,0.1c0,0-0.1,0-0.1,0l0,0h-0.1c-0.1,0-0.2,0.1-0.4,0.2c-0.1,0-0.2,0.1-0.3,0.1c0,0-0.1,0-0.1,0c-0.6,0.2-1.1,0.5-1.5,0.6c0,0-0.1,0-0.1,0c-0.2,0.1-0.3,0.1-0.4,0.1c-0.1,0-0.1-0.2,0-0.3c0.1-0.2,0.2-0.4,0.4-0.6c0.2-0.3,0.5-0.7,0.7-0.8c0.2-0.4,0.4-0.8,0.7-0.8c0.1,0,0.1,0,0.2,0.1c0,0,0,0,0,0c0.1,0,0.2,0.1,0.3,0.1c0.1,0,0.3,0,0.4,0l0,0c0,0,0,0,0.1,0H65c0.3,0,0.6-0.2,0.9-0.4c0,0,0.1-0.1,0.2-0.2c0.1,0,0.1-0.1,0.1-0.1c0.1-0.1,0.2-0.2,0.2-0.4c0.1-0.2,0.1-0.3,0.2-0.4v-0.3c0,0,0,0,0-0.1c0-0.3-0.2-0.4-0.4-0.6c-0.1-0.1-0.2-0.1-0.1-0.1c0.1,0.1-0.1-0.1-0.2-0.1c-0.3-0.1-0.6-0.2-0.9-0.3c0,0-0.1,0-0.2,0h-0.4c-0.1,0-0.2-0.1-0.3-0.1c0-0.1,0-0.2,0-0.2c0-0.1,0.1-0.2,0.2-0.3c0,0,0.1-0.1,0.2-0.1c0,0,0.1-0.1,0.1-0.1c0,0,0.1-0.1,0.1-0.1c0,0,0.1-0.1,0.2-0.1c0.1-0.1,0.2-0.2,0.4-0.2c0.2-0.1,0.3-0.2,0.4-0.3c0.1-0.1,0.1-0.2,0.2-0.2c0.1,0,0.1-0.1,0.1-0.2c0-0.1,0-0.3,0-0.4c0-0.1,0-0.2-0.1-0.2c0-0.1-0.1-0.2-0.2-0.3c-0.2-0.2-0.4-0.4-0.7-0.4C65.3,22.2,65.4,21.8,65.8,21.5L65.8,21.5z M60.7,18.5c-0.1,0-0.2,0.1-0.3,0.2v0c-0.1,0.1-0.2,0.1-0.3,0.1c-0.1,0-0.1,0,0,0c-0.1,0.1-0.2,0.2-0.2,0.6c0,0.3,0.1,0.5,0.3,0.8h0c0.1,0.1,0.2,0.2,0.2,0.2c0.1,0.1,0.2,0.2,0.2,0.2s0.1,0.6,0,1c0,0.1-0.1,0.2-0.2,0.3c0,0-0.1,0.1-0.2,0.1c0,0-0.1,0-0.1,0c-0.1,0-0.2,0.1-0.4,0.1c-0.1,0-0.1-0.2-0.1-0.3c-0.3-0.7-0.3-4.2-0.3-4.2c0,0,0.4,0,0.7-0.1c0,0,0,0,0.1,0h0.3c0.1,0,0.2,0,0.3,0h0c0,0,0,0.6,0,0.9C60.8,18.4,60.8,18.5,60.7,18.5L60.7,18.5z M62.1,27.8c-0.2,0.3-0.3,0.6-0.4,0.7c-0.1,0.1-0.1,0.1,0,0c0-0.1-0.1,0.1-0.2,0.2c-0.2,0.2-0.3,0.3-0.4,0.4c0,0-0.1,0.1-0.2,0.1c-0.1,0-0.2,0.1-0.2,0.1c-0.1,0-0.1,0,0-0.1l0,0c0,0,0.1-0.2,0.2-0.3c0.2-0.2,0.3-0.4,0.6-0.7c0.1-0.1,0.1-0.2,0.2-0.2c0.2-0.2,0.3-0.4,0.4-0.5c0,0,0,0,0-0.1C62.4,27.2,62.3,27.5,62.1,27.8L62.1,27.8z M63.2,20.4C63.2,20.4,63.2,20.5,63.2,20.4c-0.2,0-0.2,0-0.2,0l0.1-0.4l0.1-0.2c0,0,0,0,0.1,0.2C63.3,20.1,63.2,20.3,63.2,20.4L63.2,20.4z M64.2,16.1c-0.1,0.2-0.1,0.4-0.1,0.5v0c0,0.1-0.1,0.2-0.1,0.3c-0.1,0-0.2,0.1-0.2,0s-0.1-0.1-0.1-0.2c-0.1-0.1,0-0.4,0.1-0.6c0-0.1,0.1-0.2,0.1-0.3c0.1-0.1,0.2-0.2,0.2-0.2c0,0,0-0.1,0.1-0.1c0,0,0.1,0,0.1,0C64.2,15.6,64.2,15.8,64.2,16.1z M64.9,20.6h-0.2c0,0-0.1,0-0.1,0c0,0-0.1,0-0.1-0.1c-0.1,0-0.1-0.1-0.1-0.2v0c0-0.1,0-0.2,0-0.3c0-0.1,0.1-0.2,0.1-0.2c0,0,0.1-0.1,0.1-0.1c0,0,0.1-0.1,0.1-0.1c0,0,0.1-0.1,0.2-0.1c0,0,0.1-0.1,0.2-0.2c0.4-0.3,0.4-0.3,0.7-0.6c0-0.1,0.1-0.1,0.2-0.3c0,0,0.1,0,0.1,0c0,0,0-0.1,0-0.1c0.2-0.3,0.1-0.7,0-0.9c0-0.1,0-0.1-0.1-0.2c0,0,0,0,0,0c0-0.1-0.1-0.1-0.1-0.2s-0.1-0.1-0.1-0.1c-0.3-0.1-0.2-0.5-0.1-0.6c0-0.1,0-0.3,0.2-0.6c0,0,0-0.1,0-0.1l0-0.1c0,0,0-0.1,0.1-0.1C66,15.1,66,15,66,15c0.1-0.1,0.3,0,0.4,0h0c0,0,0,0,0.1,0c0.2,0.1,0.5,0.3,0.8,0.6c0.3,0.4,0.2,1.3,0,1.8c-0.2,0.5-0.4,1.1-0.6,1.5c0,0.1-0.1,0.2-0.2,0.3c0,0-0.1,0.1-0.1,0.1c-0.1,0.1-0.2,0.2-0.4,0.4h0c0,0,0,0-0.1,0c0,0.1-0.1,0.1-0.2,0.2c-0.2,0.1-0.3,0.2-0.4,0.3C65.2,20.5,65,20.5,64.9,20.6L64.9,20.6z"/></g></g><g class="st0"><g class="st3"><path class="st2" d="M-47.9,23.3L-47.9,23.3z"/><path class="st2" d="M-47.5,27.1L-47.5,27.1C-47.4,27.1-47.4,27.1-47.5,27.1C-47.4,27.1-47.4,27.1-47.5,27.1l0.1-0.1h0l-0.1,0v0C-47.5,27-47.5,27.1-47.5,27.1C-47.5,27.1-47.5,27.1-47.5,27.1C-47.5,27.2-47.5,27.1-47.5,27.1z"/><path class="st2" d="M-46,41.2c-0.9,0.1-1.4,0.7-1.4,1.9c0.1,1.2,0.5,1.8,1.4,1.9c0.9-0.1,1.4-0.7,1.4-1.9C-44.6,41.9-45.1,41.3-46,41.2z M-46,44.8c-0.4,0-0.6-0.6-0.7-1.7c0-1,0.2-1.6,0.7-1.6c0.4,0,0.6,0.6,0.7,1.6C-45.3,44.2-45.5,44.8-46,44.8z"/><path class="st2" d="M-42.3,42.7c-0.3,0-0.5,0-0.8,0.2l0.1-1h0.4c0.9,0,1.4-0.2,1.4-0.5c0-0.1,0-0.1-0.1-0.1c0,0-0.2,0-0.3,0c-0.3,0-0.5,0.1-0.6,0.1c-0.2,0-0.4,0-0.7,0c-0.2,0-0.3,0-0.4,0l-0.1,1.8c0,0.2,0,0.3,0.1,0.3c0,0,0.1,0,0.2-0.1c0.2-0.2,0.4-0.2,0.6-0.2c0.5,0,0.7,0.3,0.7,0.9c0,0.6-0.3,0.9-0.8,0.9c-0.3,0-0.5-0.2-0.5-0.4v-0.1c0-0.2-0.1-0.3-0.3-0.3s-0.3,0.1-0.3,0.3c0.1,0.5,0.5,0.7,1.2,0.7c1,0,1.6-0.5,1.6-1.2C-41.1,43.1-41.5,42.7-42.3,42.7L-42.3,42.7z"/><path class="st2" d="M-52.4,44.7c-0.2,0-0.4-0.1-0.3-0.4v-2.8c0-0.2,0-0.3-0.2-0.3c-0.1,0-0.2,0-0.3,0.1c-0.3,0.2-0.5,0.2-0.8,0.3c-0.2,0-0.3,0.1-0.3,0.2c0,0.1,0.1,0.1,0.2,0.1h0.2c0.2,0,0.3,0,0.3,0.1c0,0,0.1,0.1,0.1,0.3v2c0,0.2,0,0.3-0.1,0.3c0,0.1-0.1,0.1-0.3,0.1c-0.2,0-0.3,0.1-0.3,0.2c0,0.1,0.1,0.2,0.3,0.2h1.6c0.2,0,0.2,0,0.2-0.2C-52.1,44.7-52.2,44.7-52.4,44.7L-52.4,44.7z"/><path class="st2" d="M-49.5,41.2L-49.5,41.2c-0.9,0.1-1.4,0.5-1.4,1.3c0,0.7,0.5,1.1,1.2,1.1c0.1,0,0.2,0,0.2,0c0.2,0,0.4-0.1,0.6-0.3c-0.1,0.5-0.3,0.9-0.6,1.2c-0.2,0.2-0.5,0.3-0.8,0.3c-0.2,0-0.3,0.1-0.3,0.1c0,0.1,0.1,0.1,0.3,0.1c0.3,0,0.5-0.1,0.8-0.2c0.9-0.3,1.3-1,1.4-2.1C-48.1,41.8-48.6,41.2-49.5,41.2z M-49.5,43.3L-49.5,43.3c-0.4,0-0.6-0.3-0.6-0.8c0-0.6,0.2-0.9,0.6-0.9c0.4,0,0.6,0.3,0.6,0.9C-48.9,43-49.2,43.2-49.5,43.3L-49.5,43.3z"/><path class="st2" d="M-48.7,25.1L-48.7,25.1L-48.7,25.1L-48.7,25.1L-48.7,25.1c0,0.1,0,0.1,0,0.1c0,0,0,0,0,0v0c0,0,0,0,0.1,0.1c0,0,0,0,0,0c0,0,0,0,0.1,0c0,0,0,0,0.1,0h0c0-0.1,0.1-0.1,0.1-0.1c0,0,0.1,0,0.1,0l0,0l0,0.1l0,0c0,0,0,0,0,0.1c0,0,0,0-0.1,0.1c0,0,0,0,0,0c0,0,0,0,0,0c0,0,0,0,0,0h0c0,0-0.1,0-0.1,0h0l0,0.1v0.1l0,0c0,0,0,0,0,0.1v0h0.1l0.1-0.1h0.1c0,0,0,0,0,0c0,0,0,0,0,0l0,0c0,0,0,0,0,0l0,0c0,0,0,0,0,0.1c0,0,0,0,0,0c0,0,0,0,0,0v0c0,0,0,0,0,0.1l0,0h0c0,0,0,0,0-0.1V26c0,0,0,0,0,0c0,0,0,0,0,0c0,0,0-0.1,0-0.1v-0.1c0,0,0.1-0.1,0.1-0.1c0,0,0-0.1,0.1-0.1c0,0,0,0,0.1,0c0,0,0,0,0,0c0,0,0,0,0,0c0,0,0,0,0,0c0,0,0,0,0,0v0v0c0-0.1,0-0.1,0-0.1c0,0,0,0,0-0.1V25c0,0,0,0,0-0.1s0,0,0-0.1v0c0,0,0,0,0,0c0,0,0,0,0,0c0,0,0,0.1,0,0.1c0,0,0,0,0,0.1c0,0,0,0,0,0c0,0,0,0,0,0c0,0,0,0,0,0c0,0,0,0,0,0v0c0,0,0,0,0,0c0,0,0,0-0.1,0.1l0,0l0-0.1c0,0,0,0,0-0.1c0,0,0,0,0,0v0l0,0l0-0.1c0,0,0,0,0.1,0c0,0,0,0,0.1,0c0,0,0,0,0,0c0,0,0,0,0,0l0,0v0l0,0c0,0,0,0-0.1,0c0,0,0,0-0.1,0l0,0l0,0c0,0,0,0,0,0H-48c0,0,0,0-0.1,0l0,0h0l0,0.1l0,0c-0.1,0-0.1,0-0.1,0c0,0,0,0,0,0c0,0,0,0,0,0h-0.1v0l0,0l0,0.1c0,0-0.1,0-0.1,0c0,0,0,0-0.1,0c0,0,0,0,0,0h0v0L-48.7,25.1C-48.6,25.2-48.7,25.2-48.7,25.1L-48.7,25.1z"/><path class="st2" d="M-46.6,25.3C-46.6,25.3-46.6,25.3-46.6,25.3L-46.6,25.3L-46.6,25.3c0.1-0.1,0-0.1,0-0.1h0c0,0,0,0,0,0c0,0,0,0-0.1,0c0,0-0.1,0-0.1,0l0,0c0-0.3,0-0.5,0-0.5l0-0.1c0,0,0,0,0,0v0c0,0,0,0,0,0c0,0,0,0,0,0c0,0,0,0,0,0h0l0,0h-0.1l0,0c0,0,0,0,0,0c0,0,0,0,0,0l0,0l0.1-0.1c0,0.1,0,0.1,0,0.2v0.2c0,0.1,0,0.2,0,0.2c0,0,0,0.1,0,0.1c0,0,0,0,0,0c0,0,0,0,0,0c0,0,0,0-0.1,0c0,0-0.1,0-0.1,0.1c0,0,0,0,0,0c0,0-0.1,0-0.1,0.1c0,0,0,0-0.1,0c0,0-0.1,0-0.1,0c0,0,0,0-0.1,0h-0.1c0,0,0,0,0,0h-0.1l0,0l0,0.1c0,0,0,0,0,0c0,0,0,0,0,0c0,0,0,0,0,0c0,0,0,0,0,0c0,0,0,0,0.1,0h0.1c0,0,0,0,0,0h0c0,0,0,0,0,0c0,0,0,0,0,0c0,0,0,0,0.1-0.1c0,0,0,0,0,0c0,0,0,0,0,0c0,0,0,0,0.1,0l0,0l0,0c0,0,0,0,0,0l0.1,0v0.2l0,0c0,0,0,0.1,0,0.1v0.6c0,0,0,0,0,0.1c0,0,0,0.1,0,0.1v0.1l0,0v-0.1c0,0,0-0.1,0-0.1c0,0,0-0.1,0,0c0,0,0-0.1,0-0.1V26c0,0,0-0.1,0-0.1v-0.4c0,0,0-0.1,0-0.1v0c0,0,0,0,0,0v0c0,0,0,0,0.1,0h0l0,0l0,0l0,0L-46.6,25.3C-46.7,25.2-46.7,25.2-46.6,25.3L-46.6,25.3z"/><path class="st2" d="M-48.6,24.2C-48.6,24.2-48.5,24.2-48.6,24.2c0.1-0.1,0.2-0.1,0.2-0.1c0,0,0,0,0,0c0,0,0,0,0,0c0,0,0.1-0.1,0.1-0.1c0,0,0,0,0-0.1c0,0,0,0,0-0.1c0,0,0.1-0.1,0.1-0.1h0l0,0h0c0,0,0,0,0,0h0c0,0,0,0.1,0,0.1c0,0,0,0,0,0c0,0,0,0,0,0.1c0,0,0,0.1,0,0.1c0,0,0,0,0,0.1c0,0,0,0,0,0c0,0,0,0,0,0c0,0,0,0,0.1,0.1c0,0,0,0,0,0c0,0,0,0,0,0c0,0,0,0,0,0h0c0,0,0,0,0,0c0,0,0,0,0,0h0c0,0,0,0,0,0c0,0,0,0,0,0l0,0c0,0,0,0,0,0c0,0,0,0,0.1,0c0,0,0,0,0-0.1c0,0,0,0,0.1,0c0,0,0-0.1,0.1-0.1l0,0l0,0c0,0,0,0,0,0c0,0,0.1,0,0.1,0c0,0,0.1,0,0.1,0.1c0,0,0,0,0.1,0c0,0,0,0,0.1,0c0.1,0,0.1,0,0.1,0c0,0,0,0,0,0h0c0,0,0-0.1,0-0.1v0c0,0,0,0,0,0c0,0,0,0,0,0c0,0,0,0,0,0c0,0,0,0-0.1,0c0,0-0.1,0-0.2,0c0,0-0.1,0-0.1,0c-0.1,0-0.1,0-0.1,0c0,0,0,0,0,0c0,0,0,0,0,0c0,0,0,0,0,0s0,0,0.1,0c0,0,0,0,0.1,0s0,0,0,0h0v-0.1l0,0h0c0.1,0,0.1,0,0.1,0h0.1v0c0,0,0,0,0,0c0,0,0,0,0,0c0,0,0,0-0.1,0h-0.1c0,0-0.1,0-0.1,0h0c0,0,0,0,0.1,0c0,0,0,0,0.1,0l0,0c0,0,0,0,0,0c0,0,0,0,0,0c0,0,0,0,0,0h-0.1c0,0,0,0-0.1,0h0c0,0-0.1,0-0.1,0c0,0,0,0-0.1,0c0,0,0,0-0.1,0l0,0h0c0,0,0,0,0,0c0,0,0,0,0,0c0,0,0,0,0,0c0,0,0,0,0.1,0h0c0,0,0.1,0,0.1,0c0,0,0.1,0,0.1,0h0c0,0,0,0,0,0h0v0c0,0,0,0-0.1,0h-0.2c0,0-0.1,0-0.1,0c0,0,0,0-0.1,0c0,0,0,0,0,0c0,0,0,0,0,0c0,0-0.1,0-0.2,0h0c0,0-0.1,0-0.2,0c0,0-0.1,0-0.1,0c0,0,0,0,0,0h-0.1c0,0,0,0,0,0l0,0c0,0,0,0,0,0c0,0,0,0,0.1,0h0c0,0,0,0,0,0s0,0,0,0h0c0,0,0,0,0.1,0c0,0,0.1,0,0.1,0h0v0v0c0,0,0,0,0,0c0,0,0,0,0,0.1c0,0,0,0,0,0.1c0,0,0,0,0,0.1c0,0,0,0-0.1,0.1c0,0,0,0.1-0.1,0.1c0,0,0,0.1-0.1,0.1c0,0,0,0,0,0c0,0-0.1,0.1-0.1,0.1c0,0-0.1,0.1-0.1,0.1c0,0,0,0,0,0c0,0,0,0,0,0h-0.1L-48.6,24.2L-48.6,24.2C-48.6,24.2-48.6,24.2-48.6,24.2L-48.6,24.2z M-47.5,23.9L-47.5,23.9C-47.6,24-47.6,24-47.5,23.9c-0.1,0.1-0.1,0.1-0.2,0.1h0c0,0,0,0,0,0c0,0,0,0,0,0c0,0,0,0,0,0h0c0-0.1,0-0.1,0-0.1c0,0,0-0.1,0-0.1l0,0c0,0,0,0,0,0h0.2C-47.5,23.8-47.5,23.8-47.5,23.9C-47.4,23.8-47.4,23.9-47.5,23.9L-47.5,23.9C-47.4,23.9-47.5,23.9-47.5,23.9L-47.5,23.9z M-47.3,23.8L-47.3,23.8C-47.3,23.8-47.3,23.8-47.3,23.8L-47.3,23.8l-0.1,0C-47.4,23.8-47.4,23.7-47.3,23.8C-47.3,23.7-47.3,23.7-47.3,23.8L-47.3,23.8C-47.3,23.7-47.3,23.7-47.3,23.8z M-47.4,23.5L-47.4,23.5C-47.4,23.5-47.4,23.5-47.4,23.5l0.2,0l0,0c0,0,0,0,0,0c0,0,0,0,0,0c0,0,0,0-0.1,0l0,0c0,0,0,0,0,0c0,0-0.1,0-0.1,0c0,0-0.1,0-0.1,0h-0.1c0,0,0,0,0,0h0c0,0,0-0.1,0-0.1c0,0,0,0,0,0c0,0,0,0,0,0c0,0,0,0,0.1,0h0C-47.6,23.6-47.5,23.5-47.4,23.5L-47.4,23.5z M-47.9,23.6c0,0,0-0.1,0.1-0.1v0h0.1c0,0,0,0,0,0h0l0,0h0c0,0,0,0,0.1,0h0c0,0-0.1,0-0.1,0.1c0,0,0,0,0,0h0c0,0,0,0,0,0c0,0,0,0,0,0c0,0,0,0,0,0c0,0,0,0,0,0C-47.8,23.5-47.9,23.5-47.9,23.6L-47.9,23.6L-47.9,23.6L-47.9,23.6z"/><path class="st2" d="M-48.4,24.9L-48.4,24.9L-48.4,24.9L-48.4,24.9h0.1l0,0c0.1,0,0.1,0,0.2,0c0,0,0,0,0.1,0s0,0,0.1,0c0,0,0.1,0,0.1,0l0,0c0,0,0,0,0,0v0c0,0,0,0,0,0c0,0,0,0,0,0c0,0,0,0,0,0c0,0,0,0,0,0l0,0h0v0h0c0,0,0,0,0,0c0,0,0,0,0,0c0,0,0,0-0.1,0.1c0,0-0.1,0-0.1,0.1c0,0-0.1,0-0.1,0.1c0,0,0,0-0.1,0C-48.3,24.8-48.4,24.8-48.4,24.9c0-0.1-0.1-0.1-0.1,0c0,0-0.1,0-0.1,0h0c0,0,0,0,0.1,0C-48.5,24.8-48.5,24.8-48.4,24.9L-48.4,24.9L-48.4,24.9L-48.4,24.9L-48.4,24.9z"/><path class="st2" d="M-47.7,25.5L-47.7,25.5C-47.7,25.5-47.7,25.5-47.7,25.5z"/><path class="st2" d="M-47.8,22.5L-47.8,22.5C-47.9,22.5-47.9,22.6-47.8,22.5C-47.9,22.6-47.9,22.6-47.8,22.5l-0.1,0c0,0,0,0,0,0c0,0,0,0,0,0s0,0,0,0l0,0l0,0c0,0,0,0-0.1,0c0,0,0,0,0,0l0,0h0v0c0,0,0,0,0,0.1c0,0,0,0,0,0c0,0,0,0,0,0.1c0,0,0,0,0,0c0,0,0,0.1,0,0.1s0,0,0,0.1c0,0,0,0,0,0c0,0,0,0,0,0c0,0,0,0,0,0h0h0h0h0c0,0,0,0,0,0h0.1l-0.1,0h0l0,0c0,0,0,0,0.1,0h0c0,0,0,0,0.1,0c0,0,0,0,0.1,0c0,0,0.1,0,0.1,0c0,0,0.1,0,0.1,0l0,0c0,0,0,0,0,0c0,0,0,0,0,0l0,0h0c0,0,0,0,0.1,0l0,0c0,0,0,0,0-0.1c0,0,0,0,0,0c0,0,0,0,0,0c0,0,0,0,0,0c0,0,0,0,0,0c0,0,0,0,0,0l0,0c0,0,0,0,0,0c0,0,0,0,0-0.1c0,0,0,0-0.1,0c0,0,0,0-0.1,0c0,0,0,0,0,0h-0.1c0,0,0,0,0-0.1c0,0,0,0,0-0.1c0,0,0,0,0,0c0,0,0,0,0,0c0,0,0,0,0,0c0,0,0,0,0,0c0,0-0.1,0-0.1,0h-0.1v0l0,0l0,0v0l0,0l0,0c0,0,0,0.1,0,0.1v0c0,0-0.1,0-0.1,0c0,0,0,0,0,0h0v-0.1l0,0c0,0,0,0-0.1,0c0,0,0,0,0,0c0,0,0,0-0.1,0H-48l0,0C-47.9,22.4-47.9,22.4-47.8,22.5L-47.8,22.5L-47.8,22.5L-47.8,22.5z M-47.5,22.9C-47.5,22.9-47.5,22.8-47.5,22.9L-47.5,22.9L-47.5,22.9C-47.4,22.8-47.4,22.8-47.5,22.9L-47.5,22.9l0.1-0.1l0,0v0h-0.1c0,0,0,0,0,0v0v0c0,0,0,0,0,0h0.1v0c0,0,0,0,0,0l0,0c0,0,0,0,0,0.1c0,0,0,0,0,0.1L-47.5,22.9L-47.5,22.9C-47.4,22.9-47.4,22.9-47.5,22.9L-47.5,22.9C-47.4,22.9-47.4,22.9-47.5,22.9L-47.5,22.9C-47.5,22.9-47.5,22.9-47.5,22.9L-47.5,22.9z M-47.7,22.7C-47.7,22.7-47.6,22.7-47.7,22.7l0.1,0l0,0.1L-47.7,22.7L-47.7,22.7L-47.7,22.7L-47.7,22.7z M-47.7,22.9L-47.7,22.9L-47.7,22.9l0.1-0.1C-47.6,22.8-47.6,22.8-47.7,22.9L-47.7,22.9L-47.7,22.9C-47.6,22.9-47.7,22.9-47.7,22.9L-47.7,22.9C-47.7,22.9-47.7,22.9-47.7,22.9L-47.7,22.9z M-48,22.8C-48,22.8-48,22.7-48,22.8l0-0.1h0c0,0,0,0,0.1,0h0l0,0c0,0,0,0,0,0.1v0C-47.8,22.8-47.9,22.8-48,22.8L-48,22.8z M-47.8,22.9L-47.8,22.9L-47.8,22.9C-47.8,23-47.9,23-47.8,22.9l-0.1,0.1c0,0,0,0,0-0.1l0,0l0,0c0,0,0,0,0.1,0C-47.9,22.9-47.9,22.9-47.8,22.9L-47.8,22.9C-47.9,22.9-47.9,22.9-47.8,22.9L-47.8,22.9z"/><path class="st2" d="M-47.4,25c0-0.1,0.1-0.1,0.1-0.1c0,0,0,0,0.1,0v0l0,0c-0.1-0.1-0.1-0.1-0.1-0.1c0,0,0,0,0,0h0c0,0,0,0-0.1,0c0,0,0,0-0.1,0h0v0l0,0l0,0l0,0l0.1,0c0,0,0,0.1,0,0.1v0c0,0,0,0,0-0.1c0,0,0,0,0,0v0l0.1,0v0c0,0,0,0,0,0.1c0,0,0,0,0,0v0h0l0,0c0,0,0,0,0,0v0c0,0,0,0,0,0c0,0,0,0,0,0l0,0l0,0l0,0c0,0-0.1,0-0.1,0.1c0,0,0,0,0,0.1c0,0,0,0,0,0l0,0c0,0,0,0,0,0c0,0,0,0,0,0v0c0,0,0,0,0.1,0c0,0,0,0,0.1,0c0,0,0,0,0.1,0c0,0,0.1,0,0.1-0.1h0l0,0c0,0,0,0,0.1,0l0,0c0,0,0,0,0,0C-47.3,25.1-47.3,25.1-47.4,25C-47.3,25.1-47.3,25.1-47.4,25L-47.4,25L-47.4,25L-47.4,25L-47.4,25z"/><path class="st2" d="M-48.1,30.3L-48.1,30.3"/><path class="st2" d="M-47.4,28.8C-47.4,28.8-47.4,28.8-47.4,28.8C-47.4,28.7-47.4,28.7-47.4,28.8c-0.1-0.1-0.1-0.1-0.2-0.1c0,0,0,0,0,0h0v0c0,0,0,0,0,0c0,0,0,0,0,0v0.1l0,0c0,0,0,0,0,0l0,0h0c0,0-0.1,0-0.1,0h-0.1v0c0,0,0,0,0,0c0,0,0,0,0,0c0,0,0.1,0,0.1,0c0,0,0,0,0,0c0,0-0.1,0.1-0.1,0.1c0,0-0.1,0-0.1,0h0v0c0.1,0,0.1,0,0.1,0c0,0,0.1,0,0.1,0h0c0,0,0,0,0,0h0l0,0l0,0c0,0,0,0,0,0h0l0,0v0c0,0,0,0,0,0l0,0c0,0-0.1,0-0.1,0h0c0,0,0,0-0.1,0h-0.1v0l0,0c0,0,0,0,0,0c0,0,0,0,0.1,0l0,0c0,0-0.1,0.1-0.1,0.1c0,0,0,0,0,0h0l0,0c0,0,0,0,0.1,0h0c0,0,0,0,0,0c0,0,0,0,0,0c0,0,0.1,0,0.1,0h0c0,0,0.1,0,0.1,0l0,0h0l0,0v-0.1c0,0,0,0,0-0.1l0,0c0,0,0,0,0,0v0c0,0,0,0,0-0.1v0c0,0,0,0,0,0l0,0h0c0,0,0-0.1,0-0.1c0,0,0,0,0,0l0,0L-47.4,28.8L-47.4,28.8L-47.4,28.8z"/><path class="st2" d="M-48.2,29L-48.2,29c0.1,0,0.1-0.1,0.2-0.1c0,0,0,0,0.1,0c0,0,0,0,0,0v0l0,0v0h0c0,0,0,0,0,0c0,0,0,0-0.1,0h0c0,0-0.1,0-0.1,0c0,0,0,0-0.1,0c0,0-0.1,0-0.1,0v0L-48.2,29L-48.2,29C-48.2,29-48.2,29-48.2,29L-48.2,29z"/><path class="st2" d="M-47.1,28.2C-47.1,28.2-47.1,28.2-47.1,28.2C-47.1,28.3-47,28.3-47.1,28.2c0.1,0.1,0.2,0.1,0.2,0.1h0l0,0c0.1,0,0.1,0.1,0.1,0.1c0,0,0,0,0.1,0h0c0,0,0,0,0-0.1c0,0,0,0,0-0.1v0c0,0,0,0,0,0l0,0c0,0,0,0,0,0v0h0c0,0-0.1-0.1-0.1-0.1c0,0,0,0-0.1,0c0,0,0,0,0,0c0,0-0.1,0-0.1,0c0,0,0,0-0.1,0c0,0,0,0,0,0c0,0-0.1,0-0.1,0c0,0-0.1,0-0.1,0s-0.1,0-0.1,0h0c0,0,0,0-0.1,0c0,0-0.1,0-0.1,0h-0.1c0.1,0,0.1,0,0.2,0c0,0,0,0,0.1,0c0,0,0,0,0,0c0,0,0,0,0,0c0,0,0,0,0.1,0c0,0,0.1,0,0.1,0.1C-47.2,28.2-47.2,28.2-47.1,28.2L-47.1,28.2z"/><path class="st2" d="M-47.4,30.6L-47.4,30.6L-47.4,30.6L-47.4,30.6c0-0.1,0-0.2,0-0.3v-0.1c0.1,0,0.1,0,0.2,0h0.2c0,0,0,0,0,0c0,0,0,0,0,0h0c0,0,0,0,0,0v0c0,0,0,0,0,0c0,0,0,0-0.1,0c0,0-0.1,0-0.1,0h-0.3l-0.1,0l0,0c0,0,0.1-0.1,0.1-0.1c0,0,0,0,0,0h0.1v-0.1h0.1c0,0,0.1,0,0.2,0c0.1,0,0.1,0,0.2,0h0.1l0,0c0,0,0,0,0-0.1c0,0,0,0,0,0c0,0,0,0-0.1-0.1c0,0,0,0,0,0c0,0-0.1,0-0.1,0c0,0-0.1,0-0.1,0c0,0-0.1,0-0.1,0h-0.1c0,0,0-0.1,0-0.1c0,0,0-0.1,0-0.1c0-0.1,0-0.1,0-0.2c0-0.1,0-0.1,0,0c0,0,0-0.1,0-0.1v0c0,0,0,0,0,0v-0.1c0,0,0,0,0,0c0,0,0,0-0.1,0c0,0,0,0-0.1,0c0,0,0,0-0.1,0c0,0,0,0-0.1,0c0,0,0,0,0,0l0,0v0c0,0,0.1,0,0.1,0c0,0,0,0,0.1,0v0l0,0l0,0.1c0,0-0.1,0-0.1,0h-0.1c0,0,0,0,0,0c0,0,0,0,0,0h0l0,0h0c0,0,0,0,0,0h0.1l0,0.1c0,0-0.1,0-0.1,0c0,0,0,0-0.1,0c0,0,0,0,0,0l0,0c0,0,0,0,0,0l0,0c0,0,0,0,0,0c0.1,0,0.2,0,0.2,0c0,0.1,0,0.1,0,0.1c0,0,0,0,0,0v0c-0.1,0-0.2,0-0.2,0h-0.1c0,0-0.1,0-0.1,0c-0.1,0-0.2,0-0.2,0c0,0-0.1,0-0.1,0c0,0,0,0,0,0c-0.1,0-0.1,0-0.1,0h0c0,0,0-0.1,0-0.1s0,0,0-0.1v0c0.1,0,0.1,0,0.1,0c0,0,0.1,0,0.1,0v0h0v0h0c0,0,0,0,0,0c0,0,0,0-0.1,0c0,0,0,0,0,0c0,0,0,0-0.1,0h0c0,0,0-0.1,0-0.1h0v0h0c0,0,0.1-0.1,0.1-0.1c0,0,0,0,0,0l0,0h0v0c0,0,0,0,0,0c0,0,0,0,0,0c0,0,0,0,0,0h0c0,0,0,0,0,0c0,0,0,0-0.1,0h0l0,0h0c0,0-0.1,0-0.1,0h-0.1c0,0,0,0,0,0c0,0,0,0,0,0.1c0,0,0,0,0,0.1c0,0,0,0,0,0c0,0,0,0,0,0v0.1c0,0,0,0,0,0.1c0,0,0,0,0,0v0c0,0,0,0,0,0c0,0,0,0,0,0l0,0c-0.1,0-0.1,0.1-0.2,0.1l0,0c0,0,0,0,0,0v-0.1l0,0v0h0c0,0-0.1,0.1-0.1,0.1v0c0,0,0,0,0,0c0,0,0,0,0,0.1c0,0,0,0,0,0c0,0,0,0,0,0c0,0,0,0,0,0.1v0.1c0,0,0,0,0,0.1h0l0,0c0,0,0,0,0.1-0.1c0,0,0,0,0.1-0.1c0,0,0,0,0-0.1v0c0,0,0,0,0,0c0,0,0,0,0,0v0l0,0c0,0,0.1,0,0.2,0c0,0,0,0,0.1,0h0.1c0,0,0.1,0,0.1,0c0,0,0,0,0,0c0,0,0.1,0,0.1,0c0.1,0,0.1,0,0.1,0h0.1c0,0,0,0,0.1,0c0,0,0,0,0.1,0c0,0,0.1,0,0.1,0h0.4v0l0,0c0,0-0.1,0-0.1,0.1c0,0,0,0-0.1,0c0,0,0,0,0,0c0,0,0,0,0,0c0,0,0,0-0.1,0l0,0c0,0-0.1,0-0.1,0c0,0,0,0,0,0h-0.1c0,0,0,0,0,0c0,0,0,0-0.1,0c0,0-0.1,0-0.1,0c0,0-0.1,0-0.1,0c0,0,0,0-0.1,0l0,0l0,0h0c0,0,0,0,0,0s0,0,0,0V30h0.1v0c0,0,0,0,0,0h0c0,0,0,0,0,0c0,0,0,0,0,0c0,0,0.1,0,0.1-0.1c0,0,0.1,0,0.1,0c0,0,0.1,0,0.1,0h0v0l0,0c0,0,0,0,0,0c0,0,0,0,0,0c0,0,0,0,0,0c0,0,0,0,0,0l0,0c-0.1,0-0.1,0-0.1,0s0,0,0,0l0,0c0,0,0,0,0,0c0,0,0,0,0,0c0,0,0,0,0,0c0,0,0,0,0,0l0,0c-0.1,0-0.2,0-0.3,0c0,0-0.1,0-0.1,0c0,0-0.1,0-0.1,0c-0.1,0-0.1,0-0.1,0c-0.1,0-0.1,0-0.1,0h0v0l0.1,0.1c0,0,0.1,0,0.1,0h0c0,0,0.1,0,0.1,0s0,0,0.1,0c0,0,0,0,0,0c0,0,0.1,0,0.2,0c0.1,0,0.1,0,0.2,0h0.1v0.1c0,0,0,0,0,0.1c0,0,0,0,0,0.1c0,0,0,0,0,0l0,0c0,0,0,0-0.1,0h0c0,0-0.1,0-0.1,0c0,0,0,0,0,0c0,0,0,0,0,0l0,0c0,0,0,0-0.1,0h0c0,0,0.1,0.1,0.1,0.1c0,0,0.1,0.1,0.1,0.1c0,0,0.1,0,0.1,0.1h0c0,0,0,0,0.1,0c0,0,0,0,0,0c0,0,0,0,0.1,0c0,0,0,0,0,0C-47.6,30.7-47.5,30.7-47.4,30.6C-47.5,30.7-47.4,30.6-47.4,30.6C-47.4,30.6-47.4,30.6-47.4,30.6C-47.4,30.6-47.4,30.5-47.4,30.6L-47.4,30.6z"/><path class="st2" d="M-47.4,29.4L-47.4,29.4C-47.4,29.4-47.4,29.4-47.4,29.4L-47.4,29.4L-47.4,29.4z"/><path class="st2" d="M-48.5,28.4l0.1,0l0.1,0c0,0,0,0,0.1,0h0.1c0,0,0,0,0,0h0.1c0,0,0,0,0.1,0c0,0,0.1,0,0.1,0s0,0,0,0c0,0,0,0,0-0.1c0,0,0,0,0,0c0,0,0,0,0-0.1c0,0,0,0,0,0c0,0,0,0,0-0.1c0,0,0,0,0,0c0,0,0-0.1,0-0.1c0,0,0,0,0,0v0c0,0,0-0.1,0.1-0.1s0,0,0.1-0.1c0,0,0,0,0,0c0,0,0,0,0,0c0,0,0,0,0.1,0c0,0,0,0,0,0c0,0,0,0,0,0c0,0,0,0,0,0c0,0,0.1,0,0.1-0.1c0,0,0.1,0,0.1-0.1c0,0,0.1,0,0.1,0l0,0c0,0,0,0,0,0l0,0v0c0,0,0,0,0,0l0,0c0,0,0,0,0,0c0,0-0.1,0-0.1,0h0h-0.1h0c0,0-0.1,0-0.1,0h-0.1c0,0,0,0,0,0l0,0c0,0,0-0.1,0-0.1c0,0,0,0,0-0.1c0,0,0,0,0,0v-0.1c0,0,0,0,0,0c0,0,0,0,0,0c0,0-0.1,0-0.1,0c0,0,0,0,0,0c0,0-0.1,0-0.1,0c0,0,0,0-0.1,0l0,0c0,0,0,0-0.1,0c0,0,0,0,0,0c0,0,0,0,0,0c0,0,0,0,0,0v0l0,0l0.1-0.1c0,0,0,0,0,0.1v0.1c0,0,0,0,0,0.1c0,0,0,0,0,0v0c0,0,0,0,0,0.1c0,0,0,0,0,0v0.1c0,0,0,0,0,0c0,0,0,0,0,0v0c0,0,0,0,0,0l0,0l0,0h0l0,0v0c0,0-0.1,0-0.1,0c0,0-0.1,0-0.1,0c0,0,0,0-0.1,0c0,0-0.1,0-0.1,0c0,0-0.1,0-0.1,0h0c0,0,0,0,0,0c0,0,0,0,0,0c0,0,0,0,0,0c0,0,0,0,0.1,0.1c0,0,0.1,0.1,0.1,0.1c0,0,0,0,0,0h0c0,0,0.1,0,0.1,0l0,0c0,0,0,0.1,0,0.1c0,0,0,0,0,0s0,0,0,0c0,0,0,0,0,0c0,0,0,0,0,0.1c0,0-0.1,0-0.1,0.1c0,0,0,0,0,0c0,0-0.1,0-0.1,0l-0.1,0c0,0,0-0.1,0.1-0.1v0l0,0l-0.1,0c0,0,0,0.1-0.1,0.1l0,0v0l0,0L-48.5,28.4L-48.5,28.4L-48.5,28.4z M-47.5,27L-47.5,27L-47.5,27l0.1,0l0,0.1C-47.4,27.1-47.4,27.1-47.5,27C-47.4,27.1-47.4,27.1-47.5,27L-47.5,27l0,0.1L-47.5,27L-47.5,27L-47.5,27z"/><polygon class="st2" points="-47.6,21.9 -46.6,21.9 -46.1,21.9 -46.1,21.8 -49.1,21.8 -49.1,21.9 -48.6,21.9 "/><path class="st2" d="M-43.6,23.9c-0.1,0-0.1,0.1-0.3,0h0c-0.1,0-0.1-0.2,0-0.3c0,0,0.1-0.1-0.1-0.1c-0.1,0-0.3,0.3-0.2,0.5c0.1,0.1,0.2,0.2,0.3,0.2c0.1,0,0.2,0,0.2,0C-43.6,24.1-43.5,23.9-43.6,23.9L-43.6,23.9z"/><path class="st2" d="M-48,21.2c0.2,0,0.3,0.1,0.4,0.1c0.1,0,0.2,0,0.4-0.1c0.4-0.1,0.4-0.5,0.4-0.5s-0.1-0.2-0.2-0.1c-0.1,0.1-0.2,0.2-0.4,0.3c-0.1,0-0.2,0-0.3,0c-0.1,0-0.1,0-0.2,0c-0.2,0-0.3-0.2-0.4-0.3c-0.1-0.1-0.2,0.1-0.2,0.1S-48.4,21.1-48,21.2L-48,21.2z"/><path class="st2" d="M-38,28.3C-38,28.3-38,28.2-38,28.3C-38,28.2-38,28.3-38,28.3z"/><path class="st2" d="M-57.2,28.3C-57.2,28.3-57.2,28.2-57.2,28.3C-57.3,28.2-57.2,28.3-57.2,28.3z"/><path class="st2" d="M-51.2,23.5c-0.2,0-0.1,0.1-0.1,0.1c0.1,0.1,0.1,0.2,0,0.3h0c-0.2,0.1-0.2,0-0.3,0c-0.1,0,0,0.2,0.1,0.3c0.1,0,0.1,0,0.2,0c0.1,0,0.2-0.1,0.3-0.2C-50.9,23.8-51,23.5-51.2,23.5z"/></g><g class="st3"><path class="st2" d="M-47.6,0c-10.8,0-21.5,1.8-27.2,5.1l1.4,37.2c0.8,12.6,15.5,21.8,25.8,25.7c10.4-3.9,25-13.1,25.8-25.7l1.4-37.2C-26.1,1.8-36.8,0-47.6,0z M-22.7,42c-0.8,12.1-14.9,19.2-24.9,23c-10-3.8-24.1-10.8-24.9-23l-1.4-36c5.5-3.2,15.9-4.9,26.3-5c10.4,0,20.8,1.7,26.3,4.9L-22.7,42z"/><path class="st2" d="M-60.3,51.6c0.4,0.5,0.6,1,0.7,1.3c0.4-0.5,0.8-0.9,1.2-1.4c-1.1-0.7-2.1-1.5-3-2.3c-1.2-1.1-2.2-2.4-2.8-3.5c-1.7-3.1-1.7-5.9-1.7-5.9l-0.5-16.1l-0.8-0.9l0.2,9c0,0-0.5,0.4-0.5,0.4l-0.3-10l-1-1l0.3,12c0,0-0.4-0.4-0.6-0.7l-0.3-11.9l0,0l-0.8-0.9l0.3,11.8c-0.2-0.1-0.4-0.3-0.6-0.5l-0.3-12l-1.1-1.2l0.8,22.1c0,0,0.2,3.3,0.6,4.9c0.3,1,0.7,2.2,1.2,3.2c0.3,0.6,0.7,1.3,1,1.8c0.3,0.5,1.7,2.2,1.8,2.3c0.7,0.8,1.5,1.6,2.4,2.3c0.8,0.7,1.7,1.4,2.6,2c0.3-0.8,0.7-1.6,1.1-2.3c-0.5,0-1.3,0-2.2-0.2c-0.6-0.1-1.1-0.4-1.6-0.7c-1.2-0.8-2-1.7-2-1.7s1.1-0.1,2,0c0.1,0,0.3,0,0.4,0.1c0.9,0.3,1.7,0.9,1.7,0.9l1.8,1.3c0.1-0.2,0.2-0.3,0.3-0.5c-0.3-0.2-0.8-0.6-1.2-0.9c-1.1-1-1.3-1.6-1.2-3C-62.5,49.6-61.3,50.4-60.3,51.6L-60.3,51.6z M-66.5,42.2c0,0,0.6,1.5,0.6,2.6s-0.7,2.1-0.7,2.1s0,0,0-0.1c-0.1-0.1-0.2-0.5-0.4-1.1c0,0,0,0,0-0.1c-0.1-0.2-0.1-0.4-0.2-0.6c-0.1-0.5-0.2-1,0-1.5c0-0.1,0.1-0.3,0.2-0.5c0.1-0.2,0.2-0.3,0.3-0.5c0.1-0.1,0.1-0.2,0.2-0.3C-66.5,42.2-66.5,42.2-66.5,42.2L-66.5,42.2z M-66.9,40.2c-0.1,0.4-0.1,0.7-0.2,1c-0.1,0.2-0.1,0.3-0.2,0.4c-0.1,0.1-0.1,0.2-0.2,0.3c-0.1,0.2-0.3,0.4-0.4,0.7l-0.2-2.5c0,0,0.1-0.9,0.6-1.6c0,0,0,0,0-0.1c0.1-0.1,0.1-0.2,0.2-0.2c0.1-0.1,0.1-0.2,0.2-0.2c0.2-0.2,0.3-0.3,0.3-0.3S-66.9,39.8-66.9,40.2L-66.9,40.2z M-67.7,33.7c0.1-0.1,0.1-0.2,0.2-0.2c0.1-0.1,0.1-0.2,0.2-0.2c0.1-0.1,0.1-0.2,0.2-0.2c0.1-0.1,0.1-0.1,0.1-0.1s0.1,2,0,2.4c0,0.2-0.1,0.3-0.1,0.5c-0.1,0.2-0.1,0.3-0.2,0.5c-0.1,0.1-0.1,0.3-0.2,0.4c0,0.1-0.1,0.2-0.1,0.2c-0.2,0.3-0.6,0.7-0.6,0.7l-0.2-2.5C-68.4,35.2-68.3,34.4-67.7,33.7L-67.7,33.7z M-70.7,32.8c0,0,0.4,0.3,1,0.8c0,0,0.1,0,0.1,0.1C-69,34.2-69,35-69,35s0,0.3,0,1c0,0.7,0.1,1.6,0.1,1.6s-0.4-0.1-0.8-0.5c-0.3-0.3-0.8-0.8-1-1.5C-70.9,34.5-70.7,32.8-70.7,32.8z M-70.7,37.5c0,0,0.4,0.2,1.1,0.8c0,0,0,0,0.1,0.1c0.8,0.7,0.8,1.7,0.9,2.5c0,0.8,0.2,1.8,0.2,1.8s-0.6-0.1-1.1-0.6c-0.3-0.3-0.6-0.7-0.8-1.4C-70.9,39.4-70.7,37.5-70.7,37.5L-70.7,37.5z M-69.6,45.4c-0.7-1.3-0.8-3.1-0.8-3.1s0.3,0.2,0.8,0.5c0.1,0,0.2,0.1,0.3,0.2c0.7,0.4,1.3,1.4,1.3,1.4s0.1,0.6,0.2,1.2c0.1,0.3,0.2,0.6,0.3,0.9c0.1,0.2,0.1,0.3,0.2,0.5c0.1,0.1,0.1,0.2,0.1,0.2s0,0-0.1,0c0,0-0.1,0-0.2,0c-0.3-0.1-1-0.4-1.7-1.2C-69.3,45.8-69.5,45.7-69.6,45.4L-69.6,45.4z M-64.3,50.9c-0.4,0-1.3,0-2.4-0.5c-0.2-0.1-0.3-0.2-0.4-0.3c-0.1,0-0.1-0.1-0.2-0.1c-0.1-0.1-0.1-0.1-0.2-0.2c-1-0.9-1.5-2.3-1.5-2.3s0.5,0.1,1.2,0.3c0.1,0,0.2,0,0.3,0.1c0.1,0,0.1,0,0.2,0.1c0,0,0.1,0,0.2,0.1c0.2,0.1,0.3,0.2,0.4,0.2c0.4,0.2,0.7,0.5,0.9,0.9c0.4,0.6,1.1,1.2,1.4,1.5c0.1,0.1,0.2,0.1,0.2,0.1S-64.2,50.9-64.3,50.9L-64.3,50.9z M-63.3,50.8c-0.3-0.3-0.7-0.6-1-1c-0.6-0.6-1.1-1.4-1.1-2.5c0-0.8,0.1-1.3,0.1-1.3s0.5,0.6,1.1,1.3c0.3,0.5,0.7,1,0.9,1.5C-62.9,49.9-63.3,50.8-63.3,50.8L-63.3,50.8z"/><path class="st2" d="M-32.6,49.6c0.1,1.4-0.2,2.1-1.2,3c-0.4,0.3-0.8,0.7-1.2,0.9c0.1,0.2,0.2,0.3,0.3,0.5l1.8-1.3c0,0,0.8-0.6,1.7-0.9c0.1,0,0.3-0.1,0.4-0.1c0.9-0.1,2,0,2,0s-0.7,1-2,1.7c-0.5,0.3-1,0.5-1.6,0.7c-0.9,0.2-1.7,0.2-2.2,0.2c0.4,0.7,0.8,1.5,1.1,2.3c0.9-0.6,1.8-1.3,2.6-2c0.8-0.7,1.6-1.5,2.4-2.3c0.2-0.2,0.8-0.9,0.8-1c0.3-0.5,0.7-0.9,1-1.4c0.4-0.6,0.7-1.2,1-1.8c0.5-1.1,0.9-2.2,1.2-3.2c0.4-1.6,0.6-4.9,0.6-4.9l0.8-22.1l-1.1,1.2l-0.3,12c-0.2,0.2-0.4,0.3-0.6,0.5l0.3-11.8l-0.8,0.9l0,0l-0.3,11.9c-0.2,0.3-0.6,0.7-0.6,0.7l0.3-12l-1,1l-0.3,10c-0.1-0.1-0.5-0.4-0.5-0.4l0.2-9l-0.8,0.9l-0.5,16.1c0,0,0,2.8-1.7,5.9c-0.7,1.2-1.6,2.4-2.8,3.5c-0.9,0.8-1.9,1.5-3,2.3c0.4,0.4,0.8,0.9,1.2,1.4c0.1-0.4,0.3-0.9,0.7-1.3C-33.9,50.4-32.6,49.6-32.6,49.6L-32.6,49.6z M-28.4,42.4c0,0.1,0.1,0.2,0.2,0.3c0.1,0.2,0.2,0.3,0.3,0.5c0.1,0.2,0.2,0.3,0.2,0.5c0.2,0.5,0.1,1,0,1.5c0,0.2-0.1,0.4-0.2,0.6c0,0,0,0,0,0.1c-0.2,0.6-0.3,0.9-0.4,1.1c0,0,0,0.1,0,0.1s-0.7-1-0.7-2.1s0.6-2.6,0.6-2.6S-28.6,42.2-28.4,42.4L-28.4,42.4z M-28.3,37.6c0,0,0.1,0.1,0.3,0.3c0.1,0.1,0.1,0.2,0.2,0.2c0.1,0.1,0.1,0.2,0.2,0.2c0,0,0,0,0,0.1c0.5,0.7,0.6,1.6,0.6,1.6l-0.2,2.5c-0.1-0.2-0.3-0.5-0.4-0.7c-0.1-0.1-0.1-0.2-0.2-0.3c-0.1-0.1-0.1-0.2-0.2-0.4c-0.1-0.2-0.2-0.6-0.2-1C-28.3,39.8-28.3,37.6-28.3,37.6L-28.3,37.6z M-26.7,35.2l-0.2,2.5c0,0-0.3-0.4-0.6-0.7c0-0.1-0.1-0.1-0.1-0.2c-0.1-0.1-0.1-0.3-0.2-0.4c-0.1-0.2-0.1-0.3-0.2-0.5c-0.1-0.2-0.1-0.4-0.1-0.5c0-0.4,0-2.4,0-2.4s0,0,0.1,0.1c0,0,0.1,0.1,0.2,0.2c0.1,0,0.1,0.1,0.2,0.2c0.1,0.1,0.1,0.2,0.2,0.2C-26.8,34.4-26.7,35.2-26.7,35.2L-26.7,35.2z M-24.6,35.6c-0.2,0.7-0.6,1.2-1,1.5c-0.4,0.3-0.8,0.5-0.8,0.5s0.1-0.9,0.1-1.6c0-0.7,0-1,0-1s0.1-0.8,0.6-1.4c0,0,0,0,0.1-0.1c0.6-0.5,1-0.8,1-0.8S-24.2,34.5-24.6,35.6L-24.6,35.6z M-24.7,40.6c-0.2,0.6-0.5,1.1-0.8,1.4c-0.6,0.5-1.1,0.6-1.1,0.6s0.1-1,0.2-1.8c0-0.8,0.1-1.8,0.9-2.5c0,0,0,0,0.1-0.1c0.6-0.6,1.1-0.8,1.1-0.8S-24.3,39.4-24.7,40.6L-24.7,40.6z M-25.9,46c-0.7,0.8-1.3,1.1-1.7,1.2c-0.1,0-0.2,0-0.2,0c-0.1,0-0.1,0-0.1,0s0-0.1,0.1-0.2c0.1-0.1,0.1-0.3,0.2-0.5c0.1-0.3,0.2-0.6,0.3-0.9c0.2-0.6,0.2-1.2,0.2-1.2s0.6-1,1.3-1.4c0.1-0.1,0.2-0.1,0.3-0.2c0.5-0.3,0.8-0.5,0.8-0.5s-0.1,1.8-0.8,3.1C-25.7,45.6-25.8,45.8-25.9,46L-25.9,46z M-31,50.9c0,0,0.1,0,0.2-0.1c0.3-0.3,1-1,1.4-1.5c0.3-0.3,0.6-0.7,0.9-0.9c0.2-0.1,0.3-0.2,0.5-0.2c0.1,0,0.1,0,0.2-0.1c0.1,0,0.1,0,0.2-0.1c0.1,0,0.2-0.1,0.3-0.1c0.8-0.2,1.2-0.3,1.2-0.3s-0.6,1.3-1.5,2.3c-0.1,0-0.1,0.1-0.2,0.2c0,0-0.1,0.1-0.2,0.1c-0.1,0.1-0.3,0.2-0.5,0.3c-1.1,0.5-2,0.5-2.4,0.5C-30.9,50.9-31,50.9-31,50.9L-31,50.9z M-31.7,48.9c0.2-0.5,0.6-1,0.9-1.5c0.5-0.8,1.1-1.3,1.1-1.3s0.1,0.5,0.1,1.3c0,1.1-0.5,1.9-1.1,2.5c-0.3,0.3-0.7,0.7-1,1C-31.9,50.9-32.2,50-31.7,48.9L-31.7,48.9z"/><g><g><path class="st2" d="M-71.3,14.3c0.1,0,0.2,0,0.3,0.1c0.1,0.1,0.1,0.2,0.2,0.3l0.4-0.1c0-0.2-0.1-0.4-0.2-0.4c-0.1-0.2-0.4-0.3-0.6-0.3c-0.3,0-0.5,0.1-0.7,0.3c-0.2,0.2-0.3,0.5-0.3,0.9c0,0.4,0.1,0.7,0.3,0.9c0.2,0.2,0.4,0.3,0.7,0.3c0.2,0,0.4-0.1,0.6-0.2c0.1-0.1,0.2-0.3,0.3-0.6l-0.4-0.1c-0.1,0.2-0.1,0.3-0.2,0.4c-0.1,0.1-0.2,0.1-0.3,0.1c-0.2,0-0.3-0.1-0.4-0.2c-0.1-0.1-0.1-0.4-0.1-0.7c0-0.3,0-0.5,0.1-0.6C-71.6,14.4-71.4,14.3-71.3,14.3L-71.3,14.3z"/><polygon class="st2" points="-68.9,14.9 -69.7,14.9 -69.7,13.9 -70.1,13.9 -70.1,16.4 -69.7,16.4 -69.7,15.3 -68.9,15.3 -68.9,16.4 -68.4,16.4 -68.4,13.9 -68.9,13.9 "/><rect x="-68.1" y="13.9" class="st2" width="0.4" height="2.4"/><polygon class="st2" points="-66,15.6 -66.9,13.9 -67.3,13.9 -67.3,16.4 -66.9,16.4 -66.9,14.8 -66.1,16.4 -65.6,16.4 -65.6,13.9 -66,13.9 "/><path class="st2" d="M-64.4,13.9h-0.2l-0.8,2.4h0.4l0.2-0.6h0.8l0.2,0.6h0.5l-0.8-2.4C-64.2,13.9-64.4,13.9-64.4,13.9z M-64.7,15.4l0.3-0.9v0l0.3,0.9H-64.7L-64.7,15.4z"/><path class="st2" d="M-61.4,13.9h-0.2l-0.8,2.4h0.4l0.2-0.6h0.9l0.2,0.6h0.5l-0.8-2.4L-61.4,13.9L-61.4,13.9z M-61.7,15.4l0.3-0.9l0,0l0.3,0.9H-61.7L-61.7,15.4z"/><path class="st2" d="M-59.2,15.5h0.5v0.3c-0.1,0.1-0.1,0.1-0.2,0.1c-0.1,0.1-0.2,0.1-0.3,0.1c-0.2,0-0.3-0.1-0.4-0.2c-0.1-0.1-0.2-0.4-0.2-0.7c0-0.3,0.1-0.5,0.2-0.6c0.1-0.1,0.3-0.2,0.5-0.2c0.1,0,0.2,0,0.3,0.1c0.1,0.1,0.1,0.2,0.2,0.3l0.4-0.1c0-0.2-0.1-0.4-0.3-0.5c-0.1-0.1-0.3-0.2-0.6-0.2c-0.2,0-0.4,0-0.5,0.1c-0.2,0.1-0.3,0.3-0.4,0.4c-0.1,0.2-0.1,0.4-0.1,0.7c0,0.3,0.1,0.5,0.1,0.7c0.1,0.2,0.2,0.3,0.4,0.4c0.2,0.1,0.4,0.2,0.6,0.2c0.2,0,0.3,0,0.5-0.1c0.2-0.1,0.3-0.2,0.4-0.3v-1h-0.9L-59.2,15.5L-59.2,15.5z"/><path class="st2" d="M-56.6,15.5c-0.1-0.1-0.1-0.1-0.2-0.2c0.2,0,0.3-0.1,0.4-0.2c0.1-0.1,0.1-0.3,0.1-0.4c0-0.1,0-0.3-0.1-0.4c-0.1-0.1-0.1-0.2-0.2-0.2c-0.1,0-0.3-0.1-0.5-0.1H-58v2.4h0.4v-1h0.1c0.1,0,0.2,0,0.2,0c0,0,0.1,0.1,0.1,0.1c0.1,0.1,0.1,0.2,0.2,0.4l0.3,0.5h0.5l-0.2-0.5C-56.4,15.7-56.5,15.6-56.6,15.5z M-56.9,14.9c0,0-0.1,0-0.3,0h-0.4v-0.6h0.7c0.1,0,0.1,0.1,0.2,0.1s0,0.1,0,0.2c0,0.1,0,0.1,0,0.2"/><rect x="-56" y="13.9" class="st2" width="0.5" height="2.4"/><path class="st2" d="M-54.3,14.3c0.1,0,0.2,0,0.3,0.1c0.1,0.1,0.1,0.2,0.2,0.3l0.4-0.1c0-0.2-0.1-0.4-0.2-0.4c-0.2-0.2-0.4-0.3-0.6-0.3c-0.3,0-0.5,0.1-0.7,0.3c-0.2,0.2-0.3,0.5-0.3,0.9c0,0.4,0.1,0.7,0.3,0.9c0.2,0.2,0.4,0.3,0.7,0.3c0.2,0,0.4-0.1,0.6-0.2c0.1-0.1,0.2-0.3,0.3-0.6l-0.4-0.1c0,0.2-0.1,0.3-0.2,0.4c-0.1,0.1-0.2,0.1-0.3,0.1c-0.2,0-0.3-0.1-0.4-0.2c-0.1-0.1-0.1-0.4-0.1-0.7c0-0.3,0-0.5,0.1-0.6C-54.6,14.4-54.5,14.3-54.3,14.3L-54.3,14.3z"/><path class="st2" d="M-51.9,15.3c0,0.2,0,0.3,0,0.4c0,0.1-0.1,0.1-0.1,0.2c-0.1,0.1-0.1,0.1-0.3,0.1c-0.1,0-0.2,0-0.3-0.1c-0.1-0.1-0.1-0.1-0.1-0.2c0-0.1,0-0.2,0-0.4V14h-0.4v1.3c0,0.3,0,0.5,0,0.6c0,0.1,0.1,0.2,0.1,0.3c0.1,0.1,0.2,0.2,0.2,0.2c0.1,0,0.3,0.1,0.5,0.1c0.2,0,0.3,0,0.4-0.1c0.1,0,0.2-0.1,0.2-0.2c0.1-0.1,0.1-0.2,0.1-0.3c0-0.1,0-0.3,0-0.6v-1.3h-0.4V15.3L-51.9,15.3z"/><polygon class="st2" points="-50.6,13.9 -51.1,13.9 -51.1,16.4 -49.6,16.4 -49.6,16 -50.6,16 "/><polygon class="st2" points="-49.7,14.4 -49.1,14.4 -49.1,16.4 -48.7,16.4 -48.7,14.4 -48,14.4 -48,13.9 -49.7,13.9 "/><path class="st2" d="M-46.6,15.3c0,0.2,0,0.3,0,0.4c0,0.1,0,0.1-0.1,0.2C-46.8,16-46.9,16-47,16c-0.1,0-0.2,0-0.3-0.1c-0.1-0.1-0.1-0.1-0.1-0.2c0-0.1,0-0.2,0-0.4V14h-0.4v1.3c0,0.3,0,0.5,0,0.6c0,0.1,0.1,0.2,0.1,0.3c0,0.1,0.1,0.2,0.2,0.2c0.1,0,0.2,0.1,0.4,0.1c0.2,0,0.3,0,0.4-0.1s0.2-0.1,0.2-0.2c0.1-0.1,0.1-0.2,0.1-0.3c0-0.1,0-0.3,0-0.6v-1.3h-0.4V15.3L-46.6,15.3z"/><path class="st2" d="M-42.9,13.9h-0.2l-0.8,2.4l-0.2-0.4c-0.1-0.2-0.2-0.3-0.2-0.4c-0.1-0.1-0.1-0.1-0.2-0.2c0.2,0,0.3-0.1,0.4-0.2c0.1-0.1,0.1-0.3,0.1-0.4c0-0.1,0-0.3-0.1-0.4c-0.1-0.1-0.1-0.2-0.3-0.2c-0.1,0-0.3-0.1-0.5-0.1h-0.9v2.4h0.4v-1h0.1c0.1,0,0.2,0,0.2,0c0,0,0.1,0.1,0.1,0.1c0,0.1,0.1,0.2,0.2,0.4l0.3,0.5h0.9l0.2-0.6h0.9l0.2,0.6h0.5l-0.8-2.4L-42.9,13.9L-42.9,13.9z M-45,15h-0.4v-0.6h0.7c0.1,0,0.1,0.1,0.2,0.1c0,0,0,0.1,0,0.2c0,0.1,0,0.1,0,0.2c0,0.1-0.1,0.1-0.1,0.1C-44.7,15-44.8,15-45,15L-45,15z M-43.2,15.4l0.3-0.9v0l0.3,0.9H-43.2z"/><polygon class="st2" points="-41.3,13.9 -41.7,13.9 -41.7,16.4 -40.2,16.4 -40.2,16 -41.3,16 "/><path class="st2" d="M-38.2,15.3c0,0.2,0,0.3,0,0.4c0,0.1,0,0.1-0.1,0.2c0,0.1-0.2,0.1-0.3,0.1c-0.1,0-0.2,0-0.3-0.1c-0.1-0.1-0.1-0.1-0.1-0.2c0-0.1,0-0.2,0-0.4V14h-0.4v1.3c0,0.3,0,0.5,0,0.6c0,0.1,0,0.2,0.1,0.3c0.1,0.1,0.2,0.2,0.2,0.2c0.1,0,0.3,0.1,0.5,0.1c0.2,0,0.3,0,0.4-0.1c0.1,0,0.2-0.1,0.3-0.2c0-0.1,0.1-0.2,0.1-0.3c0-0.1,0-0.3,0-0.6v-1.3h-0.4L-38.2,15.3L-38.2,15.3z"/><polygon class="st2" points="-36.1,15.6 -37,13.9 -37.4,13.9 -37.4,16.4 -37,16.4 -37,14.8 -36.1,16.4 -35.7,16.4 -35.7,13.9 -36.1,13.9 "/><rect x="-35.3" y="13.9" class="st2" width="0.4" height="2.4"/><polygon class="st2" points="-33.8,15.8 -34.3,13.9 -34.8,13.9 -34,16.4 -33.6,16.4 -32.8,13.9 -33.3,13.9 "/><polygon class="st2" points="-32.2,15.3 -31.2,15.3 -31.2,14.9 -32.2,14.9 -32.2,14.4 -31.1,14.4 -31.1,13.9 -32.7,13.9 -32.7,16.4 -31.1,16.4 -31.1,16 -32.2,16 "/><path class="st2" d="M-29.4,15.5c-0.1-0.1-0.2-0.1-0.2-0.2c0.2,0,0.3-0.1,0.4-0.2c0.1-0.1,0.2-0.3,0.2-0.4c0-0.1,0-0.3-0.1-0.4c-0.1-0.1-0.1-0.2-0.2-0.2c-0.1,0-0.2-0.1-0.5-0.1h-0.9v2.4h0.4v-1h0.1c0.1,0,0.2,0,0.2,0c0,0,0.1,0.1,0.1,0.1c0.1,0.1,0.1,0.2,0.2,0.4l0.3,0.5h0.5l-0.2-0.5C-29.3,15.7-29.3,15.6-29.4,15.5z M-29.9,15h-0.4v-0.6h0.6c0.1,0,0.1,0.1,0.2,0.1c0,0,0.1,0.1,0.1,0.2c0,0.1,0,0.1,0,0.2c0,0.1-0.1,0.1-0.1,0.1C-29.7,14.9-29.8,15-29.9,15L-29.9,15z"/><path class="st2" d="M-27.5,15c-0.1-0.1-0.2-0.1-0.5-0.2c-0.2,0-0.3-0.1-0.4-0.2c0,0-0.1-0.1-0.1-0.1c0-0.1,0-0.1,0.1-0.2c0.1-0.1,0.2-0.1,0.3-0.1c0.1,0,0.2,0,0.3,0.1c0.1,0.1,0.1,0.1,0.1,0.3l0.4,0c0-0.2-0.1-0.4-0.2-0.5c-0.1-0.1-0.3-0.2-0.6-0.2c-0.2,0-0.3,0-0.4,0.1c-0.1,0-0.2,0.1-0.3,0.2c0,0.1-0.1,0.2-0.1,0.4c0,0.2,0.1,0.4,0.2,0.5c0.1,0.1,0.3,0.2,0.5,0.3c0.2,0.1,0.3,0.1,0.3,0.1c0.1,0,0.1,0.1,0.2,0.1c0,0.1,0,0.1,0,0.1c0,0.1,0,0.2-0.1,0.2C-27.7,16-27.8,16-28,16s-0.2,0-0.3-0.1c-0.1-0.1-0.1-0.2-0.2-0.4l-0.4,0.1c0,0.3,0.1,0.5,0.3,0.6c0.2,0.1,0.4,0.2,0.6,0.2c0.2,0,0.3,0,0.5-0.1c0.1-0.1,0.2-0.2,0.3-0.3c0.1-0.1,0.1-0.3,0.1-0.4s0-0.3-0.1-0.4C-27.3,15.2-27.3,15.1-27.5,15L-27.5,15z"/><rect x="-26.9" y="13.9" class="st2" width="0.4" height="2.4"/><polygon class="st2" points="-23.1,13.9 -23.6,14.9 -24.1,13.9 -24.6,13.9 -24.6,13.9 -26.3,13.9 -26.3,14.4 -25.6,14.4 -25.6,16.4 -25.2,16.4 -25.2,14.4 -24.6,14.4 -24.6,14 -23.8,15.4 -23.8,16.4 -23.4,16.4 -23.4,15.4 -22.6,13.9 "/></g><g><path class="st2" d="M-57.3,4.9C-57.3,4.9-57.4,4.9-57.3,4.9c-0.2-0.1-0.4-0.1-0.5-0.2c-0.3,0-0.6,0-0.8,0.1h0c0,0,0,0-0.1,0c-0.2,0.1-0.5,0.2-0.7,0.3c-0.2,0.1-0.4,0.2-0.4,0.2c-0.2,0.2-0.6,0.4-0.4,0.7c0.1,0.2,0.3,0.2,0.4,0.1c0.1,0,0.2-0.1,0.2,0.1c0.1,0.2,0.1,0.3,0,0.4c-0.1,0.1-0.7,0.3-0.5,0.6c0.3,0.2,0.4,0.3,0.4,0.3c0.1,0-0.1,0-0.4,0.3c-0.2,0.2-0.3,0.2-0.3,0.4c-0.1,0.2-0.1,0.4,0.1,0.7c0.1,0.2,0.3,0.2,0.5,0.2c0.2,0,0.1,0.2,0,0.3c0,0.1-0.3,0.5-0.3,0.7c0,0.1,0.2,0.3,0.4,0.3c0,0,0.1,0,0.1,0c0.1,0,0.4-0.2,0.6-0.4c0,0,0.1-0.1,0.1-0.1h0c0,0,0,0,0,0c0.2-0.3,0.5-0.5,0.5-0.6c0-0.1,0,0.2-0.1,0.3c-0.1,0.1-0.3,0.6,0,0.5c0.2,0,0.3-0.1,0.4-0.2c0.1-0.1,0.1-0.1,0.1-0.2c0-0.1,0.1,0,0.2,0.1c0,0,0.1,0,0.2,0c0.1,0,0.3-0.2,0.3-0.3c0-0.2,0-0.2-0.1-0.3c-0.1-0.1-0.1-0.3,0-0.5c0.1-0.2,0.2-0.6,0.3-0.7c0.1-0.1,0.1-0.5-0.1-0.6c-0.1,0-0.2,0-0.2,0c-0.2,0-0.3,0.2-0.4,0.4C-57.9,8-58,8-58,8c-0.1-0.2-0.3-0.6-0.3-0.7c-0.1-0.2-0.1-0.4,0.1-0.4c0.2,0,0-0.6-0.2-0.7c-0.1,0-0.2,0-0.3,0c0,0,0,0,0,0c0,0,0,0-0.1,0c0,0-0.1,0-0.1-0.1c-0.1-0.2-0.1-0.3-0.1-0.3c0,0,0.1-0.1,0.3-0.1c0,0,0.1,0,0.1,0c0,0,0,0,0.1,0c0.3-0.1,0.6-0.1,0.8-0.2c0.1,0,0.3,0,0.3,0.1c0,0,0.1,0.1,0.1,0.1c0.1,0.1,0.2,0.2,0.2,0.4c0.1,0.2,0.2,0.9,0.3,1.2c0,0.3,0.1,1.7,0.1,2.2c0,0.4-0.2,0.9-0.3,1.1c-0.1,0.2-0.2,0.2-0.3,0.1c0,0-0.1-0.2-0.3-0.3c-0.1-0.1-0.3-0.1-0.5-0.1c0,0-0.1,0-0.1,0c-0.2,0.1-0.5,0.2-0.7,0.2c0,0,0,0,0,0c0,0,0,0-0.1,0c-0.2,0.1-0.3,0.1-0.4,0.2s-0.2,0.1-0.2,0.1l0,0.7c0.1,0,0.1,0,0.2,0c0.2-0.1,0.3-0.1,0.4-0.2c0,0,0.1,0,0.1-0.1c0,0,0,0,0,0c0.2-0.1,0.5-0.2,0.8-0.3c0.1,0,0.1,0,0.2,0c0.1,0,0.2,0,0.2,0c0.2,0,0.2,0.1,0.3,0.1c0.2,0,0.5,0,0.7-0.5c0.2-0.4,0.3-1.5,0.3-2.3C-56.5,7.5-56.3,5.4-57.3,4.9L-57.3,4.9z M-59.7,7.9C-59.7,7.9-59.6,7.9-59.7,7.9C-59.6,8-59.6,8-59.7,7.9L-59.7,7.9C-59.7,8-59.7,8-59.7,7.9C-59.7,8-59.8,8-59.7,7.9z M-59.2,9.1c0-0.1,0.1-0.1,0.1-0.1c0,0,0.1,0,0.1,0c0,0,0-0.1,0.1-0.1V8.8c0,0,0.1-0.2,0-0.3l0,0c0,0,0-0.1,0-0.1c0,0-0.1,0-0.1,0c0,0,0-0.1,0-0.1c0-0.1,0.1-0.2,0.1-0.3c0,0,0,0,0,0c0,0,0,0,0,0c0.1,0.1,0.3,0.6,0.3,0.6s0,0.1,0,0.2c0,0-0.2,0.2-0.3,0.4c0,0,0,0-0.1,0c0,0,0,0.1-0.1,0.1c-0.2,0.2-0.4,0.4-0.4,0.4c-0.1,0,0-0.2,0-0.3C-59.5,9.5-59.4,9.1-59.2,9.1L-59.2,9.1z"/><path class="st2" d="M-58.1,6.8c0,0-0.1,0.2,0.1,0.2c0.1,0,0.1-0.1,0.1-0.2C-57.9,6.7-58.1,6.7-58.1,6.8z"/><path class="st2" d="M-57.4,6.5c0.1-0.1,0.1-0.3,0.1-0.4c0-0.2-0.2-0.3-0.3-0.3c-0.1,0-0.2-0.2-0.6,0c-0.2,0.1-0.2,0.2-0.2,0.3c0,0.1,0.1,0.3,0,0.3c-0.1,0,0.2,0.3,0.3,0.4c0.1,0.1,0.2,0.1,0.2,0C-57.7,6.6-57.5,6.6-57.4,6.5L-57.4,6.5z"/><path class="st2" d="M-61,8.2c0-0.6,0.2-1.4,0-1.6c-0.2-0.2-0.4-0.2-0.5-0.2c-0.3,0.1-0.4,0.7-0.5,1.1c-0.1,0.5,0.1,1.9,0.1,2.8c0.1,0.8,0.5,1,0.8,0.9c0.3-0.1,0.4-0.6,0.2-1C-61.1,9.8-61,8.8-61,8.2L-61,8.2z"/></g><g><path class="st2" d="M-50.2,4.1c-0.5-0.1-0.5-0.2-0.4-0.3c0.1-0.1,0.1-0.3-0.1-0.5h0c0,0,0,0,0,0c-0.4-0.1-0.5,0.4-0.5,0.5c0,0.2,0,0.2,0,0.3h-0.1c0,0-0.1-0.2-0.1-0.3c0,0-0.1-0.1-0.1-0.2c-0.1-0.1-0.3-0.1-0.5,0c0,0-0.1,0-0.1,0c-0.2,0.1-0.2,0.4-0.2,0.5c0.1,0.1,0.1,0.3-0.1,0.5c0,0.1,0,0.1,0,0.1c-0.1,0-0.2,0-0.4,0.2c-0.2-0.1-0.3,0-0.4,0.1c-0.1,0.1-0.2,1.2-0.1,1.5c0.1,0.3,0.5,0.2,0.6,0.2c0,0.2,0.1,0.2,0.3,0.2c0.1,0,0.2-0.1,0.2-0.1h0c0.1-0.1,0.1,0,0,0.1c0,0-0.1,0-0.1,0.1c0,0-0.1,0-0.2,0c-0.1,0.1-0.3,0.1-0.3,0.3c0,0.2,0.2,0.3,0.3,0.3h0c0,0,0.1,0,0,0.1c0,0.1-0.1,0.1-0.2,0.2c-0.4,0.4-1.3,2-1.4,2.3c-0.1,0.3,0,0.4,0.1,0.3c0.1-0.1,0.1,0,0.3,0s0.2-0.1,0.2-0.3c0.1-0.2,0.4-0.8,0.4-0.8c0.2,0.1,0.4,0.2,0.4,0.2c0,0,0.1,0,0.1,0c0,0,0.2-0.1,0.3-0.1c0.1,0,0.2-0.1,0.2-0.1c0.1-0.1,0.3-0.2,0.1,0.1c-0.1,0.2-0.2,0.5-0.3,0.7v0c-0.2,0.5-0.2,1-0.2,1.2c0,0.3,0.1,0.5,0.2,0.5c0,0,0.1,0,0.1,0c0.1,0,0.4-0.4,0.2-0.3c-0.2,0.2-0.3,0.1-0.3,0v-0.2c0-0.1,0-0.2,0.1-0.3c0-0.2,0.2-1,0.3-1.2c0-0.1,0.1-0.2,0.2-0.3c0-0.1,0-0.1,0-0.1c0.1-0.1,0-0.2,0-0.2s0.1,0,0.2-0.1c0,0,0,0,0.1,0c0.1,0,0.3-0.1,0.5-0.1h0l0,0c0.3-0.1,0.6-0.2,0.6-0.2c0.1-0.1,0.2-0.1,0.1-0.3c-0.1-0.2-0.6-0.1-0.7,0v0h0c0,0,0,0,0,0c-0.1,0-0.3,0.1-0.5,0.2c0,0,0,0-0.1,0c-0.1,0.1-0.2,0.1-0.2,0.1C-51.8,8.9-52,9-52.1,9c0,0-0.1,0-0.1,0l0,0c0.1-0.1,0.3-0.4,0.3-0.5c0.1-0.1,0.2-0.2,0.2-0.2c0.1,0,0.1,0,0,0.1c-0.1,0,0.1,0.1,0.2,0.1h0.1c0.1,0,0.3-0.1,0.4-0.2c0-0.1,0.1-0.1,0.1-0.1V8c-0.1-0.2-0.3-0.3-0.5-0.3h0c0,0,0,0,0,0c-0.1,0-0.1-0.1,0-0.2c0,0,0,0,0.1,0c0.1-0.1,0.1-0.1,0.2-0.1c0.4-0.2,0.2-0.6-0.1-0.6c0.1-0.1,0.1-0.2,0.2-0.3c0,0,0.1,0,0.1,0h0c0.1,0,0.3-0.1,0.4-0.2c0.5-0.2,0.7-0.5,0.7-0.8C-49.5,5-49.8,4.2-50.2,4.1L-50.2,4.1z M-52.2,5.6C-52.2,5.6-52.2,5.6-52.2,5.6c-0.2,0.1-0.2,0.1-0.2,0.1V6c0,0.1,0.1,0.1,0.1,0.1s0,0.2,0,0.2c0,0.1-0.1,0.1-0.1,0.1c0,0-0.1,0-0.1,0c0,0,0-0.1,0-0.1c-0.1-0.2-0.1-1.1,0-1.1c0,0,0.1,0,0.2,0h0.2C-52.2,5.3-52.2,5.5-52.2,5.6z M-52.1,8.3C-52.2,8.4-52.2,8.4-52.1,8.3c-0.1,0.1-0.1,0.1-0.2,0.2c0,0.1-0.2,0.1-0.1,0.1C-52.4,8.5-52.3,8.4-52.1,8.3c0-0.2,0.1-0.2,0.2-0.3C-51.9,8-52,8.2-52.1,8.3L-52.1,8.3z M-51.6,6.2L-51.6,6.2V6v0C-51.6,6-51.6,6.1-51.6,6.2z M-51.3,5.1C-51.3,5.1-51.3,5.2-51.3,5.1c-0.1,0.1-0.1,0.1-0.1,0c0-0.1,0-0.2,0.1-0.2c0,0,0-0.1,0.1-0.1v0.1C-51.3,5-51.3,5.1-51.3,5.1L-51.3,5.1z M-50.4,5.4l-0.2,0.4c0,0.1-0.1,0.1-0.2,0.2c0,0,0,0,0,0c0,0,0,0,0,0c-0.1,0.1-0.1,0.1-0.2,0.2c-0.1,0-0.2,0.1-0.3-0.1V6c0-0.1,0.1-0.1,0.2-0.2c0.1-0.1,0.2-0.1,0.3-0.2c0,0,0,0,0-0.1l0,0c0-0.1,0-0.1,0-0.2c0,0,0,0,0-0.1s0-0.1,0-0.1c0,0,0-0.1-0.1-0.1c-0.1-0.1,0-0.2,0-0.2c0,0,0-0.1,0.1-0.2c0,0,0,0,0,0c0,0,0,0,0,0c0,0,0.1,0,0.1,0c0,0,0.2,0.1,0.2,0.2C-50.3,5-50.3,5.3-50.4,5.4L-50.4,5.4z"/><path class="st2" d="M-48.8,11.4c-0.2-0.1-0.4-0.3-0.5-0.5c-0.2-0.2-0.8-0.7-0.8-0.7c0-0.1-0.1,0-0.1-0.1c0-0.1,0.3-0.2,0.4-0.3c0.1,0,0.1-0.1,0.1-0.3c0-0.1-0.1-0.2-0.2-0.2c-0.1,0-0.3,0.1-0.4,0.1c0,0.1-0.2,0.2-0.3,0.3c-0.1,0.1-0.1,0.1-0.1,0c0-0.1-0.1-0.1-0.2-0.1c-0.1,0-0.2,0-0.4,0c-0.1,0-0.1,0.1,0,0.2c0.1,0.1,0.2,0.3,0.3,0.5c0.1,0.1,0,0.3-0.2,0.6c-0.2,0.3-0.2,0.2-0.2,0.4c0,0.1,0,0.1,0.1,0c0.1-0.1,0.3-0.3,0.3-0.4c0-0.1,0.1-0.2,0.2-0.3c0.1-0.2,0.3,0,0.3,0.1c0,0.1,0.1,0.2,0.2,0.3c0,0.1,0.3,0.3,0.3,0.4c0.1,0.1,0.4,0.2,0.5,0.2c0.1,0,0.4,0.1,0.5,0.1c0,0,0.3,0,0.6,0C-48.3,11.7-48.6,11.5-48.8,11.4L-48.8,11.4z"/></g><path class="st2" d="M-65.6,5.3c-0.2,0.1-0.4,0.1-0.7,0.2c0,0-0.1-0.3,0-0.5c0-0.2,0-0.7-0.5-0.6c-0.3,0.1-0.2,0.3-0.3,0.4c0,0.2,0.1,0.8,0,1c-0.1,0.3-0.5,0.4-0.6,0.7c-0.1,0.3-0.1,0.5,0.3,0.5c0.3,0,0.5-0.2,0.5-0.1c0,0.1,0.1,0.8,0,0.9c-0.1,0.1-0.9,0.5-0.9,0.7c0-0.3,0-0.7-0.2-1c-0.1-0.2-0.5-0.5-0.8-0.2c-0.3,0.4-0.2,0.6,0,1.2c0.1,0.5,0.7,0.5,0.9,0.4c0,0,0.1-0.1,0.2-0.1c0.3,0,0.7-0.1,0.9-0.2c0,0.3,0.2,2,0.2,2.5c0,0.6,0.2,1.2,0.3,1.4c0.1,0.1,0.1,0.1,0.1,0.2c0,0.2,0.2,0.4,0.2,0c0.1-0.4,0-0.6,0.1-0.9s-0.2-2.5-0.1-3.3c0-0.1,0.2-0.2,0.5-0.2c0.1,0,0.2,0,0.3-0.1c0.2-0.1-0.1-0.3,0.4-0.6c0.3-0.2,0.8-1,0.9-1.5V6c0-0.1-0.1-0.2-0.1-0.3C-64.5,5.4-64.9,5.1-65.6,5.3L-65.6,5.3z M-65,6.4c-0.1,0.3-0.3,0.7-0.6,1c0,0-0.1,0.1-0.1,0.1c-0.4,0.3-0.5,0.2-0.5,0c0-0.2,0-0.4,0-0.6c0,0-0.1-0.3,0.2-0.5c0.1,0,0.2-0.1,0.4-0.2C-65.3,6.2-65,6.1-65,6.4L-65,6.4z"/><g><path class="st2" d="M-27.8,10.6c0-0.1,0-0.1-0.2-0.1c-0.2-0.1-0.4-0.1-0.5-0.1c-0.1,0-0.2,0.1-0.3,0c0-0.1-0.1-0.2-0.1-0.3c0,0,0-0.2,0-0.2s0.3-0.2,0.3-0.3c0-0.1,0.1-0.3,0.1-0.5c0-0.1-0.1-0.2-0.2-0.3c-0.1-0.1-0.4-0.1-0.5-0.1c-0.2,0-0.3,0.1-0.3,0.2c0,0.1,0,0.2,0,0.2c0.1,0.1,0.2,0.2,0.2,0.2c0.1,0,0.1,0,0.1,0l0,0.1c0,0-0.1,0.1-0.1,0.1c0,0.1,0,0.1,0,0.1s-0.1,0.3-0.1,0.3c0,0.1,0,0.2,0,0.2s-0.2,0.1-0.3,0c-0.1,0-0.2-0.1-0.3-0.1c0,0-0.2,0-0.2,0c-0.1,0.1-0.2,0.1-0.2,0.1s-0.4,0-0.6,0c-0.2,0-0.4,0.1-0.5,0.1c-0.1,0-0.2,0.1-0.2,0.1l-0.1,0.1v0.3c0,0.1,0.1,0.3,0.1,0.3s0,0.1,0.2,0.1c0.1,0,0.4,0.1,0.4,0.1s0-0.1,0.1-0.1c0.1,0,0.2,0,0.3,0c0.1,0,0.2-0.1,0.2-0.1h0.4c0.1,0,0.2,0,0.3,0c0.1,0,0.2-0.1,0.2-0.1l0.2,0c0,0-0.1,0.2-0.1,0.3c0,0.1,0,0.2-0.2,0.3c-0.1,0.1-0.2,0.1-0.2,0.1l0,0.1l-0.1,0.1c0,0-0.2-0.3-0.2-0.4c-0.1-0.1-0.2-0.1-0.2,0c0,0,0,0.2,0,0.3c0,0.1,0,0.2,0,0.2v0.1c0,0-0.1,0.3,0,0.4c0.1,0,0.1,0.1,0.1,0.1l0.2,0c0,0,0.3,0,0.3-0.1c0.1-0.1,0.1-0.1,0.1-0.1l0.1-0.1c0,0,0.2-0.2,0.3-0.3c0.1-0.1,0.2-0.2,0.2-0.3c0,0,0.2-0.1,0.2-0.3c0-0.2,0.1-0.6,0.1-0.6s0.5,0.1,0.7,0.1c0.1,0,0.3,0,0.2-0.1c0-0.1,0.2-0.2,0.2-0.3C-27.7,10.9-27.7,10.7-27.8,10.6L-27.8,10.6z"/><path class="st2" d="M-31.7,9.4l0.1-0.1c0,0,0-0.1,0-0.2c0-0.1,0.1-0.3,0.1-0.3l0.2-0.1c0,0,0-0.1-0.1-0.1c0,0,0,0-0.1,0c-0.1,0-0.2,0-0.2,0l-0.1,0.1l0,0.1L-32,8.9L-32.1,9c0,0,0,0.1-0.1,0.2c-0.1,0.1,0,0.2-0.1,0.4c-0.1,0.1-0.1,0.3,0,0.4c0,0.1,0.2,0.3,0.2,0.3c0,0,0.2-0.1,0.3-0.1c0.1-0.1,0.2-0.4,0.2-0.5C-31.6,9.5-31.7,9.4-31.7,9.4L-31.7,9.4z"/><path class="st2" d="M-30.8,7.6c0,0,0.2,0.3,0.3,0.3c0.1,0,0.2-0.1,0.2-0.1s0.2-0.1,0.3-0.2c0.1,0,0.1-0.4,0.1-0.5c0-0.1-0.1-0.2-0.1-0.2s0.1-0.1,0.1-0.1c0.1-0.1,0.1-0.4,0.1-0.4l0.1-0.1c0,0,0.1-0.1,0.1-0.2c0-0.1,0-0.2,0-0.2c0-0.1-0.1-0.2-0.1-0.3c0-0.1-0.1-0.1-0.2-0.2c-0.1,0-0.1,0-0.1,0s-0.2,0-0.3,0.1c-0.1,0.1-0.2,0.2-0.2,0.2l0,0.1c0,0,0,0.1-0.1,0.1c-0.1,0.1-0.1,0.3-0.1,0.3l0,0.1l0,0.2l-0.1,0.1l0,0.2c0,0-0.1,0.3-0.1,0.4C-30.9,7.5-30.8,7.6-30.8,7.6L-30.8,7.6z"/><path class="st2" d="M-26.2,8.3c-0.1-0.1-0.1-0.2-0.1-0.2l-0.1-0.1c0,0-0.1,0-0.2,0c-0.1-0.1,0,0-0.1-0.1l0,0h-0.2l-0.1,0l-0.1,0l-0.1-0.1l-0.1,0l-0.1,0l-0.2,0h-0.1l-0.1,0.1l-0.1-0.1l-0.1-0.1l-0.1,0l-0.1,0l0.2-0.1l0.1-0.1c0,0,0-0.1,0-0.2c0-0.1,0.1-0.1,0.1-0.2c0-0.1-0.1-0.2-0.1-0.2l0.1-0.1l0.2-0.1c0,0,0.1-0.1,0.2-0.1c0.1,0,0.2,0,0.2-0.1c0,0,0.1-0.2,0.1-0.2l0-0.1l-0.1-0.1c0,0,0,0-0.2-0.1c-0.2,0-0.1,0.1-0.2,0c-0.1,0-0.1,0-0.2,0c-0.1,0-0.1,0.1-0.1,0.1l-0.1-0.1c0,0,0-0.2,0.1-0.3c0,0,0.1-0.1,0.1-0.2c0-0.1,0.3-0.3,0.4-0.3c0.1-0.1,0.2-0.1,0.2-0.2c0-0.1,0-0.2,0-0.2l-0.1,0l-0.1-0.1h-0.2c0,0,0-0.1-0.1-0.1c0-0.1,0-0.2,0.1-0.2c0-0.1,0.1-0.2,0.1-0.2s0,0-0.1-0.1s0-0.1-0.1-0.1h-0.2c0,0-0.1,0.1-0.2,0.2c0,0.1-0.1,0.3-0.1,0.3s-0.2,0.2-0.3,0.2c-0.1,0-0.1,0.2-0.1,0.2l-0.1,0.1l0,0.2l0.2,0.1l0.1,0.1l0,0.1l-0.1,0.1c0,0,0,0.1,0.1,0.2c0,0.1,0,0.2,0,0.2l-0.1,0.1l-0.1,0.1l-0.1,0l-0.2,0.1v0l-0.1,0.1v0.1c0,0,0,0.2,0,0.2c0,0,0.2,0.2,0.2,0.2s0.1,0,0.1,0c0.1,0,0.2-0.1,0.2-0.1l0,0.2l-0.1,0.2l-0.2,0.2l-0.2,0.1l-0.2,0.1l-0.1,0l-0.1,0V7.7c0,0,0-0.1,0.1-0.2C-29,7.4-29,7.2-29,7.2c0-0.1,0.2-0.7,0.2-0.7s0-0.1,0.1-0.2c0.1-0.1,0.1-0.4,0.1-0.4l0.1-0.1c0,0,0-0.1,0-0.2s0-0.2,0-0.2s-0.1-0.1-0.2-0.1c0,0-0.1,0-0.2,0c-0.1,0-0.2,0.1-0.2,0.1c-0.1,0-0.1,0.1-0.1,0.1c0,0.1-0.1,0.5-0.1,0.5l-0.1,0c0,0,0,0.1-0.1,0.2c0,0.1-0.2,0.9-0.2,0.9l0,0c0,0,0,0.1-0.1,0.2c0,0.1,0,0.3,0.1,0.3c0.1,0,0.4,0.1,0.4,0.1l-0.2,0.1L-29.6,8h-0.1l-0.2,0.1l-0.2,0.1h-0.2l-0.2,0.1l-0.1,0.1l-0.2,0c0,0,0,0.1,0,0.1c0,0,0,0.2,0.1,0.2c0,0.1,0.4,0.1,0.5,0.1c0.1,0,0.4-0.2,0.4-0.2s0.1,0.1,0.1,0c0,0,0.3-0.2,0.3-0.2s0.2,0,0.2-0.1c0.1,0,0.2-0.1,0.2-0.1l0.1,0c0,0,0.1-0.1,0.2-0.1c0.1,0,0.3,0,0.3,0c0.1,0,0.5-0.1,0.7-0.1c0.2,0.1,0.5,0,0.6,0.1c0.1,0,0.3,0.1,0.3,0.1l0.1,0.1c0,0,0,0.1-0.1,0.2c-0.1,0.1-0.2,0.2-0.2,0.2l-0.1,0l0,0.1l-0.2,0.1c0,0-0.1,0-0.1,0.1c0,0.1,0,0.1,0,0.1s0,0.1,0.1,0.1c0.1,0,0.2,0,0.2,0s0.2,0,0.3,0c0.1-0.1,0.3-0.1,0.4-0.3C-26.5,9-26.3,9-26.3,9s0-0.1,0-0.1c0-0.1,0.1-0.2,0.1-0.3C-26.1,8.4-26.1,8.3-26.2,8.3L-26.2,8.3z"/></g><path class="st2" d="M-33.7,10.7l-0.1-0.1c0,0-0.7-0.6-0.8-0.6c-0.1-0.1-0.4-0.3-0.5-0.4c0-0.1-0.8-0.8-0.9-1c-0.2-0.1-0.6-0.6-0.6-0.6c-0.1,0-0.1,0-0.2-0.1C-36.9,7.9-37,7.9-37,7.9s0.3-0.4,0.5-0.6c0.2-0.1,0.3-0.2,0.4-0.2c0.1-0.1,0.6-0.1,0.8-0.1C-35.1,7-35,7-35,6.9c0-0.1,0-0.2,0-0.2c0-0.1,0.1-0.2,0.1-0.2l0-0.2c0,0-0.2-0.1-0.4-0.2C-35.4,6-35.5,6-35.6,6h-0.2c0,0-0.1-0.3-0.1-0.5c0-0.1-0.1-0.3-0.2-0.4C-36.3,5-36.5,4.9-36.6,5C-36.8,5-37,5.1-37,5.2c0,0.1-0.1,0.2-0.1,0.3c0,0.1-0.1,0.3-0.1,0.4c0,0.1-0.1,0.3-0.1,0.3l-0.1,0.2c0,0-0.3,0.1-0.5,0.1c-0.1,0-0.3,0-0.3,0s0-0.1-0.1-0.1c-0.1,0-0.4,0.1-0.5,0.2c0,0.1-0.1,0.3,0,0.3c0,0.1,0.1,0.2,0.1,0.2s0.1,0.2,0.1,0.2c0.1,0.1,0.2,0.1,0.2,0.1l0.6,0.1c0,0-0.3,0.6-0.3,0.7c0,0.1-0.3,0.4-0.3,0.4c0,0.1-0.1,0-0.2,0.1c0,0-0.2,0.2-0.2,0.3c0,0-0.1,0.1-0.1,0.1l-0.1,0.1l-0.4,0.3c0,0,0.1,0.1,0.2,0c0.1,0,0.2-0.1,0.2-0.1s0,0,0.2,0c0.1,0,0.3,0,0.3,0s0,0,0.2,0c0.1,0,0.5-0.3,0.5-0.4c0-0.1,0-0.1,0.1-0.2c0.1,0,0.2-0.3,0.2-0.4c0,0,0.2-0.2,0.2-0.2s0.4,0.6,0.5,0.7c0.1,0.1,0.4,0.7,0.5,0.9c0.1,0.1,0.5,0.6,0.5,0.7c0.1,0.1,0.5,0.3,0.7,0.4c0.1,0,0.4,0.1,0.5,0.1c0.1,0,0.5-0.1,0.6,0c0.1,0,0.3-0.1,0.3-0.1L-33.7,10.7L-33.7,10.7L-33.7,10.7z"/><g><path class="st2" d="M-40.5,5.4c-0.1,0-0.2-0.1-0.3-0.1c-0.1,0-0.2,0.1-0.2,0.1c0,0-0.2,0.1-0.3,0.1c-0.1,0-0.2,0-0.2,0c-0.1,0.1-0.2,0-0.3,0c-0.1,0-0.1,0-0.2,0.1c-0.1,0-0.3,0.1-0.3,0.1h-0.2c-0.1,0-0.1,0.1-0.1,0.1c0,0-0.3,0.1-0.3,0.1h-0.2c0,0-0.1,0-0.1,0c-0.1,0-0.1,0-0.2,0.1c0,0-0.1,0-0.2,0.1C-43.9,6-44,6-44,6s0-0.1,0.1-0.1c0,0,0.1-0.1,0.2-0.1c0.1,0,0.2-0.1,0.3-0.1c0,0,0.1-0.1,0.2-0.2c0.1-0.1,0.2-0.1,0.2-0.2c0.1-0.1,0.1-0.1,0.2-0.1c0,0,0.1,0,0.2-0.1c0-0.1,0.4-0.3,0.5-0.4c0.1-0.1,0.2-0.3,0.3-0.4c0.1-0.1,0.1-0.2,0.1-0.3c0,0,0-0.2-0.1-0.2c-0.1,0-0.2-0.1-0.3,0c-0.1,0-0.2,0.1-0.2,0.2c0,0.1-0.1,0.2-0.2,0.3c0,0.1-0.2,0.3-0.2,0.3s0.1-0.1,0-0.2c0-0.1,0-0.2,0-0.2c0-0.1,0-0.2-0.1-0.3c0-0.1-0.2-0.2-0.3-0.3c0,0-0.1,0-0.1,0c-0.1,0-0.1,0-0.2,0c-0.1,0-0.2,0.2-0.2,0.2v0.3c0,0.1,0,0.2,0,0.2s-0.1,0.4-0.1,0.5c0,0,0,0,0,0.1C-43.8,5.2-44,5.5-44,5.5s0-0.3,0-0.4c0-0.1,0-0.1,0.1-0.2c0-0.1,0-0.4,0.1-0.5c0-0.1,0-0.1,0-0.3c-0.1-0.1-0.2-0.2-0.3-0.2c0,0-0.2-0.1-0.3-0.1c-0.1,0-0.1,0-0.2,0c-0.1,0-0.1,0.1-0.2,0.2c0,0.1-0.1,0.2-0.1,0.2h0c0,0,0,0.1,0,0.2c0,0.1,0,0.1,0.1,0.2c0,0.1,0,0.2,0.1,0.2c0,0.1,0,0.2,0,0.3c0,0.1,0,0.3,0,0.3c0,0.1,0,0.1,0,0.2c0,0.1,0.1,0.1,0.1,0.2c0,0.1,0.1,0.1,0.2,0.1c0.1,0,0.1,0,0.2-0.1c0.1-0.1,0.2-0.2,0.2-0.2s0,0,0,0.1c0,0.1,0,0.1,0,0.1c-0.1,0-0.1,0.1-0.1,0.1s0,0,0,0.1C-44,5.9-44,6-44,6h-0.1c0,0-0.1-0.1-0.1-0.1c0,0-0.1,0.1-0.1,0.1c-0.1,0.1-0.2,0.1-0.3,0.2c-0.1,0.1-0.4,0.2-0.5,0.2c-0.1,0-0.2,0-0.2,0.1c-0.1,0-0.3,0.2-0.4,0.2s-0.1,0-0.2,0c0,0-0.1,0.1-0.1,0.1c-0.1,0-0.1,0.1-0.2,0.1c-0.1,0-0.1,0-0.2,0.1C-46.6,7-46.9,7.2-47,7.2c-0.1,0-0.2,0.1-0.3,0.1c-0.1,0-0.1,0-0.2,0.1c0,0.1-0.1,0.1-0.1,0.2c0,0.1,0.1,0.1,0.1,0.2c0.1,0.1,0.3,0.1,0.4,0.1c0,0,0.1-0.1,0.1-0.2c0-0.1,0.1-0.1,0.2-0.2c0.1-0.1,0.4-0.2,0.9-0.4c0.5-0.2,1.3-0.4,1.3-0.4s0,0.1,0,0.2c0,0.1,0,0.1,0.1,0.2c0.1,0.1,0.1,0.2,0.1,0.2c0,0.1,0,0.1-0.1,0.2c-0.1,0.1-0.4,0.4-0.4,0.4c-0.1,0-0.1,0.1-0.2,0.1c0,0,0,0.1,0,0.1s0.1,0.1,0.1,0.1c0.1,0,0.1,0,0.2,0c0.1,0,0.2,0,0.3-0.1c0.1,0,0.4-0.1,0.4-0.1v0.1c0,0,0,0.2,0,0.2c0,0.1-0.2,0.2-0.2,0.2c-0.1,0.1-0.2,0.1-0.3,0.1s-0.1,0.1-0.1,0.1c0,0-0.3,0.1-0.4,0.1c0,0,0,0.2,0,0.2c0,0.1,0.2,0.1,0.2,0.1c0,0,0.1,0,0.2-0.1c0.1,0,0.4-0.1,0.4-0.1c0.1,0,0,0.1,0,0.1l-0.1,0.1c0,0-0.1,0-0.1,0c-0.1,0.1-0.1,0.1-0.2,0.1c0,0-0.3,0.1-0.4,0.1c-0.1,0-0.2,0.1-0.2,0.1s0,0.2,0,0.3c0,0.1,0.2,0.1,0.2,0.1c0.1,0,0.2,0,0.3-0.1c0.1,0,0.3-0.2,0.4-0.2c0.1,0,0.1,0,0.1,0v0.1c0,0.1,0,0.3,0,0.3s-0.1,0-0.1,0.1c0,0.1-0.2,0.1-0.2,0.1s0,0.1,0,0.1c0.1,0,0.2,0,0.2,0s0,0.1,0,0.2c0,0.1,0,0.2,0,0.3c0,0.1,0,0.1,0,0.1s-0.1-0.1-0.1-0.1c-0.1-0.1-0.1-0.1-0.1,0c0,0,0,0.1,0,0.1c0,0.1,0,0.1,0,0.2s0,0.4,0,0.4s0.1,0.2,0.2,0.2c0.1,0,0.3,0.1,0.3,0.1c0,0,0,0,0,0c0,0,0.2-0.1,0.2-0.2c0.1-0.1,0.1-0.3,0.1-0.4c0-0.1,0-0.3,0-0.3l0.1-0.1c0,0,0,0,0.1,0c0,0,0.1,0,0.1,0c0,0,0.1,0,0.2,0h0.4c0.1,0,0.2-0.1,0.2-0.1c0.1,0,0.1-0.3,0.1-0.3s-0.1-0.2-0.2-0.2c0,0-0.1-0.1-0.2-0.1c-0.1,0-0.1,0-0.2-0.1c-0.1,0-0.2,0-0.2-0.1c0,0-0.1,0-0.2,0c0,0,0,0-0.1,0h0l0-0.2l0-0.1c0,0,0,0,0-0.1v0c0,0,0,0,0-0.1c0,0,0,0,0,0c0-0.1,0.1-0.1,0.1-0.1c0,0,0.2-0.1,0.2-0.1c0.1,0,0.2-0.1,0.2-0.1c0.1-0.1,0.1-0.1,0.1-0.2c0-0.1,0-0.2-0.1-0.2c0,0-0.2,0-0.2,0s-0.1-0.1-0.1-0.1c0,0-0.1,0-0.1,0l-0.1,0c0,0,0.2-0.1,0.2-0.1c0.1,0,0.2-0.1,0.2-0.1c0,0,0.1-0.1,0.1-0.2c0-0.1-0.1-0.2-0.1-0.2c0,0-0.1-0.1-0.2-0.1c0,0-0.2,0-0.2-0.1c0,0-0.1-0.1-0.1-0.1s0-0.1,0.1-0.1c0,0,0.2,0,0.2,0c0,0,0.1,0,0.2,0c0-0.1,0.1-0.1,0.1-0.1c0-0.1,0-0.1,0-0.1c0-0.1,0-0.1,0-0.2c0-0.1-0.1-0.1-0.1-0.1c0,0-0.2-0.1-0.2-0.1c-0.1,0-0.2,0-0.2,0V7c0,0,0.1-0.1,0.1-0.1c0-0.1,0-0.1,0.1-0.2c0-0.1,0.1-0.1,0.1-0.2c0,0,0-0.2,0-0.2c0,0-0.2-0.2-0.2-0.2s0.1,0,0.2-0.1c0.1,0,0.2,0,0.3-0.1c0.1,0,0.2-0.1,0.3-0.1c0.1,0,0.7-0.1,0.9-0.1c0.1,0,0.8-0.1,0.8-0.1c0,0,0.2-0.1,0.2-0.1c0,0,0-0.2,0-0.2S-40.4,5.4-40.5,5.4L-40.5,5.4z M-43.6,6.5c0,0.1-0.2,0.2-0.2,0.2s0,0,0,0c0,0-0.1-0.1-0.1-0.1c0,0-0.1-0.1-0.1-0.1l0.2-0.1l0.2-0.1C-43.5,6.3-43.5,6.4-43.6,6.5L-43.6,6.5z M-43.3,10.4C-43.3,10.4-43.3,10.4-43.3,10.4c0.1,0,0.1,0,0.2,0c0,0,0,0.1,0,0.1l-0.1,0.1l-0.1,0l0,0l0-0.1C-43.4,10.5-43.3,10.4-43.3,10.4l-0.1-0.1C-43.3,10.3-43.3,10.4-43.3,10.4z"/><path class="st2" d="M-44.7,10.4C-44.7,10.4-44.7,10.4-44.7,10.4C-44.8,10.4-44.8,10.4-44.7,10.4c-0.1,0-0.1,0-0.1,0c0,0,0,0-0.1,0c0,0,0,0,0-0.1c0,0,0,0,0-0.1c0,0,0-0.1-0.1-0.1c0,0-0.1-0.1-0.1-0.1c0,0-0.2,0-0.2,0c-0.1,0-0.1,0-0.1,0.1c-0.1,0-0.2,0.2-0.2,0.2c0,0,0,0.2,0,0.2c0,0.1,0,0.2,0,0.2c0,0,0.1,0.1,0.1,0.2c0,0,0.2,0.1,0.2,0.1c0.1,0,0.1,0,0.2,0c0.1,0,0.2,0,0.2-0.1c0,0,0.1-0.1,0.1-0.2c0,0,0-0.1,0-0.1s0-0.1,0-0.1c0,0,0,0,0-0.1c0,0,0,0,0-0.1c0,0,0,0,0.1-0.1c0,0,0,0,0,0C-44.8,10.5-44.7,10.5-44.7,10.4C-44.7,10.5-44.7,10.4-44.7,10.4C-44.7,10.4-44.7,10.4-44.7,10.4L-44.7,10.4z"/><path class="st2" d="M-45.4,6c0.1,0,0.2-0.1,0.3-0.2c0.1-0.1,0.1-0.4,0.1-0.4c0-0.1,0.1-0.2,0.1-0.2s0,0-0.1,0s-0.1,0-0.1,0c-0.1,0-0.1,0-0.1,0s0-0.2,0-0.2c0,0-0.1-0.1-0.1-0.1c0,0-0.1,0-0.1,0.1c-0.1,0.1-0.1,0.1-0.1,0.2c-0.1,0.1-0.1,0.1-0.1,0.2c0,0,0,0.1,0,0.2c0,0.1,0,0.2,0.1,0.2C-45.6,5.9-45.5,6-45.4,6L-45.4,6z"/></g></g><path class="st2" d="M-32.2,27.5c0.1-0.1,0.4-0.3,0.4-0.6v-0.1c0,0,0-0.1,0-0.2c-0.2-0.4-0.6-0.5-0.6-0.5l0-0.8l0.3-0.2l-0.5-0.4c0,0,0.2-0.2,0.2-0.3c0.1-0.1,0-0.3-0.1-0.3c-0.1,0-0.3,0.1-0.4,0c-0.1-0.1,0.1-0.2,0.2-0.4c0.1-0.2-0.1-0.4-0.2-0.4c-0.1,0-0.1,0.1-0.4,0.1c-0.2,0-0.4-0.2-0.4-0.2s0.1-0.1,0.2-0.3c0-0.2-0.1-0.4-0.1-0.4s0.5-0.5,0.3-1.3c-0.3-0.8-1.1-0.9-1.8-0.9c-0.1,0-0.2,0-0.3,0.1c-0.4,0.2-0.7,0.5-0.8,1c0,0.1,0,0.2,0,0.3c0,0.1,0,0.2,0,0.3c0.1,0.5,0.4,0.6,0.4,0.6s0,0.1-0.1,0.3c0,0.2,0.1,0.4,0.1,0.4l0,0.4c0,0-0.3,0.2-0.5,0.6c0,0.1-0.1,0.2-0.1,0.3c-0.2,0.6,0.1,0.9,0.1,0.9s-0.7,0.8-1.5,1c-0.1,0-0.1,0-0.2,0c-0.2,0-0.4,0-0.6,0c-0.3,0-0.5-0.1-0.6-0.3c-0.2-0.1-0.3-0.2-0.4-0.4c-0.4-0.5-0.4-1.5-0.4-1.5s0.3-0.1,0.4-0.2c0.1,0,0.2-0.1,0.3-0.2c0,0,0.1-0.1,0.1-0.1l0.4-1.3l-0.5-0.4l-0.4-0.3c0,0-0.2,0-0.4,0c-0.2,0-0.5,0-0.8-0.1c-0.2,0-0.4-0.1-0.6-0.2c-0.1,0-0.2-0.1-0.3-0.1c-0.3-0.2-0.6-0.4-0.9-0.6s-0.6-0.5-0.9-0.9c-0.1-0.2-0.3-0.4-0.4-0.5c-0.2-0.3-0.5-0.5-0.7-0.6c-0.2-0.1-0.4-0.2-0.6-0.2c-0.6-0.1-1,0.2-1,0.2s0-0.2-0.2-0.4c0,0-0.1,0-0.1,0c-0.2-0.1-0.6,0-0.7,0.4c-0.1,0.4,0.3,0.5,0.3,0.6c0.1,0.1,0.1,0.4,0.1,0.4s-0.2-0.1-0.3-0.2c-0.2,0-0.4-0.1-0.4-0.1c0,0-0.2,0-0.4,0.1c-0.1,0-0.3,0.2-0.3,0.2s0-0.3,0-0.4c0.1-0.1,0.4-0.2,0.4-0.6c-0.1-0.4-0.5-0.5-0.8-0.4c0,0-0.1,0-0.1,0c-0.3,0.2-0.3,0.4-0.3,0.4s-0.5-0.3-1-0.2c-0.2,0-0.4,0.1-0.6,0.2c-0.2,0.1-0.5,0.3-0.7,0.6c-0.1,0.1-0.3,0.3-0.4,0.5c-0.3,0.4-0.5,0.7-0.8,0.9c-0.3,0.3-0.6,0.5-0.9,0.6c-0.1,0-0.2,0.1-0.3,0.1c-0.2,0.1-0.4,0.2-0.6,0.2c-0.3,0.1-0.6,0.1-0.8,0.1c-0.3,0-0.4,0-0.4,0l-0.4,0.3l-0.5,0.4l0.3,1.3c0,0,0,0,0.1,0.1c0.1,0.1,0.2,0.2,0.3,0.2c0.2,0.1,0.4,0.2,0.4,0.2s0,1-0.4,1.5c-0.1,0.1-0.2,0.3-0.4,0.4c-0.2,0.1-0.4,0.2-0.6,0.3c-0.2,0-0.4,0-0.6,0c0,0-0.1,0-0.1,0c-0.9-0.1-1.5-1-1.5-1s0.3-0.3,0.1-0.9c0-0.1-0.1-0.2-0.1-0.3c-0.2-0.4-0.5-0.6-0.5-0.6v-0.4c0,0,0.2-0.2,0.1-0.4c0-0.2-0.1-0.3-0.1-0.3s0.3-0.2,0.4-0.6c0-0.1,0-0.2,0-0.3c0-0.1,0-0.2,0-0.3c-0.1-0.5-0.4-0.8-0.8-1c-0.1,0-0.2,0-0.3-0.1c-0.7-0.1-1.5,0-1.8,0.9c-0.3,0.8,0.3,1.3,0.3,1.3s-0.1,0.1-0.1,0.4c0,0.2,0.1,0.3,0.1,0.3s-0.2,0.2-0.4,0.2c-0.2,0-0.3-0.1-0.4-0.1c-0.1,0-0.3,0.2-0.2,0.4c0.1,0.2,0.3,0.3,0.2,0.4c-0.1,0.1-0.3,0-0.4,0c-0.1,0-0.2,0.2-0.1,0.3c0.1,0.1,0.2,0.3,0.2,0.3l-0.5,0.4l0.3,0.2l0,0.8c0,0-0.4,0-0.5,0.5c0,0,0,0.1,0,0.2v0.1c0,0.3,0.2,0.5,0.4,0.6c0.2,0.1,0.4,0.2,0.5,0.5c0,0.2,0,0.5,0,0.5l0.3,0.3l-1.1,20.1c0.4-0.4,0.9-0.8,1.3-1.2l0.7-18.9l1.2,0l0,17.3c0,0,1.1-0.7,1.3-0.8v-0.8h1.5c0.1-0.1,0.5-0.2,0.6-0.3c0-1.7,0-3.1,0-3.1c0.1-0.6,0.2-1.1,0.5-1.6c0.2-0.4,0.5-0.7,0.8-1.1c0.2-0.2,0.5-0.5,0.8-0.7c0.3-0.2,0.6-0.4,0.9-0.6c0.3-0.2,0.6-0.3,0.9-0.4c0.4-0.2,0.9-0.3,1.3-0.4c0.2-0.1,0.5-0.1,0.7-0.2c0.2,0,0.3-0.1,0.5-0.1c0.6-0.1,1.1-0.2,1.5-0.2c0.7,0,1,0,1,0s0.4,0,1,0c0.4,0,0.9,0.1,1.5,0.2c0.1,0,0.3,0.1,0.5,0.1c0.2,0,0.5,0.1,0.7,0.2c0.4,0.1,0.9,0.3,1.3,0.4c0.3,0.1,0.6,0.3,0.9,0.4c0.3,0.2,0.6,0.4,0.9,0.6c0.3,0.2,0.5,0.4,0.8,0.7c0.3,0.3,0.6,0.7,0.8,1.1c0.3,0.5,0.5,1,0.5,1.6c0,0,0,1.4,0,3.1c0,0,0.6,0.3,0.6,0.3s0,0,0,0v0h1.5v0.8c0.1,0.1,1.2,0.8,1.2,0.8l0-17.3l1.3,0l0.7,18.9c0.5,0.4,0.9,0.8,1.3,1.2l-1.1-20.1l0.3-0.3c0,0,0-0.3,0-0.5C-32.7,27.8-32.4,27.6-32.2,27.5L-32.2,27.5z M-35.8,21.4c0.1-0.2,0.2-0.3,0.3-0.4c0.5-0.3,1.3-0.2,1.5,0.3c0.3,0.5,0,0.9,0,0.9s-0.1-0.3-0.9-0.2c-0.3,0-0.5,0-0.6,0.1c-0.2,0.1-0.2,0.2-0.2,0.2S-36,21.9-35.8,21.4L-35.8,21.4z M-35.9,24.4c0.1-0.2,0.4-0.4,0.5-0.5l0,0v-0.6c0,0,0.3-0.1,0.6-0.2c0.3,0,0.7,0.1,0.7,0.1s0.1,0.2,0.3,0.4c0.2,0.2,0.6,0.1,0.6,0.1s-0.2,0.3-0.1,0.5c0.1,0.2,0.5,0.2,0.5,0.2s-0.2,0.3-0.4,0.4c-0.2,0-0.5,0-0.5,0s0-0.3,0.2-0.3c0.1,0,0.1-0.2,0.1-0.2s-0.2,0.1-0.4,0c-0.2-0.1-0.2-0.2-0.2-0.2s-0.2,0.2-0.5,0.3c-0.3,0-0.5-0.1-0.5-0.1s0,0,0.1,0.2c0.1,0.2,0,0.4,0,0.4h-0.9C-35.9,25-35.9,24.6-35.9,24.4z M-39.2,26.7c0.2,0.1,0.4,0.1,0.6,0.2h0.2c0.1,0,0.3,0,0.4,0c0.8-0.1,1.5-0.5,1.7-0.7c-0.1,0.1-0.3,0.2-0.3,0.4c-0.1,0.2-0.1,0.5-0.1,0.5s-0.5,0.3-1.3,0.3c-0.2,0-0.3,0-0.5,0c0,0,0,0-0.1,0c-0.2,0-0.4-0.1-0.6-0.1c-0.3-0.1-0.6-0.3-0.8-0.5c-0.2-0.2-0.4-0.5-0.6-0.9c-0.2-0.4-0.2-0.9-0.2-1.2c0-0.2,0-0.4,0-0.4c-0.3,0-0.6-0.1-0.9-0.1c-0.2,0-0.4-0.1-0.6-0.2c0,0,0,0,0.1-0.1c0-0.1,0-0.3,0-0.3c0,0-0.1-0.1-0.1-0.1c0.2,0.1,0.5,0.2,0.6,0.2h0c0.3,0.1,0.7,0.1,0.9,0.2c0.3,0,0.5,0,0.5,0c0,0.7,0,1.4,0.3,2C-39.8,26.2-39.5,26.5-39.2,26.7L-39.2,26.7z M-37.3,29.7c-0.2,0.1-0.4,0-0.7,0c-0.2-0.1-0.4-0.2-0.4-0.2l-0.2-0.1l-0.2-0.1c0,0,0.1,0,0.2,0c0.2,0,0.5-0.1,0.6-0.2c0,0,0,0,0.1-0.1c0,0,0-0.1-0.1-0.1c-0.2-0.1-0.5,0-0.5,0c0,0,0.2-1,0.5-0.9c0,0,0.1,0,0.1,0.1c0,0.1,0,0.1,0,0.2c0.1-0.1,0.2-0.3,0.4-0.4c0.3-0.1,0.4,0,0.3,0.2c-0.1,0.2-0.1,0.2-0.1,0.2s0.5-0.5,0.7-0.1c0.2,0.4-0.5,0.5-0.5,0.5s0.2,0,0.4,0.1c0.1,0.1,0.2,0.3,0,0.4c-0.3,0.2-0.9,0.1-0.9,0.1S-37,29.5-37.3,29.7L-37.3,29.7z M-38.7,30.1c0,0.1,0.1,0.1,0.2,0.2c0,0.1,0.1,0.1,0.1,0.2c0,0,0,0-0.1,0c-0.1,0-0.3-0.1-0.4-0.1c-0.1-0.1-0.2-0.1-0.3-0.2c0,0-0.1,0-0.1,0c-0.1,0,0,0.1,0.1,0.2c0,0,0.1,0.1,0,0.1h0c-0.2,0-0.5,0-0.6-0.1c-0.1,0-0.2-0.1-0.2-0.1c0,0-0.1,0-0.1,0c-0.1,0,0,0.3-0.2,0.4c-0.1,0.1-0.2,0.2-0.3,0.2c0,0,0-0.2,0-0.3c0-0.1,0.1-0.2,0.1-0.2s-0.1,0-0.2,0.1c-0.1,0.1-0.1,0.2-0.2,0.2c0,0,0,0-0.1,0c-0.1,0-0.1,0-0.1-0.1c0-0.1,0-0.2,0.1-0.4c0,0,0,0,0.1-0.1c0,0,0-0.1,0-0.1h0c-0.1,0-0.4,0-0.5,0c-0.1-0.1-0.2-0.2-0.4-0.2c0,0-0.1,0-0.2,0c-0.2,0.1-0.5,0.3-0.7,0.1c0,0,0,0-0.1,0c-0.2-0.1-0.2-0.2-0.3-0.1v-0.1c0.1,0,0.2-0.1,0.3-0.1c0,0,0,0,0.1,0c0.6-0.2,0.8-0.5,0.8-0.5s-0.5,0-0.8,0c0,0,0,0,0,0c-0.3,0.1-0.5,0.2-0.5,0.2s0.1-0.3,0.5-0.5c0,0,0.1,0,0.2-0.1c0.3-0.1,0.5,0,0.7,0c0.2,0,0.3,0.1,0.3,0.1s-0.2-0.2-0.3-0.3h0c0-0.1,0-0.2,0-0.2h0c0.1,0,0.4,0.2,0.5,0.4c0.1,0.1,0.3,0.4,0.4,0.5c0,0.1,0.1,0.1,0.1,0.1c0,0.1,0,0.1-0.1,0.2c-0.1,0.1-0.2,0.1-0.2,0.1c-0.2,0-0.3-0.1-0.4,0c-0.1,0.1-0.3,0.3-0.1,0.4c0.1,0.1,0.2-0.2,0.4-0.1c0.1,0.1,0.3,0.1,0.4,0.1c0,0,0.1,0,0.2,0c0.1-0.1,0.3-0.1,0.4,0c0.1,0,0.1,0.1,0.2,0.1c0.1,0.1,0.2,0.1,0.3,0.1s-0.1-0.3-0.1-0.3s0.3,0.1,0.5,0.1c0.2,0,0.3,0,0.2-0.1c-0.1-0.2-0.3-0.3-0.3-0.3s0.2,0,0.3,0.1c0.1,0,0.2,0.1,0.2,0.1c0.1,0.1,0.3,0.2,0.4,0.2c0.1,0,0.2,0,0.3,0.1c0.2,0,0.3,0.2,0.2,0.2c0,0-0.3,0-0.4,0c0,0-0.1,0-0.1,0C-38.7,29.9-38.8,30-38.7,30.1L-38.7,30.1z M-54.4,30.3C-54.4,30.3-54.4,30.3-54.4,30.3c0.1,0.2,0.1,0.3,0.1,0.4c0,0.1,0,0.1-0.1,0.1c0,0,0,0,0,0c-0.1,0-0.1-0.1-0.2-0.2c-0.1-0.1-0.2-0.1-0.2-0.1s0,0.1,0.1,0.2c0.1,0.1,0.1,0.2,0,0.3c0,0-0.1,0-0.3-0.2c-0.2-0.1-0.1-0.4-0.2-0.4c0,0-0.1,0-0.1,0c-0.1,0-0.1,0-0.2,0.1c-0.1,0.1-0.5,0.1-0.6,0.1h0c0,0,0,0,0-0.1c0.1-0.1,0.2-0.2,0.1-0.2c0,0-0.1,0-0.1,0c-0.1,0-0.2,0.1-0.3,0.2c-0.1,0-0.3,0.1-0.4,0.1c-0.1,0-0.1,0-0.1,0c0-0.1,0-0.1,0.1-0.2c0-0.1,0.1-0.1,0.1-0.2c0-0.1,0-0.1-0.1-0.1c0,0-0.1,0-0.1,0c-0.1,0.1-0.4,0.1-0.4,0c0,0,0.1-0.2,0.3-0.2c0.1,0,0.2,0,0.3-0.1c0.1,0,0.3-0.1,0.4-0.2c0.1-0.1,0.2-0.1,0.2-0.1c0.2-0.1,0.3-0.1,0.3-0.1s-0.2,0.1-0.3,0.3c-0.1,0.2,0,0.1,0.1,0.1c0.1,0,0.5-0.1,0.5-0.1s-0.2,0.3-0.1,0.3c0,0,0.2,0,0.3-0.1c0.1,0,0.1-0.1,0.2-0.1c0.2-0.1,0.3,0,0.4,0c0,0,0.1,0,0.2,0c0.1,0,0.3,0,0.4-0.1c0.2-0.1,0.3,0.2,0.4,0.1c0.1-0.1,0-0.3-0.2-0.4c-0.1-0.1-0.2,0-0.4,0c-0.1,0-0.2,0-0.2-0.1c-0.1,0-0.1-0.1-0.1-0.2c0,0,0-0.1,0.1-0.1c0.1-0.2,0.3-0.4,0.4-0.5c0.1-0.2,0.4-0.4,0.5-0.4h0c0,0,0,0.1,0,0.2l0,0c-0.1,0.2-0.3,0.3-0.3,0.3s0.1,0,0.3-0.1c0.2,0,0.4,0,0.7,0c0.1,0,0.1,0,0.2,0.1c0.4,0.2,0.5,0.5,0.5,0.5s-0.2-0.1-0.5-0.2c0,0,0,0-0.1,0c-0.3-0.1-0.8,0-0.8,0s0.2,0.3,0.8,0.5c0,0,0.1,0,0.1,0c0.2,0,0.2,0.1,0.3,0.1c0,0,0,0.1,0,0.1c0,0-0.1,0-0.3,0.1c0,0,0,0-0.1,0c-0.2,0.1-0.4,0-0.7-0.1c-0.1,0-0.1,0-0.2,0c-0.2,0-0.3,0.1-0.4,0.2C-53.9,30.2-54.2,30.2-54.4,30.3L-54.4,30.3C-54.4,30.2-54.4,30.2-54.4,30.3L-54.4,30.3z M-58.6,29.2c-0.1-0.1-0.1-0.3,0-0.4c0.1-0.1,0.4-0.1,0.4-0.1s-0.6-0.1-0.5-0.5c0.2-0.4,0.7,0.1,0.7,0.1s0,0-0.1-0.2c-0.1-0.2,0-0.3,0.3-0.2c0.2,0.1,0.3,0.2,0.4,0.4c0-0.1,0-0.1,0-0.2c0,0,0,0,0.1-0.1c0.2-0.1,0.4,0.9,0.4,0.9c0,0-0.4-0.1-0.5,0c0,0-0.1,0,0,0.1c0,0,0,0.1,0,0.1c0.1,0.1,0.4,0.2,0.6,0.2c0.1,0,0.2,0,0.2,0l-0.2,0.1l-0.2,0.1c0,0-0.2,0.1-0.4,0.2c-0.2,0.1-0.5,0.2-0.7,0c-0.3-0.2,0.2-0.4,0.2-0.4S-58.3,29.4-58.6,29.2L-58.6,29.2z M-55.2,28.4c-0.1-0.1-0.3-0.2-0.5-0.3c-0.1,0-0.2,0-0.3,0c-0.3,0-0.5,0-0.5,0S-56.3,28-56,28c0.2,0,0.3,0,0.5,0c0.1,0,0.3,0.1,0.4,0.1c0.3,0.1,0.5,0.4,0.5,0.4s0.3,0,0.2-0.2s-0.2-0.3-0.3-0.3c-0.1,0-0.3,0.1-0.3,0c-0.1,0,0-0.2,0.1-0.3c0.1-0.1,0.2-0.1,0.2-0.1c0,0-0.1,0-0.2,0c-0.2,0-0.2,0-0.2,0s0.1-0.2,0.2-0.2c0.2-0.1,0.3-0.1,0.3-0.1s-0.1-0.1-0.2-0.1c-0.1-0.1-0.2-0.2-0.2-0.2s0.2-0.1,0.4-0.1s0.2,0,0.2,0s0-0.1-0.1-0.2c-0.1-0.1,0-0.3,0-0.3s0.1,0,0.2,0c0,0,0.1,0,0.2,0.1c0,0,0.2,0.1,0.2,0c-0.2-0.5,0.3-0.1,0.4-0.1c0.1,0,0-0.1,0.1-0.2c0,0,0-0.1,0.1-0.1c0.1,0,0.3,0,0.6,0.2c0.1,0.1,0.2,0.2,0.3,0.3c0.3,0.2,0.5,0.5,0.6,0.6c0.1,0.1,0.6,0.1,0.6-0.1c0-0.3-0.3-0.5-0.6-0.7c-0.2-0.1-0.5-0.3-0.6-0.5c-0.1-0.1-0.1-0.2-0.2-0.3c-0.1-0.3,0-0.5,0.2-0.6c0,0,0.1-0.1,0.2-0.1c0.2,0,0.7,0,1,0c0,0,0.1,0,0.1,0c0.2-0.1,0.2-0.2,0.2-0.3c0-0.1,0-0.1,0-0.1s-0.1,0.1-0.3,0.1c-0.1,0-0.2,0-0.3,0c-0.4,0-0.6-0.1-0.9,0c0,0-0.1,0-0.1,0.1c-0.3,0.2-0.5,0.6-0.5,0.9c0,0.2-0.2,0.3-0.2,0.4c0,0-0.1,0-0.1,0s0,0,0.1-0.1c0-0.1,0.1-0.2,0-0.4c0-0.3,0.1-0.7,0.3-0.9c0.2-0.1,0.4-0.2,0.5-0.3c0.1,0,0.1,0,0.1,0s-0.1,0-0.1-0.1c0,0,0,0,0,0c-0.1-0.1-0.1-0.2-0.1-0.2s0,0,0.1,0c0,0,0.1,0,0.2,0c0.1,0,0.3,0.1,0.3,0.1s0.3-0.4,0.7-0.4c0,0,0,0,0.1,0c0.3,0,0.5-0.1,0.5-0.1s0.1,0,0.1-0.1c0-0.1-0.1-0.2,0.1-0.4c0,0,0,0,0,0c0.2-0.1,0.3,0,0.3,0s0.4-0.2,0.5-0.2c0.2,0,0.1,0.2,0,0.3c-0.1,0.1-0.6,0.3-0.6,0.3s-0.2,0.1-0.1,0.2c0.1,0.1,0.2,0,0.3,0c0,0,0.4,0,0,0.2c-0.2,0.1-0.4,0.2-0.6,0.4c-0.2,0.1-0.3,0.2-0.3,0.3c-0.1,0.2,0.1,0.3,0.3,0.3h0c0.2,0,0.7-0.3,0.7-0.3s0.3,0.1,0.2,0.4c0,0.2-0.6,0.4-1,0.3c-0.1,0-0.1,0-0.2,0c-0.2,0-0.4-0.1-0.5,0c-0.1,0-0.3,0.1-0.4,0.1c-0.3,0.1-0.2,0.4-0.1,0.5c0.1,0.1,0.3,0.2,0.5,0.4c0.2,0.1,0.4,0.2,0.5,0.3c0.1,0.1,0.2,0.2,0.2,0.3c0.1,0.2,0.1,0.6,0,0.9c0,0,0,0,0,0.1c-0.1,0.2-0.4,0.4-0.7,0.4c-0.3,0-0.7,0-1-0.2c-0.1-0.1-0.2-0.1-0.3-0.2c-0.3-0.3-0.6-0.5-0.9-0.6h-0.1c-0.4,0-0.4,0.2-0.4,0.4c0,0.2,0.1,0.6,0.1,0.9c-0.1,0.3-0.2,0.6-0.5,0.7c0,0,0,0,0,0c-0.2,0.1-0.5,0.1-0.8,0l0,0c-0.3-0.1-0.6-0.1-0.8-0.1c0,0,0,0-0.1,0c-0.2,0-0.4,0.2-0.6,0.3c0,0-0.1,0-0.1,0s0,0,0.1-0.1c0.1-0.1,0.3-0.4,0.6-0.5c0,0,0,0,0.1,0c0.3-0.1,0.6,0,0.8,0c0.1,0,0.2,0.1,0.2,0.1S-55.1,28.5-55.2,28.4L-55.2,28.4z M-41.7,25.6c0,0.1,0.1,0.1,0.1,0.1S-41.7,25.8-41.7,25.6c-0.1,0-0.2-0.1-0.2-0.3c0-0.3-0.2-0.7-0.5-0.9c0,0-0.1,0-0.1-0.1c-0.3-0.1-0.6-0.1-1,0c-0.1,0-0.3,0-0.3,0c-0.2,0-0.3-0.1-0.3-0.1s0,0,0,0.1c0,0.1,0.1,0.2,0.2,0.3c0,0,0.1,0,0.2,0c0.3,0.1,0.7,0,0.9,0c0.1,0,0.1,0,0.2,0.1c0.1,0.1,0.2,0.3,0.2,0.6c0,0.1-0.1,0.2-0.2,0.3c-0.2,0.2-0.4,0.4-0.6,0.5c-0.3,0.2-0.6,0.4-0.6,0.7c0,0.3,0.4,0.2,0.6,0.1c0.1-0.1,0.4-0.4,0.6-0.6c0.1-0.1,0.2-0.2,0.3-0.3C-42,26-41.8,26-41.7,26c0,0,0,0,0.1,0.1c0.1,0.1,0,0.2,0.1,0.2c0.1,0,0.6-0.4,0.4,0.1c-0.1,0.2,0.2,0,0.2,0c0.1,0,0.1-0.1,0.2-0.1c0.1,0,0.2,0,0.2,0s0,0.1,0,0.3c-0.1,0.1-0.1,0.2-0.1,0.2s0,0,0.2,0s0.4,0.1,0.4,0.1s-0.1,0.1-0.2,0.2c-0.1,0.1-0.2,0.1-0.2,0.1s0.2,0,0.3,0.1c0.2,0.1,0.2,0.2,0.2,0.2s-0.1,0.1-0.2,0c-0.1,0-0.2,0-0.2,0c0,0,0.1,0.1,0.2,0.1c0.1,0.1,0.2,0.3,0.1,0.3c-0.1,0-0.3,0-0.3,0c-0.1,0-0.2,0.2-0.2,0.3c0,0.2,0.2,0.2,0.2,0.2s0.2-0.2,0.5-0.4c0.1-0.1,0.2-0.1,0.4-0.1c0.1,0,0.3,0,0.5,0c0.3,0,0.5,0.2,0.5,0.2s-0.2-0.1-0.5,0c-0.1,0-0.2,0-0.3,0c-0.2,0-0.4,0.2-0.5,0.3c-0.1,0.1-0.2,0.2-0.2,0.2s0.1,0,0.2-0.1c0.2,0,0.5-0.1,0.7,0c0,0,0,0,0.1,0c0.3,0.1,0.5,0.3,0.6,0.5c0,0.1,0.1,0.1,0.1,0.1s0,0-0.1,0c-0.1-0.1-0.4-0.2-0.6-0.3c0,0,0,0,0,0c-0.2,0-0.5,0-0.8,0.1h0c-0.3,0.1-0.6,0.1-0.8,0c0,0,0,0,0,0c-0.2-0.1-0.4-0.4-0.5-0.7c-0.1-0.3,0.1-0.7,0.1-0.9c0-0.2,0-0.4-0.5-0.4h0c-0.3,0-0.6,0.3-0.9,0.6c-0.1,0.1-0.2,0.1-0.3,0.2c-0.3,0.2-0.7,0.3-1,0.2c-0.3,0-0.5-0.2-0.7-0.4c0,0,0,0,0-0.1c-0.2-0.3-0.1-0.7,0-0.9c0-0.1,0.1-0.2,0.2-0.3c0.1-0.1,0.3-0.2,0.5-0.3c0.2-0.1,0.5-0.3,0.5-0.4c0.1-0.1,0.2-0.4-0.1-0.5c-0.1-0.1-0.3-0.1-0.4-0.1c-0.2,0-0.4,0-0.5,0c0,0-0.1,0-0.2,0c-0.4,0-0.9-0.1-1-0.3c-0.1-0.3,0.2-0.4,0.2-0.4s0.5,0.3,0.8,0.3l0,0c0.2,0,0.4,0,0.3-0.3c0-0.1-0.1-0.2-0.3-0.3c-0.2-0.1-0.5-0.2-0.7-0.4c-0.3-0.2,0-0.3,0.1-0.2c0.1,0,0.2,0.1,0.3,0c0.1-0.1-0.1-0.2-0.1-0.2s-0.4-0.1-0.6-0.3c-0.1-0.1-0.1-0.3,0-0.3c0.1,0,0.5,0.2,0.5,0.2s0.2-0.1,0.4,0c0,0,0,0,0,0c0.1,0.1,0.1,0.2,0.1,0.4c0,0.1,0.1,0.1,0.1,0.1s0.2,0,0.5,0.1c0,0,0.1,0,0.1,0c0.3,0,0.7,0.4,0.7,0.4s0.1-0.1,0.3-0.1c0.1,0,0.2,0,0.2,0c0,0,0.1,0,0.1,0s0,0.1-0.1,0.2c0,0,0,0,0,0c-0.1,0-0.1,0.1-0.1,0.1s0.1,0,0.1,0c0.1,0,0.3,0.1,0.5,0.3c0.3,0.2,0.4,0.6,0.3,0.9C-41.8,25.4-41.7,25.5-41.7,25.6L-41.7,25.6z M-42.6,23.4c0,0-0.1,0-0.1,0c-0.2,0-0.3,0-0.3,0s-0.1-0.1-0.4-0.2c-0.1-0.1-0.3-0.1-0.4-0.1h-0.3c0,0-0.2-0.1-0.4-0.4c-0.1-0.1-0.3-0.3-0.4-0.4c-0.3-0.4-0.6-0.8-0.6-0.8s-0.1,0.3-0.5,0.2c-0.4,0-0.2-0.4-0.2-0.4s0.3,0.1,0.6,0c0.2-0.1,0.3-0.3,0.3-0.3s0.3,0.4,0.8,0.9c0.2,0.2,0.4,0.4,0.6,0.6c0,0,0.1,0.1,0.1,0.1C-43.5,22.9-43,23.2-42.6,23.4c0.1,0,0.1,0,0.2,0C-42.5,23.4-42.5,23.4-42.6,23.4L-42.6,23.4z M-49.2,21.7c-0.4,0-0.5-0.2-0.5-0.2s-0.2,0.4-0.6,0.8c-0.1,0.2-0.3,0.3-0.4,0.4c-0.2,0.2-0.4,0.4-0.4,0.4h-0.3c-0.1,0-0.3,0-0.4,0.1c-0.3,0.1-0.4,0.2-0.4,0.2s-0.1,0-0.3,0c0,0-0.1,0-0.1,0c-0.1,0-0.1,0-0.2,0c0.1,0,0.1,0,0.2-0.1c0.4-0.2,0.9-0.5,1.3-0.8c0,0,0.1-0.1,0.1-0.1c0.2-0.2,0.4-0.4,0.6-0.6c0.4-0.5,0.8-0.9,0.8-0.9s0.1,0.2,0.3,0.3c0.2,0.1,0.6,0,0.6,0S-48.8,21.6-49.2,21.7L-49.2,21.7z M-52.6,31.1c0.4-0.1,0.9-0.2,1.1-0.4c0.1,0,0.1-0.1,0.2-0.1c0.6-0.5,0.2-1.1,0-1.4c0,0,0,0-0.1,0c-0.2-0.3-0.4-0.4-0.1-0.5c0.1,0,0.1,0,0.2,0c0.3,0,0.5-0.1,0.7-0.2c0.5-0.2,0.8-0.7,0.8-1.5c-0.1-0.6-0.6-1.2-0.6-1.2c-0.1,0,0.4,0,0.9-0.2l-0.1,5.1c-0.1-0.1-0.3-0.2-0.5-0.3c0,0-0.1,0.6-0.5,0.8c-0.1,0-0.1,0-0.2,0.1c-0.3,0-0.4,0-0.5-0.1c0,0-0.1,0-0.1,0c-0.2,0.4-0.9,0.4-1.2,0.1c0,0-0.1,0-0.1-0.1C-52.7,31.1-52.6,31.1-52.6,31.1L-52.6,31.1z M-49.1,21.9L-49.1,21.9l3-0.1v0.1l0.2,9.3h-3.5L-49.1,21.9z M-45.5,30.6l-0.1-5.1c0.4,0.2,1,0.2,0.9,0.2c0,0-0.5,0.5-0.6,1.2c-0.1,0.8,0.3,1.3,0.8,1.5c0.2,0.1,0.4,0.2,0.7,0.2c0,0,0.1,0,0.2,0c0.3,0,0.1,0.2-0.1,0.5c0,0,0,0,0,0c-0.2,0.3-0.6,0.9,0,1.4c0,0,0.1,0.1,0.2,0.1c0.2,0.1,0.7,0.3,1.1,0.4c0,0,0.1,0,0.1,0c0,0-0.1,0.1-0.1,0.1c-0.4,0.3-1,0.3-1.2-0.1c0,0,0,0-0.1,0c-0.1,0-0.3,0.1-0.5,0.1c-0.1,0-0.1,0-0.2-0.1c-0.3-0.2-0.5-0.8-0.5-0.8C-45.2,30.4-45.4,30.5-45.5,30.6L-45.5,30.6z M-55.9,22.6l0.4-0.4c0.1,0,0.2,0,0.3,0c0.3,0,0.5,0,0.8-0.1c0.3-0.1,0.6-0.2,0.9-0.3c0.3-0.2,0.6-0.3,0.9-0.6c0.3-0.2,0.5-0.5,0.8-0.7c0.2-0.2,0.3-0.4,0.5-0.6c0.2-0.2,0.4-0.5,0.7-0.7c0.3-0.2,0.7-0.4,1.1-0.4c0.3,0,0.7,0.3,0.7,0.3c0.1-0.2,0-0.4,0.2-0.5c0,0,0.1,0,0.1-0.1c0.2,0,0.3,0,0.3,0.2c0,0.3-0.3,0.3-0.3,0.3c0,0.2-0.1,1,0,1.2c0.1,0.1,0.2,0,0.2,0s0-0.2,0.2-0.4c0.2-0.2,0.5-0.1,0.5-0.1c0.1,0,0.3,0,0.5,0.1c0.2,0.2,0.2,0.4,0.2,0.4s0.1,0,0.2,0c0.2-0.2,0.1-0.9,0-1.2c0,0-0.3,0-0.3-0.3c0-0.2,0.2-0.2,0.3-0.2c0,0,0.1,0,0.1,0.1c0.2,0.1,0.1,0.3,0.2,0.5c0,0,0.3-0.2,0.7-0.3c0.4,0,0.8,0.1,1.1,0.4c0.2,0.2,0.5,0.4,0.7,0.7c0.2,0.2,0.4,0.4,0.5,0.6c0.2,0.3,0.5,0.5,0.8,0.7c0.3,0.2,0.6,0.4,0.9,0.6c0.3,0.1,0.6,0.2,0.9,0.3c0.2,0,0.5,0.1,0.8,0.1c0.1,0,0.2,0,0.3,0l0.4,0.4c0,0-0.3,0-0.7,0c-0.3,0-0.5,0-0.8-0.1c-0.1,0-0.1,0-0.2,0c-0.2,0-0.5-0.1-0.7-0.2c-0.3-0.1-0.6-0.3-0.9-0.5c-0.3-0.2-0.6-0.4-0.8-0.7c-0.2-0.2-0.3-0.3-0.5-0.5c-0.2-0.3-0.5-0.6-0.7-0.8c-0.4-0.3-0.8-0.5-1.3-0.4c-0.5,0.1-0.6,0.9-0.2,1.2c0.1,0.1,0.3,0.2,0.3,0.2s-0.1-0.1,0-0.3c0.1-0.1,0.4,0,0.4,0.2c0,0.2-0.1,0.4-0.4,0.4s-0.4-0.1-0.4-0.1c-0.1,0.1-0.2,0.3-0.3,0.4c-0.2,0.2-0.6,0.4-1,0.4c-0.4,0-0.8-0.1-1-0.4c-0.1-0.1-0.2-0.3-0.2-0.4c0,0-0.1,0.1-0.4,0.1c-0.3,0-0.4-0.2-0.4-0.4c0-0.2,0.3-0.3,0.4-0.2c0.1,0.1,0,0.3,0,0.3s0.2,0,0.3-0.2c0.3-0.3,0.2-1-0.2-1.2c-0.5-0.2-1,0-1.3,0.4c-0.2,0.2-0.5,0.5-0.7,0.8c-0.1,0.2-0.3,0.4-0.5,0.5c-0.3,0.3-0.5,0.5-0.8,0.7c-0.3,0.2-0.6,0.4-0.9,0.5c-0.2,0.1-0.5,0.2-0.7,0.2c-0.1,0-0.1,0-0.2,0c-0.3,0-0.5,0.1-0.8,0.1C-55.6,22.6-55.9,22.6-55.9,22.6L-55.9,22.6z M-57.3,26.9c0.1,0,0.6,0,0.6,0c0.2,0,0.5-0.1,0.6-0.2c0.4-0.2,0.6-0.5,0.8-0.9c0.3-0.6,0.4-1.4,0.3-2c0,0,0.2,0,0.5,0c0.3,0,0.7-0.1,0.9-0.2h0c0.2,0,0.4-0.1,0.6-0.2c-0.1,0-0.1,0.1-0.1,0.1c0,0,0,0.2,0,0.3c0,0.1,0.1,0.1,0.1,0.1c-0.2,0.1-0.4,0.2-0.6,0.2c-0.3,0.1-0.6,0.1-0.9,0.1c0,0,0,0.2,0,0.5c0,0.3-0.1,0.8-0.2,1.2c-0.1,0.4-0.3,0.7-0.6,0.9c-0.2,0.2-0.5,0.4-0.8,0.5c-0.2,0-0.7,0.2-1.2,0.1c-0.7-0.1-1.3-0.3-1.3-0.3s0.1-0.2-0.1-0.5c-0.1-0.2-0.3-0.3-0.3-0.4C-58.7,26.4-58,26.8-57.3,26.9L-57.3,26.9z M-61.3,21.3c0.3-0.5,1.1-0.6,1.6-0.3c0.2,0.1,0.3,0.2,0.3,0.4c0.2,0.6-0.1,0.9-0.1,0.9s0-0.1-0.2-0.2c-0.1,0-0.3-0.1-0.6-0.1c-0.8,0-0.9,0.2-0.9,0.2S-61.6,21.7-61.3,21.3L-61.3,21.3z M-61.9,24.3c0.1-0.2-0.1-0.5-0.1-0.5s0.4,0,0.6-0.1c0.2-0.2,0.3-0.4,0.3-0.4s0.4-0.1,0.7-0.1c0.3,0,0.6,0.2,0.6,0.2v0.6h0c0.1,0.1,0.4,0.3,0.4,0.5c0.1,0.3,0,0.6,0,0.6h-0.9c0,0-0.1-0.2,0-0.4c0.1-0.2,0-0.2,0-0.2s-0.1,0.1-0.5,0.1c-0.3-0.1-0.5-0.3-0.5-0.3s0,0.1-0.2,0.2s-0.4,0-0.4,0s-0.1,0.2,0.1,0.2c0.3,0,0.2,0.3,0.2,0.3s-0.3,0-0.5,0c-0.2-0.1-0.4-0.4-0.4-0.4S-62,24.5-61.9,24.3L-61.9,24.3z M-59.7,26.9c0,0-0.1,0-0.1,0.1c-0.2,0.1-0.5,0.4-0.7,0.5c-0.3,0.2-0.4,0.3-1-0.1c-0.2-0.2-0.7-0.6-0.7-0.6s0,0.4-0.4,0.4c-0.3,0-0.5-0.1-0.4-0.5c0.1-0.4,0.7-0.5,1.2-0.2c0.5,0.2,0.8,0.6,0.8,0.6s0.3-0.4,0.8-0.6c0.1-0.1,0.2-0.1,0.4-0.1c0.4-0.1,0.7,0,0.8,0.2c0,0,0,0,0,0.1c0.1,0.2,0,0.3,0,0.4c-0.1,0.1-0.2,0.1-0.4,0.1C-59.7,27.4-59.7,26.9-59.7,26.9z M-57.1,44.1h-1.5v-1.7h1.5V44.1z M-57.1,41.1v0.8h-1.5v-0.7c0-0.3,0.1-0.7,0.2-1l1.1,0.4l0.2,0.1C-57.1,40.8-57.1,40.9-57.1,41.1z M-56.7,39.6c-0.1,0.2-0.2,0.3-0.2,0.5l-1.3-0.5c0.1-0.2,0.2-0.4,0.3-0.6c0.2-0.3,0.4-0.6,0.6-0.8l1,0.9C-56.5,39.3-56.6,39.4-56.7,39.6z M-55.2,37.8c-0.3,0.2-0.6,0.5-0.8,0.8l0,0l-1-0.8c0.1-0.1,0.2-0.2,0.3-0.3c0.2-0.2,0.4-0.4,0.6-0.6c0.1-0.1,0.2-0.1,0.2-0.2l0.7,1C-55.1,37.7-55.2,37.8-55.2,37.8L-55.2,37.8z M-54.4,37.3c-0.1,0-0.2,0.1-0.2,0.2l-0.7-1c0,0,0.1-0.1,0.1-0.1c0.3-0.2,0.5-0.3,0.8-0.5c0.1-0.1,0.3-0.2,0.4-0.2l0.5,1.1C-53.8,36.9-54.1,37.1-54.4,37.3L-54.4,37.3z M-52.2,36.1c-0.1,0-0.7,0.3-0.8,0.3l-0.5-1.1c0.3-0.1,0.6-0.2,0.9-0.3c0.2-0.1,0.4-0.1,0.6-0.2l0.3,1.2C-51.8,36-52,36.1-52.2,36.1L-52.2,36.1z M-50.6,35.7c-0.2,0-0.4,0.1-0.6,0.1l-0.3-1.2c0,0,0.6-0.1,0.8-0.2c0.2,0,0.5-0.1,0.7-0.1l0.1,1.2C-50,35.6-50.3,35.7-50.6,35.7z M-47.9,35.4c-0.2,0-0.5,0-0.8,0c-0.2,0-0.4,0-0.6,0l-0.1-1.2c0.3,0,0.5-0.1,0.8-0.1c0.3,0,0.5,0,0.8,0C-47.9,34.2-47.9,35.4-47.9,35.4z M-46,35.5c-0.2,0-0.4,0-0.6,0c-0.3,0-0.5,0-0.8,0v-1.2c0.2,0,0.5,0,0.8,0c0.3,0,0.5,0,0.8,0.1C-45.8,34.4-46,35.5-46,35.5z M-43.9,35.3l-0.1,0.6c-0.2,0-1.1-0.2-1.4-0.3l0.2-1.2c0.2,0,1.1,0.2,1.4,0.3c0,0,0.1,0,0.1,0L-43.9,35.3L-43.9,35.3z M-42.2,36.5c-0.1-0.1-1.1-0.4-1.3-0.5l0.3-1.2c0.2,0,1.2,0.4,1.5,0.5L-42.2,36.5L-42.2,36.5z M-41.7,36.7l0.5-1.1c0.2,0.1,0.3,0.2,0.5,0.2c0.3,0.1,0.5,0.3,0.8,0.5c0,0,0.1,0.1,0.1,0.1l-0.1,0.2l-0.6,0.8C-40.6,37.4-41.4,36.9-41.7,36.7L-41.7,36.7z M-39.2,38.6c-0.2-0.3-0.5-0.5-0.8-0.8c0,0-0.1-0.1-0.1-0.1l0.7-1c0.1,0.1,0.2,0.1,0.3,0.2c0.2,0.2,0.4,0.4,0.6,0.6c0.1,0.1,0.2,0.2,0.3,0.3L-39.2,38.6C-39.1,38.6-39.2,38.6-39.2,38.6z M-38.5,39.6c-0.1-0.2-0.2-0.4-0.3-0.5l0.3-0.3l0.6-0.5l0.1-0.1c0.2,0.3,0.4,0.6,0.6,0.8c0.1,0.2,0.2,0.4,0.3,0.6l-1.3,0.5C-38.3,40-38.4,39.8-38.5,39.6L-38.5,39.6z M-36.6,44.1h-1.5v-1.7h1.5V44.1z M-36.6,41.9h-1.5c0-0.3,0-0.5,0-0.8c0-0.2,0-0.3-0.1-0.5l0.2-0.1l1.1-0.4c0.1,0.4,0.2,0.7,0.2,1L-36.6,41.9L-36.6,41.9z M-36.2,38.9c-0.4-0.8-1-1.5-1.7-2.2c-0.2-0.2-0.4-0.4-0.6-0.5c-0.2-0.2-0.4-0.3-0.6-0.5c-0.3-0.2-0.5-0.3-0.8-0.5c-0.3-0.1-0.5-0.3-0.8-0.4c-0.3-0.1-0.6-0.3-0.9-0.4c-0.3-0.1-0.6-0.2-0.9-0.3c-0.2,0-0.4-0.1-0.5-0.2c-0.2-0.1-0.5-0.1-0.8-0.2c-0.2,0-0.5-0.1-0.7-0.1c-0.7-0.1-1.4-0.2-2-0.2c-0.4,0-0.8,0-1,0c-0.2,0-0.6,0-1,0c-0.6,0-1.2,0.1-2,0.2c-0.2,0-0.5,0.1-0.7,0.1c-0.2,0-0.5,0.1-0.8,0.2c-0.2,0-0.3,0.1-0.5,0.2c-0.3,0.1-0.6,0.2-0.9,0.3c-0.3,0.1-0.6,0.3-0.9,0.4c-0.3,0.2-0.5,0.3-0.8,0.4c-0.3,0.2-0.6,0.3-0.8,0.5c-0.2,0.2-0.4,0.3-0.6,0.5c-0.2,0.2-0.4,0.3-0.6,0.5c-0.7,0.6-1.2,1.4-1.7,2.2c-0.1,0.3-0.3,0.6-0.4,0.8l0-1.7c0.1-0.2,0.2-0.4,0.4-0.6c0.5-0.7,1.1-1.3,1.7-1.8c0.2-0.2,0.4-0.3,0.6-0.5c0.2-0.1,0.4-0.2,0.6-0.4c0.3-0.2,0.5-0.3,0.8-0.5c0.3-0.1,0.5-0.3,0.8-0.4c0.3-0.1,0.6-0.2,0.9-0.3c0.3-0.1,0.6-0.2,0.9-0.3c0.4-0.1,0.9-0.2,1.3-0.3c0.2,0,0.5-0.1,0.7-0.1c0.6-0.1,1.3-0.2,2-0.2c0.4,0,0.7,0,1,0c0.3,0,0.7,0,1,0c0.6,0,1.3,0.1,2,0.2c0.2,0,0.5,0.1,0.7,0.1c0.4,0.1,0.9,0.2,1.3,0.3c0.3,0.1,0.6,0.2,0.9,0.3c0.3,0.1,0.6,0.2,0.9,0.3c0.3,0.1,0.5,0.2,0.8,0.4c0.3,0.1,0.5,0.3,0.8,0.5c0.2,0.1,0.4,0.2,0.6,0.4c0.2,0.2,0.4,0.3,0.6,0.5c0.6,0.5,1.2,1.1,1.7,1.8c0.1,0.2,0.2,0.4,0.4,0.6l0,1.7C-35.9,39.5-36.1,39.2-36.2,38.9L-36.2,38.9z M-35.7,32.3h-23.7v-0.6h23.7L-35.7,32.3L-35.7,32.3z M-33,26.9c0,0-0.5,0.4-0.7,0.6c-0.5,0.4-0.6,0.2-1,0.1c-0.2-0.1-0.5-0.4-0.7-0.5c-0.1-0.1-0.1-0.1-0.1-0.1s0,0.4-0.4,0.4c-0.2,0-0.3,0-0.3-0.1c-0.1-0.1-0.1-0.2,0-0.4c0,0,0-0.1,0-0.1c0.1-0.2,0.5-0.3,0.8-0.2c0.1,0,0.2,0.1,0.3,0.1c0.5,0.2,0.8,0.6,0.8,0.6s0.3-0.4,0.8-0.6c0.5-0.3,1.1-0.2,1.2,0.2c0.1,0.4-0.1,0.5-0.4,0.5C-33,27.3-33,26.9-33,26.9z"/><path class="st2" d="M-34.9,55.2l-2.2,1.2c-0.4-0.7-0.8-1.4-1.3-2l1.9-1.6c-0.6-0.7-1.2-1.4-2-2l-1.6,1.9c-0.6-0.5-1.2-0.9-2-1.3l1.2-2.2c-0.8-0.5-1.7-0.8-2.6-1l-0.7,2.4c-0.4-0.1-0.8-0.2-1.1-0.3c-0.4-0.1-0.8-0.1-1.2-0.2l0.2-2.5c-0.1,0-0.3,0-0.4,0c-0.8-0.1-1.6,0-2.4,0l0.2,2.5c-0.8,0.1-1.6,0.2-2.3,0.5l-0.8-2.4c-0.9,0.2-1.7,0.6-2.6,1.1l1.2,2.2c-0.7,0.4-1.4,0.8-2,1.3l-1.6-1.9c0,0-0.1,0.1-0.2,0.2c-0.6,0.5-1.2,1.2-1.8,1.8l1.9,1.6c0,0-0.8,0.8-1.3,2l-2.2-1.2c-0.3,0.6-0.6,1.2-0.8,1.8c1.3,0.8,2.7,1.6,4.1,2.4c1.2-4.4,5.5-7.5,10.2-7.1c4.2,0.3,7.5,3.3,8.5,7.1c1.4-0.7,2.8-1.5,4.2-2.4C-34.3,56.4-34.6,55.8-34.9,55.2L-34.9,55.2z"/><g><path class="st2" d="M-51.2,57.1c2.7,1.1,3.6,2.5,3.6,2.5s0.9-1.4,3.6-2.5c0.2-0.1,0.4-0.2,0.5-0.2c1.1-0.4,2.2-0.5,2.9-0.6c-0.3-0.4-0.7-0.8-1.2-1.3c-0.4,0.1-1.1,0.2-1.8,0.5c-0.4,0.1-0.8,0.3-1.2,0.6c-2.2,1.2-2.9,2.7-2.9,2.7s-0.7-1.5-2.9-2.7c-0.4-0.2-0.9-0.4-1.2-0.6c-0.7-0.2-1.3-0.4-1.8-0.5c-0.5,0.4-0.9,0.8-1.2,1.3c0.7,0.1,1.9,0.2,2.9,0.6C-51.5,57-51.4,57.1-51.2,57.1L-51.2,57.1z"/><path class="st2" d="M-51.8,59c2.8,0.9,4.1,2.3,4.1,2.3s1.3-1.4,4.1-2.3c0.1,0,0.2-0.1,0.2-0.1c1.6-0.5,3-0.6,3.9-0.6c-0.2-0.4-0.5-0.9-0.8-1.4c-0.7,0.1-2,0.2-3.3,0.7c-0.1,0-0.3,0.1-0.4,0.1c-2.4,1-3.7,2.8-3.7,2.8s-1.3-1.8-3.7-2.8c-0.1,0-0.3-0.1-0.4-0.1c-1.3-0.5-2.6-0.7-3.3-0.7c-0.3,0.5-0.6,1-0.8,1.4c0.8,0,2.2,0.1,3.8,0.6C-51.9,58.9-51.9,59-51.8,59L-51.8,59z"/><path class="st2" d="M-50.2,55.6c1.8,1,2.6,2.1,2.6,2.1s0.8-1.1,2.6-2.1c0.5-0.3,1-0.5,1.5-0.7c0.5-0.2,0.9-0.3,1.2-0.3c-0.4-0.3-0.8-0.5-1.2-0.7c-2.2-1.1-4.1-1-4.1-1s-2-0.1-4.1,1c-0.4,0.2-0.8,0.4-1.2,0.7c0.3,0.1,0.7,0.2,1.2,0.3C-51.3,55.1-50.8,55.3-50.2,55.6z"/><path class="st2" d="M-39.2,58.9c-0.8,0-2.2,0.1-3.7,0.5c-0.2,0.1-0.5,0.1-0.7,0.2c-2.1,0.7-3.1,1.8-3.1,1.8l0.2,0.9l-1.2,0l-1.2,0l0.2-0.9c0,0-1-1-3.1-1.8c-0.2-0.1-0.4-0.1-0.7-0.2c-1.5-0.4-2.9-0.5-3.6-0.5c-0.2,0.5-0.3,0.9-0.3,0.9s1.4,0.7,3.5,1.7c0.3,0.2,0.7,0.3,1.1,0.5c2,0.8,4.1,1.7,4.1,1.7s2.1-0.8,4.1-1.7c0.4-0.1,0.7-0.3,1.1-0.5c2.2-0.9,3.5-1.7,3.5-1.7S-39,59.4-39.2,58.9L-39.2,58.9z"/></g></g></g></g></g></svg>
