<svg width="80" height="88" viewBox="0 0 80 88" fill="none" xmlns="http://www.w3.org/2000/svg">
<path fill-rule="evenodd" clip-rule="evenodd" d="M19.6769 63.5061C19.3313 63.0266 19.215 62.8503 18.3829 62.7022C17.2758 62.5119 15.5905 62.9103 15.5129 63.9751C15.4883 64.31 15.6645 64.6026 15.8761 64.6837C16.2463 64.8283 16.2886 64.6238 16.6024 64.4863C17.1136 64.2677 17.7236 64.6238 18.263 64.7049C19.631 64.9094 20.4384 63.7741 20.3045 68.8265C20.2657 70.2403 19.6275 69.2884 17.8646 70.6035C16.4437 71.6648 16.4155 71.2522 15.4177 70.2121C14.226 68.9675 12.6606 67.187 11.617 65.7626C9.41688 62.7622 7.22385 59.2153 5.93342 54.8715C5.14717 52.2201 4.96383 50.496 4.95678 47.552C4.94973 44.9042 4.8369 41.9496 4.96383 39.3088L35.2572 39.3052L35.2326 82.3866C32.2744 81.9635 27.3102 79.4673 25.237 78.0958C23.5975 77.0134 21.4398 75.7053 19.9871 74.3726C19.4759 73.9001 17.3252 72.183 17.1524 71.8939C18.0268 71.0478 18.3441 71.7846 19.483 71.5731C20.8263 71.3228 19.9871 72.5215 21.4256 72.3699C21.6619 71.9785 21.5349 71.8128 21.9157 71.5237C22.3706 71.5343 22.6209 71.8269 23.1956 71.8164C23.6716 71.8023 23.9783 71.5801 24.3027 71.3827C25.3816 70.7304 26.0797 71.4814 26.9188 71.0125C26.8871 70.6 26.5274 70.5365 25.78 70.198C23.4212 69.1403 22.5645 70.7551 22.4481 67.6877C22.427 67.1377 22.4411 66.3338 22.5222 65.8084C22.6456 65.0187 22.9664 65.0293 23.7421 65.1209C26.3512 65.4277 26.0656 64.6837 27.0775 64.6873C27.6169 65.2972 27.5076 67.3633 27.4864 68.3364C27.4723 68.957 27.4336 69.6163 27.3137 70.2016C27.1656 70.9384 26.598 71.1253 26.8624 71.7C27.2855 72.1407 28.8685 71.9468 29.6689 72.0068C30.3952 72.0561 31.9289 72.3523 32.0876 71.5696C31.8901 71.4215 31.5411 71.3686 31.2802 71.2452C29.5455 70.4484 28.59 68.1249 29.0695 66.2774C29.6125 64.1725 31.4459 64.444 32.6411 63.3898C32.8245 63.2276 33.5966 62.5718 33.2793 62.1381C32.6623 61.5141 31.3331 62.6458 31.0016 62.8785C30.6491 63.1253 30.293 63.3686 29.7711 63.0513C28.9637 62.5577 29.7782 60.2131 30.0356 59.247C30.1237 58.905 30.3212 58.2421 30.3212 57.9037C30.3247 57.4347 29.9933 57.0469 29.5667 57.2303C29.3234 57.3713 29.2388 58.3091 28.7628 59.2646C28.4807 59.8287 28.0576 60.689 27.1586 60.3294C25.23 59.5573 25.7165 57.5511 24.1264 57.8755C23.9783 58.5383 24.5706 58.6864 24.6412 59.2188C24.7187 59.797 24.0312 60.0438 23.4424 59.9345C22.3811 59.7371 22.2295 58.5841 21.884 57.5969C21.3798 56.1619 20.375 56.5956 20.1176 56.5886C19.7157 56.578 19.906 56.3805 19.4547 56.3171C18.6156 56.2007 17.5826 57.4101 17.4063 58.0024C16.8527 57.7626 16.8421 57.3184 16.2428 57.0751C15.7774 57.1492 15.7104 57.4841 15.2344 56.9729C14.9453 56.6661 15.0017 56.2783 14.5998 56.1972C14.3106 56.7613 14.5821 56.853 14.5786 57.3713C14.0674 57.5899 13.6478 57.6075 13.1683 57.9037C12.0506 58.5983 12.2304 60.1531 12.8333 60.4246C14.5539 61.1967 14.5363 59.4973 14.7549 58.8345C14.8783 58.4572 15.2415 57.9425 15.6822 57.9248C16.687 57.886 16.5495 59.6595 17.9986 58.7781C17.9281 58.0764 18.0938 57.8014 18.5909 57.4982C20.3538 56.4334 20.4243 59.7194 20.509 60.9711C19.2926 60.9076 18.5098 60.0967 17.9633 59.7124C17.9281 60.199 18.2384 60.3365 18.2983 60.689C17.5403 61.0733 16.5495 60.4916 15.7421 60.5233C15.9466 61.3907 17.5403 61.2884 18.263 61.2567C19.0704 61.2179 18.9893 61.1509 19.4618 61.5564C19.7685 61.8243 19.9342 61.9689 20.4349 62.1276C20.5548 62.9385 20.65 63.5802 19.6769 63.5061ZM33.2229 58.8592C32.3908 59.3951 32.7152 60.4634 31.6715 60.6326C31.0651 60.7313 30.5468 60.4352 30.0708 60.5515C29.5949 60.6714 29.5314 61.2144 29.951 61.4964C30.7901 62.0606 31.9324 61.7609 32.3978 61.2073C32.6552 60.9006 33.5508 59.455 33.2229 58.8592ZM39.8936 63.5802C39.9571 61.7609 39.5199 60.4599 40.5247 60.622C40.7504 61.5881 40.4119 63.3757 40.7116 63.5943C40.8103 63.6683 42.1713 63.8023 42.7566 64.6203C43.5499 65.7238 44.4771 68.4598 43.8425 69.3977C43.1232 69.4259 43.3771 68.8195 43.2431 67.8499C43.1656 67.2717 43.0492 66.7569 42.8623 66.2139C42.5133 65.2055 41.8187 64.4722 40.6164 64.3135C40.6552 68.0579 40.895 69.105 42.4498 72.042C42.8835 72.8565 43.8108 73.6533 43.4053 74.0693C43.2114 74.2703 43.095 74.2068 42.7742 73.8225C41.5543 72.3629 40.7998 70.8433 40.352 68.8794C40.3379 68.897 40.3238 68.9217 40.3132 68.9358L40.1545 69.2884C39.8549 70.2227 39.5058 71.1077 39.0122 71.9433C38.6843 72.4968 38.0743 73.3677 37.6477 73.8155C37.3657 74.1152 37.1471 74.1998 36.9567 73.9636C36.7451 73.6392 37.1823 73.2549 37.348 73.0292C39.5834 69.9724 39.9465 68.3505 39.8972 64.3594C38.1202 64.8107 37.623 66.3408 37.4362 67.9345C37.3762 68.4352 37.4326 69.4012 36.8544 69.165C36.4384 68.9076 36.7627 67.5326 36.8333 67.1694C37.1435 65.4982 37.757 64.0279 39.8936 63.5802ZM22.2472 61.0874C23.0722 61.1368 23.1533 61.4682 23.8408 60.8124C24.1758 60.4881 24.5636 60.0297 25.3604 60.1884C25.914 60.2977 26.4322 60.7067 26.6297 61.1016C27.1938 62.2192 26.1431 62.0606 25.8857 62.2721C25.9986 62.9773 27.088 62.5788 27.3102 63.485C27.021 64.1936 26.2172 64.2078 25.3216 64.1055C24.0453 63.961 24.5953 63.4074 24.3344 62.5013C23.5411 62.3215 22.3 64.3523 22.2472 61.0874ZM45.3974 39.344C45.9403 39.2065 66.0866 39.3264 67.6661 39.3299C70.0284 39.3334 72.6586 39.2312 74.9856 39.3475C75.109 40.0104 75.0209 47.1219 75.0209 48.444C75.0209 51.8111 75.0949 53.5352 74.143 56.6238C73.4308 58.9508 72.4224 61.0028 71.3153 62.935C70.6101 64.169 69.0306 66.4537 68.0892 67.6277C67.2289 68.7031 66.3017 69.6656 65.3568 70.6352C64.9619 71.0407 64.6093 71.3615 64.2074 71.7494C63.8125 72.1302 63.4705 72.518 63.0509 72.8565C62.6384 73.1879 62.2329 73.5546 61.8275 73.9001C59.1302 76.2024 55.2096 78.5506 52.0434 80.042C51.1267 80.4721 46.3105 82.4184 45.4009 82.3478L45.3974 39.344ZM39.9324 46.2651C39.943 45.9055 39.8866 44.9006 40.0241 44.6468C40.1158 44.474 40.3731 44.333 40.5565 44.4987C40.7821 44.6961 40.701 45.9055 40.7046 46.2158C42.1924 46.7693 43.0633 47.2382 43.8213 48.8389C44.0435 49.3043 44.2198 49.7768 43.9624 50.1928C43.162 50.2422 43.5675 49.5582 42.6226 48.3418C42.1819 47.7741 41.6636 47.1853 40.701 47.0055L40.7222 48.0386C41.2264 48.4687 41.9492 48.7261 42.0161 49.8226C42.0867 51.0425 41.5684 51.307 41.0712 51.8041C41.1629 52.132 41.6248 52.7455 41.8293 53.2567C42.2418 54.2757 43.1409 57.6816 42.5979 58.5383C41.8504 58.5841 41.9492 57.7979 41.861 57.121C41.6459 55.4638 41.4062 53.2426 40.2568 52.1955C38.2506 53.708 38.6984 57.7309 38.5327 58.1998C38.4163 58.5242 38.4869 58.3656 38.2929 58.4749C37.1365 59.0108 37.9932 54.4555 38.5468 53.2003C38.6737 52.9041 38.7936 52.6785 38.9487 52.4705C39.1285 52.2272 39.266 52.1249 39.4071 51.8394C39.1955 51.5996 39.1074 51.6454 38.8994 51.4974C38.4516 51.18 38.2824 50.3127 38.374 49.7063C38.5151 48.7719 39.1285 48.4335 39.9183 48.0985V47.002C38.991 47.2347 38.4904 47.7565 38.0708 48.2783C37.1612 49.4066 37.3657 50.0518 36.6852 50.0518C36.4384 49.4524 36.59 49.2268 36.8932 48.719C37.6125 47.5309 38.3952 46.6388 39.9324 46.2651ZM26.8236 37.7504C25.6037 37.8949 25.9915 36.0016 26.1995 35.5327L26.88 36.4317C27.088 36.8654 27.014 37.4049 26.8236 37.7504ZM43.155 35.716C43.3841 35.8288 43.5675 35.9593 43.571 36.2308C43.571 36.3859 43.5358 36.3577 43.5005 36.4494L43.2149 36.4317L43.155 35.716ZM47.3824 37.3661C47.2237 37.6728 47.1885 37.5988 46.7266 37.7715C46.3528 37.9161 46.3811 38.0289 46.1484 38.1735C45.5772 38.526 45.0095 37.6975 43.4229 37.0241C42.5344 36.6468 42.2418 36.7667 42.0937 36.2731L44.6887 36.9712C45.489 37.2391 45.9156 37.4401 46.7019 37.3449L47.3824 37.3661ZM59.5498 36.1532C59.712 36.051 59.8953 36.0897 60.1527 35.9981C61.006 35.6913 60.403 35.7231 62.1413 35.2471C62.2823 35.2083 63.1214 34.7006 63.407 35.4622C62.9099 35.9417 62.18 35.7513 61.7851 35.6878C61.9685 36.1744 62.1906 38.103 61.8416 38.5578C61.3691 38.6882 60.8226 38.2546 60.4418 38.036C59.9094 37.7327 59.3982 37.5776 59.2536 37.2638C59.7931 37.3555 60.5864 37.8209 61.3233 37.6587L61.5066 35.8394C60.8156 36.0157 59.8777 37.017 59.5498 36.1532ZM60.396 34.7993C62.0214 34.7288 61.4608 34.2881 62.0954 34.5349C62.0848 34.9897 61.8204 35.1484 61.4396 35.2612C61.0342 35.1977 61.2951 35.1942 61.1435 35.1448C60.7274 35.0038 60.5617 35.2365 60.396 34.7993ZM42.8553 34.8416C42.7742 34.5807 42.7001 34.3833 42.7284 34.0977C43.0175 34.14 43.155 34.2246 43.2819 34.4185C43.712 35.0743 43.3242 35.2718 43.0421 35.1448C42.8024 35.032 42.9611 35.1801 42.8553 34.8416ZM37.7746 34.5842C37.9016 35.0073 37.6054 35.1378 37.4609 35.3423C37.683 35.857 38.7372 37.0382 39.1673 37.2427C39.5305 37.4119 39.6539 37.3308 39.8936 37.6093C39.7456 37.701 39.0157 37.8385 38.7936 37.8562C37.683 37.9478 37.4608 36.4317 36.9426 35.8465C36.4525 36.259 35.4864 37.8138 33.9386 37.701C34.5873 37.2427 34.397 37.835 35.4723 36.6221C35.8178 36.2308 36.3643 35.6878 36.5159 35.1025C36.3185 34.7782 35.98 34.4256 35.8743 34.0871C36.4243 34.2352 36.4595 34.4644 36.7698 34.6865C36.9531 34.4291 36.9708 34.3233 37.1012 33.9884C37.4397 34.0201 37.6936 34.3092 37.7746 34.5842ZM61.1681 30.8681C61.489 30.6953 61.5948 30.4556 61.7781 30.1841C62.1166 29.6764 62.2188 29.7751 62.0496 29.1158C62.4938 29.2074 62.73 29.3978 62.8252 29.8456C62.6807 30.103 62.4727 30.2652 62.2012 30.4415C61.764 30.727 61.6829 30.6495 61.4996 30.995C62.0989 30.9174 63.5551 29.895 64.5635 30.1206C64.634 30.5296 64.366 30.7024 64.1827 30.8892C63.7772 31.3123 62.9663 32.4476 62.7406 33.0364C63.1637 32.9553 64.158 32.5146 64.4612 32.8848C64.9125 33.2832 63.6644 33.7945 63.2342 33.9038C62.9099 33.9849 62.5608 34.0131 62.2259 34.1083C61.9297 34.1893 61.556 34.3551 61.2774 34.2176L63.7525 33.1105C63.3365 33.0223 64.0875 33.1034 63.6362 33.0893C63.3435 33.0823 62.4762 33.3961 62.2752 33.5124C61.7182 33.8368 61.9473 33.5512 61.4079 33.6922C61.2492 33.7345 60.8931 33.9108 60.7204 33.9778C59.095 34.5983 59.5004 35.85 58.4815 35.7125C58.418 35.2753 58.6684 35.0038 58.8235 34.7499C58.9716 34.5172 59.2219 34.1294 59.4229 33.9884C59.2889 34.3868 58.9187 34.764 58.7847 35.2365C59.9623 34.4538 58.9328 34.6512 61.2457 33.5371C61.898 33.2198 61.3268 32.9835 60.9531 32.7861C60.6886 32.9976 60.5441 33.3855 60.0998 33.3749C60.255 33.1281 60.5053 32.9483 60.5829 32.5146C60.3431 32.3877 60.2514 32.564 60.1421 32.3665C60.0892 32.2784 60.0434 31.8976 60.0082 31.7636C59.9165 31.4075 59.779 31.0126 59.7014 30.6883C60.0152 30.7059 60.3396 31.3476 60.537 31.7143L60.8297 32.1374C61.3409 31.2383 61.08 31.3828 60.9284 30.9774L61.1681 30.8681ZM43.4229 32.2502C43.5146 32.0139 43.3665 32.2396 43.6027 32.0598L45.0941 30.9633C45.8099 30.4873 46.4974 29.8914 47.1109 30.0184C47.2272 30.512 47.0157 30.6142 46.7865 30.8787C46.5961 31.0937 46.4833 31.3405 46.2682 31.5415C46.3811 31.8095 46.374 31.6332 46.5115 31.947C46.3352 32.3559 46.1766 32.2537 45.9121 32.5111C46.4339 32.5005 46.4445 32.3524 46.8606 32.6133C46.8852 33.0153 46.6843 33.2021 46.5291 33.5371C46.24 34.147 46.2012 36.1215 45.9262 36.6292C45.4996 36.6362 45.5772 36.5692 45.4256 36.2449C45.0131 36.3119 45.348 36.4106 44.9002 36.3789L44.9496 35.3881L44.5618 35.2753C44.6252 34.8346 44.9884 34.5525 44.865 34.1224C43.9447 34.9967 44.9214 35.9029 44.0223 35.9981C43.7579 35.6243 43.6909 35.4234 43.8637 34.831C44.0117 34.3339 44.0646 33.9602 44.3432 33.8121L44.4736 34.0765C44.798 33.3044 45.5948 32.8213 45.9121 32.5111C45.6512 32.5252 45.4996 32.6098 45.2986 32.5252C45.9156 31.8941 45.7605 32.2114 45.7429 31.7742C45.7182 31.1466 45.9685 31.4146 46.1766 30.8998C45.2563 31.2101 44.9425 32.6521 43.4229 32.2502ZM46.1871 30.8504C46.1871 30.8399 46.173 30.8187 46.166 30.8258C46.0708 30.9527 46.1907 30.8575 46.1942 30.8575C46.1942 30.8575 46.1871 30.854 46.1871 30.8504ZM45.08 33.7592C45.006 33.8756 44.9249 33.9531 44.865 34.1224C45.0236 33.9954 45.0977 34.207 45.08 33.7592ZM36.3749 32.7544C36.3961 32.7614 36.4137 32.7826 36.4278 32.7896C36.59 32.8813 36.657 32.9976 36.9884 32.8143C37.2881 32.6451 37.6512 32.2537 38.2577 32.4935C38.5961 32.6274 38.5503 32.6944 38.4727 33.1105L37.75 33.1916C37.6689 33.0505 37.7429 33.2198 37.6971 33.0082C37.6371 32.7297 37.757 32.9201 37.6407 32.7191C37.1612 32.9871 37.3868 33.1563 36.6852 33.4666C36.322 33.6287 35.7403 33.9461 35.43 33.9461C35.423 33.9214 35.4194 33.8932 35.4159 33.8756C35.4159 33.8579 35.4089 33.8262 35.4089 33.805L35.4194 33.6746C35.4582 33.5195 36.2233 32.8778 36.3749 32.7544ZM59.4793 33.1457C59.2818 32.7967 59.1584 32.3947 59.1373 31.8482C59.3559 31.9434 59.1867 31.8412 59.3806 31.9857C59.7684 32.2854 60.2832 33.0611 59.4793 33.1457ZM26.6931 33.4243C28.1916 33.2938 28.449 33.121 28.8227 31.746C28.9179 31.3969 29.0413 30.445 29.5138 30.7094C29.9474 30.9527 29.7324 31.6085 29.6971 32.0704C30.3635 32.021 30.3071 31.3264 30.9664 31.6155C31.1215 32.2502 30.2224 32.3877 29.6054 32.6979C29.3198 32.839 28.4596 33.4771 28.4701 33.798C28.4983 34.6935 30.843 32.0422 31.0651 33.1669C31.1109 33.4031 31.0722 33.0787 31.0827 33.322C31.0827 33.3855 31.0581 33.5759 31.0475 33.6464C30.9488 34.2317 30.6843 34.482 30.501 35.1307C30.3071 35.8394 30.293 36.7561 30.0567 37.3555C29.3269 37.3555 29.3586 36.541 28.7169 36.5093C28.2692 36.8936 28.6746 37.5353 27.8954 37.4895V36.9218C27.6169 36.7914 27.6804 36.9148 27.4759 36.7173C27.5675 36.3612 27.4829 36.5869 27.7932 36.4035C27.6381 36.0686 27.3983 35.8993 27.9448 35.7266C28.2374 35.6314 28.59 35.5538 28.9179 35.5997C28.9073 35.6702 28.4701 36.3083 29.4715 36.4035C29.9404 35.9628 29.8346 35.9875 29.951 35.2083C30.0215 34.7182 30.2154 34.3022 30.1378 33.7381C29.817 33.6288 29.5596 33.7486 29.3304 33.9566C29.0589 34.1964 29.0942 34.3727 29.0589 34.824C28.8157 34.9368 28.5865 34.9262 28.3467 35.0778C28.1563 35.1942 28.0682 35.3564 27.832 35.448C27.2714 35.6631 26.7178 35.575 26.6191 35.0214C27.0528 34.6865 27.973 34.7958 27.966 34.1224C27.4547 33.7239 27.6134 34.1788 27.1162 34.0871C26.7707 34.0201 26.6332 33.805 26.6931 33.4243ZM51.4723 33.1563C51.853 33.2233 52.322 33.3784 52.738 33.188C52.9143 33.1069 53.1118 32.7297 53.281 32.4406C53.4502 32.1515 53.9685 30.8046 54.0813 30.6918C55.1532 31.1854 54.0708 32.088 53.8945 32.9306C54.3563 32.8883 54.6983 32.6169 55.1884 32.9165C54.857 33.8791 53.4114 33.0435 52.8121 34.9403C53.0765 35.2295 53.6195 35.6913 53.9297 35.8993C54.649 36.3789 55.1496 36.0862 55.6221 36.3154C55.4987 36.5128 55.4035 36.474 55.1708 36.5939C54.8852 36.742 54.9557 36.7949 54.7794 36.9289C54.4128 37.2145 54.039 37.084 53.764 36.7914C53.2951 36.3013 53.2457 35.6843 52.6252 35.2012C52.329 35.4516 52.1527 35.7301 51.8636 36.0333C51.5569 36.3542 51.4194 36.5375 50.9998 36.7914C50.3264 37.2039 49.7799 37.8138 48.8033 37.8667C48.8879 37.7715 48.835 37.8244 48.9478 37.7398L49.3991 37.4507C50.2735 36.8231 50.9363 36.0651 51.5428 35.1484C51.8037 34.7535 52.0611 34.549 52.2585 34.0483C52.0329 33.7134 51.6697 33.6781 51.4723 33.1563ZM16.9832 31.813C18.5663 31.6896 18.3794 31.8236 19.631 31.1325C19.966 30.9456 21.4715 29.6517 21.2564 31.2453C20.4384 31.4851 20.0612 31.8095 19.4724 32.1797C19.5323 32.5499 19.557 32.296 19.6628 32.6451C19.7403 32.9024 19.6628 32.9306 19.7826 33.1845C20.5477 33.5441 21.0061 32.0069 21.9475 32.9377C22.1026 33.2515 21.1436 34.6336 20.8157 35.4692C20.1528 37.1686 20.3961 37.6023 19.2044 37.5529C18.9999 36.9042 18.947 36.9959 18.7496 36.9077C18.3371 37.1087 18.5768 37.1651 18.3335 37.4965C17.8999 37.5847 17.2758 37.5635 16.955 37.3661C16.9585 36.95 17.0114 37.0029 17.3675 36.8725C19.4653 36.0968 18.464 36.7878 19.3948 36.6257C19.5676 36.3612 19.5358 36.0897 19.6169 35.716C19.6698 35.4727 19.8461 35.1378 19.9554 34.9298C20.1458 34.5807 20.7381 33.8156 20.6288 33.5371C20.2798 33.456 19.6275 33.9954 19.4371 34.1717C18.9647 34.6195 19.2326 35.1484 18.7496 35.3035C18.5098 35.106 18.5451 34.9932 18.4852 34.6406C17.4768 34.8346 17.2793 35.9734 17.1242 36.2237C17.0149 36.4035 17.0854 36.3506 16.8915 36.4247C16.7187 36.1603 16.7963 35.9276 16.7611 35.6349C16.137 35.5503 15.6081 36.9324 15.3649 37.5283C14.8395 37.6023 14.7161 37.4754 14.3953 37.2814C14.3212 35.5503 14.8677 36.2449 15.0299 36.3224C15.4812 36.125 16.2322 35.3105 16.8457 34.8134C17.3569 34.3974 17.1595 34.3374 17.1771 33.5582C17.1983 32.7508 17.6566 33.0999 17.7941 32.5146C17.4944 32.222 17.0502 32.2608 16.9832 31.813ZM35.9977 31.9505C36.3573 31.8095 36.6887 31.6755 36.8262 31.337C37.0166 30.8681 36.7381 30.7235 36.6535 30.2898C37.4503 30.3145 37.6477 30.5613 37.9122 30.995L37.9932 31.1113C38.4939 31.0444 39.051 30.6354 39.4071 31.0585C39.326 31.4075 39.2484 31.2065 38.3987 31.6261C38.092 31.7777 37.6689 32.0316 37.5278 31.7918L37.5067 31.7248C37.0942 31.8024 36.3643 32.1656 35.9977 31.9505ZM47.7667 8.0105C47.7667 7.82716 47.7385 7.48164 47.8337 7.3265C47.9571 7.12201 48.1651 7.10085 48.2955 7.31593C48.3907 7.47106 48.3625 8.56405 48.3625 8.82143C48.359 11.4869 47.9359 13.5601 49.794 15.5098C50.3088 14.579 50.1431 11.7443 50.1431 10.4362C50.1431 8.81085 49.7799 7.83069 50.5027 7.88358C50.8024 8.31725 50.7389 10.9863 50.7389 11.7302C50.7424 15.1044 51.1585 16.6557 47.7737 16.5464C46.6596 16.5111 45.958 16.4688 45.5384 15.2665C45.2034 14.3075 45.2634 10.3833 45.3304 9.00477C45.3551 8.4618 45.2493 8.10922 45.7535 8.03518C46.3282 8.58873 45.3621 14.3146 46.3916 15.5063C46.7724 14.9386 47.192 14.572 47.5269 13.828C47.8936 13.0171 47.7737 12.1956 47.7773 11.2472L47.7667 8.0105ZM55.3753 6.87168C56.017 7.18547 55.199 7.75665 56.9125 7.77075C58.3757 7.78133 58.0478 7.21368 58.27 6.71302L58.6296 6.71655C58.8658 7.18195 58.6754 7.74254 58.3405 7.98582C57.526 8.57463 57.2968 7.82364 57.2933 8.79675C58.1642 8.78617 59.7649 8.60636 60.1139 9.06471C59.9729 9.52658 59.3312 9.3926 58.7706 9.3926C58.4991 9.3926 58.2312 9.3926 57.9597 9.3926C57.4837 9.38908 57.3356 9.35735 57.2933 9.54774C57.1946 9.98846 57.6529 9.77691 58.2629 9.90032C59.1514 10.0766 59.3453 10.7148 59.1091 11.5081C58.9257 12.1216 58.9645 11.8642 59.1549 12.4812C59.3206 13.0171 59.9059 16.423 59.3383 16.8496C58.8552 16.7579 58.9822 16.3772 58.9645 15.8589C58.9011 14.1453 58.8094 13.9514 58.4886 12.3401C57.3815 12.5305 57.0923 12.3684 57.2898 13.2992L57.801 13.3309C57.8257 12.862 57.7164 12.6046 58.1994 12.5623C58.5168 12.9607 58.4815 14.0043 58.3264 14.5966C58.1536 15.2489 57.593 15.4393 56.8314 15.4569C56.091 15.4746 55.5657 15.1326 55.4493 14.4944C55.3541 13.9973 55.192 12.7809 55.8618 12.7139C56.0522 12.9748 55.9994 12.9642 55.9994 13.3908L56.6446 13.3133L56.634 12.5693C56.0417 12.4671 55.8054 12.4741 55.2942 12.3225C54.9064 12.8373 54.9028 13.8457 54.8746 14.5614C54.8253 15.7919 55.065 16.5817 54.5679 16.8038C54.0179 16.557 54.2153 15.2595 54.2435 14.6425C54.3563 12.2132 54.85 12.1498 54.7618 11.4693C54.5185 9.57594 55.9923 10.1365 56.6622 9.79102L56.6798 9.41376C56.017 9.41729 54.1272 9.62883 53.9192 9.37498C53.623 8.81085 54.5573 8.88137 55.0192 8.86374C55.5657 8.84611 56.1016 8.83553 56.6622 8.8038L56.6657 8.41597C56.2356 8.16916 55.6891 8.34193 55.3471 7.95762C55.0932 7.67203 54.8958 7.08323 55.3753 6.87168ZM67.4264 24.4723C68.8191 24.6839 74.2205 24.2749 74.961 24.571C75.0244 25.1246 75.1231 28.1285 75.0068 28.527C72.6868 28.6715 69.9473 28.5516 67.585 28.5552C65.8468 28.5552 46.0285 28.6856 45.3198 28.5411L45.3304 24.5675C45.7217 24.4194 52.2092 24.4582 53.0377 24.5217V20.7632L46.1589 20.7597C45.4996 20.7597 45.3903 20.8619 45.2881 20.6257L45.2845 17.9638L72.7997 17.9567C72.7362 17.8968 72.7538 17.9073 72.648 17.8333L72.2567 17.65C72.0769 17.5689 71.9429 17.5054 71.7631 17.4173C70.3034 16.698 68.4347 15.3653 67.1901 14.3075C64.9583 12.4177 61.496 8.51821 60.7591 5.63413L40.2356 5.61298L40.2039 28.5129L4.95325 28.4952L4.9603 13.5248C5.47154 13.2145 6.02509 12.9184 6.56805 12.5693C6.86422 12.3825 7.06166 12.2661 7.34372 12.0475C8.02067 11.5186 8.62005 11.1696 9.56143 10.3869C10.0515 9.98141 10.4394 9.60063 10.8871 9.20927C12.1352 8.1198 14.9347 5.17226 15.386 3.53277L64.6058 3.52925C64.8596 4.40717 66.1007 6.0537 66.6225 6.70597C67.9905 8.40892 69.3902 9.88269 71.0932 11.2119C72.2496 12.111 73.5683 13.07 75.0209 13.6694V20.7385L67.4264 20.7491V24.4723ZM13.676 1.7981C13.1789 4.77385 10.1608 7.50279 7.85849 9.33267C6.903 10.0942 5.55263 11.0391 4.509 11.6385C2.3054 12.9043 2.70734 12.319 2.70734 13.5918C2.70734 16.1233 2.70028 18.6583 2.69323 21.1934C2.68618 26.2599 2.67208 31.3264 2.66503 36.393C2.65797 40.1338 2.46758 47.9575 2.99645 51.2505C3.62756 55.2029 5.23531 59.4938 6.93473 62.5224C8.22164 64.8177 8.58832 65.2302 9.86818 67.1906C10.5345 68.2095 11.7721 69.5564 12.4067 70.3955C13.7642 72.1866 17.3358 75.3139 19.2538 76.8089C19.4618 76.971 19.5923 77.0698 19.8038 77.2249C23.1356 79.6859 27.215 81.9741 31.4353 83.5431C33.3533 84.2588 35.2079 84.8229 37.2916 85.2954C40.4401 86.0076 40.352 85.9265 43.6662 85.0944C49.4943 83.6312 52.4278 82.2174 57.2157 79.6365C58.1783 79.1182 60.7591 77.373 61.7922 76.6114L63.883 74.9049C64.5493 74.362 64.5035 74.3056 64.8984 73.9812C66.1642 72.9305 66.6472 72.317 67.7366 71.1571C68.9213 69.9019 70.0108 68.5303 71.0932 66.9931C72.9795 64.3276 74.9821 60.4986 76.0469 56.7437C77.436 51.8464 77.3444 48.1302 77.3373 42.8627C77.3197 32.772 77.2985 22.6848 77.2844 12.594C76.7062 12.2837 76.1033 11.977 75.5356 11.6209L70.797 8.19737C69.4396 6.91399 67.92 5.44022 67.0139 3.73022C66.4638 2.69012 66.492 2.24587 66.2911 1.80162L13.676 1.7981Z" fill="#0E77B9"/>
<path fill-rule="evenodd" clip-rule="evenodd" d="M61.3267 23.4781C61.5206 24.2397 61.0975 23.9752 61.1821 24.356C61.912 24.6804 61.9684 23.6967 61.9648 23.0726C61.3161 23.1502 60.8507 23.196 60.5157 22.7588C60.2302 22.3851 60.2266 21.7117 60.4734 21.2815C60.9635 20.4389 62.3915 20.594 62.7229 21.7646C63.0472 22.8999 62.7264 24.1551 61.8802 24.4688C60.2548 25.0753 59.666 22.9915 61.3267 23.4781ZM58.7493 22.5191C59.8987 23.2207 59.518 24.4794 58.2875 24.5605C57.6775 24.6028 57.1345 24.3842 56.9723 23.9576C56.7326 23.3194 57.3143 23.0198 57.5717 22.7306C57.3884 22.4345 56.9195 22.2159 56.9935 21.6094C57.131 20.5588 58.8269 20.5517 59.1936 21.2569C59.5144 21.8774 59.0314 22.1595 58.8692 22.3534C58.7423 22.5015 58.8692 22.2829 58.7493 22.5191ZM54.254 21.2745C54.529 21.0665 54.4937 21.2886 54.878 21.0206C55.0367 20.9078 54.8639 20.7844 55.6819 20.869C55.696 21.5389 55.6854 22.2194 55.6854 22.8893C55.6854 25.0471 55.9005 23.8589 56.1579 24.4265C55.9181 24.5464 54.5078 24.5464 54.2681 24.4265C54.4867 23.9294 54.7511 24.8073 54.7405 23.2137C54.7405 22.6848 54.7864 21.962 54.6982 21.4614L54.3597 21.3344C54.3456 21.3274 54.3174 21.3098 54.3069 21.3027C54.2963 21.2992 54.2681 21.2851 54.254 21.2745ZM64.5563 22.3781C66.6541 22.0713 66.2804 23.8448 65.7445 24.2855C64.7185 25.1211 63.7595 24.1974 63.6854 22.9739C63.4668 19.3106 67.1548 21.1581 65.8397 21.888C65.5646 22.0431 65.1874 21.9514 65.0922 21.7258C64.9371 21.3521 65.265 21.3732 65.3249 20.9396C64.4928 20.8867 64.5774 21.5953 64.5563 22.3781ZM28.8261 5.07711C28.9954 5.38385 29.1998 5.76111 29.4114 6.08195C29.6511 6.44511 29.8098 6.76595 30.0214 7.09033L31.2518 9.1529L33.2827 8.99777C33.7164 9.81927 35.1831 11.7514 35.0068 12.1357C34.9116 12.3437 34.3369 12.8726 34.1782 12.9995C34.2205 13.3486 36.2408 16.966 36.8966 19.3776C37.3021 20.8831 37.1399 21.9056 36.7803 23.3794C36.6392 23.9576 36.4488 24.5535 36.202 25.0612C35.9729 25.5336 35.7296 26.1929 35.243 26.408C35.1725 26.3269 35.0985 26.274 35.042 26.0872C34.8235 25.3397 35.3382 22.2088 32.3378 17.3856L30.7054 14.9845C29.8451 15.2983 20.9072 20.6011 19.5639 21.4437C16.9161 23.1044 13.3515 24.6874 11.0844 26.1436C10.4286 26.5596 9.04655 27.4904 8.14042 27.6702C7.75964 26.6548 7.10032 25.9814 7.29071 25.1C7.38238 24.6557 7.56572 24.6557 7.90067 24.4935C9.861 23.5486 15.3013 20.4671 17.1206 19.3988L21.6476 16.892C22.0637 16.6804 22.1307 16.7263 22.2435 16.2785C22.5714 14.9775 22.4621 15.5874 24.0311 14.505L26.9434 12.6505C27.4123 12.3684 27.994 12.0052 28.3713 11.6809C28.2303 11.3142 27.4123 10.0625 27.1584 9.70645C26.8658 9.29393 26.7741 9.06828 26.5238 8.72628C24.9125 6.52268 25.4449 6.69896 26.5485 6.11016C27.1373 5.79284 28.1527 5.03127 28.8261 5.07711ZM45.2879 20.6258C46.455 20.862 52.2513 20.4671 53.0834 20.7351C53.1786 21.2181 53.1222 22.1172 53.1222 22.6495C53.1222 22.8858 53.1821 24.3983 53.0411 24.5217C52.5017 24.7474 46.6172 24.5358 45.4078 24.5887L45.4184 28.5164L74.9855 28.46L74.8833 24.5817L67.5955 24.5676C67.3875 24.5112 67.5567 24.6028 67.4263 24.4724V20.7492L75.0208 20.7386V13.6694C73.5682 13.07 72.2495 12.111 71.0931 11.2119C69.3901 9.88273 67.9904 8.40896 66.6224 6.70602C66.1006 6.05375 64.8595 4.40721 64.6056 3.5293L15.3859 3.53282C14.9346 5.17231 12.1351 8.11985 10.887 9.20931C10.4392 9.60067 10.0514 9.98146 9.56131 10.3869C8.61993 11.1696 8.02055 11.5187 7.3436 12.0476C7.06154 12.2662 6.86409 12.3825 6.56793 12.5694C6.02496 12.9184 5.47141 13.2146 4.96018 13.5249L4.95312 28.4953L40.2038 28.5129L40.2355 5.61303L60.759 5.63418C61.4959 8.51826 64.9582 12.4178 67.19 14.3076C68.4346 15.3653 70.3033 16.698 71.763 17.4173C71.9428 17.5055 72.0767 17.5689 72.2566 17.65L72.6479 17.8333C72.7537 17.9074 72.7361 17.8968 72.7995 17.9567L45.2844 17.9638L45.2879 20.6258Z" fill="#FEFEFE"/>
<path fill-rule="evenodd" clip-rule="evenodd" d="M48.0453 43.7864L70.5433 43.7758L70.5538 45.6339L67.8002 45.6445C67.7896 46.4166 67.772 47.1888 67.7685 47.9574C67.7579 49.2126 67.7932 48.8459 67.1374 49.537C66.7848 49.9107 66.136 49.7626 65.1594 49.7626C64.4331 49.7626 63.5164 49.7132 62.8148 49.7838L62.7936 53.2038L61.4926 53.2672C61.4573 53.7185 63.5411 62.3954 63.9183 64.0737C64.144 65.0821 64.6587 66.8168 64.7398 67.7546L64.352 67.7863C64.0558 67.2222 63.6257 65.4523 63.4071 64.7401C63.1004 63.7247 62.8112 62.7374 62.4974 61.6903L60.6076 55.6013L60.9778 72.25C60.382 72.2676 60.5265 72.1266 60.456 71.499C60.4137 71.1464 60.3644 70.7797 60.3185 70.4236L58.947 59.6735C58.7778 58.3338 58.6438 56.5568 58.3758 55.3157C58.1466 55.6048 54.3177 65.0116 53.891 66.1257L52.7875 68.8194C52.5618 69.3659 52.7134 69.4822 52.107 69.4787L57.2582 53.4082L55.9783 53.38L55.9748 49.8296H52.5442C52.0012 49.8331 51.9166 49.9142 51.6275 49.6039C50.9647 48.8988 51.081 49.135 51.0634 47.8763C51.0563 47.1324 51.0352 46.3884 51.0316 45.6445C47.9325 45.6234 48.07 45.9054 48.0524 45.0522C48.0453 44.6326 47.9924 44.1989 48.0453 43.7864ZM45.401 82.3478C46.3106 82.4183 51.1268 80.4721 52.0435 80.0419C55.2097 78.5505 59.1303 76.2024 61.8276 73.9C62.233 73.5545 62.6385 73.1878 63.051 72.8564C63.4706 72.5179 63.8126 72.1301 64.2074 71.7493C64.6094 71.3615 64.962 71.0406 65.3568 70.6352C66.3018 69.6656 67.229 68.703 68.0893 67.6277C69.0307 66.4536 70.6102 64.1689 71.3154 62.9349C72.4225 61.0028 73.4309 58.9508 74.1431 56.6238C75.095 53.5352 75.021 51.8111 75.021 48.444C75.021 47.1218 75.1091 40.0103 74.9857 39.3475C72.6587 39.2311 70.0285 39.3334 67.6662 39.3298C66.0867 39.3263 45.9404 39.2064 45.3975 39.344L45.401 82.3478Z" fill="#FEFEFE"/>
<path fill-rule="evenodd" clip-rule="evenodd" d="M33.2233 58.8591C33.5512 59.455 32.6557 60.9005 32.3983 61.2073C31.9329 61.7608 30.7906 62.0605 29.9514 61.4964C29.5319 61.2143 29.5953 60.6713 30.0713 60.5515C30.5473 60.4351 31.0656 60.7313 31.672 60.6326C32.7156 60.4633 32.3913 59.395 33.2233 58.8591ZM15.2349 63.6118C15.4429 64.257 15.1397 64.4898 14.6743 64.7436C13.0136 65.6462 11.2225 63.4003 11.2684 62.7762C11.3283 61.9406 11.8536 62.332 11.0286 61.5034C10.7254 61.1967 10.3975 60.8547 10.1613 60.4281C9.51958 59.2575 9.87921 58.1716 10.8241 57.9177C11.4905 58.8097 10.5456 59.4021 11.0639 60.0155C11.2331 60.2165 12.2873 60.7031 12.6364 61.0239C13.5777 61.8842 12.855 62.0781 13.3556 62.8926C13.8034 63.6224 14.3217 63.4109 15.2349 63.6118ZM26.1224 55.7071C25.5477 55.4461 25.5125 55.6506 25.0647 55.5484C24.8496 55.499 24.765 55.4638 24.8109 55.1782C24.8461 54.9525 24.9695 54.8997 25.0718 54.8256C25.5336 54.4977 26.5526 54.9878 26.9757 55.1747C27.3141 55.3263 28.7632 55.8446 27.8924 56.2112C27.4058 56.4157 26.5208 55.8869 26.1224 55.7071ZM33.1669 54.1592C34.3727 54.4766 34.8029 55.4779 34.1013 56.6766C33.5689 57.5828 32.7086 57.9107 32.4723 58.1257C32.2185 58.3584 32.3348 58.4854 32.2044 58.8133C31.6826 58.9155 31.4252 58.8626 31.1396 58.5488C31.1255 57.9988 31.6508 57.7591 31.9541 57.2831C33.174 55.3862 31.4181 55.1641 31.6015 54.3602C31.7214 53.8313 32.6945 54.0323 33.1669 54.1592ZM25.7769 51.3527C26.0554 50.8697 26.7253 51.4056 27.2436 51.589C28.2661 51.9556 28.1286 51.2928 28.0017 50.5136C27.8677 49.6921 27.3847 47.2558 28.4318 47.1747C28.5517 47.7141 28.4353 48.2994 28.4565 48.8494C28.4812 49.4347 28.5164 49.8895 28.9854 50.0693C29.2463 49.5546 29.1758 48.726 29.828 48.7014C30.1348 49.1103 29.7575 50.4748 29.754 51.1941C29.7469 52.6573 29.9761 55.1359 29.553 56.4933C29.412 56.9481 28.8302 58.0552 28.3155 57.5546C27.9699 57.209 28.5059 56.1936 28.5094 55.559C28.5164 54.8538 28.2767 54.2544 27.9946 53.7503C27.7408 53.2954 27.3 52.6925 27.0074 52.3928C26.8064 52.1919 26.6125 52.0614 26.3939 51.8745C25.9285 51.4832 25.9179 51.6489 25.7769 51.3527ZM29.9444 53.8349C30.0078 53.7115 30.0537 53.722 30.1735 53.6445C32.5429 52.079 31.2665 52.3928 31.0867 51.5149C31.3829 51.046 31.8448 51.053 31.8518 50.3831C31.8589 49.745 31.5204 49.3959 31.4605 48.9164C31.3653 48.1196 31.5239 47.9645 31.0197 47.4955C30.8082 47.2981 29.9973 46.9385 30.1348 46.5118C30.2864 46.05 31.1572 46.4907 31.531 46.6599C33.6323 47.6119 33.2551 49.7097 32.5534 50.1857C32.6768 51.0636 33.2057 51.5749 32.1832 52.9816C31.3194 54.1663 29.5389 54.6317 29.9444 53.8349ZM11.3107 57.4347C10.5139 57.142 11.0251 55.8446 11.3882 55.3968C12.1181 54.4977 13.2252 55.0195 13.5002 54.667C13.8422 54.2298 13.2428 54.0394 12.9713 53.9019C10.7889 52.7771 10.9934 48.5674 12.4989 46.7163C13.6201 45.3413 16.5676 45.4788 16.2256 46.8151C15.6509 46.9949 15.5628 46.4801 15.2172 46.3179C14.0608 45.7785 12.5271 47.2628 12.6963 48.6943C13.5989 49.3677 16.7509 48.7965 15.531 50.3761C14.4662 50.6053 14.0678 49.4277 13.1617 49.8895C12.6046 50.1716 12.1533 51.2082 12.4636 51.9733C13.6941 52.2589 13.9726 50.9614 14.7377 51.3175C15.0409 51.8534 14.5368 52.206 15.0304 52.7278C15.4394 53.165 15.9224 52.9816 16.1833 53.3765C16.5323 54.1663 15.7355 54.3426 15.2313 54.6176C15.2877 55.9539 13.8422 56.0914 13.0207 55.9503C12.4072 55.8446 12.0934 55.6401 11.7373 56.1443C11.4341 56.5744 11.5257 57.0856 11.3107 57.4347ZM19.4482 50.4854C18.1789 49.5017 17.9497 50.0024 17.1423 49.8225C16.4195 49.6604 16.0423 48.1161 17.1317 48.176C17.8404 48.2183 18.2741 49.4523 18.9722 49.2337C19.3036 49.128 19.1097 48.3347 19.1132 47.9574C19.1238 47.1958 19.293 45.9865 19.4164 45.2249C19.4975 44.7243 19.5962 44.474 20.1886 44.5656C20.8796 44.6749 21.7752 45.232 21.5248 46.0394C21.3803 46.5013 20.5729 47.217 20.3966 47.827C20.2203 48.4334 20.4883 48.5921 20.5588 49.0434C20.6434 49.5757 20.4177 49.9213 20.7738 50.3126C21.4296 50.644 21.8915 49.4523 22.2688 49.7661C22.3499 49.8402 22.4486 49.7097 22.3569 50.1046C22.3076 50.3197 21.9268 50.637 21.7434 50.7921C21.4437 51.046 21.0171 51.3104 20.862 51.6031C20.4953 52.3117 20.7245 54.1416 21.338 54.4448C21.7293 54.332 21.8563 54.0147 22.0995 53.7362C22.981 52.7172 24.5993 52.3858 25.0859 52.8477C24.8849 53.0909 22.8258 53.2249 22.4063 54.5365C22.2018 55.1676 22.5403 55.2981 22.8117 55.5131C23.0268 57.4312 21.0735 56.2853 20.5341 55.7176C20.3508 55.5202 20.1039 55.1535 19.9453 54.8503C19.1802 53.4259 20.1004 54.332 18.4151 53.5528C18.0837 53.3977 17.8122 53.2566 17.5337 53.0557C17.1423 52.7771 16.3843 52.1002 16.2609 51.529C17.3538 51.4656 17.3327 52.8089 19.3283 52.897C19.2895 51.9733 19.4517 51.247 19.4482 50.4854ZM23.5627 43.6912C23.0092 43.3633 22.9457 43.4127 22.1947 43.5714C21.6024 43.6948 21.3591 43.2822 21.0947 43.0249C20.0193 41.9848 19.8113 43.522 18.6866 42.5242C18.2846 42.1681 17.8651 42.3197 17.2093 42.3479C16.5323 42.3761 16.3772 42.5771 16.081 42.9473C15.3618 43.8464 15.5592 45.1967 14.8047 45.0381C14.0044 44.8724 14.7201 42.8838 15.0938 42.5207C15.4817 42.1434 16.7192 41.7027 17.3679 41.3995C19.0497 40.6062 20.9678 41.1703 21.9303 43.046C22.6213 43.0672 22.9951 42.7781 23.6791 43.0284C25.851 43.8287 23.8589 45.6903 24.289 46.7798C25.315 46.9561 26.0554 44.9076 26.7888 44.3541C27.2895 43.9768 28.2203 44.0262 28.7632 44.3294C29.0841 44.5092 29.8915 45.2919 29.6729 45.7679C29.345 46.2862 27.7513 45.9195 27.2542 45.5176C26.9686 45.2884 26.6548 44.9182 26.3869 45.648C26.2035 46.1416 26.2494 46.6247 26.059 47.0196C25.6147 47.9257 24.1621 48.1549 23.7108 49.2761C23.6262 49.4876 23.5522 50.5171 22.8717 50.6864C22.773 50.4889 22.8858 49.819 22.8893 49.4911C22.8999 48.7965 23.1291 48.9834 23.3124 48.5251C23.1643 47.7882 22.3358 46.9596 22.6249 46.0077C22.8752 45.1932 23.8906 45.091 23.5627 43.6912ZM19.6773 63.5061C20.6504 63.5801 20.5552 62.9384 20.4354 62.1275C19.9347 61.9688 19.769 61.8243 19.4623 61.5563C18.9898 61.1508 19.0709 61.2178 18.2635 61.2566C17.5407 61.2884 15.9471 61.3906 15.7426 60.5233C16.55 60.4915 17.5407 61.0733 18.2988 60.689C18.2388 60.3364 17.9285 60.1989 17.9638 59.7123C18.5103 60.0966 19.293 60.9076 20.5094 60.971C20.4248 59.7194 20.3543 56.4334 18.5914 57.4981C18.0943 57.8014 17.9285 58.0764 17.9991 58.778C16.55 59.6594 16.6875 57.886 15.6826 57.9248C15.2419 57.9424 14.8788 58.4572 14.7554 58.8344C14.5368 59.4973 14.5544 61.1967 12.8338 60.4245C12.2309 60.1531 12.0511 58.5982 13.1688 57.9036C13.6483 57.6074 14.0678 57.5898 14.5791 57.3712C14.5826 56.8529 14.3111 56.7613 14.6002 56.1971C15.0022 56.2782 14.9457 56.6661 15.2349 56.9728C15.7108 57.484 15.7778 57.1491 16.2432 57.0751C16.8426 57.3183 16.8532 57.7626 17.4067 58.0023C17.583 57.41 18.6161 56.2007 19.4552 56.317C19.9065 56.3805 19.7161 56.5779 20.118 56.5885C20.3754 56.5956 21.3803 56.1619 21.8845 57.5969C22.23 58.5841 22.3816 59.737 23.4429 59.9345C24.0317 60.0438 24.7192 59.797 24.6416 59.2187C24.5711 58.6863 23.9788 58.5382 24.1269 57.8754C25.717 57.551 25.2304 59.5572 27.159 60.3293C28.0581 60.689 28.4812 59.8287 28.7632 59.2646C29.2392 58.3091 29.3238 57.3712 29.5671 57.2302C29.9937 57.0469 30.3252 57.4347 30.3216 57.9036C30.3216 58.2421 30.1242 58.9049 30.036 59.2469C29.7787 60.213 28.9642 62.5576 29.7716 63.0512C30.2934 63.3686 30.6495 63.1253 31.0021 62.8785C31.3335 62.6458 32.6627 61.514 33.2797 62.1381C33.5971 62.5717 32.8249 63.2275 32.6416 63.3897C31.4463 64.4439 29.6129 64.1724 29.07 66.2773C28.5905 68.1248 29.546 70.4483 31.2806 71.2451C31.5415 71.3685 31.8906 71.4214 32.088 71.5695C31.9294 72.3522 30.3957 72.056 29.6694 72.0067C28.869 71.9468 27.2859 72.1407 26.8628 71.7C26.5984 71.1252 27.1661 70.9384 27.3141 70.2015C27.434 69.6162 27.4728 68.9569 27.4869 68.3364C27.5081 67.3633 27.6174 65.2972 27.0779 64.6872C26.066 64.6837 26.3516 65.4276 23.7425 65.1209C22.9669 65.0292 22.646 65.0186 22.5226 65.8084C22.4415 66.3337 22.4274 67.1376 22.4486 67.6876C22.5649 70.755 23.4217 69.1402 25.7804 70.198C26.5279 70.5364 26.8875 70.5999 26.9193 71.0124C26.0801 71.4814 25.382 70.7304 24.3031 71.3826C23.9788 71.5801 23.672 71.8022 23.196 71.8163C22.6213 71.8269 22.371 71.5342 21.9162 71.5237C21.5354 71.8128 21.6623 71.9785 21.4261 72.3698C19.9876 72.5215 20.8267 71.3227 19.4834 71.573C18.3446 71.7846 18.0273 71.0477 17.1529 71.8939C17.3256 72.183 19.4764 73.9 19.9876 74.3725C21.4402 75.7052 23.598 77.0133 25.2375 78.0957C27.3106 79.4672 32.2749 81.9635 35.233 82.3866L35.2577 39.3052L4.96429 39.3087C4.83736 41.9495 4.95019 44.9041 4.95724 47.5519C4.96429 50.496 5.14763 52.2201 5.93388 54.8715C7.22431 59.2152 9.41734 62.7621 11.6174 65.7626C12.661 67.187 14.2265 68.9675 15.4182 70.2121C16.416 71.2522 16.4442 71.6647 17.8651 70.6034C19.628 69.2883 20.2661 70.2403 20.3049 68.8264C20.4389 63.774 19.6315 64.9093 18.2635 64.7048C17.7241 64.6237 17.1141 64.2676 16.6029 64.4862C16.2891 64.6237 16.2468 64.8282 15.8765 64.6837C15.665 64.6026 15.4887 64.3099 15.5134 63.975C15.591 62.9102 17.2763 62.5118 18.3834 62.7022C19.2155 62.8503 19.3318 63.0266 19.6773 63.5061Z" fill="#FEFEFE"/>
<path fill-rule="evenodd" clip-rule="evenodd" d="M13.6763 1.79823L66.2914 1.80175C66.4923 2.246 66.4641 2.69025 67.0141 3.73035C67.9203 5.44035 69.4399 6.91412 70.7973 8.1975L75.5359 11.621C76.1036 11.9771 76.7065 12.2839 77.2847 12.5941C77.2988 22.6849 77.32 32.7721 77.3376 42.8629C77.3447 48.1304 77.4363 51.8465 76.0472 56.7438C74.9824 60.4988 72.9798 64.3278 71.0935 66.9932C70.0111 68.5305 68.9216 69.902 67.7369 71.1572C66.6475 72.3172 66.1644 72.9306 64.8987 73.9813C64.5038 74.3057 64.5496 74.3621 63.8833 74.9051L61.7925 76.6115C60.7594 77.3731 58.1786 79.1184 57.216 79.6367C52.428 82.2175 49.4946 83.6314 43.6665 85.0946C40.3523 85.9266 40.4404 86.0077 37.2919 85.2955C35.2082 84.8231 33.3536 84.2589 31.4356 83.5432C27.2153 81.9742 23.1359 79.686 19.8041 77.225C19.5925 77.0699 19.4621 76.9712 19.2541 76.809C17.336 75.3141 13.7644 72.1867 12.407 70.3956C11.7724 69.5565 10.5348 68.2096 9.86846 67.1907C8.5886 65.2304 8.22192 64.8178 6.93502 62.5226C5.2356 59.4939 3.62784 55.2031 2.99673 51.2507C2.46787 47.9576 2.65826 40.1339 2.66531 36.3931C2.67236 31.3266 2.68646 26.26 2.69352 21.1935C2.70057 18.6585 2.70762 16.1234 2.70762 13.5919C2.70762 12.3191 2.30568 12.9044 4.50929 11.6387C5.55292 11.0393 6.90329 10.0944 7.85877 9.3328C10.1611 7.50292 13.1792 4.77398 13.6763 1.79823ZM1.18096 11.2156L0.962362 46.8258C0.920053 54.0219 3.87817 61.9267 7.73537 67.5468C9.46652 70.0712 11.8958 72.9236 14.11 74.9192C14.3532 75.1378 14.5084 75.3387 14.7728 75.5503C15.2453 75.9276 15.6084 76.3119 16.0985 76.7279C17.1386 77.6093 19.3105 79.1607 20.4281 79.9187C24.8671 82.9297 30.8397 85.4365 36.0649 86.8363C36.8053 87.0372 39.5167 87.7424 40.1619 87.7177C41.6603 87.6648 46.5435 86.2193 48.1407 85.6798C51.3104 84.6115 55.6788 82.7111 58.4712 80.9694C61.2848 79.2171 63.2909 77.8632 65.7731 75.7407L67.0564 74.5208C70.1803 71.5521 73.2336 67.9064 75.5183 62.9316C79.3438 54.6143 78.9595 48.148 78.963 39.873L78.9771 11.339C77.6408 10.7678 76.5514 10.1296 75.4302 9.38569C72.7717 7.6228 70.279 5.03489 68.7206 2.18254C68.3927 1.5761 68.1177 0.916786 67.7792 0.299776L12.2307 0.292725C11.9804 0.620621 11.1236 2.62678 10.2704 3.81849C8.26423 6.63559 6.10999 8.55008 2.98615 10.2812C2.45376 10.5774 1.62521 10.9088 1.18096 11.2156Z" fill="#FEFEFE"/>
<path fill-rule="evenodd" clip-rule="evenodd" d="M26.9433 12.6505L24.031 14.5051C22.462 15.5875 22.5713 14.9775 22.2434 16.2785C22.1306 16.7263 22.0636 16.6805 21.6476 16.892L17.1205 19.3989C15.3012 20.4672 9.86091 23.5487 7.90058 24.4936C7.56564 24.6558 7.3823 24.6558 7.29063 25.1C7.10024 25.9815 7.75955 26.6549 8.14034 27.6703C9.04646 27.4905 10.4286 26.5597 11.0844 26.1437C13.3514 24.6875 16.916 23.1044 19.5638 21.4438C20.9072 20.6011 29.845 15.2984 30.7053 14.9846L32.3377 17.3856C35.3381 22.2089 34.8234 25.3398 35.042 26.0872C35.0984 26.2741 35.1724 26.327 35.2429 26.4081C35.7295 26.193 35.9728 25.5337 36.2019 25.0612C36.4487 24.5535 36.6391 23.9577 36.7802 23.3794C37.1398 21.9057 37.302 20.8832 36.8965 19.3777C36.2407 16.9661 34.2205 13.3486 34.1782 12.9996C34.3368 12.8727 34.9115 12.3438 35.0067 12.1358C35.183 11.7515 33.7163 9.81934 33.2826 8.99783L31.2518 9.15297L30.0213 7.09039C29.8097 6.76602 29.6511 6.44518 29.4113 6.08202C29.1998 5.76118 28.9953 5.38392 28.826 5.07718C28.1526 5.03134 27.1372 5.79291 26.5484 6.11023C25.4448 6.69903 24.9124 6.52274 26.5237 8.72635C26.774 9.06835 26.8657 9.294 27.1583 9.70651C27.4122 10.0626 28.2302 11.3143 28.3712 11.6809C27.9939 12.0053 27.4122 12.3685 26.9433 12.6505Z" fill="#0E77B9"/>
<path fill-rule="evenodd" clip-rule="evenodd" d="M57.7204 49.8085C57.7804 49.7662 60.1426 49.7767 60.4705 49.7732C61.2603 49.7626 61.1228 49.7521 61.1122 50.5454C61.1052 51.0002 61.1193 51.455 61.0911 51.9098L58.1188 52.0896C57.59 52.065 57.6711 51.8252 57.6534 51.6842L57.7204 49.8085ZM52.8725 45.6128C54.4979 45.6128 64.8037 45.5388 65.5265 45.6481L65.4948 48.0667C64.3312 48.1584 54.9421 48.1161 53.1933 48.0949L52.8936 48.0879L52.869 45.9372L52.8725 45.6128ZM64.7402 67.7546C64.6591 66.8168 64.1444 65.0821 63.9187 64.0737C63.5415 62.3955 61.4577 53.7186 61.493 53.2673L62.794 53.2038L62.8152 49.7838C63.5168 49.7133 64.4335 49.7626 65.1598 49.7626C66.1364 49.7626 66.7852 49.9107 67.1378 49.537C67.7936 48.8459 67.7583 49.2126 67.7689 47.9574C67.7724 47.1888 67.79 46.4167 67.8006 45.6445L70.5542 45.634L70.5436 43.7759L48.0457 43.7865C47.9928 44.199 48.0457 44.6326 48.0528 45.0522C48.0704 45.9054 47.9329 45.6234 51.032 45.6445C51.0356 46.3885 51.0567 47.1324 51.0638 47.8763C51.0814 49.135 50.9651 48.8988 51.6279 49.604C51.917 49.9142 52.0016 49.8332 52.5446 49.8296H55.9752L55.9787 53.3801L57.2586 53.4083L52.1074 69.4787C52.7138 69.4823 52.5622 69.3659 52.7879 68.8194L53.8914 66.1257C54.3181 65.0116 58.147 55.6048 58.3762 55.3157C58.6442 56.5568 58.7782 58.3338 58.9474 59.6736L60.3189 70.4237C60.3648 70.7798 60.4141 71.1464 60.4564 71.499C60.5269 72.1266 60.3824 72.2676 60.9782 72.25L60.608 55.6013L62.4978 61.6903C62.8116 62.7375 63.1008 63.7247 63.4075 64.7401C63.6261 65.4523 64.0562 67.2222 64.3524 67.7864L64.7402 67.7546Z" fill="#0E77B9"/>
<path fill-rule="evenodd" clip-rule="evenodd" d="M1.1809 11.2155C1.62515 10.9087 2.4537 10.5773 2.98609 10.2811C6.10993 8.54999 8.26417 6.6355 10.2703 3.81841C11.1236 2.6267 11.9803 0.620536 12.2307 0.292639L67.7792 0.29969C68.1176 0.9167 68.3927 1.57602 68.7206 2.18245C70.2789 5.0348 72.7717 7.62272 75.4301 9.3856C76.5513 10.1295 77.6408 10.7677 78.977 11.3389L78.9629 39.8729C78.9594 48.1479 79.3437 54.6142 75.5182 62.9315C73.2335 67.9063 70.1802 71.552 67.0564 74.5207L65.773 75.7406C63.2909 77.8631 61.2847 79.217 58.4711 80.9693C55.6787 82.711 51.3103 84.6114 48.1406 85.6797C46.5435 86.2192 41.6603 87.6647 40.1618 87.7176C39.5166 87.7423 36.8053 87.0372 36.0649 86.8362C30.8397 85.4365 24.867 82.9296 20.4281 79.9186C19.3104 79.1606 17.1385 77.6093 16.0984 76.7278C15.6084 76.3118 15.2452 75.9275 14.7727 75.5502C14.5083 75.3387 14.3532 75.1377 14.1099 74.9191C11.8957 72.9235 9.46646 70.0712 7.73531 67.5467C3.87811 61.9266 0.919992 54.0219 0.962302 46.8258L1.1809 11.2155ZM0.877683 10.9828C0.817745 20.6399 0.768384 30.2969 0.711972 39.954C0.697869 42.3762 0.65556 44.809 0.676714 47.2312C0.694343 49.5371 1.00109 51.6138 1.46296 53.7715C2.92968 60.615 5.53875 65.121 9.41005 70.318L11.4938 72.7648L15.2064 76.3294C15.5484 76.6115 15.8481 76.8935 16.2113 77.1826C18.3796 78.8962 21.3941 81.0575 23.8022 82.288C25.3853 83.0954 26.9296 83.938 28.7136 84.6537C31.9785 85.9618 36.0437 87.4074 39.8515 87.9891C40.7083 88.1231 44.8899 86.9808 45.8489 86.7057C51.811 85.0028 56.4227 82.6793 61.3975 79.4532C63.0123 78.4061 64.546 77.1439 65.9881 75.8816C67 74.9931 67.8497 74.2633 68.7734 73.2444L70.5081 71.344C71.4742 70.0183 72.6835 68.6714 73.5685 67.1236C73.773 66.7675 74.0127 66.3903 74.2384 66.0165C74.4781 65.6252 74.6615 65.2726 74.873 64.8707C79.5517 56.0456 79.2556 49.9108 79.2591 40.1938C79.2591 35.3423 79.2661 30.4909 79.2697 25.6394C79.2732 20.8479 79.4001 15.8942 79.2732 11.1238C78.6773 10.9581 77.9158 10.5103 77.3516 10.2106C75.9343 9.45612 75.6557 9.09296 74.7461 8.53236C74.4288 8.33845 74.2419 8.19742 73.9528 7.95061C72.8104 6.9775 71.721 5.94797 70.836 4.75626C69.6231 3.12031 68.8228 2.07315 67.9978 0H12.1214C11.8217 0.144557 11.7159 0.620536 11.5819 0.923752C10.7639 2.74658 9.90718 3.72321 8.86355 5.1582C8.66964 5.42616 8.44399 5.64123 8.22186 5.89156C7.22054 7.02686 5.67978 8.22915 4.43166 9.05418C3.30694 9.79812 2.17517 10.4328 0.877683 10.9828Z" fill="#0E77B9"/>
<path fill-rule="evenodd" clip-rule="evenodd" d="M52.8682 45.9373L52.8928 48.088L53.1925 48.095C54.9413 48.1162 64.3304 48.1585 65.4939 48.0668L65.5257 45.6481C64.8029 45.5388 54.4971 45.6129 52.8717 45.6129L52.8682 45.9373Z" fill="#FEFEFE"/>
<path fill-rule="evenodd" clip-rule="evenodd" d="M19.448 50.4855C19.4516 51.2471 19.2894 51.9734 19.3282 52.8972C17.3326 52.809 17.3537 51.4657 16.2607 51.5292C16.3841 52.1003 17.1422 52.7773 17.5335 53.0558C17.8121 53.2568 18.0836 53.3978 18.415 53.553C20.1003 54.3322 19.1801 53.426 19.9452 54.8504C20.1038 55.1537 20.3506 55.5203 20.534 55.7178C21.0734 56.2854 23.0267 57.4313 22.8116 55.5133C22.5401 55.2982 22.2017 55.1678 22.4062 54.5366C22.8257 53.2251 24.8848 53.0911 25.0857 52.8478C24.5992 52.3859 22.9809 52.7174 22.0994 53.7363C21.8561 54.0148 21.7292 54.3322 21.3379 54.445C20.7244 54.1418 20.4952 52.3119 20.8619 51.6032C21.017 51.3106 21.4436 51.0461 21.7433 50.7923C21.9267 50.6371 22.3074 50.3198 22.3568 50.1048C22.4485 49.7099 22.3497 49.8403 22.2687 49.7663C21.8914 49.4525 21.4295 50.6442 20.7737 50.3128C20.4176 49.9214 20.6433 49.5759 20.5587 49.0435C20.4881 48.5922 20.2202 48.4335 20.3965 47.8271C20.5728 47.2172 21.3802 46.5014 21.5247 46.0395C21.775 45.2321 20.8795 44.6751 20.1885 44.5658C19.5961 44.4741 19.4974 44.7244 19.4163 45.2251C19.2929 45.9867 19.1237 47.196 19.1131 47.9576C19.1096 48.3348 19.3035 49.1281 18.9721 49.2339C18.274 49.4525 17.8403 48.2185 17.1316 48.1762C16.0421 48.1162 16.4194 49.6605 17.1422 49.8227C17.9496 50.0025 18.1788 49.5019 19.448 50.4855Z" fill="#0E77B9"/>
<path fill-rule="evenodd" clip-rule="evenodd" d="M40.0282 48.8354C40.5888 48.5639 41.2235 49.2902 41.2517 49.8966C41.2905 50.771 40.5113 51.8499 39.4853 50.9967C39.3407 50.8768 39.1186 50.496 39.0763 50.1963C38.9635 49.3431 39.4712 49.1069 40.0282 48.8354ZM39.9331 46.2651C38.3958 46.6388 37.6131 47.5308 36.8938 48.719C36.5906 49.2267 36.439 49.4524 36.6858 50.0518C37.3663 50.0518 37.1618 49.4066 38.0714 48.2783C38.491 47.7565 38.9917 47.2347 39.9189 47.002V48.0985C39.1292 48.4334 38.5157 48.7719 38.3747 49.7063C38.283 50.3127 38.4522 51.18 38.9 51.4973C39.108 51.6454 39.1962 51.5996 39.4077 51.8393C39.2667 52.1249 39.1292 52.2272 38.9494 52.4705C38.7942 52.6785 38.6744 52.9041 38.5474 53.2003C37.9939 54.4555 37.1371 59.0108 38.2936 58.4748C38.4875 58.3655 38.417 58.5242 38.5333 58.1998C38.699 57.7309 38.2513 53.708 40.2574 52.1954C41.4068 53.2426 41.6466 55.4638 41.8616 57.1209C41.9498 57.7979 41.8511 58.5841 42.5985 58.5383C43.1415 57.6815 42.2424 54.2757 41.8299 53.2567C41.6254 52.7455 41.1635 52.132 41.0719 51.8041C41.569 51.3069 42.0873 51.0425 42.0168 49.8226C41.9498 48.7261 41.227 48.4687 40.7228 48.0386L40.7017 47.0055C41.6642 47.1853 42.1825 47.7741 42.6232 48.3418C43.5681 49.5582 43.1627 50.2422 43.963 50.1928C44.2204 49.7768 44.0441 49.3043 43.822 48.8389C43.0639 47.2382 42.1931 46.7693 40.7052 46.2157C40.7017 45.9055 40.7828 44.6961 40.5571 44.4987C40.3738 44.333 40.1164 44.474 40.0247 44.6468C39.8872 44.9006 39.9436 45.9055 39.9331 46.2651Z" fill="#FEFEFE"/>
<path fill-rule="evenodd" clip-rule="evenodd" d="M23.5623 43.6914C23.8902 45.0911 22.8747 45.1934 22.6244 46.0078C22.3353 46.9598 23.1639 47.7883 23.3119 48.5252C23.1286 48.9836 22.8994 48.7967 22.8888 49.4913C22.8853 49.8192 22.7725 50.4891 22.8712 50.6865C23.5517 50.5173 23.6257 49.4878 23.7103 49.2762C24.1616 48.155 25.6143 47.9258 26.0585 47.0197C26.2489 46.6248 26.2031 46.1418 26.3864 45.6482C26.6544 44.9184 26.9682 45.2886 27.2537 45.5177C27.7509 45.9197 29.3445 46.2864 29.6724 45.7681C29.891 45.2921 29.0836 44.5094 28.7628 44.3296C28.2198 44.0263 27.289 43.977 26.7883 44.3542C26.055 44.9078 25.3146 46.9563 24.2886 46.78C23.8584 45.6905 25.8505 43.8289 23.6786 43.0286C22.9946 42.7782 22.6209 43.0673 21.9298 43.0462C20.9673 41.1705 19.0493 40.6063 17.3675 41.3996C16.7187 41.7029 15.4812 42.1436 15.0934 42.5208C14.7196 42.884 14.0039 44.8725 14.8042 45.0382C15.5588 45.1969 15.3613 43.8465 16.0806 42.9475C16.3767 42.5773 16.5319 42.3763 17.2088 42.3481C17.8646 42.3199 18.2842 42.1683 18.6861 42.5244C19.8108 43.5222 20.0189 41.9849 21.0942 43.025C21.3587 43.2824 21.6019 43.6949 22.1943 43.5715C22.9453 43.4129 23.0087 43.3635 23.5623 43.6914Z" fill="#0E77B9"/>
<path fill-rule="evenodd" clip-rule="evenodd" d="M56.017 13.9692C56.7363 13.8987 57.0747 13.8387 57.8328 13.9022C57.7975 14.5897 57.6353 14.8682 56.909 14.8788C56.1686 14.8894 56.0241 14.7025 56.017 13.9692ZM57.2792 11.346C57.4696 11.3777 57.6459 11.3989 57.8293 11.4659C58.129 11.5752 58.0302 11.5364 58.1431 11.7303C57.8645 11.9277 57.6777 11.9136 57.2757 11.9242L57.2792 11.346ZM56.3132 11.3989L56.6799 11.3213L56.6481 11.956C56.4331 11.9771 56.0664 12.0159 55.9641 11.8572L55.6221 11.8114C55.7773 11.5434 55.9465 11.4412 56.3132 11.3989ZM58.5556 10.5562C58.6155 10.8453 58.6578 10.9088 58.5415 11.1873C58.4322 11.1873 58.1501 10.9864 57.8927 10.9159C57.318 10.7607 57.2969 10.9793 57.2933 10.3764C57.7975 10.3976 58.1572 10.3976 58.5556 10.5562ZM55.3824 11.1486C55.2554 10.3799 55.9959 10.4117 56.6658 10.3976L56.6552 10.7537L55.3824 11.1486ZM55.3753 6.87179C54.8958 7.08334 55.0933 7.67214 55.3471 7.95773C55.6891 8.34204 56.2356 8.16928 56.6658 8.41608L56.6622 8.80392C56.1016 8.83565 55.5657 8.84623 55.0192 8.86385C54.5573 8.88148 53.623 8.81097 53.9192 9.37509C54.1272 9.62895 56.017 9.4174 56.6799 9.41387L56.6622 9.79113C55.9923 10.1367 54.5186 9.57606 54.7618 11.4694C54.85 12.1499 54.3564 12.2133 54.2436 14.6426C54.2153 15.2596 54.0179 16.5571 54.5679 16.8039C55.0651 16.5818 54.8253 15.792 54.8747 14.5615C54.9029 13.8458 54.9064 12.8374 55.2942 12.3226C55.8055 12.4742 56.0417 12.4672 56.634 12.5694L56.6446 13.3134L55.9994 13.3909C55.9994 12.9643 56.0523 12.9749 55.8619 12.714C55.192 12.781 55.3542 13.9974 55.4494 14.4945C55.5657 15.1327 56.0911 15.4747 56.8315 15.457C57.593 15.4394 58.1536 15.249 58.3264 14.5968C58.4815 14.0044 58.5168 12.9608 58.1995 12.5624C57.7164 12.6047 57.8257 12.8621 57.8011 13.331L57.2898 13.2993C57.0924 12.3685 57.3815 12.5307 58.4886 12.3403C58.8094 13.9515 58.9011 14.1455 58.9646 15.859C58.9822 16.3773 58.8553 16.7581 59.3383 16.8497C59.9059 16.4231 59.3207 13.0172 59.155 12.4813C58.9646 11.8643 58.9258 12.1217 59.1091 11.5082C59.3453 10.7149 59.1514 10.0767 58.2629 9.90043C57.653 9.77703 57.1946 9.98857 57.2933 9.54785C57.3357 9.35746 57.4837 9.38919 57.9597 9.39272C58.2312 9.39272 58.4992 9.39272 58.7706 9.39272C59.3312 9.39272 59.9729 9.5267 60.114 9.06482C59.7649 8.60647 58.1642 8.78629 57.2933 8.79686C57.2969 7.82375 57.526 8.57474 58.3405 7.98594C58.6755 7.74266 58.8658 7.18206 58.6296 6.71666L58.27 6.71313C58.0479 7.21379 58.3758 7.78144 56.9126 7.77087C55.199 7.75676 56.017 7.18559 55.3753 6.87179Z" fill="#FEFEFE"/>
<path fill-rule="evenodd" clip-rule="evenodd" d="M39.8938 63.5802C37.7572 64.0279 37.1437 65.4982 36.8334 67.1694C36.7629 67.5326 36.4386 68.9076 36.8546 69.165C37.4328 69.4012 37.3764 68.4352 37.4364 67.9345C37.6232 66.3408 38.1204 64.8107 39.8973 64.3594C39.9467 68.3505 39.5835 69.9724 37.3482 73.0292C37.1825 73.2549 36.7453 73.6392 36.9568 73.9636C37.1472 74.1998 37.3658 74.1152 37.6479 73.8155C38.0745 73.3677 38.6845 72.4968 39.0124 71.9433C39.506 71.1077 39.855 70.2227 40.1547 69.2884L40.3134 68.9358C40.324 68.9217 40.3381 68.897 40.3522 68.8794C40.7999 70.8433 41.5545 72.3629 42.7744 73.8225C43.0952 74.2068 43.2116 74.2703 43.4055 74.0693C43.8109 73.6533 42.8837 72.8565 42.45 72.042C40.8951 69.1051 40.6554 68.0579 40.6166 64.3135C41.8189 64.4722 42.5135 65.2055 42.8625 66.2139C43.0494 66.7569 43.1657 67.2716 43.2433 67.8499C43.3773 68.8195 43.1234 69.4259 43.8427 69.3977C44.4773 68.4598 43.55 65.7238 42.7567 64.6203C42.1715 63.8023 40.8105 63.6683 40.7118 63.5943C40.4121 63.3757 40.7506 61.5881 40.5249 60.622C39.5201 60.4599 39.9573 61.7609 39.8938 63.5802Z" fill="#FEFEFE"/>
<path fill-rule="evenodd" clip-rule="evenodd" d="M11.3105 57.4347C11.5255 57.0857 11.4339 56.5744 11.7371 56.1443C12.0932 55.6401 12.407 55.8446 13.0205 55.9504C13.842 56.0914 15.2875 55.9539 15.2311 54.6176C15.7353 54.3426 16.5321 54.1663 16.1831 53.3766C15.9222 52.9817 15.4391 53.165 15.0302 52.7278C14.5365 52.206 15.0407 51.8534 14.7375 51.3175C13.9724 50.9614 13.6939 52.2589 12.4634 51.9733C12.1531 51.2082 12.6044 50.1716 13.1615 49.8896C14.0676 49.4277 14.466 50.6053 15.5308 50.3761C16.7507 48.7966 13.5987 49.3678 12.6961 48.6943C12.5269 47.2629 14.0606 45.7785 15.217 46.318C15.5625 46.4802 15.6507 46.9949 16.2254 46.8151C16.5674 45.4788 13.6198 45.3413 12.4987 46.7164C10.9931 48.5674 10.7887 52.7772 12.9711 53.9019C13.2426 54.0394 13.842 54.2298 13.5 54.667C13.225 55.0196 12.1179 54.4978 11.388 55.3968C11.0249 55.8446 10.5136 57.1421 11.3105 57.4347Z" fill="#0E77B9"/>
<path fill-rule="evenodd" clip-rule="evenodd" d="M46.9277 15.8837C47.1322 15.3901 47.6223 15.0587 48.0806 14.0715L48.3803 14.5263C48.754 15.2667 49.0572 15.4465 49.223 15.8344C48.4191 16.0142 47.7351 16.0001 46.9277 15.8837ZM47.7668 8.01067L47.7774 11.2473C47.7739 12.1958 47.8937 13.0173 47.5271 13.8282C47.1921 14.5721 46.7725 14.9388 46.3918 15.5065C45.3622 14.3147 46.3283 8.5889 45.7536 8.03535C45.2494 8.10939 45.3552 8.46197 45.3305 9.00494C45.2635 10.3835 45.2036 14.3077 45.5385 15.2667C45.9581 16.469 46.6597 16.5113 47.7739 16.5466C51.1586 16.6559 50.7426 15.1045 50.739 11.7304C50.739 10.9864 50.8025 8.31741 50.5028 7.88374C49.78 7.83085 50.1432 8.81102 50.1432 10.4364C50.1432 11.7445 50.3089 14.5792 49.7941 15.51C47.936 13.5602 48.3591 11.4871 48.3627 8.8216C48.3627 8.56421 48.3909 7.47123 48.2957 7.31609C48.1652 7.10102 47.9572 7.12217 47.8338 7.32667C47.7386 7.4818 47.7668 7.82733 47.7668 8.01067Z" fill="#FEFEFE"/>
<path fill-rule="evenodd" clip-rule="evenodd" d="M17.8614 34.0307C17.5687 33.8086 17.262 33.4454 17.6886 33.0717C19.0707 31.8623 19.4233 33.0611 18.9402 33.597C18.7675 33.7874 18.2457 34.0483 17.8614 34.0307ZM16.9834 31.813C17.0504 32.2607 17.4947 32.222 17.7944 32.5146C17.6569 33.0999 17.1985 32.7508 17.1774 33.5582C17.1597 34.3374 17.3572 34.3974 16.8459 34.8134C16.2325 35.3105 15.4815 36.125 15.0302 36.3224C14.868 36.2449 14.3215 35.5503 14.3955 37.2814C14.7164 37.4754 14.8398 37.6023 15.3651 37.5282C15.6084 36.9324 16.1373 35.5503 16.7613 35.6349C16.7966 35.9275 16.719 36.1602 16.8918 36.4247C17.0857 36.3506 17.0152 36.4035 17.1245 36.2237C17.2796 35.9734 17.4771 34.8346 18.4854 34.6406C18.5454 34.9932 18.5101 35.106 18.7499 35.3035C19.2329 35.1483 18.9649 34.6195 19.4374 34.1717C19.6278 33.9954 20.28 33.456 20.6291 33.5371C20.7384 33.8156 20.1461 34.5807 19.9557 34.9297C19.8464 35.1378 19.6701 35.4727 19.6172 35.716C19.5361 36.0897 19.5678 36.3612 19.3951 36.6256C18.4643 36.7878 19.4656 36.0968 17.3678 36.8725C17.0116 37.0029 16.9588 36.95 16.9552 37.3661C17.2761 37.5635 17.9001 37.5847 18.3338 37.4965C18.5771 37.1651 18.3373 37.1087 18.7499 36.9077C18.9473 36.9959 19.0002 36.9042 19.2047 37.5529C20.3964 37.6023 20.1531 37.1686 20.816 35.4692C21.1439 34.6336 22.1029 33.2515 21.9477 32.9377C21.0063 32.0069 20.548 33.5441 19.7829 33.1845C19.663 32.9306 19.7406 32.9024 19.663 32.6451C19.5573 32.296 19.5326 32.5499 19.4726 32.1796C20.0614 31.8094 20.4387 31.4851 21.2567 31.2453C21.4717 29.6517 19.9662 30.9456 19.6313 31.1325C18.3796 31.8235 18.5665 31.6896 16.9834 31.813Z" fill="#FEFEFE"/>
<path fill-rule="evenodd" clip-rule="evenodd" d="M25.7764 51.3528C25.9174 51.649 25.928 51.4833 26.3934 51.8747C26.612 52.0615 26.8059 52.192 27.0069 52.3929C27.2995 52.6926 27.7402 53.2955 27.9941 53.7504C28.2761 54.2545 28.5159 54.8539 28.5088 55.5591C28.5053 56.1937 27.9694 57.2091 28.3149 57.5547C28.8297 58.0553 29.4114 56.9482 29.5525 56.4934C29.9756 55.136 29.7464 52.6574 29.7534 51.1942C29.757 50.4749 30.1342 49.1105 29.8275 48.7015C29.1752 48.7261 29.2457 49.5547 28.9848 50.0695C28.5159 49.8896 28.4806 49.4348 28.456 48.8495C28.4348 48.2995 28.5511 47.7142 28.4313 47.1748C27.3841 47.2559 27.8671 49.6922 28.0011 50.5137C28.1281 51.2929 28.2656 51.9558 27.2431 51.5891C26.7248 51.4057 26.0549 50.8698 25.7764 51.3528Z" fill="#0E77B9"/>
<path fill-rule="evenodd" clip-rule="evenodd" d="M15.2342 63.6118C14.321 63.4109 13.8027 63.6224 13.3549 62.8926C12.8543 62.0781 13.5771 61.8842 12.6357 61.0239C12.2866 60.7031 11.2324 60.2165 11.0632 60.0156C10.5449 59.4021 11.4898 58.8097 10.8234 57.9177C9.87854 58.1716 9.51891 59.2575 10.1606 60.4281C10.3968 60.8547 10.7247 61.1967 11.0279 61.5034C11.853 62.332 11.3276 61.9406 11.2677 62.7762C11.2219 63.4003 13.013 65.6462 14.6736 64.7436C15.139 64.4898 15.4422 64.2571 15.2342 63.6118Z" fill="#0E77B9"/>
<path fill-rule="evenodd" clip-rule="evenodd" d="M22.2471 61.0875C22.3 64.3524 23.541 62.3215 24.3343 62.5013C24.5952 63.4075 24.0452 63.961 25.3215 64.1056C26.2171 64.2078 27.021 64.1937 27.3101 63.485C27.088 62.5789 25.9985 62.9773 25.8857 62.2722C26.143 62.0606 27.1937 62.2193 26.6296 61.1016C26.4322 60.7067 25.9139 60.2977 25.3603 60.1884C24.5635 60.0298 24.1757 60.4881 23.8407 60.8125C23.1532 61.4683 23.0721 61.1369 22.2471 61.0875Z" fill="#FEFEFE"/>
<path fill-rule="evenodd" clip-rule="evenodd" d="M26.6932 33.4242C26.6332 33.805 26.7708 34.0201 27.1163 34.0871C27.6134 34.1787 27.4547 33.7239 27.966 34.1223C27.973 34.7957 27.0528 34.6864 26.6191 35.0214C26.7179 35.5749 27.2714 35.6631 27.832 35.448C28.0682 35.3563 28.1564 35.1941 28.3468 35.0778C28.5865 34.9262 28.8157 34.9368 29.059 34.8239C29.0942 34.3726 29.059 34.1964 29.3305 33.9566C29.5596 33.7486 29.817 33.6287 30.1379 33.738C30.2154 34.3021 30.0215 34.7182 29.951 35.2083C29.8346 35.9874 29.9404 35.9628 29.4715 36.4035C28.4702 36.3083 28.9074 35.6701 28.9179 35.5996C28.59 35.5538 28.2375 35.6313 27.9448 35.7265C27.3983 35.8993 27.6381 36.0685 27.7932 36.4035C27.483 36.5868 27.5676 36.3612 27.4759 36.7173C27.6804 36.9147 27.6169 36.7913 27.8955 36.9218V37.4894C28.6747 37.5353 28.2692 36.8936 28.717 36.5093C29.3587 36.541 29.3269 37.3554 30.0568 37.3554C30.293 36.7561 30.3071 35.8394 30.501 35.1307C30.6844 34.4819 30.9488 34.2316 31.0475 33.6463C31.0581 33.5758 31.0828 33.3854 31.0828 33.322C31.0722 33.0787 31.111 33.4031 31.0651 33.1668C30.843 32.0421 28.4984 34.6935 28.4702 33.7979C28.4596 33.4771 29.3199 32.8389 29.6055 32.6979C30.2225 32.3876 31.1216 32.2501 30.9664 31.6155C30.3071 31.3264 30.3635 32.021 29.6971 32.0703C29.7324 31.6084 29.9475 30.9526 29.5138 30.7094C29.0413 30.4449 28.9179 31.3969 28.8227 31.7459C28.449 33.121 28.1916 33.2938 26.6932 33.4242Z" fill="#FEFEFE"/>
<path fill-rule="evenodd" clip-rule="evenodd" d="M31.0863 51.5151C31.2661 52.393 32.5424 52.0792 30.1731 53.6446C30.0532 53.7222 30.0074 53.7116 29.9439 53.835C29.5385 54.6318 31.319 54.1664 32.1828 52.9818C33.2053 51.575 32.6764 51.0638 32.553 50.1858C33.2546 49.7099 33.6319 47.612 31.5305 46.6601C31.1568 46.4908 30.2859 46.0501 30.1343 46.512C29.9968 46.9386 30.8077 47.2982 31.0193 47.4957C31.5235 47.9646 31.3648 48.1198 31.46 48.9166C31.5199 49.3961 31.8584 49.7451 31.8514 50.3833C31.8443 51.0532 31.3824 51.0461 31.0863 51.5151Z" fill="#0E77B9"/>
<path fill-rule="evenodd" clip-rule="evenodd" d="M61.8418 33.1351C61.6514 32.92 61.6867 32.8918 61.6796 32.5886L62.6175 32.2783C62.4236 32.5675 62.1662 32.9518 61.8418 33.1351ZM62.0393 31.5097C62.0111 31.2664 61.9652 31.337 61.8982 31.0584C62.2226 31.1466 62.4201 31.4145 62.3707 31.8059C62.2473 32.2043 61.7008 32.2219 61.4575 32.3312C61.2319 32.4335 61.4787 32.028 61.6021 31.8693C61.729 31.7107 61.8982 31.6155 62.0393 31.5097ZM62.2967 30.8786C62.7797 30.7235 63.5307 30.3215 64.0102 30.3321C63.8621 30.9068 63.1534 31.4427 62.9243 31.9927C62.8291 31.8835 62.8819 31.9504 62.8008 31.7988C62.5082 31.2347 62.3636 31.136 62.2967 30.8786ZM60.9287 30.9773C61.0803 31.3828 61.3412 31.2382 60.8299 32.1373L60.5373 31.7142C60.3399 31.3475 60.0155 30.7058 59.7017 30.6882C59.7793 31.0126 59.9168 31.4075 60.0084 31.7636C60.0437 31.8976 60.0895 32.2783 60.1424 32.3665C60.2517 32.5639 60.3434 32.3876 60.5831 32.5146C60.5056 32.9482 60.2552 33.128 60.1001 33.3749C60.5444 33.3854 60.6889 32.9976 60.9533 32.786C61.3271 32.9835 61.8982 33.2197 61.246 33.537C58.9331 34.6512 59.9626 34.4537 58.785 35.2365C58.919 34.764 59.2892 34.3867 59.4232 33.9883C59.2222 34.1294 58.9719 34.5172 58.8238 34.7499C58.6686 35.0038 58.4183 35.2752 58.4818 35.7124C59.5007 35.8499 59.0953 34.5983 60.7206 33.9778C60.8934 33.9108 61.2495 33.7345 61.4082 33.6922C61.9476 33.5511 61.7184 33.8367 62.2755 33.5124C62.4765 33.396 63.3438 33.0822 63.6365 33.0893C64.0878 33.1034 63.3368 33.0223 63.7528 33.1104L61.2777 34.2175C61.5562 34.355 61.93 34.1893 62.2261 34.1082C62.5611 34.013 62.9101 33.9848 63.2345 33.9037C63.6647 33.7944 64.9128 33.2832 64.4615 32.8848C64.1583 32.5146 63.164 32.9553 62.7409 33.0364C62.9666 32.4476 63.7775 31.3123 64.1829 30.8892C64.3663 30.7023 64.6342 30.5296 64.5637 30.1206C63.5554 29.8949 62.0992 30.9174 61.4998 30.995C61.6832 30.6494 61.7643 30.727 62.2015 30.4414C62.473 30.2651 62.681 30.1029 62.8255 29.8456C62.7303 29.3978 62.4941 29.2074 62.0499 29.1157C62.2191 29.775 62.1168 29.6763 61.7784 30.184C61.595 30.4555 61.4893 30.6953 61.1684 30.868L60.9287 30.9773Z" fill="#FEFEFE"/>
<path fill-rule="evenodd" clip-rule="evenodd" d="M51.4727 33.1564C51.6702 33.6782 52.0333 33.7135 52.259 34.0484C52.0615 34.5491 51.8041 34.7536 51.5432 35.1485C50.9368 36.0652 50.274 36.8232 49.3996 37.4508L48.9483 37.7399C48.8354 37.8245 48.8883 37.7716 48.8037 37.8668C49.7803 37.814 50.3268 37.204 51.0003 36.7915C51.4198 36.5376 51.5573 36.3543 51.8641 36.0334C52.1532 35.7302 52.3295 35.4517 52.6256 35.2014C53.2462 35.6844 53.2955 36.3014 53.7645 36.7915C54.0395 37.0841 54.4132 37.2146 54.7799 36.929C54.9562 36.795 54.8857 36.7421 55.1713 36.594C55.404 36.4742 55.4991 36.5129 55.6225 36.3155C55.1501 36.0863 54.6494 36.379 53.9302 35.8995C53.6199 35.6914 53.0769 35.2296 52.8125 34.9404C53.4119 33.0436 54.8575 33.8792 55.1889 32.9167C54.6988 32.617 54.3568 32.8884 53.8949 32.9308C54.0712 32.0881 55.1536 31.1855 54.0818 30.6919C53.969 30.8047 53.4507 32.1516 53.2814 32.4407C53.1122 32.7298 52.9148 33.107 52.7385 33.1881C52.3224 33.3785 51.8535 33.2234 51.4727 33.1564Z" fill="#FEFEFE"/>
<path fill-rule="evenodd" clip-rule="evenodd" d="M45.5101 36.0967C45.2633 35.8041 45.422 35.1095 45.429 35.0954L45.7992 34.7675L45.7287 35.8676C45.6476 36.1461 45.7358 36.0227 45.5101 36.0967ZM44.8649 34.1223C44.9248 33.9531 45.0059 33.8755 45.08 33.7592C45.0976 34.2069 45.0236 33.9954 44.8649 34.1223ZM45.2986 33.3502C45.6335 33.1845 45.7781 32.9377 46.173 32.8248C46.2364 33.3995 46.0037 33.9354 45.8874 34.5066C45.697 34.2281 45.7675 34.3444 45.4819 34.1822L45.2986 33.3502ZM46.1659 30.8257C46.1729 30.8187 46.1871 30.8398 46.1871 30.8504C46.1871 30.8539 46.1941 30.8574 46.1941 30.8574C46.1906 30.8574 46.0707 30.9526 46.1659 30.8257ZM43.4229 32.2501C44.9425 32.6521 45.2563 31.21 46.1765 30.8998C45.9685 31.4145 45.7181 31.1466 45.7428 31.7741C45.7604 32.2113 45.9156 31.894 45.2986 32.5251C45.4995 32.6098 45.6511 32.5251 45.912 32.511C45.5947 32.8213 44.7979 33.3043 44.4735 34.0765L44.3431 33.812C44.0645 33.9601 44.0117 34.3339 43.8636 34.831C43.6908 35.4233 43.7578 35.6243 44.0222 35.998C44.9213 35.9028 43.9447 34.9967 44.8649 34.1223C44.9883 34.5525 44.6251 34.8345 44.5617 35.2752L44.9495 35.3881L44.9001 36.3788C45.3479 36.4105 45.013 36.3118 45.4255 36.2448C45.5771 36.5692 45.4995 36.6362 45.9261 36.6291C46.2012 36.1214 46.2399 34.147 46.5291 33.537C46.6842 33.2021 46.8852 33.0152 46.8605 32.6133C46.4444 32.3524 46.4339 32.5005 45.912 32.511C46.1765 32.2537 46.3351 32.3559 46.5114 31.9469C46.3739 31.6331 46.381 31.8094 46.2681 31.5414C46.4832 31.3405 46.596 31.0937 46.7864 30.8786C47.0156 30.6142 47.2272 30.5119 47.1108 30.0183C46.4973 29.8914 45.8098 30.4872 45.0941 30.9632L43.6027 32.0597C43.3664 32.2395 43.5145 32.0139 43.4229 32.2501Z" fill="#FEFEFE"/>
<path fill-rule="evenodd" clip-rule="evenodd" d="M31.139 58.5489C31.4245 58.8627 31.6819 58.9156 32.2037 58.8134C32.3342 58.4855 32.2178 58.3585 32.4717 58.1258C32.7079 57.9108 33.5682 57.5829 34.1006 56.6768C34.8022 55.478 34.3721 54.4767 33.1663 54.1594C32.6938 54.0324 31.7207 53.8315 31.6008 54.3603C31.4175 55.1642 33.1733 55.3863 31.9534 57.2832C31.6502 57.7592 31.1248 57.9989 31.139 58.5489Z" fill="#0E77B9"/>
<path fill-rule="evenodd" clip-rule="evenodd" d="M57.7764 51.9734L61.0024 51.8994L61.0271 49.8333L57.8257 49.8403L57.7764 51.9734Z" fill="#FEFEFE"/>
<path fill-rule="evenodd" clip-rule="evenodd" d="M67.4264 24.4723C67.5568 24.6028 67.3876 24.5111 67.5956 24.5675L74.8834 24.5816L74.9856 28.46L45.4185 28.5164L45.408 24.5887C46.6173 24.5358 52.5018 24.7474 53.0413 24.5217C53.1823 24.3983 53.1223 22.8858 53.1223 22.6495C53.1223 22.1171 53.1788 21.2181 53.0836 20.735C52.2515 20.4671 46.4551 20.862 45.2881 20.6257C45.3903 20.862 45.4996 20.7597 46.159 20.7597L53.0377 20.7632V24.5217C52.2092 24.4582 45.7218 24.4195 45.3304 24.5675L45.3198 28.5411C46.0285 28.6856 65.8468 28.5552 67.5851 28.5552C69.9473 28.5517 72.6868 28.6715 75.0068 28.527C75.1232 28.1286 75.0244 25.1246 74.961 24.5711C74.2206 24.2749 68.8191 24.6839 67.4264 24.4723Z" fill="#A0C4E3"/>
<path fill-rule="evenodd" clip-rule="evenodd" d="M36.7697 34.6866C36.4594 34.4645 36.4241 34.2353 35.8741 34.0872C35.9799 34.4257 36.3184 34.7783 36.5158 35.1027C36.3642 35.6879 35.8177 36.2309 35.4722 36.6223C34.3968 37.8351 34.5872 37.2428 33.9385 37.7012C35.4863 37.814 36.4523 36.2591 36.9424 35.8466C37.4607 36.4319 37.6828 37.948 38.7935 37.8563C39.0156 37.8387 39.7454 37.7012 39.8935 37.6095C39.6537 37.331 39.5303 37.412 39.1672 37.2428C38.7371 37.0383 37.6828 35.8572 37.4607 35.3424C37.6053 35.1379 37.9014 35.0075 37.7745 34.5844C37.6934 34.3094 37.4396 34.0203 37.1011 33.9885C36.9706 34.3235 36.953 34.4292 36.7697 34.6866Z" fill="#FEFEFE"/>
<path fill-rule="evenodd" clip-rule="evenodd" d="M57.8789 22.9775C58.3619 23.1608 59.134 24.0952 58.3443 24.3525C57.9353 24.4865 57.7096 24.2327 57.6567 23.9259C57.5827 23.5205 57.759 23.2102 57.8789 22.9775ZM58.4782 22.1948C57.8225 21.9656 57.3324 20.7704 58.4818 21.0101C58.7074 21.4579 58.6263 21.7258 58.4782 22.1948ZM58.7497 22.5191C58.8696 22.2829 58.7427 22.5015 58.8696 22.3534C59.0318 22.1595 59.5148 21.8775 59.194 21.2569C58.8273 20.5518 57.1314 20.5588 56.9939 21.6095C56.9199 22.2159 57.3888 22.4345 57.5721 22.7307C57.3147 23.0198 56.733 23.3195 56.9727 23.9577C57.1349 24.3843 57.6779 24.6029 58.2879 24.5606C59.5183 24.4795 59.8991 23.2208 58.7497 22.5191Z" fill="#0E77B9"/>
<path fill-rule="evenodd" clip-rule="evenodd" d="M61.8841 22.861C61.2812 23.0478 61.2036 22.593 61.1895 22.0042C61.1754 21.4189 61.1014 20.9958 61.6972 20.9641C62.0286 21.3026 62.0251 22.5507 61.8841 22.861ZM61.327 23.478C59.6664 22.9914 60.2552 25.0752 61.8806 24.4687C62.7268 24.1549 63.0476 22.8998 62.7232 21.7645C62.3918 20.5939 60.9639 20.4388 60.4738 21.2814C60.227 21.7116 60.2305 22.385 60.5161 22.7587C60.851 23.1959 61.3164 23.1501 61.9652 23.0725C61.9687 23.6966 61.9123 24.6803 61.1825 24.3559C61.0978 23.9751 61.5209 24.2396 61.327 23.478Z" fill="#0E77B9"/>
<path fill-rule="evenodd" clip-rule="evenodd" d="M64.9166 24.3843C64.5993 24.2186 64.5711 23.9189 64.5464 23.457C64.5288 23.1256 64.4019 22.4557 64.8955 22.5403C65.241 22.5967 65.3009 23.0516 65.3045 23.457C65.3045 23.9436 65.2939 24.2609 64.9166 24.3843ZM64.557 22.3781C64.5782 21.5954 64.4935 20.8867 65.3256 20.9396C65.2657 21.3733 64.9378 21.3521 65.0929 21.7259C65.1881 21.9515 65.5654 22.0432 65.8404 21.8881C67.1555 21.1582 63.4675 19.3107 63.6861 22.974C63.7602 24.1974 64.7192 25.1212 65.7452 24.2856C66.2811 23.8449 66.6548 22.0714 64.557 22.3781Z" fill="#0E77B9"/>
<path fill-rule="evenodd" clip-rule="evenodd" d="M59.5501 36.1534C59.878 37.0172 60.8158 36.0159 61.5069 35.8396L61.3235 37.6589C60.5866 37.8211 59.7933 37.3557 59.2539 37.264C59.3985 37.5778 59.9097 37.7329 60.4421 38.0361C60.8229 38.2547 61.3694 38.6884 61.8418 38.5579C62.1909 38.1031 61.9687 36.1745 61.7854 35.688C62.1803 35.7514 62.9101 35.9418 63.4073 35.4623C63.1217 34.7007 62.2825 35.2085 62.1415 35.2472C60.4033 35.7232 61.0062 35.6915 60.153 35.9982C59.8956 36.0899 59.7123 36.0511 59.5501 36.1534Z" fill="#FEFEFE"/>
<path fill-rule="evenodd" clip-rule="evenodd" d="M40.0274 48.8355C39.4703 49.1069 38.9626 49.3432 39.0754 50.1964C39.1177 50.4961 39.3398 50.8769 39.4844 50.9967C40.5104 51.85 41.2896 50.7711 41.2508 49.8967C41.2226 49.2903 40.588 48.564 40.0274 48.8355Z" fill="#0E77B9"/>
<path fill-rule="evenodd" clip-rule="evenodd" d="M54.268 24.4266C54.5078 24.5465 55.9181 24.5465 56.1578 24.4266C55.9004 23.859 55.6854 25.0471 55.6854 22.8894C55.6854 22.2195 55.6959 21.539 55.6818 20.8691C54.8639 20.7845 55.0366 20.9079 54.878 21.0207C54.4937 21.2887 54.5289 21.0665 54.2539 21.2746C54.268 21.2851 54.2962 21.2992 54.3068 21.3028C54.3174 21.3098 54.3456 21.3274 54.3597 21.3345L54.6982 21.4614C54.7863 21.9621 54.7405 22.6849 54.7405 23.2137C54.751 24.8074 54.4866 23.9295 54.268 24.4266Z" fill="#0E77B9"/>
<path fill-rule="evenodd" clip-rule="evenodd" d="M47.3824 37.3662L46.7019 37.345C45.9157 37.4402 45.4891 37.2393 44.6887 36.9713L42.0938 36.2732C42.2418 36.7668 42.5345 36.6469 43.423 37.0242C45.0096 37.6976 45.5772 38.5262 46.1484 38.1736C46.3811 38.029 46.3529 37.9162 46.7266 37.7716C47.1885 37.5989 47.2237 37.6729 47.3824 37.3662Z" fill="#FEFEFE"/>
<path fill-rule="evenodd" clip-rule="evenodd" d="M25.0718 54.8256C24.9696 54.8996 24.8462 54.9525 24.8109 55.1781C24.7651 55.4637 24.8497 55.499 25.0648 55.5484C25.5125 55.6506 25.5478 55.4461 26.1225 55.707C26.5209 55.8868 27.4059 56.4157 27.8924 56.2112C28.7633 55.8445 27.3142 55.3262 26.9757 55.1746C26.5526 54.9878 25.5337 54.4977 25.0718 54.8256Z" fill="#0E77B9"/>
<path fill-rule="evenodd" clip-rule="evenodd" d="M35.998 31.9504C36.3647 32.1655 37.0946 31.8024 37.5071 31.7248L37.5282 31.7918C37.6693 32.0315 38.0924 31.7777 38.3991 31.6261C39.2488 31.2065 39.3264 31.4075 39.4075 31.0584C39.0514 30.6353 38.4943 31.0443 37.9936 31.1113L37.9125 30.9949C37.6481 30.5613 37.4507 30.3145 36.6538 30.2898C36.7385 30.7235 37.017 30.868 36.8266 31.3369C36.6891 31.6754 36.3577 31.8094 35.998 31.9504Z" fill="#FEFEFE"/>
<path fill-rule="evenodd" clip-rule="evenodd" d="M46.9277 15.8835C47.7351 15.9999 48.4191 16.014 49.223 15.8342C49.0573 15.4463 48.7541 15.2665 48.3804 14.5261L48.0807 14.0713C47.6223 15.0585 47.1322 15.3899 46.9277 15.8835Z" fill="#0E77B9"/>
<path fill-rule="evenodd" clip-rule="evenodd" d="M36.3752 32.7543C36.2236 32.8777 35.4585 33.5194 35.4198 33.6746L35.4092 33.805C35.4092 33.8262 35.4162 33.8579 35.4162 33.8755C35.4198 33.8932 35.4233 33.9214 35.4303 33.946C35.7406 33.946 36.3224 33.6287 36.6855 33.4665C37.3871 33.1563 37.1615 32.987 37.641 32.7191C37.7573 32.92 37.6375 32.7297 37.6974 33.0082C37.7432 33.2197 37.6692 33.0505 37.7503 33.1915L38.4731 33.1104C38.5506 32.6944 38.5965 32.6274 38.258 32.4934C37.6516 32.2537 37.2884 32.645 36.9887 32.8143C36.6573 32.9976 36.5903 32.8813 36.4281 32.7896C36.414 32.7825 36.3964 32.7614 36.3752 32.7543Z" fill="#FEFEFE"/>
<path fill-rule="evenodd" clip-rule="evenodd" d="M17.8618 34.0308C18.2461 34.0484 18.7679 33.7875 18.9407 33.5971C19.4237 33.0612 19.0711 31.8624 17.689 33.0718C17.2624 33.4455 17.5692 33.8087 17.8618 34.0308Z" fill="#0E77B9"/>
<path fill-rule="evenodd" clip-rule="evenodd" d="M26.824 37.7504C27.0144 37.4049 27.0884 36.8655 26.8804 36.4318L26.1999 35.5327C25.9919 36.0016 25.604 37.895 26.824 37.7504Z" fill="#FEFEFE"/>
<path fill-rule="evenodd" clip-rule="evenodd" d="M56.0166 13.9691C56.0237 14.7024 56.1682 14.8893 56.9086 14.8787C57.6349 14.8682 57.7971 14.5896 57.8324 13.9021C57.0743 13.8386 56.7359 13.8986 56.0166 13.9691Z" fill="#0E77B9"/>
<path fill-rule="evenodd" clip-rule="evenodd" d="M61.8837 22.861C62.0247 22.5507 62.0283 21.3026 61.6968 20.9641C61.101 20.9958 61.175 21.4189 61.1891 22.0042C61.2032 22.593 61.2808 23.0478 61.8837 22.861Z" fill="#FEFEFE"/>
<path fill-rule="evenodd" clip-rule="evenodd" d="M62.2969 30.8787C62.3639 31.1361 62.5084 31.2348 62.8011 31.799C62.8822 31.9506 62.8293 31.8836 62.9245 31.9929C63.1536 31.4429 63.8623 30.9069 64.0104 30.3322C63.5309 30.3217 62.7799 30.7236 62.2969 30.8787Z" fill="#0E77B9"/>
<path fill-rule="evenodd" clip-rule="evenodd" d="M64.9163 24.3843C65.2935 24.2609 65.3041 23.9435 65.3041 23.457C65.3006 23.0515 65.2406 22.5967 64.8951 22.5403C64.4015 22.4557 64.5284 23.1256 64.5461 23.457C64.5707 23.9189 64.5989 24.2185 64.9163 24.3843Z" fill="#FEFEFE"/>
<path fill-rule="evenodd" clip-rule="evenodd" d="M57.8794 22.9775C57.7595 23.2102 57.5832 23.5205 57.6572 23.926C57.7101 24.2327 57.9358 24.4866 58.3448 24.3526C59.1345 24.0952 58.3624 23.1609 57.8794 22.9775Z" fill="#FEFEFE"/>
<path fill-rule="evenodd" clip-rule="evenodd" d="M57.8261 49.8402L61.0275 49.8331L61.0028 51.8992L57.7767 51.9733L57.8261 49.8402ZM57.7203 49.8084L57.6533 51.6841C57.6709 51.8252 57.5899 52.0649 58.1187 52.0896L61.0909 51.9098C61.1192 51.455 61.105 51.0001 61.1121 50.5453C61.1227 49.752 61.2602 49.7626 60.4704 49.7732C60.1425 49.7767 57.7802 49.7661 57.7203 49.8084Z" fill="#358EC7"/>
<path fill-rule="evenodd" clip-rule="evenodd" d="M45.2988 33.3503L45.4822 34.1824C45.7678 34.3446 45.6972 34.2282 45.8876 34.5067C46.004 33.9356 46.2367 33.3997 46.1732 32.825C45.7783 32.9378 45.6338 33.1846 45.2988 33.3503Z" fill="#0E77B9"/>
<path fill-rule="evenodd" clip-rule="evenodd" d="M60.3965 34.7992C60.5622 35.2364 60.7279 35.0037 61.144 35.1448C61.2956 35.1941 61.0347 35.1977 61.4401 35.2611C61.8209 35.1483 62.0853 34.9896 62.0959 34.5348C61.4613 34.288 62.0219 34.7287 60.3965 34.7992Z" fill="#FEFEFE"/>
<path fill-rule="evenodd" clip-rule="evenodd" d="M58.4781 22.1948C58.6262 21.7259 58.7073 21.4579 58.4816 21.0101C57.3322 20.7704 57.8223 21.9656 58.4781 22.1948Z" fill="#FEFEFE"/>
<path fill-rule="evenodd" clip-rule="evenodd" d="M58.5421 11.1871C58.6584 10.9086 58.6161 10.8451 58.5562 10.556C58.1578 10.3974 57.7981 10.3974 57.2939 10.3762C57.2975 10.9791 57.3186 10.7605 57.8933 10.9157C58.1507 10.9862 58.4328 11.1871 58.5421 11.1871Z" fill="#0E77B9"/>
<path fill-rule="evenodd" clip-rule="evenodd" d="M55.3825 11.1485L56.6553 10.7536L56.6659 10.3975C55.996 10.4116 55.2556 10.3798 55.3825 11.1485Z" fill="#0E77B9"/>
<path fill-rule="evenodd" clip-rule="evenodd" d="M62.0396 31.5099C61.8986 31.6157 61.7294 31.7109 61.6024 31.8695C61.479 32.0282 61.2322 32.4336 61.4579 32.3314C61.7011 32.2221 62.2476 32.2045 62.371 31.8061C62.4204 31.4147 62.223 31.1467 61.8986 31.0586C61.9656 31.3371 62.0114 31.2666 62.0396 31.5099Z" fill="#0E77B9"/>
<path fill-rule="evenodd" clip-rule="evenodd" d="M59.4797 33.1456C60.2836 33.061 59.7688 32.2853 59.381 31.9856C59.1871 31.8411 59.3563 31.9433 59.1377 31.8481C59.1588 32.3946 59.2823 32.7966 59.4797 33.1456Z" fill="#FEFEFE"/>
<path fill-rule="evenodd" clip-rule="evenodd" d="M42.7288 34.0977C42.7006 34.3832 42.7746 34.5807 42.8557 34.8416C42.9615 35.1801 42.8028 35.032 43.0426 35.1448C43.3246 35.2717 43.7125 35.0743 43.2823 34.4185C43.1554 34.2246 43.0179 34.14 42.7288 34.0977Z" fill="#FEFEFE"/>
<path fill-rule="evenodd" clip-rule="evenodd" d="M45.5108 36.0968C45.7365 36.0228 45.6483 36.1462 45.7294 35.8676L45.7999 34.7676L45.4297 35.0955C45.4227 35.1096 45.264 35.8042 45.5108 36.0968Z" fill="#0E77B9"/>
<path fill-rule="evenodd" clip-rule="evenodd" d="M55.9641 11.8571L56.6234 11.9135L56.6163 11.3564L56.3131 11.3988C55.9464 11.4411 55.7772 11.5433 55.6221 11.8113L55.9641 11.8571Z" fill="#0E77B9"/>
<path fill-rule="evenodd" clip-rule="evenodd" d="M57.2754 11.9242C57.6773 11.9136 57.8642 11.9277 58.1427 11.7303C58.0299 11.5363 58.1286 11.5751 57.8289 11.4658C57.6456 11.3988 57.4693 11.3777 57.2789 11.3459L57.2754 11.9242Z" fill="#0E77B9"/>
<path fill-rule="evenodd" clip-rule="evenodd" d="M61.8419 33.1351C62.1662 32.9517 62.4236 32.5674 62.6175 32.2783L61.6797 32.5886C61.6867 32.8918 61.6515 32.92 61.8419 33.1351Z" fill="#0E77B9"/>
<path fill-rule="evenodd" clip-rule="evenodd" d="M43.2152 36.4318L43.5008 36.4494C43.5361 36.3578 43.5713 36.386 43.5713 36.2308C43.5678 35.9593 43.3844 35.8289 43.1553 35.7161L43.2152 36.4318Z" fill="#FEFEFE"/>
<path fill-rule="evenodd" clip-rule="evenodd" d="M55.9639 11.8572C56.0661 12.0159 56.4328 11.9771 56.6479 11.9559L56.6796 11.3213L56.3129 11.3989L56.6161 11.3565L56.6232 11.9136L55.9639 11.8572Z" fill="#6BABD4"/>
</svg>
