<svg xmlns="http://www.w3.org/2000/svg" width="128" height="128" viewBox="0 0 128 128">
    <path d="M74.351 122.47c.73-2.936-2.013-5.706-3.838-3.88c-2.244 2.264-3.773 1.341-3.124-1.864c.376-1.932.188-3.021-.547-3.021c-1.933 0-1.235-2.83 1.11-4.488c1.235-.859 4.3-1.573 6.818-1.594c2.517 0 5.26-.483 6.081-1.09c1.17-.816.902-.944-1.18-.483c-1.482.338-3.94.129-5.422-.44c-2.04-.773-3.462-.644-5.77.505c-3.838 1.905-3.774 1.932-3.774-.42c0-1.341-.821-2.055-2.603-2.264l-2.577-.338l2.201-2.346c2.351-2.518 4.906-2.577 11.81-.354c4.508 1.449 4.127.021-.715-2.706c-4.573-2.56-7.697-6.103-19.313-21.847c-12.373-16.736-13.253-18.894-13.795-33.027l-.461-11.825l-6.42-7.525c-3.521-4.133-6.87-7.805-7.44-8.16c-.569-.332-3.317-.9-6.103-1.234c-5.727-.67-6.081-1.492-2.936-6.817c2.47-4.235 5.743-4.718 10.483-1.572c1.68 1.11 3.714 1.97 4.552 1.948c.945-.037.644-.483-.752-1.17c-1.261-.59-2.27-1.406-2.27-1.804c0-1.132 13.296-2.012 17.177-1.11c8.051 1.84 10.628 4.67 11.99 13.123c.924 5.722 1.53 6.876 5.68 10.778c2.539 2.41 7.214 5.62 10.38 7.129c3.168 1.508 7.59 4.235 9.856 6.038c5.325 4.235 13.672 16.436 16.522 24.112c1.235 3.334 2.748 6.646 3.355 7.402c1.658 1.992-1.004 3.355-5.304 2.684a74 74 0 0 0-8.577-.628c-2.791-.043-5.663-.569-6.393-1.154c-1.868-1.508-6.796-12.684-7.697-17.402c-1.573-8.39-4.59-11.487-15.201-15.62c-7.612-2.957-8.175-3.419-12.265-9.796c-3.758-5.85-4.466-10.252-1.61-10.038c2.93.226 2.136-3.693-1.031-5.207c-2.163-1.046-3.586-1.09-6.19-.225c-2.243.73-4.755.794-7.546.161c-2.287-.52-4.17-.708-4.17-.413c0 .268 2.345 3.06 5.222 6.183c8.384 9.184 9.055 10.671 8.298 18.578c-.44 4.574-.268 7.257.526 8.218c.65.779 1.09 1.804.988 2.265c-.107.484.564 2.56 1.465 4.633c.924 2.056 1.68 4.444 1.68 5.287c0 .859.71 1.551 1.59 1.551c1.18 0 1.384.59.858 2.265c-.606 1.885-.483 2.072.714 1.069c1.181-.967 1.68-.59 2.748 2.034c.714 1.76 1.74 4.278 2.266 5.599c.526 1.299 1.825 2.598 2.898 2.871c1.085.269 2.201 1.74 2.555 3.29c.333 1.53 1.45 3.694 2.453 4.778c1.004 1.095 2.158 2.963 2.534 4.154c.945 2.958 5.496 5.996 9.689 6.48c2.64.316 3.5.88 3.5 2.372c0 1.068.525 1.84 1.153 1.717c.65-.123 1.718.462 2.416 1.256c.665.822 1.696 1.493 2.281 1.493c.59 0 0-1.133-1.299-2.518s-2.093-2.807-1.739-3.167c.354-.333 1.847.8 3.312 2.56c2.936 3.479 6.312 5.658 7.3 4.67c.354-.332-1.406-2.361-3.88-4.524c-2.475-2.137-4.155-4.236-3.758-4.654c.424-.419 1.89.333 3.274 1.674c6.667 6.458 12.077 10.005 15.325 10.005c1.53 0 1.514-.187-.107-1.975c-.961-1.068-1.487-2.388-1.149-2.952a1.165 1.165 0 0 0-.376-1.616c-.547-.338-3.102-4.696-5.684-9.688c-2.577-4.992-5.534-9.517-6.586-10.086c-3.752-2.013-1.74-2.641 7.826-2.453l9.747.214l8.385 8.927c4.616 4.927 8.223 9.103 8.014 9.313c-.193.21-1.283-.108-2.416-.714c-2.79-1.508-3.06-1.406-2.453.923c.59 2.244-.692 2.663-2.512.816c-.67-.644-1.556-.837-1.975-.419c-.419.44 1.932 3.253 5.244 6.248c3.543 3.232 5.62 5.808 5.035 6.313c-1.326 1.127-22.797-.295-25.438-1.718c-1.176-.633-3.983-1.133-6.248-1.133c-3.42 0-4.106.333-4.106 1.986c0 4.053-3.296 10.048-7.698 14.074c-2.496 2.266-4.76 4.134-5.013 4.134c-.252 0-.188-1.074.15-2.351m4.842-6.565c-.44-1.342-.333-1.4.44-.29c.816 1.112 1.299.918 2.56-1.03c.838-1.32 1.675-3.312 1.863-4.402c.274-1.717-.145-1.97-2.705-1.68c-3.602.419-6.436 1.804-8.825 4.278c-2.163 2.265-2.222 2.936-.23 2.936c.837 0 2.286.902 3.21 1.992c1.969 2.286 4.589 1.009 3.687-1.804m-3.521-3.247c2.517-2.094 4.17-2.539 4.17-1.133c0 .816-4.444 3.226-5.85 3.167c-.376-.021.359-.944 1.68-2.04zm34.97-14.09c-.354-.57-1.09-1.01-1.631-1.01c-.57 0-.736.44-.376 1.01c.333.542 1.068 1.004 1.61 1.004c.57 0 .736-.462.397-1.004M107.52 85.84c2.748-1.052 1.766-2.416-1.3-1.782c-1.653.311-3.204.08-3.585-.548c-.945-1.508-2.872-1.406-2.346.124c.231.697 1.509 1.556 2.85 1.932c1.364.376 2.54.735 2.62.773c.107.064.902-.161 1.76-.5zm-9.501-5.346c0-.483-.709-1.181-1.59-1.514c-2.474-.94-2.806-.73-1.427.902c1.385 1.68 3.022 2.013 3.022.612zM85.082 68.058c-.73-.736-1.192-.795-1.192-.145c0 1.342 1.197 2.533 1.868 1.862c.29-.29-.021-1.068-.67-1.717zm2.727-3.275c-1.74-1.717-8.299-5.593-8.74-5.131c-.316.29-.375.692-.15.859c.231.166 1.74 1.32 3.334 2.539c2.394 1.798 7.112 3.29 5.555 1.739zM95 62.228c0-1.213-3.709-3.607-7.085-4.546c-2.265-.655-2.158-.424 1.025 2.367c3.543 3.124 6.066 4.026 6.066 2.18zm-9.914-16.37c-.735-.736-1.197-.8-1.197-.172c0 1.363 1.197 2.539 1.868 1.868c.29-.269-.021-1.047-.67-1.702zM77.83 40.57c0-.252-.462-.735-1.004-1.073c-.569-.333-1.009-.14-1.009.445c0 .59.44 1.074 1.01 1.074c.541 0 1.003-.194 1.003-.446m-13.564-4.133c-2.077-1.551-3.231-1.299-2.12.462c.36.612 1.428 1.073 2.372 1.052c1.487-.022 1.466-.215-.252-1.508zm-22.77-26.71a1.053 1.053 0 0 0-1.073-1.025c-.586 0-.795.456-.462 1.025c.36.548.843 1.004 1.073 1.004c.253 0 .462-.456.462-1.004m-19.19-1.025c0-.548-1.025-.988-2.281-.988c-1.825.022-1.976.21-.757.988c1.97 1.277 3.038 1.277 3.038 0M79.51 90.828c-.36-.376-.671-1.342-.671-2.158c0-1.175.29-1.218 1.503-.215c.843.698 1.535 1.664 1.535 2.147c0 1.047-1.406 1.17-2.367.226m-13.843-15.39c-1.905-1.61-3.102-3.311-2.662-3.773c.461-.461 1.304-.043 1.868.967c.547 1.003 2.093 2.222 3.435 2.742c1.342.505 2.458 1.385 2.458 1.954c0 1.718-1.406 1.192-5.099-1.889zM8.447 11.403L5.2 10.232l2.555-3.296c1.889-2.41 3.397-3.269 5.62-3.269c1.68 0 2.855.338 2.646.751c-.215.425-1.154 2.459-2.12 4.53c-.945 2.1-1.825 3.758-1.97 3.715a453 453 0 0 1-3.484-1.261z"/>
</svg>