<svg xmlns="http://www.w3.org/2000/svg" width="128" height="128" viewBox="0 0 128 128">
    <defs>
        <linearGradient id="deviconGrpc0" x1="64.014" x2="86.854" y1="34.66" y2="33.586"
                        gradientTransform="translate(-1.256 36.208)scale(.4556)" gradientUnits="userSpaceOnUse"
                        href="#deviconGrpc1"/>
        <linearGradient id="deviconGrpc1">
            <stop offset="0" stop-color="#00b5b2"/>
            <stop offset=".13" stop-color="#00b9b6"/>
            <stop offset=".275" stop-color="#1cbcba"/>
            <stop offset=".486" stop-color="#44c1bf"/>
            <stop offset=".646" stop-color="#57c4c3"/>
            <stop offset=".79" stop-color="#63c7c6"/>
            <stop offset=".901" stop-color="#6cc9c8"/>
            <stop offset="1" stop-color="#72cbca"/>
        </linearGradient>
        <linearGradient id="deviconGrpc2" x1="2.757" x2="41.697" y1="37.542" y2="41.545"
                        gradientTransform="translate(-1.256 29.83)scale(.4556)" gradientUnits="userSpaceOnUse"
                        href="#deviconGrpc3"/>
        <linearGradient id="deviconGrpc3">
            <stop offset="0" stop-color="#71caca"/>
            <stop offset=".122" stop-color="#66c7c7"/>
            <stop offset=".243" stop-color="#57c4c3"/>
            <stop offset=".4" stop-color="#34bebd"/>
            <stop offset=".52" stop-color="#00bab7"/>
            <stop offset=".595" stop-color="#00b6b3"/>
            <stop offset=".679" stop-color="#00b2ae"/>
            <stop offset="1" stop-color="#00b0ad"/>
        </linearGradient>
    </defs>
    <path fill="url(#deviconGrpc0)" d="m33.092 41.594l-5.184 5.222L33.131 52l5.183-5.223z"/>
    <path fill="url(#deviconGrpc2)" d="M8.838 38.03L0 46.935l8.937 8.838l8.804-8.904Z"/>
    <path fill="#fff"
          d="m13.788 41.52l-4.56.018l-5.352 5.392l5.391 5.352l4.561-.017l-4.782-4.745l23.619-.088l-2.07 2.084l2.28-.008l2.676-2.696l-2.696-2.676l-2.28.009l2.085 2.069l-23.619.087zm101.703 2.324q-3.772 0-6.996 1.338c-3.224 1.338-4.01 2.124-5.586 3.7q-2.364 2.363-3.7 5.61q-1.338 3.247-1.337 7.114q-.001 3.869 1.336 7.116t3.701 5.61q2.363 2.365 5.586 3.7q3.223 1.336 6.996 1.337q2.1 0 3.986-.477a16.5 16.5 0 0 0 3.51-1.313a13.4 13.4 0 0 0 2.889-1.982A13 13 0 0 0 128 73.162l-2.817-2.005q-.956 1.48-2.076 2.459a9.8 9.8 0 0 1-2.388 1.552q-1.266.573-2.578.811a15 15 0 0 1-2.65.239q-3.248 0-5.826-1.194q-2.579-1.193-4.369-3.2q-1.79-2.004-2.746-4.654a16.3 16.3 0 0 1-.954-5.564q0-2.911.954-5.562q.956-2.65 2.746-4.656t4.369-3.199q2.578-1.193 5.826-1.193q1.335 0 2.674.382q1.335.383 2.506 1.003t2.077 1.432q.907.812 1.433 1.623l3.007-2.244q-2.244-2.864-5.395-4.107q-3.15-1.24-6.302-1.24zm-71.527.86V78.51h3.438V62.8h5.73l9.263 15.71h4.202l-9.741-16.044q4.201-.382 6.423-2.793q2.22-2.41 2.22-5.944q0-4.536-2.984-6.781t-8.142-2.244zm28.553 0V78.51h3.439V62.8h6.398q5.156 0 8.14-2.268t2.984-6.803c-.001-4.536-.994-5.284-2.983-6.781q-2.985-2.244-8.141-2.244zm-25.115 3.152h6.112q2.291 0 3.891.452q1.6.455 2.555 1.266q.955.813 1.384 1.886q.43 1.075.43 2.269q0 1.241-.43 2.315a4.6 4.6 0 0 1-1.384 1.862q-.956.788-2.555 1.266q-1.6.477-3.891.477h-6.112zm28.554 0h5.538q2.291 0 3.891.452q1.6.455 2.555 1.266q.954.813 1.385 1.886a6 6 0 0 1 .43 2.269q0 1.241-.43 2.315a4.6 4.6 0 0 1-1.385 1.862q-.956.788-2.555 1.266q-1.6.477-3.891.477h-5.538zM22.669 55.59q-2.483 0-4.56.884a10.7 10.7 0 0 0-3.581 2.46a11.7 11.7 0 0 0-2.364 3.675q-.86 2.101-.86 4.537t.908 4.536a10.9 10.9 0 0 0 2.482 3.605a11.6 11.6 0 0 0 3.701 2.363q2.125.86 4.56.86a11.5 11.5 0 0 0 4.632-.955q2.196-.955 3.724-3.247h.095v4.011q0 1.814-.452 3.414a7.3 7.3 0 0 1-1.481 2.793q-1.027 1.193-2.698 1.887q-1.672.69-4.059.69q-2.721 0-4.942-1.12q-2.22-1.122-3.605-2.985l-2.34 2.483q2.15 2.291 4.776 3.39q2.626 1.098 5.968 1.098q3.771 0 6.112-1.145q2.34-1.147 3.653-2.865a9.55 9.55 0 0 0 1.766-3.772q.454-2.054.454-3.868V56.163h-3.152v3.725h-.095q-.954-1.29-2.053-2.125a10.5 10.5 0 0 0-2.22-1.313a10 10 0 0 0-2.245-.669a13 13 0 0 0-2.124-.19zm.382 2.865q1.958 0 3.533.693q1.576.692 2.674 1.862a8 8 0 0 1 1.672 2.721a9.5 9.5 0 0 1 .573 3.32q.046 1.957-.598 3.532a7.6 7.6 0 0 1-1.838 2.699a8.7 8.7 0 0 1-2.745 1.742a8.7 8.7 0 0 1-3.271.62q-1.768 0-3.271-.69a8.5 8.5 0 0 1-2.626-1.863a8.7 8.7 0 0 1-1.767-2.722a8.6 8.6 0 0 1-.645-3.319q0-1.766.645-3.319a8.7 8.7 0 0 1 1.767-2.72a8.6 8.6 0 0 1 2.626-1.863q1.504-.692 3.27-.693z"/>
</svg>