<?xml version="1.0" encoding="UTF-8" standalone="no"?>
<svg xmlns:dc="http://purl.org/dc/elements/1.1/" xmlns:cc="http://creativecommons.org/ns#" xmlns:rdf="http://www.w3.org/1999/02/22-rdf-syntax-ns#" xmlns:svg="http://www.w3.org/2000/svg" xmlns="http://www.w3.org/2000/svg" viewBox="0 0 566.93335 566.93335" height="566.93335" width="566.93335" xml:space="preserve" id="svg2175" version="1.1"><metadata id="metadata2181"><rdf:RDF><cc:Work rdf:about=""><dc:format>image/svg+xml</dc:format><dc:type rdf:resource="http://purl.org/dc/dcmitype/StillImage"/><dc:title/></cc:Work></rdf:RDF></metadata><defs id="defs2179"/><g transform="matrix(1.3333333,0,0,-1.3333333,0,566.93333)" id="g2183"><g transform="scale(0.1)" id="g2185"><path id="path2187" style="fill:#ba861c;fill-opacity:1;fill-rule:nonzero;stroke:none" d="M 4255.07,-2.35938 H 0.945313 V 4252 H 4255.07 V -2.35938"/><path id="path2189" style="fill:#ffffff;fill-opacity:1;fill-rule:nonzero;stroke:none" d="m 433.742,3694.18 h 1.293 v -656.63 h 144.211 v 857.77 H 464 L 331.25,3739.69 v -150.54 h 1.234 l 101.258,105.03"/><path id="path2191" style="fill:#ffffff;fill-opacity:1;fill-rule:nonzero;stroke:none" d="m 665.219,3718.16 v -103.71 h 131.558 v 107.56 c 0,51.84 25.356,67.02 55.664,67.02 27.883,0 51.891,-11.36 51.891,-64.55 v -70.78 c 0,-70.9 -6.297,-98.7 -53.18,-148.04 l -80.914,-86.05 C 691.809,3336.1 662.633,3280.43 662.633,3195.65 V 3037.49 H 1037.19 V 3155.2 H 800.551 v 40.45 c 0,67.07 24.058,92.37 60.719,131.59 l 92.375,97.41 c 74.665,79.69 91.135,130.35 91.135,216.37 v 83.46 c 0,122.76 -59.432,180.93 -188.518,180.93 -126.555,0 -191.043,-67.05 -191.043,-187.25"/><path id="path2193" style="fill:#ffffff;fill-opacity:1;fill-rule:nonzero;stroke:none" d="m 3215.75,2045.81 c -187.89,148.4 -436.82,151.44 -527.95,129.76 l -10.59,-2.46 c -105.28,-24.86 -272.52,-66.01 -468.27,-308.92 -1.08,-1.34 -2.22,-2.74 -3.25,-4.13 l -2.48,-2.99 c -1.91,-2.72 -3.25,-5.89 -3.25,-9.45 0,-2.95 0.72,-5.63 2.12,-8.14 l 4.54,-7.48 c 24.58,-41.11 55.56,-94 81.73,-142.74 0.26,-0.52 0.52,-0.91 0.73,-1.5 2.79,-5.4 8.36,-9.19 14.92,-9.19 4.54,0 8.62,1.8 11.57,4.69 1.24,1.61 2.48,3.28 3.56,4.99 173.75,240.28 310.37,273.45 402.8,295.19 l 11.05,2.61 c 47.97,11.51 230.34,10.81 362,-93.13 102.75,-81.11 154.9,-210.2 154.9,-383.61 0,-290.9 -141.47,-404.71 -260.23,-448.93 -183.92,-68.751 -360.3,23.16 -361.59,23.85 l -7.9,3.85 c -101.05,43.87 -251.82,135.13 -393.92,420.53 -286.41,575.23 -525.99,629.4 -684.51,665.31 l -8.47,1.88 c -72.18,16.37 -322.87,27.93 -519.9,-129.34 -102.958,-82.12 -225.59,-241.8 -225.59,-535.99 0,-179.25 36.816,-297.59 131.46,-422.11 20.754,-28.37 232.87,-300.868 642.95,-222.282 65.62,12.57 154.54,43.914 252.33,117.211 l 90.26,-81.43 c 5.88,-5.339 15.28,-4.898 20.7,1.039 2.58,2.762 3.67,6.301 3.62,9.782 v 1.211 l 65.11,400.529 0.05,4.44 c -0.05,3.9 -1.65,7.87 -4.85,10.66 -2.74,2.61 -6.15,3.61 -9.56,3.61 l -2.78,-0.25 -4.24,-0.44 -383.64,-107.4 -6.97,-1.14 c -2.79,-0.59 -5.37,-2.04 -7.33,-4.28 -5.58,-6.1 -5.06,-15.39 1.08,-20.81 l 4.49,-4.16 85.98,-77.63 c -55.51,-35.94 -103.89,-52.43 -140.81,-59.58 -296.69,-56.59 -443.18,137.73 -448.75,145.34 l -2.07,2.85 c -68.93,90.51 -92.214,167.42 -92.214,304.84 0,173.93 51.224,303.07 152.264,383.77 128.31,102.39 305.26,102.99 355.24,91.6 l 8.63,-1.94 c 129.91,-29.4 307.89,-69.65 553.05,-562.11 127.33,-255.67 286.83,-422.829 487.53,-511.001 25.56,-13.027 147.41,-70.809 305.57,-70.809 66.14,0 138.58,10.09 212.89,37.719 116.33,43.422 386.94,191.771 386.94,631.611 0,294.01 -124.49,454.02 -228.95,536.5"/><path id="path2195" style="fill:none;stroke:#ffffff;stroke-width:19.29870033;stroke-linecap:butt;stroke-linejoin:miter;stroke-miterlimit:10;stroke-dasharray:none;stroke-opacity:1" d="m 3215.75,2045.81 c -187.89,148.4 -436.82,151.44 -527.95,129.76 l -10.59,-2.46 c -105.28,-24.86 -272.52,-66.01 -468.27,-308.92 -1.08,-1.34 -2.22,-2.74 -3.25,-4.13 l -2.48,-2.99 c -1.91,-2.72 -3.25,-5.89 -3.25,-9.45 0,-2.95 0.72,-5.63 2.12,-8.14 l 4.54,-7.48 c 24.58,-41.11 55.56,-94 81.73,-142.74 0.26,-0.52 0.52,-0.91 0.73,-1.5 2.79,-5.4 8.36,-9.19 14.92,-9.19 4.54,0 8.62,1.8 11.57,4.69 1.24,1.61 2.48,3.28 3.56,4.99 173.75,240.28 310.37,273.45 402.8,295.19 l 11.05,2.61 c 47.97,11.51 230.34,10.81 362,-93.13 102.75,-81.11 154.9,-210.2 154.9,-383.61 0,-290.9 -141.47,-404.71 -260.23,-448.93 -183.92,-68.751 -360.3,23.16 -361.59,23.85 l -7.9,3.85 c -101.05,43.87 -251.82,135.13 -393.92,420.53 -286.41,575.23 -525.99,629.4 -684.51,665.31 l -8.47,1.88 c -72.18,16.37 -322.87,27.93 -519.9,-129.34 -102.958,-82.12 -225.59,-241.8 -225.59,-535.99 0,-179.25 36.816,-297.59 131.46,-422.11 20.754,-28.37 232.87,-300.868 642.95,-222.282 65.62,12.57 154.54,43.914 252.33,117.211 l 90.26,-81.43 c 5.88,-5.339 15.28,-4.898 20.7,1.039 2.58,2.762 3.67,6.301 3.62,9.782 v 1.211 l 65.11,400.529 0.05,4.44 c -0.05,3.9 -1.65,7.87 -4.85,10.66 -2.74,2.61 -6.15,3.61 -9.56,3.61 l -2.78,-0.25 -4.24,-0.44 -383.64,-107.4 -6.97,-1.14 c -2.79,-0.59 -5.37,-2.04 -7.33,-4.28 -5.58,-6.1 -5.06,-15.39 1.08,-20.81 l 4.49,-4.16 85.98,-77.63 c -55.51,-35.94 -103.89,-52.43 -140.81,-59.58 -296.69,-56.59 -443.18,137.73 -448.75,145.34 l -2.07,2.85 c -68.93,90.51 -92.214,167.42 -92.214,304.84 0,173.93 51.224,303.07 152.264,383.77 128.31,102.39 305.26,102.99 355.24,91.6 l 8.63,-1.94 c 129.91,-29.4 307.89,-69.65 553.05,-562.11 127.33,-255.67 286.83,-422.829 487.53,-511.001 25.56,-13.027 147.41,-70.809 305.57,-70.809 66.14,0 138.58,10.09 212.89,37.719 116.33,43.422 386.94,191.771 386.94,631.611 0,294.01 -124.49,454.02 -228.95,536.5"/><path id="path2197" style="fill:#ffffff;fill-opacity:1;fill-rule:nonzero;stroke:none" d="m 1426.73,3771.83 v -225.76 h -50.88 v 359.31 h 59.36 l 65.18,-206.15 v 206.15 h 50.35 v -359.31 h -53 l -71.01,225.76"/><path id="path2199" style="fill:#ffffff;fill-opacity:1;fill-rule:nonzero;stroke:none" d="m 1648.79,3660.01 h 48.22 l -23.84,144.14 h -0.53 z m -75.78,-113.94 67.83,359.31 h 68.89 l 68.36,-359.31 h -62 l -11.13,65.72 h -64.12 l -10.6,-65.72 h -57.23"/><path id="path2201" style="fill:#ffffff;fill-opacity:1;fill-rule:nonzero;stroke:none" d="m 1792.42,3638.81 v 173.82 c 0,56.18 26.5,96.98 90.1,96.98 66.77,0 85.31,-37.1 85.31,-90.09 v -42.39 h -55.11 v 47.16 c 0,22.26 -7.42,34.98 -29.14,34.98 -21.73,0 -30.74,-15.37 -30.74,-37.1 v -192.9 c 0,-21.72 9.01,-37.09 30.74,-37.09 21.72,0 29.14,13.78 29.14,34.97 v 66.25 h 55.11 v -62 c 0,-51.41 -21.19,-89.56 -85.31,-89.56 -63.6,0 -90.1,41.33 -90.1,96.97"/><path id="path2203" style="fill:#ffffff;fill-opacity:1;fill-rule:nonzero;stroke:none" d="m 2116.77,3704.52 h -58.3 v -158.45 h -60.41 v 359.31 h 60.41 v -152.1 h 58.3 v 152.1 h 60.94 v -359.31 h -60.94 v 158.45"/><path id="path2205" style="fill:#ffffff;fill-opacity:1;fill-rule:nonzero;stroke:none" d="m 2328.24,3704.52 h -58.3 v -158.45 h -60.41 v 359.31 h 60.41 v -152.1 h 58.3 v 152.1 h 60.94 v -359.31 h -60.94 v 158.45"/><path id="path2207" style="fill:#ffffff;fill-opacity:1;fill-rule:nonzero;stroke:none" d="m 2487.24,3660.01 h 48.22 l -23.85,144.14 h -0.52 z m -75.78,-113.94 67.83,359.31 h 68.89 l 68.36,-359.31 h -62 l -11.13,65.72 h -64.12 l -10.6,-65.72 h -57.23"/><path id="path2209" style="fill:#ffffff;fill-opacity:1;fill-rule:nonzero;stroke:none" d="m 2638.82,3905.38 h 60.42 v -310.02 h 72.07 v -49.29 h -132.49 v 359.31"/><path id="path2211" style="fill:#ffffff;fill-opacity:1;fill-rule:nonzero;stroke:none" d="m 2754.89,3905.38 h 160.57 v -49.29 h -49.81 v -310.02 h -60.95 v 310.02 h -49.81 v 49.29"/><path id="path2213" style="fill:#ffffff;fill-opacity:1;fill-rule:nonzero;stroke:none" d="m 2940.92,3905.38 h 60.41 v -359.31 h -60.41 v 359.31"/><path id="path2215" style="fill:#ffffff;fill-opacity:1;fill-rule:nonzero;stroke:none" d="m 3124.81,3737.91 h 85.85 v -191.84 h -43.46 v 39.22 c -7.94,-27.02 -24.9,-43.45 -57.76,-43.45 -51.93,0 -75.78,41.33 -75.78,96.97 v 173.82 c 0,56.18 27.03,96.98 90.62,96.98 66.77,0 86.38,-37.1 86.38,-90.09 v -31.79 h -55.12 v 36.56 c 0,22.26 -8.47,34.98 -30.2,34.98 -21.73,0 -31.26,-15.37 -31.26,-37.1 v -192.9 c 0,-21.72 9,-37.09 29.67,-37.09 19.61,0 29.68,11.12 29.68,34.45 v 63.59 h -28.62 v 47.69"/><path id="path2217" style="fill:#ffffff;fill-opacity:1;fill-rule:nonzero;stroke:none" d="m 3242.47,3905.38 h 144.15 v -49.29 h -83.73 v -102.81 h 59.88 v -48.76 h -59.88 v -109.16 h 83.73 v -49.29 h -144.15 v 359.31"/><path id="path2219" style="fill:#ffffff;fill-opacity:1;fill-rule:nonzero;stroke:none" d="m 3528.13,3915.97 -76.84,-417.59 h -47.17 l 76.84,417.59 h 47.17"/><path id="path2221" style="fill:#ffffff;fill-opacity:1;fill-rule:nonzero;stroke:none" d="m 3612.4,3856.09 v -111.82 h 20.13 c 20.67,0 29.68,10.59 29.68,29.68 v 53 c 0,19.6 -9.01,29.14 -29.68,29.14 z m 0,-145.21 v -164.81 h -60.42 v 359.31 h 87.97 c 60.95,0 83.2,-30.21 83.2,-80.56 v -46.11 c 0,-38.68 -13.78,-61.46 -48.22,-69.41 l 57.76,-163.23 h -63.59 l -56.7,164.81"/><path id="path2223" style="fill:#ffffff;fill-opacity:1;fill-rule:nonzero;stroke:none" d="m 1436.27,3220.95 v -174.87 h -60.42 v 359.3 h 60.42 v -157.93 l 65.71,157.93 h 59.35 l -69.95,-161.64 71.54,-197.66 h -63.59 l -63.06,174.87"/><path id="path2225" style="fill:#ffffff;fill-opacity:1;fill-rule:nonzero;stroke:none" d="m 1692.25,3129.27 v 192.9 c 0,21.73 -9.54,37.1 -31.27,37.1 -21.2,0 -30.73,-15.37 -30.73,-37.1 v -192.9 c 0,-21.72 9.53,-37.09 30.73,-37.09 21.73,0 31.27,15.37 31.27,37.09 z m -122.42,9.54 v 173.82 c 0,56.18 27.56,96.98 91.15,96.98 64.13,0 91.68,-40.8 91.68,-96.98 v -173.82 c 0,-55.64 -27.55,-96.97 -91.68,-96.97 -63.59,0 -91.15,41.33 -91.15,96.97"/><path id="path2227" style="fill:#ffffff;fill-opacity:1;fill-rule:nonzero;stroke:none" d="m 1835.35,3271.83 v -225.75 h -50.87 v 359.3 h 59.36 l 65.18,-206.15 v 206.15 h 50.34 v -359.3 h -52.99 l -71.02,225.75"/><path id="path2229" style="fill:#ffffff;fill-opacity:1;fill-rule:nonzero;stroke:none" d="m 1988,3123.45 v 48.22 h 56.17 v -49.29 c 0,-20.13 9.01,-31.79 29.68,-31.79 19.07,0 27.55,12.71 27.55,31.79 v 13.78 c 0,20.67 -8.48,33.39 -27.02,50.87 l -35.51,35.51 c -34.44,33.92 -50.34,54.59 -50.34,95.92 v 12.18 c 0,44.53 25.97,78.97 84.79,78.97 60.41,0 84.26,-29.68 84.26,-81.61 v -29.15 h -55.12 v 31.27 c 0,20.66 -9.54,30.74 -28.61,30.74 -16.96,0 -28.62,-9.54 -28.62,-29.68 v -7.42 c 0,-20.13 11.13,-31.8 28.62,-48.75 l 38.68,-38.16 c 32.86,-33.38 48.76,-53.52 48.76,-93.26 v -17.49 c 0,-49.29 -26.5,-84.26 -87.97,-84.26 -61.48,0 -85.32,34.44 -85.32,81.61"/><path id="path2231" style="fill:#ffffff;fill-opacity:1;fill-rule:nonzero;stroke:none" d="m 2365.87,3405.38 v -271.86 c 0,-55.65 -23.85,-91.68 -85.32,-91.68 -63.59,0 -90.09,36.03 -90.09,91.68 v 271.86 h 60.41 v -277.69 c 0,-21.2 8.48,-35.51 29.68,-35.51 21.2,0 29.67,14.31 29.67,35.51 v 277.69 h 55.65"/><path id="path2233" style="fill:#ffffff;fill-opacity:1;fill-rule:nonzero;stroke:none" d="m 2564.08,3279.25 h -1.58 l -40.81,-233.17 h -28.09 l -45.04,233.17 h -1.06 v -233.17 h -49.82 v 359.3 h 70.49 l 39.21,-202.45 h 0.53 l 34.98,202.45 h 76.31 v -359.3 h -55.12 v 233.17"/><path id="path2235" style="fill:#ffffff;fill-opacity:1;fill-rule:nonzero;stroke:none" d="m 2879.43,3405.38 v -271.86 c 0,-55.65 -23.85,-91.68 -85.32,-91.68 -63.59,0 -90.09,36.03 -90.09,91.68 v 271.86 h 60.41 v -277.69 c 0,-21.2 8.48,-35.51 29.68,-35.51 21.2,0 29.67,14.31 29.67,35.51 v 277.69 h 55.65"/><path id="path2237" style="fill:#ffffff;fill-opacity:1;fill-rule:nonzero;stroke:none" d="m 2962.12,3271.83 v -225.75 h -50.87 v 359.3 h 59.35 l 65.18,-206.15 v 206.15 h 50.35 v -359.3 h -53 l -71.01,225.75"/><path id="path2239" style="fill:#ffffff;fill-opacity:1;fill-rule:nonzero;stroke:none" d="m 3203.79,3095.35 c 24.91,0 34.45,14.85 34.45,36.58 v 188.12 c 0,21.2 -9.54,36.04 -34.45,36.04 h -25.43 v -260.74 z m 94.86,213.58 v -166.41 c 0,-55.12 -22.78,-96.44 -87.44,-96.44 h -93.27 v 359.3 h 93.27 c 64.66,0 87.44,-40.82 87.44,-96.45"/><path id="path2241" style="fill:#ffffff;fill-opacity:1;fill-rule:nonzero;stroke:none" d="m 1436.27,2856.09 v -141.5 h 22.25 c 20.67,0 29.68,10.07 29.68,29.68 v 82.68 c 0,19.59 -9.01,29.14 -29.68,29.14 z m -60.42,49.28 h 89.56 c 60.95,0 83.2,-30.2 83.2,-80.55 v -75.78 c 0,-50.35 -22.25,-81.08 -83.2,-81.08 h -29.14 v -121.88 h -60.42 v 359.29"/><path id="path2243" style="fill:#ffffff;fill-opacity:1;fill-rule:nonzero;stroke:none" d="m 1637.66,2856.09 v -111.82 h 20.14 c 20.67,0 29.68,10.6 29.68,29.68 v 53 c 0,19.59 -9.01,29.14 -29.68,29.14 z m 0,-145.21 v -164.8 h -60.41 v 359.29 h 87.97 c 60.95,0 83.2,-30.2 83.2,-80.55 v -46.11 c 0,-38.68 -13.78,-61.46 -48.22,-69.41 l 57.76,-163.22 h -63.59 l -56.71,164.8"/><path id="path2245" style="fill:#ffffff;fill-opacity:1;fill-rule:nonzero;stroke:none" d="m 1901.07,2629.27 v 192.9 c 0,21.73 -9.54,37.1 -31.27,37.1 -21.2,0 -30.73,-15.37 -30.73,-37.1 v -192.9 c 0,-21.72 9.53,-37.09 30.73,-37.09 21.73,0 31.27,15.37 31.27,37.09 z m -122.42,9.54 v 173.82 c 0,56.18 27.56,96.98 91.15,96.98 64.12,0 91.68,-40.8 91.68,-96.98 v -173.82 c 0,-55.64 -27.56,-96.97 -91.68,-96.97 -63.59,0 -91.15,41.33 -91.15,96.97"/><path id="path2247" style="fill:#ffffff;fill-opacity:1;fill-rule:nonzero;stroke:none" d="m 2079.14,2595.35 c 24.91,0 34.45,14.85 34.45,36.58 v 188.12 c 0,21.2 -9.54,36.04 -34.45,36.04 h -25.43 v -260.74 z m 94.86,213.58 v -166.41 c 0,-55.12 -22.78,-96.44 -87.43,-96.44 h -93.28 v 359.29 h 93.28 c 64.65,0 87.43,-40.81 87.43,-96.44"/><path id="path2249" style="fill:#ffffff;fill-opacity:1;fill-rule:nonzero;stroke:none" d="m 2381.23,2905.37 v -271.85 c 0,-55.65 -23.84,-91.68 -85.31,-91.68 -63.6,0 -90.1,36.03 -90.1,91.68 v 271.85 h 60.42 v -277.68 c 0,-21.2 8.47,-35.51 29.68,-35.51 21.19,0 29.67,14.31 29.67,35.51 v 277.68 h 55.64"/><path id="path2251" style="fill:#ffffff;fill-opacity:1;fill-rule:nonzero;stroke:none" d="m 2473.46,2720.95 v -174.87 h -60.41 v 359.29 h 60.41 v -157.92 l 65.72,157.92 h 59.35 l -69.95,-161.63 71.54,-197.66 h -63.59 l -63.07,174.87"/><path id="path2253" style="fill:#ffffff;fill-opacity:1;fill-rule:nonzero;stroke:none" d="m 2613.39,2905.37 h 160.57 v -49.28 h -49.81 v -310.01 h -60.94 v 310.01 h -49.82 v 49.28"/><path id="path2255" style="fill:#ffffff;fill-opacity:1;fill-rule:nonzero;stroke:none" d="m 2799.41,2905.37 h 60.42 v -359.29 h -60.42 v 359.29"/><path id="path2257" style="fill:#ffffff;fill-opacity:1;fill-rule:nonzero;stroke:none" d="m 3014.58,2629.27 v 192.9 c 0,21.73 -9.54,37.1 -31.27,37.1 -21.2,0 -30.73,-15.37 -30.73,-37.1 v -192.9 c 0,-21.72 9.53,-37.09 30.73,-37.09 21.73,0 31.27,15.37 31.27,37.09 z m -122.42,9.54 v 173.82 c 0,56.18 27.56,96.98 91.15,96.98 64.12,0 91.68,-40.8 91.68,-96.98 v -173.82 c 0,-55.64 -27.56,-96.97 -91.68,-96.97 -63.59,0 -91.15,41.33 -91.15,96.97"/><path id="path2259" style="fill:#ffffff;fill-opacity:1;fill-rule:nonzero;stroke:none" d="m 3157.68,2771.83 v -225.75 h -50.88 v 359.29 h 59.36 l 65.18,-206.14 v 206.14 h 50.35 v -359.29 h -53 l -71.01,225.75"/></g></g></svg>