<?xml version="1.0" encoding="UTF-8" standalone="no"?>
<!-- Created with Inkscape (http://www.inkscape.org/) -->

<svg
   width="254mm"
   height="254mm"
   viewBox="0 0 254 254"
   version="1.1"
   id="svg1"
   xml:space="preserve"
   inkscape:version="1.4.4 (dcaf3e7d9e, 2026-05-05)"
   sodipodi:docname="sdg-fr-10.svg"
   xmlns:inkscape="http://www.inkscape.org/namespaces/inkscape"
   xmlns:sodipodi="http://sodipodi.sourceforge.net/DTD/sodipodi-0.dtd"
   xmlns="http://www.w3.org/2000/svg"
   xmlns:svg="http://www.w3.org/2000/svg"><sodipodi:namedview
     id="namedview1"
     pagecolor="#ffffff"
     bordercolor="#000000"
     borderopacity="0.25"
     inkscape:showpageshadow="2"
     inkscape:pageopacity="0.0"
     inkscape:pagecheckerboard="0"
     inkscape:deskcolor="#d1d1d1"
     inkscape:document-units="mm"
     inkscape:zoom="0.70555556"
     inkscape:cx="201.9685"
     inkscape:cy="361.41732"
     inkscape:window-width="1917"
     inkscape:window-height="999"
     inkscape:window-x="26"
     inkscape:window-y="23"
     inkscape:window-maximized="0"
     inkscape:current-layer="layer1" /><defs
     id="defs1" /><g
     inkscape:label="Layer 1"
     inkscape:groupmode="layer"
     id="layer1"
     transform="translate(83.60833,37.306252)"><path
       style="fill:#dd1367;stroke:none"
       d="M -83.60833,-37.306252 V 216.69375 h 254 V -37.306252 h -254 m 105.494667,15.578667 c -1.132179,2.127188 -1.960025,4.572 -4.572,4.572 0.147174,-0.996549 0.595405,-3.797577 1.441555,-4.397974 0.685902,-0.486689 2.315973,-0.174026 3.130445,-0.174026 m 56.388,0 c -0.687565,2.172002 -2.045612,4.572 -4.402667,4.572 l 1.185334,-4.572 h 3.217333 m -113.961333,5.469496 c 5.41539,-0.506264 10.450385,2.681676 12.287513,7.7385041 1.642567,4.5212745 1.08982,9.8350586 1.08982,14.5626667 v 5.7573332 c 0,7.216469 1.04806,17.315904 -6.942667,20.944417 -1.722877,0.78234 -3.556806,1.032288 -5.418666,1.209497 -5.393826,0.513354 -10.607815,-2.356797 -12.623827,-7.421914 -1.862292,-4.678908 -1.092173,-10.304342 -1.092173,-15.24 V 4.5190818 c 0,-7.0037275 -0.940855,-16.1122778 6.773333,-19.5898738 1.901956,-0.857416 3.887272,-0.996653 5.926667,-1.187297 m 69.257333,6.8918375 h -3.217333 c 0,-1.0058715 0.152249,-2.3232695 -0.489314,-3.1811395 -0.904141,-1.20898 -2.600162,-0.628943 -3.048269,0.641801 -0.938516,2.6614809 -0.220793,6.833774 -0.1871,9.6513385 0.02167,1.81247849 1.799529,4.3430734 3.436318,2.02455857 0.739469,-1.04746057 0.457698,-2.67566097 0.457698,-3.88722527 H 28.65967 v -2.3706667 h 5.08 v 9.4826667 h -2.370666 l -0.169334,-1.524 C 29.345334,4.1632379 25.200026,3.7958391 23.803884,0.79374847 23.020986,-0.88970433 23.07167,-2.8127084 23.07167,-4.6249182 c 0,-2.8455111 -0.499835,-6.3501238 0.846005,-8.9746668 1.391822,-2.714232 6.563589,-3.071668 8.547034,-0.815309 1.21698,1.384432 1.105628,3.333026 1.105628,5.0486425 M 86.06367,-10.212918 c -0.116127,-0.914115 -0.179255,-2.147962 -1.047884,-2.691681 -1.406953,-0.88069 -2.619499,0.906012 -2.194016,2.183681 0.429751,1.2904637 1.760544,2.1924241 2.7339,3.0564954 1.273463,1.1304736 2.643064,2.2633451 3.306186,3.8861711 C 90.18807,-0.53266152 88.536191,3.026067 84.878337,3.3023912 82.511525,3.4811917 80.397608,2.0555423 79.755352,-0.22225153 79.600137,-0.77272955 79.2445,-1.8082012 79.63384,-2.3238907 c 0.460499,-0.6099266 2.159497,-0.6384933 2.87383,-0.7770275 0.0031,1.1204898 0.10356,2.50932488 1.05206,3.27612045 1.403336,1.13448375 2.648531,-0.53906787 2.364528,-1.92145375 -0.258238,-1.2569569 -1.143548,-2.0678221 -2.062055,-2.8871623 -1.324891,-1.18184 -2.987787,-2.2763882 -3.82633,-3.8861711 -1.51968,-2.9174031 -0.205073,-6.5979641 3.149131,-7.2026821 2.279271,-0.410931 4.47028,0.387036 5.339488,2.630682 0.207584,0.535823 0.647299,1.724071 0.243158,2.245631 -0.45065,0.581566 -2.025117,0.579375 -2.70398,0.633036 m -148.674666,4.4026665 -6.942667,2.54 v -4.9106667 c 0,-0.5638105 -0.162386,-1.456986 0.174037,-1.9476018 0.486248,-0.709104 1.96022,-1.01013 2.70463,-1.401961 2.039307,-1.073444 3.887062,-2.281287 5.757333,-3.61702 1.431445,-1.022325 4.226814,-0.484187 5.926667,-0.484084 0.582251,4.1e-5 1.594445,-0.189032 1.808835,0.533094 0.305121,1.027741 0.05383,2.461783 0.05383,3.530906 v 7.4506668 24.5533332 8.636 c 0,0.997231 0.342568,2.767666 -0.102174,3.671507 -0.306876,0.623652 -1.534821,0.392493 -2.099159,0.392493 h -5.08 c -0.528565,0 -1.486517,0.177085 -1.929825,-0.174025 -0.542363,-0.429556 -0.271508,-1.920214 -0.271508,-2.535308 v -7.112 -29.1253335 M 0.21167023,-15.631585 V 2.9950818 H -3.1749964 V -15.631585 h 3.38666663 m 8.80533337,9.9906668 h 0.1693333 v -7.2813338 l 0.271508,-2.535307 2.6071591,-0.174026 V 2.9950818 L 9.9344876,2.8210563 8.6064756,0.11641514 5.4610036,-7.6729182 H 5.2916702 v 10.668 H 2.4130036 V -15.631585 l 2.2626112,0.174026 1.3451272,2.704641 2.9962616,7.1119998 M 22.05567,-15.631585 v 2.54 h -4.402666 v 5.2493335 h 3.556 v 2.3706666 h -3.556 V 0.62441514 H 22.05567 V 2.9950818 H 14.266337 V -15.631585 h 7.789333 m 19.981334,0 3.725333,18.6266668 H 42.545004 L 41.86767,-1.2382515 h -3.217333 l -0.677333,4.2333333 h -3.386667 c 1.167846,-4.513895 1.792108,-9.168908 2.819487,-13.7159998 0.236554,-1.046985 0.310379,-4.077581 1.174874,-4.736641 0.69852,-0.532516 2.603396,-0.174026 3.456306,-0.174026 m 8.297333,0 V 0.62441514 c 0.894746,0 3.812449,-0.46777506 4.397964,0.27150798 0.373631,0.47174378 0.174036,1.53067658 0.174036,2.09915868 H 46.94767 V -15.631585 h 3.386667 m 9.144,0 V 2.9950818 H 56.09167 V -15.631585 h 3.386667 m 10.498667,2.54 h -3.048 V 2.9950818 h -3.556 V -13.091585 h -3.048 v -2.54 h 6.773333 l 2.607159,0.174026 0.271508,2.365974 m 8.636,-2.54 v 2.54 h -4.402667 v 5.2493335 h 3.386667 v 2.3706666 h -3.386667 v 6.09600004 h 4.402667 V 2.9950818 H 70.654337 V -10.890252 c 0,-0.911076 -0.481904,-3.970589 0.271508,-4.567307 0.470969,-0.373021 1.535617,-0.174026 2.099159,-0.174026 h 5.588 m -38.438667,4.910667 -1.185333,7.1119998 h 2.370666 c -0.08942,-2.0829943 -0.332558,-5.2123537 -1.185333,-7.1119998 m -76.369333,2.7886461 c -3.079709,0.5909924 -2.709334,4.8288732 -2.709334,7.20202037 0,7.16673573 -0.0846,14.33917653 6.51e-4,21.50533353 0.02933,2.465462 1.255133,5.427079 4.232683,4.853058 3.145916,-0.606475 2.709333,-5.050896 2.709333,-7.393058 0,-7.055259 0.03389,-14.1114903 -1.29e-4,-21.1666669 -0.01259,-2.6102592 -1.0576,-5.6100761 -4.233204,-5.000687 M 16.46767,8.5830818 c -1.091747,2.0512232 -2.024186,4.7410642 -4.572,4.7413332 0.0887,-1.015814 0.578508,-3.9549419 1.441556,-4.5673076 0.68588,-0.486668 2.315993,-0.1740256 3.130444,-0.1740256 M 72.517004,20.097748 c -0.171453,-0.920171 -0.184713,-2.013251 -1.033767,-2.607158 -1.399563,-0.979 -2.614062,0.810059 -2.216619,2.099158 0.332093,1.077123 1.417433,1.941732 2.234386,2.660985 1.261049,1.110237 2.5958,2.113814 3.440368,3.604349 1.43243,2.528011 1.039906,6.467595 -2.085702,7.486985 -2.547793,0.830936 -5.534029,-0.09335 -6.485495,-2.745652 -0.219894,-0.612965 -0.747273,-1.993697 -0.283001,-2.584297 0.45128,-0.574084 2.019267,-0.60974 2.704496,-0.80237 0.331494,1.111044 1.342316,5.599679 3.291148,3.029562 0.848434,-1.118918 0.02929,-2.652737 -0.768914,-3.537562 -2.020859,-2.240173 -5.242047,-3.730749 -5.394234,-7.112 -0.184619,-4.101827 4.923606,-7.05253 8.103567,-3.876889 0.636251,0.635392 1.904783,2.839413 1.197746,3.751853 -0.45284,0.584399 -2.024104,0.603767 -2.703979,0.633036 m -65.3626671,13.208 c -0.7806139,0 -2.8136681,0.364381 -3.3630195,-0.271508 C 2.2019363,31.194497 3.301063,24.875648 0.21167023,24.839082 v 8.466666 H -3.3443298 V 20.267082 c 0,-1.371348 -0.5046617,-3.96226 0.1021747,-5.195507 0.3395141,-0.689984 1.97482,-0.392493 2.60715866,-0.392493 2.38882574,0 5.75898694,-0.137067 7.01753544,2.370666 0.7985249,1.591118 0.8167254,4.203341 -0.089369,5.75721 -0.3661998,0.627992 -1.331681,1.114164 -1.4006587,1.869446 -0.070869,0.776056 0.4284287,1.79185 0.6398369,2.533344 0.5663427,1.986422 1.3460264,4.048353 1.6219889,6.096 M 16.637004,14.679082 v 2.54 h -4.402667 v 5.249333 h 3.556 l -0.174036,2.268492 -3.381964,0.271508 v 5.926667 h 4.402667 v 2.370666 H 8.8476702 V 14.679082 H 16.637004 M 17.99167,33.305748 V 14.679082 c 2.620181,0 6.657589,-0.63531 8.789521,1.242942 1.099013,0.968251 1.256946,2.306753 1.442206,3.667724 0.38717,2.844271 0.2614,6.127234 -0.04363,8.974667 -0.157903,1.473957 -0.500156,2.853717 -1.723906,3.828025 -2.074137,1.651351 -5.982415,0.913308 -8.464186,0.913308 m 15.24,-18.626666 c 0,4.176737 -0.02001,8.353991 1.35e-4,12.530666 0.0063,1.304272 0.120767,3.613609 1.862532,3.699454 1.834317,0.09041 2.025437,-2.196703 2.031866,-3.53012 0.02041,-4.233106 1.34e-4,-8.466832 1.34e-4,-12.7 0.725134,0 2.721653,-0.348403 3.212631,0.271508 0.759375,0.958804 0.174036,4.273227 0.174036,5.485825 0,4.610716 1.453244,13.120378 -5.249334,13.204858 -6.863281,0.08651 -5.418666,-8.550217 -5.418666,-13.204858 0,-1.212618 -0.58535,-4.527021 0.174035,-5.485825 0.490999,-0.619952 2.487487,-0.271508 3.212631,-0.271508 m 12.7,18.626666 H 42.545004 V 14.679082 c 0.725134,0 2.721653,-0.348403 3.21263,0.271508 0.684858,0.864712 0.174036,3.722956 0.174036,4.808492 v 13.546666 m 7.450667,-15.917333 v 15.917333 h -3.556 V 17.388415 c -0.7056,0 -2.199235,0.283166 -2.776492,-0.174025 -0.481428,-0.38131 -0.457233,-2.148624 0.120985,-2.433134 1.524827,-0.7503 4.847218,-0.102174 6.550174,-0.102174 0.661106,0 1.710417,-0.196226 2.31684,0.102174 0.578197,0.28451 0.602434,2.051824 0.120985,2.433134 -0.577247,0.457191 -2.070892,0.174025 -2.776492,0.174025 m 11.684,-0.169333 H 60.66367 v 5.249333 h 3.386667 v 2.54 H 60.66367 v 5.926667 h 4.402667 v 2.370666 H 57.10767 V 20.267082 c 0,-1.37141 -0.504661,-3.962239 0.102175,-5.195507 0.366003,-0.743831 2.41979,-0.392493 3.115159,-0.392493 0.911107,0 3.970579,-0.481914 4.567297,0.271508 0.395252,0.499049 0.174036,1.664849 0.174036,2.268492 m -64.85466677,0 v 5.418666 c 0.88689677,0 1.91647217,0.119745 2.65171407,-0.483298 C 3.9999868,21.222207 3.960568,18.356273 2.7338987,17.514113 2.0480594,17.043258 1.0010639,17.219082 0.21167023,17.219082 m 21.16666677,0 v 13.716 c 0.89548,0 2.096141,0.154471 2.768131,-0.578942 0.680051,-0.742218 0.618174,-2.043162 0.618536,-2.977058 v -6.604 c 0,-0.903449 0.129997,-2.076318 -0.461884,-2.840633 -0.670419,-0.865746 -1.958258,-0.715367 -2.924783,-0.715367 M 43.39167,55.769855 c 1.352145,-0.380814 3.868157,3.078717 4.741334,3.951893 L 61.67967,73.268415 c 1.297223,1.297223 2.616771,2.575884 3.892052,3.894667 0.283187,0.29285 1.282723,1.211502 0.599075,1.591158 -0.665283,0.369466 -2.05171,0.102175 -2.797793,0.102175 H 56.430337 31.19967 23.410337 c -0.51939,0 -2.214191,0.271033 -2.510214,-0.271508 -0.293243,-0.537435 0.675835,-1.278475 0.986348,-1.591159 L 25.781004,73.099082 38.31167,60.568415 c 1.27739,-1.27739 3.324169,-4.304058 5.08,-4.79856 M 0.21167023,99.176415 c 0.44385921,1.864295 0.16933333,4.016205 0.16933333,5.926665 v 11.34534 19.13466 c 0,2.99678 0.5252806,6.56514 -0.16933333,9.48267 -2.00096313,-0.56164 -3.96834693,-3.46034 -5.41866663,-4.91067 l -12.3613336,-12.36133 -3.894666,-3.89467 c -0.432574,-0.43277 -1.290702,-1.03826 -1.367994,-1.69333 -0.07802,-0.66122 0.790768,-1.28461 1.19866,-1.69333 l 3.894667,-3.89467 12.5306666,-12.53067 c 1.4503197,-1.45032 3.4176983,-4.349035 5.41866663,-4.910665 M 87.153102,99.303674 c 0.598517,-0.175618 1.263138,0.703906 1.619902,1.058206 l 3.725333,3.7252 12.869333,12.86934 c 1.16375,1.16376 4.26665,3.28075 4.61409,4.91066 0.14506,0.68052 -0.64176,1.274 -1.05821,1.69334 l -3.89455,3.89466 -12.530663,12.53067 -3.386667,3.38667 c -0.454256,0.45421 -1.037725,1.28916 -1.683401,1.46546 -0.931096,0.25424 -0.687265,-1.66173 -0.687265,-2.1428 v -7.28133 -27.60133 -6.43467 c 0,-0.48151 -0.221599,-1.888134 0.412098,-2.074076 m -67.225333,0.313582 c 0.739624,-0.375377 2.158287,-0.102174 2.974568,-0.102174 h 7.281333 25.908 7.789334 c 0.898839,0 2.501253,-0.309924 3.313234,0.102174 0.777834,0.394774 0.412099,2.553704 0.412099,3.284494 v 8.636 c 0,0.75482 0.33229,2.55965 -0.392493,3.0433 -0.719233,0.47994 -2.328013,0.17403 -3.163507,0.17403 h -8.128 -25.4 -7.281333 c -0.915345,0 -2.343134,0.26855 -3.19225,-0.10217 -0.874892,-0.38198 -0.533084,-2.17728 -0.533084,-2.94583 v -8.80533 c 0,-0.73079 -0.365735,-2.88972 0.412099,-3.284494 m 0.120985,29.972004 c 0.849126,-0.37074 2.276905,-0.10218 3.19225,-0.10218 h 7.112 25.4 8.128 c 0.898828,0 2.501263,-0.30992 3.313234,0.10218 0.741764,0.37647 0.412099,2.25749 0.412099,2.94582 v 8.80534 c 0,0.73078 0.365755,2.8897 -0.412099,3.28449 -0.811961,0.41211 -2.414406,0.10217 -3.313234,0.10217 h -8.128 -25.4 -7.112 c -0.915366,0 -2.343124,0.26855 -3.19225,-0.10217 -0.874892,-0.382 -0.533084,-2.17725 -0.533084,-2.94583 v -8.80533 c 0,-0.81095 -0.382447,-2.88476 0.533084,-3.28449 m 0.65225,35.79649 h 34.713333 8.297333 c 0.477997,0 2.409683,-0.27424 2.625194,0.27151 0.310741,0.7869 -2.27953,2.7695 -2.794527,3.28449 l -9.821333,9.82133 -7.281334,7.28134 c -0.650265,0.65025 -1.877219,2.43232 -2.878666,2.43232 -0.670616,0 -1.266641,-0.82118 -1.693334,-1.24699 l -3.725333,-3.72533 -12.869333,-12.86934 c -1.338906,-1.33889 -4.274179,-3.3193 -4.572,-5.24933 z"
       id="path1" /></g></svg>
