<?xml version="1.0" encoding="UTF-8" standalone="no"?>
<!-- Created with Inkscape (http://www.inkscape.org/) -->

<svg
   width="70.962891mm"
   height="30.133556mm"
   viewBox="0 0 70.962891 30.133555"
   version="1.1"
   id="svg1"
   xml:space="preserve"
   inkscape:version="1.3.2 (091e20ef0f, 2023-11-25, custom)"
   sodipodi:docname="1.svg"
   xmlns:inkscape="http://www.inkscape.org/namespaces/inkscape"
   xmlns:sodipodi="http://sodipodi.sourceforge.net/DTD/sodipodi-0.dtd"
   xmlns="http://www.w3.org/2000/svg"
   xmlns:svg="http://www.w3.org/2000/svg"><sodipodi:namedview
     id="namedview1"
     pagecolor="#ffffff"
     bordercolor="#666666"
     borderopacity="1.0"
     inkscape:showpageshadow="2"
     inkscape:pageopacity="0.0"
     inkscape:pagecheckerboard="0"
     inkscape:deskcolor="#d1d1d1"
     inkscape:document-units="mm"
     showguides="true"
     inkscape:zoom="2.0505166"
     inkscape:cx="90.708848"
     inkscape:cy="118.9944"
     inkscape:window-width="1920"
     inkscape:window-height="1020"
     inkscape:window-x="0"
     inkscape:window-y="0"
     inkscape:window-maximized="1"
     inkscape:current-layer="layer1"><sodipodi:guide
       position="22.773799,13.740208"
       orientation="0,-1"
       id="guide9"
       inkscape:locked="false" /></sodipodi:namedview><defs
     id="defs1" /><g
     inkscape:label="Ebene 1"
     inkscape:groupmode="layer"
     id="layer1"
     transform="translate(-52.547908,-187.27934)"><g
       id="g9"
       transform="matrix(-0.34411392,-0.00466138,0.0045527,-0.33622484,132.11298,250.99486)"
       style="fill:#ffffff;fill-opacity:1;stroke-width:2.93964"><path
         id="rect2"
         style="fill:#ffffff;fill-opacity:1;stroke:#3f3f3f;stroke-width:1.55506;stroke-linecap:round;stroke-linejoin:round;stroke-dasharray:none;stroke-opacity:1"
         d="m 96.25459,124.20224 -0.606165,7.80986 -54.047863,0.045 v -4.60903 H 27.900106 v 33.12666 h 13.700456 v -5.22138 h 52.237121 l -0.609265,7.85482 17.036172,0.94929 0.52813,-6.6337 37.39048,7.22075 1.1343,-3.37706 23.19962,7.79177 2.70423,-8.28114 46.33722,16.24138 -2.25103,5.71386 7.81761,2.74299 5.57279,-14.88591 -7.84345,-2.75487 -2.13785,5.78827 -46.41422,-16.15612 1.0759,-3.29437 -19.5125,-7.01921 14.60272,-0.032 0.091,2.99982 9.40615,-0.31264 -0.0165,6.12417 19.14819,-0.57361 -0.0579,-26.99783 -19.67839,0.39222 0.23668,6.49469 h -9.05423 l 0.0155,2.94246 -15.67708,0.55346 0.91415,-2.7218 -44.75695,-6.80786 0.30954,-3.88606 z" /><path
         style="fill:#ffffff;fill-opacity:1;stroke:#3f3f3f;stroke-width:1.55506;stroke-linecap:round;stroke-linejoin:round;stroke-dasharray:none;stroke-opacity:1"
         d="m 115.4838,129.68696 0.31741,-2.50105 -2.57617,-0.2052 0.60079,-4.49366 21.85529,3.49821 -0.93757,4.46679 -2.4152,-0.43141 -0.37471,2.1715"
         id="path8" /><path
         style="fill:#ffffff;fill-opacity:1;stroke:#3f3f3f;stroke-width:1.55506;stroke-linecap:round;stroke-linejoin:round;stroke-dasharray:none;stroke-opacity:1"
         d="m 135.81591,132.77962 1.61166,-5.38798 -1.52558,-0.81675 1.22811,-2.82654 19.61674,6.6255 -0.75134,1.89301 -1.74877,-0.16906 -0.82438,3.35989"
         id="path9" /></g><rect
       style="fill:none;stroke:none;stroke-width:0.528999;stroke-linecap:round;stroke-linejoin:round;stroke-dasharray:none;stroke-opacity:1"
       id="rect9"
       width="3.600867"
       height="2.1854908"
       x="53.020638"
       y="215.2274" /></g><g
     inkscape:groupmode="layer"
     id="layer4"
     inkscape:label="Ebene 2"
     transform="translate(4.6420078,1.8771035)"><path
       style="fill:none;fill-opacity:1;stroke:#3f3f3f;stroke-width:0.465;stroke-linecap:butt;stroke-linejoin:miter;stroke-dasharray:none;stroke-opacity:0.330007"
       d="m -0.92592202,2.3899953 0.41397076,-1.136307"
       id="path10" /><path
       style="fill:none;stroke:#3f3f3f;stroke-width:0.465;stroke-linecap:butt;stroke-linejoin:miter;stroke-dasharray:none;stroke-opacity:0.330007"
       d="M 14.972301,8.0384388 15.359384,6.9304394"
       id="path11" /><path
       style="fill:none;stroke:#3f3f3f;stroke-width:0.465;stroke-linecap:butt;stroke-linejoin:miter;stroke-dasharray:none;stroke-opacity:0.330007"
       d="M 37.514898,8.3585719 36.613443,17.832525"
       id="path12" /><path
       style="fill:none;stroke:#3f3f3f;stroke-width:0.465;stroke-linecap:butt;stroke-linejoin:miter;stroke-dasharray:none;stroke-opacity:0.330007"
       d="M 43.339483,9.1673515 42.610114,17.006819"
       id="path13" /><path
       style="fill:none;stroke:#3f3f3f;stroke-width:0.465;stroke-linecap:butt;stroke-linejoin:miter;stroke-dasharray:none;stroke-opacity:0.330007"
       d="m 61.315002,9.4108492 -0.10606,7.8327778"
       id="path14" /><path
       style="fill:none;stroke:#3f3f3f;stroke-width:0.465;stroke-linecap:butt;stroke-linejoin:miter;stroke-dasharray:none;stroke-opacity:0.330007"
       d="m 12.988625,10.586985 0.06032,4.89727"
       id="path15" /><path
       style="fill:none;stroke:#3f3f3f;stroke-width:0.465;stroke-linecap:butt;stroke-linejoin:miter;stroke-dasharray:none;stroke-opacity:0.330007"
       d="m 16.244492,11.534751 -0.07181,3.002308"
       id="path16" /></g></svg>
