<?xml version="1.0" encoding="UTF-8" standalone="no"?>
<!-- Created with Inkscape (http://www.inkscape.org/) -->
<svg
   xmlns:dc="http://purl.org/dc/elements/1.1/"
   xmlns:cc="http://creativecommons.org/ns#"
   xmlns:rdf="http://www.w3.org/1999/02/22-rdf-syntax-ns#"
   xmlns:svg="http://www.w3.org/2000/svg"
   xmlns="http://www.w3.org/2000/svg"
   xmlns:sodipodi="http://sodipodi.sourceforge.net/DTD/sodipodi-0.dtd"
   xmlns:inkscape="http://www.inkscape.org/namespaces/inkscape"
   width="323.38495"
   height="176.62407"
   id="svg2"
   sodipodi:version="0.32"
   inkscape:version="0.46"
   sodipodi:docname="pappso.svg"
   inkscape:output_extension="org.inkscape.output.svg.inkscape"
   version="1.0">
  <defs
     id="defs4">
    <inkscape:perspective
       sodipodi:type="inkscape:persp3d"
       inkscape:vp_x="0 : 526.18109 : 1"
       inkscape:vp_y="0 : 1000 : 0"
       inkscape:vp_z="744.09448 : 526.18109 : 1"
       inkscape:persp3d-origin="372.04724 : 350.78739 : 1"
       id="perspective10" />
    <inkscape:perspective
       id="perspective2410"
       inkscape:persp3d-origin="372.04724 : 350.78739 : 1"
       inkscape:vp_z="744.09448 : 526.18109 : 1"
       inkscape:vp_y="0 : 1000 : 0"
       inkscape:vp_x="0 : 526.18109 : 1"
       sodipodi:type="inkscape:persp3d" />
  </defs>
  <sodipodi:namedview
     id="base"
     pagecolor="#ffffff"
     bordercolor="#666666"
     borderopacity="1.0"
     inkscape:pageopacity="0.0"
     inkscape:pageshadow="2"
     inkscape:zoom="0.49497475"
     inkscape:cx="312.98469"
     inkscape:cy="-123.17801"
     inkscape:document-units="px"
     inkscape:current-layer="layer1"
     showgrid="false"
     inkscape:window-width="997"
     inkscape:window-height="853"
     inkscape:window-x="272"
     inkscape:window-y="141"
     units="mm"
     showborder="false" />
  <metadata
     id="metadata7">
    <rdf:RDF>
      <cc:Work
         rdf:about="">
        <dc:format>image/svg+xml</dc:format>
        <dc:type
           rdf:resource="http://purl.org/dc/dcmitype/StillImage" />
      </cc:Work>
    </rdf:RDF>
  </metadata>
  <g
     inkscape:label="Calque 1"
     inkscape:groupmode="layer"
     id="layer1"
     transform="translate(-156.04895,-209.04868)">
    <g
       id="g3819"
       transform="matrix(0.8809749,0,0,0.8809749,58.250742,-368.97983)">
      <path
         d="M 294.55008,817.4744 C 395.91383,817.4744 478.08758,791.3819 478.08758,759.1944 C 478.08758,727.00815 395.91383,700.9144 294.55008,700.9144 C 193.1857,700.9144 111.01135,727.00815 111.01135,759.1944 C 111.01135,791.3819 193.1857,817.4744 294.55008,817.4744"
         style="fill:#c6e6b5;fill-opacity:1;fill-rule:nonzero;stroke:none"
         id="path2476" />
      <path
         d="M 376.46633,674.8469 C 369.58258,678.7819 362.56758,683.8044 355.66508,689.7944"
         style="fill:none;stroke:#f79210;stroke-width:1.64024997;stroke-linecap:butt;stroke-linejoin:miter;stroke-miterlimit:4;stroke-dasharray:none;stroke-opacity:1"
         id="path2478" />
      <path
         d="M 452.27883,694.2269 C 452.70133,680.0519 448.77758,668.6044 440.11133,662.2094 C 428.28383,653.4819 410.06633,655.96815 390.81633,666.9719"
         style="fill:none;stroke:#f79210;stroke-width:1.64024997;stroke-linecap:butt;stroke-linejoin:miter;stroke-miterlimit:4;stroke-dasharray:none;stroke-opacity:1"
         id="path2480" />
      <path
         d="M 268.76258,757.4719 L 140.23358,757.4719 L 140.23358,774.00565 L 260.10258,774.00565"
         style="fill:#54b948;fill-opacity:1;fill-rule:nonzero;stroke:none"
         id="path2482" />
      <path
         d="M 330.95883,774.00565 L 461.30258,774.00565 L 461.30258,757.4719 L 338.43758,757.4719 C 338.43758,757.4719 332.92633,772.45565 330.95883,774.00565"
         style="fill:#54b948;fill-opacity:1;fill-rule:nonzero;stroke:none"
         id="path2484" />
      <path
         d="M 315.25008,835.5894 C 336.96008,851.60815 380.19883,829.84815 411.82508,786.9894 C 443.45383,744.1294 451.49633,696.3969 429.78633,680.37815 C 408.07758,664.35815 364.84008,686.11815 333.21258,728.9769 C 301.58383,771.8369 293.54258,819.57065 315.25008,835.5894"
         style="fill:#cce310;fill-opacity:1;fill-rule:nonzero;stroke:none"
         id="path2486" />
      <path
         d="M 315.25008,835.5894 C 336.96008,851.60815 380.19883,829.84815 411.82508,786.9894 C 443.45383,744.1294 451.49633,696.3969 429.78633,680.37815 C 408.07758,664.35815 364.84008,686.11815 333.21258,728.9769 C 301.58383,771.8369 293.54258,819.57065 315.25008,835.5894 z"
         style="fill:none;stroke:#cce310;stroke-width:1.18099999;stroke-linecap:butt;stroke-linejoin:miter;stroke-miterlimit:4;stroke-dasharray:none;stroke-opacity:1"
         id="path2488" />
      <path
         d="M 329.18758,807.63315 L 329.17383,807.65065 C 343.06758,817.90315 370.74008,803.97815 390.98258,776.54815 C 411.22383,749.1169 416.37008,718.56815 402.47758,708.31565 C 388.58258,698.0619 360.91008,711.9894 340.67008,739.4194 C 321.93008,764.8119 316.12883,792.87565 326.39008,805.0394 L 329.17383,807.65065"
         style="fill:#ffffff;fill-opacity:1;fill-rule:nonzero;stroke:none"
         id="path2490" />
      <path
         d="M 329.18758,807.63315 L 329.17383,807.65065 C 343.06758,817.90315 370.74008,803.97815 390.98258,776.54815 C 411.22383,749.1169 416.37008,718.56815 402.47758,708.31565 C 388.58258,698.0619 360.91008,711.9894 340.67008,739.4194 C 321.93008,764.8119 316.12883,792.87565 326.39008,805.0394 L 329.17383,807.65065"
         style="fill:none;stroke:#cce310;stroke-width:1.18099999;stroke-linecap:butt;stroke-linejoin:miter;stroke-miterlimit:4;stroke-dasharray:none;stroke-opacity:1"
         id="path2492" />
      <path
         d="M 318.21633,757.4719 L 248.54258,757.4719 C 248.54258,757.4719 238.70133,773.24315 239.88258,774.00565 L 310.73758,774.00565"
         style="fill:#54b948;fill-opacity:1;fill-rule:nonzero;stroke:none"
         id="path2494" />
      <path
         d="M 401.71508,757.4719 L 265.27633,757.4719 C 265.27633,757.4719 255.43508,773.24315 256.61633,774.00565 L 391.67883,774.00565"
         style="fill:#54b948;fill-opacity:1;fill-rule:nonzero;stroke:none"
         id="path2496" />
      <path
         d="M 359.45883,743.65565 C 364.43258,738.0869 369.49883,734.13315 374.65508,731.80065 C 378.28383,730.1594 381.23008,729.6869 383.49258,730.38815 C 385.75508,731.09065 387.04883,732.9319 387.37633,735.91815 C 387.70133,738.9019 387.07133,742.8544 385.48008,747.7744 C 382.96258,755.55315 379.24883,762.3594 374.33883,768.19315 C 369.42758,774.03065 364.23258,778.18565 358.75133,780.6669 C 353.37008,783.1019 349.57383,783.0294 347.36383,780.45065 C 345.15383,777.87315 345.22758,772.94315 347.58383,765.65815 C 350.52508,756.56065 354.48258,749.2269 359.45883,743.65565 z M 338.39258,782.59065 C 338.95133,786.40565 340.82633,788.7669 344.01383,789.67565 C 347.20133,790.5844 351.38508,789.8669 356.56508,787.5219 C 361.34383,785.36065 366.20133,782.10065 371.13633,777.73815 C 376.07133,773.37815 380.44883,768.2644 384.26883,762.3994 C 388.09008,756.5319 390.99258,750.5269 392.98008,744.38315 C 394.94008,738.32565 395.62258,733.3894 395.03008,729.5769 C 394.43508,725.7669 392.53383,723.44815 389.32008,722.62065 C 386.10508,721.79315 381.95758,722.5294 376.87883,724.8269 C 369.12008,728.3369 361.86883,734.04565 355.12633,741.9544 C 348.38258,749.86065 343.38383,758.84065 340.13258,768.8944 C 338.41258,774.2094 337.83133,778.77565 338.39258,782.59065"
         style="fill:#bd1174;fill-opacity:1;fill-rule:nonzero;stroke:none"
         id="path2498" />
      <path
         d="M 359.45883,743.65565 C 364.43258,738.0869 369.49883,734.13315 374.65508,731.80065 C 378.28383,730.1594 381.23008,729.6869 383.49258,730.38815 C 385.75508,731.09065 387.04883,732.9319 387.37633,735.91815 C 387.70133,738.9019 387.07133,742.8544 385.48008,747.7744 C 382.96258,755.55315 379.24883,762.3594 374.33883,768.19315 C 369.42758,774.03065 364.23258,778.18565 358.75133,780.6669 C 353.37008,783.1019 349.57383,783.0294 347.36383,780.45065 C 345.15383,777.87315 345.22758,772.94315 347.58383,765.65815 C 350.52508,756.56065 354.48258,749.2269 359.45883,743.65565 z M 338.39258,782.59065 C 338.95133,786.40565 340.82633,788.7669 344.01383,789.67565 C 347.20133,790.5844 351.38508,789.8669 356.56508,787.5219 C 361.34383,785.36065 366.20133,782.10065 371.13633,777.73815 C 376.07133,773.37815 380.44883,768.2644 384.26883,762.3994 C 388.09008,756.5319 390.99258,750.5269 392.98008,744.38315 C 394.94008,738.32565 395.62258,733.3894 395.03008,729.5769 C 394.43508,725.7669 392.53383,723.44815 389.32008,722.62065 C 386.10508,721.79315 381.95758,722.5294 376.87883,724.8269 C 369.12008,728.3369 361.86883,734.04565 355.12633,741.9544 C 348.38258,749.86065 343.38383,758.84065 340.13258,768.8944 C 338.41258,774.2094 337.83133,778.77565 338.39258,782.59065 z"
         style="fill:none;stroke:#231f20;stroke-width:0.205;stroke-linecap:butt;stroke-linejoin:miter;stroke-miterlimit:4;stroke-dasharray:none;stroke-opacity:1"
         id="path2500" />
      <path
         d="M 444.30008,737.28315 C 446.05758,731.71815 447.34633,726.3144 448.15383,721.1594"
         style="fill:none;stroke:#f79210;stroke-width:1.64024997;stroke-linecap:butt;stroke-linejoin:miter;stroke-miterlimit:4;stroke-dasharray:none;stroke-opacity:1"
         id="path2502" />
      <path
         d="M 293.73258,830.98315 C 295.02633,838.6219 298.21883,844.9369 303.45008,849.34065 C 320.89133,864.02815 355.41133,852.76815 386.39508,824.33065"
         style="fill:none;stroke:#f79210;stroke-width:1.64024997;stroke-linecap:butt;stroke-linejoin:miter;stroke-miterlimit:4;stroke-dasharray:none;stroke-opacity:1"
         id="path2504" />
      <path
         d="M 297.59383,780.70815 C 293.88008,794.69565 292.27883,808.01065 292.75383,819.6694"
         style="fill:none;stroke:#f79210;stroke-width:1.64024997;stroke-linecap:butt;stroke-linejoin:miter;stroke-miterlimit:4;stroke-dasharray:none;stroke-opacity:1"
         id="path2506" />
      <path
         d="M 395.16008,818.05315 C 404.49133,810.0244 413.63383,799.3394 421.76883,786.6344"
         style="fill:none;stroke:#f79210;stroke-width:1.64024997;stroke-linecap:butt;stroke-linejoin:miter;stroke-miterlimit:4;stroke-dasharray:none;stroke-opacity:1"
         id="path2508" />
      <path
         d="M 328.55008,799.27315 L 328.53633,799.2919 C 338.52883,806.6669 355.65508,801.53065 372.01508,787.8544"
         style="fill:none;stroke:#bd1174;stroke-width:1.18099999;stroke-linecap:butt;stroke-linejoin:miter;stroke-miterlimit:4;stroke-dasharray:none;stroke-opacity:1"
         id="path2510" />
      <path
         d="M 399.79133,712.4219 L 399.80508,712.4019 C 393.31258,708.1669 384.32633,708.95565 374.71133,713.6969"
         style="fill:none;stroke:#bd1174;stroke-width:1.18099999;stroke-linecap:butt;stroke-linejoin:miter;stroke-miterlimit:4;stroke-dasharray:none;stroke-opacity:1"
         id="path2512" />
      <path
         d="M 364.06633,757.66565 L 335.81008,757.66565 C 335.81008,757.66565 325.96883,773.4369 327.14883,774.1994 L 353.67883,774.1994"
         style="fill:#54b948;fill-opacity:1;fill-rule:nonzero;stroke:none"
         id="path2514" />
      <path
         d="M 291.40508,730.2269 L 301.84508,730.2519 C 304.29508,730.2569 305.87133,730.46565 306.57883,730.8769 C 307.66008,731.54065 308.11883,732.9044 307.96008,734.96565 C 307.79883,737.0294 307.00008,739.50815 305.56258,742.4019 C 303.57633,746.3994 301.30258,749.49815 298.74258,751.69565 C 296.18258,753.8944 293.15883,754.98815 289.67008,754.98065 L 279.12008,754.9569 L 291.40508,730.2269 z M 260.99133,791.44815 L 275.00258,763.24315 L 285.47383,763.26815 C 291.24633,763.28065 296.25633,761.24065 300.50008,757.1494 C 304.74508,753.05565 308.33883,748.04815 311.28008,742.12815 C 312.99383,738.6794 314.15258,735.51315 314.75633,732.6319 C 315.36008,729.7494 315.38133,727.50815 314.82133,725.9044 C 314.25883,724.3044 313.11633,723.2169 311.39508,722.6419 C 310.18383,722.19565 308.22258,721.96815 305.51133,721.96315 L 290.10383,721.9269 L 255.57258,791.43565 L 260.99133,791.44815"
         style="fill:#bd1174;fill-opacity:1;fill-rule:nonzero;stroke:none"
         id="path2516" />
      <path
         d="M 291.40508,730.2269 L 301.84508,730.2519 C 304.29508,730.2569 305.87133,730.46565 306.57883,730.8769 C 307.66008,731.54065 308.11883,732.9044 307.96008,734.96565 C 307.79883,737.0294 307.00008,739.50815 305.56258,742.4019 C 303.57633,746.3994 301.30258,749.49815 298.74258,751.69565 C 296.18258,753.8944 293.15883,754.98815 289.67008,754.98065 L 279.12008,754.9569 L 291.40508,730.2269 z M 260.99133,791.44815 L 275.00258,763.24315 L 285.47383,763.26815 C 291.24633,763.28065 296.25633,761.24065 300.50008,757.1494 C 304.74508,753.05565 308.33883,748.04815 311.28008,742.12815 C 312.99383,738.6794 314.15258,735.51315 314.75633,732.6319 C 315.36008,729.7494 315.38133,727.50815 314.82133,725.9044 C 314.25883,724.3044 313.11633,723.2169 311.39508,722.6419 C 310.18383,722.19565 308.22258,721.96815 305.51133,721.96315 L 290.10383,721.9269 L 255.57258,791.43565 L 260.99133,791.44815 z"
         style="fill:none;stroke:#231f20;stroke-width:0.205;stroke-linecap:butt;stroke-linejoin:miter;stroke-miterlimit:4;stroke-dasharray:none;stroke-opacity:1"
         id="path2518" />
      <path
         d="M 257.18133,730.3619 L 267.62008,730.3869 C 270.07008,730.39315 271.64633,730.60065 272.35258,731.0119 C 273.43508,731.67565 273.89508,733.0394 273.73633,735.1019 C 273.57383,737.1644 272.77508,739.6419 271.33758,742.5369 C 269.35133,746.5344 267.07883,749.63315 264.51758,751.83065 C 261.95883,754.02815 258.93383,755.12315 255.44508,755.11565 L 244.89508,755.09065 L 257.18133,730.3619 z M 226.76671,791.58315 L 240.77883,763.37815 L 251.24883,763.40315 C 257.02258,763.4169 262.03133,761.3769 266.27508,757.2844 C 270.52008,753.19065 274.11508,748.18315 277.05508,742.26315 C 278.76883,738.81315 279.92758,735.6494 280.53133,732.7669 C 281.13633,729.88565 281.15633,727.64315 280.59633,726.0394 C 280.03383,724.4394 278.89133,723.3519 277.17008,722.7769 C 275.95883,722.33065 273.99758,722.1044 271.28633,722.09815 L 255.88008,722.06315 L 221.3487,791.5694 L 226.76671,791.58315"
         style="fill:#bd1174;fill-opacity:1;fill-rule:nonzero;stroke:none"
         id="path2520" />
      <path
         d="M 257.18133,730.3619 L 267.62008,730.3869 C 270.07008,730.39315 271.64633,730.60065 272.35258,731.0119 C 273.43508,731.67565 273.89508,733.0394 273.73633,735.1019 C 273.57383,737.1644 272.77508,739.6419 271.33758,742.5369 C 269.35133,746.5344 267.07883,749.63315 264.51758,751.83065 C 261.95883,754.02815 258.93383,755.12315 255.44508,755.11565 L 244.89508,755.09065 L 257.18133,730.3619 z M 226.76671,791.58315 L 240.77883,763.37815 L 251.24883,763.40315 C 257.02258,763.4169 262.03133,761.3769 266.27508,757.2844 C 270.52008,753.19065 274.11508,748.18315 277.05508,742.26315 C 278.76883,738.81315 279.92758,735.6494 280.53133,732.7669 C 281.13633,729.88565 281.15633,727.64315 280.59633,726.0394 C 280.03383,724.4394 278.89133,723.3519 277.17008,722.7769 C 275.95883,722.33065 273.99758,722.1044 271.28633,722.09815 L 255.88008,722.06315 L 221.3487,791.5694 L 226.76671,791.58315 z"
         style="fill:none;stroke:#231f20;stroke-width:0.205;stroke-linecap:butt;stroke-linejoin:miter;stroke-miterlimit:4;stroke-dasharray:none;stroke-opacity:1"
         id="path2522" />
      <path
         d="M 188.0397,729.5794 L 198.47858,729.60315 C 200.92733,729.6094 202.50446,729.81815 203.21158,730.2294 C 204.29358,730.8919 204.75358,732.2569 204.59383,734.31815 C 204.4327,736.3819 203.63396,738.8594 202.19595,741.75315 C 200.21008,745.7519 197.93621,748.8494 195.37658,751.0469 C 192.81658,753.24565 189.79208,754.34065 186.30433,754.3319 L 175.75358,754.3069 L 188.0397,729.5794 z M 157.62508,790.7994 L 171.63683,762.59565 L 182.10708,762.6194 C 187.87995,762.63315 192.88933,760.59315 197.13396,756.4994 C 201.37808,752.40815 204.97283,747.3994 207.9137,741.48065 C 209.62758,738.03065 210.78571,734.86565 211.3902,731.98315 C 211.99383,729.1019 212.0152,726.86065 211.45421,725.2569 C 210.8922,723.65565 209.74958,722.56815 208.02796,721.99315 C 206.81745,721.54815 204.85608,721.32065 202.1447,721.31565 L 186.73795,721.2794 L 152.20621,790.7869 L 157.62508,790.7994"
         style="fill:#bd1174;fill-opacity:1;fill-rule:nonzero;stroke:none"
         id="path2524" />
      <path
         d="M 188.0397,729.5794 L 198.47858,729.60315 C 200.92733,729.6094 202.50446,729.81815 203.21158,730.2294 C 204.29358,730.8919 204.75358,732.2569 204.59383,734.31815 C 204.4327,736.3819 203.63396,738.8594 202.19595,741.75315 C 200.21008,745.7519 197.93621,748.8494 195.37658,751.0469 C 192.81658,753.24565 189.79208,754.34065 186.30433,754.3319 L 175.75358,754.3069 L 188.0397,729.5794 z M 157.62508,790.7994 L 171.63683,762.59565 L 182.10708,762.6194 C 187.87995,762.63315 192.88933,760.59315 197.13396,756.4994 C 201.37808,752.40815 204.97283,747.3994 207.9137,741.48065 C 209.62758,738.03065 210.78571,734.86565 211.3902,731.98315 C 211.99383,729.1019 212.0152,726.86065 211.45421,725.2569 C 210.8922,723.65565 209.74958,722.56815 208.02796,721.99315 C 206.81745,721.54815 204.85608,721.32065 202.1447,721.31565 L 186.73795,721.2794 L 152.20621,790.7869 L 157.62508,790.7994 z"
         style="fill:none;stroke:#231f20;stroke-width:0.205;stroke-linecap:butt;stroke-linejoin:miter;stroke-miterlimit:4;stroke-dasharray:none;stroke-opacity:1"
         id="path2526" />
      <path
         d="M 219.14908,742.5219 C 222.28133,738.13815 225.24571,733.6769 228.04358,729.13815 C 226.81795,732.94065 225.3922,737.77065 223.76383,743.63065 L 218.47283,762.9719 L 204.48108,762.94065 L 219.14908,742.5219 z M 184.33758,791.3969 L 199.22958,770.4219 L 216.47421,770.4619 L 210.7237,791.45815 L 216.87608,791.4719 L 234.69345,721.92565 L 228.79071,721.9119 L 178.60408,791.3844 L 184.33758,791.3969"
         style="fill:#bd1174;fill-opacity:1;fill-rule:nonzero;stroke:none"
         id="path2528" />
      <path
         d="M 219.14908,742.5219 C 222.28133,738.13815 225.24571,733.6769 228.04358,729.13815 C 226.81795,732.94065 225.3922,737.77065 223.76383,743.63065 L 218.47283,762.9719 L 204.48108,762.94065 L 219.14908,742.5219 z M 184.33758,791.3969 L 199.22958,770.4219 L 216.47421,770.4619 L 210.7237,791.45815 L 216.87608,791.4719 L 234.69345,721.92565 L 228.79071,721.9119 L 178.60408,791.3844 L 184.33758,791.3969 z"
         style="fill:none;stroke:#231f20;stroke-width:0.205;stroke-linecap:butt;stroke-linejoin:miter;stroke-miterlimit:4;stroke-dasharray:none;stroke-opacity:1"
         id="path2530" />
      <path
         d="M 300.83508,767.55565 L 306.33758,766.76565 C 304.84758,770.2469 303.98633,773.10315 303.75133,775.33565 C 303.51633,777.56815 303.97633,779.3744 305.13258,780.75565 C 306.28758,782.13565 308.01633,782.82815 310.31508,782.8344 C 312.35508,782.83815 314.41758,782.32065 316.50008,781.28065 C 318.58258,780.2394 320.45758,778.81065 322.12258,776.99315 C 323.79008,775.1769 325.15383,773.1994 326.21633,771.06315 C 327.29133,768.8969 327.86508,767.00315 327.93508,765.38565 C 328.00508,763.7669 327.46883,762.40315 326.32258,761.29565 C 325.59633,760.57065 323.75258,759.4394 320.79508,757.90315 C 317.83633,756.3644 315.94008,754.9144 315.10883,753.54565 C 314.01758,751.80065 313.63383,749.6344 313.95633,747.0519 C 314.27883,744.46815 315.23758,741.5744 316.82633,738.3719 C 318.57508,734.8544 320.78883,731.57065 323.47383,728.5169 C 326.15758,725.4619 329.01258,723.1444 332.03883,721.5644 C 335.06258,719.9869 337.94633,719.1994 340.68258,719.2044 C 343.69758,719.2119 345.94258,720.05065 347.41883,721.72315 C 348.89258,723.39565 349.44633,725.8519 349.07758,729.0919 C 348.70758,732.3319 347.55258,735.99815 345.61133,740.0919 L 340.09633,740.74815 C 341.98758,736.38565 342.69133,733.0869 342.20758,730.8519 C 341.72133,728.62065 339.92508,727.4994 336.81508,727.49315 C 333.57633,727.48565 330.71008,728.4969 328.21633,730.52565 C 325.72508,732.5544 323.76883,735.00315 322.34508,737.86815 C 321.10758,740.3569 320.61633,742.40565 320.86883,744.0144 C 321.10008,745.6244 322.97258,747.27565 326.48883,748.9719 C 330.00508,750.6669 332.26758,752.1494 333.27508,753.4144 C 334.72758,755.28315 335.31133,757.6444 335.02758,760.50315 C 334.74133,763.36315 333.67508,766.65315 331.82508,770.3744 C 329.99133,774.0669 327.64258,777.54565 324.78133,780.8094 C 321.92008,784.07315 318.87883,786.61065 315.65883,788.4194 C 312.43758,790.22565 309.37633,791.12815 306.47508,791.1219 C 302.79758,791.11315 300.17008,790.1894 298.59508,788.3494 C 297.02008,786.5094 296.44008,783.7469 296.85633,780.0594 C 297.27383,776.3719 298.59883,772.20565 300.83508,767.55565"
         style="fill:#bd1174;fill-opacity:1;fill-rule:nonzero;stroke:none"
         id="path2532" />
      <path
         d="M 300.83508,767.55565 L 306.33758,766.76565 C 304.84758,770.2469 303.98633,773.10315 303.75133,775.33565 C 303.51633,777.56815 303.97633,779.3744 305.13258,780.75565 C 306.28758,782.13565 308.01633,782.82815 310.31508,782.8344 C 312.35508,782.83815 314.41758,782.32065 316.50008,781.28065 C 318.58258,780.2394 320.45758,778.81065 322.12258,776.99315 C 323.79008,775.1769 325.15383,773.1994 326.21633,771.06315 C 327.29133,768.8969 327.86508,767.00315 327.93508,765.38565 C 328.00508,763.7669 327.46883,762.40315 326.32258,761.29565 C 325.59633,760.57065 323.75258,759.4394 320.79508,757.90315 C 317.83633,756.3644 315.94008,754.9144 315.10883,753.54565 C 314.01758,751.80065 313.63383,749.6344 313.95633,747.0519 C 314.27883,744.46815 315.23758,741.5744 316.82633,738.3719 C 318.57508,734.8544 320.78883,731.57065 323.47383,728.5169 C 326.15758,725.4619 329.01258,723.1444 332.03883,721.5644 C 335.06258,719.9869 337.94633,719.1994 340.68258,719.2044 C 343.69758,719.2119 345.94258,720.05065 347.41883,721.72315 C 348.89258,723.39565 349.44633,725.8519 349.07758,729.0919 C 348.70758,732.3319 347.55258,735.99815 345.61133,740.0919 L 340.09633,740.74815 C 341.98758,736.38565 342.69133,733.0869 342.20758,730.8519 C 341.72133,728.62065 339.92508,727.4994 336.81508,727.49315 C 333.57633,727.48565 330.71008,728.4969 328.21633,730.52565 C 325.72508,732.5544 323.76883,735.00315 322.34508,737.86815 C 321.10758,740.3569 320.61633,742.40565 320.86883,744.0144 C 321.10008,745.6244 322.97258,747.27565 326.48883,748.9719 C 330.00508,750.6669 332.26758,752.1494 333.27508,753.4144 C 334.72758,755.28315 335.31133,757.6444 335.02758,760.50315 C 334.74133,763.36315 333.67508,766.65315 331.82508,770.3744 C 329.99133,774.0669 327.64258,777.54565 324.78133,780.8094 C 321.92008,784.07315 318.87883,786.61065 315.65883,788.4194 C 312.43758,790.22565 309.37633,791.12815 306.47508,791.1219 C 302.79758,791.11315 300.17008,790.1894 298.59508,788.3494 C 297.02008,786.5094 296.44008,783.7469 296.85633,780.0594 C 297.27383,776.3719 298.59883,772.20565 300.83508,767.55565 z"
         style="fill:none;stroke:#231f20;stroke-width:0.205;stroke-linecap:butt;stroke-linejoin:miter;stroke-miterlimit:4;stroke-dasharray:none;stroke-opacity:1"
         id="path2534" />
    </g>
  </g>
</svg>

