<svg viewBox="0 0 396.850393701 206.179913386" width="396.850393701pt" height="206.179913386pt" xmlns="http://www.w3.org/2000/svg" xmlns:xlink="http://www.w3.org/1999/xlink" xmlns:h5="http://www.w3.org/1999/xhtml"><path fill="#ffffff" fill-rule="nonzero" d="M 0 0v 206.179913386h 396.850393701v -206.179913386Z "/><g transform="translate(28.346456693 28.346456693)"><g transform="matrix(1 0 0 -1 0 9.933)"><use xlink:href="#g9F849EDE5F192DD0842AC0C8F7F32A85" x="0" y="0" fill="#000000" fill-rule="nonzero"/><use xlink:href="#g1797D2DF762B4BD2905A65B3C966A3EF" x="9.3786" y="0" fill="#000000" fill-rule="nonzero"/><use xlink:href="#g8D87BB1E6931CE5DBAF4138A3DE9A54D" x="18.018" y="0" fill="#000000" fill-rule="nonzero"/><use xlink:href="#gC0EBBBD6F3DBCA85D31CDC275B71A469" x="25.5486" y="0" fill="#000000" fill-rule="nonzero"/><use xlink:href="#g2234B4E8F53D34CD82162BC6EB922EF6" x="32.0166" y="0" fill="#000000" fill-rule="nonzero"/><use xlink:href="#g637506313BAA6F72BE9B7E1619C4BE2A" x="39.039" y="0" fill="#000000" fill-rule="nonzero"/><use xlink:href="#g476124418761C934B95A35B0D3C20E07" x="43.9978" y="0" fill="#000000" fill-rule="nonzero"/><use xlink:href="#g8D87BB1E6931CE5DBAF4138A3DE9A54D" x="50.5736" y="0" fill="#000000" fill-rule="nonzero"/><use xlink:href="#g7DEFC93E29F07BFBFDBC7F15AAA2BBEC" x="61.9542" y="0" fill="#000000" fill-rule="nonzero"/><use xlink:href="#g6476F0F7E4418F1157BCC40DDC3BB78C" x="72.0258" y="0" fill="#000000" fill-rule="nonzero"/><use xlink:href="#g4FEFAF4942145E28B4DD233C130B45D2" x="79.8182" y="0" fill="#000000" fill-rule="nonzero"/><use xlink:href="#g660CBC06198193C8FBC3E875C828F867" x="89.3046" y="0" fill="#000000" fill-rule="nonzero"/></g></g><g transform="translate(28.346456693 54.119456693)"><g transform="matrix(1 0 0 -1 0 8.514)"><use xlink:href="#g21DD225C990377927400E6B929E525B9" x="0" y="0" fill="#000000" fill-rule="nonzero"/><use xlink:href="#g3C74A4D05653FE58EC9F9D18E132A9C" x="6.6528" y="0" fill="#000000" fill-rule="nonzero"/><use xlink:href="#g3EE5FCB8C53F0B32CE565FC030BC4E05" x="13.1076" y="0" fill="#000000" fill-rule="nonzero"/><use xlink:href="#g3C74A4D05653FE58EC9F9D18E132A9C" x="17.3976" y="0" fill="#000000" fill-rule="nonzero"/><use xlink:href="#g6151B457BEE4F4F54666E14A6443B417" x="23.9448" y="0" fill="#000000" fill-rule="nonzero"/><use xlink:href="#g7E36569BD456FFBB71649A22C7DD8BCF" x="29.964" y="0" fill="#000000" fill-rule="nonzero"/><use xlink:href="#g3C74A4D05653FE58EC9F9D18E132A9C" x="34.6896" y="0" fill="#000000" fill-rule="nonzero"/><use xlink:href="#g93BCD9A004ECA1FDE0182538D75E2CF8" x="41.2368" y="0" fill="#000000" fill-rule="nonzero"/><use xlink:href="#g9D2288B893825623302D94C22DEBC61F" x="51.942" y="0" fill="#000000" fill-rule="nonzero"/><use xlink:href="#g61142A6DF4A3D51B9B15DFF38E7D1B78" x="59.9808" y="0" fill="#000000" fill-rule="nonzero"/><use xlink:href="#g3C74A4D05653FE58EC9F9D18E132A9C" x="67.386" y="0" fill="#000000" fill-rule="nonzero"/><use xlink:href="#gAB7A56E2DF20A7C8C7BC9B85DB7E88D7" x="73.8408" y="0" fill="#000000" fill-rule="nonzero"/><use xlink:href="#g6151B457BEE4F4F54666E14A6443B417" x="79.3848" y="0" fill="#000000" fill-rule="nonzero"/><use xlink:href="#g489A14AC9D4233C26CC9E520DD834A83" x="85.404" y="0" fill="#000000" fill-rule="nonzero"/><use xlink:href="#gDC2D39740434C691032F59BEC232B74F" x="89.6544" y="0" fill="#000000" fill-rule="nonzero"/><use xlink:href="#g3C74A4D05653FE58EC9F9D18E132A9C" x="95.2908" y="0" fill="#000000" fill-rule="nonzero"/><use xlink:href="#gDC2D39740434C691032F59BEC232B74F" x="101.7456" y="0" fill="#000000" fill-rule="nonzero"/></g></g><g transform="translate(28.346456693 71.433456693)"><g transform="translate(41.908)"><g><path fill="#ffffff" fill-rule="nonzero" stroke="#000000" stroke-width="0.8" stroke-linecap="butt" stroke-linejoin="miter" stroke-miterlimit="4" d="M 0 0v 20h 62.444v -20Z "/><g transform="matrix(1 0 0 -1 4 13.87)"><use xlink:href="#g71810B677EEE634316EAB71F2F5BD9A8" x="0" y="0" fill="#000000" fill-rule="nonzero"/><use xlink:href="#g898F8D390A5BE9CA3FA6421EA60BDB40" x="7.308" y="0" fill="#000000" fill-rule="nonzero"/><use xlink:href="#gE18113BE1243CA6EC5596891CC422939" x="14.04" y="0" fill="#000000" fill-rule="nonzero"/><use xlink:href="#g56D9AC69DF1E60AEC4FA898FA388366B" x="19.908" y="0" fill="#000000" fill-rule="nonzero"/><use xlink:href="#gEF03CC905B39DF2CE13E9EED9CECE9CC" x="24.948" y="0" fill="#000000" fill-rule="nonzero"/><use xlink:href="#g1094D23D321B642DA133CC49B1BA1EB9" x="30.42" y="0" fill="#000000" fill-rule="nonzero"/><use xlink:href="#g93ED4154508DB3ADD21415419B103611" x="34.284" y="0" fill="#000000" fill-rule="nonzero"/><use xlink:href="#gE18113BE1243CA6EC5596891CC422939" x="39.408" y="0" fill="#000000" fill-rule="nonzero"/><use xlink:href="#gFCFAD84E8A4521C99D93A9F0049D8745" x="48.276" y="0" fill="#000000" fill-rule="nonzero"/></g></g></g><g transform="translate(110.352)"><g transform="matrix(1 0 0 -1 0 10.513)"><use xlink:href="#gD355BF4F81D64465081A1B40E1986DB4" x="0" y="0" fill="#000000" fill-rule="nonzero"/><use xlink:href="#g5E76F8DBE7C3C7A9A461E8EC1D70F6FB" x="5.335" y="0" fill="#000000" fill-rule="nonzero"/><use xlink:href="#g36F90904A4043C6A677E73471A30013F" x="10.879" y="0" fill="#000000" fill-rule="nonzero"/><use xlink:href="#g1E471D2E98C4E85A3CE47F56E86025C4" x="13.783" y="0" fill="#000000" fill-rule="nonzero"/><use xlink:href="#gBFE09989B12480F1B7796D69E0D7287C" x="19.162" y="0" fill="#000000" fill-rule="nonzero"/></g><g transform="matrix(1 0 0 -1 26.829 10.513)"><use xlink:href="#g7FDD4349A49914F62F30F23AE9794251" x="0" y="0" fill="#000000" fill-rule="nonzero"/></g><g transform="matrix(1 0 0 -1 33.121 6.52)"><use xlink:href="#g25B224D96CA3F5CCC7E774117FEA026D" x="0" y="0" fill="#000000" fill-rule="nonzero"/></g><g transform="matrix(1 0 0 -1 40.562744444 10.513)"><use xlink:href="#g6CA3708905D5D56BD06755CEABD69DE1" x="0" y="0" fill="#000000" fill-rule="nonzero"/></g><g transform="matrix(1 0 0 -1 51.565188889 10.513)"><use xlink:href="#g8894C0A608DBD285706C131FF554A2B1" x="0" y="0" fill="#000000" fill-rule="nonzero"/></g><g transform="matrix(1 0 0 -1 57.065188889 10.513)"><use xlink:href="#g7FDD4349A49914F62F30F23AE9794251" x="0" y="0" fill="#000000" fill-rule="nonzero"/></g><g transform="matrix(1 0 0 -1 65.801633333 10.513)"><use xlink:href="#gDDD45F8C02017DD13480202EA2B099EF" x="0" y="0" fill="#000000" fill-rule="nonzero"/></g><g transform="matrix(1 0 0 -1 76.804077778 10.513)"><use xlink:href="#gA754BD559092BEFA127826A2A25BC17" x="0" y="0" fill="#000000" fill-rule="nonzero"/></g><g transform="matrix(1 0 0 -1 85.359633333 10.513)"><use xlink:href="#g2389F7618E8CE27CC7151A1D8E5DEAD4" x="0" y="0" fill="#000000" fill-rule="nonzero"/></g><g transform="matrix(1 0 0 -1 96.973188889 10.513)"><use xlink:href="#g5DF7FDD026DB928A9BECE5CB45FEF99F" x="0" y="0" fill="#000000" fill-rule="nonzero"/></g><g transform="matrix(1 0 0 -1 102.473188889 10.513)"><use xlink:href="#g4C1ED41FE02ABB1BA3896D4213CC7460" x="0" y="0" fill="#000000" fill-rule="nonzero"/></g></g></g><g transform="translate(28.346456693 100.233456693)"><g transform="translate(41.284)"><g><path fill="#e4ebe6" fill-rule="nonzero" stroke="#4a7c59" stroke-width="0.8" stroke-linecap="butt" stroke-linejoin="miter" stroke-miterlimit="4" d="M 0 0v 20h 63.068v -20Z "/><g transform="matrix(1 0 0 -1 4 13.87)"><use xlink:href="#gA421F3DD5F2809E5ED8290B7EF6AAC43" x="0" y="0" fill="#4a7c59" fill-rule="nonzero"/><use xlink:href="#g482B6484D8169192ED302BC1FABC0EB8" x="6.048" y="0" fill="#4a7c59" fill-rule="nonzero"/><use xlink:href="#g966BE685B7523A33FA7C5091B1A7882" x="12.66" y="0" fill="#4a7c59" fill-rule="nonzero"/><use xlink:href="#gC76A03CC6B2F66C4058A56BA6A9EE20" x="16.56" y="0" fill="#4a7c59" fill-rule="nonzero"/><use xlink:href="#g3E13159425B4C5FA6BE9D46173183F7B" x="23.736" y="0" fill="#4a7c59" fill-rule="nonzero"/><use xlink:href="#g1094D23D321B642DA133CC49B1BA1EB9" x="28.032" y="0" fill="#4a7c59" fill-rule="nonzero"/><use xlink:href="#g482B6484D8169192ED302BC1FABC0EB8" x="31.896" y="0" fill="#4a7c59" fill-rule="nonzero"/><use xlink:href="#g3C2E9715FB9D690A986B8F0D57F3007C" x="38.508" y="0" fill="#4a7c59" fill-rule="nonzero"/><use xlink:href="#gFCFAD84E8A4521C99D93A9F0049D8745" x="48.9" y="0" fill="#4a7c59" fill-rule="nonzero"/></g></g></g><g transform="translate(110.352)"><g transform="matrix(1 0 0 -1 0 10.513)"><use xlink:href="#g7FDD4349A49914F62F30F23AE9794251" x="0" y="0" fill="#000000" fill-rule="nonzero"/></g><g transform="matrix(1 0 0 -1 9.347555556 10.513)"><use xlink:href="#g2389F7618E8CE27CC7151A1D8E5DEAD4" x="0" y="0" fill="#000000" fill-rule="nonzero"/></g><g transform="matrix(1 0 0 -1 20.961111111 10.513)"><use xlink:href="#g847DCE2A3EE7D23E3D551BDE0EE8A683" x="0" y="0" fill="#000000" fill-rule="nonzero"/></g><g transform="matrix(1 0 0 -1 26.461111111 10.513)"><use xlink:href="#g5E76F8DBE7C3C7A9A461E8EC1D70F6FB" x="2.75" y="0" fill="#000000" fill-rule="nonzero"/><use xlink:href="#gD91D82170ED5F219BEA1B53E81DC19AF" x="8.294" y="0" fill="#000000" fill-rule="nonzero"/></g><g transform="matrix(1 0 0 -1 41.597111111 10.513)"><use xlink:href="#g7FDD4349A49914F62F30F23AE9794251" x="0" y="0" fill="#000000" fill-rule="nonzero"/></g><g transform="matrix(1 0 0 -1 50.944666667 10.513)"><use xlink:href="#g2389F7618E8CE27CC7151A1D8E5DEAD4" x="0" y="0" fill="#000000" fill-rule="nonzero"/></g><g transform="matrix(1 0 0 -1 62.558222222 10.513)"><use xlink:href="#g93E2B88EAD8DFDF0BE4D6467DB923DB5" x="0" y="0" fill="#000000" fill-rule="nonzero"/></g></g></g><g transform="translate(28.346456693 129.033456693)"><g transform="translate(41.908)"><g><path fill="#ffffff" fill-rule="nonzero" stroke="#000000" stroke-width="0.8" stroke-linecap="butt" stroke-linejoin="miter" stroke-miterlimit="4" d="M 0 0v 20h 62.444v -20Z "/><g transform="matrix(1 0 0 -1 4 13.87)"><use xlink:href="#g71810B677EEE634316EAB71F2F5BD9A8" x="0" y="0" fill="#000000" fill-rule="nonzero"/><use xlink:href="#g898F8D390A5BE9CA3FA6421EA60BDB40" x="7.308" y="0" fill="#000000" fill-rule="nonzero"/><use xlink:href="#gE18113BE1243CA6EC5596891CC422939" x="14.04" y="0" fill="#000000" fill-rule="nonzero"/><use xlink:href="#g56D9AC69DF1E60AEC4FA898FA388366B" x="19.908" y="0" fill="#000000" fill-rule="nonzero"/><use xlink:href="#gEF03CC905B39DF2CE13E9EED9CECE9CC" x="24.948" y="0" fill="#000000" fill-rule="nonzero"/><use xlink:href="#g1094D23D321B642DA133CC49B1BA1EB9" x="30.42" y="0" fill="#000000" fill-rule="nonzero"/><use xlink:href="#g93ED4154508DB3ADD21415419B103611" x="34.284" y="0" fill="#000000" fill-rule="nonzero"/><use xlink:href="#gE18113BE1243CA6EC5596891CC422939" x="39.408" y="0" fill="#000000" fill-rule="nonzero"/><use xlink:href="#g6A6B3E3381055DAC4DAE42A1F0D08F9F" x="48.276" y="0" fill="#000000" fill-rule="nonzero"/></g></g></g><g transform="translate(110.352)"><g transform="matrix(1 0 0 -1 0 10.238)"><use xlink:href="#g3BC6300649CA32A3B6F5E66435D77781" x="0" y="0" fill="#000000" fill-rule="nonzero"/><use xlink:href="#gDD50B131DFBA2C7EA73123CA4C98C33" x="5.335" y="0" fill="#000000" fill-rule="nonzero"/><use xlink:href="#gEB245AFE22C398BE296AC5F7AF6ADF12" x="8.316" y="0" fill="#000000" fill-rule="nonzero"/><use xlink:href="#g7FF42B92D9D80783DC2C1CC317042C56" x="14.278" y="0" fill="#000000" fill-rule="nonzero"/><use xlink:href="#gB38329E71763B8BD4CF776D24C5AFFE1" x="22.594" y="0" fill="#000000" fill-rule="nonzero"/><use xlink:href="#g525D29E90AD4E5DCC336104F62B1760B" x="26.07" y="0" fill="#000000" fill-rule="nonzero"/><use xlink:href="#gBFE09989B12480F1B7796D69E0D7287C" x="31.988" y="0" fill="#000000" fill-rule="nonzero"/><use xlink:href="#g9787446D80B11CDE2529516BF2D1ACCA" x="39.655" y="0" fill="#000000" fill-rule="nonzero"/><use xlink:href="#gD91D82170ED5F219BEA1B53E81DC19AF" x="44.682" y="0" fill="#000000" fill-rule="nonzero"/><use xlink:href="#gBFE09989B12480F1B7796D69E0D7287C" x="48.686" y="0" fill="#000000" fill-rule="nonzero"/><use xlink:href="#g9787446D80B11CDE2529516BF2D1ACCA" x="53.603" y="0" fill="#000000" fill-rule="nonzero"/><use xlink:href="#g5E76F8DBE7C3C7A9A461E8EC1D70F6FB" x="61.38" y="0" fill="#000000" fill-rule="nonzero"/><use xlink:href="#gD14A2C15FA7E7E6DA17092C3143CABC8" x="66.924" y="0" fill="#000000" fill-rule="nonzero"/><use xlink:href="#g9787446D80B11CDE2529516BF2D1ACCA" x="73.084" y="0" fill="#000000" fill-rule="nonzero"/><use xlink:href="#g3CE57ED74C3DBA63F54F2735C0855367" x="80.861" y="0" fill="#000000" fill-rule="nonzero"/><use xlink:href="#gDD50B131DFBA2C7EA73123CA4C98C33" x="85.569" y="0" fill="#000000" fill-rule="nonzero"/><use xlink:href="#gD91D82170ED5F219BEA1B53E81DC19AF" x="88.55" y="0" fill="#000000" fill-rule="nonzero"/><use xlink:href="#g3CE57ED74C3DBA63F54F2735C0855367" x="92.554" y="0" fill="#000000" fill-rule="nonzero"/><use xlink:href="#g36F90904A4043C6A677E73471A30013F" x="97.262" y="0" fill="#000000" fill-rule="nonzero"/><use xlink:href="#gBFE09989B12480F1B7796D69E0D7287C" x="100.166" y="0" fill="#000000" fill-rule="nonzero"/><use xlink:href="#g162FFC49A5D51E5E20A023FB65F6BB60" x="107.833" y="0" fill="#000000" fill-rule="nonzero"/><use xlink:href="#gDD50B131DFBA2C7EA73123CA4C98C33" x="116.05" y="0" fill="#000000" fill-rule="nonzero"/><use xlink:href="#gB38329E71763B8BD4CF776D24C5AFFE1" x="119.031" y="0" fill="#000000" fill-rule="nonzero"/><use xlink:href="#g525D29E90AD4E5DCC336104F62B1760B" x="122.507" y="0" fill="#000000" fill-rule="nonzero"/><use xlink:href="#gD91D82170ED5F219BEA1B53E81DC19AF" x="131.175" y="0" fill="#000000" fill-rule="nonzero"/><use xlink:href="#g9787446D80B11CDE2529516BF2D1ACCA" x="135.267" y="0" fill="#000000" fill-rule="nonzero"/><use xlink:href="#g7FF42B92D9D80783DC2C1CC317042C56" x="140.294" y="0" fill="#000000" fill-rule="nonzero"/><use xlink:href="#gDD50B131DFBA2C7EA73123CA4C98C33" x="145.86" y="0" fill="#000000" fill-rule="nonzero"/><use xlink:href="#g8FE23DF7094EE2D558758B421CB0DF33" x="148.841" y="0" fill="#000000" fill-rule="nonzero"/><use xlink:href="#g4E5D026409004C23B788CF76C0C2AF69" x="154.682" y="0" fill="#000000" fill-rule="nonzero"/><use xlink:href="#g11CDB088C8E2186077BDC4630970361A" x="161.722" y="0" fill="#000000" fill-rule="nonzero"/><use xlink:href="#g4C1ED41FE02ABB1BA3896D4213CC7460" x="166.837" y="0" fill="#000000" fill-rule="nonzero"/></g></g></g><g transform="translate(28.346456693 157.833456693)"><g transform="translate(41.284)"><g><path fill="#e4ebe6" fill-rule="nonzero" stroke="#4a7c59" stroke-width="0.8" stroke-linecap="butt" stroke-linejoin="miter" stroke-miterlimit="4" d="M 0 0v 20h 63.068v -20Z "/><g transform="matrix(1 0 0 -1 4 13.87)"><use xlink:href="#gA421F3DD5F2809E5ED8290B7EF6AAC43" x="0" y="0" fill="#4a7c59" fill-rule="nonzero"/><use xlink:href="#g482B6484D8169192ED302BC1FABC0EB8" x="6.048" y="0" fill="#4a7c59" fill-rule="nonzero"/><use xlink:href="#g966BE685B7523A33FA7C5091B1A7882" x="12.66" y="0" fill="#4a7c59" fill-rule="nonzero"/><use xlink:href="#gC76A03CC6B2F66C4058A56BA6A9EE20" x="16.56" y="0" fill="#4a7c59" fill-rule="nonzero"/><use xlink:href="#g3E13159425B4C5FA6BE9D46173183F7B" x="23.736" y="0" fill="#4a7c59" fill-rule="nonzero"/><use xlink:href="#g1094D23D321B642DA133CC49B1BA1EB9" x="28.032" y="0" fill="#4a7c59" fill-rule="nonzero"/><use xlink:href="#g482B6484D8169192ED302BC1FABC0EB8" x="31.896" y="0" fill="#4a7c59" fill-rule="nonzero"/><use xlink:href="#g3C2E9715FB9D690A986B8F0D57F3007C" x="38.508" y="0" fill="#4a7c59" fill-rule="nonzero"/><use xlink:href="#g6A6B3E3381055DAC4DAE42A1F0D08F9F" x="48.9" y="0" fill="#4a7c59" fill-rule="nonzero"/></g></g></g><g transform="translate(110.352)"><g transform="matrix(1 0 0 -1 0 10.513)"><use xlink:href="#gDD78C4AC18CD51C41481EB0565E89892" x="0" y="0" fill="#000000" fill-rule="nonzero"/></g><g transform="matrix(1 0 0 -1 11.305555556 10.513)"><use xlink:href="#g2389F7618E8CE27CC7151A1D8E5DEAD4" x="0" y="0" fill="#000000" fill-rule="nonzero"/></g><g transform="matrix(1 0 0 -1 22.919111111 10.513)"><use xlink:href="#g85203C193CE53EF3093DD914D5338948" x="0" y="0" fill="#000000" fill-rule="nonzero"/></g><g transform="matrix(1 0 0 -1 29.464111111 10.513)"><use xlink:href="#g48A08B2AB87B0C0252D7C6679420B3F2" x="0" y="0" fill="#000000" fill-rule="nonzero"/></g><g transform="matrix(1 0 0 -1 34.568111111 6.52)"><use xlink:href="#g25B224D96CA3F5CCC7E774117FEA026D" x="0" y="0" fill="#000000" fill-rule="nonzero"/></g><g transform="matrix(1 0 0 -1 42.620966667 10.513)"><use xlink:href="#g2389F7618E8CE27CC7151A1D8E5DEAD4" x="0" y="0" fill="#000000" fill-rule="nonzero"/></g><g transform="matrix(1 0 0 -1 54.234522222 10.513)"><use xlink:href="#g847DCE2A3EE7D23E3D551BDE0EE8A683" x="0" y="0" fill="#000000" fill-rule="nonzero"/></g><g transform="matrix(1 0 0 -1 59.734522222 10.513)"><use xlink:href="#g8894C0A608DBD285706C131FF554A2B1" x="0" y="0" fill="#000000" fill-rule="nonzero"/></g><g transform="matrix(1 0 0 -1 65.234522222 10.513)"><use xlink:href="#g85203C193CE53EF3093DD914D5338948" x="0" y="0" fill="#000000" fill-rule="nonzero"/></g></g></g><defs><symbol id="g9F849EDE5F192DD0842AC0C8F7F32A85" overflow="visible"><path d="M 0 0m 4.9742 5.621h -1.2474v 2.9106c 0 0.3696 0.2618 0.7546 0.6314 0.7546h 1.309c 1.155 0 1.4784 -0.5852 1.8172 -1.6478c 0.1848 -0.0308 0.5082 0 0.6622 0.077c -0.077 0.6314 -0.154 2.1098 -0.1848 2.233c 0 0.0308 -0.0154 0.0462 -0.0616 0.0462c -0.2618 -0.0462 -0.385 -0.0616 -0.7546 -0.0616h -4.543c 0 0 -1.6016 0.0154 -2.3716 0.0308c -0.0924 -0.0924 -0.0924 -0.4312 0 -0.5236c 1.078 -0.0462 1.3398 -0.1232 1.3398 -1.4014v -6.16c 0 -1.2782 -0.2618 -1.3398 -1.3398 -1.386c -0.0924 -0.0924 -0.0924 -0.4312 0 -0.5236c 0.7546 0.0154 2.387 0.0308 2.387 0.0308h 3.619c 0.7392 0 2.1252 -0.0308 2.1252 -0.0308c 0.2156 0.77 0.2926 1.7864 0.4158 2.5718c -0.154 0.0924 -0.4928 0.1232 -0.693 0.077c -0.308 -1.1088 -1.001 -1.9712 -2.1714 -1.9712h -1.5554c -0.3388 0 -0.6314 0.3234 -0.6314 0.7392v 3.5266h 1.2474c 1.0626 0 1.3552 -0.2926 1.4014 -0.9856c 0.0924 -0.0924 0.5698 -0.0924 0.6622 0c -0.0154 0.539 -0.0308 0.8316 -0.0308 1.3552c 0 0.5236 0.0154 0.8624 0.0308 1.3244c -0.0924 0.0924 -0.5698 0.0924 -0.6622 0c -0.0462 -0.847 -0.3696 -0.9856 -1.4014 -0.9856Z "/></symbol><symbol id="g1797D2DF762B4BD2905A65B3C966A3EF" overflow="visible"><path d="M 0 0m 2.8182 1.1242l 0.9548 1.3398c 0.0616 0.077 0.1078 0.1232 0.154 0.0462l 0.7392 -1.4014c 0.2618 -0.4928 0.1078 -0.539 -0.4312 -0.616c -0.0924 -0.0924 -0.0924 -0.4312 0 -0.5236c 0.308 0.0154 1.2782 0.0308 2.0944 0.0308c 0.8008 0 1.7556 -0.0154 2.0636 -0.0308c 0.0924 0.0924 0.0924 0.4312 0 0.5236c -0.5698 0.0924 -1.0934 0.2926 -1.5862 1.0318l -1.3552 2.0174c -0.077 0.1232 -0.077 0.1694 -0.0308 0.231l 1.3706 1.6632c 0.4312 0.5236 0.9856 0.7084 1.463 0.7546c 0.0924 0.0924 0.0924 0.4312 0 0.5236c -0.308 -0.0154 -0.7854 -0.0308 -1.2936 -0.0308c -0.6006 0 -1.232 0.0154 -1.54 0.0308c -0.0924 -0.0924 -0.0924 -0.4312 0 -0.5236c 0.5544 -0.0462 0.6776 -0.2156 0.3696 -0.6622l -0.8316 -1.1858c -0.0462 -0.077 -0.1232 -0.077 -0.1848 0.0308l -0.693 1.1704c -0.3234 0.5544 -0.1232 0.5852 0.462 0.6468c 0.0924 0.0924 0.0924 0.4312 0 0.5236c -0.308 -0.0154 -1.309 -0.0308 -2.156 -0.0308c -0.7546 0 -1.6324 0.0154 -1.9404 0.0308c -0.0924 -0.0924 -0.0924 -0.4312 0 -0.5236c 0.693 0 1.001 -0.4158 1.4322 -1.0318l 1.3706 -1.9558c 0.0462 -0.0616 0.0462 -0.1232 -0.0462 -0.231l -1.4168 -1.7556c -0.385 -0.4928 -1.0626 -0.6622 -1.5246 -0.7238c -0.0924 -0.0924 -0.0924 -0.4312 0 -0.5236c 0.308 0.0154 0.7854 0.0308 1.2782 0.0308c 0.6622 0 1.386 -0.0154 1.694 -0.0308c 0.0924 0.0924 0.0924 0.4312 0 0.5236c -0.2772 0.0616 -0.7546 0.154 -0.4158 0.6314Z "/></symbol><symbol id="g8D87BB1E6931CE5DBAF4138A3DE9A54D" overflow="visible"><path d="M 0 0m 6.6374 1.9866c -0.6314 -0.6468 -1.463 -0.8162 -2.0482 -0.8162c -1.2012 0 -1.9404 0.693 -1.9404 2.2022c 0 0.1078 0.0154 0.1694 0.0154 0.2464h 3.696c 0.3696 0 0.4466 0.2618 0.4466 0.4774c 0 1.309 -0.5082 2.7412 -2.772 2.7412c -1.617 0 -3.465 -1.4322 -3.465 -3.7884c 0 -0.8932 0.3234 -1.8326 0.9856 -2.4332c 0.5852 -0.5236 1.3398 -0.77 2.4332 -0.77c 1.0626 0 2.1098 0.539 2.8798 1.6632c 0 0.2002 -0.077 0.4774 -0.231 0.4774Z m -3.9116 2.2484c 0.0154 0.539 0.0924 1.1242 0.308 1.4322c 0.2464 0.3696 0.6622 0.5236 0.8316 0.5236c 0.4158 0 0.9856 -0.4004 0.9856 -1.6324c 0 -0.0924 0 -0.2926 -0.0308 -0.3234Z "/></symbol><symbol id="gC0EBBBD6F3DBCA85D31CDC275B71A469" overflow="visible"><path d="M 0 0m 3.5112 4.1272c 0 0.5544 0.1694 0.7854 0.3696 1.0164c 0.1232 0.154 0.2618 0.2618 0.4928 0.2618c 0.1386 0 0.308 -0.1386 0.4312 -0.2926c 0.1078 -0.1232 0.3696 -0.2464 0.7238 -0.2464c 0.4466 0 0.8778 0.462 0.8778 1.1088c 0 0.4004 -0.462 0.8624 -1.0164 0.8624c -0.539 0 -1.1242 -0.462 -1.8326 -1.4784h -0.0616c -0.0308 0.462 -0.1078 1.2166 -0.1078 1.2166c -0.0154 0.1386 -0.1386 0.2618 -0.3542 0.2618c -0.7238 -0.1848 -1.54 -0.4004 -2.5564 -0.5082c -0.0308 -0.0924 0 -0.385 0.0308 -0.4774c 0.847 -0.077 1.001 -0.2156 1.001 -1.0934v -2.8798c 0 -1.2782 -0.1694 -1.309 -1.1088 -1.386c -0.0924 -0.0924 -0.0924 -0.4312 0 -0.5236c 0.6468 0.0154 1.2936 0.0308 2.1098 0.0308c 0.8162 0 1.4476 -0.0154 2.1098 -0.0308c 0.0924 0.0924 0.0924 0.4312 0 0.5236c -0.9394 0.0616 -1.1088 0.1078 -1.1088 1.386Z "/></symbol><symbol id="g2234B4E8F53D34CD82162BC6EB922EF6" overflow="visible"><path d="M 0 0m 6.4988 1.3398c 0 0.1848 -0.0308 0.4774 -0.2002 0.4774c -0.616 -0.5698 -1.1396 -0.8624 -1.5862 -0.8624c -1.155 0 -2.0636 0.8316 -2.0636 2.6796c 0 1.7094 0.385 2.5564 1.2012 2.5564c 0.5698 0 0.8008 -0.6006 0.847 -1.0934c 0.0462 -0.4158 0.462 -0.7238 0.9548 -0.7238c 0.4928 0 0.847 0.385 0.847 0.8624c 0 0.693 -0.8316 1.6016 -2.5102 1.6016c -1.8172 0 -3.4188 -1.463 -3.4188 -3.7422c 0 -1.001 0.3542 -1.8788 0.9548 -2.4486c 0.6006 -0.5698 1.309 -0.8008 2.4024 -0.8008c 0.924 0 1.9866 0.6468 2.5718 1.4938Z "/></symbol><symbol id="g637506313BAA6F72BE9B7E1619C4BE2A" overflow="visible"><path d="M 0 0m 3.5728 1.8788v 3.0646c 0 0.77 0.0616 1.6324 0.0616 1.6324c 0 0.1694 -0.1386 0.2618 -0.3542 0.2618c -0.4312 -0.1694 -1.6786 -0.2926 -2.7412 -0.4312c -0.0308 -0.0924 0 -0.4004 0.0308 -0.4928c 0.847 -0.077 1.001 -0.2002 1.001 -1.078v -2.9568c 0 -1.2782 -0.1694 -1.309 -1.1088 -1.386c -0.0924 -0.0924 -0.0924 -0.4312 0 -0.5236c 0.6468 0.0154 1.2936 0.0308 2.1098 0.0308c 0.8162 0 1.4476 -0.0154 2.1098 -0.0308c 0.0924 0.0924 0.0924 0.4312 0 0.5236c -0.9394 0.0616 -1.1088 0.1078 -1.1088 1.386Z m -2.079 7.2996c 0 -0.5082 0.3696 -1.0164 0.9856 -1.0164c 0.693 0 1.0934 0.5544 1.0934 0.9548c 0 0.462 -0.3542 1.0164 -1.001 1.0164c -0.7238 0 -1.078 -0.4928 -1.078 -0.9548Z "/></symbol><symbol id="g476124418761C934B95A35B0D3C20E07" overflow="visible"><path d="M 0 0m 0.7392 2.2484c 0.0616 -0.7546 0.1386 -1.4784 0.2618 -2.0636c 0.2926 -0.0924 1.2782 -0.3388 2.1406 -0.3388c 1.1858 0 2.6642 0.6468 2.6642 1.9866c 0 0.5236 -0.1232 0.9394 -0.4774 1.3244c -0.4312 0.4928 -1.078 0.8778 -1.7864 1.1858c -0.616 0.2618 -0.8316 0.7546 -0.8316 1.2012c 0 0.3542 0.2926 0.6468 0.7392 0.6468c 0.539 0 1.0626 -0.4928 1.4476 -1.4322c 0.2772 -0.0462 0.4466 -0.0308 0.6006 0.077c 0 0.5544 -0.0616 1.1396 -0.2002 1.6324c -0.4928 0.2156 -0.8778 0.3696 -1.7248 0.3696c -0.8162 0 -1.5862 -0.308 -2.079 -0.8008c -0.3542 -0.3542 -0.5236 -0.7854 -0.5236 -1.2012c 0 -0.462 0.1848 -0.8316 0.4774 -1.155c 0.4774 -0.5236 1.3244 -1.0626 1.7864 -1.2782c 0.616 -0.2772 0.7854 -0.8316 0.7854 -1.2012c 0 -0.4928 -0.4928 -0.7546 -0.9086 -0.7546c -0.693 0 -1.4322 0.7084 -1.7556 1.8326c -0.2464 0.0462 -0.3696 0.0308 -0.616 -0.0308Z "/></symbol><symbol id="g7DEFC93E29F07BFBFDBC7F15AAA2BBEC" overflow="visible"><path d="M 0 0m 2.6642 9.933c -0.616 0 -2.3716 0.0308 -2.3716 0.0308c -0.154 -0.0924 -0.154 -0.4312 0 -0.5236c 0.847 -0.0462 1.2782 -0.1078 1.2782 -1.386v -6.1754c 0 -1.2782 -0.4312 -1.3398 -1.2782 -1.386c -0.154 -0.0924 -0.154 -0.4312 0 -0.5236c 0 0 1.7556 0.0308 2.3716 0.0308c 0.616 0 1.6016 -0.0308 2.5256 -0.0308c 3.157 0 4.1734 1.3244 4.1734 2.8952c 0 1.3552 -0.6776 2.233 -2.31 2.6642v 0.0308c 0.8316 0.3696 1.4784 1.2166 1.4784 2.002c 0 1.0626 -0.5698 2.4024 -3.6806 2.4024c -0.77 0 -1.694 -0.0308 -2.1868 -0.0308Z m 1.0626 -4.7894h 1.0934c 1.5862 0 2.2792 -0.9394 2.2792 -2.2638c 0 -0.924 -0.3234 -2.2638 -2.3562 -2.2638c -0.924 0 -1.0164 0.231 -1.0164 0.6776Z m 0 3.5112c 0 0.4466 0.077 0.6622 1.078 0.6622c 0.7084 0 1.5708 -0.2772 1.5708 -1.7864c 0 -1.232 -0.693 -1.7402 -1.7864 -1.7402h -0.8624Z "/></symbol><symbol id="g6476F0F7E4418F1157BCC40DDC3BB78C" overflow="visible"><path d="M 0 0m 4.543 0.7546c 0.1078 -0.6314 0.5236 -0.9086 1.2012 -0.9086c 0.847 0 1.4476 0.3234 2.0174 0.8624c -0.0308 0.1848 -0.0924 0.308 -0.2772 0.4312c -0.2002 -0.154 -0.3542 -0.2156 -0.6468 -0.2156c -0.3388 0 -0.4312 0.2772 -0.4312 1.0318l 0.0308 2.2176c 0 2.2176 -1.3706 2.6642 -2.6334 2.6642c -1.1242 0 -2.849 -0.6468 -2.849 -1.6632c 0 -0.4312 0.1848 -0.77 0.7854 -0.77c 0.5544 0 0.9548 0.3388 0.9548 0.7084c 0 0.077 -0.0154 0.1694 -0.0308 0.2618c -0.0308 0.154 -0.0616 0.308 -0.0308 0.462c 0.0154 0.1694 0.1386 0.3542 0.6468 0.3542c 0.6468 0 1.1858 -0.2772 1.1858 -2.233l -1.0318 -0.3234c -1.617 -0.5082 -2.7566 -0.9548 -2.7566 -2.1714c 0 -1.0626 0.5852 -1.617 1.925 -1.617c 0.4466 0 1.3398 0.4928 1.848 0.8932Z m -0.077 2.6026v -2.0328c -0.385 -0.308 -0.77 -0.5544 -1.0472 -0.5544c -0.6622 0 -0.8932 0.4466 -0.8932 0.924c 0 0.5698 0.0462 1.0472 1.1396 1.4014Z "/></symbol><symbol id="g4FEFAF4942145E28B4DD233C130B45D2" overflow="visible"><path d="M 0 0m 3.5112 1.8788v 3.0954c 0.616 0.4158 1.232 0.7238 1.5092 0.7238c 0.616 0 1.078 -0.2772 1.078 -1.155v -2.5718c 0 -1.2936 -0.2464 -1.4322 -0.8778 -1.4784c -0.0924 -0.0924 -0.0924 -0.4312 0 -0.5236c 0.6468 0.0154 1.1396 0.0308 1.8788 0.0308c 0.847 0 1.5246 -0.0154 2.1868 -0.0308c 0.0924 0.0924 0.0924 0.4312 0 0.5236c -0.9394 0.0462 -1.1858 0.1848 -1.1858 1.4784v 2.4024c 0 1.694 -0.7238 2.464 -2.0482 2.464c -0.616 0 -1.7094 -0.6776 -2.5564 -1.2628c -0.0462 0.539 -0.1078 1.001 -0.1078 1.001c -0.0154 0.1848 -0.1386 0.2618 -0.3542 0.2618c -0.5698 -0.154 -1.4938 -0.3696 -2.5564 -0.5082c -0.0308 -0.0924 0 -0.4004 0.0308 -0.4928c 0.847 -0.077 1.001 -0.2002 1.001 -1.078v -2.8798c 0 -1.2782 -0.1694 -1.309 -1.1088 -1.386c -0.0924 -0.0924 -0.0924 -0.4312 0 -0.5236c 0.6468 0.0154 1.2936 0.0308 2.1098 0.0308c 0.7084 0 1.1396 -0.0154 1.8018 -0.0308c 0.0924 0.0924 0.0924 0.4312 0 0.5236c -0.6468 0.0616 -0.8008 0.1078 -0.8008 1.386Z "/></symbol><symbol id="g660CBC06198193C8FBC3E875C828F867" overflow="visible"><path d="M 0 0m 1.54 1.9558c 0 -1.2782 -0.2464 -1.4168 -1.1858 -1.463c -0.0924 -0.0924 -0.0924 -0.4312 0 -0.5236c 0.6468 0.0154 1.3398 0.0308 2.1868 0.0308c 0.6776 0 1.3552 -0.0154 1.7248 -0.0308c 0.0924 0.0924 0.0924 0.4312 0 0.5236c -0.462 0.0616 -0.7238 0.1848 -0.7238 1.463v 1.2628c 0.4312 0 0.9086 -0.0462 1.0626 -0.2926c 0.3542 -0.5236 0.7854 -1.155 1.0472 -1.7248c 0.2002 -0.4312 0.2464 -0.5698 0.2464 -0.8008v -0.4004l 0.0308 -0.0308c 0 0 0.693 0.0308 1.232 0.0308c 0.6314 0 1.4938 -0.0154 2.0636 -0.0308c 0.0924 0.0924 0.0924 0.4312 0 0.5236c -0.6006 0.0616 -0.9394 0.0154 -1.4014 0.7084l -1.7864 2.6334c -0.077 0.1078 -0.1078 0.231 -0.0462 0.308l 0.77 0.847c 0.4928 0.539 0.9086 1.078 2.079 1.2012c 0.0924 0.0924 0.0924 0.4312 0 0.5236c -0.3388 -0.0154 -1.309 -0.0308 -1.7094 -0.0308c -0.5698 0 -1.2936 0.0154 -1.8634 0.0308c -0.0924 -0.0924 -0.0924 -0.4312 0 -0.5236c 0.8316 -0.0616 1.078 -0.2002 0.6314 -0.8162c -0.3388 -0.462 -0.6776 -0.8316 -0.9856 -1.1088c -0.2002 -0.1694 -0.9086 -0.4312 -1.3706 -0.4312v 5.1436c 0 1.001 0.0462 1.5708 0.0462 1.5708c 0 0.1386 -0.1078 0.2002 -0.2464 0.2002c -0.5698 -0.1848 -1.8018 -0.3542 -2.8952 -0.4004c -0.0462 -0.1848 -0.0308 -0.3542 0.0462 -0.4928c 0.9702 -0.077 1.0472 -0.0924 1.0472 -1.155Z "/></symbol><symbol id="g21DD225C990377927400E6B929E525B9" overflow="visible"><path d="M 0 0m 5.5572 8.3292c -0.726 0.1056 -1.0032 0.3564 -2.2308 0.3564c -0.594 0 -1.3728 -0.1848 -1.9272 -0.6336c -0.4884 -0.396 -0.858 -1.0032 -0.858 -1.65c 0 -0.5016 0.132 -1.1352 0.4356 -1.5312c 0.6072 -0.8184 1.7028 -1.2672 2.2704 -1.6632c 0.6072 -0.4224 1.2012 -0.9504 1.2012 -1.6896c 0 -0.6468 -0.5676 -1.0956 -1.3728 -1.0956c -0.8844 0 -1.7952 0.726 -2.0592 1.9272c -0.2112 0.0792 -0.4224 0.0264 -0.6204 -0.0264c -0.0132 0 -0.0264 -0.0132 -0.0396 -0.0132c 0 -0.99 0.1056 -1.6896 0.2508 -2.178c 0.7524 0 0.792 -0.264 2.6136 -0.264c 0.8052 0 1.452 0.2376 1.9932 0.726c 0.4752 0.4092 0.8976 1.0164 0.8976 1.8348c 0 0.6864 -0.2904 1.1484 -0.6864 1.584c -0.5148 0.5676 -1.254 0.9768 -1.7688 1.2408c -0.528 0.264 -1.4652 0.9504 -1.4652 1.7028c 0 0.7392 0.4488 1.188 1.122 1.188c 1.122 0 1.4916 -1.0164 1.7292 -1.8876c 0.1848 -0.0528 0.5148 -0.0528 0.66 0.066c 0 0.6996 -0.0528 1.2408 -0.1452 2.0064Z "/></symbol><symbol id="g3C74A4D05653FE58EC9F9D18E132A9C" overflow="visible"><path d="M 0 0m 5.6892 1.7028c -0.5412 -0.5544 -1.254 -0.6996 -1.7556 -0.6996c -1.0296 0 -1.6632 0.594 -1.6632 1.8876c 0 0.0924 0.0132 0.1452 0.0132 0.2112h 3.168c 0.3168 0 0.3828 0.2244 0.3828 0.4092c 0 1.122 -0.4356 2.3496 -2.376 2.3496c -1.386 0 -2.97 -1.2276 -2.97 -3.2472c 0 -0.7656 0.2772 -1.5708 0.8448 -2.0856c 0.5016 -0.4488 1.1484 -0.66 2.0856 -0.66c 0.9108 0 1.8084 0.462 2.4684 1.4256c 0 0.1716 -0.066 0.4092 -0.198 0.4092Z m -3.3528 1.9272c 0.0132 0.462 0.0792 0.9636 0.264 1.2276c 0.2112 0.3168 0.5676 0.4488 0.7128 0.4488c 0.3564 0 0.8448 -0.3432 0.8448 -1.3992c 0 -0.0792 0 -0.2508 -0.0264 -0.2772Z "/></symbol><symbol id="g3EE5FCB8C53F0B32CE565FC030BC4E05" overflow="visible"><path d="M 0 0m 1.32 1.6764c 0 -1.0956 -0.2112 -1.2144 -1.0164 -1.254c -0.0792 -0.0792 -0.0792 -0.3696 0 -0.4488c 0.5544 0.0132 1.1484 0.0264 1.8744 0.0264c 0.726 0 1.3068 -0.0132 1.8744 -0.0264c 0.0792 0.0792 0.0792 0.3696 0 0.4488c -0.8052 0.0396 -1.0164 0.1584 -1.0164 1.254v 6.0192c 0 0.858 0.0396 1.3464 0.0396 1.3464c 0 0.1188 -0.0924 0.1716 -0.2112 0.1716c -0.4884 -0.1584 -1.5444 -0.3036 -2.4816 -0.3432c -0.0396 -0.1584 -0.0264 -0.3036 0.0396 -0.4224c 0.8316 -0.066 0.8976 -0.0792 0.8976 -0.99Z "/></symbol><symbol id="g6151B457BEE4F4F54666E14A6443B417" overflow="visible"><path d="M 0 0m 5.5704 1.1484c 0 0.1584 -0.0264 0.4092 -0.1716 0.4092c -0.528 -0.4884 -0.9768 -0.7392 -1.3596 -0.7392c -0.99 0 -1.7688 0.7128 -1.7688 2.2968c 0 1.4652 0.33 2.1912 1.0296 2.1912c 0.4884 0 0.6864 -0.5148 0.726 -0.9372c 0.0396 -0.3564 0.396 -0.6204 0.8184 -0.6204c 0.4224 0 0.726 0.33 0.726 0.7392c 0 0.594 -0.7128 1.3728 -2.1516 1.3728c -1.5576 0 -2.9304 -1.254 -2.9304 -3.2076c 0 -0.858 0.3036 -1.6104 0.8184 -2.0988c 0.5148 -0.4884 1.122 -0.6864 2.0592 -0.6864c 0.792 0 1.7028 0.5544 2.2044 1.2804Z "/></symbol><symbol id="g7E36569BD456FFBB71649A22C7DD8BCF" overflow="visible"><path d="M 0 0m 0.8316 5.7288c -0.1848 0 -0.3828 -0.0528 -0.5544 -0.198v -0.3828c 0 -0.066 0.0132 -0.0792 0.066 -0.0792h 0.858c -0.0264 -1.3332 -0.0396 -3.0228 -0.0396 -3.6828c 0 -0.462 0.1188 -0.9108 0.396 -1.1484c 0.3036 -0.2508 0.7788 -0.3696 1.0956 -0.3696c 0.726 0 1.5312 0.3696 1.7952 0.7392c 0 0.1584 -0.0792 0.2376 -0.2376 0.3696c -0.1716 -0.132 -0.5016 -0.1848 -0.7524 -0.1848c -0.2904 0 -0.5808 0.2244 -0.5808 0.8844c 0 0.66 -0.0132 2.0724 -0.0132 3.3924h 1.3332c 0.132 0 0.3168 0.0528 0.3168 0.1716v 0.4092c 0 0.0528 -0.0396 0.0792 -0.1056 0.0792h -1.5444l 0.0132 0.4488c 0.0264 0.8844 0.066 1.4916 0.066 1.4916c 0 0.0792 -0.0396 0.1188 -0.1056 0.1188c -0.0924 0 -0.5808 -0.1452 -0.792 -0.2376c -0.2244 -0.0924 -0.6072 -0.1716 -0.6996 -0.2904c -0.0924 -0.1188 -0.1452 -0.4752 -0.1452 -1.5312Z "/></symbol><symbol id="g93BCD9A004ECA1FDE0182538D75E2CF8" overflow="visible"><path d="M 0 0m 4.686 0.6336c 0.0264 -0.3168 0.0528 -0.5412 0.0528 -0.5412c 0.0132 -0.1584 0.1188 -0.2244 0.3036 -0.2244c 0.4884 0.132 1.2804 0.3168 2.1912 0.4356c 0.0264 0.0792 0 0.3432 -0.0264 0.4224c -0.7128 0.066 -0.858 0.2772 -0.858 1.0296v 5.94c 0 0.858 0.0396 1.3464 0.0396 1.3464c 0 0.1188 -0.0924 0.1716 -0.2112 0.1716c -0.4884 -0.1584 -1.5444 -0.3036 -2.4816 -0.3432c -0.0396 -0.1584 -0.0264 -0.33 0.0396 -0.4488c 0.8316 -0.066 0.8976 -0.0792 0.8976 -0.99v -1.716c -0.2508 0.0792 -0.5676 0.1452 -0.9504 0.1452c -1.7028 0 -3.1944 -1.4916 -3.1944 -3.2472c 0 -0.7788 0.2772 -1.6896 0.924 -2.1912c 0.4752 -0.3696 0.8052 -0.5544 1.5444 -0.5544c 0.3564 0 1.3332 0.5808 1.6104 0.7656Z m -0.0396 0.6204c -0.2772 -0.2244 -0.9768 -0.5148 -1.1352 -0.5148c -0.66 0 -1.1748 0.7392 -1.1748 2.2836c 0 0.6996 0.0792 1.3068 0.33 1.716c 0.2244 0.3564 0.5808 0.5676 0.9768 0.5676c 0.3432 0 0.6732 -0.0396 0.99 -0.4752v -3.2472c 0 -0.1056 0 -0.2244 0.0132 -0.33Z "/></symbol><symbol id="g9D2288B893825623302D94C22DEBC61F" overflow="visible"><path d="M 0 0m 4.2636 4.818h -1.0692v 2.4948c 0 0.3168 0.2244 0.6468 0.5412 0.6468h 1.122c 0.99 0 1.2672 -0.5016 1.5576 -1.4124c 0.1584 -0.0264 0.4356 0 0.5676 0.066c -0.066 0.5412 -0.132 1.8084 -0.1584 1.914c 0 0.0264 -0.0132 0.0396 -0.0528 0.0396c -0.2244 -0.0396 -0.33 -0.0528 -0.6468 -0.0528h -3.894c 0 0 -1.3728 0.0132 -2.0328 0.0264c -0.0792 -0.0792 -0.0792 -0.3696 0 -0.4488c 0.924 -0.0396 1.1484 -0.1056 1.1484 -1.2012v -5.28c 0 -1.0956 -0.2244 -1.1484 -1.1484 -1.188c -0.0792 -0.0792 -0.0792 -0.3696 0 -0.4488c 0.6468 0.0132 2.046 0.0264 2.046 0.0264h 3.102c 0.6336 0 1.8216 -0.0264 1.8216 -0.0264c 0.1848 0.66 0.2508 1.5312 0.3564 2.2044c -0.132 0.0792 -0.4224 0.1056 -0.594 0.066c -0.264 -0.9504 -0.858 -1.6896 -1.8612 -1.6896h -1.3332c -0.2904 0 -0.5412 0.2772 -0.5412 0.6336v 3.0228h 1.0692c 0.9108 0 1.1616 -0.2508 1.2012 -0.8448c 0.0792 -0.0792 0.4884 -0.0792 0.5676 0c -0.0132 0.462 -0.0264 0.7128 -0.0264 1.1616c 0 0.4488 0.0132 0.7392 0.0264 1.1352c -0.0792 0.0792 -0.4884 0.0792 -0.5676 0c -0.0396 -0.726 -0.3168 -0.8448 -1.2012 -0.8448Z "/></symbol><symbol id="g61142A6DF4A3D51B9B15DFF38E7D1B78" overflow="visible"><path d="M 0 0m 2.4156 0.9636l 0.8184 1.1484c 0.0528 0.066 0.0924 0.1056 0.132 0.0396l 0.6336 -1.2012c 0.2244 -0.4224 0.0924 -0.462 -0.3696 -0.528c -0.0792 -0.0792 -0.0792 -0.3696 0 -0.4488c 0.264 0.0132 1.0956 0.0264 1.7952 0.0264c 0.6864 0 1.5048 -0.0132 1.7688 -0.0264c 0.0792 0.0792 0.0792 0.3696 0 0.4488c -0.4884 0.0792 -0.9372 0.2508 -1.3596 0.8844l -1.1616 1.7292c -0.066 0.1056 -0.066 0.1452 -0.0264 0.198l 1.1748 1.4256c 0.3696 0.4488 0.8448 0.6072 1.254 0.6468c 0.0792 0.0792 0.0792 0.3696 0 0.4488c -0.264 -0.0132 -0.6732 -0.0264 -1.1088 -0.0264c -0.5148 0 -1.056 0.0132 -1.32 0.0264c -0.0792 -0.0792 -0.0792 -0.3696 0 -0.4488c 0.4752 -0.0396 0.5808 -0.1848 0.3168 -0.5676l -0.7128 -1.0164c -0.0396 -0.066 -0.1056 -0.066 -0.1584 0.0264l -0.594 1.0032c -0.2772 0.4752 -0.1056 0.5016 0.396 0.5544c 0.0792 0.0792 0.0792 0.3696 0 0.4488c -0.264 -0.0132 -1.122 -0.0264 -1.848 -0.0264c -0.6468 0 -1.3992 0.0132 -1.6632 0.0264c -0.0792 -0.0792 -0.0792 -0.3696 0 -0.4488c 0.594 0 0.858 -0.3564 1.2276 -0.8844l 1.1748 -1.6764c 0.0396 -0.0528 0.0396 -0.1056 -0.0396 -0.198l -1.2144 -1.5048c -0.33 -0.4224 -0.9108 -0.5676 -1.3068 -0.6204c -0.0792 -0.0792 -0.0792 -0.3696 0 -0.4488c 0.264 0.0132 0.6732 0.0264 1.0956 0.0264c 0.5676 0 1.188 -0.0132 1.452 -0.0264c 0.0792 0.0792 0.0792 0.3696 0 0.4488c -0.2376 0.0528 -0.6468 0.132 -0.3564 0.5412Z "/></symbol><symbol id="gAB7A56E2DF20A7C8C7BC9B85DB7E88D7" overflow="visible"><path d="M 0 0m 3.0096 3.5376c 0 0.4752 0.1452 0.6732 0.3168 0.8712c 0.1056 0.132 0.2244 0.2244 0.4224 0.2244c 0.1188 0 0.264 -0.1188 0.3696 -0.2508c 0.0924 -0.1056 0.3168 -0.2112 0.6204 -0.2112c 0.3828 0 0.7524 0.396 0.7524 0.9504c 0 0.3432 -0.396 0.7392 -0.8712 0.7392c -0.462 0 -0.9636 -0.396 -1.5708 -1.2672h -0.0528c -0.0264 0.396 -0.0924 1.0428 -0.0924 1.0428c -0.0132 0.1188 -0.1188 0.2244 -0.3036 0.2244c -0.6204 -0.1584 -1.32 -0.3432 -2.1912 -0.4356c -0.0264 -0.0792 0 -0.33 0.0264 -0.4092c 0.726 -0.066 0.858 -0.1848 0.858 -0.9372v -2.4684c 0 -1.0956 -0.1452 -1.122 -0.9504 -1.188c -0.0792 -0.0792 -0.0792 -0.3696 0 -0.4488c 0.5544 0.0132 1.1088 0.0264 1.8084 0.0264c 0.6996 0 1.2408 -0.0132 1.8084 -0.0264c 0.0792 0.0792 0.0792 0.3696 0 0.4488c -0.8052 0.0528 -0.9504 0.0924 -0.9504 1.188Z "/></symbol><symbol id="g489A14AC9D4233C26CC9E520DD834A83" overflow="visible"><path d="M 0 0m 3.0624 1.6104v 2.6268c 0 0.66 0.0528 1.3992 0.0528 1.3992c 0 0.1452 -0.1188 0.2244 -0.3036 0.2244c -0.3696 -0.1452 -1.4388 -0.2508 -2.3496 -0.3696c -0.0264 -0.0792 0 -0.3432 0.0264 -0.4224c 0.726 -0.066 0.858 -0.1716 0.858 -0.924v -2.5344c 0 -1.0956 -0.1452 -1.122 -0.9504 -1.188c -0.0792 -0.0792 -0.0792 -0.3696 0 -0.4488c 0.5544 0.0132 1.1088 0.0264 1.8084 0.0264c 0.6996 0 1.2408 -0.0132 1.8084 -0.0264c 0.0792 0.0792 0.0792 0.3696 0 0.4488c -0.8052 0.0528 -0.9504 0.0924 -0.9504 1.188Z m -1.782 6.2568c 0 -0.4356 0.3168 -0.8712 0.8448 -0.8712c 0.594 0 0.9372 0.4752 0.9372 0.8184c 0 0.396 -0.3036 0.8712 -0.858 0.8712c -0.6204 0 -0.924 -0.4224 -0.924 -0.8184Z "/></symbol><symbol id="gDC2D39740434C691032F59BEC232B74F" overflow="visible"><path d="M 0 0m 0.6336 1.9272c 0.0528 -0.6468 0.1188 -1.2672 0.2244 -1.7688c 0.2508 -0.0792 1.0956 -0.2904 1.8348 -0.2904c 1.0164 0 2.2836 0.5544 2.2836 1.7028c 0 0.4488 -0.1056 0.8052 -0.4092 1.1352c -0.3696 0.4224 -0.924 0.7524 -1.5312 1.0164c -0.528 0.2244 -0.7128 0.6468 -0.7128 1.0296c 0 0.3036 0.2508 0.5544 0.6336 0.5544c 0.462 0 0.9108 -0.4224 1.2408 -1.2276c 0.2376 -0.0396 0.3828 -0.0264 0.5148 0.066c 0 0.4752 -0.0528 0.9768 -0.1716 1.3992c -0.4224 0.1848 -0.7524 0.3168 -1.4784 0.3168c -0.6996 0 -1.3596 -0.264 -1.782 -0.6864c -0.3036 -0.3036 -0.4488 -0.6732 -0.4488 -1.0296c 0 -0.396 0.1584 -0.7128 0.4092 -0.99c 0.4092 -0.4488 1.1352 -0.9108 1.5312 -1.0956c 0.528 -0.2376 0.6732 -0.7128 0.6732 -1.0296c 0 -0.4224 -0.4224 -0.6468 -0.7788 -0.6468c -0.594 0 -1.2276 0.6072 -1.5048 1.5708c -0.2112 0.0396 -0.3168 0.0264 -0.528 -0.0264Z "/></symbol><symbol id="g71810B677EEE634316EAB71F2F5BD9A8" overflow="visible"><path d="M 0 0m 3.876 4.38h -0.972v 2.268c 0 0.288 0.204 0.588 0.492 0.588h 1.02c 0.9 0 1.152 -0.456 1.416 -1.284c 0.144 -0.024 0.396 0 0.516 0.06c -0.06 0.492 -0.12 1.644 -0.144 1.74c 0 0.024 -0.012 0.036 -0.048 0.036c -0.204 -0.036 -0.3 -0.048 -0.588 -0.048h -3.54c 0 0 -1.248 0.012 -1.848 0.024c -0.072 -0.072 -0.072 -0.336 0 -0.408c 0.84 -0.036 1.044 -0.096 1.044 -1.092v -4.8c 0 -0.996 -0.204 -1.044 -1.044 -1.08c -0.072 -0.072 -0.072 -0.336 0 -0.408c 0.588 0.012 1.86 0.024 1.86 0.024h 2.82c 0.576 0 1.656 -0.024 1.656 -0.024c 0.168 0.6 0.228 1.392 0.324 2.004c -0.12 0.072 -0.384 0.096 -0.54 0.06c -0.24 -0.864 -0.78 -1.536 -1.692 -1.536h -1.212c -0.264 0 -0.492 0.252 -0.492 0.576v 2.748h 0.972c 0.828 0 1.056 -0.228 1.092 -0.768c 0.072 -0.072 0.444 -0.072 0.516 0c -0.012 0.42 -0.024 0.648 -0.024 1.056c 0 0.408 0.012 0.672 0.024 1.032c -0.072 0.072 -0.444 0.072 -0.516 0c -0.036 -0.66 -0.288 -0.768 -1.092 -0.768Z "/></symbol><symbol id="g898F8D390A5BE9CA3FA6421EA60BDB40" overflow="visible"><path d="M 0 0m 2.196 0.876l 0.744 1.044c 0.048 0.06 0.084 0.096 0.12 0.036l 0.576 -1.092c 0.204 -0.384 0.084 -0.42 -0.336 -0.48c -0.072 -0.072 -0.072 -0.336 0 -0.408c 0.24 0.012 0.996 0.024 1.632 0.024c 0.624 0 1.368 -0.012 1.608 -0.024c 0.072 0.072 0.072 0.336 0 0.408c -0.444 0.072 -0.852 0.228 -1.236 0.804l -1.056 1.572c -0.06 0.096 -0.06 0.132 -0.024 0.18l 1.068 1.296c 0.336 0.408 0.768 0.552 1.14 0.588c 0.072 0.072 0.072 0.336 0 0.408c -0.24 -0.012 -0.612 -0.024 -1.008 -0.024c -0.468 0 -0.96 0.012 -1.2 0.024c -0.072 -0.072 -0.072 -0.336 0 -0.408c 0.432 -0.036 0.528 -0.168 0.288 -0.516l -0.648 -0.924c -0.036 -0.06 -0.096 -0.06 -0.144 0.024l -0.54 0.912c -0.252 0.432 -0.096 0.456 0.36 0.504c 0.072 0.072 0.072 0.336 0 0.408c -0.24 -0.012 -1.02 -0.024 -1.68 -0.024c -0.588 0 -1.272 0.012 -1.512 0.024c -0.072 -0.072 -0.072 -0.336 0 -0.408c 0.54 0 0.78 -0.324 1.116 -0.804l 1.068 -1.524c 0.036 -0.048 0.036 -0.096 -0.036 -0.18l -1.104 -1.368c -0.3 -0.384 -0.828 -0.516 -1.188 -0.564c -0.072 -0.072 -0.072 -0.336 0 -0.408c 0.24 0.012 0.612 0.024 0.996 0.024c 0.516 0 1.08 -0.012 1.32 -0.024c 0.072 0.072 0.072 0.336 0 0.408c -0.216 0.048 -0.588 0.12 -0.324 0.492Z "/></symbol><symbol id="gE18113BE1243CA6EC5596891CC422939" overflow="visible"><path d="M 0 0m 5.172 1.548c -0.492 -0.504 -1.14 -0.636 -1.596 -0.636c -0.936 0 -1.512 0.54 -1.512 1.716c 0 0.084 0.012 0.132 0.012 0.192h 2.88c 0.288 0 0.348 0.204 0.348 0.372c 0 1.02 -0.396 2.136 -2.16 2.136c -1.26 0 -2.7 -1.116 -2.7 -2.952c 0 -0.696 0.252 -1.428 0.768 -1.896c 0.456 -0.408 1.044 -0.6 1.896 -0.6c 0.828 0 1.644 0.42 2.244 1.296c 0 0.156 -0.06 0.372 -0.18 0.372Z m -3.048 1.752c 0.012 0.42 0.072 0.876 0.24 1.116c 0.192 0.288 0.516 0.408 0.648 0.408c 0.324 0 0.768 -0.312 0.768 -1.272c 0 -0.072 0 -0.228 -0.024 -0.252Z "/></symbol><symbol id="g56D9AC69DF1E60AEC4FA898FA388366B" overflow="visible"><path d="M 0 0m 2.736 3.216c 0 0.432 0.132 0.612 0.288 0.792c 0.096 0.12 0.204 0.204 0.384 0.204c 0.108 0 0.24 -0.108 0.336 -0.228c 0.084 -0.096 0.288 -0.192 0.564 -0.192c 0.348 0 0.684 0.36 0.684 0.864c 0 0.312 -0.36 0.672 -0.792 0.672c -0.42 0 -0.876 -0.36 -1.428 -1.152h -0.048c -0.024 0.36 -0.084 0.948 -0.084 0.948c -0.012 0.108 -0.108 0.204 -0.276 0.204c -0.564 -0.144 -1.2 -0.312 -1.992 -0.396c -0.024 -0.072 0 -0.3 0.024 -0.372c 0.66 -0.06 0.78 -0.168 0.78 -0.852v -2.244c 0 -0.996 -0.132 -1.02 -0.864 -1.08c -0.072 -0.072 -0.072 -0.336 0 -0.408c 0.504 0.012 1.008 0.024 1.644 0.024c 0.636 0 1.128 -0.012 1.644 -0.024c 0.072 0.072 0.072 0.336 0 0.408c -0.732 0.048 -0.864 0.084 -0.864 1.08Z "/></symbol><symbol id="gEF03CC905B39DF2CE13E9EED9CECE9CC" overflow="visible"><path d="M 0 0m 5.064 1.044c 0 0.144 -0.024 0.372 -0.156 0.372c -0.48 -0.444 -0.888 -0.672 -1.236 -0.672c -0.9 0 -1.608 0.648 -1.608 2.088c 0 1.332 0.3 1.992 0.936 1.992c 0.444 0 0.624 -0.468 0.66 -0.852c 0.036 -0.324 0.36 -0.564 0.744 -0.564c 0.384 0 0.66 0.3 0.66 0.672c 0 0.54 -0.648 1.248 -1.956 1.248c -1.416 0 -2.664 -1.14 -2.664 -2.916c 0 -0.78 0.276 -1.464 0.744 -1.908c 0.468 -0.444 1.02 -0.624 1.872 -0.624c 0.72 0 1.548 0.504 2.004 1.164Z "/></symbol><symbol id="g1094D23D321B642DA133CC49B1BA1EB9" overflow="visible"><path d="M 0 0m 2.784 1.464v 2.388c 0 0.6 0.048 1.272 0.048 1.272c 0 0.132 -0.108 0.204 -0.276 0.204c -0.336 -0.132 -1.308 -0.228 -2.136 -0.336c -0.024 -0.072 0 -0.312 0.024 -0.384c 0.66 -0.06 0.78 -0.156 0.78 -0.84v -2.304c 0 -0.996 -0.132 -1.02 -0.864 -1.08c -0.072 -0.072 -0.072 -0.336 0 -0.408c 0.504 0.012 1.008 0.024 1.644 0.024c 0.636 0 1.128 -0.012 1.644 -0.024c 0.072 0.072 0.072 0.336 0 0.408c -0.732 0.048 -0.864 0.084 -0.864 1.08Z m -1.62 5.688c 0 -0.396 0.288 -0.792 0.768 -0.792c 0.54 0 0.852 0.432 0.852 0.744c 0 0.36 -0.276 0.792 -0.78 0.792c -0.564 0 -0.84 -0.384 -0.84 -0.744Z "/></symbol><symbol id="g93ED4154508DB3ADD21415419B103611" overflow="visible"><path d="M 0 0m 0.576 1.752c 0.048 -0.588 0.108 -1.152 0.204 -1.608c 0.228 -0.072 0.996 -0.264 1.668 -0.264c 0.924 0 2.076 0.504 2.076 1.548c 0 0.408 -0.096 0.732 -0.372 1.032c -0.336 0.384 -0.84 0.684 -1.392 0.924c -0.48 0.204 -0.648 0.588 -0.648 0.936c 0 0.276 0.228 0.504 0.576 0.504c 0.42 0 0.828 -0.384 1.128 -1.116c 0.216 -0.036 0.348 -0.024 0.468 0.06c 0 0.432 -0.048 0.888 -0.156 1.272c -0.384 0.168 -0.684 0.288 -1.344 0.288c -0.636 0 -1.236 -0.24 -1.62 -0.624c -0.276 -0.276 -0.408 -0.612 -0.408 -0.936c 0 -0.36 0.144 -0.648 0.372 -0.9c 0.372 -0.408 1.032 -0.828 1.392 -0.996c 0.48 -0.216 0.612 -0.648 0.612 -0.936c 0 -0.384 -0.384 -0.588 -0.708 -0.588c -0.54 0 -1.116 0.552 -1.368 1.428c -0.192 0.036 -0.288 0.024 -0.48 -0.024Z "/></symbol><symbol id="gFCFAD84E8A4521C99D93A9F0049D8745" overflow="visible"><path d="M 0 0m 4.404 1.464v 4.332c 0 0.636 0.096 1.32 0.096 1.32c 0 0.156 -0.096 0.204 -0.204 0.204c -0.12 0 -0.324 -0.048 -0.6 -0.18c -0.732 -0.336 -1.548 -0.624 -2.592 -1.056c 0.012 -0.204 0.096 -0.396 0.264 -0.516c 0.648 0.276 1.08 0.3 1.248 0.3c 0.156 0 0.228 -0.048 0.228 -0.648v -3.756c 0 -0.996 -0.576 -1.044 -1.236 -1.08c -0.12 -0.072 -0.12 -0.336 0 -0.408c 0.984 0.012 1.548 0.024 2.028 0.024c 0.48 0 1.02 -0.012 2.004 -0.024c 0.12 0.072 0.12 0.336 0 0.408c -0.66 0.036 -1.236 0.084 -1.236 1.08Z "/></symbol><symbol id="gD355BF4F81D64465081A1B40E1986DB4" overflow="visible"><path d="M 0 0m 4.345 6.941c -0.638 0.088 -0.616 0.297 -1.694 0.297c -1.111 0 -2.09 -0.737 -2.09 -1.903c 0 -1.155 0.957 -1.683 1.925 -2.057c 0.66 -0.253 1.474 -0.561 1.474 -1.639c 0 -0.891 -0.495 -1.353 -1.375 -1.353c -1.023 0 -1.683 0.473 -1.925 1.562c -0.143 0.044 -0.253 0.022 -0.363 -0.033c 0.044 -0.847 0.088 -1.133 0.22 -1.672c 0.693 0 1.001 -0.253 1.98 -0.253c 0.495 0 0.968 0.121 1.353 0.363c 0.638 0.396 1.034 1.067 1.034 1.771c 0 1.166 -0.88 1.683 -1.782 2.024c -0.66 0.242 -1.76 0.66 -1.76 1.584c 0 0.616 0.561 1.232 1.21 1.232c 1.067 0 1.408 -0.682 1.628 -1.408c 0.121 -0.022 0.264 -0.011 0.363 0.066c -0.044 0.528 -0.088 0.836 -0.198 1.419Z "/></symbol><symbol id="g5E76F8DBE7C3C7A9A461E8EC1D70F6FB" overflow="visible"><path d="M 0 0m 0.451 2.255c 0 -1.122 0.748 -2.365 2.31 -2.365c 0.704 0 1.243 0.253 1.617 0.616c 0.495 0.484 0.715 1.177 0.715 1.848c 0 1.144 -0.627 2.475 -2.31 2.475c -0.726 0 -1.32 -0.297 -1.727 -0.77c -0.396 -0.473 -0.605 -1.111 -0.605 -1.804Z m 2.167 2.189c 0.946 0 1.529 -0.858 1.529 -2.442c 0 -1.386 -0.715 -1.727 -1.232 -1.727c -1.144 0 -1.518 1.386 -1.518 2.233c 0 0.957 0.231 1.936 1.221 1.936Z "/></symbol><symbol id="g36F90904A4043C6A677E73471A30013F" overflow="visible"><path d="M 0 0m 1.045 1.342c 0 -0.913 -0.121 -0.968 -0.792 -1.001c -0.066 -0.066 -0.066 -0.297 0 -0.363c 0.385 0.011 0.792 0.022 1.232 0.022c 0.44 0 0.858 -0.011 1.221 -0.022c 0.066 0.066 0.066 0.297 0 0.363c -0.671 0.033 -0.792 0.088 -0.792 1.001v 5.071c 0 0.715 0.044 1.155 0.044 1.155c 0 0.077 -0.044 0.11 -0.143 0.11c -0.275 -0.11 -1.1 -0.264 -1.54 -0.297c -0.022 -0.088 0 -0.264 0.066 -0.33c 0.638 -0.044 0.704 -0.077 0.704 -0.902Z "/></symbol><symbol id="g1E471D2E98C4E85A3CE47F56E86025C4" overflow="visible"><path d="M 0 0m 3.575 4.378c 0.594 -0.044 0.66 -0.176 0.429 -0.737l -0.891 -2.156c -0.176 -0.429 -0.231 -0.429 -0.407 0.033l -0.792 2.123c -0.198 0.528 -0.242 0.66 0.341 0.737c 0.066 0.066 0.066 0.297 0 0.363c -0.363 -0.011 -0.748 -0.022 -1.111 -0.022c -0.363 0 -0.693 0.011 -1.023 0.022c -0.066 -0.066 -0.066 -0.297 0 -0.363c 0.583 -0.066 0.66 -0.242 0.88 -0.803l 1.408 -3.476c 0.066 -0.165 0.132 -0.231 0.275 -0.231c 0.11 0 0.187 0.066 0.264 0.253l 1.463 3.443c 0.209 0.484 0.33 0.759 0.946 0.814c 0.066 0.066 0.066 0.297 0 0.363c -0.22 -0.011 -0.484 -0.022 -0.77 -0.022c -0.363 0 -0.737 0.011 -1.012 0.022c -0.066 -0.066 -0.066 -0.297 0 -0.363Z "/></symbol><symbol id="gBFE09989B12480F1B7796D69E0D7287C" overflow="visible"><path d="M 0 0m 4.246 1.023c -0.407 -0.418 -0.726 -0.594 -1.364 -0.594c -0.396 0 -0.858 0.231 -1.199 0.792c -0.22 0.363 -0.352 0.869 -0.352 1.507l 2.926 -0.022c 0.132 0 0.209 0.066 0.209 0.187c 0 0.924 -0.33 1.914 -1.859 1.914c -0.957 0 -2.2 -0.913 -2.2 -2.585c 0 -0.616 0.154 -1.21 0.517 -1.628c 0.374 -0.44 0.891 -0.704 1.683 -0.704c 0.836 0 1.43 0.385 1.87 0.957c -0.033 0.11 -0.099 0.165 -0.231 0.176Z m -2.882 2.079c 0.209 1.243 0.979 1.342 1.243 1.342c 0.418 0 0.913 -0.231 0.913 -1.155c 0 -0.099 -0.044 -0.154 -0.165 -0.154Z "/></symbol><symbol id="g7FDD4349A49914F62F30F23AE9794251" overflow="visible"><path d="M 0 0m 5.797 4.103c 0 0.506 -0.495 0.759 -1.045 0.759c -0.473 0 -0.847 -0.253 -1.133 -0.759c -0.231 0.506 -0.616 0.759 -1.177 0.759c -0.539 0 -0.979 -0.253 -1.331 -0.748c -0.297 -0.429 -0.451 -0.748 -0.451 -0.957c 0 -0.099 0.055 -0.154 0.165 -0.154c 0.099 0 0.165 0.055 0.187 0.154c 0.209 0.638 0.671 1.386 1.408 1.386c 0.363 0 0.539 -0.231 0.539 -0.682c 0 -0.231 -0.198 -1.089 -0.583 -2.563c -0.187 -0.737 -0.517 -1.1 -0.99 -1.1c -0.154 0 -0.297 0.033 -0.418 0.088c 0.286 0.11 0.429 0.308 0.429 0.594c 0 0.286 -0.143 0.429 -0.44 0.429c -0.363 0 -0.638 -0.308 -0.638 -0.671c 0 -0.506 0.517 -0.759 1.056 -0.759c 0.462 0 0.836 0.253 1.133 0.759c 0.209 -0.506 0.605 -0.759 1.177 -0.759c 0.528 0 0.968 0.253 1.32 0.748c 0.297 0.429 0.451 0.748 0.451 0.957c 0 0.099 -0.055 0.154 -0.165 0.154c -0.099 0 -0.154 -0.055 -0.187 -0.154c -0.187 -0.627 -0.682 -1.386 -1.397 -1.386c -0.363 0 -0.55 0.22 -0.55 0.671c 0 0.143 0.055 0.451 0.176 0.946l 0.374 1.485c 0.209 0.825 0.55 1.243 1.034 1.243c 0.154 0 0.297 -0.033 0.418 -0.088c -0.297 -0.099 -0.44 -0.297 -0.44 -0.594c 0 -0.286 0.154 -0.429 0.451 -0.429c 0.352 0 0.627 0.319 0.627 0.671Z "/></symbol><symbol id="g25B224D96CA3F5CCC7E774117FEA026D" overflow="visible"><path d="M 0 0m 0.9163 3.2648c 0.2464 0 0.4312 0.1848 0.4312 0.4312c 0 0.2772 -0.1463 0.4235 -0.4312 0.4312c 0.1694 0.3619 0.5544 0.6545 1.0549 0.6545c 0.6776 0 1.1242 -0.5082 1.1242 -1.1858c 0 -0.3696 -0.1309 -0.7238 -0.4004 -1.0703c -0.1309 -0.1771 -0.231 -0.3003 -0.3003 -0.3696l -1.8249 -1.8095c -0.1001 -0.0924 -0.0847 -0.1155 -0.0847 -0.3465h 3.1724l 0.2387 1.4476h -0.3234c -0.0539 -0.4081 -0.1155 -0.6468 -0.1848 -0.7007c -0.0385 -0.0231 -0.2772 -0.0385 -0.7315 -0.0385h -1.309c 0.5159 0.4543 0.9933 0.8624 1.4476 1.2243c 0.3465 0.2695 0.5929 0.5082 0.7469 0.7161c 0.231 0.3003 0.3465 0.616 0.3465 0.9471c 0 0.4774 -0.1848 0.8547 -0.5621 1.1319c -0.3311 0.2541 -0.7469 0.385 -1.2397 0.385c -0.4235 0 -0.7854 -0.1232 -1.1011 -0.3696c -0.3311 -0.2695 -0.5005 -0.6083 -0.5005 -1.0241c 0 -0.2618 0.1925 -0.4543 0.4312 -0.4543Z "/></symbol><symbol id="g6CA3708905D5D56BD06755CEABD69DE1" overflow="visible"><path d="M 0 0m 7.678 2.97h -6.798c -0.176 0 -0.264 -0.077 -0.264 -0.22c 0 -0.143 0.088 -0.22 0.264 -0.22h 6.798c 0.176 0 0.264 0.077 0.264 0.22c 0 0.132 -0.132 0.22 -0.264 0.22Z "/></symbol><symbol id="g8894C0A608DBD285706C131FF554A2B1" overflow="visible"><path d="M 0 0m 1.298 3.465c 0.055 0 0.121 0.044 0.176 0.121c 0.33 0.495 0.781 0.737 1.353 0.737c 0.385 0 0.682 -0.22 0.88 -0.671c 0.121 -0.297 0.187 -0.748 0.187 -1.353c 0 -0.693 -0.088 -1.177 -0.253 -1.463c -0.275 -0.451 -0.649 -0.682 -1.122 -0.682c -0.737 0 -1.32 0.528 -1.518 1.1c 0.033 -0.011 0.055 0 0.099 0c 0.33 0 0.605 0.253 0.605 0.583c 0 0.341 -0.275 0.572 -0.605 0.572c -0.385 0 -0.55 -0.209 -0.55 -0.616c 0 -1.1 0.891 -2.035 1.991 -2.035c 0.671 0 1.243 0.242 1.705 0.726c 0.462 0.484 0.693 1.067 0.693 1.738c 0 0.638 -0.187 1.188 -0.561 1.661c -0.407 0.517 -0.913 0.77 -1.529 0.77c -0.517 0 -0.968 -0.165 -1.331 -0.495v 1.958c 0.297 -0.088 0.583 -0.132 0.88 -0.132c 0.506 0 0.946 0.121 1.32 0.374c 0.341 0.209 0.572 0.418 0.704 0.616c 0.066 0.088 0.099 0.154 0.099 0.187c 0 0.11 -0.055 0.165 -0.165 0.165c -0.605 -0.231 -1.122 -0.352 -1.54 -0.352c -0.495 0 -0.968 0.099 -1.419 0.308c -0.055 0.022 -0.099 0.033 -0.143 0.033c -0.099 0 -0.154 -0.099 -0.154 -0.308v -3.212c 0 -0.231 0 -0.33 0.198 -0.33Z "/></symbol><symbol id="gDDD45F8C02017DD13480202EA2B099EF" overflow="visible"><path d="M 0 0m 7.678 3.014h -3.135v 3.135c 0 0.176 -0.088 0.264 -0.264 0.264c -0.176 0 -0.264 -0.088 -0.264 -0.264v -3.135h -3.135c -0.176 0 -0.264 -0.088 -0.264 -0.264c 0 -0.176 0.088 -0.264 0.264 -0.264h 3.135v -3.135c 0 -0.176 0.088 -0.264 0.264 -0.264c 0.176 0 0.264 0.088 0.264 0.264v 3.135h 3.135c 0.176 0 0.264 0.088 0.264 0.264c 0 0.143 -0.121 0.264 -0.264 0.264Z "/></symbol><symbol id="gA754BD559092BEFA127826A2A25BC17" overflow="visible"><path d="M 0 0m 4.213 5.544c 0.363 0 0.539 0.187 0.539 0.561c 0 0.792 -0.594 1.221 -1.408 1.221c -0.913 0 -1.639 -0.429 -2.178 -1.298c -0.473 -0.748 -0.704 -1.595 -0.704 -2.552c 0 -1.397 0.253 -2.376 0.77 -2.959c 0.44 -0.506 0.946 -0.759 1.529 -0.759c 0.671 0 1.221 0.253 1.65 0.759c 0.407 0.484 0.616 1.067 0.616 1.738c 0 0.671 -0.198 1.243 -0.594 1.716c -0.418 0.506 -0.957 0.77 -1.606 0.77c -0.572 0 -1.012 -0.319 -1.309 -0.935v 0.066c 0 1.243 0.308 2.299 0.968 2.783c 0.286 0.209 0.583 0.308 0.88 0.308c 0.396 0 0.682 -0.11 0.869 -0.341c -0.374 0 -0.561 -0.209 -0.561 -0.539c 0 -0.308 0.231 -0.539 0.539 -0.539Z m -0.429 -1.804c 0.121 -0.253 0.187 -0.748 0.187 -1.474c 0 -0.715 -0.055 -1.188 -0.176 -1.43c -0.22 -0.451 -0.561 -0.682 -1.034 -0.682c -0.319 0 -0.561 0.11 -0.737 0.33c -0.143 0.176 -0.242 0.33 -0.286 0.451c -0.132 0.341 -0.198 0.858 -0.198 1.562c 0 0.308 0.044 0.605 0.121 0.891c 0.143 0.517 0.55 1.001 1.155 1.001c 0.429 0 0.759 -0.22 0.968 -0.649Z "/></symbol><symbol id="g2389F7618E8CE27CC7151A1D8E5DEAD4" overflow="visible"><path d="M 0 0m 7.678 4.037h -6.798c -0.176 0 -0.264 -0.088 -0.264 -0.253c 0 -0.165 0.088 -0.253 0.264 -0.253h 6.798c 0.176 0 0.264 0.088 0.264 0.253c 0 0.132 -0.121 0.253 -0.264 0.253Z m 0 -2.068h -6.798c -0.176 0 -0.264 -0.088 -0.264 -0.253c 0 -0.165 0.088 -0.253 0.264 -0.253h 6.798c 0.176 0 0.264 0.088 0.264 0.253c 0 0.143 -0.121 0.253 -0.264 0.253Z "/></symbol><symbol id="g5DF7FDD026DB928A9BECE5CB45FEF99F" overflow="visible"><path d="M 0 0m 2.739 -0.242c 1.551 0 2.321 1.254 2.321 3.762c 0 1.683 -0.352 2.805 -1.045 3.355c -0.385 0.297 -0.814 0.451 -1.265 0.451c -1.551 0 -2.321 -1.265 -2.321 -3.806c 0 -2.024 0.539 -3.762 2.31 -3.762Z m 1.232 6.006c 0.077 -0.385 0.11 -1.089 0.11 -2.112c 0 -1.012 -0.044 -1.76 -0.121 -2.244c -0.143 -0.88 -0.55 -1.32 -1.221 -1.32c -0.253 0 -0.506 0.099 -0.737 0.286c -0.297 0.253 -0.473 0.77 -0.55 1.562c -0.033 0.275 -0.044 0.847 -0.044 1.716c 0 0.957 0.033 1.628 0.088 1.991c 0.099 0.605 0.297 0.99 0.605 1.155c 0.242 0.132 0.451 0.198 0.638 0.198c 0.715 0 1.111 -0.583 1.232 -1.232Z "/></symbol><symbol id="g4C1ED41FE02ABB1BA3896D4213CC7460" overflow="visible"><path d="M 0 0m 0.627 0.473c 0 -0.319 0.264 -0.583 0.583 -0.583c 0.319 0 0.583 0.264 0.583 0.583c 0 0.319 -0.264 0.583 -0.583 0.583c -0.319 0 -0.583 -0.264 -0.583 -0.583Z "/></symbol><symbol id="gA421F3DD5F2809E5ED8290B7EF6AAC43" overflow="visible"><path d="M 0 0m 5.052 7.572c -0.66 0.096 -0.912 0.324 -2.028 0.324c -0.54 0 -1.248 -0.168 -1.752 -0.576c -0.444 -0.36 -0.78 -0.912 -0.78 -1.5c 0 -0.456 0.12 -1.032 0.396 -1.392c 0.552 -0.744 1.548 -1.152 2.064 -1.512c 0.552 -0.384 1.092 -0.864 1.092 -1.536c 0 -0.588 -0.516 -0.996 -1.248 -0.996c -0.804 0 -1.632 0.66 -1.872 1.752c -0.192 0.072 -0.384 0.024 -0.564 -0.024c -0.012 0 -0.024 -0.012 -0.036 -0.012c 0 -0.9 0.096 -1.536 0.228 -1.98c 0.684 0 0.72 -0.24 2.376 -0.24c 0.732 0 1.32 0.216 1.812 0.66c 0.432 0.372 0.816 0.924 0.816 1.668c 0 0.624 -0.264 1.044 -0.624 1.44c -0.468 0.516 -1.14 0.888 -1.608 1.128c -0.48 0.24 -1.332 0.864 -1.332 1.548c 0 0.672 0.408 1.08 1.02 1.08c 1.02 0 1.356 -0.924 1.572 -1.716c 0.168 -0.048 0.468 -0.048 0.6 0.06c 0 0.636 -0.048 1.128 -0.132 1.824Z "/></symbol><symbol id="g482B6484D8169192ED302BC1FABC0EB8" overflow="visible"><path d="M 0 0m 0.444 2.484c 0 -1.572 1.248 -2.604 2.856 -2.604c 0.852 0 1.56 0.24 2.052 0.684c 0.612 0.54 0.816 1.356 0.816 2.028c 0 1.572 -1.068 2.736 -2.856 2.736c -0.996 0 -1.74 -0.348 -2.208 -0.888c -0.456 -0.528 -0.66 -1.248 -0.66 -1.956Z m 2.676 2.34c 0.816 0 1.368 -0.972 1.368 -2.616c 0 -1.44 -0.564 -1.824 -0.996 -1.824c -0.984 0 -1.368 1.476 -1.368 2.364c 0 1.104 0.192 2.076 0.996 2.076Z "/></symbol><symbol id="g966BE685B7523A33FA7C5091B1A7882" overflow="visible"><path d="M 0 0m 1.2 1.524c 0 -0.996 -0.192 -1.104 -0.924 -1.14c -0.072 -0.072 -0.072 -0.336 0 -0.408c 0.504 0.012 1.044 0.024 1.704 0.024c 0.66 0 1.188 -0.012 1.704 -0.024c 0.072 0.072 0.072 0.336 0 0.408c -0.732 0.036 -0.924 0.144 -0.924 1.14v 5.472c 0 0.78 0.036 1.224 0.036 1.224c 0 0.108 -0.084 0.156 -0.192 0.156c -0.444 -0.144 -1.404 -0.276 -2.256 -0.312c -0.036 -0.144 -0.024 -0.276 0.036 -0.384c 0.756 -0.06 0.816 -0.072 0.816 -0.9Z "/></symbol><symbol id="gC76A03CC6B2F66C4058A56BA6A9EE20" overflow="visible"><path d="M 0 0m 6.12 1.596v 2.076c 0 1.008 0.024 0.864 0.024 1.152c 0 0.204 -0.048 0.336 -0.12 0.408c -0.216 -0.012 -0.456 -0.024 -0.684 -0.024c -0.336 0 -1.116 0.012 -1.584 0.024c -0.072 -0.072 -0.072 -0.336 0 -0.408c 0.612 -0.06 0.804 -0.144 0.804 -1.152v -2.22c 0 -0.12 0 -0.24 0.012 -0.36c -0.492 -0.3 -0.888 -0.324 -1.104 -0.324c -0.48 0 -0.84 0.06 -0.84 0.9v 2.004c 0 1.008 0.024 0.864 0.024 1.152c 0 0.204 -0.048 0.336 -0.12 0.408c -0.216 -0.012 -0.468 -0.024 -0.684 -0.024c -0.612 0 -1.068 0.012 -1.584 0.024c -0.072 -0.072 -0.072 -0.336 0 -0.408c 0.552 -0.024 0.804 -0.144 0.804 -1.152v -1.872c 0 -1.272 0.504 -1.92 1.536 -1.92c 0.432 0 1.308 0.348 2.004 0.732c 0.024 -0.3 0.048 -0.528 0.048 -0.528c 0.012 -0.144 0.108 -0.204 0.276 -0.204c 0.444 0.12 1.164 0.288 1.992 0.396c 0.024 0.072 0 0.312 -0.024 0.384c -0.648 0.06 -0.78 0.252 -0.78 0.936Z "/></symbol><symbol id="g3E13159425B4C5FA6BE9D46173183F7B" overflow="visible"><path d="M 0 0m 0.756 5.208c -0.168 0 -0.348 -0.048 -0.504 -0.18v -0.348c 0 -0.06 0.012 -0.072 0.06 -0.072h 0.78c -0.024 -1.212 -0.036 -2.748 -0.036 -3.348c 0 -0.42 0.108 -0.828 0.36 -1.044c 0.276 -0.228 0.708 -0.336 0.996 -0.336c 0.66 0 1.392 0.336 1.632 0.672c 0 0.144 -0.072 0.216 -0.216 0.336c -0.156 -0.12 -0.456 -0.168 -0.684 -0.168c -0.264 0 -0.528 0.204 -0.528 0.804c 0 0.6 -0.012 1.884 -0.012 3.084h 1.212c 0.12 0 0.288 0.048 0.288 0.156v 0.372c 0 0.048 -0.036 0.072 -0.096 0.072h -1.404l 0.012 0.408c 0.024 0.804 0.06 1.356 0.06 1.356c 0 0.072 -0.036 0.108 -0.096 0.108c -0.084 0 -0.528 -0.132 -0.72 -0.216c -0.204 -0.084 -0.552 -0.156 -0.636 -0.264c -0.084 -0.108 -0.132 -0.432 -0.132 -1.392Z "/></symbol><symbol id="g3C2E9715FB9D690A986B8F0D57F3007C" overflow="visible"><path d="M 0 0m 2.736 1.464v 2.412c 0.48 0.324 0.96 0.564 1.176 0.564c 0.48 0 0.84 -0.216 0.84 -0.9v -2.004c 0 -1.008 -0.192 -1.116 -0.684 -1.152c -0.072 -0.072 -0.072 -0.336 0 -0.408c 0.504 0.012 0.888 0.024 1.464 0.024c 0.66 0 1.188 -0.012 1.704 -0.024c 0.072 0.072 0.072 0.336 0 0.408c -0.732 0.036 -0.924 0.144 -0.924 1.152v 1.872c 0 1.32 -0.564 1.92 -1.596 1.92c -0.48 0 -1.332 -0.528 -1.992 -0.984c -0.036 0.42 -0.084 0.78 -0.084 0.78c -0.012 0.144 -0.108 0.204 -0.276 0.204c -0.444 -0.12 -1.164 -0.288 -1.992 -0.396c -0.024 -0.072 0 -0.312 0.024 -0.384c 0.66 -0.06 0.78 -0.156 0.78 -0.84v -2.244c 0 -0.996 -0.132 -1.02 -0.864 -1.08c -0.072 -0.072 -0.072 -0.336 0 -0.408c 0.504 0.012 1.008 0.024 1.644 0.024c 0.552 0 0.888 -0.012 1.404 -0.024c 0.072 0.072 0.072 0.336 0 0.408c -0.504 0.048 -0.624 0.084 -0.624 1.08Z "/></symbol><symbol id="g847DCE2A3EE7D23E3D551BDE0EE8A683" overflow="visible"><path d="M 0 0m 2.607 7.326c -0.561 0 -1.034 -0.198 -1.441 -0.594c -0.407 -0.396 -0.616 -0.858 -0.616 -1.419c 0 -0.374 0.275 -0.649 0.616 -0.649c 0.33 0 0.605 0.286 0.605 0.616c 0 0.363 -0.264 0.616 -0.616 0.616c -0.033 0 -0.055 0 -0.077 -0.011c 0.209 0.539 0.693 1.012 1.386 1.012c 0.902 0 1.408 -0.781 1.408 -1.727c 0 -0.737 -0.374 -1.529 -1.122 -2.365l -2.068 -2.332c -0.143 -0.165 -0.132 -0.154 -0.132 -0.473h 4.081l 0.319 1.98h -0.363c -0.088 -0.561 -0.165 -0.88 -0.231 -0.979c -0.055 -0.055 -0.385 -0.077 -0.99 -0.077h -1.837l 1.067 1.045c 0.748 0.704 1.694 1.463 2.013 2.046c 0.22 0.385 0.33 0.77 0.33 1.155c 0 1.298 -1.012 2.156 -2.332 2.156Z "/></symbol><symbol id="gD91D82170ED5F219BEA1B53E81DC19AF" overflow="visible"><path d="M 0 0m 1.936 3.938c -0.022 0.44 -0.033 0.726 -0.088 0.836c -0.022 0.055 -0.044 0.088 -0.132 0.088c -0.308 -0.121 -0.594 -0.22 -1.353 -0.319c -0.022 -0.066 0 -0.242 0.022 -0.308c 0.594 -0.055 0.715 -0.11 0.715 -0.748v -2.145c 0 -0.913 -0.132 -0.957 -0.814 -1.001c -0.066 -0.066 -0.066 -0.297 0 -0.363c 0.385 0.011 0.814 0.022 1.254 0.022c 0.44 0 0.946 -0.011 1.331 -0.022c 0.066 0.066 0.066 0.297 0 0.363c -0.77 0.055 -0.902 0.088 -0.902 1.001v 1.529c 0 0.286 0.132 0.539 0.264 0.737c 0.121 0.176 0.374 0.539 0.506 0.539c 0.099 0 0.198 -0.022 0.286 -0.143c 0.077 -0.11 0.209 -0.253 0.396 -0.253c 0.264 0 0.517 0.275 0.517 0.55c 0 0.209 -0.198 0.528 -0.66 0.528c -0.517 0 -0.968 -0.484 -1.221 -0.913c -0.066 -0.121 -0.121 -0.033 -0.121 0.022Z "/></symbol><symbol id="g93E2B88EAD8DFDF0BE4D6467DB923DB5" overflow="visible"><path d="M 0 0m 3.333 3.883c 0.726 0.275 1.408 0.968 1.408 1.903c 0 0.473 -0.231 0.858 -0.682 1.155c -0.396 0.253 -0.847 0.385 -1.353 0.385c -0.495 0 -0.924 -0.132 -1.309 -0.385c -0.429 -0.286 -0.649 -0.66 -0.649 -1.133c 0 -0.363 0.242 -0.616 0.594 -0.616c 0.352 0 0.594 0.253 0.594 0.605c 0 0.363 -0.209 0.561 -0.627 0.583c 0.286 0.385 0.737 0.583 1.353 0.583c 0.66 0 0.99 -0.385 0.99 -1.166c 0 -0.462 -0.088 -0.847 -0.253 -1.166c -0.297 -0.528 -0.704 -0.627 -1.386 -0.627c -0.132 -0.022 -0.198 -0.077 -0.198 -0.176c 0 -0.165 0.077 -0.165 0.297 -0.165h 0.473c 0.825 0 1.243 -0.583 1.243 -1.76c 0 -0.935 -0.341 -1.749 -1.177 -1.749c -0.715 0 -1.243 0.242 -1.562 0.726c 0.385 -0.011 0.671 0.275 0.671 0.649c 0 0.374 -0.275 0.649 -0.649 0.649c -0.429 0 -0.649 -0.22 -0.649 -0.671c 0 -0.539 0.242 -0.968 0.726 -1.309c 0.429 -0.297 0.935 -0.44 1.496 -0.44c 0.627 0 1.166 0.209 1.639 0.616c 0.473 0.407 0.704 0.913 0.704 1.529c 0 1.034 -0.814 1.749 -1.694 1.98Z "/></symbol><symbol id="g6A6B3E3381055DAC4DAE42A1F0D08F9F" overflow="visible"><path d="M 0 0m 0.6 5.448c 0 -0.3 0.276 -0.648 0.708 -0.648c 0.348 0 0.696 0.264 0.696 0.636c 0 0.06 -0.024 0.144 -0.06 0.252c -0.036 0.084 -0.072 0.18 -0.072 0.312c 0 0.276 0.42 0.828 0.996 0.828c 0.612 0 1.032 -0.756 1.032 -1.476c 0 -0.804 -0.048 -1.32 -0.684 -1.92l -1.02 -0.972c -1.488 -1.416 -1.692 -1.752 -1.728 -2.076l 0.048 -0.384h 4.632c 0.144 0.456 0.288 1.284 0.372 1.968c -0.156 0.072 -0.264 0.12 -0.54 0.12c -0.264 -0.816 -0.612 -1.14 -1.152 -1.14h -1.56c 0.036 0.384 0.156 0.708 0.552 1.068l 0.708 0.648c 1.428 1.32 1.908 1.608 1.908 2.724c 0 1.248 -1.056 1.932 -2.292 1.932c -1.716 0 -2.544 -1.128 -2.544 -1.872Z "/></symbol><symbol id="g3BC6300649CA32A3B6F5E66435D77781" overflow="visible"><path d="M 0 0m 3.113 3.553c 0.935 0 0.968 -0.253 1.001 -0.748c 0.066 -0.066 0.297 -0.066 0.363 0c -0.011 0.275 -0.022 0.594 -0.022 0.968c 0 0.374 0.011 0.66 0.022 0.946c -0.066 0.066 -0.297 0.066 -0.363 0c -0.033 -0.605 -0.066 -0.748 -1.001 -0.748h -1.023v 1.98c 0 0.594 0.132 0.704 0.616 0.704h 0.495c 1.166 0 1.441 -0.44 1.683 -1.199c 0.132 0 0.253 0.022 0.341 0.055c -0.055 0.451 -0.22 1.507 -0.242 1.595c 0 0.022 -0.011 0.033 -0.044 0.033c -0.187 -0.033 -0.242 -0.044 -0.517 -0.044h -2.805c -0.352 0 -0.979 0.011 -1.419 0.022c -0.066 -0.066 -0.066 -0.297 0 -0.363c 0.77 -0.033 0.957 -0.088 0.957 -1.001v -4.411c 0 -0.913 -0.187 -0.968 -0.957 -1.001c -0.066 -0.066 -0.066 -0.297 0 -0.363c 0.385 0.011 0.935 0.022 1.43 0.022c 0.495 0 1.034 -0.011 1.419 -0.022c 0.066 0.066 0.066 0.297 0 0.363c -0.77 0.033 -0.957 0.088 -0.957 1.001v 2.211Z "/></symbol><symbol id="gDD50B131DFBA2C7EA73123CA4C98C33" overflow="visible"><path d="M 0 0m 1.991 1.342v 2.189c 0 0.55 0.044 1.254 0.044 1.254c 0 0.044 -0.055 0.077 -0.143 0.077c -0.308 -0.121 -0.748 -0.22 -1.507 -0.319c -0.022 -0.066 0 -0.242 0.022 -0.308c 0.605 -0.055 0.715 -0.121 0.715 -0.748v -2.145c 0 -0.913 -0.121 -0.946 -0.792 -1.001c -0.066 -0.066 -0.066 -0.297 0 -0.363c 0.363 0.011 0.792 0.022 1.232 0.022c 0.44 0 0.858 -0.011 1.221 -0.022c 0.066 0.066 0.066 0.297 0 0.363c -0.671 0.044 -0.792 0.088 -0.792 1.001Z m -1.001 5.247c 0 -0.286 0.264 -0.572 0.528 -0.572c 0.308 0 0.572 0.297 0.572 0.528c 0 0.264 -0.231 0.572 -0.528 0.572c -0.264 0 -0.572 -0.264 -0.572 -0.528Z "/></symbol><symbol id="gEB245AFE22C398BE296AC5F7AF6ADF12" overflow="visible"><path d="M 0 0m 2.024 3.938c -0.066 -0.077 -0.132 -0.099 -0.132 0c -0.011 0.297 -0.033 0.726 -0.088 0.836c -0.022 0.055 -0.044 0.088 -0.132 0.088c -0.308 -0.121 -0.594 -0.22 -1.353 -0.319c -0.022 -0.066 0 -0.242 0.022 -0.308c 0.594 -0.055 0.715 -0.11 0.715 -0.748v -2.145c 0 -0.902 -0.11 -0.946 -0.77 -1.001c -0.066 -0.066 -0.066 -0.297 0 -0.363c 0.33 0.011 0.77 0.022 1.21 0.022c 0.44 0 0.77 -0.011 1.1 -0.022c 0.066 0.066 0.066 0.297 0 0.363c -0.561 0.055 -0.671 0.099 -0.671 1.001v 1.804c 0 0.231 0.099 0.363 0.187 0.462c 0.418 0.407 0.913 0.649 1.342 0.649c 0.22 0 0.451 -0.143 0.583 -0.396c 0.11 -0.22 0.132 -0.517 0.132 -0.847v -1.672c 0 -0.902 -0.11 -0.946 -0.682 -1.001c -0.055 -0.066 -0.055 -0.297 0 -0.363c 0.33 0.011 0.682 0.022 1.122 0.022c 0.44 0 0.836 -0.011 1.166 -0.022c 0.055 0.066 0.055 0.297 0 0.363c -0.616 0.055 -0.737 0.099 -0.737 1.001v 1.639c 0 0.605 -0.044 1.133 -0.297 1.474c -0.187 0.242 -0.528 0.374 -0.913 0.374c -0.539 0 -1.155 -0.143 -1.804 -0.891Z "/></symbol><symbol id="g7FF42B92D9D80783DC2C1CC317042C56" overflow="visible"><path d="M 0 0m 3.674 0.55c 0.055 0.044 0.154 0.066 0.165 -0.011c 0.033 -0.264 0.121 -0.649 0.121 -0.649c 0.088 -0.033 0.143 -0.022 0.209 0c 0.242 0.198 0.627 0.363 1.298 0.44c 0.066 0.066 0.066 0.231 0 0.297c -0.704 0.055 -0.803 0.264 -0.803 0.803v 4.983c 0 0.715 0.044 1.155 0.044 1.155c 0 0.077 -0.044 0.11 -0.143 0.11c -0.275 -0.11 -1.1 -0.264 -1.54 -0.297c -0.022 -0.088 0 -0.264 0.066 -0.33c 0.033 0 0.066 0 0.099 0c 0.484 -0.033 0.605 -0.033 0.605 -0.902v -1.408c 0 -0.077 -0.022 -0.099 -0.099 -0.099c -0.044 0 -0.495 0.187 -0.858 0.187c -0.726 0 -1.21 -0.242 -1.65 -0.66c -0.473 -0.473 -0.759 -1.122 -0.759 -1.936c 0 -1.353 0.682 -2.343 1.87 -2.343c 0.429 0 0.836 0.22 1.375 0.66Z m 0.121 0.814c 0 -0.209 -0.022 -0.297 -0.176 -0.429c -0.407 -0.352 -0.759 -0.528 -1.034 -0.528c -0.594 0 -1.21 0.649 -1.21 2.024c 0 0.792 0.154 1.232 0.319 1.463c 0.341 0.517 0.803 0.55 1.023 0.55c 0.396 0 0.671 -0.143 0.891 -0.396c 0.154 -0.176 0.187 -0.253 0.187 -0.594Z "/></symbol><symbol id="gB38329E71763B8BD4CF776D24C5AFFE1" overflow="visible"><path d="M 0 0m 0.473 4.719c -0.154 0 -0.198 -0.132 -0.198 -0.22v -0.143c 0 -0.055 0.011 -0.066 0.055 -0.066h 0.649v -3.311c 0 -0.781 0.341 -1.089 0.847 -1.089c 0.506 0 1.056 0.242 1.485 0.726c -0.022 0.11 -0.088 0.176 -0.198 0.187c -0.286 -0.22 -0.616 -0.308 -0.902 -0.308c -0.297 0 -0.363 0.33 -0.363 1.012v 2.783h 1.144c 0.11 0 0.264 0.044 0.264 0.143v 0.22c 0 0.044 -0.033 0.066 -0.088 0.066h -1.32v 0.429c 0 0.715 0.044 1.155 0.044 1.155c 0 0.066 -0.033 0.099 -0.088 0.099c -0.044 0 -0.143 -0.044 -0.242 -0.099c -0.121 -0.066 -0.231 -0.121 -0.374 -0.154c -0.132 -0.044 -0.242 -0.077 -0.242 -0.154c 0 -0.132 0.033 -0.055 0.033 -1.276Z "/></symbol><symbol id="g525D29E90AD4E5DCC336104F62B1760B" overflow="visible"><path d="M 0 0m 1.837 3.146c 0 0.231 0.099 0.363 0.187 0.462c 0.418 0.407 0.979 0.649 1.408 0.649c 0.22 0 0.451 -0.143 0.583 -0.396c 0.11 -0.22 0.132 -0.517 0.132 -0.847v -1.672c 0 -0.902 -0.11 -0.946 -0.682 -1.001c -0.055 -0.066 -0.055 -0.297 0 -0.363c 0.308 0.011 0.682 0.022 1.122 0.022c 0.44 0 0.803 -0.011 1.166 -0.022c 0.055 0.066 0.055 0.297 0 0.363c -0.616 0.055 -0.737 0.099 -0.737 1.001v 1.639c 0 0.605 -0.044 1.144 -0.297 1.474c -0.187 0.242 -0.528 0.374 -0.913 0.374c -0.539 0 -1.199 -0.143 -1.87 -0.891c 0 -0.011 -0.011 -0.011 -0.022 -0.022c -0.033 -0.044 -0.088 -0.11 -0.088 0.022l 0.011 2.475c 0 0.715 0.044 1.155 0.044 1.155c 0 0.077 -0.044 0.11 -0.143 0.11c -0.275 -0.11 -1.1 -0.264 -1.54 -0.297c -0.022 -0.088 0 -0.264 0.066 -0.33c 0.033 0 0.066 0 0.099 0c 0.484 -0.033 0.605 -0.033 0.605 -0.902v -4.807c 0 -0.913 -0.132 -0.957 -0.77 -1.001c -0.066 -0.066 -0.066 -0.297 0 -0.363c 0.363 0.011 0.77 0.022 1.21 0.022c 0.418 0 0.781 -0.011 1.089 -0.022c 0.066 0.066 0.066 0.297 0 0.363c -0.561 0.044 -0.66 0.088 -0.66 1.001Z "/></symbol><symbol id="g9787446D80B11CDE2529516BF2D1ACCA" overflow="visible"><path d="M 0 0m 3.223 0.528c 0.066 -0.341 0.187 -0.638 0.737 -0.638c 0.418 0 0.814 0.187 1.045 0.407c -0.022 0.132 -0.066 0.231 -0.187 0.297c -0.077 -0.066 -0.264 -0.176 -0.407 -0.176c -0.319 0 -0.33 0.429 -0.33 0.935v 1.617c 0 1.562 -0.858 1.859 -1.661 1.859c -0.902 0 -1.815 -0.594 -1.815 -1.221c 0 -0.264 0.132 -0.396 0.385 -0.396c 0.319 0 0.517 0.231 0.517 0.374c 0 0.077 -0.011 0.154 -0.033 0.198c -0.011 0.033 -0.022 0.099 -0.022 0.22c 0 0.341 0.462 0.462 0.88 0.462c 0.374 0 0.891 -0.187 0.891 -1.43c 0 -0.077 -0.033 -0.121 -0.066 -0.132l -0.946 -0.231c -1.056 -0.264 -1.815 -0.847 -1.815 -1.595c 0 -0.902 0.616 -1.188 1.386 -1.188c 0.385 0 0.715 0.088 1.199 0.462l 0.22 0.176Z m 0 2.035v -1.452c 0 -0.143 -0.066 -0.22 -0.154 -0.286c -0.286 -0.231 -0.66 -0.484 -0.968 -0.484c -0.55 0 -0.792 0.44 -0.792 0.781c 0 0.495 0.231 1.001 1.045 1.21Z "/></symbol><symbol id="gD14A2C15FA7E7E6DA17092C3143CABC8" overflow="visible"><path d="M 0 0m 1.925 1.342v 2.948h 1.023c 0.099 0 0.253 0.044 0.253 0.143v 0.22c 0 0.044 -0.033 0.066 -0.088 0.066h -1.188v 0.627c 0 1.694 0.506 1.958 0.869 1.958c 0.33 0 0.506 -0.132 0.66 -0.517c 0.088 -0.198 0.209 -0.352 0.44 -0.352c 0.187 0 0.451 0.231 0.451 0.451c 0 0.187 -0.121 0.385 -0.352 0.561c -0.286 0.198 -0.572 0.231 -0.99 0.231c -0.924 0 -1.947 -0.803 -1.947 -2.519v -0.44h -0.561c -0.198 0 -0.253 -0.132 -0.253 -0.22v -0.143c 0 -0.055 0.011 -0.066 0.055 -0.066h 0.759v -2.948c 0 -0.913 -0.176 -0.957 -0.77 -1.001c -0.066 -0.066 -0.066 -0.297 0 -0.363c 0.385 0.011 0.77 0.022 1.21 0.022c 0.44 0 0.968 -0.011 1.353 -0.022c 0.066 0.066 0.066 0.297 0 0.363c -0.858 0.044 -0.924 0.088 -0.924 1.001Z "/></symbol><symbol id="g3CE57ED74C3DBA63F54F2735C0855367" overflow="visible"><path d="M 0 0m 4.378 1.001c -0.044 0.099 -0.132 0.143 -0.231 0.154c -0.374 -0.484 -0.847 -0.726 -1.32 -0.726c -0.803 0 -1.474 0.814 -1.474 2.101c 0 1.21 0.528 1.936 1.254 1.936c 0.649 0 0.737 -0.385 0.781 -0.77c 0.033 -0.297 0.187 -0.396 0.418 -0.396c 0.231 0 0.539 0.143 0.539 0.484c 0 0.605 -0.627 1.045 -1.683 1.045c -1.089 0 -2.255 -0.979 -2.255 -2.541c 0 -1.419 0.792 -2.398 2.178 -2.398c 0.66 0 1.243 0.209 1.793 1.111Z "/></symbol><symbol id="g162FFC49A5D51E5E20A023FB65F6BB60" overflow="visible"><path d="M 0 0m 2.233 4.378c 0.066 0.066 0.066 0.297 0 0.363c -0.33 -0.011 -0.715 -0.022 -1.111 -0.022c -0.418 0 -0.715 0.011 -1.001 0.022c -0.066 -0.066 -0.066 -0.297 0 -0.363c 0.517 -0.055 0.638 -0.165 0.869 -0.737l 1.441 -3.553c 0.066 -0.154 0.154 -0.22 0.264 -0.22c 0.099 0 0.187 0.066 0.264 0.242l 1.111 2.706l 1.133 -2.728c 0.066 -0.154 0.154 -0.22 0.264 -0.22c 0.099 0 0.187 0.066 0.253 0.231l 1.441 3.487c 0.176 0.451 0.363 0.759 0.924 0.792c 0.066 0.066 0.066 0.297 0 0.363c -0.22 -0.011 -0.462 -0.022 -0.792 -0.022c -0.33 0 -0.792 0.011 -1.122 0.022c -0.066 -0.066 -0.066 -0.297 0 -0.363c 0.825 -0.044 0.715 -0.363 0.561 -0.748l -0.924 -2.288c -0.11 -0.275 -0.154 -0.275 -0.242 -0.044l -0.946 2.409c -0.209 0.517 -0.187 0.627 0.396 0.671c 0.066 0.066 0.066 0.297 0 0.363c -0.33 -0.011 -0.77 -0.022 -1.1 -0.022c -0.275 0 -0.638 0.011 -0.968 0.022c -0.066 -0.066 -0.066 -0.297 0 -0.363c 0.517 -0.044 0.649 -0.363 0.847 -0.858l 0.066 -0.176l -0.77 -1.947c -0.143 -0.363 -0.165 -0.374 -0.308 -0.022l -0.88 2.266c -0.209 0.528 -0.198 0.704 0.33 0.737Z "/></symbol><symbol id="g8FE23DF7094EE2D558758B421CB0DF33" overflow="visible"><path d="M 0 0m 2.387 -0.11c 0.429 0 0.946 0.22 1.485 0.66c 0.055 0.044 0.154 0.066 0.165 -0.011c 0.033 -0.275 0.121 -0.649 0.121 -0.649c 0.088 -0.033 0.143 -0.022 0.209 0c 0.242 0.198 0.627 0.363 1.298 0.44c 0.066 0.066 0.066 0.231 0 0.297c -0.704 0.055 -0.803 0.264 -0.803 0.803v 2.112c 0 0.33 0.044 1.133 0.044 1.133c 0 0.033 -0.033 0.066 -0.088 0.066c -0.055 -0.011 -0.22 -0.022 -0.385 -0.022c -0.352 0 -0.748 0.011 -1.122 0.022c -0.066 -0.066 -0.066 -0.297 0 -0.363c 0.539 -0.033 0.682 -0.165 0.682 -0.891v -2.123c 0 -0.209 -0.022 -0.297 -0.176 -0.429c -0.407 -0.352 -0.825 -0.528 -1.1 -0.528c -0.33 0 -0.88 0.154 -0.88 1.133v 2.002c 0 0.33 0.044 1.133 0.044 1.133c 0 0.033 -0.033 0.066 -0.088 0.066c -0.055 -0.011 -0.22 -0.022 -0.385 -0.022c -0.352 0 -0.748 0.011 -1.122 0.022c -0.066 -0.066 -0.066 -0.297 0 -0.363c 0.528 -0.044 0.682 -0.165 0.682 -0.88v -2.112c 0 -0.759 0.33 -1.496 1.419 -1.496Z "/></symbol><symbol id="g4E5D026409004C23B788CF76C0C2AF69" overflow="visible"><path d="M 0 0m 0.528 1.518c 0.044 -0.539 0.077 -1.056 0.077 -1.518c 0.11 0.022 0.22 0.033 0.275 0.033c 0.077 0 0.143 0 0.22 -0.022c 0.297 -0.077 0.594 -0.121 1.001 -0.121c 0.616 0 1.749 0.297 1.749 1.386c 0 0.748 -0.539 1.188 -1.287 1.463c -0.66 0.253 -1.1 0.418 -1.1 1.023c 0 0.451 0.396 0.704 0.77 0.704c 0.242 0 0.88 -0.088 1.023 -1.023c 0.066 -0.066 0.286 -0.055 0.352 0.011c 0.033 0.396 0.055 0.803 0.066 1.166c -0.341 0.055 -0.869 0.209 -1.441 0.209c -0.814 0 -1.551 -0.528 -1.551 -1.232c 0 -0.803 0.363 -1.144 1.21 -1.496c 0.913 -0.374 1.122 -0.605 1.122 -1.078c 0 -0.539 -0.528 -0.77 -0.935 -0.77c -0.429 0 -0.671 0.143 -0.781 0.264c -0.242 0.253 -0.363 0.737 -0.429 1.012c -0.066 0.066 -0.275 0.055 -0.341 -0.011Z "/></symbol><symbol id="g11CDB088C8E2186077BDC4630970361A" overflow="visible"><path d="M 0 0m 3.509 2.079c 0 -1.045 -0.55 -1.815 -1.21 -1.815c -0.418 0 -0.561 0.275 -0.726 0.495c -0.143 0.187 -0.33 0.352 -0.561 0.352c -0.209 0 -0.418 -0.187 -0.418 -0.407c 0 -0.451 0.935 -0.825 1.562 -0.825c 1.364 0 2.332 1.012 2.332 2.398c 0 1.067 -0.737 2.024 -1.969 2.024c -0.473 0 -0.88 -0.099 -1.078 -0.176l 0.22 1.837c 0.407 -0.044 0.759 -0.099 1.287 -0.099c 0.33 0 0.704 0.022 1.155 0.066l 0.176 0.748l -0.077 0.044c -0.627 -0.066 -1.221 -0.121 -1.804 -0.121c -0.407 0 -0.803 0.022 -1.188 0.055l -0.374 -3.168c 0.583 0.22 1.001 0.264 1.397 0.264c 0.715 0 1.276 -0.473 1.276 -1.672Z "/></symbol><symbol id="gDD78C4AC18CD51C41481EB0565E89892" overflow="visible"><path d="M 0 0m 1.507 0.033c 0.198 0 0.88 -0.033 1.089 -0.033c 0.165 0 0.242 0.088 0.242 0.253c 0 0.099 -0.066 0.165 -0.209 0.176c -0.319 0.011 -0.473 0.121 -0.473 0.33c 0 0.099 0.099 0.319 0.308 0.649c 0.297 0.495 0.506 0.858 0.649 1.1h 2.673c 0 -0.077 0.011 -0.231 0.044 -0.473c 0.077 -0.803 0.121 -1.243 0.121 -1.298c 0 -0.209 -0.242 -0.308 -0.737 -0.308c -0.209 0 -0.308 -0.088 -0.308 -0.264c 0 -0.11 0.066 -0.165 0.198 -0.165c 0.264 0 1.1 0.033 1.364 0.033c 0.22 0 1.001 -0.033 1.221 -0.033c 0.165 0 0.242 0.088 0.242 0.264c 0 0.11 -0.099 0.165 -0.297 0.165c -0.308 0 -0.495 0.022 -0.55 0.055c -0.055 0.033 -0.099 0.132 -0.11 0.297l -0.66 6.798c -0.033 0.209 -0.022 0.297 -0.253 0.297c -0.132 0 -0.242 -0.066 -0.319 -0.209l -3.784 -6.347c -0.33 -0.55 -0.77 -0.847 -1.309 -0.891c -0.176 -0.011 -0.264 -0.099 -0.264 -0.264c 0 -0.11 0.066 -0.165 0.187 -0.165c 0.176 0 0.759 0.033 0.935 0.033Z m 3.905 6.314l 0.33 -3.41h -2.365Z "/></symbol><symbol id="g85203C193CE53EF3093DD914D5338948" overflow="visible"><path d="M 0 0m 5.764 4.741h -3.63c -0.451 0 -0.847 -0.176 -1.166 -0.517c -0.154 -0.165 -0.671 -0.869 -0.671 -1.012c 0.044 -0.077 0.044 -0.143 0.176 -0.143c 0.077 0 0.143 0.044 0.209 0.143c 0.352 0.539 0.803 0.814 1.342 0.814h 0.561c -0.253 -0.957 -0.715 -2.134 -1.375 -3.531c -0.055 -0.132 -0.088 -0.231 -0.088 -0.286c 0 -0.22 0.121 -0.33 0.352 -0.33c 0.209 0 0.363 0.121 0.462 0.352c 0.198 0.627 0.341 1.111 0.418 1.441l 0.605 2.354h 1.133c -0.297 -1.309 -0.451 -2.222 -0.451 -2.739c 0 -0.539 0.121 -1.408 0.528 -1.408c 0.231 0 0.484 0.22 0.484 0.451c 0 0.055 -0.022 0.143 -0.066 0.253c -0.209 0.517 -0.308 1.1 -0.308 1.771c 0 0.517 0.066 1.078 0.187 1.672h 1.199c 0.385 0 0.572 0.132 0.572 0.407c 0 0.253 -0.198 0.308 -0.473 0.308Z "/></symbol><symbol id="g48A08B2AB87B0C0252D7C6679420B3F2" overflow="visible"><path d="M 0 0m 4.796 4.114c 0 0.462 -0.451 0.748 -0.935 0.748c -0.539 0 -0.99 -0.253 -1.364 -0.77c -0.11 0.429 -0.484 0.77 -1.001 0.77c -0.451 0 -0.781 -0.352 -1.012 -1.067c -0.11 -0.363 -0.165 -0.572 -0.165 -0.638c 0 -0.099 0.055 -0.154 0.176 -0.154c 0.055 0 0.088 0.011 0.121 0.033c 0.055 0.099 0.088 0.176 0.099 0.253c 0.198 0.836 0.451 1.254 0.748 1.254c 0.187 0 0.286 -0.154 0.286 -0.462c 0 -0.143 -0.055 -0.44 -0.165 -0.891l -0.627 -2.497c -0.033 -0.143 -0.099 -0.429 -0.099 -0.484c 0 -0.22 0.121 -0.33 0.352 -0.33c 0.22 0 0.363 0.11 0.44 0.33l 0.209 0.792c 0.121 0.473 0.198 0.781 0.231 0.924l 0.341 1.408c 0.022 0.088 0.11 0.231 0.253 0.44c 0.297 0.418 0.638 0.77 1.177 0.77c 0.132 0 0.242 -0.022 0.341 -0.077c -0.33 -0.099 -0.495 -0.308 -0.495 -0.605c 0 -0.286 0.154 -0.429 0.451 -0.429c 0.363 0 0.638 0.319 0.638 0.682Z "/></symbol></defs></svg>