<svg viewBox="0 0 396.850393701 157.651913386" width="396.850393701pt" height="157.651913386pt" xmlns="http://www.w3.org/2000/svg" xmlns:xlink="http://www.w3.org/1999/xlink" xmlns:h5="http://www.w3.org/1999/xhtml"><path fill="#ffffff" fill-rule="nonzero" d="M 0 0v 157.651913386h 396.850393701v -157.651913386Z "/><g transform="translate(28.346456693 28.346456693)"><g transform="matrix(1 0 0 -1 0 9.933)"><use xlink:href="#g7DEFC93E29F07BFBFDBC7F15AAA2BBEC" x="0" y="0" fill="#000000" fill-rule="nonzero"/><use xlink:href="#g6476F0F7E4418F1157BCC40DDC3BB78C" x="10.0716" y="0" fill="#000000" fill-rule="nonzero"/><use xlink:href="#g476124418761C934B95A35B0D3C20E07" x="17.864" y="0" fill="#000000" fill-rule="nonzero"/><use xlink:href="#g637506313BAA6F72BE9B7E1619C4BE2A" x="24.4398" y="0" fill="#000000" fill-rule="nonzero"/><use xlink:href="#g2234B4E8F53D34CD82162BC6EB922EF6" x="29.3986" y="0" fill="#000000" fill-rule="nonzero"/><use xlink:href="#g9F849EDE5F192DD0842AC0C8F7F32A85" x="40.271" y="0" fill="#000000" fill-rule="nonzero"/><use xlink:href="#g1797D2DF762B4BD2905A65B3C966A3EF" x="49.6496" y="0" fill="#000000" fill-rule="nonzero"/><use xlink:href="#g8D87BB1E6931CE5DBAF4138A3DE9A54D" x="58.289" y="0" fill="#000000" fill-rule="nonzero"/><use xlink:href="#gC0EBBBD6F3DBCA85D31CDC275B71A469" x="65.8196" y="0" fill="#000000" fill-rule="nonzero"/><use xlink:href="#g2234B4E8F53D34CD82162BC6EB922EF6" x="72.2876" y="0" fill="#000000" fill-rule="nonzero"/><use xlink:href="#g637506313BAA6F72BE9B7E1619C4BE2A" x="79.31" y="0" fill="#000000" fill-rule="nonzero"/><use xlink:href="#g476124418761C934B95A35B0D3C20E07" x="84.2688" y="0" fill="#000000" fill-rule="nonzero"/><use xlink:href="#g8D87BB1E6931CE5DBAF4138A3DE9A54D" x="90.8446" y="0" fill="#000000" fill-rule="nonzero"/><use xlink:href="#g476124418761C934B95A35B0D3C20E07" x="98.3752" y="0" fill="#000000" fill-rule="nonzero"/></g></g><g transform="translate(28.346456693 47.079456693)"><g transform="translate(41.908)"><g><path fill="#ffffff" fill-rule="nonzero" stroke="#000000" stroke-width="0.8" stroke-linecap="butt" stroke-linejoin="miter" stroke-miterlimit="4" d="M 0 0v 20h 62.444v -20Z "/><g transform="matrix(1 0 0 -1 4 13.87)"><use xlink:href="#g71810B677EEE634316EAB71F2F5BD9A8" x="0" y="0" fill="#000000" fill-rule="nonzero"/><use xlink:href="#g898F8D390A5BE9CA3FA6421EA60BDB40" x="7.308" y="0" fill="#000000" fill-rule="nonzero"/><use xlink:href="#gE18113BE1243CA6EC5596891CC422939" x="14.04" y="0" fill="#000000" fill-rule="nonzero"/><use xlink:href="#g56D9AC69DF1E60AEC4FA898FA388366B" x="19.908" y="0" fill="#000000" fill-rule="nonzero"/><use xlink:href="#gEF03CC905B39DF2CE13E9EED9CECE9CC" x="24.948" y="0" fill="#000000" fill-rule="nonzero"/><use xlink:href="#g1094D23D321B642DA133CC49B1BA1EB9" x="30.42" y="0" fill="#000000" fill-rule="nonzero"/><use xlink:href="#g93ED4154508DB3ADD21415419B103611" x="34.284" y="0" fill="#000000" fill-rule="nonzero"/><use xlink:href="#gE18113BE1243CA6EC5596891CC422939" x="39.408" y="0" fill="#000000" fill-rule="nonzero"/><use xlink:href="#gFCFAD84E8A4521C99D93A9F0049D8745" x="48.276" y="0" fill="#000000" fill-rule="nonzero"/></g></g></g><g transform="translate(110.352)"><g transform="matrix(1 0 0 -1 0 10.513)"><use xlink:href="#gD355BF4F81D64465081A1B40E1986DB4" x="0" y="0" fill="#000000" fill-rule="nonzero"/><use xlink:href="#g5E76F8DBE7C3C7A9A461E8EC1D70F6FB" x="5.335" y="0" fill="#000000" fill-rule="nonzero"/><use xlink:href="#g36F90904A4043C6A677E73471A30013F" x="10.879" y="0" fill="#000000" fill-rule="nonzero"/><use xlink:href="#g1E471D2E98C4E85A3CE47F56E86025C4" x="13.783" y="0" fill="#000000" fill-rule="nonzero"/><use xlink:href="#gBFE09989B12480F1B7796D69E0D7287C" x="19.162" y="0" fill="#000000" fill-rule="nonzero"/><use xlink:href="#gB38329E71763B8BD4CF776D24C5AFFE1" x="26.829" y="0" fill="#000000" fill-rule="nonzero"/><use xlink:href="#g525D29E90AD4E5DCC336104F62B1760B" x="30.305" y="0" fill="#000000" fill-rule="nonzero"/><use xlink:href="#gBFE09989B12480F1B7796D69E0D7287C" x="36.223" y="0" fill="#000000" fill-rule="nonzero"/><use xlink:href="#gBFE09989B12480F1B7796D69E0D7287C" x="43.89" y="0" fill="#000000" fill-rule="nonzero"/><use xlink:href="#g36A3A8A97C98E8EDF35F9BD5FE38C076" x="48.884" y="0" fill="#000000" fill-rule="nonzero"/><use xlink:href="#g8FE23DF7094EE2D558758B421CB0DF33" x="54.417" y="0" fill="#000000" fill-rule="nonzero"/><use xlink:href="#g9787446D80B11CDE2529516BF2D1ACCA" x="60.258" y="0" fill="#000000" fill-rule="nonzero"/><use xlink:href="#gB38329E71763B8BD4CF776D24C5AFFE1" x="65.285" y="0" fill="#000000" fill-rule="nonzero"/><use xlink:href="#gDD50B131DFBA2C7EA73123CA4C98C33" x="68.761" y="0" fill="#000000" fill-rule="nonzero"/><use xlink:href="#g5E76F8DBE7C3C7A9A461E8EC1D70F6FB" x="71.742" y="0" fill="#000000" fill-rule="nonzero"/><use xlink:href="#gEB245AFE22C398BE296AC5F7AF6ADF12" x="77.286" y="0" fill="#000000" fill-rule="nonzero"/></g><g transform="matrix(1 0 0 -1 85.998 10.513)"><use xlink:href="#g847DCE2A3EE7D23E3D551BDE0EE8A683" x="0" y="0" fill="#000000" fill-rule="nonzero"/></g><g transform="matrix(1 0 0 -1 91.498 10.513)"><use xlink:href="#g7FDD4349A49914F62F30F23AE9794251" x="0" y="0" fill="#000000" fill-rule="nonzero"/></g><g transform="matrix(1 0 0 -1 100.234444444 10.513)"><use xlink:href="#gDDD45F8C02017DD13480202EA2B099EF" x="0" y="0" fill="#000000" fill-rule="nonzero"/></g><g transform="matrix(1 0 0 -1 111.236888889 10.513)"><use xlink:href="#g8894C0A608DBD285706C131FF554A2B1" x="0" y="0" fill="#000000" fill-rule="nonzero"/></g><g transform="matrix(1 0 0 -1 119.792444444 10.513)"><use xlink:href="#g2389F7618E8CE27CC7151A1D8E5DEAD4" x="0" y="0" fill="#000000" fill-rule="nonzero"/></g><g transform="matrix(1 0 0 -1 131.406 10.513)"><use xlink:href="#g23FF2CB0A5B3999574DE734D483151BD" x="0" y="0" fill="#000000" fill-rule="nonzero"/></g><g transform="matrix(1 0 0 -1 136.906 10.513)"><use xlink:href="#g93E2B88EAD8DFDF0BE4D6467DB923DB5" x="0" y="0" fill="#000000" fill-rule="nonzero"/></g><g transform="matrix(1 0 0 -1 142.406 10.513)"><use xlink:href="#g4C1ED41FE02ABB1BA3896D4213CC7460" x="0" y="0" fill="#000000" fill-rule="nonzero"/></g></g></g><g transform="translate(28.346456693 75.879456693)"><g transform="translate(41.908)"><g><path fill="#ffffff" fill-rule="nonzero" stroke="#000000" stroke-width="0.8" stroke-linecap="butt" stroke-linejoin="miter" stroke-miterlimit="4" d="M 0 0v 20h 62.444v -20Z "/><g transform="matrix(1 0 0 -1 4 13.87)"><use xlink:href="#g71810B677EEE634316EAB71F2F5BD9A8" x="0" y="0" fill="#000000" fill-rule="nonzero"/><use xlink:href="#g898F8D390A5BE9CA3FA6421EA60BDB40" x="7.308" y="0" fill="#000000" fill-rule="nonzero"/><use xlink:href="#gE18113BE1243CA6EC5596891CC422939" x="14.04" y="0" fill="#000000" fill-rule="nonzero"/><use xlink:href="#g56D9AC69DF1E60AEC4FA898FA388366B" x="19.908" y="0" fill="#000000" fill-rule="nonzero"/><use xlink:href="#gEF03CC905B39DF2CE13E9EED9CECE9CC" x="24.948" y="0" fill="#000000" fill-rule="nonzero"/><use xlink:href="#g1094D23D321B642DA133CC49B1BA1EB9" x="30.42" y="0" fill="#000000" fill-rule="nonzero"/><use xlink:href="#g93ED4154508DB3ADD21415419B103611" x="34.284" y="0" fill="#000000" fill-rule="nonzero"/><use xlink:href="#gE18113BE1243CA6EC5596891CC422939" x="39.408" y="0" fill="#000000" fill-rule="nonzero"/><use xlink:href="#g6A6B3E3381055DAC4DAE42A1F0D08F9F" x="48.276" y="0" fill="#000000" fill-rule="nonzero"/></g></g></g><g transform="translate(110.352)"><g transform="matrix(1 0 0 -1 0 10.238)"><use xlink:href="#g56988988A1B18AD1D268C4FF00F68428" x="0" y="0" fill="#000000" fill-rule="nonzero"/><use xlink:href="#g9787446D80B11CDE2529516BF2D1ACCA" x="7.106" y="0" fill="#000000" fill-rule="nonzero"/><use xlink:href="#g36F90904A4043C6A677E73471A30013F" x="12.133" y="0" fill="#000000" fill-rule="nonzero"/><use xlink:href="#g3CE57ED74C3DBA63F54F2735C0855367" x="15.037" y="0" fill="#000000" fill-rule="nonzero"/><use xlink:href="#g8FE23DF7094EE2D558758B421CB0DF33" x="19.745" y="0" fill="#000000" fill-rule="nonzero"/><use xlink:href="#g36F90904A4043C6A677E73471A30013F" x="25.586" y="0" fill="#000000" fill-rule="nonzero"/><use xlink:href="#g9787446D80B11CDE2529516BF2D1ACCA" x="28.49" y="0" fill="#000000" fill-rule="nonzero"/><use xlink:href="#gB38329E71763B8BD4CF776D24C5AFFE1" x="33.517" y="0" fill="#000000" fill-rule="nonzero"/><use xlink:href="#gBFE09989B12480F1B7796D69E0D7287C" x="36.993" y="0" fill="#000000" fill-rule="nonzero"/><use xlink:href="#gB38329E71763B8BD4CF776D24C5AFFE1" x="44.66" y="0" fill="#000000" fill-rule="nonzero"/><use xlink:href="#g525D29E90AD4E5DCC336104F62B1760B" x="48.136" y="0" fill="#000000" fill-rule="nonzero"/><use xlink:href="#gBFE09989B12480F1B7796D69E0D7287C" x="54.054" y="0" fill="#000000" fill-rule="nonzero"/><use xlink:href="#g9787446D80B11CDE2529516BF2D1ACCA" x="61.721" y="0" fill="#000000" fill-rule="nonzero"/><use xlink:href="#gD91D82170ED5F219BEA1B53E81DC19AF" x="66.748" y="0" fill="#000000" fill-rule="nonzero"/><use xlink:href="#gBFE09989B12480F1B7796D69E0D7287C" x="70.752" y="0" fill="#000000" fill-rule="nonzero"/><use xlink:href="#g9787446D80B11CDE2529516BF2D1ACCA" x="75.669" y="0" fill="#000000" fill-rule="nonzero"/><use xlink:href="#g5E76F8DBE7C3C7A9A461E8EC1D70F6FB" x="83.446" y="0" fill="#000000" fill-rule="nonzero"/><use xlink:href="#gD14A2C15FA7E7E6DA17092C3143CABC8" x="88.99" y="0" fill="#000000" fill-rule="nonzero"/><use xlink:href="#g9787446D80B11CDE2529516BF2D1ACCA" x="95.15" y="0" fill="#000000" fill-rule="nonzero"/><use xlink:href="#gD91D82170ED5F219BEA1B53E81DC19AF" x="102.927" y="0" fill="#000000" fill-rule="nonzero"/><use xlink:href="#gBFE09989B12480F1B7796D69E0D7287C" x="106.931" y="0" fill="#000000" fill-rule="nonzero"/><use xlink:href="#g3CE57ED74C3DBA63F54F2735C0855367" x="111.925" y="0" fill="#000000" fill-rule="nonzero"/><use xlink:href="#gB38329E71763B8BD4CF776D24C5AFFE1" x="116.633" y="0" fill="#000000" fill-rule="nonzero"/><use xlink:href="#g9787446D80B11CDE2529516BF2D1ACCA" x="120.109" y="0" fill="#000000" fill-rule="nonzero"/><use xlink:href="#gEB245AFE22C398BE296AC5F7AF6ADF12" x="125.136" y="0" fill="#000000" fill-rule="nonzero"/><use xlink:href="#gEEC20B8710F33D8A6862F31BD530D033" x="131.098" y="0" fill="#000000" fill-rule="nonzero"/><use xlink:href="#g36F90904A4043C6A677E73471A30013F" x="136.598" y="0" fill="#000000" fill-rule="nonzero"/><use xlink:href="#gBFE09989B12480F1B7796D69E0D7287C" x="139.502" y="0" fill="#000000" fill-rule="nonzero"/><use xlink:href="#g162FFC49A5D51E5E20A023FB65F6BB60" x="147.169" y="0" fill="#000000" fill-rule="nonzero"/><use xlink:href="#gDD50B131DFBA2C7EA73123CA4C98C33" x="155.386" y="0" fill="#000000" fill-rule="nonzero"/><use xlink:href="#gB38329E71763B8BD4CF776D24C5AFFE1" x="158.367" y="0" fill="#000000" fill-rule="nonzero"/><use xlink:href="#g525D29E90AD4E5DCC336104F62B1760B" x="161.843" y="0" fill="#000000" fill-rule="nonzero"/><use xlink:href="#g36F90904A4043C6A677E73471A30013F" x="170.511" y="0" fill="#000000" fill-rule="nonzero"/><use xlink:href="#gBFE09989B12480F1B7796D69E0D7287C" x="173.415" y="0" fill="#000000" fill-rule="nonzero"/><use xlink:href="#gEB245AFE22C398BE296AC5F7AF6ADF12" x="178.332" y="0" fill="#000000" fill-rule="nonzero"/><use xlink:href="#gEEC20B8710F33D8A6862F31BD530D033" x="184.294" y="0" fill="#000000" fill-rule="nonzero"/><use xlink:href="#gB38329E71763B8BD4CF776D24C5AFFE1" x="189.794" y="0" fill="#000000" fill-rule="nonzero"/><use xlink:href="#g525D29E90AD4E5DCC336104F62B1760B" x="193.27" y="0" fill="#000000" fill-rule="nonzero"/><use xlink:href="#g21F992EDFDCF3117BFC401CE348E97A9" x="201.938" y="0" fill="#000000" fill-rule="nonzero"/><use xlink:href="#g3CE57ED74C3DBA63F54F2735C0855367" x="209.803" y="0" fill="#000000" fill-rule="nonzero"/><use xlink:href="#gF9510C9866DCA99AFC3FC8A8DB318BDC" x="214.511" y="0" fill="#000000" fill-rule="nonzero"/></g><g transform="matrix(1 0 0 -1 0 24.626)"><use xlink:href="#g9787446D80B11CDE2529516BF2D1ACCA" x="0" y="0" fill="#000000" fill-rule="nonzero"/><use xlink:href="#gEB245AFE22C398BE296AC5F7AF6ADF12" x="5.027" y="0" fill="#000000" fill-rule="nonzero"/><use xlink:href="#g7FF42B92D9D80783DC2C1CC317042C56" x="10.989" y="0" fill="#000000" fill-rule="nonzero"/><use xlink:href="#g162FFC49A5D51E5E20A023FB65F6BB60" x="19.305" y="0" fill="#000000" fill-rule="nonzero"/><use xlink:href="#gDD50B131DFBA2C7EA73123CA4C98C33" x="27.522" y="0" fill="#000000" fill-rule="nonzero"/><use xlink:href="#g7FF42B92D9D80783DC2C1CC317042C56" x="30.503" y="0" fill="#000000" fill-rule="nonzero"/><use xlink:href="#gB38329E71763B8BD4CF776D24C5AFFE1" x="36.069" y="0" fill="#000000" fill-rule="nonzero"/><use xlink:href="#g525D29E90AD4E5DCC336104F62B1760B" x="39.545" y="0" fill="#000000" fill-rule="nonzero"/><use xlink:href="#g11CDB088C8E2186077BDC4630970361A" x="48.213" y="0" fill="#000000" fill-rule="nonzero"/><use xlink:href="#g3CE57ED74C3DBA63F54F2735C0855367" x="56.078" y="0" fill="#000000" fill-rule="nonzero"/><use xlink:href="#gF9510C9866DCA99AFC3FC8A8DB318BDC" x="60.786" y="0" fill="#000000" fill-rule="nonzero"/><use xlink:href="#g4C1ED41FE02ABB1BA3896D4213CC7460" x="69.476" y="0" fill="#000000" fill-rule="nonzero"/></g></g></g><g transform="translate(28.346456693 109.305456693)"><g transform="translate(41.908)"><g><path fill="#ffffff" fill-rule="nonzero" stroke="#000000" stroke-width="0.8" stroke-linecap="butt" stroke-linejoin="miter" stroke-miterlimit="4" d="M 0 0v 20h 62.444v -20Z "/><g transform="matrix(1 0 0 -1 4 13.87)"><use xlink:href="#g71810B677EEE634316EAB71F2F5BD9A8" x="0" y="0" fill="#000000" fill-rule="nonzero"/><use xlink:href="#g898F8D390A5BE9CA3FA6421EA60BDB40" x="7.308" y="0" fill="#000000" fill-rule="nonzero"/><use xlink:href="#gE18113BE1243CA6EC5596891CC422939" x="14.04" y="0" fill="#000000" fill-rule="nonzero"/><use xlink:href="#g56D9AC69DF1E60AEC4FA898FA388366B" x="19.908" y="0" fill="#000000" fill-rule="nonzero"/><use xlink:href="#gEF03CC905B39DF2CE13E9EED9CECE9CC" x="24.948" y="0" fill="#000000" fill-rule="nonzero"/><use xlink:href="#g1094D23D321B642DA133CC49B1BA1EB9" x="30.42" y="0" fill="#000000" fill-rule="nonzero"/><use xlink:href="#g93ED4154508DB3ADD21415419B103611" x="34.284" y="0" fill="#000000" fill-rule="nonzero"/><use xlink:href="#gE18113BE1243CA6EC5596891CC422939" x="39.408" y="0" fill="#000000" fill-rule="nonzero"/><use xlink:href="#g1C3263E1691946900500B192D1A294F" x="48.276" y="0" fill="#000000" fill-rule="nonzero"/></g></g></g><g transform="translate(110.352)"><g transform="matrix(1 0 0 -1 0 10.513)"><use xlink:href="#g3BC6300649CA32A3B6F5E66435D77781" x="0" y="0" fill="#000000" fill-rule="nonzero"/><use xlink:href="#g9787446D80B11CDE2529516BF2D1ACCA" x="5.335" y="0" fill="#000000" fill-rule="nonzero"/><use xlink:href="#g3CE57ED74C3DBA63F54F2735C0855367" x="10.362" y="0" fill="#000000" fill-rule="nonzero"/><use xlink:href="#gB38329E71763B8BD4CF776D24C5AFFE1" x="15.07" y="0" fill="#000000" fill-rule="nonzero"/><use xlink:href="#g5E76F8DBE7C3C7A9A461E8EC1D70F6FB" x="18.546" y="0" fill="#000000" fill-rule="nonzero"/><use xlink:href="#gD91D82170ED5F219BEA1B53E81DC19AF" x="24.09" y="0" fill="#000000" fill-rule="nonzero"/><use xlink:href="#gB38329E71763B8BD4CF776D24C5AFFE1" x="30.932" y="0" fill="#000000" fill-rule="nonzero"/><use xlink:href="#g525D29E90AD4E5DCC336104F62B1760B" x="34.408" y="0" fill="#000000" fill-rule="nonzero"/><use xlink:href="#gBFE09989B12480F1B7796D69E0D7287C" x="40.326" y="0" fill="#000000" fill-rule="nonzero"/><use xlink:href="#gBFE09989B12480F1B7796D69E0D7287C" x="47.993" y="0" fill="#000000" fill-rule="nonzero"/><use xlink:href="#g4FC526A993AC97C2A7055B69F4E908C9" x="52.833" y="0" fill="#000000" fill-rule="nonzero"/><use xlink:href="#gF9560AC257AD9BBCF737B0F29E336B2F" x="58.223" y="0" fill="#000000" fill-rule="nonzero"/><use xlink:href="#gD91D82170ED5F219BEA1B53E81DC19AF" x="63.932" y="0" fill="#000000" fill-rule="nonzero"/><use xlink:href="#gBFE09989B12480F1B7796D69E0D7287C" x="67.936" y="0" fill="#000000" fill-rule="nonzero"/><use xlink:href="#g4E5D026409004C23B788CF76C0C2AF69" x="72.853" y="0" fill="#000000" fill-rule="nonzero"/><use xlink:href="#g4E5D026409004C23B788CF76C0C2AF69" x="77.143" y="0" fill="#000000" fill-rule="nonzero"/><use xlink:href="#gDD50B131DFBA2C7EA73123CA4C98C33" x="81.433" y="0" fill="#000000" fill-rule="nonzero"/><use xlink:href="#g5E76F8DBE7C3C7A9A461E8EC1D70F6FB" x="84.414" y="0" fill="#000000" fill-rule="nonzero"/><use xlink:href="#gEB245AFE22C398BE296AC5F7AF6ADF12" x="89.958" y="0" fill="#000000" fill-rule="nonzero"/></g><g transform="matrix(1 0 0 -1 98.67 10.513)"><use xlink:href="#g7FDD4349A49914F62F30F23AE9794251" x="0" y="0" fill="#000000" fill-rule="nonzero"/></g><g transform="matrix(1 0 0 -1 104.962 6.52)"><use xlink:href="#g25B224D96CA3F5CCC7E774117FEA026D" x="0" y="0" fill="#000000" fill-rule="nonzero"/></g><g transform="matrix(1 0 0 -1 112.403744444 10.513)"><use xlink:href="#g6CA3708905D5D56BD06755CEABD69DE1" x="0" y="0" fill="#000000" fill-rule="nonzero"/></g><g transform="matrix(1 0 0 -1 123.406188889 10.513)"><use xlink:href="#g38D01286548D526A8BD5E8724FB2369F" x="0" y="0" fill="#000000" fill-rule="nonzero"/></g><g transform="matrix(1 0 0 -1 128.906188889 10.513)"><use xlink:href="#g4C1ED41FE02ABB1BA3896D4213CC7460" x="0" y="0" fill="#000000" fill-rule="nonzero"/></g></g></g><defs><symbol id="g7DEFC93E29F07BFBFDBC7F15AAA2BBEC" overflow="visible"><path d="M 0 0m 2.6642 9.933c -0.616 0 -2.3716 0.0308 -2.3716 0.0308c -0.154 -0.0924 -0.154 -0.4312 0 -0.5236c 0.847 -0.0462 1.2782 -0.1078 1.2782 -1.386v -6.1754c 0 -1.2782 -0.4312 -1.3398 -1.2782 -1.386c -0.154 -0.0924 -0.154 -0.4312 0 -0.5236c 0 0 1.7556 0.0308 2.3716 0.0308c 0.616 0 1.6016 -0.0308 2.5256 -0.0308c 3.157 0 4.1734 1.3244 4.1734 2.8952c 0 1.3552 -0.6776 2.233 -2.31 2.6642v 0.0308c 0.8316 0.3696 1.4784 1.2166 1.4784 2.002c 0 1.0626 -0.5698 2.4024 -3.6806 2.4024c -0.77 0 -1.694 -0.0308 -2.1868 -0.0308Z m 1.0626 -4.7894h 1.0934c 1.5862 0 2.2792 -0.9394 2.2792 -2.2638c 0 -0.924 -0.3234 -2.2638 -2.3562 -2.2638c -0.924 0 -1.0164 0.231 -1.0164 0.6776Z m 0 3.5112c 0 0.4466 0.077 0.6622 1.078 0.6622c 0.7084 0 1.5708 -0.2772 1.5708 -1.7864c 0 -1.232 -0.693 -1.7402 -1.7864 -1.7402h -0.8624Z "/></symbol><symbol id="g6476F0F7E4418F1157BCC40DDC3BB78C" overflow="visible"><path d="M 0 0m 4.543 0.7546c 0.1078 -0.6314 0.5236 -0.9086 1.2012 -0.9086c 0.847 0 1.4476 0.3234 2.0174 0.8624c -0.0308 0.1848 -0.0924 0.308 -0.2772 0.4312c -0.2002 -0.154 -0.3542 -0.2156 -0.6468 -0.2156c -0.3388 0 -0.4312 0.2772 -0.4312 1.0318l 0.0308 2.2176c 0 2.2176 -1.3706 2.6642 -2.6334 2.6642c -1.1242 0 -2.849 -0.6468 -2.849 -1.6632c 0 -0.4312 0.1848 -0.77 0.7854 -0.77c 0.5544 0 0.9548 0.3388 0.9548 0.7084c 0 0.077 -0.0154 0.1694 -0.0308 0.2618c -0.0308 0.154 -0.0616 0.308 -0.0308 0.462c 0.0154 0.1694 0.1386 0.3542 0.6468 0.3542c 0.6468 0 1.1858 -0.2772 1.1858 -2.233l -1.0318 -0.3234c -1.617 -0.5082 -2.7566 -0.9548 -2.7566 -2.1714c 0 -1.0626 0.5852 -1.617 1.925 -1.617c 0.4466 0 1.3398 0.4928 1.848 0.8932Z m -0.077 2.6026v -2.0328c -0.385 -0.308 -0.77 -0.5544 -1.0472 -0.5544c -0.6622 0 -0.8932 0.4466 -0.8932 0.924c 0 0.5698 0.0462 1.0472 1.1396 1.4014Z "/></symbol><symbol id="g476124418761C934B95A35B0D3C20E07" overflow="visible"><path d="M 0 0m 0.7392 2.2484c 0.0616 -0.7546 0.1386 -1.4784 0.2618 -2.0636c 0.2926 -0.0924 1.2782 -0.3388 2.1406 -0.3388c 1.1858 0 2.6642 0.6468 2.6642 1.9866c 0 0.5236 -0.1232 0.9394 -0.4774 1.3244c -0.4312 0.4928 -1.078 0.8778 -1.7864 1.1858c -0.616 0.2618 -0.8316 0.7546 -0.8316 1.2012c 0 0.3542 0.2926 0.6468 0.7392 0.6468c 0.539 0 1.0626 -0.4928 1.4476 -1.4322c 0.2772 -0.0462 0.4466 -0.0308 0.6006 0.077c 0 0.5544 -0.0616 1.1396 -0.2002 1.6324c -0.4928 0.2156 -0.8778 0.3696 -1.7248 0.3696c -0.8162 0 -1.5862 -0.308 -2.079 -0.8008c -0.3542 -0.3542 -0.5236 -0.7854 -0.5236 -1.2012c 0 -0.462 0.1848 -0.8316 0.4774 -1.155c 0.4774 -0.5236 1.3244 -1.0626 1.7864 -1.2782c 0.616 -0.2772 0.7854 -0.8316 0.7854 -1.2012c 0 -0.4928 -0.4928 -0.7546 -0.9086 -0.7546c -0.693 0 -1.4322 0.7084 -1.7556 1.8326c -0.2464 0.0462 -0.3696 0.0308 -0.616 -0.0308Z "/></symbol><symbol id="g637506313BAA6F72BE9B7E1619C4BE2A" overflow="visible"><path d="M 0 0m 3.5728 1.8788v 3.0646c 0 0.77 0.0616 1.6324 0.0616 1.6324c 0 0.1694 -0.1386 0.2618 -0.3542 0.2618c -0.4312 -0.1694 -1.6786 -0.2926 -2.7412 -0.4312c -0.0308 -0.0924 0 -0.4004 0.0308 -0.4928c 0.847 -0.077 1.001 -0.2002 1.001 -1.078v -2.9568c 0 -1.2782 -0.1694 -1.309 -1.1088 -1.386c -0.0924 -0.0924 -0.0924 -0.4312 0 -0.5236c 0.6468 0.0154 1.2936 0.0308 2.1098 0.0308c 0.8162 0 1.4476 -0.0154 2.1098 -0.0308c 0.0924 0.0924 0.0924 0.4312 0 0.5236c -0.9394 0.0616 -1.1088 0.1078 -1.1088 1.386Z m -2.079 7.2996c 0 -0.5082 0.3696 -1.0164 0.9856 -1.0164c 0.693 0 1.0934 0.5544 1.0934 0.9548c 0 0.462 -0.3542 1.0164 -1.001 1.0164c -0.7238 0 -1.078 -0.4928 -1.078 -0.9548Z "/></symbol><symbol id="g2234B4E8F53D34CD82162BC6EB922EF6" overflow="visible"><path d="M 0 0m 6.4988 1.3398c 0 0.1848 -0.0308 0.4774 -0.2002 0.4774c -0.616 -0.5698 -1.1396 -0.8624 -1.5862 -0.8624c -1.155 0 -2.0636 0.8316 -2.0636 2.6796c 0 1.7094 0.385 2.5564 1.2012 2.5564c 0.5698 0 0.8008 -0.6006 0.847 -1.0934c 0.0462 -0.4158 0.462 -0.7238 0.9548 -0.7238c 0.4928 0 0.847 0.385 0.847 0.8624c 0 0.693 -0.8316 1.6016 -2.5102 1.6016c -1.8172 0 -3.4188 -1.463 -3.4188 -3.7422c 0 -1.001 0.3542 -1.8788 0.9548 -2.4486c 0.6006 -0.5698 1.309 -0.8008 2.4024 -0.8008c 0.924 0 1.9866 0.6468 2.5718 1.4938Z "/></symbol><symbol id="g9F849EDE5F192DD0842AC0C8F7F32A85" overflow="visible"><path d="M 0 0m 4.9742 5.621h -1.2474v 2.9106c 0 0.3696 0.2618 0.7546 0.6314 0.7546h 1.309c 1.155 0 1.4784 -0.5852 1.8172 -1.6478c 0.1848 -0.0308 0.5082 0 0.6622 0.077c -0.077 0.6314 -0.154 2.1098 -0.1848 2.233c 0 0.0308 -0.0154 0.0462 -0.0616 0.0462c -0.2618 -0.0462 -0.385 -0.0616 -0.7546 -0.0616h -4.543c 0 0 -1.6016 0.0154 -2.3716 0.0308c -0.0924 -0.0924 -0.0924 -0.4312 0 -0.5236c 1.078 -0.0462 1.3398 -0.1232 1.3398 -1.4014v -6.16c 0 -1.2782 -0.2618 -1.3398 -1.3398 -1.386c -0.0924 -0.0924 -0.0924 -0.4312 0 -0.5236c 0.7546 0.0154 2.387 0.0308 2.387 0.0308h 3.619c 0.7392 0 2.1252 -0.0308 2.1252 -0.0308c 0.2156 0.77 0.2926 1.7864 0.4158 2.5718c -0.154 0.0924 -0.4928 0.1232 -0.693 0.077c -0.308 -1.1088 -1.001 -1.9712 -2.1714 -1.9712h -1.5554c -0.3388 0 -0.6314 0.3234 -0.6314 0.7392v 3.5266h 1.2474c 1.0626 0 1.3552 -0.2926 1.4014 -0.9856c 0.0924 -0.0924 0.5698 -0.0924 0.6622 0c -0.0154 0.539 -0.0308 0.8316 -0.0308 1.3552c 0 0.5236 0.0154 0.8624 0.0308 1.3244c -0.0924 0.0924 -0.5698 0.0924 -0.6622 0c -0.0462 -0.847 -0.3696 -0.9856 -1.4014 -0.9856Z "/></symbol><symbol id="g1797D2DF762B4BD2905A65B3C966A3EF" overflow="visible"><path d="M 0 0m 2.8182 1.1242l 0.9548 1.3398c 0.0616 0.077 0.1078 0.1232 0.154 0.0462l 0.7392 -1.4014c 0.2618 -0.4928 0.1078 -0.539 -0.4312 -0.616c -0.0924 -0.0924 -0.0924 -0.4312 0 -0.5236c 0.308 0.0154 1.2782 0.0308 2.0944 0.0308c 0.8008 0 1.7556 -0.0154 2.0636 -0.0308c 0.0924 0.0924 0.0924 0.4312 0 0.5236c -0.5698 0.0924 -1.0934 0.2926 -1.5862 1.0318l -1.3552 2.0174c -0.077 0.1232 -0.077 0.1694 -0.0308 0.231l 1.3706 1.6632c 0.4312 0.5236 0.9856 0.7084 1.463 0.7546c 0.0924 0.0924 0.0924 0.4312 0 0.5236c -0.308 -0.0154 -0.7854 -0.0308 -1.2936 -0.0308c -0.6006 0 -1.232 0.0154 -1.54 0.0308c -0.0924 -0.0924 -0.0924 -0.4312 0 -0.5236c 0.5544 -0.0462 0.6776 -0.2156 0.3696 -0.6622l -0.8316 -1.1858c -0.0462 -0.077 -0.1232 -0.077 -0.1848 0.0308l -0.693 1.1704c -0.3234 0.5544 -0.1232 0.5852 0.462 0.6468c 0.0924 0.0924 0.0924 0.4312 0 0.5236c -0.308 -0.0154 -1.309 -0.0308 -2.156 -0.0308c -0.7546 0 -1.6324 0.0154 -1.9404 0.0308c -0.0924 -0.0924 -0.0924 -0.4312 0 -0.5236c 0.693 0 1.001 -0.4158 1.4322 -1.0318l 1.3706 -1.9558c 0.0462 -0.0616 0.0462 -0.1232 -0.0462 -0.231l -1.4168 -1.7556c -0.385 -0.4928 -1.0626 -0.6622 -1.5246 -0.7238c -0.0924 -0.0924 -0.0924 -0.4312 0 -0.5236c 0.308 0.0154 0.7854 0.0308 1.2782 0.0308c 0.6622 0 1.386 -0.0154 1.694 -0.0308c 0.0924 0.0924 0.0924 0.4312 0 0.5236c -0.2772 0.0616 -0.7546 0.154 -0.4158 0.6314Z "/></symbol><symbol id="g8D87BB1E6931CE5DBAF4138A3DE9A54D" overflow="visible"><path d="M 0 0m 6.6374 1.9866c -0.6314 -0.6468 -1.463 -0.8162 -2.0482 -0.8162c -1.2012 0 -1.9404 0.693 -1.9404 2.2022c 0 0.1078 0.0154 0.1694 0.0154 0.2464h 3.696c 0.3696 0 0.4466 0.2618 0.4466 0.4774c 0 1.309 -0.5082 2.7412 -2.772 2.7412c -1.617 0 -3.465 -1.4322 -3.465 -3.7884c 0 -0.8932 0.3234 -1.8326 0.9856 -2.4332c 0.5852 -0.5236 1.3398 -0.77 2.4332 -0.77c 1.0626 0 2.1098 0.539 2.8798 1.6632c 0 0.2002 -0.077 0.4774 -0.231 0.4774Z m -3.9116 2.2484c 0.0154 0.539 0.0924 1.1242 0.308 1.4322c 0.2464 0.3696 0.6622 0.5236 0.8316 0.5236c 0.4158 0 0.9856 -0.4004 0.9856 -1.6324c 0 -0.0924 0 -0.2926 -0.0308 -0.3234Z "/></symbol><symbol id="gC0EBBBD6F3DBCA85D31CDC275B71A469" overflow="visible"><path d="M 0 0m 3.5112 4.1272c 0 0.5544 0.1694 0.7854 0.3696 1.0164c 0.1232 0.154 0.2618 0.2618 0.4928 0.2618c 0.1386 0 0.308 -0.1386 0.4312 -0.2926c 0.1078 -0.1232 0.3696 -0.2464 0.7238 -0.2464c 0.4466 0 0.8778 0.462 0.8778 1.1088c 0 0.4004 -0.462 0.8624 -1.0164 0.8624c -0.539 0 -1.1242 -0.462 -1.8326 -1.4784h -0.0616c -0.0308 0.462 -0.1078 1.2166 -0.1078 1.2166c -0.0154 0.1386 -0.1386 0.2618 -0.3542 0.2618c -0.7238 -0.1848 -1.54 -0.4004 -2.5564 -0.5082c -0.0308 -0.0924 0 -0.385 0.0308 -0.4774c 0.847 -0.077 1.001 -0.2156 1.001 -1.0934v -2.8798c 0 -1.2782 -0.1694 -1.309 -1.1088 -1.386c -0.0924 -0.0924 -0.0924 -0.4312 0 -0.5236c 0.6468 0.0154 1.2936 0.0308 2.1098 0.0308c 0.8162 0 1.4476 -0.0154 2.1098 -0.0308c 0.0924 0.0924 0.0924 0.4312 0 0.5236c -0.9394 0.0616 -1.1088 0.1078 -1.1088 1.386Z "/></symbol><symbol id="g71810B677EEE634316EAB71F2F5BD9A8" overflow="visible"><path d="M 0 0m 3.876 4.38h -0.972v 2.268c 0 0.288 0.204 0.588 0.492 0.588h 1.02c 0.9 0 1.152 -0.456 1.416 -1.284c 0.144 -0.024 0.396 0 0.516 0.06c -0.06 0.492 -0.12 1.644 -0.144 1.74c 0 0.024 -0.012 0.036 -0.048 0.036c -0.204 -0.036 -0.3 -0.048 -0.588 -0.048h -3.54c 0 0 -1.248 0.012 -1.848 0.024c -0.072 -0.072 -0.072 -0.336 0 -0.408c 0.84 -0.036 1.044 -0.096 1.044 -1.092v -4.8c 0 -0.996 -0.204 -1.044 -1.044 -1.08c -0.072 -0.072 -0.072 -0.336 0 -0.408c 0.588 0.012 1.86 0.024 1.86 0.024h 2.82c 0.576 0 1.656 -0.024 1.656 -0.024c 0.168 0.6 0.228 1.392 0.324 2.004c -0.12 0.072 -0.384 0.096 -0.54 0.06c -0.24 -0.864 -0.78 -1.536 -1.692 -1.536h -1.212c -0.264 0 -0.492 0.252 -0.492 0.576v 2.748h 0.972c 0.828 0 1.056 -0.228 1.092 -0.768c 0.072 -0.072 0.444 -0.072 0.516 0c -0.012 0.42 -0.024 0.648 -0.024 1.056c 0 0.408 0.012 0.672 0.024 1.032c -0.072 0.072 -0.444 0.072 -0.516 0c -0.036 -0.66 -0.288 -0.768 -1.092 -0.768Z "/></symbol><symbol id="g898F8D390A5BE9CA3FA6421EA60BDB40" overflow="visible"><path d="M 0 0m 2.196 0.876l 0.744 1.044c 0.048 0.06 0.084 0.096 0.12 0.036l 0.576 -1.092c 0.204 -0.384 0.084 -0.42 -0.336 -0.48c -0.072 -0.072 -0.072 -0.336 0 -0.408c 0.24 0.012 0.996 0.024 1.632 0.024c 0.624 0 1.368 -0.012 1.608 -0.024c 0.072 0.072 0.072 0.336 0 0.408c -0.444 0.072 -0.852 0.228 -1.236 0.804l -1.056 1.572c -0.06 0.096 -0.06 0.132 -0.024 0.18l 1.068 1.296c 0.336 0.408 0.768 0.552 1.14 0.588c 0.072 0.072 0.072 0.336 0 0.408c -0.24 -0.012 -0.612 -0.024 -1.008 -0.024c -0.468 0 -0.96 0.012 -1.2 0.024c -0.072 -0.072 -0.072 -0.336 0 -0.408c 0.432 -0.036 0.528 -0.168 0.288 -0.516l -0.648 -0.924c -0.036 -0.06 -0.096 -0.06 -0.144 0.024l -0.54 0.912c -0.252 0.432 -0.096 0.456 0.36 0.504c 0.072 0.072 0.072 0.336 0 0.408c -0.24 -0.012 -1.02 -0.024 -1.68 -0.024c -0.588 0 -1.272 0.012 -1.512 0.024c -0.072 -0.072 -0.072 -0.336 0 -0.408c 0.54 0 0.78 -0.324 1.116 -0.804l 1.068 -1.524c 0.036 -0.048 0.036 -0.096 -0.036 -0.18l -1.104 -1.368c -0.3 -0.384 -0.828 -0.516 -1.188 -0.564c -0.072 -0.072 -0.072 -0.336 0 -0.408c 0.24 0.012 0.612 0.024 0.996 0.024c 0.516 0 1.08 -0.012 1.32 -0.024c 0.072 0.072 0.072 0.336 0 0.408c -0.216 0.048 -0.588 0.12 -0.324 0.492Z "/></symbol><symbol id="gE18113BE1243CA6EC5596891CC422939" overflow="visible"><path d="M 0 0m 5.172 1.548c -0.492 -0.504 -1.14 -0.636 -1.596 -0.636c -0.936 0 -1.512 0.54 -1.512 1.716c 0 0.084 0.012 0.132 0.012 0.192h 2.88c 0.288 0 0.348 0.204 0.348 0.372c 0 1.02 -0.396 2.136 -2.16 2.136c -1.26 0 -2.7 -1.116 -2.7 -2.952c 0 -0.696 0.252 -1.428 0.768 -1.896c 0.456 -0.408 1.044 -0.6 1.896 -0.6c 0.828 0 1.644 0.42 2.244 1.296c 0 0.156 -0.06 0.372 -0.18 0.372Z m -3.048 1.752c 0.012 0.42 0.072 0.876 0.24 1.116c 0.192 0.288 0.516 0.408 0.648 0.408c 0.324 0 0.768 -0.312 0.768 -1.272c 0 -0.072 0 -0.228 -0.024 -0.252Z "/></symbol><symbol id="g56D9AC69DF1E60AEC4FA898FA388366B" overflow="visible"><path d="M 0 0m 2.736 3.216c 0 0.432 0.132 0.612 0.288 0.792c 0.096 0.12 0.204 0.204 0.384 0.204c 0.108 0 0.24 -0.108 0.336 -0.228c 0.084 -0.096 0.288 -0.192 0.564 -0.192c 0.348 0 0.684 0.36 0.684 0.864c 0 0.312 -0.36 0.672 -0.792 0.672c -0.42 0 -0.876 -0.36 -1.428 -1.152h -0.048c -0.024 0.36 -0.084 0.948 -0.084 0.948c -0.012 0.108 -0.108 0.204 -0.276 0.204c -0.564 -0.144 -1.2 -0.312 -1.992 -0.396c -0.024 -0.072 0 -0.3 0.024 -0.372c 0.66 -0.06 0.78 -0.168 0.78 -0.852v -2.244c 0 -0.996 -0.132 -1.02 -0.864 -1.08c -0.072 -0.072 -0.072 -0.336 0 -0.408c 0.504 0.012 1.008 0.024 1.644 0.024c 0.636 0 1.128 -0.012 1.644 -0.024c 0.072 0.072 0.072 0.336 0 0.408c -0.732 0.048 -0.864 0.084 -0.864 1.08Z "/></symbol><symbol id="gEF03CC905B39DF2CE13E9EED9CECE9CC" overflow="visible"><path d="M 0 0m 5.064 1.044c 0 0.144 -0.024 0.372 -0.156 0.372c -0.48 -0.444 -0.888 -0.672 -1.236 -0.672c -0.9 0 -1.608 0.648 -1.608 2.088c 0 1.332 0.3 1.992 0.936 1.992c 0.444 0 0.624 -0.468 0.66 -0.852c 0.036 -0.324 0.36 -0.564 0.744 -0.564c 0.384 0 0.66 0.3 0.66 0.672c 0 0.54 -0.648 1.248 -1.956 1.248c -1.416 0 -2.664 -1.14 -2.664 -2.916c 0 -0.78 0.276 -1.464 0.744 -1.908c 0.468 -0.444 1.02 -0.624 1.872 -0.624c 0.72 0 1.548 0.504 2.004 1.164Z "/></symbol><symbol id="g1094D23D321B642DA133CC49B1BA1EB9" overflow="visible"><path d="M 0 0m 2.784 1.464v 2.388c 0 0.6 0.048 1.272 0.048 1.272c 0 0.132 -0.108 0.204 -0.276 0.204c -0.336 -0.132 -1.308 -0.228 -2.136 -0.336c -0.024 -0.072 0 -0.312 0.024 -0.384c 0.66 -0.06 0.78 -0.156 0.78 -0.84v -2.304c 0 -0.996 -0.132 -1.02 -0.864 -1.08c -0.072 -0.072 -0.072 -0.336 0 -0.408c 0.504 0.012 1.008 0.024 1.644 0.024c 0.636 0 1.128 -0.012 1.644 -0.024c 0.072 0.072 0.072 0.336 0 0.408c -0.732 0.048 -0.864 0.084 -0.864 1.08Z m -1.62 5.688c 0 -0.396 0.288 -0.792 0.768 -0.792c 0.54 0 0.852 0.432 0.852 0.744c 0 0.36 -0.276 0.792 -0.78 0.792c -0.564 0 -0.84 -0.384 -0.84 -0.744Z "/></symbol><symbol id="g93ED4154508DB3ADD21415419B103611" overflow="visible"><path d="M 0 0m 0.576 1.752c 0.048 -0.588 0.108 -1.152 0.204 -1.608c 0.228 -0.072 0.996 -0.264 1.668 -0.264c 0.924 0 2.076 0.504 2.076 1.548c 0 0.408 -0.096 0.732 -0.372 1.032c -0.336 0.384 -0.84 0.684 -1.392 0.924c -0.48 0.204 -0.648 0.588 -0.648 0.936c 0 0.276 0.228 0.504 0.576 0.504c 0.42 0 0.828 -0.384 1.128 -1.116c 0.216 -0.036 0.348 -0.024 0.468 0.06c 0 0.432 -0.048 0.888 -0.156 1.272c -0.384 0.168 -0.684 0.288 -1.344 0.288c -0.636 0 -1.236 -0.24 -1.62 -0.624c -0.276 -0.276 -0.408 -0.612 -0.408 -0.936c 0 -0.36 0.144 -0.648 0.372 -0.9c 0.372 -0.408 1.032 -0.828 1.392 -0.996c 0.48 -0.216 0.612 -0.648 0.612 -0.936c 0 -0.384 -0.384 -0.588 -0.708 -0.588c -0.54 0 -1.116 0.552 -1.368 1.428c -0.192 0.036 -0.288 0.024 -0.48 -0.024Z "/></symbol><symbol id="gFCFAD84E8A4521C99D93A9F0049D8745" overflow="visible"><path d="M 0 0m 4.404 1.464v 4.332c 0 0.636 0.096 1.32 0.096 1.32c 0 0.156 -0.096 0.204 -0.204 0.204c -0.12 0 -0.324 -0.048 -0.6 -0.18c -0.732 -0.336 -1.548 -0.624 -2.592 -1.056c 0.012 -0.204 0.096 -0.396 0.264 -0.516c 0.648 0.276 1.08 0.3 1.248 0.3c 0.156 0 0.228 -0.048 0.228 -0.648v -3.756c 0 -0.996 -0.576 -1.044 -1.236 -1.08c -0.12 -0.072 -0.12 -0.336 0 -0.408c 0.984 0.012 1.548 0.024 2.028 0.024c 0.48 0 1.02 -0.012 2.004 -0.024c 0.12 0.072 0.12 0.336 0 0.408c -0.66 0.036 -1.236 0.084 -1.236 1.08Z "/></symbol><symbol id="gD355BF4F81D64465081A1B40E1986DB4" overflow="visible"><path d="M 0 0m 4.345 6.941c -0.638 0.088 -0.616 0.297 -1.694 0.297c -1.111 0 -2.09 -0.737 -2.09 -1.903c 0 -1.155 0.957 -1.683 1.925 -2.057c 0.66 -0.253 1.474 -0.561 1.474 -1.639c 0 -0.891 -0.495 -1.353 -1.375 -1.353c -1.023 0 -1.683 0.473 -1.925 1.562c -0.143 0.044 -0.253 0.022 -0.363 -0.033c 0.044 -0.847 0.088 -1.133 0.22 -1.672c 0.693 0 1.001 -0.253 1.98 -0.253c 0.495 0 0.968 0.121 1.353 0.363c 0.638 0.396 1.034 1.067 1.034 1.771c 0 1.166 -0.88 1.683 -1.782 2.024c -0.66 0.242 -1.76 0.66 -1.76 1.584c 0 0.616 0.561 1.232 1.21 1.232c 1.067 0 1.408 -0.682 1.628 -1.408c 0.121 -0.022 0.264 -0.011 0.363 0.066c -0.044 0.528 -0.088 0.836 -0.198 1.419Z "/></symbol><symbol id="g5E76F8DBE7C3C7A9A461E8EC1D70F6FB" overflow="visible"><path d="M 0 0m 0.451 2.255c 0 -1.122 0.748 -2.365 2.31 -2.365c 0.704 0 1.243 0.253 1.617 0.616c 0.495 0.484 0.715 1.177 0.715 1.848c 0 1.144 -0.627 2.475 -2.31 2.475c -0.726 0 -1.32 -0.297 -1.727 -0.77c -0.396 -0.473 -0.605 -1.111 -0.605 -1.804Z m 2.167 2.189c 0.946 0 1.529 -0.858 1.529 -2.442c 0 -1.386 -0.715 -1.727 -1.232 -1.727c -1.144 0 -1.518 1.386 -1.518 2.233c 0 0.957 0.231 1.936 1.221 1.936Z "/></symbol><symbol id="g36F90904A4043C6A677E73471A30013F" overflow="visible"><path d="M 0 0m 1.045 1.342c 0 -0.913 -0.121 -0.968 -0.792 -1.001c -0.066 -0.066 -0.066 -0.297 0 -0.363c 0.385 0.011 0.792 0.022 1.232 0.022c 0.44 0 0.858 -0.011 1.221 -0.022c 0.066 0.066 0.066 0.297 0 0.363c -0.671 0.033 -0.792 0.088 -0.792 1.001v 5.071c 0 0.715 0.044 1.155 0.044 1.155c 0 0.077 -0.044 0.11 -0.143 0.11c -0.275 -0.11 -1.1 -0.264 -1.54 -0.297c -0.022 -0.088 0 -0.264 0.066 -0.33c 0.638 -0.044 0.704 -0.077 0.704 -0.902Z "/></symbol><symbol id="g1E471D2E98C4E85A3CE47F56E86025C4" overflow="visible"><path d="M 0 0m 3.575 4.378c 0.594 -0.044 0.66 -0.176 0.429 -0.737l -0.891 -2.156c -0.176 -0.429 -0.231 -0.429 -0.407 0.033l -0.792 2.123c -0.198 0.528 -0.242 0.66 0.341 0.737c 0.066 0.066 0.066 0.297 0 0.363c -0.363 -0.011 -0.748 -0.022 -1.111 -0.022c -0.363 0 -0.693 0.011 -1.023 0.022c -0.066 -0.066 -0.066 -0.297 0 -0.363c 0.583 -0.066 0.66 -0.242 0.88 -0.803l 1.408 -3.476c 0.066 -0.165 0.132 -0.231 0.275 -0.231c 0.11 0 0.187 0.066 0.264 0.253l 1.463 3.443c 0.209 0.484 0.33 0.759 0.946 0.814c 0.066 0.066 0.066 0.297 0 0.363c -0.22 -0.011 -0.484 -0.022 -0.77 -0.022c -0.363 0 -0.737 0.011 -1.012 0.022c -0.066 -0.066 -0.066 -0.297 0 -0.363Z "/></symbol><symbol id="gBFE09989B12480F1B7796D69E0D7287C" overflow="visible"><path d="M 0 0m 4.246 1.023c -0.407 -0.418 -0.726 -0.594 -1.364 -0.594c -0.396 0 -0.858 0.231 -1.199 0.792c -0.22 0.363 -0.352 0.869 -0.352 1.507l 2.926 -0.022c 0.132 0 0.209 0.066 0.209 0.187c 0 0.924 -0.33 1.914 -1.859 1.914c -0.957 0 -2.2 -0.913 -2.2 -2.585c 0 -0.616 0.154 -1.21 0.517 -1.628c 0.374 -0.44 0.891 -0.704 1.683 -0.704c 0.836 0 1.43 0.385 1.87 0.957c -0.033 0.11 -0.099 0.165 -0.231 0.176Z m -2.882 2.079c 0.209 1.243 0.979 1.342 1.243 1.342c 0.418 0 0.913 -0.231 0.913 -1.155c 0 -0.099 -0.044 -0.154 -0.165 -0.154Z "/></symbol><symbol id="gB38329E71763B8BD4CF776D24C5AFFE1" overflow="visible"><path d="M 0 0m 0.473 4.719c -0.154 0 -0.198 -0.132 -0.198 -0.22v -0.143c 0 -0.055 0.011 -0.066 0.055 -0.066h 0.649v -3.311c 0 -0.781 0.341 -1.089 0.847 -1.089c 0.506 0 1.056 0.242 1.485 0.726c -0.022 0.11 -0.088 0.176 -0.198 0.187c -0.286 -0.22 -0.616 -0.308 -0.902 -0.308c -0.297 0 -0.363 0.33 -0.363 1.012v 2.783h 1.144c 0.11 0 0.264 0.044 0.264 0.143v 0.22c 0 0.044 -0.033 0.066 -0.088 0.066h -1.32v 0.429c 0 0.715 0.044 1.155 0.044 1.155c 0 0.066 -0.033 0.099 -0.088 0.099c -0.044 0 -0.143 -0.044 -0.242 -0.099c -0.121 -0.066 -0.231 -0.121 -0.374 -0.154c -0.132 -0.044 -0.242 -0.077 -0.242 -0.154c 0 -0.132 0.033 -0.055 0.033 -1.276Z "/></symbol><symbol id="g525D29E90AD4E5DCC336104F62B1760B" overflow="visible"><path d="M 0 0m 1.837 3.146c 0 0.231 0.099 0.363 0.187 0.462c 0.418 0.407 0.979 0.649 1.408 0.649c 0.22 0 0.451 -0.143 0.583 -0.396c 0.11 -0.22 0.132 -0.517 0.132 -0.847v -1.672c 0 -0.902 -0.11 -0.946 -0.682 -1.001c -0.055 -0.066 -0.055 -0.297 0 -0.363c 0.308 0.011 0.682 0.022 1.122 0.022c 0.44 0 0.803 -0.011 1.166 -0.022c 0.055 0.066 0.055 0.297 0 0.363c -0.616 0.055 -0.737 0.099 -0.737 1.001v 1.639c 0 0.605 -0.044 1.144 -0.297 1.474c -0.187 0.242 -0.528 0.374 -0.913 0.374c -0.539 0 -1.199 -0.143 -1.87 -0.891c 0 -0.011 -0.011 -0.011 -0.022 -0.022c -0.033 -0.044 -0.088 -0.11 -0.088 0.022l 0.011 2.475c 0 0.715 0.044 1.155 0.044 1.155c 0 0.077 -0.044 0.11 -0.143 0.11c -0.275 -0.11 -1.1 -0.264 -1.54 -0.297c -0.022 -0.088 0 -0.264 0.066 -0.33c 0.033 0 0.066 0 0.099 0c 0.484 -0.033 0.605 -0.033 0.605 -0.902v -4.807c 0 -0.913 -0.132 -0.957 -0.77 -1.001c -0.066 -0.066 -0.066 -0.297 0 -0.363c 0.363 0.011 0.77 0.022 1.21 0.022c 0.418 0 0.781 -0.011 1.089 -0.022c 0.066 0.066 0.066 0.297 0 0.363c -0.561 0.044 -0.66 0.088 -0.66 1.001Z "/></symbol><symbol id="g36A3A8A97C98E8EDF35F9BD5FE38C076" overflow="visible"><path d="M 0 0m 3.806 -1.221c 0 -0.913 -0.121 -0.957 -0.792 -0.99c -0.066 -0.066 -0.066 -0.297 0 -0.363c 0.385 0.011 0.792 0.022 1.232 0.022c 0.44 0 0.858 -0.011 1.221 -0.022c 0.066 0.066 0.066 0.297 0 0.363c -0.671 0.033 -0.792 0.077 -0.792 0.99v 5.808c 0 0.154 -0.044 0.275 -0.165 0.275c -0.077 0 -0.143 -0.088 -0.231 -0.209c -0.143 -0.198 -0.187 -0.231 -0.319 -0.143c -0.352 0.22 -0.781 0.319 -1.243 0.319c -1.342 0 -2.332 -1.1 -2.332 -2.552c 0 -1.023 0.693 -2.387 2.277 -2.387c 0.297 0 0.66 0.066 0.847 0.176c 0.253 0.143 0.297 0.165 0.297 -0.066Z m -0.264 5.269c 0.22 -0.242 0.264 -0.407 0.264 -0.671v -2.53c 0 -0.198 -0.011 -0.253 -0.154 -0.33c -0.253 -0.132 -0.55 -0.143 -0.726 -0.143c -0.638 0 -1.595 0.462 -1.595 2.123c 0 1.144 0.462 1.958 1.342 1.958c 0.33 0 0.627 -0.132 0.869 -0.407Z "/></symbol><symbol id="g8FE23DF7094EE2D558758B421CB0DF33" overflow="visible"><path d="M 0 0m 2.387 -0.11c 0.429 0 0.946 0.22 1.485 0.66c 0.055 0.044 0.154 0.066 0.165 -0.011c 0.033 -0.275 0.121 -0.649 0.121 -0.649c 0.088 -0.033 0.143 -0.022 0.209 0c 0.242 0.198 0.627 0.363 1.298 0.44c 0.066 0.066 0.066 0.231 0 0.297c -0.704 0.055 -0.803 0.264 -0.803 0.803v 2.112c 0 0.33 0.044 1.133 0.044 1.133c 0 0.033 -0.033 0.066 -0.088 0.066c -0.055 -0.011 -0.22 -0.022 -0.385 -0.022c -0.352 0 -0.748 0.011 -1.122 0.022c -0.066 -0.066 -0.066 -0.297 0 -0.363c 0.539 -0.033 0.682 -0.165 0.682 -0.891v -2.123c 0 -0.209 -0.022 -0.297 -0.176 -0.429c -0.407 -0.352 -0.825 -0.528 -1.1 -0.528c -0.33 0 -0.88 0.154 -0.88 1.133v 2.002c 0 0.33 0.044 1.133 0.044 1.133c 0 0.033 -0.033 0.066 -0.088 0.066c -0.055 -0.011 -0.22 -0.022 -0.385 -0.022c -0.352 0 -0.748 0.011 -1.122 0.022c -0.066 -0.066 -0.066 -0.297 0 -0.363c 0.528 -0.044 0.682 -0.165 0.682 -0.88v -2.112c 0 -0.759 0.33 -1.496 1.419 -1.496Z "/></symbol><symbol id="g9787446D80B11CDE2529516BF2D1ACCA" overflow="visible"><path d="M 0 0m 3.223 0.528c 0.066 -0.341 0.187 -0.638 0.737 -0.638c 0.418 0 0.814 0.187 1.045 0.407c -0.022 0.132 -0.066 0.231 -0.187 0.297c -0.077 -0.066 -0.264 -0.176 -0.407 -0.176c -0.319 0 -0.33 0.429 -0.33 0.935v 1.617c 0 1.562 -0.858 1.859 -1.661 1.859c -0.902 0 -1.815 -0.594 -1.815 -1.221c 0 -0.264 0.132 -0.396 0.385 -0.396c 0.319 0 0.517 0.231 0.517 0.374c 0 0.077 -0.011 0.154 -0.033 0.198c -0.011 0.033 -0.022 0.099 -0.022 0.22c 0 0.341 0.462 0.462 0.88 0.462c 0.374 0 0.891 -0.187 0.891 -1.43c 0 -0.077 -0.033 -0.121 -0.066 -0.132l -0.946 -0.231c -1.056 -0.264 -1.815 -0.847 -1.815 -1.595c 0 -0.902 0.616 -1.188 1.386 -1.188c 0.385 0 0.715 0.088 1.199 0.462l 0.22 0.176Z m 0 2.035v -1.452c 0 -0.143 -0.066 -0.22 -0.154 -0.286c -0.286 -0.231 -0.66 -0.484 -0.968 -0.484c -0.55 0 -0.792 0.44 -0.792 0.781c 0 0.495 0.231 1.001 1.045 1.21Z "/></symbol><symbol id="gDD50B131DFBA2C7EA73123CA4C98C33" overflow="visible"><path d="M 0 0m 1.991 1.342v 2.189c 0 0.55 0.044 1.254 0.044 1.254c 0 0.044 -0.055 0.077 -0.143 0.077c -0.308 -0.121 -0.748 -0.22 -1.507 -0.319c -0.022 -0.066 0 -0.242 0.022 -0.308c 0.605 -0.055 0.715 -0.121 0.715 -0.748v -2.145c 0 -0.913 -0.121 -0.946 -0.792 -1.001c -0.066 -0.066 -0.066 -0.297 0 -0.363c 0.363 0.011 0.792 0.022 1.232 0.022c 0.44 0 0.858 -0.011 1.221 -0.022c 0.066 0.066 0.066 0.297 0 0.363c -0.671 0.044 -0.792 0.088 -0.792 1.001Z m -1.001 5.247c 0 -0.286 0.264 -0.572 0.528 -0.572c 0.308 0 0.572 0.297 0.572 0.528c 0 0.264 -0.231 0.572 -0.528 0.572c -0.264 0 -0.572 -0.264 -0.572 -0.528Z "/></symbol><symbol id="gEB245AFE22C398BE296AC5F7AF6ADF12" overflow="visible"><path d="M 0 0m 2.024 3.938c -0.066 -0.077 -0.132 -0.099 -0.132 0c -0.011 0.297 -0.033 0.726 -0.088 0.836c -0.022 0.055 -0.044 0.088 -0.132 0.088c -0.308 -0.121 -0.594 -0.22 -1.353 -0.319c -0.022 -0.066 0 -0.242 0.022 -0.308c 0.594 -0.055 0.715 -0.11 0.715 -0.748v -2.145c 0 -0.902 -0.11 -0.946 -0.77 -1.001c -0.066 -0.066 -0.066 -0.297 0 -0.363c 0.33 0.011 0.77 0.022 1.21 0.022c 0.44 0 0.77 -0.011 1.1 -0.022c 0.066 0.066 0.066 0.297 0 0.363c -0.561 0.055 -0.671 0.099 -0.671 1.001v 1.804c 0 0.231 0.099 0.363 0.187 0.462c 0.418 0.407 0.913 0.649 1.342 0.649c 0.22 0 0.451 -0.143 0.583 -0.396c 0.11 -0.22 0.132 -0.517 0.132 -0.847v -1.672c 0 -0.902 -0.11 -0.946 -0.682 -1.001c -0.055 -0.066 -0.055 -0.297 0 -0.363c 0.33 0.011 0.682 0.022 1.122 0.022c 0.44 0 0.836 -0.011 1.166 -0.022c 0.055 0.066 0.055 0.297 0 0.363c -0.616 0.055 -0.737 0.099 -0.737 1.001v 1.639c 0 0.605 -0.044 1.133 -0.297 1.474c -0.187 0.242 -0.528 0.374 -0.913 0.374c -0.539 0 -1.155 -0.143 -1.804 -0.891Z "/></symbol><symbol id="g847DCE2A3EE7D23E3D551BDE0EE8A683" overflow="visible"><path d="M 0 0m 2.607 7.326c -0.561 0 -1.034 -0.198 -1.441 -0.594c -0.407 -0.396 -0.616 -0.858 -0.616 -1.419c 0 -0.374 0.275 -0.649 0.616 -0.649c 0.33 0 0.605 0.286 0.605 0.616c 0 0.363 -0.264 0.616 -0.616 0.616c -0.033 0 -0.055 0 -0.077 -0.011c 0.209 0.539 0.693 1.012 1.386 1.012c 0.902 0 1.408 -0.781 1.408 -1.727c 0 -0.737 -0.374 -1.529 -1.122 -2.365l -2.068 -2.332c -0.143 -0.165 -0.132 -0.154 -0.132 -0.473h 4.081l 0.319 1.98h -0.363c -0.088 -0.561 -0.165 -0.88 -0.231 -0.979c -0.055 -0.055 -0.385 -0.077 -0.99 -0.077h -1.837l 1.067 1.045c 0.748 0.704 1.694 1.463 2.013 2.046c 0.22 0.385 0.33 0.77 0.33 1.155c 0 1.298 -1.012 2.156 -2.332 2.156Z "/></symbol><symbol id="g7FDD4349A49914F62F30F23AE9794251" overflow="visible"><path d="M 0 0m 5.797 4.103c 0 0.506 -0.495 0.759 -1.045 0.759c -0.473 0 -0.847 -0.253 -1.133 -0.759c -0.231 0.506 -0.616 0.759 -1.177 0.759c -0.539 0 -0.979 -0.253 -1.331 -0.748c -0.297 -0.429 -0.451 -0.748 -0.451 -0.957c 0 -0.099 0.055 -0.154 0.165 -0.154c 0.099 0 0.165 0.055 0.187 0.154c 0.209 0.638 0.671 1.386 1.408 1.386c 0.363 0 0.539 -0.231 0.539 -0.682c 0 -0.231 -0.198 -1.089 -0.583 -2.563c -0.187 -0.737 -0.517 -1.1 -0.99 -1.1c -0.154 0 -0.297 0.033 -0.418 0.088c 0.286 0.11 0.429 0.308 0.429 0.594c 0 0.286 -0.143 0.429 -0.44 0.429c -0.363 0 -0.638 -0.308 -0.638 -0.671c 0 -0.506 0.517 -0.759 1.056 -0.759c 0.462 0 0.836 0.253 1.133 0.759c 0.209 -0.506 0.605 -0.759 1.177 -0.759c 0.528 0 0.968 0.253 1.32 0.748c 0.297 0.429 0.451 0.748 0.451 0.957c 0 0.099 -0.055 0.154 -0.165 0.154c -0.099 0 -0.154 -0.055 -0.187 -0.154c -0.187 -0.627 -0.682 -1.386 -1.397 -1.386c -0.363 0 -0.55 0.22 -0.55 0.671c 0 0.143 0.055 0.451 0.176 0.946l 0.374 1.485c 0.209 0.825 0.55 1.243 1.034 1.243c 0.154 0 0.297 -0.033 0.418 -0.088c -0.297 -0.099 -0.44 -0.297 -0.44 -0.594c 0 -0.286 0.154 -0.429 0.451 -0.429c 0.352 0 0.627 0.319 0.627 0.671Z "/></symbol><symbol id="gDDD45F8C02017DD13480202EA2B099EF" overflow="visible"><path d="M 0 0m 7.678 3.014h -3.135v 3.135c 0 0.176 -0.088 0.264 -0.264 0.264c -0.176 0 -0.264 -0.088 -0.264 -0.264v -3.135h -3.135c -0.176 0 -0.264 -0.088 -0.264 -0.264c 0 -0.176 0.088 -0.264 0.264 -0.264h 3.135v -3.135c 0 -0.176 0.088 -0.264 0.264 -0.264c 0.176 0 0.264 0.088 0.264 0.264v 3.135h 3.135c 0.176 0 0.264 0.088 0.264 0.264c 0 0.143 -0.121 0.264 -0.264 0.264Z "/></symbol><symbol id="g8894C0A608DBD285706C131FF554A2B1" overflow="visible"><path d="M 0 0m 1.298 3.465c 0.055 0 0.121 0.044 0.176 0.121c 0.33 0.495 0.781 0.737 1.353 0.737c 0.385 0 0.682 -0.22 0.88 -0.671c 0.121 -0.297 0.187 -0.748 0.187 -1.353c 0 -0.693 -0.088 -1.177 -0.253 -1.463c -0.275 -0.451 -0.649 -0.682 -1.122 -0.682c -0.737 0 -1.32 0.528 -1.518 1.1c 0.033 -0.011 0.055 0 0.099 0c 0.33 0 0.605 0.253 0.605 0.583c 0 0.341 -0.275 0.572 -0.605 0.572c -0.385 0 -0.55 -0.209 -0.55 -0.616c 0 -1.1 0.891 -2.035 1.991 -2.035c 0.671 0 1.243 0.242 1.705 0.726c 0.462 0.484 0.693 1.067 0.693 1.738c 0 0.638 -0.187 1.188 -0.561 1.661c -0.407 0.517 -0.913 0.77 -1.529 0.77c -0.517 0 -0.968 -0.165 -1.331 -0.495v 1.958c 0.297 -0.088 0.583 -0.132 0.88 -0.132c 0.506 0 0.946 0.121 1.32 0.374c 0.341 0.209 0.572 0.418 0.704 0.616c 0.066 0.088 0.099 0.154 0.099 0.187c 0 0.11 -0.055 0.165 -0.165 0.165c -0.605 -0.231 -1.122 -0.352 -1.54 -0.352c -0.495 0 -0.968 0.099 -1.419 0.308c -0.055 0.022 -0.099 0.033 -0.143 0.033c -0.099 0 -0.154 -0.099 -0.154 -0.308v -3.212c 0 -0.231 0 -0.33 0.198 -0.33Z "/></symbol><symbol id="g2389F7618E8CE27CC7151A1D8E5DEAD4" overflow="visible"><path d="M 0 0m 7.678 4.037h -6.798c -0.176 0 -0.264 -0.088 -0.264 -0.253c 0 -0.165 0.088 -0.253 0.264 -0.253h 6.798c 0.176 0 0.264 0.088 0.264 0.253c 0 0.132 -0.121 0.253 -0.264 0.253Z m 0 -2.068h -6.798c -0.176 0 -0.264 -0.088 -0.264 -0.253c 0 -0.165 0.088 -0.253 0.264 -0.253h 6.798c 0.176 0 0.264 0.088 0.264 0.253c 0 0.143 -0.121 0.253 -0.264 0.253Z "/></symbol><symbol id="g23FF2CB0A5B3999574DE734D483151BD" overflow="visible"><path d="M 0 0m 2.959 7.326c -0.451 -0.462 -1.111 -0.693 -1.98 -0.693v -0.429c 0.572 0 1.045 0.088 1.408 0.264v -5.566c 0 -0.198 -0.044 -0.33 -0.143 -0.385c -0.099 -0.055 -0.374 -0.088 -0.814 -0.088h -0.385v -0.429c 0.275 0.022 0.869 0.033 1.782 0.033c 0.913 0 1.507 -0.011 1.782 -0.033v 0.429h -0.385c -0.451 0 -0.726 0.033 -0.814 0.088c -0.088 0.055 -0.143 0.187 -0.143 0.385v 6.094c 0 0.264 -0.022 0.33 -0.308 0.33Z "/></symbol><symbol id="g93E2B88EAD8DFDF0BE4D6467DB923DB5" overflow="visible"><path d="M 0 0m 3.333 3.883c 0.726 0.275 1.408 0.968 1.408 1.903c 0 0.473 -0.231 0.858 -0.682 1.155c -0.396 0.253 -0.847 0.385 -1.353 0.385c -0.495 0 -0.924 -0.132 -1.309 -0.385c -0.429 -0.286 -0.649 -0.66 -0.649 -1.133c 0 -0.363 0.242 -0.616 0.594 -0.616c 0.352 0 0.594 0.253 0.594 0.605c 0 0.363 -0.209 0.561 -0.627 0.583c 0.286 0.385 0.737 0.583 1.353 0.583c 0.66 0 0.99 -0.385 0.99 -1.166c 0 -0.462 -0.088 -0.847 -0.253 -1.166c -0.297 -0.528 -0.704 -0.627 -1.386 -0.627c -0.132 -0.022 -0.198 -0.077 -0.198 -0.176c 0 -0.165 0.077 -0.165 0.297 -0.165h 0.473c 0.825 0 1.243 -0.583 1.243 -1.76c 0 -0.935 -0.341 -1.749 -1.177 -1.749c -0.715 0 -1.243 0.242 -1.562 0.726c 0.385 -0.011 0.671 0.275 0.671 0.649c 0 0.374 -0.275 0.649 -0.649 0.649c -0.429 0 -0.649 -0.22 -0.649 -0.671c 0 -0.539 0.242 -0.968 0.726 -1.309c 0.429 -0.297 0.935 -0.44 1.496 -0.44c 0.627 0 1.166 0.209 1.639 0.616c 0.473 0.407 0.704 0.913 0.704 1.529c 0 1.034 -0.814 1.749 -1.694 1.98Z "/></symbol><symbol id="g4C1ED41FE02ABB1BA3896D4213CC7460" overflow="visible"><path d="M 0 0m 0.627 0.473c 0 -0.319 0.264 -0.583 0.583 -0.583c 0.319 0 0.583 0.264 0.583 0.583c 0 0.319 -0.264 0.583 -0.583 0.583c -0.319 0 -0.583 -0.264 -0.583 -0.583Z "/></symbol><symbol id="g6A6B3E3381055DAC4DAE42A1F0D08F9F" overflow="visible"><path d="M 0 0m 0.6 5.448c 0 -0.3 0.276 -0.648 0.708 -0.648c 0.348 0 0.696 0.264 0.696 0.636c 0 0.06 -0.024 0.144 -0.06 0.252c -0.036 0.084 -0.072 0.18 -0.072 0.312c 0 0.276 0.42 0.828 0.996 0.828c 0.612 0 1.032 -0.756 1.032 -1.476c 0 -0.804 -0.048 -1.32 -0.684 -1.92l -1.02 -0.972c -1.488 -1.416 -1.692 -1.752 -1.728 -2.076l 0.048 -0.384h 4.632c 0.144 0.456 0.288 1.284 0.372 1.968c -0.156 0.072 -0.264 0.12 -0.54 0.12c -0.264 -0.816 -0.612 -1.14 -1.152 -1.14h -1.56c 0.036 0.384 0.156 0.708 0.552 1.068l 0.708 0.648c 1.428 1.32 1.908 1.608 1.908 2.724c 0 1.248 -1.056 1.932 -2.292 1.932c -1.716 0 -2.544 -1.128 -2.544 -1.872Z "/></symbol><symbol id="g56988988A1B18AD1D268C4FF00F68428" overflow="visible"><path d="M 0 0m 3.927 -0.11c 1.067 0 2.046 0.506 2.794 1.485c -0.055 0.099 -0.132 0.165 -0.253 0.165c -0.781 -0.858 -1.529 -1.199 -2.552 -1.199c -1.485 0 -2.508 1.672 -2.508 3.278c 0 0.946 0.253 1.738 0.649 2.233c 0.55 0.671 1.188 0.979 1.76 0.979c 1.518 0 2.123 -0.902 2.409 -1.848c 0.132 -0.044 0.242 -0.011 0.363 0.055c -0.055 0.572 -0.132 1.1 -0.242 1.705c -0.561 0.055 -1.056 0.495 -2.409 0.495c -0.935 0 -1.716 -0.341 -2.365 -0.935c -0.726 -0.671 -1.166 -1.749 -1.166 -2.893c 0 -1.914 1.155 -3.52 3.52 -3.52Z "/></symbol><symbol id="g3CE57ED74C3DBA63F54F2735C0855367" overflow="visible"><path d="M 0 0m 4.378 1.001c -0.044 0.099 -0.132 0.143 -0.231 0.154c -0.374 -0.484 -0.847 -0.726 -1.32 -0.726c -0.803 0 -1.474 0.814 -1.474 2.101c 0 1.21 0.528 1.936 1.254 1.936c 0.649 0 0.737 -0.385 0.781 -0.77c 0.033 -0.297 0.187 -0.396 0.418 -0.396c 0.231 0 0.539 0.143 0.539 0.484c 0 0.605 -0.627 1.045 -1.683 1.045c -1.089 0 -2.255 -0.979 -2.255 -2.541c 0 -1.419 0.792 -2.398 2.178 -2.398c 0.66 0 1.243 0.209 1.793 1.111Z "/></symbol><symbol id="gD91D82170ED5F219BEA1B53E81DC19AF" overflow="visible"><path d="M 0 0m 1.936 3.938c -0.022 0.44 -0.033 0.726 -0.088 0.836c -0.022 0.055 -0.044 0.088 -0.132 0.088c -0.308 -0.121 -0.594 -0.22 -1.353 -0.319c -0.022 -0.066 0 -0.242 0.022 -0.308c 0.594 -0.055 0.715 -0.11 0.715 -0.748v -2.145c 0 -0.913 -0.132 -0.957 -0.814 -1.001c -0.066 -0.066 -0.066 -0.297 0 -0.363c 0.385 0.011 0.814 0.022 1.254 0.022c 0.44 0 0.946 -0.011 1.331 -0.022c 0.066 0.066 0.066 0.297 0 0.363c -0.77 0.055 -0.902 0.088 -0.902 1.001v 1.529c 0 0.286 0.132 0.539 0.264 0.737c 0.121 0.176 0.374 0.539 0.506 0.539c 0.099 0 0.198 -0.022 0.286 -0.143c 0.077 -0.11 0.209 -0.253 0.396 -0.253c 0.264 0 0.517 0.275 0.517 0.55c 0 0.209 -0.198 0.528 -0.66 0.528c -0.517 0 -0.968 -0.484 -1.221 -0.913c -0.066 -0.121 -0.121 -0.033 -0.121 0.022Z "/></symbol><symbol id="gD14A2C15FA7E7E6DA17092C3143CABC8" overflow="visible"><path d="M 0 0m 1.925 1.342v 2.948h 1.023c 0.099 0 0.253 0.044 0.253 0.143v 0.22c 0 0.044 -0.033 0.066 -0.088 0.066h -1.188v 0.627c 0 1.694 0.506 1.958 0.869 1.958c 0.33 0 0.506 -0.132 0.66 -0.517c 0.088 -0.198 0.209 -0.352 0.44 -0.352c 0.187 0 0.451 0.231 0.451 0.451c 0 0.187 -0.121 0.385 -0.352 0.561c -0.286 0.198 -0.572 0.231 -0.99 0.231c -0.924 0 -1.947 -0.803 -1.947 -2.519v -0.44h -0.561c -0.198 0 -0.253 -0.132 -0.253 -0.22v -0.143c 0 -0.055 0.011 -0.066 0.055 -0.066h 0.759v -2.948c 0 -0.913 -0.176 -0.957 -0.77 -1.001c -0.066 -0.066 -0.066 -0.297 0 -0.363c 0.385 0.011 0.77 0.022 1.21 0.022c 0.44 0 0.968 -0.011 1.353 -0.022c 0.066 0.066 0.066 0.297 0 0.363c -0.858 0.044 -0.924 0.088 -0.924 1.001Z "/></symbol><symbol id="gEEC20B8710F33D8A6862F31BD530D033" overflow="visible"><path d="M 0 0m 4.884 4.257c 0.209 0 0.407 0.198 0.407 0.418c 0 0.231 -0.209 0.407 -0.506 0.407c -0.286 0 -0.814 -0.187 -1.1 -0.561c -0.132 0.088 -0.495 0.308 -1.144 0.308c -0.979 0 -1.881 -0.66 -1.881 -1.672c 0 -0.594 0.264 -0.935 0.572 -1.232c -0.308 -0.264 -0.484 -0.737 -0.484 -1.111c 0 -0.396 0.22 -0.704 0.506 -0.847c -0.594 -0.352 -0.902 -0.858 -0.902 -1.331c 0 -0.957 0.902 -1.254 1.749 -1.254c 1.485 0 3.091 0.715 3.091 1.903c 0 0.352 -0.165 0.627 -0.484 0.891c -0.429 0.352 -1.199 0.363 -1.606 0.363c -0.198 0 -0.473 -0.022 -0.737 -0.055c -0.165 -0.011 -0.275 -0.022 -0.33 -0.022c -0.319 0 -0.704 0.154 -0.704 0.627c 0 0.22 0.066 0.451 0.198 0.638c 0.264 -0.154 0.572 -0.231 1.001 -0.231c 0.968 0 1.859 0.605 1.859 1.683c 0 0.517 -0.154 0.814 -0.473 1.144c 0.077 0.11 0.297 0.264 0.44 0.264c 0.077 0 0.154 -0.033 0.22 -0.132c 0.044 -0.088 0.187 -0.198 0.308 -0.198Z m -3.432 -4.367c 0.121 -0.033 0.297 -0.055 0.44 -0.055c 0.341 0 0.649 0.033 0.803 0.033c 0.55 0 1.012 -0.011 1.331 -0.187c 0.429 -0.242 0.561 -0.396 0.561 -0.682c 0 -0.792 -1.166 -1.21 -2.156 -1.21c -0.396 0 -1.32 0.319 -1.32 1.067c 0 0.374 0.022 0.649 0.341 1.034Z m 2.057 3.179c 0 -1.023 -0.517 -1.232 -0.924 -1.232c -0.924 0 -1.023 0.781 -1.023 1.485c 0 0.77 0.275 1.166 0.88 1.166c 0.693 0 1.067 -0.506 1.067 -1.419Z "/></symbol><symbol id="g162FFC49A5D51E5E20A023FB65F6BB60" overflow="visible"><path d="M 0 0m 2.233 4.378c 0.066 0.066 0.066 0.297 0 0.363c -0.33 -0.011 -0.715 -0.022 -1.111 -0.022c -0.418 0 -0.715 0.011 -1.001 0.022c -0.066 -0.066 -0.066 -0.297 0 -0.363c 0.517 -0.055 0.638 -0.165 0.869 -0.737l 1.441 -3.553c 0.066 -0.154 0.154 -0.22 0.264 -0.22c 0.099 0 0.187 0.066 0.264 0.242l 1.111 2.706l 1.133 -2.728c 0.066 -0.154 0.154 -0.22 0.264 -0.22c 0.099 0 0.187 0.066 0.253 0.231l 1.441 3.487c 0.176 0.451 0.363 0.759 0.924 0.792c 0.066 0.066 0.066 0.297 0 0.363c -0.22 -0.011 -0.462 -0.022 -0.792 -0.022c -0.33 0 -0.792 0.011 -1.122 0.022c -0.066 -0.066 -0.066 -0.297 0 -0.363c 0.825 -0.044 0.715 -0.363 0.561 -0.748l -0.924 -2.288c -0.11 -0.275 -0.154 -0.275 -0.242 -0.044l -0.946 2.409c -0.209 0.517 -0.187 0.627 0.396 0.671c 0.066 0.066 0.066 0.297 0 0.363c -0.33 -0.011 -0.77 -0.022 -1.1 -0.022c -0.275 0 -0.638 0.011 -0.968 0.022c -0.066 -0.066 -0.066 -0.297 0 -0.363c 0.517 -0.044 0.649 -0.363 0.847 -0.858l 0.066 -0.176l -0.77 -1.947c -0.143 -0.363 -0.165 -0.374 -0.308 -0.022l -0.88 2.266c -0.209 0.528 -0.198 0.704 0.33 0.737Z "/></symbol><symbol id="g21F992EDFDCF3117BFC401CE348E97A9" overflow="visible"><path d="M 0 0m 4.323 5.335c 0 0.792 -0.616 1.375 -1.694 1.375c -1.122 0 -1.848 -0.671 -1.848 -1.518c 0 -0.616 0.297 -1.067 0.968 -1.485l 0.286 -0.176c -0.319 -0.165 -0.616 -0.363 -0.891 -0.605c -0.451 -0.396 -0.638 -0.891 -0.638 -1.32c 0 -1.122 0.792 -1.716 1.958 -1.716c 1.441 0 2.145 1.056 2.145 1.892c 0 0.638 -0.275 1.199 -0.858 1.551l -0.781 0.473c 0.517 0.253 1.353 0.825 1.353 1.529Z m -1.837 -5.06c -0.495 0 -1.243 0.341 -1.243 1.331c 0 0.33 0.143 1.1 1.089 1.727l 0.517 -0.308c 0.682 -0.418 0.957 -0.935 0.957 -1.463c 0 -1.1 -0.825 -1.287 -1.32 -1.287Z m 0.088 6.05c 0.715 0 0.979 -0.473 0.979 -0.979c 0 -0.594 -0.583 -1.089 -0.88 -1.309l -0.341 0.209c -0.693 0.451 -0.77 0.814 -0.77 1.155c 0 0.506 0.352 0.924 1.012 0.924Z "/></symbol><symbol id="gF9510C9866DCA99AFC3FC8A8DB318BDC" overflow="visible"><path d="M 0 0m 1.87 3.938c -0.011 0.33 -0.033 0.726 -0.088 0.836c -0.022 0.055 -0.044 0.088 -0.132 0.088c -0.308 -0.121 -0.594 -0.22 -1.353 -0.319c -0.022 -0.066 0 -0.242 0.022 -0.308c 0.594 -0.055 0.715 -0.11 0.715 -0.748v -2.145c 0 -0.902 -0.143 -0.957 -0.748 -1.001c -0.066 -0.066 -0.066 -0.297 0 -0.363c 0.33 0.011 0.748 0.022 1.188 0.022c 0.44 0 0.781 -0.011 1.111 -0.022c 0.066 0.066 0.066 0.297 0 0.363c -0.561 0.055 -0.682 0.099 -0.682 1.001v 1.804c 0 0.231 0.099 0.363 0.187 0.462c 0.44 0.429 0.847 0.649 1.188 0.649c 0.418 0 0.726 -0.264 0.726 -1.001v -1.914c 0 -0.902 -0.088 -0.957 -0.682 -1.001c -0.055 -0.066 -0.055 -0.297 0 -0.363c 0.275 0.011 0.682 0.022 1.122 0.022c 0.44 0 0.803 -0.011 1.078 -0.022c 0.055 0.066 0.055 0.297 0 0.363c -0.55 0.044 -0.649 0.099 -0.649 1.001v 1.749c 0 0.154 0 0.308 -0.011 0.44c 0.528 0.583 1.023 0.726 1.452 0.726c 0.418 0 0.66 -0.242 0.66 -0.979v -1.936c 0 -0.902 -0.11 -0.957 -0.682 -1.001c -0.055 -0.066 -0.055 -0.297 0 -0.363c 0.275 0.011 0.682 0.022 1.122 0.022c 0.44 0 0.825 -0.011 1.133 -0.022c 0.055 0.066 0.055 0.297 0 0.363c -0.605 0.044 -0.704 0.099 -0.704 1.001v 1.738c 0 0.979 -0.165 1.749 -1.133 1.749c -0.561 0 -1.243 -0.209 -1.815 -0.814c -0.033 -0.033 -0.099 -0.088 -0.121 0.011c -0.099 0.451 -0.528 0.803 -1.1 0.803c -0.638 0 -1.21 -0.374 -1.672 -0.891c -0.055 -0.055 -0.121 -0.132 -0.132 0Z "/></symbol><symbol id="g7FF42B92D9D80783DC2C1CC317042C56" overflow="visible"><path d="M 0 0m 3.674 0.55c 0.055 0.044 0.154 0.066 0.165 -0.011c 0.033 -0.264 0.121 -0.649 0.121 -0.649c 0.088 -0.033 0.143 -0.022 0.209 0c 0.242 0.198 0.627 0.363 1.298 0.44c 0.066 0.066 0.066 0.231 0 0.297c -0.704 0.055 -0.803 0.264 -0.803 0.803v 4.983c 0 0.715 0.044 1.155 0.044 1.155c 0 0.077 -0.044 0.11 -0.143 0.11c -0.275 -0.11 -1.1 -0.264 -1.54 -0.297c -0.022 -0.088 0 -0.264 0.066 -0.33c 0.033 0 0.066 0 0.099 0c 0.484 -0.033 0.605 -0.033 0.605 -0.902v -1.408c 0 -0.077 -0.022 -0.099 -0.099 -0.099c -0.044 0 -0.495 0.187 -0.858 0.187c -0.726 0 -1.21 -0.242 -1.65 -0.66c -0.473 -0.473 -0.759 -1.122 -0.759 -1.936c 0 -1.353 0.682 -2.343 1.87 -2.343c 0.429 0 0.836 0.22 1.375 0.66Z m 0.121 0.814c 0 -0.209 -0.022 -0.297 -0.176 -0.429c -0.407 -0.352 -0.759 -0.528 -1.034 -0.528c -0.594 0 -1.21 0.649 -1.21 2.024c 0 0.792 0.154 1.232 0.319 1.463c 0.341 0.517 0.803 0.55 1.023 0.55c 0.396 0 0.671 -0.143 0.891 -0.396c 0.154 -0.176 0.187 -0.253 0.187 -0.594Z "/></symbol><symbol id="g11CDB088C8E2186077BDC4630970361A" overflow="visible"><path d="M 0 0m 3.509 2.079c 0 -1.045 -0.55 -1.815 -1.21 -1.815c -0.418 0 -0.561 0.275 -0.726 0.495c -0.143 0.187 -0.33 0.352 -0.561 0.352c -0.209 0 -0.418 -0.187 -0.418 -0.407c 0 -0.451 0.935 -0.825 1.562 -0.825c 1.364 0 2.332 1.012 2.332 2.398c 0 1.067 -0.737 2.024 -1.969 2.024c -0.473 0 -0.88 -0.099 -1.078 -0.176l 0.22 1.837c 0.407 -0.044 0.759 -0.099 1.287 -0.099c 0.33 0 0.704 0.022 1.155 0.066l 0.176 0.748l -0.077 0.044c -0.627 -0.066 -1.221 -0.121 -1.804 -0.121c -0.407 0 -0.803 0.022 -1.188 0.055l -0.374 -3.168c 0.583 0.22 1.001 0.264 1.397 0.264c 0.715 0 1.276 -0.473 1.276 -1.672Z "/></symbol><symbol id="g1C3263E1691946900500B192D1A294F" overflow="visible"><path d="M 0 0m 2.976 6.816c 0.504 0 0.756 -0.288 0.756 -0.852c 0 -0.912 -0.732 -1.644 -1.836 -1.896l 0.084 -0.48c 0.252 0.072 0.396 0.096 0.576 0.096c 0.624 0 1.5 -0.18 1.5 -1.62c 0 -1.38 -0.816 -1.68 -1.26 -1.68c -0.468 0 -0.72 0.3 -0.876 0.504c -0.132 0.18 -0.336 0.444 -0.78 0.444c -0.372 0 -0.588 -0.312 -0.588 -0.516c 0 -0.252 0.132 -0.432 0.396 -0.564c 0.432 -0.216 1.068 -0.372 1.656 -0.372c 1.416 0 3 1.116 3 2.784c 0 0.864 -0.564 1.62 -1.572 1.692c 0.528 0.264 1.116 0.9 1.116 1.632c 0 0.528 -0.288 1.332 -1.944 1.332c -1.248 0 -1.752 -0.42 -2.136 -0.768c -0.264 -0.24 -0.336 -0.564 -0.336 -0.72c 0 -0.168 0.06 -0.444 0.456 -0.444c 0.528 0 0.672 0.276 0.744 0.66c 0.132 0.732 0.636 0.768 1.044 0.768Z "/></symbol><symbol id="g3BC6300649CA32A3B6F5E66435D77781" overflow="visible"><path d="M 0 0m 3.113 3.553c 0.935 0 0.968 -0.253 1.001 -0.748c 0.066 -0.066 0.297 -0.066 0.363 0c -0.011 0.275 -0.022 0.594 -0.022 0.968c 0 0.374 0.011 0.66 0.022 0.946c -0.066 0.066 -0.297 0.066 -0.363 0c -0.033 -0.605 -0.066 -0.748 -1.001 -0.748h -1.023v 1.98c 0 0.594 0.132 0.704 0.616 0.704h 0.495c 1.166 0 1.441 -0.44 1.683 -1.199c 0.132 0 0.253 0.022 0.341 0.055c -0.055 0.451 -0.22 1.507 -0.242 1.595c 0 0.022 -0.011 0.033 -0.044 0.033c -0.187 -0.033 -0.242 -0.044 -0.517 -0.044h -2.805c -0.352 0 -0.979 0.011 -1.419 0.022c -0.066 -0.066 -0.066 -0.297 0 -0.363c 0.77 -0.033 0.957 -0.088 0.957 -1.001v -4.411c 0 -0.913 -0.187 -0.968 -0.957 -1.001c -0.066 -0.066 -0.066 -0.297 0 -0.363c 0.385 0.011 0.935 0.022 1.43 0.022c 0.495 0 1.034 -0.011 1.419 -0.022c 0.066 0.066 0.066 0.297 0 0.363c -0.77 0.033 -0.957 0.088 -0.957 1.001v 2.211Z "/></symbol><symbol id="g4FC526A993AC97C2A7055B69F4E908C9" overflow="visible"><path d="M 0 0m 2.002 3.938c -0.253 0.374 -0.176 0.385 0.319 0.44c 0.066 0.066 0.066 0.297 0 0.363c -0.297 -0.011 -0.781 -0.022 -1.111 -0.022c -0.33 0 -0.66 0.011 -0.946 0.022c -0.066 -0.066 -0.066 -0.297 0 -0.363c 0.374 -0.033 0.682 -0.22 0.99 -0.671l 0.957 -1.397c 0.055 -0.077 0.055 -0.11 0.011 -0.165l -0.924 -1.188c -0.44 -0.561 -0.682 -0.594 -1.067 -0.616c -0.066 -0.066 -0.066 -0.297 0 -0.363c 0.22 0.011 0.462 0.022 0.792 0.022c 0.33 0 0.638 -0.011 0.924 -0.022c 0.066 0.066 0.066 0.297 0 0.363c -0.396 0.044 -0.484 0.088 -0.242 0.44l 0.693 1.001c 0.088 0.132 0.132 0.121 0.198 0.022l 0.638 -0.88c 0.385 -0.528 0.209 -0.55 -0.143 -0.583c -0.066 -0.066 -0.066 -0.297 0 -0.363c 0.33 0.011 0.693 0.022 1.089 0.022c 0.418 0 0.715 -0.011 0.979 -0.022c 0.066 0.066 0.066 0.297 0 0.363c -0.495 0.033 -0.66 0.066 -1.1 0.693l -0.99 1.397c -0.044 0.066 -0.055 0.099 0 0.165l 0.924 1.177c 0.407 0.517 0.671 0.572 1.067 0.605c 0.066 0.066 0.066 0.297 0 0.363c -0.22 -0.011 -0.473 -0.022 -0.803 -0.022c -0.33 0 -0.638 0.011 -0.924 0.022c -0.066 -0.066 -0.066 -0.297 0 -0.363c 0.407 -0.044 0.528 -0.077 0.264 -0.451l -0.715 -1.001c -0.077 -0.11 -0.121 -0.099 -0.209 0.022Z "/></symbol><symbol id="gF9560AC257AD9BBCF737B0F29E336B2F" overflow="visible"><path d="M 0 0m 1.716 4.048c -0.011 0.33 -0.033 0.616 -0.088 0.726c -0.022 0.055 -0.044 0.088 -0.132 0.088c -0.308 -0.121 -0.594 -0.22 -1.353 -0.319c -0.022 -0.066 0 -0.242 0.022 -0.308c 0.594 -0.055 0.715 -0.11 0.715 -0.748v -4.697c 0 -0.913 -0.121 -0.968 -0.792 -1.001c -0.066 -0.066 -0.066 -0.297 0 -0.363c 0.385 0.011 0.792 0.022 1.232 0.022c 0.44 0 0.968 -0.011 1.331 -0.022c 0.066 0.066 0.066 0.297 0 0.363c -0.781 0.044 -0.902 0.088 -0.902 1.001v 1.188c 0 0.143 0.044 0.132 0.154 0.088c 0.275 -0.11 0.605 -0.176 0.957 -0.176c 0.616 0 1.166 0.187 1.617 0.616c 0.517 0.506 0.814 1.188 0.814 2.079c 0 1.166 -0.825 2.244 -1.947 2.244c -0.506 0 -1.067 -0.33 -1.507 -0.825c -0.066 -0.066 -0.11 -0.066 -0.121 0.044Z m 0.209 -0.407c 0.286 0.352 0.792 0.682 1.111 0.682c 0.704 0 1.309 -0.792 1.309 -2.035c 0 -0.902 -0.319 -2.024 -1.551 -2.024c -0.198 0 -0.583 0.055 -0.781 0.231c -0.22 0.198 -0.264 0.264 -0.264 0.66v 2.002c 0 0.231 0.044 0.33 0.176 0.484Z "/></symbol><symbol id="g4E5D026409004C23B788CF76C0C2AF69" overflow="visible"><path d="M 0 0m 0.528 1.518c 0.044 -0.539 0.077 -1.056 0.077 -1.518c 0.11 0.022 0.22 0.033 0.275 0.033c 0.077 0 0.143 0 0.22 -0.022c 0.297 -0.077 0.594 -0.121 1.001 -0.121c 0.616 0 1.749 0.297 1.749 1.386c 0 0.748 -0.539 1.188 -1.287 1.463c -0.66 0.253 -1.1 0.418 -1.1 1.023c 0 0.451 0.396 0.704 0.77 0.704c 0.242 0 0.88 -0.088 1.023 -1.023c 0.066 -0.066 0.286 -0.055 0.352 0.011c 0.033 0.396 0.055 0.803 0.066 1.166c -0.341 0.055 -0.869 0.209 -1.441 0.209c -0.814 0 -1.551 -0.528 -1.551 -1.232c 0 -0.803 0.363 -1.144 1.21 -1.496c 0.913 -0.374 1.122 -0.605 1.122 -1.078c 0 -0.539 -0.528 -0.77 -0.935 -0.77c -0.429 0 -0.671 0.143 -0.781 0.264c -0.242 0.253 -0.363 0.737 -0.429 1.012c -0.066 0.066 -0.275 0.055 -0.341 -0.011Z "/></symbol><symbol id="g25B224D96CA3F5CCC7E774117FEA026D" overflow="visible"><path d="M 0 0m 0.9163 3.2648c 0.2464 0 0.4312 0.1848 0.4312 0.4312c 0 0.2772 -0.1463 0.4235 -0.4312 0.4312c 0.1694 0.3619 0.5544 0.6545 1.0549 0.6545c 0.6776 0 1.1242 -0.5082 1.1242 -1.1858c 0 -0.3696 -0.1309 -0.7238 -0.4004 -1.0703c -0.1309 -0.1771 -0.231 -0.3003 -0.3003 -0.3696l -1.8249 -1.8095c -0.1001 -0.0924 -0.0847 -0.1155 -0.0847 -0.3465h 3.1724l 0.2387 1.4476h -0.3234c -0.0539 -0.4081 -0.1155 -0.6468 -0.1848 -0.7007c -0.0385 -0.0231 -0.2772 -0.0385 -0.7315 -0.0385h -1.309c 0.5159 0.4543 0.9933 0.8624 1.4476 1.2243c 0.3465 0.2695 0.5929 0.5082 0.7469 0.7161c 0.231 0.3003 0.3465 0.616 0.3465 0.9471c 0 0.4774 -0.1848 0.8547 -0.5621 1.1319c -0.3311 0.2541 -0.7469 0.385 -1.2397 0.385c -0.4235 0 -0.7854 -0.1232 -1.1011 -0.3696c -0.3311 -0.2695 -0.5005 -0.6083 -0.5005 -1.0241c 0 -0.2618 0.1925 -0.4543 0.4312 -0.4543Z "/></symbol><symbol id="g6CA3708905D5D56BD06755CEABD69DE1" overflow="visible"><path d="M 0 0m 7.678 2.97h -6.798c -0.176 0 -0.264 -0.077 -0.264 -0.22c 0 -0.143 0.088 -0.22 0.264 -0.22h 6.798c 0.176 0 0.264 0.077 0.264 0.22c 0 0.132 -0.132 0.22 -0.264 0.22Z "/></symbol><symbol id="g38D01286548D526A8BD5E8724FB2369F" overflow="visible"><path d="M 0 0m 1.276 1.54c -0.363 0 -0.539 -0.187 -0.539 -0.561c 0 -0.825 0.671 -1.221 1.54 -1.221c 0.88 0 1.584 0.44 2.101 1.331c 0.429 0.737 0.649 1.584 0.649 2.53c 0 1.397 -0.253 2.387 -0.759 2.97c -0.429 0.495 -0.924 0.737 -1.485 0.737c -0.649 0 -1.188 -0.231 -1.617 -0.704c -0.473 -0.495 -0.704 -1.089 -0.704 -1.782c 0 -0.671 0.198 -1.243 0.594 -1.716c 0.418 -0.506 0.957 -0.759 1.606 -0.759c 0.572 0 1.012 0.308 1.309 0.924v -0.143c 0 -1.199 -0.209 -2.013 -0.638 -2.453c -0.341 -0.363 -0.704 -0.539 -1.067 -0.539c -0.44 0 -0.759 0.099 -0.968 0.308c 0.341 0 0.517 0.198 0.517 0.539c 0 0.308 -0.231 0.539 -0.539 0.539Z m 1.397 1.166c -0.429 0 -0.748 0.22 -0.968 0.66c -0.121 0.253 -0.187 0.748 -0.187 1.463c 0 0.715 0.077 1.199 0.22 1.474c 0.242 0.44 0.594 0.66 1.045 0.66c 0.451 0 0.781 -0.275 0.99 -0.825c 0.121 -0.297 0.198 -0.803 0.198 -1.518c 0 -0.957 -0.429 -1.914 -1.298 -1.914Z "/></symbol></defs></svg>