<svg viewBox="0 0 396.850393701 297.865913386" width="396.850393701pt" height="297.865913386pt" xmlns="http://www.w3.org/2000/svg" xmlns:xlink="http://www.w3.org/1999/xlink" xmlns:h5="http://www.w3.org/1999/xhtml"><path fill="#ffffff" fill-rule="nonzero" d="M 0 0v 297.865913386h 396.850393701v -297.865913386Z "/><g transform="translate(28.346456693 28.346456693)"><g transform="matrix(1 0 0 -1 0 9.933)"><use xlink:href="#gC3053F328DAA0F724D7A9356AFEE7614" x="0" y="0" fill="#000000" fill-rule="nonzero"/><use xlink:href="#g7CA22C0642473A6CB966598435F522A7" x="11.396" y="0" fill="#000000" fill-rule="nonzero"/><use xlink:href="#g6BF150871DDC0E2AB2AF6040C4911869" x="16.401" y="0" fill="#000000" fill-rule="nonzero"/><use xlink:href="#g8D87BB1E6931CE5DBAF4138A3DE9A54D" x="24.4244" y="0" fill="#000000" fill-rule="nonzero"/><use xlink:href="#g4492AAC0B469CF9A7B5B7C9435971E63" x="31.955" y="0" fill="#000000" fill-rule="nonzero"/><use xlink:href="#gC0EBBBD6F3DBCA85D31CDC275B71A469" x="40.3018" y="0" fill="#000000" fill-rule="nonzero"/><use xlink:href="#g6476F0F7E4418F1157BCC40DDC3BB78C" x="46.893" y="0" fill="#000000" fill-rule="nonzero"/><use xlink:href="#gDC4FA02C72DAC3171B68B3424ADEA2DD" x="58.5354" y="0" fill="#000000" fill-rule="nonzero"/><use xlink:href="#g8D87BB1E6931CE5DBAF4138A3DE9A54D" x="66.297" y="0" fill="#000000" fill-rule="nonzero"/><use xlink:href="#g2234B4E8F53D34CD82162BC6EB922EF6" x="73.9354" y="0" fill="#000000" fill-rule="nonzero"/><use xlink:href="#g98D4ECD12BF7D91D0E78ABACB44D7A45" x="80.9578" y="0" fill="#000000" fill-rule="nonzero"/><use xlink:href="#g637506313BAA6F72BE9B7E1619C4BE2A" x="86.471" y="0" fill="#000000" fill-rule="nonzero"/><use xlink:href="#g4B69FD55F5BDE07B3D48E30329FBF6E0" x="91.4298" y="0" fill="#000000" fill-rule="nonzero"/><use xlink:href="#g4FEFAF4942145E28B4DD233C130B45D2" x="99.9152" y="0" fill="#000000" fill-rule="nonzero"/></g></g><g transform="translate(28.346456693 47.079456693)"><g transform="translate(41.908)"><g><path fill="#ffffff" fill-rule="nonzero" stroke="#000000" stroke-width="0.8" stroke-linecap="butt" stroke-linejoin="miter" stroke-miterlimit="4" d="M 0 0v 20h 62.444v -20Z "/><g transform="matrix(1 0 0 -1 4 13.87)"><use xlink:href="#g71810B677EEE634316EAB71F2F5BD9A8" x="0" y="0" fill="#000000" fill-rule="nonzero"/><use xlink:href="#g898F8D390A5BE9CA3FA6421EA60BDB40" x="7.308" y="0" fill="#000000" fill-rule="nonzero"/><use xlink:href="#gE18113BE1243CA6EC5596891CC422939" x="14.04" y="0" fill="#000000" fill-rule="nonzero"/><use xlink:href="#g56D9AC69DF1E60AEC4FA898FA388366B" x="19.908" y="0" fill="#000000" fill-rule="nonzero"/><use xlink:href="#gEF03CC905B39DF2CE13E9EED9CECE9CC" x="24.948" y="0" fill="#000000" fill-rule="nonzero"/><use xlink:href="#g1094D23D321B642DA133CC49B1BA1EB9" x="30.42" y="0" fill="#000000" fill-rule="nonzero"/><use xlink:href="#g93ED4154508DB3ADD21415419B103611" x="34.284" y="0" fill="#000000" fill-rule="nonzero"/><use xlink:href="#gE18113BE1243CA6EC5596891CC422939" x="39.408" y="0" fill="#000000" fill-rule="nonzero"/><use xlink:href="#gFCFAD84E8A4521C99D93A9F0049D8745" x="48.276" y="0" fill="#000000" fill-rule="nonzero"/></g></g></g><g transform="translate(110.352)"><g transform="matrix(1 0 0 -1 0 10.513)"><use xlink:href="#gD355BF4F81D64465081A1B40E1986DB4" x="0" y="0" fill="#000000" fill-rule="nonzero"/><use xlink:href="#g5E76F8DBE7C3C7A9A461E8EC1D70F6FB" x="5.335" y="0" fill="#000000" fill-rule="nonzero"/><use xlink:href="#g36F90904A4043C6A677E73471A30013F" x="10.879" y="0" fill="#000000" fill-rule="nonzero"/><use xlink:href="#g1E471D2E98C4E85A3CE47F56E86025C4" x="13.783" y="0" fill="#000000" fill-rule="nonzero"/><use xlink:href="#gBFE09989B12480F1B7796D69E0D7287C" x="19.162" y="0" fill="#000000" fill-rule="nonzero"/></g><g transform="matrix(1 0 0 -1 26.829 10.513)"><use xlink:href="#g847DCE2A3EE7D23E3D551BDE0EE8A683" x="0" y="0" fill="#000000" fill-rule="nonzero"/></g><g transform="matrix(1 0 0 -1 32.329 10.513)"><use xlink:href="#g7FDD4349A49914F62F30F23AE9794251" x="0" y="0" fill="#000000" fill-rule="nonzero"/></g><g transform="matrix(1 0 0 -1 41.065444444 10.513)"><use xlink:href="#gDDD45F8C02017DD13480202EA2B099EF" x="0" y="0" fill="#000000" fill-rule="nonzero"/></g><g transform="matrix(1 0 0 -1 52.067888889 10.513)"><use xlink:href="#g8894C0A608DBD285706C131FF554A2B1" x="0" y="0" fill="#000000" fill-rule="nonzero"/></g><g transform="matrix(1 0 0 -1 60.623444444 10.513)"><use xlink:href="#g2389F7618E8CE27CC7151A1D8E5DEAD4" x="0" y="0" fill="#000000" fill-rule="nonzero"/></g><g transform="matrix(1 0 0 -1 72.237 10.513)"><use xlink:href="#g23FF2CB0A5B3999574DE734D483151BD" x="0" y="0" fill="#000000" fill-rule="nonzero"/></g><g transform="matrix(1 0 0 -1 77.737 10.513)"><use xlink:href="#g93E2B88EAD8DFDF0BE4D6467DB923DB5" x="0" y="0" fill="#000000" fill-rule="nonzero"/></g><g transform="matrix(1 0 0 -1 83.237 10.513)"><use xlink:href="#g4C1ED41FE02ABB1BA3896D4213CC7460" x="0" y="0" fill="#000000" fill-rule="nonzero"/></g></g></g><g transform="translate(28.346456693 75.879456693)"><g transform="translate(41.908)"><g><path fill="#ffffff" fill-rule="nonzero" stroke="#000000" stroke-width="0.8" stroke-linecap="butt" stroke-linejoin="miter" stroke-miterlimit="4" d="M 0 0v 20h 62.444v -20Z "/><g transform="matrix(1 0 0 -1 4 13.87)"><use xlink:href="#g71810B677EEE634316EAB71F2F5BD9A8" x="0" y="0" fill="#000000" fill-rule="nonzero"/><use xlink:href="#g898F8D390A5BE9CA3FA6421EA60BDB40" x="7.308" y="0" fill="#000000" fill-rule="nonzero"/><use xlink:href="#gE18113BE1243CA6EC5596891CC422939" x="14.04" y="0" fill="#000000" fill-rule="nonzero"/><use xlink:href="#g56D9AC69DF1E60AEC4FA898FA388366B" x="19.908" y="0" fill="#000000" fill-rule="nonzero"/><use xlink:href="#gEF03CC905B39DF2CE13E9EED9CECE9CC" x="24.948" y="0" fill="#000000" fill-rule="nonzero"/><use xlink:href="#g1094D23D321B642DA133CC49B1BA1EB9" x="30.42" y="0" fill="#000000" fill-rule="nonzero"/><use xlink:href="#g93ED4154508DB3ADD21415419B103611" x="34.284" y="0" fill="#000000" fill-rule="nonzero"/><use xlink:href="#gE18113BE1243CA6EC5596891CC422939" x="39.408" y="0" fill="#000000" fill-rule="nonzero"/><use xlink:href="#g6A6B3E3381055DAC4DAE42A1F0D08F9F" x="48.276" y="0" fill="#000000" fill-rule="nonzero"/></g></g></g><g transform="translate(110.352)"><g transform="matrix(1 0 0 -1 0 10.513)"><use xlink:href="#gD355BF4F81D64465081A1B40E1986DB4" x="0" y="0" fill="#000000" fill-rule="nonzero"/><use xlink:href="#g5E76F8DBE7C3C7A9A461E8EC1D70F6FB" x="5.335" y="0" fill="#000000" fill-rule="nonzero"/><use xlink:href="#g36F90904A4043C6A677E73471A30013F" x="10.879" y="0" fill="#000000" fill-rule="nonzero"/><use xlink:href="#g1E471D2E98C4E85A3CE47F56E86025C4" x="13.783" y="0" fill="#000000" fill-rule="nonzero"/><use xlink:href="#gBFE09989B12480F1B7796D69E0D7287C" x="19.162" y="0" fill="#000000" fill-rule="nonzero"/></g><g transform="matrix(1 0 0 -1 26.829 10.513)"><use xlink:href="#g7FDD4349A49914F62F30F23AE9794251" x="0" y="0" fill="#000000" fill-rule="nonzero"/></g><g transform="matrix(1 0 0 -1 33.121 6.52)"><use xlink:href="#g25B224D96CA3F5CCC7E774117FEA026D" x="0" y="0" fill="#000000" fill-rule="nonzero"/></g><g transform="matrix(1 0 0 -1 41.173855556 10.513)"><use xlink:href="#g2389F7618E8CE27CC7151A1D8E5DEAD4" x="0" y="0" fill="#000000" fill-rule="nonzero"/></g><g transform="matrix(1 0 0 -1 52.787411111 10.513)"><use xlink:href="#g38D01286548D526A8BD5E8724FB2369F" x="0" y="0" fill="#000000" fill-rule="nonzero"/></g><g transform="matrix(1 0 0 -1 58.287411111 10.513)"><use xlink:href="#g4C1ED41FE02ABB1BA3896D4213CC7460" x="0" y="0" fill="#000000" fill-rule="nonzero"/></g></g></g><g transform="translate(28.346456693 104.679456693)"><g transform="translate(41.908)"><g><path fill="#ffffff" fill-rule="nonzero" stroke="#000000" stroke-width="0.8" stroke-linecap="butt" stroke-linejoin="miter" stroke-miterlimit="4" d="M 0 0v 20h 62.444v -20Z "/><g transform="matrix(1 0 0 -1 4 13.87)"><use xlink:href="#g71810B677EEE634316EAB71F2F5BD9A8" x="0" y="0" fill="#000000" fill-rule="nonzero"/><use xlink:href="#g898F8D390A5BE9CA3FA6421EA60BDB40" x="7.308" y="0" fill="#000000" fill-rule="nonzero"/><use xlink:href="#gE18113BE1243CA6EC5596891CC422939" x="14.04" y="0" fill="#000000" fill-rule="nonzero"/><use xlink:href="#g56D9AC69DF1E60AEC4FA898FA388366B" x="19.908" y="0" fill="#000000" fill-rule="nonzero"/><use xlink:href="#gEF03CC905B39DF2CE13E9EED9CECE9CC" x="24.948" y="0" fill="#000000" fill-rule="nonzero"/><use xlink:href="#g1094D23D321B642DA133CC49B1BA1EB9" x="30.42" y="0" fill="#000000" fill-rule="nonzero"/><use xlink:href="#g93ED4154508DB3ADD21415419B103611" x="34.284" y="0" fill="#000000" fill-rule="nonzero"/><use xlink:href="#gE18113BE1243CA6EC5596891CC422939" x="39.408" y="0" fill="#000000" fill-rule="nonzero"/><use xlink:href="#g1C3263E1691946900500B192D1A294F" x="48.276" y="0" fill="#000000" fill-rule="nonzero"/></g></g></g><g transform="translate(110.352)"><g transform="matrix(1 0 0 -1 0 10.513)"><use xlink:href="#gD355BF4F81D64465081A1B40E1986DB4" x="0" y="0" fill="#000000" fill-rule="nonzero"/><use xlink:href="#g5E76F8DBE7C3C7A9A461E8EC1D70F6FB" x="5.335" y="0" fill="#000000" fill-rule="nonzero"/><use xlink:href="#g36F90904A4043C6A677E73471A30013F" x="10.879" y="0" fill="#000000" fill-rule="nonzero"/><use xlink:href="#g1E471D2E98C4E85A3CE47F56E86025C4" x="13.783" y="0" fill="#000000" fill-rule="nonzero"/><use xlink:href="#gBFE09989B12480F1B7796D69E0D7287C" x="19.162" y="0" fill="#000000" fill-rule="nonzero"/></g><g transform="matrix(1 0 0 -1 26.829 10.513)"><use xlink:href="#g93E2B88EAD8DFDF0BE4D6467DB923DB5" x="0" y="0" fill="#000000" fill-rule="nonzero"/></g><g transform="matrix(1 0 0 -1 32.329 10.513)"><use xlink:href="#g7FDD4349A49914F62F30F23AE9794251" x="0" y="0" fill="#000000" fill-rule="nonzero"/></g><g transform="matrix(1 0 0 -1 41.065444444 10.513)"><use xlink:href="#g6CA3708905D5D56BD06755CEABD69DE1" x="0" y="0" fill="#000000" fill-rule="nonzero"/></g><g transform="matrix(1 0 0 -1 52.067888889 10.513)"><use xlink:href="#g23FF2CB0A5B3999574DE734D483151BD" x="0" y="0" fill="#000000" fill-rule="nonzero"/></g><g transform="matrix(1 0 0 -1 60.623444444 10.513)"><use xlink:href="#gFBE830B250F5B796B1177EED60278387" x="0" y="0" fill="#000000" fill-rule="nonzero"/></g><g transform="matrix(1 0 0 -1 72.237 10.513)"><use xlink:href="#g8894C0A608DBD285706C131FF554A2B1" x="0" y="0" fill="#000000" fill-rule="nonzero"/></g><g transform="matrix(1 0 0 -1 77.737 10.513)"><use xlink:href="#g4C1ED41FE02ABB1BA3896D4213CC7460" x="0" y="0" fill="#000000" fill-rule="nonzero"/></g></g></g><path fill="none" stroke="#000000" stroke-width="0.5" stroke-linecap="butt" stroke-linejoin="miter" stroke-miterlimit="4" transform="translate(28.346456693 144.479456693)" d="M 0 0h 340.157480315"/><g transform="matrix(1 0 0 -1 28.346456693 177.619456693)"><use xlink:href="#g7C8B8CE2FA3271B2DB9D5C00ED33FFB8" x="0" y="0" fill="#000000" fill-rule="nonzero"/><use xlink:href="#g3C2E9715FB9D690A986B8F0D57F3007C" x="8.88" y="0" fill="#000000" fill-rule="nonzero"/><use xlink:href="#g93ED4154508DB3ADD21415419B103611" x="16.272" y="0" fill="#000000" fill-rule="nonzero"/><use xlink:href="#g9F7E1555646D96C898148392D0DD78AD" x="21.396" y="0" fill="#000000" fill-rule="nonzero"/><use xlink:href="#gE18113BE1243CA6EC5596891CC422939" x="30.624" y="0" fill="#000000" fill-rule="nonzero"/><use xlink:href="#g56D9AC69DF1E60AEC4FA898FA388366B" x="36.492" y="0" fill="#000000" fill-rule="nonzero"/><use xlink:href="#g93ED4154508DB3ADD21415419B103611" x="41.628" y="0" fill="#000000" fill-rule="nonzero"/></g><g transform="translate(28.346456693 191.919456693)"><g transform="translate(41.284)"><g><path fill="#e4ebe6" fill-rule="nonzero" stroke="#4a7c59" stroke-width="0.8" stroke-linecap="butt" stroke-linejoin="miter" stroke-miterlimit="4" d="M 0 0v 20h 63.068v -20Z "/><g transform="matrix(1 0 0 -1 4 13.87)"><use xlink:href="#gA421F3DD5F2809E5ED8290B7EF6AAC43" x="0" y="0" fill="#4a7c59" fill-rule="nonzero"/><use xlink:href="#g482B6484D8169192ED302BC1FABC0EB8" x="6.048" y="0" fill="#4a7c59" fill-rule="nonzero"/><use xlink:href="#g966BE685B7523A33FA7C5091B1A7882" x="12.66" y="0" fill="#4a7c59" fill-rule="nonzero"/><use xlink:href="#gC76A03CC6B2F66C4058A56BA6A9EE20" x="16.56" y="0" fill="#4a7c59" fill-rule="nonzero"/><use xlink:href="#g3E13159425B4C5FA6BE9D46173183F7B" x="23.736" y="0" fill="#4a7c59" fill-rule="nonzero"/><use xlink:href="#g1094D23D321B642DA133CC49B1BA1EB9" x="28.032" y="0" fill="#4a7c59" fill-rule="nonzero"/><use xlink:href="#g482B6484D8169192ED302BC1FABC0EB8" x="31.896" y="0" fill="#4a7c59" fill-rule="nonzero"/><use xlink:href="#g3C2E9715FB9D690A986B8F0D57F3007C" x="38.508" y="0" fill="#4a7c59" fill-rule="nonzero"/><use xlink:href="#gFCFAD84E8A4521C99D93A9F0049D8745" x="48.9" y="0" fill="#4a7c59" fill-rule="nonzero"/></g></g></g><g transform="translate(110.352)"><g transform="matrix(1 0 0 -1 0 10.513)"><use xlink:href="#g7FDD4349A49914F62F30F23AE9794251" x="0" y="0" fill="#000000" fill-rule="nonzero"/></g><g transform="matrix(1 0 0 -1 9.347555556 10.513)"><use xlink:href="#g2389F7618E8CE27CC7151A1D8E5DEAD4" x="0" y="0" fill="#000000" fill-rule="nonzero"/></g><g transform="matrix(1 0 0 -1 20.961111111 10.513)"><use xlink:href="#gAE482DA578200FA3765B7A490E273D69" x="0" y="0" fill="#000000" fill-rule="nonzero"/></g></g></g><g transform="translate(28.346456693 220.719456693)"><g transform="translate(41.284)"><g><path fill="#e4ebe6" fill-rule="nonzero" stroke="#4a7c59" stroke-width="0.8" stroke-linecap="butt" stroke-linejoin="miter" stroke-miterlimit="4" d="M 0 0v 20h 63.068v -20Z "/><g transform="matrix(1 0 0 -1 4 13.87)"><use xlink:href="#gA421F3DD5F2809E5ED8290B7EF6AAC43" x="0" y="0" fill="#4a7c59" fill-rule="nonzero"/><use xlink:href="#g482B6484D8169192ED302BC1FABC0EB8" x="6.048" y="0" fill="#4a7c59" fill-rule="nonzero"/><use xlink:href="#g966BE685B7523A33FA7C5091B1A7882" x="12.66" y="0" fill="#4a7c59" fill-rule="nonzero"/><use xlink:href="#gC76A03CC6B2F66C4058A56BA6A9EE20" x="16.56" y="0" fill="#4a7c59" fill-rule="nonzero"/><use xlink:href="#g3E13159425B4C5FA6BE9D46173183F7B" x="23.736" y="0" fill="#4a7c59" fill-rule="nonzero"/><use xlink:href="#g1094D23D321B642DA133CC49B1BA1EB9" x="28.032" y="0" fill="#4a7c59" fill-rule="nonzero"/><use xlink:href="#g482B6484D8169192ED302BC1FABC0EB8" x="31.896" y="0" fill="#4a7c59" fill-rule="nonzero"/><use xlink:href="#g3C2E9715FB9D690A986B8F0D57F3007C" x="38.508" y="0" fill="#4a7c59" fill-rule="nonzero"/><use xlink:href="#g6A6B3E3381055DAC4DAE42A1F0D08F9F" x="48.9" y="0" fill="#4a7c59" fill-rule="nonzero"/></g></g></g><g transform="translate(110.352)"><g transform="matrix(1 0 0 -1 0 10.513)"><use xlink:href="#g7FDD4349A49914F62F30F23AE9794251" x="0" y="0" fill="#000000" fill-rule="nonzero"/></g><g transform="matrix(1 0 0 -1 9.347555556 10.513)"><use xlink:href="#g2389F7618E8CE27CC7151A1D8E5DEAD4" x="0" y="0" fill="#000000" fill-rule="nonzero"/></g><g transform="matrix(1 0 0 -1 20.961111111 10.513)"><use xlink:href="#g9C89A10A1924241F7D0F85246D865902" x="0" y="0" fill="#000000" fill-rule="nonzero"/></g><g transform="matrix(1 0 0 -1 29.519111111 10.513)"><use xlink:href="#g93E2B88EAD8DFDF0BE4D6467DB923DB5" x="0" y="0" fill="#000000" fill-rule="nonzero"/></g></g></g><g transform="translate(28.346456693 249.519456693)"><g transform="translate(41.284)"><g><path fill="#e4ebe6" fill-rule="nonzero" stroke="#4a7c59" stroke-width="0.8" stroke-linecap="butt" stroke-linejoin="miter" stroke-miterlimit="4" d="M 0 0v 20h 63.068v -20Z "/><g transform="matrix(1 0 0 -1 4 13.87)"><use xlink:href="#gA421F3DD5F2809E5ED8290B7EF6AAC43" x="0" y="0" fill="#4a7c59" fill-rule="nonzero"/><use xlink:href="#g482B6484D8169192ED302BC1FABC0EB8" x="6.048" y="0" fill="#4a7c59" fill-rule="nonzero"/><use xlink:href="#g966BE685B7523A33FA7C5091B1A7882" x="12.66" y="0" fill="#4a7c59" fill-rule="nonzero"/><use xlink:href="#gC76A03CC6B2F66C4058A56BA6A9EE20" x="16.56" y="0" fill="#4a7c59" fill-rule="nonzero"/><use xlink:href="#g3E13159425B4C5FA6BE9D46173183F7B" x="23.736" y="0" fill="#4a7c59" fill-rule="nonzero"/><use xlink:href="#g1094D23D321B642DA133CC49B1BA1EB9" x="28.032" y="0" fill="#4a7c59" fill-rule="nonzero"/><use xlink:href="#g482B6484D8169192ED302BC1FABC0EB8" x="31.896" y="0" fill="#4a7c59" fill-rule="nonzero"/><use xlink:href="#g3C2E9715FB9D690A986B8F0D57F3007C" x="38.508" y="0" fill="#4a7c59" fill-rule="nonzero"/><use xlink:href="#g1C3263E1691946900500B192D1A294F" x="48.9" y="0" fill="#4a7c59" fill-rule="nonzero"/></g></g></g><g transform="translate(110.352)"><g transform="matrix(1 0 0 -1 0 10.513)"><use xlink:href="#g7FDD4349A49914F62F30F23AE9794251" x="0" y="0" fill="#000000" fill-rule="nonzero"/></g><g transform="matrix(1 0 0 -1 9.347555556 10.513)"><use xlink:href="#gFBE830B250F5B796B1177EED60278387" x="0" y="0" fill="#000000" fill-rule="nonzero"/></g><g transform="matrix(1 0 0 -1 20.961111111 10.513)"><use xlink:href="#g847DCE2A3EE7D23E3D551BDE0EE8A683" x="0" y="0" fill="#000000" fill-rule="nonzero"/></g></g></g><defs><symbol id="gC3053F328DAA0F724D7A9356AFEE7614" overflow="visible"><path d="M 0 0m 2.541 1.2166l 0.8162 2.1406c 0.077 0.2002 0.1694 0.2618 0.539 0.2618h 2.926l 0.8624 -2.5102c 0.1848 -0.5544 -0.2618 -0.5698 -0.847 -0.6006c -0.0924 0 -0.2002 -0.0154 -0.2926 -0.0154c -0.0924 -0.0924 -0.0924 -0.4312 0 -0.5236c 0.5698 0.0154 2.0328 0.0308 2.6334 0.0308c 0.6314 0 1.4938 -0.0154 2.0636 -0.0308c 0.0924 0.0924 0.0924 0.4312 0 0.5236c -0.6006 0.0616 -1.1088 0.0462 -1.386 0.8316l -3.1724 8.8088c -0.231 -0.1386 -1.155 -0.6776 -1.694 -0.6776l -3.3418 -7.8848c -0.4004 -0.9548 -0.8624 -1.0318 -1.54 -1.078c -0.0924 -0.0924 -0.0924 -0.4312 0 -0.5236c 0.5698 0.0154 0.847 0.0308 1.4476 0.0308c 0.6314 0 1.4784 -0.0154 2.0482 -0.0308c 0.0924 0.0924 0.0924 0.4312 0 0.5236c -0.5852 0.0462 -1.309 0.0924 -1.0626 0.7238Z m 1.6632 3.1416c -0.3388 0 -0.4466 0.0462 -0.385 0.2002l 1.3552 3.4496h 0.1078l 1.2628 -3.6498Z "/></symbol><symbol id="g7CA22C0642473A6CB966598435F522A7" overflow="visible"><path d="M 0 0m 1.54 1.9558c 0 -1.2782 -0.2464 -1.4168 -1.1858 -1.463c -0.0924 -0.0924 -0.0924 -0.4312 0 -0.5236c 0.6468 0.0154 1.3398 0.0308 2.1868 0.0308c 0.847 0 1.5246 -0.0154 2.1868 -0.0308c 0.0924 0.0924 0.0924 0.4312 0 0.5236c -0.9394 0.0462 -1.1858 0.1848 -1.1858 1.463v 7.0224c 0 1.001 0.0462 1.5708 0.0462 1.5708c 0 0.1386 -0.1078 0.2002 -0.2464 0.2002c -0.5698 -0.1848 -1.8018 -0.3542 -2.8952 -0.4004c -0.0462 -0.1848 -0.0308 -0.3542 0.0462 -0.4928c 0.9702 -0.077 1.0472 -0.0924 1.0472 -1.155Z "/></symbol><symbol id="g6BF150871DDC0E2AB2AF6040C4911869" overflow="visible"><path d="M 0 0m 7.1918 6.0676c 0.4312 0 0.6776 0.1848 0.6776 0.7546c 0 0.2926 -0.4004 0.7392 -0.9856 0.7392c -0.6776 0 -1.5708 -0.5082 -2.0174 -0.9086c -0.2772 0.154 -0.6006 0.1848 -1.2936 0.1848c -0.6622 0 -1.309 -0.154 -1.8172 -0.4928c -0.6314 -0.4004 -1.0472 -1.001 -1.0472 -1.7864c 0 -0.7546 0.4466 -1.5708 1.1858 -1.9712c -0.4774 -0.4158 -1.2166 -1.232 -1.2166 -1.54c 0 -0.2926 0.0462 -0.4774 0.2002 -0.7084c 0.1386 -0.2156 0.3234 -0.3388 0.6314 -0.4312c -0.6622 -0.4004 -1.3398 -1.2782 -1.3398 -1.54c 0 -0.5698 0.1848 -1.232 0.6006 -1.5246c 0.6006 -0.4158 1.617 -0.5082 2.3562 -0.5082c 2.1406 0 4.5892 1.1242 4.5892 2.8182c 0 0.3234 -0.154 0.9856 -0.77 1.4014c -0.6006 0.4004 -2.9106 0.5082 -4.0502 0.5082c -0.2772 0 -0.693 0.0308 -0.693 0.6468c 0 0.2464 0.154 0.462 0.231 0.6468c 0.3234 -0.154 0.6468 -0.1694 1.1242 -0.1694c 0.7854 0 1.5092 0.2002 2.0328 0.6622c 0.4466 0.4004 0.7546 0.9394 0.7546 1.6324c 0 0.8624 -0.4312 1.4322 -0.9548 1.8634c 0.1232 0.154 0.6314 0.4312 0.7854 0.4312c 0.1386 0 0.2464 -0.0924 0.2926 -0.1848c 0.0616 -0.2002 0.3388 -0.5236 0.7238 -0.5236Z m -4.4968 -6.4526c 1.1858 0 3.465 -0.0462 3.465 -0.8624c 0 -0.5544 -0.2464 -1.1858 -0.7546 -1.463c -0.4774 -0.2772 -1.2628 -0.308 -1.848 -0.308c -1.0164 0 -1.7094 0.7546 -1.7094 1.54c 0 0.5236 0 0.8778 0.1694 1.1858c 0.154 -0.0616 0.3542 -0.0924 0.6776 -0.0924Z m 1.771 4.8202c 0 -1.4784 -0.4312 -1.6632 -0.8316 -1.6632c -0.9548 0 -1.078 1.1396 -1.078 1.925c 0 1.1396 0.2772 1.5554 0.8778 1.5554c 0.7238 0 1.0318 -0.6006 1.0318 -1.8172Z "/></symbol><symbol id="g8D87BB1E6931CE5DBAF4138A3DE9A54D" overflow="visible"><path d="M 0 0m 6.6374 1.9866c -0.6314 -0.6468 -1.463 -0.8162 -2.0482 -0.8162c -1.2012 0 -1.9404 0.693 -1.9404 2.2022c 0 0.1078 0.0154 0.1694 0.0154 0.2464h 3.696c 0.3696 0 0.4466 0.2618 0.4466 0.4774c 0 1.309 -0.5082 2.7412 -2.772 2.7412c -1.617 0 -3.465 -1.4322 -3.465 -3.7884c 0 -0.8932 0.3234 -1.8326 0.9856 -2.4332c 0.5852 -0.5236 1.3398 -0.77 2.4332 -0.77c 1.0626 0 2.1098 0.539 2.8798 1.6632c 0 0.2002 -0.077 0.4774 -0.231 0.4774Z m -3.9116 2.2484c 0.0154 0.539 0.0924 1.1242 0.308 1.4322c 0.2464 0.3696 0.6622 0.5236 0.8316 0.5236c 0.4158 0 0.9856 -0.4004 0.9856 -1.6324c 0 -0.0924 0 -0.2926 -0.0308 -0.3234Z "/></symbol><symbol id="g4492AAC0B469CF9A7B5B7C9435971E63" overflow="visible"><path d="M 0 0m 1.1396 1.9558c 0 -1.2782 -0.0308 -1.463 -0.0924 -2.0482c 0.1848 -0.0616 0.3542 -0.1078 0.5236 -0.1078c 0.2002 0.1694 0.3542 0.385 0.4928 0.6622c 0.6006 -0.462 1.54 -0.616 2.2484 -0.616c 1.7094 0 3.5112 1.694 3.5112 3.8962c 0 0.8778 -0.3388 1.7402 -0.8316 2.31c -0.5544 0.6314 -1.2936 0.7854 -2.1098 0.7854c -0.4774 0 -1.2936 -0.539 -1.7402 -0.8624v 3.003c 0 1.001 0.0462 1.5708 0.0462 1.5708c 0 0.1386 -0.1078 0.2002 -0.2464 0.2002c -0.5698 -0.1848 -1.8018 -0.3542 -2.8952 -0.4004c -0.0462 -0.1848 -0.0308 -0.3542 0.0462 -0.4928c 0.9702 -0.077 1.0472 -0.0924 1.0472 -1.155Z m 2.002 3.4034c 0.5082 0.3388 0.847 0.385 1.2012 0.385c 0.7546 0 1.3244 -0.693 1.3244 -2.2022c 0 -1.2628 -0.2156 -3.0492 -1.4322 -3.0492c -0.4466 0 -0.8008 0.1848 -1.0934 0.539Z "/></symbol><symbol id="gC0EBBBD6F3DBCA85D31CDC275B71A469" overflow="visible"><path d="M 0 0m 3.5112 4.1272c 0 0.5544 0.1694 0.7854 0.3696 1.0164c 0.1232 0.154 0.2618 0.2618 0.4928 0.2618c 0.1386 0 0.308 -0.1386 0.4312 -0.2926c 0.1078 -0.1232 0.3696 -0.2464 0.7238 -0.2464c 0.4466 0 0.8778 0.462 0.8778 1.1088c 0 0.4004 -0.462 0.8624 -1.0164 0.8624c -0.539 0 -1.1242 -0.462 -1.8326 -1.4784h -0.0616c -0.0308 0.462 -0.1078 1.2166 -0.1078 1.2166c -0.0154 0.1386 -0.1386 0.2618 -0.3542 0.2618c -0.7238 -0.1848 -1.54 -0.4004 -2.5564 -0.5082c -0.0308 -0.0924 0 -0.385 0.0308 -0.4774c 0.847 -0.077 1.001 -0.2156 1.001 -1.0934v -2.8798c 0 -1.2782 -0.1694 -1.309 -1.1088 -1.386c -0.0924 -0.0924 -0.0924 -0.4312 0 -0.5236c 0.6468 0.0154 1.2936 0.0308 2.1098 0.0308c 0.8162 0 1.4476 -0.0154 2.1098 -0.0308c 0.0924 0.0924 0.0924 0.4312 0 0.5236c -0.9394 0.0616 -1.1088 0.1078 -1.1088 1.386Z "/></symbol><symbol id="g6476F0F7E4418F1157BCC40DDC3BB78C" overflow="visible"><path d="M 0 0m 4.543 0.7546c 0.1078 -0.6314 0.5236 -0.9086 1.2012 -0.9086c 0.847 0 1.4476 0.3234 2.0174 0.8624c -0.0308 0.1848 -0.0924 0.308 -0.2772 0.4312c -0.2002 -0.154 -0.3542 -0.2156 -0.6468 -0.2156c -0.3388 0 -0.4312 0.2772 -0.4312 1.0318l 0.0308 2.2176c 0 2.2176 -1.3706 2.6642 -2.6334 2.6642c -1.1242 0 -2.849 -0.6468 -2.849 -1.6632c 0 -0.4312 0.1848 -0.77 0.7854 -0.77c 0.5544 0 0.9548 0.3388 0.9548 0.7084c 0 0.077 -0.0154 0.1694 -0.0308 0.2618c -0.0308 0.154 -0.0616 0.308 -0.0308 0.462c 0.0154 0.1694 0.1386 0.3542 0.6468 0.3542c 0.6468 0 1.1858 -0.2772 1.1858 -2.233l -1.0318 -0.3234c -1.617 -0.5082 -2.7566 -0.9548 -2.7566 -2.1714c 0 -1.0626 0.5852 -1.617 1.925 -1.617c 0.4466 0 1.3398 0.4928 1.848 0.8932Z m -0.077 2.6026v -2.0328c -0.385 -0.308 -0.77 -0.5544 -1.0472 -0.5544c -0.6622 0 -0.8932 0.4466 -0.8932 0.924c 0 0.5698 0.0462 1.0472 1.1396 1.4014Z "/></symbol><symbol id="gDC4FA02C72DAC3171B68B3424ADEA2DD" overflow="visible"><path d="M 0 0m 6.4834 9.7174c -0.847 0.1232 -1.1704 0.4158 -2.6026 0.4158c -0.693 0 -1.6016 -0.2156 -2.2484 -0.7392c -0.5698 -0.462 -1.001 -1.1704 -1.001 -1.925c 0 -0.5852 0.154 -1.3244 0.5082 -1.7864c 0.7084 -0.9548 1.9866 -1.4784 2.6488 -1.9404c 0.7084 -0.4928 1.4014 -1.1088 1.4014 -1.9712c 0 -0.7546 -0.6622 -1.2782 -1.6016 -1.2782c -1.0318 0 -2.0944 0.847 -2.4024 2.2484c -0.2464 0.0924 -0.4928 0.0308 -0.7238 -0.0308c -0.0154 0 -0.0308 -0.0154 -0.0462 -0.0154c 0 -1.155 0.1232 -1.9712 0.2926 -2.541c 0.8778 0 0.924 -0.308 3.0492 -0.308c 0.9394 0 1.694 0.2772 2.3254 0.847c 0.5544 0.4774 1.0472 1.1858 1.0472 2.1406c 0 0.8008 -0.3388 1.3398 -0.8008 1.848c -0.6006 0.6622 -1.463 1.1396 -2.0636 1.4476c -0.616 0.308 -1.7094 1.1088 -1.7094 1.9866c 0 0.8624 0.5236 1.386 1.309 1.386c 1.309 0 1.7402 -1.1858 2.0174 -2.2022c 0.2156 -0.0616 0.6006 -0.0616 0.77 0.077c 0 0.8162 -0.0616 1.4476 -0.1694 2.3408Z "/></symbol><symbol id="g2234B4E8F53D34CD82162BC6EB922EF6" overflow="visible"><path d="M 0 0m 6.4988 1.3398c 0 0.1848 -0.0308 0.4774 -0.2002 0.4774c -0.616 -0.5698 -1.1396 -0.8624 -1.5862 -0.8624c -1.155 0 -2.0636 0.8316 -2.0636 2.6796c 0 1.7094 0.385 2.5564 1.2012 2.5564c 0.5698 0 0.8008 -0.6006 0.847 -1.0934c 0.0462 -0.4158 0.462 -0.7238 0.9548 -0.7238c 0.4928 0 0.847 0.385 0.847 0.8624c 0 0.693 -0.8316 1.6016 -2.5102 1.6016c -1.8172 0 -3.4188 -1.463 -3.4188 -3.7422c 0 -1.001 0.3542 -1.8788 0.9548 -2.4486c 0.6006 -0.5698 1.309 -0.8008 2.4024 -0.8008c 0.924 0 1.9866 0.6468 2.5718 1.4938Z "/></symbol><symbol id="g98D4ECD12BF7D91D0E78ABACB44D7A45" overflow="visible"><path d="M 0 0m 0.9702 6.6836c -0.2156 0 -0.4466 -0.0616 -0.6468 -0.231v -0.4466c 0 -0.077 0.0154 -0.0924 0.077 -0.0924h 1.001c -0.0308 -1.5554 -0.0462 -3.5266 -0.0462 -4.2966c 0 -0.539 0.1386 -1.0626 0.462 -1.3398c 0.3542 -0.2926 0.9086 -0.4312 1.2782 -0.4312c 0.847 0 1.7864 0.4312 2.0944 0.8624c 0 0.1848 -0.0924 0.2772 -0.2772 0.4312c -0.2002 -0.154 -0.5852 -0.2156 -0.8778 -0.2156c -0.3388 0 -0.6776 0.2618 -0.6776 1.0318c 0 0.77 -0.0154 2.4178 -0.0154 3.9578h 1.5554c 0.154 0 0.3696 0.0616 0.3696 0.2002v 0.4774c 0 0.0616 -0.0462 0.0924 -0.1232 0.0924h -1.8018l 0.0154 0.5236c 0.0308 1.0318 0.077 1.7402 0.077 1.7402c 0 0.0924 -0.0462 0.1386 -0.1232 0.1386c -0.1078 0 -0.6776 -0.1694 -0.924 -0.2772c -0.2618 -0.1078 -0.7084 -0.2002 -0.8162 -0.3388c -0.1078 -0.1386 -0.1694 -0.5544 -0.1694 -1.7864Z "/></symbol><symbol id="g637506313BAA6F72BE9B7E1619C4BE2A" overflow="visible"><path d="M 0 0m 3.5728 1.8788v 3.0646c 0 0.77 0.0616 1.6324 0.0616 1.6324c 0 0.1694 -0.1386 0.2618 -0.3542 0.2618c -0.4312 -0.1694 -1.6786 -0.2926 -2.7412 -0.4312c -0.0308 -0.0924 0 -0.4004 0.0308 -0.4928c 0.847 -0.077 1.001 -0.2002 1.001 -1.078v -2.9568c 0 -1.2782 -0.1694 -1.309 -1.1088 -1.386c -0.0924 -0.0924 -0.0924 -0.4312 0 -0.5236c 0.6468 0.0154 1.2936 0.0308 2.1098 0.0308c 0.8162 0 1.4476 -0.0154 2.1098 -0.0308c 0.0924 0.0924 0.0924 0.4312 0 0.5236c -0.9394 0.0616 -1.1088 0.1078 -1.1088 1.386Z m -2.079 7.2996c 0 -0.5082 0.3696 -1.0164 0.9856 -1.0164c 0.693 0 1.0934 0.5544 1.0934 0.9548c 0 0.462 -0.3542 1.0164 -1.001 1.0164c -0.7238 0 -1.078 -0.4928 -1.078 -0.9548Z "/></symbol><symbol id="g4B69FD55F5BDE07B3D48E30329FBF6E0" overflow="visible"><path d="M 0 0m 0.5698 3.1878c 0 -2.0174 1.6016 -3.3418 3.6652 -3.3418c 1.0934 0 2.002 0.308 2.6334 0.8778c 0.7854 0.693 1.0472 1.7402 1.0472 2.6026c 0 2.0174 -1.3706 3.5112 -3.6652 3.5112c -1.2782 0 -2.233 -0.4466 -2.8336 -1.1396c -0.5852 -0.6776 -0.847 -1.6016 -0.847 -2.5102Z m 3.4342 3.003c 1.0472 0 1.7556 -1.2474 1.7556 -3.3572c 0 -1.848 -0.7238 -2.3408 -1.2782 -2.3408c -1.2628 0 -1.7556 1.8942 -1.7556 3.0338c 0 1.4168 0.2464 2.6642 1.2782 2.6642Z "/></symbol><symbol id="g4FEFAF4942145E28B4DD233C130B45D2" overflow="visible"><path d="M 0 0m 3.5112 1.8788v 3.0954c 0.616 0.4158 1.232 0.7238 1.5092 0.7238c 0.616 0 1.078 -0.2772 1.078 -1.155v -2.5718c 0 -1.2936 -0.2464 -1.4322 -0.8778 -1.4784c -0.0924 -0.0924 -0.0924 -0.4312 0 -0.5236c 0.6468 0.0154 1.1396 0.0308 1.8788 0.0308c 0.847 0 1.5246 -0.0154 2.1868 -0.0308c 0.0924 0.0924 0.0924 0.4312 0 0.5236c -0.9394 0.0462 -1.1858 0.1848 -1.1858 1.4784v 2.4024c 0 1.694 -0.7238 2.464 -2.0482 2.464c -0.616 0 -1.7094 -0.6776 -2.5564 -1.2628c -0.0462 0.539 -0.1078 1.001 -0.1078 1.001c -0.0154 0.1848 -0.1386 0.2618 -0.3542 0.2618c -0.5698 -0.154 -1.4938 -0.3696 -2.5564 -0.5082c -0.0308 -0.0924 0 -0.4004 0.0308 -0.4928c 0.847 -0.077 1.001 -0.2002 1.001 -1.078v -2.8798c 0 -1.2782 -0.1694 -1.309 -1.1088 -1.386c -0.0924 -0.0924 -0.0924 -0.4312 0 -0.5236c 0.6468 0.0154 1.2936 0.0308 2.1098 0.0308c 0.7084 0 1.1396 -0.0154 1.8018 -0.0308c 0.0924 0.0924 0.0924 0.4312 0 0.5236c -0.6468 0.0616 -0.8008 0.1078 -0.8008 1.386Z "/></symbol><symbol id="g71810B677EEE634316EAB71F2F5BD9A8" overflow="visible"><path d="M 0 0m 3.876 4.38h -0.972v 2.268c 0 0.288 0.204 0.588 0.492 0.588h 1.02c 0.9 0 1.152 -0.456 1.416 -1.284c 0.144 -0.024 0.396 0 0.516 0.06c -0.06 0.492 -0.12 1.644 -0.144 1.74c 0 0.024 -0.012 0.036 -0.048 0.036c -0.204 -0.036 -0.3 -0.048 -0.588 -0.048h -3.54c 0 0 -1.248 0.012 -1.848 0.024c -0.072 -0.072 -0.072 -0.336 0 -0.408c 0.84 -0.036 1.044 -0.096 1.044 -1.092v -4.8c 0 -0.996 -0.204 -1.044 -1.044 -1.08c -0.072 -0.072 -0.072 -0.336 0 -0.408c 0.588 0.012 1.86 0.024 1.86 0.024h 2.82c 0.576 0 1.656 -0.024 1.656 -0.024c 0.168 0.6 0.228 1.392 0.324 2.004c -0.12 0.072 -0.384 0.096 -0.54 0.06c -0.24 -0.864 -0.78 -1.536 -1.692 -1.536h -1.212c -0.264 0 -0.492 0.252 -0.492 0.576v 2.748h 0.972c 0.828 0 1.056 -0.228 1.092 -0.768c 0.072 -0.072 0.444 -0.072 0.516 0c -0.012 0.42 -0.024 0.648 -0.024 1.056c 0 0.408 0.012 0.672 0.024 1.032c -0.072 0.072 -0.444 0.072 -0.516 0c -0.036 -0.66 -0.288 -0.768 -1.092 -0.768Z "/></symbol><symbol id="g898F8D390A5BE9CA3FA6421EA60BDB40" overflow="visible"><path d="M 0 0m 2.196 0.876l 0.744 1.044c 0.048 0.06 0.084 0.096 0.12 0.036l 0.576 -1.092c 0.204 -0.384 0.084 -0.42 -0.336 -0.48c -0.072 -0.072 -0.072 -0.336 0 -0.408c 0.24 0.012 0.996 0.024 1.632 0.024c 0.624 0 1.368 -0.012 1.608 -0.024c 0.072 0.072 0.072 0.336 0 0.408c -0.444 0.072 -0.852 0.228 -1.236 0.804l -1.056 1.572c -0.06 0.096 -0.06 0.132 -0.024 0.18l 1.068 1.296c 0.336 0.408 0.768 0.552 1.14 0.588c 0.072 0.072 0.072 0.336 0 0.408c -0.24 -0.012 -0.612 -0.024 -1.008 -0.024c -0.468 0 -0.96 0.012 -1.2 0.024c -0.072 -0.072 -0.072 -0.336 0 -0.408c 0.432 -0.036 0.528 -0.168 0.288 -0.516l -0.648 -0.924c -0.036 -0.06 -0.096 -0.06 -0.144 0.024l -0.54 0.912c -0.252 0.432 -0.096 0.456 0.36 0.504c 0.072 0.072 0.072 0.336 0 0.408c -0.24 -0.012 -1.02 -0.024 -1.68 -0.024c -0.588 0 -1.272 0.012 -1.512 0.024c -0.072 -0.072 -0.072 -0.336 0 -0.408c 0.54 0 0.78 -0.324 1.116 -0.804l 1.068 -1.524c 0.036 -0.048 0.036 -0.096 -0.036 -0.18l -1.104 -1.368c -0.3 -0.384 -0.828 -0.516 -1.188 -0.564c -0.072 -0.072 -0.072 -0.336 0 -0.408c 0.24 0.012 0.612 0.024 0.996 0.024c 0.516 0 1.08 -0.012 1.32 -0.024c 0.072 0.072 0.072 0.336 0 0.408c -0.216 0.048 -0.588 0.12 -0.324 0.492Z "/></symbol><symbol id="gE18113BE1243CA6EC5596891CC422939" overflow="visible"><path d="M 0 0m 5.172 1.548c -0.492 -0.504 -1.14 -0.636 -1.596 -0.636c -0.936 0 -1.512 0.54 -1.512 1.716c 0 0.084 0.012 0.132 0.012 0.192h 2.88c 0.288 0 0.348 0.204 0.348 0.372c 0 1.02 -0.396 2.136 -2.16 2.136c -1.26 0 -2.7 -1.116 -2.7 -2.952c 0 -0.696 0.252 -1.428 0.768 -1.896c 0.456 -0.408 1.044 -0.6 1.896 -0.6c 0.828 0 1.644 0.42 2.244 1.296c 0 0.156 -0.06 0.372 -0.18 0.372Z m -3.048 1.752c 0.012 0.42 0.072 0.876 0.24 1.116c 0.192 0.288 0.516 0.408 0.648 0.408c 0.324 0 0.768 -0.312 0.768 -1.272c 0 -0.072 0 -0.228 -0.024 -0.252Z "/></symbol><symbol id="g56D9AC69DF1E60AEC4FA898FA388366B" overflow="visible"><path d="M 0 0m 2.736 3.216c 0 0.432 0.132 0.612 0.288 0.792c 0.096 0.12 0.204 0.204 0.384 0.204c 0.108 0 0.24 -0.108 0.336 -0.228c 0.084 -0.096 0.288 -0.192 0.564 -0.192c 0.348 0 0.684 0.36 0.684 0.864c 0 0.312 -0.36 0.672 -0.792 0.672c -0.42 0 -0.876 -0.36 -1.428 -1.152h -0.048c -0.024 0.36 -0.084 0.948 -0.084 0.948c -0.012 0.108 -0.108 0.204 -0.276 0.204c -0.564 -0.144 -1.2 -0.312 -1.992 -0.396c -0.024 -0.072 0 -0.3 0.024 -0.372c 0.66 -0.06 0.78 -0.168 0.78 -0.852v -2.244c 0 -0.996 -0.132 -1.02 -0.864 -1.08c -0.072 -0.072 -0.072 -0.336 0 -0.408c 0.504 0.012 1.008 0.024 1.644 0.024c 0.636 0 1.128 -0.012 1.644 -0.024c 0.072 0.072 0.072 0.336 0 0.408c -0.732 0.048 -0.864 0.084 -0.864 1.08Z "/></symbol><symbol id="gEF03CC905B39DF2CE13E9EED9CECE9CC" overflow="visible"><path d="M 0 0m 5.064 1.044c 0 0.144 -0.024 0.372 -0.156 0.372c -0.48 -0.444 -0.888 -0.672 -1.236 -0.672c -0.9 0 -1.608 0.648 -1.608 2.088c 0 1.332 0.3 1.992 0.936 1.992c 0.444 0 0.624 -0.468 0.66 -0.852c 0.036 -0.324 0.36 -0.564 0.744 -0.564c 0.384 0 0.66 0.3 0.66 0.672c 0 0.54 -0.648 1.248 -1.956 1.248c -1.416 0 -2.664 -1.14 -2.664 -2.916c 0 -0.78 0.276 -1.464 0.744 -1.908c 0.468 -0.444 1.02 -0.624 1.872 -0.624c 0.72 0 1.548 0.504 2.004 1.164Z "/></symbol><symbol id="g1094D23D321B642DA133CC49B1BA1EB9" overflow="visible"><path d="M 0 0m 2.784 1.464v 2.388c 0 0.6 0.048 1.272 0.048 1.272c 0 0.132 -0.108 0.204 -0.276 0.204c -0.336 -0.132 -1.308 -0.228 -2.136 -0.336c -0.024 -0.072 0 -0.312 0.024 -0.384c 0.66 -0.06 0.78 -0.156 0.78 -0.84v -2.304c 0 -0.996 -0.132 -1.02 -0.864 -1.08c -0.072 -0.072 -0.072 -0.336 0 -0.408c 0.504 0.012 1.008 0.024 1.644 0.024c 0.636 0 1.128 -0.012 1.644 -0.024c 0.072 0.072 0.072 0.336 0 0.408c -0.732 0.048 -0.864 0.084 -0.864 1.08Z m -1.62 5.688c 0 -0.396 0.288 -0.792 0.768 -0.792c 0.54 0 0.852 0.432 0.852 0.744c 0 0.36 -0.276 0.792 -0.78 0.792c -0.564 0 -0.84 -0.384 -0.84 -0.744Z "/></symbol><symbol id="g93ED4154508DB3ADD21415419B103611" overflow="visible"><path d="M 0 0m 0.576 1.752c 0.048 -0.588 0.108 -1.152 0.204 -1.608c 0.228 -0.072 0.996 -0.264 1.668 -0.264c 0.924 0 2.076 0.504 2.076 1.548c 0 0.408 -0.096 0.732 -0.372 1.032c -0.336 0.384 -0.84 0.684 -1.392 0.924c -0.48 0.204 -0.648 0.588 -0.648 0.936c 0 0.276 0.228 0.504 0.576 0.504c 0.42 0 0.828 -0.384 1.128 -1.116c 0.216 -0.036 0.348 -0.024 0.468 0.06c 0 0.432 -0.048 0.888 -0.156 1.272c -0.384 0.168 -0.684 0.288 -1.344 0.288c -0.636 0 -1.236 -0.24 -1.62 -0.624c -0.276 -0.276 -0.408 -0.612 -0.408 -0.936c 0 -0.36 0.144 -0.648 0.372 -0.9c 0.372 -0.408 1.032 -0.828 1.392 -0.996c 0.48 -0.216 0.612 -0.648 0.612 -0.936c 0 -0.384 -0.384 -0.588 -0.708 -0.588c -0.54 0 -1.116 0.552 -1.368 1.428c -0.192 0.036 -0.288 0.024 -0.48 -0.024Z "/></symbol><symbol id="gFCFAD84E8A4521C99D93A9F0049D8745" overflow="visible"><path d="M 0 0m 4.404 1.464v 4.332c 0 0.636 0.096 1.32 0.096 1.32c 0 0.156 -0.096 0.204 -0.204 0.204c -0.12 0 -0.324 -0.048 -0.6 -0.18c -0.732 -0.336 -1.548 -0.624 -2.592 -1.056c 0.012 -0.204 0.096 -0.396 0.264 -0.516c 0.648 0.276 1.08 0.3 1.248 0.3c 0.156 0 0.228 -0.048 0.228 -0.648v -3.756c 0 -0.996 -0.576 -1.044 -1.236 -1.08c -0.12 -0.072 -0.12 -0.336 0 -0.408c 0.984 0.012 1.548 0.024 2.028 0.024c 0.48 0 1.02 -0.012 2.004 -0.024c 0.12 0.072 0.12 0.336 0 0.408c -0.66 0.036 -1.236 0.084 -1.236 1.08Z "/></symbol><symbol id="gD355BF4F81D64465081A1B40E1986DB4" overflow="visible"><path d="M 0 0m 4.345 6.941c -0.638 0.088 -0.616 0.297 -1.694 0.297c -1.111 0 -2.09 -0.737 -2.09 -1.903c 0 -1.155 0.957 -1.683 1.925 -2.057c 0.66 -0.253 1.474 -0.561 1.474 -1.639c 0 -0.891 -0.495 -1.353 -1.375 -1.353c -1.023 0 -1.683 0.473 -1.925 1.562c -0.143 0.044 -0.253 0.022 -0.363 -0.033c 0.044 -0.847 0.088 -1.133 0.22 -1.672c 0.693 0 1.001 -0.253 1.98 -0.253c 0.495 0 0.968 0.121 1.353 0.363c 0.638 0.396 1.034 1.067 1.034 1.771c 0 1.166 -0.88 1.683 -1.782 2.024c -0.66 0.242 -1.76 0.66 -1.76 1.584c 0 0.616 0.561 1.232 1.21 1.232c 1.067 0 1.408 -0.682 1.628 -1.408c 0.121 -0.022 0.264 -0.011 0.363 0.066c -0.044 0.528 -0.088 0.836 -0.198 1.419Z "/></symbol><symbol id="g5E76F8DBE7C3C7A9A461E8EC1D70F6FB" overflow="visible"><path d="M 0 0m 0.451 2.255c 0 -1.122 0.748 -2.365 2.31 -2.365c 0.704 0 1.243 0.253 1.617 0.616c 0.495 0.484 0.715 1.177 0.715 1.848c 0 1.144 -0.627 2.475 -2.31 2.475c -0.726 0 -1.32 -0.297 -1.727 -0.77c -0.396 -0.473 -0.605 -1.111 -0.605 -1.804Z m 2.167 2.189c 0.946 0 1.529 -0.858 1.529 -2.442c 0 -1.386 -0.715 -1.727 -1.232 -1.727c -1.144 0 -1.518 1.386 -1.518 2.233c 0 0.957 0.231 1.936 1.221 1.936Z "/></symbol><symbol id="g36F90904A4043C6A677E73471A30013F" overflow="visible"><path d="M 0 0m 1.045 1.342c 0 -0.913 -0.121 -0.968 -0.792 -1.001c -0.066 -0.066 -0.066 -0.297 0 -0.363c 0.385 0.011 0.792 0.022 1.232 0.022c 0.44 0 0.858 -0.011 1.221 -0.022c 0.066 0.066 0.066 0.297 0 0.363c -0.671 0.033 -0.792 0.088 -0.792 1.001v 5.071c 0 0.715 0.044 1.155 0.044 1.155c 0 0.077 -0.044 0.11 -0.143 0.11c -0.275 -0.11 -1.1 -0.264 -1.54 -0.297c -0.022 -0.088 0 -0.264 0.066 -0.33c 0.638 -0.044 0.704 -0.077 0.704 -0.902Z "/></symbol><symbol id="g1E471D2E98C4E85A3CE47F56E86025C4" overflow="visible"><path d="M 0 0m 3.575 4.378c 0.594 -0.044 0.66 -0.176 0.429 -0.737l -0.891 -2.156c -0.176 -0.429 -0.231 -0.429 -0.407 0.033l -0.792 2.123c -0.198 0.528 -0.242 0.66 0.341 0.737c 0.066 0.066 0.066 0.297 0 0.363c -0.363 -0.011 -0.748 -0.022 -1.111 -0.022c -0.363 0 -0.693 0.011 -1.023 0.022c -0.066 -0.066 -0.066 -0.297 0 -0.363c 0.583 -0.066 0.66 -0.242 0.88 -0.803l 1.408 -3.476c 0.066 -0.165 0.132 -0.231 0.275 -0.231c 0.11 0 0.187 0.066 0.264 0.253l 1.463 3.443c 0.209 0.484 0.33 0.759 0.946 0.814c 0.066 0.066 0.066 0.297 0 0.363c -0.22 -0.011 -0.484 -0.022 -0.77 -0.022c -0.363 0 -0.737 0.011 -1.012 0.022c -0.066 -0.066 -0.066 -0.297 0 -0.363Z "/></symbol><symbol id="gBFE09989B12480F1B7796D69E0D7287C" overflow="visible"><path d="M 0 0m 4.246 1.023c -0.407 -0.418 -0.726 -0.594 -1.364 -0.594c -0.396 0 -0.858 0.231 -1.199 0.792c -0.22 0.363 -0.352 0.869 -0.352 1.507l 2.926 -0.022c 0.132 0 0.209 0.066 0.209 0.187c 0 0.924 -0.33 1.914 -1.859 1.914c -0.957 0 -2.2 -0.913 -2.2 -2.585c 0 -0.616 0.154 -1.21 0.517 -1.628c 0.374 -0.44 0.891 -0.704 1.683 -0.704c 0.836 0 1.43 0.385 1.87 0.957c -0.033 0.11 -0.099 0.165 -0.231 0.176Z m -2.882 2.079c 0.209 1.243 0.979 1.342 1.243 1.342c 0.418 0 0.913 -0.231 0.913 -1.155c 0 -0.099 -0.044 -0.154 -0.165 -0.154Z "/></symbol><symbol id="g847DCE2A3EE7D23E3D551BDE0EE8A683" overflow="visible"><path d="M 0 0m 2.607 7.326c -0.561 0 -1.034 -0.198 -1.441 -0.594c -0.407 -0.396 -0.616 -0.858 -0.616 -1.419c 0 -0.374 0.275 -0.649 0.616 -0.649c 0.33 0 0.605 0.286 0.605 0.616c 0 0.363 -0.264 0.616 -0.616 0.616c -0.033 0 -0.055 0 -0.077 -0.011c 0.209 0.539 0.693 1.012 1.386 1.012c 0.902 0 1.408 -0.781 1.408 -1.727c 0 -0.737 -0.374 -1.529 -1.122 -2.365l -2.068 -2.332c -0.143 -0.165 -0.132 -0.154 -0.132 -0.473h 4.081l 0.319 1.98h -0.363c -0.088 -0.561 -0.165 -0.88 -0.231 -0.979c -0.055 -0.055 -0.385 -0.077 -0.99 -0.077h -1.837l 1.067 1.045c 0.748 0.704 1.694 1.463 2.013 2.046c 0.22 0.385 0.33 0.77 0.33 1.155c 0 1.298 -1.012 2.156 -2.332 2.156Z "/></symbol><symbol id="g7FDD4349A49914F62F30F23AE9794251" overflow="visible"><path d="M 0 0m 5.797 4.103c 0 0.506 -0.495 0.759 -1.045 0.759c -0.473 0 -0.847 -0.253 -1.133 -0.759c -0.231 0.506 -0.616 0.759 -1.177 0.759c -0.539 0 -0.979 -0.253 -1.331 -0.748c -0.297 -0.429 -0.451 -0.748 -0.451 -0.957c 0 -0.099 0.055 -0.154 0.165 -0.154c 0.099 0 0.165 0.055 0.187 0.154c 0.209 0.638 0.671 1.386 1.408 1.386c 0.363 0 0.539 -0.231 0.539 -0.682c 0 -0.231 -0.198 -1.089 -0.583 -2.563c -0.187 -0.737 -0.517 -1.1 -0.99 -1.1c -0.154 0 -0.297 0.033 -0.418 0.088c 0.286 0.11 0.429 0.308 0.429 0.594c 0 0.286 -0.143 0.429 -0.44 0.429c -0.363 0 -0.638 -0.308 -0.638 -0.671c 0 -0.506 0.517 -0.759 1.056 -0.759c 0.462 0 0.836 0.253 1.133 0.759c 0.209 -0.506 0.605 -0.759 1.177 -0.759c 0.528 0 0.968 0.253 1.32 0.748c 0.297 0.429 0.451 0.748 0.451 0.957c 0 0.099 -0.055 0.154 -0.165 0.154c -0.099 0 -0.154 -0.055 -0.187 -0.154c -0.187 -0.627 -0.682 -1.386 -1.397 -1.386c -0.363 0 -0.55 0.22 -0.55 0.671c 0 0.143 0.055 0.451 0.176 0.946l 0.374 1.485c 0.209 0.825 0.55 1.243 1.034 1.243c 0.154 0 0.297 -0.033 0.418 -0.088c -0.297 -0.099 -0.44 -0.297 -0.44 -0.594c 0 -0.286 0.154 -0.429 0.451 -0.429c 0.352 0 0.627 0.319 0.627 0.671Z "/></symbol><symbol id="gDDD45F8C02017DD13480202EA2B099EF" overflow="visible"><path d="M 0 0m 7.678 3.014h -3.135v 3.135c 0 0.176 -0.088 0.264 -0.264 0.264c -0.176 0 -0.264 -0.088 -0.264 -0.264v -3.135h -3.135c -0.176 0 -0.264 -0.088 -0.264 -0.264c 0 -0.176 0.088 -0.264 0.264 -0.264h 3.135v -3.135c 0 -0.176 0.088 -0.264 0.264 -0.264c 0.176 0 0.264 0.088 0.264 0.264v 3.135h 3.135c 0.176 0 0.264 0.088 0.264 0.264c 0 0.143 -0.121 0.264 -0.264 0.264Z "/></symbol><symbol id="g8894C0A608DBD285706C131FF554A2B1" overflow="visible"><path d="M 0 0m 1.298 3.465c 0.055 0 0.121 0.044 0.176 0.121c 0.33 0.495 0.781 0.737 1.353 0.737c 0.385 0 0.682 -0.22 0.88 -0.671c 0.121 -0.297 0.187 -0.748 0.187 -1.353c 0 -0.693 -0.088 -1.177 -0.253 -1.463c -0.275 -0.451 -0.649 -0.682 -1.122 -0.682c -0.737 0 -1.32 0.528 -1.518 1.1c 0.033 -0.011 0.055 0 0.099 0c 0.33 0 0.605 0.253 0.605 0.583c 0 0.341 -0.275 0.572 -0.605 0.572c -0.385 0 -0.55 -0.209 -0.55 -0.616c 0 -1.1 0.891 -2.035 1.991 -2.035c 0.671 0 1.243 0.242 1.705 0.726c 0.462 0.484 0.693 1.067 0.693 1.738c 0 0.638 -0.187 1.188 -0.561 1.661c -0.407 0.517 -0.913 0.77 -1.529 0.77c -0.517 0 -0.968 -0.165 -1.331 -0.495v 1.958c 0.297 -0.088 0.583 -0.132 0.88 -0.132c 0.506 0 0.946 0.121 1.32 0.374c 0.341 0.209 0.572 0.418 0.704 0.616c 0.066 0.088 0.099 0.154 0.099 0.187c 0 0.11 -0.055 0.165 -0.165 0.165c -0.605 -0.231 -1.122 -0.352 -1.54 -0.352c -0.495 0 -0.968 0.099 -1.419 0.308c -0.055 0.022 -0.099 0.033 -0.143 0.033c -0.099 0 -0.154 -0.099 -0.154 -0.308v -3.212c 0 -0.231 0 -0.33 0.198 -0.33Z "/></symbol><symbol id="g2389F7618E8CE27CC7151A1D8E5DEAD4" overflow="visible"><path d="M 0 0m 7.678 4.037h -6.798c -0.176 0 -0.264 -0.088 -0.264 -0.253c 0 -0.165 0.088 -0.253 0.264 -0.253h 6.798c 0.176 0 0.264 0.088 0.264 0.253c 0 0.132 -0.121 0.253 -0.264 0.253Z m 0 -2.068h -6.798c -0.176 0 -0.264 -0.088 -0.264 -0.253c 0 -0.165 0.088 -0.253 0.264 -0.253h 6.798c 0.176 0 0.264 0.088 0.264 0.253c 0 0.143 -0.121 0.253 -0.264 0.253Z "/></symbol><symbol id="g23FF2CB0A5B3999574DE734D483151BD" overflow="visible"><path d="M 0 0m 2.959 7.326c -0.451 -0.462 -1.111 -0.693 -1.98 -0.693v -0.429c 0.572 0 1.045 0.088 1.408 0.264v -5.566c 0 -0.198 -0.044 -0.33 -0.143 -0.385c -0.099 -0.055 -0.374 -0.088 -0.814 -0.088h -0.385v -0.429c 0.275 0.022 0.869 0.033 1.782 0.033c 0.913 0 1.507 -0.011 1.782 -0.033v 0.429h -0.385c -0.451 0 -0.726 0.033 -0.814 0.088c -0.088 0.055 -0.143 0.187 -0.143 0.385v 6.094c 0 0.264 -0.022 0.33 -0.308 0.33Z "/></symbol><symbol id="g93E2B88EAD8DFDF0BE4D6467DB923DB5" overflow="visible"><path d="M 0 0m 3.333 3.883c 0.726 0.275 1.408 0.968 1.408 1.903c 0 0.473 -0.231 0.858 -0.682 1.155c -0.396 0.253 -0.847 0.385 -1.353 0.385c -0.495 0 -0.924 -0.132 -1.309 -0.385c -0.429 -0.286 -0.649 -0.66 -0.649 -1.133c 0 -0.363 0.242 -0.616 0.594 -0.616c 0.352 0 0.594 0.253 0.594 0.605c 0 0.363 -0.209 0.561 -0.627 0.583c 0.286 0.385 0.737 0.583 1.353 0.583c 0.66 0 0.99 -0.385 0.99 -1.166c 0 -0.462 -0.088 -0.847 -0.253 -1.166c -0.297 -0.528 -0.704 -0.627 -1.386 -0.627c -0.132 -0.022 -0.198 -0.077 -0.198 -0.176c 0 -0.165 0.077 -0.165 0.297 -0.165h 0.473c 0.825 0 1.243 -0.583 1.243 -1.76c 0 -0.935 -0.341 -1.749 -1.177 -1.749c -0.715 0 -1.243 0.242 -1.562 0.726c 0.385 -0.011 0.671 0.275 0.671 0.649c 0 0.374 -0.275 0.649 -0.649 0.649c -0.429 0 -0.649 -0.22 -0.649 -0.671c 0 -0.539 0.242 -0.968 0.726 -1.309c 0.429 -0.297 0.935 -0.44 1.496 -0.44c 0.627 0 1.166 0.209 1.639 0.616c 0.473 0.407 0.704 0.913 0.704 1.529c 0 1.034 -0.814 1.749 -1.694 1.98Z "/></symbol><symbol id="g4C1ED41FE02ABB1BA3896D4213CC7460" overflow="visible"><path d="M 0 0m 0.627 0.473c 0 -0.319 0.264 -0.583 0.583 -0.583c 0.319 0 0.583 0.264 0.583 0.583c 0 0.319 -0.264 0.583 -0.583 0.583c -0.319 0 -0.583 -0.264 -0.583 -0.583Z "/></symbol><symbol id="g6A6B3E3381055DAC4DAE42A1F0D08F9F" overflow="visible"><path d="M 0 0m 0.6 5.448c 0 -0.3 0.276 -0.648 0.708 -0.648c 0.348 0 0.696 0.264 0.696 0.636c 0 0.06 -0.024 0.144 -0.06 0.252c -0.036 0.084 -0.072 0.18 -0.072 0.312c 0 0.276 0.42 0.828 0.996 0.828c 0.612 0 1.032 -0.756 1.032 -1.476c 0 -0.804 -0.048 -1.32 -0.684 -1.92l -1.02 -0.972c -1.488 -1.416 -1.692 -1.752 -1.728 -2.076l 0.048 -0.384h 4.632c 0.144 0.456 0.288 1.284 0.372 1.968c -0.156 0.072 -0.264 0.12 -0.54 0.12c -0.264 -0.816 -0.612 -1.14 -1.152 -1.14h -1.56c 0.036 0.384 0.156 0.708 0.552 1.068l 0.708 0.648c 1.428 1.32 1.908 1.608 1.908 2.724c 0 1.248 -1.056 1.932 -2.292 1.932c -1.716 0 -2.544 -1.128 -2.544 -1.872Z "/></symbol><symbol id="g25B224D96CA3F5CCC7E774117FEA026D" overflow="visible"><path d="M 0 0m 0.9163 3.2648c 0.2464 0 0.4312 0.1848 0.4312 0.4312c 0 0.2772 -0.1463 0.4235 -0.4312 0.4312c 0.1694 0.3619 0.5544 0.6545 1.0549 0.6545c 0.6776 0 1.1242 -0.5082 1.1242 -1.1858c 0 -0.3696 -0.1309 -0.7238 -0.4004 -1.0703c -0.1309 -0.1771 -0.231 -0.3003 -0.3003 -0.3696l -1.8249 -1.8095c -0.1001 -0.0924 -0.0847 -0.1155 -0.0847 -0.3465h 3.1724l 0.2387 1.4476h -0.3234c -0.0539 -0.4081 -0.1155 -0.6468 -0.1848 -0.7007c -0.0385 -0.0231 -0.2772 -0.0385 -0.7315 -0.0385h -1.309c 0.5159 0.4543 0.9933 0.8624 1.4476 1.2243c 0.3465 0.2695 0.5929 0.5082 0.7469 0.7161c 0.231 0.3003 0.3465 0.616 0.3465 0.9471c 0 0.4774 -0.1848 0.8547 -0.5621 1.1319c -0.3311 0.2541 -0.7469 0.385 -1.2397 0.385c -0.4235 0 -0.7854 -0.1232 -1.1011 -0.3696c -0.3311 -0.2695 -0.5005 -0.6083 -0.5005 -1.0241c 0 -0.2618 0.1925 -0.4543 0.4312 -0.4543Z "/></symbol><symbol id="g38D01286548D526A8BD5E8724FB2369F" overflow="visible"><path d="M 0 0m 1.276 1.54c -0.363 0 -0.539 -0.187 -0.539 -0.561c 0 -0.825 0.671 -1.221 1.54 -1.221c 0.88 0 1.584 0.44 2.101 1.331c 0.429 0.737 0.649 1.584 0.649 2.53c 0 1.397 -0.253 2.387 -0.759 2.97c -0.429 0.495 -0.924 0.737 -1.485 0.737c -0.649 0 -1.188 -0.231 -1.617 -0.704c -0.473 -0.495 -0.704 -1.089 -0.704 -1.782c 0 -0.671 0.198 -1.243 0.594 -1.716c 0.418 -0.506 0.957 -0.759 1.606 -0.759c 0.572 0 1.012 0.308 1.309 0.924v -0.143c 0 -1.199 -0.209 -2.013 -0.638 -2.453c -0.341 -0.363 -0.704 -0.539 -1.067 -0.539c -0.44 0 -0.759 0.099 -0.968 0.308c 0.341 0 0.517 0.198 0.517 0.539c 0 0.308 -0.231 0.539 -0.539 0.539Z m 1.397 1.166c -0.429 0 -0.748 0.22 -0.968 0.66c -0.121 0.253 -0.187 0.748 -0.187 1.463c 0 0.715 0.077 1.199 0.22 1.474c 0.242 0.44 0.594 0.66 1.045 0.66c 0.451 0 0.781 -0.275 0.99 -0.825c 0.121 -0.297 0.198 -0.803 0.198 -1.518c 0 -0.957 -0.429 -1.914 -1.298 -1.914Z "/></symbol><symbol id="g1C3263E1691946900500B192D1A294F" overflow="visible"><path d="M 0 0m 2.976 6.816c 0.504 0 0.756 -0.288 0.756 -0.852c 0 -0.912 -0.732 -1.644 -1.836 -1.896l 0.084 -0.48c 0.252 0.072 0.396 0.096 0.576 0.096c 0.624 0 1.5 -0.18 1.5 -1.62c 0 -1.38 -0.816 -1.68 -1.26 -1.68c -0.468 0 -0.72 0.3 -0.876 0.504c -0.132 0.18 -0.336 0.444 -0.78 0.444c -0.372 0 -0.588 -0.312 -0.588 -0.516c 0 -0.252 0.132 -0.432 0.396 -0.564c 0.432 -0.216 1.068 -0.372 1.656 -0.372c 1.416 0 3 1.116 3 2.784c 0 0.864 -0.564 1.62 -1.572 1.692c 0.528 0.264 1.116 0.9 1.116 1.632c 0 0.528 -0.288 1.332 -1.944 1.332c -1.248 0 -1.752 -0.42 -2.136 -0.768c -0.264 -0.24 -0.336 -0.564 -0.336 -0.72c 0 -0.168 0.06 -0.444 0.456 -0.444c 0.528 0 0.672 0.276 0.744 0.66c 0.132 0.732 0.636 0.768 1.044 0.768Z "/></symbol><symbol id="g6CA3708905D5D56BD06755CEABD69DE1" overflow="visible"><path d="M 0 0m 7.678 2.97h -6.798c -0.176 0 -0.264 -0.077 -0.264 -0.22c 0 -0.143 0.088 -0.22 0.264 -0.22h 6.798c 0.176 0 0.264 0.077 0.264 0.22c 0 0.132 -0.132 0.22 -0.264 0.22Z "/></symbol><symbol id="gFBE830B250F5B796B1177EED60278387" overflow="visible"><path d="M 0 0m 7.546 2.497c 0.11 0.055 0.165 0.132 0.165 0.253c 0 0.121 -0.055 0.198 -0.165 0.253l -6.314 2.992c -0.033 0.011 -0.077 0.022 -0.121 0.022c -0.176 0 -0.264 -0.088 -0.264 -0.275c 0 -0.099 0.055 -0.176 0.154 -0.22l 5.874 -2.772l -5.874 -2.772c -0.099 -0.044 -0.154 -0.121 -0.154 -0.22c 0 -0.187 0.088 -0.275 0.264 -0.275c 0.044 0 0.088 0.011 0.121 0.022Z "/></symbol><symbol id="g7C8B8CE2FA3271B2DB9D5C00ED33FFB8" overflow="visible"><path d="M 0 0m 1.98 0.948l 0.636 1.668c 0.06 0.156 0.132 0.204 0.42 0.204h 2.28l 0.672 -1.956c 0.144 -0.432 -0.204 -0.444 -0.66 -0.468c -0.072 0 -0.156 -0.012 -0.228 -0.012c -0.072 -0.072 -0.072 -0.336 0 -0.408c 0.444 0.012 1.584 0.024 2.052 0.024c 0.492 0 1.164 -0.012 1.608 -0.024c 0.072 0.072 0.072 0.336 0 0.408c -0.468 0.048 -0.864 0.036 -1.08 0.648l -2.472 6.864c -0.18 -0.108 -0.9 -0.528 -1.32 -0.528l -2.604 -6.144c -0.312 -0.744 -0.672 -0.804 -1.2 -0.84c -0.072 -0.072 -0.072 -0.336 0 -0.408c 0.444 0.012 0.66 0.024 1.128 0.024c 0.492 0 1.152 -0.012 1.596 -0.024c 0.072 0.072 0.072 0.336 0 0.408c -0.456 0.036 -1.02 0.072 -0.828 0.564Z m 1.296 2.448c -0.264 0 -0.348 0.036 -0.3 0.156l 1.056 2.688h 0.084l 0.984 -2.844Z "/></symbol><symbol id="g3C2E9715FB9D690A986B8F0D57F3007C" overflow="visible"><path d="M 0 0m 2.736 1.464v 2.412c 0.48 0.324 0.96 0.564 1.176 0.564c 0.48 0 0.84 -0.216 0.84 -0.9v -2.004c 0 -1.008 -0.192 -1.116 -0.684 -1.152c -0.072 -0.072 -0.072 -0.336 0 -0.408c 0.504 0.012 0.888 0.024 1.464 0.024c 0.66 0 1.188 -0.012 1.704 -0.024c 0.072 0.072 0.072 0.336 0 0.408c -0.732 0.036 -0.924 0.144 -0.924 1.152v 1.872c 0 1.32 -0.564 1.92 -1.596 1.92c -0.48 0 -1.332 -0.528 -1.992 -0.984c -0.036 0.42 -0.084 0.78 -0.084 0.78c -0.012 0.144 -0.108 0.204 -0.276 0.204c -0.444 -0.12 -1.164 -0.288 -1.992 -0.396c -0.024 -0.072 0 -0.312 0.024 -0.384c 0.66 -0.06 0.78 -0.156 0.78 -0.84v -2.244c 0 -0.996 -0.132 -1.02 -0.864 -1.08c -0.072 -0.072 -0.072 -0.336 0 -0.408c 0.504 0.012 1.008 0.024 1.644 0.024c 0.552 0 0.888 -0.012 1.404 -0.024c 0.072 0.072 0.072 0.336 0 0.408c -0.504 0.048 -0.624 0.084 -0.624 1.08Z "/></symbol><symbol id="g9F7E1555646D96C898148392D0DD78AD" overflow="visible"><path d="M 0 0m 5.784 3.972c -0.228 0.576 -0.372 1.104 -0.372 1.104c -0.216 -0.012 -0.444 -0.012 -0.672 0.012l -1.14 -3.168c -0.036 -0.084 -0.084 -0.108 -0.132 0.012l -0.684 2.04c -0.012 0.036 -0.024 0.06 -0.036 0.096c -0.168 0.504 -0.24 0.696 0.468 0.756c 0.072 0.072 0.072 0.336 0 0.408c -0.444 -0.012 -0.96 -0.024 -1.572 -0.024c -0.42 0 -1.032 0.012 -1.476 0.024c -0.072 -0.072 -0.072 -0.336 0 -0.408c 0.696 -0.084 0.732 -0.312 0.96 -0.924l 1.464 -3.792c 0.084 -0.228 0.24 -0.252 0.396 -0.252c 0.12 0 0.348 0.024 0.444 0.276l 1.128 2.964l 1.152 -2.988c 0.084 -0.216 0.312 -0.252 0.468 -0.252c 0.12 0 0.324 0.036 0.42 0.276l 1.476 3.66c 0.204 0.516 0.408 0.972 1.08 1.032c 0.072 0.072 0.072 0.336 0 0.408c -0.264 -0.012 -0.48 -0.024 -0.792 -0.024c -0.444 0 -0.96 0.012 -1.404 0.024c -0.072 -0.072 -0.072 -0.336 0 -0.408c 0.648 -0.048 0.708 -0.36 0.48 -0.948l -0.696 -1.896c -0.048 -0.144 -0.12 -0.132 -0.168 -0.012Z "/></symbol><symbol id="gA421F3DD5F2809E5ED8290B7EF6AAC43" overflow="visible"><path d="M 0 0m 5.052 7.572c -0.66 0.096 -0.912 0.324 -2.028 0.324c -0.54 0 -1.248 -0.168 -1.752 -0.576c -0.444 -0.36 -0.78 -0.912 -0.78 -1.5c 0 -0.456 0.12 -1.032 0.396 -1.392c 0.552 -0.744 1.548 -1.152 2.064 -1.512c 0.552 -0.384 1.092 -0.864 1.092 -1.536c 0 -0.588 -0.516 -0.996 -1.248 -0.996c -0.804 0 -1.632 0.66 -1.872 1.752c -0.192 0.072 -0.384 0.024 -0.564 -0.024c -0.012 0 -0.024 -0.012 -0.036 -0.012c 0 -0.9 0.096 -1.536 0.228 -1.98c 0.684 0 0.72 -0.24 2.376 -0.24c 0.732 0 1.32 0.216 1.812 0.66c 0.432 0.372 0.816 0.924 0.816 1.668c 0 0.624 -0.264 1.044 -0.624 1.44c -0.468 0.516 -1.14 0.888 -1.608 1.128c -0.48 0.24 -1.332 0.864 -1.332 1.548c 0 0.672 0.408 1.08 1.02 1.08c 1.02 0 1.356 -0.924 1.572 -1.716c 0.168 -0.048 0.468 -0.048 0.6 0.06c 0 0.636 -0.048 1.128 -0.132 1.824Z "/></symbol><symbol id="g482B6484D8169192ED302BC1FABC0EB8" overflow="visible"><path d="M 0 0m 0.444 2.484c 0 -1.572 1.248 -2.604 2.856 -2.604c 0.852 0 1.56 0.24 2.052 0.684c 0.612 0.54 0.816 1.356 0.816 2.028c 0 1.572 -1.068 2.736 -2.856 2.736c -0.996 0 -1.74 -0.348 -2.208 -0.888c -0.456 -0.528 -0.66 -1.248 -0.66 -1.956Z m 2.676 2.34c 0.816 0 1.368 -0.972 1.368 -2.616c 0 -1.44 -0.564 -1.824 -0.996 -1.824c -0.984 0 -1.368 1.476 -1.368 2.364c 0 1.104 0.192 2.076 0.996 2.076Z "/></symbol><symbol id="g966BE685B7523A33FA7C5091B1A7882" overflow="visible"><path d="M 0 0m 1.2 1.524c 0 -0.996 -0.192 -1.104 -0.924 -1.14c -0.072 -0.072 -0.072 -0.336 0 -0.408c 0.504 0.012 1.044 0.024 1.704 0.024c 0.66 0 1.188 -0.012 1.704 -0.024c 0.072 0.072 0.072 0.336 0 0.408c -0.732 0.036 -0.924 0.144 -0.924 1.14v 5.472c 0 0.78 0.036 1.224 0.036 1.224c 0 0.108 -0.084 0.156 -0.192 0.156c -0.444 -0.144 -1.404 -0.276 -2.256 -0.312c -0.036 -0.144 -0.024 -0.276 0.036 -0.384c 0.756 -0.06 0.816 -0.072 0.816 -0.9Z "/></symbol><symbol id="gC76A03CC6B2F66C4058A56BA6A9EE20" overflow="visible"><path d="M 0 0m 6.12 1.596v 2.076c 0 1.008 0.024 0.864 0.024 1.152c 0 0.204 -0.048 0.336 -0.12 0.408c -0.216 -0.012 -0.456 -0.024 -0.684 -0.024c -0.336 0 -1.116 0.012 -1.584 0.024c -0.072 -0.072 -0.072 -0.336 0 -0.408c 0.612 -0.06 0.804 -0.144 0.804 -1.152v -2.22c 0 -0.12 0 -0.24 0.012 -0.36c -0.492 -0.3 -0.888 -0.324 -1.104 -0.324c -0.48 0 -0.84 0.06 -0.84 0.9v 2.004c 0 1.008 0.024 0.864 0.024 1.152c 0 0.204 -0.048 0.336 -0.12 0.408c -0.216 -0.012 -0.468 -0.024 -0.684 -0.024c -0.612 0 -1.068 0.012 -1.584 0.024c -0.072 -0.072 -0.072 -0.336 0 -0.408c 0.552 -0.024 0.804 -0.144 0.804 -1.152v -1.872c 0 -1.272 0.504 -1.92 1.536 -1.92c 0.432 0 1.308 0.348 2.004 0.732c 0.024 -0.3 0.048 -0.528 0.048 -0.528c 0.012 -0.144 0.108 -0.204 0.276 -0.204c 0.444 0.12 1.164 0.288 1.992 0.396c 0.024 0.072 0 0.312 -0.024 0.384c -0.648 0.06 -0.78 0.252 -0.78 0.936Z "/></symbol><symbol id="g3E13159425B4C5FA6BE9D46173183F7B" overflow="visible"><path d="M 0 0m 0.756 5.208c -0.168 0 -0.348 -0.048 -0.504 -0.18v -0.348c 0 -0.06 0.012 -0.072 0.06 -0.072h 0.78c -0.024 -1.212 -0.036 -2.748 -0.036 -3.348c 0 -0.42 0.108 -0.828 0.36 -1.044c 0.276 -0.228 0.708 -0.336 0.996 -0.336c 0.66 0 1.392 0.336 1.632 0.672c 0 0.144 -0.072 0.216 -0.216 0.336c -0.156 -0.12 -0.456 -0.168 -0.684 -0.168c -0.264 0 -0.528 0.204 -0.528 0.804c 0 0.6 -0.012 1.884 -0.012 3.084h 1.212c 0.12 0 0.288 0.048 0.288 0.156v 0.372c 0 0.048 -0.036 0.072 -0.096 0.072h -1.404l 0.012 0.408c 0.024 0.804 0.06 1.356 0.06 1.356c 0 0.072 -0.036 0.108 -0.096 0.108c -0.084 0 -0.528 -0.132 -0.72 -0.216c -0.204 -0.084 -0.552 -0.156 -0.636 -0.264c -0.084 -0.108 -0.132 -0.432 -0.132 -1.392Z "/></symbol><symbol id="gAE482DA578200FA3765B7A490E273D69" overflow="visible"><path d="M 0 0m 3.883 7.447c -0.099 0 -0.187 -0.055 -0.253 -0.154l -3.322 -5.104v -0.396h 2.871v -0.902c 0 -0.198 -0.044 -0.33 -0.121 -0.385c -0.077 -0.055 -0.286 -0.077 -0.649 -0.077h -0.275v -0.429c 0.319 0.022 0.825 0.033 1.507 0.033c 0.682 0 1.188 -0.011 1.507 -0.033v 0.429h -0.275c -0.363 0 -0.572 0.022 -0.649 0.077c -0.077 0.055 -0.121 0.187 -0.121 0.385v 0.902h 1.078v 0.429h -1.078v 5.038c 0 0.11 -0.077 0.187 -0.22 0.187Z m -0.638 -1.364v -3.861h -2.508Z "/></symbol><symbol id="g9C89A10A1924241F7D0F85246D865902" overflow="visible"><path d="M 0 0m 7.678 -0.407h -3.135v 2.893h 3.135c 0.176 0 0.264 0.088 0.264 0.264c 0 0.176 -0.088 0.264 -0.264 0.264h -3.135v 3.135c 0 0.176 -0.088 0.264 -0.264 0.264c -0.176 0 -0.264 -0.088 -0.264 -0.264v -3.135h -3.135c -0.176 0 -0.264 -0.088 -0.264 -0.264c 0 -0.176 0.088 -0.264 0.264 -0.264h 3.135v -2.893h -3.135c -0.176 0 -0.264 -0.088 -0.264 -0.253c 0 -0.176 0.088 -0.264 0.264 -0.264h 6.798c 0.176 0 0.264 0.088 0.264 0.264c 0 0.132 -0.121 0.253 -0.264 0.253Z "/></symbol></defs></svg>