<?xml version="1.0" encoding="UTF-8"?>
<svg xmlns="http://www.w3.org/2000/svg" xmlns:xlink="http://www.w3.org/1999/xlink" width="595.276pt" height="841.89pt" viewBox="0 0 595.276 841.89" version="1.1">
<defs>
<clipPath id="clip1">
  <path d="M 17 0 L 595.277344 0 L 595.277344 841.890625 L 17 841.890625 Z M 17 0 "/>
</clipPath>
<clipPath id="clip2">
  <path d="M 587 836 L 595.277344 836 L 595.277344 841.890625 L 587 841.890625 Z M 587 836 "/>
</clipPath>
<clipPath id="clip3">
  <path d="M 522 830 L 553 830 L 553 841.890625 L 522 841.890625 Z M 522 830 "/>
</clipPath>
<clipPath id="clip4">
  <path d="M 459 796 L 503 796 L 503 841.890625 L 459 841.890625 Z M 459 796 "/>
</clipPath>
<clipPath id="clip5">
  <path d="M 552 418 L 595.277344 418 L 595.277344 484 L 552 484 Z M 552 418 "/>
</clipPath>
<clipPath id="clip6">
  <path d="M 567 820 L 578 820 L 578 841.890625 L 567 841.890625 Z M 567 820 "/>
</clipPath>
<clipPath id="clip7">
  <path d="M 0 0 L 18 0 L 18 841.890625 L 0 841.890625 Z M 0 0 "/>
</clipPath>
</defs>
<g id="surface1">
<g clip-path="url(#clip1)" clip-rule="nonzero">
<path style=" stroke:none;fill-rule:nonzero;fill:rgb(94.999695%,94.999695%,95.999146%);fill-opacity:1;" d="M 17.007812 841.890625 L 595.273438 841.890625 L 595.273438 0 L 17.007812 0 Z M 17.007812 841.890625 "/>
</g>
<path style=" stroke:none;fill-rule:nonzero;fill:rgb(100%,100%,100%);fill-opacity:1;" d="M 487.351562 134.78125 L 457.765625 121.894531 L 461.390625 113.570312 L 490.976562 126.460938 Z M 487.351562 134.78125 "/>
<path style=" stroke:none;fill-rule:nonzero;fill:rgb(100%,100%,100%);fill-opacity:1;" d="M 580.871094 708.894531 L 551.285156 696.003906 L 554.910156 687.683594 L 584.496094 700.574219 Z M 580.871094 708.894531 "/>
<g clip-path="url(#clip2)" clip-rule="nonzero">
<path style=" stroke:none;fill-rule:nonzero;fill:rgb(100%,100%,100%);fill-opacity:1;" d="M 587.554688 866.289062 L 600.660156 836.800781 L 608.957031 840.484375 L 595.847656 869.976562 Z M 587.554688 866.289062 "/>
</g>
<path style=" stroke:none;fill-rule:nonzero;fill:rgb(100%,100%,100%);fill-opacity:1;" d="M 479.6875 195.515625 C 479.671875 195.503906 479.660156 195.492188 479.644531 195.480469 C 474.21875 190.265625 474.042969 181.605469 479.257812 176.175781 C 484.476562 170.746094 493.132812 170.570312 498.5625 175.785156 C 501.722656 178.824219 503.089844 183.023438 502.664062 187.078125 L 510.738281 178.671875 C 509.625 175.195312 507.664062 171.941406 504.851562 169.242188 C 495.8125 160.558594 481.394531 160.847656 472.714844 169.886719 C 464.03125 178.925781 464.320312 193.34375 473.359375 202.023438 C 473.371094 202.039062 473.386719 202.050781 473.398438 202.0625 Z M 479.6875 195.515625 "/>
<path style=" stroke:none;fill-rule:nonzero;fill:rgb(100%,100%,100%);fill-opacity:1;" d="M 553.234375 287.316406 C 553.214844 287.320312 553.199219 287.328125 553.179688 287.332031 C 545.851562 289.050781 538.488281 284.484375 536.769531 277.15625 C 535.050781 269.828125 539.617188 262.464844 546.945312 260.746094 C 551.210938 259.746094 555.480469 260.882812 558.648438 263.449219 L 555.988281 252.101562 C 552.464844 251.144531 548.667969 251.019531 544.871094 251.910156 C 532.667969 254.769531 525.070312 267.027344 527.933594 279.230469 C 530.796875 291.429688 543.050781 299.03125 555.253906 296.167969 C 555.273438 296.164062 555.289062 296.15625 555.304688 296.152344 Z M 553.234375 287.316406 "/>
<path style=" stroke:none;fill-rule:nonzero;fill:rgb(100%,100%,100%);fill-opacity:1;" d="M 497.121094 542.371094 C 497.105469 542.375 497.085938 542.378906 497.070312 542.382812 C 489.738281 544.101562 482.378906 539.539062 480.660156 532.207031 C 478.9375 524.878906 483.503906 517.519531 490.832031 515.796875 C 495.097656 514.796875 499.367188 515.9375 502.539062 518.5 L 499.875 507.152344 C 496.355469 506.195312 492.554688 506.070312 488.761719 506.960938 C 476.558594 509.824219 468.960938 522.078125 471.820312 534.28125 C 474.683594 546.484375 486.9375 554.082031 499.140625 551.21875 C 499.160156 551.214844 499.175781 551.210938 499.195312 551.207031 Z M 497.121094 542.371094 "/>
<path style=" stroke:none;fill-rule:nonzero;fill:rgb(100%,100%,100%);fill-opacity:1;" d="M 470.1875 432.421875 C 470.207031 432.414062 470.222656 432.410156 470.242188 432.402344 C 477.394531 430.050781 485.125 433.957031 487.476562 441.105469 C 489.828125 448.257812 485.925781 455.992188 478.773438 458.34375 C 474.609375 459.710938 470.257812 458.949219 466.878906 456.671875 L 470.519531 467.746094 C 474.113281 468.390625 477.90625 468.183594 481.609375 466.964844 C 493.515625 463.046875 500.015625 450.175781 496.097656 438.269531 C 492.183594 426.363281 479.3125 419.867188 467.402344 423.78125 C 467.386719 423.785156 467.371094 423.792969 467.351562 423.800781 Z M 470.1875 432.421875 "/>
<path style=" stroke:none;fill-rule:nonzero;fill:rgb(100%,100%,100%);fill-opacity:1;" d="M 513.957031 346.351562 C 513.972656 346.347656 513.992188 346.339844 514.007812 346.335938 C 521.160156 343.980469 528.890625 347.886719 531.242188 355.039062 C 533.597656 362.1875 529.691406 369.921875 522.539062 372.273438 C 518.378906 373.644531 514.023438 372.882812 510.644531 370.605469 L 514.285156 381.675781 C 517.878906 382.324219 521.675781 382.113281 525.375 380.894531 C 537.28125 376.980469 543.78125 364.105469 539.867188 352.199219 C 535.949219 340.296875 523.078125 333.796875 511.171875 337.714844 C 511.152344 337.71875 511.136719 337.726562 511.117188 337.730469 Z M 513.957031 346.351562 "/>
<path style=" stroke:none;fill-rule:nonzero;fill:rgb(100%,100%,100%);fill-opacity:1;" d="M 570.558594 448 L 564.511719 442.929688 C 563.789062 444.0625 562.386719 445.921875 561.417969 447.082031 C 557.175781 452.152344 552.890625 449.71875 549.257812 446.671875 L 521.386719 423.285156 L 515.421875 430.417969 L 542.816406 453.40625 C 552.824219 461.800781 559.40625 462.242188 566.628906 453.613281 C 567.902344 452.085938 569.652344 449.753906 570.558594 448 "/>
<path style=" stroke:none;fill-rule:nonzero;fill:rgb(100%,100%,100%);fill-opacity:1;" d="M 518.382812 45.105469 L 518.855469 37.230469 C 517.515625 37.320312 515.191406 37.300781 513.679688 37.210938 C 507.089844 36.8125 506.492188 31.925781 506.777344 27.195312 L 508.953125 -9.113281 L 499.683594 -9.667969 L 497.539062 26.019531 C 496.757812 39.054688 500.320312 44.605469 511.542969 45.277344 C 513.527344 45.398438 516.4375 45.417969 518.382812 45.105469 "/>
<path style=" stroke:none;fill-rule:nonzero;fill:rgb(100%,100%,100%);fill-opacity:1;" d="M 490.332031 411.054688 L 539.136719 416.066406 L 539.851562 409.125 L 484.8125 403.46875 L 484.863281 403.550781 C 486.988281 405.8125 488.824219 408.335938 490.332031 411.054688 "/>
<path style=" stroke:none;fill-rule:nonzero;fill:rgb(100%,100%,100%);fill-opacity:1;" d="M 458.839844 285.257812 L 455.117188 276.980469 L 510.339844 252.160156 L 514.058594 260.441406 Z M 458.839844 285.257812 "/>
<path style=" stroke:none;fill-rule:nonzero;fill:rgb(100%,100%,100%);fill-opacity:1;" d="M 511.164062 500.769531 L 502.148438 499.753906 L 508.910156 439.589844 L 517.933594 440.605469 Z M 511.164062 500.769531 "/>
<path style=" stroke:none;fill-rule:nonzero;fill:rgb(100%,100%,100%);fill-opacity:1;" d="M 466.089844 254.015625 L 464.136719 221.800781 L 473.199219 221.25 L 475.152344 253.464844 Z M 466.089844 254.015625 "/>
<path style=" stroke:none;fill-rule:nonzero;fill:rgb(100%,100%,100%);fill-opacity:1;" d="M 502.558594 341.289062 C 490.152344 345.574219 476.574219 338.96875 472.285156 326.5625 C 468 314.15625 474.605469 300.574219 487.011719 296.289062 C 489.976562 295.261719 493.011719 294.867188 495.96875 295.019531 L 492.84375 285.972656 C 489.910156 286.144531 486.957031 286.703125 484.050781 287.710938 C 466.914062 293.628906 457.785156 312.390625 463.707031 329.527344 C 469.628906 346.664062 488.386719 355.789062 505.523438 349.867188 Z M 502.558594 341.289062 "/>
<path style=" stroke:none;fill-rule:nonzero;fill:rgb(100%,100%,100%);fill-opacity:1;" d="M 467.230469 400.570312 C 467.21875 400.558594 467.203125 400.546875 467.1875 400.535156 C 461.761719 395.320312 461.585938 386.660156 466.800781 381.230469 C 472.019531 375.800781 480.679688 375.625 486.109375 380.839844 C 489.269531 383.878906 490.632812 388.078125 490.207031 392.132812 L 498.28125 383.726562 C 497.171875 380.253906 495.207031 376.996094 492.394531 374.296875 C 483.355469 365.613281 468.941406 365.902344 460.257812 374.941406 C 451.574219 383.980469 451.863281 398.398438 460.902344 407.082031 C 460.914062 407.09375 460.929688 407.105469 460.941406 407.117188 Z M 467.230469 400.570312 "/>
<path style=" stroke:none;fill-rule:nonzero;fill:rgb(100%,100%,100%);fill-opacity:1;" d="M 505.667969 270.523438 L 502.601562 277.792969 C 503.894531 278.152344 506.082031 278.945312 507.476562 279.53125 C 513.5625 282.09375 512.5 286.902344 510.65625 291.269531 L 496.527344 324.777344 L 505.085938 328.382812 L 518.976562 295.445312 C 524.050781 283.414062 522.539062 276.996094 512.175781 272.632812 C 510.34375 271.859375 507.605469 270.875 505.667969 270.523438 "/>
<path style=" stroke:none;fill-rule:nonzero;fill:rgb(100%,100%,100%);fill-opacity:1;" d="M 558.523438 509.425781 L 554.753906 516.355469 C 556.003906 516.84375 558.101562 517.847656 559.429688 518.570312 C 565.230469 521.726562 563.695312 526.40625 561.429688 530.570312 L 544.042969 562.515625 L 552.203125 566.957031 L 569.292969 535.554688 C 575.535156 524.082031 574.667969 517.546875 564.792969 512.171875 C 563.046875 511.222656 560.417969 509.96875 558.523438 509.425781 "/>
<path style=" stroke:none;fill-rule:nonzero;fill:rgb(100%,100%,100%);fill-opacity:1;" d="M 466.734375 652.0625 L 470.101562 643.632812 L 526.320312 666.117188 L 522.949219 674.542969 Z M 466.734375 652.0625 "/>
<path style=" stroke:none;fill-rule:nonzero;fill:rgb(100%,100%,100%);fill-opacity:1;" d="M 491.535156 607.859375 L 487.8125 599.578125 L 543.035156 574.761719 L 546.753906 583.039062 Z M 491.535156 607.859375 "/>
<path style=" stroke:none;fill-rule:nonzero;fill:rgb(100%,100%,100%);fill-opacity:1;" d="M 535.714844 636.257812 L 506.128906 623.367188 L 509.753906 615.046875 L 539.339844 627.933594 Z M 535.714844 636.257812 "/>
<path style=" stroke:none;fill-rule:nonzero;fill:rgb(100%,100%,100%);fill-opacity:1;" d="M 493.699219 623.105469 C 481.292969 627.390625 467.714844 620.785156 463.425781 608.378906 C 459.140625 595.972656 465.746094 582.390625 478.152344 578.105469 C 481.117188 577.078125 484.152344 576.683594 487.105469 576.835938 L 483.980469 567.789062 C 481.050781 567.960938 478.097656 568.523438 475.191406 569.527344 C 458.050781 575.445312 448.925781 594.207031 454.847656 611.34375 C 460.769531 628.480469 479.527344 637.605469 496.664062 631.683594 Z M 493.699219 623.105469 "/>
<path style=" stroke:none;fill-rule:nonzero;fill:rgb(100%,100%,100%);fill-opacity:1;" d="M 475.589844 711.316406 C 475.574219 711.304688 475.5625 711.292969 475.546875 711.28125 C 470.117188 706.066406 469.945312 697.40625 475.160156 691.976562 C 480.375 686.546875 489.035156 686.371094 494.464844 691.589844 C 497.625 694.625 498.992188 698.824219 498.5625 702.878906 L 506.636719 694.472656 C 505.527344 691 503.5625 687.742188 500.753906 685.042969 C 491.714844 676.359375 477.296875 676.648438 468.613281 685.6875 C 459.929688 694.726562 460.21875 709.144531 469.257812 717.828125 C 469.273438 717.839844 469.285156 717.851562 469.300781 717.863281 Z M 475.589844 711.316406 "/>
<path style=" stroke:none;fill-rule:nonzero;fill:rgb(100%,100%,100%);fill-opacity:1;" d="M 558.128906 819.871094 C 558.113281 819.875 558.09375 819.882812 558.078125 819.886719 C 550.746094 821.601562 543.386719 817.039062 541.667969 809.710938 C 539.949219 802.378906 544.511719 795.019531 551.839844 793.296875 C 556.105469 792.296875 560.375 793.4375 563.546875 796 L 560.882812 784.652344 C 557.363281 783.695312 553.5625 783.574219 549.769531 784.464844 C 537.566406 787.324219 529.96875 799.582031 532.828125 811.78125 C 535.691406 823.984375 547.945312 831.582031 560.148438 828.722656 C 560.167969 828.714844 560.183594 828.710938 560.203125 828.707031 Z M 558.128906 819.871094 "/>
<g clip-path="url(#clip3)" clip-rule="nonzero">
<path style=" stroke:none;fill-rule:nonzero;fill:rgb(100%,100%,100%);fill-opacity:1;" d="M 525.882812 840.4375 C 525.898438 840.433594 525.914062 840.425781 525.933594 840.417969 C 533.082031 838.066406 540.816406 841.972656 543.167969 849.121094 C 545.523438 856.273438 541.617188 864.007812 534.464844 866.359375 C 530.304688 867.726562 525.949219 866.96875 522.570312 864.691406 L 526.214844 875.761719 C 529.804688 876.410156 533.601562 876.199219 537.304688 874.980469 C 549.207031 871.0625 555.707031 858.191406 551.789062 846.285156 C 547.875 834.378906 535.003906 827.882812 523.097656 831.796875 C 523.078125 831.804688 523.0625 831.808594 523.042969 831.816406 Z M 525.882812 840.4375 "/>
</g>
<path style=" stroke:none;fill-rule:nonzero;fill:rgb(100%,100%,100%);fill-opacity:1;" d="M 473.816406 786.105469 L 464.769531 786.828125 L 459.9375 726.480469 L 468.984375 725.753906 Z M 473.816406 786.105469 "/>
<g clip-path="url(#clip4)" clip-rule="nonzero">
<path style=" stroke:none;fill-rule:nonzero;fill:rgb(100%,100%,100%);fill-opacity:1;" d="M 499.914062 852.117188 C 487.507812 856.40625 473.925781 849.796875 469.636719 837.390625 C 465.351562 824.984375 471.960938 811.402344 484.367188 807.117188 C 487.332031 806.09375 490.363281 805.699219 493.320312 805.847656 L 490.195312 796.800781 C 487.261719 796.972656 484.308594 797.535156 481.402344 798.539062 C 464.265625 804.460938 455.140625 823.21875 461.058594 840.355469 C 466.980469 857.492188 485.738281 866.617188 502.875 860.699219 Z M 499.914062 852.117188 "/>
</g>
<path style=" stroke:none;fill-rule:nonzero;fill:rgb(100%,100%,100%);fill-opacity:1;" d="M 526.21875 705.234375 C 539.296875 704.128906 550.828125 713.867188 551.917969 726.941406 C 553.007812 740.015625 543.253906 751.550781 530.175781 752.65625 C 527.046875 752.917969 524.011719 752.558594 521.183594 751.683594 L 521.980469 761.21875 C 524.863281 761.773438 527.863281 761.953125 530.929688 761.695312 C 548.996094 760.167969 562.46875 744.234375 560.964844 726.175781 C 559.457031 708.121094 543.53125 694.667969 525.464844 696.191406 Z M 526.21875 705.234375 "/>
<path style=" stroke:none;fill-rule:nonzero;fill:rgb(100%,100%,100%);fill-opacity:1;" d="M 503.96875 777.664062 L 500.90625 784.929688 C 502.199219 785.289062 504.386719 786.082031 505.777344 786.667969 C 511.863281 789.230469 510.800781 794.039062 508.960938 798.40625 L 494.828125 831.917969 L 503.390625 835.523438 L 517.28125 802.585938 C 522.355469 790.550781 520.839844 784.132812 510.480469 779.769531 C 508.648438 778.996094 505.910156 778.011719 503.96875 777.664062 "/>
<path style=" stroke:none;fill-rule:nonzero;fill:rgb(100%,100%,100%);fill-opacity:1;" d="M 494.078125 710.9375 L 490.308594 717.867188 C 491.558594 718.355469 493.65625 719.359375 494.984375 720.082031 C 500.78125 723.238281 499.25 727.917969 496.984375 732.082031 L 479.597656 764.027344 L 487.757812 768.46875 L 504.847656 737.066406 C 511.089844 725.59375 510.222656 719.058594 500.347656 713.683594 C 498.601562 712.734375 495.972656 711.480469 494.078125 710.9375 "/>
<path style=" stroke:none;fill-rule:nonzero;fill:rgb(100%,100%,100%);fill-opacity:1;" d="M 504.304688 553.4375 L 533.886719 566.328125 L 530.265625 574.648438 L 500.679688 561.757812 Z M 504.304688 553.4375 "/>
<g clip-path="url(#clip5)" clip-rule="nonzero">
<path style=" stroke:none;fill-rule:nonzero;fill:rgb(100%,100%,100%);fill-opacity:1;" d="M 555.355469 428.488281 C 567.761719 424.203125 581.34375 430.808594 585.628906 443.21875 C 589.914062 455.625 583.308594 469.203125 570.902344 473.488281 C 567.9375 474.515625 564.902344 474.910156 561.949219 474.761719 L 565.074219 483.808594 C 568.003906 483.636719 570.957031 483.074219 573.867188 482.070312 C 591.003906 476.148438 600.128906 457.390625 594.207031 440.253906 C 588.285156 423.113281 569.527344 413.988281 552.390625 419.910156 Z M 555.355469 428.488281 "/>
</g>
<path style=" stroke:none;fill-rule:nonzero;fill:rgb(100%,100%,100%);fill-opacity:1;" d="M 559.933594 646.0625 C 559.945312 646.074219 559.960938 646.085938 559.972656 646.097656 C 565.402344 651.3125 565.578125 659.972656 560.359375 665.402344 C 555.144531 670.832031 546.484375 671.007812 541.054688 665.789062 C 537.894531 662.753906 536.53125 658.554688 536.957031 654.5 L 528.882812 662.90625 C 529.992188 666.378906 531.957031 669.636719 534.769531 672.335938 C 543.804688 681.019531 558.222656 680.730469 566.90625 671.691406 C 575.589844 662.652344 575.300781 648.234375 566.261719 639.550781 C 566.25 639.539062 566.234375 639.527344 566.21875 639.515625 Z M 559.933594 646.0625 "/>
<path style=" stroke:none;fill-rule:nonzero;fill:rgb(100%,100%,100%);fill-opacity:1;" d="M 462.410156 -2.625 C 462.429688 -2.628906 462.449219 -2.636719 462.464844 -2.640625 C 469.792969 -4.359375 477.15625 0.207031 478.875 7.535156 C 480.59375 14.867188 476.03125 22.226562 468.699219 23.945312 C 464.433594 24.945312 460.164062 23.808594 456.996094 21.242188 L 459.660156 32.59375 C 463.179688 33.550781 466.980469 33.671875 470.773438 32.78125 C 482.976562 29.921875 490.574219 17.664062 487.710938 5.464844 C 484.847656 -6.738281 472.59375 -14.339844 460.394531 -11.476562 C 460.375 -11.472656 460.359375 -11.464844 460.339844 -11.460938 Z M 462.410156 -2.625 "/>
<path style=" stroke:none;fill-rule:nonzero;fill:rgb(100%,100%,100%);fill-opacity:1;" d="M 557.652344 332.046875 L 557.183594 339.921875 C 558.519531 339.832031 560.847656 339.847656 562.355469 339.941406 C 568.945312 340.335938 569.546875 345.222656 569.261719 349.957031 L 567.082031 386.261719 L 576.355469 386.816406 L 578.496094 351.132812 C 579.277344 338.09375 575.714844 332.542969 564.492188 331.871094 C 562.511719 331.75 559.597656 331.730469 557.652344 332.046875 "/>
<path style=" stroke:none;fill-rule:nonzero;fill:rgb(100%,100%,100%);fill-opacity:1;" d="M 583.789062 82.078125 L 592.808594 83.089844 L 586.042969 143.253906 L 577.023438 142.242188 Z M 583.789062 82.078125 "/>
<path style=" stroke:none;fill-rule:nonzero;fill:rgb(100%,100%,100%);fill-opacity:1;" d="M 570.863281 255.445312 L 579.910156 254.722656 L 584.742188 315.074219 L 575.695312 315.796875 Z M 570.863281 255.445312 "/>
<path style=" stroke:none;fill-rule:nonzero;fill:rgb(100%,100%,100%);fill-opacity:1;" d="M 558.113281 577.269531 L 567.160156 576.542969 L 571.988281 636.894531 L 562.941406 637.621094 Z M 558.113281 577.269531 "/>
<g clip-path="url(#clip6)" clip-rule="nonzero">
<path style=" stroke:none;fill-rule:nonzero;fill:rgb(100%,100%,100%);fill-opacity:1;" d="M 567.210938 820.96875 L 568.480469 841.890625 L 577.574219 841.890625 L 576.273438 820.417969 Z M 567.210938 820.96875 "/>
</g>
<path style=" stroke:none;fill-rule:nonzero;fill:rgb(100%,100%,100%);fill-opacity:1;" d="M 527.050781 0 L 528.691406 27.035156 L 537.75 26.484375 L 536.144531 0 Z M 527.050781 0 "/>
<path style=" stroke:none;fill-rule:nonzero;fill:rgb(100%,100%,100%);fill-opacity:1;" d="M 541.152344 -32.136719 C 553.558594 -36.421875 567.136719 -29.816406 571.425781 -17.410156 C 575.710938 -5.003906 569.105469 8.578125 556.699219 12.867188 C 553.730469 13.890625 550.699219 14.285156 547.742188 14.136719 L 550.867188 23.183594 C 553.800781 23.011719 556.753906 22.449219 559.660156 21.445312 C 576.796875 15.523438 585.925781 -3.234375 580.003906 -20.371094 C 574.082031 -37.507812 555.324219 -46.636719 538.1875 -40.714844 Z M 541.152344 -32.136719 "/>
<path style=" stroke:none;fill-rule:nonzero;fill:rgb(100%,100%,100%);fill-opacity:1;" d="M 536.929688 542.421875 C 525.015625 536.90625 519.820312 522.738281 525.34375 510.835938 C 530.867188 498.933594 545.054688 493.738281 556.964844 499.253906 C 559.8125 500.570312 562.273438 502.386719 564.296875 504.546875 L 568.324219 495.867188 C 566.09375 493.960938 563.574219 492.316406 560.785156 491.023438 C 544.332031 483.40625 524.734375 490.585938 517.105469 507.023438 C 509.476562 523.460938 516.65625 543.03125 533.109375 550.648438 Z M 536.929688 542.421875 "/>
<path style=" stroke:none;fill-rule:nonzero;fill:rgb(100%,100%,100%);fill-opacity:1;" d="M 579.59375 783.859375 L 583.363281 776.929688 C 582.113281 776.445312 580.015625 775.4375 578.6875 774.71875 C 572.890625 771.558594 574.421875 766.878906 576.6875 762.71875 L 594.074219 730.769531 L 585.917969 726.332031 L 568.824219 757.734375 C 562.582031 769.203125 563.449219 775.742188 573.324219 781.113281 C 575.070312 782.066406 577.699219 783.320312 579.59375 783.859375 "/>
<g clip-path="url(#clip7)" clip-rule="nonzero">
<path style=" stroke:none;fill-rule:nonzero;fill:rgb(86.743164%,8.988953%,19.160461%);fill-opacity:1;" d="M 0 841.890625 L 17.007812 841.890625 L 17.007812 0 L 0 0 Z M 0 841.890625 "/>
</g>
<path style=" stroke:none;fill-rule:nonzero;fill:rgb(100%,100%,100%);fill-opacity:1;" d="M 515.660156 54.507812 L 515.660156 66.957031 C 515.660156 73.105469 518.8125 78.304688 525.761719 78.304688 C 531.261719 78.304688 533.710938 74.207031 534.410156 71.707031 C 535.210938 74.605469 537.910156 77.054688 542.0625 77.054688 C 547.0625 77.054688 550.660156 73.507812 550.660156 66.757812 L 550.660156 54.507812 Z M 535.609375 57.257812 L 548.0625 57.257812 L 548.0625 66.90625 C 548.0625 71.757812 545.3125 74.105469 541.859375 74.105469 C 537.859375 74.105469 535.609375 71.855469 535.609375 65.855469 Z M 533.0625 57.257812 L 533.0625 65.605469 C 533.0625 72.605469 530.0625 75.40625 525.609375 75.40625 C 520.511719 75.40625 518.210938 71.605469 518.210938 67.007812 L 518.210938 57.257812 Z M 533.359375 102.355469 C 538.859375 102.355469 541.261719 99.105469 541.261719 93.40625 C 541.261719 86.457031 537.0625 84.757812 534.261719 84.457031 L 534.261719 87.054688 C 536.3125 87.605469 538.910156 88.355469 538.910156 93.355469 C 538.910156 99.007812 535.609375 99.757812 533.109375 99.757812 L 530.609375 99.757812 L 530.609375 95.007812 C 530.609375 87.507812 528.0625 83.257812 522.5625 83.257812 C 518.8125 83.257812 515.0625 85.757812 515.0625 91.554688 C 515.0625 96.707031 517.660156 98.90625 519.460938 99.757812 C 517.359375 99.855469 516.261719 100.007812 515.660156 100.207031 L 515.660156 102.707031 C 516.460938 102.554688 518.261719 102.355469 520.460938 102.355469 Z M 527.511719 99.804688 C 522.160156 99.804688 517.410156 98.804688 517.410156 91.707031 C 517.410156 88.207031 519.5625 86.007812 522.660156 86.007812 C 526.960938 86.007812 528.410156 89.40625 528.410156 94.90625 L 528.410156 99.804688 Z M 523.011719 126.355469 C 519.3125 125.105469 517.460938 122.90625 517.460938 119.304688 C 517.460938 114.105469 522.210938 111.304688 528.160156 111.304688 C 534.410156 111.304688 538.859375 114.253906 538.859375 119.554688 C 538.859375 123.753906 536.160156 125.65625 533.261719 126.355469 L 533.261719 129.003906 C 536.761719 128.605469 541.261719 126.003906 541.261719 119.605469 C 541.261719 112.207031 534.960938 108.554688 528.0625 108.554688 C 519.710938 108.554688 515.0625 113.003906 515.0625 119.304688 C 515.0625 124.957031 518.660156 127.855469 523.011719 129.003906 Z M 552.511719 134.804688 L 515.660156 134.804688 L 515.660156 137.40625 L 529.609375 137.40625 C 535.710938 137.40625 538.761719 140.203125 538.761719 145.105469 C 538.761719 149.253906 535.960938 151.453125 531.0625 151.453125 L 515.660156 151.453125 L 515.660156 154.054688 L 531.5625 154.054688 C 539.460938 154.054688 541.261719 149.203125 541.261719 145.605469 C 541.261719 141.203125 539.109375 138.804688 536.511719 137.40625 L 552.511719 137.40625 Z M 527.859375 181.253906 C 528.511719 181.304688 529.210938 181.304688 529.910156 181.304688 C 534.660156 181.304688 541.261719 178.855469 541.261719 171.15625 C 541.261719 163.804688 535.160156 160.253906 527.960938 160.253906 C 521.609375 160.253906 515.0625 163.203125 515.0625 170.855469 C 515.0625 177.003906 518.859375 179.703125 522.160156 180.753906 L 522.160156 178.054688 C 520.109375 177.203125 517.460938 175.605469 517.460938 170.953125 C 517.460938 166.15625 521.460938 162.953125 527.859375 162.90625 Z M 530.109375 163.054688 C 535.3125 163.605469 538.859375 165.90625 538.859375 171.054688 C 538.859375 175.90625 535.011719 178.554688 530.109375 178.605469 Z M 515.660156 190.203125 L 552.511719 190.203125 L 552.511719 187.605469 L 515.660156 187.605469 Z M 541.261719 207.605469 C 541.261719 200.304688 535.359375 196.355469 528.160156 196.355469 C 520.609375 196.355469 515.0625 200.554688 515.0625 207.355469 C 515.0625 214.804688 521.261719 218.652344 528.210938 218.652344 C 536.0625 218.652344 541.261719 214.253906 541.261719 207.605469 M 538.859375 207.453125 C 538.859375 212.953125 534.0625 215.902344 528.160156 215.902344 C 521.910156 215.902344 517.460938 212.902344 517.460938 207.554688 C 517.460938 202.253906 522.261719 199.105469 528.160156 199.105469 C 534.160156 199.105469 538.859375 201.804688 538.859375 207.453125 M 515.660156 224.855469 L 515.660156 227.453125 L 528.609375 227.453125 C 534.609375 227.453125 538.160156 230.953125 538.511719 236.152344 L 541.261719 236.152344 C 541.0625 232.054688 538.859375 228.902344 535.109375 227.453125 C 538.261719 227.453125 539.910156 227.402344 540.660156 227.355469 L 540.660156 224.804688 C 539.859375 224.804688 538.0625 224.855469 533.859375 224.855469 Z M 515.660156 224.855469 "/>
<path style=" stroke:none;fill-rule:nonzero;fill:rgb(94.999695%,94.999695%,95.999146%);fill-opacity:1;" d="M 495.25 80.339844 C 495.242188 80.359375 495.234375 80.375 495.230469 80.394531 C 492.183594 87.277344 484.105469 90.402344 477.222656 87.359375 C 470.335938 84.316406 467.210938 76.238281 470.253906 69.351562 C 472.027344 65.34375 475.507812 62.625 479.460938 61.636719 L 468.800781 56.925781 C 465.914062 59.160156 463.527344 62.117188 461.953125 65.679688 C 456.882812 77.144531 462.085938 90.59375 473.550781 95.660156 C 485.015625 100.726562 498.460938 95.527344 503.53125 84.0625 C 503.539062 84.046875 503.542969 84.027344 503.550781 84.011719 Z M 495.25 80.339844 "/>
<path style=" stroke:none;fill-rule:nonzero;fill:rgb(94.999695%,94.999695%,95.999146%);fill-opacity:1;" d="M 577.535156 210.15625 L 564.679688 180.554688 L 573.007812 176.9375 L 585.859375 206.539062 Z M 577.535156 210.15625 "/>
<path style=" stroke:none;fill-rule:nonzero;fill:rgb(86.743164%,8.988953%,19.160461%);fill-opacity:1;" d="M 117.464844 54.113281 L 117.464844 70.539062 C 117.464844 76.230469 120.464844 77.855469 123.617188 77.855469 C 127.261719 77.855469 129.660156 75.996094 129.660156 70.539062 L 129.660156 54.113281 L 134.824219 54.113281 L 134.824219 70.28125 C 134.824219 79.507812 129.523438 81.960938 123.539062 81.960938 C 117.5 81.960938 112.285156 79.371094 112.285156 70.441406 L 112.285156 54.113281 Z M 117.464844 54.113281 "/>
<path style=" stroke:none;fill-rule:nonzero;fill:rgb(86.743164%,8.988953%,19.160461%);fill-opacity:1;" d="M 140.089844 54.097656 L 145.027344 54.097656 L 145.027344 58.925781 L 140.089844 58.925781 Z M 140.089844 62.730469 L 145.027344 62.730469 L 145.027344 81.585938 L 140.089844 81.585938 Z M 140.089844 62.730469 "/>
<path style=" stroke:none;fill-rule:nonzero;fill:rgb(86.743164%,8.988953%,19.160461%);fill-opacity:1;" d="M 156.058594 74.589844 L 153.636719 81.585938 L 148.554688 81.585938 L 158.039062 54.113281 L 164.480469 54.113281 L 174.375 81.585938 L 168.941406 81.585938 L 166.410156 74.589844 Z M 165.25 70.320312 C 163.070312 64.035156 161.761719 60.285156 161.121094 57.945312 L 161.082031 57.945312 C 160.40625 60.523438 158.953125 64.949219 157.203125 70.320312 Z M 165.25 70.320312 "/>
<path style=" stroke:none;fill-rule:nonzero;fill:rgb(86.743164%,8.988953%,19.160461%);fill-opacity:1;" d="M 75.1875 59.910156 L 78.921875 59.910156 C 78.195312 56.007812 79.140625 54.410156 82.390625 54.410156 L 96.667969 54.410156 L 96.667969 50.472656 L 82.304688 50.472656 C 76.675781 50.472656 73.902344 53.773438 75.1875 59.910156 "/>
<path style=" stroke:none;fill-rule:nonzero;fill:rgb(86.743164%,8.988953%,19.160461%);fill-opacity:1;" d="M 92.496094 91.78125 L 96.667969 91.78125 L 96.667969 65.644531 L 92.496094 65.644531 Z M 92.496094 91.78125 "/>
<path style=" stroke:none;fill-rule:nonzero;fill:rgb(86.743164%,8.988953%,19.160461%);fill-opacity:1;" d="M 83.953125 91.78125 L 88.125 91.78125 L 88.125 65.644531 L 83.953125 65.644531 Z M 83.953125 91.78125 "/>
<path style=" stroke:none;fill-rule:nonzero;fill:rgb(86.743164%,8.988953%,19.160461%);fill-opacity:1;" d="M 96.667969 57.878906 L 83.714844 57.878906 L 83.714844 61.859375 L 96.667969 61.859375 Z M 96.667969 57.878906 "/>
<path style=" stroke:none;fill-rule:nonzero;fill:rgb(86.743164%,8.988953%,19.160461%);fill-opacity:1;" d="M 74.15625 87.949219 C 69.992188 87.796875 67.230469 85.390625 67.300781 81.894531 C 67.363281 78.75 69.519531 76.125 72.671875 76.125 C 74.570312 76.125 76.347656 76.53125 77.628906 78.066406 L 77.628906 73.921875 C 76.261719 72.816406 74.375 72.339844 72.746094 72.339844 C 67.863281 72.339844 63.542969 76.136719 63.542969 81.558594 C 63.542969 84.003906 64.6875 86.207031 65.960938 87.613281 C 62.433594 85.863281 60.3125 82.742188 60.3125 77.984375 C 60.3125 72.472656 64.800781 68.261719 70.316406 68.261719 C 71.253906 68.261719 72.125 68.34375 73.074219 68.597656 L 73.074219 64.457031 C 72.34375 64.289062 71.265625 64.207031 70.476562 64.207031 C 62.875 64.207031 56.691406 70.390625 56.691406 77.988281 C 56.691406 86.5625 63.019531 91.769531 70.203125 91.769531 L 79.574219 91.78125 L 79.574219 87.984375 C 79.574219 87.984375 76.386719 87.96875 74.15625 87.949219 Z M 74.15625 87.949219 "/>
<path style=" stroke:none;fill-rule:nonzero;fill:rgb(86.743164%,8.988953%,19.160461%);fill-opacity:1;" d="M 56.992188 42.519531 L 56.992188 66.179688 C 58.070312 65.027344 59.105469 64.089844 60.546875 63.289062 L 60.546875 46.101562 L 96.667969 46.101562 L 96.667969 42.519531 Z M 56.992188 42.519531 "/>
<path style=" stroke:none;fill-rule:nonzero;fill:rgb(86.743164%,8.988953%,19.160461%);fill-opacity:1;" d="M 182.40625 54.066406 L 182.40625 61.070312 C 182.40625 63.726562 183.847656 64.457031 185.296875 64.457031 C 186.988281 64.457031 188.15625 63.65625 188.15625 61.070312 L 188.15625 54.066406 L 189.898438 54.066406 L 189.898438 60.984375 C 189.898438 64.804688 187.757812 65.875 185.261719 65.875 C 182.792969 65.875 180.65625 64.722656 180.65625 61.078125 L 180.65625 54.066406 Z M 182.40625 54.066406 "/>
<path style=" stroke:none;fill-rule:nonzero;fill:rgb(86.743164%,8.988953%,19.160461%);fill-opacity:1;" d="M 192.257812 59.332031 C 192.257812 58.59375 192.257812 57.835938 192.238281 57.179688 L 193.839844 57.179688 C 193.882812 57.425781 193.90625 58.265625 193.90625 58.523438 C 194.238281 57.828125 194.929688 56.980469 196.554688 56.980469 C 198.179688 56.980469 199.40625 57.992188 199.40625 60.242188 L 199.40625 65.726562 L 197.757812 65.726562 L 197.757812 60.445312 C 197.757812 59.21875 197.289062 58.378906 196.035156 58.378906 C 194.539062 58.378906 193.90625 59.480469 193.90625 61.15625 L 193.90625 65.726562 L 192.257812 65.726562 Z M 192.257812 59.332031 "/>
<path style=" stroke:none;fill-rule:nonzero;fill:rgb(86.743164%,8.988953%,19.160461%);fill-opacity:1;" d="M 201.839844 53.414062 L 203.488281 53.414062 L 203.488281 55.3125 L 201.839844 55.3125 Z M 201.839844 57.179688 L 203.488281 57.179688 L 203.488281 65.726562 L 201.839844 65.726562 Z M 201.839844 57.179688 "/>
<path style=" stroke:none;fill-rule:nonzero;fill:rgb(86.743164%,8.988953%,19.160461%);fill-opacity:1;" d="M 206.730469 57.179688 C 207.816406 60.558594 208.625 63.15625 208.871094 64.214844 L 208.886719 64.214844 C 209.101562 63.175781 209.996094 60.609375 211.175781 57.179688 L 212.84375 57.179688 L 209.722656 65.726562 L 207.929688 65.726562 L 204.964844 57.179688 Z M 206.730469 57.179688 "/>
<path style=" stroke:none;fill-rule:nonzero;fill:rgb(86.743164%,8.988953%,19.160461%);fill-opacity:1;" d="M 215.246094 61.769531 C 215.253906 63.378906 216.0625 64.574219 217.460938 64.574219 C 218.742188 64.574219 219.152344 63.9375 219.414062 63.332031 L 221.070312 63.332031 C 220.742188 64.417969 219.820312 65.929688 217.414062 65.929688 C 214.699219 65.929688 213.582031 63.761719 213.582031 61.550781 C 213.582031 58.984375 214.878906 56.980469 217.503906 56.980469 C 220.296875 56.980469 221.21875 59.171875 221.21875 61.058594 C 221.21875 61.320312 221.21875 61.535156 221.195312 61.769531 Z M 219.554688 60.648438 C 219.535156 59.320312 218.890625 58.25 217.488281 58.25 C 216.054688 58.25 215.433594 59.242188 215.296875 60.648438 Z M 219.554688 60.648438 "/>
<path style=" stroke:none;fill-rule:nonzero;fill:rgb(86.743164%,8.988953%,19.160461%);fill-opacity:1;" d="M 223.070312 59.5 C 223.070312 58.375 223.0625 57.6875 223.054688 57.179688 L 224.671875 57.179688 C 224.695312 57.410156 224.71875 58.117188 224.71875 58.878906 C 225.152344 57.753906 226.152344 57.015625 227.574219 56.980469 L 227.574219 58.601562 C 225.828125 58.636719 224.71875 59.464844 224.71875 61.660156 L 224.71875 65.726562 L 223.070312 65.726562 Z M 223.070312 59.5 "/>
<path style=" stroke:none;fill-rule:nonzero;fill:rgb(86.743164%,8.988953%,19.160461%);fill-opacity:1;" d="M 230.070312 63.257812 C 230.304688 64.144531 230.96875 64.660156 232.074219 64.660156 C 233.253906 64.660156 233.714844 64.164062 233.714844 63.4375 C 233.714844 62.6875 233.328125 62.34375 231.773438 61.96875 C 229.265625 61.355469 228.765625 60.585938 228.765625 59.417969 C 228.765625 58.199219 229.65625 56.980469 231.925781 56.980469 C 234.203125 56.980469 235.105469 58.28125 235.207031 59.464844 L 233.621094 59.464844 C 233.507812 58.960938 233.128906 58.222656 231.855469 58.222656 C 230.738281 58.222656 230.402344 58.753906 230.402344 59.28125 C 230.402344 59.878906 230.734375 60.171875 232.269531 60.539062 C 234.910156 61.160156 235.40625 62.046875 235.40625 63.316406 C 235.40625 64.796875 234.238281 65.929688 232.019531 65.929688 C 229.730469 65.929688 228.648438 64.785156 228.4375 63.257812 Z M 230.070312 63.257812 "/>
<path style=" stroke:none;fill-rule:nonzero;fill:rgb(86.743164%,8.988953%,19.160461%);fill-opacity:1;" d="M 237.238281 53.414062 L 238.886719 53.414062 L 238.886719 55.3125 L 237.238281 55.3125 Z M 237.238281 57.179688 L 238.886719 57.179688 L 238.886719 65.726562 L 237.238281 65.726562 Z M 237.238281 57.179688 "/>
<path style=" stroke:none;fill-rule:nonzero;fill:rgb(86.743164%,8.988953%,19.160461%);fill-opacity:1;" d="M 240.355469 57.179688 L 241.800781 57.179688 L 241.800781 54.699219 L 243.449219 54.699219 L 243.449219 57.179688 L 245.296875 57.179688 L 245.296875 58.496094 L 243.449219 58.496094 L 243.449219 63.347656 C 243.449219 64.144531 243.652344 64.535156 244.410156 64.535156 C 244.601562 64.535156 244.894531 64.527344 245.117188 64.472656 L 245.117188 65.6875 C 244.730469 65.824219 244.199219 65.84375 243.777344 65.84375 C 242.382812 65.84375 241.800781 65.117188 241.800781 63.683594 L 241.800781 58.496094 L 240.355469 58.496094 Z M 240.355469 57.179688 "/>
<path style=" stroke:none;fill-rule:nonzero;fill:rgb(86.743164%,8.988953%,19.160461%);fill-opacity:1;" d="M 247.835938 61.769531 C 247.847656 63.378906 248.65625 64.574219 250.054688 64.574219 C 251.335938 64.574219 251.742188 63.9375 252.003906 63.332031 L 253.664062 63.332031 C 253.332031 64.417969 252.414062 65.929688 250.003906 65.929688 C 247.292969 65.929688 246.171875 63.761719 246.171875 61.550781 C 246.171875 58.984375 247.472656 56.980469 250.097656 56.980469 C 252.890625 56.980469 253.8125 59.171875 253.8125 61.058594 C 253.8125 61.320312 253.8125 61.535156 253.785156 61.769531 Z M 252.144531 60.648438 C 252.128906 59.320312 251.480469 58.25 250.078125 58.25 C 248.648438 58.25 248.027344 59.242188 247.886719 60.648438 Z M 252.144531 60.648438 "/>
<path style=" stroke:none;fill-rule:nonzero;fill:rgb(86.743164%,8.988953%,19.160461%);fill-opacity:1;" d="M 254.667969 57.179688 L 256.117188 57.179688 L 256.117188 54.699219 L 257.761719 54.699219 L 257.761719 57.179688 L 259.609375 57.179688 L 259.609375 58.496094 L 257.761719 58.496094 L 257.761719 63.347656 C 257.761719 64.144531 257.964844 64.535156 258.726562 64.535156 C 258.914062 64.535156 259.207031 64.527344 259.429688 64.472656 L 259.429688 65.6875 C 259.046875 65.824219 258.511719 65.84375 258.089844 65.84375 C 256.695312 65.84375 256.117188 65.117188 256.117188 63.683594 L 256.117188 58.496094 L 254.667969 58.496094 Z M 254.667969 57.179688 "/>
<path style=" stroke:none;fill-rule:nonzero;fill:rgb(86.743164%,8.988953%,19.160461%);fill-opacity:1;" d="M 262.152344 61.769531 C 262.160156 63.378906 262.96875 64.574219 264.367188 64.574219 C 265.648438 64.574219 266.054688 63.9375 266.320312 63.332031 L 267.976562 63.332031 C 267.648438 64.417969 266.726562 65.929688 264.316406 65.929688 C 261.605469 65.929688 260.484375 63.761719 260.484375 61.550781 C 260.484375 58.984375 261.785156 56.980469 264.410156 56.980469 C 267.203125 56.980469 268.125 59.171875 268.125 61.058594 C 268.125 61.320312 268.125 61.535156 268.097656 61.769531 Z M 266.457031 60.648438 C 266.441406 59.320312 265.792969 58.25 264.390625 58.25 C 262.960938 58.25 262.339844 59.242188 262.199219 60.648438 Z M 266.457031 60.648438 "/>
<path style=" stroke:none;fill-rule:nonzero;fill:rgb(86.743164%,8.988953%,19.160461%);fill-opacity:1;" d="M 268.980469 57.179688 L 270.429688 57.179688 L 270.429688 54.699219 L 272.078125 54.699219 L 272.078125 57.179688 L 273.921875 57.179688 L 273.921875 58.496094 L 272.078125 58.496094 L 272.078125 63.347656 C 272.078125 64.144531 272.277344 64.535156 273.039062 64.535156 C 273.230469 64.535156 273.519531 64.527344 273.742188 64.472656 L 273.742188 65.6875 C 273.359375 65.824219 272.828125 65.84375 272.40625 65.84375 C 271.007812 65.84375 270.429688 65.117188 270.429688 63.683594 L 270.429688 58.496094 L 268.980469 58.496094 Z M 268.980469 57.179688 "/>
<path style=" stroke:none;fill-rule:nonzero;fill:rgb(86.743164%,8.988953%,19.160461%);fill-opacity:1;" d="M 181.15625 69.269531 L 182.804688 69.269531 L 182.804688 71.164062 L 181.15625 71.164062 Z M 181.15625 73.035156 L 182.804688 73.035156 L 182.804688 81.582031 L 181.15625 81.582031 Z M 181.15625 73.035156 "/>
<path style=" stroke:none;fill-rule:nonzero;fill:rgb(86.743164%,8.988953%,19.160461%);fill-opacity:1;" d="M 190.785156 78.234375 L 189.59375 81.582031 L 187.878906 81.582031 L 191.996094 69.921875 L 194.136719 69.921875 L 198.429688 81.582031 L 196.59375 81.582031 L 195.363281 78.234375 Z M 194.9375 76.769531 C 193.882812 73.820312 193.285156 72.203125 193.027344 71.285156 L 193.011719 71.285156 C 192.726562 72.304688 192.0625 74.246094 191.210938 76.769531 Z M 194.9375 76.769531 "/>
<path style=" stroke:none;fill-rule:nonzero;fill:rgb(86.743164%,8.988953%,19.160461%);fill-opacity:1;" d="M 207.246094 80.757812 C 207.246094 83.5 206.140625 85.09375 203.261719 85.09375 C 200.570312 85.09375 199.808594 83.585938 199.667969 82.460938 L 201.347656 82.460938 C 201.582031 83.328125 202.269531 83.808594 203.335938 83.808594 C 205.195312 83.808594 205.640625 82.632812 205.640625 80.722656 L 205.640625 80.085938 C 205.1875 81.003906 204.417969 81.527344 203.019531 81.527344 C 200.886719 81.527344 199.484375 79.789062 199.484375 77.324219 C 199.484375 74.554688 201.101562 72.832031 203.183594 72.832031 C 204.78125 72.832031 205.457031 73.585938 205.640625 74.121094 C 205.65625 73.761719 205.699219 73.203125 205.714844 73.035156 L 207.273438 73.035156 C 207.265625 73.582031 207.246094 74.679688 207.246094 75.5 Z M 201.191406 77.253906 C 201.191406 78.988281 202.085938 80.144531 203.417969 80.144531 C 205.179688 80.144531 205.6875 78.957031 205.6875 77.148438 C 205.6875 75.320312 205.230469 74.210938 203.464844 74.210938 C 201.996094 74.210938 201.191406 75.429688 201.191406 77.253906 "/>
<path style=" stroke:none;fill-rule:nonzero;fill:rgb(86.743164%,8.988953%,19.160461%);fill-opacity:1;" d="M 216.964844 69.269531 L 216.964844 79.179688 C 216.964844 79.976562 216.964844 80.765625 216.984375 81.582031 L 215.398438 81.582031 C 215.359375 81.347656 215.324219 80.734375 215.316406 80.429688 C 214.898438 81.277344 214.058594 81.78125 212.679688 81.78125 C 210.488281 81.78125 209.136719 80.011719 209.136719 77.394531 C 209.136719 74.761719 210.59375 72.832031 212.96875 72.832031 C 214.425781 72.832031 215.097656 73.410156 215.316406 73.871094 L 215.316406 69.269531 Z M 210.839844 77.34375 C 210.839844 79.332031 211.757812 80.40625 213.066406 80.40625 C 214.992188 80.40625 215.382812 78.957031 215.382812 77.207031 C 215.382812 75.390625 215.023438 74.210938 213.171875 74.210938 C 211.714844 74.210938 210.839844 75.359375 210.839844 77.34375 "/>
<path style=" stroke:none;fill-rule:nonzero;fill:rgb(86.743164%,8.988953%,19.160461%);fill-opacity:1;" d="M 220.476562 77.621094 C 220.488281 79.230469 221.296875 80.429688 222.695312 80.429688 C 223.976562 80.429688 224.382812 79.792969 224.644531 79.1875 L 226.304688 79.1875 C 225.972656 80.273438 225.054688 81.785156 222.644531 81.785156 C 219.933594 81.785156 218.8125 79.613281 218.8125 77.40625 C 218.8125 74.835938 220.113281 72.832031 222.738281 72.832031 C 225.53125 72.832031 226.453125 75.027344 226.453125 76.910156 C 226.453125 77.175781 226.453125 77.390625 226.425781 77.621094 Z M 224.785156 76.503906 C 224.769531 75.175781 224.121094 74.101562 222.71875 74.101562 C 221.289062 74.101562 220.667969 75.097656 220.527344 76.503906 Z M 224.785156 76.503906 "/>
<path style=" stroke:none;fill-rule:nonzero;fill:rgb(86.743164%,8.988953%,19.160461%);fill-opacity:1;" d="M 228.304688 75.355469 C 228.304688 74.226562 228.292969 73.539062 228.285156 73.035156 L 229.902344 73.035156 C 229.929688 73.265625 229.953125 73.96875 229.953125 74.730469 C 230.386719 73.609375 231.382812 72.867188 232.804688 72.832031 L 232.804688 74.457031 C 231.058594 74.488281 229.953125 75.316406 229.953125 77.515625 L 229.953125 81.582031 L 228.304688 81.582031 Z M 228.304688 75.355469 "/>
</g>
</svg>
