<?xml version="1.0" encoding="UTF-8" standalone="no"?>
<!-- Created with Inkscape (http://www.inkscape.org/) -->

<svg
   xmlns:dc="http://purl.org/dc/elements/1.1/"
   xmlns:cc="http://creativecommons.org/ns#"
   xmlns:rdf="http://www.w3.org/1999/02/22-rdf-syntax-ns#"
   xmlns:svg="http://www.w3.org/2000/svg"
   xmlns="http://www.w3.org/2000/svg"
   xmlns:sodipodi="http://sodipodi.sourceforge.net/DTD/sodipodi-0.dtd"
   xmlns:inkscape="http://www.inkscape.org/namespaces/inkscape"
   width="361.64661mm"
   height="65.339378mm"
   viewBox="0 0 361.64661 65.339378"
   version="1.1"
   id="svg8"
   inkscape:version="0.92.4 (5da689c313, 2019-01-14)"
   sodipodi:docname="HESSO_Pictogram_only.svg">
  <defs
     id="defs2" />
  <sodipodi:namedview
     id="base"
     pagecolor="#ffffff"
     bordercolor="#666666"
     borderopacity="1.0"
     inkscape:pageopacity="0.0"
     inkscape:pageshadow="2"
     inkscape:zoom="0.35"
     inkscape:cx="-290.85905"
     inkscape:cy="737.76173"
     inkscape:document-units="mm"
     inkscape:current-layer="layer1"
     showgrid="false"
     fit-margin-top="0"
     fit-margin-left="0"
     fit-margin-right="0"
     fit-margin-bottom="0"
     inkscape:window-width="1920"
     inkscape:window-height="1017"
     inkscape:window-x="-8"
     inkscape:window-y="32"
     inkscape:window-maximized="1" />
  <metadata
     id="metadata5">
    <rdf:RDF>
      <cc:Work
         rdf:about="">
        <dc:format>image/svg+xml</dc:format>
        <dc:type
           rdf:resource="http://purl.org/dc/dcmitype/StillImage" />
        <dc:title></dc:title>
      </cc:Work>
    </rdf:RDF>
  </metadata>
  <g
     inkscape:label="Layer 1"
     inkscape:groupmode="layer"
     id="layer1"
     transform="translate(-182.78979,-278.69341)">
    <g
       transform="matrix(0.35277777,0,0,-0.35277777,182.78979,344.03279)"
       inkscape:label="ink_ext_XXXXXX"
       id="g18">
      <g
         transform="scale(0.1)"
         id="g20">
        <path
           inkscape:connector-curvature="0"
           id="path22"
           style="fill:#00a5e5;fill-opacity:1;fill-rule:nonzero;stroke:none"
           d="m 2099.79,141.551 c 0,-78.1526 63.36,-141.5392812 141.5,-141.5392812 h 1569.09 c 78.14,0 141.49,63.3866812 141.49,141.5392812 V 1710.59 c 0,78.19 -63.35,141.55 -141.49,141.55 H 2241.29 c -78.14,0 -141.5,-63.36 -141.5,-141.55 V 141.551" />
        <path
           inkscape:connector-curvature="0"
           id="path24"
           style="fill:#ffffff;fill-opacity:1;fill-rule:nonzero;stroke:none"
           d="m 2610.25,1407.11 h 796.38 c 0,0 1.86,-50.27 5.1,-102.59 3.31,-55.33 7.74,-113.05 7.49,-117.61 -0.68,-8.68 -2.64,-17.14 -13.53,-20.96 -8.59,-3.02 -18.1,3.18 -20.4,20.36 -2.21,16.84 -6.05,33.97 -18.72,64.55 -5.69,13.6 -30.95,43.79 -65.73,59.46 -39.8,18.02 -87.92,17.91 -106.98,17.91 h -329.6 c 79.26,-115.23 191.6,-274.39 217.45,-319.38 10.87,-18.791 10.62,-42.912 -24.23,-92.952 -34.88,-50.039 -226.97,-301.16 -226.97,-301.16 h 375.43 c 55.95,0 96.77,6.274 122.62,18.66 25.76,12.332 45.07,57.793 49.67,74.481 4.41,16.59 6.45,32.953 26.01,31.891 12.59,-0.68 15.23,-15.301 15.39,-26.09 0,-4.758 -6.88,-64.668 -13.26,-119.899 -7.74,-68.281 -15.3,-134.152 -15.3,-134.152 h -775.79 c -10.81,0 -19.22,0 -22.11,7.191 -4.24,10.629 0.68,19.282 8.67,28.86 13.18,15.769 201.03,255.5 280.11,374.008 19.64,29.636 32.74,51.656 28.74,66.539 -4.58,17.089 -25.84,48.816 -55.01,92.933 -85.12,129.18 -244.83,330.92 -252.22,341.43 -10.12,14.03 -13.27,20.95 -8.85,30.47 2.65,6.05 8.94,6.05 15.64,6.05" />
        <path
           inkscape:connector-curvature="0"
           id="path26"
           style="fill:#e20571;fill-opacity:1;fill-rule:nonzero;stroke:none"
           d="m 4199.61,141.551 c 0,-78.1526 63.36,-141.5392812 141.5,-141.5392812 h 1569.11 c 78.14,0 141.48,63.3866812 141.48,141.5392812 V 1710.59 c 0,78.19 -63.34,141.55 -141.48,141.55 H 4341.11 c -78.14,0 -141.5,-63.36 -141.5,-141.55 V 141.551" />
        <path
           inkscape:connector-curvature="0"
           id="path28"
           style="fill:#ffffff;fill-opacity:1;fill-rule:nonzero;stroke:none"
           d="m 5235.11,1263.05 h -213.87 c -10.63,-123.98 -20.85,-229.42 -30.69,-308.581 -9.96,-79.168 -19.4,-139.418 -28.42,-196.43 -9.61,-56.949 -19.21,-108.898 -28.98,-155.699 -8.16,-36.668 -19.57,-65.031 -35.47,-85.559 -15.47,-20.66 -38.27,-34.98 -68.2,-43.031 -25,-6.09 -49.48,-1.148 -74.07,14.77 -24.14,16.062 -38.6,35.191 -43.8,57.421 -3.66,16.489 -4.66,30.489 -2.71,41.969 1.53,11.43 4.92,22.012 10.12,31.899 5.01,9.812 10.46,18.703 16.83,26.902 5.8,7.949 12.34,15.918 19.05,23.98 2.22,2.469 12.84,15.039 32.31,37.789 19.56,22.829 33.94,43.68 43.98,62.54 9.68,18.73 31.12,60.039 41.82,111.488 10.89,51.457 32.83,227.482 32.42,380.542 h -89.98 c -25.43,0 -50.17,-8.34 -73.48,-20.49 -22.69,-11.93 -42.77,-32.09 -51.77,-43.58 -9.53,-11.87 -34.03,-51.53 -39.98,-59.14 -5.7,-7.7 -17.35,-25.33 -26.28,-22.63 -9.69,3.07 -7.56,13.91 -6.03,22.63 1.7,8.66 19.21,52.97 32.31,86.31 13.44,33.67 31.29,66.15 54.08,97.56 17.61,26.73 41.92,45.59 72.04,64.74 30.43,19.58 65.38,29.29 105.61,29.29 h 655.21 c 11.39,0 72.96,-4.9 72.96,-76.76 0,-71.75 -65.4,-77.93 -72.96,-77.93 h -186.07 c -15.55,-147.45 -23.21,-299.577 -23.21,-448.78 0,-27.071 4.5,-53.649 13.85,-79.442 9.36,-25.969 20.76,-45.668 34.28,-59.039 17.52,-16.187 38.43,-26.469 63.51,-31.187 25.27,-4.563 50.6,3.218 76.37,23.5 14.22,11.269 24.49,23.859 31.3,37.847 6.38,14.223 10.46,28 12.4,40.832 1.7,13.008 4.6,31.309 5.13,35.719 0.51,4.441 -0.36,20.59 18.01,21.988 18.37,1.422 20.24,-14.879 21.95,-32.547 1.51,-17.73 -7.91,-83.562 -22.72,-124.472 -14.79,-41.141 -32.64,-74.02 -52.98,-98.891 -20.48,-25.168 -40.38,-43.098 -60.01,-54.117 -22.38,-13.563 -48.49,-21.731 -77.9,-24.582 -29.95,-2.758 -57.15,4.152 -81.65,20.723 -40.73,29.796 -71.93,76.25 -92.68,139.668 -12.17,37.05 -18.37,85.832 -19.73,146.609 -1.87,60.742 0.18,120.055 5.78,178.008 l 32.32,308.163" />
        <path
           inkscape:connector-curvature="0"
           id="path30"
           style="fill:#eeb00e;fill-opacity:1;fill-rule:nonzero;stroke:none"
           d="m 6299.44,141.551 c 0,-78.1526 63.36,-141.5392812 141.5,-141.5392812 h 1569.09 c 78.16,0 141.51,63.3866812 141.51,141.5392812 V 1710.59 c 0,78.19 -63.35,141.55 -141.51,141.55 H 6440.94 c -78.14,0 -141.5,-63.36 -141.5,-141.55 V 141.551" />
        <path
           inkscape:connector-curvature="0"
           id="path32"
           style="fill:#ffffff;fill-opacity:1;fill-rule:nonzero;stroke:none"
           d="m 6730.74,1007.61 c -11.04,5.09 -10.88,27.07 0.85,60.5 14.89,40.46 30.63,69.39 52.82,97.8 20.5,26.61 65.82,64.91 99.16,79.8 33.24,14.92 69.39,19.86 114.89,20.74 56.96,1.15 141.4,-28.48 238.68,-68.83 97.63,-40.23 186.91,-59.24 228.58,-58.66 61.48,0.71 123.39,12.87 176.78,50.67 31.81,22.35 44.65,37.66 59.7,68.26 4.6,9.37 10.64,11.46 17.1,7.8 10.3,-5.83 9.94,-20.33 7.4,-39.5 -14.71,-101.1 -58.34,-155.74 -103.23,-186.3 -23.3,-15.78 -57.83,-37.89 -109.03,-43.812 -51.36,-5.863 -140.64,10.132 -168.88,17.812 -55.35,14.81 -122.96,46.81 -163.44,62.81 -40.03,16.2 -70.66,31.47 -91.32,37.83 -16.15,4.42 -80.11,27.78 -138.61,25.18 -31.97,-1.33 -87.25,-13.26 -128.65,-39.88 -34.61,-22.45 -56.99,-51.01 -70.16,-75.97 -6.13,-11.5 -14.38,-20.22 -22.64,-16.25" />
        <path
           inkscape:connector-curvature="0"
           id="path34"
           style="fill:#ffffff;fill-opacity:1;fill-rule:nonzero;stroke:none"
           d="m 6730.74,598.41 c -11.04,5.11 -10.88,27.09 0.85,60.512 14.89,40.469 30.63,69.379 52.82,97.777 20.5,26.621 65.82,64.942 99.16,79.813 33.24,14.918 69.39,19.863 114.89,20.742 56.96,1.152 141.4,-28.465 238.68,-68.813 97.63,-40.25 186.91,-59.23 228.58,-58.679 61.48,0.707 123.39,12.879 176.78,50.668 31.81,22.359 44.65,37.66 59.7,68.242 4.6,9.383 10.64,11.473 17.1,7.82 10.3,-5.832 9.94,-20.312 7.4,-39.492 -14.71,-101.109 -58.34,-155.75 -103.23,-186.328 -23.3,-15.774 -57.83,-37.852 -109.03,-43.781 -51.36,-5.879 -140.64,10.121 -168.88,17.808 -55.35,14.801 -122.96,46.813 -163.44,62.813 -40.03,16.168 -70.66,31.457 -91.32,37.84 -16.15,4.418 -80.11,27.757 -138.61,25.179 -31.97,-1.32 -87.25,-13.281 -128.65,-39.902 -34.61,-22.469 -56.99,-51.008 -70.16,-75.969 -6.13,-11.48 -14.38,-20.199 -22.64,-16.25" />
        <path
           inkscape:connector-curvature="0"
           id="path36"
           style="fill:#00a770;fill-opacity:1;fill-rule:nonzero;stroke:none"
           d="m 8399.29,141.551 c 0,-78.1526 63.34,-141.5392812 141.49,-141.5392812 h 1569.12 c 78.1,0 141.5,63.3866812 141.5,141.5392812 V 1710.59 c 0,78.19 -63.4,141.55 -141.5,141.55 H 8540.78 c -78.15,0 -141.49,-63.36 -141.49,-141.55 V 141.551" />
        <path
           inkscape:connector-curvature="0"
           id="path38"
           style="fill:#ffffff;fill-opacity:1;fill-rule:nonzero;stroke:none"
           d="m 9789.2,518.73 -197.36,213.75 c 8.4,27.129 12.31,45.579 17.25,71.348 8.08,42.891 11.31,103.602 3.65,145.524 -2.3,12.855 -6.8,25.207 -16.16,31.242 -5.35,3.527 -16.31,4.699 -23.29,1.113 -6.03,-3.184 -11.65,-12.148 -12.59,-16.957 -2.39,-11.664 -4.75,-24.863 -6.3,-37.184 -0.67,-5.421 -1.19,-9.925 -1.7,-12.472 -2.53,-15.887 -5.77,-56.442 -11.56,-77.582 -3.9,-14.782 -6.3,-19.102 -13.16,-36.09 l -177.65,192.449 c 43.27,35.079 72.79,63.529 98.21,94.739 46.68,57.47 64.28,97.92 64.79,149.18 0.43,33.05 -4.07,56.52 -16.22,83.68 -5.37,11.91 -16.52,36.52 -42.86,60.18 -24.17,21.57 -47.37,36.13 -72.96,45.65 -26.55,9.99 -52.06,18.24 -92.96,18.24 -14.54,0 -30.18,-0.97 -48.31,-3 -65.04,-7.03 -122.36,-35.49 -161.14,-79.86 -34.87,-39.55 -47.69,-94.23 -48.04,-129.06 -0.68,-46.19 15.81,-98.55 44.13,-140.26 18.45,-27.2 36.73,-46 66.93,-77.13 l 15.82,-16.398 c -66.24,-48.59 -101.3,-78.629 -143.21,-122.363 -48.2,-50.309 -91.77,-102.821 -95.58,-193.649 -2.89,-64.261 29.17,-133.281 83.67,-180.09 52.22,-45.16 131.31,-70.039 222.37,-70.039 13.86,0 28.07,0.618 42.1,1.707 97.71,8.332 148.39,40.614 181.54,67.872 27.41,22.402 49.59,42.339 83.19,91.871 l 115.05,-127.621 1.19,-1.219 h 134.69 c 0.77,0.097 18.97,1.488 23.99,18.121 4.5,14.68 -15.57,32.566 -17.52,34.308 m -513.95,553.84 c -32.33,34.28 -65.23,73.61 -79.79,93.74 -10.88,14.89 -24.88,41.17 -29.06,66.35 -1.19,7.99 -3.82,35.79 15.29,60.88 10.63,13.65 25.76,28.92 59.1,39.16 11.58,3.53 26.46,5.48 41.93,5.48 16.68,0 33.5,-2.28 47.1,-6.46 27.13,-8.33 46.19,-24.53 59.53,-51.11 18.63,-36.68 10.2,-77.59 -24.4,-118.32 -32.49,-38.39 -58.68,-64.6 -89.7,-89.72 M 9132.99,820.449 c 22.6,27.942 54.81,56.367 104.33,92.133 l 219.57,-244.363 c -18.72,-24.617 -37.35,-46.489 -71.43,-65.969 -34.96,-19.922 -69.84,-29.129 -120.51,-31.66 -4.07,-0.211 -8.07,-0.289 -12.23,-0.289 -42.03,0 -77.74,11.269 -106.23,33.418 -34.43,26.871 -51.45,62.89 -53.41,113.14 -1.76,44.012 11.56,68.512 39.91,103.59" />
        <path
           inkscape:connector-curvature="0"
           id="path40"
           style="fill:#f25b28;fill-opacity:1;fill-rule:nonzero;stroke:none"
           d="M 0,141.559 C 0,63.4414 63.3398,0 141.422,0 H 1710.53 c 78.18,0 141.52,63.4414 141.52,141.559 V 1710.59 c 0,78.21 -63.34,141.55 -141.52,141.55 H 141.422 C 63.3398,1852.14 0,1788.8 0,1710.59 V 141.559" />
        <path
           inkscape:connector-curvature="0"
           id="path42"
           style="fill:#ffffff;fill-opacity:1;fill-rule:nonzero;stroke:none"
           d="m 803.223,1231.61 c 0,100.87 -81.778,182.65 -182.653,182.65 -100.879,0 -182.648,-81.78 -182.648,-182.65 0,-100.88 81.769,-182.66 182.648,-182.66 100.875,0 182.653,81.78 182.653,182.66" />
        <path
           inkscape:connector-curvature="0"
           id="path44"
           style="fill:#ffffff;fill-opacity:1;fill-rule:nonzero;stroke:none"
           d="m 803.223,671.25 c 0,100.879 -81.778,182.656 -182.653,182.656 -100.879,0 -182.648,-81.777 -182.648,-182.656 0,-100.871 81.769,-182.648 182.648,-182.648 100.875,0 182.653,81.777 182.653,182.648" />
      </g>
    </g>
  </g>
</svg>
