<?xml version="1.0" encoding="UTF-8"?>
<svg xmlns="http://www.w3.org/2000/svg" xmlns:xlink="http://www.w3.org/1999/xlink" width="134pt" height="22pt" viewBox="0 0 134 22" version="1.1">
<g>
<path fill="#DC4E28" d="
M8.918,16.754l-3.734,-8.191h-1.191l-3.73,8.191h1.367l2.961,-6.492l2.957,6.492Z
M21.52,16.754l-3.734,-8.191h-1.191l-3.73,8.191h1.367l2.961,-6.492l2.961,6.492Z
M8.918,20.492h-8.656l1.246,1.246h6.16Z
M21.52,20.492h-8.656l1.246,1.246h6.164Z
M0.262,19.246h8.656v-1.246h-8.656Z
M4.562,7.316h12.656l-0.57,-1.246h-11.52Z
M12.863,19.246h8.656v-1.246h-8.656Z
M12.863,0.48h-3.945v1.246h1.348v3.098h1.246v-3.098h1.352Z
M25.785,0.484h4v1.059h-2.746v2.707h2.199v1.047h-2.199v4.023h-1.254Z
M31.637,6.262h1.941l-0.367,-1.469c-0.188,-0.734,-0.434,-1.863,-0.582,-2.84c-0.164,0.977,-0.422,2.105,-0.613,2.84ZM31.973,0.484h1.293l2.352,8.836h-1.305l-0.516,-2h-2.406l-0.504,2h-1.266l2.352,-8.836
M36.219,4.902c0,-3.305,0.723,-4.582,2.867,-4.582c0.652,0,1.238,0.164,1.523,0.328v1.152c-0.324,-0.176,-0.895,-0.352,-1.441,-0.352c-1.289,0,-1.656,0.582,-1.656,3.453c0,2.895,0.395,3.465,1.656,3.465c0.559,0,1.195,-0.188,1.523,-0.379v1.156c-0.285,0.16,-0.965,0.34,-1.578,0.34c-2.324,0.012,-2.895,-1.277,-2.895,-4.582
M42.012,6.656v-6.172h1.25v6.227c0,1.305,0.449,1.684,1.359,1.684c0.91,0,1.359,-0.379,1.359,-1.684v-6.227h1.25v6.172c0,2.012,-0.84,2.828,-2.609,2.828c-1.793,0,-2.609,-0.789,-2.609,-2.828
M49.098,0.484h1.25v7.777h2.746v1.059h-3.996Z
M52.621,0.484h5.07v1.059h-1.918v7.777h-1.25v-7.777h-1.902Z
M59.988,5.648l-2.418,-5.164h1.375l1.043,2.379c0.246,0.57,0.477,1.184,0.629,1.727c0.16,-0.543,0.406,-1.156,0.652,-1.727l1.047,-2.379h1.332l-2.406,5.164v3.672h-1.254Z
M70.816,4.902c0,-2.773,-0.285,-3.496,-1.43,-3.496c-1.141,0,-1.414,0.723,-1.414,3.496c0,2.773,0.273,3.492,1.414,3.492c1.145,0,1.43,-0.719,1.43,-3.492ZM66.68,4.902c0,-3.656,0.871,-4.582,2.707,-4.582c1.891,0,2.719,0.883,2.719,4.582c0,3.672,-0.871,4.582,-2.719,4.582c-1.875,0,-2.707,-0.871,-2.707,-4.582
M73.699,0.484h3.996v1.059h-2.746v2.707h2.203v1.047h-2.203v4.023h-1.25Z
M25.785,12.883h1.254v7.777h2.746v1.059h-4Z
M31.824,18.66h1.945l-0.367,-1.469c-0.191,-0.734,-0.434,-1.859,-0.586,-2.84c-0.16,0.98,-0.418,2.105,-0.609,2.84ZM32.164,12.883h1.293l2.352,8.836h-1.305l-0.516,-1.996h-2.406l-0.504,1.996h-1.266l2.352,-8.836
M35.863,12.883h1.254l0.719,4.352c0.121,0.707,0.273,2.094,0.355,3.152c0.082,-1.059,0.23,-2.434,0.352,-3.152l0.734,-4.352h1.277l0.734,4.352c0.121,0.707,0.258,2.078,0.34,3.125c0.082,-1.047,0.246,-2.418,0.367,-3.125l0.723,-4.352h1.207l-1.684,8.836h-1.293l-0.719,-4.348c-0.109,-0.652,-0.262,-1.891,-0.34,-2.91c-0.082,1.02,-0.219,2.258,-0.328,2.91l-0.734,4.348h-1.277Z
M48.688,18.66h1.945l-0.367,-1.469c-0.191,-0.734,-0.434,-1.859,-0.586,-2.84c-0.16,0.98,-0.418,2.105,-0.609,2.84ZM49.027,12.883h1.293l2.352,8.836h-1.305l-0.516,-1.996h-2.406l-0.504,1.996h-1.266l2.352,-8.836
M53.613,12.883h1.441l2.785,7.043c-0.094,-0.719,-0.176,-1.562,-0.176,-2.352v-4.691h1.195v8.836h-1.441l-2.812,-7.066c0.109,0.719,0.203,1.574,0.203,2.379v4.688h-1.195Z
M62.043,13.918v6.77h0.965c1.277,0,1.66,-0.586,1.66,-3.387c0,-2.801,-0.383,-3.383,-1.66,-3.383ZM60.793,12.883h2.312c2.309,0,2.855,1.238,2.855,4.418c0,3.141,-0.559,4.418,-2.855,4.418h-2.312v-8.836
M69.77,17.301c0,-3.305,0.719,-4.582,2.867,-4.582c0.652,0,1.238,0.164,1.523,0.328v1.156c-0.328,-0.18,-0.898,-0.355,-1.441,-0.355c-1.293,0,-1.66,0.586,-1.66,3.453c0,2.898,0.395,3.469,1.66,3.469c0.559,0,1.195,-0.191,1.523,-0.383v1.156c-0.285,0.164,-0.965,0.34,-1.578,0.34c-2.324,0.016,-2.895,-1.277,-2.895,-4.582
M76.883,13.945v3.113h0.664c0.98,0,1.633,-0.207,1.633,-1.566c0,-1.344,-0.652,-1.547,-1.633,-1.547ZM75.629,12.883h2.039c1.633,0,2.801,0.613,2.801,2.609c0,1.402,-0.68,2.082,-1.535,2.395l1.875,3.832h-1.426l-1.66,-3.602h-0.84v3.602h-1.254v-8.836
M82.133,21.719h1.25v-8.836h-1.25Z
M85.312,12.883h1.617l1.551,4.648l1.562,-4.648h1.562v8.836h-1.195v-4.594c0,-0.98,0.07,-2,0.152,-2.785l-1.605,4.758h-0.992l-1.617,-4.773c0.078,0.789,0.16,1.82,0.16,2.801v4.594h-1.195Z
M93.539,21.719h1.254v-8.836h-1.254Z
M96.723,12.883h1.441l2.785,7.043c-0.094,-0.719,-0.176,-1.562,-0.176,-2.352v-4.691h1.199v8.836h-1.445l-2.812,-7.066c0.109,0.719,0.203,1.574,0.203,2.379v4.688h-1.195Z
M107.695,17.301c0,-2.773,-0.285,-3.492,-1.426,-3.492c-1.141,0,-1.414,0.719,-1.414,3.492c0,2.773,0.273,3.496,1.414,3.496c1.141,0,1.426,-0.723,1.426,-3.496ZM103.562,17.301c0,-3.656,0.871,-4.582,2.707,-4.582c1.891,0,2.719,0.883,2.719,4.582c0,3.672,-0.871,4.582,-2.719,4.582c-1.875,0,-2.707,-0.871,-2.707,-4.582
M110.582,12.883h1.25v7.777h2.746v1.059h-3.996Z
M119.121,17.301c0,-2.773,-0.285,-3.492,-1.43,-3.492c-1.141,0,-1.414,0.719,-1.414,3.492c0,2.773,0.273,3.496,1.414,3.496c1.145,0,1.43,-0.723,1.43,-3.496ZM114.988,17.301c0,-3.656,0.867,-4.582,2.703,-4.582c1.891,0,2.719,0.883,2.719,4.582c0,3.672,-0.867,4.582,-2.719,4.582c-1.875,0,-2.703,-0.871,-2.703,-4.582
M121.734,17.301c0,-3.48,0.922,-4.582,3.219,-4.582c0.652,0,1.348,0.18,1.648,0.355v1.156c-0.328,-0.191,-0.953,-0.395,-1.551,-0.395c-1.469,0,-2.027,0.543,-2.027,3.465c0,2.898,0.395,3.496,1.672,3.496c0.395,0,0.723,-0.055,0.965,-0.125v-2.949h-1.305v-1.059h2.559v4.77c-0.262,0.164,-1.293,0.449,-2.203,0.449c-2.395,0,-2.977,-1.25,-2.977,-4.582
M129.84,18.051l-2.422,-5.168h1.371l1.051,2.379c0.242,0.57,0.473,1.184,0.625,1.727c0.16,-0.543,0.406,-1.156,0.652,-1.727l1.047,-2.379h1.332l-2.406,5.168v3.668h-1.25Z
"/>
</g>
</svg>
