<?xml version="1.0" encoding="UTF-8"?>
<svg xmlns="http://www.w3.org/2000/svg" xmlns:xlink="http://www.w3.org/1999/xlink" width="140pt" height="22pt" viewBox="0 0 140 22" version="1.1">
<g>
<path fill="#DC4E28" d="
M8.918,16.754l-3.734,-8.191h-1.191l-3.73,8.191h1.367l2.961,-6.492l2.957,6.492Z
M21.52,16.754l-3.734,-8.191h-1.188l-3.734,8.191h1.367l2.961,-6.492l2.961,6.492Z
M8.918,20.492h-8.656l1.246,1.246h6.16Z
M21.52,20.492h-8.656l1.246,1.246h6.164Z
M0.262,19.246h8.656v-1.246h-8.656Z
M4.562,7.316h12.656l-0.57,-1.246h-11.52Z
M12.863,19.246h8.656v-1.246h-8.656Z
M12.863,0.48h-3.945v1.246h1.348v3.098h1.246v-3.098h1.352Z
M25.762,0.484h3.996v1.059h-2.746v2.707h2.203v1.047h-2.203v4.023h-1.25Z
M31.609,6.262h1.945l-0.367,-1.469c-0.191,-0.734,-0.438,-1.863,-0.586,-2.84c-0.164,0.977,-0.422,2.105,-0.613,2.84ZM31.949,0.484h1.293l2.352,8.836h-1.309l-0.516,-2h-2.406l-0.504,2h-1.262l2.352,-8.836
M36.191,4.902c0,-3.305,0.723,-4.582,2.871,-4.582c0.652,0,1.234,0.164,1.523,0.324v1.156c-0.328,-0.176,-0.898,-0.352,-1.441,-0.352c-1.293,0,-1.66,0.582,-1.66,3.453c0,2.895,0.395,3.465,1.66,3.465c0.555,0,1.195,-0.191,1.52,-0.379v1.156c-0.285,0.16,-0.965,0.34,-1.574,0.34c-2.324,0.012,-2.898,-1.277,-2.898,-4.582
M41.984,6.656v-6.172h1.25v6.227c0,1.305,0.449,1.684,1.363,1.684c0.91,0,1.359,-0.379,1.359,-1.684v-6.227h1.25v6.172c0,2.012,-0.844,2.828,-2.609,2.828c-1.797,0,-2.613,-0.789,-2.613,-2.828
M49.07,0.484h1.254v7.773h2.746v1.062h-4Z
M52.594,0.484h5.07v1.059h-1.918v7.777h-1.25v-7.777h-1.902Z
M58.672,0.484h4.133v1.059h-2.883v2.707h2.328v1.047h-2.328v2.961h2.883v1.062h-4.133Z
M64.41,9.32h1.254v-8.836h-1.254Z
M66.668,0.484h5.07v1.059h-1.914v7.777h-1.25v-7.777h-1.906Z
M27.012,13.941v3.113h0.668c0.977,0,1.629,-0.203,1.629,-1.562c0,-1.344,-0.652,-1.551,-1.629,-1.551ZM25.762,12.883h2.039c1.633,0,2.801,0.613,2.801,2.609c0,1.402,-0.68,2.082,-1.535,2.395l1.875,3.832h-1.426l-1.66,-3.602h-0.844v3.602h-1.25v-8.836
M32.262,12.883h4.133v1.059h-2.883v2.707h2.328v1.047h-2.328v2.965h2.883v1.059h-4.133Z
M37.457,17.301c0,-3.305,0.723,-4.582,2.871,-4.582c0.648,0,1.234,0.164,1.52,0.328v1.156c-0.324,-0.18,-0.895,-0.355,-1.441,-0.355c-1.289,0,-1.656,0.586,-1.656,3.453c0,2.895,0.395,3.469,1.656,3.469c0.559,0,1.199,-0.191,1.523,-0.383v1.156c-0.285,0.164,-0.965,0.34,-1.578,0.34c-2.324,0.016,-2.895,-1.277,-2.895,-4.582
M47.262,17.711h-2.691v4.008h-1.25v-8.836h1.25v3.766h2.691v-3.766h1.25v8.836h-1.25Z
M49.52,12.883h5.07v1.059h-1.914v7.777h-1.254v-7.777h-1.902Z
M58.156,12.883h4.133v1.059h-2.883v2.707h2.324v1.047h-2.324v2.965h2.883v1.059h-4.133Z
M63.895,12.883h1.441l2.785,7.043c-0.094,-0.723,-0.176,-1.562,-0.176,-2.352v-4.691h1.199v8.836h-1.441l-2.816,-7.07c0.109,0.723,0.203,1.578,0.203,2.383v4.688h-1.195Z
M73.293,17.301c0,-3.305,0.719,-4.582,2.867,-4.582c0.652,0,1.238,0.164,1.523,0.328v1.156c-0.328,-0.18,-0.898,-0.355,-1.441,-0.355c-1.293,0,-1.66,0.586,-1.66,3.453c0,2.895,0.395,3.469,1.66,3.469c0.559,0,1.195,-0.191,1.523,-0.383v1.156c-0.285,0.164,-0.965,0.34,-1.578,0.34c-2.324,0.016,-2.895,-1.277,-2.895,-4.582
M80.402,13.941v3.113h0.668c0.98,0,1.633,-0.203,1.633,-1.562c0,-1.344,-0.652,-1.551,-1.633,-1.551ZM79.152,12.883h2.039c1.633,0,2.801,0.613,2.801,2.609c0,1.402,-0.68,2.082,-1.535,2.395l1.875,3.832h-1.426l-1.66,-3.602h-0.844v3.602h-1.25v-8.836
M85.652,21.719h1.254v-8.836h-1.254Z
M88.836,12.883h1.617l1.551,4.648l1.562,-4.648h1.566v8.836h-1.199v-4.594c0,-0.98,0.07,-2,0.152,-2.789l-1.605,4.758h-0.992l-1.621,-4.77c0.082,0.789,0.164,1.82,0.164,2.801v4.594h-1.195Z
M97.062,21.719h1.254v-8.836h-1.254Z
M100.246,12.883h1.441l2.785,7.043c-0.094,-0.723,-0.176,-1.562,-0.176,-2.352v-4.691h1.195v8.836h-1.438l-2.816,-7.07c0.109,0.723,0.203,1.578,0.203,2.383v4.688h-1.195Z
M111.219,17.301c0,-2.773,-0.285,-3.492,-1.426,-3.492c-1.145,0,-1.414,0.719,-1.414,3.492c0,2.773,0.27,3.496,1.414,3.496c1.141,0,1.426,-0.723,1.426,-3.496ZM107.086,17.301c0,-3.656,0.871,-4.582,2.707,-4.582c1.891,0,2.719,0.883,2.719,4.582c0,3.672,-0.871,4.582,-2.719,4.582c-1.879,0,-2.707,-0.871,-2.707,-4.582
M114.105,12.883h1.25v7.777h2.746v1.059h-3.996Z
M122.645,17.301c0,-2.773,-0.285,-3.492,-1.43,-3.492c-1.141,0,-1.414,0.719,-1.414,3.492c0,2.773,0.273,3.496,1.414,3.496c1.145,0,1.43,-0.723,1.43,-3.496ZM118.512,17.301c0,-3.656,0.871,-4.582,2.703,-4.582c1.891,0,2.723,0.883,2.723,4.582c0,3.672,-0.871,4.582,-2.723,4.582c-1.875,0,-2.703,-0.871,-2.703,-4.582
M125.258,17.301c0,-3.48,0.922,-4.582,3.223,-4.582c0.652,0,1.344,0.176,1.645,0.355v1.152c-0.328,-0.188,-0.953,-0.391,-1.551,-0.391c-1.469,0,-2.027,0.543,-2.027,3.465c0,2.895,0.395,3.496,1.672,3.496c0.395,0,0.723,-0.055,0.969,-0.125v-2.949h-1.309v-1.062h2.559v4.773c-0.258,0.164,-1.293,0.449,-2.203,0.449c-2.395,0,-2.977,-1.25,-2.977,-4.582
M132.246,21.719h1.254v-8.836h-1.254Z
M135.43,12.883h4.133v1.059h-2.883v2.707h2.324v1.047h-2.324v2.965h2.883v1.059h-4.133Z
"/>
</g>
</svg>
