<?xml version="1.0" encoding="UTF-8"?>
<svg xmlns="http://www.w3.org/2000/svg" xmlns:xlink="http://www.w3.org/1999/xlink" width="64pt" height="48pt" viewBox="0 0 64 48" version="1.1">
<g>
<path fill="#1E64C8" d="
M11.266,16.504h1.246v-8.098h-1.246Z
M8.773,16.504h1.246v-8.098h-1.246Z
M6.277,16.504h1.246v-8.098h-1.246Z
M3.785,16.504h1.246v-8.098h-1.246Z
M13.762,16.504h1.246v-8.098h-1.246Z
M16.254,16.504h1.246v-8.098h-1.246Z
M18.75,16.504h1.246v-8.098h-1.246Z
M2.508,19h18.766v-1.25h-18.766Z
M19.996,7.16h-16.211l-1.25,-1.246h18.707Z
M1.262,21.492h21.258v-1.246h-21.258Z
M22.52,3.898l-10.629,-3.766l-10.629,3.766v1.32l10.629,-3.762l10.629,3.762Z
M38.906,27.387c0.555,-0.004,1.07,0.18,1.312,0.367v-1.125c-0.242,-0.148,-0.824,-0.309,-1.422,-0.309c-1.652,0,-2.566,0.941,-2.566,2.305c0,1.141,0.484,1.684,1.262,2.355l0.711,0.613c0.582,0.492,0.949,0.867,0.949,1.602c0,0.855,-0.566,1.199,-1.418,1.199c-0.645,0,-1.18,-0.18,-1.488,-0.395v1.145c0.27,0.156,0.836,0.316,1.598,0.316c1.652,-0.004,2.562,-0.941,2.566,-2.309c0,-1.137,-0.484,-1.684,-1.258,-2.355l-0.711,-0.613c-0.59,-0.504,-0.953,-0.863,-0.949,-1.598c0,-0.863,0.562,-1.199,1.414,-1.199
M1.262,32.641v-6.16h1.246v6.215c0,1.301,0.449,1.68,1.355,1.68c0.91,0,1.355,-0.379,1.355,-1.68v-6.215h1.25v6.16c0,2.008,-0.84,2.82,-2.605,2.82c-1.789,0,-2.602,-0.789,-2.602,-2.82
M8.082,26.48h1.438l2.781,7.027c-0.094,-0.719,-0.176,-1.559,-0.176,-2.348v-4.68h1.195v8.816h-1.438l-2.809,-7.055c0.105,0.723,0.203,1.578,0.203,2.375v4.68h-1.195Z
M15.086,35.297h1.246v-8.816h-1.246Z
M17.492,26.48h1.305l1.109,4.586c0.164,0.691,0.367,1.855,0.492,2.781c0.121,-0.926,0.324,-2.09,0.512,-2.781l1.102,-4.586h1.262l-2.238,8.816h-1.305Z
M24.43,26.48h4.125v1.059h-2.875v2.699h2.32v1.043h-2.32v2.957h2.875v1.059h-4.125Z
M31.246,27.539v3.109h0.664c0.977,0,1.629,-0.207,1.629,-1.562c0,-1.344,-0.652,-1.547,-1.629,-1.547ZM29.996,26.48h2.035c1.629,0,2.797,0.613,2.797,2.605c0,1.395,-0.68,2.074,-1.535,2.387l1.871,3.824h-1.422l-1.656,-3.594h-0.84v3.594h-1.25v-8.816
M41.891,35.297h1.246v-8.816h-1.246Z
M44.324,26.48h5.059v1.059h-1.914v7.758h-1.246v-7.758h-1.898Z
M50.527,26.48h4.121v1.059h-2.875v2.699h2.32v1.043h-2.32v2.957h2.875v1.059h-4.121Z
M56.078,35.297h1.246v-8.816h-1.246Z
M58.469,26.48h5.059v1.059h-1.914v7.758h-1.246v-7.758h-1.898Z
M0.988,43.332c0,-3.473,0.922,-4.57,3.215,-4.57c0.652,0,1.344,0.176,1.641,0.352v1.152c-0.324,-0.188,-0.949,-0.395,-1.547,-0.395c-1.465,0,-2.02,0.543,-2.02,3.461c0,2.887,0.395,3.484,1.668,3.484c0.395,0,0.719,-0.051,0.965,-0.121v-2.941h-1.305v-1.059h2.551v4.762c-0.258,0.16,-1.289,0.445,-2.195,0.445c-2.391,0,-2.973,-1.246,-2.973,-4.57
M7.645,38.922h4.125v1.059h-2.875v2.699h2.32v1.043h-2.32v2.961h2.875v1.055h-4.125Z
M13.211,38.922h1.438l2.781,7.027c-0.094,-0.719,-0.176,-1.559,-0.176,-2.348v-4.68h1.195v8.816h-1.438l-2.809,-7.051c0.105,0.719,0.203,1.574,0.203,2.371v4.68h-1.195Z
M19.59,38.922h5.059v1.059h-1.91v7.758h-1.25v-7.758h-1.898Z
"/>
</g>
</svg>
