<?xml version="1.0" encoding="UTF-8"?>
<svg xmlns="http://www.w3.org/2000/svg" xmlns:xlink="http://www.w3.org/1999/xlink" width="172pt" height="22pt" viewBox="0 0 172 22" version="1.1">
<g>
<path fill="#E85E71" d="
M25.449,17.332c0,-3.473,0.922,-4.57,3.215,-4.57c0.652,0,1.344,0.176,1.641,0.352v1.152c-0.324,-0.188,-0.949,-0.395,-1.547,-0.395c-1.465,0,-2.02,0.543,-2.02,3.461c0,2.887,0.395,3.484,1.668,3.484c0.395,0,0.719,-0.051,0.961,-0.121v-2.941h-1.301v-1.059h2.551v4.762c-0.258,0.16,-1.289,0.445,-2.199,0.445c-2.387,0,-2.969,-1.246,-2.969,-4.57
M32.461,12.922h4.125v1.059h-2.875v2.699h2.316v1.043h-2.316v2.961h2.875v1.055h-4.125Z
M37.52,20.871l3.035,-6.891h-2.969v-1.059h4.355v0.883l-3.039,6.879h3.105v1.055h-4.488Z
M47.191,17.332c0,-2.766,-0.285,-3.488,-1.426,-3.488c-1.141,0,-1.41,0.723,-1.41,3.488c0,2.766,0.27,3.484,1.41,3.484c1.141,0,1.426,-0.719,1.426,-3.484ZM43.066,17.332c0,-3.648,0.867,-4.57,2.699,-4.57c1.887,0,2.711,0.879,2.711,4.57c0,3.66,-0.867,4.57,-2.711,4.57c-1.871,0,-2.699,-0.867,-2.699,-4.57
M50.102,12.922h1.441l2.781,7.027c-0.098,-0.719,-0.176,-1.559,-0.176,-2.348v-4.68h1.191v8.816h-1.438l-2.809,-7.051c0.109,0.719,0.203,1.574,0.203,2.371v4.68h-1.195Z
M58.551,13.953v6.758h0.965c1.273,0,1.656,-0.586,1.656,-3.379c0,-2.797,-0.383,-3.379,-1.656,-3.379ZM57.305,12.922h2.305c2.309,0,2.852,1.234,2.852,4.41c0,3.133,-0.555,4.406,-2.852,4.406h-2.305v-8.816
M68.02,17.738h-2.684v4h-1.25v-8.816h1.25v3.758h2.684v-3.758h1.25v8.816h-1.25Z
M71.23,12.922h4.125v1.059h-2.875v2.699h2.32v1.043h-2.32v2.961h2.875v1.055h-4.125Z
M76.996,21.738h1.25v-8.816h-1.25Z
M81.461,13.953v6.758h0.961c1.273,0,1.652,-0.586,1.652,-3.379c0,-2.797,-0.379,-3.379,-1.652,-3.379ZM80.211,12.922h2.305c2.305,0,2.848,1.234,2.848,4.41c0,3.133,-0.555,4.406,-2.848,4.406h-2.305v-8.816
M91.445,12.922h1.246l0.719,4.344c0.125,0.703,0.273,2.086,0.355,3.145c0.082,-1.059,0.23,-2.43,0.352,-3.145l0.734,-4.344h1.273l0.734,4.344c0.121,0.703,0.258,2.074,0.336,3.117c0.082,-1.043,0.246,-2.414,0.367,-3.117l0.719,-4.344h1.207l-1.68,8.816h-1.289l-0.719,-4.34c-0.109,-0.652,-0.258,-1.883,-0.34,-2.902c-0.082,1.02,-0.219,2.25,-0.324,2.902l-0.734,4.34h-1.273Z
M100.707,12.922h4.125v1.059h-2.875v2.699h2.32v1.043h-2.32v2.961h2.875v1.055h-4.125Z
M105.562,12.922h5.059v1.059h-1.91v7.758h-1.25v-7.758h-1.898Z
M111.664,12.922h4.125v1.059h-2.875v2.699h2.316v1.043h-2.316v2.961h2.875v1.055h-4.125Z
M117.43,12.922h1.438l2.781,7.027c-0.094,-0.719,-0.176,-1.559,-0.176,-2.348v-4.68h1.191v8.816h-1.438l-2.805,-7.051c0.105,0.719,0.199,1.574,0.199,2.371v4.68h-1.191Z
M129.418,17.332c0,-3.297,0.719,-4.57,2.859,-4.57c0.656,0,1.238,0.16,1.523,0.324v1.152c-0.328,-0.176,-0.898,-0.352,-1.441,-0.352c-1.289,0,-1.652,0.582,-1.652,3.445c0,2.887,0.395,3.457,1.652,3.457c0.559,0,1.195,-0.188,1.523,-0.379v1.152c-0.285,0.164,-0.965,0.34,-1.574,0.34c-2.324,0.016,-2.891,-1.273,-2.891,-4.57
M139.098,17.738h-2.688v4h-1.25v-8.816h1.25v3.758h2.688v-3.758h1.246v8.816h-1.246Z
M143.324,18.688h1.941l-0.367,-1.465c-0.188,-0.734,-0.434,-1.859,-0.582,-2.836c-0.164,0.977,-0.422,2.102,-0.613,2.836ZM143.664,12.922h1.289l2.348,8.816h-1.305l-0.516,-1.992h-2.398l-0.5,1.992h-1.262l2.344,-8.816
M149.523,13.98v3.512h0.734c0.973,0,1.504,-0.352,1.504,-1.762c0,-1.41,-0.531,-1.75,-1.504,-1.75ZM148.273,12.922h2.117c1.672,0,2.66,0.707,2.66,2.809c0,2.051,-1.031,2.809,-2.66,2.809h-0.867v3.199h-1.25v-8.816
M155.746,13.98v3.512h0.734c0.977,0,1.504,-0.352,1.504,-1.762c0,-1.41,-0.527,-1.75,-1.504,-1.75ZM154.5,12.922h2.117c1.668,0,2.656,0.707,2.656,2.809c0,2.051,-1.031,2.809,-2.656,2.809h-0.871v3.199h-1.246v-8.816
M160.727,12.922h4.121v1.059h-2.875v2.699h2.32v1.043h-2.32v2.961h2.875v1.055h-4.121Z
M166.488,12.922h1.438l2.781,7.027c-0.094,-0.719,-0.176,-1.559,-0.176,-2.348v-4.68h1.195v8.816h-1.441l-2.805,-7.051c0.105,0.719,0.203,1.574,0.203,2.371v4.68h-1.195Z
M25.773,0.48h3.988v1.059h-2.742v2.699h2.199v1.043h-2.199v4.016h-1.246Z
M31.633,6.246h1.938l-0.367,-1.465c-0.188,-0.734,-0.434,-1.859,-0.582,-2.836c-0.164,0.977,-0.422,2.102,-0.609,2.836ZM31.969,0.48h1.289l2.348,8.816h-1.301l-0.516,-1.992h-2.402l-0.5,1.992h-1.266l2.348,-8.816
M36.242,4.891c0,-3.297,0.719,-4.57,2.859,-4.57c0.652,0,1.238,0.16,1.52,0.324v1.152c-0.324,-0.176,-0.895,-0.352,-1.438,-0.352c-1.285,0,-1.652,0.582,-1.652,3.445c0,2.887,0.391,3.457,1.652,3.457c0.559,0,1.195,-0.191,1.52,-0.379v1.152c-0.285,0.164,-0.961,0.34,-1.57,0.34c-2.32,0.012,-2.891,-1.277,-2.891,-4.57
M41.918,6.641v-6.16h1.246v6.215c0,1.301,0.449,1.68,1.359,1.68c0.906,0,1.355,-0.379,1.355,-1.68v-6.215h1.25v6.16c0,2.008,-0.844,2.82,-2.605,2.82c-1.793,0,-2.605,-0.789,-2.605,-2.82
M49.023,0.48h1.25v7.758h2.738v1.059h-3.988Z
M52.578,0.48h5.059v1.059h-1.914v7.758h-1.246v-7.758h-1.898Z
M58.68,0.48h4.125v1.059h-2.875v2.699h2.316v1.043h-2.316v2.957h2.875v1.059h-4.125Z
M64.445,9.297h1.246v-8.816h-1.246Z
M66.734,0.48h5.059v1.059h-1.91v7.758h-1.246v-7.758h-1.902Z
M74.891,4.891c0,-3.473,0.922,-4.57,3.215,-4.57c0.652,0,1.344,0.172,1.641,0.348v1.156c-0.324,-0.191,-0.949,-0.395,-1.543,-0.395c-1.469,0,-2.023,0.543,-2.023,3.461c0,2.887,0.395,3.484,1.668,3.484c0.395,0,0.719,-0.055,0.961,-0.121v-2.945h-1.301v-1.055h2.551v4.758c-0.258,0.164,-1.289,0.449,-2.199,0.449c-2.387,0,-2.969,-1.246,-2.969,-4.57
M81.902,0.48h4.125v1.059h-2.879v2.699h2.324v1.043h-2.324v2.957h2.879v1.059h-4.125Z
M87.664,0.48h1.441l2.781,7.027c-0.098,-0.719,-0.176,-1.559,-0.176,-2.348v-4.68h1.191v8.816h-1.438l-2.809,-7.055c0.109,0.723,0.203,1.574,0.203,2.375v4.68h-1.195Z
M94.867,0.48h4.125v1.059h-2.879v2.699h2.324v1.043h-2.324v2.957h2.879v1.059h-4.125Z
M100.633,0.48h4.121v1.059h-2.875v2.699h2.32v1.043h-2.32v2.957h2.875v1.059h-4.121Z
M111.316,0.48h1.25v4l2.562,-4h1.398l-2.781,4.301l2.984,4.516h-1.504l-2.66,-4.137v4.137h-1.25Z
M117.559,6.641v-6.16h1.246v6.215c0,1.301,0.449,1.68,1.355,1.68c0.91,0,1.359,-0.379,1.359,-1.68v-6.215h1.246v6.16c0,2.008,-0.84,2.82,-2.605,2.82c-1.789,0,-2.602,-0.789,-2.602,-2.82
M124.66,0.48h1.441l2.781,7.027c-0.098,-0.719,-0.18,-1.559,-0.18,-2.348v-4.68h1.195v8.816h-1.438l-2.809,-7.055c0.109,0.723,0.203,1.574,0.203,2.375v4.68h-1.195Z
M133.109,1.512v6.754h0.965c1.277,0,1.656,-0.582,1.656,-3.375c0,-2.797,-0.379,-3.379,-1.656,-3.379ZM131.863,0.48h2.309c2.305,0,2.848,1.234,2.848,4.41c0,3.133,-0.555,4.406,-2.848,4.406h-2.309v-8.816
M138.645,0.48h4.125v1.059h-2.875v2.699h2.32v1.043h-2.32v2.957h2.875v1.059h-4.125Z
M147.203,0.48h4.125v1.059h-2.875v2.699h2.32v1.043h-2.32v2.957h2.875v1.059h-4.125Z
M152.969,0.48h1.438l2.781,7.027c-0.094,-0.719,-0.176,-1.559,-0.176,-2.348v-4.68h1.191v8.816h-1.434l-2.809,-7.055c0.105,0.723,0.203,1.574,0.203,2.375v4.68h-1.195Z
M108.344,1.387c0.551,0,1.066,0.18,1.305,0.367v-1.125c-0.238,-0.145,-0.824,-0.309,-1.418,-0.309c-1.652,0,-2.566,0.941,-2.566,2.309c0,1.137,0.484,1.684,1.262,2.355l0.711,0.613c0.586,0.488,0.949,0.867,0.949,1.602c0,0.855,-0.566,1.195,-1.418,1.195c-0.645,0,-1.18,-0.18,-1.488,-0.391v1.145c0.27,0.156,0.836,0.316,1.598,0.312c1.652,-0.004,2.562,-0.941,2.566,-2.305c0,-1.137,-0.484,-1.688,-1.258,-2.355l-0.711,-0.613c-0.59,-0.504,-0.953,-0.867,-0.949,-1.598c0.004,-0.863,0.562,-1.199,1.418,-1.203
M89.211,13.832c0.551,-0.004,1.066,0.18,1.309,0.367v-1.125c-0.242,-0.148,-0.828,-0.309,-1.418,-0.309c-1.656,0,-2.57,0.941,-2.57,2.305c0,1.141,0.484,1.688,1.262,2.355l0.711,0.613c0.586,0.492,0.945,0.867,0.945,1.602c0,0.855,-0.562,1.199,-1.414,1.199c-0.645,0,-1.18,-0.184,-1.488,-0.395v1.145c0.27,0.156,0.836,0.316,1.598,0.316c1.652,-0.004,2.562,-0.941,2.566,-2.309c0,-1.137,-0.484,-1.688,-1.262,-2.355l-0.707,-0.613c-0.59,-0.5,-0.953,-0.863,-0.949,-1.598c0.004,-0.863,0.562,-1.199,1.418,-1.199
M126.781,13.832c0.551,-0.004,1.07,0.18,1.309,0.367v-1.125c-0.238,-0.148,-0.824,-0.309,-1.418,-0.309c-1.656,0,-2.566,0.941,-2.566,2.305c0,1.141,0.484,1.688,1.258,2.355l0.711,0.613c0.586,0.492,0.949,0.867,0.949,1.602c0,0.855,-0.566,1.199,-1.418,1.199c-0.645,0,-1.18,-0.184,-1.488,-0.395v1.145c0.273,0.156,0.836,0.316,1.602,0.316c1.648,-0.004,2.559,-0.941,2.562,-2.309c0,-1.137,-0.48,-1.688,-1.258,-2.355l-0.711,-0.613c-0.586,-0.5,-0.953,-0.863,-0.949,-1.598c0.004,-0.863,0.566,-1.199,1.418,-1.199
M17.695,11.746l0.242,1.25h3.582v-1.25Z
M3.34,15.488h-3.078v1.25h3.32Z
M9.941,0.48l-3.484,17.98l-1.062,-5.465h-5.133v1.246h4.105l1.453,7.496h1.27l4.121,-21.258Z
M16.91,14.242l-2.668,-13.762h-1.762l-4.121,21.258h1.27l3.73,-19.25l2.523,13h5.637v-1.246Z
"/>
</g>
</svg>
