<svg viewBox="0 0 309.619166575 135.585000079" width="309.619166575pt" height="135.585000079pt" xmlns="http://www.w3.org/2000/svg" xmlns:xlink="http://www.w3.org/1999/xlink" xmlns:h5="http://www.w3.org/1999/xhtml"><path fill="#ffffff" fill-rule="nonzero" d="M 0 0v 135.585000079h 309.619166575v -135.585000079Z "/><g transform="matrix(1.25 0 0 1.25 11 11)"><g><path fill="none" stroke="#000000" stroke-width="0.384" stroke-linecap="round" stroke-linejoin="miter" stroke-miterlimit="4" transform="translate(106.982757565 11.98)" d="M 0 0m 20.647674834 0l -20.647674834 14.821392384"/><path fill="#000000" fill-rule="nonzero" transform="translate(106.526716126 23.957602392)" d="M 0 0m 2.165507487 0l -2.165507487 3.171147467l 3.697249277 -1.037278514"/><path fill="none" transform="translate(117.078574221 19.554374921)" d="M 0 0Z "/><g transform="translate(117.078574221 19.554374921)"><g/></g><path fill="none" stroke="#000000" stroke-width="0.384" stroke-linecap="round" stroke-linejoin="miter" stroke-miterlimit="4" transform="translate(150.981481654 11.98)" d="M 0 0l 3.701454345 14.456173031"/><path fill="#000000" fill-rule="nonzero" transform="translate(152.654818726 23.158578069)" d="M 0 0m 0 0.651542879l 2.167362345 3.169878894l 0.377262997 -3.821421774"/><path fill="none" transform="translate(152.901831337 19.479999921)" d="M 0 0Z "/><g transform="translate(152.901831337 19.479999921)"><g/></g><path fill="none" stroke="#000000" stroke-width="0.384" stroke-linecap="round" stroke-linejoin="miter" stroke-miterlimit="4" transform="translate(165.930068513 11.98)" d="M 0 0l 31.789276426 16.228293178"/><path fill="#000000" fill-rule="nonzero" transform="translate(194.408317299 25.653121242)" d="M 0 0m 0 2.339501158l 3.81101593 0.470912782l -2.616710674 -2.810413939"/><path fill="none" transform="translate(182.074700887 20.221767567)" d="M 0 0Z "/><g transform="translate(182.074700887 20.221767567)"><g/></g><path fill="none" stroke="#000000" stroke-width="0.384" stroke-linecap="round" stroke-linejoin="miter" stroke-miterlimit="4" transform="translate(55.148251095 37.991249843)" d="M 0 0m 5.542879294 0l -5.542879294 14.723376491"/><path fill="#000000" fill-rule="nonzero" transform="translate(54.950464882 49.40023243)" d="M 0 0m 0.042204054 0l -0.042204054 3.83976757l 2.500485199 -2.914304367"/><path fill="none" transform="translate(57.820797594 45.615624858)" d="M 0 0Z "/><g transform="translate(57.820797594 45.615624858)"><g/></g><path fill="none" stroke="#000000" stroke-width="0.384" stroke-linecap="round" stroke-linejoin="miter" stroke-miterlimit="4" transform="translate(96.62346953 37.991249843)" d="M 0 0l 5.825052013 14.726732184"/><path fill="#000000" fill-rule="nonzero" transform="translate(100.106483541 49.401462803)" d="M 0 0m 0 0.966143672l 2.548518474 2.872393525l -0.105939447 -3.838537197"/><path fill="none" transform="translate(99.639235722 45.615624858)" d="M 0 0Z "/><g transform="translate(99.639235722 45.615624858)"><g/></g><path fill="none" stroke="#000000" stroke-width="0.384" stroke-linecap="round" stroke-linejoin="miter" stroke-miterlimit="4" transform="translate(158.093166635 38.139999843)" d="M 0 0v 14.538629587"/><path fill="#000000" fill-rule="nonzero" transform="translate(156.779808909 49.631579448)" d="M 0 0l 1.313357674 3.608420552l 1.313357674 -3.608420552"/><path fill="none" transform="translate(158.093166635 45.689999858)" d="M 0 0Z "/><g transform="translate(158.093166635 45.689999858)"><g/></g><path fill="none" stroke="#000000" stroke-width="0.384" stroke-linecap="round" stroke-linejoin="miter" stroke-miterlimit="4" transform="translate(207.719333302 38.139999843)" d="M 0 0m 0 0l 0 14.438629587"/><path fill="#000000" fill-rule="nonzero" transform="translate(206.405975586 49.531579385)" d="M 0 0l 1.313357674 3.608420552l 1.313357674 -3.608420552"/><path fill="none" transform="translate(207.719333302 45.639999858)" d="M 0 0Z "/><g transform="translate(207.719333302 45.639999858)"><g/></g><path fill="none" stroke="#000000" stroke-width="0.384" stroke-linecap="round" stroke-linejoin="miter" stroke-miterlimit="4" transform="translate(20.125093666 64.503999874)" d="M 0 0m 20.795957328 0l -20.795957328 14.774868072"/><path fill="#000000" fill-rule="nonzero" transform="translate(19.667462992 76.443438713)" d="M 0 0m 2.180929006 0l -2.180929006 3.160561476l 3.702258303 -1.019256413"/><path fill="none" transform="translate(30.294256966 72.053999969)" d="M 0 0Z "/><g transform="translate(30.294256966 72.053999969)"><g/></g><path fill="none" stroke="#000000" stroke-width="0.384" stroke-linecap="round" stroke-linejoin="miter" stroke-miterlimit="4" transform="translate(50.986749969 64.503999874)" d="M 0 0m 0 0l 0 14.538629744"/><path fill="#000000" fill-rule="nonzero" transform="translate(49.673392405 75.995579637)" d="M 0 0l 1.313357674 3.608420552l 1.313357674 -3.608420552"/><path fill="none" transform="translate(50.986749969 72.053999969)" d="M 0 0Z "/><g transform="translate(50.986749969 72.053999969)"><g/></g><path fill="none" stroke="#000000" stroke-width="0.384" stroke-linecap="round" stroke-linejoin="miter" stroke-miterlimit="4" transform="translate(62.822750079 64.331390867)" d="M 0 0l 26.195849429 14.993745383"/><path fill="#000000" fill-rule="nonzero" transform="translate(85.72167792 76.67164814)" d="M 0 0m 0 2.279700094l 3.784129639 0.652651955l -2.479294892 -2.932352049"/><path fill="none" transform="translate(76.164278852 71.967695465)" d="M 0 0Z "/><g transform="translate(76.164278852 71.967695465)"><g/></g><path fill="none" stroke="#000000" stroke-width="0.25" stroke-linecap="butt" stroke-linejoin="miter" stroke-miterlimit="4" transform="translate(116.79238183)" d="M 0 0v 11.98h 56.667111111v -11.98h -56.667111111Z "/><path fill="none" transform="translate(119.792381913 2.999999937)" d="M 0 0h 50.667111111v 5.98h -50.667111111v -5.98Z "/><g transform="translate(119.792381862 2.999999811)"><g><g transform="matrix(1 0 0 -1 0 5.46)"><use xlink:href="#gD951841567BAE067D0015F919473B51D" x="0" y="0" fill="#000000" fill-rule="nonzero"/></g><g transform="matrix(1 0 0 -1 5.32 1.02)"><use xlink:href="#gF213912272B9F0D1A2E5F3FC95ECBCDA" x="0" y="0" fill="#000000" fill-rule="nonzero"/></g><g transform="matrix(1 0 0 -1 3.88 9.508)"><use xlink:href="#gCFBAEBB0FC81CF494457D03449E39F6D" x="0" y="0" fill="#000000" fill-rule="nonzero"/></g><g transform="matrix(1 0 0 -1 13.479733333 5.464)"><use xlink:href="#g478CBB8407E32FF61A325C86B6DEDD72" x="0" y="0" fill="#000000" fill-rule="nonzero"/></g><g transform="matrix(1 0 0 -1 17.207733333 2.56)"><use xlink:href="#gB8AE048722B5B064719D3FD9931E6841" x="0" y="0" fill="#000000" fill-rule="nonzero"/></g><g transform="matrix(1 0 0 -1 21.564533333 2.56)"><use xlink:href="#g4C71F5D0135C40CC338422D3DCF24FA0" x="0" y="0" fill="#000000" fill-rule="nonzero"/></g><g transform="matrix(1 0 0 -1 26.974666667 5.464)"><use xlink:href="#g2CD2F34DFF68346566CC4F115AAD9921" x="0" y="0" fill="#000000" fill-rule="nonzero"/></g><g transform="matrix(1 0 0 -1 31.422666667 5.464)"><use xlink:href="#g8330DA0CB9C10CBAF3BA2E8C701C5521" x="0" y="0" fill="#000000" fill-rule="nonzero"/></g><g transform="matrix(1 0 0 -1 38.220888889 5.464)"><use xlink:href="#gA2B251B0E90D9A38F792EC9591589B7E" x="0" y="0" fill="#000000" fill-rule="nonzero"/></g><g transform="matrix(1 0 0 -1 46.667111111 5.464)"><use xlink:href="#gB594B03F0C18A1F8AF835CDF971E0C9" x="0" y="0" fill="#000000" fill-rule="nonzero"/></g></g></g><path fill="none" stroke="#000000" stroke-width="0.25" stroke-linecap="butt" stroke-linejoin="miter" stroke-miterlimit="4" transform="translate(29.367999937 27.128749843)" d="M 0 0v 10.8625h 98.475v -10.8625h -98.475Z "/><path fill="none" transform="translate(32.367999968 30.128749937)" d="M 0 0h 92.475v 4.8625h -92.475v -4.8625Z "/><g transform="translate(32.367999827 30.128749858)"><g><g transform="matrix(1 0 0 -1 0 4.8625)"><use xlink:href="#g507AAE86FA051C949EFD2EB8E27CD734" x="0" y="0" fill="#000000" fill-rule="nonzero"/><use xlink:href="#g81F637BE38C40F13EA55B65746543431" x="3.853125" y="0" fill="#000000" fill-rule="nonzero"/><use xlink:href="#gFB73A2731EF73CF7ECE5E50A7AC7FE2B" x="7.70625" y="0" fill="#000000" fill-rule="nonzero"/><use xlink:href="#gA5883A0702ADEA4BA4B7AAA3DB887004" x="15.4125" y="0" fill="#000000" fill-rule="nonzero"/><use xlink:href="#g36DE298FCD71E2E0BD53B0D3A20EEC" x="19.265625" y="0" fill="#000000" fill-rule="nonzero"/><use xlink:href="#g507AAE86FA051C949EFD2EB8E27CD734" x="23.11875" y="0" fill="#000000" fill-rule="nonzero"/><use xlink:href="#g81F637BE38C40F13EA55B65746543431" x="26.971875" y="0" fill="#000000" fill-rule="nonzero"/><use xlink:href="#g174EFE294E671F5E5D72B1CAA621C015" x="30.825" y="0" fill="#000000" fill-rule="nonzero"/><use xlink:href="#gA27738F997F378159605D938BC18EF9B" x="34.678125" y="0" fill="#000000" fill-rule="nonzero"/><use xlink:href="#gB94D97E070CC5B62034282382F92CB14" x="42.384375" y="0" fill="#000000" fill-rule="nonzero"/><use xlink:href="#gB413F1BFD7657DDB88F1EA0315EC495A" x="50.090625" y="0" fill="#000000" fill-rule="nonzero"/><use xlink:href="#g66A892361610E15641DCBB20CC43196D" x="53.94375" y="0" fill="#000000" fill-rule="nonzero"/><use xlink:href="#gFB73A2731EF73CF7ECE5E50A7AC7FE2B" x="57.796875" y="0" fill="#000000" fill-rule="nonzero"/><use xlink:href="#g35B31CCF9841C4DFF68A0066E430EB3A" x="61.65" y="0" fill="#000000" fill-rule="nonzero"/><use xlink:href="#gB413F1BFD7657DDB88F1EA0315EC495A" x="65.503125" y="0" fill="#000000" fill-rule="nonzero"/><use xlink:href="#g81F637BE38C40F13EA55B65746543431" x="69.35625" y="0" fill="#000000" fill-rule="nonzero"/><use xlink:href="#gFC49ED0133A1BA33EFBC5D10F045A7E6" x="77.0625" y="0" fill="#000000" fill-rule="nonzero"/><use xlink:href="#g62B6360CB1267A2CE7D2021B0A62109" x="80.915625" y="0" fill="#000000" fill-rule="nonzero"/><use xlink:href="#gB0CF3BDB49D3648E8E162D0614659BFA" x="88.621875" y="0" fill="#000000" fill-rule="nonzero"/></g></g></g><path fill="none" stroke="#000000" stroke-width="0.25" stroke-linecap="butt" stroke-linejoin="miter" stroke-miterlimit="4" transform="translate(142.581166583 26.979999843)" d="M 0 0v 11.16h 31.024v -11.16h -31.024Z "/><path fill="none" transform="translate(145.581166635 29.979999937)" d="M 0 0h 25.024v 5.16h -25.024v -5.16Z "/><g transform="translate(145.581166509 29.979999843)"><g><g transform="matrix(1 0 0 -1 0 5.16)"><use xlink:href="#gFE247756FD05543B7BA9C4F311057576" x="0" y="0" fill="#000000" fill-rule="nonzero"/><use xlink:href="#gE6041925C5CDE824BC36B8017189589E" x="2.128" y="0" fill="#000000" fill-rule="nonzero"/><use xlink:href="#gAD6F8359CA84228477881446262517F1" x="4.336" y="0" fill="#000000" fill-rule="nonzero"/><use xlink:href="#g61B5D7BE747767C332BCE2AC31F22B33" x="6.792" y="0" fill="#000000" fill-rule="nonzero"/><use xlink:href="#gDBE4BB30DEB61BC1E1FABF606CF06198" x="10" y="0" fill="#000000" fill-rule="nonzero"/><use xlink:href="#gB04B8D1DDBCA11F2DF88C4A2D13B4202" x="12.856" y="0" fill="#000000" fill-rule="nonzero"/><use xlink:href="#gFE247756FD05543B7BA9C4F311057576" x="16.744" y="0" fill="#000000" fill-rule="nonzero"/><use xlink:href="#gFE247756FD05543B7BA9C4F311057576" x="18.872" y="0" fill="#000000" fill-rule="nonzero"/><use xlink:href="#gFFDF1DF9721D257115BD05E0251B53B4" x="21" y="0" fill="#000000" fill-rule="nonzero"/></g></g></g><path fill="none" stroke="#000000" stroke-width="0.25" stroke-linecap="butt" stroke-linejoin="miter" stroke-miterlimit="4" transform="translate(198.21933326 26.979999843)" d="M 0 0v 11.16h 19v -11.16h -19Z "/><path fill="none" transform="translate(201.219333302 29.979999937)" d="M 0 0h 13v 5.16h -13v -5.16Z "/><g transform="translate(201.219333176 29.979999843)"><g><g transform="matrix(1 0 0 -1 0 5.16)"><use xlink:href="#g26EDEFCEAA49573C8DC0AC67544E6667" x="0" y="0" fill="#000000" fill-rule="nonzero"/><use xlink:href="#g5E23858A6788B0A9FB32664FB80FB647" x="4.488" y="0" fill="#000000" fill-rule="nonzero"/><use xlink:href="#gE5AAB67C597A5269A2F0636337D2F1A7" x="8.536" y="0" fill="#000000" fill-rule="nonzero"/></g></g></g><path fill="none" stroke="#000000" stroke-width="0.25" stroke-linecap="butt" stroke-linejoin="miter" stroke-miterlimit="4" transform="translate(39.150750079 53.239999874)" d="M 0 0v 11.264h 23.672v -11.264h -23.672Z "/><path fill="none" transform="translate(42.150749968 56.239999937)" d="M 0 0h 17.672v 5.264h -17.672v -5.264Z "/><g transform="translate(42.150749953 56.239999827)"><g><g transform="matrix(1 0 0 -1 0 5.264)"><use xlink:href="#g616A0F8D8949FEEEA0560D0C7259CD33" x="0" y="0" fill="#000000" fill-rule="nonzero"/><use xlink:href="#g20EDBE1E989F56AA9FBFD4A2EF5BDC35" x="5.84" y="0" fill="#000000" fill-rule="nonzero"/><use xlink:href="#g9CB01113ED99ABC5A5F75E5016C1499E" x="9.416" y="0" fill="#000000" fill-rule="nonzero"/><use xlink:href="#g9CB01113ED99ABC5A5F75E5016C1499E" x="11.528" y="0" fill="#000000" fill-rule="nonzero"/><use xlink:href="#g2B678EF10194558DA6DED0CDF87DA3E4" x="13.64" y="0" fill="#000000" fill-rule="nonzero"/></g></g></g><path fill="none" stroke="#000000" stroke-width="0.25" stroke-linecap="butt" stroke-linejoin="miter" stroke-miterlimit="4" transform="translate(96.040250079 53.239999874)" d="M 0 0v 11.264h 20.368v -11.264h -20.368Z "/><path fill="none" transform="translate(99.040249968 56.239999937)" d="M 0 0h 14.368v 5.264h -14.368v -5.264Z "/><g transform="translate(99.040249843 56.239999827)"><g><g transform="matrix(1 0 0 -1 0 5.264)"><use xlink:href="#g257321D448ABEEFA4C949A97C9AEA63C" x="0" y="0" fill="#000000" fill-rule="nonzero"/><use xlink:href="#gD6C08740CFCAAF86BCA909E63B9538D" x="4.776" y="0" fill="#000000" fill-rule="nonzero"/><use xlink:href="#g2BFBF805A6B9D0BF9A5DDB8FE340411" x="9.08" y="0" fill="#000000" fill-rule="nonzero"/><use xlink:href="#g86ABD9B98157573BF6882A43FA434742" x="11.248" y="0" fill="#000000" fill-rule="nonzero"/></g></g></g><path fill="none" stroke="#000000" stroke-width="0.25" stroke-linecap="butt" stroke-linejoin="miter" stroke-miterlimit="4" transform="translate(148.061166583 53.239999874)" d="M 0 0v 11.264h 20.064v -11.264h -20.064Z "/><path fill="none" transform="translate(151.061166635 56.239999937)" d="M 0 0h 14.064v 5.264h -14.064v -5.264Z "/><g transform="translate(151.061166588 56.239999827)"><g><g transform="matrix(1 0 0 -1 0 5.264)"><use xlink:href="#g8CD924B1796CDEE998E484DA1D8D34C1" x="0" y="0" fill="#000000" fill-rule="nonzero"/><use xlink:href="#g2BFBF805A6B9D0BF9A5DDB8FE340411" x="4.224" y="0" fill="#000000" fill-rule="nonzero"/><use xlink:href="#gC65908FBCF60F62A897EEDA0AB2A464A" x="6.392" y="0" fill="#000000" fill-rule="nonzero"/><use xlink:href="#g20EDBE1E989F56AA9FBFD4A2EF5BDC35" x="10.488" y="0" fill="#000000" fill-rule="nonzero"/></g></g></g><path fill="none" stroke="#000000" stroke-width="0.25" stroke-linecap="butt" stroke-linejoin="miter" stroke-miterlimit="4" transform="translate(185.34333326 53.139999874)" d="M 0 0v 11.464h 44.752v -11.464h -44.752Z "/><path fill="none" transform="translate(188.343333302 56.139999937)" d="M 0 0h 38.752v 5.464h -38.752v -5.464Z "/><g transform="translate(188.343333223 56.139999906)"><g><g transform="matrix(1 0 0 -1 0 5.464)"><use xlink:href="#g3078E795B3E2291E912DCDEB76EE36F" x="0" y="0" fill="#000000" fill-rule="nonzero"/><use xlink:href="#g2B678EF10194558DA6DED0CDF87DA3E4" x="2.528" y="0" fill="#000000" fill-rule="nonzero"/><use xlink:href="#g58427B726775E01C628C261B90DBAC4F" x="6.56" y="0" fill="#000000" fill-rule="nonzero"/><use xlink:href="#g2B678EF10194558DA6DED0CDF87DA3E4" x="12.88" y="0" fill="#000000" fill-rule="nonzero"/><use xlink:href="#gF14903D79C881A9B6AC2EE7D8BED6F03" x="16.912" y="0" fill="#000000" fill-rule="nonzero"/><use xlink:href="#gF14903D79C881A9B6AC2EE7D8BED6F03" x="19.888" y="0" fill="#000000" fill-rule="nonzero"/><use xlink:href="#g2B678EF10194558DA6DED0CDF87DA3E4" x="22.8" y="0" fill="#000000" fill-rule="nonzero"/><use xlink:href="#g6EBC0479C6E747D8CB978FFD918AD9C7" x="26.776" y="0" fill="#000000" fill-rule="nonzero"/></g><g transform="matrix(1 0 0 -1 34.752 5.464)"><use xlink:href="#gB594B03F0C18A1F8AF835CDF971E0C9" x="0" y="0" fill="#000000" fill-rule="nonzero"/></g></g></g><path fill="none" stroke="#000000" stroke-width="0.25" stroke-linecap="butt" stroke-linejoin="miter" stroke-miterlimit="4" transform="translate(0 79.604000063)" d="M 0 0v 11.264h 20.368v -11.264h -20.368Z "/><path fill="none" transform="translate(2.999999968 82.603999937)" d="M 0 0h 14.368v 5.264h -14.368v -5.264Z "/><g transform="translate(2.999999843 82.603999827)"><g><g transform="matrix(1 0 0 -1 0 5.264)"><use xlink:href="#g257321D448ABEEFA4C949A97C9AEA63C" x="0" y="0" fill="#000000" fill-rule="nonzero"/><use xlink:href="#gD6C08740CFCAAF86BCA909E63B9538D" x="4.776" y="0" fill="#000000" fill-rule="nonzero"/><use xlink:href="#g2BFBF805A6B9D0BF9A5DDB8FE340411" x="9.08" y="0" fill="#000000" fill-rule="nonzero"/><use xlink:href="#g86ABD9B98157573BF6882A43FA434742" x="11.248" y="0" fill="#000000" fill-rule="nonzero"/></g></g></g><path fill="none" stroke="#000000" stroke-width="0.25" stroke-linecap="butt" stroke-linejoin="miter" stroke-miterlimit="4" transform="translate(32.790750079 79.604000063)" d="M 0 0v 11.264h 36.392v -11.264h -36.392Z "/><path fill="none" transform="translate(35.790749968 82.603999937)" d="M 0 0h 30.392v 5.264h -30.392v -5.264Z "/><g transform="translate(35.790749858 82.603999827)"><g><g transform="matrix(1 0 0 -1 0 5.264)"><use xlink:href="#g8C602F113ED136B9EC97C2B861CC969C" x="0" y="0" fill="#000000" fill-rule="nonzero"/><use xlink:href="#g2B678EF10194558DA6DED0CDF87DA3E4" x="5.168" y="0" fill="#000000" fill-rule="nonzero"/><use xlink:href="#g737E31D6A5E93E22E9ED4AD10D42FE71" x="9.2" y="0" fill="#000000" fill-rule="nonzero"/><use xlink:href="#g3078E795B3E2291E912DCDEB76EE36F" x="13.536" y="0" fill="#000000" fill-rule="nonzero"/><use xlink:href="#g2BFBF805A6B9D0BF9A5DDB8FE340411" x="16.064" y="0" fill="#000000" fill-rule="nonzero"/><use xlink:href="#g737E31D6A5E93E22E9ED4AD10D42FE71" x="18.232" y="0" fill="#000000" fill-rule="nonzero"/><use xlink:href="#g7CA707F1BCB16774F6BEEBBEACACFCA3" x="22.568" y="0" fill="#000000" fill-rule="nonzero"/><use xlink:href="#g20EDBE1E989F56AA9FBFD4A2EF5BDC35" x="26.816" y="0" fill="#000000" fill-rule="nonzero"/></g></g></g><path fill="none" stroke="#000000" stroke-width="0.25" stroke-linecap="butt" stroke-linejoin="miter" stroke-miterlimit="4" transform="translate(83.320250079 79.604000063)" d="M 0 0v 11.264h 45.808v -11.264h -45.808Z "/><path fill="none" transform="translate(86.320249968 82.603999937)" d="M 0 0h 39.808v 5.264h -39.808v -5.264Z "/><g transform="translate(86.320249937 82.603999827)"><g><g transform="matrix(1 0 0 -1 0 5.264)"><use xlink:href="#g616A0F8D8949FEEEA0560D0C7259CD33" x="0" y="0" fill="#000000" fill-rule="nonzero"/><use xlink:href="#g20EDBE1E989F56AA9FBFD4A2EF5BDC35" x="5.84" y="0" fill="#000000" fill-rule="nonzero"/><use xlink:href="#g9CB01113ED99ABC5A5F75E5016C1499E" x="9.416" y="0" fill="#000000" fill-rule="nonzero"/><use xlink:href="#g9CB01113ED99ABC5A5F75E5016C1499E" x="11.528" y="0" fill="#000000" fill-rule="nonzero"/><use xlink:href="#g2B678EF10194558DA6DED0CDF87DA3E4" x="13.64" y="0" fill="#000000" fill-rule="nonzero"/><use xlink:href="#g1F1BCAA22D5AC8016D9977B20177A91D" x="19.672" y="0" fill="#000000" fill-rule="nonzero"/><use xlink:href="#g2B678EF10194558DA6DED0CDF87DA3E4" x="26.64" y="0" fill="#000000" fill-rule="nonzero"/><use xlink:href="#gF14903D79C881A9B6AC2EE7D8BED6F03" x="30.672" y="0" fill="#000000" fill-rule="nonzero"/><use xlink:href="#g9CB01113ED99ABC5A5F75E5016C1499E" x="33.648" y="0" fill="#000000" fill-rule="nonzero"/><use xlink:href="#g13CDF673763F5DB9C25A9A976EDAD0A7" x="35.76" y="0" fill="#000000" fill-rule="nonzero"/></g></g></g></g></g><defs><symbol id="gD951841567BAE067D0015F919473B51D" overflow="visible"><path d="M 0 0m 3.976 6.44c -0.608 0 -1.016 -0.464 -1.224 -1.4c -0.032 -0.136 -0.072 -0.416 -0.128 -0.832l -0.104 -0.808c -0.112 -0.896 -0.184 -1.56 -0.216 -2l -0.152 -1.976c -0.056 -0.776 -0.184 -1.632 -0.808 -1.632c -0.168 0 -0.312 0.04 -0.432 0.12c 0.168 0.048 0.256 0.16 0.256 0.336c 0 0.216 -0.144 0.368 -0.36 0.368c -0.24 0 -0.36 -0.128 -0.36 -0.376c 0 -0.424 0.44 -0.688 0.896 -0.688c 0.648 0 1.096 0.48 1.336 1.432c 0.168 0.672 0.32 1.872 0.448 3.608l 0.152 1.976c 0.032 0.456 0.088 0.816 0.16 1.072c 0.104 0.336 0.176 0.56 0.544 0.56c 0.168 0 0.312 -0.04 0.424 -0.12c -0.168 -0.048 -0.256 -0.16 -0.256 -0.336c 0 -0.216 0.144 -0.368 0.36 -0.368c 0.24 0 0.36 0.128 0.36 0.376c 0 0.424 -0.44 0.688 -0.896 0.688Z "/></symbol><symbol id="gF213912272B9F0D1A2E5F3FC95ECBCDA" overflow="visible"><path d="M 0 0m 4.7264 -0.056c 0.3416 0 0.6328 0.1232 0.8624 0.3696c 0.2296 0.2464 0.3472 0.5488 0.3472 0.896c 0 0.3416 -0.112 0.6384 -0.336 0.8848c -0.224 0.2464 -0.5096 0.3752 -0.8512 0.3752c -0.3864 0 -0.7168 -0.1232 -0.9968 -0.364c -0.2016 -0.1736 -0.3752 -0.3584 -0.5208 -0.5432c -0.1736 0.2128 -0.364 0.3976 -0.56 0.56c -0.2912 0.2296 -0.6328 0.3472 -1.0248 0.3472c -0.3472 0 -0.6328 -0.1288 -0.8624 -0.3752c -0.2296 -0.2464 -0.3472 -0.5432 -0.3472 -0.8904c 0 -0.3416 0.112 -0.644 0.336 -0.8904c 0.224 -0.2464 0.5096 -0.3696 0.8512 -0.3696c 0.3864 0 0.7168 0.1232 0.9968 0.364c 0.2016 0.1736 0.3752 0.3584 0.5208 0.5432c 0.1736 -0.2128 0.364 -0.3976 0.56 -0.56c 0.2912 -0.2296 0.6328 -0.3472 1.0248 -0.3472Z m 0.0952 0.3472c -0.2464 0 -0.4816 0.1008 -0.7 0.3024c -0.1792 0.1624 -0.4032 0.4088 -0.6776 0.7336c 0.3808 0.5936 0.8288 0.8904 1.3496 0.8904c 0.2688 0 0.4928 -0.1008 0.672 -0.3024c 0.1792 -0.2016 0.2688 -0.4312 0.2688 -0.7056c 0 -0.504 -0.4088 -0.9184 -0.9128 -0.9184Z m -3.2704 1.8312c 0.2464 0 0.4816 -0.1008 0.7 -0.3024c 0.1792 -0.1624 0.4032 -0.4088 0.6776 -0.7336c -0.3808 -0.5936 -0.8288 -0.8904 -1.3496 -0.8904c -0.2688 0 -0.4928 0.0952 -0.672 0.2968c -0.1792 0.2016 -0.2688 0.4368 -0.2688 0.7112c 0 0.504 0.4088 0.9184 0.9128 0.9184Z "/></symbol><symbol id="gCFBAEBB0FC81CF494457D03449E39F6D" overflow="visible"><path d="M 0 0m 2.8896 1.7864c 0 0.6328 -0.112 1.1144 -0.3304 1.4448c -0.1792 0.28 -0.5376 0.4872 -0.9688 0.4872c -0.1792 0 -0.3416 -0.028 -0.4816 -0.0896c -0.616 -0.2576 -0.8176 -0.9744 -0.8176 -1.8424c 0 -0.1904 0.0112 -0.3696 0.028 -0.5432c 0.0952 -0.7336 0.4368 -1.3552 1.2712 -1.3552c 0.1792 0 0.3416 0.028 0.4816 0.0896c 0.616 0.252 0.8176 0.952 0.8176 1.8088Z m -0.6384 1.2432c 0.0616 -0.2072 0.0952 -0.5936 0.0952 -1.1704c 0 -0.5488 -0.0224 -0.9352 -0.0728 -1.1648c -0.0672 -0.3304 -0.3024 -0.6048 -0.6832 -0.6048c -0.14 0 -0.28 0.0448 -0.4088 0.14c -0.1736 0.1288 -0.28 0.3808 -0.3248 0.7672c -0.0168 0.1288 -0.0224 0.4144 -0.0224 0.8624c 0 0.5432 0.028 0.9184 0.084 1.12c 0.0952 0.3584 0.3192 0.5376 0.672 0.5376c 0.336 0 0.5824 -0.2184 0.6608 -0.4872Z "/></symbol><symbol id="g478CBB8407E32FF61A325C86B6DEDD72" overflow="visible"><path d="M 0 0m 0.992 1.032c 0 0.192 0.04 0.456 0.12 0.784h 0.392c 0.52 0 0.92 0.064 1.208 0.184c 0.264 0.112 0.44 0.272 0.528 0.472c 0.056 0.136 0.08 0.264 0.08 0.368c 0 0.44 -0.416 0.696 -0.864 0.696c -0.312 0 -0.624 -0.08 -0.936 -0.24c -0.616 -0.32 -1.152 -1.048 -1.152 -1.928c 0 -0.816 0.472 -1.456 1.264 -1.456c 0.424 0 0.8 0.104 1.128 0.304c 0.272 0.168 0.472 0.336 0.6 0.504c 0.056 0.072 0.08 0.128 0.08 0.152c 0 0.088 -0.04 0.136 -0.128 0.136c -0.04 0 -0.08 -0.032 -0.128 -0.096c -0.264 -0.352 -0.592 -0.576 -0.968 -0.672c -0.248 -0.064 -0.432 -0.096 -0.568 -0.096c -0.456 0 -0.656 0.432 -0.656 0.888Z m 2.008 1.808c 0 -0.528 -0.512 -0.792 -1.544 -0.792h -0.28c 0.152 0.528 0.376 0.88 0.68 1.048c 0.24 0.136 0.44 0.208 0.6 0.208c 0.288 0 0.544 -0.176 0.544 -0.464Z "/></symbol><symbol id="gB8AE048722B5B064719D3FD9931E6841" overflow="visible"><path d="M 0 0m 3.8976 1.5288h -3.4384c -0.112 0 -0.1456 -0.056 -0.1456 -0.1288c 0 -0.0728 0.0336 -0.1288 0.1456 -0.1288h 3.4384c 0.112 0 0.1456 0.056 0.1456 0.1288c 0 0.0672 -0.0336 0.1288 -0.1456 0.1288Z "/></symbol><symbol id="g4C71F5D0135C40CC338422D3DCF24FA0" overflow="visible"><path d="M 0 0m 3.2648 2.044c 0 0.2856 -0.2912 0.4256 -0.5936 0.4256c -0.252 0 -0.4592 -0.1232 -0.616 -0.3696c -0.1344 0.2464 -0.3584 0.3696 -0.6664 0.3696c -0.2072 0 -0.4256 -0.0896 -0.644 -0.2744c -0.2296 -0.1904 -0.3472 -0.3864 -0.3472 -0.588c 0 -0.0616 0.0392 -0.0952 0.112 -0.0952c 0.0616 0 0.1008 0.0336 0.1288 0.1064c 0.1008 0.3024 0.3752 0.6552 0.7336 0.6552c 0.2072 0 0.308 -0.112 0.308 -0.3416c 0 -0.0728 -0.0392 -0.2632 -0.112 -0.5712l -0.1904 -0.7504c -0.0504 -0.2128 -0.2576 -0.4704 -0.4984 -0.4704c -0.0952 0 -0.1792 0.0168 -0.2464 0.056c 0.112 0.0504 0.2128 0.1736 0.2128 0.3024c 0 0.1344 -0.1064 0.2296 -0.2408 0.2296c -0.1904 0 -0.336 -0.168 -0.336 -0.3584c 0 -0.28 0.2968 -0.4256 0.5992 -0.4256c 0.2576 0 0.4648 0.1232 0.616 0.3696c 0.1344 -0.2464 0.3528 -0.3696 0.6608 -0.3696c 0.308 0 0.5544 0.1232 0.7448 0.3696c 0.1624 0.2184 0.2464 0.3864 0.2464 0.4928c 0 0.0616 -0.0336 0.0952 -0.1064 0.0952c -0.0616 0 -0.1064 -0.0392 -0.1288 -0.112c -0.0952 -0.2968 -0.3808 -0.6496 -0.7336 -0.6496c -0.2072 0 -0.3136 0.112 -0.3136 0.336c 0 0.084 0.0952 0.504 0.2856 1.2488c 0.0952 0.364 0.2632 0.5488 0.5152 0.5488l 0.0504 -0.0056c 0.0672 0 0.1344 -0.0168 0.196 -0.0448c -0.14 -0.0616 -0.2072 -0.1624 -0.2072 -0.308c 0 -0.1344 0.1064 -0.2296 0.2408 -0.2296c 0.1904 0 0.3304 0.168 0.3304 0.3584Z "/></symbol><symbol id="g2CD2F34DFF68346566CC4F115AAD9921" overflow="visible"><path d="M 0 0m 2.992 -0.088l 1.224 0.088v 0.304c -0.288 0 -0.456 0.016 -0.52 0.064c -0.064 0.048 -0.096 0.168 -0.096 0.352v 4.832l -1.192 -0.088v -0.304c 0.28 0 0.456 -0.024 0.52 -0.072c 0.064 -0.048 0.088 -0.16 0.088 -0.344v -1.624c -0.256 0.296 -0.576 0.44 -0.96 0.44c -0.496 0 -0.92 -0.176 -1.264 -0.536c -0.344 -0.36 -0.52 -0.792 -0.52 -1.296c 0 -0.488 0.16 -0.912 0.488 -1.272c 0.328 -0.36 0.728 -0.544 1.216 -0.544c 0.408 0 0.752 0.152 1.016 0.464Z m -0.904 3.408c 0.344 0 0.624 -0.152 0.824 -0.456c 0.056 -0.088 0.08 -0.176 0.08 -0.28v -1.616c 0 -0.104 -0.024 -0.192 -0.08 -0.28c -0.224 -0.36 -0.528 -0.536 -0.904 -0.536c -0.328 0 -0.592 0.16 -0.8 0.488c -0.144 0.24 -0.216 0.6 -0.216 1.08c 0 0.872 0.296 1.6 1.096 1.6Z "/></symbol><symbol id="g8330DA0CB9C10CBAF3BA2E8C701C5521" overflow="visible"><path d="M 0 0m 4.216 2.984c 0 0.368 -0.36 0.552 -0.76 0.552c -0.344 0 -0.616 -0.184 -0.824 -0.552c -0.168 0.368 -0.448 0.552 -0.856 0.552c -0.392 0 -0.712 -0.184 -0.968 -0.544c -0.216 -0.312 -0.328 -0.544 -0.328 -0.696c 0 -0.072 0.04 -0.112 0.12 -0.112c 0.072 0 0.12 0.04 0.136 0.112c 0.152 0.464 0.488 1.008 1.024 1.008c 0.264 0 0.392 -0.168 0.392 -0.496c 0 -0.168 -0.144 -0.792 -0.424 -1.864c -0.136 -0.536 -0.376 -0.8 -0.72 -0.8c -0.112 0 -0.216 0.024 -0.304 0.064c 0.208 0.08 0.312 0.224 0.312 0.432c 0 0.208 -0.104 0.312 -0.32 0.312c -0.264 0 -0.464 -0.224 -0.464 -0.488c 0 -0.368 0.376 -0.552 0.768 -0.552c 0.336 0 0.608 0.184 0.824 0.552c 0.152 -0.368 0.44 -0.552 0.856 -0.552c 0.384 0 0.704 0.184 0.96 0.544c 0.216 0.312 0.328 0.544 0.328 0.696c 0 0.072 -0.04 0.112 -0.12 0.112c -0.072 0 -0.112 -0.04 -0.136 -0.112c -0.136 -0.456 -0.496 -1.008 -1.016 -1.008c -0.264 0 -0.4 0.16 -0.4 0.488c 0 0.104 0.04 0.328 0.128 0.688l 0.272 1.08c 0.152 0.6 0.4 0.904 0.752 0.904c 0.112 0 0.216 -0.024 0.304 -0.064c -0.216 -0.072 -0.32 -0.216 -0.32 -0.432c 0 -0.208 0.112 -0.312 0.328 -0.312c 0.256 0 0.456 0.232 0.456 0.488Z "/></symbol><symbol id="gA2B251B0E90D9A38F792EC9591589B7E" overflow="visible"><path d="M 0 0m 5.584 2.936h -4.944c -0.128 0 -0.192 -0.064 -0.192 -0.184c 0 -0.12 0.064 -0.184 0.192 -0.184h 4.944c 0.128 0 0.192 0.064 0.192 0.184c 0 0.096 -0.088 0.184 -0.192 0.184Z m 0 -1.504h -4.944c -0.128 0 -0.192 -0.064 -0.192 -0.184c 0 -0.12 0.064 -0.184 0.192 -0.184h 4.944c 0.128 0 0.192 0.064 0.192 0.184c 0 0.104 -0.088 0.184 -0.192 0.184Z "/></symbol><symbol id="gB594B03F0C18A1F8AF835CDF971E0C9" overflow="visible"><path d="M 0 0m 2.152 5.328c -0.328 -0.336 -0.808 -0.504 -1.44 -0.504v -0.312c 0.416 0 0.76 0.064 1.024 0.192v -4.048c 0 -0.144 -0.032 -0.24 -0.104 -0.28c -0.072 -0.04 -0.272 -0.064 -0.592 -0.064h -0.28v -0.312c 0.2 0.016 0.632 0.024 1.296 0.024c 0.664 0 1.096 -0.008 1.296 -0.024v 0.312h -0.28c -0.328 0 -0.528 0.024 -0.592 0.064c -0.064 0.04 -0.104 0.136 -0.104 0.28v 4.432c 0 0.192 -0.016 0.24 -0.224 0.24Z "/></symbol><symbol id="g507AAE86FA051C949EFD2EB8E27CD734" overflow="visible"><path d="M 0 0m 0.8 3.5h 1.471875v -3.053125h 1.140625v -0.446875h -2.85625v 0.446875h 1.140625v 2.60625h -0.896875v 0.446875Z m 0.896875 1.3625h 0.575v -0.728125h -0.575v 0.728125Z "/></symbol><symbol id="g81F637BE38C40F13EA55B65746543431" overflow="visible"><path d="M 0 0m 3.284375 2.16875v -2.16875h -0.578125v 2.16875q 0 0.471875 -0.165625 0.69375q -0.165625 0.221875 -0.51875 0.221875q -0.403125 0 -0.6203125 -0.2859375q -0.2171875 -0.2859375 -0.2171875 -0.8203125v -1.978125h -0.575v 3.5h 0.575v -0.525q 0.153125 0.3 0.415625 0.4546875q 0.2625 0.1546875 0.621875 0.1546875q 0.534375 0 0.7984375 -0.3515625q 0.2640625 -0.3515625 0.2640625 -1.0640625Z "/></symbol><symbol id="gFB73A2731EF73CF7ECE5E50A7AC7FE2B" overflow="visible"><path d="M 0 0m 1.91875 4.49375v -0.99375h 1.30625v -0.446875h -1.30625v -1.9q 0 -0.3875 0.146875 -0.540625q 0.146875 -0.153125 0.5125 -0.153125h 0.646875v -0.459375h -0.703125q -0.646875 0 -0.9125 0.259375q -0.265625 0.259375 -0.265625 0.89375v 1.9h -0.934375v 0.446875h 0.934375v 0.99375h 0.575Z "/></symbol><symbol id="gA5883A0702ADEA4BA4B7AAA3DB887004" overflow="visible"><path d="M 0 0m 2.1125 3.14375q 0.10625 0.225 0.2703125 0.3328125q 0.1640625 0.1078125 0.3953125 0.1078125q 0.421875 0 0.5953125 -0.3265625q 0.1734375 -0.3265625 0.1734375 -1.2296875v -2.028125h -0.525v 2.003125q 0 0.740625 -0.0828125 0.9203125q -0.0828125 0.1796875 -0.3015625 0.1796875q -0.25 0 -0.3421875 -0.1921875q -0.0921875 -0.1921875 -0.0921875 -0.9078125v -2.003125h -0.525v 2.003125q 0 0.75 -0.0890625 0.925q -0.0890625 0.175 -0.3203125 0.175q -0.228125 0 -0.3171875 -0.1921875q -0.0890625 -0.1921875 -0.0890625 -0.9078125v -2.003125h -0.521875v 3.5h 0.521875v -0.3q 0.103125 0.1875 0.2578125 0.2859375q 0.1546875 0.0984375 0.3515625 0.0984375q 0.2375 0 0.3953125 -0.109375q 0.1578125 -0.109375 0.2453125 -0.33125Z "/></symbol><symbol id="g36DE298FCD71E2E0BD53B0D3A20EEC" overflow="visible"><path d="M 0 0m 2.19375 1.759375h -0.190625q -0.503125 0 -0.7578125 -0.1765625q -0.2546875 -0.1765625 -0.2546875 -0.5265625q 0 -0.315625 0.190625 -0.490625q 0.190625 -0.175 0.528125 -0.175q 0.475 0 0.746875 0.3296875q 0.271875 0.3296875 0.275 0.9109375v 0.128125h -0.5375Z m 1.115625 0.2375v -1.996875h -0.578125v 0.51875q -0.184375 -0.3125 -0.4640625 -0.4609375q -0.2796875 -0.1484375 -0.6796875 -0.1484375q -0.534375 0 -0.853125 0.3015625q -0.31875 0.3015625 -0.31875 0.8078125q 0 0.584375 0.3921875 0.8875q 0.3921875 0.303125 1.1515625 0.303125h 0.771875v 0.090625q -0.003125 0.41875 -0.2125 0.6078125q -0.209375 0.1890625 -0.66875 0.1890625q -0.29375 0 -0.59375 -0.084375q -0.3 -0.084375 -0.584375 -0.246875v 0.575q 0.31875 0.121875 0.6109375 0.1828125q 0.2921875 0.0609375 0.5671875 0.0609375q 0.434375 0 0.7421875 -0.128125q 0.3078125 -0.128125 0.4984375 -0.384375q 0.11875 -0.15625 0.16875 -0.3859375q 0.05 -0.2296875 0.05 -0.6890625Z "/></symbol><symbol id="g174EFE294E671F5E5D72B1CAA621C015" overflow="visible"><path d="M 0 0m 2.765625 4.85625q -0.415625 -0.7125 -0.6203125 -1.4203125q -0.2046875 -0.7078125 -0.2046875 -1.4265625q 0 -0.715625 0.2046875 -1.425q 0.2046875 -0.709375 0.6203125 -1.428125h -0.5q -0.471875 0.74375 -0.703125 1.4484375q -0.23125 0.7046875 -0.23125 1.4046875q 0 0.696875 0.23125 1.403125q 0.23125 0.70625 0.703125 1.44375h 0.5Z "/></symbol><symbol id="gA27738F997F378159605D938BC18EF9B" overflow="visible"><path d="M 0 0m 1.0875 4.85625h 0.5q 0.471875 -0.7375 0.703125 -1.44375q 0.23125 -0.70625 0.23125 -1.403125q 0 -0.703125 -0.23125 -1.409375q -0.23125 -0.70625 -0.703125 -1.44375h -0.5q 0.415625 0.725 0.6203125 1.434375q 0.2046875 0.709375 0.2046875 1.41875q 0 0.7125 -0.2046875 1.421875q -0.2046875 0.709375 -0.6203125 1.425Z "/></symbol><symbol id="gB94D97E070CC5B62034282382F92CB14" overflow="visible"><path d="M 0 0m 3.1625 -0.59375v -0.45h -0.2q -0.778125 0 -1.0421875 0.23125q -0.2640625 0.23125 -0.2640625 0.921875v 0.746875q 0 0.471875 -0.1671875 0.653125q -0.1671875 0.18125 -0.6046875 0.18125h -0.19375v 0.446875h 0.19375q 0.440625 0 0.60625 0.178125q 0.165625 0.178125 0.165625 0.646875v 0.75q 0 0.690625 0.2640625 0.9203125q 0.2640625 0.2296875 1.0421875 0.2296875h 0.2v -0.446875h -0.21875q -0.4375 0 -0.5703125 -0.1359375q -0.1328125 -0.1359375 -0.1328125 -0.5796875v -0.775q 0 -0.490625 -0.1421875 -0.7125q -0.1421875 -0.221875 -0.4859375 -0.3q 0.346875 -0.084375 0.4875 -0.30625q 0.140625 -0.221875 0.140625 -0.709375v -0.775q 0 -0.446875 0.1328125 -0.58125q 0.1328125 -0.134375 0.5703125 -0.134375h 0.21875Z "/></symbol><symbol id="gB413F1BFD7657DDB88F1EA0315EC495A" overflow="visible"><path d="M 0 0m 3.609375 2.778125q -0.184375 0.14375 -0.375 0.209375q -0.190625 0.065625 -0.41875 0.065625q -0.5375 0 -0.821875 -0.3375q -0.284375 -0.3375 -0.284375 -0.975v -1.740625h -0.578125v 3.5h 0.578125v -0.684375q 0.14375 0.371875 0.4421875 0.5703125q 0.2984375 0.1984375 0.7078125 0.1984375q 0.2125 0 0.396875 -0.053125q 0.184375 -0.053125 0.353125 -0.165625v -0.5875Z "/></symbol><symbol id="g66A892361610E15641DCBB20CC43196D" overflow="visible"><path d="M 0 0m 3.475 1.89375v -0.28125h -2.490625v -0.01875q 0 -0.571875 0.2984375 -0.884375q 0.2984375 -0.3125 0.8421875 -0.3125q 0.275 0 0.575 0.0875q 0.3 0.0875 0.640625 0.265625v -0.571875q -0.328125 -0.134375 -0.6328125 -0.2015625q -0.3046875 -0.0671875 -0.5890625 -0.0671875q -0.815625 0 -1.275 0.4890625q -0.459375 0.4890625 -0.459375 1.3484375q 0 0.8375 0.45 1.3375q 0.45 0.5 1.2 0.5q 0.66875 0 1.0546875 -0.453125q 0.3859375 -0.453125 0.3859375 -1.2375Z m -0.575 0.16875q -0.0125 0.50625 -0.2390625 0.7703125q -0.2265625 0.2640625 -0.6515625 0.2640625q -0.415625 0 -0.684375 -0.275q -0.26875 -0.275 -0.31875 -0.7625l 1.89375 0.003125Z "/></symbol><symbol id="g35B31CCF9841C4DFF68A0066E430EB3A" overflow="visible"><path d="M 0 0m 0.609375 1.325v 2.16875h 0.575v -2.16875q 0 -0.471875 0.1671875 -0.69375q 0.1671875 -0.221875 0.5171875 -0.221875q 0.40625 0 0.621875 0.2859375q 0.215625 0.2859375 0.215625 0.8203125v 1.978125h 0.578125v -3.49375h -0.578125v 0.525q -0.153125 -0.303125 -0.4171875 -0.459375q -0.2640625 -0.15625 -0.6171875 -0.15625q -0.5375 0 -0.8 0.3515625q -0.2625 0.3515625 -0.2625 1.0640625Z "/></symbol><symbol id="gFC49ED0133A1BA33EFBC5D10F045A7E6" overflow="visible"><path d="M 0 0m 1.509375 2.34375q 0 0.171875 0.1203125 0.296875q 0.1203125 0.125 0.2890625 0.125q 0.175 0 0.3 -0.125q 0.125 -0.125 0.125 -0.296875q 0 -0.175 -0.1234375 -0.296875q -0.1234375 -0.121875 -0.3015625 -0.121875q -0.175 0 -0.2921875 0.11875q -0.1171875 0.11875 -0.1171875 0.3Z m 0.415625 1.90625q -0.440625 0 -0.6578125 -0.475q -0.2171875 -0.475 -0.2171875 -1.446875q 0 -0.96875 0.2171875 -1.44375q 0.2171875 -0.475 0.6578125 -0.475q 0.44375 0 0.6609375 0.475q 0.2171875 0.475 0.2171875 1.44375q 0 0.971875 -0.2171875 1.446875q -0.2171875 0.475 -0.6609375 0.475Z m 0 0.5q 0.746875 0 1.1296875 -0.6125q 0.3828125 -0.6125 0.3828125 -1.809375q 0 -1.19375 -0.3828125 -1.80625q -0.3828125 -0.6125 -1.1296875 -0.6125q -0.746875 0 -1.128125 0.6125q -0.38125 0.6125 -0.38125 1.80625q 0 1.196875 0.38125 1.809375q 0.38125 0.6125 1.128125 0.6125Z "/></symbol><symbol id="g62B6360CB1267A2CE7D2021B0A62109" overflow="visible"><path d="M 0 0m 1.56875 0.946875h 0.7875v -0.646875l -0.615625 -1.196875h -0.48125l 0.309375 1.196875v 0.646875Z m -0.040625 2.375h 0.7875v -0.946875h -0.7875v 0.946875Z "/></symbol><symbol id="gB0CF3BDB49D3648E8E162D0614659BFA" overflow="visible"><path d="M 0 0m 0.690625 -0.59375h 0.2125q 0.440625 0 0.575 0.1375q 0.134375 0.1375 0.134375 0.578125v 0.775q 0 0.4875 0.140625 0.709375q 0.140625 0.221875 0.4875 0.30625q -0.34375 0.078125 -0.4859375 0.3q -0.1421875 0.221875 -0.1421875 0.7125v 0.775q 0 0.440625 -0.134375 0.578125q -0.134375 0.1375 -0.575 0.1375h -0.2125v 0.446875h 0.19375q 0.778125 0 1.040625 -0.2296875q 0.2625 -0.2296875 0.2625 -0.9203125v -0.75q 0 -0.46875 0.1671875 -0.646875q 0.1671875 -0.178125 0.6078125 -0.178125h 0.2v -0.446875h -0.2q -0.440625 0 -0.6078125 -0.18125q -0.1671875 -0.18125 -0.1671875 -0.653125v -0.746875q 0 -0.690625 -0.2625 -0.921875q -0.2625 -0.23125 -1.040625 -0.23125h -0.19375v 0.45Z "/></symbol><symbol id="gFE247756FD05543B7BA9C4F311057576" overflow="visible"><path d="M 0 0m 2.288 4.664c 0.12 0.52 0.2 0.84 0.2 0.84c 0 0.056 -0.024 0.08 -0.096 0.08c -0.216 -0.08 -0.792 -0.184 -1.12 -0.208l -0.024 -0.192c 0 -0.024 0.008 -0.04 0.04 -0.04l 0.248 -0.016c 0.104 0 0.168 -0.048 0.168 -0.224c 0 -0.088 -0.016 -0.224 -0.056 -0.4l -0.792 -3.552c -0.056 -0.256 -0.112 -0.528 -0.112 -0.68c 0 -0.152 0.04 -0.352 0.336 -0.352c 0.36 0 0.8 0.208 1.16 0.808c -0.032 0.08 -0.072 0.136 -0.176 0.136c -0.24 -0.288 -0.496 -0.464 -0.592 -0.464c -0.064 0 -0.096 0.048 -0.096 0.112c 0 0.064 0.024 0.184 0.096 0.504Z "/></symbol><symbol id="gE6041925C5CDE824BC36B8017189589E" overflow="visible"><path d="M 0 0m 1.96 2.56c 0.072 0.312 0.168 0.624 0.168 0.76c 0 0.112 -0.064 0.168 -0.168 0.168c -0.256 0 -0.616 -0.056 -0.992 -0.104c -0.056 -0.064 -0.04 -0.152 0.008 -0.224l 0.32 -0.024c 0.096 -0.008 0.144 -0.08 0.144 -0.16c 0 -0.072 -0.016 -0.184 -0.072 -0.408l -0.376 -1.648c -0.056 -0.256 -0.136 -0.584 -0.136 -0.736c 0 -0.152 0.088 -0.264 0.328 -0.264c 0.384 0 0.744 0.272 1.112 0.744c -0.024 0.072 -0.072 0.136 -0.184 0.136c -0.208 -0.24 -0.44 -0.4 -0.52 -0.4c -0.056 0 -0.08 0.04 -0.08 0.136c 0 0.072 0.04 0.248 0.088 0.456Z m -0.352 2c 0 -0.208 0.176 -0.384 0.384 -0.384c 0.208 0 0.384 0.176 0.384 0.384c 0 0.208 -0.176 0.384 -0.384 0.384c -0.208 0 -0.384 -0.176 -0.384 -0.384Z "/></symbol><symbol id="gAD6F8359CA84228477881446262517F1" overflow="visible"><path d="M 0 0m 1.488 3.432l -0.424 -0.024c -0.152 -0.008 -0.208 -0.072 -0.224 -0.136c -0.008 -0.024 -0.032 -0.12 -0.032 -0.136c 0 -0.016 0.024 -0.016 0.048 -0.016h 0.56l -0.488 -2.176c -0.056 -0.256 -0.112 -0.504 -0.112 -0.656c 0 -0.288 0.144 -0.368 0.392 -0.368c 0.36 0 0.888 0.328 1.16 0.824c -0.024 0.104 -0.08 0.152 -0.176 0.152c -0.368 -0.416 -0.512 -0.496 -0.64 -0.496c -0.024 0 -0.104 0.016 -0.104 0.112c 0 0.072 0.024 0.232 0.088 0.504l 0.472 2.104h 0.784c 0.096 0.04 0.168 0.248 0.08 0.312h -0.792l 0.08 0.36c 0.032 0.152 0.104 0.384 0.104 0.48c 0 0.136 -0.064 0.216 -0.32 0.216c -0.288 0 -0.272 -0.36 -0.352 -0.656Z "/></symbol><symbol id="g61B5D7BE747767C332BCE2AC31F22B33" overflow="visible"><path d="M 0 0m 1.336 1.592c 2.056 0.4 2.056 1.008 2.056 1.312c 0 0.008 0 0.008 0 0.016c 0 0.2 -0.184 0.592 -0.76 0.592c -1.392 0 -1.968 -1.36 -1.968 -2.376c 0 -0.68 0.32 -1.216 0.984 -1.216c 0.536 0 1.024 0.28 1.496 0.888c -0.04 0.088 -0.088 0.128 -0.184 0.128c -0.456 -0.464 -0.64 -0.536 -1.024 -0.536c -0.36 0 -0.608 0.192 -0.608 0.92c 0 0.04 0 0.208 0.008 0.272Z m 1.504 1.368c 0 -0.72 -0.84 -0.984 -1.448 -1.064c 0.28 1.136 0.72 1.368 1.056 1.368c 0.288 0 0.392 -0.072 0.392 -0.304Z "/></symbol><symbol id="gDBE4BB30DEB61BC1E1FABF606CF06198" overflow="visible"><path d="M 0 0m 1.768 2.28l 0.064 0.28c 0.072 0.312 0.144 0.592 0.144 0.728c 0 0.12 -0.072 0.2 -0.176 0.2c -0.256 0 -0.584 -0.056 -0.96 -0.104c -0.056 -0.064 -0.04 -0.152 0.008 -0.224l 0.32 -0.024c 0.096 -0.008 0.144 -0.08 0.144 -0.16c 0 -0.072 0 -0.184 -0.056 -0.408l -0.44 -1.992c -0.04 -0.168 -0.104 -0.312 -0.104 -0.44c 0 -0.128 0.072 -0.216 0.304 -0.216c 0.28 0 0.288 0.344 0.368 0.656l 0.232 0.936c 0.384 0.696 0.832 1.44 1.016 1.44c 0.08 0 0.12 -0.04 0.168 -0.096c 0.056 -0.064 0.16 -0.168 0.272 -0.168c 0.216 0 0.36 0.232 0.36 0.448c 0 0.168 -0.12 0.376 -0.416 0.376c -0.4 0 -0.864 -0.496 -1.216 -1.24Z "/></symbol><symbol id="gB04B8D1DDBCA11F2DF88C4A2D13B4202" overflow="visible"><path d="M 0 0m 3.28 3.464c -0.216 0.024 -0.32 0.048 -0.64 0.048c -0.856 0 -2.016 -1.256 -2.016 -2.512c 0 -0.448 0.104 -1.08 0.776 -1.08c 0.424 0 0.872 0.44 1.352 1.152l 0.016 -0.016l -0.104 -0.336c -0.056 -0.184 -0.08 -0.344 -0.08 -0.44c 0 -0.152 0.056 -0.36 0.328 -0.36c 0.496 0 0.816 0.32 1.024 0.776c -0.04 0.072 -0.08 0.128 -0.184 0.128c -0.216 -0.296 -0.368 -0.424 -0.448 -0.424c -0.024 0 -0.096 0.016 -0.096 0.112c 0 0.072 0.048 0.296 0.08 0.448l 0.552 2.488c -0.056 0 -0.104 0 -0.16 0c -0.144 -0.008 -0.28 -0.016 -0.4 0.016Z m -0.4 -1.712c -0.392 -0.72 -1.008 -1.392 -1.264 -1.392c -0.272 0 -0.352 0.32 -0.352 0.768c 0 0.848 0.664 2.136 1.4 2.136c 0.168 0 0.344 -0.056 0.496 -0.152c 0 0 -0.08 -0.848 -0.28 -1.36Z "/></symbol><symbol id="gFFDF1DF9721D257115BD05E0251B53B4" overflow="visible"><path d="M 0 0m 2.824 0c 0.152 0.256 1.128 1.752 1.352 2.28c 0.12 0.28 0.216 0.568 0.216 0.856c 0 0.224 -0.104 0.376 -0.416 0.376c -0.232 0 -0.368 -0.104 -0.368 -0.296c 0 -0.048 0.016 -0.128 0.04 -0.16c 0.12 -0.184 0.168 -0.352 0.168 -0.48c 0 -0.352 -0.328 -0.952 -0.6 -1.384c 0 0 -0.416 -0.672 -0.616 -0.968l -0.056 0.024c -0.048 0.928 -0.104 1.68 -0.344 2.672c -0.112 0.424 -0.216 0.592 -0.416 0.592c -0.184 0 -0.776 -0.328 -1.056 -0.536c 0.008 -0.088 0.04 -0.184 0.104 -0.248c 0.096 0.048 0.36 0.176 0.528 0.176c 0.104 0 0.184 -0.024 0.224 -0.096c 0.032 -0.064 0.08 -0.192 0.12 -0.336c 0.248 -0.816 0.488 -2.76 0.392 -2.968c -0.328 -0.536 -0.664 -0.888 -0.776 -0.888c -0.08 0 -0.232 0.104 -0.28 0.144c -0.056 0.048 -0.216 0.112 -0.28 0.112c -0.168 0 -0.368 -0.16 -0.368 -0.408c 0 -0.264 0.352 -0.336 0.488 -0.336c 0.424 0 1.064 0.52 1.576 1.312Z "/></symbol><symbol id="g26EDEFCEAA49573C8DC0AC67544E6667" overflow="visible"><path d="M 0 0m 2.84 0.384c 0.016 -0.192 0.032 -0.328 0.032 -0.328c 0.008 -0.096 0.072 -0.136 0.184 -0.136c 0.296 0.08 0.776 0.192 1.328 0.264c 0.016 0.048 0 0.208 -0.016 0.256c -0.432 0.04 -0.52 0.168 -0.52 0.624v 3.6c 0 0.52 0.024 0.816 0.024 0.816c 0 0.072 -0.056 0.104 -0.128 0.104c -0.296 -0.096 -0.936 -0.184 -1.504 -0.208c -0.024 -0.096 -0.016 -0.2 0.024 -0.272c 0.504 -0.04 0.544 -0.048 0.544 -0.6v -1.04c -0.152 0.048 -0.344 0.088 -0.576 0.088c -1.032 0 -1.936 -0.904 -1.936 -1.968c 0 -0.472 0.168 -1.024 0.56 -1.328c 0.288 -0.224 0.488 -0.336 0.936 -0.336c 0.216 0 0.808 0.352 0.976 0.464Z m -0.024 0.376c -0.168 -0.136 -0.592 -0.312 -0.688 -0.312c -0.4 0 -0.712 0.448 -0.712 1.384c 0 0.424 0.048 0.792 0.2 1.04c 0.136 0.216 0.352 0.344 0.592 0.344c 0.208 0 0.408 -0.024 0.6 -0.288v -1.968c 0 -0.064 0 -0.136 0.008 -0.2Z "/></symbol><symbol id="g5E23858A6788B0A9FB32664FB80FB647" overflow="visible"><path d="M 0 0m 2.36 0.392c 0.056 -0.328 0.272 -0.472 0.624 -0.472c 0.44 0 0.752 0.168 1.048 0.448c -0.016 0.096 -0.048 0.16 -0.144 0.224c -0.104 -0.08 -0.184 -0.112 -0.336 -0.112c -0.176 0 -0.224 0.144 -0.224 0.536l 0.016 1.152c 0 1.152 -0.712 1.384 -1.368 1.384c -0.584 0 -1.48 -0.336 -1.48 -0.864c 0 -0.224 0.096 -0.4 0.408 -0.4c 0.288 0 0.496 0.176 0.496 0.368c 0 0.04 -0.008 0.088 -0.016 0.136c -0.016 0.08 -0.032 0.16 -0.016 0.24c 0.008 0.088 0.072 0.184 0.336 0.184c 0.336 0 0.616 -0.144 0.616 -1.16l -0.536 -0.168c -0.84 -0.264 -1.432 -0.496 -1.432 -1.128c 0 -0.552 0.304 -0.84 1 -0.84c 0.232 0 0.696 0.256 0.96 0.464Z m -0.04 1.352v -1.056c -0.2 -0.16 -0.4 -0.288 -0.544 -0.288c -0.344 0 -0.464 0.232 -0.464 0.48c 0 0.296 0.024 0.544 0.592 0.728Z "/></symbol><symbol id="gE5AAB67C597A5269A2F0636337D2F1A7" overflow="visible"><path d="M 0 0m 1.936 -1.344c 0.128 0.224 0.248 0.512 0.344 0.752c 0.64 1.544 1.032 2.408 1.456 3.304c 0.112 0.232 0.352 0.48 0.648 0.504c 0.048 0.048 0.048 0.224 0 0.272c -0.2 -0.008 -0.344 -0.016 -0.568 -0.016c -0.28 0 -0.552 0.008 -0.848 0.016c -0.048 -0.048 -0.048 -0.224 0 -0.272c 0.256 -0.024 0.512 -0.064 0.384 -0.352l -0.824 -1.848c 0 -0.008 0 -0.008 -0.008 -0.016c 0 0.008 0 0.016 -0.008 0.032l -0.744 1.672c -0.008 0.008 -0.008 0.016 -0.008 0.024c -0.144 0.312 -0.2 0.448 0.272 0.488c 0.048 0.048 0.048 0.224 0 0.272c -0.296 -0.008 -0.776 -0.016 -1.064 -0.016c -0.272 0 -0.728 0.008 -0.888 0.016c -0.048 -0.048 -0.048 -0.224 0 -0.272c 0.352 -0.032 0.416 -0.088 0.632 -0.592l 1.032 -2.368c 0.024 -0.04 0.056 -0.072 0.08 -0.104c 0.104 -0.144 0.192 -0.264 0.144 -0.376l -0.192 -0.44c -0.104 -0.248 -0.2 -0.392 -0.424 -0.392c -0.144 0 -0.168 0.032 -0.28 0.032c -0.304 0 -0.48 -0.208 -0.48 -0.368c 0 -0.104 0.024 -0.232 0.096 -0.32c 0.072 -0.088 0.208 -0.144 0.312 -0.144c 0.104 0 0.344 0.032 0.456 0.08c 0.168 0.08 0.392 0.272 0.48 0.432Z "/></symbol><symbol id="g616A0F8D8949FEEEA0560D0C7259CD33" overflow="visible"><path d="M 0 0m 4.944 0.976v 3.208c 0 0.664 0.136 0.704 0.696 0.728c 0.048 0.048 0.048 0.216 0 0.264c -0.328 -0.008 -0.736 -0.016 -1.04 -0.016c -0.296 0 -0.68 0.008 -1.032 0.016c -0.048 -0.048 -0.048 -0.216 0 -0.264c 0.56 -0.024 0.696 -0.064 0.696 -0.728v -1.28h -2.736v 1.28c 0 0.664 0.136 0.704 0.696 0.728c 0.048 0.048 0.048 0.216 0 0.264c -0.304 -0.008 -0.632 -0.016 -1.04 -0.016c -0.4 0 -0.728 0.008 -1.032 0.016c -0.048 -0.048 -0.048 -0.216 0 -0.264c 0.56 -0.024 0.696 -0.064 0.696 -0.728v -3.208c 0 -0.664 -0.136 -0.704 -0.696 -0.728c -0.048 -0.048 -0.048 -0.216 0 -0.264c 0.352 0.008 0.736 0.016 1.04 0.016c 0.288 0 0.68 -0.008 1.032 -0.016c 0.048 0.048 0.048 0.216 0 0.264c -0.56 0.024 -0.696 0.064 -0.696 0.728v 1.592h 2.736v -1.592c 0 -0.664 -0.136 -0.704 -0.696 -0.728c -0.048 -0.048 -0.048 -0.216 0 -0.264c 0.36 0.008 0.744 0.016 1.04 0.016c 0.296 0 0.68 -0.008 1.032 -0.016c 0.048 0.048 0.048 0.216 0 0.264c -0.56 0.024 -0.696 0.064 -0.696 0.728Z "/></symbol><symbol id="g20EDBE1E989F56AA9FBFD4A2EF5BDC35" overflow="visible"><path d="M 0 0m 3.088 0.744c -0.296 -0.304 -0.528 -0.432 -0.992 -0.432c -0.288 0 -0.624 0.168 -0.872 0.576c -0.16 0.264 -0.256 0.632 -0.256 1.096l 2.128 -0.016c 0.096 0 0.152 0.048 0.152 0.136c 0 0.672 -0.24 1.392 -1.352 1.392c -0.696 0 -1.6 -0.664 -1.6 -1.88c 0 -0.448 0.112 -0.88 0.376 -1.184c 0.272 -0.32 0.648 -0.512 1.224 -0.512c 0.608 0 1.04 0.28 1.36 0.696c -0.024 0.08 -0.072 0.12 -0.168 0.128Z m -2.096 1.512c 0.152 0.904 0.712 0.976 0.904 0.976c 0.304 0 0.664 -0.168 0.664 -0.84c 0 -0.072 -0.032 -0.112 -0.12 -0.112Z "/></symbol><symbol id="g9CB01113ED99ABC5A5F75E5016C1499E" overflow="visible"><path d="M 0 0m 0.76 0.976c 0 -0.664 -0.088 -0.704 -0.576 -0.728c -0.048 -0.048 -0.048 -0.216 0 -0.264c 0.28 0.008 0.576 0.016 0.896 0.016c 0.32 0 0.624 -0.008 0.888 -0.016c 0.048 0.048 0.048 0.216 0 0.264c -0.488 0.024 -0.576 0.064 -0.576 0.728v 3.688c 0 0.52 0.032 0.84 0.032 0.84c 0 0.056 -0.032 0.08 -0.104 0.08c -0.2 -0.08 -0.8 -0.192 -1.12 -0.216c -0.016 -0.064 0 -0.192 0.048 -0.24c 0.464 -0.032 0.512 -0.056 0.512 -0.656Z "/></symbol><symbol id="g2B678EF10194558DA6DED0CDF87DA3E4" overflow="visible"><path d="M 0 0m 0.328 1.64c 0 -0.816 0.544 -1.72 1.68 -1.72c 0.512 0 0.904 0.184 1.176 0.448c 0.36 0.352 0.52 0.856 0.52 1.344c 0 0.832 -0.456 1.8 -1.68 1.8c -0.528 0 -0.96 -0.216 -1.256 -0.56c -0.288 -0.344 -0.44 -0.808 -0.44 -1.312Z m 1.576 1.592c 0.688 0 1.112 -0.624 1.112 -1.776c 0 -1.008 -0.52 -1.256 -0.896 -1.256c -0.832 0 -1.104 1.008 -1.104 1.624c 0 0.696 0.168 1.408 0.888 1.408Z "/></symbol><symbol id="g257321D448ABEEFA4C949A97C9AEA63C" overflow="visible"><path d="M 0 0m 2.8 0.976v 3.056c 0 0.512 0.08 0.816 0.368 0.816h 0.176c 0.6 0 0.976 -0.208 1.112 -0.824c 0.088 0 0.2 0.008 0.272 0.04c -0.056 0.368 -0.096 0.776 -0.104 1.136c 0 0.008 -0.016 0.024 -0.024 0.024c -0.272 -0.024 -1.16 -0.064 -1.792 -0.064h -0.688c -0.616 0 -1.56 0.04 -1.864 0.064c -0.016 0 -0.032 -0.016 -0.032 -0.024c -0.032 -0.36 -0.112 -0.776 -0.2 -1.16c 0.08 -0.032 0.176 -0.04 0.272 -0.04c 0.16 0.64 0.528 0.848 1.056 0.848h 0.392c 0.296 0 0.376 -0.304 0.376 -0.792v -3.08c 0 -0.664 -0.136 -0.704 -0.776 -0.728c -0.048 -0.048 -0.048 -0.216 0 -0.264c 0.392 0.008 0.8 0.016 1.12 0.016c 0.304 0 0.712 -0.008 1.112 -0.016c 0.048 0.048 0.048 0.216 0 0.264c -0.64 0.024 -0.776 0.064 -0.776 0.728Z "/></symbol><symbol id="gD6C08740CFCAAF86BCA909E63B9538D" overflow="visible"><path d="M 0 0m 1.336 2.288c 0 0.168 0.072 0.264 0.136 0.336c 0.304 0.296 0.712 0.472 1.024 0.472c 0.16 0 0.328 -0.104 0.424 -0.288c 0.08 -0.16 0.096 -0.376 0.096 -0.616v -1.216c 0 -0.656 -0.08 -0.688 -0.496 -0.728c -0.04 -0.048 -0.04 -0.216 0 -0.264c 0.224 0.008 0.496 0.016 0.816 0.016c 0.32 0 0.584 -0.008 0.848 -0.016c 0.04 0.048 0.04 0.216 0 0.264c -0.448 0.04 -0.536 0.072 -0.536 0.728v 1.192c 0 0.44 -0.032 0.832 -0.216 1.072c -0.136 0.176 -0.384 0.272 -0.664 0.272c -0.392 0 -0.872 -0.104 -1.36 -0.648c 0 -0.008 -0.008 -0.008 -0.016 -0.016c -0.024 -0.032 -0.064 -0.08 -0.064 0.016l 0.008 1.8c 0 0.52 0.032 0.84 0.032 0.84c 0 0.056 -0.032 0.08 -0.104 0.08c -0.2 -0.08 -0.8 -0.192 -1.12 -0.216c -0.016 -0.064 0 -0.192 0.048 -0.24c 0.024 0 0.048 0 0.072 0c 0.352 -0.024 0.44 -0.024 0.44 -0.656v -3.496c 0 -0.664 -0.096 -0.696 -0.56 -0.728c -0.048 -0.048 -0.048 -0.216 0 -0.264c 0.264 0.008 0.56 0.016 0.88 0.016c 0.304 0 0.568 -0.008 0.792 -0.016c 0.048 0.048 0.048 0.216 0 0.264c -0.408 0.032 -0.48 0.064 -0.48 0.728Z "/></symbol><symbol id="g2BFBF805A6B9D0BF9A5DDB8FE340411" overflow="visible"><path d="M 0 0m 1.448 0.976v 1.592c 0 0.4 0.032 0.912 0.032 0.912c 0 0.032 -0.04 0.056 -0.104 0.056c -0.224 -0.088 -0.544 -0.16 -1.096 -0.232c -0.016 -0.048 0 -0.176 0.016 -0.224c 0.44 -0.04 0.52 -0.088 0.52 -0.544v -1.56c 0 -0.664 -0.088 -0.688 -0.576 -0.728c -0.048 -0.048 -0.048 -0.216 0 -0.264c 0.264 0.008 0.576 0.016 0.896 0.016c 0.32 0 0.624 -0.008 0.888 -0.016c 0.048 0.048 0.048 0.216 0 0.264c -0.488 0.032 -0.576 0.064 -0.576 0.728Z m -0.728 3.816c 0 -0.208 0.192 -0.416 0.384 -0.416c 0.224 0 0.416 0.216 0.416 0.384c 0 0.192 -0.168 0.416 -0.384 0.416c -0.192 0 -0.416 -0.192 -0.416 -0.384Z "/></symbol><symbol id="g86ABD9B98157573BF6882A43FA434742" overflow="visible"><path d="M 0 0m 0.384 1.104c 0.032 -0.392 0.056 -0.768 0.056 -1.104c 0.08 0.016 0.16 0.024 0.2 0.024c 0.056 0 0.104 0 0.16 -0.016c 0.216 -0.056 0.432 -0.088 0.728 -0.088c 0.448 0 1.272 0.216 1.272 1.008c 0 0.544 -0.392 0.864 -0.936 1.064c -0.48 0.184 -0.8 0.304 -0.8 0.744c 0 0.328 0.288 0.512 0.56 0.512c 0.176 0 0.64 -0.064 0.744 -0.744c 0.048 -0.048 0.208 -0.04 0.256 0.008c 0.024 0.288 0.04 0.584 0.048 0.848c -0.248 0.04 -0.632 0.152 -1.048 0.152c -0.592 0 -1.128 -0.384 -1.128 -0.896c 0 -0.584 0.264 -0.832 0.88 -1.088c 0.664 -0.272 0.816 -0.44 0.816 -0.784c 0 -0.392 -0.384 -0.56 -0.68 -0.56c -0.312 0 -0.488 0.104 -0.568 0.192c -0.176 0.184 -0.264 0.536 -0.312 0.736c -0.048 0.048 -0.2 0.04 -0.248 -0.008Z "/></symbol><symbol id="g8CD924B1796CDEE998E484DA1D8D34C1" overflow="visible"><path d="M 0 0m 1.192 0h 1.704c 0.216 0 0.952 -0.016 0.952 -0.016c 0.08 0.4 0.16 0.92 0.208 1.336c -0.08 0.04 -0.168 0.056 -0.264 0.04c -0.16 -0.576 -0.456 -1.048 -1.304 -1.048h -0.504c -0.312 0 -0.456 0.152 -0.456 0.56v 3.312c 0 0.664 0.136 0.704 0.696 0.728c 0.048 0.048 0.048 0.216 0 0.264c -0.36 -0.008 -0.736 -0.016 -1.04 -0.016c -0.288 0 -0.664 0.008 -1.032 0.016c -0.048 -0.048 -0.048 -0.216 0 -0.264c 0.56 -0.024 0.696 -0.064 0.696 -0.728v -3.208c 0 -0.664 -0.136 -0.704 -0.696 -0.728c -0.048 -0.048 -0.048 -0.216 0 -0.264c 0.312 0.008 0.768 0.016 1.04 0.016Z "/></symbol><symbol id="gC65908FBCF60F62A897EEDA0AB2A464A" overflow="visible"><path d="M 0 0m 0.688 0.976c 0 -0.664 -0.088 -0.696 -0.536 -0.728c -0.048 -0.048 -0.048 -0.216 0 -0.264c 0.264 0.008 0.536 0.016 0.856 0.016c 0.28 0 0.544 -0.008 0.728 -0.016c 0.048 0.048 0.048 0.216 0 0.264c -0.328 0.032 -0.416 0.064 -0.416 0.728v 0.696c 0.152 -0.008 0.264 -0.016 0.344 -0.04c 0.088 -0.064 0.16 -0.136 0.256 -0.264l 0.584 -0.784c 0.232 -0.312 0.328 -0.464 0.336 -0.56c 0 -0.024 0.008 -0.04 0.032 -0.04c 0.16 0.008 0.336 0.016 0.496 0.016c 0.248 0 0.496 -0.008 0.656 -0.016c 0.048 0.048 0.048 0.216 0 0.264c -0.272 0.032 -0.472 0.064 -0.688 0.336l -1.056 1.328c -0.032 0.04 -0.056 0.072 -0.056 0.112c 0 0.032 0 0.048 0.032 0.08l 0.704 0.728c 0.24 0.256 0.52 0.32 0.84 0.352c 0.048 0.048 0.048 0.216 0 0.264c -0.184 -0.008 -0.408 -0.016 -0.696 -0.016c -0.304 0 -0.6 0.008 -0.784 0.016c -0.048 -0.048 -0.048 -0.216 0 -0.264c 0.448 -0.032 0.256 -0.312 0.184 -0.408c -0.184 -0.232 -0.432 -0.504 -0.64 -0.656c -0.176 -0.128 -0.392 -0.224 -0.544 -0.248v 2.792c 0 0.52 0.032 0.84 0.032 0.84c 0 0.056 -0.032 0.08 -0.104 0.08c -0.2 -0.08 -0.8 -0.192 -1.12 -0.216c -0.016 -0.064 0 -0.192 0.048 -0.24c 0.024 0 0.048 0 0.072 0c 0.352 -0.024 0.44 -0.024 0.44 -0.656Z "/></symbol><symbol id="g3078E795B3E2291E912DCDEB76EE36F" overflow="visible"><path d="M 0 0m 0.344 3.432c -0.112 0 -0.144 -0.096 -0.144 -0.16v -0.104c 0 -0.04 0.008 -0.048 0.04 -0.048h 0.472v -2.408c 0 -0.568 0.248 -0.792 0.616 -0.792c 0.368 0 0.768 0.176 1.08 0.528c -0.016 0.08 -0.064 0.128 -0.144 0.136c -0.208 -0.16 -0.448 -0.224 -0.656 -0.224c -0.216 0 -0.264 0.24 -0.264 0.736v 2.024h 0.832c 0.08 0 0.192 0.032 0.192 0.104v 0.16c 0 0.032 -0.024 0.048 -0.064 0.048h -0.96v 0.312c 0 0.52 0.032 0.84 0.032 0.84c 0 0.048 -0.024 0.072 -0.064 0.072c -0.032 0 -0.104 -0.032 -0.176 -0.072c -0.088 -0.048 -0.168 -0.088 -0.272 -0.112c -0.096 -0.032 -0.176 -0.056 -0.176 -0.112c 0 -0.096 0.024 -0.04 0.024 -0.928Z "/></symbol><symbol id="g58427B726775E01C628C261B90DBAC4F" overflow="visible"><path d="M 0 0m 1.36 2.864c -0.008 0.24 -0.024 0.528 -0.064 0.608c -0.016 0.04 -0.032 0.064 -0.096 0.064c -0.224 -0.088 -0.432 -0.16 -0.984 -0.232c -0.016 -0.048 0 -0.176 0.016 -0.224c 0.432 -0.04 0.52 -0.08 0.52 -0.544v -1.56c 0 -0.656 -0.104 -0.696 -0.544 -0.728c -0.048 -0.048 -0.048 -0.216 0 -0.264c 0.24 0.008 0.544 0.016 0.864 0.016c 0.32 0 0.568 -0.008 0.808 -0.016c 0.048 0.048 0.048 0.216 0 0.264c -0.408 0.04 -0.496 0.072 -0.496 0.728v 1.312c 0 0.168 0.072 0.264 0.136 0.336c 0.32 0.312 0.616 0.472 0.864 0.472c 0.304 0 0.528 -0.192 0.528 -0.728v -1.392c 0 -0.656 -0.064 -0.696 -0.496 -0.728c -0.04 -0.048 -0.04 -0.216 0 -0.264c 0.2 0.008 0.496 0.016 0.816 0.016c 0.32 0 0.584 -0.008 0.784 -0.016c 0.04 0.048 0.04 0.216 0 0.264c -0.4 0.032 -0.472 0.072 -0.472 0.728v 1.272c 0 0.112 0 0.224 -0.008 0.32c 0.384 0.424 0.744 0.528 1.056 0.528c 0.304 0 0.48 -0.176 0.48 -0.712v -1.408c 0 -0.656 -0.08 -0.696 -0.496 -0.728c -0.04 -0.048 -0.04 -0.216 0 -0.264c 0.2 0.008 0.496 0.016 0.816 0.016c 0.32 0 0.6 -0.008 0.824 -0.016c 0.04 0.048 0.04 0.216 0 0.264c -0.44 0.032 -0.512 0.072 -0.512 0.728v 1.264c 0 0.712 -0.12 1.272 -0.824 1.272c -0.408 0 -0.904 -0.152 -1.32 -0.592c -0.024 -0.024 -0.072 -0.064 -0.088 0.008c -0.072 0.328 -0.384 0.584 -0.8 0.584c -0.464 0 -0.88 -0.272 -1.216 -0.648c -0.04 -0.04 -0.088 -0.096 -0.096 0Z "/></symbol><symbol id="gF14903D79C881A9B6AC2EE7D8BED6F03" overflow="visible"><path d="M 0 0m 1.408 2.864c -0.016 0.32 -0.024 0.528 -0.064 0.608c -0.016 0.04 -0.032 0.064 -0.096 0.064c -0.224 -0.088 -0.432 -0.16 -0.984 -0.232c -0.016 -0.048 0 -0.176 0.016 -0.224c 0.432 -0.04 0.52 -0.08 0.52 -0.544v -1.56c 0 -0.664 -0.096 -0.696 -0.592 -0.728c -0.048 -0.048 -0.048 -0.216 0 -0.264c 0.28 0.008 0.592 0.016 0.912 0.016c 0.32 0 0.688 -0.008 0.968 -0.016c 0.048 0.048 0.048 0.216 0 0.264c -0.56 0.04 -0.656 0.064 -0.656 0.728v 1.112c 0 0.208 0.096 0.392 0.192 0.536c 0.088 0.128 0.272 0.392 0.368 0.392c 0.072 0 0.144 -0.016 0.208 -0.104c 0.056 -0.08 0.152 -0.184 0.288 -0.184c 0.192 0 0.376 0.2 0.376 0.4c 0 0.152 -0.144 0.384 -0.48 0.384c -0.376 0 -0.704 -0.352 -0.888 -0.664c -0.048 -0.088 -0.088 -0.024 -0.088 0.016Z "/></symbol><symbol id="g6EBC0479C6E747D8CB978FFD918AD9C7" overflow="visible"><path d="M 0 0m 1.624 3.184c 0.048 0.048 0.048 0.216 0 0.264c -0.24 -0.008 -0.52 -0.016 -0.808 -0.016c -0.304 0 -0.52 0.008 -0.728 0.016c -0.048 -0.048 -0.048 -0.216 0 -0.264c 0.376 -0.04 0.464 -0.12 0.632 -0.536l 1.048 -2.584c 0.048 -0.112 0.112 -0.16 0.192 -0.16c 0.072 0 0.136 0.048 0.192 0.176l 0.808 1.968l 0.824 -1.984c 0.048 -0.112 0.112 -0.16 0.192 -0.16c 0.072 0 0.136 0.048 0.184 0.168l 1.048 2.536c 0.128 0.328 0.264 0.552 0.672 0.576c 0.048 0.048 0.048 0.216 0 0.264c -0.16 -0.008 -0.336 -0.016 -0.576 -0.016c -0.24 0 -0.576 0.008 -0.816 0.016c -0.048 -0.048 -0.048 -0.216 0 -0.264c 0.6 -0.032 0.52 -0.264 0.408 -0.544l -0.672 -1.664c -0.08 -0.2 -0.112 -0.2 -0.176 -0.032l -0.688 1.752c -0.152 0.376 -0.136 0.456 0.288 0.488c 0.048 0.048 0.048 0.216 0 0.264c -0.24 -0.008 -0.56 -0.016 -0.8 -0.016c -0.2 0 -0.464 0.008 -0.704 0.016c -0.048 -0.048 -0.048 -0.216 0 -0.264c 0.376 -0.032 0.472 -0.264 0.616 -0.624l 0.048 -0.128l -0.56 -1.416c -0.104 -0.264 -0.12 -0.272 -0.224 -0.016l -0.64 1.648c -0.152 0.384 -0.144 0.512 0.24 0.536Z "/></symbol><symbol id="g8C602F113ED136B9EC97C2B861CC969C" overflow="visible"><path d="M 0 0m 2.856 -0.08c 0.776 0 1.488 0.368 2.032 1.08c -0.04 0.072 -0.096 0.12 -0.184 0.12c -0.568 -0.624 -1.112 -0.872 -1.856 -0.872c -1.08 0 -1.824 1.216 -1.824 2.384c 0 0.688 0.184 1.264 0.472 1.624c 0.4 0.488 0.864 0.712 1.28 0.712c 1.104 0 1.544 -0.656 1.752 -1.344c 0.096 -0.032 0.176 -0.008 0.264 0.04c -0.04 0.416 -0.096 0.8 -0.176 1.24c -0.408 0.04 -0.768 0.36 -1.752 0.36c -0.68 0 -1.248 -0.248 -1.72 -0.68c -0.528 -0.488 -0.848 -1.272 -0.848 -2.104c 0 -1.392 0.84 -2.56 2.56 -2.56Z "/></symbol><symbol id="g737E31D6A5E93E22E9ED4AD10D42FE71" overflow="visible"><path d="M 0 0m 1.472 2.864c -0.048 -0.056 -0.096 -0.072 -0.096 0c -0.008 0.216 -0.024 0.528 -0.064 0.608c -0.016 0.04 -0.032 0.064 -0.096 0.064c -0.224 -0.088 -0.432 -0.16 -0.984 -0.232c -0.016 -0.048 0 -0.176 0.016 -0.224c 0.432 -0.04 0.52 -0.08 0.52 -0.544v -1.56c 0 -0.656 -0.08 -0.688 -0.56 -0.728c -0.048 -0.048 -0.048 -0.216 0 -0.264c 0.24 0.008 0.56 0.016 0.88 0.016c 0.32 0 0.56 -0.008 0.8 -0.016c 0.048 0.048 0.048 0.216 0 0.264c -0.408 0.04 -0.488 0.072 -0.488 0.728v 1.312c 0 0.168 0.072 0.264 0.136 0.336c 0.304 0.296 0.664 0.472 0.976 0.472c 0.16 0 0.328 -0.104 0.424 -0.288c 0.08 -0.16 0.096 -0.376 0.096 -0.616v -1.216c 0 -0.656 -0.08 -0.688 -0.496 -0.728c -0.04 -0.048 -0.04 -0.216 0 -0.264c 0.24 0.008 0.496 0.016 0.816 0.016c 0.32 0 0.608 -0.008 0.848 -0.016c 0.04 0.048 0.04 0.216 0 0.264c -0.448 0.04 -0.536 0.072 -0.536 0.728v 1.192c 0 0.44 -0.032 0.824 -0.216 1.072c -0.136 0.176 -0.384 0.272 -0.664 0.272c -0.392 0 -0.84 -0.104 -1.312 -0.648Z "/></symbol><symbol id="g7CA707F1BCB16774F6BEEBBEACACFCA3" overflow="visible"><path d="M 0 0m 1.736 -0.08c 0.312 0 0.688 0.16 1.08 0.48c 0.04 0.032 0.112 0.048 0.12 -0.008c 0.024 -0.2 0.088 -0.472 0.088 -0.472c 0.064 -0.024 0.104 -0.016 0.152 0c 0.176 0.144 0.456 0.264 0.944 0.32c 0.048 0.048 0.048 0.168 0 0.216c -0.512 0.04 -0.584 0.192 -0.584 0.584v 1.536c 0 0.24 0.032 0.824 0.032 0.824c 0 0.024 -0.024 0.048 -0.064 0.048c -0.04 -0.008 -0.16 -0.016 -0.28 -0.016c -0.256 0 -0.544 0.008 -0.816 0.016c -0.048 -0.048 -0.048 -0.216 0 -0.264c 0.392 -0.024 0.496 -0.12 0.496 -0.648v -1.544c 0 -0.152 -0.016 -0.216 -0.128 -0.312c -0.296 -0.256 -0.6 -0.384 -0.8 -0.384c -0.24 0 -0.64 0.112 -0.64 0.824v 1.456c 0 0.24 0.032 0.824 0.032 0.824c 0 0.024 -0.024 0.048 -0.064 0.048c -0.04 -0.008 -0.16 -0.016 -0.28 -0.016c -0.256 0 -0.544 0.008 -0.816 0.016c -0.048 -0.048 -0.048 -0.216 0 -0.264c 0.384 -0.032 0.496 -0.12 0.496 -0.64v -1.536c 0 -0.552 0.24 -1.088 1.032 -1.088Z "/></symbol><symbol id="g1F1BCAA22D5AC8016D9977B20177A91D" overflow="visible"><path d="M 0 0m 6.48 4.52l -1.248 -3.472l -0.024 0.008l -1.104 3.376c -0.136 0.432 0.144 0.456 0.416 0.48c 0.048 0.048 0.048 0.216 0 0.264c -0.328 -0.008 -0.68 -0.016 -1 -0.016c -0.264 0 -0.544 0.008 -0.8 0.016c -0.048 -0.048 -0.048 -0.216 0 -0.264c 0.424 -0.024 0.6 -0.272 0.672 -0.48l 0.184 -0.528c 0.032 -0.096 0.056 -0.176 0.056 -0.248c 0 -0.08 -0.008 -0.144 -0.072 -0.28l -1.032 -2.344l -0.04 0.008l -1.168 3.536c -0.096 0.28 0.12 0.32 0.4 0.336c 0.048 0.048 0.048 0.216 0 0.264c -0.264 -0.008 -0.616 -0.016 -0.928 -0.016c -0.28 0 -0.512 0.008 -0.744 0.016c -0.048 -0.048 -0.048 -0.216 0 -0.264c 0.36 -0.024 0.416 -0.032 0.568 -0.464l 1.504 -4.328c 0.04 -0.128 0.088 -0.216 0.176 -0.216c 0.104 0 0.152 0.08 0.208 0.216l 1.192 2.68c 0.072 0.16 0.096 0.2 0.136 0.2c 0.032 0 0.064 -0.088 0.112 -0.224l 0.92 -2.656c 0.048 -0.136 0.088 -0.216 0.184 -0.216c 0.088 0 0.144 0.088 0.184 0.208l 1.608 4.312c 0.104 0.28 0.248 0.464 0.688 0.488c 0.048 0.048 0.048 0.216 0 0.264c -0.232 -0.008 -0.488 -0.016 -0.696 -0.016c -0.208 0 -0.56 0.008 -0.88 0.016c -0.048 -0.048 -0.048 -0.216 0 -0.264c 0.328 -0.024 0.648 -0.048 0.528 -0.392Z "/></symbol><symbol id="g13CDF673763F5DB9C25A9A976EDAD0A7" overflow="visible"><path d="M 0 0m 2.672 0.4c 0.04 0.032 0.112 0.048 0.12 -0.008c 0.024 -0.192 0.088 -0.472 0.088 -0.472c 0.064 -0.024 0.104 -0.016 0.152 0c 0.176 0.144 0.456 0.264 0.944 0.32c 0.048 0.048 0.048 0.168 0 0.216c -0.512 0.04 -0.584 0.192 -0.584 0.584v 3.624c 0 0.52 0.032 0.84 0.032 0.84c 0 0.056 -0.032 0.08 -0.104 0.08c -0.2 -0.08 -0.8 -0.192 -1.12 -0.216c -0.016 -0.064 0 -0.192 0.048 -0.24c 0.024 0 0.048 0 0.072 0c 0.352 -0.024 0.44 -0.024 0.44 -0.656v -1.024c 0 -0.056 -0.016 -0.072 -0.072 -0.072c -0.032 0 -0.36 0.136 -0.624 0.136c -0.528 0 -0.88 -0.176 -1.2 -0.48c -0.344 -0.344 -0.552 -0.816 -0.552 -1.408c 0 -0.984 0.496 -1.704 1.36 -1.704c 0.312 0 0.608 0.16 1 0.48Z m 0.088 0.592c 0 -0.152 -0.016 -0.216 -0.128 -0.312c -0.296 -0.256 -0.552 -0.384 -0.752 -0.384c -0.432 0 -0.88 0.472 -0.88 1.472c 0 0.576 0.112 0.896 0.232 1.064c 0.248 0.376 0.584 0.4 0.744 0.4c 0.288 0 0.488 -0.104 0.648 -0.288c 0.112 -0.128 0.136 -0.184 0.136 -0.432Z "/></symbol></defs></svg>