<svg viewBox="0 0 284.154852413 146.894852846" width="284.154852413pt" height="146.894852846pt" xmlns="http://www.w3.org/2000/svg" xmlns:xlink="http://www.w3.org/1999/xlink" xmlns:h5="http://www.w3.org/1999/xhtml"><path fill="#ffffff" fill-rule="nonzero" d="M 0 0v 146.894852846h 284.154852413v -146.894852846Z "/><g transform="matrix(1.25 0 0 1.25 11 11)"><g><path fill="none" stroke="#000000" stroke-width="0.384" stroke-linecap="round" stroke-linejoin="miter" stroke-miterlimit="4" transform="translate(7.561940981 15.123882093)" d="M 0 0m 0 0l 0 13.140118154"/><path fill="none" transform="translate(7.561940981 21.69394117)" d="M 0 0Z "/><g transform="translate(7.561940981 21.69394117)"><g/></g><path fill="none" stroke="#000000" stroke-width="0.384" stroke-linecap="round" stroke-linejoin="miter" stroke-miterlimit="4" transform="translate(38.671467056 14.34847231)" d="M 0 0m 7.280947845 0l -7.280947845 14.690937731"/><path fill="none" transform="translate(42.311940978 21.693941175)" d="M 0 0Z "/><g transform="translate(42.311940978 21.693941175)"><g/></g><path fill="none" stroke="#000000" stroke-width="0.384" stroke-linecap="round" stroke-linejoin="miter" stroke-miterlimit="4" transform="translate(52.57146705 14.348472288)" d="M 0 0l 7.280947845 14.690937731"/><path fill="none" transform="translate(56.211940973 21.693941153)" d="M 0 0Z "/><g transform="translate(56.211940973 21.693941153)"><g/></g><path fill="none" stroke="#000000" stroke-width="0.384" stroke-linecap="round" stroke-linejoin="miter" stroke-miterlimit="4" transform="translate(96.786112968 12.349917177)" d="M 0 0m 23.101655914 0l -23.101655914 18.688048077"/><path fill="none" transform="translate(108.336940925 21.693941215)" d="M 0 0Z "/><g transform="translate(108.336940925 21.693941215)"><g/></g><path fill="none" stroke="#000000" stroke-width="0.384" stroke-linecap="round" stroke-linejoin="miter" stroke-miterlimit="4" transform="translate(120.5489255 14.886387698)" d="M 0 0m 3.376030964 0l -3.376030964 13.615106936"/><path fill="none" transform="translate(122.236940982 21.693941166)" d="M 0 0Z "/><g transform="translate(122.236940982 21.693941166)"><g/></g><path fill="none" stroke="#000000" stroke-width="0.384" stroke-linecap="round" stroke-linejoin="miter" stroke-miterlimit="4" transform="translate(131.536113005 12.349917116)" d="M 0 0l 23.101655914 18.688048077"/><path fill="none" transform="translate(143.086940962 21.693941155)" d="M 0 0Z "/><g transform="translate(143.086940962 21.693941155)"><g/></g><path fill="none" stroke="#000000" stroke-width="0.384" stroke-linecap="round" stroke-linejoin="miter" stroke-miterlimit="4" transform="translate(35.361940981 43.38788234)" d="M 0 0v 13.140117881"/><path fill="none" transform="translate(35.361940981 49.95794128)" d="M 0 0Z "/><g transform="translate(35.361940981 49.95794128)"><g/></g><path fill="none" stroke="#000000" stroke-width="0.384" stroke-linecap="round" stroke-linejoin="miter" stroke-miterlimit="4" transform="translate(118.761940981 43.387882347)" d="M 0 0l 0 13.140117865"/><path fill="none" transform="translate(118.761940981 49.95794128)" d="M 0 0Z "/><g transform="translate(118.761940981 49.95794128)"><g/></g><path fill="none" stroke="#000000" stroke-width="0.384" stroke-linecap="round" stroke-linejoin="miter" stroke-miterlimit="4" transform="translate(149.871467074 42.612472507)" d="M 0 0m 7.280947729 0l -7.280947729 14.690937497"/><path fill="none" transform="translate(153.511940938 49.957941255)" d="M 0 0Z "/><g transform="translate(153.511940938 49.957941255)"><g/></g><path fill="none" stroke="#000000" stroke-width="0.384" stroke-linecap="round" stroke-linejoin="miter" stroke-miterlimit="4" transform="translate(163.771467159 42.612472507)" d="M 0 0l 7.280947729 14.690937497"/><path fill="none" transform="translate(167.411941023 49.957941255)" d="M 0 0Z "/><g transform="translate(167.411941023 49.957941255)"><g/></g><path fill="none" stroke="#000000" stroke-width="0.384" stroke-linecap="round" stroke-linejoin="miter" stroke-miterlimit="4" transform="translate(174.361940981 71.651882311)" d="M 0 0v 13.140117876"/><path fill="none" transform="translate(174.361940981 78.221941249)" d="M 0 0Z "/><g transform="translate(174.361940981 78.221941249)"><g/></g><path fill="none" stroke="#000000" stroke-width="0.384" stroke-linecap="round" stroke-linejoin="miter" stroke-miterlimit="4" stroke-dashoffset="0" stroke-dasharray="3 3" transform="translate(15.123882098 7.56194117)" d="M 0 0h 26.576117797"/><path fill="none" stroke="#000000" stroke-width="0.384" stroke-linecap="round" stroke-linejoin="miter" stroke-miterlimit="4" stroke-dashoffset="0" stroke-dasharray="3 3" transform="translate(56.823882003 7.56194117)" d="M 0 0h 61.32611786"/><path fill="none" stroke="#000000" stroke-width="0.384" stroke-linecap="round" stroke-linejoin="miter" stroke-miterlimit="4" stroke-dashoffset="0" stroke-dasharray="3 3" transform="translate(133.273881972 7.56194117)" d="M 0 0h 61.32611786"/><path fill="none" stroke="#000000" stroke-width="0.25" stroke-linecap="butt" stroke-linejoin="miter" stroke-miterlimit="4" d="M 0 0m 7.561941044 0c -4.172558077 0 -7.561941044 3.389382967 -7.561941044 7.561941044c 0 4.172558077 3.389382967 7.561941044 7.561941044 7.561941044c 4.172558077 0 7.561941044 -3.389382967 7.561941044 -7.561941044c 0 -4.172558077 -3.389382967 -7.561941044 -7.561941044 -7.561941044Z "/><path fill="none" transform="translate(5.161940981 4.92994117)" d="M 0 0h 4.8v 5.264h -4.8v -5.264Z "/><g transform="translate(5.161940886 4.92994106)"><g><g transform="matrix(1 0 0 -1 -1.32 5.264)"><use xlink:href="#g8C50DFC0B8272CD73341C65811BD0E92" x="0" y="0" fill="#000000" fill-rule="nonzero"/><use xlink:href="#g97663EC9AEA74EADA07472643E1BE1B4" x="3.72" y="0" fill="#000000" fill-rule="nonzero"/></g></g></g><path fill="none" stroke="#000000" stroke-width="0.25" stroke-linecap="butt" stroke-linejoin="miter" stroke-miterlimit="4" transform="translate(41.699999906)" d="M 0 0m 7.561941044 0c -4.172558077 0 -7.561941044 3.389382967 -7.561941044 7.561941044c 0 4.172558077 3.389382967 7.561941044 7.561941044 7.561941044c 4.172558077 0 7.561941044 -3.389382967 7.561941044 -7.561941044c 0 -4.172558077 -3.389382967 -7.561941044 -7.561941044 -7.561941044Z "/><path fill="none" transform="translate(46.861940981 4.92994117)" d="M 0 0h 4.8v 5.264h -4.8v -5.264Z "/><g transform="translate(46.861940886 4.92994106)"><g><g transform="matrix(1 0 0 -1 -1.32 5.264)"><use xlink:href="#gAD9C87F854BDA42EDABFFB35EC1FA84E" x="0" y="0" fill="#000000" fill-rule="nonzero"/><use xlink:href="#g97663EC9AEA74EADA07472643E1BE1B4" x="3.72" y="0" fill="#000000" fill-rule="nonzero"/></g></g></g><path fill="none" stroke="#000000" stroke-width="0.25" stroke-linecap="butt" stroke-linejoin="miter" stroke-miterlimit="4" transform="translate(118.149999874)" d="M 0 0m 7.561941044 0c -4.172558077 0 -7.561941044 3.389382967 -7.561941044 7.561941044c 0 4.172558077 3.389382967 7.561941044 7.561941044 7.561941044c 4.172558077 0 7.561941044 -3.389382967 7.561941044 -7.561941044c 0 -4.172558077 -3.389382967 -7.561941044 -7.561941044 -7.561941044Z "/><path fill="none" transform="translate(123.311940981 4.92994117)" d="M 0 0h 4.8v 5.264h -4.8v -5.264Z "/><g transform="translate(123.311940886 4.92994106)"><g><g transform="matrix(1 0 0 -1 0.54 5.264)"><use xlink:href="#g4DADFF8D06AE4DC17FB93571E5AFF437" x="0" y="0" fill="#000000" fill-rule="nonzero"/></g></g></g><path fill="none" stroke="#000000" stroke-width="0.25" stroke-linecap="butt" stroke-linejoin="miter" stroke-miterlimit="4" transform="translate(194.599999843)" d="M 0 0m 7.561941044 0c -4.172558077 0 -7.561941044 3.389382967 -7.561941044 7.561941044c 0 4.172558077 3.389382967 7.561941044 7.561941044 7.561941044c 4.172558077 0 7.561941044 -3.389382967 7.561941044 -7.561941044c 0 -4.172558077 -3.389382967 -7.561941044 -7.561941044 -7.561941044Z "/><path fill="none" transform="translate(199.761940981 4.92994117)" d="M 0 0h 4.8v 5.264h -4.8v -5.264Z "/><g transform="translate(199.761940886 4.92994106)"><g><g transform="matrix(1 0 0 -1 0.54 5.264)"><use xlink:href="#gF202C94D14936097C4B17EAD9BB679E3" x="0" y="0" fill="#000000" fill-rule="nonzero"/></g></g></g><path fill="none" stroke="#000000" stroke-width="0.25" stroke-linecap="butt" stroke-linejoin="miter" stroke-miterlimit="4" transform="translate(0 28.264000252)" d="M 0 0m 7.561941044 0c -4.172558077 0 -7.561941044 3.389382967 -7.561941044 7.561941044c 0 4.172558077 3.389382967 7.561941044 7.561941044 7.561941044c 4.172558077 0 7.561941044 -3.389382967 7.561941044 -7.561941044c 0 -4.172558077 -3.389382967 -7.561941044 -7.561941044 -7.561941044Z "/><path fill="none" transform="translate(5.161940981 33.19394117)" d="M 0 0h 4.8v 5.264h -4.8v -5.264Z "/><g transform="translate(5.161940886 33.19394106)"><g><g transform="matrix(1 0 0 -1 -1.32 5.264)"><use xlink:href="#g8C50DFC0B8272CD73341C65811BD0E92" x="0" y="0" fill="#000000" fill-rule="nonzero"/><use xlink:href="#g8C50DFC0B8272CD73341C65811BD0E92" x="3.72" y="0" fill="#000000" fill-rule="nonzero"/></g></g></g><path fill="none" stroke="#000000" stroke-width="0.25" stroke-linecap="butt" stroke-linejoin="miter" stroke-miterlimit="4" transform="translate(27.799999937 28.264000252)" d="M 0 0m 7.561941044 0c -4.172558077 0 -7.561941044 3.389382967 -7.561941044 7.561941044c 0 4.172558077 3.389382967 7.561941044 7.561941044 7.561941044c 4.172558077 0 7.561941044 -3.389382967 7.561941044 -7.561941044c 0 -4.172558077 -3.389382967 -7.561941044 -7.561941044 -7.561941044Z "/><path fill="none" transform="translate(32.961940981 33.19394117)" d="M 0 0h 4.8v 5.264h -4.8v -5.264Z "/><g transform="translate(32.961940886 33.19394106)"><g><g transform="matrix(1 0 0 -1 -1.32 5.264)"><use xlink:href="#g4DADFF8D06AE4DC17FB93571E5AFF437" x="0" y="0" fill="#000000" fill-rule="nonzero"/><use xlink:href="#gF821431C61A4D7F3ECEFEC074E9C0EFC" x="3.72" y="0" fill="#000000" fill-rule="nonzero"/></g></g></g><path fill="none" stroke="#000000" stroke-width="0.25" stroke-linecap="butt" stroke-linejoin="miter" stroke-miterlimit="4" transform="translate(55.599999874 28.264000252)" d="M 0 0m 7.561941044 0c -4.172558077 0 -7.561941044 3.389382967 -7.561941044 7.561941044c 0 4.172558077 3.389382967 7.561941044 7.561941044 7.561941044c 4.172558077 0 7.561941044 -3.389382967 7.561941044 -7.561941044c 0 -4.172558077 -3.389382967 -7.561941044 -7.561941044 -7.561941044Z "/><path fill="none" transform="translate(60.761940981 33.19394117)" d="M 0 0h 4.8v 5.264h -4.8v -5.264Z "/><g transform="translate(60.761940886 33.19394106)"><g><g transform="matrix(1 0 0 -1 -1.32 5.264)"><use xlink:href="#gAD9C87F854BDA42EDABFFB35EC1FA84E" x="0" y="0" fill="#000000" fill-rule="nonzero"/><use xlink:href="#g4DADFF8D06AE4DC17FB93571E5AFF437" x="3.72" y="0" fill="#000000" fill-rule="nonzero"/></g></g></g><path fill="none" stroke="#000000" stroke-width="0.25" stroke-linecap="butt" stroke-linejoin="miter" stroke-miterlimit="4" transform="translate(83.399999811 28.264000252)" d="M 0 0m 7.561941044 0c -4.172558077 0 -7.561941044 3.389382967 -7.561941044 7.561941044c 0 4.172558077 3.389382967 7.561941044 7.561941044 7.561941044c 4.172558077 0 7.561941044 -3.389382967 7.561941044 -7.561941044c 0 -4.172558077 -3.389382967 -7.561941044 -7.561941044 -7.561941044Z "/><path fill="none" transform="translate(88.561940981 33.19394117)" d="M 0 0h 4.8v 5.264h -4.8v -5.264Z "/><g transform="translate(88.561940886 33.19394106)"><g><g transform="matrix(1 0 0 -1 -1.32 5.264)"><use xlink:href="#g8C50DFC0B8272CD73341C65811BD0E92" x="0" y="0" fill="#000000" fill-rule="nonzero"/><use xlink:href="#gF821431C61A4D7F3ECEFEC074E9C0EFC" x="3.72" y="0" fill="#000000" fill-rule="nonzero"/></g></g></g><path fill="none" stroke="#000000" stroke-width="0.25" stroke-linecap="butt" stroke-linejoin="miter" stroke-miterlimit="4" transform="translate(111.200000031 28.264000252)" d="M 0 0m 7.561941044 0c -4.172558077 0 -7.561941044 3.389382967 -7.561941044 7.561941044c 0 4.172558077 3.389382967 7.561941044 7.561941044 7.561941044c 4.172558077 0 7.561941044 -3.389382967 7.561941044 -7.561941044c 0 -4.172558077 -3.389382967 -7.561941044 -7.561941044 -7.561941044Z "/><path fill="none" transform="translate(116.361940981 33.19394117)" d="M 0 0h 4.8v 5.264h -4.8v -5.264Z "/><g transform="translate(116.361940886 33.19394106)"><g><g transform="matrix(1 0 0 -1 -1.32 5.264)"><use xlink:href="#gAD9C87F854BDA42EDABFFB35EC1FA84E" x="0" y="0" fill="#000000" fill-rule="nonzero"/><use xlink:href="#g8C50DFC0B8272CD73341C65811BD0E92" x="3.72" y="0" fill="#000000" fill-rule="nonzero"/></g></g></g><path fill="#001219" fill-rule="nonzero" stroke="#001219" stroke-width="0.25" stroke-linecap="butt" stroke-linejoin="miter" stroke-miterlimit="4" transform="translate(152.899999937 28.264000252)" d="M 0 0m 7.561941044 0c -4.172558077 0 -7.561941044 3.389382967 -7.561941044 7.561941044c 0 4.172558077 3.389382967 7.561941044 7.561941044 7.561941044c 4.172558077 0 7.561941044 -3.389382967 7.561941044 -7.561941044c 0 -4.172558077 -3.389382967 -7.561941044 -7.561941044 -7.561941044Z "/><path fill="none" transform="translate(158.061940981 33.19394117)" d="M 0 0h 4.8v 5.264h -4.8v -5.264Z "/><g transform="translate(158.061940886 33.19394106)"><g><g transform="matrix(1 0 0 -1 0.54 5.264)"><use xlink:href="#gD00C9D162D1CBC09F2F7551D594DBB72" x="0" y="0" fill="#ffffff" fill-rule="nonzero"/></g></g></g><path fill="none" stroke="#000000" stroke-width="0.25" stroke-linecap="butt" stroke-linejoin="miter" stroke-miterlimit="4" transform="translate(27.799999937 56.52800022)" d="M 0 0m 7.561941044 0c -4.172558077 0 -7.561941044 3.389382967 -7.561941044 7.561941044c 0 4.172558077 3.389382967 7.561941044 7.561941044 7.561941044c 4.172558077 0 7.561941044 -3.389382967 7.561941044 -7.561941044c 0 -4.172558077 -3.389382967 -7.561941044 -7.561941044 -7.561941044Z "/><path fill="none" transform="translate(32.961940981 61.45794117)" d="M 0 0h 4.8v 5.264h -4.8v -5.264Z "/><g transform="translate(32.961940886 61.45794106)"><g><g transform="matrix(1 0 0 -1 -1.32 5.264)"><use xlink:href="#g4DADFF8D06AE4DC17FB93571E5AFF437" x="0" y="0" fill="#000000" fill-rule="nonzero"/><use xlink:href="#gD00C9D162D1CBC09F2F7551D594DBB72" x="3.72" y="0" fill="#000000" fill-rule="nonzero"/></g></g></g><path fill="none" stroke="#000000" stroke-width="0.25" stroke-linecap="butt" stroke-linejoin="miter" stroke-miterlimit="4" transform="translate(111.200000031 56.52800022)" d="M 0 0m 7.561941044 0c -4.172558077 0 -7.561941044 3.389382967 -7.561941044 7.561941044c 0 4.172558077 3.389382967 7.561941044 7.561941044 7.561941044c 4.172558077 0 7.561941044 -3.389382967 7.561941044 -7.561941044c 0 -4.172558077 -3.389382967 -7.561941044 -7.561941044 -7.561941044Z "/><path fill="none" transform="translate(116.361940981 61.45794117)" d="M 0 0h 4.8v 5.264h -4.8v -5.264Z "/><g transform="translate(116.361940886 61.45794106)"><g><g transform="matrix(1 0 0 -1 -1.32 5.264)"><use xlink:href="#gAD9C87F854BDA42EDABFFB35EC1FA84E" x="0" y="0" fill="#000000" fill-rule="nonzero"/><use xlink:href="#gD00C9D162D1CBC09F2F7551D594DBB72" x="3.72" y="0" fill="#000000" fill-rule="nonzero"/></g></g></g><path fill="none" stroke="#000000" stroke-width="0.25" stroke-linecap="butt" stroke-linejoin="miter" stroke-miterlimit="4" transform="translate(138.999999969 56.52800022)" d="M 0 0m 7.561941044 0c -4.172558077 0 -7.561941044 3.389382967 -7.561941044 7.561941044c 0 4.172558077 3.389382967 7.561941044 7.561941044 7.561941044c 4.172558077 0 7.561941044 -3.389382967 7.561941044 -7.561941044c 0 -4.172558077 -3.389382967 -7.561941044 -7.561941044 -7.561941044Z "/><path fill="none" transform="translate(144.161940981 61.45794117)" d="M 0 0h 4.8v 5.264h -4.8v -5.264Z "/><g transform="translate(144.161940886 61.45794106)"><g><g transform="matrix(1 0 0 -1 -1.32 5.264)"><use xlink:href="#g4DADFF8D06AE4DC17FB93571E5AFF437" x="0" y="0" fill="#000000" fill-rule="nonzero"/><use xlink:href="#gAD9C87F854BDA42EDABFFB35EC1FA84E" x="3.72" y="0" fill="#000000" fill-rule="nonzero"/></g></g></g><path fill="#001219" fill-rule="nonzero" stroke="#001219" stroke-width="0.25" stroke-linecap="butt" stroke-linejoin="miter" stroke-miterlimit="4" transform="translate(166.799999906 56.52800022)" d="M 0 0m 7.561941044 0c -4.172558077 0 -7.561941044 3.389382967 -7.561941044 7.561941044c 0 4.172558077 3.389382967 7.561941044 7.561941044 7.561941044c 4.172558077 0 7.561941044 -3.389382967 7.561941044 -7.561941044c 0 -4.172558077 -3.389382967 -7.561941044 -7.561941044 -7.561941044Z "/><path fill="none" transform="translate(171.961940981 61.45794117)" d="M 0 0h 4.8v 5.264h -4.8v -5.264Z "/><g transform="translate(171.961940886 61.45794106)"><g><g transform="matrix(1 0 0 -1 0.54 5.264)"><use xlink:href="#g38EF10439C70019A2C0B1A54E582194C" x="0" y="0" fill="#ffffff" fill-rule="nonzero"/></g></g></g><path fill="none" stroke="#000000" stroke-width="0.25" stroke-linecap="butt" stroke-linejoin="miter" stroke-miterlimit="4" transform="translate(166.799999906 84.792000189)" d="M 0 0m 7.561941044 0c -4.172558077 0 -7.561941044 3.389382967 -7.561941044 7.561941044c 0 4.172558077 3.389382967 7.561941044 7.561941044 7.561941044c 4.172558077 0 7.561941044 -3.389382967 7.561941044 -7.561941044c 0 -4.172558077 -3.389382967 -7.561941044 -7.561941044 -7.561941044Z "/><path fill="none" transform="translate(171.961940981 89.72194117)" d="M 0 0h 4.8v 5.264h -4.8v -5.264Z "/><g transform="translate(171.961940886 89.72194106)"><g><g transform="matrix(1 0 0 -1 -1.32 5.264)"><use xlink:href="#g8C50DFC0B8272CD73341C65811BD0E92" x="0" y="0" fill="#000000" fill-rule="nonzero"/><use xlink:href="#g4DADFF8D06AE4DC17FB93571E5AFF437" x="3.72" y="0" fill="#000000" fill-rule="nonzero"/></g></g></g></g></g><defs><symbol id="g8C50DFC0B8272CD73341C65811BD0E92" overflow="visible"><path d="M 0 0m 2.304 0.976v 2.776c 0 0.48 0.008 0.968 0.024 1.072c 0 0.04 -0.016 0.04 -0.048 0.04c -0.44 -0.272 -0.864 -0.472 -1.568 -0.8c 0.016 -0.088 0.048 -0.168 0.12 -0.216c 0.368 0.152 0.544 0.2 0.696 0.2c 0.136 0 0.16 -0.192 0.16 -0.464v -2.608c 0 -0.664 -0.216 -0.704 -0.776 -0.728c -0.048 -0.048 -0.048 -0.216 0 -0.264c 0.392 0.008 0.68 0.016 1.112 0.016c 0.384 0 0.576 -0.008 0.976 -0.016c 0.048 0.048 0.048 0.216 0 0.264c -0.56 0.024 -0.696 0.064 -0.696 0.728Z "/></symbol><symbol id="g97663EC9AEA74EADA07472643E1BE1B4" overflow="visible"><path d="M 0 0m 1.824 -0.08c 0.616 0 1.552 0.624 1.552 2.504c 0 0.792 -0.192 1.472 -0.544 1.936c -0.208 0.28 -0.544 0.52 -0.976 0.52c -0.792 0 -1.544 -0.944 -1.544 -2.528c 0 -0.856 0.264 -1.656 0.704 -2.096c 0.224 -0.224 0.496 -0.336 0.808 -0.336Z m 0.032 4.68c 0.136 0 0.264 -0.048 0.36 -0.136c 0.248 -0.208 0.464 -0.816 0.464 -1.888c 0 -0.736 -0.024 -1.24 -0.136 -1.648c -0.176 -0.656 -0.568 -0.728 -0.712 -0.728c -0.744 0 -0.824 1.368 -0.824 2.064c 0 1.968 0.488 2.336 0.848 2.336Z "/></symbol><symbol id="gAD9C87F854BDA42EDABFFB35EC1FA84E" overflow="visible"><path d="M 0 0m 0.488 3.744c 0 -0.168 0.152 -0.312 0.32 -0.312c 0.136 0 0.376 0.144 0.376 0.32c 0 0.064 -0.016 0.112 -0.032 0.168c -0.016 0.056 -0.064 0.128 -0.064 0.192c 0 0.2 0.208 0.488 0.792 0.488c 0.288 0 0.696 -0.2 0.696 -0.968c 0 -0.512 -0.184 -0.928 -0.656 -1.408l -0.592 -0.584c -0.784 -0.8 -0.912 -1.184 -0.912 -1.656c 0 0 0.408 0.016 0.664 0.016h 1.4c 0.256 0 0.624 -0.016 0.624 -0.016c 0.104 0.424 0.184 1.024 0.192 1.264c -0.048 0.04 -0.152 0.056 -0.232 0.04c -0.136 -0.568 -0.272 -0.768 -0.56 -0.768h -1.424c 0 0.384 0.552 0.928 0.592 0.968l 0.808 0.776c 0.456 0.44 0.8 0.792 0.8 1.4c 0 0.864 -0.704 1.216 -1.352 1.216c -0.888 0 -1.44 -0.656 -1.44 -1.136Z "/></symbol><symbol id="g4DADFF8D06AE4DC17FB93571E5AFF437" overflow="visible"><path d="M 0 0m 1.72 4.6c 0.344 0 0.664 -0.208 0.664 -0.72c 0 -0.4 -0.464 -1.016 -1.256 -1.128l 0.04 -0.256c 0.136 0.016 0.28 0.016 0.384 0.016c 0.456 0 1.048 -0.128 1.048 -1.032c 0 -1.064 -0.712 -1.28 -0.992 -1.28c -0.408 0 -0.48 0.184 -0.576 0.328c -0.08 0.112 -0.184 0.208 -0.344 0.208c -0.168 0 -0.336 -0.152 -0.336 -0.28c 0 -0.32 0.672 -0.536 1.152 -0.536c 0.952 0 1.8 0.616 1.8 1.672c 0 0.872 -0.656 1.184 -1.128 1.264l -0.008 0.016c 0.656 0.312 0.84 0.64 0.84 1.064c 0 0.24 -0.056 0.432 -0.248 0.632c -0.176 0.176 -0.456 0.312 -0.872 0.312c -1.176 0 -1.512 -0.768 -1.512 -1.032c 0 -0.112 0.08 -0.272 0.272 -0.272c 0.28 0 0.312 0.264 0.312 0.416c 0 0.512 0.552 0.608 0.76 0.608Z "/></symbol><symbol id="gF202C94D14936097C4B17EAD9BB679E3" overflow="visible"><path d="M 0 0m 2.616 2.048c -0.216 -0.728 -0.728 -1.536 -1.792 -1.936c 0 -0.096 0.032 -0.168 0.096 -0.208c 0.808 0.24 1.304 0.576 1.752 1.096c 0.496 0.576 0.744 1.304 0.744 1.936c 0 1.624 -0.92 1.944 -1.536 1.944c -1.048 0 -1.48 -1.016 -1.48 -1.704c 0 -0.688 0.368 -1.304 1.456 -1.304c 0.208 0 0.52 0.064 0.76 0.176Z m 0.072 0.288c -0.264 -0.176 -0.528 -0.184 -0.664 -0.184c -0.784 0 -0.96 0.768 -0.96 1.168c 0 0.88 0.336 1.28 0.728 1.28c 0.504 0 0.96 -0.272 0.96 -1.64c 0 -0.176 -0.016 -0.392 -0.064 -0.624Z "/></symbol><symbol id="gF821431C61A4D7F3ECEFEC074E9C0EFC" overflow="visible"><path d="M 0 0m 3.44 1.752h -0.664v 2.336c 0 0.4 0 0.712 0.016 0.776l -0.016 0.016h -0.256c -0.056 0 -0.096 -0.048 -0.128 -0.088c -0.504 -0.616 -1.432 -1.936 -2.168 -3.08c 0.024 -0.12 0.072 -0.336 0.312 -0.336h 1.632v -0.736c 0 -0.368 -0.304 -0.368 -0.648 -0.392c -0.048 -0.048 -0.048 -0.216 0 -0.264c 0.256 0.008 0.576 0.016 0.944 0.016c 0.312 0 0.616 -0.008 0.872 -0.016c 0.048 0.048 0.048 0.216 0 0.264c -0.392 0.032 -0.56 0.016 -0.56 0.392v 0.736h 0.552c 0.112 0 0.232 0.152 0.232 0.248c 0 0.08 -0.032 0.128 -0.12 0.128Z m -1.272 2.304v -2.304h -1.528c 0.408 0.656 0.976 1.552 1.528 2.304Z "/></symbol><symbol id="gD00C9D162D1CBC09F2F7551D594DBB72" overflow="visible"><path d="M 0 0m 2.552 1.512c 0 -0.76 -0.4 -1.32 -0.88 -1.32c -0.304 0 -0.408 0.2 -0.528 0.36c -0.104 0.136 -0.24 0.256 -0.408 0.256c -0.152 0 -0.304 -0.136 -0.304 -0.296c 0 -0.328 0.68 -0.6 1.136 -0.6c 0.992 0 1.696 0.736 1.696 1.744c 0 0.776 -0.536 1.472 -1.432 1.472c -0.344 0 -0.64 -0.072 -0.784 -0.128l 0.16 1.336c 0.296 -0.032 0.552 -0.072 0.936 -0.072c 0.24 0 0.512 0.016 0.84 0.048l 0.128 0.544l -0.056 0.032c -0.456 -0.048 -0.888 -0.088 -1.312 -0.088c -0.296 0 -0.584 0.016 -0.864 0.04l -0.272 -2.304c 0.424 0.16 0.728 0.192 1.016 0.192c 0.52 0 0.928 -0.344 0.928 -1.216Z "/></symbol><symbol id="g38EF10439C70019A2C0B1A54E582194C" overflow="visible"><path d="M 0 0m 1.36 4.28h 1.432c -0.624 -1.552 -1.256 -3.112 -1.8 -4.328l 0.064 -0.056l 0.544 0.024c 0.456 1.36 0.896 2.688 1.792 4.872l -0.128 0.096c -0.136 -0.04 -0.312 -0.088 -0.616 -0.088h -1.648c -0.272 0 -0.256 0.08 -0.4 0.112c -0.024 0 -0.032 0 -0.032 -0.024c -0.008 -0.384 -0.096 -0.864 -0.16 -1.28c 0.088 -0.024 0.168 -0.032 0.256 -0.024c 0.176 0.64 0.44 0.696 0.696 0.696Z "/></symbol></defs></svg>