<?xml version="1.0" encoding="UTF-8"?>
<svg xmlns="http://www.w3.org/2000/svg" xmlns:xlink="http://www.w3.org/1999/xlink" width="336.067pt" height="220.566pt" viewBox="0 0 336.067 220.566" version="1.1">
<defs>
<clipPath id="clip1">
  <path d="M 0 0 L 336 0 L 336 220.566406 L 0 220.566406 Z M 0 0 "/>
</clipPath>
</defs>
<g id="surface1">
<path style="fill-rule:evenodd;fill:rgb(0%,0%,0%);fill-opacity:1;stroke-width:0.4;stroke-linecap:butt;stroke-linejoin:round;stroke:rgb(0%,0%,0%);stroke-opacity:1;stroke-miterlimit:10;" d="M 78.999219 483.00175 C 81.999219 474.00175 82.999219 474.50175 84.499219 477.083781 C 85.999219 479.665813 87.999219 484.333781 90.835156 488.165813 C 93.667187 492.00175 97.335156 495.00175 102.499219 497.165813 C 107.667187 499.333781 114.33125 500.665813 119.167187 501.165813 C 123.999219 501.665813 126.999219 501.333781 134.33125 499.833781 C 141.667188 498.333781 153.33125 495.665813 165.499219 490.665813 C 177.667188 485.665813 190.33125 478.333781 202.499219 469.00175 C 214.667188 459.665813 226.33125 448.333781 235.499219 439.00175 C 244.667188 429.665813 251.33125 422.333781 262.33125 414.833781 C 273.33125 407.333781 288.667188 399.665813 296.83125 398.833781 C 304.999219 398.00175 305.999219 404.00175 299.999219 420.00175 C 293.999219 436.00175 280.999219 462.00175 250.667188 482.833781 C 220.33125 503.665813 172.667188 519.333781 141.83125 526.333781 C 110.999219 533.333781 96.999219 531.665813 89.499219 522.833781 C 81.999219 514.00175 80.999219 498.00175 80.999219 498.00175 " transform="matrix(1,0,0,-1,-47.8,595.033)"/>
<path style=" stroke:none;fill-rule:evenodd;fill:rgb(100%,0%,0%);fill-opacity:1;" d="M 32.199219 115.03125 C 29.199219 106.03125 25.699219 101.53125 23.617188 97.78125 C 21.535156 94.03125 20.867188 91.03125 19.699219 88.03125 C 18.535156 85.03125 16.867188 82.03125 15.535156 79.867188 C 14.199219 77.699219 13.199219 76.367188 12.035156 74.199219 C 10.867188 72.03125 9.535156 69.03125 8.535156 66.199219 C 7.535156 63.367188 6.867188 60.699219 5.867188 58.03125 C 4.867188 55.367188 3.535156 52.699219 2.535156 49.699219 C 1.535156 46.699219 0.867188 43.367188 0.699219 40.699219 C 0.535156 38.03125 0.867188 36.03125 1.867188 33.53125 C 2.867188 31.03125 4.535156 28.03125 6.035156 26.03125 C 7.535156 24.03125 8.867188 23.03125 11.035156 22.199219 C 13.199219 21.367188 16.199219 20.699219 20.535156 19.867188 C 24.867188 19.03125 30.535156 18.03125 35.867188 16.699219 C 41.199219 15.367188 46.199219 13.699219 50.867188 12.03125 C 55.53125 10.367188 59.867188 8.699219 64.53125 7.53125 C 69.199219 6.367188 74.199219 5.699219 77.699219 5.03125 C 81.199219 4.367188 83.199219 3.699219 85.867188 2.867188 C 88.53125 2.03125 91.867188 1.03125 95.699219 0.699219 C 99.53125 0.367188 103.867188 0.699219 107.867188 0.867188 C 111.867188 1.03125 115.53125 1.03125 119.53125 1.199219 C 123.53125 1.367188 127.867188 1.699219 131.367188 2.03125 C 134.867188 2.367188 137.53125 2.699219 143.367188 3.867188 C 149.199219 5.03125 158.199219 7.03125 164.199219 8.199219 C 170.199219 9.367188 173.199219 9.699219 176.199219 10.367188 C 179.199219 11.03125 182.199219 12.03125 185.699219 13.53125 C 189.199219 15.03125 193.199219 17.03125 196.03125 18.53125 C 198.867188 20.03125 200.53125 21.03125 202.53125 22.367188 C 204.53125 23.699219 206.867188 25.367188 209.199219 27.03125 C 211.53125 28.699219 213.867188 30.367188 217.03125 32.367188 C 220.199219 34.367188 224.199219 36.699219 228.199219 38.867188 C 232.199219 41.03125 236.199219 43.03125 241.199219 45.867188 C 246.199219 48.699219 252.199219 52.367188 256.367188 55.199219 C 260.53125 58.03125 262.867188 60.03125 265.699219 62.367188 C 268.53125 64.699219 271.867188 67.367188 277.03125 71.699219 C 282.199219 76.03125 289.199219 82.03125 294.03125 86.03125 C 298.867188 90.03125 301.53125 92.03125 303.367188 93.699219 C 305.199219 95.367188 306.199219 96.699219 307.03125 98.199219 C 307.867188 99.699219 308.53125 101.367188 308.867188 102.699219 C 309.199219 104.03125 309.199219 105.03125 308.867188 106.53125 C 308.53125 108.03125 307.867188 110.03125 307.03125 111.699219 C 306.199219 113.367188 305.199219 114.699219 304.199219 116.367188 C 303.199219 118.03125 302.199219 120.03125 301.199219 121.53125 C 300.199219 123.03125 299.199219 124.03125 298.699219 124.867188 C 298.199219 125.699219 298.199219 126.367188 298.699219 127.199219 C 299.199219 128.03125 300.199219 129.03125 303.867188 133.03125 C 307.53125 137.03125 313.867188 144.03125 319.367188 150.03125 C 324.867188 156.03125 329.53125 161.03125 332.199219 164.53125 C 334.867188 168.03125 335.53125 170.03125 335.367188 172.53125 C 335.199219 175.03125 334.199219 178.03125 332.53125 182.03125 C 330.867188 186.03125 328.53125 191.03125 326.53125 194.367188 C 324.53125 197.699219 322.867188 199.367188 320.53125 201.367188 C 318.199219 203.367188 315.199219 205.699219 311.699219 207.867188 C 308.199219 210.03125 304.199219 212.03125 300.867188 213.699219 C 297.53125 215.367188 294.867188 216.699219 292.53125 217.53125 C 290.199219 218.367188 288.199219 218.699219 286.367188 219.03125 C 284.53125 219.367188 282.867188 219.699219 280.699219 219.867188 C 278.53125 220.03125 275.867188 220.03125 273.367188 219.699219 C 270.867188 219.367188 268.53125 218.699219 266.53125 217.53125 C 264.53125 216.367188 262.867188 214.699219 258.03125 210.53125 C 253.199219 206.367188 245.199219 199.699219 240.53125 195.699219 C 235.867188 191.699219 234.53125 190.367188 233.03125 189.199219 C 231.53125 188.03125 229.867188 187.03125 227.699219 184.867188 C 225.53125 182.699219 222.867188 179.367188 219.199219 175.53125 C 215.53125 171.699219 210.867188 167.367188 208.199219 163.867188 C 205.53125 160.367188 204.867188 157.699219 204.199219 155.199219 C 203.53125 152.699219 202.867188 150.367188 201.699219 148.367188 C 200.53125 146.367188 198.867188 144.699219 196.199219 142.867188 C 193.53125 141.03125 189.867188 139.03125 186.867188 136.199219 C 183.867188 133.367188 181.53125 129.699219 180.03125 127.03125 C 178.53125 124.367188 177.867188 122.699219 177.03125 120.699219 C 176.199219 118.699219 175.199219 116.367188 173.53125 114.03125 C 171.867188 111.699219 169.53125 109.367188 166.699219 107.699219 C 163.867188 106.03125 160.53125 105.03125 157.03125 103.367188 C 153.53125 101.699219 149.867188 99.367188 144.699219 97.03125 C 139.53125 94.699219 132.867188 92.367188 126.367188 90.03125 C 119.867188 87.699219 113.53125 85.367188 108.03125 83.867188 C 102.53125 82.367188 97.867188 81.699219 91.199219 81.199219 C 84.53125 80.699219 75.867188 80.367188 68.53125 81.199219 C 61.199219 82.03125 55.199219 84.03125 50.699219 87.367188 C 46.199219 90.699219 43.199219 95.367188 41.035156 98.699219 C 38.867188 102.03125 37.535156 104.03125 37.035156 105.53125 C 36.535156 107.03125 36.867188 108.03125 36.367188 109.367188 C 35.867188 110.699219 34.535156 112.367188 33.117188 112.949219 C 31.699219 113.53125 30.199219 113.03125 30.199219 112.03125 "/>
<g clip-path="url(#clip1)" clip-rule="nonzero">
<path style="fill:none;stroke-width:0.4;stroke-linecap:butt;stroke-linejoin:round;stroke:rgb(0%,0%,0%);stroke-opacity:1;stroke-miterlimit:10;" d="M 79.999219 480.00175 C 76.999219 489.00175 73.499219 493.50175 71.417187 497.25175 C 69.335156 501.00175 68.667187 504.00175 67.499219 507.00175 C 66.335156 510.00175 64.667187 513.00175 63.335156 515.165813 C 61.999219 517.333781 60.999219 518.665813 59.835156 520.833781 C 58.667187 523.00175 57.335156 526.00175 56.335156 528.833781 C 55.335156 531.665813 54.667187 534.333781 53.667187 537.00175 C 52.667187 539.665813 51.335156 542.333781 50.335156 545.333781 C 49.335156 548.333781 48.667187 551.665813 48.499219 554.333781 C 48.335156 557.00175 48.667187 559.00175 49.667187 561.50175 C 50.667187 564.00175 52.335156 567.00175 53.835156 569.00175 C 55.335156 571.00175 56.667187 572.00175 58.835156 572.833781 C 60.999219 573.665813 63.999219 574.333781 68.335156 575.165813 C 72.667187 576.00175 78.335156 577.00175 83.667187 578.333781 C 88.999219 579.665813 93.999219 581.333781 98.667187 583.00175 C 103.33125 584.665813 107.667187 586.333781 112.33125 587.50175 C 116.999219 588.665813 121.999219 589.333781 125.499219 590.00175 C 128.999219 590.665813 130.999219 591.333781 133.667188 592.165813 C 136.33125 593.00175 139.667188 594.00175 143.499219 594.333781 C 147.33125 594.665813 151.667188 594.333781 155.667188 594.165813 C 159.667188 594.00175 163.33125 594.00175 167.33125 593.833781 C 171.33125 593.665813 175.667188 593.333781 179.167188 593.00175 C 182.667188 592.665813 185.33125 592.333781 191.167188 591.165813 C 196.999219 590.00175 205.999219 588.00175 211.999219 586.833781 C 217.999219 585.665813 220.999219 585.333781 223.999219 584.665813 C 226.999219 584.00175 229.999219 583.00175 233.499219 581.50175 C 236.999219 580.00175 240.999219 578.00175 243.83125 576.50175 C 246.667188 575.00175 248.33125 574.00175 250.33125 572.665813 C 252.33125 571.333781 254.667188 569.665813 256.999219 568.00175 C 259.33125 566.333781 261.667188 564.665813 264.83125 562.665813 C 267.999219 560.665813 271.999219 558.333781 275.999219 556.165813 C 279.999219 554.00175 283.999219 552.00175 288.999219 549.165813 C 293.999219 546.333781 299.999219 542.665813 304.167188 539.833781 C 308.33125 537.00175 310.667188 535.00175 313.499219 532.665813 C 316.33125 530.333781 319.667188 527.665813 324.83125 523.333781 C 329.999219 519.00175 336.999219 513.00175 341.83125 509.00175 C 346.667188 505.00175 349.33125 503.00175 351.167188 501.333781 C 352.999219 499.665813 353.999219 498.333781 354.83125 496.833781 C 355.667188 495.333781 356.33125 493.665813 356.667188 492.333781 C 356.999219 491.00175 356.999219 490.00175 356.667188 488.50175 C 356.33125 487.00175 355.667188 485.00175 354.83125 483.333781 C 353.999219 481.665813 352.999219 480.333781 351.999219 478.665813 C 350.999219 477.00175 349.999219 475.00175 348.999219 473.50175 C 347.999219 472.00175 346.999219 471.00175 346.499219 470.165813 C 345.999219 469.333781 345.999219 468.665813 346.499219 467.833781 C 346.999219 467.00175 347.999219 466.00175 351.667188 462.00175 C 355.33125 458.00175 361.667188 451.00175 367.167188 445.00175 C 372.667188 439.00175 377.33125 434.00175 379.999219 430.50175 C 382.667188 427.00175 383.33125 425.00175 383.167188 422.50175 C 382.999219 420.00175 381.999219 417.00175 380.33125 413.00175 C 378.667188 409.00175 376.33125 404.00175 374.33125 400.665813 C 372.33125 397.333781 370.667188 395.665813 368.33125 393.665813 C 365.999219 391.665813 362.999219 389.333781 359.499219 387.165813 C 355.999219 385.00175 351.999219 383.00175 348.667188 381.333781 C 345.33125 379.665813 342.667188 378.333781 340.33125 377.50175 C 337.999219 376.665813 335.999219 376.333781 334.167188 376.00175 C 332.33125 375.665813 330.667188 375.333781 328.499219 375.165813 C 326.33125 375.00175 323.667188 375.00175 321.167188 375.333781 C 318.667188 375.665813 316.33125 376.333781 314.33125 377.50175 C 312.33125 378.665813 310.667188 380.333781 305.83125 384.50175 C 300.999219 388.665813 292.999219 395.333781 288.33125 399.333781 C 283.667188 403.333781 282.33125 404.665813 280.83125 405.833781 C 279.33125 407.00175 277.667188 408.00175 275.499219 410.165813 C 273.33125 412.333781 270.667188 415.665813 266.999219 419.50175 C 263.33125 423.333781 258.667188 427.665813 255.999219 431.165813 C 253.33125 434.665813 252.667188 437.333781 251.999219 439.833781 C 251.33125 442.333781 250.667188 444.665813 249.499219 446.665813 C 248.33125 448.665813 246.667188 450.333781 243.999219 452.165813 C 241.33125 454.00175 237.667188 456.00175 234.667188 458.833781 C 231.667188 461.665813 229.33125 465.333781 227.83125 468.00175 C 226.33125 470.665813 225.667188 472.333781 224.83125 474.333781 C 223.999219 476.333781 222.999219 478.665813 221.33125 481.00175 C 219.667188 483.333781 217.33125 485.665813 214.499219 487.333781 C 211.667188 489.00175 208.33125 490.00175 204.83125 491.665813 C 201.33125 493.333781 197.667188 495.665813 192.499219 498.00175 C 187.33125 500.333781 180.667188 502.665813 174.167188 505.00175 C 167.667188 507.333781 161.33125 509.665813 155.83125 511.165813 C 150.33125 512.665813 145.667188 513.333781 138.999219 513.833781 C 132.33125 514.333781 123.667187 514.665813 116.33125 513.833781 C 108.999219 513.00175 102.999219 511.00175 98.499219 507.665813 C 93.999219 504.333781 90.999219 499.665813 88.835156 496.333781 C 86.667187 493.00175 85.335156 491.00175 84.835156 489.50175 C 84.335156 488.00175 84.667187 487.00175 84.167187 485.665813 C 83.667187 484.333781 82.335156 482.665813 80.917187 482.083781 C 79.499219 481.50175 77.999219 482.00175 77.999219 483.00175 " transform="matrix(1,0,0,-1,-47.8,595.033)"/>
</g>
<path style="fill:none;stroke-width:2;stroke-linecap:butt;stroke-linejoin:round;stroke:rgb(100%,100%,0%);stroke-opacity:1;stroke-miterlimit:10;" d="M 55.999219 567.00175 C 86.999219 576.00175 101.999219 577.50175 109.83125 577.75175 C 117.667187 578.00175 118.33125 577.00175 121.667187 576.50175 C 124.999219 576.00175 130.999219 576.00175 141.667188 572.333781 C 152.33125 568.665813 167.667188 561.333781 178.667188 556.833781 C 189.667188 552.333781 196.33125 550.665813 204.667188 550.50175 C 212.999219 550.333781 222.999219 551.665813 230.499219 553.00175 C 237.999219 554.333781 242.999219 555.665813 246.667188 555.833781 C 250.33125 556.00175 252.667188 555.00175 254.167188 552.50175 C 255.667188 550.00175 256.33125 546.00175 258.499219 537.833781 C 260.667188 529.665813 264.33125 517.333781 268.167188 509.833781 C 271.999219 502.333781 275.999219 499.665813 278.83125 497.00175 C 281.667188 494.333781 283.33125 491.665813 291.667188 493.583781 C 299.999219 495.50175 314.999219 502.00175 329.999219 517.00175 " transform="matrix(1,0,0,-1,-47.8,595.033)"/>
<path style="fill:none;stroke-width:2;stroke-linecap:butt;stroke-linejoin:round;stroke:rgb(100%,100%,0%);stroke-opacity:1;stroke-miterlimit:10;" d="M 200.999219 586.00175 C 200.33125 587.333781 193.33125 559.333781 179.999219 502.00175 " transform="matrix(1,0,0,-1,-47.8,595.033)"/>
<path style="fill:none;stroke-width:2;stroke-linecap:butt;stroke-linejoin:round;stroke:rgb(100%,100%,0%);stroke-opacity:1;stroke-miterlimit:10;" d="M 133.999219 590.00175 C 124.999219 584.00175 121.999219 581.50175 119.83125 577.083781 C 117.667187 572.665813 116.33125 566.333781 111.417187 556.415813 C 106.499219 546.50175 97.999219 533.00175 97.999219 533.00175 " transform="matrix(1,0,0,-1,-47.8,595.033)"/>
<path style="fill:none;stroke-width:2;stroke-linecap:butt;stroke-linejoin:round;stroke:rgb(100%,100%,0%);stroke-opacity:1;stroke-miterlimit:10;" d="M 76.999219 573.00175 C 73.999219 556.00175 73.999219 549.00175 75.835156 545.00175 C 77.667187 541.00175 81.335156 540.00175 84.167187 539.333781 C 86.999219 538.665813 88.999219 538.333781 90.999219 537.50175 C 92.999219 536.665813 94.999219 535.333781 96.835156 532.833781 C 98.667187 530.333781 100.33125 526.665813 104.917187 522.083781 C 109.499219 517.50175 116.999219 512.00175 126.999219 510.00175 " transform="matrix(1,0,0,-1,-47.8,595.033)"/>
<path style="fill:none;stroke-width:2;stroke-linecap:butt;stroke-linejoin:round;stroke:rgb(100%,100%,0%);stroke-opacity:1;stroke-miterlimit:10;" d="M 283.999219 493.00175 C 271.999219 465.00175 260.667188 446.665813 249.999219 438.00175 " transform="matrix(1,0,0,-1,-47.8,595.033)"/>
<path style="fill:none;stroke-width:2;stroke-linecap:butt;stroke-linejoin:round;stroke:rgb(100%,100%,0%);stroke-opacity:1;stroke-miterlimit:10;" d="M 287.999219 441.00175 C 297.999219 416.00175 302.999219 409.50175 307.167188 405.915813 C 311.33125 402.333781 314.667188 401.665813 319.667188 399.333781 C 324.667188 397.00175 331.33125 393.00175 338.499219 390.833781 C 345.667188 388.665813 353.33125 388.333781 358.499219 389.333781 C 363.667188 390.333781 366.33125 392.665813 367.667188 395.833781 C 368.999219 399.00175 368.999219 403.00175 360.749219 413.25175 C 352.499219 423.50175 335.999219 440.00175 335.999219 440.00175 " transform="matrix(1,0,0,-1,-47.8,595.033)"/>
<path style="fill:none;stroke-width:2;stroke-linecap:butt;stroke-linejoin:round;stroke:rgb(100%,100%,0%);stroke-opacity:1;stroke-miterlimit:10;" d="M 362.999219 450.00175 C 344.999219 444.00175 330.999219 437.665813 320.999219 431.00175 " transform="matrix(1,0,0,-1,-47.8,595.033)"/>
<path style="fill:none;stroke-width:2;stroke-linecap:butt;stroke-linejoin:round;stroke:rgb(100%,100%,100%);stroke-opacity:1;stroke-miterlimit:10;" d="M 208.999219 587.00175 C 199.667188 555.665813 192.999219 526.333781 188.999219 499.00175 " transform="matrix(1,0,0,-1,-47.8,595.033)"/>
<path style="fill:none;stroke-width:2;stroke-linecap:butt;stroke-linejoin:round;stroke:rgb(100%,100%,100%);stroke-opacity:1;stroke-miterlimit:10;" d="M 232.999219 581.00175 C 224.33125 560.333781 220.667188 542.00175 221.999219 526.00175 " transform="matrix(1,0,0,-1,-47.8,595.033)"/>
<path style="fill:none;stroke-width:2;stroke-linecap:butt;stroke-linejoin:round;stroke:rgb(100%,100%,100%);stroke-opacity:1;stroke-miterlimit:10;" d="M 373.999219 402.00175 C 371.33125 414.00175 358.999219 430.333781 336.999219 451.00175 " transform="matrix(1,0,0,-1,-47.8,595.033)"/>
<path style="fill:none;stroke-width:2;stroke-linecap:butt;stroke-linejoin:round;stroke:rgb(100%,100%,100%);stroke-opacity:1;stroke-miterlimit:10;" d="M 357.999219 456.00175 C 345.999219 452.665813 336.33125 448.00175 328.999219 442.00175 " transform="matrix(1,0,0,-1,-47.8,595.033)"/>
<path style="fill:none;stroke-width:2;stroke-linecap:butt;stroke-linejoin:round;stroke:rgb(100%,100%,100%);stroke-opacity:1;stroke-miterlimit:10;" d="M 336.999219 510.00175 C 306.999219 487.00175 303.999219 480.00175 280.999219 481.00175 " transform="matrix(1,0,0,-1,-47.8,595.033)"/>
<path style="fill:none;stroke-width:2;stroke-linecap:butt;stroke-linejoin:round;stroke:rgb(100%,100%,100%);stroke-opacity:1;stroke-miterlimit:10;" d="M 309.999219 384.00175 C 295.999219 401.333781 286.33125 419.00175 280.999219 437.00175 " transform="matrix(1,0,0,-1,-47.8,595.033)"/>
<path style="fill:none;stroke-width:2;stroke-linecap:butt;stroke-linejoin:round;stroke:rgb(100%,100%,100%);stroke-opacity:1;stroke-miterlimit:10;" d="M 280.999219 458.00175 C 265.667188 464.665813 251.33125 472.333781 237.999219 481.00175 " transform="matrix(1,0,0,-1,-47.8,595.033)"/>
<path style="fill:none;stroke-width:2;stroke-linecap:butt;stroke-linejoin:round;stroke:rgb(100%,100%,100%);stroke-opacity:1;stroke-miterlimit:10;" d="M 236.999219 542.00175 C 195.999219 540.00175 192.999219 538.00175 121.999219 570.00175 " transform="matrix(1,0,0,-1,-47.8,595.033)"/>
<path style="fill:none;stroke-width:2;stroke-linecap:butt;stroke-linejoin:round;stroke:rgb(17.999268%,54.499817%,34.098816%);stroke-opacity:1;stroke-miterlimit:10;" d="M 112.999219 540.00175 C 96.999219 558.00175 95.999219 573.00175 107.999219 585.00175 " transform="matrix(1,0,0,-1,-47.8,595.033)"/>
<path style="fill:none;stroke-width:2;stroke-linecap:butt;stroke-linejoin:round;stroke:rgb(17.999268%,54.499817%,34.098816%);stroke-opacity:1;stroke-miterlimit:10;" d="M 248.999219 569.00175 C 243.667188 561.00175 238.667188 548.333781 233.999219 531.00175 " transform="matrix(1,0,0,-1,-47.8,595.033)"/>
<path style="fill:none;stroke-width:2;stroke-linecap:butt;stroke-linejoin:round;stroke:rgb(17.999268%,54.499817%,34.098816%);stroke-opacity:1;stroke-miterlimit:10;" d="M 260.999219 429.00175 C 280.999219 435.665813 297.667188 447.333781 310.999219 464.00175 " transform="matrix(1,0,0,-1,-47.8,595.033)"/>
<path style="fill:none;stroke-width:2;stroke-linecap:butt;stroke-linejoin:round;stroke:rgb(17.999268%,54.499817%,34.098816%);stroke-opacity:1;stroke-miterlimit:10;" d="M 271.999219 415.00175 C 288.667188 420.333781 299.999219 426.00175 305.999219 432.00175 " transform="matrix(1,0,0,-1,-47.8,595.033)"/>
<path style="fill:none;stroke-width:2;stroke-linecap:butt;stroke-linejoin:round;stroke:rgb(17.999268%,54.499817%,34.098816%);stroke-opacity:1;stroke-miterlimit:10;" d="M 356.999219 386.00175 C 338.999219 383.00175 319.999219 385.00175 297.999219 409.00175 " transform="matrix(1,0,0,-1,-47.8,595.033)"/>
<path style="fill:none;stroke-width:2;stroke-linecap:butt;stroke-linejoin:round;stroke:rgb(17.999268%,54.499817%,34.098816%);stroke-opacity:1;stroke-miterlimit:10;" d="M 67.999219 513.00175 L 76.999219 527.00175 " transform="matrix(1,0,0,-1,-47.8,595.033)"/>
<path style="fill:none;stroke-width:2;stroke-linecap:butt;stroke-linejoin:round;stroke:rgb(17.999268%,54.499817%,34.098816%);stroke-opacity:1;stroke-miterlimit:10;" d="M 59.999219 521.00175 L 71.999219 532.00175 " transform="matrix(1,0,0,-1,-47.8,595.033)"/>
<path style="fill:none;stroke-width:2;stroke-linecap:butt;stroke-linejoin:round;stroke:rgb(0%,0%,100%);stroke-opacity:1;stroke-miterlimit:10;" d="M 77.999219 491.00175 L 84.999219 519.00175 " transform="matrix(1,0,0,-1,-47.8,595.033)"/>
<path style="fill:none;stroke-width:2;stroke-linecap:butt;stroke-linejoin:round;stroke:rgb(0%,0%,100%);stroke-opacity:1;stroke-miterlimit:10;" d="M 191.999219 587.00175 C 185.33125 559.665813 179.33125 531.665813 173.999219 503.00175 " transform="matrix(1,0,0,-1,-47.8,595.033)"/>
<path style="fill:none;stroke-width:2;stroke-linecap:butt;stroke-linejoin:round;stroke:rgb(0%,0%,100%);stroke-opacity:1;stroke-miterlimit:10;" d="M 70.999219 575.00175 C 65.999219 563.00175 67.999219 542.00175 76.999219 533.00175 " transform="matrix(1,0,0,-1,-47.8,595.033)"/>
<path style="fill:none;stroke-width:2;stroke-linecap:butt;stroke-linejoin:round;stroke:rgb(0%,0%,100%);stroke-opacity:1;stroke-miterlimit:10;" d="M 321.999219 522.00175 C 302.999219 506.00175 293.499219 502.50175 285.249219 499.50175 C 276.999219 496.50175 269.999219 494.00175 247.999219 450.00175 " transform="matrix(1,0,0,-1,-47.8,595.033)"/>
<path style="fill:none;stroke-width:2;stroke-linecap:butt;stroke-linejoin:round;stroke:rgb(0%,0%,100%);stroke-opacity:1;stroke-miterlimit:10;" d="M 353.999219 495.00175 C 336.667188 480.333781 312.999219 467.665813 282.999219 457.00175 " transform="matrix(1,0,0,-1,-47.8,595.033)"/>
<path style="fill:none;stroke-width:8;stroke-linecap:butt;stroke-linejoin:round;stroke:rgb(0%,0%,100%);stroke-opacity:1;stroke-miterlimit:10;" d="M 140.999219 542.00175 C 155.667188 534.00175 167.33125 530.00175 175.999219 530.00175 " transform="matrix(1,0,0,-1,-47.8,595.033)"/>
<path style="fill:none;stroke-width:8;stroke-linecap:butt;stroke-linejoin:round;stroke:rgb(0%,0%,100%);stroke-opacity:1;stroke-miterlimit:10;" d="M 131.999219 581.00175 C 155.999219 574.00175 186.999219 566.00175 186.999219 566.00175 " transform="matrix(1,0,0,-1,-47.8,595.033)"/>
<path style="fill:none;stroke-width:8;stroke-linecap:butt;stroke-linejoin:round;stroke:rgb(0%,0%,54.499817%);stroke-opacity:1;stroke-miterlimit:10;" d="M 269.999219 546.00175 C 278.667188 528.665813 283.999219 514.333781 285.999219 503.00175 " transform="matrix(1,0,0,-1,-47.8,595.033)"/>
<path style="fill:none;stroke-width:8;stroke-linecap:butt;stroke-linejoin:round;stroke:rgb(0%,0%,54.499817%);stroke-opacity:1;stroke-miterlimit:10;" d="M 243.999219 521.00175 C 255.33125 505.665813 261.667188 493.333781 262.999219 484.00175 " transform="matrix(1,0,0,-1,-47.8,595.033)"/>
<path style="fill:none;stroke-width:2;stroke-linecap:butt;stroke-linejoin:round;stroke:rgb(0%,0%,0%);stroke-opacity:1;stroke-miterlimit:10;" d="M 222.999219 583.00175 C 216.33125 563.665813 212.33125 540.665813 210.999219 514.00175 " transform="matrix(1,0,0,-1,-47.8,595.033)"/>
<path style="fill:none;stroke-width:2;stroke-linecap:butt;stroke-linejoin:round;stroke:rgb(0%,0%,0%);stroke-opacity:1;stroke-miterlimit:10;" d="M 214.999219 586.00175 C 208.999219 560.665813 204.667188 536.665813 201.999219 514.00175 " transform="matrix(1,0,0,-1,-47.8,595.033)"/>
<path style="fill:none;stroke-width:2;stroke-linecap:butt;stroke-linejoin:round;stroke:rgb(0%,0%,0%);stroke-opacity:1;stroke-miterlimit:10;" d="M 55.999219 568.00175 C 62.999219 545.00175 83.999219 517.00175 106.999219 513.00175 " transform="matrix(1,0,0,-1,-47.8,595.033)"/>
<path style="fill-rule:evenodd;fill:rgb(0%,0%,0%);fill-opacity:1;stroke-width:2;stroke-linecap:butt;stroke-linejoin:round;stroke:rgb(0%,0%,0%);stroke-opacity:1;stroke-miterlimit:10;" d="M 180.999219 499.00175 C 213.999219 523.00175 224.999219 530.50175 232.33125 536.083781 C 239.667188 541.665813 243.33125 545.333781 245.83125 547.165813 C 248.33125 549.00175 249.667188 549.00175 250.33125 546.333781 C 250.999219 543.665813 250.999219 538.333781 248.167188 532.165813 C 245.33125 526.00175 239.667188 519.00175 231.83125 513.165813 C 223.999219 507.333781 213.999219 502.665813 203.249219 499.583781 C 192.499219 496.50175 180.999219 495.00175 180.999219 499.00175 " transform="matrix(1,0,0,-1,-47.8,595.033)"/>
<path style="fill-rule:evenodd;fill:rgb(0%,0%,0%);fill-opacity:1;stroke-width:2;stroke-linecap:butt;stroke-linejoin:round;stroke:rgb(0%,0%,0%);stroke-opacity:1;stroke-miterlimit:10;" d="M 149.999219 505.00175 C 141.999219 534.00175 138.999219 546.00175 136.499219 555.00175 C 133.999219 564.00175 131.999219 570.00175 130.33125 572.50175 C 128.667188 575.00175 127.33125 574.00175 125.83125 573.165813 C 124.33125 572.333781 122.667187 571.665813 120.499219 565.833781 C 118.33125 560.00175 115.667187 549.00175 113.167187 542.00175 C 110.667187 535.00175 108.33125 532.00175 108.167187 529.665813 C 107.999219 527.333781 109.999219 525.665813 113.83125 523.00175 C 117.667187 520.333781 123.33125 516.665813 127.499219 513.50175 C 131.667188 510.333781 134.33125 507.665813 138.917188 506.333781 C 143.499219 505.00175 149.999219 505.00175 149.999219 505.00175 " transform="matrix(1,0,0,-1,-47.8,595.033)"/>
</g>
</svg>
