<?xml version="1.0" encoding="UTF-8"?>
<svg xmlns="http://www.w3.org/2000/svg" xmlns:xlink="http://www.w3.org/1999/xlink" width="217.619156pt" height="308.069366pt" viewBox="0 0 217.619156 308.069366" version="1.1">
<defs>
<clipPath id="clip1">
  <path d="M 32 22 L 198 22 L 198 308.070312 L 32 308.070312 Z M 32 22 "/>
</clipPath>
</defs>
<g id="surface1">
<g clip-path="url(#clip1)" clip-rule="nonzero">
<path style=" stroke:none;fill-rule:nonzero;fill:rgb(77.253723%,77.253723%,77.253723%);fill-opacity:1;" d="M 50.679688 22.964844 L 32.261719 295.679688 C 89.53125 314.339844 139.40625 310.058594 197.015625 295.167969 Z M 50.679688 22.964844 "/>
</g>
<path style=" stroke:none;fill-rule:nonzero;fill:rgb(100%,0%,0%);fill-opacity:1;" d="M 69.5625 304.890625 L 174.0625 252.613281 L 163.960938 233.742188 L 37.304688 297.246094 L 43.988281 299.273438 L 49.15625 300.628906 L 56.5 302.378906 L 61.394531 303.351562 Z M 69.5625 304.890625 "/>
<path style=" stroke:none;fill-rule:nonzero;fill:rgb(100%,79.998779%,0%);fill-opacity:1;" d="M 35.304688 250.449219 L 143.820312 196.160156 L 133.667969 177.339844 L 37.023438 225.644531 Z M 35.304688 250.449219 "/>
<path style=" stroke:none;fill-rule:nonzero;fill:rgb(100%,79.998779%,0%);fill-opacity:1;" d="M 108.488281 308 L 184.242188 271.378906 L 174.121094 252.535156 L 69.5625 304.890625 L 79.132812 306.246094 L 88.535156 307.257812 L 96.769531 307.96875 Z M 108.488281 308 "/>
<path style=" stroke:none;fill-rule:nonzero;fill:rgb(100%,0%,0%);fill-opacity:1;" d="M 37.023438 225.644531 L 133.667969 177.339844 L 123.546875 158.523438 L 38.675781 200.929688 Z M 37.023438 225.644531 "/>
<path style=" stroke:none;fill-rule:nonzero;fill:rgb(100%,79.998779%,0%);fill-opacity:1;" d="M 41.941406 151.574219 L 103.347656 120.910156 L 93.195312 102.066406 L 43.667969 126.804688 Z M 41.941406 151.574219 "/>
<path style=" stroke:none;fill-rule:nonzero;fill:rgb(100%,0%,0%);fill-opacity:1;" d="M 43.667969 126.804688 L 93.195312 102.066406 L 83.09375 83.28125 L 45.277344 102.257812 Z M 43.667969 126.804688 "/>
<path style=" stroke:none;fill-rule:nonzero;fill:rgb(100%,79.998779%,0%);fill-opacity:1;" d="M 48.636719 52.621094 L 62.828125 45.527344 L 56.742188 33.578125 L 49.917969 34.78125 Z M 48.636719 52.621094 "/>
<path style=" stroke:none;fill-rule:nonzero;fill:rgb(0%,48.234558%,100%);fill-opacity:1;" d="M 61.636719 20.144531 C 63.1875 27.304688 58.660156 34.371094 51.507812 35.953125 C 44.355469 37.535156 37.269531 33.039062 35.65625 25.894531 C 34.042969 18.75 38.511719 11.644531 45.648438 10 C 52.785156 8.355469 59.910156 12.792969 61.585938 19.921875 "/>
<path style="fill:none;stroke-width:0.506515;stroke-linecap:butt;stroke-linejoin:miter;stroke:rgb(0%,47.842407%,100%);stroke-opacity:1;stroke-miterlimit:4;" d="M 36.074219 36.453125 C 37.222656 34.519531 39.824219 34.046875 41.691406 35.199219 C 43.898438 36.554688 44.425781 39.558594 43.074219 41.703125 C 41.503906 44.183594 38.105469 44.769531 35.679688 43.210938 C 32.925781 41.433594 32.28125 37.632812 34.046875 34.933594 C 35.621094 32.527344 38.699219 31.496094 41.429688 32.332031 "/>
<path style="fill:none;stroke-width:0.506515;stroke-linecap:butt;stroke-linejoin:miter;stroke:rgb(0%,47.842407%,100%);stroke-opacity:1;stroke-miterlimit:4;" d="M 15.058594 -32.625 C 16.207031 -34.558594 18.808594 -35.027344 20.675781 -33.878906 C 22.882812 -32.519531 23.414062 -29.519531 22.058594 -27.375 C 20.492188 -24.894531 17.089844 -24.304688 14.667969 -25.867188 C 11.910156 -27.640625 11.265625 -31.445312 13.035156 -34.144531 C 14.609375 -36.550781 17.6875 -37.578125 20.417969 -36.746094 " transform="matrix(0,1,-1,0,0,0)"/>
<path style="fill:none;stroke-width:0.506515;stroke-linecap:butt;stroke-linejoin:miter;stroke:rgb(0%,47.842407%,100%);stroke-opacity:1;stroke-miterlimit:4;" d="M -57.734375 -7.875 C -56.585938 -9.808594 -53.984375 -10.277344 -52.117188 -9.128906 C -49.910156 -7.769531 -49.378906 -4.769531 -50.734375 -2.625 C -52.300781 -0.144531 -55.703125 0.445312 -58.125 -1.117188 C -60.882812 -2.890625 -61.527344 -6.695312 -59.761719 -9.394531 C -58.1875 -11.800781 -55.109375 -12.828125 -52.378906 -11.996094 " transform="matrix(-1,0,0,-1,0,0)"/>
<path style="fill:none;stroke-width:0.506515;stroke-linecap:butt;stroke-linejoin:miter;stroke:rgb(0%,47.842407%,100%);stroke-opacity:1;stroke-miterlimit:4;" d="M -25.347656 64.402344 C -24.199219 62.46875 -21.597656 61.996094 -19.730469 63.144531 C -17.523438 64.503906 -16.992188 67.503906 -18.347656 69.652344 C -19.914062 72.132812 -23.316406 72.71875 -25.738281 71.160156 C -28.496094 69.382812 -29.140625 65.582031 -27.371094 62.882812 C -25.796875 60.472656 -22.71875 59.445312 -19.988281 60.28125 " transform="matrix(0,-1,1,0,0,0)"/>
</g>
</svg>
