<svg xmlns="http://www.w3.org/2000/svg" viewBox="0 0 1200 160" width="1200" height="160" shape-rendering="crispEdges">
  <title>Base16 Palette Stripes</title>
  <rect x="0.0000" y="0" width="75.0000" height="160" fill="#fdf9f5">
  </rect>
  <rect x="75.0000" y="0" width="75.0000" height="160" fill="#f9f5f1">
  </rect>
  <rect x="150.0000" y="0" width="75.0000" height="160" fill="#ffeada">
  </rect>
  <rect x="225.0000" y="0" width="75.0000" height="160" fill="#5a5a5a">
  </rect>
  <rect x="300.0000" y="0" width="75.0000" height="160" fill="#404040">
  </rect>
  <rect x="375.0000" y="0" width="75.0000" height="160" fill="#292929">
  </rect>
  <rect x="450.0000" y="0" width="75.0000" height="160" fill="#181818">
  </rect>
  <rect x="525.0000" y="0" width="75.0000" height="160" fill="#000000">
  </rect>
  <rect x="600.0000" y="0" width="75.0000" height="160" fill="#ac1f35">
  </rect>
  <rect x="675.0000" y="0" width="75.0000" height="160" fill="#ad5601">
  </rect>
  <rect x="750.0000" y="0" width="75.0000" height="160" fill="#645a00">
  </rect>
  <rect x="825.0000" y="0" width="75.0000" height="160" fill="#0c680c">
  </rect>
  <rect x="900.0000" y="0" width="75.0000" height="160" fill="#01716f">
  </rect>
  <rect x="975.0000" y="0" width="75.0000" height="160" fill="#0158ad">
  </rect>
  <rect x="1050.0000" y="0" width="75.0000" height="160" fill="#6645c2">
  </rect>
  <rect x="1125.0000" y="0" width="75.0000" height="160" fill="#a81a66">
  </rect>
</svg>