<?xml version="1.0" encoding="UTF-8" standalone="no"?>
<!-- Created with Inkscape (http://www.inkscape.org/) -->

<svg
   width="42.627274mm"
   height="42.627274mm"
   viewBox="0 0 42.627274 42.627274"
   version="1.1"
   id="svg1"
   inkscape:version="1.3.2 (091e20e, 2023-11-25, custom)"
   sodipodi:docname="MT.svg"
   xmlns:inkscape="http://www.inkscape.org/namespaces/inkscape"
   xmlns:sodipodi="http://sodipodi.sourceforge.net/DTD/sodipodi-0.dtd"
   xmlns:xlink="http://www.w3.org/1999/xlink"
   xmlns="http://www.w3.org/2000/svg"
   xmlns:svg="http://www.w3.org/2000/svg">
  <sodipodi:namedview
     id="namedview1"
     pagecolor="#ffffff"
     bordercolor="#000000"
     borderopacity="0.25"
     inkscape:showpageshadow="2"
     inkscape:pageopacity="0.0"
     inkscape:pagecheckerboard="0"
     inkscape:deskcolor="#d1d1d1"
     inkscape:document-units="mm"
     inkscape:zoom="4.0970529"
     inkscape:cx="139.85663"
     inkscape:cy="91.651246"
     inkscape:window-width="1920"
     inkscape:window-height="1009"
     inkscape:window-x="1912"
     inkscape:window-y="-8"
     inkscape:window-maximized="1"
     inkscape:current-layer="layer1" />
  <defs
     id="defs1" />
  <g
     inkscape:label="Calque 1"
     inkscape:groupmode="layer"
     id="layer1"
     transform="translate(-63.764578,-51.858328)">
    <g
       id="cross"
       transform="matrix(0.00287091,0,0,0.00287091,85.078214,73.171964)">
      <g
         id="outer"
         fill="#ffffff"
         stroke="#000000"
         stroke-width="96">
        <path
           fill="none"
           stroke="#cf142b"
           stroke-width="512"
           d="m -2048,-7168 h 4096 v 3890.8 A 1094,964 45 0 1 3277.2,-2048 H 7168 V 2048 H 3277.2 A 964,1094 45 0 1 2048,3277.2 V 7168 H -2048 V 3277.2 A 1094,964 45 0 1 -3277.2,2048 H -7168 v -4096 h 3890.8 A 964,1094 45 0 1 -2048,-3277.2 Z"
           id="path3" />
        <path
           stroke="none"
           d="M 2024,-3275.2 A 1094,964 45 0 1 3275.2,-2024 V 2024 A 964,1094 45 0 1 2024,3275.2 H -2024 A 1094,964 45 0 1 -3275.2,2024 V -2024 A 964,1094 45 0 1 -2024,-3275.2 Z"
           id="path4" />
        <path
           stroke-width="48"
           d="M -2024,-7144 H 2024 V 7144 h -4048 z m -5120,5120 H 7144 V 2024 H -7144 Z"
           id="path5" />
        <path
           d="M -1792,-6912 H 1792 V 6912 h -3584 z m -5120,5120 H 6912 V 1792 H -6912 Z"
           id="path6" />
        <circle
           r="3200"
           id="circle6"
           cx="0"
           cy="0" />
        <circle
           r="2368"
           id="circle7"
           cx="0"
           cy="0" />
        <g
           id="g-vi"
           stroke-width="48"
           stroke-linejoin="round">
          <path
             d="m 3084,-2565 c -111,85 -322,302 -450,461 l -119,-74 c 163,-141 389,-350 514,-499 z m -101,-185 c -201,59 -585,172 -749,276 l -36,-52 c 69,-99 147,-506 144,-622 l 125,28 c -41,100 -81,314 -92,453 129,-23 435,-123 522,-186 z"
             id="path7" />
          <path
             d="m 3240.8,-2291.9 h -158.6 a 600,330 45 1 0 -242.3,173.3 l 112.1,-133.7 138.1,138.1 -154.5,154.4 a 1070,940 45 0 1 -974.1,-1283 1070,940 45 0 1 1279.3,950.9 z"
             id="path8" />
        </g>
        <use
           transform="rotate(90)"
           xlink:href="#g-vi"
           id="use8" />
        <use
           transform="scale(-1)"
           xlink:href="#g-vi"
           id="use9" />
        <use
           transform="rotate(-90)"
           xlink:href="#g-vi"
           id="use10" />
      </g>
      <g
         id="inscription">
        <path
           d="m -2541,1790 c -72,-126 -167,-287 -219,-329 32,-22 75,-54 97,-60 -1,80 120,246 120,246 l 178,-117 c -50,-77 -94,-136 -130,-159 44,-32 91,-59 104,-62 1,39 24,104 92,184 0,0 166,-88 220,-156 l 70,114 c -78,15 -428,233 -532,339 z M -2788,273 c -187,34 -282,193 -250,372 32,181 194,305 372,275 178,-31 279,-195 245,-385 -34,-190 -180,-296 -367,-262 z m 27,108 c 150,-27 276,46 297,162 21,116 -72,231 -223,258 -151,27 -271,-69 -288,-166 -18,-99 63,-227 214,-254 z m 366,-1100 c -62,98 -199,188 -320,271 -17,-86 -81,-141 -155,-146 -79,-4 -160,59 -174,101 -20,58 -45,307 -45,307 156,-12 497,15 614,58 l 14,-132 c -77,20 -251,-16 -251,-16 l 4,-58 180,-142 c 23,-18 158,-144 162,-234 1,-28 -23,-21 -29,-9 z m -361,441 c -71,2 -219,-6 -260,-24 16,-143 60,-194 136,-187 70,7 144,47 124,211 z m 682,-1772 c -136,11 -306,139 -302,249 1,58 21,138 98,196 76,58 155,75 218,63 61,-11 162,-96 161,-143 0,-46 -108,-174 -176,-174 l 113,-121 c 29,70 145,172 188,185 -49,117 -110,239 -238,298 -128,60 -261,57 -382,-57 -114,-108 -70,-316 2,-397 79,-89 226,-127 229,-196 z m 638,-673 24,454 c 0,0 9,161 -28,261 l 141,-99 c -55,-44 -44,-179 -44,-179 l 228,-122 c 0,0 108,69 97,153 l 194,-79 c -113,-43 -253,-142 -253,-142 z m 73,141 208,138 -203,109 z m 1018,-474 c -26,111 2,330 43,512 141,-13 249,-27 297,-87 l 13,150 c -139,0 -292,16 -432,38 2,-205 -19,-474 -77,-590 z m 1059,67 c -65,94 -119,308 -147,492 136,40 242,66 309,27 l -43,145 c -129,-50 -278,-92 -416,-123 76,-189 155,-448 144,-576 z m 1071,485 -396,225 c 0,0 -140,81 -246,93 l 151,80 c 15,-68 141,-119 141,-119 l 212,149 c 0,0 -14,129 -94,156 l 157,138 c -11,-120 14,-291 14,-291 z m -94,128 -31,249 -189,-133 z m 304,932 -62,-117 c 102,-8 409,-188 550,-280 l 22,40 -132,603 c 118,-47 305,-145 356,-199 l 70,133 c -131,-19 -374,101 -558,213 l -18,-32 113,-587 c 0,0 -305,138 -341,226 z m 930,872 c -12,-89 -14,-150 -57,-170 l -5,-37 109,-18 c 45,117 96,443 89,527 l -112,18 -5,-31 c 37,-42 0,-196 0,-196 -166,17 -455,64 -496,121 l -26,-154 c 59,20 350,-11 503,-60 z M 2388,752 c 62,-98 201,-187 322,-269 17,86 80,142 155,146 79,5 160,-56 174,-99 21,-58 47,-306 47,-306 -156,10 -496,-19 -613,-63 l -15,132 c 77,-19 251,17 251,17 l -4,58 -181,141 c -24,18 -160,143 -165,233 -1,28 23,20 29,10 z m 365,-439 c 71,-1 219,8 260,26 -17,143 -62,194 -138,186 -70,-8 -143,-48 -122,-212 z m -566,836 -93,160 c 72,-11 172,46 253,99 27,72 133,256 125,436 l 120,-206 c -53,-24 -115,-50 -155,-243 158,-59 276,-78 326,-50 l 106,-180 c -123,74 -412,150 -460,134 -50,-29 -192,-73 -222,-150 z"
           id="path10" />
        <circle
           r="125"
           cx="1475"
           cy="2361"
           id="circle10" />
        <circle
           r="125"
           cx="-1475"
           cy="2361"
           id="circle11" />
      </g>
      <g
         id="rose"
         transform="translate(0,2784)">
        <path
           d="m 195,268 c -13,9 -48,-9 -56,-37 0,9 -2,37 -19,53 -41,39 -85,20 -120,20 -35,0 -79,19 -120,-20 -17,-16 -19,-44 -19,-53 -8,28 -43,46 -56,37 -12,-9 -6,-48 18,-64 -8,2 -36,9 -56,-2 -50,-27 -45,-75 -56,-108 -11,-33 -43,-69 -18,-120 10,-21 36,-32 44,-35 -29,1 -56,-27 -52,-41 5,-15 44,-21 67,-3 -6,-7 -20,-31 -16,-54 10,-56 57,-66 85,-87 29,-21 53,-62 109,-54 23,3 41,24 47,31 -10,-27 8,-62 23,-62 15,0 33,35 23,62 6,-7 24,-28 47,-31 56,-8 80,33 109,54 28,21 75,31 85,87 4,23 -10,47 -16,54 23,-18 62,-12 67,3 4,14 -23,42 -52,41 8,3 34,14 44,35 25,51 -7,87 -18,120 -11,33 -6,81 -56,108 -20,11 -48,4 -56,2 24,16 30,55 18,64 z M -93,128 c 16,12 -27,48 -10,93 19,53 72,37 103,37 31,0 84,16 103,-37 17,-45 -26,-81 -10,-93 16,-12 38,40 85,39 57,-3 58,-57 67,-87 10,-30 42,-75 -3,-110 -37,-30 -86,0 -92,-19 -6,-19 50,-23 64,-69 15,-55 -37,-72 -62,-91 -26,-18 -59,-62 -106,-31 -39,27 -26,82 -46,82 -20,0 -7,-55 -46,-82 -47,-31 -80,13 -106,31 -25,19 -77,36 -62,91 14,46 70,50 64,69 -6,19 -55,-11 -92,19 -45,35 -13,80 -3,110 9,30 10,84 67,87 47,1 69,-51 85,-39 z"
           id="path11" />
        <path
           d="m 0,199 c -9,0 -20,-21 -14,-38 -3,5 -14,17 -28,19 -34,5 -48,-20 -65,-32 -17,-13 -45,-19 -51,-52 -3,-14 6,-29 9,-33 -14,11 -37,7 -40,-2 -3,-8 14,-25 31,-25 -5,-1 -20,-8 -26,-20 -15,-31 4,-52 11,-72 6,-20 3,-49 33,-65 12,-7 29,-3 34,-1 -15,-10 -18,-33 -11,-39 8,-5 29,6 34,22 0,-5 1,-22 11,-31 25,-24 51,-12 72,-12 21,0 47,-12 72,12 10,9 11,26 11,31 5,-16 26,-27 34,-22 7,6 4,29 -11,39 5,-2 22,-6 34,1 30,16 27,45 33,65 7,20 26,41 11,72 -6,12 -21,19 -26,20 17,0 34,17 31,25 -3,9 -26,13 -40,2 3,4 12,19 9,33 -6,33 -34,39 -51,52 -17,12 -31,37 -65,32 -14,-2 -25,-14 -28,-19 6,17 -5,38 -14,38 z M 0,85 c 11,0 4,30 25,44 25,17 43,-6 57,-16 14,-10 42,-20 33,-49 -7,-25 -37,-27 -34,-38 3,-10 29,6 50,-10 24,-19 7,-43 2,-59 -6,-16 -6,-46 -37,-47 -26,-1 -37,27 -46,21 -9,-6 15,-26 6,-50 -11,-29 -39,-20 -56,-20 -17,0 -45,-9 -56,20 -9,24 15,44 6,50 -9,6 -20,-22 -46,-21 -31,1 -31,31 -37,47 -5,16 -22,40 2,59 21,16 47,0 50,10 3,11 -27,13 -34,38 -9,29 19,39 33,49 14,10 32,33 57,16 21,-14 14,-44 25,-44 z"
           id="path12" />
        <circle
           r="48"
           id="circle12"
           cx="0"
           cy="0" />
      </g>
      <g
         id="inner"
         fill="none"
         stroke="#000000"
         stroke-width="36"
         stroke-linejoin="round"
         stroke-linecap="round">
        <path
           id="ground"
           stroke-width="48"
           d="m -1630,1718 a 40000,40000 0 0 1 3260,0" />
        <g
           id="rider-l">
          <path
             stroke-width="24"
             d="m -122,-1174 c 74,82 82,103 82,103 M 97,232 c -5,85 -1,173 13,218 M -108,246 c 32,35 75,156 69,201"
             id="path13" />
        </g>
        <g
           id="dragon">
          <path
             fill="#ffffff"
             d="m 567,1705 c -39,12 -107,51 -106,86 1,34 81,39 105,46 -43,18 -180,44 -241,13 -44,26 -358,-46 -422,-48 -40,-1 -97,-35 -90,-112 1,-17 12,-56 50,-69 -22,-38 75,-102 171,-160 -144,19 -325,-37 -371,-92 -110,-38 -158,-1 -204,95 4,165 -88,243 -198,230 -75,-9 -91,26 -111,34 l 224,69 c 146,141 60,244 28,270 -31,25 -114,13 -163,13 -49,0 -50,15 -71,26 -35,18 -70,28 -85,12 9,-23 23,-113 83,-127 36,-3 101,-20 103,-54 1,-33 -120,-28 -215,-64 -80,-30 -107,-71 -78,-196 23,-139 186,-155 265,-156 -11,-59 -4,-161 70,-228 108,-99 275,-63 417,-54 81,-45 231,-112 378,-118 132,-5 717,-156 983,-127 -60,-89 -46,-299 63,-361 139,-78 289,133 325,96 36,-38 -45,-93 -147,-199 -25,-47 -20,-41 -21,-56 -2,-34 6,-75 19,-84 12,-8 95,23 115,53 27,41 61,60 88,38 35,-27 -10,-17 -30,-76 -10,-29 -33,-52 -32,-81 20,-23 98,-87 159,-107 25,24 41,56 61,88 49,74 94,54 127,104 12,20 12,73 36,118 43,83 128,177 240,244 17,11 41,32 43,49 3,26 -18,52 -28,64 -14,18 -64,19 -112,-4 -73,-35 -99,-53 -142,-47 -94,14 -156,164 -289,166 -126,-18 -211,-199 -285,-146 -73,53 172,208 142,273 21,16 55,70 47,115 125,-27 225,-112 262,-181 64,-89 115,-139 153,-155 37,-16 85,7 85,36 14,-3 35,14 61,18 38,18 23,55 12,68 -1,-6 -21,-13 -40,-22 -20,-8 -51,17 -80,41 -29,23 -50,79 -79,115 -29,35 -104,107 -136,146 18,27 9,77 12,101 7,0 31,6 45,16 13,10 11,21 5,48 -9,33 -133,181 -169,180 -55,0 -90,-65 -85,-92 -60,28 -87,-38 -89,-62 -23,31 -114,81 -147,93 -32,12 -45,16 -55,-27 -10,29 -91,59 -110,63 -105,21 -212,67 -316,66 l -255,-5 z"
             id="path14" />
          <path
             fill="#ffffff"
             stroke-width="22"
             d="m 927,736 c 1,40 -57,143 28,216 52,44 143,81 173,138 25,48 -10,91 -21,88 -56,-12 -130,85 -157,151 -31,-93 -92,-70 -170,-57 21,-97 -57,-158 -177,-174 20,-20 -13,-51 -42,-77 -30,-26 -124,-5 -133,-26 -9,-21 45,-61 18,-104 C 420,847 307,873 271,858 279,804 285,774 258,726 230,677 103,692 41,678 92,642 115,589 87,531 58,471 -76,542 -75,462 c 4,-28 157,-51 219,-55 57,-3 257,43 443,88 44,37 336,127 340,241 z"
             id="path15" />
          <path
             d="m 1425,1498 c 93,-46 184,-106 281,-191 M -38,1236 c 84,4 265,31 317,100 52,70 85,181 -276,275 108,1 270,-26 327,-12 51,-9 167,-47 216,-31 -19,9 -80,26 -82,62 -2,36 26,42 78,58 m 348,-242 c 125,24 307,-13 333,118"
             id="path16" />
          <path
             stroke-width="24"
             d="m 1314,425 c 39,38 133,104 184,140 67,47 98,-12 46,-97"
             id="path17" />
          <path
             stroke-width="22"
             d="M 428,995 C 555,969 736,943 843,948 M 271,858 c 199,-54 417,-31 554,-29 m -36,435 c 37,-47 120,-114 183,-171 m -368,4 c 61,-25 176,-68 272,-85 M 587,495 c 107,-105 233,-90 353,-154 72,-37 134,-140 207,-211 33,-28 57,-50 140,-43 87,7 98,34 -14,47 -80,10 -83,49 -115,110 -27,52 -1,113 15,155 -20,42 -45,102 -52,148 -4,23 6,41 34,75 M 41,678 c 281,-61 684,44 760,49"
             id="path18" />
          <path
             stroke-width="16"
             d="m 1755,1123 c 91,-49 92,-142 213,-182 m -454,619 c 116,-55 141,-102 204,-152 m 57,-932 c -9,9 -38,-3 -52,-20 -13,-18 -20,-42 -9,-53 10,-10 26,-8 50,12 24,20 20,51 11,61 z m 26,211 c -55,8 -64,-37 -118,-46 -58,-11 -97,27 -97,62 0,36 36,67 72,69 36,2 66,-24 141,-16 M 1537,270 c 44,4 89,12 122,-18"
             id="path19" />
        </g>
        <g
           id="horse">
          <path
             fill="#ffffff"
             stroke-width="10"
             d="m 61,-672 a 23.844451,11.922226 75 0 1 -15,-45 24.406142,12.203071 76 0 1 -13,-47 24.449723,12.224862 77 0 1 -13,-47 24.842525,12.421262 79 0 1 -12,-48 25.190299,12.59515 80 0 1 -11,-49 24.975694,12.487847 82 0 1 -9,-49 25.368451,12.684225 83 0 1 -8,-50 25.832048,12.916024 85 0 1 -7,-51 25.208833,12.604417 87 0 1 -5,-50 25.609322,12.804661 89 0 1 -3,-51 12.821009,25.642018 1 0 1 -2,-51 13.052172,26.104344 4 0 1 1,-52 12.812422,25.624845 6 0 1 3,-51 12.878567,25.757133 9 0 1 5,-51 13.216355,26.43271 12 0 1 8,-52 13.090754,26.181508 15 0 1 11,-51 13.047379,26.094759 19 0 1 14,-50 13.309651,26.619302 23 0 1 17,-50 13.667301,27.334601 27 0 1 21,-50 13.850757,27.701513 31 0 1 25,-49 13.876175,27.752349 35 0 1 29,-47 14.274498,28.548995 40 0 1 33,-46 14.427621,28.855242 45 0 1 38,-43 14.957234,29.914467 49 0 1 42,-42"
             id="path20" />
          <path
             stroke-width="10"
             d="m 118,-689 -57,17 m 47,-62 -62,17 m 53,-63 -66,16 m 57,-63 -70,16 m 63,-63 -75,15 m 68,-63 -79,14 m 74,-62 -83,13 m 79,-61 -87,11 m 85,-59 -92,8 m 91,-55 -96,5 m 97,-53 -100,2 m 102,-49 -104,-2 m 108,-45 -107,-7 m 114,-39 -111,-12 m 119,-33 -114,-18 m 125,-26 -117,-26 m 130,-18 -119,-33 m 135,-9 -121,-41 m 139,1 -122,-51 m 142,11 -121,-61 m 145,24 -120,-73 m 146,37 -117,-84 m 147,49 -114,-95 m 146,63 -108,-106 m 144,76 -102,-118"
             id="path21" />
          <path
             fill="#ffffff"
             d="m 753,-1348 c -59,13 -89,15 -165,18 -15,35 -16,130 -15,164 161,153 317,350 327,536 50,40 82,81 110,155 115,-57 231,-155 329,-180 64,-16 177,-21 233,12 31,18 305,185 385,234 79,50 134,115 173,172 39,57 43,160 30,186 l -230,-66 c -16,-38 -3,-82 15,-120 17,-36 17,-38 -16,-64 -22,-18 -53,-13 -75,-8 -22,4 -57,-5 -77,-37 -22,-33 -263,-139 -304,-145 -40,-6 -101,-7 -151,40 -24,39 -105,165 -169,222 -17,17 -20,36 -10,56 0,0 153,-6 246,7 94,14 211,111 262,172 234,215 323,332 399,406 34,33 71,70 63,121 l -228,-4 c 3,-82 -13,-141 -27,-186 -27,-37 -75,-19 -94,-18 -19,2 -48,-39 -71,-76 C 1664,184 1540,97 1485,63 1430,29 1411,44 1353,39 1318,28 1238,14 1180,37 c -58,23 -228,77 -385,95 -58,26 -229,58 -410,97 -136,29 -441,78 -506,79 -20,147 -174,353 -218,376 -45,60 -43,113 -12,140 32,28 265,28 323,30 59,1 175,5 192,8 40,6 90,54 150,87 43,23 52,47 79,90 17,28 43,55 52,79 l -275,-6 c 3,-58 -31,-107 -70,-107 -38,27 -85,59 -137,38 -213,-13 -349,-4 -547,-17 -56,-3 -106,-84 -85,-158 21,-75 12,-126 -2,-180 -20,22 -98,99 -142,150 -68,77 -29,160 -4,202 41,35 267,253 297,319 23,35 113,106 203,181 29,67 83,100 126,144 l -349,1 c 11,-22 16,-43 21,-92 2,-18 -21,-58 -66,-53 -46,6 -86,-47 -100,-90 -14,-44 -168,-241 -214,-285 -46,-43 -185,-185 -209,-194 -25,-9 -31,-60 -2,-90 30,-30 116,-167 143,-256 18,-61 -4,-66 -18,-85 -152,-113 -285,-263 -364,-406 -29,18 -195,17 -278,-24 -63,-30 -147,-39 -192,32 -26,42 -25,121 21,156 66,50 145,132 221,226 76,94 10,156 -86,238 14,36 -2,30 16,90 32,46 32,162 -9,186 -40,26 -92,52 -140,108 -48,58 -69,2 -48,-94 12,-60 -37,-110 -79,-156 -41,-46 -20,-180 7,-220 26,-38 53,-116 -5,-174 -58,-58 -173,-180 -155,-342 22,-214 229,-282 352,-226 200,90 319,70 379,57 60,-97 135,-189 258,-259 115,-66 342,-157 565,-192 L 32,-658 c 75,-22 72,-88 65,-126 -72,-374 -50,-769 254,-970 32,-29 22,-111 70,-175 9,28 71,104 85,153 131,43 368,126 461,173 45,22 92,25 120,36 25,10 48,35 64,66 25,45 -3,89 -27,102 -18,9 -128,-28 -155,-3 5,25 33,52 92,76 27,12 -14,62 -46,65 -18,2 -43,-6 -59,-18 -65,-19 -135,-46 -203,-69 z"
             id="path22" />
          <path
             d="m 373,-1592 c -3,230 75,346 200,426 m 437,691 c 22,97 19,193 1,277 M -671,688 c 174,-82 325,-279 320,-397 -3,-69 -57,-175 -212,-180 m 212,180 c 48,19 154,7 230,17 m 859,-560 c 135,6 316,83 405,79 M 675,17 c 114,25 116,80 353,68 M 618,-746 c 133,4 209,69 282,116"
             id="path23" />
          <path
             stroke-width="22"
             d="m -376,399 c 93,-1 163,-13 201,-95 m 548,-1896 c -5,188 71,235 215,262"
             id="path24" />
          <path
             stroke-width="16"
             d="m 1098,-1560 c -9,48 -10,86 68,79 m -415,-210 c -60,154 243,174 255,271 M -693,-420 c 148,65 131,359 130,531"
             id="path25" />
          <path
             fill="#ffffff"
             stroke-width="14"
             d="m 935,-1420 c -48,94 -153,240 -261,318 -160,114 -333,199 -550,250 -29,7 -66,16 -108,7 -41,-8 -86,-35 -115,-94 -16,-31 -8,-179 47,-200 58,-21 111,-28 166,-25 30,2 72,11 69,52 -2,35 -35,56 -70,46 -42,-12 -106,-36 -142,-12 -25,16 -40,83 -23,113 26,48 52,63 79,68 27,6 56,0 85,-7 208,-49 373,-130 530,-242 103,-74 210,-228 246,-299 z m -815,293 c -62,-13 -162,2 -171,28 46,-29 103,-20 168,0 20,6 32,-23 3,-28 z m 405,-507 24,-46 c 5,-10 -18,-120 96,-61 114,59 22,110 17,121 -5,10 -24,45 -24,45"
             id="path26" />
          <path
             stroke-width="24"
             d="m 333,-1735 644,337"
             id="path27" />
        </g>
        <g
           id="cloak">
          <path
             fill="#ffffff"
             stroke-width="22"
             d="m -484,-1710 c -114,11 -324,-12 -438,-32 -55,-10 -210,215 -292,231 -82,16 -160,-165 -281,-122 -56,43 3,265 -31,293 -35,28 -142,-112 -208,-65 -66,47 56,342 24,376 -30,32 -180,-129 -225,-99 -45,30 49,489 5,513 -45,24 -253,-121 -280,-59 -27,62 293,208 383,212 l 90,-34 c 30,16 286,37 311,39 l 147,-149 c 225,-293 472,-568 795,-551 z"
             id="path28" />
          <path
             stroke-width="22"
             d="m -1473,-1638 429,-16 m -686,246 210,-72 m -409,346 191,-84 m -470,539 267,-242 m 206,419 c 113,-199 344,-419 533,-535 m -726,421 c 161,-194 622,-519 769,-537 m -368,-187 c 191,-88 464,-98 681,-116 m -373,-54 c 27,-3 355,-44 495,-37 m -989,522 c 255,-149 504,-270 785,-358"
             id="path29" />
        </g>
        <g
           id="weapons">
          <path
             fill="#ffffff"
             stroke-width="28"
             d="m 435,2087 c 20,6 41,49 41,49 0,0 -43,21 -61,17 l -2000,-598 c -59,-18 -34,-109 28,-90 z M -1476,-708 c -12,-41 -48,-78 -75,-83 -17,-2 -61,43 -59,57 5,29 63,66 86,74 z m 189,74 -168,168 c -21,22 18,57 38,37 l 168,-168 c 21,-21 -19,-56 -38,-37 z m -83,158 521,540 108,16 -16,-108 -540,-521 z"
             id="path30" />
          <path
             stroke-width="8"
             d="m -817,4 -516,-517"
             id="path31" />
        </g>
        <g
           id="rider-r">
          <path
             fill="#ffffff"
             d="m -126,-1496 c -4,-28 11,-45 32,-60 36,-25 26,-13 46,-3 19,10 39,26 50,35 14,10 22,5 27,-3 9,-14 12,-42 21,-51 7,1 18,-4 17,-17 11,-2 14,-9 13,-20 -2,-8 5,-30 18,-26 14,4 43,17 44,-2 2,-14 11,-66 16,-106 41,7 27,-40 42,-46 44,16 60,-54 35,-79 4,-56 45,-66 113,-65 -5,-38 -57,-49 -93,-97 -33,-49 -142,-112 -259,-110 -117,3 -213,112 -256,160 -43,48 -132,69 -159,64 -26,-6 -38,-25 -68,-28 0,0 -76,2 -116,3 -40,0 -55,28 -100,22 -27,-2 -137,-1 -169,10 -32,11 -1,83 33,86 16,2 100,7 131,25 35,19 138,24 184,7 86,-31 143,27 238,50 l 30,11 c -2,50 1,76 -24,76 -23,0 -61,-2 -82,-4 -12,0 -61,-33 -89,-39 -43,-9 -69,9 -86,16 -111,46 -522,366 -562,439 -45,81 -112,129 -176,250 -36,67 -104,149 -145,262 -69,31 -140,96 -151,111 -12,16 11,42 24,41 -5,10 19,37 38,35 -11,12 19,34 33,30 -8,12 13,45 30,44 l 166,-166 c 0,-71 42,-150 64,-189 89,-108 205,-287 237,-335 17,-27 212,-104 263,-154 -13,140 -9,236 9,319 28,136 73,223 100,338 28,114 0,184 5,238 2,42 17,46 57,69 41,25 199,4 249,19 93,29 178,31 212,37 116,-16 203,16 240,45 38,30 112,202 140,266 27,63 177,151 208,187 32,35 55,137 49,182 -5,44 1,64 47,59 36,-5 169,20 194,33 24,12 82,58 102,60 20,2 115,12 159,8 44,-4 42,-76 23,-79 -18,-2 -94,-18 -139,-29 C 895,423 796,335 757,287 717,238 697,170 672,121 646,72 497,-137 458,-184 c -12,-23 -91,-212 -109,-259 -17,-47 -56,-52 -86,-61 -124,-36 -172,-52 -299,-76 -92,-17 -113,-22 -121,-90 -6,-51 -45,-148 -25,-215 7,-22 20,-93 26,-125 7,-32 27,-85 32,-117 6,-43 14,-174 14,-208 0,-62 -9,-110 -16,-161 z m 96,563 c -12,3 -70,11 -100,-1 -10,-5 -8,-25 2,-25 -6,-4 -16,-25 -2,-28 -8,-2 -18,-32 -4,-33 -14,-9 -14,-26 0,-32 10,-8 72,-10 98,-6 16,32 12,91 6,125 z"
             id="path32" />
          <path
             d="m -255,-1730 c 29,18 25,-2 77,-17 51,-15 85,30 69,72 -15,42 -17,77 38,80 55,3 68,-44 80,-67 13,-22 37,-21 51,-48 11,-56 68,-43 103,-37 m 71,-125 c -28,15 -88,-33 -98,-79 -17,-54 -56,-93 -125,-94 -69,0 -200,39 -228,120 -9,61 -14,101 -15,112 -25,9 -49,1 -51,12 2,24 7,45 -7,55 m -426,427 139,-60"
             id="path33" />
          <path
             stroke-width="18"
             d="m -577,-1379 c 39,88 66,178 120,209 m 76,34 c 58,29 97,19 166,8 m -347,646 c 144,7 203,72 322,109 118,36 286,16 439,88 m -804,-658 c 36,27 88,45 131,45 m 63,3 c 76,12 146,42 157,86 m -188,80 c 69,67 195,118 285,123"
             id="path34" />
          <path
             stroke-width="16"
             d="m -336,-1663 c 65,210 74,296 226,328 m -281,-341 c 65,211 136,324 281,341 m -341,-368 c 65,211 164,359 341,368"
             id="path35" />
          <path
             stroke-width="16"
             d="m 676,348 c -32,-24 -40,-39 -63,-85 l -54,-107 -34,18 c -15,7 -31,-20 -14,-28 l 29,-14 -39,-78 c -22,-4 -1,-17 14,-24 16,-8 39,-18 29,2 l 39,78 28,-14 c 17,-9 30,20 14,27 l -34,17 54,107 c 23,46 31,61 31,101 z"
             id="path36" />
          <path
             stroke-width="12"
             d="M 672,121 508,204 M 357,83 573,-26 M 323,49 548,-65"
             id="path37" />
          <path
             stroke-width="8"
             d="m -1476,-519 73,-66 m -106,36 70,-63 m -108,28 76,-64 m 1343,-311 71,-3 m -77,-58 67,-2 m -63,35 66,-6 m 86,-620 c 15,9 29,16 43,18"
             id="path38" />
        </g>
      </g>
    </g>
  </g>
</svg>
