<?xml version="1.0" encoding="UTF-8" standalone="no"?>
<!-- Created with Inkscape (http://www.inkscape.org/) -->

<svg
   version="1.1"
   id="svg1"
   width="310.11569"
   height="303.10995"
   viewBox="0 0 310.11569 303.10995"
   xmlns="http://www.w3.org/2000/svg"
   xmlns:svg="http://www.w3.org/2000/svg">
  <defs
     id="defs1" />
  <g
     id="g363"
     style="opacity: $OPACITY"
     transform="translate(-1925.0506,-376.49832)">
    <path
       id="path364"
       d="m 187.00456,204.24672 -0.88421,0.57033 c -2.54169,1.27252 -4.76401,2.25749 -11.28989,5.14988 2.94888,1.45171 17.12311,2.32457 28.89465,3.04946 0.92151,0.22778 5.63382,3.57741 8.37049,5.52269 3.4448,1.94279 4.91848,2.37202 6.39216,2.80127 3.37609,1.69769 6.02872,3.34344 8.68134,4.98918 3.64892,1.6552 5.45613,2.03248 9.36163,2.84784 10.27646,8.0928 20.69606,18.55859 25.94666,23.83246 3.34601,4.53929 5.82417,9.75044 7.77726,13.85743 2.44443,4.32484 3.47898,5.5038 8.26882,10.96218 1.96017,4.83748 2.17885,11.73954 2.36883,17.73541 0.43865,1.35078 3.0967,4.12521 7.12705,8.33199 2.59709,0.74008 5.16713,-1.58577 8.13136,-4.26834 -0.31448,-6.05349 -4.12263,-19.61545 -9.75871,-39.68732 -7.50553,-12.43816 -24.56798,-29.98228 -37.74541,-43.53173 -10.24658,-5.96919 -27.88132,-10.36953 -35.82112,-12.35073 -23.58713,-1.25282 -25.82091,0.188 -25.82091,0.188"
       style="fill:#ceaf9a;fill-opacity:0.5;fill-rule:nonzero;stroke:none"
       transform="matrix(1.3333333,0,0,-1.3333333,1832.892,951.004)" />
    <path
       id="path365"
       d="m 70.74976,301.41022 -1.57283,2.40045 c -0.17773,2.52893 0.2736,16.08757 0.80493,32.04954 1.22145,6.26009 5.77472,16.35761 6.97087,19.01024 1.84717,4.87973 2.90869,8.19123 5.72922,16.99016 4.30719,7.97054 6.64193,8.71156 7.76345,9.06752 1.1873,1.64494 1.5187,3.30193 2.28243,7.12064 13.60449,14.02973 21.89053,19.54367 37.41984,29.87767 8.64006,4.54788 18.27321,7.45865 35.68703,12.72041 15.5516,1.06078 34.03108,-1.75273 45.71642,-3.53181 6.9814,-2.23543 18.95042,-8.03034 35.80615,-16.19123 10.97217,-7.27861 16.81465,-14.17506 18.28833,-15.91459 4.24542,-4.52726 7.96059,-8.32106 15.46387,-15.98311 3.91041,-6.78519 5.70926,-15.26371 6.36856,-18.37113 1.75775,-4.95391 3.24685,-7.90127 7.23927,-15.80349 1.59099,-7.12664 1.51073,-16.74846 1.44943,-24.09583 -0.42317,-1.90518 -2.89622,-5.96806 -6.61245,-12.07332 -1.80344,-0.64352 -1.80344,4.13568 -1.80344,6.14295 -0.66371,3.778 -1.4749,6.38824 -2.28607,8.99851 -1.73863,5.99406 -3.05243,10.70983 -4.36621,15.42562 -1.50664,4.69583 -2.03429,5.71942 -2.56194,6.743 -0.43172,1.80349 -0.43172,2.9842 -0.43172,4.16491 -2.39381,3.60938 -5.31959,6.84014 -9.00552,10.91025 -2.14702,3.56975 -3.30519,7.55374 -4.30051,10.97752 -1.96693,3.56261 -3.86688,5.38286 -5.62175,7.06415 -1.4358,1.90117 -1.4358,2.54352 -1.4358,4.17095 -13.4027,12.77037 -19.56214,17.01182 -33.36634,26.51751 -17.61068,5.08045 -40.72497,6.22522 -56.57249,7.01008 -3.07362,-0.31763 -17.23807,-4.20406 -25.13081,-6.36966 -17.58202,-8.60693 -21.58089,-12.26261 -23.34931,-13.87926 -3.85837,-3.29555 -6.80574,-5.70677 -9.7531,-8.118 -3.90101,-3.45544 -5.72155,-5.26753 -7.56321,-7.10066 -2.73354,-1.53494 -4.32026,-1.62694 -7.6279,-1.81871 -0.10973,-0.25334 2.07109,-2.66312 3.52681,-4.27167 -0.1489,-0.60593 -2.95041,-4.47328 -10.25882,-14.56227 -3.95892,-12.16888 -5.62455,-29.6642 -6.31342,-36.90011 -1.02357,-7.23969 -1.58572,-8.85228 -2.19957,-10.61318 -0.03793,-3.15332 0.51889,-6.13383 1.65282,-12.20354 -1.12498,-2.34133 -5.17535,-2.34133 -7.26361,-2.34133 -1.52049,0.86985 -2.77261,2.78082 -2.77261,2.78082"
       style="fill:#ceaf9a;fill-opacity:0.5;fill-rule:nonzero;stroke:none"
       transform="matrix(1.3333333,0,0,-1.3333333,1832.892,951.004)" />
    <path
       id="path366"
       d="m 265.63402,418.12444 -0.37123,0.96739 c 0.21019,1.30542 0.8383,1.93353 2.47126,3.5665 3.094,-1.49247 2.66744,-3.70736 2.19231,-6.17443 -3.43433,-0.59544 -4.29234,1.64054 -4.29234,1.64054"
       style="fill:#ceaf9a;fill-opacity:0.5;fill-rule:nonzero;stroke:none"
       transform="matrix(1.3333333,0,0,-1.3333333,1832.892,951.004)" />
    <path
       id="path367"
       d="m 298.65788,426.76236 0.48473,2.328 c 1.90211,0.14244 2.33719,-2.11666 2.56311,-3.28982 -0.52567,-0.70244 -1.62955,-0.70244 -2.65924,-0.70244 -0.59079,0.69325 -0.3886,1.66426 -0.3886,1.66426"
       style="fill:#ceaf9a;fill-opacity:0.5;fill-rule:nonzero;stroke:none"
       transform="matrix(1.3333333,0,0,-1.3333333,1832.892,951.004)" />
    <path
       id="path368"
       d="m 193.08124,204.11562 -4.33452,0.35664 c -6.21759,2.91009 -6.43576,4.6843 -6.55905,5.68697 7.04385,1.21936 17.83784,2.06388 21.41749,2.34394 2.56522,1.04189 5.5304,3.42003 7.80044,5.24068 4.00369,2.2449 6.62705,3.16802 9.2504,4.09111 2.8938,1.42754 3.80726,2.24919 4.72074,3.07082 3.27252,1.55476 6.35878,2.63337 17.04201,6.36709 20.69815,19.24094 25.91961,30.29219 27.63597,33.92485 3.62304,6.21302 6.33488,10.17406 10.86645,16.79309 0.39905,1.11113 0.39905,7.11025 0.39905,13.10451 0.29762,0.83074 3.644,4.17713 7.84624,8.37935 1.76399,0.29842 4.50412,-2.7294 6.31234,-4.72746 0.0451,-0.74771 -1.24302,-7.37991 -6.19029,-32.85237 -10.04007,-18.46347 -29.06022,-37.06656 -40.36918,-48.12751 -9.74175,-5.92721 -22.79265,-9.68759 -32.33623,-12.43739 -15.56587,-1.86728 -23.50186,-1.21432 -23.50186,-1.21432"
       style="fill:#c59470;fill-opacity:0.5;fill-rule:nonzero;stroke:none"
       transform="matrix(1.3333333,0,0,-1.3333333,1832.892,951.004)" />
    <path
       id="path369"
       d="m 70.60582,303.4726 -1.44536,2.20588 c -0.19858,2.10735 0.35967,9.31565 0.73541,14.16764 0.46603,6.8636 0.65986,10.40045 1.05756,17.65797 1.66374,5.35286 7.1913,17.15924 9.29587,21.65442 1.72192,4.80946 1.72192,6.19252 1.72192,7.57556 0.42404,1.58977 0.94231,2.14975 1.46056,2.70975 0.98927,2.22822 1.68012,4.39158 3.49635,10.07919 1.67777,1.06456 5.61582,-0.97189 7.38921,-1.88896 1.76994,-1.26644 2.15982,-1.89726 2.54969,-2.52809 -1.89859,-3.33878 -4.60899,-6.78867 -7.31938,-10.23856 -2.21759,-3.77283 -2.21759,-4.93417 -2.21759,-6.09552 -0.71266,-2.32387 -1.58369,-4.00279 -3.6997,-8.08138 -1.36826,-7.3055 -2.67763,-21.5157 -3.27509,-27.9999 -0.89345,-6.75006 -1.38792,-8.51596 -1.8824,-10.28183 -0.0522,-3.3719 0.37851,-5.72722 1.34169,-10.99447 -0.36357,-0.64137 -4.3125,-0.64137 -6.47191,-0.64137 -1.51541,0.83556 -2.73683,2.69967 -2.73683,2.69967"
       style="fill:#c59470;fill-opacity:0.5;fill-rule:nonzero;stroke:none"
       transform="matrix(1.3333333,0,0,-1.3333333,1832.892,951.004)" />
    <path
       id="path370"
       d="m 289.04936,318.18916 -1.3043,1.57781 c -2.16791,5.8284 -4.7751,14.76666 -5.80676,18.30351 -1.51668,4.83908 -2.33875,7.21668 -3.16079,9.59427 -0.67261,2.61473 -0.67261,3.43292 -0.67261,4.25108 -2.14839,2.72794 -4.77418,5.24391 -8.29817,8.6205 -1.70108,2.74881 -2.97195,7.12045 -6.94882,20.8004 -20.71826,19.80913 -39.10742,27.51375 -55.79431,34.50517 -31.24573,3.55169 -45.8565,0.11785 -57.60225,-2.64265 -7.40988,-2.59139 -15.65221,-6.82112 -19.69995,-8.89832 -3.91055,-1.70187 -4.6424,-1.70474 -5.37424,-1.70763 -1.14938,-0.884 -1.82233,-1.96156 -2.49528,-3.03912 -3.70249,-3.2555 -7.55483,-6.15687 -11.40715,-9.05825 -4.67241,-3.94132 -6.53083,-5.85711 -10.35854,-9.803 -3.04857,-0.46684 -5.71896,2.4839 -7.46504,4.4133 0.16534,0.39047 5.38473,6.66219 10.57103,12.89414 10.07355,8.87765 11.95872,8.87765 12.43948,8.87765 2.31978,1.60948 4.67429,3.57662 7.02881,5.54376 3.54227,2.27341 5.5172,3.08487 7.49214,3.89634 3.19415,1.72827 5.12317,3.02912 13.43964,8.63748 19.69282,4.43068 36.82235,4.54744 58.84395,4.69752 11.45018,-2.87047 32.88926,-13.91583 49.49153,-22.4693 5.72461,-4.30304 18.53456,-17.85798 28.46317,-28.36402 6.24816,-10.23539 6.24816,-15.99381 6.24816,-17.25887 1.65022,-4.71298 3.66718,-9.20821 7.41784,-17.5674 2.0456,-8.88434 1.64771,-15.08668 1.5248,-17.00246 -0.16082,-2.73877 -0.23451,-4.17033 -0.36526,-6.71064 -2.50884,-3.43097 -4.23563,-3.43097 -4.71082,-3.43097 -0.88714,0.60287 -1.49626,1.3397 -1.49626,1.3397"
       style="fill:#c59470;fill-opacity:0.5;fill-rule:nonzero;stroke:none"
       transform="matrix(1.3333333,0,0,-1.3333333,1832.892,951.004)" />
    <path
       id="path371"
       d="m 266.31546,419.20337 v 0.8842 c 0.72345,0.72345 1.60765,0.72345 2.49185,0.72345 0.72345,-0.72345 0.72345,-1.60765 0.72345,-2.49187 -0.72345,-0.72345 -1.60765,-0.72345 -2.49185,-0.72345 -0.72345,0.72345 -0.72345,1.60767 -0.72345,1.60767"
       style="fill:#c59470;fill-opacity:0.5;fill-rule:nonzero;stroke:none"
       transform="matrix(1.3333333,0,0,-1.3333333,1832.892,951.004)" />
    <path
       id="path372"
       d="m 191.29164,205.01385 -1.47368,0.26113 c -2.41148,1.1443 -3.88517,2.28178 -2.54229,4.38687 2.04975,-0.78746 3.12774,-1.76303 4.96539,-3.42609 0.12234,0.0251 0.12234,2.06496 0.12234,4.28778 3.4226,1.29258 9.3083,1.29258 10.74367,1.29258 3.35165,1.66247 6.01279,3.69438 8.67391,5.7263 3.94998,2.24206 6.11666,2.95045 8.28334,3.65886 3.45216,1.71359 5.50477,3.09961 7.5574,4.48559 2.31485,1.13401 3.09149,1.13401 5.45439,1.13401 5.59622,3.29409 11.10652,7.92851 13.98183,10.34677 4.56711,3.84747 7.2738,6.13168 13.59353,11.46493 5.15735,6.78551 8.31084,13.91612 9.68677,17.02735 2.29762,3.9651 3.72989,5.7001 8.55287,11.54254 2.28684,5.64061 2.71337,12.74652 3.06595,18.62023 0.48014,1.34858 2.98627,3.50427 4.59613,4.88902 2.47905,1.13298 3.89911,1.13298 8.3546,1.13298 0.61733,-3.0949 -1.73909,-13.61864 -7.19838,-38.00002 -8.25741,-14.75918 -27.43261,-34.40915 -42.7462,-50.10187 -17.28297,-7.58009 -40.27446,-8.68748 -46.16919,-8.9714 -6.0287,-0.0187 -7.50238,0.24244 -7.50238,0.24244"
       style="fill:#b78b67;fill-opacity:0.5;fill-rule:nonzero;stroke:none"
       transform="matrix(1.3333333,0,0,-1.3333333,1832.892,951.004)" />
    <path
       id="path373"
       d="m 71.22502,303.48671 -1.7258,2.07945 c 0.04413,14.51839 1.78612,17.77334 2.75408,19.58197 -0.0073,1.10056 -0.99976,2.9549 -1.95522,4.74021 -0.02841,1.19926 0.84604,2.83322 1.4957,4.04708 0.53152,2.13416 0.53152,3.52872 0.53152,4.92325 0.44147,1.59917 0.98102,2.15917 1.52059,2.71917 0.60286,1.66392 0.80015,3.1376 1.08763,5.28516 0.76263,0.59853 3.55446,0.86771 6.88888,1.1892 0.14882,-0.14703 0.14882,-3.7627 0.14882,-10.76508 -2.37584,-18.68309 -3.76812,-22.62924 -4.61429,-25.02751 -0.16688,-2.09886 0.41545,-3.01861 0.93834,-3.84448 0.4352,-2.00203 0.44423,-3.62308 0.45836,-6.15935 -0.42787,-0.41108 -3.08179,-0.41108 -4.77803,-0.41108 -2.00107,0.7389 -2.75058,1.64201 -2.75058,1.64201"
       style="fill:#b78b67;fill-opacity:0.5;fill-rule:nonzero;stroke:none"
       transform="matrix(1.3333333,0,0,-1.3333333,1832.892,951.004)" />
    <path
       id="path374"
       d="m 288.46597,321.34213 -1.57228,2.06134 c -1.28639,2.39142 -1.28639,3.25289 -1.28639,4.68166 -1.08405,3.69964 -6.07655,19.30972 -7.03763,22.31468 -2.52148,4.23702 -4.77933,6.64098 -9.31308,11.46813 -2.94113,5.2492 -2.94113,8.51364 -2.94113,9.72015 -1.68803,2.85562 -3.75121,5.1393 -5.81435,7.42294 -1.68803,2.34743 -1.68803,2.93285 -1.68803,5.11907 -13.65298,12.95321 -20.53717,17.29834 -37.90706,28.26176 -16.31258,4.21048 -42.4756,4.48346 -62.27049,4.68999 -6.55904,-1.33539 -21.4682,-8.60753 -25.59453,-10.6202 -5.18468,-2.36365 -7.3952,-3.23989 -9.60571,-4.11616 -1.80861,-1.13729 -1.80861,-1.65106 -1.80861,-2.95596 -13.01227,-10.29489 -15.76647,-11.16904 -17.01048,-11.56388 -1.79554,-1.50998 -2.74608,-2.96066 -4.67519,-5.90487 -3.11331,-0.4899 -5.0517,1.84572 -6.31857,3.37219 1.10005,3.73758 3.07333,4.61128 3.52218,4.81004 1.71714,1.79509 3.36701,3.79033 7.11505,8.32303 10.18395,8.45198 11.89742,8.45198 12.60138,8.45198 1.78777,1.21179 3.26885,2.69287 4.74993,4.17395 3.71585,2.47333 6.77641,4.01523 9.83694,5.5571 3.70984,2.08731 5.18352,3.09657 12.11086,7.84077 22.88003,4.93534 37.94674,4.93534 56.12066,4.93534 13.87551,-3.24758 31.19951,-11.55588 48.71881,-19.95783 7.78122,-5.64068 20.34263,-19.04448 31.98577,-31.46845 6.24847,-9.91611 6.32771,-16.09516 6.34662,-17.56884 1.24194,-3.61722 2.74096,-6.56459 8.69432,-18.26997 1.92872,-17.08036 -2.13602,-22.1001 -6.95899,-20.77796"
       style="fill:#b78b67;fill-opacity:0.5;fill-rule:nonzero;stroke:none"
       transform="matrix(1.3333333,0,0,-1.3333333,1832.892,951.004)" />
    <path
       id="path375"
       d="m 83.04298,365.61493 v 2.09251 c 0.54781,0.58692 2.50082,0.58692 6.01856,0.58692 0.70718,-1.11278 -1.35936,-3.39627 -3.87775,-6.17908 -2.14081,0.32939 -2.14081,3.49965 -2.14081,3.49965"
       style="fill:#b78b67;fill-opacity:0.5;fill-rule:nonzero;stroke:none"
       transform="matrix(1.3333333,0,0,-1.3333333,1832.892,951.004)" />
    <path
       id="path376"
       d="m 87.6803,371.10608 -2.00716,1.40251 c -0.17074,0.65907 0.77229,3.36424 1.99811,6.88063 2.25989,0.46968 5.85095,-2.04559 8.74589,-4.0733 0.1242,-1.82569 -2.47291,-4.17604 -4.83915,-6.31746 -0.87468,-0.005 -3.89769,2.10762 -3.89769,2.10762"
       style="fill:#b78b67;fill-opacity:0.5;fill-rule:nonzero;stroke:none"
       transform="matrix(1.3333333,0,0,-1.3333333,1832.892,951.004)" />
    <path
       id="path377"
       d="m 266.31546,419.20337 v 0.8842 c 0.72345,0.72345 1.60765,0.72345 2.49185,0.72345 0.72345,-0.72345 0.72345,-1.60765 0.72345,-2.49187 -0.72345,-0.72345 -1.60765,-0.72345 -2.49185,-0.72345 -0.72345,0.72345 -0.72345,1.60767 -0.72345,1.60767"
       style="fill:#b78b67;fill-opacity:0.5;fill-rule:nonzero;stroke:none"
       transform="matrix(1.3333333,0,0,-1.3333333,1832.892,951.004)" />
    <path
       id="path378"
       d="m 194.77489,205.02243 -2.20761,0.89262 c 0.59842,3.75753 2.94818,3.75753 4.09232,3.75753 1.23423,0.4823 1.59855,1.07177 1.96287,1.66124 1.88287,0.4823 3.81988,0.4823 6.01478,0.4823 2.07976,0.83186 3.32503,2.20785 5.04373,4.10704 15.95939,8.26832 24.60076,11.7366 29.43911,13.67848 19.11998,16.10319 23.66131,22.06102 26.05247,25.19801 2.96894,4.89589 4.20648,7.74275 5.44404,10.58962 2.37972,4.09951 4.05071,6.26317 10.07471,14.06321 1.94481,4.35869 1.2737,8.55553 0.38004,14.14422 1.8781,4.41816 6.11803,6.70153 14.63933,11.29055 0.52112,-9.03618 -6.94164,-31.98031 -11.50406,-46.00738 -10.24904,-15.4865 -24.53712,-29.94286 -36.0406,-41.58182 -13.08592,-7.09767 -29.54429,-10.62489 -35.84148,-11.97447 -15.62036,-1.08127 -17.54965,-0.30115 -17.54965,-0.30115"
       style="fill:#ac724f;fill-opacity:0.5;fill-rule:nonzero;stroke:none"
       transform="matrix(1.3333333,0,0,-1.3333333,1832.892,951.004)" />
    <path
       id="path379"
       d="m 70.73683,303.9572 -1.23828,2.00355 c 0.9782,14.62105 2.51815,17.12659 3.85967,19.3093 -0.0275,0.63107 -1.56652,2.97992 -3.02965,5.21294 -0.05661,0.72439 1.12115,2.14349 1.8974,3.07879 0.48481,1.65236 0.30113,2.73658 0.11746,3.8208 0.60289,1.96241 1.52345,3.27668 2.444,4.59095 0.75319,1.96463 0.75319,3.05159 0.75319,4.57519 0.67505,0.37497 2.94736,0.11351 5.70489,-0.20378 0.17919,-0.33249 0.02454,-4.8448 -0.38481,-16.78882 -1.12263,-9.47587 -2.63675,-13.76735 -3.54017,-16.32791 -0.52932,-2.85861 -0.2728,-3.79188 -0.01632,-4.72519 0.52178,-1.84877 0.90302,-3.17508 1.52797,-5.34935 -0.30169,-0.23721 -3.69197,-0.23721 -5.76007,-0.23721 -1.98151,0.46834 -2.33528,1.04074 -2.33528,1.04074"
       style="fill:#ac724f;fill-opacity:0.5;fill-rule:nonzero;stroke:none"
       transform="matrix(1.3333333,0,0,-1.3333333,1832.892,951.004)" />
    <path
       id="path380"
       d="m 288.21545,323.3588 -1.93159,2.13438 c -1.60756,4.58688 -4.0508,14.9352 -4.67706,17.58782 -0.94391,2.6285 -1.47127,3.1885 -1.99865,3.7485 -0.43147,1.56111 -0.43147,2.90912 -0.43147,4.4094 -2.02867,2.99003 -5.2303,6.20855 -9.17154,10.17057 -1.63879,2.66042 -2.70802,6.83232 -3.51852,9.99473 -2.1232,4.14367 -4.14099,6.50101 -6.08389,8.77086 -1.5981,2.26278 -1.60842,2.75855 -1.65322,4.91013 -11.04491,10.36638 -18.67879,15.42174 -28.04645,21.62526 -9.92576,4.50406 -19.92277,7.08769 -32.26863,10.2784 -28.96356,1.95686 -36.61643,0.11734 -49.91128,-3.07836 -8.2522,-3.02199 -16.17879,-7.59767 -17.65247,-8.44838 -2.54832,-0.70314 -4.18925,-0.71182 -6.45453,-0.72381 -1.25103,-0.90685 -2.9315,-3.75501 -4.14877,-5.81816 -1.57716,-1.68802 -2.28752,-1.68802 -2.99786,-1.68802 -2.24327,-1.71909 -4.27469,-3.82018 -6.94733,-6.58448 -1.70274,-0.92684 -3.4879,-0.589 -5.18514,-0.26782 -1.73002,-0.81456 -3.8471,-2.93162 -5.53962,-4.62416 -1.87572,-1.38476 -2.47576,-1.38476 -5.0488,-1.38476 0.31831,2.49726 3.29724,5.68145 5.06137,7.56716 3.22174,3.57825 5.39528,6.06597 7.56883,8.55365 4.3608,3.29886 7.51709,4.8431 10.67339,6.38733 3.26536,2.30526 4.1001,3.57859 4.93481,4.85192 2.55913,1.7164 4.85221,2.54091 7.1453,3.36543 3.40371,1.83543 5.27075,3.25421 11.60907,8.07079 25.51678,6.22167 38.905,6.21498 57.59408,6.20561 17.98439,-4.62294 35.86582,-14.01412 52.235,-22.61106 6.53163,-4.9254 18.18582,-17.46041 28.82486,-28.90355 5.41072,-8.66133 5.4128,-14.25221 5.41327,-15.50517 1.44249,-4.07353 3.20508,-7.79933 7.1776,-16.19647 2.46699,-9.29579 2.46699,-15.8672 2.46699,-24.36427 -2.97168,-2.92643 -7.03775,1.56653 -7.03775,1.56653"
       style="fill:#ac724f;fill-opacity:0.5;fill-rule:nonzero;stroke:none"
       transform="matrix(1.3333333,0,0,-1.3333333,1832.892,951.004)" />
    <path
       id="path381"
       d="m 83.5742,365.08661 -0.3669,0.59364 c 0.47465,0.78302 1.42164,1.14641 3.4737,1.93387 1.14365,-0.86774 0.15726,-2.46376 -0.73271,-3.90376 -1.50534,-0.0294 -2.37409,1.37625 -2.37409,1.37625"
       style="fill:#ac724f;fill-opacity:0.5;fill-rule:nonzero;stroke:none"
       transform="matrix(1.3333333,0,0,-1.3333333,1832.892,951.004)" />
    <path
       id="path382"
       d="m 88.1339,371.92984 -2.24613,1.70506 c -0.09476,1.11582 1.78793,3.69055 3.12116,5.51384 0.2864,0.0105 3.48971,-1.64596 7.41822,-3.67749 0.22182,-0.81184 -2.48292,-3.25961 -4.82333,-5.37765 -0.98787,-0.0479 -3.46992,1.83624 -3.46992,1.83624"
       style="fill:#ac724f;fill-opacity:0.5;fill-rule:nonzero;stroke:none"
       transform="matrix(1.3333333,0,0,-1.3333333,1832.892,951.004)" />
    <path
       id="path383"
       d="m 266.85133,418.66748 -0.3643,0.58948 c 0.4823,0.48228 1.43608,0.48228 2.38986,0.48228 0.4823,-0.48228 0.11798,-1.07176 -0.24632,-1.66124 -0.4823,-0.4823 -0.70746,-0.4823 -0.93262,-0.4823 -0.4823,0.4823 -0.84662,1.07178 -0.84662,1.07178"
       style="fill:#ac724f;fill-opacity:0.5;fill-rule:nonzero;stroke:none"
       transform="matrix(1.3333333,0,0,-1.3333333,1832.892,951.004)" />
    <path
       id="path384"
       d="m 195.04283,206.45728 -0.36432,0.58946 c 0.46898,0.4823 1.40648,0.4823 2.34397,0.4823 1.04466,0.72345 1.38395,1.60765 1.75482,2.57408 1.61653,0.64123 3.68207,0.64123 6.09625,0.64123 1.93248,0.95054 4.08403,3.19628 5.76828,4.95423 3.58687,2.25662 6.28661,3.25674 8.98634,4.25688 3.45804,1.67448 4.98478,2.72096 6.51153,3.76744 3.93499,1.86113 7.21772,3.08933 10.5004,4.31757 3.26356,1.70099 3.96964,2.55178 4.67573,3.40255 4.50518,3.81147 9.30542,7.6191 18.87498,15.20986 5.8586,7.10194 9.71005,15.78042 11.08929,18.88829 2.31792,3.98968 3.77169,5.75812 9.3162,12.50264 1.79568,4.35373 1.79568,11.05209 1.79568,16.61844 0.37729,1.20382 2.83592,3.48242 6.12859,6.53396 2.65919,0.29447 4.70146,-2.16631 5.93242,-3.64955 -0.30106,-2.27641 -3.25081,-13.78947 -8.78208,-35.37823 -8.477,-14.41023 -26.42843,-32.74018 -35.66755,-42.17411 -8.61093,-5.45988 -21.17121,-9.84817 -32.57239,-13.83151 -20.80255,-2.27107 -22.38814,0.29447 -22.38814,0.29447"
       style="fill:#a3561c;fill-opacity:0.5;fill-rule:nonzero;stroke:none"
       transform="matrix(1.3333333,0,0,-1.3333333,1832.892,951.004)" />
    <path
       id="path385"
       d="m 70.93275,308.48402 -0.33165,2.47269 c 0.13283,2.77832 0.62685,3.70139 1.12085,4.62445 0.16288,2.01756 -0.13206,3.5604 -0.5307,5.64575 0.49129,1.16033 2.31319,2.43645 -0.78137,10.05582 0.92978,1.64325 5.8683,1.64325 8.53308,-8.7395 -1.09248,-5.33611 -2.01558,-8.17381 -3.26846,-12.02532 -0.1168,-1.61662 0.79208,-2.52551 2.97633,-4.70977 -0.84385,-1.81992 -4.04086,-1.81992 -6.84086,-1.81992 -0.32797,0.401 -0.87722,4.4958 -0.87722,4.4958"
       style="fill:#a3561c;fill-opacity:0.5;fill-rule:nonzero;stroke:none"
       transform="matrix(1.3333333,0,0,-1.3333333,1832.892,951.004)" />
    <path
       id="path386"
       d="m 288.06882,324.56805 -0.60616,0.76529 c -0.78459,1.8319 -1.13739,3.30556 -2.90431,10.68636 -2.92918,9.48831 -4.08431,11.57265 -4.79785,12.86021 -0.58382,1.96903 -0.58382,3.08806 -0.58382,4.20711 -1.83038,2.38652 -4.0675,4.18433 -7.93536,7.29262 -3.00681,5.25519 -4.27877,11.13 -4.59782,12.6037 -1.37554,2.41148 -2.73768,3.88516 -4.09981,5.35884 -2.43383,3.47441 -4.04642,6.24724 -5.65899,9.02006 -2.18786,2.89377 -3.24934,3.65778 -4.3108,4.4218 -1.1559,1.39768 -1.50716,2.34191 -1.85843,3.28615 -2.13858,1.71237 -4.40111,2.86104 -6.66365,4.00971 -4.5038,2.60241 -7.7459,4.63449 -15.41576,9.44178 -7.98318,3.27425 -18.58847,5.96239 -36.29185,10.44972 -28.41178,1.09513 -36.95682,-2.38047 -38.13576,-2.85998 -2.3136,-0.93469 -3.9624,-1.59757 -5.61119,-2.26044 -2.50359,-0.54234 -3.91473,-0.54234 -5.32588,-0.54234 -1.4827,-0.53088 -1.88372,-1.17975 -2.29831,-1.85057 -1.64545,-0.24274 -3.39986,0.10815 -5.95082,0.61835 -0.53435,-0.25321 -0.53435,-1.97217 -0.53435,-4.66486 -3.47893,-1.82147 -7.81985,-1.40156 -10.66667,-1.12621 -0.5869,0.50904 -0.5869,2.70265 -0.5869,4.88228 0.90428,0.80201 5.13161,2.37159 7.95399,3.41951 3.30616,1.78618 4.52465,2.92136 5.74311,4.05654 2.2726,1.37626 3.83171,1.92318 5.39085,2.4701 2.96368,1.0564 5.02684,1.80063 23.71217,8.54093 28.41159,0.39262 47.76435,-5.82202 56.73089,-8.7014 19.37672,-9.56212 28.09546,-15.41014 37.75451,-21.88891 18.03372,-19.61468 21.95827,-27.91038 23.67839,-31.54635 1.40773,-4.03668 1.40821,-5.33445 1.40866,-6.63222 1.78238,-5.0641 3.96038,-9.95579 7.48749,-17.87759 0.43935,-1.96805 0.49202,-10.08226 0.54683,-18.5253 -0.15947,-0.6904 -2.23299,-0.98666 -3.4635,-1.16247 -1.50275,0.48229 -2.1089,1.24758 -2.1089,1.24758"
       style="fill:#a3561c;fill-opacity:0.5;fill-rule:nonzero;stroke:none"
       transform="matrix(1.3333333,0,0,-1.3333333,1832.892,951.004)" />
    <path
       id="path387"
       d="m 75.27266,335.79713 -2.3001,0.6148 c -0.12861,2.22316 2.03217,4.01645 2.91637,4.75027 0.72345,1.50594 0.72345,2.6127 0.72345,5.53156 3.05913,-0.44699 3.8196,-3.47696 5.33225,-9.50383 -1.8624,-2.67835 -6.67197,-1.3928 -6.67197,-1.3928"
       style="fill:#a3561c;fill-opacity:0.5;fill-rule:nonzero;stroke:none"
       transform="matrix(1.3333333,0,0,-1.3333333,1832.892,951.004)" />
    <path
       id="path388"
       d="m 89.20566,372.66728 -2.01962,1.17632 c -0.47458,2.51608 1.13549,3.51115 2.22163,4.1824 5.42479,-2.15582 5.42479,-3.25871 5.42479,-4.11456 -2.36583,-2.41319 -3.16173,-2.3692 -3.48593,-2.35127 -1.10929,0.50627 -2.14087,1.10711 -2.14087,1.10711"
       style="fill:#a3561c;fill-opacity:0.5;fill-rule:nonzero;stroke:none"
       transform="matrix(1.3333333,0,0,-1.3333333,1832.892,951.004)" />
    <path
       id="path389"
       d="m 105.81807,392.1706 -3.26521,1.49215 c 0.22651,1.43595 4.33699,5.3022 9.19755,9.87401 3.44565,1.77204 3.44565,-0.29999 3.44565,-1.16521 0.96458,-1.01407 2.14354,-1.38826 5.21902,-2.36438 -0.43339,-1.33565 -4.06105,-2.06117 -5.91922,-2.4328 -1.5531,-1.14317 -1.9656,-2.4429 -2.9324,-5.48897 -2.82856,-1.24774 -5.74539,0.0852 -5.74539,0.0852"
       style="fill:#a3561c;fill-opacity:0.5;fill-rule:nonzero;stroke:none"
       transform="matrix(1.3333333,0,0,-1.3333333,1832.892,951.004)" />
    <path
       id="path390"
       d="m 118.2104,405.46663 0.77369,0.3096 c 0.92439,-0.0381 1.28054,-0.39421 1.63668,-0.75035 -0.63301,-0.25331 -1.76283,-0.20678 -3.01138,-0.15535 -0.25397,0.25397 0.60101,0.5961 0.60101,0.5961"
       style="fill:#a3561c;fill-opacity:0.5;fill-rule:nonzero;stroke:none"
       transform="matrix(1.3333333,0,0,-1.3333333,1832.892,951.004)" />
    <path
       id="path391"
       d="m 201.17543,207.7068 0.55363,1.66086 c 3.36799,0.27939 3.76352,-1.30273 3.91089,-1.89221 -1.01832,-0.64345 -2.41029,-0.84042 -4.1454,-1.08595 -0.64589,0.337 -0.31912,1.3173 -0.31912,1.3173"
       style="fill:#922904;fill-opacity:0.5;fill-rule:nonzero;stroke:none"
       transform="matrix(1.3333333,0,0,-1.3333333,1832.892,951.004)" />
    <path
       id="path392"
       d="m 214.06673,208.68666 2.96396,1.72635 c -0.77739,1.41171 -4.30367,0.70647 -6.7652,0.21414 -0.75377,0.23706 -0.75377,1.50347 -0.75377,3.40735 6.29162,4.21222 9.13536,4.21222 10.18908,4.21222 2.50458,1.25275 4.512,2.78389 6.51943,4.31503 3.29538,1.70915 5.31567,2.26697 7.33594,2.8248 4.63141,2.84677 8.27173,5.76833 11.96413,8.73166 4.0334,2.34859 5.43015,2.34859 7.1685,2.34859 0.76544,0.61763 0.76544,2.02026 0.76544,3.13142 1.1615,1.67018 2.58111,2.60034 4.86662,4.09786 0.44786,0.0103 1.62474,-1.40775 2.70847,-2.71358 -0.13025,-0.57291 -1.78928,-1.79764 -4.0374,-3.45723 0.89725,-1.60959 4.50057,-2.38117 6.33296,-2.77353 -0.62918,-1.00078 -6.16704,-6.50218 -14.33008,-14.61153 -10.62352,-6.23369 -22.39011,-9.81869 -31.92141,-12.72267 -6.68137,-0.8712 -3.00667,1.26912 -3.00667,1.26912"
       style="fill:#922904;fill-opacity:0.5;fill-rule:nonzero;stroke:none"
       transform="matrix(1.3333333,0,0,-1.3333333,1832.892,951.004)" />
    <path
       id="path393"
       d="m 260.9566,245.98149 v 0.51729 c 0.68052,0.98801 1.51224,1.67828 3.19179,3.07219 1.71785,-1.58387 0.55941,-3.45825 -0.2568,-4.7789 -2.93499,-0.10269 -2.93499,1.18942 -2.93499,1.18942"
       style="fill:#922904;fill-opacity:0.5;fill-rule:nonzero;stroke:none"
       transform="matrix(1.3333333,0,0,-1.3333333,1832.892,951.004)" />
    <path
       id="path394"
       d="m 274.26862,251.5991 0.0468,1.24909 c -0.85063,1.56746 -1.93711,2.23416 -3.56454,3.23277 -0.6367,-0.21129 -1.98656,-2.19792 -2.88774,-3.52424 -1.23558,-1.08516 -1.84451,-1.08516 -2.45345,-1.08516 0.25512,0.84401 1.17586,1.87559 2.09658,2.90716 1.29362,2.87351 1.95396,5.35398 2.61433,7.83445 2.1924,4.09951 4.21164,6.62957 10.71477,14.77777 2.57658,5.99852 2.40326,12.58654 2.23221,19.08743 1.17994,1.94523 6.01298,3.13005 10.61825,4.25902 0.16026,-2.78395 -3.65193,-17.68984 -6.96007,-30.6248 -3.88939,-9.47545 -8.9358,-16.894 -11.69542,-20.95081 -0.87943,-0.30458 -0.76171,2.83732 -0.76171,2.83732"
       style="fill:#922904;fill-opacity:0.5;fill-rule:nonzero;stroke:none"
       transform="matrix(1.3333333,0,0,-1.3333333,1832.892,951.004)" />
    <path
       id="path395"
       d="m 71.8216,311.43857 -0.92495,1.49656 c 1.17856,1.77079 3.09957,1.77079 5.06742,1.77079 0.01554,-1.51672 -1.93569,-3.13612 -2.96947,-3.99408 -0.69821,-0.0415 -1.173,0.72673 -1.173,0.72673"
       style="fill:#922904;fill-opacity:0.5;fill-rule:nonzero;stroke:none"
       transform="matrix(1.3333333,0,0,-1.3333333,1832.892,951.004)" />
    <path
       id="path396"
       d="m 73.39708,320.48598 v 1.61668 c 2.60341,1.43204 3.64641,0.38904 5.05783,-1.02237 -0.89661,-2.08731 -2.91429,-2.08731 -4.09325,-2.08731 -0.96458,0.67186 -0.96458,1.493 -0.96458,1.493"
       style="fill:#922904;fill-opacity:0.5;fill-rule:nonzero;stroke:none"
       transform="matrix(1.3333333,0,0,-1.3333333,1832.892,951.004)" />
    <path
       id="path397"
       d="m 289.60353,325.56506 -1.01898,0.57025 c -0.83371,1.3331 -0.83371,2.39219 -0.83371,3.45129 -0.71655,2.30287 -1.59233,4.0584 -2.5947,6.06768 -0.44536,3.24635 -0.19967,6.75266 0.098,11.00078 -0.21317,1.06813 -1.19591,0.25255 -2.82175,-1.0968 -2.18393,1.98642 -2.18393,4.81454 -2.18393,5.92189 -1.99359,2.91788 -4.43024,5.37686 -8.86518,9.85248 -3.92827,6.95402 -3.97251,10.40768 -3.98545,11.41874 -1.401,2.41149 -3.1004,4.34778 -4.79981,6.28408 -2.16927,3.44925 -3.12121,5.72871 -7.39558,15.96362 -5.76945,5.97377 -11.39412,5.98842 -12.27832,5.99071 -0.7296,0.80998 -0.7371,1.79765 -0.75741,4.46447 -1.31356,0.83037 -3.12879,-0.67613 -4.45781,-1.77914 -0.84452,0.33606 -3.5551,3.04665 -5.44426,4.93581 -2.05104,1.13366 -2.95334,0.78743 -3.81422,0.45708 -2.75732,0.81347 -5.26652,2.13804 -10.71908,5.01646 -15.43039,3.49185 -26.07611,4.25644 -32.43358,4.71306 -1.40814,0.44228 -1.84698,2.1204 -2.53805,4.76303 -3.20129,1.21911 -4.39171,-0.707 -5.20464,-2.02235 -5.76962,-0.75341 -13.59352,-0.5659 -14.77245,-0.53764 -3.53316,-0.0136 -6.67251,-0.0586 -10.72959,-0.11668 -1.52594,0.35672 -1.2191,1.29146 -0.98166,2.01477 1.60397,0.75305 3.32693,0.95015 5.04988,1.14726 3.83477,0.78975 6.79875,1.55791 14.29096,3.49965 21.76937,0.0653 32.13302,-1.82289 46.92591,-4.51803 12.6749,-5.20862 14.57186,-9.37201 15.50922,-11.42933 0.62311,-0.30525 2.18211,0.5291 4.30992,1.66787 0.17444,-0.0729 11.30844,-6.75955 19.36829,-11.5999 22.67874,-23.51154 25.41664,-29.86542 26.37463,-32.08867 1.45429,-4.60147 2.27371,-8.00224 3.09314,-11.403 1.82326,-5.0641 3.23222,-7.8528 6.5102,-14.34071 2.00344,-9.69048 1.08215,-14.60144 0.24021,-19.08929 -0.63271,-0.5827 -3.14018,0.82056 -3.14018,0.82056"
       style="fill:#922904;fill-opacity:0.5;fill-rule:nonzero;stroke:none"
       transform="matrix(1.3333333,0,0,-1.3333333,1832.892,951.004)" />
    <path
       id="path398"
       d="m 73.93295,328.6389 -0.98956,1.60117 c 1.37689,1.61413 3.73225,1.61413 5.09801,1.61413 0.71452,-0.73622 0.71452,-2.14354 0.71452,-4.4168 -3.58765,-0.79726 -4.82297,1.2015 -4.82297,1.2015"
       style="fill:#922904;fill-opacity:0.5;fill-rule:nonzero;stroke:none"
       transform="matrix(1.3333333,0,0,-1.3333333,1832.892,951.004)" />
    <path
       id="path399"
       d="m 77.4832,337.9452 0.77367,0.30959 c 0.9244,-0.0381 1.28054,-0.39421 1.6367,-0.75035 -0.63303,-0.2533 -1.76285,-0.20677 -3.0114,-0.15534 -0.25397,0.25397 0.60103,0.5961 0.60103,0.5961"
       style="fill:#922904;fill-opacity:0.5;fill-rule:nonzero;stroke:none"
       transform="matrix(1.3333333,0,0,-1.3333333,1832.892,951.004)" />
    <path
       id="path400"
       d="m 106.02843,394.47214 -1.98835,1.46328 c -0.006,0.10714 1.85004,0.82658 4.22527,1.74701 2.50638,-2.08804 0.92479,-3.66964 0.20493,-4.38952 -1.04604,0.15198 -2.44185,1.17923 -2.44185,1.17923"
       style="fill:#922904;fill-opacity:0.5;fill-rule:nonzero;stroke:none"
       transform="matrix(1.3333333,0,0,-1.3333333,1832.892,951.004)" />
    <path
       id="path401"
       d="m 125.33379,408.0211 -0.98639,1.59603 c 1.14364,0.86775 3.1957,0.0803 4.1427,-0.2831 0.47464,-0.78302 0.10774,-1.37666 -0.761,-2.78233 -1.50533,0.0294 -2.39531,1.4694 -2.39531,1.4694"
       style="fill:#922904;fill-opacity:0.5;fill-rule:nonzero;stroke:none"
       transform="matrix(1.3333333,0,0,-1.3333333,1832.892,951.004)" />
    <path
       id="path402"
       d="m 137.34595,414.02315 -1.23322,1.23321 c 0.45271,1.26758 2.12636,1.26758 3.01057,1.26758 0.72343,-0.72345 0.72343,-1.60764 0.72343,-3.28129 -1.26757,-0.45272 -2.50078,0.7805 -2.50078,0.7805"
       style="fill:#922904;fill-opacity:0.5;fill-rule:nonzero;stroke:none"
       transform="matrix(1.3333333,0,0,-1.3333333,1832.892,951.004)" />
    <path
       id="path403"
       d="m 142.6676,416.73976 -1.63826,1.78443 c -0.0974,0.56512 1.10237,1.32514 4.23702,3.31097 2.08276,-0.89964 2.08276,-4.23946 2.08276,-7.96556 -1.7523,-0.3204 -4.68152,2.87016 -4.68152,2.87016"
       style="fill:#922904;fill-opacity:0.5;fill-rule:nonzero;stroke:none"
       transform="matrix(1.3333333,0,0,-1.3333333,1832.892,951.004)" />
    <path
       id="path404"
       d="m 244.61214,226.90672 -4.46453,2.60034 c 5.15035,5.52919 10.78165,4.18143 17.25467,2.63222 1.17873,-3.3706 -4.10798,-5.21354 -8.23662,-6.65281 -2.10717,-0.005 -4.55352,1.42025 -4.55352,1.42025"
       style="fill:#580e03;fill-opacity:0.5;fill-rule:nonzero;stroke:none"
       transform="matrix(1.3333333,0,0,-1.3333333,1832.892,951.004)" />
    <path
       id="path405"
       d="m 273.014,257.93556 -3.07896,1.23761 c 0.0481,1.04155 3.45229,6.85037 6.19289,11.52687 3.73878,2.15995 6.32561,0.56119 8.27767,-0.64524 -1.4994,-7.71592 -4.25611,-10.65032 -6.86802,-13.43055 -0.83403,-0.1717 -4.52358,1.31131 -4.52358,1.31131"
       style="fill:#580e03;fill-opacity:0.5;fill-rule:nonzero;stroke:none"
       transform="matrix(1.3333333,0,0,-1.3333333,1832.892,951.004)" />
    <path
       id="path406"
       d="m 283.41801,281.39561 1.46415,2.73579 c 3.17416,0.27146 2.66836,-2.38238 2.47175,-3.41396 -1.27865,-1.00305 -2.64485,-1.19742 -4.85809,-1.51233 -0.14073,0.20444 0.92219,2.1905 0.92219,2.1905"
       style="fill:#580e03;fill-opacity:0.5;fill-rule:nonzero;stroke:none"
       transform="matrix(1.3333333,0,0,-1.3333333,1832.892,951.004)" />
    <path
       id="path407"
       d="m 286.67906,291.03935 v 2.19872 c 1.38979,2.17601 2.79408,2.17601 4.41495,2.17601 0.23509,-1.02237 -0.77843,-3.66355 -1.46887,-5.4628 -2.94608,-0.57618 -2.94608,1.08807 -2.94608,1.08807"
       style="fill:#580e03;fill-opacity:0.5;fill-rule:nonzero;stroke:none"
       transform="matrix(1.3333333,0,0,-1.3333333,1832.892,951.004)" />
    <path
       id="path408"
       d="m 289.592,333.51302 -2.55544,2.38154 c -0.33289,0.96126 0.22744,4.34117 1.13937,9.84174 0.42728,1.12268 1.60881,1.12268 2.81742,1.12268 2.42264,-10.79247 1.92349,-13.95288 1.59581,-16.02756 -0.14893,0.0272 -2.99716,2.6816 -2.99716,2.6816"
       style="fill:#580e03;fill-opacity:0.5;fill-rule:nonzero;stroke:none"
       transform="matrix(1.3333333,0,0,-1.3333333,1832.892,951.004)" />
    <path
       id="path409"
       d="m 276.18575,357.0618 -4.71625,4.71101 c -1.41367,2.36016 -3.68543,9.31575 -5.18767,13.91522 -1.98326,4.31467 -2.90501,4.98868 -3.82677,5.66268 -0.41086,1.10692 0.009,1.78581 1.21193,3.73266 2.43823,-0.50524 3.18434,-2.85603 3.86824,-5.01077 4.13906,-0.9198 4.13906,1.08298 4.13906,4.75224 6.36751,-5.84132 9.90049,-12.75166 11.82791,-16.52154 3.17686,-12.1908 3.17686,-15.81714 3.17686,-18.83882 -5.12465,2.23459 -10.49331,7.59732 -10.49331,7.59732"
       style="fill:#580e03;fill-opacity:0.5;fill-rule:nonzero;stroke:none"
       transform="matrix(1.3333333,0,0,-1.3333333,1832.892,951.004)" />
    <path
       id="path410"
       d="m 256.31229,394.73131 -0.39299,0.39299 c -0.32152,1.52164 -0.32152,2.98843 -0.32152,5.58745 0.0546,0.0185 2.14354,-1.87198 3.32248,-2.93892 0.9646,-1.52164 0.9646,-2.31449 0.9646,-3.81313 -2.32733,-0.47362 -3.57257,0.77161 -3.57257,0.77161"
       style="fill:#580e03;fill-opacity:0.5;fill-rule:nonzero;stroke:none"
       transform="matrix(1.3333333,0,0,-1.3333333,1832.892,951.004)" />
    <path
       id="path411"
       d="m 247.0236,404.1986 -1.38442,1.4737 c -0.76138,1.20572 -0.30747,1.20572 1.08596,1.20572 5.65732,-3.62524 5.65732,-4.51816 5.65732,-6.2651 -2.93699,1.00775 -5.35886,3.58568 -5.35886,3.58568"
       style="fill:#580e03;fill-opacity:0.5;fill-rule:nonzero;stroke:none"
       transform="matrix(1.3333333,0,0,-1.3333333,1832.892,951.004)" />
    <path
       id="path412"
       d="m 237.3777,410.71854 v 0.93332 c 0.57274,0.57274 1.27272,0.3394 3.26001,-0.32303 0.32962,-2.30727 -1.56305,-2.30727 -2.49638,-2.30727 -0.76363,0.76364 -0.76363,1.69698 -0.76363,1.69698"
       style="fill:#580e03;fill-opacity:0.5;fill-rule:nonzero;stroke:none"
       transform="matrix(1.3333333,0,0,-1.3333333,1832.892,951.004)" />
    <path
       id="path413"
       d="m 222.03873,416.57884 -2.0584,2.40406 c 1.05972,0.35963 3.95777,-1.75947 5.05724,-2.56342 0.41308,-0.92584 -0.16756,-1.28468 -0.74117,-1.63921 -1.27409,0.64983 -2.25767,1.79857 -2.25767,1.79857"
       style="fill:#580e03;fill-opacity:0.5;fill-rule:nonzero;stroke:none"
       transform="matrix(1.3333333,0,0,-1.3333333,1832.892,951.004)" />
    <path
       id="path414"
       d="m 204.15286,421.38054 v 0.86571 c 0.72345,0.70831 1.60765,0.70831 2.49187,0.70831 0.72345,-0.4307 0.72345,-0.95711 0.72345,-1.48351 -0.72345,-0.70829 -1.60767,-1.0476 -2.58695,-1.4234 -0.62837,0.37409 -0.62837,1.33289 -0.62837,1.33289"
       style="fill:#580e03;fill-opacity:0.5;fill-rule:nonzero;stroke:none"
       transform="matrix(1.3333333,0,0,-1.3333333,1832.892,951.004)" />
  </g>
</svg>
