<?xml version="1.0" encoding="UTF-8" standalone="no"?>
<!-- Created with Inkscape (http://www.inkscape.org/) -->

<svg
   version="1.1"
   id="svg1"
   width="325.57468"
   height="173.42711"
   viewBox="0 0 325.57468 173.42711"
   xmlns="http://www.w3.org/2000/svg"
   xmlns:svg="http://www.w3.org/2000/svg">
  <defs id="defs1" />
  <g
     id="g438"
     style="opacity: $OPACITY"
     transform="translate(-3589.2122,-441.28474)">
    <path
       id="path439"
       d="m 119.69406,73.72542 -1.93217,1.93218 c -7.91301,1.18829 -7.91301,-0.45373 -7.91301,-1.05727 -0.67755,-0.49381 -1.50565,-0.49381 -2.33376,-0.49381 -0.67753,0.4343 -0.67753,0.96509 -0.67753,2.70145 -8.09948,1.60428 -10.75569,0.39403 -14.22295,-1.18576 -0.5398,0.18844 -1.30734,3.24659 -2.30437,7.21902 -1.40085,1.30297 -4.67473,1.30297 -6.42507,1.30297 -1.13805,0.53193 -1.13805,1.35008 -1.13805,3.11235 -2.97708,2.60527 -5.52072,3.06897 -6.94609,3.32881 -0.72771,1.12159 -1.08406,3.60789 -1.55855,6.91867 -0.27379,0.21841 -4.54433,0.69292 -2.85187,5.40594 0.06638,2.57746 -3.25517,5.19017 -5.47041,6.93271 -0.25757,0.77545 0.33314,3.92418 0.94973,7.21092 -0.26152,0.63607 -3.25779,3.13749 -6.42221,5.77924 -0.0989,0.28482 1.12335,3.2356 1.82982,4.94116 1.18893,1.6299 1.93558,1.91643 4.11299,2.75197 1.74926,7.11433 0.39808,9.63904 -0.54726,11.40541 0.14603,0.5246 1.83457,1.42827 4.50303,2.85639 -0.04628,4.33314 -2.76085,7.22267 -5.51967,10.15931 1.04683,1.46839 5.8992,1.46839 11.36781,1.46839 1.66164,2.99521 -1.46264,7.221 5.22878,8.85397 0.26153,0.0988 0.89499,2.62273 1.34627,4.42079 -0.3096,1.43918 -1.40906,2.65405 -3.14347,4.57057 -0.42799,2.23001 0.93859,2.23001 1.39445,2.23001 1.4338,-1.12924 2.73042,-2.50943 4.02703,-3.8896 1.74788,-1.12923 2.58757,-1.12923 4.92147,-1.12923 4.82336,5.11712 4.82336,7.59314 4.82336,10.1117 2.41606,2.41988 3.9711,1.4588 4.54736,1.10265 0.47148,-1.15952 0.47148,-2.22057 0.47148,-5.11843 4.46506,-0.72186 8.88889,1.46079 10.90091,2.4535 3.22711,0.9552 5.15938,1.12994 7.09163,1.30471 2.4579,0.26502 3.52974,0.4142 4.67078,0.573 1.2482,-0.73848 1.87028,-1.94041 2.74605,-3.63251 0.77301,-0.24008 3.52328,0.32582 5.95448,0.82608 1.05296,-0.19839 1.44935,-1.2314 1.79651,-2.13605 1.42456,-0.43034 3.58948,-0.28454 5.45541,-0.15887 2.07057,-0.44107 2.73533,-1.10583 3.40009,-1.77058 1.53448,-0.5439 2.74516,-0.5439 3.95587,-0.5439 1.25057,-0.67755 1.56834,-1.50565 1.88612,-2.33376 0.77358,-0.67754 1.40129,-0.67754 2.02904,-0.67754 1.85559,-1.12924 3.49585,-2.50941 5.13611,-3.8896 1.97572,-1.12924 2.75026,-1.12924 3.5248,-1.12924 1.53869,-1.77394 2.6448,-3.94208 3.75091,-6.11023 1.78804,-2.0542 2.86732,-2.39676 4.04695,-2.77116 0.90752,-1.33028 1.09567,-2.96083 1.28702,-4.61905 0.9994,-1.43929 2.38012,-2.04505 3.62228,-2.59 1.0163,-1.22685 1.0163,-2.18135 1.0163,-4.53387 3.20804,-6.78469 4.80061,-7.8003 6.14944,-8.6605 -0.24171,-3.02706 -2.3831,-12.09117 -3.37675,-16.29708 0.0911,-0.77222 1.80429,-2.66527 3.71156,-4.77279 -0.002,-0.0453 -2.07957,-1.7276 -4.74299,-3.8843 -1.74126,-3.23047 -1.74126,-6.01506 -1.74126,-7.3384 -0.78186,-1.04863 -2.00752,-1.36914 -3.11165,-1.65788 -0.90341,-0.82713 -0.90341,-1.54935 -0.90341,-3.82361 -8.27306,-7.03589 -14.91626,-10.41136 -18.4276,-12.19552 -3.09727,-2.04442 -3.37147,-2.75904 -3.6457,-3.47364 -0.85358,-0.5847 -1.62264,-0.5847 -2.39165,-0.5847 -1.64501,-1.01573 -2.88648,-2.25721 -4.77042,-4.14116 -1.24498,-0.31666 -5.64432,-0.03085 -10.59866,0.29103 -0.31716,-0.12068 -0.32451,-2.33065 -0.32973,-3.89894 -0.90227,-1.20074 -2.70431,-2.03766 -6.12921,-3.62822 -0.1266,0.0085 -2.08037,1.9623 -2.08037,1.9623"
       style="fill:#fbd9c5;fill-opacity:0.5;fill-rule:nonzero;stroke:none"
       transform="matrix(1.3333333,0,0,-1.3333333,3508.6227,710.396)" />
    <path
       id="path440"
       d="m 270.28374,150.37013 -4.44428,1.34203 c -5.33479,4.88815 -8.671,10.67515 -11.28248,15.20503 -0.54197,2.01352 -0.54197,7.18571 -0.54197,10.8333 0.54255,3.25177 1.30428,4.16958 2.02163,5.03393 0.29383,1.47095 -0.0644,2.40444 -0.94114,4.68926 8.45649,8.58836 14.01774,11.06103 16.31798,12.08378 5.2589,1.15325 9.3862,1.54 17.24036,2.27599 0.0239,-0.008 5.23584,-5.21622 5.87073,-5.85065 1.53576,-1.4817 2.77793,-2.65828 4.02008,-3.83485 1.01631,-1.9474 1.01631,-3.15099 1.01631,-4.35455 1.18371,-2.72905 2.63046,-4.86095 5.0555,-8.43445 0.10559,-0.57874 -1.07286,-3.83773 -1.77593,-5.78202 -0.50317,-3.49574 -0.41511,-5.82405 -0.29161,-9.0888 -0.40866,-1.20686 -1.90956,-2.01012 -2.97997,-2.58299 -1.16267,-1.37258 -1.5133,-2.47731 -1.86392,-3.58204 -0.84538,-0.90386 -1.52798,-0.90386 -2.2106,-0.90386 -2.01337,-1.50107 -3.79156,-3.3357 -6.31714,-5.94143 -1.335,-0.63786 -3.57509,-0.30909 -5.15224,-0.0776 -1.5964,-0.30571 -1.97039,-0.91086 -2.74574,-2.16539 -7.00102,-0.0709 -10.99557,1.13533 -10.99557,1.13533"
       style="fill:#fbd9c5;fill-opacity:0.5;fill-rule:nonzero;stroke:none"
       transform="matrix(1.3333333,0,0,-1.3333333,3508.6227,710.396)" />
    <path
       id="path441"
       d="m 294.09933,181.0397 -2.23246,1.68856 c -1.33982,0.20245 -1.33982,-1.14879 -1.33982,-1.66248 1.01633,-0.61603 2.25849,-0.85527 3.50066,-1.09453 1.24214,-0.24289 1.51819,-0.30052 1.79422,-0.35814 -0.65094,0.61603 -1.7226,1.42659 -1.7226,1.42659"
       style="fill:#fbd9c5;fill-opacity:0.5;fill-rule:nonzero;stroke:none"
       transform="matrix(1.3333333,0,0,-1.3333333,3508.6227,710.396)" />
    <path
       id="path442"
       d="m 107.79967,81.21074 -0.63918,1.19435 c -1.08732,0.6568 -1.90556,0.34281 -2.69131,0.04128 -0.64292,0.19082 -0.64292,0.72557 -0.64292,1.6945 2.7842,0.48091 6.44371,0.14406 9.14423,-0.10452 1.87909,-1.78273 1.22829,-3.47873 0.39323,-5.65485 -4.28387,0.43724 -5.56405,2.82924 -5.56405,2.82924"
       style="fill:#f8ccaf;fill-opacity:0.5;fill-rule:nonzero;stroke:none"
       transform="matrix(1.3333333,0,0,-1.3333333,3508.6227,710.396)" />
    <path
       id="path443"
       d="m 95.29425,82.13666 0.34119,0.55208 c 0.70421,0.45167 1.22371,0.45167 1.74319,0.45167 0.42504,-0.45167 0.42504,-1.00375 0.42504,-1.55583 -0.7042,-0.45169 -1.5649,-0.45169 -2.42559,-0.45169 -0.42505,0.45169 -0.08383,1.00377 -0.08383,1.00377"
       style="fill:#f8ccaf;fill-opacity:0.5;fill-rule:nonzero;stroke:none"
       transform="matrix(1.3333333,0,0,-1.3333333,3508.6227,710.396)" />
    <path
       id="path444"
       d="m 129.92424,82.71957 v 1.1957 c 3.41803,2.17097 5.35341,2.20454 6.3909,2.22253 0.61813,-0.5334 0.37952,-1.24078 0.14673,-1.93088 -1.05396,-0.5646 -2.10933,-0.5646 -3.16472,-0.5646 -1.42812,-0.36543 -2.11821,-0.81209 -2.8083,-1.25872 -0.56461,-0.04978 -0.56461,0.33597 -0.56461,0.33597"
       style="fill:#f8ccaf;fill-opacity:0.5;fill-rule:nonzero;stroke:none"
       transform="matrix(1.3333333,0,0,-1.3333333,3508.6227,710.396)" />
    <path
       id="path445"
       d="m 99.03746,89.35123 0.62041,1.8612 c 2.16087,0.30872 2.16087,-1.46386 2.16087,-2.33798 -0.71519,-0.71519 -1.58931,-0.71519 -2.46342,-0.71519 -0.53638,0.5364 -0.31786,1.19197 -0.31786,1.19197"
       style="fill:#f8ccaf;fill-opacity:0.5;fill-rule:nonzero;stroke:none"
       transform="matrix(1.3333333,0,0,-1.3333333,3508.6227,710.396)" />
    <path
       id="path446"
       d="m 90.4427,89.83221 -1.78135,1.78133 c 1.24687,3.38432 4.12347,4.57586 7.29809,5.89084 0.58263,1.11684 -1.29925,2.27989 -1.92402,2.66603 -0.92583,-0.42503 -1.43264,-1.33066 -2.71152,-3.61589 -3.29054,0.22249 -4.0598,2.64618 -4.4612,3.9109 -1.11734,0.74282 -2.6183,0.74282 -3.9287,0.74282 -1.36764,0.47815 -1.72883,1.06254 -2.08999,1.64694 -1.49468,0.2345 -2.96031,-0.0633 -5.25424,-0.52938 -0.7493,0.52498 -3.08994,4.23829 -4.58541,6.61078 -1.51023,3.7338 -1.86062,5.92487 -2.33795,8.9099 -0.89108,1.41849 -3.07715,2.67311 -6.43426,4.59982 -0.42388,2.93204 2.27279,5.57363 4.70622,7.95731 1.99847,5.18275 1.61439,8.11368 1.44427,9.41188 0.58669,2.0985 1.47388,3.36514 2.70835,5.12759 0.17633,1.41108 -0.48317,4.24985 -1.68097,9.40566 0.01536,0.0592 2.55284,0.0592 3.9828,0.0592 2.79889,2.03485 6.16368,5.52072 11.84413,11.40557 3.30512,1.06145 6.61678,-1.93556 8.21323,-3.38032 0.42841,0.16179 3.71892,3.4523 7.93568,7.66907 2.13431,0.29797 3.44417,-3.14723 4.56083,-6.08423 0.65869,-0.12524 3.71818,2.01772 5.5408,3.29433 1.06314,0.0989 3.56936,-0.77474 7.88598,-2.27951 3.05243,0.14406 4.52817,1.92218 5.21543,2.75029 1.84082,0.67753 3.40347,0.67753 4.96612,0.67753 2.43093,0.52509 3.83942,1.16684 6.87388,2.54943 0.54118,-0.40114 1.41668,-4.6819 2.14599,-8.24776 2.39078,-1.6366 2.39078,1.43001 2.39078,4.17235 4.60771,2.32693 6.84079,0.71232 7.77096,0.0398 1.96701,-1.02703 3.44095,-1.6097 4.91489,-2.19237 1.45384,-1.12273 1.75681,-1.91223 2.05977,-2.70178 0.74415,-0.64598 1.35068,-0.64598 3.00336,-0.64598 7.30632,-6.33484 7.32713,-7.78583 7.33706,-8.47957 1.13739,-1.54947 2.51758,-2.74953 3.89777,-3.94959 1.12922,-1.35431 1.12922,-1.80952 1.12922,-2.26474 1.12925,-2.71325 2.50943,-5.57425 5.25419,-11.26384 0.3443,-3.97569 -1.33144,-10.63063 -2.14037,-13.84314 0.0147,-1.70466 0.8652,-3.29374 1.83725,-5.11004 -0.22115,-0.81408 -2.38537,-3.3861 -3.79649,-5.06313 -1.15458,-2.30199 -1.15458,-3.43848 -1.15458,-4.57498 -1.06436,-1.91629 -2.36524,-3.1219 -3.66616,-4.32753 -1.24649,-1.40691 -1.46909,-1.92079 -1.69168,-2.43469 -1.58095,-1.68499 -3.29064,-3.23053 -6.0839,-5.75565 -1.23561,-0.33784 -9.39117,-0.80647 -15.43896,-1.15398 -3.25579,0.19434 -3.7104,0.92992 -4.59937,2.36831 -6.07046,-1.11196 -10.6633,-3.55448 -15.72549,-6.24663 -1.73985,0.32373 -3.38624,4.2641 -5.59778,9.55699 -5.96617,2.36589 -6.60008,-1.79868 -6.95447,-4.12701 -5.80501,-2.52364 -11.00779,-2.6112 -12.66403,-2.63908 -2.48431,-0.66834 -3.8645,-1.45731 -6.75458,-3.10944 -0.54007,-0.10386 -1.45958,0.81565 -1.45958,0.81565"
       style="fill:#f8ccaf;fill-opacity:0.5;fill-rule:nonzero;stroke:none"
       transform="matrix(1.3333333,0,0,-1.3333333,3508.6227,710.396)" />
    <path
       id="path447"
       d="m 112.93942,90.75232 0.0482,1.16936 c 0.23783,0.23784 0.55827,-0.5629 0.84823,-1.28751 -0.0357,-0.86574 -0.36922,-1.19928 -0.70274,-1.53282 -0.23725,0.59285 -0.19367,1.65097 -0.19367,1.65097"
       style="fill:#f8ccaf;fill-opacity:0.5;fill-rule:nonzero;stroke:none"
       transform="matrix(1.3333333,0,0,-1.3333333,3508.6227,710.396)" />
    <path
       id="path448"
       d="m 270.4517,151.08757 -4.08932,1.45639 c -4.44668,3.90088 -7.65407,8.84561 -10.65903,13.47824 -0.56556,1.77779 -0.66729,6.91069 -0.77522,12.35642 0.37583,1.20338 3.77623,6.3 5.85993,9.42309 2.36634,3.10425 3.17483,3.77522 3.98332,4.44621 0.66148,1.13094 0.66148,1.8422 0.66148,2.55346 1.99974,1.55 4.44386,2.73317 8.23049,4.56623 0.96519,0.12584 2.73947,-0.98221 4.47532,-2.06626 1.1091,0.0579 4.93135,1.43243 8.80046,2.82374 0.80014,0.0379 1.25553,-1.14885 1.55234,-1.92233 1.08202,-0.63283 2.10767,-0.63283 4.53995,-0.63283 1.59892,-3.11116 1.82838,-8.29036 1.99618,-12.07776 -0.25193,-0.46319 -2.99489,-1.41064 -8.66697,-3.36984 0.37381,-2.21223 6.76762,-4.52425 10.27308,-5.79186 0.3311,0.0568 1.95032,2.20343 4.02843,4.95846 3.6554,-0.66474 2.30385,-3.55185 1.85374,-4.51334 -0.45785,-3.36762 -0.56738,-6.52214 -0.76464,-12.20427 -0.0644,-0.11317 -6.72698,-6.48724 -12.75764,-12.25676 -1.22729,-0.72842 -5.85406,-1.28433 -11.85621,-2.00549 -4.5576,0.0206 -6.68569,0.7785 -6.68569,0.7785"
       style="fill:#f8ccaf;fill-opacity:0.5;fill-rule:nonzero;stroke:none"
       transform="matrix(1.3333333,0,0,-1.3333333,3508.6227,710.396)" />
    <path
       id="path449"
       d="m 287.01387,188.53603 -0.3412,0.55207 c -0.9567,0.4517 -1.78481,0.4517 -2.61292,0.4517 -0.39839,-0.4517 -0.0572,-1.00377 0.28402,-1.55584 0.95671,-0.45169 1.7848,-0.45169 2.61291,-0.45169 0.39839,0.45169 0.0572,1.00376 0.0572,1.00376"
       style="fill:#f8ccaf;fill-opacity:0.5;fill-rule:nonzero;stroke:none"
       transform="matrix(1.3333333,0,0,-1.3333333,3508.6227,710.396)" />
    <path
       id="path450"
       d="m 274.96866,194.55864 0.3412,0.55208 c -0.42503,0.45169 -1.28572,0.45169 -2.14641,0.45169 -0.70421,-0.45169 -0.70421,-1.00377 -0.70421,-1.55585 0.42504,-0.45169 0.94454,-0.45169 1.46401,-0.45169 0.70421,0.45169 1.04541,1.00377 1.04541,1.00377"
       style="fill:#f8ccaf;fill-opacity:0.5;fill-rule:nonzero;stroke:none"
       transform="matrix(1.3333333,0,0,-1.3333333,3508.6227,710.396)" />
  </g>
</svg>
