<?xml version="1.0" encoding="UTF-8" standalone="no"?>
<!-- Created with Inkscape (http://www.inkscape.org/) -->

<svg
   version="1.1"
   id="svg1"
   width="355.98495"
   height="277.43988"
   viewBox="0 0 355.98495 277.43988"
   xmlns="http://www.w3.org/2000/svg"
   xmlns:svg="http://www.w3.org/2000/svg">
  <defs
     id="defs1" />
  <g
     id="g414"
     style="opacity: $OPACITY"
     transform="translate(-2738.4122,-392.27377)">
    <path
       id="path415"
       d="m 59.7606,267.7203 -5.47747,3.32009 c -3.76525,5.93553 -6.0647,14.87501 -7.12889,19.01224 -0.74202,3.51367 -0.58475,3.67093 0.12442,4.38009 13.32165,-13.98051 16.07759,-18.32615 19.52235,-23.75801 0.19583,-1.01448 -1.70474,-3.58231 -2.93981,-5.25094 -0.38693,0.0455 -4.1006,2.29653 -4.1006,2.29653"
       style="fill:#dcc6b4;fill-opacity:0.5;fill-rule:nonzero;stroke:none"
       transform="matrix(1.3333333,0,0,-1.3333333,2700.804,1023.612)" />
    <path
       id="path416"
       d="m 30.96957,332.8579 -2.32629,2.32627 c -1.20235,16.167 0.38463,23.78127 1.06422,27.04192 0.7221,4.58533 0.92505,6.92899 1.83544,17.44139 2.29465,14.65006 4.1788,21.97922 8.01933,36.91856 15.73885,25.66715 27.58498,36.3099 40.44518,47.86368 26.96119,13.55438 26.87841,8.42428 26.84599,6.4146 -3.66162,-7.47594 -5.99898,-10.30462 -7.06319,-11.59258 -3.02797,-2.01558 -5.66458,-3.19114 -12.16581,-6.08976 -1.04344,-1.00559 -5.21329,-8.39066 -7.19826,-11.90615 -4.36113,-5.75261 -7.70644,-9.26809 -11.05178,-12.78358 -3.8628,-5.0547 -5.23872,-7.71718 -6.61462,-10.37965 -2.96265,-5.75261 -5.20773,-10.12111 -7.45282,-14.48963 -3.24061,-5.88324 -4.95626,-8.70537 -8.27339,-14.16183 -1.64079,-5.19475 -2.85034,-14.0698 -3.26129,-17.08494 -0.95693,-3.21482 -1.71561,-4.12898 -2.49581,-5.06904 -0.2313,-1.31725 0.2477,-2.09229 1.60939,-4.29556 -0.87359,-27.75196 -2.3493,-29.17072 -4.64196,-31.37488 -5.48917,-0.564 -7.27433,1.22118 -7.27433,1.22118"
       style="fill:#dcc6b4;fill-opacity:0.5;fill-rule:nonzero;stroke:none"
       transform="matrix(1.3333333,0,0,-1.3333333,2700.804,1023.612)" />
    <path
       id="path417"
       d="m 292.86159,406.44055 -0.40573,1.75774 c -0.76792,2.51678 -1.30072,3.83508 -2.61686,7.09154 1.76847,-0.22036 3.97487,-3.58774 5.32688,-5.65116 0.19165,-1.36282 -0.56551,-3.5294 -2.30429,-3.19812"
       style="fill:#dcc6b4;fill-opacity:0.5;fill-rule:nonzero;stroke:none"
       transform="matrix(1.3333333,0,0,-1.3333333,2700.804,1023.612)" />
    <path
       id="path418"
       d="m 56.07872,271.89804 -1.28012,1.60198 c -3.2849,6.32099 -3.2849,7.18232 -3.2849,7.50438 1.38126,0.2635 3.06945,0.2635 5.31417,0.2635 1.57433,-0.98277 3.61443,-3.65749 6.73912,-7.75414 0.3954,-1.83356 -1.84581,-1.83356 -2.67676,-1.83356 -1.36136,-0.2615 -2.19428,-0.58114 -3.02721,-0.90077 -1.17775,0.35955 -1.7843,1.11861 -1.7843,1.11861"
       style="fill:#ceaf98;fill-opacity:0.5;fill-rule:nonzero;stroke:none"
       transform="matrix(1.3333333,0,0,-1.3333333,2700.804,1023.612)" />
    <path
       id="path419"
       d="m 30.16072,337.86792 -1.55972,5.7486 c 0.75117,17.89759 2.64808,20.18324 3.38548,21.07171 0.33164,1.76578 -3.8e-4,3.03547 -0.33241,4.30515 0.27536,2.03992 0.94393,3.26349 2.14648,5.46429 0.25807,1.98027 1.10048,15.47073 1.9112,28.45404 2.08317,5.84256 12.46643,24.25429 17.72845,33.58501 5.74988,7.64105 12.12622,13.7766 17.68723,19.12762 13.54997,8.504 18.09686,9.49674 19.91374,9.89342 2.6298,1.22086 4.02713,2.31632 8.68518,5.96814 3.16555,-1.87411 0.69639,-6.82179 -1.50662,-11.23614 -2.11827,-2.14219 -4.28034,-2.14219 -5.373,-2.14219 C 90.12532,456.95396 87.8918,455.544 84.66315,453.50586 83.33821,451.6293 81.4271,446.38791 79.157,440.16194 74.28961,433.46841 68.7511,428.95613 67.39224,427.84906 64.90399,424.2477 63.22162,420.95311 55.10133,405.051 c -2.821,-5.33642 -5.18295,-9.26345 -10.08944,-17.42109 -2.33794,-6.45387 -2.46019,-12.17821 -2.51136,-14.57421 -0.68441,-2.73792 -1.46971,-3.68824 -2.54031,-4.9838 -0.09369,-1.30888 0.69615,-3.93578 1.9904,-8.24023 -0.44766,-22.95207 -1.8533,-24.35773 -2.41345,-24.91788 -2.18074,-0.73779 -4.28592,-1.07942 -8.05601,-1.69124 -0.07653,0.0607 -1.32044,4.64537 -1.32044,4.64537"
       style="fill:#ceaf98;fill-opacity:0.5;fill-rule:nonzero;stroke:none"
       transform="matrix(1.3333333,0,0,-1.3333333,2700.804,1023.612)" />
    <path
       id="path420"
       d="m 31.75545,336.3332 -2.66382,2.66382 c 0.8551,22.13295 3.74522,25.32651 6.15044,27.98426 1.58461,0.0781 3.76084,-2.35372 5.09393,-3.84336 0.32014,-3.01533 0.26012,-13.5155 0.18655,-26.38383 -0.05472,-0.29274 -2.5643,-1.24687 -6.06576,-2.57814 -0.62767,0.0836 -2.70134,2.15725 -2.70134,2.15725"
       style="fill:#c3946d;fill-opacity:0.5;fill-rule:nonzero;stroke:none"
       transform="matrix(1.3333333,0,0,-1.3333333,2700.804,1023.612)" />
    <path
       id="path421"
       d="m 36.27408,371.96635 1.42718,1.42719 c 1.52648,0.59238 2.65807,0.15814 5.29779,-0.85481 -2.65205,-2.851 -6.23407,-2.851 -6.72497,-0.57238"
       style="fill:#c3946d;fill-opacity:0.5;fill-rule:nonzero;stroke:none"
       transform="matrix(1.3333333,0,0,-1.3333333,2700.804,1023.612)" />
    <path
       id="path422"
       d="m 36.31181,376.21935 -2.41198,1.34982 c 0.07806,2.97792 2.63571,7.18363 4.53431,10.30563 0.0367,0.53021 -1.44722,3.39977 -2.78309,5.98306 -0.0699,1.4894 0.93168,6.0288 2.32924,12.36274 3.46414,8.39227 6.58454,13.00355 7.77398,14.76129 2.64933,4.7166 4.69793,8.7236 7.1214,13.46377 4.46477,5.85163 10.35633,12.00927 28.07826,16.94486 -0.66964,-1.99179 -0.67653,-2.87064 -0.71913,-8.31539 -2.71554,-4.87649 -9.51242,-11.71394 -13.49762,-15.72293 -3.58091,-4.55624 -3.97239,-6.11598 -4.36386,-7.67573 -1.41519,-2.76865 -2.75337,-4.59279 -4.09155,-6.41695 -2.18442,-4.12909 -3.51607,-7.35161 -4.84773,-10.57416 -1.75585,-3.39343 -2.57024,-4.31843 -3.38462,-5.24345 -0.66632,-1.23474 -0.66632,-1.81886 -0.66632,-2.40298 -1.19845,-1.60381 -2.66325,-2.97991 -4.16275,-4.38862 -1.16574,-2.29228 -1.1683,-3.83717 -1.17082,-5.34629 -1.32793,-3.23304 -2.94843,-5.67539 -5.34823,-9.29224 -0.88843,-0.63245 -2.38949,0.20757 -2.38949,0.20757"
       style="fill:#c3946d;fill-opacity:0.5;fill-rule:nonzero;stroke:none"
       transform="matrix(1.3333333,0,0,-1.3333333,2700.804,1023.612)" />
    <path
       id="path423"
       d="m 85.25742,457.74323 -0.81974,0.81973 c 2.03986,2.74051 3.46978,2.74051 4.00766,2.74051 1.86214,1.05134 3.60018,2.33635 5.94251,4.06808 1.12814,0.29421 2.01719,-0.59485 3.66566,-2.24332 -1.30052,-2.89006 -3.69079,-2.89006 -4.76903,-2.89006 -1.81274,-0.70384 -2.95007,-1.56407 -5.20524,-3.2698 -1.72981,-0.31717 -2.82182,0.77486 -2.82182,0.77486"
       style="fill:#c3946d;fill-opacity:0.5;fill-rule:nonzero;stroke:none"
       transform="matrix(1.3333333,0,0,-1.3333333,2700.804,1023.612)" />
    <path
       id="path424"
       d="m 33.01707,336.95753 -2.73643,2.00092 c -0.04569,21.42471 2.68006,24.43663 5.03047,27.03383 1.54108,-0.0327 3.98354,-2.73157 5.71561,-4.64549 0.1026,-1.00986 -0.84982,-6.76886 -1.56383,-11.08608 -0.0095,-3.74809 0.6859,-6.78688 2.23444,-13.55409 -3.70609,-3.38629 -8.68026,0.25091 -8.68026,0.25091"
       style="fill:#b78d68;fill-opacity:0.5;fill-rule:nonzero;stroke:none"
       transform="matrix(1.3333333,0,0,-1.3333333,2700.804,1023.612)" />
    <path
       id="path425"
       d="m 35.53421,380.25186 v 1.12297 c 1.27037,1.84418 2.82303,2.97522 1.17693,12.9834 -0.12915,1.05477 0.82518,6.78302 1.40838,10.28355 1.82547,5.3409 3.47344,8.36812 5.1214,11.39538 3.62369,6.71138 6.40466,11.88694 11.7124,21.76499 11.64583,13.911 16.86872,16.61185 19.26419,17.85059 1.19173,0.0694 3.33066,-0.90514 5.75727,-2.01077 0.21206,-0.56845 -0.3398,-4.48786 -1.48061,-12.58997 -1.42535,-2.62973 -8.88733,-10.39937 -13.73883,-15.45088 -2.58865,-3.55638 -2.58865,-5.17004 -2.58865,-6.53112 -0.91843,-1.94476 -2.04096,-2.96064 -3.16349,-3.97651 -1.99447,-3.54982 -3.30963,-6.87265 -4.62478,-10.19546 -1.79547,-3.5609 -2.67478,-4.59029 -3.55408,-5.61968 -1.25249,-1.91753 -1.90401,-3.23181 -2.5945,-4.62472 -1.67483,-1.1343 -3.32509,-1.32663 -5.99742,-1.6381 -0.13365,-0.28581 0.28826,-4.78666 0.60781,-8.1956 -0.2948,-1.52128 -1.35372,-1.92763 -2.16835,-2.24023 -0.90858,-1.18137 -1.20441,-2.31266 -1.90496,-4.99153 -3.23271,-0.0125 -3.23271,2.66369 -3.23271,2.66369"
       style="fill:#b78d68;fill-opacity:0.5;fill-rule:nonzero;stroke:none"
       transform="matrix(1.3333333,0,0,-1.3333333,2700.804,1023.612)" />
    <path
       id="path426"
       d="m 86.66856,459.17287 v 0.5859 c 0.50769,0.4794 1.12819,0.4794 1.74868,0.4794 0.21139,-0.4794 -0.15071,-1.0653 -0.51282,-1.65123 -0.50769,-0.47937 -0.76607,-0.47937 -1.02445,-0.47937 -0.21141,0.47937 -0.21141,1.0653 -0.21141,1.0653"
       style="fill:#b78d68;fill-opacity:0.5;fill-rule:nonzero;stroke:none"
       transform="matrix(1.3333333,0,0,-1.3333333,2700.804,1023.612)" />
    <path
       id="path427"
       d="m 91.49545,461.25002 -0.72152,1.16745 c 3.80284,2.341 4.80038,1.34346 5.55911,0.58471 -2.02548,-2.76401 -3.34024,-2.76401 -3.81983,-2.76401 -0.67381,0.45531 -1.01776,1.01185 -1.01776,1.01185"
       style="fill:#b78d68;fill-opacity:0.5;fill-rule:nonzero;stroke:none"
       transform="matrix(1.3333333,0,0,-1.3333333,2700.804,1023.612)" />
    <path
       id="path428"
       d="m 33.66994,336.69666 -2.16714,0.87107 c -0.22979,0.81057 -0.22979,7.58379 -0.22979,11.70407 0.43179,3.37114 0.95952,3.37114 1.48726,3.37114 0.23602,2.09549 -0.0032,4.65665 -0.4911,9.87906 1.77645,2.45526 5.24612,1.35404 8.20051,0.41635 0.4263,-1.8842 -0.714,-8.96484 -1.35832,-12.96568 0.0184,-3.53116 0.69589,-5.89343 2.05707,-10.63952 -0.008,-0.0872 -1.98177,-2.06095 -3.86921,-3.9484 -0.29016,-0.0303 -3.62928,1.31191 -3.62928,1.31191"
       style="fill:#ab724f;fill-opacity:0.5;fill-rule:nonzero;stroke:none"
       transform="matrix(1.3333333,0,0,-1.3333333,2700.804,1023.612)" />
    <path
       id="path429"
       d="m 37.17165,394.12573 -1.71883,2.78112 c 5.0847,15.80067 9.30598,20.79582 10.08423,21.71676 2.36073,4.29587 4.46779,8.6254 8.60417,17.12474 7.48785,9.6454 14.4933,15.49829 19.32618,19.53606 1.21261,0.30607 4.0774,-1.78871 5.63085,-2.92462 0.15407,-0.70778 -0.77452,-2.44286 -1.41115,-3.63242 -0.24386,-2.68022 0.09468,-4.76649 0.67699,-8.35481 -0.40515,-0.65192 -8.08206,-8.47969 -12.63985,-13.12703 -3.55755,-4.54648 -3.55755,-5.72386 -3.55755,-6.87689 -1.18685,-2.49944 -2.63744,-4.40125 -4.08803,-6.30307 -2.19321,-4.12001 -3.4232,-7.25379 -4.6532,-10.38753 -1.92916,-3.55365 -3.05701,-4.76323 -4.18486,-5.97284 -0.92279,-1.558 -0.92279,-2.25262 -0.92279,-2.94725 -0.35954,-0.59242 -0.79898,-0.6219 -1.23842,-0.65137 -2.39316,-0.19999 -4.87869,-0.41499 -7.36421,-0.63 -2.26309,0.19537 -2.54353,0.64915 -2.54353,0.64915"
       style="fill:#ab724f;fill-opacity:0.5;fill-rule:nonzero;stroke:none"
       transform="matrix(1.3333333,0,0,-1.3333333,2700.804,1023.612)" />
    <path
       id="path430"
       d="m 33.1324,338.50517 -1.95392,2.15906 c 0.49536,1.18442 4.23218,3.28818 7.28363,5.0061 1.52234,-1.50943 1.07662,-5.81099 0.73206,-9.13612 -3.5911,-0.75911 -6.06177,1.97096 -6.06177,1.97096"
       style="fill:#9f5a22;fill-opacity:0.5;fill-rule:nonzero;stroke:none"
       transform="matrix(1.3333333,0,0,-1.3333333,2700.804,1023.612)" />
    <path
       id="path431"
       d="m 32.77505,348.78023 -0.30895,0.80508 c 1.21351,2.26406 3.00563,4.22619 6.264,-0.75093 -4.38542,-4.14459 -5.95505,-0.0541 -5.95505,-0.0541"
       style="fill:#9f5a22;fill-opacity:0.5;fill-rule:nonzero;stroke:none"
       transform="matrix(1.3333333,0,0,-1.3333333,2700.804,1023.612)" />
    <path
       id="path432"
       d="m 38.24808,395.173 -0.93665,1.51552 c 2.30689,10.72325 4.45907,14.85808 5.61583,17.08049 2.18607,3.44354 3.70114,5.42993 5.21624,7.41629 1.2396,2.15569 1.2396,2.80403 1.2396,4.99253 4.53089,7.92385 9.1535,13.81965 15.71553,22.18899 7.1939,5.79044 9.94497,4.91728 11.49219,4.42621 0.41966,-0.72417 -0.11954,-1.97247 -1.01318,-4.0414 0.03007,-1.80279 1.0253,-5.82017 1.66911,-8.41902 -0.82417,-1.25627 -8.03227,-8.66327 -12.92095,-13.68686 -3.2244,-4.20312 -3.2244,-5.55208 -3.2244,-6.78337 -1.12037,-2.3625 -2.48969,-4.01874 -3.85903,-5.67496 -1.9695,-3.752 -3.00737,-6.68158 -5.65112,-14.1441 -3.96735,-4.33572 -8.84675,-5.09491 -11.03319,-5.43509 -2.02339,0.10107 -2.30998,0.56477 -2.30998,0.56477"
       style="fill:#9f5a22;fill-opacity:0.5;fill-rule:nonzero;stroke:none"
       transform="matrix(1.3333333,0,0,-1.3333333,2700.804,1023.612)" />
    <path
       id="path433"
       d="m 34.5769,339.19658 -0.96235,1.15956 c 0.24251,0.4386 2.117,0.92879 4.9591,1.67201 0.63169,-0.45912 -0.21115,-2.6555 -0.99246,-4.69154 -1.40635,-0.0654 -3.00429,1.85997 -3.00429,1.85997"
       style="fill:#8a2e09;fill-opacity:0.5;fill-rule:nonzero;stroke:none"
       transform="matrix(1.3333333,0,0,-1.3333333,2700.804,1023.612)" />
    <path
       id="path434"
       d="m 40.8607,397.38551 v 0.58593 c 0.4794,0.47936 1.06531,0.47936 1.65123,0.47936 0.47937,-0.47936 0.47937,-1.06529 0.47937,-1.65121 -0.47937,-0.47939 -1.06529,-0.47939 -1.6512,-0.47939 -0.4794,0.47939 -0.4794,1.06531 -0.4794,1.06531"
       style="fill:#8a2e09;fill-opacity:0.5;fill-rule:nonzero;stroke:none"
       transform="matrix(1.3333333,0,0,-1.3333333,2700.804,1023.612)" />
    <path
       id="path435"
       d="m 43.52396,400.44617 -4.09182,0.86807 c -0.91729,4.58336 2.42759,7.44733 3.63587,8.4819 0.9886,1.66457 0.9886,2.66446 0.9886,5.1252 6.70949,6.96605 9.07962,6.96605 10.90424,6.96605 4.1e-4,0.0868 -1.81493,2.09273 -3.59935,4.06448 -0.0075,0.37575 1.65448,4.52947 2.62466,6.95415 2.81532,4.36348 5.28612,7.27196 12.50522,15.76981 5.37222,1.423 8.73613,-4.27163 10.36679,-7.03211 -0.01146,-0.4001 -1.80461,-3.31732 -2.86034,-5.03483 -3.81083,-3.95496 -7.41276,-7.07123 -12.33423,-11.32914 -1.6275,-2.10345 -1.6275,-4.2062 -1.6275,-5.74516 -1.12806,-2.48385 -2.5068,-3.98071 -3.88554,-5.47755 -1.75107,-3.54074 -2.51251,-6.37148 -3.94742,-11.70584 -2.06038,-2.92662 -4.22775,-2.70906 -4.91829,-2.63974 -2.00315,0.36183 -3.76089,0.73471 -3.76089,0.73471"
       style="fill:#8a2e09;fill-opacity:0.5;fill-rule:nonzero;stroke:none"
       transform="matrix(1.3333333,0,0,-1.3333333,2700.804,1023.612)" />
    <path
       id="path436"
       d="m 44.33472,402.15123 -2.22043,0.97383 c -1.02417,1.07581 -0.65264,2.04404 0.24124,4.37344 4.38567,1.91115 6.96133,1.09366 8.80466,0.50863 0.40793,-0.83959 0.1479,-3.51319 -0.23316,-7.43108 -1.6992,-0.57086 -6.59231,1.57518 -6.59231,1.57518"
       style="fill:#660f02;fill-opacity:0.5;fill-rule:nonzero;stroke:none"
       transform="matrix(1.3333333,0,0,-1.3333333,2700.804,1023.612)" />
    <path
       id="path437"
       d="m 48.79308,415.58842 -0.98318,1.59079 c 1.46956,1.11165 5.56808,1.87743 8.17061,2.36369 0.8597,-0.22024 0.8597,-1.3732 0.8597,-4.25784 -6.5593,-2.10401 -8.04713,0.30336 -8.04713,0.30336"
       style="fill:#660f02;fill-opacity:0.5;fill-rule:nonzero;stroke:none"
       transform="matrix(1.3333333,0,0,-1.3333333,2700.804,1023.612)" />
    <path
       id="path438"
       d="m 57.10652,430.44298 -3.48002,1.3988 c 0.46965,1.45481 6.27545,7.26062 9.82904,10.81422 2.18971,1.42734 3.38443,0.9689 4.34452,0.60045 1.49852,0.29029 2.36994,1.01349 3.62734,2.05703 0.65678,-0.002 1.92494,-1.05481 4.48285,-3.17769 -0.69324,-3.26199 -4.48493,-6.94443 -10.41466,-12.70333 -3.21918,-1.06752 -8.38907,1.01052 -8.38907,1.01052"
       style="fill:#660f02;fill-opacity:0.5;fill-rule:nonzero;stroke:none"
       transform="matrix(1.3333333,0,0,-1.3333333,2700.804,1023.612)" />
  </g>
</svg>
