<?xml version="1.0" encoding="utf-8"?>
<!-- Generator: Adobe Illustrator 22.1.0, SVG Export Plug-In . SVG Version: 6.00 Build 0)  -->
<svg version="1.1" id="Ebene_1" xmlns="http://www.w3.org/2000/svg" xmlns:xlink="http://www.w3.org/1999/xlink" x="0px" y="0px" width="72px" height="67px"
	 viewBox="0 0 72 67" style="enable-background:new 0 0 72 67;" xml:space="preserve">
<style type="text/css">
	.st0{fill:#004C97;}
	.st1{fill:#004C97;stroke:#004C97;stroke-width:0.2395;stroke-miterlimit:22.9256;}
</style>
<!--<g>
	<g>
		<path class="st0" d="M80.5,16h10.3v3.1h-6.4V28h6.2v3.2h-6.2V44h-3.9V16z"/>
		<path class="st0" d="M103.7,39.5c0,1.4-0.2,2.4-0.5,3c-0.6,1.3-2.1,1.9-4.4,1.9c-3.7,0-5.2-1.4-5.2-4.9V29.2
			c0-3.5,1.5-4.9,5.2-4.9c2.2,0,3.6,0.6,4.3,1.9c0.4,0.7,0.6,1.9,0.6,3v6.2h-6.5v4.1c0,1.8,0.4,2.5,1.5,2.5c1,0,1.4-0.5,1.4-1.9
			v-2.2h3.5L103.7,39.5L103.7,39.5z M100.2,32.8v-4.1c0-1.2-0.5-1.8-1.4-1.8s-1.5,0.8-1.5,2.2v3.7H100.2z"/>
		<path class="st0" d="M106.9,24.7h3.5v1.1c1.1-1.2,1.5-1.4,3.2-1.5v3.6c-0.2,0-0.5,0-0.6,0c-1.6,0-2.4,0.9-2.4,2.7v13.3h-3.7V24.7z
			"/>
		<path class="st0" d="M116.5,24.7h3.6v1c0.9-1,1.8-1.4,3.1-1.4c2.3,0,3.5,1.4,3.5,4.3v15.3H123v-15c0-1.3-0.4-1.9-1.3-1.9
			s-1.5,0.7-1.5,1.8V44h-3.7V24.7z"/>
		<path class="st0" d="M142.4,38.2c0,4.1-2.1,6.1-6.2,6.1c-2.6,0-4.7-0.9-5.6-2.6c-0.5-0.9-0.8-2.1-0.8-3.5V16h3.9v22.1
			c0,2.2,0.7,3.1,2.4,3.1s2.5-0.9,2.5-3.1V16h3.9L142.4,38.2L142.4,38.2z"/>
		<path class="st0" d="M145.6,24.7h3.6v1c0.9-1,1.8-1.4,3.1-1.4c2.3,0,3.5,1.4,3.5,4.3v15.3h-3.7v-15c0-1.3-0.4-1.9-1.3-1.9
			c-0.9,0-1.5,0.7-1.5,1.8V44h-3.7L145.6,24.7L145.6,24.7z"/>
		<path class="st0" d="M159,16h3.7v3.5H159V16z M159,24.7h3.7v19.2H159V24.7z"/>
		<path class="st0" d="M169.4,24.7l1.4,9.1l0.1,0.8c0.4,2.8,0.4,3,0.8,5.3c0.3-1.6,0.5-2.8,0.6-3.6l0.1-0.8l0.2-0.8l0.1-0.8l1.5-9.1
			h3.7l-4,19.2h-4.4l-4-19.2h3.9V24.7z"/>
		<path class="st0" d="M190.5,39.5c0,1.4-0.2,2.4-0.5,3c-0.6,1.3-2.1,1.9-4.4,1.9c-3.7,0-5.2-1.4-5.2-4.9V29.2
			c0-3.5,1.5-4.9,5.2-4.9c2.2,0,3.6,0.6,4.3,1.9c0.4,0.7,0.6,1.9,0.6,3v6.2H184v4.1c0,1.8,0.4,2.5,1.5,2.5c1,0,1.4-0.5,1.4-1.9v-2.2
			h3.5L190.5,39.5L190.5,39.5z M187,32.8v-4.1c0-1.2-0.5-1.8-1.4-1.8s-1.5,0.8-1.5,2.2v3.7H187z"/>
		<path class="st0" d="M193.7,24.7h3.5v1.1c1.1-1.2,1.5-1.4,3.2-1.5v3.6c-0.2,0-0.5,0-0.6,0c-1.6,0-2.4,0.9-2.4,2.7v13.3h-3.7V24.7z
			"/>
		<path class="st0" d="M209.4,28.8c0-1.4-0.4-2.1-1.3-2.1c-0.8,0-1.3,0.7-1.3,2.1s0.4,2.1,2,3.5c3.5,2.9,4,3.9,4,6.8
			c0,3.8-1.4,5.3-5.1,5.3c-2.2,0-3.8-0.6-4.3-1.7c-0.3-0.6-0.5-1.6-0.5-2.6v-2.2h3.5v1.8c0,1.7,0.4,2.3,1.4,2.3s1.4-0.8,1.4-2.6
			c0-1.7-0.5-2.5-2.2-4c-3.3-2.7-3.9-3.7-3.9-6.2c0-1.6,0.5-3,1.3-3.8s1.8-1.1,3.6-1.1c3.3,0,4.6,1.2,4.6,4v2.4h-3.3v-1.9H209.4z"/>
		<path class="st0" d="M215.8,16h3.7v3.5h-3.7V16z M215.8,24.7h3.7v19.2h-3.7V24.7z"/>
		<path class="st0" d="M222.3,24.7h1.7v-3.8l3.7-1.4v5.2h2.2v2.7h-2.2v12.1c0,1.4,0.4,1.9,1.6,1.9c0.2,0,0.3,0,0.7-0.1v2.6h-0.5
			h-0.4c-0.9,0-1.3,0-1.7,0c-2.5,0-3.3-1-3.3-3.7V27.4h-1.7v-2.7H222.3z"/>
		<path class="st0" d="M239.4,42.8c-1,1.2-1.8,1.6-3.1,1.6c-1.4,0-2.5-0.5-3-1.4c-0.4-0.7-0.6-2-0.6-3.6c0-4.3,0.4-5.6,2.1-6.6
			c0.8-0.5,1.8-0.7,3.1-0.7h1.4V29c0-1.4-0.5-2-1.4-2c-0.8,0-1.3,0.6-1.3,1.7v1.4h-3.7v-0.9c0-3.4,1.5-4.9,5.2-4.9
			c3.4,0,4.8,1.4,4.8,4.9V44h-3.6v-1.2H239.4z M233.9,16h3.2v3.4h-3.2V16z M239.4,34.5c-2.8,0.1-3.1,0.5-3.1,4.5
			c0,2.3,0.3,2.9,1.6,2.9c1,0,1.5-0.6,1.5-1.9V34.5z M238.8,16h3.3v3.4h-3.3V16z"/>
		<path class="st0" d="M245.9,24.7h1.7v-3.8l3.7-1.4v5.2h2.2v2.7h-2.2v12.1c0,1.4,0.4,1.9,1.6,1.9c0.2,0,0.3,0,0.7-0.1v2.6h-0.5
			h-0.4c-0.9,0-1.3,0-1.7,0c-2.5,0-3.3-1-3.3-3.7V27.4h-1.8V24.7z"/>
		<path class="st0" d="M263,16h3.7v3.5H263V16z M263,24.7h3.7v19.2H263V24.7z"/>
		<path class="st0" d="M269.9,24.7h3.6v1c0.9-1,1.8-1.4,3.1-1.4c2.3,0,3.5,1.4,3.5,4.3v15.3h-3.7v-15c0-1.3-0.4-1.9-1.3-1.9
			s-1.5,0.7-1.5,1.8V44h-3.7V24.7z"/>
		<path class="st0" d="M290.1,16h3.9v11.7h4.8V16h3.9v28h-3.9V30.8H294v13.1h-3.9V16z"/>
		<path class="st0" d="M312.4,42.8c-1,1.2-1.8,1.6-3.1,1.6c-1.4,0-2.5-0.5-3-1.4c-0.4-0.7-0.6-2-0.6-3.6c0-4.3,0.4-5.6,2.1-6.6
			c0.8-0.5,1.8-0.7,3.1-0.7h1.4V29c0-1.4-0.5-2-1.4-2c-0.8,0-1.3,0.6-1.3,1.7v1.4h-3.7v-0.9c0-3.4,1.5-4.9,5.2-4.9
			c3.4,0,4.8,1.4,4.8,4.9V44h-3.6v-1.2H312.4z M312.3,34.5c-2.8,0.1-3.1,0.5-3.1,4.5c0,2.3,0.3,2.9,1.6,2.9c1,0,1.5-0.6,1.5-1.9
			V34.5z"/>
		<path class="st0" d="M326,42.9c-0.9,1.1-1.9,1.6-3.2,1.6c-2.4,0-3.6-1.4-3.6-4.3V28.5c0-2.9,1.2-4.3,3.7-4.3
			c1.4,0,2.1,0.4,3.2,1.6v-1.1h3.5v21.8c0,3.3-1.3,4.6-5,4.6c-3.8,0-5-1.1-5-4.4v-0.9h3.6v1c0,1.3,0.4,1.9,1.3,1.9s1.4-0.6,1.4-1.9
			v-3.9H326z M326,29.5c0-1.7-0.5-2.5-1.6-2.5s-1.5,0.8-1.5,2.5v10c0,1.8,0.5,2.5,1.6,2.5s1.5-0.8,1.5-2.5V29.5z"/>
		<path class="st0" d="M343,39.5c0,1.4-0.2,2.4-0.5,3c-0.6,1.3-2.1,1.9-4.4,1.9c-3.7,0-5.2-1.4-5.2-4.9V29.2c0-3.5,1.5-4.9,5.2-4.9
			c2.2,0,3.6,0.6,4.3,1.9c0.4,0.7,0.6,1.9,0.6,3v6.2h-6.5v4.1c0,1.8,0.4,2.5,1.5,2.5c1,0,1.4-0.5,1.4-1.9v-2.2h3.5v1.6H343z
			 M339.5,32.8v-4.1c0-1.2-0.5-1.8-1.4-1.8c-1,0-1.5,0.8-1.5,2.2v3.7H339.5z"/>
		<path class="st0" d="M346.2,24.7h3.6v1c0.9-1,1.8-1.4,3.1-1.4c2.3,0,3.5,1.4,3.5,4.3v15.3h-3.7v-15c0-1.3-0.4-1.9-1.3-1.9
			s-1.5,0.7-1.5,1.8V44h-3.7V24.7z"/>
	</g>
</g>-->
<path class="st1" d="M64.5,9.3v21.4c0,15.5-12.6,28.1-28.1,28.1S8.3,46.2,8.3,30.7V9.2C9.1,8.1,10,7,11,6v24.7
	C11,44.7,22.3,56,36.3,56s25.3-11.3,25.3-25.3V6C62.7,7,63.6,8.1,64.5,9.3z"/>
<path class="st1" d="M15.5,30.7V2.2c0.9-0.7,1.8-1.3,2.8-1.9v30.4c0,10,8.1,18,18.1,18s18.1-8.1,18.1-18V0.3c1,0.6,1.9,1.2,2.8,1.9
	v28.5c0,11.5-9.4,20.9-20.9,20.9S15.5,42.2,15.5,30.7z"/>
<path class="st1" d="M68.9,30.7V16.9c1.8,4.3,2.8,8.9,2.8,13.9c0,19.5-15.8,35.3-35.3,35.3S1,50.2,1,30.7c0-5,1-9.7,2.8-13.9v13.9
	c0,17.9,14.6,32.5,32.5,32.5S68.8,48.7,68.9,30.7z"/>
<path class="st0" d="M36.5,16.8c-7.6,0-13.8,6.2-13.8,13.8s6.2,13.8,13.8,13.8s13.8-6.2,13.8-13.8S44,16.8,36.5,16.8z M31.5,25.2
	c-2.9,3.3-2.8,6.4-4.3,5.6c-1.5-0.8-2.4-4.6,1.2-8.6s7.2-2.8,8.2-1.5C37.6,22.3,34.5,21.9,31.5,25.2z"/>
</svg>
