<?xml version="1.0" encoding="UTF-8" standalone="no"?>
<svg
   height="523.59998"
   width="599.75"
   version="1.1"
   id="svg3"
   xmlns="http://www.w3.org/2000/svg"
   xmlns:svg="http://www.w3.org/2000/svg">
  <defs
     id="defs3" />
  <path
     d="M 597.575,499.6 313.775,8 c -2.9,-5 -8.2,-8 -13.9,-8 -5.7,0 -11,3.1 -13.9,8 L 2.175,499.6 c -2.9,5 -2.9,11.1 0,16 2.9,5 8.2,8 13.9,8 h 567.6 c 5.7,0 11,-3.1 13.9,-8 2.9,-5 2.9,-11.1 0,-16 z"
     id="path1"
     style="fill:#2b2b2c;fill-opacity:1" />
  <path
     d="M 43.975,491.52526 299.98,50.036327 l 256,441.488933 z"
     fill="#f9a900"
     id="path2"
     style="stroke-width:0.997955" />
  <path
     d="m 290.145,225 v 39.562 l -21.156,-21.125 -14.156,14.125 35.312,35.312 v 27.5 c -2.4841,0.96745 -4.8066,2.2617 -6.875,3.875 l -24.812,-14.344 -12.938,-48.219 -19.312,5.1875 7.7188,28.875 -34.25,-19.781 -10,17.344 34.25,19.781 -28.844,7.7188 5.1562,19.312 48.188,-12.906 24.688,14.25 c -0.21967,1.3934 -0.34375,2.8261 -0.34375,4.2812 0,1.2936 0.1069,2.5669 0.28125,3.8125 l -24.625,14.188 -48.188,-12.906 -5.1562,19.312 28.844,7.75 -34.25,19.781 10,17.312 34.25,-19.781 -7.7188,28.875 19.312,5.2188 12.938,-48.25 24.438,-14.125 c 2.1646,1.7511 4.6123,3.1602 7.25,4.1875 v 26 l -35.312,35.312 14.156,14.125 21.156,-21.125 v 39.562 h 20 v -39.562 l 21.125,21.125 14.156,-14.125 -35.281,-35.281 v -26.125 c 2.5279,-1.0136 4.8814,-2.3794 6.9688,-4.0625 l 24.375,14.094 12.938,48.25 19.312,-5.2188 -7.7188,-28.875 34.25,19.781 10,-17.312 -34.25,-19.781 28.844,-7.75 -5.1562,-19.312 -48.188,12.906 -24.531,-14.156 c 0.17717,-1.2553 0.28125,-2.5396 0.28125,-3.8438 0,-1.4657 -0.12094,-2.9095 -0.34375,-4.3125 l 24.594,-14.219 48.188,12.906 5.1562,-19.312 -28.844,-7.7188 34.25,-19.781 -10,-17.344 -34.25,19.781 7.7188,-28.875 -19.312,-5.1875 -12.938,48.219 -24.781,14.312 c -1.9846,-1.54 -4.1952,-2.8008 -6.5625,-3.75 v -27.625 l 35.281,-35.281 -14.156,-14.125 -21.125,21.125 v -39.562 h -20 z"
     id="path3"
     style="fill:#2b2b2c;fill-opacity:1" />
</svg>
