<?xml version="1.0" encoding="UTF-8" standalone="no"?>
<svg
   height="138.53583mm"
   viewBox="0 0 158.68385 138.53583"
   width="158.68385mm"
   version="1.1"
   id="svg3"
   xmlns="http://www.w3.org/2000/svg"
   xmlns:svg="http://www.w3.org/2000/svg">
  <defs
     id="defs3" />
  <g
     transform="translate(-3.1750008,-49.477078)"
     id="g3">
    <path
       d="M 161.28338,181.66291 86.194635,51.593744 c -0.767292,-1.322916 -2.169583,-2.116666 -3.677708,-2.116666 -1.508125,0 -2.910417,0.820208 -3.677708,2.116666 L 3.7504695,181.66291 c -0.7672916,1.32292 -0.7672916,2.93687 0,4.23333 0.7672917,1.32292 2.1695833,2.11667 3.6777083,2.11667 H 157.60568 c 1.50812,0 2.91041,-0.82021 3.6777,-2.11667 0.7673,-1.32291 0.7673,-2.93687 0,-4.23333 z"
       stroke-width="0.264583"
       id="path1"
       style="fill:#2b2b2c;fill-opacity:1" />
    <path
       d="m 555.875,491.5 h -512 l 256,-443.3 z"
       fill="#f9a900"
       transform="matrix(0.26458333,0,0,0.2635024,3.175001,50.015039)"
       id="path2" />
    <path
       d="m 82.661813,80.711635 c -1.427136,1.88e-4 -2.583895,1.15721 -2.583815,2.584338 5.3e-5,0.861817 0.429736,1.666899 1.145672,2.146639 v 2.644283 c -1.146149,0.550714 -1.877219,1.707568 -1.88259,2.979147 0.0053,1.271575 0.736441,2.428431 1.88259,2.979145 -0.0835,4.292545 -0.182721,4.691237 0.834893,6.240833 0.875982,1.33392 2.156169,2.98587 0.769143,4.33837 -1.871768,1.82518 -3.823546,-3.29748 -3.823546,-3.29748 -1.596708,1.06304 -1.626738,5.31464 0.781341,7.15409 l -14.208945,25.57673 -12.617318,4.52738 0.04961,14.30403 5.909706,3.29799 0.216535,0.72244 1.452113,0.93379 20.76876,-7.49567 0.230981,-15.38924 -6.292109,-4.38836 -7.608332,2.73058 13.418317,-24.15356 c 0.196638,0.058 0.403225,0.10363 0.619601,0.13539 l -0.137477,25.67492 1.459865,1.02526 0.152956,-26.69398 0.01032,-0.002 15.221797,37.41891 -15.383034,-10.72803 -0.23151,15.41198 -20.666445,7.45846 1.560115,1.00304 1.204595,-0.31729 11.833384,6.60373 0.26715,0.89141 1.480026,0.95137 19.515587,-7.0435 0.422725,-14.22652 1.467617,1.00976 -15.27556,-38.76921 c 2.348071,-0.85628 3.718057,-3.0162 3.52515,-5.27593 -0.283369,-3.31938 -3.004185,-4.430564 -3.642493,-5.285861 -0.659632,-0.883889 -0.391318,-2.917415 -0.409231,-4.344279 1.146149,-0.550714 1.877166,-1.70757 1.882564,-2.979145 -0.0053,-1.271579 -0.736415,-2.428433 -1.882564,-2.979147 v -2.645317 c 0.715831,-0.479417 1.145673,-1.284055 1.146175,-2.145605 1.06e-4,-1.427331 -1.157023,-2.584436 -2.584344,-2.584338 z m 17.220141,67.005725 -0.423757,14.26787 -19.398297,7.0006 1.532229,0.98495 1.375621,-0.36225 3.880882,2.16576 19.796208,-7.0714 V 152.4349 Z"
       stroke-width="1.47664"
       id="path3"
       style="fill:#2b2b2c;fill-opacity:1" />
  </g>
</svg>
