<?xml version="1.0" encoding="UTF-8" standalone="no"?>
<svg
   height="523.59998"
   width="599.75"
   version="1.1"
   id="svg4"
   xmlns="http://www.w3.org/2000/svg"
   xmlns:svg="http://www.w3.org/2000/svg">
  <defs
     id="defs4" />
  <path
     d="M 597.575,499.6 313.775,8 c -2.9,-5 -8.2,-8 -13.9,-8 -5.7,0 -11,3.1 -13.9,8 L 2.175,499.6 c -2.9,5 -2.9,11.1 0,16 2.9,5 8.2,8 13.9,8 h 567.6 c 5.7,0 11,-3.1 13.9,-8 2.9,-5 2.9,-11.1 0,-16 z"
     id="path1"
     style="fill:#2b2b2c;fill-opacity:1" />
  <path
     d="M 555.98,491.52526 H 43.975 L 299.98,50.036327 Z"
     fill="#f9a900"
     id="path2"
     style="stroke-width:0.997955" />
  <g
     stroke="#2b2b2c"
     stroke-linecap="square"
     transform="matrix(1.050601,0,0,1.050601,953.64581,113.37476)"
     id="g4">
    <path
       d="m -622,105.22 -12.5,77.531 -52.281,-58.594 31.375,71.969 -75.656,-21.031 65.344,43.594 -75.031,23.219 78.531,1.3438 -50.562,60.062 66.781,-41.281 -10.062,77.875 33.844,-70.875 33.656,70.969 -9.8438,-77.906 66.656,41.5 -50.375,-60.25 78.5,-1.125 -74.938,-23.406 65.438,-43.406 -75.719,20.812 31.594,-71.875 -52.438,58.438 -12.31,-77.54 z m 0.5,82.219 c 21.27,0 38.531,17.261 38.531,38.531 0,21.27 -17.261,38.562 -38.531,38.562 -21.27,-10e-6 -38.531,-17.292 -38.531,-38.562 0,-21.27 17.261,-38.531 38.531,-38.531 z"
       stroke-width="1.2413"
       id="path3"
       style="fill:#2b2b2c;fill-opacity:1" />
    <path
       d="m -283.77,72.153 c 0,22.281 -18.063,40.344 -40.344,40.344 -22.281,0 -40.344,-18.063 -40.344,-40.344 0,-22.281 18.063,-40.344 40.344,-40.344 22.281,0 40.344,18.063 40.344,40.344 z"
       stroke-width="1.08171"
       transform="matrix(0.779473,0,0,0.779473,-369.313,168.9978)"
       id="path4"
       style="fill:#2b2b2c;fill-opacity:1" />
  </g>
</svg>
