<?xml version="1.0" encoding="UTF-8" standalone="no"?>
<svg
   height="523.59998"
   width="599.75"
   version="1.1"
   id="svg4"
   xmlns="http://www.w3.org/2000/svg"
   xmlns:svg="http://www.w3.org/2000/svg">
  <defs
     id="defs4" />
  <path
     d="M 597.575,499.6 313.775,8 c -2.9,-5 -8.2,-8 -13.9,-8 -5.7,0 -11,3.1 -13.9,8 L 2.175,499.6 c -2.9,5 -2.9,11.1 0,16 2.9,5 8.2,8 13.9,8 h 567.6 c 5.7,0 11,-3.1 13.9,-8 2.9,-5 2.9,-11.1 0,-16 z"
     id="path1"
     style="fill:#2b2b2c;fill-opacity:1" />
  <path
     d="m 555.975,491.52526 h -512 l 256,-441.488933 z"
     fill="#f9a900"
     id="path2"
     style="stroke-width:0.997955" />
  <g
     transform="translate(640.48374)"
     id="g4">
    <path
       d="m -347.53125,346.40625 c -11.46146,0.0809 -22.76075,2.87291 -30.5625,8.21875 -27.45353,18.81147 -33.96982,59.01256 -13.375,82.46875 l 8.8125,10.03125 h -17.625 c -16.8572,0 -17.59375,0.28289 -17.59375,7.1875 v 7.21875 h 70.65625 70.6875 v -7.21875 c 0,-6.82618 -0.87468,-7.1875 -16.03125,-7.1875 h -16 l 7.09375,-9.375 c 22.29527,-29.47055 12.17429,-72.00515 -20.59375,-86.5 -7.5458,-3.33786 -16.55428,-4.90665 -25.46875,-4.84375 z m 2.8125,14.15625 c 14.02074,-0.0994 27.82015,6.31915 35.34375,20.8125 10.28163,19.80643 3.69928,46.31256 -14.1875,57.21875 -27.54681,16.79627 -65.46875,-4.1691 -65.46875,-36.1875 0,-25.71082 22.44014,-41.68864 44.3125,-41.84375 z"
       id="path3"
       style="fill:#2b2b2c;fill-opacity:1" />
    <path
       d="m -294.82992,367.62701 c -7.2157,-11.38584 -7.8191,-14.01078 -5.04808,-21.95977 4.06471,-11.66002 4.04766,-11.73675 -1.90085,-8.553 -4.51947,2.41889 -4.93964,1.34083 -4.01255,-10.29534 l 1.03554,-12.99718 -10.23793,11.11797 -10.23793,11.118 2.85865,-12.84764 c 3.37737,-15.17876 -0.55289,-35.29412 -9.04381,-46.28698 l -5.57023,-7.21153 -0.064,23.36763 c -0.0621,22.59254 -4.00728,41.53621 -8.6503,41.53621 -1.23886,0 -3.89544,-3.96646 -5.9035,-8.81431 -4.30888,-10.40259 -7.81312,-8.11988 -9.10286,5.9297 -1.39274,15.1716 -8.63243,12.98362 -14.31715,-4.32693 l -4.73648,-14.42307 -2.12258,12.25961 c -1.16742,6.74279 -3.41701,12.25962 -4.99909,12.25962 -1.59252,0 -2.18129,3.54092 -1.319,7.93269 1.2027,6.1256 -0.61611,10.5088 -7.98409,19.24114 l -9.54159,11.30844 -6.5929,-12.75075 c -5.27844,-10.20857 -6.92166,-19.22141 -8.24188,-45.20556 -1.22483,-24.10688 -0.7653,-32.45405 1.78655,-32.45192 1.88954,0.002 4.23778,1.30096 5.21832,2.8875 0.98053,1.58653 2.77988,2.88461 3.99855,2.88461 2.58792,0 8.98222,-32.57955 8.98222,-45.76528 0,-4.97333 0.91176,-9.04241 2.02613,-9.04241 1.11437,0 6.30668,4.14887 11.53846,9.21971 l 9.51233,9.21971 v -30.85432 c 0,-17.03914 1.19799,-30.85433 2.67554,-30.85433 1.47155,0 6.00043,4.21875 10.06417,9.375 8.04856,10.21236 8.1013,10.12186 8.82615,-15.14423 0.25033,-8.72596 2.2409,-19.11058 4.42346,-23.07693 l 3.9683,-7.21153 2.77506,9.47577 c 1.52631,5.21168 7.9468,15.35114 14.26774,22.53214 6.32097,7.18099 12.4777,17.19574 13.68162,22.25499 2.13245,8.96116 2.19658,8.99384 2.48423,1.26594 0.36026,-9.67838 3.1275,-9.9885 11.31946,-1.26855 5.93795,6.32065 12.1365,21.8144 16.37443,40.92916 l 1.91801,8.65099 3.72072,-6.95221 3.7207,-6.95221 4.80931,7.33993 c 5.63885,8.60597 6.87248,25.19286 3.81398,51.28174 -1.95533,16.67905 -1.73601,18.15969 1.98549,13.40541 3.91292,-4.99883 4.30696,-4.68683 6.09095,4.82259 2.14843,11.4521 -0.23077,25.45739 -6.36245,37.45425 -4.53407,8.87097 -14.12023,19.37833 -17.52802,19.21243 -1.18991,-0.058 -5.85136,-5.92454 -10.35877,-13.0369 z"
       id="path4"
       style="fill:#2b2b2c;fill-opacity:1" />
  </g>
</svg>
