<?xml version="1.0" encoding="UTF-8" standalone="no"?>
<svg
   height="599.43457pt"
   viewBox="0 0 684.71985 599.43457"
   width="684.71985pt"
   version="1.1"
   id="svg25"
   xmlns="http://www.w3.org/2000/svg"
   xmlns:svg="http://www.w3.org/2000/svg">
  <defs
     id="defs25" />
  <g
     fill-rule="evenodd"
     stroke-miterlimit="2.613"
     transform="matrix(3.452621,0,0,3.456221,-0.00142439,-0.00119224)"
     id="g25">
    <path
       d="M 197.46208,164.74369 104.12266,2.938542 103.54453,2.076193 102.82609,1.427453 102.03639,0.853307 101.0996,0.423828 100.16507,0.134495 99.158139,0.0644219 98.153467,0.134495 97.146533,0.423828 96.283285,0.853307 95.420036,1.427453 94.77062,2.076193 94.197007,2.938542 0.857591,164.74369 l -0.434452,0.93355 -0.288504,0.93355 -0.0701459,1.00815 0.0701459,1.00814 0.288504,1.00363 0.434452,0.86348 0.573613,0.86235 0.644891,0.64874 0.863248,0.57414 0.863248,0.434 1.008066,0.28934 1.006934,0.0701 H 192.50208 l 1.00693,-0.0701 0.9334,-0.28934 0.93452,-0.434 0.79311,-0.57414 0.71843,-0.64874 0.57361,-0.86235 0.43445,-0.86348 0.28511,-1.00363 0.0735,-1.00814 -0.0735,-1.00815 -0.28511,-0.93355 z m 0,0"
       fill="#2b2b2c"
       stroke="#2b2b2c"
       stroke-width="0.127844"
       id="path1"
       style="fill:#2b2b2c;fill-opacity:1" />
    <path
       d="M 99.158139,18.110458 181.85686,161.50564 H 16.458285 Z m 0,0"
       fill="#f9a900"
       stroke="#2b2b2c"
       stroke-width="0.127844"
       id="path2" />
    <g
       fill="#2b2b2c"
       stroke="#2b2b2c"
       stroke-width="0.027966"
       id="g24">
      <path
         d="M 155.76369,138.76698 H 42.517518 l -8.49219,12.73067 H 164.25588 Z m 0,0"
         id="path3"
         style="fill:#2b2b2c;fill-opacity:1" />
      <path
         d="m 114.47033,93.751911 -1.63259,8.815629 -3.4496,-0.65213 1.63712,-8.777202 z m 0,0"
         id="path4"
         style="fill:#2b2b2c;fill-opacity:1" />
      <path
         d="m 98.93865,69.634396 -3.480146,0.359406 0.976387,8.925255 3.484671,-0.397833 z m 0,0"
         id="path5"
         style="fill:#2b2b2c;fill-opacity:1" />
      <path
         d="m 104.45416,101.08018 -2.39401,-3.336373 -9.180077,6.641103 2.395146,3.33525 z m 0,0"
         id="path6"
         style="fill:#2b2b2c;fill-opacity:1" />
      <path
         d="m 96.111314,106.30288 -4.067336,-0.50408 -1.374635,11.24218 4.06281,0.50747 z m 0,0"
         id="path7"
         style="fill:#2b2b2c;fill-opacity:1" />
      <path
         d="m 92.37208,91.868984 -6.421752,9.319696 -3.374927,-2.320315 6.421752,-9.319698 z m 0,0"
         id="path8"
         style="fill:#2b2b2c;fill-opacity:1" />
      <path
         d="m 112.87281,102.24317 -0.10974,-0.54589 -0.25344,-0.47356 -0.36317,-0.39783 -0.50799,-0.2543 -0.54307,-0.0701 -0.54306,0.0701 -0.47292,0.2543 -0.39825,0.39783 -0.25343,0.47356 -0.0747,0.54589 0.0747,0.54363 0.25343,0.50746 0.39825,0.36393 0.47292,0.25316 0.54306,0.10624 0.54307,-0.10624 0.50799,-0.25316 0.36317,-0.36393 0.25344,-0.50746 z m 0,0"
         id="path9"
         style="fill:#2b2b2c;fill-opacity:1" />
      <path
         d="m 114.5054,93.462578 -0.0701,-0.54363 -0.25457,-0.507464 -0.40164,-0.362797 -0.46839,-0.254296 -0.54759,-0.109631 -0.54307,0.109631 -0.50799,0.254296 -0.36318,0.362797 -0.25343,0.507464 -0.0701,0.54363 0.0701,0.547021 0.25343,0.469036 0.36318,0.397834 0.50799,0.21926 0.54307,0.1085 0.54759,-0.1085 0.46839,-0.21926 0.40164,-0.397834 0.25457,-0.469036 z m 0,0"
         id="path10"
         style="fill:#2b2b2c;fill-opacity:1" />
      <path
         d="m 99.919562,78.735964 -0.07467,-0.5425 -0.253431,-0.508594 -0.398248,-0.362797 -0.47292,-0.254297 -0.543066,-0.10963 -0.543065,0.10963 -0.507993,0.254297 -0.363175,0.362797 -0.253431,0.508594 -0.109744,0.5425 0.109744,0.54702 0.253431,0.469037 0.363175,0.402354 0.507993,0.249776 0.543065,0.07346 0.543066,-0.07346 0.47292,-0.249776 0.398248,-0.402354 0.253431,-0.469037 z m 0,0"
         id="path11"
         style="fill:#2b2b2c;fill-opacity:1" />
      <path
         d="m 98.93865,69.814099 -0.07015,-0.5425 -0.253431,-0.473557 -0.398248,-0.397834 -0.47292,-0.254297 -0.547591,-0.07459 -0.541934,0.07459 -0.47292,0.254297 -0.398248,0.397834 -0.254562,0.473557 -0.07015,0.5425 0.07015,0.5425 0.254562,0.473557 0.398248,0.397834 0.47292,0.254296 0.541934,0.07346 0.547591,-0.07346 0.47292,-0.254296 0.398248,-0.397834 0.253431,-0.473557 z m 0,0"
         id="path12"
         style="fill:#2b2b2c;fill-opacity:1" />
      <path
         d="m 96.146387,106.05197 -0.109745,-0.65552 -0.288503,-0.54363 -0.47292,-0.46904 -0.543066,-0.29272 -0.656204,-0.1085 -0.613212,0.1085 -0.582664,0.29272 -0.471788,0.46904 -0.289635,0.54363 -0.109745,0.65552 0.109745,0.65213 0.289635,0.54363 0.471788,0.47243 0.582664,0.28933 0.613212,0.10963 0.656204,-0.10963 0.543066,-0.28933 0.47292,-0.47243 0.288503,-0.54363 z m 0,0"
         id="path13"
         style="fill:#2b2b2c;fill-opacity:1" />
      <path
         d="m 92.736387,90.70826 -0.07467,-0.65552 -0.288503,-0.578667 -0.47292,-0.437391 -0.578139,-0.289333 -0.617737,-0.10963 -0.651679,0.10963 -0.582664,0.289333 -0.436715,0.437391 -0.289635,0.578667 -0.109745,0.65552 0.109745,0.613704 0.289635,0.582057 0.436715,0.472427 0.582664,0.289333 0.651679,0.10963 0.617737,-0.10963 0.578139,-0.289333 0.47292,-0.472427 0.288503,-0.582057 z m 0,0"
         id="path14"
         style="fill:#2b2b2c;fill-opacity:1" />
      <path
         d="m 101.47861,97.888474 -0.0713,-0.617094 -0.32811,-0.578666 -0.43332,-0.472428 -0.58153,-0.289333 -0.617738,-0.10963 -0.651678,0.10963 -0.578139,0.289333 -0.437847,0.472428 -0.289635,0.578666 -0.108613,0.617094 0.108613,0.65213 0.289635,0.582057 0.437847,0.434 0.578139,0.292724 0.651678,0.109631 0.617738,-0.109631 0.58153,-0.292724 0.43332,-0.434 0.32811,-0.582057 z m 0,0"
         id="path15"
         style="fill:#2b2b2c;fill-opacity:1" />
      <path
         d="m 105.32533,99.411995 -0.10862,-0.617094 -0.28963,-0.578667 -0.47292,-0.472427 -0.54193,-0.289333 -0.65281,-0.10963 -0.65621,0.10963 -0.54306,0.289333 -0.4684,0.472427 -0.29303,0.578667 -0.10974,0.617094 0.10974,0.652135 0.29303,0.58205 0.4684,0.434 0.54306,0.29273 0.65621,0.10963 0.65281,-0.10963 0.54193,-0.29273 0.47292,-0.434 0.28963,-0.58205 z m 0,0"
         id="path16"
         style="fill:#2b2b2c;fill-opacity:1" />
      <path
         d="m 94.767226,117.29415 -0.109744,-0.65213 -0.288504,-0.5425 -0.47292,-0.47243 -0.543065,-0.28933 -0.656205,-0.10963 -0.613211,0.10963 -0.581533,0.28933 -0.47292,0.47243 -0.289635,0.5425 -0.108613,0.65213 0.108613,0.61709 0.289635,0.58206 0.47292,0.46904 0.581533,0.28933 0.613211,0.10963 0.656205,-0.10963 0.543065,-0.28933 0.47292,-0.46904 0.288504,-0.58206 z m 0,0"
         id="path17"
         style="fill:#2b2b2c;fill-opacity:1" />
      <path
         d="m 86.313504,100.02909 -0.07354,-0.617095 -0.289636,-0.578667 -0.471788,-0.472427 -0.582664,-0.289333 -0.616606,-0.10963 -0.65281,0.10963 -0.578139,0.289333 -0.437847,0.472427 -0.288503,0.578667 -0.109745,0.617095 0.109745,0.65213 0.288503,0.5425 0.437847,0.47356 0.578139,0.2882 0.65281,0.11415 0.616606,-0.11415 0.582664,-0.2882 0.471788,-0.47356 0.289636,-0.5425 z m 0,0"
         id="path18"
         style="fill:#2b2b2c;fill-opacity:1" />
      <path
         d="m 79.235547,129.33765 h -3.58989 V 94.876469 h 3.58989 l -6.167189,-6.816287 -6.133249,6.816287 h 3.593285 v 34.461181 h -3.593285 l 6.133249,6.85584 z m 0,0"
         id="path19"
         style="fill:#2b2b2c;fill-opacity:1" />
      <path
         d="m 125.97427,83.126823 -1.23434,0.03504 -1.23435,0.253167 -1.1608,0.398964 -1.81587,0.76176 -1.41424,0.507464 -1.48777,0.32889 -1.52398,0.1085 -1.52285,-0.1085 -1.4889,-0.32889 -1.41424,-0.507464 -1.81587,-0.76176 -1.26942,-0.434 -1.33956,-0.218131 h -1.34409 l -1.34408,0.218131 -1.30449,0.434 -1.78081,0.76176 -1.4493,0.507464 -1.488909,0.32889 -1.522846,0.1085 -1.488905,-0.1085 -1.487774,-0.32889 -1.449307,-0.507464 -1.817007,-0.76176 -1.269416,-0.434 -1.342956,-0.218131 h -1.340694 l -1.342956,0.218131 -1.269416,0.434 -1.817007,0.76176 -1.449307,0.547021 -1.522846,0.289333 -1.562446,0.1085 -1.559051,-0.144666 -1.523978,-0.327761 -1.452701,-0.5425 -1.344087,-0.726724 1.418759,-2.464984 1.194744,0.65213 1.309015,0.472427 1.339562,0.21474 h 1.379161 l 1.344087,-0.21474 1.307883,-0.437391 1.812482,-0.796796 1.414234,-0.507464 1.487773,-0.292724 1.523979,-0.10624 1.487773,0.10624 1.488905,0.292724 1.452701,0.507464 1.777409,0.796796 1.304489,0.437391 1.344088,0.21474 h 1.344087 l 1.339562,-0.21474 1.304486,-0.437391 1.78194,-0.796796 1.4493,-0.507464 1.48778,-0.292724 1.48777,-0.10624 1.52398,0.10624 1.48777,0.292724 1.41424,0.507464 1.817,0.796796 1.26942,0.437391 1.34296,0.21474 h 1.37576 l 1.34409,-0.21474 1.26942,-0.437391 1.81587,-0.796796 1.55905,-0.547021 1.59752,-0.288203 z m 0,0"
         id="path20"
         style="fill:#2b2b2c;fill-opacity:1" />
      <path
         d="m 99.266752,77.357109 -2.214124,2.722672 0.871168,0.691688 0.871168,-0.184224 0.796496,-0.289334 1.81588,-0.76176 0.36317,-0.148057 z m 0,0"
         id="path21"
         style="fill:#2b2b2c;fill-opacity:1" />
      <path
         d="m 112.47456,79.825484 0.10862,-0.726724 V 78.337 l -0.21836,-0.722203 -0.32471,-0.656651 -0.50686,-0.577537 -0.58267,-0.43739 -0.69127,-0.32437 -0.72296,-0.144667 h -0.76482 l -0.72295,0.179703 -0.69128,0.327761 -0.57814,0.469036 -0.43785,0.617094 -0.3281,0.65213 -0.17989,0.761761 h 1.52398 l 1.48777,0.184224 1.45384,0.324369 1.4131,0.545891 z m 0,0"
         id="path22"
         style="fill:#2b2b2c;fill-opacity:1" />
      <path
         d="m 110.73223,86.173865 -1.59413,-0.688297 -1.01938,-0.327761 -1.01598,-0.183093 h -1.04993 l -1.05106,0.183093 -0.98091,0.327761 -1.81588,0.796797 -0.43445,0.179703 -4.246094,10.664646 7.657224,3.047046 3.88292,-9.79326 2.17566,3.918432 3.05022,-1.707744 z m 0,0"
         id="path23"
         style="fill:#2b2b2c;fill-opacity:1" />
      <path
         d="m 100.75566,96.29488 -2.613507,3.190578 -8.74562,-7.183604 2.612372,-3.190578 z m 0,0"
         id="path24"
         style="fill:#2b2b2c;fill-opacity:1" />
    </g>
  </g>
</svg>
