<?xml version="1.0" encoding="UTF-8" standalone="no"?>
<svg
   height="599.43457pt"
   viewBox="0 0 684.70807 599.43457"
   width="684.70807pt"
   version="1.1"
   id="svg20"
   xmlns="http://www.w3.org/2000/svg"
   xmlns:svg="http://www.w3.org/2000/svg">
  <defs
     id="defs20" />
  <g
     fill-rule="evenodd"
     stroke-miterlimit="2.613"
     transform="matrix(3.452621,0,0,3.456221,-0.00142199,-0.00114122)"
     id="g20">
    <path
       d="M 197.46208,164.74369 104.11927,2.943062 103.54453,2.079583 102.82609,1.430844 102.03299,0.856698 101.0996,0.423828 100.16507,0.137885 99.158139,0.0644219 98.150073,0.137885 97.146533,0.423828 96.283285,0.856698 95.420036,1.430844 94.77062,2.079583 94.197007,2.943062 0.853066,164.74369 l -0.429927,0.93355 -0.288504,0.93807 -0.0701459,1.00702 0.0701459,1.00475 0.288504,1.00702 0.429927,0.86348 0.574744,0.86348 0.648285,0.64874 0.863248,0.57414 0.863248,0.42948 1.008066,0.28933 1.00354,0.0701 H 192.50208 l 1.00354,-0.0701 0.93679,-0.28933 0.93452,-0.42948 0.79311,-0.57414 0.71843,-0.64874 0.57361,-0.86348 0.42993,-0.86348 0.28963,-1.00702 0.0702,-1.00475 -0.0702,-1.00702 -0.28963,-0.93807 z m 0,0"
       fill="#2b2b2c"
       stroke="#2b2b2c"
       stroke-width="0.127844"
       id="path1"
       style="fill:#2b2b2c;fill-opacity:1" />
    <path
       d="M 99.158139,18.114979 181.85686,161.50903 H 16.458285 Z m 0,0"
       fill="#f9a900"
       stroke="#2b2b2c"
       stroke-width="0.127844"
       id="path2" />
    <g
       fill="#2b2b2c"
       stroke="#2b2b2c"
       stroke-width="0.215738"
       id="g19">
      <path
         d="M 162.98193,143.88795 H 35.294745 L 29.529197,153.9355 H 168.78708 Z m 0,0"
         id="path3"
         style="fill:#2b2b2c;fill-opacity:1" />
      <path
         d="m 104.49376,91.958271 -0.40277,0.184224 -0.28851,0.105109 -0.25456,0.10963 -0.14369,0.07346 -0.21949,0.0712 -0.14368,0.07346 -0.58267,0.254296 -1.19474,0.397834 -1.19927,0.289333 -0.617738,0.144667 -0.616606,0.03504 H 97.56062 l -1.270547,-0.105109 -1.234343,-0.219261 -1.194745,-0.32776 -1.164197,-0.469036 -1.121204,-0.547021 -2.250329,-1.156203 -1.163065,-0.507464 -1.195876,-0.402354 -1.19927,-0.289333 -1.269416,-0.179704 -1.234343,-0.07346 -1.269416,0.03504 -1.234343,0.109631 -1.269417,0.21813 -1.195875,0.363927 -1.159672,0.507463 -2.215255,1.124558 -1.124599,0.578666 -1.160803,0.5425 -1.19927,0.363927 -1.234343,0.218131 -1.269416,0.07459 -1.229818,-0.07459 -1.234343,-0.179703 -1.234343,-0.257688 -0.03507,0.582057 0.03507,0.582058 0.108613,0.578666 0.144818,0.545891 0.218358,0.54363 0.289635,0.507464 0.363175,0.434 0.433321,0.432869 0.47292,0.293855 0.581533,0.144666 h 1.160802 l 1.159672,-0.10963 1.12573,-0.21926 1.124598,-0.32437 1.089526,-0.397833 1.086131,-0.437391 1.054453,-0.508594 2.067044,-1.049963 1.054452,-0.472427 1.124599,-0.32437 1.121204,-0.289334 1.164197,-0.10963 1.160803,-0.03843 1.159672,0.148057 1.124598,0.254297 1.12573,0.32324 1.089526,0.398963 1.051058,0.472428 4.211022,2.06602 1.086131,0.363927 1.124599,0.289334 1.124599,0.183093 1.164197,0.109631 z m 0,0"
         id="path4"
         style="fill:#2b2b2c;fill-opacity:1" />
      <path
         d="m 72.778723,141.93156 -0.871168,0.87026 -18.214197,-7.9058 z m 0,0"
         id="path5"
         style="fill:#2b2b2c;fill-opacity:1" />
      <path
         d="M 73.176971,140.7358 61.677555,128.47756 72.525292,140.7358 Z m 0,0"
         id="path6"
         style="fill:#2b2b2c;fill-opacity:1" />
      <path
         d="m 93.388066,134.97061 -7.909526,5.03847 -0.219489,-0.72221 z m 0,0"
         id="path7"
         style="fill:#2b2b2c;fill-opacity:1" />
      <path
         d="m 106.77916,139.939 -21.30062,2.28077 -0.543066,-1.41389 z m 0,0"
         id="path8"
         style="fill:#2b2b2c;fill-opacity:1" />
      <path
         d="m 114.61515,128.54877 -0.54307,5.66008 -28.956715,-2.61304 0.506861,-5.6567 z m 0,0"
         id="path9"
         style="fill:#2b2b2c;fill-opacity:1" />
      <path
         d="m 88.200657,128.7669 -0.109745,-0.76177 -0.288503,-0.65213 -0.437847,-0.61709 -0.578139,-0.434 -0.691277,-0.2882 -0.72635,-0.10963 -0.761424,0.10963 -0.687883,0.2882 -0.581533,0.434 -0.434452,0.61709 -0.29303,0.65213 -0.108613,0.76177 0.108613,0.72672 0.29303,0.68717 0.434452,0.58205 0.581533,0.46904 0.687883,0.2543 0.761424,0.10963 0.72635,-0.10963 0.691277,-0.2543 0.578139,-0.46904 0.437847,-0.58205 0.288503,-0.68717 z m 0,0"
         id="path10"
         style="fill:#2b2b2c;fill-opacity:1" />
      <path
         d="m 117.19245,131.37994 -0.10862,-0.7256 -0.29303,-0.68829 -0.43332,-0.58206 -0.58266,-0.47243 -0.68789,-0.28933 -0.72635,-0.0735 -0.76142,0.0735 -0.68788,0.28933 -0.58153,0.47243 -0.43333,0.58206 -0.29303,0.68829 -0.10974,0.7256 0.10974,0.76176 0.29303,0.65326 0.43333,0.61257 0.58153,0.43739 0.68788,0.28933 0.76142,0.10963 0.72635,-0.10963 0.68789,-0.28933 0.58266,-0.43739 0.43332,-0.61257 0.29303,-0.65326 z m 0,0"
         id="path11"
         style="fill:#2b2b2c;fill-opacity:1" />
      <path
         d="m 84.680912,137.79839 -0.108613,-1.08952 -0.328102,-1.01606 -0.507993,-0.94146 -0.687883,-0.83183 -0.836095,-0.69169 -0.941314,-0.50746 -1.054452,-0.32437 -1.089526,-0.10963 -1.051058,0.10963 -1.051058,0.32437 -0.944709,0.50746 -0.8327,0.69169 -0.691278,0.83183 -0.507992,0.94146 -0.328103,1.01606 -0.108613,1.08952 0.108613,1.08613 0.328103,1.01493 0.507992,0.98102 0.691278,0.83183 0.8327,0.69169 0.944709,0.50746 1.051058,0.28934 1.051058,0.10963 1.089526,-0.10963 1.054452,-0.28934 0.941314,-0.50746 0.836095,-0.69169 0.687883,-0.83183 0.507993,-0.98102 0.328102,-1.01493 z m 0,0"
         id="path12"
         style="fill:#2b2b2c;fill-opacity:1" />
      <path
         d="m 90.267701,106.71992 -9.398431,16.89888 -0.399379,0.94146 -0.253431,1.05449 v 1.05109 l 0.183285,1.05109 0.398248,0.97989 0.578138,0.87139 0.727482,0.75724 0.870037,0.6171 0.945839,0.39896 1.051058,0.21813 1.051059,0.0362 1.054452,-0.17971 0.979781,-0.39896 0.867774,-0.58206 0.765949,-0.7222 0.616606,-0.87139 9.395036,-16.90227 0.398246,-0.9765 0.25796,-1.01605 v -1.0511 l -0.18442,-1.04996 -0.398245,-0.98102 -0.581533,-0.87139 -0.722957,-0.76063 -0.871167,-0.61823 -0.944708,-0.39783 -1.051059,-0.2543 h -1.054452 l -1.051059,0.17971 -0.980912,0.40235 -0.871168,0.57867 -0.761423,0.72672 z m 0,0"
         id="path13"
         style="fill:#2b2b2c;fill-opacity:1" />
      <path
         d="m 119.00493,79.411828 -6.16719,-2.539578 -7.00442,17.008505 6.20679,2.538448 z m 0,0"
         id="path14"
         style="fill:#2b2b2c;fill-opacity:1" />
      <path
         d="m 119.25949,78.142604 -0.0701,-0.76176 -0.25795,-0.688297 -0.39825,-0.655521 -0.50799,-0.54363 -0.65281,-0.397834 -0.68676,-0.214739 -0.76594,-0.114151 -0.72296,0.114151 -0.72635,0.214739 -0.61774,0.397834 -0.54193,0.54363 -0.39938,0.655521 -0.25343,0.688297 -0.0747,0.76176 0.0747,0.725594 0.25343,0.723333 0.39938,0.617094 0.54193,0.5425 0.61774,0.398964 0.72635,0.254296 0.72296,0.07346 0.76594,-0.07346 0.68676,-0.254296 0.65281,-0.398964 0.50799,-0.5425 0.39825,-0.617094 0.25795,-0.723333 z m 0,0"
         id="path15"
         style="fill:#2b2b2c;fill-opacity:1" />
      <path
         d="m 112.29467,95.149979 -0.10974,-0.76176 -0.21836,-0.691688 -0.39825,-0.65213 -0.54306,-0.504073 -0.65621,-0.397833 -0.68788,-0.254297 -0.76142,-0.07459 -0.72636,0.07459 -0.72748,0.254297 -0.6166,0.397833 -0.54307,0.504073 -0.39825,0.65213 -0.21949,0.691688 -0.10861,0.76176 0.10861,0.726724 0.21949,0.722203 0.39825,0.617094 0.54307,0.547021 0.6166,0.398963 0.72748,0.253167 0.72636,0.0712 0.76142,-0.0712 0.68788,-0.253167 0.65621,-0.398963 0.54306,-0.547021 0.39825,-0.617094 0.21836,-0.722203 z m 0,0"
         id="path16"
         style="fill:#2b2b2c;fill-opacity:1" />
      <path
         d="M 106.73956,92.646568 92.915146,104.75901 97.306058,109.802 111.13047,97.65 Z m 0,0"
         id="path17"
         style="fill:#2b2b2c;fill-opacity:1" />
      <path
         d="m 98.470255,107.29859 -0.109744,-0.76176 -0.253431,-0.68717 -0.363175,-0.65326 -0.547591,-0.50746 -0.651679,-0.39784 -0.687883,-0.25429 -0.761424,-0.0746 -0.72635,0.0746 -0.72635,0.25429 -0.617737,0.39784 -0.543066,0.50746 -0.398248,0.65326 -0.218358,0.68717 -0.109745,0.76176 0.109745,0.72672 0.218358,0.72221 0.398248,0.61709 0.543066,0.54702 0.617737,0.39896 0.72635,0.25317 0.72635,0.0701 0.761424,-0.0701 0.687883,-0.25317 0.651679,-0.39896 0.547591,-0.54702 0.363175,-0.61709 0.253431,-0.72221 z m 0,0"
         id="path18"
         style="fill:#2b2b2c;fill-opacity:1" />
      <path
         d="m 133.01376,92.755068 -1.01599,0.254297 -1.01938,0.144666 -1.05105,0.10963 h -1.05106 l -1.05446,-0.0712 -1.01598,-0.21813 -0.97978,-0.289333 -0.97639,-0.397834 -3.73923,-1.887447 -0.97978,-0.397834 -0.98092,-0.32889 -1.01485,-0.218131 -1.01599,-0.179703 -1.59751,3.878875 1.34295,0.148058 1.30562,0.254296 1.27281,0.397834 1.26942,0.469036 2.35555,1.269224 1.23434,0.54363 1.26942,0.472427 1.30901,0.362797 1.30449,0.254297 1.34409,0.10963 h 0.65168 l 0.36317,-0.03504 0.32923,-0.07459 0.57814,-0.32437 0.47179,-0.472427 0.39825,-0.54702 0.28963,-0.577537 0.21836,-0.65326 0.14482,-0.652131 0.0747,-0.690557 z m 0,0"
         id="path19"
         style="fill:#2b2b2c;fill-opacity:1" />
    </g>
  </g>
</svg>
