<?xml version="1.0" encoding="UTF-8" standalone="no"?>
<svg
   height="599.43457pt"
   viewBox="0 0 684.70807 599.43457"
   width="684.70807pt"
   version="1.1"
   id="svg8"
   xmlns="http://www.w3.org/2000/svg"
   xmlns:svg="http://www.w3.org/2000/svg">
  <defs
     id="defs8" />
  <g
     fill-rule="evenodd"
     id="g8"
     transform="translate(-0.00142199,-0.00114122)">
    <path
       d="M 197.46208,164.74369 104.11927,2.943062 103.54453,2.079583 102.82609,1.430844 102.03299,0.856698 101.0996,0.423828 100.16507,0.137885 99.158139,0.0644219 98.150073,0.137885 97.146533,0.423828 96.283285,0.856698 95.420036,1.430844 94.77062,2.079583 94.197007,2.943062 0.853066,164.74369 l -0.429927,0.93355 -0.288504,0.93807 -0.0701459,1.00702 0.0701459,1.00475 0.288504,1.00702 0.429927,0.86348 0.574744,0.86348 0.648285,0.64874 0.863248,0.57414 0.863248,0.42948 1.008066,0.28933 1.00354,0.0701 H 192.50208 l 1.00354,-0.0701 0.93679,-0.28933 0.93452,-0.42948 0.79311,-0.57414 0.71843,-0.64874 0.57361,-0.86348 0.42993,-0.86348 0.28963,-1.00702 0.0702,-1.00475 -0.0702,-1.00702 -0.28963,-0.93807 z m 0,0"
       fill="#2b2b2c"
       stroke="#2b2b2c"
       stroke-miterlimit="2.613"
       stroke-width="0.127844"
       transform="scale(3.452621,3.456221)"
       id="path1"
       style="fill:#2b2b2c;fill-opacity:1" />
    <path
       d="M 99.158139,18.114979 181.85686,161.50903 H 16.458285 Z m 0,0"
       fill="#f9a900"
       stroke="#2b2b2c"
       stroke-miterlimit="2.613"
       stroke-width="0.127844"
       transform="scale(3.452621,3.456221)"
       id="path2" />
    <path
       d="m 355.76172,352.16016 c 4.21875,-2.98047 12.16406,0.25781 23.34375,12.67968 10.92578,12.4336 19.85156,27.83985 32.01953,33.0625 12.17578,4.96875 18.87891,4.96875 30.04687,6.71094 11.16797,1.98438 20.60938,4.22656 44.9375,15.16016 24.08985,10.9375 41.47266,16.89062 39.73438,24.59765 -1,5.22657 -4.48047,5.96875 -5.96094,6.46875 -1.5,0.74219 -28.05469,-0.25781 -27.3125,3.22657 0.98438,2.98437 18.86719,6.21093 21.10547,5.71093 1.98438,-0.24218 4.46484,0.5 3.96484,1.74219 -0.73828,1.49609 -13.40625,6.72266 -40.95703,11.69141 -27.5664,4.96875 -48.91797,7.69531 -51.65625,10.4375 -2.72265,2.72656 -2.72265,1.73828 -4.96093,5.21093 -2.22657,3.73829 -12.90625,18.40235 -24.57422,26.35157 -11.92188,7.95312 -19.36719,10.9375 -23.34375,7.71093 -3.72266,-2.98437 -1.24219,-7.71093 1.23828,-11.9375 2.23828,-4.22265 9.9414,-18.88671 12.16406,-26.35156 2.24219,-7.45312 2.98047,-13.90625 2.98047,-13.90625 0,0 -1.98047,3.72656 -2.98047,5.71094 -0.73828,2.24219 -1.98047,4.72656 -1.98047,4.72656 0,0 -28.80859,0.98438 -57.35937,-3.98437 -30.03516,-5.21094 -40.21875,-10.19141 -41.95703,-9.69532 -1.48438,0.5 -9.1836,3.98438 -9.1836,3.98438 0,0 -7.20312,-4.22656 -11.42578,-6.46484 -4.21875,-1.98829 -6.70312,-3.72657 -6.70312,-3.72657 0,0 3.98046,0.74219 4.46484,-0.24609 0.25781,-1.25391 -2.22656,-3.48047 -9.92578,-5.22266 -7.94531,-1.5 -12.16406,0.74219 -14.14844,3.48438 -2.23828,2.48047 -5.96094,8.1914 -13.90625,14.41797 -7.94141,6.21093 -16.88281,12.66406 -19.86328,13.41797 -2.98047,0.74218 -5.21875,-2.73829 -2.98047,-4.72266 2.48047,-2.24219 13.40625,-11.67969 12.16406,-27.33984 -1.24218,-15.66016 -11.16797,-32.3086 -19.60937,-41.25782 -8.44141,-9.19531 -11.17969,-11.69531 -9.44141,-14.17578 1.9961,-2.47265 16.38672,5.72266 24.33203,11.69141 7.95703,5.95312 21.84766,21.11328 34.51172,20.6289 10.67969,-0.5 29.55078,-3.48437 60.83985,-10.9375 31.03125,-7.20703 47.41796,-12.17578 47.41796,-12.17578 l -9.18359,-1.5 c 0,0 11.16797,-5.71093 15.64453,-14.41797 4.70703,-8.69531 2.72266,-21.87109 -0.75781,-27.58203 -3.46484,-5.96875 -4.96094,-10.19531 -0.73828,-13.17968"
       fill="#2b2b2c"
       id="path3"
       style="fill:#2b2b2c;fill-opacity:1" />
    <path
       d="m 490.58594,442.63281 c 6.94922,1.4961 7.1914,-4.96875 0.98437,-6.45703 -6.44531,-1.49609 -7.9414,5.21485 -0.98437,6.45703"
       fill="#f9a900"
       id="path4" />
    <g
       fill="#2b2b2c"
       id="g7">
      <path
         d="m 498.53125,450.09766 0.98437,5.71093 4.22266,-5.96875 1.23828,5.72657 3.72266,-5.96875 1.24219,5.71093 3.97656,-5.96875 1,5.72657 3.96484,-6.22657 0.74219,5.96875 3.23828,-5.96875 z m 0,0"
         id="path5"
         style="fill:#2b2b2c;fill-opacity:1" />
      <path
         d="m 516.90234,461.51953 -0.5,-5.21094 -1.74218,4.22657 -3.46485,-4.96875 -1.2539,4.21093 -3.46485,-4.96875 -1.5,4.22657 -3.22265,-4.96875 -1.23829,4.22656 -3.22656,-4.96875 -0.49609,4.46875 z m 0,0"
         id="path6"
         style="fill:#2b2b2c;fill-opacity:1" />
      <path
         d="m 337.63281,301.71094 c -8.68359,-1.74219 -15.88672,-8.21094 -24.08594,-11.4375 -7.44531,-3.22657 -14.89062,-3.22657 -22.58984,-2.24219 -8.94141,1.25781 -15.88672,7.71094 -24.57422,11.4375 -7.45703,3.23828 -15.40234,2.73828 -22.84765,0.5 -0.74219,8.20703 3.22656,15.66016 8.1875,16.16016 10.4375,0.5 20.12109,-4.22657 29.55078,-10.19532 4.47656,-2.23828 8.69922,-3.72656 13.40625,-4.22265 10.92187,-1.74219 21.10547,4.22265 31.04687,10.1914 6.20313,3.48438 12.64844,5.21094 19.10938,5.21094 6.46094,0 12.90625,-1.72656 19.125,-5.21094 10.16797,-5.96875 20.10937,-11.93359 31.27344,-10.1914 4.48046,0.49609 8.9414,1.98437 13.16406,4.22265 9.68359,5.96875 19.36719,10.69532 29.79297,10.19532 4.96484,-0.5 8.9414,-7.95313 8.19921,-16.16016 -7.69921,2.23828 -15.40234,2.73828 -23.08984,-0.5 -8.44141,-3.72656 -15.64453,-10.17969 -24.58594,-11.4375 -7.44531,-0.98438 -15.14453,-0.98438 -22.58984,2.24219 -8.19922,3.22656 -15.40234,9.69531 -23.84375,11.4375 -2.48047,0.49609 -4.96484,0.74218 -7.44531,0.74218 0,0 -4.71875,-0.24609 -7.20313,-0.74218"
         id="path7"
         style="fill:#2b2b2c;fill-opacity:1" />
    </g>
  </g>
</svg>
