<?xml version="1.0" encoding="UTF-8" standalone="no"?>
<svg
   height="599.43457pt"
   viewBox="0 0 684.70807 599.43457"
   width="684.70807pt"
   version="1.1"
   id="svg15"
   xmlns="http://www.w3.org/2000/svg"
   xmlns:svg="http://www.w3.org/2000/svg">
  <defs
     id="defs15" />
  <g
     fill-rule="evenodd"
     stroke-miterlimit="2.613"
     transform="matrix(3.452621,0,0,3.456221,-0.00142439,-0.00119404)"
     id="g15">
    <path
       d="M 197.46208,164.74369 104.11927,2.938542 103.54453,2.076193 102.82609,1.427453 102.03299,0.853307 101.0996,0.423828 100.16507,0.134495 99.158139,0.0644219 98.150073,0.134495 97.146533,0.423828 96.283285,0.853307 95.420036,1.427453 94.77062,2.076193 94.197007,2.938542 0.853066,164.74369 l -0.429927,0.93355 -0.288504,0.93355 -0.0701459,1.00815 0.0701459,1.00814 0.288504,1.00363 0.429927,0.86348 0.574744,0.86235 0.648285,0.64874 0.863248,0.57414 0.863248,0.434 1.008066,0.28934 1.00354,0.0701 H 192.50208 l 1.00354,-0.0701 0.93679,-0.28934 0.93452,-0.434 0.79311,-0.57414 0.71843,-0.64874 0.57361,-0.86235 0.42993,-0.86348 0.28963,-1.00363 0.0702,-1.00814 -0.0702,-1.00815 -0.28963,-0.93355 z m 0,0"
       fill="#2b2b2c"
       stroke="#2b2b2c"
       stroke-width="0.127844"
       id="path1"
       style="fill:#2b2b2c;fill-opacity:1" />
    <path
       d="M 99.158139,18.110458 181.85686,161.50564 H 16.458285 Z m 0,0"
       fill="#f9a900"
       stroke="#2b2b2c"
       stroke-width="0.127844"
       id="path2" />
    <path
       d="m 166.1419,151.36089 -2.21413,-0.0701 -2.17679,-0.18423 -2.17905,-0.39783 -1.05105,-0.28933 -1.05106,-0.3628 -1.01486,-0.39896 -0.98091,-0.5425 -0.94471,-0.58206 -0.87117,-0.65213 -1.70726,-1.37998 -0.90624,-0.6171 -0.97639,-0.5425 -1.01598,-0.39896 -1.08953,-0.28821 -1.05106,-0.18422 -1.08952,-0.14467 -2.21526,-0.14466 h -2.21073 l -2.18018,0.14466 -2.21073,0.2543 -2.14398,0.434 -2.13719,0.58206 -2.10551,0.68716 -2.03084,0.72673 -4.13748,1.63202 -2.03423,0.76176 -2.10212,0.72333 -2.10551,0.6171 -2.14058,0.54702 -2.17905,0.39444 -2.17679,0.32776 -2.17566,0.21926 -2.21412,0.10963 -2.17566,0.035 -2.21526,-0.10963 -2.17565,-0.17971 -2.180186,-0.32776 -2.175656,-0.46903 -2.105511,-0.65665 -2.03084,-0.7968 -2.031971,-0.87139 -1.995766,-0.94146 -2.030839,-0.87027 -2.070438,-0.76176 -2.102117,-0.54363 -2.179051,-0.36279 -2.21073,-0.21926 -2.175657,-0.10511 -2.215256,0.035 -2.215255,0.14467 -2.175657,0.28933 -2.140584,0.47243 -2.105511,0.65213 -2.030839,0.83183 -1.995767,0.91095 -3.992664,1.92136 -2.030839,0.79679 -2.105511,0.6883 -2.140584,0.50746 -2.176789,0.32776 -2.214124,0.17971 h -2.175657 l -2.215255,-0.14467 -1.089526,-0.14467 -1.086131,-0.1797 -1.054453,-0.29272 -0.543065,-0.17971 -0.47292,-0.25316 -0.433321,-0.32889 -0.398248,-0.35941 -0.726351,-0.83522 -0.582664,-0.98102 -0.218358,-0.50747 -0.105219,-0.54363 v -0.5425 l 0.07015,-0.5425 0.363176,-1.05561 0.90624,0.50859 0.906241,0.47243 0.979781,0.39783 1.015986,0.29386 1.019379,0.24977 1.015986,0.1831 1.051058,0.14466 1.014854,0.10963 h 2.105511 l 2.105511,-0.14466 2.031971,-0.3628 1.014854,-0.2543 1.015985,-0.32776 1.922226,-0.76176 1.886022,-0.90643 1.852081,-0.9765 1.886022,-0.90642 1.887153,-0.87139 1.960693,-0.7968 1.996898,-0.65213 1.995767,-0.51198 2.065912,-0.3628 2.067044,-0.24978 2.105511,-0.14918 h 2.105511 l 2.065912,0.0395 2.105511,0.1797 2.070438,0.25317 2.030839,0.39896 2.031971,0.5425 1.960694,0.69169 1.957299,0.7968 1.886022,0.87139 1.92562,0.87139 1.922226,0.7968 1.995767,0.65213 2.031971,0.50746 2.070437,0.32889 2.06591,0.1797 2.10551,0.0735 2.06591,-0.0384 2.10551,-0.10963 2.07044,-0.21474 2.06704,-0.32889 2.03084,-0.43287 2.03537,-0.54702 1.99237,-0.61709 1.96069,-0.72334 1.9607,-0.76176 3.87952,-1.52239 1.9607,-0.68829 1.99576,-0.65213 2.03084,-0.54703 2.03537,-0.43287 2.06704,-0.29385 2.10551,-0.21474 2.06592,-0.0735 2.10551,0.0384 2.10551,0.10963 2.06591,0.28934 1.01598,0.21474 1.01599,0.25768 0.97978,0.32437 0.98091,0.39784 0.94132,0.47356 0.87117,0.50746 0.87116,0.61709 0.8361,0.65213 1.63259,1.26923 0.87117,0.57866 0.94131,0.43739 1.01938,0.35941 1.01599,0.21926 2.06591,0.2882 z m 0,0"
       fill="#2b2b2c"
       stroke="#2b2b2c"
       stroke-width="0.027966"
       id="path3"
       style="fill:#2b2b2c;fill-opacity:1" />
    <path
       d="m 80.654307,128.11477 -2.14511,-0.17971 -2.030839,-0.0746 -2.031971,-0.035 -2.03084,0.035 v -8.55794 l 2.358942,-1.16072 h 3.484672 l 2.395146,1.16072 z m 0,0"
       fill="#2b2b2c"
       stroke="#2b2b2c"
       stroke-width="0.027966"
       id="path4"
       style="fill:#2b2b2c;fill-opacity:1" />
    <path
       d="m 152.35255,127.46264 -1.12459,-0.2543 -1.1246,-0.21813 -2.06705,-0.28933 -1.99576,-0.17971 -1.88716,-0.10963 h -1.81587 l -1.85208,0.035 -1.84756,0.0746 -1.88602,0.17971 -1.85208,0.25316 -1.88602,0.28934 -1.81701,0.40235 -1.81248,0.434 -1.77741,0.50746 -1.66766,0.50747 -1.59752,0.57866 -1.56245,0.5425 -6.96481,-6.01949 -6.8596,-6.19919 -3.37493,-3.1205 -3.33646,-3.19171 -3.30478,-3.22675 -3.226716,-3.30021 L 92.516898,101.8216 89.435,98.41176 86.423248,94.895682 83.556314,91.271104 82.212226,89.419823 80.907737,87.532375 79.673394,85.575984 78.513723,83.545 77.53281,81.477849 l -0.437846,-1.051094 -0.35865,-1.089521 -0.293029,-1.124557 -0.219489,-1.160724 -0.03507,-1.124557 0.03507,-0.578667 0.109744,-0.582057 h 45.64807 z m 0,0"
       fill="#2b2b2c"
       stroke="#2b2b2c"
       stroke-width="0.027966"
       id="path5"
       style="fill:#2b2b2c;fill-opacity:1" />
    <path
       d="m 160.84474,142.18473 -5.87868,-10.19109 -1.34296,-0.50746 -1.34409,-0.39897 -1.30448,-0.32437 -1.26942,-0.25316 -1.19927,-0.18423 -1.19588,-0.14466 -2.28879,-0.17971 -2.17566,-0.0735 -2.17566,0.0384 -2.21525,0.14466 -2.21526,0.21474 -2.21073,0.32889 -2.17565,0.47243 -2.10552,0.5425 -2.07043,0.58206 -1.95617,0.6883 -1.88715,0.68716 -1.74234,0.65213 -1.77741,0.72673 -1.48777,0.58205 -1.45383,0.5425 -1.37917,0.46904 -1.37802,0.40235 -1.3407,0.32437 -1.34295,0.28934 -1.34409,0.21813 -1.37916,0.14466 -1.4527,0.10963 -1.41424,0.035 h -1.4493 l -1.34409,-0.0701 -1.26942,-0.10963 -1.19927,-0.17971 -1.121201,-0.25429 -1.054452,-0.3628 -1.159672,-0.43739 -1.269416,-0.54363 -0.801022,-0.3628 -0.871168,-0.39896 -1.777408,-0.7968 -0.980913,-0.43739 -1.014854,-0.39783 -2.140584,-0.76176 -2.21073,-0.65213 -2.285401,-0.54363 -2.250329,-0.39784 -2.250328,-0.25429 -2.179051,-0.14467 -2.140584,-0.0746 h -2.105511 l -2.140584,0.10963 -2.21073,0.1797 -2.250328,0.32776 -2.285402,0.434 -2.250328,0.58206 -2.249198,0.72672 -2.10551,0.7968 -1.015986,0.434 -0.906241,0.40235 -1.85208,0.86687 -1.850949,0.94486 -0.761423,0.434 -0.687883,0.36279 -0.616606,0.28934 -0.582665,0.25429 -0.980912,0.43739 -0.941314,0.28934 -0.979781,0.21474 -1.015985,0.10963 -1.089526,0.0735 -1.051058,-0.035 -1.015986,-0.10963 0.214964,1.16073 0.109744,0.5425 0.183285,0.47243 0.219489,0.36392 0.323577,0.43287 0.398248,0.47356 0.363175,0.43287 0.543066,0.39896 0.219489,0.1831 0.183285,0.10624 0.507992,0.21813 0.507993,0.0746 0.323577,0.035 h 0.691277 l 0.254562,-0.035 0.581533,-0.0746 0.687883,-0.0701 0.288504,-0.0746 0.219489,-0.035 0.906241,-0.1797 0.401642,-0.11302 0.324708,-0.0701 0.72635,-0.21926 0.687884,-0.21474 0.218357,-0.0746 0.253431,-0.1085 0.582664,-0.21474 0.581533,-0.25881 0.797628,-0.39784 1.921095,-0.9765 1.961824,-0.90643 1.995767,-0.87138 2.136058,-0.76177 2.215256,-0.61709 2.215255,-0.47243 2.249197,-0.32776 2.211862,-0.21474 2.179051,-0.0746 h 2.175657 l 2.215255,0.10963 2.21073,0.21813 2.215256,0.36393 2.249197,0.50746 2.176788,0.61709 2.105511,0.7968 1.995766,0.83635 1.922227,0.86687 0.90624,0.4374 0.834964,0.36392 1.707263,0.68717 1.667664,0.50746 1.707266,0.39897 1.7774,0.28933 1.81249,0.14806 1.85208,0.035 1.88602,-0.035 1.88715,-0.11302 1.85208,-0.17971 1.85095,-0.28933 1.81248,-0.36393 1.77741,-0.47242 1.81588,-0.57754 1.81248,-0.61709 1.81361,-0.72673 1.92562,-0.76176 1.9211,-0.76176 1.9969,-0.72333 2.06591,-0.68717 2.10551,-0.58545 2.18018,-0.50407 2.21073,-0.36393 2.21413,-0.25316 2.21186,-0.14467 2.21412,-0.035 2.21526,0.10511 2.2854,0.21926 1.1246,0.1831 1.19587,0.21474 1.16307,0.32889 1.19587,0.36279 1.1642,0.50747 1.15967,0.54363 1.12573,0.65213 1.01486,0.7222 0.94584,0.72672 0.79649,0.65213 0.3281,0.2543 0.32471,0.2543 0.54307,0.3628 0.54646,0.28933 z m 0,0"
       fill="#2b2b2c"
       stroke="#2b2b2c"
       stroke-width="0.027966"
       id="path6"
       style="fill:#2b2b2c;fill-opacity:1" />
    <path
       d="m 111.82175,94.278589 -1.34409,-5.839787 -0.54306,5.187656 -1.74121,1.922485 -2.75832,0.65213 -2.06591,-8.921865 3.73358,-0.87139 0.40277,-0.179703 0.28851,-0.32437 0.14481,-0.437391 v -0.434 l -0.18328,-0.397833 -0.32471,-0.292724 -0.39825,-0.179703 -0.47292,0.03504 -3.6985,0.871391 -0.54759,-2.250245 0.43784,-0.398963 0.28964,-0.507464 0.10861,-0.578667 -0.0735,-0.582057 -0.25456,-0.5425 -0.35865,-0.437391 -0.51252,-0.289333 -0.57814,-0.144667 -0.58153,0.07459 -0.54307,0.21474 -0.437842,0.362797 -0.323577,0.473557 -0.144818,0.577536 0.03507,0.582058 0.179891,0.54363 0.363175,0.472427 0.472921,0.32776 0.54307,0.179703 0.54306,2.245724 -3.734708,0.871391 -0.398248,0.184224 -0.289635,0.288203 -0.148212,0.434 v 0.437391 l 0.183285,0.398963 0.324708,0.288203 0.398248,0.184224 0.437847,-0.03956 3.738105,-0.86687 2.06591,8.956901 -2.75719,0.652131 -2.395146,-0.979891 -2.75719,-4.422505 1.342956,5.871432 4.35584,1.706615 6.89467,-1.596985 z m -9.95733,-13.01887 -0.043,-0.246386 -0.14368,-0.206828 -0.20365,-0.141276 -0.24551,-0.04295 -0.25004,0.04295 -0.20365,0.141276 -0.14482,0.206828 -0.0385,0.246386 0.0385,0.245255 0.14482,0.207958 0.20365,0.143537 0.25004,0.03956 0.24551,-0.03956 0.20365,-0.143537 0.14368,-0.207958 z m 0,0"
       fill="#f9a900"
       stroke="#f9a900"
       stroke-width="0.015981"
       id="path7" />
    <g
       fill="#2b2b2c"
       stroke="#2b2b2c"
       stroke-width="0.027966"
       id="g14">
      <path
         d="m 79.926825,113.28304 -0.108613,-0.76176 -0.254562,-0.72672 -0.398249,-0.6171 -0.546459,-0.54363 -0.613212,-0.39783 -0.72635,-0.2543 -0.762555,-0.10963 -0.761424,0.10963 -0.72635,0.2543 -0.617737,0.39783 -0.543066,0.54363 -0.398248,0.6171 -0.257956,0.72672 -0.105219,0.76176 0.105219,0.76176 0.257956,0.7222 0.398248,0.6171 0.543066,0.54702 0.617737,0.39896 0.72635,0.25317 0.761424,0.10963 0.762555,-0.10963 0.72635,-0.25317 0.613212,-0.39896 0.546459,-0.54702 0.398249,-0.6171 0.254562,-0.7222 z m 0,0"
         id="path8"
         style="fill:#2b2b2c;fill-opacity:1" />
      <path
         d="m 76.516825,119.88459 -0.07354,-0.54702 -0.254562,-0.50747 -0.398249,-0.3594 -0.472919,-0.25769 -0.543066,-0.0712 -0.54646,0.0712 -0.468394,0.25769 -0.402774,0.3594 -0.250036,0.50747 -0.07354,0.54702 0.07354,0.5425 0.250036,0.47243 0.402774,0.39896 0.468394,0.2543 0.54646,0.0701 0.543066,-0.0701 0.472919,-0.2543 0.398249,-0.39896 0.254562,-0.47243 z m 0,0"
         id="path9"
         style="fill:#2b2b2c;fill-opacity:1" />
      <path
         d="m 80.036569,119.88459 -0.109744,-0.54702 -0.253431,-0.50747 -0.363175,-0.3594 -0.507993,-0.25769 -0.543065,-0.0712 -0.54646,0.0712 -0.469526,0.25769 -0.401642,0.3594 -0.254562,0.50747 -0.07015,0.54702 0.07015,0.5425 0.254562,0.47243 0.401642,0.39896 0.469526,0.2543 0.54646,0.0701 0.543065,-0.0701 0.507993,-0.2543 0.363175,-0.39896 0.253431,-0.47243 z m 0,0"
         id="path10"
         style="fill:#2b2b2c;fill-opacity:1" />
      <path
         d="m 63.853212,107.224 -0.07467,-0.54251 -0.253431,-0.50859 -0.398248,-0.39783 -0.472919,-0.21926 -0.543066,-0.10511 -0.543066,0.10511 -0.507992,0.21926 -0.363176,0.39783 -0.25343,0.50859 -0.07467,0.54251 0.07467,0.50746 0.25343,0.51198 0.363176,0.39897 0.507992,0.21474 0.543066,0.10963 0.543066,-0.10963 0.472919,-0.21474 0.398248,-0.39897 0.253431,-0.51198 z m 0,0"
         id="path11"
         style="fill:#2b2b2c;fill-opacity:1" />
      <path
         d="m 92.701314,107.224 -0.109745,-0.54251 -0.254562,-0.50859 -0.363175,-0.39783 -0.507993,-0.21926 -0.541934,-0.10511 -0.547591,0.10511 -0.47292,0.21926 -0.398248,0.39783 -0.214964,0.50859 -0.108613,0.54251 0.108613,0.50746 0.214964,0.51198 0.398248,0.39897 0.47292,0.21474 0.547591,0.10963 0.541934,-0.10963 0.507993,-0.21474 0.363175,-0.39897 0.254562,-0.51198 z m 0,0"
         id="path12"
         style="fill:#2b2b2c;fill-opacity:1" />
      <path
         d="m 76.008832,118.6504 -2.468686,2.46386 -12.663613,-12.65608 2.468686,-2.50341 z m 0,0"
         id="path13"
         style="fill:#2b2b2c;fill-opacity:1" />
      <path
         d="m 92.193321,108.45818 -12.703212,12.65607 -2.465291,-2.46385 12.664744,-12.69563 z m 0,0"
         id="path14"
         style="fill:#2b2b2c;fill-opacity:1" />
    </g>
  </g>
</svg>
