<?xml version="1.0" encoding="UTF-8" standalone="no"?>
<svg
   height="599.43457pt"
   viewBox="0 0 870.93994 599.43457"
   width="870.93994pt"
   version="1.1"
   id="svg6"
   xmlns="http://www.w3.org/2000/svg"
   xmlns:svg="http://www.w3.org/2000/svg">
  <defs
     id="defs6" />
  <g
     fill-rule="evenodd"
     stroke-miterlimit="2.613"
     transform="matrix(3.452621,0,0,3.456221,-0.00142199,-0.00113924)"
     id="g6">
    <path
       d="M 197.46208,164.74369 104.12266,2.943062 103.54453,2.079583 102.82609,1.430844 102.03639,0.856698 101.0996,0.423828 100.16507,0.137885 99.158139,0.0644219 98.153467,0.137885 97.146533,0.423828 96.283285,0.856698 95.420036,1.430844 94.77062,2.079583 94.197007,2.943062 0.857591,164.74369 l -0.434452,0.93355 -0.288504,0.93807 -0.0701459,1.00702 0.0701459,1.00475 0.288504,1.00702 0.434452,0.86348 0.573613,0.86348 0.644891,0.64874 0.863248,0.57414 0.863248,0.42948 1.008066,0.28933 1.006934,0.0701 H 192.50208 l 1.00693,-0.0701 0.9334,-0.28933 0.93452,-0.42948 0.79311,-0.57414 0.71843,-0.64874 0.57361,-0.86348 0.43445,-0.86348 0.28511,-1.00702 0.0735,-1.00475 -0.0735,-1.00702 -0.28511,-0.93807 z m 0,0"
       fill="#2b2b2c"
       stroke="#2b2b2c"
       stroke-width="0.127844"
       id="path1"
       style="fill:#2b2b2c;fill-opacity:1" />
    <path
       d="M 99.158139,18.114979 181.85686,161.50903 H 16.458285 Z m 0,0"
       fill="#f9a900"
       stroke="#2b2b2c"
       stroke-width="0.127844"
       id="path2" />
    <g
       fill="#2b2b2c"
       stroke="#2b2b2c"
       stroke-width="0.027966"
       id="g5">
      <path
         d="m 161.49755,147.4741 0.14482,0.18423 0.10861,0.21813 0.10975,0.50407 0.0702,1.01606 -0.0351,0.50746 -0.10861,0.51199 -0.25456,0.4679 -0.3281,0.36393 -0.43333,0.28933 -0.47292,0.1831 -0.94131,0.39896 -0.94471,0.32776 -0.98091,0.28933 -0.97639,0.21474 -1.01938,0.14806 -2.03197,0.10511 h -2.03084 l -1.01598,-0.035 -1.01486,-0.10963 -1.01598,-0.14353 -0.98091,-0.17971 -1.01486,-0.25429 -0.94584,-0.32776 -3.80825,-1.45006 -1.92222,-0.65552 -1.96069,-0.50407 -1.01599,-0.18423 -1.01599,-0.14353 -1.01485,-0.10964 h -1.01599 l -1.01938,0.035 -0.97638,0.10963 -2.03197,0.3628 -1.9607,0.50746 -0.94131,0.32889 -0.94471,0.39784 -1.92222,0.68829 -1.9607,0.58206 -1.96182,0.46791 -2.03084,0.25429 -1.01599,0.0746 h -1.01485 l -1.01599,-0.0746 -1.01598,-0.14466 -1.99577,-0.434 -1.96069,-0.5425 -1.92223,-0.65665 -1.88602,-0.76177 -0.94245,-0.32323 -0.97978,-0.2543 -1.99576,-0.39897 -2.03197,-0.21813 h -1.014857 l -1.020511,0.035 -1.014854,0.10963 -1.015986,0.1831 -1.957299,0.46903 -1.960693,0.6171 -3.773176,1.45344 -0.980912,0.32437 -0.979781,0.28821 -1.992372,0.40235 -2.035365,0.1797 -2.03084,0.035 -1.015985,-0.035 -1.015985,-0.1085 -0.979781,-0.1797 -1.015986,-0.18422 -0.980912,-0.28934 -0.941314,-0.2882 -3.811642,-1.45345 -1.922227,-0.65213 -1.995766,-0.50859 -0.980913,-0.17971 -1.015985,-0.14353 -1.014854,-0.0746 h -1.015985 l -2.03084,0.1831 -1.996898,0.32437 -1.960693,0.54702 -1.887153,0.75837 -1.921095,0.69056 -1.960694,0.57866 -1.957299,0.43739 -2.031971,0.28934 -2.034233,0.0735 -0.507993,-0.0735 -0.47292,-0.10963 -0.468394,-0.21926 -0.437847,-0.28821 -0.398248,-0.32437 -0.324708,-0.36392 -0.293029,-0.43739 -0.214963,-0.43287 -0.183285,-0.5086 -0.109745,-0.47243 -0.03507,-1.01605 1.922227,0.29385 1.92562,0.17971 1.922226,-0.0362 0.979781,-0.1085 0.942446,-0.14467 1.850948,-0.50746 1.852081,-0.65665 3.58989,-1.34043 1.886022,-0.50746 0.94584,-0.14467 0.944708,-0.10963 1.957299,-0.14354 h 1.922226 l 1.925621,0.1085 1.886022,0.32437 1.887153,0.5086 1.812482,0.61709 3.629489,1.34382 1.850949,0.5425 0.941313,0.1797 0.980913,0.10963 1.92562,0.14467 h 0.941314 l 0.980913,-0.0712 1.921094,-0.25316 0.94584,-0.21926 0.906241,-0.25317 1.850949,-0.61822 1.777408,-0.68717 1.812482,-0.65213 1.85208,-0.54702 0.941314,-0.21474 0.980913,-0.18309 1.92562,-0.17971 h 1.921095 l 1.92222,0.1085 1.92562,0.17971 1.88716,0.434 1.81248,0.62161 1.81248,0.68717 1.81588,0.68716 1.85208,0.54702 1.88715,0.32437 0.97639,0.0735 h 0.9447 l 1.92223,-0.0735 1.92562,-0.21926 0.94131,-0.2882 0.90625,-0.28933 1.817,-0.65213 1.81248,-0.69169 1.81588,-0.61709 1.88715,-0.46904 1.9211,-0.2543 1.92223,-0.1085 h 1.92562 l 1.92222,0.17971 1.88716,0.32776 1.88602,0.5425 1.817,0.65213 1.77741,0.69168 1.85095,0.65213 1.84756,0.47356 0.94584,0.14467 0.97978,0.1085 1.92222,0.10624 1.92223,0.0384 0.97978,-0.10964 0.94584,-0.18309 1.84756,-0.50746 1.85094,-0.54363 z m 0,0"
         id="path3"
         style="fill:#2b2b2c;fill-opacity:1" />
      <path
         d="m 161.49755,139.4937 -1.85094,0.6171 -1.85208,0.58205 -1.84756,0.47243 -0.94584,0.21474 -0.97978,0.10963 -1.92223,-0.035 -1.92222,-0.10964 -0.97978,-0.10963 -0.94584,-0.14353 -1.84756,-0.5086 -1.85095,-0.61709 -1.77741,-0.68717 -1.817,-0.65213 -1.88602,-0.54702 -1.88716,-0.36392 -1.92222,-0.14354 h -1.92562 l -1.92223,0.1085 -1.9211,0.2543 -1.88715,0.47242 -1.81588,0.6171 -1.81248,0.68829 -1.817,0.6171 -0.90625,0.32324 -0.94131,0.25882 -1.92562,0.25316 -1.92223,0.0701 -0.9447,-0.035 -0.97639,-0.035 -1.88715,-0.32776 -1.85208,-0.58206 -1.81588,-0.65213 -1.81248,-0.68829 -1.81248,-0.6171 -1.88716,-0.47242 -1.92562,-0.17971 -1.922223,-0.10963 -1.921095,0.0362 -1.92562,0.18309 -0.980913,0.17971 -0.941314,0.1797 -1.85208,0.58206 -1.812482,0.65213 -1.777408,0.69168 -1.850949,0.61371 -0.906241,0.25769 -0.94584,0.21473 -1.921094,0.25317 -0.980913,0.0396 h -0.941314 l -1.92562,-0.10963 -0.980913,-0.14467 -0.941313,-0.18309 -1.850949,-0.50747 -3.629489,-1.34381 -1.812482,-0.65326 -1.886022,-0.50747 -1.887153,-0.28933 -1.925621,-0.14467 -1.922226,0.0362 -1.957299,0.14467 -0.944708,0.1085 -0.94584,0.14466 -1.886022,0.50747 -3.58989,1.34381 -1.852081,0.65326 -1.850948,0.47243 -0.942446,0.1797 -0.979781,0.0735 -1.922226,0.0362 -1.92562,-0.14466 -1.922227,-0.32889 0.03507,1.01605 0.109745,0.50747 0.183285,0.47243 0.214963,0.47355 0.293029,0.39784 0.324708,0.39896 0.398248,0.32437 0.437847,0.29272 0.468394,0.17971 0.47292,0.14805 0.507993,0.035 2.034233,-0.035 2.031971,-0.29272 1.957299,-0.434 1.960694,-0.61709 1.921095,-0.69169 1.887153,-0.72221 1.960693,-0.5425 1.996898,-0.36392 2.03084,-0.14467 h 1.015985 l 1.014854,0.0712 1.015985,0.1085 0.980913,0.21926 1.995766,0.50747 1.922227,0.6137 3.811642,1.45232 0.941314,0.32889 0.980912,0.25317 1.015986,0.21587 0.979781,0.14353 1.015985,0.10963 1.015985,0.035 h 2.03084 l 2.035365,-0.21474 1.992372,-0.3628 0.979781,-0.29272 0.980912,-0.32437 1.886022,-0.76176 1.887154,-0.6883 1.960693,-0.61709 1.957299,-0.47243 1.015986,-0.1797 1.014854,-0.10963 1.020511,-0.0735 1.01486,0.0384 2.03197,0.1797 1.99576,0.39897 0.98092,0.28933 0.94131,0.32776 1.88602,0.72673 1.92223,0.65213 1.96069,0.57753 1.99577,0.40236 1.01598,0.14466 1.01599,0.10963 h 1.01485 l 1.01599,-0.0746 2.03197,-0.2882 1.96069,-0.43739 1.9607,-0.57867 1.92222,-0.69169 0.94471,-0.39783 0.94131,-0.32889 1.9607,-0.50295 2.03197,-0.36392 0.97639,-0.10963 1.01938,-0.0735 1.01598,0.0384 1.01485,0.0712 1.01599,0.14354 1.01599,0.21926 1.96069,0.50746 1.92223,0.65213 3.80824,1.45345 0.94584,0.28934 1.01486,0.25429 0.98091,0.21813 1.01598,0.14467 1.01486,0.0701 1.01598,0.035 h 2.03084 l 2.03197,-0.0701 1.01938,-0.14467 0.97639,-0.21813 0.98091,-0.28933 0.94471,-0.36393 0.94132,-0.3628 0.47291,-0.21813 0.43333,-0.2543 0.3281,-0.39896 0.25456,-0.46791 0.10861,-0.47355 0.0351,-0.50747 -0.0702,-1.01605 -0.10974,-0.50747 -0.10862,-0.21813 z m 0,0"
         id="path4"
         style="fill:#2b2b2c;fill-opacity:1" />
      <path
         d="m 82.357044,125.74811 h -23.25792 l -0.761423,-3.00861 0.03507,-0.32777 0.218357,-0.29272 0.328103,-0.0701 h 20.972518 l 0.543066,0.1085 0.472919,0.28933 0.288504,0.47243 z M 97.45427,73.841031 101.99,89.986057 h -1.96069 l -8.273836,-16.652489 0.288504,-0.254297 0.328102,-0.179703 0.727482,-0.21813 h 0.761423 l 0.761424,0.10963 0.72635,0.179703 0.727482,0.253167 z m 8.01588,-0.179703 v 16.324729 h -1.99238 l -4.609266,-16.324729 0.691277,-0.582057 0.797629,-0.43287 0.87117,-0.289333 0.90624,-0.07459 0.90624,0.144667 0.87117,0.289333 0.79989,0.437391 z m 8.05887,0.10963 -4.64435,16.215099 h -1.9969 V 73.661328 l 0.76256,-0.507463 0.7965,-0.437391 0.87116,-0.32437 0.43785,-0.07459 0.46839,-0.03504 0.47292,0.03504 0.43332,0.109631 0.87117,0.32889 0.80102,0.467907 z m 7.07456,-0.43739 -8.27383,16.652489 h -1.9573 l 4.60587,-16.180062 1.37916,-0.617094 0.69128,-0.254297 0.72635,-0.179703 0.76142,-0.07346 0.72635,0.03504 0.72296,0.183094 0.3281,0.179703 z m -13.02792,21.835625 -0.10975,-0.577537 -0.25343,-0.508594 -0.39825,-0.397833 -0.50799,-0.254297 -0.58153,-0.10963 -0.57814,0.10963 -0.50799,0.254297 -0.39825,0.397833 -0.25796,0.508594 -0.10635,0.577537 0.10635,0.582057 0.25796,0.508594 0.39825,0.397833 0.50799,0.254297 0.57814,0.10963 0.58153,-0.10963 0.50799,-0.254297 0.39825,-0.397833 0.25343,-0.508594 z m 4.02773,-3.769245 -3.22671,6.526953 -0.25456,-0.253167 -0.3281,-0.10963 -0.36318,-0.03504 -2.53883,0.43287 -0.36318,0.184223 -0.2885,0.289334 -3.51975,-7.035547 z m 10.12479,-17.159953 -12.88311,25.902115 1.01599,6.05453 v 0.36392 l -0.14482,0.3628 -0.25343,0.32437 -3.84445,3.1205 3.33646,3.66414 0.21836,0.39896 0.0747,0.43739 -0.10975,0.39897 -0.25343,0.3594 -0.39825,0.21813 -0.43784,0.0746 -0.39825,-0.10963 -0.36318,-0.2543 -0.25456,-0.32776 -0.14482,0.43739 -0.25343,0.32437 -0.36317,0.21813 -0.43785,0.0746 -0.39825,-0.11303 -0.36317,-0.28933 -4.09788,-4.531 -0.21836,-0.39897 -0.0747,-0.43739 0.14821,-0.43287 0.25003,-0.36393 4.2857,-3.44487 -0.80102,-4.57056 -13.168217,23.97624 h 12.769967 l 3.01175,9.17616 -1.63259,-0.65213 -1.70726,-0.47243 -1.73781,-0.32889 -1.77741,-0.1797 h -1.781939 l -1.777408,0.1797 -1.742336,0.32889 -1.702737,0.47243 -1.67219,0.57753 -1.667664,0.65326 -1.632592,0.65553 -1.707262,0.50746 -1.737811,0.39896 -1.742335,0.21926 -1.781935,0.0701 -1.777408,-0.035 -1.777409,-0.18422 -1.741205,-0.3628 -1.668795,-0.50859 -1.667664,-0.61258 -3.339854,-1.23419 -1.702738,-0.50859 -1.742335,-0.39783 -1.742336,-0.21926 -1.777409,-0.035 -1.780803,0.1797 -1.738941,0.28934 -1.707263,0.43739 -0.870037,0.25429 -0.797627,0.32324 -1.67219,0.65666 -1.667664,0.57866 -7.511278,-9.86785 H 57.61135 l -2.648576,-3.87887 -0.254562,-0.5425 -0.07354,-0.62162 0.108613,-0.61257 0.293029,-0.54702 0.434452,-0.434 0.796497,-0.3628 0.836095,-0.10963 h 30.699051 l 2.683649,5.44083 13.171602,-23.93669 -13.061857,-26.261518 -0.144818,-0.219261 -0.07467,-0.254296 0.03507,-0.507464 0.367701,-1.30426 0.503467,-1.270355 0.656204,-1.199151 0.762555,-1.159593 0.831569,-1.051094 0.94584,-1.016057 1.014854,-0.940334 1.051058,-0.836354 1.124599,-0.796797 1.19927,-0.65213 1.234348,-0.617094 1.26941,-0.473557 1.30562,-0.397833 1.34296,-0.289334 1.37916,-0.148057 1.37916,-0.03504 1.34409,0.148057 1.33956,0.254297 1.34296,0.359406 1.27054,0.472427 1.23435,0.582057 1.19474,0.687167 1.1642,0.726724 1.05106,0.871391 1.01485,0.901906 0.98091,0.97989 0.8361,1.055615 0.7965,1.121167 0.65281,1.199151 0.58153,1.269224 0.36317,1.30426 0.0701,0.328891 v 0.362797 l -0.0701,0.324369 z m 0,0"
         id="path5"
         style="fill:#2b2b2c;fill-opacity:1" />
    </g>
  </g>
  <circle
     id="path6"
     style="fill:#2b2b2c;stroke:#000000;stroke-width:0.75"
     cx="869.9986"
     cy="310.49887"
     r="0.56635809" />
</svg>
