<?xml version="1.0" encoding="UTF-8" standalone="no"?>
<svg
   height="523.59998"
   width="599.75"
   version="1.1"
   id="svg3"
   xmlns="http://www.w3.org/2000/svg"
   xmlns:svg="http://www.w3.org/2000/svg">
  <defs
     id="defs3" />
  <path
     d="M 597.575,499.6 313.775,8 c -2.9,-5 -8.2,-8 -13.9,-8 -5.7,0 -11,3.1 -13.9,8 L 2.175,499.6 c -2.9,5 -2.9,11.1 0,16 2.9,5 8.2,8 13.9,8 h 567.6 c 5.7,0 11,-3.1 13.9,-8 2.9,-5 2.9,-11.1 0,-16 z"
     id="path1"
     style="fill:#2b2b2c;fill-opacity:1" />
  <path
     d="m 43.8725,491.52526 256.005,-441.488933 256,441.488933 z"
     fill="#f9a900"
     id="path2"
     style="stroke-width:0.997955" />
  <path
     d="M 247.82031,281.86133 240.54882,282 l -7.27734,0.70312 -3.7168,0.6875 -3.55664,0.68946 -7.00391,2.23242 -6.85742,2.50586 -6.72265,2.65234 -7.00586,2.35352 -3.42774,0.98828 -3.57617,0.82227 -7.26562,0.97656 -0.79493,0.0332 -8.5332,14.7168 h 7.67188 l 7.69921,-0.82227 7.53907,-1.39648 3.70312,-1.12305 3.70899,-1.24219 7.13867,-2.92187 7.13672,-2.63867 7.41211,-2.37305 7.40625,-1.8125 3.84375,-0.6875 3.83593,-0.42187 3.86329,-0.2793 3.83593,0.14648 7.68555,0.68946 7.55273,1.52929 3.70899,1.10938 3.5625,1.25781 7.13281,2.78711 7.27149,2.50586 7.4121,2.21094 7.55274,1.54492 3.8418,0.56055 3.84375,0.41601 h 3.83593 l 3.84375,-0.28125 7.68555,-1.10937 7.41992,-1.67774 7.41797,-2.21875 7.26563,-2.6543 3.57617,-1.52929 3.5625,-1.26367 7.41211,-1.92579 7.68554,-1.39648 3.69532,-0.41992 3.85742,-0.28125 3.8418,0.14648 3.83789,0.26758 3.84179,0.55469 3.84375,0.84179 7.41992,1.94532 7.27149,2.50586 14.40234,5.57422 2.19922,0.68164 -11.16797,-19.25782 -0.89648,-0.35156 -6.87695,-2.50586 -7.13086,-2.09961 -7.13868,-1.39648 -7.27148,-0.54688 h -7.28516 l -7.27148,0.41407 -7.26563,0.9746 -7.13867,1.8125 -6.87109,2.37305 -6.84961,2.63867 -6.87695,2.36719 -3.42969,1.24219 -3.55664,0.99023 -7.28516,0.97461 -7.27148,0.26758 -3.57422,-0.13281 -3.68946,-0.13477 -7.13867,-1.26367 -7.0039,-2.23242 -6.8711,-2.49805 -6.85742,-2.64062 -6.85742,-2.37305 -7.13867,-1.81055 -7.28516,-0.68945 z m -7.27149,30.62305 -7.28515,0.69531 -3.70899,0.70117 -3.5625,0.82226 -7.00391,2.09961 -6.85742,2.50586 -6.72461,2.63282 -6.99804,2.37304 -3.42774,0.96875 -3.57617,0.8418 -7.26562,0.97656 -3.71485,0.27344 h -3.55664 l -7.28515,-0.55469 -3.50586,-0.39648 -7.68946,13.25976 1.17774,0.35157 3.84179,0.70898 3.70313,0.6875 3.84375,0.42188 3.8418,0.13281 7.6875,-0.13281 7.69921,-0.69532 7.53321,-1.54492 3.70898,-1.10156 3.70899,-1.24414 14.26953,-5.58008 7.41797,-2.36719 7.40625,-1.79687 3.84375,-0.70117 3.83593,-0.42188 3.86329,-0.14062 h 3.83593 l 7.68555,0.84179 7.54687,1.53125 3.70899,0.97657 3.5625,1.23632 7.13867,2.92578 7.27149,2.52149 7.4121,2.07812 7.55274,1.66407 3.8418,0.55468 3.84375,0.28711 h 3.83593 l 3.84375,-0.28711 7.67969,-0.97656 7.42578,-1.79101 7.41211,-2.23243 7.27149,-2.64648 3.57617,-1.52344 3.55469,-1.26367 7.41992,-1.94531 7.68554,-1.38867 3.69532,-0.42188 3.85742,-0.14062 h 3.8418 l 3.83789,0.42187 3.84179,0.55469 3.84375,0.70703 7.41992,1.93164 7.26368,2.51367 14.41015,5.56836 3.57617,1.25586 3.83594,0.97656 3.7168,0.6875 3.8418,0.55469 3.83789,0.42188 2.98632,0.10351 -9.08984,-15.67578 -1.86328,-0.28906 -6.98438,-1.81836 -7.00586,-2.49805 -6.72265,-2.6543 -6.87109,-2.50586 -7.13086,-2.07812 -7.13868,-1.25781 -7.27148,-0.69531 h -7.28516 l -7.27148,0.42187 -7.26563,0.97656 -7.13867,1.79688 -6.87109,2.36523 -6.85742,2.66016 -6.86914,2.5 -3.42969,1.10937 -3.5625,1.10938 -7.2793,0.83594 -7.27148,0.28711 h -3.57422 l -3.69727,-0.28711 -7.13672,-1.24219 -7.00586,-2.09961 -6.86328,-2.63281 -6.85742,-2.64063 -6.85742,-2.38672 -7.13867,-1.66406 -7.28516,-0.6875 -7.27148,-0.42187 z m -37.18164,45.83593 -12.12891,13.94922 -12.13085,13.94922 18.0039,-0.11328 v 43.22851 h 13.38867 v -43.32226 l 18.01172,-0.1211 -12.57226,-13.7871 z m 97.42188,0 -12.13086,13.94922 -12.13086,13.94922 18.00586,-0.11328 v 43.22851 h 13.38672 v -43.32226 l 18.01171,-0.1211 -12.57031,-13.7871 z m 97.41406,0 -12.13086,13.94922 -12.13086,13.94922 18.00586,-0.11328 v 43.22851 h 13.38672 v -43.32226 l 18.01172,-0.1211 -12.57032,-13.7871 z M 94.333982,450.14648 84.054685,467.87305 H 515.69531 l -10.2793,-17.72657 z"
     fill="#2b2b2c"
     fill-rule="evenodd"
     stroke="#2b2b2c"
     stroke-miterlimit="2.613"
     stroke-width="0.106547"
     id="path3" />
</svg>
