<?xml version="1.0" encoding="UTF-8" standalone="no"?>
<!-- Created with Inkscape (http://www.inkscape.org/) -->

<svg
   width="70.285728mm"
   height="61.382912mm"
   viewBox="0 0 70.285728 61.382912"
   version="1.1"
   id="svg1"
   inkscape:version="1.4 (86a8ad7, 2024-10-11)"
   sodipodi:docname="ISO_7010_W082.svg"
   xmlns:inkscape="http://www.inkscape.org/namespaces/inkscape"
   xmlns:sodipodi="http://sodipodi.sourceforge.net/DTD/sodipodi-0.dtd"
   xmlns="http://www.w3.org/2000/svg"
   xmlns:svg="http://www.w3.org/2000/svg">
  <sodipodi:namedview
     id="namedview1"
     pagecolor="#ecece7"
     bordercolor="#2b2b2c"
     borderopacity="0.25"
     inkscape:showpageshadow="2"
     inkscape:pageopacity="0.0"
     inkscape:pagecheckerboard="0"
     inkscape:deskcolor="#9b2423"
     inkscape:document-units="mm"
     inkscape:zoom="0.73851712"
     inkscape:cx="207.84894"
     inkscape:cy="226.80585"
     inkscape:window-width="1920"
     inkscape:window-height="1009"
     inkscape:window-x="1912"
     inkscape:window-y="-8"
     inkscape:window-maximized="1"
     inkscape:current-layer="layer1" />
  <defs
     id="defs1" />
  <g
     inkscape:label="Ebene 1"
     inkscape:groupmode="layer"
     id="layer1"
     transform="translate(-50.00625,-88.370833)">
    <path
       d="M 85.149118,90.244941 118.41782,147.87945 H 51.880408 Z"
       fill="#f9a900"
       stroke-linejoin="round"
       stroke="#2b2b2c"
       stroke-width="3.74859"
       id="path1-5"
       inkscape:label="1" />
    <path
       id="path1-9"
       style="fill:#2b2b2c;fill-opacity:1;stroke-width:1;stroke-linecap:round"
       d="m 81.238603,111.06083 v 7.8e-4 c -0.24614,0.002 -0.454124,0.18942 -0.477329,0.43982 -0.02464,0.26729 0.170977,0.5027 0.438266,0.52731 l 3.239666,0.29842 2.277223,1.75929 -4.367733,1.71709 c -0.111415,0.0438 -0.228422,0.1483 -0.276541,0.20155 -0.04792,0.0535 -2.417844,2.22488 -2.417844,2.22488 l -2.896715,-2.09286 c -0.252383,-0.18241 -0.601986,-0.12578 -0.78433,0.12653 -0.182345,0.25231 -0.125776,0.60198 0.126531,0.78433 l 3.153739,2.27956 c 0.04233,0.0307 0.08768,0.0538 0.134393,0.0711 0.21713,0.16388 0.525296,0.15644 0.735124,-0.0328 l 2.292053,-2.06785 c 0.132881,0.24257 0.277493,0.49871 0.357796,0.76012 l 1.2554,3.24279 c 0.331946,1.27312 0.584737,2.5829 0.8648,3.87322 0.06591,0.30422 0.363707,0.49645 0.667927,0.43045 0.304236,-0.0661 0.496437,-0.3645 0.43045,-0.66872 l -0.831209,-3.83025 c -0.01814,-0.0893 -0.01361,-0.15057 -0.04218,-0.22656 l -1.163215,-3.00609 3.719322,-1.46163 c 1.562372,1.54223 3.042718,3.10843 4.51304,4.7349 0.185883,0.20569 0.500519,0.22177 0.706205,0.036 0.205686,-0.1859 0.221801,-0.50129 0.03598,-0.70699 -1.461767,-1.61698 -2.931848,-3.11017 -4.429457,-4.64975 0.01209,-0.0812 -0.317252,-0.5846 -0.396844,-0.71872 -0.07967,-0.13409 -0.196087,-0.96791 -0.196087,-0.96791 -0.101437,-0.2451 -0.170916,-0.48831 -0.388257,-0.65621 l -2.62096,-2.02489 c -0.109147,-0.0844 -0.242089,-0.11489 -0.36794,-0.0961 l -3.242024,-0.29763 c -0.01648,-10e-4 -0.03265,-0.003 -0.04913,-0.003 z m 8.552653,2.06239 c -0.58894,-5e-5 -1.066419,0.47737 -1.066344,1.06634 3.78e-4,0.58865 0.477707,1.06562 1.066344,1.06557 0.588637,5e-5 1.06598,-0.47692 1.066358,-1.06557 4.6e-5,-0.58894 -0.477404,-1.06639 -1.066358,-1.06634 z m 7.100395,10.63067 c -0.350994,0.002 -0.73913,0.0336 -1.064787,0.10779 -0.257991,0.0587 -0.441425,0.18027 -0.578085,0.26327 -0.13666,0.083 -0.221771,0.1288 -0.336707,0.14769 -0.256737,0.0422 -0.567851,0.005 -0.91245,-0.0352 -0.401228,-0.0456 -0.855593,-0.22628 -1.399921,-0.27186 -0.502726,-0.0422 -0.989835,0.0461 -1.443671,0.20625 0.03976,-0.0136 -0.189314,0.008 -0.407003,0.0296 -0.108845,0.0106 -0.227274,0.0192 -0.372642,0.10627 -0.145277,0.0871 -0.281408,0.33789 -0.256238,0.53201 0.04671,0.36028 0.02812,0.76675 0.006,1.17493 -0.02464,0.44058 -0.02933,0.86027 -0.1031,1.23432 -0.263418,1.33809 -0.720852,1.45993 -1.295234,2.84359 -0.461123,1.11083 -1.269097,3.30626 -1.631171,4.49664 -0.08995,0.29567 -0.151913,0.62374 -0.209359,0.95072 h -0.04686 l -0.02963,0.3453 c -0.20756,2.4301 0.339822,7.0832 0.339822,7.0832 l 0.03825,0.33358 H 109.94705 L 99.35778,124.96316 c -0.03613,-0.13772 -0.245157,-0.81871 -0.955413,-0.95933 -0.362074,-0.0717 -0.689318,-0.21691 -1.174946,-0.24218 -0.105217,-0.006 -0.218128,-0.009 -0.335135,-0.008 z m -8.316733,0.22734 c -0.0136,-5.2e-4 -0.02691,-3e-5 -0.04142,7.7e-4 l 7.86e-4,0.002 c -0.209571,0.0121 -0.37373,0.0487 -0.55231,0.068 -0.08239,0.009 -0.214545,-0.008 -0.360139,-0.003 -0.14558,0.005 -0.342709,0.0455 -0.451539,0.21561 -0.0969,0.15152 -0.08481,0.31912 -0.06243,0.44842 0.02237,0.12925 0.05533,0.2417 0.05941,0.31639 0.01663,0.30286 0.111263,0.53292 0.06168,0.66948 -0.01058,0.0305 -0.04943,0.0717 -0.126531,0.13047 -0.0771,0.0588 -0.188437,0.12985 -0.265611,0.26249 -0.131823,0.22646 -0.187077,0.504 -0.115647,0.77105 0.07181,0.26827 0.280713,0.42786 0.514033,0.51013 v -0.003 c 0.474244,0.1673 0.945753,0.0162 1.337427,-0.0156 0.204053,-0.0163 0.374047,-0.0884 0.489815,-0.20937 0.115798,-0.12094 0.170372,-0.27208 0.198429,-0.42498 0.05578,-0.30387 0.02283,-0.63953 0.04369,-0.93041 v -0.006 c 0.0045,-0.0413 0.05397,-0.24508 0.08587,-0.4695 0.03235,-0.22714 0.0523,-0.48849 -0.02343,-0.72887 -0.210962,-0.34908 -0.175497,-0.31388 -0.385189,-0.43165 -0.0511,-0.0317 -0.108542,-0.0674 -0.174211,-0.0999 -0.06803,-0.0337 -0.138475,-0.0683 -0.232807,-0.0718 z m -15.075748,0.10234 c -0.251492,-0.005 -0.499959,0.0166 -0.746825,0.0555 v 7.9e-4 c -0.489014,0.0766 -1.065164,0.21223 -1.523354,0.57574 -0.263283,0.20887 -0.44466,0.49771 -0.590602,0.74371 -0.136661,0.23028 -0.218989,0.40147 -0.230448,0.42576 -7.86e-4,0.002 -0.01512,0.0289 -0.01512,0.0289 l -10.041643,17.38808 h 22.871418 l -0.05397,-0.42498 c 0,0 -0.143765,-1.16003 -0.217946,-1.80381 v -0.006 l -0.003,-0.006 c -0.189238,-1.32836 -0.153441,-2.64609 -0.07967,-4.00916 v -0.006 -0.003 c 0.02373,-0.65746 0.122752,-1.49179 0.01799,-2.12565 -0.0585,-0.35387 -0.248437,-0.5897 -0.354666,-0.72105 -0.105217,-0.13016 -0.125171,-0.13787 -0.127288,-0.27422 v -0.003 c -0.0076,-0.58998 -0.231491,-1.26193 -0.312489,-1.83348 -0.07921,-0.55912 -0.04293,-1.34405 -0.100833,-1.95459 -0.05004,-0.52649 -9.82e-4,-0.97626 -0.217961,-1.4968 -0.12895,-0.30887 -0.347879,-0.49468 -0.505431,-0.64371 -0.157538,-0.14905 -0.260139,-0.25658 -0.31249,-0.41092 -0.120334,-0.35481 -0.02978,-0.92023 -0.06561,-1.43741 -0.02041,-0.29743 -0.130311,-0.59293 -0.330449,-0.83902 -0.200077,-0.2461 -0.523693,-0.44558 -0.903077,-0.42498 -0.101134,0.006 -0.260969,-0.0641 -0.481213,-0.19764 -0.220259,-0.13349 -0.483814,-0.32016 -0.839025,-0.38983 -1.195203,-0.2345 -1.754543,-0.18114 -2.128787,-0.018 -0.187137,0.0816 -0.295588,0.16732 -0.371855,0.20701 -0.07634,0.0398 -0.130764,0.0647 -0.301544,0.0649 -0.326141,1.8e-4 -0.730362,-0.2318 -1.26946,-0.36326 -0.258853,-0.0632 -0.513307,-0.0927 -0.764814,-0.0969 z m 15.055446,0.27733 c -0.01361,7.8e-4 0.03265,0.006 0.08587,0.0328 0.05336,0.0265 0.116706,0.0653 0.174212,0.10083 0.121089,0.0171 0.126229,0.13394 0.191385,0.20318 0.04278,0.13545 0.03855,0.36047 0.0091,0.56403 -0.02902,0.20355 -0.07604,0.36736 -0.08904,0.4906 v 0.003 0.003 c -0.02494,0.33675 0.0015,0.67075 -0.03749,0.89214 -0.02026,0.11066 -0.052,0.18501 -0.09766,0.23279 -0.04581,0.0478 -0.110659,0.0865 -0.248438,0.0977 -0.448923,0.036 -0.862411,0.1486 -1.183518,0.0351 -0.184431,-0.065 -0.232231,-0.0911 -0.274983,-0.25076 -0.04112,-0.15367 -0.0076,-0.33434 0.07967,-0.48435 0.02116,-0.0363 0.08103,-0.0854 0.16561,-0.14996 0.08466,-0.0646 0.198188,-0.14845 0.253895,-0.30154 0.120334,-0.33113 -0.02766,-0.62701 -0.03825,-0.82105 -0.0076,-0.14241 -0.04807,-0.26369 -0.06485,-0.36014 -0.01663,-0.0965 -0.01209,-0.148 0.0091,-0.17967 0.01784,-0.028 0.04384,-0.0383 0.144522,-0.0414 0.100681,-0.003 0.238384,0.0165 0.389829,0 0.202889,-0.0221 0.357721,-0.0558 0.531222,-0.0656 z m 8.343293,0.15155 c 0.1031,-0.001 0.201121,0.002 0.288257,0.006 0.340864,0.0177 0.618947,0.14059 1.068702,0.22967 0.194604,0.0385 0.396073,0.48122 0.396073,0.48122 l 0.01209,0.0437 1.056971,1.83038 -6.324651,0.0328 h -0.01209 c 0,0 -0.131974,0.0106 -0.289829,0.0382 -0.15787,0.0274 -0.337478,0.0475 -0.53748,0.1828 -0.839735,0.56798 -1.206919,1.49718 -1.517096,2.31784 -0.297599,0.78741 -0.24753,1.58481 -0.487472,2.13192 -0.339141,0.77326 -1.046978,1.39195 -1.431955,2.35612 -0.469619,1.17624 -0.343132,2.40708 -0.557783,3.44904 -0.167454,0.81275 -0.261665,1.60417 -0.567155,2.25846 -0.02887,0.0618 -0.173441,0.25293 -0.321076,0.42889 -0.113531,-1.42167 -0.210705,-3.16391 -0.109449,-4.34977 0.03129,-0.36672 0.137416,-0.74677 0.257009,-1.13979 0.342784,-1.12697 0.840219,-2.22508 1.307751,-3.35138 0.54129,-1.30393 1.340314,-2.54835 1.638972,-4.0654 0.09206,-0.46762 0.09161,-0.92152 0.114891,-1.33743 0.0189,-0.34703 0.02177,-0.72892 -0.0091,-1.11009 0.126834,-0.006 0.287455,0.0248 0.53435,-0.0624 0.376391,-0.13273 0.755805,-0.19621 1.130396,-0.16484 0.39506,0.0331 0.840279,0.2079 1.375719,0.26874 0.328438,0.0375 0.707791,0.0996 1.119465,0.0321 0.265581,-0.0435 0.461562,-0.15949 0.605433,-0.24686 0.143916,-0.0874 0.238974,-0.14588 0.35701,-0.17265 0.237704,-0.0543 0.592129,-0.0838 0.901519,-0.0875 z m -23.412012,0.32499 h 7.86e-4 v 7.9e-4 c 0.199578,0.003 0.395937,0.0258 0.597617,0.075 0.381983,0.0931 0.841111,0.38705 1.449914,0.3867 0.272731,-1.7e-4 0.49423,-0.067 0.649197,-0.1477 0.154952,-0.0806 0.234802,-0.14512 0.328106,-0.18593 0.186577,-0.0813 0.548017,-0.15722 1.679591,0.0649 0.147847,0.029 0.350888,0.14996 0.590587,0.29528 0.2397,0.14543 0.532341,0.32549 0.915579,0.30468 0.104914,-0.006 0.184688,0.0376 0.274213,0.14769 0.08949,0.11021 0.156736,0.28431 0.16561,0.41326 0.02313,0.33556 -0.111566,0.99687 0.1031,1.6296 0.115193,0.33943 0.338627,0.55714 0.507789,0.71715 0.169178,0.16003 0.279927,0.26897 0.328106,0.38436 0.136358,0.328 0.106123,0.68377 0.162496,1.27805 0.04838,0.51022 0.01058,1.31258 0.106274,1.99052 0.09418,0.6646 0.299172,1.36146 0.303888,1.73897 0.0045,0.34425 0.181423,0.60054 0.295301,0.74135 0.113833,0.14075 0.165943,0.18806 0.195301,0.36562 0.07075,0.42769 -0.0015,1.2754 -0.02736,1.97254 -6e-5,9.9e-4 4.6e-5,0.002 0,0.003 -4.5e-5,0.001 3.1e-5,0.002 0,0.003 -0.02525,0.46651 -0.04112,0.9329 -0.05004,1.39994 -0.07271,-0.0136 -0.148452,-0.0261 -0.207031,-0.0414 -0.06107,-0.016 -0.111264,-0.0414 -0.122601,-0.0453 -0.04445,-0.0402 -0.26345,-0.3959 -0.332006,-0.59295 -0.07876,-0.22606 -0.144824,-0.46247 -0.27187,-0.82105 -0.142405,-0.40165 -0.338657,-0.6957 -0.536679,-1.15774 -0.214045,-0.49943 -0.50912,-1.15205 -0.588259,-1.47649 -0.03341,-0.13697 -0.05669,-0.28735 -0.262481,-0.40388 -0.06984,-0.0396 -0.141801,-0.0293 -0.212489,-0.0296 0.01058,-0.15398 0.0381,-0.36564 0.07105,-0.57887 0.03326,-0.21537 0.06969,-0.4314 0.08828,-0.62028 0.0091,-0.0945 0.01602,-0.18213 0.0091,-0.27421 -0.006,-0.0921 0.02343,-0.21728 -0.16874,-0.3781 -0.0647,-0.0541 -0.179941,-0.12124 -0.324205,-0.10945 6.05e-4,-0.10642 1.5e-5,-0.21339 0.01209,-0.33905 0.01512,-0.17699 0.03794,-0.35683 0.05306,-0.51403 0.01512,-0.15722 0.04807,-0.24203 0,-0.44607 -0.04323,-0.18326 -0.2392,-0.3336 -0.351537,-0.36872 -0.07725,-0.0242 -0.102042,-0.0257 -0.135149,-0.0296 -0.003,-0.12789 0.01995,-0.36377 0.03522,-0.62575 0.01572,-0.27062 0.02464,-0.56559 -0.05004,-0.85933 -0.0257,-0.10068 0.03008,-0.33143 -0.05306,-0.65855 -0.04157,-0.16356 -0.163116,-0.35875 -0.348408,-0.46952 -0.185293,-0.11081 -0.399959,-0.14951 -0.664814,-0.1531 -0.862003,-0.0106 -6.461901,-0.026 -7.294138,-0.0281 l 0.671057,-1.16245 0.185927,-0.31952 -0.01209,-0.006 c 0.01844,-0.0328 0.01512,-0.0301 0.03598,-0.0656 0.125775,-0.2121 0.307364,-0.45281 0.410147,-0.53435 0.27394,-0.21733 0.740777,-0.35422 1.172588,-0.42185 0.213531,-0.0336 0.416012,-0.0511 0.615591,-0.0484 z m 9.023722,0.35701 c -0.05699,10e-4 -0.112623,0.006 -0.167167,0.0151 v -7.9e-4 c -0.113077,0.018 -0.223312,0.0568 -0.315618,0.13908 -0.156026,0.0742 -0.12109,0.20437 -0.156767,0.34372 -0.01754,0.32037 0.003,0.64286 -0.006,0.92964 -0.006,0.16667 0.06803,0.30167 0.132881,0.39607 0.06485,0.0945 0.120334,0.16161 0.149964,0.23281 0.0836,0.20133 0.185504,0.38516 0.278113,0.56402 0.06349,0.12261 0.09101,0.37308 0.312489,0.54607 0.235074,0.18362 0.542862,0.24732 0.824165,0.21562 0.300274,-0.0337 0.592461,-0.15705 0.826522,-0.34842 0.05956,-0.0487 0.131974,-0.11807 0.195301,-0.20078 0.06334,-0.0827 0.14316,-0.18518 0.106274,-0.34529 0.003,0.0106 -0.0076,-0.0599 -0.01557,-0.14135 -0.0076,-0.0815 -0.01512,-0.18627 -0.02887,-0.29843 -0.02948,-0.22431 -0.07287,-0.4792 -0.200772,-0.68198 -0.06742,-0.10688 -0.163932,-0.15154 -0.22812,-0.18593 -0.06425,-0.0345 -0.102193,-0.0599 -0.111717,-0.0711 -0.0455,-0.0532 -0.101135,-0.13334 -0.139079,-0.20078 -0.03311,-0.0589 -0.03553,-0.12078 -0.04142,-0.0999 0.02011,-0.11852 0.06274,-0.37308 -0.114892,-0.58513 -0.116252,-0.13893 -0.288604,-0.19077 -0.421848,-0.19217 -0.133334,-0.001 -0.240985,0.0215 -0.34608,0.021 -0.180228,-0.0284 -0.360865,-0.0538 -0.532008,-0.05 z m 0.01361,0.37733 c 0.133486,-0.001 0.306352,0.019 0.485915,0.0476 l 0.01557,0.003 h 0.01557 c 0.151732,4.4e-4 0.272232,-0.021 0.345294,-0.0203 0.07302,7.7e-4 0.0842,-0.001 0.132881,0.0562 0.04278,0.0509 0.0449,0.20419 0.02963,0.2953 -0.0257,0.15408 0.03447,0.23778 0.08828,0.33356 0.05382,0.0959 0.121543,0.1869 0.183584,0.25937 0.07695,0.0901 0.163085,0.12638 0.220289,0.15702 0.05714,0.0307 0.08239,0.0529 0.08602,0.0587 0.06364,0.10083 0.117764,0.32473 0.144522,0.52888 0.0136,0.10204 0.02283,0.19962 0.02963,0.28044 0.0076,0.0809 0.006,0.12834 0.02026,0.19453 -0.01209,-0.05 8.01e-4,-0.0151 -0.03522,0.0328 -0.03598,0.0469 -0.09448,0.1022 -0.135905,0.13591 -0.174227,0.1424 -0.408197,0.24042 -0.631993,0.26561 -0.187802,0.0212 -0.40915,-0.0322 -0.546067,-0.13908 -0.06697,-0.0523 -0.107635,-0.21947 -0.212489,-0.42186 -0.09539,-0.18412 -0.190175,-0.35816 -0.263267,-0.53434 -0.0573,-0.13802 -0.138928,-0.23281 -0.188271,-0.30467 -0.04928,-0.0718 -0.06757,-0.10824 -0.06561,-0.16797 0.0091,-0.29369 -0.0076,-0.59042 0.003,-0.86479 l 0.003,-0.0562 c 0.003,-0.0558 0.01209,-0.0673 0.02963,-0.0829 0.01738,-0.0156 0.05775,-0.036 0.126531,-0.0469 v -7.9e-4 c 0.03432,-0.006 0.07423,-0.008 0.118822,-0.009 z m 3.371685,2.11004 c -0.02434,1e-5 -0.04883,5.1e-4 -0.07271,0.002 l 7.86e-4,-7.9e-4 c -0.196842,0.009 -0.383027,0.047 -0.539808,0.068 -0.09932,0.0136 -0.189919,0.0302 -0.278113,0.071 -0.08813,0.0408 -0.175119,0.11792 -0.217961,0.21562 -0.08571,0.19544 -0.04732,0.40726 0.02343,0.74371 0.163085,0.44153 0.103402,0.34214 0.177325,0.48117 0.05987,0.11262 0.153607,0.15853 0.200773,0.18671 0.03537,0.021 0.04293,0.0278 0.04293,0.0257 0.03371,0.0952 0.03522,0.23706 0.02736,0.3992 -0.0076,0.16509 -0.026,0.34888 0.006,0.53436 0.01058,0.0624 0.01361,0.11942 0.03825,0.19764 0.02479,0.0783 0.08315,0.16496 0.162496,0.22733 0.12502,0.0981 0.278566,0.1412 0.431221,0.14452 0.152654,0.003 0.31128,-0.0345 0.439822,-0.13832 0.139079,-0.11232 0.158233,-0.27574 0.159367,-0.38436 5.59e-4,-0.0543 -0.0045,-0.10219 -0.006,-0.13288 -1.67e-4,-0.003 -1.97e-4,-0.006 0,-0.009 v -7.8e-4 c 0.01209,-0.0207 0.02978,-0.0522 0.04686,-0.0821 0.03432,-0.06 0.0774,-0.13681 0.12109,-0.21483 0.04354,-0.078 0.08692,-0.15586 0.121089,-0.22499 0.01708,-0.0346 0.03144,-0.0659 0.04369,-0.0969 0.01209,-0.0311 0.02661,-0.0491 0.02661,-0.12109 0,-0.0416 -0.003,-0.0975 -0.0091,-0.18359 -0.0045,-0.086 -0.0136,-0.19231 -0.02116,-0.29764 -0.0076,-0.10537 -0.01209,-0.20917 -0.01723,-0.28983 -0.0045,-0.0807 -0.0091,-0.15967 -0.0091,-0.13832 0,-0.10719 -0.02736,-0.11822 -0.04686,-0.1539 -0.0195,-0.0355 -0.04172,-0.0713 -0.06485,-0.10627 -0.04233,-0.064 -0.08284,-0.1226 -0.09992,-0.14846 -0.0012,-0.003 -0.003,-0.009 -0.0045,-0.0136 -0.003,-0.023 -0.0045,-0.0581 -0.0091,-0.0999 -0.0091,-0.0838 -0.0076,-0.21368 -0.147696,-0.31326 -0.161966,-0.11413 -0.34744,-0.14482 -0.522635,-0.14527 z m 0.0015,0.37497 h 7.71e-4 c 0.11474,-1.4e-4 0.207923,0.0186 0.282028,0.0624 -0.003,0.002 0.0091,0.0201 0.01209,0.0594 0.003,0.0315 0.006,0.0685 0.01209,0.10945 0.0045,0.0408 0.0045,0.0863 0.04686,0.1539 0.03024,0.0482 0.07513,0.1099 0.115647,0.17108 0.02026,0.0307 0.03961,0.0576 0.05004,0.0765 9.82e-4,0.0373 0.0045,0.0677 0.0091,0.13591 0.0045,0.0815 0.01361,0.18778 0.02026,0.29295 0.0076,0.10522 0.01209,0.21066 0.01799,0.29529 0.0045,0.0768 0.0091,0.13213 0.0091,0.14452 -0.006,0.0151 -0.01829,0.0369 -0.03205,0.0649 -0.02857,0.058 -0.07045,0.13393 -0.112472,0.20935 -0.04203,0.0753 -0.08632,0.14921 -0.12109,0.21015 -0.03477,0.0608 -0.04989,0.0862 -0.07347,0.14135 -0.04051,0.0945 -0.02388,0.12093 -0.02192,0.15936 0.0015,0.0386 0.006,0.0765 0.006,0.10945 -6.8e-4,0.0655 -0.01557,0.0893 -0.02101,0.0945 -0.03598,0.0292 -0.1096,0.0547 -0.1914,0.0531 -0.08194,-0.002 -0.165565,-0.0323 -0.207016,-0.0649 -0.03507,-0.0275 -0.02963,-0.0234 -0.03522,-0.0414 -0.006,-0.018 -0.01209,-0.0695 -0.02661,-0.15072 -0.01965,-0.11307 -0.0091,-0.2735 0,-0.44841 0.0091,-0.1749 0.01738,-0.36658 -0.05306,-0.55544 v -0.003 c -0.04626,-0.12411 -0.147544,-0.1807 -0.200772,-0.21249 -0.05321,-0.0317 -0.06531,-0.0437 -0.06243,-0.0382 -0.06516,-0.12261 -0.114135,-0.25414 -0.141346,-0.38358 -0.06682,-0.31769 -0.0579,-0.48056 -0.0446,-0.5109 0.006,-0.0151 1.5e-5,-0.0136 0.02661,-0.0266 0.02645,-0.0121 0.08738,-0.0269 0.171869,-0.0382 0.176192,-0.0237 0.353034,-0.0611 0.507789,-0.068 l -7.86e-4,-7.9e-4 c 0.01935,-9.3e-4 0.03794,-7.7e-4 0.05624,-7.8e-4 z"
       sodipodi:nodetypes="ccccccccccsccccccccscccccssccccscccccscccssssccccssccsscccccccscssscccsssccssscccssccsscsscccsssccccccccccsssssccsscscssssccccccccccccccccssscccccsccscccccccccssssscscsscccscsscssccssccscccssscsccssssccccccssscsccsccssscscssccccccscscccssccssscsscccsscsccsccccccssccsccscccccssssscccccccscccsccccscccccsssscscscscscccsccscsssscccsscccccssccccccsccsccscscccccsccccss" />
  </g>
</svg>
