<svg viewBox="0 0 374.278825665 295.215015368" width="374.278825665pt" height="295.215015368pt" xmlns="http://www.w3.org/2000/svg" xmlns:xlink="http://www.w3.org/1999/xlink" xmlns:h5="http://www.w3.org/1999/xhtml"><path fill="#ffffff" fill-rule="nonzero" d="M 0 0v 295.215015368h 374.278825665v -295.215015368Z "/><g transform="matrix(1.25 0 0 1.25 11 11)"><g><path fill="none" stroke="#000000" stroke-width="0.384" stroke-linecap="round" stroke-linejoin="miter" stroke-miterlimit="4" transform="translate(90.394798839 29.084859017)" d="M 0 0m 20.944869486 0l -20.944869486 21.617080535"/><path fill="none" transform="translate(100.867233582 39.893399284)" d="M 0 0Z "/><g transform="translate(100.867233582 39.893399284)"><g/></g><path fill="none" stroke="#000000" stroke-width="0.384" stroke-linecap="round" stroke-linejoin="miter" stroke-miterlimit="4" transform="translate(119.05573167 32.624727957)" d="M 0 0v 16.038623404"/><path fill="none" transform="translate(119.05573167 40.644039659)" d="M 0 0Z "/><g transform="translate(119.05573167 40.644039659)"><g/></g><path fill="none" stroke="#000000" stroke-width="0.384" stroke-linecap="round" stroke-linejoin="miter" stroke-miterlimit="4" transform="translate(126.764188459 29.093724516)" d="M 0 0l 20.809408028 21.530655272"/><path fill="none" transform="translate(137.168892473 39.859052152)" d="M 0 0Z "/><g transform="translate(137.168892473 39.859052152)"><g/></g><path fill="none" stroke="#000000" stroke-width="0.384" stroke-linecap="round" stroke-linejoin="miter" stroke-miterlimit="4" transform="translate(76.102255426 17.722355677)" d="M 0 0m 8.376993683 31.472300454l -8.376993683 -31.472300454"/><path fill="none" transform="translate(80.290752267 33.458505904)" d="M 0 0Z "/><g transform="translate(80.290752267 33.458505904)"><g/></g><path fill="none" stroke="#000000" stroke-width="0.384" stroke-linecap="round" stroke-linejoin="miter" stroke-miterlimit="4" transform="translate(64.294380168 42.54721728)" d="M 0 0m 16.323883205 9.51413482l -16.323883205 -9.51413482"/><path fill="none" transform="translate(72.456321771 47.30428469)" d="M 0 0Z "/><g transform="translate(72.456321771 47.30428469)"><g/></g><path fill="none" stroke="#000000" stroke-width="0.384" stroke-linecap="round" stroke-linejoin="miter" stroke-miterlimit="4" transform="translate(48.486277972 57.066204314)" d="M 0 0m 31.446350171 0l -31.446350171 8.482362013"/><path fill="none" transform="translate(64.209453057 61.30738532)" d="M 0 0Z "/><g transform="translate(64.209453057 61.30738532)"><g/></g><path fill="none" stroke="#000000" stroke-width="0.384" stroke-linecap="round" stroke-linejoin="miter" stroke-miterlimit="4" transform="translate(106.410662521 61.352115667)" d="M 0 0m 9.712529276 0l -9.712529276 19.811733922"/><path fill="none" transform="translate(111.266927159 71.257982628)" d="M 0 0Z "/><g transform="translate(111.266927159 71.257982628)"><g/></g><path fill="none" stroke="#000000" stroke-width="0.384" stroke-linecap="round" stroke-linejoin="miter" stroke-miterlimit="4" transform="translate(121.988271502 61.352115584)" d="M 0 0l 9.712529328 19.811734028"/><path fill="none" transform="translate(126.844536166 71.257982598)" d="M 0 0Z "/><g transform="translate(126.844536166 71.257982598)"><g/></g><path fill="none" stroke="#000000" stroke-width="0.384" stroke-linecap="round" stroke-linejoin="miter" stroke-miterlimit="4" transform="translate(158.330796655 57.085032529)" d="M 0 0l 31.099588809 8.427013045"/><path fill="none" transform="translate(173.88059106 61.298539051)" d="M 0 0Z "/><g transform="translate(173.88059106 61.298539051)"><g/></g><path fill="none" stroke="#000000" stroke-width="0.384" stroke-linecap="round" stroke-linejoin="miter" stroke-miterlimit="4" transform="translate(157.641321203 42.629547134)" d="M 0 0m 0 9.382124987l 15.993978274 -9.382124987"/><path fill="none" transform="translate(165.63831034 47.320609628)" d="M 0 0Z "/><g transform="translate(165.63831034 47.320609628)"><g/></g><path fill="none" stroke="#000000" stroke-width="0.384" stroke-linecap="round" stroke-linejoin="miter" stroke-miterlimit="4" transform="translate(153.692178057 17.910029778)" d="M 0 0m 0 31.142808823l 8.251713666 -31.142808823"/><path fill="none" transform="translate(157.81803489 33.48143419)" d="M 0 0Z "/><g transform="translate(157.81803489 33.48143419)"><g/></g><path fill="none" stroke="#000000" stroke-width="0.384" stroke-linecap="round" stroke-linejoin="miter" stroke-miterlimit="4" transform="translate(13.763792601 72.784420322)" d="M 0 0m 21.60779163 0l -21.60779163 22.179523639"/><path fill="none" transform="translate(24.567688416 83.874182142)" d="M 0 0Z "/><g transform="translate(24.567688416 83.874182142)"><g/></g><path fill="none" stroke="#000000" stroke-width="0.384" stroke-linecap="round" stroke-linejoin="miter" stroke-miterlimit="4" transform="translate(40.976881658 75.195528491)" d="M 0 0l 0.000016141 16.851779597"/><path fill="none" transform="translate(40.976889728 83.62141829)" d="M 0 0Z "/><g transform="translate(40.976889728 83.62141829)"><g/></g><path fill="none" stroke="#000000" stroke-width="0.384" stroke-linecap="round" stroke-linejoin="miter" stroke-miterlimit="4" transform="translate(46.577075421 72.790350079)" d="M 0 0l 21.445918337 22.059268039"/><path fill="none" transform="translate(57.30003459 83.819984099)" d="M 0 0Z "/><g transform="translate(57.30003459 83.819984099)"><g/></g><path fill="none" stroke="#000000" stroke-width="0.384" stroke-linecap="round" stroke-linejoin="miter" stroke-miterlimit="4" transform="translate(199.289272446 75.076577691)" d="M 0 0l 7.690802991 29.585166056"/><path fill="none" transform="translate(203.134673942 89.869160719)" d="M 0 0Z "/><g transform="translate(203.134673942 89.869160719)"><g/></g><path fill="none" stroke="#000000" stroke-width="0.384" stroke-linecap="round" stroke-linejoin="miter" stroke-miterlimit="4" transform="translate(204.07624403 71.301108644)" d="M 0 0l 14.092083978 8.545712718"/><path fill="none" transform="translate(211.122286019 75.573965004)" d="M 0 0Z "/><g transform="translate(211.122286019 75.573965004)"><g/></g><path fill="none" stroke="#000000" stroke-width="0.384" stroke-linecap="round" stroke-linejoin="miter" stroke-miterlimit="4" transform="translate(204.829247022 57.37154075)" d="M 0 0m 0 8.102058361l 29.273704549 -8.102058361"/><path fill="none" transform="translate(219.466099297 61.42256993)" d="M 0 0Z "/><g transform="translate(219.466099297 61.42256993)"><g/></g><path fill="none" stroke="#000000" stroke-width="0.384" stroke-linecap="round" stroke-linejoin="miter" stroke-miterlimit="4" transform="translate(183.517213944 118.153014266)" d="M 0 0m 19.796005058 0l -19.796005058 20.796220241"/><path fill="none" transform="translate(193.415216473 128.551124387)" d="M 0 0Z "/><g transform="translate(193.415216473 128.551124387)"><g/></g><path fill="none" stroke="#000000" stroke-width="0.384" stroke-linecap="round" stroke-linejoin="miter" stroke-miterlimit="4" transform="translate(209.21341467 120.688168252)" d="M 0 0v 14.975137418"/><path fill="none" transform="translate(209.21341467 128.175736961)" d="M 0 0Z "/><g transform="translate(209.21341467 128.175736961)"><g/></g><path fill="none" stroke="#000000" stroke-width="0.384" stroke-linecap="round" stroke-linejoin="miter" stroke-miterlimit="4" transform="translate(215.113607602 118.153017455)" d="M 0 0l 19.795977993 20.79621313"/><path fill="none" transform="translate(225.011596599 128.551124021)" d="M 0 0Z "/><g transform="translate(225.011596599 128.551124021)"><g/></g><path fill="none" stroke="#000000" stroke-width="0.384" stroke-linecap="round" stroke-linejoin="miter" stroke-miterlimit="4" transform="translate(140.902970769 135.790401662)" d="M 0 0m 25.772406022 7.396815901l -25.772406022 -7.396815901"/><path fill="none" transform="translate(153.78917378 139.488809612)" d="M 0 0Z "/><g transform="translate(153.78917378 139.488809612)"><g/></g><path fill="none" stroke="#000000" stroke-width="0.384" stroke-linecap="round" stroke-linejoin="miter" stroke-miterlimit="4" transform="translate(156.906216544 150.214336294)" d="M 0 0m 10.674119076 0l -10.674119076 6.845788399"/><path fill="none" transform="translate(162.243276082 153.637230493)" d="M 0 0Z "/><g transform="translate(162.243276082 153.637230493)"><g/></g><path fill="none" stroke="#000000" stroke-width="0.384" stroke-linecap="round" stroke-linejoin="miter" stroke-miterlimit="4" transform="translate(167.035198237 154.943863384)" d="M 0 0m 6.435716575 0l -6.435716575 25.783931294"/><path fill="none" transform="translate(170.253056524 167.835829031)" d="M 0 0Z "/><g transform="translate(170.253056524 167.835829031)"><g/></g><path fill="none" stroke="#000000" stroke-width="0.384" stroke-linecap="round" stroke-linejoin="miter" stroke-miterlimit="4" transform="translate(122.444108128 99.667411486)" d="M 0 0m 5.907316862 24.099291418l -5.907316862 -24.099291418"/><path fill="none" transform="translate(125.397766559 111.717057195)" d="M 0 0Z "/><g transform="translate(125.397766559 111.717057195)"><g/></g><path fill="none" stroke="#000000" stroke-width="0.384" stroke-linecap="round" stroke-linejoin="miter" stroke-miterlimit="4" transform="translate(113.016509609 122.447394226)" d="M 0 0m 9.313516127 6.11369024l -9.313516127 -6.11369024"/><path fill="none" transform="translate(117.673267672 125.504239346)" d="M 0 0Z "/><g transform="translate(117.673267672 125.504239346)"><g/></g><path fill="none" stroke="#000000" stroke-width="0.384" stroke-linecap="round" stroke-linejoin="miter" stroke-miterlimit="4" transform="translate(97.542915418 135.835608084)" d="M 0 0m 23.834507081 0l -23.834507081 6.981141285"/><path fill="none" transform="translate(109.460168959 139.326178727)" d="M 0 0Z "/><g transform="translate(109.460168959 139.326178727)"><g/></g><path fill="none" transform="translate(108.782780019 12.078824882)" d="M 0 0m 10.272951533 0c -5.668450289 0 -10.272951533 4.604501244 -10.272951533 10.272951533c 0 5.668450289 4.604501244 10.272951533 10.272951533 10.272951533c 5.668450289 0 10.272951533 -4.604501244 10.272951533 -10.272951533c 0 -5.668450289 -4.604501244 -10.272951533 -10.272951533 -10.272951533Z "/><path fill="none" transform="translate(112.27573167 19.719776533)" d="M 0 0h 13.56v 5.264h -13.56v -5.264Z "/><g transform="translate(112.275731623 19.719776423)"><g><g transform="matrix(1 0 0 -1 0 5.264)"><use xlink:href="#gF14903D79C881A9B6AC2EE7D8BED6F03" x="0" y="0" fill="#000000" fill-rule="nonzero"/><use xlink:href="#g2B678EF10194558DA6DED0CDF87DA3E4" x="2.912" y="0" fill="#000000" fill-rule="nonzero"/><use xlink:href="#g2B678EF10194558DA6DED0CDF87DA3E4" x="7" y="0" fill="#000000" fill-rule="nonzero"/><use xlink:href="#g3078E795B3E2291E912DCDEB76EE36F" x="11.032" y="0" fill="#000000" fill-rule="nonzero"/></g></g></g><path fill="none" transform="translate(79.681125393 48.977170162)" d="M 0 0m 6.374606347 0c -3.517405789 0 -6.374606347 2.857200559 -6.374606347 6.374606347c 0 3.517405789 2.857200559 6.374606347 6.374606347 6.374606347c 3.517405789 0 6.374606347 -2.857200559 6.374606347 -6.374606347c 0 -3.517405789 -2.857200559 -6.374606347 -6.374606347 -6.374606347Z "/><path fill="none" transform="translate(83.94373167 52.719776533)" d="M 0 0h 4.224v 5.264h -4.224v -5.264Z "/><g transform="translate(83.943731575 52.719776423)"><g><g transform="matrix(1 0 0 -1 0 5.264)"><use xlink:href="#g8CD924B1796CDEE998E484DA1D8D34C1" x="0" y="0" fill="#000000" fill-rule="nonzero"/></g></g></g><path fill="none" transform="translate(112.367306414 48.663351371)" d="M 0 0m 6.688425138 0c -3.690565976 0 -6.688425138 2.997859162 -6.688425138 6.688425138c 0 3.690565976 2.997859162 6.688425138 6.688425138 6.688425138c 3.690565976 0 6.688425138 -2.997859162 6.688425138 -6.688425138c 0 -3.690565976 -2.997859162 -6.688425138 -6.688425138 -6.688425138Z "/><path fill="none" transform="translate(116.47173167 52.719776533)" d="M 0 0h 5.168v 5.264h -5.168v -5.264Z "/><g transform="translate(116.471731607 52.719776423)"><g><g transform="matrix(1 0 0 -1 0 5.264)"><use xlink:href="#g8C602F113ED136B9EC97C2B861CC969C" x="0" y="0" fill="#000000" fill-rule="nonzero"/></g></g></g><path fill="none" transform="translate(145.528618379 48.824663242)" d="M 0 0m 6.527113267 0c -3.601556667 0 -6.527113267 2.9255566 -6.527113267 6.527113267c 0 3.601556667 2.9255566 6.527113267 6.527113267 6.527113267c 3.601556667 0 6.527113267 -2.9255566 6.527113267 -6.527113267c 0 -3.601556667 -2.9255566 -6.527113267 -6.527113267 -6.527113267Z "/><path fill="none" transform="translate(149.70773167 52.719776533)" d="M 0 0h 4.696v 5.264h -4.696v -5.264Z "/><g transform="translate(149.707731591 52.719776423)"><g><g transform="matrix(1 0 0 -1 0 5.264)"><use xlink:href="#g30687BFCE2FAF72C7212972C26B8950A" x="0" y="0" fill="#000000" fill-rule="nonzero"/></g></g></g><path fill="none" transform="translate(66.21198041 2.50805825)" d="M 0 0m 7.764893283 0c -4.284543875 0 -7.764893283 3.480349408 -7.764893283 7.764893283c 0 4.284543875 3.480349408 7.764893283 7.764893283 7.764893283c 4.284543875 0 7.764893283 -3.480349408 7.764893283 -7.764893283c 0 -4.284543875 -3.480349408 -7.764893283 -7.764893283 -7.764893283Z "/><path fill="none" transform="translate(70.00487367 7.640951533)" d="M 0 0h 7.944v 5.264h -7.944v -5.264Z "/><g transform="translate(70.004873623 7.640951423)"><g><g transform="matrix(1 0 0 -1 0 5.264)"><use xlink:href="#g8CD924B1796CDEE998E484DA1D8D34C1" x="0" y="0" fill="#000000" fill-rule="nonzero"/><use xlink:href="#g8C50DFC0B8272CD73341C65811BD0E92" x="4.224" y="0" fill="#000000" fill-rule="nonzero"/></g></g></g><path fill="none" transform="translate(49.711980505 31.086883321)" d="M 0 0m 7.764893283 0c -4.284543875 0 -7.764893283 3.480349408 -7.764893283 7.764893283c 0 4.284543875 3.480349408 7.764893283 7.764893283 7.764893283c 4.284543875 0 7.764893283 -3.480349408 7.764893283 -7.764893283c 0 -4.284543875 -3.480349408 -7.764893283 -7.764893283 -7.764893283Z "/><path fill="none" transform="translate(53.50487367 36.219776533)" d="M 0 0h 7.944v 5.264h -7.944v -5.264Z "/><g transform="translate(53.504873623 36.219776423)"><g><g transform="matrix(1 0 0 -1 0 5.264)"><use xlink:href="#g8CD924B1796CDEE998E484DA1D8D34C1" x="0" y="0" fill="#000000" fill-rule="nonzero"/><use xlink:href="#gAD9C87F854BDA42EDABFFB35EC1FA84E" x="4.224" y="0" fill="#000000" fill-rule="nonzero"/></g></g></g><path fill="none" transform="translate(33.211980316 59.665741273)" d="M 0 0m 7.764893283 0c -4.284543875 0 -7.764893283 3.480349408 -7.764893283 7.764893283c 0 4.284543875 3.480349408 7.764893283 7.764893283 7.764893283c 4.284543875 0 7.764893283 -3.480349408 7.764893283 -7.764893283c 0 -4.284543875 -3.480349408 -7.764893283 -7.764893283 -7.764893283Z "/><path fill="none" transform="translate(37.00487367 64.798634533)" d="M 0 0h 7.944v 5.264h -7.944v -5.264Z "/><g transform="translate(37.004873623 64.798634423)"><g><g transform="matrix(1 0 0 -1 0 5.264)"><use xlink:href="#g8CD924B1796CDEE998E484DA1D8D34C1" x="0" y="0" fill="#000000" fill-rule="nonzero"/><use xlink:href="#g4DADFF8D06AE4DC17FB93571E5AFF437" x="4.224" y="0" fill="#000000" fill-rule="nonzero"/></g></g></g><path fill="none" transform="translate(94.390796022 80.18684098)" d="M 0 0m 8.164935624 0c -4.505280838 0 -8.164935624 3.659654786 -8.164935624 8.164935624c 0 4.505280838 3.659654786 8.164935624 8.164935624 8.164935624c 4.505280838 0 8.164935624 -3.659654786 8.164935624 -8.164935624c 0 -4.505280838 -3.659654786 -8.164935624 -8.164935624 -8.164935624Z "/><path fill="none" transform="translate(98.11173167 85.719776533)" d="M 0 0h 8.888v 5.264h -8.888v -5.264Z "/><g transform="translate(98.111731654 85.719776423)"><g><g transform="matrix(1 0 0 -1 0 5.264)"><use xlink:href="#g8C602F113ED136B9EC97C2B861CC969C" x="0" y="0" fill="#000000" fill-rule="nonzero"/><use xlink:href="#g8C50DFC0B8272CD73341C65811BD0E92" x="5.168" y="0" fill="#000000" fill-rule="nonzero"/></g></g></g><path fill="none" transform="translate(127.390796117 80.18684098)" d="M 0 0m 8.164935624 0c -4.505280838 0 -8.164935624 3.659654786 -8.164935624 8.164935624c 0 4.505280838 3.659654786 8.164935624 8.164935624 8.164935624c 4.505280838 0 8.164935624 -3.659654786 8.164935624 -8.164935624c 0 -4.505280838 -3.659654786 -8.164935624 -8.164935624 -8.164935624Z "/><path fill="none" transform="translate(131.11173167 85.719776533)" d="M 0 0h 8.888v 5.264h -8.888v -5.264Z "/><g transform="translate(131.111731654 85.719776423)"><g><g transform="matrix(1 0 0 -1 0 5.264)"><use xlink:href="#g8C602F113ED136B9EC97C2B861CC969C" x="0" y="0" fill="#000000" fill-rule="nonzero"/><use xlink:href="#g4DADFF8D06AE4DC17FB93571E5AFF437" x="5.168" y="0" fill="#000000" fill-rule="nonzero"/></g></g></g><path fill="none" transform="translate(189.171222259 59.467300193)" d="M 0 0m 7.963334363 0c -4.394040488 0 -7.963334363 3.569293875 -7.963334363 7.963334363c 0 4.394040488 3.569293875 7.963334363 7.963334363 7.963334363c 4.394040488 0 7.963334363 -3.569293875 7.963334363 -7.963334363c 0 -4.394040488 -3.569293875 -7.963334363 -7.963334363 -7.963334363Z "/><path fill="none" transform="translate(192.92655667 64.798634533)" d="M 0 0h 8.416v 5.264h -8.416v -5.264Z "/><g transform="translate(192.926556638 64.798634423)"><g><g transform="matrix(1 0 0 -1 0 5.264)"><use xlink:href="#g30687BFCE2FAF72C7212972C26B8950A" x="0" y="0" fill="#000000" fill-rule="nonzero"/><use xlink:href="#g8C50DFC0B8272CD73341C65811BD0E92" x="4.696" y="0" fill="#000000" fill-rule="nonzero"/></g></g></g><path fill="none" transform="translate(172.671222354 30.888442241)" d="M 0 0m 7.963334363 0c -4.394040488 0 -7.963334363 3.569293875 -7.963334363 7.963334363c 0 4.394040488 3.569293875 7.963334363 7.963334363 7.963334363c 4.394040488 0 7.963334363 -3.569293875 7.963334363 -7.963334363c 0 -4.394040488 -3.569293875 -7.963334363 -7.963334363 -7.963334363Z "/><path fill="none" transform="translate(176.42655667 36.219776533)" d="M 0 0h 8.416v 5.264h -8.416v -5.264Z "/><g transform="translate(176.426556638 36.219776423)"><g><g transform="matrix(1 0 0 -1 0 5.264)"><use xlink:href="#g30687BFCE2FAF72C7212972C26B8950A" x="0" y="0" fill="#000000" fill-rule="nonzero"/><use xlink:href="#gAD9C87F854BDA42EDABFFB35EC1FA84E" x="4.696" y="0" fill="#000000" fill-rule="nonzero"/></g></g></g><path fill="none" transform="translate(156.171222165 2.30961717)" d="M 0 0m 7.963334363 0c -4.394040488 0 -7.963334363 3.569293875 -7.963334363 7.963334363c 0 4.394040488 3.569293875 7.963334363 7.963334363 7.963334363c 4.394040488 0 7.963334363 -3.569293875 7.963334363 -7.963334363c 0 -4.394040488 -3.569293875 -7.963334363 -7.963334363 -7.963334363Z "/><path fill="none" transform="translate(159.92655667 7.640951533)" d="M 0 0h 8.416v 5.264h -8.416v -5.264Z "/><g transform="translate(159.926556638 7.640951423)"><g><g transform="matrix(1 0 0 -1 0 5.264)"><use xlink:href="#g30687BFCE2FAF72C7212972C26B8950A" x="0" y="0" fill="#000000" fill-rule="nonzero"/><use xlink:href="#g4DADFF8D06AE4DC17FB93571E5AFF437" x="4.696" y="0" fill="#000000" fill-rule="nonzero"/></g></g></g><path fill="none" transform="translate(0 92.453727981)" d="M 0 0m 7.97690667 0c -4.40152947 0 -7.97690667 3.5753772 -7.97690667 7.97690667c 0 4.40152947 3.5753772 7.97690667 7.97690667 7.97690667c 4.40152947 0 7.97690667 -3.5753772 7.97690667 -7.97690667c 0 -4.40152947 -3.5753772 -7.97690667 -7.97690667 -7.97690667Z "/><path fill="none" transform="translate(3.75290667 97.798634533)" d="M 0 0h 8.448v 5.264h -8.448v -5.264Z "/><g transform="translate(3.752906623 97.798634423)"><g><g transform="matrix(1 0 0 -1 0 5.264)"><use xlink:href="#g8CD924B1796CDEE998E484DA1D8D34C1" x="0" y="0" fill="#000000" fill-rule="nonzero"/><use xlink:href="#g8CD924B1796CDEE998E484DA1D8D34C1" x="4.224" y="0" fill="#000000" fill-rule="nonzero"/></g></g></g><path fill="none" transform="translate(32.593614092 92.047308813)" d="M 0 0m 8.383292673 0c -4.625766764 0 -8.383292673 3.757525909 -8.383292673 8.383292673c 0 4.625766764 3.757525909 8.383292673 8.383292673 8.383292673c 4.625766764 0 8.383292673 -3.757525909 8.383292673 -8.383292673c 0 -4.625766764 -3.757525909 -8.383292673 -8.383292673 -8.383292673Z "/><path fill="none" transform="translate(36.28090667 97.798601533)" d="M 0 0h 9.392v 5.264h -9.392v -5.264Z "/><g transform="translate(36.280906654 97.798601423)"><g><g transform="matrix(1 0 0 -1 0 5.264)"><use xlink:href="#g8CD924B1796CDEE998E484DA1D8D34C1" x="0" y="0" fill="#000000" fill-rule="nonzero"/><use xlink:href="#g8C602F113ED136B9EC97C2B861CC969C" x="4.224" y="0" fill="#000000" fill-rule="nonzero"/></g></g></g><path fill="none" transform="translate(65.798164974 92.251892766)" d="M 0 0m 8.178708719 0c -4.512880612 0 -8.178708719 3.665828107 -8.178708719 8.178708719c 0 4.512880612 3.665828107 8.178708719 8.178708719 8.178708719c 4.512880612 0 8.178708719 -3.665828107 8.178708719 -8.178708719c 0 -4.512880612 -3.665828107 -8.178708719 -8.178708719 -8.178708719Z "/><path fill="none" transform="translate(69.51687367 97.798601533)" d="M 0 0h 8.92v 5.264h -8.92v -5.264Z "/><g transform="translate(69.516873638 97.798601423)"><g><g transform="matrix(1 0 0 -1 0 5.264)"><use xlink:href="#g8CD924B1796CDEE998E484DA1D8D34C1" x="0" y="0" fill="#000000" fill-rule="nonzero"/><use xlink:href="#g30687BFCE2FAF72C7212972C26B8950A" x="4.224" y="0" fill="#000000" fill-rule="nonzero"/></g></g></g><path fill="none" transform="translate(201.03470595 104.330750814)" d="M 0 0m 8.178708719 0c -4.512880612 0 -8.178708719 3.665828107 -8.178708719 8.178708719c 0 4.512880612 3.665828107 8.178708719 8.178708719 8.178708719c 4.512880612 0 8.178708719 -3.665828107 8.178708719 -8.178708719c 0 -4.512880612 -3.665828107 -8.178708719 -8.178708719 -8.178708719Z "/><path fill="none" transform="translate(204.75341467 109.877459533)" d="M 0 0h 8.92v 5.264h -8.92v -5.264Z "/><g transform="translate(204.753414638 109.877459423)"><g><g transform="matrix(1 0 0 -1 0 5.264)"><use xlink:href="#g30687BFCE2FAF72C7212972C26B8950A" x="0" y="0" fill="#000000" fill-rule="nonzero"/><use xlink:href="#g8CD924B1796CDEE998E484DA1D8D34C1" x="4.696" y="0" fill="#000000" fill-rule="nonzero"/></g></g></g><path fill="none" transform="translate(217.123028574 75.340248461)" d="M 0 0m 8.590353119 0c -4.740019406 0 -8.590353119 3.850333714 -8.590353119 8.590353119c 0 4.740019406 3.850333714 8.590353119 8.590353119 8.590353119c 4.740019406 0 8.590353119 -3.850333714 8.590353119 -8.590353119c 0 -4.740019406 -3.850333714 -8.590353119 -8.590353119 -8.590353119Z "/><path fill="none" transform="translate(220.78138167 81.298601533)" d="M 0 0h 9.864v 5.264h -9.864v -5.264Z "/><g transform="translate(220.781381528 81.298601423)"><g><g transform="matrix(1 0 0 -1 0 5.264)"><use xlink:href="#g30687BFCE2FAF72C7212972C26B8950A" x="0" y="0" fill="#000000" fill-rule="nonzero"/><use xlink:href="#g8C602F113ED136B9EC97C2B861CC969C" x="4.696" y="0" fill="#000000" fill-rule="nonzero"/></g></g></g><path fill="none" transform="translate(233.830122092 46.968483837)" d="M 0 0m 8.383292673 0c -4.625766764 0 -8.383292673 3.757525909 -8.383292673 8.383292673c 0 4.625766764 3.757525909 8.383292673 8.383292673 8.383292673c 4.625766764 0 8.383292673 -3.757525909 8.383292673 -8.383292673c 0 -4.625766764 -3.757525909 -8.383292673 -8.383292673 -8.383292673Z "/><path fill="none" transform="translate(237.51741467 52.719776533)" d="M 0 0h 9.392v 5.264h -9.392v -5.264Z "/><g transform="translate(237.517414654 52.719776423)"><g><g transform="matrix(1 0 0 -1 0 5.264)"><use xlink:href="#g30687BFCE2FAF72C7212972C26B8950A" x="0" y="0" fill="#000000" fill-rule="nonzero"/><use xlink:href="#g30687BFCE2FAF72C7212972C26B8950A" x="4.696" y="0" fill="#000000" fill-rule="nonzero"/></g></g></g><path fill="none" transform="translate(166.367260619 135.663305671)" d="M 0 0m 9.846153957 0c -5.432950215 0 -9.846153957 4.413203742 -9.846153957 9.846153957c 0 5.432950215 4.413203742 9.846153957 9.846153957 9.846153957c 5.432950215 0 9.846153957 -4.413203742 9.846153957 -9.846153957c 0 -5.432950215 -4.413203742 -9.846153957 -9.846153957 -9.846153957Z "/><path fill="none" transform="translate(169.89341467 142.877459533)" d="M 0 0h 12.64v 5.264h -12.64v -5.264Z "/><g transform="translate(169.893414544 142.877459423)"><g><g transform="matrix(1 0 0 -1 0 5.264)"><use xlink:href="#g30687BFCE2FAF72C7212972C26B8950A" x="0" y="0" fill="#000000" fill-rule="nonzero"/><use xlink:href="#g8CD924B1796CDEE998E484DA1D8D34C1" x="4.696" y="0" fill="#000000" fill-rule="nonzero"/><use xlink:href="#g8C50DFC0B8272CD73341C65811BD0E92" x="8.92" y="0" fill="#000000" fill-rule="nonzero"/></g></g></g><path fill="none" transform="translate(199.367260713 135.663305671)" d="M 0 0m 9.846153957 0c -5.432950215 0 -9.846153957 4.413203742 -9.846153957 9.846153957c 0 5.432950215 4.413203742 9.846153957 9.846153957 9.846153957c 5.432950215 0 9.846153957 -4.413203742 9.846153957 -9.846153957c 0 -5.432950215 -4.413203742 -9.846153957 -9.846153957 -9.846153957Z "/><path fill="none" transform="translate(202.89341467 142.877459533)" d="M 0 0h 12.64v 5.264h -12.64v -5.264Z "/><g transform="translate(202.893414544 142.877459423)"><g><g transform="matrix(1 0 0 -1 0 5.264)"><use xlink:href="#g30687BFCE2FAF72C7212972C26B8950A" x="0" y="0" fill="#000000" fill-rule="nonzero"/><use xlink:href="#g8CD924B1796CDEE998E484DA1D8D34C1" x="4.696" y="0" fill="#000000" fill-rule="nonzero"/><use xlink:href="#gAD9C87F854BDA42EDABFFB35EC1FA84E" x="8.92" y="0" fill="#000000" fill-rule="nonzero"/></g></g></g><path fill="none" transform="translate(232.367227642 135.663305671)" d="M 0 0m 9.846153957 0c -5.432950215 0 -9.846153957 4.413203742 -9.846153957 9.846153957c 0 5.432950215 4.413203742 9.846153957 9.846153957 9.846153957c 5.432950215 0 9.846153957 -4.413203742 9.846153957 -9.846153957c 0 -5.432950215 -4.413203742 -9.846153957 -9.846153957 -9.846153957Z "/><path fill="none" transform="translate(235.89338167 142.877459533)" d="M 0 0h 12.64v 5.264h -12.64v -5.264Z "/><g transform="translate(235.893381544 142.877459423)"><g><g transform="matrix(1 0 0 -1 0 5.264)"><use xlink:href="#g30687BFCE2FAF72C7212972C26B8950A" x="0" y="0" fill="#000000" fill-rule="nonzero"/><use xlink:href="#g8CD924B1796CDEE998E484DA1D8D34C1" x="4.696" y="0" fill="#000000" fill-rule="nonzero"/><use xlink:href="#g4DADFF8D06AE4DC17FB93571E5AFF437" x="8.92" y="0" fill="#000000" fill-rule="nonzero"/></g></g></g><path fill="none" transform="translate(121.055173068 123.351184766)" d="M 0 0m 10.079449696 0c -5.561679071 0 -10.079449696 4.517770625 -10.079449696 10.079449696c 0 5.561679071 4.517770625 10.079449696 10.079449696 10.079449696c 5.561679071 0 10.079449696 -4.517770625 10.079449696 -10.079449696c 0 -5.561679071 -4.517770625 -10.079449696 -10.079449696 -10.079449696Z "/><path fill="none" transform="translate(124.56262267 130.798634533)" d="M 0 0h 13.144v 5.264h -13.144v -5.264Z "/><g transform="translate(124.562622544 130.798634423)"><g><g transform="matrix(1 0 0 -1 0 5.264)"><use xlink:href="#g30687BFCE2FAF72C7212972C26B8950A" x="0" y="0" fill="#000000" fill-rule="nonzero"/><use xlink:href="#g8CD924B1796CDEE998E484DA1D8D34C1" x="4.696" y="0" fill="#000000" fill-rule="nonzero"/><use xlink:href="#g8CD924B1796CDEE998E484DA1D8D34C1" x="8.92" y="0" fill="#000000" fill-rule="nonzero"/></g></g></g><path fill="none" transform="translate(137.114891736 151.489794647)" d="M 0 0m 10.519664886 0c -5.80458277 0 -10.519664886 4.715082117 -10.519664886 10.519664886c 0 5.80458277 4.715082117 10.519664886 10.519664886 10.519664886c 5.80458277 0 10.519664886 -4.715082117 10.519664886 -10.519664886c 0 -5.80458277 -4.715082117 -10.519664886 -10.519664886 -10.519664886Z "/><path fill="none" transform="translate(140.59055667 159.377459533)" d="M 0 0h 14.088v 5.264h -14.088v -5.264Z "/><g transform="translate(140.590556575 159.377459423)"><g><g transform="matrix(1 0 0 -1 0 5.264)"><use xlink:href="#g30687BFCE2FAF72C7212972C26B8950A" x="0" y="0" fill="#000000" fill-rule="nonzero"/><use xlink:href="#g8CD924B1796CDEE998E484DA1D8D34C1" x="4.696" y="0" fill="#000000" fill-rule="nonzero"/><use xlink:href="#g8C602F113ED136B9EC97C2B861CC969C" x="8.92" y="0" fill="#000000" fill-rule="nonzero"/></g></g></g><path fill="none" transform="translate(153.835528932 180.289223842)" d="M 0 0m 10.299060761 0c -5.682856943 0 -10.299060761 4.616203818 -10.299060761 10.299060761c 0 5.682856943 4.616203818 10.299060761 10.299060761 10.299060761c 5.682856943 0 10.299060761 -4.616203818 10.299060761 -10.299060761c 0 -5.682856943 -4.616203818 -10.299060761 -10.299060761 -10.299060761Z "/><path fill="none" transform="translate(157.32658967 187.956284533)" d="M 0 0h 13.616v 5.264h -13.616v -5.264Z "/><g transform="translate(157.32658956 187.956284423)"><g><g transform="matrix(1 0 0 -1 0 5.264)"><use xlink:href="#g30687BFCE2FAF72C7212972C26B8950A" x="0" y="0" fill="#000000" fill-rule="nonzero"/><use xlink:href="#g8CD924B1796CDEE998E484DA1D8D34C1" x="4.696" y="0" fill="#000000" fill-rule="nonzero"/><use xlink:href="#g30687BFCE2FAF72C7212972C26B8950A" x="8.92" y="0" fill="#000000" fill-rule="nonzero"/></g></g></g><path fill="none" transform="translate(107.222496131 76.518574065)" d="M 0 0m 11.833235421 0c -6.529389973 0 -11.833235421 5.303845447 -11.833235421 11.833235421c 0 6.529389973 5.303845447 11.833235421 11.833235421 11.833235421c 6.529389973 0 11.833235421 -5.303845447 11.833235421 -11.833235421c 0 -6.529389973 -5.303845447 -11.833235421 -11.833235421 -11.833235421Z "/><path fill="none" transform="translate(110.62373167 85.719809533)" d="M 0 0h 16.864v 5.264h -16.864v -5.264Z "/><g transform="translate(110.623731591 85.719809423)"><g><g transform="matrix(1 0 0 -1 0 5.264)"><use xlink:href="#g30687BFCE2FAF72C7212972C26B8950A" x="0" y="0" fill="#000000" fill-rule="nonzero"/><use xlink:href="#g8CD924B1796CDEE998E484DA1D8D34C1" x="4.696" y="0" fill="#000000" fill-rule="nonzero"/><use xlink:href="#g8CD924B1796CDEE998E484DA1D8D34C1" x="8.92" y="0" fill="#000000" fill-rule="nonzero"/><use xlink:href="#g8C50DFC0B8272CD73341C65811BD0E92" x="13.144" y="0" fill="#000000" fill-rule="nonzero"/></g></g></g><path fill="none" transform="translate(90.722463343 105.097399136)" d="M 0 0m 11.833235421 0c -6.529389973 0 -11.833235421 5.303845447 -11.833235421 11.833235421c 0 6.529389973 5.303845447 11.833235421 11.833235421 11.833235421c 6.529389973 0 11.833235421 -5.303845447 11.833235421 -11.833235421c 0 -6.529389973 -5.303845447 -11.833235421 -11.833235421 -11.833235421Z "/><path fill="none" transform="translate(94.12369867 114.298634533)" d="M 0 0h 16.864v 5.264h -16.864v -5.264Z "/><g transform="translate(94.123698591 114.298634423)"><g><g transform="matrix(1 0 0 -1 0 5.264)"><use xlink:href="#g30687BFCE2FAF72C7212972C26B8950A" x="0" y="0" fill="#000000" fill-rule="nonzero"/><use xlink:href="#g8CD924B1796CDEE998E484DA1D8D34C1" x="4.696" y="0" fill="#000000" fill-rule="nonzero"/><use xlink:href="#g8CD924B1796CDEE998E484DA1D8D34C1" x="8.92" y="0" fill="#000000" fill-rule="nonzero"/><use xlink:href="#gAD9C87F854BDA42EDABFFB35EC1FA84E" x="13.144" y="0" fill="#000000" fill-rule="nonzero"/></g></g></g><path fill="none" transform="translate(74.222529202 133.676224207)" d="M 0 0m 11.833235421 0c -6.529389973 0 -11.833235421 5.303845447 -11.833235421 11.833235421c 0 6.529389973 5.303845447 11.833235421 11.833235421 11.833235421c 6.529389973 0 11.833235421 -5.303845447 11.833235421 -11.833235421c 0 -6.529389973 -5.303845447 -11.833235421 -11.833235421 -11.833235421Z "/><path fill="none" transform="translate(77.62376467 142.877459533)" d="M 0 0h 16.864v 5.264h -16.864v -5.264Z "/><g transform="translate(77.623764591 142.877459423)"><g><g transform="matrix(1 0 0 -1 0 5.264)"><use xlink:href="#g30687BFCE2FAF72C7212972C26B8950A" x="0" y="0" fill="#000000" fill-rule="nonzero"/><use xlink:href="#g8CD924B1796CDEE998E484DA1D8D34C1" x="4.696" y="0" fill="#000000" fill-rule="nonzero"/><use xlink:href="#g8CD924B1796CDEE998E484DA1D8D34C1" x="8.92" y="0" fill="#000000" fill-rule="nonzero"/><use xlink:href="#g4DADFF8D06AE4DC17FB93571E5AFF437" x="13.144" y="0" fill="#000000" fill-rule="nonzero"/></g></g></g></g></g><defs><symbol id="gF14903D79C881A9B6AC2EE7D8BED6F03" overflow="visible"><path d="M 0 0m 1.408 2.864c -0.016 0.32 -0.024 0.528 -0.064 0.608c -0.016 0.04 -0.032 0.064 -0.096 0.064c -0.224 -0.088 -0.432 -0.16 -0.984 -0.232c -0.016 -0.048 0 -0.176 0.016 -0.224c 0.432 -0.04 0.52 -0.08 0.52 -0.544v -1.56c 0 -0.664 -0.096 -0.696 -0.592 -0.728c -0.048 -0.048 -0.048 -0.216 0 -0.264c 0.28 0.008 0.592 0.016 0.912 0.016c 0.32 0 0.688 -0.008 0.968 -0.016c 0.048 0.048 0.048 0.216 0 0.264c -0.56 0.04 -0.656 0.064 -0.656 0.728v 1.112c 0 0.208 0.096 0.392 0.192 0.536c 0.088 0.128 0.272 0.392 0.368 0.392c 0.072 0 0.144 -0.016 0.208 -0.104c 0.056 -0.08 0.152 -0.184 0.288 -0.184c 0.192 0 0.376 0.2 0.376 0.4c 0 0.152 -0.144 0.384 -0.48 0.384c -0.376 0 -0.704 -0.352 -0.888 -0.664c -0.048 -0.088 -0.088 -0.024 -0.088 0.016Z "/></symbol><symbol id="g2B678EF10194558DA6DED0CDF87DA3E4" overflow="visible"><path d="M 0 0m 0.328 1.64c 0 -0.816 0.544 -1.72 1.68 -1.72c 0.512 0 0.904 0.184 1.176 0.448c 0.36 0.352 0.52 0.856 0.52 1.344c 0 0.832 -0.456 1.8 -1.68 1.8c -0.528 0 -0.96 -0.216 -1.256 -0.56c -0.288 -0.344 -0.44 -0.808 -0.44 -1.312Z m 1.576 1.592c 0.688 0 1.112 -0.624 1.112 -1.776c 0 -1.008 -0.52 -1.256 -0.896 -1.256c -0.832 0 -1.104 1.008 -1.104 1.624c 0 0.696 0.168 1.408 0.888 1.408Z "/></symbol><symbol id="g3078E795B3E2291E912DCDEB76EE36F" overflow="visible"><path d="M 0 0m 0.344 3.432c -0.112 0 -0.144 -0.096 -0.144 -0.16v -0.104c 0 -0.04 0.008 -0.048 0.04 -0.048h 0.472v -2.408c 0 -0.568 0.248 -0.792 0.616 -0.792c 0.368 0 0.768 0.176 1.08 0.528c -0.016 0.08 -0.064 0.128 -0.144 0.136c -0.208 -0.16 -0.448 -0.224 -0.656 -0.224c -0.216 0 -0.264 0.24 -0.264 0.736v 2.024h 0.832c 0.08 0 0.192 0.032 0.192 0.104v 0.16c 0 0.032 -0.024 0.048 -0.064 0.048h -0.96v 0.312c 0 0.52 0.032 0.84 0.032 0.84c 0 0.048 -0.024 0.072 -0.064 0.072c -0.032 0 -0.104 -0.032 -0.176 -0.072c -0.088 -0.048 -0.168 -0.088 -0.272 -0.112c -0.096 -0.032 -0.176 -0.056 -0.176 -0.112c 0 -0.096 0.024 -0.04 0.024 -0.928Z "/></symbol><symbol id="g8CD924B1796CDEE998E484DA1D8D34C1" overflow="visible"><path d="M 0 0m 1.192 0h 1.704c 0.216 0 0.952 -0.016 0.952 -0.016c 0.08 0.4 0.16 0.92 0.208 1.336c -0.08 0.04 -0.168 0.056 -0.264 0.04c -0.16 -0.576 -0.456 -1.048 -1.304 -1.048h -0.504c -0.312 0 -0.456 0.152 -0.456 0.56v 3.312c 0 0.664 0.136 0.704 0.696 0.728c 0.048 0.048 0.048 0.216 0 0.264c -0.36 -0.008 -0.736 -0.016 -1.04 -0.016c -0.288 0 -0.664 0.008 -1.032 0.016c -0.048 -0.048 -0.048 -0.216 0 -0.264c 0.56 -0.024 0.696 -0.064 0.696 -0.728v -3.208c 0 -0.664 -0.136 -0.704 -0.696 -0.728c -0.048 -0.048 -0.048 -0.216 0 -0.264c 0.312 0.008 0.768 0.016 1.04 0.016Z "/></symbol><symbol id="g8C602F113ED136B9EC97C2B861CC969C" overflow="visible"><path d="M 0 0m 2.856 -0.08c 0.776 0 1.488 0.368 2.032 1.08c -0.04 0.072 -0.096 0.12 -0.184 0.12c -0.568 -0.624 -1.112 -0.872 -1.856 -0.872c -1.08 0 -1.824 1.216 -1.824 2.384c 0 0.688 0.184 1.264 0.472 1.624c 0.4 0.488 0.864 0.712 1.28 0.712c 1.104 0 1.544 -0.656 1.752 -1.344c 0.096 -0.032 0.176 -0.008 0.264 0.04c -0.04 0.416 -0.096 0.8 -0.176 1.24c -0.408 0.04 -0.768 0.36 -1.752 0.36c -0.68 0 -1.248 -0.248 -1.72 -0.68c -0.528 -0.488 -0.848 -1.272 -0.848 -2.104c 0 -1.392 0.84 -2.56 2.56 -2.56Z "/></symbol><symbol id="g30687BFCE2FAF72C7212972C26B8950A" overflow="visible"><path d="M 0 0m 1.512 0.976v 1.352c 0.672 0 0.824 -0.12 0.936 -0.304l 0.856 -1.392c 0.232 -0.376 0.576 -0.712 1.056 -0.712c 0.12 0 0.256 0.016 0.336 0.056c 0.032 0.056 0.024 0.128 -0.008 0.192c -0.36 0 -0.56 0.272 -0.768 0.616l -1.008 1.68c 0.344 0.112 1.064 0.528 1.064 1.368c 0 0.4 -0.136 0.728 -0.424 1c -0.384 0.36 -0.88 0.384 -1.384 0.384c -0.376 0 -0.712 -0.056 -1 -0.056c -0.28 0 -0.656 0.008 -1.032 0.016c -0.048 -0.048 -0.048 -0.216 0 -0.264c 0.56 -0.024 0.696 -0.064 0.696 -0.728v -3.208c 0 -0.664 -0.136 -0.704 -0.696 -0.728c -0.048 -0.048 -0.048 -0.216 0 -0.264c 0.36 0.008 0.736 0.016 1.04 0.016c 0.304 0 0.68 -0.008 1.032 -0.016c 0.048 0.048 0.048 0.216 0 0.264c -0.56 0.024 -0.696 0.064 -0.696 0.728Z m 0.664 3.968c 0.488 0 1.064 -0.176 1.064 -1.12c 0 -1 -0.568 -1.224 -1.344 -1.224h -0.384v 1.832c 0 0.232 0.096 0.512 0.664 0.512Z "/></symbol><symbol id="g8C50DFC0B8272CD73341C65811BD0E92" overflow="visible"><path d="M 0 0m 2.304 0.976v 2.776c 0 0.48 0.008 0.968 0.024 1.072c 0 0.04 -0.016 0.04 -0.048 0.04c -0.44 -0.272 -0.864 -0.472 -1.568 -0.8c 0.016 -0.088 0.048 -0.168 0.12 -0.216c 0.368 0.152 0.544 0.2 0.696 0.2c 0.136 0 0.16 -0.192 0.16 -0.464v -2.608c 0 -0.664 -0.216 -0.704 -0.776 -0.728c -0.048 -0.048 -0.048 -0.216 0 -0.264c 0.392 0.008 0.68 0.016 1.112 0.016c 0.384 0 0.576 -0.008 0.976 -0.016c 0.048 0.048 0.048 0.216 0 0.264c -0.56 0.024 -0.696 0.064 -0.696 0.728Z "/></symbol><symbol id="gAD9C87F854BDA42EDABFFB35EC1FA84E" overflow="visible"><path d="M 0 0m 0.488 3.744c 0 -0.168 0.152 -0.312 0.32 -0.312c 0.136 0 0.376 0.144 0.376 0.32c 0 0.064 -0.016 0.112 -0.032 0.168c -0.016 0.056 -0.064 0.128 -0.064 0.192c 0 0.2 0.208 0.488 0.792 0.488c 0.288 0 0.696 -0.2 0.696 -0.968c 0 -0.512 -0.184 -0.928 -0.656 -1.408l -0.592 -0.584c -0.784 -0.8 -0.912 -1.184 -0.912 -1.656c 0 0 0.408 0.016 0.664 0.016h 1.4c 0.256 0 0.624 -0.016 0.624 -0.016c 0.104 0.424 0.184 1.024 0.192 1.264c -0.048 0.04 -0.152 0.056 -0.232 0.04c -0.136 -0.568 -0.272 -0.768 -0.56 -0.768h -1.424c 0 0.384 0.552 0.928 0.592 0.968l 0.808 0.776c 0.456 0.44 0.8 0.792 0.8 1.4c 0 0.864 -0.704 1.216 -1.352 1.216c -0.888 0 -1.44 -0.656 -1.44 -1.136Z "/></symbol><symbol id="g4DADFF8D06AE4DC17FB93571E5AFF437" overflow="visible"><path d="M 0 0m 1.72 4.6c 0.344 0 0.664 -0.208 0.664 -0.72c 0 -0.4 -0.464 -1.016 -1.256 -1.128l 0.04 -0.256c 0.136 0.016 0.28 0.016 0.384 0.016c 0.456 0 1.048 -0.128 1.048 -1.032c 0 -1.064 -0.712 -1.28 -0.992 -1.28c -0.408 0 -0.48 0.184 -0.576 0.328c -0.08 0.112 -0.184 0.208 -0.344 0.208c -0.168 0 -0.336 -0.152 -0.336 -0.28c 0 -0.32 0.672 -0.536 1.152 -0.536c 0.952 0 1.8 0.616 1.8 1.672c 0 0.872 -0.656 1.184 -1.128 1.264l -0.008 0.016c 0.656 0.312 0.84 0.64 0.84 1.064c 0 0.24 -0.056 0.432 -0.248 0.632c -0.176 0.176 -0.456 0.312 -0.872 0.312c -1.176 0 -1.512 -0.768 -1.512 -1.032c 0 -0.112 0.08 -0.272 0.272 -0.272c 0.28 0 0.312 0.264 0.312 0.416c 0 0.512 0.552 0.608 0.76 0.608Z "/></symbol></defs></svg>