<svg height="48" preserveAspectRatio="xMidYMid" viewBox="0 0 48 48" width="48" xmlns="http://www.w3.org/2000/svg"><path d="m42.671885 21.063751a1.2524997 1.2524997 0 0 0 -1.1725-.81375h-15.093747l8.706248-16.927497a1.2487497 1.2487497 0 0 0 -1.112499-1.8224995 1.2499997 1.2499997 0 0 0 -.81625.3037499l-9.183748 7.9312483-18.3162463 15.8187473a1.2499997 1.2499997 0 0 0 .81625 2.19625h15.0937463l-8.706248 16.927496a1.2487497 1.2487497 0 0 0 1.1125 1.8225 1.2499997 1.2499997 0 0 0 .816249-.30375l9.183749-7.931248 18.316246-15.818747a1.2499997 1.2499997 0 0 0 .35625-1.3825z" fill="#ffac33" stroke-width="1.25"/></svg>