<?xml version="1.0" encoding="UTF-8" standalone="no"?>
<!-- Created with Inkscape (http://www.inkscape.org/) -->

<svg
   width="236.13646mm"
   height="50.106224mm"
   viewBox="0 0 236.13646 50.106224"
   version="1.1"
   id="svg1"
   inkscape:version="1.4.2 (f4327f4, 2025-05-13)"
   sodipodi:docname="muw_white.svg"
   xmlns:inkscape="http://www.inkscape.org/namespaces/inkscape"
   xmlns:sodipodi="http://sodipodi.sourceforge.net/DTD/sodipodi-0.dtd"
   xmlns="http://www.w3.org/2000/svg"
   xmlns:svg="http://www.w3.org/2000/svg">
  <sodipodi:namedview
     id="namedview1"
     pagecolor="#ffffff"
     bordercolor="#000000"
     borderopacity="0.25"
     inkscape:showpageshadow="2"
     inkscape:pageopacity="0.0"
     inkscape:pagecheckerboard="true"
     inkscape:deskcolor="#d1d1d1"
     inkscape:document-units="mm"
     inkscape:zoom="1.4803312"
     inkscape:cx="434.36225"
     inkscape:cy="77.347555"
     inkscape:window-width="2560"
     inkscape:window-height="1377"
     inkscape:window-x="-8"
     inkscape:window-y="-8"
     inkscape:window-maximized="1"
     inkscape:current-layer="layer1" />
  <defs
     id="defs1" />
  <g
     inkscape:label="Layer 1"
     inkscape:groupmode="layer"
     id="layer1"
     transform="translate(48.656219,-113.69621)">
    <path
       style="fill:#ffffff;fill-opacity:1;stroke-width:0.264583"
       d="m -25.588576,163.69913 c -25.439551,-2.38153 -31.841357,-35.98212 -9.03478,-47.42005 16.28232,-8.16589 35.8518301,4.04645 35.8681301,22.38347 0.013,14.61386 -12.5871101,26.37024 -26.8333501,25.03658 z m 4.24751,-1.54788 c 19.8627001,-2.15698 28.2656601,-26.34664 13.9775701,-40.23735 -12.3677301,-12.02376 -33.0584701,-7.0149 -38.6046601,9.3455 -5.449381,16.07482 7.81801,32.71723 24.62709,30.89185 z m -3.9413,-2.53842 c -7.29007,-0.53924 -11.70767,-3.84019 -12.74082,-9.52028 -0.23889,-1.31335 -0.37457,-20.25047 -0.15522,-21.66419 0.69443,-4.47575 6.3346,-5.72581 8.91467,-1.97581 0.82493,1.19898 0.78851,0.64826 0.79133,11.9683 0.002,9.64875 0.0135,10.19495 0.21627,10.64137 0.50825,1.11905 2.05682,1.11404 2.70703,-0.009 0.0975,-0.1683 0.14937,-3.08042 0.19144,-10.73984 0.0577,-10.50892 0.0577,-10.50892 0.44187,-11.28909 1.80565,-3.66716 6.99553,-3.6946 8.79149,-0.0465 0.55577,1.12892 0.57548,1.54152 0.57796,12.10189 0.002,9.84741 0.003,9.88581 0.24342,10.19117 0.70922,0.90162 2.02062,0.81488 2.55241,-0.16884 0.34974,-0.64695 0.2604,-21.17815 -0.0967,-22.22569 -2.04139,-5.98815 -9.70579,-7.68199 -13.61246,-3.00836 -0.44021,0.52663 -0.44021,0.52663 -1.2638,-0.30588 -1.83487,-1.85477 -4.67496,-2.75434 -7.10145,-2.24932 -1.22721,0.25541 2.69345,-1.83022 4.50273,-2.39527 10.3165,-3.22192 19.6936,0.73263 20.9481201,8.83435 0.40347,2.60562 0.20096,21.71268 -0.23999,22.64333 -1.7369801,3.666 -6.9284501,3.87237 -8.7505101,0.34786 -0.61532,-1.19026 -0.57957,-0.53184 -0.64245,-11.8299 -0.0584,-10.48643 -0.0584,-10.48643 -0.48962,-10.88159 -0.76039,-0.69674 -1.86785,-0.49932 -2.34195,0.41749 -0.147,0.28425 -0.17088,1.72464 -0.17088,10.30722 0,10.49389 -0.0123,10.76557 -0.53538,11.83844 -1.58197,3.2446 -6.32654,3.59985 -8.37203,0.62684 -0.90615,-1.31704 -0.84156,-0.44935 -0.90622,-12.17562 -0.0573,-10.39339 -0.0595,-10.47147 -0.29902,-10.795 -0.65675,-0.887 -1.79872,-0.84674 -2.49662,0.088 -0.2999,0.40168 -0.32813,20.61042 -0.0306,21.90292 1.38129,6.00037 8.85651,8.10222 13.31869,3.74488 l 0.85937,-0.83917 0.56307,0.63174 c 1.73426,1.9458 4.93228,2.99732 7.33715,2.41248 0.51808,-0.12599 0.23891,0.14648 -0.6931,0.67646 -2.58995,1.47277 -5.82961,2.50959 -8.39894,2.68801 -2.02902,0.1409 -2.398,0.14664 -3.61925,0.0563 z m 19.2128801,-20.83482 c 6e-5,-9.84177 0.0205,-11.17209 0.16859,-10.97634 0.28782,0.38045 1.17556,2.16215 1.59202,3.19517 2.15865,5.35453 1.94927,11.58125 -0.56448,16.78662 -1.3258,2.7454 -1.1962,3.72109 -1.19613,-9.00545 z m -35.8224301,10.30431 c -2.91945,-5.03273 -3.51676,-11.53562 -1.57666,-17.16478 0.38983,-1.13108 1.74835,-3.95244 2.00618,-4.16642 0.15217,-0.12628 0.172,1.13724 0.172,10.95502 0,6.10378 -0.0412,11.09777 -0.0915,11.09777 -0.0503,0 -0.27983,-0.32471 -0.51006,-0.72159 z m 53.24309,4.75662 c -5.4731099,-0.8156 -5.9105499,-10.07166 -0.56199,-11.89169 3.11163,-1.05883 6.09051,0.56715 6.75141,3.68517 1.03859,4.89994 -1.93357,8.84071 -6.18942,8.20652 z m 2.70097,-1.38327 c 2.94376,-1.38373 2.58781,-8.47043 -0.47793,-9.51504 -2.3546,-0.80229 -4.4018599,0.72035 -4.7812699,3.55607 -0.59109,4.41774 2.0856899,7.45069 5.2591999,5.95897 z m 52.722916,-3.28901 c -1.74625,-2.63772 -3.22696,-4.87326 -3.29046,-4.96787 -0.11367,-0.16936 -0.11385,7.56261 -1.8e-4,8.09314 0.042,0.19589 0.20047,0.26182 0.92022,0.38276 0.90083,0.15137 0.99682,0.24221 0.79943,0.7566 -0.1124,0.2929 -4.433358,0.27396 -4.431068,-0.0194 0.005,-0.58603 0.12073,-0.70583 0.762068,-0.78596 0.8038,-0.10043 0.72432,0.42318 0.74523,-4.90966 l 0.0183,-4.66643 -0.73473,-0.18583 c -0.4041,-0.1022 -0.729528,-0.24508 -0.723178,-0.3175 0.006,-0.0724 0.0193,-0.23557 0.0289,-0.36257 0.0164,-0.21805 0.10006,-0.23091 1.502618,-0.23091 h 1.48529 l 2.98857,4.49859 2.98857,4.4986 0.0369,-1.75655 c 0.0203,-0.96611 0.002,-2.75026 -0.041,-3.96479 l -0.0779,-2.20823 -0.85749,-0.14668 c -0.96398,-0.16489 -0.96734,-0.16719 -0.88382,-0.6041 0.0681,-0.35622 4.55316,-0.52722 4.52487,-0.17253 -0.0484,0.60713 -0.16418,0.72035 -0.85926,0.84035 l -0.68787,0.11875 -0.0312,5.24806 c -0.0336,5.65375 -0.0101,5.45509 -0.66156,5.5876 -0.34517,0.0702 -0.3573,0.0539 -3.52137,-4.72541 z m 15.47405,4.30082 c -0.18452,-0.26871 -1.66821,-2.48882 -3.29708,-4.93357 l -2.96159,-4.445 0.0669,3.52137 c 0.0368,1.93675 0.0675,3.83672 0.0682,4.22215 0.001,0.70079 0.001,0.70079 0.93444,0.85232 0.86299,0.14015 0.92818,0.16991 0.86749,0.39603 -0.0361,0.13447 -0.0663,0.30944 -0.0672,0.38882 -0.001,0.11048 -0.5315,0.14431 -2.26212,0.14431 -2.26053,0 -2.26053,0 -2.18147,-0.37522 0.1046,-0.49639 0.13327,-0.51884 0.80519,-0.63045 0.65737,-0.10919 0.70155,-0.51134 0.73482,-6.68839 l 0.0156,-2.90269 -0.75611,-0.15029 c -1.54286,-0.30667 -1.06539,-0.84783 0.78389,-0.88844 l 1.47096,-0.0323 3.03174,4.55431 c 1.66744,2.50487 3.03257,4.54563 3.0336,4.53503 10e-4,-0.0106 -0.0249,-1.81168 -0.0577,-4.0024 l -0.0596,-3.98313 -0.90052,-0.16541 c -0.90052,-0.16542 -0.90052,-0.16542 -0.86591,-0.5196 0.0398,-0.40729 4.47961,-0.65382 4.47961,-0.24874 0,0.53622 -0.21119,0.74138 -0.84464,0.82053 l -0.62636,0.0783 -0.0833,5.32833 c -0.0458,2.93059 -0.11751,5.36044 -0.15927,5.39966 -0.3404,0.31976 -0.842,0.20162 -1.1696,-0.27548 z m -45.872866,-1.66656 c -0.41949,-1.0666 -1.26411,-3.21216 -1.87693,-4.76791 -0.61282,-1.55575 -1.21479,-3.09669 -1.33771,-3.42431 -0.21326,-0.56842 -0.2497,-0.60196 -0.79638,-0.73311 -0.58056,-0.13927 -0.62474,-0.19782 -0.50012,-0.66281 0.0883,-0.32934 4.42996,-0.42157 4.42996,-0.0941 0,0.55734 -0.20785,0.7439 -0.91838,0.82428 -0.38389,0.0434 -0.69799,0.0949 -0.69799,0.11442 0,0.0195 0.61471,1.63636 1.36602,3.59304 0.7513,1.95668 1.48474,3.88162 1.62987,4.27765 0.22377,0.61069 0.46775,0.86472 0.46775,0.48704 0,-0.0589 0.64943,-1.96423 1.443178,-4.23418 0.79375,-2.26995 1.44318,-4.13541 1.44318,-4.14547 0,-0.0101 -0.34025,-0.0859 -0.7561,-0.16858 -1.787978,-0.35539 -1.0377,-0.85071 1.34449,-0.88759 2.18634,-0.0338 3.04447,0.57957 1.32771,0.9491 -0.67214,0.14468 -0.57122,-0.021 -1.51544,2.48826 -3.314778,8.80916 -3.063938,8.25002 -3.718698,8.28928 -0.5717,0.0343 -0.5717,0.0343 -1.33441,-1.905 z m -17.51325,1.40193 c 0.11634,-0.51583 0.0531,-0.46971 0.80661,-0.58811 l 0.635,-0.0998 0.0301,-4.73808 0.0301,-4.73807 -0.72154,-0.14904 c -0.8992,-0.18572 -0.86912,-0.16391 -0.80726,-0.58533 0.0516,-0.35144 0.0516,-0.35144 4.21223,-0.35144 h 4.16066 l -0.0694,1.22581 c -0.0788,1.39079 -0.0539,1.33004 -0.55474,1.35398 -0.36663,0.0175 -0.37916,0.002 -0.55672,-0.69555 -0.22911,-0.89995 0.002,-0.80409 -2.17323,-0.90018 l -1.87614,-0.0829 v 2.26259 2.26258 l 1.12568,-0.002 c 1.4707,-0.002 1.60579,-0.0448 1.76849,-0.55901 0.15509,-0.49018 0.39141,-0.70941 0.76472,-0.70941 0.34901,0 0.42979,3.3763 0.0839,3.50901 -0.44681,0.17145 -0.5871,0.0729 -0.80389,-0.56492 -0.21585,-0.635 -0.21585,-0.635 -1.31762,-0.63658 -0.60597,-7.9e-4 -1.21987,-0.0332 -1.3642,-0.0719 -0.26243,-0.0703 -0.26243,-0.0703 -0.23091,2.0509 l 0.0315,2.12121 0.86591,0.14315 c 1.15888,0.19159 1.15384,0.18885 1.05154,0.57168 -0.15643,0.58537 -5.22293,0.55644 -5.09088,-0.0291 z m 25.746368,0.20902 c 0.005,-0.58038 0.11904,-0.69612 0.78819,-0.79663 l 0.65342,-0.0981 0.0301,-4.74919 0.0301,-4.74919 -0.75798,-0.14302 c -0.75375,-0.14222 -0.75778,-0.14503 -0.72286,-0.50399 0.0432,-0.44446 4.59741,-0.66166 4.594,-0.2191 -0.005,0.59741 -0.11319,0.70128 -0.81871,0.78316 l -0.68317,0.0793 0.0301,4.74668 0.0301,4.74668 0.80819,0.15994 c 0.96178,0.19032 0.90679,0.15021 0.80999,0.59093 -0.0961,0.43734 -4.79499,0.58696 -4.7916,0.15258 z m 6.18269,-0.11546 c 0.0383,-0.17462 0.0875,-0.37705 0.10943,-0.44985 0.0219,-0.0728 0.29284,-0.16715 0.60202,-0.20967 0.30918,-0.0425 0.6252,-0.11629 0.70227,-0.16392 0.10694,-0.0661 0.13297,-1.19082 0.10993,-4.74904 l -0.0302,-4.66244 -0.75045,-0.18487 c -0.42201,-0.10396 -0.74541,-0.24547 -0.73891,-0.32333 0.006,-0.0762 0.0193,-0.24238 0.0289,-0.36938 0.017,-0.22631 0.10006,-0.2309 4.17368,-0.2309 h 4.15637 l -0.001,0.66386 c -0.002,1.46748 -0.10139,1.83338 -0.53274,1.96577 -0.45724,0.14033 -0.43779,0.16285 -0.62594,-0.72463 -0.19183,-0.90486 -0.0126,-0.83019 -2.21737,-0.92382 l -1.93386,-0.0821 v 2.09047 2.09048 l 0.83705,-0.001 c 1.71351,-0.002 2.00306,-0.0821 2.15704,-0.59601 0.14254,-0.47576 0.53476,-0.76128 0.86938,-0.63287 0.41694,0.15999 0.18687,3.47472 -0.24409,3.51657 -0.34436,0.0334 -0.37431,0.004 -0.56042,-0.55664 -0.23371,-0.70364 -0.13605,-0.66367 -1.7601,-0.7205 l -1.29886,-0.0454 v 2.21349 2.21349 l 1.29886,0.0748 c 3.21205,0.18508 3.27072,0.17273 3.49324,-0.73528 0.20931,-0.85414 0.37196,-1.0361 0.92609,-1.0361 0.307,0 0.307,0 0.23177,1.12568 -0.13313,1.9921 0.4759,1.76068 -4.6336,1.76068 -4.43803,0 -4.43803,0 -4.36846,-0.3175 z m 33.764578,0.11546 c 0.004,-0.57177 0.12634,-0.70596 0.72823,-0.80177 0.64949,-0.10338 0.28656,0.70101 4.13925,-9.17399 0.724,-1.85572 1.62334,-2.3641 2.05274,-1.16037 0.38327,1.07444 3.73589,9.91513 3.82153,10.0772 0.053,0.10021 0.38499,0.24681 0.73785,0.32578 0.65529,0.14665 0.75407,0.27672 0.57147,0.75257 -0.14831,0.38649 -4.77942,0.25574 -4.77724,-0.13488 0.003,-0.49388 0.1213,-0.58246 0.89693,-0.67022 0.89987,-0.10181 0.89476,-0.0917 0.5327,-1.04954 -0.16453,-0.43526 -0.4022,-1.06527 -0.52814,-1.40002 -0.229,-0.60865 -0.229,-0.60865 -2.36892,-0.57727 l -2.13992,0.0314 -0.50015,1.32773 c -0.27509,0.73025 -0.50292,1.38331 -0.5063,1.45124 -0.003,0.0679 0.40949,0.19102 0.91749,0.27351 0.95687,0.1554 1.04975,0.2368 0.85355,0.74808 -0.1124,0.2929 -4.43336,0.27396 -4.43107,-0.0194 z m 7.50297,-4.98798 c 0,-0.0605 -0.22507,-0.72293 -0.50015,-1.47204 -0.27509,-0.74911 -0.64495,-1.76716 -0.82191,-2.26232 -0.17696,-0.49516 -0.33977,-0.88227 -0.36179,-0.86025 -0.022,0.022 -0.42437,1.08958 -0.89411,2.37234 l -0.85407,2.33229 h 1.71601 c 1.01054,0 1.71602,-0.0452 1.71602,-0.11002 z M 53.856232,136.35157 c -2.41864,-0.68006 -3.69854,-2.66594 -3.70462,-5.74805 -0.009,-4.74363 3.51118,-7.33596 8.1788,-6.02241 1.00859,0.28384 1.07981,2.73736 0.0826,2.84565 -0.33298,0.0362 -0.3407,0.024 -0.52511,-0.8292 -0.3461,-1.60126 -3.33445,-1.76605 -4.87145,-0.26864 -1.51821,1.47911 -1.66821,5.6605 -0.26888,7.49511 1.10123,1.44379 3.8934,1.78687 5.96038,0.73238 0.56618,-0.28885 0.59137,-0.27107 0.49245,0.34754 -0.19099,1.1944 -3.27431,2.02961 -5.34417,1.44762 z m 36.515828,0.0188 c -1.20053,-0.30508 -2.02646,-1.00441 -2.43814,-2.06442 -0.16168,-0.41628 -0.19812,-1.12151 -0.23543,-4.55602 l -0.0442,-4.06351 -0.61668,-0.13801 c -0.82813,-0.18532 -0.87612,-0.22467 -0.76792,-0.62962 0.16421,-0.61456 4.69566,-0.58413 4.58031,0.0308 -0.0979,0.52181 -0.15078,0.56007 -0.89623,0.64836 -0.31954,0.0378 -0.59847,0.0863 -0.61983,0.10764 -0.079,0.079 -0.0621,7.2086 0.0181,7.65005 0.4693,2.58131 4.88704,2.88465 5.82682,0.4001 0.15593,-0.41223 0.25,-5.05186 0.14443,-7.12296 -0.0482,-0.94614 -0.0482,-0.94614 -0.66531,-1.08424 -0.84225,-0.18848 -0.90597,-0.24092 -0.81209,-0.66837 0.12142,-0.55281 4.10181,-0.57481 4.10181,-0.0227 0,0.45485 -0.23198,0.6576 -0.86019,0.75181 -0.43869,0.0658 -0.52552,0.12042 -0.52681,0.33146 -0.0271,4.42509 -0.18454,7.64393 -0.40574,8.29219 -0.61264,1.79553 -3.26732,2.77672 -5.78299,2.13745 z m 14.48832,-4.72172 c -1.78537,-2.68287 -3.25415,-4.88795 -3.26395,-4.90018 -0.01,-0.0122 0.002,1.85814 0.0265,4.15636 0.0244,2.29823 0.0563,4.19179 0.0708,4.20791 0.0145,0.0161 0.33362,0.084 0.70909,0.15075 1.14459,0.20363 1.23542,0.27953 1.01667,0.84959 -0.15417,0.40174 -4.43265,0.25166 -4.43265,-0.1555 0,-0.46687 0.23205,-0.65606 0.916,-0.74679 0.58491,-0.0776 0.58491,-0.0776 0.58491,-4.8028 0,-5.24889 0.12617,-4.71275 -1.18341,-5.02886 -0.35147,-0.0848 -0.36869,-0.13283 -0.20354,-0.5672 0.11395,-0.29972 0.11395,-0.29972 1.52564,-0.26729 l 1.41169,0.0324 3.03908,4.56045 3.03909,4.56045 -0.0773,-3.98317 c -0.0425,-2.19075 -0.0834,-3.99151 -0.0909,-4.00168 -0.007,-0.0102 -0.39507,-0.0973 -0.86137,-0.19358 -1.00249,-0.20703 -0.99601,-0.20235 -0.85754,-0.61776 0.17674,-0.53022 4.49483,-0.50918 4.44141,0.0216 -0.0397,0.39458 -0.29431,0.635 -0.67242,0.635 -0.90314,0 -0.85136,-0.33355 -0.85136,5.48409 0,5.2589 0,5.2589 -0.29615,5.37149 -0.6648,0.25276 -0.59718,0.33351 -3.99034,-4.76535 z m 48.08038,4.71148 c -0.77766,-0.17672 -1.69678,-0.54781 -1.8098,-0.73069 -0.12163,-0.19679 -0.22835,-2.4137 -0.1192,-2.47592 0.55768,-0.31789 0.70292,-0.22803 1.02173,0.6321 0.48244,1.30158 1.05768,1.63018 2.83338,1.61852 2.27613,-0.0149 3.38197,-1.83707 1.903,-3.13562 -0.37264,-0.32718 -0.74104,-0.5205 -3.17689,-1.66713 -4.83064,-2.27391 -2.09868,-7.11797 3.46753,-6.1483 1.33761,0.23302 2.02873,2.08171 1.02313,2.73682 -0.45088,0.29374 -0.72878,0.0712 -0.86482,-0.69257 -0.1477,-0.82925 -0.20037,-0.88126 -1.07813,-1.06469 -2.51279,-0.52511 -4.20008,0.7407 -3.34416,2.5088 0.29624,0.61195 0.76877,0.9114 2.99398,1.89734 2.50918,1.11175 3.11712,1.82184 2.96931,3.46819 -0.21635,2.40963 -2.76543,3.74709 -5.81906,3.05315 z m -30.62447,-0.20875 c -0.0562,-0.14288 -0.94359,-2.38991 -1.97203,-4.99341 -1.02843,-2.6035 -1.92278,-4.89503 -1.98746,-5.09228 -0.0982,-0.29951 -0.22005,-0.39095 -0.73897,-0.55452 -0.62078,-0.19568 -0.75559,-0.50584 -0.39464,-0.90793 0.28627,-0.31889 4.33404,-0.0172 4.29625,0.32018 -0.0516,0.46089 -0.0981,0.49676 -0.82236,0.6341 -0.34218,0.0649 -0.64749,0.14334 -0.67848,0.17432 -0.031,0.031 0.26055,0.87488 0.64784,1.87533 0.3873,1.00044 1.07529,2.80611 1.52887,4.01261 0.45358,1.2065 0.87769,2.32353 0.94247,2.48228 0.10462,0.25636 0.19378,0.0692 0.79744,-1.67409 0.3738,-1.0795 1.05313,-3.01907 1.50963,-4.31016 0.91426,-2.58583 0.91321,-2.49024 0.0291,-2.62399 -0.69003,-0.10439 -0.78954,-0.1929 -0.65867,-0.58591 0.20173,-0.60577 4.13302,-0.5651 4.01969,0.0416 -0.0996,0.53304 -0.0382,0.47706 -0.7053,0.64339 -0.55631,0.13872 -0.55631,0.13872 -2.53321,5.341 -2.25063,5.92266 -2.71342,6.65878 -3.28015,5.21749 z M 6.8135841,135.92047 c 0.0797,-0.43266 0.32003,-0.66387 0.69012,-0.66387 0.85866,0 0.80516,0.29183 0.89062,-4.85781 0.0424,-2.55585 0.0597,-4.66443 0.0384,-4.68573 -0.0213,-0.0213 -0.38436,-0.12402 -0.8068,-0.22827 -0.73726,-0.18194 -0.76523,-0.20163 -0.69729,-0.49091 0.11156,-0.47497 0.14466,-0.48309 1.83135,-0.44907 l 1.5988899,0.0323 1.27832,2.71407 c 0.70308,1.49274 1.5005,3.20388 1.77205,3.80255 l 0.49373,1.08849 1.75965,-3.6871 c 0.96781,-2.02791 1.80078,-3.75204 1.85104,-3.83142 0.27025,-0.42678 3.45932,-0.16384 3.38741,0.2793 -0.083,0.51156 -0.16891,0.57151 -0.96057,0.67042 l -0.61726,0.0771 v 4.66354 c 0,5.27385 -0.0926,4.80896 0.98688,4.95463 0.78684,0.10618 0.87795,0.17766 0.78959,0.61946 -0.0735,0.36757 -0.0735,0.36757 -2.49648,0.36757 -2.42296,0 -2.42296,0 -2.34209,-0.43295 0.10012,-0.53596 0.015,-0.47391 0.85211,-0.62136 l 0.70908,-0.12491 v -4.34534 -4.34534 l -1.07916,2.25064 c -3.50659,7.31311 -2.77946,7.44871 -6.8139399,-1.27073 -0.40065,-0.86591 -0.40065,-0.86591 -0.41014,3.4252 -0.0102,4.62661 -0.0389,4.5304 1.3527899,4.54292 0.36784,0.003 0.49134,0.16859 0.41419,0.5543 -0.0735,0.36757 -0.0735,0.36757 -2.3075599,0.36757 -2.23404,0 -2.23404,0 -2.16493,-0.37522 z m 15.2821399,0.17318 c 0.004,-0.47889 0.1448,-0.70983 0.47199,-0.77273 1.14773,-0.22062 1.02735,0.35524 1.02735,-4.9143 v -4.71618 l -0.62567,-0.14002 c -0.8521,-0.19069 -0.91475,-0.242 -0.82037,-0.67175 0.0796,-0.36223 0.0796,-0.36223 4.19757,-0.33192 l 4.11801,0.0303 -0.0328,1.03909 c -0.0453,1.43347 -0.0712,1.51595 -0.50366,1.60243 -0.45628,0.0913 -0.4295,0.12377 -0.63309,-0.76874 -0.19843,-0.86993 -0.25555,-0.88858 -2.72701,-0.89041 l -1.35659,-0.001 v 2.06868 2.06869 l 1.35659,-0.0638 c 1.55192,-0.073 1.41509,-0.0193 1.64585,-0.64645 0.48128,-1.30804 0.92301,-0.74152 0.92301,1.18376 0,1.42435 -0.0296,1.73914 -0.16373,1.73914 -0.0901,0 -0.24093,0.0296 -0.33528,0.0658 -0.12471,0.0478 -0.23392,-0.10185 -0.40006,-0.54841 -0.25076,-0.674 -0.43624,-0.73476 -2.36252,-0.77392 l -0.66386,-0.0135 v 2.2331 2.23309 l 2.21479,0.0741 c 1.21813,0.0407 2.23758,0.0513 2.26543,0.0234 0.0279,-0.0279 0.14766,-0.4005 0.26623,-0.82811 0.24702,-0.89081 0.26161,-0.90994 0.7665,-1.00427 0.41458,-0.0775 0.48591,0.44765 0.30106,2.21627 l -0.0742,0.70966 h -4.42855 c -4.1413,0 -4.42845,-0.0131 -4.42698,-0.20204 z m 10.31393,-0.14253 c 0.0415,-0.20736 0.0754,-0.41835 0.0754,-0.46887 0,-0.0505 0.15586,-0.12195 0.34636,-0.15875 0.1905,-0.0368 0.50223,-0.097 0.69273,-0.1338 0.52528,-0.10146 0.55348,-9.46478 0.0289,-9.58293 -1.28941,-0.29039 -1.26756,-0.27379 -1.06417,-0.80875 0.25893,-0.68103 6.821808,-0.25382 8.313348,0.54116 3.53936,1.88646 3.1312,8.60776 -0.62359,10.26869 -1.668758,0.73816 -7.903018,1.01361 -7.768948,0.34325 z m 5.79041,-0.92377 c 2.205168,-0.358 3.216988,-1.87006 3.207328,-4.79302 -0.0111,-3.36746 -1.54221,-4.79104 -5.003878,-4.65254 l -0.85891,0.0344 -0.0302,4.61799 c -0.0166,2.53989 -0.005,4.68302 0.0252,4.7625 0.0682,0.17772 1.64291,0.1959 2.66043,0.0307 z m 5.911938,1.18175 c -0.0262,-0.0476 -0.002,-0.25478 0.0538,-0.46035 0.10387,-0.38279 0.14209,-0.40279 1.04808,-0.54846 0.43295,-0.0696 0.43295,-0.0696 0.43295,-4.78649 v -4.71689 l -0.60613,-0.14223 c -0.90616,-0.21262 -1.00565,-0.28501 -0.90573,-0.659 0.13938,-0.5217 4.62914,-0.56115 4.62914,-0.0407 0,0.46933 -0.23114,0.65838 -0.916,0.74923 -0.58491,0.0776 -0.58491,0.0776 -0.58491,4.79947 0,5.30964 -0.10281,4.76835 0.9334,4.91429 0.72779,0.1025 0.81458,0.17528 0.72761,0.61012 -0.0703,0.35172 -4.62714,0.61778 -4.81225,0.28098 z m 15.70182,0 c -0.13618,-0.24778 0.1705,-0.83747 0.46984,-0.9034 0.978908,-0.21563 0.60155,0.49763 3.080058,-5.82182 2.85964,-7.29124 2.22669,-7.66361 6.5501,3.85342 0.68712,1.83041 0.72133,1.87804 1.42449,1.98348 0.60645,0.0909 0.67573,0.16752 0.57335,0.63368 -0.12021,0.54729 -4.87056,0.48521 -4.80917,-0.0629 0.054,-0.48225 0.14321,-0.54318 0.95838,-0.65466 0.39477,-0.054 0.73104,-0.11144 0.74727,-0.12766 0.0162,-0.0162 -0.19646,-0.65213 -0.47263,-1.41313 l -0.50212,-1.38364 -2.14011,-0.0314 c -1.94978,-0.0286 -2.14964,-0.0132 -2.24718,0.17318 -0.21977,0.41997 -0.95896,2.59378 -0.90152,2.65122 0.0328,0.0328 0.43412,0.13105 0.89173,0.21824 0.98608,0.18789 0.93417,0.1505 0.84284,0.60713 -0.07,0.34977 -4.281768,0.61219 -4.465328,0.27821 z m 7.536058,-5.08 c -0.001,-0.0476 -0.38359,-1.14456 -0.84942,-2.43763 l -0.84698,-2.35104 -0.32343,0.90786 c -0.1779,0.49932 -0.57497,1.57478 -0.8824,2.3899 -0.30743,0.81513 -0.55896,1.50353 -0.55896,1.52977 0,0.0263 0.77932,0.0477 1.73182,0.0477 0.9525,0 1.73072,-0.039 1.72937,-0.0866 z m 5.48399,4.73364 c 0.0991,-0.53074 0.0213,-0.46737 0.74187,-0.60403 0.33345,-0.0632 0.64457,-0.13865 0.69138,-0.16758 0.0468,-0.0289 0.0818,-2.14666 0.0777,-4.70606 -0.008,-5.14805 0.10407,-4.69887 -1.2486,-4.99293 -0.34886,-0.0758 -0.3713,-0.139 -0.2049,-0.57665 0.21567,-0.56725 4.79055,-0.44313 4.69796,0.12746 -0.0842,0.51882 -0.16068,0.569 -1.01469,0.66562 l -0.6786,0.0768 v 4.66336 c 0,2.56485 0.0394,4.68773 0.0876,4.71752 0.0482,0.0298 1.07383,0.0693 2.27918,0.0879 l 2.19155,0.0337 0.23317,-0.85548 c 0.19589,-0.71871 0.27912,-0.86826 0.52059,-0.93548 0.72582,-0.20202 0.72324,-0.20592 0.64131,0.96494 -0.15207,2.17331 0.42352,1.93386 -4.6487,1.93386 -4.4477,0 -4.4477,0 -4.36682,-0.43295 z m 39.02781,0.0577 c 0.0896,-0.43256 0.33544,-0.66387 0.70565,-0.66387 0.89719,0 0.85136,0.26065 0.85136,-4.84217 0,-5.19118 0.077,-4.76713 -0.89326,-4.92227 -0.65408,-0.10459 -0.73114,-0.17531 -0.62478,-0.57338 0.1642,-0.61456 4.69566,-0.58413 4.58031,0.0308 -0.0888,0.47331 -0.21715,0.6044 -0.59443,0.60712 -1.03502,0.007 -0.96693,-0.33428 -0.96693,4.85277 0,5.34066 -0.129,4.73716 1.04885,4.90686 0.70531,0.10161 0.77873,0.16384 0.71287,0.60418 -0.0561,0.37522 -0.0561,0.37522 -2.47673,0.37522 -2.42061,0 -2.42061,0 -2.34291,-0.37522 z m 17.54909,0 c 0.10084,-0.48703 0.28189,-0.61812 0.98184,-0.71098 0.57517,-0.0763 0.57517,-0.0763 0.57517,-4.79653 v -4.72023 l -0.76058,-0.17349 c -0.90947,-0.20745 -0.90851,-0.20669 -0.77163,-0.61746 0.10821,-0.32472 0.10821,-0.32472 4.24278,-0.35506 l 4.13456,-0.0303 -0.0625,1.22498 c -0.0675,1.32317 -0.11182,1.43013 -0.60738,1.46689 -0.31125,0.0231 -0.33636,-0.0123 -0.51477,-0.72514 -0.22588,-0.90251 -0.24062,-0.90765 -2.63409,-0.91803 l -1.53408,-0.007 0.014,2.01964 c 0.008,1.1108 0.0486,2.04025 0.0909,2.06545 0.56313,0.33554 2.77434,-0.12426 2.92396,-0.60801 0.15345,-0.49616 0.19442,-0.53547 0.59275,-0.56883 0.57639,-0.0483 0.69964,3.22869 0.12958,3.44543 -0.3938,0.14972 -0.45837,0.0955 -0.67982,-0.57128 -0.18762,-0.56487 -0.18762,-0.56487 -1.49941,-0.64684 -1.7042,-0.10648 -1.57326,-0.28517 -1.55808,2.12625 0.0159,2.52785 -0.23649,2.27222 2.32957,2.3594 2.45905,0.0835 2.24679,0.16719 2.51355,-0.99063 0.1512,-0.65631 0.43501,-0.8904 1.08441,-0.89449 0.10118,-5.3e-4 0.002,2.22862 -0.12228,2.7414 -0.12154,0.50254 -8.97255,0.38731 -8.86844,-0.11545 z m 10.31297,0.31815 c -0.35632,-0.35632 0.17017,-0.91587 0.97109,-1.03206 0.54841,-0.0796 0.54841,-0.0796 0.54841,-4.79814 v -4.71858 l -0.72159,-0.16028 c -2.73335,-0.60712 1.04762,-1.32039 4.79006,-0.90363 3.67756,0.40954 4.60693,4.541 1.36157,6.05279 -0.28777,0.13405 -0.54165,0.25453 -0.56417,0.26773 -0.0883,0.0518 2.23831,3.77785 2.55944,4.09897 0.0978,0.0978 0.49334,0.2399 0.87898,0.31577 0.74272,0.14612 0.76602,0.1716 0.58712,0.64215 -0.11404,0.29994 -0.11404,0.29994 -1.41096,0.26728 -1.46598,-0.0369 -1.34725,0.0877 -3.32409,-3.48806 -0.86591,-1.56626 -0.86591,-1.56626 -1.70295,-1.56657 l -0.83705,-2.6e-4 v 1.95454 c 0,2.15853 -0.1692,1.92463 1.64523,2.27442 0.31958,0.0616 0.39848,0.27475 0.24742,0.66842 -0.068,0.17722 -4.85725,0.2968 -5.02851,0.12555 z m 5.50162,-6.1942 c 1.82615,-0.48591 2.22769,-3.40695 0.57606,-4.1907 -0.45048,-0.21377 -2.26168,-0.44097 -2.67945,-0.33611 -0.36313,0.0911 -0.42093,4.59552 -0.0603,4.70137 0.27776,0.0815 1.60311,-0.0254 2.16371,-0.17456 z m 14.83873,5.93377 c 0.003,-0.50297 0.58437,-0.83704 1.45718,-0.83704 0.27732,0 0.004,-9.45147 -0.27553,-9.51888 -1.25318,-0.3025 -1.327,-0.36352 -1.11333,-0.92031 0.0703,-0.18325 4.39906,-0.29318 4.57603,-0.11621 0.32887,0.32888 -0.2345,0.92438 -0.96635,1.02146 -0.56249,0.0746 -0.56249,0.0746 -0.56249,4.79609 v 4.72148 l 0.66386,0.13159 c 1.13736,0.22544 1.21465,0.2918 0.99788,0.8567 -0.14831,0.38649 -4.77942,0.25574 -4.77725,-0.13488 z m 8.23319,-0.10089 c 0.0845,-0.52092 0.035,-0.48122 0.77525,-0.6216 0.34218,-0.0649 0.66353,-0.15937 0.71411,-0.20996 0.0506,-0.0506 0.0784,-2.19294 0.0618,-4.76079 l -0.0302,-4.6688 -1.32773,0.0433 c -1.47568,0.0481 -1.41273,0.0123 -1.61293,0.91854 -0.17684,0.80048 -0.28429,0.94317 -0.7103,0.94317 -0.33223,0 -0.33223,0 -0.33223,-1.50216 v -1.50216 l 4.87796,0.0301 4.87795,0.0301 -0.03,1.38078 c -0.0326,1.50356 -0.0418,1.53049 -0.54154,1.58433 -0.33779,0.0364 -0.34209,0.0294 -0.51955,-0.84992 -0.21978,-1.08899 -0.0335,-0.974 -1.70871,-1.05449 l -1.41432,-0.0679 v 4.77748 4.77749 l 0.66387,0.13329 c 1.33671,0.26839 1.2686,0.22123 1.07081,0.74147 -0.21416,0.56328 -4.90618,0.44414 -4.81427,-0.12224 z m 11.27686,0.0826 c 0,-0.42316 0.26667,-0.70283 0.67211,-0.70489 0.8598,-0.004 0.8288,0.0737 0.8288,-2.08716 v -1.94635 l -1.81841,-2.77302 c -1.79715,-2.74062 -1.82482,-2.77517 -2.36681,-2.95629 -0.58866,-0.1967 -0.60731,-0.22566 -0.43582,-0.67672 0.11208,-0.2948 4.37467,-0.49138 4.54398,-0.20957 0.22084,0.36759 -0.22934,0.8945 -0.83908,0.98208 -0.34512,0.0496 -0.64798,0.11061 -0.67301,0.13564 -0.025,0.025 0.4425,0.81638 1.03896,1.75856 0.59646,0.94217 1.20229,1.90787 1.34629,2.146 0.35593,0.58856 0.26245,0.68371 1.70495,-1.73534 1.43731,-2.41035 1.40716,-2.16321 0.29873,-2.44812 -0.49661,-0.12765 -0.59201,-0.29612 -0.42061,-0.74278 0.16589,-0.4323 4.11758,-0.24318 4.0244,0.1926 -0.11078,0.51809 -0.221,0.6242 -0.73352,0.70616 -0.43449,0.0695 -0.48606,0.13424 -2.24918,2.82489 l -1.8045,2.75378 v 1.9727 c 0,1.97269 0,1.97269 0.66386,2.10428 1.09451,0.21695 1.08495,0.21132 1.04567,0.61624 -0.0542,0.55894 -4.82681,0.64527 -4.82681,0.0873 z"
       id="path1"
       inkscape:highlight-color="#01040a" />
  </g>
</svg>
