<svg xmlns="http://www.w3.org/2000/svg" width="32" height="32" viewBox="0 0 32 32">
    <defs>
        <radialGradient id="vscodeIconsFileTypeRust0" cx="-492.035" cy="-883.37" r="13.998"
                        gradientTransform="matrix(.866 -.5 -.3 -.52 177.106 -689.033)" gradientUnits="userSpaceOnUse">
            <stop offset="0" stop-color="#7d7d7d"/>
            <stop offset=".267" stop-color="#7e7c7a"/>
            <stop offset=".45" stop-color="#817871"/>
            <stop offset=".608" stop-color="#867162"/>
            <stop offset=".753" stop-color="#8d684c"/>
            <stop offset=".886" stop-color="#965c30"/>
            <stop offset="1" stop-color="#a04f12"/>
        </radialGradient>
    </defs>
    <path fill="url(#vscodeIconsFileTypeRust0)"
          d="M15.124 5.3a.832.832 0 1 1 .832.832a.83.83 0 0 1-.832-.832M5.2 12.834a.832.832 0 1 1 .832.832a.83.83 0 0 1-.832-.832m19.856.039a.832.832 0 1 1 .832.832a.83.83 0 0 1-.832-.832m-17.451 1.14a.76.76 0 0 0 .386-1l-.369-.835h1.452v6.545h-2.93a10.3 10.3 0 0 1-.332-3.911Zm6.074.161v-1.929h3.458c.179 0 1.261.206 1.261 1.016c0 .672-.83.913-1.513.913ZM8.958 24.561a.832.832 0 1 1 .832.832a.83.83 0 0 1-.832-.832m12.331.039a.832.832 0 1 1 .832.832a.83.83 0 0 1-.832-.832m.257-1.887a.76.76 0 0 0-.9.584l-.418 1.949a10.25 10.25 0 0 1-8.545-.041l-.417-1.949a.76.76 0 0 0-.9-.583l-1.721.37a10 10 0 0 1-.89-1.049h8.374c.095 0 .158-.017.158-.1v-2.966c0-.086-.063-.1-.158-.1h-2.45v-1.881h2.649a1.665 1.665 0 0 1 1.629 1.412c.105.413.336 1.757.494 2.187c.157.483.8 1.447 1.482 1.447h4.323a10 10 0 0 1-.949 1.1Zm4.65-7.821a10.3 10.3 0 0 1 .022 1.779h-1.051c-.105 0-.148.069-.148.172v.483c0 1.136-.641 1.384-1.2 1.447c-.535.06-1.128-.224-1.2-.551a3.62 3.62 0 0 0-1.671-2.808c1.03-.654 2.1-1.619 2.1-2.911A3.29 3.29 0 0 0 21.44 9.8a4.56 4.56 0 0 0-2.2-.724H8.367A10.25 10.25 0 0 1 14.1 5.84l1.282 1.344a.76.76 0 0 0 1.072.026l1.434-1.372a10.25 10.25 0 0 1 7.015 5l-.982 2.217a.76.76 0 0 0 .386 1Zm2.448.036l-.033-.343l1.011-.943a.42.42 0 0 0-.013-.595a.4.4 0 0 0-.121-.081l-1.288-.483l-.1-.334l.806-1.12a.42.42 0 0 0-.13-.581a.4.4 0 0 0-.133-.055l-1.363-.222l-.164-.306l.573-1.257a.42.42 0 0 0-.236-.544a.4.4 0 0 0-.146-.029l-1.383.048l-.224-.264l.318-1.347a.42.42 0 0 0-.343-.487a.4.4 0 0 0-.144 0l-1.348.315l-.266-.219l.049-1.381a.42.42 0 0 0-.431-.411a.4.4 0 0 0-.141.028l-1.257.573l-.306-.164l-.222-1.363a.42.42 0 0 0-.5-.318a.4.4 0 0 0-.133.055l-1.121.806l-.333-.1l-.483-1.293a.42.42 0 0 0-.555-.215a.4.4 0 0 0-.12.08l-.946 1.012l-.343-.033l-.728-1.177a.42.42 0 0 0-.688 0l-.728 1.177l-.343.033l-.943-1.012a.42.42 0 0 0-.595.015a.4.4 0 0 0-.08.12L12.483 3.8l-.333.1l-1.12-.8a.42.42 0 0 0-.581.13a.4.4 0 0 0-.055.133l-.222 1.363l-.306.164l-1.258-.573a.42.42 0 0 0-.544.239a.4.4 0 0 0-.028.144l.048 1.383l-.266.217l-1.347-.316a.42.42 0 0 0-.487.343a.4.4 0 0 0 0 .144L6.3 7.819l-.218.265L4.7 8.036a.422.422 0 0 0-.383.573l.573 1.257l-.164.306l-1.363.222a.42.42 0 0 0-.318.5a.4.4 0 0 0 .055.133l.806 1.12l-.1.334l-1.293.483a.42.42 0 0 0-.215.555a.4.4 0 0 0 .081.121l1.011.943l-.033.343l-1.177.728a.42.42 0 0 0 0 .688l1.177.728l.033.343l-1.011.943a.42.42 0 0 0 .015.595a.4.4 0 0 0 .119.08l1.293.483l.1.334l-.806 1.124a.42.42 0 0 0 .131.581a.4.4 0 0 0 .133.055l1.363.222l.164.307l-.573 1.257a.42.42 0 0 0 .24.545a.4.4 0 0 0 .143.028l1.383-.048l.219.266l-.317 1.348a.42.42 0 0 0 .341.486a.4.4 0 0 0 .146 0l1.345-.319l.266.218l-.049 1.382a.42.42 0 0 0 .429.41a.4.4 0 0 0 .143-.028l1.257-.573l.306.164l.222 1.362a.42.42 0 0 0 .5.319a.4.4 0 0 0 .133-.055l1.12-.807l.334.1l.483 1.292a.42.42 0 0 0 .556.214a.4.4 0 0 0 .119-.08l.943-1.011l.343.034l.728 1.177a.42.42 0 0 0 .588.1a.4.4 0 0 0 .1-.1l.728-1.177l.343-.034l.943 1.011a.42.42 0 0 0 .595-.015a.4.4 0 0 0 .08-.119l.483-1.292l.334-.1l1.12.807a.42.42 0 0 0 .581-.131a.4.4 0 0 0 .055-.133l.222-1.362l.306-.164l1.257.573a.42.42 0 0 0 .544-.239a.4.4 0 0 0 .028-.143l-.048-1.384l.265-.218l1.347.317a.42.42 0 0 0 .487-.34a.5.5 0 0 0 0-.146l-.309-1.346l.218-.266l1.383.048a.42.42 0 0 0 .41-.431a.4.4 0 0 0-.028-.142l-.573-1.257l.164-.307l1.363-.222a.42.42 0 0 0 .319-.5a.4.4 0 0 0-.056-.135l-.806-1.12l.1-.334l1.293-.483a.42.42 0 0 0 .215-.554a.4.4 0 0 0-.081-.121l-1.011-.943l.033-.343l1.177-.728a.42.42 0 0 0 0-.688Z"/>
</svg>