<?xml version="1.0" encoding="UTF-8"?>
<svg xmlns="http://www.w3.org/2000/svg" xmlns:xlink="http://www.w3.org/1999/xlink" width="64pt" height="20pt" viewBox="0 0 64 20" version="1.1">
<defs>
<clipPath id="clip1">
  <path d="M 59 4 L 63.203125 4 L 63.203125 10 L 59 10 Z M 59 4 "/>
</clipPath>
<clipPath id="clip2">
  <path d="M 55 10 L 63.203125 10 L 63.203125 18 L 55 18 Z M 55 10 "/>
</clipPath>
<clipPath id="clip3">
  <path d="M 0 0.300781 L 10 0.300781 L 10 20 L 0 20 Z M 0 0.300781 "/>
</clipPath>
</defs>
<g id="surface1">
<path style=" stroke:none;fill-rule:nonzero;fill:rgb(0%,0%,0%);fill-opacity:1;" d="M 30.277344 7.886719 C 29.851562 8.128906 29.09375 8.25 28.539062 8.25 C 27.644531 8.25 26.953125 8.035156 26.488281 7.605469 C 26.003906 7.140625 25.753906 6.445312 25.753906 5.578125 C 25.753906 4.726562 25.972656 4.035156 26.429688 3.535156 C 26.882812 3.050781 27.613281 2.769531 28.621094 2.769531 C 29.117188 2.769531 29.835938 2.863281 30.246094 3.089844 L 30.246094 4.386719 L 29.980469 4.386719 C 29.820312 3.710938 29.457031 3.089844 28.554688 3.089844 C 27.164062 3.089844 26.921875 4.667969 26.921875 5.472656 C 26.921875 6.351562 27.15625 7.929688 28.59375 7.929688 C 29.496094 7.929688 29.84375 7.300781 30.101562 6.480469 L 30.367188 6.480469 L 30.277344 7.886719 "/>
<path style=" stroke:none;fill-rule:nonzero;fill:rgb(0%,0%,0%);fill-opacity:1;" d="M 33.371094 6.277344 C 33.371094 5.253906 33.117188 4.644531 32.523438 4.644531 C 31.9375 4.644531 31.679688 5.253906 31.679688 6.277344 C 31.679688 7.300781 31.9375 7.910156 32.523438 7.910156 C 33.117188 7.910156 33.371094 7.300781 33.371094 6.277344 Z M 30.617188 6.277344 C 30.617188 5.054688 31.203125 4.328125 32.523438 4.328125 C 33.851562 4.328125 34.4375 5.054688 34.4375 6.277344 C 34.4375 7.5 33.851562 8.226562 32.523438 8.226562 C 31.203125 8.226562 30.617188 7.5 30.617188 6.277344 "/>
<path style=" stroke:none;fill-rule:nonzero;fill:rgb(0%,0%,0%);fill-opacity:1;" d="M 38.769531 8.136719 L 36.847656 8.136719 L 36.847656 7.871094 L 37.035156 7.855469 C 37.25 7.839844 37.308594 7.785156 37.308594 7.507812 L 37.308594 5.652344 C 37.308594 5.207031 37.164062 4.847656 36.695312 4.847656 C 36.347656 4.847656 36.050781 5.054688 35.945312 5.394531 C 35.90625 5.503906 35.898438 5.621094 35.898438 5.769531 L 35.898438 7.507812 C 35.898438 7.785156 35.960938 7.839844 36.171875 7.855469 L 36.363281 7.871094 L 36.363281 8.136719 L 34.386719 8.136719 L 34.386719 7.871094 C 34.859375 7.847656 34.902344 7.816406 34.902344 7.476562 L 34.902344 5.183594 C 34.902344 4.894531 34.851562 4.84375 34.707031 4.820312 L 34.425781 4.78125 L 34.425781 4.539062 L 35.792969 4.324219 L 35.898438 4.871094 C 36.261719 4.644531 36.65625 4.324219 37.179688 4.324219 C 37.742188 4.324219 38.039062 4.597656 38.214844 4.902344 C 38.519531 4.699219 38.980469 4.324219 39.539062 4.324219 C 40.324219 4.324219 40.710938 4.773438 40.710938 5.511719 L 40.710938 7.476562 C 40.710938 7.816406 40.765625 7.847656 41.234375 7.871094 L 41.234375 8.136719 L 39.253906 8.136719 L 39.253906 7.871094 L 39.453125 7.855469 C 39.65625 7.839844 39.714844 7.785156 39.714844 7.507812 L 39.714844 5.652344 C 39.714844 5.105469 39.457031 4.847656 39.054688 4.847656 C 38.730469 4.847656 38.449219 5.039062 38.34375 5.390625 C 38.3125 5.488281 38.304688 5.621094 38.304688 5.769531 L 38.304688 7.507812 C 38.304688 7.777344 38.367188 7.839844 38.578125 7.855469 L 38.769531 7.871094 L 38.769531 8.136719 "/>
<path style=" stroke:none;fill-rule:nonzero;fill:rgb(0%,0%,0%);fill-opacity:1;" d="M 42.507812 6.96875 C 42.507812 7.125 42.515625 7.300781 42.546875 7.421875 C 42.628906 7.726562 42.871094 7.90625 43.230469 7.90625 C 43.859375 7.90625 44.125 7.308594 44.125 6.300781 C 44.125 5.0625 43.632812 4.847656 43.289062 4.847656 C 42.941406 4.847656 42.707031 5.023438 42.578125 5.328125 C 42.53125 5.449219 42.507812 5.585938 42.507812 5.753906 Z M 41 9.613281 C 41.460938 9.59375 41.515625 9.5625 41.515625 9.222656 L 41.515625 5.183594 C 41.515625 4.894531 41.460938 4.835938 41.308594 4.820312 L 41.035156 4.78125 L 41.035156 4.539062 L 42.386719 4.324219 L 42.507812 4.863281 C 42.851562 4.613281 43.238281 4.324219 43.777344 4.324219 C 44.726562 4.324219 45.1875 5.167969 45.1875 6.179688 C 45.1875 6.988281 44.960938 7.519531 44.597656 7.824219 C 44.234375 8.128906 43.746094 8.226562 43.238281 8.226562 C 42.972656 8.226562 42.660156 8.164062 42.507812 8.097656 L 42.507812 9.222656 C 42.507812 9.5625 42.570312 9.59375 43.15625 9.613281 L 43.15625 9.882812 L 41 9.882812 L 41 9.613281 "/>
<path style=" stroke:none;fill-rule:nonzero;fill:rgb(0%,0%,0%);fill-opacity:1;" d="M 47.511719 7.097656 C 47.503906 7.574219 47.167969 7.703125 46.933594 7.703125 C 46.578125 7.703125 46.328125 7.4375 46.328125 7.011719 C 46.328125 6.648438 46.464844 6.480469 46.765625 6.335938 C 47.046875 6.199219 47.335938 6.101562 47.511719 6.011719 Z M 52.953125 7.476562 L 52.953125 5.511719 C 52.953125 4.773438 52.574219 4.324219 51.816406 4.324219 C 51.335938 4.324219 50.980469 4.570312 50.492188 4.871094 L 50.386719 4.324219 L 49.019531 4.539062 L 49.019531 4.78125 L 49.300781 4.820312 C 49.445312 4.84375 49.5 4.894531 49.5 5.183594 L 49.5 7.476562 C 49.5 7.800781 49.457031 7.84375 49.054688 7.867188 C 48.949219 7.867188 48.828125 7.847656 48.738281 7.8125 C 48.628906 7.765625 48.476562 7.703125 48.476562 7.148438 L 48.476562 5.402344 C 48.476562 4.933594 48.375 4.324219 47.109375 4.324219 C 46.09375 4.324219 45.414062 4.765625 45.414062 5.238281 C 45.414062 5.539062 45.828125 5.667969 45.992188 5.667969 C 46.152344 5.667969 46.234375 5.5625 46.289062 5.394531 C 46.488281 4.78125 46.75 4.644531 47.003906 4.644531 C 47.246094 4.644531 47.511719 4.78125 47.511719 5.273438 L 47.511719 5.667969 C 47.15625 5.875 46.601562 6.03125 46.101562 6.191406 C 45.492188 6.390625 45.304688 6.710938 45.304688 7.132812 C 45.304688 7.710938 45.695312 8.226562 46.441406 8.226562 C 46.902344 8.226562 47.269531 7.953125 47.527344 7.78125 C 47.632812 8.03125 47.761719 8.117188 48.089844 8.1875 C 48.6875 8.308594 49.078125 8.148438 49.683594 8.136719 C 49.972656 8.132812 50.488281 8.136719 50.777344 8.136719 C 50.789062 8.136719 50.957031 8.136719 50.957031 8.136719 L 50.957031 7.871094 L 50.765625 7.855469 C 50.554688 7.839844 50.492188 7.785156 50.492188 7.507812 L 50.492188 5.722656 C 50.492188 5.539062 50.507812 5.394531 50.570312 5.28125 C 50.691406 5.046875 50.941406 4.847656 51.289062 4.847656 C 51.714844 4.847656 51.960938 5.097656 51.960938 5.632812 L 51.960938 7.507812 C 51.960938 7.785156 51.898438 7.839844 51.691406 7.855469 L 51.496094 7.871094 L 51.496094 8.136719 L 53.476562 8.136719 L 53.476562 7.871094 C 53.007812 7.847656 52.953125 7.816406 52.953125 7.476562 "/>
<path style=" stroke:none;fill-rule:nonzero;fill:rgb(0%,0%,0%);fill-opacity:1;" d="M 57.304688 4.683594 L 57.148438 4.699219 C 56.925781 4.71875 56.851562 4.84375 56.722656 5.144531 C 56.351562 6.035156 55.8125 7.414062 55.355469 8.652344 C 54.960938 9.753906 54.597656 9.972656 54.148438 9.972656 C 53.816406 9.972656 53.566406 9.78125 53.566406 9.519531 C 53.566406 9.261719 53.792969 8.976562 53.996094 8.976562 C 54.109375 8.976562 54.171875 9.007812 54.300781 9.121094 C 54.40625 9.214844 54.492188 9.253906 54.574219 9.253906 C 54.71875 9.253906 54.808594 9.097656 54.886719 8.894531 C 54.9375 8.742188 54.960938 8.589844 54.953125 8.457031 C 54.945312 8.371094 54.929688 8.289062 54.898438 8.210938 C 54.574219 7.347656 54.058594 6.050781 53.640625 5.046875 C 53.546875 4.835938 53.472656 4.742188 53.34375 4.71875 L 53.085938 4.683594 L 53.085938 4.417969 L 55.066406 4.417969 L 55.066406 4.683594 L 54.769531 4.714844 C 54.628906 4.726562 54.628906 4.820312 54.671875 4.964844 C 54.921875 5.707031 55.210938 6.457031 55.492188 7.21875 L 55.507812 7.21875 C 55.78125 6.453125 56.070312 5.585938 56.257812 4.964844 C 56.304688 4.8125 56.257812 4.726562 56.144531 4.71875 L 55.804688 4.683594 L 55.804688 4.417969 L 57.304688 4.417969 L 57.304688 4.683594 "/>
<path style=" stroke:none;fill-rule:nonzero;fill:rgb(0%,0%,0%);fill-opacity:1;" d="M 59.097656 6.375 C 58.914062 6.757812 58.816406 7.246094 58.816406 7.582031 C 58.816406 7.867188 58.953125 8.023438 59.175781 8.023438 C 59.785156 8.023438 60.070312 6.640625 60.070312 6.261719 C 60.070312 6.003906 59.996094 5.796875 59.730469 5.796875 C 59.464844 5.796875 59.257812 6.039062 59.097656 6.375 Z M 58.148438 7.285156 C 58.148438 7.058594 58.226562 6.636719 58.457031 6.269531 C 58.683594 5.898438 59.054688 5.578125 59.707031 5.578125 C 60.199219 5.578125 60.738281 5.78125 60.738281 6.546875 C 60.738281 6.796875 60.648438 7.203125 60.410156 7.582031 C 60.167969 7.964844 59.800781 8.238281 59.179688 8.238281 C 58.464844 8.238281 58.148438 7.84375 58.148438 7.285156 "/>
<g clip-path="url(#clip1)" clip-rule="nonzero">
<path style=" stroke:none;fill-rule:nonzero;fill:rgb(0%,0%,0%);fill-opacity:1;" d="M 60.878906 5.640625 L 61.320312 5.640625 L 61.363281 5.484375 C 61.441406 5.207031 61.542969 4.910156 61.730469 4.6875 C 61.914062 4.476562 62.160156 4.332031 62.519531 4.335938 C 62.917969 4.339844 63.203125 4.535156 63.203125 4.769531 C 63.203125 4.9375 63.027344 5.054688 62.886719 5.054688 C 62.777344 5.054688 62.730469 4.992188 62.695312 4.917969 C 62.558594 4.652344 62.488281 4.554688 62.390625 4.554688 C 62.28125 4.554688 62.214844 4.671875 62.148438 4.945312 L 61.976562 5.640625 L 62.644531 5.640625 L 62.585938 5.867188 L 61.9375 5.867188 L 61.441406 8.027344 C 61.226562 8.980469 60.960938 9.417969 60.375 9.429688 C 60.027344 9.429688 59.804688 9.28125 59.804688 9.078125 C 59.804688 8.929688 59.941406 8.789062 60.089844 8.789062 C 60.183594 8.789062 60.226562 8.867188 60.265625 8.933594 C 60.398438 9.144531 60.46875 9.214844 60.527344 9.214844 C 60.570312 9.214844 60.609375 9.171875 60.628906 9.0625 L 61.273438 5.867188 L 60.808594 5.867188 L 60.878906 5.640625 "/>
</g>
<path style=" stroke:none;fill-rule:nonzero;fill:rgb(0%,0%,0%);fill-opacity:1;" d="M 19.597656 15.933594 C 19.597656 16.554688 19.828125 16.726562 20.53125 16.726562 C 21.382812 16.726562 22.132812 16.359375 22.144531 15.054688 C 22.144531 13.992188 21.519531 13.210938 20.265625 13.210938 L 19.597656 13.210938 Z M 20.230469 12.726562 C 21.371094 12.726562 21.914062 12.164062 21.921875 11.207031 C 21.9375 10.238281 21.335938 9.71875 20.355469 9.71875 C 19.757812 9.730469 19.597656 9.777344 19.597656 10.203125 L 19.597656 12.726562 Z M 17.046875 16.808594 C 17.9375 16.761719 18.003906 16.726562 18.003906 16.117188 L 18.003906 10.328125 C 18.003906 9.71875 17.9375 9.683594 17.046875 9.636719 L 17.046875 9.234375 L 20.667969 9.234375 C 21.578125 9.222656 22.304688 9.351562 22.789062 9.660156 C 23.285156 9.972656 23.550781 10.445312 23.550781 11.125 C 23.550781 12.046875 22.949219 12.667969 21.84375 12.902344 L 21.84375 12.921875 C 22.925781 13.082031 23.882812 13.707031 23.882812 15.011719 C 23.882812 15.699219 23.664062 16.253906 23.179688 16.636719 C 22.695312 17.003906 21.9375 17.210938 20.804688 17.210938 L 17.046875 17.210938 L 17.046875 16.808594 "/>
<path style=" stroke:none;fill-rule:nonzero;fill:rgb(0%,0%,0%);fill-opacity:1;" d="M 24.558594 9.832031 C 24.558594 9.339844 24.914062 8.933594 25.480469 8.933594 C 26.054688 8.933594 26.414062 9.339844 26.414062 9.832031 C 26.402344 10.328125 26.035156 10.730469 25.480469 10.730469 C 24.914062 10.730469 24.558594 10.328125 24.558594 9.832031 Z M 26.273438 16.207031 C 26.273438 16.726562 26.355469 16.773438 27.070312 16.808594 L 27.070312 17.210938 L 23.96875 17.210938 L 23.96875 16.808594 C 24.683594 16.773438 24.765625 16.726562 24.765625 16.207031 L 24.765625 12.726562 C 24.765625 12.289062 24.683594 12.207031 24.464844 12.171875 L 24.050781 12.113281 L 24.050781 11.746094 L 26.195312 11.425781 L 26.273438 11.492188 L 26.273438 16.207031 "/>
<path style=" stroke:none;fill-rule:nonzero;fill:rgb(0%,0%,0%);fill-opacity:1;" d="M 31.152344 14.386719 C 31.152344 12.832031 30.761719 11.910156 29.859375 11.910156 C 28.972656 11.910156 28.582031 12.832031 28.582031 14.386719 C 28.582031 15.941406 28.972656 16.867188 29.859375 16.867188 C 30.761719 16.867188 31.152344 15.941406 31.152344 14.386719 Z M 26.96875 14.386719 C 26.96875 12.53125 27.855469 11.425781 29.859375 11.425781 C 31.878906 11.425781 32.765625 12.53125 32.765625 14.386719 C 32.765625 16.242188 31.878906 17.351562 29.859375 17.351562 C 27.855469 17.351562 26.96875 16.242188 26.96875 14.386719 "/>
<path style=" stroke:none;fill-rule:nonzero;fill:rgb(0%,0%,0%);fill-opacity:1;" d="M 34.898438 16.207031 C 34.898438 16.726562 34.976562 16.773438 35.691406 16.808594 L 35.691406 17.210938 L 32.59375 17.210938 L 32.59375 16.808594 C 33.308594 16.773438 33.386719 16.726562 33.386719 16.207031 L 33.386719 9.960938 C 33.386719 9.511719 33.308594 9.429688 33.078125 9.394531 L 32.660156 9.328125 L 32.660156 8.957031 L 34.816406 8.65625 L 34.898438 8.726562 L 34.898438 16.207031 "/>
<path style=" stroke:none;fill-rule:nonzero;fill:rgb(0%,0%,0%);fill-opacity:1;" d="M 39.738281 14.386719 C 39.738281 12.832031 39.347656 11.910156 38.449219 11.910156 C 37.558594 11.910156 37.167969 12.832031 37.167969 14.386719 C 37.167969 15.941406 37.558594 16.867188 38.449219 16.867188 C 39.347656 16.867188 39.738281 15.941406 39.738281 14.386719 Z M 35.554688 14.386719 C 35.554688 12.53125 36.441406 11.425781 38.449219 11.425781 C 40.464844 11.425781 41.351562 12.53125 41.351562 14.386719 C 41.351562 16.242188 40.464844 17.351562 38.449219 17.351562 C 36.441406 17.351562 35.554688 16.242188 35.554688 14.386719 "/>
<path style=" stroke:none;fill-rule:nonzero;fill:rgb(0%,0%,0%);fill-opacity:1;" d="M 45.214844 13.351562 C 45.214844 12.324219 44.742188 11.910156 44.246094 11.910156 C 43.738281 11.910156 43.253906 12.3125 43.253906 13.351562 C 43.253906 14.214844 43.683594 14.734375 44.234375 14.734375 C 44.8125 14.734375 45.214844 14.214844 45.214844 13.351562 Z M 43.265625 17.511719 C 43.082031 17.648438 42.957031 17.890625 42.957031 18.226562 C 42.957031 19.054688 43.65625 19.515625 44.511719 19.515625 C 45.261719 19.515625 45.996094 19.148438 45.996094 18.285156 C 45.996094 17.535156 45.316406 17.316406 44.351562 17.316406 C 43.820312 17.316406 43.464844 17.371094 43.265625 17.511719 Z M 44.984375 16.082031 C 46.207031 16.082031 47.242188 16.519531 47.242188 17.867188 C 47.242188 18.628906 46.828125 19.195312 46.253906 19.527344 C 45.664062 19.875 44.9375 20 44.222656 20 C 43.484375 20 42.804688 19.875 42.332031 19.597656 C 41.882812 19.332031 41.570312 18.882812 41.570312 18.328125 C 41.570312 17.523438 42.414062 17.28125 42.898438 17.152344 L 42.898438 17.128906 C 42.378906 17.050781 41.859375 16.585938 41.859375 16.117188 C 41.859375 15.667969 42.320312 15.289062 43.023438 15.066406 L 43.023438 15.042969 C 42.390625 14.929688 41.675781 14.375 41.675781 13.375 C 41.675781 12.496094 42.296875 11.425781 44.257812 11.425781 C 44.847656 11.425781 45.492188 11.574219 45.847656 11.792969 L 47.300781 11.308594 L 47.414062 11.425781 L 47.1875 12.242188 L 46.367188 12.382812 C 46.539062 12.578125 46.667969 12.945312 46.667969 13.351562 C 46.667969 14.722656 45.445312 15.21875 44.179688 15.21875 C 44.050781 15.21875 43.855469 15.21875 43.636719 15.195312 C 43.476562 15.230469 43.128906 15.378906 43.128906 15.667969 C 43.128906 15.886719 43.3125 16.082031 43.878906 16.082031 L 44.984375 16.082031 "/>
<path style=" stroke:none;fill-rule:nonzero;fill:rgb(0%,0%,0%);fill-opacity:1;" d="M 48.0625 9.832031 C 48.0625 9.339844 48.417969 8.933594 48.984375 8.933594 C 49.558594 8.933594 49.917969 9.339844 49.917969 9.832031 C 49.90625 10.328125 49.535156 10.730469 48.984375 10.730469 C 48.417969 10.730469 48.0625 10.328125 48.0625 9.832031 Z M 49.777344 16.207031 C 49.777344 16.726562 49.859375 16.773438 50.574219 16.808594 L 50.574219 17.210938 L 47.472656 17.210938 L 47.472656 16.808594 C 48.1875 16.773438 48.269531 16.726562 48.269531 16.207031 L 48.269531 12.851562 C 48.269531 12.414062 48.1875 12.332031 47.96875 12.300781 L 47.414062 12.242188 L 47.554688 11.746094 L 49.699219 11.425781 L 49.777344 11.492188 L 49.777344 16.207031 "/>
<path style=" stroke:none;fill-rule:nonzero;fill:rgb(0%,0%,0%);fill-opacity:1;" d="M 54.257812 13.292969 C 54.082031 12.472656 53.601562 11.910156 52.964844 11.910156 C 52.449219 11.910156 52.125 12.230469 52.113281 12.667969 C 52.113281 13.210938 52.699219 13.464844 53.300781 13.671875 C 54.40625 14.0625 55.027344 14.535156 55.027344 15.539062 C 55.027344 16.65625 54.152344 17.351562 52.746094 17.351562 C 52.089844 17.351562 51.257812 17.1875 50.84375 16.808594 L 50.71875 15.148438 L 51.109375 15.148438 C 51.386719 16.113281 51.964844 16.863281 52.792969 16.863281 C 53.335938 16.863281 53.679688 16.566406 53.679688 16.070312 C 53.679688 15.445312 53.070312 15.125 52.539062 14.9375 C 51.558594 14.605469 50.785156 14.109375 50.785156 13.199219 C 50.785156 12.058594 51.652344 11.425781 53 11.425781 C 53.578125 11.425781 54.210938 11.539062 54.648438 11.816406 L 54.648438 13.292969 L 54.257812 13.292969 "/>
<path style=" stroke:none;fill-rule:nonzero;fill:rgb(0%,0%,0%);fill-opacity:1;" d="M 23.007812 6.898438 C 23.085938 6.273438 23.46875 5.664062 23.828125 5.664062 C 23.976562 5.664062 24.066406 5.761719 24.066406 5.933594 C 24.066406 6.335938 23.734375 6.75 23.007812 6.898438 Z M 23.9375 5.441406 C 23.417969 5.441406 23.015625 5.6875 22.722656 6.050781 C 22.550781 6.261719 22.429688 6.503906 22.359375 6.757812 L 22.359375 6.753906 C 22.359375 6.753906 22.273438 7.054688 22.152344 7.28125 C 22.035156 7.503906 21.820312 7.824219 21.6875 7.824219 C 21.582031 7.824219 21.582031 7.714844 21.628906 7.554688 L 22.03125 6.257812 C 22.175781 5.785156 22.0625 5.441406 21.632812 5.441406 C 21.085938 5.441406 20.578125 6.003906 20.273438 6.585938 L 20.246094 6.585938 L 20.792969 4.324219 L 20.765625 4.296875 C 20.609375 4.316406 20.457031 4.335938 20.304688 4.355469 C 20.121094 4.378906 19.941406 4.390625 19.757812 4.410156 C 19.570312 4.429688 19.382812 4.421875 19.195312 4.421875 C 18.972656 4.421875 18.75 4.421875 18.527344 4.421875 C 18.292969 4.421875 18.0625 4.421875 17.828125 4.421875 C 17.65625 4.421875 17.484375 4.421875 17.3125 4.421875 C 17.269531 4.421875 17.226562 4.421875 17.179688 4.421875 L 16.960938 5.398438 L 17.148438 5.398438 L 17.316406 5.070312 C 17.457031 4.785156 17.660156 4.648438 18.027344 4.648438 L 18.339844 4.648438 L 17.664062 7.640625 C 17.621094 7.824219 17.574219 7.914062 17.417969 7.921875 L 17.089844 7.945312 L 17.046875 8.132812 L 18.808594 8.132812 L 18.851562 7.945312 L 18.488281 7.921875 C 18.339844 7.914062 18.335938 7.824219 18.378906 7.640625 L 19.054688 4.648438 L 19.339844 4.648438 C 19.347656 4.648438 19.359375 4.648438 19.367188 4.648438 C 19.480469 4.648438 19.597656 4.644531 19.710938 4.667969 C 19.769531 4.679688 19.832031 4.6875 19.878906 4.726562 C 19.953125 4.792969 19.960938 4.898438 19.953125 4.988281 C 19.949219 5.023438 19.90625 5.269531 19.890625 5.359375 L 19.261719 8.199219 L 19.90625 8.132812 C 20.050781 7.585938 20.132812 7.296875 20.261719 6.980469 C 20.460938 6.488281 20.925781 5.816406 21.257812 5.816406 C 21.398438 5.816406 21.453125 5.945312 21.394531 6.148438 L 20.980469 7.558594 C 20.855469 7.972656 20.988281 8.199219 21.324219 8.199219 C 21.734375 8.199219 22.058594 7.875 22.285156 7.382812 C 22.328125 8.042969 22.785156 8.199219 23.128906 8.199219 C 23.570312 8.199219 24.0625 8.027344 24.441406 7.359375 L 24.296875 7.238281 C 24.046875 7.589844 23.78125 7.875 23.429688 7.875 C 23.089844 7.875 22.984375 7.570312 22.984375 7.230469 C 22.984375 7.183594 22.984375 7.15625 22.988281 7.117188 C 23.832031 6.953125 24.21875 6.769531 24.449219 6.5625 C 24.652344 6.375 24.683594 6.191406 24.683594 6.03125 C 24.683594 5.6875 24.390625 5.441406 23.9375 5.441406 "/>
<g clip-path="url(#clip2)" clip-rule="nonzero">
<path style=" stroke:none;fill-rule:nonzero;fill:rgb(0%,0%,0%);fill-opacity:1;" d="M 61.472656 13.671875 C 60.871094 13.464844 60.285156 13.210938 60.285156 12.667969 C 60.296875 12.230469 60.621094 11.910156 61.140625 11.910156 C 61.773438 11.910156 62.257812 12.472656 62.429688 13.292969 L 62.820312 13.292969 L 62.820312 11.816406 C 62.382812 11.539062 61.75 11.425781 61.171875 11.425781 C 59.824219 11.425781 58.960938 12.058594 58.960938 13.199219 C 58.960938 14.109375 59.734375 14.605469 60.710938 14.941406 C 61.242188 15.125 61.855469 15.445312 61.855469 16.070312 C 61.855469 16.566406 61.507812 16.863281 60.964844 16.863281 C 60.277344 16.863281 59.488281 16.335938 59.316406 15.625 L 59.015625 15.625 C 58.738281 16.5 57.609375 17.0625 57.308594 16.011719 C 57.261719 15.839844 57.246094 15.65625 57.246094 15.480469 L 57.246094 12.09375 L 58.535156 12.09375 L 58.535156 11.5625 L 57.246094 11.5625 L 57.246094 10.109375 L 56.691406 10.109375 L 55.78125 11.5625 L 55.007812 11.5625 L 55.007812 12.09375 L 55.734375 12.09375 L 55.734375 15.917969 C 55.734375 17.015625 56.554688 17.351562 57.105469 17.351562 C 57.15625 17.351562 57.203125 17.347656 57.253906 17.34375 C 57.886719 17.308594 58.65625 17.011719 59.023438 16.613281 C 59.410156 17.039062 60.265625 17.351562 60.917969 17.351562 C 62.328125 17.351562 63.203125 16.65625 63.203125 15.539062 C 63.203125 14.535156 62.578125 14.066406 61.472656 13.671875 "/>
</g>
<path style=" stroke:none;fill-rule:nonzero;fill:rgb(0%,70.117188%,59.568787%);fill-opacity:1;" d="M 13.320312 4.117188 L 14.042969 2.867188 C 12.808594 2.152344 11.371094 1.742188 9.84375 1.742188 L 9.84375 3.183594 C 11.109375 3.183594 12.296875 3.523438 13.320312 4.117188 "/>
<path style=" stroke:none;fill-rule:nonzero;fill:rgb(0%,60.351562%,26.660156%);fill-opacity:1;" d="M 12.601562 5.363281 L 13.324219 4.117188 C 12.296875 3.523438 11.109375 3.183594 9.84375 3.183594 L 9.84375 4.625 C 10.847656 4.625 11.789062 4.894531 12.601562 5.363281 "/>
<path style=" stroke:none;fill-rule:nonzero;fill:rgb(65.818787%,67.771912%,0%);fill-opacity:1;" d="M 13.320312 4.117188 L 12.601562 5.363281 C 13.4375 5.847656 14.136719 6.546875 14.621094 7.382812 L 15.871094 6.664062 C 15.257812 5.609375 14.378906 4.726562 13.320312 4.117188 "/>
<path style=" stroke:none;fill-rule:nonzero;fill:rgb(0%,47.851562%,24.31488%);fill-opacity:1;" d="M 9.84375 6.066406 C 10.585938 6.066406 11.28125 6.265625 11.882812 6.613281 L 12.601562 5.363281 C 11.789062 4.894531 10.847656 4.625 9.84375 4.625 L 9.84375 6.066406 "/>
<path style=" stroke:none;fill-rule:nonzero;fill:rgb(69.726562%,57.226562%,0%);fill-opacity:1;" d="M 13.371094 8.105469 L 14.621094 7.382812 C 14.136719 6.546875 13.4375 5.847656 12.601562 5.363281 L 11.882812 6.613281 C 12.5 6.972656 13.015625 7.488281 13.371094 8.105469 "/>
<path style=" stroke:none;fill-rule:nonzero;fill:rgb(100%,72.068787%,10.984802%);fill-opacity:1;" d="M 13.917969 10.144531 L 15.359375 10.144531 C 15.359375 9.136719 15.089844 8.195312 14.621094 7.382812 L 13.375 8.105469 C 13.71875 8.707031 13.917969 9.402344 13.917969 10.144531 "/>
<path style=" stroke:none;fill-rule:nonzero;fill:rgb(0%,43.920898%,25.488281%);fill-opacity:1;" d="M 11.160156 7.863281 L 11.882812 6.613281 C 11.28125 6.265625 10.585938 6.066406 9.84375 6.066406 L 9.84375 7.511719 C 10.324219 7.511719 10.773438 7.636719 11.160156 7.863281 "/>
<path style=" stroke:none;fill-rule:nonzero;fill:rgb(65.039062%,38.818359%,10.594177%);fill-opacity:1;" d="M 12.125 8.828125 L 13.371094 8.105469 C 13.015625 7.488281 12.5 6.972656 11.882812 6.613281 L 11.160156 7.863281 C 11.558594 8.09375 11.894531 8.425781 12.125 8.828125 "/>
<path style=" stroke:none;fill-rule:nonzero;fill:rgb(93.359375%,59.568787%,2.352905%);fill-opacity:1;" d="M 12.125 11.460938 L 13.371094 12.183594 C 13.71875 11.582031 13.917969 10.886719 13.917969 10.144531 L 12.476562 10.144531 C 12.476562 10.625 12.347656 11.074219 12.125 11.460938 "/>
<path style=" stroke:none;fill-rule:nonzero;fill:rgb(93.359375%,44.700623%,1.177979%);fill-opacity:1;" d="M 12.476562 10.144531 L 13.917969 10.144531 C 13.917969 9.402344 13.71875 8.707031 13.371094 8.105469 L 12.125 8.828125 C 12.347656 9.214844 12.476562 9.664062 12.476562 10.144531 "/>
<path style=" stroke:none;fill-rule:nonzero;fill:rgb(91.014099%,50.976562%,0%);fill-opacity:1;" d="M 10.4375 11.175781 L 11.160156 12.425781 C 11.558594 12.195312 11.894531 11.859375 12.125 11.460938 L 10.875 10.738281 C 10.769531 10.917969 10.621094 11.074219 10.4375 11.175781 "/>
<path style=" stroke:none;fill-rule:nonzero;fill:rgb(38.426208%,23.143005%,16.479492%);fill-opacity:1;" d="M 10.4375 9.113281 L 11.160156 7.863281 C 10.773438 7.636719 10.324219 7.507812 9.84375 7.507812 L 9.84375 8.953125 C 10.058594 8.953125 10.265625 9.007812 10.4375 9.113281 "/>
<path style=" stroke:none;fill-rule:nonzero;fill:rgb(89.84375%,28.24707%,11.376953%);fill-opacity:1;" d="M 11.035156 10.144531 L 12.476562 10.144531 C 12.476562 9.664062 12.347656 9.214844 12.125 8.828125 L 10.875 9.546875 C 10.976562 9.722656 11.035156 9.925781 11.035156 10.144531 "/>
<path style=" stroke:none;fill-rule:nonzero;fill:rgb(59.959412%,33.325195%,16.868591%);fill-opacity:1;" d="M 10.875 9.546875 L 12.125 8.828125 C 11.894531 8.425781 11.558594 8.09375 11.160156 7.859375 L 10.4375 9.113281 C 10.621094 9.214844 10.769531 9.367188 10.875 9.546875 "/>
<path style=" stroke:none;fill-rule:nonzero;fill:rgb(91.40625%,31.37207%,5.488586%);fill-opacity:1;" d="M 10.875 10.738281 L 12.125 11.460938 C 12.347656 11.074219 12.476562 10.625 12.476562 10.144531 L 11.035156 10.144531 C 11.035156 10.359375 10.976562 10.566406 10.875 10.738281 "/>
<path style=" stroke:none;fill-rule:nonzero;fill:rgb(0%,51.756287%,23.925781%);fill-opacity:1;" d="M 7.082031 5.363281 C 7.894531 4.894531 8.835938 4.625 9.84375 4.625 L 9.84375 3.183594 C 8.574219 3.183594 7.386719 3.523438 6.363281 4.117188 C 5.304688 4.726562 4.425781 5.609375 3.8125 6.664062 C 3.222656 7.6875 2.882812 8.875 2.882812 10.144531 C 2.882812 11.414062 3.222656 12.601562 3.8125 13.625 L 6.3125 12.183594 L 7.5625 11.460938 L 9.84375 10.144531 L 4.324219 10.144531 C 4.324219 9.136719 4.59375 8.195312 5.0625 7.382812 C 5.546875 6.546875 6.246094 5.847656 7.082031 5.363281 "/>
<path style=" stroke:none;fill-rule:nonzero;fill:rgb(0%,64.256287%,59.959412%);fill-opacity:1;" d="M 6.363281 4.117188 C 7.386719 3.523438 8.574219 3.183594 9.84375 3.183594 L 9.84375 1.742188 C 8.3125 1.742188 6.875 2.152344 5.640625 2.867188 C 4.367188 3.605469 3.304688 4.667969 2.566406 5.941406 C 1.851562 7.179688 1.441406 8.613281 1.441406 10.144531 C 1.441406 11.675781 1.851562 13.109375 2.566406 14.34375 C 3.304688 15.621094 4.367188 16.683594 5.640625 17.421875 L 6.363281 16.171875 L 7.082031 14.925781 L 7.804688 13.675781 L 9.246094 11.175781 L 9.84375 10.144531 L 7.5625 11.460938 L 6.3125 12.183594 L 3.8125 13.625 C 3.222656 12.601562 2.882812 11.414062 2.882812 10.144531 C 2.882812 8.875 3.222656 7.6875 3.8125 6.664062 C 4.425781 5.609375 5.304688 4.726562 6.363281 4.117188 "/>
<g clip-path="url(#clip3)" clip-rule="nonzero">
<path style=" stroke:none;fill-rule:nonzero;fill:rgb(0%,70.896912%,88.671875%);fill-opacity:1;" d="M 4.917969 1.617188 C 3.425781 2.480469 2.179688 3.726562 1.316406 5.222656 C 0.480469 6.667969 0 8.351562 0 10.144531 C 0 11.9375 0.480469 13.617188 1.316406 15.066406 C 2.179688 16.558594 3.425781 17.804688 4.917969 18.667969 C 6.367188 19.507812 8.050781 19.988281 9.84375 19.988281 L 9.84375 10.144531 L 9.246094 11.175781 L 7.804688 13.675781 L 7.082031 14.925781 L 6.363281 16.171875 L 5.640625 17.421875 C 4.367188 16.683594 3.304688 15.621094 2.566406 14.34375 C 1.851562 13.109375 1.441406 11.675781 1.441406 10.144531 C 1.441406 8.613281 1.851562 7.179688 2.566406 5.941406 C 3.304688 4.667969 4.367188 3.605469 5.640625 2.867188 C 6.875 2.152344 8.3125 1.742188 9.84375 1.742188 L 9.84375 0.300781 C 8.050781 0.300781 6.367188 0.78125 4.917969 1.617188 "/>
</g>
<path style=" stroke:none;fill-rule:nonzero;fill:rgb(15.281677%,36.473083%,21.972656%);fill-opacity:1;" d="M 9.84375 6.066406 C 9.097656 6.066406 8.402344 6.265625 7.804688 6.613281 C 7.183594 6.972656 6.667969 7.488281 6.3125 8.105469 L 7.558594 8.828125 L 8.808594 9.546875 L 9.84375 10.144531 L 9.246094 9.113281 L 8.523438 7.863281 C 8.914062 7.636719 9.363281 7.507812 9.84375 7.507812 L 9.84375 6.066406 "/>
<path style=" stroke:none;fill-rule:nonzero;fill:rgb(30.589294%,21.166992%,16.088867%);fill-opacity:1;" d="M 10.4375 9.113281 C 10.265625 9.007812 10.058594 8.953125 9.84375 8.953125 L 9.84375 10.144531 L 10.4375 9.113281 "/>
<path style=" stroke:none;fill-rule:nonzero;fill:rgb(13.330078%,21.556091%,16.868591%);fill-opacity:1;" d="M 8.523438 7.863281 L 9.246094 9.113281 L 9.84375 10.144531 L 9.84375 7.511719 C 9.363281 7.511719 8.914062 7.636719 8.523438 7.863281 "/>
<path style=" stroke:none;fill-rule:nonzero;fill:rgb(89.84375%,28.24707%,11.376953%);fill-opacity:1;" d="M 9.84375 10.144531 L 9.84375 11.335938 C 10.058594 11.335938 10.261719 11.277344 10.4375 11.175781 L 9.84375 10.144531 "/>
<path style=" stroke:none;fill-rule:nonzero;fill:rgb(0%,43.920898%,25.488281%);fill-opacity:1;" d="M 7.804688 6.613281 C 8.402344 6.265625 9.101562 6.066406 9.84375 6.066406 L 9.84375 4.625 C 8.835938 4.625 7.894531 4.894531 7.082031 5.363281 C 6.246094 5.847656 5.546875 6.546875 5.0625 7.382812 C 4.59375 8.195312 4.324219 9.136719 4.324219 10.144531 L 9.84375 10.144531 L 8.808594 9.546875 L 7.5625 8.828125 L 6.3125 8.105469 C 6.667969 7.488281 7.1875 6.972656 7.804688 6.613281 "/>
<path style=" stroke:none;fill-rule:nonzero;fill:rgb(62.693787%,14.109802%,16.868591%);fill-opacity:1;" d="M 9.84375 10.144531 L 10.875 9.546875 C 10.769531 9.367188 10.617188 9.214844 10.4375 9.113281 L 9.84375 10.144531 "/>
<path style=" stroke:none;fill-rule:nonzero;fill:rgb(78.514099%,6.272888%,18.041992%);fill-opacity:1;" d="M 9.84375 10.144531 L 10.875 10.738281 C 10.976562 10.566406 11.035156 10.359375 11.035156 10.144531 L 9.84375 10.144531 "/>
<path style=" stroke:none;fill-rule:nonzero;fill:rgb(89.0625%,13.330078%,7.446289%);fill-opacity:1;" d="M 10.4375 11.175781 C 10.621094 11.074219 10.769531 10.917969 10.875 10.738281 L 9.84375 10.144531 L 10.4375 11.175781 "/>
<path style=" stroke:none;fill-rule:nonzero;fill:rgb(78.514099%,6.272888%,18.041992%);fill-opacity:1;" d="M 11.035156 10.144531 C 11.035156 9.925781 10.976562 9.722656 10.875 9.546875 L 9.84375 10.144531 L 11.035156 10.144531 "/>
</g>
</svg>
