<svg viewBox="0 0 340.157480315 149.378913386" width="340.157480315pt" height="149.378913386pt" xmlns="http://www.w3.org/2000/svg" xmlns:xlink="http://www.w3.org/1999/xlink" xmlns:h5="http://www.w3.org/1999/xhtml"><path fill="#ffffff" fill-rule="nonzero" d="M 0 0v 149.378913386h 340.157480315v -149.378913386Z "/><g transform="translate(28.346456693 28.346456693)"><g transform="matrix(1 0 0 -1 0 9.933)"><use xlink:href="#g7D3719372EC30ACB2404C1166F3D5238" x="0" y="0" fill="#000000" fill-rule="nonzero"/><use xlink:href="#g6476F0F7E4418F1157BCC40DDC3BB78C" x="13.8446" y="0" fill="#000000" fill-rule="nonzero"/><use xlink:href="#g98D4ECD12BF7D91D0E78ABACB44D7A45" x="21.637" y="0" fill="#000000" fill-rule="nonzero"/><use xlink:href="#g7CD94422635D4EA8D91E9CD0729A4F4C" x="27.1502" y="0" fill="#000000" fill-rule="nonzero"/><use xlink:href="#g9F849EDE5F192DD0842AC0C8F7F32A85" x="40.5328" y="0" fill="#000000" fill-rule="nonzero"/><use xlink:href="#g1797D2DF762B4BD2905A65B3C966A3EF" x="49.9114" y="0" fill="#000000" fill-rule="nonzero"/><use xlink:href="#g8D87BB1E6931CE5DBAF4138A3DE9A54D" x="58.5508" y="0" fill="#000000" fill-rule="nonzero"/><use xlink:href="#gC0EBBBD6F3DBCA85D31CDC275B71A469" x="66.0814" y="0" fill="#000000" fill-rule="nonzero"/><use xlink:href="#g2234B4E8F53D34CD82162BC6EB922EF6" x="72.5494" y="0" fill="#000000" fill-rule="nonzero"/><use xlink:href="#g637506313BAA6F72BE9B7E1619C4BE2A" x="79.5718" y="0" fill="#000000" fill-rule="nonzero"/><use xlink:href="#g476124418761C934B95A35B0D3C20E07" x="84.5306" y="0" fill="#000000" fill-rule="nonzero"/><use xlink:href="#g8D87BB1E6931CE5DBAF4138A3DE9A54D" x="91.1064" y="0" fill="#000000" fill-rule="nonzero"/><use xlink:href="#g476124418761C934B95A35B0D3C20E07" x="98.637" y="0" fill="#000000" fill-rule="nonzero"/></g></g><g transform="matrix(1 0 0 -1 28.346456693 53.767456693)"><use xlink:href="#gD355BF4F81D64465081A1B40E1986DB4" x="0" y="0" fill="#000000" fill-rule="nonzero"/><use xlink:href="#gDD50B131DFBA2C7EA73123CA4C98C33" x="5.335" y="0" fill="#000000" fill-rule="nonzero"/><use xlink:href="#gF9510C9866DCA99AFC3FC8A8DB318BDC" x="8.316" y="0" fill="#000000" fill-rule="nonzero"/><use xlink:href="#gF9560AC257AD9BBCF737B0F29E336B2F" x="17.006" y="0" fill="#000000" fill-rule="nonzero"/><use xlink:href="#g36F90904A4043C6A677E73471A30013F" x="22.715" y="0" fill="#000000" fill-rule="nonzero"/><use xlink:href="#gDD50B131DFBA2C7EA73123CA4C98C33" x="25.619" y="0" fill="#000000" fill-rule="nonzero"/><use xlink:href="#gD14A2C15FA7E7E6DA17092C3143CABC8" x="28.6" y="0" fill="#000000" fill-rule="nonzero"/><use xlink:href="#gB7E01F34AB4FF1C26BADF7D662D6A5FF" x="32.01" y="0" fill="#000000" fill-rule="nonzero"/><use xlink:href="#g44004E68E94B5A5A0D86AA9F437EC7DB" x="37.675" y="0" fill="#000000" fill-rule="nonzero"/></g><g transform="translate(28.346456693 59.267456693)"><g transform="translate(0 0.275)"><g transform="matrix(1 0 0 -1 4.939 7.238)"><use xlink:href="#g9787446D80B11CDE2529516BF2D1ACCA" x="0" y="0" fill="#000000" fill-rule="nonzero"/><use xlink:href="#gEC09E6B8EA933E4C3BF631014D088804" x="5.027" y="0" fill="#000000" fill-rule="nonzero"/></g></g><g transform="matrix(1 0 0 -1 17.644 7.513)"><use xlink:href="#g7FDD4349A49914F62F30F23AE9794251" x="0" y="0" fill="#000000" fill-rule="nonzero"/></g><g transform="matrix(1 0 0 -1 23.936 3.52)"><use xlink:href="#g25B224D96CA3F5CCC7E774117FEA026D" x="0" y="0" fill="#000000" fill-rule="nonzero"/></g><g transform="matrix(1 0 0 -1 31.377744444 7.513)"><use xlink:href="#gDDD45F8C02017DD13480202EA2B099EF" x="0" y="0" fill="#000000" fill-rule="nonzero"/></g><g transform="matrix(1 0 0 -1 42.380188889 7.513)"><use xlink:href="#g847DCE2A3EE7D23E3D551BDE0EE8A683" x="0" y="0" fill="#000000" fill-rule="nonzero"/></g><g transform="matrix(1 0 0 -1 47.880188889 7.513)"><use xlink:href="#g7FDD4349A49914F62F30F23AE9794251" x="0" y="0" fill="#000000" fill-rule="nonzero"/></g><g transform="matrix(1 0 0 -1 56.616633333 7.513)"><use xlink:href="#gDDD45F8C02017DD13480202EA2B099EF" x="0" y="0" fill="#000000" fill-rule="nonzero"/></g><g transform="matrix(1 0 0 -1 67.619077778 7.513)"><use xlink:href="#g23FF2CB0A5B3999574DE734D483151BD" x="0" y="0" fill="#000000" fill-rule="nonzero"/></g><g transform="translate(147.232283465 0.275)"><g transform="matrix(1 0 0 -1 4.543 7.238)"><use xlink:href="#g2E78C0ACEE1FBDF39EC1D5F9B4AD747D" x="0" y="0" fill="#000000" fill-rule="nonzero"/><use xlink:href="#gEC09E6B8EA933E4C3BF631014D088804" x="5.423" y="0" fill="#000000" fill-rule="nonzero"/></g></g><g transform="matrix(1 0 0 -1 164.876283465 7.513)"><use xlink:href="#g9C5E01F97914784D6046F24928CB3533" x="0" y="0" fill="#000000" fill-rule="nonzero"/></g><g transform="matrix(1 0 0 -1 169.155283465 7.513)"><use xlink:href="#g224B0EF8FD52A606488E12FCAA597AD9" x="0" y="0" fill="#000000" fill-rule="nonzero"/></g><g transform="matrix(1 0 0 -1 177.418727909 7.513)"><use xlink:href="#gDDD45F8C02017DD13480202EA2B099EF" x="0" y="0" fill="#000000" fill-rule="nonzero"/></g><g transform="matrix(1 0 0 -1 188.421172353 7.513)"><use xlink:href="#g15828C4A4749E9A604E472A14681BAD3" x="0" y="0" fill="#000000" fill-rule="nonzero"/></g><g transform="matrix(1 0 0 -1 193.294172353 7.513)"><use xlink:href="#g44903F1336FFA3AC82F2FDAECC383B22" x="0" y="0" fill="#000000" fill-rule="nonzero"/></g><g transform="matrix(1 0 0 -1 197.573172353 3.52)"><use xlink:href="#g25B224D96CA3F5CCC7E774117FEA026D" x="0" y="0" fill="#000000" fill-rule="nonzero"/></g><g transform="translate(0 14.388)"><g transform="matrix(1 0 0 -1 5.258 7.238)"><use xlink:href="#g3CE57ED74C3DBA63F54F2735C0855367" x="0" y="0" fill="#000000" fill-rule="nonzero"/><use xlink:href="#gEC09E6B8EA933E4C3BF631014D088804" x="4.708" y="0" fill="#000000" fill-rule="nonzero"/></g></g><g transform="matrix(1 0 0 -1 17.644 21.626)"><use xlink:href="#g93E2B88EAD8DFDF0BE4D6467DB923DB5" x="0" y="0" fill="#000000" fill-rule="nonzero"/></g><g transform="matrix(1 0 0 -1 23.144 21.626)"><use xlink:href="#g7FDD4349A49914F62F30F23AE9794251" x="0" y="0" fill="#000000" fill-rule="nonzero"/></g><g transform="matrix(1 0 0 -1 31.880444444 21.626)"><use xlink:href="#g6CA3708905D5D56BD06755CEABD69DE1" x="0" y="0" fill="#000000" fill-rule="nonzero"/></g><g transform="matrix(1 0 0 -1 42.882888889 21.626)"><use xlink:href="#g8894C0A608DBD285706C131FF554A2B1" x="0" y="0" fill="#000000" fill-rule="nonzero"/></g><g transform="matrix(1 0 0 -1 50.827333333 21.626)"><use xlink:href="#gDDD45F8C02017DD13480202EA2B099EF" x="0" y="0" fill="#000000" fill-rule="nonzero"/></g><g transform="matrix(1 0 0 -1 61.829777778 21.626)"><use xlink:href="#g847DCE2A3EE7D23E3D551BDE0EE8A683" x="0" y="0" fill="#000000" fill-rule="nonzero"/></g><g transform="matrix(1 0 0 -1 67.329777778 21.626)"><use xlink:href="#g7FDD4349A49914F62F30F23AE9794251" x="0" y="0" fill="#000000" fill-rule="nonzero"/></g><g transform="translate(147.232283465 14.388)"><g transform="matrix(1 0 0 -1 4.4 7.238)"><use xlink:href="#g7FF42B92D9D80783DC2C1CC317042C56" x="0" y="0" fill="#000000" fill-rule="nonzero"/><use xlink:href="#gEC09E6B8EA933E4C3BF631014D088804" x="5.566" y="0" fill="#000000" fill-rule="nonzero"/></g></g><g transform="matrix(1 0 0 -1 165.976283465 17.292)"><use xlink:href="#gB4F8E97E8EFD98CA94EE40D9890E0542" x="0" y="0" fill="#000000" fill-rule="nonzero"/></g><g transform="matrix(1 0 0 -1 170.965883465 14.4969)"><use xlink:href="#g1E91EC0565909D26837158C3378F24FD" x="0" y="0" fill="#000000" fill-rule="nonzero"/></g><g transform="matrix(1 0 0 -1 175.142583465 17.292)"><use xlink:href="#g579254C6D7C5460FC0BE22F3C99860E5" x="0" y="0" fill="#000000" fill-rule="nonzero"/></g><g transform="matrix(1 0 0 -1 181.133183465 17.292)"><use xlink:href="#g72ED4E8BDD8DFFE80EC72D6074F65D44" x="0" y="0" fill="#000000" fill-rule="nonzero"/></g><g transform="matrix(1 0 0 -1 168.064633465 25.421)"><use xlink:href="#gB4F8E97E8EFD98CA94EE40D9890E0542" x="0" y="0" fill="#000000" fill-rule="nonzero"/></g><g transform="matrix(1 0 0 -1 173.054233465 25.421)"><use xlink:href="#g579254C6D7C5460FC0BE22F3C99860E5" x="0" y="0" fill="#000000" fill-rule="nonzero"/></g><g transform="matrix(1 0 0 -1 179.044833465 25.421)"><use xlink:href="#g25B224D96CA3F5CCC7E774117FEA026D" x="0" y="0" fill="#000000" fill-rule="nonzero"/></g><path fill="none" stroke="#000000" stroke-width="0.528" stroke-linecap="butt" stroke-linejoin="miter" stroke-miterlimit="4" transform="translate(165.976283465 18.876)" d="M 0 0h 19.5382"/></g><g transform="matrix(1 0 0 -1 28.346456693 93.906456693)"><use xlink:href="#gD355BF4F81D64465081A1B40E1986DB4" x="0" y="0" fill="#000000" fill-rule="nonzero"/><use xlink:href="#g5E76F8DBE7C3C7A9A461E8EC1D70F6FB" x="5.335" y="0" fill="#000000" fill-rule="nonzero"/><use xlink:href="#g36F90904A4043C6A677E73471A30013F" x="10.879" y="0" fill="#000000" fill-rule="nonzero"/><use xlink:href="#g1E471D2E98C4E85A3CE47F56E86025C4" x="13.783" y="0" fill="#000000" fill-rule="nonzero"/><use xlink:href="#gBFE09989B12480F1B7796D69E0D7287C" x="19.162" y="0" fill="#000000" fill-rule="nonzero"/><use xlink:href="#gD14A2C15FA7E7E6DA17092C3143CABC8" x="26.829" y="0" fill="#000000" fill-rule="nonzero"/><use xlink:href="#g5E76F8DBE7C3C7A9A461E8EC1D70F6FB" x="30.239" y="0" fill="#000000" fill-rule="nonzero"/><use xlink:href="#gD91D82170ED5F219BEA1B53E81DC19AF" x="35.783" y="0" fill="#000000" fill-rule="nonzero"/></g><g transform="matrix(1 0 0 -1 70.971456693 93.906456693)"><use xlink:href="#g7FDD4349A49914F62F30F23AE9794251" x="0" y="0" fill="#000000" fill-rule="nonzero"/></g><g transform="matrix(1 0 0 -1 77.263456693 93.906456693)"><use xlink:href="#g44004E68E94B5A5A0D86AA9F437EC7DB" x="0" y="0" fill="#000000" fill-rule="nonzero"/></g><g transform="translate(28.346456693 99.406456693)"><g transform="translate(0 0.275)"><g transform="matrix(1 0 0 -1 4.4 7.238)"><use xlink:href="#g38178746B45E40B27C1ECDAD3F62C0A9" x="0" y="0" fill="#000000" fill-rule="nonzero"/><use xlink:href="#gEC09E6B8EA933E4C3BF631014D088804" x="5.115" y="0" fill="#000000" fill-rule="nonzero"/></g></g><g transform="matrix(1 0 0 -1 17.193 7.513)"><use xlink:href="#g847DCE2A3EE7D23E3D551BDE0EE8A683" x="0" y="0" fill="#000000" fill-rule="nonzero"/></g><g transform="matrix(1 0 0 -1 22.693 7.513)"><use xlink:href="#g7FDD4349A49914F62F30F23AE9794251" x="0" y="0" fill="#000000" fill-rule="nonzero"/></g><g transform="matrix(1 0 0 -1 31.429444444 7.513)"><use xlink:href="#gDDD45F8C02017DD13480202EA2B099EF" x="0" y="0" fill="#000000" fill-rule="nonzero"/></g><g transform="matrix(1 0 0 -1 42.431888889 7.513)"><use xlink:href="#g8894C0A608DBD285706C131FF554A2B1" x="0" y="0" fill="#000000" fill-rule="nonzero"/></g><g transform="matrix(1 0 0 -1 50.987444444 7.513)"><use xlink:href="#g2389F7618E8CE27CC7151A1D8E5DEAD4" x="0" y="0" fill="#000000" fill-rule="nonzero"/></g><g transform="matrix(1 0 0 -1 62.601 7.513)"><use xlink:href="#g23FF2CB0A5B3999574DE734D483151BD" x="0" y="0" fill="#000000" fill-rule="nonzero"/></g><g transform="matrix(1 0 0 -1 68.101 7.513)"><use xlink:href="#g93E2B88EAD8DFDF0BE4D6467DB923DB5" x="0" y="0" fill="#000000" fill-rule="nonzero"/></g><g transform="translate(147.232283465 0.275)"><g transform="matrix(1 0 0 -1 4.4 7.238)"><use xlink:href="#g5BA3B744496DE638A69C45D17B8B8178" x="0" y="0" fill="#000000" fill-rule="nonzero"/><use xlink:href="#gEC09E6B8EA933E4C3BF631014D088804" x="5.115" y="0" fill="#000000" fill-rule="nonzero"/></g></g><g transform="matrix(1 0 0 -1 164.425283465 7.513)"><use xlink:href="#g7FDD4349A49914F62F30F23AE9794251" x="0" y="0" fill="#000000" fill-rule="nonzero"/></g><g transform="matrix(1 0 0 -1 170.717283465 3.52)"><use xlink:href="#g25B224D96CA3F5CCC7E774117FEA026D" x="0" y="0" fill="#000000" fill-rule="nonzero"/></g><g transform="matrix(1 0 0 -1 178.77013902 7.513)"><use xlink:href="#g2389F7618E8CE27CC7151A1D8E5DEAD4" x="0" y="0" fill="#000000" fill-rule="nonzero"/></g><g transform="matrix(1 0 0 -1 190.383694576 7.513)"><use xlink:href="#g23FF2CB0A5B3999574DE734D483151BD" x="0" y="0" fill="#000000" fill-rule="nonzero"/></g><g transform="matrix(1 0 0 -1 195.883694576 7.513)"><use xlink:href="#gA754BD559092BEFA127826A2A25BC17" x="0" y="0" fill="#000000" fill-rule="nonzero"/></g><g transform="translate(0 14.388)"><g transform="matrix(1 0 0 -1 4.4 7.238)"><use xlink:href="#g95E62ABD17097D047789BD4F75E52D9B" x="0" y="0" fill="#000000" fill-rule="nonzero"/><use xlink:href="#gEC09E6B8EA933E4C3BF631014D088804" x="5.115" y="0" fill="#000000" fill-rule="nonzero"/></g></g><g transform="matrix(1 0 0 -1 17.193 21.626)"><use xlink:href="#g93E2B88EAD8DFDF0BE4D6467DB923DB5" x="0" y="0" fill="#000000" fill-rule="nonzero"/></g><g transform="matrix(1 0 0 -1 22.693 21.626)"><use xlink:href="#g9C5E01F97914784D6046F24928CB3533" x="0" y="0" fill="#000000" fill-rule="nonzero"/></g><g transform="matrix(1 0 0 -1 26.972 21.626)"><use xlink:href="#g7FDD4349A49914F62F30F23AE9794251" x="0" y="0" fill="#000000" fill-rule="nonzero"/></g><g transform="matrix(1 0 0 -1 35.708444444 21.626)"><use xlink:href="#g6CA3708905D5D56BD06755CEABD69DE1" x="0" y="0" fill="#000000" fill-rule="nonzero"/></g><g transform="matrix(1 0 0 -1 46.710888889 21.626)"><use xlink:href="#g847DCE2A3EE7D23E3D551BDE0EE8A683" x="0" y="0" fill="#000000" fill-rule="nonzero"/></g><g transform="matrix(1 0 0 -1 52.210888889 21.626)"><use xlink:href="#g44903F1336FFA3AC82F2FDAECC383B22" x="0" y="0" fill="#000000" fill-rule="nonzero"/></g><g transform="matrix(1 0 0 -1 59.545444444 21.626)"><use xlink:href="#g2389F7618E8CE27CC7151A1D8E5DEAD4" x="0" y="0" fill="#000000" fill-rule="nonzero"/></g><g transform="matrix(1 0 0 -1 71.159 21.626)"><use xlink:href="#g23FF2CB0A5B3999574DE734D483151BD" x="0" y="0" fill="#000000" fill-rule="nonzero"/></g><g transform="matrix(1 0 0 -1 76.659 21.626)"><use xlink:href="#g8894C0A608DBD285706C131FF554A2B1" x="0" y="0" fill="#000000" fill-rule="nonzero"/></g><g transform="translate(147.232283465 14.388)"><g transform="matrix(1 0 0 -1 4.4 7.238)"><use xlink:href="#g64E1EAFB3C37A6348C3813C77051AC32" x="0" y="0" fill="#000000" fill-rule="nonzero"/><use xlink:href="#gEC09E6B8EA933E4C3BF631014D088804" x="5.115" y="0" fill="#000000" fill-rule="nonzero"/></g></g><g transform="matrix(1 0 0 -1 165.525283465 17.292)"><use xlink:href="#gB4F8E97E8EFD98CA94EE40D9890E0542" x="0" y="0" fill="#000000" fill-rule="nonzero"/></g><g transform="matrix(1 0 0 -1 165.829433465 25.421)"><use xlink:href="#g72ED4E8BDD8DFFE80EC72D6074F65D44" x="0" y="0" fill="#000000" fill-rule="nonzero"/></g><path fill="none" stroke="#000000" stroke-width="0.528" stroke-linecap="butt" stroke-linejoin="miter" stroke-miterlimit="4" transform="translate(165.525283465 18.876)" d="M 0 0h 4.9896"/><g transform="matrix(1 0 0 -1 174.67043902 21.626)"><use xlink:href="#g2389F7618E8CE27CC7151A1D8E5DEAD4" x="0" y="0" fill="#000000" fill-rule="nonzero"/></g><g transform="matrix(1 0 0 -1 186.283994576 21.626)"><use xlink:href="#g293A68469737AFB939432645E7BDA476" x="0" y="0" fill="#000000" fill-rule="nonzero"/></g></g><defs><symbol id="g7D3719372EC30ACB2404C1166F3D5238" overflow="visible"><path d="M 0 0m 10.2102 1.7864c 0.077 -1.2474 0.0154 -1.2474 -0.9856 -1.2936c -0.0924 -0.0924 -0.0924 -0.4312 0 -0.5236c 0.7238 0.0154 2.1098 0.0308 2.5718 0.0308c 0.462 0 1.1704 -0.0154 1.6786 -0.0308c 0.0924 0.0924 0.0924 0.4312 0 0.5236c -1.0472 0.0462 -1.0934 0.0924 -1.1858 1.3706l -0.462 6.4834c -0.0616 0.8316 0.0154 1.0318 1.0626 1.0934c 0.0924 0.0924 0.0924 0.4312 0 0.5236l -3.0954 -0.0308l -2.926 -6.8376h -0.077l -2.7566 6.8376l -3.157 0.0308c -0.0924 -0.0924 -0.0924 -0.4312 0 -0.5236c 1.0626 -0.0616 1.155 -0.077 1.0472 -1.232l -0.616 -6.3448c -0.0924 -0.924 -0.2772 -1.2936 -1.155 -1.3706c -0.0924 -0.0924 -0.0924 -0.4312 0 -0.5236c 0.462 0.0154 0.9548 0.0308 1.3244 0.0308c 0.3696 0 1.2936 -0.0154 1.7556 -0.0308c 0.0924 0.0924 0.0924 0.4312 0 0.5236c -1.0164 0.077 -1.0934 0.539 -1.0164 1.4014l 0.4004 5.775h 0.0616l 3.0338 -7.5922c 0.0462 -0.1078 0.2156 -0.2002 0.308 -0.2002c 0.0924 0 0.231 0.0616 0.2926 0.2002l 3.465 8.1466h 0.0308Z "/></symbol><symbol id="g6476F0F7E4418F1157BCC40DDC3BB78C" overflow="visible"><path d="M 0 0m 4.543 0.7546c 0.1078 -0.6314 0.5236 -0.9086 1.2012 -0.9086c 0.847 0 1.4476 0.3234 2.0174 0.8624c -0.0308 0.1848 -0.0924 0.308 -0.2772 0.4312c -0.2002 -0.154 -0.3542 -0.2156 -0.6468 -0.2156c -0.3388 0 -0.4312 0.2772 -0.4312 1.0318l 0.0308 2.2176c 0 2.2176 -1.3706 2.6642 -2.6334 2.6642c -1.1242 0 -2.849 -0.6468 -2.849 -1.6632c 0 -0.4312 0.1848 -0.77 0.7854 -0.77c 0.5544 0 0.9548 0.3388 0.9548 0.7084c 0 0.077 -0.0154 0.1694 -0.0308 0.2618c -0.0308 0.154 -0.0616 0.308 -0.0308 0.462c 0.0154 0.1694 0.1386 0.3542 0.6468 0.3542c 0.6468 0 1.1858 -0.2772 1.1858 -2.233l -1.0318 -0.3234c -1.617 -0.5082 -2.7566 -0.9548 -2.7566 -2.1714c 0 -1.0626 0.5852 -1.617 1.925 -1.617c 0.4466 0 1.3398 0.4928 1.848 0.8932Z m -0.077 2.6026v -2.0328c -0.385 -0.308 -0.77 -0.5544 -1.0472 -0.5544c -0.6622 0 -0.8932 0.4466 -0.8932 0.924c 0 0.5698 0.0462 1.0472 1.1396 1.4014Z "/></symbol><symbol id="g98D4ECD12BF7D91D0E78ABACB44D7A45" overflow="visible"><path d="M 0 0m 0.9702 6.6836c -0.2156 0 -0.4466 -0.0616 -0.6468 -0.231v -0.4466c 0 -0.077 0.0154 -0.0924 0.077 -0.0924h 1.001c -0.0308 -1.5554 -0.0462 -3.5266 -0.0462 -4.2966c 0 -0.539 0.1386 -1.0626 0.462 -1.3398c 0.3542 -0.2926 0.9086 -0.4312 1.2782 -0.4312c 0.847 0 1.7864 0.4312 2.0944 0.8624c 0 0.1848 -0.0924 0.2772 -0.2772 0.4312c -0.2002 -0.154 -0.5852 -0.2156 -0.8778 -0.2156c -0.3388 0 -0.6776 0.2618 -0.6776 1.0318c 0 0.77 -0.0154 2.4178 -0.0154 3.9578h 1.5554c 0.154 0 0.3696 0.0616 0.3696 0.2002v 0.4774c 0 0.0616 -0.0462 0.0924 -0.1232 0.0924h -1.8018l 0.0154 0.5236c 0.0308 1.0318 0.077 1.7402 0.077 1.7402c 0 0.0924 -0.0462 0.1386 -0.1232 0.1386c -0.1078 0 -0.6776 -0.1694 -0.924 -0.2772c -0.2618 -0.1078 -0.7084 -0.2002 -0.8162 -0.3388c -0.1078 -0.1386 -0.1694 -0.5544 -0.1694 -1.7864Z "/></symbol><symbol id="g7CD94422635D4EA8D91E9CD0729A4F4C" overflow="visible"><path d="M 0 0m 8.1312 1.9712v 2.4024c 0 1.694 -0.7238 2.464 -2.0482 2.464c -0.5698 0 -1.6632 -0.5698 -2.541 -1.1088v 3.2494c 0 1.001 0.0462 1.5708 0.0462 1.5708c 0 0.1386 -0.1078 0.2002 -0.2464 0.2002c -0.5698 -0.1848 -1.8018 -0.3542 -2.8952 -0.4004c -0.0462 -0.1848 -0.0308 -0.3542 0.0462 -0.4928c 0.9702 -0.077 1.0472 -0.0924 1.0472 -1.155v -6.7452c 0 -1.2782 -0.2464 -1.4168 -1.1858 -1.463c -0.0924 -0.0924 -0.0924 -0.4312 0 -0.5236c 0.6468 0.0154 1.3398 0.0308 2.1868 0.0308c 0.7392 0 1.2166 -0.0154 1.8788 -0.0308c 0.0924 0.0924 0.0924 0.4312 0 0.5236c -0.6468 0.0462 -0.8778 0.1848 -0.8778 1.463v 3.157c 0.6468 0.4004 1.155 0.5852 1.4322 0.5852c 0.616 0 1.155 -0.2772 1.155 -1.155v -2.5718c 0 -1.2936 -0.2464 -1.4322 -0.8778 -1.4784c -0.0924 -0.0924 -0.0924 -0.4312 0 -0.5236c 0.6468 0.0154 1.1396 0.0308 1.8788 0.0308c 0.847 0 1.5246 -0.0154 2.1868 -0.0308c 0.0924 0.0924 0.0924 0.4312 0 0.5236c -0.9394 0.0462 -1.1858 0.1848 -1.1858 1.4784Z "/></symbol><symbol id="g9F849EDE5F192DD0842AC0C8F7F32A85" overflow="visible"><path d="M 0 0m 4.9742 5.621h -1.2474v 2.9106c 0 0.3696 0.2618 0.7546 0.6314 0.7546h 1.309c 1.155 0 1.4784 -0.5852 1.8172 -1.6478c 0.1848 -0.0308 0.5082 0 0.6622 0.077c -0.077 0.6314 -0.154 2.1098 -0.1848 2.233c 0 0.0308 -0.0154 0.0462 -0.0616 0.0462c -0.2618 -0.0462 -0.385 -0.0616 -0.7546 -0.0616h -4.543c 0 0 -1.6016 0.0154 -2.3716 0.0308c -0.0924 -0.0924 -0.0924 -0.4312 0 -0.5236c 1.078 -0.0462 1.3398 -0.1232 1.3398 -1.4014v -6.16c 0 -1.2782 -0.2618 -1.3398 -1.3398 -1.386c -0.0924 -0.0924 -0.0924 -0.4312 0 -0.5236c 0.7546 0.0154 2.387 0.0308 2.387 0.0308h 3.619c 0.7392 0 2.1252 -0.0308 2.1252 -0.0308c 0.2156 0.77 0.2926 1.7864 0.4158 2.5718c -0.154 0.0924 -0.4928 0.1232 -0.693 0.077c -0.308 -1.1088 -1.001 -1.9712 -2.1714 -1.9712h -1.5554c -0.3388 0 -0.6314 0.3234 -0.6314 0.7392v 3.5266h 1.2474c 1.0626 0 1.3552 -0.2926 1.4014 -0.9856c 0.0924 -0.0924 0.5698 -0.0924 0.6622 0c -0.0154 0.539 -0.0308 0.8316 -0.0308 1.3552c 0 0.5236 0.0154 0.8624 0.0308 1.3244c -0.0924 0.0924 -0.5698 0.0924 -0.6622 0c -0.0462 -0.847 -0.3696 -0.9856 -1.4014 -0.9856Z "/></symbol><symbol id="g1797D2DF762B4BD2905A65B3C966A3EF" overflow="visible"><path d="M 0 0m 2.8182 1.1242l 0.9548 1.3398c 0.0616 0.077 0.1078 0.1232 0.154 0.0462l 0.7392 -1.4014c 0.2618 -0.4928 0.1078 -0.539 -0.4312 -0.616c -0.0924 -0.0924 -0.0924 -0.4312 0 -0.5236c 0.308 0.0154 1.2782 0.0308 2.0944 0.0308c 0.8008 0 1.7556 -0.0154 2.0636 -0.0308c 0.0924 0.0924 0.0924 0.4312 0 0.5236c -0.5698 0.0924 -1.0934 0.2926 -1.5862 1.0318l -1.3552 2.0174c -0.077 0.1232 -0.077 0.1694 -0.0308 0.231l 1.3706 1.6632c 0.4312 0.5236 0.9856 0.7084 1.463 0.7546c 0.0924 0.0924 0.0924 0.4312 0 0.5236c -0.308 -0.0154 -0.7854 -0.0308 -1.2936 -0.0308c -0.6006 0 -1.232 0.0154 -1.54 0.0308c -0.0924 -0.0924 -0.0924 -0.4312 0 -0.5236c 0.5544 -0.0462 0.6776 -0.2156 0.3696 -0.6622l -0.8316 -1.1858c -0.0462 -0.077 -0.1232 -0.077 -0.1848 0.0308l -0.693 1.1704c -0.3234 0.5544 -0.1232 0.5852 0.462 0.6468c 0.0924 0.0924 0.0924 0.4312 0 0.5236c -0.308 -0.0154 -1.309 -0.0308 -2.156 -0.0308c -0.7546 0 -1.6324 0.0154 -1.9404 0.0308c -0.0924 -0.0924 -0.0924 -0.4312 0 -0.5236c 0.693 0 1.001 -0.4158 1.4322 -1.0318l 1.3706 -1.9558c 0.0462 -0.0616 0.0462 -0.1232 -0.0462 -0.231l -1.4168 -1.7556c -0.385 -0.4928 -1.0626 -0.6622 -1.5246 -0.7238c -0.0924 -0.0924 -0.0924 -0.4312 0 -0.5236c 0.308 0.0154 0.7854 0.0308 1.2782 0.0308c 0.6622 0 1.386 -0.0154 1.694 -0.0308c 0.0924 0.0924 0.0924 0.4312 0 0.5236c -0.2772 0.0616 -0.7546 0.154 -0.4158 0.6314Z "/></symbol><symbol id="g8D87BB1E6931CE5DBAF4138A3DE9A54D" overflow="visible"><path d="M 0 0m 6.6374 1.9866c -0.6314 -0.6468 -1.463 -0.8162 -2.0482 -0.8162c -1.2012 0 -1.9404 0.693 -1.9404 2.2022c 0 0.1078 0.0154 0.1694 0.0154 0.2464h 3.696c 0.3696 0 0.4466 0.2618 0.4466 0.4774c 0 1.309 -0.5082 2.7412 -2.772 2.7412c -1.617 0 -3.465 -1.4322 -3.465 -3.7884c 0 -0.8932 0.3234 -1.8326 0.9856 -2.4332c 0.5852 -0.5236 1.3398 -0.77 2.4332 -0.77c 1.0626 0 2.1098 0.539 2.8798 1.6632c 0 0.2002 -0.077 0.4774 -0.231 0.4774Z m -3.9116 2.2484c 0.0154 0.539 0.0924 1.1242 0.308 1.4322c 0.2464 0.3696 0.6622 0.5236 0.8316 0.5236c 0.4158 0 0.9856 -0.4004 0.9856 -1.6324c 0 -0.0924 0 -0.2926 -0.0308 -0.3234Z "/></symbol><symbol id="gC0EBBBD6F3DBCA85D31CDC275B71A469" overflow="visible"><path d="M 0 0m 3.5112 4.1272c 0 0.5544 0.1694 0.7854 0.3696 1.0164c 0.1232 0.154 0.2618 0.2618 0.4928 0.2618c 0.1386 0 0.308 -0.1386 0.4312 -0.2926c 0.1078 -0.1232 0.3696 -0.2464 0.7238 -0.2464c 0.4466 0 0.8778 0.462 0.8778 1.1088c 0 0.4004 -0.462 0.8624 -1.0164 0.8624c -0.539 0 -1.1242 -0.462 -1.8326 -1.4784h -0.0616c -0.0308 0.462 -0.1078 1.2166 -0.1078 1.2166c -0.0154 0.1386 -0.1386 0.2618 -0.3542 0.2618c -0.7238 -0.1848 -1.54 -0.4004 -2.5564 -0.5082c -0.0308 -0.0924 0 -0.385 0.0308 -0.4774c 0.847 -0.077 1.001 -0.2156 1.001 -1.0934v -2.8798c 0 -1.2782 -0.1694 -1.309 -1.1088 -1.386c -0.0924 -0.0924 -0.0924 -0.4312 0 -0.5236c 0.6468 0.0154 1.2936 0.0308 2.1098 0.0308c 0.8162 0 1.4476 -0.0154 2.1098 -0.0308c 0.0924 0.0924 0.0924 0.4312 0 0.5236c -0.9394 0.0616 -1.1088 0.1078 -1.1088 1.386Z "/></symbol><symbol id="g2234B4E8F53D34CD82162BC6EB922EF6" overflow="visible"><path d="M 0 0m 6.4988 1.3398c 0 0.1848 -0.0308 0.4774 -0.2002 0.4774c -0.616 -0.5698 -1.1396 -0.8624 -1.5862 -0.8624c -1.155 0 -2.0636 0.8316 -2.0636 2.6796c 0 1.7094 0.385 2.5564 1.2012 2.5564c 0.5698 0 0.8008 -0.6006 0.847 -1.0934c 0.0462 -0.4158 0.462 -0.7238 0.9548 -0.7238c 0.4928 0 0.847 0.385 0.847 0.8624c 0 0.693 -0.8316 1.6016 -2.5102 1.6016c -1.8172 0 -3.4188 -1.463 -3.4188 -3.7422c 0 -1.001 0.3542 -1.8788 0.9548 -2.4486c 0.6006 -0.5698 1.309 -0.8008 2.4024 -0.8008c 0.924 0 1.9866 0.6468 2.5718 1.4938Z "/></symbol><symbol id="g637506313BAA6F72BE9B7E1619C4BE2A" overflow="visible"><path d="M 0 0m 3.5728 1.8788v 3.0646c 0 0.77 0.0616 1.6324 0.0616 1.6324c 0 0.1694 -0.1386 0.2618 -0.3542 0.2618c -0.4312 -0.1694 -1.6786 -0.2926 -2.7412 -0.4312c -0.0308 -0.0924 0 -0.4004 0.0308 -0.4928c 0.847 -0.077 1.001 -0.2002 1.001 -1.078v -2.9568c 0 -1.2782 -0.1694 -1.309 -1.1088 -1.386c -0.0924 -0.0924 -0.0924 -0.4312 0 -0.5236c 0.6468 0.0154 1.2936 0.0308 2.1098 0.0308c 0.8162 0 1.4476 -0.0154 2.1098 -0.0308c 0.0924 0.0924 0.0924 0.4312 0 0.5236c -0.9394 0.0616 -1.1088 0.1078 -1.1088 1.386Z m -2.079 7.2996c 0 -0.5082 0.3696 -1.0164 0.9856 -1.0164c 0.693 0 1.0934 0.5544 1.0934 0.9548c 0 0.462 -0.3542 1.0164 -1.001 1.0164c -0.7238 0 -1.078 -0.4928 -1.078 -0.9548Z "/></symbol><symbol id="g476124418761C934B95A35B0D3C20E07" overflow="visible"><path d="M 0 0m 0.7392 2.2484c 0.0616 -0.7546 0.1386 -1.4784 0.2618 -2.0636c 0.2926 -0.0924 1.2782 -0.3388 2.1406 -0.3388c 1.1858 0 2.6642 0.6468 2.6642 1.9866c 0 0.5236 -0.1232 0.9394 -0.4774 1.3244c -0.4312 0.4928 -1.078 0.8778 -1.7864 1.1858c -0.616 0.2618 -0.8316 0.7546 -0.8316 1.2012c 0 0.3542 0.2926 0.6468 0.7392 0.6468c 0.539 0 1.0626 -0.4928 1.4476 -1.4322c 0.2772 -0.0462 0.4466 -0.0308 0.6006 0.077c 0 0.5544 -0.0616 1.1396 -0.2002 1.6324c -0.4928 0.2156 -0.8778 0.3696 -1.7248 0.3696c -0.8162 0 -1.5862 -0.308 -2.079 -0.8008c -0.3542 -0.3542 -0.5236 -0.7854 -0.5236 -1.2012c 0 -0.462 0.1848 -0.8316 0.4774 -1.155c 0.4774 -0.5236 1.3244 -1.0626 1.7864 -1.2782c 0.616 -0.2772 0.7854 -0.8316 0.7854 -1.2012c 0 -0.4928 -0.4928 -0.7546 -0.9086 -0.7546c -0.693 0 -1.4322 0.7084 -1.7556 1.8326c -0.2464 0.0462 -0.3696 0.0308 -0.616 -0.0308Z "/></symbol><symbol id="gD355BF4F81D64465081A1B40E1986DB4" overflow="visible"><path d="M 0 0m 4.345 6.941c -0.638 0.088 -0.616 0.297 -1.694 0.297c -1.111 0 -2.09 -0.737 -2.09 -1.903c 0 -1.155 0.957 -1.683 1.925 -2.057c 0.66 -0.253 1.474 -0.561 1.474 -1.639c 0 -0.891 -0.495 -1.353 -1.375 -1.353c -1.023 0 -1.683 0.473 -1.925 1.562c -0.143 0.044 -0.253 0.022 -0.363 -0.033c 0.044 -0.847 0.088 -1.133 0.22 -1.672c 0.693 0 1.001 -0.253 1.98 -0.253c 0.495 0 0.968 0.121 1.353 0.363c 0.638 0.396 1.034 1.067 1.034 1.771c 0 1.166 -0.88 1.683 -1.782 2.024c -0.66 0.242 -1.76 0.66 -1.76 1.584c 0 0.616 0.561 1.232 1.21 1.232c 1.067 0 1.408 -0.682 1.628 -1.408c 0.121 -0.022 0.264 -0.011 0.363 0.066c -0.044 0.528 -0.088 0.836 -0.198 1.419Z "/></symbol><symbol id="gDD50B131DFBA2C7EA73123CA4C98C33" overflow="visible"><path d="M 0 0m 1.991 1.342v 2.189c 0 0.55 0.044 1.254 0.044 1.254c 0 0.044 -0.055 0.077 -0.143 0.077c -0.308 -0.121 -0.748 -0.22 -1.507 -0.319c -0.022 -0.066 0 -0.242 0.022 -0.308c 0.605 -0.055 0.715 -0.121 0.715 -0.748v -2.145c 0 -0.913 -0.121 -0.946 -0.792 -1.001c -0.066 -0.066 -0.066 -0.297 0 -0.363c 0.363 0.011 0.792 0.022 1.232 0.022c 0.44 0 0.858 -0.011 1.221 -0.022c 0.066 0.066 0.066 0.297 0 0.363c -0.671 0.044 -0.792 0.088 -0.792 1.001Z m -1.001 5.247c 0 -0.286 0.264 -0.572 0.528 -0.572c 0.308 0 0.572 0.297 0.572 0.528c 0 0.264 -0.231 0.572 -0.528 0.572c -0.264 0 -0.572 -0.264 -0.572 -0.528Z "/></symbol><symbol id="gF9510C9866DCA99AFC3FC8A8DB318BDC" overflow="visible"><path d="M 0 0m 1.87 3.938c -0.011 0.33 -0.033 0.726 -0.088 0.836c -0.022 0.055 -0.044 0.088 -0.132 0.088c -0.308 -0.121 -0.594 -0.22 -1.353 -0.319c -0.022 -0.066 0 -0.242 0.022 -0.308c 0.594 -0.055 0.715 -0.11 0.715 -0.748v -2.145c 0 -0.902 -0.143 -0.957 -0.748 -1.001c -0.066 -0.066 -0.066 -0.297 0 -0.363c 0.33 0.011 0.748 0.022 1.188 0.022c 0.44 0 0.781 -0.011 1.111 -0.022c 0.066 0.066 0.066 0.297 0 0.363c -0.561 0.055 -0.682 0.099 -0.682 1.001v 1.804c 0 0.231 0.099 0.363 0.187 0.462c 0.44 0.429 0.847 0.649 1.188 0.649c 0.418 0 0.726 -0.264 0.726 -1.001v -1.914c 0 -0.902 -0.088 -0.957 -0.682 -1.001c -0.055 -0.066 -0.055 -0.297 0 -0.363c 0.275 0.011 0.682 0.022 1.122 0.022c 0.44 0 0.803 -0.011 1.078 -0.022c 0.055 0.066 0.055 0.297 0 0.363c -0.55 0.044 -0.649 0.099 -0.649 1.001v 1.749c 0 0.154 0 0.308 -0.011 0.44c 0.528 0.583 1.023 0.726 1.452 0.726c 0.418 0 0.66 -0.242 0.66 -0.979v -1.936c 0 -0.902 -0.11 -0.957 -0.682 -1.001c -0.055 -0.066 -0.055 -0.297 0 -0.363c 0.275 0.011 0.682 0.022 1.122 0.022c 0.44 0 0.825 -0.011 1.133 -0.022c 0.055 0.066 0.055 0.297 0 0.363c -0.605 0.044 -0.704 0.099 -0.704 1.001v 1.738c 0 0.979 -0.165 1.749 -1.133 1.749c -0.561 0 -1.243 -0.209 -1.815 -0.814c -0.033 -0.033 -0.099 -0.088 -0.121 0.011c -0.099 0.451 -0.528 0.803 -1.1 0.803c -0.638 0 -1.21 -0.374 -1.672 -0.891c -0.055 -0.055 -0.121 -0.132 -0.132 0Z "/></symbol><symbol id="gF9560AC257AD9BBCF737B0F29E336B2F" overflow="visible"><path d="M 0 0m 1.716 4.048c -0.011 0.33 -0.033 0.616 -0.088 0.726c -0.022 0.055 -0.044 0.088 -0.132 0.088c -0.308 -0.121 -0.594 -0.22 -1.353 -0.319c -0.022 -0.066 0 -0.242 0.022 -0.308c 0.594 -0.055 0.715 -0.11 0.715 -0.748v -4.697c 0 -0.913 -0.121 -0.968 -0.792 -1.001c -0.066 -0.066 -0.066 -0.297 0 -0.363c 0.385 0.011 0.792 0.022 1.232 0.022c 0.44 0 0.968 -0.011 1.331 -0.022c 0.066 0.066 0.066 0.297 0 0.363c -0.781 0.044 -0.902 0.088 -0.902 1.001v 1.188c 0 0.143 0.044 0.132 0.154 0.088c 0.275 -0.11 0.605 -0.176 0.957 -0.176c 0.616 0 1.166 0.187 1.617 0.616c 0.517 0.506 0.814 1.188 0.814 2.079c 0 1.166 -0.825 2.244 -1.947 2.244c -0.506 0 -1.067 -0.33 -1.507 -0.825c -0.066 -0.066 -0.11 -0.066 -0.121 0.044Z m 0.209 -0.407c 0.286 0.352 0.792 0.682 1.111 0.682c 0.704 0 1.309 -0.792 1.309 -2.035c 0 -0.902 -0.319 -2.024 -1.551 -2.024c -0.198 0 -0.583 0.055 -0.781 0.231c -0.22 0.198 -0.264 0.264 -0.264 0.66v 2.002c 0 0.231 0.044 0.33 0.176 0.484Z "/></symbol><symbol id="g36F90904A4043C6A677E73471A30013F" overflow="visible"><path d="M 0 0m 1.045 1.342c 0 -0.913 -0.121 -0.968 -0.792 -1.001c -0.066 -0.066 -0.066 -0.297 0 -0.363c 0.385 0.011 0.792 0.022 1.232 0.022c 0.44 0 0.858 -0.011 1.221 -0.022c 0.066 0.066 0.066 0.297 0 0.363c -0.671 0.033 -0.792 0.088 -0.792 1.001v 5.071c 0 0.715 0.044 1.155 0.044 1.155c 0 0.077 -0.044 0.11 -0.143 0.11c -0.275 -0.11 -1.1 -0.264 -1.54 -0.297c -0.022 -0.088 0 -0.264 0.066 -0.33c 0.638 -0.044 0.704 -0.077 0.704 -0.902Z "/></symbol><symbol id="gD14A2C15FA7E7E6DA17092C3143CABC8" overflow="visible"><path d="M 0 0m 1.925 1.342v 2.948h 1.023c 0.099 0 0.253 0.044 0.253 0.143v 0.22c 0 0.044 -0.033 0.066 -0.088 0.066h -1.188v 0.627c 0 1.694 0.506 1.958 0.869 1.958c 0.33 0 0.506 -0.132 0.66 -0.517c 0.088 -0.198 0.209 -0.352 0.44 -0.352c 0.187 0 0.451 0.231 0.451 0.451c 0 0.187 -0.121 0.385 -0.352 0.561c -0.286 0.198 -0.572 0.231 -0.99 0.231c -0.924 0 -1.947 -0.803 -1.947 -2.519v -0.44h -0.561c -0.198 0 -0.253 -0.132 -0.253 -0.22v -0.143c 0 -0.055 0.011 -0.066 0.055 -0.066h 0.759v -2.948c 0 -0.913 -0.176 -0.957 -0.77 -1.001c -0.066 -0.066 -0.066 -0.297 0 -0.363c 0.385 0.011 0.77 0.022 1.21 0.022c 0.44 0 0.968 -0.011 1.353 -0.022c 0.066 0.066 0.066 0.297 0 0.363c -0.858 0.044 -0.924 0.088 -0.924 1.001Z "/></symbol><symbol id="gB7E01F34AB4FF1C26BADF7D662D6A5FF" overflow="visible"><path d="M 0 0m 2.244 -1.76c 0.176 0.308 0.319 0.616 0.451 0.946c 0.88 2.123 1.375 3.256 1.947 4.488c 0.22 0.462 0.374 0.638 0.891 0.704c 0.066 0.066 0.066 0.297 0 0.363c -0.22 -0.011 -0.473 -0.022 -0.781 -0.022c -0.33 0 -0.671 0.011 -1.001 0.022c -0.066 -0.066 -0.066 -0.297 0 -0.363c 0.352 -0.033 0.704 -0.099 0.528 -0.495l -1.089 -2.519c -0.077 -0.176 -0.176 -0.209 -0.264 0.011l -0.979 2.288c -0.198 0.462 -0.253 0.671 0.363 0.715c 0.066 0.066 0.066 0.297 0 0.363c -0.407 -0.011 -0.847 -0.022 -1.243 -0.022c -0.374 0 -0.671 0.011 -0.891 0.022c -0.066 -0.066 -0.066 -0.297 0 -0.363c 0.44 -0.055 0.583 -0.154 0.869 -0.825l 1.243 -2.893c 0.099 -0.22 0.264 -0.726 0.154 -1.034c -0.132 -0.363 -0.264 -0.671 -0.429 -1.012c -0.121 -0.22 -0.275 -0.319 -0.55 -0.319c -0.154 0 -0.198 0.033 -0.319 0.033c -0.319 0 -0.484 -0.33 -0.484 -0.473c 0 -0.231 0.22 -0.407 0.517 -0.407c 0.231 0 0.671 0.088 1.067 0.792Z "/></symbol><symbol id="g44004E68E94B5A5A0D86AA9F437EC7DB" overflow="visible"><path d="M 0 0m 0.77 0.66c 0 -0.319 0.264 -0.583 0.583 -0.583c 0.319 0 0.583 0.264 0.583 0.583c 0 0.319 -0.264 0.583 -0.583 0.583c -0.319 0 -0.583 -0.264 -0.583 -0.583Z m 0 3.278c 0 -0.319 0.264 -0.583 0.583 -0.583c 0.319 0 0.583 0.264 0.583 0.583c 0 0.319 -0.264 0.583 -0.583 0.583c -0.319 0 -0.583 -0.264 -0.583 -0.583Z "/></symbol><symbol id="g9787446D80B11CDE2529516BF2D1ACCA" overflow="visible"><path d="M 0 0m 3.223 0.528c 0.066 -0.341 0.187 -0.638 0.737 -0.638c 0.418 0 0.814 0.187 1.045 0.407c -0.022 0.132 -0.066 0.231 -0.187 0.297c -0.077 -0.066 -0.264 -0.176 -0.407 -0.176c -0.319 0 -0.33 0.429 -0.33 0.935v 1.617c 0 1.562 -0.858 1.859 -1.661 1.859c -0.902 0 -1.815 -0.594 -1.815 -1.221c 0 -0.264 0.132 -0.396 0.385 -0.396c 0.319 0 0.517 0.231 0.517 0.374c 0 0.077 -0.011 0.154 -0.033 0.198c -0.011 0.033 -0.022 0.099 -0.022 0.22c 0 0.341 0.462 0.462 0.88 0.462c 0.374 0 0.891 -0.187 0.891 -1.43c 0 -0.077 -0.033 -0.121 -0.066 -0.132l -0.946 -0.231c -1.056 -0.264 -1.815 -0.847 -1.815 -1.595c 0 -0.902 0.616 -1.188 1.386 -1.188c 0.385 0 0.715 0.088 1.199 0.462l 0.22 0.176Z m 0 2.035v -1.452c 0 -0.143 -0.066 -0.22 -0.154 -0.286c -0.286 -0.231 -0.66 -0.484 -0.968 -0.484c -0.55 0 -0.792 0.44 -0.792 0.781c 0 0.495 0.231 1.001 1.045 1.21Z "/></symbol><symbol id="gEC09E6B8EA933E4C3BF631014D088804" overflow="visible"><path d="M 0 0m 2.794 2.772c 0 0.495 -0.044 3.036 -2.332 5.016c -0.11 -0.022 -0.198 -0.099 -0.231 -0.187c 0.363 -0.418 1.65 -1.936 1.65 -4.829c 0 -2.893 -1.298 -4.411 -1.65 -4.807c 0.033 -0.11 0.11 -0.187 0.231 -0.198c 1.309 1.122 2.332 2.959 2.332 5.005Z "/></symbol><symbol id="g7FDD4349A49914F62F30F23AE9794251" overflow="visible"><path d="M 0 0m 5.797 4.103c 0 0.506 -0.495 0.759 -1.045 0.759c -0.473 0 -0.847 -0.253 -1.133 -0.759c -0.231 0.506 -0.616 0.759 -1.177 0.759c -0.539 0 -0.979 -0.253 -1.331 -0.748c -0.297 -0.429 -0.451 -0.748 -0.451 -0.957c 0 -0.099 0.055 -0.154 0.165 -0.154c 0.099 0 0.165 0.055 0.187 0.154c 0.209 0.638 0.671 1.386 1.408 1.386c 0.363 0 0.539 -0.231 0.539 -0.682c 0 -0.231 -0.198 -1.089 -0.583 -2.563c -0.187 -0.737 -0.517 -1.1 -0.99 -1.1c -0.154 0 -0.297 0.033 -0.418 0.088c 0.286 0.11 0.429 0.308 0.429 0.594c 0 0.286 -0.143 0.429 -0.44 0.429c -0.363 0 -0.638 -0.308 -0.638 -0.671c 0 -0.506 0.517 -0.759 1.056 -0.759c 0.462 0 0.836 0.253 1.133 0.759c 0.209 -0.506 0.605 -0.759 1.177 -0.759c 0.528 0 0.968 0.253 1.32 0.748c 0.297 0.429 0.451 0.748 0.451 0.957c 0 0.099 -0.055 0.154 -0.165 0.154c -0.099 0 -0.154 -0.055 -0.187 -0.154c -0.187 -0.627 -0.682 -1.386 -1.397 -1.386c -0.363 0 -0.55 0.22 -0.55 0.671c 0 0.143 0.055 0.451 0.176 0.946l 0.374 1.485c 0.209 0.825 0.55 1.243 1.034 1.243c 0.154 0 0.297 -0.033 0.418 -0.088c -0.297 -0.099 -0.44 -0.297 -0.44 -0.594c 0 -0.286 0.154 -0.429 0.451 -0.429c 0.352 0 0.627 0.319 0.627 0.671Z "/></symbol><symbol id="g25B224D96CA3F5CCC7E774117FEA026D" overflow="visible"><path d="M 0 0m 0.9163 3.2648c 0.2464 0 0.4312 0.1848 0.4312 0.4312c 0 0.2772 -0.1463 0.4235 -0.4312 0.4312c 0.1694 0.3619 0.5544 0.6545 1.0549 0.6545c 0.6776 0 1.1242 -0.5082 1.1242 -1.1858c 0 -0.3696 -0.1309 -0.7238 -0.4004 -1.0703c -0.1309 -0.1771 -0.231 -0.3003 -0.3003 -0.3696l -1.8249 -1.8095c -0.1001 -0.0924 -0.0847 -0.1155 -0.0847 -0.3465h 3.1724l 0.2387 1.4476h -0.3234c -0.0539 -0.4081 -0.1155 -0.6468 -0.1848 -0.7007c -0.0385 -0.0231 -0.2772 -0.0385 -0.7315 -0.0385h -1.309c 0.5159 0.4543 0.9933 0.8624 1.4476 1.2243c 0.3465 0.2695 0.5929 0.5082 0.7469 0.7161c 0.231 0.3003 0.3465 0.616 0.3465 0.9471c 0 0.4774 -0.1848 0.8547 -0.5621 1.1319c -0.3311 0.2541 -0.7469 0.385 -1.2397 0.385c -0.4235 0 -0.7854 -0.1232 -1.1011 -0.3696c -0.3311 -0.2695 -0.5005 -0.6083 -0.5005 -1.0241c 0 -0.2618 0.1925 -0.4543 0.4312 -0.4543Z "/></symbol><symbol id="gDDD45F8C02017DD13480202EA2B099EF" overflow="visible"><path d="M 0 0m 7.678 3.014h -3.135v 3.135c 0 0.176 -0.088 0.264 -0.264 0.264c -0.176 0 -0.264 -0.088 -0.264 -0.264v -3.135h -3.135c -0.176 0 -0.264 -0.088 -0.264 -0.264c 0 -0.176 0.088 -0.264 0.264 -0.264h 3.135v -3.135c 0 -0.176 0.088 -0.264 0.264 -0.264c 0.176 0 0.264 0.088 0.264 0.264v 3.135h 3.135c 0.176 0 0.264 0.088 0.264 0.264c 0 0.143 -0.121 0.264 -0.264 0.264Z "/></symbol><symbol id="g847DCE2A3EE7D23E3D551BDE0EE8A683" overflow="visible"><path d="M 0 0m 2.607 7.326c -0.561 0 -1.034 -0.198 -1.441 -0.594c -0.407 -0.396 -0.616 -0.858 -0.616 -1.419c 0 -0.374 0.275 -0.649 0.616 -0.649c 0.33 0 0.605 0.286 0.605 0.616c 0 0.363 -0.264 0.616 -0.616 0.616c -0.033 0 -0.055 0 -0.077 -0.011c 0.209 0.539 0.693 1.012 1.386 1.012c 0.902 0 1.408 -0.781 1.408 -1.727c 0 -0.737 -0.374 -1.529 -1.122 -2.365l -2.068 -2.332c -0.143 -0.165 -0.132 -0.154 -0.132 -0.473h 4.081l 0.319 1.98h -0.363c -0.088 -0.561 -0.165 -0.88 -0.231 -0.979c -0.055 -0.055 -0.385 -0.077 -0.99 -0.077h -1.837l 1.067 1.045c 0.748 0.704 1.694 1.463 2.013 2.046c 0.22 0.385 0.33 0.77 0.33 1.155c 0 1.298 -1.012 2.156 -2.332 2.156Z "/></symbol><symbol id="g23FF2CB0A5B3999574DE734D483151BD" overflow="visible"><path d="M 0 0m 2.959 7.326c -0.451 -0.462 -1.111 -0.693 -1.98 -0.693v -0.429c 0.572 0 1.045 0.088 1.408 0.264v -5.566c 0 -0.198 -0.044 -0.33 -0.143 -0.385c -0.099 -0.055 -0.374 -0.088 -0.814 -0.088h -0.385v -0.429c 0.275 0.022 0.869 0.033 1.782 0.033c 0.913 0 1.507 -0.011 1.782 -0.033v 0.429h -0.385c -0.451 0 -0.726 0.033 -0.814 0.088c -0.088 0.055 -0.143 0.187 -0.143 0.385v 6.094c 0 0.264 -0.022 0.33 -0.308 0.33Z "/></symbol><symbol id="g2E78C0ACEE1FBDF39EC1D5F9B4AD747D" overflow="visible"><path d="M 0 0m 1.837 4.334c -0.066 -0.066 -0.11 -0.044 -0.11 0.055v 2.024c 0 0.715 0.044 1.155 0.044 1.155c 0 0.077 -0.044 0.11 -0.143 0.11c -0.275 -0.11 -1.1 -0.264 -1.54 -0.297c -0.022 -0.088 0 -0.264 0.066 -0.33c 0.033 0 0.066 0 0.099 0c 0.484 -0.033 0.605 -0.033 0.605 -0.902v -5.368c 0 -0.429 -0.011 -0.627 -0.044 -0.781c 0.055 -0.088 0.11 -0.132 0.242 -0.132c 0.066 0.066 0.176 0.165 0.264 0.264c 0.11 0.132 0.176 0.132 0.297 0.033c 0.253 -0.209 0.583 -0.275 0.968 -0.275c 1.122 0 2.431 1.023 2.431 2.772c 0 1.342 -0.99 2.167 -1.947 2.167c -0.473 0 -0.891 -0.187 -1.232 -0.495Z m 0.077 -0.341c 0.286 0.253 0.616 0.352 0.935 0.352c 0.671 0 1.221 -0.814 1.221 -1.881c 0 -1.254 -0.506 -2.2 -1.551 -2.2c -0.341 0 -0.572 0.242 -0.792 0.517v 2.75c 0 0.231 0.044 0.341 0.187 0.462Z "/></symbol><symbol id="g9C5E01F97914784D6046F24928CB3533" overflow="visible"><path d="M 0 0m 3.498 -2.728c 0.099 0 0.154 0.055 0.154 0.154c 0 0.033 -0.022 0.077 -0.055 0.121c -0.572 0.44 -1.034 1.166 -1.375 2.167c -0.297 0.869 -0.451 1.727 -0.451 2.574v 0.924c 0 0.847 0.154 1.705 0.451 2.574c 0.341 1.001 0.803 1.727 1.375 2.167c 0.033 0.033 0.055 0.077 0.055 0.121c 0 0.099 -0.055 0.154 -0.154 0.154c -0.011 0 -0.044 -0.011 -0.077 -0.033c -0.66 -0.506 -1.21 -1.254 -1.661 -2.255c -0.429 -0.957 -0.649 -1.859 -0.649 -2.728v -0.924c 0 -0.869 0.22 -1.771 0.649 -2.728c 0.451 -1.001 1.001 -1.749 1.661 -2.255c 0.033 -0.022 0.066 -0.033 0.077 -0.033Z "/></symbol><symbol id="g224B0EF8FD52A606488E12FCAA597AD9" overflow="visible"><path d="M 0 0m 5.478 1.584c 0 0.099 -0.055 0.154 -0.176 0.154c -0.088 0 -0.154 -0.077 -0.187 -0.231c -0.22 -0.869 -0.484 -1.309 -0.781 -1.309c -0.187 0 -0.286 0.154 -0.286 0.462c 0 0.143 0.044 0.407 0.143 0.792l 0.627 2.475c 0.055 0.209 0.077 0.33 0.077 0.385c 0 0.22 -0.121 0.33 -0.363 0.33c -0.231 0 -0.385 -0.132 -0.462 -0.385c -0.231 0.407 -0.561 0.605 -0.979 0.605c -0.715 0 -1.342 -0.363 -1.892 -1.089c -0.506 -0.682 -0.759 -1.386 -0.759 -2.123c 0 -0.957 0.561 -1.771 1.485 -1.771c 0.473 0 0.935 0.253 1.375 0.759c 0.121 -0.418 0.495 -0.759 1.012 -0.759c 0.759 0 0.99 0.891 1.166 1.705Z m -1.727 2.53c 0.099 -0.231 0.154 -0.385 0.154 -0.484c 0 -0.044 -0.011 -0.099 -0.022 -0.176l -0.539 -2.112c -0.033 -0.121 -0.11 -0.253 -0.209 -0.385c -0.407 -0.506 -0.803 -0.759 -1.188 -0.759c -0.429 0 -0.649 0.33 -0.649 0.979c 0 0.264 0.066 0.66 0.198 1.188c 0.231 0.935 0.561 1.562 0.968 1.903c 0.22 0.187 0.429 0.275 0.638 0.275c 0.297 0 0.517 -0.143 0.649 -0.429Z "/></symbol><symbol id="g15828C4A4749E9A604E472A14681BAD3" overflow="visible"><path d="M 0 0m 3.091 4.895c -0.396 0 -0.792 -0.187 -1.177 -0.561l 0.759 3.135c -0.022 0.099 -0.055 0.165 -0.187 0.165c -0.363 0 -1.166 -0.099 -1.309 -0.11c -0.165 -0.022 -0.253 -0.099 -0.253 -0.264c 0 -0.11 0.099 -0.165 0.308 -0.165c 0.209 0 0.495 0.011 0.495 -0.143c 0 -0.044 -0.055 -0.264 -0.154 -0.671l -0.88 -3.542c -0.121 -0.462 -0.176 -0.836 -0.176 -1.111c 0 -0.946 0.506 -1.749 1.408 -1.749c 0.715 0 1.342 0.363 1.892 1.1c 0.495 0.682 0.748 1.397 0.748 2.134c 0 0.957 -0.561 1.782 -1.474 1.782Z m -0.022 -0.33c 0.429 0 0.638 -0.33 0.638 -0.979c 0 -0.297 -0.066 -0.693 -0.198 -1.188c -0.242 -0.935 -0.561 -1.573 -0.946 -1.914c -0.22 -0.187 -0.429 -0.275 -0.638 -0.275c -0.451 0 -0.671 0.352 -0.671 1.056c 0 0.242 0.055 0.605 0.165 1.089l 0.242 0.99c 0.033 0.165 0.088 0.286 0.154 0.374c 0.429 0.561 0.847 0.847 1.254 0.847Z "/></symbol><symbol id="g44903F1336FFA3AC82F2FDAECC383B22" overflow="visible"><path d="M 0 0m 0.858 -2.695c 0.66 0.506 1.21 1.254 1.661 2.255c 0.429 0.957 0.649 1.859 0.649 2.728v 0.924c 0 0.869 -0.22 1.771 -0.649 2.728c -0.451 1.001 -1.001 1.749 -1.661 2.255c -0.033 0.022 -0.066 0.033 -0.077 0.033c -0.099 0 -0.154 -0.055 -0.154 -0.154c 0 -0.044 0.022 -0.088 0.055 -0.121c 0.572 -0.44 1.034 -1.166 1.375 -2.167c 0.297 -0.869 0.451 -1.727 0.451 -2.574v -0.924c 0 -0.847 -0.154 -1.705 -0.451 -2.574c -0.341 -1.001 -0.803 -1.727 -1.375 -2.167c -0.033 -0.044 -0.055 -0.088 -0.055 -0.121c 0 -0.099 0.055 -0.154 0.154 -0.154c 0.011 0 0.044 0.011 0.077 0.033Z "/></symbol><symbol id="g3CE57ED74C3DBA63F54F2735C0855367" overflow="visible"><path d="M 0 0m 4.378 1.001c -0.044 0.099 -0.132 0.143 -0.231 0.154c -0.374 -0.484 -0.847 -0.726 -1.32 -0.726c -0.803 0 -1.474 0.814 -1.474 2.101c 0 1.21 0.528 1.936 1.254 1.936c 0.649 0 0.737 -0.385 0.781 -0.77c 0.033 -0.297 0.187 -0.396 0.418 -0.396c 0.231 0 0.539 0.143 0.539 0.484c 0 0.605 -0.627 1.045 -1.683 1.045c -1.089 0 -2.255 -0.979 -2.255 -2.541c 0 -1.419 0.792 -2.398 2.178 -2.398c 0.66 0 1.243 0.209 1.793 1.111Z "/></symbol><symbol id="g93E2B88EAD8DFDF0BE4D6467DB923DB5" overflow="visible"><path d="M 0 0m 3.333 3.883c 0.726 0.275 1.408 0.968 1.408 1.903c 0 0.473 -0.231 0.858 -0.682 1.155c -0.396 0.253 -0.847 0.385 -1.353 0.385c -0.495 0 -0.924 -0.132 -1.309 -0.385c -0.429 -0.286 -0.649 -0.66 -0.649 -1.133c 0 -0.363 0.242 -0.616 0.594 -0.616c 0.352 0 0.594 0.253 0.594 0.605c 0 0.363 -0.209 0.561 -0.627 0.583c 0.286 0.385 0.737 0.583 1.353 0.583c 0.66 0 0.99 -0.385 0.99 -1.166c 0 -0.462 -0.088 -0.847 -0.253 -1.166c -0.297 -0.528 -0.704 -0.627 -1.386 -0.627c -0.132 -0.022 -0.198 -0.077 -0.198 -0.176c 0 -0.165 0.077 -0.165 0.297 -0.165h 0.473c 0.825 0 1.243 -0.583 1.243 -1.76c 0 -0.935 -0.341 -1.749 -1.177 -1.749c -0.715 0 -1.243 0.242 -1.562 0.726c 0.385 -0.011 0.671 0.275 0.671 0.649c 0 0.374 -0.275 0.649 -0.649 0.649c -0.429 0 -0.649 -0.22 -0.649 -0.671c 0 -0.539 0.242 -0.968 0.726 -1.309c 0.429 -0.297 0.935 -0.44 1.496 -0.44c 0.627 0 1.166 0.209 1.639 0.616c 0.473 0.407 0.704 0.913 0.704 1.529c 0 1.034 -0.814 1.749 -1.694 1.98Z "/></symbol><symbol id="g6CA3708905D5D56BD06755CEABD69DE1" overflow="visible"><path d="M 0 0m 7.678 2.97h -6.798c -0.176 0 -0.264 -0.077 -0.264 -0.22c 0 -0.143 0.088 -0.22 0.264 -0.22h 6.798c 0.176 0 0.264 0.077 0.264 0.22c 0 0.132 -0.132 0.22 -0.264 0.22Z "/></symbol><symbol id="g8894C0A608DBD285706C131FF554A2B1" overflow="visible"><path d="M 0 0m 1.298 3.465c 0.055 0 0.121 0.044 0.176 0.121c 0.33 0.495 0.781 0.737 1.353 0.737c 0.385 0 0.682 -0.22 0.88 -0.671c 0.121 -0.297 0.187 -0.748 0.187 -1.353c 0 -0.693 -0.088 -1.177 -0.253 -1.463c -0.275 -0.451 -0.649 -0.682 -1.122 -0.682c -0.737 0 -1.32 0.528 -1.518 1.1c 0.033 -0.011 0.055 0 0.099 0c 0.33 0 0.605 0.253 0.605 0.583c 0 0.341 -0.275 0.572 -0.605 0.572c -0.385 0 -0.55 -0.209 -0.55 -0.616c 0 -1.1 0.891 -2.035 1.991 -2.035c 0.671 0 1.243 0.242 1.705 0.726c 0.462 0.484 0.693 1.067 0.693 1.738c 0 0.638 -0.187 1.188 -0.561 1.661c -0.407 0.517 -0.913 0.77 -1.529 0.77c -0.517 0 -0.968 -0.165 -1.331 -0.495v 1.958c 0.297 -0.088 0.583 -0.132 0.88 -0.132c 0.506 0 0.946 0.121 1.32 0.374c 0.341 0.209 0.572 0.418 0.704 0.616c 0.066 0.088 0.099 0.154 0.099 0.187c 0 0.11 -0.055 0.165 -0.165 0.165c -0.605 -0.231 -1.122 -0.352 -1.54 -0.352c -0.495 0 -0.968 0.099 -1.419 0.308c -0.055 0.022 -0.099 0.033 -0.143 0.033c -0.099 0 -0.154 -0.099 -0.154 -0.308v -3.212c 0 -0.231 0 -0.33 0.198 -0.33Z "/></symbol><symbol id="g7FF42B92D9D80783DC2C1CC317042C56" overflow="visible"><path d="M 0 0m 3.674 0.55c 0.055 0.044 0.154 0.066 0.165 -0.011c 0.033 -0.264 0.121 -0.649 0.121 -0.649c 0.088 -0.033 0.143 -0.022 0.209 0c 0.242 0.198 0.627 0.363 1.298 0.44c 0.066 0.066 0.066 0.231 0 0.297c -0.704 0.055 -0.803 0.264 -0.803 0.803v 4.983c 0 0.715 0.044 1.155 0.044 1.155c 0 0.077 -0.044 0.11 -0.143 0.11c -0.275 -0.11 -1.1 -0.264 -1.54 -0.297c -0.022 -0.088 0 -0.264 0.066 -0.33c 0.033 0 0.066 0 0.099 0c 0.484 -0.033 0.605 -0.033 0.605 -0.902v -1.408c 0 -0.077 -0.022 -0.099 -0.099 -0.099c -0.044 0 -0.495 0.187 -0.858 0.187c -0.726 0 -1.21 -0.242 -1.65 -0.66c -0.473 -0.473 -0.759 -1.122 -0.759 -1.936c 0 -1.353 0.682 -2.343 1.87 -2.343c 0.429 0 0.836 0.22 1.375 0.66Z m 0.121 0.814c 0 -0.209 -0.022 -0.297 -0.176 -0.429c -0.407 -0.352 -0.759 -0.528 -1.034 -0.528c -0.594 0 -1.21 0.649 -1.21 2.024c 0 0.792 0.154 1.232 0.319 1.463c 0.341 0.517 0.803 0.55 1.023 0.55c 0.396 0 0.671 -0.143 0.891 -0.396c 0.154 -0.176 0.187 -0.253 0.187 -0.594Z "/></symbol><symbol id="gB4F8E97E8EFD98CA94EE40D9890E0542" overflow="visible"><path d="M 0 0m 4.4891 2.8105c 0 0.3927 -0.4004 0.5852 -0.8162 0.5852c -0.3465 0 -0.6314 -0.1694 -0.847 -0.5082c -0.1848 0.3388 -0.4928 0.5082 -0.9163 0.5082c -0.2849 0 -0.5852 -0.1232 -0.8855 -0.3773c -0.3157 -0.2618 -0.4774 -0.5313 -0.4774 -0.8085c 0 -0.0847 0.0539 -0.1309 0.154 -0.1309c 0.0847 0 0.1386 0.0462 0.1771 0.1463c 0.1386 0.4158 0.5159 0.9009 1.0087 0.9009c 0.2849 0 0.4235 -0.154 0.4235 -0.4697c 0 -0.1001 -0.0539 -0.3619 -0.154 -0.7854l -0.2618 -1.0318c -0.0693 -0.2926 -0.3542 -0.6468 -0.6853 -0.6468c -0.1309 0 -0.2464 0.0231 -0.3388 0.077c 0.154 0.0693 0.2926 0.2387 0.2926 0.4158c 0 0.1848 -0.1463 0.3157 -0.3311 0.3157c -0.2618 0 -0.462 -0.231 -0.462 -0.4928c 0 -0.385 0.4081 -0.5852 0.8239 -0.5852c 0.3542 0 0.6391 0.1694 0.847 0.5082c 0.1848 -0.3388 0.4851 -0.5082 0.9086 -0.5082c 0.4235 0 0.7623 0.1694 1.0241 0.5082c 0.2233 0.3003 0.3388 0.5313 0.3388 0.6776c 0 0.0847 -0.0462 0.1309 -0.1463 0.1309c -0.0847 0 -0.1463 -0.0539 -0.1771 -0.154c -0.1309 -0.4081 -0.5236 -0.8932 -1.0087 -0.8932c -0.2849 0 -0.4312 0.154 -0.4312 0.462c 0 0.1155 0.1309 0.693 0.3927 1.7171c 0.1309 0.5005 0.3619 0.7546 0.7084 0.7546l 0.0693 -0.0077c 0.0924 0 0.1848 -0.0231 0.2695 -0.0616c -0.1925 -0.0847 -0.2849 -0.2233 -0.2849 -0.4235c 0 -0.1848 0.1463 -0.3157 0.3311 -0.3157c 0.2618 0 0.4543 0.231 0.4543 0.4928Z "/></symbol><symbol id="g1E91EC0565909D26837158C3378F24FD" overflow="visible"><path d="M 0 0m 0.836 2.332c 0.198 0 0.341 0.143 0.341 0.341c 0 0.1925 -0.099 0.308 -0.2915 0.341c 0.1705 0.2475 0.4345 0.3685 0.792 0.3685c 0.5225 0 0.9405 -0.3245 0.9405 -0.8305c 0 -0.3465 -0.242 -0.726 -0.726 -1.1385l -1.32 -1.1275c -0.044 -0.0385 -0.066 -0.0715 -0.0715 -0.099v -0.187h 2.5575l 0.187 1.0945h -0.275c -0.0495 -0.297 -0.099 -0.462 -0.1485 -0.5005c -0.0275 -0.0165 -0.22 -0.0275 -0.5665 -0.0275h -0.9955c 0.7095 0.5225 0.8635 0.627 1.32 0.9515c 0.22 0.1595 0.374 0.308 0.4675 0.4455c 0.1265 0.1925 0.1925 0.3905 0.1925 0.594c 0 0.3685 -0.1595 0.649 -0.473 0.847c -0.2695 0.1705 -0.594 0.2585 -0.979 0.2585c -0.3245 0 -0.6105 -0.0825 -0.858 -0.242c -0.286 -0.1815 -0.429 -0.429 -0.429 -0.737c 0 -0.209 0.165 -0.352 0.3355 -0.352Z "/></symbol><symbol id="g579254C6D7C5460FC0BE22F3C99860E5" overflow="visible"><path d="M 0 0m 5.3592 2.1021h -4.7278c -0.154 0 -0.2002 -0.077 -0.2002 -0.1771c 0 -0.1001 0.0462 -0.1771 0.2002 -0.1771h 4.7278c 0.154 0 0.2002 0.077 0.2002 0.1771c 0 0.0924 -0.0462 0.1771 -0.2002 0.1771Z "/></symbol><symbol id="g72ED4E8BDD8DFFE80EC72D6074F65D44" overflow="visible"><path d="M 0 0m 3.0338 5.1898c -0.0847 0 -0.1617 -0.0385 -0.2233 -0.1155l -2.5102 -3.5112v -0.3157h 2.2253v -0.5929c 0 -0.1309 -0.0231 -0.2233 -0.077 -0.2618c -0.0539 -0.0385 -0.2233 -0.0616 -0.5005 -0.0616h -0.2387v -0.3311l 1.1627 0.0308l 1.1781 -0.0308v 0.3311h -0.231c -0.2849 0 -0.4543 0.0231 -0.5082 0.0616c -0.0539 0.0385 -0.077 0.1309 -0.077 0.2618v 0.5929h 0.8393v 0.3388h -0.8393v 3.3572c 0 0.1848 -0.0231 0.2464 -0.2002 0.2464Z m -0.4543 -0.9471v -2.6565h -1.9096Z "/></symbol><symbol id="g5E76F8DBE7C3C7A9A461E8EC1D70F6FB" overflow="visible"><path d="M 0 0m 0.451 2.255c 0 -1.122 0.748 -2.365 2.31 -2.365c 0.704 0 1.243 0.253 1.617 0.616c 0.495 0.484 0.715 1.177 0.715 1.848c 0 1.144 -0.627 2.475 -2.31 2.475c -0.726 0 -1.32 -0.297 -1.727 -0.77c -0.396 -0.473 -0.605 -1.111 -0.605 -1.804Z m 2.167 2.189c 0.946 0 1.529 -0.858 1.529 -2.442c 0 -1.386 -0.715 -1.727 -1.232 -1.727c -1.144 0 -1.518 1.386 -1.518 2.233c 0 0.957 0.231 1.936 1.221 1.936Z "/></symbol><symbol id="g1E471D2E98C4E85A3CE47F56E86025C4" overflow="visible"><path d="M 0 0m 3.575 4.378c 0.594 -0.044 0.66 -0.176 0.429 -0.737l -0.891 -2.156c -0.176 -0.429 -0.231 -0.429 -0.407 0.033l -0.792 2.123c -0.198 0.528 -0.242 0.66 0.341 0.737c 0.066 0.066 0.066 0.297 0 0.363c -0.363 -0.011 -0.748 -0.022 -1.111 -0.022c -0.363 0 -0.693 0.011 -1.023 0.022c -0.066 -0.066 -0.066 -0.297 0 -0.363c 0.583 -0.066 0.66 -0.242 0.88 -0.803l 1.408 -3.476c 0.066 -0.165 0.132 -0.231 0.275 -0.231c 0.11 0 0.187 0.066 0.264 0.253l 1.463 3.443c 0.209 0.484 0.33 0.759 0.946 0.814c 0.066 0.066 0.066 0.297 0 0.363c -0.22 -0.011 -0.484 -0.022 -0.77 -0.022c -0.363 0 -0.737 0.011 -1.012 0.022c -0.066 -0.066 -0.066 -0.297 0 -0.363Z "/></symbol><symbol id="gBFE09989B12480F1B7796D69E0D7287C" overflow="visible"><path d="M 0 0m 4.246 1.023c -0.407 -0.418 -0.726 -0.594 -1.364 -0.594c -0.396 0 -0.858 0.231 -1.199 0.792c -0.22 0.363 -0.352 0.869 -0.352 1.507l 2.926 -0.022c 0.132 0 0.209 0.066 0.209 0.187c 0 0.924 -0.33 1.914 -1.859 1.914c -0.957 0 -2.2 -0.913 -2.2 -2.585c 0 -0.616 0.154 -1.21 0.517 -1.628c 0.374 -0.44 0.891 -0.704 1.683 -0.704c 0.836 0 1.43 0.385 1.87 0.957c -0.033 0.11 -0.099 0.165 -0.231 0.176Z m -2.882 2.079c 0.209 1.243 0.979 1.342 1.243 1.342c 0.418 0 0.913 -0.231 0.913 -1.155c 0 -0.099 -0.044 -0.154 -0.165 -0.154Z "/></symbol><symbol id="gD91D82170ED5F219BEA1B53E81DC19AF" overflow="visible"><path d="M 0 0m 1.936 3.938c -0.022 0.44 -0.033 0.726 -0.088 0.836c -0.022 0.055 -0.044 0.088 -0.132 0.088c -0.308 -0.121 -0.594 -0.22 -1.353 -0.319c -0.022 -0.066 0 -0.242 0.022 -0.308c 0.594 -0.055 0.715 -0.11 0.715 -0.748v -2.145c 0 -0.913 -0.132 -0.957 -0.814 -1.001c -0.066 -0.066 -0.066 -0.297 0 -0.363c 0.385 0.011 0.814 0.022 1.254 0.022c 0.44 0 0.946 -0.011 1.331 -0.022c 0.066 0.066 0.066 0.297 0 0.363c -0.77 0.055 -0.902 0.088 -0.902 1.001v 1.529c 0 0.286 0.132 0.539 0.264 0.737c 0.121 0.176 0.374 0.539 0.506 0.539c 0.099 0 0.198 -0.022 0.286 -0.143c 0.077 -0.11 0.209 -0.253 0.396 -0.253c 0.264 0 0.517 0.275 0.517 0.55c 0 0.209 -0.198 0.528 -0.66 0.528c -0.517 0 -0.968 -0.484 -1.221 -0.913c -0.066 -0.121 -0.121 -0.033 -0.121 0.022Z "/></symbol><symbol id="g38178746B45E40B27C1ECDAD3F62C0A9" overflow="visible"><path d="M 0 0m 3.168 1.342v 3.817c 0 0.66 0.011 1.331 0.033 1.474c 0 0.055 -0.022 0.055 -0.066 0.055c -0.605 -0.374 -1.188 -0.649 -2.156 -1.1c 0.022 -0.121 0.066 -0.231 0.165 -0.297c 0.506 0.209 0.748 0.275 0.957 0.275c 0.187 0 0.22 -0.264 0.22 -0.638v -3.586c 0 -0.913 -0.297 -0.968 -1.067 -1.001c -0.066 -0.066 -0.066 -0.297 0 -0.363c 0.539 0.011 0.935 0.022 1.529 0.022c 0.528 0 0.792 -0.011 1.342 -0.022c 0.066 0.066 0.066 0.297 0 0.363c -0.77 0.033 -0.957 0.088 -0.957 1.001Z "/></symbol><symbol id="g2389F7618E8CE27CC7151A1D8E5DEAD4" overflow="visible"><path d="M 0 0m 7.678 4.037h -6.798c -0.176 0 -0.264 -0.088 -0.264 -0.253c 0 -0.165 0.088 -0.253 0.264 -0.253h 6.798c 0.176 0 0.264 0.088 0.264 0.253c 0 0.132 -0.121 0.253 -0.264 0.253Z m 0 -2.068h -6.798c -0.176 0 -0.264 -0.088 -0.264 -0.253c 0 -0.165 0.088 -0.253 0.264 -0.253h 6.798c 0.176 0 0.264 0.088 0.264 0.253c 0 0.143 -0.121 0.253 -0.264 0.253Z "/></symbol><symbol id="g5BA3B744496DE638A69C45D17B8B8178" overflow="visible"><path d="M 0 0m 0.671 5.148c 0 -0.231 0.209 -0.429 0.44 -0.429c 0.187 0 0.517 0.198 0.517 0.44c 0 0.088 -0.022 0.154 -0.044 0.231c -0.022 0.077 -0.088 0.176 -0.088 0.264c 0 0.275 0.286 0.671 1.089 0.671c 0.396 0 0.957 -0.275 0.957 -1.331c 0 -0.704 -0.253 -1.276 -0.902 -1.936l -0.814 -0.803c -1.078 -1.1 -1.254 -1.628 -1.254 -2.277c 0 0 0.561 0.022 0.913 0.022h 1.925c 0.352 0 0.858 -0.022 0.858 -0.022c 0.143 0.583 0.253 1.408 0.264 1.738c -0.066 0.055 -0.209 0.077 -0.319 0.055c -0.187 -0.781 -0.374 -1.056 -0.77 -1.056h -1.958c 0 0.528 0.759 1.276 0.814 1.331l 1.111 1.067c 0.627 0.605 1.1 1.089 1.1 1.925c 0 1.188 -0.968 1.672 -1.859 1.672c -1.221 0 -1.98 -0.902 -1.98 -1.562Z "/></symbol><symbol id="gA754BD559092BEFA127826A2A25BC17" overflow="visible"><path d="M 0 0m 4.213 5.544c 0.363 0 0.539 0.187 0.539 0.561c 0 0.792 -0.594 1.221 -1.408 1.221c -0.913 0 -1.639 -0.429 -2.178 -1.298c -0.473 -0.748 -0.704 -1.595 -0.704 -2.552c 0 -1.397 0.253 -2.376 0.77 -2.959c 0.44 -0.506 0.946 -0.759 1.529 -0.759c 0.671 0 1.221 0.253 1.65 0.759c 0.407 0.484 0.616 1.067 0.616 1.738c 0 0.671 -0.198 1.243 -0.594 1.716c -0.418 0.506 -0.957 0.77 -1.606 0.77c -0.572 0 -1.012 -0.319 -1.309 -0.935v 0.066c 0 1.243 0.308 2.299 0.968 2.783c 0.286 0.209 0.583 0.308 0.88 0.308c 0.396 0 0.682 -0.11 0.869 -0.341c -0.374 0 -0.561 -0.209 -0.561 -0.539c 0 -0.308 0.231 -0.539 0.539 -0.539Z m -0.429 -1.804c 0.121 -0.253 0.187 -0.748 0.187 -1.474c 0 -0.715 -0.055 -1.188 -0.176 -1.43c -0.22 -0.451 -0.561 -0.682 -1.034 -0.682c -0.319 0 -0.561 0.11 -0.737 0.33c -0.143 0.176 -0.242 0.33 -0.286 0.451c -0.132 0.341 -0.198 0.858 -0.198 1.562c 0 0.308 0.044 0.605 0.121 0.891c 0.143 0.517 0.55 1.001 1.155 1.001c 0.429 0 0.759 -0.22 0.968 -0.649Z "/></symbol><symbol id="g95E62ABD17097D047789BD4F75E52D9B" overflow="visible"><path d="M 0 0m 2.365 6.325c 0.473 0 0.913 -0.286 0.913 -0.99c 0 -0.55 -0.638 -1.397 -1.727 -1.551l 0.055 -0.352c 0.187 0.022 0.385 0.022 0.528 0.022c 0.627 0 1.441 -0.176 1.441 -1.419c 0 -1.463 -0.979 -1.76 -1.364 -1.76c -0.561 0 -0.66 0.253 -0.792 0.451c -0.11 0.154 -0.253 0.286 -0.473 0.286c -0.231 0 -0.462 -0.209 -0.462 -0.385c 0 -0.44 0.924 -0.737 1.584 -0.737c 1.309 0 2.475 0.847 2.475 2.299c 0 1.199 -0.902 1.628 -1.551 1.738l -0.011 0.022c 0.902 0.429 1.155 0.88 1.155 1.463c 0 0.33 -0.077 0.594 -0.341 0.869c -0.242 0.242 -0.627 0.429 -1.199 0.429c -1.617 0 -2.079 -1.056 -2.079 -1.419c 0 -0.154 0.11 -0.374 0.374 -0.374c 0.385 0 0.429 0.363 0.429 0.572c 0 0.704 0.759 0.836 1.045 0.836Z "/></symbol><symbol id="g64E1EAFB3C37A6348C3813C77051AC32" overflow="visible"><path d="M 0 0m 4.73 2.409h -0.913v 3.212c 0 0.55 0 0.979 0.022 1.067l -0.022 0.022h -0.352c -0.077 0 -0.132 -0.066 -0.176 -0.121c -0.693 -0.847 -1.969 -2.662 -2.981 -4.235c 0.033 -0.165 0.099 -0.462 0.429 -0.462h 2.244v -1.012c 0 -0.506 -0.418 -0.506 -0.891 -0.539c -0.066 -0.066 -0.066 -0.297 0 -0.363c 0.352 0.011 0.792 0.022 1.298 0.022c 0.429 0 0.847 -0.011 1.199 -0.022c 0.066 0.066 0.066 0.297 0 0.363c -0.539 0.044 -0.77 0.022 -0.77 0.539v 1.012h 0.759c 0.154 0 0.319 0.209 0.319 0.341c 0 0.11 -0.044 0.176 -0.165 0.176Z m -1.749 3.168v -3.168h -2.101c 0.561 0.902 1.342 2.134 2.101 3.168Z "/></symbol><symbol id="g293A68469737AFB939432645E7BDA476" overflow="visible"><path d="M 0 0m 5.225 6.644c 0.077 0.099 0.11 0.242 0.11 0.44h -2.662c -0.759 0 -1.188 0.044 -1.265 0.143c -0.033 0.033 -0.066 0.11 -0.088 0.209h -0.341l -0.374 -2.332h 0.363c 0.11 0.616 0.198 0.946 0.264 1.001c 0.033 0.033 0.374 0.055 1.023 0.055h 2.156l -1.166 -1.65c -0.891 -1.265 -1.331 -2.629 -1.331 -4.114c 0 -0.429 0.176 -0.638 0.539 -0.638c 0.363 0 0.539 0.209 0.539 0.638v 0.561c 0 1.672 0.264 2.882 0.781 3.619Z "/></symbol></defs></svg>