<?xml version="1.0" encoding="UTF-8"?>
<svg id="_图层_2" data-name="图层 2" xmlns="http://www.w3.org/2000/svg" viewBox="0 0 138.8 709.21">
  <defs>
    <style>
      .cls-1 {
        fill: #fff;
      }

      .cls-2 {
        fill: #074a96;
      }

      .cls-3 {
        fill: #0c4994;
      }
    </style>
  </defs>
  <g id="_图层_1-2" data-name="图层 1">
    <g>
      <circle class="cls-1" cx="69.4" cy="69.4" r="69.38" transform="translate(-7.96 129.8) rotate(-82.98)"/>
      <g>
        <path class="cls-3" d="m50.41,124.1c-.02.06.06.11.23.17l1.04.34c.13.04.21.05.21.02.01-.03.02-.25.03-.63l.02-2.03-1.34,1.83c-.12.15-.18.25-.2.29Z"/>
        <path class="cls-3" d="m87.47,124.18c-.12-.41-.26-.81-.42-1.19-.16-.38-.34-.7-.55-.97-.21-.27-.44-.46-.7-.59-.26-.12-.57-.13-.9-.04-.31.09-.54.25-.67.48-.13.23-.21.5-.22.83-.01.32.02.68.1,1.07.08.39.19.79.31,1.21.14.45.29.88.45,1.26.16.38.34.71.55.96s.43.44.68.55c.25.11.53.12.84.02.3-.09.52-.24.67-.46.14-.22.23-.49.25-.81.03-.32,0-.68-.07-1.08-.07-.4-.17-.82-.31-1.26Z"/>
        <path class="cls-3" d="m58,122.53c-.12-.03-.21-.04-.29-.05-.08,0-.14,0-.2.04-.05.03-.09.09-.13.16-.03.08-.06.18-.09.31l-1.04,4.87c-.04.18-.06.32-.05.42,0,.1.03.18.08.25.05.06.11.11.2.14.09.03.2.06.33.09.56.12,1.04-.04,1.42-.47.39-.44.7-1.19.93-2.26.23-1.05.25-1.87.09-2.43-.17-.57-.58-.92-1.24-1.06Z"/>
        <path class="cls-3" d="m40.85,119.7c-.03.05.04.12.2.21l.96.52c.12.07.19.09.21.06.02-.03.07-.24.15-.62l.39-1.99-1.65,1.56c-.14.13-.23.21-.25.25Z"/>
        <path class="cls-3" d="m69.4,2.98C32.78,2.98,2.99,32.78,2.99,69.39s29.8,66.42,66.42,66.42,66.41-29.8,66.41-66.42S106.02,2.98,69.4,2.98Zm0,18.92c26.18,0,47.49,21.3,47.49,47.49s-21.3,47.5-47.49,47.5-47.49-21.31-47.49-47.5,21.3-47.49,47.49-47.49ZM22.95,109l.35-.32c.36.39.7.44,1.02.14l3.71-3.39c.31-.28.39-.57.27-.87-.32-.32-.75-.3-1.31.12l-4.72,3.53-.26-.18,1.79-6.04-2.56,1.92c-.66.5-.81.99-.46,1.47l-.38.29-1.32-1.77.38-.29c.3.4.78.35,1.44-.15l3.93-2.94c.2-.15.13-.45-.22-.92h0c-.25-.18-.56-.16-.93.07l-4.18,2.63c-.39.25-.43.6-.14,1.07l-.4.25-1.66-2.63.4-.25c.29.46.63.57,1.02.33l4.18-2.64c.44-.28.55-.63.37-1.04l-.06.03c-.24-.48-.63-.58-1.16-.31l-4.4,2.25c-.41.21-.49.55-.25,1.03l-.42.22-1.42-2.78.42-.21c.26.51.6.67,1.01.46l2.03-1.04c0-.07,0-.16-.02-.26-.02-.11-.07-.22-.13-.35l-.48-.95c-.1-.2-.23-.34-.38-.45l-2.04,1.04c-.41.21-.49.55-.25,1.02l-.42.22-1.43-2.8.42-.22c.27.53.61.69,1.02.48l4.4-2.25c.49-.25.62-.62.43-1.09-.48.29-1.09.58-1.84.87l-.22-.58c.67-.41,1.11-.8,1.33-1.15.22-.36.25-.74.1-1.14-.11-.28-.27-.48-.5-.59-.23-.12-.49-.18-.78-.18-.3,0-.62.04-.97.13-.35.09-.7.2-1.04.33-.47.18-.91.37-1.3.57-.39.2-.72.41-.98.65-.26.23-.44.48-.54.75-.1.26-.09.55.02.86.15.4.42.69.8.84.38.16.93.21,1.65.17l-.03.42c-.37.05-.72.06-1.04.02-.33-.04-.63-.11-.9-.23-.27-.12-.5-.27-.7-.47-.19-.19-.34-.43-.45-.7-.19-.5-.26-.96-.21-1.38.05-.42.19-.79.42-1.13.23-.34.55-.64.94-.9.39-.26.84-.48,1.35-.68.54-.21,1.06-.35,1.55-.44.49-.09.94-.1,1.35-.02.41.07.76.22,1.06.46.3.23.54.57.7,1.01.05.12.09.27.12.42.03.15.05.31.06.46,0,.16,0,.31-.03.46-.03.15-.08.29-.15.42.33.03.58.16.77.38-.04.03-.08.06-.12.09l1.4,2.75-.44.23c-.24-.47-.63-.57-1.16-.3l-1.65.84c0,.1.02.19.05.27.03.09.07.18.12.29l.48.95c.14.27.26.44.36.5l1.66-.85c.53-.27.67-.66.4-1.18l.44-.23,1.32,2.59.06-.04,1.65,2.62-.04.03.76,1.02-1.65,5.38,2.33-1.74c.61-.46.74-.92.38-1.4l.4-.3.98,1.31,3.42,3.74-1.59,1.55-.41-.36c.27-.32.45-.59.55-.81.1-.23.13-.42.11-.6-.02-.17-.08-.33-.19-.48-.11-.15-.24-.3-.39-.47-.13-.14-.26-.23-.38-.26-.12-.03-.24,0-.33.09l-1.46,1.34c-.13.12-.15.23-.06.33.09.1.19.19.29.26.1.07.2.12.33.13.12.01.26,0,.42-.07.16-.06.34-.18.55-.35l.35.38-2.23,2.04-.35-.38c.18-.19.31-.35.4-.49.09-.14.14-.26.15-.37.01-.11,0-.22-.06-.32-.05-.1-.13-.22-.23-.34-.15-.13-.29-.14-.43-.02l-1.56,1.43c-.27.24-.25.53.05.86.24.27.46.45.66.56.2.11.4.17.6.17.2,0,.41-.04.63-.14.22-.09.48-.21.77-.36l.27.43-1.89,1.4-3.47-3.79Zm6.06,6.19c-.26-.09-.5-.24-.72-.44-.16-.15-.29-.32-.4-.5-.1-.19-.15-.4-.15-.63-.16,0-.31-.02-.46-.04-.15-.03-.29-.06-.43-.12.13-.24.27-.47.43-.69.16-.22.34-.43.53-.64.13-.14.27-.28.4-.41.13-.13.28-.26.43-.39l.42.39c-.17.18-.32.38-.46.61-.14.22-.24.45-.3.68-.06.23-.08.46-.04.69.04.22.15.42.34.59.17.15.33.26.49.32s.31.08.46.06c.15-.02.29-.06.42-.14.13-.08.25-.18.37-.3.18-.19.29-.39.33-.59.04-.2.01-.42-.09-.67-.16-.36-.29-.7-.41-1.02-.12-.32-.18-.63-.2-.94-.02-.31.03-.61.14-.91.11-.3.31-.61.6-.92.22-.24.45-.42.7-.54.25-.12.49-.2.74-.22.24-.02.48,0,.71.09.23.08.43.2.61.37.16.15.28.33.36.54.08.21.09.45.02.72.15-.06.3-.09.46-.08.16.01.3.04.42.1-.18.32-.42.66-.71,1.01-.29.35-.58.68-.86.97l-.45-.41c.17-.25.31-.5.43-.73.12-.23.2-.45.25-.65.05-.2.05-.39.02-.55-.03-.16-.11-.3-.23-.41-.25-.23-.51-.35-.76-.34-.26,0-.49.11-.68.32-.14.15-.23.29-.27.43-.04.14-.05.29-.03.45.02.16.07.33.14.52.07.19.15.4.24.63.1.27.18.52.25.76.07.24.1.47.08.71-.01.23-.08.47-.19.72-.11.24-.3.51-.57.8-.26.28-.52.49-.79.64-.27.15-.54.24-.82.27-.27.03-.54,0-.8-.09Zm8.02-.21c.21-.36.35-.66.4-.89.06-.24.06-.44.01-.61-.05-.17-.14-.31-.27-.44-.13-.13-.29-.26-.46-.4-.15-.12-.29-.18-.42-.19-.13,0-.23.04-.32.15l-1.22,1.56c-.11.14-.11.26,0,.34.11.09.22.16.33.21.11.05.22.08.34.07.12,0,.25-.05.4-.14.14-.09.31-.23.49-.44l.41.31-1.85,2.38-.4-.31c.14-.21.25-.4.31-.55.06-.15.09-.28.09-.39,0-.11-.05-.21-.12-.3-.07-.09-.17-.19-.29-.29-.17-.1-.31-.09-.42.06l-1.3,1.67c-.22.29-.16.56.19.84.28.22.53.37.75.45.21.07.42.1.62.06.2-.03.4-.11.6-.24.2-.13.44-.29.7-.48l.34.38-1.63,1.7-4.06-3.16.29-.38c.42.33.76.32,1.03-.03l3.08-3.96c.35-.45.29-.85-.16-1.2l.3-.39,4.01,3.12-1.3,1.79-.46-.29Zm6.18,9.79l-2.62-1.44.22-.41c.08.03.16.05.25.09.09.03.17.05.24.07.07.02.14.03.19.03s.09-.01.1-.04c.02-.03.03-.07.04-.12.01-.05.02-.11.04-.17l.32-1.4c.02-.08,0-.16-.07-.24-.07-.08-.14-.14-.23-.19l-1.13-.62c-.17-.09-.3-.08-.41.03l-.8.87s-.06.06-.08.1c-.03.04-.05.08-.08.12-.14.26,0,.51.45.75l-.25.46-1.81-.99.25-.46c.3.13.64.02,1.01-.32l4.91-4.6.65.53-1.38,6.8c-.02.08-.02.16,0,.23.02.07.05.14.1.2.05.06.09.11.15.16.05.05.11.09.16.13l-.22.41Zm3.06,1.29c-.28,0-.55-.05-.81-.17-.49-.21-.87-.48-1.13-.81-.26-.33-.43-.69-.51-1.09-.08-.4-.07-.84.02-1.3.09-.46.24-.94.46-1.44.23-.53.49-1,.77-1.41.28-.41.59-.74.92-.98.33-.24.69-.39,1.07-.44.38-.05.78.02,1.21.2.12.05.25.12.38.2.13.08.26.18.38.28.12.11.22.22.31.35.09.12.16.26.2.4.25-.21.52-.3.81-.29-.06.67-.32,1.53-.78,2.58l-.57-.25c.17-.76.21-1.35.11-1.75-.1-.41-.35-.7-.75-.87-.28-.12-.53-.14-.78-.06-.24.08-.47.22-.68.43-.21.21-.41.47-.59.78-.18.31-.35.63-.5.97-.2.46-.37.91-.5,1.33-.13.42-.21.8-.22,1.15-.02.35.03.65.15.91.12.26.33.45.63.59.39.17.78.18,1.16.01.38-.16.81-.51,1.28-1.06l.28.32c-.22.3-.46.55-.71.76-.26.21-.52.37-.79.48-.27.11-.55.17-.82.17Zm4.54,1.66l.14-.44c.08.01.17.02.26.04.09.02.18.02.25.03.07,0,.14,0,.19,0,.05,0,.08-.03.09-.06.01-.04.02-.08.02-.13,0-.05,0-.11,0-.17l.06-1.43c0-.08-.03-.16-.11-.22-.08-.06-.17-.11-.26-.14l-1.23-.4c-.18-.06-.31-.02-.4.11l-.63,1.01s-.04.07-.06.11c-.02.04-.04.09-.05.13-.09.28.1.5.58.65l-.16.49-1.96-.64.16-.49c.32.07.64-.09.94-.5l3.99-5.42.74.4-.11,6.94c0,.09.01.16.04.23s.08.12.13.17c.06.05.11.1.17.13.06.04.12.07.18.1l-.14.44-2.84-.93Zm8.48,1.22c-.3.25-.66.4-1.07.46-.41.06-.89.03-1.45-.09l-3.01-.65.1-.46c.17.04.31.05.42.05.11,0,.2-.03.28-.08.07-.05.13-.14.18-.26.05-.12.09-.28.13-.47l.97-4.5c.05-.25.08-.44.07-.56,0-.12-.03-.21-.09-.27-.05-.06-.13-.11-.24-.14-.1-.04-.23-.1-.37-.17l.1-.49c.14.05.27.1.4.13.12.04.25.07.39.1.18.04.34.07.49.09.15.03.31.05.49.08.17.03.38.06.61.1.23.04.52.1.86.17.45.1.83.25,1.15.46.32.21.57.49.74.84.18.35.28.77.3,1.27.02.5-.04,1.08-.18,1.74-.14.63-.31,1.17-.51,1.61-.21.44-.46.78-.76,1.03Zm19.27-5.56l-1.18,3.7.26,2.21c.03.26.33.36.89.29l.06.47-3.19.38-.06-.47c.59-.07.86-.25.83-.54l-.25-2.12-1.79-2.86c-.25-.4-.5-.64-.75-.73-.02,0-.05,0-.07,0-.11.04-.19.08-.25.14-.06.06-.1.12-.12.19-.02.07-.03.14-.03.21l.13,5.11c.01.55.28.82.79.82v.47s-2.8.01-2.8.01v-.47c.51,0,.77-.25.77-.75l-.09-4.73-1.72,5.96h-.8s-1.92-5.9-1.92-5.9v4.53c-.01.6.28.9.86.9v.47s-2.2.01-2.2.01v-.47c.26,0,.47-.08.61-.25.14-.16.21-.41.22-.75l.05-4.94c0-.09,0-.17-.01-.24,0-.07-.04-.13-.1-.18-.06-.05-.14-.09-.26-.12-.08-.02-.19-.03-.31-.04l-.13,1.63h-.54c0-.42-.05-.75-.12-.98-.08-.23-.18-.4-.31-.52-.13-.12-.28-.2-.46-.23-.18-.04-.38-.07-.6-.09-.19-.02-.35,0-.46.06-.11.06-.18.15-.19.29l-.22,1.97c-.02.18.04.28.17.29.14.02.27.02.39,0,.12-.01.23-.05.33-.12s.19-.18.26-.33c.08-.15.14-.36.19-.63l.51.06-.33,3-.51-.06c.01-.26,0-.47-.02-.63-.02-.16-.07-.29-.13-.38-.06-.09-.15-.16-.26-.2-.11-.04-.24-.08-.4-.1-.2,0-.31.09-.33.27l-.23,2.1c-.04.36.16.56.6.61.36.04.65.04.87-.01.22-.05.41-.14.56-.27.15-.13.28-.31.39-.52.11-.22.22-.48.34-.78l.49.14-.5,2.3-5.11-.56.05-.47c.53.06.82-.13.86-.56l.55-4.99c.06-.56-.19-.88-.76-.94l.05-.49,5.05.55v.08s2.14,0,2.14,0l1.73,5.46,1.62-5.48h1.38s2.92-.36,2.92-.36l.06.49c-.42.05-.61.18-.59.38,0,.07.07.2.19.38l1.44,2.3.78-2.55c.02-.12.01-.27,0-.45-.02-.17-.26-.23-.72-.18l-.06-.49,2.12-.25.06.49c-.32.04-.53.19-.65.45Zm10.31,3.35c-.17.4-.42.74-.73,1.01-.32.28-.69.48-1.12.6-.41.12-.81.16-1.21.13-.4-.04-.77-.16-1.13-.38s-.68-.54-.97-.97c-.29-.42-.53-.96-.73-1.61-.2-.66-.29-1.25-.28-1.76,0-.52.1-.97.27-1.35.17-.38.42-.7.73-.96.32-.25.68-.44,1.1-.56.41-.12.82-.16,1.23-.11.41.05.8.18,1.16.41.36.23.69.55.99.96.29.41.53.92.71,1.53.18.62.27,1.18.25,1.7-.01.52-.11.97-.28,1.38Zm1.75.29l-.18-.44c.47-.19.6-.54.39-1.05l-1.82-4.45c-.23-.55-.59-.72-1.1-.51l-.19-.46,4.6-1.89.96,1.95-.51.28c-.19-.32-.37-.56-.54-.73-.17-.16-.35-.27-.52-.31-.17-.04-.36-.04-.56,0-.2.05-.41.12-.65.22-.29.12-.39.3-.3.54l.73,1.79c.09.21.27.27.54.15.14-.05.24-.12.31-.18.07-.07.12-.15.14-.25.02-.1.01-.23-.01-.37-.03-.15-.07-.33-.12-.55l.44-.18,1.13,2.75-.45.18-.11-.26c-.04-.08-.08-.17-.14-.27-.06-.09-.13-.17-.23-.24-.09-.06-.21-.1-.36-.1-.14,0-.32.03-.52.11-.1.04-.16.09-.18.15s0,.12.02.2l.77,1.87c.21.51.59.65,1.15.42l.18.44-2.88,1.18Zm11.45-6.2c-.05.27-.15.52-.31.74-.16.22-.37.41-.62.57-.19.11-.39.19-.59.24-.21.04-.42.03-.65-.04-.05.15-.1.29-.17.43-.07.14-.14.26-.23.38-.2-.19-.38-.39-.54-.61-.16-.21-.32-.45-.46-.69-.1-.17-.2-.33-.29-.5-.09-.17-.17-.34-.25-.52l.49-.3c.13.21.28.42.45.61.18.2.37.35.57.48.21.13.42.2.65.23.22.02.44-.03.66-.16.2-.12.35-.24.45-.38.1-.13.17-.28.19-.42.03-.15.02-.29-.02-.45-.04-.15-.1-.29-.18-.44-.14-.23-.29-.39-.48-.48-.18-.1-.4-.13-.67-.1-.39.05-.75.09-1.09.11-.34.02-.66,0-.96-.07-.3-.07-.58-.2-.84-.39-.26-.19-.5-.47-.72-.84-.17-.28-.27-.55-.32-.82-.05-.27-.05-.53,0-.77.05-.24.14-.46.29-.65.14-.19.32-.36.53-.48.19-.11.39-.18.62-.19.22-.02.46.04.7.18-.02-.16,0-.32.05-.46.06-.15.12-.27.21-.38.26.27.52.59.77.97.25.38.48.75.69,1.09l-.52.31c-.2-.23-.39-.44-.58-.62-.19-.18-.37-.32-.56-.42-.18-.1-.35-.16-.52-.18-.16-.01-.32.02-.46.11-.29.18-.47.39-.55.64-.07.25-.03.49.12.74.11.17.22.3.34.38.12.08.26.13.42.15.16.02.34.03.54,0,.2-.02.42-.04.67-.05.28-.02.55-.03.8-.03.25,0,.48.04.71.12.22.08.43.21.64.38s.41.44.61.77c.19.32.33.64.39.94.07.3.08.59.03.86Zm4.51-3.18c-.04.29-.13.56-.27.8-.14.24-.32.44-.56.61-.44.31-.86.5-1.27.57-.41.06-.82.02-1.2-.12-.39-.14-.76-.36-1.11-.67-.35-.31-.69-.69-1.01-1.13-.34-.47-.62-.93-.83-1.38-.21-.45-.33-.88-.37-1.29-.04-.41.02-.79.16-1.14.15-.36.41-.67.79-.94.11-.08.23-.15.37-.22.14-.07.28-.13.43-.18.15-.05.3-.08.46-.09.15-.01.3,0,.45.03-.05-.32,0-.61.16-.84.55.39,1.16,1.05,1.83,1.98l-.5.36c-.57-.54-1.06-.86-1.46-.98-.4-.12-.78-.05-1.13.2-.24.18-.39.39-.44.64-.05.25-.04.52.03.8s.2.59.38.9c.18.32.37.62.59.92.3.41.59.78.89,1.11.3.33.59.58.88.78.29.19.58.3.86.33.28.03.56-.05.82-.25.35-.25.55-.59.6-1,.05-.41-.04-.96-.27-1.63l.42-.08c.14.34.24.67.29,1,.05.32.05.63.01.93Zm1.31-.43l-.31-.36c.42-.35.48-.71.18-1.06l-3.2-3.77c-.39-.45-.8-.5-1.23-.13l-.32-.38,2.36-2.01.32.38c-.4.34-.41.74-.02,1.19l3.2,3.77c.3.35.66.35,1.08-.01l.31.36-2.37,2.01Zm10.27-10.33l-6.29-.29,2.47,2.03c.64.53,1.15.56,1.54.09l.37.3-1.4,1.71-.37-.3c.31-.38.15-.84-.49-1.37l-3.8-3.11c-.18-.15-.45-.02-.78.37l1.23,1.15-.34.42c-.33-.26-.61-.43-.84-.51-.23-.09-.43-.12-.6-.09-.17.03-.33.1-.47.21-.14.12-.29.25-.45.41-.14.14-.22.27-.24.39-.02.13,0,.24.11.33l1.4,1.41c.13.13.24.14.33.05.1-.1.19-.2.25-.3s.1-.21.11-.33c0-.12-.02-.26-.09-.41-.07-.16-.19-.33-.37-.54l.36-.36,2.13,2.14-.36.36c-.19-.17-.36-.29-.5-.38-.14-.08-.27-.13-.38-.13-.11,0-.22.02-.32.08-.1.06-.21.14-.33.25-.13.16-.12.3,0,.43l1.49,1.5c.25.26.54.23.85-.08.25-.25.43-.48.54-.69.1-.2.15-.4.14-.6,0-.2-.06-.41-.16-.63-.1-.22-.23-.47-.39-.76l.42-.29,1.48,1.83-3.64,3.62-.34-.34c.38-.37.41-.71.1-1.03l-3.54-3.56c-.4-.4-.8-.4-1.21,0l-.35-.35,3.6-3.58.02.02.99-1.2,5.62.31-2.25-1.84c-.59-.48-1.07-.49-1.45-.03l-.39-.32,1.39-1.7.38.32c-.34.42-.22.86.37,1.35l4.56,3.73-.11.3Zm2.85-4.36c-.04.27-.15.53-.31.77-.3.45-.63.77-.99.98-.37.2-.75.31-1.17.32-.41,0-.84-.07-1.28-.24-.44-.17-.89-.4-1.34-.7-.48-.32-.9-.66-1.26-1.01-.36-.35-.62-.71-.8-1.08-.18-.37-.26-.75-.25-1.13.01-.38.15-.77.41-1.16.08-.11.17-.23.27-.34.1-.12.22-.22.34-.32.12-.1.26-.18.4-.25.14-.07.28-.11.43-.12-.16-.29-.21-.57-.14-.85.65.18,1.45.58,2.41,1.21l-.34.52c-.72-.3-1.29-.44-1.71-.41-.42.03-.75.22-.98.58-.17.25-.23.5-.19.75.04.25.14.5.31.74.17.24.39.48.67.71.28.23.57.45.88.65.42.28.83.52,1.22.72.39.2.76.34,1.09.42.34.08.65.08.92,0,.27-.07.5-.25.69-.52.24-.36.31-.74.21-1.14-.09-.4-.37-.88-.82-1.44l.36-.22c.26.27.46.55.63.84.16.29.27.58.34.87.06.29.07.57.03.84Zm1.15-1.8l-.42-.22c.25-.47.18-.81-.21-1.01l-4.43-2.35c-.5-.26-.88-.14-1.15.36l-.44-.23,2.38-4.49,1.99.98-.2.5c-.39-.15-.71-.23-.95-.24-.24-.02-.44.01-.6.09-.16.08-.29.19-.39.35-.1.15-.21.33-.31.53-.09.17-.13.32-.12.45.01.13.08.22.2.29l1.75.93c.16.08.27.07.33-.05.07-.12.12-.25.15-.36.04-.12.04-.23.01-.35-.03-.12-.1-.24-.21-.37-.11-.12-.28-.26-.52-.4l.24-.45,2.67,1.42-.24.45c-.23-.11-.43-.18-.59-.21-.16-.04-.29-.04-.4-.02-.11.03-.2.08-.28.17-.08.08-.16.2-.24.33-.07.19-.03.32.13.41l1.87.99c.32.17.58.06.79-.33.17-.32.27-.59.31-.81s.02-.43-.04-.62c-.07-.19-.18-.37-.34-.55-.16-.18-.36-.38-.6-.61l.32-.4,1.95,1.32-2.41,4.54Zm3.35-6.58c-.14.16-.32.28-.54.35.05.15.09.3.12.45.03.15.04.3.04.44-.27-.04-.54-.09-.79-.17-.26-.08-.52-.17-.78-.28-.18-.07-.36-.15-.53-.24-.17-.08-.34-.17-.51-.27l.22-.53c.23.1.47.17.73.23.25.05.5.07.75.05.24-.02.46-.09.66-.2.19-.11.34-.29.44-.52.09-.21.13-.4.14-.57,0-.17-.03-.32-.1-.45-.07-.13-.16-.25-.28-.35-.12-.1-.25-.18-.41-.24-.24-.1-.47-.14-.67-.11-.21.03-.4.13-.59.32-.29.27-.56.51-.82.73-.26.22-.53.38-.82.51-.28.12-.59.18-.9.18-.32,0-.68-.08-1.07-.25-.3-.13-.55-.29-.75-.48-.2-.19-.35-.4-.46-.62-.1-.22-.16-.46-.16-.7,0-.24.05-.48.14-.71.08-.2.21-.37.38-.52.17-.14.39-.23.67-.26-.11-.12-.19-.25-.23-.41-.04-.15-.06-.29-.05-.43.37.06.77.17,1.19.33.43.16.83.31,1.21.47l-.24.56c-.3-.07-.57-.13-.83-.16-.26-.03-.49-.03-.7,0-.21.03-.38.08-.52.16-.14.08-.25.2-.31.36-.13.31-.15.59-.06.84.09.24.27.42.53.53.19.08.35.12.5.1.14,0,.29-.05.43-.13.14-.07.29-.18.44-.31.15-.13.32-.28.51-.44.22-.19.43-.35.63-.5.2-.15.41-.25.64-.32.22-.07.47-.09.74-.06.27.02.58.11.95.26.35.15.64.32.87.53.23.2.41.43.53.68.12.25.18.5.19.78,0,.27-.05.55-.17.83-.08.2-.2.38-.34.54Z"/>
      </g>
      <g id="CIRCLE">
        <g>
          <path class="cls-3" d="m69.4.12c38.19,0,69.27,31.08,69.27,69.28s-31.08,69.27-69.27,69.27S.12,107.6.12,69.4,31.2.12,69.4.12Zm68.38,69.28C137.78,31.69,107.11,1.01,69.4,1.01S1.01,31.69,1.01,69.4s30.68,68.38,68.39,68.38,68.38-30.68,68.38-68.38Z"/>
          <g>
            <path class="cls-3" d="m69.4,138.8C31.13,138.8,0,107.67,0,69.4S31.13,0,69.4,0s69.39,31.13,69.39,69.4-31.13,69.39-69.39,69.39ZM69.4.24C31.27.24.24,31.27.24,69.4s31.03,69.15,69.16,69.15,69.15-31.02,69.15-69.15S107.53.24,69.4.24Z"/>
            <path class="cls-3" d="m69.4,137.9C31.63,137.9.89,107.18.89,69.4S31.63.89,69.4.89s68.5,30.73,68.5,68.51-30.73,68.5-68.5,68.5Zm0-136.77C31.76,1.13,1.13,31.76,1.13,69.4s30.62,68.26,68.27,68.26,68.26-30.62,68.26-68.26S107.04,1.13,69.4,1.13Z"/>
          </g>
        </g>
      </g>
      <g>
        <path class="cls-3" d="m69.4,64.92c-2.47,0-4.48,2-4.48,4.48s2,4.48,4.48,4.48,4.48-2,4.48-4.48-2-4.48-4.48-4.48Z"/>
        <path class="cls-3" d="m103.37,65.82l7.05-11.77-11-8.27-20.09,3.89,3.96-11.48-6.67-11.99-12.67,5.39-6.68,19.35-7.96-9.17-13.72-.22-1.66,13.67,13.42,15.45-11.92,2.31-7.05,11.77,11,8.27,20.09-3.89-3.96,11.48,6.67,11.99,12.67-5.39,6.68-19.35,7.96,9.17,13.72.22,1.66-13.67-13.42-15.45,11.92-2.31Zm-36.27-14.18c1.47,0,2.67,1.2,2.67,2.67s-1.2,2.67-2.67,2.67-2.67-1.2-2.67-2.67,1.2-2.67,2.67-2.67Zm-14.59,12.21c0-1.47,1.2-2.67,2.67-2.67s2.67,1.2,2.67,2.67-1.2,2.67-2.67,2.67-2.67-1.2-2.67-2.67Zm4.97,17.77c-1.47,0-2.67-1.2-2.67-2.67s1.2-2.67,2.67-2.67,2.67,1.2,2.67,2.67-1.2,2.67-2.67,2.67Zm14.23,5.56c-1.47,0-2.67-1.2-2.67-2.67s1.2-2.67,2.67-2.67,2.67,1.2,2.67,2.67-1.2,2.67-2.67,2.67Zm7.2-19.77l-1.64-.03-1.16,9.22c0,.05-.04.09-.1.1-.05.01-.1-.02-.13-.06l-.79-1.44-8.56,3.61s-.03,0-.05,0c-.03,0-.07-.02-.09-.04-.03-.04-.04-.1-.01-.14l.85-1.4-7.41-5.61s-.06-.09-.04-.14.06-.08.12-.08l1.64.03,1.16-9.22c0-.05.04-.09.1-.1.05-.01.1.01.13.06l.79,1.44,8.56-3.61s.1,0,.14.03c.03.04.04.1.01.14l-.85,1.4,7.41,5.61s.06.09.04.13c-.02.05-.07.08-.12.08Zm-.25-7.55c0-1.47,1.2-2.67,2.67-2.67s2.67,1.2,2.67,2.67-1.2,2.67-2.67,2.67-2.67-1.2-2.67-2.67Zm4.97,17.77c-1.47,0-2.67-1.2-2.67-2.67s1.2-2.67,2.67-2.67,2.67,1.2,2.67,2.67-1.2,2.67-2.67,2.67Z"/>
      </g>
      <g id="CIRCLE-2" data-name="CIRCLE">
        <path class="cls-3" d="m69.4,115.06c-25.18,0-45.67-20.49-45.67-45.67s20.49-45.67,45.67-45.67,45.67,20.49,45.67,45.67-20.49,45.67-45.67,45.67Zm0-90.13c-24.52,0-44.46,19.94-44.46,44.46s19.95,44.46,44.46,44.46,44.46-19.94,44.46-44.46-19.95-44.46-44.46-44.46Z"/>
      </g>
      <g>
        <path class="cls-1" d="m23.17,50.43c-.35-.16-.68-.36-.99-.59-.12-.09-.24-.19-.34-.29-.24-.23-.49-.44-.76-.63-.14-.1-.27-.21-.38-.34-.09-.11-.17-.23-.23-.36-.05-.12-.16-.22-.28-.27-.17-.06-.33-.12-.49-.2-.14-.07-.25-.19-.3-.33-.03-.06-.06-.13-.09-.19-.05-.1-.1-.2-.14-.29-.08-.18-.15-.37-.21-.55-.05-.14-.05-.29,0-.44.06-.18.07-.37.03-.55-.02-.1-.06-.2-.11-.28-.03-.05-.07-.1-.12-.14-.08-.07-.1-.19-.06-.28.05-.12.04-.25-.02-.36-.04-.07-.08-.13-.12-.19-.04-.05-.12-.07-.17-.03,0,0-.01.01-.02.02-.1.11-.18.24-.23.38-.05.15-.06.31-.04.47.03.15.03.31.01.47-.01.09-.04.18-.08.27-.02.03-.05.06-.08.07-.08.03-.17,0-.2-.09-.06-.14-.15-.26-.28-.34-.11-.07-.18-.19-.19-.31-.01-.14-.04-.29-.06-.43-.02-.08-.05-.15-.1-.22-.13-.17-.18-.4-.13-.61.02-.1,0-.2-.05-.29-.06-.09-.08-.21-.07-.32.01-.13,0-.25-.04-.38-.03-.11-.08-.22-.13-.33-.09-.16-.12-.35-.08-.54.02-.11-.06-.22-.17-.24-.19-.04-.39-.02-.57.05-.26.1-.47.29-.57.55-.09.2-.15.41-.19.63-.06.3-.12.61-.18.91-.05.27-.09.54-.12.81-.02.12-.12.21-.24.2-.17-.02-.33-.08-.46-.18-.12-.09-.25-.18-.37-.28-.18-.15-.41-.23-.64-.23-.27,0-.54.1-.73.29-.1.1-.19.22-.24.35-.04.09-.15.14-.24.11-.09-.03-.18-.05-.27-.06-.18-.02-.34.1-.36.28,0,0,0,.02,0,.03,0,.04-.01.07-.04.1-.07.08-.11.18-.13.28-.05.22-.02.46.09.66.09.17.23.29.4.37.12.05.27.02.35-.09.05-.05.1-.1.16-.15.04-.03.09-.06.13-.09.18-.02.37.01.53.11.3.18.61.33.93.45.29.11.56.27.81.47.05.04.1.09.15.13.13.13.22.3.25.48.05.39.15.77.29,1.13.16.41.32.82.48,1.23.08.19.17.37.28.54.09.14.07.32-.05.44-.09.09-.19.17-.29.25-.14.11-.31.15-.48.13-.18-.02-.36-.04-.53-.06-.17-.02-.33-.06-.49-.13-.11-.05-.24-.08-.36-.08-.09,0-.19.03-.27.08-.04.03-.06.08-.04.13.11.24.27.44.46.61.12.11.27.19.42.24.27.09.56.14.85.15.14,0,.29.02.43.04.11.02.22.04.34.06.42.09.85.1,1.27.03.2-.03.38-.16.48-.34.11-.2.16-.44.14-.67-.01-.14-.06-.29-.12-.42-.09-.16-.24-.28-.42-.31-.2-.04-.38-.12-.54-.25-.1-.08-.17-.2-.19-.33-.02-.09-.02-.19-.02-.28,0-.09,0-.19-.04-.28-.03-.08-.08-.15-.14-.21-.08-.08-.11-.19-.09-.29.03-.18.08-.35.15-.52.05-.13.2-.2.33-.15.21.07.42.14.64.2.33.08.65.2.95.35.06.03.09.09.09.16-.01.11-.04.22-.08.32-.06.15-.14.3-.23.44-.06.09-.14.16-.23.2-.08.04-.12.11-.11.2,0,.07.05.14.11.18.12.07.25.12.39.12.18,0,.36-.04.52-.13.11-.06.2-.15.27-.26.06-.1.07-.22.03-.32-.03-.07-.04-.15-.02-.22.02-.07.06-.14.12-.18.09-.06.2-.06.29,0,.14.09.29.17.44.23.28.11.56.24.84.37.31.15.64.25.97.29.26.03.51.1.75.2.26.1.52.17.8.2.11.01.22.01.34,0,.07,0,.12-.07.11-.13,0-.03-.02-.06-.04-.08-.12-.12-.27-.22-.43-.29Zm-6.6-4.61s0,0,0,.01c-.01.03-.05.04-.07.03-.1-.04-.2-.09-.3-.12-.08-.03-.15-.07-.21-.12-.2-.09-.37-.24-.5-.41-.03-.04-.05-.07-.07-.11-.05-.09-.06-.2-.04-.3.03-.12.04-.24.02-.36-.01-.1,0-.2.02-.29.03-.1.09-.2.16-.27.06-.05.14-.07.21-.04.05.02.08.06.09.12.01.12.07.22.15.3.05.05.12.09.18.12.08.03.13.11.14.2,0,.07,0,.13-.02.2-.02.09,0,.19.04.27.03.05.06.09.11.12.09.06.13.16.13.27,0,.13-.01.25-.04.38Z"/>
        <path class="cls-1" d="m44,25.34c-.51-.8-1.07-1.56-1.69-2.28-.31-.36-.57-.77-.75-1.21-.1-.24-.23-.48-.38-.7-.2-.31-.42-.62-.66-.91-.44-.55-.83-1.14-1.17-1.76-.15-.28-.37-.52-.62-.7-.3-.21-.57-.46-.82-.72-.11-.11-.26-.17-.41-.15-.24.02-.47,0-.7-.08-.3-.1-.64-.05-.9.14-.35.25-.66.53-.94.86-.24.28-.46.56-.68.86-.26.35-.5.72-.72,1.09-.14.24-.23.49-.27.76-.08.47-.16.94-.25,1.4-.1.51-.13,1.03-.08,1.54.03.29.09.57.19.84.16.43.38.84.64,1.21.23.32.47.65.7.97.36.49.7.98,1.03,1.48.23.35.38.75.44,1.16.04.29.1.56.19.84.02.07.02.14,0,.21-.01.04-.05.06-.09.07-.05,0-.09-.02-.12-.06-.05-.08-.09-.15-.14-.23-.16-.27-.32-.54-.48-.81-.18-.29-.33-.59-.46-.91-.09-.22-.21-.43-.35-.62-.07-.09-.08-.21-.04-.31.03-.06.02-.14-.02-.19-.08-.12-.16-.23-.25-.33-.15-.17-.28-.36-.39-.56-.17-.33-.37-.64-.58-.95-.18-.26-.35-.52-.5-.79-.04-.08-.08-.17-.09-.26-.05-.26-.24-.47-.5-.54-.04,0-.08.01-.09.05,0,.01,0,.02,0,.03.04.25.13.5.27.71.07.11.14.23.21.34.24.41.47.82.67,1.25.4.82.82,1.62,1.27,2.41.41.73.82,1.47,1.22,2.22.18.34.43.64.74.87.12.09.25.16.39.22.1.04.22,0,.26-.11.11-.24.12-.52.03-.77-.05-.13-.1-.27-.15-.4-.03-.08-.06-.17-.09-.26-.04-.14-.07-.27-.1-.41-.09-.44-.21-.87-.35-1.3-.05-.14-.08-.28-.11-.43,0-.04.02-.08.05-.09.05-.02.11,0,.15.04.04.04.07.08.11.11.16.14.33.26.51.37.33.2.69.34,1.06.41.47.1.95.14,1.43.14.49,0,.98-.07,1.45-.18.41-.1.78-.3,1.08-.59.33-.32.72-.59,1.14-.78.21-.1.4-.21.59-.34.22-.15.41-.35.55-.57.1-.16.15-.36.12-.55-.01-.1-.06-.19-.14-.25-.16-.14-.3-.31-.41-.49Zm-5.79,1.07c-.06.06-.11.13-.14.21-.07.19-.09.39-.06.58.04.21.07.43.09.64.01.11,0,.22-.02.33-.02.06-.06.11-.11.14-.1.05-.22.04-.31-.02-.23-.15-.47-.27-.73-.34-.32-.1-.62-.28-.85-.53-.37-.4-.75-.78-1.15-1.16-.28-.26-.54-.54-.78-.84-.07-.09-.14-.18-.19-.27-.09-.15-.11-.32-.06-.48.07-.23.1-.47.07-.71-.02-.14-.02-.28-.02-.42,0-.09-.06-.18-.15-.21-.1-.29-.16-.6-.18-.91,0-.12.02-.23.09-.33,0,0,.01-.01.02-.02.03-.02.08-.02.11.02.07.1.11.2.11.32.01.17.03.33.03.5,0,.09,0,.18.01.27,0,.06.04.11.1.12.13.03.26.02.39-.02.05-.02.11,0,.16.02.2.15.37.34.48.56.06.12.08.27.03.4-.02.08-.08.14-.15.18-.09.05-.13.15-.11.25.01.06.05.12.1.16.09.06.15.15.19.25.02.04.07.06.11.05.08-.04.17-.04.24,0,.11.04.2.12.26.23.02.04.05.06.09.08.12.05.18.18.14.3-.04.12-.08.24-.11.36-.04.12-.06.23-.07.36,0,.06,0,.12.02.17.03.09.1.16.19.18.11.03.21.09.3.16.12.11.3.14.45.08.11-.04.23-.06.35-.06.13,0,.24-.1.25-.23.01-.21.05-.42.11-.63.04-.13.11-.24.22-.32.09-.07.2-.09.31-.07.08.02.15.05.21.1.08.07.12.17.09.27-.03.11-.08.2-.16.28Zm-1.32-2.56c-.02-.08,0-.16.08-.21.05-.04.11-.05.16-.03.04,0,.08.03.12.05.09.06.16.14.21.24.04.09.08.19.09.29.02.14,0,.29-.07.41-.03.07-.09.12-.15.16,0,0,0,0,0,0-.14.08-.32.04-.4-.1-.05-.09-.1-.18-.15-.28-.03-.06-.02-.14.03-.19.09-.09.12-.22.09-.35Zm-.05,1.88c0,.06-.01.11-.02.17,0,.07-.04.14-.1.18-.05.04-.12.05-.18.03-.03,0-.06-.02-.09-.04-.03-.02-.04-.06-.03-.1.03-.09.04-.19.01-.29-.02-.08.01-.16.08-.2s.15-.04.22,0c.08.06.12.16.11.25Zm-.38-2.75c-.08.05-.16.08-.25.09-.04,0-.08,0-.1-.04-.05-.09-.06-.2-.03-.29.04-.12.15-.21.28-.23.07,0,.14.03.18.09.04.06.05.13.04.21-.01.07-.06.13-.12.17Zm6.73,3.33c-.28.2-.54.42-.79.66-.24.22-.49.43-.75.62-.17.12-.33.25-.49.39-.17.15-.38.27-.59.35-.31.11-.63.18-.96.21-.19.02-.39,0-.58-.03-.04,0-.09-.03-.12-.05-.13-.09-.17-.28-.07-.41.15-.21.34-.39.57-.53.18-.11.35-.21.53-.32.29-.18.55-.42.75-.7.11-.16.13-.37.04-.54-.09-.16-.18-.32-.29-.48-.17-.25-.35-.48-.56-.7-.13-.14-.19-.34-.16-.53.03-.15.04-.31.04-.46,0-.12.06-.24.17-.31.11-.07.21-.16.28-.26.13-.16.2-.36.22-.57,0-.12-.01-.24-.06-.35-.07-.15-.24-.23-.4-.19-.21.05-.42.1-.62.17-.23.07-.39.26-.44.49-.03.15-.07.3-.12.45-.02.05-.06.09-.12.09-.1,0-.17.09-.17.19,0,.04.01.07.04.1.12.15.21.33.27.52.06.2.06.42-.01.62-.06.17-.17.31-.32.41-.07.05-.15.08-.23.09-.02,0-.05,0-.07,0-.11-.02-.18-.13-.16-.24.04-.19.1-.36.19-.53.1-.18.14-.39.1-.6-.04-.24-.16-.47-.34-.64-.22-.21-.42-.43-.59-.67-.05-.07-.13-.11-.22-.11-.12,0-.24-.04-.34-.12-.2-.15-.38-.33-.54-.52-.11-.13-.17-.3-.14-.48.01-.09-.05-.18-.14-.19-.21-.04-.42.07-.52.26-.06.12-.18.2-.31.21-.33.03-.67,0-1-.06-.08-.02-.13-.09-.12-.17-.12-.2-.13-.45-.04-.66.08-.19.17-.37.27-.54.23-.41.46-.82.67-1.24.17-.33.4-.62.68-.87.2-.17.42-.31.65-.41.19-.09.42-.09.61-.01.1.04.18.1.26.17.23.23.49.42.78.57.38.19.71.46,1,.78.28.31.56.63.83.96.25.29.44.63.56,1,.07.23.19.44.35.62.35.4.64.85.87,1.33.05.11.1.22.14.34.08.22.2.43.34.62.3.4.62.79.96,1.15.21.22.34.51.38.81.01.14-.04.27-.16.35Zm-4.13-.65c-.02-.11.03-.22.13-.28.07-.04.16-.04.24,0,.09.04.14.12.15.22,0,.15,0,.29-.02.44-.02.15-.02.29,0,.44,0,.06-.03.12-.09.15-.12.04-.23.1-.33.17-.05.04-.1.07-.15.11-.03.03-.07.02-.1,0-.02-.03-.03-.07-.03-.1-.04-.24,0-.48.13-.69.08-.13.11-.29.08-.45Z"/>
        <path class="cls-1" d="m67.71,12.85c.16-.04.31-.14.42-.26.11-.13.24-.26.38-.36.08-.07.13-.16.13-.26,0-.08-.05-.15-.12-.17-.08-.03-.16-.06-.23-.11-.16-.11-.33-.2-.51-.27-.14-.05-.29-.11-.43-.17-.08-.03-.17,0-.21.07-.06.1-.12.2-.17.29-.07.12-.08.27-.02.39.02.04.02.1,0,.14-.05.11-.13.21-.23.28-.08.06-.17.1-.26.13-.15.05-.31.07-.48.05-.27-.03-.54-.03-.81,0-.1.01-.21,0-.29-.06-.07-.04-.11-.13-.09-.21.02-.1.08-.19.15-.26.1-.09.2-.18.29-.27.37-.35.7-.74.97-1.17.11-.17.26-.3.44-.38.22-.1.4-.26.52-.47.07-.13.13-.27.18-.4.07-.19.23-.34.44-.38.25-.05.49-.14.71-.27.08-.05.12-.13.12-.22,0-.1-.05-.2-.13-.26-.11-.09-.22-.19-.31-.3-.13-.16-.31-.28-.5-.35-.11-.04-.24-.04-.35,0-.11.04-.21.12-.28.21-.09.13-.12.28-.09.43.05.24-.03.49-.21.66-.18.16-.35.33-.5.51-.32.39-.65.78-.97,1.16-.28.34-.56.67-.85,1-.21.24-.45.44-.74.58-.12.06-.19.18-.18.31,0,.15,0,.29-.03.44-.01.09-.04.17-.07.25-.06.14-.04.31.05.44.08.11.22.14.34.07.11-.06.18-.17.21-.29.02-.08.08-.14.16-.14.12-.01.25-.01.38,0,.44.04.88.04,1.32,0,.07,0,.14,0,.19.05.08.06.17.11.26.14.08.03.13.1.14.17.01.07.03.14.04.21.06.29.05.58-.03.87-.04.14-.1.27-.19.38-.09.12-.19.22-.3.33-.01.02-.03.03-.05.04-.12.07-.27.03-.34-.09-.07-.11-.11-.24-.13-.37-.03-.16-.02-.31.01-.47.02-.09,0-.19-.06-.27-.03-.04-.09-.05-.13-.02,0,0,0,0,0,0-.04.04-.09.09-.13.13-.13.13-.25.28-.35.44-.08.12-.2.21-.35.25-.14.03-.26.14-.32.28-.09.23-.11.48-.06.72.04.2.02.4-.06.58-.06.15-.05.32.04.46.07.1.17.18.29.21.18.06.37-.01.47-.17.08-.13.16-.25.25-.38.06-.1.15-.17.26-.22.11-.05.21-.13.29-.22.09-.11.22-.19.36-.22.09-.02.19-.02.28.02.08.03.14.09.16.17.08.22.13.45.14.68.01.19.05.37.12.54.06.16.18.28.34.35.15.06.31.1.47.1.14,0,.26-.08.31-.21.06-.19.07-.4,0-.59-.06-.2-.11-.41-.16-.61-.07-.29-.12-.58-.15-.87-.04-.32.01-.64.15-.93.07-.14.14-.28.21-.42.1-.18.24-.34.41-.46.14-.09.22-.25.21-.41,0-.08-.04-.15-.11-.18-.11-.06-.24-.04-.33.05-.08.08-.14.17-.18.28,0,0,0,.01,0,.02-.06.11-.2.15-.32.09-.07-.04-.1-.11-.08-.18.03-.13.06-.26.09-.39.03-.12.12-.21.23-.24Z"/>
        <path class="cls-1" d="m73.8,12.95c-.17-.2-.34-.4-.51-.6-.06-.07-.09-.15-.1-.24-.01-.2-.01-.39,0-.59.01-.17.03-.33.07-.49.06-.28.1-.56.13-.85.02-.19.03-.38.03-.57,0-.15,0-.31,0-.46,0-.12-.09-.22-.21-.23-.07,0-.14-.03-.19-.07-.05-.04-.09-.09-.11-.16-.03-.12-.04-.25-.02-.38.02-.12-.04-.23-.14-.28-.11-.06-.25-.02-.32.09-.06.1-.14.18-.24.24-.09.05-.18.1-.28.14-.07.03-.13.06-.21.08-.09.03-.17.09-.23.17-.04.06-.07.12-.1.18-.03.08-.05.16-.07.25-.02.11-.09.21-.2.25-.11.04-.23.05-.35.02-.08-.02-.14-.06-.2-.12-.02-.03-.03-.06-.02-.09.01-.04,0-.08-.02-.12-.03-.04-.07-.06-.11-.06-.09,0-.18,0-.27-.04-.08-.03-.17,0-.22.06-.03.03-.06.07-.09.12-.06.11-.05.25.02.35.15.19.28.38.39.59.02.04.02.09.03.14,0,.07,0,.14-.02.21-.04.1-.08.2-.13.29-.09.18-.25.31-.44.35-.09.02-.14.11-.12.19,0,0,0,.02,0,.03.04.1.06.2.07.3,0,.14.02.29.05.43.04.16.09.31.17.46.03.06.03.14-.02.2-.15.18-.26.38-.34.6-.08.22-.21.42-.39.58-.11.1-.19.22-.23.35-.04.12-.08.24-.11.36-.05.18-.11.35-.19.51-.09.17-.1.37-.04.55.02.08.06.14.12.2.09.09.23.12.35.09.13-.04.25-.12.34-.22.13-.16.29-.3.46-.41.07-.04.16-.05.23-.02.11.04.24.01.32-.08.07-.08.14-.16.22-.23.09-.09.18-.16.29-.23.06-.04.15-.04.21.01.05.04.1.1.13.16.07.14.07.31-.01.44-.05.08-.08.17-.09.27-.02.14-.02.28,0,.42.02.2.02.39-.01.58-.03.18-.03.36,0,.53.1.71.11,1.42.01,2.13-.07.5-.1,1-.09,1.5,0,.04.04.08.08.08.01,0,.03,0,.04-.01.16-.1.28-.25.32-.44.08-.36.16-.71.24-1.06.07-.31.17-.62.3-.91.25-.6.48-1.2.67-1.82.05-.15.06-.31.03-.46-.04-.24-.06-.48-.05-.72,0-.27.05-.54.13-.8.04-.11.1-.21.19-.29.15-.14.33-.25.53-.33.13-.05.24-.13.32-.24.05-.07.11-.13.19-.18.06-.04.1-.12.1-.2,0-.08-.03-.15-.08-.21-.07-.1-.15-.19-.23-.29Zm-2.54.06c-.02.16-.01.32.01.48.02.1.01.21-.02.31-.04.11-.15.19-.26.18-.09,0-.17,0-.26,0-.11,0-.23.02-.34.02-.08,0-.15.07-.17.15-.01.07-.01.13,0,.2h0s-.03.08-.08.08c-.05,0-.11,0-.16-.03-.03,0-.04-.04-.04-.07.01-.07,0-.14-.03-.21-.02-.03-.02-.07,0-.09.03-.04.06-.07.1-.1.13-.14.26-.28.39-.43.18-.2.32-.43.42-.69.05-.13.14-.24.26-.32.05-.03.11-.03.16,0,.03.02.05.05.06.08,0,.04.01.09,0,.13-.01.1-.03.2-.04.3Zm.29-.71s-.03.08-.06.1c-.03.02-.08.02-.11,0-.08-.08-.13-.18-.15-.29-.08-.14-.14-.29-.17-.45,0-.04-.03-.07-.05-.1-.07-.08-.13-.18-.17-.28-.03-.08-.02-.17.03-.24.04-.05.06-.11.08-.17.03-.11.07-.21.12-.31.05-.1.14-.18.24-.23.06-.03.13-.04.2-.03.04,0,.07.04.08.08.06.63.05,1.28-.02,1.91Z"/>
        <path class="cls-1" d="m100.59,18.46c.07.2.24.34.45.38.22.04.44,0,.63-.11.22-.13.39-.34.48-.59.08-.24.12-.5.1-.75-.02-.49.03-.98.15-1.46.01-.05,0-.11-.05-.14-.04-.04-.1-.03-.14,0,0,0,0,.01-.01.02-.53.13-.99.48-1.24.96-.15.29-.3.57-.46.86-.06.12-.08.25-.04.38.04.15.09.3.14.45Z"/>
        <path class="cls-1" d="m103.51,19.63c0,.09.05.17.14.2.19.05.39.02.57-.08.12-.07.26-.1.4-.09.32.02.65.03.97.03.17,0,.33,0,.5-.02.04,0,.07-.03.08-.07.02-.08-.02-.17-.09-.21-.15-.1-.33-.14-.51-.12-.22.03-.45-.03-.64-.15-.07-.04-.11-.11-.12-.18-.01-.06-.02-.13-.02-.19s-.05-.11-.11-.11c-.01,0-.03,0-.04,0-.06.03-.13,0-.17-.05-.02-.03-.03-.07-.02-.11,0-.13,0-.26.03-.39.01-.09-.03-.17-.11-.21-.09-.04-.2-.04-.29,0-.11.06-.21.14-.29.23-.1.12-.18.24-.25.38-.07.14-.09.3-.06.45.04.23.05.46.03.68Z"/>
        <path class="cls-1" d="m107.28,20.67c.04-.19.03-.38-.02-.56-.03-.11-.12-.19-.24-.2-.08,0-.14-.08-.13-.16,0-.05-.03-.1-.08-.1-.01,0-.02,0-.03,0-.16.04-.29.15-.35.3-.1.21-.24.39-.42.54-.12.09-.26.15-.41.15-.25,0-.49,0-.74,0-.22,0-.44-.03-.66-.08-.12-.03-.25-.04-.38-.02-.24.04-.48.05-.72.03-.49-.03-.97-.09-1.45-.18-.15-.03-.29-.08-.42-.14-.17-.09-.36-.14-.55-.15-.2-.01-.4.04-.56.16-.09.06-.2.08-.31.05-.14-.05-.22-.19-.2-.34.01-.07.02-.14.01-.21,0-.07-.05-.14-.11-.17-.09-.04-.18-.07-.28-.09-.1-.02-.19.05-.21.14,0,.01,0,.02,0,.04,0,.06-.05.11-.11.11-.04,0-.09,0-.13,0-.05,0-.1,0-.14-.04-.04-.04-.09-.08-.14-.11-.04-.03-.1-.04-.14,0-.06.04-.11.08-.16.12-.08.08-.16.16-.24.25-.12.13-.19.31-.17.48-.02.08-.05.15-.11.21-.1.1-.2.2-.3.29-.17.16-.32.35-.43.55-.08.14-.15.29-.23.43-.08.14-.02.33.12.4.02.01.04.02.07.03.11.03.22.03.34.02.13-.02.26-.08.36-.17.12-.12.27-.2.43-.24.14-.03.27-.05.41-.06.35-.03.66-.21.85-.5.13-.21.34-.36.58-.43.41-.12.84-.14,1.26-.05.33.07.67.14,1,.21.25.06.5.14.74.26.19.09.34.24.44.43.06.12.12.26.16.39.06.16.02.35-.08.48-.06.08-.1.17-.12.27-.01.06,0,.13.04.19.03.05.04.1.03.15-.03.12-.11.23-.23.28-.11.04-.18.13-.21.25-.03.14-.14.25-.28.28-.08.02-.17,0-.25-.03-.11-.05-.24-.08-.37-.08-.09,0-.17.04-.23.11-.06.07-.05.17.02.23.01.01.03.02.05.03.09.03.18.09.24.17.07.09.17.15.28.17.19.03.38,0,.56-.06.2-.09.39-.2.57-.34.15-.12.25-.29.3-.47.02-.08.07-.15.14-.2.19-.14.31-.36.3-.6,0-.24,0-.49.02-.73.02-.22-.01-.45-.08-.67-.03-.07-.01-.16.03-.22.05-.07.13-.11.21-.12.38,0,.76-.02,1.13-.02.11,0,.21.05.28.14.08.11.21.17.34.19.17.02.33.06.48.13.14.07.32,0,.39-.13,0,0,0-.02.01-.03.03-.09.1-.17.18-.23.11-.07.15-.21.1-.34-.05-.12-.07-.25-.04-.38Z"/>
        <path class="cls-1" d="m100.92,23.37c-.16-.22-.38-.41-.63-.53-.23-.12-.47-.22-.71-.3-.17-.06-.35-.1-.53-.11-.13,0-.27,0-.4.03-.08.02-.15.04-.23.06-.09.04-.15.13-.16.23-.05.12-.02.25.05.34.08.09.19.15.31.17.18.03.34.12.45.27.11.15.22.3.33.45.06.08.13.16.22.21,0,0,.01.01.02.02.08.07.09.19.02.27-.1.12-.24.19-.39.22-.2.04-.38.13-.53.28-.13.12-.28.23-.43.32-.11.06-.17.19-.15.32.02.12.09.22.19.29.07.05.12.12.15.2.04.15-.03.32-.18.38-.14.07-.31.08-.46.04-.28-.08-.55-.19-.81-.3-.39-.18-.75-.42-1.06-.72-.25-.24-.5-.48-.76-.72-.07-.07-.11-.17-.09-.27,0-.06.02-.11.04-.17.04-.12-.03-.24-.15-.28-.11-.03-.22-.05-.33-.05-.15,0-.3.04-.44.1-.1.04-.17.12-.22.21-.04.08-.04.18,0,.27.05.09.08.19.1.3.02.08.08.15.16.17.07.02.14.06.19.11.07.07.15.14.23.19.35.24.68.49,1,.76.23.2.49.38.76.53.27.15.56.28.86.39.15.05.26.2.27.36,0,.14-.04.27-.14.37-.15.15-.32.27-.52.35-.3.12-.63.12-.93,0-.32-.14-.61-.35-.84-.61-.22-.24-.44-.49-.66-.73-.13-.14-.27-.28-.41-.42-.04-.04-.1-.06-.16-.05-.05,0-.09.04-.1.09-.03.13-.03.27,0,.4.02.14.07.27.15.39.12.2.26.38.42.55.22.24.45.47.71.67.23.19.47.37.7.55.1.08.23.11.35.07.22-.06.45-.11.67-.16.23-.05.44-.14.63-.28.23-.17.48-.32.73-.47.06-.04.12-.09.16-.15,0,0,0-.01.01-.02.05-.06.14-.06.2-.01.1.09.19.18.29.27.15.14.31.27.48.39.1.07.22.12.34.15.14.03.28.08.41.15.09.04.17.09.24.16.06.05.15.05.21,0,.06-.06.09-.16.06-.25-.03-.09-.06-.17-.09-.26-.02-.06-.07-.11-.13-.13-.08-.03-.16-.04-.25-.04,0,0-.02,0-.02,0-.03,0-.05-.04-.04-.08.03-.1.01-.2-.05-.29-.04-.06-.08-.12-.12-.17-.04-.05-.09-.09-.15-.11-.16-.05-.32-.06-.48-.05-.09,0-.19,0-.28-.03-.07-.02-.12-.1-.11-.17.02-.13.02-.26.02-.39,0-.1.03-.19.1-.26.12-.12.19-.28.18-.44,0-.18.02-.35.05-.53.03-.17.12-.33.24-.46.11-.11.23-.19.37-.24.16-.06.33-.12.5-.17.12-.03.23-.09.32-.17.08-.06.15-.12.22-.19.07-.07.13-.14.19-.22.11-.15.14-.34.09-.51-.05-.19-.14-.37-.26-.54Z"/>
        <path class="cls-1" d="m115.92,42.88c.06-.12.18-.21.31-.26.23-.08.42-.27.5-.5.04-.09.12-.15.22-.14h.21c.1,0,.18-.07.21-.16.04-.1.07-.2.09-.3.03-.13.11-.26.21-.34.04-.04.1-.04.14,0,.06.04.11.11.13.19.07.24,0,.51-.16.7-.08.09-.1.22-.05.33.04.12.08.22.13.33.05.13.19.21.33.19.13-.03.28-.02.42.02.26.06.54-.02.72-.21.16-.15.33-.3.51-.45.15-.12.26-.3.29-.48.05-.22.13-.43.25-.62.12-.2.27-.38.45-.54.13-.12.34-.14.5-.05.16.09.37.06.5-.07.11-.11.2-.23.26-.38.08-.18.05-.39-.07-.54-.13-.16-.28-.29-.45-.41-.12-.09-.19-.23-.17-.38.02-.18-.06-.35-.21-.46-.13-.08-.29-.12-.44-.12-.18,0-.36.06-.51.17-.18.14-.3.35-.33.57-.02.12,0,.24.04.36.04.16.16.29.31.38.1.04.13.16.09.26-.06.12-.14.22-.25.31-.15.13-.29.27-.43.42-.1.1-.16.22-.2.36-.03.09-.11.16-.2.17-.09,0-.17.04-.24.1-.08.06-.14.13-.21.21-.06.09-.2.11-.29.04-.15-.11-.23-.3-.19-.49.04-.14.04-.29,0-.45-.08-.25-.21-.47-.4-.65-.15-.14-.36-.19-.54-.12-.15.05-.31.08-.47.08-.24,0-.48.04-.72.09-.19.05-.37.09-.55.13-.18.04-.36.06-.54.07-.19,0-.37.04-.54.09-.22.06-.43.19-.59.36-.09.1-.21.14-.34.12-.15-.03-.31-.03-.46,0-.23.04-.46.14-.64.29-.23.18-.38.45-.4.73-.02.27-.15.51-.36.68-.17.12-.28.32-.3.53-.03.19.04.38.16.52.1.11.17.23.22.37.06.14.21.21.36.16t.02,0c.12-.06.25-.12.38-.15.23-.06.45-.17.63-.31.15-.12.35-.18.54-.16.22.03.46-.02.66-.12.25-.13.54-.18.81-.13.26.04.52-.08.65-.3Z"/>
        <path class="cls-1" d="m125.8,43.64c-.08-.08-.1-.2-.08-.31.04-.19.03-.38-.04-.57-.03-.09-.09-.16-.17-.22-.06-.04-.14-.03-.18.03,0,0,0,.01-.01.02-.05.1-.09.21-.13.32-.02.05-.05.1-.08.15-.05.06-.09.11-.13.17-.1.13-.18.27-.26.42.02.03.01.06,0,.08-.03.03-.07.03-.1,0-.05-.05-.11-.09-.17-.13-.13-.08-.31-.05-.41.07-.09.11-.12.25-.08.39.03.13.16.21.29.19.12-.02.25.04.32.14.05.08.11.15.17.23.08.1.17.19.28.27.16.12.35.16.55.13.13-.02.23-.11.28-.23.06-.15.1-.31.12-.47.01-.1.02-.2,0-.31,0-.14-.06-.27-.16-.38Z"/>
        <path class="cls-1" d="m124.2,45.79c-.41-.33-.84-.63-1.29-.9-.25-.15-.49-.32-.72-.51-.14-.12-.32-.2-.52-.21-.08,0-.16-.06-.18-.15,0-.02,0-.05,0-.07.01-.12.12-.21.25-.2.13-.1.29-.14.45-.11.09.02.19.01.28-.02.11-.04.2-.11.27-.2.05-.06.09-.12.12-.19.04-.06.04-.14,0-.2-.04-.08-.12-.12-.21-.12-.12,0-.24,0-.36,0-.24.02-.48,0-.71-.05-.16-.04-.32-.04-.48,0-.2.05-.4.04-.59-.02-.16-.05-.34.01-.44.16-.08.12-.2.22-.34.28-.26.1-.47.29-.62.53-.09.15-.09.34,0,.49.06.09.14.17.23.23.11.07.24.11.37.13.16.02.33-.02.47-.11.09-.05.2-.05.29,0,.12.07.26.12.4.15.14.02.27.09.38.19.08.07.17.12.27.14.13.03.25.07.37.12.12.05.23.12.32.22.13.14.31.22.5.22.08,0,.15.03.21.07.15.12.29.23.44.35.17.14.34.26.53.37.13.08.25.18.35.3.03.04.05.09.05.14,0,.12-.05.22-.14.3-.09.07-.19.13-.29.19-.07.04-.13.09-.18.16-.08.1-.21.14-.33.1-.13-.05-.25-.12-.37-.19-.41-.26-.82-.52-1.24-.78-.1-.06-.19-.12-.29-.17-.08-.04-.16-.07-.25-.08-.09-.02-.15-.09-.15-.18,0-.1,0-.19-.02-.28-.02-.08-.06-.16-.12-.21-.06-.06-.11-.12-.15-.2-.05-.11-.08-.23-.07-.36,0-.07-.03-.14-.08-.18-.06-.04-.13-.07-.2-.07-.05,0-.11,0-.16.03-.08.04-.11.13-.08.21.04.11.05.23.03.35-.02.09-.07.16-.14.21-.14.1-.33.11-.48.03-.16-.08-.32-.17-.48-.25-.21-.12-.47-.12-.68-.01-.13.07-.24.18-.31.32-.07.15-.14.3-.21.45-.04.1-.15.15-.25.12-.24-.07-.48-.13-.72-.19-.34-.08-.69-.03-.99.14-.13.07-.27.1-.41.1-.07,0-.14.02-.2.05-.04.03-.07.07-.08.12-.02.08.01.16.07.21.25.21.5.41.75.61.3.24.67.38,1.06.41.28.02.55.04.83.05.08,0,.15.07.16.15.01.1-.04.2-.13.25-.05.03-.11.05-.17.06-.23.05-.47.06-.7.03-.17-.02-.34,0-.5.04-.12.03-.23.08-.34.14-.21.11-.38.27-.51.47-.09.15-.21.29-.36.4-.14.11-.23.26-.25.43-.02.11.02.22.11.29.14.13.3.23.47.3.26.11.48.31.61.56.12.22.23.44.33.67.06.13.08.28.07.42,0,.13.04.26.13.35.1.11.2.22.28.34.06.09.16.15.26.18.1.03.21,0,.29-.06.1-.08.16-.21.14-.35-.02-.15-.02-.29,0-.44,0-.1.04-.19.09-.26.05-.07.13-.12.22-.14.17-.02.33-.12.43-.26.07-.1.1-.22.08-.34-.02-.12-.04-.24-.07-.36-.01-.04-.05-.07-.09-.06-.11.01-.22.04-.32.1-.17.08-.32.19-.46.31-.08.07-.19.09-.28.05-.16-.06-.28-.18-.36-.33-.07-.15-.13-.31-.18-.47-.05-.18-.17-.34-.34-.43-.09-.05-.14-.13-.15-.23-.01-.18.1-.35.27-.41.26-.09.53-.18.79-.28.26-.1.53-.15.81-.16.12,0,.24-.04.35-.11.22-.14.41-.33.56-.55.06-.08.14-.14.24-.17.13-.03.27.02.35.13.11.15.25.27.42.35.12.06.25.12.38.17.07.03.15,0,.18-.08,0-.02.01-.03.01-.05,0-.1.05-.2.14-.26.09-.06.14-.18.12-.28-.02-.08-.07-.14-.14-.18-.18-.09-.36-.18-.55-.25-.15-.06-.27-.18-.33-.33-.05-.11-.12-.21-.21-.29-.11-.09-.24-.16-.38-.19-.15-.03-.28-.11-.37-.23-.05-.07-.1-.14-.15-.21-.06-.09-.06-.2-.02-.3.02-.05.06-.1.12-.13.1-.07.24-.06.34,0,.23.18.47.34.72.48.21.12.39.31.51.53.06.12.16.22.28.28.15.08.33.1.49.05.14-.04.29,0,.39.11.3.31.65.55,1.04.71.25.1.5.2.75.29.11.04.24.03.35-.02.16-.08.33-.14.5-.18.14-.03.27-.08.39-.16.24-.15.41-.38.48-.65.08-.27,0-.56-.21-.75-.28-.25-.56-.5-.85-.74Z"/>
        <path class="cls-1" d="m37.86,20.58c-.17-.08-.35-.14-.53-.18-.2-.04-.41-.07-.62-.07h-.04s-.03,0-.05,0c.1.16.13.35.09.53-.02.06,0,.13.06.17.11.09.17.23.17.37,0,.06,0,.12,0,.19.09,0,.17,0,.26,0s.17,0,.26,0c.15,0,.3,0,.45,0,.06,0,.12-.05.14-.11.06-.14.1-.29.14-.42.02-.08,0-.16-.04-.23-.08-.11-.18-.19-.29-.24Z"/>
      </g>
    </g>
    <g>
      <path class="cls-2" d="m39.55,173.02v10.03h-.53v-.5c0-.75-.08-1.27-.24-1.56-.16-.28-.38-.48-.65-.6-.28-.12-.97-.18-2.08-.18h-9.52c-1.74,0-2.89.13-3.45.39-.56.26-1.03.7-1.41,1.3-.37.6-.56,1.36-.56,2.28,0,1.05.24,1.95.71,2.69.47.74,1.13,1.29,1.96,1.66.83.37,2.28.55,4.34.55h7.93c.87,0,1.49-.09,1.86-.27.37-.18.63-.41.77-.69.22-.43.33-1.04.33-1.82h.53v6.72h-.53v-.4c0-.54-.11-1-.33-1.36-.22-.36-.55-.63-.99-.79-.31-.12-.86-.19-1.65-.19h-7.38c-2.28,0-3.93-.15-4.94-.45-1.01-.3-1.95-1.03-2.79-2.2-.85-1.17-1.28-2.76-1.28-4.77,0-1.68.22-2.98.67-3.9.61-1.25,1.4-2.14,2.35-2.65.96-.52,2.24-.77,3.86-.77h9.52c1.12,0,1.81-.06,2.09-.19.27-.12.49-.34.65-.65.16-.31.24-.87.23-1.69h.53Z"/>
      <path class="cls-2" d="m33.51,200h-1.73c.75.69,1.29,1.35,1.63,1.98.34.63.51,1.31.51,2.04,0,.87-.24,1.59-.72,2.16-.48.57-1.08.96-1.8,1.15-.54.15-1.59.23-3.14.23h-5.22c-1.03,0-1.67.09-1.93.28-.25.19-.41.58-.48,1.17h-.52v-6.78h.52c.07.51.28.87.63,1.09.24.15.83.23,1.78.23h5.96c1.1,0,1.79-.04,2.08-.13.29-.09.51-.23.67-.44.16-.21.24-.43.24-.68,0-.82-.59-1.59-1.76-2.29h-7.18c-1,0-1.64.09-1.9.28-.27.19-.44.53-.5,1.04h-.52v-6.78h.52c.06.56.24.97.54,1.2.21.16.83.24,1.86.24h7.57c1.01,0,1.64-.09,1.89-.28.25-.19.41-.58.49-1.17h.53v5.46Z"/>
      <path class="cls-2" d="m33.51,216.08h-10.62c-.95,0-1.55.11-1.81.33-.26.22-.41.65-.45,1.29h-.52v-7.24h.52c.02.59.19,1.03.52,1.32.22.19.8.29,1.75.29h7.83c.95,0,1.55-.11,1.81-.33s.41-.64.45-1.28h.53v5.62Zm6.49-2.01c0,.62-.22,1.15-.65,1.58-.43.43-.96.65-1.57.65s-1.13-.22-1.56-.65c-.43-.44-.64-.96-.64-1.57s.21-1.13.64-1.56c.43-.43.95-.64,1.56-.64s1.13.21,1.57.64c.43.43.65.95.65,1.56Z"/>
      <path class="cls-2" d="m19.71,225.05l10.39-4.52c1.25-.54,2.04-.97,2.38-1.28.25-.22.42-.54.5-.97h.53v7.12h-.53c0-.45-.08-.75-.24-.92-.21-.23-.46-.34-.75-.34-.35,0-1.02.21-1.99.63l-5.03,2.21,4.34,1.76c1.24.51,2.12.76,2.64.76.3,0,.54-.11.72-.32.19-.21.29-.59.31-1.14h.53v4.39h-.53c-.06-.42-.21-.76-.47-1.03-.26-.27-1.02-.67-2.28-1.21l-10.52-4.47v-.67Z"/>
      <path class="cls-2" d="m27.29,245.03v-7.35c-1.78.09-3.18.56-4.21,1.42-.79.66-1.19,1.45-1.19,2.38,0,.57.16,1.09.48,1.56.32.47.9.97,1.73,1.5l-.32.49c-1.48-.73-2.53-1.53-3.15-2.41-.62-.88-.92-1.9-.92-3.05,0-1.99.76-3.49,2.29-4.52,1.23-.82,2.76-1.23,4.59-1.23,2.24,0,4.02.6,5.34,1.81,1.32,1.21,1.99,2.63,1.99,4.25,0,1.36-.56,2.53-1.67,3.53-1.11,1-2.76,1.54-4.95,1.61Zm.96-3.53c1.54,0,2.59-.09,3.17-.25.57-.17,1.01-.43,1.3-.78.17-.2.26-.47.26-.8,0-.5-.24-.9-.73-1.22-.85-.56-2.02-.85-3.5-.85h-.5v3.9Z"/>
      <path class="cls-2" d="m33.51,252.27h-3.04c1.39.89,2.3,1.67,2.76,2.34.45.67.68,1.31.68,1.94,0,.54-.17.96-.5,1.28-.33.32-.79.48-1.4.48-.64,0-1.14-.15-1.49-.46-.35-.31-.53-.69-.53-1.12,0-.51.16-.95.49-1.32.33-.37.51-.59.55-.66.06-.1.08-.21.08-.33,0-.28-.1-.54-.31-.79-.33-.39-.79-.69-1.39-.89-.93-.31-1.95-.46-3.07-.46h-3.88c-.54.01-.89.05-1.05.11-.26.11-.45.28-.57.51-.12.22-.19.6-.22,1.14h-.52v-7.24h.52c.05.58.21.98.48,1.18.27.21.99.31,2.16.31h7.41c.76,0,1.25-.04,1.46-.12.27-.1.46-.23.59-.42.12-.18.21-.5.26-.96h.53v5.48Z"/>
      <path class="cls-2" d="m33.88,268.21l-4.57.21v-.49c1.36-.58,2.28-1.19,2.78-1.81.5-.63.74-1.25.74-1.87,0-.39-.13-.73-.39-1-.26-.28-.57-.42-.91-.42-.26,0-.51.1-.75.29-.39.31-1.06,1.16-2.01,2.57-.95,1.4-1.76,2.33-2.42,2.77-.67.44-1.41.67-2.23.67-.75,0-1.48-.19-2.19-.56-.72-.37-1.27-.9-1.65-1.58-.38-.68-.57-1.43-.57-2.25,0-.64.2-1.5.6-2.57.11-.29.16-.48.16-.59,0-.32-.24-.58-.72-.79v-.47l4.82-.23v.49c-1.26.43-2.21,1.02-2.84,1.77s-.95,1.46-.95,2.13c0,.46.14.83.42,1.13.28.29.62.44,1.02.44.46,0,.85-.14,1.19-.43.33-.29.84-.93,1.52-1.92,1.01-1.46,1.79-2.41,2.32-2.84.78-.63,1.65-.95,2.6-.95,1.03,0,1.96.36,2.8,1.07.84.71,1.26,1.74,1.26,3.09,0,.73-.18,1.43-.53,2.11-.14.26-.21.47-.21.63,0,.17.04.31.11.42.07.11.27.27.61.5v.49Z"/>
      <path class="cls-2" d="m33.51,276.39h-10.62c-.95,0-1.55.11-1.81.33-.26.22-.41.65-.45,1.29h-.52v-7.24h.52c.02.59.19,1.03.52,1.32.22.19.8.29,1.75.29h7.83c.95,0,1.55-.11,1.81-.33.26-.22.41-.64.45-1.28h.53v5.62Zm6.49-2.01c0,.62-.22,1.15-.65,1.58-.43.43-.96.65-1.57.65s-1.13-.22-1.56-.65c-.43-.44-.64-.96-.64-1.57s.21-1.13.64-1.56c.43-.43.95-.64,1.56-.64s1.13.21,1.57.64c.43.43.65.95.65,1.56Z"/>
      <path class="cls-2" d="m38.41,284.64h-4.9v3.18h-1.42v-3.18h-8.27c-.77,0-1.27.04-1.5.11-.23.07-.41.2-.55.38-.14.18-.21.35-.21.5,0,.62.47,1.21,1.42,1.76l-.32.43c-1.83-.77-2.75-2.03-2.75-3.77,0-.85.24-1.57.71-2.16.47-.59,1-.96,1.59-1.12.32-.1,1.2-.14,2.64-.14h7.24v-1.75h.5c.85,1.21,1.74,2.23,2.68,3.08.94.85,1.98,1.58,3.14,2.21v.47Z"/>
      <path class="cls-2" d="m19.57,295.24l9.93-4.33c1.5-.65,2.42-1.13,2.77-1.44.34-.31.58-.69.72-1.12h.53v7.12h-.53c-.02-.47-.11-.8-.27-.99-.16-.19-.36-.29-.59-.29-.36,0-1.08.24-2.15.72l-5.25,2.29,4.06,1.56c1.44.56,2.45.84,3.01.84.35,0,.64-.12.85-.35.21-.23.32-.65.34-1.24h.53v4.49h-.53c-.05-.44-.22-.8-.51-1.08-.29-.28-1.28-.74-2.97-1.39l-9.93-3.83c-2.48-.96-4.01-1.68-4.59-2.15-.8-.66-1.2-1.49-1.2-2.48,0-.79.23-1.44.68-1.93.46-.49,1-.74,1.64-.74.55,0,1.01.17,1.38.51.36.34.54.76.54,1.25s-.15.86-.46,1.15c-.31.29-.78.44-1.42.45-.36,0-.6.05-.7.13-.11.08-.16.19-.16.33,0,.23.14.47.41.73.4.38,1.32.83,2.75,1.35l1.12.42Z"/>
      <path class="cls-2" d="m33.91,317.43c0,1.17-.3,2.25-.9,3.25s-1.46,1.77-2.56,2.29c-1.11.52-2.32.78-3.64.78-1.9,0-3.49-.48-4.77-1.45-1.55-1.17-2.32-2.78-2.32-4.83s.71-3.57,2.12-4.66c1.41-1.09,3.05-1.63,4.92-1.63s3.59.56,5.02,1.67c1.43,1.11,2.14,2.64,2.14,4.58Zm-1.02.06c0-.49-.18-.91-.55-1.25-.37-.35-1.09-.58-2.18-.69-1.09-.11-2.59-.16-4.52-.16-1.02,0-1.98.07-2.87.2-.68.1-1.19.33-1.55.67-.35.34-.53.74-.53,1.17s.12.79.36,1.08c.32.37.78.62,1.36.75.91.19,2.74.29,5.5.29,1.62,0,2.74-.09,3.35-.27.61-.18,1.05-.45,1.33-.8.2-.25.3-.57.3-.98Z"/>
      <path class="cls-2" d="m32.11,331.66h-9.3c-.9,0-1.46.09-1.69.29-.35.31-.52.87-.49,1.69h-.52v-7.9h.52c0,.6.08,1.03.21,1.28.13.25.31.43.54.52.23.09.71.14,1.43.14h9.3v-1.95h1.4v1.95h1.66c1.38-.01,2.52.49,3.44,1.5.92,1.01,1.38,2.37,1.38,4.09,0,1.17-.22,2.05-.66,2.62-.44.57-.93.85-1.46.85-.43,0-.8-.18-1.12-.53-.32-.35-.47-.82-.47-1.4,0-.5.13-.89.39-1.18.26-.29.54-.44.86-.44.09,0,.26.03.53.09.16.04.32.06.46.06.2,0,.35-.06.45-.17.14-.15.21-.34.21-.56,0-.28-.12-.51-.34-.7-.23-.19-.6-.28-1.1-.28l-2.51.03h-1.71v1.98h-1.4v-1.98Z"/>
      <path class="cls-2" d="m39.99,361.5h-6.74v-.56c1.76-.42,3.11-1.2,4.04-2.35.94-1.15,1.4-2.45,1.4-3.9,0-1.21-.35-2.33-1.05-3.34-.7-1.01-1.61-1.75-2.74-2.22-1.44-.6-3.05-.9-4.82-.9s-3.32.22-4.75.66c-1.43.44-2.51,1.13-3.24,2.06-.73.94-1.1,2.15-1.1,3.64,0,1.22.27,2.34.8,3.36.54,1.02,1.46,2.09,2.77,3.22h-1.68c-1.14-1.09-1.96-2.22-2.47-3.4-.51-1.18-.77-2.56-.77-4.13,0-2.07.42-3.92,1.25-5.53.83-1.61,2.03-2.85,3.58-3.73,1.56-.87,3.21-1.31,4.97-1.31,1.85,0,3.61.49,5.27,1.46s2.95,2.28,3.87,3.93c.92,1.65,1.38,3.4,1.38,5.25,0,1.37-.3,2.81-.89,4.33-.34.88-.52,1.44-.52,1.68,0,.31.11.57.34.8s.58.37,1.07.44v.56Z"/>
      <path class="cls-2" d="m39.55,369.57h-7.75c.78.74,1.32,1.41,1.64,2.02.32.61.48,1.25.48,1.91,0,.84-.24,1.56-.72,2.16-.48.6-1.04.99-1.68,1.19-.64.2-1.73.29-3.26.29h-5.23c-1.02,0-1.66.1-1.91.29-.25.19-.41.58-.48,1.16h-.52v-6.79h.52c.07.48.26.84.57,1.07.25.17.86.26,1.82.26h5.98c1.11,0,1.8-.04,2.09-.13.28-.09.5-.23.66-.44.16-.21.24-.44.24-.69,0-.38-.13-.75-.39-1.12s-.72-.75-1.38-1.18h-7.18c-.96,0-1.55.07-1.79.21-.32.18-.53.55-.6,1.12h-.52v-6.79h.52c.06.56.24.96.54,1.2.21.16.83.24,1.85.24h13.62c1.01,0,1.64-.09,1.89-.28.25-.19.41-.58.49-1.17h.53v5.46Z"/>
      <path class="cls-2" d="m33.51,385.66h-10.62c-.95,0-1.55.11-1.81.33-.26.22-.41.65-.45,1.29h-.52v-7.24h.52c.02.59.19,1.03.52,1.32.22.19.8.29,1.75.29h7.83c.95,0,1.55-.11,1.81-.33.26-.22.41-.65.45-1.28h.53v5.62Zm6.49-2.01c0,.62-.22,1.15-.65,1.58-.43.43-.96.64-1.57.64s-1.13-.22-1.56-.65c-.43-.43-.64-.96-.64-1.57s.21-1.13.64-1.56c.43-.43.95-.65,1.56-.65s1.13.22,1.57.65c.43.43.65.95.65,1.56Z"/>
      <path class="cls-2" d="m33.51,394.06h-1.73c.75.69,1.29,1.35,1.63,1.98.34.63.51,1.31.51,2.04,0,.87-.24,1.59-.72,2.16-.48.57-1.08.96-1.8,1.15-.54.15-1.59.23-3.14.23h-5.22c-1.03,0-1.67.09-1.93.28-.25.19-.41.58-.48,1.17h-.52v-6.78h.52c.07.51.28.87.63,1.09.24.15.83.23,1.78.23h5.96c1.1,0,1.79-.04,2.08-.13.29-.09.51-.23.67-.44.16-.21.24-.43.24-.68,0-.82-.59-1.59-1.76-2.29h-7.18c-1,0-1.64.09-1.9.28-.27.19-.44.53-.5,1.04h-.52v-6.78h.52c.06.56.24.97.54,1.21.21.16.83.24,1.86.24h7.57c1.01,0,1.64-.09,1.89-.28.25-.19.41-.57.49-1.17h.53v5.46Z"/>
      <path class="cls-2" d="m27.29,416.26v-7.35c-1.78.09-3.18.56-4.21,1.42-.79.66-1.19,1.45-1.19,2.38,0,.57.16,1.09.48,1.56.32.47.9.97,1.73,1.5l-.32.49c-1.48-.73-2.53-1.53-3.15-2.41-.62-.88-.92-1.9-.92-3.05,0-1.99.76-3.49,2.29-4.52,1.23-.82,2.76-1.23,4.59-1.23,2.24,0,4.02.6,5.34,1.81,1.32,1.21,1.99,2.62,1.99,4.25,0,1.36-.56,2.53-1.67,3.53-1.11,1-2.76,1.54-4.95,1.61Zm.96-3.53c1.54,0,2.59-.08,3.17-.25.57-.17,1.01-.43,1.3-.78.17-.2.26-.47.26-.8,0-.5-.24-.9-.73-1.22-.85-.56-2.02-.85-3.5-.85h-.5v3.9Z"/>
      <path class="cls-2" d="m33.88,426.41l-4.57.21v-.49c1.36-.58,2.28-1.19,2.78-1.81.5-.62.74-1.25.74-1.87,0-.39-.13-.73-.39-1-.26-.28-.57-.42-.91-.42-.26,0-.51.09-.75.29-.39.31-1.06,1.16-2.01,2.57-.95,1.4-1.76,2.33-2.42,2.77-.67.44-1.41.67-2.23.67-.75,0-1.48-.19-2.19-.56-.72-.37-1.27-.9-1.65-1.58-.38-.68-.57-1.43-.57-2.25,0-.64.2-1.5.6-2.57.11-.29.16-.48.16-.59,0-.32-.24-.58-.72-.79v-.47l4.82-.23v.49c-1.26.43-2.21,1.02-2.84,1.77s-.95,1.46-.95,2.13c0,.46.14.83.42,1.12.28.29.62.44,1.02.44.46,0,.85-.14,1.19-.43.33-.29.84-.93,1.52-1.92,1.01-1.46,1.79-2.41,2.32-2.84.78-.63,1.65-.95,2.6-.95,1.03,0,1.96.36,2.8,1.07.84.71,1.26,1.74,1.26,3.09,0,.73-.18,1.43-.53,2.11-.14.26-.21.47-.21.63,0,.17.04.31.11.41.07.11.27.27.61.5v.49Z"/>
      <path class="cls-2" d="m27.29,440.71v-7.35c-1.78.09-3.18.56-4.21,1.42-.79.66-1.19,1.45-1.19,2.38,0,.57.16,1.09.48,1.56.32.47.9.97,1.73,1.5l-.32.49c-1.48-.73-2.53-1.53-3.15-2.41-.62-.88-.92-1.9-.92-3.05,0-1.99.76-3.49,2.29-4.51,1.23-.82,2.76-1.23,4.59-1.23,2.24,0,4.02.6,5.34,1.81,1.32,1.21,1.99,2.63,1.99,4.25,0,1.36-.56,2.53-1.67,3.53-1.11,1-2.76,1.54-4.95,1.61Zm.96-3.53c1.54,0,2.59-.08,3.17-.25.57-.17,1.01-.43,1.3-.78.17-.2.26-.47.26-.8,0-.5-.24-.9-.73-1.22-.85-.56-2.02-.85-3.5-.85h-.5v3.9Z"/>
      <path class="cls-2" d="m25.64,459.33v-6.87l-1.89-.82c-.63-.27-1.15-.4-1.56-.4-.55,0-.95.22-1.21.66-.15.26-.27.89-.34,1.91h-.53v-6.46h.53c.11.7.39,1.27.87,1.72.47.45,1.45,1,2.93,1.66l15.51,6.95v.27l-15.94,7.01c-1.51.67-2.46,1.22-2.85,1.65-.3.33-.47.78-.52,1.38h-.53v-9.4h.53v.39c0,.75.11,1.29.32,1.59.15.21.37.32.66.32.17,0,.35-.03.53-.09.09-.02.44-.16,1.08-.43l2.42-1.03Zm1.06-.49l6.69-2.9-6.69-2.98v5.88Z"/>
      <path class="cls-2" d="m23.56,480.24l-.34.44c-1.19-.63-2.07-1.42-2.64-2.36-.58-.94-.87-1.94-.87-3,0-1.79.67-3.22,2.02-4.29,1.35-1.07,2.97-1.61,4.86-1.61s3.43.49,4.82,1.46c1.67,1.18,2.51,2.79,2.51,4.86,0,1.39-.35,2.49-1.05,3.3-.7.82-1.48,1.22-2.34,1.22-.54,0-.98-.16-1.3-.49-.33-.33-.49-.76-.49-1.3,0-.56.19-1.03.56-1.4.37-.37,1.04-.6,1.99-.68.6-.06,1.02-.2,1.26-.41.24-.22.36-.48.36-.77,0-.46-.24-.85-.73-1.17-.74-.5-1.86-.75-3.38-.75-1.26,0-2.47.2-3.62.6-1.15.4-2.01.95-2.57,1.65-.41.53-.62,1.15-.62,1.86,0,.47.11.91.33,1.33.22.42.64.92,1.25,1.49Z"/>
      <path class="cls-2" d="m22.09,489.73c-1.44-1.63-2.16-3.1-2.16-4.4,0-.76.25-1.4.75-1.91.5-.51,1.13-.76,1.88-.76,1.02,0,1.94.44,2.76,1.32.82.88,1.9,2.79,3.26,5.75h1.35c1.01,0,1.65-.05,1.91-.16.26-.11.49-.32.69-.62.2-.31.29-.65.29-1.03,0-.62-.14-1.13-.42-1.53-.17-.25-.37-.37-.6-.37-.2,0-.45.13-.75.4-.41.36-.81.54-1.19.54-.47,0-.87-.17-1.2-.52-.33-.35-.49-.8-.49-1.37,0-.6.18-1.11.54-1.51.36-.41.79-.61,1.28-.61.69,0,1.34.27,1.97.82.63.54,1.11,1.3,1.44,2.28.33.98.5,1.99.5,3.04,0,1.27-.27,2.28-.81,3.02-.54.74-1.12,1.22-1.76,1.44-.4.13-1.32.2-2.77.2h-5.2c-.61,0-1,.02-1.15.07-.16.05-.28.12-.35.21-.08.09-.11.21-.11.33,0,.25.18.5.53.76l-.34.43c-.71-.48-1.22-.97-1.54-1.48-.32-.51-.48-1.09-.48-1.74,0-.77.18-1.36.54-1.79.36-.43.9-.69,1.63-.79Zm1.05,0h4.49c-.68-1.16-1.4-2.02-2.18-2.58-.52-.37-1.04-.56-1.56-.56-.44,0-.83.16-1.16.47-.26.24-.39.57-.39,1,0,.48.27,1.03.8,1.66Z"/>
      <path class="cls-2" d="m39.55,510.04h-15.42c-1.04,0-1.66.03-1.85.09-.32.08-.55.22-.7.44-.15.21-.25.59-.29,1.12h-.47l-1.1-5.66h2.12c-.82-.68-1.38-1.28-1.68-1.81-.3-.53-.44-1.13-.44-1.8,0-1.71.76-3.06,2.29-4.06,1.24-.8,2.77-1.2,4.57-1.2,1.44,0,2.74.25,3.88.75,1.14.5,2,1.18,2.59,2.04.58.86.88,1.79.88,2.79,0,.64-.12,1.21-.37,1.71-.25.5-.68,1.03-1.3,1.59h4.04c1.02,0,1.64-.04,1.85-.13.28-.11.48-.29.62-.52.13-.23.2-.66.2-1.29h.6v5.95Zm-9.09-4.01c1.36-.71,2.04-1.57,2.04-2.59,0-.35-.1-.65-.29-.88-.3-.35-.82-.64-1.56-.87-.74-.22-1.89-.34-3.42-.34-1.69,0-2.94.12-3.76.37-.81.25-1.4.59-1.76,1.02-.18.22-.27.52-.27.9,0,.84.66,1.63,1.98,2.38h7.05Z"/>
      <path class="cls-2" d="m27.29,524.69v-7.35c-1.78.09-3.18.56-4.21,1.42-.79.66-1.19,1.45-1.19,2.38,0,.57.16,1.09.48,1.56.32.47.9.97,1.73,1.5l-.32.49c-1.48-.73-2.53-1.53-3.15-2.41-.62-.88-.92-1.9-.92-3.05,0-1.99.76-3.49,2.29-4.52,1.23-.82,2.76-1.23,4.59-1.23,2.24,0,4.02.6,5.34,1.81,1.32,1.21,1.99,2.63,1.99,4.25,0,1.36-.56,2.53-1.67,3.53-1.11,1-2.76,1.54-4.95,1.61Zm.96-3.53c1.54,0,2.59-.08,3.17-.25.57-.17,1.01-.43,1.3-.78.17-.2.26-.47.26-.8,0-.5-.24-.9-.73-1.22-.85-.56-2.02-.85-3.5-.85h-.5v3.9Z"/>
      <path class="cls-2" d="m33.51,531.93h-1.76c.8.74,1.36,1.42,1.68,2.04.32.62.48,1.31.48,2.06,0,.86-.2,1.58-.6,2.16-.4.58-1.01,1.03-1.83,1.35.86.76,1.48,1.5,1.86,2.2.38.7.57,1.44.57,2.2,0,.93-.21,1.67-.64,2.21s-.96.93-1.62,1.15c-.65.22-1.7.32-3.13.32h-5.49c-1.03,0-1.67.09-1.92.28-.25.19-.41.58-.49,1.17h-.52v-6.92h.52c.05.55.26.95.63,1.2.26.17.85.26,1.78.26h5.76c1.19,0,1.95-.05,2.28-.14s.57-.25.72-.45c.16-.2.24-.45.24-.72,0-.41-.15-.83-.45-1.25-.3-.42-.75-.85-1.35-1.28h-7.2c-.96,0-1.57.08-1.82.24-.35.22-.55.64-.59,1.26h-.52v-6.94h.52c.02.37.11.67.28.88.17.22.37.36.6.43.23.07.74.11,1.53.11h5.76c1.21,0,1.97-.05,2.28-.14.31-.1.54-.26.72-.48.17-.22.26-.47.26-.72,0-.38-.1-.73-.3-1.05-.3-.45-.8-.93-1.52-1.43h-7.2c-.95,0-1.57.09-1.87.28-.3.19-.48.58-.54,1.17h-.52v-6.91h.52c.06.56.24.96.54,1.2.21.16.83.24,1.86.24h7.57c1.01,0,1.64-.09,1.89-.28.25-.19.41-.58.49-1.17h.53v5.46Z"/>
      <path class="cls-2" d="m19.57,556.97l9.93-4.33c1.5-.65,2.42-1.13,2.77-1.44.34-.31.58-.69.72-1.13h.53v7.12h-.53c-.02-.47-.11-.8-.27-.99-.16-.19-.36-.29-.59-.29-.36,0-1.08.24-2.15.72l-5.25,2.29,4.06,1.56c1.44.56,2.45.85,3.01.85.35,0,.64-.12.85-.35.21-.23.32-.65.34-1.24h.53v4.49h-.53c-.05-.44-.22-.8-.51-1.08-.29-.28-1.28-.74-2.97-1.39l-9.93-3.83c-2.48-.96-4.01-1.68-4.59-2.15-.8-.66-1.2-1.49-1.2-2.48,0-.79.23-1.43.68-1.93.46-.49,1-.74,1.64-.74.55,0,1.01.17,1.38.51.36.34.54.76.54,1.25s-.15.86-.46,1.15c-.31.29-.78.44-1.42.45-.36.01-.6.05-.7.13-.11.08-.16.19-.16.33,0,.23.14.47.41.73.4.38,1.32.83,2.75,1.35l1.12.42Z"/>
      <path class="cls-2" d="m33.91,579.16c0,1.17-.3,2.25-.9,3.25-.6,1-1.46,1.77-2.56,2.29-1.11.52-2.32.78-3.64.78-1.9,0-3.49-.48-4.77-1.45-1.55-1.17-2.32-2.78-2.32-4.83s.71-3.57,2.12-4.66,3.05-1.63,4.92-1.63,3.59.56,5.02,1.67,2.14,2.64,2.14,4.58Zm-1.02.06c0-.49-.18-.91-.55-1.25-.37-.35-1.09-.58-2.18-.69-1.09-.11-2.59-.17-4.52-.17-1.02,0-1.98.07-2.87.2-.68.1-1.19.33-1.55.67-.35.34-.53.73-.53,1.17s.12.79.36,1.08c.32.37.78.62,1.36.75.91.19,2.74.29,5.5.29,1.62,0,2.74-.09,3.35-.27.61-.18,1.05-.45,1.33-.8.2-.25.3-.57.3-.97Z"/>
      <path class="cls-2" d="m32.11,593.39h-9.3c-.9,0-1.46.09-1.69.29-.35.31-.52.87-.49,1.69h-.52v-7.9h.52c0,.6.08,1.03.21,1.28.13.25.31.43.54.52.23.09.71.14,1.43.14h9.3v-1.95h1.4v1.95h1.66c1.38-.01,2.52.49,3.44,1.5.92,1.01,1.38,2.37,1.38,4.09,0,1.18-.22,2.05-.66,2.62-.44.57-.93.85-1.46.85-.43,0-.8-.18-1.12-.53-.32-.35-.47-.82-.47-1.41,0-.5.13-.89.39-1.18s.54-.44.86-.44c.09,0,.26.03.53.09.16.04.32.06.46.06.2,0,.35-.06.45-.17.14-.15.21-.34.21-.56,0-.28-.12-.51-.34-.7-.23-.19-.6-.28-1.1-.28l-2.51.03h-1.71v1.98h-1.4v-1.98Z"/>
      <path class="cls-2" d="m39.99,617.43l-6.48.16v-.59c1.62-.28,2.93-.96,3.92-2.04.99-1.09,1.48-2.26,1.48-3.52,0-.97-.26-1.75-.78-2.31-.52-.57-1.12-.85-1.8-.85-.43,0-.81.1-1.15.3-.45.28-.89.72-1.33,1.33-.32.45-.87,1.49-1.68,3.11-1.12,2.27-2.17,3.81-3.17,4.6-.99.78-2.13,1.18-3.41,1.18-1.62,0-3.02-.63-4.19-1.9-1.17-1.27-1.76-2.87-1.76-4.82,0-.61.06-1.19.19-1.73.12-.54.36-1.23.7-2.05.19-.46.29-.84.29-1.13,0-.25-.09-.51-.29-.79-.19-.28-.48-.5-.88-.67v-.53h7.34v.53c-2.06.42-3.64,1.23-4.72,2.43s-1.63,2.49-1.63,3.88c0,1.07.29,1.92.87,2.56.58.64,1.26.95,2.04.95.46,0,.9-.12,1.33-.37.43-.24.84-.61,1.23-1.11s.89-1.38,1.51-2.64c.87-1.77,1.61-3.04,2.22-3.81.61-.77,1.29-1.37,2.05-1.78.75-.41,1.59-.62,2.49-.62,1.55,0,2.87.57,3.96,1.71,1.09,1.14,1.63,2.57,1.63,4.3,0,.63-.08,1.24-.23,1.83-.11.45-.33,1-.64,1.64-.31.64-.46,1.1-.46,1.35s.08.44.23.59c.15.14.52.28,1.1.4v.43Z"/>
      <path class="cls-2" d="m23.56,631.89l-.34.44c-1.19-.63-2.07-1.42-2.64-2.36-.58-.94-.87-1.94-.87-3,0-1.79.67-3.21,2.02-4.29,1.35-1.07,2.97-1.61,4.86-1.61s3.43.49,4.82,1.46c1.67,1.18,2.51,2.79,2.51,4.86,0,1.38-.35,2.49-1.05,3.3-.7.82-1.48,1.23-2.34,1.23-.54,0-.98-.16-1.3-.49-.33-.33-.49-.76-.49-1.3,0-.56.19-1.03.56-1.4.37-.37,1.04-.59,1.99-.68.6-.06,1.02-.2,1.26-.42.24-.22.36-.48.36-.77,0-.46-.24-.85-.73-1.18-.74-.5-1.86-.75-3.38-.75-1.26,0-2.47.2-3.62.6-1.15.4-2.01.95-2.57,1.65-.41.53-.62,1.15-.62,1.86,0,.47.11.91.33,1.33.22.42.64.92,1.25,1.49Z"/>
      <path class="cls-2" d="m33.51,639.21h-10.62c-.95,0-1.55.11-1.81.33-.26.22-.41.65-.45,1.29h-.52v-7.24h.52c.02.59.19,1.03.52,1.32.22.19.8.29,1.75.29h7.83c.95,0,1.55-.11,1.81-.33s.41-.65.45-1.28h.53v5.62Zm6.49-2.01c0,.62-.22,1.15-.65,1.58-.43.43-.96.65-1.57.65s-1.13-.22-1.56-.65c-.43-.43-.64-.96-.64-1.57s.21-1.13.64-1.56c.43-.43.95-.65,1.56-.65s1.13.22,1.57.65c.43.43.65.95.65,1.56Z"/>
      <path class="cls-2" d="m27.29,653.49v-7.35c-1.78.09-3.18.56-4.21,1.42-.79.66-1.19,1.45-1.19,2.38,0,.57.16,1.09.48,1.56.32.47.9.97,1.73,1.5l-.32.49c-1.48-.73-2.53-1.53-3.15-2.41-.62-.88-.92-1.9-.92-3.05,0-1.99.76-3.49,2.29-4.52,1.23-.82,2.76-1.23,4.59-1.23,2.24,0,4.02.6,5.34,1.81,1.32,1.21,1.99,2.63,1.99,4.25,0,1.36-.56,2.53-1.67,3.53-1.11,1-2.76,1.54-4.95,1.61Zm.96-3.53c1.54,0,2.59-.08,3.17-.25.57-.17,1.01-.43,1.3-.78.17-.2.26-.47.26-.8,0-.5-.24-.9-.73-1.22-.85-.56-2.02-.85-3.5-.85h-.5v3.9Z"/>
      <path class="cls-2" d="m33.51,660.64h-1.73c.75.69,1.29,1.35,1.63,1.98.34.63.51,1.31.51,2.04,0,.87-.24,1.59-.72,2.17-.48.57-1.08.95-1.8,1.15-.54.15-1.59.23-3.14.23h-5.22c-1.03,0-1.67.09-1.93.28-.25.19-.41.58-.48,1.17h-.52v-6.78h.52c.07.51.28.87.63,1.09.24.15.83.23,1.78.23h5.96c1.1,0,1.79-.04,2.08-.13.29-.09.51-.23.67-.44.16-.21.24-.43.24-.68,0-.82-.59-1.59-1.76-2.29h-7.18c-1,0-1.64.09-1.9.28-.27.19-.44.53-.5,1.04h-.52v-6.78h.52c.06.56.24.96.54,1.2.21.16.83.24,1.86.24h7.57c1.01,0,1.64-.09,1.89-.28.25-.19.41-.58.49-1.17h.53v5.46Z"/>
      <path class="cls-2" d="m23.56,682.43l-.34.44c-1.19-.63-2.07-1.42-2.64-2.36-.58-.94-.87-1.94-.87-3,0-1.79.67-3.21,2.02-4.29,1.35-1.07,2.97-1.61,4.86-1.61s3.43.49,4.82,1.46c1.67,1.17,2.51,2.8,2.51,4.86,0,1.38-.35,2.49-1.05,3.3-.7.82-1.48,1.23-2.34,1.23-.54,0-.98-.16-1.3-.49-.33-.33-.49-.76-.49-1.3,0-.56.19-1.03.56-1.4.37-.37,1.04-.59,1.99-.68.6-.06,1.02-.2,1.26-.42.24-.22.36-.48.36-.77,0-.46-.24-.85-.73-1.18-.74-.5-1.86-.75-3.38-.75-1.26,0-2.47.2-3.62.6-1.15.4-2.01.95-2.57,1.65-.41.53-.62,1.15-.62,1.86,0,.47.11.91.33,1.33.22.42.64.92,1.25,1.49Z"/>
      <path class="cls-2" d="m27.29,695.87v-7.35c-1.78.09-3.18.56-4.21,1.42-.79.66-1.19,1.45-1.19,2.38,0,.57.16,1.09.48,1.56.32.47.9.97,1.73,1.5l-.32.49c-1.48-.73-2.53-1.53-3.15-2.41-.62-.88-.92-1.9-.92-3.05,0-1.99.76-3.49,2.29-4.52,1.23-.82,2.76-1.23,4.59-1.23,2.24,0,4.02.6,5.34,1.81,1.32,1.21,1.99,2.63,1.99,4.25,0,1.36-.56,2.53-1.67,3.53s-2.76,1.54-4.95,1.61Zm.96-3.53c1.54,0,2.59-.08,3.17-.25.57-.17,1.01-.43,1.3-.78.17-.2.26-.47.26-.8,0-.5-.24-.9-.73-1.22-.85-.56-2.02-.85-3.5-.85h-.5v3.9Z"/>
      <path class="cls-2" d="m33.88,706.02l-4.57.21v-.49c1.36-.58,2.28-1.19,2.78-1.81.5-.63.74-1.25.74-1.87,0-.39-.13-.73-.39-1-.26-.28-.57-.42-.91-.42-.26,0-.51.09-.75.29-.39.31-1.06,1.16-2.01,2.57-.95,1.41-1.76,2.33-2.42,2.77-.67.44-1.41.67-2.23.67-.75,0-1.48-.19-2.19-.56-.72-.37-1.27-.9-1.65-1.58-.38-.68-.57-1.43-.57-2.25,0-.64.2-1.5.6-2.57.11-.29.16-.48.16-.59,0-.32-.24-.58-.72-.79v-.47l4.82-.23v.49c-1.26.43-2.21,1.02-2.84,1.77s-.95,1.46-.95,2.13c0,.46.14.83.42,1.13.28.29.62.44,1.02.44.46,0,.85-.14,1.19-.43.33-.29.84-.93,1.52-1.92,1.01-1.46,1.79-2.41,2.32-2.84.78-.63,1.65-.95,2.6-.95,1.03,0,1.96.36,2.8,1.07.84.71,1.26,1.74,1.26,3.09,0,.73-.18,1.43-.53,2.11-.14.26-.21.47-.21.63,0,.17.04.31.11.42.07.1.27.27.61.5v.49Z"/>
    </g>
    <g>
      <path class="cls-3" d="m61.63,178.7c.17-.13.41-.11.72.07l10.51,4.31h11.29v-13.71c-.04-.39.02-.72.2-.98.17-.22.46-.3.85-.26l8.95.65c1,.09,1.7.28,2.09.59,1.04.96.91,1.89-.39,2.81-.61.48-.89,1.07-.85,1.76v9.14h11.82l3.26-3.26c.3-.3.61-.46.92-.46s.72.15,1.24.46l6.66,3.92c2.05,1.22,2.02,2.31-.06,3.26-.7.35-1.02,1-.98,1.96v21.22c-.04.65-.28,1.13-.72,1.44-.61.57-2.05.87-4.31.91-2.74.13-4.37-.02-4.9-.46-.48-.39-.72-1.04-.72-1.96v-3.53h-12.21v22.07c-.09,1.65-.41,2.63-.98,2.94-.83.35-2.31.54-4.44.59-2.39,0-3.88-.15-4.44-.46-.65-.44-.98-1.46-.98-3.07v-22.07h-12.27v3.26c0,1.44-.26,2.35-.78,2.74-.52.44-2.05.72-4.57.85-2.31.09-3.72-.07-4.24-.46-.61-.48-.91-1.52-.91-3.13v-30.36c0-.39.09-.65.26-.78Zm22.53,6.2h-12.27v19.85h12.27v-19.85Zm10.84,19.85h12.21v-19.85h-12.21v19.85Z"/>
      <path class="cls-3" d="m61.63,248.07c.17-.13.41-.11.72.07l9.86,4.05h33.3l3.27-3.27c.3-.3.61-.46.91-.46s.72.15,1.24.46l6.66,3.92c2.04,1.22,2.02,2.31-.07,3.26-.7.35-1.02,1-.98,1.96v50.73c-.04.65-.28,1.13-.72,1.44-.61.57-2.05.87-4.31.91-2.74.13-4.38-.02-4.9-.46-.48-.39-.72-1.04-.72-1.96v-2.48h-34.02v1.18c0,1.44-.26,2.35-.78,2.74-.52.43-2.05.72-4.57.85-2.31.09-3.72-.07-4.24-.46-.61-.48-.91-1.52-.91-3.13v-58.56c0-.39.09-.65.26-.78Zm33.04,32.06c1.96.17,3.81.74,5.55,1.7,1.78.91,2.96,1.96,3.53,3.13.52,1,.72,2.09.59,3.26-.3,1.83-1.24,3.07-2.81,3.72,1.7,1.44,3.16,2.63,4.38,3.59v-41.52h-34.02v50.4h33.95v-7.31h-32.91c-.57,0-.85-.33-.85-.98,0-.57.28-.85.85-.85h9.6v-16.19h-7.77c-.57,0-.85-.33-.85-.98,0-.57.28-.85.85-.85h7.77v-14.1h-8.29c-.57,0-.85-.33-.85-.98,0-.56.28-.85.85-.85h19.06c2.48-3.31,3.81-4.96,3.98-4.96.26,0,.59.13.98.39,4.13,3.48,6.2,5.31,6.2,5.48,0,.35-.07.61-.2.78-.13.09-.22.13-.26.13h-10.97v14.1c2.48-3.18,3.79-4.77,3.92-4.77.26,0,.59.13.98.39,4,3.35,6.01,5.12,6.01,5.29,0,.35-.07.61-.2.78-.13.09-.22.13-.26.13h-10.45v16.19h2.09c.91-1.31,1.83-2.57,2.74-3.79-.22-.22-.41-.41-.59-.59-.61-.78-.94-1.83-.98-3.13-.17-3.09-.87-5.42-2.09-6.99-.13-.13-.17-.28-.13-.46.09-.17.28-.24.59-.2Z"/>
      <path class="cls-3" d="m77.1,390.48c-.74.48-2.15.74-4.24.78-2.48.13-4.01-.02-4.57-.46-.57-.48-.85-1.66-.85-3.53v-16.52c-2.35,2.39-5.16,4.46-8.42,6.2-.52.3-.87.37-1.04.2-.22-.26-.2-.54.07-.85,4.74-6.83,7.77-15.67,9.07-26.51h-7.44c-.61-.04-.91-.35-.91-.91,0-.61.28-.91.85-.91h7.83v-7.83c-2.83.17-5.44.24-7.83.2-.44,0-.68-.13-.72-.39-.13-.3.02-.54.46-.72,7.27-2.92,13.38-6.73,18.35-11.43.35-.3.61-.46.78-.46.22-.09.54.07.98.46l8.42,7.25c.91.83,1.17,1.52.78,2.09-.74.57-1.52.63-2.35.2-.83-.35-1.59-.43-2.29-.26-2.09.57-4.05,1.07-5.88,1.5v9.4h.2c.83-1.57,1.7-3.13,2.61-4.7.26-.35.48-.52.65-.52.3,0,.61.15.92.46,3.61,3.66,5.42,5.55,5.42,5.68,0,.35-.07.61-.2.78-.09.09-.15.13-.2.13h-9.4v4.11c5,1.26,8.23,3.46,9.66,6.59.91,1.92,1.09,3.68.52,5.29-.39,1.26-1.07,2.24-2.02,2.94-1.04.74-2.15.98-3.33.72-1.22-.35-2.16-1-2.81-1.96-.61-1-.78-1.98-.52-2.94.78-3.7.83-6.22.13-7.57-.39-.65-.94-1.13-1.63-1.44v31.73c0,1.7-.35,2.76-1.04,3.2Zm25.46-61.18c0-.57.09-.94.26-1.11.22-.17.61-.24,1.18-.2l6.99.52c1.65.09,2.96.28,3.92.59.65.3.98.72.98,1.24,0,.7-.48,1.26-1.44,1.7-.91.39-1.37.91-1.37,1.57v33.23l1.37-.26c.39-1.44.94-3.48,1.63-6.14.22-.56.41-.85.59-.85.26.04.48.22.65.52,3.13,4.05,4.63,6.27,4.51,6.66-.04.17-.22.35-.52.52h-.78l-2.16.39-5.29.98v19.91c0,1.22-.39,1.98-1.18,2.29-1,.35-2.42.54-4.24.59-2.05.04-3.48-.09-4.31-.39-.48-.31-.74-1.13-.78-2.48v-18.09l-19.72,3.53c-.78.09-1.2-.22-1.24-.91-.04-.56.26-.87.92-.91l20.04-3.53v-39.37Zm-7.7,25.07c2.31,1.35,3.85,2.83,4.64,4.44.7,1.22.96,2.57.78,4.05-.26,1.48-.81,2.63-1.63,3.46-1.17,1-2.37,1.5-3.59,1.5-1.48.05-2.63-.48-3.46-1.57-.96-1.26-1.44-3-1.44-5.22-.61-3.79-1.7-6.59-3.26-8.42-.17-.22-.24-.41-.2-.59.09-.22.33-.3.72-.26,2.61.39,5.09,1.26,7.44,2.61Zm.98-19.06c2.22,1,3.74,2.18,4.57,3.53.74,1.13,1.04,2.44.91,3.92-.13,1.57-.61,2.76-1.44,3.59-1.13,1.04-2.31,1.59-3.53,1.63-1.44.04-2.61-.41-3.53-1.37-1-1.22-1.5-2.76-1.5-4.64-.57-3.48-1.52-5.94-2.87-7.38-.17-.22-.24-.41-.2-.59.09-.22.33-.3.72-.26,2.35.09,4.63.61,6.86,1.57Z"/>
      <path class="cls-3" d="m70.54,428.9c.87,2.57,1.09,4.96.65,7.18-.57,2.48-1.83,4.33-3.79,5.55-1.18.78-2.55,1.02-4.11.72-1.65-.3-2.89-1.11-3.72-2.42-.87-1.22-1.09-2.63-.65-4.24.35-1.61,1.65-3.09,3.92-4.44,2.96-2.61,3.96-5.16,3-7.64-.09-.39-.04-.67.13-.85.22-.17.48-.11.78.2,1.22,1,2.24,2.37,3.07,4.11h26.38c2.52-2.35,4.7-7.44,6.53-15.28.39-2.74.78-4.18,1.17-4.31.3-.13.54-.13.72,0l8.55,4.5c1,.52,1.37,1.13,1.11,1.83-.17.39-.61.61-1.31.65-.78.09-1.33.39-1.63.91-2.92,4.14-7.27,8.03-13.06,11.69h7.9l3.66-4.18c.22-.3.46-.44.72-.39.26,0,.59.13.98.39l6.66,4.9c1.35.96,2.02,2.05,2.02,3.26-.17,2.44-1.63,3.46-4.37,3.07-4.14-.65-6.94-.52-8.42.39l2.02,1.31c1.18.7,1.63,1.37,1.37,2.02-.35.74-1.13,1.09-2.35,1.04-.7-.04-1.63.26-2.81.92-2.18,1.04-4.85,2.18-8.03,3.39.48,1.04.2,1.76-.85,2.16-.7.26-1.02.67-.98,1.24v2.94h11.03c3.31-4.44,5.18-6.66,5.62-6.66.35.04.74.22,1.17.52,3,2.52,5.38,4.53,7.12,6.01.39.39.59.74.59,1.04,0,.35-.09.61-.26.78-.17.09-.28.13-.33.13h-24.94v11.03c-.09,3.05-.68,5.05-1.76,6.01-1.83,1.83-4.77,2.48-8.81,1.96-1.09-.04-1.65-.59-1.7-1.63-.39-2.87-1.04-4.96-1.96-6.27-.96-1.35-2.61-2.18-4.96-2.48-.65-.17-.96-.39-.91-.65.09-.35.39-.5.91-.46,4.88.44,7.64.46,8.29.07.22-.22.35-.61.39-1.18v-6.4h-26.05c-.57,0-.85-.33-.85-.98,0-.57.28-.85.85-.85h26.05v-7.38c-.04-.22.02-.41.2-.59.13-.17.35-.26.65-.26l6.59.65c1.18-1.52,2.31-3.26,3.4-5.22h-21.55c-.65,0-.98-.33-.98-.98,0-.56.33-.85.98-.85h21.29l4.57-3.85c.22-.26.48-.39.78-.39s.74.2,1.3.59l2.16,1.44c.48-1.17.98-2.44,1.5-3.79h-35.65Zm3.66-16.84c2.52.74,4.33,1.78,5.42,3.13,1,1.17,1.52,2.57,1.57,4.18.09,1.66-.28,3.03-1.11,4.11-1.04,1.35-2.24,2.11-3.59,2.29-1.52.26-2.87-.09-4.05-1.04-1-.87-1.7-2.18-2.09-3.92-.57-2.26-1.07-3.94-1.5-5.03-.52-1.18-1.46-2.31-2.81-3.4-.22-.13-.3-.33-.26-.59.04-.26.28-.41.72-.46,2.61-.22,5.18.02,7.7.72Zm19.85-.52c1,1.22,1.52,2.63,1.57,4.24.04,1.65-.33,3-1.11,4.05-1.09,1.35-2.31,2.11-3.66,2.29-1.53.22-2.87-.15-4.05-1.11-.96-.87-1.63-2.18-2.02-3.92-.52-2.35-1.04-4.07-1.57-5.16-.52-1.13-1.46-2.29-2.81-3.46-.22-.13-.3-.33-.26-.59.04-.26.28-.41.72-.46,6.18-.44,10.58.94,13.19,4.11Z"/>
      <path class="cls-3" d="m59.5,486.91c.17-.13.41-.11.72.07l9.53,3.92h1.76l2.55-3.39c.3-.57.59-.85.85-.85.35-.04.74.13,1.17.52l6.66,4.57c1,.57,1.52,1.07,1.57,1.5.3,1-.35,1.7-1.96,2.09-.52.13-.94.48-1.24,1.04-2.13,3.74-4.66,7.6-7.57,11.56-1.44,1.92-2.15,3-2.15,3.26,0,.22.33.52.98.92,4,2.09,6.86,5.03,8.55,8.81,1.7,4.18,1.68,7.92-.07,11.23-1.74,3.13-4.79,4.77-9.14,4.9-.13-.04-.2-.04-.2,0-.65-.13-.98-.46-.98-.98-.13-2.83-.48-4.53-1.04-5.09v15.41c-.04,1.39-.28,2.29-.72,2.68-.52.43-2.02.72-4.5.85-2.22.04-3.61-.13-4.18-.52-.57-.39-.85-1.39-.85-3v-58.7c0-.39.09-.65.26-.78Zm9.99,41c1.09-.26,1.78-.54,2.09-.85.3-.35.54-.8.72-1.37.96-5.88.33-10.27-1.89-13.19-.44-.65-.63-1.26-.59-1.83,1-6.22,1.65-12.21,1.96-17.96h-2.29v35.19Zm36.76-9.34c3.27-4.27,5.05-6.4,5.35-6.4.35.04.74.22,1.17.52,4.96,4.27,7.44,6.53,7.44,6.79,0,.35-.09.61-.26.78-.17.09-.28.13-.33.13h-9.66v17.11c0,.96.15,1.57.46,1.83.04.09.13.15.26.19,2.35,1.39,4.33-1.5,5.94-8.68.13-.3.28-.46.46-.46.26.09.39.35.39.78.09,3.09.28,4.96.59,5.62.22.39.61.72,1.18.98.96.43,1.52,1.63,1.7,3.59.17,2.18-.28,3.72-1.37,4.64-1.66,1.61-3.55,2.39-5.68,2.35h-8.94c-1.87,0-3.22-.35-4.05-1.04-.83-.65-1.22-1.89-1.17-3.72v-23.18h-1.96c-.35,5.09-.74,8.75-1.18,10.97-1.04,5.18-3.35,9.29-6.92,12.34-4.35,3.61-9.99,5.77-16.91,6.46-.61.04-.94-.09-.98-.39.04-.39.28-.61.72-.65,4.26-1.87,7.53-4.53,9.79-7.97,2.92-4.31,4.38-11.23,4.38-20.76h-4.77c-.57,0-.85-.33-.85-.98,0-.57.28-.85.85-.85h24.35Zm-20.7-8.75c-.17.09-.33.2-.46.33-1.09.57-2.31.65-3.66.26-1.44-.44-2.44-1.26-3-2.48-.65-1.22-.72-2.5-.2-3.85.43-1.22,1.2-2.09,2.29-2.61,3.35-1.65,4.77-3.59,4.24-5.81-.04-.3.02-.52.2-.65.17-.13.39-.06.65.2.74.74,1.37,1.65,1.89,2.74h9.08c-1-1.18-1.5-2.42-1.5-3.72.22-3.31-.39-5.68-1.83-7.12-.26-.3-.37-.59-.33-.85.09-.22.35-.3.78-.26,4.09.13,7.31,1.24,9.66,3.33,1.13,1.05,1.79,2.24,1.96,3.59,0,1.79-.52,3.29-1.57,4.5-.22.17-.39.35-.52.52h5.35l2.61-3.26c.26-.39.52-.61.78-.65.26.04.61.22,1.04.52l6.07,4.24c1.31.87,2.05,1.65,2.22,2.35.22.83.13,1.59-.26,2.29-1,1.52-2.81,1.76-5.42.72-2.83-1.17-5.03-1.31-6.59-.39,4.14,3.31,6.2,5.16,6.2,5.55,0,.35-.09.61-.26.78-.13.09-.22.13-.26.13h-28.4c-.39,0-.65-.13-.78-.39Zm2.68-10.06c.04.09.09.2.13.33.83,3.26.43,6.03-1.18,8.29h14.62c3-4.09,4.7-6.14,5.09-6.14.17,0,.35.07.52.2.43-1.09.74-1.98.91-2.68h-20.11Z"/>
      <path class="cls-3" d="m80.2,593.52c.3-2.66.54-5.48.72-8.49h-21.22c-.57,0-.85-.33-.85-.98,0-.57.28-.85.85-.85h21.28c.09-1.96.13-3.94.13-5.94v-10.32c0-.43.09-.78.26-1.04.13-.22,3.79-.06,10.97.46,2.04.09,3.07.52,3.07,1.31.04.74-.48,1.33-1.57,1.76-.87.39-1.31,1-1.31,1.83v5.16c0,2.26-.09,4.53-.26,6.79h12.54c3.61-4.74,5.64-7.12,6.07-7.12.39,0,.8.2,1.24.59,3.09,2.66,5.57,4.77,7.44,6.33.43.44.65.81.65,1.11-.04.35-.15.61-.33.78-.09.09-.2.13-.33.13h-27.36c1.87,7.01,3.94,12.01,6.2,15.02,4.66,6.75,11.36,11.49,20.11,14.23,1.09.35,1.65.67,1.7.98.04.39-.2.72-.72.98-.87.44-1.72,1.52-2.55,3.26-1,2.18-1.65,4.7-1.96,7.57-.13,1.17-.33,1.78-.59,1.83-.39.13-1,0-1.83-.39-1.04-.61-2.02-1.2-2.94-1.76-9.23-5.96-15.28-17.5-18.15-34.6-.04.17-.06.39-.06.65-.78,5.79-2.31,10.97-4.57,15.54-5.4,10.58-14.89,17.5-28.47,20.76-.74.22-1.18.17-1.31-.13-.13-.39.02-.68.46-.85,5.53-2.61,10.34-6.86,14.43-12.73,4.4-6.35,7.14-13.64,8.23-21.87Z"/>
      <path class="cls-3" d="m70.56,667.58c.87,2.57,1.09,4.96.65,7.18-.57,2.48-1.83,4.33-3.79,5.55-1.17.78-2.55,1.02-4.11.72-1.66-.3-2.89-1.11-3.72-2.41-.87-1.22-1.09-2.63-.65-4.24.35-1.61,1.65-3.09,3.92-4.44,2.96-2.61,3.96-5.16,3-7.64-.09-.39-.04-.67.13-.85.22-.17.48-.11.78.2,1.22,1,2.24,2.37,3.07,4.11h26.38c2.52-2.35,4.7-7.44,6.53-15.28.39-2.74.78-4.18,1.17-4.31.3-.13.54-.13.72,0l8.55,4.5c1,.52,1.37,1.13,1.11,1.83-.17.39-.61.61-1.31.65-.78.09-1.33.39-1.63.91-2.92,4.14-7.27,8.03-13.06,11.69h7.9l3.66-4.18c.22-.3.46-.43.72-.39.26,0,.59.13.98.39l6.66,4.9c1.35.96,2.02,2.05,2.02,3.26-.18,2.44-1.63,3.46-4.38,3.07-4.14-.65-6.94-.52-8.42.39l2.02,1.31c1.18.7,1.63,1.37,1.37,2.02-.35.74-1.13,1.09-2.35,1.04-.7-.04-1.63.26-2.81.91-2.18,1.04-4.85,2.18-8.03,3.39.48,1.04.2,1.76-.85,2.16-.7.26-1.02.67-.98,1.24v2.94h11.03c3.31-4.44,5.18-6.66,5.62-6.66.35.04.74.22,1.17.52,3,2.53,5.38,4.53,7.12,6.01.39.39.59.74.59,1.04,0,.35-.09.61-.26.78-.17.09-.28.13-.33.13h-24.94v11.03c-.09,3.05-.68,5.05-1.76,6.01-1.83,1.83-4.77,2.48-8.81,1.96-1.09-.04-1.65-.59-1.7-1.63-.39-2.87-1.04-4.96-1.96-6.27-.96-1.35-2.61-2.18-4.96-2.48-.65-.17-.96-.39-.91-.65.09-.35.39-.5.91-.46,4.87.44,7.64.46,8.29.07.22-.22.35-.61.39-1.17v-6.4h-26.05c-.57,0-.85-.33-.85-.98,0-.57.28-.85.85-.85h26.05v-7.38c-.04-.22.02-.41.2-.59.13-.17.35-.26.65-.26l6.59.65c1.18-1.52,2.31-3.26,3.4-5.22h-21.55c-.65,0-.98-.33-.98-.98,0-.56.33-.85.98-.85h21.29l4.57-3.85c.22-.26.48-.39.78-.39s.74.2,1.31.59l2.16,1.44c.48-1.18.98-2.44,1.5-3.79h-35.65Zm3.66-16.84c2.52.74,4.33,1.79,5.42,3.13,1,1.17,1.52,2.57,1.57,4.18.09,1.66-.28,3.03-1.11,4.11-1.05,1.35-2.24,2.11-3.59,2.29-1.52.26-2.87-.09-4.05-1.04-1-.87-1.7-2.18-2.09-3.92-.57-2.26-1.07-3.94-1.5-5.03-.52-1.18-1.46-2.31-2.81-3.4-.22-.13-.3-.33-.26-.59.04-.26.28-.41.72-.46,2.61-.22,5.18.02,7.7.72Zm19.85-.52c1,1.22,1.52,2.63,1.57,4.24.04,1.65-.33,3-1.11,4.05-1.09,1.35-2.31,2.11-3.66,2.29-1.52.22-2.87-.15-4.05-1.11-.96-.87-1.63-2.18-2.02-3.92-.52-2.35-1.04-4.07-1.57-5.16-.52-1.13-1.46-2.29-2.81-3.46-.22-.13-.3-.33-.26-.59.04-.26.28-.41.72-.46,6.18-.43,10.58.94,13.19,4.11Z"/>
    </g>
  </g>
</svg>