<?xml version="1.0" encoding="UTF-8"?>
<svg id="_图层_2" data-name="图层 2" xmlns="http://www.w3.org/2000/svg" viewBox="0 0 395.6 155.49">
  <defs>
    <style>
      .cls-1 {
        fill: #5f0e13;
      }
    </style>
  </defs>
  <g id="_图层_1-2" data-name="图层 1">
    <g>
      <path class="cls-1" d="m395.23,113.91c.33.26.46.71.3,1.11-.32.82-1.03,1.41-1.9,1.6-3.77.79-7.55,1.6-11.32,2.4-5.22,1.11-10.36,2.69-15.3,4.7-1.81.73-3.77,1-5.71.81-3.38-.37-6.75-.3-10.12.2-2.39.35-4.79.61-7.2.81-2.46.18-4.91-.3-7.12-1.42-2.02-1-3.86-2.31-5.51-3.89-1.84-1.79-3.29-3.97-4.18-6.39-1.29-3.45-2.77-6.85-4.43-10.15-1.38-2.77-3.41-5.17-5.92-7.01-3-2.21-6.07-4.29-9.25-6.24-1.83-1.13-3.71-2.21-5.61-3.21-.29-.14-.58-.24-.91-.3-.52-.06-1.02.17-1.29.61-1.14,1.84-2.37,3.62-3.71,5.31-2.36,2.98-4.99,5.74-7.84,8.25-3.22,2.81-6.94,5.04-10.95,6.51-3.59,1.34-7.5,1.66-11.24.91-1.75-.34-3.47-.85-5.13-1.51-.62-.24-1.05-.82-1.11-1.51-.01-.32-.3-.56-.62-.55-.06,0-.12.02-.17.05-.67.27-1.45.02-1.81-.59-.88-1.48-2.1-2.69-3.51-3.62-1.14-.73-2.28-1.48-3.42-2.21-.68-.44-1.1-1.19-1.11-2.02-.02-1.63,1.28-3.01,2.92-3.09,2.16-.14,4.26-.87,6.04-2.12,1.02-.75,2.24-1.19,3.51-1.31,1.79-.17,3.62-.44,5.42-.79,2.74-.56,5.29-1.81,7.42-3.62,2.42-2.05,4.73-4.25,6.94-6.53.81-.84,1.46-1.84,1.9-2.91.38-.93.4-1.95.03-2.86-.56-1.41-1.54-2.65-2.81-3.48-1.99-1.32-3.54-3.21-4.43-5.42-.82-2.07-1.35-4.23-1.55-6.42-.12-1.11.17-2.22.76-3.16.46-.7,1.14-1.2,1.95-1.43,1-.3,2.07-.37,3.09-.17.36.04.71.04,1.06-.03,3.73-.81,7.23-2.4,10.24-4.75,1.22-.93,1.95-2.33,2.04-3.86.11-2.34.24-4.7.38-7.04.21-3.64-.09-7.27-.87-10.82-.62-2.83-1.28-5.66-1.93-8.49-.29-1.22-.61-2.39-.97-3.58-.3-1-.5-2.05-.58-3.09-.06-.79.3-1.58.96-2.04,1.02-.7,1.98-1.45,2.91-2.24.23-.2.47-.4.7-.59,0,0,.02,0,.02-.01.32-.26.79-.2,1.05.14.27.33.59.65.96.93.75.59,1.41,1.29,1.98,2.08,1,1.46,2.05,2.94,3.1,4.38,2.25,3.13,3.96,6.63,5,10.35.76,2.66,1.6,5.31,2.48,7.93.37,1.11.71,2.22,1.06,3.33.41,1.31.64,2.66.7,4.03.03.56.24,1.09.65,1.51.15.17.43.17.58,0,.03,0,.05-.03.06-.05.4-.59.82-1.14,1.29-1.69.47-.52.82-1.14,1.03-1.83.12-.33.26-.65.43-.99.14-.26.41-.43.72-.44.49-.02.9-.37.97-.87.05-.3.08-.64.06-.96,0-.12-.09-.21-.2-.2h-.04c-.06.01-.15.01-.24,0-.29-.06-.61.01-.82.24-.18.18-.4.33-.62.44-.06.03-.11.03-.15.01-.12-.04-.18-.17-.15-.27.15-.4.21-.81.24-1.22.03-.56.2-1.13.5-1.61.23-.35.52-.64.87-.87.59-.37.94-1.02.9-1.72-.05-.58.26-1.16.76-1.45.56-.33,1.2-.46,1.83-.35.59.11,1.19-.01,1.69-.29.49-.27.88-.65,1.17-1.12.2-.33.32-.7.36-1.08.05-.58.35-1.11.82-1.46.24-.17.5-.33.75-.49.59-.38,1.14-.81,1.64-1.29.43-.41,1.08-.49,1.61-.21.78.44,1.55.9,2.31,1.37,1.02.64,1.93,1.48,2.65,2.48.41.56.87,1.09,1.37,1.6.21.23.29.53.2.84v.03c-.11.24-.38.4-.65.29-.37-.14-.79-.14-1.16,0-.2.08-.29.27-.23.47.03.06.08.12.12.15.01.02.03.03.03.05.21.2.21.55,0,.75-.29.27-.67.44-1.08.47-.24.02-.46.08-.67.21-.09.06-.23.06-.33.02-.2-.09-.29-.3-.2-.5.08-.15.02-.33-.15-.41-.01-.02-.05-.03-.08-.03-.24-.05-.5-.02-.73.09-.14.05-.2.23-.14.37.03.06.08.11.14.14.18.08.32.23.37.41.06.24-.06.49-.3.58-.23.08-.33.33-.27.56.03.06.06.12.11.15.15.18.38.27.62.27.32-.02.64.03.96.12.23.06.38.27.4.5,0,.33.18.64.47.78.43.23.76.55.99.97.09.15.29.21.44.12.05-.03.11-.09.12-.12.18-.32.29-.67.33-1.03.03-.26.11-.5.24-.73.11-.23.08-.52-.11-.7-.29-.32-.35-.79-.14-1.17.26-.47.55-.91.87-1.34.32-.43.85-.58,1.34-.43.4.14.76.33,1.11.56.56.43,1,.97,1.26,1.63.2.53.38,1.05.58,1.58.05.18.17.33.32.46.26.18.43.49.44.81.06.76.2,1.49.43,2.22.14.37.23.76.3,1.14.2.93.15,1.87-.12,2.77-.15.55-.2,1.09-.12,1.66.14.97-.06,1.98-.56,2.81-1.54,2.54-3.62,4.7-6.13,6.27-.61.4-1.19.81-1.75,1.26-2.77,2.24-5.78,4.18-8.99,5.77-1.2.61-2.36,1.32-3.42,2.18-.4.32-.61.81-.61,1.31.02.44.17.85.4,1.2.81,1.28,1.84,2.4,3.04,3.33.96.73,1.93,1.41,2.94,2.07.97.62,1.72,1.54,2.13,2.62.35.9.67,1.83.93,2.77.37,1.29,1.1,2.48,2.07,3.39,1.57,1.46,3.06,3.01,4.47,4.62.61.7,1.25,1.4,1.9,2.07,1.49,1.52,2.81,3.19,3.99,4.96.73,1.09,1.57,2.13,2.51,3.06.38.37.88.58,1.42.59.24.01.47.12.62.32.4.55.79,1.08,1.17,1.61.87,1.16,1.87,2.19,2.97,3.1,1.11.9,1.9,2.12,2.25,3.5.24.99.71,1.87,1.37,2.63,1.32,1.54,2.84,2.91,4.5,4.06,1.34.93,3.03,1.31,4.64,1.02.87-.14,1.63-.65,2.12-1.4.4-.64,1.16-.94,1.89-.79,2.45.52,4.79,1.35,7.01,2.5,1.67.88,3.53,1.32,5.42,1.31,2.63-.02,5.26.3,7.79.99,1.98.53,3.99.94,6.02,1.22,1.08.14,2.1.55,3,1.19.27.2.53.4.79.59Z"/>
      <path class="cls-1" d="m248.56,50.55c.53,1.14.7,2.43.47,3.67-.64,3.62-2.74,6.82-5.83,8.79-3.18,2.05-6.15,4.41-8.86,7.04-2.16,2.1-4.15,4.35-5.96,6.77-1.73,2.33-2.78,5.11-3.01,8.02-.47,6.47-.43,12.96.17,19.43.41,4.47.52,8.98.35,13.46-.27,7.2-.61,14.38-.99,21.59-.15,2.86-.65,5.7-1.51,8.46-.75,2.43-1.75,4.78-2.98,7.01-.14.23-.33.41-.56.53-.67.35-1.51.11-1.86-.56-1.31-2.51-2.39-5.16-3.18-7.88-1.9-6.56-3.16-13.28-3.73-20.08-.44-5.4-.96-10.79-1.57-16.14-.52-4.53-.78-9.08-.78-13.65,0-1-.32-1.98-.91-2.77-.23-.3-.5-.58-.79-.81-.37-.3-.9-.33-1.28-.06-.87.61-1.84,1.05-2.86,1.34-.87.24-1.67.65-2.36,1.2-1.52,1.2-3.53,1.61-5.42,1.11-1.58-.43-3.13-.99-4.61-1.67-2.27-1.08-4.15-2.8-5.43-4.95-1.61-2.71-2.59-5.75-2.86-8.9-.18-2.22.14-4.47.91-6.56.99-2.65,1.95-5.28,2.88-7.94.58-1.63,1.13-3.25,1.67-4.9.3-.88.21-1.84-.23-2.65-.49-.84-.76-1.78-.79-2.75-.08-1.95-.06-3.89.04-5.83.11-1.54.26-3.07.47-4.61.15-1.11.85-2.05,1.84-2.53.5-.24,1.08-.23,1.58.01.56.3,1.16.56,1.76.78.17.05.34.11.5.17.17.03.33-.04.38-.21.03-.06.03-.12,0-.18-.06-.23-.14-.46-.21-.68-.11-.35-.37-.65-.7-.81-1.48-.73-2.63-1.99-3.23-3.51-.59-1.57-1.03-3.2-1.29-4.84-.21-1.34-.46-2.69-.73-4.03-.12-.61-.29-1.2-.49-1.8-.15-.4-.12-.82.04-1.2.18-.4.43-.75.75-1.04.43-.4.93-.67,1.49-.79,1.28-.56,2.71-.61,4-.11.88.35,1.72.78,2.51,1.31,1.32.87,2.75,1.58,4.23,2.11,1.58.56,3,1.4,4.26,2.48,1.05.93,1.95,2.01,2.66,3.21.27.47.78.75,1.32.75.43-.01.78-.36.78-.81,0-.03,0-.06-.02-.09-.08-.55-.09-1.11-.06-1.66.21-2.95.2-5.9-.02-8.84-.08-.93.15-1.87.67-2.66.4-.61.58-1.31.56-2.05-.01-.27.08-.55.26-.78.26-.32.38-.75.29-1.16-.15-.75.11-1.52.7-2.04.3-.24.67-.4,1.06-.46.49-.08.99-.2,1.48-.37.56-.21,1.2-.08,1.63.37.91.93,1.93,1.78,3.01,2.53.72.49,1.32,1.12,1.78,1.86,1.04,1.72,2.07,3.42,3.07,5.14,1.98,3.35,3.41,7.01,4.21,10.82.2.94.36,1.92.47,2.87.41,3.07.41,6.19,0,9.27-.49,3.85-.84,7.7-1.04,11.56-.11,2.08-.17,4.17-.2,6.27v1.95c0,.29.24.53.55.53.15,0,.3-.08.41-.18.64-.76,1.46-1.34,2.39-1.7,1.14-.46,2.16-1.16,2.98-2.07,1.28-1.4,2.62-2.72,4.03-3.99,1.13-.99,1.86-2.37,2.05-3.86.35-2.36.37-4.75.11-7.12-.55-5.11-.58-10.25-.09-15.37.11-.96.33-1.87.68-2.72.11-.32.37-.55.67-.62.3-.11.62-.04.9.12.93.62,1.63,1.57,1.92,2.66.71,2.56,1.48,5.11,2.3,7.64.52,1.57.96,3.16,1.35,4.75.09.32.17.61.23.93.36,1.54.9,3.03,1.55,4.47Zm-40.64,22.75c.14-3.15.18-6.3.17-9.45-.02-4.87-.21-9.72-.59-14.59-.03-.43-.41-.76-.84-.71-.08,0-.14.02-.2.03-.59.2-1.22.26-1.84.15-1.03-.17-2.07-.24-3.12-.2-.76.03-1.51-.15-2.16-.52-.49-.3-1.09-.3-1.6-.03-.47.27-.9.59-1.28.97-.53.53-.81,1.29-.75,2.04.06.69.17,1.35.29,2.02.21,1.1.5,2.18.9,3.23.43,1.11.49,2.34.18,3.5-.72,2.62-1.58,5.17-2.6,7.68-.26.65-.35,1.34-.3,2.05.06,1.58.05,3.15-.06,4.73.38,1.52.3,3.12-.2,4.58-.33.96-.27,2.01.15,2.92.26.55.75.94,1.34,1.08.88.21,1.81.24,2.72.12,1.67-.24,3.33-.56,4.99-.97,1.08-.27,2.13-.71,3.09-1.31.84-.53,1.37-1.43,1.43-2.42.11-1.64.21-3.27.27-4.91Z"/>
      <path class="cls-1" d="m186.17,43.06c.12.04.17.17.12.29-.49,1.26-.96,2.53-1.38,3.82-.59,1.81-1.41,3.56-2.45,5.19-.23.37-.43.76-.59,1.17-.17.35-.23.75-.2,1.11.02.53-.18,1.05-.52,1.43-.7.79-1.26,1.67-1.64,2.65-.78,1.87-1.89,3.61-3.26,5.1-1.23,1.34-2.28,2.83-3.15,4.46-.32.58-.62,1.16-.93,1.75-.33.64-.64,1.28-.93,1.95-.41.96-.99,1.87-1.66,2.68-.96,1.13-1.79,2.34-2.51,3.62-.4.71-1.07,1.25-1.86,1.48-1.26.38-2.12,1.57-2.04,2.88.03.58-.14,1.13-.47,1.61-.64.91-.91,2.04-.75,3.13.44,2.83.71,5.67.85,8.52.11,2.86.38,5.72.82,8.54.18,1.07.29,2.16.38,3.24.05.65.02,1.31-.11,1.95-.06.37-.26.68-.56.93-.96.75-2.12,1.26-3.33,1.48-1.34.24-2.72.21-4.08-.09-1.16-.26-2.27-.65-3.33-1.2-.76-.4-1.38-.96-1.84-1.66-.91-1.38-1.66-2.85-2.24-4.37-.5-1.29-.68-2.69-.56-4.06.08-.7.14-1.37.18-2.05.08-.78.14-1.55.2-2.31.03-.35-.17-.68-.46-.84-.32-.15-.7-.2-1.03-.09-.44.14-.88.32-1.29.55-.64.37-1.11.96-1.29,1.67-.2.71-.55,1.38-1.02,1.95-.67.79-1.54,1.4-2.51,1.76-.5.18-1.05.29-1.57.27-.55,0-1.08-.2-1.49-.56-.37-.3-.9-.26-1.2.11-.09.09-.21.17-.35.21-.33.06-.68-.15-.78-.49-.02-.15-.17-.23-.29-.2-.08.02-.14.03-.17.09-.35.52-.94.84-1.57.84-.7.01-1.37-.26-1.86-.73-.23-.23-.52-.37-.84-.38-.41-.03-.82.03-1.2.2-.12.03-.29.03-.41,0-.3-.12-.44-.46-.33-.75.14-.33.15-.7.09-1.02-.14-.72-.82-1.19-1.52-1.07-.06.02-.11.02-.14.03-.38.12-.78-.09-.91-.44-.14-.38.06-.81.44-.94.29-.11.46-.43.33-.73-.08-.23-.29-.38-.53-.38-.05,0-.12,0-.18-.01-.84-.12-1.41-.91-1.29-1.73.09-.56.27-1.11.56-1.58.24-.43.5-.87.73-1.29.04-.06.09-.12.14-.15.2-.09.43-.04.52.15.11.17.11.38,0,.55-.24.43-.32.91-.27,1.4.05.4.29.75.65.93.12.06.29.01.37-.11.7-.99,1.45-1.95,2.22-2.88.71-.84,1.35-1.73,1.95-2.68.17-.27.43-.47.75-.56.38-.11.61-.5.5-.9,0-.05-.01-.08-.04-.11-.29-.61-.12-1.34.36-1.76,1.61-1.37,2.95-3.01,4-4.82.44-.79.97-1.54,1.57-2.22.26-.32.38-.71.27-1.11-.03-.18-.18-.29-.37-.27-.53.03-1.06.11-1.58.27-1.6.47-3.24.78-4.9.93-1.25.09-2.45.49-3.53,1.1-.9.53-1.99.61-2.95.2-.56-.23-1.08-.58-1.49-1.02-.32-.33-.81-.41-1.2-.18-.44.24-.93.43-1.4.55-.38.11-.72.33-.93.65-.14.2-.33.32-.58.37-.47.08-.91-.26-.99-.75-.05-.24-.23-.46-.47-.55-.73-.26-1.48-.47-2.22-.65-.76-.17-1.23-.9-1.11-1.66.09-.62-.08-1.28-.47-1.76-.41-.52-.32-1.26.2-1.67.73-.58,1.49-1.1,2.31-1.57.79-.44,1.7-.62,2.59-.46.99.15,1.98.3,2.97.46.43.06.87.06,1.31,0,.78-.12,1.54-.41,2.22-.84.46-.3.96-.52,1.48-.64.27-.08.56-.15.84-.18.53-.11,1.07-.14,1.57-.11.49.03.93-.27,1.03-.75.12-.44.41-.82.84-1.02.85-.4,1.75-.73,2.69-.94.88-.21,1.75-.49,2.59-.82,3.3-1.37,6.36-3.27,9.01-5.66.81-.75,1.7-1.4,2.68-1.95.38-.21.78-.37,1.2-.47,1.95-.41,3.42-2.01,3.71-3.97.14-1,.46-1.98.93-2.89.4-.73.9-1.43,1.48-2.02.27-.27.38-.65.29-1.02-.08-.29-.37-.44-.62-.38t-.03.02c-.33.09-.68.18-1.02.27-.33.08-.68-.01-.93-.27-.17-.2-.44-.2-.62-.03t-.03.03c-.35.38-.88.52-1.38.37-.58-.18-1.17-.37-1.76-.56-.18-.04-.37-.08-.55-.09-.67-.02-1.32.18-1.87.56-.58.41-1.2.78-1.84,1.11-.87.44-1.75.91-2.59,1.38-1.58.88-3.12,1.81-4.64,2.78-1.11.72-2.24,1.43-3.35,2.13-.58.36-1.13.78-1.66,1.2-.26.21-.61.32-.93.29-.4-.04-.7-.37-.75-.75-.08-.73.12-1.46.55-2.04.81-1.08,1.73-2.05,2.8-2.91,1.14-.91,2.11-2.04,2.86-3.33,1.28-2.18,2.69-4.25,4.26-6.19.93-1.14,1.86-2.25,2.8-3.35.7-.81,1.4-1.61,2.13-2.42.33-.38.81-.68,1.31-.84.49-.17.91-.5,1.2-.93,1.08-1.64,2.01-3.38,2.77-5.2.65-1.55,1.37-3.1,2.13-4.61.37-.73.94-1.28,1.67-1.58.4-.17.82-.26,1.23-.24.29,0,.58-.09.79-.27,1.4-2.42,2.31-5.1,2.69-7.87.15-1.2.43-2.37.81-3.53.37-1.07.76-2.12,1.2-3.15.47-1.08.75-2.22.84-3.41.14-1.95,1.83-3.44,3.79-3.33,1.31.08,2.56.53,3.59,1.29,1.13.82,1.95,1.95,2.4,3.24.81,2.24,1.61,4.5,2.4,6.74.87,2.4,1.49,4.87,1.86,7.39.18,1.22.27,2.45.29,3.7.02,2.97-.76,5.89-2.22,8.49-.9,1.58-2.31,2.81-3.99,3.5-1.16.49-2.05,1.41-2.48,2.59-.24.65.08,1.38.73,1.63.06.01.12.01.18.03,1.52.32,2.92,1.02,4.06,2.07.62.56,1.32,1.06,2.05,1.48.87.5,1.45,1.38,1.55,2.4.12.93-.01,1.89-.37,2.75-.05.14-.11.26-.17.38-.44.85-1.16,1.55-2.05,1.95-1.46.64-2.74,1.66-3.7,2.95-.62.84-1.4,1.57-2.3,2.12-.56.35-1.2.55-1.86.55-.91.03-1.75.52-2.22,1.31-1.08,1.78-1.76,3.77-2.02,5.84-.24,1.87-.62,3.71-1.13,5.54-.44,1.63-.62,3.3-.55,4.99.03.38.06.75.09,1.11.03.26.26.44.52.41.05-.02.09-.03.14-.05.67-.3,1.29-.7,1.84-1.2,4.09-3.7,7.61-8,10.45-12.73,1.79-3.01,3.58-6.02,5.36-9.07.32-.55.64-1.1.96-1.64,1.22-2.08,2.45-4.18,3.65-6.3.17-.26.46-.43.76-.43.03.02.06.02.09.03Z"/>
      <path class="cls-1" d="m102.93,112.91c.18,2.21-.21,4.4-1.14,6.39-.9,1.9-2.59,3.32-4.61,3.83-2.71.71-5.58.53-8.19-.5-2.48-.99-4.99-1.89-7.55-2.69-2.48-.78-4.78-2.04-6.77-3.7-.85-.7-1.8-1.26-2.81-1.66-.49-.2-1.02-.09-1.41.24-.46.43-1.03.68-1.66.78-1.61.21-3.24.21-4.85,0-2.46-.33-4.97-.29-7.42.12-6.37,1.08-12.87,1.26-19.31.52-.88-.11-1.73-.46-2.43-1.02-1.28-1.05-2.33-2.36-3.06-3.83-.32-.64-.61-1.28-.9-1.92-.46-1.05-.68-2.19-.64-3.33.03-.97.81-1.75,1.79-1.78.81-.03,1.63-.12,2.42-.26.93-.17,1.87.05,2.63.58.43.3.87.53,1.35.71.7.26,1.46.3,2.19.14.7-.15,1.41-.27,2.13-.35,2.18-.23,4.35-.32,6.53-.29.84.02,1.69-.11,2.48-.35.73-.23,1.43-.56,2.07-.99.7-.49,1.57-.68,2.4-.58.65.09,1.31.02,1.92-.21.52-.18.79-.76.59-1.29-.03-.06-.06-.12-.09-.18-.29-.46-.56-.93-.79-1.43-.09-.2-.06-.46.08-.64.11-.12.12-.29.08-.43l1-.14c0,.15.08.29.21.38,1.11.73,2.22,1.45,3.33,2.16.62.38,1.22.82,1.79,1.29.12.11.26.21.4.32,2.33,1.79,4.9,3.21,7.65,4.2,2.17.79,4.26,1.75,6.27,2.89,2.5,1.42,5.25,2.27,8.09,2.53,1.72.15,3.44.21,5.16.2.7,0,1.32-.38,1.67-.97.5-.88.78-1.87.81-2.89.12-3.99,0-7.97-.37-11.94-.18-2.14-.21-4.31-.09-6.45.05-.62-.03-1.25-.21-1.86-1.16-3.73-1.54-7.67-1.11-11.56.11-.96.11-1.92,0-2.88-.49-4.37-.56-8.78-.23-13.16.01-.23.01-.44,0-.67-.03-.38-.05-.76-.05-1.14.02-.24-.06-.47-.2-.65-.27-.4-.38-.87-.32-1.35.21-1.67.23-3.38.03-5.07-.03-.29-.06-.59-.11-.88-.46-3.13-.55-6.33-.27-9.48.03-.41-.11-.82-.38-1.13-.41-.47-.58-1.11-.44-1.73.26-1.17.33-2.39.23-3.59-.05-.43-.17-.84-.38-1.2-.33-.59-.52-1.26-.52-1.95-.03-1.75-.08-3.5-.15-5.23-.06-1.17-.32-2.3-.76-3.38-.85-2.08-1.99-4.05-3.36-5.84-1.07-1.38-2.33-2.59-3.76-3.59-1.63-1.16-3.54-1.81-5.54-1.87-3.2-.12-6.41.18-9.52.9-2.22.5-4.43,1.09-6.59,1.79-.78.24-1.6.37-2.4.37-.91.01-1.81.21-2.62.61-2.57,1.23-5.13,2.51-7.65,3.82-3.77,1.96-7.3,4.35-10.51,7.12-.93.81-1.87,1.58-2.84,2.33-.37.27-.84.33-1.25.18-.26-.11-.44-.3-.53-.55-.06-.18-.03-.37.06-.53,3.38-6.27,8.19-11.65,14.01-15.73,3.12-2.18,6.54-3.83,10.18-4.94,2.42-.75,4.9-1.31,7.41-1.66,2.71-.38,5.43-.55,8.15-.47,2.37.06,4.73.3,7.06.7,1.81.32,3.59.85,5.28,1.6,1.76.78,3.33,1.95,4.56,3.42,1.78,2.15,3.42,4.38,4.93,6.73.39.59.68,1.26.85,1.96.08.29.11.59.12.88,0,.14.04.24.12.35.23.27.41.58.53.91.14.37.12.76-.03,1.11-.08.2-.01.43.15.55.21.17.33.4.33.65.17,4.37.71,8.72,1.64,12.99.72,3.27,1.1,6.6,1.14,9.96.11,6.24.53,12.46,1.29,18.65.32,2.63.49,5.28.5,7.93.03,3.88.03,7.74,0,11.62-.01,1.67.33,3.33,1.02,4.85.26.58.4,1.2.4,1.83-.05,6.95.21,13.91.76,20.83Z"/>
      <path class="cls-1" d="m83.44,71.88v1.34c-.02.5-.44.9-.94.88-.5,0-.94.32-1.08.81-.17.64-.23,1.31-.17,1.96.03.49-.18.94-.59,1.22-.59.4-1.35.44-2.01.12-.88-.44-1.6-1.19-2.01-2.1-.27-.62-.99-.96-1.64-.75-.43.12-.88-.02-1.17-.37-.17-.21-.47-.27-.71-.14-.73.43-1.4.93-2.01,1.52-.29.29-.59.58-.9.85-.15.14-.34.24-.53.3-.75.23-1.52-.2-1.73-.93-.26-.82-.21-1.72.12-2.51.47-1.11.67-2.31.59-3.51-.06-.68-.12-1.37-.2-2.05-.2-1.29-.35-2.6-.46-3.92-.03-.47.14-.94.47-1.29.3-.32.73-.52,1.19-.52.7-.02,1.42.02,2.13.09,1.37.15,2.69.56,3.89,1.2,1.38.75,2.62,1.73,3.64,2.92.91,1.05,1.93,1.99,3.04,2.82.65.47,1.05,1.23,1.08,2.05Z"/>
      <path class="cls-1" d="m70.41,92.86c.29.3.44.71.41,1.14-.06.68-.11,1.38-.15,2.07-.03.35-.15.68-.33.99-.29.44-.78.71-1.29.75-.49.05-.97.11-1.45.21-.38.08-.75.14-1.12.2-1.89.29-3.8.32-5.71.09-.49-.06-.97-.08-1.46-.05-.17.02-.29.14-.32.29-.01.03-.01.08-.01.11l-1,.14s-.05-.09-.08-.14c-.17-.23-.43-.38-.72-.43-.79-.14-1.61-.14-2.4,0-.56.09-1.13-.06-1.57-.43-.61-.52-1.41-.76-2.22-.65-1.1.14-2.19.17-3.29.11-.32-.01-.65.09-.9.3-.21.18-.5.24-.79.18-.29-.06-.58-.09-.88-.08-.23,0-.44-.12-.55-.32-.09-.17-.27-.26-.46-.23-.93.17-1.89.23-2.83.18-.52-.03-1.04-.06-1.55-.09-1.16-.06-2.25-.56-3.06-1.38-.71-.73-1.25-1.63-1.57-2.59-.23-.7-.37-1.4-.4-2.13-.01-.27-.18-.53-.43-.65-.34-.17-.47-.58-.32-.91.14-.29.33-.55.59-.75.18-.14.26-.4.15-.62-.21-.47-.23-1-.08-1.49.08-.21.14-.44.2-.67.06-.21.24-.38.47-.43.17-.03.29-.2.26-.38-.02-.08-.06-.17-.14-.21-.21-.12-.44-.2-.67-.23-.49-.06-.96.04-1.38.27-.33.18-.75.26-1.12.2-.49-.08-.9-.37-1.16-.78-.3-.5-.71-.91-1.22-1.22-.4-.24-.71-.59-.93-1-.37-.71-.58-1.49-.64-2.28-.08-1.02-.2-2.02-.37-3.01-.11-.64.03-1.31.37-1.86.3-.52.59-1.05.85-1.58.32-.65.73-1.25,1.22-1.79.27-.29.35-.7.21-1.07-.14-.38.02-.81.37-1,.27-.17.47-.41.58-.72.08-.27.37-.43.64-.36.67.17,1.37.12,2.01-.14.32-.12.53-.44.55-.78.06-1.6.27-3.16.65-4.72.11-.41-.09-.85-.49-1.06-.55-.29-1.02-.72-1.37-1.23-.29-.41-.75-.65-1.23-.67-.06,0-.12,0-.17-.01-.49-.09-.81-.58-.71-1.07.11-.49-.03-1-.35-1.38-.17-.18-.2-.44-.08-.65.21-.41.12-.91-.23-1.23-.18-.17-.38-.33-.58-.5-.34-.29-.43-.78-.21-1.16.3-.58.21-1.26-.21-1.75-.21-.23-.4-.5-.52-.79-.14-.35-.29-.68-.43-1.02-.03-.05-.05-.09-.06-.15-.11-.44.18-.9.64-1,.53-.12,1.03-.38,1.45-.73.5-.43,1.2-.53,1.81-.29.64.26,1.37.08,1.83-.44.17-.18.4-.29.65-.29.5.02,1-.11,1.45-.35.46-.26.94-.46,1.45-.59.65-.17,1.28-.38,1.89-.64.68-.3,1.46-.38,2.19-.23.3.08.62-.01.87-.21.26-.23.59-.38.94-.44.78-.12,1.57.03,2.25.44.43.26.94.37,1.45.29.94-.14,1.9.15,2.62.79.27.26.64.4,1.02.37.55-.03,1.08.26,1.37.73.15.26.32.49.52.73.18.23.27.5.29.79,0,.5.37.93.87,1.02.37.06.73.15,1.08.29.3.11.52.35.59.65.09.44.29.87.58,1.23.38.49.49,1.14.29,1.73-.23.68-.27,1.4-.15,2.1.08.38.02.76-.14,1.09-.14.29-.02.62.26.76.03.02.06.03.11.03.06.02.11.06.15.11.14.14.12.35-.02.49-.35.33-.53.81-.5,1.29.03.46-.17.88-.52,1.17-.26.21-.44.52-.5.87-.06.33.03.67.21.94.18.26.49.4.81.37.81-.09,1.61-.02,2.39.21.99.29,1.96.65,2.91,1.08,1.14.53,2.16,1.31,2.97,2.25.7.81,1.09,1.84,1.09,2.91,0,.85.06,1.69.15,2.54.02.18-.05.37-.15.5-.2.26-.46.47-.75.61-.55.26-1.03.62-1.45,1.07-.58.62-1.13,1.29-1.63,1.98-.33.47-.76.88-1.25,1.2-.26.15-.4.43-.4.71-.01.27-.09.52-.24.73-.21.27-.46.52-.73.73-.26.2-.56.32-.9.37-.12.01-.21.09-.27.2-.32.62-.78,1.16-1.34,1.58-.18.14-.34.33-.4.56-.09.24-.26.47-.49.61-.53.3-.99.75-1.29,1.28-.09.15-.15.3-.21.46-.14.38-.17.79-.09,1.19.06.27.18.52.38.73.18.2.47.29.73.21.93-.2,1.89-.18,2.78.08,1.73.49,3.5.88,5.28,1.16.68.11,1.32.38,1.87.78.82.61,1.7,1.13,2.62,1.57.5.24.93.61,1.26,1.05.32.43.65.84,1.02,1.22Z"/>
      <path class="cls-1" d="m29.62,35.17c.82.79,1.23,1.92,1.1,3.06-.08.67-.12,1.34-.14,2.01-.02.67.01,1.34.09,1.99.06.44-.2.87-.61,1.03-.17.08-.37.12-.55.14-.35.03-.68.08-1.03.14-.29.04-.53.27-.59.56-.12.46-.5.81-.97.88-.27.06-.55-.05-.71-.27-.05-.04-.08-.12-.09-.2.15-.84-.43-1.64-1.26-1.78-.12-.03-.26-.03-.4-.02-.9.08-1.7.61-2.11,1.41-.4.78-.93,1.48-1.57,2.07-2.07,1.9-3.61,4.29-4.49,6.97-1.7,5.22-3.09,10.53-4.14,15.91-1.37,7.01-2.53,14.07-3.45,21.16-.32,2.4-.29,4.84.09,7.23.14.85.2,1.72.18,2.57-.02.59.32,1.13.84,1.37.14.06.27.03.38-.06.26-.2.43-.5.46-.84.14-1,.24-2.02.3-3.03.08-.91.47-1.78,1.13-2.42.26-.24.67-.27.96-.05.21.17.38.38.49.64.71,1.7.75,3.64.09,5.37-.81,2.13-1.03,4.43-.65,6.66.46,2.6,1.63,5.02,3.42,6.95.75.82,1.37,1.73,1.84,2.72.14.29.24.61.27.93.05.27.02.56-.09.84-.32.88-1.32,1.34-2.21,1-.61-.23-1.28.01-1.61.56-.43.67-1.16,1.08-1.95,1.1-.67.01-1.31-.27-1.75-.78-.29-.35-.81-.38-1.16-.09-.08.06-.14.14-.18.23-.05.08-.09.14-.15.2-.3.27-.78.24-1.05-.06-.2-.23-.52-.27-.79-.14-.3.17-.62.35-.91.55-.15.11-.3.17-.47.18-.62.09-1.2-.35-1.28-.96-.17-1.16-.76-2.22-1.67-2.95-1.37-1.13-2.16-2.8-2.16-4.56,0-1.28-.21-2.54-.61-3.74-.21-.68-.32-1.4-.27-2.12.21-3.73.21-7.44-.02-11.15-.27-4.35-.17-8.72.33-13.04.38-3.29,1.14-6.53,2.3-9.63,1.57-4.25,2.81-8.6,3.74-13.04.49-2.28,1.2-4.53,2.13-6.69,1.49-3.47,3.18-6.86,5.07-10.13,1.83-3.18,4.2-6.01,7.01-8.37,1.4-1.17,3.16-1.83,4.99-1.86,1.45-.02,2.84.52,3.89,1.52Z"/>
    </g>
  </g>
</svg>