<svg xmlns="http://www.w3.org/2000/svg" xml:space="preserve" id="Layer_1" x="0" y="0" version="1.1" viewBox="0 0 448 502"><style>.st0{fill:#000061}</style><path d="M234.5 481.4c4.8-5.4 9.9-11.2 13.5-14.8 7.1-7.1 14.4-7 14.4-7s-8.4-4.1-17.2 4.7c-2.4 2.4-7.7 8.4-13.1 14.5-2-2.2-3.9-4.4-5.7-6.4 2-2.2 3.9-4.2 5.4-5.8 7.1-7.1 14.4-7 14.4-7s-8.4-4.1-17.2 4.7c-1.1 1.1-2.9 3.1-5 5.4-2.1-2.4-3.9-4.3-5-5.4-8.8-8.8-17.2-4.7-17.2-4.7s7.3-.1 14.4 7c1.6 1.6 3.4 3.6 5.4 5.8-1.8 2-3.8 4.2-5.7 6.4-5.4-6.1-10.8-12.1-13.1-14.5-8.8-8.8-17.2-4.7-17.2-4.7s7.3-.1 14.4 7c3.6 3.6 8.7 9.4 13.5 14.8-4.5 5.1-8.9 9.9-11.3 12.3-5.9 5.9-12.8 6.4-12.8 6.4s7.4 4.3 17.5-6c1.9-1.9 5.2-5.7 9-10 2.1 2.3 4 4.5 5.6 6.3-1.2 1.3-2.3 2.5-3.1 3.3-5.9 5.9-12.8 6.4-12.8 6.4s7.4 4.3 17.5-6l.9-.9c.3.3.6.7.9.9 10.1 10.3 17.5 6 17.5 6s-6.9-.5-12.8-6.4c-.8-.8-1.9-2-3.1-3.3 1.6-1.8 3.6-4 5.6-6.3 3.8 4.3 7.1 8.1 9 10 10.1 10.3 17.5 6 17.5 6s-6.9-.5-12.8-6.4c-2.5-2.4-6.8-7.2-11.3-12.3m-10.5 6.4c-1.8-1.9-3.7-4.1-5.7-6.3 1.9-2.1 3.8-4.3 5.7-6.4 1.9 2.1 3.8 4.3 5.7 6.4q-3 3.3-5.7 6.3M38.8 176.7c1.1 3.5 4.3 5.6 8.3 5.6 1.2 0 2.4-.2 3.5-.6.1.2.3.5.5.8q.9 1.2 2.1 2.1c.3.2.5.3.8.3q.75 0 1.2-.6c.5-.7.3-1.6-.4-2.1-.5-.4-1-.8-1.4-1.4-.1-.1-.2-.2-.2-.3 1.6-1 2.9-2.2 3.7-3.7 1-1.9 1.2-4 .6-6-.6-1.9-2.2-2.5-3-2.6-.1 0-.2 0-.3.1-.1-.5-.2-1-.4-1.5-1.5-4.6-5.6-8.3-8.8-8-.4-.3-1-.7-1.8-.4-.8.2-1.1.9-1.2 1.4-.8.4-1.5 1.2-2 2.2-1.3 2.6-1.6 6.2-.6 9.4.2.5.3.9.5 1.4-.1 0-.2.1-.3.1-.5.5-1.4 1.9-.8 3.8m16.1-4.3c.2 1 0 2-.5 3-.8 1.6-2.5 2.9-4.6 3.5-.9.3-1.8.4-2.7.4-2.4 0-4.3-1.1-5.2-2.9 1 .2 2 .3 2.6.3 1.5 0 3-.2 4.5-.7 2.4-.7 4.6-2.1 5.9-3.6m-12.2-9c.4-.7.7-1 1-1.1s.5-.2.7-.4c.2.1.5 0 .8-.1 1.2-.4 4.6 2.1 5.8 5.9.4 1.2.5 2.5.5 3.8-.8.6-2 1.3-3.5 1.8q-1.8.6-3.6.6h-.3c-.7-1-1.3-2.1-1.7-3.3-.9-2.9-.5-5.7.3-7.2M73.2 201.5c2 0 3.1-1.4 3.3-2.2v-.3c.4 0 .8.1 1.2.1h.3c3.3-.1 6.7-1.5 8.7-3.6.8-.8 1.3-1.8 1.5-2.6.4-.3.9-.7.9-1.5s-.5-1.3-1-1.6c-.8-3.1-5.5-5.9-10.4-5.8-.5 0-1 .1-1.5.1v-.3c-.3-.8-1.3-2-3.4-2-2.4.1-4.6 1.2-6.1 3.1-.8 1.1-1.4 2.5-1.8 3.9-.1 0-.2-.1-.3-.1-.7-.2-1.2-.5-1.8-.9-.7-.5-1.6-.4-2.1.3s-.3 1.6.3 2.1c.8.6 1.7 1 2.6 1.4q.6.15.9.3c.2 5.6 3.7 9.6 8.4 9.6zm4.6-14.5c3.9-.1 7.4 2.4 7.5 3.6 0 .3.1.6.2.8-.1.2-.2.5-.2.8 0 .2-.2.7-.7 1.3-1.2 1.2-3.7 2.6-6.6 2.6-1.3 0-2.6-.2-3.7-.5-.4-1-.7-2.3-.7-3.9s.2-2.9.5-3.9c1.2-.5 2.4-.8 3.7-.8m-10.2 4.7c-.1-1.9.5-3.7 1.5-5 .6-.8 1.6-1.6 3.1-1.9-1 1.7-1.6 4.3-1.5 6.8s.8 5.1 1.9 6.8c-2.9-.3-4.9-3-5-6.7M57.1 273.8c.3-1.1.3-2.2 0-3 .2-.4.4-1.1 0-1.8s-1.1-.8-1.6-.9c-2.2-2.3-7.8-2.3-11.9.2-.4.3-.8.5-1.2.8-.1-.1-.1-.2-.2-.2-.1-.1-.9-.6-2-.6-.7 0-1.3.2-2 .6-2.1 1.3-3.4 3.3-3.8 5.8-.2 1.4 0 2.9.4 4.3-.1 0-.2 0-.3.1-.7.1-1.3.2-2 .1-.8-.1-1.6.5-1.7 1.3s.5 1.6 1.3 1.6c.3 0 .7.1 1 .1.6 0 1.3-.1 1.9-.2.4-.1.7-.2.9-.2 2 3.2 5 5.2 8.2 5.2 1.4 0 2.8-.4 4-1.1 1.7-1 2-2.7 1.8-3.5 0-.1-.1-.2-.1-.3.4-.2.9-.5 1.3-.7 3-1.9 5.3-4.8 6-7.6m-12-3c3.4-2 7.6-1.6 8.2-.6q.3.45.6.6c0 .2.1.5.2.8.1.2.2.7 0 1.5-.4 1.6-2 4.1-4.4 5.6-1.1.7-2.3 1.1-3.5 1.4-.8-.7-1.8-1.7-2.6-3-.8-1.4-1.2-2.6-1.5-3.7.9-1.1 1.9-1.9 3-2.6m-6.5 9.2c-1-1.7-1.4-3.5-1.2-5.1.1-1 .5-2.2 1.7-3.2 0 2 .7 4.5 2 6.7s3.2 4 5 4.9c-2.5 1.2-5.7-.2-7.5-3.3M4.9 276.9c.4.4.8.7 1.1 1l-.2.2c-.3.8-.4 2.5 1 3.9q2.25 2.1 5.4 2.1c2.6 0 5.4-1.3 7.5-3.5.2.1.5.3.9.4.9.4 1.9.7 2.9.8h.1c.8 0 1.4-.6 1.5-1.4s-.5-1.5-1.4-1.6c-.7-.1-1.3-.2-1.9-.5-.1-.1-.2-.1-.3-.1.9-1.6 1.4-3.4 1.3-5-.1-2.1-.9-4-2.5-5.5-.9-.9-1.9-1.1-2.5-1.1-.7 0-1.2.2-1.4.3-.1 0-.2.1-.2.2-.3-.4-.7-.8-1-1.1-3.5-3.3-8.9-4.5-11.6-2.7-.5-.1-1.2-.1-1.8.5-.5.6-.5 1.3-.4 1.8q-.75 1.2-.6 3c.1 2.7 1.7 6 4.1 8.3m15-3.7c.1 1.8-.8 3.7-2.3 5.3s-3.5 2.6-5.3 2.6q-1.5 0-2.7-.9c1.9-.5 4.1-1.9 5.9-3.8s3-4.2 3.4-6.1c.6.8.9 1.8 1 2.9m-15.7-6.3c.2-.2.3-.5.4-.7.2-.1.5-.2.7-.4.8-.9 5.1-.4 8 2.3 1 .9 1.7 1.9 2.3 3-.4 1-1.1 2.1-2.2 3.3-1.1 1.1-2.2 1.9-3.2 2.4-1.1-.5-2.1-1.2-3.1-2.1-2.1-2-3.1-4.7-3.1-6.4-.2-.7 0-1.2.2-1.4M69.9 357.5c-.3-1.1-.8-2-1.5-2.6 0-.5-.2-1.2-.8-1.5-.7-.4-1.4-.2-1.8 0-3-1-7.9 1.7-10.3 5.9-.2.4-.5.9-.7 1.3-.1 0-.2-.1-.3-.1h-.4c-1.3 0-2.4.7-3.1 1.9-2 3.4-1 7.5 2 10.4-.1.1-.2.1-.3.2-.5.5-1.1.8-1.7 1-.8.3-1.1 1.2-.8 2 .2.6.8.9 1.4.9.2 0 .4 0 .6-.1.9-.4 1.8-.9 2.5-1.6.3-.2.5-.5.7-.6 1.8 1 3.7 1.6 5.6 1.6 3.1 0 5.6-1.5 7.1-4 1-1.8.4-3.3-.1-4-.1-.1-.2-.1-.2-.2.3-.4.6-.8.8-1.3 1.5-2.8 2-6.4 1.3-9.2M58 360.8c2-3.4 5.9-5.1 6.9-4.5.3.2.5.2.8.2.1.2.3.4.6.5.2.1.5.5.7 1.3.4 1.6.3 4.5-1.2 7-.7 1.1-1.4 2.1-2.3 2.8-1.1-.2-2.4-.6-3.8-1.4s-2.4-1.7-3-2.5c.2-1.1.6-2.3 1.3-3.4M56.7 372c-2.7-1.6-4.7-4.6-3.5-7.5.9 1.7 2.8 3.6 5 4.9s4.8 2 6.7 1.9c-1.6 2.2-5.1 2.4-8.2.7M45 378.4c-.3-.8-1.2-1.1-2-.8-.6.3-1.2.4-1.9.5h-.3c0-1.5-.2-3-.8-4.2-1-2.2-2.9-3.8-5.3-4.4-1.7-.4-3.2.5-3.8 1.2-.1.1-.1.2-.1.3-.5-.2-1-.3-1.4-.4-4.7-1.2-9.9.4-11.4 3.3-.5.2-1.1.5-1.3 1.3s.2 1.3.5 1.7c0 .9.3 1.9.9 2.9 1.5 2.5 4.5 4.6 7.7 5.4l1.5.3v.3c.1.8.8 2.4 2.8 2.9.6.2 1.3.2 1.9.2 4 0 7.4-3.1 8.6-7.7.3 0 .6 0 .9-.1 1-.1 2-.3 2.9-.7.6-.3.9-1.2.6-2m-24.4-.1c-.4-.7-.5-1.2-.4-1.4.1-.3.1-.6 0-.8.2-.2.3-.4.4-.7.3-1.2 4.2-2.8 8.1-1.9 1.3.3 2.5.9 3.5 1.6.1 1 0 2.4-.3 3.9-.4 1.5-1 2.8-1.6 3.6-1.2.1-2.5 0-3.8-.3-2.9-.7-5.1-2.5-5.9-4m16.9 2.1c-.8 3.3-3.1 5.5-5.7 5.5h-.5c1.5-1.4 2.7-3.9 3.3-6.2.6-2.5.6-5.1 0-7 1.4.6 2.2 1.7 2.6 2.5.7 1.5.8 3.3.3 5.2M117.6 444.4h.1c5.5 0 9.7-3.6 9.8-8.3 0-2-1.3-3.1-2.1-3.4h-.3c.1-.5.1-1 .1-1.5 0-3.3-1.2-6.7-3.3-8.8-.8-.8-1.7-1.4-2.6-1.6-.2-.4-.7-1-1.5-1s-1.3.5-1.6.9c-3.1.6-6.1 5.4-6.1 10.2 0 .5 0 1 .1 1.5h-.3c-.8.3-2.1 1.3-2.1 3.4 0 2.4 1 4.6 2.9 6.2 1.1.9 2.4 1.5 3.9 1.9 0 .1-.1.2-.1.3-.2.7-.6 1.2-1 1.7-.5.6-.4 1.6.2 2.1q.45.3.9.3c.4 0 .9-.2 1.2-.6.6-.8 1.1-1.6 1.4-2.6.2-.2.3-.5.4-.7m-.6-20.7c.3 0 .6-.1.8-.2.2.1.5.2.8.2.2 0 .7.2 1.2.8 1.2 1.2 2.4 3.8 2.4 6.7 0 1.3-.3 2.6-.7 3.7-1 .3-2.3.6-3.9.6s-2.9-.3-3.9-.7c-.4-1.1-.7-2.4-.6-3.8.1-4 2.7-7.3 3.9-7.3m-6.2 12.9c1.7 1.1 4.2 1.8 7 1.8 2.5 0 5-.6 6.6-1.6-.5 3-3.6 4.6-6.7 4.6h-.1c-1.9 0-3.7-.6-4.9-1.6-.9-.7-1.7-1.7-1.9-3.2M108.8 454.2c-.4.5-.9 1-1.4 1.4-.1.1-.2.1-.3.2-1.7-3-4.4-4.8-7.5-4.8q-1.05 0-2.1.3c-1.9.5-2.6 2.1-2.7 2.9v.3l-1.5.3c-4.7 1.3-8.5 5.3-8.4 8.5-.3.4-.7 1-.5 1.8s.8 1.1 1.3 1.2c.4.8 1.2 1.5 2.2 2.1 1.6.9 3.7 1.4 5.8 1.4 1.2 0 2.4-.2 3.5-.5.5-.1 1-.3 1.4-.5 0 .1.1.2.1.2.4.6 1.4 1.3 2.7 1.3.3 0 .7 0 1.1-.1 2.1-.5 3.7-1.8 4.7-3.7 1.3-2.2 1.6-5.1.8-8 .2-.1.5-.3.8-.5.8-.6 1.6-1.2 2.2-2 .5-.7.4-1.6-.3-2.1-.4-.5-1.4-.4-1.9.3m-12.2 12.2c-2.8.8-5.6.2-7.1-.7-.7-.4-1-.8-1.1-1-.1-.3-.2-.5-.4-.7.1-.2.1-.5 0-.8-.3-1.2 2.3-4.5 6.1-5.6 1.3-.4 2.6-.5 3.8-.4.6.9 1.2 2.1 1.6 3.6s.5 2.9.4 3.9c-.9.8-2 1.3-3.3 1.7m8.3-1.4c-.5.9-1.3 1.6-2.2 2 .6-1.9.5-4.5-.1-7-.6-2.3-1.9-4.7-3.4-6.1 2.8-.3 5.4 1.9 6.3 5.3.4 2.2.3 4.3-.6 5.8" class="st0"/><path d="M199.1 484.5c1 0 1.9-.1 2.2-.8 0-.1.1-.2 0-.3v-.2c.1-.7.1-1.5-9.8-3.3.1-3.6-.1-10.9-4.5-13.7q-1.35-.9-2.7-.9c-2.5 0-3.8 2.1-4.7 3.5-.1.2-.3.5-.5.8-.4-.3-.6-1.2-1-3.8l-.2-1.7c-.4-2.8-1.3-8.5-7.1-10.2q-1.05-.3-2.1-.3c-4.2 0-5.4 4-6.1 6.4-.3.9-.7 2.3-1.1 2.5-.8-.6-.7-4.5-.7-6.1v-1.2c0-7.8-3.7-12.3-10-12.3-.6 0-1.3 0-1.9.1-1.9.2-3.3.9-4.4 2.1-1.9 2.4-1.5 5.9-1.1 8.9.1 1 .3 2.6.2 3.3-.2.1-.4.1-.6.1-1 0-2.2-1.1-3.4-3.5-2.4-4.2-6.1-6.6-10.2-6.6s-7.9 2.3-10.6 6.4-3.1 8.8-1.1 12.6 6.1 6 11 6h2.4c3 0 4.1.8 4.7 2.1-.6.5-1.9 1.1-2.8 1.5-2.8 1.3-5.9 2.8-6.7 5.8-.4 1.7 0 3.5 1.3 5.4 3.6 4.7 7.7 5.6 10.4 5.6 3.3 0 6.7-1.4 9.5-4 .4-.4.8-.7 1.1-1.1 1.6-1.5 3.8-3.5 5-3.5.1 0 .4 0 .6.2.1.4-.4 1.6-.7 2.3-.8 1.9-1.8 4.3-.7 6.6.7 1.6 2.2 2.7 4.4 3.5 1.3.5 2.7.7 3.9.7 4.8 0 7.8-3.2 9.2-4.8l.2-.2c.5-.5.9-1 1.3-1.5 1.4-1.6 2.2-2.4 3-2.4.1.3.1.6.2.9.3 1.8.8 6.1 6.1 5.6 4.2-.5 7.6-4.2 9.9-11.1 3.7.3 6.4.6 8.1.6m-18.6 5.9h-.8c-.2-.2-.4-1.2-.4-1.8-.2-1.5-.6-4-3.1-4.6-.5-.1-1-.2-1.5-.2-2.9 0-4.6 1.9-6.3 3.9-.4.4-.8.9-1.2 1.4l-.3.3c-1.2 1.3-3.1 3.4-5.9 3.4-.8 0-1.6-.2-2.5-.5-1-.3-1.6-.8-1.8-1.1-.3-.6.3-2 .8-3.1.8-2 2.2-5.3-.7-7.5-1-.8-2.1-1.1-3.3-1.1-3 0-5.6 2.4-8.1 4.8-.4.4-.7.7-1.1 1-2 1.8-4.3 2.8-6.5 2.8-2.5 0-4.9-1.4-6.8-3.8-.3-.4-.8-1.2-.6-1.6.3-1 2.7-2.2 4.3-2.9 2.8-1.3 6.6-3.1 5.2-6.8-2-5.4-7.3-5.4-9.1-5.4h-1.5c-3.7.3-6.6-1.1-7.9-3.6-1.2-2.3-.9-5.3.8-8 1.9-2.8 4.4-4.4 6.9-4.4s4.7 1.5 6.3 4.3c1.4 2.5 3.6 5.8 7.4 5.8q1.35 0 2.7-.6c3-1.2 2.5-4.7 2.2-7.8-.2-2-.6-4.6.2-5.5.1-.1.3-.4 1.4-.5.5-.1 1-.1 1.4-.1 1.5 0 5.5 0 5.6 7.9v1.2c0 3.4 0 7.2 2 9.3 1 1 2.3 1.4 3.7 1.3 3.3-.3 4.2-3.4 4.9-5.7 1-3.4 1.4-3.4 2.7-3 2.9.8 3.5 3.6 3.9 6.5l.2 1.7c.5 3.4 1 6.9 5 7.8.2 0 .5.1.7.1 2.1 0 3.2-1.8 4-3 .3-.5.8-1.3.9-1.4 0 0 .1 0 .4.2 1 .6 2.5 2.6 2.4 9.2-1.1-.2-2.2-.4-3.5-.6-16.6-2.9-37.5-11.2-44.4-13.9-1.4-.6-2.2-.8-2.4-.8s-.4.1-.6.2c-.1.1-.1.1-.1.2s-.1.1-.1.2v.3c.5 1.4 27.6 14.3 46.7 17.7 1.3.2 2.4.4 3.6.5-2 5.7-4.3 7.1-5.8 7.3M64.7 176.1l.3.4v.2h.7c.3 0 .7 0 2.8-2.3 2.8 1.5 6.5 3.2 10.1 3.2 1.5 0 2.9-.3 4-1 1.2-.7 2-1.7 2.3-2.9.5-1.9-.5-3.6-1.3-4.9-.1-.2-.3-.5-.4-.7.6-.2 1.9.3 3.5.8l1.9.6c1.3.4 3.3 1.1 5.4 1.1 2.7 0 4.9-1 6.6-2.9 1.3-1.3 1.9-2.8 1.9-4.2-.1-2.5-1.9-4.2-3.4-5.7-.6-.5-1.5-1.4-1.7-1.9.1-.1.1-.1.4-.1 1.3 0 3.6 1.2 5.5 2.1l.8.4c7.8 3.7 13.9 1.6 16.1-5.1.7-1.8.6-3.4-.1-4.9-1.3-2.7-4.4-3.8-7.2-4.8-.9-.3-2.3-.8-2.9-1.2.1-.9.7-2.1 4.7-2.1 4.6-.1 8.3-2.2 10.2-5.6 2-3.6 1.8-8.2-.7-12.6-2.3-4.1-6.2-6.5-10.3-6.5-4.7 0-8.8 3-10.9 7.9-1.7 3.6-2.9 4.4-4.3 4.4-.2-.7-.1-2.1-.1-3.1 0-2.9.1-6.2-2-8.3-.7-.7-2-1.5-4-1.5-.5 0-1 .1-1.6.2-4.3.9-7.5 3-9.3 6.1-1.8 3-2.1 6.7-.9 10.6.2.6.3 1.2.5 1.8.9 3 1.6 5.6.5 6.1-.4-.1-1.2-1.1-1.7-1.7-1.4-1.6-3.1-3.6-5.8-3.6-1.6 0-3.2.8-4.9 2.3-5.2 5.3-3 11-2.1 13.5l.1.3c.2.6.4 1.1.6 1.6.9 2.4 1.1 3.1.8 3.8-.3-.1-.6-.2-.8-.3-.9-.3-1.9-.6-3-.6-1.2 0-3.4.5-4.6 3.5-1.6 4 .3 8.7 5.7 14-1.7 2.7-1.5 3.2-1.4 3.6m-.2-15.9c.2-.5.4-.6.4-.6.4 0 1 .2 1.6.4.8.3 1.7.6 2.6.6 1.4 0 2.3-.7 2.8-1.3 2.4-3 1.3-5.9.2-8.7-.2-.5-.4-.9-.6-1.5l-.1-.4c-1.1-2.8-1.8-5.8 1.1-8.7 1-.9 1.6-1.1 1.8-1.1.6 0 1.6 1.1 2.4 2 1.2 1.4 2.8 3.2 5.1 3.2.6 0 1.2-.1 1.8-.4 4.9-2.1 3.2-7.7 2.1-11.5-.2-.6-.3-1.1-.5-1.7-.8-2.7-.7-5.1.5-7 1.2-2 3.4-3.4 6.3-4 .3-.1.5-.1.8-.1.6 0 .8.2.8.2.7.7.7 3.3.7 5.1 0 3.1-.1 7.3 3.7 7.6 5.2.5 7.6-3.3 9.3-7 1.4-3.3 3.9-5.2 6.8-5.2 2.5 0 4.9 1.6 6.4 4.2 1.7 3 1.9 6 .7 8.2-1.2 2-3.4 3.2-6.4 3.3-7.1 0-8.9 3.6-9.1 6.7-.2 3.2 3.2 4.4 5.9 5.3 1.8.6 4.1 1.4 4.6 2.4.1.1.2.5-.1 1.5-1.1 3.5-3.2 3.9-4.7 3.9s-3.3-.5-5.2-1.4l-.8-.4c-2.4-1.2-5.1-2.6-7.5-2.6-2 0-3.6 1-4.5 2.8-1.4 3 1.1 5.3 2.7 6.9.8.8 2 1.9 2 2.5 0 .2-.2.6-.7 1.1-.9 1-1.9 1.4-3.3 1.4s-2.9-.5-4-.9l-1.8-.6c-1.7-.6-3.2-1.1-4.6-1.1-1.7 0-3.1.7-4.2 2-1.6 2-.3 4.2.5 5.5.2.4.6 1.1.7 1.4-.1 0-.1.1-.2.1-.5.3-1.1.4-1.8.4-2.3 0-5.1-1.2-7-2.2 1.6-1.9 3.7-4.4 6.3-7.6 10-12.2 25.8-25.9 32.8-31.5l.2-.1c1.8-1.3 2.7-2.1 2.8-2.3v-.3l-.4-.5h-.4c-.3 0-.4 0-3.1 2.1-6.1 4.3-24.4 17.2-35 30.1-2.8 3.4-4.8 6.1-6.3 8.1-4.6-4.5-4.6-7.1-4.1-8.3M88.2 447.8c4.4 0 8.5-3.3 10.7-5.2 1.6 1.1 2.8 1.7 3.4 1.7s.8-.3.9-.5v-.1c.1-.1.2-.2.2-.3.1-.4.2-.7-2.3-3.2 1.6-2.6 5.9-9.7 3.1-14.6-1.2-2.1-2.8-2.6-4-2.6-1.4 0-2.6.7-3.6 1.2-.2.1-.4.2-.7.3-.1-.5.1-1.4.9-3.5l.6-1.7c.9-2.4 3-7.9-1.3-12-1.3-1.4-2.7-2.2-4.3-2.2-2.4 0-4.2 1.8-5.7 3.2-.6.6-1.6 1.6-2 1.6-.5-.8 1.6-4.5 2.3-5.7l.4-.8c2.2-4.1 2.7-7.7 1.6-10.7-.9-2.5-2.9-4.4-5.9-5.6-.9-.4-1.9-.6-2.7-.6-4.3 0-6 4.3-7.2 7.5-.4.9-.9 2.3-1.3 2.9-.9-.2-2-.9-2.1-4.5.2-3.7-.8-6.8-3-9-3.4-3.5-9.3-4.1-14.7-1.4-4.2 2.2-6.8 6-6.8 10.3 0 4.5 2.7 8.6 7.4 11 3.8 1.7 4.4 3 4.3 4.3-.5.1-1.8.1-3.1 0-.8 0-1.6-.1-2.5-.1-2.1 0-4.7.2-6.3 2.1-1.1 1.2-1.5 3-1.2 5.1 1 7.1 5.7 11.6 12.2 11.6 1.3 0 2.7-.2 4-.5.6-.1 1.2-.3 1.8-.5 1.7-.4 3.4-.9 4.7-.9 1.2 0 1.3.3 1.4.6-.1.4-1.1 1.2-1.7 1.6-1.6 1.2-3.5 2.8-3.8 5.3-.2 1.7.5 3.4 2 5.3 2.2 2.4 4.9 3.6 8 3.6 2.2 0 4.1-.6 5.4-1l.4-.1c.6-.2 1.1-.4 1.6-.6 1.3-.5 2.4-.8 3.1-.8.2 0 .4 0 .7.2l-.3.9c-.6 1.6-2.3 5.8 2.6 7.8.7.4 1.7.6 2.8.6m-5.9-14c-1.5 0-2.9.5-4.6 1.1-.5.2-1 .4-1.5.5l-.5.2c-1 .3-2.4.8-3.9.8-1.8 0-3.4-.7-4.6-2.1-.7-.8-1-1.5-.9-1.9.1-.7 1.2-1.6 2.1-2.3 1.8-1.4 4.4-3.5 3.1-6.8-.5-1.3-1.9-3.5-5.6-3.5-1.9 0-3.9.5-5.8 1-.6.2-1.1.3-1.7.5-1 .3-2 .4-2.9.4-4.3 0-7-2.8-7.8-7.7-.1-.8 0-1.3.2-1.5s.8-.6 2.9-.6c.7 0 1.5 0 2.2.1.8 0 1.5.1 2.2.1 3.4 0 5.2-1.2 5.5-3.4.9-5.4-3.2-7.9-6.7-9.5-3-1.6-4.9-4.2-4.9-7 0-2.6 1.6-4.9 4.4-6.4 3.6-1.9 7.4-1.7 9.4.5 1.3 1.3 1.9 3.3 1.8 5.9.1 5.5 2.2 8.6 6.5 9.1h.3c3 0 4.2-3 5.2-5.8.8-2 1.8-4.6 3.1-4.6.3 0 .6.1 1.1.3 1.8.7 2.9 1.7 3.4 3 .7 1.7.2 4.2-1.3 7l-.4.8c-1.7 3-3.5 6.3-2.7 9.1.4 1.2 1.2 2.2 2.4 2.8.6.3 1.3.5 1.9.5 2.1 0 3.7-1.5 5.1-2.9.8-.8 2-1.9 2.5-1.9.2 0 .5.2 1.1.8 2.1 2.1 1.4 4.6.3 7.3l-.6 1.7c-1.2 3-2.3 6.1.5 8.9.7.6 1.4.9 2.3.9 1.2 0 2.2-.6 3.2-1 .5-.2 1.2-.7 1.3-.7 0 0 .1.1.2.4.4.8 1 3.1-2.5 9.2-1.8-1.7-4.1-3.8-7.1-6.6-8.5-7.5-18.9-19.4-30.8-35.3-.9-1.2-1.5-1.8-1.7-1.8h-.3c-.2.1-.4.3-.5.6-.3 1.5 16.2 26.6 30.6 39.4 2.9 2.6 5.3 4.8 7.4 6.5-2.8 2.3-5.1 3.5-7.1 3.5-.5 0-.9-.1-1.3-.2l-.6-.3c-.1-.3.3-1.2.5-1.7.6-1.4 1.5-3.8-.4-5.5-1.1-1.3-2.5-1.8-4-1.9M22.7 349.8c.7.1 1.3.2 1.9.4 2.4.4 3.1.6 3.5 1.2-.2.2-.5.4-.7.6-1.3 1.1-4.7 3.9-1.6 8 1.7 2.3 4.5 3.4 8.3 3.4 2.4 0 4.7-.5 6.1-.8 1.6 3.4 2.2 3.5 2.5 3.5s.5-.1.7-.3l.3-.2c.2-.3.5-.7-.5-4.1 2.9-1.7 9.4-5.7 9.6-11 0-1.5-.4-2.6-1.2-3.5-1.4-1.4-3.4-1.5-4.8-1.5H46c.1-.5.7-1.1 2.6-2.7l1.3-1.1c2.1-1.8 6.5-5.4 4.9-11.2-.8-2.9-2.8-4.5-5.5-4.5-1.3 0-2.6.4-3.8.7-.9.2-1.8.5-2.4.5-.2 0-.2 0-.3-.1.2-.9 3.4-2.9 4.7-3.7l1-.6c4-2.5 6.2-5.3 6.7-8.4.4-2.7-.5-5.4-2.6-7.9-1.6-2.2-3.5-2.6-4.8-2.6-2.7 0-5.2 2-7.3 3.7-.8.6-2 1.6-2.5 1.9-.7-.6-1.3-1.5.7-5.1 2.3-3.9 2.5-8.1.7-11.5-2-3.7-6.2-6-11.2-6.2h-.5c-4.7 0-8.7 2.2-10.6 5.9-2 3.9-1.5 8.7 1.4 13 2.3 3.3 2 4.8 1.3 5.9-.7-.2-1.9-1-2.7-1.5-2.1-1.3-4.4-2.8-6.8-2.8-1.7 0-3.9.7-5.4 4.2-1.4 3.9-1.3 7.7.3 10.9 1.6 3.1 4.7 5.5 8.6 6.6.5.1 1 .3 1.5.4 3.2.9 5.7 1.6 5.7 2.9-.3.2-1.5.5-2.3.6-2 .3-4.5.7-5.9 2.8-1 1.4-1.2 3.2-.7 5.5 1.6 7.3 7.6 8.5 10.2 9zm-6.2-10c-.3-1.4-.1-1.9 0-2 .3-.5 1.8-.8 2.9-.9 2.1-.3 5.6-.9 6-4.5.5-5.1-5-6.6-8.9-7.7-.5-.1-1-.3-1.4-.4-2.7-.8-4.8-2.3-5.9-4.4-1-2-1.1-4.6-.1-7.2.6-1.4 1.1-1.4 1.3-1.4 1.1 0 2.9 1.2 4.4 2.1 1.9 1.2 3.6 2.3 5.4 2.3q1.8 0 3-1.5c3.6-5 .1-9.9-1-11.5-2-2.9-2.4-5.9-1.1-8.3 1.2-2.2 3.6-3.5 6.7-3.5h.4c3.4.1 6.2 1.6 7.5 3.8 1.1 2 .9 4.5-.6 7.1-1.1 1.9-4.4 7.6.8 11.2.6.5 1.4.7 2.2.7 1.9 0 3.6-1.4 5.5-2.9 1.4-1.1 3.3-2.7 4.5-2.7.2 0 .5 0 1.2.9 1.3 1.6 1.9 3.1 1.7 4.4-.3 1.8-1.9 3.6-4.6 5.3l-.9.6c-2.9 1.8-6.2 3.8-6.8 6.7-.2 1.2.1 2.5.9 3.6.6.8 1.8 1.8 3.8 1.8 1.2 0 2.4-.3 3.5-.6 1-.2 1.9-.5 2.7-.5.5 0 .8 0 1.2 1.2.8 2.8-1.2 4.7-3.5 6.6l-1.3 1.1c-2.6 2.1-5.2 4.3-3.9 8.2.8 2.4 3.4 2.5 4.9 2.5.5 0 1.2 0 1.6.1v.2c0 1.1-1 3.4-6.4 6.7-.8-2.3-1.8-5.2-3.1-8.9-5.1-14.7-8-35-9.3-43.7-.4-3.1-.9-4.7-1.4-4.7l-.6.3c-.7 1 .8 30.2 7.5 49.3 1.4 3.9 2.5 6.8 3.5 9.1-1.2.2-2.8.5-4.3.5-2.3 0-3.9-.5-4.8-1.6-.3-.4-.4-.6-.4-.6.1-.3.8-.9 1.2-1.2 1.1-1 3.1-2.6 2.2-5-1.2-3.6-4.2-4.1-7.2-4.6l-1.8-.3-.4-.1c-2.9-.7-5.8-1.6-6.8-5.6M18.7 244.3l.2.2c.5.4 1 .8 1.4 1.1 1.9 1.6 2.5 2.1 2.5 2.8-.3.1-.6.1-.9.2-1.6.3-6 1.1-5.3 6.2.5 4.1 4.4 7.3 11.4 9.3-.1 2.7.3 3.2.5 3.5.2.2.5.4.8.4h.2c.5 0 .8 0 1.6-3.4 3.2 0 10.9-.3 13.8-5 .8-1.2 1-2.5.7-3.6-.5-1.9-2.2-2.9-3.5-3.6-.2-.1-.5-.3-.7-.4.3-.4 1.2-.6 3.5-1.1l1.8-.4c2.5-.5 8.4-1.6 9.7-7.4 1.4-5.9-3.8-7.2-6.3-7.9-.8-.2-2-.5-2.4-.8v-.1c.8-.8 4.3-.9 6.2-1h.9c4.5-.3 7.8-1.7 9.8-4.1 1.7-2.1 2.3-4.9 1.8-8.1-.3-2-1.6-5.4-6.7-5.4-1.5 0-3 .3-4.4.5-1.1.2-2.1.4-2.9.4h-.2c-.3-.9-.3-2.3 2.9-4.1 4-2.2 6.2-5.8 6.3-9.7.1-4.2-2.5-8.2-6.8-10.9-5.1-3.1-11.2-2.4-14.7 1.4-2.3 2.5-3.5 6.1-3.1 10.1.3 4-.2 5.3-1.5 6-.5-.6-1.2-1.8-1.6-2.7-1.6-2.9-3.5-6.5-7.1-6.5-1.4 0-2.8.6-4.1 1.7-3.3 2.7-5.2 6-5.3 9.6-.2 3.6 1.4 7.1 4.4 10.1.4.4.9.8 1.3 1.3 2.3 2.2 4.1 4.1 3.2 5.1-.5 0-1.4-.3-2.2-.6-1.2-.5-2.6-1-4.1-1-1.9 0-4.4.9-5.7 5.1-2.1 7.2 2.6 11.1 4.6 12.8m-.3-11.5c.5-1.9 1.1-1.9 1.4-1.9.7 0 1.6.4 2.6.7 1.2.4 2.5.9 3.8.9 1.5 0 2.8-.6 3.6-1.8 3.3-4.2-.9-8.3-3.7-11l-1.2-1.2c-2.1-2-3.2-4.4-3.1-6.7.1-2.2 1.4-4.4 3.7-6.3.8-.6 1.2-.7 1.3-.7 1 0 2.4 2.6 3.2 4.1 1.4 2.5 2.8 5.1 5.4 5.1.5 0 1-.1 1.4-.3 5.4-2.1 5-7.7 4.7-10.6-.2-2.7.5-5.1 1.9-6.7 2.2-2.3 5.8-2.6 9.1-.6 2.9 1.8 4.6 4.4 4.6 7 0 2.3-1.5 4.4-4 5.8-6.3 3.6-5.6 7.9-4.6 10.3.5 1 1.6 2.2 4.1 2.2 1.1 0 2.3-.2 3.6-.4 1.2-.2 2.5-.4 3.6-.4 1.8 0 2.1.5 2.2 1.6.3 2 0 3.5-.8 4.6-1.1 1.4-3.4 2.3-6.5 2.4h-.8c-3.4.1-7.3.3-9.3 2.5-.8.9-1.3 2.1-1.2 3.5.3 3.3 3.6 4.1 5.7 4.7 3.5.9 3.4 1.2 3 2.5-.7 2.8-3.3 3.5-6.2 4.1l-1.8.4c-3.2.6-6.5 1.2-7.2 5.2-.5 2.5 1.8 3.8 3.1 4.6.4.2 1 .6 1.3.8 0 .1-.1.1-.1.2-.6 1-2.6 2.6-9 2.8.5-2.5 1.1-5.7 1.9-9.9 2.6-15.1 10.1-34.1 13.3-42.2 1.2-3.1 1.6-4.8 1.3-5.1-.1-.1-.3-.2-.5-.2-1.8 0-14.8 28.1-18.1 46.7-.8 4.4-1.3 7.7-1.7 10.2-6-1.9-7.2-4.1-7.4-5.4-.1-.5 0-.7 0-.7.2-.2 1.2-.4 1.7-.5 1.5-.3 3.9-.8 4.4-3.3.7-3.8-1.7-5.8-4.1-7.7-.4-.3-.9-.7-1.3-1.1l-.3-.2c-2-1.8-4.1-4-3-8M394.6 180.6c-.1.1-.1.2-.2.3-.4.6-.9 1-1.4 1.4-.7.5-.8 1.4-.4 2.1.3.4.8.6 1.2.6.3 0 .6-.1.8-.3q1.2-.75 2.1-2.1c.2-.3.4-.6.5-.8 1.2.4 2.4.6 3.5.6 4 0 7.2-2.2 8.3-5.6.6-1.9-.3-3.3-1-3.9-.1-.1-.2-.1-.2-.1.2-.5.4-.9.5-1.4 1-3.1.8-6.8-.6-9.4-.5-1-1.2-1.8-2-2.2-.1-.5-.4-1.1-1.2-1.4s-1.4.1-1.8.4c-3.2-.2-7.3 3.4-8.8 8-.2.5-.3 1-.4 1.5-.1 0-.2-.1-.3-.1-.8.1-2.4.6-3 2.6-.7 2.3-.4 4.7 1 6.8 1.1 1.2 2.2 2.2 3.4 3m2.4-12.8c1.2-3.8 4.6-6.3 5.8-5.9.3.1.6.1.8.1.2.2.4.3.7.4.2.1.6.4 1 1.1.8 1.5 1.2 4.4.4 7.1-.4 1.2-1 2.4-1.7 3.3h-.4c-1.1 0-2.4-.2-3.5-.6-1.5-.5-2.7-1.1-3.5-1.8-.2-1.2 0-2.5.4-3.7m-3.9 4.6c1.3 1.5 3.5 2.9 6 3.7 1.5.5 3 .7 4.4.7.6 0 1.6-.1 2.6-.3-.9 1.8-2.8 2.9-5.2 2.9-.9 0-1.8-.1-2.7-.4-1.8-.6-3.4-1.6-4.3-3-.5-.8-1-2-.8-3.6M383.4 191.9c.3-.1.5-.1.9-.3 1-.3 1.9-.8 2.6-1.4.7-.5.8-1.4.3-2.1s-1.4-.8-2.1-.3q-.75.6-1.8.9c-.1.1-.2.1-.3.1-.9-4.1-4-7-8-7.1-1.9 0-3 1.3-3.3 2v.3c-.5-.1-1-.1-1.5-.1-4.9-.1-9.6 2.6-10.4 5.7-.4.2-1 .7-1 1.5s.5 1.3.9 1.6c.2.9.7 1.8 1.5 2.6 2 2.1 5.4 3.5 8.7 3.6h.3c.4 0 .8 0 1.1-.1v.3c.3.8 1.3 2.1 3.3 2.2h.2c4.9.1 8.4-3.9 8.6-9.4m-13.4 4.2c-2.9-.1-5.4-1.4-6.6-2.6-.5-.6-.7-1-.7-1.3s0-.6-.2-.8c.1-.2.2-.5.2-.8 0-1.2 3.5-3.7 7.5-3.6 1.3 0 2.6.3 3.7.8.3 1 .6 2.3.5 3.9 0 1.6-.4 2.9-.8 3.9-1.1.3-2.4.5-3.6.5m5.5 2.3c1.1-1.7 1.8-4.3 1.9-6.8 0-2.6-.6-5.1-1.5-6.8 2.8.5 4.6 3.3 4.5 6.9-.1 3.7-2.1 6.4-4.9 6.7M399.7 285.7c1.2.8 2.6 1.1 4 1.1 3.2 0 6.3-1.9 8.2-5.2.3.1.5.1.9.2.6.1 1.3.2 1.9.2.4 0 .7 0 1-.1.8-.1 1.4-.8 1.3-1.7-.1-.8-.9-1.4-1.7-1.3-.6.1-1.3 0-2-.1-.1 0-.2 0-.4-.1.5-1.4.6-2.9.4-4.3-.3-2.5-1.7-4.5-3.8-5.8-.6-.4-1.3-.6-2-.6-1.1 0-1.9.5-2 .6s-.1.2-.2.2c-.4-.3-.8-.6-1.2-.8-4.1-2.5-9.6-2.5-11.9-.2-.5 0-1.2.1-1.6.8s-.2 1.3 0 1.8q-.45 1.35 0 3c.7 2.8 3 5.7 5.8 7.4.4.3.9.5 1.3.7 0 .1-.1.2-.1.3.1 1.1.3 2.8 2.1 3.9m10.9-10.7c.2 1.6-.2 3.4-1.2 5.1-1.8 3-5 4.5-7.5 3.4 1.7-.9 3.6-2.7 5-4.9 1.3-2.2 2.1-4.8 2.1-6.7 1 .9 1.5 2.1 1.6 3.1m-16.8-2c-.2-.8-.1-1.3 0-1.5.2-.3.2-.5.2-.8q.3-.15.6-.6c.6-1 4.9-1.5 8.3.6 1.1.7 2.1 1.5 2.9 2.5-.2 1-.6 2.3-1.5 3.7-.8 1.4-1.8 2.4-2.6 3-1.2-.2-2.4-.7-3.5-1.4-2.4-1.4-4-3.8-4.4-5.5M431.7 267c-.1-.1-.1-.2-.2-.2-.1-.1-.6-.3-1.3-.3s-1.6.2-2.5 1.1c-1.5 1.5-2.4 3.4-2.5 5.5 0 1.7.4 3.4 1.3 5-.1 0-.2.1-.3.1-.6.3-1.2.5-1.9.5-.8.1-1.4.8-1.4 1.6.1.8.7 1.4 1.5 1.4h.1c1-.1 2-.4 2.9-.8.4-.2.6-.3.9-.4 2.1 2.2 4.8 3.5 7.5 3.5 2 0 3.9-.7 5.3-2.1 1.5-1.4 1.4-3.1 1-3.9 0-.1-.1-.1-.2-.2.4-.3.8-.6 1.1-1 2.4-2.2 4-5.6 4.1-8.5q0-1.8-.6-3c.1-.5.2-1.2-.4-1.8-.5-.6-1.2-.6-1.8-.5-2.6-1.8-8.1-.6-11.6 2.7-.3.6-.6.9-1 1.3m-1.3 11.5c-1.5-1.6-2.3-3.5-2.3-5.3 0-1.1.4-2 1-2.9.4 1.9 1.6 4.2 3.4 6.1s4 3.3 5.9 3.8c-2.2 1.6-5.6.8-8-1.7m12.3-12.8c.2.2.5.4.7.5.1.2.2.5.4.7s.3.6.3 1.4c0 1.7-1 4.4-3.1 6.4-.9.9-2 1.6-3.1 2.1-1-.5-2.1-1.3-3.1-2.4-1.1-1.1-1.8-2.3-2.2-3.3.5-1.1 1.3-2.1 2.3-3 2.8-2.7 7-3.2 7.8-2.4M397.1 362.3c-.7-1.2-1.8-1.9-3.1-1.9h-.4c-.1 0-.2.1-.3.1-.2-.5-.4-.9-.7-1.3-2.4-4.2-7.2-6.8-10.3-5.9-.4-.2-1.1-.5-1.8 0-.7.4-.9 1-.9 1.6-.7.6-1.2 1.5-1.5 2.6-.8 2.8-.2 6.4 1.5 9.3.2.5.5.9.8 1.3-.1.1-.2.1-.2.2-.5.7-1.1 2.2-.1 4 1.4 2.5 4 4 7.1 4 1.9 0 3.8-.5 5.6-1.6.2.2.4.4.7.6.8.7 1.6 1.2 2.5 1.6.2.1.4.1.6.1.6 0 1.1-.4 1.4-.9.3-.8-.1-1.6-.8-2-.6-.2-1.2-.6-1.7-1-.1-.1-.2-.2-.3-.2 2.9-3.1 3.8-7.2 1.9-10.6m-16.1-4c.2-.8.5-1.2.7-1.3.3-.1.5-.4.6-.5.2 0 .5-.1.8-.2 1.1-.6 5 1.1 7 4.5.7 1.1 1.1 2.4 1.3 3.5-.7.8-1.7 1.7-3 2.5-1.4.8-2.7 1.2-3.8 1.4-.9-.8-1.7-1.7-2.3-2.8-1.6-2.6-1.8-5.5-1.3-7.1m10.2 13.7c-1.4.8-2.8 1.2-4.1 1.2-1.7 0-3.1-.6-4.1-1.9 2 .1 4.5-.7 6.7-1.9 2.2-1.3 4.1-3.1 5-4.9 1.2 2.9-.7 5.9-3.5 7.5M430.1 373.9c-1.4-2.9-6.7-4.5-11.4-3.3-.5.1-1 .3-1.4.4 0-.1-.1-.2-.1-.3-.5-.8-2.1-1.7-3.8-1.2-2.4.6-4.2 2.2-5.3 4.4q-.9 1.95-.9 4.2h-.4c-.7-.1-1.3-.2-1.9-.5-.8-.3-1.6 0-2 .8-.3.8 0 1.6.8 2 .9.4 1.9.6 2.9.7.4 0 .7.1.9.1 1.2 4.6 4.6 7.7 8.6 7.7.6 0 1.3-.1 1.9-.2 2-.5 2.7-2 2.8-2.9v-.3l1.5-.3c3.2-.8 6.2-2.9 7.7-5.4.6-1 .9-2 .9-2.9.3-.3.7-.9.5-1.7s-.8-1.1-1.3-1.3m-19.6 6.5c-.5-1.9-.4-3.7.3-5.2.4-.9 1.2-2 2.6-2.5-.6 1.9-.6 4.5 0 7 .6 2.3 1.8 4.8 3.3 6.2-2.9.3-5.4-2-6.2-5.5m16.9-2.1c-.9 1.5-3.1 3.3-5.8 4-1.3.3-2.5.4-3.7.3-.6-.9-1.2-2.1-1.6-3.6s-.4-2.9-.3-3.9c1-.7 2.2-1.2 3.5-1.6 3.8-1 7.8.7 8.1 1.8.1.3.2.5.4.7-.1.2-.1.5 0 .8-.1.3-.2.8-.6 1.5M333.5 444.3c0-.1-.1-.2-.1-.3 4.1-1.1 6.9-4.2 6.8-8.1 0-2-1.4-3.1-2.1-3.3h-.3c0-.5.1-1 .1-1.5-.1-4.8-3-9.5-6.1-10.2-.2-.4-.7-.9-1.5-.9s-1.3.5-1.6 1c-.9.2-1.8.8-2.6 1.6-2 2.1-3.3 5.5-3.3 8.8 0 .5 0 1 .1 1.5h-.3c-.8.3-2.1 1.4-2.1 3.4.1 4.7 4.3 8.3 9.8 8.3h.1c.1.3.2.5.3.9.4 1 .8 1.8 1.5 2.6q.45.6 1.2.6c.3 0 .7-.1.9-.3.6-.5.7-1.5.2-2.1zm-5.3-19.8c.5-.6 1-.8 1.2-.8.3 0 .6-.1.8-.2.2.1.5.2.7.2h.1c1.2 0 3.8 3.4 3.9 7.4 0 1.3-.2 2.6-.6 3.7-1 .4-2.4.7-4 .7-1.5 0-2.8-.3-3.8-.6-.4-1.1-.7-2.4-.7-3.7-.1-2.9 1.2-5.5 2.4-6.7m-4.6 12.3c1.6 1 4.1 1.6 6.8 1.6 2.6 0 5.1-.7 6.8-1.8-.4 2.8-3.1 4.7-6.7 4.8h-.1c-3.2 0-6.4-1.6-6.8-4.6M354.6 454.7l-1.5-.3v-.3c-.1-.8-.8-2.4-2.7-2.9q-1.05-.3-2.1-.3c-3.1 0-5.8 1.9-7.5 4.8-.1 0-.2-.1-.3-.2-.6-.4-1-.8-1.5-1.4-.5-.7-1.4-.8-2.1-.3s-.8 1.4-.3 2.1c.6.8 1.3 1.5 2.2 2 .3.2.6.4.8.5-.8 2.9-.5 5.8.8 8 1.1 1.8 2.7 3.1 4.7 3.7.4.1.7.1 1.1.1 1.3 0 2.3-.7 2.7-1.3.1-.1.1-.2.1-.3.5.2.9.3 1.4.5 1.1.3 2.3.5 3.5.5 2.1 0 4.2-.5 5.8-1.4 1-.6 1.8-1.3 2.2-2.1.5-.1 1.1-.4 1.3-1.2s-.1-1.4-.5-1.8c.4-3.1-3.5-7.1-8.1-8.4m-9.2 12.4c-.9-.4-1.7-1.1-2.2-2-.9-1.5-1.1-3.7-.5-5.8.9-3.2 3.2-5.4 5.7-5.4h.6c-1.5 1.4-2.8 3.8-3.5 6.1-.7 2.5-.7 5.2-.1 7.1m14.5-3.1c-.2.2-.3.4-.4.7-.1.2-.4.6-1.1 1-1.5.8-4.3 1.4-7.1.6-1.3-.3-2.4-.9-3.4-1.6-.1-1 0-2.4.4-3.9s1-2.7 1.6-3.6c1.2-.1 2.5 0 3.8.4 3.8 1 6.5 4.4 6.1 5.5 0 .4 0 .7.1.9M319 447.1c-4.1 0-7.9 2.4-10.2 6.7-1.3 2.4-2.4 3.5-3.5 3.5-.2 0-.4 0-.6-.1-.1-.7.1-2.2.2-3.3.4-3 .8-6.5-1.1-8.9-1-1.2-2.5-2-4.2-2.1-7.6-1-12 3.5-12.1 12.2v1.2c0 1.7 0 5.5-.8 6.1-.3-.3-.8-1.7-1-2.5-.7-2.4-1.9-6.4-6.1-6.4-.6 0-1.4.1-2.1.3-5.9 1.7-6.7 7.4-7.1 10.2l-.2 1.7c-.4 2.6-.6 3.5-1 3.8-.2-.2-.4-.5-.5-.8-.9-1.4-2.2-3.5-4.7-3.5-.9 0-1.8.3-2.8.9-4.4 2.8-4.6 10.1-4.5 13.7-9.9 1.8-9.9 2.6-9.8 3.3v.2c0 .1 0 .2.1.3.2.7 1.1.8 2.2.8 1.6 0 4.4-.2 8.2-.8 2.3 6.9 5.7 10.7 9.9 11.1h.8c4.4 0 5-3.9 5.3-5.6 0-.3.1-.6.2-.9.8 0 1.6.8 3 2.4.4.5.9 1 1.3 1.5l.2.3c1.4 1.5 4.4 4.8 9.2 4.8 1.3 0 2.6-.2 3.9-.7 2.3-.8 3.7-1.9 4.4-3.5 1.1-2.3.1-4.7-.7-6.6-.3-.7-.8-1.9-.8-2.2.3-.2.5-.2.6-.2 1.2 0 3.4 2 5 3.5.4.4.8.7 1.1 1.1 2.8 2.6 6.2 4 9.5 4 2.8 0 6.9-1 10.5-5.7 1.3-1.9 1.7-3.7 1.3-5.4-.8-3-3.9-4.5-6.7-5.8-.9-.5-2.2-1.1-2.8-1.5.6-1.3 1.7-2.1 4.7-2.1h1.2c5.5.4 10-1.9 12.2-6 2-3.8 1.6-8.5-1.1-12.6-2.7-4-6.6-6.4-10.6-6.4m7.7 16.9c-1.2 2.3-3.8 3.6-7 3.6h-.9c-.5 0-1-.1-1.5-.1-1.7 0-7 0-9.1 5.4-1.4 3.6 2.5 5.4 5.2 6.8 1.6.8 4 1.9 4.3 2.9.1.5-.3 1.2-.6 1.6-2 2.5-4.3 3.9-6.9 3.9-2.2 0-4.5-1-6.5-2.8-.4-.3-.7-.7-1.1-1-2.5-2.3-5-4.8-8.1-4.8-1.2 0-2.3.4-3.3 1.1-2.9 2.2-1.5 5.5-.7 7.5.5 1.1 1 2.5.8 3.1-.2.4-.8.8-1.8 1.1-.9.3-1.7.5-2.5.5-2.9 0-4.7-2-6-3.4l-.3-.3c-.5-.5-.9-.9-1.2-1.4-1.8-2-3.5-3.9-6.3-3.9-.5 0-1 .1-1.5.2-2.6.5-3 3.1-3.2 4.6-.1.5-.2 1.5-.4 1.8 0 0-.3.1-.8 0-1.6-.2-3.8-1.6-5.9-7.3 1.1-.2 2.3-.4 3.6-.5 19.1-3.4 46.2-16.3 46.7-17.7v-.3c0-.1 0-.2-.1-.2 0-.1-.1-.1-.1-.2-.1-.2-.3-.2-.5-.2s-.2 0-2.4.9c-6.9 2.7-27.8 11-44.4 13.9-1.3.2-2.4.4-3.5.6 0-6.5 1.5-8.5 2.4-9.2.1-.1.2-.1.3-.2.3.2.7.9 1 1.4.9 1.4 2.1 3.5 4.8 3 4-.9 4.5-4.4 5-7.8l.2-1.6c.5-3 1.1-5.7 3.9-6.5 1.3-.4 1.7-.4 2.7 3 .7 2.3 1.6 5.4 4.9 5.7 1.5.1 2.7-.3 3.7-1.3 2.1-2.1 2-5.9 2-9.3v-1.2c0-7.9 4-7.9 5.5-7.9.5 0 .9 0 1.5.1.9.1 1.2.4 1.3.5.7.9.4 3.6.2 5.5-.4 3.1-.8 6.6 2.1 7.8q1.35.6 2.7.6c3.8 0 6-3.3 7.4-5.8 1.6-2.8 3.8-4.3 6.3-4.3s5.1 1.6 6.9 4.4c2.2 2.4 2.5 5.4 1.2 7.7M397.2 407.4c-.8 0-1.6 0-2.5.1-1.3.1-2.6.1-3.1 0-.1-1.3.4-2.6 4.4-4.4 4.6-2.4 7.3-6.5 7.3-11 0-4.3-2.5-8.1-6.8-10.3-5.4-2.8-11.3-2.2-14.7 1.4-2.1 2.2-3.1 5.4-3 8.9-.1 4-1.3 4.5-2.1 4.7-.4-.5-.9-1.9-1.3-2.9-1.2-3.1-2.9-7.5-7.2-7.5q-1.35 0-2.7.6c-3 1.2-5.1 3.1-6 5.6-1.1 3-.6 6.6 1.6 10.8l.4.8c.7 1.2 2.6 4.7 2.2 5.7-.5-.2-1.3-1.1-1.9-1.6-1.5-1.4-3.3-3.2-5.7-3.2-1.5 0-3 .7-4.2 2.1-4.4 4.3-2.3 9.8-1.4 12.1l.6 1.7c.8 2.2 1 3 .9 3.5-.2-.1-.5-.2-.6-.3-1-.5-2.2-1.2-3.6-1.2-1.2 0-2.8.5-3.9 2.5-2.9 4.9 1.5 12.1 3 14.6-2.5 2.5-2.5 2.8-2.4 3.2 0 .1.1.3.3.4.1.1.1.2.2.3s.5.2.7.2c.6 0 1.8-.6 3.4-1.7 2.2 1.9 6.3 5.2 10.7 5.2q1.5 0 3-.6c4.8-2 3.2-6.2 2.5-7.8l-.3-.9c.3-.2.5-.2.7-.2.7 0 1.8.4 3.1.8.5.2 1 .4 1.6.6l.4.1c1.3.4 3.1 1 5.4 1 3.1 0 5.8-1.2 8.1-3.8 1.5-1.8 2.1-3.5 2-5.2-.3-2.5-2.2-4.1-3.8-5.3-.6-.5-1.6-1.3-1.7-1.7.1-.3.2-.6 1.4-.6 1.3 0 3 .5 4.7.9.6.2 1.2.3 1.7.4 1.4.4 2.7.5 4 .5 6.5 0 11.2-4.4 12.2-11.6q.45-3.15-1.2-5.1c-1.7-1.5-4.3-1.8-6.4-1.8m3.1 6.6c-.9 6.1-4.8 8.9-10.7 7.3-.5-.1-1.1-.3-1.7-.4-2-.5-4-1-5.8-1-3.7 0-5.1 2.2-5.6 3.5-1.3 3.3 1.4 5.4 3.1 6.8.9.7 2 1.6 2.1 2.3 0 .4-.3 1.1-.9 1.8-1.4 1.5-2.9 2.2-4.7 2.2-1.5 0-2.9-.5-4-.8l-.4-.1c-.5-.2-1-.4-1.5-.5-1.6-.6-3.1-1.1-4.6-1.1s-3 .6-4.1 1.7c-1.9 1.8-1 4.1-.4 5.5.2.5.6 1.5.5 1.7 0 0-.2.2-.5.3-2 .8-4.9-.4-8.4-3.3 2-1.7 4.5-3.8 7.4-6.4 14.4-12.8 30.9-38 30.6-39.4 0-.2-.2-.5-.5-.6h-.3c-.3 0-.8.6-1.7 1.8-12 15.9-22.3 27.8-30.9 35.3-3 2.8-5.3 4.9-7.1 6.6-3.5-6-2.9-8.4-2.5-9.2.1-.1.1-.2.1-.2.3.1 1 .4 1.4.7.9.5 2 1 3.1 1q1.35 0 2.4-.9c2.8-2.7 1.6-5.8.5-8.9l-.6-1.7c-1-2.7-1.8-5.3.5-7.5.5-.5.8-.7.9-.7.6 0 1.8 1.2 2.5 1.9 1.4 1.4 3 2.9 5.1 2.9.7 0 1.3-.2 1.9-.5 1.2-.6 2-1.6 2.4-2.8.8-2.9-1-6.2-2.7-9.1l-.4-.7c-1.5-2.9-2-5.4-1.3-7.1.5-1.3 1.6-2.3 3.5-3 .4-.2.7-.2 1-.2 1.2 0 2.3 2.6 3.1 4.6 1.1 2.7 2.3 5.8 5.2 5.8h.4c4.1-.5 6.3-3.6 6.4-9.3-.1-2.4.5-4.4 1.8-5.7 2-2.1 5.8-2.3 9.4-.5 2.8 1.4 4.4 3.7 4.4 6.4 0 2.8-1.8 5.4-4.7 6.9-3.6 1.6-7.7 4.2-6.8 9.5.3 2.3 2.1 3.5 5.5 3.5.7 0 1.4 0 2.2-.1.7 0 1.5-.1 2.2-.1 2.1 0 2.7.4 2.9.6.3-.1.4.5.3 1.2M437.5 306.8c-2.4 0-4.8 1.5-6.8 2.8-.8.5-2 1.3-2.7 1.5-.7-1.1-.9-2.7 1.3-5.9 2.9-4.2 3.4-9.1 1.4-12.9-1.9-3.7-5.9-5.9-10.6-5.9h-.5c-5 .2-9.2 2.5-11.2 6.2-1.9 3.4-1.6 7.6.7 11.5 2 3.5 1.5 4.5.8 5.1-.6-.3-1.8-1.2-2.5-1.8-2.1-1.7-4.6-3.7-7.3-3.7-1.3 0-3.1.5-4.6 2.5-2.2 2.6-3.1 5.3-2.8 8 .5 3.1 2.7 6 6.7 8.4l1 .6c1.4.8 4.6 2.8 4.7 3.8h-.3c-.6 0-1.5-.2-2.4-.5-1.2-.3-2.5-.7-3.8-.7-2.8 0-4.7 1.6-5.5 4.5-1.6 5.8 2.8 9.5 4.9 11.2l1.3 1.1c1.9 1.6 2.5 2.2 2.6 2.7h-.8c-1.5 0-3.4 0-4.8 1.5-.8.9-1.2 2-1.2 3.5.1 5.4 6.6 9.4 9.6 11-1 3.5-.7 3.9-.5 4.1l.7.4h.1l.2.1c.4 0 .9 0 2.5-3.4 1.4.3 3.7.8 6.1.8 3.8 0 6.6-1.1 8.4-3.4 3.1-4.1-.3-6.9-1.6-8-.2-.2-.5-.4-.7-.6.4-.6 1.1-.8 3.5-1.2.6-.1 1.2-.2 1.9-.4l.4-.1c2.6-.5 8.6-1.7 10.2-9 .5-2.3.3-4.1-.7-5.5-1.4-2.1-3.9-2.5-5.9-2.8-.8-.1-2-.3-2.2-.5-.1-1.3 2.4-2.1 5.6-3 .5-.1 1-.3 1.5-.4 3.9-1.1 7-3.5 8.6-6.6 1.6-3.2 1.7-6.9.2-11-1.5-3.2-3.8-4-5.5-4m-32.1 58.1.1-.1.1.1zm33.3-45c-1 2-3.1 3.6-5.9 4.4-.5.1-.9.3-1.4.4-3.9 1.1-9.4 2.5-8.9 7.7.4 3.6 3.9 4.1 6 4.5 1.1.2 2.6.4 2.9.9.1.1.3.6 0 2-.9 4.1-3.8 5-6.7 5.5l-.4.1-1.8.3c-2.9.5-6 1-7.2 4.6-.9 2.5 1.1 4.1 2.2 5 .4.4 1.2 1 1.2 1.2 0 0 0 .2-.4.6-.8 1.1-2.5 1.7-4.8 1.7-1.6 0-3.1-.3-4.3-.5.9-2.3 2-5.2 3.5-9.1 6.7-19.2 8.2-48.3 7.5-49.3l-.6-.3c-.5 0-1 1.6-1.4 4.7-1.2 8.7-4.1 29-9.3 43.7-1.4 3.8-2.4 6.7-3.1 9-5.5-3.3-6.4-5.6-6.4-6.7v-.3c.4-.1 1.1-.1 1.6-.1 1.5 0 4.1-.1 5-2.5 1.3-3.8-1.4-6-3.9-8.2l-1.3-1.1c-2.3-1.9-4.2-3.8-3.5-6.6.3-1.2.7-1.2 1.2-1.2.7 0 1.7.3 2.6.5 1.2.3 2.3.6 3.5.6 2.1 0 3.2-1 3.8-1.8.8-1.1 1.1-2.4.9-3.6-.6-2.9-3.9-4.9-6.8-6.7l-.9-.6c-2.8-1.7-4.4-3.5-4.6-5.3-.2-1.4.4-2.8 1.8-4.5.6-.8 1-.8 1.1-.8 1.1 0 3.1 1.5 4.5 2.7 1.9 1.6 3.6 2.9 5.5 2.9.8 0 1.5-.2 2.1-.7 5.3-3.6 2-9.4.9-11.2-1.5-2.5-1.7-5-.6-7.1 1.2-2.3 4-3.7 7.5-3.8h.4c3.1 0 5.5 1.3 6.7 3.5 1.3 2.4.9 5.4-1.1 8.3-1.1 1.6-4.6 6.5-.9 11.6.7.9 1.8 1.5 3 1.5 1.8 0 3.5-1.1 5.4-2.3 1.5-.9 3.3-2.1 4.4-2.1.2 0 .7 0 1.2 1.2.9 2.7.9 5.2-.2 7.3M407.9 193.4c-3.6-3.9-9.6-4.5-14.7-1.4-4.3 2.6-6.8 6.7-6.8 10.9.1 3.9 2.4 7.4 6.3 9.7 3.3 1.9 3.2 3.3 2.9 4.1h-.2c-.7 0-1.8-.2-2.9-.4-1.4-.2-2.9-.5-4.4-.5-5.1 0-6.4 3.4-6.7 5.4-.5 3.3 0 6 1.8 8.1 2 2.5 5.3 3.9 9.9 4.1h.9c1.9.1 5.4.2 6.1 1v.1c-.4.3-1.6.6-2.4.8-2.5.6-7.7 2-6.3 7.9s7.2 7 9.7 7.5l1.8.4c2.3.4 3.1.7 3.5 1.1-.2.1-.5.3-.7.4-1.2.7-3 1.7-3.5 3.6-.3 1.2-.1 2.4.7 3.7 2.9 4.7 10.6 4.9 13.8 5 .8 3.3 1.1 3.3 1.6 3.3h.2c.2 0 .6-.2.8-.4s.6-.7.5-3.5c7-2.1 10.9-5.2 11.4-9.3.7-5.1-3.7-5.9-5.3-6.2-.3-.1-.6-.1-.9-.2 0-.7.6-1.3 2.5-2.8.4-.4.9-.7 1.4-1.1l.2-.2c2-1.7 6.7-5.6 4.6-12.8-1.2-4.2-3.8-5.1-5.7-5.1-1.5 0-2.9.5-4.1 1-.8.3-1.7.6-2.4.6-.7-.9 1.1-2.8 3.3-5 .5-.4.9-.9 1.3-1.2 3-2.9 4.6-6.5 4.4-10.1s-2-6.9-5.3-9.6c-1.4-1.1-2.8-1.7-4.1-1.7-3.6 0-5.6 3.6-7.1 6.5-.5.9-1.1 2.1-1.6 2.7-1.3-.6-1.9-1.9-1.5-6 .4-4.3-.7-7.9-3-10.4m3.2 20.4q.75.3 1.5.3c2.6 0 4-2.6 5.4-5.1.8-1.6 2.3-4.1 3.2-4.1.1 0 .6.1 1.3.7 2.3 1.9 3.6 4.1 3.7 6.3.1 2.3-1 4.6-3.1 6.7l-1.2 1.2c-2.8 2.7-7.1 6.9-3.8 11 .9 1.2 2.1 1.8 3.7 1.8 1.3 0 2.5-.5 3.8-.9.9-.3 1.9-.7 2.6-.7.3 0 .8 0 1.4 1.8 1.2 4-1 6.2-3.2 8.1l-.3.2c-.5.4-.9.7-1.3 1.1-2.4 1.9-4.8 3.9-4.1 7.6.5 2.5 2.9 3 4.4 3.3.5.1 1.5.3 1.7.5 0 0 .1.2 0 .8-.2 1.2-1.4 3.4-7.4 5.4-.3-2.5-.8-5.8-1.6-10.1-3.2-18.5-16.3-46.7-18.1-46.7-.2 0-.4.1-.5.2-.3.3.2 2 1.4 5 3.2 8.1 10.6 27.1 13.3 42.2.8 4.2 1.4 7.5 1.9 9.9-6.4-.2-8.4-1.8-9-2.8 0-.1-.1-.2-.1-.2.3-.2.9-.6 1.3-.8 1.3-.8 3.6-2.1 3.1-4.6-.8-3.9-4-4.6-7.2-5.2l-1.8-.4c-2.9-.5-5.5-1.3-6.2-4.1-.3-1.3-.4-1.6 3.1-2.5 2.2-.6 5.5-1.4 5.7-4.8.1-1.3-.4-2.5-1.2-3.4-2-2.2-5.9-2.3-9.3-2.5h-.8c-3.2-.2-5.5-1-6.6-2.5-.9-1.1-1.1-2.6-.8-4.6.2-1.1.5-1.6 2.2-1.6 1.1 0 2.4.2 3.6.4 1.3.2 2.5.4 3.6.4 2.5 0 3.6-1.2 4.2-2.3 1-2.3 1.7-6.6-4.6-10.2-2.6-1.5-4-3.5-4-5.8 0-2.6 1.7-5.2 4.6-7 3.3-2 7-1.7 9.1.6 1.5 1.6 2.2 4 1.9 6.7-.4 3.1-.8 8.6 4.5 10.7M323.7 122.3c-2.5 4.4-2.7 9-.7 12.6 1.9 3.4 5.6 5.4 10.3 5.6 3.9 0 4.5 1.2 4.6 2.1-.5.4-1.9.8-2.9 1.2-2.8 1-5.9 2.1-7.2 4.8-.7 1.5-.7 3.1-.1 4.8 2.2 6.8 8.2 8.9 16.1 5.2l.8-.4c1.8-.9 4.1-2.1 5.5-2.1.2 0 .3 0 .4.1-.2.4-1.1 1.3-1.7 1.9-1.5 1.4-3.4 3.2-3.4 5.7q0 2.25 1.8 4.2c1.7 2 4 2.9 6.7 2.9 2.1 0 4.1-.7 5.4-1.1l1.9-.6c1.5-.5 2.8-1 3.5-.8-.1.2-.3.5-.4.7-.8 1.2-1.8 2.9-1.3 4.9.3 1.2 1.1 2.1 2.4 2.9 1.1.6 2.5 1 4 1 3.5 0 7.3-1.7 10.1-3.2 2.1 2.3 2.5 2.3 2.8 2.3.2 0 .4-.1.6-.2h.2l.2-.4c.2-.3.4-.9-1.2-3.5 5.3-5.3 7.2-10 5.7-14-1.2-3-3.4-3.5-4.6-3.5-1.1 0-2.1.3-3 .6-.2.1-.6.2-.8.3-.3-.7-.1-1.4.8-3.8.2-.5.4-1 .6-1.6l.1-.3c.9-2.4 3.1-8.2-2.2-13.5-1.6-1.5-3.2-2.3-4.8-2.3-2.7 0-4.4 2-5.8 3.6-.5.6-1.4 1.6-1.8 1.6-1.1-.5-.4-3 .5-6.1.2-.6.4-1.2.5-1.7 1.2-3.9.9-7.6-.9-10.6-1.8-3.1-5.1-5.2-9.4-6.1-2.8-.5-4.7.5-5.5 1.4-2 2-2 5.4-2 8.3 0 1 0 2.4-.1 3.1-1.4 0-2.6-.8-4.3-4.3-2.1-5-6.2-7.9-10.9-7.9-4.3-.3-8.2 2.1-10.5 6.2m3.9 2.2c1.5-2.6 3.9-4.2 6.4-4.2 2.8 0 5.4 2 6.8 5.3 1.6 3.5 3.8 7 8.4 7h.9c3.8-.4 3.8-4.5 3.7-7.6 0-1.8 0-4.4.7-5.1.1-.1.2-.2.8-.2.2 0 .5 0 .7.1 3 .6 5.2 2 6.4 4 1.1 1.9 1.3 4.3.5 7.1-.2.5-.3 1.1-.5 1.6-1.1 3.8-2.9 9.4 2 11.5.6.3 1.2.4 1.8.4 2.3 0 3.9-1.8 5.1-3.2.8-.9 1.7-2 2.4-2 .2 0 .7.1 1.7 1 3 3 2.2 5.9 1.1 8.7l-.1.4-.6 1.5c-1.1 2.8-2.2 5.7.2 8.7.5.6 1.4 1.3 2.8 1.3.9 0 1.8-.3 2.6-.6.6-.2 1.2-.4 1.7-.4 0 0 .2.1.4.6.5 1.2.5 3.8-4.1 8.6-1.5-2-3.5-4.7-6.3-8.1-10.6-12.9-28.9-25.9-35-30.1-2.6-2.1-2.8-2.1-3.1-2.1h-.3l-.5.5v.4c0 .3.9 1.1 2.8 2.3l.2.1c7 5.6 22.8 19.4 32.8 31.5 2.7 3.3 4.7 5.8 6.3 7.6-1.9 1-4.7 2.2-7 2.2-.7 0-1.3-.1-1.8-.4-.1-.1-.2-.1-.2-.1.1-.4.5-1 .7-1.4.8-1.3 2.1-3.5.5-5.5q-1.65-2.1-4.2-2.1c-1.5 0-2.9.5-4.6 1.1l-1.9.6c-1.1.4-2.6.9-4 .9s-2.4-.5-3.4-1.5c-.4-.4-.6-.8-.6-1 0-.6 1.2-1.8 2-2.5 1.6-1.6 4.1-3.9 2.7-6.9-.8-1.8-2.5-2.7-4.5-2.7-2.4 0-5.1 1.4-7.5 2.6l-.7.4c-2 .9-3.8 1.4-5.2 1.4s-3.5-.4-4.7-4c-.3-.9-.2-1.3-.1-1.4.5-1 2.9-1.9 4.6-2.4 2.7-.9 6.1-2.1 5.9-5.3-.2-3-2-6.7-9-6.7-3-.1-5.3-1.3-6.5-3.3-1.1-2.7-.8-5.6.8-8.6M115.7 339.5l10.1-26.4h-5.7l-5.3 13.7c-.8 2-1.5 4.4-2.2 6.8h-.1c-.7-2.5-1.4-4.8-2.2-6.9l-5.1-13.6h-6.1l10.1 26.4zM148.3 335.1h-10V328h9.6v-4.2h-9.6v-6.5h10V313h-15.5v26.5h15.5zM168 339.5v-21.8h7.4V313h-20.2v4.7h7.3v21.8zM198.8 317.3V313h-15.6v26.5h15.6v-4.4h-10.1V328h9.6v-4.2h-9.6v-6.5zM225.4 327.1l-8.9-14.1h-7.3v26.5h5.3l-.1-13.8c0-2.4-.1-4.1-.2-5.5h.1c.7 1.6 1.7 3.5 2.7 5l9.1 14.3h7.3V313h-5.3l.1 11.6c0 3.4.1 6 .1 7.6-.9-1.8-1.9-3.5-2.9-5.1M249.8 335.4c-2.2 0-4.3-.4-5.9-1l-.2 4.9c1.5.4 3.6.7 5.4.7 6.8 0 11.4-3.5 11.4-8.9 0-8.3-11.8-6.3-11.8-10.8 0-2 1.5-3.3 4.8-3.3 1.5 0 3.6.3 5.1.8l.2-4.7c-1.5-.3-3.5-.5-5-.5-7 0-10.8 3.3-10.8 8.3 0 8.6 11.6 6.2 11.6 10.8.1 2.5-2.3 3.7-4.8 3.7M270.2 313v26.5h5.6V327l9.8 12.5h7.2l-11.3-13.8 10.8-12.7h-6.8l-9.7 11.8V313zM304.6 334.3h11l1.9 5.1h6.1l-10-26.5h-6.5l-10 26.5h5.5zm4.2-11.4c.5-1.4 1-2.9 1.3-4.1.4 1.2.9 2.8 1.4 4.2l2.8 7.4h-8.4zM340.2 312.8c-3.1 0-6.4.1-8.6.2v26.5h5.5v-8.7c.7.1 1.7.1 2.3.1 6.7 0 11.3-3.7 11.3-9.5 0-5.4-3.8-8.6-10.5-8.6m-.8 13.7c-.7 0-1.7 0-2.3-.2v-9h2.7c3.4 0 5.1 1.9 5.1 4.5 0 3-2.1 4.7-5.5 4.7M115.8 384c7.6 0 13.9-5.2 13.9-13.9s-5.3-13.4-13-13.4-13.7 5.2-13.7 13.9c-.1 7.9 4.2 13.4 12.8 13.4m.5-22.5c4.5 0 7.5 3.1 7.5 9s-3.5 8.8-7.7 8.8c-5.2 0-7.3-4-7.3-9 0-5.8 3.4-8.8 7.5-8.8M149 383.9c2.6 0 4.9-.4 7.1-1.2l-.5-4.9c-1.6.8-3.6 1.2-5.5 1.2-5.2 0-8.3-3-8.3-8.7 0-5.2 2.8-9 8-9 1.8 0 3.7.3 5.6.9l.5-4.8c-1.8-.5-4-.7-5.7-.7-9.9 0-14.2 6.7-14.2 14.1 0 8.1 4.4 13.1 13 13.1M188.2 383.6v-26.5h-5.4v10.5h-12.5v-10.5h-5.5v26.5h5.5v-11.2h12.5v11.2zM217.3 371.1l9.8 12.5h7.3l-11.5-13.8 10.9-12.7H227l-9.7 11.8v-11.8h-5.5v26.5h5.5zM250.9 384c7.6 0 13.9-5.2 13.9-13.9s-5.3-13.4-13-13.4-13.7 5.2-13.7 13.9c-.1 7.9 4.2 13.4 12.8 13.4m.5-22.5c4.5 0 7.5 3.1 7.5 9s-3.4 8.8-7.7 8.8c-5.2 0-7.3-4-7.3-9-.1-5.8 3.5-8.8 7.5-8.8M280.8 369.2l9.1 14.3h7.3v-26.4h-5.3l.1 11.6c0 3.4 0 6 .1 7.6-.9-1.8-1.9-3.6-2.9-5.2l-8.9-14.1H273v26.4h5.4v-13.8c0-2.5-.1-4.1-.2-5.5h.1c.5 1.7 1.4 3.5 2.5 5.1M313.3 379.5c-2.2 0-4.3-.4-5.8-1l-.2 4.9c1.5.4 3.6.7 5.4.7 6.8 0 11.4-3.5 11.4-8.9 0-8.3-11.8-6.3-11.8-10.8 0-2 1.5-3.3 4.8-3.3 1.5 0 3.6.3 5 .8l.2-4.7c-1.5-.2-3.5-.5-5-.5-7 0-10.8 3.3-10.8 8.3 0 8.6 11.6 6.1 11.6 10.8 0 2.6-2.3 3.7-4.8 3.7M342.2 383.6v-21.8h7.4v-4.7h-20.2v4.7h7.3v21.8zM137.2 282.2l-.6-.1c-13.9-1.7-14-4.5-14.3-16V246l23.2 25.2c8.8 9.7 13.7 15 26.6 15 2.4 0 5-.2 8.1-.5l.6-.1.1-3.1h-.7c-7.7-.3-12-4.7-20.4-13.5-1.2-1.2-2.4-2.5-3.7-3.8L133.5 240l9.1-9.3 1.9-2c7.6-8 16.3-17.1 27.9-18.4l.7-.1v-3.1h-30.6v3.1l.7.1c3 .3 4.7 1 5.1 2.2.9 2.2-1.8 6.8-8.2 14l-17.8 18.9v-19.1c.3-11.6.4-14.3 11.3-16l.6-.1v-3.1H96.9v3.1l.7.1c12.9 1.7 12.9 4.5 13.3 16v39.6c-.3 11.6-.4 14.3-13.3 16l-.7.1v3.1h40.3zM238.9 282.2l-.7-.1c-14.5-1.7-15.1-5-15.1-18.7v-51.2h6c13.3 0 18.7 4.1 22.3 17l.2.7 2.9-.6-1.4-22h-71.4l-1.4 22 2.9.6.2-.7c3.6-12.8 9-17 22.3-17h6v51.2c0 13.7-.6 17-15.1 18.7l-.6.1v3.1h42.9zM353.5 210.5l.6-.1v-3.1h-40.3v3.1l.6.1c14.3 2.1 14.3 3.9 14.3 16V242h-40.6v-15.6c0-12.1 0-13.9 14.3-16l.6-.1v-3.1h-40.3v3.1l.6.1c12.9 1.7 13 4.5 13.3 16V266c-.4 11.6-.4 14.3-13.3 16l-.6.1v3.1H303v-3.1l-.6-.1c-14.3-2.1-14.3-3.9-14.3-16v-17.8h40.6V266c0 12.1 0 13.9-14.3 16l-.6.1v3.1h40.3v-3.1l-.6-.1c-12.9-1.7-13-4.5-13.3-16v-39.6c.3-11.5.4-14.2 13.3-15.9M130.8 105.2c-.3.6-2.1 4.4.6 8.5 2.9 4.5 7.9 3.7 8.1 3.7 3.4 4.3 9.2 9.5 13.9 8.2 0 0 29.6-13.7 70.6-13.8 41.1.1 70.7 13.8 70.7 13.8 4.7 1.3 10.4-3.8 13.9-8.2.2 0 5.1.8 8.1-3.7 2.7-4.1.9-8 .6-8.5 2.5-4 6.2-7.5 6.2-7.5 1.8-1.6 2.8-3.9 2.8-6.4 0-4.8-4-8.8-8.8-8.8-.4 0-.8 0-1.1.1-.1-.2-.1-.5-.2-.7 2.4-1.2 4-3.7 4-6.5 0-4.1-3.3-7.4-7.4-7.4-1.4 0-2.6.4-3.7 1-.2-.2-.4-.5-.6-.7 1.1-1.1 1.9-2.6 1.9-4.3 0-3.4-2.7-6.1-6.1-6.1-2.1 0-3.9 1-5 2.6-.4-.2-.7-.5-1.1-.7.7-.9 1.1-2 1.1-3.3 0-3-2.5-5.5-5.5-5.5-2.4 0-4.4 1.5-5.2 3.7-.6-.2-1.2-.5-1.8-.7.5-.8.7-1.6.7-2.5 0-2.8-2.2-5-5-5-2.5 0-4.6 1.8-4.9 4.2-.4-.1-.7-.2-1.1-.3-.8-2.9-3.5-5.1-6.7-5.1-.7 0-1.4.1-2 .3-.3-.2-.5-.4-.8-.6v-.3c0-3.3-2.7-5.9-5.9-5.9-1.3 0-2.5.4-3.4 1.1-.2-.1-.5-.2-.7-.3v-.1c0-3-2.4-5.3-5.4-5.3-2 0-3.7 1.1-4.6 2.8-.4-.1-.8-.2-1.2-.2v-.2c0-2.7-2.2-4.9-4.9-4.9-2.3 0-4.3 1.7-4.8 3.8-.5 0-.9-.1-1.4-.1q.9-2.1.9-4.5c0-4.4-2.5-8.3-6.2-10.2 0 0-1.4-.7-3.3-1.1v-8.8h4.9c.2-.2.5-.9.5-2.1s-.3-1.8-.5-2.1h-5V1.5c-.2-.2-.8-.5-2-.5s-1.9.3-2.1.5v4.9H217c-.2.2-.5.9-.5 2s.3 1.9.5 2.1h4.9v8.8c-1.9.4-3.2 1.1-3.2 1.1-3.7 1.9-6.2 5.8-6.2 10.2q0 2.4.9 4.5c-.5 0-1 .1-1.4.1-.5-2.2-2.4-3.9-4.7-3.9-2.7 0-4.9 2.2-4.9 4.9v.2c-.4.1-.9.2-1.3.2-.9-1.6-2.6-2.8-4.6-2.8-2.9 0-5.4 2.4-5.4 5.3v.1c-.2.1-.5.2-.7.3-1-.7-2.1-1.1-3.4-1.1-3.3 0-5.9 2.7-5.9 5.9v.3c-.3.2-.5.4-.8.6-.6-.2-1.3-.3-2-.3-3.2 0-5.9 2.2-6.7 5.1-.4.1-.7.2-1.1.3-.4-2.4-2.4-4.2-4.9-4.2-2.8 0-5 2.3-5 5 0 .9.3 1.8.7 2.5-.6.2-1.2.5-1.8.7-.8-2.1-2.8-3.7-5.2-3.7-3.1 0-5.6 2.5-5.6 5.5 0 1.2.4 2.3 1.1 3.3-.4.2-.7.5-1.1.7-1.1-1.6-2.9-2.6-5-2.6-3.4 0-6.1 2.7-6.1 6.1 0 1.7.7 3.3 1.9 4.4-.2.2-.4.5-.6.7-1.1-.7-2.4-1-3.7-1-4.1 0-7.4 3.3-7.4 7.4 0 2.9 1.6 5.3 4 6.5-.1.2-.2.5-.2.7-.4-.1-.8-.1-1.1-.1-4.8 0-8.8 4-8.8 8.8 0 2.6 1.1 4.8 2.8 6.4 0 .3 3.8 3.9 6.3 7.8m7.6 9.2c-3 0-5.4-2.4-5.4-5.4 0-1.1.4-2.2.9-3 1-1.4 2.6-2.4 4.5-2.4s3.5.9 4.5 2.4c.6.9.9 1.9.9 3.1 0 2.9-2.4 5.3-5.4 5.3M224 96.7c-3 0-5.4-2.4-5.4-5.4s2.4-5.4 5.4-5.4 5.4 2.4 5.4 5.4-2.5 5.4-5.4 5.4m0-41.9c3 0 5.4 2.4 5.4 5.3s-2.4 5.3-5.4 5.3-5.3-2.4-5.3-5.3c-.1-3 2.3-5.3 5.3-5.3m-4.2-6c0-2.3 1.9-4.2 4.2-4.2s4.2 1.9 4.2 4.2-1.9 4.2-4.2 4.2-4.2-1.9-4.2-4.2m4.2 18.7c3.7 0 6.6 3 6.6 6.6 0 1.7-.6 3.2-1.6 4.4-1.4-1.1-3.1-1.7-5-1.7s-3.6.6-5 1.7c-1-1.2-1.6-2.7-1.6-4.4 0-3.6 2.9-6.6 6.6-6.6m85.6 46.9c-3 0-5.4-2.4-5.4-5.4 0-1.5.6-2.8 1.5-3.8 1-1 2.4-1.7 3.9-1.7 2.3 0 4.3 1.5 5.1 3.5.2.6.4 1.2.4 1.9-.1 3.1-2.5 5.5-5.5 5.5m7.9-28.9c3.2 0 5.8 2.6 5.8 5.8 0 2.1-2 4.7-3.9 5.8-1.5-1.8-3.8-3-6.4-3h-.7c-.5-.8-.8-1.8-.8-2.9.1-3.1 2.7-5.7 6-5.7m-4.7-14.6c2.4 0 4.4 2 4.4 4.4s-2 4.4-4.4 4.4-4.4-2-4.4-4.4 1.9-4.4 4.4-4.4m-8.6-10.2c1.7 0 3.1 1.4 3.1 3.1s-1.4 3.1-3.1 3.1-3.1-1.4-3.1-3.1 1.4-3.1 3.1-3.1m-10.5-6.8c1.4 0 2.5 1.1 2.5 2.5s-1.1 2.5-2.5 2.5-2.5-1.2-2.5-2.5 1.1-2.5 2.5-2.5m-11.2-4.7c1.1 0 2 .9 2 2s-.9 2-2 2-2-.9-2-2 .8-2 2-2m-6.7 6.1c17 5.4 25.8 13.6 29.8 21.8 3.3 7.5 2.7 9.3 3 14 .1 1.7.5 2.8.8 3.8-3.9 2.1-4.3 5.1-4.4 5.3-.2-.1-.3-.2-.5-.3-1.4-1.2-3.2-1.9-5.2-1.9-6.2.1-10 6.1-7.5 11.9.6 1.4 4 6.5 10.8 4 .4.5.9 1 1.4 1.5-1.9 3.8-6.5 5.6-10.6 4-4-1.6-6.9-4.9-8-8.8-3 2.7-7.2 4-11.5 3.1-4.6-.9-7.5-5.3-6.7-9.9.1-.4.5-2.1.7-2.7.6 3.2 3.1 5.8 6.4 6.5 4.4.9 8.8-2 9.6-6.4.9-4.4-2-8.7-6.5-9.6-.5-.1-1 0-1.5 0 .1-.4.3-.8.3-.8.2-1 .2-1.9 0-2.9 4-1.1 7-4.8 7-9.1 0-3.5-1.9-6.6-4.8-8.2 2.4-1.4 4-3.9 4-6.8 0-4.1-3.2-7.5-7.2-7.8.4-.2.5-.4.6-.7m-5.9 26c-.7-.1-1.4-.2-2-.1-.3-.7-.4-1.5-.4-2.3 0-3.6 2.9-6.5 6.5-6.5s6.5 2.9 6.5 6.5c0 3.1-2.2 5.7-5.1 6.3-1.2-1.9-3.1-3.4-5.5-3.9m9.7-17.5c0 2.7-2.2 4.9-4.9 4.9s-4.9-2.2-4.9-4.9 2.2-4.9 4.9-4.9 4.9 2.2 4.9 4.9M269.7 48c2.2 0 4 1.8 4 4s-1.8 4-4 4-4-1.8-4-4 1.8-4 4-4M267 90.1c3 0 5.4 2.4 5.4 5.4s-2.4 5.4-5.4 5.4-5.4-2.4-5.4-5.4 2.5-5.4 5.4-5.4m-6-48.6c1.6 0 2.9 1.3 2.9 2.9s-1.3 2.9-2.9 2.9-2.9-1.3-2.9-2.9 1.3-2.9 2.9-2.9m-9.5-4.6c1.3 0 2.4 1 2.4 2.3s-1.1 2.3-2.4 2.3-2.3-1-2.3-2.3 1-2.3 2.3-2.3m-10.7-2.6c1.1 0 1.9.8 1.9 1.9s-.8 1.9-1.9 1.9-1.9-.8-1.9-1.9c0-1 .8-1.9 1.9-1.9m21.3 46.5 1.2 2.1c-1.5 1.2-2.6 2.9-3 4.9v.8c-.5-.2-.9-.4-1.4-.5-4.4-.9-8.7 2-9.6 6.5-.9 4.4 2 8.7 6.5 9.6 3.4.7 6.6-.9 8.4-3.6-.1.7-.3 2.3-.4 2.8-.9 4.6-5.3 7.6-9.9 6.7-4.3-.8-7.4-3.6-9.2-7.2-2.4 3.2-6 5.3-10.4 5.3-4.6 0-8.4-3.8-8.4-8.4 0-.4.1-2.1.1-2.8 1.2 3 4.2 5.2 7.6 5.2 4.5 0 8.2-3.7 8.2-8.2s-3.7-8.2-8.2-8.2c-.5 0-1 .2-1.5.3.1-.4.1-.9.1-.9 0-.8-.1-1.6-.3-2.3l2.9-1.9s-.5-27.7-5.5-40.1c.2-.1.3-.2.5-.3 40.5 2.2 37 30.3 32.3 40.2m-29.7-50.9v.5c0 1.7-.5 3.2-1.4 4.5h-2.8c.1-.3.1-.7.1-1.1 0-1.7-.9-3.1-2.3-3.9zm-6.4-7.6c2.4.6 4.5 2.3 5.6 4.4H226zm-2 9.6c1 0 1.9.8 1.9 1.9s-.8 1.9-1.9 1.9-1.9-.8-1.9-1.9.8-1.9 1.9-1.9m0 5.6c1.6 0 2.8 1.3 2.8 2.8s-1.3 2.8-2.8 2.8-2.8-1.3-2.8-2.8c0-1.6 1.2-2.8 2.8-2.8m-2.1-15.2v4.5h-5.5c1.1-2.2 3.1-4 5.5-4.5m-6.4 7.6h6.2c-1.4.8-2.3 2.2-2.3 3.9 0 .4.1.7.1 1.1h-2.7c-.8-1.3-1.4-2.8-1.4-4.5.1-.2.1-.4.1-.5m-8.3 4.4c1 0 1.9.8 1.9 1.9s-.8 1.9-1.9 1.9-1.9-.8-1.9-1.9.9-1.9 1.9-1.9m-10.8 2.6c1.3 0 2.3 1 2.3 2.3s-1 2.3-2.3 2.3-2.4-1-2.4-2.3c.1-1.3 1.1-2.3 2.4-2.3m-9.4 4.6c1.6 0 2.9 1.3 2.9 2.9s-1.3 2.9-2.9 2.9-2.9-1.3-2.9-2.9 1.3-2.9 2.9-2.9m31.1-1c.2.1.3.2.5.3-4.9 12.4-5.5 40.1-5.5 40.1l2.9 1.9c-.2.7-.3 1.5-.3 2.3 0 0 .1.5.1.9-.5-.1-1-.3-1.5-.3-4.5 0-8.2 3.7-8.2 8.2s3.7 8.2 8.2 8.2c3.4 0 6.4-2.1 7.6-5.2.1.6.1 2.3.1 2.8 0 4.7-3.8 8.4-8.4 8.4-4.3 0-7.9-2.1-10.4-5.3-1.8 3.6-4.9 6.4-9.2 7.2-4.6.9-9-2.1-9.9-6.7-.1-.4-.3-2.1-.4-2.8 1.8 2.7 5 4.3 8.4 3.6 4.4-.9 7.3-5.2 6.5-9.6s-5.2-7.3-9.6-6.5c-.5.1-.9.4-1.4.5v-.8c-.4-2-1.5-3.7-3-4.9l1.2-2.1c-4.7-9.8-8.2-37.9 32.3-40.2m-31.8 55c0 3-2.4 5.4-5.4 5.4s-5.4-2.4-5.4-5.4 2.4-5.4 5.4-5.4 5.4 2.4 5.4 5.4m-13.7-10.3c-2.9-.7-5.1-3.2-5.1-6.3 0-3.6 2.9-6.5 6.5-6.5s6.5 2.9 6.5 6.5c0 .8-.2 1.6-.4 2.3-.7 0-1.3 0-2 .1-2.4.5-4.4 2-5.5 3.9m5.7-37.2c2.2 0 4 1.8 4 4s-1.8 4-4 4-4-1.8-4-4 1.8-4 4-4m-5 10.9c2.7 0 4.9 2.2 4.9 4.9s-2.2 4.9-4.9 4.9-4.9-2.2-4.9-4.9c-.1-2.7 2.1-4.9 4.9-4.9m-7.8-9.7c1.1 0 2 .9 2 2s-.9 2-2 2-2-.9-2-2 .9-2 2-2m-11.2 4.7c1.4 0 2.5 1.1 2.5 2.5s-1.1 2.5-2.5 2.5-2.6-1.2-2.6-2.5c0-1.4 1.2-2.5 2.6-2.5m17.8 1.4c.1.2.3.5.4.7-4 .4-7.2 3.7-7.2 7.8 0 2.9 1.6 5.5 4 6.8-2.9 1.6-4.8 4.7-4.8 8.2 0 4.4 3 8 7 9.1-.1.9-.1 1.9 0 2.9 0 0 .2.4.3.8-.5 0-1-.1-1.5 0-4.4.9-7.3 5.2-6.5 9.6.9 4.4 5.2 7.3 9.6 6.4 3.4-.7 5.8-3.3 6.4-6.5.2.6.6 2.3.7 2.7.9 4.6-2.1 9-6.6 9.9-4.3.8-8.5-.4-11.5-3.1-1.1 3.9-4 7.2-8 8.8-4.1 1.6-8.6-.2-10.6-4 .5-.4 1-.9 1.4-1.5 6.8 2.4 10.2-2.6 10.8-4 2.5-5.8-1.3-11.9-7.5-11.9-2 0-3.8.7-5.2 1.9-.2.1-.3.2-.5.3-.1-.2-.5-3.2-4.4-5.3.3-1 .8-2.1.8-3.8.3-4.8-.3-6.5 3-14 4.1-8.2 12.9-16.4 29.9-21.8m-28.3 5.4c1.7 0 3.1 1.4 3.1 3.1s-1.4 3.1-3.1 3.1-3.1-1.4-3.1-3.1 1.4-3.1 3.1-3.1m-13 14.6c0-2.4 2-4.4 4.4-4.4s4.4 2 4.4 4.4-2 4.4-4.4 4.4-4.4-2-4.4-4.4m-.3 10.2c3.2 0 5.8 2.6 5.8 5.8 0 1.1-.3 2-.8 2.9h-.7c-2.6 0-4.8 1.2-6.4 3-1.8-1.1-3.8-3.7-3.8-5.8.1-3.3 2.7-5.9 5.9-5.9M283.9 148.5c.8 0 1.5-.5 1.8-1.2.4-1-.1-2.1-1.1-2.4-19.1-7.1-39.2-10.7-59.9-10.7h-1.3c-20.6 0-40.8 3.6-59.9 10.7-1 .4-1.5 1.5-1.1 2.4.4 1 1.5 1.5 2.4 1.1 18.7-6.9 38.4-10.4 58.6-10.4h1.3c20.2 0 39.9 3.5 58.6 10.4.1 0 .4.1.6.1" class="st0"/><path d="m295.4 137.3-2.8-7.4-.4-1.1-3.6.6c-19.6-7.5-40.2-11.5-61.3-11.9l-3.4-1.9-3.4 1.9c-21.1.4-41.7 4.4-61.3 11.9l-3.6-.6-.4 1.1-2.8 7.4 8 4.4 2.6-3.1c18.1-6.8 37.2-10.5 56.8-10.9l4.1 2.3 4.1-2.3c19.6.4 38.6 4.1 56.8 10.9l2.6 3.1zm-135.5.8c-1.1-.6-2.6-1.4-3.7-2 .5-1.2 1-2.8 1.5-3.9 1.3.2 4 .6 6.4 1.1-1.6 1.7-3.4 3.7-4.2 4.8m33.6-9.6-6.4 1.3c-1.8.4-3.5-.8-3.9-2.5-.4-1.8.8-3.5 2.5-3.8l6.4-1.3c1.8-.4 3.5.8 3.9 2.5s-.7 3.4-2.5 3.8m30.5-1.8-6.7-3.8 6.7-3.8 6.7 3.8zm40.7.6c-.4 1.8-2.1 2.9-3.9 2.5l-6.4-1.3c-1.8-.4-2.9-2.1-2.6-3.8.4-1.8 2.1-2.9 3.9-2.5l6.4 1.3c1.8.3 3 2 2.6 3.8m19.3 5.8c2.4-.4 5-.8 6.4-1.1.4 1.2 1 2.7 1.5 3.9-1.1.6-2.6 1.4-3.7 2-1-.9-2.7-2.9-4.2-4.8" class="st0"/></svg>