<?xml version="1.0" encoding="UTF-8" standalone="no"?>
<svg
   height="380"
   viewBox="0 0 190 190"
   width="380"
   version="1.1"
   id="svg10"
   xmlns="http://www.w3.org/2000/svg"
   xmlns:svg="http://www.w3.org/2000/svg">
  <defs
     id="defs10" />
  <path
     d="M 0,0 H 190 V 190 H 0 Z"
     fill="#237f52"
     id="path2" />
  <path
     d="M 45.25,93.594 C 26.216,99.79 11.642,111.93 10,130 v 50 H 145 V 130 C 143.36,111.93 128.78,99.79 109.75,93.594 L 77.562,170 Z"
     fill="#ecece7"
     id="path3" />
  <path
     d="m 41,125.69 c -5.891,0 -10.688,4.77 -10.688,10.66 0,5.88 4.797,10.65 10.688,10.65 5.891,0 10.656,-4.77 10.656,-10.66 0,-5.89 -4.765,-10.66 -10.656,-10.66 z m 0,7.16 c 1.933,0 3.5,1.56 3.5,3.5 0,1.93 -1.567,3.5 -3.5,3.5 -1.933,0 -3.5,-1.57 -3.5,-3.5 0,-1.94 1.567,-3.5 3.5,-3.5 z"
     fill="#237f52"
     id="path4" />
  <path
     d="M 145,11.5 V 29 H 127.5 V 44 H 145 v 17.5 h 15 V 44 h 17.5 V 29 H 160 V 11.5 Z"
     fill="#ecece7"
     id="path5" />
  <path
     d="m 105,59.636 a 27.5,30.36 0 1 1 -55,0 27.5,30.36 0 1 1 55,0 z"
     fill="#ecece7"
     id="path6"
     style="stroke-width:1.15579" />
  <path
     d="M 42.961,65 C 50,125 105,125 110,65"
     fill="none"
     stroke="#ecece7"
     stroke-linecap="round"
     stroke-linejoin="round"
     stroke-width="6"
     id="path7" />
  <path
     d="m 41.961,147 c 3.179,27.1 23.159,33.18 33.325,18.24"
     fill="none"
     stroke="#237f52"
     stroke-linecap="round"
     stroke-linejoin="round"
     stroke-width="4"
     id="path8" />
  <path
     d="m 115,140 h 5 v 40 h -5 z"
     fill="#237f52"
     id="path9" />
  <path
     d="m 74,112 h 6 v 64 l -6,-15 z"
     fill="#ecece7"
     id="path10" />
</svg>
