<?xml version="1.0" encoding="UTF-8" standalone="no"?>
<svg
   height="380"
   viewBox="0 0 190 190"
   width="380"
   version="1.1"
   id="svg5"
   xmlns="http://www.w3.org/2000/svg"
   xmlns:svg="http://www.w3.org/2000/svg">
  <defs
     id="defs5" />
  <path
     d="M 0,0 H 190 V 190 H 0 Z"
     fill="#237f52"
     id="path2" />
  <g
     fill="#ecece7"
     stroke-width="4.65"
     transform="matrix(1.1116587,0,0,1.1116587,-256.36533,-24.635753)"
     id="g5">
    <path
       d="m 240.57129,32.571289 c 0.1323,5.225551 0.1186,14.911665 0.0495,20.318706 C 241.92998,53.51824 243.17871,54 243.17871,54 c 0,0 4.82246,-13.930733 7.07031,-21.428711 z m 12.38086,0.761719 c 0,0 -7.36408,21.472692 -7.80957,23.238281 -0.79235,3.140295 -0.93827,6.563652 -0.19043,9.714844 0.59678,2.514676 1.81979,5.001159 3.61914,6.856445 1.88059,1.939051 7.04785,4 7.04785,4 0,0 7.79331,-22.507403 8.19043,-25.713867 0.31254,-2.523572 0.40858,-5.201934 -0.38086,-7.619141 -0.82552,-2.527705 -2.4793,-4.808267 -4.38086,-6.666992 -1.71337,-1.674771 -6.0957,-3.80957 -6.0957,-3.80957 z m 13.6416,20.186523 c 0,0 -7.36408,21.472694 -7.80957,23.238281 -0.79235,3.140292 -0.93827,6.563655 -0.19043,9.714844 0.59678,2.514675 1.81979,5.00116 3.61914,6.856446 1.88059,1.939049 7.04688,4 7.04688,4 0,0 0.33321,-0.971687 0.45605,-1.328125 l -0.66797,-7.429688 1.71387,2 0.38086,-8.094727 h 1.90527 l 0.19043,-8.190429 3.44043,0.429687 c 0.41501,-1.438673 0.7045,-2.559692 0.77149,-3.100586 0.31252,-2.523568 0.40858,-5.201937 -0.38086,-7.61914 -0.82552,-2.527704 -2.47932,-4.808269 -4.38086,-6.666992 -1.71337,-1.674771 -6.09473,-3.809571 -6.09473,-3.809571 z m 29.54199,58.131839 c 0,0 -0.38762,1.13383 -0.6123,1.79004 v 6.17773 l -1.64746,-1.34863 c -0.13072,0.38342 -0.25609,0.75157 -0.39258,1.15234 l 0.23047,6.38672 -2.28516,-0.19043 0.66699,8.47559 -3.51758,-0.043 c -0.11985,0.38151 -0.21575,0.69444 -0.25195,0.83789 -0.79235,3.1403 -0.93827,6.56267 -0.19043,9.71387 0.59678,2.51466 1.81979,5.00213 3.61914,6.85742 1.88059,1.93905 7.04785,4 7.04785,4 0,0 7.79331,-22.5074 8.19043,-25.71387 0.31254,-2.52357 0.40858,-5.20193 -0.38086,-7.61914 -0.8255,-2.52771 -2.47931,-4.80826 -4.38085,-6.66699 -1.71337,-1.67477 -6.09571,-3.80957 -6.09571,-3.80957 z m 13.42285,19.44824 c 0,0 -7.36408,21.47269 -7.80957,23.23828 -0.79235,3.1403 -0.93827,6.56267 -0.19043,9.71387 0.59678,2.51468 1.8198,5.00213 3.61914,6.85742 1.88059,1.93905 7.04786,4 7.04786,4 0,0 7.79331,-22.5074 8.19043,-25.71387 0.31254,-2.52356 0.40858,-5.20193 -0.38086,-7.61914 -0.82552,-2.52771 -2.47931,-4.80826 -4.38086,-6.66699 -1.71337,-1.67477 -6.09571,-3.80957 -6.09571,-3.80957 z m 12.95996,21.07422 c 0,0 -7.36408,21.47171 -7.80957,23.2373 -0.58991,2.33801 -0.82058,4.83318 -0.59179,7.25586 h 15.55859 c 1.80785,-5.5001 3.5199,-10.9427 3.7002,-12.39844 0.31254,-2.52354 0.40858,-5.20193 -0.38086,-7.61914 -0.82552,-2.52768 -2.48028,-4.80728 -4.38184,-6.66601 -1.71337,-1.67477 -6.09473,-3.80957 -6.09473,-3.80957 z m 11.88477,22.72265 c 0,0 -1.43534,4.20695 -2.65039,7.77051 h 11.89355 c -0.85524,-1.45775 -1.95237,-2.79277 -3.14746,-3.96094 -1.71334,-1.67475 -6.0957,-3.80957 -6.0957,-3.80957 z"
       id="path3" />
    <path
       d="m 381.0293,33.823242 c -2.15296,0.03477 -4.34021,0.892817 -6.33008,1.734375 -2.79837,1.183488 -5.17889,3.208414 -7.54199,5.118164 -4.44549,3.592601 -8.18111,7.987205 -12.39161,11.852539 -3.70233,3.398856 -7.34059,6.888532 -11.31347,9.966797 -4.80354,3.721846 -9.88657,7.089487 -15.08496,10.236328 -7.1482,4.327139 -15.38139,6.868571 -22.08887,11.851563 -0.71354,0.530082 -1.65759,1.026634 -1.88574,1.885742 -0.26277,0.98948 0.41058,2.020623 0.80859,2.963867 2.95747,7.008962 8.30074,13.209713 11.58301,19.664063 0.30997,0.60954 1.20477,0.87012 1.88574,0.80762 0.96717,-0.0888 1.7293,-0.93729 2.42383,-1.61621 1.56755,-1.53233 2.43165,-3.65276 3.77148,-5.3877 1.44061,-1.86539 2.82651,-3.810826 4.57911,-5.386718 1.77782,-1.598601 3.82471,-2.901901 5.92675,-4.041016 2.05257,-1.112291 4.26636,-1.90794 6.46485,-2.693359 2.64838,-0.946156 5.45203,-1.426032 8.08105,-2.424805 2.59123,-0.984416 5.16862,-2.069987 7.54199,-3.501953 2.02974,-1.224625 3.85018,-2.775259 5.65723,-4.30957 1.69466,-1.438891 3.46146,-2.841878 4.84863,-4.579102 1.43175,-1.793008 2.04331,-4.155565 3.50196,-5.926758 1.3747,-1.669253 3.21951,-2.88753 4.84863,-4.30957 1.87098,-1.633159 3.79129,-3.209704 5.65723,-4.848633 1.81521,-1.5944 3.85031,-2.984048 5.38672,-4.848633 1.33176,-1.616261 2.5636,-3.403419 3.23339,-5.387695 0.78012,-2.311165 1.25854,-4.876201 0.80762,-7.273437 -0.3935,-2.09195 -1.52241,-4.090029 -2.96289,-5.657227 -1.58451,-1.723893 -3.62369,-3.348193 -5.92676,-3.770508 -0.4904,-0.08993 -0.98461,-0.126188 -1.48144,-0.118164 z m -0.875,7.323242 a 3.4345186,3.4345186 0 0 1 3.43457,3.434571 3.4345186,3.4345186 0 0 1 -3.43457,3.43457 3.4345186,3.4345186 0 0 1 -3.43457,-3.43457 3.4345186,3.4345186 0 0 1 3.43457,-3.434571 z m -57.17481,42.22461 a 5.1854496,5.1854496 0 0 1 5.18555,5.185547 5.1854496,5.1854496 0 0 1 -5.18555,5.185547 5.1854496,5.1854496 0 0 1 -5.18554,-5.185547 5.1854496,5.1854496 0 0 1 5.18554,-5.185547 z m 0.20215,3.030273 a 2.2223356,2.2223356 0 0 0 -2.22266,2.222656 2.2223356,2.2223356 0 0 0 2.22266,2.222657 2.2223356,2.2223356 0 0 0 2.22168,-2.222657 2.2223356,2.2223356 0 0 0 -2.22168,-2.222656 z"
       id="path4" />
    <path
       d="m 302.0957,89.333008 c 0,0 -8.40558,2.854 -12.57226,4.380859 -4.98208,1.825656 -10.13531,3.293069 -14.85645,5.714844 -6.48686,3.327529 -12.63135,6.922159 -18.28613,11.523809 -3.41262,2.77706 -6.85809,6.1715 -9.33301,9.8092 -2.06344,3.0329 -3.75779,6.48073 -4.38086,10.0957 -0.47561,2.75945 -0.72108,5.8968 0.57129,8.38086 0.97939,1.88247 2.91764,3.39694 4.95215,4 1.77477,0.52607 3.81458,0.1403 5.52344,-0.57129 1.51506,-0.63089 3.07282,-1.65559 3.80957,-3.11914 0.57937,-1.1509 0.6681,-2.22967 0.95312,-3.35742 0.43029,-1.70257 0.61234,-3.46844 1.14258,-5.14258 0.49845,-1.57374 0.99515,-3.19341 1.9043,-4.57129 1.80514,-2.73581 4.26996,-5.0358 6.85742,-7.04785 3.41305,-2.65405 7.30102,-4.69026 11.23828,-6.47656 5.01,-2.27299 10.33148,-3.81409 15.61914,-5.33301 C 300.3154,106.1607 310.66699,104 310.66699,104 Z m -1.85742,4.762695 c 1.07809,1.27e-4 1.95202,0.87406 1.95215,1.952149 -1.3e-4,1.078089 -0.87406,1.952021 -1.95215,1.952148 -1.07809,-1.27e-4 -1.95202,-0.874059 -1.95215,-1.952148 1.3e-4,-1.078089 0.87406,-1.952022 1.95215,-1.952149 z m -8.52441,1.856445 c 1.07847,-4.08e-4 1.95299,0.873681 1.95312,1.952149 4.1e-4,1.078849 -0.87427,1.953533 -1.95312,1.953125 -1.07847,-1.27e-4 -1.95256,-0.874654 -1.95215,-1.953125 1.3e-4,-1.078089 0.87406,-1.952022 1.95215,-1.952149 z M 283.42871,99 c 1.07809,1.27e-4 1.95202,0.87406 1.95215,1.95215 -1.3e-4,1.07809 -0.87406,1.95202 -1.95215,1.95215 -1.07809,-1.3e-4 -1.95202,-0.87406 -1.95215,-1.95215 1.3e-4,-1.07809 0.87406,-1.952023 1.95215,-1.95215 z m -7.52441,3.9043 c 1.07885,-4.1e-4 1.95353,0.87427 1.95312,1.95312 -1.3e-4,1.07847 -0.87465,1.95256 -1.95312,1.95215 -1.07809,-1.3e-4 -1.95202,-0.87406 -1.95215,-1.95215 -4.1e-4,-1.07847 0.87368,-1.95299 1.95215,-1.95312 z m -7.54688,4.52441 c 0.93359,3e-5 1.6904,0.75684 1.69043,1.69043 -3e-5,0.93359 -0.75684,1.6904 -1.69043,1.69043 -0.93359,-3e-5 -1.6904,-0.75684 -1.69043,-1.69043 3e-5,-0.93359 0.75684,-1.6904 1.69043,-1.69043 z m -7.64355,5.4043 c 0.82843,0 1.5,0.67157 1.5,1.5 0,0.82843 -0.67157,1.5 -1.5,1.5 -0.82843,0 -1.5,-0.67157 -1.5,-1.5 0,-0.82843 0.67157,-1.5 1.5,-1.5 z m -6,6.19043 c 0.82843,0 1.5,0.67157 1.5,1.5 0,0.82843 -0.67157,1.5 -1.5,1.5 -0.82843,0 -1.5,-0.67157 -1.5,-1.5 0,-0.82843 0.67157,-1.5 1.5,-1.5 z m -4.36426,10.83008 c 2.33483,-7e-5 4.22761,1.8927 4.22754,4.22753 7e-5,2.33484 -1.8927,4.22761 -4.22754,4.22754 -2.33484,7e-5 -4.22761,-1.8927 -4.22754,-4.22754 -7e-5,-2.33483 1.89271,-4.2276 4.22754,-4.22753 z"
       id="path5" />
  </g>
</svg>
