<?xml version="1.0" encoding="UTF-8" standalone="no"?>
<svg
   height="380"
   viewBox="0 0 190 190"
   width="380"
   version="1.1"
   id="svg5"
   xmlns="http://www.w3.org/2000/svg"
   xmlns:svg="http://www.w3.org/2000/svg">
  <defs
     id="defs5" />
  <path
     d="M 0,0 H 190 V 190 H 0 Z"
     fill="#237f52"
     id="path2" />
  <g
     transform="matrix(2.4144354,0,0,2.4144354,-57.691733,-129.988)"
     id="g5">
    <path
       d="m 75.314453,100.57422 c -2.397199,0.0187 -4.524732,0.90513 -6.509765,1.70508 -1.985034,0.79995 -3.826856,1.51339 -5.611329,1.52734 -1.741037,0.0136 -3.544094,-0.62848 -5.484375,-1.36133 -1.94028,-0.73285 -4.013442,-1.55562 -6.333984,-1.60156 -2.478303,-0.0491 -4.742605,0.72379 -6.873047,1.42383 -2.130442,0.70003 -4.125728,1.32635 -6.044922,1.26953 -1.643229,-0.0486 -4.427224,-0.76933 -6.695312,-1.49805 -2.225865,-0.71514 -3.951551,-1.399 -4.016602,-1.4248 v 2.62012 c 0.758658,0.28521 1.826592,0.67343 3.268555,1.13671 2.353856,0.75627 5.155715,1.5497 7.36914,1.61524 2.48139,0.0735 4.750809,-0.68944 6.884766,-1.39063 2.133957,-0.70119 4.135249,-1.3408 6.058594,-1.30273 1.75106,0.0347 3.567616,0.7088 5.517578,1.44531 1.949962,0.73651 4.035951,1.53579 6.367188,1.51758 2.397197,-0.0187 4.524735,-0.90513 6.509765,-1.70508 1.98503,-0.79995 3.828814,-1.5134 5.613281,-1.52734 1.826043,-0.0143 3.716206,0.67582 5.748047,1.45312 2.031842,0.7773 4.20284,1.64132 6.63086,1.64453 2.353385,0.003 5.363688,-0.7765 7.890625,-1.53125 1.253183,-0.37429 2.374069,-0.74796 3.189453,-1.03027 v -2.60156 c -0.547809,0.20095 -1.910657,0.6928 -3.890625,1.28418 -2.437626,0.72806 -5.422971,1.43181 -7.185547,1.42969 -1.829485,-0.002 -3.724744,-0.70391 -5.759766,-1.48243 -2.035022,-0.77851 -4.21124,-1.63425 -6.642578,-1.61523 z m 0,4.98047 c -2.397199,0.0187 -4.524732,0.90513 -6.509765,1.70508 -1.985034,0.79992 -3.826856,1.51339 -5.611329,1.52734 -1.741037,0.0136 -3.544094,-0.62848 -5.484375,-1.36133 -1.94028,-0.73285 -4.013442,-1.55562 -6.333984,-1.60156 -2.478303,-0.0491 -4.742605,0.72379 -6.873047,1.42383 -2.130442,0.70003 -4.125728,1.32635 -6.044922,1.26953 -1.643229,-0.0487 -4.427224,-0.76933 -6.695312,-1.49805 -2.225865,-0.71514 -3.951551,-1.39899 -4.016602,-1.4248 v 2.62011 c 0.758658,0.28522 1.826592,0.67343 3.268555,1.13672 2.353856,0.75627 5.155715,1.5497 7.36914,1.61524 2.48139,0.0735 4.750809,-0.68944 6.884766,-1.39063 2.133957,-0.70119 4.135249,-1.3408 6.058594,-1.30273 1.75106,0.0347 3.567616,0.7088 5.517578,1.44531 1.949962,0.73651 4.035951,1.53579 6.367188,1.51758 2.397197,-0.0187 4.524735,-0.90513 6.509765,-1.70508 1.98503,-0.79995 3.828814,-1.5134 5.613281,-1.52734 1.826043,-0.0143 3.716206,0.67582 5.748047,1.45312 2.031842,0.7773 4.20284,1.64132 6.63086,1.64453 2.353385,0.003 5.363688,-0.77457 7.890625,-1.52929 1.253185,-0.37431 2.374069,-0.74846 3.189453,-1.03125 v -2.60254 c -0.547716,0.2014 -1.910545,0.69472 -3.890625,1.28613 -2.437626,0.72807 -5.422971,1.42987 -7.185547,1.42773 -1.829485,-0.002 -3.724744,-0.7039 -5.759766,-1.48242 -2.035022,-0.77851 -4.21124,-1.63425 -6.642578,-1.61523 z"
       fill="#ecece7"
       id="path3" />
    <path
       d="m 61.923828,75.133789 c -0.269998,0.0031 -0.548796,0.01341 -0.832031,0.02441 -4.098359,0.01032 -8.395837,3.05e-4 -12.591797,1.255859 -3.749288,1.1219 -6.580105,3.572812 -9.425781,5.109376 -1.704051,0.920126 -2.96234,1.955137 -4.113281,2.248046 -0.176541,0.04493 -0.708413,-0.0064 -1.484376,-0.132812 -0.775961,-0.126408 -1.904939,-0.319734 -3.0625,0.310547 -1.515677,0.825272 -2.068732,2.291294 -2.390624,3.427734 -0.513144,1.811656 -0.41438,3.745188 0.154296,5.480469 0.599239,1.828535 1.754542,3.431581 3.1875,4.632812 1.935729,1.622701 4.378076,2.91183 7.054688,3.19336 2.245473,0.23619 4.28112,-0.36743 6.132812,-0.988282 1.851694,-0.620841 3.553838,-1.26372 5.119141,-1.435546 0.900963,-0.0989 1.772081,-0.122265 2.558594,-0.0078 l 0.05469,0.0078 0.05469,0.0039 c 1.890937,0.142521 3.447156,0.810537 5.222656,1.519531 1.104827,0.441177 2.306281,0.894417 3.65918,1.140627 0.006,10e-4 0.01162,0.003 0.01758,0.004 0.349109,0.0745 0.692288,0.13228 1.018554,0.16211 l 0.02734,0.004 h 0.02734 c 0.264512,0.0149 0.522263,0.0184 0.776367,0.0147 0.254104,0.004 0.511856,2.8e-4 0.776367,-0.0147 h 0.02734 l 0.02734,-0.004 c 0.370118,-0.0338 0.762304,-0.10201 1.160156,-0.18945 1.302158,-0.25084 2.464407,-0.68961 3.535156,-1.117187 1.775501,-0.708994 3.331719,-1.37701 5.222657,-1.519531 l 0.05469,-0.0039 0.05469,-0.0078 c 0.786512,-0.114439 1.65763,-0.09108 2.558593,0.0078 1.565305,0.171826 3.267449,0.814705 5.119141,1.435546 1.851692,0.620852 3.88734,1.224472 6.132812,0.988282 2.676613,-0.28153 5.120912,-1.570659 7.056641,-3.19336 1.432959,-1.201231 2.58631,-2.804277 3.185547,-4.632812 0.568676,-1.735281 0.66744,-3.668813 0.154297,-5.480469 -0.321892,-1.13644 -0.874947,-2.602462 -2.390625,-3.427734 -1.15756,-0.630281 -2.286538,-0.436955 -3.0625,-0.310547 -0.775962,0.126408 -1.307834,0.177742 -1.484375,0.132812 -1.150942,-0.292909 -2.409232,-1.32792 -4.113281,-2.248046 -2.845677,-1.536564 -5.676492,-3.987476 -9.425782,-5.109376 -4.195959,-1.255554 -8.493438,-1.245539 -12.591796,-1.255859 -0.471666,-0.01832 -0.944721,-0.03142 -1.34375,-0.02344 -0.215637,0.0043 -0.436161,0.0041 -0.653321,0.0068 -0.21716,-0.0028 -0.437684,-0.0025 -0.65332,-0.0068 -0.159412,-0.0032 -0.332095,-0.003 -0.511719,-9.77e-4 z m 1.165039,3.209961 c 4.793978,0.06698 9.495536,-0.112674 13.670899,1.136719 2.891218,0.865138 5.570805,3.100693 8.824218,4.857422 1.273891,0.687854 2.714905,1.99142 4.84375,2.533203 1.172272,0.298338 2.118219,0.03475 2.78711,-0.07422 0.668889,-0.108965 0.95278,-0.07239 1.017578,-0.03711 0.206746,0.112571 0.629214,0.737757 0.841797,1.488281 0.31309,1.105368 0.260241,2.465589 -0.115235,3.611328 -0.385823,1.177319 -1.210048,2.348842 -2.201172,3.179687 -1.543845,1.294189 -3.49701,2.269467 -5.335937,2.462891 -1.459341,0.153498 -3.028132,-0.252706 -4.779297,-0.839844 -1.751164,-0.587136 -3.649405,-1.349323 -5.787109,-1.583984 -1.048479,-0.115094 -2.172317,-0.154235 -3.324219,0.0078 -2.467469,0.199889 -4.410025,1.050317 -6.103516,1.726562 -0.601446,0.24017 -1.168408,0.456044 -1.729492,0.632812 -0.487622,0.134188 -0.963364,0.255694 -1.371094,0.339844 -0.401969,0.06964 -0.811292,0.112542 -1.238281,0.120117 -0.427703,-0.0076 -0.837619,-0.05125 -1.240234,-0.121093 -0.403991,-0.08345 -0.8747,-0.202293 -1.357422,-0.334961 -0.56489,-0.17741 -1.135587,-0.394866 -1.741211,-0.636704 -1.693489,-0.676245 -3.636046,-1.526673 -6.103516,-1.726562 -1.1519,-0.16206 -2.27574,-0.122919 -3.324218,-0.0078 -2.137704,0.234661 -4.035945,0.996848 -5.78711,1.583984 -1.751164,0.587138 -3.319955,0.993342 -4.779297,0.839844 -1.838926,-0.193424 -3.792092,-1.168702 -5.335937,-2.462891 -0.991123,-0.830845 -1.815347,-2.002368 -2.201172,-3.179687 -0.375476,-1.145739 -0.428325,-2.50596 -0.115234,-3.611328 0.212582,-0.750524 0.635051,-1.37571 0.841796,-1.488281 0.0648,-0.03528 0.348688,-0.07186 1.017579,0.03711 0.668889,0.108965 1.614837,0.372556 2.787109,0.07422 2.128846,-0.541783 3.56986,-1.845349 4.84375,-2.533203 3.253414,-1.756729 5.933001,-3.992284 8.824219,-4.857422 4.175362,-1.249393 8.87692,-1.069743 13.670898,-1.136719 z"
       fill="#ecece7"
       id="path4" />
    <path
       d="m 33.773438,88.952148 v 1.143555 h 0.0029 c -0.0018,0.04834 -0.0068,0.09581 -0.0068,0.144531 0,2.207221 1.802545,4.009766 4.009766,4.009766 1.636083,0 3.048814,-0.990875 3.670898,-2.402344 0.622086,1.411469 2.034814,2.402344 3.670899,2.402344 1.635665,0 3.047172,-0.990474 3.668945,-2.401367 0.622269,1.411033 2.035129,2.401367 3.670899,2.401367 1.635311,0 3.047384,-0.989985 3.669921,-2.400391 0.62254,1.410406 2.034612,2.400391 3.669922,2.400391 1.63577,0 3.048628,-0.990334 3.670899,-2.401367 0.621773,1.410893 2.033279,2.401367 3.668945,2.401367 1.636083,0 3.048814,-0.990875 3.670898,-2.402344 0.622087,1.411469 2.034816,2.402344 3.670899,2.402344 1.635311,0 3.047383,-0.989985 3.669922,-2.400391 0.622537,1.410406 2.034609,2.400391 3.669922,2.400391 1.63531,0 3.047382,-0.989985 3.669922,-2.400391 0.622537,1.410406 2.034611,2.400391 3.669921,2.400391 2.207221,0 4.009766,-1.802545 4.009766,-4.009766 0,-0.04872 -0.005,-0.09619 -0.0068,-0.144531 h 0.002 v -1.143555 z m 1.20996,1.143555 h 5.591797 c 0.003,0.04804 0.0068,0.09568 0.0068,0.144531 0,1.554913 -1.247824,2.802735 -2.802734,2.802735 -1.554913,0 -2.802735,-1.247822 -2.802735,-2.802735 0,-0.04885 0.0038,-0.09649 0.0068,-0.144531 z m 7.341797,0 h 5.589844 c 0.003,0.04804 0.0068,0.09568 0.0068,0.144531 0,1.554913 -1.245871,2.802735 -2.800781,2.802735 -1.554913,0 -2.802735,-1.247822 -2.802735,-2.802735 0,-0.04885 0.0038,-0.09649 0.0068,-0.144531 z m 7.339844,0 h 5.591797 c 0.003,0.04804 0.0068,0.09568 0.0068,0.144531 0,1.554913 -1.247823,2.802735 -2.802734,2.802735 -1.554913,0 -2.802735,-1.247822 -2.802735,-2.802735 0,-0.04885 0.0038,-0.09649 0.0068,-0.144531 z m 7.339844,0 h 5.591797 c 0.003,0.04804 0.0068,0.09568 0.0068,0.144531 0,1.554913 -1.247822,2.802735 -2.802735,2.802735 -1.55491,0 -2.802734,-1.247822 -2.802734,-2.802735 0,-0.04885 0.0038,-0.09649 0.0068,-0.144531 z m 7.341797,0 h 5.589843 c 0.003,0.04804 0.0068,0.09568 0.0068,0.144531 0,1.554913 -1.247824,2.802735 -2.802734,2.802735 -1.55491,0 -2.800781,-1.247822 -2.800781,-2.802735 0,-0.04885 0.0038,-0.09649 0.0068,-0.144531 z m 7.339843,0 h 5.591797 c 0.003,0.04804 0.0068,0.09568 0.0068,0.144531 0,1.554913 -1.247824,2.802735 -2.802734,2.802735 -1.554913,0 -2.802734,-1.247822 -2.802734,-2.802735 0,-0.04885 0.0038,-0.09649 0.0068,-0.144531 z m 7.339844,0 h 5.591797 c 0.003,0.04804 0.0068,0.09568 0.0068,0.144531 0,1.554913 -1.247824,2.802735 -2.802734,2.802735 -1.554913,0 -2.802735,-1.247822 -2.802735,-2.802735 0,-0.04885 0.0038,-0.09649 0.0068,-0.144531 z m 7.339844,0 h 5.591797 c 0.003,0.04804 0.0068,0.09568 0.0068,0.144531 0,1.554913 -1.247822,2.802735 -2.802735,2.802735 -1.55491,0 -2.802734,-1.247822 -2.802734,-2.802735 0,-0.04885 0.0038,-0.09649 0.0068,-0.144531 z"
       fill="#ecece7"
       id="path5" />
  </g>
</svg>
