<?xml version="1.0" encoding="UTF-8" standalone="no"?>
<svg
   height="380"
   viewBox="0 0 190 190"
   width="380"
   version="1.1"
   id="svg6"
   xmlns="http://www.w3.org/2000/svg"
   xmlns:svg="http://www.w3.org/2000/svg">
  <defs
     id="defs6" />
  <path
     d="M 0,0 H 190 V 190 H 0 Z"
     fill="#237f52"
     id="path2" />
  <g
     fill="#ecece7"
     transform="translate(-230.60349,30.767378)"
     id="g6">
    <path
       d="m 355.81961,1.7958089 h 47.168 V 17.518809 h -47.168 z m 15.723,-15.7229999 h 15.723 v 47.168 h -15.723 z"
       id="path3" />
    <path
       d="m 251.34304,134.65375 h 22.42617 v 6.33214 h -22.42617 z"
       id="path4" />
    <path
       d="m 304.67188,19.838867 a 21.526909,21.526909 0 0 0 -21.52735,21.526367 21.526909,21.526909 0 0 0 21.52735,21.527344 21.526909,21.526909 0 0 0 21.52734,-21.527344 21.526909,21.526909 0 0 0 -21.52734,-21.526367 z m -25.03907,50.618164 c 0,0 -1.32648,0.03599 -2.76074,0.314453 -4.38993,0.852305 -6.77879,2.412126 -10.58789,4.754883 -3.12748,1.923531 -6.08481,4.320964 -8.2793,7.264649 -2.74131,3.677215 -3.93441,5.247453 -5.74414,9.461914 -0.24656,0.574193 -0.71811,4.033082 -0.95019,4.613281 -0.10584,0.264611 -0.0635,0.962891 -0.0635,0.962891 v 9.124018 h 22.47168 l -0.0195,-3.88574 c 0,0 0.25877,-1.53512 1.78808,-1.52148 1.76604,0.0157 1.7793,1.52148 1.7793,1.52148 v 38.35352 h 54.40625 v -38.01563 l 18.77051,28.33496 a 11.389177,11.389177 0 0 0 10.12207,6.20118 11.389177,11.389177 0 0 0 8.76367,-4.1377 c 0.0732,-0.0442 0.13352,-0.0936 0.16992,-0.1543 0.43708,-0.72845 24.51762,-34.629126 30.61328,-44.403316 a 11.389177,11.389177 0 0 0 1.32325,-2.296875 c 0.0432,-0.09943 0.0864,-0.199484 0.0977,-0.25586 a 11.389177,11.389177 0 0 0 0.83496,-4.240234 11.389177,11.389177 0 0 0 -11.38964,-11.388672 11.389177,11.389177 0 0 0 -10.16407,6.285156 L 361.5791,107.79785 344.17578,81.946289 c 0,0 -2.45624,-4.398558 -7.74121,-7.524414 -5.44769,-3.222112 -11.52051,-3.964844 -11.52051,-3.964844 z"
       id="path5" />
    <path
       d="m 248.19827,111.60992 h 25.5675 v 18.27957 h -25.5675 z"
       id="path6" />
  </g>
</svg>
