<svg xmlns="http://www.w3.org/2000/svg" xmlns:xlink="http://www.w3.org/1999/xlink" width="559.37" height="155.92" class="typst-doc" viewBox="0 0 419.53 116.94">
  <path fill="#fff" d="M0 0v116.94h419.53V0Z" class="typst-shape"/>
  <g class="typst-group">
    <g class="typst-text" transform="matrix(1 0 0 -1 28.35 38.28)">
      <use xlink:href="#a"/>
      <use xlink:href="#b" x="10.04"/>
      <use xlink:href="#c" x="15"/>
      <use xlink:href="#d" x="20.51"/>
      <use xlink:href="#e" x="25.52"/>
      <use xlink:href="#f" x="33.16"/>
      <use xlink:href="#g" x="40.18"/>
      <use xlink:href="#h" x="47.97"/>
      <use xlink:href="#e" x="54.55"/>
      <use xlink:href="#i" x="65.93"/>
      <use xlink:href="#j" x="74.41"/>
      <use xlink:href="#c" x="83.36"/>
      <use xlink:href="#b" x="88.87"/>
      <use xlink:href="#i" x="93.83"/>
      <use xlink:href="#k" x="102.32"/>
      <use xlink:href="#h" x="111.8"/>
    </g>
  </g>
  <g class="typst-text" transform="matrix(1 0 0 -1 28.35 53.77)">
    <use xlink:href="#l"/>
    <use xlink:href="#m" x="3.27"/>
    <use xlink:href="#n" x="9.23"/>
    <use xlink:href="#o" x="12.71"/>
    <use xlink:href="#p" x="18.41"/>
    <use xlink:href="#n" x="24.26"/>
    <use xlink:href="#q" x="27.73"/>
    <use xlink:href="#r" x="33.08"/>
    <use xlink:href="#s" x="36.49"/>
    <use xlink:href="#s" x="42.11"/>
    <use xlink:href="#t" x="50.4"/>
    <use xlink:href="#u" x="55.82"/>
    <use xlink:href="#v" x="60.85"/>
  </g>
  <g class="typst-group">
    <use xlink:href="#w" class="typst-text" transform="matrix(1 0 0 -1 28.35 74.2)"/>
    <g class="typst-text" transform="matrix(1 0 0 -1 37.7 74.2)">
      <use xlink:href="#x"/>
      <use xlink:href="#y" x="5.3"/>
      <use xlink:href="#z" x="10.6"/>
      <use xlink:href="#A" x="15.89"/>
      <use xlink:href="#A" x="21.19"/>
      <use xlink:href="#B" x="26.49"/>
      <use xlink:href="#C" x="31.79"/>
      <use xlink:href="#z" x="37.09"/>
      <use xlink:href="#D" x="42.38"/>
      <use xlink:href="#E" x="47.68"/>
      <use xlink:href="#F" x="52.98"/>
      <use xlink:href="#G" x="58.28"/>
      <use xlink:href="#H" x="63.58"/>
      <use xlink:href="#H" x="68.87"/>
      <use xlink:href="#F" x="74.17"/>
      <use xlink:href="#I" x="79.47"/>
    </g>
    <use xlink:href="#J" x="2.75" class="typst-text" transform="matrix(1 0 0 -1 122.48 74.2)"/>
    <g class="typst-text" transform="matrix(1 0 0 -1 140.4 74.2)">
      <use xlink:href="#r"/>
      <use xlink:href="#K" x="3.67"/>
      <use xlink:href="#K" x="11.4"/>
      <use xlink:href="#L" x="21.87"/>
      <use xlink:href="#u" x="28.34"/>
      <use xlink:href="#v" x="33.36"/>
    </g>
    <use xlink:href="#w" class="typst-text" transform="matrix(1 0 0 -1 28.35 88.6)"/>
    <g class="typst-text" transform="matrix(1 0 0 -1 37.7 88.6)">
      <use xlink:href="#x"/>
      <use xlink:href="#y" x="5.3"/>
      <use xlink:href="#z" x="10.6"/>
      <use xlink:href="#A" x="15.89"/>
      <use xlink:href="#A" x="21.19"/>
      <use xlink:href="#B" x="26.49"/>
      <use xlink:href="#C" x="31.79"/>
      <use xlink:href="#z" x="37.09"/>
      <use xlink:href="#D" x="42.38"/>
      <use xlink:href="#E" x="47.68"/>
      <use xlink:href="#F" x="52.98"/>
      <use xlink:href="#M" x="58.28"/>
      <use xlink:href="#N" x="63.58"/>
      <use xlink:href="#O" x="68.87"/>
      <use xlink:href="#F" x="74.17"/>
      <use xlink:href="#I" x="79.47"/>
    </g>
    <use xlink:href="#J" x="2.75" class="typst-text" transform="matrix(1 0 0 -1 122.48 88.6)"/>
    <g class="typst-text" transform="matrix(1 0 0 -1 140.4 88.6)">
      <use xlink:href="#P"/>
      <use xlink:href="#s" x="5.33"/>
      <use xlink:href="#s" x="10.96"/>
      <use xlink:href="#L" x="19.25"/>
      <use xlink:href="#Q" x="25.72"/>
      <use xlink:href="#R" x="33.36"/>
    </g>
  </g>
  <defs>
    <symbol id="a" overflow="visible">
      <path d="M6.24 1.9v5.85c0 .98.15 1.55.7 1.55h.34c1.16 0 1.8-.38 2.07-1.57.17 0 .46.02.6.08a18 18 0 0 0-.2 2.2q-.01.04-.05.05c-.52-.05-2.23-.13-3.45-.13H4.08c-1.18 0-3 .08-3.59.13Q.44 10.05.43 10C.37 9.3.22 8.5.05 7.75c.15-.06.41-.08.6-.08.3 1.24.94 1.62 1.95 1.62h.76c.57 0 .72-.57.72-1.5V1.9C4.08.61 3.82.53 2.58.5c-.09-.1-.09-.44 0-.53a118 118 0 0 0 5.15 0c.1.1.1.43 0 .52-1.23.05-1.5.13-1.5 1.4"/>
    </symbol>
    <symbol id="b" overflow="visible">
      <path d="M3.57 1.88v3.06c0 .77.06 1.64.06 1.64q-.01.26-.35.26c-.43-.17-1.68-.3-2.74-.43-.03-.1 0-.4.03-.5.85-.07 1-.2 1-1.07V1.88C1.57.6 1.4.57.47.49.36.4.36.06.46-.03c.64.01 1.29.03 2.1.03s1.45-.02 2.11-.03c.1.1.1.43 0 .52-.94.06-1.1.11-1.1 1.39M1.5 9.18c0-.51.37-1.02.99-1.02.7 0 1.1.56 1.1.96a1 1 0 0 1-1 1.01c-.73 0-1.09-.49-1.09-.95"/>
    </symbol>
    <symbol id="c" overflow="visible">
      <path d="M.97 6.68a1 1 0 0 1-.65-.23v-.44q0-.11.08-.1h1c-.03-1.55-.04-3.52-.04-4.3 0-.53.13-1.06.46-1.33.35-.3.9-.43 1.28-.43.84 0 1.78.43 2.09.86 0 .18-.1.28-.28.43-.2-.15-.58-.22-.88-.22-.33 0-.67.27-.67 1.04L3.34 5.9H4.9c.15 0 .37.07.37.2v.48q0 .1-.13.1h-1.8l.02.52c.03 1.03.07 1.74.07 1.74q0 .14-.12.14c-.1 0-.68-.17-.92-.28-.26-.1-.71-.2-.82-.34s-.17-.55-.17-1.79Z"/>
    </symbol>
    <symbol id="d" overflow="visible">
      <path d="M1.54 1.96C1.54.68 1.29.54.35.49.26.4.26.06.35-.03a87 87 0 0 0 4.38 0c.09.1.09.43 0 .52-.94.05-1.19.19-1.19 1.47v7.02c0 1 .05 1.57.05 1.57 0 .14-.11.2-.25.2-.57-.19-1.8-.36-2.9-.4a.7.7 0 0 1 .05-.5c.97-.07 1.05-.09 1.05-1.15Z"/>
    </symbol>
    <symbol id="e" overflow="visible">
      <path d="M6.64 1.99a3 3 0 0 0-2.05-.82c-1.2 0-1.94.7-1.94 2.2l.01.25h3.7c.37 0 .45.26.45.48 0 1.3-.51 2.74-2.78 2.74a3.66 3.66 0 0 1-3.46-3.8c0-.88.32-1.82.99-2.42.58-.53 1.34-.77 2.43-.77 1.06 0 2.1.54 2.88 1.66 0 .2-.08.48-.23.48M2.73 4.24c.01.53.09 1.12.3 1.43.25.37.67.52.84.52.41 0 .98-.4.98-1.63 0-.1 0-.3-.03-.32Z"/>
    </symbol>
    <symbol id="f" overflow="visible">
      <path d="M6.5 1.34c0 .18-.03.48-.2.48Q5.38.96 4.7.95c-1.15 0-2.06.84-2.06 2.68Q2.63 6.2 3.85 6.2c.57 0 .8-.6.85-1.1.04-.4.46-.72.95-.72.5 0 .85.39.85.87 0 .69-.83 1.6-2.51 1.6C2.17 6.84.57 5.37.57 3.1c0-1 .35-1.88.95-2.45s1.31-.8 2.4-.8c.93 0 2 .64 2.58 1.49"/>
    </symbol>
    <symbol id="g" overflow="visible">
      <path d="M4.54.75c.11-.63.53-.9 1.2-.9.85 0 1.45.32 2.02.86q-.03.25-.28.43a1 1 0 0 0-.64-.22c-.34 0-.43.28-.43 1.04l.03 2.21c0 2.22-1.37 2.67-2.64 2.67-1.12 0-2.85-.65-2.85-1.67 0-.43.19-.77.79-.77.55 0 .95.34.95.71l-.03.26q-.06.23-.03.47c.02.17.14.35.65.35.65 0 1.19-.28 1.19-2.23l-1.04-.33C1.82 3.13.68 2.68.68 1.46.68.4 1.26-.15 2.6-.15c.45 0 1.34.49 1.85.89Zm-.07 2.6V1.33c-.39-.3-.77-.55-1.05-.55-.66 0-.9.45-.9.92 0 .57.05 1.05 1.15 1.4Z"/>
    </symbol>
    <symbol id="h" overflow="visible">
      <path d="M.74 2.25C.8 1.49.88.77 1 .18a8 8 0 0 1 2.14-.33c1.19 0 2.67.64 2.67 1.98 0 .53-.13.94-.48 1.33-.43.49-1.08.87-1.79 1.18-.61.26-.83.76-.83 1.2 0 .36.3.65.74.65.54 0 1.06-.5 1.45-1.43.27-.05.44-.03.6.08 0 .55-.06 1.14-.2 1.63-.5.21-.88.37-1.73.37-.81 0-1.58-.31-2.08-.8a1.7 1.7 0 0 1-.52-1.2c0-.47.19-.84.48-1.16A7 7 0 0 1 3.23 2.4c.62-.27.79-.83.79-1.2 0-.5-.5-.75-.9-.75-.7 0-1.44.7-1.76 1.83a1 1 0 0 1-.62-.03"/>
    </symbol>
    <symbol id="i" overflow="visible">
      <path d="M.57 3.19c0-2.02 1.6-3.34 3.67-3.34 1.09 0 2 .3 2.63.87.78.7 1.05 1.74 1.05 2.6 0 2.02-1.37 3.52-3.67 3.52A3.6 3.6 0 0 1 1.42 5.7a3.8 3.8 0 0 1-.85-2.51m3.43 3c1.05 0 1.76-1.25 1.76-3.36C5.76 1 5.04.5 4.48.5 3.22.5 2.73 2.4 2.73 3.53c0 1.41.24 2.66 1.27 2.66"/>
    </symbol>
    <symbol id="j" overflow="visible">
      <path d="M1.46 4.76V-1.7c0-1.28-.17-1.31-1.1-1.39-.1-.1-.1-.43 0-.52.64.01 1.29.03 2.1.03s1.45-.02 2.11-.03c.1.09.1.43 0 .52-.94.06-1.1.1-1.1 1.39V.1q.49-.26 1.03-.26c2.34 0 3.86 1.54 3.86 3.8 0 .86-.32 1.82-.92 2.42-.54.54-1.31.77-2.11.77-.45 0-1.28-.54-1.82-1.03h-.1c-.02.43-.07.77-.07.77q-.03.26-.35.26a20 20 0 0 0-2.56-.51c-.03-.1 0-.4.03-.5.85-.07 1-.2 1-1.07m2-3.76V5.2c.45.4 1.02.6 1.38.6.63 0 1.37-.77 1.37-2.58C6.2 1.94 5.74.5 4.4.5c-.17 0-.56.1-.95.51"/>
    </symbol>
    <symbol id="k" overflow="visible">
      <path d="M3.51 1.88v3.1c.62.41 1.23.72 1.51.72.62 0 1.08-.28 1.08-1.16V1.97C6.1.67 5.85.54 5.22.5c-.1-.09-.1-.43 0-.52.65.01 1.14.03 1.88.03.85 0 1.52-.02 2.19-.03.09.1.09.43 0 .52C8.35.54 8.1.68 8.1 1.97v2.4c0 1.7-.72 2.47-2.05 2.47-.61 0-1.7-.68-2.55-1.27l-.11 1q-.03.29-.36.27a20 20 0 0 0-2.55-.51c-.03-.1 0-.4.03-.5.85-.07 1-.2 1-1.07V1.88C1.5.6 1.34.57.4.49.3.4.3.06.4-.03c.65.01 1.3.03 2.11.03.7 0 1.14-.02 1.8-.03.1.1.1.43 0 .52-.64.06-.8.11-.8 1.39"/>
    </symbol>
    <symbol id="l" overflow="visible">
      <path d="M2.1 1.34v4.41c0 .92.19.97.96 1 .06.07.06.3 0 .37a67 67 0 0 0-2.85 0c-.07-.07-.07-.3 0-.37.77-.03.96-.08.96-1v-4.4c0-.92-.2-.98-.96-1C.14.27.14.04.2-.03a72 72 0 0 0 2.85 0c.06.06.06.3 0 .36-.77.03-.96.09-.96 1"/>
    </symbol>
    <symbol id="m" overflow="visible">
      <path d="M2.02 3.94q-.11-.14-.13 0c0 .3-.03.72-.09.83q-.01.1-.13.1a5 5 0 0 0-1.35-.33 1 1 0 0 1 .02-.3c.6-.06.72-.12.72-.75V1.34c0-.9-.11-.94-.77-1C.22.28.22.04.29-.02a37 37 0 0 0 2.3 0c.07.06.07.3 0 .36-.55.06-.66.1-.66 1v1.8c0 .24.1.37.18.47.42.4.92.65 1.34.65.22 0 .45-.15.59-.4q.14-.34.13-.85V1.34c0-.9-.11-.94-.68-1-.06-.06-.06-.3 0-.36a32 32 0 0 0 2.29 0c.05.06.05.3 0 .36-.62.06-.74.1-.74 1v1.64c0 .6-.05 1.13-.3 1.48-.19.24-.53.37-.91.37-.54 0-1.16-.14-1.8-.9"/>
    </symbol>
    <symbol id="n" overflow="visible">
      <path d="M.47 4.72c-.15 0-.2-.13-.2-.22v-.14q0-.08.06-.07h.65V.98c0-.78.34-1.09.85-1.09a2 2 0 0 1 1.48.73q-.03.16-.2.18C2.83.58 2.5.5 2.21.5s-.36.32-.36 1v2.8h1.14c.11 0 .27.04.27.14v.22q0 .07-.1.07h-1.3v.43c0 .71.04 1.15.04 1.15q0 .1-.09.1l-.24-.1a1 1 0 0 0-.37-.15C1.07 6.12.96 6.08.96 6c0-.13.03-.05.03-1.27Z"/>
    </symbol>
    <symbol id="o" overflow="visible">
      <path d="M1.72 4.05c-.01.33-.04.61-.1.72q0 .1-.12.1a5 5 0 0 0-1.36-.33 1 1 0 0 1 .02-.3c.6-.06.72-.12.72-.75v-4.7c0-.91-.12-.97-.8-1-.06-.07-.06-.3 0-.36a42 42 0 0 0 2.57 0c.07.06.07.3 0 .36-.78.04-.9.09-.9 1v1.19c0 .14.04.13.15.09q.42-.17.96-.18.94-.01 1.62.62c.51.5.81 1.18.81 2.07 0 1.17-.82 2.25-1.95 2.25-.5 0-1.06-.33-1.5-.83q-.1-.1-.12.05m.2-.4c.3.34.8.67 1.12.67.7 0 1.3-.79 1.3-2.03 0-.9-.31-2.03-1.55-2.03-.2 0-.58.06-.78.24-.22.2-.26.26-.26.66v2c0 .23.04.33.18.48"/>
    </symbol>
    <symbol id="p" overflow="visible">
      <path d="M2.39-.11q.66 0 1.48.66c.06.04.16.07.17-.01.03-.28.12-.65.12-.65a.3.3 0 0 1 .2 0c.25.2.63.36 1.3.44.07.07.07.23 0 .3-.7.05-.8.26-.8.8v2.11c0 .33.05 1.13.05 1.13q0 .06-.1.07l-.38-.02-1.12.02c-.06-.07-.06-.3 0-.36.54-.04.68-.17.68-.9V1.37c0-.2-.02-.3-.17-.43a2 2 0 0 0-1.1-.52c-.33 0-.88.15-.88 1.13v2c0 .33.04 1.13.04 1.13q0 .06-.09.07l-.38-.02-1.12.02c-.07-.07-.07-.3 0-.36.52-.05.68-.17.68-.88V1.39c0-.76.33-1.5 1.42-1.5"/>
    </symbol>
    <symbol id="q" overflow="visible">
      <path d="M.77.66c0-.32.26-.58.58-.58s.59.26.59.58-.27.58-.59.58A.6.6 0 0 1 .77.66m0 3.28c0-.32.26-.58.58-.58s.59.26.59.58-.27.58-.59.58a.6.6 0 0 1-.58-.58"/>
    </symbol>
    <symbol id="r" overflow="visible">
      <path d="M1.93 1.34V4.3h1.02c.1 0 .25.04.25.14v.22q0 .07-.09.07H1.93v.63c0 1.69.5 1.95.86 1.95.33 0 .51-.13.66-.51.1-.2.21-.36.44-.36.2 0 .45.24.45.46q0 .28-.35.56c-.28.2-.57.23-.99.23-.92 0-1.94-.8-1.94-2.52v-.44H.49c-.2 0-.25-.13-.25-.22v-.14q0-.08.06-.07h.76V1.34C1.06.43.88.4.29.34.22.28.22.04.29-.02a41 41 0 0 0 2.56 0c.06.06.06.3 0 .36-.86.04-.92.09-.92 1"/>
    </symbol>
    <symbol id="s" overflow="visible">
      <path d="M.45 2.25C.45 1.13 1.2-.1 2.76-.1c.7 0 1.24.25 1.62.62.5.48.71 1.17.71 1.84 0 1.15-.62 2.48-2.3 2.48-.73 0-1.33-.3-1.73-.77s-.6-1.11-.6-1.8m2.17 2.2c.94 0 1.53-.86 1.53-2.45C4.15.62 3.43.28 2.9.28 1.78.27 1.4 1.65 1.4 2.5c0 .96.23 1.93 1.22 1.93"/>
    </symbol>
    <symbol id="t" overflow="visible">
      <path d="M1.84 4.33q-.1-.09-.11.06V6.4c0 .72.04 1.16.04 1.16q0 .1-.14.1a8 8 0 0 0-1.54-.29c-.02-.09 0-.26.06-.33h.1c.49-.03.6-.03.6-.9V.78C.86.35.86.15.82 0c.06-.09.11-.13.25-.13l.26.26c.11.13.18.13.3.03Q2-.13 2.58-.1C3.71-.1 5.02.92 5.02 2.67c0 1.34-1 2.17-1.95 2.17q-.72-.02-1.23-.5M1.9 4c.29.26.62.35.94.35.67 0 1.22-.8 1.22-1.88 0-1.25-.5-2.2-1.55-2.2-.34 0-.57.25-.8.52v2.75c0 .23.05.34.2.46"/>
    </symbol>
    <symbol id="u" overflow="visible">
      <path d="M3.22.53c.07-.34.19-.64.74-.64.42 0 .81.19 1.05.4-.03.14-.07.24-.2.3a1 1 0 0 0-.4-.17c-.32 0-.33.43-.33.93v1.62c0 1.56-.86 1.86-1.66 1.86-.9 0-1.81-.6-1.81-1.22q0-.4.38-.4c.32 0 .52.23.52.38l-.04.2-.02.21c0 .34.46.47.88.47.38 0 .9-.2.9-1.43q-.01-.11-.07-.14l-.95-.23C1.16 2.41.4 1.83.4 1.07.4.18 1-.1 1.78-.1c.39 0 .72.09 1.2.46l.22.18Zm0 2.03V1.11q0-.2-.15-.29C2.78.6 2.4.35 2.1.35c-.55 0-.8.44-.8.78 0 .5.24 1 1.05 1.21Z"/>
    </symbol>
    <symbol id="v" overflow="visible">
      <path d="M1.94 3.94q-.03.66-.1.83 0 .1-.12.1a5 5 0 0 0-1.36-.33 1 1 0 0 1 .03-.3c.59-.06.71-.12.71-.75V1.34C1.1.43.97.4.29.34.22.28.22.04.29-.02a44 44 0 0 0 2.58 0c.07.06.07.3 0 .36-.77.06-.9.09-.9 1v1.53c0 .29.13.54.26.74.12.17.38.54.5.54q.15.01.3-.15c.07-.1.2-.25.4-.25.25 0 .5.28.5.55 0 .21-.19.53-.65.53-.52 0-.97-.49-1.22-.91-.07-.12-.12-.04-.12.02"/>
    </symbol>
    <symbol id="w" overflow="visible">
      <path d="M.68 2.53a1.25 1.25 0 1 1 2.5 0 1.25 1.25 0 0 1-2.5 0"/>
    </symbol>
    <symbol id="x" overflow="visible">
      <path d="M2.65 4.26q-.6 0-.91-.47T1.43 2.4t.3-1.38q.32-.47.92-.47t.91.47.31 1.38q0 .92-.3 1.39-.32.47-.92.47m0 .67q1 0 1.53-.65T4.7 2.4 4.18.52q-.53-.64-1.53-.64T1.12.52.59 2.4t.53 1.88 1.53.65"/>
    </symbol>
    <symbol id="y" overflow="visible">
      <path d="M.43 4.81h.82L2.65.77l1.4 4.04h.82L3.16 0H2.14z"/>
    </symbol>
    <symbol id="z" overflow="visible">
      <path d="M4.78 2.6v-.38H1.35v-.03q0-.78.41-1.21T2.92.55q.38 0 .8.12.4.12.87.36V.24q-.45-.18-.87-.27t-.8-.1q-1.13 0-1.76.68-.63.67-.63 1.85 0 1.15.62 1.84t1.65.69q.92 0 1.45-.62.53-.63.53-1.7m-.8.24q-.01.7-.32 1.06t-.9.36-.94-.38-.44-1.05z"/>
    </symbol>
    <symbol id="A" overflow="visible">
      <path d="M4.96 3.82q-.25.2-.51.29t-.58.09q-.74 0-1.13-.47T2.35 2.4V0h-.8v4.81h.8v-.94q.2.51.6.79.42.27.98.27.3 0 .55-.07t.48-.23z"/>
    </symbol>
    <symbol id="B" overflow="visible">
      <path d="M1.1 4.81h2.02V.61H4.7V0H.76v.61h1.57V4.2H1.1zM2.33 6.7h.8v-1h-.8z"/>
    </symbol>
    <symbol id="C" overflow="visible">
      <path d="M3.69 4.2v2.49h.79V0h-.8v.6q-.2-.35-.52-.54-.33-.18-.76-.18-.87 0-1.37.67-.5.68-.5 1.87 0 1.17.5 1.84t1.37.67q.44 0 .77-.19t.52-.54M1.36 2.4q0-.92.3-1.39.29-.46.86-.46t.87.47.3 1.38q0 .92-.3 1.39t-.87.47-.87-.47-.29-1.39"/>
    </symbol>
    <symbol id="D" overflow="visible">
      <path d="M4.18 4.64v-.77q-.34.2-.68.3t-.7.1q-.54 0-.8-.18-.27-.17-.27-.53 0-.32.2-.48t.98-.3l.32-.07q.59-.11.9-.45.3-.33.3-.87 0-.71-.51-1.11-.5-.4-1.41-.4-.36 0-.75.07T.92.18v.81q.44-.23.84-.34t.77-.11q.52 0 .8.21.3.21.3.6 0 .54-1.06.76h-.03l-.3.06q-.68.14-1 .45-.3.32-.3.86 0 .7.46 1.07t1.34.38q.38 0 .74-.07t.7-.22"/>
    </symbol>
    <symbol id="E" overflow="visible">
      <path d="M3.8 6.68q-.57-.98-.85-1.96-.28-.97-.28-1.96 0-.98.28-1.96.28-.97.85-1.96h-.68q-.65 1.02-.97 2-.32.96-.32 1.92t.32 1.93.97 1.99z"/>
    </symbol>
    <symbol id="F" overflow="visible">
      <path d="M3.85 6.42V4.03H3.1v2.39zm-1.65 0V4.03h-.75v2.39z"/>
    </symbol>
    <symbol id="G" overflow="visible">
      <path d="M4.57 6.69v-.66h-.9q-.43 0-.6-.18t-.16-.61V4.8h1.66v-.6H2.9V0h-.79v4.2H.84v.61h1.28v.34q0 .79.37 1.16.36.38 1.13.38z"/>
    </symbol>
    <symbol id="H" overflow="visible">
      <path d="M3.89 3.2q0 1.41-.3 2.02-.28.6-.94.6t-.95-.6q-.3-.6-.3-2.02 0-1.4.3-2.01.29-.61.95-.61t.95.6.29 2.02m.9 0q0-1.67-.53-2.5-.53-.82-1.61-.82-1.09 0-1.62.82T.5 3.2t.53 2.5 1.62.83 1.61-.82.54-2.5"/>
    </symbol>
    <symbol id="I" overflow="visible">
      <path d="M1.5 6.68h.68q.65-1.02.97-1.99t.32-1.93T3.15.83t-.97-1.99H1.5q.57 1 .85 1.97.28.98.28 1.95 0 .98-.28 1.96-.28.97-.85 1.96"/>
    </symbol>
    <symbol id="J" overflow="visible">
      <path d="M9.42.9a7 7 0 0 0 2.37 1.87v.25a8 8 0 0 0-2.37 1.9h-.44C9.4 4 9.86 3.5 10.22 3.2H.65v-.57h9.57C9.87 2.29 9.32 1.69 9 .9Z"/>
    </symbol>
    <symbol id="K" overflow="visible">
      <path d="M7.33 3.62c0 2.28-1.58 3.62-3.55 3.62C1.65 7.24.41 5.54.41 3.4A3.37 3.37 0 0 1 3.85-.11a3.3 3.3 0 0 1 2.8 1.39q.66.94.68 2.34M3.64 6.84c1.45 0 2.63-1.2 2.63-3.43 0-1.97-.95-3.12-2.2-3.12-1.34 0-2.6 1.2-2.6 3.3 0 2.32 1.08 3.25 2.17 3.25"/>
    </symbol>
    <symbol id="L" overflow="visible">
      <path d="M1.63 7.1.2 7.11c-.07-.07-.07-.3 0-.37.77-.03.96-.08.96-1v-4.4c0-.92-.2-.98-.96-1C.14.27.14.04.2-.03L1.64 0c.4 0 .68-.02 1.6-.02 2.2 0 2.78 1.1 2.78 2.04 0 1.06-.74 1.67-1.7 1.94v.02c.55.28 1.05.85 1.05 1.44 0 .74-.32 1.7-2.37 1.7zm.47-3.45h.76c1.5 0 2.13-.84 2.13-1.84C5 1.01 4.7.34 3.01.34c-.77 0-.9.29-.9.96Zm0 2.4c0 .58 0 .7.96.7.61 0 1.42-.34 1.42-1.46 0-.93-.65-1.26-1.57-1.26h-.8Z"/>
    </symbol>
    <symbol id="M" overflow="visible">
      <path d="M1.59 3.06V.71H2.6q.76 0 1.08.27.32.26.32.87 0 .63-.34.92t-1.06.3zm0 2.64V3.77h1q.63 0 .91.24t.29.78q0 .48-.28.7t-.91.21zm-.88.72h1.9q.99 0 1.52-.43t.53-1.2q0-.6-.28-.93t-.84-.43q.63-.1.99-.54t.36-1.13Q4.89.9 4.3.44 3.74 0 2.61 0H.71z"/>
    </symbol>
    <symbol id="N" overflow="visible">
      <path d="m2.65 5.65-.92-3.28h1.83zm-.53.77h1.06L5.14 0h-.9l-.47 1.67H1.52L1.06 0h-.9z"/>
    </symbol>
    <symbol id="O" overflow="visible">
      <path d="M3.27 3.03q.33-.09.57-.33.23-.23.59-.95L5.3 0h-.93L3.6 1.62q-.33.7-.6.9t-.68.2h-.83V0H.6v6.42h1.8q1.05 0 1.61-.48t.56-1.38q0-.64-.34-1.04t-.97-.5M1.49 5.7V3.42h.95q.62 0 .92.28t.31.86q0 .55-.32.85-.33.3-.95.3z"/>
    </symbol>
    <symbol id="P" overflow="visible">
      <path d="M3.11 3.55c.94 0 .97-.25 1-.74.07-.07.3-.07.37 0l-.03.96c0 .38.02.66.03.95-.07.07-.3.07-.37 0-.03-.6-.06-.75-1-.75H2.1v1.98c0 .6.13.7.62.7h.5c1.16 0 1.43-.44 1.67-1.2a1 1 0 0 1 .34.06c-.05.45-.21 1.5-.24 1.6q.01.03-.04.03c-.19-.03-.24-.04-.52-.04h-2.8c-.36 0-.98 0-1.42.02-.07-.07-.07-.3 0-.37.77-.03.96-.08.96-1v-4.4c0-.92-.2-.98-.96-1C.13.27.13.04.2-.03a54 54 0 0 0 2.85 0c.06.06.06.3 0 .36-.77.03-.96.09-.96 1v2.21Z"/>
    </symbol>
    <symbol id="Q" overflow="visible">
      <path d="m1.7.87.61 1.6c.06.14.12.18.38.18h2.33L5.65.8C5.8.42 5.37.37 4.84.34c-.07-.06-.07-.3 0-.36a61 61 0 0 0 2.7 0c.06.06.06.3 0 .36-.43.04-.8.08-1 .6l-2.26 6.3c-.17-.1-.46-.22-.6-.22l-2.5-5.9C.89.44.56.37.08.34 0 .28 0 .04.08-.02a27 27 0 0 0 2.38 0c.07.06.07.3 0 .36-.41.03-.93.08-.75.53M2.9 3.1q-.37 0-.28.15L3.74 6.1h.07l1.03-3Z"/>
    </symbol>
    <symbol id="R" overflow="visible">
      <path d="M2.08 1.34V3.2c.92 0 1.13-.16 1.29-.42L4.54.87c.32-.52.8-.98 1.46-.98.16 0 .35.02.46.08q.05.12-.01.26c-.5 0-.77.38-1.06.85L4 3.38c.48.16 1.47.73 1.47 1.89q0 .82-.59 1.37c-.52.5-1.2.53-1.9.53-.52 0-.98-.08-1.37-.08l-1.42.03c-.07-.07-.07-.3 0-.37.77-.03.95-.08.95-1v-4.4C1.14.42.96.36.2.34.12.27.12.04.19-.03a69 69 0 0 0 2.85 0c.06.06.06.3 0 .36-.77.03-.96.09-.96 1m.91 5.46c.67 0 1.47-.24 1.47-1.54 0-1.38-.79-1.68-1.85-1.68h-.53v2.51c0 .32.13.7.91.7"/>
    </symbol>
  </defs>
</svg>
