<?xml version="1.0" encoding="UTF-8" standalone="no"?>
<!-- Generator: Adobe Illustrator 26.3.1, SVG Export Plug-In . SVG Version: 6.00 Build 0)  -->

<svg
   version="1.1"
   id="logo"
   x="0px"
   y="0px"
   viewBox="0 0 124.37 76.529995"
   xml:space="preserve"
   sodipodi:docname="TUDelft_logo_black.svg"
   width="124.37"
   height="76.529999"
   inkscape:version="1.4.2 (f4327f4, 2025-05-13)"
   xmlns:inkscape="http://www.inkscape.org/namespaces/inkscape"
   xmlns:sodipodi="http://sodipodi.sourceforge.net/DTD/sodipodi-0.dtd"
   xmlns="http://www.w3.org/2000/svg"
   xmlns:svg="http://www.w3.org/2000/svg"><defs
   id="defs6" /><sodipodi:namedview
   id="namedview6"
   pagecolor="#ffffff"
   bordercolor="#000000"
   borderopacity="0.25"
   inkscape:showpageshadow="2"
   inkscape:pageopacity="0.0"
   inkscape:pagecheckerboard="0"
   inkscape:deskcolor="#d1d1d1"
   inkscape:zoom="1.3556645"
   inkscape:cx="354.43873"
   inkscape:cy="240.8413"
   inkscape:window-width="2560"
   inkscape:window-height="1009"
   inkscape:window-x="-8"
   inkscape:window-y="-8"
   inkscape:window-maximized="1"
   inkscape:current-layer="logo" />
<style
   type="text/css"
   id="style1">
	.st0{fill:none;}
</style>
<g
   id="g6"
   transform="translate(-66.169998,-175.17)">
	<rect
   x="66.169998"
   y="175.17"
   class="st0"
   width="124.37"
   height="76.529999"
   id="rect1" />
	<path
   d="m 104.55,219.69 c 2.49,0 3.85,-1.66 3.85,-3.98 v -11.84 h 5.3 v 12.11 c -0.05,5.33 -4.32,7.42 -9.15,7.42 -4.83,0 -9.09,-2.09 -9.15,-7.42 v -12.11 h 5.3 v 11.84 c 0.01,2.32 1.36,3.98 3.85,3.98 z"
   id="path1" />
	<polygon
   points="86.97,207.58 92.91,207.58 92.91,203.87 75.73,203.87 75.73,207.58 81.67,207.58 81.67,223 86.97,223 "
   id="polygon1" />
	<path
   d="m 94.41,194.55 c -1.29,0.41 -2.63,0.08 -2.62,-1.65 0,-2.64 6.19,-4.85 7.05,-7.15 0.21,-0.57 0.23,-1.05 -0.05,-1.03 -0.2,0.01 -0.04,0.3 -0.48,0.73 -2.56,2.57 -6.86,2.56 -10.16,4.04 -2.16,0.97 -8.5,3.95 -7.04,10.6 0.07,0.32 0.26,1.37 0.45,1.37 0.22,0 0.22,-0.63 0.22,-1.39 -0.05,-3.96 4.64,-5.06 6.17,-7.65 0.18,-0.31 0.5,-0.74 0.57,-0.54 0.04,0.1 0.01,0.24 -0.05,0.52 -0.48,2.13 -2.7,3.49 -2.07,5.01 0.82,1.97 3.17,0.5 3.9,-0.77 0.19,-0.35 0.3,-0.57 0.43,-0.53 0.1,0.03 0.09,0.43 0.03,0.79 -0.39,2.29 -0.91,3.57 -2.59,4.88 -0.54,0.42 -1.38,0.5 -1.27,0.82 0.03,0.08 0.39,0.07 0.68,0.04 4.46,-0.29 8.19,-5.54 9.18,-8.98 0.1,-0.24 0.13,-0.47 0.03,-0.55 -0.13,-0.1 -0.33,0.13 -0.53,0.31 -0.51,0.46 -1.21,0.93 -1.85,1.13 z"
   id="path2" />
	<path
   d="m 139.67,215.08 c 0.02,-2.08 1.27,-3.95 3.37,-3.95 2.44,0 3.39,1.67 3.39,3.95 z m 9.42,1.75 v -1.25 c 0,-3.68 -2.09,-6.28 -5.86,-6.28 -4.21,0 -6.18,3.26 -6.18,7.16 0,3.92 1.7,6.95 5.97,6.95 3.18,0 5.51,-1.51 5.91,-4.53 h -2.65 c -0.29,1.93 -1.27,2.7 -3.23,2.7 -2.57,0 -3.43,-2.29 -3.43,-4.74 h 9.47 z"
   id="path3" />
	<rect
   x="152.14"
   y="203.87"
   width="2.52"
   height="19.129999"
   id="rect3" />
	<path
   d="m 162.56,223 v -11.55 h 3.07 v -1.75 h -3.07 v -2.15 c 0,-1.54 0.74,-1.8 2.17,-1.8 0.42,0 0.85,0.05 1.27,0.08 v -2.09 c -0.59,-0.13 -1.19,-0.27 -1.8,-0.27 -2.38,0 -4.16,1.2 -4.16,3.74 v 2.49 h -2.6 v 1.75 h 2.6 V 223 Z"
   id="path4" />
	<path
   d="m 167.07,209.7 v 1.75 h 2.28 v 8.48 c 0,1.77 0.03,3.47 3.77,3.47 0.58,0 1.13,-0.05 1.72,-0.16 v -1.93 c -0.41,0.1 -0.93,0.16 -1.33,0.16 -0.9,0 -1.64,-0.45 -1.64,-1.4 v -8.61 h 3.07 v -1.75 h -3.07 v -3.63 l -2.52,0.79 v 2.84 z"
   id="path5" />
	<path
   d="m 119,223 h 6.57 c 8.18,0 9.04,-6.93 9.04,-9.57 0,-2.64 -0.86,-9.57 -9.04,-9.57 H 119 Z m 2.65,-16.85 h 3.92 c 4.42,0 6.26,3.34 6.26,7.29 0,3.95 -1.84,7.29 -6.26,7.29 h -3.92 z"
   id="path6" />
</g>
</svg>
