<svg width="586" height="60" xmlns="http://www.w3.org/2000/svg" xmlns:xlink="http://www.w3.org/1999/xlink" xml:space="preserve" overflow="hidden"><g transform="translate(-151 -75)"><path d="M518.507 11.7634C518.507 11.7634 518.507 10.5936 519.555 10.0694L539.134 0.270213C539.134 0.270213 540.182-0.253874 541.278 0.157745L582.433 15.606C582.433 15.606 583.529 16.0176 583.529 17.1873L583.529 47.9928C583.529 47.9928 583.529 49.1628 582.482 49.6869L562.903 59.4864C562.903 59.4864 561.856 60.0103 561.856 58.8409L561.856 42.1965C561.856 42.1965 561.856 41.0269 560.808 41.551L541.229 51.3505C541.229 51.3505 540.182 51.8746 540.182 50.7051L540.182 34.0608C540.182 34.0608 540.182 32.8909 539.134 33.4153L519.555 43.2145C519.555 43.2145 518.507 43.7388 518.507 42.5692L518.507 11.7634 518.507 11.7634ZM11.5179 43.3479 10.4476 43.3479C10.0144 43.3479 9.68318 43.0167 9.68318 42.5834L9.68318 31.1419C9.68318 30.5049 9.86152 28.3899 9.88705 28.1351L9.30094 28.1351C9.27548 28.3899 9.02064 30.5049 8.84227 31.1419L7.54267 35.5758C7.44075 35.9326 7.13496 36.0855 6.8037 36.0855L5.47866 36.0855C5.14735 36.0855 4.84156 35.9326 4.73966 35.5758L3.44009 31.1419C3.26171 30.5049 3.0069 28.3899 2.98139 28.1351L2.39531 28.1351C2.4208 28.3899 2.59918 30.5049 2.59918 31.1419L2.59918 42.5834C2.59918 43.0167 2.2679 43.3479 1.83468 43.3479L0.764444 43.3479C0.305808 43.3479 2.35264e-05 43.0167 2.35264e-05 42.5834L2.35264e-05 25.9691C2.35264e-05 25.5359 0.331264 25.2047 0.764444 25.2047L3.69491 25.2047C4.02618 25.2047 4.33196 25.383 4.40839 25.6889L5.86088 31.6772C5.98829 32.1612 6.11568 33.3843 6.14121 33.6647 6.16666 33.3843 6.29406 32.1612 6.42147 31.6772L7.87395 25.6889C7.95041 25.383 8.2562 25.2047 8.58747 25.2047L11.5179 25.2047C11.9511 25.2047 12.2823 25.5359 12.2823 25.9691L12.2823 42.5834C12.2823 43.0167 11.9511 43.3479 11.5179 43.3479L11.5179 43.3479ZM26.0682 36.2639 26.0682 42.5834C26.0682 43.0167 25.737 43.3479 25.3037 43.3479L24.2335 43.3479C23.8003 43.3479 23.469 43.0167 23.469 42.5834L23.469 37.6655 18.2706 37.6655 18.2706 42.5834C18.2706 43.0167 17.9649 43.3479 17.5317 43.3479L16.4359 43.3479C16.0028 43.3479 15.6715 43.0167 15.6715 42.5834L15.6715 36.2639C15.6715 36.2383 15.6715 36.1874 15.6969 36.1109L18.4235 25.7652C18.5255 25.383 18.8313 25.2047 19.188 25.2047L22.5516 25.2047C22.9084 25.2047 23.2142 25.383 23.3161 25.7652L26.0427 36.1109C26.0682 36.1874 26.0682 36.2383 26.0682 36.2639L26.0682 36.2639ZM23.0613 35.0662 21.1757 27.8038 20.5641 27.8038 18.6783 35.0662 23.0613 35.0662ZM38.0448 43.3479 29.6867 43.3479C29.2535 43.3479 28.9222 43.0167 28.9222 42.5834L28.9222 41.5132C28.9222 41.08 29.2535 40.7487 29.6867 40.7487L32.5661 40.7487 32.5661 27.8038 29.9669 27.8038C29.5338 27.8038 29.2025 27.4725 29.2025 27.0394L29.2025 25.9691C29.2025 25.5359 29.5338 25.2047 29.9669 25.2047L37.7645 25.2047C38.1976 25.2047 38.529 25.5359 38.529 25.9691L38.529 27.0394C38.529 27.4725 38.1976 27.8038 37.7645 27.8038L35.1653 27.8038 35.1653 40.7487 38.0448 40.7487C38.4779 40.7487 38.8092 41.08 38.8092 41.5132L38.8092 42.5834C38.8092 43.0167 38.4779 43.3479 38.0448 43.3479L38.0448 43.3479ZM52.9447 43.3479 49.9888 43.3479C49.683 43.3479 49.3517 43.195 49.2499 42.8382L45.8097 31.1419C45.6059 30.5049 45.2492 28.3644 45.2237 28.1096L44.6121 28.1096C44.6376 28.3644 44.8415 30.5049 44.8415 31.1419L44.8415 42.5834C44.8415 43.0167 44.5101 43.3479 44.077 43.3479L43.0068 43.3479C42.5735 43.3479 42.2423 43.0167 42.2423 42.5834L42.2423 25.9691C42.2423 25.5359 42.5989 25.2047 43.0322 25.2047L45.9626 25.2047C46.2685 25.2047 46.5997 25.3321 46.7016 25.6889L50.1417 37.3851C50.3456 38.0476 50.7023 40.1881 50.7278 40.443L51.3394 40.443C51.3138 40.1881 51.11 38.0476 51.11 37.3851L51.11 25.9691C51.11 25.5359 51.4412 25.2047 51.8745 25.2047L52.9447 25.2047C53.3779 25.2047 53.7092 25.5359 53.7092 25.9691L53.7092 42.5834C53.7092 43.0167 53.3779 43.3479 52.9447 43.3479L52.9447 43.3479ZM66.4247 43.3479 58.0922 43.3479C57.6589 43.3479 57.3277 43.0167 57.3277 42.5834L57.3277 41.6661C57.3277 41.2329 57.3786 41.131 57.5315 40.7996L63.5707 27.8038 58.3725 27.8038C57.9392 27.8038 57.5825 27.4725 57.5825 27.0394L57.5825 25.9691C57.5825 25.5359 57.9137 25.2047 58.3469 25.2047L65.8896 25.2047C66.3229 25.2047 66.6541 25.5359 66.6541 25.9691L66.6541 27.0139C66.6541 27.0648 66.6286 27.4216 66.4503 27.8038L60.411 40.7487 66.4247 40.7487C66.858 40.7487 67.1892 41.08 67.1892 41.5132L67.1892 42.5834C67.1892 43.0167 66.858 43.3479 66.4247 43.3479L66.4247 43.3479ZM8.56132 18.4221 7.49115 18.4221C7.058 18.4221 6.72673 18.0909 6.72673 17.6578L6.72673 10.6507 2.59899 10.6507 2.59899 17.6578C2.59899 18.0909 2.26771 18.4221 1.83457 18.4221L0.764397 18.4221C0.33124 18.4221 1.17632e-05 18.0909 1.17632e-05 17.6578L1.17632e-05 1.04468C0 0.611534 0.33124 0.280294 0.764385 0.280294L1.83456 0.280294C2.26771 0.280294 2.59898 0.611534 2.59898 1.04468L2.59898 8.05174 6.72672 8.05174 6.72672 1.04468C6.72672 0.611522 7.058 0.280294 7.49114 0.280294L8.56131 0.280294C8.99447 0.280294 9.3257 0.611534 9.3257 1.04468L9.3257 17.6578C9.3257 18.0909 8.99446 18.4221 8.56131 18.4221L8.56131 18.4221ZM13.0968 14.2944 13.0968 4.40808C13.0968 1.96199 15.0842 0 17.5048 0L18.2693 0C20.6898 0 22.6774 1.962 22.6774 4.40808L22.6774 14.2944C22.6774 16.7151 20.6898 18.7024 18.2693 18.7024L17.5048 18.7024C15.0842 18.7024 13.0968 16.7151 13.0968 14.2944L13.0968 14.2944ZM15.6958 4.40808 15.6958 14.2944C15.6958 15.2881 16.4857 16.1035 17.5048 16.1035L18.2693 16.1035C19.2885 16.1035 20.0784 15.2881 20.0784 14.2944L20.0784 4.40808C20.0784 3.41433 19.2885 2.59898 18.2693 2.59898L17.5048 2.59898C16.4857 2.59898 15.6958 3.41434 15.6958 4.40808L15.6958 4.40808ZM31.3472 18.7024 30.5573 18.7024C28.1367 18.7024 26.1493 16.7405 26.1493 14.2944L26.1493 4.40808C26.1493 1.98744 28.1367 0 30.5573 0L31.3472 0C33.7932 0 35.7807 1.98744 35.7807 4.40808L35.7807 4.94314C35.7807 5.37633 35.4495 5.70756 35.0164 5.70756L33.9462 5.70756C33.513 5.70756 33.1818 5.37632 33.1818 4.94314L33.1818 4.40808C33.1818 3.41433 32.3664 2.59898 31.3472 2.59898L30.5573 2.59898C29.5635 2.59898 28.7482 3.41434 28.7482 4.40808L28.7482 14.2944C28.7482 15.2881 29.5635 16.1035 30.5573 16.1035L31.3472 16.1035C32.3664 16.1035 33.1818 15.2881 33.1818 14.2944L33.1818 13.479C33.1818 13.0459 33.513 12.7146 33.9462 12.7146L35.0164 12.7146C35.4495 12.7146 35.7807 13.0459 35.7807 13.479L35.7807 14.2944C35.7807 16.7405 33.7932 18.7024 31.3472 18.7024L31.3472 18.7024ZM47.8073 18.4221 46.7372 18.4221C46.304 18.4221 45.9727 18.0909 45.9727 17.6578L45.9727 10.6507 41.845 10.6507 41.845 17.6578C41.845 18.0909 41.5138 18.4221 41.0807 18.4221L40.0104 18.4221C39.5773 18.4221 39.2461 18.0909 39.2461 17.6578L39.2461 1.04468C39.2461 0.611522 39.5773 0.280294 40.0104 0.280294L41.0807 0.280294C41.5138 0.280294 41.845 0.611534 41.845 1.04468L41.845 8.05174 45.9727 8.05174 45.9727 1.04468C45.9727 0.611522 46.304 0.280294 46.7372 0.280294L47.8073 0.280294C48.2406 0.280294 48.5718 0.611534 48.5718 1.04468L48.5718 17.6578C48.5718 18.0909 48.2406 18.4221 47.8073 18.4221L47.8073 18.4221ZM57.4899 18.7024 56.4706 18.7024C54.0245 18.7024 52.0626 16.7151 52.0626 14.2944L52.0626 13.7338C52.0626 13.3007 52.3938 12.9694 52.8269 12.9694L53.8972 12.9694C54.3303 12.9694 54.6615 13.3007 54.6615 13.7338L54.6615 14.2944C54.6615 15.2881 55.4514 16.1035 56.4706 16.1035L57.4899 16.1035C58.509 16.1035 59.2989 15.2881 59.2989 14.2944L59.2989 13.479C59.2989 9.93728 52.2918 10.5488 52.2918 5.19796L52.2918 4.40809C52.2918 1.98745 54.2793 1.17632e-05 56.7 1.17632e-05L57.2605 1.17632e-05C59.6811 1.17632e-05 61.6686 1.98745 61.6686 4.40809L61.6686 4.94315C61.6686 5.37634 61.3374 5.70757 60.9041 5.70757L59.834 5.70757C59.4008 5.70757 59.0697 5.37633 59.0697 4.94315L59.0697 4.40809C59.0697 3.41434 58.2542 2.59899 57.2605 2.59899L56.7 2.59899C55.7062 2.59899 54.8909 3.41435 54.8909 4.40809L54.8909 5.19796C54.8909 8.45941 61.8979 7.97532 61.8979 13.479L61.8979 14.2944C61.8979 16.7151 59.9359 18.7024 57.4899 18.7024L57.4899 18.7024ZM70.1534 18.7024 69.3637 18.7024C66.943 18.7024 64.9555 16.7405 64.9555 14.2944L64.9555 4.40808C64.9555 1.98744 66.943 0 69.3637 0L70.1534 0C72.5996 0 74.587 1.98744 74.587 4.40808L74.587 4.94314C74.587 5.37633 74.2557 5.70756 73.8226 5.70756L72.7525 5.70756C72.3193 5.70756 71.988 5.37632 71.988 4.94314L71.988 4.40808C71.988 3.41433 71.1727 2.59898 70.1534 2.59898L69.3637 2.59898C68.3699 2.59898 67.5545 3.41434 67.5545 4.40808L67.5545 14.2944C67.5545 15.2881 68.3699 16.1035 69.3637 16.1035L70.1534 16.1035C71.1727 16.1035 71.988 15.2881 71.988 14.2944L71.988 13.479C71.988 13.0459 72.3193 12.7146 72.7525 12.7146L73.8226 12.7146C74.2557 12.7146 74.587 13.0459 74.587 13.479L74.587 14.2944C74.587 16.7405 72.5996 18.7024 70.1534 18.7024L70.1534 18.7024ZM86.5372 18.4221 85.467 18.4221C85.0339 18.4221 84.7027 18.0909 84.7027 17.6578L84.7027 10.6507 80.5748 10.6507 80.5748 17.6578C80.5748 18.0909 80.2437 18.4221 79.8105 18.4221L78.7403 18.4221C78.3071 18.4221 77.9759 18.0909 77.9759 17.6578L77.9759 1.04468C77.9759 0.611522 78.3071 0.280294 78.7403 0.280294L79.8105 0.280294C80.2437 0.280294 80.5748 0.611534 80.5748 1.04468L80.5748 8.05174 84.7027 8.05174 84.7027 1.04468C84.7027 0.611522 85.0339 0.280294 85.467 0.280294L86.5372 0.280294C86.9704 0.280294 87.3016 0.611534 87.3016 1.04468L87.3016 17.6578C87.3016 18.0909 86.9704 18.4221 86.5372 18.4221L86.5372 18.4221ZM96.4235 18.7024 95.863 18.7024C93.4424 18.7024 91.4804 16.7151 91.4804 14.2944L91.4804 1.04468C91.4804 0.611522 91.8116 0.280294 92.2448 0.280294L93.2894 0.280294C93.7227 0.280294 94.0539 0.611534 94.0539 1.04468L94.0539 14.2944C94.0539 15.2881 94.8692 16.1035 95.863 16.1035L96.4235 16.1035C97.4173 16.1035 98.2327 15.2881 98.2327 14.2944L98.2327 1.04468C98.2327 0.611522 98.5638 0.280294 98.9971 0.280294L100.042 0.280294C100.475 0.280294 100.806 0.611534 100.806 1.04468L100.806 14.2944C100.806 16.7151 98.8441 18.7024 96.4235 18.7024L96.4235 18.7024ZM112.909 18.4221 105.622 18.4221C105.189 18.4221 104.857 18.0909 104.857 17.6578L104.857 1.04468C104.857 0.611522 105.189 0.280294 105.622 0.280294L106.692 0.280294C107.125 0.280294 107.456 0.611534 107.456 1.04468L107.456 15.8232 112.909 15.8232C113.342 15.8232 113.674 16.1544 113.674 16.5877L113.674 17.6578C113.674 18.0909 113.342 18.4221 112.909 18.4221L112.909 18.4221ZM124.944 18.4221 117.122 18.4221C116.689 18.4221 116.358 18.0909 116.358 17.6578L116.358 1.01919C116.358 0.611522 116.689 0.280294 117.122 0.280294L124.919 0.280294C125.352 0.280294 125.709 0.611534 125.709 1.04468L125.709 2.11485C125.709 2.52255 125.352 2.87927 124.919 2.87927L118.957 2.87927 118.957 8.05174 124.384 8.05174C124.817 8.05174 125.174 8.38298 125.174 8.81613L125.174 9.8863C125.174 10.3195 124.817 10.6507 124.384 10.6507L118.957 10.6507 118.957 15.8232 124.944 15.8232C125.378 15.8232 125.709 16.1544 125.709 16.5877L125.709 17.6578C125.709 18.0909 125.378 18.4221 124.944 18.4221L124.944 18.4221ZM163.647 23.5109 163.647 24.3366C163.647 25.6219 162.592 26.6758 161.308 26.6758L158.955 26.6758C158.726 26.6758 158.549 26.5002 158.549 26.2704L158.549 17.4511C158.549 17.2215 158.726 17.0457 158.955 17.0457L161.158 17.0457C162.457 17.0457 163.499 18.0726 163.499 19.3714L163.499 20.1971C163.499 20.8198 163.269 21.3608 162.89 21.7797 163.35 22.2121 163.647 22.8342 163.647 23.5109L163.647 23.5109ZM162.119 20.1971 162.119 19.3714C162.119 18.8435 161.699 18.4239 161.158 18.4239L159.928 18.4239 159.928 21.1717 161.158 21.1717C161.699 21.1717 162.119 20.725 162.119 20.1971L162.119 20.1971ZM162.268 24.3366 162.268 23.5109C162.268 22.9694 161.835 22.5498 161.308 22.5498L159.928 22.5498 159.928 25.2976 161.308 25.2976C161.835 25.2976 162.268 24.878 162.268 24.3366L162.268 24.3366ZM170.175 26.6758 169.608 26.6758C169.5 26.6758 169.378 26.6217 169.31 26.5409 168.986 26.7165 168.621 26.8246 168.228 26.8246L167.957 26.8246C166.672 26.8246 165.618 25.7843 165.618 24.4859L165.618 20.1841C165.618 19.9542 165.793 19.7783 166.024 19.7783L166.591 19.7783C166.82 19.7783 166.996 19.9542 166.996 20.1841L166.996 24.4859C166.996 25.0135 167.415 25.4464 167.957 25.4464L168.228 25.4464C168.756 25.4464 169.202 25.0135 169.202 24.4849L169.202 20.1841C169.202 19.9677 169.378 19.7783 169.608 19.7783L170.162 19.7783C170.378 19.7783 170.581 19.9677 170.581 20.1841L170.581 26.2701C170.581 26.4999 170.405 26.6758 170.175 26.6758L170.175 26.6758ZM177.71 24.6075C177.71 25.9869 176.561 26.8246 175.357 26.8246L174.938 26.8246C173.733 26.8246 172.611 25.9869 172.611 24.6075L172.611 24.4585C172.611 24.2285 172.787 24.0526 173.017 24.0526L173.585 24.0526C173.814 24.0526 173.99 24.2285 173.99 24.4585L173.99 24.6075C173.99 25.0675 174.328 25.4464 174.938 25.4464L175.357 25.4464C175.966 25.4464 176.332 25.0675 176.332 24.6075 176.332 23.6195 172.746 24.1743 172.746 21.8062 172.746 20.4132 173.896 19.6566 175.086 19.6566L175.235 19.6566C176.44 19.6566 177.561 20.4808 177.561 21.8738 177.561 22.1039 177.386 22.2798 177.156 22.2798L176.588 22.2798C176.359 22.2798 176.182 22.1039 176.182 21.8738 176.182 21.3866 175.845 21.0347 175.235 21.0347L175.086 21.0347C174.45 21.0347 174.125 21.3595 174.125 21.8062 174.125 22.7805 177.71 22.2527 177.71 24.6075L177.71 24.6075ZM183.351 17.4515 183.351 18.5608C183.351 18.7908 183.176 18.9666 182.945 18.9666L181.851 18.9666C181.62 18.9666 181.431 18.7908 181.431 18.5608L181.431 17.4515C181.431 17.2216 181.62 17.0457 181.851 17.0457L182.945 17.0457C183.176 17.0457 183.351 17.2216 183.351 17.4515L183.351 17.4515ZM185.151 25.7165 185.151 26.2704C185.151 26.5002 184.974 26.6758 184.745 26.6758L179.768 26.6758C179.537 26.6758 179.362 26.5002 179.362 26.2704L179.362 25.703C179.362 25.4734 179.537 25.2976 179.768 25.2976L181.851 25.2976 181.851 21.1565 180.322 21.1565C180.092 21.1565 179.916 20.9809 179.916 20.7511L179.916 20.1837C179.916 19.9541 180.105 19.7783 180.336 19.7783L182.824 19.7783C183.053 19.7783 183.23 19.9541 183.23 20.1837L183.23 25.2976 184.745 25.2976C184.961 25.2976 185.151 25.4868 185.151 25.7165L185.151 25.7165ZM191.609 26.6758 191.042 26.6758C190.811 26.6758 190.636 26.4999 190.636 26.27L190.636 21.9952C190.636 21.4676 190.216 21.0347 189.675 21.0347L189.404 21.0347C188.876 21.0347 188.429 21.4676 188.429 21.9964L188.429 26.2701C188.429 26.4999 188.254 26.6758 188.024 26.6758L187.456 26.6758C187.227 26.6758 187.052 26.4999 187.052 26.2701L187.052 20.1841C187.052 19.9542 187.24 19.7783 187.47 19.7783L188.024 19.7783C188.131 19.7783 188.254 19.8324 188.321 19.9134 188.645 19.7376 189.011 19.6566 189.404 19.6566L189.675 19.6566C190.96 19.6566 192.014 20.7104 192.014 21.9952L192.014 26.27C192.014 26.4999 191.852 26.6758 191.609 26.6758L191.609 26.6758ZM199.13 21.9963 199.13 23.5243C199.13 23.754 198.954 23.9297 198.724 23.9297L195.559 23.9297 195.559 24.4849C195.559 25.0131 195.977 25.4464 196.506 25.4464L196.803 25.4464C197.481 25.4464 197.71 24.8099 197.724 24.7287 197.778 24.5121 198.008 24.3901 198.224 24.4443L198.764 24.5662C198.981 24.6204 199.116 24.8777 199.062 25.0808 198.778 26.095 197.873 26.8246 196.803 26.8246L196.506 26.8246C195.22 26.8246 194.18 25.7707 194.18 24.4849L194.18 21.9963C194.18 20.7104 195.22 19.6566 196.506 19.6566L196.803 19.6566C198.089 19.6566 199.13 20.7104 199.13 21.9963L199.13 21.9963ZM197.765 22.5515 197.765 21.9963C197.765 21.4681 197.331 21.0347 196.803 21.0347L196.506 21.0347C195.977 21.0347 195.559 21.4681 195.559 21.9963L195.559 22.5515 197.765 22.5515ZM206.355 24.6075C206.355 25.9869 205.206 26.8246 204.002 26.8246L203.582 26.8246C202.378 26.8246 201.257 25.9869 201.257 24.6075L201.257 24.4585C201.257 24.2285 201.432 24.0526 201.661 24.0526L202.23 24.0526C202.459 24.0526 202.634 24.2285 202.634 24.4585L202.634 24.6075C202.634 25.0675 202.973 25.4464 203.582 25.4464L204.002 25.4464C204.61 25.4464 204.976 25.0675 204.976 24.6075 204.976 23.6195 201.392 24.1743 201.392 21.8062 201.392 20.4132 202.54 19.6566 203.731 19.6566L203.88 19.6566C205.085 19.6566 206.206 20.4808 206.206 21.8738 206.206 22.1039 206.03 22.2798 205.801 22.2798L205.233 22.2798C205.003 22.2798 204.828 22.1039 204.828 21.8738 204.828 21.3866 204.489 21.0347 203.88 21.0347L203.731 21.0347C203.094 21.0347 202.77 21.3595 202.77 21.8062 202.77 22.7805 206.355 22.2527 206.355 24.6075L206.355 24.6075ZM213.362 24.6075C213.362 25.9869 212.213 26.8246 211.01 26.8246L210.59 26.8246C209.385 26.8246 208.264 25.9869 208.264 24.6075L208.264 24.4585C208.264 24.2285 208.439 24.0526 208.669 24.0526L209.237 24.0526C209.466 24.0526 209.642 24.2285 209.642 24.4585L209.642 24.6075C209.642 25.0675 209.98 25.4464 210.59 25.4464L211.01 25.4464C211.618 25.4464 211.984 25.0675 211.984 24.6075 211.984 23.6195 208.399 24.1743 208.399 21.8062 208.399 20.4132 209.548 19.6566 210.738 19.6566L210.887 19.6566C212.092 19.6566 213.213 20.4808 213.213 21.8738 213.213 22.1039 213.038 22.2798 212.808 22.2798L212.24 22.2798C212.011 22.2798 211.835 22.1039 211.835 21.8738 211.835 21.3866 211.497 21.0347 210.887 21.0347L210.738 21.0347C210.102 21.0347 209.777 21.3595 209.777 21.8062 209.777 22.7805 213.362 22.2527 213.362 24.6075L213.362 24.6075ZM165.15 0.684689 165 4.87752 164.554 9.54375C164.527 9.77364 164.352 9.90891 164.15 9.90891L162.635 9.90891C162.458 9.90891 162.283 9.77364 162.269 9.5978L161.998 6.74398C161.958 6.33822 161.931 5.64847 161.931 5.51319L161.605 5.51319C161.605 5.64846 161.578 6.33821 161.538 6.74398L161.268 9.5978C161.254 9.77364 161.078 9.90891 160.902 9.90891L159.387 9.90891C159.184 9.90891 159.009 9.77364 158.982 9.54375L158.536 4.87752 158.387 0.684689C158.374 0.454754 158.576 0.278859 158.806 0.278859L159.347 0.278859C159.576 0.278859 159.751 0.414194 159.766 0.671197L159.982 7.0145C159.995 7.31206 159.995 8.24532 159.995 8.38058L160.32 8.38058C160.32 8.24532 160.374 7.31206 160.415 7.0145L160.74 4.44471C160.767 4.25538 160.902 4.13365 161.078 4.13365L162.458 4.13365C162.635 4.13365 162.77 4.25539 162.797 4.44471L163.122 7.0145C163.163 7.31206 163.217 8.24532 163.217 8.38058L163.542 8.38058C163.542 8.24532 163.542 7.31206 163.555 7.0145L163.771 0.671197C163.785 0.414194 163.96 0.278859 164.19 0.278859L164.731 0.278859C164.96 0.278859 165.163 0.454766 165.15 0.684689L165.15 0.684689ZM170.507 0.684689 170.507 1.79398C170.507 2.02395 170.33 2.19981 170.101 2.19981L169.007 2.19981C168.776 2.19981 168.587 2.02394 168.587 1.79398L168.587 0.684689C168.587 0.454719 168.776 0.278859 169.007 0.278859L170.101 0.278859C170.33 0.278859 170.507 0.45473 170.507 0.684689L170.507 0.684689ZM172.305 8.94959 172.305 9.50354C172.305 9.73326 172.13 9.90891 171.899 9.90891L166.923 9.90891C166.693 9.90891 166.518 9.73326 166.518 9.50354L166.518 8.9361C166.518 8.70642 166.693 8.53078 166.923 8.53078L169.007 8.53078 169.007 4.3896 167.478 4.3896C167.248 4.3896 167.072 4.21398 167.072 3.98427L167.072 3.41679C167.072 3.18715 167.261 3.0115 167.492 3.0115L169.98 3.0115C170.209 3.0115 170.384 3.18715 170.384 3.41679L170.384 8.53078 171.899 8.53078C172.116 8.53078 172.305 8.71993 172.305 8.9496L172.305 8.9496ZM178.3 9.90892 174.147 9.90892C173.931 9.90892 173.741 9.73327 173.741 9.50356L173.741 8.93611C173.741 8.70644 173.931 8.53079 174.147 8.53079L174.851 8.53079 174.851 5.22874C174.851 3.99763 175.851 2.88974 177.203 2.88974L177.474 2.88974C178.827 2.88974 179.814 3.99763 179.814 5.22874L179.814 6.18955C179.814 6.41963 179.637 6.59556 179.408 6.59556L178.841 6.59556C178.611 6.59556 178.435 6.41962 178.435 6.18955L178.435 5.22874C178.435 4.67385 177.961 4.26788 177.474 4.26788L177.203 4.26788C176.689 4.26788 176.228 4.67385 176.228 5.22874L176.228 8.53079 178.3 8.53079C178.53 8.53079 178.706 8.70644 178.706 8.93611L178.706 9.50356C178.706 9.73327 178.53 9.90892 178.3 9.90892L178.3 9.90892ZM187.267 7.42096 187.267 7.7187C187.267 9.01736 186.213 10.0577 184.927 10.0577 183.628 10.0577 182.589 9.01736 182.589 7.7187L182.589 4.67365 181.885 4.67365C181.655 4.67365 181.479 4.48454 181.479 4.25482L181.479 3.71441C181.479 3.4847 181.655 3.29555 181.885 3.29555L182.589 3.29555 182.589 0.684689C182.589 0.454719 182.737 0.278859 182.98 0.278859L183.561 0.278859C183.791 0.278859 183.966 0.45473 183.966 0.684689L183.966 3.29555 186.294 3.29555C186.525 3.29555 186.713 3.47119 186.713 3.70087L186.713 4.26835C186.713 4.49803 186.525 4.67364 186.294 4.67364L183.966 4.67364 183.966 7.71869C183.966 8.24647 184.386 8.67958 184.927 8.67958 185.455 8.67958 185.889 8.24647 185.889 7.71869L185.889 7.42095C185.889 7.19087 186.065 7.01494 186.294 7.01494L186.862 7.01494C187.092 7.01494 187.267 7.19089 187.267 7.42095L187.267 7.42095ZM194.328 7.84055C194.328 9.21998 193.18 10.0577 191.976 10.0577L191.556 10.0577C190.352 10.0577 189.23 9.21998 189.23 7.84055L189.23 7.69167C189.23 7.46159 189.407 7.2857 189.636 7.2857L190.203 7.2857C190.433 7.2857 190.609 7.46161 190.609 7.69167L190.609 7.84055C190.609 8.30065 190.946 8.6796 191.556 8.6796L191.976 8.6796C192.585 8.6796 192.951 8.30066 192.951 7.84055 192.951 6.85262 189.365 7.40747 189.365 5.03924 189.365 3.64635 190.513 2.88972 191.705 2.88972L191.853 2.88972C193.059 2.88972 194.18 3.71387 194.18 5.10688 194.18 5.33696 194.005 5.51289 193.774 5.51289L193.207 5.51289C192.978 5.51289 192.801 5.33695 192.801 5.10688 192.801 4.61971 192.463 4.26786 191.853 4.26786L191.705 4.26786C191.069 4.26786 190.744 4.59263 190.744 5.03924 190.744 6.0136 194.328 5.48582 194.328 7.84055L194.328 7.84055ZM201.146 7.71875C201.146 9.00384 200.106 10.0577 198.821 10.0577L198.523 10.0577C197.237 10.0577 196.197 9.00384 196.197 7.71875L196.197 5.22869C196.197 3.93007 197.237 2.88973 198.523 2.88973L198.821 2.88973C200.106 2.88973 201.146 3.93007 201.146 5.22869 201.146 5.47229 200.957 5.6347 200.742 5.6347L200.173 5.6347C199.944 5.6347 199.769 5.47229 199.769 5.22869 199.769 4.70094 199.349 4.26787 198.821 4.26787L198.523 4.26787C197.995 4.26787 197.575 4.70094 197.575 5.22869L197.575 7.71875C197.575 8.24653 197.995 8.6796 198.523 8.6796L198.821 8.6796C199.349 8.6796 199.769 8.24653 199.769 7.71875 199.769 7.48871 199.944 7.29924 200.173 7.29924L200.742 7.29924C200.957 7.29924 201.146 7.48871 201.146 7.71875L201.146 7.71875ZM207.911 9.90892 207.343 9.90892C207.114 9.90892 206.938 9.73305 206.938 9.50309L206.938 5.22834C206.938 4.70077 206.518 4.26787 205.977 4.26787L205.706 4.26787C205.179 4.26787 204.732 4.70077 204.732 5.22834L204.732 9.50309C204.732 9.73306 204.555 9.90892 204.326 9.90892L203.759 9.90892C203.528 9.90892 203.353 9.73305 203.353 9.50309L203.353 0.684689C203.353 0.454719 203.542 0.278859 203.759 0.278859L204.326 0.278859C204.555 0.278859 204.732 0.45473 204.732 0.684689L204.732 3.0924C205.029 2.95727 205.354 2.88972 205.706 2.88972L205.977 2.88972C207.262 2.88972 208.316 3.94358 208.316 5.22832L208.316 9.50307C208.316 9.73305 208.141 9.90891 207.911 9.90891L207.911 9.90891ZM215.918 8.93628 215.918 9.50307C215.918 9.73305 215.743 9.90891 215.513 9.90891L215.229 9.90891C214.877 9.90891 214.567 9.7601 214.337 9.53079 213.865 9.85502 213.295 10.0577 212.74 10.0577L212.469 10.0577C211.32 10.0577 210.414 9.23356 210.414 8.12476L210.414 7.84055C210.414 6.48725 211.495 6.06773 212.402 5.79706 212.632 5.72939 213.986 5.52643 213.986 5.02571 213.986 4.55203 213.647 4.26786 213.039 4.26786L212.889 4.26786C212.361 4.26786 211.928 4.68737 211.928 5.22868 211.928 5.47228 211.752 5.63468 211.523 5.63468L210.956 5.63468C210.725 5.63468 210.55 5.47228 210.55 5.22868 210.55 3.93005 211.591 2.88972 212.889 2.88972L213.039 2.88972C214.242 2.88972 215.364 3.71387 215.364 5.09338L215.364 8.39539C215.364 8.46307 215.431 8.53069 215.513 8.53069 215.729 8.53069 215.918 8.7066 215.918 8.93628L215.918 8.93628ZM213.986 7.70388 213.986 6.51431C213.363 6.82559 212.916 6.85262 212.402 7.06916 211.995 7.2451 211.793 7.55633 211.793 7.84055L211.793 8.05705C211.793 8.31419 211.995 8.6796 212.484 8.6796L212.74 8.6796C213.418 8.6796 213.986 8.28712 213.986 7.70388L213.986 7.70388ZM223.833 3.30884C223.833 3.53902 223.656 3.71474 223.427 3.71474L222.86 3.71474C222.629 3.71474 222.454 3.53902 222.454 3.30884L222.454 2.46946C222.454 1.86023 222.088 1.50821 221.615 1.50821L221.1 1.50821C220.64 1.50821 220.261 1.86023 220.261 2.46946L220.261 3.57963 221.507 3.57963C221.724 3.57963 221.913 3.75528 221.913 3.98499L221.913 4.55243C221.913 4.78211 221.724 4.95779 221.507 4.95779L220.261 4.95779 220.261 8.53076 222.333 8.53076C222.562 8.53076 222.738 8.70641 222.738 8.93609L222.738 9.50353C222.738 9.73325 222.562 9.90889 222.333 9.90889L218.031 9.90889C217.801 9.90889 217.638 9.73325 217.638 9.50353L217.638 8.93609C217.638 8.70641 217.801 8.53076 218.031 8.53076L218.883 8.53076 218.883 4.95779 218.179 4.95779C217.95 4.95779 217.774 4.78211 217.774 4.55243L217.774 3.98499C217.774 3.75528 217.95 3.57963 218.179 3.57963L218.883 3.57963 218.883 2.46946C218.883 1.26503 219.707 0.130066 221.087 0.130066L221.628 0.130066C223.008 0.130066 223.833 1.26503 223.833 2.46946L223.833 3.30884 223.833 3.30884ZM230.975 7.42096 230.975 7.7187C230.975 9.01736 229.921 10.0577 228.636 10.0577 227.337 10.0577 226.296 9.01736 226.296 7.7187L226.296 4.67365 225.593 4.67365C225.363 4.67365 225.187 4.48454 225.187 4.25482L225.187 3.71441C225.187 3.4847 225.363 3.29555 225.593 3.29555L226.296 3.29555 226.296 0.684689C226.296 0.454719 226.444 0.278859 226.688 0.278859L227.269 0.278859C227.498 0.278859 227.675 0.45473 227.675 0.684689L227.675 3.29555 230.003 3.29555C230.232 3.29555 230.421 3.47119 230.421 3.70087L230.421 4.26835C230.421 4.49803 230.232 4.67364 230.003 4.67364L227.675 4.67364 227.675 7.71869C227.675 8.24647 228.095 8.67958 228.636 8.67958 229.164 8.67958 229.597 8.24647 229.597 7.71869L229.597 7.42095C229.597 7.19087 229.772 7.01494 230.003 7.01494L230.57 7.01494C230.799 7.01494 230.975 7.19089 230.975 7.42095L230.975 7.42095Z" transform="matrix(1.00423 0 0 1 151 75.1983)"/></g></svg>