<svg xmlns="http://www.w3.org/2000/svg" xmlns:xlink="http://www.w3.org/1999/xlink" version="1.1" width="101.69145250320435" height="120.35980272293091" viewBox="0.397601842880249 0.12278616428375244 101.69145250320435 120.35980272293091">
  
  <g id="ID0.9544714530929923">
    <path id="ID0.8586977859959006" fill="#FF9400" stroke="none" stroke-linecap="round" d="M 86.25 1.5 C 89.721 1.494 93.54 2.946 96.25 5.25 C 98.556 7.212 100.771 10.423 100.5 13.5 C 100.25 16.292 96.861 18.188 94.75 20.25 C 93.067 21.907 91.485 25.7 89 25.25 C 85.831 24.648 84.583 20.296 82 18.25 C 80.109 16.75 75.501 17.345 75.5 15 C 75.624 11.077 79.9 8.44 82.25 5.5 C 83.426 4.029 84.36 1.503 86.25 1.5 Z" stroke-width="1"/>
    <path id="ID0.9701001369394362" fill="#B5B5B5" stroke="none" stroke-linecap="round" d="M 78.75 11.75 C 82.13 11.33 85.667 13.17 88.369 15.248 C 90.513 16.896 93.354 19.745 92.75 22.5 C 91.76 26.994 87.681 30.741 84 33.75 C 83.095 34.496 82.26 32.369 81.25 31.75 C 79.885 30.62 78.513 29.467 76.881 28.502 C 74.221 26.927 70.127 26.77 68.75 24 C 67.695 21.867 69.81 19.394 71.25 17.75 C 73.259 15.169 75.673 12.129 78.75 11.75 Z" stroke-width="1"/>
    <path id="ID0.8783496841788292" fill="#FFFFCC" stroke="none" stroke-linecap="round" d="M 9.5 94.5 C 12.718 92.255 17.414 87.839 20.5 90.25 C 24.907 93.617 26.269 101.118 24.75 106.5 C 23.666 110.342 17.776 110.636 14.25 112.75 C 12.03 113.884 9.751 114.915 7.5 116.25 C 5.989 117.143 4.755 118.304 3 119 C 2.505 119.195 1.178 120.097 1.5 118.5 C 2.792 112.131 4.929 105.895 7 99.75 C 7.595 97.982 7.923 95.628 9.5 94.5 Z" stroke-width="1"/>
    <path id="ID0.3507009046152234" fill="#FFFF00" stroke="#000000" stroke-width="2" stroke-linecap="round" d="M 9.5 94 C 8.158 96.061 11.644 94.776 12.75 95.25 C 13.523 95.574 14.721 95.304 15.25 96 C 15.801 96.822 15.349 97.758 15.25 98.5 C 15.186 100.095 14.058 101.86 14.75 103 C 15.307 103.908 16.918 103.337 18 103.25 C 19.026 103.168 19.985 102.324 21 102.5 C 22.069 102.686 22.902 103.572 23.75 104.25 C 24.577 104.912 24.95 106.535 26 106.5 C 27.079 106.451 26.933 105.52 28.25 103.75 C 33.715 97.18 39.021 90.487 44.5 83.75 C 57.528 67.731 70.9 51.85 83.75 35.75 C 86.95 31.6 86.15 33.05 86 31.5 C 85.7 28.95 84.15 26.55 82.5 24.75 C 80.8 22.85 78.6 21.45 76.25 20.75 C 74.15 20.1 71.9 20 70 20.75 C 68.6 21.25 70.24 20.098 67 24 C 54.088 39.614 41.258 55.203 28.5 70.75 C 22.111 78.513 14.847 85.707 9.5 94 Z"/>
    <path id="ID0.26528497599065304" fill="none" stroke="#000000" stroke-width="2" stroke-linecap="round" d="M 70.75 34.75 L 16.5 102.5"/>
    <path id="ID0.8384811817668378" fill="none" stroke="#000000" stroke-width="2" stroke-linecap="round" d="M 8.5 95.5 C 8.5 95.5 7.454 98.487 7 100 C 6.704 100.986 6.536 102.011 6.25 103 C 5.62 105.175 4.932 107.34 4.25 109.5 C 3.933 110.504 3.553 111.491 3.25 112.5 C 2.803 113.99 2.393 115.495 2 117 C 1.893 117.411 1.75 118.25 1.75 118.25"/>
    <path id="ID0.8209637436084449" fill="none" stroke="#000000" stroke-width="2" stroke-linecap="round" d="M 26.25 106.5 C 26.25 106.5 24.756 107.347 24 107.75 C 22.259 108.679 20.533 109.653 18.75 110.5 C 17.2 111.236 15.535 111.732 14 112.5 C 11.866 113.567 9.829 114.831 7.75 116 C 7.165 116.329 6.565 116.637 6 117 C 5.398 117.387 4.852 117.863 4.25 118.25 C 3.685 118.613 3.113 118.977 2.5 119.25 C 2.347 119.318 2 119.25 2 119.25"/>
    <path id="ID0.03616796713322401" fill="none" stroke="#000000" stroke-width="2" stroke-linecap="round" d="M 1.75 118.5 L 2.05 118.8"/>
    <path id="ID0.21085595898330212" fill="none" stroke="#000000" stroke-width="2" stroke-linecap="round" d="M 70 20 C 70 20 73.879 14.797 76 12.25 C 76.463 11.682 76.631 11.26 77.25 11.25 C 79.273 11.213 81.389 11.368 83.25 12.25 C 85.83 13.477 88.215 15.395 90 17.75 C 91.478 19.43 91.816 21.87 92.75 24 C 92.984 24.532 93.216 23.932 93 24.25 C 92.185 25.484 91.197 26.532 90.25 27.75 C 88.866 29.446 86 33 86 33"/>
    <path id="ID0.21085595898330212" fill="none" stroke="#000000" stroke-width="2.1052632331848145" stroke-linecap="round" d="M 77.5079 10.9947 C 77.5079 10.9947 81.6342 5.2453 83.9816 2.7316 C 84.5111 2.0758 84.9205 1.3074 85.7184 1.2579 C 87.4984 1.0895 89.369 1.1242 91.0342 1.8895 C 93.7279 3.1284 96.3868 4.719 98.4026 6.8895 C 99.8795 8.4947 100.5711 10.6421 100.9816 12.7316 C 101.2247 13.4253 100.6016 14.119 100.2447 14.7316 C 99.4742 16.0547 98.6637 17.3558 97.7184 18.4684 C 96.0805 20.5358 92.5079 24.2579 92.5079 24.2579"/>
    <path id="ID0.41866302071139216" fill="none" stroke="#000000" stroke-width="2" stroke-linecap="round" d="M 89 26.75 C 89 26.75 88.364 25.069 88 24.25 C 87.698 23.57 87.44 22.85 87 22.25 C 86.513 21.585 85.854 21.061 85.25 20.5 C 84.688 19.978 84.104 19.474 83.5 19 C 82.937 18.558 82.382 18.087 81.75 17.75 C 81.122 17.415 80.416 17.25 79.75 17 C 79.583 16.938 79.75 17 79.75 17"/>
    <path id="ID0.1270556254312396" fill="#000000" stroke="none" stroke-linecap="round" d="M 6.75 110.5 C 7.393 110.555 8.035 110.846 8.517 111.269 C 9.05 111.738 9.403 112.368 9.7 113 C 9.898 113.423 10.06 113.99 9.85 114.5 C 9.784 114.782 9.515 114.702 9 115 C 6.935 116.195 4.037 119.166 2.75 118.5 C 1.57 117.834 2.722 114.645 3 112.75 C 3.113 112.052 3.129 111.13 3.75 110.75 C 4.599 110.248 5.789 110.413 6.75 110.5 Z" stroke-width="1"/>
  </g>
</svg>