<svg class="typst-doc" viewBox="0 0 238.11023622047244 238.11023622047244" width="238.11023622047244pt" height="238.11023622047244pt" xmlns="http://www.w3.org/2000/svg" xmlns:xlink="http://www.w3.org/1999/xlink" xmlns:h5="http://www.w3.org/1999/xhtml">
    <g>
        <g class="typst-group" transform="matrix(1 0 0 1 5.669291338582677 5.669291338582677)">
            <g>
                <path class="typst-shape" fill="none" stroke="#aaaaaa" stroke-width="7" stroke-linecap="butt" stroke-linejoin="miter" stroke-miterlimit="4" transform="matrix(1 0 0 1 0 170.07874015748033)" d="M 0 0m 28.346457 0 c -15.641121 0 -28.346457 12.705336 -28.346457 28.346457 c 0 15.641123 12.705336 28.346457 28.346457 28.346457 c 15.641123 0 28.346457 -12.705334 28.346457 -28.346457 c 0 -15.641121 -12.705334 -28.346457 -28.346457 -28.346457 Z "/>
                <path class="typst-shape" fill="none" stroke="#aaaaaa" stroke-width="7" stroke-linecap="butt" stroke-linejoin="miter" stroke-miterlimit="4" transform="matrix(1 0 0 1 0 85.03937007874016)" d="M 0 0m 28.346457 0 c -15.641121 0 -28.346457 12.705336 -28.346457 28.346457 c 0 15.641123 12.705336 28.346457 28.346457 28.346457 c 15.641123 0 28.346457 -12.705334 28.346457 -28.346457 c 0 -15.641121 -12.705334 -28.346457 -28.346457 -28.346457 Z "/>
                <path class="typst-shape" fill="none" stroke="#aaaaaa" stroke-width="7" stroke-linecap="butt" stroke-linejoin="miter" stroke-miterlimit="4" d="M 0 0m 28.346457 0 c -15.641121 0 -28.346457 12.705336 -28.346457 28.346457 c 0 15.641123 12.705336 28.346457 28.346457 28.346457 c 15.641123 0 28.346457 -12.705334 28.346457 -28.346457 c 0 -15.641121 -12.705334 -28.346457 -28.346457 -28.346457 Z "/>
                <path class="typst-shape" fill="none" stroke="#aaaaaa" stroke-width="7" stroke-linecap="butt" stroke-linejoin="miter" stroke-miterlimit="4" transform="matrix(1 0 0 1 85.03937007874016 170.07874015748033)" d="M 0 0m 28.346457 0 c -15.641121 0 -28.346457 12.705336 -28.346457 28.346457 c 0 15.641123 12.705336 28.346457 28.346457 28.346457 c 15.641123 0 28.346457 -12.705334 28.346457 -28.346457 c 0 -15.641121 -12.705334 -28.346457 -28.346457 -28.346457 Z "/>
                <path class="typst-shape" fill="none" stroke="#aaaaaa" stroke-width="7" stroke-linecap="butt" stroke-linejoin="miter" stroke-miterlimit="4" transform="matrix(1 0 0 1 85.03937007874016 85.03937007874016)" d="M 0 0m 28.346457 0 c -15.641121 0 -28.346457 12.705336 -28.346457 28.346457 c 0 15.641123 12.705336 28.346457 28.346457 28.346457 c 15.641123 0 28.346457 -12.705334 28.346457 -28.346457 c 0 -15.641121 -12.705334 -28.346457 -28.346457 -28.346457 Z "/>
                <path class="typst-shape" fill="none" stroke="#aaaaaa" stroke-width="7" stroke-linecap="butt" stroke-linejoin="miter" stroke-miterlimit="4" transform="matrix(1 0 0 1 85.03937007874016 0)" d="M 0 0m 28.346457 0 c -15.641121 0 -28.346457 12.705336 -28.346457 28.346457 c 0 15.641123 12.705336 28.346457 28.346457 28.346457 c 15.641123 0 28.346457 -12.705334 28.346457 -28.346457 c 0 -15.641121 -12.705334 -28.346457 -28.346457 -28.346457 Z "/>
                <path class="typst-shape" fill="none" stroke="#aaaaaa" stroke-width="7" stroke-linecap="butt" stroke-linejoin="miter" stroke-miterlimit="4" transform="matrix(1 0 0 1 170.07874015748033 170.07874015748033)" d="M 0 0m 28.346457 0 c -15.641121 0 -28.346457 12.705336 -28.346457 28.346457 c 0 15.641123 12.705336 28.346457 28.346457 28.346457 c 15.641123 0 28.346457 -12.705334 28.346457 -28.346457 c 0 -15.641121 -12.705334 -28.346457 -28.346457 -28.346457 Z "/>
                <path class="typst-shape" fill="none" stroke="#aaaaaa" stroke-width="7" stroke-linecap="butt" stroke-linejoin="miter" stroke-miterlimit="4" transform="matrix(1 0 0 1 170.07874015748033 85.03937007874016)" d="M 0 0m 28.346457 0 c -15.641121 0 -28.346457 12.705336 -28.346457 28.346457 c 0 15.641123 12.705336 28.346457 28.346457 28.346457 c 15.641123 0 28.346457 -12.705334 28.346457 -28.346457 c 0 -15.641121 -12.705334 -28.346457 -28.346457 -28.346457 Z "/>
                <path class="typst-shape" fill="none" stroke="#aaaaaa" stroke-width="7" stroke-linecap="butt" stroke-linejoin="miter" stroke-miterlimit="4" transform="matrix(1 0 0 1 170.07874015748033 0)" d="M 0 0m 28.346457 0 c -15.641121 0 -28.346457 12.705336 -28.346457 28.346457 c 0 15.641123 12.705336 28.346457 28.346457 28.346457 c 15.641123 0 28.346457 -12.705334 28.346457 -28.346457 c 0 -15.641121 -12.705334 -28.346457 -28.346457 -28.346457 Z "/>
            </g>
        </g>
    </g>
</svg>
