<?xml version="1.0" encoding="UTF-8"?>
<svg width="227" height="59" viewBox="0 0 227 59" xmlns="http://www.w3.org/2000/svg">
  <title>Hochschule Karlsruhe</title>
  <desc>Hochschule Karlsruhe - University of Applied Sciences</desc>
  <g transform="translate(0,0)">
    <path fill="rgb(215, 35, 5)" fill-rule="evenodd" d="M74.79 0c.431 0 .791.37.791.814v57.67c0 .443-.36.814-.791.814h-8.205c-.398 0-.735-.316-.785-.714l-.006-.1V.813c0-.444.36-.814.791-.814h8.205zM34.942 0c.439 0 .804.37.804.815v24.297h24.928c.438 0 .804.37.767.852v7.481l-.006.101c-.05.398-.393.714-.798.714H35.71v24.223c0 .444-.366.815-.804.815h-8.334c-.438 0-.804-.37-.804-.815V34.186H.841c-.475.037-.841-.37-.841-.815v-7.445c0-.444.402-.814.84-.814h24.965V.815c0-.445.365-.815.804-.815z"/>
  </g>
  <g transform="translate(70,-74.109)">
    <path fill="rgb(215, 35, 5)" fill-rule="evenodd" d="M74.602 74.109c.398-.258.833-.11.833.444v9.57c0 .518-.29.96-.688 1.257l-31.02 18.069 32.25 19.067c.471.258.725.739.688 1.22v9.496c0 .147-.036.258-.108.37-.181.258-.543.295-.797.11l-40.358-24.425v23.427l-.007.101c-.05.397-.389.712-.79.712h-8.252c-.435 0-.797-.37-.797-.813v-57.57c0-.443.362-.813.797-.813h8.252l.1.007c.388.056.697.434.697.843v22.356z"/>
  </g>
  <g transform="translate(140,-145.796)">
    <path fill="rgb(215, 35, 5)" fill-rule="evenodd" d="M57.072 145.796c.474 0 .912.296 1.094.74l28.782 57.666c.037.11.073.221.037.37-.037.332-.328.554-.657.517H76.041c-.474-.037-.912-.296-1.167-.74l-8.537-17.273h-29L28.69 204.35c-.256.443-.694.702-1.204.74h-9.923c-.11 0-.255 0-.365-.075-.328-.148-.437-.555-.255-.85l29.549-57.63c.255-.443.693-.74 1.203-.74zm-5.364 11.088l-10.039 20.73H61.71l-10.002-20.73z"/>
  </g>
</svg>
