<svg viewBox="0 0 278.219460917 280.279460917" width="278.219460917pt" height="280.279460917pt" xmlns="http://www.w3.org/2000/svg" xmlns:xlink="http://www.w3.org/1999/xlink" xmlns:h5="http://www.w3.org/1999/xhtml"><path fill="#ffffff" fill-rule="nonzero" d="M 0 0v 280.279460917h 278.219460917v -280.279460917Z "/><g transform="translate(14.173228346 14.173228346)"><path fill="none" stroke="#c8c8c8" stroke-width="0.5" stroke-linecap="butt" stroke-linejoin="miter" stroke-miterlimit="4" transform="translate(15.736614173 7.364736507)" d="M 0 0m 0 226.771653543v -226.771653543"/><path fill="none" stroke="#c8c8c8" stroke-width="0.5" stroke-linecap="butt" stroke-linejoin="miter" stroke-miterlimit="4" transform="translate(44.083070866 7.364736507)" d="M 0 0m 0 226.771653543v -226.771653543"/><path fill="none" stroke="#c8c8c8" stroke-width="0.5" stroke-linecap="butt" stroke-linejoin="miter" stroke-miterlimit="4" transform="translate(72.429527559 7.364736507)" d="M 0 0m 0 226.771653543v -226.771653543"/><path fill="none" stroke="#c8c8c8" stroke-width="0.5" stroke-linecap="butt" stroke-linejoin="miter" stroke-miterlimit="4" transform="translate(100.775984252 7.364736507)" d="M 0 0m 0 226.771653543v -226.771653543"/><path fill="none" stroke="#c8c8c8" stroke-width="0.5" stroke-linecap="butt" stroke-linejoin="miter" stroke-miterlimit="4" transform="translate(129.122440945 7.364736507)" d="M 0 0m 0 226.771653543v -226.771653543"/><path fill="none" stroke="#c8c8c8" stroke-width="0.5" stroke-linecap="butt" stroke-linejoin="miter" stroke-miterlimit="4" transform="translate(157.468897638 7.364736507)" d="M 0 0m 0 226.771653543v -226.771653543"/><path fill="none" stroke="#c8c8c8" stroke-width="0.5" stroke-linecap="butt" stroke-linejoin="miter" stroke-miterlimit="4" transform="translate(185.815354331 7.364736507)" d="M 0 0m 0 226.771653543v -226.771653543"/><path fill="none" stroke="#c8c8c8" stroke-width="0.5" stroke-linecap="butt" stroke-linejoin="miter" stroke-miterlimit="4" transform="translate(214.161811024 7.364736507)" d="M 0 0m 0 226.771653543v -226.771653543"/><path fill="none" stroke="#c8c8c8" stroke-width="0.5" stroke-linecap="butt" stroke-linejoin="miter" stroke-miterlimit="4" transform="translate(242.508267717 7.364736507)" d="M 0 0m 0 226.771653543v -226.771653543"/><path fill="none" stroke="#c8c8c8" stroke-width="0.5" stroke-linecap="butt" stroke-linejoin="miter" stroke-miterlimit="4" transform="translate(15.736614173 234.136390051)" d="M 0 0h 226.771653543"/><path fill="none" stroke="#c8c8c8" stroke-width="0.5" stroke-linecap="butt" stroke-linejoin="miter" stroke-miterlimit="4" transform="translate(15.736614173 205.789933358)" d="M 0 0h 226.771653543"/><path fill="none" stroke="#c8c8c8" stroke-width="0.5" stroke-linecap="butt" stroke-linejoin="miter" stroke-miterlimit="4" transform="translate(15.736614173 177.443476665)" d="M 0 0h 226.771653543"/><path fill="none" stroke="#c8c8c8" stroke-width="0.5" stroke-linecap="butt" stroke-linejoin="miter" stroke-miterlimit="4" transform="translate(15.736614173 149.097019972)" d="M 0 0h 226.771653543"/><path fill="none" stroke="#c8c8c8" stroke-width="0.5" stroke-linecap="butt" stroke-linejoin="miter" stroke-miterlimit="4" transform="translate(15.736614173 120.750563279)" d="M 0 0h 226.771653543"/><path fill="none" stroke="#c8c8c8" stroke-width="0.5" stroke-linecap="butt" stroke-linejoin="miter" stroke-miterlimit="4" transform="translate(15.736614173 92.404106586)" d="M 0 0h 226.771653543"/><path fill="none" stroke="#c8c8c8" stroke-width="0.5" stroke-linecap="butt" stroke-linejoin="miter" stroke-miterlimit="4" transform="translate(15.736614173 64.057649893)" d="M 0 0h 226.771653543"/><path fill="none" stroke="#c8c8c8" stroke-width="0.5" stroke-linecap="butt" stroke-linejoin="miter" stroke-miterlimit="4" transform="translate(15.736614173 35.7111932)" d="M 0 0h 226.771653543"/><path fill="none" stroke="#c8c8c8" stroke-width="0.5" stroke-linecap="butt" stroke-linejoin="miter" stroke-miterlimit="4" transform="translate(15.736614173 7.364736507)" d="M 0 0h 226.771653543"/><path fill="none" stroke="#000000" stroke-width="0.8" stroke-linecap="butt" stroke-linejoin="miter" stroke-miterlimit="4" transform="translate(15.736614173 234.136390051)" d="M 0 0h 231.797807375"/><path fill="#000000" fill-rule="nonzero" stroke="#000000" stroke-width="0.8" stroke-linecap="butt" stroke-linejoin="miter" stroke-miterlimit="4" stroke-dashoffset="0" stroke-dasharray="" transform="translate(246.754893988 232.967098712)" d="M 0 0m 3.118110236 1.169291339l -3.118110236 -1.169291339l 0.779527559 1.169291339l -0.779527559 1.169291339l 3.118110236 -1.169291339Z "/><path fill="none" stroke="#000000" stroke-width="0.8" stroke-linecap="butt" stroke-linejoin="miter" stroke-miterlimit="4" transform="translate(15.736614173 2.338582676)" d="M 0 0m 0 231.797807375v -231.797807375"/><path fill="#000000" fill-rule="nonzero" stroke="#000000" stroke-width="0.8" stroke-linecap="butt" stroke-linejoin="miter" stroke-miterlimit="4" stroke-dashoffset="0" stroke-dasharray="" transform="translate(14.567322835)" d="M 0 0m 1.169291339 0l -1.169291339 3.118110236l 1.169291339 -0.779527559l 1.169291339 0.779527559l -1.169291339 -3.118110236Z "/><path fill="none" stroke="#000000" stroke-width="0.6" stroke-linecap="butt" stroke-linejoin="miter" stroke-miterlimit="4" transform="translate(15.736614173 231.301744381)" d="M 0 0m 0 5.669291339v -5.669291339"/><path fill="none" stroke="#000000" stroke-width="0.6" stroke-linecap="butt" stroke-linejoin="miter" stroke-miterlimit="4" transform="translate(44.083070866 231.301744381)" d="M 0 0m 0 5.669291339v -5.669291339"/><path fill="none" transform="translate(39.758070866 241.223004224)" d="M 0 0h 8.65v 10.6h -8.65v -10.6Z "/><g transform="translate(39.758070835 241.223004145)"><g transform="matrix(1 0 0 -1 2 8.58)"><use xlink:href="#g90E80DFA2ED72D656149A2EAA0923C99" x="0" y="0" fill="#000000" fill-rule="nonzero"/></g></g><path fill="none" stroke="#000000" stroke-width="0.6" stroke-linecap="butt" stroke-linejoin="miter" stroke-miterlimit="4" transform="translate(72.429527559 231.301744381)" d="M 0 0m 0 5.669291339v -5.669291339"/><path fill="none" transform="translate(68.104527559 241.223004224)" d="M 0 0h 8.65v 10.6h -8.65v -10.6Z "/><g transform="translate(68.104527528 241.223004145)"><g transform="matrix(1 0 0 -1 2 8.58)"><use xlink:href="#gD51D1BA75A4578B9DA0C9BBB90D056B7" x="0" y="0" fill="#000000" fill-rule="nonzero"/></g></g><path fill="none" stroke="#000000" stroke-width="0.6" stroke-linecap="butt" stroke-linejoin="miter" stroke-miterlimit="4" transform="translate(100.775984252 231.301744381)" d="M 0 0m 0 5.669291339v -5.669291339"/><path fill="none" transform="translate(96.450984252 241.223004224)" d="M 0 0h 8.65v 10.68h -8.65v -10.68Z "/><g transform="translate(96.45098422 241.223004177)"><g transform="matrix(1 0 0 -1 2 8.58)"><use xlink:href="#gEC79FC52D225D04391F52749EE46159D" x="0" y="0" fill="#000000" fill-rule="nonzero"/></g></g><path fill="none" stroke="#000000" stroke-width="0.6" stroke-linecap="butt" stroke-linejoin="miter" stroke-miterlimit="4" transform="translate(129.122440945 231.301744381)" d="M 0 0m 0 5.669291339v -5.669291339"/><path fill="none" transform="translate(124.797440945 241.223004224)" d="M 0 0h 8.65v 10.6h -8.65v -10.6Z "/><g transform="translate(124.797440913 241.223004145)"><g transform="matrix(1 0 0 -1 2 8.58)"><use xlink:href="#g9FDA399337BA5CEE43DE6885B462BE24" x="0" y="0" fill="#000000" fill-rule="nonzero"/></g></g><path fill="none" stroke="#000000" stroke-width="0.6" stroke-linecap="butt" stroke-linejoin="miter" stroke-miterlimit="4" transform="translate(157.468897638 231.301744381)" d="M 0 0m 0 5.669291339v -5.669291339"/><path fill="none" transform="translate(153.143897638 241.223004224)" d="M 0 0h 8.65v 10.69h -8.65v -10.69Z "/><g transform="translate(153.143897606 241.223004145)"><g transform="matrix(1 0 0 -1 2 8.58)"><use xlink:href="#g53E88946A301F5C1DCEA2C720F6596D3" x="0" y="0" fill="#000000" fill-rule="nonzero"/></g></g><path fill="none" stroke="#000000" stroke-width="0.6" stroke-linecap="butt" stroke-linejoin="miter" stroke-miterlimit="4" transform="translate(185.815354331 231.301744381)" d="M 0 0m 0 5.669291339v -5.669291339"/><path fill="none" transform="translate(181.490354331 241.223004224)" d="M 0 0h 8.65v 10.69h -8.65v -10.69Z "/><g transform="translate(181.490354299 241.223004145)"><g transform="matrix(1 0 0 -1 2 8.58)"><use xlink:href="#g9CDE2E24D779DEC8C09236644F4BDC06" x="0" y="0" fill="#000000" fill-rule="nonzero"/></g></g><path fill="none" stroke="#000000" stroke-width="0.6" stroke-linecap="butt" stroke-linejoin="miter" stroke-miterlimit="4" transform="translate(214.161811024 231.301744381)" d="M 0 0m 0 5.669291339v -5.669291339"/><path fill="none" transform="translate(209.836811024 241.223004224)" d="M 0 0h 8.65v 10.71h -8.65v -10.71Z "/><g transform="translate(209.836810992 241.223004224)"><g transform="matrix(1 0 0 -1 2 8.58)"><use xlink:href="#gB053ABF9EF71983F202CCECD8EE25F6D" x="0" y="0" fill="#000000" fill-rule="nonzero"/></g></g><path fill="none" stroke="#000000" stroke-width="0.6" stroke-linecap="butt" stroke-linejoin="miter" stroke-miterlimit="4" transform="translate(242.508267717 231.301744381)" d="M 0 0m 0 5.669291339v -5.669291339"/><path fill="none" transform="translate(238.183267717 241.223004224)" d="M 0 0h 8.65v 10.68h -8.65v -10.68Z "/><g transform="translate(238.183267685 241.223004177)"><g transform="matrix(1 0 0 -1 2 8.58)"><use xlink:href="#g570774105255CD33C8B695C543E4AB5D" x="0" y="0" fill="#000000" fill-rule="nonzero"/></g></g><path fill="none" stroke="#000000" stroke-width="0.6" stroke-linecap="butt" stroke-linejoin="miter" stroke-miterlimit="4" transform="translate(12.901968504 234.136390051)" d="M 0 0h 5.669291339"/><path fill="none" stroke="#000000" stroke-width="0.6" stroke-linecap="butt" stroke-linejoin="miter" stroke-miterlimit="4" transform="translate(12.901968504 205.789933358)" d="M 0 0h 5.669291339"/><path fill="none" transform="translate(0 200.489933358)" d="M 0 0h 8.65v 10.6h -8.65v -10.6Z "/><g transform="translate(-3.1e-8 200.489933279)"><g transform="matrix(1 0 0 -1 2 8.58)"><use xlink:href="#g90E80DFA2ED72D656149A2EAA0923C99" x="0" y="0" fill="#000000" fill-rule="nonzero"/></g></g><path fill="none" stroke="#000000" stroke-width="0.6" stroke-linecap="butt" stroke-linejoin="miter" stroke-miterlimit="4" transform="translate(12.901968504 177.443476665)" d="M 0 0h 5.669291339"/><path fill="none" transform="translate(0 172.143476665)" d="M 0 0h 8.65v 10.6h -8.65v -10.6Z "/><g transform="translate(-3.1e-8 172.143476586)"><g transform="matrix(1 0 0 -1 2 8.58)"><use xlink:href="#gD51D1BA75A4578B9DA0C9BBB90D056B7" x="0" y="0" fill="#000000" fill-rule="nonzero"/></g></g><path fill="none" stroke="#000000" stroke-width="0.6" stroke-linecap="butt" stroke-linejoin="miter" stroke-miterlimit="4" transform="translate(12.901968504 149.097019972)" d="M 0 0h 5.669291339"/><path fill="none" transform="translate(0 143.757019972)" d="M 0 0h 8.65v 10.68h -8.65v -10.68Z "/><g transform="translate(-3.1e-8 143.757019925)"><g transform="matrix(1 0 0 -1 2 8.58)"><use xlink:href="#gEC79FC52D225D04391F52749EE46159D" x="0" y="0" fill="#000000" fill-rule="nonzero"/></g></g><path fill="none" stroke="#000000" stroke-width="0.6" stroke-linecap="butt" stroke-linejoin="miter" stroke-miterlimit="4" transform="translate(12.901968504 120.750563279)" d="M 0 0h 5.669291339"/><path fill="none" transform="translate(0 115.450563279)" d="M 0 0h 8.65v 10.6h -8.65v -10.6Z "/><g transform="translate(-3.1e-8 115.4505632)"><g transform="matrix(1 0 0 -1 2 8.58)"><use xlink:href="#g9FDA399337BA5CEE43DE6885B462BE24" x="0" y="0" fill="#000000" fill-rule="nonzero"/></g></g><path fill="none" stroke="#000000" stroke-width="0.6" stroke-linecap="butt" stroke-linejoin="miter" stroke-miterlimit="4" transform="translate(12.901968504 92.404106586)" d="M 0 0h 5.669291339"/><path fill="none" transform="translate(0 87.059106586)" d="M 0 0h 8.65v 10.69h -8.65v -10.69Z "/><g transform="translate(-3.1e-8 87.059106507)"><g transform="matrix(1 0 0 -1 2 8.58)"><use xlink:href="#g53E88946A301F5C1DCEA2C720F6596D3" x="0" y="0" fill="#000000" fill-rule="nonzero"/></g></g><path fill="none" stroke="#000000" stroke-width="0.6" stroke-linecap="butt" stroke-linejoin="miter" stroke-miterlimit="4" transform="translate(12.901968504 64.057649893)" d="M 0 0h 5.669291339"/><path fill="none" transform="translate(0 58.712649893)" d="M 0 0h 8.65v 10.69h -8.65v -10.69Z "/><g transform="translate(-3.1e-8 58.712649814)"><g transform="matrix(1 0 0 -1 2 8.58)"><use xlink:href="#g9CDE2E24D779DEC8C09236644F4BDC06" x="0" y="0" fill="#000000" fill-rule="nonzero"/></g></g><path fill="none" stroke="#000000" stroke-width="0.6" stroke-linecap="butt" stroke-linejoin="miter" stroke-miterlimit="4" transform="translate(12.901968504 35.7111932)" d="M 0 0h 5.669291339"/><path fill="none" transform="translate(0 30.3561932)" d="M 0 0h 8.65v 10.71h -8.65v -10.71Z "/><g transform="translate(-3.1e-8 30.3561932)"><g transform="matrix(1 0 0 -1 2 8.58)"><use xlink:href="#gB053ABF9EF71983F202CCECD8EE25F6D" x="0" y="0" fill="#000000" fill-rule="nonzero"/></g></g><path fill="none" stroke="#000000" stroke-width="0.6" stroke-linecap="butt" stroke-linejoin="miter" stroke-miterlimit="4" transform="translate(12.901968504 7.364736507)" d="M 0 0h 5.669291339"/><path fill="none" transform="translate(0 2.024736507)" d="M 0 0h 8.65v 10.68h -8.65v -10.68Z "/><g transform="translate(-3.1e-8 2.02473646)"><g transform="matrix(1 0 0 -1 2 8.58)"><use xlink:href="#g570774105255CD33C8B695C543E4AB5D" x="0" y="0" fill="#000000" fill-rule="nonzero"/></g></g><path fill="none" stroke="#000000" stroke-width="0.6" stroke-linecap="butt" stroke-linejoin="miter" stroke-miterlimit="4" transform="translate(13.119603231 234.637489344)" d="M 0 0m 2.115911649 0l -2.115911649 2.115911649"/><path fill="none" transform="translate(3.968503937 237.254500287)" d="M 0 0h 8.65v 10.68h -8.65v -10.68Z "/><g transform="translate(3.968503906 237.25450024)"><g transform="matrix(1 0 0 -1 2 8.58)"><use xlink:href="#g6DFAD7171EBFBAC7EAFD0C61FA59A787" x="0" y="0" fill="#000000" fill-rule="nonzero"/></g></g><path fill="none" transform="translate(238.87488189 219.928673515)" d="M 0 0h 10.72v 11.94h -10.72v -11.94Z "/><g transform="translate(238.874881858 219.928673468)"><g transform="translate(2 2)"><path fill="#ffffff" fill-rule="nonzero" d="M 0 0v 7.83h 6.72v -7.83Z "/><g transform="matrix(1 0 0 -1 0.5 7.33)"><use xlink:href="#g8F3B43BF00419FE170D741E9CC615A47" x="0" y="0" fill="#000000" fill-rule="nonzero"/></g></g></g><path fill="none" transform="translate(18.004330709 0.278122334)" d="M 0 0h 10.18v 13.88h -10.18v -13.88Z "/><g transform="translate(18.004330677 0.278122271)"><g transform="translate(2 2)"><path fill="#ffffff" fill-rule="nonzero" d="M 0 0v 7.83h 6.18v -7.83Z "/><g transform="matrix(1 0 0 -1 0.5 7.33)"><use xlink:href="#gF318040A2BA9CD3C6D4E0BBBF71596E3" x="0" y="0" fill="#000000" fill-rule="nonzero"/></g></g></g><path fill="none" stroke="#0074d9" stroke-width="1" stroke-linecap="butt" stroke-linejoin="miter" stroke-miterlimit="4" transform="translate(41.248425197 32.876547531)" d="M 0 0m 2.834645669 0c -1.564112126 0 -2.834645669 1.270533543 -2.834645669 2.834645669c 0 1.564112126 1.270533543 2.834645669 2.834645669 2.834645669c 1.564112126 0 2.834645669 -1.270533543 2.834645669 -2.834645669c 0 -1.564112126 -1.270533543 -2.834645669 -2.834645669 -2.834645669Z "/><path fill="#0074d9" fill-rule="nonzero" stroke="#0074d9" stroke-width="0.8" stroke-linecap="butt" stroke-linejoin="miter" stroke-miterlimit="4" transform="translate(69.59488189 32.876547531)" d="M 0 0m 2.834645669 0c -1.564112126 0 -2.834645669 1.270533543 -2.834645669 2.834645669c 0 1.564112126 1.270533543 2.834645669 2.834645669 2.834645669c 1.564112126 0 2.834645669 -1.270533543 2.834645669 -2.834645669c 0 -1.564112126 -1.270533543 -2.834645669 -2.834645669 -2.834645669Z "/><path fill="none" stroke="#ff4136" stroke-width="1" stroke-linecap="butt" stroke-linejoin="miter" stroke-miterlimit="4" transform="translate(97.941338583 32.876547531)" d="M 0 0v 5.669291339h 5.669291339v -5.669291339h -5.669291339Z "/><path fill="#ff4136" fill-rule="nonzero" stroke="#0074d9" stroke-width="0.8" stroke-linecap="butt" stroke-linejoin="miter" stroke-miterlimit="4" transform="translate(126.287795276 32.876547531)" d="M 0 0v 5.669291339h 5.669291339v -5.669291339h -5.669291339Z "/><path fill="none" stroke="#2ecc40" stroke-width="1" stroke-linecap="butt" stroke-linejoin="miter" stroke-miterlimit="4" transform="translate(154.634251969 33.256390051)" d="M 0 0m 2.834645669 0l -2.834645669 4.909606299h 5.669291339l -2.834645669 -4.909606299Z "/><path fill="#2ecc40" fill-rule="nonzero" stroke="#0074d9" stroke-width="0.8" stroke-linecap="butt" stroke-linejoin="miter" stroke-miterlimit="4" transform="translate(182.980708661 33.256390051)" d="M 0 0m 2.834645669 0l -2.834645669 4.909606299h 5.669291339l -2.834645669 -4.909606299Z "/><path fill="none" stroke="#b10dc9" stroke-width="1" stroke-linecap="butt" stroke-linejoin="miter" stroke-miterlimit="4" transform="translate(41.248425197 89.569460917)" d="M 0 0m 2.834645669 0l -2.834645669 2.834645669l 2.834645669 2.834645669l 2.834645669 -2.834645669l -2.834645669 -2.834645669Z "/><path fill="#b10dc9" fill-rule="nonzero" stroke="#0074d9" stroke-width="0.8" stroke-linecap="butt" stroke-linejoin="miter" stroke-miterlimit="4" transform="translate(69.59488189 89.569460917)" d="M 0 0m 2.834645669 0l -2.834645669 2.834645669l 2.834645669 2.834645669l 2.834645669 -2.834645669l -2.834645669 -2.834645669Z "/><path fill="none" stroke="#ff851b" stroke-width="1" stroke-linecap="butt" stroke-linejoin="miter" stroke-miterlimit="4" transform="translate(98.080076017 89.569460917)" d="M 0 0m 2.695908235 0l -0.666465168 1.917335061l -2.029443067 0.041356923l 1.617544941 1.226335159l -0.587799626 1.942895046l 1.66616292 -1.159418252l 1.66616292 1.159418252l -0.587799626 -1.942895046l 1.617544941 -1.226335159l -2.029443067 -0.041356923l -0.666465168 -1.917335061Z "/><path fill="#ff851b" fill-rule="nonzero" stroke="#0074d9" stroke-width="0.8" stroke-linecap="butt" stroke-linejoin="miter" stroke-miterlimit="4" transform="translate(126.42653271 89.569460917)" d="M 0 0m 2.695908235 0l -0.666465168 1.917335061l -2.029443067 0.041356923l 1.617544941 1.226335159l -0.587799626 1.942895046l 1.66616292 -1.159418252l 1.66616292 1.159418252l -0.587799626 -1.942895046l 1.617544941 -1.226335159l -2.029443067 -0.041356923l -0.666465168 -1.917335061Z "/><path fill="none" stroke="#000000" stroke-width="1.5" stroke-linecap="butt" stroke-linejoin="miter" stroke-miterlimit="4" transform="translate(154.634251969 92.404106586)" d="M 0 0h 5.669291339"/><path fill="none" stroke="#000000" stroke-width="1.5" stroke-linecap="butt" stroke-linejoin="miter" stroke-miterlimit="4" transform="translate(157.468897638 89.569460917)" d="M 0 0m 0 5.669291339v -5.669291339"/><path fill="none" stroke="#000000" stroke-width="1.5" stroke-linecap="butt" stroke-linejoin="miter" stroke-miterlimit="4" transform="translate(182.980708661 89.569460917)" d="M 0 0m 0 5.669291339l 5.669291339 -5.669291339"/><path fill="none" stroke="#000000" stroke-width="1.5" stroke-linecap="butt" stroke-linejoin="miter" stroke-miterlimit="4" transform="translate(182.980708661 89.569460917)" d="M 0 0l 5.669291339 5.669291339"/></g><defs><symbol id="g90E80DFA2ED72D656149A2EAA0923C99" overflow="visible"><path d="M 0 0m 2.88 1.22v 3.47c 0 0.6 0.01 1.21 0.03 1.34c 0 0.05 -0.02 0.05 -0.06 0.05c -0.55 -0.34 -1.08 -0.59 -1.96 -1c 0.02 -0.11 0.06 -0.21 0.15 -0.27c 0.46 0.19 0.68 0.25 0.87 0.25c 0.17 0 0.2 -0.24 0.2 -0.58v -3.26c 0 -0.83 -0.27 -0.88 -0.97 -0.91c -0.06 -0.06 -0.06 -0.27 0 -0.33c 0.49 0.01 0.85 0.02 1.39 0.02c 0.48 0 0.72 -0.01 1.22 -0.02c 0.06 0.06 0.06 0.27 0 0.33c -0.7 0.03 -0.87 0.08 -0.87 0.91Z "/></symbol><symbol id="gD51D1BA75A4578B9DA0C9BBB90D056B7" overflow="visible"><path d="M 0 0m 0.61 4.68c 0 -0.21 0.19 -0.39 0.4 -0.39c 0.17 0 0.47 0.18 0.47 0.4c 0 0.08 -0.02 0.14 -0.04 0.21c -0.02 0.07 -0.08 0.16 -0.08 0.24c 0 0.25 0.26 0.61 0.99 0.61c 0.36 0 0.87 -0.25 0.87 -1.21c 0 -0.64 -0.23 -1.16 -0.82 -1.76l -0.74 -0.73c -0.98 -1 -1.14 -1.48 -1.14 -2.07c 0 0 0.51 0.02 0.83 0.02h 1.75c 0.32 0 0.78 -0.02 0.78 -0.02c 0.13 0.53 0.23 1.28 0.24 1.58c -0.06 0.05 -0.19 0.07 -0.29 0.05c -0.17 -0.71 -0.34 -0.96 -0.7 -0.96h -1.78c 0 0.48 0.69 1.16 0.74 1.21l 1.01 0.97c 0.57 0.55 1 0.99 1 1.75c 0 1.08 -0.88 1.52 -1.69 1.52c -1.11 0 -1.8 -0.82 -1.8 -1.42Z "/></symbol><symbol id="gEC79FC52D225D04391F52749EE46159D" overflow="visible"><path d="M 0 0m 2.15 5.75c 0.43 0 0.83 -0.26 0.83 -0.9c 0 -0.5 -0.58 -1.27 -1.57 -1.41l 0.05 -0.32c 0.17 0.02 0.35 0.02 0.48 0.02c 0.57 0 1.31 -0.16 1.31 -1.29c 0 -1.33 -0.89 -1.6 -1.24 -1.6c -0.51 0 -0.6 0.23 -0.72 0.41c -0.1 0.14 -0.23 0.26 -0.43 0.26c -0.21 0 -0.42 -0.19 -0.42 -0.35c 0 -0.4 0.84 -0.67 1.44 -0.67c 1.19 0 2.25 0.77 2.25 2.09c 0 1.09 -0.82 1.48 -1.41 1.58l -0.01 0.02c 0.82 0.39 1.05 0.8 1.05 1.33c 0 0.3 -0.07 0.54 -0.31 0.79c -0.22 0.22 -0.57 0.39 -1.09 0.39c -1.47 0 -1.89 -0.96 -1.89 -1.29c 0 -0.14 0.1 -0.34 0.34 -0.34c 0.35 0 0.39 0.33 0.39 0.52c 0 0.64 0.69 0.76 0.95 0.76Z "/></symbol><symbol id="g9FDA399337BA5CEE43DE6885B462BE24" overflow="visible"><path d="M 0 0m 4.3 2.19h -0.83v 2.92c 0 0.5 0 0.89 0.02 0.97l -0.02 0.02h -0.32c -0.07 0 -0.12 -0.06 -0.16 -0.11c -0.63 -0.77 -1.79 -2.42 -2.71 -3.85c 0.03 -0.15 0.09 -0.42 0.39 -0.42h 2.04v -0.92c 0 -0.46 -0.38 -0.46 -0.81 -0.49c -0.06 -0.06 -0.06 -0.27 0 -0.33c 0.32 0.01 0.72 0.02 1.18 0.02c 0.39 0 0.77 -0.01 1.09 -0.02c 0.06 0.06 0.06 0.27 0 0.33c -0.49 0.04 -0.7 0.02 -0.7 0.49v 0.92h 0.69c 0.14 0 0.29 0.19 0.29 0.31c 0 0.1 -0.04 0.16 -0.15 0.16Z m -1.59 2.88v -2.88h -1.91c 0.51 0.82 1.22 1.94 1.91 2.88Z "/></symbol><symbol id="g53E88946A301F5C1DCEA2C720F6596D3" overflow="visible"><path d="M 0 0m 3.19 1.89c 0 -0.95 -0.5 -1.65 -1.1 -1.65c -0.38 0 -0.51 0.25 -0.66 0.45c -0.13 0.17 -0.3 0.32 -0.51 0.32c -0.19 0 -0.38 -0.17 -0.38 -0.37c 0 -0.41 0.85 -0.75 1.42 -0.75c 1.24 0 2.12 0.92 2.12 2.18c 0 0.97 -0.67 1.84 -1.79 1.84c -0.43 0 -0.8 -0.09 -0.98 -0.16l 0.2 1.67c 0.37 -0.04 0.69 -0.09 1.17 -0.09c 0.3 0 0.64 0.02 1.05 0.06l 0.16 0.68l -0.07 0.04c -0.57 -0.06 -1.11 -0.11 -1.64 -0.11c -0.37 0 -0.73 0.02 -1.08 0.05l -0.34 -2.88c 0.53 0.2 0.91 0.24 1.27 0.24c 0.65 0 1.16 -0.43 1.16 -1.52Z "/></symbol><symbol id="g9CDE2E24D779DEC8C09236644F4BDC06" overflow="visible"><path d="M 0 0m 1.44 3.43c 0.27 0.91 0.91 1.92 2.24 2.42c 0 0.12 -0.04 0.21 -0.12 0.26c -1.01 -0.3 -1.63 -0.72 -2.19 -1.37c -0.62 -0.72 -0.93 -1.63 -0.93 -2.42c 0 -2.03 1.15 -2.43 1.92 -2.43c 1.31 0 1.85 1.27 1.85 2.13c 0 0.86 -0.46 1.63 -1.82 1.63c -0.26 0 -0.65 -0.08 -0.95 -0.22Z m -0.09 -0.36c 0.33 0.22 0.66 0.23 0.83 0.23c 0.98 0 1.2 -0.96 1.2 -1.46c 0 -1.1 -0.42 -1.6 -0.91 -1.6c -0.63 0 -1.2 0.34 -1.2 2.05c 0 0.23 0.02 0.49 0.08 0.78Z "/></symbol><symbol id="gB053ABF9EF71983F202CCECD8EE25F6D" overflow="visible"><path d="M 0 0m 1.7 5.35h 1.79c -0.78 -1.94 -1.57 -3.89 -2.25 -5.41l 0.08 -0.07l 0.68 0.03c 0.57 1.7 1.12 3.36 2.24 6.09l -0.16 0.12c -0.17 -0.05 -0.39 -0.11 -0.77 -0.11h -2.06c -0.34 0 -0.32 0.1 -0.5 0.14c -0.03 0 -0.04 0 -0.04 -0.03c -0.01 -0.48 -0.12 -1.08 -0.2 -1.6c 0.11 -0.03 0.21 -0.04 0.32 -0.03c 0.22 0.8 0.55 0.87 0.87 0.87Z "/></symbol><symbol id="g570774105255CD33C8B695C543E4AB5D" overflow="visible"><path d="M 0 0m 3.93 4.85c 0 0.72 -0.56 1.25 -1.54 1.25c -1.02 0 -1.68 -0.61 -1.68 -1.38c 0 -0.56 0.27 -0.97 0.88 -1.35l 0.26 -0.16c -0.29 -0.15 -0.56 -0.33 -0.81 -0.55c -0.41 -0.36 -0.58 -0.81 -0.58 -1.2c 0 -1.02 0.72 -1.56 1.78 -1.56c 1.31 0 1.95 0.96 1.95 1.72c 0 0.58 -0.25 1.09 -0.78 1.41l -0.71 0.43c 0.47 0.23 1.23 0.75 1.23 1.39Z m -1.67 -4.6c -0.45 0 -1.13 0.31 -1.13 1.21c 0 0.3 0.13 1 0.99 1.57l 0.47 -0.28c 0.62 -0.38 0.87 -0.85 0.87 -1.33c 0 -1 -0.75 -1.17 -1.2 -1.17Z m 0.08 5.5c 0.65 0 0.89 -0.43 0.89 -0.89c 0 -0.54 -0.53 -0.99 -0.8 -1.19l -0.31 0.19c -0.63 0.41 -0.7 0.74 -0.7 1.05c 0 0.46 0.32 0.84 0.92 0.84Z "/></symbol><symbol id="g6DFAD7171EBFBAC7EAFD0C61FA59A787" overflow="visible"><path d="M 0 0m 2.28 -0.1c 0.77 0 1.94 0.78 1.94 3.13c 0 0.99 -0.24 1.84 -0.68 2.42c -0.26 0.35 -0.68 0.65 -1.22 0.65c -0.99 0 -1.93 -1.18 -1.93 -3.16c 0 -1.07 0.33 -2.07 0.88 -2.62c 0.28 -0.28 0.62 -0.42 1.01 -0.42Z m 0.04 5.85c 0.17 0 0.33 -0.06 0.45 -0.17c 0.31 -0.26 0.58 -1.02 0.58 -2.36c 0 -0.92 -0.03 -1.55 -0.17 -2.06c -0.22 -0.82 -0.71 -0.91 -0.89 -0.91c -0.93 0 -1.03 1.71 -1.03 2.58c 0 2.46 0.61 2.92 1.06 2.92Z "/></symbol><symbol id="g8F3B43BF00419FE170D741E9CC615A47" overflow="visible"><path d="M 0 0m 5.27 3.73c 0 0.46 -0.45 0.69 -0.95 0.69c -0.43 0 -0.77 -0.23 -1.03 -0.69c -0.21 0.46 -0.56 0.69 -1.07 0.69c -0.49 0 -0.89 -0.23 -1.21 -0.68c -0.27 -0.39 -0.41 -0.68 -0.41 -0.87c 0 -0.09 0.05 -0.14 0.15 -0.14c 0.09 0 0.15 0.05 0.17 0.14c 0.19 0.58 0.61 1.26 1.28 1.26c 0.33 0 0.49 -0.21 0.49 -0.62c 0 -0.21 -0.18 -0.99 -0.53 -2.33c -0.17 -0.67 -0.47 -1 -0.9 -1c -0.14 0 -0.27 0.03 -0.38 0.08c 0.26 0.1 0.39 0.28 0.39 0.54c 0 0.26 -0.13 0.39 -0.4 0.39c -0.33 0 -0.58 -0.28 -0.58 -0.61c 0 -0.46 0.47 -0.69 0.96 -0.69c 0.42 0 0.76 0.23 1.03 0.69c 0.19 -0.46 0.55 -0.69 1.07 -0.69c 0.48 0 0.88 0.23 1.2 0.68c 0.27 0.39 0.41 0.68 0.41 0.87c 0 0.09 -0.05 0.14 -0.15 0.14c -0.09 0 -0.14 -0.05 -0.17 -0.14c -0.17 -0.57 -0.62 -1.26 -1.27 -1.26c -0.33 0 -0.5 0.2 -0.5 0.61c 0 0.13 0.05 0.41 0.16 0.86l 0.34 1.35c 0.19 0.75 0.5 1.13 0.94 1.13c 0.14 0 0.27 -0.03 0.38 -0.08c -0.27 -0.09 -0.4 -0.27 -0.4 -0.54c 0 -0.26 0.14 -0.39 0.41 -0.39c 0.32 0 0.57 0.29 0.57 0.61Z "/></symbol><symbol id="gF318040A2BA9CD3C6D4E0BBBF71596E3" overflow="visible"><path d="M 0 0m 1.63 4.42c -0.45 0 -0.8 -0.25 -1.05 -0.75c -0.19 -0.39 -0.29 -0.66 -0.29 -0.81c 0 -0.09 0.05 -0.14 0.16 -0.14c 0.14 0 0.15 0.06 0.19 0.21c 0.23 0.79 0.55 1.19 0.96 1.19c 0.13 0 0.2 -0.09 0.2 -0.27c 0 -0.16 -0.05 -0.39 -0.16 -0.68c -0.38 -1.03 -0.57 -1.72 -0.57 -2.09c 0 -0.76 0.47 -1.21 1.24 -1.21c 0.33 0 0.64 0.12 0.92 0.36c -0.35 -1.32 -0.9 -1.98 -1.65 -1.98c -0.34 0 -0.57 0.11 -0.69 0.33c 0.4 0.02 0.6 0.21 0.6 0.57c 0 0.25 -0.13 0.38 -0.4 0.38c -0.37 0 -0.59 -0.31 -0.59 -0.68c 0 -0.55 0.5 -0.9 1.08 -0.9c 1.15 0 2.09 1.06 2.34 2.04l 0.94 3.78c 0.03 0.11 0.04 0.19 0.04 0.24c 0 0.2 -0.11 0.3 -0.32 0.3c -0.16 0 -0.29 -0.08 -0.38 -0.23c -0.06 -0.21 -0.11 -0.39 -0.14 -0.54l -0.64 -2.57c -0.1 -0.36 -0.63 -0.81 -1.08 -0.81c -0.38 0 -0.57 0.25 -0.57 0.76c 0 0.42 0.17 1.06 0.5 1.92c 0.13 0.35 0.2 0.59 0.2 0.73c 0 0.49 -0.35 0.85 -0.84 0.85Z "/></symbol></defs></svg>