<svg viewBox="0 0 212.864933358 206.548673515" width="212.864933358pt" height="206.548673515pt" xmlns="http://www.w3.org/2000/svg" xmlns:xlink="http://www.w3.org/1999/xlink" xmlns:h5="http://www.w3.org/1999/xhtml"><path fill="#ffffff" fill-rule="nonzero" d="M 0 0v 206.548673515h 212.864933358v -206.548673515Z "/><g transform="translate(14.173228346 14.173228346)"><path fill="none" stroke="#c8c8c8" stroke-width="0.5" stroke-linecap="butt" stroke-linejoin="miter" stroke-miterlimit="4" transform="translate(7.075 176.02615383)" d="M 0 0m 0 1.417322835v -1.417322835"/><path fill="none" stroke="#c8c8c8" stroke-width="0.5" stroke-linecap="butt" stroke-linejoin="miter" stroke-miterlimit="4" transform="translate(7.075 7.364736507)" d="M 0 0m 0 158.74015748v -158.74015748"/><path fill="none" stroke="#c8c8c8" stroke-width="0.5" stroke-linecap="butt" stroke-linejoin="miter" stroke-miterlimit="4" transform="translate(35.421456693 176.02615383)" d="M 0 0m 0 1.417322835v -1.417322835"/><path fill="none" stroke="#c8c8c8" stroke-width="0.5" stroke-linecap="butt" stroke-linejoin="miter" stroke-miterlimit="4" transform="translate(35.421456693 7.364736507)" d="M 0 0m 0 158.74015748v -158.74015748"/><path fill="none" stroke="#c8c8c8" stroke-width="0.5" stroke-linecap="butt" stroke-linejoin="miter" stroke-miterlimit="4" transform="translate(63.767913386 176.02615383)" d="M 0 0m 0 1.417322835v -1.417322835"/><path fill="none" stroke="#c8c8c8" stroke-width="0.5" stroke-linecap="butt" stroke-linejoin="miter" stroke-miterlimit="4" transform="translate(63.767913386 7.364736507)" d="M 0 0m 0 158.74015748v -158.74015748"/><path fill="none" stroke="#c8c8c8" stroke-width="0.5" stroke-linecap="butt" stroke-linejoin="miter" stroke-miterlimit="4" transform="translate(92.114370079 7.364736507)" d="M 0 0m 0 170.078740157v -170.078740157"/><path fill="none" stroke="#c8c8c8" stroke-width="0.5" stroke-linecap="butt" stroke-linejoin="miter" stroke-miterlimit="4" transform="translate(120.460826772 176.02615383)" d="M 0 0m 0 1.417322835v -1.417322835"/><path fill="none" stroke="#c8c8c8" stroke-width="0.5" stroke-linecap="butt" stroke-linejoin="miter" stroke-miterlimit="4" transform="translate(120.460826772 7.364736507)" d="M 0 0m 0 158.74015748v -158.74015748"/><path fill="none" stroke="#c8c8c8" stroke-width="0.5" stroke-linecap="butt" stroke-linejoin="miter" stroke-miterlimit="4" transform="translate(148.807283465 176.02615383)" d="M 0 0m 0 1.417322835v -1.417322835"/><path fill="none" stroke="#c8c8c8" stroke-width="0.5" stroke-linecap="butt" stroke-linejoin="miter" stroke-miterlimit="4" transform="translate(148.807283465 7.364736507)" d="M 0 0m 0 158.74015748v -158.74015748"/><path fill="none" stroke="#c8c8c8" stroke-width="0.5" stroke-linecap="butt" stroke-linejoin="miter" stroke-miterlimit="4" transform="translate(177.153740157 176.02615383)" d="M 0 0m 0 1.417322835v -1.417322835"/><path fill="none" stroke="#c8c8c8" stroke-width="0.5" stroke-linecap="butt" stroke-linejoin="miter" stroke-miterlimit="4" transform="translate(177.153740157 7.364736507)" d="M 0 0m 0 158.74015748v -158.74015748"/><path fill="none" stroke="#c8c8c8" stroke-width="0.5" stroke-linecap="butt" stroke-linejoin="miter" stroke-miterlimit="4" transform="translate(7.075 177.443476665)" d="M 0 0h 58.677165354"/><path fill="none" stroke="#c8c8c8" stroke-width="0.5" stroke-linecap="butt" stroke-linejoin="miter" stroke-miterlimit="4" transform="translate(87.012007874 177.443476665)" d="M 0 0h 90.141732283"/><path fill="none" stroke="#c8c8c8" stroke-width="0.5" stroke-linecap="butt" stroke-linejoin="miter" stroke-miterlimit="4" transform="translate(7.075 160.435602649)" d="M 0 0h 170.078740157"/><path fill="none" stroke="#c8c8c8" stroke-width="0.5" stroke-linecap="butt" stroke-linejoin="miter" stroke-miterlimit="4" transform="translate(7.075 143.427728633)" d="M 0 0h 71.149606299"/><path fill="none" stroke="#c8c8c8" stroke-width="0.5" stroke-linecap="butt" stroke-linejoin="miter" stroke-miterlimit="4" transform="translate(87.012007874 143.427728633)" d="M 0 0h 90.141732283"/><path fill="none" stroke="#c8c8c8" stroke-width="0.5" stroke-linecap="butt" stroke-linejoin="miter" stroke-miterlimit="4" transform="translate(7.075 126.419854618)" d="M 0 0h 71.149606299"/><path fill="none" stroke="#c8c8c8" stroke-width="0.5" stroke-linecap="butt" stroke-linejoin="miter" stroke-miterlimit="4" transform="translate(87.012007874 126.419854618)" d="M 0 0h 90.141732283"/><path fill="none" stroke="#c8c8c8" stroke-width="0.5" stroke-linecap="butt" stroke-linejoin="miter" stroke-miterlimit="4" transform="translate(7.075 109.411980602)" d="M 0 0h 71.149606299"/><path fill="none" stroke="#c8c8c8" stroke-width="0.5" stroke-linecap="butt" stroke-linejoin="miter" stroke-miterlimit="4" transform="translate(87.012007874 109.411980602)" d="M 0 0h 90.141732283"/><path fill="none" stroke="#c8c8c8" stroke-width="0.5" stroke-linecap="butt" stroke-linejoin="miter" stroke-miterlimit="4" transform="translate(7.075 92.404106586)" d="M 0 0h 71.149606299"/><path fill="none" stroke="#c8c8c8" stroke-width="0.5" stroke-linecap="butt" stroke-linejoin="miter" stroke-miterlimit="4" transform="translate(87.012007874 92.404106586)" d="M 0 0h 90.141732283"/><path fill="none" stroke="#c8c8c8" stroke-width="0.5" stroke-linecap="butt" stroke-linejoin="miter" stroke-miterlimit="4" transform="translate(7.075 75.39623257)" d="M 0 0h 71.149606299"/><path fill="none" stroke="#c8c8c8" stroke-width="0.5" stroke-linecap="butt" stroke-linejoin="miter" stroke-miterlimit="4" transform="translate(87.012007874 75.39623257)" d="M 0 0h 90.141732283"/><path fill="none" stroke="#c8c8c8" stroke-width="0.5" stroke-linecap="butt" stroke-linejoin="miter" stroke-miterlimit="4" transform="translate(7.075 58.388358555)" d="M 0 0h 71.149606299"/><path fill="none" stroke="#c8c8c8" stroke-width="0.5" stroke-linecap="butt" stroke-linejoin="miter" stroke-miterlimit="4" transform="translate(87.012007874 58.388358555)" d="M 0 0h 90.141732283"/><path fill="none" stroke="#c8c8c8" stroke-width="0.5" stroke-linecap="butt" stroke-linejoin="miter" stroke-miterlimit="4" transform="translate(7.075 41.380484539)" d="M 0 0h 71.149606299"/><path fill="none" stroke="#c8c8c8" stroke-width="0.5" stroke-linecap="butt" stroke-linejoin="miter" stroke-miterlimit="4" transform="translate(87.012007874 41.380484539)" d="M 0 0h 90.141732283"/><path fill="none" stroke="#c8c8c8" stroke-width="0.5" stroke-linecap="butt" stroke-linejoin="miter" stroke-miterlimit="4" transform="translate(7.075 24.372610523)" d="M 0 0h 71.149606299"/><path fill="none" stroke="#c8c8c8" stroke-width="0.5" stroke-linecap="butt" stroke-linejoin="miter" stroke-miterlimit="4" transform="translate(87.012007874 24.372610523)" d="M 0 0h 90.141732283"/><path fill="none" stroke="#c8c8c8" stroke-width="0.5" stroke-linecap="butt" stroke-linejoin="miter" stroke-miterlimit="4" transform="translate(7.075 7.364736507)" d="M 0 0h 71.149606299"/><path fill="none" stroke="#c8c8c8" stroke-width="0.5" stroke-linecap="butt" stroke-linejoin="miter" stroke-miterlimit="4" transform="translate(87.012007874 7.364736507)" d="M 0 0h 90.141732283"/><path fill="none" stroke="#000000" stroke-width="0.8" stroke-linecap="butt" stroke-linejoin="miter" stroke-miterlimit="4" transform="translate(7.075 160.435602649)" d="M 0 0h 175.104893989"/><path fill="#000000" fill-rule="nonzero" stroke="#000000" stroke-width="0.8" stroke-linecap="butt" stroke-linejoin="miter" stroke-miterlimit="4" stroke-dashoffset="0" stroke-dasharray="" transform="translate(181.400366429 159.266311311)" d="M 0 0m 3.118110236 1.169291339l -3.118110236 -1.169291339l 0.779527559 1.169291339l -0.779527559 1.169291339l 3.118110236 -1.169291339Z "/><path fill="none" stroke="#000000" stroke-width="0.8" stroke-linecap="butt" stroke-linejoin="miter" stroke-miterlimit="4" transform="translate(92.114370079 2.338582676)" d="M 0 0m 0 175.104893989v -175.104893989"/><path fill="#000000" fill-rule="nonzero" stroke="#000000" stroke-width="0.8" stroke-linecap="butt" stroke-linejoin="miter" stroke-miterlimit="4" stroke-dashoffset="0" stroke-dasharray="" transform="translate(90.94507874)" d="M 0 0m 1.169291339 0l -1.169291339 3.118110236l 1.169291339 -0.779527559l 1.169291339 0.779527559l -1.169291339 -3.118110236Z "/><path fill="none" stroke="#000000" stroke-width="0.6" stroke-linecap="butt" stroke-linejoin="miter" stroke-miterlimit="4" transform="translate(7.075 157.60095698)" d="M 0 0m 0 5.669291339v -5.669291339"/><path fill="none" transform="translate(0 167.522216822)" d="M 0 0h 14.15v 10.68h -14.15v -10.68Z "/><g transform="translate(-6.3e-8 167.522216775)"><g transform="matrix(1 0 0 -1 2 8.58)"><use xlink:href="#g769096BA7538C9DB0AE1F13573F95E13" x="0" y="0" fill="#000000" fill-rule="nonzero"/><use xlink:href="#gEC79FC52D225D04391F52749EE46159D" x="5.5" y="0" fill="#000000" fill-rule="nonzero"/></g></g><path fill="none" stroke="#000000" stroke-width="0.6" stroke-linecap="butt" stroke-linejoin="miter" stroke-miterlimit="4" transform="translate(35.421456693 157.60095698)" d="M 0 0m 0 5.669291339v -5.669291339"/><path fill="none" transform="translate(28.346456693 167.522216822)" d="M 0 0h 14.15v 10.6h -14.15v -10.6Z "/><g transform="translate(28.34645663 167.522216744)"><g transform="matrix(1 0 0 -1 2 8.58)"><use xlink:href="#g769096BA7538C9DB0AE1F13573F95E13" x="0" y="0" fill="#000000" fill-rule="nonzero"/><use xlink:href="#gD51D1BA75A4578B9DA0C9BBB90D056B7" x="5.5" y="0" fill="#000000" fill-rule="nonzero"/></g></g><path fill="none" stroke="#000000" stroke-width="0.6" stroke-linecap="butt" stroke-linejoin="miter" stroke-miterlimit="4" transform="translate(63.767913386 157.60095698)" d="M 0 0m 0 5.669291339v -5.669291339"/><path fill="none" transform="translate(56.692913386 167.522216822)" d="M 0 0h 14.15v 10.6h -14.15v -10.6Z "/><g transform="translate(56.692913323 167.522216744)"><g transform="matrix(1 0 0 -1 2 8.58)"><use xlink:href="#g769096BA7538C9DB0AE1F13573F95E13" x="0" y="0" fill="#000000" fill-rule="nonzero"/><use xlink:href="#g90E80DFA2ED72D656149A2EAA0923C99" x="5.5" y="0" fill="#000000" fill-rule="nonzero"/></g></g><path fill="none" stroke="#000000" stroke-width="0.6" stroke-linecap="butt" stroke-linejoin="miter" stroke-miterlimit="4" transform="translate(92.114370079 157.60095698)" d="M 0 0m 0 5.669291339v -5.669291339"/><path fill="none" stroke="#000000" stroke-width="0.6" stroke-linecap="butt" stroke-linejoin="miter" stroke-miterlimit="4" transform="translate(120.460826772 157.60095698)" d="M 0 0m 0 5.669291339v -5.669291339"/><path fill="none" transform="translate(116.135826772 167.522216822)" d="M 0 0h 8.65v 10.6h -8.65v -10.6Z "/><g transform="translate(116.13582674 167.522216744)"><g transform="matrix(1 0 0 -1 2 8.58)"><use xlink:href="#g90E80DFA2ED72D656149A2EAA0923C99" x="0" y="0" fill="#000000" fill-rule="nonzero"/></g></g><path fill="none" stroke="#000000" stroke-width="0.6" stroke-linecap="butt" stroke-linejoin="miter" stroke-miterlimit="4" transform="translate(148.807283465 157.60095698)" d="M 0 0m 0 5.669291339v -5.669291339"/><path fill="none" transform="translate(144.482283465 167.522216822)" d="M 0 0h 8.65v 10.6h -8.65v -10.6Z "/><g transform="translate(144.482283433 167.522216744)"><g transform="matrix(1 0 0 -1 2 8.58)"><use xlink:href="#gD51D1BA75A4578B9DA0C9BBB90D056B7" x="0" y="0" fill="#000000" fill-rule="nonzero"/></g></g><path fill="none" stroke="#000000" stroke-width="0.6" stroke-linecap="butt" stroke-linejoin="miter" stroke-miterlimit="4" transform="translate(177.153740157 157.60095698)" d="M 0 0m 0 5.669291339v -5.669291339"/><path fill="none" transform="translate(172.828740157 167.522216822)" d="M 0 0h 8.65v 10.68h -8.65v -10.68Z "/><g transform="translate(172.828740126 167.522216775)"><g transform="matrix(1 0 0 -1 2 8.58)"><use xlink:href="#gEC79FC52D225D04391F52749EE46159D" x="0" y="0" fill="#000000" fill-rule="nonzero"/></g></g><path fill="none" stroke="#000000" stroke-width="0.6" stroke-linecap="butt" stroke-linejoin="miter" stroke-miterlimit="4" transform="translate(89.279724409 177.443476665)" d="M 0 0h 5.669291339"/><path fill="none" stroke="#000000" stroke-width="0.6" stroke-linecap="butt" stroke-linejoin="miter" stroke-miterlimit="4" transform="translate(89.279724409 160.435602649)" d="M 0 0h 5.669291339"/><path fill="none" stroke="#000000" stroke-width="0.6" stroke-linecap="butt" stroke-linejoin="miter" stroke-miterlimit="4" transform="translate(89.279724409 143.427728633)" d="M 0 0h 5.669291339"/><path fill="none" transform="translate(76.377755906 138.127728633)" d="M 0 0h 8.65v 10.6h -8.65v -10.6Z "/><g transform="translate(76.377755874 138.127728555)"><g transform="matrix(1 0 0 -1 2 8.58)"><use xlink:href="#g90E80DFA2ED72D656149A2EAA0923C99" x="0" y="0" fill="#000000" fill-rule="nonzero"/></g></g><path fill="none" stroke="#000000" stroke-width="0.6" stroke-linecap="butt" stroke-linejoin="miter" stroke-miterlimit="4" transform="translate(89.279724409 126.419854618)" d="M 0 0h 5.669291339"/><path fill="none" transform="translate(76.377755906 121.119854618)" d="M 0 0h 8.65v 10.6h -8.65v -10.6Z "/><g transform="translate(76.377755874 121.119854539)"><g transform="matrix(1 0 0 -1 2 8.58)"><use xlink:href="#gD51D1BA75A4578B9DA0C9BBB90D056B7" x="0" y="0" fill="#000000" fill-rule="nonzero"/></g></g><path fill="none" stroke="#000000" stroke-width="0.6" stroke-linecap="butt" stroke-linejoin="miter" stroke-miterlimit="4" transform="translate(89.279724409 109.411980602)" d="M 0 0h 5.669291339"/><path fill="none" transform="translate(76.377755906 104.071980602)" d="M 0 0h 8.65v 10.68h -8.65v -10.68Z "/><g transform="translate(76.377755874 104.071980555)"><g transform="matrix(1 0 0 -1 2 8.58)"><use xlink:href="#gEC79FC52D225D04391F52749EE46159D" x="0" y="0" fill="#000000" fill-rule="nonzero"/></g></g><path fill="none" stroke="#000000" stroke-width="0.6" stroke-linecap="butt" stroke-linejoin="miter" stroke-miterlimit="4" transform="translate(89.279724409 92.404106586)" d="M 0 0h 5.669291339"/><path fill="none" transform="translate(76.377755906 87.104106586)" d="M 0 0h 8.65v 10.6h -8.65v -10.6Z "/><g transform="translate(76.377755874 87.104106507)"><g transform="matrix(1 0 0 -1 2 8.58)"><use xlink:href="#g9FDA399337BA5CEE43DE6885B462BE24" x="0" y="0" fill="#000000" fill-rule="nonzero"/></g></g><path fill="none" stroke="#000000" stroke-width="0.6" stroke-linecap="butt" stroke-linejoin="miter" stroke-miterlimit="4" transform="translate(89.279724409 75.39623257)" d="M 0 0h 5.669291339"/><path fill="none" transform="translate(76.377755906 70.05123257)" d="M 0 0h 8.65v 10.69h -8.65v -10.69Z "/><g transform="translate(76.377755874 70.051232492)"><g transform="matrix(1 0 0 -1 2 8.58)"><use xlink:href="#g53E88946A301F5C1DCEA2C720F6596D3" x="0" y="0" fill="#000000" fill-rule="nonzero"/></g></g><path fill="none" stroke="#000000" stroke-width="0.6" stroke-linecap="butt" stroke-linejoin="miter" stroke-miterlimit="4" transform="translate(89.279724409 58.388358555)" d="M 0 0h 5.669291339"/><path fill="none" transform="translate(76.377755906 53.043358555)" d="M 0 0h 8.65v 10.69h -8.65v -10.69Z "/><g transform="translate(76.377755874 53.043358476)"><g transform="matrix(1 0 0 -1 2 8.58)"><use xlink:href="#g9CDE2E24D779DEC8C09236644F4BDC06" x="0" y="0" fill="#000000" fill-rule="nonzero"/></g></g><path fill="none" stroke="#000000" stroke-width="0.6" stroke-linecap="butt" stroke-linejoin="miter" stroke-miterlimit="4" transform="translate(89.279724409 41.380484539)" d="M 0 0h 5.669291339"/><path fill="none" transform="translate(76.377755906 36.025484539)" d="M 0 0h 8.65v 10.71h -8.65v -10.71Z "/><g transform="translate(76.377755874 36.025484539)"><g transform="matrix(1 0 0 -1 2 8.58)"><use xlink:href="#gB053ABF9EF71983F202CCECD8EE25F6D" x="0" y="0" fill="#000000" fill-rule="nonzero"/></g></g><path fill="none" stroke="#000000" stroke-width="0.6" stroke-linecap="butt" stroke-linejoin="miter" stroke-miterlimit="4" transform="translate(89.279724409 24.372610523)" d="M 0 0h 5.669291339"/><path fill="none" transform="translate(76.377755906 19.032610523)" d="M 0 0h 8.65v 10.68h -8.65v -10.68Z "/><g transform="translate(76.377755874 19.032610476)"><g transform="matrix(1 0 0 -1 2 8.58)"><use xlink:href="#g570774105255CD33C8B695C543E4AB5D" x="0" y="0" fill="#000000" fill-rule="nonzero"/></g></g><path fill="none" stroke="#000000" stroke-width="0.6" stroke-linecap="butt" stroke-linejoin="miter" stroke-miterlimit="4" transform="translate(89.279724409 7.364736507)" d="M 0 0h 5.669291339"/><path fill="none" transform="translate(76.377755906 2.014736507)" d="M 0 0h 8.65v 10.7h -8.65v -10.7Z "/><g transform="translate(76.377755874 2.014736397)"><g transform="matrix(1 0 0 -1 2 8.58)"><use xlink:href="#g3822A2BEAC8DE8C499593DEB879DF18A" x="0" y="0" fill="#000000" fill-rule="nonzero"/></g></g><path fill="none" stroke="#000000" stroke-width="0.6" stroke-linecap="butt" stroke-linejoin="miter" stroke-miterlimit="4" transform="translate(89.497359136 160.936701943)" d="M 0 0m 2.115911649 0l -2.115911649 2.115911649"/><path fill="none" transform="translate(80.346259843 163.553712885)" d="M 0 0h 8.65v 10.68h -8.65v -10.68Z "/><g transform="translate(80.346259811 163.553712838)"><g transform="matrix(1 0 0 -1 2 8.58)"><use xlink:href="#g6DFAD7171EBFBAC7EAFD0C61FA59A787" x="0" y="0" fill="#000000" fill-rule="nonzero"/></g></g><path fill="none" transform="translate(173.520354331 146.227886114)" d="M 0 0h 10.72v 11.94h -10.72v -11.94Z "/><g transform="translate(173.520354299 146.227886066)"><g transform="translate(2 2)"><path fill="#ffffff" fill-rule="nonzero" d="M 0 0v 7.83h 6.72v -7.83Z "/><g transform="matrix(1 0 0 -1 0.5 7.33)"><use xlink:href="#g8F3B43BF00419FE170D741E9CC615A47" x="0" y="0" fill="#000000" fill-rule="nonzero"/></g></g></g><path fill="none" transform="translate(94.382086614 0.278122334)" d="M 0 0h 10.18v 13.88h -10.18v -13.88Z "/><g transform="translate(94.382086583 0.278122271)"><g transform="translate(2 2)"><path fill="#ffffff" fill-rule="nonzero" d="M 0 0v 7.83h 6.18v -7.83Z "/><g transform="matrix(1 0 0 -1 0.5 7.33)"><use xlink:href="#gF318040A2BA9CD3C6D4E0BBBF71596E3" x="0" y="0" fill="#000000" fill-rule="nonzero"/></g></g></g><path fill="none" stroke="#0074d9" stroke-width="1.5" stroke-linecap="butt" stroke-linejoin="miter" stroke-miterlimit="4" transform="translate(7.102284108 7.364736507)" d="M 0 0l 1.475078097 5.360728819"/><path fill="none" stroke="#0074d9" stroke-width="1.5" stroke-linecap="butt" stroke-linejoin="miter" stroke-miterlimit="4" transform="translate(8.577362205 12.725465326)" d="M 0 0l 4.620472441 15.887956535"/><path fill="none" stroke="#0074d9" stroke-width="1.5" stroke-linecap="butt" stroke-linejoin="miter" stroke-miterlimit="4" transform="translate(13.197834646 28.613421862)" d="M 0 0l 4.620472441 14.984192126"/><path fill="none" stroke="#0074d9" stroke-width="1.5" stroke-linecap="butt" stroke-linejoin="miter" stroke-miterlimit="4" transform="translate(17.818307087 43.597613988)" d="M 0 0l 4.620472441 14.080427717"/><path fill="none" stroke="#0074d9" stroke-width="1.5" stroke-linecap="butt" stroke-linejoin="miter" stroke-miterlimit="4" transform="translate(22.438779528 57.678041704)" d="M 0 0l 4.620472441 13.176663307"/><path fill="none" stroke="#0074d9" stroke-width="1.5" stroke-linecap="butt" stroke-linejoin="miter" stroke-miterlimit="4" transform="translate(27.059251969 70.854705011)" d="M 0 0l 4.620472441 12.272898898"/><path fill="none" stroke="#0074d9" stroke-width="1.5" stroke-linecap="butt" stroke-linejoin="miter" stroke-miterlimit="4" transform="translate(31.679724409 83.127603909)" d="M 0 0l 4.620472441 11.369134488"/><path fill="none" stroke="#0074d9" stroke-width="1.5" stroke-linecap="butt" stroke-linejoin="miter" stroke-miterlimit="4" transform="translate(36.30019685 94.496738397)" d="M 0 0l 4.620472441 10.465370079"/><path fill="none" stroke="#0074d9" stroke-width="1.5" stroke-linecap="butt" stroke-linejoin="miter" stroke-miterlimit="4" transform="translate(40.920669291 104.962108476)" d="M 0 0l 4.620472441 9.561605669"/><path fill="none" stroke="#0074d9" stroke-width="1.5" stroke-linecap="butt" stroke-linejoin="miter" stroke-miterlimit="4" transform="translate(45.541141732 114.523714145)" d="M 0 0l 4.620472441 8.65784126"/><path fill="none" stroke="#0074d9" stroke-width="1.5" stroke-linecap="butt" stroke-linejoin="miter" stroke-miterlimit="4" transform="translate(50.161614173 123.181555405)" d="M 0 0l 4.620472441 7.75407685"/><path fill="none" stroke="#0074d9" stroke-width="1.5" stroke-linecap="butt" stroke-linejoin="miter" stroke-miterlimit="4" transform="translate(54.782086614 130.935632255)" d="M 0 0l 4.620472441 6.850312441"/><path fill="none" stroke="#0074d9" stroke-width="1.5" stroke-linecap="butt" stroke-linejoin="miter" stroke-miterlimit="4" transform="translate(59.402559055 137.785944696)" d="M 0 0l 4.620472441 5.946548031"/><path fill="none" stroke="#0074d9" stroke-width="1.5" stroke-linecap="butt" stroke-linejoin="miter" stroke-miterlimit="4" transform="translate(64.023031496 143.732492728)" d="M 0 0l 4.620472441 5.042783622"/><path fill="none" stroke="#0074d9" stroke-width="1.5" stroke-linecap="butt" stroke-linejoin="miter" stroke-miterlimit="4" transform="translate(68.643503937 148.77527635)" d="M 0 0l 4.620472441 4.139019213"/><path fill="none" stroke="#0074d9" stroke-width="1.5" stroke-linecap="butt" stroke-linejoin="miter" stroke-miterlimit="4" transform="translate(73.263976378 152.914295563)" d="M 0 0l 4.620472441 3.235254803"/><path fill="none" stroke="#0074d9" stroke-width="1.5" stroke-linecap="butt" stroke-linejoin="miter" stroke-miterlimit="4" transform="translate(77.884448819 156.149550366)" d="M 0 0l 4.620472441 2.331490394"/><path fill="none" stroke="#0074d9" stroke-width="1.5" stroke-linecap="butt" stroke-linejoin="miter" stroke-miterlimit="4" transform="translate(82.50492126 158.481040759)" d="M 0 0l 4.620472441 1.427725984"/><path fill="none" stroke="#0074d9" stroke-width="1.5" stroke-linecap="butt" stroke-linejoin="miter" stroke-miterlimit="4" transform="translate(87.125393701 159.908766744)" d="M 0 0l 4.620472441 0.523961575"/><path fill="none" stroke="#0074d9" stroke-width="1.5" stroke-linecap="butt" stroke-linejoin="miter" stroke-miterlimit="4" transform="translate(91.745866142 160.052925484)" d="M 0 0m 0 0.379802835l 4.620472441 -0.379802835"/><path fill="none" stroke="#0074d9" stroke-width="1.5" stroke-linecap="butt" stroke-linejoin="miter" stroke-miterlimit="4" transform="translate(96.366338583 158.76935824)" d="M 0 0m 0 1.283567244l 4.620472441 -1.283567244"/><path fill="none" stroke="#0074d9" stroke-width="1.5" stroke-linecap="butt" stroke-linejoin="miter" stroke-miterlimit="4" transform="translate(100.986811024 156.582026586)" d="M 0 0m 0 2.187331654l 4.620472441 -2.187331654"/><path fill="none" stroke="#0074d9" stroke-width="1.5" stroke-linecap="butt" stroke-linejoin="miter" stroke-miterlimit="4" transform="translate(105.607283465 153.490930523)" d="M 0 0m 0 3.091096063l 4.620472441 -3.091096063"/><path fill="none" stroke="#0074d9" stroke-width="1.5" stroke-linecap="butt" stroke-linejoin="miter" stroke-miterlimit="4" transform="translate(110.227755906 149.496070051)" d="M 0 0m 0 3.994860472l 4.620472441 -3.994860472"/><path fill="none" stroke="#0074d9" stroke-width="1.5" stroke-linecap="butt" stroke-linejoin="miter" stroke-miterlimit="4" transform="translate(114.848228346 144.597445169)" d="M 0 0m 0 4.898624882l 4.620472441 -4.898624882"/><path fill="none" stroke="#0074d9" stroke-width="1.5" stroke-linecap="butt" stroke-linejoin="miter" stroke-miterlimit="4" transform="translate(119.468700787 138.795055877)" d="M 0 0m 0 5.802389291l 4.620472441 -5.802389291"/><path fill="none" stroke="#0074d9" stroke-width="1.5" stroke-linecap="butt" stroke-linejoin="miter" stroke-miterlimit="4" transform="translate(124.089173228 132.088902177)" d="M 0 0m 0 6.706153701l 4.620472441 -6.706153701"/><path fill="none" stroke="#0074d9" stroke-width="1.5" stroke-linecap="butt" stroke-linejoin="miter" stroke-miterlimit="4" transform="translate(128.709645669 124.478984066)" d="M 0 0m 0 7.60991811l 4.620472441 -7.60991811"/><path fill="none" stroke="#0074d9" stroke-width="1.5" stroke-linecap="butt" stroke-linejoin="miter" stroke-miterlimit="4" transform="translate(133.33011811 115.965301547)" d="M 0 0m 0 8.51368252l 4.620472441 -8.51368252"/><path fill="none" stroke="#0074d9" stroke-width="1.5" stroke-linecap="butt" stroke-linejoin="miter" stroke-miterlimit="4" transform="translate(137.950590551 106.547854618)" d="M 0 0m 0 9.417446929l 4.620472441 -9.417446929"/><path fill="none" stroke="#0074d9" stroke-width="1.5" stroke-linecap="butt" stroke-linejoin="miter" stroke-miterlimit="4" transform="translate(142.571062992 96.226643279)" d="M 0 0m 0 10.321211339l 4.620472441 -10.321211339"/><path fill="none" stroke="#0074d9" stroke-width="1.5" stroke-linecap="butt" stroke-linejoin="miter" stroke-miterlimit="4" transform="translate(147.191535433 85.001667531)" d="M 0 0m 0 11.224975748l 4.620472441 -11.224975748"/><path fill="none" stroke="#0074d9" stroke-width="1.5" stroke-linecap="butt" stroke-linejoin="miter" stroke-miterlimit="4" transform="translate(151.812007874 72.872927374)" d="M 0 0m 0 12.128740157l 4.620472441 -12.128740157"/><path fill="none" stroke="#0074d9" stroke-width="1.5" stroke-linecap="butt" stroke-linejoin="miter" stroke-miterlimit="4" transform="translate(156.432480315 59.840422807)" d="M 0 0m 0 13.032504567l 4.620472441 -13.032504567"/><path fill="none" stroke="#0074d9" stroke-width="1.5" stroke-linecap="butt" stroke-linejoin="miter" stroke-miterlimit="4" transform="translate(161.052952756 45.90415383)" d="M 0 0m 0 13.936268976l 4.620472441 -13.936268976"/><path fill="none" stroke="#0074d9" stroke-width="1.5" stroke-linecap="butt" stroke-linejoin="miter" stroke-miterlimit="4" transform="translate(165.673425197 31.064120444)" d="M 0 0m 0 14.840033386l 4.620472441 -14.840033386"/><path fill="none" stroke="#0074d9" stroke-width="1.5" stroke-linecap="butt" stroke-linejoin="miter" stroke-miterlimit="4" transform="translate(170.293897638 15.320322649)" d="M 0 0m 0 15.743797795l 4.620472441 -15.743797795"/><path fill="none" stroke="#0074d9" stroke-width="1.5" stroke-linecap="butt" stroke-linejoin="miter" stroke-miterlimit="4" transform="translate(174.914370079 7.364736507)" d="M 0 0m 0 7.955586142l 2.208045002 -7.955586142"/><path fill="none" transform="translate(134.634055118 116.350886114)" d="M 0 0h 15.2893v 11.634h -15.2893v -11.634Z "/><g transform="translate(134.634055087 116.350886066)"><g transform="matrix(1 0 0 -1 2 9.513)"><use xlink:href="#g7FDD4349A49914F62F30F23AE9794251" x="0" y="0" fill="#000000" fill-rule="nonzero"/></g><g transform="matrix(1 0 0 -1 8.292 5.52)"><use xlink:href="#g25B224D96CA3F5CCC7E774117FEA026D" x="0" y="0" fill="#000000" fill-rule="nonzero"/></g></g></g><defs><symbol id="g769096BA7538C9DB0AE1F13573F95E13" overflow="visible"><path d="M 0 0m 4.63 2.26c 0.13 0 0.27 0.23 0.27 0.33c 0 0.08 -0.04 0.17 -0.14 0.17h -3.91c -0.12 0 -0.25 -0.19 -0.25 -0.34c 0 -0.08 0.06 -0.16 0.15 -0.16Z "/></symbol><symbol id="gEC79FC52D225D04391F52749EE46159D" overflow="visible"><path d="M 0 0m 2.15 5.75c 0.43 0 0.83 -0.26 0.83 -0.9c 0 -0.5 -0.58 -1.27 -1.57 -1.41l 0.05 -0.32c 0.17 0.02 0.35 0.02 0.48 0.02c 0.57 0 1.31 -0.16 1.31 -1.29c 0 -1.33 -0.89 -1.6 -1.24 -1.6c -0.51 0 -0.6 0.23 -0.72 0.41c -0.1 0.14 -0.23 0.26 -0.43 0.26c -0.21 0 -0.42 -0.19 -0.42 -0.35c 0 -0.4 0.84 -0.67 1.44 -0.67c 1.19 0 2.25 0.77 2.25 2.09c 0 1.09 -0.82 1.48 -1.41 1.58l -0.01 0.02c 0.82 0.39 1.05 0.8 1.05 1.33c 0 0.3 -0.07 0.54 -0.31 0.79c -0.22 0.22 -0.57 0.39 -1.09 0.39c -1.47 0 -1.89 -0.96 -1.89 -1.29c 0 -0.14 0.1 -0.34 0.34 -0.34c 0.35 0 0.39 0.33 0.39 0.52c 0 0.64 0.69 0.76 0.95 0.76Z "/></symbol><symbol id="gD51D1BA75A4578B9DA0C9BBB90D056B7" overflow="visible"><path d="M 0 0m 0.61 4.68c 0 -0.21 0.19 -0.39 0.4 -0.39c 0.17 0 0.47 0.18 0.47 0.4c 0 0.08 -0.02 0.14 -0.04 0.21c -0.02 0.07 -0.08 0.16 -0.08 0.24c 0 0.25 0.26 0.61 0.99 0.61c 0.36 0 0.87 -0.25 0.87 -1.21c 0 -0.64 -0.23 -1.16 -0.82 -1.76l -0.74 -0.73c -0.98 -1 -1.14 -1.48 -1.14 -2.07c 0 0 0.51 0.02 0.83 0.02h 1.75c 0.32 0 0.78 -0.02 0.78 -0.02c 0.13 0.53 0.23 1.28 0.24 1.58c -0.06 0.05 -0.19 0.07 -0.29 0.05c -0.17 -0.71 -0.34 -0.96 -0.7 -0.96h -1.78c 0 0.48 0.69 1.16 0.74 1.21l 1.01 0.97c 0.57 0.55 1 0.99 1 1.75c 0 1.08 -0.88 1.52 -1.69 1.52c -1.11 0 -1.8 -0.82 -1.8 -1.42Z "/></symbol><symbol id="g90E80DFA2ED72D656149A2EAA0923C99" overflow="visible"><path d="M 0 0m 2.88 1.22v 3.47c 0 0.6 0.01 1.21 0.03 1.34c 0 0.05 -0.02 0.05 -0.06 0.05c -0.55 -0.34 -1.08 -0.59 -1.96 -1c 0.02 -0.11 0.06 -0.21 0.15 -0.27c 0.46 0.19 0.68 0.25 0.87 0.25c 0.17 0 0.2 -0.24 0.2 -0.58v -3.26c 0 -0.83 -0.27 -0.88 -0.97 -0.91c -0.06 -0.06 -0.06 -0.27 0 -0.33c 0.49 0.01 0.85 0.02 1.39 0.02c 0.48 0 0.72 -0.01 1.22 -0.02c 0.06 0.06 0.06 0.27 0 0.33c -0.7 0.03 -0.87 0.08 -0.87 0.91Z "/></symbol><symbol id="g9FDA399337BA5CEE43DE6885B462BE24" overflow="visible"><path d="M 0 0m 4.3 2.19h -0.83v 2.92c 0 0.5 0 0.89 0.02 0.97l -0.02 0.02h -0.32c -0.07 0 -0.12 -0.06 -0.16 -0.11c -0.63 -0.77 -1.79 -2.42 -2.71 -3.85c 0.03 -0.15 0.09 -0.42 0.39 -0.42h 2.04v -0.92c 0 -0.46 -0.38 -0.46 -0.81 -0.49c -0.06 -0.06 -0.06 -0.27 0 -0.33c 0.32 0.01 0.72 0.02 1.18 0.02c 0.39 0 0.77 -0.01 1.09 -0.02c 0.06 0.06 0.06 0.27 0 0.33c -0.49 0.04 -0.7 0.02 -0.7 0.49v 0.92h 0.69c 0.14 0 0.29 0.19 0.29 0.31c 0 0.1 -0.04 0.16 -0.15 0.16Z m -1.59 2.88v -2.88h -1.91c 0.51 0.82 1.22 1.94 1.91 2.88Z "/></symbol><symbol id="g53E88946A301F5C1DCEA2C720F6596D3" overflow="visible"><path d="M 0 0m 3.19 1.89c 0 -0.95 -0.5 -1.65 -1.1 -1.65c -0.38 0 -0.51 0.25 -0.66 0.45c -0.13 0.17 -0.3 0.32 -0.51 0.32c -0.19 0 -0.38 -0.17 -0.38 -0.37c 0 -0.41 0.85 -0.75 1.42 -0.75c 1.24 0 2.12 0.92 2.12 2.18c 0 0.97 -0.67 1.84 -1.79 1.84c -0.43 0 -0.8 -0.09 -0.98 -0.16l 0.2 1.67c 0.37 -0.04 0.69 -0.09 1.17 -0.09c 0.3 0 0.64 0.02 1.05 0.06l 0.16 0.68l -0.07 0.04c -0.57 -0.06 -1.11 -0.11 -1.64 -0.11c -0.37 0 -0.73 0.02 -1.08 0.05l -0.34 -2.88c 0.53 0.2 0.91 0.24 1.27 0.24c 0.65 0 1.16 -0.43 1.16 -1.52Z "/></symbol><symbol id="g9CDE2E24D779DEC8C09236644F4BDC06" overflow="visible"><path d="M 0 0m 1.44 3.43c 0.27 0.91 0.91 1.92 2.24 2.42c 0 0.12 -0.04 0.21 -0.12 0.26c -1.01 -0.3 -1.63 -0.72 -2.19 -1.37c -0.62 -0.72 -0.93 -1.63 -0.93 -2.42c 0 -2.03 1.15 -2.43 1.92 -2.43c 1.31 0 1.85 1.27 1.85 2.13c 0 0.86 -0.46 1.63 -1.82 1.63c -0.26 0 -0.65 -0.08 -0.95 -0.22Z m -0.09 -0.36c 0.33 0.22 0.66 0.23 0.83 0.23c 0.98 0 1.2 -0.96 1.2 -1.46c 0 -1.1 -0.42 -1.6 -0.91 -1.6c -0.63 0 -1.2 0.34 -1.2 2.05c 0 0.23 0.02 0.49 0.08 0.78Z "/></symbol><symbol id="gB053ABF9EF71983F202CCECD8EE25F6D" overflow="visible"><path d="M 0 0m 1.7 5.35h 1.79c -0.78 -1.94 -1.57 -3.89 -2.25 -5.41l 0.08 -0.07l 0.68 0.03c 0.57 1.7 1.12 3.36 2.24 6.09l -0.16 0.12c -0.17 -0.05 -0.39 -0.11 -0.77 -0.11h -2.06c -0.34 0 -0.32 0.1 -0.5 0.14c -0.03 0 -0.04 0 -0.04 -0.03c -0.01 -0.48 -0.12 -1.08 -0.2 -1.6c 0.11 -0.03 0.21 -0.04 0.32 -0.03c 0.22 0.8 0.55 0.87 0.87 0.87Z "/></symbol><symbol id="g570774105255CD33C8B695C543E4AB5D" overflow="visible"><path d="M 0 0m 3.93 4.85c 0 0.72 -0.56 1.25 -1.54 1.25c -1.02 0 -1.68 -0.61 -1.68 -1.38c 0 -0.56 0.27 -0.97 0.88 -1.35l 0.26 -0.16c -0.29 -0.15 -0.56 -0.33 -0.81 -0.55c -0.41 -0.36 -0.58 -0.81 -0.58 -1.2c 0 -1.02 0.72 -1.56 1.78 -1.56c 1.31 0 1.95 0.96 1.95 1.72c 0 0.58 -0.25 1.09 -0.78 1.41l -0.71 0.43c 0.47 0.23 1.23 0.75 1.23 1.39Z m -1.67 -4.6c -0.45 0 -1.13 0.31 -1.13 1.21c 0 0.3 0.13 1 0.99 1.57l 0.47 -0.28c 0.62 -0.38 0.87 -0.85 0.87 -1.33c 0 -1 -0.75 -1.17 -1.2 -1.17Z m 0.08 5.5c 0.65 0 0.89 -0.43 0.89 -0.89c 0 -0.54 -0.53 -0.99 -0.8 -1.19l -0.31 0.19c -0.63 0.41 -0.7 0.74 -0.7 1.05c 0 0.46 0.32 0.84 0.92 0.84Z "/></symbol><symbol id="g3822A2BEAC8DE8C499593DEB879DF18A" overflow="visible"><path d="M 0 0m 3.27 2.56c -0.27 -0.91 -0.91 -1.92 -2.24 -2.42c 0 -0.12 0.04 -0.21 0.12 -0.26c 1.01 0.3 1.63 0.72 2.19 1.37c 0.62 0.72 0.93 1.63 0.93 2.42c 0 2.03 -1.15 2.43 -1.92 2.43c -1.31 0 -1.85 -1.27 -1.85 -2.13c 0 -0.86 0.46 -1.63 1.82 -1.63c 0.26 0 0.65 0.08 0.95 0.22Z m 0.09 0.36c -0.33 -0.22 -0.66 -0.23 -0.83 -0.23c -0.98 0 -1.2 0.96 -1.2 1.46c 0 1.1 0.42 1.6 0.91 1.6c 0.63 0 1.2 -0.34 1.2 -2.05c 0 -0.22 -0.02 -0.49 -0.08 -0.78Z "/></symbol><symbol id="g6DFAD7171EBFBAC7EAFD0C61FA59A787" overflow="visible"><path d="M 0 0m 2.28 -0.1c 0.77 0 1.94 0.78 1.94 3.13c 0 0.99 -0.24 1.84 -0.68 2.42c -0.26 0.35 -0.68 0.65 -1.22 0.65c -0.99 0 -1.93 -1.18 -1.93 -3.16c 0 -1.07 0.33 -2.07 0.88 -2.62c 0.28 -0.28 0.62 -0.42 1.01 -0.42Z m 0.04 5.85c 0.17 0 0.33 -0.06 0.45 -0.17c 0.31 -0.26 0.58 -1.02 0.58 -2.36c 0 -0.92 -0.03 -1.55 -0.17 -2.06c -0.22 -0.82 -0.71 -0.91 -0.89 -0.91c -0.93 0 -1.03 1.71 -1.03 2.58c 0 2.46 0.61 2.92 1.06 2.92Z "/></symbol><symbol id="g8F3B43BF00419FE170D741E9CC615A47" overflow="visible"><path d="M 0 0m 5.27 3.73c 0 0.46 -0.45 0.69 -0.95 0.69c -0.43 0 -0.77 -0.23 -1.03 -0.69c -0.21 0.46 -0.56 0.69 -1.07 0.69c -0.49 0 -0.89 -0.23 -1.21 -0.68c -0.27 -0.39 -0.41 -0.68 -0.41 -0.87c 0 -0.09 0.05 -0.14 0.15 -0.14c 0.09 0 0.15 0.05 0.17 0.14c 0.19 0.58 0.61 1.26 1.28 1.26c 0.33 0 0.49 -0.21 0.49 -0.62c 0 -0.21 -0.18 -0.99 -0.53 -2.33c -0.17 -0.67 -0.47 -1 -0.9 -1c -0.14 0 -0.27 0.03 -0.38 0.08c 0.26 0.1 0.39 0.28 0.39 0.54c 0 0.26 -0.13 0.39 -0.4 0.39c -0.33 0 -0.58 -0.28 -0.58 -0.61c 0 -0.46 0.47 -0.69 0.96 -0.69c 0.42 0 0.76 0.23 1.03 0.69c 0.19 -0.46 0.55 -0.69 1.07 -0.69c 0.48 0 0.88 0.23 1.2 0.68c 0.27 0.39 0.41 0.68 0.41 0.87c 0 0.09 -0.05 0.14 -0.15 0.14c -0.09 0 -0.14 -0.05 -0.17 -0.14c -0.17 -0.57 -0.62 -1.26 -1.27 -1.26c -0.33 0 -0.5 0.2 -0.5 0.61c 0 0.13 0.05 0.41 0.16 0.86l 0.34 1.35c 0.19 0.75 0.5 1.13 0.94 1.13c 0.14 0 0.27 -0.03 0.38 -0.08c -0.27 -0.09 -0.4 -0.27 -0.4 -0.54c 0 -0.26 0.14 -0.39 0.41 -0.39c 0.32 0 0.57 0.29 0.57 0.61Z "/></symbol><symbol id="gF318040A2BA9CD3C6D4E0BBBF71596E3" overflow="visible"><path d="M 0 0m 1.63 4.42c -0.45 0 -0.8 -0.25 -1.05 -0.75c -0.19 -0.39 -0.29 -0.66 -0.29 -0.81c 0 -0.09 0.05 -0.14 0.16 -0.14c 0.14 0 0.15 0.06 0.19 0.21c 0.23 0.79 0.55 1.19 0.96 1.19c 0.13 0 0.2 -0.09 0.2 -0.27c 0 -0.16 -0.05 -0.39 -0.16 -0.68c -0.38 -1.03 -0.57 -1.72 -0.57 -2.09c 0 -0.76 0.47 -1.21 1.24 -1.21c 0.33 0 0.64 0.12 0.92 0.36c -0.35 -1.32 -0.9 -1.98 -1.65 -1.98c -0.34 0 -0.57 0.11 -0.69 0.33c 0.4 0.02 0.6 0.21 0.6 0.57c 0 0.25 -0.13 0.38 -0.4 0.38c -0.37 0 -0.59 -0.31 -0.59 -0.68c 0 -0.55 0.5 -0.9 1.08 -0.9c 1.15 0 2.09 1.06 2.34 2.04l 0.94 3.78c 0.03 0.11 0.04 0.19 0.04 0.24c 0 0.2 -0.11 0.3 -0.32 0.3c -0.16 0 -0.29 -0.08 -0.38 -0.23c -0.06 -0.21 -0.11 -0.39 -0.14 -0.54l -0.64 -2.57c -0.1 -0.36 -0.63 -0.81 -1.08 -0.81c -0.38 0 -0.57 0.25 -0.57 0.76c 0 0.42 0.17 1.06 0.5 1.92c 0.13 0.35 0.2 0.59 0.2 0.73c 0 0.49 -0.35 0.85 -0.84 0.85Z "/></symbol><symbol id="g7FDD4349A49914F62F30F23AE9794251" overflow="visible"><path d="M 0 0m 5.797 4.103c 0 0.506 -0.495 0.759 -1.045 0.759c -0.473 0 -0.847 -0.253 -1.133 -0.759c -0.231 0.506 -0.616 0.759 -1.177 0.759c -0.539 0 -0.979 -0.253 -1.331 -0.748c -0.297 -0.429 -0.451 -0.748 -0.451 -0.957c 0 -0.099 0.055 -0.154 0.165 -0.154c 0.099 0 0.165 0.055 0.187 0.154c 0.209 0.638 0.671 1.386 1.408 1.386c 0.363 0 0.539 -0.231 0.539 -0.682c 0 -0.231 -0.198 -1.089 -0.583 -2.563c -0.187 -0.737 -0.517 -1.1 -0.99 -1.1c -0.154 0 -0.297 0.033 -0.418 0.088c 0.286 0.11 0.429 0.308 0.429 0.594c 0 0.286 -0.143 0.429 -0.44 0.429c -0.363 0 -0.638 -0.308 -0.638 -0.671c 0 -0.506 0.517 -0.759 1.056 -0.759c 0.462 0 0.836 0.253 1.133 0.759c 0.209 -0.506 0.605 -0.759 1.177 -0.759c 0.528 0 0.968 0.253 1.32 0.748c 0.297 0.429 0.451 0.748 0.451 0.957c 0 0.099 -0.055 0.154 -0.165 0.154c -0.099 0 -0.154 -0.055 -0.187 -0.154c -0.187 -0.627 -0.682 -1.386 -1.397 -1.386c -0.363 0 -0.55 0.22 -0.55 0.671c 0 0.143 0.055 0.451 0.176 0.946l 0.374 1.485c 0.209 0.825 0.55 1.243 1.034 1.243c 0.154 0 0.297 -0.033 0.418 -0.088c -0.297 -0.099 -0.44 -0.297 -0.44 -0.594c 0 -0.286 0.154 -0.429 0.451 -0.429c 0.352 0 0.627 0.319 0.627 0.671Z "/></symbol><symbol id="g25B224D96CA3F5CCC7E774117FEA026D" overflow="visible"><path d="M 0 0m 0.9163 3.2648c 0.2464 0 0.4312 0.1848 0.4312 0.4312c 0 0.2772 -0.1463 0.4235 -0.4312 0.4312c 0.1694 0.3619 0.5544 0.6545 1.0549 0.6545c 0.6776 0 1.1242 -0.5082 1.1242 -1.1858c 0 -0.3696 -0.1309 -0.7238 -0.4004 -1.0703c -0.1309 -0.1771 -0.231 -0.3003 -0.3003 -0.3696l -1.8249 -1.8095c -0.1001 -0.0924 -0.0847 -0.1155 -0.0847 -0.3465h 3.1724l 0.2387 1.4476h -0.3234c -0.0539 -0.4081 -0.1155 -0.6468 -0.1848 -0.7007c -0.0385 -0.0231 -0.2772 -0.0385 -0.7315 -0.0385h -1.309c 0.5159 0.4543 0.9933 0.8624 1.4476 1.2243c 0.3465 0.2695 0.5929 0.5082 0.7469 0.7161c 0.231 0.3003 0.3465 0.616 0.3465 0.9471c 0 0.4774 -0.1848 0.8547 -0.5621 1.1319c -0.3311 0.2541 -0.7469 0.385 -1.2397 0.385c -0.4235 0 -0.7854 -0.1232 -1.1011 -0.3696c -0.3311 -0.2695 -0.5005 -0.6083 -0.5005 -1.0241c 0 -0.2618 0.1925 -0.4543 0.4312 -0.4543Z "/></symbol></defs></svg>