<svg viewBox="0 0 595.275590551 841.88976378" width="595.275590551pt" height="841.88976378pt" xmlns="http://www.w3.org/2000/svg" xmlns:xlink="http://www.w3.org/1999/xlink" xmlns:h5="http://www.w3.org/1999/xhtml"><path fill="#ffffff" fill-rule="nonzero" d="M 0 0v 841.88976378h 595.275590551v -841.88976378Z "/><g transform="translate(42.519685039 42.519685039)"><g transform="translate(11.81519685)"><path fill="#fce4ec" fill-rule="nonzero" transform="translate(188.503937008)" d="M 0 0m 17.007874016 113.385826772l 2.953386329 -0.861292743l 2.86364918 -2.557708284l 2.686901499 -4.176409153l 2.428513677 -5.668211943l 2.096336695 -6.987788982l 1.700463583 -8.095045589l 1.252922746 -8.956338331l 0.767312485 -9.545497266l 0.258387823 -9.844621096l -0.258387823 -9.844621096l -0.767312485 -9.545497266l -1.252922746 -8.956338331l -1.700463583 -8.095045589l -2.096336695 -6.987788982l -2.428513677 -5.668211943l -2.686901499 -4.176409153l -2.86364918 -2.557708284l -2.953386329 -0.861292743l -2.953386329 0.861292743l -2.86364918 2.557708284l -2.686901499 4.176409153l -2.428513677 5.668211943l -2.096336695 6.987788982l -1.700463583 8.095045589l -1.252922746 8.956338331l -0.767312485 9.545497266l -0.258387823 9.844621096l 0.258387823 9.844621096l 0.767312485 9.545497266l 1.252922746 8.956338331l 1.700463583 8.095045589l 2.096336695 6.987788982l 2.428513677 5.668211943l 2.686901499 4.176409153l 2.86364918 2.557708284l 2.953386329 0.861292743Z "/><path fill="none" stroke="#8c8c8c" stroke-width="0.4" stroke-linecap="butt" stroke-linejoin="miter" stroke-miterlimit="4" stroke-dashoffset="0" stroke-dasharray="3 3" transform="translate(188.503937008)" d="M 0 0m 17.007874016 0l -1.482333892 0.215733651l -1.471052436 0.645559091l -1.448575383 1.070471436l -1.415073797 1.487236847l -1.370802644 1.892683488l -1.316098855 2.283725665l -1.25137876 2.65738731l -1.177134917 3.010824633l -1.093932366 3.341347763l -1.002404329 3.646441219l -0.90324739 3.923783055l -0.797216193 4.171262533l -0.685117699 4.386996185l -0.567805046 4.569342146l -0.446171054 4.716912655l -0.321141431 4.828584611l -0.193667727 4.903508121l -0.064720095 4.941112975l 0.064720095 4.941112975l 0.193667727 4.903508121l 0.321141431 4.828584611l 0.446171054 4.716912655l 0.567805046 4.569342146l 0.685117699 4.386996185l 0.797216193 4.171262533l 0.90324739 3.923783055l 1.002404329 3.646441219l 1.093932366 3.341347763l 1.177134917 3.010824633l 1.25137876 2.65738731l 1.316098855 2.283725665l 1.370802644 1.892683488l 1.415073797 1.487236847l 1.448575383 1.070471436l 1.471052436 0.645559091l 1.482333892 0.215733651"/><path fill="#fce4ec" fill-rule="nonzero" transform="translate(7.086614173 0)" d="M 0 0m 0 56.409448819l 3.307086614 -0.94015748l 3.307086614 -0.94015748l 3.307086614 -0.94015748l 3.307086614 -0.94015748l 3.307086614 -0.94015748l 3.307086614 -0.94015748l 3.307086614 -0.94015748l 3.307086614 -0.94015748l 3.307086614 -0.94015748l 3.307086614 -0.94015748l 3.307086614 -0.94015748l 3.307086614 -0.94015748l 3.307086614 -0.94015748l 3.307086614 -0.94015748l 3.307086614 -0.94015748l 3.307086614 -0.94015748l 3.307086614 -0.94015748l 3.307086614 -0.94015748l 3.307086614 -0.94015748l 3.307086614 -0.94015748l 3.307086614 -0.94015748l 3.307086614 -0.94015748l 3.307086614 -0.94015748l 3.307086614 -0.94015748l 3.307086614 -0.94015748l 3.307086614 -0.94015748l 3.307086614 -0.94015748l 3.307086614 -0.94015748l 3.307086614 -0.94015748l 3.307086614 -0.94015748l 3.307086614 -0.94015748l 3.307086614 -0.94015748l 3.307086614 -0.94015748l 3.307086614 -0.94015748l 3.307086614 -0.94015748l 3.307086614 -0.94015748l 3.307086614 -0.94015748l 3.307086614 -0.94015748l 3.307086614 -0.94015748l 3.307086614 -0.94015748l 3.307086614 -0.94015748l 3.307086614 -0.94015748l 3.307086614 -0.94015748l 3.307086614 -0.94015748l 3.307086614 -0.94015748l 3.307086614 -0.94015748l 3.307086614 -0.94015748l 3.307086614 -0.94015748l 3.307086614 -0.94015748l 3.307086614 -0.94015748l 3.307086614 -0.94015748l 3.307086614 -0.94015748l 3.307086614 -0.94015748l 3.307086614 -0.94015748l 3.307086614 -0.94015748l 3.307086614 -0.94015748l 3.307086614 -0.94015748l 3.307086614 -0.94015748l 3.307086614 -0.94015748l 3.307086614 -0.94015748v 113.385826772l -3.307086614 -0.94015748l -3.307086614 -0.94015748l -3.307086614 -0.94015748l -3.307086614 -0.94015748l -3.307086614 -0.94015748l -3.307086614 -0.94015748l -3.307086614 -0.94015748l -3.307086614 -0.94015748l -3.307086614 -0.94015748l -3.307086614 -0.94015748l -3.307086614 -0.94015748l -3.307086614 -0.94015748l -3.307086614 -0.94015748l -3.307086614 -0.94015748l -3.307086614 -0.94015748l -3.307086614 -0.94015748l -3.307086614 -0.94015748l -3.307086614 -0.94015748l -3.307086614 -0.94015748l -3.307086614 -0.94015748l -3.307086614 -0.94015748l -3.307086614 -0.94015748l -3.307086614 -0.94015748l -3.307086614 -0.94015748l -3.307086614 -0.94015748l -3.307086614 -0.94015748l -3.307086614 -0.94015748l -3.307086614 -0.94015748l -3.307086614 -0.94015748l -3.307086614 -0.94015748l -3.307086614 -0.94015748l -3.307086614 -0.94015748l -3.307086614 -0.94015748l -3.307086614 -0.94015748l -3.307086614 -0.94015748l -3.307086614 -0.94015748l -3.307086614 -0.94015748l -3.307086614 -0.94015748l -3.307086614 -0.94015748l -3.307086614 -0.94015748l -3.307086614 -0.94015748l -3.307086614 -0.94015748l -3.307086614 -0.94015748l -3.307086614 -0.94015748l -3.307086614 -0.94015748l -3.307086614 -0.94015748l -3.307086614 -0.94015748l -3.307086614 -0.94015748l -3.307086614 -0.94015748l -3.307086614 -0.94015748l -3.307086614 -0.94015748l -3.307086614 -0.94015748l -3.307086614 -0.94015748l -3.307086614 -0.94015748l -3.307086614 -0.94015748l -3.307086614 -0.94015748l -3.307086614 -0.94015748l -3.307086614 -0.94015748l -3.307086614 -0.94015748l -3.307086614 -0.94015748v -0.566929134Z "/><path fill="none" stroke="#a0a0a0" stroke-width="0.45" stroke-linecap="butt" stroke-linejoin="miter" stroke-miterlimit="4" stroke-dashoffset="0" stroke-dasharray="3 3" transform="translate(43.302047244 45.127559055)" d="M 0 0m 3.469606299 0l -0.302396114 0.044009665l -0.300094697 0.131694055l -0.295509378 0.218376173l -0.288675054 0.303396317l -0.279643739 0.386107432l -0.268484167 0.465880036l -0.255281267 0.542107011l -0.240135523 0.614208225l -0.223162203 0.681634944l -0.204490483 0.743874009l -0.184262468 0.800451743l -0.162632103 0.850937557l -0.139764011 0.894947222l -0.115832229 0.932145798l -0.091018895 0.962250182l -0.065512852 0.985031261l -0.039508216 1.000315657l -0.013202899 1.007987047l 0.013202899 1.007987047l 0.039508216 1.000315657l 0.065512852 0.985031261l 0.091018895 0.962250182l 0.115832229 0.932145798l 0.139764011 0.894947222l 0.162632103 0.850937557l 0.184262468 0.800451743l 0.204490483 0.743874009l 0.223162203 0.681634944l 0.240135523 0.614208225l 0.255281267 0.542107011l 0.268484167 0.465880036l 0.279643739 0.386107432l 0.288675054 0.303396317l 0.295509378 0.218376173l 0.300094697 0.131694055l 0.302396114 0.044009665"/><path fill="none" stroke="#c62828" stroke-width="0.6" stroke-linecap="butt" stroke-linejoin="miter" stroke-miterlimit="4" transform="translate(46.771653543 45.127559055)" d="M 0 0m 0 23.130708661l 0.302396114 -0.044009665l 0.300094697 -0.131694055l 0.295509378 -0.218376173l 0.288675054 -0.303396317l 0.279643739 -0.386107432l 0.268484167 -0.465880036l 0.255281267 -0.542107011l 0.240135523 -0.614208225l 0.223162203 -0.681634944l 0.204490483 -0.743874009l 0.184262468 -0.800451743l 0.162632103 -0.850937557l 0.139764011 -0.894947222l 0.115832229 -0.932145798l 0.091018895 -0.962250182l 0.065512852 -0.985031261l 0.039508216 -1.000315657l 0.013202899 -1.007987047l -0.013202899 -1.007987047l -0.039508216 -1.000315657l -0.065512852 -0.985031261l -0.091018895 -0.962250182l -0.115832229 -0.932145798l -0.139764011 -0.894947222l -0.162632103 -0.850937557l -0.184262468 -0.800451743l -0.204490483 -0.743874009l -0.223162203 -0.681634944l -0.240135523 -0.614208225l -0.255281267 -0.542107011l -0.268484167 -0.465880036l -0.279643739 -0.386107432l -0.288675054 -0.303396317l -0.295509378 -0.218376173l -0.300094697 -0.131694055l -0.302396114 -0.044009665"/><path fill="none" stroke="#a0a0a0" stroke-width="0.45" stroke-linecap="butt" stroke-linejoin="miter" stroke-miterlimit="4" stroke-dashoffset="0" stroke-dasharray="3 3" transform="translate(79.602519685 33.845669291)" d="M 0 0m 6.854173228 0l -0.597380559 0.086940662l -0.592834132 0.260160314l -0.583775879 0.431399989l -0.57027474 0.59935645l -0.552433465 0.762751446l -0.530387839 0.920341443l -0.50430564 1.070927086l -0.474385371 1.213362327l -0.440854743 1.346563149l -0.403968945 1.469515811l -0.364008698 1.581284571l -0.321278126 1.681018801l -0.276102433 1.767959462l -0.228825434 1.841444885l -0.179806935 1.9009158l -0.129419997 1.945919598l -0.078048094 1.976113773l -0.026082198 1.991268529l 0.026082198 1.991268529l 0.078048094 1.976113773l 0.129419997 1.945919598l 0.179806935 1.9009158l 0.228825434 1.841444885l 0.276102433 1.767959462l 0.321278126 1.681018801l 0.364008698 1.581284571l 0.403968945 1.469515811l 0.440854743 1.346563149l 0.474385371 1.213362327l 0.50430564 1.070927086l 0.530387839 0.920341443l 0.552433465 0.762751446l 0.57027474 0.59935645l 0.583775879 0.431399989l 0.592834132 0.260160314l 0.597380559 0.086940662"/><path fill="none" stroke="#c62828" stroke-width="0.6" stroke-linecap="butt" stroke-linejoin="miter" stroke-miterlimit="4" transform="translate(86.456692913 33.845669291)" d="M 0 0m 0 45.694488189l 0.597380559 -0.086940662l 0.592834132 -0.260160314l 0.583775879 -0.431399989l 0.57027474 -0.59935645l 0.552433465 -0.762751446l 0.530387839 -0.920341443l 0.50430564 -1.070927086l 0.474385371 -1.213362327l 0.440854743 -1.346563149l 0.403968945 -1.469515811l 0.364008698 -1.581284571l 0.321278126 -1.681018801l 0.276102433 -1.767959462l 0.228825434 -1.841444885l 0.179806935 -1.9009158l 0.129419997 -1.945919598l 0.078048094 -1.976113773l 0.026082198 -1.991268529l -0.026082198 -1.991268529l -0.078048094 -1.976113773l -0.129419997 -1.945919598l -0.179806935 -1.9009158l -0.228825434 -1.841444885l -0.276102433 -1.767959462l -0.321278126 -1.681018801l -0.364008698 -1.581284571l -0.403968945 -1.469515811l -0.440854743 -1.346563149l -0.474385371 -1.213362327l -0.50430564 -1.070927086l -0.530387839 -0.920341443l -0.552433465 -0.762751446l -0.57027474 -0.59935645l -0.583775879 -0.431399989l -0.592834132 -0.260160314l -0.597380559 -0.086940662"/><path fill="none" stroke="#a0a0a0" stroke-width="0.45" stroke-linecap="butt" stroke-linejoin="miter" stroke-miterlimit="4" stroke-dashoffset="0" stroke-dasharray="3 3" transform="translate(115.902992126 22.563779528)" d="M 0 0m 10.238740157 0l -0.892365003 0.129871658l -0.885573567 0.388626573l -0.872042381 0.644423805l -0.851874426 0.895316582l -0.825223192 1.13939546l -0.792291511 1.37480285l -0.753330014 1.599747161l -0.70863522 1.812516429l -0.658547284 2.011491353l -0.603447406 2.195157614l -0.543754929 2.362117399l -0.479924148 2.511100045l -0.412440855 2.640971703l -0.341818638 2.750743972l -0.268594975 2.839581418l -0.193327141 2.906807936l -0.116587972 2.951911889l -0.038961497 2.974550011l 0.038961497 2.974550011l 0.116587972 2.951911889l 0.193327141 2.906807936l 0.268594975 2.839581418l 0.341818638 2.750743972l 0.412440855 2.640971703l 0.479924148 2.511100045l 0.543754929 2.362117399l 0.603447406 2.195157614l 0.658547284 2.011491353l 0.70863522 1.812516429l 0.753330014 1.599747161l 0.792291511 1.37480285l 0.825223192 1.13939546l 0.851874426 0.895316582l 0.872042381 0.644423805l 0.885573567 0.388626573l 0.892365003 0.129871658"/><path fill="none" stroke="#c62828" stroke-width="0.6" stroke-linecap="butt" stroke-linejoin="miter" stroke-miterlimit="4" transform="translate(126.141732283 22.563779528)" d="M 0 0m 0 68.258267717l 0.892365003 -0.129871658l 0.885573567 -0.388626573l 0.872042381 -0.644423805l 0.851874426 -0.895316582l 0.825223192 -1.13939546l 0.792291511 -1.37480285l 0.753330014 -1.599747161l 0.70863522 -1.812516429l 0.658547284 -2.011491353l 0.603447406 -2.195157614l 0.543754929 -2.362117399l 0.479924148 -2.511100045l 0.412440855 -2.640971703l 0.341818638 -2.750743972l 0.268594975 -2.839581418l 0.193327141 -2.906807936l 0.116587972 -2.951911889l 0.038961497 -2.974550011l -0.038961497 -2.974550011l -0.116587972 -2.951911889l -0.193327141 -2.906807936l -0.268594975 -2.839581418l -0.341818638 -2.750743972l -0.412440855 -2.640971703l -0.479924148 -2.511100045l -0.543754929 -2.362117399l -0.603447406 -2.195157614l -0.658547284 -2.011491353l -0.70863522 -1.812516429l -0.753330014 -1.599747161l -0.792291511 -1.37480285l -0.825223192 -1.13939546l -0.851874426 -0.895316582l -0.872042381 -0.644423805l -0.885573567 -0.388626573l -0.892365003 -0.129871658"/><path fill="none" stroke="#a0a0a0" stroke-width="0.45" stroke-linecap="butt" stroke-linejoin="miter" stroke-miterlimit="4" stroke-dashoffset="0" stroke-dasharray="3 3" transform="translate(152.203464567 11.281889764)" d="M 0 0m 13.623307087 0l -1.187349448 0.172802655l -1.178313002 0.517092832l -1.160308882 0.85744762l -1.133474111 1.191276715l -1.098012918 1.516039474l -1.054195183 1.829264257l -1.002354387 2.128567235l -0.942885068 2.411670531l -0.876239825 2.676419558l -0.802925867 2.920799416l -0.723501159 3.142950227l -0.638570171 3.341181289l -0.548779277 3.513983944l -0.454811842 3.660043059l -0.357383014 3.778247037l -0.257234286 3.867696273l -0.15512785 3.927710005l -0.051840796 3.957831493l 0.051840796 3.957831493l 0.15512785 3.927710005l 0.257234286 3.867696273l 0.357383014 3.778247037l 0.454811842 3.660043059l 0.548779277 3.513983944l 0.638570171 3.341181289l 0.723501159 3.142950227l 0.802925867 2.920799416l 0.876239825 2.676419558l 0.942885068 2.411670531l 1.002354387 2.128567235l 1.054195183 1.829264257l 1.098012918 1.516039474l 1.133474111 1.191276715l 1.160308882 0.85744762l 1.178313002 0.517092832l 1.187349448 0.172802655"/><path fill="none" stroke="#c62828" stroke-width="0.6" stroke-linecap="butt" stroke-linejoin="miter" stroke-miterlimit="4" transform="translate(165.826771654 11.281889764)" d="M 0 0m 0 90.822047244l 1.187349448 -0.172802655l 1.178313002 -0.517092832l 1.160308882 -0.85744762l 1.133474111 -1.191276715l 1.098012918 -1.516039474l 1.054195183 -1.829264257l 1.002354387 -2.128567235l 0.942885068 -2.411670531l 0.876239825 -2.676419558l 0.802925867 -2.920799416l 0.723501159 -3.142950227l 0.638570171 -3.341181289l 0.548779277 -3.513983944l 0.454811842 -3.660043059l 0.357383014 -3.778247037l 0.257234286 -3.867696273l 0.15512785 -3.927710005l 0.051840796 -3.957831493l -0.051840796 -3.957831493l -0.15512785 -3.927710005l -0.257234286 -3.867696273l -0.357383014 -3.778247037l -0.454811842 -3.660043059l -0.548779277 -3.513983944l -0.638570171 -3.341181289l -0.723501159 -3.142950227l -0.802925867 -2.920799416l -0.876239825 -2.676419558l -0.942885068 -2.411670531l -1.002354387 -2.128567235l -1.054195183 -1.829264257l -1.098012918 -1.516039474l -1.133474111 -1.191276715l -1.160308882 -0.85744762l -1.178313002 -0.517092832l -1.187349448 -0.172802655"/><path fill="none" stroke="#a0a0a0" stroke-width="0.45" stroke-linecap="butt" stroke-linejoin="miter" stroke-miterlimit="4" stroke-dashoffset="0" stroke-dasharray="3 3" transform="translate(7.086614173 56.976377953)" d="M 0 0l 3.307086614 0.94015748l 3.307086614 0.94015748l 3.307086614 0.94015748l 3.307086614 0.94015748l 3.307086614 0.94015748l 3.307086614 0.94015748l 3.307086614 0.94015748l 3.307086614 0.94015748l 3.307086614 0.94015748l 3.307086614 0.94015748l 3.307086614 0.94015748l 3.307086614 0.94015748l 3.307086614 0.94015748l 3.307086614 0.94015748l 3.307086614 0.94015748l 3.307086614 0.94015748l 3.307086614 0.94015748l 3.307086614 0.94015748l 3.307086614 0.94015748l 3.307086614 0.94015748l 3.307086614 0.94015748l 3.307086614 0.94015748l 3.307086614 0.94015748l 3.307086614 0.94015748l 3.307086614 0.94015748l 3.307086614 0.94015748l 3.307086614 0.94015748l 3.307086614 0.94015748l 3.307086614 0.94015748l 3.307086614 0.94015748l 3.307086614 0.94015748l 3.307086614 0.94015748l 3.307086614 0.94015748l 3.307086614 0.94015748l 3.307086614 0.94015748l 3.307086614 0.94015748l 3.307086614 0.94015748l 3.307086614 0.94015748l 3.307086614 0.94015748l 3.307086614 0.94015748l 3.307086614 0.94015748l 3.307086614 0.94015748l 3.307086614 0.94015748l 3.307086614 0.94015748l 3.307086614 0.94015748l 3.307086614 0.94015748l 3.307086614 0.94015748l 3.307086614 0.94015748l 3.307086614 0.94015748l 3.307086614 0.94015748l 3.307086614 0.94015748l 3.307086614 0.94015748l 3.307086614 0.94015748l 3.307086614 0.94015748l 3.307086614 0.94015748l 3.307086614 0.94015748l 3.307086614 0.94015748l 3.307086614 0.94015748l 3.307086614 0.94015748l 3.307086614 0.94015748"/><path fill="none" stroke="#c62828" stroke-width="1.5" stroke-linecap="butt" stroke-linejoin="miter" stroke-miterlimit="4" transform="translate(7.086614173 0)" d="M 0 0m 0 56.409448819l 3.307086614 -0.94015748l 3.307086614 -0.94015748l 3.307086614 -0.94015748l 3.307086614 -0.94015748l 3.307086614 -0.94015748l 3.307086614 -0.94015748l 3.307086614 -0.94015748l 3.307086614 -0.94015748l 3.307086614 -0.94015748l 3.307086614 -0.94015748l 3.307086614 -0.94015748l 3.307086614 -0.94015748l 3.307086614 -0.94015748l 3.307086614 -0.94015748l 3.307086614 -0.94015748l 3.307086614 -0.94015748l 3.307086614 -0.94015748l 3.307086614 -0.94015748l 3.307086614 -0.94015748l 3.307086614 -0.94015748l 3.307086614 -0.94015748l 3.307086614 -0.94015748l 3.307086614 -0.94015748l 3.307086614 -0.94015748l 3.307086614 -0.94015748l 3.307086614 -0.94015748l 3.307086614 -0.94015748l 3.307086614 -0.94015748l 3.307086614 -0.94015748l 3.307086614 -0.94015748l 3.307086614 -0.94015748l 3.307086614 -0.94015748l 3.307086614 -0.94015748l 3.307086614 -0.94015748l 3.307086614 -0.94015748l 3.307086614 -0.94015748l 3.307086614 -0.94015748l 3.307086614 -0.94015748l 3.307086614 -0.94015748l 3.307086614 -0.94015748l 3.307086614 -0.94015748l 3.307086614 -0.94015748l 3.307086614 -0.94015748l 3.307086614 -0.94015748l 3.307086614 -0.94015748l 3.307086614 -0.94015748l 3.307086614 -0.94015748l 3.307086614 -0.94015748l 3.307086614 -0.94015748l 3.307086614 -0.94015748l 3.307086614 -0.94015748l 3.307086614 -0.94015748l 3.307086614 -0.94015748l 3.307086614 -0.94015748l 3.307086614 -0.94015748l 3.307086614 -0.94015748l 3.307086614 -0.94015748l 3.307086614 -0.94015748l 3.307086614 -0.94015748l 3.307086614 -0.94015748"/><path fill="none" stroke="#000000" stroke-width="0.7" stroke-linecap="butt" stroke-linejoin="miter" stroke-miterlimit="4" transform="translate(0 56.692913386)" d="M 0 0h 213.515010587"/><path fill="#000000" fill-rule="nonzero" stroke="#000000" stroke-width="0.7" stroke-linecap="butt" stroke-linejoin="miter" stroke-miterlimit="4" stroke-dashoffset="0" stroke-dasharray="" transform="translate(212.735483028 55.523622047)" d="M 0 0m 3.118110236 1.169291339l -3.118110236 -1.169291339l 0.779527559 1.169291339l -0.779527559 1.169291339l 3.118110236 -1.169291339Z "/><path fill="none" transform="translate(218.267716535 57.543307087)" d="M 0 0h 5.72v 6.94h -5.72v -6.94Z "/><g transform="translate(218.26771652 57.543307055)"><g transform="matrix(1 0 0 -1 0 6.83)"><use xlink:href="#g8F3B43BF00419FE170D741E9CC615A47" x="0" y="0" fill="#000000" fill-rule="nonzero"/></g></g><path fill="none" stroke="#000000" stroke-width="0.7" stroke-linecap="butt" stroke-linejoin="miter" stroke-miterlimit="4" transform="translate(7.086614173 52.440944882)" d="M 0 0v 8.503937008"/><path fill="none" stroke="#000000" stroke-width="0.7" stroke-linecap="butt" stroke-linejoin="miter" stroke-miterlimit="4" transform="translate(205.511811024 52.440944882)" d="M 0 0v 8.503937008"/><path fill="none" transform="translate(4.586614173 63.212598425)" d="M 0 0h 5v 7.05h -5v -7.05Z "/><g transform="translate(4.586614157 63.212598331)"><g transform="matrix(1 0 0 -1 0 6.83)"><use xlink:href="#gAA84A9423BA34B701FF3D1FC1A0341B9" x="0" y="0" fill="#000000" fill-rule="nonzero"/></g></g><path fill="none" transform="translate(203.011811024 63.212598425)" d="M 0 0h 5v 6.83h -5v -6.83Z "/><g transform="translate(203.011811008 63.212598315)"><g transform="matrix(1 0 0 -1 0 6.83)"><use xlink:href="#g187F960CD8D343F130EAFAB63E4BE0DE" x="0" y="0" fill="#000000" fill-rule="nonzero"/></g></g><path fill="none" transform="translate(37.443149606 33.079527559)" d="M 0 0h 10.72v 6.94h -10.72v -6.94Z "/><g transform="translate(37.443149575 33.079527528)"><g transform="matrix(1 0 0 -1 0 6.83)"><use xlink:href="#g187F960CD8D343F130EAFAB63E4BE0DE" x="0" y="0" fill="#000000" fill-rule="nonzero"/></g><g transform="matrix(1 0 0 -1 5 6.83)"><use xlink:href="#g8F3B43BF00419FE170D741E9CC615A47" x="0" y="0" fill="#000000" fill-rule="nonzero"/></g></g></g><g transform="translate(274.433307087)"><path fill="#e8f5e9" fill-rule="nonzero" transform="translate(188.503937008)" d="M 0 0m 17.007874016 113.385826772l 2.953386329 -0.861292743l 2.86364918 -2.557708284l 2.686901499 -4.176409153l 2.428513677 -5.668211943l 2.096336695 -6.987788982l 1.700463583 -8.095045589l 1.252922746 -8.956338331l 0.767312485 -9.545497266l 0.258387823 -9.844621096l -0.258387823 -9.844621096l -0.767312485 -9.545497266l -1.252922746 -8.956338331l -1.700463583 -8.095045589l -2.096336695 -6.987788982l -2.428513677 -5.668211943l -2.686901499 -4.176409153l -2.86364918 -2.557708284l -2.953386329 -0.861292743l -2.953386329 0.861292743l -2.86364918 2.557708284l -2.686901499 4.176409153l -2.428513677 5.668211943l -2.096336695 6.987788982l -1.700463583 8.095045589l -1.252922746 8.956338331l -0.767312485 9.545497266l -0.258387823 9.844621096l 0.258387823 9.844621096l 0.767312485 9.545497266l 1.252922746 8.956338331l 1.700463583 8.095045589l 2.096336695 6.987788982l 2.428513677 5.668211943l 2.686901499 4.176409153l 2.86364918 2.557708284l 2.953386329 0.861292743Z "/><path fill="none" stroke="#8c8c8c" stroke-width="0.4" stroke-linecap="butt" stroke-linejoin="miter" stroke-miterlimit="4" stroke-dashoffset="0" stroke-dasharray="3 3" transform="translate(188.503937008)" d="M 0 0m 17.007874016 0l -1.482333892 0.215733651l -1.471052436 0.645559091l -1.448575383 1.070471436l -1.415073797 1.487236847l -1.370802644 1.892683488l -1.316098855 2.283725665l -1.25137876 2.65738731l -1.177134917 3.010824633l -1.093932366 3.341347763l -1.002404329 3.646441219l -0.90324739 3.923783055l -0.797216193 4.171262533l -0.685117699 4.386996185l -0.567805046 4.569342146l -0.446171054 4.716912655l -0.321141431 4.828584611l -0.193667727 4.903508121l -0.064720095 4.941112975l 0.064720095 4.941112975l 0.193667727 4.903508121l 0.321141431 4.828584611l 0.446171054 4.716912655l 0.567805046 4.569342146l 0.685117699 4.386996185l 0.797216193 4.171262533l 0.90324739 3.923783055l 1.002404329 3.646441219l 1.093932366 3.341347763l 1.177134917 3.010824633l 1.25137876 2.65738731l 1.316098855 2.283725665l 1.370802644 1.892683488l 1.415073797 1.487236847l 1.448575383 1.070471436l 1.471052436 0.645559091l 1.482333892 0.215733651"/><path fill="#e8f5e9" fill-rule="nonzero" transform="translate(7.086614173 0)" d="M 0 0m 0 56.412283465l 1.157114082 -0.890172441l 1.229994507 -0.827808661l 1.302874931 -0.765444882l 1.375755356 -0.703081102l 1.448635781 -0.640717323l 1.521516206 -0.578353543l 1.594396631 -0.515989764l 1.667277055 -0.453625984l 1.74015748 -0.391262205l 1.813037905 -0.328898425l 1.88591833 -0.266534646l 1.958798755 -0.204170866l 2.03167918 -0.141807087l 2.104559604 -0.079443307l 2.177440029 -0.017079528l 2.250320454 0.045284252l 2.323200879 0.107648031l 2.396081304 0.170011811l 2.468961729 0.232375591l 2.541842153 0.29473937l 2.614722578 0.35710315l 2.687603003 0.419466929l 2.760483428 0.481830709l 2.833363853 0.544194488l 2.906244278 0.606558268l 2.979124702 0.668922047l 3.052005127 0.731285827l 3.124885552 0.793649606l 3.197765977 0.856013386l 3.270646402 0.633495276l 3.343526827 -0.980740945l 3.416407251 -1.043104724l 3.489287676 -1.105468504l 3.562168101 -1.167832283l 3.635048526 -1.230196063l 3.707928951 -1.292559843l 3.780809376 -1.354923622l 3.8536898 -1.417287402l 3.926570225 -1.479651181l 3.99945065 -1.542014961l 4.072331075 -1.60437874l 4.1452115 -1.66674252l 4.218091925 -1.729106299l 4.290972349 -1.791470079l 4.363852774 -1.853833858l 4.436733199 -1.916197638l 4.509613624 -1.978561417l 4.582494049 -2.040925197l 4.655374474 -2.103288976l 4.728254898 -2.165652756l 4.801135323 -2.228016535l 4.874015748 -2.290380315l 4.946896173 -2.352744094l 5.019776598 -2.415107874l 5.092657023 -2.477471654l 5.165537447 -2.539835433l 5.238417872 -2.602199213l 5.311298297 -2.664562992l 5.384178722 -2.726926772l 5.457059147 -2.789290551v 113.385826772l -5.457059147 -2.789290551l -5.384178722 -2.726926772l -5.311298297 -2.664562992l -5.238417872 -2.602199213l -5.165537447 -2.539835433l -5.092657023 -2.477471654l -5.019776598 -2.415107874l -4.946896173 -2.352744094l -4.874015748 -2.290380315l -4.801135323 -2.228016535l -4.728254898 -2.165652756l -4.655374474 -2.103288976l -4.582494049 -2.040925197l -4.509613624 -1.978561417l -4.436733199 -1.916197638l -4.363852774 -1.853833858l -4.290972349 -1.791470079l -4.218091925 -1.729106299l -4.1452115 -1.66674252l -4.072331075 -1.60437874l -3.99945065 -1.542014961l -3.926570225 -1.479651181l -3.8536898 -1.417287402l -3.780809376 -1.354923622l -3.707928951 -1.292559843l -3.635048526 -1.230196063l -3.562168101 -1.167832283l -3.489287676 -1.105468504l -3.416407251 -1.043104724l -3.343526827 -0.980740945l -3.270646402 0.633495276l -3.197765977 0.856013386l -3.124885552 0.793649606l -3.052005127 0.731285827l -2.979124702 0.668922047l -2.906244278 0.606558268l -2.833363853 0.544194488l -2.760483428 0.481830709l -2.687603003 0.419466929l -2.614722578 0.35710315l -2.541842153 0.29473937l -2.468961729 0.232375591l -2.396081304 0.170011811l -2.323200879 0.107648031l -2.250320454 0.045284252l -2.177440029 -0.017079528l -2.104559604 -0.079443307l -2.03167918 -0.141807087l -1.958798755 -0.204170866l -1.88591833 -0.266534646l -1.813037905 -0.328898425l -1.74015748 -0.391262205l -1.667277055 -0.453625984l -1.594396631 -0.515989764l -1.521516206 -0.578353543l -1.448635781 -0.640717323l -1.375755356 -0.703081102l -1.302874931 -0.765444882l -1.229994507 -0.827808661l -1.157114082 -0.890172441v -0.561259843Z "/><path fill="none" stroke="#a0a0a0" stroke-width="0.45" stroke-linecap="butt" stroke-linejoin="miter" stroke-miterlimit="4" stroke-dashoffset="0" stroke-dasharray="3 3" transform="translate(23.728084263 49.846223622)" d="M 0 0m 2.054006929 0l -0.1790185 0.026053722l -0.177656061 0.07796288l -0.174941552 0.129278694l -0.170895632 0.17961062l -0.165549094 0.228575599l -0.158942627 0.275800981l -0.15112651 0.320927351l -0.14216023 0.363611269l -0.132112024 0.403527887l -0.121058366 0.440373413l -0.109083381 0.473867432l -0.096278205 0.503755034l -0.082740294 0.529808755l -0.06857268 0.551830312l -0.053883186 0.569652108l -0.038783608 0.583138506l -0.023388864 0.592186869l -0.007816116 0.596728332l 0.007816116 0.596728332l 0.023388864 0.592186869l 0.038783608 0.583138506l 0.053883186 0.569652108l 0.06857268 0.551830312l 0.082740294 0.529808755l 0.096278205 0.503755034l 0.109083381 0.473867432l 0.121058366 0.440373413l 0.132112024 0.403527887l 0.14216023 0.363611269l 0.15112651 0.320927351l 0.158942627 0.275800981l 0.165549094 0.228575599l 0.170895632 0.17961062l 0.174941552 0.129278694l 0.177656061 0.07796288l 0.1790185 0.026053722"/><path fill="none" stroke="#2e7d32" stroke-width="0.6" stroke-linecap="butt" stroke-linejoin="miter" stroke-miterlimit="4" transform="translate(25.782091192 49.846223622)" d="M 0 0m 0 13.693379528l 0.1790185 -0.026053722l 0.177656061 -0.07796288l 0.174941552 -0.129278694l 0.170895632 -0.17961062l 0.165549094 -0.228575599l 0.158942627 -0.275800981l 0.15112651 -0.320927351l 0.14216023 -0.363611269l 0.132112024 -0.403527887l 0.121058366 -0.440373413l 0.109083381 -0.473867432l 0.096278205 -0.503755034l 0.082740294 -0.529808755l 0.06857268 -0.551830312l 0.053883186 -0.569652108l 0.038783608 -0.583138506l 0.023388864 -0.592186869l 0.007816116 -0.596728332l -0.007816116 -0.596728332l -0.023388864 -0.592186869l -0.038783608 -0.583138506l -0.053883186 -0.569652108l -0.06857268 -0.551830312l -0.082740294 -0.529808755l -0.096278205 -0.503755034l -0.109083381 -0.473867432l -0.121058366 -0.440373413l -0.132112024 -0.403527887l -0.14216023 -0.363611269l -0.15112651 -0.320927351l -0.158942627 -0.275800981l -0.165549094 -0.228575599l -0.170895632 -0.17961062l -0.174941552 -0.129278694l -0.177656061 -0.07796288l -0.1790185 -0.026053722"/><path fill="none" stroke="#a0a0a0" stroke-width="0.45" stroke-linecap="butt" stroke-linejoin="miter" stroke-miterlimit="4" stroke-dashoffset="0" stroke-dasharray="3 3" transform="translate(53.64263978 52.260548031)" d="M 0 0m 1.329709606 0l -0.115891828 0.016866488l -0.115009822 0.050471101l -0.113252521 0.083691598l -0.1106333 0.116275151l -0.107172092 0.14797378l -0.102895241 0.17854624l -0.097835294 0.207759855l -0.092030762 0.235392291l -0.08552582 0.261233251l -0.078369975 0.285086067l -0.070617687 0.306769207l -0.062327956 0.326117647l -0.053563872 0.342984136l -0.044392134 0.357240308l -0.034882545 0.368777665l -0.025107479 0.377508402l -0.01514133 0.383366072l -0.005059947 0.386306095l 0.005059947 0.386306095l 0.01514133 0.383366072l 0.025107479 0.377508402l 0.034882545 0.368777665l 0.044392134 0.357240308l 0.053563872 0.342984136l 0.062327956 0.326117647l 0.070617687 0.306769207l 0.078369975 0.285086067l 0.08552582 0.261233251l 0.092030762 0.235392291l 0.097835294 0.207759855l 0.102895241 0.17854624l 0.107172092 0.14797378l 0.1106333 0.116275151l 0.113252521 0.083691598l 0.115009822 0.050471101l 0.115891828 0.016866488"/><path fill="none" stroke="#2e7d32" stroke-width="0.6" stroke-linecap="butt" stroke-linejoin="miter" stroke-miterlimit="4" transform="translate(54.972349387 52.260548031)" d="M 0 0m 0 8.864730709l 0.115891828 -0.016866488l 0.115009822 -0.050471101l 0.113252521 -0.083691598l 0.1106333 -0.116275151l 0.107172092 -0.14797378l 0.102895241 -0.17854624l 0.097835294 -0.207759855l 0.092030762 -0.235392291l 0.08552582 -0.261233251l 0.078369975 -0.285086067l 0.070617687 -0.306769207l 0.062327956 -0.326117647l 0.053563872 -0.342984136l 0.044392134 -0.357240308l 0.034882545 -0.368777665l 0.025107479 -0.377508402l 0.01514133 -0.383366072l 0.005059947 -0.386306095l -0.005059947 -0.386306095l -0.01514133 -0.383366072l -0.025107479 -0.377508402l -0.034882545 -0.368777665l -0.044392134 -0.357240308l -0.053563872 -0.342984136l -0.062327956 -0.326117647l -0.070617687 -0.306769207l -0.078369975 -0.285086067l -0.08552582 -0.261233251l -0.092030762 -0.235392291l -0.097835294 -0.207759855l -0.102895241 -0.17854624l -0.107172092 -0.14797378l -0.1106333 -0.116275151l -0.113252521 -0.083691598l -0.115009822 -0.050471101l -0.115891828 -0.016866488"/><path fill="none" stroke="#a0a0a0" stroke-width="0.45" stroke-linecap="butt" stroke-linejoin="miter" stroke-miterlimit="4" stroke-dashoffset="0" stroke-dasharray="3 3" transform="translate(92.568685765 49.730570079)" d="M 0 0m 2.088702992 0l -0.182042461 0.026493818l -0.180657008 0.079279821l -0.177896646 0.131462456l -0.173782383 0.182644583l -0.168345531 0.232436674l -0.161627468 0.280459781l -0.153679323 0.326348421l -0.144561585 0.369753352l -0.134343646 0.410344236l -0.123103271 0.447812153l -0.110926005 0.481871949l -0.097904526 0.512264409l -0.084137934 0.538758227l -0.069731002 0.56115177l -0.054793375 0.579274609l -0.039438737 0.592988819l -0.023783946 0.602190025l -0.007948145 0.606808202l 0.007948145 0.606808202l 0.023783946 0.602190025l 0.039438737 0.592988819l 0.054793375 0.579274609l 0.069731002 0.56115177l 0.084137934 0.538758227l 0.097904526 0.512264409l 0.110926005 0.481871949l 0.123103271 0.447812153l 0.134343646 0.410344236l 0.144561585 0.369753352l 0.153679323 0.326348421l 0.161627468 0.280459781l 0.168345531 0.232436674l 0.173782383 0.182644583l 0.177896646 0.131462456l 0.180657008 0.079279821l 0.182042461 0.026493818"/><path fill="none" stroke="#2e7d32" stroke-width="0.6" stroke-linecap="butt" stroke-linejoin="miter" stroke-miterlimit="4" transform="translate(94.657388757 49.730570079)" d="M 0 0m 0 13.924686614l 0.182042461 -0.026493818l 0.180657008 -0.079279821l 0.177896646 -0.131462456l 0.173782383 -0.182644583l 0.168345531 -0.232436674l 0.161627468 -0.280459781l 0.153679323 -0.326348421l 0.144561585 -0.369753352l 0.134343646 -0.410344236l 0.123103271 -0.447812153l 0.110926005 -0.481871949l 0.097904526 -0.512264409l 0.084137934 -0.538758227l 0.069731002 -0.56115177l 0.054793375 -0.579274609l 0.039438737 -0.592988819l 0.023783946 -0.602190025l 0.007948145 -0.606808202l -0.007948145 -0.606808202l -0.023783946 -0.602190025l -0.039438737 -0.592988819l -0.054793375 -0.579274609l -0.069731002 -0.56115177l -0.084137934 -0.538758227l -0.097904526 -0.512264409l -0.110926005 -0.481871949l -0.123103271 -0.447812153l -0.134343646 -0.410344236l -0.144561585 -0.369753352l -0.153679323 -0.326348421l -0.161627468 -0.280459781l -0.168345531 -0.232436674l -0.173782383 -0.182644583l -0.177896646 -0.131462456l -0.180657008 -0.079279821l -0.182042461 -0.026493818"/><path fill="none" stroke="#a0a0a0" stroke-width="0.45" stroke-linecap="butt" stroke-linejoin="miter" stroke-miterlimit="4" stroke-dashoffset="0" stroke-dasharray="3 3" transform="translate(136.635978436 29.355477165)" d="M 0 0m 8.201230866 0l -0.714784368 0.104027198l -0.709344427 0.311289885l -0.698505947 0.516183468l -0.682351415 0.717148582l -0.661003776 0.912655763l -0.6346255 1.101217083l -0.603417341 1.281397476l -0.567616811 1.45182566l -0.527496375 1.611204574l -0.483361372 1.758321249l -0.435547698 1.892056037l -0.384419243 2.011391136l -0.330365125 2.115418334l -0.273796729 2.203345922l -0.215144575 2.274504716l -0.15485504 2.328353156l -0.093386965 2.364481423l -0.031208159 2.382614559l 0.031208159 2.382614559l 0.093386965 2.364481423l 0.15485504 2.328353156l 0.215144575 2.274504716l 0.273796729 2.203345922l 0.330365125 2.115418334l 0.384419243 2.011391136l 0.435547698 1.892056037l 0.483361372 1.758321249l 0.527496375 1.611204574l 0.567616811 1.45182566l 0.603417341 1.281397476l 0.6346255 1.101217083l 0.661003776 0.912655763l 0.682351415 0.717148582l 0.698505947 0.516183468l 0.709344427 0.311289885l 0.714784368 0.104027198"/><path fill="none" stroke="#2e7d32" stroke-width="0.6" stroke-linecap="butt" stroke-linejoin="miter" stroke-miterlimit="4" transform="translate(144.837209302 29.355477165)" d="M 0 0m 0 54.674872441l 0.714784368 -0.104027198l 0.709344427 -0.311289885l 0.698505947 -0.516183468l 0.682351415 -0.717148582l 0.661003776 -0.912655763l 0.6346255 -1.101217083l 0.603417341 -1.281397476l 0.567616811 -1.45182566l 0.527496375 -1.611204574l 0.483361372 -1.758321249l 0.435547698 -1.892056037l 0.384419243 -2.011391136l 0.330365125 -2.115418334l 0.273796729 -2.203345922l 0.215144575 -2.274504716l 0.15485504 -2.328353156l 0.093386965 -2.364481423l 0.031208159 -2.382614559l -0.031208159 -2.382614559l -0.093386965 -2.364481423l -0.15485504 -2.328353156l -0.215144575 -2.274504716l -0.273796729 -2.203345922l -0.330365125 -2.115418334l -0.384419243 -2.011391136l -0.435547698 -1.892056037l -0.483361372 -1.758321249l -0.527496375 -1.611204574l -0.567616811 -1.45182566l -0.603417341 -1.281397476l -0.6346255 -1.101217083l -0.661003776 -0.912655763l -0.682351415 -0.717148582l -0.698505947 -0.516183468l -0.709344427 -0.311289885l -0.714784368 -0.104027198"/><path fill="none" stroke="#a0a0a0" stroke-width="0.45" stroke-linecap="butt" stroke-linejoin="miter" stroke-miterlimit="4" stroke-dashoffset="0" stroke-dasharray="3 3" transform="translate(7.086614173 56.835354331)" d="M 0 0m 0 0.138188976l 1.157114082 0.890172441l 1.229994507 0.827808661l 1.302874931 0.765444882l 1.375755356 0.703081102l 1.448635781 0.640717323l 1.521516206 0.578353543l 1.594396631 0.515989764l 1.667277055 0.453625984l 1.74015748 0.391262205l 1.813037905 0.328898425l 1.88591833 0.266534646l 1.958798755 0.204170866l 2.03167918 0.141807087l 2.104559604 0.079443307l 2.177440029 0.017079528l 2.250320454 -0.045284252l 2.323200879 -0.107648031l 2.396081304 -0.170011811l 2.468961729 -0.232375591l 2.541842153 -0.29473937l 2.614722578 -0.35710315l 2.687603003 -0.419466929l 2.760483428 -0.481830709l 2.833363853 -0.544194488l 2.906244278 -0.606558268l 2.979124702 -0.668922047l 3.052005127 -0.731285827l 3.124885552 -0.793649606l 3.197765977 -0.856013386l 3.270646402 -0.633495276l 3.343526827 0.980740945l 3.416407251 1.043104724l 3.489287676 1.105468504l 3.562168101 1.167832283l 3.635048526 1.230196063l 3.707928951 1.292559843l 3.780809376 1.354923622l 3.8536898 1.417287402l 3.926570225 1.479651181l 3.99945065 1.542014961l 4.072331075 1.60437874l 4.1452115 1.66674252l 4.218091925 1.729106299l 4.290972349 1.791470079l 4.363852774 1.853833858l 4.436733199 1.916197638l 4.509613624 1.978561417l 4.582494049 2.040925197l 4.655374474 2.103288976l 4.728254898 2.165652756l 4.801135323 2.228016535l 4.874015748 2.290380315l 4.946896173 2.352744094l 5.019776598 2.415107874l 5.092657023 2.477471654l 5.165537447 2.539835433l 5.238417872 2.602199213l 5.311298297 2.664562992l 5.384178722 2.726926772l 5.457059147 2.789290551"/><path fill="none" stroke="#2e7d32" stroke-width="1.5" stroke-linecap="butt" stroke-linejoin="miter" stroke-miterlimit="4" transform="translate(7.086614173 0)" d="M 0 0m 0 56.412283465l 1.157114082 -0.890172441l 1.229994507 -0.827808661l 1.302874931 -0.765444882l 1.375755356 -0.703081102l 1.448635781 -0.640717323l 1.521516206 -0.578353543l 1.594396631 -0.515989764l 1.667277055 -0.453625984l 1.74015748 -0.391262205l 1.813037905 -0.328898425l 1.88591833 -0.266534646l 1.958798755 -0.204170866l 2.03167918 -0.141807087l 2.104559604 -0.079443307l 2.177440029 -0.017079528l 2.250320454 0.045284252l 2.323200879 0.107648031l 2.396081304 0.170011811l 2.468961729 0.232375591l 2.541842153 0.29473937l 2.614722578 0.35710315l 2.687603003 0.419466929l 2.760483428 0.481830709l 2.833363853 0.544194488l 2.906244278 0.606558268l 2.979124702 0.668922047l 3.052005127 0.731285827l 3.124885552 0.793649606l 3.197765977 0.856013386l 3.270646402 0.633495276l 3.343526827 -0.980740945l 3.416407251 -1.043104724l 3.489287676 -1.105468504l 3.562168101 -1.167832283l 3.635048526 -1.230196063l 3.707928951 -1.292559843l 3.780809376 -1.354923622l 3.8536898 -1.417287402l 3.926570225 -1.479651181l 3.99945065 -1.542014961l 4.072331075 -1.60437874l 4.1452115 -1.66674252l 4.218091925 -1.729106299l 4.290972349 -1.791470079l 4.363852774 -1.853833858l 4.436733199 -1.916197638l 4.509613624 -1.978561417l 4.582494049 -2.040925197l 4.655374474 -2.103288976l 4.728254898 -2.165652756l 4.801135323 -2.228016535l 4.874015748 -2.290380315l 4.946896173 -2.352744094l 5.019776598 -2.415107874l 5.092657023 -2.477471654l 5.165537447 -2.539835433l 5.238417872 -2.602199213l 5.311298297 -2.664562992l 5.384178722 -2.726926772l 5.457059147 -2.789290551"/><path fill="none" stroke="#000000" stroke-width="0.7" stroke-linecap="butt" stroke-linejoin="miter" stroke-miterlimit="4" transform="translate(0 56.692913386)" d="M 0 0h 213.515010587"/><path fill="#000000" fill-rule="nonzero" stroke="#000000" stroke-width="0.7" stroke-linecap="butt" stroke-linejoin="miter" stroke-miterlimit="4" stroke-dashoffset="0" stroke-dasharray="" transform="translate(212.735483028 55.523622047)" d="M 0 0m 3.118110236 1.169291339l -3.118110236 -1.169291339l 0.779527559 1.169291339l -0.779527559 1.169291339l 3.118110236 -1.169291339Z "/><path fill="none" transform="translate(218.267716535 57.543307087)" d="M 0 0h 5.72v 6.94h -5.72v -6.94Z "/><g transform="translate(218.26771652 57.543307055)"><g transform="matrix(1 0 0 -1 0 6.83)"><use xlink:href="#g8F3B43BF00419FE170D741E9CC615A47" x="0" y="0" fill="#000000" fill-rule="nonzero"/></g></g><path fill="none" stroke="#000000" stroke-width="0.7" stroke-linecap="butt" stroke-linejoin="miter" stroke-miterlimit="4" transform="translate(7.086614173 52.440944882)" d="M 0 0v 8.503937008"/><path fill="none" stroke="#000000" stroke-width="0.7" stroke-linecap="butt" stroke-linejoin="miter" stroke-miterlimit="4" transform="translate(205.511811024 52.440944882)" d="M 0 0v 8.503937008"/><path fill="none" transform="translate(4.586614173 63.212598425)" d="M 0 0h 5v 7.05h -5v -7.05Z "/><g transform="translate(4.586614157 63.212598331)"><g transform="matrix(1 0 0 -1 0 6.83)"><use xlink:href="#gAA84A9423BA34B701FF3D1FC1A0341B9" x="0" y="0" fill="#000000" fill-rule="nonzero"/></g></g><path fill="none" transform="translate(203.011811024 63.212598425)" d="M 0 0h 5v 6.83h -5v -6.83Z "/><g transform="translate(203.011811008 63.212598315)"><g transform="matrix(1 0 0 -1 0 6.83)"><use xlink:href="#g187F960CD8D343F130EAFAB63E4BE0DE" x="0" y="0" fill="#000000" fill-rule="nonzero"/></g></g><path fill="none" transform="translate(18.308778337 36.922491843)" d="M 0 0h 10.263v 6.94h -10.263v -6.94Z "/><g transform="translate(18.308778243 36.922491811)"><g transform="matrix(1 0 0 -1 0 6.83)"><use xlink:href="#g8F3B43BF00419FE170D741E9CC615A47" x="0" y="0" fill="#000000" fill-rule="nonzero"/></g><g transform="matrix(1 0 0 -1 5.72 3.2)"><use xlink:href="#g9C0042E55FD1BD8A0767C5F489CC0E48" x="0" y="0" fill="#000000" fill-rule="nonzero"/></g></g></g></g><defs><symbol id="g8F3B43BF00419FE170D741E9CC615A47" overflow="visible"><path d="M 0 0m 5.27 3.73c 0 0.46 -0.45 0.69 -0.95 0.69c -0.43 0 -0.77 -0.23 -1.03 -0.69c -0.21 0.46 -0.56 0.69 -1.07 0.69c -0.49 0 -0.89 -0.23 -1.21 -0.68c -0.27 -0.39 -0.41 -0.68 -0.41 -0.87c 0 -0.09 0.05 -0.14 0.15 -0.14c 0.09 0 0.15 0.05 0.17 0.14c 0.19 0.58 0.61 1.26 1.28 1.26c 0.33 0 0.49 -0.21 0.49 -0.62c 0 -0.21 -0.18 -0.99 -0.53 -2.33c -0.17 -0.67 -0.47 -1 -0.9 -1c -0.14 0 -0.27 0.03 -0.38 0.08c 0.26 0.1 0.39 0.28 0.39 0.54c 0 0.26 -0.13 0.39 -0.4 0.39c -0.33 0 -0.58 -0.28 -0.58 -0.61c 0 -0.46 0.47 -0.69 0.96 -0.69c 0.42 0 0.76 0.23 1.03 0.69c 0.19 -0.46 0.55 -0.69 1.07 -0.69c 0.48 0 0.88 0.23 1.2 0.68c 0.27 0.39 0.41 0.68 0.41 0.87c 0 0.09 -0.05 0.14 -0.15 0.14c -0.09 0 -0.14 -0.05 -0.17 -0.14c -0.17 -0.57 -0.62 -1.26 -1.27 -1.26c -0.33 0 -0.5 0.2 -0.5 0.61c 0 0.13 0.05 0.41 0.16 0.86l 0.34 1.35c 0.19 0.75 0.5 1.13 0.94 1.13c 0.14 0 0.27 -0.03 0.38 -0.08c -0.27 -0.09 -0.4 -0.27 -0.4 -0.54c 0 -0.26 0.14 -0.39 0.41 -0.39c 0.32 0 0.57 0.29 0.57 0.61Z "/></symbol><symbol id="gAA84A9423BA34B701FF3D1FC1A0341B9" overflow="visible"><path d="M 0 0m 2.49 -0.22c 1.41 0 2.11 1.14 2.11 3.42c 0 1.53 -0.32 2.55 -0.95 3.05c -0.35 0.27 -0.74 0.41 -1.15 0.41c -1.41 0 -2.11 -1.15 -2.11 -3.46c 0 -1.84 0.49 -3.42 2.1 -3.42Z m 1.12 5.46c 0.07 -0.35 0.1 -0.99 0.1 -1.92c 0 -0.92 -0.04 -1.6 -0.11 -2.04c -0.13 -0.8 -0.5 -1.2 -1.11 -1.2c -0.23 0 -0.46 0.09 -0.67 0.26c -0.27 0.23 -0.43 0.7 -0.5 1.42c -0.03 0.25 -0.04 0.77 -0.04 1.56c 0 0.87 0.03 1.48 0.08 1.81c 0.09 0.55 0.27 0.9 0.55 1.05c 0.22 0.12 0.41 0.18 0.58 0.18c 0.65 0 1.01 -0.53 1.12 -1.12Z "/></symbol><symbol id="g187F960CD8D343F130EAFAB63E4BE0DE" overflow="visible"><path d="M 0 0m 2.37 6.66c -0.51 0 -0.94 -0.18 -1.31 -0.54c -0.37 -0.36 -0.56 -0.78 -0.56 -1.29c 0 -0.34 0.25 -0.59 0.56 -0.59c 0.3 0 0.55 0.26 0.55 0.56c 0 0.33 -0.24 0.56 -0.56 0.56c -0.03 0 -0.05 0 -0.07 -0.01c 0.19 0.49 0.63 0.92 1.26 0.92c 0.82 0 1.28 -0.71 1.28 -1.57c 0 -0.67 -0.34 -1.39 -1.02 -2.15l -1.88 -2.12c -0.13 -0.15 -0.12 -0.14 -0.12 -0.43h 3.71l 0.29 1.8h -0.33c -0.08 -0.51 -0.15 -0.8 -0.21 -0.89c -0.05 -0.05 -0.35 -0.07 -0.9 -0.07h -1.67l 0.97 0.95c 0.68 0.64 1.54 1.33 1.83 1.86c 0.2 0.35 0.3 0.7 0.3 1.05c 0 1.18 -0.92 1.96 -2.12 1.96Z "/></symbol><symbol id="g9C0042E55FD1BD8A0767C5F489CC0E48" overflow="visible"><path d="M 0 0m 0.833 2.968c 0.224 0 0.392 0.168 0.392 0.392c 0 0.252 -0.133 0.385 -0.392 0.392c 0.154 0.329 0.504 0.595 0.959 0.595c 0.616 0 1.022 -0.462 1.022 -1.078c 0 -0.336 -0.119 -0.658 -0.364 -0.973c -0.119 -0.161 -0.21 -0.273 -0.273 -0.336l -1.659 -1.645c -0.091 -0.084 -0.077 -0.105 -0.077 -0.315h 2.884l 0.217 1.316h -0.294c -0.049 -0.371 -0.105 -0.588 -0.168 -0.637c -0.035 -0.021 -0.252 -0.035 -0.665 -0.035h -1.19c 0.469 0.413 0.903 0.784 1.316 1.113c 0.315 0.245 0.539 0.462 0.679 0.651c 0.21 0.273 0.315 0.56 0.315 0.861c 0 0.434 -0.168 0.777 -0.511 1.029c -0.301 0.231 -0.679 0.35 -1.127 0.35c -0.385 0 -0.714 -0.112 -1.001 -0.336c -0.301 -0.245 -0.455 -0.553 -0.455 -0.931c 0 -0.238 0.175 -0.413 0.392 -0.413Z "/></symbol></defs></svg>