<?xml version="1.0" encoding="UTF-8"?>
<svg xmlns="http://www.w3.org/2000/svg" xmlns:xlink="http://www.w3.org/1999/xlink" width="146pt" height="22pt" viewBox="0 0 146 22" version="1.1">
<g>
<path fill="#BE5190" d="
M15.008,12.922h1.246l0.719,4.344c0.121,0.703,0.273,2.086,0.355,3.145c0.078,-1.059,0.227,-2.43,0.352,-3.145l0.73,-4.344h1.277l0.73,4.344c0.121,0.703,0.258,2.074,0.34,3.117c0.082,-1.043,0.246,-2.414,0.367,-3.117l0.719,-4.344h1.207l-1.684,8.816h-1.285l-0.723,-4.34c-0.105,-0.652,-0.258,-1.883,-0.336,-2.902c-0.082,1.02,-0.219,2.25,-0.324,2.902l-0.734,4.34h-1.273Z
M24.27,12.922h4.125v1.059h-2.875v2.699h2.32v1.043h-2.32v2.961h2.875v1.055h-4.125Z
M29.125,12.922h5.059v1.059h-1.914v7.758h-1.246v-7.758h-1.898Z
M35.227,12.922h4.125v1.059h-2.875v2.699h2.316v1.043h-2.316v2.961h2.875v1.055h-4.125Z
M40.992,12.922h1.438l2.781,7.027c-0.098,-0.719,-0.18,-1.559,-0.18,-2.348v-4.68h1.195v8.816h-1.438l-2.809,-7.051c0.109,0.719,0.203,1.574,0.203,2.371v4.68h-1.191Z
M52.98,17.332c0,-3.297,0.719,-4.57,2.859,-4.57c0.652,0,1.234,0.16,1.52,0.324v1.152c-0.324,-0.176,-0.895,-0.352,-1.438,-0.352c-1.289,0,-1.652,0.582,-1.652,3.445c0,2.887,0.391,3.457,1.652,3.457c0.559,0,1.195,-0.188,1.52,-0.379v1.152c-0.285,0.164,-0.961,0.34,-1.574,0.34c-2.32,0.016,-2.887,-1.273,-2.887,-4.57
M62.656,17.738h-2.684v4h-1.25v-8.816h1.25v3.758h2.684v-3.758h1.25v8.816h-1.25Z
M66.891,18.688h1.938l-0.367,-1.465c-0.188,-0.734,-0.434,-1.859,-0.582,-2.836c-0.164,0.977,-0.422,2.102,-0.609,2.836ZM67.227,12.922h1.289l2.348,8.816h-1.305l-0.516,-1.992h-2.398l-0.5,1.992h-1.262l2.344,-8.816
M73.086,13.98v3.512h0.734c0.973,0,1.504,-0.352,1.504,-1.762c0,-1.41,-0.531,-1.75,-1.504,-1.75ZM71.84,12.922h2.113c1.668,0,2.66,0.707,2.66,2.809c0,2.051,-1.031,2.809,-2.66,2.809h-0.867v3.199h-1.246v-8.816
M79.312,13.98v3.512h0.73c0.977,0,1.508,-0.352,1.508,-1.762c0,-1.41,-0.531,-1.75,-1.508,-1.75ZM78.062,12.922h2.117c1.668,0,2.66,0.707,2.66,2.809c0,2.051,-1.031,2.809,-2.66,2.809h-0.867v3.199h-1.25v-8.816
M84.285,12.922h4.125v1.059h-2.875v2.699h2.32v1.043h-2.32v2.961h2.875v1.055h-4.125Z
M90.051,12.922h1.438l2.781,7.027c-0.094,-0.719,-0.176,-1.559,-0.176,-2.348v-4.68h1.191v8.816h-1.434l-2.812,-7.051c0.109,0.719,0.203,1.574,0.203,2.371v4.68h-1.191Z
M15.734,0.48h3.988v1.059h-2.738v2.699h2.199v1.043h-2.199v4.016h-1.25Z
M21.594,6.246h1.941l-0.367,-1.465c-0.188,-0.734,-0.434,-1.859,-0.582,-2.836c-0.164,0.977,-0.422,2.102,-0.609,2.836ZM21.934,0.48h1.289l2.348,8.816h-1.301l-0.516,-1.992h-2.402l-0.504,1.992h-1.258l2.344,-8.816
M26.207,4.891c0,-3.297,0.719,-4.574,2.863,-4.574c0.648,0,1.234,0.164,1.52,0.328v1.152c-0.328,-0.176,-0.898,-0.352,-1.441,-0.352c-1.289,0,-1.652,0.582,-1.652,3.445c0,2.887,0.391,3.457,1.652,3.457c0.559,0,1.195,-0.191,1.52,-0.379v1.152c-0.285,0.164,-0.961,0.34,-1.574,0.34c-2.316,0.012,-2.887,-1.277,-2.887,-4.57
M31.883,6.641v-6.16h1.25v6.215c0,1.301,0.445,1.68,1.355,1.68c0.91,0,1.355,-0.379,1.355,-1.68v-6.215h1.25v6.16c0,2.008,-0.844,2.82,-2.605,2.82c-1.789,0,-2.605,-0.789,-2.605,-2.82
M38.988,0.48h1.25v7.758h2.738v1.059h-3.988Z
M42.543,0.48h5.059v1.059h-1.91v7.758h-1.25v-7.758h-1.898Z
M48.645,0.48h4.125v1.059h-2.875v2.699h2.32v1.043h-2.32v2.957h2.875v1.059h-4.125Z
M54.41,9.297h1.246v-8.816h-1.246Z
M56.703,0.48h5.059v1.059h-1.914v7.758h-1.25v-7.758h-1.895Z
M65.195,0.48h3.988v1.059h-2.738v2.699h2.195v1.043h-2.195v4.016h-1.25Z
M71.055,6.246h1.938l-0.363,-1.465c-0.191,-0.734,-0.434,-1.859,-0.586,-2.836c-0.16,0.977,-0.422,2.102,-0.609,2.836ZM71.395,0.48h1.285l2.348,8.816h-1.301l-0.516,-1.992h-2.402l-0.5,1.992h-1.262l2.348,-8.816
M77.254,1.539v3.105h0.66c0.98,0,1.629,-0.203,1.629,-1.559c0,-1.344,-0.648,-1.547,-1.629,-1.547ZM76.004,0.48h2.035c1.625,0,2.793,0.609,2.793,2.605c0,1.395,-0.68,2.074,-1.531,2.387l1.871,3.824h-1.426l-1.652,-3.594h-0.84v3.594h-1.25v-8.816
M82.527,0.48h1.613l1.547,4.641l1.559,-4.641h1.562v8.816h-1.195v-4.582c0,-0.98,0.07,-1.996,0.148,-2.785l-1.602,4.75h-0.988l-1.613,-4.762c0.082,0.789,0.164,1.816,0.164,2.797v4.582h-1.195Z
M91.789,6.246h1.941l-0.367,-1.465c-0.191,-0.734,-0.434,-1.859,-0.586,-2.836c-0.16,0.977,-0.418,2.102,-0.605,2.836ZM92.129,0.48h1.289l2.348,8.816h-1.305l-0.516,-1.992h-2.398l-0.504,1.992h-1.262l2.348,-8.816
M96.398,4.891c0,-3.297,0.719,-4.574,2.863,-4.574c0.652,0,1.234,0.164,1.52,0.328v1.152c-0.324,-0.176,-0.895,-0.352,-1.438,-0.352c-1.289,0,-1.656,0.582,-1.656,3.445c0,2.887,0.395,3.457,1.656,3.457c0.555,0,1.191,-0.191,1.52,-0.379v1.152c-0.285,0.164,-0.965,0.34,-1.574,0.34c-2.32,0.012,-2.891,-1.277,-2.891,-4.57
M102.285,0.48h4.125v1.059h-2.875v2.699h2.32v1.043h-2.32v2.957h2.875v1.059h-4.125Z
M107.914,6.641v-6.16h1.246v6.215c0,1.301,0.449,1.68,1.359,1.68c0.91,0,1.355,-0.379,1.355,-1.68v-6.215h1.246v6.16c0,2.008,-0.84,2.82,-2.602,2.82c-1.789,0,-2.605,-0.789,-2.605,-2.82
M114.098,0.48h5.059v1.059h-1.91v7.758h-1.25v-7.758h-1.898Z
M120.199,9.297h1.25v-8.816h-1.25Z
M128.203,4.891c0,-3.297,0.719,-4.574,2.859,-4.574c0.656,0,1.238,0.164,1.523,0.328v1.152c-0.328,-0.176,-0.898,-0.352,-1.441,-0.352c-1.289,0,-1.652,0.582,-1.652,3.445c0,2.887,0.395,3.457,1.652,3.457c0.559,0,1.195,-0.191,1.52,-0.379v1.152c-0.281,0.164,-0.961,0.34,-1.57,0.34c-2.32,0.012,-2.891,-1.277,-2.891,-4.57
M138.023,5.297h-2.688v4h-1.246v-8.816h1.246v3.758h2.688v-3.758h1.246v8.816h-1.246Z
M141.234,0.48h4.125v1.059h-2.875v2.699h2.32v1.043h-2.32v2.957h2.875v1.059h-4.125Z
M125.566,1.387c0.551,0,1.07,0.18,1.309,0.367v-1.125c-0.238,-0.145,-0.824,-0.309,-1.418,-0.309c-1.656,0,-2.566,0.941,-2.566,2.309c0,1.137,0.48,1.684,1.258,2.355l0.711,0.613c0.586,0.488,0.949,0.867,0.949,1.602c0,0.855,-0.566,1.195,-1.418,1.195c-0.645,0,-1.18,-0.18,-1.488,-0.391v1.145c0.273,0.156,0.836,0.316,1.602,0.312c1.648,-0.004,2.562,-0.941,2.562,-2.305c0.004,-1.137,-0.48,-1.688,-1.258,-2.355l-0.707,-0.613c-0.59,-0.504,-0.953,-0.867,-0.953,-1.598c0.004,-0.863,0.566,-1.199,1.418,-1.203
M50.344,13.832c0.551,-0.004,1.07,0.18,1.309,0.367v-1.125c-0.238,-0.148,-0.824,-0.309,-1.418,-0.309c-1.656,0,-2.566,0.941,-2.566,2.305c0,1.141,0.48,1.688,1.258,2.355l0.711,0.613c0.586,0.492,0.949,0.867,0.949,1.602c0,0.855,-0.566,1.199,-1.418,1.199c-0.645,0,-1.18,-0.184,-1.488,-0.395v1.145c0.27,0.156,0.836,0.316,1.598,0.316c1.652,-0.004,2.562,-0.941,2.566,-2.309c0,-1.137,-0.484,-1.688,-1.258,-2.355l-0.711,-0.613c-0.586,-0.5,-0.953,-0.863,-0.949,-1.598c0,-0.863,0.562,-1.199,1.418,-1.199
M6.496,6.094v4.391h-1.246v-4.391c0,-0.348,0.277,-0.625,0.621,-0.625c0.344,0,0.625,0.277,0.625,0.625
M8.988,6.094v4.391h-1.246v-4.391c0,-1.035,-0.836,-1.871,-1.871,-1.871c-1.031,0,-1.871,0.836,-1.871,1.871v4.391h-1.246v-4.391c0,-1.723,1.395,-3.121,3.117,-3.121c1.723,0,3.117,1.398,3.117,3.121
M11.484,6.094v4.391h-1.246v-4.391c0,-2.414,-1.957,-4.367,-4.367,-4.367c-2.41,0,-4.363,1.953,-4.363,4.367v4.391h-1.246v-4.391c0,-3.102,2.512,-5.613,5.609,-5.613c3.102,0,5.613,2.512,5.613,5.613
M11.484,16.129v-4.395h-1.246v4.395c0,2.41,-1.957,4.363,-4.367,4.363c-2.41,0,-4.363,-1.953,-4.363,-4.363v-4.395h-1.246v4.395c0,3.098,2.512,5.609,5.609,5.609c3.102,0,5.613,-2.512,5.613,-5.609
"/>
</g>
</svg>
