<?xml version="1.0" encoding="UTF-8" standalone="no"?>
<svg
   width="265"
   height="265"
   fill-rule="evenodd"
   version="1.1"
   id="svg3"
   xmlns="http://www.w3.org/2000/svg"
   xmlns:svg="http://www.w3.org/2000/svg">
  <defs
     id="defs3" />
  <path
     d="M 251.75,132.5 C 251.75,66.64 198.36,13.25 132.5,13.25 66.64,13.25 13.25,66.64 13.25,132.5 c 0,65.86 53.39,119.25 119.25,119.25 65.86,0 119.25,-53.39 119.25,-119.25"
     fill="#ecece7"
     id="path1" />
  <path
     d="m 83.21,158.864 c -7.642,2.085 -10.24,-0.353 -13.937,-3.232 2.537,11.803 10.711,17.222 17.867,18.923 8.27,1.965 14.525,2.396 17.349,9.101 -0.494,-12.853 6.532,-20.177 11.739,-27.919 5.207,-7.742 -2.848,-23.963 -11.858,-25.445 -0.228,5.104 3.437,8.318 2.297,15.041 -2.513,-4.5 -4.216,-15.041 -21.514,-15.07 0.368,1.841 1.26,1.791 1.853,3.294 -5.493,0.706 -11.384,-3.236 -13.424,-9.682 -4.813,15.352 4.552,28.462 9.628,34.991 z m 42.491,3.172 c -5.2,6.091 -4.098,14.222 -7.853,20.99 -4.591,8.274 -15.402,9.125 -21.877,14.033 -5.872,4.45 -7.541,14.472 -1.659,19.739 6.453,5.778 15.727,2.589 20.396,-2.848 4.361,-5.079 4.143,-17.564 12.288,-24.569 4.863,-4.182 12.685,-5.384 17.29,-10.779 L 215.298,95.419 213.864,81.61 194.516,81.426 Z m 15.685,13.531 c -3.251,3.808 -8.09,6.198 -13.102,5.906 l 81.798,-95.817 0.874,8.419 z m -16.189,3.108 c -1.422,-4.952 0.089,-9.722 3.08,-13.226 l 68.141,-79.836 8.153,0.078 z M 66.509,115.259 c -4.401,-2.244 -5.189,-4.437 -7.034,-7.42 -7.525,17.441 -4.464,30.772 4.938,46.182 -2.776,0.734 -6.333,0.318 -8.206,-0.568 -0.21,12.516 14.304,17.267 14.657,18.937 l -3.906,-0.324 c 8.629,16.312 26.276,1.13 37.167,18.55 4.716,0.26 14.11,-10.49 11.253,-18.601 -1.125,2.196 -3.498,4.488 -5.744,5.264 2.444,-7.934 16.512,-24.182 19.741,-34.066 5.521,-16.896 -2.237,-50.773 -15.795,-62.621 0.361,3.119 0.42,6.374 -0.018,9.855 -13.942,-5.47 -7.743,-24.803 -0.366,-34.341 -19.989,9.555 -53.571,27.554 -46.69,59.153"
     id="path2" />
  <path
     d="M 238.369,132.5 C 238.369,74.03 190.97,26.631 132.5,26.631 a 105.42,105.42 0 0 0 -67.175,24.04 l 149.366,148.554 c 14.802,-18.209 23.678,-41.429 23.678,-66.725 z M 50.309,65.775 c -14.801,18.21 -23.678,41.429 -23.678,66.725 0,58.47 47.399,105.869 105.869,105.869 25.503,0 48.899,-9.019 67.175,-24.04 z M 265,132.5 C 265,59.322 205.678,0 132.5,0 59.322,0 0,59.322 0,132.5 0,205.678 59.322,265 132.5,265 205.678,265 265,205.678 265,132.5"
     fill="#9b2423"
     id="path3" />
</svg>
