<?xml version="1.0" encoding="UTF-8" standalone="no"?>
<svg
   width="265"
   height="265"
   fill-rule="evenodd"
   version="1.1"
   id="svg4"
   xmlns="http://www.w3.org/2000/svg"
   xmlns:svg="http://www.w3.org/2000/svg">
  <defs
     id="defs4" />
  <path
     d="M 251.75,132.5 C 251.75,66.64 198.36,13.25 132.5,13.25 66.64,13.25 13.25,66.64 13.25,132.5 c 0,65.86 53.39,119.25 119.25,119.25 65.86,0 119.25,-53.39 119.25,-119.25"
     fill="#ecece7"
     id="path1" />
  <path
     d="m 118.341,152.571 2.328,-1.164 0.633,-0.194 c 9.479,-1.087 -0.368,8.994 1.062,17.218 l 0.102,0.046 c 0.173,0.077 0.347,-0.035 0.485,-0.143 0.296,-0.24 0.48,-0.75 0.628,-1.169 1.731,-4.778 4.487,-11.348 6.845,-16.978 3.093,-7.376 8.244,-13.333 13.737,-19.051 l 3.691,-3.681 3.88,-3.538 3.982,-3.4 -10.092,-15.952 -1.123,0.582 c -6.682,2.323 -11.639,-5.712 -6.692,-10.572 l 0.97,-0.781 -0.781,-1.261 -5.63,2.384 -5.63,2.18 -5.676,2.231 c -7.611,3.042 -14.773,6.605 -21.404,11.445 l -4.9,3.532 a 27.18,27.18 0 0 0 -4.513,4.084 l -1.986,2.266 c -0.419,0.48 -0.873,0.995 -1.021,1.613 -0.133,0.536 0.587,0.368 0.924,0.291 0.317,-0.077 1.853,-0.766 2.767,-1.174 1.388,-0.623 2.716,-1.404 4.171,-1.889 0.71,-0.24 1.455,-0.485 2.185,-0.531 0.516,-0.034 0.96,0.51 0.633,0.97 l -0.439,0.628 -1.016,1.174 -1.072,1.062 c -1.445,1.419 -2.996,2.726 -4.416,4.16 l -1.067,1.077 c -0.332,0.337 0.051,0.914 0.485,0.674 l 5.294,-2.956 2.808,-1.215 1.46,-0.383 1.557,-0.148 c 0.567,-0.051 1.016,0.465 0.868,1.016 -0.127,0.495 -0.301,1.143 -0.485,1.45 l -0.776,1.322 -0.97,1.159 c -0.459,0.551 -1.516,1.337 -2.333,1.935 l -4.798,3.635 -1.261,0.97 -0.444,0.587 c -0.827,1.113 0.893,0.761 1.46,0.623 l 1.414,-0.332 c 4.712,-1.256 13.604,-5.345 17.81,-5.482 0.459,-0.012 0.633,0.49 0.526,0.883 -0.133,0.495 -0.327,0.975 -0.526,1.45 -0.388,0.919 -0.852,2.027 -1.363,2.665 -0.628,0.786 -1.302,1.628 -2.042,2.231 l -2.374,1.945 c -0.49,0.398 -1.179,0.592 -1.506,1.164 l -0.194,0.337 c -0.163,0.286 0.158,0.592 0.439,0.434 l 0.679,-0.388 c 0.25,-0.143 1.297,-0.807 1.935,-1.22 0.847,-0.536 1.664,-1.133 2.527,-1.644 a 4.27,4.27 0 0 1 1.072,-0.439 c 0.373,-0.097 0.924,-0.035 0.924,0.439 0,0.526 0,1.189 -0.158,1.557 -0.296,0.694 -0.704,1.332 -1.159,1.935 -1.225,1.618 -2.726,3.002 -4.023,4.558 -0.49,0.582 -1.337,1.598 -1.414,1.797 l -0.291,0.725 c -0.123,0.306 0.204,0.521 0.485,0.49 0.265,-0.035 0.536,-0.077 0.776,-0.194 0.459,-0.23 0.909,-0.465 1.312,-0.776 l 4.793,-3.732 c 1.593,-1.24 3.109,-2.583 4.523,-4.028 4.196,-4.313 8.443,-8.586 13.053,-12.461 3.318,-2.787 7.325,-6.279 11.215,-8.295 a 23.39,23.39 0 0 1 2.767,-1.21 c 0.551,-0.199 2.629,-0.643 3.155,-0.102 0.444,0.459 0.373,1.149 0.092,1.69 -1.536,2.961 -3.961,5.329 -6.013,7.917 -1.664,2.093 -3.624,3.91 -5.585,5.712 l -12.665,11.307 c -0.674,0.633 -2.088,2.614 -3.063,3.977 -0.49,0.679 -0.965,1.383 -1.256,2.175 z m -25.666,-13.543 1.026,-0.194 c 4.436,-1.261 9.285,-3.15 13.732,-4.604 l 1.945,-0.633 -0.679,1.113 -0.929,1.026 c -1.639,1.797 -5.253,3.941 -6.11,6.253 l -0.051,0.383 c -0.214,1.582 1.521,2.476 2.864,1.848 l 1.552,-0.73 1.506,-0.822 -1.409,1.552 -1.353,1.654 c -4.502,5.385 -2.425,8.673 4.119,4.793 0.51,-0.301 0.939,-0.72 1.409,-1.067 10.75,-7.892 19.27,-19.541 30.96,-26.713 l 1.404,-0.776 1.404,-0.633 -1.986,2.573 -2.18,2.573 c -6.432,8.423 -24.171,18.734 -25.672,29.235 -0.041,0.291 0.051,0.592 0.286,0.776 1.761,1.399 4.804,-2.966 7.861,-3.303 0.582,-0.066 1.031,0.531 0.771,1.067 -1.266,2.644 -2.389,6.08 -2.91,8.928 l -0.189,1.312 c -0.189,1.317 -0.291,2.66 -0.051,3.977 l 0.24,1.307 c 0.327,1.782 3.308,2.7 4.18,0.939 10.7,-23.196 7.56,-26.483 29.939,-46.228 l 2.578,-2.18 50.128,-36.187 -21.164,-33.41 -42.267,16.345 -1.843,-20.664 c -0.791,-5.462 -8.402,-4.543 -8.101,0.735 l 2.037,22.986 -8.494,3.241 9.51,15.089 -3.241,1.404 -3.359,1.353 c -15.508,5.707 -27.79,11.118 -40.225,22.119 -0.965,0.853 -1.797,1.833 -2.624,2.818 l -1.215,1.45 -0.97,1.363 -0.383,0.72 c -0.863,1.628 0.439,3.706 2.323,3.247 l 0.781,-0.189 1.552,-0.582 3.058,-1.307 -2.374,2.175 -1.118,1.169 -1.072,1.205 -0.919,1.312 -0.827,1.414 c -0.465,0.801 -0.158,2.073 0.919,1.986 2.557,-0.209 7.882,-4.171 10.439,-5.089 l 0.725,-0.24 0.822,-0.097 -0.771,0.776 -0.873,0.771 c -2.486,2.021 -5.6,3.788 -7.718,6.059 -1.343,1.445 -3.313,5.508 0.291,4.992 z m 51.062,-38.54 -4.564,-51.695 c -0.383,-1.863 -2.787,-1.654 -2.864,0.24 l 4.61,51.7 z"
     id="path2" />
  <path
     d="M 238.369,132.5 C 238.369,74.03 190.97,26.631 132.5,26.631 a 105.42,105.42 0 0 0 -67.175,24.04 l 149.366,148.554 c 14.802,-18.209 23.678,-41.429 23.678,-66.725 z M 50.309,65.775 c -14.801,18.21 -23.678,41.429 -23.678,66.725 0,58.47 47.399,105.869 105.869,105.869 25.503,0 48.899,-9.019 67.175,-24.04 z M 265,132.5 C 265,59.322 205.678,0 132.5,0 59.322,0 0,59.322 0,132.5 0,205.678 59.322,265 132.5,265 205.678,265 265,205.678 265,132.5"
     fill="#9b2423"
     id="path3" />
  <path
     d="m 75.208,126.963 -0.476,0.961 c -2.353,5.328 0.167,10.297 -1.685,14.862 l -0.531,0.911 -0.577,-0.911 c -0.607,-1.645 -2.201,-4.357 -4.094,-4.665 h -1.053 l 0.622,1.386 0.192,0.724 c 0.734,3.355 0.643,12.716 -0.774,15.914 -0.152,0.354 -0.385,0.875 -0.617,0.972 l -0.344,0.137 -0.334,-0.086 c -0.192,-0.051 -0.466,-0.622 -0.627,-0.977 -0.855,-1.817 -2.186,-4.65 -3.699,-4.65 h -0.435 l -0.046,0.137 v 0.202 c 1.042,3.76 -0.805,7.534 -1.25,11.238 l -0.192,1.483 c -0.106,0.794 0.071,1.624 -0.147,2.404 l -0.101,0.344 -0.283,0.243 -0.385,0.046 -0.334,-0.197 -0.486,-0.572 c -0.496,-0.597 -1.214,-0.946 -1.968,-1.103 l -0.724,-0.157 0.334,1.26 0.197,1.25 c -0.304,5.956 -0.739,12.154 1.098,17.928 0.268,0.835 0.638,1.624 1.017,2.414 2.277,4.691 7.018,7.767 12.261,7.641 l 2.601,-0.061 -2.307,-1.528 c -3.79,-2.419 -7.853,-11.244 -7.691,-15.777 l 0.086,-1.392 0.531,0.633 0.435,0.622 1.007,1.25 0.051,-1.209 c 0.243,-1.447 1.159,-6.001 1.68,-7.206 l 0.673,-1.007 1.012,3.75 1.442,5.672 c 0.349,1.25 0.921,2.419 1.548,3.557 l 0.476,0.87 0.238,0.38 0.339,0.39 0.243,0.091 0.238,-0.046 0.243,-0.091 0.101,-0.197 -0.056,-0.526 -0.192,-0.481 c -0.233,-0.587 -0.339,-1.209 -0.43,-1.832 -0.283,-1.928 -0.638,-4.306 -0.486,-5.814 0.137,-1.29 0.304,-2.96 0.582,-3.846 l 0.582,-1.877 0.283,1.053 c 0.997,1.892 1.548,4.008 2.793,5.774 l 0.673,0.86 0.572,-1.159 c 1.675,-5.227 0.673,-10.965 0.293,-16.339 l -0.192,-2.485 0.673,0.046 0.288,0.091 0.238,0.197 0.87,1.007 c 1.133,1.321 2.049,2.813 2.743,4.407 0.344,0.789 0.759,1.736 0.911,2.414 l 0.582,2.55 a 8.91,8.91 0 0 1 0.187,2.591 l -0.187,2.591 -0.197,1.306 -0.339,1.25 0.82,-0.577 0.724,-0.673 c 0.486,-0.46 0.916,-0.982 1.199,-1.594 l 0.815,-1.776 0.916,-1.771 0.526,1.058 c 0.805,1.316 0.739,5.384 0.152,6.775 l -0.43,1.103 1.392,-0.334 1.295,-0.582 v 1.351 c -0.344,6.022 -4.271,11.097 -9.326,14.087 l -2.409,1.3 1.103,0.334 c 11.992,2.97 23.388,-9.022 20.736,-20.817 l -0.43,-1.058 -0.673,0.855 c -0.546,0.703 -0.633,1.801 -1.493,2.221 l -0.288,0.142 h -0.248 l -0.187,-0.197 c -0.152,-0.152 -0.116,-0.536 -0.091,-0.805 0.435,-4.984 1.452,-8.88 1.488,-14.037 l -0.046,-1.063 -0.147,-1.053 c -0.202,-1.437 -0.597,-2.854 -1.295,-4.134 l -0.536,-0.966 -0.339,-0.435 -0.238,-0.046 -0.288,0.046 -0.142,0.192 c -0.531,1.447 -0.602,2.641 -1.255,4.478 -0.121,0.344 -0.349,0.633 -0.622,0.865 l -0.385,0.329 -0.385,-1.25 c -1.225,-5.055 -1.559,-13.789 -6.209,-17.301 l -1.199,-0.668 v 1.766 l -0.046,1.832 c -0.04,2.818 -1.032,3.734 -1.968,0.334 l -0.921,-3.461 c -1.3,-5.875 -4.377,-6.335 -6.548,-11.542 -0.228,-0.541 -0.162,-1.169 -0.385,-1.715 z"
     id="path4" />
</svg>
