<?xml version="1.0" encoding="UTF-8" standalone="no"?>
<svg
   width="265"
   height="265"
   fill-rule="evenodd"
   version="1.1"
   id="svg3"
   xmlns="http://www.w3.org/2000/svg"
   xmlns:svg="http://www.w3.org/2000/svg">
  <defs
     id="defs3" />
  <path
     d="M 251.75,132.5 C 251.75,66.64 198.36,13.25 132.5,13.25 66.64,13.25 13.25,66.64 13.25,132.5 c 0,65.86 53.39,119.25 119.25,119.25 65.86,0 119.25,-53.39 119.25,-119.25"
     fill="#ecece7"
     id="path1" />
  <path
     d="m 122.945,102.511 3.621,2.054 11.055,-19.488 -0.867,-0.492 7.423,-13.086 6.937,3.935 -7.423,13.085 -0.867,-0.492 -11.055,19.488 30.338,17.21 -55.593,98 -39.162,-22.216 z m -28.938,89.364 6.243,3.542 a 3.71,3.71 0 0 1 1.392,5.041 3.71,3.71 0 0 1 -5.041,1.392 l -6.243,-3.542 a 3.71,3.71 0 0 1 -1.392,-5.041 3.71,3.71 0 0 1 5.041,-1.392 z m 23.462,-47.583 a 3.5622336,3.5622336 0 1 0 -6.197,-3.515 c -0.97,1.712 -0.371,3.886 1.341,4.856 1.712,0.97 3.885,0.371 4.856,-1.341 z m 9.176,5.205 a 3.56,3.56 0 0 0 -1.341,-4.856 c -1.712,-0.97 -3.886,-0.371 -4.857,1.34 -0.971,1.711 -0.371,3.886 1.341,4.857 1.712,0.971 3.886,0.37 4.856,-1.341 z m 9.176,5.205 a 3.56,3.56 0 0 0 -1.341,-4.856 c -1.712,-0.97 -3.886,-0.371 -4.856,1.341 -0.97,1.712 -0.371,3.886 1.341,4.856 1.712,0.97 3.886,0.371 4.856,-1.341 z m -23.524,-1.292 a 3.56,3.56 0 0 0 -1.341,-4.856 c -1.712,-0.97 -3.886,-0.371 -4.856,1.341 -0.97,1.712 -0.371,3.886 1.341,4.856 1.712,0.97 3.886,0.371 4.856,-1.341 z m 9.176,5.205 c 0.971,-1.711 0.37,-3.886 -1.341,-4.857 -1.711,-0.971 -3.886,-0.37 -4.857,1.341 -0.971,1.711 -0.37,3.886 1.341,4.857 1.711,0.971 3.886,0.37 4.857,-1.341 z m 9.176,5.205 c 0.971,-1.711 0.37,-3.886 -1.341,-4.856 -1.711,-0.97 -3.886,-0.371 -4.857,1.341 -0.971,1.712 -0.37,3.886 1.341,4.856 1.711,0.97 3.886,0.371 4.857,-1.341 z m -23.524,-1.293 c 0.971,-1.711 0.37,-3.886 -1.341,-4.856 -1.711,-0.97 -3.886,-0.371 -4.857,1.341 -0.971,1.712 -0.37,3.886 1.341,4.857 1.711,0.971 3.886,0.371 4.857,-1.341 z m 9.175,5.205 a 3.56,3.56 0 0 0 -1.341,-4.856 c -1.712,-0.97 -3.886,-0.371 -4.856,1.341 -0.97,1.712 -0.371,3.886 1.341,4.856 1.712,0.97 3.886,0.371 4.856,-1.341 z m 9.176,5.205 c 0.971,-1.711 0.371,-3.886 -1.341,-4.857 -1.712,-0.971 -3.886,-0.37 -4.856,1.341 -0.97,1.711 -0.371,3.886 1.341,4.857 1.712,0.971 3.886,0.37 4.856,-1.341 z m -23.524,-1.292 c 0.971,-1.712 0.371,-3.886 -1.341,-4.857 -1.712,-0.971 -3.886,-0.37 -4.856,1.341 -0.97,1.711 -0.371,3.886 1.341,4.857 1.712,0.971 3.885,0.37 4.856,-1.341 z m 9.175,5.205 c 0.971,-1.711 0.371,-3.886 -1.34,-4.856 -1.711,-0.97 -3.886,-0.371 -4.857,1.341 a 3.56,3.56 0 0 0 1.341,4.856 c 1.712,0.97 3.886,0.371 4.856,-1.341 z m 9.176,5.205 c 0.971,-1.711 0.371,-3.886 -1.341,-4.857 -1.712,-0.971 -3.886,-0.37 -4.856,1.341 -0.97,1.711 -0.371,3.886 1.341,4.857 1.712,0.971 3.886,0.37 4.856,-1.341 z m -19.925,-11.303 c 0.478,-0.842 0.183,-1.912 -0.66,-2.39 a 1.75,1.75 0 0 0 -2.389,0.66 c -0.477,0.842 -0.183,1.912 0.659,2.389 0.842,0.477 1.912,0.182 2.389,-0.66 z m 18.351,10.41 c 0.478,-0.842 0.183,-1.912 -0.659,-2.39 a 1.75,1.75 0 0 0 -2.389,0.66 c -0.477,0.842 -0.183,1.912 0.66,2.39 a 1.75,1.75 0 0 0 2.389,-0.66 m 62.635,-114.078 4.457,-1.231 c 6.087,22.048 -7.012,45.139 -29.06,51.227 l -1.23,-4.457 c 19.599,-5.411 31.245,-25.94 25.833,-45.539 z M 135.826,41.251 c -19.6,5.411 -31.245,25.94 -25.833,45.539 l -4.457,1.231 c -6.087,-22.048 7.011,-45.139 29.059,-51.227 z m 34.007,29.017 4.457,-1.231 c 4.339,15.715 -4.997,32.172 -20.712,36.511 l -1.231,-4.457 c 13.266,-3.663 21.148,-17.558 17.485,-30.824 z M 139.009,52.783 c -13.266,3.663 -21.148,17.558 -17.485,30.824 l -4.457,1.23 c -4.339,-15.714 4.997,-32.172 20.712,-36.511 z m 18.751,20.819 4.457,-1.231 c 2.508,9.084 -2.889,18.597 -11.973,21.106 l -1.231,-4.457 c 6.636,-1.832 10.578,-8.783 8.746,-15.418 z m -15.418,-8.746 c -6.636,1.832 -10.578,8.783 -8.746,15.418 l -4.457,1.231 c -2.509,-9.084 2.888,-18.598 11.972,-21.106 z"
     id="path2" />
  <path
     d="M 238.369,132.5 C 238.369,74.03 190.97,26.631 132.5,26.631 a 105.42,105.42 0 0 0 -67.175,24.04 l 149.366,148.554 c 14.802,-18.209 23.678,-41.429 23.678,-66.725 z M 50.309,65.775 c -14.801,18.21 -23.678,41.429 -23.678,66.725 0,58.47 47.399,105.869 105.869,105.869 25.503,0 48.899,-9.019 67.175,-24.04 z M 265,132.5 C 265,59.322 205.678,0 132.5,0 59.322,0 0,59.322 0,132.5 0,205.678 59.322,265 132.5,265 205.678,265 265,205.678 265,132.5"
     fill="#9b2423"
     id="path3" />
</svg>
