<?xml version="1.0" encoding="UTF-8" standalone="no"?>
<svg
   width="265"
   height="265"
   fill-rule="evenodd"
   version="1.1"
   id="svg3"
   xmlns="http://www.w3.org/2000/svg"
   xmlns:svg="http://www.w3.org/2000/svg">
  <defs
     id="defs3" />
  <path
     d="M 251.75,132.5 C 251.75,66.64 198.36,13.25 132.5,13.25 66.64,13.25 13.25,66.64 13.25,132.5 c 0,65.86 53.39,119.25 119.25,119.25 65.86,0 119.25,-53.39 119.25,-119.25"
     fill="#ecece7"
     id="path1" />
  <path
     d="m 187.719,82.927 h -18.416 v 98.746 h 18.416 z m -91.78,0 H 77.522 v 98.746 H 95.938 Z M 74.828,87.62 H 62.032 v 22.133 H 74.828 Z M 60.685,84.926 h 14.143 v -4.693 h 23.805 v 4.693 h 67.976 v -4.693 h 23.804 v 4.693 h 15.249 v 93.548 h -15.249 v 5.893 h -23.804 v -5.893 H 98.633 v 5.893 H 74.828 v -5.893 H 59.338 V 84.926 Z m 1.347,66.028 H 74.828 V 133.048 H 62.032 Z M 74.828,112.448 H 62.032 v 17.906 h 12.796 z m 0,41.2 H 62.032 v 22.133 H 74.828 Z M 203.209,87.62 h -12.796 v 22.133 h 12.796 z m -12.796,63.334 h 12.796 v -17.906 h -12.796 z m 12.796,-38.506 h -12.796 v 17.906 h 12.796 z m 0,41.2 h -12.796 v 22.133 h 12.796 z M 166.609,87.62 H 98.633 v 22.133 h 67.976 z m -67.976,63.334 h 67.976 V 133.048 H 98.633 Z m 67.976,-38.506 H 98.633 v 17.906 h 67.976 z m 0,41.2 H 98.633 v 22.133 h 67.976 z M 54.584,185.557 h 155.832 l -4.244,5.758 H 58.828 l -4.244,-5.758"
     id="path2" />
  <path
     d="M 238.369,132.5 C 238.369,74.03 190.97,26.631 132.5,26.631 a 105.42,105.42 0 0 0 -67.175,24.04 l 149.366,148.554 c 14.802,-18.209 23.678,-41.429 23.678,-66.725 z M 50.309,65.775 c -14.801,18.21 -23.678,41.429 -23.678,66.725 0,58.47 47.399,105.869 105.869,105.869 25.503,0 48.899,-9.019 67.175,-24.04 z M 265,132.5 C 265,59.322 205.678,0 132.5,0 59.322,0 0,59.322 0,132.5 0,205.678 59.322,265 132.5,265 205.678,265 265,205.678 265,132.5"
     fill="#9b2423"
     id="path3" />
</svg>
