<?xml version="1.0" encoding="UTF-8" standalone="no"?>
<svg
   width="265"
   height="265"
   fill-rule="evenodd"
   version="1.1"
   id="svg4"
   xmlns="http://www.w3.org/2000/svg"
   xmlns:svg="http://www.w3.org/2000/svg">
  <defs
     id="defs4" />
  <path
     d="M 251.75,132.5 C 251.75,66.64 198.36,13.25 132.5,13.25 66.64,13.25 13.25,66.64 13.25,132.5 c 0,65.86 53.39,119.25 119.25,119.25 65.86,0 119.25,-53.39 119.25,-119.25"
     fill="#ecece7"
     id="path1" />
  <path
     d="m 130.679,89.175 11.66,15.942 20.554,8.919 c 5.711,2.477 1.943,11.161 -3.768,8.683 l -21.662,-9.4 c -0.85,-0.368 -1.51,-0.898 -2.056,-1.646 l -6.374,-8.715 v 22.352 l 18.575,21.322 c 0.748,0.858 1.27,1.882 1.515,3.071 l 4.997,24.235 c 1.4,6.792 -8.82,9.228 -10.351,1.801 l -4.734,-22.96 -19.196,-22.034 c -0.811,-0.93 -0.852,-2.316 -1.278,-3.474 l -0.18,1.081 -6.018,29.591 c -0.166,0.815 -0.446,1.557 -0.828,2.244 L 99.404,181.99 c -3.696,6.642 -12.693,1.213 -9.336,-4.821 l 12.085,-21.72 5.845,-28.743 v -25.869 l -9.707,9.708 v 19.074 c 0,2.613 -2.119,4.733 -4.733,4.733 -2.624,0 -4.733,-2.141 -4.733,-4.749 v -20.994 c 0,-1.313 0.504,-2.488 1.425,-3.41 l 16.575,-16.576 c 0.939,-0.939 2.299,-2.386 3.565,-2.386 h 16.249 c 1.526,0 3.082,1.63 4.039,2.938 z M 118.516,66.28 a 8.94,8.94 0 0 1 8.94,8.94 8.94,8.94 0 0 1 -8.94,8.94 8.94,8.94 0 0 1 -8.94,-8.94 8.94,8.94 0 0 1 8.94,-8.94 z"
     id="path2" />
  <path
     d="m 173.131,217.674 v -22.681 h -31.147 v 31.385 l -4.624,0.35 v -31.735 h -5.849 l -2.448,-14.689 h 8.297 V 178.4 h 4.624 v 1.904 h 31.147 v -5.305 H 85.675 v 5.305 h 9.113 l 2.448,14.69 H 85.675 v 19.434 l -4.625,-2.833 v -16.601 h -4.624 v 13.388 l -4.624,-3.654 v -9.734 h -9.98 c -4.009,-4.53 -7.587,-9.448 -10.674,-14.69 h 20.654 v -5.305 H 48.246 c -0.767,-1.518 -1.493,-3.061 -2.179,-4.625 H 71.801 V 60.612 H 71.4 a 94.79,94.79 0 0 1 5.892,-4.625 h 95.839 v -8.661 c 1.566,0.748 3.108,1.539 4.625,2.369 v 6.291 h 9.952 a 94.79,94.79 0 0 1 5.892,4.625 h -15.844 v 109.763 h 30.195 V 75.846 a 94.67,94.67 0 0 1 4.625,6.743 v 87.785 h 6.358 a 93.83,93.83 0 0 1 -2.179,4.625 h -4.179 v 5.305 h 1.278 c -3.087,5.242 -6.667,10.159 -10.674,14.689 h -25.424 v 20.312 a 93.72,93.72 0 0 1 -4.625,2.369 z m 34.819,-42.675 h -30.195 v 5.305 h 30.195 z m -126.9,0 h -4.624 v 5.305 h 4.624 z m 0,-4.625 V 60.612 H 76.426 V 170.375 Z M 85.675,60.611 v 109.763 h 87.456 V 60.612 Z"
     id="path3" />
  <path
     d="M 238.369,132.5 C 238.369,74.03 190.97,26.631 132.5,26.631 a 105.42,105.42 0 0 0 -67.175,24.04 l 149.366,148.554 c 14.802,-18.209 23.678,-41.429 23.678,-66.725 z M 50.309,65.775 c -14.801,18.21 -23.678,41.429 -23.678,66.725 0,58.47 47.399,105.869 105.869,105.869 25.503,0 48.899,-9.019 67.175,-24.04 z M 265,132.5 C 265,59.322 205.678,0 132.5,0 59.322,0 0,59.322 0,132.5 0,205.678 59.322,265 132.5,265 205.678,265 265,205.678 265,132.5"
     fill="#9b2423"
     id="path4" />
</svg>
