<?xml version="1.0" encoding="UTF-8" standalone="no"?>
<svg
   width="265"
   height="265"
   fill-rule="evenodd"
   version="1.1"
   id="svg3"
   xmlns="http://www.w3.org/2000/svg"
   xmlns:svg="http://www.w3.org/2000/svg">
  <defs
     id="defs3" />
  <path
     d="M 251.75,132.5 C 251.75,66.64 198.36,13.25 132.5,13.25 66.64,13.25 13.25,66.64 13.25,132.5 c 0,65.86 53.39,119.25 119.25,119.25 65.86,0 119.25,-53.39 119.25,-119.25"
     fill="#ecece7"
     id="path1" />
  <path
     d="m 140.72,86.058 c 0,-4.488 -3.638,-8.125 -8.125,-8.125 a 8.13,8.13 0 0 0 -8.125,8.125 8.13,8.13 0 0 0 8.125,8.126 8.13,8.13 0 0 0 8.125,-8.126 z m -19.672,21.827 h 2.221 v 75.096 a 4.1,4.1 0 0 0 4.087,4.087 4.1,4.1 0 0 0 4.087,-4.087 v -44.812 c 0,-0.465 0.379,-0.844 0.844,-0.844 h 0.58 c 0.465,0 0.844,0.379 0.844,0.844 v 44.812 a 4.1,4.1 0 0 0 4.087,4.087 4.1,4.1 0 0 0 4.087,-4.087 v -75.096 h 2.067 v 32.042 c 0,2.059 1.684,3.743 3.743,3.743 2.059,0 3.743,-1.684 3.743,-3.743 v -33.564 c 0,-6.321 -4.704,-9.898 -10.422,-9.898 H 123.92 c -5.427,0 -10.31,4.402 -10.36,9.898 v 33.564 c 0,2.059 1.685,3.743 3.743,3.743 2.058,0 3.744,-1.684 3.744,-3.743 z M 80.264,65.777 H 184.736 V 199.223 H 80.264 Z m 7.714,125.731 h 89.044 V 73.492 H 87.978 Z M 129.671,62.589 V 48.885 l -8.078,8.078 V 49.532 L 132.5,38.625 143.407,49.531 v 7.431 l -8.078,-8.078 v 13.704 z m 0,140.472 v 13.704 l -8.078,-8.077 v 7.431 l 10.907,10.906 10.907,-10.906 v -7.431 l -8.078,8.077 v -13.704 z"
     id="path2" />
  <path
     d="M 238.369,132.5 C 238.369,74.03 190.97,26.631 132.5,26.631 a 105.42,105.42 0 0 0 -67.175,24.04 l 149.366,148.554 c 14.802,-18.209 23.678,-41.429 23.678,-66.725 z M 50.309,65.775 c -14.801,18.21 -23.678,41.429 -23.678,66.725 0,58.47 47.399,105.869 105.869,105.869 25.503,0 48.899,-9.019 67.175,-24.04 z M 265,132.5 C 265,59.322 205.678,0 132.5,0 59.322,0 0,59.322 0,132.5 0,205.678 59.322,265 132.5,265 205.678,265 265,205.678 265,132.5"
     fill="#9b2423"
     id="path3" />
</svg>
