<?xml version="1.0" encoding="UTF-8" standalone="no"?>
<svg
   width="265"
   height="265"
   fill-rule="evenodd"
   version="1.1"
   id="svg3"
   xmlns="http://www.w3.org/2000/svg"
   xmlns:svg="http://www.w3.org/2000/svg">
  <defs
     id="defs3" />
  <path
     d="M 251.75,132.5 C 251.75,66.64 198.36,13.25 132.5,13.25 66.64,13.25 13.25,66.64 13.25,132.5 c 0,65.86 53.39,119.25 119.25,119.25 65.86,0 119.25,-53.39 119.25,-119.25"
     fill="#ecece7"
     id="path1" />
  <path
     d="m 196.949,136.834 26.222,16.271 -26.04,16.166 -2.39,-3.899 16.389,-9.98 h -36.1 v -4.573 h 36.1 L 194.559,140.734 Z M 119.224,93.536 h 26.553 V 40.06 c -8.801,-1.215 -17.763,-1.181 -26.553,0.106 z m 30.243,96.426 48.225,-96.434 -23.6,-12.171 -48.528,97.037 c -6.255,2.691 -10.636,8.907 -10.636,16.148 a 17.5,17.5 0 0 0 4.294,11.51 v 19.06 c 8.791,1.287 17.753,1.322 26.553,0.106 v -19.166 a 17.5,17.5 0 0 0 4.294,-11.509 17.59,17.59 0 0 0 -0.604,-4.581 z m -8.081,4.445 c 0,-4.922 -3.99,-8.912 -8.912,-8.912 -4.922,0 -8.912,3.99 -8.912,8.912 0,4.922 3.99,8.912 8.912,8.912 4.922,0 8.912,-3.99 8.912,-8.912 m -33.015,-57.573 -26.222,16.271 26.04,16.166 2.391,-3.899 -16.389,-9.98 h 36.099 v -4.573 h -36.1 l 16.571,-10.085 z"
     id="path2" />
  <path
     d="M 238.369,132.5 C 238.369,74.03 190.97,26.631 132.5,26.631 a 105.42,105.42 0 0 0 -67.175,24.04 l 149.366,148.554 c 14.802,-18.209 23.678,-41.429 23.678,-66.725 z M 50.309,65.775 c -14.801,18.21 -23.678,41.429 -23.678,66.725 0,58.47 47.399,105.869 105.869,105.869 25.503,0 48.899,-9.019 67.175,-24.04 z M 265,132.5 C 265,59.322 205.678,0 132.5,0 59.322,0 0,59.322 0,132.5 0,205.678 59.322,265 132.5,265 205.678,265 265,205.678 265,132.5"
     fill="#9b2423"
     id="path3" />
</svg>
