<?xml version="1.0" encoding="UTF-8" standalone="no"?>
<svg
   width="264.99976"
   height="264.99976"
   version="1.1"
   id="svg4"
   xmlns="http://www.w3.org/2000/svg"
   xmlns:svg="http://www.w3.org/2000/svg">
  <defs
     id="defs1">
    <clipPath
       id="A">
      <path
         d="M 0,0 H 198.425 V 198.425 H 0 Z"
         id="path1" />
    </clipPath>
  </defs>
  <g
     clip-path="url(#A)"
     transform="matrix(1.335516,0,0,-1.335516,0,264.99976)"
     fill-rule="evenodd"
     id="g4">
    <path
       d="m 188.504,99.213 c 0,49.314 -39.977,89.291 -89.291,89.291 -49.314,0 -89.292,-39.977 -89.292,-89.291 0,-49.314 39.977,-89.292 89.292,-89.292 49.315,0 89.291,39.977 89.291,89.291"
       fill="#ecece7"
       id="path2" />
    <path
       d="m 110.019,114.836 c -2.945,0.007 -5.261,2.034 -5.313,5.083 -0.052,3.049 2.167,5.28 5.304,5.291 3.137,0.011 5.182,-2.709 5.136,-5.329 -0.046,-2.62 -2.183,-5.052 -5.127,-5.045 z m -1.907,5.24 c 0.002,-1.02 0.962,-1.933 1.89,-1.922 0.928,0.011 1.738,0.795 1.822,1.802 0.084,1.007 -0.875,1.89 -1.803,1.919 -0.928,0.029 -1.911,-0.779 -1.909,-1.799 z m 24.571,38.907 -21.054,-14.125 18.303,-24.847 20.334,13.626 -3.024,4.385 -16.584,-11.025 -12.23,16.612 17.022,11.328 z m -50.706,-85.817 8.141,0.035 63.233,44.098 2.496,7.594 -25.439,-18.131 -3.425,1.752 27.89,19.346 c 0.998,0.692 3.282,0.496 4.001,-0.481 l 4.287,-5.819 c 0.815,-1.106 0.408,-3.293 -0.718,-4.081 L 127.452,93.004 130,89.437 l 35.106,24.515 c 2.396,1.673 3.726,7.348 1.994,9.7 l -5.13,6.965 c -1.732,2.352 -8.057,2.249 -10.456,0.584 l -29.235,-20.279 -3.138,1.605 6.537,4.535 -18.053,25.02 C 92.927,130.724 92.009,115.496 100.233,99.41 l 13.001,9.019 0.903,-12.954 z m 25.24,61.883 12.311,-16.952 -17.383,-12.058 c -4.212,9.874 -3.845,22.314 5.072,29.01 z M 31.532,75.735 h 45.176 l 5.826,-7.236 h 81.397 a 71.53,71.53 0 0 0 -4.224,-7.642 L 38.72,60.856 a 71.34,71.34 0 0 0 -7.188,14.879"
       id="path3" />
    <path
       d="m 178.485,99.213 c 0,43.781 -35.491,79.272 -79.272,79.272 -19.096,0 -36.615,-6.753 -50.299,-18.001 L 160.755,49.251 a 78.93,78.93 0 0 1 17.73,49.962 z M 37.67,149.175 C 26.587,135.54 19.94,118.154 19.94,99.213 19.94,55.432 55.431,19.941 99.212,19.941 a 78.94,78.94 0 0 1 50.299,18.001 z M 198.425,99.213 c 0,54.794 -44.419,99.213 -99.213,99.213 C 44.418,198.426 0,154.006 0,99.213 0,44.42 44.419,0 99.213,0 c 54.794,0 99.213,44.419 99.213,99.213"
       fill="#9b2423"
       id="path4" />
  </g>
</svg>
