<?xml version="1.0" encoding="UTF-8" standalone="no"?>
<svg
   fill-rule="evenodd"
   height="265"
   width="265"
   version="1.1"
   id="svg64"
   xmlns="http://www.w3.org/2000/svg"
   xmlns:svg="http://www.w3.org/2000/svg">
  <defs
     id="defs64" />
  <clipPath
     id="a">
    <path
       clip-rule="evenodd"
       d="M 86.015,68.708 A 10.37,10.37 0 0 0 96.382,79.076 10.37,10.37 0 0 0 106.75,68.708 10.37,10.37 0 0 0 96.383,58.34 10.37,10.37 0 0 0 86.016,68.708 Z m 10.367,19.761 c -10.913,0 -19.761,-8.847 -19.761,-19.761 0,-10.914 8.847,-19.761 19.761,-19.761 10.914,0 19.761,8.847 19.761,19.761 0,10.914 -8.847,19.761 -19.761,19.761"
       id="path1" />
  </clipPath>
  <path
     d="M 251.75,132.5 C 251.75,66.64 198.36,13.25 132.5,13.25 66.64,13.25 13.25,66.64 13.25,132.5 c 0,65.86 53.39,119.25 119.25,119.25 65.86,0 119.25,-53.39 119.25,-119.25"
     fill="#ecece7"
     id="path2" />
  <path
     d="m 123.644,47.936 h 26.827 l 0.524,0.524 v 5.365 l -0.524,0.523 h -10.338 v 10.076 h 33.37 v 6.282 h -56.402 c -5.358,0.068 -9.573,3.38 -9.945,10.085 V 95.57 h 8.244 v -8.497 c 0,-5.026 2.994,-7.075 6.281,-7.075 h 51.822 v 6.282 h -50.26 c -1.288,0 -1.546,0 -1.562,0.794 v 14.779 h -20.807 v -21.06 c 0.484,-13.223 9.33,-16.387 16.227,-16.366 h 16.881 V 54.348 h -10.338 l -0.523,-0.523 V 48.46 Z M 78.443,183.369 c 0,-1.377 -1.116,-2.493 -2.492,-2.493 -1.376,0 -2.493,1.116 -2.493,2.493 0,1.377 1.116,2.493 2.493,2.493 1.377,0 2.492,-1.116 2.492,-2.493 z m 2.719,-8.119 c 0,-1.377 -1.116,-2.492 -2.493,-2.492 -1.377,0 -2.492,1.116 -2.492,2.492 0,1.376 1.116,2.493 2.492,2.493 1.376,0 2.493,-1.116 2.493,-2.493 z m 2.771,-8.275 c 0,-1.376 -1.116,-2.492 -2.493,-2.492 -1.377,0 -2.492,1.116 -2.492,2.492 0,1.376 1.116,2.493 2.492,2.493 1.376,0 2.493,-1.116 2.493,-2.493 z m 2.75,-8.213 c 0,-1.377 -1.116,-2.493 -2.493,-2.493 -1.377,0 -2.493,1.116 -2.493,2.493 0,1.377 1.116,2.492 2.493,2.492 1.377,0 2.493,-1.116 2.493,-2.492 z m 2.718,-8.118 c 0,-1.377 -1.116,-2.493 -2.492,-2.493 -1.376,0 -2.493,1.116 -2.493,2.493 0,1.377 1.116,2.492 2.493,2.492 1.377,0 2.492,-1.116 2.492,-2.492 z m 2.866,-8.558 c 0,-1.377 -1.116,-2.493 -2.493,-2.493 -1.377,0 -2.492,1.116 -2.492,2.493 0,1.377 1.116,2.492 2.492,2.492 1.376,0 2.493,-1.116 2.493,-2.492 z m 2.782,-8.307 c 0,-1.377 -1.116,-2.492 -2.492,-2.492 -1.376,0 -2.493,1.116 -2.493,2.492 0,1.376 1.116,2.493 2.493,2.493 1.377,0 2.492,-1.116 2.492,-2.493 z m 2.813,-8.401 c 0,-1.376 -1.116,-2.492 -2.493,-2.492 -1.377,0 -2.493,1.116 -2.493,2.492 0,1.376 1.116,2.493 2.493,2.493 1.377,0 2.493,-1.116 2.493,-2.493 z m 2.677,-7.993 c 0,-1.377 -1.116,-2.493 -2.493,-2.493 -1.377,0 -2.492,1.116 -2.492,2.493 0,1.377 1.116,2.492 2.492,2.492 1.376,0 2.493,-1.116 2.493,-2.492 z m 2.603,-7.774 c 0,-1.376 -1.116,-2.493 -2.492,-2.493 -1.376,0 -2.492,1.116 -2.492,2.493 0,1.377 1.116,2.493 2.492,2.493 1.376,0 2.492,-1.116 2.492,-2.493 z m 5.924,18.728 c 0,-1.377 -1.116,-2.492 -2.493,-2.492 -1.377,0 -2.493,1.116 -2.493,2.492 0,1.376 1.116,2.493 2.493,2.493 1.377,0 2.493,-1.116 2.493,-2.493 z m -0.756,8.474 c 0,-1.377 -1.116,-2.493 -2.493,-2.493 -1.377,0 -2.492,1.116 -2.492,2.493 0,1.377 1.116,2.493 2.492,2.493 1.376,0 2.493,-1.116 2.493,-2.493 z m -0.794,8.89 c 0,-1.377 -1.116,-2.493 -2.493,-2.493 -1.377,0 -2.492,1.116 -2.492,2.493 0,1.377 1.116,2.492 2.492,2.492 1.376,0 2.493,-1.116 2.493,-2.492 z m -0.772,8.654 c 0,-1.377 -1.116,-2.493 -2.493,-2.493 -1.377,0 -2.492,1.116 -2.492,2.493 0,1.377 1.116,2.492 2.492,2.492 1.376,0 2.493,-1.116 2.493,-2.492 z m 3.094,-34.682 c 0,-1.376 -1.116,-2.493 -2.492,-2.493 -1.376,0 -2.493,1.116 -2.493,2.493 0,1.377 1.116,2.493 2.493,2.493 1.377,0 2.492,-1.116 2.492,-2.493 z m 0.823,-9.219 c 0,-1.377 -1.116,-2.492 -2.493,-2.492 -1.377,0 -2.492,1.116 -2.492,2.492 0,1.376 1.116,2.493 2.492,2.493 1.376,0 2.493,-1.116 2.493,-2.493 z m 11.564,26.512 c 0,-1.376 -1.116,-2.492 -2.493,-2.492 -1.377,0 -2.493,1.116 -2.493,2.492 0,1.376 1.116,2.493 2.493,2.493 1.377,0 2.493,-1.116 2.493,-2.493 z m -0.853,-8.35 c 0,-1.377 -1.116,-2.493 -2.493,-2.493 -1.377,0 -2.492,1.116 -2.492,2.493 0,1.377 1.116,2.492 2.492,2.492 1.376,0 2.493,-1.116 2.493,-2.492 z m -0.928,-9.086 c 0,-1.377 -1.116,-2.492 -2.493,-2.492 -1.377,0 -2.493,1.116 -2.493,2.492 0,1.376 1.116,2.492 2.493,2.492 1.377,0 2.493,-1.116 2.493,-2.492 z m -0.918,-8.993 c 0,-1.377 -1.116,-2.492 -2.493,-2.492 -1.377,0 -2.493,1.116 -2.493,2.492 0,1.376 1.116,2.493 2.493,2.493 1.377,0 2.493,-1.116 2.493,-2.493 m 0,0 c 0,-1.377 -1.116,-2.492 -2.493,-2.492 -1.377,0 -2.493,1.116 -2.493,2.492 0,1.376 1.116,2.493 2.493,2.493 1.377,0 2.493,-1.116 2.493,-2.493"
     id="path3" />
  <path
     d="m 161.282,173.24 c 0,-17.983 -14.578,-32.561 -32.562,-32.561 -17.984,0 -32.561,14.578 -32.561,32.561 0,17.983 14.578,32.562 32.561,32.562 17.983,0 32.562,-14.578 32.562,-32.562 z m -6.171,0 c 0,-14.575 -11.815,-26.391 -26.391,-26.391 -14.576,0 -26.391,11.816 -26.391,26.391 0,14.575 11.816,26.391 26.391,26.391 14.575,0 26.391,-11.815 26.391,-26.391 m -16.729,0 c 0,-5.336 -4.326,-9.661 -9.662,-9.661 -5.336,0 -9.661,4.325 -9.661,9.661 0,5.336 4.325,9.662 9.661,9.662 5.336,0 9.662,-4.326 9.662,-9.662 z m 4.185,0 a 13.85,13.85 0 0 0 -13.846,-13.846 13.85,13.85 0 0 0 -13.846,13.846 13.85,13.85 0 0 0 13.846,13.846 13.85,13.85 0 0 0 13.846,-13.846 M 70.199,205.886 H 194.8 c -4.363,3.708 -9.06,7.035 -14.041,9.927 H 84.24 c -4.981,-2.892 -9.678,-6.219 -14.041,-9.927"
     id="path4" />
  <path
     d="m 114.875,173.24 a 13.85,13.85 0 0 1 13.846,-13.846 13.85,13.85 0 0 1 13.846,13.846 13.85,13.85 0 0 1 -13.846,13.846 13.85,13.85 0 0 1 -13.846,-13.846 z m 13.846,-26.391 c -14.575,0 -26.391,11.816 -26.391,26.391 0,14.575 11.816,26.391 26.391,26.391 14.575,0 26.391,-11.815 26.391,-26.391 0,-14.576 -11.815,-26.391 -26.391,-26.391"
     fill="#ecece7"
     id="path5" />
  <g
     clip-path="url(#a)"
     transform="matrix(1.336,0,0,-1.336,-6e-6,265.00047)"
     id="g63">
    <path
       d="m 95.939,79.105 c 2.119,1.941 4.077,-1.593 1.018,-1.593 -1.781,0 -1.041,1.572 -1.018,1.593"
       id="path6" />
    <path
       d="m 99.475,78.933 c -1.154,-1.883 -0.332,-1.517 0.333,-3.445 0.144,-0.012 1.027,2.015 0.389,2.809 -0.443,0.552 0.125,2.02 -0.723,0.636"
       id="path7" />
    <path
       d="m 97.623,76.685 c -1.456,-2.23 -0.535,-1.909 1.303,-1.636 0.01,0.002 0.625,0.452 -0.228,0.747 -0.017,0.006 -0.548,1.696 -1.075,0.889"
       id="path8" />
    <path
       d="m 95.09,73.938 c 2.119,1.941 4.077,-1.593 1.018,-1.593 -1.78,0 -1.041,1.572 -1.018,1.593"
       id="path9" />
    <path
       d="m 98.626,73.766 c -1.154,-1.883 -0.332,-1.518 0.333,-3.445 0.144,-0.013 1.027,2.015 0.389,2.809 -0.443,0.552 0.125,2.02 -0.723,0.636 M 96.659,70.91 c -1.457,-2.229 -0.535,-1.909 1.303,-1.636 0.01,0.001 0.625,0.452 -0.228,0.747 -0.018,0.006 -0.548,1.695 -1.075,0.889 m 3.506,3.88 c 2.119,1.941 4.077,-1.593 1.018,-1.593 -1.781,0 -1.041,1.572 -1.018,1.593"
       id="path10" />
    <path
       d="m 103.431,73.924 c -1.154,-1.883 -0.332,-1.517 0.333,-3.445 0.144,-0.013 1.027,2.015 0.389,2.809 -0.443,0.552 0.125,2.02 -0.723,0.636"
       id="path11" />
    <path
       d="m 101.088,72.388 c -1.457,-2.229 -0.535,-1.909 1.303,-1.636 0.01,0.001 0.625,0.452 -0.228,0.747 -0.018,0.006 -0.548,1.696 -1.075,0.889"
       id="path12" />
    <path
       d="m 103.63,79.439 c -1.046,-2.676 -4.362,-0.367 -1.616,0.981 1.598,0.785 1.627,-0.952 1.616,-0.981 m 1.514,-0.851 c -1.889,-1.144 -0.992,-1.196 -1.284,-3.214 0.122,-0.077 1.837,1.319 1.635,2.317 -0.14,0.693 1.037,1.737 -0.351,0.897"
       id="path13" />
    <path
       d="m 102.467,77.44 c -2.317,-1.313 -1.351,-1.451 0.407,-2.052 0.01,-0.004 0.763,0.115 0.14,0.769 -0.013,0.013 0.291,1.758 -0.547,1.283 m 1.729,11.395 c 2.119,1.941 4.077,-1.593 1.018,-1.593 -1.78,0 -1.041,1.572 -1.018,1.593"
       id="path14" />
    <path
       d="m 107.732,88.663 c -1.154,-1.883 -0.332,-1.517 0.333,-3.445 0.144,-0.012 1.027,2.015 0.389,2.809 -0.443,0.552 0.125,2.019 -0.723,0.636"
       id="path15" />
    <path
       d="m 105.88,86.415 c -1.457,-2.229 -0.535,-1.909 1.303,-1.636 0.01,0.001 0.625,0.452 -0.228,0.747 -0.018,0.006 -0.548,1.696 -1.075,0.889 m -2.533,-2.747 c 2.119,1.941 4.077,-1.593 1.018,-1.593 -1.781,0 -1.041,1.572 -1.018,1.593 m 3.536,-0.172 c -1.154,-1.883 -0.332,-1.517 0.333,-3.445 0.144,-0.012 1.027,2.015 0.389,2.809 -0.443,0.552 0.125,2.02 -0.723,0.636 m -1.851,-2.248 c -1.457,-2.229 -0.535,-1.909 1.303,-1.636 0.01,0.001 0.625,0.452 -0.229,0.747 -0.017,0.006 -0.547,1.696 -1.074,0.889 m 3.391,3.272 c 2.119,1.941 4.077,-1.593 1.018,-1.593 -1.78,0 -1.041,1.572 -1.018,1.593 m 3.266,-0.866 c -1.154,-1.883 -0.332,-1.517 0.333,-3.445 0.144,-0.012 1.027,2.015 0.389,2.809 -0.443,0.552 0.125,2.02 -0.723,0.636"
       id="path16" />
    <path
       d="m 109.345,82.119 c -1.456,-2.23 -0.535,-1.909 1.303,-1.636 0.011,0.002 0.625,0.452 -0.228,0.747 -0.017,0.006 -0.547,1.696 -1.074,0.889"
       id="path17" />
    <path
       d="m 111.887,89.169 c -1.046,-2.676 -4.362,-0.367 -1.616,0.981 1.598,0.785 1.628,-0.952 1.616,-0.981"
       id="path18" />
    <path
       d="m 113.401,88.318 c -1.889,-1.144 -0.992,-1.196 -1.284,-3.214 0.122,-0.077 1.837,1.319 1.635,2.318 -0.14,0.693 1.038,1.737 -0.35,0.897"
       id="path19" />
    <path
       d="m 110.724,87.17 c -2.317,-1.313 -1.351,-1.451 0.407,-2.052 0.01,-0.003 0.763,0.115 0.14,0.769 -0.013,0.013 0.291,1.758 -0.547,1.283"
       id="path20" />
    <path
       d="m 115.755,76.146 c 1.102,-2.654 -2.888,-3.289 -1.845,-0.414 0.607,1.674 1.833,0.443 1.845,0.414"
       id="path21" />
    <path
       d="m 114.388,72.88 c -1.377,1.727 -1.313,0.83 -3.353,0.861 -0.061,-0.131 1.544,-1.652 2.508,-1.324 0.67,0.228 1.856,-0.806 0.844,0.463"
       id="path22" />
    <path
       d="m 112.906,75.387 c -1.599,2.129 -1.612,1.154 -1.983,-0.667 -0.002,-0.01 0.212,-0.742 0.78,-0.04 0.012,0.014 1.781,-0.064 1.202,0.707"
       id="path23" />
    <path
       d="m 111.187,78.706 c 1.102,-2.654 -2.888,-3.29 -1.845,-0.414 0.607,1.674 1.833,0.443 1.845,0.414"
       id="path24" />
    <path
       d="m 109.82,75.44 c -1.377,1.727 -1.313,0.83 -3.353,0.862 -0.061,-0.131 1.544,-1.653 2.508,-1.324 0.67,0.228 1.856,-0.806 0.844,0.463"
       id="path25" />
    <path
       d="m 108.338,77.948 c -1.599,2.129 -1.612,1.154 -1.983,-0.667 -0.002,-0.01 0.212,-0.742 0.78,-0.04 0.012,0.014 1.781,-0.064 1.203,0.707"
       id="path26" />
    <path
       d="m 107.649,73.6 c 2.32,1.695 3.876,-2.034 0.836,-1.696 -1.77,0.197 -0.861,1.677 -0.836,1.696"
       id="path27" />
    <path
       d="m 108.071,70.194 c -0.406,2.171 -0.77,1.349 -2.557,2.334 -0.115,-0.087 0.588,-2.184 1.594,-2.346 0.698,-0.113 1.261,-1.583 0.963,0.012 m -1.007,4.122 c -1.599,2.129 -1.612,1.154 -1.983,-0.667 -0.002,-0.01 0.212,-0.742 0.78,-0.04 0.012,0.014 1.781,-0.064 1.202,0.707 m 6.384,-5.514 c -2.159,1.896 1.142,4.226 1.473,1.185 0.193,-1.77 -1.45,-1.206 -1.473,-1.185 m -1.317,-1.133 c -0.431,2.166 -0.786,1.34 -2.584,2.303 -0.114,-0.089 0.614,-2.177 1.621,-2.327 0.7,-0.105 1.279,-1.568 0.962,0.023 m -0.165,2.908 c -0.444,2.626 -0.903,1.765 -2.067,0.317 -0.007,-0.008 -0.152,-0.756 0.675,-0.394 0.017,0.007 1.553,-0.873 1.392,0.076 m 1.229,13.672 c 2.119,1.941 4.077,-1.593 1.018,-1.593 -1.781,0 -1.041,1.572 -1.018,1.593 m 1.14,-2.31 c -1.457,-2.229 -0.535,-1.909 1.303,-1.636 0.011,0.002 0.625,0.452 -0.228,0.747 -0.018,0.006 -0.548,1.696 -1.074,0.889 m 1.574,-3.016 c -0.589,-2.129 0.1,-1.55 1.272,-3.219 0.142,0.028 0.431,2.22 -0.402,2.808 -0.578,0.408 -0.438,1.975 -0.87,0.412"
       id="path28" />
    <path
       d="m 115.153,87.025 c -1.456,-2.229 -0.535,-1.909 1.303,-1.636 0.011,0.002 0.625,0.452 -0.228,0.747 -0.018,0.006 -0.548,1.696 -1.074,0.889 m 0.71,-13.722 c -1.154,-1.883 -0.332,-1.517 0.333,-3.445 0.144,-0.013 1.027,2.015 0.389,2.809 -0.443,0.552 0.125,2.02 -0.723,0.636 m -0.82,-5.154 c -0.589,-2.129 0.1,-1.55 1.272,-3.219 0.142,0.028 0.431,2.22 -0.401,2.808 -0.578,0.408 -0.438,1.976 -0.871,0.412 M 97.569,89.318 c -1.154,-1.883 -0.332,-1.517 0.333,-3.445 0.144,-0.012 1.027,2.015 0.389,2.809 -0.443,0.552 0.125,2.02 -0.723,0.636 m -0.821,-5.154 c -0.589,-2.129 0.1,-1.55 1.272,-3.219 0.142,0.028 0.43,2.22 -0.402,2.807 -0.578,0.408 -0.438,1.975 -0.871,0.412 m 1.513,1.011 c 2.119,1.941 4.077,-1.593 1.018,-1.593 -1.781,0 -1.041,1.572 -1.018,1.593 m 3.266,-0.866 c -1.154,-1.883 -0.332,-1.517 0.333,-3.445 0.144,-0.013 1.027,2.015 0.389,2.809 -0.443,0.552 0.125,2.02 -0.723,0.636 M 99.44,82.396 c -1.457,-2.229 -0.535,-1.909 1.303,-1.636 0.01,10e-4 0.625,0.452 -0.228,0.747 -0.018,0.006 -0.548,1.696 -1.075,0.889 m 1.121,5.429 c -2.317,-1.313 -1.351,-1.451 0.407,-2.052 0.01,-0.004 0.763,0.115 0.139,0.769 -0.013,0.013 0.291,1.758 -0.547,1.283 m 4.097,-2.871 c 0.799,2.54 -10e-4,1.982 -1.697,1.223 -0.01,-0.004 -0.479,-0.604 0.422,-0.657 0.019,-10e-4 0.986,-1.484 1.275,-0.565 m -1.559,5.27 c -1.774,-1.315 -0.876,-1.283 -0.979,-3.32 0.129,-0.065 1.706,1.485 1.411,2.46 -0.205,0.677 0.871,1.827 -0.433,0.86 M 74.442,78.987 c 2.119,1.941 4.077,-1.593 1.018,-1.593 -1.78,0 -1.041,1.572 -1.018,1.593"
       id="path29" />
    <path
       d="m 77.709,78.121 c -1.154,-1.883 -0.332,-1.517 0.333,-3.445 0.144,-0.013 1.027,2.015 0.389,2.809 -0.443,0.552 0.125,2.02 -0.723,0.636 m -2.342,-1.536 c -1.457,-2.229 -0.535,-1.909 1.303,-1.636 0.011,0.001 0.625,0.452 -0.228,0.747 -0.017,0.006 -0.547,1.696 -1.074,0.889 m 2.541,7.051 c -1.046,-2.676 -4.362,-0.367 -1.616,0.981 1.598,0.785 1.628,-0.952 1.616,-0.981"
       id="path30" />
    <g
       fill="#9b2423"
       id="g32">
      <path
         d="m 79.421,82.784 c -1.889,-1.144 -0.992,-1.196 -1.284,-3.214 0.122,-0.077 1.837,1.319 1.635,2.317 -0.14,0.693 1.037,1.737 -0.35,0.897"
         id="path31" />
      <path
         d="m 76.745,81.637 c -2.317,-1.313 -1.351,-1.451 0.407,-2.052 0.01,-0.003 0.763,0.115 0.14,0.769 -0.013,0.013 0.291,1.758 -0.547,1.283"
         id="path32" />
    </g>
    <path
       d="m 77.624,87.864 c 2.119,1.941 4.077,-1.593 1.018,-1.593 -1.781,0 -1.041,1.572 -1.018,1.593"
       id="path33" />
    <path
       d="m 81.161,87.692 c -1.154,-1.883 -0.333,-1.517 0.333,-3.445 0.144,-0.012 1.027,2.015 0.389,2.809 -0.443,0.552 0.125,2.02 -0.723,0.636"
       id="path34" />
    <path
       d="m 79.309,85.445 c -1.457,-2.229 -0.535,-1.909 1.303,-1.636 0.011,0.001 0.625,0.452 -0.228,0.747 -0.018,0.006 -0.548,1.696 -1.074,0.889 m 3.389,3.272 c 2.119,1.941 4.077,-1.593 1.018,-1.593 -1.781,0 -1.041,1.572 -1.018,1.593 m 3.267,-0.866 c -1.154,-1.883 -0.332,-1.517 0.333,-3.445 0.144,-0.012 1.027,2.015 0.389,2.809 -0.443,0.552 0.125,2.02 -0.723,0.636"
       id="path35" />
    <path
       d="m 83.623,86.315 c -1.456,-2.229 -0.535,-1.909 1.303,-1.636 0.011,0.002 0.625,0.452 -0.228,0.747 -0.017,0.006 -0.548,1.696 -1.074,0.889"
       id="path36" />
    <path
       d="m 90.033,80.343 c 1.102,-2.654 -2.888,-3.289 -1.845,-0.414 0.607,1.674 1.833,0.443 1.845,0.414 m -1.368,-3.266 c -1.377,1.727 -1.313,0.83 -3.352,0.861 -0.061,-0.131 1.544,-1.652 2.508,-1.324 0.67,0.228 1.856,-0.806 0.844,0.463 m -1.481,2.507 c -1.599,2.129 -1.612,1.154 -1.983,-0.667 -0.002,-0.01 0.212,-0.742 0.78,-0.04 0.012,0.014 1.781,-0.064 1.202,0.707 m -1.718,3.319 c 1.102,-2.654 -2.888,-3.29 -1.844,-0.414 0.607,1.674 1.833,0.443 1.844,0.414 m -1.368,-3.266 c -1.377,1.727 -1.313,0.83 -3.353,0.862 -0.061,-0.131 1.544,-1.653 2.508,-1.324 0.669,0.228 1.856,-0.806 0.844,0.463 m -1.48,2.506 c -1.599,2.129 -1.612,1.154 -1.983,-0.667 -0.002,-0.01 0.212,-0.742 0.78,-0.04 0.012,0.014 1.781,-0.064 1.202,0.707"
       id="path37" />
    <path
       d="m 81.927,77.797 c 2.32,1.695 3.876,-2.034 0.836,-1.696 -1.769,0.197 -0.861,1.677 -0.836,1.696"
       id="path38" />
    <path
       d="m 82.348,74.391 c -0.406,2.171 -0.77,1.349 -2.556,2.334 -0.115,-0.087 0.588,-2.184 1.594,-2.346 0.698,-0.113 1.261,-1.583 0.963,0.012"
       id="path39" />
    <path
       d="m 81.341,78.513 c -1.599,2.129 -1.612,1.154 -1.983,-0.667 -0.002,-0.01 0.212,-0.742 0.78,-0.04 0.012,0.014 1.781,-0.064 1.203,0.707"
       fill="#005387"
       id="path40" />
    <path
       d="m 87.724,72.998 c -2.159,1.896 1.142,4.226 1.473,1.185 0.193,-1.77 -1.45,-1.206 -1.473,-1.185 m -1.316,-1.132 c -0.431,2.166 -0.786,1.34 -2.584,2.303 -0.114,-0.089 0.614,-2.177 1.621,-2.327 0.7,-0.105 1.28,-1.568 0.963,0.023 m -0.166,2.908 c -0.444,2.626 -0.903,1.765 -2.067,0.317 -0.007,-0.008 -0.152,-0.756 0.675,-0.393 0.017,0.007 1.553,-0.873 1.393,0.076 m 1.228,13.67 c 2.119,1.941 4.077,-1.593 1.018,-1.593 -1.781,0 -1.041,1.572 -1.018,1.593 m 3.536,-0.172 c -1.154,-1.883 -0.332,-1.517 0.333,-3.445 0.144,-0.013 1.027,2.015 0.389,2.809 -0.443,0.552 0.125,2.02 -0.723,0.636 m -2.395,-2.137 c -1.456,-2.229 -0.535,-1.909 1.303,-1.636 0.01,0.002 0.625,0.452 -0.228,0.747 -0.018,0.006 -0.548,1.696 -1.075,0.889 m -1.989,-2.858 c 2.119,1.941 4.077,-1.593 1.018,-1.593 -1.781,0 -1.041,1.572 -1.018,1.593 m 3.563,-0.158 c -0.589,-2.129 0.1,-1.55 1.272,-3.219 0.142,0.028 0.431,2.22 -0.402,2.808 -0.578,0.408 -0.438,1.975 -0.871,0.412 m 1.513,1.009 c 2.119,1.941 4.077,-1.593 1.018,-1.593 -1.78,0 -1.041,1.572 -1.018,1.593 m 3.266,-0.865 c -1.154,-1.883 -0.332,-1.517 0.333,-3.445 0.144,-0.013 1.027,2.015 0.389,2.809 -0.443,0.552 0.125,2.02 -0.723,0.636 M 92.878,81.35 c -1.456,-2.229 -0.535,-1.909 1.303,-1.636 0.01,0.001 0.625,0.452 -0.228,0.747 -0.017,0.006 -0.548,1.696 -1.075,0.889 m 2.025,7.168 c -1.047,-2.676 -4.362,-0.368 -1.616,0.981 1.598,0.785 1.628,-0.952 1.616,-0.981"
       id="path41" />
    <path
       d="m 93.999,86.778 c -2.317,-1.313 -1.351,-1.45 0.407,-2.052 0.01,-0.003 0.763,0.115 0.14,0.769 -0.013,0.013 0.291,1.758 -0.547,1.283"
       id="path42" />
    <path
       d="m 90.142,77.499 c -1.154,-1.883 -0.332,-1.517 0.333,-3.445 0.144,-0.013 1.027,2.015 0.39,2.809 -0.443,0.552 0.125,2.02 -0.723,0.636"
       id="path43" />
    <path
       d="m 89.32,72.346 c -0.589,-2.129 0.099,-1.55 1.272,-3.219 0.142,0.028 0.43,2.22 -0.401,2.808 -0.578,0.408 -0.438,1.976 -0.871,0.412 m 1.512,1.009 c 2.119,1.941 4.077,-1.593 1.018,-1.593 -1.78,0 -1.041,1.572 -1.018,1.593"
       id="path44" />
    <path
       d="m 94.098,72.49 c -1.154,-1.883 -0.332,-1.517 0.333,-3.445 0.144,-0.012 1.027,2.015 0.389,2.809 -0.442,0.552 0.125,2.019 -0.723,0.636"
       id="path45" />
    <path
       d="m 92.013,70.578 c -1.457,-2.23 -0.535,-1.909 1.303,-1.636 0.011,0.002 0.625,0.452 -0.228,0.747 -0.018,0.006 -0.548,1.696 -1.074,0.889 m 2.283,7.427 c -1.046,-2.676 -4.362,-0.368 -1.616,0.981 1.598,0.785 1.628,-0.952 1.616,-0.981 M 75.802,88.506 c -1.154,-1.883 -0.332,-1.517 0.333,-3.445 0.144,-0.013 1.027,2.015 0.39,2.809 -0.443,0.552 0.125,2.02 -0.723,0.636 M 94.22,76.797 c 2.119,1.941 4.077,-1.593 1.018,-1.593 -1.78,0 -1.041,1.572 -1.018,1.593 m 1.634,10.545 c -1.154,-1.883 -0.332,-1.517 0.333,-3.445 0.144,-0.012 1.027,2.015 0.389,2.809 -0.443,0.552 0.125,2.02 -0.723,0.636 M 97.59,55.526 c 2.119,1.941 4.077,-1.593 1.018,-1.593 -1.781,0 -1.041,1.572 -1.018,1.593 m 3.536,-0.172 c -1.154,-1.883 -0.332,-1.517 0.333,-3.445 0.144,-0.013 1.027,2.015 0.389,2.809 -0.443,0.552 0.125,2.02 -0.723,0.636 m -1.851,-2.248 c -1.456,-2.229 -0.535,-1.909 1.303,-1.636 0.01,0.002 0.625,0.452 -0.228,0.747 -0.018,0.006 -0.548,1.696 -1.075,0.889 m -2.533,-2.748 c 2.119,1.941 4.077,-1.593 1.018,-1.593 -1.78,0 -1.041,1.572 -1.018,1.593 m 3.536,-0.172 c -1.154,-1.883 -0.332,-1.517 0.333,-3.445 0.144,-0.012 1.027,2.015 0.389,2.81 -0.443,0.552 0.125,2.019 -0.723,0.636 m 1.54,1.024 c 2.119,1.941 4.077,-1.593 1.018,-1.593 -1.78,0 -1.041,1.572 -1.018,1.593"
       id="path46" />
    <path
       d="m 105.082,50.345 c -1.154,-1.883 -0.332,-1.518 0.333,-3.446 0.144,-0.012 1.027,2.015 0.389,2.809 -0.443,0.552 0.125,2.02 -0.723,0.636"
       fill="#005387"
       id="path47" />
    <path
       d="m 102.74,48.809 c -1.457,-2.23 -0.535,-1.909 1.303,-1.636 0.011,0.002 0.625,0.452 -0.228,0.747 -0.017,0.006 -0.547,1.696 -1.074,0.889"
       id="path48" />
    <path
       d="m 105.281,55.86 c -1.046,-2.676 -4.362,-0.367 -1.616,0.981 1.598,0.785 1.627,-0.952 1.616,-0.981 m 1.514,-0.851 c -1.889,-1.144 -0.992,-1.196 -1.284,-3.214 0.122,-0.077 1.837,1.319 1.635,2.317 -0.14,0.693 1.038,1.737 -0.35,0.897"
       id="path49" />
    <path
       d="m 104.119,53.861 c -2.317,-1.313 -1.351,-1.45 0.407,-2.052 0.01,-0.003 0.763,0.115 0.14,0.769 -0.013,0.013 0.291,1.758 -0.547,1.283 m 1.728,11.395 c 2.119,1.941 4.077,-1.593 1.018,-1.593 -1.78,0 -1.041,1.572 -1.018,1.593 m 3.881,1.262 c -1.154,-1.883 -0.332,-1.518 0.333,-3.446 0.144,-0.012 1.027,2.015 0.389,2.809 -0.442,0.552 0.125,2.019 -0.723,0.636 m -2.196,-3.681 c -1.456,-2.23 -0.535,-1.909 1.303,-1.636 0.01,10e-4 0.625,0.452 -0.228,0.747 -0.017,0.006 -0.548,1.696 -1.075,0.889 m -2.533,-2.747 c 2.119,1.941 4.077,-1.593 1.018,-1.593 -1.78,0 -1.041,1.572 -1.018,1.593 m 3.536,-0.172 c -1.154,-1.883 -0.332,-1.517 0.333,-3.445 0.144,-0.012 1.027,2.015 0.389,2.809 -0.443,0.552 0.125,2.02 -0.723,0.636 m -1.85,-2.248 c -1.457,-2.23 -0.535,-1.909 1.303,-1.636 0.011,0.002 0.625,0.452 -0.228,0.747 -0.017,0.006 -0.547,1.696 -1.074,0.889 m 3.389,3.272 c 2.119,1.941 4.077,-1.593 1.018,-1.593 -1.781,0 -1.041,1.572 -1.018,1.593 m 3.266,-0.866 c -1.154,-1.883 -0.332,-1.517 0.333,-3.445 0.144,-0.013 1.027,2.015 0.389,2.809 -0.443,0.552 0.125,2.02 -0.723,0.636 m -2.341,-1.536 c -1.456,-2.229 -0.535,-1.909 1.303,-1.636 0.011,0.002 0.625,0.452 -0.228,0.747 -0.017,0.006 -0.548,1.696 -1.074,0.889 m 2.54,7.051 c -1.046,-2.676 -4.362,-0.367 -1.616,0.981 1.598,0.785 1.628,-0.952 1.616,-0.981 m 1.514,-0.851 c -1.889,-1.144 -0.992,-1.196 -1.284,-3.214 0.122,-0.077 1.837,1.319 1.635,2.317 -0.14,0.693 1.037,1.737 -0.35,0.897 m -2.677,-1.148 c -2.317,-1.313 -1.351,-1.45 0.407,-2.052 0.01,-0.004 0.763,0.115 0.139,0.769 -0.013,0.014 0.291,1.758 -0.546,1.283 m 5.031,-11.024 c 1.102,-2.654 -2.888,-3.289 -1.845,-0.414 0.607,1.674 1.833,0.443 1.845,0.414 m -1.368,-3.266 c -1.377,1.727 -1.313,0.83 -3.352,0.861 -0.061,-0.131 1.544,-1.653 2.508,-1.324 0.67,0.228 1.856,-0.806 0.844,0.463"
       id="path50" />
    <path
       d="m 114.557,51.808 c -1.599,2.129 -1.612,1.154 -1.983,-0.667 -0.002,-0.011 0.212,-0.742 0.78,-0.04 0.012,0.014 1.781,-0.063 1.202,0.707"
       id="path51" />
    <path
       d="m 112.839,55.127 c 1.102,-2.654 -2.888,-3.29 -1.845,-0.414 0.607,1.674 1.833,0.443 1.845,0.414"
       id="path52" />
    <path
       d="m 111.471,51.861 c -1.377,1.727 -1.313,0.83 -3.353,0.861 -0.061,-0.131 1.544,-1.652 2.508,-1.324 0.669,0.228 1.856,-0.806 0.844,0.463"
       id="path53" />
    <path
       d="m 109.989,54.369 c -1.599,2.129 -1.612,1.154 -1.983,-0.667 -0.002,-0.011 0.212,-0.742 0.78,-0.04 0.012,0.014 1.781,-0.063 1.203,0.707"
       id="path54" />
    <path
       d="m 109.301,50.021 c 2.32,1.695 3.876,-2.034 0.836,-1.696 -1.769,0.197 -0.861,1.677 -0.836,1.696"
       id="path55" />
    <path
       d="m 109.722,46.615 c -0.406,2.171 -0.77,1.349 -2.556,2.334 -0.115,-0.087 0.588,-2.184 1.594,-2.346 0.698,-0.112 1.261,-1.583 0.963,0.013"
       id="path56" />
    <path
       d="m 108.715,50.737 c -1.599,2.129 -1.612,1.154 -1.983,-0.667 -0.002,-0.011 0.212,-0.742 0.78,-0.04 0.012,0.014 1.781,-0.063 1.202,0.707 m 6.13,9.93 c 2.119,1.941 4.077,-1.593 1.018,-1.593 -1.781,0 -1.041,1.572 -1.018,1.593 m 1.14,-2.309 c -1.456,-2.229 -0.535,-1.909 1.303,-1.636 0.011,10e-4 0.625,0.452 -0.228,0.747 -0.018,0.006 -0.548,1.695 -1.075,0.889 M 113.995,55.5 c 2.119,1.941 4.077,-1.593 1.018,-1.593 -1.781,0 -1.041,1.572 -1.018,1.593 m 2.809,7.946 c -1.456,-2.23 -0.535,-1.909 1.303,-1.636 0.01,0.002 0.625,0.452 -0.228,0.747 -0.018,0.006 -0.548,1.696 -1.075,0.889 M 99.22,65.739 c -1.154,-1.883 -0.332,-1.517 0.333,-3.445 0.144,-0.013 1.027,2.015 0.389,2.809 -0.443,0.552 0.125,2.02 -0.723,0.636 m -0.821,-5.154 c -0.589,-2.129 0.1,-1.55 1.272,-3.219 0.142,0.028 0.431,2.22 -0.401,2.808 -0.578,0.408 -0.438,1.975 -0.871,0.412 m 1.512,1.01 c 2.119,1.941 4.077,-1.593 1.018,-1.593 -1.781,0 -1.041,1.572 -1.018,1.593 m 3.266,-0.866 c -1.154,-1.883 -0.333,-1.518 0.333,-3.445 0.144,-0.013 1.027,2.015 0.389,2.809 -0.443,0.552 0.125,2.02 -0.723,0.636 m -2.084,-1.913 c -1.456,-2.23 -0.535,-1.909 1.303,-1.636 0.011,0.002 0.625,0.452 -0.228,0.747 -0.017,0.006 -0.547,1.696 -1.074,0.889 m 2.283,7.428 c -1.046,-2.676 -4.362,-0.367 -1.616,0.981 1.598,0.785 1.628,-0.952 1.616,-0.981 m -1.163,-1.999 c -2.317,-1.313 -1.351,-1.45 0.407,-2.052 0.01,-0.003 0.763,0.115 0.14,0.769 -0.013,0.013 0.291,1.758 -0.547,1.283 m 4.097,-2.872 c 0.799,2.541 -10e-4,1.983 -1.697,1.223 -0.01,-0.005 -0.479,-0.604 0.422,-0.657 0.019,-10e-4 0.986,-1.484 1.275,-0.566 m -1.56,5.272 c -1.774,-1.315 -0.876,-1.283 -0.978,-3.32 0.129,-0.066 1.706,1.485 1.411,2.46 -0.205,0.677 0.871,1.827 -0.433,0.86 M 76.094,55.407 c 2.119,1.941 4.077,-1.593 1.018,-1.593 -1.781,0 -1.041,1.572 -1.018,1.593 m 3.266,-0.865 c -1.154,-1.883 -0.332,-1.518 0.333,-3.446 0.144,-0.012 1.027,2.015 0.389,2.809 -0.443,0.552 0.125,2.019 -0.723,0.636"
       id="path57" />
    <path
       d="m 77.017,53.006 c -1.456,-2.23 -0.535,-1.909 1.303,-1.636 0.011,0.001 0.625,0.452 -0.228,0.747 -0.018,0.006 -0.548,1.696 -1.074,0.889"
       fill="#005387"
       id="path58" />
    <path
       d="m 79.559,60.057 c -1.046,-2.676 -4.362,-0.367 -1.616,0.981 1.598,0.785 1.628,-0.952 1.616,-0.981 m 1.514,-0.852 c -1.889,-1.144 -0.992,-1.196 -1.284,-3.214 0.122,-0.077 1.837,1.319 1.635,2.317 -0.14,0.693 1.037,1.737 -0.35,0.897"
       id="path59" />
    <path
       d="m 78.396,58.058 c -2.317,-1.313 -1.352,-1.45 0.407,-2.052 0.01,-0.003 0.763,0.115 0.139,0.769 -0.013,0.013 0.291,1.758 -0.546,1.283 m 1.728,11.395 c 2.119,1.941 4.077,-1.593 1.018,-1.593 -1.781,0 -1.041,1.572 -1.018,1.593 m 3.537,-0.173 c -1.154,-1.883 -0.333,-1.517 0.333,-3.445 0.144,-0.012 1.027,2.015 0.389,2.809 -0.443,0.552 0.125,2.02 -0.723,0.636 m -1.851,-2.247 c -1.456,-2.23 -0.535,-1.909 1.303,-1.636 0.011,10e-4 0.625,0.452 -0.228,0.747 -0.017,0.006 -0.547,1.696 -1.074,0.889 m -2.535,-2.748 c 2.119,1.941 4.077,-1.593 1.018,-1.593 -1.781,0 -1.041,1.572 -1.018,1.593 m 3.537,-0.172 c -1.154,-1.883 -0.332,-1.517 0.333,-3.445 0.144,-0.012 1.027,2.015 0.39,2.809 -0.443,0.552 0.125,2.02 -0.723,0.636 M 80.96,61.866 c -1.456,-2.23 -0.535,-1.909 1.303,-1.636 0.011,0.002 0.625,0.452 -0.228,0.747 -0.018,0.006 -0.548,1.696 -1.074,0.889 m 3.39,3.271 c 2.119,1.941 4.077,-1.593 1.018,-1.593 -1.781,0 -1.041,1.572 -1.018,1.593 m 3.266,-0.865 c -1.154,-1.883 -0.332,-1.517 0.334,-3.445 0.144,-0.013 1.027,2.015 0.389,2.809 -0.443,0.552 0.125,2.02 -0.723,0.636 m -2.343,-1.536 c -1.457,-2.23 -0.535,-1.909 1.303,-1.636 0.011,10e-4 0.625,0.452 -0.228,0.747 -0.018,0.006 -0.548,1.696 -1.074,0.889 m 2.541,7.05 C 86.77,67.11 83.454,69.419 86.2,70.767 c 1.598,0.785 1.628,-0.952 1.616,-0.981 m 1.514,-0.851 c -1.889,-1.144 -0.992,-1.196 -1.284,-3.214 0.122,-0.077 1.837,1.319 1.635,2.317 -0.14,0.693 1.037,1.737 -0.35,0.897 m -2.678,-1.147 c -2.317,-1.313 -1.351,-1.451 0.407,-2.052 0.01,-0.004 0.763,0.115 0.14,0.769 -0.013,0.014 0.291,1.758 -0.547,1.283 m 5.031,-11.024 c 1.102,-2.654 -2.888,-3.289 -1.845,-0.414 0.607,1.674 1.833,0.443 1.845,0.414 m -1.368,-3.266 c -1.377,1.727 -1.313,0.83 -3.352,0.861 -0.061,-0.131 1.544,-1.653 2.508,-1.324 0.669,0.228 1.856,-0.806 0.844,0.463 m -1.481,2.507 c -1.599,2.129 -1.612,1.154 -1.983,-0.667 -0.002,-0.011 0.212,-0.742 0.78,-0.04 0.012,0.014 1.781,-0.063 1.202,0.707 m -1.718,3.319 c 1.102,-2.654 -2.888,-3.29 -1.845,-0.414 0.607,1.674 1.833,0.443 1.845,0.414 m -1.368,-3.266 c -1.377,1.727 -1.313,0.83 -3.353,0.861 -0.061,-0.131 1.544,-1.652 2.508,-1.324 0.669,0.228 1.856,-0.806 0.844,0.463 m -1.48,2.507 c -1.599,2.129 -1.612,1.154 -1.982,-0.667 -0.002,-0.011 0.212,-0.742 0.78,-0.04 0.012,0.014 1.781,-0.063 1.202,0.707 m -0.689,-4.348 c 2.32,1.695 3.876,-2.034 0.836,-1.696 -1.77,0.197 -0.861,1.677 -0.836,1.696 m 0.421,-3.405 c -0.406,2.171 -0.77,1.349 -2.556,2.334 -0.115,-0.087 0.588,-2.184 1.594,-2.346 0.698,-0.112 1.261,-1.583 0.963,0.013 m -1.007,4.12 c -1.599,2.129 -1.612,1.154 -1.983,-0.667 -0.002,-0.011 0.212,-0.742 0.78,-0.04 0.012,0.014 1.781,-0.063 1.203,0.707 m 6.382,-5.514 c -2.159,1.896 1.142,4.226 1.474,1.185 0.193,-1.77 -1.45,-1.206 -1.474,-1.185 m -1.316,-1.132 c -0.431,2.166 -0.786,1.34 -2.584,2.303 -0.114,-0.089 0.614,-2.177 1.621,-2.327 0.7,-0.104 1.279,-1.568 0.963,0.024 m -0.166,2.907 c -0.444,2.625 -0.903,1.765 -2.068,0.317 -0.007,-0.008 -0.152,-0.756 0.675,-0.394 0.017,0.007 1.553,-0.873 1.393,0.077 m 1.229,13.67 c 2.119,1.941 4.077,-1.593 1.018,-1.593 -1.78,0 -1.041,1.572 -1.018,1.593 m 3.536,-0.172 c -1.154,-1.883 -0.332,-1.517 0.333,-3.445 0.144,-0.013 1.027,2.015 0.389,2.809 -0.443,0.552 0.125,2.02 -0.723,0.636 m -2.395,-2.137 c -1.456,-2.229 -0.535,-1.909 1.303,-1.636 0.01,0.001 0.625,0.452 -0.228,0.747 -0.018,0.006 -0.548,1.696 -1.075,0.889 m -1.989,-2.858 c 2.119,1.941 4.077,-1.593 1.018,-1.593 -1.781,0 -1.041,1.572 -1.018,1.593 m 3.564,-0.159 c -0.589,-2.129 0.1,-1.55 1.272,-3.219 0.142,0.028 0.43,2.22 -0.402,2.807 -0.578,0.408 -0.438,1.976 -0.871,0.412 m -0.755,8.105 c -1.456,-2.23 -0.535,-1.909 1.303,-1.636 0.01,0.002 0.625,0.452 -0.228,0.747 -0.017,0.006 -0.548,1.696 -1.075,0.889 m 2.267,-7.094 c 2.119,1.941 4.077,-1.593 1.018,-1.593 -1.781,0 -1.041,1.572 -1.018,1.593 m 3.266,-0.866 c -1.154,-1.883 -0.332,-1.517 0.333,-3.445 0.144,-0.012 1.027,2.015 0.389,2.809 -0.443,0.552 0.125,2.019 -0.723,0.636 M 94.529,57.77 c -1.456,-2.23 -0.535,-1.909 1.303,-1.636 0.01,0.002 0.625,0.452 -0.228,0.747 -0.018,0.006 -0.548,1.696 -1.075,0.889 m 2.025,7.169 c -1.047,-2.676 -4.362,-0.367 -1.616,0.981 1.598,0.785 1.628,-0.952 1.616,-0.981 m -0.903,-1.74 c -2.317,-1.313 -1.351,-1.45 0.407,-2.052 0.01,-0.003 0.763,0.115 0.139,0.769 -0.013,0.013 0.291,1.758 -0.546,1.283 M 91.793,53.92 c -1.154,-1.883 -0.332,-1.517 0.333,-3.445 0.144,-0.012 1.027,2.015 0.389,2.809 -0.442,0.552 0.125,2.019 -0.723,0.636 m -0.821,-5.154 c -0.589,-2.129 0.1,-1.55 1.272,-3.219 0.142,0.028 0.431,2.22 -0.401,2.807 -0.578,0.408 -0.438,1.976 -0.871,0.412 m 1.512,1.011 c 2.119,1.941 4.077,-1.593 1.018,-1.593 -1.781,0 -1.041,1.572 -1.018,1.593 m 3.266,-0.866 c -1.154,-1.883 -0.332,-1.517 0.333,-3.445 0.144,-0.012 1.027,2.015 0.389,2.809 -0.442,0.552 0.125,2.02 -0.723,0.636 m 0.2,5.515 c -1.046,-2.676 -4.362,-0.367 -1.616,0.981 1.598,0.785 1.628,-0.952 1.616,-0.981 m -1.163,-1.999 c -2.317,-1.313 -1.351,-1.45 0.407,-2.052 0.01,-0.003 0.763,0.115 0.14,0.769 -0.013,0.013 0.291,1.758 -0.547,1.283 M 74.187,65.792 c 2.119,1.941 4.077,-1.593 1.018,-1.593 -1.78,0 -1.041,1.572 -1.018,1.593 m 3.266,-0.865 c -1.154,-1.883 -0.332,-1.518 0.333,-3.446 0.144,-0.012 1.027,2.015 0.389,2.809 -0.442,0.552 0.125,2.02 -0.723,0.636 m -2.084,-1.912 c -1.456,-2.23 -0.535,-1.909 1.303,-1.636 0.011,0.002 0.625,0.452 -0.228,0.747 -0.017,0.006 -0.548,1.696 -1.074,0.889 m 2.283,7.428 c -1.046,-2.676 -4.362,-0.367 -1.616,0.981 1.598,0.785 1.628,-0.952 1.616,-0.981 M 76.49,68.443 c -2.317,-1.313 -1.351,-1.451 0.407,-2.052 0.01,-0.003 0.763,0.115 0.14,0.769 -0.013,0.013 0.291,1.758 -0.547,1.283 m 4.096,-2.872 c 0.799,2.54 -0.001,1.983 -1.697,1.223 -0.01,-0.004 -0.479,-0.604 0.422,-0.657 0.018,-0.001 0.986,-1.484 1.275,-0.566 m -1.559,5.271 c -1.774,-1.315 -0.876,-1.283 -0.978,-3.32 0.129,-0.065 1.706,1.485 1.411,2.46 -0.204,0.677 0.871,1.827 -0.433,0.86 M 95.871,53.218 c 2.119,1.941 4.077,-1.593 1.018,-1.593 -1.781,0 -1.041,1.572 -1.018,1.593 m 1.999,14.83 c -2.317,-1.313 -1.351,-1.451 0.407,-2.052 0.01,-0.003 0.763,0.115 0.14,0.769 -0.013,0.013 0.291,1.758 -0.547,1.283 m -0.364,-4.285 c -1.154,-1.883 -0.332,-1.517 0.333,-3.445 0.144,-0.012 1.027,2.015 0.389,2.809 -0.443,0.552 0.125,2.02 -0.723,0.636"
       id="path60" />
    <path
       d="m 93.33,68.017 c 2.119,1.941 4.077,-1.593 1.018,-1.593 -1.78,0 -1.041,1.572 -1.018,1.593"
       fill="#005387"
       id="path61" />
    <path
       d="m 93.33,68.017 c 2.119,1.941 4.077,-1.593 1.018,-1.593 -1.78,0 -1.041,1.572 -1.018,1.593 m 5.594,1.371 c 2.119,1.941 4.077,-1.593 1.018,-1.593 -1.78,0 -1.041,1.572 -1.018,1.593 m 5.694,1.522 c -1.154,-1.883 -0.332,-1.517 0.334,-3.445 0.144,-0.012 1.027,2.015 0.389,2.809 -0.443,0.552 0.125,2.02 -0.723,0.636 m 1.795,-2.24 c 2.32,1.695 3.876,-2.034 0.836,-1.696 -1.77,0.197 -0.861,1.677 -0.836,1.696"
       id="path62" />
    <path
       d="m 102.549,69.614 c -1.457,-2.23 -0.535,-1.909 1.303,-1.636 0.01,0.002 0.625,0.452 -0.228,0.747 -0.018,0.006 -0.548,1.696 -1.075,0.889 m -20.623,2.425 c 2.32,1.695 3.876,-2.034 0.836,-1.696 -1.769,0.197 -0.861,1.677 -0.836,1.696 m -0.095,0.907 c -1.599,2.129 -1.612,1.154 -1.983,-0.667 -0.002,-0.01 0.212,-0.742 0.78,-0.04 0.012,0.014 1.781,-0.064 1.203,0.707 m -2.248,0.222 c -1.046,-2.676 -4.362,-0.367 -1.616,0.981 1.598,0.785 1.628,-0.952 1.616,-0.981"
       id="path63" />
  </g>
  <path
     d="M 238.369,132.5 C 238.369,74.03 190.97,26.631 132.5,26.631 a 105.42,105.42 0 0 0 -67.175,24.04 l 149.366,148.554 c 14.802,-18.209 23.678,-41.429 23.678,-66.725 z M 50.309,65.775 c -14.801,18.21 -23.678,41.429 -23.678,66.725 0,58.47 47.399,105.869 105.869,105.869 25.503,0 48.899,-9.019 67.175,-24.04 z M 265,132.5 C 265,59.322 205.678,0 132.5,0 59.322,0 0,59.322 0,132.5 0,205.678 59.322,265 132.5,265 205.678,265 265,205.678 265,132.5"
     fill="#9b2423"
     id="path64" />
</svg>
