<?xml version="1.0" encoding="UTF-8" standalone="no"?>
<svg
   width="265"
   height="265"
   fill-rule="evenodd"
   version="1.1"
   id="svg3"
   xmlns="http://www.w3.org/2000/svg"
   xmlns:svg="http://www.w3.org/2000/svg">
  <defs
     id="defs3" />
  <path
     d="M 251.75,132.5 C 251.75,66.64 198.36,13.25 132.5,13.25 66.64,13.25 13.25,66.64 13.25,132.5 c 0,65.86 53.39,119.25 119.25,119.25 65.86,0 119.25,-53.39 119.25,-119.25"
     fill="#ecece7"
     id="path1" />
  <path
     d="m 196.331,165.024 c -15.136,30.967 -49.636,46.191 -81.825,38.147 l 2.129,-8.683 -10.568,5.393 -0.684,0.349 -9.884,5.043 5.15,7.245 1.724,2.425 6.874,9.67 2.121,-8.651 c 38.094,9.498 78.915,-8.535 96.81,-45.195 l 8.032,3.893 -3.062,-11.462 -0.735,-2.753 -2.326,-8.71 -10.104,4.357 -0.79,0.341 -10.895,4.698 z M 86.739,122.435 c 1.676,-4.357 -0.46,-9.26 -4.772,-10.952 -4.312,-1.692 -9.166,0.468 -10.842,4.825 -1.676,4.357 0.461,9.26 4.772,10.952 4.311,1.692 9.166,-0.468 10.842,-4.825 z m -11.709,6.91 c -3.64,-1.428 -8.034,0.424 -9.567,4.405 l -5.337,13.873 -2.103,5.465 -2.54,6.602 -0.818,2.795 c -0.928,2.41 0.265,5.148 2.651,6.084 l 22.58,8.86 -7.711,20.044 c -2.216,5.759 6.459,9.163 8.674,3.404 l 9.397,-24.426 c 0.928,-2.41 -0.265,-5.148 -2.651,-6.084 l -17.445,-6.846 6.247,-16.361 3.894,9.43 c 0.083,0.2 0.489,1.264 1.091,1.668 l 17.229,11.55 c 4.402,2.95 8.824,-3.828 4.413,-6.764 L 87.38,152.679 79.302,133.328 c -0.791,-1.895 -2.239,-3.184 -4.274,-3.983 m 76.675,-22.151 c -2.782,2.747 -2.873,7.515 0.144,10.531 l 10.514,10.508 4.142,4.14 5.003,5.001 2.223,1.881 c 1.827,1.826 4.813,1.846 6.636,0.046 l 17.261,-17.041 15.189,15.181 c 4.364,4.362 10.995,-2.185 6.631,-6.547 l -18.51,-18.501 c -1.827,-1.826 -4.813,-1.847 -6.637,-0.046 l -13.336,13.166 -12.418,-12.349 10.199,0.267 c 0.217,0.005 1.355,0.065 1.967,-0.321 l 17.548,-11.06 c 4.482,-2.826 0.082,-9.618 -4.391,-6.778 l -15.825,10.1 -20.964,-0.47 c -2.053,-0.046 -3.818,0.755 -5.374,2.291 z M 150.14,93.688 c -3.302,-3.3 -8.65,-3.337 -11.946,-0.083 -3.296,3.254 -3.292,8.567 0.009,11.867 3.301,3.3 8.65,3.337 11.946,0.083 3.296,-3.254 3.292,-8.567 -0.009,-11.867 M 55.374,86.212 C 52.487,87.47 50.569,83.067 53.455,81.81 l 94.719,-41.2 c 2.888,-1.258 4.804,3.145 1.919,4.402 l -33.943,14.764 1.9,1.882 a 14.53,14.53 0 0 1 4.298,8.706 l 3.095,24.358 c 0.206,1.883 1.318,4.051 2.609,5.343 l 42.487,42.447 c 3.353,3.351 8.826,3.389 12.173,0.084 l 15.686,-15.486 4.06,4.059 -15.686,15.486 c -5.585,5.514 -14.695,5.451 -20.289,-0.141 l -42.434,-42.43 c -2.476,-2.475 -3.79,-5.192 -4.255,-8.655 L 116.7,71.072 c -0.274,-2.16 -1.093,-3.831 -2.641,-5.364 l -3.523,-3.491 -0.902,0.392 -6.645,17.498 a 14.53,14.53 0 0 1 -6.213,7.461 L 75.77,100.281 c -1.261,0.654 -3.181,2.883 -3.824,4.553 l -21.552,56.057 c -1.702,4.424 0.485,9.442 4.863,11.16 l 20.519,8.052 -2.062,5.358 -20.519,-8.051 C 45.889,174.543 42.25,166.192 45.09,158.81 l 21.559,-56.002 c 1.222,-3.176 3.245,-5.662 6.183,-7.402 L 93.838,82.693 a 8.65,8.65 0 0 0 3.831,-4.59 l 4.682,-12.326 z"
     id="path2" />
  <path
     d="M 238.369,132.5 C 238.369,74.03 190.97,26.631 132.5,26.631 a 105.42,105.42 0 0 0 -67.175,24.04 l 149.366,148.554 c 14.802,-18.209 23.678,-41.429 23.678,-66.725 z M 50.309,65.775 c -14.801,18.21 -23.678,41.429 -23.678,66.725 0,58.47 47.399,105.869 105.869,105.869 25.503,0 48.899,-9.019 67.175,-24.04 z M 265,132.5 C 265,59.322 205.678,0 132.5,0 59.322,0 0,59.322 0,132.5 0,205.678 59.322,265 132.5,265 205.678,265 265,205.678 265,132.5"
     fill="#9b2423"
     id="path3" />
</svg>
