<?xml version="1.0" encoding="UTF-8" standalone="no"?>
<svg
   width="265"
   height="265"
   fill-rule="evenodd"
   version="1.1"
   id="svg3"
   xmlns="http://www.w3.org/2000/svg"
   xmlns:svg="http://www.w3.org/2000/svg">
  <defs
     id="defs3" />
  <path
     d="M 251.75,132.5 C 251.75,66.64 198.36,13.25 132.5,13.25 66.64,13.25 13.25,66.64 13.25,132.5 c 0,65.86 53.39,119.25 119.25,119.25 65.86,0 119.25,-53.39 119.25,-119.25"
     fill="#ecece7"
     id="path1" />
  <path
     d="m 151.576,196.381 38.219,10.961 3.698,-12.893 -39.754,-11.402 h -41.387 l -40.496,11.624 3.6,12.542 38.747,-11.122 -15.941,16.977 9.501,8.921 25.292,-26.936 24.608,26.715 9.359,-8.621 z m -34.249,-73.516 c 2.913,1.88 7.077,6.4 8.975,11.96 -0.2,-3.863 1.101,-18.297 12.743,-27.823 0.362,17.694 11.119,19.441 10.059,40.991 3.876,-1.761 10.531,-13.737 11.3,-17.723 3.652,8.037 2.965,17.012 -2.611,25.617 3.593,-1.003 8.742,-3.624 12.326,-6.737 -0.581,13.314 -9.989,23.245 -19.508,27.694 23.481,-4.657 41.754,-20.987 40.735,-53.39 -4.009,6.505 -9.321,11.808 -15.696,13.771 10.023,-15.11 11.837,-37.123 4.832,-52.135 -0.445,6.647 -6.543,16.704 -13.42,20.152 -3.9,-42.052 -25.745,-31.847 -26.387,-66.495 -22.363,16.044 -27.431,46.919 -27.076,54.483 -3.366,-10.886 -7.471,-19.736 -12.639,-23.417 6.386,24.094 -5.583,45.591 -6.897,55.716 -5.378,-8.398 -12.29,-11.643 -19.841,-12.734 18.865,21.427 1.264,57.717 51.947,64.475 -17.008,-5.626 -12.653,-20.695 -22.061,-30.378 4.256,0.557 8.151,0.142 11.182,4.43 0.741,-5.171 5.636,-16.149 2.036,-28.453"
     id="path2" />
  <path
     d="M 238.369,132.5 C 238.369,74.03 190.97,26.631 132.5,26.631 a 105.42,105.42 0 0 0 -67.175,24.04 l 149.366,148.554 c 14.802,-18.209 23.678,-41.429 23.678,-66.725 z M 50.309,65.775 A 105.42,105.42 0 0 0 26.631,132.5 c 0,58.47 47.399,105.869 105.869,105.869 25.503,0 48.899,-9.019 67.175,-24.04 z M 265,132.5 C 265,59.322 205.678,0 132.5,0 59.322,0 0,59.322 0,132.5 0,205.678 59.322,265 132.5,265 205.678,265 265,205.678 265,132.5"
     fill="#9b2423"
     id="path3" />
</svg>
