<?xml version="1.0" encoding="UTF-8" standalone="no"?>
<svg
   width="265"
   height="265"
   fill-rule="evenodd"
   version="1.1"
   id="svg3"
   xmlns="http://www.w3.org/2000/svg"
   xmlns:svg="http://www.w3.org/2000/svg">
  <defs
     id="defs3" />
  <path
     d="M 251.75,132.5 C 251.75,66.64 198.36,13.25 132.5,13.25 66.64,13.25 13.25,66.64 13.25,132.5 c 0,65.86 53.39,119.25 119.25,119.25 65.86,0 119.25,-53.39 119.25,-119.25"
     fill="#ecece7"
     id="path1" />
  <path
     d="m 153.467,92.315 c -5.806,2.372 -11.933,4.875 -18.996,4.962 -5.9,0.072 -10.415,-1.829 -15.162,-3.825 -6.559,-2.761 -13.513,-5.687 -25.031,-4.889 -8.998,0.624 -14.421,2.982 -19.297,5.1 -5.477,2.38 -10.152,4.413 -19.571,2.32 l -1.885,-0.49 c 0.417,3.214 0.407,7.096 4.356,7.647 9.01,1.254 14.058,-0.94 19.85,-3.456 4.343,-1.887 9.173,-3.987 17.022,-4.531 9.873,-0.683 16.053,1.917 21.886,4.372 5.398,2.272 10.534,4.432 17.911,4.343 8.411,-0.103 15.136,-2.85 21.507,-5.454 l 4.565,-1.813 v -7.029 c -2.39,0.796 -4.748,1.76 -7.156,2.743 z m 18.033,1.899 c 6.166,0.003 11.145,1.969 16.053,3.908 6.841,2.702 13.566,5.359 23.314,3.737 2.574,-0.651 3.035,-3.857 3.322,-7.49 l -1.911,0.458 C 202.959,97.09 196.573,94.568 190.066,91.996 184.567,89.824 178.989,87.62 171.5,87.622 Z m -24.439,33.871 -42.02,5.796 c -3.631,0.501 -5.856,1.881 -7.979,4.481 l -23.451,25.877 -29.663,-4.005 a 91.73,91.73 0 0 0 6.606,15.864 l 26.675,3.347 c 2.049,-0.159 3.503,-1.056 4.815,-2.503 l 18.753,-20.693 c 2.026,1.12 4.538,1.638 7.495,1.23 l 42.019,-5.797 c 5.489,-0.757 8.643,-4.169 9.75,-8.176 l 50.35,14.391 c 7.883,2.252 11.282,-9.666 3.402,-11.919 l -61.917,-17.697 z m 31.15,-13.37 a 12.16,12.16 0 0 0 -9.319,-9.023 V 77.41 h -5.409 v 28.381 a 12.15,12.15 0 0 0 -0.536,23.434 l 13.758,3.876 4.908,-17.428 z"
     id="path2" />
  <path
     d="M 238.369,132.5 C 238.369,74.03 190.97,26.631 132.5,26.631 a 105.42,105.42 0 0 0 -67.175,24.04 l 149.366,148.554 c 14.802,-18.209 23.678,-41.429 23.678,-66.725 z M 50.309,65.775 c -14.801,18.21 -23.678,41.429 -23.678,66.725 0,58.47 47.399,105.869 105.869,105.869 25.503,0 48.899,-9.019 67.175,-24.04 z M 265,132.5 C 265,59.322 205.678,0 132.5,0 59.322,0 0,59.322 0,132.5 0,205.678 59.322,265 132.5,265 205.678,265 265,205.678 265,132.5"
     fill="#9b2423"
     id="path3" />
</svg>
