<?xml version="1.0" encoding="UTF-8" standalone="no"?>
<svg
   width="265"
   height="265"
   fill-rule="evenodd"
   version="1.1"
   id="svg4"
   xmlns="http://www.w3.org/2000/svg"
   xmlns:svg="http://www.w3.org/2000/svg">
  <defs
     id="defs4" />
  <path
     d="M 251.75,132.5 C 251.75,66.64 198.36,13.25 132.5,13.25 66.64,13.25 13.25,66.64 13.25,132.5 c 0,65.86 53.39,119.25 119.25,119.25 65.86,0 119.25,-53.39 119.25,-119.25"
     fill="#ecece7"
     id="path1" />
  <path
     d="m 204.843,185.992 1.735,-0.417 c -0.261,3.298 -0.679,6.209 -3.016,6.8 -8.85,1.473 -14.954,-0.938 -21.165,-3.392 -4.516,-1.785 -9.098,-3.595 -14.803,-3.547 -4.554,0.037 -9.055,1.877 -13.79,3.811 -5.785,2.364 -11.89,4.858 -19.526,4.951 -6.697,0.082 -11.36,-1.88 -16.26,-3.942 -5.294,-2.228 -10.906,-4.59 -19.869,-3.969 -7.127,0.494 -11.511,2.4 -15.454,4.114 -5.258,2.285 -9.84,4.276 -18.02,3.137 -3.586,-0.5 -3.577,-4.024 -3.955,-6.942 l 1.711,0.445 c 8.551,1.899 12.796,0.054 17.768,-2.107 4.426,-1.924 9.35,-4.064 17.519,-4.63 10.457,-0.725 16.77,1.932 22.725,4.438 4.309,1.813 8.408,3.538 13.765,3.473 6.413,-0.079 11.974,-2.351 17.245,-4.505 5.282,-2.158 10.303,-4.21 16.095,-4.258 6.939,-0.058 12.072,1.97 17.132,3.97 5.909,2.334 11.706,4.625 20.166,2.57 z m 0,-13.76 1.735,-0.417 c -0.261,3.298 -0.679,6.21 -3.016,6.8 -8.85,1.473 -14.954,-0.938 -21.165,-3.392 -4.516,-1.784 -9.098,-3.594 -14.803,-3.547 -4.554,0.038 -9.055,1.877 -13.79,3.811 -5.785,2.364 -11.89,4.858 -19.526,4.951 -6.697,0.081 -11.36,-1.88 -16.26,-3.942 -5.294,-2.229 -10.906,-4.59 -19.869,-3.969 -7.127,0.494 -11.511,2.4 -15.454,4.113 -5.258,2.285 -9.84,4.276 -18.02,3.137 -3.586,-0.499 -3.577,-4.024 -3.955,-6.942 l 1.711,0.445 c 8.551,1.899 12.796,0.054 17.768,-2.107 4.426,-1.924 9.35,-4.064 17.519,-4.63 10.457,-0.724 16.77,1.932 22.725,4.439 4.309,1.813 8.408,3.538 13.765,3.473 6.413,-0.078 11.974,-2.351 17.245,-4.505 5.282,-2.158 10.303,-4.21 16.095,-4.258 6.939,-0.058 12.072,1.971 17.132,3.969 5.909,2.335 11.706,4.625 20.166,2.57 m -55.598,-9.092 c 4.298,-1.757 8.424,-3.442 12.932,-4.035 -16.544,0.094 -30.984,-0.919 -47.252,-3.262 L 165.534,50.531 c -36.115,8.192 -70.393,34.213 -102.768,78.729 17.732,12.247 34.283,20.011 49.711,23.502 l -1.218,2.534 c -10.882,-1.672 -44.853,-10.543 -53.3,-9.158 1.487,7.099 16.026,11.88 28.308,15.134 2.598,-0.721 5.599,-1.288 9.247,-1.541 10.456,-0.724 16.77,1.932 22.725,4.439 4.308,1.813 8.408,3.538 13.764,3.473 6.412,-0.078 11.974,-2.351 17.245,-4.504"
     id="path2" />
  <path
     d="m 160.989,121.2 -11.388,16.083 c -0.603,0.851 -0.993,1.71 -1.206,2.552 l -17.073,-0.092 c -1.358,-0.007 -2.606,0.782 -3.298,1.954 l -10.006,15.466 c -3.093,4.781 4.136,9.458 7.229,4.676 l 8.723,-13.485 21.262,0.134 c 2.099,0.114 4.27,-0.75 5.889,-3.037 l 14.483,-20.454 c 4.087,-5.772 -1.524,-11.851 -6.834,-11.159 h -37.839 c -4.869,0 -4.87,7.362 0,7.362 z m 26.21,-14.424 c 0,-4.038 -3.274,-7.312 -7.312,-7.312 -4.038,0 -7.312,3.274 -7.312,7.312 0,4.038 3.274,7.312 7.312,7.312 4.038,0 7.312,-3.274 7.312,-7.312"
     id="path3" />
  <path
     d="M 238.369,132.5 C 238.369,74.03 190.97,26.631 132.5,26.631 a 105.42,105.42 0 0 0 -67.175,24.04 l 149.366,148.554 c 14.802,-18.209 23.678,-41.429 23.678,-66.725 z M 50.309,65.775 c -14.801,18.21 -23.678,41.429 -23.678,66.725 0,58.47 47.399,105.869 105.869,105.869 25.503,0 48.899,-9.019 67.175,-24.04 z M 265,132.5 C 265,59.322 205.678,0 132.5,0 59.322,0 0,59.322 0,132.5 0,205.678 59.322,265 132.5,265 205.678,265 265,205.678 265,132.5"
     fill="#9b2423"
     id="path4" />
</svg>
