<?xml version="1.0" encoding="UTF-8" standalone="no"?>
<svg
   width="265"
   height="265"
   fill-rule="evenodd"
   version="1.1"
   id="svg4"
   xmlns="http://www.w3.org/2000/svg"
   xmlns:svg="http://www.w3.org/2000/svg">
  <defs
     id="defs4" />
  <path
     d="M 251.75,132.5 C 251.75,66.64 198.36,13.25 132.5,13.25 66.64,13.25 13.25,66.64 13.25,132.5 c 0,65.86 53.39,119.25 119.25,119.25 65.86,0 119.25,-53.39 119.25,-119.25"
     fill="#ecece7"
     id="path1" />
  <path
     d="m 202.907,186.677 1.712,-0.411 c -0.258,3.255 -0.671,6.128 -2.977,6.711 -8.735,1.454 -14.759,-0.926 -20.889,-3.348 -4.456,-1.761 -8.979,-3.548 -14.609,-3.501 -4.494,0.037 -8.937,1.853 -13.61,3.762 -5.709,2.334 -11.734,4.794 -19.27,4.887 -6.609,0.081 -11.211,-1.857 -16.047,-3.891 -5.225,-2.199 -10.764,-4.53 -19.609,-3.917 -7.033,0.487 -11.361,2.368 -15.252,4.059 -5.189,2.255 -9.711,4.22 -17.784,3.097 -3.539,-0.494 -3.531,-3.971 -3.903,-6.852 l 1.688,0.439 c 8.439,1.874 12.628,0.053 17.535,-2.079 4.368,-1.899 9.227,-4.011 17.29,-4.569 10.319,-0.715 16.55,1.907 22.427,4.38 4.253,1.79 8.298,3.492 13.585,3.428 6.329,-0.077 11.817,-2.32 17.019,-4.446 5.213,-2.129 10.169,-4.155 15.885,-4.202 6.848,-0.057 11.913,1.944 16.907,3.918 5.832,2.304 11.553,4.564 19.903,2.536 z m 0,-13.58 1.712,-0.412 c -0.258,3.255 -0.671,6.128 -2.977,6.71 -8.735,1.454 -14.759,-0.926 -20.889,-3.347 -4.456,-1.761 -8.979,-3.547 -14.609,-3.501 -4.494,0.037 -8.937,1.852 -13.61,3.762 -5.709,2.332 -11.734,4.794 -19.27,4.886 -6.609,0.081 -11.211,-1.856 -16.047,-3.891 -5.225,-2.199 -10.764,-4.529 -19.609,-3.917 -7.033,0.487 -11.361,2.369 -15.252,4.06 -5.189,2.255 -9.711,4.22 -17.784,3.096 -3.539,-0.493 -3.531,-3.971 -3.903,-6.851 l 1.688,0.439 c 8.439,1.874 12.628,0.053 17.535,-2.079 4.368,-1.898 9.227,-4.011 17.29,-4.569 10.319,-0.716 16.55,1.906 22.427,4.38 4.253,1.789 8.298,3.492 13.585,3.428 6.329,-0.078 11.817,-2.32 17.019,-4.446 5.213,-2.13 10.169,-4.155 15.885,-4.202 6.848,-0.057 11.913,1.945 16.907,3.918 5.832,2.304 11.553,4.564 19.903,2.536 m -89.425,-7.572 c 2.398,0.747 4.866,1.701 7.595,2.848 2.569,1.086 4.86,2.048 7.331,2.61 l 77.862,-22.616 c 4.518,-1.312 11.193,-7.246 9.882,-11.763 l -0.241,-0.831 z"
     id="path2" />
  <path
     d="m 110.999,161.703 35.234,-31.281 19.562,13.463 c 2.174,1.497 4.844,1.764 7.176,0.963 l 37.989,-11.666 a 8.09,8.09 0 0 0 5.35,-10.06 c -1.295,-4.237 -5.822,-6.65 -10.059,-5.349 l -34.556,10.612 -33.701,-23.194 c -1.383,-0.952 -2.967,-1.407 -4.537,-1.406 a 7.83,7.83 0 0 0 -5.414,1.979 L 84.88,144.083 c -4.287,3.807 -7.556,7.494 -10.819,12.208 l -8.031,11.603 c 2.963,0.443 5.365,0.228 8.494,-0.98 0.896,-0.346 1.768,-0.735 2.65,-1.113 2.7,-1.164 5.177,-2.203 8.008,-3.062 3.767,-1.142 7.602,-1.782 11.526,-2.056 5.493,-0.382 9.923,-0.015 14.289,1.018 z m 62.648,-55.592 c 4.995,-7.499 2.964,-17.627 -4.536,-22.621 -7.5,-4.994 -17.626,-2.964 -22.62,4.536 -4.994,7.5 -2.964,17.627 4.536,22.621 7.5,4.994 17.626,2.964 22.62,-4.536"
     id="path3" />
  <path
     d="M 238.369,132.5 C 238.369,74.03 190.97,26.631 132.5,26.631 a 105.42,105.42 0 0 0 -67.175,24.04 l 149.366,148.554 c 14.802,-18.209 23.678,-41.429 23.678,-66.725 z M 50.309,65.775 A 105.42,105.42 0 0 0 26.631,132.5 c 0,58.47 47.399,105.869 105.869,105.869 25.503,0 48.899,-9.019 67.175,-24.04 z M 265,132.5 C 265,59.322 205.678,0 132.5,0 59.322,0 0,59.322 0,132.5 0,205.678 59.322,265 132.5,265 205.678,265 265,205.678 265,132.5"
     fill="#9b2423"
     id="path4" />
</svg>
