<?xml version="1.0" encoding="UTF-8" standalone="no"?>
<svg
   width="265"
   height="265"
   fill-rule="evenodd"
   version="1.1"
   id="svg8"
   xmlns="http://www.w3.org/2000/svg"
   xmlns:svg="http://www.w3.org/2000/svg">
  <defs
     id="defs8" />
  <path
     d="M 251.75,132.5 C 251.75,66.64 198.36,13.25 132.5,13.25 66.64,13.25 13.25,66.64 13.25,132.5 c 0,65.86 53.39,119.25 119.25,119.25 65.86,0 119.25,-53.39 119.25,-119.25"
     fill="#ecece7"
     id="path1" />
  <path
     d="m 137.817,101.238 a 6.42,6.42 0 0 0 -3.309,-8.456 c -3.249,-1.423 -7.036,0.059 -8.458,3.308 -1.422,3.249 0.059,7.037 3.309,8.458 3.25,1.421 7.035,-0.059 8.457,-3.309 z m 20.348,48.899 c -24.707,16.863 -56.619,21.146 -72.194,14.596 9.743,-5.516 22.24,-10.005 35.906,-12.602 l 4.781,-9.926 -14.666,-7.595 a 3.71,3.71 0 0 1 -1.674,-4.726 l 8.997,-20.559 -12.964,0.361 -10.033,10.416 c -1.21,1.256 -3.226,1.298 -4.483,0.09 a 3.18,3.18 0 0 1 -0.091,-4.483 l 10.931,-11.348 c 0.574,-0.596 1.36,-0.954 2.196,-0.977 l 15.75,-0.44 c 0.486,-0.014 0.95,0.084 1.369,0.269 l 13.349,5.84 a 3.16,3.16 0 0 1 0.776,0.48 l 12.068,10.131 12.068,10.131 a 3.18,3.18 0 0 1 0.384,4.468 c -1.119,1.329 -3.139,1.501 -4.469,0.384 l -12.068,-10.132 -11.355,-9.532 -6.86,15.676 19.541,0.553 c 2.56,0.073 4.269,2.8 3.219,5.135 l -6.039,13.434 c 5.161,-0.191 10.371,-0.087 15.56,0.355 z m -27.538,0.616 3.742,-0.417 5.392,-11.995 -5.566,-0.158 c 0.951,1.089 1.193,2.686 0.562,3.996 z m 38.637,31.9 0.988,-0.237 c -0.149,1.878 -0.387,3.536 -1.717,3.872 -5.039,0.838 -8.515,-0.535 -12.051,-1.932 -2.572,-1.016 -5.18,-2.047 -8.428,-2.02 -2.593,0.022 -5.156,1.069 -7.852,2.17 -3.294,1.346 -6.77,2.766 -11.118,2.82 -3.813,0.046 -6.468,-1.071 -9.258,-2.245 -3.015,-1.269 -6.21,-2.614 -11.313,-2.26 -4.058,0.282 -6.555,1.367 -8.8,2.342 -2.993,1.301 -5.602,2.435 -10.261,1.787 -2.042,-0.285 -2.037,-2.291 -2.252,-3.953 l 0.974,0.253 c 4.869,1.082 7.286,0.031 10.117,-1.199 2.52,-1.095 5.323,-2.314 9.975,-2.636 5.954,-0.412 9.549,1.1 12.94,2.527 2.453,1.033 4.788,2.015 7.838,1.978 3.651,-0.045 6.818,-1.339 9.819,-2.565 3.007,-1.229 5.867,-2.397 9.164,-2.425 3.95,-0.032 6.873,1.122 9.755,2.261 3.364,1.329 6.665,2.633 11.482,1.463 z m 0,-7.835 0.988,-0.237 c -0.149,1.877 -0.387,3.535 -1.717,3.872 -5.039,0.839 -8.515,-0.535 -12.051,-1.932 -2.572,-1.016 -5.18,-2.047 -8.428,-2.02 -2.593,0.022 -5.156,1.069 -7.852,2.17 -3.294,1.347 -6.77,2.767 -11.118,2.82 -3.813,0.046 -6.468,-1.071 -9.258,-2.245 -3.015,-1.269 -6.21,-2.614 -11.313,-2.26 -4.058,0.281 -6.555,1.367 -8.8,2.342 -2.993,1.301 -5.602,2.435 -10.261,1.787 -2.042,-0.285 -2.037,-2.291 -2.252,-3.953 l 0.974,0.253 c 4.869,1.081 7.286,0.031 10.117,-1.2 2.52,-1.095 5.323,-2.314 9.975,-2.636 5.954,-0.413 9.549,1.1 12.94,2.527 2.453,1.032 4.788,2.015 7.838,1.978 3.651,-0.045 6.818,-1.339 9.819,-2.566 3.007,-1.229 5.867,-2.397 9.164,-2.425 3.95,-0.033 6.873,1.123 9.755,2.261 3.364,1.329 6.665,2.633 11.482,1.463 m 0.341,-40.32 c -3.003,3.997 -7.482,8.783 -11.202,11.737 l 4.12,0.452 a 78.11,78.11 0 0 0 8.717,-9.359 z m 4.149,7.186 c -6.016,7.396 -13.447,13.167 -21.593,17.651 -9.403,5.177 -19.756,8.638 -29.996,10.909 l 0.566,0.235 c 0.865,0.362 1.776,0.759 2.666,1.049 0.731,0.239 1.429,0.425 2.15,0.529 8.937,-2.302 17.849,-5.549 26.068,-10.074 8.136,-4.478 15.598,-10.21 21.746,-17.516 z m 3.715,6.435 c -7.038,8.1 -15.138,14.181 -23.652,18.721 l -1.386,0.724 c 1.348,0.262 2.705,0.651 4.21,1.172 8.032,-4.464 15.676,-10.29 22.419,-17.86 z m 10.044,-58.477 c -1.403,-0.477 -2.914,-0.506 -4.636,0 v 121.507 c 1.277,0.525 2.803,0.506 4.549,0 z"
     id="path2" />
  <path
     d="m 187.503,106.027 h 30.13 V 90.416 h -30.13 z"
     fill="#e41836"
     id="path3" />
  <path
     d="m 187.503,106.027 h 30.13 v 15.611 h -30.13 z"
     fill="#ffdd00"
     id="path4" />
  <path
     d="m 77.58,89.641 c 1.403,-0.477 2.914,-0.506 4.636,0 v 121.507 c -1.277,0.525 -2.803,0.506 -4.549,0 z"
     id="path5" />
  <path
     d="M 77.592,106.027 H 47.462 V 90.416 h 30.13 z"
     fill="#e41836"
     id="path6" />
  <path
     d="m 77.592,106.027 h -30.13 v 15.611 h 30.13 z"
     fill="#ffdd00"
     id="path7" />
  <path
     d="M 238.369,132.5 C 238.369,74.03 190.97,26.631 132.5,26.631 a 105.42,105.42 0 0 0 -67.175,24.04 l 149.366,148.554 c 14.802,-18.209 23.678,-41.429 23.678,-66.725 z M 50.309,65.775 A 105.42,105.42 0 0 0 26.631,132.5 c 0,58.47 47.399,105.869 105.869,105.869 25.503,0 48.899,-9.019 67.175,-24.04 z M 265,132.5 C 265,59.322 205.678,0 132.5,0 59.322,0 0,59.322 0,132.5 0,205.678 59.322,265 132.5,265 205.678,265 265,205.678 265,132.5"
     fill="#9b2423"
     id="path8" />
</svg>
