<?xml version="1.0" encoding="UTF-8" standalone="no"?>
<svg
   fill-rule="evenodd"
   height="265"
   width="265"
   version="1.1"
   id="svg5"
   xmlns="http://www.w3.org/2000/svg"
   xmlns:svg="http://www.w3.org/2000/svg">
  <defs
     id="defs5" />
  <path
     d="M 251.75,132.5 C 251.75,66.64 198.36,13.25 132.5,13.25 66.64,13.25 13.25,66.64 13.25,132.5 c 0,65.86 53.39,119.25 119.25,119.25 65.86,0 119.25,-53.39 119.25,-119.25"
     fill="#ecece7"
     id="path1" />
  <g
     transform="matrix(0.59103926,0,0,0.59103926,383.16126,243.1493)"
     id="g4">
    <path
       d="m -558.40298,-266.40454 c -2.55181,-0.007 -4.63813,0.16631 -4.63813,0.16631 l -3.13404,0.2602 0.0253,3.14578 0.324,42.14091 23.72945,143.043122 116.11079,0.335744 1.02062,-1.458741 c 0,0 2.97446,-4.257194 5.46233,-9.536457 1.24396,-2.639632 2.3934,-5.552135 2.98298,-8.514124 0.58957,-2.962013 0.70688,-6.129074 -0.88801,-8.995904 -1.14818,-2.06386 -3.01647,-3.0644 -4.75899,-3.7182 -1.74251,-0.65377 -3.54026,-0.97309 -5.21557,-1.16666 -3.02217,-0.3492 -5.60877,-0.25305 -6.1103,-0.23003 l -76.91423,-0.51365 c -3.97259,-20.97952 -7.24187,-39.97364 -11.7489,-58.60348 -4.44332,-18.36656 -10.8313,-37.77714 -20.34192,-58.46416 0.10777,-0.76565 0.68175,-4.72963 1.14988,-10.40597 0.51095,-6.19572 0.92236,-13.22664 -0.20311,-18.24697 -0.54002,-2.40881 -1.97608,-4.40463 -3.62421,-5.64028 -1.64815,-1.23566 -3.37507,-1.87777 -5.03093,-2.51127 -2.71403,-1.03828 -5.64506,-1.07879 -8.19687,-1.08607 z m -0.0186,6.78846 c 2.23511,0.007 4.9751,0.31704 5.79136,0.6295 1.58549,0.60658 2.75403,1.13363 3.38249,1.60481 0.62845,0.47118 0.85349,0.72286 1.07265,1.70047 0.69199,3.08665 0.5542,10.23718 0.0621,16.20402 -0.49207,5.96688 -1.2103,10.94315 -1.21031,10.94315 l -0.14102,1.00216 0.42638,0.91488 c 9.56534,20.62672 15.85945,39.87977 20.28318,58.16534 4.64454,19.1983 7.98557,38.7609 12.23235,61.01571 l 0.52037,2.73452 82.56626,0.55898 0.10233,-0.007 c 0,0 2.50722,-0.1254 5.17697,0.18292 1.33488,0.1544 2.68351,0.43268 3.61079,0.78058 0.92727,0.34792 1.25438,0.75471 1.20527,0.66641 0.39759,0.71467 0.58411,2.26325 0.1645,4.371249 -0.41959,2.107998 -1.36473,4.618286 -2.46259,6.947931 -1.82259,3.867519 -3.38077,6.069705 -4.06569,7.092304 l -106.63312,-0.310566 -22.70714,-136.857248 -0.29713,-38.30856 c 0.44804,-0.01 0.41271,-0.0325 0.91989,-0.0325 z m 209.0075,25.51723 c -1.16601,0.026 -2.44242,0.45614 -3.2482,1.29926 -0.96763,1.01246 -0.95166,2.63379 -1.38154,3.96668 -0.69834,2.16525 -1.12276,4.42164 -1.94389,6.54336 -1.41686,3.66101 -3.29971,7.12763 -5.11988,10.60575 -2.65299,5.0695 -5.24981,10.19829 -8.447,14.94339 -5.64156,8.37279 -12.529,15.83477 -18.84121,23.71435 -9.05069,11.29803 -17.44277,22.24761 -27.28819,33.78457 -1.81403,2.12568 -4.291,3.68859 -6.82204,4.8731 -2.33125,1.09101 -4.90655,1.7365 -7.47169,1.94894 -10.40471,0.86155 -29.23711,-0.32386 -29.23711,-0.32386 l -17.54193,12.91222 64.9706,-0.24333 c 0,0 13.32644,-11.90278 19.49253,-18.35438 10.90262,-11.40751 21.48648,-23.2027 30.86035,-35.89633 3.87472,-5.24693 7.37158,-10.79598 10.4278,-16.55823 1.6763,-3.16052 3.24134,-6.41456 4.31079,-9.82854 1.1141,-3.55663 1.82389,-7.25925 2.15371,-10.97168 0.57501,-6.47251 2.16133,-13.48856 -0.32388,-19.49253 -0.35565,-0.8592 -1.15612,-1.50391 -1.93885,-2.00598 -0.77607,-0.49782 -1.68849,-0.93602 -2.61028,-0.91653 z"
       stroke-width="3.24839"
       id="path2" />
    <path
       d="m -382.67981,-262.67457 c -11.12745,-4.5e-4 -20.1484,9.01974 -20.14888,20.14719 -4.6e-4,11.12811 9.02077,20.14935 20.14888,20.1489 11.12746,-4.8e-4 20.14766,-9.02144 20.1472,-20.1489 -4.8e-4,-11.12679 -9.02041,-20.14671 -20.1472,-20.14719 z m -7.06545,45.78695 c -4.26223,0.001 -8.24193,2.13218 -10.60573,5.67887 l -1.55677,2.18663 c -16.39174,20.29253 -11.49998,13.37471 -16.12297,20.01241 l -16.81995,23.12761 h -33.27763 c 0,0 -0.81503,0.0195 -1.18513,0.12928 -0.38545,0.11337 -0.98537,0.52374 -0.98537,0.52374 l -25.48029,16.40214 0.0201,0.0325 c -3.21773,2.4043 -5.1143,6.18438 -5.11821,10.20115 2.3e-4,7.04185 5.7092,12.75008 12.75105,12.7494 2.09923,-0.003 4.16525,-0.52425 6.01462,-1.51752 l 0.0352,0.0572 1.0458,-0.7 c 0.0455,-0.0299 0.0908,-0.0601 0.13598,-0.0906 l 19.08126,-12.77122 h 30.53639 l 6.17241,-1.30095 6.49639,-5.84675 38.45459,-47.71236 -0.0133,-0.01 c 2.0413,-2.32375 3.16827,-5.31032 3.17098,-8.40333 -2.4e-4,-7.04119 -5.70818,-12.74914 -12.74937,-12.74939 z"
       id="path3" />
    <path
       d="m -277.66211,-254.99414 -3.11719,0.97266 c 0,0 -12.96149,4.02236 -25.83398,13.94921 -12.87249,9.92686 -26.0192,26.24531 -25.75781,50.1504 0.32882,30.07362 13.39317,48.46084 26.37695,58.85937 12.98378,10.39853 26.06836,13.16602 26.06836,13.16602 l 2.97851,0.6289 1.28711,-2.75976 c 0,0 14.99335,-31.89633 14.49414,-67.625 -0.49395,-35.35231 -15.04101,-64.41797 -15.04101,-64.41797 z m -3.97656,9.56445 c 3.18693,7.17561 12.41645,30.09819 12.80469,57.88477 0.39977,28.61212 -9.45105,53.99674 -12.47657,61.16211 -3.35834,-0.94621 -10.75017,-3.3436 -19.89062,-10.66406 -11.56036,-9.25854 -23.19852,-25.02888 -23.50391,-52.95899 -0.23061,-21.09062 11.07263,-34.97084 22.77344,-43.99414 9.19242,-7.0889 16.7653,-10.13049 20.29297,-11.42969 z"
       id="path4" />
  </g>
  <path
     d="M 238.369,132.5 C 238.369,74.03 190.97,26.631 132.5,26.631 a 105.42,105.42 0 0 0 -67.175,24.04 l 149.366,148.554 c 14.802,-18.209 23.678,-41.429 23.678,-66.725 z M 50.309,65.775 A 105.42,105.42 0 0 0 26.631,132.5 c 0,58.47 47.399,105.869 105.869,105.869 25.503,0 48.899,-9.019 67.175,-24.04 z M 265,132.5 C 265,59.322 205.678,0 132.5,0 59.322,0 0,59.322 0,132.5 0,205.678 59.322,265 132.5,265 205.678,265 265,205.678 265,132.5"
     fill="#9b2423"
     id="path5" />
</svg>
