<?xml version="1.0" encoding="UTF-8" standalone="no"?>
<!-- Created with Inkscape (http://www.inkscape.org/) -->

<svg
   width="70.105782mm"
   height="70.106316mm"
   viewBox="0 0 70.105782 70.106316"
   version="1.1"
   id="svg1"
   xmlns="http://www.w3.org/2000/svg"
   xmlns:svg="http://www.w3.org/2000/svg">
  <defs
     id="defs1" />
  <g
     id="layer1"
     transform="translate(-64.822917,-90.222917)">
    <path
       d="m 131.42736,125.27608 c 0,-17.42546 -14.1261,-31.551573 -31.551547,-31.551573 -17.425458,0 -31.551562,14.126113 -31.551562,31.551573 0,17.42545 14.126104,31.55156 31.551562,31.55156 17.425447,0 31.551547,-14.12611 31.551547,-31.55156"
       fill="#ecece7"
       id="path3609"
       style="display:inline;stroke-width:0.264583" />
    <path
       id="rect5"
       style="fill:#005387;fill-opacity:1;stroke:none;stroke-width:3.09999;stroke-linecap:round;stroke-opacity:0.534842"
       d="m 89.925042,106.43252 v 7.8e-4 c -0.71117,-0.0263 -1.362353,0.44806 -1.536688,1.16776 -0.199219,0.82254 0.302252,1.6454 1.124776,1.84465 l 14.86505,3.6002 -8.315777,6.54536 c -0.873542,0.66949 -0.999431,1.59966 -1.194323,2.66224 l -1.65081,8.68002 -9.604682,5.72231 c -0.220468,0.12781 -0.253911,0.32333 -0.131289,0.55575 l -1.083347,0.63624 -1.292821,-2.20107 -1.735997,1.02003 4.413086,7.51068 c 0.590485,1.00502 1.831378,1.38149 2.867807,0.9067 l -0.876991,-1.49291 1.081775,-0.63547 0.0091,0.0165 c 0.124029,0.23184 0.227775,0.207 0.443177,0.1032 0.66162,-0.36855 1.165525,-1.06335 0.827742,-1.65314 -1.00238,-1.63624 -0.821374,-2.90147 0.702685,-3.77294 l -0.0016,-0.003 6.858816,-4.11059 c 0.502892,-0.3195 0.749407,-0.84132 0.834003,-1.25296 l 1.277182,-6.71655 c 0.671858,0.23678 0.677546,0.39712 1.252177,1.01143 l 6.073257,6.49925 c 0,0 -0.0957,7.16332 -0.0891,10.60752 -0.002,0.25482 0.1502,0.38272 0.4127,0.39473 v 1.25607 h -2.5528 v 2.01349 h 8.71128 c 1.16564,0 2.11902,-0.87938 2.23468,-2.01349 h -1.73131 v -1.25451 h 0.0187 c 0.26266,0.0106 0.29383,-0.0915 0.31343,-0.32984 0.0174,-0.75714 -0.32631,-1.54321 -1.00595,-1.55076 -1.91854,0.0354 -2.90801,-0.76839 -2.88735,-2.52389 h -0.018 l 0.10951,-7.31762 c 0.008,-0.5626 -0.30726,-0.97053 -0.67376,-1.37411 l -5.89038,-6.30307 7.52476,-5.92243 3.99649,6.62432 c 0.37569,0.65245 1.23412,1.25843 2.10102,0.92545 l 7.57167,-3.40322 c 0.78058,-0.35081 1.12619,-1.26104 0.77538,-2.04162 -0.35082,-0.78056 -1.26107,-1.12695 -2.04163,-0.77615 l -6.28822,2.82638 -3.81281,-6.32027 c -0.19139,-0.45531 -0.49534,-0.84295 -0.80429,-1.16229 l -2.68803,-3.41494 c -0.25869,-0.32866 -1.24998,-1.42892 -2.09008,-1.643 l -16.094566,-3.89816 c -0.103006,-0.0242 -0.205586,-0.0392 -0.307183,-0.043 z M 113.18404,107.68 c -1.82212,-2e-5 -3.29927,1.47713 -3.29927,3.29926 -2e-5,1.82216 1.47713,3.29928 3.29927,3.29927 1.82214,0 3.29928,-1.47711 3.29926,-3.29927 0,-1.82212 -1.47712,-3.29926 -3.29926,-3.29926 z m -29.227529,30.34292 2.504341,4.26301 -1.081774,0.63547 -2.504341,-4.26302 z m 22.438279,6.05764 h 4.94459 v 1.25451 h -4.94459 z" />
    <path
       id="path506"
       style="color:#005387;fill:#9b2423;fill-opacity:1;stroke-width:0.264583;stroke-linecap:round;-inkscape-stroke:none"
       d="m 99.875559,90.222917 c -19.317829,0 -35.052642,15.735333 -35.052642,35.053163 0,19.31782 15.734813,35.05315 35.052642,35.05315 19.317821,0 35.053141,-15.73533 35.053141,-35.05315 0,-19.31783 -15.73532,-35.053163 -35.053141,-35.053163 z m 0,6.98407 c 15.543391,0 28.069081,12.525683 28.069081,28.069093 0,6.73511 -2.35486,12.9013 -6.28489,17.72966 L 82.145889,103.49188 c 4.828297,-3.930173 10.99443,-6.284893 17.72967,-6.284893 z m -21.701002,10.233483 39.537113,39.53661 c -4.84371,3.98139 -11.05231,6.36808 -17.836111,6.36808 -15.543404,0 -28.068573,-12.52568 -28.068573,-28.06908 0,-6.78366 2.386446,-12.99194 6.367571,-17.83561 z" />
  </g>
</svg>
