<?xml version="1.0" encoding="UTF-8" standalone="no"?>
<svg
   viewBox="0 0 640.758 372.96701"
   height="372.96701"
   width="640.758"
   xml:space="preserve"
   id="svg2"
   version="1.1"
   sodipodi:docname="logo_nu_blanc.svg"
   inkscape:version="1.4.3 (0d15f75, 2025-12-25)"
   xmlns:inkscape="http://www.inkscape.org/namespaces/inkscape"
   xmlns:sodipodi="http://sodipodi.sourceforge.net/DTD/sodipodi-0.dtd"
   xmlns="http://www.w3.org/2000/svg"
   xmlns:svg="http://www.w3.org/2000/svg"
   xmlns:rdf="http://www.w3.org/1999/02/22-rdf-syntax-ns#"
   xmlns:cc="http://creativecommons.org/ns#"
   xmlns:dc="http://purl.org/dc/elements/1.1/"><sodipodi:namedview
     id="namedview1"
     pagecolor="#ffffff"
     bordercolor="#000000"
     borderopacity="0.25"
     inkscape:showpageshadow="2"
     inkscape:pageopacity="0.0"
     inkscape:pagecheckerboard="0"
     inkscape:deskcolor="#d1d1d1"
     inkscape:zoom="1.1586193"
     inkscape:cx="248.57174"
     inkscape:cy="262.38128"
     inkscape:window-width="1600"
     inkscape:window-height="930"
     inkscape:window-x="-6"
     inkscape:window-y="-6"
     inkscape:window-maximized="1"
     inkscape:current-layer="svg2" /><metadata
     id="metadata8"><rdf:RDF><cc:Work
         rdf:about=""><dc:format>image/svg+xml</dc:format><dc:type
           rdf:resource="http://purl.org/dc/dcmitype/StillImage" /></cc:Work></rdf:RDF></metadata><defs
     id="defs6"><clipPath
       id="clipPath18"
       clipPathUnits="userSpaceOnUse"><path
         id="path16"
         d="M 0,314 H 513 V 0 H 0 Z" /></clipPath></defs><g
     transform="matrix(1.3333333,0,0,-1.3333333,-21.484799,395.15012)"
     id="g10"><g
       id="g12"><g
         clip-path="url(#clipPath18)"
         id="g14"><g
           transform="translate(263.4297,178.2266)"
           id="g20"><path
             id="path22"
             style="fill:#000000;fill-opacity:1;fill-rule:nonzero;stroke:none"
             d="m 0,0 v 48.884 c 0.833,5.916 -3.287,11.387 -9.203,12.221 -1.001,0.141 -2.016,0.141 -3.017,0 h -61.151 c -5.89,0.837 -11.343,-3.259 -12.181,-9.149 -0.145,-1.019 -0.143,-2.054 0.006,-3.072 V 0 c 0.195,-6.457 -3.065,-12.528 -8.555,-15.933 -5.926,-3.88 -12.878,-5.898 -19.961,-5.794 -7.076,-0.153 -14.034,1.835 -19.961,5.704 -5.507,3.393 -8.785,9.466 -8.6,15.932 v 48.975 c 0,28.787 11.542,49.019 34.626,60.698 10.912,4.974 22.654,7.875 34.626,8.554 h 61.151 c 28.786,0 49.034,-11.542 60.741,-34.626 4.975,-10.912 7.877,-22.654 8.556,-34.626 V -0.045 c 0.15,-6.469 -3.164,-12.525 -8.69,-15.888 -12.239,-7.598 -27.729,-7.598 -39.967,0 C 2.982,-12.495 -0.223,-6.43 0,0" /></g><g
           transform="translate(322.4082,82.9023)"
           id="g24"><path
             id="path26"
             style="fill:#000000;fill-opacity:1;fill-rule:nonzero;stroke:none"
             d="m 0,0 h -61.15 c -11.974,0.68 -23.715,3.581 -34.627,8.555 -23.084,11.678 -34.626,31.85 -34.626,60.516 v 49.111 c -0.179,6.441 3.079,12.491 8.555,15.887 12.222,7.602 27.7,7.602 39.922,0 5.475,-3.396 8.733,-9.446 8.554,-15.887 V 69.071 c -0.833,-5.916 3.288,-11.387 9.204,-12.22 1.001,-0.141 2.017,-0.141 3.018,0 H 0 c 5.93,-0.732 11.329,3.482 12.06,9.412 0.115,0.933 0.108,1.878 -0.021,2.808 v 49.111 c -0.178,6.441 3.08,12.491 8.555,15.887 12.239,7.599 27.728,7.599 39.967,0 5.459,-3.407 8.698,-9.456 8.51,-15.887 V 69.071 C 68.396,57.098 65.496,45.355 60.517,34.445 48.958,11.482 28.787,0 0,0" /></g><g
           transform="translate(52.9126,16.6377)"
           id="g28"><path
             id="path30"
             style="fill:#000000;fill-opacity:1;fill-rule:nonzero;stroke:none"
             d="M 0,0 -34.219,36.211 V 1.177 h -2.58 V 42.502 L -2.58,6.292 V 42.095 H 0 Z" /></g><g
           transform="translate(61.4673,30.4434)"
           id="g32"><path
             id="path34"
             style="fill:#000000;fill-opacity:1;fill-rule:nonzero;stroke:none"
             d="m 0,0 c -0.075,-5.85 4.604,-10.652 10.454,-10.728 h 0.002 c 5.937,-0.385 11.063,4.116 11.447,10.052 0.386,5.938 -4.114,11.063 -10.051,11.448 -0.465,0.031 -0.931,0.031 -1.396,0 C 4.607,10.648 -0.033,5.808 0.091,-0.041 v -0.005 z m 23.673,0 c 0.099,-7.224 -5.676,-13.161 -12.9,-13.261 -7.223,-0.099 -13.161,5.676 -13.26,12.9 -0.1,7.224 5.675,13.161 12.899,13.26 h 0.044 C 17.563,13.025 23.434,7.378 23.582,0.271 Z" /></g><g
           transform="translate(93.4683,39.7217)"
           id="g36"><path
             id="path38"
             style="fill:#000000;fill-opacity:1;fill-rule:nonzero;stroke:none"
             d="M 0,0 V 0 C 0.883,2.301 3.152,3.766 5.612,3.621 6.536,3.636 7.451,3.435 8.283,3.033 L 6.971,0.86 C 6.457,1.188 5.859,1.361 5.25,1.358 -0.181,1.358 0.136,-5.432 0.136,-9.143 V -21.907 H -2.309 V 3.078 h 2.445 z" /></g><g
           transform="translate(108.9028,39.8125)"
           id="g40"><path
             id="path42"
             style="fill:#000000;fill-opacity:1;fill-rule:nonzero;stroke:none"
             d="m 0,0 v 0 c 1.226,2.322 3.666,3.745 6.292,3.666 3.049,0.087 5.838,-1.712 7.016,-4.526 1.284,2.848 4.164,4.637 7.287,4.526 6.426,0 7.74,-4.526 7.74,-9.822 v -15.706 h -2.444 v 16.023 c 0,3.848 -0.589,7.242 -5.341,7.242 -4.753,0 -6.428,-4.526 -6.428,-9.052 v -14.394 h -2.444 v 15.615 c 0,3.893 -0.679,7.831 -5.568,7.831 -4.888,0 -6.201,-5.476 -6.201,-9.505 V -21.681 H -2.535 V 3.305 h 2.444 z" /></g><g
           transform="translate(145.7017,30.624)"
           id="g44"><path
             id="path46"
             style="fill:#000000;fill-opacity:1;fill-rule:nonzero;stroke:none"
             d="m 0,0 c -0.659,-5.435 3.212,-10.375 8.646,-11.034 5.435,-0.659 10.375,3.212 11.035,8.646 0.107,0.884 0.094,1.779 -0.037,2.659 0.301,5.392 -3.826,10.006 -9.216,10.307 -0.247,0.014 -0.494,0.019 -0.741,0.014 C 4.077,10.347 -0.275,5.609 -0.045,0 Z m 21.952,-12.674 h -2.444 v 4.527 c -2.122,-3.189 -5.72,-5.082 -9.55,-5.025 -6.8,-0.016 -12.325,5.483 -12.342,12.282 -10e-4,0.297 0.01,0.594 0.03,0.89 -0.476,6.607 4.494,12.35 11.101,12.826 0.373,0.028 0.746,0.036 1.12,0.028 3.754,0.1 7.32,-1.641 9.551,-4.662 v 4.527 h 2.444 z" /></g><g
           transform="translate(178.3813,38.8164)"
           id="g48"><path
             id="path50"
             style="fill:#000000;fill-opacity:1;fill-rule:nonzero;stroke:none"
             d="m 0,0 v 0 c 1.403,2.806 4.286,4.563 7.423,4.526 6.428,0 8.193,-3.983 8.193,-10.41 v -15.118 h -2.444 v 15.118 c 0,4.527 -0.544,8.148 -5.975,8.148 -6.292,0 -7.288,-5.839 -7.288,-10.909 V -21.002 H -2.354 V 3.983 h 2.445 z" /></g><g
           transform="translate(221.9243,30.8955)"
           id="g52"><path
             id="path54"
             style="fill:#000000;fill-opacity:1;fill-rule:nonzero;stroke:none"
             d="m 0,0 c 0.3,5.392 -3.827,10.005 -9.218,10.306 -0.156,0.007 -0.312,0.013 -0.469,0.014 -5.934,0.42 -11.085,-4.049 -11.506,-9.984 -0.42,-5.935 4.05,-11.087 9.985,-11.507 5.935,-0.421 11.086,4.05 11.506,9.984 0.028,0.395 0.034,0.791 0.018,1.187 z m 0,-8.419 v 0 c -2.108,-3.182 -5.688,-5.074 -9.505,-5.024 -6.8,-0.041 -12.346,5.437 -12.387,12.236 -0.002,0.312 0.008,0.624 0.03,0.936 -0.401,6.612 4.634,12.297 11.247,12.698 0.309,0.019 0.619,0.026 0.928,0.02 3.748,0.154 7.332,-1.537 9.596,-4.526 v 23.944 h 2.445 v -44.629 h -2.445 z" /></g><path
           id="path56"
           style="fill:#000000;fill-opacity:1;fill-rule:nonzero;stroke:none"
           d="m 236.046,17.95 h -2.444 v 24.985 h 2.444 z m 1.041,33.314 c -0.024,-1.232 -1.03,-2.218 -2.262,-2.218 -1.25,0 -2.264,1.014 -2.264,2.264 0,1.25 1.014,2.262 2.264,2.262 1.249,0 2.262,-1.012 2.262,-2.262 z" /><g
           transform="translate(264.6074,32.5254)"
           id="g58"><path
             id="path60"
             style="fill:#000000;fill-opacity:1;fill-rule:nonzero;stroke:none"
             d="M 0,0 C -0.633,5.312 -5.452,9.105 -10.763,8.474 -15.206,7.944 -18.708,4.442 -19.237,0 Z m -19.282,-2.264 c -0.453,-5.355 3.522,-10.063 8.877,-10.516 0.374,-0.032 0.75,-0.041 1.126,-0.03 3.747,0.034 7.158,2.167 8.826,5.523 l 2.037,-1.178 c -2.079,-4.248 -6.453,-6.887 -11.18,-6.744 -7.176,-0.574 -13.459,4.778 -14.033,11.955 -0.575,7.176 4.777,13.459 11.954,14.033 C -4.499,11.354 1.784,6.002 2.358,-1.175 2.391,-1.582 2.404,-1.99 2.399,-2.399 Z" /></g><g
           transform="translate(314.5781,58.7324)"
           id="g62"><path
             id="path64"
             style="fill:#000000;fill-opacity:1;fill-rule:nonzero;stroke:none"
             d="m 0,0 h 2.58 v -25.393 c 0.494,-3.919 -0.474,-7.882 -2.717,-11.134 -5.786,-6.123 -15.44,-6.398 -21.562,-0.613 -0.025,0.024 -0.05,0.046 -0.072,0.07 l -0.544,0.543 c -2.28,3.236 -3.265,7.209 -2.762,11.134 V 0 h 2.581 v -24.668 c -0.43,-3.551 0.318,-7.145 2.126,-10.229 2.323,-2.538 5.613,-3.968 9.054,-3.939 3.431,0.004 6.709,1.43 9.051,3.939 1.758,3.103 2.487,6.684 2.082,10.229 z" /></g><g
           transform="translate(327.7949,38.8164)"
           id="g66"><path
             id="path68"
             style="fill:#000000;fill-opacity:1;fill-rule:nonzero;stroke:none"
             d="m 0,0 v 0 c 1.402,2.806 4.285,4.563 7.422,4.526 6.428,0 8.192,-3.983 8.192,-10.41 v -15.118 h -2.397 v 15.118 c 0,4.527 -0.545,8.148 -5.977,8.148 -6.291,0 -7.331,-5.839 -7.331,-10.909 V -21.002 H -2.399 V 3.983 h 2.444 z" /></g><g
           transform="translate(355.1787,17.9502)"
           id="g70"><path
             id="path72"
             style="fill:#000000;fill-opacity:1;fill-rule:nonzero;stroke:none"
             d="m 0,0 h -2.625 v 24.985 h 2.443 z m 1.04,33.313 c 0,-1.25 -1.014,-2.262 -2.264,-2.262 -1.248,0 -2.262,1.012 -2.262,2.262 0,1.25 1.014,2.264 2.262,2.264 1.25,0 2.264,-1.014 2.264,-2.264" /></g><g
           transform="translate(372.1074,22.3408)"
           id="g74"><path
             id="path76"
             style="fill:#000000;fill-opacity:1;fill-rule:nonzero;stroke:none"
             d="m 0,0 9.051,20.595 h 2.49 L 0.135,-5.703 -11.361,20.595 h 2.488 z" /></g><g
           transform="translate(407.1406,32.5254)"
           id="g78"><path
             id="path80"
             style="fill:#000000;fill-opacity:1;fill-rule:nonzero;stroke:none"
             d="M 0,0 C -0.633,5.312 -5.452,9.105 -10.765,8.474 -15.207,7.944 -18.709,4.442 -19.238,0 Z m -19.238,-2.264 c -0.451,-5.355 3.525,-10.062 8.881,-10.513 0.342,-0.03 0.687,-0.04 1.033,-0.033 3.828,-0.052 7.346,2.094 9.053,5.523 l 2.035,-1.178 c -2.078,-4.248 -6.452,-6.887 -11.18,-6.744 -7.187,0.425 -12.668,6.595 -12.245,13.781 0.39,6.595 5.65,11.857 12.245,12.245 6.65,0.007 12.046,-5.378 12.053,-12.027 0,-0.397 -0.02,-0.794 -0.057,-1.189 z" /></g><g
           transform="translate(417.8672,39.7217)"
           id="g82"><path
             id="path84"
             style="fill:#000000;fill-opacity:1;fill-rule:nonzero;stroke:none"
             d="M 0,0 V 0 C 0.812,2.273 2.973,3.781 5.387,3.757 6.309,3.762 7.221,3.562 8.058,3.169 L 6.745,0.996 c -0.52,0.315 -1.114,0.486 -1.721,0.498 -5.477,0 -5.159,-6.79 -5.159,-10.501 V -21.771 H -2.399 V 3.214 H 0 Z" /></g><g
           transform="translate(440.9512,38.4092)"
           id="g86"><path
             id="path88"
             style="fill:#000000;fill-opacity:1;fill-rule:nonzero;stroke:none"
             d="m 0,0 c -0.74,1.818 -2.568,2.951 -4.526,2.807 -2.234,0.031 -4.111,-1.668 -4.3,-3.893 0,-5.975 12.175,-3.078 12.175,-12.085 0.055,-4.25 -3.345,-7.739 -7.595,-7.794 -0.152,-0.002 -0.307,0.001 -0.461,0.009 -4.063,-0.133 -7.656,2.61 -8.6,6.562 l 2.353,0.815 c 0.622,-2.954 3.227,-5.069 6.247,-5.069 3.047,-0.15 5.638,2.198 5.786,5.244 0.004,0.077 0.007,0.155 0.007,0.233 0,3.077 -2.354,4.028 -4.889,4.888 -3.394,1.267 -7.286,2.716 -7.286,6.926 0.069,3.573 3.022,6.415 6.596,6.345 0.08,-0.002 0.159,-0.005 0.238,-0.009 C -1.559,4.88 0.878,3.342 2.128,0.95 Z" /></g><path
           id="path90"
           style="fill:#000000;fill-opacity:1;fill-rule:nonzero;stroke:none"
           d="m 454.078,17.95 h -2.399 v 24.985 h 2.399 z m 1.041,33.314 c 0.076,-1.223 -0.852,-2.276 -2.074,-2.353 -0.003,0 -0.006,-0.001 -0.008,-0.001 -1.217,-0.053 -2.258,0.868 -2.353,2.082 v 0.272 c -0.054,1.217 0.866,2.257 2.082,2.353 1.221,0.078 2.275,-0.85 2.351,-2.073 0.002,-0.003 0.002,-0.006 0.002,-0.009 z" /><g
           transform="translate(466.1172,17.9502)"
           id="g92"><path
             id="path94"
             style="fill:#000000;fill-opacity:1;fill-rule:nonzero;stroke:none"
             d="m 0,0 h -2.443 v 22.632 h -2.762 v 2.263 h 2.762 v 9.052 H 0 V 24.895 H 4.527 V 22.632 H 0 Z" /></g><g
           transform="translate(489.4727,55.5645)"
           id="g96"><path
             id="path98"
             style="fill:#000000;fill-opacity:1;fill-rule:nonzero;stroke:none"
             d="m 0,0 -6.652,-7.695 -2.083,0.951 5.477,7.921 z m 4.527,-23.039 c -0.633,5.311 -5.451,9.105 -10.763,8.474 -4.444,-0.53 -7.945,-4.032 -8.474,-8.474 z m -19.237,-2.264 c -0.452,-5.355 3.522,-10.063 8.878,-10.514 0.359,-0.031 0.721,-0.041 1.08,-0.032 3.858,-0.027 7.387,2.177 9.053,5.659 l 2.037,-1.177 c -2.078,-4.25 -6.453,-6.888 -11.181,-6.745 -7.187,0.424 -12.669,6.594 -12.246,13.781 0.39,6.595 5.651,11.856 12.246,12.245 6.65,0.007 12.045,-5.378 12.052,-12.027 0.002,-0.398 -0.019,-0.794 -0.057,-1.19 z" /></g></g></g></g></svg>
