<?xml version="1.0" encoding="utf-8"?>
<!-- Generator: Adobe Illustrator 16.0.4, SVG Export Plug-In . SVG Version: 6.00 Build 0)  -->
<!DOCTYPE svg PUBLIC "-//W3C//DTD SVG 1.1//EN" "http://www.w3.org/Graphics/SVG/1.1/DTD/svg11.dtd">
<svg version="1.1" id="Layer_1" xmlns="http://www.w3.org/2000/svg" xmlns:xlink="http://www.w3.org/1999/xlink" x="0px" y="0px"
	 width="518.879px" height="119.818px" viewBox="0 0 518.879 119.818" enable-background="new 0 0 518.879 119.818"
	 xml:space="preserve">
<polygon fill="#EC373A" points="70.034,3.941 70.034,23.941 104.034,23.941 104.034,58.108 124.034,58.108 124.034,3.941 "/>
<polygon fill="#FADC41" points="46.034,27.941 100.034,27.941 100.034,58.108 66.034,58.108 66.034,81.941 46.034,81.941 "/>
<polygon fill="#009271" points="12.034,47.941 42.034,47.941 42.034,85.941 66.034,85.941 66.034,101.941 12.034,101.941 "/>
<rect x="70.034" y="61.941" fill="#006CAF" width="54" height="54"/>
<g>
	<path d="M191.305,51.47c-0.604-5.875-3.715-11.318-9.935-11.318c-7.258,0-10.887,6.134-10.887,20.216
		c0,14.601,3.283,21.599,12.614,21.599c6.738,0,10.972-6.048,12.268-12.182l13.996,3.024c-4.405,15.464-13.996,22.117-29.893,22.117
		c-12.613,0-28.683-9.85-28.683-33.349c0-24.018,15.551-34.386,31.361-34.386c16.328,0,25.313,11.059,26.609,22.981L191.305,51.47z"
		/>
	<path d="M216.448,28.402h31.274c21.772,0,26.005,10.368,26.005,18.834c0,8.121-5.097,13.563-12.354,16.415l12.183,30.065H252.82
		l-9.244-26.782h-8.467v26.782h-18.661V28.402z M235.109,54.494h9.676c5.357,0,9.245-2.333,9.245-6.566
		c0-4.147-2.679-7.084-8.467-7.084h-10.454V54.494z"/>
	<path d="M285.395,28.402h18.661v65.315h-18.661V28.402z"/>
	<path d="M334.899,28.402h20.13l22.377,65.315h-19.439l-3.888-12.44h-22.29l-4.233,12.44h-14.773L334.899,28.402z M335.937,67.798
		h13.909l-6.565-21.339h-0.173L335.937,67.798z"/>
	<path d="M384.753,28.402h17.365l23.24,34.645h0.173V28.402h14.342v65.315h-13.996L399.268,56.74h-0.173v36.977h-14.342V28.402z"/>
	<path d="M451.972,28.402h17.365l23.241,34.645h0.172V28.402h14.342v65.315h-13.996L466.486,56.74h-0.173v36.977h-14.342V28.402z"/>
</g>
</svg>
