<?xml version="1.0" encoding="UTF-8" standalone="no"?>
<!DOCTYPE svg PUBLIC "-//W3C//DTD SVG 1.1//EN" "http://www.w3.org/Graphics/SVG/1.1/DTD/svg11.dtd">
<svg width="100%" height="100%" viewBox="0 0 485 154" version="1.1" xmlns="http://www.w3.org/2000/svg" xmlns:xlink="http://www.w3.org/1999/xlink" xml:space="preserve" xmlns:serif="http://www.serif.com/" style="fill-rule:evenodd;clip-rule:evenodd;stroke-linejoin:round;stroke-miterlimit:2;">
    <g id="Ebene" transform="matrix(4.16667,0,0,4.16667,0,0)">
        <g transform="matrix(1,0,0,1,45.9653,25.7499)">
            <path d="M0,10.9L3.182,10.9C3.902,10.886 4.204,10.842 4.565,10.756C5.874,10.439 6.522,9.561 6.738,9.1C6.954,8.639 6.968,8.193 6.968,8.02C6.968,7.085 6.566,6.595 6.306,6.321C6.177,6.207 6.046,6.09 5.917,5.962L5.356,5.443C5.947,4.809 6.566,4.162 6.566,3.241C6.566,2.965 6.494,2.405 6.033,1.829C5.226,0.793 4.132,0.749 3.671,0.734C3.469,0.72 3.253,0.72 3.052,0.734L0,0.734L0,10.9ZM1.756,1.931C1.973,1.814 2.332,1.641 2.922,1.641C3.715,1.641 4.549,1.988 4.937,2.708C4.996,2.808 5.125,3.053 5.125,3.384C5.125,3.932 4.723,4.363 4.636,4.463C4.262,4.881 3.743,5.285 3.743,5.846C3.743,6.019 3.786,6.176 3.873,6.336C3.93,6.422 4.045,6.581 4.232,6.768C4.693,7.2 5.298,7.559 5.298,8.266C5.298,8.682 5.14,9.072 4.851,9.373C4.42,9.849 3.801,9.993 3.182,9.993C2.476,9.993 2.059,9.834 1.771,9.748L1.756,1.931ZM15.21,3.412L14.289,3.959C13.021,3.442 12.604,3.312 11.855,3.312C10.43,3.312 9.076,4.047 8.442,5.327C8.053,6.12 8.025,6.94 8.025,7.228C8.025,8.208 8.356,8.913 8.528,9.243C8.774,9.662 9.047,9.935 9.177,10.065C10.126,10.886 11.308,10.872 11.697,10.886C11.956,10.9 12.2,10.9 12.446,10.9L15.21,10.9L15.21,3.412ZM13.526,9.647C12.805,9.893 12.518,9.935 12.114,9.935C11.941,9.95 11.48,9.92 11.034,9.72C10.026,9.259 9.896,8.193 9.854,7.861C9.796,7.517 9.796,7.228 9.796,7.085C9.796,6.84 9.796,5.255 10.905,4.536C11.337,4.262 11.755,4.219 11.941,4.219C12.891,4.219 13.295,4.881 13.41,5.199C13.526,5.5 13.526,5.846 13.526,5.947L13.526,9.647ZM16.712,9.043L16.698,10.684C17.073,10.827 17.677,11.087 18.642,11.101C19.75,11.101 20.327,10.756 20.715,10.424C21.449,9.776 21.507,8.999 21.507,8.625C21.507,8.366 21.449,7.618 20.815,7.098C20.399,6.754 19.793,6.566 19.29,6.364C18.843,6.192 18.613,6.063 18.44,5.903C18.268,5.76 18.166,5.53 18.166,5.285C18.166,5.169 18.195,4.925 18.382,4.693C18.714,4.306 19.362,4.277 19.462,4.277C19.966,4.277 20.384,4.479 20.772,4.78C20.902,4.867 21.018,4.953 21.132,5.054L21.132,3.6C20.557,3.412 20.125,3.298 19.52,3.298C19.117,3.298 18.743,3.354 18.599,3.384C18.138,3.485 17.835,3.643 17.677,3.745C17.044,4.162 16.642,4.91 16.642,5.66C16.642,5.874 16.684,6.508 17.13,6.983C17.562,7.444 18.354,7.689 18.468,7.733C19.074,7.934 19.98,8.193 19.98,8.999C19.98,9.1 19.966,9.316 19.808,9.532C19.65,9.748 19.348,10.05 18.714,10.05C17.792,10.05 17.13,9.489 16.928,9.302L16.712,9.043ZM29.468,7.243C29.454,6.954 29.497,5.918 29.064,5.025C28.287,3.456 26.616,3.312 26.099,3.312C25.623,3.312 24.298,3.427 23.363,4.536C22.499,5.558 22.441,6.868 22.441,7.286C22.441,9.072 23.363,10.007 23.954,10.411C24.356,10.697 25.162,11.087 26.386,11.101C27.337,11.101 28.042,10.872 28.373,10.756C28.748,10.612 29.064,10.439 29.194,10.367L29.194,8.913C28.863,9.229 28.748,9.346 28.546,9.489C27.812,10.036 27.135,10.093 26.761,10.093C26.156,10.093 25.465,9.906 25.033,9.474C24.486,8.956 24.328,8.164 24.284,7.962C24.241,7.703 24.241,7.517 24.227,7.243L29.468,7.243ZM24.298,6.293C24.328,6.076 24.356,5.86 24.428,5.644C24.515,5.371 24.947,4.306 26.055,4.292C26.214,4.292 26.545,4.32 26.904,4.55C27.553,4.953 27.653,5.572 27.697,6.278L24.298,6.293ZM32.527,-0.201L30.814,-0.201L30.814,10.9L32.527,10.9L32.527,-0.201Z" style="fill-rule:nonzero;"/>
        </g>
        <g transform="matrix(1,0,0,1,54.4741,21.7572)">
            <path d="M0,-9.891L-1.757,-9.891L-1.757,-4.102C-1.742,-3.211 -1.757,-2.75 -1.871,-2.317C-2.001,-1.87 -2.232,-1.584 -2.347,-1.44C-2.577,-1.18 -2.922,-0.863 -3.686,-0.733C-3.988,-0.677 -4.232,-0.677 -4.349,-0.677C-5.86,-0.677 -6.479,-1.483 -6.71,-2.073C-6.882,-2.534 -6.925,-3.08 -6.91,-4.102L-6.91,-9.891L-8.667,-9.891L-8.667,-4.477C-8.682,-3.282 -8.639,-2.634 -8.466,-2.101C-8.279,-1.468 -7.876,-0.877 -7.343,-0.475C-6.882,-0.1 -5.86,0.461 -4.349,0.461C-2.98,0.461 -2.001,-0.013 -1.555,-0.287C-0.504,-0.979 -0.202,-1.987 -0.1,-2.448C0,-2.937 0.014,-3.441 0,-4.477L0,-9.891ZM1.771,-7.127L1.771,0.275L3.484,0.275L3.484,-5.845C3.772,-5.989 4.088,-6.162 4.766,-6.162C5.875,-6.162 6.306,-5.658 6.464,-5.168C6.537,-4.938 6.566,-4.707 6.58,-4.204L6.58,0.275L8.279,0.275L8.279,-4.204C8.221,-5.039 8.164,-5.773 7.488,-6.349C6.667,-7.054 5.587,-7.127 3.484,-7.127L1.771,-7.127ZM11.684,-7.127L9.971,-7.127L9.971,0.274L11.684,0.274L11.684,-7.127ZM9.813,-8.969C9.813,-8.408 10.273,-7.962 10.82,-7.962C11.381,-7.962 11.842,-8.408 11.842,-8.969C11.842,-9.531 11.396,-9.991 10.834,-9.991C10.273,-9.991 9.813,-9.531 9.813,-8.969M20.721,-7.127L19.181,-7.127L17.064,-1.223C16.963,-0.907 16.95,-0.834 16.719,-0.834L14.487,-7.127L12.629,-7.127L15.365,0.275L16.243,0.275C16.775,0.26 17.194,0.245 17.654,-0.042C18.259,-0.432 18.547,-1.165 18.778,-1.799L20.721,-7.127ZM28.02,-3.382C28.005,-3.671 28.048,-4.707 27.617,-5.599C26.838,-7.169 25.169,-7.313 24.65,-7.313C24.175,-7.313 22.85,-7.198 21.915,-6.089C21.051,-5.067 20.993,-3.758 20.993,-3.339C20.993,-1.554 21.915,-0.619 22.505,-0.216C22.908,0.073 23.715,0.461 24.938,0.475C25.889,0.475 26.594,0.245 26.925,0.13C27.299,-0.013 27.617,-0.186 27.745,-0.259L27.745,-1.713C27.415,-1.396 27.299,-1.281 27.098,-1.137C26.363,-0.59 25.687,-0.532 25.313,-0.532C24.708,-0.532 24.017,-0.719 23.584,-1.151C23.038,-1.67 22.879,-2.461 22.835,-2.664C22.793,-2.922 22.793,-3.108 22.778,-3.382L28.02,-3.382ZM22.85,-4.332C22.879,-4.549 22.908,-4.765 22.98,-4.982C23.066,-5.255 23.499,-6.32 24.606,-6.335C24.765,-6.335 25.097,-6.306 25.457,-6.076C26.104,-5.672 26.206,-5.053 26.249,-4.348L22.85,-4.332ZM29.372,-7.127L29.372,0.275L31.086,0.275L31.086,-6.016C31.359,-6.147 31.676,-6.277 32.325,-6.233C32.267,-6.147 32.166,-6.033 32.166,-5.787C32.166,-5.572 32.224,-5.427 32.252,-5.356C32.41,-4.995 32.757,-4.792 33.159,-4.792C33.807,-4.792 34.196,-5.269 34.196,-5.889C34.196,-6.233 34.053,-6.463 33.995,-6.565C33.648,-7.083 32.987,-7.098 32.425,-7.127L29.372,-7.127ZM35.063,-1.584L35.048,0.058C35.422,0.202 36.027,0.461 36.993,0.475C38.101,0.475 38.677,0.13 39.066,-0.2C39.799,-0.849 39.857,-1.626 39.857,-2.001C39.857,-2.26 39.799,-3.008 39.166,-3.527C38.748,-3.872 38.145,-4.059 37.64,-4.261C37.193,-4.434 36.963,-4.563 36.791,-4.722C36.618,-4.865 36.517,-5.096 36.517,-5.342C36.517,-5.456 36.546,-5.7 36.733,-5.93C37.063,-6.32 37.712,-6.349 37.813,-6.349C38.317,-6.349 38.733,-6.147 39.123,-5.845C39.252,-5.759 39.368,-5.672 39.482,-5.572L39.482,-7.027C38.907,-7.213 38.475,-7.328 37.871,-7.328C37.468,-7.328 37.093,-7.27 36.949,-7.241C36.489,-7.14 36.186,-6.983 36.027,-6.881C35.395,-6.463 34.991,-5.715 34.991,-4.967C34.991,-4.751 35.034,-4.118 35.48,-3.641C35.911,-3.181 36.705,-2.937 36.819,-2.893C37.424,-2.691 38.331,-2.434 38.331,-1.626C38.331,-1.526 38.317,-1.31 38.158,-1.094C38,-0.877 37.698,-0.575 37.063,-0.575C36.142,-0.575 35.48,-1.137 35.279,-1.323L35.063,-1.584ZM42.871,-7.127L41.158,-7.127L41.158,0.274L42.871,0.274L42.871,-7.127ZM40.999,-8.969C40.999,-8.408 41.46,-7.962 42.007,-7.962C42.568,-7.962 43.029,-8.408 43.029,-8.969C43.029,-9.531 42.583,-9.991 42.021,-9.991C41.46,-9.991 40.999,-9.531 40.999,-8.969M48.299,-7.127L47.003,-7.127L47.003,-9.66C47.003,-9.832 47.017,-10.106 46.773,-10.106C46.714,-10.106 46.614,-10.078 46.57,-10.049C46.499,-9.991 46.484,-9.876 46.47,-9.689C46.369,-9.028 46.182,-8.378 45.751,-7.875C45.16,-7.154 44.526,-7.14 44.152,-7.112L44.152,-5.974L45.275,-5.974L45.275,0.275L47.003,0.275L47.003,-5.974L48.299,-5.974L48.299,-7.127ZM55.282,-9.286C55.297,-9.863 54.851,-10.351 54.289,-10.351C54.088,-10.366 53.555,-10.266 53.339,-9.689C53.311,-9.616 53.267,-9.501 53.267,-9.315C53.253,-8.753 53.713,-8.278 54.275,-8.278C54.836,-8.278 55.268,-8.739 55.282,-9.286M52.072,-9.315C52.072,-9.876 51.626,-10.351 51.05,-10.351C50.689,-10.351 50.359,-10.165 50.187,-9.863C50.042,-9.632 50.028,-9.43 50.028,-9.329C50.028,-8.767 50.489,-8.278 51.05,-8.278C51.223,-8.278 51.655,-8.336 51.914,-8.767C52.057,-8.997 52.072,-9.214 52.072,-9.315M55.901,-7.213L54.98,-6.666C53.713,-7.184 53.295,-7.313 52.548,-7.313C51.122,-7.313 49.768,-6.58 49.135,-5.298C48.746,-4.506 48.718,-3.685 48.718,-3.397C48.718,-2.417 49.048,-1.713 49.222,-1.381C49.466,-0.963 49.74,-0.69 49.87,-0.56C50.819,0.26 52,0.245 52.388,0.26C52.648,0.275 52.893,0.275 53.137,0.275L55.901,0.275L55.901,-7.213ZM54.217,-0.979C53.498,-0.733 53.209,-0.69 52.806,-0.69C52.634,-0.677 52.173,-0.705 51.727,-0.907C50.719,-1.368 50.589,-2.434 50.546,-2.764C50.489,-3.108 50.489,-3.397 50.489,-3.541C50.489,-3.786 50.489,-5.37 51.597,-6.089C52.029,-6.363 52.446,-6.406 52.634,-6.406C53.584,-6.406 53.986,-5.744 54.102,-5.427C54.217,-5.125 54.217,-4.779 54.217,-4.679L54.217,-0.979ZM61.036,-7.127L59.741,-7.127L59.741,-9.66C59.741,-9.832 59.754,-10.106 59.51,-10.106C59.452,-10.106 59.351,-10.078 59.309,-10.049C59.237,-9.991 59.221,-9.876 59.207,-9.689C59.107,-9.028 58.919,-8.378 58.488,-7.875C57.897,-7.154 57.264,-7.14 56.89,-7.112L56.89,-5.974L58.013,-5.974L58.013,0.275L59.741,0.275L59.741,-5.974L61.036,-5.974L61.036,-7.127Z" style="fill-rule:nonzero;"/>
        </g>
        <g transform="matrix(1,0,0,1,12.1411,23.1121)">
            <path d="M0,-9.574C0,-10.031 0.704,-10.031 0.704,-9.574L0.704,0.002C0.704,0.458 0,0.458 0,0.002L0,-9.574ZM0,-12.214C0,-11.758 0.704,-11.758 0.704,-12.214L0.704,-23.112L0,-23.112L0,-12.214ZM0,2.642C0,2.184 0.704,2.184 0.704,2.642L0.704,13.538L0,13.538L0,2.642ZM12.494,0.001C12.494,0.458 13.198,0.458 13.198,0.001L13.198,-9.574C13.198,-10.032 12.494,-10.032 12.494,-9.574L12.494,0.001ZM12.494,-23.112L13.198,-23.112L13.198,-12.214C13.198,-11.758 12.494,-11.758 12.494,-12.214L12.494,-23.112ZM12.494,13.538L13.198,13.538L13.198,2.642C13.198,2.184 12.494,2.184 12.494,2.642L12.494,13.538ZM11.496,-11.24C11.963,-11.24 11.963,-10.551 11.496,-10.551L1.701,-10.551C1.235,-10.551 1.235,-11.24 1.701,-11.24L11.496,-11.24ZM1.701,0.977C1.235,0.977 1.235,1.666 1.701,1.666L11.496,1.666C11.963,1.666 11.963,0.977 11.496,0.977L1.701,0.977ZM25.34,-11.24L25.34,-10.551L14.196,-10.551C13.729,-10.551 13.729,-11.24 14.196,-11.24L25.34,-11.24ZM-12.142,-11.24L-12.142,-10.551L-0.998,-10.551C-0.531,-10.551 -0.531,-11.24 -0.998,-11.24L-12.142,-11.24ZM25.34,0.977L25.34,1.666L14.196,1.666C13.729,1.666 13.729,0.977 14.196,0.977L25.34,0.977ZM-12.142,0.977L-12.142,1.666L-0.998,1.666C-0.531,1.666 -0.531,0.977 -0.998,0.977L-12.142,0.977ZM6.114,-5.746C6.444,-5.423 5.945,-4.935 5.615,-5.259C5.285,-5.582 1.059,-9.714 1.059,-9.714C0.729,-10.037 1.227,-10.524 1.558,-10.201C1.842,-9.923 6.114,-5.746 6.114,-5.746M1.558,2.015C1.227,1.692 0.729,2.179 1.059,2.502C1.059,2.502 5.285,6.633 5.615,6.956C5.945,7.279 6.444,6.793 6.114,6.469C6.114,6.469 1.842,2.293 1.558,2.015M18.61,-5.746C18.94,-5.423 18.441,-4.935 18.111,-5.259C17.781,-5.582 13.555,-9.714 13.555,-9.714C13.226,-10.037 13.723,-10.524 14.054,-10.201C14.338,-9.923 18.61,-5.746 18.61,-5.746M12.138,-9.714C12.468,-10.037 11.97,-10.525 11.64,-10.202C11.64,-10.202 7.414,-6.07 7.084,-5.747C6.753,-5.424 7.251,-4.937 7.582,-5.26C7.582,-5.26 11.854,-9.437 12.138,-9.714M7.582,6.956C7.251,7.279 6.753,6.791 7.084,6.468C7.414,6.146 11.64,2.013 11.64,2.013C11.97,1.691 12.468,2.178 12.138,2.501C11.854,2.78 7.582,6.956 7.582,6.956M-0.351,-9.714C-0.021,-10.037 -0.519,-10.525 -0.848,-10.202C-0.848,-10.202 -5.075,-6.07 -5.405,-5.747C-5.735,-5.424 -5.237,-4.937 -4.907,-5.26C-4.907,-5.26 -0.636,-9.437 -0.351,-9.714M6.114,-3.826C6.444,-4.149 5.945,-4.636 5.615,-4.314C5.285,-3.991 1.059,0.142 1.059,0.142C0.729,0.464 1.227,0.952 1.558,0.629C1.842,0.35 6.114,-3.826 6.114,-3.826M1.558,-11.588C1.227,-11.264 0.729,-11.751 1.059,-12.074C1.059,-12.074 5.285,-16.207 5.615,-16.53C5.945,-16.853 6.444,-16.367 6.114,-16.042C6.114,-16.042 1.842,-11.866 1.558,-11.588M18.61,-3.826C18.94,-4.149 18.441,-4.636 18.111,-4.314C17.781,-3.991 13.555,0.142 13.555,0.142C13.226,0.464 13.723,0.952 14.054,0.629C14.338,0.35 18.61,-3.826 18.61,-3.826M12.138,0.142C12.468,0.464 11.97,0.952 11.639,0.63C11.639,0.63 7.414,-3.503 7.083,-3.826C6.753,-4.149 7.251,-4.636 7.582,-4.313C7.582,-4.313 11.853,-0.136 12.138,0.142M7.582,-16.53C7.251,-16.852 6.753,-16.366 7.083,-16.041C7.414,-15.719 11.639,-11.588 11.639,-11.588C11.97,-11.264 12.468,-11.751 12.138,-12.074C11.853,-12.353 7.582,-16.53 7.582,-16.53M-0.396,0.1C-0.067,0.424 -0.565,0.91 -0.895,0.587C-0.895,0.587 -5.121,-3.544 -5.451,-3.867C-5.782,-4.19 -5.283,-4.678 -4.954,-4.355C-4.954,-4.355 -0.682,-0.177 -0.396,0.1M22.465,10.234L21.967,10.722L13.552,2.495C13.223,2.172 13.721,1.684 14.051,2.008C14.335,2.285 22.465,10.234 22.465,10.234M-0.852,2.01C-0.522,1.688 -0.023,2.175 -0.354,2.498L-8.767,10.724L-9.266,10.237C-9.266,10.237 -1.137,2.288 -0.852,2.01M21.967,-20.298L22.465,-19.809L14.051,-11.583C13.721,-11.26 13.223,-11.748 13.552,-12.071C13.838,-12.348 21.967,-20.298 21.967,-20.298M-0.354,-12.068C-0.023,-11.745 -0.521,-11.258 -0.852,-11.581L-9.264,-19.807L-8.767,-20.295C-8.767,-20.295 -0.638,-12.346 -0.354,-12.068M22.465,-1.979L21.967,-1.493L19.579,-3.827C19.249,-4.15 19.746,-4.637 20.077,-4.314C20.362,-4.037 22.465,-1.979 22.465,-1.979M19.576,-5.75C19.246,-5.428 19.744,-4.94 20.075,-5.264L22.463,-7.597L21.964,-8.085C21.964,-8.085 19.86,-6.028 19.576,-5.75M9.47,-20.301L9.969,-19.814L7.581,-17.479C7.25,-17.157 6.752,-17.644 7.083,-17.967C7.367,-18.244 9.47,-20.301 9.47,-20.301M5.618,-17.479C5.949,-17.157 6.447,-17.644 6.117,-17.967L3.729,-20.301L3.23,-19.814C3.23,-19.814 5.334,-17.757 5.618,-17.479M-9.264,-1.972L-8.765,-1.486L-6.378,-3.821C-6.047,-4.143 -6.546,-4.632 -6.876,-4.309C-7.161,-4.03 -9.264,-1.972 -9.264,-1.972M-6.379,-5.746C-6.05,-5.423 -6.547,-4.935 -6.878,-5.259L-9.266,-7.595L-8.767,-8.081C-8.767,-8.081 -6.664,-6.024 -6.379,-5.746M3.726,10.725L3.228,10.238L5.615,7.903C5.947,7.581 6.444,8.069 6.114,8.391C5.83,8.668 3.726,10.725 3.726,10.725M7.583,7.902C7.252,7.579 6.754,8.068 7.085,8.389L9.473,10.724L9.971,10.237C9.971,10.237 7.868,8.18 7.583,7.902" style="fill-rule:nonzero;"/>
        </g>
    </g>
</svg>
