<?xml version="1.0" encoding="utf-8"?>
<!-- Generator: Adobe Illustrator 23.1.1, SVG Export Plug-In . SVG Version: 6.00 Build 0)  -->
<svg version="1.1" id="Layer_1" xmlns="http://www.w3.org/2000/svg" xmlns:xlink="http://www.w3.org/1999/xlink" x="0px" y="0px"
	 viewBox="0 0 308.9 297.6" style="enable-background:new 0 0 308.9 297.6;" xml:space="preserve">
<style type="text/css">
	.st0{fill:#FFFFFF;}
	.st1{fill:#0095DA;}
</style>
<title>Asset 1</title>
<g>
	<g id="Layer_1-2">
		<path class="st0" d="M216.4,0H70.5C72.7,45.6,40.8,74.1,0,80.8c9.8,102.6,62.9,178.6,154.9,216.7C227.8,267,287,208.6,305,126.6
			C321.4,51.5,285.3,0,216.4,0z"/>
		<path class="st1" d="M216.4,0H70.5C72.7,45.6,40.8,74.1,0,80.8c9.8,102.6,62.9,178.6,154.9,216.7C227.8,267,287,208.6,305,126.6
			C321.4,51.5,285.3,0,216.4,0z M294.1,124.2c-15.5,72.5-67.9,130.6-139.2,161.3C71.2,249.6,22.8,178.4,12.3,89.5
			c37.5-9.7,66.7-37.8,69.3-78.6h135.4C283.2,10.5,307.9,62.7,294.1,124.2z"/>
		<polygon class="st1" points="146.8,177.2 162.9,177.2 155.4,140.9 		"/>
		<path class="st1" d="M216.9,20.9H90.3c-5.9,37-32.3,63.7-67,75.6c11.9,81.9,58,145.5,131.8,178.2c64.9-29.5,114.2-82,129.5-152.7
			C296.5,67.2,276.8,20.6,216.9,20.9z M44.7,104.7h78.1l37-41.3L144,57.7c-1.7-0.7-1.6-2.4,0-2.4h17.3l5.4-18c0.3-1.2,1.9-0.9,1.9,0
			l1.7,18h16.6c1.2,0,1.7,1.5-0.5,2.4l-17.6,6l-27.6,41h9.1c-0.9,3.3-1.9,7.3-3.1,11.9l-14.5,1l-1.6,2.4c-4.1,5-14.2,17.6-20.2,19
			c-3.8,0.9-7.6-2.9-6-7.8c1.4-4.7,5.2-8.6,7.4-12.8l-67.9-8.6C41.3,109.8,41.6,104.7,44.7,104.7z M240.1,162.5
			c-5.2,0-5.4,2.1-5.4,7.3V194c0,5.4,0.4,7.2,5.4,7.2v4.8H219v-4.8c4.8,0,5.5-1.7,5.5-7.2v-18.8L207.4,196v0.9
			c0,2.9,1.6,4.1,5.5,4.1v4.8h-52.5V201c3.8,0,6.2-0.4,6.2-4c0-2.2-1-8.1-2.6-14.5h-19l-2.4,9.7c-1.7,6.4-1.2,8.8,5.7,8.8v4.8h-43.7
			V201c5.2,0,5.7-1.7,5.7-7.3v-22.4l-13.3,33l-13.5-34v24c0,4.7,0.5,6.7,5.7,6.7v4.8H73.1V201c5.5,0,5.7-3.3,5.7-7.9v-23.4
			c0-4.1,0-7.3-5.3-7.3v-4.8h17.3l9.3,24.9l9.3-24.9h16.6v4.8c-5.2,0-5.3,2.1-5.3,7.3v24.2c0,4.7,0.5,6,1.9,6.6
			c3.1,1.2,9.2,0.9,10.9-2.6c1.6-3.4,2.9-7,3.8-10.7l22.4-88l20.2,86.4c2.2,9.3,3.5,11.7,5.5,13.6c2.1,1.7,8.6,3.1,11.1,0.5
			c0.5-0.5,0.9-1.6,0.9-5.7v-24.2c0-5.5-0.4-7.3-5.5-7.3v-4.8h21.2v4.8c-5.2,0-5.5,2.2-5.5,7.3v19l17.1-20.9V167
			c0-2.2-1.4-4.5-5.5-4.5v-4.8h21.1V162.5L240.1,162.5z M238,109.8l-67,5l-2.4-10.2H238C241.6,104.7,241.8,109.7,238,109.8z"/>
	</g>
</g>
</svg>
