<?xml version="1.0" encoding="UTF-8" standalone="no"?>
<!-- Generator: Adobe Illustrator 15.0.0, SVG Export Plug-In . SVG Version: 6.00 Build 0)  -->

<svg
   version="1.1"
   id="Layer_1"
   x="0px"
   y="0px"
   width="579.50598"
   height="192.46899"
   viewBox="0 0 579.50598 192.46899"
   enable-background="new 0 0 625 226.77"
   xml:space="preserve"
   sodipodi:docname="CIIRC_en.svg"
   inkscape:version="1.4 (unknown)"
   xmlns:inkscape="http://www.inkscape.org/namespaces/inkscape"
   xmlns:sodipodi="http://sodipodi.sourceforge.net/DTD/sodipodi-0.dtd"
   xmlns="http://www.w3.org/2000/svg"
   xmlns:svg="http://www.w3.org/2000/svg"><defs
   id="defs7" /><sodipodi:namedview
   id="namedview7"
   pagecolor="#ffffff"
   bordercolor="#666666"
   borderopacity="1.0"
   inkscape:showpageshadow="2"
   inkscape:pageopacity="0.0"
   inkscape:pagecheckerboard="0"
   inkscape:deskcolor="#d1d1d1"
   inkscape:zoom="1.24"
   inkscape:cx="291.93548"
   inkscape:cy="95.967742"
   inkscape:window-width="1920"
   inkscape:window-height="1022"
   inkscape:window-x="0"
   inkscape:window-y="34"
   inkscape:window-maximized="1"
   inkscape:current-layer="Layer_1" />
<g
   id="g7"
   transform="translate(-19.993999,-18.069)">
	<rect
   x="19.993999"
   y="18.711"
   fill="#0065bd"
   width="191.18401"
   height="191.185"
   id="rect1" />
	<g
   id="g6">
		<path
   fill="#ffffff"
   d="m 174.95,101.619 4.898,-3.576 c -1.852,-1.984 -3.838,-4.367 -3.838,-8.207 0,-2.911 1.986,-6.089 4.5,-7.411 -1.322,-1.589 -3.442,-3.042 -6.484,-3.042 -3.972,0 -7.282,2.912 -7.282,6.748 0,2.646 1.721,4.898 3.708,5.956 -0.001,3.706 1.72,7.014 4.498,9.532 m -26.205,-26.075 4.103,-7.281 h -6.088 c 0,1.323 -1.193,2.779 -2.651,2.779 -1.584,0 -2.644,-1.058 -2.644,-2.779 h -5.429 c 0,1.587 -1.188,2.779 -2.645,2.779 -1.456,0 -2.648,-1.191 -2.648,-2.779 h -6.089 l 3.575,7.014 c 2.782,-0.263 5.426,-0.395 8.074,-0.395 4.894,0 9.132,0.263 12.442,0.662 m -11.12,64.589 c -0.661,-1.19 -1.322,-2.648 -1.322,-5.291 0,-3.445 1.986,-6.356 6.222,-8.21 2.779,-1.323 4.895,-2.516 8.603,-4.365 8.734,-4.5 11.779,-12.973 11.779,-21.707 0,-4.369 -1.192,-7.812 -2.646,-10.724 0.394,2.383 0.792,4.37 0.792,6.75 0,9.133 -3.175,15.885 -11.513,19.985 -5.293,2.647 -7.943,3.707 -11.12,5.296 -4.497,2.381 -7.015,5.427 -7.015,9.133 -0.001,4.631 2.38,8.075 6.22,9.133 m -5.162,-1.72 c -1.454,-1.457 -3.042,-4.104 -3.042,-7.545 0,-4.368 2.91,-8.073 8.071,-10.722 4.501,-2.117 7.146,-3.178 11.117,-5.029 8.341,-4.102 10.854,-11.118 10.854,-18.66 0,-7.282 -2.381,-10.988 -4.367,-13.37 1.454,2.781 1.854,6.088 1.854,8.87 0,8.073 -2.381,15.087 -11.781,18.793 -4.766,1.984 -7.809,2.645 -11.912,4.498 -6.486,3.047 -9,6.62 -9,11.913 10e-4,5.031 3.178,9.795 8.206,11.252 m -5.028,-1.059 c -2.252,-1.854 -5.164,-4.898 -5.164,-10.325 0,-5.69 2.382,-9.925 9.795,-13.103 4.768,-1.986 7.28,-2.912 11.782,-4.633 9.529,-3.573 11.515,-10.589 11.515,-17.472 0,-6.616 -2.383,-10.457 -5.295,-12.97 1.72,2.117 2.781,5.693 2.781,9.396 0,8.736 -3.309,13.634 -12.707,16.944 -3.839,1.189 -7.941,2.38 -12.178,3.969 -7.675,2.911 -11.647,7.146 -11.647,14.294 -10e-4,7.414 5.691,12.975 11.118,13.9 m -5.295,-0.925 c -5.294,-2.649 -7.809,-8.34 -7.809,-13.371 0,-7.278 4.5,-12.441 12.042,-15.222 4.637,-1.718 8.341,-2.777 12.974,-4.365 9.001,-3.178 11.913,-7.412 11.913,-15.486 0,-4.633 -1.72,-8.602 -4.5,-10.853 0.924,1.058 1.19,2.38 1.19,3.573 0,2.25 -1.19,3.308 -2.911,3.308 -1.06,0 -2.12,-0.662 -2.25,-1.719 0.529,0.393 0.927,0.528 1.458,0.528 1.454,0 2.248,-1.06 2.248,-2.516 0,-2.25 -2.117,-3.441 -4.234,-3.706 -1.854,-0.266 -3.84,-0.266 -6.089,-0.266 -2.249,0 -4.368,0.133 -7.146,0.266 1.719,2.382 7.413,1.721 9.131,2.911 -1.458,-0.13 -2.912,-0.13 -4.37,0.264 0,0.929 -0.394,1.986 -1.321,1.986 -1.721,0 -2.516,-1.852 -3.706,-5.161 l -6.75,0.531 c -1.061,0.131 -1.456,0.528 -1.326,1.323 l 0.664,6.618 c 0,0.263 0.266,0.396 0.531,0.396 0.263,0 0.526,-0.132 0.659,-0.53 0.265,-0.529 1.061,-1.72 3.044,-1.72 2.912,0 5.162,2.649 5.293,5.691 -1.058,-1.454 -3.438,-2.779 -7.411,-2.779 -3.043,0 -5.557,0.926 -9.528,0.926 -4.236,0 -6.618,-1.588 -6.618,-3.573 0,-0.926 0.13,-1.457 0.661,-2.119 -1.72,0.795 -3.044,2.252 -3.044,4.634 0,2.911 2.12,5.958 8.338,5.958 5.69,0 8.341,-3.577 13.501,-3.577 2.383,0 3.575,1.191 3.575,2.517 0,1.19 -1.062,2.25 -2.911,2.25 -2.252,0 -3.838,-1.19 -4.634,-2.383 -0.133,-0.266 -0.265,-0.396 -0.53,-0.396 -0.394,0 -0.529,0.264 -0.529,0.529 l 0.135,6.352 c 0,0.794 0.394,1.193 1.323,1.06 3.969,-0.398 8.071,-0.927 11.913,-1.191 7.146,-0.661 12.044,-5.428 12.044,-10.721 0,-0.795 0,-1.458 -0.133,-2.25 0.66,1.059 0.925,2.118 0.925,3.44 0,4.898 -2.646,8.604 -11.115,10.855 -4.502,1.19 -7.811,1.719 -11.651,2.646 -10.191,2.383 -16.808,10.191 -16.808,18.929 -0.003,8.073 5.688,15.354 13.762,16.413 M 77.799,88.646 c 0.53,-1.19 0.664,-2.25 0.664,-3.045 0,-1.72 -0.797,-3.307 -1.589,-3.969 1.984,0 3.704,1.454 3.704,3.44 0,1.853 -1.19,3.046 -2.779,3.574 m 24.354,31.5 4.235,-2.251 c 1.457,-8.864 6.749,-15.087 16.015,-17.335 -4.896,0.262 -9.133,0.395 -15.087,0.661 -6.352,0.263 -16.809,1.06 -24.089,1.588 -1.458,0.133 -2.382,-0.398 -2.78,-1.588 -0.397,-1.323 -1.191,-3.839 -1.324,-5.295 -0.133,-1.192 0.133,-1.986 1.193,-2.779 2.115,-1.457 4.235,-3.178 4.235,-6.75 0,-3.839 -3.311,-6.353 -6.355,-6.353 -1.058,0 -1.851,0.131 -2.513,0.395 -0.796,-0.527 -1.588,-0.926 -3.177,-0.926 -2.252,0 -4.235,1.456 -4.767,2.647 -3.836,-0.264 -6.881,2.515 -6.618,6.22 0.529,-0.529 1.589,-1.058 2.782,-1.058 1.454,0 2.778,1.058 2.778,2.647 0,1.457 -0.264,3.311 -0.264,5.293 0,6.091 4.898,9.268 4.898,12.443 0,1.588 -1.193,2.911 -2.781,2.911 0.927,3.31 3.972,5.03 8.073,5.03 2.648,0 5.031,-0.264 8.868,-0.264 10.988,10e-4 15.75,1.19 16.678,4.764 m 40.765,37.458 h 1.327 c -0.137,-4.236 -1.192,-7.147 -2.911,-10.189 -0.93,-1.72 -2.12,-3.573 -3.046,-4.769 -0.53,-0.792 -1.193,-1.056 -1.986,-1.056 -0.531,0 -0.926,0.396 -0.531,1.056 1.062,1.721 2.517,4.372 4.37,8.472 -1.588,0.267 -1.986,1.061 -1.986,2.383 0,2.117 1.986,4.103 4.763,4.103 M 72.639,89.175 c 0.13,-3.707 -1.456,-5.691 -3.706,-6.618 0.396,-0.132 0.924,-0.398 1.719,-0.398 1.721,0 3.575,1.458 3.575,3.708 0,1.19 -0.397,2.513 -1.588,3.308 m 84.84,93.179 c -0.528,-1.19 -2.25,-2.38 -4.367,-2.38 -1.193,0 -1.985,0.263 -2.517,0.527 0.132,-1.058 1.191,-2.25 3.31,-2.25 2.515,0.001 3.837,1.986 3.574,4.103 m -0.794,5.694 c -0.794,-0.926 -2.115,-1.724 -3.837,-1.724 -2.12,0 -3.177,0.928 -3.708,1.591 -0.263,-1.591 1.06,-3.574 3.576,-3.574 2.646,0 3.969,1.853 3.969,3.707 M 62.58,124.911 c 0.925,-2.251 3.042,-3.838 5.558,-4.368 0.527,-0.794 1.191,-1.454 1.854,-1.985 l -4.5,-18.795 c -0.531,-1.321 -0.93,-2.645 -0.93,-4.5 0,-1.983 0.399,-3.969 0.399,-5.027 0,-0.927 -0.529,-1.191 -1.058,-1.191 -0.398,0 -0.663,0 -0.794,0.131 v 0.531 c 0,3.042 -1.856,5.425 -4.898,5.425 -3.043,0 -5.427,-2.514 -5.427,-5.425 0,-2.913 2.384,-5.297 5.427,-5.297 0.529,0 1.192,0 1.984,0.265 0.927,-2.38 3.838,-4.5 6.882,-4.102 -2.116,-2.649 -5.292,-4.237 -8.866,-4.237 -7.677,0 -13.764,5.56 -13.764,13.371 0,7.277 5.956,13.102 13.368,13.235 z m 20.515,28.456 c 1.985,0 4.102,-1.059 6.086,-3.043 3.573,-3.44 8.604,-8.603 11.65,-10.59 2.646,-1.718 4.367,-2.38 6.086,-2.38 1.059,0 1.856,0.263 2.649,1.059 l 4.499,-3.443 c -5.161,-3.838 -7.544,-8.867 -7.677,-15.087 -7.146,3.838 -12.308,9.135 -18.267,14.16 -1.057,0.799 -1.587,1.191 -2.513,1.191 -0.928,0 -1.722,-0.925 -3.31,-2.515 -1.324,-1.323 -1.589,-2.117 -1.589,-3.043 0,-1.588 0.53,-2.118 0.53,-4.234 0,-4.235 -3.307,-6.619 -6.485,-6.619 -2.648,0 -4.633,1.456 -5.294,3.31 -3.575,0.263 -5.826,2.912 -5.826,5.689 0,0.663 0.135,1.195 0.268,1.589 -1.324,0.795 -2.65,2.382 -2.65,4.503 0,2.249 1.192,4.367 3.179,5.028 -0.268,-0.399 -0.399,-0.926 -0.399,-1.588 0,-1.191 1.061,-2.251 2.517,-2.251 1.189,0 1.984,0.397 2.912,1.456 1.19,1.588 2.382,3.043 4.368,4.765 1.854,1.589 3.97,2.648 5.955,3.84 1.191,0.793 2.116,1.854 2.116,3.439 0,1.062 -0.792,2.252 -2.38,2.647 0.662,1.458 1.986,2.117 3.575,2.117 M 75.55,127.559 c -0.132,-2.647 -2.117,-4.764 -4.632,-5.292 0.397,-0.269 1.057,-0.664 2.117,-0.664 1.853,0 3.311,1.59 3.311,3.309 0,1.324 -0.399,1.985 -0.796,2.647 m 14.691,69.62 c -0.53,-0.662 -0.792,-1.323 -0.792,-2.118 0,-1.588 1.321,-2.779 3.175,-2.779 2.911,0 4.5,3.178 8.341,3.178 4.367,0 6.482,-3.178 10.454,-3.178 1.987,0 4.767,1.191 4.767,3.707 0,0.398 -0.136,0.795 -0.398,1.06 4.501,0 7.675,-3.839 7.675,-10.193 0,-8.866 -0.262,-12.44 -0.396,-17.338 3.444,-0.132 6.749,-1.854 6.218,-7.277 -0.925,0.791 -1.982,1.188 -3.173,1.188 -1.588,0 -2.781,-1.188 -2.781,-2.911 0,-0.795 0,-1.72 0.132,-2.648 l 15.487,-0.397 c -1.457,-0.794 -2.513,-2.381 -2.513,-4.234 0,-1.322 0.528,-2.25 1.588,-2.78 -1.458,-3.042 -2.647,-5.425 -4.103,-7.676 -0.796,-1.19 -1.721,-2.383 -3.575,-2.383 -4.104,-0.132 -12.441,1.059 -16.679,2.516 -3.175,1.06 -6.221,3.439 -6.221,8.867 0,5.03 1.722,13.897 1.589,27.794 0,1.987 -0.529,2.65 -1.719,2.912 -1.06,0.267 -3.838,0.53 -5.561,0.267 -0.924,-0.137 -1.721,-0.794 -2.25,-2.778 -0.662,-2.781 -2.646,-5.561 -6.618,-5.561 -3.575,0 -6.749,2.648 -6.22,6.618 -1.722,1.059 -2.516,2.779 -2.516,4.366 0,1.59 0.529,2.911 1.191,3.707 -0.397,0.926 -0.527,1.456 -0.527,2.382 0,3.309 2.912,5.689 5.425,5.689 M 71.577,131.132 c -0.792,-1.589 -2.513,-2.514 -4.5,-2.514 -0.793,0 -1.455,0.133 -1.983,0.265 0.264,-1.061 1.456,-1.985 3.177,-1.985 2.25,-10e-4 3.704,1.72 3.306,4.234 m 23.166,51.222 c -0.531,-1.19 -2.251,-2.38 -4.368,-2.38 -1.193,0 -1.987,0.263 -2.515,0.527 0.13,-1.058 1.192,-2.25 3.309,-2.25 2.514,0.001 3.837,1.986 3.574,4.103 m -11.254,11.517 c -0.394,-0.795 -0.527,-1.59 -0.527,-2.384 0,-0.794 0.133,-1.456 0.397,-2.116 -0.663,-1.193 -1.06,-2.517 -1.06,-3.973 0,-1.985 0.928,-3.837 2.252,-5.03 l -8.206,-35.602 c -1.327,-0.662 -2.649,-1.458 -3.707,-2.385 -1.854,-1.588 -2.913,-2.779 -4.633,-4.765 -0.531,-0.526 -0.929,-0.793 -1.456,-0.793 -0.797,0 -1.324,0.53 -1.058,1.589 l 1.718,8.204 3.575,2.517 9.925,42.617 z m 10.461,-5.823 c -0.796,-0.926 -2.119,-1.724 -3.842,-1.724 -2.119,0 -3.176,0.928 -3.707,1.591 -0.262,-1.591 1.062,-3.574 3.575,-3.574 2.647,0 3.974,1.853 3.974,3.707 m -65.388,9.925 8.074,-6.222 9.927,-42.617 3.574,-2.517 7.943,-34.145 -1.72,-7.942 c -1.987,-0.398 -3.709,-0.927 -5.162,-1.722 z m 124.417,-0.794 c -0.529,-0.662 -0.794,-1.323 -0.794,-2.118 0,-1.588 1.323,-2.779 3.178,-2.779 2.911,0 4.5,3.178 8.338,3.178 4.365,0 6.485,-3.178 10.455,-3.178 1.987,0 4.766,1.191 4.766,3.707 0,0.398 -0.133,0.795 -0.396,1.06 4.5,0 7.675,-3.839 7.675,-10.193 0,-8.468 -0.792,-17.867 -1.721,-27.266 2.382,-0.528 4.633,-2.912 4.633,-5.955 0,-1.058 -0.395,-2.25 -1.058,-3.31 -0.664,0.927 -1.855,1.72 -3.837,2.252 -2.781,0.791 -6.222,1.189 -8.74,1.189 -5.69,0 -7.542,-0.398 -10.189,-1.189 -0.134,-3.574 -2.382,-6.487 -4.5,-8.472 3.308,1.321 4.765,1.984 10.059,1.984 16.94,0 27.397,-11.382 27.397,-24.353 0,-9.4 -5.956,-13.765 -11.383,-16.942 l -5.028,3.574 c 6.089,2.779 10.058,6.88 10.058,12.442 0,6.088 -4.895,10.458 -10.585,10.458 -6.091,0 -10.855,-4.37 -10.855,-10.328 0,-4.497 2.116,-7.808 6.088,-10.984 3.97,-3.175 10.06,-7.013 13.37,-10.587 1.721,-1.856 3.174,-4.767 3.043,-7.018 2.25,-1.057 3.971,-3.306 3.971,-6.219 0,-3.836 -3.704,-6.748 -7.677,-6.748 -2.384,0 -5.028,1.453 -6.355,3.042 2.385,0.926 4.635,4.102 4.635,7.411 0,2.781 -1.72,5.163 -3.706,7.147 -3.044,3.046 -7.015,5.296 -11.384,8.869 -5.295,4.367 -8.471,9.53 -8.471,15.354 0,8.072 6.221,15.617 16.013,15.617 3.177,0 5.693,-0.661 7.547,-1.854 -3.178,3.706 -9.132,5.561 -15.353,5.561 -5.43,0 -9.133,-0.796 -13.104,-3.706 -3.574,-2.646 -6.353,-8.867 -6.221,-13.5 -2.911,1.721 -6.354,3.308 -9.266,4.633 -4.104,1.985 -5.427,4.103 -5.427,7.674 0,4.767 3.31,8.474 4.763,11.253 1.987,3.572 2.648,6.75 2.913,10.057 0.796,8.077 5.428,11.782 13.633,11.782 3.707,0 8.602,-0.266 10.588,-0.532 0.795,3.712 1.722,8.076 1.722,11.384 0,1.987 -0.531,2.65 -1.722,2.912 -1.058,0.267 -3.838,0.53 -5.557,0.267 -0.925,-0.137 -1.723,-0.794 -2.253,-2.778 -0.66,-2.781 -2.647,-5.561 -6.616,-5.561 -3.576,0 -6.75,2.648 -6.222,6.618 -1.722,1.059 -2.516,2.779 -2.516,4.366 0,1.59 0.53,2.911 1.192,3.707 -0.398,0.926 -0.53,1.456 -0.53,2.382 10e-4,3.31 2.915,5.69 5.429,5.69"
   id="path1" />
		<path
   fill="#0065bd"
   d="m 539.089,209.898 h 18.863 v -6.237 h -10.98 v -4.424 h 10.62 v -6.073 h -10.62 v -4.386 h 10.98 v -6.234 h -18.863 z m -19.63,0.64 c 6.437,0 11.787,-3.096 11.787,-10.737 v -17.257 h -7.884 v 16.531 c 0,3.097 -1.69,4.463 -3.903,4.463 -2.211,0 -3.899,-1.366 -3.899,-4.463 v -16.531 h -7.885 v 17.257 c 0,7.641 5.351,10.737 11.784,10.737 m -28.313,0 c 4.868,0 8.244,-1.486 9.896,-2.334 v -12.105 h -7.681 v 7.4 c -0.568,0.12 -1.169,0.201 -1.773,0.201 -3.057,0 -6.437,-2.332 -6.437,-7.482 0,-5.548 2.979,-8.283 8.084,-8.283 2.818,0 5.23,0.966 6.722,1.769 v -6.436 c -1.611,-0.724 -4.268,-1.729 -7.885,-1.729 -9.295,0 -15.527,5.75 -15.527,14.679 -0.001,8.931 6.954,14.32 14.601,14.32 m -34.473,-11.905 2.694,-10.095 h 0.363 l 2.697,10.095 z m 8.766,11.265 h 8.089 l -8.205,-27.354 h -11.547 l -8.163,27.354 h 8.083 l 1.491,-5.672 h 8.728 z m -37.082,-14.722 v -6.799 h 3.178 c 2.132,0 3.378,1.649 3.378,3.378 0,1.73 -1.246,3.421 -3.378,3.421 z m -7.883,14.722 h 7.884 v -9.617 h 2.01 l 4.747,9.617 h 8.89 l -5.026,-8.449 c -0.521,-0.886 -1.168,-1.689 -1.529,-1.932 l 0.039,-0.16 c 2.413,-1.086 5.833,-3.14 5.833,-7.803 0,-4.909 -3.901,-9.011 -10.295,-9.011 h -12.552 v 27.355 z m -20.231,-14.722 v -6.759 h 3.097 c 1.729,0 3.296,1.447 3.296,3.378 0,1.973 -1.567,3.381 -3.296,3.381 z m -7.886,14.722 h 7.886 v -8.853 h 4.023 c 6.394,0 10.375,-4.061 10.375,-9.09 0,-5.027 -3.981,-9.412 -10.375,-9.412 h -11.909 z m -44.041,0 h 7.885 v -16.413 h 0.119 l 8.286,16.413 h 9.612 v -27.354 h -7.882 v 16.331 h -0.12 l -8.205,-16.331 h -9.695 z m -15.926,0 h 7.881 v -27.354 h -7.881 z m -29.726,0.64 c 6.435,0 11.785,-3.096 11.785,-10.737 v -17.257 h -7.884 v 16.531 c 0,3.097 -1.688,4.463 -3.901,4.463 -2.211,0 -3.9,-1.366 -3.9,-4.463 v -16.531 h -7.884 v 17.257 c 0,7.641 5.348,10.737 11.784,10.737 m -31.41,-0.64 h 7.882 v -20.96 h 6.798 v -6.395 h -21.519 v 6.395 h 6.839 z m -17.942,0.439 c 3.256,0 5.992,-0.845 7.642,-1.688 v -6.878 c -1.569,0.844 -3.378,1.568 -6.234,1.568 -2.857,0 -6.998,-2.173 -6.998,-7.122 0,-4.945 3.781,-7.279 7.443,-7.279 2.492,0 4.221,0.562 5.748,1.328 v -6.798 c -1.608,-0.722 -3.617,-1.286 -6.837,-1.286 -8.083,0 -14.961,5.311 -14.961,14.035 -0.001,8.729 6.156,14.12 14.197,14.12"
   id="path2" />
		<path
   fill="#0065bd"
   d="m 514.352,169.581 c 7.481,0 11.622,-4.706 11.622,-9.252 0,-4.465 -2.29,-7.078 -6.756,-8.163 -1.808,-0.442 -2.814,-0.604 -4.185,-0.886 -1.849,-0.404 -2.654,-0.925 -2.654,-1.972 0,-1.205 1.371,-1.972 4.426,-1.972 3.339,0 6.114,1.046 7.482,1.813 v -6.801 c -1.772,-0.765 -4.668,-1.407 -7.884,-1.407 -6.799,0 -11.827,3.578 -11.827,9.133 0,4.22 2.373,6.876 6.074,7.802 2.053,0.522 3.138,0.764 4.905,1.205 1.491,0.361 2.494,0.845 2.494,1.933 0,1.367 -1.448,2.131 -4.102,2.131 -3.622,0 -7.28,-1.57 -9.052,-2.816 v 7.16 c 2.215,1.247 5.353,2.092 9.457,2.092 m -22.081,-0.2 c 3.26,0 5.99,-0.848 7.643,-1.692 v -6.874 c -1.568,0.843 -3.38,1.567 -6.233,1.567 -2.856,0 -7.003,-2.173 -7.003,-7.121 0,-4.945 3.782,-7.28 7.445,-7.28 2.491,0 4.223,0.563 5.746,1.328 v -6.798 c -1.607,-0.724 -3.616,-1.288 -6.831,-1.288 -8.089,0 -14.968,5.312 -14.968,14.038 -10e-4,8.729 6.159,14.12 14.201,14.12 m -28.521,-0.443 h 7.885 v -27.354 h -7.885 z m -19.827,0 h 7.885 V 147.98 h 6.796 v -6.396 h -21.518 v 6.396 h 6.837 z m -30.406,0 h 18.859 v -6.235 h -10.977 v -4.425 h 10.618 v -6.073 h -10.618 v -4.382 h 10.977 v -6.238 h -18.859 z m -33.95,0 h 7.882 v -16.413 h 0.125 l 8.286,16.413 h 9.608 v -27.354 h -7.881 v 16.331 h -0.12 l -8.205,-16.331 h -9.695 z m -21.356,-14.722 v -6.797 h 3.179 c 2.13,0 3.38,1.649 3.38,3.378 0,1.729 -1.25,3.419 -3.38,3.419 z m -7.886,14.722 h 7.886 v -9.614 h 2.008 l 4.747,9.614 h 8.893 l -5.025,-8.448 c -0.527,-0.885 -1.169,-1.688 -1.531,-1.93 l 0.038,-0.161 c 2.417,-1.087 5.833,-3.139 5.833,-7.804 0,-4.906 -3.898,-9.011 -10.296,-9.011 h -12.552 v 27.354 z m -26.061,0 h 18.866 v -6.235 h -10.982 v -4.425 h 10.62 v -6.073 h -10.62 v -4.382 h 10.982 v -6.238 h -18.866 z m -21.802,-5.873 v -5.713 h 4.467 c 1.686,0 2.773,1.408 2.773,2.816 0,1.572 -1.088,2.896 -2.773,2.896 h -4.467 z m 0,-10.298 v -5.309 h 3.62 c 1.607,0 2.655,1.248 2.655,2.654 0,1.407 -1.048,2.654 -2.655,2.654 h -3.62 z m -7.885,16.171 h 13.397 c 7.039,0 9.855,-3.944 9.855,-7.403 0,-4.623 -3.139,-6.154 -5.191,-6.676 V 154.7 c 1.85,-0.726 3.944,-2.455 3.944,-5.794 0,-3.78 -3.021,-7.321 -9.292,-7.321 h -12.714 v 27.353 z m -21.075,0 h 7.884 v -10.016 l 9.454,-17.338 h -8.729 l -4.464,9.775 h -0.159 l -4.307,-9.775 h -8.93 l 9.251,17.338 z m -20.19,0.443 c 3.256,0 5.992,-0.848 7.642,-1.692 v -6.874 c -1.569,0.843 -3.378,1.567 -6.234,1.567 -2.857,0 -6.998,-2.173 -6.998,-7.121 0,-4.945 3.781,-7.28 7.443,-7.28 2.492,0 4.221,0.563 5.748,1.328 v -6.798 c -1.608,-0.724 -3.617,-1.288 -6.837,-1.288 -8.083,0 -14.961,5.312 -14.961,14.038 -0.001,8.729 6.156,14.12 14.197,14.12"
   id="path3" />
		<path
   fill="#0065bd"
   d="m 536.594,121.183 v -13.757 h 1.65 c 3.78,0 6.677,2.453 6.677,6.879 0,4.423 -2.896,6.878 -6.677,6.878 z m -7.886,6.796 h 10.826 c 7.841,0 14.033,-5.431 14.033,-13.675 0,-8.247 -6.192,-13.677 -14.033,-13.677 h -10.826 z m -33.944,0 h 7.886 v -16.411 h 0.119 l 8.289,16.411 h 9.611 v -27.352 h -7.885 v 16.331 h -0.119 l -8.206,-16.331 h -9.695 z m -21.076,-11.262 2.696,-10.097 h 0.359 l 2.697,10.097 z m 8.769,11.262 h 8.084 l -8.203,-27.352 H 470.79 l -8.162,27.352 h 8.084 l 1.488,-5.673 h 8.727 z m -44.889,0.643 c 7.485,0 11.625,-4.704 11.625,-9.252 0,-4.462 -2.292,-7.078 -6.756,-8.164 -1.812,-0.441 -2.816,-0.604 -4.186,-0.887 -1.848,-0.398 -2.653,-0.923 -2.653,-1.968 0,-1.208 1.368,-1.972 4.425,-1.972 3.338,0 6.113,1.046 7.482,1.81 v -6.797 c -1.772,-0.765 -4.667,-1.41 -7.885,-1.41 -6.797,0 -11.825,3.582 -11.825,9.132 0,4.227 2.373,6.878 6.072,7.804 2.053,0.523 3.137,0.765 4.907,1.207 1.491,0.359 2.492,0.846 2.492,1.93 0,1.367 -1.446,2.134 -4.101,2.134 -3.62,0 -7.278,-1.569 -9.05,-2.818 v 7.16 c 2.215,1.247 5.352,2.091 9.453,2.091 m -22.082,-0.201 c 3.259,0 5.992,-0.844 7.644,-1.687 v -6.88 c -1.568,0.845 -3.38,1.567 -6.234,1.567 -2.855,0 -6.997,-2.171 -6.997,-7.117 0,-4.949 3.778,-7.281 7.438,-7.281 2.493,0 4.225,0.562 5.754,1.327 v -6.798 c -1.612,-0.725 -3.621,-1.286 -6.84,-1.286 -8.084,0 -14.962,5.308 -14.962,14.038 0,8.726 6.155,14.117 14.197,14.117 m -28.511,-0.442 h 7.882 v -27.352 h -7.882 z m -19.832,0 h 7.884 v -20.956 h 6.794 v -6.396 h -21.516 v 6.396 h 6.838 z m -23.207,-6.356 c -3.506,0 -5.272,-2.814 -5.272,-7.318 0,-4.507 1.767,-7.322 5.272,-7.322 3.539,0 5.186,2.814 5.186,7.322 -0.001,4.504 -1.647,7.318 -5.186,7.318 m 0,6.999 c 8.162,0 13.63,-5.188 13.63,-14.317 0,-9.129 -5.468,-14.322 -13.63,-14.322 -8.124,0 -13.719,5.192 -13.719,14.322 0,9.13 5.595,14.317 13.719,14.317 m -33.91,-6.517 v -5.712 h 4.462 c 1.695,0 2.779,1.409 2.779,2.816 0,1.57 -1.084,2.896 -2.779,2.896 z m 0,-10.296 v -5.307 h 3.619 c 1.608,0 2.652,1.246 2.652,2.652 0,1.409 -1.044,2.655 -2.652,2.655 z m -7.884,16.17 h 13.396 c 7.036,0 9.854,-3.94 9.854,-7.401 0,-4.625 -3.138,-6.154 -5.189,-6.678 v -0.16 c 1.85,-0.722 3.941,-2.455 3.941,-5.791 0,-3.78 -3.015,-7.322 -9.293,-7.322 h -12.709 z m -20.07,-6.356 c -3.5,0 -5.269,-2.814 -5.269,-7.318 0,-4.507 1.769,-7.322 5.269,-7.322 3.538,0 5.188,2.814 5.188,7.322 0,4.504 -1.65,7.318 -5.188,7.318 m 0,6.999 c 8.166,0 13.634,-5.188 13.634,-14.317 0,-9.129 -5.468,-14.322 -13.634,-14.322 -8.126,0 -13.718,5.192 -13.718,14.322 0,9.13 5.592,14.317 13.718,14.317 m -33.463,-15.364 v -6.797 h 3.174 c 2.132,0 3.382,1.649 3.382,3.379 0,1.729 -1.25,3.418 -3.382,3.418 z m -7.886,14.721 h 7.886 v -9.612 h 2.009 l 4.746,9.612 h 8.888 l -5.023,-8.449 c -0.526,-0.884 -1.168,-1.687 -1.531,-1.928 l 0.041,-0.161 c 2.412,-1.088 5.83,-3.137 5.83,-7.804 0,-4.908 -3.898,-9.01 -10.294,-9.01 h -12.551 v 27.352 z"
   id="path4" />
		<path
   fill="#0065bd"
   d="m 583.935,87.665 c 7.482,0 11.629,-4.707 11.629,-9.25 0,-4.464 -2.295,-7.081 -6.761,-8.165 -1.809,-0.445 -2.816,-0.603 -4.184,-0.885 -1.852,-0.403 -2.655,-0.926 -2.655,-1.972 0,-1.206 1.371,-1.969 4.427,-1.969 3.337,0 6.112,1.044 7.482,1.809 v -6.798 c -1.772,-0.765 -4.668,-1.408 -7.887,-1.408 -6.797,0 -11.823,3.581 -11.823,9.131 0,4.223 2.372,6.877 6.073,7.803 2.053,0.524 3.136,0.765 4.906,1.207 1.489,0.361 2.491,0.844 2.491,1.93 0,1.367 -1.445,2.134 -4.101,2.134 -3.617,0 -7.278,-1.569 -9.051,-2.816 v 7.16 c 2.212,1.243 5.35,2.089 9.454,2.089 m -22.081,-0.201 c 3.26,0 5.991,-0.845 7.644,-1.691 v -6.876 c -1.569,0.845 -3.381,1.567 -6.233,1.567 -2.857,0 -6.998,-2.172 -6.998,-7.118 0,-4.947 3.777,-7.279 7.438,-7.279 2.494,0 4.224,0.56 5.751,1.324 v -6.797 c -1.61,-0.724 -3.619,-1.289 -6.836,-1.289 -8.087,0 -14.964,5.31 -14.964,14.04 0,8.729 6.155,14.119 14.198,14.119 m -28.519,-0.443 h 7.885 V 59.669 h -7.885 z m -19.829,0 h 7.886 V 66.067 h 6.796 v -6.398 h -21.52 v 6.398 h 6.838 z M 489.693,75.759 492.39,65.663 h 0.364 l 2.693,10.096 z m 8.772,11.262 h 8.088 l -8.208,-27.352 h -11.547 l -8.165,27.352 h 8.086 l 1.489,-5.671 h 8.726 z m -53.897,0 h 7.522 V 70.328 h 0.118 l 7.079,11.625 h 0.565 l 6.754,-11.664 h 0.121 v 16.732 h 7.685 V 59.669 h -9.135 l -5.629,9.695 h -0.12 l -5.629,-9.695 h -9.332 v 27.352 z m -21.36,-14.723 v -6.795 h 3.177 c 2.134,0 3.382,1.648 3.382,3.378 0,1.729 -1.248,3.417 -3.382,3.417 z m -7.882,14.723 h 7.882 V 77.41 h 2.012 l 4.746,9.611 h 8.889 l -5.024,-8.446 c -0.525,-0.887 -1.168,-1.69 -1.53,-1.931 l 0.04,-0.16 c 2.414,-1.087 5.83,-3.138 5.83,-7.805 0,-4.908 -3.899,-9.011 -10.295,-9.011 h -12.549 v 27.353 z m -20.07,-6.355 c -3.5,0 -5.27,-2.816 -5.27,-7.32 0,-4.507 1.77,-7.321 5.27,-7.321 3.539,0 5.185,2.814 5.185,7.321 -10e-4,4.504 -1.646,7.32 -5.185,7.32 m 0,6.999 c 8.164,0 13.636,-5.187 13.636,-14.318 0,-9.132 -5.472,-14.32 -13.636,-14.32 -8.127,0 -13.716,5.188 -13.716,14.32 0,9.131 5.589,14.318 13.716,14.318 M 358.01,59.669 v 27.352 h 7.884 v -10.58 h 10.699 v -6.073 h -10.699 v -4.464 h 10.816 v -6.236 h -18.7 z m -33.947,27.352 h 7.884 V 70.609 h 0.121 l 8.282,16.411 h 9.616 V 59.669 h -7.883 V 76 h -0.123 l -8.208,-16.331 h -9.689 z m -15.926,0 h 7.881 V 59.669 h -7.881 z M 272.899,59.669 v 27.352 h 7.885 v -10.58 h 10.699 v -6.073 h -10.699 v -4.464 h 10.82 V 59.668 H 272.899 Z M 252.83,80.666 c -3.5,0 -5.268,-2.816 -5.268,-7.32 0,-4.507 1.768,-7.321 5.268,-7.321 3.541,0 5.188,2.814 5.188,7.321 0,4.504 -1.648,7.32 -5.188,7.32 m 0,6.999 c 8.167,0 13.635,-5.187 13.635,-14.318 0,-9.132 -5.468,-14.32 -13.635,-14.32 -8.126,0 -13.715,5.188 -13.715,14.32 -0.001,9.131 5.589,14.318 13.715,14.318"
   id="path5" />
		<path
   fill="#0065bd"
   d="M 580.637,46.064 H 599.5 v -6.236 h -10.979 v -4.424 h 10.621 V 29.33 H 588.521 V 24.947 H 599.5 v -6.235 h -18.863 z m -19.828,0 h 7.881 V 25.107 h 6.8 v -6.396 h -21.519 v 6.396 h 6.838 z m -23.572,0.643 c 6.437,0 11.784,-3.097 11.784,-10.739 V 18.712 h -7.881 v 16.53 c 0,3.097 -1.689,4.465 -3.903,4.465 -2.211,0 -3.902,-1.368 -3.902,-4.465 v -16.53 h -7.879 v 17.256 c 0,7.642 5.346,10.739 11.781,10.739 M 505.82,46.064 h 7.885 V 25.107 h 6.8 v -6.396 h -21.517 v 6.396 h 6.832 z m -19.866,0 h 7.885 V 18.712 h -7.885 z m -19.827,0 h 7.881 V 25.107 h 6.798 v -6.396 h -21.518 v 6.396 h 6.839 z m -21.119,0.643 c 7.482,0 11.627,-4.707 11.627,-9.251 0,-4.466 -2.293,-7.079 -6.759,-8.165 -1.809,-0.444 -2.813,-0.603 -4.186,-0.886 -1.849,-0.404 -2.653,-0.925 -2.653,-1.973 0,-1.204 1.368,-1.968 4.426,-1.968 3.338,0 6.112,1.046 7.483,1.81 v -6.798 c -1.772,-0.764 -4.669,-1.407 -7.884,-1.407 -6.801,0 -11.827,3.579 -11.827,9.131 0,4.222 2.372,6.878 6.074,7.803 2.052,0.523 3.138,0.765 4.908,1.206 1.485,0.363 2.49,0.845 2.49,1.931 0,1.367 -1.447,2.131 -4.103,2.131 -3.62,0 -7.278,-1.569 -9.049,-2.815 v 7.159 c 2.214,1.248 5.351,2.092 9.453,2.092 m -42.437,-0.643 h 7.886 V 29.653 h 0.122 l 8.287,16.411 h 9.612 V 18.712 h -7.884 v 16.331 h -0.121 l -8.206,-16.331 h -9.696 z m -15.925,0 h 7.884 V 18.712 h -7.884 z M 344.653,18.712 v 27.352 h 7.886 v -10.7 h 8.087 v 10.7 h 7.882 V 18.712 h -7.882 v 10.457 h -8.087 V 18.712 Z m -13.591,27.795 c 3.258,0 5.993,-0.848 7.643,-1.69 V 37.94 c -1.567,0.845 -3.379,1.567 -6.234,1.567 -2.857,0 -6.997,-2.172 -6.997,-7.119 0,-4.946 3.78,-7.279 7.438,-7.279 2.494,0 4.227,0.562 5.753,1.325 v -6.795 c -1.608,-0.724 -3.62,-1.288 -6.835,-1.288 -8.087,0 -14.963,5.31 -14.963,14.038 -0.002,8.727 6.147,14.118 14.195,14.118 m -38.653,-0.443 h 18.864 v -6.236 h -10.984 v -4.424 h 10.623 V 29.33 h -10.623 v -4.383 h 10.984 v -6.235 h -18.864 z m -27.514,0 h 21.48 v -6.398 h -11.827 l 11.628,-15.202 v -5.752 h -21.039 v 6.396 H 276.32 L 264.895,40.03 Z m -11.583,0.443 c 3.256,0 5.992,-0.848 7.642,-1.69 V 37.94 c -1.569,0.845 -3.378,1.567 -6.234,1.567 -2.857,0 -6.998,-2.172 -6.998,-7.119 0,-4.946 3.781,-7.279 7.443,-7.279 2.492,0 4.221,0.562 5.748,1.325 v -6.795 c -1.608,-0.724 -3.617,-1.288 -6.837,-1.288 -8.083,0 -14.961,5.31 -14.961,14.038 -0.001,8.727 6.156,14.118 14.197,14.118"
   id="path6" />
	</g>
</g>
</svg>
