<?xml version="1.0" encoding="utf-8"?>
<!-- Generator: Adobe Illustrator 15.0.0, SVG Export Plug-In . SVG Version: 6.00 Build 0)  -->
<!DOCTYPE svg PUBLIC "-//W3C//DTD SVG 1.1//EN" "http://www.w3.org/Graphics/SVG/1.1/DTD/svg11.dtd">
<svg version="1.1" id="Layer_1" xmlns="http://www.w3.org/2000/svg" xmlns:xlink="http://www.w3.org/1999/xlink" x="0px" y="0px"
	 width="290.547px" height="141.73px" viewBox="0 0 290.547 141.73" enable-background="new 0 0 290.547 141.73"
	 xml:space="preserve">
<g>
	<rect x="148.816" y="0.001" fill="#0065BD" width="141.73" height="141.729"/>
	<g>
		<path fill="#FFFFFF" d="M262.018,20.477v22.36h9.254v-22.36h7.978v-6.824h-25.257v6.824H262.018z M231.613,13.652h-9.252v18.412
			c0,8.154,6.28,11.458,13.833,11.458s13.831-3.304,13.831-11.458V13.652h-9.252v17.639c0,3.305-1.983,4.765-4.579,4.765
			c-2.598,0-4.581-1.459-4.581-4.765V13.652z M196.584,42.836h11.426l10.244-29.184h-10.387l-5.476,20.558h-0.188l-5.478-20.558
			h-10.387L196.584,42.836z M158.438,28.244c0,9.314,7.223,15.065,16.665,15.065c3.824,0,7.034-0.901,8.97-1.802v-7.34
			c-1.841,0.902-3.967,1.675-7.316,1.675c-3.353,0-8.216-2.319-8.216-7.598c0-5.278,4.438-7.768,8.734-7.768
			c2.928,0,4.957,0.601,6.752,1.416v-7.253c-1.89-0.773-4.249-1.373-8.027-1.373C166.512,13.266,158.438,18.931,158.438,28.244"/>
	</g>
	<polygon fill="#FFFFFF" points="164.424,6.192 170.468,12.367 179.551,12.367 185.595,6.192 178.097,6.192 175.098,9.159 
		174.921,9.159 171.922,6.192 	"/>
	<rect fill="#0065BD" width="141.73" height="141.73"/>
	<g>
		<path fill="#FFFFFF" d="M23.126,62.355c1.079,0.589,2.354,0.982,3.826,1.276l1.275,5.886l-5.886,25.31l-2.649,1.864l-7.357,31.587
			l-5.984,4.611L23.126,62.355z M28.031,62.454c-5.494-0.099-9.908-4.415-9.908-9.81c0-5.787,4.512-9.908,10.202-9.908
			c2.648,0,5.003,1.177,6.572,3.139c-2.256-0.294-4.414,1.276-5.101,3.042c-0.588-0.196-1.079-0.196-1.471-0.196
			c-2.256,0-4.022,1.766-4.022,3.924c0,2.158,1.766,4.023,4.022,4.023s3.629-1.767,3.629-4.023c0-0.098,0-0.293,0-0.392
			c0.098-0.099,0.294-0.099,0.589-0.099c0.392,0,0.785,0.197,0.785,0.883c0,0.785-0.294,2.256-0.294,3.728
			c0,1.373,0.294,2.354,0.687,3.335l3.335,13.93c-0.49,0.393-0.981,0.883-1.373,1.472c-1.864,0.393-3.434,1.569-4.12,3.237
			L28.031,62.454z M48.534,71.675c-2.844,0-4.611,0.196-6.573,0.196c-3.041,0-5.297-1.276-5.984-3.728
			c1.177,0,2.06-0.981,2.06-2.158c0-2.354-3.629-4.709-3.629-9.221c0-1.472,0.196-2.845,0.196-3.924c0-1.177-0.981-1.962-2.06-1.962
			c-0.883,0-1.668,0.393-2.06,0.785c-0.196-2.747,2.06-4.806,4.905-4.611c0.393-0.882,1.864-1.962,3.532-1.962
			c1.177,0,1.766,0.294,2.354,0.687c0.491-0.196,1.079-0.295,1.864-0.295c2.256,0,4.708,1.865,4.708,4.709
			c0,2.649-1.569,3.924-3.139,5.003c-0.785,0.588-0.98,1.177-0.882,2.06c0.098,1.08,0.687,2.944,0.981,3.924
			c0.294,0.883,0.981,1.276,2.061,1.177c5.394-0.392,13.144-0.98,17.853-1.177c4.415-0.195,7.554-0.293,11.185-0.49
			c-6.868,1.667-10.792,6.278-11.872,12.851l-3.139,1.667C60.208,72.558,56.676,71.675,48.534,71.675z M44.12,98.26
			c1.177-0.295,1.765-1.177,1.765-1.962c0-1.177-0.686-1.962-1.569-2.552c-1.471-0.882-3.041-1.667-4.414-2.844
			c-1.472-1.275-2.354-2.354-3.237-3.531c-0.687-0.785-1.275-1.08-2.158-1.08c-1.079,0-1.864,0.785-1.864,1.668
			c0,0.491,0.098,0.884,0.294,1.178c-1.471-0.491-2.354-2.061-2.354-3.729c0-1.569,0.981-2.746,1.962-3.335
			c-0.098-0.294-0.196-0.687-0.196-1.177c0-2.061,1.667-4.022,4.316-4.218c0.49-1.375,1.962-2.453,3.924-2.453
			c2.355,0,4.807,1.766,4.807,4.904c0,1.57-0.392,1.963-0.392,3.14c0,0.688,0.196,1.274,1.177,2.257
			c1.177,1.177,1.765,1.863,2.452,1.863c0.688,0,1.08-0.294,1.864-0.884c4.414-3.727,8.241-7.65,13.537-10.496
			c0.099,4.61,1.865,8.339,5.691,11.184l-3.336,2.551c-0.587-0.589-1.178-0.785-1.962-0.785c-1.275,0-2.549,0.491-4.512,1.766
			c-2.256,1.473-5.983,5.298-8.632,7.849c-1.472,1.472-3.042,2.256-4.513,2.256C45.591,99.829,44.61,99.339,44.12,98.26z
			 M35.781,80.21c-1.275,0-2.158,0.687-2.354,1.471c0.393-0.099,0.883-0.196,1.471-0.196c1.472,0,2.747,0.688,3.335,1.864
			C38.528,81.484,37.449,80.21,35.781,80.21z M45.002,128.277L37.645,96.69l-2.649-1.864l-1.275-6.082
			c-0.196-0.785,0.196-1.178,0.785-1.178c0.392,0,0.687,0.196,1.079,0.589c1.275,1.472,2.06,2.354,3.434,3.531
			c0.785,0.688,1.766,1.275,2.747,1.767l6.081,26.389c-0.98,0.882-1.667,2.256-1.667,3.727c0,1.08,0.294,2.061,0.785,2.944
			c-0.196,0.489-0.295,0.979-0.295,1.569c0,0.588,0.099,1.177,0.393,1.765L45.002,128.277z M40.195,49.798
			c0-1.667-1.373-2.747-2.648-2.747c-0.589,0-0.981,0.197-1.275,0.295c1.668,0.687,2.845,2.158,2.747,4.905
			C39.901,51.663,40.195,50.682,40.195,49.798z M41.766,78.738c0-1.275-1.08-2.452-2.453-2.452c-0.785,0-1.275,0.294-1.569,0.49
			c1.864,0.392,3.335,1.962,3.433,3.924C41.471,80.21,41.766,79.719,41.766,78.738z M44.905,49.211c0-1.472-1.276-2.552-2.747-2.552
			c0.588,0.491,1.177,1.668,1.177,2.944c0,0.588-0.099,1.373-0.491,2.256C44.021,51.467,44.905,50.583,44.905,49.211z
			 M48.044,128.082c0-0.688,0.098-1.08,0.392-1.767c-0.492-0.588-0.883-1.569-0.883-2.747c0-1.177,0.589-2.452,1.864-3.236
			c-0.393-2.943,1.962-4.905,4.611-4.905c2.942,0,4.414,2.061,4.904,4.12c0.392,1.472,0.981,1.962,1.669,2.06
			c1.275,0.197,3.334,0,4.119-0.195c0.883-0.197,1.275-0.688,1.275-2.159c0.099-10.3-1.178-16.873-1.178-20.6
			c0-4.022,2.257-5.788,4.611-6.573c3.14-1.079,9.32-1.962,12.361-1.864c1.373,0,2.06,0.884,2.647,1.767
			c1.079,1.667,1.962,3.434,3.041,5.689c-0.784,0.392-1.177,1.079-1.177,2.061c0,1.373,0.785,2.55,1.864,3.139l-11.477,0.294
			c-0.1,0.688-0.1,1.374-0.1,1.962c0,1.275,0.884,2.159,2.062,2.159c0.882,0,1.667-0.295,2.354-0.884
			c0.393,4.022-2.061,5.298-4.61,5.396c0.098,3.63,0.295,6.278,0.295,12.852c0,4.708-2.354,7.553-5.691,7.553
			c0.197-0.195,0.294-0.49,0.294-0.785c0-1.863-2.06-2.746-3.531-2.746c-2.944,0-4.514,2.354-7.751,2.354
			c-2.844,0-4.021-2.354-6.181-2.354c-1.372,0-2.354,0.883-2.354,2.061c0,0.588,0.197,1.078,0.589,1.569
			C50.201,132.3,48.044,130.534,48.044,128.082z M51.868,122.784c-1.862,0-2.844,1.472-2.647,2.648
			c0.392-0.49,1.177-1.177,2.747-1.177c1.275,0,2.255,0.588,2.844,1.274C54.812,124.158,53.83,122.784,51.868,122.784z
			 M52.752,118.272c-1.569,0-2.354,0.882-2.454,1.667c0.392-0.196,0.982-0.393,1.864-0.393c1.569,0,2.844,0.883,3.237,1.766
			C55.597,119.743,54.615,118.272,52.752,118.272z M65.505,75.108c0-6.475,4.906-12.262,12.459-14.028
			c2.845-0.687,5.297-1.08,8.633-1.962c6.278-1.667,8.24-4.414,8.24-8.044c0-0.981-0.197-1.766-0.688-2.551
			c0.098,0.589,0.098,1.08,0.098,1.667c0,3.924-3.629,7.456-8.926,7.946c-2.846,0.196-5.886,0.589-8.829,0.883
			c-0.688,0.098-0.98-0.197-0.98-0.785l-0.1-4.708c0-0.197,0.1-0.393,0.393-0.393c0.197,0,0.295,0.098,0.393,0.294
			c0.59,0.883,1.767,1.766,3.434,1.766c1.374,0,2.159-0.785,2.159-1.667c0-0.982-0.884-1.865-2.649-1.865
			c-3.826,0-5.788,2.649-10.006,2.649c-4.61,0-6.18-2.257-6.18-4.415c0-1.766,0.98-2.845,2.255-3.433
			c-0.392,0.49-0.49,0.883-0.49,1.57c0,1.471,1.767,2.648,4.906,2.648c2.942,0,4.807-0.686,7.063-0.686
			c2.941,0,4.708,0.98,5.493,2.06c-0.1-2.257-1.767-4.219-3.924-4.219c-1.472,0-2.062,0.883-2.257,1.276
			c-0.098,0.294-0.295,0.392-0.49,0.392c-0.197,0-0.393-0.098-0.393-0.293l-0.491-4.906c-0.098-0.588,0.196-0.883,0.981-0.98
			l5.004-0.392c0.882,2.452,1.47,3.825,2.746,3.825c0.686,0,0.98-0.785,0.98-1.471c1.079-0.294,2.159-0.294,3.236-0.197
			c-1.274-0.882-5.493-0.393-6.768-2.157c2.06-0.099,3.629-0.197,5.298-0.197c1.667,0,3.139,0,4.512,0.197
			c1.569,0.195,3.139,1.079,3.139,2.747c0,1.079-0.587,1.863-1.667,1.863c-0.393,0-0.687-0.098-1.079-0.392
			c0.098,0.785,0.882,1.275,1.667,1.275c1.276,0,2.159-0.785,2.159-2.453c0-0.883-0.197-1.863-0.883-2.648
			c2.06,1.667,3.335,4.61,3.335,8.043c0,5.984-2.157,9.124-8.828,11.478c-3.434,1.177-6.181,1.962-9.614,3.237
			c-5.592,2.06-8.928,5.886-8.928,11.281c0,3.729,1.864,7.946,5.788,9.909C69.724,86.488,65.505,81.093,65.505,75.108z
			 M71.391,77.658c0-5.296,2.944-8.436,8.633-10.594c3.14-1.177,6.181-2.06,9.025-2.942c6.965-2.453,9.417-6.083,9.417-12.557
			c0-2.747-0.784-5.396-2.06-6.965c2.157,1.864,3.924,4.709,3.924,9.614c0,5.101-1.472,10.301-8.535,12.949
			c-3.334,1.276-5.198,1.962-8.729,3.433c-5.494,2.355-7.261,5.494-7.261,9.712c0,4.021,2.159,6.278,3.826,7.651
			C75.609,87.273,71.391,83.152,71.391,77.658z M77.276,80.405c0-3.924,1.864-6.572,6.671-8.828c3.042-1.374,5.298-1.864,8.83-3.336
			c6.964-2.747,8.73-7.946,8.73-13.929c0-2.061-0.295-4.514-1.375-6.573c1.473,1.766,3.239,4.513,3.239,9.908
			c0,5.592-1.864,10.792-8.045,13.832c-2.942,1.374-4.904,2.158-8.24,3.728c-3.826,1.962-5.984,4.709-5.984,7.946
			c0,2.551,1.178,4.513,2.257,5.592C79.631,87.665,77.276,84.134,77.276,80.405z M86.204,41.657c-1.962,0-3.924,0.099-5.983,0.294
			l-2.649-5.199h4.512c0,1.177,0.885,2.06,1.962,2.06c1.08,0,1.962-0.882,1.962-2.06h4.023c0,1.275,0.785,2.06,1.962,2.06
			c1.078,0,1.962-1.079,1.962-2.06h4.512l-3.041,5.396C92.973,41.853,89.833,41.657,86.204,41.657z M82.575,83.251
			c0-2.747,1.862-5.003,5.198-6.77c2.354-1.178,4.316-1.962,8.24-3.924c6.181-3.041,8.535-8.043,8.535-14.812
			c0-1.766-0.295-3.238-0.59-5.003c1.08,2.157,1.963,4.709,1.963,7.946c0,6.474-2.257,12.752-8.73,16.088
			c-2.747,1.373-4.316,2.256-6.376,3.236c-3.14,1.374-4.611,3.531-4.611,6.083c0,1.962,0.49,3.041,0.98,3.924
			C84.34,89.235,82.575,86.684,82.575,83.251z M87.576,99.927c0-0.98,0.295-1.569,1.473-1.766c-1.373-3.04-2.452-5.002-3.237-6.278
			c-0.295-0.49,0-0.784,0.393-0.784c0.588,0,1.079,0.196,1.472,0.784c0.686,0.884,1.569,2.256,2.255,3.532
			c1.277,2.256,2.062,4.414,2.159,7.554h-0.981C89.049,102.969,87.576,101.497,87.576,99.927z M94.542,128.082
			c0-0.688,0.098-1.08,0.393-1.767c-0.49-0.588-0.883-1.569-0.883-2.747c0-1.177,0.588-2.452,1.864-3.236
			c-0.393-2.943,1.962-4.905,4.609-4.905c2.944,0,4.416,2.061,4.906,4.12c0.393,1.472,0.979,1.962,1.667,2.06
			c1.274,0.197,3.336,0,4.121-0.195c0.883-0.197,1.274-0.688,1.274-2.159c0-2.452-0.687-5.688-1.274-8.436
			c-1.472,0.195-5.102,0.393-7.848,0.393c-6.083,0-9.518-2.747-10.104-8.731c-0.197-2.453-0.688-4.807-2.159-7.455
			c-1.078-2.061-3.532-4.808-3.532-8.339c0-2.648,0.982-4.218,4.023-5.688c2.157-0.982,4.709-2.159,6.866-3.435
			c-0.098,3.435,1.962,8.044,4.611,10.006c2.942,2.158,5.688,2.747,9.712,2.747c4.609,0,9.025-1.373,11.38-4.12
			c-1.375,0.883-3.239,1.373-5.593,1.373c-7.259,0-11.87-5.592-11.87-11.575c0-4.316,2.354-8.143,6.278-11.379
			c3.237-2.649,6.181-4.316,8.438-6.573c1.47-1.471,2.747-3.237,2.747-5.296c0-2.453-1.669-4.807-3.435-5.493
			c0.98-1.177,2.942-2.257,4.709-2.257c2.942,0,5.688,2.158,5.688,5.003c0,2.157-1.274,3.825-2.941,4.61
			c0.098,1.668-0.982,3.825-2.257,5.199c-2.452,2.648-6.966,5.494-9.907,7.848c-2.944,2.354-4.514,4.807-4.514,8.142
			c0,4.415,3.531,7.651,8.045,7.651c4.219,0,7.848-3.236,7.848-7.75c0-4.119-2.943-7.161-7.455-9.22l3.727-2.649
			c4.023,2.354,8.438,5.591,8.438,12.557c0,9.613-7.75,18.05-20.307,18.05c-3.924,0-5.004-0.49-7.456-1.472
			c1.57,1.472,3.237,3.63,3.337,6.278c1.962,0.589,3.334,0.883,7.553,0.883c1.864,0,4.414-0.294,6.474-0.883
			c1.472-0.393,2.354-0.98,2.846-1.667c0.49,0.784,0.785,1.667,0.785,2.451c0,2.257-1.669,4.022-3.434,4.415
			c0.687,6.965,1.274,13.931,1.274,20.209c0,4.708-2.354,7.553-5.688,7.553c0.195-0.195,0.293-0.49,0.293-0.785
			c0-1.863-2.06-2.746-3.531-2.746c-2.942,0-4.512,2.354-7.749,2.354c-2.846,0-4.023-2.354-6.181-2.354
			c-1.374,0-2.354,0.883-2.354,2.061c0,0.588,0.195,1.078,0.588,1.569C96.701,132.3,94.542,130.534,94.542,128.082z M98.368,122.784
			c-1.864,0-2.845,1.472-2.649,2.648c0.393-0.49,1.178-1.177,2.747-1.177c1.275,0,2.257,0.588,2.845,1.274
			C101.311,124.158,100.33,122.784,98.368,122.784z M99.251,118.272c-1.569,0-2.354,0.882-2.452,1.667
			c0.393-0.196,0.98-0.393,1.864-0.393c1.569,0,2.845,0.883,3.236,1.766C102.095,119.743,101.115,118.272,99.251,118.272z
			 M111.513,54.41c-1.471-0.785-2.747-2.452-2.747-4.414c0-2.845,2.454-5.003,5.396-5.003c2.256,0,3.826,1.08,4.806,2.257
			c-1.862,0.98-3.334,3.334-3.334,5.493c0,2.845,1.472,4.61,2.845,6.082l-3.63,2.649C112.789,59.608,111.513,57.156,111.513,54.41z"
			/>
	</g>
	<g>
		<path fill="#FFFFFF" d="M159.633,96.185c0-2.763,2.179-4.444,4.737-4.444c1.02,0,1.657,0.179,2.165,0.407V94.3
			c-0.483-0.241-1.032-0.42-1.82-0.42c-1.159,0-2.356,0.738-2.356,2.305c0,1.565,1.312,2.254,2.216,2.254
			c0.904,0,1.478-0.229,1.975-0.496v2.177c-0.521,0.268-1.389,0.535-2.42,0.535C161.583,100.654,159.633,98.948,159.633,96.185z
			 M161.047,89.372h2.166l0.864,0.942h0.052l0.866-0.942h2.165l-1.746,1.961h-2.622L161.047,89.372z"/>
		<path fill="#FFFFFF" d="M168.415,91.854h5.973v1.975h-3.477v1.388h3.361v1.923h-3.361v1.401h3.477v1.973h-5.973V91.854z"/>
		<path fill="#FFFFFF" d="M176.357,100.056v-2.267c0.561,0.395,1.719,0.892,2.865,0.892c0.84,0,1.298-0.242,1.298-0.676
			c0-0.343-0.317-0.496-0.788-0.61c-0.562-0.141-0.905-0.217-1.554-0.383c-1.172-0.292-1.923-1.133-1.923-2.47
			c0-1.758,1.591-2.891,3.743-2.891c1.019,0,1.935,0.203,2.496,0.445v2.152c-0.434-0.242-1.312-0.573-2.369-0.573
			c-0.967,0-1.4,0.242-1.4,0.624c0,0.331,0.254,0.497,0.84,0.624c0.434,0.089,0.751,0.141,1.324,0.28
			c1.414,0.344,2.14,1.171,2.14,2.585c0,1.438-1.312,2.929-3.681,2.929C178.051,100.718,177.057,100.45,176.357,100.056z"/>
		<path fill="#FFFFFF" d="M190.041,100.514l-2.509-4.163v4.163h-2.495v-8.659h2.495v3.986l2.42-3.986h3.043l-2.89,4.189l2.929,4.47
			H190.041z"/>
		<path fill="#FFFFFF" d="M194.633,91.854h5.973v1.975h-3.477v1.388h3.361v1.923h-3.361v1.401h3.477v1.973h-5.973V91.854z
			 M197.447,89.372h2.902l-1.795,1.961h-2.113L197.447,89.372z"/>
		<path fill="#FFFFFF" d="M204.623,91.854h2.803l1.475,6.481h0.052l1.478-6.481h2.802l-2.598,8.659h-3.413L204.623,91.854z"/>
		<path fill="#FFFFFF" d="M216.409,97.343l-2.93-5.488h2.829l1.361,3.095h0.052l1.413-3.095h2.763l-2.991,5.488v3.171h-2.497V97.343
			z"/>
		<path fill="#FFFFFF" d="M222.722,100.056v-2.267c0.56,0.395,1.719,0.892,2.864,0.892c0.841,0,1.299-0.242,1.299-0.676
			c0-0.343-0.317-0.496-0.79-0.61c-0.559-0.141-0.903-0.217-1.553-0.383c-1.171-0.292-1.924-1.133-1.924-2.47
			c0-1.758,1.593-2.891,3.745-2.891c1.02,0,1.936,0.203,2.496,0.445v2.152c-0.433-0.242-1.312-0.573-2.368-0.573
			c-0.968,0-1.401,0.242-1.401,0.624c0,0.331,0.254,0.497,0.84,0.624c0.434,0.089,0.751,0.141,1.325,0.28
			c1.413,0.344,2.14,1.171,2.14,2.585c0,1.438-1.312,2.929-3.682,2.929C224.415,100.718,223.421,100.45,222.722,100.056z"/>
		<path fill="#FFFFFF" d="M230.878,96.185c0-2.891,1.771-4.533,4.344-4.533c2.585,0,4.316,1.643,4.316,4.533
			s-1.731,4.533-4.316,4.533C232.648,100.718,230.878,99.075,230.878,96.185z M236.863,96.185c0-1.426-0.521-2.317-1.642-2.317
			c-1.108,0-1.669,0.892-1.669,2.317c0,1.427,0.561,2.317,1.669,2.317C236.342,98.502,236.863,97.611,236.863,96.185z"/>
		<path fill="#FFFFFF" d="M246.562,100.514l-2.509-4.163v4.163h-2.496v-8.659h2.496v3.986l2.42-3.986h3.044l-2.891,4.189l2.928,4.47
			H246.562z"/>
		<path fill="#FFFFFF" d="M251.153,91.854h5.971v1.975h-3.475v1.388h3.361v1.923h-3.361v1.401h3.475v1.973h-5.971V91.854z
			 M253.968,89.372h2.902l-1.795,1.961h-2.114L253.968,89.372z"/>
	</g>
	<g>
		<path fill="#FFFFFF" d="M160.079,112.769v-5.463h2.496v5.234c0,0.979,0.534,1.413,1.236,1.413c0.699,0,1.233-0.434,1.233-1.413
			v-5.234h2.496v5.463c0,2.419-1.693,3.399-3.729,3.399C161.772,116.168,160.079,115.188,160.079,112.769z"/>
	</g>
	<g>
		<path fill="#FFFFFF" d="M169.511,111.635c0-2.763,2.177-4.443,4.735-4.443c1.019,0,1.656,0.178,2.166,0.407v2.151
			c-0.484-0.241-1.031-0.42-1.822-0.42c-1.159,0-2.355,0.739-2.355,2.305c0,1.566,1.312,2.254,2.216,2.254
			c0.903,0,1.478-0.229,1.975-0.496v2.177c-0.522,0.269-1.389,0.536-2.42,0.536C171.458,116.105,169.511,114.398,169.511,111.635z
			 M170.924,104.822h2.164l0.865,0.943h0.052l0.866-0.943h2.164l-1.743,1.961h-2.625L170.924,104.822z"/>
	</g>
	<g>
		<path fill="#FFFFFF" d="M178.305,107.306h5.972v1.975H180.8v1.387h3.362v1.924H180.8v1.4h3.477v1.974h-5.972V107.306z"/>
		<path fill="#FFFFFF" d="M186.551,107.306h3.069l2.598,5.17h0.037v-5.17h2.497v8.659h-3.044l-2.622-5.195h-0.039v5.195h-2.496
			V107.306z"/>
		<path fill="#FFFFFF" d="M198.223,104.822h2.903l-1.795,1.961h-2.115L198.223,104.822z M197.292,107.306h2.497v8.659h-2.497
			V107.306z"/>
		<path fill="#FFFFFF" d="M206.419,109.33h-2.165v-2.024h6.813v2.024h-2.152v6.635h-2.496V109.33z"/>
		<path fill="#FFFFFF" d="M212.679,107.306h5.974v1.975h-3.477v1.387h3.361v1.924h-3.361v1.4h3.477v1.974h-5.974V107.306z"/>
		<path fill="#FFFFFF" d="M220.417,111.635c0-2.763,2.177-4.443,4.737-4.443c1.019,0,1.654,0.178,2.164,0.407v2.151
			c-0.482-0.241-1.031-0.42-1.82-0.42c-1.159,0-2.355,0.739-2.355,2.305c0,1.566,1.311,2.254,2.216,2.254
			c0.903,0,1.478-0.229,1.973-0.496v2.177c-0.522,0.269-1.387,0.536-2.419,0.536C222.364,116.105,220.417,114.398,220.417,111.635z"
			/>
		<path fill="#FFFFFF" d="M231.695,107.306v3.312h2.559v-3.312h2.496v8.659h-2.496v-3.387h-2.559v3.387h-2.496v-8.659H231.695z"/>
		<path fill="#FFFFFF" d="M239.291,107.306h3.069l2.598,5.17h0.038v-5.17h2.496v8.659h-3.043l-2.625-5.195h-0.037v5.195h-2.496
			V107.306z"/>
		<path fill="#FFFFFF" d="M250.033,107.306h2.496v8.659h-2.496V107.306z"/>
		<path fill="#FFFFFF" d="M254.564,111.635c0-2.763,2.177-4.443,4.735-4.443c1.019,0,1.656,0.178,2.166,0.407v2.151
			c-0.485-0.241-1.032-0.42-1.822-0.42c-1.159,0-2.355,0.739-2.355,2.305c0,1.566,1.312,2.254,2.216,2.254
			c0.903,0,1.477-0.229,1.975-0.496v2.177c-0.522,0.269-1.389,0.536-2.421,0.536C256.512,116.105,254.564,114.398,254.564,111.635z"
			/>
		<path fill="#FFFFFF" d="M268.35,115.965l-2.509-4.164v4.164h-2.497v-8.659h2.497v3.986l2.42-3.986h3.043l-2.891,4.189l2.928,4.47
			H268.35z"/>
		<path fill="#FFFFFF" d="M272.94,107.306h5.974v1.975h-3.477v1.387h3.361v1.924h-3.361v1.4h3.477v1.974h-5.974V107.306z
			 M275.755,104.822h2.903l-1.795,1.961h-2.115L275.755,104.822z"/>
	</g>
	<g>
		<path fill="#FFFFFF" d="M159.188,122.756h2.802l1.478,6.482h0.052l1.477-6.482h2.8l-2.598,8.659h-3.412L159.188,122.756z"/>
	</g>
	<g>
		<path fill="#FFFFFF" d="M172.577,122.756h3.77c2.023,0,3.284,1.389,3.284,2.98s-1.261,2.877-3.284,2.877h-1.273v2.802h-2.496
			V122.756z M176.054,126.755c0.547,0,1.044-0.446,1.044-1.07c0-0.61-0.497-1.069-1.044-1.069h-0.98v2.14H176.054z"/>
		<path fill="#FFFFFF" d="M181.46,122.756h3.974c2.024,0,3.26,1.299,3.26,2.853c0,1.478-1.083,2.127-1.847,2.471l-0.013,0.051
			c0.114,0.076,0.318,0.331,0.483,0.611l1.593,2.674h-2.814l-1.502-3.043h-0.638v3.043h-2.496V122.756z M184.963,126.755
			c0.675,0,1.069-0.534,1.069-1.082s-0.395-1.07-1.069-1.07h-1.007v2.152H184.963z"/>
		<path fill="#FFFFFF" d="M195.208,129.62h-2.763l-0.471,1.795h-2.561l2.585-8.659h3.654l2.598,8.659h-2.559L195.208,129.62z
			 M194.737,127.851l-0.854-3.197h-0.114l-0.854,3.197H194.737z"/>
		<path fill="#FFFFFF" d="M198.935,129.505l3.617-4.724h-3.541v-2.025h6.66v1.821l-3.681,4.813h3.745v2.024h-6.801V129.505z"/>
		<path fill="#FFFFFF" d="M207.628,122.756h5.971v1.975h-3.477v1.388h3.363v1.923h-3.363v1.401h3.477v1.973h-5.971V122.756z"/>
	</g>
</g>
</svg>
