<?xml version="1.0" encoding="UTF-8" standalone="no"?>
<!-- Generator: Adobe Illustrator 15.0.0, SVG Export Plug-In . SVG Version: 6.00 Build 0)  -->

<svg
   version="1.1"
   id="Layer_1"
   x="0px"
   y="0px"
   width="583.38397"
   height="191.528"
   viewBox="0 0 583.384 191.528"
   enable-background="new 0 0 617.332 226.77"
   xml:space="preserve"
   sodipodi:docname="civil_engeneering.svg"
   inkscape:version="1.4 (unknown)"
   xmlns:inkscape="http://www.inkscape.org/namespaces/inkscape"
   xmlns:sodipodi="http://sodipodi.sourceforge.net/DTD/sodipodi-0.dtd"
   xmlns="http://www.w3.org/2000/svg"
   xmlns:svg="http://www.w3.org/2000/svg"><defs
   id="defs5" /><sodipodi:namedview
   id="namedview5"
   pagecolor="#ffffff"
   bordercolor="#666666"
   borderopacity="1.0"
   inkscape:showpageshadow="2"
   inkscape:pageopacity="0.0"
   inkscape:pagecheckerboard="0"
   inkscape:deskcolor="#d1d1d1"
   inkscape:zoom="1.2554023"
   inkscape:cx="288.35377"
   inkscape:cy="94.790328"
   inkscape:window-width="1920"
   inkscape:window-height="1022"
   inkscape:window-x="0"
   inkscape:window-y="34"
   inkscape:window-maximized="1"
   inkscape:current-layer="Layer_1" />
<g
   id="g5"
   transform="translate(-19.993999,-18.427)">
	<rect
   x="19.993999"
   y="18.427"
   fill="#0065bd"
   width="190.886"
   height="190.884"
   id="rect1" />
	<g
   id="g4">
		<path
   fill="#ffffff"
   d="m 174.707,101.206 4.891,-3.569 c -1.849,-1.982 -3.833,-4.361 -3.833,-8.194 0,-2.907 1.983,-6.079 4.493,-7.4 -1.321,-1.586 -3.437,-3.038 -6.475,-3.038 -3.965,0 -7.27,2.907 -7.27,6.738 0,2.643 1.719,4.891 3.702,5.947 0.001,3.7 1.72,7.002 4.492,9.516 m -26.163,-26.034 4.096,-7.27 h -6.079 c 0,1.321 -1.19,2.774 -2.646,2.774 -1.583,0 -2.641,-1.056 -2.641,-2.774 h -5.418 c 0,1.586 -1.188,2.774 -2.642,2.774 -1.454,0 -2.645,-1.188 -2.645,-2.774 h -6.079 l 3.57,7.003 c 2.776,-0.263 5.417,-0.394 8.061,-0.394 4.887,0 9.119,0.263 12.423,0.661 m -11.102,64.487 c -0.661,-1.188 -1.321,-2.644 -1.321,-5.284 0,-3.438 1.982,-6.344 6.212,-8.195 2.775,-1.321 4.887,-2.51 8.589,-4.358 8.721,-4.493 11.761,-12.952 11.761,-21.674 0,-4.36 -1.191,-7.798 -2.643,-10.705 0.394,2.379 0.792,4.363 0.792,6.74 0,9.119 -3.17,15.859 -11.497,19.954 -5.284,2.643 -7.93,3.7 -11.103,5.287 -4.489,2.377 -7.003,5.418 -7.003,9.118 10e-4,4.624 2.378,8.062 6.213,9.117 m -5.154,-1.716 c -1.452,-1.456 -3.038,-4.099 -3.038,-7.533 0,-4.361 2.905,-8.062 8.059,-10.705 4.493,-2.114 7.135,-3.173 11.099,-5.021 8.328,-4.096 10.837,-11.101 10.837,-18.632 0,-7.27 -2.377,-10.97 -4.361,-13.349 1.454,2.777 1.851,6.08 1.851,8.856 0,8.061 -2.377,15.064 -11.761,18.764 -4.758,1.981 -7.798,2.642 -11.894,4.492 -6.477,3.041 -8.986,6.609 -8.986,11.894 0.001,5.022 3.173,9.778 8.194,11.234 m -5.021,-1.058 c -2.249,-1.849 -5.156,-4.889 -5.156,-10.308 0,-5.682 2.379,-9.91 9.78,-13.082 4.76,-1.982 7.27,-2.907 11.763,-4.626 9.515,-3.568 11.496,-10.573 11.496,-17.445 0,-6.605 -2.379,-10.44 -5.286,-12.95 1.718,2.114 2.776,5.684 2.776,9.382 0,8.722 -3.305,13.612 -12.687,16.917 -3.833,1.188 -7.929,2.377 -12.159,3.963 -7.664,2.907 -11.629,7.135 -11.629,14.273 10e-4,7.401 5.683,12.952 11.102,13.876 m -5.287,-0.924 c -5.286,-2.644 -7.798,-8.325 -7.798,-13.349 0,-7.269 4.493,-12.422 12.024,-15.199 4.629,-1.716 8.328,-2.772 12.954,-4.359 8.986,-3.172 11.894,-7.4 11.894,-15.461 0,-4.625 -1.719,-8.589 -4.493,-10.835 0.923,1.056 1.188,2.377 1.188,3.568 0,2.247 -1.188,3.303 -2.907,3.303 -1.058,0 -2.116,-0.661 -2.247,-1.717 0.528,0.394 0.926,0.528 1.456,0.528 1.452,0 2.245,-1.058 2.245,-2.511 0,-2.247 -2.114,-3.438 -4.228,-3.701 -1.851,-0.265 -3.835,-0.265 -6.08,-0.265 -2.245,0 -4.361,0.132 -7.135,0.265 1.716,2.379 7.4,1.719 9.117,2.907 -1.455,-0.13 -2.907,-0.13 -4.362,0.263 0,0.928 -0.394,1.984 -1.319,1.984 -1.719,0 -2.512,-1.85 -3.7,-5.154 l -6.74,0.53 c -1.058,0.13 -1.454,0.528 -1.323,1.321 l 0.663,6.607 c 0,0.263 0.265,0.396 0.53,0.396 0.263,0 0.526,-0.133 0.659,-0.53 0.265,-0.528 1.06,-1.717 3.04,-1.717 2.907,0 5.154,2.645 5.285,5.682 -1.056,-1.452 -3.434,-2.775 -7.4,-2.775 -3.038,0 -5.547,0.926 -9.513,0.926 -4.229,0 -6.607,-1.586 -6.607,-3.568 0,-0.925 0.13,-1.456 0.661,-2.116 -1.719,0.793 -3.04,2.249 -3.04,4.626 0,2.907 2.116,5.949 8.324,5.949 5.682,0 8.328,-3.57 13.48,-3.57 2.379,0 3.569,1.189 3.569,2.512 0,1.188 -1.06,2.247 -2.907,2.247 -2.249,0 -3.831,-1.188 -4.625,-2.379 -0.132,-0.265 -0.265,-0.396 -0.53,-0.396 -0.394,0 -0.528,0.263 -0.528,0.528 l 0.134,6.342 c 0,0.793 0.394,1.191 1.321,1.058 3.963,-0.397 8.059,-0.925 11.894,-1.188 7.136,-0.661 12.026,-5.421 12.026,-10.705 0,-0.793 0,-1.456 -0.132,-2.247 0.658,1.058 0.923,2.114 0.923,3.435 0,4.891 -2.642,8.591 -11.099,10.838 -4.495,1.188 -7.798,1.716 -11.633,2.642 -10.175,2.379 -16.78,10.175 -16.78,18.898 -0.003,8.062 5.678,15.329 13.739,16.387 M 77.708,88.254 c 0.53,-1.188 0.663,-2.247 0.663,-3.04 0,-1.719 -0.795,-3.303 -1.586,-3.963 1.982,0 3.698,1.452 3.698,3.435 0,1.849 -1.189,3.04 -2.775,3.568 m 24.318,31.451 4.228,-2.247 c 1.454,-8.852 6.738,-15.063 15.99,-17.311 -4.889,0.263 -9.119,0.396 -15.064,0.661 -6.342,0.263 -16.783,1.058 -24.05,1.586 -1.456,0.132 -2.379,-0.398 -2.777,-1.586 -0.396,-1.321 -1.188,-3.833 -1.321,-5.286 -0.134,-1.19 0.133,-1.984 1.191,-2.775 2.112,-1.456 4.228,-3.172 4.228,-6.74 0,-3.833 -3.305,-6.342 -6.344,-6.342 -1.056,0 -1.849,0.13 -2.51,0.394 -0.795,-0.526 -1.586,-0.924 -3.172,-0.924 -2.249,0 -4.229,1.454 -4.758,2.643 -3.831,-0.263 -6.871,2.511 -6.607,6.211 0.528,-0.53 1.586,-1.056 2.776,-1.056 1.452,0 2.775,1.056 2.775,2.642 0,1.454 -0.265,3.305 -0.265,5.284 0,6.082 4.891,9.253 4.891,12.424 0,1.586 -1.19,2.907 -2.776,2.907 0.925,3.305 3.965,5.021 8.061,5.021 2.644,0 5.023,-0.264 8.854,-0.264 10.968,10e-4 15.722,1.19 16.65,4.758 m 40.7,37.399 h 1.325 c -0.136,-4.23 -1.19,-7.138 -2.907,-10.175 -0.927,-1.719 -2.116,-3.568 -3.042,-4.761 -0.528,-0.791 -1.19,-1.054 -1.982,-1.054 -0.53,0 -0.925,0.394 -0.53,1.054 1.06,1.719 2.512,4.363 4.363,8.459 -1.586,0.265 -1.984,1.058 -1.984,2.379 0.001,2.115 1.985,4.098 4.757,4.098 M 72.557,88.782 c 0.13,-3.7 -1.454,-5.682 -3.7,-6.607 0.396,-0.133 0.923,-0.397 1.717,-0.397 1.718,0 3.569,1.456 3.569,3.702 0,1.188 -0.398,2.509 -1.586,3.302 m 84.707,93.033 c -0.528,-1.188 -2.247,-2.377 -4.361,-2.377 -1.19,0 -1.981,0.263 -2.512,0.528 0.133,-1.059 1.19,-2.247 3.305,-2.247 2.51,0.001 3.831,1.982 3.568,4.096 m -0.793,5.684 c -0.793,-0.925 -2.112,-1.719 -3.831,-1.719 -2.116,0 -3.172,0.926 -3.702,1.587 -0.263,-1.587 1.058,-3.568 3.57,-3.568 2.642,0 3.963,1.849 3.963,3.7 M 62.514,124.461 c 0.923,-2.246 3.038,-3.83 5.549,-4.358 0.526,-0.795 1.188,-1.454 1.851,-1.983 L 65.421,99.353 c -0.53,-1.319 -0.928,-2.64 -0.928,-4.493 0,-1.979 0.397,-3.963 0.397,-5.02 0,-0.925 -0.528,-1.188 -1.056,-1.188 -0.397,0 -0.663,0 -0.793,0.131 v 0.53 c 0,3.038 -1.853,5.417 -4.891,5.417 -3.038,0 -5.419,-2.51 -5.419,-5.417 0,-2.907 2.381,-5.288 5.419,-5.288 0.528,0 1.19,0 1.981,0.265 0.926,-2.377 3.833,-4.493 6.871,-4.096 -2.112,-2.644 -5.284,-4.23 -8.852,-4.23 -7.666,0 -13.743,5.551 -13.743,13.349 0,7.266 5.947,13.083 13.347,13.215 z m 20.483,28.413 c 1.982,0 4.096,-1.058 6.078,-3.037 3.567,-3.438 8.591,-8.591 11.63,-10.575 2.642,-1.717 4.361,-2.377 6.078,-2.377 1.058,0 1.853,0.265 2.644,1.059 l 4.493,-3.438 c -5.154,-3.833 -7.533,-8.854 -7.666,-15.064 -7.135,3.831 -12.289,9.119 -18.238,14.139 -1.056,0.795 -1.584,1.188 -2.51,1.188 -0.925,0 -1.719,-0.924 -3.305,-2.51 -1.321,-1.321 -1.586,-2.114 -1.586,-3.037 0,-1.586 0.53,-2.116 0.53,-4.23 0,-4.229 -3.303,-6.607 -6.475,-6.607 -2.645,0 -4.626,1.453 -5.287,3.305 -3.569,0.263 -5.816,2.907 -5.816,5.68 0,0.663 0.134,1.192 0.267,1.586 -1.321,0.795 -2.646,2.38 -2.646,4.495 0,2.247 1.19,4.361 3.174,5.021 -0.267,-0.397 -0.397,-0.926 -0.397,-1.586 0,-1.188 1.058,-2.246 2.511,-2.246 1.189,0 1.982,0.397 2.907,1.453 1.189,1.586 2.379,3.04 4.361,4.758 1.851,1.587 3.963,2.643 5.947,3.833 1.189,0.791 2.112,1.85 2.112,3.436 0,1.058 -0.791,2.246 -2.377,2.644 0.661,1.45 1.985,2.11 3.571,2.11 m -7.533,-25.769 c -0.133,-2.645 -2.114,-4.757 -4.626,-5.284 0.397,-0.268 1.056,-0.661 2.114,-0.661 1.849,0 3.305,1.584 3.305,3.301 0,1.323 -0.398,1.983 -0.793,2.644 m 14.668,69.511 c -0.53,-0.66 -0.793,-1.321 -0.793,-2.114 0,-1.584 1.321,-2.774 3.17,-2.774 2.907,0 4.493,3.172 8.328,3.172 4.361,0 6.473,-3.172 10.438,-3.172 1.983,0 4.76,1.19 4.76,3.7 0,0.397 -0.136,0.793 -0.397,1.058 4.493,0 7.662,-3.832 7.662,-10.177 0,-8.854 -0.261,-12.422 -0.394,-17.311 3.437,-0.133 6.738,-1.851 6.208,-7.268 -0.923,0.791 -1.979,1.188 -3.168,1.188 -1.586,0 -2.777,-1.188 -2.777,-2.907 0,-0.795 0,-1.719 0.131,-2.645 l 15.463,-0.397 c -1.454,-0.791 -2.51,-2.377 -2.51,-4.226 0,-1.321 0.528,-2.247 1.586,-2.777 -1.456,-3.037 -2.644,-5.417 -4.096,-7.663 -0.795,-1.188 -1.719,-2.379 -3.57,-2.379 -4.098,-0.133 -12.421,1.056 -16.652,2.512 -3.17,1.056 -6.212,3.435 -6.212,8.852 0,5.023 1.719,13.877 1.586,27.753 0,1.983 -0.528,2.644 -1.717,2.907 -1.058,0.265 -3.833,0.527 -5.551,0.265 -0.924,-0.135 -1.719,-0.793 -2.247,-2.774 -0.661,-2.776 -2.642,-5.552 -6.607,-5.552 -3.57,0 -6.738,2.645 -6.21,6.607 -1.719,1.059 -2.512,2.777 -2.512,4.361 0,1.586 0.528,2.907 1.188,3.7 -0.396,0.925 -0.526,1.453 -0.526,2.379 0.002,3.305 2.91,5.682 5.419,5.682 M 71.497,130.673 c -0.791,-1.586 -2.51,-2.51 -4.493,-2.51 -0.791,0 -1.452,0.133 -1.98,0.264 0.263,-1.059 1.454,-1.982 3.172,-1.982 2.246,-10e-4 3.698,1.718 3.301,4.228 m 23.128,51.142 c -0.53,-1.188 -2.247,-2.377 -4.361,-2.377 -1.19,0 -1.983,0.263 -2.512,0.528 0.131,-1.059 1.19,-2.247 3.305,-2.247 2.51,0.001 3.832,1.982 3.568,4.096 M 83.39,193.313 c -0.394,-0.793 -0.526,-1.586 -0.526,-2.379 0,-0.793 0.132,-1.454 0.396,-2.114 -0.661,-1.19 -1.058,-2.512 -1.058,-3.965 0,-1.982 0.928,-3.831 2.249,-5.021 l -8.193,-35.549 c -1.323,-0.66 -2.644,-1.453 -3.7,-2.379 -1.851,-1.586 -2.907,-2.774 -4.626,-4.757 -0.53,-0.527 -0.927,-0.793 -1.454,-0.793 -0.795,0 -1.321,0.528 -1.056,1.587 l 1.716,8.191 3.568,2.512 9.91,42.551 z m 10.444,-5.814 c -0.795,-0.925 -2.116,-1.719 -3.835,-1.719 -2.116,0 -3.172,0.926 -3.702,1.587 -0.261,-1.587 1.06,-3.568 3.57,-3.568 2.642,0 3.967,1.849 3.967,3.7 m -65.285,9.91 8.061,-6.212 9.912,-42.551 3.568,-2.512 7.93,-34.093 -1.718,-7.929 c -1.984,-0.397 -3.702,-0.925 -5.154,-1.718 z m 124.222,-0.793 c -0.528,-0.66 -0.793,-1.321 -0.793,-2.114 0,-1.584 1.321,-2.774 3.172,-2.774 2.907,0 4.493,3.172 8.326,3.172 4.359,0 6.475,-3.172 10.438,-3.172 1.983,0 4.758,1.19 4.758,3.7 0,0.397 -0.132,0.793 -0.396,1.058 4.493,0 7.664,-3.832 7.664,-10.177 0,-8.456 -0.791,-17.839 -1.719,-27.223 2.379,-0.527 4.626,-2.907 4.626,-5.946 0,-1.057 -0.394,-2.247 -1.056,-3.303 -0.663,0.925 -1.851,1.716 -3.831,2.246 -2.776,0.791 -6.212,1.188 -8.725,1.188 -5.682,0 -7.531,-0.397 -10.173,-1.188 -0.134,-3.567 -2.379,-6.477 -4.493,-8.458 3.303,1.32 4.756,1.981 10.042,1.981 16.915,0 27.355,-11.364 27.355,-24.315 0,-9.384 -5.947,-13.743 -11.366,-16.915 l -5.021,3.568 c 6.079,2.774 10.042,6.871 10.042,12.421 0,6.079 -4.887,10.442 -10.569,10.442 -6.081,0 -10.837,-4.363 -10.837,-10.31 0,-4.491 2.112,-7.796 6.077,-10.968 3.965,-3.17 10.045,-7.003 13.35,-10.571 1.718,-1.853 3.17,-4.76 3.038,-7.007 2.247,-1.056 3.965,-3.301 3.965,-6.21 0,-3.831 -3.698,-6.738 -7.664,-6.738 -2.381,0 -5.021,1.452 -6.346,3.038 2.381,0.926 4.627,4.096 4.627,7.4 0,2.777 -1.716,5.154 -3.7,7.136 -3.04,3.042 -7.003,5.288 -11.366,8.856 -5.286,4.361 -8.458,9.514 -8.458,15.329 0,8.062 6.212,15.594 15.99,15.594 3.172,0 5.684,-0.66 7.535,-1.851 -3.172,3.7 -9.117,5.551 -15.329,5.551 -5.421,0 -9.119,-0.795 -13.083,-3.7 -3.57,-2.642 -6.344,-8.854 -6.212,-13.479 -2.907,1.719 -6.344,3.303 -9.251,4.626 -4.098,1.981 -5.419,4.096 -5.419,7.663 0,4.759 3.305,8.459 4.756,11.233 1.984,3.567 2.645,6.74 2.907,10.043 0.795,8.062 5.421,11.763 13.612,11.763 3.702,0 8.589,-0.265 10.573,-0.53 0.793,3.702 1.719,8.062 1.719,11.366 0,1.983 -0.53,2.644 -1.719,2.907 -1.056,0.265 -3.833,0.527 -5.549,0.265 -0.924,-0.135 -1.719,-0.793 -2.249,-2.774 -0.659,-2.776 -2.642,-5.552 -6.605,-5.552 -3.57,0 -6.74,2.645 -6.212,6.607 -1.719,1.059 -2.512,2.777 -2.512,4.361 0,1.586 0.528,2.907 1.19,3.7 -0.397,0.925 -0.53,1.453 -0.53,2.379 0.002,3.305 2.911,5.682 5.421,5.682"
   id="path1" />
		<path
   fill="#0065bd"
   d="m 538.277,209.315 h 18.835 v -6.227 h -10.963 v -4.417 h 10.604 v -6.063 h -10.604 v -4.378 h 10.963 v -6.226 h -18.835 z m -19.597,0.64 c 6.426,0 11.767,-3.092 11.767,-10.722 v -17.229 h -7.872 v 16.506 c 0,3.092 -1.686,4.456 -3.895,4.456 -2.208,0 -3.894,-1.364 -3.894,-4.456 v -16.506 h -7.872 v 17.229 c 0,7.63 5.341,10.722 11.766,10.722 m -28.27,0 c 4.857,0 8.23,-1.484 9.877,-2.33 v -12.086 h -7.669 v 7.389 c -0.563,0.121 -1.165,0.2 -1.768,0.2 -3.054,0 -6.426,-2.328 -6.426,-7.471 0,-5.539 2.971,-8.271 8.07,-8.271 2.813,0 5.222,0.964 6.709,1.767 v -6.426 c -1.607,-0.723 -4.258,-1.727 -7.87,-1.727 -9.279,0 -15.505,5.742 -15.505,14.656 0.001,8.92 6.948,14.299 14.582,14.299 m -34.418,-11.887 2.688,-10.08 h 0.362 l 2.693,10.08 z m 8.752,11.247 h 8.075 l -8.193,-27.311 h -11.525 l -8.153,27.311 h 8.071 l 1.488,-5.663 h 8.714 z m -37.025,-14.7 v -6.787 h 3.172 c 2.13,0 3.375,1.646 3.375,3.373 0,1.729 -1.245,3.414 -3.375,3.414 z m -7.872,14.7 h 7.872 v -9.601 h 2.007 l 4.739,9.601 h 8.875 l -5.018,-8.436 c -0.521,-0.883 -1.165,-1.686 -1.527,-1.928 l 0.041,-0.161 c 2.408,-1.084 5.822,-3.134 5.822,-7.79 0,-4.9 -3.896,-8.996 -10.278,-8.996 h -12.533 z m -20.199,-14.7 v -6.746 h 3.093 c 1.725,0 3.291,1.444 3.291,3.371 0,1.97 -1.566,3.375 -3.291,3.375 z m -7.872,14.7 h 7.872 v -8.837 h 4.017 c 6.385,0 10.359,-4.055 10.359,-9.076 0,-5.02 -3.975,-9.397 -10.359,-9.397 h -11.889 z m -43.973,0 h 7.872 V 192.93 h 0.119 l 8.275,16.386 h 9.596 v -27.311 h -7.87 v 16.305 h -0.12 l -8.191,-16.305 h -9.681 z m -15.902,0 h 7.87 v -27.311 h -7.87 z m -29.677,0.64 c 6.424,0 11.765,-3.092 11.765,-10.722 v -17.229 h -7.872 v 16.506 c 0,3.092 -1.684,4.456 -3.893,4.456 -2.21,0 -3.896,-1.364 -3.896,-4.456 v -16.506 h -7.872 v 17.229 c 0,7.63 5.341,10.722 11.768,10.722 m -31.364,-0.64 h 7.87 V 188.39 h 6.787 v -6.385 h -21.484 v 6.385 h 6.828 v 20.925 z m -17.912,0.441 c 3.252,0 5.984,-0.845 7.63,-1.687 v -6.868 c -1.567,0.844 -3.373,1.566 -6.226,1.566 -2.853,0 -6.987,-2.169 -6.987,-7.11 0,-4.938 3.776,-7.268 7.432,-7.268 2.488,0 4.214,0.563 5.74,1.325 v -6.787 c -1.605,-0.721 -3.613,-1.284 -6.828,-1.284 -8.071,0 -14.938,5.303 -14.938,14.014 0.001,8.716 6.146,14.099 14.177,14.099"
   id="path2" />
		<path
   fill="#0065bd"
   d="m 523.778,169.062 c 4.857,0 8.232,-1.486 9.879,-2.328 v -12.091 h -7.671 v 7.391 c -0.562,0.121 -1.165,0.199 -1.768,0.199 -3.053,0 -6.424,-2.329 -6.424,-7.467 0,-5.544 2.969,-8.273 8.07,-8.273 2.812,0 5.222,0.964 6.707,1.765 v -6.424 c -1.605,-0.725 -4.256,-1.729 -7.87,-1.729 -9.277,0 -15.505,5.742 -15.505,14.661 10e-4,8.915 6.95,14.296 14.582,14.296 m -46.867,-0.642 h 7.872 v -16.386 h 0.12 l 8.273,16.386 h 9.599 v -27.311 h -7.872 v 16.307 h -0.12 l -8.192,-16.307 h -9.68 z m -15.902,0 h 7.87 v -27.311 h -7.87 z m -21.322,-14.7 v -6.786 h 3.172 c 2.128,0 3.373,1.646 3.373,3.375 0,1.726 -1.245,3.411 -3.373,3.411 z m -7.873,14.7 h 7.872 v -9.599 h 2.007 l 4.739,9.599 h 8.873 l -5.02,-8.436 c -0.521,-0.883 -1.163,-1.686 -1.523,-1.927 l 0.039,-0.16 c 2.408,-1.085 5.822,-3.131 5.822,-7.79 0,-4.9 -3.894,-8.998 -10.28,-8.998 h -12.529 z m -26.022,0 h 18.833 v -6.226 h -10.963 v -4.418 h 10.603 v -6.063 h -10.603 v -4.378 h 10.963 v -6.226 h -18.833 z m -26.025,0 h 18.838 v -6.226 h -10.967 v -4.418 h 10.604 v -6.063 h -10.604 v -4.378 h 10.967 v -6.226 h -18.838 z m -33.893,0 h 7.872 v -16.386 h 0.12 l 8.273,16.386 h 9.597 v -27.311 h -7.87 v 16.307 h -0.121 l -8.191,-16.307 h -9.68 z m -15.902,0 h 7.87 v -27.311 h -7.87 z m -16.706,0.642 c 4.859,0 8.234,-1.486 9.881,-2.328 v -12.091 h -7.673 v 7.391 c -0.562,0.121 -1.162,0.199 -1.766,0.199 -3.052,0 -6.427,-2.329 -6.427,-7.467 0,-5.544 2.974,-8.273 8.073,-8.273 2.812,0 5.22,0.964 6.705,1.765 v -6.424 c -1.606,-0.725 -4.256,-1.729 -7.87,-1.729 -9.277,0 -15.501,5.742 -15.501,14.661 0,8.915 6.947,14.296 14.578,14.296 M 266.4,168.42 h 7.872 v -16.386 h 0.121 l 8.271,16.386 h 9.599 v -27.311 h -7.872 v 16.307 h -0.119 l -8.193,-16.307 H 266.4 Z m -26.022,0 h 18.834 v -6.226 H 248.25 v -4.418 h 10.604 v -6.063 H 248.25 v -4.378 h 10.962 v -6.226 h -18.834 z"
   id="path3" />
		<path
   fill="#0065bd"
   d="m 585.748,127.526 h 17.63 v -6.468 h -9.762 v -20.841 h -7.868 z m -15.904,0 h 7.872 v -27.309 h -7.872 z m -23.975,0 h 10.76 l 8.196,-27.309 h -8.835 l -4.661,20.439 h -0.159 l -4.658,-20.439 h -8.837 z m -20.28,0 h 7.872 v -27.309 h -7.872 z m -13.573,0.441 c 3.25,0 5.981,-0.844 7.628,-1.686 v -6.869 c -1.564,0.846 -3.373,1.567 -6.226,1.567 -2.851,0 -6.987,-2.169 -6.987,-7.108 0,-4.939 3.776,-7.27 7.432,-7.27 2.49,0 4.217,0.563 5.74,1.325 v -6.785 c -1.605,-0.723 -3.614,-1.286 -6.827,-1.286 -8.071,0 -14.938,5.302 -14.938,14.016 0,8.716 6.143,14.096 14.178,14.096 m -47.75,-27.749 v 27.309 h 7.871 v -10.563 h 10.682 v -6.063 h -10.682 v -4.458 h 10.803 v -6.224 h -18.674 z m -20.041,20.962 c -3.493,0 -5.259,-2.81 -5.259,-7.309 0,-4.497 1.766,-7.309 5.259,-7.309 3.537,0 5.182,2.812 5.182,7.309 -10e-4,4.499 -1.645,7.309 -5.182,7.309 m 0,6.989 c 8.152,0 13.616,-5.183 13.616,-14.298 0,-9.117 -5.464,-14.296 -13.616,-14.296 -8.111,0 -13.692,5.179 -13.692,14.296 -0.001,9.115 5.58,14.298 13.692,14.298 m -44.495,-0.643 h 7.872 v -10 l 9.435,-17.309 h -8.714 l -4.458,9.758 h -0.16 l -4.296,-9.758 h -8.919 l 9.24,17.309 z m -25.221,0 h 7.872 v -20.925 h 6.787 v -6.383 h -21.486 v 6.383 h 6.827 z m -23.936,0 h 17.631 v -6.468 h -9.759 v -20.841 h -7.872 z m -19.595,0.643 c 6.424,0 11.767,-3.092 11.767,-10.723 v -17.229 h -7.871 v 16.504 c 0,3.092 -1.688,4.458 -3.896,4.458 -2.208,0 -3.896,-1.366 -3.896,-4.458 v -16.504 h -7.871 v 17.229 c 0,7.631 5.342,10.723 11.767,10.723 m -25.142,-0.202 c 3.254,0 5.985,-0.844 7.632,-1.686 v -6.869 c -1.564,0.846 -3.372,1.567 -6.226,1.567 -2.851,0 -6.986,-2.169 -6.986,-7.108 0,-4.939 3.775,-7.27 7.427,-7.27 2.49,0 4.221,0.563 5.745,1.325 v -6.785 c -1.606,-0.723 -3.613,-1.286 -6.828,-1.286 -8.07,0 -14.939,5.302 -14.939,14.016 -10e-4,8.716 6.145,14.096 14.175,14.096 m -34.013,-11.686 2.689,-10.082 h 0.362 l 2.693,10.082 z m 8.752,11.245 h 8.075 l -8.194,-27.309 h -11.525 l -8.153,27.309 h 8.071 l 1.489,-5.662 h 8.714 z m -40.197,-27.308 v 27.309 h 7.872 v -10.563 h 10.682 v -6.063 H 248.25 v -4.458 h 10.803 v -6.224 h -18.675 z"
   id="path4" />
	</g>
</g>
</svg>
