<?xml version="1.0" encoding="utf-8"?>
<!-- Generator: Adobe Illustrator 15.0.0, SVG Export Plug-In . SVG Version: 6.00 Build 0)  -->
<!DOCTYPE svg PUBLIC "-//W3C//DTD SVG 1.1//EN" "http://www.w3.org/Graphics/SVG/1.1/DTD/svg11.dtd">
<svg version="1.1" id="Layer_1" xmlns="http://www.w3.org/2000/svg" xmlns:xlink="http://www.w3.org/1999/xlink" x="0px" y="0px"
	 width="601px" height="226.77px" viewBox="0 0 601 226.77" enable-background="new 0 0 601 226.77" xml:space="preserve">
<g>
	<rect x="19.994" y="18.427" fill="#0065BD" width="190.838" height="190.839"/>
	<g>
		<path fill="#FFFFFF" d="M174.669,101.186l4.89-3.569c-1.848-1.98-3.832-4.359-3.832-8.191c0-2.906,1.984-6.078,4.493-7.399
			c-1.321-1.585-3.437-3.036-6.474-3.036c-3.965,0-7.269,2.906-7.269,6.736c0,2.641,1.719,4.889,3.702,5.945
			C170.179,95.37,171.896,98.672,174.669,101.186 M148.514,75.157l4.095-7.268h-6.079c0,1.32-1.189,2.774-2.646,2.774
			c-1.581,0-2.639-1.056-2.639-2.774h-5.417c0,1.585-1.188,2.774-2.642,2.774c-1.453,0-2.644-1.189-2.644-2.774h-6.078l3.568,7.001
			c2.777-0.263,5.416-0.393,8.06-0.393C140.979,74.498,145.21,74.76,148.514,75.157 M137.414,139.63
			c-0.661-1.188-1.321-2.645-1.321-5.283c0-3.437,1.98-6.343,6.21-8.193c2.774-1.32,4.885-2.509,8.586-4.357
			c8.72-4.492,11.758-12.949,11.758-21.668c0-4.36-1.189-7.796-2.641-10.703c0.394,2.378,0.79,4.361,0.79,6.738
			c0,9.117-3.169,15.855-11.494,19.95c-5.283,2.642-7.928,3.699-11.1,5.285c-4.488,2.377-7,5.417-7,9.116
			C131.203,135.138,133.579,138.574,137.414,139.63 M132.261,137.913c-1.451-1.455-3.037-4.096-3.037-7.53
			c0-4.359,2.904-8.06,8.057-10.703c4.493-2.113,7.134-3.172,11.097-5.02c8.326-4.095,10.835-11.098,10.835-18.627
			c0-7.268-2.377-10.967-4.36-13.346c1.453,2.776,1.851,6.078,1.851,8.854c0,8.059-2.377,15.06-11.76,18.759
			c-4.756,1.981-7.795,2.642-11.89,4.491c-6.475,3.04-8.984,6.607-8.984,11.89C124.07,131.703,127.241,136.458,132.261,137.913
			 M127.241,136.855c-2.249-1.849-5.156-4.888-5.156-10.305c0-5.681,2.379-9.908,9.777-13.079c4.759-1.981,7.269-2.907,11.761-4.625
			c9.513-3.567,11.494-10.57,11.494-17.441c0-6.604-2.379-10.437-5.286-12.947c1.719,2.114,2.777,5.683,2.777,9.38
			c0,8.719-3.305,13.609-12.684,16.913c-3.832,1.188-7.927,2.376-12.156,3.961c-7.662,2.907-11.625,7.135-11.625,14.27
			C116.143,130.383,121.824,135.932,127.241,136.855 M121.956,135.932c-5.284-2.643-7.796-8.323-7.796-13.346
			c0-7.266,4.493-12.418,12.021-15.194c4.629-1.716,8.326-2.771,12.951-4.357c8.984-3.172,11.891-7.398,11.891-15.458
			c0-4.625-1.719-8.586-4.493-10.833c0.924,1.056,1.189,2.376,1.189,3.567c0,2.246-1.189,3.302-2.907,3.302
			c-1.058,0-2.116-0.661-2.246-1.716c0.528,0.393,0.925,0.528,1.454,0.528c1.451,0,2.244-1.058,2.244-2.511
			c0-2.246-2.112-3.436-4.227-3.699c-1.851-0.265-3.834-0.265-6.079-0.265s-4.36,0.132-7.134,0.265
			c1.716,2.379,7.398,1.718,9.116,2.906c-1.456-0.13-2.907-0.13-4.363,0.263c0,0.927-0.394,1.983-1.318,1.983
			c-1.719,0-2.51-1.849-3.7-5.153l-6.737,0.53c-1.058,0.131-1.454,0.528-1.324,1.321l0.663,6.605c0,0.264,0.265,0.396,0.53,0.396
			c0.263,0,0.526-0.132,0.658-0.53c0.265-0.528,1.061-1.717,3.04-1.717c2.905,0,5.151,2.644,5.283,5.681
			c-1.056-1.451-3.432-2.773-7.398-2.773c-3.037,0-5.546,0.925-9.511,0.925c-4.227,0-6.605-1.586-6.605-3.568
			c0-0.924,0.13-1.455,0.66-2.115c-1.717,0.792-3.039,2.248-3.039,4.625c0,2.906,2.116,5.947,8.321,5.947
			c5.681,0,8.326-3.569,13.478-3.569c2.379,0,3.568,1.188,3.568,2.511c0,1.188-1.06,2.246-2.906,2.246
			c-2.249,0-3.83-1.188-4.626-2.378c-0.131-0.265-0.265-0.396-0.53-0.396c-0.393,0-0.526,0.264-0.526,0.528l0.133,6.34
			c0,0.793,0.393,1.19,1.321,1.058c3.962-0.397,8.057-0.925,11.892-1.188c7.133-0.661,12.023-5.42,12.023-10.703
			c0-0.793,0-1.455-0.133-2.247c0.66,1.058,0.925,2.114,0.925,3.435c0,4.889-2.642,8.589-11.097,10.835
			c-4.494,1.188-7.796,1.716-11.629,2.642c-10.172,2.379-16.776,10.173-16.776,18.894
			C108.217,127.608,113.897,134.875,121.956,135.932 M77.695,88.236c0.53-1.188,0.661-2.246,0.661-3.039
			c0-1.718-0.794-3.302-1.586-3.962c1.981,0,3.699,1.451,3.699,3.434C80.469,86.519,79.28,87.709,77.695,88.236 M102.006,119.68
			l4.227-2.246c1.455-8.85,6.737-15.06,15.986-17.306c-4.888,0.262-9.118,0.395-15.06,0.66c-6.34,0.263-16.779,1.058-24.044,1.586
			c-1.456,0.132-2.379-0.397-2.777-1.586c-0.395-1.32-1.188-3.832-1.319-5.284c-0.135-1.189,0.131-1.983,1.189-2.775
			c2.111-1.455,4.227-3.171,4.227-6.738c0-3.832-3.304-6.341-6.342-6.341c-1.056,0-1.849,0.131-2.509,0.394
			c-0.794-0.526-1.586-0.924-3.172-0.924c-2.247,0-4.226,1.454-4.756,2.642c-3.83-0.263-6.869,2.511-6.605,6.21
			c0.526-0.53,1.584-1.056,2.775-1.056c1.451,0,2.774,1.056,2.774,2.642c0,1.454-0.265,3.303-0.265,5.283
			c0,6.08,4.89,9.251,4.89,12.421c0,1.585-1.189,2.906-2.775,2.906c0.924,3.304,3.963,5.02,8.058,5.02
			c2.644,0,5.022-0.263,8.853-0.263C96.325,114.925,101.078,116.113,102.006,119.68 M142.696,157.07h1.324
			c-0.136-4.229-1.189-7.136-2.905-10.173c-0.928-1.718-2.116-3.566-3.042-4.759c-0.528-0.791-1.189-1.054-1.98-1.054
			c-0.53,0-0.925,0.393-0.53,1.054c1.059,1.718,2.51,4.362,4.361,8.457c-1.586,0.265-1.982,1.058-1.982,2.378
			C137.942,155.088,139.924,157.07,142.696,157.07 M72.544,88.765c0.13-3.699-1.453-5.681-3.7-6.605
			c0.396-0.133,0.923-0.398,1.716-0.398c1.719,0,3.57,1.456,3.57,3.701C74.13,86.651,73.732,87.972,72.544,88.765 M157.23,181.775
			c-0.526-1.188-2.246-2.377-4.36-2.377c-1.189,0-1.981,0.264-2.51,0.528c0.133-1.058,1.191-2.246,3.303-2.246
			C156.172,177.681,157.493,179.662,157.23,181.775 M156.437,187.458c-0.792-0.925-2.111-1.718-3.829-1.718
			c-2.116,0-3.172,0.925-3.702,1.585c-0.263-1.585,1.058-3.567,3.568-3.567C155.118,183.758,156.437,185.607,156.437,187.458
			 M62.503,124.435c0.923-2.245,3.037-3.829,5.548-4.357c0.526-0.794,1.189-1.453,1.851-1.983l-4.491-18.761
			c-0.53-1.319-0.928-2.639-0.928-4.492c0-1.979,0.398-3.962,0.398-5.018c0-0.925-0.528-1.188-1.056-1.188
			c-0.398,0-0.663,0-0.793,0.131v0.53c0,3.037-1.853,5.416-4.89,5.416s-5.417-2.509-5.417-5.416c0-2.906,2.38-5.287,5.417-5.287
			c0.528,0,1.189,0,1.981,0.265c0.926-2.376,3.832-4.492,6.869-4.095c-2.111-2.643-5.283-4.229-8.85-4.229
			c-7.663,0-13.739,5.55-13.739,13.346c0,7.264,5.944,13.079,13.344,13.211L62.503,124.435z M82.981,152.841
			c1.981,0,4.095-1.058,6.076-3.037c3.567-3.436,8.59-8.588,11.628-10.571c2.642-1.716,4.36-2.377,6.076-2.377
			c1.058,0,1.853,0.265,2.644,1.058l4.493-3.437c-5.153-3.831-7.532-8.852-7.665-15.06c-7.133,3.83-12.286,9.116-18.233,14.135
			c-1.055,0.795-1.583,1.188-2.509,1.188c-0.925,0-1.718-0.923-3.304-2.509c-1.321-1.321-1.586-2.114-1.586-3.037
			c0-1.586,0.53-2.116,0.53-4.229c0-4.227-3.302-6.605-6.472-6.605c-2.644,0-4.625,1.453-5.286,3.304
			c-3.568,0.263-5.814,2.906-5.814,5.679c0,0.662,0.133,1.191,0.267,1.585c-1.321,0.795-2.646,2.379-2.646,4.494
			c0,2.246,1.189,4.36,3.173,5.021c-0.268-0.397-0.398-0.925-0.398-1.586c0-1.188,1.058-2.246,2.511-2.246
			c1.189,0,1.982,0.397,2.907,1.453c1.188,1.586,2.379,3.039,4.36,4.757c1.851,1.586,3.963,2.642,5.946,3.832
			c1.188,0.791,2.111,1.85,2.111,3.435c0,1.058-0.79,2.246-2.376,2.644C80.073,152.181,81.395,152.841,82.981,152.841
			 M75.45,127.078c-0.132-2.644-2.113-4.755-4.625-5.282c0.398-0.268,1.057-0.661,2.114-0.661c1.849,0,3.304,1.584,3.304,3.3
			C76.243,125.758,75.846,126.418,75.45,127.078 M90.115,196.572c-0.53-0.661-0.793-1.32-0.793-2.112
			c0-1.586,1.321-2.775,3.17-2.775c2.905,0,4.491,3.172,8.326,3.172c4.359,0,6.471-3.172,10.435-3.172
			c1.982,0,4.758,1.189,4.758,3.7c0,0.398-0.135,0.793-0.396,1.057c4.492,0,7.66-3.83,7.66-10.174
			c0-8.852-0.262-12.418-0.393-17.307c3.435-0.132,6.735-1.851,6.206-7.267c-0.923,0.792-1.979,1.189-3.167,1.189
			c-1.586,0-2.777-1.189-2.777-2.906c0-0.796,0-1.719,0.131-2.645l15.46-0.396c-1.455-0.792-2.511-2.377-2.511-4.227
			c0-1.32,0.528-2.245,1.586-2.775c-1.454-3.037-2.642-5.416-4.095-7.661c-0.794-1.188-1.718-2.379-3.568-2.379
			c-4.097-0.133-12.418,1.056-16.647,2.511c-3.17,1.056-6.21,3.435-6.21,8.85c0,5.023,1.717,13.874,1.585,27.747
			c0,1.982-0.528,2.643-1.716,2.905c-1.058,0.267-3.832,0.528-5.551,0.267c-0.923-0.135-1.717-0.793-2.246-2.775
			c-0.66-2.775-2.642-5.549-6.605-5.549c-3.568,0-6.737,2.642-6.209,6.605c-1.717,1.058-2.51,2.775-2.51,4.359
			s0.528,2.907,1.188,3.7c-0.395,0.925-0.525,1.452-0.525,2.377C84.7,194.197,87.605,196.572,90.115,196.572 M71.485,130.646
			c-0.792-1.584-2.509-2.51-4.493-2.51c-0.792,0-1.451,0.133-1.979,0.264c0.263-1.058,1.453-1.981,3.172-1.981
			C70.43,126.418,71.881,128.136,71.485,130.646 M94.607,181.775c-0.529-1.188-2.247-2.377-4.359-2.377
			c-1.191,0-1.984,0.264-2.512,0.528c0.131-1.058,1.191-2.246,3.305-2.246C93.55,177.681,94.871,179.662,94.607,181.775
			 M83.375,193.271c-0.394-0.793-0.525-1.586-0.525-2.379c0-0.791,0.131-1.452,0.395-2.114c-0.66-1.189-1.058-2.51-1.058-3.963
			c0-1.982,0.928-3.83,2.248-5.02l-8.191-35.541c-1.323-0.66-2.643-1.452-3.699-2.378c-1.851-1.586-2.907-2.774-4.625-4.756
			c-0.53-0.527-0.928-0.793-1.454-0.793c-0.794,0-1.32,0.528-1.055,1.586l1.716,8.19l3.567,2.511l9.907,42.542L83.375,193.271z
			 M93.816,187.458c-0.795-0.925-2.116-1.718-3.833-1.718c-2.116,0-3.172,0.925-3.702,1.585c-0.261-1.585,1.06-3.567,3.568-3.567
			C92.492,183.758,93.816,185.607,93.816,187.458 M28.547,197.365l8.06-6.209l9.909-42.542l3.567-2.511l7.93-34.085l-1.719-7.927
			c-1.982-0.397-3.702-0.925-5.153-1.718L28.547,197.365z M152.739,196.572c-0.528-0.661-0.793-1.32-0.793-2.112
			c0-1.586,1.321-2.775,3.172-2.775c2.905,0,4.491,3.172,8.323,3.172c4.358,0,6.474-3.172,10.436-3.172
			c1.984,0,4.758,1.189,4.758,3.7c0,0.398-0.133,0.793-0.395,1.057c4.492,0,7.662-3.83,7.662-10.174
			c0-8.453-0.791-17.834-1.719-27.216c2.378-0.528,4.625-2.907,4.625-5.945c0-1.056-0.394-2.246-1.057-3.303
			c-0.661,0.926-1.849,1.717-3.828,2.247c-2.777,0.79-6.21,1.188-8.724,1.188c-5.681,0-7.529-0.397-10.171-1.188
			c-0.135-3.567-2.379-6.476-4.491-8.457c3.302,1.321,4.754,1.981,10.039,1.981c16.911,0,27.349-11.361,27.349-24.31
			c0-9.382-5.945-13.739-11.363-16.911l-5.019,3.567c6.077,2.774,10.039,6.869,10.039,12.419c0,6.077-4.884,10.439-10.565,10.439
			c-6.081,0-10.835-4.362-10.835-10.308c0-4.49,2.112-7.794,6.076-10.966c3.965-3.169,10.042-7.001,13.346-10.568
			c1.719-1.852,3.17-4.759,3.037-7.005c2.247-1.056,3.965-3.3,3.965-6.208c0-3.83-3.697-6.736-7.662-6.736
			c-2.381,0-5.02,1.451-6.345,3.036c2.38,0.925,4.627,4.095,4.627,7.399c0,2.776-1.717,5.152-3.7,7.133
			c-3.039,3.041-7.002,5.287-11.363,8.854c-5.285,4.36-8.457,9.513-8.457,15.326c0,8.059,6.21,15.589,15.986,15.589
			c3.17,0,5.683-0.66,7.533-1.851c-3.172,3.699-9.116,5.55-15.327,5.55c-5.419,0-9.116-0.794-13.078-3.699
			c-3.57-2.641-6.344-8.852-6.21-13.476c-2.907,1.718-6.344,3.302-9.249,4.624c-4.098,1.981-5.417,4.095-5.417,7.662
			c0,4.757,3.303,8.456,4.754,11.23c1.982,3.566,2.644,6.738,2.907,10.042c0.794,8.059,5.419,11.758,13.609,11.758
			c3.7,0,8.586-0.265,10.569-0.529c0.793,3.701,1.719,8.06,1.719,11.363c0,1.982-0.529,2.643-1.719,2.905
			c-1.055,0.267-3.832,0.528-5.548,0.267c-0.923-0.135-1.717-0.793-2.247-2.775c-0.658-2.775-2.642-5.549-6.604-5.549
			c-3.57,0-6.739,2.642-6.21,6.605c-1.718,1.058-2.511,2.775-2.511,4.359s0.527,2.907,1.189,3.7c-0.396,0.925-0.53,1.452-0.53,2.377
			C147.321,194.197,150.229,196.572,152.739,196.572"/>
		<path fill="#0065BD" d="M538.152,209.268h18.827v-6.223h-10.957v-4.416h10.6v-6.063h-10.6v-4.377h10.957v-6.225h-18.827V209.268z
			 M518.557,209.909c6.425,0,11.766-3.091,11.766-10.72v-17.226h-7.87v16.502c0,3.092-1.686,4.455-3.896,4.455
			c-2.207,0-3.89-1.363-3.89-4.455v-16.502h-7.87v17.226C506.797,206.818,512.135,209.909,518.557,209.909 M490.295,209.909
			c4.858,0,8.23-1.484,9.876-2.329v-12.086h-7.669v7.388c-0.562,0.122-1.163,0.2-1.765,0.2c-3.053,0-6.426-2.327-6.426-7.469
			c0-5.538,2.972-8.268,8.067-8.268c2.815,0,5.222,0.964,6.708,1.766v-6.424c-1.608-0.724-4.257-1.727-7.867-1.727
			c-9.277,0-15.502,5.742-15.502,14.652C475.718,204.53,482.663,209.909,490.295,209.909 M455.884,198.023l2.689-10.076h0.363
			l2.692,10.076H455.884z M464.635,209.268h8.074l-8.193-27.304h-11.521l-8.148,27.304h8.067l1.488-5.662h8.71L464.635,209.268z
			 M427.62,194.573v-6.789h3.171c2.129,0,3.374,1.648,3.374,3.376c0,1.727-1.245,3.413-3.374,3.413H427.62z M419.75,209.268h7.87
			v-9.599h2.006l4.737,9.599h8.873l-5.016-8.433c-0.522-0.884-1.165-1.686-1.526-1.928l0.04-0.159
			c2.407-1.085,5.82-3.135,5.82-7.789c0-4.9-3.895-8.995-10.275-8.995H419.75V209.268z M399.557,194.573v-6.745h3.092
			c1.724,0,3.289,1.443,3.289,3.369c0,1.97-1.565,3.376-3.289,3.376H399.557z M391.687,209.268h7.87v-8.834h4.015
			c6.383,0,10.357-4.054,10.357-9.073c0-5.018-3.975-9.396-10.357-9.396h-11.885V209.268z M347.724,209.268h7.87v-16.381h0.117
			l8.274,16.381h9.594v-27.304h-7.868v16.301h-0.121l-8.189-16.301h-9.677V209.268z M331.825,209.268h7.868v-27.304h-7.868V209.268z
			 M302.154,209.909c6.423,0,11.763-3.091,11.763-10.72v-17.226h-7.87v16.502c0,3.092-1.683,4.455-3.893,4.455
			c-2.209,0-3.894-1.363-3.894-4.455v-16.502h-7.87v17.226C290.391,206.818,295.729,209.909,302.154,209.909 M270.8,209.268h7.867
			v-20.919h6.786v-6.385h-21.479v6.385h6.827V209.268z M252.891,209.708c3.251,0,5.983-0.843,7.628-1.686v-6.866
			c-1.565,0.844-3.372,1.565-6.225,1.565c-2.851,0-6.984-2.167-6.984-7.108c0-4.937,3.775-7.265,7.43-7.265
			c2.487,0,4.214,0.562,5.739,1.324v-6.784c-1.605-0.721-3.612-1.285-6.827-1.285c-8.069,0-14.933,5.3-14.933,14.01
			C238.719,204.327,244.864,209.708,252.891,209.708"/>
		<path fill="#0065BD" d="M523.656,169.025c4.854,0,8.23-1.486,9.876-2.328v-12.088h-7.67v7.39c-0.561,0.12-1.166,0.198-1.768,0.198
			c-3.053,0-6.422-2.327-6.422-7.465c0-5.542,2.968-8.271,8.07-8.271c2.809,0,5.219,0.965,6.704,1.765v-6.422
			c-1.604-0.725-4.256-1.729-7.866-1.729c-9.277,0-15.502,5.741-15.502,14.657C509.079,163.645,516.024,169.025,523.656,169.025
			 M476.799,168.383h7.87v-16.381h0.122l8.271,16.381h9.594v-27.304h-7.87v16.303h-0.119l-8.189-16.303h-9.679V168.383z
			 M460.902,168.383h7.867v-27.304h-7.867V168.383z M439.585,153.687v-6.785h3.171c2.127,0,3.371,1.646,3.371,3.374
			c0,1.727-1.244,3.411-3.371,3.411H439.585z M431.715,168.383h7.87v-9.596h2.006l4.737,9.596h8.873l-5.019-8.434
			c-0.523-0.882-1.162-1.685-1.522-1.927l0.037-0.159c2.407-1.086,5.82-3.131,5.82-7.788c0-4.899-3.893-8.996-10.277-8.996h-12.525
			V168.383z M405.697,168.383h18.829v-6.225h-10.96v-4.416h10.6v-6.062h-10.6v-4.377h10.96v-6.224h-18.829V168.383z
			 M379.679,168.383h18.834v-6.225h-10.964v-4.416h10.602v-6.062h-10.602v-4.377h10.964v-6.224h-18.834V168.383z M345.794,168.383
			h7.87v-16.381h0.121l8.271,16.381h9.594v-27.304h-7.867v16.303h-0.122l-8.188-16.303h-9.679V168.383z M329.896,168.383h7.869
			v-27.304h-7.869V168.383z M313.193,169.025c4.859,0,8.233-1.486,9.879-2.328v-12.088h-7.671v7.39
			c-0.561,0.12-1.161,0.198-1.765,0.198c-3.051,0-6.425-2.327-6.425-7.465c0-5.542,2.973-8.271,8.07-8.271
			c2.812,0,5.219,0.965,6.703,1.765v-6.422c-1.605-0.725-4.254-1.729-7.867-1.729c-9.276,0-15.497,5.741-15.497,14.657
			C298.621,163.645,305.566,169.025,313.193,169.025 M266.339,168.383h7.87v-16.381h0.121l8.27,16.381h9.595v-27.304h-7.868v16.303
			h-0.119l-8.191-16.303h-9.677V168.383z M240.324,168.383h18.831v-6.225h-10.96v-4.416h10.602v-6.062h-10.602v-4.377h10.96v-6.224
			h-18.831V168.383z"/>
		<path fill="#0065BD" d="M563.163,127.499h17.627v-6.465h-9.757v-20.838h-7.87V127.499z M542.126,116.255l2.689-10.077h0.36
			l2.692,10.077H542.126z M550.88,127.499h8.067l-8.189-27.303h-11.524l-8.149,27.303h8.067l1.489-5.663h8.713L550.88,127.499z
			 M520.045,127.939c3.251,0,5.98-0.842,7.626-1.686v-6.866c-1.567,0.843-3.369,1.566-6.222,1.566c-2.852,0-6.986-2.168-6.986-7.107
			c0-4.938,3.774-7.266,7.429-7.266c2.488,0,4.212,0.561,5.738,1.325v-6.787c-1.604-0.721-3.61-1.284-6.823-1.284
			c-8.07,0-14.938,5.3-14.938,14.012S512.016,127.939,520.045,127.939 M491.577,127.499h7.87v-27.303h-7.87V127.499z
			 M457.692,127.499h7.87v-16.381h0.119l8.271,16.381h9.594v-27.303h-7.867v16.3h-0.119l-8.192-16.3h-9.676V127.499z
			 M436.654,116.255l2.691-10.077h0.36l2.688,10.077H436.654z M445.406,127.499h8.07l-8.189-27.303h-11.523l-8.151,27.303h8.071
			l1.482-5.663h8.717L445.406,127.499z M397.59,100.196v27.303h7.866v-10.681h8.071v10.681h7.87v-27.303h-7.87v10.441h-8.071
			v-10.441H397.59z M384.017,127.939c3.255,0,5.983-0.842,7.63-1.686v-6.866c-1.565,0.843-3.374,1.566-6.223,1.566
			c-2.851,0-6.986-2.168-6.986-7.107c0-4.938,3.773-7.266,7.429-7.266c2.488,0,4.215,0.561,5.738,1.325v-6.787
			c-1.604-0.721-3.612-1.284-6.821-1.284c-8.074,0-14.938,5.3-14.938,14.012S375.988,127.939,384.017,127.939 M345.434,127.499
			h18.832v-6.224h-10.963v-4.416h10.602v-6.062h-10.602v-4.377h10.963v-6.224h-18.832V127.499z M307.614,127.499h7.507v-16.663
			h0.122l7.066,11.604h0.561l6.744-11.644h0.122v16.702h7.669v-27.303h-9.115l-5.62,9.678h-0.119l-5.623-9.678h-9.313V127.499z
			 M272.443,100.196v27.303h7.87v-10.56h10.679v-6.063h-10.679v-4.457h10.799v-6.224H272.443z M252.409,121.154
			c-3.495,0-5.259-2.812-5.259-7.307c0-4.498,1.765-7.307,5.259-7.307c3.534,0,5.178,2.809,5.178,7.307
			C257.587,118.343,255.943,121.154,252.409,121.154 M252.409,128.141c8.151,0,13.609-5.179,13.609-14.293
			c0-9.113-5.458-14.294-13.609-14.294c-8.111,0-13.69,5.182-13.69,14.294C238.719,122.962,244.298,128.141,252.409,128.141"/>
		<path fill="#0065BD" d="M399.638,86.616h7.87v-9.999l9.433-17.305h-8.712l-4.457,9.758h-0.159l-4.296-9.758h-8.915l9.236,17.305
			V86.616z M374.423,86.616h7.87v-20.92h6.785v-6.384h-21.481v6.384h6.826V86.616z M350.492,86.616h17.626V80.15h-9.756V59.312
			h-7.87V86.616z M330.902,87.257c6.422,0,11.764-3.092,11.764-10.72V59.312h-7.87v16.502c0,3.092-1.688,4.455-3.894,4.455
			c-2.208,0-3.895-1.363-3.895-4.455V59.312h-7.87v17.225C319.138,84.165,324.479,87.257,330.902,87.257 M305.767,87.056
			c3.252,0,5.983-0.844,7.631-1.685v-6.867c-1.564,0.843-3.373,1.566-6.225,1.566c-2.85,0-6.986-2.168-6.986-7.108
			c0-4.937,3.776-7.267,7.427-7.267c2.49,0,4.22,0.563,5.743,1.325v-6.785c-1.606-0.721-3.612-1.284-6.826-1.284
			c-8.069,0-14.937,5.301-14.937,14.011C291.594,81.676,297.738,87.056,305.767,87.056 M271.762,75.372l2.688-10.078h0.362
			l2.692,10.078H271.762z M280.513,86.616h8.072l-8.191-27.304h-11.523l-8.151,27.304h8.069l1.489-5.662h8.711L280.513,86.616z
			 M240.324,59.312v27.304h7.87v-10.56h10.68v-6.062h-10.68v-4.457h10.801v-6.225H240.324z"/>
	</g>
</g>
</svg>
