<?xml version="1.0" encoding="utf-8"?>
<!-- Generator: Adobe Illustrator 15.0.0, SVG Export Plug-In . SVG Version: 6.00 Build 0)  -->
<!DOCTYPE svg PUBLIC "-//W3C//DTD SVG 1.1//EN" "http://www.w3.org/Graphics/SVG/1.1/DTD/svg11.dtd">
<svg version="1.1" id="Layer_1" xmlns="http://www.w3.org/2000/svg" xmlns:xlink="http://www.w3.org/1999/xlink" x="0px" y="0px"
	 width="690px" height="226.77px" viewBox="0 0 690 226.77" enable-background="new 0 0 690 226.77" xml:space="preserve">
<rect x="19.994" y="18.427" fill="#0065BD" width="191.213" height="191.212"/>
<g>
	<path fill="#FFFFFF" d="M174.973,101.348l4.899-3.576c-1.853-1.985-3.839-4.368-3.839-8.208c0-2.912,1.987-6.09,4.501-7.413
		c-1.323-1.589-3.443-3.043-6.486-3.043c-3.972,0-7.281,2.912-7.281,6.75c0,2.647,1.72,4.899,3.707,5.957
		C170.474,95.521,172.195,98.83,174.973,101.348 M148.764,75.269l4.103-7.282h-6.09c0,1.323-1.191,2.779-2.648,2.779
		c-1.587,0-2.646-1.058-2.646-2.779h-5.429c0,1.589-1.19,2.779-2.646,2.779c-1.457,0-2.649-1.19-2.649-2.779h-6.09l3.576,7.015
		c2.78-0.264,5.426-0.395,8.075-0.395C141.216,74.607,145.454,74.871,148.764,75.269 M137.644,139.868
		c-0.662-1.191-1.323-2.649-1.323-5.294c0-3.443,1.985-6.355,6.222-8.209c2.78-1.324,4.897-2.515,8.604-4.367
		c8.736-4.501,11.779-12.974,11.779-21.71c0-4.368-1.19-7.812-2.646-10.724c0.396,2.383,0.793,4.37,0.793,6.751
		c0,9.135-3.176,15.886-11.516,19.989c-5.294,2.646-7.943,3.707-11.121,5.296c-4.499,2.381-7.016,5.428-7.016,9.135
		C131.421,135.367,133.803,138.81,137.644,139.868 M132.481,138.148c-1.455-1.458-3.044-4.105-3.044-7.546
		c0-4.368,2.911-8.075,8.074-10.724c4.502-2.118,7.148-3.178,11.119-5.03c8.341-4.103,10.855-11.12,10.855-18.664
		c0-7.282-2.382-10.989-4.367-13.372c1.455,2.781,1.853,6.09,1.853,8.871c0,8.075-2.382,15.09-11.782,18.796
		c-4.766,1.985-7.81,2.647-11.914,4.499c-6.486,3.047-9,6.621-9,11.914C124.274,131.926,127.45,136.69,132.481,138.148
		 M127.45,137.088c-2.25-1.852-5.163-4.896-5.163-10.325c0-5.691,2.382-9.927,9.795-13.104c4.767-1.985,7.281-2.912,11.782-4.634
		c9.532-3.574,11.517-10.591,11.517-17.475c0-6.617-2.383-10.458-5.295-12.972c1.721,2.118,2.78,5.693,2.78,9.398
		c0,8.737-3.31,13.636-12.708,16.946c-3.839,1.19-7.943,2.381-12.18,3.97c-7.678,2.912-11.648,7.147-11.648,14.298
		C116.332,130.603,122.023,136.163,127.45,137.088 M122.156,136.163c-5.294-2.648-7.812-8.34-7.812-13.372
		c0-7.28,4.501-12.443,12.046-15.225c4.636-1.72,8.341-2.777,12.974-4.366c9.002-3.178,11.914-7.413,11.914-15.488
		c0-4.634-1.721-8.604-4.501-10.854c0.927,1.058,1.191,2.381,1.191,3.574c0,2.25-1.191,3.309-2.912,3.309
		c-1.06,0-2.119-0.662-2.25-1.72c0.529,0.395,0.927,0.529,1.457,0.529c1.455,0,2.25-1.06,2.25-2.516c0-2.25-2.119-3.443-4.237-3.707
		c-1.854-0.266-3.839-0.266-6.088-0.266c-2.25,0-4.369,0.133-7.149,0.266c1.72,2.383,7.413,1.722,9.133,2.912
		c-1.457-0.131-2.912-0.131-4.369,0.264c0,0.929-0.395,1.987-1.322,1.987c-1.722,0-2.515-1.853-3.706-5.163l-6.752,0.531
		c-1.059,0.131-1.456,0.529-1.324,1.323l0.664,6.619c0,0.264,0.264,0.396,0.529,0.396c0.265,0,0.528-0.133,0.662-0.531
		c0.265-0.529,1.06-1.72,3.044-1.72c2.912,0,5.163,2.648,5.294,5.691c-1.059-1.454-3.441-2.779-7.413-2.779
		c-3.044,0-5.558,0.927-9.529,0.927c-4.238,0-6.62-1.589-6.62-3.574c0-0.927,0.131-1.458,0.661-2.12
		c-1.721,0.794-3.044,2.252-3.044,4.634c0,2.912,2.119,5.959,8.339,5.959c5.691,0,8.34-3.576,13.503-3.576
		c2.382,0,3.574,1.19,3.574,2.516c0,1.19-1.06,2.25-2.912,2.25c-2.25,0-3.837-1.191-4.633-2.383
		c-0.133-0.266-0.265-0.396-0.53-0.396c-0.396,0-0.53,0.264-0.53,0.529l0.134,6.353c0,0.794,0.396,1.193,1.323,1.06
		c3.971-0.398,8.075-0.927,11.915-1.191c7.147-0.662,12.046-5.43,12.046-10.723c0-0.794,0-1.458-0.132-2.25
		c0.662,1.06,0.926,2.118,0.926,3.441c0,4.899-2.646,8.606-11.119,10.856c-4.502,1.19-7.811,1.719-11.65,2.646
		c-10.194,2.383-16.812,10.193-16.812,18.931C108.388,127.823,114.081,135.104,122.156,136.163 M77.809,88.374
		c0.529-1.191,0.662-2.25,0.662-3.045c0-1.722-0.794-3.309-1.588-3.97c1.985,0,3.706,1.454,3.706,3.441
		C80.588,86.652,79.397,87.845,77.809,88.374 M102.167,119.879l4.235-2.251c1.457-8.867,6.751-15.089,16.018-17.34
		c-4.897,0.264-9.133,0.396-15.089,0.662c-6.354,0.264-16.812,1.06-24.093,1.589c-1.457,0.133-2.382-0.398-2.781-1.589
		c-0.397-1.323-1.19-3.839-1.323-5.295c-0.134-1.192,0.133-1.987,1.192-2.779c2.117-1.458,4.235-3.178,4.235-6.751
		c0-3.839-3.311-6.354-6.354-6.354c-1.059,0-1.852,0.131-2.514,0.395c-0.795-0.527-1.589-0.925-3.179-0.925
		c-2.25,0-4.234,1.456-4.765,2.646c-3.839-0.263-6.883,2.516-6.62,6.223c0.53-0.531,1.589-1.058,2.78-1.058
		c1.456,0,2.781,1.058,2.781,2.646c0,1.456-0.267,3.311-0.267,5.293c0,6.092,4.899,9.27,4.899,12.445
		c0,1.589-1.192,2.912-2.781,2.912c0.927,3.311,3.971,5.03,8.075,5.03c2.648,0,5.031-0.264,8.87-0.264
		C96.474,115.114,101.239,116.305,102.167,119.879 M142.938,157.343h1.325c-0.134-4.237-1.191-7.149-2.912-10.192
		c-0.928-1.722-2.119-3.574-3.046-4.769c-0.53-0.793-1.191-1.056-1.985-1.056c-0.53,0-0.927,0.394-0.53,1.056
		c1.06,1.722,2.515,4.37,4.369,8.473c-1.589,0.266-1.987,1.06-1.987,2.384C138.172,155.355,140.16,157.343,142.938,157.343
		 M72.646,88.903c0.132-3.707-1.455-5.691-3.706-6.619c0.395-0.133,0.925-0.398,1.72-0.398c1.721,0,3.574,1.458,3.574,3.708
		C74.235,86.785,73.836,88.108,72.646,88.903 M157.5,182.096c-0.529-1.19-2.25-2.381-4.368-2.381c-1.192,0-1.985,0.264-2.515,0.529
		c0.132-1.061,1.191-2.251,3.31-2.251C156.441,177.993,157.764,179.979,157.5,182.096 M156.705,187.79
		c-0.793-0.928-2.116-1.722-3.837-1.722c-2.119,0-3.178,0.927-3.708,1.589c-0.264-1.589,1.06-3.574,3.576-3.574
		C155.382,184.083,156.705,185.936,156.705,187.79 M62.586,124.644c0.925-2.251,3.044-3.838,5.559-4.366
		c0.529-0.797,1.19-1.456,1.854-1.987l-4.501-18.798c-0.53-1.321-0.927-2.645-0.927-4.501c0-1.983,0.397-3.97,0.397-5.028
		c0-0.927-0.529-1.191-1.059-1.191c-0.398,0-0.662,0-0.793,0.131v0.531c0,3.043-1.855,5.426-4.899,5.426s-5.428-2.514-5.428-5.426
		s2.384-5.297,5.428-5.297c0.53,0,1.191,0,1.985,0.266c0.927-2.381,3.839-4.501,6.883-4.103c-2.117-2.648-5.294-4.237-8.868-4.237
		c-7.679,0-13.767,5.561-13.767,13.372c0,7.279,5.956,13.105,13.37,13.238L62.586,124.644z M83.105,153.105
		c1.985,0,4.103-1.061,6.088-3.043c3.574-3.443,8.604-8.606,11.65-10.593c2.646-1.72,4.367-2.382,6.088-2.382
		c1.059,0,1.855,0.266,2.649,1.061l4.501-3.443c-5.163-3.839-7.545-8.869-7.68-15.09c-7.147,3.837-12.31,9.135-18.268,14.163
		c-1.058,0.796-1.588,1.19-2.515,1.19c-0.927,0-1.721-0.926-3.31-2.515c-1.323-1.323-1.589-2.117-1.589-3.042
		c0-1.589,0.529-2.12,0.529-4.238c0-4.235-3.307-6.618-6.485-6.618c-2.648,0-4.634,1.456-5.295,3.311
		c-3.575,0.263-5.826,2.912-5.826,5.689c0,0.663,0.135,1.194,0.266,1.589c-1.323,0.796-2.648,2.383-2.648,4.503
		c0,2.25,1.191,4.368,3.179,5.029c-0.267-0.397-0.398-0.927-0.398-1.589c0-1.19,1.059-2.25,2.516-2.25
		c1.191,0,1.985,0.398,2.912,1.456c1.191,1.589,2.383,3.045,4.367,4.767c1.855,1.589,3.972,2.646,5.958,3.839
		c1.192,0.793,2.117,1.853,2.117,3.441c0,1.06-0.793,2.25-2.382,2.648C80.191,152.443,81.516,153.105,83.105,153.105
		 M75.558,127.292c-0.133-2.648-2.117-4.765-4.634-5.294c0.398-0.267,1.06-0.661,2.119-0.661c1.854,0,3.311,1.587,3.311,3.307
		C76.354,125.969,75.955,126.63,75.558,127.292 M90.251,196.922c-0.529-0.661-0.793-1.323-0.793-2.117
		c0-1.587,1.324-2.779,3.177-2.779c2.912,0,4.501,3.178,8.34,3.178c4.369,0,6.486-3.178,10.457-3.178
		c1.987,0,4.768,1.192,4.768,3.706c0,0.398-0.135,0.795-0.398,1.061c4.501,0,7.677-3.84,7.677-10.195
		c0-8.869-0.264-12.442-0.395-17.34c3.442-0.133,6.75-1.854,6.219-7.28c-0.925,0.792-1.984,1.19-3.175,1.19
		c-1.589,0-2.781-1.19-2.781-2.912c0-0.797,0-1.722,0.132-2.648l15.488-0.398c-1.455-0.792-2.514-2.381-2.514-4.233
		c0-1.323,0.53-2.251,1.589-2.781c-1.457-3.043-2.648-5.427-4.103-7.677c-0.795-1.19-1.722-2.384-3.576-2.384
		c-4.104-0.133-12.442,1.059-16.68,2.517c-3.176,1.058-6.222,3.44-6.222,8.867c0,5.031,1.721,13.901,1.589,27.8
		c0,1.987-0.53,2.648-1.72,2.912c-1.06,0.266-3.84,0.529-5.561,0.266c-0.925-0.135-1.721-0.794-2.25-2.779
		c-0.662-2.781-2.647-5.561-6.618-5.561c-3.576,0-6.751,2.648-6.222,6.618c-1.722,1.061-2.517,2.781-2.517,4.368
		c0,1.589,0.53,2.912,1.192,3.707c-0.396,0.927-0.528,1.456-0.528,2.383C84.826,194.541,87.738,196.922,90.251,196.922
		 M71.586,130.866c-0.793-1.589-2.514-2.515-4.501-2.515c-0.793,0-1.455,0.133-1.985,0.264c0.265-1.06,1.457-1.985,3.179-1.985
		C70.529,126.63,71.984,128.352,71.586,130.866 M94.753,182.096c-0.53-1.19-2.25-2.381-4.369-2.381
		c-1.191,0-1.985,0.264-2.515,0.529c0.132-1.061,1.192-2.251,3.311-2.251C93.694,177.993,95.017,179.979,94.753,182.096
		 M83.5,193.614c-0.395-0.795-0.529-1.589-0.529-2.384c0-0.794,0.134-1.456,0.397-2.117c-0.662-1.193-1.059-2.517-1.059-3.973
		c0-1.984,0.927-3.837,2.25-5.029l-8.207-35.61c-1.325-0.661-2.649-1.456-3.708-2.383c-1.854-1.589-2.912-2.779-4.634-4.765
		c-0.529-0.528-0.927-0.794-1.455-0.794c-0.795,0-1.324,0.528-1.059,1.589l1.721,8.205l3.574,2.517l9.928,42.624L83.5,193.614z
		 M93.96,187.79c-0.796-0.928-2.119-1.722-3.84-1.722c-2.119,0-3.178,0.927-3.708,1.589c-0.263-1.589,1.06-3.574,3.576-3.574
		C92.635,184.083,93.96,185.936,93.96,187.79 M28.564,197.717l8.075-6.223l9.929-42.624l3.574-2.517l7.943-34.151l-1.72-7.942
		c-1.987-0.398-3.708-0.927-5.163-1.722L28.564,197.717z M152.999,196.922c-0.529-0.661-0.793-1.323-0.793-2.117
		c0-1.587,1.323-2.779,3.176-2.779c2.913,0,4.501,3.178,8.34,3.178c4.367,0,6.486-3.178,10.458-3.178
		c1.985,0,4.765,1.192,4.765,3.706c0,0.398-0.133,0.795-0.396,1.061c4.501,0,7.676-3.84,7.676-10.195
		c0-8.471-0.792-17.869-1.719-27.269c2.381-0.529,4.632-2.912,4.632-5.957c0-1.059-0.396-2.251-1.06-3.309
		c-0.662,0.927-1.853,1.72-3.837,2.25c-2.779,0.793-6.221,1.19-8.738,1.19c-5.692,0-7.544-0.397-10.191-1.19
		c-0.135-3.573-2.385-6.487-4.501-8.473c3.309,1.323,4.765,1.985,10.06,1.985c16.944,0,27.402-11.384,27.402-24.357
		c0-9.4-5.957-13.767-11.385-16.944l-5.028,3.574c6.088,2.78,10.06,6.882,10.06,12.443c0,6.09-4.897,10.46-10.591,10.46
		c-6.09,0-10.854-4.37-10.854-10.327c0-4.499,2.116-7.809,6.088-10.987c3.972-3.175,10.062-7.015,13.372-10.589
		c1.72-1.856,3.176-4.768,3.043-7.019c2.25-1.058,3.972-3.307,3.972-6.221c0-3.837-3.707-6.75-7.677-6.75
		c-2.385,0-5.032,1.454-6.357,3.043c2.385,0.927,4.636,4.103,4.636,7.413c0,2.781-1.722,5.163-3.707,7.148
		c-3.045,3.047-7.017,5.297-11.385,8.871c-5.295,4.368-8.473,9.531-8.473,15.355c0,8.075,6.223,15.621,16.017,15.621
		c3.179,0,5.693-0.662,7.548-1.854c-3.178,3.707-9.135,5.561-15.355,5.561c-5.428,0-9.135-0.796-13.105-3.706
		c-3.576-2.646-6.354-8.869-6.223-13.503c-2.912,1.722-6.354,3.309-9.266,4.634c-4.105,1.984-5.429,4.103-5.429,7.677
		c0,4.766,3.311,8.473,4.766,11.252c1.986,3.574,2.648,6.752,2.912,10.06c0.795,8.077,5.428,11.783,13.635,11.783
		c3.708,0,8.604-0.265,10.591-0.53c0.794,3.708,1.722,8.074,1.722,11.385c0,1.987-0.529,2.648-1.722,2.912
		c-1.058,0.266-3.839,0.529-5.561,0.266c-0.925-0.135-1.719-0.794-2.25-2.779c-0.661-2.781-2.646-5.561-6.617-5.561
		c-3.576,0-6.751,2.648-6.222,6.618c-1.721,1.061-2.517,2.781-2.517,4.368c0,1.589,0.53,2.912,1.191,3.707
		c-0.396,0.927-0.53,1.456-0.53,2.383C147.571,194.541,150.485,196.922,152.999,196.922"/>
	<path fill="#0065BD" d="M510.646,209.64h18.867v-6.233h-10.981v-4.427h10.62v-6.072h-10.62v-4.386h10.981v-6.236h-18.867V209.64z
		 M483.132,209.64h21.481v-6.394h-11.828l11.628-15.209v-5.752h-21.041v6.396h11.184l-11.424,14.926V209.64z M464.062,198.377
		l2.695-10.098h0.362l2.694,10.098H464.062z M472.832,209.64h8.086l-8.205-27.354h-11.548l-8.166,27.354h8.086l1.489-5.671h8.729
		L472.832,209.64z M435.742,194.918v-6.799h3.178c2.132,0,3.379,1.649,3.379,3.379s-1.247,3.42-3.379,3.42H435.742z M427.857,209.64
		h7.885v-9.614h2.011l4.747,9.614h8.891l-5.03-8.446c-0.521-0.887-1.167-1.688-1.528-1.931l0.041-0.162
		c2.415-1.085,5.834-3.139,5.834-7.804c0-4.908-3.901-9.012-10.3-9.012h-12.55V209.64z M407.622,194.918v-6.758h3.096
		c1.731,0,3.301,1.446,3.301,3.377c0,1.974-1.569,3.381-3.301,3.381H407.622z M399.738,209.64h7.884v-8.849h4.022
		c6.396,0,10.379-4.063,10.379-9.092s-3.982-9.414-10.379-9.414h-11.906V209.64z M365.624,209.64h10.78l8.207-27.354h-8.85
		l-4.667,20.478h-0.159l-4.667-20.478h-8.852L365.624,209.64z M331.631,209.64h7.883v-20.958h6.801v-6.396h-21.521v6.396h6.838
		V209.64z M308.058,210.284c6.436,0,11.786-3.097,11.786-10.74v-17.259h-7.884v16.536c0,3.096-1.69,4.464-3.902,4.464
		c-2.213,0-3.901-1.368-3.901-4.464v-16.536h-7.886v17.259C296.271,207.188,301.621,210.284,308.058,210.284 M272.456,209.64h10.782
		l8.206-27.354h-8.85l-4.667,20.478h-0.162l-4.665-20.478h-8.85L272.456,209.64z M253.348,210.085c3.26,0,5.994-0.847,7.646-1.689
		v-6.881c-1.569,0.846-3.381,1.569-6.236,1.569c-2.857,0-7-2.172-7-7.122c0-4.946,3.781-7.28,7.44-7.28
		c2.495,0,4.226,0.564,5.752,1.329v-6.8c-1.608-0.725-3.619-1.287-6.837-1.287c-8.086,0-14.967,5.31-14.967,14.038
		C239.146,204.692,245.302,210.085,253.348,210.085 M249.124,180.636h8.287l5.512-6.195h-6.839l-2.736,2.979h-0.16l-2.736-2.979
		h-6.837L249.124,180.636z"/>
	<path fill="#0065BD" d="M648.145,157.413l2.693-10.099h0.363l2.697,10.099H648.145z M656.916,168.677H665l-8.205-27.356h-11.547
		l-8.167,27.356h8.085l1.491-5.672h8.729L656.916,168.677z M659.207,133.478h-9.17l-3.181,6.195h6.679L659.207,133.478z
		 M637.405,168.677l-9.252-14.121l9.131-13.235h-9.615l-7.644,12.593V141.32h-7.885v27.356h7.885v-13.155l7.925,13.155H637.405z
		 M598.544,169.118c3.256,0,5.992-0.843,7.644-1.688v-6.88c-1.569,0.845-3.377,1.569-6.234,1.569s-7.003-2.173-7.003-7.119
		c0-4.949,3.782-7.282,7.444-7.282c2.494,0,4.224,0.562,5.754,1.327v-6.798c-1.612-0.725-3.623-1.288-6.84-1.288
		c-8.088,0-14.967,5.311-14.967,14.041C584.342,163.728,590.498,169.118,598.544,169.118 M570.023,168.677h7.886V141.32h-7.886
		V168.677z M536.069,168.677h7.886v-16.413h0.119l8.289,16.413h9.614V141.32h-7.886v16.335h-0.121l-8.204-16.335h-9.697V168.677z
		 M504.169,141.32v27.356h7.885v-10.702h8.087v10.702h7.886V141.32h-7.886v10.462h-8.087V141.32H504.169z M490.572,169.118
		c3.26,0,5.994-0.843,7.646-1.688v-6.88c-1.569,0.845-3.381,1.569-6.236,1.569c-2.857,0-6.999-2.173-6.999-7.119
		c0-4.949,3.78-7.282,7.44-7.282c2.494,0,4.226,0.562,5.752,1.327v-6.798c-1.608-0.725-3.619-1.288-6.838-1.288
		c-8.086,0-14.967,5.311-14.967,14.041C476.37,163.728,482.526,169.118,490.572,169.118 M451.914,168.677h18.866v-6.236h-10.983
		v-4.425h10.622v-6.074h-10.622v-4.386h10.983v-6.235h-18.866V168.677z M432.081,168.677h7.884v-20.959h6.8v-6.397h-21.523v6.397
		h6.84V168.677z M408.869,162.322c-3.499,0-5.27-2.817-5.27-7.322c0-4.507,1.771-7.321,5.27-7.321c3.539,0,5.19,2.814,5.19,7.321
		C414.06,159.505,412.408,162.322,408.869,162.322 M408.869,169.321c8.167,0,13.636-5.19,13.636-14.321
		c0-9.132-5.469-14.322-13.636-14.322c-8.127,0-13.718,5.19-13.718,14.322C395.151,164.131,400.742,169.321,408.869,169.321
		 M375.399,153.952v-6.798h3.177c2.134,0,3.381,1.649,3.381,3.38c0,1.729-1.247,3.418-3.381,3.418H375.399z M367.514,168.677h7.886
		v-9.614h2.012l4.747,9.614h8.891l-5.029-8.449c-0.523-0.884-1.168-1.688-1.529-1.931l0.039-0.16
		c2.415-1.087,5.837-3.137,5.837-7.803c0-4.909-3.904-9.014-10.301-9.014h-12.552V168.677z M347.683,168.677h7.886v-20.959h6.796
		v-6.397h-21.521v6.397h6.839V168.677z M339.838,168.677l-9.254-14.121l9.131-13.235h-9.612l-7.644,12.593V141.32h-7.886v27.356
		h7.886v-13.155l7.925,13.155H339.838z M288.506,168.677h18.867v-6.236h-10.981v-4.425h10.62v-6.074h-10.62v-4.386h10.981v-6.235
		h-18.867V168.677z M266.823,168.677h17.66v-6.476h-9.775V141.32h-7.885V168.677z M240.756,168.677h18.869v-6.236h-10.983v-4.425
		h10.62v-6.074h-10.62v-4.386h10.983v-6.235h-18.869V168.677z"/>
	<path fill="#0065BD" d="M403.561,116.449l2.693-10.099h0.365l2.693,10.099H403.561z M412.33,127.714h8.085l-8.206-27.355h-11.545
		l-8.167,27.355h8.085l1.489-5.673h8.73L412.33,127.714z M377.692,127.714h7.886v-20.961h6.798v-6.394h-21.522v6.394h6.839V127.714z
		 M353.716,127.714h17.662v-6.479h-9.776v-20.877h-7.886V127.714z M334.086,128.357c6.438,0,11.787-3.098,11.787-10.741v-17.258
		h-7.883v16.532c0,3.098-1.692,4.466-3.904,4.466c-2.213,0-3.901-1.368-3.901-4.466v-16.532h-7.886v17.258
		C322.299,125.26,327.648,128.357,334.086,128.357 M318.598,127.714l-9.251-14.122l9.13-13.233h-9.612l-7.646,12.591v-12.591h-7.886
		v27.355h7.886v-13.156l7.925,13.156H318.598z M272.255,116.449l2.695-10.099h0.361l2.695,10.099H272.255z M281.025,127.714h8.086
		l-8.208-27.355h-11.545l-8.167,27.355h8.087l1.487-5.673h8.73L281.025,127.714z M240.756,100.358v27.355h7.885v-10.581h10.7v-6.074
		h-10.7v-4.466h10.821v-6.234H240.756z"/>
</g>
</svg>
