<?xml version="1.0" encoding="UTF-8" standalone="no"?>
<!-- Generator: Adobe Illustrator 15.0.0, SVG Export Plug-In . SVG Version: 6.00 Build 0)  -->

<svg
   version="1.1"
   id="Layer_1"
   x="0px"
   y="0px"
   width="509.85001"
   height="191.981"
   viewBox="0 0 509.85001 191.981"
   enable-background="new 0 0 566.93 226.77"
   xml:space="preserve"
   sodipodi:docname="KU.svg"
   inkscape:version="1.4 (unknown)"
   xmlns:inkscape="http://www.inkscape.org/namespaces/inkscape"
   xmlns:sodipodi="http://sodipodi.sourceforge.net/DTD/sodipodi-0.dtd"
   xmlns="http://www.w3.org/2000/svg"
   xmlns:svg="http://www.w3.org/2000/svg"><defs
   id="defs5" /><sodipodi:namedview
   id="namedview5"
   pagecolor="#ffffff"
   bordercolor="#666666"
   borderopacity="1.0"
   inkscape:showpageshadow="2"
   inkscape:pageopacity="0.0"
   inkscape:pagecheckerboard="0"
   inkscape:deskcolor="#d1d1d1"
   inkscape:zoom="3.1414814"
   inkscape:cx="263.2516"
   inkscape:cy="94.859707"
   inkscape:window-width="1920"
   inkscape:window-height="1022"
   inkscape:window-x="0"
   inkscape:window-y="34"
   inkscape:window-maximized="1"
   inkscape:current-layer="Layer_1" />
<g
   id="g5"
   transform="translate(-19.993999,-18.427)">
	<rect
   x="19.993999"
   y="18.427"
   fill="#0065bd"
   width="191.33701"
   height="191.336"
   id="rect1" />
	<g
   id="g4">
		<path
   fill="#ffffff"
   d="m 175.074,101.402 4.902,-3.579 c -1.854,-1.986 -3.841,-4.371 -3.841,-8.213 0,-2.914 1.988,-6.093 4.503,-7.418 -1.324,-1.589 -3.445,-3.044 -6.49,-3.044 -3.975,0 -7.287,2.914 -7.287,6.754 0,2.648 1.723,4.902 3.711,5.961 -0.001,3.708 1.722,7.019 4.502,9.539 m -26.225,-26.096 4.106,-7.287 h -6.094 c 0,1.325 -1.193,2.782 -2.653,2.782 -1.586,0 -2.646,-1.059 -2.646,-2.782 h -5.432 c 0,1.59 -1.191,2.782 -2.648,2.782 -1.457,0 -2.651,-1.191 -2.651,-2.782 h -6.093 l 3.578,7.02 c 2.783,-0.264 5.43,-0.395 8.08,-0.395 4.898,0 9.14,0.263 12.453,0.662 m -11.129,64.64 c -0.662,-1.19 -1.324,-2.65 -1.324,-5.297 0,-3.444 1.987,-6.359 6.227,-8.215 2.781,-1.324 4.899,-2.515 8.609,-4.369 8.742,-4.504 11.789,-12.982 11.789,-21.724 0,-4.372 -1.193,-7.816 -2.648,-10.731 0.395,2.385 0.793,4.374 0.793,6.756 0,9.141 -3.178,15.896 -11.524,20.003 -5.297,2.648 -7.949,3.708 -11.128,5.298 -4.5,2.383 -7.02,5.432 -7.02,9.141 0,4.634 2.382,8.08 6.226,9.138 m -5.166,-1.719 c -1.456,-1.46 -3.045,-4.108 -3.045,-7.551 0,-4.371 2.913,-8.081 8.078,-10.731 4.504,-2.119 7.152,-3.18 11.125,-5.033 8.348,-4.105 10.863,-11.127 10.863,-18.676 0,-7.287 -2.383,-10.996 -4.371,-13.381 1.457,2.784 1.855,6.094 1.855,8.877 0,8.08 -2.382,15.1 -11.789,18.808 -4.769,1.987 -7.816,2.649 -11.921,4.502 -6.492,3.049 -9.008,6.625 -9.008,11.922 0,5.036 3.18,9.803 8.213,11.263 m -5.033,-1.062 c -2.253,-1.854 -5.168,-4.899 -5.168,-10.332 0,-5.695 2.385,-9.933 9.803,-13.113 4.771,-1.987 7.287,-2.915 11.791,-4.637 9.538,-3.576 11.523,-10.597 11.523,-17.486 0,-6.621 -2.385,-10.465 -5.299,-12.98 1.723,2.119 2.784,5.697 2.784,9.404 0,8.742 -3.313,13.645 -12.717,16.958 -3.842,1.191 -7.947,2.383 -12.188,3.972 -7.682,2.914 -11.656,7.153 -11.656,14.307 0,7.418 5.695,12.981 11.127,13.907 m -5.299,-0.926 c -5.298,-2.649 -7.816,-8.346 -7.816,-13.381 0,-7.285 4.504,-12.451 12.053,-15.234 4.64,-1.721 8.347,-2.78 12.984,-4.37 9.007,-3.179 11.921,-7.418 11.921,-15.498 0,-4.637 -1.723,-8.609 -4.503,-10.861 0.926,1.059 1.191,2.383 1.191,3.576 0,2.251 -1.191,3.311 -2.915,3.311 -1.061,0 -2.121,-0.662 -2.252,-1.721 0.529,0.395 0.928,0.529 1.459,0.529 1.455,0 2.25,-1.061 2.25,-2.517 0,-2.252 -2.12,-3.445 -4.239,-3.709 -1.855,-0.266 -3.843,-0.266 -6.094,-0.266 -2.25,0 -4.371,0.133 -7.152,0.266 1.721,2.385 7.418,1.723 9.139,2.914 -1.459,-0.131 -2.914,-0.131 -4.373,0.264 0,0.93 -0.395,1.988 -1.322,1.988 -1.723,0 -2.518,-1.853 -3.709,-5.166 l -6.756,0.531 c -1.061,0.131 -1.457,0.529 -1.326,1.324 l 0.664,6.623 c 0,0.264 0.266,0.396 0.531,0.396 0.264,0 0.527,-0.133 0.66,-0.531 0.266,-0.529 1.062,-1.721 3.047,-1.721 2.914,0 5.166,2.651 5.296,5.695 -1.059,-1.455 -3.441,-2.781 -7.418,-2.781 -3.045,0 -5.56,0.928 -9.535,0.928 -4.238,0 -6.623,-1.59 -6.623,-3.577 0,-0.928 0.131,-1.459 0.662,-2.121 -1.723,0.795 -3.046,2.254 -3.046,4.637 0,2.914 2.121,5.963 8.343,5.963 5.696,0 8.348,-3.579 13.512,-3.579 2.384,0 3.578,1.191 3.578,2.518 0,1.191 -1.062,2.252 -2.914,2.252 -2.253,0 -3.84,-1.191 -4.637,-2.385 -0.133,-0.266 -0.266,-0.396 -0.531,-0.396 -0.395,0 -0.529,0.264 -0.529,0.53 l 0.135,6.357 c 0,0.795 0.395,1.194 1.324,1.061 3.973,-0.398 8.079,-0.928 11.922,-1.192 7.152,-0.662 12.055,-5.433 12.055,-10.73 0,-0.795 0,-1.459 -0.133,-2.252 0.66,1.061 0.926,2.119 0.926,3.443 0,4.902 -2.649,8.611 -11.125,10.863 -4.505,1.191 -7.816,1.721 -11.66,2.648 -10.2,2.384 -16.821,10.199 -16.821,18.943 0.001,8.083 5.697,15.368 13.777,16.428 M 77.847,88.419 c 0.527,-1.191 0.66,-2.251 0.66,-3.046 0,-1.723 -0.792,-3.311 -1.587,-3.973 1.986,0 3.709,1.455 3.709,3.444 -0.001,1.853 -1.192,3.046 -2.782,3.575 m 24.373,31.525 4.238,-2.251 c 1.457,-8.874 6.754,-15.101 16.027,-17.352 -4.9,0.264 -9.141,0.396 -15.1,0.662 -6.357,0.264 -16.822,1.06 -24.109,1.589 -1.457,0.133 -2.383,-0.398 -2.781,-1.589 -0.398,-1.324 -1.192,-3.842 -1.325,-5.299 -0.133,-1.193 0.133,-1.988 1.192,-2.781 2.119,-1.459 4.24,-3.18 4.24,-6.756 0,-3.842 -3.314,-6.357 -6.36,-6.357 -1.06,0 -1.853,0.131 -2.515,0.395 -0.795,-0.527 -1.59,-0.926 -3.182,-0.926 -2.25,0 -4.236,1.457 -4.765,2.648 -3.844,-0.264 -6.889,2.518 -6.625,6.227 0.531,-0.531 1.59,-1.058 2.781,-1.058 1.457,0 2.784,1.058 2.784,2.648 0,1.458 -0.268,3.313 -0.268,5.297 0,6.096 4.902,9.275 4.902,12.454 0,1.589 -1.191,2.914 -2.781,2.914 0.928,3.313 3.972,5.033 8.08,5.033 2.65,0 5.033,-0.264 8.875,-0.264 10.997,-10e-4 15.762,1.191 16.692,4.766 m 40.797,37.489 h 1.328 c -0.137,-4.24 -1.193,-7.154 -2.914,-10.199 -0.929,-1.722 -2.121,-3.576 -3.048,-4.771 -0.53,-0.793 -1.194,-1.057 -1.987,-1.057 -0.531,0 -0.928,0.395 -0.531,1.057 1.062,1.723 2.518,4.374 4.374,8.479 -1.59,0.266 -1.989,1.061 -1.989,2.386 -0.001,2.116 1.988,4.105 4.767,4.105 M 72.679,88.948 c 0.133,-3.708 -1.455,-5.695 -3.707,-6.623 0.395,-0.133 0.926,-0.398 1.723,-0.398 1.72,0 3.574,1.459 3.574,3.711 0,1.192 -0.398,2.515 -1.59,3.31 m 84.91,93.255 c -0.529,-1.192 -2.252,-2.384 -4.371,-2.384 -1.194,0 -1.987,0.264 -2.518,0.529 0.133,-1.061 1.193,-2.252 3.313,-2.252 2.515,0.001 3.84,1.987 3.576,4.107 m -0.795,5.696 c -0.795,-0.928 -2.117,-1.723 -3.839,-1.723 -2.122,0 -3.18,0.928 -3.711,1.59 -0.264,-1.59 1.061,-3.576 3.578,-3.576 2.648,0 3.972,1.854 3.972,3.709 M 62.613,124.713 c 0.926,-2.253 3.047,-3.841 5.562,-4.37 0.531,-0.797 1.191,-1.457 1.855,-1.988 L 65.526,99.545 C 64.996,98.223 64.6,96.898 64.6,95.041 c 0,-1.984 0.396,-3.972 0.396,-5.031 0,-0.928 -0.529,-1.191 -1.061,-1.191 -0.398,0 -0.66,0 -0.792,0.131 v 0.531 c 0,3.045 -1.855,5.43 -4.902,5.43 -3.047,0 -5.432,-2.515 -5.432,-5.43 0,-2.914 2.385,-5.3 5.432,-5.3 0.531,0 1.191,0 1.986,0.266 0.928,-2.383 3.841,-4.504 6.889,-4.105 -2.12,-2.65 -5.299,-4.24 -8.875,-4.24 -7.684,0 -13.775,5.564 -13.775,13.38 0,7.283 5.958,13.113 13.376,13.246 z m 20.533,28.479 c 1.986,0 4.105,-1.061 6.092,-3.045 3.576,-3.445 8.611,-8.611 11.658,-10.599 2.649,-1.722 4.372,-2.384 6.092,-2.384 1.061,0 1.857,0.266 2.651,1.062 l 4.503,-3.446 c -5.166,-3.841 -7.551,-8.875 -7.684,-15.1 -7.152,3.84 -12.318,9.141 -18.281,14.172 -1.059,0.797 -1.588,1.191 -2.516,1.191 -0.927,0 -1.72,-0.926 -3.31,-2.515 -1.324,-1.324 -1.59,-2.12 -1.59,-3.046 0,-1.59 0.527,-2.121 0.527,-4.239 0,-4.239 -3.309,-6.624 -6.488,-6.624 -2.651,0 -4.637,1.457 -5.299,3.312 -3.576,0.264 -5.83,2.914 -5.83,5.693 0,0.664 0.135,1.195 0.265,1.59 -1.324,0.797 -2.648,2.385 -2.648,4.506 0,2.252 1.191,4.371 3.179,5.034 -0.266,-0.399 -0.398,-0.929 -0.398,-1.591 0,-1.191 1.059,-2.252 2.518,-2.252 1.193,0 1.986,0.398 2.914,1.457 1.193,1.59 2.384,3.047 4.369,4.77 1.857,1.59 3.977,2.648 5.962,3.842 1.194,0.794 2.12,1.854 2.12,3.443 0,1.061 -0.795,2.252 -2.385,2.65 0.663,1.458 1.989,2.119 3.579,2.119 m -7.553,-25.83 c -0.133,-2.649 -2.117,-4.768 -4.637,-5.297 0.398,-0.268 1.062,-0.662 2.122,-0.662 1.855,0 3.312,1.588 3.312,3.31 0,1.326 -0.398,1.987 -0.797,2.649 m 14.705,69.676 c -0.531,-0.662 -0.795,-1.324 -0.795,-2.119 0,-1.588 1.324,-2.781 3.177,-2.781 2.915,0 4.504,3.18 8.348,3.18 4.372,0 6.488,-3.18 10.463,-3.18 1.988,0 4.771,1.193 4.771,3.709 0,0.398 -0.137,0.795 -0.398,1.061 4.504,0 7.68,-3.842 7.68,-10.201 0,-8.875 -0.262,-12.451 -0.395,-17.352 3.446,-0.133 6.754,-1.855 6.223,-7.285 -0.926,0.793 -1.984,1.191 -3.175,1.191 -1.59,0 -2.784,-1.191 -2.784,-2.913 0,-0.798 0,-1.724 0.131,-2.651 l 15.5,-0.398 c -1.458,-0.793 -2.516,-2.383 -2.516,-4.235 0,-1.325 0.529,-2.253 1.59,-2.784 -1.459,-3.045 -2.65,-5.43 -4.105,-7.682 -0.797,-1.191 -1.723,-2.385 -3.579,-2.385 -4.107,-0.132 -12.451,1.059 -16.691,2.518 -3.177,1.059 -6.227,3.443 -6.227,8.873 0,5.035 1.723,13.91 1.59,27.818 0,1.988 -0.529,2.65 -1.721,2.914 -1.061,0.266 -3.841,0.529 -5.564,0.266 -0.926,-0.134 -1.723,-0.795 -2.252,-2.781 -0.662,-2.783 -2.648,-5.564 -6.623,-5.564 -3.578,0 -6.754,2.65 -6.225,6.623 -1.723,1.062 -2.517,2.783 -2.517,4.371 0,1.59 0.529,2.914 1.191,3.71 -0.396,0.927 -0.527,1.456 -0.527,2.384 0.001,3.31 2.915,5.693 5.43,5.693 M 71.62,130.939 c -0.794,-1.591 -2.515,-2.517 -4.503,-2.517 -0.795,0 -1.457,0.133 -1.989,0.264 0.266,-1.061 1.459,-1.986 3.182,-1.986 2.252,0 3.709,1.723 3.31,4.239 m 23.182,51.264 c -0.532,-1.192 -2.252,-2.384 -4.371,-2.384 -1.193,0 -1.988,0.264 -2.518,0.529 0.131,-1.061 1.193,-2.252 3.312,-2.252 2.516,0.001 3.841,1.987 3.577,4.107 m -11.26,11.525 c -0.396,-0.795 -0.531,-1.59 -0.531,-2.385 0,-0.795 0.135,-1.457 0.398,-2.118 -0.662,-1.194 -1.059,-2.519 -1.059,-3.976 0,-1.986 0.926,-3.84 2.252,-5.033 l -8.213,-35.633 c -1.326,-0.662 -2.65,-1.457 -3.711,-2.385 -1.853,-1.589 -2.914,-2.781 -4.636,-4.768 -0.527,-0.529 -0.926,-0.795 -1.455,-0.795 -0.795,0 -1.327,0.529 -1.061,1.591 l 1.723,8.21 3.576,2.518 9.936,42.652 z m 10.467,-5.829 c -0.797,-0.928 -2.121,-1.723 -3.843,-1.723 -2.121,0 -3.18,0.928 -3.711,1.59 -0.262,-1.59 1.062,-3.576 3.579,-3.576 2.647,0 3.975,1.854 3.975,3.709 m -65.439,9.934 8.08,-6.227 9.936,-42.652 3.576,-2.518 7.947,-34.174 -1.72,-7.947 c -1.988,-0.398 -3.709,-0.928 -5.166,-1.723 z m 124.515,-0.795 c -0.529,-0.662 -0.795,-1.324 -0.795,-2.119 0,-1.588 1.325,-2.781 3.18,-2.781 2.914,0 4.504,3.18 8.346,3.18 4.37,0 6.49,-3.18 10.463,-3.18 1.988,0 4.77,1.193 4.77,3.709 0,0.398 -0.133,0.795 -0.396,1.061 4.504,0 7.682,-3.842 7.682,-10.201 0,-8.477 -0.793,-17.881 -1.723,-27.287 2.385,-0.529 4.637,-2.914 4.637,-5.961 0,-1.059 -0.395,-2.252 -1.059,-3.311 -0.664,0.928 -1.855,1.721 -3.84,2.252 -2.783,0.793 -6.227,1.192 -8.746,1.192 -5.696,0 -7.549,-0.399 -10.198,-1.192 -0.135,-3.576 -2.385,-6.492 -4.503,-8.479 3.31,1.325 4.767,1.986 10.066,1.986 16.955,0 27.42,-11.391 27.42,-24.373 0,-9.406 -5.961,-13.775 -11.393,-16.955 l -5.033,3.577 c 6.094,2.781 10.066,6.886 10.066,12.451 0,6.094 -4.898,10.467 -10.594,10.467 -6.095,0 -10.863,-4.373 -10.863,-10.334 0,-4.502 2.117,-7.814 6.092,-10.994 3.975,-3.177 10.068,-7.02 13.381,-10.595 1.722,-1.858 3.177,-4.771 3.044,-7.023 2.252,-1.059 3.975,-3.309 3.975,-6.225 0,-3.84 -3.708,-6.754 -7.682,-6.754 -2.387,0 -5.033,1.455 -6.361,3.044 2.386,0.928 4.638,4.106 4.638,7.418 0,2.784 -1.721,5.167 -3.709,7.152 -3.047,3.049 -7.02,5.301 -11.393,8.877 -5.299,4.371 -8.479,9.537 -8.479,15.365 0,8.08 6.227,15.631 16.027,15.631 3.18,0 5.697,-0.662 7.553,-1.855 -3.18,3.71 -9.139,5.565 -15.365,5.565 -5.434,0 -9.141,-0.797 -13.113,-3.71 -3.578,-2.648 -6.359,-8.875 -6.226,-13.512 -2.915,1.723 -6.359,3.311 -9.274,4.637 -4.107,1.986 -5.432,4.105 -5.432,7.682 0,4.77 3.312,8.479 4.768,11.26 1.988,3.576 2.651,6.756 2.915,10.066 0.797,8.082 5.433,11.791 13.644,11.791 3.711,0 8.61,-0.266 10.598,-0.531 0.795,3.711 1.723,8.08 1.723,11.393 0,1.988 -0.531,2.65 -1.723,2.914 -1.058,0.266 -3.842,0.529 -5.562,0.266 -0.926,-0.134 -1.723,-0.795 -2.254,-2.781 -0.66,-2.783 -2.648,-5.564 -6.621,-5.564 -3.578,0 -6.756,2.65 -6.227,6.623 -1.722,1.062 -2.517,2.783 -2.517,4.371 0,1.59 0.529,2.914 1.193,3.71 -0.398,0.927 -0.531,1.456 -0.531,2.384 0,3.31 2.915,5.693 5.431,5.693"
   id="path1" />
		<path
   fill="#0065bd"
   d="m 510.965,209.764 h 18.879 v -6.236 h -10.988 v -4.431 h 10.625 v -6.076 h -10.625 v -4.389 h 10.988 v -6.24 h -18.879 z m -27.533,0 h 21.496 v -6.397 h -11.836 l 11.635,-15.218 v -5.757 h -21.055 v 6.4 h 11.192 l -11.433,14.936 v 6.036 z m -19.081,-11.271 2.697,-10.104 h 0.362 l 2.695,10.104 z m 8.774,11.271 h 8.094 l -8.212,-27.372 h -11.556 l -8.171,27.372 h 8.092 l 1.489,-5.675 h 8.734 z m -37.112,-14.732 v -6.803 h 3.179 c 2.133,0 3.379,1.65 3.379,3.381 0,1.731 -1.246,3.422 -3.379,3.422 z m -7.892,14.732 h 7.892 v -9.62 h 2.011 l 4.751,9.62 h 8.896 l -5.034,-8.452 c -0.521,-0.887 -1.167,-1.689 -1.529,-1.932 l 0.042,-0.162 c 2.413,-1.085 5.835,-3.139 5.835,-7.809 0,-4.912 -3.901,-9.018 -10.305,-9.018 h -12.559 z m -20.246,-14.732 v -6.762 h 3.099 c 1.729,0 3.3,1.447 3.3,3.38 0,1.974 -1.57,3.382 -3.3,3.382 z m -7.891,14.732 h 7.891 v -8.854 h 4.023 c 6.402,0 10.386,-4.066 10.386,-9.098 0,-5.03 -3.983,-9.42 -10.386,-9.42 h -11.914 z m -34.135,0 h 10.789 l 8.21,-27.372 h -8.855 l -4.672,20.49 h -0.159 l -4.669,-20.49 h -8.855 z m -34.016,0 h 7.891 v -20.972 h 6.802 v -6.4 H 324.99 v 6.4 h 6.844 v 20.972 z m -23.59,0.644 c 6.44,0 11.795,-3.098 11.795,-10.747 v -17.27 h -7.889 v 16.548 c 0,3.097 -1.691,4.466 -3.906,4.466 -2.214,0 -3.902,-1.369 -3.902,-4.466 v -16.548 h -7.891 v 17.27 c 0,7.65 5.356,10.747 11.793,10.747 m -35.623,-0.644 h 10.788 l 8.213,-27.372 h -8.856 l -4.669,20.49 h -0.162 l -4.668,-20.49 h -8.858 z m -19.121,0.445 c 3.262,0 5.998,-0.845 7.65,-1.69 v -6.884 c -1.57,0.845 -3.383,1.569 -6.242,1.569 -2.855,0 -7.004,-2.174 -7.004,-7.125 0,-4.951 3.785,-7.287 7.447,-7.287 2.497,0 4.229,0.564 5.756,1.33 v -6.805 c -1.609,-0.725 -3.621,-1.287 -6.842,-1.287 -8.092,0 -14.977,5.313 -14.977,14.049 0.001,8.734 6.161,14.13 14.212,14.13 m -4.227,-29.468 h 8.291 l 5.518,-6.199 h -6.846 l -2.736,2.98 h -0.161 l -2.738,-2.98 h -6.842 z"
   id="path2" />
		<path
   fill="#0065bd"
   d="m 353.047,168.774 h 10.789 l 8.212,-27.373 h -8.855 l -4.67,20.488 h -0.16 l -4.67,-20.488 h -8.855 z m -25.399,-11.271 2.695,-10.103 h 0.362 l 2.697,10.103 z m 8.775,11.271 h 8.092 l -8.214,-27.373 h -11.554 l -8.169,27.373 h 8.09 l 1.489,-5.676 h 8.737 z m -34.658,0 h 7.889 V 147.8 h 6.803 v -6.398 H 294.92 v 6.398 h 6.846 v 20.974 z m -21.135,0.645 c 7.488,0 11.634,-4.711 11.634,-9.258 0,-4.471 -2.294,-7.086 -6.763,-8.171 -1.811,-0.446 -2.816,-0.606 -4.188,-0.888 -1.852,-0.402 -2.656,-0.926 -2.656,-1.973 0,-1.206 1.369,-1.973 4.43,-1.973 3.34,0 6.117,1.048 7.484,1.811 v -6.801 c -1.77,-0.766 -4.668,-1.41 -7.887,-1.41 -6.805,0 -11.836,3.584 -11.836,9.139 0,4.226 2.375,6.883 6.078,7.809 2.054,0.523 3.14,0.764 4.91,1.209 1.493,0.362 2.497,0.844 2.497,1.932 0,1.368 -1.45,2.133 -4.105,2.133 -3.623,0 -7.285,-1.569 -9.059,-2.816 v 7.164 c 2.215,1.247 5.355,2.093 9.461,2.093 m -28.137,0 c 6.441,0 11.795,-3.1 11.795,-10.748 v -17.27 h -7.889 v 16.545 c 0,3.098 -1.693,4.469 -3.906,4.469 -2.215,0 -3.906,-1.371 -3.906,-4.469 v -16.545 h -7.889 v 17.27 c 0,7.648 5.353,10.748 11.795,10.748 m -4.187,-29.668 h 6.684 l 5.676,-6.201 h -9.18 z"
   id="path3" />
		<path
   fill="#0065bd"
   d="m 479.848,127.784 h 10.789 l 8.211,-27.375 h -8.854 l -4.671,20.491 h -0.159 l -4.671,-20.491 h -8.854 z m -24.836,0.643 c 6.441,0 11.796,-3.1 11.796,-10.747 v -17.271 h -7.891 v 16.547 c 0,3.1 -1.692,4.467 -3.905,4.467 -2.214,0 -3.905,-1.367 -3.905,-4.467 v -16.547 h -7.89 v 17.271 c 0,7.647 5.353,10.747 11.795,10.747 m 0.041,-31.842 c -1.528,0 -2.697,-1.006 -2.697,-2.174 0,-1.167 1.169,-2.131 2.697,-2.131 1.487,0 2.654,0.964 2.654,2.131 0,1.168 -1.167,2.174 -2.654,2.174 m 0,3.1 c 4.187,0 7.084,-2.133 7.084,-5.273 0,-3.139 -2.897,-5.271 -7.084,-5.271 -4.188,0 -7.165,2.133 -7.165,5.271 0,3.14 2.976,5.273 7.165,5.273 m -32.729,13.365 v -6.803 h 3.181 c 2.135,0 3.382,1.651 3.382,3.383 0,1.73 -1.247,3.42 -3.382,3.42 z m -7.889,14.734 h 7.89 v -9.621 h 2.012 l 4.75,9.621 h 8.898 l -5.031,-8.454 c -0.523,-0.886 -1.168,-1.69 -1.53,-1.932 l 0.039,-0.161 c 2.418,-1.088 5.837,-3.141 5.837,-7.811 0,-4.912 -3.904,-9.018 -10.305,-9.018 h -12.56 z m -26.083,0 h 18.879 v -6.24 h -10.99 v -4.428 h 10.628 v -6.078 H 396.24 v -4.389 h 10.99 v -6.24 h -18.879 v 27.375 z m -33.977,0 h 7.892 V 111.36 h 0.121 l 8.293,16.424 h 9.62 v -27.375 h -7.891 v 16.344 h -0.12 l -8.214,-16.344 h -9.701 z m -4.307,0 -9.257,-14.131 9.139,-13.244 h -9.624 l -7.646,12.6 v -12.6 h -7.891 v 27.375 h 7.891 V 114.62 l 7.929,13.164 z m -45.365,-6.361 c -3.504,0 -5.272,-2.818 -5.272,-7.326 0,-4.51 1.769,-7.326 5.272,-7.326 3.542,0 5.192,2.816 5.192,7.326 0.001,4.507 -1.65,7.326 -5.192,7.326 m 0,7.004 c 8.169,0 13.646,-5.191 13.646,-14.33 0,-9.136 -5.477,-14.332 -13.646,-14.332 -8.133,0 -13.728,5.196 -13.728,14.332 10e-4,9.138 5.595,14.33 13.728,14.33 m -34.216,-0.643 h 17.672 v -6.48 h -9.783 v -20.895 h -7.889 z m -4.306,0 -9.26,-14.131 9.139,-13.244 h -9.622 l -7.648,12.6 v -12.6 h -7.891 v 27.375 h 7.891 V 114.62 l 7.929,13.164 z"
   id="path4" />
	</g>
</g>
</svg>
