<?xml version="1.0" encoding="UTF-8" standalone="no"?>
<!-- Generator: Adobe Illustrator 15.0.0, SVG Export Plug-In . SVG Version: 6.00 Build 0)  -->

<svg
   version="1.1"
   id="Layer_1"
   x="0px"
   y="0px"
   width="537.99701"
   height="192.483"
   viewBox="0 0 537.99701 192.483"
   enable-background="new 0 0 582 226.77"
   xml:space="preserve"
   sodipodi:docname="MUVS_en.svg"
   inkscape:version="1.4 (unknown)"
   xmlns:inkscape="http://www.inkscape.org/namespaces/inkscape"
   xmlns:sodipodi="http://sodipodi.sourceforge.net/DTD/sodipodi-0.dtd"
   xmlns="http://www.w3.org/2000/svg"
   xmlns:svg="http://www.w3.org/2000/svg"><defs
   id="defs7" /><sodipodi:namedview
   id="namedview7"
   pagecolor="#ffffff"
   bordercolor="#666666"
   borderopacity="1.0"
   inkscape:showpageshadow="2"
   inkscape:pageopacity="0.0"
   inkscape:pagecheckerboard="0"
   inkscape:deskcolor="#d1d1d1"
   inkscape:zoom="1.3316151"
   inkscape:cx="271.09935"
   inkscape:cy="95.372903"
   inkscape:window-width="1920"
   inkscape:window-height="1022"
   inkscape:window-x="0"
   inkscape:window-y="34"
   inkscape:window-maximized="1"
   inkscape:current-layer="Layer_1" />
<g
   id="g7"
   transform="translate(-19.993999,-17.888)">
	<rect
   x="19.993999"
   y="18.530001"
   fill="#0065bd"
   width="191.19901"
   height="191.19901"
   id="rect1" />
	<g
   id="g6">
		<path
   fill="#ffffff"
   d="m 174.96,101.443 4.9,-3.575 c -1.853,-1.985 -3.839,-4.368 -3.839,-8.208 0,-2.912 1.987,-6.089 4.5,-7.413 -1.323,-1.589 -3.442,-3.042 -6.485,-3.042 -3.971,0 -7.282,2.911 -7.282,6.749 0,2.646 1.722,4.898 3.709,5.957 -0.001,3.707 1.72,7.015 4.497,9.532 m -26.205,-26.076 4.103,-7.282 h -6.089 c 0,1.323 -1.192,2.779 -2.65,2.779 -1.584,0 -2.644,-1.058 -2.644,-2.779 h -5.427 c 0,1.589 -1.191,2.779 -2.647,2.779 -1.456,0 -2.649,-1.19 -2.649,-2.779 h -6.09 l 3.577,7.014 c 2.78,-0.263 5.426,-0.394 8.074,-0.394 4.893,0.001 9.132,0.264 12.442,0.662 m -11.121,64.594 c -0.663,-1.191 -1.323,-2.649 -1.323,-5.293 0,-3.443 1.984,-6.355 6.222,-8.21 2.779,-1.323 4.895,-2.514 8.604,-4.366 8.735,-4.5 11.78,-12.973 11.78,-21.708 0,-4.368 -1.193,-7.811 -2.646,-10.723 0.394,2.383 0.792,4.37 0.792,6.751 0,9.134 -3.175,15.885 -11.515,19.987 -5.292,2.646 -7.942,3.706 -11.121,5.295 -4.496,2.382 -7.014,5.428 -7.014,9.134 0,4.632 2.38,8.074 6.221,9.133 m -5.161,-1.719 c -1.455,-1.46 -3.043,-4.105 -3.043,-7.547 0,-4.367 2.911,-8.074 8.073,-10.722 4.5,-2.118 7.147,-3.178 11.117,-5.03 8.341,-4.103 10.855,-11.119 10.855,-18.662 0,-7.281 -2.382,-10.988 -4.369,-13.371 1.456,2.78 1.854,6.089 1.854,8.87 0,8.074 -2.381,15.089 -11.78,18.794 -4.766,1.985 -7.812,2.647 -11.913,4.499 -6.487,3.047 -9.002,6.62 -9.002,11.913 0,5.034 3.177,9.796 8.208,11.256 m -5.031,-1.059 c -2.251,-1.853 -5.165,-4.897 -5.165,-10.325 0,-5.692 2.383,-9.928 9.795,-13.104 4.769,-1.985 7.282,-2.912 11.783,-4.634 9.53,-3.573 11.516,-10.589 11.516,-17.473 0,-6.616 -2.383,-10.457 -5.296,-12.971 1.721,2.117 2.781,5.693 2.781,9.397 0,8.735 -3.31,13.635 -12.708,16.944 -3.839,1.191 -7.941,2.381 -12.179,3.97 -7.675,2.912 -11.647,7.147 -11.647,14.296 10e-4,7.412 5.693,12.973 11.12,13.9 m -5.294,-0.927 c -5.295,-2.647 -7.812,-8.339 -7.812,-13.371 0,-7.28 4.501,-12.442 12.044,-15.223 4.637,-1.719 8.342,-2.777 12.974,-4.366 9.002,-3.178 11.915,-7.413 11.915,-15.487 0,-4.633 -1.722,-8.603 -4.501,-10.854 0.925,1.058 1.191,2.381 1.191,3.573 0,2.251 -1.191,3.309 -2.912,3.309 -1.06,0 -2.121,-0.662 -2.251,-1.72 0.529,0.395 0.927,0.529 1.458,0.529 1.454,0 2.249,-1.06 2.249,-2.516 0,-2.25 -2.119,-3.442 -4.235,-3.706 -1.854,-0.266 -3.841,-0.266 -6.089,-0.266 -2.248,0 -4.369,0.133 -7.148,0.266 1.72,2.383 7.413,1.721 9.132,2.912 -1.458,-0.13 -2.912,-0.13 -4.37,0.263 0,0.929 -0.394,1.987 -1.321,1.987 -1.722,0 -2.516,-1.852 -3.707,-5.162 l -6.75,0.531 c -1.06,0.131 -1.456,0.529 -1.326,1.324 l 0.664,6.618 c 0,0.263 0.266,0.396 0.531,0.396 0.264,0 0.528,-0.132 0.66,-0.531 0.265,-0.529 1.062,-1.719 3.044,-1.719 2.913,0 5.163,2.648 5.294,5.691 -1.059,-1.454 -3.439,-2.779 -7.413,-2.779 -3.043,0 -5.556,0.927 -9.529,0.927 -4.235,0 -6.618,-1.589 -6.618,-3.574 0,-0.927 0.131,-1.458 0.662,-2.12 -1.722,0.794 -3.045,2.252 -3.045,4.633 0,2.913 2.121,5.959 8.337,5.959 5.692,0 8.343,-3.576 13.503,-3.576 2.383,0 3.575,1.191 3.575,2.516 0,1.191 -1.061,2.25 -2.912,2.25 -2.251,0 -3.836,-1.19 -4.633,-2.383 -0.132,-0.265 -0.265,-0.396 -0.531,-0.396 -0.394,0 -0.528,0.264 -0.528,0.529 l 0.134,6.353 c 0,0.795 0.394,1.193 1.324,1.06 3.97,-0.398 8.073,-0.927 11.913,-1.19 7.148,-0.662 12.046,-5.429 12.046,-10.723 0,-0.794 0,-1.458 -0.132,-2.25 0.659,1.06 0.925,2.117 0.925,3.441 0,4.899 -2.647,8.604 -11.117,10.855 -4.502,1.19 -7.812,1.719 -11.651,2.646 -10.192,2.383 -16.809,10.192 -16.809,18.93 -10e-4,8.075 5.691,15.355 13.765,16.414 M 77.803,88.471 c 0.531,-1.19 0.664,-2.25 0.664,-3.045 0,-1.721 -0.796,-3.308 -1.588,-3.97 1.984,0 3.704,1.455 3.704,3.441 0,1.852 -1.191,3.045 -2.78,3.574 m 24.357,31.503 4.235,-2.251 c 1.457,-8.866 6.749,-15.088 16.017,-17.339 -4.897,0.264 -9.135,0.396 -15.089,0.662 -6.353,0.263 -16.811,1.06 -24.089,1.589 -1.458,0.132 -2.383,-0.399 -2.782,-1.589 -0.396,-1.323 -1.19,-3.839 -1.323,-5.295 -0.135,-1.19 0.133,-1.987 1.193,-2.779 2.116,-1.458 4.235,-3.178 4.235,-6.751 0,-3.838 -3.311,-6.353 -6.355,-6.353 -1.058,0 -1.853,0.131 -2.513,0.394 -0.796,-0.527 -1.588,-0.925 -3.178,-0.925 -2.252,0 -4.235,1.456 -4.766,2.646 -3.836,-0.264 -6.882,2.516 -6.618,6.222 0.529,-0.53 1.589,-1.058 2.782,-1.058 1.453,0 2.779,1.058 2.779,2.646 0,1.456 -0.266,3.311 -0.266,5.293 0,6.091 4.9,9.269 4.9,12.444 0,1.588 -1.193,2.912 -2.782,2.912 0.927,3.31 3.971,5.03 8.074,5.03 2.649,0 5.032,-0.264 8.869,-0.264 10.986,0.001 15.748,1.191 16.677,4.766 m 40.767,37.46 h 1.328 c -0.137,-4.235 -1.193,-7.147 -2.913,-10.191 -0.929,-1.722 -2.12,-3.573 -3.047,-4.768 -0.529,-0.793 -1.192,-1.057 -1.984,-1.057 -0.531,0 -0.927,0.396 -0.531,1.057 1.062,1.72 2.515,4.369 4.37,8.472 -1.588,0.267 -1.987,1.06 -1.987,2.384 0,2.116 1.987,4.103 4.764,4.103 M 72.642,89 c 0.131,-3.707 -1.456,-5.691 -3.705,-6.618 0.396,-0.133 0.925,-0.398 1.718,-0.398 1.722,0 3.576,1.458 3.576,3.708 0,1.19 -0.398,2.513 -1.589,3.308 m 84.847,93.186 c -0.529,-1.19 -2.25,-2.382 -4.368,-2.382 -1.192,0 -1.984,0.264 -2.515,0.529 0.132,-1.06 1.191,-2.25 3.31,-2.25 2.513,0 3.836,1.984 3.573,4.103 m -0.794,5.693 c -0.794,-0.927 -2.116,-1.721 -3.837,-1.721 -2.119,0 -3.178,0.927 -3.708,1.587 -0.264,-1.587 1.06,-3.572 3.575,-3.572 2.647,0 3.97,1.852 3.97,3.706 M 62.583,124.737 c 0.925,-2.25 3.043,-3.837 5.559,-4.366 0.526,-0.797 1.191,-1.456 1.854,-1.986 L 65.495,99.588 c -0.531,-1.321 -0.928,-2.645 -0.928,-4.5 0,-1.983 0.397,-3.97 0.397,-5.028 0,-0.927 -0.528,-1.19 -1.057,-1.19 -0.398,0 -0.664,0 -0.795,0.131 v 0.531 c 0,3.042 -1.855,5.425 -4.898,5.425 -3.043,0 -5.428,-2.514 -5.428,-5.425 0,-2.913 2.385,-5.297 5.428,-5.297 0.529,0 1.192,0 1.985,0.266 0.927,-2.382 3.838,-4.501 6.881,-4.103 -2.116,-2.648 -5.292,-4.237 -8.866,-4.237 -7.678,0 -13.766,5.561 -13.766,13.372 0,7.277 5.957,13.104 13.37,13.236 z M 83.1,153.198 c 1.985,0 4.103,-1.061 6.087,-3.044 3.574,-3.442 8.605,-8.605 11.649,-10.593 2.647,-1.719 4.369,-2.379 6.088,-2.379 1.06,0 1.855,0.265 2.647,1.06 l 4.502,-3.444 c -5.163,-3.838 -7.546,-8.868 -7.679,-15.088 -7.146,3.837 -12.309,9.134 -18.267,14.161 -1.059,0.797 -1.587,1.19 -2.515,1.19 -0.928,0 -1.721,-0.925 -3.31,-2.513 -1.324,-1.324 -1.588,-2.118 -1.588,-3.043 0,-1.589 0.531,-2.12 0.531,-4.238 0,-4.235 -3.308,-6.617 -6.485,-6.617 -2.648,0 -4.633,1.455 -5.294,3.31 -3.577,0.264 -5.826,2.912 -5.826,5.689 0,0.663 0.134,1.194 0.267,1.588 -1.324,0.796 -2.65,2.383 -2.65,4.503 0,2.249 1.192,4.369 3.179,5.029 -0.268,-0.397 -0.399,-0.927 -0.399,-1.587 0,-1.193 1.06,-2.253 2.517,-2.253 1.19,0 1.985,0.4 2.912,1.458 1.189,1.588 2.382,3.044 4.367,4.766 1.854,1.588 3.97,2.646 5.957,3.838 1.189,0.793 2.116,1.853 2.116,3.442 0,1.06 -0.792,2.249 -2.381,2.647 0.661,1.455 1.986,2.118 3.575,2.118 m -7.545,-25.812 c -0.134,-2.648 -2.118,-4.765 -4.634,-5.294 0.399,-0.267 1.058,-0.661 2.119,-0.661 1.852,0 3.309,1.588 3.309,3.307 -0.001,1.324 -0.398,1.986 -0.794,2.648 m 14.692,69.625 c -0.531,-0.661 -0.794,-1.323 -0.794,-2.117 0,-1.588 1.323,-2.78 3.175,-2.78 2.913,0 4.501,3.178 8.342,3.178 4.368,0 6.484,-3.178 10.455,-3.178 1.987,0 4.768,1.192 4.768,3.707 0,0.398 -0.137,0.794 -0.398,1.06 4.501,0 7.674,-3.839 7.674,-10.194 0,-8.868 -0.261,-12.441 -0.394,-17.338 3.442,-0.133 6.748,-1.854 6.218,-7.28 -0.926,0.792 -1.983,1.191 -3.174,1.191 -1.588,0 -2.781,-1.191 -2.781,-2.913 0,-0.795 0,-1.722 0.13,-2.648 l 15.489,-0.399 c -1.456,-0.791 -2.514,-2.38 -2.514,-4.231 0,-1.324 0.528,-2.251 1.589,-2.78 -1.458,-3.044 -2.649,-5.427 -4.103,-7.677 -0.797,-1.191 -1.722,-2.383 -3.577,-2.383 -4.104,-0.134 -12.441,1.057 -16.679,2.515 -3.175,1.059 -6.221,3.44 -6.221,8.867 0,5.03 1.72,13.9 1.588,27.799 0,1.986 -0.529,2.647 -1.719,2.911 -1.06,0.265 -3.839,0.527 -5.56,0.265 -0.926,-0.134 -1.722,-0.794 -2.251,-2.779 -0.663,-2.78 -2.646,-5.56 -6.618,-5.56 -3.577,0 -6.75,2.649 -6.221,6.617 -1.72,1.061 -2.515,2.781 -2.515,4.369 0,1.588 0.528,2.912 1.19,3.707 -0.396,0.927 -0.527,1.454 -0.527,2.381 0.002,3.31 2.913,5.69 5.428,5.69 M 71.581,130.96 c -0.792,-1.588 -2.514,-2.515 -4.501,-2.515 -0.792,0 -1.453,0.133 -1.983,0.264 0.263,-1.06 1.457,-1.985 3.177,-1.985 2.251,0 3.705,1.721 3.307,4.236 m 23.168,51.226 c -0.532,-1.19 -2.251,-2.382 -4.369,-2.382 -1.192,0 -1.987,0.264 -2.515,0.529 0.131,-1.06 1.192,-2.25 3.31,-2.25 2.513,0 3.836,1.984 3.574,4.103 m -11.255,11.516 c -0.394,-0.794 -0.527,-1.589 -0.527,-2.384 0,-0.793 0.133,-1.454 0.397,-2.116 -0.663,-1.192 -1.061,-2.517 -1.061,-3.972 0,-1.984 0.93,-3.837 2.253,-5.029 l -8.208,-35.607 c -1.324,-0.661 -2.647,-1.456 -3.706,-2.384 -1.854,-1.588 -2.912,-2.778 -4.632,-4.763 -0.531,-0.53 -0.93,-0.795 -1.456,-0.795 -0.797,0 -1.323,0.53 -1.058,1.59 l 1.719,8.205 3.574,2.514 9.926,42.624 z m 10.462,-5.823 c -0.797,-0.927 -2.12,-1.721 -3.841,-1.721 -2.119,0 -3.177,0.927 -3.708,1.587 -0.262,-1.587 1.062,-3.572 3.576,-3.572 2.645,0 3.973,1.852 3.973,3.706 m -65.393,9.925 8.074,-6.219 9.928,-42.624 3.574,-2.514 7.942,-34.15 -1.721,-7.941 c -1.987,-0.399 -3.709,-0.927 -5.162,-1.721 z m 124.426,-0.793 c -0.53,-0.661 -0.795,-1.323 -0.795,-2.117 0,-1.588 1.324,-2.78 3.178,-2.78 2.911,0 4.5,3.178 8.338,3.178 4.367,0 6.486,-3.178 10.456,-3.178 1.986,0 4.766,1.192 4.766,3.707 0,0.398 -0.132,0.794 -0.396,1.06 4.5,0 7.675,-3.839 7.675,-10.194 0,-8.471 -0.792,-17.868 -1.721,-27.268 2.383,-0.528 4.633,-2.911 4.633,-5.955 0,-1.058 -0.395,-2.25 -1.058,-3.309 -0.663,0.927 -1.854,1.719 -3.836,2.251 -2.782,0.793 -6.222,1.189 -8.74,1.189 -5.69,0 -7.544,-0.396 -10.189,-1.189 -0.135,-3.574 -2.383,-6.488 -4.501,-8.473 3.308,1.322 4.763,1.984 10.059,1.984 16.943,0 27.4,-11.382 27.4,-24.355 0,-9.399 -5.957,-13.765 -11.384,-16.943 l -5.03,3.573 c 6.089,2.78 10.06,6.882 10.06,12.443 0,6.089 -4.895,10.458 -10.586,10.458 -6.092,0 -10.855,-4.369 -10.855,-10.326 0,-4.498 2.116,-7.808 6.087,-10.985 3.971,-3.175 10.061,-7.014 13.371,-10.587 1.722,-1.856 3.176,-4.769 3.043,-7.019 2.25,-1.058 3.971,-3.306 3.971,-6.22 0,-3.837 -3.704,-6.749 -7.676,-6.749 -2.384,0 -5.029,1.453 -6.355,3.042 2.384,0.927 4.635,4.103 4.635,7.413 0,2.781 -1.72,5.163 -3.707,7.147 -3.044,3.047 -7.015,5.297 -11.384,8.871 -5.295,4.368 -8.472,9.53 -8.472,15.354 0,8.074 6.222,15.62 16.015,15.62 3.178,0 5.693,-0.663 7.548,-1.854 -3.178,3.707 -9.133,5.561 -15.354,5.561 -5.43,0 -9.134,-0.797 -13.104,-3.706 -3.575,-2.647 -6.354,-8.868 -6.222,-13.502 -2.912,1.722 -6.354,3.308 -9.266,4.634 -4.105,1.983 -5.428,4.102 -5.428,7.676 0,4.767 3.311,8.473 4.764,11.252 1.987,3.574 2.649,6.751 2.913,10.061 0.796,8.073 5.43,11.78 13.635,11.78 3.707,0 8.603,-0.265 10.589,-0.531 0.794,3.708 1.722,8.075 1.722,11.386 0,1.986 -0.531,2.647 -1.722,2.911 -1.058,0.265 -3.839,0.527 -5.559,0.265 -0.925,-0.134 -1.722,-0.794 -2.252,-2.779 -0.66,-2.78 -2.646,-5.56 -6.617,-5.56 -3.575,0 -6.75,2.649 -6.222,6.617 -1.722,1.061 -2.516,2.781 -2.516,4.369 0,1.588 0.529,2.912 1.192,3.707 -0.398,0.927 -0.531,1.454 -0.531,2.381 0,3.309 2.914,5.689 5.428,5.689"
   id="path1" />
		<path
   fill="#0065bd"
   d="m 539.127,209.73 h 18.864 v -6.236 h -10.979 v -4.424 h 10.621 v -6.074 h -10.621 v -4.386 h 10.979 v -6.235 h -18.864 z m -19.631,0.641 c 6.437,0 11.785,-3.097 11.785,-10.74 v -17.256 h -7.885 v 16.533 c 0,3.098 -1.687,4.463 -3.9,4.463 -2.21,0 -3.9,-1.365 -3.9,-4.463 v -16.533 h -7.885 v 17.256 c 0,7.643 5.351,10.74 11.785,10.74 m -28.316,0 c 4.866,0 8.245,-1.487 9.896,-2.333 v -12.107 h -7.683 v 7.402 c -0.565,0.121 -1.167,0.199 -1.771,0.199 -3.059,0 -6.438,-2.331 -6.438,-7.482 0,-5.549 2.977,-8.283 8.084,-8.283 2.819,0 5.231,0.965 6.721,1.771 V 183.1 c -1.61,-0.725 -4.264,-1.729 -7.885,-1.729 -9.292,0 -15.529,5.752 -15.529,14.68 0,8.931 6.96,14.32 14.605,14.32 m -34.472,-11.906 2.692,-10.096 h 0.362 l 2.698,10.096 z m 8.764,11.265 h 8.09 l -8.207,-27.355 H 453.81 l -8.166,27.355 h 8.084 l 1.492,-5.673 h 8.729 z m -37.084,-14.723 v -6.799 h 3.177 c 2.133,0 3.381,1.649 3.381,3.378 0,1.73 -1.248,3.421 -3.381,3.421 z m -7.885,14.723 h 7.885 v -9.616 h 2.01 l 4.745,9.616 h 8.891 l -5.025,-8.449 c -0.523,-0.885 -1.168,-1.689 -1.53,-1.93 l 0.042,-0.162 c 2.412,-1.086 5.83,-3.14 5.83,-7.804 0,-4.908 -3.901,-9.011 -10.294,-9.011 h -12.553 v 27.356 z m -20.232,-14.723 v -6.758 h 3.097 c 1.729,0 3.297,1.447 3.297,3.377 0,1.972 -1.567,3.381 -3.297,3.381 z m -7.885,14.723 h 7.885 v -8.852 h 4.021 c 6.397,0 10.378,-4.062 10.378,-9.091 0,-5.029 -3.98,-9.413 -10.378,-9.413 h -11.906 z m -44.045,0 h 7.885 v -16.414 h 0.117 l 8.289,16.414 h 9.614 v -27.355 h -7.885 v 16.331 h -0.121 l -8.205,-16.331 h -9.694 z m -15.93,0 h 7.885 v -27.355 h -7.885 z m -29.725,0.641 c 6.435,0 11.783,-3.097 11.783,-10.74 v -17.256 h -7.885 v 16.533 c 0,3.098 -1.685,4.463 -3.898,4.463 -2.212,0 -3.901,-1.365 -3.901,-4.463 V 182.375 H 290.9 v 17.256 c -10e-4,7.643 5.349,10.74 11.786,10.74 m -31.415,-0.641 h 7.884 v -20.96 h 6.797 v -6.396 h -21.52 v 6.396 h 6.839 z m -17.942,0.442 c 3.258,0 5.994,-0.846 7.643,-1.689 v -6.879 c -1.568,0.844 -3.378,1.569 -6.235,1.569 -2.857,0 -6.999,-2.173 -6.999,-7.123 0,-4.945 3.782,-7.279 7.443,-7.279 2.492,0 4.222,0.563 5.75,1.327 V 183.3 c -1.608,-0.722 -3.62,-1.286 -6.839,-1.286 -8.084,0 -14.961,5.311 -14.961,14.036 0,8.73 6.156,14.122 14.198,14.122"
   id="path2" />
		<path
   fill="#0065bd"
   d="m 403.168,169.412 c 7.482,0 11.623,-4.708 11.623,-9.252 0,-4.465 -2.292,-7.082 -6.758,-8.168 -1.811,-0.442 -2.813,-0.603 -4.183,-0.885 -1.85,-0.4 -2.654,-0.924 -2.654,-1.97 0,-1.206 1.364,-1.972 4.425,-1.972 3.339,0 6.114,1.047 7.483,1.81 v -6.796 c -1.771,-0.768 -4.67,-1.409 -7.885,-1.409 -6.8,0 -11.828,3.581 -11.828,9.129 0,4.227 2.375,6.881 6.074,7.806 2.049,0.523 3.138,0.763 4.908,1.209 1.489,0.359 2.493,0.844 2.493,1.93 0,1.366 -1.448,2.133 -4.102,2.133 -3.623,0 -7.28,-1.571 -9.054,-2.816 v 7.156 c 2.217,1.247 5.354,2.095 9.458,2.095 m -34.556,-0.644 h 18.867 v -6.236 H 376.5 v -4.424 h 10.617 v -6.074 H 376.5 v -4.385 h 10.979 v -6.236 h -18.867 z m -15.928,0 h 7.884 v -27.355 h -7.884 z m -23.411,-6.8 v -13.755 h 1.65 c 3.781,0 6.676,2.453 6.676,6.879 0,4.424 -2.895,6.876 -6.676,6.876 z m -7.881,6.8 h 10.82 c 7.842,0 14.038,-5.43 14.038,-13.676 0,-8.246 -6.196,-13.68 -14.038,-13.68 h -10.82 z m -19.632,0.644 c 6.438,0 11.789,-3.1 11.789,-10.74 v -17.26 h -7.885 v 16.535 c 0,3.097 -1.69,4.467 -3.904,4.467 -2.212,0 -3.901,-1.37 -3.901,-4.467 v -16.535 h -7.884 v 17.26 c 0,7.64 5.348,10.74 11.785,10.74 m -31.414,-0.644 h 7.884 v -20.957 h 6.797 v -6.398 h -21.52 v 6.398 h 6.839 z m -21.119,0.644 c 7.482,0 11.627,-4.708 11.627,-9.252 0,-4.465 -2.294,-7.082 -6.761,-8.168 -1.808,-0.442 -2.814,-0.603 -4.183,-0.885 -1.85,-0.4 -2.654,-0.924 -2.654,-1.97 0,-1.206 1.367,-1.972 4.424,-1.972 3.337,0 6.114,1.047 7.48,1.81 v -6.796 c -1.768,-0.768 -4.663,-1.409 -7.882,-1.409 -6.798,0 -11.828,3.581 -11.828,9.129 0,4.227 2.376,6.881 6.075,7.806 2.053,0.523 3.138,0.763 4.91,1.209 1.488,0.359 2.495,0.844 2.495,1.93 0,1.366 -1.45,2.133 -4.105,2.133 -3.62,0 -7.281,-1.571 -9.049,-2.816 v 7.156 c 2.21,1.247 5.347,2.095 9.451,2.095"
   id="path3" />
		<path
   fill="#0065bd"
   d="m 518.494,121.008 v -13.756 h 1.645 c 3.783,0 6.682,2.453 6.682,6.878 0,4.424 -2.898,6.878 -6.682,6.878 z m -7.887,6.8 h 10.821 c 7.846,0 14.036,-5.433 14.036,-13.678 0,-8.247 -6.19,-13.677 -14.036,-13.677 h -10.821 z m -26.066,0 h 18.865 v -6.236 h -10.98 v -4.424 h 10.622 v -6.074 h -10.622 v -4.386 h 10.98 v -6.235 h -18.865 z m -13.594,0.441 c 3.258,0 5.993,-0.844 7.641,-1.689 v -6.879 c -1.566,0.845 -3.379,1.569 -6.232,1.569 -2.858,0 -6.999,-2.173 -6.999,-7.12 0,-4.948 3.78,-7.28 7.44,-7.28 2.494,0 4.225,0.562 5.754,1.327 v -6.8 c -1.61,-0.722 -3.623,-1.287 -6.839,-1.287 -8.087,0 -14.963,5.311 -14.963,14.039 0,8.728 6.151,14.12 14.198,14.12 m -46.54,-0.441 h 7.885 v -16.412 h 0.119 l 8.287,16.412 h 9.614 v -27.355 h -7.885 v 16.332 h -0.121 l -8.205,-16.332 h -9.694 z m -21.077,-11.266 2.693,-10.096 h 0.365 l 2.692,10.096 z m 8.768,11.266 h 8.085 l -8.205,-27.355 h -11.545 l -8.166,27.355 h 8.084 l 1.489,-5.674 h 8.729 z m -38.738,0 h 10.783 l 8.202,-27.355 h -8.849 l -4.669,20.476 h -0.158 l -4.666,-20.476 h -8.849 z m -28.199,-6.8 v -13.756 h 1.65 c 3.78,0 6.676,2.453 6.676,6.878 0,4.424 -2.896,6.878 -6.676,6.878 z m -7.884,6.8 h 10.821 c 7.846,0 14.04,-5.433 14.04,-13.678 0,-8.247 -6.194,-13.677 -14.04,-13.677 h -10.821 z m -21.079,-11.266 2.698,-10.096 h 0.362 l 2.692,10.096 z m 8.773,11.266 h 8.084 l -8.205,-27.355 h -11.545 l -8.168,27.355 h 8.09 l 1.484,-5.674 h 8.729 z m -52.053,-27.355 v 27.355 h 7.884 v -10.58 h 10.701 v -6.074 h -10.701 v -4.466 h 10.822 v -6.235 z m -20.071,20.997 c -3.5,0 -5.269,-2.816 -5.269,-7.32 0,-4.507 1.769,-7.321 5.269,-7.321 3.541,0 5.188,2.814 5.188,7.321 0,4.504 -1.648,7.32 -5.188,7.32 m 0,6.999 c 8.166,0 13.635,-5.187 13.635,-14.319 0,-9.13 -5.469,-14.322 -13.635,-14.322 -8.126,0 -13.716,5.191 -13.716,14.322 0,9.133 5.59,14.319 13.716,14.319"
   id="path4" />
		<path
   fill="#0065bd"
   d="m 434.74,86.847 h 18.869 v -6.236 h -10.982 v -4.424 h 10.62 v -6.074 h -10.62 v -4.385 h 10.982 V 59.493 H 434.74 Z m -19.828,0 h 7.885 v -20.96 h 6.799 v -6.395 h -21.522 v 6.395 h 6.839 v 20.96 z m -23.572,0.642 c 6.437,0 11.785,-3.097 11.785,-10.74 V 59.492 h -7.882 v 16.533 c 0,3.097 -1.689,4.463 -3.903,4.463 -2.212,0 -3.899,-1.366 -3.899,-4.463 V 59.492 h -7.885 v 17.257 c 0,7.643 5.349,10.74 11.784,10.74 m -31.415,-0.642 h 7.885 v -20.96 h 6.796 v -6.395 h -21.521 v 6.395 h 6.84 z m -19.871,0 h 7.885 V 59.492 h -7.885 z m -19.83,0 h 7.883 v -20.96 h 6.798 v -6.395 h -21.521 v 6.395 h 6.84 z m -21.12,0.642 c 7.479,0 11.626,-4.706 11.626,-9.253 0,-4.463 -2.294,-7.079 -6.757,-8.164 -1.812,-0.443 -2.817,-0.604 -4.186,-0.884 -1.848,-0.404 -2.654,-0.927 -2.654,-1.973 0,-1.207 1.366,-1.972 4.425,-1.972 3.341,0 6.111,1.048 7.482,1.812 v -6.8 c -1.771,-0.762 -4.667,-1.407 -7.885,-1.407 -6.799,0 -11.828,3.58 -11.828,9.132 0,4.224 2.375,6.88 6.076,7.805 2.05,0.521 3.138,0.763 4.909,1.204 1.487,0.365 2.49,0.846 2.49,1.933 0,1.368 -1.447,2.131 -4.101,2.131 -3.621,0 -7.283,-1.569 -9.052,-2.817 v 7.161 c 2.214,1.247 5.352,2.092 9.455,2.092 m -42.438,-0.642 h 7.886 V 70.435 h 0.123 l 8.284,16.412 h 9.612 V 59.492 h -7.884 v 16.331 h -0.12 L 266.36,59.492 h -9.695 v 27.355 z m -15.927,0 h 7.884 V 59.492 h -7.884 z"
   id="path5" />
		<path
   fill="#0065bd"
   d="m 444.277,45.885 -9.251,-14.121 9.133,-13.234 h -9.616 L 426.9,31.122 V 18.53 h -7.883 V 45.885 H 426.9 V 32.73 l 7.926,13.154 h 9.451 z m -46.336,0 h 7.88 V 35.869 l 9.453,-17.339 h -8.728 l -4.465,9.776 h -0.16 l -4.304,-9.776 h -8.93 l 9.253,17.339 V 45.885 Z M 371.229,31.161 v -6.798 h 3.177 c 2.134,0 3.381,1.649 3.381,3.381 0,1.729 -1.247,3.417 -3.381,3.417 z m -7.884,14.724 h 7.885 v -9.614 h 2.01 l 4.747,9.614 h 8.889 l -5.028,-8.449 c -0.521,-0.884 -1.164,-1.688 -1.527,-1.931 l 0.043,-0.16 c 2.409,-1.087 5.829,-3.137 5.829,-7.803 0,-4.908 -3.9,-9.013 -10.296,-9.013 h -12.551 v 27.356 z m -21.079,-11.263 2.698,-10.098 h 0.36 l 2.696,10.098 z m 8.77,11.263 h 8.084 L 350.915,18.53 h -11.544 l -8.166,27.355 h 8.087 l 1.486,-5.672 h 8.729 z m -34.794,0.644 c 7.482,0 11.624,-4.708 11.624,-9.251 0,-4.466 -2.294,-7.081 -6.758,-8.168 -1.811,-0.441 -2.817,-0.603 -4.183,-0.884 -1.85,-0.402 -2.654,-0.925 -2.654,-1.971 0,-1.206 1.366,-1.969 4.425,-1.969 3.339,0 6.113,1.044 7.479,1.807 v -6.796 c -1.769,-0.767 -4.663,-1.409 -7.885,-1.409 -6.796,0 -11.822,3.582 -11.822,9.13 0,4.226 2.37,6.88 6.074,7.805 2.049,0.523 3.135,0.763 4.905,1.208 1.487,0.361 2.494,0.843 2.494,1.931 0,1.366 -1.448,2.131 -4.102,2.131 -3.623,0 -7.281,-1.568 -9.052,-2.814 v 7.158 c 2.214,1.245 5.355,2.092 9.455,2.092 m -30.369,-11.907 2.693,-10.098 h 0.364 l 2.693,10.098 z m 8.768,11.263 h 8.084 L 294.52,18.53 h -11.542 l -8.168,27.355 h 8.086 l 1.488,-5.672 h 8.728 z m -53.902,0 h 7.521 V 29.19 h 0.121 l 7.081,11.625 h 0.562 l 6.758,-11.665 h 0.119 v 16.734 h 7.682 V 18.53 h -9.127 l -5.633,9.696 h -0.121 L 250.07,18.53 h -9.332 v 27.355 z"
   id="path6" />
	</g>
</g>
</svg>
