<?xml version="1.0" encoding="UTF-8" standalone="no"?>
<!-- Generator: Adobe Illustrator 15.0.0, SVG Export Plug-In . SVG Version: 6.00 Build 0)  -->

<svg
   version="1.1"
   id="Layer_1"
   x="0px"
   y="0px"
   width="669.57599"
   height="191.785"
   viewBox="0 0 669.57599 191.785"
   enable-background="new 0 0 715 226.77"
   xml:space="preserve"
   sodipodi:docname="logo_UTEF.svg"
   inkscape:version="1.4 (unknown)"
   xmlns:inkscape="http://www.inkscape.org/namespaces/inkscape"
   xmlns:sodipodi="http://sodipodi.sourceforge.net/DTD/sodipodi-0.dtd"
   xmlns="http://www.w3.org/2000/svg"
   xmlns:svg="http://www.w3.org/2000/svg"><defs
   id="defs6" /><sodipodi:namedview
   id="namedview6"
   pagecolor="#ffffff"
   bordercolor="#666666"
   borderopacity="1.0"
   inkscape:showpageshadow="2"
   inkscape:pageopacity="0.0"
   inkscape:pagecheckerboard="0"
   inkscape:deskcolor="#d1d1d1"
   inkscape:zoom="1.0839161"
   inkscape:cx="336.74194"
   inkscape:cy="95.025806"
   inkscape:window-width="1920"
   inkscape:window-height="1022"
   inkscape:window-x="0"
   inkscape:window-y="34"
   inkscape:window-maximized="1"
   inkscape:current-layer="Layer_1" />
<g
   id="g6"
   transform="translate(-19.993999,-18.427)">
	<rect
   x="19.993999"
   y="18.427"
   fill="#0065bd"
   width="191.142"
   height="191.14101"
   id="rect1" />
	<g
   id="g5">
		<path
   fill="#ffffff"
   d="m 174.915,101.317 4.897,-3.575 c -1.854,-1.984 -3.838,-4.366 -3.838,-8.204 0,-2.911 1.984,-6.088 4.5,-7.411 -1.323,-1.588 -3.44,-3.042 -6.483,-3.042 -3.969,0 -7.278,2.911 -7.278,6.747 0,2.646 1.719,4.897 3.705,5.955 -0.001,3.706 1.719,7.013 4.497,9.53 m -26.2,-26.069 4.101,-7.28 h -6.087 c 0,1.323 -1.19,2.778 -2.646,2.778 -1.588,0 -2.646,-1.058 -2.646,-2.778 h -5.428 c 0,1.588 -1.19,2.778 -2.644,2.778 -1.458,0 -2.648,-1.19 -2.648,-2.778 h -6.087 l 3.575,7.012 c 2.778,-0.263 5.424,-0.394 8.072,-0.394 4.895,0 9.129,0.264 12.438,0.662 M 137.6,139.822 c -0.662,-1.19 -1.323,-2.647 -1.323,-5.291 0,-3.442 1.984,-6.354 6.218,-8.207 2.78,-1.322 4.897,-2.513 8.603,-4.364 8.733,-4.499 11.775,-12.969 11.775,-21.703 0,-4.367 -1.19,-7.808 -2.646,-10.719 0.398,2.382 0.794,4.368 0.794,6.749 0,9.131 -3.174,15.88 -11.512,19.981 -5.293,2.646 -7.939,3.705 -11.116,5.293 -4.499,2.381 -7.014,5.427 -7.014,9.132 0,4.63 2.383,8.072 6.221,9.129 m -5.161,-1.718 c -1.456,-1.458 -3.044,-4.104 -3.044,-7.543 0,-4.367 2.911,-8.072 8.072,-10.72 4.501,-2.117 7.145,-3.177 11.116,-5.028 8.337,-4.101 10.85,-11.115 10.85,-18.656 0,-7.28 -2.382,-10.985 -4.365,-13.367 1.454,2.78 1.852,6.087 1.852,8.868 0,8.072 -2.382,15.084 -11.779,18.79 -4.763,1.984 -7.804,2.646 -11.91,4.497 -6.481,3.046 -8.995,6.618 -8.995,11.91 0,5.028 3.173,9.791 8.203,11.249 m -5.03,-1.06 c -2.248,-1.852 -5.159,-4.896 -5.159,-10.321 0,-5.689 2.38,-9.924 9.791,-13.1 4.765,-1.984 7.277,-2.911 11.777,-4.632 9.529,-3.573 11.514,-10.587 11.514,-17.468 0,-6.615 -2.382,-10.455 -5.293,-12.967 1.721,2.117 2.778,5.691 2.778,9.395 0,8.733 -3.307,13.63 -12.702,16.939 -3.838,1.19 -7.941,2.38 -12.175,3.969 -7.676,2.911 -11.644,7.145 -11.644,14.292 -0.001,7.41 5.689,12.968 11.113,13.893 m -5.291,-0.925 c -5.292,-2.647 -7.809,-8.337 -7.809,-13.367 0,-7.277 4.5,-12.438 12.042,-15.219 4.632,-1.719 8.337,-2.776 12.967,-4.365 8.999,-3.176 11.91,-7.41 11.91,-15.482 0,-4.632 -1.719,-8.601 -4.499,-10.851 0.929,1.058 1.192,2.38 1.192,3.573 0,2.25 -1.192,3.307 -2.911,3.307 -1.059,0 -2.117,-0.662 -2.25,-1.719 0.529,0.394 0.927,0.528 1.456,0.528 1.456,0 2.251,-1.059 2.251,-2.515 0,-2.25 -2.119,-3.442 -4.238,-3.706 -1.852,-0.265 -3.836,-0.265 -6.083,-0.265 -2.251,0 -4.369,0.133 -7.149,0.265 1.721,2.382 7.411,1.721 9.131,2.911 -1.456,-0.13 -2.911,-0.13 -4.367,0.264 0,0.929 -0.396,1.986 -1.323,1.986 -1.721,0 -2.513,-1.852 -3.703,-5.161 l -6.751,0.531 c -1.058,0.131 -1.456,0.529 -1.323,1.323 l 0.663,6.616 c 0,0.263 0.262,0.396 0.527,0.396 0.266,0 0.529,-0.133 0.664,-0.531 0.263,-0.529 1.058,-1.719 3.042,-1.719 2.911,0 5.161,2.647 5.293,5.689 -1.06,-1.454 -3.442,-2.779 -7.41,-2.779 -3.044,0 -5.557,0.927 -9.525,0.927 -4.238,0 -6.618,-1.588 -6.618,-3.573 0,-0.927 0.132,-1.458 0.659,-2.119 -1.719,0.794 -3.042,2.252 -3.042,4.632 0,2.911 2.117,5.957 8.337,5.957 5.689,0 8.335,-3.574 13.498,-3.574 2.38,0 3.57,1.19 3.57,2.515 0,1.19 -1.057,2.25 -2.911,2.25 -2.248,0 -3.835,-1.19 -4.63,-2.382 -0.133,-0.266 -0.263,-0.396 -0.529,-0.396 -0.398,0 -0.531,0.263 -0.531,0.528 l 0.133,6.351 c 0,0.794 0.398,1.192 1.323,1.06 3.971,-0.398 8.074,-0.927 11.91,-1.19 7.145,-0.661 12.042,-5.428 12.042,-10.719 0,-0.794 0,-1.458 -0.133,-2.25 0.664,1.059 0.927,2.117 0.927,3.439 0,4.897 -2.646,8.603 -11.115,10.853 -4.5,1.19 -7.809,1.719 -11.645,2.646 -10.19,2.382 -16.807,10.189 -16.807,18.924 0.001,8.074 5.693,15.352 13.765,16.411 M 77.788,88.348 c 0.527,-1.19 0.659,-2.25 0.659,-3.043 0,-1.721 -0.792,-3.307 -1.586,-3.969 1.984,0 3.705,1.454 3.705,3.44 0,1.851 -1.19,3.043 -2.778,3.572 m 24.348,31.493 4.232,-2.25 c 1.458,-8.864 6.75,-15.084 16.013,-17.333 -4.896,0.264 -9.129,0.396 -15.084,0.662 -6.353,0.263 -16.805,1.06 -24.085,1.588 -1.456,0.133 -2.38,-0.398 -2.778,-1.588 -0.398,-1.323 -1.19,-3.838 -1.323,-5.293 -0.133,-1.192 0.133,-1.986 1.19,-2.778 2.117,-1.458 4.234,-3.177 4.234,-6.749 0,-3.838 -3.309,-6.351 -6.351,-6.351 -1.06,0 -1.852,0.131 -2.513,0.394 -0.794,-0.527 -1.588,-0.925 -3.178,-0.925 -2.248,0 -4.232,1.456 -4.761,2.646 -3.84,-0.264 -6.882,2.515 -6.618,6.22 0.531,-0.531 1.588,-1.058 2.778,-1.058 1.456,0 2.78,1.058 2.78,2.646 0,1.456 -0.267,3.309 -0.267,5.292 0,6.09 4.897,9.266 4.897,12.44 0,1.588 -1.19,2.911 -2.778,2.911 0.927,3.309 3.969,5.028 8.072,5.028 2.648,0 5.028,-0.264 8.868,-0.264 10.98,-10e-4 15.745,1.19 16.672,4.762 m 40.757,37.45 h 1.323 c -0.133,-4.236 -1.19,-7.147 -2.911,-10.189 -0.927,-1.721 -2.117,-3.572 -3.043,-4.767 -0.531,-0.792 -1.19,-1.055 -1.984,-1.055 -0.529,0 -0.927,0.394 -0.529,1.055 1.058,1.722 2.513,4.369 4.367,8.471 -1.588,0.265 -1.986,1.059 -1.986,2.382 -0.002,2.117 1.985,4.103 4.763,4.103 M 72.625,88.876 c 0.133,-3.705 -1.453,-5.689 -3.703,-6.616 0.394,-0.133 0.925,-0.398 1.721,-0.398 1.719,0 3.57,1.458 3.57,3.707 0,1.191 -0.398,2.514 -1.588,3.307 m 84.823,93.159 c -0.529,-1.19 -2.25,-2.381 -4.366,-2.381 -1.19,0 -1.984,0.264 -2.513,0.529 0.131,-1.06 1.19,-2.25 3.309,-2.25 2.513,0.001 3.836,1.985 3.57,4.102 m -0.796,5.692 c -0.792,-0.927 -2.115,-1.721 -3.836,-1.721 -2.117,0 -3.176,0.927 -3.705,1.588 -0.264,-1.588 1.06,-3.572 3.574,-3.572 2.647,-0.001 3.967,1.851 3.967,3.705 M 62.569,124.604 c 0.925,-2.25 3.043,-3.836 5.557,-4.364 0.531,-0.797 1.19,-1.456 1.854,-1.986 l -4.5,-18.793 c -0.529,-1.321 -0.925,-2.644 -0.925,-4.5 0,-1.982 0.396,-3.968 0.396,-5.026 0,-0.927 -0.529,-1.19 -1.06,-1.19 -0.398,0 -0.66,0 -0.792,0.131 v 0.531 c 0,3.042 -1.854,5.424 -4.897,5.424 -3.044,0 -5.426,-2.513 -5.426,-5.424 0,-2.911 2.382,-5.295 5.426,-5.295 0.531,0 1.19,0 1.984,0.265 0.927,-2.38 3.838,-4.499 6.881,-4.101 -2.117,-2.647 -5.293,-4.236 -8.866,-4.236 -7.676,0 -13.761,5.559 -13.761,13.367 0,7.276 5.953,13.1 13.363,13.232 z m 20.513,28.451 c 1.984,0 4.101,-1.06 6.085,-3.042 3.572,-3.441 8.601,-8.603 11.646,-10.589 2.644,-1.719 4.365,-2.38 6.086,-2.38 1.057,0 1.854,0.266 2.647,1.06 l 4.5,-3.442 c -5.161,-3.837 -7.542,-8.865 -7.678,-15.084 -7.143,3.836 -12.304,9.132 -18.259,14.157 -1.058,0.797 -1.588,1.19 -2.515,1.19 -0.927,0 -1.719,-0.925 -3.307,-2.513 -1.323,-1.323 -1.588,-2.117 -1.588,-3.042 0,-1.588 0.526,-2.119 0.526,-4.236 0,-4.233 -3.305,-6.616 -6.481,-6.616 -2.647,0 -4.632,1.456 -5.293,3.31 -3.572,0.264 -5.824,2.911 -5.824,5.688 0,0.663 0.135,1.194 0.266,1.588 -1.323,0.796 -2.646,2.383 -2.646,4.502 0,2.249 1.19,4.366 3.177,5.027 -0.266,-0.397 -0.398,-0.927 -0.398,-1.588 0,-1.19 1.057,-2.25 2.515,-2.25 1.192,0 1.984,0.398 2.911,1.456 1.192,1.588 2.382,3.044 4.365,4.765 1.855,1.588 3.973,2.646 5.957,3.838 1.192,0.792 2.117,1.852 2.117,3.439 0,1.06 -0.794,2.25 -2.382,2.647 0.659,1.454 1.984,2.115 3.573,2.115 m -7.546,-25.804 c -0.132,-2.647 -2.115,-4.763 -4.632,-5.291 0.398,-0.268 1.062,-0.661 2.119,-0.661 1.854,0 3.309,1.586 3.309,3.305 0.001,1.325 -0.397,1.986 -0.796,2.647 m 14.689,69.604 c -0.527,-0.661 -0.792,-1.322 -0.792,-2.117 0,-1.586 1.323,-2.778 3.177,-2.778 2.911,0 4.499,3.177 8.335,3.177 4.369,0 6.485,-3.177 10.454,-3.177 1.986,0 4.765,1.192 4.765,3.705 0,0.398 -0.133,0.795 -0.398,1.06 4.499,0 7.676,-3.838 7.676,-10.19 0,-8.866 -0.266,-12.438 -0.396,-17.334 3.439,-0.133 6.747,-1.854 6.218,-7.277 -0.925,0.792 -1.984,1.19 -3.177,1.19 -1.588,0 -2.778,-1.19 -2.778,-2.911 0,-0.797 0,-1.722 0.133,-2.648 l 15.48,-0.397 c -1.454,-0.792 -2.513,-2.381 -2.513,-4.232 0,-1.322 0.53,-2.249 1.588,-2.78 -1.456,-3.042 -2.646,-5.424 -4.101,-7.674 -0.794,-1.189 -1.721,-2.382 -3.575,-2.382 -4.101,-0.133 -12.437,1.058 -16.672,2.515 -3.174,1.058 -6.218,3.44 -6.218,8.864 0,5.03 1.719,13.896 1.588,27.79 0,1.986 -0.531,2.647 -1.721,2.911 -1.06,0.265 -3.84,0.528 -5.559,0.265 -0.925,-0.135 -1.719,-0.794 -2.25,-2.778 -0.662,-2.78 -2.646,-5.559 -6.614,-5.559 -3.575,0 -6.751,2.647 -6.22,6.616 -1.721,1.06 -2.517,2.78 -2.517,4.367 0,1.588 0.531,2.91 1.192,3.705 -0.396,0.927 -0.529,1.455 -0.529,2.382 -0.001,3.308 2.91,5.687 5.424,5.687 M 71.568,130.824 c -0.794,-1.589 -2.513,-2.514 -4.5,-2.514 -0.794,0 -1.456,0.133 -1.986,0.264 0.266,-1.06 1.458,-1.984 3.179,-1.984 2.249,0 3.705,1.721 3.307,4.234 m 23.158,51.211 c -0.529,-1.19 -2.25,-2.381 -4.369,-2.381 -1.19,0 -1.982,0.264 -2.513,0.529 0.132,-1.06 1.19,-2.25 3.309,-2.25 2.513,0.001 3.836,1.985 3.573,4.102 m -11.248,11.514 c -0.396,-0.795 -0.531,-1.589 -0.531,-2.383 0,-0.794 0.135,-1.455 0.398,-2.117 -0.662,-1.191 -1.058,-2.515 -1.058,-3.97 0,-1.984 0.925,-3.836 2.248,-5.028 l -8.202,-35.597 c -1.325,-0.661 -2.648,-1.455 -3.708,-2.382 -1.852,-1.589 -2.911,-2.778 -4.632,-4.763 -0.527,-0.529 -0.925,-0.794 -1.454,-0.794 -0.794,0 -1.325,0.528 -1.059,1.588 l 1.721,8.202 3.572,2.516 9.926,42.608 z m 10.454,-5.822 c -0.796,-0.927 -2.117,-1.721 -3.838,-1.721 -2.117,0 -3.177,0.927 -3.705,1.588 -0.266,-1.588 1.057,-3.572 3.574,-3.572 2.646,-0.001 3.969,1.851 3.969,3.705 m -65.371,9.922 8.072,-6.22 9.925,-42.608 3.573,-2.516 7.939,-34.139 -1.719,-7.939 c -1.986,-0.398 -3.706,-0.927 -5.161,-1.721 z m 124.388,-0.794 c -0.529,-0.661 -0.792,-1.322 -0.792,-2.117 0,-1.586 1.323,-2.778 3.175,-2.778 2.911,0 4.499,3.177 8.337,3.177 4.367,0 6.484,-3.177 10.454,-3.177 1.986,0 4.761,1.192 4.761,3.705 0,0.398 -0.13,0.795 -0.394,1.06 4.5,0 7.674,-3.838 7.674,-10.19 0,-8.468 -0.794,-17.862 -1.719,-27.259 2.38,-0.529 4.63,-2.911 4.63,-5.955 0,-1.058 -0.396,-2.25 -1.06,-3.308 -0.659,0.927 -1.852,1.72 -3.836,2.25 -2.778,0.792 -6.22,1.19 -8.733,1.19 -5.691,0 -7.543,-0.398 -10.189,-1.19 -0.133,-3.572 -2.384,-6.485 -4.5,-8.47 3.305,1.322 4.763,1.984 10.056,1.984 16.94,0 27.392,-11.379 27.392,-24.349 0,-9.396 -5.955,-13.761 -11.381,-16.938 l -5.026,3.573 c 6.085,2.778 10.054,6.879 10.054,12.438 0,6.088 -4.896,10.456 -10.585,10.456 -6.087,0 -10.85,-4.368 -10.85,-10.323 0,-4.497 2.117,-7.806 6.085,-10.983 3.971,-3.174 10.058,-7.012 13.367,-10.584 1.721,-1.855 3.175,-4.767 3.042,-7.017 2.25,-1.057 3.971,-3.305 3.971,-6.218 0,-3.835 -3.704,-6.747 -7.674,-6.747 -2.384,0 -5.03,1.454 -6.353,3.042 2.382,0.927 4.632,4.102 4.632,7.411 0,2.78 -1.721,5.161 -3.707,7.145 -3.042,3.045 -7.012,5.295 -11.379,8.868 -5.292,4.367 -8.47,9.527 -8.47,15.35 0,8.071 6.22,15.615 16.013,15.615 3.176,0 5.689,-0.662 7.543,-1.854 -3.176,3.706 -9.131,5.56 -15.351,5.56 -5.424,0 -9.129,-0.797 -13.1,-3.705 -3.574,-2.646 -6.351,-8.866 -6.22,-13.498 -2.911,1.721 -6.349,3.307 -9.26,4.632 -4.105,1.984 -5.428,4.102 -5.428,7.674 0,4.765 3.309,8.47 4.765,11.248 1.984,3.572 2.646,6.749 2.911,10.056 0.794,8.074 5.424,11.779 13.628,11.779 3.705,0 8.603,-0.266 10.589,-0.53 0.792,3.707 1.719,8.071 1.719,11.381 0,1.986 -0.529,2.647 -1.719,2.911 -1.062,0.265 -3.84,0.528 -5.561,0.265 -0.925,-0.135 -1.719,-0.794 -2.248,-2.778 -0.663,-2.78 -2.646,-5.559 -6.616,-5.559 -3.574,0 -6.749,2.647 -6.218,6.616 -1.721,1.06 -2.517,2.78 -2.517,4.367 0,1.588 0.53,2.91 1.19,3.705 -0.394,0.927 -0.529,1.455 -0.529,2.382 0.001,3.308 2.914,5.687 5.427,5.687"
   id="path1" />
		<path
   fill="#0065bd"
   d="m 670.71,209.572 h 18.86 v -6.235 h -10.978 v -4.423 h 10.618 v -6.072 h -10.618 v -4.384 h 10.978 v -6.233 h -18.86 z m -27.507,0 h 21.475 v -6.396 h -11.82 l 11.621,-15.201 v -5.75 h -21.033 v 6.394 h 11.18 l -11.422,14.918 v 6.035 z m -19.058,-11.262 2.692,-10.094 h 0.363 l 2.696,10.094 z m 8.768,11.262 h 8.081 l -8.206,-27.348 h -11.539 l -8.163,27.348 h 8.081 l 1.491,-5.671 h 8.726 z m -37.079,-14.72 v -6.798 h 3.177 c 2.13,0 3.379,1.651 3.379,3.38 0,1.73 -1.249,3.418 -3.379,3.418 z m -7.883,14.72 h 7.883 v -9.614 h 2.014 l 4.745,9.614 h 8.886 l -5.026,-8.447 c -0.523,-0.884 -1.167,-1.69 -1.53,-1.93 l 0.039,-0.162 c 2.416,-1.085 5.834,-3.138 5.834,-7.801 0,-4.907 -3.902,-9.008 -10.294,-9.008 h -12.55 v 27.348 z m -20.225,-14.72 v -6.755 h 3.095 c 1.732,0 3.302,1.446 3.302,3.376 0,1.973 -1.569,3.379 -3.302,3.379 z m -7.882,14.72 h 7.882 v -8.85 h 4.02 c 6.396,0 10.376,-4.061 10.376,-9.088 0,-5.026 -3.98,-9.41 -10.376,-9.41 h -11.901 v 27.348 z m -34.098,0 h 10.773 l 8.207,-27.348 h -8.851 l -4.663,20.469 h -0.16 l -4.667,-20.469 h -8.847 z m -33.985,0 h 7.883 v -20.954 h 6.798 v -6.394 h -21.514 v 6.394 h 6.833 z m -23.563,0.64 c 6.436,0 11.782,-3.096 11.782,-10.736 v -17.251 h -7.883 v 16.527 c 0,3.097 -1.686,4.463 -3.899,4.463 -2.213,0 -3.902,-1.366 -3.902,-4.463 v -16.527 h -7.883 v 17.251 c 0,7.64 5.351,10.736 11.785,10.736 m -35.589,-0.64 h 10.776 l 8.204,-27.348 h -8.846 l -4.663,20.469 h -0.164 l -4.663,-20.469 h -8.849 z m -19.101,0.441 c 3.259,0 5.992,-0.846 7.641,-1.688 v -6.878 c -1.568,0.845 -3.375,1.569 -6.233,1.569 -2.854,0 -6.997,-2.172 -6.997,-7.12 0,-4.944 3.779,-7.277 7.439,-7.277 2.494,0 4.223,0.563 5.752,1.326 v -6.795 c -1.609,-0.723 -3.619,-1.286 -6.836,-1.286 -8.082,0 -14.962,5.309 -14.962,14.032 0,8.727 6.154,14.117 14.196,14.117 m -4.222,-29.438 h 8.284 l 5.508,-6.192 h -6.835 l -2.735,2.978 h -0.16 l -2.735,-2.978 h -6.836 z m -40.815,28.997 h 7.882 v -10.017 l 9.449,-17.331 h -8.725 l -4.465,9.772 h -0.162 l -4.302,-9.772 h -8.929 l 9.251,17.331 v 10.017 z m -9.813,0 -9.25,-14.117 9.129,-13.23 h -9.611 l -7.641,12.586 v -12.586 h -7.881 v 27.348 h 7.881 v -13.151 l 7.924,13.151 h 9.449 z m -41.177,0 h 7.883 v -27.348 h -7.883 z m -27.506,0 h 21.475 v -6.396 h -11.824 l 11.623,-15.201 v -5.75 h -21.033 v 6.394 h 11.182 l -11.422,14.918 v 6.035 z m -19.141,0 h 7.881 v -10.017 l 9.449,-17.331 h -8.724 l -4.466,9.772 h -0.16 l -4.304,-9.772 h -8.924 l 9.248,17.331 z m -30.16,-27.347 v 27.348 h 7.882 v -10.578 h 10.696 v -6.072 h -10.696 v -4.464 h 10.817 v -6.233 h -18.699 z"
   id="path2" />
		<path
   fill="#0065bd"
   d="m 641.314,168.621 h 7.883 v -27.347 h -7.883 z m -0.242,-28.994 h 6.677 l 5.67,-6.192 h -9.17 z m -33.695,28.994 h 7.883 v -16.407 h 0.12 l 8.281,16.407 h 9.611 v -27.347 h -7.879 v 16.328 h -0.125 l -8.202,-16.328 h -9.689 z m -21.677,0 h 17.653 v -6.474 h -9.771 V 141.274 H 585.7 Z m -21.072,-11.26 2.696,-10.096 h 0.363 l 2.692,10.096 z m 8.768,11.26 h 8.081 l -8.202,-27.347 h -11.543 l -8.164,27.347 h 8.086 l 1.486,-5.67 h 8.726 z m 2.291,-35.186 h -9.166 l -3.181,6.192 h 6.677 z m -36.916,35.186 h 7.883 V 147.67 h 6.797 v -6.396 h -21.517 v 6.396 h 6.837 z m -37.878,0 h 7.882 v -16.407 h 0.117 l 8.284,16.407 h 9.611 v -27.347 h -7.878 v 16.328 h -0.125 l -8.203,-16.328 h -9.688 z m -26.06,0 h 18.859 v -6.234 h -10.977 v -4.423 h 10.618 v -6.072 h -10.618 v -4.384 h 10.977 v -6.233 h -18.859 z m -37.88,0 h 7.52 v -16.69 h 0.121 l 7.076,11.623 h 0.564 l 6.757,-11.662 h 0.118 v 16.729 h 7.68 v -27.347 h -9.127 l -5.629,9.692 h -0.123 l -5.629,-9.692 h -9.328 z m -15.924,0 h 7.881 v -27.347 h -7.881 z m -21.354,-14.72 v -6.796 h 3.177 c 2.132,0 3.379,1.649 3.379,3.38 0,1.729 -1.247,3.416 -3.379,3.416 z m -7.883,14.72 h 7.883 v -9.611 h 2.014 l 4.745,9.611 h 8.885 l -5.025,-8.446 c -0.523,-0.884 -1.167,-1.688 -1.53,-1.93 l 0.041,-0.16 c 2.414,-1.087 5.832,-3.136 5.832,-7.801 0,-4.907 -3.902,-9.01 -10.294,-9.01 h -12.55 v 27.347 z m -26.056,0 h 18.86 v -6.234 h -10.979 v -4.423 h 10.618 v -6.072 h -10.618 v -4.384 h 10.979 v -6.233 h -18.86 z m -20.228,-14.72 v -6.755 h 3.098 c 1.729,0 3.298,1.448 3.298,3.38 0,1.969 -1.568,3.375 -3.298,3.375 z m -7.881,14.72 h 7.881 v -8.847 h 4.023 c 6.392,0 10.376,-4.062 10.376,-9.09 0,-5.026 -3.984,-9.41 -10.376,-9.41 h -11.904 z m -33.618,0 h 9.208 l 4.904,-8.767 h 0.164 l 4.586,8.767 h 9.168 l -7.803,-13.553 8.082,-13.794 h -9.37 l -4.503,9.252 h -0.16 l -4.343,-9.252 h -9.33 l 7.721,13.755 z m -23.323,0 h 18.861 v -6.234 h -10.98 v -4.423 h 10.617 v -6.072 h -10.617 v -4.384 h 10.98 v -6.233 h -18.861 z m -31.97,-11.26 2.696,-10.096 h 0.359 l 2.695,10.096 z m 8.766,11.26 h 8.083 l -8.202,-27.347 H 245.82 l -8.164,27.347 h 8.083 l 1.489,-5.67 h 8.726 z"
   id="path3" />
		<path
   fill="#0065bd"
   d="m 455.369,127.673 h 18.863 v -6.234 H 463.25 v -4.423 h 10.619 v -6.072 H 463.25 v -4.384 h 10.982 v -6.234 h -18.863 z m 5.711,-28.996 h 6.677 l 5.671,-6.19 h -9.171 z m -10.816,28.996 -9.249,-14.117 9.128,-13.23 h -9.611 l -7.641,12.587 v -12.587 h -7.883 v 27.347 h 7.883 v -13.15 l 7.922,13.15 z m -38.845,0.44 c 3.256,0 5.991,-0.843 7.639,-1.688 v -6.878 c -1.567,0.845 -3.378,1.569 -6.232,1.569 -2.856,0 -6.997,-2.172 -6.997,-7.118 0,-4.946 3.779,-7.277 7.438,-7.277 2.493,0 4.224,0.562 5.752,1.327 v -6.798 c -1.608,-0.722 -3.622,-1.286 -6.837,-1.286 -8.084,0 -14.958,5.309 -14.958,14.034 0,8.727 6.15,14.115 14.195,14.115 m -28.513,-0.44 h 7.883 v -27.347 h -7.883 z m -33.941,0 h 7.883 v -16.407 h 0.123 l 8.282,16.407 h 9.611 v -27.347 h -7.883 v 16.327 h -0.121 l -8.202,-16.327 h -9.693 z M 317.08,100.326 v 27.347 h 7.882 v -10.698 h 8.082 v 10.698 h 7.881 v -27.347 h -7.881 v 10.458 h -8.082 v -10.458 z m -13.592,27.787 c 3.254,0 5.99,-0.843 7.639,-1.688 v -6.878 c -1.567,0.845 -3.378,1.569 -6.234,1.569 -2.854,0 -6.996,-2.172 -6.996,-7.118 0,-4.946 3.781,-7.277 7.441,-7.277 2.493,0 4.222,0.562 5.748,1.327 v -6.798 c -1.607,-0.722 -3.619,-1.286 -6.837,-1.286 -8.081,0 -14.957,5.309 -14.957,14.034 0,8.727 6.151,14.115 14.196,14.115 m -38.646,-0.44 h 18.861 v -6.234 h -10.979 v -4.423 h 10.616 v -6.072 h -10.616 v -4.384 h 10.979 v -6.234 h -18.861 z m -19.825,0 h 7.883 v -20.951 h 6.794 v -6.396 H 238.18 v 6.396 h 6.836 v 20.951 z"
   id="path4" />
		<path
   fill="#0065bd"
   d="m 352.707,86.723 h 10.778 l 8.202,-27.345 h -8.846 l -4.666,20.469 h -0.159 l -4.665,-20.469 h -8.847 z m -25.372,-11.261 2.692,-10.093 h 0.361 l 2.694,10.093 z m 8.765,11.261 h 8.083 l -8.204,-27.345 h -11.543 l -8.16,27.345 h 8.082 l 1.486,-5.67 h 8.729 z m -34.623,0 h 7.881 V 65.771 h 6.796 v -6.394 h -21.516 v 6.394 h 6.839 z m -21.114,0.643 c 7.48,0 11.623,-4.704 11.623,-9.248 0,-4.466 -2.293,-7.079 -6.757,-8.164 -1.809,-0.443 -2.813,-0.603 -4.183,-0.886 -1.85,-0.4 -2.654,-0.925 -2.654,-1.969 0,-1.208 1.368,-1.973 4.425,-1.973 3.336,0 6.111,1.048 7.477,1.811 v -6.796 c -1.768,-0.765 -4.663,-1.409 -7.879,-1.409 -6.798,0 -11.824,3.581 -11.824,9.129 0,4.222 2.373,6.876 6.072,7.803 2.053,0.521 3.137,0.763 4.905,1.206 1.491,0.361 2.493,0.843 2.493,1.93 0,1.368 -1.447,2.131 -4.101,2.131 -3.619,0 -7.278,-1.569 -9.049,-2.813 v 7.157 c 2.214,1.246 5.351,2.091 9.452,2.091 m -28.108,0 c 6.435,0 11.783,-3.096 11.783,-10.737 V 59.377 h -7.881 v 16.528 c 0,3.097 -1.691,4.464 -3.902,4.464 -2.212,0 -3.902,-1.368 -3.902,-4.464 V 59.377 h -7.881 v 17.252 c 0.001,7.641 5.349,10.737 11.783,10.737 m -4.183,-29.637 h 6.677 l 5.67,-6.193 h -9.17 z"
   id="path5" />
	</g>
</g>
</svg>
