<?xml version="1.0" encoding="UTF-8" standalone="no"?>
<!-- Generator: Adobe Illustrator 15.0.0, SVG Export Plug-In . SVG Version: 6.00 Build 0)  -->

<svg
   version="1.1"
   id="Layer_1"
   x="0px"
   y="0px"
   width="539.00598"
   height="192.843"
   viewBox="0 0 539.00598 192.843"
   enable-background="new 0 0 588 226.77"
   xml:space="preserve"
   sodipodi:docname="institute_of_physical_education_and_sport.svg"
   inkscape:version="1.4 (unknown)"
   xmlns:inkscape="http://www.inkscape.org/namespaces/inkscape"
   xmlns:sodipodi="http://sodipodi.sourceforge.net/DTD/sodipodi-0.dtd"
   xmlns="http://www.w3.org/2000/svg"
   xmlns:svg="http://www.w3.org/2000/svg"><defs
   id="defs7" /><sodipodi:namedview
   id="namedview7"
   pagecolor="#ffffff"
   bordercolor="#666666"
   borderopacity="1.0"
   inkscape:showpageshadow="2"
   inkscape:pageopacity="0.0"
   inkscape:pagecheckerboard="0"
   inkscape:deskcolor="#d1d1d1"
   inkscape:zoom="1.3180272"
   inkscape:cx="274.6529"
   inkscape:cy="94.83871"
   inkscape:window-width="1920"
   inkscape:window-height="1022"
   inkscape:window-x="0"
   inkscape:window-y="34"
   inkscape:window-maximized="1"
   inkscape:current-layer="Layer_1" />
<g
   id="g7"
   transform="translate(-19.993999,-18.106)">
	<rect
   x="19.993999"
   y="18.747999"
   fill="#0065bd"
   width="191.556"
   height="191.556"
   id="rect1" />
	<g
   id="g6">
		<path
   fill="#ffffff"
   d="m 175.251,101.818 4.908,-3.583 c -1.855,-1.988 -3.846,-4.376 -3.846,-8.222 0,-2.917 1.991,-6.101 4.509,-7.426 -1.326,-1.592 -3.449,-3.049 -6.498,-3.049 -3.979,0 -7.295,2.917 -7.295,6.762 0,2.651 1.725,4.908 3.715,5.968 0,3.713 1.724,7.027 4.507,9.55 m -26.255,-26.126 4.11,-7.296 h -6.101 c 0,1.326 -1.195,2.785 -2.656,2.785 -1.587,0 -2.649,-1.06 -2.649,-2.785 h -5.438 c 0,1.592 -1.193,2.785 -2.652,2.785 -1.458,0 -2.653,-1.193 -2.653,-2.785 h -6.101 l 3.582,7.028 c 2.787,-0.264 5.436,-0.395 8.089,-0.395 4.906,0 9.153,0.264 12.469,0.663 m -11.142,64.714 c -0.663,-1.192 -1.326,-2.653 -1.326,-5.303 0,-3.449 1.989,-6.366 6.234,-8.224 2.784,-1.326 4.904,-2.519 8.619,-4.375 8.752,-4.509 11.802,-12.997 11.802,-21.749 0,-4.376 -1.194,-7.825 -2.651,-10.743 0.395,2.388 0.794,4.378 0.794,6.764 0,9.151 -3.181,15.915 -11.537,20.025 -5.303,2.651 -7.958,3.713 -11.142,5.305 -4.505,2.386 -7.027,5.438 -7.027,9.151 0.001,4.64 2.386,8.09 6.234,9.149 m -5.171,-1.722 c -1.457,-1.46 -3.048,-4.111 -3.048,-7.56 0,-4.376 2.916,-8.089 8.087,-10.742 4.509,-2.122 7.161,-3.184 11.138,-5.039 8.357,-4.11 10.875,-11.14 10.875,-18.697 0,-7.295 -2.385,-11.008 -4.376,-13.396 1.459,2.787 1.858,6.101 1.858,8.887 0,8.089 -2.386,15.117 -11.803,18.83 -4.775,1.989 -7.825,2.651 -11.936,4.507 -6.5,3.053 -9.018,6.633 -9.018,11.936 0,5.04 3.184,9.814 8.223,11.274 m -5.039,-1.062 c -2.256,-1.855 -5.174,-4.906 -5.174,-10.344 0,-5.702 2.388,-9.945 9.814,-13.128 4.777,-1.989 7.295,-2.918 11.805,-4.643 9.548,-3.58 11.537,-10.609 11.537,-17.506 0,-6.629 -2.388,-10.477 -5.305,-12.996 1.725,2.122 2.787,5.704 2.787,9.415 0,8.752 -3.316,13.66 -12.731,16.977 -3.846,1.193 -7.956,2.385 -12.201,3.977 -7.69,2.917 -11.67,7.16 -11.67,14.323 -0.002,7.427 5.7,12.998 11.138,13.925 m -5.305,-0.927 c -5.305,-2.653 -7.825,-8.355 -7.825,-13.396 0,-7.293 4.509,-12.465 12.066,-15.251 4.646,-1.723 8.357,-2.782 12.999,-4.374 9.018,-3.184 11.936,-7.426 11.936,-15.516 0,-4.642 -1.725,-8.62 -4.509,-10.874 0.927,1.06 1.192,2.386 1.192,3.581 0,2.254 -1.192,3.314 -2.917,3.314 -1.062,0 -2.124,-0.663 -2.255,-1.723 0.53,0.395 0.929,0.53 1.461,0.53 1.457,0 2.252,-1.062 2.252,-2.521 0,-2.255 -2.122,-3.449 -4.243,-3.713 -1.857,-0.266 -3.848,-0.266 -6.101,-0.266 -2.253,0 -4.376,0.133 -7.161,0.266 1.723,2.388 7.427,1.725 9.149,2.917 -1.461,-0.131 -2.917,-0.131 -4.378,0.264 0,0.931 -0.395,1.991 -1.324,1.991 -1.725,0 -2.521,-1.855 -3.713,-5.172 l -6.764,0.532 c -1.062,0.131 -1.459,0.53 -1.328,1.326 l 0.665,6.631 c 0,0.264 0.266,0.397 0.532,0.397 0.264,0 0.528,-0.133 0.661,-0.532 0.266,-0.53 1.063,-1.723 3.05,-1.723 2.917,0 5.172,2.654 5.303,5.702 -1.06,-1.457 -3.445,-2.785 -7.426,-2.785 -3.048,0 -5.567,0.929 -9.546,0.929 -4.243,0 -6.631,-1.591 -6.631,-3.58 0,-0.929 0.133,-1.46 0.663,-2.124 -1.725,0.796 -3.05,2.256 -3.05,4.642 0,2.917 2.122,5.97 8.353,5.97 5.702,0 8.357,-3.582 13.527,-3.582 2.387,0 3.582,1.192 3.582,2.52 0,1.193 -1.063,2.255 -2.917,2.255 -2.256,0 -3.844,-1.193 -4.642,-2.388 -0.133,-0.266 -0.266,-0.397 -0.532,-0.397 -0.395,0 -0.53,0.264 -0.53,0.53 l 0.135,6.365 c 0,0.796 0.395,1.195 1.326,1.062 3.977,-0.399 8.087,-0.929 11.935,-1.193 7.161,-0.663 12.069,-5.44 12.069,-10.743 0,-0.796 0,-1.46 -0.133,-2.254 0.661,1.062 0.927,2.122 0.927,3.447 0,4.908 -2.651,8.621 -11.138,10.875 -4.511,1.193 -7.825,1.723 -11.673,2.651 -10.211,2.388 -16.839,10.211 -16.839,18.965 0.001,8.09 5.703,15.384 13.792,16.445 M 77.913,88.82 c 0.528,-1.193 0.661,-2.254 0.661,-3.05 0,-1.725 -0.794,-3.314 -1.59,-3.977 1.989,0 3.713,1.457 3.713,3.447 10e-4,1.856 -1.192,3.051 -2.784,3.58 m 24.401,31.562 4.241,-2.255 c 1.461,-8.883 6.764,-15.117 16.048,-17.371 -4.906,0.264 -9.151,0.397 -15.117,0.663 -6.367,0.264 -16.841,1.062 -24.137,1.591 -1.458,0.133 -2.386,-0.399 -2.785,-1.591 -0.398,-1.326 -1.192,-3.846 -1.326,-5.305 -0.133,-1.195 0.133,-1.99 1.193,-2.784 2.122,-1.461 4.243,-3.184 4.243,-6.764 0,-3.846 -3.316,-6.365 -6.365,-6.365 -1.062,0 -1.855,0.131 -2.519,0.395 -0.796,-0.528 -1.591,-0.927 -3.185,-0.927 -2.252,0 -4.241,1.458 -4.771,2.651 -3.848,-0.264 -6.896,2.521 -6.633,6.234 0.532,-0.532 1.592,-1.06 2.785,-1.06 1.458,0 2.786,1.06 2.786,2.651 0,1.459 -0.268,3.316 -0.268,5.303 0,6.103 4.908,9.286 4.908,12.467 0,1.591 -1.193,2.917 -2.784,2.917 0.929,3.316 3.977,5.039 8.089,5.039 2.653,0 5.039,-0.265 8.887,-0.265 11.006,0.002 15.781,1.196 16.71,4.776 m 40.844,37.531 h 1.33 c -0.137,-4.245 -1.195,-7.163 -2.917,-10.211 -0.931,-1.725 -2.124,-3.58 -3.052,-4.777 -0.53,-0.794 -1.195,-1.058 -1.989,-1.058 -0.532,0 -0.929,0.395 -0.532,1.058 1.063,1.725 2.521,4.378 4.378,8.488 -1.592,0.266 -1.99,1.062 -1.99,2.388 -0.001,2.121 1.989,4.112 4.772,4.112 M 72.739,89.35 c 0.133,-3.713 -1.457,-5.702 -3.711,-6.63 0.395,-0.133 0.927,-0.399 1.725,-0.399 1.723,0 3.578,1.46 3.578,3.715 0,1.193 -0.399,2.519 -1.592,3.314 m 85.008,93.361 c -0.53,-1.193 -2.254,-2.386 -4.376,-2.386 -1.195,0 -1.989,0.264 -2.521,0.53 0.133,-1.062 1.194,-2.255 3.316,-2.255 2.519,0.001 3.844,1.989 3.581,4.111 m -0.796,5.703 c -0.796,-0.929 -2.12,-1.725 -3.844,-1.725 -2.124,0 -3.184,0.929 -3.715,1.592 -0.264,-1.592 1.062,-3.58 3.583,-3.58 2.65,0 3.976,1.856 3.976,3.713 M 62.662,125.155 c 0.927,-2.255 3.05,-3.845 5.569,-4.375 0.532,-0.798 1.192,-1.458 1.857,-1.99 L 65.579,99.958 c -0.53,-1.324 -0.927,-2.649 -0.927,-4.509 0,-1.987 0.397,-3.978 0.397,-5.037 0,-0.929 -0.53,-1.193 -1.062,-1.193 -0.399,0 -0.661,0 -0.794,0.131 v 0.532 c 0,3.048 -1.857,5.436 -4.908,5.436 -3.05,0 -5.438,-2.519 -5.438,-5.436 0,-2.917 2.387,-5.307 5.438,-5.307 0.532,0 1.193,0 1.989,0.266 0.929,-2.386 3.846,-4.509 6.896,-4.11 -2.122,-2.653 -5.305,-4.245 -8.885,-4.245 -7.692,0 -13.791,5.571 -13.791,13.396 0,7.292 5.966,13.128 13.393,13.261 z m 20.556,28.513 c 1.988,0 4.11,-1.062 6.099,-3.049 3.58,-3.449 8.619,-8.621 11.671,-10.611 2.649,-1.723 4.374,-2.386 6.099,-2.386 1.062,0 1.86,0.266 2.654,1.062 l 4.509,-3.449 c -5.172,-3.846 -7.557,-8.885 -7.694,-15.116 -7.159,3.844 -12.331,9.15 -18.298,14.188 -1.06,0.798 -1.591,1.193 -2.52,1.193 -0.929,0 -1.723,-0.927 -3.314,-2.519 -1.326,-1.326 -1.592,-2.122 -1.592,-3.049 0,-1.592 0.528,-2.123 0.528,-4.245 0,-4.243 -3.312,-6.631 -6.496,-6.631 -2.653,0 -4.642,1.459 -5.305,3.316 -3.581,0.265 -5.837,2.918 -5.837,5.7 0,0.665 0.135,1.196 0.266,1.592 -1.326,0.798 -2.651,2.388 -2.651,4.511 0,2.255 1.192,4.376 3.183,5.039 -0.266,-0.399 -0.399,-0.929 -0.399,-1.592 0,-1.192 1.06,-2.255 2.521,-2.255 1.195,0 1.989,0.399 2.917,1.459 1.195,1.592 2.387,3.051 4.374,4.775 1.859,1.592 3.981,2.651 5.97,3.846 1.195,0.794 2.122,1.855 2.122,3.447 0,1.062 -0.796,2.255 -2.388,2.653 0.662,1.458 1.989,2.121 3.581,2.121 m -7.561,-25.859 c -0.133,-2.653 -2.12,-4.773 -4.642,-5.304 0.399,-0.268 1.064,-0.662 2.124,-0.662 1.857,0 3.316,1.589 3.316,3.312 0,1.327 -0.399,1.991 -0.798,2.654 m 14.719,69.754 c -0.528,-0.663 -0.793,-1.325 -0.793,-2.121 0,-1.59 1.326,-2.785 3.183,-2.785 2.917,0 4.509,3.184 8.353,3.184 4.378,0 6.5,-3.184 10.477,-3.184 1.991,0 4.777,1.195 4.777,3.714 0,0.398 -0.137,0.796 -0.399,1.062 4.509,0 7.688,-3.847 7.688,-10.213 0,-8.885 -0.262,-12.466 -0.395,-17.371 3.449,-0.133 6.762,-1.857 6.23,-7.294 -0.927,0.794 -1.987,1.193 -3.18,1.193 -1.591,0 -2.786,-1.193 -2.786,-2.918 0,-0.798 0,-1.725 0.131,-2.653 l 15.518,-0.398 c -1.458,-0.794 -2.518,-2.386 -2.518,-4.241 0,-1.326 0.53,-2.255 1.591,-2.787 -1.46,-3.048 -2.653,-5.436 -4.11,-7.69 -0.798,-1.192 -1.725,-2.387 -3.583,-2.387 -4.112,-0.134 -12.465,1.06 -16.71,2.521 -3.181,1.06 -6.231,3.447 -6.231,8.883 0,5.041 1.723,13.926 1.589,27.85 0,1.991 -0.53,2.654 -1.723,2.918 -1.062,0.266 -3.848,0.529 -5.571,0.266 -0.927,-0.135 -1.723,-0.796 -2.254,-2.784 -0.663,-2.786 -2.651,-5.571 -6.628,-5.571 -3.583,0 -6.766,2.654 -6.234,6.631 -1.725,1.062 -2.522,2.786 -2.522,4.376 0,1.592 0.532,2.918 1.195,3.714 -0.397,0.929 -0.53,1.458 -0.53,2.387 0,3.313 2.917,5.698 5.435,5.698 M 71.68,131.389 c -0.796,-1.592 -2.519,-2.519 -4.509,-2.519 -0.796,0 -1.458,0.133 -1.99,0.264 0.266,-1.062 1.46,-1.988 3.185,-1.988 2.254,0 3.713,1.724 3.314,4.243 m 23.208,51.322 c -0.53,-1.193 -2.254,-2.386 -4.378,-2.386 -1.193,0 -1.987,0.264 -2.519,0.53 0.133,-1.062 1.193,-2.255 3.316,-2.255 2.519,0.001 3.845,1.989 3.581,4.111 m -11.273,11.538 c -0.397,-0.796 -0.532,-1.592 -0.532,-2.388 0,-0.796 0.135,-1.458 0.399,-2.121 -0.663,-1.194 -1.06,-2.521 -1.06,-3.979 0,-1.988 0.927,-3.844 2.252,-5.039 l -8.22,-35.673 c -1.328,-0.663 -2.653,-1.459 -3.715,-2.388 -1.855,-1.592 -2.917,-2.784 -4.642,-4.773 -0.528,-0.529 -0.927,-0.796 -1.457,-0.796 -0.796,0 -1.328,0.53 -1.062,1.592 l 1.725,8.221 3.58,2.521 9.947,42.701 z m 10.477,-5.835 c -0.798,-0.929 -2.122,-1.725 -3.846,-1.725 -2.122,0 -3.183,0.929 -3.713,1.592 -0.266,-1.592 1.06,-3.58 3.583,-3.58 2.65,0 3.976,1.856 3.976,3.713 m -65.512,9.945 8.089,-6.233 9.947,-42.701 3.581,-2.521 7.956,-34.213 -1.723,-7.957 c -1.991,-0.399 -3.713,-0.929 -5.172,-1.725 z m 124.657,-0.796 c -0.53,-0.663 -0.796,-1.325 -0.796,-2.121 0,-1.59 1.326,-2.785 3.184,-2.785 2.917,0 4.509,3.184 8.355,3.184 4.375,0 6.498,-3.184 10.475,-3.184 1.99,0 4.775,1.195 4.775,3.714 0,0.398 -0.133,0.796 -0.397,1.062 4.509,0 7.69,-3.847 7.69,-10.213 0,-8.486 -0.794,-17.901 -1.725,-27.318 2.388,-0.53 4.642,-2.917 4.642,-5.968 0,-1.06 -0.395,-2.255 -1.06,-3.314 -0.665,0.929 -1.857,1.723 -3.844,2.255 -2.786,0.794 -6.233,1.192 -8.756,1.192 -5.702,0 -7.558,-0.398 -10.209,-1.192 -0.135,-3.58 -2.388,-6.5 -4.509,-8.488 3.314,1.326 4.773,1.988 10.078,1.988 16.975,0 27.451,-11.403 27.451,-24.4 0,-9.417 -5.968,-13.792 -11.405,-16.975 l -5.039,3.58 c 6.101,2.785 10.078,6.895 10.078,12.466 0,6.101 -4.904,10.479 -10.605,10.479 -6.103,0 -10.876,-4.378 -10.876,-10.346 0,-4.507 2.12,-7.824 6.099,-11.007 3.979,-3.181 10.08,-7.027 13.396,-10.608 1.725,-1.859 3.181,-4.777 3.048,-7.031 2.254,-1.06 3.979,-3.312 3.979,-6.232 0,-3.844 -3.711,-6.762 -7.69,-6.762 -2.389,0 -5.039,1.457 -6.369,3.049 2.39,0.929 4.644,4.11 4.644,7.426 0,2.786 -1.723,5.172 -3.713,7.161 -3.05,3.052 -7.027,5.307 -11.405,8.887 -5.305,4.376 -8.488,9.548 -8.488,15.383 0,8.09 6.233,15.648 16.045,15.648 3.184,0 5.704,-0.662 7.562,-1.857 -3.183,3.714 -9.149,5.571 -15.383,5.571 -5.44,0 -9.151,-0.798 -13.128,-3.714 -3.582,-2.651 -6.366,-8.885 -6.233,-13.526 -2.917,1.725 -6.367,3.314 -9.284,4.642 -4.112,1.988 -5.438,4.11 -5.438,7.69 0,4.775 3.316,8.488 4.773,11.272 1.99,3.58 2.653,6.764 2.917,10.078 0.797,8.091 5.439,11.805 13.66,11.805 3.715,0 8.62,-0.267 10.61,-0.532 0.796,3.716 1.725,8.09 1.725,11.405 0,1.991 -0.532,2.654 -1.725,2.918 -1.06,0.266 -3.846,0.529 -5.569,0.266 -0.927,-0.135 -1.725,-0.796 -2.256,-2.784 -0.661,-2.786 -2.651,-5.571 -6.629,-5.571 -3.582,0 -6.763,2.654 -6.233,6.631 -1.725,1.062 -2.521,2.786 -2.521,4.376 0,1.592 0.53,2.918 1.195,3.714 -0.399,0.929 -0.532,1.458 -0.532,2.387 -10e-4,3.314 2.918,5.699 5.436,5.699"
   id="path1" />
		<path
   fill="#0065bd"
   d="M 540.099,210.308 H 559 v -6.248 h -11.002 v -4.434 h 10.643 v -6.085 h -10.643 v -4.394 H 559 V 182.9 h -18.901 z m -19.667,0.641 c 6.449,0 11.809,-3.103 11.809,-10.76 V 182.9 h -7.9 v 16.563 c 0,3.104 -1.69,4.473 -3.908,4.473 -2.216,0 -3.907,-1.369 -3.907,-4.473 V 182.9 h -7.899 v 17.289 c -0.002,7.658 5.357,10.76 11.805,10.76 m -28.369,0 c 4.874,0 8.259,-1.489 9.911,-2.338 v -12.129 h -7.696 v 7.414 c -0.564,0.122 -1.169,0.202 -1.773,0.202 -3.063,0 -6.448,-2.337 -6.448,-7.497 0,-5.56 2.981,-8.301 8.099,-8.301 2.824,0 5.24,0.968 6.732,1.773 v -6.448 c -1.613,-0.726 -4.272,-1.732 -7.897,-1.732 -9.312,0 -15.559,5.763 -15.559,14.708 0,8.95 6.97,14.348 14.631,14.348 m -34.54,-11.928 2.699,-10.115 h 0.363 l 2.702,10.115 z m 8.785,11.287 h 8.103 l -8.222,-27.407 h -11.566 l -8.181,27.407 h 8.099 l 1.494,-5.684 h 8.744 z m -37.157,-14.752 v -6.812 h 3.184 c 2.138,0 3.387,1.654 3.387,3.387 0,1.734 -1.249,3.426 -3.387,3.426 h -3.184 z m -7.899,14.752 h 7.899 v -9.635 h 2.015 l 4.755,9.635 h 8.907 l -5.035,-8.466 c -0.524,-0.886 -1.17,-1.691 -1.533,-1.934 l 0.041,-0.162 c 2.417,-1.088 5.843,-3.145 5.843,-7.818 0,-4.917 -3.909,-9.027 -10.314,-9.027 h -12.577 v 27.407 z m -20.27,-14.752 v -6.77 h 3.104 c 1.73,0 3.303,1.449 3.303,3.383 0,1.977 -1.572,3.387 -3.303,3.387 z m -7.899,14.752 h 7.899 v -8.868 h 4.03 c 6.408,0 10.396,-4.069 10.396,-9.108 0,-5.037 -3.988,-9.431 -10.396,-9.431 h -11.93 v 27.407 z m -44.128,0 h 7.899 v -16.443 h 0.119 l 8.305,16.443 h 9.63 V 182.9 h -7.897 v 16.362 H 366.89 L 358.669,182.9 h -9.714 z m -15.958,0 h 7.897 V 182.9 h -7.897 z m -29.782,0.641 c 6.447,0 11.807,-3.103 11.807,-10.76 V 182.9 h -7.899 v 16.563 c 0,3.104 -1.689,4.473 -3.907,4.473 -2.217,0 -3.908,-1.369 -3.908,-4.473 V 182.9 h -7.9 v 17.289 c -0.002,7.658 5.359,10.76 11.807,10.76 m -31.473,-0.641 h 7.897 v -21 h 6.811 V 182.9 h -21.56 v 6.407 h 6.852 z m -17.976,0.441 c 3.264,0 6.005,-0.848 7.657,-1.692 v -6.893 c -1.572,0.847 -3.385,1.572 -6.248,1.572 -2.862,0 -7.012,-2.176 -7.012,-7.135 0,-4.955 3.79,-7.294 7.458,-7.294 2.497,0 4.229,0.565 5.761,1.33 v -6.811 c -1.611,-0.724 -3.625,-1.288 -6.852,-1.288 -8.099,0 -14.99,5.32 -14.99,14.062 0.001,8.748 6.168,14.149 14.226,14.149"
   id="path2" />
		<path
   fill="#0065bd"
   d="m 466.39,169.268 h 7.899 v -20.996 h 6.812 v -6.41 H 459.54 v 6.41 h 6.85 z m -25.752,-14.751 v -6.811 h 3.183 c 2.138,0 3.387,1.652 3.387,3.387 0,1.732 -1.249,3.424 -3.387,3.424 z m -7.9,14.751 h 7.899 v -9.632 h 2.014 l 4.756,9.632 h 8.908 l -5.037,-8.465 c -0.523,-0.886 -1.169,-1.691 -1.533,-1.934 l 0.041,-0.16 c 2.419,-1.09 5.843,-3.143 5.843,-7.817 0,-4.918 -3.908,-9.03 -10.314,-9.03 h -12.576 v 27.406 z m -20.109,-6.367 c -3.504,0 -5.279,-2.822 -5.279,-7.335 0,-4.515 1.775,-7.335 5.279,-7.335 3.547,0 5.199,2.82 5.199,7.335 0,4.513 -1.652,7.335 -5.199,7.335 m 0,7.012 c 8.182,0 13.664,-5.199 13.664,-14.347 0,-9.149 -5.482,-14.349 -13.664,-14.349 -8.14,0 -13.742,5.199 -13.742,14.349 0,9.148 5.602,14.347 13.742,14.347 m -32.4,-15.396 v -6.77 h 3.102 c 1.734,0 3.307,1.451 3.307,3.387 0,1.973 -1.572,3.383 -3.307,3.383 z m -7.9,14.751 h 7.899 v -8.865 h 4.028 c 6.409,0 10.398,-4.071 10.398,-9.11 0,-5.037 -3.989,-9.431 -10.398,-9.431 h -11.928 v 27.406 z m -18.013,0.645 c 7.493,0 11.646,-4.717 11.646,-9.269 0,-4.474 -2.3,-7.096 -6.771,-8.184 -1.812,-0.441 -2.822,-0.604 -4.19,-0.886 -1.854,-0.402 -2.659,-0.927 -2.659,-1.975 0,-1.208 1.368,-1.975 4.433,-1.975 3.344,0 6.126,1.048 7.495,1.812 v -6.809 c -1.771,-0.769 -4.676,-1.412 -7.9,-1.412 -6.809,0 -11.846,3.588 -11.846,9.147 0,4.233 2.376,6.893 6.084,7.819 2.057,0.524 3.144,0.765 4.917,1.21 1.49,0.362 2.497,0.845 2.497,1.935 0,1.368 -1.448,2.135 -4.11,2.135 -3.627,0 -7.295,-1.572 -9.066,-2.819 v 7.17 c 2.216,1.252 5.36,2.101 9.47,2.101 m -42.075,-7.458 v -13.781 h 1.652 c 3.787,0 6.689,2.46 6.689,6.893 0,4.433 -2.902,6.889 -6.689,6.889 h -1.652 z m -7.899,6.813 h 10.84 c 7.86,0 14.067,-5.439 14.067,-13.701 0,-8.262 -6.207,-13.705 -14.067,-13.705 h -10.84 z m -34.012,0 h 7.899 v -16.442 h 0.119 l 8.305,16.442 h 9.63 v -27.406 h -7.897 v 16.364 h -0.121 l -8.221,-16.364 h -9.714 z m -21.118,-11.285 2.703,-10.117 h 0.36 l 2.7,10.117 z m 8.786,11.285 h 8.101 l -8.22,-27.406 h -11.568 l -8.182,27.406 h 8.101 l 1.492,-5.683 h 8.744 z"
   id="path3" />
		<path
   fill="#0065bd"
   d="m 456.597,128.23 h 7.898 v -16.442 h 0.119 l 8.304,16.442 h 9.631 v -27.406 h -7.898 v 16.362 h -0.119 l -8.222,-16.362 h -9.713 z m -20.109,-6.368 c -3.508,0 -5.281,-2.822 -5.281,-7.335 0,-4.515 1.773,-7.334 5.281,-7.334 3.545,0 5.197,2.82 5.197,7.334 10e-4,4.513 -1.652,7.335 -5.197,7.335 m 0,7.012 c 8.181,0 13.66,-5.197 13.66,-14.347 0,-9.147 -5.479,-14.348 -13.66,-14.348 -8.143,0 -13.746,5.201 -13.746,14.348 0,9.15 5.604,14.347 13.746,14.347 m -28.091,-0.644 h 7.899 v -27.406 h -7.899 z m -19.87,0 h 7.899 v -20.997 h 6.812 v -6.41 h -21.56 v 6.41 h 6.848 v 20.997 z m -23.855,-11.286 2.7,-10.115 h 0.362 l 2.698,10.115 z m 8.785,11.286 h 8.102 l -8.221,-27.406 h -11.567 l -8.182,27.406 h 8.102 l 1.487,-5.685 h 8.748 z m -30.951,0.443 c 3.266,0 6.005,-0.845 7.657,-1.691 v -6.893 c -1.57,0.847 -3.385,1.571 -6.245,1.571 -2.863,0 -7.012,-2.176 -7.012,-7.133 0,-4.957 3.787,-7.293 7.453,-7.293 2.499,0 4.233,0.563 5.765,1.33 v -6.812 c -1.613,-0.723 -3.627,-1.289 -6.852,-1.289 -8.101,0 -14.989,5.321 -14.989,14.065 0,8.744 6.163,14.145 14.223,14.145 m -32.279,0.201 c 6.449,0 11.807,-3.104 11.807,-10.761 v -17.289 h -7.897 v 16.565 c 0,3.104 -1.691,4.473 -3.909,4.473 -2.217,0 -3.91,-1.369 -3.91,-4.473 v -16.565 h -7.899 v 17.289 c -0.002,7.658 5.359,10.761 11.808,10.761 m -35.061,-7.456 v -13.781 h 1.652 c 3.788,0 6.689,2.458 6.689,6.891 0,4.433 -2.901,6.891 -6.689,6.891 h -1.652 z m -7.9,6.812 h 10.84 c 7.858,0 14.064,-5.441 14.064,-13.703 0,-8.261 -6.206,-13.703 -14.064,-13.703 h -10.84 z m -26.114,0 h 18.9 v -6.247 h -11.001 v -4.433 h 10.641 v -6.085 h -10.641 v -4.394 h 11.001 v -6.248 h -18.9 z"
   id="path4" />
		<path
   fill="#0065bd"
   d="M 493.107,87.191 H 510.8 v -6.49 h -9.793 V 59.787 h -7.899 v 27.404 z m -21.118,-11.284 2.703,-10.115 h 0.361 l 2.7,10.115 z m 8.788,11.284 h 8.099 l -8.22,-27.404 h -11.568 l -8.182,27.404 h 8.104 l 1.49,-5.682 h 8.744 z m -30.949,0.444 c 3.261,0 6.002,-0.847 7.656,-1.693 v -6.891 c -1.571,0.847 -3.387,1.57 -6.249,1.57 -2.86,0 -7.012,-2.176 -7.012,-7.131 0,-4.957 3.789,-7.293 7.458,-7.293 2.497,0 4.231,0.562 5.762,1.328 v -6.81 c -1.613,-0.726 -3.627,-1.291 -6.852,-1.291 -8.101,0 -14.991,5.32 -14.991,14.066 10e-4,8.745 6.166,14.145 14.228,14.145 m -28.574,-0.444 h 7.899 V 59.787 h -7.899 z m -18.015,0.646 c 7.497,0 11.648,-4.716 11.648,-9.269 0,-4.474 -2.3,-7.094 -6.771,-8.181 -1.812,-0.446 -2.822,-0.604 -4.192,-0.888 -1.854,-0.403 -2.659,-0.927 -2.659,-1.975 0,-1.208 1.37,-1.973 4.435,-1.973 3.344,0 6.124,1.046 7.493,1.812 v -6.811 c -1.771,-0.767 -4.674,-1.412 -7.898,-1.412 -6.81,0 -11.847,3.588 -11.847,9.149 0,4.231 2.377,6.891 6.085,7.817 2.057,0.526 3.144,0.767 4.915,1.21 1.49,0.362 2.499,0.845 2.499,1.934 0,1.369 -1.45,2.137 -4.109,2.137 -3.628,0 -7.294,-1.572 -9.069,-2.822 v 7.172 c 2.216,1.253 5.36,2.1 9.47,2.1 M 373.78,87.191 h 7.899 V 77.157 l 9.472,-17.37 h -8.748 l -4.472,9.792 h -0.161 l -4.313,-9.792 h -8.945 l 9.269,17.37 V 87.191 Z M 336.867,59.787 v 27.404 h 7.899 V 76.472 h 8.099 v 10.719 h 7.897 V 59.787 h -7.897 v 10.479 h -8.099 V 59.787 Z M 316.594,72.44 v -6.77 h 3.104 c 1.734,0 3.306,1.453 3.306,3.387 0,1.975 -1.571,3.383 -3.306,3.383 z m -7.898,14.751 h 7.897 v -8.865 h 4.03 c 6.409,0 10.396,-4.071 10.396,-9.108 0,-5.039 -3.987,-9.431 -10.396,-9.431 H 308.695 V 87.191 Z M 273.392,59.787 v 27.404 h 7.899 v -10.6 h 10.719 v -6.085 h -10.719 v -4.472 h 10.84 v -6.248 h -18.739 z m -20.109,21.038 c -3.508,0 -5.279,-2.822 -5.279,-7.335 0,-4.515 1.771,-7.334 5.279,-7.334 3.547,0 5.197,2.82 5.197,7.334 0,4.513 -1.65,7.335 -5.197,7.335 m 0,7.012 c 8.181,0 13.66,-5.197 13.66,-14.347 0,-9.149 -5.479,-14.348 -13.66,-14.348 -8.142,0 -13.742,5.199 -13.742,14.348 0,9.15 5.6,14.347 13.742,14.347"
   id="path5" />
		<path
   fill="#0065bd"
   d="m 435.519,46.155 h 18.902 v -6.248 h -11.003 v -4.433 h 10.641 v -6.085 h -10.641 v -4.394 h 11.003 V 18.75 h -18.902 z m -19.867,0 h 7.899 V 25.158 h 6.811 V 18.75 H 408.8 v 6.407 h 6.852 z m -23.617,0.643 c 6.449,0 11.809,-3.103 11.809,-10.76 V 18.75 h -7.897 v 16.563 c 0,3.103 -1.693,4.472 -3.911,4.472 -2.216,0 -3.907,-1.369 -3.907,-4.472 V 18.75 h -7.899 v 17.287 c -0.001,7.658 5.358,10.761 11.805,10.761 m -31.473,-0.643 h 7.899 V 25.158 h 6.809 V 18.75 h -21.56 v 6.407 h 6.852 z m -19.91,0 h 7.899 V 18.748 h -7.899 z m -19.866,0 h 7.897 V 25.158 h 6.811 V 18.75 h -21.562 v 6.407 h 6.854 z m -21.159,0.643 c 7.495,0 11.648,-4.714 11.648,-9.269 0,-4.472 -2.298,-7.092 -6.771,-8.181 -1.812,-0.442 -2.822,-0.604 -4.192,-0.886 -1.852,-0.403 -2.659,-0.927 -2.659,-1.975 0,-1.21 1.37,-1.975 4.433,-1.975 3.348,0 6.124,1.048 7.497,1.814 v -6.812 c -1.773,-0.764 -4.676,-1.408 -7.9,-1.408 -6.81,0 -11.849,3.584 -11.849,9.145 0,4.233 2.379,6.893 6.089,7.82 2.053,0.524 3.142,0.766 4.916,1.208 1.489,0.364 2.496,0.849 2.496,1.936 0,1.369 -1.45,2.135 -4.109,2.135 -3.628,0 -7.296,-1.572 -9.069,-2.822 v 7.174 c 2.216,1.251 5.358,2.096 9.47,2.096 M 257.11,46.155 h 7.899 V 29.712 h 0.124 l 8.3,16.443 h 9.63 V 18.75 h -7.899 v 16.36 h -0.119 l -8.222,-16.36 h -9.712 v 27.405 z m -15.958,0 h 7.899 V 18.748 h -7.899 z"
   id="path6" />
	</g>
</g>
</svg>
