<svg xmlns="http://www.w3.org/2000/svg" width="470" height="120">
  <path fill="#fff" d="M0 5a5 5 0 0 1 5-5h220a5 5 0 0 1 5 5v110a5 5 0 0 1-5 5H5a5 5 0 0 1-5-5Z"/>
  <path fill="#e6e6e6" fill-rule="evenodd" d="M10 10h10v10h10V10h10v20h10V10h10v10h10V10h10v10h30v10h-10V10H90v50H80V40H70v10h40V40h-10v20h10v10h-10v10h10v10h-10v10h10v10H10zm10 20h10v20H20v30h10v20H20V90h50V60H60v40h30V80H50V40h10v10H40V40H20zm10 30h10v10H30z"/>
  <path fill="none" stroke="#000" stroke-width="1" d="M11.5 10h7m-2-2 2 2-2 2m3.5-.5v7m2-2-2 2-2-2m.5 3.5h-7m2 2-2-2 2-2m-3.5.5v-7m-2 2 2-2 2 2M31.5 10h7m-2-2 2 2-2 2m3.5-.5v7m2-2-2 2-2-2m.5 3.5h-7m2 2-2-2 2-2m-3.5.5v-7m-2 2 2-2 2 2M51.5 10h7m-2-2 2 2-2 2m3.5-.5v7m2-2-2 2-2-2m.5 3.5h-7m2 2-2-2 2-2m-3.5.5v-7m-2 2 2-2 2 2M71.5 10h7m-2-2 2 2-2 2m3.5-.5v7m2-2-2 2-2-2m.5 3.5h-7m2 2-2-2 2-2m-3.5.5v-7m-2 2 2-2 2 2M91.5 10h7m-2-2 2 2-2 2m3.5-.5v7m2-2-2 2-2-2m.5 3.5h-7m2 2-2-2 2-2m-3.5.5v-7m-2 2 2-2 2 2M11.5 20h7m-2-2 2 2-2 2m3.5-.5v7m2-2-2 2-2-2m.5 3.5h-7m2 2-2-2 2-2m-3.5.5v-7m-2 2 2-2 2 2m9.5-3.5h7m-2-2 2 2-2 2m3.5-.5v7m2-2-2 2-2-2m.5 3.5h-7m2 2-2-2 2-2m-3.5.5v-7m-2 2 2-2 2 2m9.5-3.5h7m-2-2 2 2-2 2m3.5-.5v7m2-2-2 2-2-2m.5 3.5h-7m2 2-2-2 2-2m-3.5.5v-7m-2 2 2-2 2 2M51.5 20h7m-2-2 2 2-2 2m3.5-.5v7m2-2-2 2-2-2m.5 3.5h-7m2 2-2-2 2-2m-3.5.5v-7m-2 2 2-2 2 2m9.5-3.5h7m-2-2 2 2-2 2m3.5-.5v7m2-2-2 2-2-2m.5 3.5h-7m2 2-2-2 2-2m-3.5.5v-7m-2 2 2-2 2 2m9.5-3.5h7m-2-2 2 2-2 2m3.5-.5v7m2-2-2 2-2-2m.5 3.5h-7m2 2-2-2 2-2m-3.5.5v-7m-2 2 2-2 2 2m9.5-3.5h7m-2-2 2 2-2 2m3.5-.5v7m2-2-2 2-2-2m.5 3.5h-7m2 2-2-2 2-2m-3.5.5v-7m-2 2 2-2 2 2m19.5-3.5h7m-2-2 2 2-2 2m3.5-.5v7m2-2-2 2-2-2m.5 3.5h-7m2 2-2-2 2-2m-3.5.5v-7m-2 2 2-2 2 2M11.5 30h7m-2-2 2 2-2 2m3.5-.5v7m2-2-2 2-2-2m.5 3.5h-7m2 2-2-2 2-2m-3.5.5v-7m-2 2 2-2 2 2M31.5 30h7m-2-2 2 2-2 2m3.5-.5v7m2-2-2 2-2-2m.5 3.5h-7m2 2-2-2 2-2m-3.5.5v-7m-2 2 2-2 2 2m9.5-3.5h7m-2-2 2 2-2 2m3.5-.5v7m2-2-2 2-2-2m.5 3.5h-7m2 2-2-2 2-2m-3.5.5v-7m-2 2 2-2 2 2m9.5-3.5h7m-2-2 2 2-2 2m3.5-.5v7m2-2-2 2-2-2m.5 3.5h-7m2 2-2-2 2-2m-3.5.5v-7m-2 2 2-2 2 2m9.5-3.5h7m-2-2 2 2-2 2m3.5-.5v7m2-2-2 2-2-2m.5 3.5h-7m2 2-2-2 2-2m-3.5.5v-7m-2 2 2-2 2 2m9.5-3.5h7m-2-2 2 2-2 2m3.5-.5v7m2-2-2 2-2-2m.5 3.5h-7m2 2-2-2 2-2m-3.5.5v-7m-2 2 2-2 2 2m9.5-3.5h7m-2-2 2 2-2 2m3.5-.5v7m2-2-2 2-2-2m.5 3.5h-7m2 2-2-2 2-2m-3.5.5v-7m-2 2 2-2 2 2M11.5 40h7m-2-2 2 2-2 2m3.5-.5v7m2-2-2 2-2-2m.5 3.5h-7m2 2-2-2 2-2m-3.5.5v-7m-2 2 2-2 2 2m9.5-3.5h7m-2-2 2 2-2 2m3.5-.5v7m2-2-2 2-2-2m.5 3.5h-7m2 2-2-2 2-2m-3.5.5v-7m-2 2 2-2 2 2M41.5 40h7m-2-2 2 2-2 2m3.5-.5v7m2-2-2 2-2-2m.5 3.5h-7m2 2-2-2 2-2m-3.5.5v-7m-2 2 2-2 2 2M61.5 40h7m-2-2 2 2-2 2m3.5-.5v7m2-2-2 2-2-2m.5 3.5h-7m2 2-2-2 2-2m-3.5.5v-7m-2 2 2-2 2 2M81.5 40h7m-2-2 2 2-2 2m3.5-.5v7m2-2-2 2-2-2m.5 3.5h-7m2 2-2-2 2-2m-3.5.5v-7m-2 2 2-2 2 2m19.5-3.5h7m-2-2 2 2-2 2m3.5-.5v7m2-2-2 2-2-2m.5 3.5h-7m2 2-2-2 2-2m-3.5.5v-7m-2 2 2-2 2 2M11.5 50h7m-2-2 2 2-2 2m3.5-.5v7m2-2-2 2-2-2m.5 3.5h-7m2 2-2-2 2-2m-3.5.5v-7m-2 2 2-2 2 2M51.5 50h7m-2-2 2 2-2 2m3.5-.5v7m2-2-2 2-2-2m.5 3.5h-7m2 2-2-2 2-2m-3.5.5v-7m-2 2 2-2 2 2m9.5-3.5h7m-2-2 2 2-2 2m3.5-.5v7m2-2-2 2-2-2m.5 3.5h-7m2 2-2-2 2-2m-3.5.5v-7m-2 2 2-2 2 2m9.5-3.5h7m-2-2 2 2-2 2m3.5-.5v7m2-2-2 2-2-2m.5 3.5h-7m2 2-2-2 2-2m-3.5.5v-7m-2 2 2-2 2 2M91.5 50h7m-2-2 2 2-2 2m3.5-.5v7m2-2-2 2-2-2m.5 3.5h-7m2 2-2-2 2-2m-3.5.5v-7m-2 2 2-2 2 2M11.5 60h7m-2-2 2 2-2 2m3.5-.5v7m2-2-2 2-2-2m.5 3.5h-7m2 2-2-2 2-2m-3.5.5v-7m-2 2 2-2 2 2M31.5 60h7m-2-2 2 2-2 2m3.5-.5v7m2-2-2 2-2-2m.5 3.5h-7m2 2-2-2 2-2m-3.5.5v-7m-2 2 2-2 2 2M51.5 60h7m-2-2 2 2-2 2m3.5-.5v7m2-2-2 2-2-2m.5 3.5h-7m2 2-2-2 2-2m-3.5.5v-7m-2 2 2-2 2 2M71.5 60h7m-2-2 2 2-2 2m3.5-.5v7m2-2-2 2-2-2m.5 3.5h-7m2 2-2-2 2-2m-3.5.5v-7m-2 2 2-2 2 2m9.5-3.5h7m-2-2 2 2-2 2m3.5-.5v7m2-2-2 2-2-2m.5 3.5h-7m2 2-2-2 2-2m-3.5.5v-7m-2 2 2-2 2 2m9.5-3.5h7m-2-2 2 2-2 2m3.5-.5v7m2-2-2 2-2-2m.5 3.5h-7m2 2-2-2 2-2m-3.5.5v-7m-2 2 2-2 2 2m9.5-3.5h7m-2-2 2 2-2 2m3.5-.5v7m2-2-2 2-2-2m.5 3.5h-7m2 2-2-2 2-2m-3.5.5v-7m-2 2 2-2 2 2M11.5 70h7m-2-2 2 2-2 2m3.5-.5v7m2-2-2 2-2-2m.5 3.5h-7m2 2-2-2 2-2m-3.5.5v-7m-2 2 2-2 2 2M51.5 70h7m-2-2 2 2-2 2m3.5-.5v7m2-2-2 2-2-2m.5 3.5h-7m2 2-2-2 2-2m-3.5.5v-7m-2 2 2-2 2 2M71.5 70h7m-2-2 2 2-2 2m3.5-.5v7m2-2-2 2-2-2m.5 3.5h-7m2 2-2-2 2-2m-3.5.5v-7m-2 2 2-2 2 2m9.5-3.5h7m-2-2 2 2-2 2m3.5-.5v7m2-2-2 2-2-2m.5 3.5h-7m2 2-2-2 2-2m-3.5.5v-7m-2 2 2-2 2 2m9.5-3.5h7m-2-2 2 2-2 2m3.5-.5v7m2-2-2 2-2-2m.5 3.5h-7m2 2-2-2 2-2m-3.5.5v-7m-2 2 2-2 2 2M11.5 80h7m-2-2 2 2-2 2m3.5-.5v7m2-2-2 2-2-2m.5 3.5h-7m2 2-2-2 2-2m-3.5.5v-7m-2 2 2-2 2 2m9.5-3.5h7m-2-2 2 2-2 2m3.5-.5v7m2-2-2 2-2-2m.5 3.5h-7m2 2-2-2 2-2m-3.5.5v-7m-2 2 2-2 2 2M61.5 80h7m-2-2 2 2-2 2m3.5-.5v7m2-2-2 2-2-2m.5 3.5h-7m2 2-2-2 2-2m-3.5.5v-7m-2 2 2-2 2 2M91.5 80h7m-2-2 2 2-2 2m3.5-.5v7m2-2-2 2-2-2m.5 3.5h-7m2 2-2-2 2-2m-3.5.5v-7m-2 2 2-2 2 2m9.5-3.5h7m-2-2 2 2-2 2m3.5-.5v7m2-2-2 2-2-2m.5 3.5h-7m2 2-2-2 2-2m-3.5.5v-7m-2 2 2-2 2 2M11.5 90h7m-2-2 2 2-2 2m3.5-.5v7m2-2-2 2-2-2m.5 3.5h-7m2 2-2-2 2-2m-3.5.5v-7m-2 2 2-2 2 2M31.5 90h7m-2-2 2 2-2 2m3.5-.5v7m2-2-2 2-2-2m.5 3.5h-7m2 2-2-2 2-2m-3.5.5v-7m-2 2 2-2 2 2m9.5-3.5h7m-2-2 2 2-2 2m3.5-.5v7m2-2-2 2-2-2m.5 3.5h-7m2 2-2-2 2-2m-3.5.5v-7m-2 2 2-2 2 2m9.5-3.5h7m-2-2 2 2-2 2m3.5-.5v7m2-2-2 2-2-2m.5 3.5h-7m2 2-2-2 2-2m-3.5.5v-7m-2 2 2-2 2 2M91.5 90h7m-2-2 2 2-2 2m3.5-.5v7m2-2-2 2-2-2m.5 3.5h-7m2 2-2-2 2-2m-3.5.5v-7m-2 2 2-2 2 2M11.5 100h7m-2-2 2 2-2 2m3.5-.5v7m2-2-2 2-2-2m.5 3.5h-7m2 2-2-2 2-2m-3.5.5v-7m-2 2 2-2 2 2m9.5-3.5h7m-2-2 2 2-2 2m3.5-.5v7m2-2-2 2-2-2m.5 3.5h-7m2 2-2-2 2-2m-3.5.5v-7m-2 2 2-2 2 2m9.5-3.5h7m-2-2 2 2-2 2m3.5-.5v7m2-2-2 2-2-2m.5 3.5h-7m2 2-2-2 2-2m-3.5.5v-7m-2 2 2-2 2 2m9.5-3.5h7m-2-2 2 2-2 2m3.5-.5v7m2-2-2 2-2-2m.5 3.5h-7m2 2-2-2 2-2m-3.5.5v-7m-2 2 2-2 2 2m9.5-3.5h7m-2-2 2 2-2 2m3.5-.5v7m2-2-2 2-2-2m.5 3.5h-7m2 2-2-2 2-2m-3.5.5v-7m-2 2 2-2 2 2m9.5-3.5h7m-2-2 2 2-2 2m3.5-.5v7m2-2-2 2-2-2m.5 3.5h-7m2 2-2-2 2-2m-3.5.5v-7m-2 2 2-2 2 2m9.5-3.5h7m-2-2 2 2-2 2m3.5-.5v7m2-2-2 2-2-2m.5 3.5h-7m2 2-2-2 2-2m-3.5.5v-7m-2 2 2-2 2 2m9.5-3.5h7m-2-2 2 2-2 2m3.5-.5v7m2-2-2 2-2-2m.5 3.5h-7m2 2-2-2 2-2m-3.5.5v-7m-2 2 2-2 2 2m9.5-3.5h7m-2-2 2 2-2 2m3.5-.5v7m2-2-2 2-2-2m.5 3.5h-7m2 2-2-2 2-2m-3.5.5v-7m-2 2 2-2 2 2m9.5-3.5h7m-2-2 2 2-2 2m3.5-.5v7m2-2-2 2-2-2m.5 3.5h-7m2 2-2-2 2-2m-3.5.5v-7m-2 2 2-2 2 2"/>
  <path fill-rule="evenodd" stroke="gray" stroke-width="1" d="M120 10h10v10h-10zm20 0h10v10h-10zm20 0h10v10h-10zm20 0h10v10h-10zm20 0h10v10h-10zm-80 10h10v10h-10zm10 0h10v10h-10zm10 0h10v10h-10zm20 0h10v10h-10zm10 0h10v10h-10zm10 0h10v10h-10zm10 0h10v10h-10zm20 0h10v10h-10zm-90 10h10v10h-10zm20 0h10v10h-10zm10 0h10v10h-10zm10 0h10v10h-10zm10 0h10v10h-10zm10 0h10v10h-10zm10 0h10v10h-10zm-70 10h10v10h-10zm10 0h10v10h-10zm20 0h10v10h-10zm20 0h10v10h-10zm20 0h10v10h-10zm20 0h10v10h-10zm-90 10h10v10h-10zm40 0h10v10h-10zm10 0h10v10h-10zm10 0h10v10h-10zm20 0h10v10h-10zm-80 10h10v10h-10zm20 0h10v10h-10zm20 0h10v10h-10zm20 0h10v10h-10zm10 0h10v10h-10zm10 0h10v10h-10zm10 0h10v10h-10zm-90 10h10v10h-10zm40 0h10v10h-10zm20 0h10v10h-10zm10 0h10v10h-10zm10 0h10v10h-10zm-80 10h10v10h-10zm10 0h10v10h-10zm40 0h10v10h-10zm30 0h10v10h-10zm10 0h10v10h-10zm-90 10h10v10h-10zm20 0h10v10h-10zm10 0h10v10h-10zm10 0h10v10h-10zm40 0h10v10h-10zm-80 10h10v10h-10zm10 0h10v10h-10zm10 0h10v10h-10zm10 0h10v10h-10zm10 0h10v10h-10zm10 0h10v10h-10zm10 0h10v10h-10zm10 0h10v10h-10zm10 0h10v10h-10zm10 0h10v10h-10z"/>
  <path fill="#fff" d="M240 5a5 5 0 0 1 5-5h220a5 5 0 0 1 5 5v110a5 5 0 0 1-5 5H245a5 5 0 0 1-5-5Z"/>
  <path fill="#e6e6e6" fill-rule="evenodd" d="M250 10h10v10h10V10h10v20h10V10h10v10h10V10h10v10h30v10h-10V10h-10v50h-10V40h-10v10h40V40h-10v20h10v10h-10v10h10v10h-10v10h10v10H250zm10 20h10v20h-10v30h10v20h-10V90h50V60h-10v40h30V80h-40V40h10v10h-20V40h-20zm10 30h10v10h-10z"/>
  <path fill="none" stroke="#000" stroke-width="1" d="M251.5 10h7m-2-2 2 2-2 2m3.5-.5v7m2-2-2 2-2-2m3.5 3.5h7m-2-2 2 2-2 2m3.5-3.5v-7m-2 2 2-2 2 2m-.5-3.5h7m-2-2 2 2-2 2m3.5-.5v17m2-2-2 2-2-2m3.5 3.5h7m-2-2 2 2-2 2m3.5-3.5v-17m-2 2 2-2 2 2m-.5-3.5h7m-2-2 2 2-2 2m3.5-.5v7m2-2-2 2-2-2m3.5 3.5h7m-2-2 2 2-2 2m3.5-3.5v-7m-2 2 2-2 2 2m-.5-3.5h7m-2-2 2 2-2 2m3.5-.5v7m2-2-2 2-2-2m3.5 3.5h27m-2-2 2 2-2 2m3.5-.5v7m2-2-2 2-2-2m.5 3.5h-7m2 2-2-2 2-2m-3.5.5v-17m-2 2 2-2 2 2m-3.5-3.5h-7m2 2-2-2 2-2m-3.5 3.5v47m2-2-2 2-2-2m.5 3.5h-7m2 2-2-2 2-2m-3.5.5v-17m-2 2 2-2 2 2m-3.5-3.5h-7m2 2-2-2 2-2m-3.5 3.5v7m2-2-2 2-2-2m3.5 3.5h37m-2-2 2 2-2 2m3.5-3.5v-7m-2 2 2-2 2 2m-3.5-3.5h-7m2 2-2-2 2-2m-3.5 3.5v17m2-2-2 2-2-2m3.5 3.5h7m-2-2 2 2-2 2m3.5-.5v7m2-2-2 2-2-2m.5 3.5h-7m2 2-2-2 2-2m-3.5 3.5v7m2-2-2 2-2-2m3.5 3.5h7m-2-2 2 2-2 2m3.5-.5v7m2-2-2 2-2-2m.5 3.5h-7m2 2-2-2 2-2m-3.5 3.5v7m2-2-2 2-2-2m3.5 3.5h7m-2-2 2 2-2 2m3.5-.5v7m2-2-2 2-2-2m.5 3.5h-97m2 2-2-2 2-2m-3.5.5v-97m-2 2 2-2 2 2m9.5 16.5h7m-2-2 2 2-2 2m3.5-.5v17m2-2-2 2-2-2m.5 3.5h-7m2 2-2-2 2-2m-3.5 3.5v27m2-2-2 2-2-2m3.5 3.5h7m-2-2 2 2-2 2m3.5-.5v17m2-2-2 2-2-2m.5 3.5h-7m2 2-2-2 2-2m-3.5.5v-7m-2 2 2-2 2 2m-.5-3.5h47m-2-2 2 2-2 2m3.5-3.5v-27m-2 2 2-2 2 2m-3.5-3.5h-7m2 2-2-2 2-2m-3.5 3.5v37m2-2-2 2-2-2m3.5 3.5h27m-2-2 2 2-2 2m3.5-3.5v-17m-2 2 2-2 2 2m-3.5-3.5h-37m2 2-2-2 2-2m-3.5.5v-37m-2 2 2-2 2 2m-.5-3.5h7m-2-2 2 2-2 2m3.5-.5v7m2-2-2 2-2-2m.5 3.5h-17m2 2-2-2 2-2m-3.5.5v-7m-2 2 2-2 2 2m-3.5-3.5h-17m2 2-2-2 2-2m-3.5.5v-7m-2 2 2-2 2 2m9.5 26.5h7m-2-2 2 2-2 2m3.5-.5v7m2-2-2 2-2-2m.5 3.5h-7m2 2-2-2 2-2m-3.5.5v-7m-2 2 2-2 2 2"/>
  <path fill-rule="evenodd" stroke="gray" stroke-width="1" d="M360 10h10v10h10V10h10v20h10V10h10v10h10V10h10v10h30v10h-10V10h-10v50h-10V40h-10v10h40V40h-10v20h10v10h-10v10h10v10h-10v10h10v10H360zm10 20h10v20h-10v30h10v20h-10V90h50V60h-10v40h30V80h-40V40h10v10h-20V40h-20zm10 30h10v10h-10z"/>
</svg>
