<svg xmlns="http://www.w3.org/2000/svg" viewBox="0 -997 60 997">
  <path d="M56 637C50 697 26 815 26 869C26 893 31 917 39 939C44 953 51 968 57 983C58 986 59 990 59 994C58 996 57 997 55 997C54 997 51 992 49 990C31 963 10 905 10 805C10 706 38 651 38 588C38 541 23 530 0 498C15 478 38 477 38 412C38 342 10 265 10 192C10 92 31 34 49 6C51 4 55 0 56 0C56 0 60 2 60 4C60 8 57 15 56 16C52 24 26 75 26 128C26 181 50 300 56 359V375C56 434 33 480 8 498C32 518 56 562 56 621Z" transform="scale(1,-1)" fill="#000"/>
</svg>
