<svg xmlns="http://www.w3.org/2000/svg" viewBox="2 -997 80 997">
  <path d="M20 498C49 516 82 587 82 646C82 651 82 657 81 662C74 722 44 815 44 869C44 921 67 971 72 980C75 986 77 987 77 990C77 993 74 997 71 997C69 997 67 995 63 990C41 963 14 905 14 805C14 706 49 666 49 603C49 556 30 530 2 498C20 478 49 462 49 397C49 327 14 265 14 192C14 92 41 34 63 6C67 1 69 0 71 0C74 0 77 3 77 6C77 9 76 11 72 17C67 25 44 75 44 128C44 181 74 275 81 334C82 339 82 344 82 350C82 409 49 480 20 498Z" transform="scale(1,-1)" fill="#000"/>
</svg>
