<svg xmlns="http://www.w3.org/2000/svg" viewBox="0 -812 273 983.869">
  <path d="M273 676C273 696 266 812 231 812C229 812 227 812 225 811C218 808 211 798 211 785C211 783 212 781 212 778C220 733 232 702 232 668C232 640 224 611 201 570C125 434 61 432 0 430V-159C0 -168 6 -172 14 -172C24 -172 32 -161 33 -152C50 -48 107 -32 159 25C229 101 253 129 264 193C266 202 266 212 266 222C266 265 253 309 244 336C260 365 267 403 267 437C267 489 251 532 247 542C247 543 247 544 247 544L244 549C244 553 245 555 247 558L251 565C264 590 269 601 273 665ZM39 268C60 348 106 370 151 423C171 446 187 465 203 490C205 493 208 494 211 494C216 494 222 491 223 488C226 481 226 473 228 465C229 457 230 448 230 440C230 358 138 255 57 255H52C43 255 39 263 39 268ZM229 243C230 236 232 230 232 222C232 209 228 193 216 172C159 76 98 50 41 50C39 51 39 52 39 53C56 157 107 173 159 230C183 256 201 276 215 294C221 275 226 254 229 243Z" transform="scale(1,-1)" fill="#000"/>
</svg>
