<svg xmlns="http://www.w3.org/2000/svg" viewBox="0 -218 460 218">
  <path d="M371 218C340 218 315 204 315 174C315 152 330 138 351 138C380 138 381 161 402 161C419 161 435 140 435 114C435 71 405 50 370 50C338 50 305 77 262 125C213 179 169 217 104 217C38 217 0 167 0 103C0 31 46 0 89 0C120 0 145 14 145 44C145 66 130 80 109 80C80 80 79 57 58 57C41 57 25 78 25 104C25 147 55 168 90 168C122 168 155 141 198 93C247 39 291 1 356 1C422 1 460 51 460 115C460 187 414 218 371 218Z" transform="scale(1,-1)" fill="#000"/>
</svg>
