<svg xmlns="http://www.w3.org/2000/svg" viewBox="0 -350 249 698">
  <path d="M237 118C244 121 249 129 249 135V206C249 211 246 214 242 214C240 214 239 214 237 213C237 213 217 205 212 204C205 204 198 209 198 217V339C198 345 192 350 184 350C174 350 168 345 168 339V209C167 199 164 186 155 180C143 173 109 159 92 155C83 155 80 167 80 175V295C80 301 73 306 66 306C56 306 50 301 50 295V160C50 146 44 136 38 133C32 130 12 122 12 122C5 120 0 112 0 106V35C0 29 3 26 9 26L11 27C12 27 27 33 35 37L36 38C44 38 50 28 50 20V-79C50 -90 45 -99 39 -102C33 -104 12 -113 12 -113C5 -115 0 -123 0 -129V-200C0 -206 3 -209 9 -209L11 -208C12 -208 26 -202 35 -199C36 -198 37 -198 38 -198C45 -198 50 -209 50 -214V-337C50 -343 56 -348 63 -348C73 -348 80 -343 80 -337V-198C80 -185 85 -178 90 -176L151 -151C151 -151 152 -151 152 -151L154 -150C163 -150 168 -162 168 -168V-293C168 -299 174 -304 181 -304C192 -304 198 -299 198 -293V-151C198 -143 202 -131 209 -128C216 -125 237 -117 237 -117C244 -114 249 -106 249 -100V-29C249 -24 246 -21 242 -21C240 -21 239 -21 237 -22L211 -32C205 -32 198 -26 198 -14V79C198 86 203 105 211 108ZM168 -45C162 -65 115 -85 92 -85C86 -85 81 -83 80 -80C78 -76 77 -54 77 -30C77 1 78 36 80 44C82 61 128 82 153 82C160 82 166 80 168 76C170 71 172 46 172 19C172 -8 170 -36 168 -45Z" transform="scale(1,-1)" fill="#000"/>
</svg>
