<svg xmlns="http://www.w3.org/2000/svg" viewBox="20 -251 394 500">
  <path d="M129 -81C87 -81 49 -114 49 -157C49 -161 49 -164 50 -168C60 -232 138 -249 192 -249C268 -248 339 -211 375 -143C397 -101 414 -48 414 -1V3C413 49 405 101 383 141C342 215 293 251 209 251C164 251 114 244 78 215C43 187 20 142 20 97C20 19 94 -48 171 -48C203 -48 236 -36 262 -13C264 -11 266 -11 268 -11C274 -11 277 -19 277 -35C274 -220 215 -225 194 -225C174 -225 161 -220 161 -210C161 -196 180 -184 186 -172C191 -163 193 -153 193 -143C193 -128 188 -113 178 -102C171 -89 142 -81 129 -81ZM212 0C180 0 153 50 153 112C153 174 180 224 212 224C244 224 270 174 270 112C270 50 244 0 212 0Z" transform="scale(1,-1)" fill="#000"/>
</svg>
