<svg xmlns="http://www.w3.org/2000/svg" viewBox="20 -254 406 511">
  <path d="M421 -91C421 -79 416 -77 409 -77C401 -77 398 -81 396 -88L395 -89C385 -114 377 -133 356 -133C351 -133 346 -132 339 -130C326 -125 319 -124 309 -119C289 -111 242 -95 201 -95C188 -95 175 -97 164 -101C186 -65 271 -35 293 -29C363 -10 426 19 426 102C426 208 322 254 229 254C159 254 97 248 48 191C31 170 20 145 20 118C20 104 23 90 29 75C44 44 75 20 111 20C172 20 181 83 181 108C181 168 112 171 112 191C114 205 132 229 191 229C280 229 281 162 281 133C281 42 206 -27 134 -71C79 -106 40 -155 23 -220L22 -223C22 -236 33 -257 48 -257C70 -257 82 -196 141 -196C181 -196 196 -250 285 -250C328 -250 405 -246 421 -91Z" transform="scale(1,-1)" fill="#000"/>
</svg>
