<svg xmlns="http://www.w3.org/2000/svg" viewBox="20 -249 401 499">
  <path d="M421 204C421 231 421 244 404 244C403 244 387 240 383 233C376 221 362 164 337 164C312 164 265 249 182 249C124 249 109 226 95 213C81 200 75 196 68 195C60 195 47 209 42 219C40 223 35 226 30 226C25 226 20 223 20 214V49C20 49 21 33 31 33C39 33 42 42 46 53C56 78 69 136 114 136C154 136 202 61 260 61C288 61 302 76 310 82C313 84 317 86 319 86C323 86 325 83 326 77C326 49 249 -7 189 -78C151 -122 120 -180 120 -219C120 -240 120 -250 139 -250C157 -250 179 -241 204 -241C229 -241 276 -250 286 -250C296 -250 302 -242 302 -213C302 -46 421 97 421 200Z" transform="scale(1,-1)" fill="#000"/>
</svg>
