<svg height="525" width="600" xmlns="http://www.w3.org/2000/svg"><path d="m597.6 499.6-283.8-491.6c-2.9-5-8.2-8-13.9-8s-11 3.1-13.9 8l-283.8 491.6c-2.9 5-2.9 11.1 0 16 2.9 5 8.2 8 13.9 8h567.6c5.7 0 11-3.1 13.9-8 2.9-5 2.9-11.1 0-16z"/><path d="m44 491.52525977 256-441.48893331 256 441.48893331z" fill="#f9a800"/><g transform="matrix(1.13538 0 0 1.13538 644.96206 -315.81465)"><path d="m-435.08915 613.9898c-16.56308 4.29684-28.8125 19.34895-28.8125 37.25 0 21.24471 17.25529 38.5 38.5 38.5 12.94599 0 24.39754-6.40935 31.375-16.21875-.95903-.80793-1.98266-1.71188-2.25-2.78125-.32045-1.28182.0759-2.67405-.96875-3.71875-.8136-.8136-1.31653-1.84476-2.5625-2.15625-1.16665-.29166-3.02586-.44482-4.3125-.1875-.93305.18661-3.71875 1.29409-3.71875 0 0-1.04933.134-2.02967-.40625-2.75-.68515-.91354-3.03556.32656-3.3125-.78125-.31763-1.27052 1.3759-1.40715 2.53125-2.5625.19616-.19616-1.14196-1.35261.59375-.59375 1.33556.58392-.31623-3.17504.59375-4.3125.97957-1.22448 4.71875-2.15748 4.71875-3.71875 0-1.13328-.31466-1.64271 0-3.71875.26112-1.72275-.21361-1.36847-2.5625-.78125-.26155.0654-.70439-.86536-.96875-.8125-1.0197.20394-3.50056.89828-4.71875.59375-1.36266-.34067-1.45085-1.51002-2.5625-2.34375-1.02273-.76704-1.3299-.78124-2.75-.78125-1.65606 0-2.21864-1.46866-3.3125-2.5625-1.29245-1.29244-2.26815-1.75001-4.125-1.75-2.19453 0-4.08621.375-6.28125.375-1.23721 0-3.82274.52101-4.71875-.375-1.0717-1.0717-.92323-2.1607-.375-3.53125.49655-1.24139 1.72784-1.89315 2.15625-2.75.80845-1.61692 3.40721-1.48048 4.5-2.9375.77576-1.03435.78126-2.26734.78125-3.9375 0-1.67351-.93814-3.57379-1.9375-4.90625-.75049-1.00065-2.27343-1.45571-2.5625-1.9375-.49171-.8195-1.12658-2.50157-1.78125-3.15625-.21902-.21902-.47246-.43504-.75-.65625z"/><g fill-rule="evenodd"><path d="m-448.64435 609.35193c1.91254 1.02983 2.89333 3.28565 1.96158 4.90395s-3.62892 1.6183-5.68858 1.56926c-2.05966-.049-2.05966-.34327-2.55005-1.76542-.4904-1.42214-.98079-2.74621.58847-3.92316s3.77604-1.81446 5.68858-.78463zm8.82711-3.727c1.22599.68655 1.91255 2.20677 1.56927 3.33468s-1.71638 1.32407-2.94237 1.17695-1.47118-.78463-1.96158-1.76542-.83367-1.47119 0-2.15774 2.10869-1.27502 3.33468-.58847zm25.10823 15.8888c2.30486-.44135 3.53085-1.32407 6.0809-.98079s2.01061 1.42214 4.11931 2.35389 2.3539.29424 4.31548 1.37311 3.62892 1.81446 3.53084 2.94237c-.0981 1.12791-2.15774.49039-3.92316 1.56926s-1.6183 1.76543-3.13852 2.74622-1.52022.39231-2.94237 1.17694-1.52023 1.91254-2.74622 1.96158c-1.22599.049-.68655-.68655-2.15773-1.76542-1.47119-1.07887-2.74622-2.55005-3.72701-2.55005s-3.43276.34328-5.49242 0-2.25582 0-2.74621-1.37311c-.4904-1.37311-.63751-2.45198.78463-4.11932 1.42215-1.66734 2.89333-1.71638 4.90395-2.55005s.83367-.34328 3.13853-.78463zm17.65422 20.79275c1.37311-2.3539 1.02983-3.77605 1.96158-5.68859s-.4904-1.47119 1.76542-1.96158 3.48181 0 7.25785 0 5.29627-.29424 7.84632 0 1.71638.19616 2.35389 1.17695.58847 1.47118.19616 2.74621c-.39232 1.27503-.73559 1.61831-1.76542 2.3539s-1.56927-.34328-2.3539.58847-1.12791 2.15774-.78463 3.13853 1.12791-.29424 2.15774.78463 1.96158 2.01063 1.96158 3.53085-.58847 1.47118-1.96158 2.55005-1.12791 1.07887-3.53085 1.76542c-2.40293.68655-3.2366.68655-6.08089.98079s-4.31548.19616-5.29627.19616-3.08949.19615-5.10011-.19616-2.01062-.0981-2.94237-1.3731c-.93175-1.27502-.98079-2.01062-.78463-3.727s.29423-1.42215 1.56926-3.13853 2.15774-1.3731 3.53085-3.727zm15.10416 41.78165c2.30486.78463 4.07029.63752 5.88475 2.55006s1.02982 3.13852 1.3731 5.1001c.34327 1.96158 1.02983 2.01063 0 2.74622s-2.3539.73558-4.11932.19615-1.22599-1.22598-2.94237-2.35389-2.01062-1.42215-3.92316-2.15774-2.64813.19616-3.727-.78463-.49039-1.71638-.58847-3.13853c-.0981-1.42214-.9808-1.8635.19615-2.55005s2.55006-.29424 4.51164-.19616c1.96158.0981 1.02982-.19616 3.33468.58847zm24.80822-229.13714c1.40028-1.55837 2.58117-2.04034 4.22819-4.22818s1.86826-3.83486 2.35991-4.52317 1.91743-3.0728 2.85157-4.91649c.93414-1.84368-.12291-1.22912.88497-2.45825 1.00788-1.22912 2.6549-2.45825 3.14655-2.45825s2.16326.73748 3.73654 1.17996c1.57328.44249 1.00788.61456 2.55657.58998 1.5487-.0246 1.99118-.29499 3.63821-.68831 1.64702-.39332 1.2537-1.27829 2.94989-.88497s2.87615 1.05705 3.83487 2.45825.4179 1.45036 0 3.14655-1.37662 3.14656-1.67161 3.63821-.39332 2.31075-1.17996 3.73653-.68831.5654-1.9666 1.9666-2.75323 3.44154-3.14655 3.6382-2.06493 1.59786-3.14656 3.14656c-1.08163 1.54869-.17207 1.49952-1.17995 3.04822-1.00788 1.54869-1.22913 1.49954-2.85157 3.14656s-2.16325 1.74535-3.6382 3.44154-.76206 2.55658-2.26159 3.34322-2.75324 0-3.73653-.19666c-.9833-.19666-3.24489-2.45825-3.53988-2.85157s-1.86827-2.6549-2.16326-3.04822c-.29498-.39332-1.76993-2.9499-1.96659-3.34322s-.78664-3.44154-.39332-3.93319 2.53107-2.81208 2.6549-2.9499zm72.56743-1.17995c1.89285-.36874 3.93319-1.08163 4.22818-1.47495s.93414-1.32745 2.16326-2.16326c1.22913-.8358.86039-1.15538 2.75324-1.17996 1.89285-.0246 3.41696 0 4.81816 1.08163s.51623 1.79453.78664 3.24489-.17207 1.20454.29499 2.55657c.46707 1.35204 1.74535 1.32746 1.57327 2.85157s-1.6716 2.75323-2.26158 3.24488-1.67161 1.57328-2.85157 3.24489-1.27829 2.94989-1.86826 3.44154c-.58998.49165-2.85157 2.45825-3.44155 2.65491s-2.94989 2.35992-3.73653 2.85156c-.78664.49165-1.84369 1.91743-3.53988 3.14656-1.69619 1.22912-2.6549 1.76994-3.24488 1.76994s-2.85157.39332-3.83487.0983c-.98329-.29499-1.57327-.9833-2.55657-.9833s-2.55658-.39332-3.24489-.78664-1.47495-2.06493-1.96659-2.45825c-.49165-.39332-.88497-3.04822-1.17996-3.53987s-.39332-2.06493-.39332-2.85157.39332-2.35991.88497-3.14655.78664-.88497 1.27828-2.35992c.49165-1.47495 1.37662-3.04822 1.47495-3.6382.0983-.58998 1.76994-2.45825 2.26159-2.85157s1.76994-1.57328 2.16326-2.06492c.39332-.49165 1.72077-.61456 3.24488-.78664s2.16326.0983 2.85157.0983 1.45036.36874 3.34321 0zm18.58434 131.36867c2.85156-1.49953 5.01483-2.60574 8.94802-4.42484 3.9332-1.8191 6.19478-2.85157 6.78476-2.85157s2.31075.66373 4.22818 2.06493 2.58116 2.11409 3.44155 3.53987.12291.66373 0 2.16326.49165 2.21242-.49165 3.83486-3.04823 2.45825-3.44155 2.65491-.49164 2.33534-2.35991 3.04823-3.24489.19666-5.11316-.19666-1.76993-1.47495-2.35991-1.37662c-.58998.0983-3.73654.9833-4.52318.9833-.78663 0-2.55657.78664-3.93319.88496-1.37662.0983-2.75323-1.30287-4.22818-2.75323s-1.76994-2.65491-1.67161-3.04823c.0983-.39332 1.08163-1.8191 2.26159-2.94989s-.39333-.0737 2.45824-1.57328zm-39.92192 81.51544c1.88265.82741 3.19573 1.30287 5.21149 2.35992s2.33533.76206 2.85156 1.86827 1.2537 1.79451-.78664 2.55657c-2.04035.76206-6.29311.58998-7.37474.49165-1.08162-.0983-4.32651-.54081-6.09645-1.76993s-.78663-2.55658-.98329-3.14656-.29499-3.04823.0983-3.04823c.39331 0 2.16326.4179 3.93319.58998s1.16975-.77046 3.14655.0983zm21.04259-4.6215c2.1608-.4549 4.57234-.0738 8.06305-.19666 3.49071-.12291 5.21148-.29499 5.89979-.29499s7.47307.39332 8.25971.49165c.78664.0983 1.03246 1.27829 2.75323 2.45825s2.21243 1.05704 4.12986 2.26158 2.6549 1.27829 3.53987 2.55658.27041 1.25371 0 2.55658.29499 1.79452-1.08163 2.6549c-1.37662.86039-2.75323.9833-4.42484.78664s-8.35804-1.27829-9.04635-1.27829-8.16137-.49165-8.94801-.39332c-.78664.0983-5.11315-.19666-5.50647-.19666s-2.28617.0492-3.53988-.78664c-1.25371-.8358-1.30287-1.27828-1.47495-2.55657s.78664-2.06493.78664-2.55658-.19666-2.35991-.68831-2.94989 1.10375-2.51983 1.27829-2.55658zm10.32464 47.68997c.88496-.49165-3.53987-3.39238-6.5881-5.50647s-4.03153-1.94201-5.60481-2.94989-1.2537 0-.6883-1.08163 1.8191-1.8191 2.94989-3.24488-.68831-2.23701 1.57328-2.45825 1.17996.22125 7.47307 1.57328c6.29311 1.35204 9.6609 1.52411 17.69937 3.83486s14.06117 5.30981 14.45449 5.40814c.39332.0983 11.2096 4.52318 11.2096 4.52318l-42.47849-.0983zm-128.70206-155.43017c-2.15266 8.96109-2.35291 1.7772-5.00619 1.90236s-5.20644-1.20149-5.60694-1.40174c-.4005-.20024-3.10384-2.00247-3.60446-2.30285-.50062-.30037-2.1026-1.80223-2.5031-2.80347-.40049-1.00123-.50062-4.10508-.70087-4.80594-.20024-.70087-.70086-3.05378-.20024-4.90607s.90111-1.15142 2.20272-2.5031c1.30161-1.35167 1.85229-1.40174 3.00372-2.9036s1.60198-2.70334 1.60198-3.10384c0-.40049-.90111-5.10632-1.00124-5.60694-.10012-.50061-.70086-2.30285-.90111-3.20396-.20025-.90112.67583-2.12763 2.20272-2.80347s2.72838.3254 3.90484.10012.70086-.60074.80099-1.00123c.10012-.4005.57571-1.20149 2.40297-.90112s3.1539 1.52689 4.90607 2.1026 2.47807-8.33531 2.10261.20025-1.4518 24.98091-3.60447 33.942zm22.82826-15.11871c0-.50061-1.22652-2.428-.90112-4.50557s.70087-1.97745 2.20273-3.80471 2.20272-2.02751 3.8047-3.50434 1.2015-1.90235 2.60323-2.40297 1.85229-.22527 3.00371.4005 1.02628.7259 1.60199 2.1026.85105 2.22776.70086 3.40421-1.00124.90112-1.30161 1.30161c-.30037.4005-1.15143 1.70211-1.30161 3.50434s.52565 2.02751.70087 3.70458c.17522 1.67708.67584 1.95242 0 3.00372s-1.90235.90111-2.70335 1.20149c-.80099.30037-4.00495.90111-4.6057.60074-.60074-.30037-2.30285-1.60198-2.50309-2.00248-.20025-.40049-1.30161-2.90359-1.30161-3.00372zm1.90235 14.6181c1.42676 1.20149 1.80223 4.10508 1.40173 4.2052-.40049.10012-.80099 2.20273-1.80223 2.30285-1.00123.10012-2.90359.40049-3.40421.40049s-2.12764.25032-3.00372-.50061c-.87609-.75093-.60074-1.50186-.50062-2.5031.10013-1.00124.4005-2.70335.50062-3.10384.10013-.4005.80099-1.20149 2.5031-1.40174s2.87856-.60074 4.30533.60075zm-60.87534 38.44758c1.40173 4.13011-.87608 1.95241-2.20272 3.50433s-2.70335 2.70335-3.10384 2.70335c-.4005 0-1.50186.60074-2.20273.60074s-1.40174.17522-2.5031-.60074-1.30161-1.50186-1.90235-2.5031-1.50186-2.70335-2.00248-3.40421c-.50062-.70087-1.90235-2.20273-2.30285-2.9036-.4005-.70086-.60074-1.80223-.4005-2.70334.20025-.90112 1.40174-1.90236 2.10261-2.40298.70086-.50061 2.20272-1.50185 2.80347-2.00247.60074-.50062 1.60198-.90112 2.1026-1.50186.50062-.60075-.60074-4.6057 1.80223-1.80223s6.40793 8.886 7.80966 13.01611zm62.47732-8.71078c1.71317-.85659 1.52689 1.3767 2.9036 2.40297 1.3767 1.02627 1.80223 1.00124 2.60322 1.70211.80099.70086 1.42676 2.32788 1.80223 4.2052s-.30037 2.90359-.30037 3.30409c0 .40049.70086 1.80223 1.60198 1.40173.90111-.40049 2.1026-.50062 2.20272-1.20148.10013-.70087 1.40174-2.9036 1.40174-3.30409 0-.4005.20025-1.80223.40049-2.40298.20025-.60074.4005-1.60198 1.00124-2.20272.60075-.60075 1.30161-1.80223 2.20273-1.90236.90111-.10012 3.30409.20025 3.70458.20025.4005 0 1.60199 1.10136 1.70211 1.50186s.4005 1.50186.50062 2.20273c.10012.70086 0 2.00247 0 2.50309s-1.00124 2.60323-1.40173 2.80347c-.4005.20025-2.00248 1.90236-2.70335 2.10261-.70087.20024-1.00124.40049-2.00248.70086s-2.60322 1.20149-3.10384 1.80223c-.50062.60075-.6508 1.22652-1.40173 2.40298s-1.20149 1.90235-1.60199 2.30285c-.40049.40049-1.40173 2.20272-1.90235 2.40297s-2.5031.30037-3.30409-.10012c-.80099-.4005-.60074-.60075-1.50186-1.20149-.90111-.60074-1.7021-1.40173-2.80347-1.40173-1.10136 0-2.1026-.20025-3.40421-.20025s-1.70211-.4005-3.10384-.50062c-1.40174-.10013-1.67708-.12516-2.5031-.20025-.82602-.0751-.60074.30037-.80099-.10012-.20025-.4005.22528-3.50434 1.70211-6.80843s3.8047-5.20644 4.2052-6.40793 3.81577-5.9629 3.90483-6.00743zm-48.96059-1.70211c.3204-.0801 4.73085.20025 9.81214.20025s7.78463.60074 10.51301-.20025c1.82726 6.90855-2.80346 27.93457-3.20396 27.83445-.4005-.10013-5.90731-1.50186-7.50929-2.00248-1.60199-.50062-4.50558.50062-4.6057-1.60198-.10013-2.10261-5.0863-24.20997-5.0062-24.22999zm45.45626 24.83073c1.0127.0608 2.55316-.15018 3.90483.70087s1.3767 1.65204 1.50186 2.70334c.12515 1.0513-.30038 1.00124-1.00124 1.50186-.70087.50062-1.80223 1.10136-4.00496 1.00124-2.20272-.10012-2.12763.12515-3.20396-.20025s-1.10137-.10012-1.10137-1.10136-1.10136-.60074 0-1.80223c1.10137-1.20149.82602-1.20149 1.80223-1.90236s.61222-.99054 2.10261-.90111zm35.84435 6.3078c1.67707.67584 2.12764.92616 3.70459 1.80224 1.57695.87609 1.7772.72589 2.60322 1.7021s1.15143 1.37671.70087 2.20273-1.70211 1.10136-2.5031 1.10136-2.70335-.20025-3.50434-.30037-3.8047-.10012-4.2052-.30037-1.60198-.70087-2.70335-1.00124c-1.10136-.30037-2.20272.30037-2.40297-.90112-.20025-1.20148-.20025-1.90235-.20025-2.50309 0-.60075-.90111-1.40174.4005-2.00248 1.30161-.60075 1.90235-1.20149 2.60322-1.10137.70087.10013 1.1264.0751 2.5031.4005s1.32663.22527 3.00371.90111zm7.31833-80.95156c1.16415-1.01171 2.07885-2.18971 3.82508-3.49246s2.55006-1.77395 3.15985-1.71852c.6098.0554 1.15029.62366 1.88482 1.27503s.55437.41577 1.05329 1.33046.7761 1.20573.94241 2.32831-.0554 2.16201-.27718 2.16201c-.22174 0-1.60764.83153-1.88482.94241-.27718.11087-1.60765 2.162-1.9957 2.27287s-.81768.2356-1.60764.94241-1.33046 1.77395-1.55221 1.88483c-.22174.11087-1.3859 1.33046-1.82938 1.38589-.44349.0554-.99785.38806-1.55221.0554-.55436-.33262-.66523-.27718-1.21959-1.05328-.55436-.77611-.27718.0554-1.10872-1.27503-.83154-1.33046-1.82939-.83154-1.55221-2.60549s.16631-2.21744.83154-2.7718 1.33046-.69295 2.05113-1.10872-.33262.45735.83154-.55436zm-39.39756 133.06257c.79769.30681 6.42656 1.8162 7.05524 1.88605.62869.0699 3.21328 1.67649 3.84197 1.74635.62868.0698 5.51845 2.51474 6.07729 2.79415.55883.27942 1.8162 1.81621 2.16547 2.02577s.78585 2.16546.69853 3.35298c-.0873 1.18752 0 1.25737-1.0478 1.39708-1.04781.13971-2.37504 1.06527-3.70226 1.46693-1.32723.40166.0699-.1397-1.60664.13971-1.67649.27942-2.93386.48898-3.98167.13971s-2.02576-.62869-3.28313-.83825-5.93758-1.88605-7.47437-2.93386-4.61036-2.37503-5.02948-2.86401-2.37503-2.02576-2.30518-2.30518c.0699-.27941.62869-.27941 1.46693-1.25737.83825-.97795 1.60664-1.60664 2.16547-2.16547.55884-.55883 2.44489-1.74635 2.44489-2.02576 0-.27942.83825-1.32723 1.46693-1.25737.62869.0698.9374.65608 1.04781.69854zm37.7211-10.54794c1.1002.66361 2.93386 1.88605 2.93386 2.23532s1.15259.9605 1.53679 2.02577.0699 1.27483 0 2.23532.0698 1.67649-.27942 1.60664c-.34927-.0699-1.25737.20956-1.88605-.27942-.62869-.48897-1.32723-.83824-1.74635-1.32722s.13971-.69854-1.25737-1.25737-1.53678-.41912-2.65445-1.04781c-1.11766-.62868-.97795-.48897-1.60664-.9081-.62868-.41912-1.32722-.27941-1.74634-1.32722-.41913-1.04781-.69854-1.11766-.0699-1.8162.62869-.69854-.9081-.9081 1.04781-1.11767 1.95591-.20956 1.32723-.20956 2.16547-.20956.83825 0 1.20498.47152 2.09562.7684s.36673-.24449 1.46693.41912zm5.09933 34.57767c.57298-1.30513.97796-1.88605 1.04781-2.30517.0699-.41913.69854-1.46694 1.32723-1.60664.62868-.13971 2.16547 0 2.93386.1397.76839.13971 2.23532.62869 2.65445.62869.41912 0 1.25737.34927 1.88605.62868.62869.27942 1.22244 1.06527 1.60664 1.88606.3842.82078-.15717.78586-.0699 1.39708.0873.61122.69854.9081.41912 1.04781-.27941.1397-1.74635.34926-2.02576.27941-.27942-.0699-.78586-.50644-1.53679-.13971s-.76839.97795-1.46693 1.60664-.45405.47151-1.32722.9081-.69854.69854-2.16547.83825-1.46693.0698-2.37504-.20956c-.9081-.27942-1.25737-.55883-1.74634-1.04781-.48898-.48898-.62869-.69854-.62869-1.18752 0-.48897 1.41123-2.73713 1.46693-2.86401zm-101.7953-166.16466c.79475-.007 6.69888 0 7.49366 0s4.65515.5677 5.10932 0c.45416-.5677 1.24894-1.02186 1.36248-1.93018.11354-.90833.5677-2.61143.22708-3.06559s-2.38435-2.38435-2.61143-3.51975-1.24894.11354-.22708-2.27081c1.02186-2.38434 1.93019-3.4062 3.06559-5.22285 1.1354-1.81664.79478-.45416 2.15727-3.29267 1.36248-2.8385 1.81664-2.8385 2.2708-4.20099.45416-1.36248.90832-1.81664.90832-2.61142 0-.79479-.5677-1.13541 0-1.81665.56771-.68124.99348-.93671 2.38435-.68124s2.61143 1.7031 3.17913 1.7031 1.78826.39739 3.06559-.22708.90832.79478 2.04372-2.2708c1.1354-3.06559.82317-2.12888 1.1354-3.63329s-1.58956-1.13541.11354-2.38435c1.70311-1.24894.56771-.34062 1.81665-1.36248s2.15726-2.04373 2.2708-2.72497.45417-1.93018.45417-3.06559c0-1.1354-.11354-1.81664 0-3.17912.11354-1.36249.11354-2.61143.11354-3.63329 0-1.02187 0-1.58957-.11354-2.49789s-.11354-1.1354-.56771-2.04373c-.45416-.90832-.90832-3.17912-2.04372-3.29266s-2.27081-.68125-6.13118.45416c-3.86037 1.1354-8.40198 5.56347-9.3103 7.15304-.90832 1.58956-9.53738 19.30184-10.55925 22.02681-1.02186 2.72497-5.33639 8.7426-5.79055 11.58111s-3.40621 8.7426-3.51975 10.33217c-.11354 1.58956-.53932 4.3713-.11354 5.79055.42577 1.41925-.51098-.0924 1.81664-.11354z"/><path d="m-281.1204 360.3648s-112.21924 243.5962-112.65854 250.80072c-.59531 8.82373 132.53354-216.23822 132.53354-216.23822zm.4375 21.59375 3.46875 2.59375-22.0625 37.15625c0-2.16058 18.59375-39.75 18.59375-39.75zm-102.92085 246.50315c-4.66064 1.39222 166.01079-161.80477 166.01079-161.80477l17.15815 26.23115s-177.5459 133.90428-183.16894 135.57362zm199.7021-110.81565s-148.77978 85.05949-156.36869 91.35837c9.60328-3.13187 163.77495-73.01463 163.77494-73.01462zm-10.6875 13.53125c.1768-.0179.39513.0564.8125.21875 1.66949.64923 3.49967 2.79894 3.46875 4.4375-.0309 1.63855-.68762.57885-3.59375 2.09375s-5.73846 4.47558-8.03125 3.96875c-.64424-.14241-3.4554-1.89837-2.21875-4.0625 1.23666-2.16414 4.59054-2.98611 7.1875-4.59375 1.94771-1.20572 1.84459-2.00888 2.375-2.0625zm-158.68829 94.49839c3.57041-2.52515 201.79826-47.53278 201.79826-47.53278l11.66714 20.30946s-206.98477 27.22332-213.4654 27.22332zm53.58241 9.93867 177.59975-9.07444 2.16058 13.82772zm-66.76912 6.46919c5.9671 5.84951 272.03125 36.53124 272.03125 36.53125l-5.1875-24s-261.06553-13.05351-266.84375-12.53125zm213.34375 19.96875 38.65625 1.375.75 1.8125.3125 2.125c.00001.00001.29588 1.68335-.3125 1.53125-.60837-.15208-39.40625-6.69165-39.40625-6.84375zm-226.94825 1.2175c8.90802-.41622 262.37413 51.44599 262.37413 51.44599l-63.60778-1.52093s-197.34208-44.45538-198.76635-49.92506zm-10.8029 7.34597c5.49535-1.56691 116.67137 42.34739 116.67137 42.34739l-41.05104 1.72846s-74.3581-41.13064-75.62033-44.07585zm-34.5693-64.38531c0-1.47261-27.22332-58.7678-27.22332-58.7678l-9.93867 9.93867s25.80188 51.41622 37.16199 48.82913zm4.24049 1.49362c-1.93292-2.10864-20.6609-84.02781-20.6609-84.02781l4.75328-19.01312s18.73 106.11988 15.90762 103.04093zm12.17993 1.96331c3.14115-5.98254 45.80432-206.98366 45.80432-206.98366l-25.49486 13.3956s-22.15452 190.07366-20.30946 193.58806zm70.86706-52.28606 99.38672-125.3137 7.77809 13.82772z"/></g></g></svg>