<svg height="140.59151mm" viewBox="0 0 160.8291 140.59151" width="160.8291mm" xmlns="http://www.w3.org/2000/svg"><g stroke-width=".264583" transform="translate(-109.27292 -59.531251)"><path d="m193.35325 61.663061c-1.49062-2.874748-6.28186-2.448859-7.50629 0l-76.02113 131.865779c-1.24217 1.86326.44364 6.60127 3.14093 6.38833l153.05374.0532c2.57308.33717 4.87997-3.69103 3.56682-5.85596z" stroke="#000"/><path d="m189.5664 74.454162-66.88337 116.153118 133.67595-.24211z" fill="#f9a800" stroke="#000"/><path d="m194.78879 118.38469c-.68814-.10266-1.73201 1.37203-2.41123 3.51865-.18417.58208-.41806 1.17739-.51986 1.32291s-.53263 1.20212-.95756 2.34766c-1.34912 3.63695-2.93567 4.92465-8.46357 6.8709-3.88941 1.36937-6.5518 2.38706-7.08226 2.70681-.34331.20695-.50303.72463-.59221 1.9203-.0671.90044-.37069 2.3025-.67489 3.11557-.44783 1.19693-.72249 1.54875-1.44229 1.8495-.48897.2043-1.22037.3747-1.62523.37827-.77142.007-1.72652.30598-6.6306 2.07895-1.86494.67422-3.89778 1.19631-5.42085 1.39164-2.09159.26824-2.54141.41699-3.17552 1.0511-.5909.5909-.70379.88674-.56431 1.47846.25044 1.06246.74073 2.4598 1.5751 2.4598.20205 0 .63402.36091.96015.80202.32612.44111 1.19005 1.18525 1.91926 1.65364l1.3255.85163 4.50515.13229c4.46966.13125 4.49312.13498 2.91817.47491-2.33772.50457-3.80847 1.09497-4.10414 1.64745-.4144.77431-.3069 1.52006.27853 1.93011.29717.20814.51193.48277.47698.6103-.035.12752.0255.49378.13436.81339.23923.70201 1.57827.96601 4.93406.97358 2.26215.005 3.62887-.27113 7.90546-1.59732 1.80853-.56083 2.51351-.65629 3.82871-.51883.8867.0927 1.75086.31638 1.91978.49713.16891.18075 1.39569 2.14549 2.72645 4.36614 1.71185 2.85658 2.49629 4.44124 2.68149 5.41776.31197 1.64504 1.01706 2.76693 3.31504 5.27099 1.92646 2.09923 2.36391 2.81747 2.63808 4.33307.10439.57705.29743 1.25739.42892 1.51205.13148.25466.42839.44184.42839.44184l24.0807-31.77739s-.1344-.16761-.33538-.28009c-.77385-.43307-4.34962-3.69129-6.49056-5.91437-4.51824-4.69161-6.61235-6.70643-7.38507-7.10602-.75808-.39202-.81636-.52303-.80564-1.80506.006-.76025.19289-2.81109.41444-4.55734.47076-3.71037.86933-9.41691.70642-10.08207-.88103-1.46821-3.37581 2.46467-4.26899 2.77709-1.54907 1.14976-3.28706 2.57931-3.8623 3.17655-1.95448 2.02926-2.57368 1.31127-2.69182-3.12126-.0443-1.66337-.19121-3.1347-.32608-3.26957-.0817-.0817-.17248-.12848-.27078-.14314zm-15.42438 21.90719c1.07874 0 3.79035 1.22276 3.96048 1.78593.0695.23009-.25938.33073-1.08056.33073-.6492 0-1.60768.1786-2.1301.39688-1.30069.54346-1.40626.51502-1.59525-.42995-.36442-1.82212-.25842-2.08359.84543-2.08359zm46.8731 11.82253c-8.14519 10.31913-15.77506 21.04689-23.80681 31.45338 0 .0638.68461.11591 1.52135.11575 1.14661-.00021 1.91565-.55914 1.91565-.55914l21.98212-28.81477-.70642-1.20562c-.38854-.66298-.79637-1.10837-.90589-.9896zm-6.97115.56637c-.72646.0144-1.41092.34338-1.87585.90176-.38549.46312-.59115 1.04965-.57929 1.6521.0272 1.3833 1.17053 2.4827 2.55384 2.45566 1.38352-.0272 2.483-1.17086 2.45567-2.55437-.0275-1.38331-1.17106-2.48247-2.55437-2.45515zm-7.83931 10.58231c-.72673.0143-1.41142.34356-1.87637.90226-.38537.46299-.59103 1.04932-.5793 1.65158.0272 1.38352 1.17086 2.48299 2.55437 2.45567 1.38351-.0272 2.48299-1.17086 2.45566-2.55437-.0275-1.38331-1.17105-2.48247-2.55436-2.45514zm-7.83983 10.58229c-.72655.0145-1.41102.3437-1.87586.90228-.38567.46304-.59152 1.04959-.57981 1.65209.0272 1.38351 1.17086 2.48299 2.55437 2.45567 1.38351-.0272 2.48299-1.17086 2.45566-2.55437-.0272-1.38351-1.17086-2.48299-2.55436-2.45567z"/></g></svg>