<svg height="525" width="600" xmlns="http://www.w3.org/2000/svg"><path d="m597.6 499.6-283.8-491.6c-2.9-5-8.2-8-13.9-8s-11 3.1-13.9 8l-283.8 491.6c-2.9 5-2.9 11.1 0 16 2.9 5 8.2 8 13.9 8h567.6c5.7 0 11-3.1 13.9-8 2.9-5 2.9-11.1 0-16z"/><path d="m43.875 491.5 256-443.3 256 443.3z" fill="#f6bd16" transform="matrix(1 0 0 .99591458 .125 2.033244)"/><path d="m.643048 344.96451c.06787-.0509 0 .16968 0 0z" fill="none" stroke="#000"/><path d="m221.71019 466.18559v-71.3583l13.13069-.14416 26.91999 26.06298 27.92641-26h12.41623v71.50005zm73.39563-5.93948v-59.46993h-2.28989l-31.05506 29.93363-30.42506-29.93363h-3.49487v59.72638zm25.83013.49626-2.09501-.004c-8.91903-4.51777-11.22119-9.92508-13.7162-18.83635 2.2453-13.47675 4.93425-28.22656 7.27563-40.65617.39167-3.35351.78335-6.70703 1.17502-10.06054-.92704-.76938-1.85409-1.53875-2.78113-2.30813-8.92463-2.56676-17.92329-4.8237-26.95213-6.98472-4.33373 1.87417-8.66746 3.74835-13.00119 5.62252-2.40134.84187-4.80268 1.68375-7.20402 2.52562-8.11418-2.86117-16.22836-5.72235-24.34254-8.58353l-10.18311 3.28878c-5.25615.26149-8.12655 6.63468-11.087 10.23437-2.20637.92187-4.41273 1.84375-6.61909 2.76563-5.5228.5714-10.67564-.76392-15.06424-3.0511v-2.89728c-1.88343-.97396-3.76687-1.94792-5.6503-2.92188-4.26385-4.70096-2.43338-3.7039-7.3497-8.13524-.65907-4.03723 1.63853-5.01995 4.5-6.89175 6.88795-1.74001 13.7759-3.48001 20.66385-5.22002 1.44538-.66584 2.89077-1.33167 4.33615-1.9975 1.90916-2.67364 3.8183-5.3473 5.72745-8.02095 1.75752-.68209 3.51503-1.3642 5.27255-2.04631l18.5-.5433 18.5-.54331 11.52153-11.3367 11.52154-11.3367 14.37805-.27885 14.37805-.27885 8.13441-13.5 8.13441-13.5 17.86245-29.5 20.95236-36.31023c.55512-.96201 1.40169-1.26409 1.96661-1.18878 11.6194 19.3227 25.84331 42.5236 35.86127 59.74121l-51.15606 72.2578c-7.32979 22.33333-14.65957 44.66667-21.98936 67-2.64534 7.31875-6.10241 23.01927-11.47025 23.496zm-125.35014-90.99626c-.87647-1.05607-1.75293-2.11215-2.62939-3.16822l-.42704-14.19445c.39336-6.77584-3.02016-12.06839 2.31154-16.43973l15.12061-5.5988 15.12062-5.5988h1.48025 1.48026l6.89913 5.13465 6.89913 5.13466 7.25 7.09032 7.25 7.09031v1.13258 1.13257c-8.56332 1.22055-17.65395 1.29814-25.61144 1.28491-2.29619-1.70757-4.59237-3.41515-6.88856-5.12272-4.23116.27415-7.29911 2.07152-10.5 4.16883v5.27817c-1.69476 2.89191-3.38954 5.78381-5.08431 8.67572h-3.47121c-1.14163 1.33334-2.28327 2.66667-3.42491 4zm66.15373-20.01081-.89862-.0108c-5.95355-5.9618-11.9071-11.92361-17.86065-17.88541l4.58754-4.90445c17.80878-16.66128 6.1531-44.65047-4.27453-55.82164l.54764-35.86689h37l.51955 95.74726c-6.24077 6.25092-12.48154 12.50183-18.72231 18.75274l-.89862-.0108zm12.62206-21.45191-.52068-87.58075h-23.5v27.82268c16.8129 24.36432 18.4756 41.21748 2.89982 63.45266l8.60018 8.6402zm-35.02068 1.40181-.5.006-22.81003-16.83827c-11.05809-3.1935-15.8349-7.39207-18.67882-17.60645-.75616-4.48817.8715-5.98959 3.67103-8.52312l32.81697 13.37972 10.5 7.70649v18.11632l-4.5 3.75405-.5.006zm75.0553-47.93909-29.0804-33.91542 15.36804-.009.65706-29.57588.5-29h12.5 12.5l.5 29 .34294 29.57588 15.65706.008z"/></svg>