<svg height="600" viewBox="0 0 515.241 450" width="686.987" xmlns="http://www.w3.org/2000/svg"><g fill-rule="evenodd" stroke-width=".385"><path d="m472.426 419.155-214.81-372.04-214.802 372.04zm0 0" fill="#f9a800"/><g fill="#020505"><path d="m500.472 450c8.226 0 14.769-6.542 14.769-14.586 0-2.992-.934-5.792-2.435-8.226l-243.03-420.646c-2.626-4.108-7.291-6.542-12.159-6.542-4.86 0-9.535 2.434-12.335 6.542l-242.848 420.646c-1.5 2.434-2.434 5.234-2.434 8.226 0 8.044 6.542 14.586 14.768 14.586zm-28.046-30.845-214.81-372.04-214.802 372.04zm0 0"/><path d="m142.998 396.9v-39.324h10.61c1.592 1.602 37.073 37.114 37.073 37.114s35.47-35.512 37.063-37.114h10.61v39.324h5.71v-45.036h-18.684s-31.109 31.14-34.7 34.74c-3.6-3.6-34.71-34.74-34.71-34.74h-18.683v45.036zm0 0"/><path d="m210.42 201.767h-16.483l-3.297 5.72h16.929v120.724c-1.37 1.37-13.784 13.795-16.888 16.899-2.76-2.759-10.813-10.823-13.562-13.572.081-.091.345-.344.345-.344 10.184-10.194 15.906-24.131 15.906-38.514 0-.69-.01-1.4-.04-2.1-.59-15.113-7.517-29.405-18.999-39.233 0 0-.132-.112-.172-.152v-15.145l-5.721 9.9v7.88l2.18 1.857c10.276 8.794 16.473 21.585 17 35.116.528 13.53-4.645 26.777-14.19 36.353l-4.381 4.381 21.635 21.656 22.599-22.62v-128.805zm97.424 116.363 11.4-11.412-40.541-2.11 2.14 40.542 10.944-10.964c13.034 13.155 22.772 28.198 27.275 41.749 7.11-2.404 14.373-4.767 21.27-7.962-5.771-16.767-17.172-34.406-32.488-49.844m-59.185-56.051 4.422-3.073c.944-.619 1.897-1.248 2.87-1.907-.7-1.146-1.825-2.16-3.57-3.002l-6.136-2.567 2.728-10.792 8.43-6.157 10.477 1.948a8.036 8.036 0 0 0 -.274-1.532l-1.065-4.24c-1.339-.233-19.81-3.469-20.661-3.62-.71.496-9.13 6.41-9.474 6.663-.233.365-6.725 10.61-7.08 11.178 0 .142.01.284.01.507 0 1.329-.152 4.088-1.065 8.5-.8 3.895-3.256 6.907-6.714 8.581.649 3.58 1.186 6.553 1.186 6.553 3.57-.822 6.796-2.84 8.571-5.924 1.897 3.712 3.58 7.04 3.58 7.04 3.328-1.897 5.924-4.92 6.624-8.582l5.457 1.927c.66-.68 1.258-1.186 1.684-1.5"/><path d="m335.535 226.445c-9.19-4.889-20.926-11.005-24.75-12.466-3.326-1.257-6.38-1.846-10.224-1.977l-6.623-.447c-7.526-.588-18.907-1.46-29.162-1.5-11.857-.052-21.554 1.176-21.655 1.186-3.611.477-6.3 3.236-8.896 5.903.01 0-.122.132-.122.132l-4.118 3.753-3.753 3.398c-1.004 1.004-3.225 5.477-4.686 8.44-1.024 2.078-1.836 3.722-2.312 4.411-2.171 3.216-2.475 4.129-2.546 7.486-.061 3.073-.548 13.328-.73 16.929 4.32-.355 8.935-2.617 10.082-8.176.882-4.28 1.004-6.907 1.004-8.053 0-.446-.021-.68-.021-.69l-.03-.385 7.729-12.203 10.62-7.465s17.649 3.094 20.59 3.6l-.243-.963 2.211-.558 1.907 7.598c.294.973.426 2.069.426 3.266 0 5.62-3.053 13.084-7.293 16.868-3.073 2.759-6.015 4.686-8.601 6.39l-4.301 2.962c-1.674 1.288-4.777 4.32-4.777 9.159 0 1.4.355 2.992.994 4.706 3.722-1.754 15.61-7.435 18.622-9.382.528-.345 6.32-4.473 12.456-8.855l7.73-5.498-9.728-9.96 12.76-12.486.811-.791 13.298 13.257c1.177-.021 2.404.152 3.55.578 2.292.872 45.28 28.634 63.638 40.522zm0 0"/><path d="m288.886 233.992c-1.298 1.268-9.007 8.814-10.315 10.092.578.599 14.251 14.617 14.251 14.617l-102.141 102.252s-50.35-50.441-51.933-52.024a7702.378 7702.378 0 0 1 -8.703 8.876c1.501 1.531 59.094 60.747 60.646 62.34 1.602-1.603 120.896-120.339 122.498-121.931-.811-.802-23.897-23.827-24.303-24.222"/></g></g></svg>