<svg height="600pt" viewBox="0 0 688 600" width="688pt" xmlns="http://www.w3.org/2000/svg"><g fill-rule="evenodd"><path d="m630.152344 559.800781-286.519532-496.878906-286.523437 496.878906zm0 0" fill="#f9a800"/><g fill="#020505"><path d="m667.554688 600.992188c10.972656 0 19.707031-8.734376 19.707031-19.460938 0-4.003906-1.246094-7.746094-3.25-11l-324.164063-561.796875c-3.496094-5.492187-9.726562-8.734375-16.214844-8.734375-6.488281 0-12.722656 3.242188-16.460937 8.734375l-323.921875 561.796875c-1.992188 3.253906-3.25 6.996094-3.25 11 0 10.726562 8.738281 19.460938 19.710938 19.460938zm-37.402344-41.191407-286.519532-496.878906-286.523437 496.878906zm0 0"/><path d="m288.917969 347.941406 5.460937-13.171875-33.796875 11.921875 15.386719 32.417969 5.257812-12.652344c15.046876 6.371094 28.050782 15.390625 36.289063 24.941407 4.996094-4.367188 9.425781-9.425782 13.980469-14.363282-10.335938-11.761718-24.953125-21.703125-42.578125-29.09375"/><path d="m379.960938 438.015625c-7.367188-17.632813-17.082032-32.132813-28.839844-42.480469-4.929688 4.558594-10.210938 8.871094-14.558594 13.875 9.535156 8.234375 18.554688 21.265625 24.910156 36.324219l-12.625 5.273437 32.359375 15.382813 11.90625-33.839844zm0 0"/><path d="m448.179688 302.515625c-11.339844-20.859375-37.429688-28.550781-58.25-17.195313-13.707032 7.472657-21.699219 21.332032-22.347657 35.875h-.027343c0 .148438.011718.285157.011718.433594-.027344.867188-.039062 1.75-.011718 2.628906l.105468-.050781c.082032 1.152344.203125 2.316407.367188 3.484375l3.101562-.460937c-.21875-1.519531-.339844-3.023438-.394531-4.542969l10.039063-4.9375 2.613281 10.199219 9.660156-4.191407 1.570313 10.214844 1.558593 7.050782 9.398438-5.492188 5.230469 7.066406-1.558594 11.757813 10.171875 2.617187-.039063 8.167969c.285156-.070313.582032-.152344.878906-.230469l1.328126-.257812-.011719-.054688c3.222656-.867187 6.394531-2.089844 9.441406-3.757812 20.820313-11.367188 28.511719-37.488282 17.160156-58.320313"/><path d="m369.464844 334.039062c.621094 2.0625 1.40625 4.097657 2.355468 6.089844l2.832032-1.34375c-.882813-1.859375-1.613282-3.742187-2.195313-5.65625zm0 0"/><path d="m383.617188 355.386719c1.667968 1.398437 3.429687 2.660156 5.269531 3.785156l1.628906-2.6875c-1.707031-1.042969-3.347656-2.210937-4.90625-3.511719zm0 0"/><path d="m394.660156 362.128906c2.003906.839844 4.050782 1.53125 6.148438 2.089844l.785156-3.039062c-1.9375-.503907-3.859375-1.152344-5.703125-1.941407zm0 0"/><path d="m407.527344 362.292969-.339844 3.117187c2.140625.230469 4.308594.324219 6.488281.246094l-.105469-3.132812c-2.019531.066406-4.050781-.015626-6.042968-.230469"/><path d="m422.304688 392.945312-2.882813-1.234374c-.855469 2.019531-1.574219 4.09375-2.101563 6.171874l3.023438.785157c.5-1.925781 1.164062-3.851563 1.960938-5.722657"/><path d="m428.578125 382.691406-2.371094-2.023437c-1.394531 1.628906-2.683593 3.390625-3.804687 5.265625l2.667968 1.640625c1.054688-1.738281 2.234376-3.363281 3.507813-4.882813"/><path d="m419.015625 404.785156-3.050781-.71875-1.449219 6.101563 3.050781.722656zm0 0"/><path d="m416.117188 417.003906-3.050782-.730468-1.449218 6.101562 3.050781.734375zm0 0"/><path d="m557.058594 510.660156-67.023438-123.207031c-10.335937-18.976563-34.082031-25.988281-53.046875-15.640625-3.640625 1.980469-6.824219 4.476562-9.546875 7.324219l6.082032 8.695312-4.445313 7.839844 7.585937 8.367187-7.3125 4.449219-4.175781 9.140625 6.003907 7.066406-1.574219 5.75-10.96875-2.34375-6.015625 3.632813.59375-2.523437-3.046875-.730469-1.300781 5.519531-.027344.015625-11.609375 48.40625-88.617188-.148437c-11.742187-.027344-21.292969 9.492187-21.304687 21.265624-.015625 11.761719 9.496094 21.324219 21.238281 21.335938l105.480469.175781c.273437 0 .53125-.027343.785156-.027343.300781-.011719.585938-.027344.882812-.039063.488282-.054687.976563-.109375 1.476563-.175781.148437-.03125.3125-.042969.460937-.082032.621094-.109374 1.21875-.230468 1.828126-.378906.011718-.015625.027343-.03125.039062-.03125 8.035156-2.113281 14.183594-8.8125 15.550781-17.128906l9.511719-39.632812 34.039062 62.527343h83.363282c-.082032-6.128906-1.761719-13.65625-4.90625-19.421875"/><path d="m259.457031 482-37.75 37.828125-37.753906-37.828125h-21.226563v48.082031h7.355469v-40.714843h10.824219l40.800781 40.714843 40.796875-40.714843h10.824219v40.714843h7.355469v-48.082031zm0 0"/><path d="m226.175781 325.875-4.242187 7.363281h15.550781v131.46875c-1.652344 1.640625-12.109375 12.113281-15.765625 15.789063-3.089844-3.121094-9.046875-9.085938-12.125-12.167969 10.011719-10.183594 15.648438-23.992187 15.648438-38.261719 0-.703125-.015626-1.410156-.042969-2.113281-.59375-15.070313-7.476563-29.324219-18.867188-39.160156v-28.480469l-7.355469 12.761719v19.097656l2.4375 2.089844c9.941407 8.503906 15.929688 20.886719 16.445313 33.988281.5 13.074219-4.5 25.890625-13.722656 35.15625l-4.917969 4.9375 22.5 22.554688 23.109375-23.136719v-141.886719zm0 0"/><path d="m170.054688 460.570312 7.355468-7.527343 43.578125 43.703125.71875.730468.714844-.730468 161.019531-161.324219 8.265625 8.53125-169.988281 169.785156zm0 0"/></g></g></svg>