<svg height="600pt" viewBox="0 0 685 600" width="685pt" xmlns="http://www.w3.org/2000/svg"><g fill-rule="evenodd"><path d="m197.47792 164.770813-93.355256-161.827751-.574744-.831833-.699197-.699599-.81573-.574146-.914161-.429479-.960547-.254297-1.000146-.0892861-1.000146.0892861-.960548.254297-.91416.429479-.816862.574146-.702591.699599-.586058.831833-93.340548 161.827751-.428795.903036-.257957.971979-.0859849 1.000234.0859849.988933.257957.971979.428795.898516.574745.828442.699197.70299.81573.570755.918686.429479.957153.257688 1.000146.085896h186.710511l.984307-.085896.976387-.257688.898321-.429479.828175-.570755.703723-.70299.573613-.828442.426533-.898516.256824-.971979.085986-.988933-.085986-1.000234-.256824-.971979zm0 0" fill="#020505" stroke="#020505" stroke-miterlimit="2.613" stroke-width=".127844" transform="scale(3.452621 3.456221)"/><path d="m99.158139 18.114979 82.703248 143.374839h-165.406496zm0 0" fill="#f9a800" stroke="#000303" stroke-miterlimit="2.613" stroke-width=".127844" transform="scale(3.452621 3.456221)"/><g fill="#020505"><path d="m588.648438 535.234375h-200.019532v-191.847656h-56.308594l92.964844-91.199219 107.488282 185.828125zm0 0"/><path d="m248.121094 368.203125v2.832031l-2.816406 1.59375-2.820313-1.59375.015625-6.074218-7.59375-4.386719v8.734375l5.257812 3.066406-.027343 3.238281-2.777344 1.632813-2.453125-1.417969v2.957031l-2.808594 1.59375-2.816406-1.59375v-2.957031l-2.457031 1.417969-2.777344-1.632813-.027344-3.238281 5.261719-3.027344v-8.789062l-7.566406 4.390625-.015625 6.074219-2.816407 1.605468-2.820312-1.605468v-2.820313l-2.546875 1.46875-2.792969-1.632813-.015625-3.238281 2.550781-1.472656-2.457031-1.417969.03125-3.242187 2.789063-1.632813 5.261718 3.039063 7.578126-4.386719-7.566407-4.375-5.246093 3.050781-2.792969-1.632812-.027344-3.242188 2.457031-1.417969-2.578125-1.484374.015625-3.238282 2.789063-1.648437 2.578125 1.5v-2.835938l2.820312-1.59375 2.816406 1.59375.015626 6.089844 7.539062 4.359375v-8.75l-5.261719-3.023438.027344-3.238281 2.777344-1.648437 2.457031 1.417968v-2.96875l2.816406-1.609374 2.808594 1.609374v2.96875l2.453125-1.417968 2.777344 1.648437.027343 3.238281-5.257812 3.050782v8.722656l7.566406-4.375-.015625-6.074219 2.820313-1.59375 2.816406 1.59375v2.820313l2.578125-1.484375 2.792969 1.632812.027344 3.242188-2.589844 1.496093 2.453125 1.40625-.027344 3.253907-2.792969 1.632812-5.273437-3.039062-7.550781 4.363281 7.578124 4.386719 5.273438-3.039063 2.792969 1.632813.027343 3.242187-2.453124 1.417969 2.5625 1.472656-.027344 3.238281-2.792969 1.648438zm0 0"/><path d="m303.269531 372.601562v1.257813l-1.242187.699219-1.238282-.699219.011719-2.6875-3.355469-1.929687v3.859374l2.316407 1.335938-.011719 1.433594-1.226562.726562-1.082032-.632812v1.308594l-1.238281.703124-1.226563-.703124v-1.308594l-1.09375.632812-1.226562-.726562-.015625-1.433594 2.335937-1.320312v-3.875l-3.347656 1.914062v2.6875l-1.253906.714844-1.238281-.714844v-1.242188l-1.121094.648438-1.226563-.714844-.015624-1.429687 1.132812-.648438-1.078125-.636719v-1.417968l1.242187-.726563 2.304688 1.347657 3.359375-1.929688-3.34375-1.929688-2.320313 1.335938-1.226562-.714844-.015625-1.429687 1.09375-.621094-1.148437-.664063.015624-1.429687 1.226563-.714844 1.132813.648438v-1.242188l1.242187-.703125 1.238281.703125.015625 2.683594 3.332031 1.917969v-3.847656l-2.335937-1.335938.015625-1.429688 1.226562-.71875 1.09375.621094v-1.320312l1.226563-.703125 1.242187.703125v1.320312l1.078126-.621094 1.226562.71875.011719 1.429688-2.316407 1.351562v3.832032l3.34375-1.929688-.015624-2.671875 1.242187-.703125 1.242187.703125v1.242188l1.144532-.648438 1.226562.714844.015625 1.429687-1.148437.648438 1.082031.636719v1.414062l-1.242187.730469-2.320313-1.335938-3.332031 1.929688 3.34375 1.929688 2.320312-1.347657 1.230469.726563.011719 1.417968-1.078125.636719 1.132812.648438-.015625 1.429687-1.226562.714844zm0 0"/><path d="m280.8125 359.832031v1.253907l-1.238281.703124-1.242188-.703124.015625-2.6875-3.359375-1.929688v3.863281l2.332031 1.347657-.011718 1.417968-1.226563.730469-1.09375-.621094v1.296875l-1.242187.699219-1.226563-.699219v-1.296875l-1.09375.621094-1.226562-.730469v-1.417968l2.320312-1.335938v-3.875l-3.34375 1.917969v2.699219l-1.242187.703124-1.238282-.703124v-1.253907l-1.132812.648438-1.230469-.71875-.011719-1.429688 1.132813-.648437-1.078125-.621094v-1.429688l1.238281-.730468 2.308594 1.351562 3.355469-1.929687-3.34375-1.933594-2.304688 1.335937-1.242187-.714843-.011719-1.429688 1.089844-.621093-1.144532-.660157.011719-1.433593 1.226563-.714844 1.148437.660156v-1.253906l1.242188-.703125 1.226562.703125.011719 2.6875 3.332031 1.929687v-3.859375l-2.320312-1.339844v-1.429687l1.226562-.714844 1.09375.621094v-1.324219l1.226563-.703125 1.242187.703125v1.324219l1.09375-.621094 1.226563.714844.011718 1.429687-2.332031 1.351563v3.847656l3.34375-1.945312-.011719-2.671875 1.253907-.703125 1.226562.703125v1.242187l1.144531-.648437 1.230469.714844.011719 1.433593-1.144531.660157 1.078125.621093v1.429688l-1.226563.714843-2.335937-1.335937-3.328125 1.933594 3.34375 1.929687 2.320312-1.335937 1.226563.714843.011718 1.429688-1.078124.621094 1.132812.648437-.011719 1.429688-1.226562.71875zm0 0"/><path d="m291.292969 336.433594v1.40625l-1.402344.792968-1.390625-.792968v-3.011719l-3.761719-2.1875v4.347656l2.601563 1.511719v1.605469l-1.386719.8125-1.214844-.703125v1.472656l-1.386719.78125-1.40625-.78125v-1.472656l-1.210937.703125-1.375-.8125-.015625-1.605469 2.601562-1.5v-4.359375l-3.746093 2.171875v3.027344l-1.40625.78125-1.386719-.78125v-1.40625l-1.269531.730468-1.386719-.8125v-1.605468l1.253906-.730469-1.199218-.699219v-1.609375l1.386718-.808593 2.605469 1.511718 3.761719-2.171875-3.75-2.175781-2.601563 1.511719-1.378906-.808594-.027344-1.605469 1.230469-.703125-1.28125-.742187v-1.605469l1.386719-.8125 1.28125.742187v-1.402343l1.390625-.796875 1.402344.796875v3.023437l3.734374 2.160156v-4.347656l-2.601562-1.484375.015625-1.621093 1.375-.808594 1.214844.703125v-1.472657l1.402343-.796874 1.386719.796874v1.472657l1.214844-.703125 1.390625.808594v1.621093l-2.605469 1.511719v4.320312l3.75-2.171874v-3.011719l1.390625-.796875 1.402344.796875v1.402343l1.265625-.742187 1.390625.8125.011719 1.605469-1.28125.742187 1.214843.703125-.011718 1.589844-1.378906.824219-2.613282-1.511719-3.75 2.175781 3.761719 2.171875 2.601563-1.511718 1.390624.808593.015626 1.609375-1.214844.699219 1.265625.730469-.011719 1.605468-1.390625.8125zm0 0"/><path d="m282.285156 395.363281v2.027344l-2.023437 1.148437-2.011719-1.148437.015625-4.347656-5.449219-3.144531v6.261718l3.777344 2.1875-.015625 2.324219-2.007813 1.171875-1.753906-1.011719v2.121094l-2.007812 1.132813-2.023438-1.132813v-2.121094l-1.742187 1.011719-1.996094-1.171875-.027344-2.324219 3.765625-2.160156v-6.304688l-5.410156 3.148438-.015625 4.34375-2.019531 1.164062-2.011719-1.164062v-2.011719l-1.820313 1.054688-2.007812-1.175781-.015625-2.320313 1.835937-1.054687-1.753906-1.011719.011719-2.320313 1.996094-1.175781 3.765625 2.1875 5.433594-3.144531-5.421876-3.132813-3.761718 2.1875-1.996094-1.191406-.015625-2.308594 1.753906-1.011719-1.847656-1.066406.015625-2.320312 2.007812-1.175782 1.835938 1.066407v-2.023438l2.019531-1.148437 2.011719 1.148437.011719 4.359375 5.398437 3.117188v-6.261719l-3.765625-2.175781.027344-2.308594 1.996094-1.171875 1.742187 1.011719v-2.132813l2.023438-1.148437 2.007812 1.148437v2.132813l1.753906-1.011719 2.007813 1.171875.015625 2.308594-3.777344 2.1875v6.25l5.4375-3.128906-.015625-4.347657 2.007813-1.148437 2.023437 1.148437v2.023438l1.847657-1.078125 1.996093 1.1875.015625 2.308594-1.847656 1.078124 1.753906 1.011719-.015625 2.308594-1.996093 1.175781-3.777344-2.171875-5.40625 3.132813 5.421875 3.128906 3.777343-2.171875 1.996094 1.1875.011719 2.308594-1.753906 1.011719 1.835937 1.054687-.015625 2.320313-1.996093 1.175781zm0 0"/><path d="m321.4375 349.125v1.675781l-1.671875.941407-1.660156-.941407v-3.605469l-4.503907-2.605468v5.183594l3.113282 1.820312-.011719 1.917969-1.644531.972656-1.457032-.835937v1.753906l-1.671874.945312-1.675782-.945312v-1.753906l-1.453125.835937-1.648437-.972656-.011719-1.917969 3.113281-1.792969v-5.210937l-4.488281 2.589844v3.621093l-1.675781.941407-1.671875-.941407v-1.691406l-1.523438.878906-1.644531-.972656-.015625-1.917969 1.511719-.875-1.457032-.835937.015626-1.933594 1.65625-.972656 3.117187 1.8125 4.519531-2.59375-4.507812-2.605469-3.113282 1.808594-1.644531-.972656-.027343-1.917969 1.457031-.847657-1.527344-.878906.015625-1.917968 1.644531-.984376 1.539063.890626v-1.671876l1.671875-.960937 1.671875.960937v3.617188l4.476562 2.578125v-5.199219l-3.113281-1.792968.011719-1.917969 1.644531-.972657 1.457031.835938v-1.769531l1.671875-.941407 1.675781.941407v1.769531l1.453126-.835938 1.648437.972657.011719 1.917969-3.113282 1.820312v5.171875l4.488282-2.59375v-3.601563l1.660156-.960937 1.671875.960937v1.671876l1.539063-.890626 1.644531.984376.015625 1.917968-1.527344.878906 1.457031.847657-.011719 1.917969-1.660156.972656-3.128906-1.796875-4.476562 2.59375 4.492187 2.59375 3.128906-1.8125 1.65625.988281.015625 1.917969-1.457031.835937 1.511719.875-.015625 1.917969-1.644531.988281zm0 0"/><path d="m262.5 329.453125v1.675781l-1.671875.957032-1.660156-.957032v-3.605468l-4.503907-2.605469v5.199219l3.113282 1.808593-.011719 1.914063-1.644531.988281-1.457032-.851563v1.753907l-1.671874.945312-1.675782-.945312v-1.753907l-1.453125.851563-1.648437-.988281-.011719-1.914063 3.113281-1.796875v-5.210937l-4.488281 2.59375-.015625 3.617187-1.671875.945313-1.660156-.945313v-1.675781l-1.523438.878906-1.65625-.972656-.015625-1.929687 1.523438-.878907-1.457032-.835937.015626-1.917969 1.65625-.972656 3.117187 1.808593 4.503906-2.605468-4.492187-2.605469-3.113282 1.808594-1.660156-.96875-.011718-1.917969 1.457031-.839844-1.539063-.890625.015625-1.914062 1.65625-.972657 1.539063.875v-1.671874l1.671875-.945313 1.660156.945313.011719 3.617187 4.476562 2.578125v-5.195312l-3.113281-1.785157.011719-1.929687 1.648437-.972656 1.453125.839843v-1.769531l1.675782-.945312 1.671874.945312v1.769531l1.457032-.839843 1.644531.972656.011719 1.929687-3.113282 1.808594v5.171875l4.492188-2.589844v-3.605468l1.65625-.945313 1.671875.945313v1.671874l1.539063-.875 1.644531.972657.015625 1.914062-1.523438.890625 1.441406.839844-.015624 1.917969-1.65625.96875-3.117188-1.792969-4.492188 2.589844 4.507813 2.59375 3.128906-1.796875 1.644531.972656.027344 1.929687-1.457031.824219 1.511719.878907-.015625 1.929687-1.644531.972656zm0 0"/><path d="m312.953125 313.929688v1.820312l-1.820313 1.027344-1.808593-1.027344.015625-3.914062-4.882813-2.808594v5.617187l3.386719 1.96875-.03125 2.082031-1.777344 1.050782-1.578125-.902344v1.902344l-1.820312 1.027344-1.808594-1.027344v-1.902344l-1.5625.902344-1.796875-1.050782-.011719-2.082031 3.371094-1.941406v-5.660156l-4.855469 2.824219-.015625 3.914062-1.804687 1.027344-1.820313-1.027344v-1.820312l-1.632812.945312-1.792969-1.054688-.015625-2.078124 1.632813-.960938-1.566407-.902344.015625-2.082031 1.792969-1.050781 3.371094 1.957031 4.882812-2.820313-4.867187-2.808593-3.371094 1.957031-1.796875-1.054688-.011719-2.078124 1.578125-.917969-1.660156-.957031.015625-2.082032 1.792969-1.050781 1.660156.957031v-1.820312l1.804687-1.027344 1.808594 1.027344.011719 3.914062 4.84375 2.808594v-5.628906l-3.371094-1.945313.011719-2.078125 1.796875-1.054687 1.5625.90625v-1.917969l1.808594-1.027344 1.820312 1.027344v1.917969l1.578125-.90625 1.777344 1.054687.03125 2.078125-3.386719 1.957031v5.617188l4.867188-2.808594-.011719-3.914062 1.804688-1.027344 1.808593 1.027344v1.820312l1.660157-.957031 1.792968 1.050781.015625 2.082032-1.660156.957031 1.578125.917969-.015625 2.078124-1.792969 1.054688-3.386718-1.957031-4.851563 2.808593 4.867187 2.820313 3.386719-1.957031 1.792969 1.050781.011719 2.082031-1.578125.917969 1.648437.945313-.015625 2.078124-1.792968 1.066407zm0 0"/><path d="m361.640625 306.136719v1.566406l-1.566406.890625-1.5625-.890625.015625-3.375-4.238282-2.441406v4.859375l2.941407 1.699218-.027344 1.796876-1.550781.917968-1.363282-.78125v1.632813l-1.550781.902343-1.5625-.902343v-1.632813l-1.363281.78125-1.550781-.917968-.015625-1.796876 2.929687-1.671874v-4.902344l-4.210937 2.445312-.011719 3.386719-1.566406.890625-1.5625-.890625v-1.578125l-1.417969.824219-1.550781-.917969-.027344-1.796875 1.429687-.824219-1.363281-.78125.015625-1.796875 1.550782-.917969 2.925781 1.699219 4.222656-2.441406-4.222656-2.445313-2.914063 1.703126-1.550781-.917969-.011719-1.796875 1.363282-.78125-1.445313-.839844.027344-1.792969 1.550781-.917969 1.429688.835938v-1.578125l1.566406-.894531 1.5625.894531.015625 3.386719 4.195312 2.429687v-4.871093l-2.929687-1.675782.015625-1.808594 1.550781-.917968 1.363281.796875v-1.660157l1.5625-.894531 1.550781.894531v1.660157l1.363282-.796875 1.550781.917968.027344 1.808594-2.941407 1.6875v4.859375l4.210938-2.441406v-3.375l1.5625-.894531 1.566406.894531v1.578125l1.429688-.835938 1.550781.917969.011719 1.792969-1.429688.824219 1.363282.796875-.015626 1.796875-1.550781.917969-2.9375-1.6875-4.195312 2.429687 4.207031 2.429687 2.941406-1.6875 1.550782.917969.011718 1.796875-1.359375.796875 1.414063.808594-.011719 1.796875-1.550781.917969zm0 0"/><path d="m339.078125 325.226562v1.363282l-1.351563.773437-1.347656-.773437v-2.914063l-3.640625-2.121093v4.214843l2.523438 1.46875-.015625 1.554688-1.335938.78125-1.171875-.671875v1.414062l-1.347656.757813-1.363281-.757813v-1.414062l-1.171875.671875-1.335938-.78125-.015625-1.554688 2.523438-1.457031v-4.226562l-3.628906 2.105468-.011719 2.929688-1.351563.773437-1.347656-.773437v-1.363282l-1.226562.71875-1.347657-.796874-.015625-1.554688 1.242188-.714844-1.175782-.675781v-1.550781l1.335938-.796875 2.535156 1.472656 3.644532-2.109375-3.644532-2.105469-2.519531 1.460938-1.335937-.785157-.015626-1.550781 1.175782-.691406-1.242188-.714844.015625-1.550781 1.347657-.785156 1.242187.714844v-1.363282l1.347656-.769531 1.347657.769531v2.929688l3.628906 2.09375v-4.199219l-2.523438-1.457031.015625-1.554688 1.332031-.78125 1.175782.660156v-1.429687l1.363281-.757813 1.347656.757813v1.429687l1.171875-.660156 1.335938.78125.015625 1.554688-2.523438 1.472656v4.183594l3.628907-2.105469v-2.917969l1.347656-.769531 1.347656.769531v1.363282l1.253906-.714844 1.335938.785156.015625 1.550781-1.242188.714844 1.171875.691406-.011718 1.550781-1.347657.785157-2.523437-1.460938-3.628906 2.105469 3.640624 2.109375 2.535157-1.472656 1.335937.796875.015625 1.550781-1.175781.675781 1.230469.714844-.015625 1.554688-1.335938.796874zm0 0"/><path d="m382.492188 283.941406v1.742188l-1.726563.972656-1.726563-.972656.011719-3.726563-4.664062-2.6875v5.363281l3.234375 1.863282-.027344 1.984375-1.699219 1.011719-1.507812-.863282v1.808594l-1.726563.972656-1.714844-.972656v-1.808594l-1.496093.863282-1.714844-1.011719-.011719-1.984375 3.222656-1.851563v-5.375l-4.640624 2.675781-.011719 3.738282-1.726563.972656-1.714844-.972656v-1.742188l-1.578124.90625-1.699219-1-.027344-1.984375 1.578125-.90625-1.496094-.875v-1.972656l1.714844-1.011719 3.222656 1.875 4.652344-2.699218-4.640625-2.671876-3.207031 1.863282-1.714844-1-.015625-1.984375 1.5-.878907-1.59375-.902343.027344-1.984375 1.699219-1.015625 1.59375.917969v-1.726563l1.710937-.984375 1.726563.984375v3.726563l4.640624 2.671874v-5.371093l-3.222656-1.835938.011719-2 1.714844-1 1.496093.867188v-1.835938l1.714844-.972656 1.722656.972656v1.835938l1.511719-.867188 1.699219 1 .027344 2-3.234375 1.863281v5.34375l4.636719-2.683593-.011719-3.726563 1.738281-.972656 1.726562.972656v1.738282l1.578126-.917969 1.699218 1.015625.027344 1.984375-1.589844.902343 1.496094.878907v1.984375l-1.710938 1-3.238281-1.863282-4.625 2.671876 4.636719 2.6875 3.238281-1.863282 1.699219 1.011719.015625 1.972656-1.484375.875 1.5625.90625-.027344 1.984375-1.699218 1zm0 0"/><path d="m247.933594 400.710938v1.40625l-1.390625.808593-1.402344-.808593v-3.011719l-3.761719-2.1875v4.347656l2.617188 1.523437-.015625 1.609376-1.386719.808593-1.214844-.703125v1.472656l-1.402344.796876-1.402343-.796876v-1.472656l-1.214844.703125-1.390625-.808593-.011719-1.609376 2.617188-1.511718v-4.359375l-3.75 2.171875-.015625 3.027344-1.402344.808593-1.386719-.808593v-1.40625l-1.269531.730468-1.390625-.796875-.011719-1.621093 1.265625-.730469-1.210937-.699219.011718-1.621094 1.375-.796875 2.617188 1.5 3.777344-2.175781-3.761719-2.171875-2.617187 1.511719-1.375-.808594-.015626-1.609375 1.214844-.699219-1.28125-.746094.011719-1.617187 1.390625-.8125 1.28125.742187v-1.402343l1.390625-.796875 1.402344.796875.011719 3.023437 3.738281 2.160156v-4.347656l-2.617188-1.496094.011719-1.609374 1.390625-.808594 1.214844.703125v-1.484375l1.402343-.796875 1.402344.796875v1.484375l1.214844-.703125 1.386719.808594.015625 1.609374-2.617188 1.523438v4.320312l3.761719-2.171874-.011719-3.011719 1.402344-.796875 1.386719.796875v1.402343l1.28125-.742187 1.390625.8125.015625 1.617187-1.28125.746094 1.210937.699219-.011718 1.609375-1.375.808594-2.632813-1.511719-3.75 2.171875 3.777344 2.175781 2.617187-1.5 1.375.808594.015625 1.609375-1.214843.699219 1.269531.730469-.015625 1.621093-1.390625.808594zm0 0"/><path d="m280.828125 306.757812v1.269532l-1.253906.714844-1.253907-.714844v-2.714844l-3.386718-1.96875v3.914062l2.347656 1.363282-.015625 1.445312-1.238281.742188-1.09375-.632813v1.320313l-1.253906.71875-1.269532-.71875v-1.320313l-1.089844.632813-1.242187-.742188-.011719-1.445312 2.34375-1.347656v-3.929688l-3.371094 1.957031-.011718 2.726563-1.257813.714844-1.253906-.714844v-1.269532l-1.144531.664063-1.242188-.730469-.011718-1.445312 1.132812-.660156-1.078125-.636719v-1.441407l1.238281-.730468 2.347656 1.363281 3.398438-1.972656-3.371094-1.957031-2.359375 1.363281-1.242187-.726563-.015625-1.445312 1.09375-.636719-1.144531-.660156.011718-1.445313 1.242188-.742187 1.160156.675781v-1.269531l1.253906-.714844 1.253906.714844v2.726562l3.371094 1.945313v-3.914063l-2.347656-1.351562.015625-1.445313 1.242187-.726562 1.089844.632812v-1.335937l1.269532-.714844 1.253906.714844v1.335937l1.09375-.632812 1.238281.726562.015625 1.445313-2.347656 1.363281v3.902344l3.386718-1.957032-.015624-2.714843 1.253906-.714844 1.269531.714844v1.269531l1.144531-.675781 1.242188.742187.011718 1.445313-1.160156.660156 1.105469.636719-.011719 1.445312-1.242187.726563-2.359375-1.347657-3.371094 1.941407 3.386719 1.960937 2.359375-1.351562 1.238281.730468.015625 1.441407-1.105469.636719 1.144531.660156-.011718 1.445312-1.242188.730469zm0 0"/><path d="m335.015625 294.015625v1.269531l-1.253906.714844-1.265625-.714844v-2.714844l-3.386719-1.972656v3.917969l2.359375 1.363281-.011719 1.441406-1.253906.730469-1.09375-.621093v1.308593l-1.253906.714844-1.253907-.714844v-1.308593l-1.09375.621093-1.253906-.730469v-1.441406l2.347656-1.351562v-3.929688l-3.386718 1.957032v2.730468l-1.265625.714844-1.242188-.714844v-1.269531l-1.144531.660156-1.242188-.730469-.011718-1.441406 1.132812-.675781-1.09375-.621094.011719-1.445312 1.242187-.742188 2.347657 1.363281 3.398437-1.957031-3.386718-1.957031-2.34375 1.363281-1.242188-.730469-.015625-1.445312 1.09375-.632812-1.144531-.664063.011718-1.457031 1.242188-.726563 1.144531.660157v-1.257813l1.253907-.714844 1.269531.714844v2.730469l3.371093 1.941406v-3.914062l-2.347656-1.351563v-1.457031l1.253906-.730469 1.09375.636719v-1.324219l1.253907-.714844 1.253906.714844v1.324219l1.09375-.636719 1.253906.730469.011719 1.457031-2.359375 1.363281v3.902344l3.386719-1.957031v-2.714844l1.253906-.714844 1.253906.714844v1.257813l1.148438-.660157 1.253906.726563.011719 1.445312-1.160157.675782 1.09375.632812-.015624 1.445312-1.226563.730469-2.375-1.351562-3.355469 1.945312 3.382813 1.957031 2.347656-1.363281 1.242187.742188.011719 1.445312-1.089843.632813 1.144531.664062-.011719 1.441406-1.253906.730469zm0 0"/><path d="m382.492188 253.996094v1.066406l-1.054688.597656-1.050781-.597656v-2.265625l-2.832031-1.648437v3.269531l1.96875 1.144531v1.203125l-1.050782.605469-.917968-.523438v1.105469l-1.039063.59375-1.050781-.59375v-1.105469l-.917969.523438-1.039063-.605469-.011718-1.203125 1.96875-1.132812v-3.28125l-2.832032 1.632812v2.269531l-1.054687.609375-1.050781-.609375v-1.054687l-.945313.554687-1.050781-.605469v-1.214843l.945312-.554688-.902343-.527343v-1.203126l1.035156-.621093 1.96875 1.148437 2.835937-1.644531-2.835937-1.636719-1.953125 1.148438-1.039062-.621094v-1.199219l.902343-.527343-.957031-.566407v-1.203125l1.050781-.609375.960938.554688v-1.050781l1.050781-.609376 1.039062.609376.011719 2.265624 2.820313 1.621094v-3.253906l-1.96875-1.132812.011718-1.214844 1.039063-.609375.917969.527343v-1.121093l1.050781-.59375 1.039063.59375v1.121093l.917968-.527343 1.050782.609375v1.214844l-1.96875 1.132812v3.253906l2.832031-1.632812v-2.269532l1.039062-.59375 1.050781.59375v1.066407l.972657-.554688 1.039062.609375.011719 1.203125-.96875.566407.917969.527343-.015625 1.199219-1.039063.609375-1.96875-1.121094-2.820312 1.621094 2.835937 1.632813 1.96875-1.136719 1.035156.621093v1.203126l-.902343.527343.957031.554688-.011719 1.214843-1.039062.605469zm0 0"/><path d="m403.421875 265.5v1.054688l-1.050781.59375-1.050782-.59375v-2.269532l-2.832031-1.632812v3.253906l1.96875 1.148438-.015625 1.214843-1.039062.605469-.917969-.539062v1.105468l-1.050781.609375-1.050782-.609375v-1.105468l-.917968.539062-1.039063-.605469v-1.214843l1.957031-1.136719v-3.265625l-2.820312 1.621094v2.28125l-1.066406.59375-1.050782-.59375v-1.054688l-.941406.539062-1.054687-.605468v-1.214844l.957031-.539062-.914062-.527344v-1.214844l1.050781-.621094 1.953125 1.144532 2.835937-1.632813-2.820312-1.632813-1.96875 1.132813-1.027344-.605469-.011719-1.214844.917969-.527343-.972656-.554688v-1.214843l1.050781-.605469.960938.550781v-1.050781l1.050781-.59375 1.050781.59375.015625 2.265625 2.804687 1.636718v-3.269531l-1.957031-1.132812v-1.203125l1.039063-.621094.917968.527344v-1.105469l1.050782-.59375 1.050781.59375v1.105469l.917969-.527344 1.039062.621094.015625 1.203125-1.96875 1.148437v3.253906l2.816407-1.636718v-2.265625l1.050781-.59375 1.039062.59375v1.050781l.972657-.550781 1.039062.605469.011719 1.214843-.957031.554688.902343.527343v1.199219l-1.050781.621094-1.96875-1.132813-2.804688 1.632813 2.820313 1.632813 1.96875-1.144532 1.035156.621094.015625 1.214844-.917968.527344.957031.550781-.011719 1.203125-1.039062.605468zm0 0"/><path d="m421.0625 244.859375v1.078125l-2.199219 1.242188-2.195312-1.242188.011719-4.738281-5.933594-3.429688v6.832031l4.113281 2.375-.027344 2.539063-2.171875 1.269531-1.914062-1.09375v2.292969l-2.199219 1.257813-2.183594-1.257813v-2.292969l-1.914062 1.09375-2.1875-1.269531-.011719-2.539063 4.113281-2.347656v-6.859375l-5.910156 3.414063-.011719 4.753906-2.199218 1.242188-2.199219-1.242188v-2.214844l-1.996094 1.160156-2.167969-1.28125-.03125-2.539062 1.996094-1.144531-1.898438-1.109375.011719-2.523438 2.183594-1.285156 4.089844 2.390625 5.933593-3.429687-5.90625-3.414063-4.101562 2.375-2.171875-1.28125-.011719-2.523437 1.898438-1.109376-2.023438-1.160156.03125-2.523437 2.167969-1.285157 2.011719 1.164063v-2.203125l2.199218-1.242188 2.195313 1.242188.015625 4.753906 5.894531 3.402344v-6.832031l-4.113281-2.363281.011719-2.523438 2.1875-1.285156.929687.542968 5.367188 9.300782v3.160156l1.375-.796875 2.183594 3.804687-1.359376.796876 2.738282 1.582031zm0 0"/><path d="m307.949219 417.613281v1.796875l-1.792969 1.027344-1.792969-1.027344v-3.859375l-4.828125-2.808593v5.574218l3.34375 1.957032-.015625 2.054687-1.777343 1.050781-1.550782-.902344v1.875l-1.796875 1.027344-1.792969-1.027344v-1.875l-1.550781.902344-1.78125-1.050781-.011719-2.054687 3.34375-1.929688v-5.601562l-4.8125 2.792968-.015624 3.875-1.792969 1.027344-1.78125-1.027344v-1.796875l-1.632813.933594-1.777344-1.039063-.015624-2.054687 1.632812-.945313-1.566406-.902343.015625-2.066407 1.78125-1.039062 3.328125 1.945312 4.84375-2.796874-4.816406-2.78125-3.34375 1.929687-1.78125-1.050781-.011719-2.054688 1.5625-.902344-1.644531-.945312.015624-2.066406 1.777344-1.050782 1.644532.957032v-1.796875l1.796874-1.023438 1.777344 1.023438.015625 3.875 4.800781 2.78125v-5.574219l-3.34375-1.929688.011719-2.066406 1.78125-1.039062 1.550781.902344v-1.902344l1.792969-1.027344 1.796875 1.027344v1.902344l1.550782-.902344 1.777343 1.039062.015625 2.066406-3.34375 1.941407v5.550781l4.8125-2.78125v-3.863281l1.792969-1.023438 1.78125 1.023438v1.796875l1.644531-.957032 1.78125 1.050782.015625 2.066406-1.648437.945312 1.566406.902344-.015625 2.054688-1.777344 1.050781-3.359375-1.929687-4.800781 2.78125 4.8125 2.78125 3.359375-1.929688 1.78125 1.050781.011719 2.054688-1.5625.902343 1.632812.945313-.015625 2.066406-1.78125 1.027344zm0 0"/><path d="m400.859375 213.101562v1.09375l-1.078125.609376-1.09375-.609376.015625-2.347656-2.941406-1.6875v3.375l2.039062 1.175782-.015625 1.242187-1.078125.632813-.945312-.539063v1.132813l-1.066407.621093-1.089843-.621093v-1.132813l-.945313.539063-1.078125-.632813v-1.242187l2.023438-1.160157v-3.390625l-2.929688 1.6875v2.347656l-1.078125.609376-1.078125-.609376v-1.09375l-.996093.570313-1.066407-.636719-.015625-1.242187.984375-.566407-.941406-.554687.011719-1.242187 1.078125-.632813 2.011719 1.175781 2.9375-1.6875-2.925782-1.6875-2.023437 1.171875-1.0625-.632812-.015625-1.242188.945312-.554687-1-.566406.015625-1.253907 1.066407-.621093.996093.566406v-1.09375l1.078125-.609375 1.09375.609375v2.347656l2.914063 1.6875v-3.375l-2.023438-1.175781v-1.242188l1.078125-.632812.945313.539062v-1.144531l.902343-.515625.214844.367187.636719 1.105469.132813.230469.1875.335938.960937 1.632812-.878906.515625v3.347656l2.332031-1.335937 1.082031 1.886718-2.320312 1.339844 2.925781 1.6875.851562-.5 1.035157 1.792969.136719.230469.109374.175781.6875 1.203125.148438.269531-.90625.527344zm0 0"/></g><path d="m483.640625 385.96875h-71.949219v72.027344h71.949219zm0 0" fill="#f9a800"/><path d="m192.476562 443.980469-.742187.40625-.730469.472656-.660156.566406-.550781.636719-.515625.6875-18.648438 29.902344-35.1875-1.835938h-.878906l-.847656.109375-.835938.214844-.824218.3125-.769532.402344-.6875.5-.632812.59375-.59375.636719-.484375.714843-.390625.769531-.296875.835938-.21875.824219-.066407.878906v.847656l.09375.878907.214844.824218.324219.824219.390625.753906.515625.71875.59375.632813.632813.554687.714843.511719.769531.390625.835938.296875.820312.21875.878907.078125 39.378906 2.082031h.863281l.824219-.109375.824219-.214843.792968-.296876.742188-.394531.730469-.484375.632812-.554687.550781-.621094.488282-.6875 13.433594-21.507813v33.414063l-27.988282 22.710937-.644531.59375-.582031.660157-.484375.714843-.363281.769532-.296876.796875-.21875.851562-.078124.851563.027343.890625.105469.851562.21875.847657.324219.796874.417969.769532.511718.691406.578125.644531.632813.554688.757812.488281.769532.390625.792968.296875.851563.1875.847656.109375.878906-.027344.863281-.109375.847657-.214844.796875-.351562.742187-.390625.714844-.515625 30.667969-24.839844.660156-.636718.59375-.6875.5-.78125.378906-.824219.28125-.851563.164063-.902344.078125-.90625v-34.792968l32.789062-14.402344-11.332031 19.613281-.320313.648438-.269531.691406-.152343.714844-.09375.714843v.730469l.09375.714844.152343.714844.242188.6875.320312.648437.394531.609375.484376.566407 21.269531 22.828124.550781.542969.609375.445313.644531.375.714844.296875.714844.21875.757812.09375.765625.027343.742188-.054687.742187-.160156.730469-.230469.660156-.351562.632813-.390626.59375-.488281.527344-.550781.457031-.621094.363281-.664062.296875-.6875.214844-.726563.109375-.746093.027344-.769532-.054688-.742187-.160156-.742188-.242188-.726562-.339844-.691407-.402343-.632812-.484375-.59375-18.085938-19.429688 13.269532-23.003906.324218-.660156.269532-.703125.148437-.714844.078125-.71875v-.742187l-.078125-.753906-.175781-.6875-.242188-.691407-11.558594-26.3125-.339843-.714843-.457031-.632813-.527344-.597656-.617188-.523438-.664062-.460937-27.011719-15.59375-.632813-.324219-.703124-.269531-.6875-.148438-.714844-.082031-.742188-.027344-.726562.109375-.6875.148438-.691406.242187-28.726563 12.191407-.660156.351562-.632813.433594-.59375.472656-.5.566406-.457031.605469-.363281.664063-.269532.6875-.21875.753906-.105468.746094v.769531l.054687.742187.1875.753906.242188.714844.335937.664063.433594.632812.484375.59375.554687.5.605469.460938.675781.363281.6875.269531.742188.214844.742188.109375h.753906l.769531-.082031.742187-.160157.699219-.242187 25.839844-10.992187 20.328125 11.734374zm0 0" fill="#020505"/><path d="m278.117188 427.566406-.054688-1.09375-.121094-1.09375-.242187-1.066406-.351563-1.039062-.390625-1.015626-.511719-.984374-.582031-.933594-.671875-.847656-.742187-.824219-.824219-.742188-.847656-.675781-.933594-.582031-.957031-.511719-1.023438-.390625-1.050781-.351563-1.066406-.242187-1.09375-.121094-1.089844-.054687-1.09375.054687-1.09375.121094-1.066406.242187-1.035156.351563-1.011719.390625-.984375.511719-.90625.582031-.875.675781-.796875.742188-.742188.824219-.671875.847656-.582031.933594-.511719.984374-.417968 1.015626-.324219 1.039062-.242188 1.066406-.160156 1.09375-.03125 1.09375.03125 1.078125.160156 1.09375.242188 1.066407.324219 1.039062.417968 1.011719.511719.988281.582031.929688.671875.851562.742188.824219.796875.753906.875.664063.90625.578124.984375.5 1.011719.40625 1.035156.351563 1.066406.226563 1.09375.152343 1.09375.039063 1.089844-.039063 1.09375-.152343 1.066406-.226563 1.050781-.351563 1.023438-.40625.957031-.5.933594-.578124.847656-.664063.824219-.753906.742187-.824219.671875-.851562.582031-.929688.511719-.988281.390625-1.011719.351563-1.039062.242187-1.066407.121094-1.09375zm0 0" fill="#020505"/></g></svg>