<svg height="600pt" viewBox="0 0 685 600" width="685pt" xmlns="http://www.w3.org/2000/svg"><g fill-rule="evenodd"><path d="m197.46208 164.743687-93.339416-161.800625-.578138-.863479-.718431-.648739-.789708-.574146-.936788-.43287-.934526-.285943-1.006934-.0734631-1.004672.0734631-1.006934.285943-.863248.43287-.863249.574146-.649416.648739-.573613.863479-93.339416 161.800625-.434452.933553-.288504.938072-.0701459 1.007016.0701459 1.004755.288504 1.007016.434452.863479.573613.863479.644891.64874.863248.574146.863248.429479 1.008066.289333 1.006934.070073h186.684489l1.006935-.070073.933394-.289333.934525-.429479.793102-.574146.718431-.64874.573613-.863479.434453-.863479.285109-1.007016.07354-1.004755-.07354-1.007016-.285109-.938072zm0 0" fill="#020505" stroke="#020505" stroke-miterlimit="2.613" stroke-width=".127844" transform="scale(3.452621 3.456221)"/><path d="m99.158139 18.114979 82.698722 143.394052h-165.398576zm0 0" fill="#f9a800" stroke="#000303" stroke-miterlimit="2.613" stroke-width=".127844" transform="scale(3.452621 3.456221)"/><g fill="#020505"><path d="m433.941406 407.570312-81.054687 17.929688-15.035157-11.652344h-11.65625l-73.90625-18.429687-1.765624 1.5 60.515624 17.929687-70.160156 12.90625 1.632813 1.511719 95.339843 17.160156-50.117187 51.640625v.753906h1.75l64.523437-42.742187 125.910157 49.886719-99.355469-57.40625 155.976562 26.824218-143.070312-37.976562 123.660156-13.664062-41.214844-10.652344 34.066407-5.519532-63.144531 6.519532 50.992187 7.898437-99.34375 4.011719 53.371094-22.5625h-86.574219v1.632812zm0 0"/><path d="m436.574219 361.949219-44.859375-78.210938-15.28125 8.777344 44.84375 78.210937zm0 0"/><path d="m379.066406 264.691406-7.390625 16.039063-40.839843-18.929688 7.390624-16.039062zm0 0"/><path d="m333.710938 245.003906-44.964844 4.023438 1.617187 17.539062 44.855469-4.011718zm0 0"/><path d="m286.613281 348.042969-12.03125 16.917969-46.472656-32.96875 12.027344-16.917969zm0 0"/><path d="m330.203125 323.472656-20.164063 4.507813 24.679688 111.4375 20.300781-4.523438zm0 0"/><path d="m437.828125 366.335938-.378906-2.253907-.875-2.132812-1.375-1.875-1.890625-1.378907-2.128906-.875-2.253907-.257812-2.253906.257812-2.128906.875-1.886719 1.378907-1.378906 1.875-.875 2.132812-.242188 2.253907.242188 2.257812.875 2.132812 1.378906 1.875 1.886719 1.390626 2.128906.878906 2.253906.363281 2.253907-.363281 2.128906-.878906 1.890625-1.390626 1.375-1.875.875-2.132812zm0 0"/><path d="m343.246094 253.78125-.257813-2.253906-.875-2.132813-1.390625-1.878906-1.875-1.375-2.128906-.878906-2.253906-.378907-2.253906.378907-2.128907.878906-1.875 1.375-1.375 1.878906-.890625 2.132813-.242187 2.253906.242187 2.253906.890625 2.132813 1.375 1.878906 1.875 1.390625 2.128907.875 2.253906.242188 2.253906-.242188 2.128906-.875 1.875-1.390625 1.390625-1.878906.875-2.132813zm0 0"/><path d="m298.386719 257.789062-.378907-2.253906-.875-2.132812-1.375-1.875-1.753906-1.378906-2.128906-.875-2.253906-.257813-2.386719.257813-2.132813.875-1.753906 1.378906-1.375 1.875-.875 2.132812-.378906 2.253906.378906 2.257813.875 2.132813 1.375 1.875 1.753906 1.378906 2.132813.890625 2.386719.242187 2.253906-.242187 2.128906-.890625 1.753906-1.378906 1.375-1.875.875-2.132813zm0 0"/><path d="m392.847656 288.128906-.253906-2.378906-.878906-2.132812-1.496094-1.753907-1.753906-1.378906-2.128906-.875-2.253907-.378906-2.386719.378906-2.132812.875-1.75 1.378906-1.378906 1.753907-.875 2.132812-.378906 2.378906.378906 2.253906.875 2.132813 1.378906 1.753906 1.75 1.5 2.132812.875 2.386719.257813 2.253907-.257813 2.128906-.875 1.753906-1.5 1.496094-1.753906.878906-2.132813zm0 0"/><path d="m384.203125 272.710938-.253906-2.257813-.878907-2.132813-1.375-1.875-1.875-1.378906-2.128906-.875-2.265625-.378906-2.242187.378906-2.128906.875-1.886719 1.378906-1.378907 1.875-.875 2.132813-.242187 2.257813.242187 2.253906.875 2.132812 1.378907 1.875 1.886719 1.390625 2.128906.863281 2.242187.257813 2.265625-.257813 2.128906-.863281 1.875-1.390625 1.375-1.875.878907-2.132812zm0 0"/><path d="m318.925781 312.941406-29.441406 48.886719-17.789063-10.652344 29.441407-48.886719zm0 0"/><path d="m290.996094 356.5625-.378906-2.753906-.996094-2.511719-1.632813-2.132813-2.25-1.621093-2.511719-1.011719-2.628906-.378906-2.628906.378906-2.507812 1.011719-2.132813 1.621093-1.753906 2.132813-.996094 2.511719-.378906 2.753906.378906 2.632812.996094 2.511719 1.753906 2.121094 2.132813 1.632813 2.507812 1.132812 2.628906.242188 2.628906-.242188 2.511719-1.132812 2.25-1.632813 1.632813-2.121094.996094-2.511719zm0 0"/><path d="m320.316406 307.554688-.253906-2.632813-1.136719-2.511719-1.617187-2.117187-2.128906-1.636719-2.511719-1.132812-2.628907-.242188-2.75.242188-2.507812 1.132812-2.132812 1.636719-1.632813 2.117187-.996094 2.511719-.378906 2.632813.378906 2.753906.996094 2.511718 1.632813 2.132813 2.132812 1.621094 2.507812 1.011719 2.75.378906 2.628907-.378906 2.511719-1.011719 2.128906-1.621094 1.617187-2.132813 1.136719-2.511718zm0 0"/><path d="m330.457031 325.726562-.375-2.753906-1-2.511718-1.628906-2.132813-2.132813-1.621094-2.507812-.996093-2.75-.378907-2.632812.378907-2.507813.996093-2.128906 1.621094-1.632813 2.132813-1 2.511718-.375 2.753906.375 2.632813 1 2.511719 1.632813 2.132812 2.128906 1.621094 2.507813 1.132812 2.632812.378907 2.75-.378907 2.507812-1.132812 2.132813-1.621094 1.628906-2.132812 1-2.511719zm0 0"/><path d="m355.261719 437.164062-.378907-2.769531-1.117187-2.496093-1.632813-2.132813-2.132812-1.632813-2.507812-1-2.628907-.378906-2.75.378906-2.511719 1-2.128906 1.632813-1.632812 2.132813-.996094 2.496093-.378906 2.769531.378906 2.632813.996094 2.496094 1.632812 2.132812 2.128906 1.757813 2.511719.996094 2.75.378906 2.628907-.378906 2.507812-.996094 2.132812-1.757813 1.632813-2.132812 1.117187-2.496094zm0 0"/><path d="m244.386719 323.472656-.242188-2.632812-1.132812-2.511719-1.632813-2.117187-2.117187-1.636719-2.507813-1.132813-2.632812-.378906-2.761719.378906-2.496094 1.132813-2.132812 1.636719-1.628907 2.117187-1 2.511719-.378906 2.632812.378906 2.753906 1 2.511719 1.628907 2.132813 2.132812 1.621094 2.496094 1.011718 2.761719.378906 2.632812-.378906 2.507813-1.011718 2.117187-1.621094 1.632813-2.132813 1.132812-2.511719zm0 0"/><path d="m425.796875 264.191406-.378906-3.390625-.996094-3.253906-1.511719-2.886719-2.128906-2.632812-2.632812-2.132813-2.992188-1.5-3.144531-1-3.382813-.378906-3.25.378906-3.265625 1-3.007812 1.5-2.492188 2.132813-2.144531 2.632812-1.621094 2.886719-.996094 3.253906-.257812 3.390625.257812 3.253906.996094 3.265626 1.621094 2.996093 2.144531 2.511719 2.492188 2.132812 3.007812 1.621094 3.265625 1.011719 3.25.257813 3.382813-.257813 3.144531-1.011719 2.992188-1.621094 2.632812-2.132812 2.128906-2.511719 1.511719-2.996093.996094-3.265626zm0 0"/><path d="m383.070312 268.320312-21.171874-1.753906-56.996094 31.957032 20.296875 36.234374 56.996093-31.96875 9.519532-19.050781zm0 0"/></g></g></svg>