<svg height="600pt" viewBox="0 0 685 600" width="685pt" xmlns="http://www.w3.org/2000/svg"><g fill-rule="evenodd" stroke-miterlimit="2.613" transform="scale(3.452621 3.456221)"><path d="m197.46208 164.743687-93.339416-161.805145-.578138-.862349-.718431-.64874-.789708-.574146-.936788-.429479-.934526-.289333-1.006934-.0700731-1.004672.0700731-1.006934.289333-.863248.429479-.863249.574146-.649416.64874-.573613.862349-93.339416 161.805145-.434452.933553-.288504.933552-.0701459 1.008145.0701459 1.008146.288504 1.003625.434452.86348.573613.862348.644891.64874.863248.574146.863248.434 1.008066.289333 1.006934.070073h186.684489l1.006935-.070073.933394-.289333.934525-.434.793102-.574146.718431-.64874.573613-.862348.434453-.86348.285109-1.003625.07354-1.008146-.07354-1.008145-.285109-.933552zm0 0" fill="#020505" stroke="#020505" stroke-width=".127844"/><path d="m99.158139 18.110458 82.698722 143.395183h-165.398576zm0 0" fill="#f9a800" stroke="#000303" stroke-width=".127844"/><g fill="#020505" stroke="#020505" stroke-width=".027966"><path d="m155.763686 138.766979h-113.246168l-8.49219 12.730667h130.230548zm0 0"/><path d="m114.470328 93.751911-1.632591 8.815625-3.449598-.65213 1.637116-8.777198zm0 0"/><path d="m98.93865 69.634396-3.480146.359406.976387 8.925255 3.484671-.397833zm0 0"/><path d="m104.454161 101.080182-2.394015-3.336375-9.180073 6.641104 2.395146 3.335245zm0 0"/><path d="m96.111314 106.302875-4.067336-.504073-1.374635 11.242182 4.06281.507464zm0 0"/><path d="m92.37208 91.868984-6.421752 9.319698-3.374927-2.320317 6.421752-9.319698zm0 0"/><path d="m112.87281 102.243167-.109744-.545891-.253431-.473557-.363175-.397834-.507993-.254296-.543066-.070073-.543065.070073-.47292.254296-.398248.397834-.253431.473557-.074671.545891.074671.54363.253431.507463.398248.363927.47292.253167.543065.10624.543066-.10624.507993-.253167.363175-.363927.253431-.507463zm0 0"/><path d="m114.505401 93.462578-.070146-.54363-.254562-.507464-.401642-.362797-.468394-.254296-.547591-.109631-.543066.109631-.507993.254296-.363175.362797-.253431.507464-.070146.54363.070146.547021.253431.469036.363175.397834.507993.21926.543066.1085.547591-.1085.468394-.21926.401642-.397834.254562-.469036zm0 0"/><path d="m99.919562 78.735964-.074671-.5425-.253431-.508594-.398248-.362797-.47292-.254297-.543066-.10963-.543065.10963-.507993.254297-.363175.362797-.253431.508594-.109744.5425.109744.54702.253431.469037.363175.402354.507993.249776.543065.073464.543066-.073464.47292-.249776.398248-.402354.253431-.469037zm0 0"/><path d="m98.93865 69.814099-.070146-.5425-.253431-.473557-.398248-.397834-.47292-.254297-.547591-.074593-.541934.074593-.47292.254297-.398248.397834-.254562.473557-.070146.5425.070146.5425.254562.473557.398248.397834.47292.254296.541934.073464.547591-.073464.47292-.254296.398248-.397834.253431-.473557zm0 0"/><path d="m96.146387 106.051969-.109745-.655521-.288503-.54363-.47292-.469037-.543066-.292724-.656204-.1085-.613212.1085-.582664.292724-.471788.469037-.289635.54363-.109745.655521.109745.65213.289635.54363.471788.472427.582664.289334.613212.10963.656204-.10963.543066-.289334.47292-.472427.288503-.54363zm0 0"/><path d="m92.736387 90.70826-.074672-.65552-.288503-.578667-.47292-.437391-.578139-.289333-.617737-.10963-.651679.10963-.582664.289333-.436715.437391-.289635.578667-.109745.65552.109745.613704.289635.582057.436715.472427.582664.289333.651679.10963.617737-.10963.578139-.289333.47292-.472427.288503-.582057zm0 0"/><path d="m101.478613 97.888474-.071277-.617094-.328102-.578666-.433322-.472428-.581532-.289333-.617738-.10963-.651678.10963-.578139.289333-.437847.472428-.289635.578666-.108613.617094.108613.65213.289635.582057.437847.434.578139.292724.651678.109631.617738-.109631.581532-.292724.433322-.434.328102-.582057zm0 0"/><path d="m105.325328 99.411995-.108613-.617094-.289635-.578667-.472919-.472427-.541935-.289333-.65281-.10963-.656204.10963-.543066.289333-.468394.472427-.293029.578667-.109745.617094.109745.65213.293029.582057.468394.434.543066.292724.656204.10963.65281-.10963.541935-.292724.472919-.434.289635-.582057zm0 0"/><path d="m94.767226 117.294151-.109744-.65213-.288504-.5425-.47292-.472427-.543065-.289334-.656205-.10963-.613211.10963-.581533.289334-.47292.472427-.289635.5425-.108613.65213.108613.617094.289635.582057.47292.469037.581533.289333.613211.10963.656205-.10963.543065-.289333.47292-.469037.288504-.582057zm0 0"/><path d="m86.313504 100.029089-.07354-.617094-.289636-.578667-.471788-.472427-.582664-.289333-.616606-.10963-.65281.10963-.578139.289333-.437847.472427-.288503.578667-.109745.617094.109745.65213.288503.5425.437847.473557.578139.288203.65281.114151.616606-.114151.582664-.288203.471788-.473557.289636-.5425zm0 0"/><path d="m79.235547 129.337651h-3.58989v-34.461182h3.58989l-6.167189-6.816287-6.133249 6.816287h3.593285v34.461182h-3.593285l6.133249 6.855844zm0 0"/><path d="m125.97427 83.126823-1.234343.035036-1.234343.253167-1.160803.398964-1.815876.76176-1.414233.507464-1.487774.32889-1.523978.1085-1.522847-.1085-1.488905-.32889-1.414234-.507464-1.815876-.76176-1.269416-.434-1.339562-.218131h-1.344087l-1.344088.218131-1.304489.434-1.780803.76176-1.449306.507464-1.488906.32889-1.522846.1085-1.488905-.1085-1.487774-.32889-1.449307-.507464-1.817007-.76176-1.269416-.434-1.342956-.218131h-1.340694l-1.342956.218131-1.269416.434-1.817007.76176-1.449307.547021-1.522846.289333-1.562446.1085-1.559051-.144666-1.523978-.327761-1.452701-.5425-1.344087-.726724 1.418759-2.464984 1.194744.65213 1.309015.472427 1.339562.21474h1.379161l1.344087-.21474 1.307883-.437391 1.812482-.796796 1.414234-.507464 1.487773-.292724 1.523979-.10624 1.487773.10624 1.488905.292724 1.452701.507464 1.777409.796796 1.304489.437391 1.344088.21474h1.344087l1.339562-.21474 1.304489-.437391 1.781935-.796796 1.449306-.507464 1.487774-.292724 1.487774-.10624 1.523978.10624 1.487773.292724 1.414234.507464 1.817007.796796 1.269416.437391 1.342956.21474h1.375767l1.344088-.21474 1.269416-.437391 1.815875-.796796 1.559052-.547021 1.597518-.288203zm0 0"/><path d="m99.266752 77.357109-2.214124 2.722672.871168.691688.871168-.184224.796496-.289334 1.815876-.76176.363175-.148057zm0 0"/><path d="m112.474562 79.825484.108613-.726724v-.76176l-.218357-.722203-.324709-.656651-.506861-.577537-.582664-.43739-.691277-.32437-.722957-.144667h-.764817l-.722956.179703-.691278.327761-.578138.469036-.437847.617094-.328102.65213-.179891.761761h1.523978l1.487774.184224 1.453832.324369 1.413102.545891zm0 0"/><path d="m110.732226 86.173865-1.594124-.688297-1.019379-.327761-1.015986-.183093h-1.049927l-1.051058.183093-.980913.327761-1.815875.796797-.434453.179703-4.246095 10.664646 7.657226 3.047041 3.88292-9.793255 2.175657 3.918432 3.050219-1.707744zm0 0"/><path d="m100.755657 96.29488-2.613504 3.190578-8.74562-7.183604 2.612372-3.190578zm0 0"/></g></g></svg>