<svg height="600pt" viewBox="0 0 685 600" width="685pt" xmlns="http://www.w3.org/2000/svg"><g fill-rule="evenodd" stroke-miterlimit="2.613" transform="scale(3.452621 3.456221)"><path d="m197.46208 164.743687-93.34281-161.805145-.574744-.862349-.718431-.645349-.793102-.577537-.933394-.429479-.934526-.289333-1.006934-.0700731-1.008066.0700731-1.00354.289333-.863248.429479-.863249.577537-.649416.645349-.573613.862349-93.343941 161.805145-.429927.933553-.288504.933552-.0701459 1.008145.0701459 1.008146.288504 1.003625.429927.86348.574744.862348.648285.64874.863248.574146.863248.434 1.008066.289333 1.00354.070073h186.687883l1.00354-.070073.936789-.289333.934525-.434.793102-.574146.718431-.64874.573613-.862348.429927-.86348.289635-1.003625.070146-1.008146-.070146-1.008145-.289635-.933552zm0 0" fill="#020505" stroke="#020505" stroke-width=".127844"/><path d="m99.158139 18.110458 82.698722 143.395183h-165.398576zm0 0" fill="#f9a800" stroke="#000303" stroke-width=".127844"/><g fill="#020505" stroke="#020505" stroke-width=".215738"><path d="m128.583248 98.903401-13.096934-14.542391-2.828467 2.574615 13.062992 14.542391zm0 0"/><path d="m101.044161 79.208391-9.143869 3.374802 1.307883 3.590672 9.180073-3.410969zm0 0"/><path d="m96.001569 104.490021 1.777409 4.136562-11.320657 4.93336-1.777409-4.136563zm0 0"/><path d="m118.423394 117.438818-3.808248 2.394911-13.098066-20.965364 3.808248-2.393782zm0 0"/><path d="m129.056168 100.173755-.109745-.578666-.25343-.507464-.433321-.437391-.507993-.289333-.617737-.074594-.581533.074594-.543066.289333-.398248.437391-.293029.507464-.070146.578666.070146.617094.293029.507463.398248.434001.543066.292723.581533.074594.617737-.074594.507993-.292723.433321-.434001.25343-.507463zm0 0"/><path d="m103.622591 80.986208-.074671-.582057-.288504-.54363-.402774-.43287-.543065-.254297-.581533-.10963-.613212.10963-.507993.254297-.437846.43287-.253431.54363-.109744.582057.109744.582058.253431.5425.437846.434.507993.253166.613212.10963.581533-.10963.543065-.253166.402774-.434.288504-.5425zm0 0"/><path d="m94.477591 84.396047-.108613-.617094-.254562-.507463-.433321-.434-.54646-.254297-.582664-.1085-.578139.1085-.54646.254297-.433321.434-.254562.507463-.108613.617094.108613.578667.254562.54589.433321.398964.54646.289333.578139.073464.582664-.073464.54646-.289333.433321-.398964.254562-.54589zm0 0"/><path d="m115.993175 85.665271-.108613-.617094-.254562-.507463-.433321-.434-.543066-.253167-.581533-.10963-.582664.10963-.543066.253167-.398248.434-.293029.507463-.070146.617094.070146.578667.293029.54702.398248.397834.543066.289333.582664.074594.581533-.074594.543066-.289333.433321-.397834.254562-.54702zm0 0"/><path d="m113.165839 83.05675-.074671-.582057-.288504-.543631-.402773-.402354-.543066-.289333-.578139-.1085-.581533.1085-.543065.289333-.437847.402354-.253431.543631-.109744.582057.109744.577536.253431.5425.437847.438521.543065.253167.581533.10624.578139-.10624.543066-.253167.402773-.438521.288504-.5425zm0 0"/><path d="m99.158139 106.556042-.109745-.687167-.324708-.617094-.511387-.508593-.613211-.32324-.691278-.10963-.687883.10963-.651679.32324-.47292.508593-.328102.617094-.109744.687167.109744.691687.328102.65213.47292.472427.651679.32437.687883.10963.691278-.10963.613211-.32437.511387-.472427.324708-.65213zm0 0"/><path d="m102.34865 94.622172-.105219-.687167-.29303-.617094-.507992-.507463-.613212-.32437-.729744-.10963-.687884.10963-.616605.32437-.507993.507463-.289635.617094-.108613.687167.108613.691687.289635.652131.507993.473557.616605.323239.687884.109631.729744-.109631.613212-.323239.507992-.473557.29303-.652131zm0 0"/><path d="m105.653431 97.673734-.108613-.691687-.289636-.617094-.507992-.507463-.616606-.32437-.72635-.10963-.687884.10963-.621131.32437-.507993.507463-.288503.617094-.109745.691687.109745.687167.288503.65213.507993.472427.621131.32437.687884.10963.72635-.10963.616606-.32437.507992-.472427.289636-.65213zm0 0"/><path d="m118.786569 118.634578-.144817-.687167-.288504-.618223-.507993-.507464-.616605-.32437-.692409-.10963-.721825.10963-.617737.32437-.507993.507464-.293029.618223-.105219.687167.105219.691688.293029.65213.507993.472427.617737.32437.721825.10963.692409-.10963.616605-.32437.507993-.472427.288504-.65213zm0 0"/><path d="m87.802409 111.489401-.109745-.687167-.328102-.65213-.47292-.472427-.651678-.328891-.687884-.105109-.691277.105109-.616606.328891-.507993.472427-.324708.65213-.108613.687167.108613.691688.324708.613703.507993.511984.616606.32324.691277.10963.687884-.10963.651678-.32324.47292-.511984.328102-.613703zm0 0"/><path d="m121.255255 79.063724-.07354-.831833-.289635-.765151-.433321-.688297-.582664-.617094-.72635-.43287-.761424-.254297-.831569-.10963-.836095.10963-.762555.254297-.72635.43287-.578139.617094-.436715.688297-.289635.765151-.074672.831833.074672.836354.289635.796797.436715.687167.578139.582057.72635.434.762555.292724.836095.070073.831569-.070073.761424-.292724.72635-.434.582664-.582057.433321-.687167.289635-.796797zm0 0"/><path d="m132.829343 91.614688.074672.433999v.472428l-.183285.941463-.179891.397833-.254562.402355-.288503.359406-.398248.258818-.437847.214739-.433321.1085-.94584.071203-.906241-.071203-.944708-.144667-3.992664-4.495968 4.390913 1.121166 1.124598.184224 1.12573.035037 1.124599-.10963zm0 0"/><path d="m98.794964 89.653776-3.191643 3.449396-.980912-.292724-.979781-.32437-1.852081-.801318-1.847554-.831833-1.887154-.726724-.979781-.288203-.980912-.254297-1.015985-.144667-.979781-.10963-1.015986-.038427-1.015985.073464-1.014854.144666-.980913.219261-1.960693.582057-.906241.397833-.906241.469037-1.85208.87139-.941314.397834-.944708.292724-.980912.254297-1.014854.144666-.507993.035037-.507993-.070073-.47292-.184224-.433321-.253167-.797627-.617094-.363176-.363927-.25343-.432869-.218358-.473558-.17989-.467906-.039599-.511984.039599-.507464 1.014854.21813 1.015985.109631h.543066l.507992-.070073 1.015986-.219261.979781-.32776.980912-.363927 1.922226-.796797 1.925621-.831833.941314-.437391.979781-.32776 1.015985-.249777 1.015986-.21926 2.070438-.144667h2.100985l1.015985.109631 1.054453.179703 1.015985.21926.976387.32324.979781.363927.94584.43287 1.887153.836354 1.956168.76176.980912.327761 1.054453.179703zm0 0"/><path d="m163.271569 144.388635 5.515511 9.538959h-139.257883l24.600876-42.652933 28.629745 7.145178 15.527153 25.968796zm0 0"/><path d="m102.278504 95.204229-3.23011 11.93387-4.316241-1.159594 3.226716-11.93387zm0 0"/><path d="m114.688686 88.821943.687883-4.570563-2.793394-2.613041-4.499525 1.054484-9.613395 10.410349 6.601643 6.089562zm0 0"/><path d="m111.676934 81.204339-9.542116-2.105579-.836095 3.73873 9.578321 2.101057zm0 0"/></g></g></svg>