<svg height="600pt" viewBox="0 0 685 600" width="685pt" xmlns="http://www.w3.org/2000/svg"><g fill-rule="evenodd"><path d="m197.46208 164.743687-93.339416-161.800625-.578138-.863479-.718431-.648739-.789708-.574146-.936788-.43287-.934526-.285943-1.006934-.0734631-1.004672.0734631-1.006934.285943-.863248.43287-.863249.574146-.649416.648739-.573613.863479-93.339416 161.800625-.434452.933553-.288504.938072-.0701459 1.007016.0701459 1.004755.288504 1.007016.434452.863479.573613.863479.644891.64874.863248.574146.863248.429479 1.008066.289333 1.006934.070073h186.684489l1.006935-.070073.933394-.289333.934525-.429479.793102-.574146.718431-.64874.573613-.863479.434453-.863479.285109-1.007016.07354-1.004755-.07354-1.007016-.285109-.938072zm0 0" fill="#020505" stroke="#020505" stroke-miterlimit="2.613" stroke-width=".127844" transform="scale(3.452621 3.456221)"/><path d="m99.158139 18.114979 82.698722 143.394052h-165.398576zm0 0" fill="#f9a800" stroke="#000303" stroke-miterlimit="2.613" stroke-width=".127844" transform="scale(3.452621 3.456221)"/><g fill="#020505"><path d="m284.253906 527.644531-169.582031.246094 72.503906-134.214844h96.835938zm0 0"/><path d="m295.675781 376.515625c-5.207031 11.695313-19.609375 16.660156-31.773437 10.9375-12.421875-5.710937-17.882813-19.628906-12.421875-31.550781 5.460937-11.691406 19.621093-16.660156 31.773437-10.9375 12.421875 5.710937 17.882813 19.632812 12.421875 31.550781"/><path d="m418.324219 434.4375c-5.460938 11.675781-19.609375 16.644531-32.03125 11.175781-12.148438-5.710937-17.613281-19.886719-12.40625-31.5625 5.460937-11.679687 19.867187-16.648437 32.03125-11.179687 12.164062 5.710937 17.871093 19.886718 12.40625 31.566406"/><path d="m448.375 444.628906-224.207031-103.402344s14.90625-37.035156 21.109375-39.019531 40.972656 9.695313 40.972656 9.695313 30.535156-24.113282 34.253906-25.597656c3.980469-1.5 80.691406 32.308593 85.171875 38.519531 4.464844 6.207031 10.167969 47.222656 10.167969 47.222656s39.976562 26.34375 45.4375 33.050781c5.21875 6.96875-12.90625 39.53125-12.90625 39.53125"/></g><path d="m348.058594 340.484375-41.957032-19.386719s21.363282-22.617187 24.828126-23.113281c3.238281-.257813 30.792968 12.917969 30.792968 12.917969zm0 0" fill="#f9a800"/><path d="m354.277344 343.222656 51.398437 24.101563s-3.738281-36.535157-6.71875-38.777344c-2.964843-1.984375-31.03125-15.160156-31.03125-15.160156zm0 0" fill="#f9a800"/><path d="m401.453125 488.371094c-9.941406-1.242188-18.382813-6.222656-27.808594-8.707032-8.699219-2.726562-17.640625-2.726562-26.328125-1.742187-10.425781.757813-18.609375 5.726563-28.792968 8.707031-8.6875 2.484375-17.882813 1.984375-26.570313.5-.996094 6.210938 3.722656 11.921875 9.441406 12.421875 12.164063.5 23.332031-3.226562 34.753907-7.953125 4.964843-1.742187 9.929687-2.984375 15.390624-3.226562 12.90625-1.242188 24.585938 3.226562 36.253907 7.953125 7.199219 2.726562 14.644531 3.984375 22.089843 3.984375 7.699219 0 15.160157-1.257813 22.347657-3.984375 11.664062-4.726563 23.34375-9.195313 36.253906-7.953125 5.460937.242187 10.421875 1.484375 15.386719 3.226562 11.4375 4.726563 22.605468 8.453125 34.769531 7.953125 5.703125-.5 10.425781-6.210937 9.441406-12.421875-8.699219 1.484375-17.882812 1.984375-26.570312-.5-9.941407-2.980468-18.382813-7.949218-28.808594-8.707031-8.683594-.984375-17.371094-.984375-26.3125 1.742187-9.441406 2.484376-17.882813 7.464844-27.808594 8.707032-2.980469.488281-5.71875.488281-8.699219.488281 0 0-5.460937 0-8.429687-.488281" fill="#020505"/><path d="m401.453125 511.730469c-9.941406-1.242188-18.382813-6.210938-27.808594-8.695313-8.699219-2.484375-17.640625-2.484375-26.328125-1.742187-10.425781 1-18.609375 5.96875-28.792968 8.949219-8.6875 2.484374-17.882813 1.984374-26.570313.246093-.996094 6.464844 3.722656 12.175781 9.441406 12.675781 12.164063.242188 23.332031-3.484374 34.753907-7.953124 4.964843-1.742188 9.929687-2.984376 15.390624-3.480469 12.90625-1.242188 24.585938 3.480469 36.253907 7.949219 7.199219 2.984374 14.644531 4.226562 22.089843 4.226562 7.699219 0 15.160157-1.242188 22.347657-4.226562 11.664062-4.46875 23.34375-9.191407 36.253906-7.949219 5.460937.496093 10.421875 1.738281 15.386719 3.480469 11.4375 4.46875 22.605468 8.195312 34.769531 7.953124 5.703125-.5 10.425781-6.210937 9.441406-12.675781-8.699219 1.738281-17.882812 2.238281-26.570312-.246093-9.941407-2.980469-18.382813-7.949219-28.808594-8.949219-8.683594-.742188-17.371094-.742188-26.3125 1.742187-9.441406 2.484375-17.882813 7.453125-27.808594 8.695313-2.980469.496093-5.71875.742187-8.699219.742187 0 0-5.460937-.246094-8.429687-.742187" fill="#020505"/></g></svg>