<svg height="600pt" viewBox="0 0 685 600" width="685pt" xmlns="http://www.w3.org/2000/svg"><g fill-rule="evenodd"><path d="m197.46208 164.743687-93.339416-161.800625-.578138-.863479-.718431-.648739-.789708-.574146-.936788-.43287-.934526-.285943-1.006934-.0734631-1.004672.0734631-1.006934.285943-.863248.43287-.863249.574146-.649416.648739-.573613.863479-93.339416 161.800625-.434452.933553-.288504.938072-.0701459 1.007016.0701459 1.004755.288504 1.007016.434452.863479.573613.863479.644891.64874.863248.574146.863248.429479 1.008066.289333 1.006934.070073h186.684489l1.006935-.070073.933394-.289333.934525-.429479.793102-.574146.718431-.64874.573613-.863479.434453-.863479.285109-1.007016.07354-1.004755-.07354-1.007016-.285109-.938072zm0 0" fill="#020505" stroke="#020505" stroke-miterlimit="2.613" stroke-width=".127844" transform="scale(3.452621 3.456221)"/><path d="m99.158139 18.114979 82.698722 143.394052h-165.398576zm0 0" fill="#f9a800" stroke="#000303" stroke-miterlimit="2.613" stroke-width=".127844" transform="scale(3.452621 3.456221)"/><path d="m418.582031 488.859375c-9.441406-.988281-17.371093-5.710937-26.3125-8.195313-8.445312-2.242187-16.644531-2.242187-24.828125-1.5-9.941406.757813-17.886718 5.46875-27.324218 8.207032-8.1875 2.484375-16.875 1.988281-25.316407.5-.742187 5.96875 3.722657 11.4375 9.183594 11.679687 11.425781.5 22.09375-2.984375 32.773437-7.453125 4.71875-1.496094 9.441407-2.738281 14.648438-3.238281 12.164062-.988281 23.089844 3.238281 34.269531 7.707031 6.703125 2.484375 13.902344 3.984375 21.105469 3.742188 6.945312 0 14.148438-1.257813 21.105469-3.742188 10.925781-4.46875 22.09375-8.695312 34.257812-7.707031 4.964844.5 9.683594 1.742187 14.648438 3.238281 10.425781 4.46875 21.105469 7.953125 32.527343 7.453125 5.707032-.242187 9.925782-5.710937 9.1875-11.679687-8.203124 1.488281-16.886718 1.984375-25.328124-.5-9.441407-2.738282-17.386719-7.449219-27.054688-8.207032-8.457031-.742187-16.644531-.742187-24.84375 1.5-9.183594 2.484376-17.128906 7.207032-26.554688 8.195313-2.738281.5-5.464843.753906-7.945312.753906 0 0-5.460938-.253906-8.199219-.753906" fill="#020505"/><path d="m418.582031 511.242188c-9.441406-1.253907-17.371093-5.980469-26.3125-8.207032-8.445312-2.484375-16.644531-2.484375-24.828125-1.742187-9.941406 1-17.886718 5.710937-27.324218 8.449219-8.1875 2.242187-16.875 1.988281-25.316407.246093-.742187 5.964844 3.722657 11.433594 9.183594 11.933594 11.425781.5 22.09375-3.226563 32.773437-7.453125 4.71875-1.742188 9.441407-2.738281 14.648438-3.226562 12.164062-1.253907 23.089844 3.226562 34.269531 7.453124 6.703125 2.726563 13.902344 3.96875 21.105469 3.96875 6.945312 0 14.148438-1.242187 21.105469-3.96875 10.925781-4.226562 22.09375-8.707031 34.257812-7.453124 4.964844.488281 9.683594 1.484374 14.648438 3.226562 10.425781 4.226562 21.105469 7.953125 32.527343 7.453125 5.707032-.5 9.925782-5.96875 9.1875-11.933594-8.203124 1.742188-16.886718 1.996094-25.328124-.246093-9.441407-2.738282-17.386719-7.449219-27.054688-8.449219-8.457031-.742188-16.644531-.742188-24.84375 1.742187-9.183594 2.226563-17.128906 6.953125-26.554688 8.207032-2.738281.488281-5.464843.742187-7.945312.488281 0 0-5.460938 0-8.199219-.488281" fill="#020505"/><path d="m288.472656 453.066406h-127.367187l59.597656-124.019531h67.769531zm0 0" fill="#020505"/><path d="m286.992188 463.015625h19.609374v-143.902344h-19.609374zm0 0" fill="#020505"/></g><path d="m90.744015 115.700557c13.952262 0 25.242372 11.363115 25.242372 25.242073m-24.809051-19.418109c10.210766 0 18.409927 8.199661 18.409927 18.411094m-18.409927-12.945407c7.117555 0 12.941934 5.753891 12.941934 12.945407" fill="none" stroke="#020505" stroke-miterlimit="2.613" stroke-width="2.99636" transform="scale(3.452621 3.456221)"/></svg>