<svg height="600pt" viewBox="0 0 685 600" width="685pt" xmlns="http://www.w3.org/2000/svg"><g fill-rule="evenodd"><path d="m197.46208 164.743687-93.339416-161.800625-.578138-.863479-.718431-.648739-.789708-.574146-.936788-.43287-.934526-.285943-1.006934-.0734631-1.004672.0734631-1.006934.285943-.863248.43287-.863249.574146-.649416.648739-.573613.863479-93.339416 161.800625-.434452.933553-.288504.938072-.0701459 1.007016.0701459 1.004755.288504 1.007016.434452.863479.573613.863479.644891.64874.863248.574146.863248.429479 1.008066.289333 1.006934.070073h186.684489l1.006935-.070073.933394-.289333.934525-.429479.793102-.574146.718431-.64874.573613-.863479.434453-.863479.285109-1.007016.07354-1.004755-.07354-1.007016-.285109-.938072zm0 0" fill="#020505" stroke="#020505" stroke-miterlimit="2.613" stroke-width=".127844" transform="scale(3.452621 3.456221)"/><path d="m99.158139 18.114979 82.698722 143.394052h-165.398576zm0 0" fill="#f9a800" stroke="#000303" stroke-miterlimit="2.613" stroke-width=".127844" transform="scale(3.452621 3.456221)"/><path d="m492.070312 492.097656c0 19.886719-16.128906 36.035156-36.25 36.035156-19.855468 0-35.996093-16.148437-35.996093-36.035156 0-19.886718 16.140625-36.046875 35.996093-36.046875 20.121094 0 36.25 16.160157 36.25 36.046875" fill="#020505"/><path d="m471.464844 492.097656c0 8.695313-6.945313 15.660156-15.644532 15.660156-8.6875 0-15.632812-6.964843-15.632812-15.660156 0-8.707031 6.945312-15.660156 15.632812-15.660156 8.699219 0 15.644532 6.953125 15.644532 15.660156" fill="#f9a800"/><path d="m245.277344 492.097656c0 19.886719-16.144532 36.035156-35.996094 36.035156-19.867188 0-36.011719-16.148437-36.011719-36.035156 0-19.886718 16.144531-36.046875 36.011719-36.046875 19.851562 0 35.996094 16.160157 35.996094 36.046875" fill="#020505"/><path d="m224.910156 492.097656c0 8.695313-6.945312 15.660156-15.628906 15.660156-8.699219 0-15.644531-6.964843-15.644531-15.660156 0-8.707031 6.945312-15.660156 15.644531-15.660156 8.683594 0 15.628906 6.953125 15.628906 15.660156" fill="#f9a800"/><path d="m192.136719 443.875s27.570312-73.070312 84.671875-133.972656c57.101562-60.886719 116.699218-98.164063 116.699218-98.164063v271.910157h15.148438l.242188 19.128906-152.941407-.242188v-18.886718h118.671875v-39.773438zm0 0" fill="#020505"/></g></svg>