<svg height="600pt" viewBox="0 0 685 600" width="685pt" xmlns="http://www.w3.org/2000/svg"><g fill-rule="evenodd" stroke-miterlimit="2.613" transform="scale(3.452621 3.456221)"><path d="m197.46208 164.743687-93.34281-161.800625-.574744-.863479-.718431-.648739-.793102-.574146-.933394-.43287-.934526-.285943-1.006934-.0734631-1.008066.0734631-1.00354.285943-.863248.43287-.863249.574146-.649416.648739-.573613.863479-93.343941 161.800625-.429927.933553-.288504.938072-.0701459 1.007016.0701459 1.004755.288504 1.007016.429927.863479.574744.863479.648285.64874.863248.574146.863248.429479 1.008066.289333 1.00354.070073h186.687883l1.00354-.070073.936789-.289333.934525-.429479.793102-.574146.718431-.64874.573613-.863479.429927-.863479.289635-1.007016.070146-1.004755-.070146-1.007016-.289635-.938072zm0 0" fill="#020505" stroke="#020505" stroke-width=".127844"/><path d="m99.158139 18.114979 82.698722 143.394052h-165.398576zm0 0" fill="#f9a800" stroke="#000303" stroke-width=".127844"/><g fill="#020505" stroke="#020505" stroke-width=".027966"><path d="m88.505 147.474104.036204-.32437-.036204-.32776-.143686-.289333-.219489-.218131-.581533-.289333-.65281-.184224-1.269416-.105109h-1.269416l-2.578431.179703-2.573905.362797-5.08219.797927-2.578431.397833-2.538832.289334-2.577299.21813-2.575036.074593-1.307884-.074593-1.269416-.21813-.617737-.141277-.616606-.257687-.543065-.288203-.547592-.363927-.468394-.434-.437847-.507464-.323576-.547021-.184416-.612573-.108613-.65326.035073-.655521.148211-.617094.214964-.613703.293029-.582057.363175-.5425.398248-.508594.433321-.472427.980913-.831833 1.015985-.800188-.797627.1085-.761424.254297-1.527372.582058-2.972153 1.30426-2.976679 1.270354-3.011752 1.159594-1.562445.507463-1.559051.437391-1.597519.32437-1.597518.254297-1.632591.074593-1.597518-.074593-.836095-.10963-.762555-.179704-1.522847-.582057-3.808248 6.636583h36.288102l1.273942-.070073 1.230949-.10963 2.468686-.397833 2.433613-.54363 4.789161-1.304261 2.433613-.656651 1.194744-.253166 1.269416-.10624.617738-.038427.616605.074594.582665.214739zm0 0"/><path d="m63.24792 139.024667-.219489-.547021-.143686-.253167-.21949-.214739-.543065-.328891-.581533-.144667-.581533-.073463-.617737.038427-1.195876.179703-1.163066.328891-1.12573.432869-2.249197.871391-2.176788.941464-2.179051.909817-2.21073.761761-2.180183.65213-1.124598.254297-1.086132.179703-1.124598.10963-1.090657.074594-1.089526-.039557-1.051058-.10511-.979781-.21926-1.015985-.397834.906241-1.52352.871167.214739.906241.144667.871168.073463h.909635l1.812482-.10963 1.817007-.288203 1.742336-.434 1.73781-.511984 1.707263-.577537 1.707263-.691687 3.300255-1.413891 1.707263-.687167 1.707263-.617093.871168-.254297.871168-.144667h.90624l.433322.10963.437846.179703.363176.253167.323576.328891.219489.397833.183285.398964.035073.472427-.074672.434zm0 0"/><path d="m89.560584 145.77088.143686-.547021.070146-.504073-.070146-.54589-.253431-.469037-.402773-.363927-.471789-.253166-.504598-.149188-.54646-.105109-1.051058-.10963-1.089526-.038428-2.140584.113021-2.140584.21474-2.145109.289333-4.281168.617094-4.246095.582057-2.140584.179703-1.089526.074594-1.086131-.036167-2.140584-.183093-1.054452-.179703-1.015986-.327761-.507993-.254297-.436715-.289333-.364306-.43287-.213833-.473557-.039598-.5425.074671-.547021.17876-.507463.257956-.469037-.764818.687167-.578138.796797-.437847.801317-.144818.397834-.035073.398963-.039598.362797.074671.359406.109745.328891.17989.32776.253431.289334.293029.289333.761424.472427.398248.179703.434452.144667 1.01938.183094 1.086131.070073 1.124599.039557 2.323868-.10963 2.360073-.218131 2.319343-.254296 2.360073-.398964 4.792555-.76176 2.430219-.327761 2.503759-.214739 1.27281-.074594 1.340694.074594.691277.070073.761424.144666.398248.148057.47292.21474.472919.328891.214964.21813zm0 0"/><path d="m167.040219 152.916057-35.163504-60.973609-.219489.363927-.143686.397833-.219489.871391-.506861 1.668187-.184416.871391-.108613.86687-.035073.874781v.906427l.143686 1.738261.254562 1.742781.218357 1.741651.144818 1.73826v1.741651l-.144818 1.742782-.144817.87139-.183285.870261-.578138 1.633151-.726351 1.62863-.761423 1.563078-1.707263 3.082078-.832701 1.523521-.764817 1.596984-.359781.796797-.253431.832964-.402774 1.706614-.25343 1.738261-.071278 1.741651v1.777818l-.07354.43739-.183284.398964-.214964.362797-.289635.324369-2.503759 2.503412-.656204.65326-.253431.362797-.179891.398964-.074671.397833.039598.437391.105219.434.148212.43739.359781.796797.148212.398964.105219.432869v.437391l-.035073.469037-.288504.796796-.363175.836355-.254562.835224-.253431.831833-.219489.363927-.288504.362797-.289635.289333-.363175.254297-.836095.362797-.834963.254297-.871168.183094-3.484672.398963-6.969343.65213-3.480146.362797-3.484671.469037-6.933139 1.164114-13.862883 2.210688-13.864015 2.032114zm0 0"/><path d="m109.770547 115.735594-1.702737-.796797h-2.57843l-1.706132.796797v11.211666h5.987299zm0 0"/><path d="m109.263686 111.419328-.109744-.65213-.214964-.578667-.398248-.510854-.507993-.398963-.616606-.249777-.657335-.074593-.616606.074593-.613212.249777-.511387.398963-.399379.510854-.218358.578667-.109745.65213.109745.617094.218358.617094.399379.508593.511387.397834.613212.254297.616606.073463.657335-.073463.616606-.254297.507993-.397834.398248-.508593.214964-.617094zm0 0"/><path d="m104.439453 143.302505-.109745-.578666-.328102-.472428-.47292-.324369-.578139-.109631-.581532.109631-.47292.324369-.324708.472428-.143686.578666.143686.582057.324708.472428.47292.324369.581532.109631.578139-.109631.47292-.324369.328102-.472428zm0 0"/><path d="m112.13062 143.302505-.144817-.578666-.323577-.472428-.472919-.324369-.582665-.109631-.581533.109631-.472919.324369-.323577.472428-.109744.578666.109744.582057.323577.472428.472919.324369.581533.109631.582665-.109631.472919-.324369.323577-.472428zm0 0"/><path d="m109.770547 126.94726-.105219-.582057-.328102-.473557-.472919-.32324-.581533-.10963-.578139.10963-.47292.32324-.328102.473557-.144817.582057.144817.577537.328102.507463.47292.328891.578139.10963.581533-.10963.472919-.328891.328102-.507463zm0 0"/><path d="m106.758796 126.94726-.108614-.582057-.324708-.473557-.472919-.32324-.581533-.10963-.578139.10963-.472919.32324-.328103.473557-.108613.582057.108613.577537.328103.507463.472919.328891.578139.10963.581533-.10963.472919-.328891.324708-.507463zm0 0"/><path d="m106.758796 116.208021-.070146-.472427-.29303-.43287-.398248-.254297-.507992-.10963-.471789.10963-.434452.254297-.253431.43287-.109744.472427.109744.508594.253431.397833.434452.289333.471789.074594.507992-.074594.398248-.289333.29303-.397833zm0 0"/><path d="m109.337226 116.208021-.108613-.472427-.254562-.43287-.433321-.254297-.47292-.10963-.507992.10963-.398249.254297-.293029.43287-.109744.472427.109744.508594.293029.397833.398249.289333.507992.074594.47292-.074594.433321-.289333.254562-.397833zm0 0"/><path d="m97.540255 106.993432-.105219-.504073-.257956-.397833-.433321-.292724-.47292-.10963-.507992.10963-.398248.292724-.288504.397833-.074672.504073.074672.472427.288504.438521.398248.253167.507992.106239.47292-.106239.433321-.253167.257956-.438521zm0 0"/><path d="m118.555766 106.993432-.07354-.504073-.289635-.397833-.398248-.292724-.507993-.10963-.471788.10963-.437847.292724-.254562.397833-.108613.504073.108613.472427.254562.438521.437847.253167.471788.106239.507993-.106239.398248-.253167.289635-.438521zm0 0"/><path d="m106.758796 127.162-2.975548-.434-2.320474 16.359766 2.976679.432869zm0 0"/><path d="m109.770547 126.728-2.972153.434 2.320475 16.358635 2.976678-.432869zm0 0"/><path d="m106.39562 115.302724-1.812481 1.811724-9.21854-9.210068 1.812481-1.812854zm0 0"/><path d="m118.192591 107.90438-1.815876-1.812854-9.215146 9.211198 1.812482 1.811724zm0 0"/></g></g></svg>