<svg height="600pt" viewBox="0 0 685 600" width="685pt" xmlns="http://www.w3.org/2000/svg"><g fill-rule="evenodd" stroke-miterlimit="2.613" transform="scale(3.452621 3.456221)"><path d="m197.46208 164.743687-93.34281-161.800625-.574744-.863479-.718431-.648739-.793102-.574146-.933394-.43287-.934526-.285943-1.006934-.0734631-1.008066.0734631-1.00354.285943-.863248.43287-.863249.574146-.649416.648739-.573613.863479-93.343941 161.800625-.429927.933553-.288504.938072-.0701459 1.007016.0701459 1.004755.288504 1.007016.429927.863479.574744.863479.648285.64874.863248.574146.863248.429479 1.008066.289333 1.00354.070073h186.687883l1.00354-.070073.936789-.289333.934525-.429479.793102-.574146.718431-.64874.573613-.863479.429927-.863479.289635-1.007016.070146-1.004755-.070146-1.007016-.289635-.938072zm0 0" fill="#020505" stroke="#020505" stroke-width=".127844"/><path d="m99.158139 18.114979 82.698722 143.394052h-165.398576zm0 0" fill="#f9a800" stroke="#000303" stroke-width=".127844"/><g fill="#020505" stroke="#020505" stroke-width=".027966"><path d="m64.805839 142.661677-1.522846.578667-1.559051.397833-.801022.10963-.796497.070073h-.796496l-.801022-.070073-1.597518-.254297-1.523978-.472427-1.522847-.5425-1.488905-.578666-2.940475-1.234188-2.938211-1.343818-1.414234-.76176-1.382555-.796797-1.339562-.87139-1.309014-.941464 1.089525-1.886318 1.19927.944854 1.270548.831834 2.75719 1.379984 2.758321 1.304261 1.378029.617093 1.449307.5425 2.906532.945985 2.902008.866869 2.976679.726724 1.523978.289334zm0 0"/><path d="m164.755949 151.071557-.036204-.507463-.073541-.507464-.17989-.508594-.328102-.432869-.398248-.328891-.47292-.249776-.507993-.113021-.507993-.035036-.506861.073463-.507993.10963-1.015985.289334-.980912.32776-.979781.359406-1.960694.761761-.977518.254297-1.01938.21813-1.049927.10963h-1.051058l-1.01938-.10963-1.015985-.21813-1.015985-.254297-1.014854-.289333-1.922227-.725594-.980912-.359406-1.01938-.293855-1.014854-.179703-1.051058-.073463-1.015986-.035037h-1.051058l-1.019379.144667-1.014855.253167-1.996897.582057-1.960694.75837-.976387.292724-1.015985.254297-1.01938.143536-1.051058.074594h-1.049927l-1.020511-.148058-1.014854-.214739-1.015985-.289333-1.922227-.726724-1.995766-.617094-1.015985-.219261-1.01938-.179703-1.051058-.1085h-1.049927l-1.01938.1085-1.051058.144667-1.015986.254297-.979781.289333-1.961825.726724-.979781.327761-1.015985.289333-1.015985.179703-1.014854.073463h-1.051059l-1.054452-.108499-1.015986-.219261-.980912-.289333-1.956168-.691688-1.961825-.687166-1.014854-.253167-1.054452-.179703-1.015986-.10963h-1.051058l-1.015986.070072-1.054452.183094-1.014854.219261-.980913.289333-1.960693.65213-.980912.397834-1.015986.289333-.976387.254297-1.054452.144666h-2.065913l-1.055584-.106239-1.014854-.21813-1.960693-.687167-1.961825-.726724-.976387-.289333-1.014854-.183094-1.055584-.10963-1.014854-.035037h-1.051058l-1.054453.070073-1.015985.148057-1.015985.21474-1.014855.292724-.945839.398964-1.960693.726724-1.015986.289333-1.014854.179703-2.070438.073463-1.051058-.038427-1.015986-.179703-1.015985-.254297-.979781-.324369-1.960693-.761761-.980913-.32776-1.015985-.254297-1.014854-.183094-1.015986-.070073h-2.105511l-1.015985.143537-1.014854.21926-1.015985.289333-.980913.327761-1.92562.75837-1.014854.292724-1.015986.179703-1.051058.073463h-1.054453l-1.015985-.1085-1.014854-.179703.035073.5425.07354.507464.179891.473557.328102.43287.433321.289333.47292.183094 1.054452.106239h1.015986l1.051058-.106239 1.014854-.183094.980912-.32437 1.960694-.76176.941314-.327761 1.019379-.254296 1.015986-.179704 1.051058-.10963 1.015986-.035036 1.054452.070073 1.014854.184224 1.015986.254297 1.960693.687166 1.922226.726724 1.015986.253167 1.014854.106239 2.105511.038428 2.070438-.073464 1.015985-.10624 1.015985-.253166 1.960694-.691688.941314-.363927.980912-.323239 1.014854-.254297 1.015985-.148058 1.054453-.106239h1.051058l1.01938.144666 1.015985.21474.979781.254297.976387.402354 1.961825.687167.979781.289333 1.015986.183094 2.070437.106239h2.105511l1.014854-.070072 1.051059-.144667.980912-.254297.979781-.362797 1.922227-.76176 1.015985-.289334.979781-.21926 1.055584-.144667 1.014854-.035036 1.051058.070073 1.015986.144666 1.014854.219261 1.020511.289333 1.921095.761761.980912.288203 1.015985.254297 1.014854.183093 1.015986.071203 2.105511.038428 1.015985-.038428 1.054453-.179703.976387-.254297.984306-.324369 1.957299-.726724.979781-.327761 1.015986-.214739 1.015985-.148058 1.054453-.035036 1.051058.035036 1.014854.148058 1.015986.214739.980912.327761 1.92562.76176 1.014854.289333.980913.254297 1.051058.144667 1.014854.035036 2.105511.038428h1.055584l1.014854-.038428 1.015986-.141276 1.015985-.292724 1.921095-.726723.980912-.359407 1.015986-.292724 1.019379-.179703 1.014854-.144667 1.051059-.038427 1.015985.073464 1.015985.144667 1.014854.289333 1.960694.691687.980912.362797.980913.254297 1.014854.179703 1.055584.1085 2.065912.109631h1.054453l1.051058-.038428 1.015985-.141276 1.014854-.21813 1.926752-.76176.976387-.363927.979781-.327761 1.01938-.214739 1.015985-.074594 1.051059.10963zm0 0"/><path d="m163.122226 146.465958-.25343-.577536-.218358-.437391-.179891-.289333-.109744-.254297-.183285-.32437-.144817-.253166-.218358-.254297-.359781-.148058-.398248-.10963-.47292-.035036-.47292.074594-.506861.108499-1.015985.289334-.980913.32889-.979781.358277-1.922226.76176-1.015985.254297-1.01938.21926-1.051058.1085h-1.014854l-1.054453-.1085-1.015985-.21926-1.015986-.254297-.979781-.288203-1.961825-.726724-.976386-.359406-1.015986-.292724-1.014854-.179703-1.019379-.074594-1.051059-.035037h-1.054452l-1.015986.144667-1.015985.253167-1.995767.582057-1.960693.75837-.976387.292724-1.019379.254297-1.015986.144666-1.051058.1085-1.015986-.035036-1.054452-.148058-1.014854-.214739-.980913-.292724-1.960693-.723333-1.992372-.617094-1.015986-.21813-1.019379-.179703-1.051059-.109631h-1.014854l-1.055584.109631-1.014854.144666-1.015985.253167-1.015985.289333-2.940475 1.089521-.977518.254297-1.054453.179703-1.014854.074594h-1.051058l-1.054453-.10963-1.015985-.219261-.980912-.289333-1.960694-.690558-1.957299-.688296-1.014854-.253167-1.020511-.179703-1.049927-.10963h-1.051059l-1.019379.070073-1.015985.184224-1.051059.21813-.979781.289333-1.960693.687167-.980913.363927-.976387.288203-1.019379.254297-1.051059.184224-2.070437-.039558-1.015986-.105109-1.014854-.21926-1.996898-.687167-1.921095-.726724-1.015985-.289333-1.01938-.183094-1.051058-.10963-1.015985-.035037h-1.054453l-1.051058.070073-1.014854.148057-1.015986.21474-.979781.293854-.980912.397834-1.960694.723333-.980912.292724-1.051058.179703-2.070438.073464-1.049927-.038428-1.015986-.179703-1.015985-.254297-.979781-.32776-1.925621-.75837-1.015985-.32776-.980912-.254297-1.049927-.183094-1.015986-.070073-2.105511.035037-1.015985.10963-1.014854.21813-1.015986.289333-.980912.327761-1.92562.75837-1.015986.292724-1.014854.179703-1.054452.074594h-1.015986l-1.051058-.109631-1.015986-.179703.035073.5425.074672.508594.218358.472427.289635.43287.433321.289333.507992.179703 1.01938.10963h1.051058l1.015986-.10963 1.014854-.179703 1.015985-.32437 1.925621-.76176.980912-.32776.979781-.254297 1.015986-.179703 1.051058-.1085h1.054452l1.015986.035036 1.014854.183094 1.015985.254297 1.960694.687166 1.922226.726724 1.015985.249776 1.014854.10963 2.105511.039558 2.070438-.074594 1.015986-.10963 1.014854-.254297 1.961825-.65213.979781-.397834.976386-.324369.980913-.254297 1.054452-.148058 1.015986-.105109h1.051058l1.014854.143537 1.01938.215869 1.015985.253167.941314.398964 1.960693.690557.980913.32889 1.015985.140146 2.105511.10963h2.065913l1.054452-.070072 1.015986-.144667.980912-.254297.979781-.362797 1.922226-.76176 1.015986-.289334 1.014854-.21813 1.015985-.144666 1.054453-.035037 1.015985.070073 1.015985.144667 1.014854.21813 1.015986.289333 1.92562.761761.980913.32776 1.014854.254297 1.015985.144667 1.051059.070072 2.070437.039558 1.014855-.039558 1.055583-.179703.979781-.254297 1.015986-.324369 1.922226-.725594.979781-.328891 1.015986-.214739 1.015985-.148058 1.054453-.035036 1.049927.035036 1.015985.148058 1.015985.254297.979781.324369 1.961825.726724.979781.288203 1.015986.254297 1.015985.144667 1.014854.035036 2.105511.038428h1.054453l1.015985-.038428 1.015985-.144666 1.015986-.254297 1.921095-.76176.980912-.362797 1.015985-.249776 1.014854-.219261 1.01938-.144666h1.051058l1.015986.035036 1.014854.144667 1.015985.289333 1.960694.691687.980912.362797.980912.254297 1.014854.179703 1.051059.109631 2.070438.1085h1.051058l1.054453-.038428 1.015985-.144666 1.014854-.21474 1.925621-.76176.976386-.362797.980913-.289333 1.015985-.254297 1.054453-.038427 1.015985.073463zm0 0"/><path d="m45.935438 142.552047-.797628.179703-.79989.21926-1.488905.5425-2.21073-1.488484-1.124599-.76176-.547591-.359407-.507993-.402354 1.12573-1.95639.761423.582057.801022.469036 1.55792 1.054485 1.59865.9765zm0 0"/><path d="m129.552847 108.025312.25343.108501.288504.074593.293029-.038427.214964-.071203.184416-.144667.108613-.21813.144817-.507463.183285-.508594.144818-.472427.324708-.906427.436715-1.921354.219489-1.992558.035073-1.960911-.109744-1.956391-.29303-1.957521-.398248-1.960911-.578139-1.886318-.65281-1.84789-.836095-1.812855-.909635-1.741651-1.051058-1.668187-1.19927-1.598115-1.269416-1.519-1.379161-1.41389-1.448175-1.308782-1.563577-1.19576-1.632591-1.124557-1.707263-.9765-1.812481-.871391-1.812482-.726724-1.890548-.577536-1.921094-.437391-1.961825-.254297-1.995767-.10963-1.957299.074594-1.960693.253166-.979781.219261-.94584.289333-.941314.32437-.909635.362797-1.703868.981021-.398249.288203-.328102.363927-.363175.941463-21.776934 27.815558-.39938.10963-.323576.289333-.219489.362797-.035073.437391.144817.398963.289635.32437 4.60927 3.335245-13.644525 8.633661 3.046824-8.304771.073541-.508593-.073541-.545891-.214963-.469036-.363175-.363927-.437847-.253167-4.281168-1.558557-.507993-.109631-.507992.074594-.471789.21474-.399379.362797-.253431.472427-4.792555 13.274296 7.406059 2.683115 1.014854-2.792745 15.641423-9.902885 6.64011 4.824859.402773.183094h.433322l.398248-.148057.289635-.32437zm-1.812482-8.559067.070146-.5425-.035073-.54363-.219489-1.054485-.323577-1.051094-.437846-1.014927-.543066-.941463-.581533-.941464-.617737-.909817-.651679-.832964-1.453832-1.632021-1.597518-1.523521-1.742336-1.30539-.941314-.582058-.979781-.467906-36.766679 23.246125 5.738394 4.167078zm-11.215438-14.289224-1.054453-1.558557-1.160802-1.448928-1.307884-1.343817-.687883-.613703-.72635-.582058-.761424-.507463-.797627-.472427-.836095-.398964-.906241-.323239-.870037-.219261-.945839-.144667h-.941314l-.910766.109631-28.995183 27.851724 4.066205 2.972448zm-13.682993-7.796177-.578138-.434-.692409-.289334-.691278-.144666-.761423-.073464-1.449306.035037-.726351.074593-.72635.143537-19.344453 24.699573zm26.636241 29.194411-35.671496 6.01949 34.440547-11.784682.254562.254296.214964.327761.328102.687166.218358.726724.144817.75837.108613 1.523521.036205.76176zm0 0"/><path d="m68.981788 102.403656-.108613-.831833-.328102-.801318-.543066-.687166-.65281-.507464-.801022-.32437-.831569-.10963-.836095.10963-.796496.32437-.656205.507464-.543065.687166-.328103.801318-.10635.831833.10635.836354.328103.796797.543065.65213.656205.507464.796496.328891.836095.144666.831569-.144666.801022-.328891.65281-.507464.543066-.65213.328102-.796797zm0 0"/><path d="m60.196569 133.520552-.070146-.617094-.288503-.5425-.437847-.43739-.543066-.289334-.617737-.070073-.616606.070073-.543065.289334-.437847.43739-.293029.5425-.070146.617094.070146.618224.293029.5425.437847.434.543065.292724.616606.070073.617737-.070073.543066-.292724.437847-.434.288503-.5425zm0 0"/><path d="m62.450292 122.60274-.07354-.612573-.289635-.543631-.436716-.43739-.543065-.289333-.617737-.073464-.616606.073464-.543066.289333-.437847.43739-.288503.543631-.109745.612573.109745.617093.288503.543631.437847.43739.543066.289334.616606.108499.617737-.108499.543065-.289334.436716-.43739.289635-.543631zm0 0"/><path d="m58.747263 121.263443-.108613-.617094-.254562-.54363-.433322-.437391-.581532-.289333-.582665-.070073-.616605.070073-.543066.289333-.437847.437391-.289635.54363-.108613.617094.108613.617093.289635.5425.437847.437391.543066.289333.616605.109631.582665-.109631.581532-.289333.433322-.437391.254562-.5425zm0 0"/><path d="m65.169015 123.836927-.108614-.577536-.289635-.547021-.433321-.469037-.54646-.253166-.617737-.109631-.616606.109631-.543065.253166-.437847.469037-.288504.547021-.071277.577536.071277.618224.288504.5425.437847.437391.543065.289333.616606.105109.617737-.105109.54646-.289333.433321-.437391.289635-.5425zm0 0"/><path d="m72.536606 126.665839-.109745-.617094-.288503-.54363-.433322-.43287-.547591-.254297-.616606-.10963-.617737.10963-.543066.254297-.433321.43287-.293029.54363-.070146.617094.070146.617093.293029.5425.433321.437391.543066.289333.617737.10963.616606-.10963.547591-.289333.433322-.437391.288503-.5425zm0 0"/><path d="m82.263139 110.45413-.070146-.507463-.218358-.469037-.39938-.397833-.471788-.219261-.507993-.073463-.507992.073463-.47292.219261-.363175.397833-.253431.469037-.070146.507463.070146.508594.253431.472427.363175.362797.47292.254297.507992.070073.507993-.070073.471788-.254297.39938-.362797.218358-.472427zm0 0"/><path d="m64.955182 124.743354-3.52427-1.776687-4.932846 9.648588 3.48354 1.811724zm0 0"/><path d="m72.321642 127.572266-3.523138-1.777818-4.933978 9.648588 3.484671 1.812855zm0 0"/><path d="m63.934672 122.025203-6.421752-2.574614-1.487774 3.664135 6.425146 2.574615zm0 0"/><path d="m80.813832 108.787073-19.273175-2.539578-.47292 3.301338 19.308248 2.573485zm0 0"/><path d="m71.302263 124.852984-10.086314-4.061968-1.487774 3.664135 10.089708 4.061969zm0 0"/><path d="m67.564161 136.349464-.070146-.617094-.289635-.54363-.436716-.43287-.543065-.293854-.617738-.1085-.616606.1085-.543065.293854-.437847.43287-.288504.54363-.074671.617094.074671.617093.288504.5425.437847.434.543065.292724.616606.070073.617738-.070073.543065-.292724.436716-.434.289635-.5425zm0 0"/><path d="m86.439088 140.301802-3.339854-1.667057-3.41-1.450058-3.519745-1.234187-3.593285-1.014927-3.629489-.796797-9.363357-1.707745-9.401825-1.41389-6.386679 1.016057 1.159672.76176 1.19927.725594 2.503759 1.305391 2.538832 1.159593 2.578431 1.090652 2.613503 1.014927 2.648577.87139 2.687044.796797 2.723248.617094 2.753795.469036 2.796789.397834 2.75719.293854 2.796788.214739 2.793394.073464 2.793394-.035037 1.417628-.148057 1.37916-.179703.686752-.144667.652811-.254297.617737-.32776zm0 0"/></g></g></svg>