<svg height="525" width="600" xmlns="http://www.w3.org/2000/svg"><path d="m597.6 499.6-283.8-491.6c-2.9-5-8.2-8-13.9-8s-11 3.1-13.9 8l-283.8 491.6c-2.9 5-2.9 11.1 0 16 2.9 5 8.2 8 13.9 8h567.6c5.7 0 11-3.1 13.9-8 2.9-5 2.9-11.1 0-16z"/><path d="m43.875 491.5 256.005-443.3 256 443.3z" fill="#f9a800" transform="matrix(1 0 0 .99591458 .125 2.033244)"/><g transform="translate(-773.33701 5.322309)"><path d="m1113.4479 383.51698c-2.0255-1.54792-7.4215-12.94626-11.991-25.32964-7.9096-21.4343-9.1206-23.2719-25.226-38.2759-9.3045-8.66836-17.6353-16.05012-18.5129-16.40387-.8775-.35378-2.8228 6.96522-4.323 16.26442s-4.4312 18.80222-6.5137 21.1178c-4.594 5.10869-50.7583 19.18237-56.7174 17.29098-5.4307-1.72359-7.9096-9.37312-4.4056-13.59499 1.4851-1.78952 12.6086-6.31128 24.7188-10.04838l22.0188-6.7947 4.0863-21.69562c3.6842-19.56006 5.48-23.88677 18.2459-43.95589 7.7881-12.24313 14.1598-22.73277 14.1598-23.31031 0-.57751-5.9629-1.05004-13.2511-1.05004h-13.2509l-13.8291 14.78339c-10.2894 10.9995-15.1099 14.60131-18.8333 14.07202-9.9986-1.42136-7.4311-9.7479 8.4575-27.43056l14.9009-16.58337 21.8432-1.24969 21.8432-1.24965c17.595 10.00636 34.9102 20.47814 43.2229 34.54428 4.3434 7.43004 8.2406 13.87189 8.6605 14.31525.4197.44336 6.9029-2.92357 14.407-7.48205 14.2643-8.6651 19.4525-9.34842 23.3986-3.08175 1.705 2.7077 1.5622 4.7152-.5128 7.21548-4.0491 4.87905-37.0328 23.93169-41.4299 23.93169-2.1327 0-7.4591-6.53399-12.8478-15.76066-5.0625-8.66837-9.5651-15.76067-10.0057-15.76067s-6.1036 8.35169-12.5842 18.55933l-11.7829 18.55933 16.0198 14.79958c15.2565 14.09431 16.451 15.94743 25.0669 38.885 10.2312 27.23857 10.8532 31.90538 4.6918 35.20286-5.4288 2.90539-5.2804 2.91278-9.7246-.48367z" stroke-width="2.25152"/><path d="m1018.9793 407.69714s2.5644 11.50943 9.202 12.84457c13.7351 2.76279 31.4581-12.63949 50.9101-12.22154 18.2783.39274 31.0828 12.786 48.1733 13.08376 19.1617.33383 30.0464-13.19263 54.8758-12.77224 16.3349.27657 34.3384 15.58182 49.4726 11.0022 8.4303-2.55105 7.4978-11.781 7.4978-11.781s-9.7044 1.41654-19.4789.15576c-15.0342-1.93917-23.1756-10.15843-38.434-10.12433-24.2045.0541-32.8957 11.61055-50.582 11.68192-19.6986.0795-31.1666-12.05912-51.0011-11.91555-15.233.11024-28.0538 8.02905-42.4134 10.66948-5.9027 1.08538-18.2222-.62303-18.2222-.62303z" stroke="#000" stroke-width="1.15184"/><path d="m1111.1095 231.56643c-10.8018.97276-19.1761-11.42004-15.3779-21.30159 2.502-8.64795 12.8942-12.35505 20.823-9.07917 6.9277 2.2592 11.0342 9.73723 9.7486 16.81629-.9072 7.48064-7.43 13.92469-15.1939 13.56522z" stroke-width=".783886"/><g stroke="#000"><path d="m929.62999 376.55337-35.03853 60.76303h111.32494v-61.20656h-76.28641z"/><path d="m1147.379 361.29032h76.0529l11.4471 19.60126h-87.3432z"/></g></g><path d="m244.92113 436.06244s2.5644 11.50943 9.202 12.84457c13.7351 2.76279 31.4581-12.63949 50.9101-12.22154 18.2783.39274 31.0828 12.786 48.1733 13.08376 19.1617.33383 30.0464-13.19263 54.8758-12.77224 16.3349.27657 34.3384 15.58182 49.4726 11.0022 8.4303-2.55105 7.4978-11.781 7.4978-11.781s-9.7044 1.41654-19.4789.15576c-15.0342-1.93917-23.1756-10.15843-38.434-10.12433-24.2045.0541-32.8957 11.61055-50.582 11.68192-19.6986.0795-31.1666-12.05912-51.0011-11.91555-15.233.11024-28.0538 8.02905-42.4134 10.66948-5.9027 1.08538-18.2222-.62303-18.2222-.62303z" stroke="#000" stroke-width="1.15184"/></svg>