<svg height="523.59998" width="599.75" xmlns="http://www.w3.org/2000/svg"><path d="m597.575 499.6-283.8-491.6c-2.9-5-8.2-8-13.9-8s-11 3.1-13.9 8l-283.8 491.6c-2.9 5-2.9 11.1 0 16 2.9 5 8.2 8 13.9 8h567.6c5.7 0 11-3.1 13.9-8 2.9-5 2.9-11.1 0-16z"/><path d="m299.87945 48.200786-80.24352 141.009314c14.0412-10.82177 17.42992-18.99616 27.49429-19.50566 14.77754-.01 22.80079 21.77577 34.79025 20.45718 16.51562-6.49298 23.13727-32.18847 41.01758-32.68824 15.78445-1.40482 50.80396 39.01965 59.40791 46.17867 9.88996 8.22906 12.46547 9.70936 13.01006 9.87847zm-33.27539 162.417454s-20.51944 7.81024-28.2539 15.2145c-6.26381 5.99639-13.38076 13.67104-13.34766 22.36088.0292 7.64913 4.99269 15.43131 4.99269 15.43131l11.16406 11.28635 5.85937 7.19148-1.95312 4.57534-32.16066 63.5728-62.50195 28.18968-18.88281 62.10725-84.787111 50.9523h300.601561l-17.00781-18.55824 20.02734-24.26907 34.29883 18.95439-6.375 23.87292h177.60156l-1.19922-2.07684-64.41406-61.2973-17.58008 35.30243-37.76172-14.38102-3.90625-34.64937 29.29883-19.61333-37.76367-9.15263-49.48242-64.72145-1.95313-26.1498s-65.49157-25.39756-91.89843-35.71819c-6.20959-2.42689-10.47684-3.91064-10.97266-4.15957-2.60432-1.3075-19.43601-8.33076-20.60742-17.22859-1.43861-10.92745 18.96484-27.03623 18.96484-27.03623zm-1.41992 62.39161c16.15263 6.91529 28.12497 12.47219 30.35202 30.99629.91219 24.15449-14.06391 42.07292-21.37546 55.9115-7.56081 16.59202-10.81836 36.05747-10.81836 36.05747-10.37918-24.87784-10.1446-34.05324 3.91211-56.85925 8.8116-14.17883 16.51227-23.13905 14.73242-39.75617-1.14269-10.66852-16.80273-26.34984-16.80273-26.34984zm54.32422 31.51743s22.5584 8.19668 31.75195 24.5554c13.23197 23.54457 23.60192 59.99696 24.41602 61.77974 3.79814 8.31747 19.85742 39.2247 19.85742 39.2247s-25.41942-19.29114-35.1582-36.60854c-9.59221-17.05677-14.01183-39.50964-22.33008-57.22794-5.42916-11.56437-18.53711-31.72336-18.53711-31.72336zm-11.2793 60.93646 27.85352 22.42168-7.59571 21.49406-28.08398 13.17492-12.20117-31.89594zm-110.94922 27.35982 27.34571 15.03604-9.76563 55.56882-32.55469-13.72796-10.41796-24.18867zm65.75977 45.11007 20.18359 7.84455 1.65039 19.30151-17.92773 8.15637-19.8418-21.07242c4.85918-4.26226 11.51876-9.49435 15.93555-14.23001z" fill="#f9a800" transform="matrix(1 0 0 .99591458 -.0025 2.033244)"/></svg>