<svg height="525" width="600" xmlns="http://www.w3.org/2000/svg"><path d="m597.6 499.6-283.8-491.6c-2.9-5-8.2-8-13.9-8s-11 3.1-13.9 8l-283.8 491.6c-2.9 5-2.9 11.1 0 16 2.9 5 8.2 8 13.9 8h567.6c5.7 0 11-3.1 13.9-8 2.9-5 2.9-11.1 0-16z"/><path d="m43.875 491.5 256.005-443.3 256 443.3z" fill="#f9a800" transform="matrix(1 0 0 .99591458 .125 2.033244)"/><path d="m300.6079 158.23088-36.60369 17.88574 34.6751 59.72047 39.90608-10.45539 14.86075-35.22992zm72.111 61.76791-7.71437 49.41703-25.31615 8.80413-5.50836 53.94126-39.6287 27.52217-15.40896 53.94784-33.03051 25.31614-164.392321 20.82335-7.009742 10.00129 442.217943-.00014zm-101.83253 29.87345-40.46089 4.95358-1.65117 13.48696 18.71792 20.63997 24.49055-1.92201 7.70779-25.32274zm23.38755 47.33649-11.00357 7.70777 3.57318 25.32273 14.31256.5482 15.1382-19.26614-3.85063-13.20956zm-63.84844 20.64651-24.49053 7.9786 14.58335 38.80311 13.20957 7.1596 37.98409-11.55839-3.03157-24.77453zm-6.60479 72.10444-25.87093 2.47678-6.05657 23.94235 9.91378 10.73277 23.11671-8.25599 3.85063-14.03515zm-67.15082 18.16315-12.38397 9.63638-.27729 14.86075 7.70778 2.74758 4.67619.27729 11.83576-7.43039-.27728-12.10657 3.85717-2.4768z" stroke-width="27.5029" transform="translate(4.183741)"/></svg>