<?xml version="1.0" encoding="UTF-8" standalone="no"?>
<!-- Created with Inkscape (http://www.inkscape.org/) -->

<svg
   width="69.38723mm"
   height="38.294411mm"
   viewBox="0 0 69.38723 38.294411"
   version="1.1"
   id="svg1"
   xmlns="http://www.w3.org/2000/svg"
   xmlns:svg="http://www.w3.org/2000/svg">
  <defs
     id="defs1" />
  <g
     id="layer1"
     transform="translate(-56.4468,-121.94062)">
    <g
       id="g24"
       transform="matrix(0.36434426,0,0,0.36434426,65.050914,130.02137)">
      <g
         id="g6">
        <path
           d="m 14.1,8.295 c 0.027,-0.224 0.043,-0.455 0.043,-0.691 0,-0.129 10e-4,-0.279 -0.015,-0.449 1.993,-0.028 3.741,-1.464 3.741,-3.115 0,-0.84 -0.548,-1.474 -0.857,-1.853 0.069,-0.015 0.139,-0.031 0.21,-0.048 0.292,0.254 1.12,1.156 1.12,2.295 0,1.981 -1.98,3.82 -4.242,3.861 M 12.092,1.396 C 12.055,1.175 11.971,0.975 11.843,0.803 c 0.007,-0.202 0.09,-0.395 0.415,-0.236 -0.176,0.18 -0.04,0.499 -0.04,0.499 0,0 0.36,-0.167 0.285,-0.405 0.534,0.128 0.15,0.845 -0.411,0.735 M 11.629,2.413 C 11.558,2.117 11.406,1.813 11.213,1.584 11.037,1.376 10.746,1.129 10.354,1.129 10.175,1.129 9.875,1.213 9.684,1.294 9.613,1.164 9.474,0.851 9.474,0.71 c 0,-0.145 0.245,-0.292 0.714,-0.292 1.032,0 1.648,0.466 1.648,1.248 0,0.275 -0.109,0.525 -0.207,0.747 m 2.65,13.3 c 0.12,0 0.178,0.019 0.248,0.045 0.297,0.808 1.442,2.333 1.49,2.398 l 0.01,0.014 0.017,-0.004 c 0.281,-0.045 0.998,-0.153 1.598,-0.153 h 0.014 c 0.065,0 0.139,0 0.186,0.046 0.039,0.039 0.058,0.107 0.058,0.204 0,0.149 -0.063,0.404 -0.139,0.513 -0.21,-0.229 -0.551,-0.332 -1.097,-0.332 -0.164,0 -0.358,0.049 -0.463,0.077 l -0.043,0.009 -0.049,0.013 0.315,0.315 c 0.486,0.486 0.906,0.905 0.906,1.184 0,0.168 -0.164,0.387 -0.314,0.484 -0.033,-0.511 -0.549,-1.195 -1.052,-1.578 l -0.043,-0.032 -0.008,0.18 c -0.007,0.122 -0.018,0.305 -0.018,0.501 0,0.973 -0.099,1.121 -0.436,1.121 -0.052,0 -0.131,-0.015 -0.18,-0.033 0.19,-0.235 0.265,-0.545 0.265,-1.089 l -0.003,-0.251 -0.003,-0.202 c 0,-0.223 0.023,-0.388 0.041,-0.521 l 0.01,-0.075 -0.053,-0.007 c -0.158,-0.022 -0.451,-0.062 -0.675,-0.062 -0.481,0 -0.807,0.044 -1.043,0.266 -0.156,-0.126 -0.316,-0.343 -0.316,-0.48 0,-0.203 0.126,-0.219 0.292,-0.219 0.084,0 0.162,0.012 0.27,0.025 0.207,0.031 0.518,0.077 1.159,0.077 h 0.04 L 15.25,18.108 c -0.162,-0.465 -0.608,-1.141 -1.323,-2.01 0.064,-0.233 0.127,-0.385 0.352,-0.385 m -6.174,2.395 -0.013,0.039 h 0.04 c 0.64,0 0.952,-0.046 1.159,-0.077 0.108,-0.013 0.186,-0.025 0.27,-0.025 0.165,0 0.292,0.016 0.292,0.219 0,0.137 -0.16,0.354 -0.315,0.48 -0.237,-0.222 -0.563,-0.266 -1.043,-0.266 -0.225,0 -0.519,0.04 -0.676,0.062 l -0.025,0.003 -0.028,0.004 0.009,0.075 c 0.019,0.133 0.042,0.298 0.042,0.521 l -0.003,0.202 -0.003,0.251 c 0,0.544 0.075,0.854 0.266,1.089 -0.05,0.018 -0.129,0.033 -0.181,0.033 -0.338,0 -0.436,-0.148 -0.436,-1.121 0,-0.196 -0.01,-0.379 -0.017,-0.501 L 7.433,18.915 7.391,18.948 C 6.889,19.331 6.371,20.015 6.34,20.526 6.189,20.429 6.025,20.21 6.025,20.042 c 0,-0.279 0.42,-0.698 0.906,-1.184 L 7.21,18.579 7.246,18.543 7.154,18.521 C 7.049,18.493 6.855,18.444 6.69,18.444 c -0.545,0 -0.885,0.103 -1.096,0.332 -0.076,-0.109 -0.139,-0.364 -0.139,-0.513 0,-0.097 0.019,-0.165 0.058,-0.204 0.047,-0.046 0.121,-0.046 0.186,-0.046 h 0.014 c 0.6,0 1.318,0.108 1.598,0.153 l 0.017,0.004 0.01,-0.014 c 0.049,-0.065 1.193,-1.59 1.491,-2.398 0.068,-0.026 0.127,-0.045 0.247,-0.045 0.225,0 0.288,0.152 0.353,0.385 -0.716,0.869 -1.162,1.545 -1.324,2.01 M 5.013,4.434 c 0,-1.139 0.829,-2.041 1.121,-2.295 0.07,0.017 0.14,0.033 0.21,0.048 C 6.034,2.566 5.486,3.2 5.486,4.04 c 0,1.668 1.782,3.116 3.8,3.116 -0.013,0.143 -0.02,0.293 -0.02,0.448 0,0.246 0.014,0.475 0.038,0.691 C 7.022,8.281 5.013,6.429 5.013,4.434 m 15.306,3.513 c 1.024,1.619 1.825,1.592 3.035,1.592 C 22.353,8.772 21.691,7.789 21.375,7.287 L 19.505,4.295 C 19.323,3.371 18.845,2.507 18.129,1.864 18.37,1.773 18.57,1.677 18.69,1.586 c -1.221,0 -2.431,-0.62 -3.097,-0.62 -0.428,0 -0.703,0.256 -0.703,0.594 0.027,0.377 0.415,0.76 1.132,0.76 0.162,0 0.37,-0.021 0.598,-0.059 0.388,0.541 0.701,1.03 0.701,1.728 0,1.31 -1.566,2.331 -3.147,2.331 -0.09,0 -0.175,-0.004 -0.264,-0.01 -0.143,-0.325 -0.62,-0.87 -0.62,-1.49 0,-1.041 0.679,-1.891 0.679,-2.922 0,-0.641 -0.312,-1.038 -0.432,-1.203 0.194,-0.18 0.406,-0.401 0.456,-0.553 C 13.88,0.191 13.746,0.197 13.551,0.197 12.793,0.197 12.175,0 11.573,0 c -0.344,0 -0.436,0.106 -0.436,0.207 0,0.037 0.005,0.075 0.015,0.093 C 11.024,0.25 10.904,0.217 10.761,0.191 10.583,0.157 10.392,0.14 10.188,0.14 c -0.732,0 -0.992,0.307 -0.992,0.57 0,0.222 0.175,0.628 0.374,0.938 0.285,-0.144 0.628,-0.241 0.784,-0.241 0.389,0 0.734,0.37 0.917,0.808 -0.261,0.032 -0.311,0.043 -0.575,0.043 -0.713,0 -1.198,-0.255 -1.298,-0.255 -0.009,0 -0.028,0.005 -0.028,0.021 0,0.1 0.202,0.364 0.6,0.509 0.525,0.192 1.311,0.272 1.442,0.294 0,0.023 -0.133,0.271 -0.282,0.319 -0.031,0.01 -0.056,0.011 -0.093,0.003 C 10.489,3.041 10.336,2.995 9.641,2.731 9.62,2.723 9.607,2.736 9.607,2.758 c 0,0.275 0.712,0.882 1.35,1.115 C 10.424,4.553 9.759,5.249 9.445,6.31 9.356,6.316 9.27,6.32 9.181,6.32 7.6,6.32 6.034,5.299 6.034,3.989 6.034,3.291 6.347,2.802 6.735,2.261 6.963,2.299 7.17,2.32 7.333,2.32 8.05,2.32 8.438,1.937 8.466,1.56 8.466,1.222 8.191,0.966 7.762,0.966 7.096,0.966 5.887,1.586 4.664,1.586 4.785,1.677 4.985,1.773 5.225,1.864 4.51,2.507 4.032,3.371 3.85,4.295 L 1.98,7.287 C 1.665,7.789 1.001,8.772 0,9.539 c 1.21,0 2.012,0.027 3.036,-1.592 L 3.995,6.413 c 0.071,0.199 0.158,0.393 0.261,0.583 l -1.907,3.051 c -0.317,0.506 -0.975,1.48 -1.98,2.252 1.21,0 2.012,0.028 3.036,-1.59 L 5.046,8.081 C 5.169,8.212 5.298,8.34 5.434,8.462 L 3.118,12.17 c -0.318,0.507 -0.972,1.479 -1.979,2.25 1.21,0 2.012,0.029 3.035,-1.59 L 6.432,9.215 C 6.581,9.309 6.733,9.4 6.891,9.486 l -2.757,4.411 c -0.318,0.507 -0.972,1.476 -1.979,2.25 1.21,0 2.012,0.028 3.036,-1.59 l 2.838,-4.543 c 0.168,0.064 0.338,0.126 0.511,0.181 l -3.207,5.133 c -0.313,0.5 -0.982,1.487 -1.978,2.25 1.209,0 2.012,0.028 3.035,-1.59 l 3.418,-5.47 c 0.035,0.006 0.069,0.011 0.103,0.018 0.093,0.296 0.158,0.572 0.158,0.847 0,1.719 -1.128,3.237 -2.482,4.409 0.087,0.038 0.238,0.051 0.377,0.051 0.28,0 0.46,-0.015 0.587,-0.037 -0.314,0.713 -0.988,1.634 -1.328,2.11 -0.443,-0.08 -1.088,-0.142 -1.51,-0.142 -0.442,0 -0.492,0.258 -0.492,0.489 0,0.401 0.188,0.72 0.406,0.898 0.082,-0.205 0.247,-0.479 1.063,-0.479 0.016,0 0.044,0.002 0.082,0.005 -0.238,0.265 -0.985,0.869 -0.985,1.355 0,0.322 0.353,0.805 0.818,0.805 -0.027,-0.104 -0.024,-0.199 -0.024,-0.271 0,-0.394 0.349,-0.855 0.644,-1.177 -0.009,0.096 -0.004,0.086 -0.004,0.198 0,0.931 0.084,1.359 0.675,1.359 0.29,0 0.49,-0.159 0.559,-0.207 -0.384,-0.353 -0.404,-0.631 -0.404,-1.153 10e-4,-0.136 0.002,-0.269 0.004,-0.452 10e-4,-0.12 -10e-4,-0.278 -0.02,-0.392 0.211,-0.029 0.297,-0.029 0.46,-0.029 0,0 0.839,-0.067 1.042,0.37 0.228,-0.209 0.559,-0.504 0.559,-0.829 0,-0.215 -0.102,-0.458 -0.535,-0.458 -0.164,0 -0.679,0.1 -1.11,0.1 0.116,-0.257 0.631,-1.011 1.078,-1.558 0.068,0.212 0.173,0.441 0.407,0.629 0.033,-0.352 0.239,-1.465 0.789,-2.116 0.064,0.44 0.15,0.891 0.15,1.842 0,2.314 -0.556,4.023 -1.737,4.349 0.154,0.267 0.479,0.508 0.816,0.508 0.432,0 0.667,-0.489 0.907,-0.95 0.125,0.34 0.47,1.174 0.816,1.174 0.346,0 0.692,-0.834 0.817,-1.174 0.239,0.461 0.475,0.95 0.907,0.95 0.337,0 0.662,-0.241 0.816,-0.508 -1.181,-0.326 -1.738,-2.035 -1.738,-4.349 0,-0.951 0.086,-1.402 0.15,-1.842 0.551,0.651 0.758,1.764 0.789,2.116 0.235,-0.188 0.341,-0.417 0.408,-0.629 0.446,0.547 0.962,1.301 1.078,1.558 -0.431,0 -0.947,-0.1 -1.11,-0.1 -0.432,0 -0.534,0.243 -0.534,0.458 0,0.325 0.331,0.62 0.559,0.829 0.201,-0.437 1.042,-0.37 1.042,-0.37 0.162,0 0.248,0 0.46,0.029 -0.02,0.114 -0.021,0.272 -0.02,0.392 0.002,0.183 0.002,0.316 0.003,0.452 0,0.522 -0.02,0.8 -0.404,1.153 0.069,0.048 0.269,0.207 0.559,0.207 0.591,0 0.676,-0.428 0.676,-1.359 0,-0.112 0.003,-0.102 -0.005,-0.198 0.295,0.322 0.644,0.783 0.644,1.177 0,0.072 0.004,0.167 -0.025,0.271 0.466,0 0.82,-0.483 0.82,-0.805 0,-0.486 -0.747,-1.09 -0.987,-1.355 0.039,-0.003 0.067,-0.005 0.082,-0.005 0.817,0 0.982,0.274 1.064,0.479 0.218,-0.178 0.406,-0.497 0.406,-0.898 0,-0.231 -0.05,-0.489 -0.492,-0.489 -0.422,0 -1.066,0.062 -1.51,0.142 -0.341,-0.476 -1.013,-1.397 -1.328,-2.11 0.127,0.022 0.308,0.037 0.587,0.037 0.14,0 0.29,-0.013 0.377,-0.051 -1.354,-1.172 -2.482,-2.69 -2.482,-4.409 0,-0.275 0.065,-0.551 0.158,-0.847 0.033,-0.007 0.069,-0.012 0.103,-0.018 l 3.418,5.47 c 1.023,1.618 1.826,1.59 3.035,1.59 -0.996,-0.763 -1.665,-1.75 -1.978,-2.25 l -3.208,-5.133 c 0.174,-0.055 0.345,-0.117 0.513,-0.181 l 2.837,4.543 c 1.024,1.618 1.826,1.59 3.036,1.59 -1.007,-0.774 -1.661,-1.743 -1.979,-2.25 L 16.465,9.486 C 16.621,9.4 16.774,9.309 16.922,9.215 l 2.259,3.615 c 1.024,1.619 1.825,1.59 3.035,1.59 -1.007,-0.771 -1.66,-1.743 -1.979,-2.25 L 17.921,8.462 c 0.136,-0.122 0.266,-0.25 0.387,-0.381 l 1.643,2.628 c 1.023,1.618 1.825,1.59 3.035,1.59 -1.006,-0.772 -1.662,-1.746 -1.98,-2.252 L 19.1,6.996 c 0.102,-0.19 0.189,-0.384 0.261,-0.583 z"
           id="path4" />
      </g>
      <g
         transform="translate(29.427,1)"
         id="g14">
        <path
           d="M 0,0 H 3.5 V 20 H 0 Z"
           id="path8" />
        <path
           d="M 0,20 H 3.5 V 40 H 0 Z"
           style="fill:#ff0000"
           id="path10" />
        <path
           d="M 0,40 H 3.5 V 60 H 0 Z"
           style="fill:#ffcc00"
           id="path12" />
      </g>
      <g
         transform="translate(39.927,8.988)"
         id="g22">
        <path
           d="M 1.992,0 V -3.564 H 4.716 V -4.392 H 1.992 v -3.06 H 4.944 L 5.016,-8.28 H 0.948 V 0 Z m 5.8919672,-5.112 c 0.612,0 0.936,0.468 0.936,1.26 0,0.18 -0.012,0.336 -0.024,0.42 h -2.088 c 0.048,-1.08 0.492,-1.68 1.176,-1.68 z m 1.944,4.572 -0.36,-0.684 c -0.132,0.132 -0.528,0.504 -1.212,0.504 -0.972,0 -1.5,-0.636 -1.56,-1.98 h 2.94 c 0.036,-0.276 0.072,-0.624 0.072,-1.116 0,-1.38 -0.672,-2.088 -1.764,-2.088 -1.2,0 -2.196,0.912 -2.196,2.952 0,2.172 0.912,3.096 2.364,3.096 1.092,0 1.56,-0.516 1.716,-0.684 z m 3.1919818,-0.18 c -0.672,0 -1.272,-0.528 -1.272,-2.112 0,-1.632 0.708,-2.208 1.608,-2.208 0.348,0 0.576,0.096 0.744,0.204 v 3.552 c -0.132,0.192 -0.468,0.564 -1.08,0.564 z m 1.14,0.108 h 0.024 V 0 h 0.888 v -8.592 l -0.972,0.108 v 2.76 c -0.18,-0.072 -0.444,-0.144 -0.816,-0.144 -1.224,0 -2.544,0.744 -2.544,3.072 0,2.1 0.924,2.94 2.016,2.94 0.912,0 1.296,-0.576 1.404,-0.756 z m 4.271992,-4.5 c 0.612,0 0.936,0.468 0.936,1.26 0,0.18 -0.012,0.336 -0.024,0.42 h -2.088 c 0.048,-1.08 0.492,-1.68 1.176,-1.68 z m 1.944,4.572 -0.36,-0.684 c -0.132,0.132 -0.528,0.504 -1.212,0.504 -0.972,0 -1.5,-0.636 -1.56,-1.98 h 2.94 c 0.036,-0.276 0.072,-0.624 0.072,-1.116 0,-1.38 -0.672,-2.088 -1.764,-2.088 -1.2,0 -2.196,0.912 -2.196,2.952 0,2.172 0.912,3.096 2.364,3.096 1.092,0 1.56,-0.516 1.716,-0.684 z m 3.827981,-5.232 c -0.096,-0.036 -0.252,-0.096 -0.528,-0.096 -0.732,0 -1.044,0.432 -1.212,0.888 h -0.024 v -0.78 h -0.888 V 0 h 0.972 v -4.224 c 0.144,-0.384 0.468,-0.78 1.08,-0.78 0.264,0 0.432,0.072 0.48,0.096 z m 3.143969,2.532 h -0.3 c -1.308,0 -2.4,0.444 -2.4,1.776 0,0.936 0.66,1.608 1.536,1.608 0.732,0 1.08,-0.492 1.212,-0.78 h 0.024 c 0.012,0.288 0.024,0.468 0.036,0.636 h 0.924 c -0.024,-0.156 -0.072,-0.708 -0.072,-1.2 v -2.628 c 0,-1.452 -0.624,-2.076 -1.8,-2.076 -0.924,0 -1.476,0.444 -1.728,0.696 l 0.408,0.648 c 0.216,-0.192 0.6,-0.516 1.176,-0.516 0.624,0 0.984,0.312 0.984,1.284 z m 0,0.72 v 1.272 c -0.12,0.18 -0.396,0.564 -0.96,0.564 -0.48,0 -0.768,-0.3 -0.768,-0.888 0,-0.636 0.492,-0.9 1.416,-0.936 z m 3.383979,-6.072 -0.972,0.108 v 7.224 c 0,1.02 0.444,1.368 1.092,1.368 0.432,0 0.684,-0.108 0.78,-0.156 l -0.084,-0.72 c -0.06,0.024 -0.18,0.072 -0.36,0.072 -0.336,0 -0.456,-0.168 -0.456,-0.648 z m 10.331984,0.312 -1.956,5.724 c -0.18,0.528 -0.336,1.056 -0.348,1.416 h -0.024 c -0.024,-0.36 -0.18,-0.9 -0.36,-1.428 l -1.956,-5.712 h -1.164 V 0 h 1.008 v -3.936 c 0,-0.996 -0.012,-1.956 -0.048,-2.328 h 0.036 c 0.072,0.36 0.36,1.284 0.672,2.22 l 1.368,4.044 h 0.828 l 1.368,-4.044 c 0.312,-0.936 0.588,-1.86 0.672,-2.22 h 0.036 c -0.036,0.348 -0.048,1.332 -0.048,2.328 V 0 h 1.008 v -8.28 z m 3.275997,1.128 c 0.384,0 0.648,-0.288 0.648,-0.696 0,-0.396 -0.264,-0.684 -0.648,-0.684 -0.396,0 -0.66,0.288 -0.66,0.684 0,0.408 0.264,0.696 0.66,0.696 z m 0.48,1.392 h -0.972 V 0 h 0.972 z m 3.635999,0.684 c 0.672,0 0.996,0.396 0.996,1.368 V 0 h 0.972 v -3.78 c 0,-1.56 -0.648,-2.124 -1.68,-2.124 -0.9,0 -1.416,0.588 -1.524,0.792 h -0.024 V -5.76 h -0.888 V 0 h 0.972 v -4.44 c 0.192,-0.24 0.588,-0.636 1.176,-0.636 z m 3.911986,-2.076 c 0.384,0 0.648,-0.288 0.648,-0.696 0,-0.396 -0.264,-0.684 -0.648,-0.684 -0.396,0 -0.66,0.288 -0.66,0.684 0,0.408 0.264,0.696 0.66,0.696 z m 0.48,1.392 h -0.972 V 0 h 0.972 z m 4.391999,0.468 c -0.192,-0.192 -0.576,-0.612 -1.464,-0.612 -0.936,0 -1.668,0.636 -1.668,1.488 0,0.792 0.432,1.26 1.152,1.716 l 0.36,0.228 c 0.552,0.348 0.84,0.54 0.84,1.092 0,0.372 -0.312,0.66 -0.888,0.66 -0.624,0 -0.984,-0.372 -1.164,-0.564 l -0.468,0.768 c 0.228,0.24 0.696,0.66 1.62,0.66 1.176,0 1.836,-0.708 1.836,-1.62 0,-0.852 -0.48,-1.32 -1.26,-1.788 l -0.36,-0.216 c -0.516,-0.312 -0.756,-0.552 -0.756,-0.984 0,-0.336 0.276,-0.612 0.792,-0.612 0.54,0 0.876,0.336 1.008,0.48 z m 3.911982,5.184 -0.132,-0.78 c -0.096,0.06 -0.312,0.168 -0.6,0.168 -0.492,0 -0.684,-0.24 -0.684,-1.056 v -3.192 h 1.26 l 0.12,-0.792 h -1.38 v -1.608 h -0.864 l -0.108,1.608 -0.696,0.144 v 0.648 h 0.696 v 3.324 c 0,1.272 0.504,1.788 1.488,1.788 0.516,0 0.816,-0.192 0.9,-0.252 z m 3.599987,-5.664 c -0.096,-0.036 -0.252,-0.096 -0.528,-0.096 -0.732,0 -1.044,0.432 -1.212,0.888 h -0.024 v -0.78 h -0.888 V 0 h 0.972 v -4.224 c 0.144,-0.384 0.468,-0.78 1.08,-0.78 0.264,0 0.432,0.072 0.48,0.096 z m 3.719982,0.012 -0.816,3.204 c -0.168,0.648 -0.312,1.224 -0.336,1.668 h -0.024 c -0.024,-0.444 -0.192,-1.032 -0.372,-1.68 l -0.9,-3.192 h -1.044 l 1.86,5.748 -0.084,0.3 c -0.252,0.888 -0.564,1.32 -1.248,1.32 -0.204,0 -0.336,-0.048 -0.408,-0.084 v 0.84 c 0.06,0.036 0.228,0.108 0.468,0.108 1.14,0 1.644,-0.732 2.064,-2.136 l 1.8,-6.096 z"
           style="font-size:12px;font-family:'BundesSans Cond';letter-spacing:0"
           id="path16" />
        <path
           d="m 0.48,-2.88 c 0,2.16 0.972,3.024 2.244,3.024 1.26,0 2.304,-0.876 2.304,-3.024 0,-2.124 -0.972,-3.024 -2.244,-3.024 -1.236,0 -2.304,0.9 -2.304,3.024 z m 3.54,0 c 0,1.524 -0.468,2.16 -1.26,2.16 -0.792,0 -1.272,-0.636 -1.272,-2.16 0,-1.524 0.468,-2.196 1.26,-2.196 0.792,0 1.272,0.672 1.272,2.196 z m 4.5839894,-2.088 0.12,-0.792 h -1.296 v -1.032 c 0,-0.756 0.252,-1.008 0.708,-1.008 0.252,0 0.432,0.096 0.528,0.156 l 0.204,-0.804 c -0.096,-0.06 -0.408,-0.216 -0.816,-0.216 -0.852,0 -1.596,0.504 -1.596,1.764 v 1.152 l -0.696,0.132 v 0.648 h 0.696 V 0 h 0.972 v -4.968 z m 6.8519746,-0.936 c 0,1.08 -0.6,1.704 -1.86,1.704 h -0.456 v -3.252 h 0.504 c 1.236,0 1.812,0.504 1.812,1.548 z m -2.316,2.532 h 0.456 c 0.192,0 0.384,-0.012 0.564,-0.024 l 1.716,3.396 h 1.224 l -1.944,-3.648 c 0.948,-0.408 1.416,-1.236 1.416,-2.316 0,-1.524 -0.936,-2.316 -2.928,-2.316 h -1.548 V 0 h 1.044 z m 6.695984,-1.74 c 0.612,0 0.936,0.468 0.936,1.26 0,0.18 -0.012,0.336 -0.024,0.42 h -2.088 c 0.048,-1.08 0.492,-1.68 1.176,-1.68 z m 1.944,4.572 -0.36,-0.684 c -0.132,0.132 -0.528,0.504 -1.212,0.504 -0.972,0 -1.5,-0.636 -1.56,-1.98 h 2.94 c 0.036,-0.276 0.072,-0.624 0.072,-1.116 0,-1.38 -0.672,-2.088 -1.764,-2.088 -1.2,0 -2.196,0.912 -2.196,2.952 0,2.172 0.912,3.096 2.364,3.096 1.092,0 1.56,-0.516 1.716,-0.684 z m 4.079981,-4.752 c -0.192,-0.192 -0.576,-0.612 -1.464,-0.612 -0.936,0 -1.668,0.636 -1.668,1.488 0,0.792 0.432,1.26 1.152,1.716 l 0.36,0.228 c 0.552,0.348 0.84,0.54 0.84,1.092 0,0.372 -0.312,0.66 -0.888,0.66 -0.624,0 -0.984,-0.372 -1.164,-0.564 l -0.468,0.768 c 0.228,0.24 0.696,0.66 1.62,0.66 1.176,0 1.836,-0.708 1.836,-1.62 0,-0.852 -0.48,-1.32 -1.26,-1.788 l -0.36,-0.216 c -0.516,-0.312 -0.756,-0.552 -0.756,-0.984 0,-0.336 0.276,-0.612 0.792,-0.612 0.54,0 0.876,0.336 1.008,0.48 z m 3.167982,0.18 c 0.612,0 0.936,0.468 0.936,1.26 0,0.18 -0.012,0.336 -0.024,0.42 h -2.088 c 0.048,-1.08 0.492,-1.68 1.176,-1.68 z m 1.944,4.572 -0.36,-0.684 c -0.132,0.132 -0.528,0.504 -1.212,0.504 -0.972,0 -1.5,-0.636 -1.56,-1.98 h 2.94 c 0.036,-0.276 0.072,-0.624 0.072,-1.116 0,-1.38 -0.672,-2.088 -1.764,-2.088 -1.2,0 -2.196,0.912 -2.196,2.952 0,2.172 0.912,3.096 2.364,3.096 1.092,0 1.56,-0.516 1.716,-0.684 z m 3.539982,-2.7 h -0.3 c -1.308,0 -2.4,0.444 -2.4,1.776 0,0.936 0.66,1.608 1.536,1.608 0.732,0 1.08,-0.492 1.212,-0.78 h 0.024 c 0.012,0.288 0.024,0.468 0.036,0.636 h 0.924 c -0.024,-0.156 -0.072,-0.708 -0.072,-1.2 v -2.628 c 0,-1.452 -0.624,-2.076 -1.8,-2.076 -0.924,0 -1.476,0.444 -1.728,0.696 l 0.408,0.648 c 0.216,-0.192 0.6,-0.516 1.176,-0.516 0.624,0 0.984,0.312 0.984,1.284 z m 0,0.72 v 1.272 c -0.12,0.18 -0.396,0.564 -0.96,0.564 -0.48,0 -0.768,-0.3 -0.768,-0.888 0,-0.636 0.492,-0.9 1.416,-0.936 z m 5.075979,-3.252 c -0.096,-0.036 -0.252,-0.096 -0.528,-0.096 -0.732,0 -1.044,0.432 -1.212,0.888 h -0.024 v -0.78 h -0.888 V 0 h 0.972 v -4.224 c 0.144,-0.384 0.468,-0.78 1.08,-0.78 0.264,0 0.432,0.072 0.48,0.096 z m 4.307969,0.444 c -0.18,-0.204 -0.588,-0.576 -1.464,-0.576 -1.14,0 -2.412,0.804 -2.412,3.012 0,2.256 1.02,3.036 2.304,3.036 0.9,0 1.344,-0.42 1.5,-0.6 l -0.396,-0.672 c -0.12,0.132 -0.42,0.408 -1.008,0.408 -0.828,0 -1.392,-0.552 -1.392,-2.244 0,-1.524 0.648,-2.112 1.476,-2.112 0.576,0 0.876,0.324 0.984,0.432 z m 3.167996,0.252 c 0.672,0 0.996,0.396 0.996,1.368 V 0 h 0.972 v -3.78 c 0,-1.524 -0.636,-2.124 -1.644,-2.124 -0.924,0 -1.356,0.552 -1.476,0.732 h -0.024 v -3.42 l -0.972,0.108 V 0 h 0.972 v -4.44 c 0.192,-0.24 0.588,-0.636 1.176,-0.636 z m 3.287985,6.756 c 0.636,-0.228 1.392,-0.744 1.392,-1.836 0,-0.792 -0.324,-1.176 -0.792,-1.176 -0.336,0 -0.624,0.216 -0.624,0.648 0,0.444 0.288,0.684 0.66,0.684 h 0.036 c 0,0.696 -0.372,1.008 -0.876,1.26 z m 9.551968,-9.96 h -5.532 v 0.828 h 2.208 V 0 h 1.044 v -7.452 h 2.208 z m 1.823988,3.168 c 0.612,0 0.936,0.468 0.936,1.26 0,0.18 -0.012,0.336 -0.024,0.42 h -2.088 c 0.048,-1.08 0.492,-1.68 1.176,-1.68 z m 1.944,4.572 -0.36,-0.684 c -0.132,0.132 -0.528,0.504 -1.212,0.504 -0.972,0 -1.5,-0.636 -1.56,-1.98 h 2.94 c 0.036,-0.276 0.072,-0.624 0.072,-1.116 0,-1.38 -0.672,-2.088 -1.764,-2.088 -1.2,0 -2.196,0.912 -2.196,2.952 0,2.172 0.912,3.096 2.364,3.096 1.092,0 1.56,-0.516 1.716,-0.684 z m 4.787982,-4.788 c -0.18,-0.204 -0.588,-0.576 -1.464,-0.576 -1.14,0 -2.412,0.804 -2.412,3.012 0,2.256 1.02,3.036 2.304,3.036 0.9,0 1.344,-0.42 1.5,-0.6 l -0.396,-0.672 c -0.12,0.132 -0.42,0.408 -1.008,0.408 -0.828,0 -1.392,-0.552 -1.392,-2.244 0,-1.524 0.648,-2.112 1.476,-2.112 0.576,0 0.876,0.324 0.984,0.432 z m 3.167996,0.252 c 0.672,0 0.996,0.396 0.996,1.368 V 0 h 0.972 v -3.78 c 0,-1.524 -0.636,-2.124 -1.644,-2.124 -0.924,0 -1.356,0.552 -1.476,0.732 h -0.024 v -3.42 l -0.972,0.108 V 0 h 0.972 v -4.44 c 0.192,-0.24 0.588,-0.636 1.176,-0.636 z m 5.567985,0 c 0.672,0 0.996,0.396 0.996,1.368 V 0 h 0.972 v -3.78 c 0,-1.56 -0.648,-2.124 -1.68,-2.124 -0.9,0 -1.416,0.588 -1.524,0.792 h -0.024 V -5.76 h -0.888 V 0 h 0.972 v -4.44 c 0.192,-0.24 0.588,-0.636 1.176,-0.636 z m 3.155986,2.196 c 0,2.16 0.972,3.024 2.244,3.024 1.26,0 2.304,-0.876 2.304,-3.024 0,-2.124 -0.972,-3.024 -2.244,-3.024 -1.236,0 -2.304,0.9 -2.304,3.024 z m 3.54,0 c 0,1.524 -0.468,2.16 -1.26,2.16 -0.792,0 -1.272,-0.636 -1.272,-2.16 0,-1.524 0.468,-2.196 1.26,-2.196 0.792,0 1.272,0.672 1.272,2.196 z m 3.191996,-5.712 -0.972,0.108 v 7.224 c 0,1.02 0.444,1.368 1.092,1.368 0.432,0 0.684,-0.108 0.78,-0.156 l -0.084,-0.72 c -0.06,0.024 -0.18,0.072 -0.36,0.072 -0.336,0 -0.456,-0.168 -0.456,-0.648 z m 1.511984,5.712 c 0,2.16 0.972,3.024 2.244,3.024 1.26,0 2.304,-0.876 2.304,-3.024 0,-2.124 -0.972,-3.024 -2.244,-3.024 -1.236,0 -2.304,0.9 -2.304,3.024 z m 3.54,0 c 0,1.524 -0.468,2.16 -1.26,2.16 -0.792,0 -1.272,-0.636 -1.272,-2.16 0,-1.524 0.468,-2.196 1.26,-2.196 0.792,0 1.272,0.672 1.272,2.196 z m 4.967996,-1.092 c 0,0.828 -0.456,1.152 -1.008,1.152 -0.528,0 -0.996,-0.324 -0.996,-1.152 0,-0.828 0.468,-1.152 1.02,-1.152 0.528,0 0.984,0.324 0.984,1.152 z m 1.416,4.416 c 0,-1.092 -0.816,-1.524 -1.908,-1.524 h -0.732 c -0.42,0 -0.588,-0.168 -0.588,-0.408 0,-0.3 0.276,-0.456 0.468,-0.54 0.096,0.012 0.192,0.012 0.3,0.012 1.128,0 1.992,-0.732 1.992,-1.956 0,-0.384 -0.096,-0.744 -0.276,-1.032 h 0.72 l 0.132,-0.756 h -1.752 c -0.24,-0.096 -0.492,-0.144 -0.768,-0.144 -1.08,0 -1.956,0.636 -1.956,1.932 0,0.912 0.396,1.488 0.984,1.764 v 0.024 c -0.144,0.072 -0.696,0.312 -0.696,0.936 0,0.36 0.132,0.624 0.372,0.804 v 0.024 c -0.264,0.144 -0.96,0.552 -0.96,1.404 0,0.996 0.66,1.56 1.884,1.56 1.704,0 2.784,-0.864 2.784,-2.1 z m -2.712,1.272 c -0.684,0 -1.02,-0.312 -1.02,-0.924 0,-0.576 0.312,-0.852 0.588,-1.008 0.132,0.024 0.288,0.036 0.444,0.036 h 0.732 c 0.588,0 0.972,0.216 0.972,0.768 0,0.588 -0.54,1.128 -1.716,1.128 z m 6.671987,-7.476 -0.816,3.204 c -0.168,0.648 -0.312,1.224 -0.336,1.668 h -0.024 c -0.024,-0.444 -0.192,-1.032 -0.372,-1.68 l -0.9,-3.192 h -1.044 l 1.86,5.748 -0.084,0.3 c -0.252,0.888 -0.564,1.32 -1.248,1.32 -0.204,0 -0.336,-0.048 -0.408,-0.084 v 0.84 c 0.06,0.036 0.228,0.108 0.468,0.108 1.14,0 1.644,-0.732 2.064,-2.136 l 1.8,-6.096 z"
           style="font-size:12px;font-family:'BundesSans Cond';letter-spacing:0"
           transform="translate(0,12)"
           id="path18" />
        <path
           d="m 3.108,-3.24 h -0.3 c -1.308,0 -2.4,0.444 -2.4,1.776 0,0.936 0.66,1.608 1.536,1.608 0.732,0 1.08,-0.492 1.212,-0.78 H 3.18 C 3.192,-0.348 3.204,-0.168 3.216,0 H 4.14 C 4.116,-0.156 4.068,-0.708 4.068,-1.2 v -2.628 c 0,-1.452 -0.624,-2.076 -1.8,-2.076 -0.924,0 -1.476,0.444 -1.728,0.696 l 0.408,0.648 c 0.216,-0.192 0.6,-0.516 1.176,-0.516 0.624,0 0.984,0.312 0.984,1.284 z m 0,0.72 v 1.272 c -0.12,0.18 -0.396,0.564 -0.96,0.564 -0.48,0 -0.768,-0.3 -0.768,-0.888 0,-0.636 0.492,-0.9 1.416,-0.936 z m 4.5719791,-2.556 c 0.672,0 0.996,0.396 0.996,1.368 V 0 h 0.972 v -3.78 c 0,-1.56 -0.648,-2.124 -1.68,-2.124 -0.9,0 -1.416,0.588 -1.524,0.792 h -0.024 V -5.76 h -0.888 V 0 h 0.972 v -4.44 c 0.192,-0.24 0.588,-0.636 1.176,-0.636 z m 5.4359859,4.356 c -0.672,0 -1.272,-0.528 -1.272,-2.112 0,-1.632 0.708,-2.208 1.608,-2.208 0.348,0 0.576,0.096 0.744,0.204 v 3.552 c -0.132,0.192 -0.468,0.564 -1.08,0.564 z m 1.14,0.108 h 0.024 V 0 h 0.888 v -8.592 l -0.972,0.108 v 2.76 c -0.18,-0.072 -0.444,-0.144 -0.816,-0.144 -1.224,0 -2.544,0.744 -2.544,3.072 0,2.1 0.924,2.94 2.016,2.94 0.912,0 1.296,-0.576 1.404,-0.756 z M 22.967956,-7.8 c -0.18,-0.144 -0.708,-0.624 -1.812,-0.624 -1.296,0 -2.124,0.816 -2.124,1.884 0,1.14 0.528,1.692 1.44,2.46 l 0.672,0.564 c 0.696,0.588 1.032,0.972 1.032,1.692 0,0.564 -0.456,1.032 -1.272,1.032 -0.852,0 -1.404,-0.528 -1.608,-0.72 l -0.42,0.912 c 0.24,0.216 0.864,0.744 2.052,0.744 1.488,0 2.304,-0.852 2.304,-2.112 0,-1.08 -0.612,-1.728 -1.392,-2.376 l -0.672,-0.552 c -0.756,-0.612 -1.104,-1.02 -1.104,-1.668 0,-0.516 0.372,-0.96 1.092,-0.96 0.768,0 1.248,0.384 1.38,0.516 z m 3.263983,7.044 c -0.396,0 -0.684,-0.12 -0.864,-0.252 v -3.54 c 0.18,-0.204 0.528,-0.528 1.128,-0.528 0.708,0 1.224,0.564 1.224,2.112 0,1.668 -0.6,2.208 -1.488,2.208 z m 0,0.864 c 1.308,0 2.496,-0.816 2.496,-3.144 0,-2.028 -0.78,-2.868 -1.968,-2.868 -0.888,0 -1.308,0.504 -1.452,0.756 h -0.024 V -5.76 h -0.888 V 2.4 h 0.972 v -2.436 c 0.18,0.072 0.468,0.144 0.864,0.144 z m 6.083993,-3.348 h -0.3 c -1.308,0 -2.4,0.444 -2.4,1.776 0,0.936 0.66,1.608 1.536,1.608 0.732,0 1.08,-0.492 1.212,-0.78 h 0.024 c 0.012,0.288 0.024,0.468 0.036,0.636 h 0.924 c -0.024,-0.156 -0.072,-0.708 -0.072,-1.2 v -2.628 c 0,-1.452 -0.624,-2.076 -1.8,-2.076 -0.924,0 -1.476,0.444 -1.728,0.696 l 0.408,0.648 c 0.216,-0.192 0.6,-0.516 1.176,-0.516 0.624,0 0.984,0.312 0.984,1.284 z m 0,0.72 v 1.272 c -0.12,0.18 -0.396,0.564 -0.96,0.564 -0.48,0 -0.768,-0.3 -0.768,-0.888 0,-0.636 0.492,-0.9 1.416,-0.936 z m 6.035979,-2.808 c -0.18,-0.204 -0.588,-0.576 -1.464,-0.576 -1.14,0 -2.412,0.804 -2.412,3.012 0,2.256 1.02,3.036 2.304,3.036 0.9,0 1.344,-0.42 1.5,-0.6 l -0.396,-0.672 c -0.12,0.132 -0.42,0.408 -1.008,0.408 -0.828,0 -1.392,-0.552 -1.392,-2.244 0,-1.524 0.648,-2.112 1.476,-2.112 0.576,0 0.876,0.324 0.984,0.432 z m 2.79598,0.216 c 0.612,0 0.936,0.468 0.936,1.26 0,0.18 -0.012,0.336 -0.024,0.42 h -2.088 c 0.048,-1.08 0.492,-1.68 1.176,-1.68 z m 1.944,4.572 -0.36,-0.684 c -0.132,0.132 -0.528,0.504 -1.212,0.504 -0.972,0 -1.5,-0.636 -1.56,-1.98 h 2.94 c 0.036,-0.276 0.072,-0.624 0.072,-1.116 0,-1.38 -0.672,-2.088 -1.764,-2.088 -1.2,0 -2.196,0.912 -2.196,2.952 0,2.172 0.912,3.096 2.364,3.096 1.092,0 1.56,-0.516 1.716,-0.684 z"
           style="font-size:12px;font-family:'BundesSans Cond';letter-spacing:0"
           transform="translate(0,24)"
           id="path20" />
      </g>
    </g>
    <rect
       style="fill:none;stroke-width:0.245593"
       id="rect1"
       width="69.387238"
       height="38.294403"
       x="56.4468"
       y="121.94061" />
  </g>
</svg>
