<?xml version="1.0" encoding="UTF-8"?>
<svg id="Layer_1" xmlns="http://www.w3.org/2000/svg" version="1.1" viewBox="0 0 369.92 127.56">
  <!-- Generator: Adobe Illustrator 30.1.0, SVG Export Plug-In . SVG Version: 2.1.1 Build 136)  -->
  <defs>
    <style>
      .st0 {
        fill: #fff;
      }

      .st1 {
        fill: #231f20;
      }

      .st2 {
        fill: #e20571;
      }
    </style>
  </defs>
  <path class="st1" d="M204.44,23.01c-15.5,32.84-15.05,31.73-15.49,32.84-.86,1.7-1.73,3.47-3.96,3.47-1.83,0-3.27-1.52-3.27-3.45,0-1.04.22-1.5.95-3.02.49-1.06.04-.07,14.88-31.7,1.02-2.11,2-4.12,4.25-4.12,1.9,0,3.32,1.43,3.32,3.33,0,1.05-.33,1.85-.69,2.63M206.85,20.38c0-2.83-2.22-5.05-5.05-5.05-3.34,0-4.71,2.85-5.72,4.93.46-1-.07.16-14.93,31.78-.8,1.68-1.16,2.41-1.16,3.84,0,2.89,2.19,5.16,4.99,5.16,3.28,0,4.56-2.55,5.5-4.42l15.51-32.88c.43-.93.86-1.96.86-3.36"/>
  <path class="st1" d="M218.65,23.01c-15.49,32.84-14.93,32.05-15.5,32.84-.85,1.71-1.73,3.47-3.95,3.47-1.84,0-3.27-1.52-3.27-3.45,0-1.04.22-1.5.96-3.02.48-1.07.03-.07,14.88-31.7,1.02-2.1,2-4.12,4.25-4.12,1.89,0,3.34,1.43,3.34,3.33,0,1.05-.33,1.85-.7,2.63M216.02,15.33c-3.34,0-4.71,2.85-5.72,4.93.48-.98-.08.16-14.93,31.78-.8,1.68-1.16,2.41-1.16,3.84,0,2.89,2.2,5.16,4.99,5.16,3.29,0,4.57-2.55,5.5-4.43l15.51-32.87c.42-.89.86-1.96.86-3.36,0-2.83-2.22-5.05-5.05-5.05"/>
  <path class="st1" d="M230.33,35.02c.28.68.64,1.23,1.58,1.23s1.3-.55,1.58-1.23l4.67-11.87c.1-.28.14-.49.14-.79,0-.89-.78-1.54-1.64-1.54-.72,0-1.17.47-1.45,1.04l-3.31,8.86-3.3-8.86c-.29-.57-.73-1.04-1.46-1.04-.85,0-1.64.64-1.64,1.54,0,.3.04.51.15.79l4.66,11.87Z"/>
  <path class="st1" d="M243.25,24.14h.04l1.98,6.18h-4.05l2.03-6.18ZM236.56,34.89c0,.85.72,1.49,1.57,1.49s1.31-.47,1.53-1.13l.64-1.98h5.92l.64,2c.21.64.66,1.11,1.56,1.11.79,0,1.47-.57,1.47-1.4,0-.15-.04-.45-.17-.79l-4.18-11.59c-.36-1.02-1.15-1.77-2.28-1.77s-1.91.79-2.28,1.77l-4.29,11.59c-.04.11-.14.36-.14.71"/>
  <path class="st1" d="M252.98,36.12h5.33c.93,0,1.49-.7,1.54-1.41.02-.72-.45-1.54-1.54-1.54h-3.79v-10.7c0-1.06-.68-1.66-1.6-1.66s-1.6.6-1.6,1.66v11.89c0,1.07.62,1.75,1.66,1.75"/>
  <path class="st1" d="M267.24,24.14h.05l1.98,6.18h-4.05l2.02-6.18ZM262.12,36.38c.88,0,1.32-.47,1.54-1.13l.64-1.98h5.91l.65,2c.21.64.66,1.11,1.55,1.11.79,0,1.48-.57,1.48-1.4,0-.15-.05-.45-.17-.79l-4.18-11.59c-.37-1.02-1.15-1.77-2.29-1.77s-1.91.79-2.28,1.77l-4.28,11.59c-.05.11-.15.36-.15.71,0,.85.72,1.49,1.57,1.49"/>
  <path class="st1" d="M278.51,34.59v-12.1c0-1.06-.68-1.66-1.6-1.66s-1.6.6-1.6,1.66v12.1c0,1.07.69,1.66,1.6,1.66s1.6-.59,1.6-1.66"/>
  <path class="st1" d="M285.54,33.43c-1.38,0-2.57-.83-3.57-.83-.88,0-1.43.68-1.43,1.51,0,2,3.53,2.39,5.18,2.39,2.94,0,5.46-1.9,5.46-4.95,0-5.5-7.12-4.09-7.12-6.29,0-.89.83-1.38,1.75-1.38,1.28,0,1.96.64,2.83.64s1.43-.75,1.43-1.57c0-1.68-2.98-2.13-4.17-2.13-2.84,0-5.29,1.85-5.29,4.83,0,4.94,7.11,3.43,7.11,5.94,0,1.05-.77,1.83-2.18,1.83"/>
  <path class="st1" d="M242.78,41.53c0-.68-.57-1.41-1.51-1.41-1.02,0-1.51.59-1.7,1.54l-1.81,9.05h-.05l-2.77-9.33c-.23-.77-.88-1.26-1.66-1.26s-1.43.49-1.66,1.26l-2.77,9.33h-.04l-1.82-9.05c-.18-.95-.68-1.54-1.7-1.54-.95,0-1.52.73-1.52,1.41,0,.3.02.45.09.73l2.71,11.63c.21.9.92,1.66,2.11,1.66,1.04,0,1.85-.68,2.11-1.55l2.47-8.21h.05l2.47,8.21c.26.88,1.07,1.55,2.11,1.55,1.2,0,1.9-.76,2.12-1.66l2.7-11.63c.06-.28.08-.43.08-.73"/>
  <path class="st1" d="M246.87,49.5l2.04-6.18h.03l1.98,6.18h-4.05ZM251.2,41.77c-.37-1.03-1.16-1.77-2.28-1.77s-1.92.79-2.29,1.77l-4.28,11.59c-.04.11-.15.37-.15.7,0,.86.72,1.49,1.57,1.49s1.32-.46,1.54-1.12l.64-1.98h5.92l.64,2c.21.64.66,1.11,1.55,1.11.79,0,1.47-.57,1.47-1.4,0-.15-.04-.45-.17-.79l-4.18-11.59Z"/>
  <path class="st1" d="M263.96,52.6h-3.79v-10.69c0-1.07-.68-1.66-1.6-1.66s-1.6.59-1.6,1.66v11.89c0,1.07.62,1.75,1.67,1.75h5.32c.93,0,1.49-.7,1.53-1.4.03-.73-.44-1.54-1.53-1.54"/>
  <path class="st1" d="M273.46,52.6h-3.79v-10.69c0-1.07-.68-1.66-1.6-1.66s-1.59.59-1.59,1.66v11.89c0,1.07.62,1.75,1.66,1.75h5.33c.93,0,1.49-.7,1.53-1.4.02-.73-.45-1.54-1.53-1.54"/>
  <path class="st1" d="M277.57,40.12c-.91,0-1.6.59-1.6,1.66v12.1c0,1.07.68,1.66,1.6,1.66s1.6-.59,1.6-1.66v-12.1c0-1.07-.68-1.66-1.6-1.66"/>
  <path class="st1" d="M284.05,44.32c0-.9.83-1.39,1.75-1.39,1.28,0,1.96.64,2.83.64s1.43-.74,1.43-1.57c0-1.69-2.98-2.13-4.18-2.13-2.83,0-5.28,1.85-5.28,4.83,0,4.95,7.11,3.43,7.11,5.95,0,1.04-.77,1.83-2.17,1.83s-2.58-.83-3.58-.83c-.88,0-1.43.68-1.43,1.51,0,2,3.54,2.39,5.18,2.39,2.95,0,5.46-1.89,5.46-4.94,0-5.5-7.12-4.09-7.12-6.29"/>
  <path class="st1" d="M140.09,40.15l-1.84-.53c-3.18-.91-5.27-1.54-5.27-3.61,0-1.5,1.29-2.51,2.81-2.89.77-.2,1.49-.24,2.2-.24,3.32,0,5.32,1.15,6.6,1.93l.45-.2c.16-1.83.21-2.02.41-3.8l-.25-.34c-.93-.34-3.58-1.35-7.36-1.35-5.73,0-10.32,2.46-10.32,7.42s4.6,6.36,6.7,6.98l1.64.53c3.12.96,5.31,1.68,5.31,3.9,0,1.49-1.48,3.61-5.52,3.61s-6.19-1.64-7.11-2.31l-.51.15c-.1,1.92-.1,2.16-.3,4.04l.25.44c.26.09.52.19.77.29,1.94.73,4.24,1.21,7,1.21,1.84,0,5.47-.14,8.18-2.31,2.09-1.59,2.86-3.75,2.86-5.68,0-5.11-4.65-6.6-6.7-7.23"/>
  <path class="st1" d="M169.64,48.48c-1.48,2.64-3.93,3.23-5.82,3.23-1.03,0-2.1-.2-3.02-.63-4.04-1.93-4.09-6.79-4.09-8.71,0-2.03.15-4.82,1.54-6.79,1.79-2.69,4.66-2.79,5.62-2.79,2.87,0,4.5,1.25,5.48,2.75,1.27,2.12,1.48,5.35,1.48,6.55.05,1.01,0,4.24-1.18,6.41M164.12,29.12c-5.11,0-8.07,1.97-9.51,3.37-3.43,3.22-3.53,7.94-3.53,9.77,0,1.59.05,6.5,3.53,9.82,1.64,1.6,4.55,3.23,9.15,3.23,3.58,0,6.6-.82,8.84-2.94,1.7-1.59,2.77-3.46,3.32-5.83.36-1.44.46-3.04.46-4.67-.1-3.37-.77-6.74-3.12-9.29-2.25-2.41-5.68-3.46-9.16-3.46"/>
  <path class="st1" d="M118.64,39.23c-1.69,0-3.04,1.37-3.04,3.04s1.36,3.04,3.04,3.04,3.04-1.36,3.04-3.04-1.36-3.04-3.04-3.04"/>
  <path class="st1" d="M51.62,21.11l-.25-.29c-4.09.14-4.76.14-9.05.14l-.26.29c.36,5.44.36,6.84.41,12.52-2.25.05-4.5.1-6.8.1-1.79,0-3.63-.05-5.42-.05l.1-12.71-.26-.29c-3.93.14-4.7.14-9.15.14l-.3.29c.26,4.96.57,10.88.57,22.83,0,4.34-.11,6.69-.21,10.74l.25.29c3.73-.14,4.65-.2,9.15-.14l.26-.29c-.31-5.97-.36-7.71-.41-14.69,2.25-.09,4.14-.14,6.14-.14s4.08.05,6.13.1c.1,6.5.1,8.09-.16,14.88l.26.29c3.84-.14,4.86-.2,9.2-.14l.25-.29c-.41-8.09-.56-16.14-.56-24.23,0-3.37.05-5.64.1-9.34"/>
  <path class="st1" d="M65.78,39.22c.16-1.49.52-3.52,2.46-4.67.61-.39,1.33-.53,2.04-.53,1.69,0,2.7.82,3.27,1.69.71,1.06.76,2.21.76,3.32l-8.54.19ZM74.32,29.3c-1.27-.33-2.45-.43-3.62-.43-8.03,0-13.35,4.96-13.35,13.3,0,2.27.41,4.62,1.22,6.31,2.97,6.5,9.92,7.08,13.61,7.08,4.23,0,6.08-.73,8.79-1.73l.31-.39.36-5.44-.36-.14c-1.95.96-4.25,2.07-7.98,2.07-3.07,0-5.16-.92-6.39-2.66-.77-1-.92-1.96-1.12-2.93l16.52-.29.31-.33c-.05-2.36-.1-4.77-.82-7.18-1.79-5.68-5.72-6.84-7.46-7.23"/>
  <path class="st1" d="M102.85,39.22l-2.5-.87c-1.74-.58-3.12-1.11-3.12-2.46,0-.58.41-2.17,3.59-2.17s5.11,1.25,6.39,2.03l.46-.15.51-5.25-.25-.29c-2.4-.62-4.5-1.21-7.82-1.21-2.5,0-7.52.2-10.18,3.81-.66.87-1.38,2.31-1.38,4.24,0,5.16,4.25,6.7,6.65,7.56l1.94.67c1.38.44,3.64,1.16,3.64,2.89,0,1.21-1.18,2.51-4.04,2.51-1.43,0-3.53-.43-5.42-1.34-.87-.43-1.29-.78-2.05-1.35l-.46.19c-.1,2.51-.14,3.04-.35,5.45l.25.43c2.5.87,4.65,1.64,8.38,1.64s11.56-.68,12.48-7.56c.05-.39.05-.73.05-1.06,0-5.29-3.93-6.69-6.75-7.7"/>
  <path class="st2" d="M75,76.07v10.98h-2.09v-4.57h-5.18v4.57h-2.09v-10.98h2.09v4.37h5.18v-4.37h2.09Z"/>
  <path class="st2" d="M80.95,84.13h-1.36c-.61,0-1,.31-1,.84s.36.78.92.78c.83,0,1.45-.58,1.45-1.62M84.03,86.71c-.29.25-.82.48-1.46.48-.71,0-1.22-.26-1.41-.87-.46.59-1.16.91-2.21.91-1.48,0-2.34-.83-2.34-2.12s.95-2.28,2.94-2.28h1.39v-.44c0-.94-.46-1.31-1.16-1.31s-1.05.32-1.21.9l-1.73-.51c.34-1.24,1.31-2.11,3.1-2.11s2.97.87,2.97,3.07v2.76c0,.2.12.32.3.32.11,0,.19-.04.27-.12l.54,1.31Z"/>
  <path class="st2" d="M92.07,79.64v7.41h-1.99v-.71c-.51.61-1.26.97-2.26.97-2.01,0-2.84-1.34-2.84-3.3v-4.37h2.04v4.21c0,1,.46,1.66,1.48,1.66.92,0,1.53-.66,1.53-1.75v-4.13h2.04Z"/>
  <path class="st2" d="M99.6,85.85c-.38.77-1.07,1.41-2.45,1.41-1.56,0-2.5-.83-2.5-2.41l.02-3.52h-1.46v-.44l3.01-2.82h.44v1.58h2.52l-.02,1.68h-2.45v3.37c0,.46.22.8.73.8.41,0,.61-.16.8-.51l1.36.87Z"/>
  <path class="st2" d="M102.1,82.45h3.32c-.15-.94-.68-1.48-1.58-1.48-.85,0-1.5.49-1.73,1.48M107.37,83.84h-5.32c.15,1.09.8,1.75,1.86,1.75.85,0,1.34-.32,1.68-.99l1.61.7c-.58,1.28-1.79,1.96-3.35,1.96-2.12,0-3.81-1.27-3.81-3.93,0-2.2,1.51-3.96,3.82-3.96s3.55,1.55,3.55,3.8c0,.24,0,.46-.05.66"/>
  <path class="st2" d="M119.18,85.23v1.82h-6.44v-10.98h6.27v1.82h-4.18v2.62h3.77v1.84h-3.77v2.89h4.35Z"/>
  <path class="st2" d="M120.2,83.3c0-2.45,1.8-3.93,3.93-3.93,1.39,0,2.5.51,3.18,1.8l-1.48.98c-.38-.68-.92-1.02-1.7-1.02-1.09,0-1.96.8-1.96,2.16s.87,2.19,1.96,2.19c.9,0,1.39-.34,1.75-1.04l1.46.95c-.68,1.34-1.94,1.83-3.33,1.83-2.14,0-3.81-1.34-3.81-3.94"/>
  <path class="st2" d="M134.09,83.32c0-1.26-.82-2.21-2.02-2.21s-2.02.97-2.02,2.23.8,2.18,2.02,2.18,2.02-.99,2.02-2.19M128.07,83.32c0-2.16,1.62-3.95,4-3.95,2.5,0,4,1.7,4,3.95s-1.63,3.94-4,3.94c-2.54,0-4-1.7-4-3.94"/>
  <path class="st2" d="M137.58,75.51h2.06v11.54h-2.06v-11.54Z"/>
  <path class="st2" d="M143.22,82.45h3.31c-.15-.94-.68-1.48-1.58-1.48-.85,0-1.5.49-1.73,1.48M148.49,83.84h-5.32c.15,1.09.8,1.75,1.85,1.75.85,0,1.34-.32,1.68-.99l1.61.7c-.58,1.28-1.79,1.96-3.35,1.96-2.12,0-3.81-1.27-3.81-3.93,0-2.2,1.51-3.96,3.82-3.96s3.55,1.55,3.55,3.8c0,.24,0,.46-.05.66"/>
  <path class="st2" d="M159.03,83.3c0-1.24-.8-2.16-1.99-2.16s-2.04.92-2.04,2.16.8,2.19,2.04,2.19c1.17,0,1.99-.9,1.99-2.19M161,75.51v11.54h-1.96v-.99c-.56.79-1.43,1.19-2.5,1.19-2.06,0-3.54-1.57-3.52-3.96,0-2.33,1.53-3.93,3.54-3.93,1.02,0,1.84.32,2.38,1v-4.86h2.06Z"/>
  <path class="st2" d="M162.98,75.39h2.24l-1.31,3.8-1.48-.18.55-3.62Z"/>
  <path class="st2" d="M166.82,76.07h2.09v10.98h-2.09v-10.98Z"/>
  <path class="st2" d="M178.38,82.65v4.4h-2.04v-4.16c0-1.05-.53-1.75-1.56-1.75s-1.6.76-1.6,1.77v4.15h-2.06v-7.41h1.91v.83c.51-.7,1.29-1.11,2.43-1.11,1.95,0,2.93,1.32,2.93,3.28"/>
  <path class="st2" d="M182.93,83.72c.71,0,1.19-.56,1.19-1.26s-.46-1.22-1.19-1.22c-.78,0-1.22.53-1.22,1.22,0,.73.46,1.26,1.22,1.26M186.96,81.22h-1.34c.25.41.41.87.41,1.34,0,.82-.39,1.5-1.19,2.12l-.88.75c-.15.12-.29.22-.46.29h.92c1.63,0,2.48.8,2.48,2.14,0,1.55-1.39,2.62-3.77,2.62-1.8,0-2.98-.51-3.59-1.67l1.43-1.09c.41.75,1,1.12,2.14,1.12,1.27,0,1.9-.29,1.9-.88,0-.46-.3-.66-.8-.66h-2.79v-1.24l1.05-.9c-1.63-.15-2.68-1.14-2.68-2.7s1.29-2.82,3.14-2.82h4.05l-.02,1.58Z"/>
  <path class="st2" d="M191.71,78.79l-1.52-.38,1.28-2.99h2.55l-2.31,3.37ZM189.75,82.45h3.32c-.15-.94-.68-1.48-1.58-1.48-.85,0-1.5.49-1.73,1.48M195.02,83.84h-5.32c.15,1.09.8,1.75,1.85,1.75.85,0,1.34-.32,1.68-.99l1.62.7c-.58,1.27-1.79,1.95-3.35,1.95-2.12,0-3.8-1.28-3.8-3.93,0-2.19,1.51-3.96,3.82-3.96s3.55,1.55,3.55,3.81c0,.24,0,.46-.05.66"/>
  <path class="st2" d="M203.84,82.65v4.4h-2.04v-4.16c0-1.05-.53-1.75-1.57-1.75s-1.6.76-1.6,1.77v4.15h-2.05v-7.41h1.9v.83c.51-.7,1.29-1.11,2.43-1.11,1.96,0,2.93,1.32,2.93,3.28"/>
  <path class="st2" d="M205.77,79.64h2.05v7.41h-2.05v-7.41ZM205.44,77.08c0-.75.59-1.34,1.36-1.34s1.36.59,1.36,1.34-.61,1.38-1.36,1.38-1.36-.61-1.36-1.38"/>
  <path class="st2" d="M211.41,82.45h3.32c-.15-.94-.68-1.48-1.58-1.48-.85,0-1.5.49-1.73,1.48M216.68,83.84h-5.32c.16,1.09.8,1.75,1.86,1.75.85,0,1.34-.32,1.68-.99l1.61.7c-.58,1.28-1.79,1.96-3.35,1.96-2.12,0-3.81-1.27-3.81-3.93,0-2.2,1.51-3.96,3.82-3.96s3.55,1.55,3.55,3.8c0,.24,0,.46-.05.66"/>
  <path class="st2" d="M222.59,79.46v2.02c-1.31,0-2.29.8-2.29,2.25v3.33h-2.06v-7.41h2.01v1.12c.47-.8,1.22-1.31,2.34-1.31"/>
  <path class="st2" d="M223.87,79.64h2.05v7.41h-2.05v-7.41ZM223.55,77.08c0-.75.59-1.34,1.36-1.34s1.36.59,1.36,1.34-.61,1.38-1.36,1.38-1.36-.61-1.36-1.38"/>
  <path class="st2" d="M229.51,82.45h3.32c-.15-.94-.68-1.48-1.58-1.48-.85,0-1.5.49-1.73,1.48M234.78,83.84h-5.32c.15,1.09.8,1.75,1.86,1.75.85,0,1.34-.32,1.68-.99l1.61.7c-.58,1.28-1.79,1.96-3.35,1.96-2.12,0-3.81-1.27-3.81-3.93,0-2.2,1.51-3.96,3.82-3.96s3.55,1.55,3.55,3.8c0,.24,0,.46-.05.66"/>
  <path class="st2" d="M75,96.07v10.98h-2.09v-4.57h-5.18v4.57h-2.09v-10.98h2.09v4.37h5.18v-4.37h2.09Z"/>
  <path class="st2" d="M82.62,103.32c0-1.26-.82-2.21-2.02-2.21s-2.02.97-2.02,2.23.8,2.18,2.02,2.18,2.02-.99,2.02-2.19M76.6,103.32c0-2.16,1.62-3.95,4-3.95,2.5,0,4,1.7,4,3.95s-1.63,3.94-4,3.94c-2.53,0-4-1.7-4-3.94"/>
  <path class="st2" d="M85.61,103.3c0-2.45,1.8-3.93,3.93-3.93,1.39,0,2.5.51,3.18,1.8l-1.48.98c-.37-.68-.92-1.02-1.7-1.02-1.09,0-1.95.8-1.95,2.16s.87,2.19,1.95,2.19c.9,0,1.39-.34,1.75-1.04l1.46.95c-.68,1.34-1.94,1.83-3.33,1.83-2.14,0-3.81-1.34-3.81-3.94"/>
  <path class="st2" d="M101.28,102.69v4.37h-2.04v-4.18c0-1-.54-1.73-1.56-1.73s-1.58.76-1.58,1.75v4.16h-2.05v-11.54h2.05v4.05l-.04.78c.5-.61,1.24-.97,2.3-.97,1.95,0,2.92,1.36,2.92,3.32"/>
  <path class="st2" d="M102.59,105.23l1.6-.59c.25.77.7,1.04,1.48,1.04.7,0,1.09-.25,1.09-.73s-.27-.66-1.51-.92c-1.62-.34-2.35-1.05-2.35-2.31,0-1.44,1.16-2.34,2.74-2.34,1.46,0,2.34.53,2.7,1.77l-1.62.59c-.2-.51-.48-.8-1.11-.8-.54,0-.87.27-.87.65,0,.42.27.63,1.53.88,1.7.36,2.33,1.07,2.33,2.41-.02,1.45-1.17,2.38-2.99,2.38-1.66,0-2.67-.63-3.02-2.02"/>
  <path class="st2" d="M109.63,103.3c0-2.45,1.8-3.93,3.93-3.93,1.39,0,2.5.51,3.18,1.8l-1.48.98c-.38-.68-.92-1.02-1.7-1.02-1.09,0-1.96.8-1.96,2.16s.87,2.19,1.96,2.19c.9,0,1.39-.34,1.75-1.04l1.46.95c-.68,1.34-1.94,1.83-3.33,1.83-2.14,0-3.81-1.34-3.81-3.94"/>
  <path class="st2" d="M125.3,102.69v4.37h-2.04v-4.18c0-1-.54-1.73-1.56-1.73s-1.58.76-1.58,1.75v4.16h-2.05v-11.54h2.05v4.05l-.03.78c.49-.61,1.24-.97,2.29-.97,1.96,0,2.93,1.36,2.93,3.32"/>
  <path class="st2" d="M134.21,99.64v7.41h-1.99v-.71c-.51.61-1.26.97-2.26.97-2,0-2.84-1.34-2.84-3.3v-4.37h2.04v4.21c0,1,.46,1.66,1.48,1.66.92,0,1.53-.66,1.53-1.75v-4.13h2.04Z"/>
  <path class="st2" d="M136.25,95.51h2.05v11.54h-2.05v-11.54Z"/>
  <path class="st2" d="M141.89,102.45h3.32c-.15-.94-.68-1.48-1.58-1.48-.85,0-1.5.49-1.73,1.48M147.16,103.84h-5.32c.15,1.09.8,1.75,1.86,1.75.85,0,1.34-.32,1.68-.99l1.62.7c-.58,1.28-1.79,1.96-3.35,1.96-2.12,0-3.81-1.27-3.81-3.93,0-2.2,1.51-3.96,3.82-3.96s3.55,1.55,3.55,3.8c0,.24,0,.46-.05.66"/>
  <path class="st2" d="M154.85,99.64h1.94v1.68h-1.94v5.73h-2.05v-5.73h-1.16v-1.68h1.16v-1.39c0-1.8,1.12-2.88,2.82-2.88,1.04,0,1.82.38,2.33,1.16l-1.32,1.16c-.17-.32-.44-.49-.83-.49-.6,0-.94.39-.94,1.14v1.31Z"/>
  <path class="st2" d="M162.02,97.09c0-.71.58-1.29,1.29-1.29s1.27.58,1.27,1.29-.58,1.27-1.27,1.27-1.29-.58-1.29-1.27M158.4,97.09c.02-.71.59-1.29,1.29-1.29s1.29.58,1.29,1.29-.58,1.27-1.29,1.27-1.28-.58-1.29-1.27M164.96,99.64v7.41h-1.99v-.71c-.51.61-1.26.97-2.26.97-2.01,0-2.84-1.34-2.84-3.3v-4.37h2.04v4.21c0,1,.46,1.66,1.48,1.66.92,0,1.53-.66,1.53-1.75v-4.13h2.04Z"/>
  <path class="st2" d="M171.36,99.46v2.02c-1.31,0-2.29.8-2.29,2.25v3.33h-2.06v-7.41h2.01v1.12c.47-.8,1.22-1.31,2.34-1.31"/>
  <path class="st2" d="M176.12,96.07h2.09v10.98h-2.09v-10.98Z"/>
  <path class="st2" d="M187.68,102.65v4.4h-2.04v-4.16c0-1.05-.53-1.75-1.57-1.75s-1.6.76-1.6,1.77v4.15h-2.05v-7.41h1.9v.83c.51-.7,1.29-1.11,2.43-1.11,1.96,0,2.93,1.32,2.93,3.28"/>
  <path class="st2" d="M192.23,103.72c.71,0,1.19-.56,1.19-1.26s-.46-1.22-1.19-1.22c-.78,0-1.22.53-1.22,1.22,0,.73.46,1.26,1.22,1.26M196.26,101.22h-1.34c.25.41.41.87.41,1.34,0,.82-.39,1.5-1.19,2.12l-.89.75c-.15.12-.29.22-.46.29h.92c1.63,0,2.48.8,2.48,2.14,0,1.55-1.39,2.62-3.77,2.62-1.8,0-2.97-.51-3.59-1.67l1.43-1.09c.41.75,1,1.12,2.14,1.12,1.27,0,1.9-.29,1.9-.88,0-.46-.3-.66-.8-.66h-2.79v-1.24l1.05-.9c-1.63-.15-2.69-1.14-2.69-2.7s1.29-2.82,3.14-2.82h4.05l-.02,1.58Z"/>
  <path class="st2" d="M199.05,102.45h3.32c-.15-.94-.68-1.48-1.58-1.48-.85,0-1.5.49-1.73,1.48M204.32,103.84h-5.32c.16,1.09.8,1.75,1.86,1.75.85,0,1.34-.32,1.68-.99l1.61.7c-.58,1.28-1.79,1.96-3.35,1.96-2.12,0-3.81-1.27-3.81-3.93,0-2.2,1.51-3.96,3.82-3.96s3.55,1.55,3.55,3.8c0,.24,0,.46-.05.66"/>
  <path class="st2" d="M213.14,102.65v4.4h-2.04v-4.16c0-1.05-.53-1.75-1.57-1.75s-1.59.76-1.59,1.77v4.15h-2.06v-7.41h1.9v.83c.51-.7,1.29-1.11,2.43-1.11,1.95,0,2.92,1.32,2.92,3.28"/>
  <path class="st2" d="M215.06,99.64h2.06v7.41h-2.06v-7.41ZM214.74,97.08c0-.75.6-1.34,1.36-1.34s1.36.59,1.36,1.34-.61,1.38-1.36,1.38-1.36-.61-1.36-1.38"/>
  <path class="st2" d="M220.71,102.45h3.32c-.16-.94-.68-1.48-1.58-1.48-.85,0-1.5.49-1.73,1.48M225.98,103.84h-5.32c.15,1.09.8,1.75,1.85,1.75.85,0,1.34-.32,1.68-.99l1.61.7c-.58,1.28-1.78,1.96-3.35,1.96-2.12,0-3.81-1.27-3.81-3.93,0-2.2,1.52-3.96,3.82-3.96s3.55,1.55,3.55,3.8c0,.24,0,.46-.05.66"/>
  <path class="st2" d="M234.53,99.64v7.41h-1.99v-.71c-.51.61-1.26.97-2.26.97-2.01,0-2.84-1.34-2.84-3.3v-4.37h2.04v4.21c0,1,.46,1.66,1.48,1.66.92,0,1.53-.66,1.53-1.75v-4.13h2.04Z"/>
  <path class="st2" d="M240.92,99.46v2.02c-1.31,0-2.29.8-2.29,2.25v3.33h-2.06v-7.41h2.01v1.12c.48-.8,1.22-1.31,2.34-1.31"/>
  <path class="st2" d="M253.02,99.64l-3.13,7.61h-.88l-1.85-4.1-1.94,4.1h-.9l-3.11-7.61h2.2l1.58,4.4,2.04-4.5h.32l1.99,4.5,1.63-4.4h2.06Z"/>
  <path class="st2" d="M254.04,99.64h2.06v7.41h-2.06v-7.41ZM253.72,97.08c0-.75.59-1.34,1.36-1.34s1.36.59,1.36,1.34-.61,1.38-1.36,1.38-1.36-.61-1.36-1.38"/>
  <path class="st2" d="M257.51,105.23l1.6-.59c.25.77.7,1.04,1.48,1.04.7,0,1.09-.25,1.09-.73s-.27-.66-1.51-.92c-1.62-.34-2.35-1.05-2.35-2.31,0-1.44,1.16-2.34,2.74-2.34,1.46,0,2.34.53,2.7,1.77l-1.62.59c-.2-.51-.47-.8-1.1-.8-.55,0-.87.27-.87.65,0,.42.27.63,1.53.88,1.7.36,2.33,1.07,2.33,2.41-.02,1.45-1.17,2.38-2.99,2.38-1.67,0-2.67-.63-3.03-2.02"/>
  <path class="st2" d="M264.43,105.23l1.6-.59c.25.77.7,1.04,1.48,1.04.7,0,1.09-.25,1.09-.73s-.27-.66-1.51-.92c-1.61-.34-2.35-1.05-2.35-2.31,0-1.44,1.16-2.34,2.74-2.34,1.46,0,2.35.53,2.7,1.77l-1.61.59c-.21-.51-.48-.8-1.11-.8-.54,0-.87.27-.87.65,0,.42.27.63,1.53.88,1.7.36,2.33,1.07,2.33,2.41-.02,1.45-1.18,2.38-2.99,2.38-1.67,0-2.67-.63-3.03-2.02"/>
  <path class="st2" d="M273.52,102.45h3.32c-.15-.94-.68-1.48-1.58-1.48-.85,0-1.5.49-1.73,1.48M278.79,103.84h-5.32c.15,1.09.8,1.75,1.86,1.75.85,0,1.34-.32,1.68-.99l1.61.7c-.58,1.28-1.79,1.96-3.35,1.96-2.12,0-3.81-1.27-3.81-3.93,0-2.2,1.51-3.96,3.82-3.96s3.55,1.55,3.55,3.8c0,.24,0,.46-.05.66"/>
  <path class="st2" d="M287.62,102.65v4.4h-2.04v-4.16c0-1.05-.53-1.75-1.57-1.75s-1.59.76-1.59,1.77v4.15h-2.06v-7.41h1.9v.83c.51-.7,1.29-1.11,2.43-1.11,1.95,0,2.92,1.32,2.92,3.28"/>
  <path class="st2" d="M288.93,105.23l1.6-.59c.26.77.7,1.04,1.48,1.04.7,0,1.09-.25,1.09-.73s-.27-.66-1.52-.92c-1.61-.34-2.34-1.05-2.34-2.31,0-1.44,1.16-2.34,2.73-2.34,1.46,0,2.35.53,2.7,1.77l-1.61.59c-.2-.51-.48-.8-1.11-.8-.54,0-.87.27-.87.65,0,.42.27.63,1.53.88,1.7.36,2.33,1.07,2.33,2.41-.02,1.45-1.17,2.38-2.99,2.38-1.67,0-2.67-.63-3.03-2.02"/>
  <path class="st2" d="M295.96,103.3c0-2.45,1.8-3.93,3.93-3.93,1.39,0,2.5.51,3.18,1.8l-1.48.98c-.37-.68-.92-1.02-1.7-1.02-1.09,0-1.95.8-1.95,2.16s.87,2.19,1.95,2.19c.9,0,1.39-.34,1.75-1.04l1.46.95c-.68,1.34-1.94,1.83-3.33,1.83-2.14,0-3.81-1.34-3.81-3.94"/>
  <path class="st2" d="M311.64,102.69v4.37h-2.04v-4.18c0-1-.54-1.73-1.56-1.73s-1.58.76-1.58,1.75v4.16h-2.05v-11.54h2.05v4.05l-.04.78c.49-.61,1.24-.97,2.3-.97,1.95,0,2.92,1.36,2.92,3.32"/>
  <path class="st2" d="M317.37,104.13h-1.36c-.61,0-1,.31-1,.84s.36.78.92.78c.83,0,1.45-.58,1.45-1.62M320.44,106.71c-.29.25-.81.48-1.46.48-.71,0-1.22-.26-1.41-.87-.46.59-1.16.91-2.21.91-1.48,0-2.34-.83-2.34-2.12s.95-2.28,2.94-2.28h1.39v-.44c0-.94-.46-1.31-1.15-1.31s-1.05.32-1.21.9l-1.73-.51c.34-1.24,1.31-2.11,3.09-2.11s2.97.87,2.97,3.07v2.76c0,.2.12.32.31.32.1,0,.18-.04.27-.12l.54,1.31Z"/>
  <path class="st2" d="M324.08,99.64h1.94v1.68h-1.94v5.73h-2.06v-5.73h-1.16v-1.68h1.16v-1.39c0-1.8,1.12-2.88,2.82-2.88,1.04,0,1.82.38,2.33,1.16l-1.32,1.16c-.17-.32-.45-.49-.83-.49-.6,0-.94.39-.94,1.14v1.31Z"/>
  <path class="st2" d="M332.7,105.85c-.37.77-1.07,1.41-2.45,1.41-1.57,0-2.5-.83-2.5-2.41l.02-3.52h-1.46v-.44l3.01-2.82h.45v1.58h2.51l-.02,1.68h-2.45v3.37c0,.46.22.8.73.8.41,0,.61-.16.8-.51l1.36.87Z"/>
  <path class="st2" d="M335.2,102.45h3.31c-.15-.94-.68-1.48-1.58-1.48-.85,0-1.5.49-1.73,1.48M340.47,103.84h-5.32c.15,1.09.8,1.75,1.85,1.75.85,0,1.34-.32,1.68-.99l1.62.7c-.58,1.28-1.79,1.96-3.35,1.96-2.12,0-3.81-1.27-3.81-3.93,0-2.2,1.52-3.96,3.83-3.96s3.55,1.55,3.55,3.8c0,.24,0,.46-.05.66"/>
  <path class="st2" d="M349.29,102.65v4.4h-2.04v-4.16c0-1.05-.53-1.75-1.57-1.75s-1.6.76-1.6,1.77v4.15h-2.05v-7.41h1.9v.83c.51-.7,1.29-1.11,2.43-1.11,1.96,0,2.93,1.32,2.93,3.28"/>
  <path class="st2" d="M20.54,104.79c0,1.3,1.06,2.37,2.36,2.37h26.23c1.3,0,2.37-1.06,2.37-2.37v-26.23c0-1.31-1.06-2.37-2.37-2.37h-26.23c-1.3,0-2.36,1.06-2.36,2.37v26.23Z"/>
  <path class="st0" d="M37.73,86.04h-3.57c-.18,2.07-.35,3.84-.51,5.16-.17,1.32-.32,2.33-.48,3.29-.16.95-.32,1.82-.48,2.6-.14.61-.33,1.09-.59,1.43-.26.35-.64.59-1.14.72-.42.11-.83.02-1.24-.25-.41-.27-.65-.59-.73-.96-.06-.27-.08-.51-.04-.7.02-.19.08-.37.17-.53.08-.17.18-.32.28-.45.1-.13.21-.27.32-.4.04-.04.22-.25.54-.63.32-.38.57-.73.73-1.05.16-.31.52-1,.7-1.86s.55-3.8.54-6.36h-1.5c-.43,0-.84.14-1.23.34-.38.2-.71.54-.87.73-.16.2-.57.86-.67.99-.09.13-.29.42-.44.38-.16-.05-.12-.23-.1-.38.03-.14.32-.89.54-1.44.23-.56.52-1.11.91-1.63.29-.45.7-.76,1.2-1.08.51-.33,1.09-.49,1.77-.49h10.95c.19,0,1.22.08,1.22,1.28s-1.09,1.3-1.22,1.3h-3.11c-.26,2.46-.39,5.01-.39,7.5,0,.45.08.9.23,1.33.16.43.34.77.57.99.29.27.64.44,1.06.52.42.08.85-.05,1.28-.39.24-.19.41-.4.52-.63.11-.24.18-.47.21-.68.03-.22.08-.52.09-.6s0-.34.3-.37.34.25.37.55c.02.29-.13,1.39-.38,2.08-.25.69-.55,1.24-.89,1.65-.34.42-.68.72-1,.91-.38.23-.81.36-1.3.41-.5.05-.96-.07-1.37-.35-.68-.5-1.2-1.27-1.55-2.33-.2-.62-.31-1.44-.33-2.45-.03-1.02,0-2.01.1-2.98l.54-5.15Z"/>
</svg>