<?xml version="1.0" encoding="UTF-8" standalone="no"?>
<svg
   width="181.36743pt"
   height="37.148438pt"
   viewBox="0 0 181.36743 37.148438"
   version="1.1"
   id="svg4"
   sodipodi:docname="unir logo.svg"
   inkscape:version="1.4.2 (ebf0e940, 2025-05-08)"
   xmlns:inkscape="http://www.inkscape.org/namespaces/inkscape"
   xmlns:sodipodi="http://sodipodi.sourceforge.net/DTD/sodipodi-0.dtd"
   xmlns="http://www.w3.org/2000/svg"
   xmlns:svg="http://www.w3.org/2000/svg">
  <sodipodi:namedview
     id="namedview4"
     pagecolor="#ffffff"
     bordercolor="#000000"
     borderopacity="0.25"
     inkscape:showpageshadow="2"
     inkscape:pageopacity="0.0"
     inkscape:pagecheckerboard="0"
     inkscape:deskcolor="#d1d1d1"
     inkscape:document-units="pt"
     inkscape:zoom="3.0430462"
     inkscape:cx="74.267686"
     inkscape:cy="36.969534"
     inkscape:window-width="1712"
     inkscape:window-height="858"
     inkscape:window-x="0"
     inkscape:window-y="44"
     inkscape:window-maximized="0"
     inkscape:current-layer="svg4" />
  <defs
     id="defs2">
    <clipPath
       id="clip-0">
      <path
         clip-rule="nonzero"
         d="M 2.742188,1.835938 H 89.714844 V 39 H 2.742188 Z m 0,0"
         id="path1" />
    </clipPath>
    <clipPath
       id="clip-1">
      <path
         clip-rule="nonzero"
         d="M 5,38 H 69 V 53.023438 H 5 Z m 0,0"
         id="path2" />
    </clipPath>
  </defs>
  <g
     clip-path="url(#clip-0)"
     id="g3"
     transform="translate(-2.742188,-1.835938)">
    <path
       fill-rule="evenodd"
       fill="#161516"
       fill-opacity="1"
       d="m 57.230469,1.835938 c 0.957031,0 1.6875,0.214843 2.164062,0.636718 0.460938,0.417969 0.695313,1.132813 0.695313,2.132813 v 0.566406 c 0,1.003906 -0.230469,1.710937 -0.695313,2.109375 -0.476562,0.410156 -1.203125,0.617188 -2.164062,0.617188 H 56.925781 C 55.945312,7.898438 55.207031,7.695312 54.75,7.285156 54.296875,6.886719 54.0625,6.175781 54.0625,5.171875 V 4.605469 c 0,-0.996094 0.234375,-1.714844 0.6875,-2.132813 0.464844,-0.421875 1.199219,-0.636718 2.175781,-0.636718 z m 18.511719,14.019531 h -3.171876 v 7.035156 h 3.394532 c 2.964844,0 4.089844,-1.933594 4.089844,-3.585937 0,-1.578126 -0.457032,-3.449219 -4.3125,-3.449219 M 42.660156,11.367188 c 4.667969,0 6.242188,3.539062 6.242188,7.011718 V 28.558594 H 51.40625 V 32.25 c 0,0 -2.210938,0.277344 -2.648438,0.324219 -0.441406,0.03516 -0.871093,0.06641 -1.28125,0.08203 -0.375,0.01172 -0.675781,0.01563 -0.933593,0.02344 h -0.09766 c -0.05859,0 -0.109374,-0.0078 -0.167968,-0.0078 -0.105469,-0.0039 -0.207032,-0.0039 -0.3125,-0.01563 -0.394532,-0.01953 -0.742188,-0.06641 -1.042969,-0.144531 -0.02344,-0.0039 -0.04297,-0.0078 -0.06641,-0.01563 -0.242188,-0.0625 -0.710938,-0.238282 -1,-0.542969 -0.472657,-0.503906 -0.699219,-1.332031 -0.699219,-2.46875 V 19.183594 c 0,-0.960938 -0.222656,-1.660156 -0.667969,-2.082032 -0.273437,-0.253906 -0.632812,-0.433593 -1.070312,-0.507812 -2.589844,-0.457031 -4.878907,0.15625 -5.457031,0.300781 v 15.609375 h -5.75 v -16.59375 h -2.847657 v -3.695312 c 0.796875,-0.140625 3.515625,-0.421875 5.164063,-0.421875 1.019531,0 1.789062,0.140625 2.300781,0.421875 0.507813,0.285156 0.855469,0.726562 1.046875,1.320312 2.414062,-2.019531 5.570312,-2.167968 6.785156,-2.167968 m 14.941406,0.425781 c 1.324219,0 2.214844,0.25 2.683594,0.742187 0.472656,0.496094 0.703125,1.3125 0.703125,2.441406 V 32.722656 H 55.242188 V 15.914062 h -2.726563 v -3.699218 c 0.40625,-0.05469 0.851563,-0.101563 1.324219,-0.148438 0,0 2.5625,-0.273437 3.761718,-0.273437 m -37.027343,0 c 1.296875,0 2.175781,0.25 2.644531,0.742187 0.472656,0.496094 0.691406,1.308594 0.691406,2.441406 v 13.582032 h 2.5625 V 32.25 c 0,0 -3.109375,0.429688 -4.957031,0.429688 -0.996094,0 -1.734375,-0.144532 -2.234375,-0.429688 -0.496094,-0.28125 -0.828125,-0.734375 -0.992188,-1.355469 -0.910156,0.679688 -3.242187,2.21875 -6.089843,2.21875 -1.855469,0 -3.863281,-0.53125 -5.363281,-1.964843 -0.570313,-0.550782 -1.53125,-2.074219 -1.53125,-5.058594 V 15.910156 h -2.5625 v -3.734375 c 0.800781,-0.117187 1.679687,-0.203125 2.652343,-0.277343 0.957031,-0.07422 1.730469,-0.105469 2.308594,-0.105469 1.296875,0 2.175781,0.25 2.648437,0.742187 0.46875,0.496094 0.699219,1.308594 0.699219,2.441406 v 10.308594 c 0,0.933594 0.164063,1.695313 0.664063,2.078125 1.25,0.964844 3.851562,0.601563 4.527344,0.53125 0.675781,-0.07031 1.320312,-0.171875 1.921874,-0.320312 V 15.910156 h -2.550781 v -3.734375 c 0.800781,-0.117187 1.683594,-0.203125 2.644531,-0.277343 C 19.222656,11.824219 20,11.792969 20.574219,11.792969 m 52.292969,0.09375 c 4.113281,0.0039 6.195312,0.08203 7.933593,0.691406 4.371094,1.527344 4.988281,4.664063 4.988281,6.804687 0,2.628907 -0.949218,5.417969 -4.527343,6.453126 l 5.257812,9.074218 h 3.195313 v 3.761719 c -1.269532,0.07813 -2.066406,0.148437 -2.910156,0.207031 -0.84375,0.07031 -1.515626,0.105469 -2.019532,0.105469 -1.03125,0 -1.804687,-0.15625 -2.316406,-0.472656 -0.519531,-0.308594 -0.980469,-0.847657 -1.382812,-1.625 L 75.566406,26.769531 h -2.996094 v 5.953125 H 66.824219 V 15.96875 h -2.4375 v -4.082031 z m 0,0"
       id="path3" />
  </g>
  <g
     clip-path="url(#clip-1)"
     id="g4"
     transform="matrix(1.382402,0,0,1.3368233,86.078886,-41.366557)">
    <path
       fill-rule="nonzero"
       fill="#0067ac"
       fill-opacity="1"
       d="M 52.921875,53.023438 H 53.75 V 48.1875 h 1.742188 v -0.734375 h -4.3125 V 48.1875 h 1.742187 z m -6.046875,0 h 3.660156 v -0.730469 h -2.832031 v -1.773438 h 2.21875 v -0.734375 h -2.21875 V 48.1875 h 2.742187 V 47.453125 H 46.875 Z m -5.800781,0 h 0.824219 v -4.28125 l 2.691406,4.28125 h 0.914062 v -5.570313 h -0.828125 v 4.289063 l -2.679687,-4.289063 h -0.921875 z m -4.613281,-4.855469 h 1.332031 c 0.722656,0 1,0.449219 1,0.957031 0,0.5 -0.277344,0.96875 -1,0.96875 h -1.332031 z m 2.339843,2.214843 c 0.496094,-0.246093 0.820313,-0.660156 0.820313,-1.257812 0,-0.996094 -0.683594,-1.671875 -1.804688,-1.671875 h -2.179687 v 5.570313 h 0.824219 v -2.195313 h 1.394531 c 0.476562,0 0.804687,0.347656 0.84375,0.84375 l 0.109375,1.351563 h 0.804687 L 39.5,51.597656 c -0.03125,-0.539062 -0.292969,-0.976562 -0.699219,-1.214844 m -7.949219,2.640626 h 3.660157 v -0.730469 h -2.832031 v -1.773438 h 2.21875 v -0.734375 h -2.21875 V 48.1875 h 2.742187 v -0.734375 h -3.570313 z m -3.402343,0 h 0.824219 V 48.1875 h 1.746093 v -0.734375 h -4.3125 V 48.1875 h 1.742188 z m -7.070313,0 h 0.828125 v -4.28125 l 2.691407,4.28125 H 24.8125 v -5.570313 h -0.828125 v 4.289063 l -2.679687,-4.289063 h -0.925782 z m -2.195312,0 h 0.828125 v -5.570313 h -0.828125 z m -7.875,0 h 0.828125 v -4.28125 l 2.691406,4.28125 h 0.914063 v -5.570313 h -0.828126 v 4.289063 l -2.683593,-4.289063 h -0.921875 z m -4.785156,0 H 9.183594 V 52.292969 H 6.351562 V 50.519531 H 8.574219 V 49.785156 H 6.351562 V 48.1875 H 9.097656 V 47.453125 H 5.523438 Z m 59.714843,-9.433594 v -4.105469 h 0.835938 c 1.03125,0 2.003906,0.582031 2.003906,2.054687 0,1.472657 -0.972656,2.050782 -2.003906,2.050782 z m -0.828125,0.734375 h 1.710938 c 1.550781,0 2.808594,-0.972657 2.808594,-2.785157 0,-1.816406 -1.257813,-2.785156 -2.808594,-2.785156 h -1.710938 z m -4.308594,-2.140625 0.910157,-2.394532 0.90625,2.394532 z m 2.621094,2.140625 h 0.859375 l -2.191406,-5.570313 h -0.761719 l -2.1875,5.570313 h 0.851563 l 0.53125,-1.417969 H 62.1875 Z m -8.375,-0.734375 v -4.105469 h 0.835938 c 1.035156,0 2.003906,0.582031 2.003906,2.054687 0,1.472657 -0.96875,2.050782 -2.003906,2.050782 z m -0.828125,0.734375 h 1.710938 c 1.554687,0 2.808593,-0.972657 2.808593,-2.785157 0,-1.816406 -1.253906,-2.785156 -2.808593,-2.785156 h -1.710938 z m -2.195312,0 h 0.828125 v -5.570313 h -0.828125 z m -3.125,0.0625 c 1.191406,0 2.050781,-0.597657 2.050781,-1.613281 0,-2.125 -3.171875,-1.226563 -3.171875,-2.578126 0,-0.472656 0.402344,-0.773437 1.074219,-0.773437 0.683594,0 1.128906,0.375 1.183594,0.945313 h 0.804687 c -0.07422,-1.015626 -0.851563,-1.675782 -1.988281,-1.675782 -1.121094,0 -1.902344,0.609375 -1.902344,1.503906 0,2.050782 3.160156,1.246094 3.160156,2.585938 0,0.601562 -0.511718,0.875 -1.210937,0.875 -0.789063,0 -1.257813,-0.464844 -1.320313,-1.179688 h -0.804687 c 0.0625,1.152344 0.867187,1.910157 2.125,1.910157 M 41.90625,39.46875 h 1.328125 c 0.726563,0 1.003906,0.445312 1.003906,0.957031 0,0.5 -0.277343,0.96875 -1.003906,0.96875 H 41.90625 Z m 2.339844,2.210938 c 0.492187,-0.246094 0.820312,-0.65625 0.820312,-1.253907 0,-0.996093 -0.683594,-1.671875 -1.804687,-1.671875 h -2.183594 v 5.570313 H 41.90625 V 42.125 h 1.394531 c 0.476563,0 0.800781,0.351562 0.839844,0.84375 l 0.113281,1.355469 h 0.804688 l -0.113282,-1.425781 c -0.03125,-0.539063 -0.292968,-0.976563 -0.699218,-1.21875 m -7.949219,2.644531 h 3.660156 v -0.734375 h -2.835937 v -1.773438 h 2.222656 v -0.730468 h -2.222656 v -1.601563 h 2.746094 v -0.730469 h -3.570313 z m -3.753906,0 h 0.816406 L 35.4375,38.753906 h -0.835938 l -1.652343,4.574219 -1.648438,-4.574219 h -0.835937 z m -3.765625,0 h 0.828125 v -5.570313 h -0.828125 z m -5.800782,0 h 0.828126 v -4.28125 l 2.6875,4.28125 h 0.917968 v -5.570313 h -0.828125 v 4.289063 l -2.683593,-4.289063 h -0.921876 z m -3.410156,0.0625 c 1.28125,0 2.140625,-0.738281 2.140625,-2.011719 v -3.621094 h -0.792969 v 3.644532 c 0,0.792968 -0.542968,1.25 -1.347656,1.25 -0.792968,0 -1.335937,-0.457032 -1.335937,-1.25 V 38.753906 H 17.433594 V 42.375 c 0,1.273438 0.863281,2.011719 2.132812,2.011719 m -8.4375,-2.203125 0.90625,-2.394532 0.90625,2.394532 z m 2.617188,2.140625 h 0.859375 l -2.1875,-5.570313 H 11.65625 l -2.191406,5.570313 h 0.851562 l 0.535156,-1.417969 h 2.363282 z m -8.222656,0 H 9.066406 V 43.589844 H 6.351562 V 38.753906 H 5.523438 Z m 0,0"
       id="path4" />
  </g>
</svg>
