<?xml version="1.0" encoding="UTF-8"?>
<svg id="Layer_2" data-name="Layer 2" xmlns="http://www.w3.org/2000/svg" viewBox="0 0 279.65 279.65">
  <g id="_图层_1" data-name="图层 1">
    <path d="M258.07,143.25c-.98-.09-1.95.04-2.93.38-.51.2-1.16.73-1.94,1.59-.2.23-.44.61-.72,1.13-.33.61-.53,1.01-.61,1.2l-.62,1.33-.63,1.44-.29.61c-.21.42-.42.76-.62,1.01-.39.6-.98.87-1.79.8-.74-.07-1.3-.45-1.66-1.16-.36-.71-.5-1.58-.41-2.62.11-1.25.49-2.49,1.13-3.73.66-1.22,1.39-2.19,2.21-2.89l-4.4-.39c-1.63,1.77-2.57,4.05-2.82,6.83-.19,2.11.23,3.92,1.24,5.41,1.01,1.49,2.51,2.32,4.48,2.5,1.9.17,3.38-.32,4.45-1.47,1-1.07,1.83-2.34,2.49-3.83.22-.5.5-1.15.82-1.95.23-.6.48-1.08.75-1.45.41-.62.91-.91,1.49-.85,1.35.12,1.93,1.22,1.75,3.32-.19,2.11-1.01,4.05-2.46,5.82l4.11.36c1.3-1.77,2.04-3.73,2.23-5.9.19-2.15-.19-3.89-1.14-5.24-.93-1.34-2.3-2.09-4.12-2.25ZM217.7,72.35l10.38-8.24-4.51,15.64,1.96,2.47,16.15-12.83-2.31-2.91-10.33,8.21,4.51-15.54-2.03-2.55-16.15,12.83,2.32,2.93ZM242.16,127.94l8.31-.65.25,3.2-7.89,6.04.34,4.41,8.34-6.39c.5,1.17,1.29,2.05,2.35,2.65,1.06.6,2.28.85,3.65.74,1.8-.14,3.22-.83,4.24-2.06,1.05-1.22,1.5-2.81,1.34-4.78l-.67-8.56-20.56,1.6.3,3.81ZM259.02,126.63l.35,4.55c.07.86-.1,1.55-.5,2.07-.4.52-1,.81-1.78.87-.8.06-1.44-.13-1.91-.58-.47-.45-.74-1.11-.8-1.97l-.35-4.55,4.99-.39ZM241.48,121.81l3.68-.93-2.47-9.79,5.14-1.3,1.93,7.66,3.63-.92-1.93-7.66,3.86-.97,2.4,9.51,3.69-.93-3.33-13.21-19.99,5.04,3.41,13.5ZM217.18,221.78c1.37-1.62,2.31-3.41,3.11-4.44.44-.56,1.1-.98,1.5-1.6.46-.7.97.2,1.4.12,1.12-.22,2.12-1.09,2.08-1.95.03-.55-.4-1.41-1.45-1.92-1.97-.95-3.43,3.48-4.58,3.13-.23-.07-.28-1.57-.27-1.59-.07-1.04-.32-2.35-1-3.41-.56-.89-1.02-.79-1.54-1.12-.42-.27-.73-.67-1.32-.73-1.48-.15-2.15.99-2.11,1.99.05,1.07.91,2.91.34,3.59-.64.76-1.3.72-1.56.22-.37-.72-.45-2.2-.91-2.46-.26-.15-.86.27-1.2.92-.34.65.37,2.21-.42,2.52-.36.14-.83-.62-1.16-.54-.92.22.15,2.68-.4,3.37-.96,1.22-.81,2.01-.23,3.17.42.84,1.4,2.03,1.93,3.01.61,1.12,1.71,1.8,1.62,2.35-.1.6-.37.23-.73.71-.51.69,1.1,4.4,3.21,5.61.4.23,1.5.31,1.81-.3.58-1.12-1.74-1.77-2.2-2.97-.3-.81,1.49-3.04,2.4-4.74.42-.77.86-1.94,1.69-2.92ZM212.71,224.83c-.36.16-.8-.7-1.44-1.3-.92-.87-2.1-1.98-2.01-2.17.15-.33,0-1.69.35-1.63.61.1,1.21,1.7,1.58,2.19.6,1.07.91.38,1.22,1.63.17.71.78,1.07.31,1.28ZM213.35,220.71c-.41.11-.56.34-.94-.16-.84-1.1-.98-2.56-.58-3.11.85-1.17.81.78.89,1.04.16.55,1.04,2.12.64,2.23ZM214.61,212.64c.3-1.02-.04-1.25.24-1.7.35-.57,1.17-.43,1.78.1.57.49.97,1.34.57,1.82-.44.55-1.12-.1-1.42.19-.36.35-.22,1.24.37,1.18.5-.05.84.51.98,1.1.06.24-.17.79-.08,1.01.13.32.75.4.91.7.15.3-.33,1.2-.86,1.15-.83-.07-.68-1.69-1.02-2.03-1.8-1.79-1.6-3.06-1.46-3.51ZM215,219.89s-.24-.25-.27-.26c-.6-.21-.5-1.88-.44-1.94.84-.72,2.14,2.41.71,2.2ZM254.15,175.69l-15.97-5.28-1.2,3.62,15.97,5.28-1.85,5.59,3.61,1.19,4.89-14.78-3.61-1.19-1.84,5.56ZM232.32,185.12l-1.73,3.37,8.31,4.26,6.77,11.52,2-3.89-4.41-7.48,8.63-.76,2.06-4.01-13.4,1.2-8.23-4.22ZM234.93,100.61l22.13-1.1-1.65-3.79-15.78.92,11.47-10.87-1.68-3.87-15.93,15.4,1.43,3.31ZM229.42,89.06l17.74-10.51-1.93-3.26-17.74,10.51,1.93,3.26ZM226.88,227.07c-.55-.77-.31-.86-.6-1.13-.58-.52-1.09-.46-1.08-.73.05-.89,1.14-1.59,1.31-1.81.28-.36,1.09-1.07,1.25-1.78.29-1.38-1.77-1.56-2.29-1.26-.45.26-1.75,2.84-2.71,3.94-.36.42-.68.34-.91.13-.8-.73,1.65-3.06.8-3.83-1.25-1.13-2.53-.7-3.53.73,0,0-1.16,1.83-2.36,3.32-1.01,1.26-1.52,3.65-.4,4.08,1.19.47,2.14-.63,2.38-1.92.08-.44-.06-.49-.14-.87-.1-.46.26-.66.25-.92-.02-.78-.09-1.23.51-1.17.22.02.73.93.85,1.19.21.48.43,1.33.2,1.91-.76,1.96-1.88,3.88-1.06,4.92.19.24,1.36.34,1.8.12.5-.26.39-.74.71-1.77.13-.4.94-.88,1.07-1.23.23-.62.24-1.71.58-1.63.67.15,1.61,1.49,1.8,2.97.12.89,0,1.91-.46,2.25-.17.13-.95,1.19-.33,1.92.71.84,1.52.71,1.94.48,1.86-1,1.38-3.05,1.25-5.17-.07-1.12-.49-2.28-.82-2.75ZM240.18,162.98l20.18,4.24.78-3.71-20.18-4.24-.78,3.71ZM96.68,232.36c-.3-.54.73-1.84-.79-1.85-.21,0-1.09-.12-1.35.03-.26.15-.72,1.17-.83,1.12-.74-.29-1.92-.85-3.62-1.28-1.61-.4-2.51-1.56-3.8-1.16-.54.16-.98.21-1.46.54-.83.57-.63,1.82.31,2.41.41.25,3.2-.18,4.29.06,1.26.28,2.55.63,2.67,1.17.05.26-.26.7-.77,1.07-1.86,1.32-2.83.68-3.83.69-.22,0-.15-.43.21-.63.48-.26,1.4-.35,1.44-.53.04-.23-1.43-.74-2.79-.83-.53-.03-.95.07-1.39.16-1.32.27-3.27,2.43-4.03,4.74-.63,1.92-1.5,3.38-.51,4.22,1.18,1,1.85-.29,2.69-2.44.48-1.23,1.61-1.89,2.23-2.23.25-.14,1.13-1.37,2.74-.31.07.05-.05.47-.53.45-.62-.02-1.44.33-1.59.7-.19.44.04,1.02-.03,1.63-.08.61-1.26.47-.44,1.69.06.1-.71.38-1,.2-.13-.09-.06-.35-.2-.41-.44-.18-1.17.85-1.28.95-.65.59-1.63.81-2.66,1.08-1.75.45-4.12,1.28-5.46,1.86-1.59.7-1.33,1.87.38,2.67.76.36,2.9-.57,3.96-.96.75-.28,2.33-.83,3.01-.64.73.2-2.38,3.82-2.32,4.38.11.97,1.51,2.06,2.16.87.3-.54.57-1.27.97-2.1.32-.64.88-1.31,1.21-1.88.47-.81.92-1.6,1.15-1.52.52.18.42,1.04.88,2.23,1.08,2.79,4.09,5.84,6.64,7.08,1.53.75,2.73.07,2.09-1.93-.15-.45-.26-.77-.35-.99-.31-.75-.31.06-1.77-1.02-.41-.31-2.1-2.08-3.01-2.86-.44-.38-1.12-1.37-1.53-2.32-.27-.61-1.02-.93.27-1.55.78-.38.24-1.28.9-1.4.56-.1,1.63-.06,2.35-.22.87-.19,1.98-.83,3.34-1.32,1.27-.45,3.07-2.93,2.36-3.93-.48-.69-1.47-1.01-2.69-1.76-.62-.38-1.98.38-1.3-.57.46-.66.53-.97,1.25-1,1.12-.04,4.41,1.76,4.84-.14.35-1.53-2.35-1.04-2.99-2.21ZM94.02,239.24c-.14,1.15-1.81,1.95-2.99,2.23-.44.1-.96.49-1.23.56-.71.17-.63-.18.04-.87.38-.39,1.22-1.24.68-1.85-.52-.6.37-2.1.86-1.66.9.82,2.67,1.32,2.63,1.6ZM133.16,247.83c-1.34-.61-3.57.68-4.15-.1-.24-.32.33-.96.42-1.42.14-.74-.28-1.4-.87-1.55-.38-.1-.37-.59.08-.63.65-.05.96.02,1.62.08,1.24.12,1.96.05,2.73-1.04.23-.34.13-1.08-.38-1.45-.64-.48-2.69-.55-4.85-.52-2.32.04-4.76-.03-5.26.8-.24.41-.73.88-.99,1.4-.39.76-.61,1.45-1.04,1.75-1.37.95-1.78,2.91-2.04,2.24-.18-.45-.85-.42-1.26-.52-.19-.05-.16-.56.05-.76.21-.19.24-.01.55-.14.84-.34,1.87-1.23,2.05-1.87.43-1.6,1.08-2.81.37-3.73-.61-.8-1.67-1.15-2.76-1.22-.57-.04-1.51.04-2.11.3-1.03.43-1.39,1.71-2.01,3.25-.26.63-.85,1.42-1.12,2.4-.35,1.25-.78,3-.98,3.9-.45,2.03-.54,3.45-.08,4.89.25.75,0,1.81,1.06,1.87.88.05.47-3.21.75-4.7.11-.61.26-1.19.74-1.45.15-.08.29-.37.56-.23.27.14-.19,1.02.25,1.02.77.01,1.18-.93,1.79-.58.48.28-.23,1.1-.84,1.62-1.21,1.02-1.77,2.93-.11,3.39.7.2,1.54-.77,1.9-1.74.28-.76.2-1.25.48-1.84.22-.47.64-.57.96-1.13.31-.54.54-1.17,1-1.81.53-.74,1.29-1.49,1.79-2.08.56-.67,1.05-1.32,1.67-1.7.62-.38,1.53-.63,2.07-.25.39.27-1.23,1.2-2.21,2.11-1.37,1.26-2.16,2.88-2.48,4.97-.12.84-.58,3.16-.03,3.66.4.36.75.51,1.28.45,1.3-.13.83-2.57,1.59-3.6.16-.22.31-.64.69-.43.38.21-.66,5.08-1.32,7.94-.45,1.96-.53,3.59-.66,5.14-.06.65-.08,1.26.87,1.45,1.34.26,1.86-2.62,2.18-4.39.26-1.48.76-3.68,1.4-4.43.71-.83,2.38-1.37,3.41-1.6,1.05-.23,1.93-1.47,2.53-1.96.81-.66,1.53-2.89,1.7-3.7.23-1.1-.11-1.66-.99-2.05ZM116.31,246.6c-1.38.39-1.73,1.44-1.95,2.01-.1.27-.44.18-.49-.09-.11-.63-.09-1.74.44-2.56.71-1.11.99-2.01,1.55-2.72.71-.9,1.64-1.27,1.85-1.03.4.46-.55.99-.59,1.44-.11,1.29-.33,1.29-.69,1.89-.25.43.58.86-.12,1.06ZM125.12,247.7c-.54.85-1.24,1.2-1.61.79-.27-.3,1.12-1.56,1.74-2.36.78-1.01.94-.84,1.21-.61.3.25-.6,1.03-1.34,2.18ZM129.85,252.93c-.78.5-1.22.72-1.73.64-.27-.04-.8-.67-.65-.96.37-.75.13-1.05.31-1.47.3-.68,1.3-.43,1.92-.43.84,0,1.36-.31,1.43.29,0,0-.25,1.26-1.28,1.92ZM170.15,253.27c-.9.02-1,1.13-1.09,2.03l-.08.68c-.26,1.33-2.57,2.7-4.6,3.32l-.55.18c-.98.32-1.75.58-2.87.03-.49-.24-.89-1.23-.88-2.21,0-.78.26-1.35.7-1.56.19-.09.24-.03.32.08.19.26.44.42,1.47-.22.09-.05.14-.29.21-.73.06-.37.13-.78.25-1.04l.4-.74.27-.52c.19-.84-.04-1.65-.64-2.23-.67-.64-1.67-.86-2.69-.58-1.5.42-2.91,1.48-4.16,2.41-1.28.95-2.38,1.78-3.31,1.79-.33,0-.58-.17-.79-.31-.2-.14-.39-.28-.61-.21-.31.09-.62.57-1.05,1.6-.09.21-.12.6-.16,1.05-.06.73-.14,1.64-.49,1.89-.1.07-.21.08-.34.05-.14-.04-.24-.12-.29-.25-.25-.56.35-1.76.36-1.77,0-.01.17-1.05.17-1.05.03-.32.06-.62.15-.87.55-1.44,1.85-1.73,3.23-2.05.71-.17,1.76-1.04,1.93-1.29.34-.48-.16-1-.56-1.41l-.07-.08c-.67-.7-1.32-.87-2.01-.52-.57.29-1.28,1.03-2.09,1.89-.62.65-1.26,1.32-1.92,1.88l-.23.19c-1.37,1.12-2.93,2.49-2.86,3.19.01.14.09.24.22.31.56.28,1.11-.32,1.59-.85.37-.41.72-.79.95-.62.08.06.13.12.14.2.02.16-.07.37-.29.66l-.1.13c-.27.34-.52.66-.64,1.62-.18,1.35.1,1.65.55,2.15l.46.56c.2.28.22.74.23,1.03l.05.33c.31.36.55.33.73.31.14-.02.23-.03.32.13.22.37.1,1.28-.08,1.39-.01,0-.05.03-.11-.07-.16-.26-.65-.18-.83-.15-.5.07-.66.48-.79.85l-.11.26c-.62,1.3.05,1.96.8,2.43.44.29.82.53,1.63.12.69-.35.81-1.5.93-2.73l.04-.4c.12-1.14.32-2.11.54-2.67.27-.67.21-1.2.17-1.62v-.6c.14-.75.56-1.04,1.09-1.41.28-.19.6-.41.91-.72l.72-.74c.87-.91,1.56-1.63,2.78-2.29.4-.22.81-.56,1.21-.89.54-.45,1.11-.92,1.67-1.1l.12-.04c.5-.17,1.43-.48,1.75-.15.1.1.4.92.23,1.31-.06.14-.17.2-.34.2-.28,0-.32-.17-.35-.43-.02-.18-.04-.36-.2-.45-.28-.17-1.17-.02-1.18-.02-.34.06-.6.45-.9.89-.22.32-.46.69-.77.97-1.14,1.04-1.38,2.95-1.04,4.28.4,1.54,1.21,2.12,1.7,2.46l.29.23c1.15,1.22,2.75,2.17,6.6.86,2.53-.86,4.5-2.32,5.38-4.01.41-.78.35-2.78-.27-3.78-.25-.4-.56-.6-.93-.59ZM195.46,236.7c.67-1.16.79-2.5-.47-2.71-.47-.08-.67-.17-1.46.28-1.36.76-.83,1.38-1.73,1.92-.39.24-.77-1.49-.08-2.08,1.45-1.22,2.88-3.06,2.39-4.66-.4-1.31-1.11-2.4-2.85-.85-.9.81-2.06,1.99-2.72,3.89-.85,2.45-1.36,5.18-2.55,6.82-.77,1.06-.89.42-1.8,1.2-2.53,2.18-3.92,4.19-2.7,5.5.85.91,2.05.66,2.7.47.8-.24,1.28-.89,1.41-.45.13.45-.55,2.34-.89,3.86-.13.61-.75,2-1.61,3.09-1.44,1.81-1.86,2.42-1.44,2.99.51.7,1.45.62,2.23.09.88-.59,3.93-5.14,4.9-10.19.17-.9.8-1.94,1.06-2.67.35-.99.13-1.64.69-2.32,1.68-2.03,4.07-2.72,4.92-4.19ZM139.83,45.17c-52.27.09-94.56,42.38-94.65,94.65.1,52.28,42.38,94.55,94.65,94.65,52.27-.1,94.55-42.37,94.65-94.65-.1-52.27-42.38-94.56-94.65-94.65ZM139.83,231.25c-50.49-.09-91.33-40.93-91.43-91.42.09-50.49,40.94-91.33,91.43-91.42,50.49.09,91.33,40.93,91.42,91.42-.09,50.5-40.93,91.33-91.42,91.42ZM66.91,209.48s-.77-.6-1.15-.66c-.45-.12-.5.16-.9.2-.42-.05-.7.27-.84.61-.37.87.54,1.93,2.05,2.65,1.83.86,2.29-1.8.84-2.8ZM68.88,213.88c-.9.22-.06,1.16.13,1.34.2.18.42.14.6.27.69.5,1.15,1.37,1.61,1.43,1.78.24,2.22-1.08,1.07-2.22-.71-.7-2.02-1.16-3.41-.81ZM71.06,217.67c-1.3-.68-2.26-1.2-2.53-1.99-.02-.06-.27-.88-.55-1.01-.28-.12-.37.35-.86-.03-.48-.38-2.13-2.1-3.55-2.63-.6-.22-1.31-1.45-2.05-1.53-.71-.08-2.55.51-1.84,2.06.31.67,2.25.49,3.7,1.65.71.57,1.48.21,1.72,1.21.1.4-.11.35-.32.37-.12.01-2.73-1.21-5.1-1.69-1.65-.34-3.12-.6-3.67.91-.12.32.21,1.57-.75,1.26-.91-.29-2.4-.47-2.97-.01-.21.17-.89.89-1.05,1.1-.71.97.57,1.81.21,2.13-.16.14-1.09-.5-1.94-.67-.57-.11-1.2.5-1.43.81-.36.48.01.6.9,1.42,1.41,1.31,2.02,1.54,4.19,2.55.44.21,1.28.74,1.57,1.21.33.52-.36.97-1.02.64-1.32-.66-6.97-3.39-6.22-.23.18.77,1.32,1.78,1.73,1.97.46.22,1.85.39,1.94,1.09.1.79-2.05,1.49-1.65,2.8.26.85.74,1.49,1.3,1.21.89-.45,2.49-2.42,2.97-2.38,1.41.1,3.51,3.42,4.97,2.6,1.69-.96,1.48-2.24.95-2.59-.95-.64-2.58-1.43-3.31-2.17-.29-.3.27-.71.73-.98,1.11-.65,2.77,1.94,4.41,3.32,1.23,1.03.96,1.15,1.7,1.88,1.04,1.03,2.71.72,3.22-1.08.19-.68-3.08-3.15-4.33-3.98-1.58-1.06-2.49-1.31-2.52-2.13-.03-.9,1.07-.27,1.1-.25,1.4,1.27,7.88,1.91,7.56-2.21-.11-1.41,1.06-1.55-.27-2.56-.12-.09-1.61-.89-1.7-1.3-.09-.39.54-1.08,1.23-.61.94.64,2.32,1.94,2.52,2.04,1.94.96,3.35-.99,1.04-2.19ZM63.22,216.74c.26.44-.2.76-1.2.66-1.46-.15-3.58-.37-3.37-1.23.21-.89,4.17-.09,4.57.57ZM53.12,218.57c-.16-1.11,2.06-.87,2.4-.54.64.62-2.23,1.73-2.4.54ZM59.48,220.65c-1.08.81-1.49,1.87-1.89,1.83-.6-.06-1.09-.57-1.63-.8-.97-.41-1.86-.64-1.96-.87-.21-.5.46-.1.94-.46,1.69-1.27,2.42-2.05,3.15-1.91.75.15,1.08.47,1.53.54.89.14,1.46-.05,1.42.13-.04.15-.7.91-1.55,1.54ZM64.93,222.93c.3.21-.1.48-.67.65-.43.13-3.15.38-3.24-.36-.07-.52,1.11-1.96,2.42-2.44.4-.29.65-1.05,1.03-1.21.62-.29,1.64.61,1.51.8-.12.19-1.05.44-1.24,1.03-.2.61-.33,1.16.19,1.53ZM201.02,241.47c-1.19.69-2.64.84-3.52,1.02-2.68.56-4.8-.41-5.48-.26-.68.15-.39,1.83.13,2.65,1.47,2.32,6.06,1.61,8.79.84,1.05-.3,2.19-1.32,3.1-1.88.97-.59,1.93-.75,1.88-1.41-.05-.66.28-.8-.1-1.32-.87-1.2-2.75-.82-4.79.36ZM145.39,119.45l27.6,20.7v-8.72l-27.6-20.69v8.72ZM139.83,53.78c-47.52.08-85.96,38.52-86.05,86.04.09,47.52,38.53,85.96,86.05,86.04,47.52-.09,85.95-38.52,86.04-86.04-.09-47.52-38.52-85.96-86.04-86.04ZM194.16,133.89c1.35,1.01,2.15,2.6,2.15,4.29,0,4.42-5.05,6.94-8.58,4.29l-3.6-2.7v8.72l10.03,7.52c1.35,1.01,2.15,2.6,2.15,4.29,0,4.42-5.05,6.94-8.58,4.29l-3.6-2.7v8.72l10.03,7.52c1.35,1.01,2.15,2.6,2.15,4.29,0,4.42-5.05,6.94-8.58,4.29l-42.33-31.75v8.71l43.39,32.54c1.35,1.01,2.14,2.6,2.14,4.29,0,4.42-5.05,6.94-8.58,4.29l-36.95-27.72v29.59c0,3.07-2.49,5.57-5.57,5.57s-5.57-2.49-5.57-5.57v-29.59l-36.95,27.72c-3.54,2.65-8.58.13-8.58-4.29,0-1.69.79-3.28,2.14-4.29l43.39-32.54v-8.71l-42.33,31.75c-3.54,2.65-8.58.13-8.58-4.29,0-1.69.8-3.28,2.15-4.29l10.04-7.52v-8.72l-3.6,2.7c-3.54,2.65-8.58.13-8.58-4.29,0-1.69.79-3.28,2.14-4.29l10.04-7.53v-8.71l-3.6,2.7c-3.54,2.65-8.58.13-8.58-4.29,0-1.69.8-3.28,2.15-4.29l48.77-36.57v-8.71l-42.33,31.75c-3.54,2.65-8.58.13-8.58-4.29,0-1.69.79-3.28,2.14-4.29l10.04-7.53v-12.5c0-3.07,2.49-5.57,5.57-5.57s5.57,2.49,5.57,5.57v4.14l27.6-20.69v-10.5c0-3.07,2.49-5.57,5.57-5.57s5.57,2.49,5.57,5.57v10.5l27.6,20.7v-4.14c0-3.08,2.49-5.57,5.57-5.57s5.57,2.49,5.57,5.57v12.49l10.03,7.52c1.35,1.01,2.15,2.6,2.15,4.29,0,4.42-5.05,6.94-8.58,4.29l-42.33-31.75v8.71l48.77,36.57ZM145.39,141.56l27.6,20.69v-8.71l-27.6-20.7v8.72ZM106.66,162.26l27.6-20.7v-8.72l-27.6,20.71v8.71ZM106.66,140.15l27.6-20.7v-8.72l-27.6,20.7v8.72ZM151.99,243.87c.31-.71.78-1.14,1.19-1.53.25-.24.46-.44.6-.67.24-.4.23-.83-.03-1.18-.29-.38-.8-.56-1.25-.44-.83.23-2.03,1.73-2.6,2.62-.34.54-.57,1.11-.79,1.66-.24.61-.48,1.18-.83,1.69-.38.54-.12,1.33.31,1.86.39.49,1.09.96,1.77.69.15-.06.22-.22.3-.41.14-.32.32-.73.96-.84.3-.05.52.16.78.39.31.29.65.61,1.22.47.57-.14.99-.89,1.36-1.54l.28-.48c.49-.77,2.83-3.53,3.72-3.86.43-.16.69-.19.84-.11.16.1.2.36.25.72l.04.31c.05.32.28.46.49.59.18.11.34.21.33.4,0,.44-.35.7-.73.97-.36.27-.74.55-.78,1.02-.05.58.11,1.08.43,1.34.24.2.57.25.94.14.52-.15.75-.71,1-1.31.16-.37.32-.76.55-1.08.35-.47.71-.57,1.09-.68.33-.09.66-.19.98-.54.28-.32.4-.7.33-1.06-.09-.44-.45-.83-1-1.09-.77-.36-1.14.12-1.38.44-.09.11-.17.22-.23.23l-.06-.04c-.44-.44-.2-.94.05-1.47.12-.26.24-.52.29-.78.07-.36,0-.63-.2-.79-.29-.24-.82-.22-1.59.07-.33.12-.59.41-.87.73-.27.3-.55.61-.91.79-.97.49-1.63,1.06-2.15,1.53-.38.34-.68.61-.97.71-.21.07-.59.11-1,.14-.72.06-1.54.13-1.83.45l-.46.68c-.2.34-.4.69-.58.72l-.12-.03c-.29-.21-.05-.73.18-1.24l.09-.2ZM23.37,161.27c.97-.12,1.9-.45,2.79-.98.46-.31.98-.96,1.57-1.95.15-.27.3-.69.47-1.26.2-.67.31-1.1.35-1.3l.33-1.43.32-1.53.16-.66c.12-.46.25-.83.4-1.12.25-.67.78-1.06,1.58-1.16.74-.09,1.36.17,1.86.79.5.62.81,1.44.94,2.48.15,1.25.04,2.54-.33,3.89-.39,1.33-.91,2.43-1.56,3.29l4.39-.53c1.23-2.07,1.68-4.5,1.34-7.27-.26-2.11-1.04-3.78-2.34-5.03-1.3-1.25-2.93-1.75-4.9-1.51-1.89.23-3.24,1.02-4.04,2.36-.76,1.25-1.31,2.67-1.65,4.26-.11.53-.25,1.22-.4,2.08-.1.64-.25,1.16-.43,1.57-.27.69-.7,1.07-1.28,1.14-1.35.16-2.15-.8-2.4-2.88-.26-2.11.14-4.18,1.2-6.21l-4.09.5c-.9,2-1.22,4.08-.96,6.23.26,2.14.99,3.77,2.2,4.89,1.19,1.12,2.68,1.57,4.5,1.35ZM28.07,119.35c3.01.76,5.74.46,8.18-.89,2.41-1.36,3.97-3.44,4.67-6.23.49-1.95.44-3.78-.16-5.48l-4.14-1.05c.83,1.61.99,3.41.5,5.38-.45,1.78-1.43,3.09-2.94,3.93-1.53.85-3.25,1.04-5.15.56-1.9-.48-3.32-1.44-4.26-2.88-.94-1.48-1.2-3.07-.77-4.76.45-1.76,1.36-3.21,2.74-4.34l-4.14-1.05c-1.2,1.21-2.02,2.69-2.46,4.44-.71,2.81-.33,5.39,1.15,7.73,1.48,2.32,3.74,3.87,6.79,4.64ZM19.96,138.67l16.82.45.1-3.82-16.82-.45.16-5.88-3.8-.1-.41,15.56,3.8.1.15-5.86ZM44.19,101.21l-8.24-3.73,3.46-7.63,8.24,3.73,1.56-3.45-18.79-8.5-1.56,3.45,7.03,3.18-3.46,7.63-7.03-3.18-1.58,3.48,18.79,8.51,1.58-3.48ZM139.83,279.65c77.22-.15,139.68-62.6,139.82-139.83C279.5,62.61,217.05.14,139.83,0,62.61.14.14,62.61,0,139.82c.14,77.23,62.61,139.68,139.83,139.83ZM139.83,5.38c74.25.13,134.31,60.2,134.44,134.44-.14,74.26-60.19,134.31-134.44,134.45-74.24-.14-134.31-60.19-134.45-134.45C5.51,65.57,65.58,5.51,139.83,5.38ZM42.78,175.02l-5.1-.38-2.26-7.52,4.05-3.12-1.17-3.88-17.58,13.58,1.05,3.5,22.15,1.65-1.15-3.83ZM26.34,173.95l6.08-4.65,1.56,5.21-7.64-.56ZM53.51,83.53l-17.46-10.97-2.02,3.21,17.46,10.97,2.02-3.21ZM44.37,179.41l-3.39,1.71,4.54,9.02-4.74,2.39-3.55-7.06-3.34,1.68,3.55,7.06-3.55,1.79-4.41-8.76-3.39,1.71,6.13,12.17,18.42-9.27-6.26-12.43ZM91.82,48.56l-5.66-11.99,14.2,7.96,2.85-1.35-8.81-18.65-3.36,1.59,5.64,11.93-14.1-7.93-2.95,1.39,8.81,18.65,3.38-1.6ZM130.1,37.22l-.47-8.32,3.2-.18,5.87,8.02,4.42-.25-6.21-8.47c1.18-.48,2.08-1.24,2.7-2.29.62-1.05.9-2.26.82-3.63-.1-1.8-.76-3.23-1.97-4.29-1.19-1.07-2.78-1.56-4.76-1.45l-8.58.48,1.15,20.59,3.81-.21ZM133.71,20.08c.86-.05,1.55.13,2.06.55.51.41.79,1.01.83,1.8.05.8-.16,1.44-.63,1.89-.46.46-1.12.71-1.99.76l-4.55.26-.28-5,4.55-.26ZM167.37,40.41l3.26-3.93,7.43,2.52.2,5.11,3.84,1.3-.88-22.19-3.47-1.17-14.19,17.09,3.79,1.28ZM177.77,27.64l.26,7.65-5.15-1.74,4.88-5.9ZM150.06,23.06l3.44,7.14,2.1.28,5.11-6.01-1.86,13.99,3.73.5,2.72-20.44-3.73-.5-6.46,7.76-4.21-9.18-3.76-.5-2.72,20.44,3.79.5,1.86-13.99ZM57.96,77.12l-10.16-8.52,16.22,1.28,2.03-2.42-15.8-13.25-2.38,2.84,10.11,8.48-16.13-1.31-2.09,2.5,15.8,13.25,2.4-2.86ZM196.51,49.05l-8.3-4.44,7.93-14.83-3.37-1.8-9.73,18.18,11.67,6.24,1.79-3.35ZM69.8,64.06l-1.63-4.84,6.05-5,4.45,2.52,3.13-2.58-19.34-10.93-2.82,2.33,7.07,21.06,3.09-2.55ZM71.05,52.29l-4.19,3.46-2.45-7.26,6.64,3.8ZM107.34,38.97c2.27,1.58,4.75,2.03,7.44,1.35,2.68-.67,4.64-2.24,5.9-4.7,1.27-2.48,1.55-5.17.83-8.04-.72-2.9-2.23-5.13-4.52-6.7-2.27-1.58-4.74-2.03-7.42-1.36-2.69.67-4.67,2.24-5.93,4.7-1.27,2.42-1.54,5.1-.8,8.04.72,2.9,2.22,5.13,4.5,6.71ZM107.02,26.24c.75-1.5,1.93-2.46,3.52-2.86,1.58-.4,3.05-.11,4.43.86,1.37.97,2.3,2.4,2.77,4.29.47,1.89.33,3.58-.42,5.09-.75,1.5-1.92,2.45-3.5,2.85-1.59.4-3.08.11-4.45-.86-1.35-.96-2.27-2.39-2.74-4.29-.48-1.9-.35-3.6.4-5.08ZM212.86,64.28c2.18-.22,4.21-1.41,6.09-3.57l7.84-9.03-2.88-2.5-7.94,9.14c-1.04,1.2-2.13,1.88-3.25,2.03-1.13.15-2.17-.19-3.13-1.02-.95-.82-1.43-1.8-1.43-2.94,0-1.14.51-2.31,1.55-3.51l7.94-9.14-2.86-2.48-7.84,9.03c-1.88,2.17-2.78,4.34-2.7,6.51.08,2.17.99,4.02,2.74,5.54,1.76,1.53,3.73,2.18,5.89,1.95Z" style="fill: #a32035; stroke-width: 0px;"/>
  </g>
</svg>