<svg height="52.916664mm" viewBox="0 0 52.916664 52.916664" width="52.916664mm" xmlns="http://www.w3.org/2000/svg"><g transform="translate(-122.21374 -147.68073)"><path d="m123.64778 149.11609h50.04858v50.04593h-50.04858z" fill="#9b2423" fill-rule="evenodd" stroke-width=".264583"/><g fill="#fff"><path d="m162.71015 160.39581c-.45861 1.73137-.59718 3.80166-.26284 5.57549.67383 2.52626 2.20212 4.4842 4.11214 6.10873.33705.30329.71797.5116 1.09657.70722v-5.25009c-1.13528-.18005-1.98626-1.19657-2.59895-2.09299-1.03219-1.58946-1.69076-3.32734-2.3469-5.04836zm-6.54651 2.28766c-.26127.00076-.53948.01-.81773.0193 1.50889 1.15491 1.97945 2.89195 2.47622 4.53064.51795 1.801 1.16324 3.52785 2.1828 5.01733 1.91215 2.53753 4.81007 3.65711 7.65108 2.84158-2.51335-1.04576-4.06043-3.49414-5.21766-5.59806-1.04905-1.65834-1.34552-3.75423-2.74236-5.11655-1.02225-.9695-2.18429-1.69666-3.53235-1.6942zm.40674 7.59182c-.17646 3.24187.91806 5.93803 2.88433 8.18996 2.08174 2.43178 5.40779 3.66974 8.20125 4.56592v-5.2501c-1.78707-.035-3.41441-.62883-4.78786-1.45582-2.71484-1.64688-4.64287-3.53669-6.29776-6.04996zm-3.76228 10.08824c2.53359.60337 3.71768 2.23371 5.13112 3.93393 1.13063 1.44358 2.63034 2.302 4.28283 2.59378 2.05811.34639 4.01717.0258 5.43396-1.49109-3.29569-.58562-5.23009-2.61219-7.47804-4.462-2.63147-1.76157-4.67516-2.60928-7.36987-.57462zm3.75146 5.22333c.29865 1.66244.82171 3.22451 1.76666 4.49302 2.59963 3.06437 5.97594 3.00787 9.32979 3.06777v-5.2501c-2.12844.49908-4.7365.73648-6.70875.25486-1.79864-.36918-3.15321-1.43561-4.3877-2.56556z"/><path d="m131.6018 155.52098v10.17612h2.70733v-1.47484h-1.23352v-7.22747h7.22746v7.22747h-1.60196v1.47484h3.07681v-10.17612zm5.08754 2.22157c-1.58333-.00014-2.86663 1.28368-2.86649 2.86701.00032 1.58301 1.28348 2.86611 2.86649 2.86597 1.58301.00014 2.8667-1.28296 2.86701-2.86597.00014-1.58333-1.28368-2.86715-2.86701-2.86701zm-.75861 6.27042c-.64433 0-1.16323.54775-1.16323 1.22835v16.6951c-.18903.14404-.45188.30051-.71779.28991-.47785-.019-.43667-.71779-.43667-.71779v-5.64048c.0176-.96781-1.2198-1.76095-2.11976-1.8526-1.21394.0139-1.34049.98237-1.34049.98237v8.88628l3.96152 7.73906v1.27021h13.20642v-2.82619c.95425-.43213 1.50706-1.15639 1.52549-2.33371v-12.14189c.0109-.43512-.50451-.98434-1.2237-1.00769-1.11983.0323-1.55725 1.50332-1.73839 1.52342-.48172-.0242.68898-3.1578-1.89239-3.11867-1.36603.0226-1.14958 1.39414-1.64435 1.38751-.30967.004-.0382-2.81953-1.85828-2.8267-1.09886-.0132-2.14664 1.48259-2.14664 1.48259l-.21187-.19223v-7.5985c0-.6806-.51839-1.22835-1.16272-1.22835z"/></g></g></svg>