<svg height="200" viewBox="0 0 52.916666 52.916666" width="200" xmlns="http://www.w3.org/2000/svg"><g transform="translate(-32.41146 117.17232)"><path d="m32.411457-117.17232h52.91666v52.916664h-52.91666z" fill="#fff"/><path d="m33.461524-115.98225h50.893154v50.823152h-50.893154z" fill="#9b2423"/><g fill="#fff"><path d="m80.085095-75.325511v5.769727c-1.931628-.03377-3.761629-.0774-5.231986-.3376-1.470356-.260243-2.47939-.747003-3.248219-1.281954-.768819-.53495-1.297363-1.11809-1.773067-1.751856-.475713-.633753-.898546-1.318107-1.21329-2.14947-.314744-.831359-.521368-1.80974-.727992-2.788079.773616.708455 1.547273 1.416954 2.371351 1.896472.824079.479531 1.698588.730135 2.450587.922908.751989.192782 1.381446.327718 2.039737.383141.658301.05538 1.345406.03136 2.097405-.06021.751998-.09157 1.568841-.250604 2.126228-.36386.557388-.113254.811333-.171697 1.109246-.239167z"/><path d="m72.859017-82.026285c.446869.465068 1.162818 1.207264 1.934046 1.768722.771228.561461 1.597675.942188 2.479411 1.284369.881746.342181 1.875636.599931 2.812621.903548-.413229.443399-.883452.932637-1.49368 1.233851-.610239.301212-1.417466.460254-2.21271.515684-.795235.05538-1.578446.007-2.265571-.110847-.687125-.118069-1.278133-.306027-1.787479-.515663-.509344-.209646-.936974-.440971-1.417495-.826526-.480511-.385551-1.013862-.925321-1.501589-1.508478-.487716-.583149-.929779-1.209667-1.326196-1.694032-.396419-.484356-.747172-.826528-1.0547-1.113285-.307527-.286758-.571799-.518088-1.107569-.761485-.53577-.243401-1.343047-.498838-2.150305-.754271.475703-.366275.951407-.732558 1.57129-.95907.619872-.226511 1.383864-.313263 1.958072-.332534.574218-.0193.958613.02895 1.441522.178327.48292.149423 1.064325.400028 1.633725.725345.569401.325326 1.126779.725328 1.494363 1.019316.367584.293997.545375.481953.992244.947029z"/><path d="m80.085095-86.442773c-.856214-.07498-1.76566-.117437-2.621884-.366202s-1.712428-.671338-2.640009-1.233628c-.927582-.562303-1.926479-1.264306-2.73174-1.898172-.80526-.633866-1.416833-1.199555-1.963873-1.799348-.547031-.599783-1.029499-1.233629-1.389666-1.731201-.360177-.497572-.598014-.858801-.835851-1.22004-.0272.572524-.0544 1.145078-.06453 1.618779-.01024.473701-.003.848559.08491 1.308621.08832.460071.25823 1.005316.448505 1.509683.190276.504377.400934.967836.65237 1.465388.251426.497551.543628 1.02916.88 1.550573.336381.521405.716922 1.032576 1.16882 1.547162.451898.51459.975132 1.032566 1.539153 1.499445.564032.466874 1.16881.882629 1.770207 1.243858.601396.361241 1.19938.66794 1.787187.923523.587807.255587 1.165398.46006 1.814365.678161.648968.218109 1.381717.441385 2.102022.673114z"/><path d="m66.556586-103.01335c.611583-.0204 1.223206-.0409 1.6853.0137.462095.0546.774681.18404 1.121239.3783.346568.19424.727109.45324 1.060078.6952.33298.24197.618378.46688.913983.75315.295594.28626.601375.63385.842604 1.02918.241229.395318.417906.838332.628564 1.332477.210659.494145.45529 1.03939.710128 1.588063.254828.548662.519843 1.100732.832439 1.673256.312585.572524.672733 1.165482 1.009114 1.714144.336372.548673.648958 1.05303.998918 1.516499.349981.463468.737306.886039 1.097464 1.216592.360166.330562.693136.569106 1.036302.804253.343166.235137.696519.466866.934366.616819.237836.149944.535699.215628.65801.283785-.360148.109045-.895877.220542-1.364756.278477-.468879.05789-1.046469.06473-1.539134.04433-.492675-.0204-.900383-.06815-1.450816-.293062-.550432-.224915-1.243549-.627031-1.759999-.947372-.51645-.32034-.856214-.558884-1.212979-.903076s-.730511-.794021-1.080472-1.301796c-.34997-.507774-.676145-1.073463-.968358-1.656219-.292202-.582746-.550422-1.182518-.788269-1.847061-.237837-.664532-.45529-1.393804-.642163-2.010633-.186873-.61683-.343166-1.121177-.462085-1.54035-.118928-.419164-.200472-.753136-.363549-1.100746-.163077-.3476-.407708-.70883-.597974-.97805-.190275-.26923-.326185-.44643-.499459-.62024-.173284-.1738-.383933-.3442-.523245-.46687-.139301-.12269-.207296-.1977-.275251-.27267z"/><path d="m74.649877-105.54879c.176687.46347.353383.92698.56065 1.44839.207257.52141.445093 1.10073.669341 1.59828.224258.49756.434906.9133.648967 1.31544.214051.40212.431504.79061.699931 1.18592.268417.395326.587798.797442.897001 1.114366.309194.316933.608181.548662.839233.722466.231042.173795.39413.289665.570806.364626.176687.07498.359023.06443.549289.0985v5.769725c-.203854-.109055-.440557-.21803-.637627-.347528-.19707-.12949-.387335-.279433-.567424-.429376-.180078-.149953-.34996-.299896-.54703-.490728-.19707-.190841-.421308-.42257-.648958-.667939s-.458682-.504367-.69992-.77018c-.24124-.265813-.492665-.53844-.733904-.838327-.241249-.299896-.472281-.627041-.655762-.909901-.183481-.28285-.319391-.521393-.475684-.834919s-.332969-.702023-.465486-1.080298c-.132517-.378276-.220856-.746309-.292213-1.121187-.07136-.374868-.125713-.75654-.156293-1.09732-.03061-.3408-.03743-.64068-.03402-.9508.003-.31012.01696-.63045.04075-1.04281s.05771-.91672.105329-1.36655c.04757-.44984.108721-.84515.166479-1.11438.05771-.26923.112135-.41238.166491-.5555z"/><path d="m36.699053-106.37091c-.0097 0-.01704.008-.01704.0176v1.65829c0 .01.0074.0171.01704.0171h2.037086l-.459921 1.449s-.647016.18874-.854729.43099c-.226911.26464-.322459.99477-.322459.99477-.0097 0-.01757.008-.01757.0176v25.161771c0 .0097.0079.01757.01757.01757h4.734078c.0097 0 .01704-.0079.01704-.01757v-25.161771c0-.01-.01398-.008-.01704-.0176 0 0-.109754-.69124-.318844-.95292-.190024-.23781-.780832-.47335-.780832-.47335l-.51108-1.44849h4.790923l-.459921 1.449s-.647017.18874-.854727.43099c-.226913.26464-.322979.99477-.322979.99477-.0097 0-.01704.008-.01704.0176v25.161771c0 .0097.0074.01757.01704.01757h4.734079c.0097 0 .01757-.0079.01757-.01757v-25.161771c0-.01-.01451-.008-.01757-.0176 0 0-.109237-.69124-.318327-.95292-.190024-.23781-.780832-.47335-.780832-.47335l-.511595-1.44849h4.790921l-.459921 1.449s-.647014.18874-.854727.43099c-.226913.26464-.322462.99477-.322462.99477-.0097 0-.01757.008-.01757.0176v25.161771c0 .0097.0079.01757.01757.01757h4.734079c.0097 0 .01705-.0079.01705-.01757v-25.161771c0-.01-.01398-.008-.01705-.0176 0 0-.109755-.69124-.318845-.95292-.190024-.23781-.780829-.47335-.780829-.47335l-.51108-1.44849h4.790921l-.459919 1.449s-.647533.18874-.855246.43099c-.226913.26464-.322459.99477-.322459.99477-.0097 0-.01757.008-.01757.0176v25.161771c0 .0097.0079.01757.01757.01757h4.734076c.0097 0 .01757-.0079.01757-.01757v-25.161771c0-.01-.01451-.008-.01757-.0176 0 0-.109238-.69124-.318328-.95292-.190021-.23781-.780829-.47335-.780829-.47335l-.511597-1.44849h2.01073c.0097 0 .01705-.007.01705-.0171v-1.65829c0-.01-.0074-.0176-.01705-.0176z" stroke-width=".535241"/></g></g></svg>