<svg height="199.93752" width="199.94592" xmlns="http://www.w3.org/2000/svg"><path d="m0 0h199.94593v199.93752h-199.94593z" fill="#fff" stroke-width="6.80315"/><path d="m5.3929615 5.3937596h189.1600085v189.1500004h-189.1600085z" fill="#9b2423" fill-rule="evenodd"/><g fill="#fff"><path d="m48.81715 29.344627c-10.46984.000001-18.898443 11.664247-18.898443 26.152344 0 12.097523 5.879473 22.22134 13.914063 25.23437v3.875l-3.15234 4.63867h-10.357423v7.66407h91.968753v-7.66407h-10.33985l-3.17187-4.33203v-4.18164c8.03547-3.01224 13.91406-13.135993 13.91406-25.23437 0-14.488097-8.42861-26.152344-18.89844-26.152344h-24.74023-5.49805zm-1.90625 44.101564h4.5039v9.07617h-4.5039zm54.28711 0h4.5039v9.07617h-4.5039zm-47.24024 8.20312h19.59961 5.49805 19.59961v2.95703l-3.15235 4.63867h-38.37304l-3.17188-4.33203z" stroke-width="2.87173"/><path d="m154.38315 49.507288c-1.70265 6.428021-2.21713 14.114374-.97583 20.700007 2.50169 9.379208 8.17575 16.648388 15.26704 22.679753 1.25138 1.126003 2.66559 1.8994 4.07124 2.625681v-19.491909c-4.21495-.66845-7.37437-4.442463-9.64907-7.770578-3.83222-5.901166-6.27726-12.353355-8.71331-18.742954zm-24.30509 8.493341c-.96999.0027-2.00291.03718-3.03595.0716 5.60201 4.287808 7.34908 10.736888 9.19342 16.820812 1.92298 6.686549 4.31873 13.097765 8.10402 18.627733 7.09919 9.421016 17.85824 13.577676 28.40599 10.549886-9.33127-3.88258-15.07507-12.972627-19.37147-20.783804-3.89479-6.15687-4.99551-13.938237-10.18153-18.996116-3.79526-3.599426-8.10954-6.299118-13.11448-6.289992zm1.51012 28.186015c-.65515 12.036003 3.40844 22.045996 10.70859 30.406686 7.72883 9.0284 20.07737 13.62454 30.4486 16.95176v-19.49191c-6.63482-.12999-12.67663-2.33465-17.77581-5.40501-10.0793-6.11434-17.23747-13.130596-23.38155-22.461526zm-13.96816 37.454376c9.40642 2.2401 13.80259 8.29304 19.05019 14.60541 4.19769 5.35956 9.76563 8.5466 15.9008 9.62985 7.6411 1.28606 14.91445.0957 20.17453-5.53594-12.23581-2.17418-19.41765-9.69821-27.76353-16.56595-9.76982-6.54012-17.35737-9.68741-27.36199-2.13337zm13.92799 19.39252c1.10877 6.17211 3.05075 11.97159 6.55902 16.68116 9.65158 11.37702 22.18676 11.16726 34.63851 11.38963v-19.49191c-7.90221 1.85291-17.5851 2.73429-24.90741.94621-6.6778-1.37066-11.70686-5.32999-16.29012-9.52511z"/></g></svg>