<svg height="199.93752" width="199.94592" xmlns="http://www.w3.org/2000/svg"><path d="m0 0h199.94593v199.93752h-199.94593z" fill="#fff" stroke-width="6.80315"/><path d="m5.3929615 5.3937596h189.1600085v189.1500004h-189.1600085z" fill="#9b2423" fill-rule="evenodd"/><g fill="#fff"><path d="m66.464792 38.455654a8.5567894 7.4158845 0 0 0 -8.55859 7.416016 8.5567894 7.4158845 0 0 0 5.18164 6.802734v11.896484c-13.4217 3.590489-19.98633 12.146445-19.98633 22.578126v65.392576h46.72461v-65.392576c-.67792-12.064948-5.83627-19.673107-19.98633-22.734376v-11.740234a8.5567894 7.4158845 0 0 0 5.18164-6.802734 8.5567894 7.4158845 0 0 0 -8.55664-7.416016z" stroke-width="6.80315"/><path d="m154.39426 49.580848c-1.70162 6.424133-2.21579 14.105831-.97524 20.687483 2.50018 9.373532 8.1708 16.638316 15.25781 22.666031 1.25061 1.125323 2.66397 1.898258 4.06877 2.624097v-19.480117c-4.2124-.66805-7.36991-4.439776-9.64323-7.765882-3.82991-5.897593-6.27347-12.345878-8.70805-18.731612zm-24.29038 8.488207c-.96941.0029-2.00171.03713-3.03413.07158 5.59863 4.285217 7.34464 10.730395 9.18786 16.810635 1.92183 6.682501 4.31613 13.089841 8.09913 18.616467 7.09489 9.415313 17.84743 13.569453 28.3888 10.543503-9.32563-3.88023-15.06595-12.964785-19.35975-20.771231-3.89243-6.153145-4.99249-13.929802-10.17538-18.984628-3.79296-3.59725-8.10462-6.295308-13.10653-6.286188zm1.5092 28.168957c-.65476 12.028725 3.40638 22.032658 10.70211 30.388288 7.72415 9.02295 20.06522 13.6163 30.43018 16.94151v-19.48012c-6.63081-.12991-12.66896-2.33324-17.76505-5.40174-10.07321-6.11064-17.22705-13.12265-23.36741-22.447938zm-13.95971 37.431718c9.40072 2.23875 13.79423 8.28803 19.03867 14.59657 4.19515 5.35633 9.75972 8.54144 15.89118 9.62403 7.63647 1.28528 14.90542.0957 20.16232-5.53259-12.22841-2.17286-19.4059-9.69235-27.74673-16.55592-9.76391-6.53617-17.34688-9.68156-27.34544-2.13209zm13.91957 19.38079c1.10809 6.16838 3.04889 11.96435 6.55504 16.67107 9.64575 11.37014 22.17335 11.1605 34.61756 11.38274v-19.48012c-7.89743 1.85179-17.57446 2.73264-24.89235.94563-6.67375-1.36983-11.69977-5.32676-16.28025-9.51933z"/></g></svg>