<svg height="199.93752" width="199.94592" xmlns="http://www.w3.org/2000/svg"><path d="m0 0h199.94593v199.93752h-199.94593z" fill="#fff" stroke-width="6.80315"/><path d="m5.3929615 5.3937596h189.1600085v189.1500004h-189.1600085z" fill="#9b2423" fill-rule="evenodd"/><g fill="#fff"><path d="m146.29865 24.927398-13.2574 5.083933 1.16019 3.025067-68.767958 21.950827-3.434506-5.194431 3.575692-1.859359-1.467719-3.170553-13.158116 2.375567-1.193943-9.644249 6.126865-3.226412-1.720015-3.636466c-9.887219 5.341728-19.670752 10.812253-29.493193 16.271407l2.15892 3.393996 5.996737-3.462133 7.521541 6.153879-10.842492 10.838807 1.899262 2.93299 3.480549-2.033695 4.72176 10.456991v8.341037h-.831775c-1.541011 0-2.781369 1.240967-2.781369 2.781984v.168812c0 1.54101 1.240358 2.781364 2.781369 2.781364h.831775v62.447289h-8.029201v7.97765h45.180828v-7.97765h-8.029202v-62.447289h.831153c1.541017 0 2.781985-1.240354 2.781985-2.781364v-.168812c0-1.541017-1.240968-2.781984-2.781985-2.781984h-.831153v-15.375183c2.916143-1.274499 52.685481-23.018669 67.738081-29.208366l1.11476 2.90721 13.25739-5.083319z" stroke-width="2.13818"/><path d="m154.22952 48.489875c-1.71691 6.481805-2.2357 14.232465-.984 20.873204 2.52262 9.457682 8.24415 16.787685 15.39477 22.869518 1.26185 1.135424 2.6879 1.915292 4.10531 2.647651v-19.654998c-4.25022-.674049-7.43607-4.479635-9.72981-7.835602-3.86428-5.950538-6.32978-12.456712-8.78621-18.899773zm-24.50846 8.56441c-.9781.0029-2.01967.03747-3.06136.07222 5.64889 4.323688 7.41058 10.826727 9.27035 16.961552 1.93907 6.742493 4.35486 13.207354 8.17183 18.783589 7.15858 9.499854 18.00766 13.691284 28.64366 10.638164-9.40935-3.915061-15.20121-13.081176-19.53355-20.957705-3.92738-6.208384-5.03732-14.054857-10.26673-19.155062-3.82701-3.629543-8.17738-6.351824-13.2242-6.342621zm1.52276 28.421842c-.66065 12.136713 3.43695 22.230463 10.79819 30.661103 7.79348 9.10395 20.24535 13.73854 30.70336 17.0936v-19.655c-6.69034-.13108-12.7827-2.35419-17.92454-5.45024-10.16364-6.16549-17.38169-13.240457-23.57719-22.649463zm-14.08504 37.767753c9.48512 2.25885 13.91807 8.36244 19.20959 14.72762 4.23281 5.40441 9.84734 8.61811 16.03384 9.71043 7.70503 1.29681 15.03924.0965 20.34333-5.58226-12.33819-2.19237-19.58012-9.77936-27.99583-16.70456-9.85156-6.59485-17.50261-9.76847-27.59093-2.15123zm14.04453 19.55479c1.11804 6.22376 3.07627 12.07176 6.61389 16.82073 9.73234 11.47221 22.3724 11.2607 34.92834 11.48493v-19.655c-7.96833 1.86841-17.73224 2.75717-25.11582.95413-6.73367-1.38214-11.8048-5.37459-16.42641-9.60481z"/></g></svg>