<svg viewBox="0 0 145.341143806 112.251143924" width="145.341143806pt" height="112.251143924pt" xmlns="http://www.w3.org/2000/svg" xmlns:xlink="http://www.w3.org/1999/xlink" xmlns:h5="http://www.w3.org/1999/xhtml"><path fill="#ffffff" fill-rule="nonzero" d="M 0 0v 112.251143924h 145.341143806v -112.251143924Z "/><g transform="matrix(1.25 0 0 1.25 11 11)"><g><path fill="none" stroke="#000000" stroke-width="0.5" stroke-linecap="round" stroke-linejoin="miter" stroke-miterlimit="4" transform="translate(26.825743237 13.128394376)" d="M 0 0m 17.221428634 0l -17.221428634 17.480126294"/><path fill="none" transform="translate(25.956910617 10.782646809)" d="M 0 0h 7.2v 8.84h -7.2v -8.84Z "/><g transform="translate(25.956910617 10.782646746)"><g><g><path fill="#ffffff" fill-rule="nonzero" d="M 0 0m 0 1.6c 0 -0.8836556 0.7163444 -1.6 1.6 -1.6h 4c 0.8836556 0 1.6 0.7163444 1.6 1.6v 5.464c 0 0.8836556 -0.7163444 1.6 -1.6 1.6h -4c -0.8836556 0 -1.6 -0.7163444 -1.6 -1.6Z "/><g transform="matrix(1 0 0 -1 1.6 7.064)"><use xlink:href="#g9133B69CFC884A26ED567EA7E95BBE58" x="0" y="0" fill="#000000" fill-rule="nonzero"/></g></g></g></g><path fill="none" stroke="#000000" stroke-width="0.5" stroke-linecap="round" stroke-linejoin="miter" stroke-miterlimit="4" transform="translate(54.625743208 13.128394346)" d="M 0 0l 17.221428634 17.480126294"/><path fill="none" transform="translate(65.516004463 10.95864678)" d="M 0 0h 7.2v 8.664h -7.2v -8.664Z "/><g transform="translate(65.516004463 10.958646733)"><g><g><path fill="#ffffff" fill-rule="nonzero" d="M 0 0m 0 1.6c 0 -0.8836556 0.7163444 -1.6 1.6 -1.6h 4c 0.8836556 0 1.6 0.7163444 1.6 1.6v 5.464c 0 0.8836556 -0.7163444 1.6 -1.6 1.6h -4c -0.8836556 0 -1.6 -0.7163444 -1.6 -1.6Z "/><g transform="matrix(1 0 0 -1 1.6 7.064)"><use xlink:href="#gB594B03F0C18A1F8AF835CDF971E0C9" x="0" y="0" fill="#000000" fill-rule="nonzero"/></g></g></g></g><path fill="none" stroke="#000000" stroke-width="0.5" stroke-linecap="round" stroke-linejoin="miter" stroke-miterlimit="4" transform="translate(10.949659621 42.96610525)" d="M 0 0m 7.273595921 0l -7.273595921 14.732704433"/><path fill="none" transform="translate(4.517100934 40.075844454)" d="M 0 0h 7.2v 8.84h -7.2v -8.84Z "/><g transform="translate(4.517100934 40.075844391)"><g><g><path fill="#ffffff" fill-rule="nonzero" d="M 0 0m 0 1.6c 0 -0.8836556 0.7163444 -1.6 1.6 -1.6h 4c 0.8836556 0 1.6 0.7163444 1.6 1.6v 5.464c 0 0.8836556 -0.7163444 1.6 -1.6 1.6h -4c -0.8836556 0 -1.6 -0.7163444 -1.6 -1.6Z "/><g transform="matrix(1 0 0 -1 1.6 7.064)"><use xlink:href="#g9133B69CFC884A26ED567EA7E95BBE58" x="0" y="0" fill="#000000" fill-rule="nonzero"/></g></g></g></g><path fill="none" stroke="#000000" stroke-width="0.5" stroke-linecap="round" stroke-linejoin="miter" stroke-miterlimit="4" transform="translate(24.849659577 42.966105272)" d="M 0 0l 7.273595921 14.732704433"/><path fill="none" transform="translate(31.355814185 40.251844476)" d="M 0 0h 7.2v 8.664h -7.2v -8.664Z "/><g transform="translate(31.355814185 40.251844429)"><g><g><path fill="#ffffff" fill-rule="nonzero" d="M 0 0m 0 1.6c 0 -0.8836556 0.7163444 -1.6 1.6 -1.6h 4c 0.8836556 0 1.6 0.7163444 1.6 1.6v 5.464c 0 0.8836556 -0.7163444 1.6 -1.6 1.6h -4c -0.8836556 0 -1.6 -0.7163444 -1.6 -1.6Z "/><g transform="matrix(1 0 0 -1 1.6 7.064)"><use xlink:href="#gB594B03F0C18A1F8AF835CDF971E0C9" x="0" y="0" fill="#000000" fill-rule="nonzero"/></g></g></g></g><path fill="none" stroke="#000000" stroke-width="0.5" stroke-linecap="round" stroke-linejoin="miter" stroke-miterlimit="4" transform="translate(66.549659599 42.966105294)" d="M 0 0m 7.273595921 0l -7.273595921 14.732704433"/><path fill="none" transform="translate(60.117100912 40.075844498)" d="M 0 0h 7.2v 8.84h -7.2v -8.84Z "/><g transform="translate(60.117100912 40.075844435)"><g><g><path fill="#ffffff" fill-rule="nonzero" d="M 0 0m 0 1.6c 0 -0.8836556 0.7163444 -1.6 1.6 -1.6h 4c 0.8836556 0 1.6 0.7163444 1.6 1.6v 5.464c 0 0.8836556 -0.7163444 1.6 -1.6 1.6h -4c -0.8836556 0 -1.6 -0.7163444 -1.6 -1.6Z "/><g transform="matrix(1 0 0 -1 1.6 7.064)"><use xlink:href="#g9133B69CFC884A26ED567EA7E95BBE58" x="0" y="0" fill="#000000" fill-rule="nonzero"/></g></g></g></g><path fill="none" stroke="#000000" stroke-width="0.5" stroke-linecap="round" stroke-linejoin="miter" stroke-miterlimit="4" transform="translate(80.449659555 42.966105228)" d="M 0 0l 7.273595921 14.732704433"/><path fill="none" transform="translate(86.955814164 40.251844432)" d="M 0 0h 7.2v 8.664h -7.2v -8.664Z "/><g transform="translate(86.955814164 40.251844385)"><g><g><path fill="#ffffff" fill-rule="nonzero" d="M 0 0m 0 1.6c 0 -0.8836556 0.7163444 -1.6 1.6 -1.6h 4c 0.8836556 0 1.6 0.7163444 1.6 1.6v 5.464c 0 0.8836556 -0.7163444 1.6 -1.6 1.6h -4c -0.8836556 0 -1.6 -0.7163444 -1.6 -1.6Z "/><g transform="matrix(1 0 0 -1 1.6 7.064)"><use xlink:href="#gB594B03F0C18A1F8AF835CDF971E0C9" x="0" y="0" fill="#000000" fill-rule="nonzero"/></g></g></g></g><path fill="none" transform="translate(41.699999906)" d="M 0 0m 7.636457617 0c -4.21367513 0 -7.636457617 3.422782487 -7.636457617 7.636457617c 0 4.21367513 3.422782487 7.636457617 7.636457617 7.636457617c 4.21367513 0 7.636457617 -3.422782487 7.636457617 -7.636457617c 0 -4.21367513 -3.422782487 -7.636457617 -7.636457617 -7.636457617Z "/><path fill="none" transform="translate(46.936457554 4.904457522)" d="M 0 0h 4.8v 5.464h -4.8v -5.464Z "/><g transform="translate(46.936457459 4.904457491)"><g><g transform="matrix(1 0 0 -1 -2.712 5.464)"><use xlink:href="#gEC3444D603220EBCEA0E270660357126" x="0" y="0" fill="#000000" fill-rule="nonzero"/><use xlink:href="#gEC9EC0B91B9AA5142E699EBECE1315F2" x="3.112" y="0" fill="#000000" fill-rule="nonzero"/><use xlink:href="#g1541B14FD47D9DEF936C34518D1F7277" x="7.112" y="0" fill="#000000" fill-rule="nonzero"/></g></g></g><path fill="none" transform="translate(13.899999969 28.463999811)" d="M 0 0m 7.636457617 0c -4.21367513 0 -7.636457617 3.422782487 -7.636457617 7.636457617c 0 4.21367513 3.422782487 7.636457617 7.636457617 7.636457617c 4.21367513 0 7.636457617 -3.422782487 7.636457617 -7.636457617c 0 -4.21367513 -3.422782487 -7.636457617 -7.636457617 -7.636457617Z "/><path fill="none" transform="translate(19.136457554 33.368457522)" d="M 0 0h 4.8v 5.464h -4.8v -5.464Z "/><g transform="translate(19.136457459 33.368457491)"><g><g transform="matrix(1 0 0 -1 -2.712 5.464)"><use xlink:href="#gEC3444D603220EBCEA0E270660357126" x="0" y="0" fill="#000000" fill-rule="nonzero"/><use xlink:href="#g3CFE5A54C9C73579361B916A247ADAE2" x="3.112" y="0" fill="#000000" fill-rule="nonzero"/><use xlink:href="#g1541B14FD47D9DEF936C34518D1F7277" x="7.112" y="0" fill="#000000" fill-rule="nonzero"/></g></g></g><path fill="none" transform="translate(69.499999843 28.463999811)" d="M 0 0m 7.636457617 0c -4.21367513 0 -7.636457617 3.422782487 -7.636457617 7.636457617c 0 4.21367513 3.422782487 7.636457617 7.636457617 7.636457617c 4.21367513 0 7.636457617 -3.422782487 7.636457617 -7.636457617c 0 -4.21367513 -3.422782487 -7.636457617 -7.636457617 -7.636457617Z "/><path fill="none" transform="translate(74.736457554 33.368457522)" d="M 0 0h 4.8v 5.464h -4.8v -5.464Z "/><g transform="translate(74.736457459 33.368457491)"><g><g transform="matrix(1 0 0 -1 -2.712 5.464)"><use xlink:href="#gEC3444D603220EBCEA0E270660357126" x="0" y="0" fill="#000000" fill-rule="nonzero"/><use xlink:href="#gF02158A8260C8CEFFF501CD9BC6703CD" x="3.112" y="0" fill="#000000" fill-rule="nonzero"/><use xlink:href="#g1541B14FD47D9DEF936C34518D1F7277" x="7.112" y="0" fill="#000000" fill-rule="nonzero"/></g></g></g><path fill="none" transform="translate(0 56.927999906)" d="M 0 0m 7.636457617 0c -4.21367513 0 -7.636457617 3.422782487 -7.636457617 7.636457617c 0 4.21367513 3.422782487 7.636457617 7.636457617 7.636457617c 4.21367513 0 7.636457617 -3.422782487 7.636457617 -7.636457617c 0 -4.21367513 -3.422782487 -7.636457617 -7.636457617 -7.636457617Z "/><path fill="none" transform="translate(5.236457554 61.832457522)" d="M 0 0h 4.8v 5.464h -4.8v -5.464Z "/><g transform="translate(5.236457459 61.832457491)"><g><g transform="matrix(1 0 0 -1 -7.04 5.464)"><use xlink:href="#g666FEB39DB1DCA306AF387C4D0DE6707" x="0" y="0" fill="#000000" fill-rule="nonzero"/></g><g transform="matrix(1 0 0 -1 1.616 5.464)"><use xlink:href="#gEC3444D603220EBCEA0E270660357126" x="0" y="0" fill="#000000" fill-rule="nonzero"/><use xlink:href="#gB594B03F0C18A1F8AF835CDF971E0C9" x="3.112" y="0" fill="#000000" fill-rule="nonzero"/><use xlink:href="#g1541B14FD47D9DEF936C34518D1F7277" x="7.112" y="0" fill="#000000" fill-rule="nonzero"/></g></g></g><path fill="none" transform="translate(27.799999937 56.927999906)" d="M 0 0m 7.636457617 0c -4.21367513 0 -7.636457617 3.422782487 -7.636457617 7.636457617c 0 4.21367513 3.422782487 7.636457617 7.636457617 7.636457617c 4.21367513 0 7.636457617 -3.422782487 7.636457617 -7.636457617c 0 -4.21367513 -3.422782487 -7.636457617 -7.636457617 -7.636457617Z "/><path fill="none" transform="translate(33.036457554 61.832457522)" d="M 0 0h 4.8v 5.464h -4.8v -5.464Z "/><g transform="translate(33.036457459 61.832457491)"><g><g transform="matrix(1 0 0 -1 -6.872 5.464)"><use xlink:href="#g1F198A781DD7C2D7740C95642B4C345D" x="0" y="0" fill="#000000" fill-rule="nonzero"/></g><g transform="matrix(1 0 0 -1 1.448 5.464)"><use xlink:href="#gEC3444D603220EBCEA0E270660357126" x="0" y="0" fill="#000000" fill-rule="nonzero"/><use xlink:href="#gB594B03F0C18A1F8AF835CDF971E0C9" x="3.112" y="0" fill="#000000" fill-rule="nonzero"/><use xlink:href="#g1541B14FD47D9DEF936C34518D1F7277" x="7.112" y="0" fill="#000000" fill-rule="nonzero"/></g></g></g><path fill="none" transform="translate(55.599999874 56.927999906)" d="M 0 0m 7.636457617 0c -4.21367513 0 -7.636457617 3.422782487 -7.636457617 7.636457617c 0 4.21367513 3.422782487 7.636457617 7.636457617 7.636457617c 4.21367513 0 7.636457617 -3.422782487 7.636457617 -7.636457617c 0 -4.21367513 -3.422782487 -7.636457617 -7.636457617 -7.636457617Z "/><path fill="none" transform="translate(60.836457554 61.832457522)" d="M 0 0h 4.8v 5.464h -4.8v -5.464Z "/><g transform="translate(60.836457459 61.832457491)"><g><g transform="matrix(1 0 0 -1 -6.928 5.464)"><use xlink:href="#gAC32567FA2349AFC6F8024A1DB99A8A5" x="0" y="0" fill="#000000" fill-rule="nonzero"/></g><g transform="matrix(1 0 0 -1 1.504 5.464)"><use xlink:href="#gEC3444D603220EBCEA0E270660357126" x="0" y="0" fill="#000000" fill-rule="nonzero"/><use xlink:href="#gB594B03F0C18A1F8AF835CDF971E0C9" x="3.112" y="0" fill="#000000" fill-rule="nonzero"/><use xlink:href="#g1541B14FD47D9DEF936C34518D1F7277" x="7.112" y="0" fill="#000000" fill-rule="nonzero"/></g></g></g><path fill="none" transform="translate(83.399999811 56.927999906)" d="M 0 0m 7.636457617 0c -4.21367513 0 -7.636457617 3.422782487 -7.636457617 7.636457617c 0 4.21367513 3.422782487 7.636457617 7.636457617 7.636457617c 4.21367513 0 7.636457617 -3.422782487 7.636457617 -7.636457617c 0 -4.21367513 -3.422782487 -7.636457617 -7.636457617 -7.636457617Z "/><path fill="none" transform="translate(88.636457554 61.832457522)" d="M 0 0h 4.8v 5.464h -4.8v -5.464Z "/><g transform="translate(88.636457459 61.832457491)"><g><g transform="matrix(1 0 0 -1 -7.096 5.464)"><use xlink:href="#gB9DF6B233B975DF04006E99E0238B89F" x="0" y="0" fill="#000000" fill-rule="nonzero"/></g><g transform="matrix(1 0 0 -1 1.672 5.464)"><use xlink:href="#gEC3444D603220EBCEA0E270660357126" x="0" y="0" fill="#000000" fill-rule="nonzero"/><use xlink:href="#g3CFE5A54C9C73579361B916A247ADAE2" x="3.112" y="0" fill="#000000" fill-rule="nonzero"/><use xlink:href="#g1541B14FD47D9DEF936C34518D1F7277" x="7.112" y="0" fill="#000000" fill-rule="nonzero"/></g></g></g></g></g><defs><symbol id="g9133B69CFC884A26ED567EA7E95BBE58" overflow="visible"><path d="M 0 0m 1.992 -0.176c 1.128 0 1.688 0.912 1.688 2.736c 0 1.224 -0.256 2.04 -0.76 2.44c -0.28 0.216 -0.592 0.328 -0.92 0.328c -1.128 0 -1.688 -0.92 -1.688 -2.768c 0 -1.472 0.392 -2.736 1.68 -2.736Z m 0.896 4.368c 0.056 -0.28 0.08 -0.792 0.08 -1.536c 0 -0.736 -0.032 -1.28 -0.088 -1.632c -0.104 -0.64 -0.4 -0.96 -0.888 -0.96c -0.184 0 -0.368 0.072 -0.536 0.208c -0.216 0.184 -0.344 0.56 -0.4 1.136c -0.024 0.2 -0.032 0.616 -0.032 1.248c 0 0.696 0.024 1.184 0.064 1.448c 0.072 0.44 0.216 0.72 0.44 0.84c 0.176 0.096 0.328 0.144 0.464 0.144c 0.52 0 0.808 -0.424 0.896 -0.896Z "/></symbol><symbol id="gB594B03F0C18A1F8AF835CDF971E0C9" overflow="visible"><path d="M 0 0m 2.152 5.328c -0.328 -0.336 -0.808 -0.504 -1.44 -0.504v -0.312c 0.416 0 0.76 0.064 1.024 0.192v -4.048c 0 -0.144 -0.032 -0.24 -0.104 -0.28c -0.072 -0.04 -0.272 -0.064 -0.592 -0.064h -0.28v -0.312c 0.2 0.016 0.632 0.024 1.296 0.024c 0.664 0 1.096 -0.008 1.296 -0.024v 0.312h -0.28c -0.328 0 -0.528 0.024 -0.592 0.064c -0.064 0.04 -0.104 0.136 -0.104 0.28v 4.432c 0 0.192 -0.016 0.24 -0.224 0.24Z "/></symbol><symbol id="gEC3444D603220EBCEA0E270660357126" overflow="visible"><path d="M 0 0m 2.544 -1.984c 0.072 0 0.112 0.04 0.112 0.112c 0 0.024 -0.016 0.056 -0.04 0.088c -0.416 0.32 -0.752 0.848 -1 1.576c -0.216 0.632 -0.328 1.256 -0.328 1.872v 0.672c 0 0.616 0.112 1.24 0.328 1.872c 0.248 0.728 0.584 1.256 1 1.576c 0.024 0.024 0.04 0.056 0.04 0.088c 0 0.072 -0.04 0.112 -0.112 0.112c -0.008 0 -0.032 -0.008 -0.056 -0.024c -0.48 -0.368 -0.88 -0.912 -1.208 -1.64c -0.312 -0.696 -0.472 -1.352 -0.472 -1.984v -0.672c 0 -0.632 0.16 -1.288 0.472 -1.984c 0.328 -0.728 0.728 -1.272 1.208 -1.64c 0.024 -0.016 0.048 -0.024 0.056 -0.024Z "/></symbol><symbol id="gEC9EC0B91B9AA5142E699EBECE1315F2" overflow="visible"><path d="M 0 0m 0.944 2.52c 0.04 0 0.088 0.032 0.128 0.088c 0.24 0.36 0.568 0.536 0.984 0.536c 0.28 0 0.496 -0.16 0.64 -0.488c 0.088 -0.216 0.136 -0.544 0.136 -0.984c 0 -0.504 -0.064 -0.856 -0.184 -1.064c -0.2 -0.328 -0.472 -0.496 -0.816 -0.496c -0.536 0 -0.96 0.384 -1.104 0.8c 0.024 -0.008 0.04 0 0.072 0c 0.24 0 0.44 0.184 0.44 0.424c 0 0.248 -0.2 0.416 -0.44 0.416c -0.28 0 -0.4 -0.152 -0.4 -0.448c 0 -0.8 0.648 -1.48 1.448 -1.48c 0.488 0 0.904 0.176 1.24 0.528c 0.336 0.352 0.504 0.776 0.504 1.264c 0 0.464 -0.136 0.864 -0.408 1.208c -0.296 0.376 -0.664 0.56 -1.112 0.56c -0.376 0 -0.704 -0.12 -0.968 -0.36v 1.424c 0.216 -0.064 0.424 -0.096 0.64 -0.096c 0.368 0 0.688 0.088 0.96 0.272c 0.248 0.152 0.416 0.304 0.512 0.448c 0.048 0.064 0.072 0.112 0.072 0.136c 0 0.08 -0.04 0.12 -0.12 0.12c -0.44 -0.168 -0.816 -0.256 -1.12 -0.256c -0.36 0 -0.704 0.072 -1.032 0.224c -0.04 0.016 -0.072 0.024 -0.104 0.024c -0.072 0 -0.112 -0.072 -0.112 -0.224v -2.336c 0 -0.168 0 -0.24 0.144 -0.24Z "/></symbol><symbol id="g1541B14FD47D9DEF936C34518D1F7277" overflow="visible"><path d="M 0 0m 0.624 -1.96c 0.48 0.368 0.88 0.912 1.208 1.64c 0.312 0.696 0.472 1.352 0.472 1.984v 0.672c 0 0.632 -0.16 1.288 -0.472 1.984c -0.328 0.728 -0.728 1.272 -1.208 1.64c -0.024 0.016 -0.048 0.024 -0.056 0.024c -0.072 0 -0.112 -0.04 -0.112 -0.112c 0 -0.032 0.016 -0.064 0.04 -0.088c 0.416 -0.32 0.752 -0.848 1 -1.576c 0.216 -0.632 0.328 -1.256 0.328 -1.872v -0.672c 0 -0.616 -0.112 -1.24 -0.328 -1.872c -0.248 -0.728 -0.584 -1.256 -1 -1.576c -0.024 -0.032 -0.04 -0.064 -0.04 -0.088c 0 -0.072 0.04 -0.112 0.112 -0.112c 0.008 0 0.032 0.008 0.056 0.024Z "/></symbol><symbol id="g3CFE5A54C9C73579361B916A247ADAE2" overflow="visible"><path d="M 0 0m 1.896 5.328c -0.408 0 -0.752 -0.144 -1.048 -0.432c -0.296 -0.288 -0.448 -0.624 -0.448 -1.032c 0 -0.272 0.2 -0.472 0.448 -0.472c 0.24 0 0.44 0.208 0.44 0.448c 0 0.264 -0.192 0.448 -0.448 0.448c -0.024 0 -0.04 0 -0.056 -0.008c 0.152 0.392 0.504 0.736 1.008 0.736c 0.656 0 1.024 -0.568 1.024 -1.256c 0 -0.536 -0.272 -1.112 -0.816 -1.72l -1.504 -1.696c -0.104 -0.12 -0.096 -0.112 -0.096 -0.344h 2.968l 0.232 1.44h -0.264c -0.064 -0.408 -0.12 -0.64 -0.168 -0.712c -0.04 -0.04 -0.28 -0.056 -0.72 -0.056h -1.336l 0.776 0.76c 0.544 0.512 1.232 1.064 1.464 1.488c 0.16 0.28 0.24 0.56 0.24 0.84c 0 0.944 -0.736 1.568 -1.696 1.568Z "/></symbol><symbol id="gF02158A8260C8CEFFF501CD9BC6703CD" overflow="visible"><path d="M 0 0m 2.424 2.824c 0.528 0.2 1.024 0.704 1.024 1.384c 0 0.344 -0.168 0.624 -0.496 0.84c -0.288 0.184 -0.616 0.28 -0.984 0.28c -0.36 0 -0.672 -0.096 -0.952 -0.28c -0.312 -0.208 -0.472 -0.48 -0.472 -0.824c 0 -0.264 0.176 -0.448 0.432 -0.448c 0.256 0 0.432 0.184 0.432 0.44c 0 0.264 -0.152 0.408 -0.456 0.424c 0.208 0.28 0.536 0.424 0.984 0.424c 0.48 0 0.72 -0.28 0.72 -0.848c 0 -0.336 -0.064 -0.616 -0.184 -0.848c -0.216 -0.384 -0.512 -0.456 -1.008 -0.456c -0.096 -0.016 -0.144 -0.056 -0.144 -0.128c 0 -0.12 0.056 -0.12 0.216 -0.12h 0.344c 0.6 0 0.904 -0.424 0.904 -1.28c 0 -0.68 -0.248 -1.272 -0.856 -1.272c -0.52 0 -0.904 0.176 -1.136 0.528c 0.28 -0.008 0.488 0.2 0.488 0.472c 0 0.272 -0.2 0.472 -0.472 0.472c -0.312 0 -0.472 -0.16 -0.472 -0.488c 0 -0.392 0.176 -0.704 0.528 -0.952c 0.312 -0.216 0.68 -0.32 1.088 -0.32c 0.456 0 0.848 0.152 1.192 0.448c 0.344 0.296 0.512 0.664 0.512 1.112c 0 0.752 -0.592 1.272 -1.232 1.44Z "/></symbol><symbol id="g666FEB39DB1DCA306AF387C4D0DE6707" overflow="visible"><path d="M 0 0m 4.664 0.024l 1.072 -0.024v 0.312h -0.176c -0.2 0 -0.336 0.008 -0.392 0.024c -0.12 0.04 -0.2 0.128 -0.248 0.264l -1.712 4.952c -0.032 0.104 -0.088 0.176 -0.208 0.176c -0.104 0 -0.176 -0.056 -0.216 -0.176l -1.64 -4.736c -0.112 -0.328 -0.408 -0.504 -0.888 -0.512v -0.304l 0.84 0.024l 0.936 -0.024v 0.312c -0.392 0 -0.592 0.12 -0.592 0.368c 0 0.056 0.008 0.088 0.016 0.104l 0.36 1.016h 1.904l 0.408 -1.184c 0.016 -0.048 0.024 -0.08 0.024 -0.104c 0 -0.136 -0.216 -0.2 -0.656 -0.2v -0.312c 0.336 0.024 0.728 0.032 1.168 0.024Z m -1.904 4.528l 0.848 -2.44h -1.688Z "/></symbol><symbol id="g1F198A781DD7C2D7740C95642B4C345D" overflow="visible"><path d="M 0 0m 3.824 2.864c 0.56 0.144 1.168 0.592 1.168 1.232c 0 0.424 -0.2 0.76 -0.6 1.024c -0.344 0.232 -0.744 0.344 -1.184 0.344h -2.92v -0.312h 0.224c 0.28 0 0.448 -0.024 0.504 -0.064c 0.056 -0.04 0.088 -0.128 0.088 -0.272v -4.168c 0 -0.144 -0.032 -0.24 -0.088 -0.28c -0.056 -0.04 -0.224 -0.056 -0.504 -0.056h -0.224v -0.312h 3.128c 0.456 0 0.864 0.128 1.216 0.384c 0.384 0.28 0.576 0.648 0.576 1.096c 0 0.744 -0.704 1.256 -1.384 1.384Z m 0.344 1.232c 0 -0.672 -0.56 -1.136 -1.232 -1.136h -1.112v 1.912c 0 0.288 0.04 0.28 0.352 0.28h 0.976c 0.592 0 1.016 -0.464 1.016 -1.056Z m 0.184 -2.608v -0.208c -0.016 -0.184 -0.12 -0.392 -0.32 -0.608c -0.208 -0.24 -0.496 -0.36 -0.872 -0.36h -0.984c -0.312 0 -0.352 -0.008 -0.352 0.28v 2.128h 1.448c 0.648 0 1.08 -0.56 1.08 -1.232Z "/></symbol><symbol id="gAC32567FA2349AFC6F8024A1DB99A8A5" overflow="visible"><path d="M 0 0m 5.32 3.544v 1.872c 0 0.152 -0.04 0.224 -0.12 0.224c -0.056 0 -0.104 -0.04 -0.152 -0.112l -0.376 -0.552c -0.24 0.248 -0.496 0.424 -0.776 0.536c -0.208 0.088 -0.432 0.128 -0.672 0.128c -0.776 0 -1.44 -0.28 -1.976 -0.856c -0.536 -0.576 -0.8 -1.256 -0.8 -2.048c 0 -0.792 0.264 -1.472 0.792 -2.04c 0.536 -0.584 1.2 -0.872 1.984 -0.872c 0.568 0 1.064 0.2 1.48 0.6c 0.416 0.4 0.616 0.88 0.616 1.448c 0 0.112 -0.048 0.168 -0.136 0.168c -0.08 0 -0.12 -0.032 -0.12 -0.104c 0 -0.008 0 -0.024 -0.008 -0.048c -0.048 -0.96 -0.736 -1.752 -1.736 -1.752c -0.296 0 -0.592 0.08 -0.904 0.24c -0.736 0.4 -1.088 1.168 -1.088 2.352c 0 1.12 0.392 1.984 1.088 2.36c 0.312 0.16 0.608 0.24 0.896 0.24c 0.992 0 1.56 -0.904 1.696 -1.848c 0.008 -0.104 0.064 -0.16 0.152 -0.16c 0.16 0 0.16 0.064 0.16 0.224Z "/></symbol><symbol id="gB9DF6B233B975DF04006E99E0238B89F" overflow="visible"><path d="M 0 0m 3.208 0c 0.712 0 1.296 0.272 1.768 0.824c 0.456 0.52 0.68 1.144 0.68 1.864c 0 0.736 -0.224 1.376 -0.664 1.912c -0.472 0.576 -1.072 0.864 -1.784 0.864h -2.928v -0.312h 0.224c 0.28 0 0.448 -0.024 0.504 -0.064c 0.056 -0.04 0.088 -0.128 0.088 -0.272v -4.168c 0 -0.144 -0.032 -0.24 -0.088 -0.28c -0.056 -0.04 -0.224 -0.056 -0.504 -0.056h -0.224v -0.312Z m -0.216 0.312h -0.8c -0.312 0 -0.352 -0.008 -0.352 0.28v 4.28c 0 0.288 0.04 0.28 0.352 0.28h 0.792c 0.592 0 1.064 -0.24 1.416 -0.72c 0.264 -0.376 0.4 -0.952 0.4 -1.744c 0 -1.4 -0.528 -2.376 -1.808 -2.376Z "/></symbol></defs></svg>