<svg viewBox="0 0 255.249999961 200.230000079" width="255.249999961pt" height="200.230000079pt" xmlns="http://www.w3.org/2000/svg" xmlns:xlink="http://www.w3.org/1999/xlink" xmlns:h5="http://www.w3.org/1999/xhtml"><path fill="#ffffff" fill-rule="nonzero" d="M 0 0v 200.230000079h 255.249999961v -200.230000079Z "/><g transform="matrix(1.25 0 0 1.25 11 11)"><g><path fill="none" stroke="#000000" stroke-width="0.384" stroke-linecap="round" stroke-linejoin="miter" stroke-miterlimit="4" transform="translate(33.500000262 11.264)" d="M 0 0m 36.665999615 0l -36.665999615 14.999999843"/><path fill="none" transform="translate(51.83300007 18.763999921)" d="M 0 0Z "/><g transform="translate(51.83300007 18.763999921)"><g/></g><path fill="none" stroke="#000000" stroke-width="0.384" stroke-linecap="round" stroke-linejoin="miter" stroke-miterlimit="4" transform="translate(70.166000203 11.264)" d="M 0 0l 40.888499571 14.999999843"/><path fill="none" transform="translate(90.610249989 18.763999921)" d="M 0 0Z "/><g transform="translate(90.610249989 18.763999921)"><g/></g><path fill="none" stroke="#000000" stroke-width="0.384" stroke-linecap="round" stroke-linejoin="miter" stroke-miterlimit="4" transform="translate(9.328000031 37.527999843)" d="M 0 0m 24.172000152 0l -24.172000152 15.000000094"/><path fill="none" transform="translate(21.414000108 45.02799989)" d="M 0 0Z "/><g transform="translate(21.414000108 45.02799989)"><g/></g><path fill="none" stroke="#000000" stroke-width="0.384" stroke-linecap="round" stroke-linejoin="miter" stroke-miterlimit="4" transform="translate(33.500000031 37.527999843)" d="M 0 0l 0 15.000000126"/><path fill="none" transform="translate(33.500000031 45.027999906)" d="M 0 0Z "/><g transform="translate(33.500000031 45.027999906)"><g/></g><path fill="none" stroke="#000000" stroke-width="0.384" stroke-linecap="round" stroke-linejoin="miter" stroke-miterlimit="4" transform="translate(33.499999881 37.527999843)" d="M 0 0l 23.88400015 15.000000094"/><path fill="none" transform="translate(45.441999956 45.02799989)" d="M 0 0Z "/><g transform="translate(45.441999956 45.02799989)"><g/></g><path fill="none" stroke="#000000" stroke-width="0.384" stroke-linecap="round" stroke-linejoin="miter" stroke-miterlimit="4" transform="translate(86.59999998 37.527999843)" d="M 0 0m 24.454500205 0l -24.454500205 15.000000126"/><path fill="none" transform="translate(98.827250083 45.027999906)" d="M 0 0Z "/><g transform="translate(98.827250083 45.027999906)"><g/></g><path fill="none" stroke="#000000" stroke-width="0.384" stroke-linecap="round" stroke-linejoin="miter" stroke-miterlimit="4" transform="translate(111.054499903 37.527999843)" d="M 0 0l 20.464500129 15.000000094"/><path fill="none" transform="translate(121.286749967 45.02799989)" d="M 0 0Z "/><g transform="translate(121.286749967 45.02799989)"><g/></g><path fill="none" stroke="#000000" stroke-width="0.384" stroke-linecap="round" stroke-linejoin="miter" stroke-miterlimit="4" transform="translate(9.328000031 63.791999937)" d="M 0 0v 67.528000126"/><path fill="none" transform="translate(9.328000031 97.556)" d="M 0 0Z "/><g transform="translate(9.328000031 97.556)"><g/></g><path fill="none" stroke="#000000" stroke-width="0.384" stroke-linecap="round" stroke-linejoin="miter" stroke-miterlimit="4" transform="translate(33.500000031 63.791999969)" d="M 0 0v 67.528000094"/><path fill="none" transform="translate(33.500000031 97.556000016)" d="M 0 0Z "/><g transform="translate(33.500000031 97.556000016)"><g/></g><path fill="none" stroke="#000000" stroke-width="0.384" stroke-linecap="round" stroke-linejoin="miter" stroke-miterlimit="4" transform="translate(57.384000031 63.791999937)" d="M 0 0v 67.528000126"/><path fill="none" transform="translate(57.384000031 97.556)" d="M 0 0Z "/><g transform="translate(57.384000031 97.556)"><g/></g><path fill="none" stroke="#000000" stroke-width="0.384" stroke-linecap="round" stroke-linejoin="miter" stroke-miterlimit="4" transform="translate(86.600000031 63.791999969)" d="M 0 0m 0 0l 0 67.528000094"/><path fill="none" transform="translate(86.600000031 97.556000016)" d="M 0 0Z "/><g transform="translate(86.600000031 97.556000016)"><g/></g><path fill="none" stroke="#000000" stroke-width="0.384" stroke-linecap="round" stroke-linejoin="miter" stroke-miterlimit="4" transform="translate(114.548000031 63.791999937)" d="M 0 0m 16.971 0l -16.971 15"/><path fill="none" transform="translate(123.033500031 71.291999937)" d="M 0 0Z "/><g transform="translate(123.033500031 71.291999937)"><g/></g><path fill="none" stroke="#000000" stroke-width="0.384" stroke-linecap="round" stroke-linejoin="miter" stroke-miterlimit="4" transform="translate(131.519000031 63.791999937)" d="M 0 0l 21.727 15"/><path fill="none" transform="translate(142.382500031 71.291999937)" d="M 0 0Z "/><g transform="translate(142.382500031 71.291999937)"><g/></g><path fill="none" stroke="#000000" stroke-width="0.384" stroke-linecap="round" stroke-linejoin="miter" stroke-miterlimit="4" transform="translate(114.548000031 90.055999937)" d="M 0 0l 0 41.264000126"/><path fill="none" transform="translate(114.548000031 110.688)" d="M 0 0Z "/><g transform="translate(114.548000031 110.688)"><g/></g><path fill="none" stroke="#000000" stroke-width="0.384" stroke-linecap="round" stroke-linejoin="miter" stroke-miterlimit="4" transform="translate(137.176000031 90.055999937)" d="M 0 0m 16.07 0l -16.07 15"/><path fill="none" transform="translate(145.211000031 97.555999937)" d="M 0 0Z "/><g transform="translate(145.211000031 97.555999937)"><g/></g><path fill="none" stroke="#000000" stroke-width="0.384" stroke-linecap="round" stroke-linejoin="miter" stroke-miterlimit="4" transform="translate(153.246000031 90.055999937)" d="M 0 0l 16.07 15"/><path fill="none" transform="translate(161.281000031 97.555999937)" d="M 0 0Z "/><g transform="translate(161.281000031 97.555999937)"><g/></g><path fill="none" stroke="#000000" stroke-width="0.384" stroke-linecap="round" stroke-linejoin="miter" stroke-miterlimit="4" transform="translate(137.176000031 116.319999937)" d="M 0 0v 15.000000126"/><path fill="none" transform="translate(137.176000031 123.82)" d="M 0 0Z "/><g transform="translate(137.176000031 123.82)"><g/></g><path fill="none" stroke="#000000" stroke-width="0.384" stroke-linecap="round" stroke-linejoin="miter" stroke-miterlimit="4" transform="translate(169.316000031 116.319999937)" d="M 0 0m 0 0l 0 15.000000126"/><path fill="none" transform="translate(169.316000031 123.82)" d="M 0 0Z "/><g transform="translate(169.316000031 123.82)"><g/></g><path fill="none" transform="translate(65.226000157)" d="M 0 0v 11.264h 9.88v -11.264h -9.88Z "/><path fill="none" transform="translate(68.226000031 2.999999937)" d="M 0 0h 3.88v 5.264h -3.88v -5.264Z "/><g transform="translate(68.226 2.999999827)"><g><g transform="matrix(1 0 0 -1 0 5.264)"><use xlink:href="#gAC173AC16C94F352139132A9DCC12557" x="0" y="0" fill="#000000" fill-rule="nonzero"/></g></g></g><path fill="none" transform="translate(25.540000157 26.263999843)" d="M 0 0v 11.264h 15.92v -11.264h -15.92Z "/><path fill="none" transform="translate(28.540000031 29.263999937)" d="M 0 0h 9.92v 5.264h -9.92v -5.264Z "/><g transform="translate(28.539999969 29.263999827)"><g><g transform="matrix(1 0 0 -1 0 5.264)"><use xlink:href="#g156712AD4E387D1F60A08333255A838A" x="0" y="0" fill="#000000" fill-rule="nonzero"/><use xlink:href="#gE947EB4B5E4397664401494D2E30D146" x="5.592" y="0" fill="#000000" fill-rule="nonzero"/></g></g></g><path fill="none" transform="translate(103.282499969 26.263999843)" d="M 0 0v 11.264h 15.544v -11.264h -15.544Z "/><path fill="none" transform="translate(106.282500031 29.263999937)" d="M 0 0h 9.544v 5.264h -9.544v -5.264Z "/><g transform="translate(106.282499906 29.263999827)"><g><g transform="matrix(1 0 0 -1 0 5.264)"><use xlink:href="#g1489347BA62075BC38FD2B07245EB108" x="0" y="0" fill="#000000" fill-rule="nonzero"/><use xlink:href="#gE947EB4B5E4397664401494D2E30D146" x="5.216" y="0" fill="#000000" fill-rule="nonzero"/></g></g></g><path fill="none" transform="translate(0.472 52.527999969)" d="M 0 0v 11.264h 17.712v -11.264h -17.712Z "/><path fill="none" transform="translate(3.472000031 55.527999937)" d="M 0 0h 11.712v 5.264h -11.712v -5.264Z "/><g transform="translate(3.471999937 55.527999827)"><g><g transform="matrix(1 0 0 -1 0 5.264)"><use xlink:href="#gFE6E2B5509146F875FD8B916E3486C01" x="0" y="0" fill="#000000" fill-rule="nonzero"/><use xlink:href="#g20EDBE1E989F56AA9FBFD4A2EF5BDC35" x="5.608" y="0" fill="#000000" fill-rule="nonzero"/><use xlink:href="#g3078E795B3E2291E912DCDEB76EE36F" x="9.184" y="0" fill="#000000" fill-rule="nonzero"/></g></g></g><path fill="none" transform="translate(24.656000157 52.527999969)" d="M 0 0v 11.264h 17.688v -11.264h -17.688Z "/><path fill="none" transform="translate(27.656000031 55.527999937)" d="M 0 0h 11.688v 5.264h -11.688v -5.264Z "/><g transform="translate(27.655999984 55.527999827)"><g><g transform="matrix(1 0 0 -1 0 5.264)"><use xlink:href="#g8D1B85E3ABA097AFFEFA8B147B26839C" x="0" y="0" fill="#000000" fill-rule="nonzero"/><use xlink:href="#g13CDF673763F5DB9C25A9A976EDAD0A7" x="5.464" y="0" fill="#000000" fill-rule="nonzero"/><use xlink:href="#gD2543B0974D599BD63FF9D370974298B" x="9.512" y="0" fill="#000000" fill-rule="nonzero"/></g></g></g><path fill="none" transform="translate(51.588000031 52.527999969)" d="M 0 0v 11.264h 11.592v -11.264h -11.592Z "/><path fill="none" transform="translate(54.588000031 55.527999937)" d="M 0 0h 5.592v 5.264h -5.592v -5.264Z "/><g transform="translate(54.587999937 55.527999827)"><g><g transform="matrix(1 0 0 -1 0 5.264)"><use xlink:href="#g156712AD4E387D1F60A08333255A838A" x="0" y="0" fill="#000000" fill-rule="nonzero"/></g></g></g><path fill="none" transform="translate(80.992000157 52.527999969)" d="M 0 0v 11.264h 11.216v -11.264h -11.216Z "/><path fill="none" transform="translate(83.992000031 55.527999937)" d="M 0 0h 5.216v 5.264h -5.216v -5.264Z "/><g transform="translate(83.992000016 55.527999827)"><g><g transform="matrix(1 0 0 -1 0 5.264)"><use xlink:href="#g1489347BA62075BC38FD2B07245EB108" x="0" y="0" fill="#000000" fill-rule="nonzero"/></g></g></g><path fill="none" transform="translate(124.191000157 52.527999969)" d="M 0 0v 11.264h 14.656v -11.264h -14.656Z "/><path fill="none" transform="translate(127.191000031 55.527999937)" d="M 0 0h 8.656v 5.264h -8.656v -5.264Z "/><g transform="translate(127.190999953 55.527999827)"><g><g transform="matrix(1 0 0 -1 0 5.264)"><use xlink:href="#gE947EB4B5E4397664401494D2E30D146" x="0" y="0" fill="#000000" fill-rule="nonzero"/><use xlink:href="#gE947EB4B5E4397664401494D2E30D146" x="4.328" y="0" fill="#000000" fill-rule="nonzero"/></g></g></g><path fill="none" transform="translate(0 131.320000063)" d="M 0 0v 11.264h 18.656v -11.264h -18.656Z "/><path fill="none" transform="translate(3.000000031 134.319999937)" d="M 0 0h 12.656v 5.264h -12.656v -5.264Z "/><g transform="translate(2.999999969 134.319999827)"><g><g transform="matrix(1 0 0 -1 0 5.264)"><use xlink:href="#g257321D448ABEEFA4C949A97C9AEA63C" x="0" y="0" fill="#000000" fill-rule="nonzero"/><use xlink:href="#gD6C08740CFCAAF86BCA909E63B9538D" x="4.776" y="0" fill="#000000" fill-rule="nonzero"/><use xlink:href="#g20EDBE1E989F56AA9FBFD4A2EF5BDC35" x="9.08" y="0" fill="#000000" fill-rule="nonzero"/></g></g></g><path fill="none" transform="translate(25.444000157 131.320000063)" d="M 0 0v 11.264h 16.112v -11.264h -16.112Z "/><path fill="none" transform="translate(28.444000031 134.319999937)" d="M 0 0h 10.112v 5.264h -10.112v -5.264Z "/><g transform="translate(28.444000016 134.319999827)"><g><g transform="matrix(1 0 0 -1 0 5.264)"><use xlink:href="#gD4D4B150EC498A90F8C7732D61AFCDA6" x="0" y="0" fill="#000000" fill-rule="nonzero"/><use xlink:href="#g2BFBF805A6B9D0BF9A5DDB8FE340411" x="3.944" y="0" fill="#000000" fill-rule="nonzero"/><use xlink:href="#g7C37A9C463BC9BF55909BE5329E2D5BC" x="6.112" y="0" fill="#000000" fill-rule="nonzero"/></g></g></g><path fill="none" transform="translate(48.344000031 131.320000063)" d="M 0 0v 11.264h 18.08v -11.264h -18.08Z "/><path fill="none" transform="translate(51.344000031 134.319999937)" d="M 0 0h 12.08v 5.264h -12.08v -5.264Z "/><g transform="translate(51.343999969 134.319999827)"><g><g transform="matrix(1 0 0 -1 0 5.264)"><use xlink:href="#g13CDF673763F5DB9C25A9A976EDAD0A7" x="0" y="0" fill="#000000" fill-rule="nonzero"/><use xlink:href="#g2B678EF10194558DA6DED0CDF87DA3E4" x="4.048" y="0" fill="#000000" fill-rule="nonzero"/><use xlink:href="#g7C37A9C463BC9BF55909BE5329E2D5BC" x="8.08" y="0" fill="#000000" fill-rule="nonzero"/></g></g></g><path fill="none" transform="translate(72.424000157 131.320000063)" d="M 0 0v 11.264h 28.352v -11.264h -28.352Z "/><path fill="none" transform="translate(75.424000031 134.319999937)" d="M 0 0h 22.352v 5.264h -22.352v -5.264Z "/><g transform="translate(75.424000016 134.319999827)"><g><g transform="matrix(1 0 0 -1 0 5.264)"><use xlink:href="#gD4D4B150EC498A90F8C7732D61AFCDA6" x="0" y="0" fill="#000000" fill-rule="nonzero"/><use xlink:href="#g7CADDE05683A2F282E92796EAE7002E6" x="3.944" y="0" fill="#000000" fill-rule="nonzero"/><use xlink:href="#gF14903D79C881A9B6AC2EE7D8BED6F03" x="7.6" y="0" fill="#000000" fill-rule="nonzero"/><use xlink:href="#gC65908FBCF60F62A897EEDA0AB2A464A" x="10.576" y="0" fill="#000000" fill-rule="nonzero"/><use xlink:href="#g20EDBE1E989F56AA9FBFD4A2EF5BDC35" x="14.672" y="0" fill="#000000" fill-rule="nonzero"/><use xlink:href="#g13CDF673763F5DB9C25A9A976EDAD0A7" x="18.304" y="0" fill="#000000" fill-rule="nonzero"/></g></g></g><path fill="none" transform="translate(109.384000063 78.791999811)" d="M 0 0v 11.264h 10.328v -11.264h -10.328Z "/><path fill="none" transform="translate(112.384000031 81.791999937)" d="M 0 0h 4.328v 5.264h -4.328v -5.264Z "/><g transform="translate(112.383999921 81.791999827)"><g><g transform="matrix(1 0 0 -1 0 5.264)"><use xlink:href="#gE947EB4B5E4397664401494D2E30D146" x="0" y="0" fill="#000000" fill-rule="nonzero"/></g></g></g><path fill="none" transform="translate(145.285999937 78.791999811)" d="M 0 0v 11.264h 15.92v -11.264h -15.92Z "/><path fill="none" transform="translate(148.286000031 81.791999937)" d="M 0 0h 9.92v 5.264h -9.92v -5.264Z "/><g transform="translate(148.285999969 81.791999827)"><g><g transform="matrix(1 0 0 -1 0 5.264)"><use xlink:href="#g156712AD4E387D1F60A08333255A838A" x="0" y="0" fill="#000000" fill-rule="nonzero"/><use xlink:href="#gE947EB4B5E4397664401494D2E30D146" x="5.592" y="0" fill="#000000" fill-rule="nonzero"/></g></g></g><path fill="none" transform="translate(108.456000063 131.320000063)" d="M 0 0v 11.264h 12.184v -11.264h -12.184Z "/><path fill="none" transform="translate(111.456000031 134.319999937)" d="M 0 0h 6.184v 5.264h -6.184v -5.264Z "/><g transform="translate(111.456 134.319999827)"><g><g transform="matrix(1 0 0 -1 0 5.264)"><use xlink:href="#g7CADDE05683A2F282E92796EAE7002E6" x="0" y="0" fill="#000000" fill-rule="nonzero"/><use xlink:href="#g3078E795B3E2291E912DCDEB76EE36F" x="3.656" y="0" fill="#000000" fill-rule="nonzero"/></g></g></g><path fill="none" transform="translate(128.319999906 105.055999937)" d="M 0 0v 11.264h 17.712v -11.264h -17.712Z "/><path fill="none" transform="translate(131.320000031 108.055999937)" d="M 0 0h 11.712v 5.264h -11.712v -5.264Z "/><g transform="translate(131.319999937 108.055999827)"><g><g transform="matrix(1 0 0 -1 0 5.264)"><use xlink:href="#gFE6E2B5509146F875FD8B916E3486C01" x="0" y="0" fill="#000000" fill-rule="nonzero"/><use xlink:href="#g20EDBE1E989F56AA9FBFD4A2EF5BDC35" x="5.608" y="0" fill="#000000" fill-rule="nonzero"/><use xlink:href="#g3078E795B3E2291E912DCDEB76EE36F" x="9.184" y="0" fill="#000000" fill-rule="nonzero"/></g></g></g><path fill="none" transform="translate(163.519999969 105.055999937)" d="M 0 0v 11.264h 11.592v -11.264h -11.592Z "/><path fill="none" transform="translate(166.520000031 108.055999937)" d="M 0 0h 5.592v 5.264h -5.592v -5.264Z "/><g transform="translate(166.519999937 108.055999827)"><g><g transform="matrix(1 0 0 -1 0 5.264)"><use xlink:href="#g156712AD4E387D1F60A08333255A838A" x="0" y="0" fill="#000000" fill-rule="nonzero"/></g></g></g><path fill="none" transform="translate(128.971999906 131.320000063)" d="M 0 0v 11.264h 16.408v -11.264h -16.408Z "/><path fill="none" transform="translate(131.972000031 134.319999937)" d="M 0 0h 10.408v 5.264h -10.408v -5.264Z "/><g transform="translate(131.971999906 134.319999827)"><g><g transform="matrix(1 0 0 -1 0 5.264)"><use xlink:href="#g3078E795B3E2291E912DCDEB76EE36F" x="0" y="0" fill="#000000" fill-rule="nonzero"/><use xlink:href="#gD6C08740CFCAAF86BCA909E63B9538D" x="2.528" y="0" fill="#000000" fill-rule="nonzero"/><use xlink:href="#g20EDBE1E989F56AA9FBFD4A2EF5BDC35" x="6.832" y="0" fill="#000000" fill-rule="nonzero"/></g></g></g><path fill="none" transform="translate(152.031999969 131.320000063)" d="M 0 0v 11.264h 34.568v -11.264h -34.568Z "/><path fill="none" transform="translate(155.032000031 134.319999937)" d="M 0 0h 28.568v 5.264h -28.568v -5.264Z "/><g transform="translate(155.031999969 134.319999827)"><g><g transform="matrix(1 0 0 -1 0 5.264)"><use xlink:href="#g58427B726775E01C628C261B90DBAC4F" x="0" y="0" fill="#000000" fill-rule="nonzero"/><use xlink:href="#g7CADDE05683A2F282E92796EAE7002E6" x="6.32" y="0" fill="#000000" fill-rule="nonzero"/><use xlink:href="#g2BFBF805A6B9D0BF9A5DDB8FE340411" x="9.976" y="0" fill="#000000" fill-rule="nonzero"/><use xlink:href="#g9CB01113ED99ABC5A5F75E5016C1499E" x="12.144" y="0" fill="#000000" fill-rule="nonzero"/><use xlink:href="#g58427B726775E01C628C261B90DBAC4F" x="14.256" y="0" fill="#000000" fill-rule="nonzero"/><use xlink:href="#g7CADDE05683A2F282E92796EAE7002E6" x="20.576" y="0" fill="#000000" fill-rule="nonzero"/><use xlink:href="#g737E31D6A5E93E22E9ED4AD10D42FE71" x="24.232" y="0" fill="#000000" fill-rule="nonzero"/></g></g></g></g></g><defs><symbol id="gAC173AC16C94F352139132A9DCC12557" overflow="visible"><path d="M 0 0m 3.16 5.048c -0.464 0.064 -0.448 0.216 -1.232 0.216c -0.808 0 -1.52 -0.536 -1.52 -1.384c 0 -0.84 0.696 -1.224 1.4 -1.496c 0.48 -0.184 1.072 -0.408 1.072 -1.192c 0 -0.648 -0.36 -0.984 -1 -0.984c -0.744 0 -1.224 0.344 -1.4 1.136c -0.104 0.032 -0.184 0.016 -0.264 -0.024c 0.032 -0.616 0.064 -0.824 0.16 -1.216c 0.504 0 0.728 -0.184 1.44 -0.184c 0.36 0 0.704 0.088 0.984 0.264c 0.464 0.288 0.752 0.776 0.752 1.288c 0 0.848 -0.64 1.224 -1.296 1.472c -0.48 0.176 -1.28 0.48 -1.28 1.152c 0 0.448 0.408 0.896 0.88 0.896c 0.776 0 1.024 -0.496 1.184 -1.024c 0.088 -0.016 0.192 -0.008 0.264 0.048c -0.032 0.384 -0.064 0.608 -0.144 1.032Z "/></symbol><symbol id="g156712AD4E387D1F60A08333255A838A" overflow="visible"><path d="M 0 0m 4.448 4.096v -2.616c 0 -0.152 0 -0.24 -0.056 -0.24c -0.032 0 -0.152 0.144 -0.384 0.44l -2.744 3.48l -1.08 0.016c -0.048 -0.048 -0.048 -0.216 0 -0.264c 0.344 -0.024 0.584 -0.304 0.632 -0.512v -3.336c 0 -0.712 -0.136 -0.76 -0.696 -0.816c -0.048 -0.048 -0.048 -0.216 0 -0.264c 0.344 0.008 0.704 0.016 0.896 0.016c 0.184 0 0.552 -0.008 0.888 -0.016c 0.048 0.048 0.048 0.216 0 0.264c -0.56 0.056 -0.696 0.088 -0.696 0.816v 2.448c 0 0.272 0 0.392 0.064 0.392c 0.048 0 0.136 -0.088 0.272 -0.264l 2.792 -3.528c 0.088 -0.12 0.192 -0.192 0.32 -0.192c 0.112 0 0.184 0.096 0.184 0.248v 3.928c 0 0.712 0.136 0.76 0.696 0.816c 0.048 0.048 0.048 0.216 0 0.264c -0.328 -0.008 -0.704 -0.016 -0.896 -0.016c -0.168 0 -0.536 0.008 -0.888 0.016c -0.048 -0.048 -0.048 -0.216 0 -0.264c 0.56 -0.056 0.696 -0.088 0.696 -0.816Z "/></symbol><symbol id="gE947EB4B5E4397664401494D2E30D146" overflow="visible"><path d="M 0 0m 0.832 4.184v -3.208c 0 -0.664 -0.136 -0.704 -0.696 -0.728c -0.048 -0.048 -0.048 -0.216 0 -0.264c 0.36 0.008 0.752 0.016 1.04 0.016c 0.28 0 0.752 -0.008 1.152 -0.016c 0.048 0.048 0.048 0.216 0 0.264c -0.624 0.032 -0.816 0.064 -0.816 0.728v 1.36c 0.176 -0.056 0.368 -0.08 0.648 -0.08c 1.456 0 1.896 0.952 1.896 1.632c 0 0.472 -0.312 1.328 -1.792 1.328c -0.304 0 -0.776 -0.056 -1.096 -0.056c -0.296 0 -0.712 0.008 -1.032 0.016c -0.048 -0.048 -0.048 -0.216 0 -0.264c 0.56 -0.024 0.696 -0.064 0.696 -0.728Z m 0.68 0.248c 0 0.232 0.12 0.512 0.696 0.512c 0.552 0 1.104 -0.184 1.104 -1.2c 0 -0.864 -0.416 -1.216 -1.192 -1.216c -0.2 0 -0.52 0.016 -0.608 0.04Z "/></symbol><symbol id="g1489347BA62075BC38FD2B07245EB108" overflow="visible"><path d="M 0 0m 3.584 4.912c 0.592 -0.04 0.592 -0.256 0.424 -0.688l -1.264 -3.208h -0.032l -1.28 3.256c -0.184 0.48 -0.136 0.584 0.408 0.64c 0.048 0.048 0.048 0.216 0 0.264c -0.32 -0.008 -0.68 -0.016 -0.968 -0.016c -0.288 0 -0.568 0.008 -0.832 0.016c -0.048 -0.048 -0.04 -0.216 0.008 -0.264c 0.44 -0.04 0.504 -0.176 0.72 -0.728l 1.576 -4.096c 0.048 -0.128 0.104 -0.184 0.184 -0.184c 0.088 0 0.144 0.072 0.192 0.184l 1.656 4.08c 0.152 0.376 0.28 0.688 0.784 0.744c 0.048 0.048 0.048 0.216 0 0.264c -0.24 -0.008 -0.52 -0.016 -0.704 -0.016c -0.184 0 -0.544 0.008 -0.872 0.016c -0.048 -0.048 -0.048 -0.216 0 -0.264Z "/></symbol><symbol id="gFE6E2B5509146F875FD8B916E3486C01" overflow="visible"><path d="M 0 0m 1.184 5.16c -0.288 0 -0.712 0.008 -1.032 0.016c -0.048 -0.048 -0.048 -0.216 0 -0.264c 0.56 -0.024 0.696 -0.064 0.696 -0.728v -3.208c 0 -0.664 -0.136 -0.704 -0.696 -0.728c -0.048 -0.048 -0.048 -0.216 0 -0.264c 0.312 0.008 0.736 0.016 1.04 0.016c 0.296 0 0.632 -0.016 1.456 -0.016c 1.128 0 2.616 0.512 2.616 2.48c 0 1.488 -1.224 2.712 -2.76 2.712c -0.568 0 -1.008 -0.016 -1.32 -0.016Z m 0.344 -4.488v 3.84c 0 0.28 0.28 0.392 0.672 0.392c 1.728 0 2.296 -1.4 2.296 -2.632c 0 -1.616 -0.968 -2.016 -2.096 -2.016c -0.784 0 -0.872 0.16 -0.872 0.416Z "/></symbol><symbol id="g20EDBE1E989F56AA9FBFD4A2EF5BDC35" overflow="visible"><path d="M 0 0m 3.088 0.744c -0.296 -0.304 -0.528 -0.432 -0.992 -0.432c -0.288 0 -0.624 0.168 -0.872 0.576c -0.16 0.264 -0.256 0.632 -0.256 1.096l 2.128 -0.016c 0.096 0 0.152 0.048 0.152 0.136c 0 0.672 -0.24 1.392 -1.352 1.392c -0.696 0 -1.6 -0.664 -1.6 -1.88c 0 -0.448 0.112 -0.88 0.376 -1.184c 0.272 -0.32 0.648 -0.512 1.224 -0.512c 0.608 0 1.04 0.28 1.36 0.696c -0.024 0.08 -0.072 0.12 -0.168 0.128Z m -2.096 1.512c 0.152 0.904 0.712 0.976 0.904 0.976c 0.304 0 0.664 -0.168 0.664 -0.84c 0 -0.072 -0.032 -0.112 -0.12 -0.112Z "/></symbol><symbol id="g3078E795B3E2291E912DCDEB76EE36F" overflow="visible"><path d="M 0 0m 0.344 3.432c -0.112 0 -0.144 -0.096 -0.144 -0.16v -0.104c 0 -0.04 0.008 -0.048 0.04 -0.048h 0.472v -2.408c 0 -0.568 0.248 -0.792 0.616 -0.792c 0.368 0 0.768 0.176 1.08 0.528c -0.016 0.08 -0.064 0.128 -0.144 0.136c -0.208 -0.16 -0.448 -0.224 -0.656 -0.224c -0.216 0 -0.264 0.24 -0.264 0.736v 2.024h 0.832c 0.08 0 0.192 0.032 0.192 0.104v 0.16c 0 0.032 -0.024 0.048 -0.064 0.048h -0.96v 0.312c 0 0.52 0.032 0.84 0.032 0.84c 0 0.048 -0.024 0.072 -0.064 0.072c -0.032 0 -0.104 -0.032 -0.176 -0.072c -0.088 -0.048 -0.168 -0.088 -0.272 -0.112c -0.096 -0.032 -0.176 -0.056 -0.176 -0.112c 0 -0.096 0.024 -0.04 0.024 -0.928Z "/></symbol><symbol id="g8D1B85E3ABA097AFFEFA8B147B26839C" overflow="visible"><path d="M 0 0m 1.24 0.632l 0.44 1.16c 0.04 0.104 0.088 0.136 0.28 0.136h 1.688l 0.464 -1.352c 0.096 -0.272 -0.208 -0.304 -0.592 -0.328c -0.048 -0.048 -0.048 -0.216 0 -0.264c 0.296 0.008 0.736 0.016 1.048 0.016c 0.328 0 0.632 -0.008 0.912 -0.016c 0.048 0.048 0.048 0.216 0 0.264c -0.312 0.032 -0.584 0.056 -0.72 0.44l -1.648 4.576c -0.12 -0.072 -0.336 -0.16 -0.44 -0.16l -1.816 -4.288c -0.208 -0.496 -0.448 -0.544 -0.8 -0.568c -0.048 -0.048 -0.048 -0.216 0 -0.264c 0.208 0.008 0.472 0.016 0.712 0.016c 0.328 0 0.728 -0.008 1.024 -0.016c 0.048 0.048 0.048 0.216 0 0.264c -0.304 0.024 -0.68 0.056 -0.552 0.384Z m 0.864 1.632c -0.176 0 -0.232 0.024 -0.2 0.104l 0.816 2.072h 0.048l 0.752 -2.176Z "/></symbol><symbol id="g13CDF673763F5DB9C25A9A976EDAD0A7" overflow="visible"><path d="M 0 0m 2.672 0.4c 0.04 0.032 0.112 0.048 0.12 -0.008c 0.024 -0.192 0.088 -0.472 0.088 -0.472c 0.064 -0.024 0.104 -0.016 0.152 0c 0.176 0.144 0.456 0.264 0.944 0.32c 0.048 0.048 0.048 0.168 0 0.216c -0.512 0.04 -0.584 0.192 -0.584 0.584v 3.624c 0 0.52 0.032 0.84 0.032 0.84c 0 0.056 -0.032 0.08 -0.104 0.08c -0.2 -0.08 -0.8 -0.192 -1.12 -0.216c -0.016 -0.064 0 -0.192 0.048 -0.24c 0.024 0 0.048 0 0.072 0c 0.352 -0.024 0.44 -0.024 0.44 -0.656v -1.024c 0 -0.056 -0.016 -0.072 -0.072 -0.072c -0.032 0 -0.36 0.136 -0.624 0.136c -0.528 0 -0.88 -0.176 -1.2 -0.48c -0.344 -0.344 -0.552 -0.816 -0.552 -1.408c 0 -0.984 0.496 -1.704 1.36 -1.704c 0.312 0 0.608 0.16 1 0.48Z m 0.088 0.592c 0 -0.152 -0.016 -0.216 -0.128 -0.312c -0.296 -0.256 -0.552 -0.384 -0.752 -0.384c -0.432 0 -0.88 0.472 -0.88 1.472c 0 0.576 0.112 0.896 0.232 1.064c 0.248 0.376 0.584 0.4 0.744 0.4c 0.288 0 0.488 -0.104 0.648 -0.288c 0.112 -0.128 0.136 -0.184 0.136 -0.432Z "/></symbol><symbol id="gD2543B0974D599BD63FF9D370974298B" overflow="visible"><path d="M 0 0m 0.904 2.536v -1.928c 0 -1.056 -0.032 -2.04 -0.432 -2.04c -0.088 0 -0.192 0.032 -0.248 0.088c -0.08 0.08 -0.176 0.208 -0.352 0.208c -0.088 0 -0.256 -0.16 -0.256 -0.304c 0 -0.232 0.288 -0.344 0.44 -0.344c 0.168 0 0.584 0.024 0.88 0.272c 0.376 0.304 0.6 0.88 0.6 2.392v 1.688c 0 0.4 0.032 0.912 0.032 0.912c 0 0.032 -0.04 0.056 -0.104 0.056c -0.224 -0.088 -0.544 -0.16 -1.096 -0.232c -0.016 -0.048 0 -0.176 0.016 -0.224c 0.432 -0.04 0.52 -0.088 0.52 -0.544Z m -0.112 2.256c 0 -0.208 0.192 -0.416 0.384 -0.416c 0.224 0 0.416 0.216 0.416 0.384c 0 0.192 -0.168 0.416 -0.384 0.416c -0.192 0 -0.416 -0.192 -0.416 -0.384Z "/></symbol><symbol id="g257321D448ABEEFA4C949A97C9AEA63C" overflow="visible"><path d="M 0 0m 2.8 0.976v 3.056c 0 0.512 0.08 0.816 0.368 0.816h 0.176c 0.6 0 0.976 -0.208 1.112 -0.824c 0.088 0 0.2 0.008 0.272 0.04c -0.056 0.368 -0.096 0.776 -0.104 1.136c 0 0.008 -0.016 0.024 -0.024 0.024c -0.272 -0.024 -1.16 -0.064 -1.792 -0.064h -0.688c -0.616 0 -1.56 0.04 -1.864 0.064c -0.016 0 -0.032 -0.016 -0.032 -0.024c -0.032 -0.36 -0.112 -0.776 -0.2 -1.16c 0.08 -0.032 0.176 -0.04 0.272 -0.04c 0.16 0.64 0.528 0.848 1.056 0.848h 0.392c 0.296 0 0.376 -0.304 0.376 -0.792v -3.08c 0 -0.664 -0.136 -0.704 -0.776 -0.728c -0.048 -0.048 -0.048 -0.216 0 -0.264c 0.392 0.008 0.8 0.016 1.12 0.016c 0.304 0 0.712 -0.008 1.112 -0.016c 0.048 0.048 0.048 0.216 0 0.264c -0.64 0.024 -0.776 0.064 -0.776 0.728Z "/></symbol><symbol id="gD6C08740CFCAAF86BCA909E63B9538D" overflow="visible"><path d="M 0 0m 1.336 2.288c 0 0.168 0.072 0.264 0.136 0.336c 0.304 0.296 0.712 0.472 1.024 0.472c 0.16 0 0.328 -0.104 0.424 -0.288c 0.08 -0.16 0.096 -0.376 0.096 -0.616v -1.216c 0 -0.656 -0.08 -0.688 -0.496 -0.728c -0.04 -0.048 -0.04 -0.216 0 -0.264c 0.224 0.008 0.496 0.016 0.816 0.016c 0.32 0 0.584 -0.008 0.848 -0.016c 0.04 0.048 0.04 0.216 0 0.264c -0.448 0.04 -0.536 0.072 -0.536 0.728v 1.192c 0 0.44 -0.032 0.832 -0.216 1.072c -0.136 0.176 -0.384 0.272 -0.664 0.272c -0.392 0 -0.872 -0.104 -1.36 -0.648c 0 -0.008 -0.008 -0.008 -0.016 -0.016c -0.024 -0.032 -0.064 -0.08 -0.064 0.016l 0.008 1.8c 0 0.52 0.032 0.84 0.032 0.84c 0 0.056 -0.032 0.08 -0.104 0.08c -0.2 -0.08 -0.8 -0.192 -1.12 -0.216c -0.016 -0.064 0 -0.192 0.048 -0.24c 0.024 0 0.048 0 0.072 0c 0.352 -0.024 0.44 -0.024 0.44 -0.656v -3.496c 0 -0.664 -0.096 -0.696 -0.56 -0.728c -0.048 -0.048 -0.048 -0.216 0 -0.264c 0.264 0.008 0.56 0.016 0.88 0.016c 0.304 0 0.568 -0.008 0.792 -0.016c 0.048 0.048 0.048 0.216 0 0.264c -0.408 0.032 -0.48 0.064 -0.48 0.728Z "/></symbol><symbol id="gD4D4B150EC498A90F8C7732D61AFCDA6" overflow="visible"><path d="M 0 0m 1.336 3.152c -0.048 -0.048 -0.08 -0.032 -0.08 0.04v 1.472c 0 0.52 0.032 0.84 0.032 0.84c 0 0.056 -0.032 0.08 -0.104 0.08c -0.2 -0.08 -0.8 -0.192 -1.12 -0.216c -0.016 -0.064 0 -0.192 0.048 -0.24c 0.024 0 0.048 0 0.072 0c 0.352 -0.024 0.44 -0.024 0.44 -0.656v -3.904c 0 -0.312 -0.008 -0.456 -0.032 -0.568c 0.04 -0.064 0.08 -0.096 0.176 -0.096c 0.048 0.048 0.128 0.12 0.192 0.192c 0.08 0.096 0.128 0.096 0.216 0.024c 0.184 -0.152 0.424 -0.2 0.704 -0.2c 0.816 0 1.768 0.744 1.768 2.016c 0 0.976 -0.72 1.576 -1.416 1.576c -0.344 0 -0.648 -0.136 -0.896 -0.36Z m 0.056 -0.248c 0.208 0.184 0.448 0.256 0.68 0.256c 0.488 0 0.888 -0.592 0.888 -1.368c 0 -0.912 -0.368 -1.6 -1.128 -1.6c -0.248 0 -0.416 0.176 -0.576 0.376v 2c 0 0.168 0.032 0.248 0.136 0.336Z "/></symbol><symbol id="g2BFBF805A6B9D0BF9A5DDB8FE340411" overflow="visible"><path d="M 0 0m 1.448 0.976v 1.592c 0 0.4 0.032 0.912 0.032 0.912c 0 0.032 -0.04 0.056 -0.104 0.056c -0.224 -0.088 -0.544 -0.16 -1.096 -0.232c -0.016 -0.048 0 -0.176 0.016 -0.224c 0.44 -0.04 0.52 -0.088 0.52 -0.544v -1.56c 0 -0.664 -0.088 -0.688 -0.576 -0.728c -0.048 -0.048 -0.048 -0.216 0 -0.264c 0.264 0.008 0.576 0.016 0.896 0.016c 0.32 0 0.624 -0.008 0.888 -0.016c 0.048 0.048 0.048 0.216 0 0.264c -0.488 0.032 -0.576 0.064 -0.576 0.728Z m -0.728 3.816c 0 -0.208 0.192 -0.416 0.384 -0.416c 0.224 0 0.416 0.216 0.416 0.384c 0 0.192 -0.168 0.416 -0.384 0.416c -0.192 0 -0.416 -0.192 -0.416 -0.384Z "/></symbol><symbol id="g7C37A9C463BC9BF55909BE5329E2D5BC" overflow="visible"><path d="M 0 0m 3.552 3.096c 0.152 0 0.296 0.144 0.296 0.304c 0 0.168 -0.152 0.296 -0.368 0.296c -0.208 0 -0.592 -0.136 -0.8 -0.408c -0.096 0.064 -0.36 0.224 -0.832 0.224c -0.712 0 -1.368 -0.48 -1.368 -1.216c 0 -0.432 0.192 -0.68 0.416 -0.896c -0.224 -0.192 -0.352 -0.536 -0.352 -0.808c 0 -0.288 0.16 -0.512 0.368 -0.616c -0.432 -0.256 -0.656 -0.624 -0.656 -0.968c 0 -0.696 0.656 -0.912 1.272 -0.912c 1.08 0 2.248 0.52 2.248 1.384c 0 0.256 -0.12 0.456 -0.352 0.648c -0.312 0.256 -0.872 0.264 -1.168 0.264c -0.144 0 -0.344 -0.016 -0.536 -0.04c -0.12 -0.008 -0.2 -0.016 -0.24 -0.016c -0.232 0 -0.512 0.112 -0.512 0.456c 0 0.16 0.048 0.328 0.144 0.464c 0.192 -0.112 0.416 -0.168 0.728 -0.168c 0.704 0 1.352 0.44 1.352 1.224c 0 0.376 -0.112 0.592 -0.344 0.832c 0.056 0.08 0.216 0.192 0.32 0.192c 0.056 0 0.112 -0.024 0.16 -0.096c 0.032 -0.064 0.136 -0.144 0.224 -0.144Z m -2.496 -3.176c 0.088 -0.024 0.216 -0.04 0.32 -0.04c 0.248 0 0.472 0.024 0.584 0.024c 0.4 0 0.736 -0.008 0.968 -0.136c 0.312 -0.176 0.408 -0.288 0.408 -0.496c 0 -0.576 -0.848 -0.88 -1.568 -0.88c -0.288 0 -0.96 0.232 -0.96 0.776c 0 0.272 0.016 0.472 0.248 0.752Z m 1.496 2.312c 0 -0.744 -0.376 -0.896 -0.672 -0.896c -0.672 0 -0.744 0.568 -0.744 1.08c 0 0.56 0.2 0.848 0.64 0.848c 0.504 0 0.776 -0.368 0.776 -1.032Z "/></symbol><symbol id="g2B678EF10194558DA6DED0CDF87DA3E4" overflow="visible"><path d="M 0 0m 0.328 1.64c 0 -0.816 0.544 -1.72 1.68 -1.72c 0.512 0 0.904 0.184 1.176 0.448c 0.36 0.352 0.52 0.856 0.52 1.344c 0 0.832 -0.456 1.8 -1.68 1.8c -0.528 0 -0.96 -0.216 -1.256 -0.56c -0.288 -0.344 -0.44 -0.808 -0.44 -1.312Z m 1.576 1.592c 0.688 0 1.112 -0.624 1.112 -1.776c 0 -1.008 -0.52 -1.256 -0.896 -1.256c -0.832 0 -1.104 1.008 -1.104 1.624c 0 0.696 0.168 1.408 0.888 1.408Z "/></symbol><symbol id="g7CADDE05683A2F282E92796EAE7002E6" overflow="visible"><path d="M 0 0m 2.344 0.384c 0.048 -0.248 0.136 -0.464 0.536 -0.464c 0.304 0 0.592 0.136 0.76 0.296c -0.016 0.096 -0.048 0.168 -0.136 0.216c -0.056 -0.048 -0.192 -0.128 -0.296 -0.128c -0.232 0 -0.24 0.312 -0.24 0.68v 1.176c 0 1.136 -0.624 1.352 -1.208 1.352c -0.656 0 -1.32 -0.432 -1.32 -0.888c 0 -0.192 0.096 -0.288 0.28 -0.288c 0.232 0 0.376 0.168 0.376 0.272c 0 0.056 -0.008 0.112 -0.024 0.144c -0.008 0.024 -0.016 0.072 -0.016 0.16c 0 0.248 0.336 0.336 0.64 0.336c 0.272 0 0.648 -0.136 0.648 -1.04c 0 -0.056 -0.024 -0.088 -0.048 -0.096l -0.688 -0.168c -0.768 -0.192 -1.32 -0.616 -1.32 -1.16c 0 -0.656 0.448 -0.864 1.008 -0.864c 0.28 0 0.52 0.064 0.872 0.336l 0.16 0.128Z m 0 1.48v -1.056c 0 -0.104 -0.048 -0.16 -0.112 -0.208c -0.208 -0.168 -0.48 -0.352 -0.704 -0.352c -0.4 0 -0.576 0.32 -0.576 0.568c 0 0.36 0.168 0.728 0.76 0.88Z "/></symbol><symbol id="gF14903D79C881A9B6AC2EE7D8BED6F03" overflow="visible"><path d="M 0 0m 1.408 2.864c -0.016 0.32 -0.024 0.528 -0.064 0.608c -0.016 0.04 -0.032 0.064 -0.096 0.064c -0.224 -0.088 -0.432 -0.16 -0.984 -0.232c -0.016 -0.048 0 -0.176 0.016 -0.224c 0.432 -0.04 0.52 -0.08 0.52 -0.544v -1.56c 0 -0.664 -0.096 -0.696 -0.592 -0.728c -0.048 -0.048 -0.048 -0.216 0 -0.264c 0.28 0.008 0.592 0.016 0.912 0.016c 0.32 0 0.688 -0.008 0.968 -0.016c 0.048 0.048 0.048 0.216 0 0.264c -0.56 0.04 -0.656 0.064 -0.656 0.728v 1.112c 0 0.208 0.096 0.392 0.192 0.536c 0.088 0.128 0.272 0.392 0.368 0.392c 0.072 0 0.144 -0.016 0.208 -0.104c 0.056 -0.08 0.152 -0.184 0.288 -0.184c 0.192 0 0.376 0.2 0.376 0.4c 0 0.152 -0.144 0.384 -0.48 0.384c -0.376 0 -0.704 -0.352 -0.888 -0.664c -0.048 -0.088 -0.088 -0.024 -0.088 0.016Z "/></symbol><symbol id="gC65908FBCF60F62A897EEDA0AB2A464A" overflow="visible"><path d="M 0 0m 0.688 0.976c 0 -0.664 -0.088 -0.696 -0.536 -0.728c -0.048 -0.048 -0.048 -0.216 0 -0.264c 0.264 0.008 0.536 0.016 0.856 0.016c 0.28 0 0.544 -0.008 0.728 -0.016c 0.048 0.048 0.048 0.216 0 0.264c -0.328 0.032 -0.416 0.064 -0.416 0.728v 0.696c 0.152 -0.008 0.264 -0.016 0.344 -0.04c 0.088 -0.064 0.16 -0.136 0.256 -0.264l 0.584 -0.784c 0.232 -0.312 0.328 -0.464 0.336 -0.56c 0 -0.024 0.008 -0.04 0.032 -0.04c 0.16 0.008 0.336 0.016 0.496 0.016c 0.248 0 0.496 -0.008 0.656 -0.016c 0.048 0.048 0.048 0.216 0 0.264c -0.272 0.032 -0.472 0.064 -0.688 0.336l -1.056 1.328c -0.032 0.04 -0.056 0.072 -0.056 0.112c 0 0.032 0 0.048 0.032 0.08l 0.704 0.728c 0.24 0.256 0.52 0.32 0.84 0.352c 0.048 0.048 0.048 0.216 0 0.264c -0.184 -0.008 -0.408 -0.016 -0.696 -0.016c -0.304 0 -0.6 0.008 -0.784 0.016c -0.048 -0.048 -0.048 -0.216 0 -0.264c 0.448 -0.032 0.256 -0.312 0.184 -0.408c -0.184 -0.232 -0.432 -0.504 -0.64 -0.656c -0.176 -0.128 -0.392 -0.224 -0.544 -0.248v 2.792c 0 0.52 0.032 0.84 0.032 0.84c 0 0.056 -0.032 0.08 -0.104 0.08c -0.2 -0.08 -0.8 -0.192 -1.12 -0.216c -0.016 -0.064 0 -0.192 0.048 -0.24c 0.024 0 0.048 0 0.072 0c 0.352 -0.024 0.44 -0.024 0.44 -0.656Z "/></symbol><symbol id="g58427B726775E01C628C261B90DBAC4F" overflow="visible"><path d="M 0 0m 1.36 2.864c -0.008 0.24 -0.024 0.528 -0.064 0.608c -0.016 0.04 -0.032 0.064 -0.096 0.064c -0.224 -0.088 -0.432 -0.16 -0.984 -0.232c -0.016 -0.048 0 -0.176 0.016 -0.224c 0.432 -0.04 0.52 -0.08 0.52 -0.544v -1.56c 0 -0.656 -0.104 -0.696 -0.544 -0.728c -0.048 -0.048 -0.048 -0.216 0 -0.264c 0.24 0.008 0.544 0.016 0.864 0.016c 0.32 0 0.568 -0.008 0.808 -0.016c 0.048 0.048 0.048 0.216 0 0.264c -0.408 0.04 -0.496 0.072 -0.496 0.728v 1.312c 0 0.168 0.072 0.264 0.136 0.336c 0.32 0.312 0.616 0.472 0.864 0.472c 0.304 0 0.528 -0.192 0.528 -0.728v -1.392c 0 -0.656 -0.064 -0.696 -0.496 -0.728c -0.04 -0.048 -0.04 -0.216 0 -0.264c 0.2 0.008 0.496 0.016 0.816 0.016c 0.32 0 0.584 -0.008 0.784 -0.016c 0.04 0.048 0.04 0.216 0 0.264c -0.4 0.032 -0.472 0.072 -0.472 0.728v 1.272c 0 0.112 0 0.224 -0.008 0.32c 0.384 0.424 0.744 0.528 1.056 0.528c 0.304 0 0.48 -0.176 0.48 -0.712v -1.408c 0 -0.656 -0.08 -0.696 -0.496 -0.728c -0.04 -0.048 -0.04 -0.216 0 -0.264c 0.2 0.008 0.496 0.016 0.816 0.016c 0.32 0 0.6 -0.008 0.824 -0.016c 0.04 0.048 0.04 0.216 0 0.264c -0.44 0.032 -0.512 0.072 -0.512 0.728v 1.264c 0 0.712 -0.12 1.272 -0.824 1.272c -0.408 0 -0.904 -0.152 -1.32 -0.592c -0.024 -0.024 -0.072 -0.064 -0.088 0.008c -0.072 0.328 -0.384 0.584 -0.8 0.584c -0.464 0 -0.88 -0.272 -1.216 -0.648c -0.04 -0.04 -0.088 -0.096 -0.096 0Z "/></symbol><symbol id="g9CB01113ED99ABC5A5F75E5016C1499E" overflow="visible"><path d="M 0 0m 0.76 0.976c 0 -0.664 -0.088 -0.704 -0.576 -0.728c -0.048 -0.048 -0.048 -0.216 0 -0.264c 0.28 0.008 0.576 0.016 0.896 0.016c 0.32 0 0.624 -0.008 0.888 -0.016c 0.048 0.048 0.048 0.216 0 0.264c -0.488 0.024 -0.576 0.064 -0.576 0.728v 3.688c 0 0.52 0.032 0.84 0.032 0.84c 0 0.056 -0.032 0.08 -0.104 0.08c -0.2 -0.08 -0.8 -0.192 -1.12 -0.216c -0.016 -0.064 0 -0.192 0.048 -0.24c 0.464 -0.032 0.512 -0.056 0.512 -0.656Z "/></symbol><symbol id="g737E31D6A5E93E22E9ED4AD10D42FE71" overflow="visible"><path d="M 0 0m 1.472 2.864c -0.048 -0.056 -0.096 -0.072 -0.096 0c -0.008 0.216 -0.024 0.528 -0.064 0.608c -0.016 0.04 -0.032 0.064 -0.096 0.064c -0.224 -0.088 -0.432 -0.16 -0.984 -0.232c -0.016 -0.048 0 -0.176 0.016 -0.224c 0.432 -0.04 0.52 -0.08 0.52 -0.544v -1.56c 0 -0.656 -0.08 -0.688 -0.56 -0.728c -0.048 -0.048 -0.048 -0.216 0 -0.264c 0.24 0.008 0.56 0.016 0.88 0.016c 0.32 0 0.56 -0.008 0.8 -0.016c 0.048 0.048 0.048 0.216 0 0.264c -0.408 0.04 -0.488 0.072 -0.488 0.728v 1.312c 0 0.168 0.072 0.264 0.136 0.336c 0.304 0.296 0.664 0.472 0.976 0.472c 0.16 0 0.328 -0.104 0.424 -0.288c 0.08 -0.16 0.096 -0.376 0.096 -0.616v -1.216c 0 -0.656 -0.08 -0.688 -0.496 -0.728c -0.04 -0.048 -0.04 -0.216 0 -0.264c 0.24 0.008 0.496 0.016 0.816 0.016c 0.32 0 0.608 -0.008 0.848 -0.016c 0.04 0.048 0.04 0.216 0 0.264c -0.448 0.04 -0.536 0.072 -0.536 0.728v 1.192c 0 0.44 -0.032 0.824 -0.216 1.072c -0.136 0.176 -0.384 0.272 -0.664 0.272c -0.392 0 -0.84 -0.104 -1.312 -0.648Z "/></symbol></defs></svg>