<?xml version="1.0" encoding="UTF-8" standalone="no"?>
<svg
   width="2087.01pt"
   height="735.67pt"
   viewBox="0 0 2087.01 735.67"
   version="1.2"
   id="svg30"
   xmlns="http://www.w3.org/2000/svg"
   xmlns:svg="http://www.w3.org/2000/svg">
  <defs
     id="defs2">
    <clipPath
       id="clip1">
      <path
         d="M 2008 298 L 2087.011719 298 L 2087.011719 439 L 2008 439 Z M 2008 298 "
         id="path1" />
    </clipPath>
    <clipPath
       id="clip2">
      <path
         d="M 69 0 L 805 0 L 805 735.671875 L 69 735.671875 Z M 69 0 "
         id="path2" />
    </clipPath>
  </defs>
  <g
     id="surface1">
    <path
       style=" stroke:none;fill-rule:nonzero;fill:rgb(14.401245%,28.234863%,56.407166%);fill-opacity:1;"
       d="M 1003.519531 237.984375 L 1061.679688 97.996094 L 1046.328125 97.996094 L 996.890625 220.554688 L 947.828125 97.996094 L 932.484375 97.996094 L 990.261719 237.984375 L 1003.519531 237.984375 "
       id="path3" />
    <path
       style=" stroke:none;fill-rule:nonzero;fill:rgb(14.401245%,28.234863%,56.407166%);fill-opacity:1;"
       d="M 1097.28125 110.6875 L 1119.449219 110.6875 C 1130.429688 110.6875 1141.800781 110.6875 1151.078125 117.316406 C 1159.039062 122.8125 1164.148438 132.660156 1164.148438 142.320312 C 1164.148438 154.824219 1157.519531 165.433594 1145.96875 170.734375 C 1136.691406 174.902344 1125.320312 174.523438 1115.46875 174.523438 L 1111.300781 174.523438 L 1158.851562 237.984375 L 1176.28125 237.984375 L 1136.878906 185.699219 C 1159.609375 185.132812 1178.171875 166.566406 1178.171875 143.648438 C 1178.171875 127.355469 1170.589844 112.960938 1156.390625 104.816406 C 1144.640625 98.183594 1129.871094 97.996094 1116.609375 97.996094 L 1083.269531 97.996094 L 1083.269531 237.984375 L 1097.28125 237.984375 L 1097.28125 110.6875 "
       id="path4" />
    <path
       style=" stroke:none;fill-rule:nonzero;fill:rgb(14.401245%,28.234863%,56.407166%);fill-opacity:1;"
       d="M 1217.570312 97.996094 L 1203.550781 97.996094 L 1203.550781 237.984375 L 1217.570312 237.984375 L 1217.570312 97.996094 "
       id="path5" />
    <path
       style=" stroke:none;fill-rule:nonzero;fill:rgb(14.401245%,28.234863%,56.407166%);fill-opacity:1;"
       d="M 1276.671875 240.445312 C 1288.21875 240.445312 1299.210938 235.898438 1306.601562 226.617188 C 1313.980469 217.523438 1313.421875 209.566406 1314.171875 198.582031 L 1314.171875 97.996094 L 1300.148438 97.996094 L 1300.148438 194.414062 C 1300.148438 200.285156 1300.339844 207.484375 1298.449219 212.980469 C 1295.230469 221.691406 1287.269531 226.996094 1277.988281 226.996094 C 1264.730469 226.996094 1254.121094 218.09375 1253.179688 204.832031 L 1239.351562 204.832031 C 1239.921875 225.101562 1256.210938 240.445312 1276.671875 240.445312 "
       id="path6" />
    <path
       style=" stroke:none;fill-rule:nonzero;fill:rgb(14.401245%,28.234863%,56.407166%);fill-opacity:1;"
       d="M 1424.800781 225.289062 L 1362.28125 225.289062 L 1362.28125 173.765625 L 1422.710938 173.765625 L 1422.710938 161.074219 L 1362.28125 161.074219 L 1362.28125 110.6875 L 1424.800781 110.6875 L 1424.800781 97.996094 L 1348.269531 97.996094 L 1348.269531 237.984375 L 1424.800781 237.984375 L 1424.800781 225.289062 "
       id="path7" />
    <path
       style=" stroke:none;fill-rule:nonzero;fill:rgb(14.401245%,28.234863%,56.407166%);fill-opacity:1;"
       d="M 1026.25 383.789062 C 1026.25 394.777344 1025.308594 405.953125 1018.488281 415.046875 C 1012.609375 423.191406 1002.570312 427.738281 992.726562 427.738281 C 981.738281 427.738281 971.320312 422.433594 965.445312 413.152344 C 959.953125 404.4375 959.007812 393.828125 959.007812 383.789062 L 959.007812 298.738281 L 944.988281 298.738281 L 944.988281 383.789062 C 944.988281 398.566406 946.503906 412.582031 956.164062 424.515625 C 965.066406 435.316406 978.707031 441.1875 992.726562 441.1875 C 1007.121094 441.1875 1021.140625 434.933594 1029.851562 423.378906 C 1038.949219 411.636719 1040.269531 397.996094 1040.269531 383.789062 L 1040.269531 298.738281 L 1026.25 298.738281 L 1026.25 383.789062 "
       id="path8" />
    <path
       style=" stroke:none;fill-rule:nonzero;fill:rgb(14.401245%,28.234863%,56.407166%);fill-opacity:1;"
       d="M 1185.75 298.738281 L 1171.730469 298.738281 L 1171.730469 414.855469 L 1093.308594 298.738281 L 1074.359375 298.738281 L 1074.359375 438.722656 L 1088.378906 438.722656 L 1088.378906 315.597656 L 1171.730469 438.722656 L 1185.75 438.722656 L 1185.75 298.738281 "
       id="path9" />
    <path
       style=" stroke:none;fill-rule:nonzero;fill:rgb(14.401245%,28.234863%,56.407166%);fill-opacity:1;"
       d="M 1233.859375 298.738281 L 1219.839844 298.738281 L 1219.839844 438.722656 L 1233.859375 438.722656 L 1233.859375 298.738281 "
       id="path10" />
    <path
       style=" stroke:none;fill-rule:nonzero;fill:rgb(14.401245%,28.234863%,56.407166%);fill-opacity:1;"
       d="M 1319.859375 421.296875 L 1270.789062 298.738281 L 1255.449219 298.738281 L 1313.230469 438.722656 L 1326.480469 438.722656 L 1384.640625 298.738281 L 1369.300781 298.738281 L 1319.859375 421.296875 "
       id="path11" />
    <path
       style=" stroke:none;fill-rule:nonzero;fill:rgb(14.401245%,28.234863%,56.407166%);fill-opacity:1;"
       d="M 1482.761719 311.429688 L 1482.761719 298.738281 L 1406.230469 298.738281 L 1406.230469 438.722656 L 1482.761719 438.722656 L 1482.761719 426.03125 L 1420.25 426.03125 L 1420.25 374.507812 L 1480.671875 374.507812 L 1480.671875 361.816406 L 1420.25 361.816406 L 1420.25 311.429688 L 1482.761719 311.429688 "
       id="path12" />
    <path
       style=" stroke:none;fill-rule:nonzero;fill:rgb(14.401245%,28.234863%,56.407166%);fill-opacity:1;"
       d="M 1607.96875 344.390625 C 1607.96875 328.097656 1600.390625 313.699219 1586.179688 305.558594 C 1574.441406 298.925781 1559.660156 298.738281 1546.398438 298.738281 L 1513.058594 298.738281 L 1513.058594 438.722656 L 1527.078125 438.722656 L 1527.078125 311.429688 L 1549.238281 311.429688 C 1560.230469 311.429688 1571.601562 311.429688 1580.878906 318.058594 C 1588.828125 323.550781 1593.949219 333.402344 1593.949219 343.0625 C 1593.949219 355.566406 1587.320312 366.175781 1575.761719 371.476562 C 1566.480469 375.644531 1555.121094 375.265625 1545.269531 375.265625 L 1541.101562 375.265625 L 1588.640625 438.722656 L 1606.070312 438.722656 L 1566.671875 386.441406 C 1589.398438 385.875 1607.96875 367.308594 1607.96875 344.390625 "
       id="path13" />
    <path
       style=" stroke:none;fill-rule:nonzero;fill:rgb(14.401245%,28.234863%,56.407166%);fill-opacity:1;"
       d="M 1696.050781 370.910156 C 1687.898438 363.523438 1679.191406 361.816406 1669.148438 358.976562 C 1655.511719 355.1875 1641.488281 351.207031 1641.488281 334.351562 C 1641.488281 321.089844 1651.910156 309.914062 1665.550781 309.914062 C 1679.941406 309.914062 1690.171875 320.144531 1691.121094 334.351562 L 1705.710938 334.351562 C 1705.898438 312.945312 1688.46875 296.464844 1667.25 296.464844 C 1645.28125 296.464844 1627.46875 311.617188 1627.46875 334.160156 C 1627.46875 344.199219 1631.449219 353.671875 1639.21875 360.300781 C 1646.230469 366.363281 1655.128906 368.636719 1663.839844 370.910156 C 1671.800781 372.992188 1679 374.886719 1685.441406 380.191406 C 1691.308594 384.925781 1695.101562 392.503906 1695.101562 400.082031 C 1695.101562 416.183594 1682.03125 427.738281 1666.121094 427.738281 C 1650.390625 427.738281 1638.460938 414.855469 1638.078125 399.511719 L 1623.121094 399.511719 C 1622.929688 423.949219 1642.628906 441.1875 1666.5 441.1875 C 1689.230469 441.1875 1709.121094 423.378906 1709.121094 400.269531 C 1709.121094 389.09375 1704.378906 378.105469 1696.050781 370.910156 "
       id="path14" />
    <path
       style=" stroke:none;fill-rule:nonzero;fill:rgb(14.401245%,28.234863%,56.407166%);fill-opacity:1;"
       d="M 1732.980469 438.722656 L 1747 438.722656 L 1747 298.738281 L 1732.980469 298.738281 L 1732.980469 438.722656 "
       id="path15" />
    <path
       style=" stroke:none;fill-rule:nonzero;fill:rgb(14.401245%,28.234863%,56.407166%);fill-opacity:1;"
       d="M 1768.019531 311.429688 L 1800.21875 311.429688 L 1800.21875 438.722656 L 1814.238281 438.722656 L 1814.238281 311.429688 L 1846.070312 311.429688 L 1846.070312 298.738281 L 1768.019531 298.738281 L 1768.019531 311.429688 "
       id="path16" />
    <path
       style=" stroke:none;fill-rule:nonzero;fill:rgb(14.401245%,28.234863%,56.407166%);fill-opacity:1;"
       d="M 1867.089844 438.722656 L 1943.621094 438.722656 L 1943.621094 426.03125 L 1881.109375 426.03125 L 1881.109375 374.507812 L 1941.53125 374.507812 L 1941.53125 361.816406 L 1881.109375 361.816406 L 1881.109375 311.429688 L 1943.621094 311.429688 L 1943.621094 298.738281 L 1867.089844 298.738281 L 1867.089844 438.722656 "
       id="path17" />
    <path
       style=" stroke:none;fill-rule:nonzero;fill:rgb(14.401245%,28.234863%,56.407166%);fill-opacity:1;"
       d="M 1973.921875 438.722656 L 1987.941406 438.722656 L 1987.941406 298.738281 L 1973.921875 298.738281 L 1973.921875 438.722656 "
       id="path18" />
    <g
       clip-path="url(#clip1)"
       clip-rule="nonzero"
       id="g19">
      <path
         style=" stroke:none;fill-rule:nonzero;fill:rgb(14.401245%,28.234863%,56.407166%);fill-opacity:1;"
         d="M 2008.960938 298.738281 L 2008.960938 311.429688 L 2041.171875 311.429688 L 2041.171875 438.722656 L 2055.179688 438.722656 L 2055.179688 311.429688 L 2087.011719 311.429688 L 2087.011719 298.738281 L 2008.960938 298.738281 "
         id="path19" />
    </g>
    <path
       style=" stroke:none;fill-rule:nonzero;fill:rgb(14.401245%,28.234863%,56.407166%);fill-opacity:1;"
       d="M 1005.800781 622.605469 C 997.269531 626.964844 985.714844 626.964844 976.242188 626.773438 L 959.007812 626.773438 L 959.007812 572.027344 L 973.78125 572.027344 C 983.0625 572.027344 993.292969 571.839844 1002.011719 574.871094 C 1012.800781 578.65625 1019.621094 588.128906 1019.429688 600.0625 C 1019.621094 608.96875 1013.75 618.4375 1005.800781 622.605469 Z M 959.007812 512.167969 L 975.296875 512.167969 C 983.632812 511.789062 993.671875 511.980469 1000.871094 516.335938 C 1007.308594 520.316406 1012.050781 528.082031 1012.050781 535.65625 C 1012.050781 543.425781 1007.5 551.570312 1000.679688 555.171875 C 992.726562 559.527344 983.0625 559.335938 974.160156 559.335938 L 959.007812 559.335938 Z M 1010.53125 564.640625 C 1020.191406 557.820312 1026.058594 548.730469 1026.058594 536.605469 C 1026.058594 524.484375 1019.621094 513.117188 1009.578125 506.484375 C 999.921875 500.234375 988.9375 499.476562 977.761719 499.476562 L 944.988281 499.476562 L 944.988281 639.464844 L 977.949219 639.464844 C 991.96875 639.273438 1004.089844 639.65625 1016.398438 631.886719 C 1027.199219 625.070312 1033.640625 612.566406 1033.640625 599.875 C 1033.640625 583.773438 1025.308594 570.703125 1010.53125 564.640625 "
       id="path20" />
    <path
       style=" stroke:none;fill-rule:nonzero;fill:rgb(14.401245%,28.234863%,56.407166%);fill-opacity:1;"
       d="M 1153.921875 545.128906 C 1153.921875 528.839844 1146.351562 514.441406 1132.140625 506.296875 C 1120.390625 499.667969 1105.621094 499.476562 1092.359375 499.476562 L 1059.019531 499.476562 L 1059.019531 639.464844 L 1073.039062 639.464844 L 1073.039062 512.167969 L 1095.199219 512.167969 C 1106.191406 512.167969 1117.550781 512.167969 1126.828125 518.800781 C 1134.789062 524.292969 1139.898438 534.144531 1139.898438 543.804688 C 1139.898438 556.304688 1133.269531 566.914062 1121.71875 572.21875 C 1112.441406 576.386719 1101.070312 576.007812 1091.21875 576.007812 L 1087.050781 576.007812 L 1134.601562 639.464844 L 1152.03125 639.464844 L 1112.628906 587.183594 C 1135.359375 586.613281 1153.921875 568.050781 1153.921875 545.128906 "
       id="path21" />
    <path
       style=" stroke:none;fill-rule:nonzero;fill:rgb(14.401245%,28.234863%,56.407166%);fill-opacity:1;"
       d="M 1260.570312 584.53125 C 1260.570312 595.519531 1259.621094 606.695312 1252.800781 615.785156 C 1246.929688 623.933594 1236.890625 628.476562 1227.039062 628.476562 C 1216.050781 628.476562 1205.628906 623.175781 1199.761719 613.890625 C 1194.269531 605.179688 1193.320312 594.570312 1193.320312 584.53125 L 1193.320312 499.476562 L 1179.300781 499.476562 L 1179.300781 584.53125 C 1179.300781 599.304688 1180.820312 613.324219 1190.480469 625.257812 C 1199.378906 636.054688 1213.019531 641.925781 1227.039062 641.925781 C 1241.429688 641.925781 1255.449219 635.675781 1264.171875 624.121094 C 1273.261719 612.378906 1274.578125 598.738281 1274.578125 584.53125 L 1274.578125 499.476562 L 1260.570312 499.476562 L 1260.570312 584.53125 "
       id="path22" />
    <path
       style=" stroke:none;fill-rule:nonzero;fill:rgb(14.401245%,28.234863%,56.407166%);fill-opacity:1;"
       d="M 1371.378906 571.648438 C 1363.230469 564.261719 1354.519531 562.558594 1344.480469 559.714844 C 1330.839844 555.925781 1316.820312 551.949219 1316.820312 535.089844 C 1316.820312 521.828125 1327.238281 510.652344 1340.878906 510.652344 C 1355.28125 510.652344 1365.5 520.882812 1366.449219 535.089844 L 1381.039062 535.089844 C 1381.230469 513.683594 1363.800781 497.203125 1342.578125 497.203125 C 1320.609375 497.203125 1302.800781 512.359375 1302.800781 534.902344 C 1302.800781 544.941406 1306.78125 554.410156 1314.550781 561.042969 C 1321.558594 567.101562 1330.460938 569.378906 1339.171875 571.648438 C 1347.128906 573.734375 1354.328125 575.628906 1360.769531 580.933594 C 1366.640625 585.667969 1370.429688 593.242188 1370.429688 600.820312 C 1370.429688 616.921875 1357.359375 628.476562 1341.449219 628.476562 C 1325.730469 628.476562 1313.789062 615.597656 1313.410156 600.253906 L 1298.449219 600.253906 C 1298.261719 624.6875 1317.960938 641.925781 1341.828125 641.925781 C 1364.558594 641.925781 1384.449219 624.121094 1384.449219 601.011719 C 1384.449219 589.835938 1379.710938 578.847656 1371.378906 571.648438 "
       id="path23" />
    <path
       style=" stroke:none;fill-rule:nonzero;fill:rgb(14.401245%,28.234863%,56.407166%);fill-opacity:1;"
       d="M 1471.011719 571.648438 C 1462.871094 564.261719 1454.148438 562.558594 1444.109375 559.714844 C 1430.46875 555.925781 1416.460938 551.949219 1416.460938 535.089844 C 1416.460938 521.828125 1426.871094 510.652344 1440.511719 510.652344 C 1454.910156 510.652344 1465.140625 520.882812 1466.089844 535.089844 L 1480.671875 535.089844 C 1480.859375 513.683594 1463.429688 497.203125 1442.21875 497.203125 C 1420.238281 497.203125 1402.441406 512.359375 1402.441406 534.902344 C 1402.441406 544.941406 1406.421875 554.410156 1414.179688 561.042969 C 1421.191406 567.101562 1430.089844 569.378906 1438.808594 571.648438 C 1446.761719 573.734375 1453.960938 575.628906 1460.398438 580.933594 C 1466.28125 585.667969 1470.058594 593.242188 1470.058594 600.820312 C 1470.058594 616.921875 1456.988281 628.476562 1441.078125 628.476562 C 1425.359375 628.476562 1413.421875 615.597656 1413.050781 600.253906 L 1398.078125 600.253906 C 1397.890625 624.6875 1417.589844 641.925781 1441.460938 641.925781 C 1464.191406 641.925781 1484.078125 624.121094 1484.078125 601.011719 C 1484.078125 589.835938 1479.351562 578.847656 1471.011719 571.648438 "
       id="path24" />
    <path
       style=" stroke:none;fill-rule:nonzero;fill:rgb(14.401245%,28.234863%,56.407166%);fill-opacity:1;"
       d="M 1507.941406 639.464844 L 1584.46875 639.464844 L 1584.46875 626.773438 L 1521.960938 626.773438 L 1521.960938 575.25 L 1582.390625 575.25 L 1582.390625 562.558594 L 1521.960938 562.558594 L 1521.960938 512.167969 L 1584.46875 512.167969 L 1584.46875 499.476562 L 1507.941406 499.476562 L 1507.941406 639.464844 "
       id="path25" />
    <path
       style=" stroke:none;fill-rule:nonzero;fill:rgb(14.401245%,28.234863%,56.407166%);fill-opacity:1;"
       d="M 1628.800781 499.476562 L 1614.78125 499.476562 L 1614.78125 639.464844 L 1686.761719 639.464844 L 1686.761719 626.773438 L 1628.800781 626.773438 L 1628.800781 499.476562 "
       id="path26" />
    <g
       clip-path="url(#clip2)"
       clip-rule="nonzero"
       id="g27">
      <path
         style=" stroke:none;fill-rule:nonzero;fill:rgb(14.401245%,28.234863%,56.407166%);fill-opacity:1;"
         d="M 159.105469 446.203125 L 159.097656 446.222656 Z M 544.890625 196.160156 L 624.675781 196.019531 C 655.820312 196.019531 687.425781 194.621094 716.246094 209.03125 C 744.601562 223.441406 764.589844 254.121094 764.589844 286.195312 C 764.589844 313.15625 752.039062 339.652344 726.9375 351.738281 C 764.589844 363.828125 785.507812 395.898438 785.507812 434.941406 C 785.507812 468.414062 770.167969 496.769531 743.671875 516.757812 C 716.246094 536.746094 681.382812 538.601562 648.378906 539.53125 L 544.828125 539.53125 Z M 69.078125 196.15625 L 158.964844 449.953125 L 159.238281 449.953125 L 235.773438 226.367188 C 235.773438 226.367188 235.882812 226.046875 236.066406 225.589844 C 241.050781 208.574219 256.851562 196.160156 275.480469 196.160156 L 294.671875 196.152344 L 353.546875 196.160156 L 353.546875 428.3125 C 353.828125 439.664062 355.054688 450.671875 360.191406 460.949219 C 368.519531 475.597656 383.917969 486.066406 402.027344 488.214844 C 402.644531 488.289062 403.265625 488.347656 403.890625 488.402344 C 405.535156 488.542969 407.203125 488.621094 408.890625 488.621094 L 408.898438 488.621094 C 410.582031 488.621094 412.246094 488.542969 413.894531 488.402344 C 414.519531 488.347656 415.140625 488.289062 415.757812 488.214844 C 433.867188 486.066406 449.265625 475.597656 457.59375 460.949219 C 462.730469 450.671875 463.957031 439.664062 464.238281 428.3125 L 464.238281 196.160156 L 525.71875 196.160156 L 525.722656 415.226562 C 525.722656 439.882812 524.191406 463.523438 514.234375 484.800781 C 496.070312 520.8125 458.203125 546.078125 413.972656 547.878906 C 412.289062 547.949219 410.597656 547.984375 408.898438 547.984375 L 408.890625 547.984375 C 407.1875 547.984375 405.496094 547.949219 403.816406 547.878906 C 359.578125 546.078125 321.71875 520.8125 303.550781 484.800781 C 293.59375 463.523438 292.0625 439.882812 292.0625 415.226562 L 292.066406 260.097656 L 291.5625 260.097656 L 290.863281 262.230469 L 190.640625 539.398438 L 128.625 539.398438 L 69.078125 378.230469 L 69.078125 309.953125 L 69.078125 735.671875 L 804.75 735.671875 L 804.75 0 L 69.078125 0 L 69.078125 196.15625 "
         id="path27" />
    </g>
    <path
       style=" stroke:none;fill-rule:nonzero;fill:rgb(14.401245%,28.234863%,56.407166%);fill-opacity:1;"
       d="M 681.382812 322.921875 C 693.46875 317.339844 700.90625 304.324219 700.90625 291.308594 C 700.90625 277.363281 692.074219 266.207031 679.523438 261.09375 C 670.105469 257.027344 651.171875 257.839844 637.6875 257.839844 L 608.738281 257.789062 L 608.738281 328.105469 L 638.152344 328.03125 C 651.636719 328.03125 669.296875 328.5 681.382812 322.921875 "
       id="path28" />
    <path
       style=" stroke:none;fill-rule:nonzero;fill:rgb(14.401245%,28.234863%,56.407166%);fill-opacity:1;"
       d="M 705.089844 465.621094 C 716.710938 457.722656 721.824219 446.566406 721.824219 432.15625 C 721.824219 415.421875 713.921875 405.191406 699.046875 396.824219 C 684.636719 389.390625 669.296875 389.855469 653.957031 389.855469 L 608.738281 389.859375 L 608.738281 477.691406 L 652.5625 477.707031 C 671.15625 477.707031 688.355469 476.78125 705.089844 465.621094 "
       id="path29" />
    <path
       style=" stroke:none;fill-rule:nonzero;fill:rgb(94.345093%,27.69928%,11.306763%);fill-opacity:1;"
       d="M 0 196.160156 L 69.078125 378.316406 L 69.078125 196.160156 L 0 196.160156 "
       id="path30" />
  </g>
</svg>
