<svg height="105.83334mm" viewBox="0 0 105.83334 105.83334" width="105.83334mm" xmlns="http://www.w3.org/2000/svg"><path d="m0 0h105.83334v105.83334h-105.83334z" fill="#fff"/><path d="m2.64584 2.645843h100.54166v100.54166h-100.54166z" fill="#237f52"/><g fill="#fff" transform="matrix(.52916667 0 0 .52916667 -1.84316 -3.258118)"><path d="m25.251531 67.02858c-1.056085-.0027-1.919521.06883-1.919521.06883l-1.297045.107684.01046 1.301903.134091 17.440313 9.820597 59.1994 48.053265.13895.422392-.60371s1.230998-1.76187 2.260627-3.94673c.514816-1.09243.990522-2.29779 1.234522-3.52363.244-1.22585.292549-2.53656-.367508-3.72302-.475181-.85414-1.248386-1.26822-1.969539-1.5388-.721153-.27057-1.465163-.40272-2.158503-.48283-1.250743-.14452-2.321231-.10473-2.52879-.0952l-31.831493-.21258c-1.644088-8.68252-2.997101-16.54337-4.862364-24.25346-1.838901-7.601131-4.482613-15.634334-8.418648-24.195805.04459-.316868.282148-1.957389.475885-4.306582.21146-2.564144.381727-5.47394-.08406-7.551637-.22349-.996905-.817816-1.822886-1.499906-2.334271-.682092-.511385-1.396794-.777127-2.082084-1.039305-1.123218-.429701-2.336244-.446466-3.39233-.449477zm-.0077 2.809451c.925012.0027 2.058978.13121 2.396793.260525.656167.251035 1.139777.469159 1.399866.664159.260088.195002.353223.299163.443927.703752.286382 1.277433.229358 4.236729.0257 6.706148-.203649 2.469434-.500894 4.528902-.500895 4.528902l-.05836.414751.17646.378629c3.95868 8.53651 6.563542 16.504522 8.394334 24.072133 1.922174 7.94535 3.304886 16.04147 5.062442 25.25178l.215364 1.1317 34.170625.23134.04237-.003s1.037627-.0519 2.142524.0757c.552449.0639 1.11059.17907 1.494348.32305.383759.14399.519137.31234.498812.2758.164542.29577.241737.93666.06808 1.80907-.173653.87241-.564804 1.91131-1.019159 2.87545-.754293 1.6006-1.399155 2.51199-1.682618 2.9352l-44.130863-.12853-9.397512-56.639334-.122969-15.854266c.185424-.0041.170806-.01345.380707-.01345zm86.499219 10.560485c-.48256.01076-1.01081.188777-1.34429.537708-.40046.419014-.39385 1.090015-.57176 1.641637-.28901.896104-.46466 1.82993-.80449 2.708019-.58638 1.515133-1.36561 2.949817-2.1189 4.389262-1.09796 2.098049-2.17267 4.220634-3.49585 6.184427-2.3348 3.46514-5.185215 6.553331-7.797564 9.814351-3.745698 4.67577-7.218816 9.20733-11.293411 13.98198-.750751.87973-1.775861 1.52655-2.823352 2.01677-.964805.45152-2.030607.71866-3.09221.80658-4.306061.35656-12.099985-.13403-12.099985-.13403l-7.25985 5.34381 26.888543-.1007s5.51524-4.92605 8.067119-7.59609c4.512127-4.72108 8.89233-9.6026 12.77177-14.85595 1.60358-2.17148 3.05078-4.46799 4.31562-6.852741.69375-1.308 1.34145-2.65471 1.78405-4.067609.46108-1.471935.75483-3.004289.89133-4.540705.23797-2.678697.89448-5.582335-.13404-8.067122-.14719-.355585-.47847-.622403-.80241-.830189-.32118-.206024-.69879-.38738-1.08028-.379314z" stroke-width="1.34437"/><path d="m95.464457 105.60906a6.2024708 6.2024708 0 0 0 -6.202722 6.2022 6.2024708 6.2024708 0 0 0 6.202722 6.20273 6.2024708 6.2024708 0 0 0 6.202203-6.20273 6.2024708 6.2024708 0 0 0 -6.202203-6.2022zm-2.175061 14.09526a3.9249618 3.9249618 0 0 0 -3.264917 1.74821l-.744657 1.04594-10.448975-.14108a2.7049298 2.7049298 0 0 0 -.176733-.006 2.7049298 2.7049298 0 0 0 -2.705261 2.70475 2.7049298 2.7049298 0 0 0 2.705261 2.70474 2.7049298 2.7049298 0 0 0 .126607-.005l6.223393-.0501-5.600175 7.7003h-10.244336s-.250902.006-.364836.0398c-.118657.0349-.30334.16123-.30334.16123l-7.843966 5.04931.0062.01a3.9249618 3.9249618 0 0 0 -1.575614 3.14037 3.9249618 3.9249618 0 0 0 3.925341 3.92483 3.9249618 3.9249618 0 0 0 1.851567-.46716l.01085.0176.321944-.21549a3.9249618 3.9249618 0 0 0 .04186-.0279l5.87406-3.93155h9.40046l1.900142-.40049 1.999878-1.79989 11.838037-14.68799-.0041-.003a3.9249618 3.9249618 0 0 0 .976168-2.58692 3.9249618 3.9249618 0 0 0 -3.924825-3.92483z" transform="matrix(1.3443703 0 0 1.3443703 -30.363791 -73.405429)"/><path d="m147.91245 73.25468-2.43153 2.544073s2.17258 2.112113 2.91158 3.02482c.8854 1.093524 1.67885 2.308365 2.42389 3.581295.75803 1.295153 1.44296 2.600295 1.96676 3.925883.53322 1.349481.93344 2.790591 1.26787 4.274627.3942 1.749308.68423 3.511351.81977 5.264611.0839 1.08692.0444 2.2516-.003 3.47639-.0391 1.019541-.11911 2.036361-.2362 3.050521v.003c-.121 1.04997-.25584 2.05952-.46268 3.0144-.27686 1.27722-.60466 2.51871-1.03445 3.68897-.32197.87665-.78569 1.78513-1.27342 2.765-.51628 1.03727-1.08184 2.06708-1.67012 3.10124-.48314.84938-.91626 1.64278-1.38597 2.3183-.36486.52477-.85806 1.07978-1.38944 1.73055-.38155.46725-1.20744 1.44919-1.20744 1.44919l2.69415 2.26896s.81551-.96996 1.24146-1.49156c.46156-.56526 1.02067-1.18376 1.55202-1.94801.61849-.88953 1.09754-1.77896 1.55686-2.58646.60506-1.06362 1.2027-2.14881 1.76182-3.27214.47372-.95168 1.00438-1.97264 1.42627-3.12139.50678-1.3799.87189-2.77855 1.1706-4.15652.2483-1.1463.3925-2.27242.51757-3.3583.12745-1.10299.21445-2.21135.25706-3.321461.0472-1.22519.10015-2.52379-.005-3.88141-.15133-1.957621-.47149-3.886621-.8955-5.768278-.3591-1.593434-.80228-3.210493-1.42836-4.794982-.6179-1.56373-1.39172-3.024725-2.20296-4.410798-.80076-1.368138-1.68584-2.732849-2.72609-4.017583-1.11604-1.378396-3.21587-3.352725-3.21587-3.352725zm-6.94515 6.821483-2.64967 2.775412s1.54705 1.514474 1.99595 2.068892c.59492.734766 1.13645 1.564968 1.65135 2.444723.52458.896281.99075 1.785931 1.34221 2.675375.35835.906945.63232 1.891154.86353 2.917136.27237 1.208697.47222 2.420418.56481 3.618118.0553.71441.0278 1.50946-.005 2.37386-.027.701-.08 1.402901-.16048 2.100851-.0846.73405-.17677 1.4265-.31472 2.06333-.19115.88175-.41809 1.72746-.70653 2.51281-.20795.56621-.5195 1.18321-.86631 1.87992-.356.71526-.74907 1.43177-1.16089 2.15572-.34542.60732-.64202 1.14784-.94481 1.58328-.22543.32422-.56277.70405-.95108 1.17963-.26062.31916-.84548 1.01568-.84548 1.01568l2.9359 2.47114s.57602-.67959.88508-1.05806c.31184-.38192.71972-.83163 1.12614-1.41586v-.003c.46426-.66799.80977-1.31399 1.12892-1.87505.43008-.75606.85822-1.53284 1.26092-2.34192.33154-.66601.72037-1.40903 1.03723-2.27173.37233-1.01383.6354-2.03055.85034-3.02205.18315-.84558.28885-1.66148.37793-2.4343.0917-.79485.15329-1.593381.18409-2.394021.0332-.86406.0727-1.80753-.005-2.8178-.10983-1.420406-.34121-2.813952-.64609-4.166942-.25809-1.145226-.57977-2.318916-1.0393-3.481941-.45402-1.148997-1.01668-2.210095-1.59925-3.205453-.57566-.983555-1.21632-1.976776-1.97996-2.919919-.85985-1.061972-2.32872-2.428752-2.32872-2.428752zm42.02245-.969708c-10.45019.605061-17.27667 10.350118-17.28235 18.659874.005 8.303451 7.38466 17.402431 16.88609 17.879551 1.09651-5.47858 2.45813-9.55286 2.32933-17.745101-.00027-5.772011-.84177-13.313165-1.93307-18.794324zm-48.94118 8.450485-2.65176 2.775411s.86712.864915 1.02124 1.055278c.28897.3569.56575.77651.83505 1.236619.27524.470247.5101.91948.68015 1.349839.17414.440738.31457.938601.43559 1.475602.14235.63178.24478 1.25865.29178 1.86671.0253.32579.0135.72743-.005 1.20256-.014.36336-.0422.72755-.084 1.09002-.0454.394651-.0948.746741-.16048 1.049721-.0998.45983-.2119.88561-.35152 1.26579-.0898.24436-.24711.55845-.44116.94829-.18513.37195-.39261.75148-.61482 1.14213-.1957.34404-.3474.61632-.47728.8031-.0831.11951-.25018.31094-.48074.5933-.13229.162-.45713.54882-.45713.54882l2.93589 2.47391s.31247-.37258.49326-.59399c.15444-.18913.39483-.45194.6593-.83228.29207-.42005.49164-.79648.66137-1.09488.24047-.42274.48512-.86531.71695-1.33109.17875-.35911.40781-.7929.60649-1.33386.22351-.6086.37812-1.20536.5016-1.77502v-.003c.11077-.5117.17096-.98724.22092-1.42071.0528-.458431.0899-.920831.10768-1.383201.0183-.47483.0427-1.02444-.005-1.64649-.0643-.83078-.19818-1.63671-.37306-2.412767-.14788-.65627-.336-1.346317-.61135-2.043172-.27261-.689933-.60466-1.31059-.93789-1.879928-.33006-.563923-.70251-1.146549-1.16018-1.711789-.56512-.697972-1.35471-1.415152-1.35471-1.415152zm-10.27217 5.194428c-2.89617-.000256-5.24403 2.347611-5.24377 5.243771.00013 2.895881 2.34789 5.243331 5.24377 5.243071 2.89561-.00013 5.24293-2.34745 5.24307-5.243071.00025-2.89588-2.34719-5.243636-5.24307-5.243771z"/></g></svg>