<svg height="105.83334mm" viewBox="0 0 105.83334 105.83334" width="105.83334mm" xmlns="http://www.w3.org/2000/svg"><g transform="translate(-114.3 -98.425)"><path d="m114.3 98.425h105.833334v105.833334h-105.833334z" fill="#fff" stroke-width=".52916667"/><path d="m116.94583335 101.07083335h100.5416673v100.5416673h-100.5416673z" fill="#085" stroke-width=".52916667"/><g fill="#fff"><path d="m151.18974 119.72706 24.9468 32.87861.0806.16123-.59945 4.36873 7.8848 10.39161c-.80607.29804-1.5211.79995-2.07533 1.45676h-7.54373v10.04951h-25.2305v-15.03835h-6.69933l-8.43101.53898c-1.19769.10395-1.33873.27995-1.63091.97514l-4.40645 10.9585v11.47475c-.008.2708.37298.56959.71262.56999h2.17971c.0156-3.98061 3.24624-7.20284 7.23056-7.20266 3.98408.00018 7.21394 3.2223 7.22954 7.20266h28.99513c.0156-3.98061 3.24571-7.20284 7.23005-7.20266 3.98407.00018 7.21445 3.2223 7.23005 7.20266h4.69119l4.49016-1.56786-.28525-8.12508h-8.76639v-2.83962c.30825-.26135.58347-.55931.81959-.88729l1.5291 2.01487 4.03593.33744.1049-.0946.0196.0258.30696-1.12706.009.0119c.71605-2.47415 1.15968-5.02999 1.92391-7.4905l-37.19635-49.02331zm8.18813.76481 5.69577 7.50652-6.47092-.0336-.84232-1.11053zm-6.31848.16743 5.31337.0279-1.32808 5.22398zm12.56668 8.06721 5.69526 7.50652-6.47093-.0341-.84232-1.11001zm-6.31796.16795 5.31182.0279-1.32757 5.22294zm12.56564 8.06617 5.69577 7.50652-6.47092-.0336-.84284-1.11053zm-6.31796.16743 5.31285.0279-1.32809 5.22449zm12.56564 8.0667 5.69577 7.50652-6.47092-.0336-.84181-1.10949zm-6.31744.16794 5.31285.0284-1.32809 5.22397zm12.56564 8.06669 5.69577 7.50704-6.47144-.0346-.84181-1.10949zm-6.31796.16796 5.31336.0279-1.32808 5.22397zm-32.89722 5.39088c-1.02996 0-1.8588.82936-1.8588 1.85932v2.25671h3.71812v-2.25671c0-1.02996-.82937-1.85932-1.85932-1.85932zm45.46337 2.67632 5.69578 7.50652-6.47093-.0341-.84232-1.11001zm-6.31847.16691 5.31336.0279-1.32808 5.22449zm-51.00154 5.55936h7.67963c.32546.008.4074.008.40359.28887v7.04453c.001.18663-.0527.23812-.26148.27233l-11.17451 1.23404c-.5783.0492-.79114-.50788-.51418-1.09916l2.80138-7.08381c.21807-.52509.62351-.65696 1.06557-.6568zm57.24973 2.67529 5.31286.0279-1.32809 5.22398zm-52.89961 12.78015c-3.18713-.00015-5.77085 2.58357-5.7707 5.77071.00013 3.18693 2.58377 5.77034 5.7707 5.77019 3.18674-.00014 5.77006-2.58346 5.77019-5.77019.00016-3.18693-2.58325-5.77057-5.77019-5.77071zm43.3741 0c-3.18693.00013-5.77034 2.58377-5.77019 5.77071.00014 3.18673 2.58346 5.77006 5.77019 5.77019 3.18694.00015 5.77057-2.58326 5.77071-5.77019.00015-3.18714-2.58357-5.77086-5.77071-5.77071z" stroke-width="3.15"/><path d="m180.89232 110.09974v8.92504h1.5875v-7.33754h23.14484v24.43055h-18.49138l-1.5875 1.5875h21.66638v-27.60555zm-5.46789 6.49934a3.0914174 3.0914174 0 0 0 -3.09128 3.09181 3.0914174 3.0914174 0 0 0 3.09128 3.09128 3.0914174 3.0914174 0 0 0 3.09129-3.09128 3.0914174 3.0914174 0 0 0 -3.09129-3.09181zm5.68183 3.02359c-.29287 0-.77637.17393-1.17978.62632-.00025.00028-.0003.00074-.00051.001l-4.47622 4.48913c-.2235.20783-.2036.5464-.2036.82166v6.18928h-6.00118c-.78814 0-1.42266.63452-1.42266 1.42265 0 .78815.63452 1.42266 1.42266 1.42266h7.41195c1.40548 0 1.43453-1.32065 1.43453-1.62264v-5.34647l5.96863 5.96863-5.20847 5.20795c-.26909.26911-.43173.60141-.49144.94464-.10448.22582-.16484.47789-.16484.74569v8.55245c0 .9575.74694 1.72858 1.67483 1.72858s1.67483-.77108 1.67483-1.72858v-8.19846l7.5861-7.56647 1.89653 1.89601h4.75526l-12.73979-12.70872h4.58009v3.38222l2.82824 2.82825c.0101-.0685.017-.13791.017-.20929v-7.41195c0-1.40545-1.19628-1.43454-1.62264-1.43454zm-.21394 11.6427v4.65812l1.5875-1.58802v-1.4826z"/></g></g></svg>