<svg height="400" viewBox="0 0 609 609" width="400" xmlns="http://www.w3.org/2000/svg"><g transform="translate(-85.219 -234.12)"><path d="m691.13 234.63-605.416.49v606.9h605.416z" fill="#085"/><path d="m435.96 290.29-.49 34.98c-100.49-35.96-235.96 33.99-237.93 172.9l55.17-.49c-1.97-87.68 89.65-156.65 183.25-113.79v84.24c46.96 35.63 42.69 126.93.49 158.62v160.09s-252.21 1.48-251.72 1.48-.49-498.03-.49-498.03z" fill="#fff"/><path d="m412.32 463.2c-68.64 25.45-52.06 157.8-.5 167.98l-104.43-.49c-54.19-11.66-64.53-145.98 1.48-167.98z" fill="#085"/><path d="m435.47 324.78.49 59.11c44.83 23.32 61.08 55.99 68.97 96.55l-33.01.49 59.11 67.49 60.1-66.5-31.03-1.48c-2.46-49.26-45.32-131.53-124.63-155.66z" fill="#fff"/></g></svg>