<svg height="400" viewBox="0 0 200 200" width="400" xmlns="http://www.w3.org/2000/svg"><path d="m0 0h200v200h-200z" fill="#fff"/><path d="m5 5h190v190h-190z" fill="#085"/><path d="m40.789857 18.354318h114.894923v161.745272l11.15485 12.27034h-112.106214l-13.943559-12.82807z" fill="#fff" stroke-width=".391278"/><g fill="#085" transform="matrix(-2.1149513 0 0 2.1149513 832.88082 -47.797255)"><path d="m18.85-4.504c0-1.452-1.18-2.648-2.648-2.648-1.46 0-2.648 1.196-2.648 2.648 0 1.468 1.188 2.648 2.648 2.648 1.464 0 2.648-1.18 2.648-2.648z" transform="matrix(2.0137286 0 0 -2.0137286 307.84703 38.022235)"/><path d="m27.984-22.467c-.728-.432-1.704-.156-2.124.532l-3.508 6.08h-8.584c-1.4-.008-2.58 1-2.696 2.404l-.464 8.04c-.068 1.404 1 2.624 2.416 2.704 1.408.076 2.6-1.016 2.696-2.408l.172-2.272h4.952c.672-.024 1.196-.54 1.196-1.204 0-.672-.54-1.172-1.196-1.212h-4.812l.064-2h6.624c.508-.016 1-.28 1.28-.748l4.516-7.8c.416-.76.196-1.672-.532-2.116z" transform="matrix(2.0137286 0 0 -2.0137286 314.33261 47.945246)"/><path d="m26.539-20.383c-1.556-3.468-5.016-5.904-9.064-5.904-5.5 0-9.952 4.46-9.952 9.952 0 3.56 1.888 6.656 4.7 8.412l.144-2.46c-1.68-1.444-2.76-3.568-2.76-5.952 0-4.352 3.524-7.868 7.868-7.868 3.78 0 6.916 2.688 7.664 6.244z" transform="matrix(2.0137286 0 0 -2.0137286 308.70445 49.467447)"/></g></svg>