<svg height="400" viewBox="0 0 200 200" width="400" xmlns="http://www.w3.org/2000/svg"><path d="m-200 0h200v200h-200z" fill="#fff" transform="scale(-1 1)"/><path d="m-195 5h190v190h-190z" fill="#237f52" transform="scale(-1 1)"/><g fill="#fff"><path d="m21.382884 23.600586v10.700195h6.313476v-5.964843h45.203125 53.845695 45.20215v5.964843h6.31348v-10.700195h-51.51563-53.845695z" stroke-width="1.57836"/><path d="m21.382889 177.871v-10.70019h6.313476v5.96484h45.203125 53.8457 45.20214v-5.96484h6.31348v10.70019h-51.51563-53.84569z" stroke-width="1.57836"/><g transform="translate(.086964 -.100526)"><path d="m33.930706 34.886497h65.471924v131.89964h-65.471924z"/><path d="m154.71875 80.321183v11.43457h-41.69629v18.160147h41.69629v11.43555l11.41016-10.25781 11.41015-10.25781-11.41015-10.256835z"/></g></g></svg>