<svg height="105.83334mm" viewBox="0 0 105.83334 105.83334" width="105.83334mm" xmlns="http://www.w3.org/2000/svg"><path d="m0 0h105.833334v105.833334h-105.833334z" fill="#fff" stroke-width=".52916667"/><path d="m2.64583335 2.64583335h100.5416673v100.5416673h-100.5416673z" fill="#085" stroke-width=".52916667"/><path d="m71.591771 75.977263-.344883.01854-.33583.05691-.334968.08363-.327208.12114-.307377.158216-.28927.19529-.26944.213827-.251765.242281-.215121.270733-.186237.298755-.158215.306515-.131055.317292-.08407.336261-.05561.344452-.01854.344021.01854.344452.05561.344883.08407.33583.131055.326346.158215.307377.186237.289271.215121.26944.251765.243142.26944.222881.28927.186237.307377.158215.327208.12114.334968.09355.33583.05604.344883.01854.354367-.01854.336262-.05604.335829-.09355.325053-.12114.307808-.158215.28884-.186237.271595-.222881.241418-.243142.224605-.26944.186237-.289271.158215-.307377.121141-.326346.09398-.33583.05561-.344883.01854-.344452-.01854-.344021-.05561-.344452-.09398-.336261-.121141-.317295-.158215-.306515-.186237-.298755-.224605-.270733-.241418-.242281-.271595-.213827-.28884-.19529-.307808-.158216-.325053-.12114-.335829-.083634-.336262-.056906zm29.780229 5.749201-.15046.0086-.13968.0099-.13924.02802-.13106.02759-.12976.04699-.12114.05561-.12114.06553-.122.06423-.21383.159078-.205206.19529-.186668.215121-.177615.233227-.16813.241418-.1483.260387-.139678.270733-.260818.541035-.112087.270302-.112518.260818-.0086.01768v.0099l-.0099.01854-.0086.02716-.04699.112518-.09355.21469-.205206.427655-.223742.411273-.233228.39058-.252195.372043-.26944.355229-.279356.334968-.298755.326346-.307377.306515-.317723.290133-.33583.279355-.344452.260818-.354799.250902-.362989.233227-.372043.213828-.38282.215121-.391874.19529-.400495.186668-.410842.166837-.419895.168131-.419033.149162-.428949.139677-.428517.131056-.438433.120709-.448348.111656-.43757.112087-.904025.186668-.904456.158215-.91394.130624-1.174758.139678-.07458.326346-.112087.31643-3.328985 7.826262 4.821035 3.17767.205206.15908.176752.18537.149593.20521.120709.2246.09398.24142.03492.15692c1.263249.41875 2.478065.72315 3.660504.71391 1.783933-.014 3.625958-.7264 5.610386-1.52611 1.984433-.79971 4.111037-1.68632 6.507517-1.70502 2.43059-.019 4.60631.83664 6.64072 1.61492 2.0344.77827 3.9289 1.4797 5.75782 1.4817 1.54055.002 3.99997-.54066 6.22644-1.16225l4.83138-11.720858-.36342.01466-.92213.03708-.90403.02845-.44835.01854-.41989.01854-.39058.0099-.3742.01854-.16684.0095h-.15821l-.15908.0091h-.13968l-.12114.0095h-.12114l-.1026.0091h-.1677l-.0655.0095h-.46602l-.21469-.01854-.21469-.02802-.21426-.03707-.20477-.04699-.20607-.06553-.20521-.06423-.19529-.08407-.19615-.08407-.1858-.09355-.18624-.111656-.17805-.111225-.17675-.122002-.1677-.12114-.16727-.139678-.15907-.139678-.30867-.307377-.27807-.336261-.25219-.352212-.22331-.373336-.1039-.196152-.0272-.04699-.009-.01854-.01-.01854-.01-.01854-.0927-.176752-.18753-.354368-.20391-.344883-.22375-.325914-.22374-.306946-.24314-.298755-.2509-.279356-.26168-.278924-.26944-.260818-.27074-.243142-.29013-.242281-.29746-.22288-.30695-.21469-.31815-.205206-.31643-.19529-.32721-.186237-.33497-.176752-.33583-.168131-.3548-.16813-.69882-.297893-.72684-.270302-.73632-.250903-.75659-.223743-.754-.214689-.76478-.19529-.75572-.186668-1.51964-.354368-.74495-.176752-.18667-.04613-.0371-.0095h-.0285l-.009-.0091-.0556-.0099-.23366-.0651-.44706-.149593-.43843-.166837-.43757-.168131-.43843-.167699-.44835-.139678-.23237-.05604-.12114-.02802-.0569-.0091-.0836-.0194-.15735-.01854zm-24.978594 1.844694-.251764.0086-8.269435.727703-.270734.0457-.260817.08407-.243143.12114-.223312.159077-.19529.185806-.16813.21469-.131056.24228-3.776039 8.199165-.09312.233227-.05561.242281-.01854.24228.0099.251765.0457.241418.07544.233227.111225.223743.131056.205206 5.518561 7.155884.167699.18667.206068.16813.213827.1384.242281.10259.243142.0754.260818.0272h.260818l.251765-.0457.252195-.0755.233228-.11122.213827-.13968.19529-.17675.168993-.19615.138815-.22375.102603-.23236.0651-.2522.03708-.25176-.0086-.26082-.03708-.26082-.07501-.24185-.111656-.23278-.14054-.22461-4.847763-6.279033 1.985664-4.314488.392305 4.435628-.298755.04656-.139678.01768-.129762.01854-.122003.0099-.102602.01854-.102603.0086-.09269.01854 4.167913 5.395696 5.08099-1.210971 2.470657-5.786276-.280218.03708-.288839.03708-.289271.04699-.31643.03707-.317293.04699-.326345.0457-.670798.09398-.448348-5.050813 4.326128 3.858379-3.028936 7.109335-.08407.250902-.04785.250903-.01767.26168.02716.251338.06553.25176.09398.24228.129762.22375.159077.20477.186668.17675.213828.1496.233227.12114.24228.0841.252196.0457.260387.0185.260818-.0272.252195-.0655.243143-.0927.223312-.13105.205205-.15822.176753-.18667.1483-.21469.112518-.23236 3.542812-8.311688.08406-.232365.04699-.251765.0086-.250902-.01854-.243143-.05561-.251333-.08406-.232365-.12114-.224605-.149162-.19529-.176753-.186237-6.731687-6.019935-.196152-.1483-.213828-.12114-.223743-.09355-.24228-.06466zm28.781354 2.962977.56044.0095.56776.03707.56906.04613.55957.08493.55009.101309.54966.131056.53198.16813.26082.09269.26082.09269.25219.112518.25177.120709.24228.121141.23323.139677.23365.149593.22332.1483.22374.16813.21469.176753.20434.18753.20607.19529.18624.204775.18666.214258.17676.233228.15821.232365.16813.24228.17676.251765.34574.522498.1677.269439.13968.269872.12976.280217.0841.270302h-12.80076l1.66923-5.190491h.009l.0285-.0086h.26038l.20607-.0099.2328-.0095.24185-.0091.24314-.0095.22374-.0091h.20521l.0841-.0095h.22245zm-32.007735 4.788702.345745.01854.334968.05691.33583.09269.327208.12114.306514.158215.290133.186668.26944.223312.252196.24228.21469.270733.186668.28884.158215.307808.12114.325053.09355.33583.05561.344883.01854.344883-.01854.344452-.05561.344883-.09355.33583-.12114.31643-.158215.31643-.186668.28884-.21469.270733-.252196.242281-.26944.213827-.290133.196152-.306514.158216-.327208.12114-.33583.09269-.334968.04785-.345745.01767-.353505-.01767-.33583-.04785-.336261-.09269-.325915-.12114-.307808-.158216-.28884-.196152-.270733-.213827-.241849-.242281-.223743-.270733-.186668-.28884-.158215-.31643-.122003-.31643-.09269-.33583-.05561-.344883-.01854-.344452.01854-.344883.05561-.344883.09269-.33583.122003-.325053.158215-.307808.186668-.28884.223743-.270733.241849-.24228.270733-.223312.28884-.186668.307808-.158215.325915-.12114.336261-.09269.33583-.05691zm-17.404096 3.01083v7.760733c.765273.22847 1.652774.65856 4.326128 1.51748 2.169747.69712 4.80051 1.38013 6.463541 1.48085l1.076466-1.87013-5.565551-7.211939-.168131-.243143-.139677-.260817-.112087-.26944-.07415-.279356-.05691-.279355-.01854-.298755h-5.677639v-.04613zm23.320566 8.382383.08406.86178 1.092848-.0841zm24.021975 1.36444c-2.39648.0187-4.523079.90445-6.507517 1.70416-1.984428.79971-3.826017 1.51303-5.609955 1.52697-1.740509.0136-3.542651-.62838-5.482349-1.361-1.939698-.73263-4.012637-1.55477-6.332485-1.60069-2.477547-.049-4.741136.72325-6.870934 1.42308-2.129798.69982-4.124165 1.32597-6.042783 1.26917-1.642718-.0486-4.425901-.76916-6.693319-1.49766-2.225188-.71493-3.950703-1.39856-4.015733-1.42436v2.61938c.758429.28513 1.826249.67325 3.267768 1.13639 2.353147.75604 5.153945 1.5494 7.366703 1.61492 2.480638.0735 4.749687-.68933 6.883005-1.39031 2.133308-.70098 4.13381-1.34042 6.056578-1.30237 1.750529.0347 3.566607.70877 5.515975 1.44506 1.949378.73628 4.034711 1.53526 6.365249 1.51706 2.396467-.0187 4.523516-.90489 6.507944-1.70459 1.984438-.79972 3.827753-1.51303 5.611683-1.52697 1.82549-.0143 3.71495.67575 5.74618 1.45282s4.20137 1.6406 6.62865 1.6438c2.35269.003 5.36219-.77632 7.88834-1.53085 1.25282-.37418 2.37332-.74768 3.18845-1.0299v-2.60085c-.54764.20089-1.91005.69262-3.88942 1.28382-2.43689.72784-5.42102 1.43166-7.18305 1.42954-1.82893-.002-3.72385-.70386-5.75826-1.48213-2.03442-.77828-4.21013-1.6335-6.64072-1.61449zm-32.178461.52724-.630705.94628.798835-.12632zm32.178461 4.45158c-2.39648.0187-4.523079.90488-6.507517 1.70459-1.984428.79968-3.826017 1.51302-5.609955 1.52697-1.740509.0135-3.542651-.62837-5.482349-1.361s-4.012637-1.55519-6.332485-1.60112c-2.477547-.0491-4.741136.72368-6.870934 1.42351-2.129798.69982-4.124165 1.32598-6.042783 1.26917-1.642718-.0487-4.425901-.76916-6.693319-1.49766-2.225188-.71492-3.950703-1.39856-4.015733-1.42436v2.61938c.758429.28514 1.826249.67323 3.267768 1.13639 2.353147.75603 5.153945 1.54897 7.366703 1.61449 2.480638.0735 4.749687-.68934 6.883005-1.39031 2.133308-.70098 4.13381-1.34042 6.056578-1.30237 1.750529.0347 3.566607.70878 5.515975 1.44506 1.949378.73629 4.034711 1.53527 6.365249 1.51706 2.396467-.0187 4.523516-.90488 6.507944-1.70459 1.984438-.79972 3.827753-1.51304 5.611683-1.52697 1.82549-.0143 3.71495.67576 5.74618 1.45282 2.03123.77707 4.20137 1.64103 6.62865 1.64423 2.35269.003 5.36219-.77462 7.88834-1.52912 1.25282-.37419 2.37332-.74806 3.18845-1.03077v-2.60171c-.54755.20133-1.90994.69432-3.88942 1.28555-2.43689.72785-5.42102 1.42953-7.18305 1.42738-1.82893-.002-3.72385-.70385-5.75826-1.48213-2.03442-.77827-4.21013-1.6335-6.64072-1.61449z" fill="#fff" stroke-width=".999698" transform="matrix(1.1987002 0 0 1.1987002 -56.545988 -61.389467)"/></svg>