<svg height="105.83333mm" viewBox="0 0 105.82722 105.83333" width="105.82722mm" xmlns="http://www.w3.org/2000/svg"><g transform="translate(-68.086386 -31.534947)"><g transform="matrix(.35277777 0 0 .35277777 7.605438 11.237222)"><path d="m171.44206 357.53686h299.9827v-300.000001h-299.9827zm0 0" fill="#fff"/><path d="m179.93198 349.04692h283.00284v-283.020143h-283.00284zm0 0" fill="#237f52" fill-rule="evenodd"/></g><path d="m110.48561 53.422215c-.49154.237642-.63829.945032-.32867 1.585521l7.46966 15.450632-14.28458-8.576313c-.1747-.104888-.38905-.105759-.59473-.02148-.20568.08426-.40279.252913-.54332.486939-.281.46809-.22623 1.014014.12319 1.22379l16.56465 9.944738-.67854 5.212179c-.0526.404131.34023.786613.88161.857116.5414.07048 1.02003-.199186 1.07266-.603293l.33484-2.575295 3.79024 7.83995-1.97713-.721212c-.66705-.182965-1.28961-.03998-1.49277.50492-.18705.512921.17703 1.113564.81689 1.346913l3.84021 1.398495c.0278.0102 3.05027 6.235908 3.05027 6.235908l-6.41293 3.100356 4.00606 8.286331c.0103-.005.0208-.0109.0309-.0158l.002-.00071c.56417-.27359 1.12282-.38155 1.52238-.50548.53706-.16656 1.21348-.42554 1.98703-.39747l-1.96372-4.061857 8.13684-3.933793.18905.391026c1.58727-.118428 2.39477-.344893 3.78723-.398749l-3.09622-6.421998-6.41294 3.100352-2.99348-6.264013c.0105-.0266 1.28886-3.87755 1.28886-3.87755.21455-.646413-.0301-1.304823-.54824-1.476795-.51817-.171979-1.10731.209423-1.32186.855856l-.66278 1.997474-3.79024-7.839946 2.2263 1.337102c.34942.209765.85805.0021 1.13906-.46596.28099-.468083.22523-1.01353-.12416-1.223306l-4.50636-2.705516 2.4944-19.158895c.0526-.404128-.3412-.786159-.88261-.856636-.54139-.0705-1.01902.198698-1.07165.602801l-2.15077 16.521903-7.46966-15.450633c-.30965-.640493-.95522-.964829-1.44675-.727184zm-20.64156 11.935386c-5.022426 14.969267 2.209987 31.331943 16.66146 37.692689l1.23493-2.80361c-13.026533-5.73357-19.519178-20.421427-14.991977-33.914711zm44.08164-21.311402-1.23392 2.803127c13.02653 5.733542 19.51918 20.421427 14.99198 33.914708l2.90441.974375c5.02245-14.969285-2.21098-31.331495-16.66247-37.69221zm-3.45437 9.498356-1.23492 2.803613c8.01356 3.527132 12.00189 12.550002 9.21686 20.850679l2.90442.974373c3.28025-9.776658-1.44786-20.474354-10.88636-24.628665zm-31.397803 15.378708c-3.280222 9.776657 1.449363 20.474876 10.887863 24.629187l1.23343-2.804132c-8.01356-3.527125-12.0029-12.549501-9.21788-20.850189zm27.631793-6.401251-1.23391 2.803122c3.3279 1.464758 4.97526 5.193898 3.8187 8.641045l2.90442.974383c1.6518-4.923162-.73636-10.326617-5.48921-12.41855zm-18.46863 9.633912c-1.65179 4.923169.73636 10.326617 5.48921 12.418558l1.23391-2.80313c-3.32788-1.464765-4.97677-5.19442-3.82019-8.641563zm27.18701 24.491682s-.0813 1.663224.79222 2.218556c1.44731.52288 2.10877.77755 4.06718 1.101252.25564.202596.50002.447186.65188.740176 1.66603 3.21333 4.94703 9.58322 4.94703 9.58322s1.31297-.0155 1.84524-.33765c.37992-.22985.57413-.56002.7904-.95774 1.04807-3.08023 3.02405-3.90006 4.3088-5.32134 1.12835-1.31332 1.11525-2.9907.51493-4.720687-.51448-1.4824-1.49786-2.57683-2.76428-3.470479-.46829-.351674-1.69168.01034-2.11927.118776-2.44982.75202-1.49595.847457-1.69049 2.729819-.24917.696151-.53242.254004-.64003.364205-.58415-.240993-1.36047-1.030051-1.90857-1.272671-4.51097-1.790668-4.56647-.727346-8.79506-.775437zm-6.30869 3.071142 2.04476 4.229502c.0357.0258.072.0495.10634.0782l6.02817-2.91434-.58883-1.217959c-.24367-.08422-.48817-.169746-.76302-.269046l-.0834-.03073-.0751-.04718c-.75416-.479404-.97747-1.265668-1.08509-1.852694-.0443-.241268-.0628-.457094-.0728-.64014zm-2.61333 5.380052c-.26191.12711-.49325.29145-.66117.52149-.26555.36378-.31092.9336-.12729 1.34487.20454.45757.76418.99151 1.24157.83883 1.60913-.51463 2.59162-.944 3.90676-1.69436.32061-.18291.31899-.75504.1716-1.09343-.167-.38363-.62999-.62067-1.04018-.7032-.68552-.13796-1.41149.11782-2.07938.32498-.45338.1406-.97535.24905-1.41191.46082zm11.68975-4.74937.51461 1.06444-6.91891 3.34496c.1192.29935.16363.60589.12941.94292-.0122.12043-.0651.25635-.11054.38986.25093.0147.54799.0395.90367.21723.33734.16857.71741.42632.96934.86331l.00033.0007c.27014.46871.28665.96236.13397 1.42914l-.002.0101-.004.009c-.1596.4483-.43036.7773-.74141 1.0462.1822.0858.3539.19849.49557.34726.23827.24461.39014.47634.4655.87015l.002.009.0007.008c.15088.89311-.35827 1.45898-.67487 1.85132l-.0255.0322-.0284.0287c-.0538.0543-.11501.0918-.17047.14221.0635.0281.13125.0482.1885.0858.19094.12209.43488.29962.59693.64713.22586.48495.16819.9061.15194 1.1725-.0148.24345-.0274.59958-.24746.98805-.33195.58605-.83041.98592-1.31542 1.27638-.0579.0348-.11703.0689-.17894.10147l3.6882 7.62888 14.60131-7.05905-3.30786-6.84215c-.21246.0422-.41874.0661-.61176.0877-.43869.0491-.80292.053-.80292.053l-.49927.006-.22788-.44304s-3.28234-6.36986-4.94705-9.58071c-.0577-.11037-.19755-.24448-.3402-.37379-.67052-.11762-1.20491-.23191-1.687-.3556zm-10.81002 8.27.00033.00071c-.63816.31762-.783 1.15292-.56276 1.75849.13783.35687.48286.65078.84353.77834.2493.0882.54163.0361.79087-.0522 1.13383-.40159 2.03034-.81429 3.15138-1.40643.65117-.39723 1.25755-.8015 1.45077-1.34429.0815-.2493.0627-.55582-.0683-.78307-.14358-.24896-.37728-.42082-.63436-.54929-.18831-.0941-.46121-.12981-.6714-.14139-.16816-.009-.33609.0462-.49456.10328-.6043.2179-1.14469.58259-1.73401.83831-.63616.27609-1.31059.44308-1.93691.7408-.0468.0167-.0921.0353-.13469.0564zm4.38142 1.84143c-.19222.0924-.36344.21653-.55673.3252-.69705.41202-1.5363.64878-2.15891 1.02383-.18939.11836-.37964.26469-.48776.46009-.13616.24616-.18234.54701-.16305.82764.0151.22282.0652.47055.21783.63354.20211.21578.52235.33054.81771.34353.25024.011.48659-.1297.716-.23027.88358-.53725 1.9084-.90758 2.58539-1.59007.27055-.33528.57868-.81129.5099-1.21836-.0304-.15888-.14347-.35341-.25667-.46898-.29337-.31089-.64479-.30378-1.02349-.18673-.0705.0223-.13616.0498-.20023.0806zm.40561 3.18168c-.0754.0347-.15364.0786-.23852.12774-.52137.29502-.98954.56976-1.49147.89674-.10374.0676-.2697.16586-.33673.26994-.11217.1743-.12002.4062-.10248.61272.0214.25173.10336.51054.24933.71675.13651.19279.32659.37564.55351.44134.23492.068.45449.0379.69353-.0138.19281-.0417.42965-.14953.59887-.2509.40774-.24416.79634-.57065 1.03057-.98416.10849-.19153.13216-.42506.14556-.64475.0161-.26353.0323-.54846-.0793-.78772-.0622-.13392-.18483-.23839-.30934-.31771-.2878-.19162-.48791-.17107-.71354-.0662z" fill="#fff" stroke-width=".765775"/></g></svg>