<svg height="105.83333mm" viewBox="0 0 105.82722 105.83333" width="105.82722mm" xmlns="http://www.w3.org/2000/svg"><g transform="translate(-62.408967 -103.92204)"><g transform="matrix(.35277777 0 0 .35277777 1.928019 83.624317)"><path d="m171.44206 357.53686h299.9827v-300.000001h-299.9827zm0 0" fill="#fff"/><path d="m179.93198 349.04692h283.00284v-283.020143h-283.00284zm0 0" fill="#237f52" fill-rule="evenodd"/></g><path d="m129.03213 120.0467-1.23352 2.80293c13.02651 5.73353 19.51908 20.42147 14.99185 33.91473l2.90422.97461c5.02245-14.96925-2.21107-31.33156-16.66255-37.69227zm-11.29905 8.42946c-.54137-.0705-1.01914.19896-1.07177.60306l-2.15078 16.52148-7.46982-15.45022c-.30967-.64049-.95487-.96525-1.44643-.72761h-.002c-.49153.23764-.6383.94495-.32866 1.58544l7.46983 15.45073-14.284409-8.57622c-.17473-.10489-.38912-.10598-.59479-.0217-.20567.0843-.40313.25276-.54364.48679-.28102.46809-.22592 1.01392.12351 1.22369l16.564359 9.94513-.67851 5.21209c-.0526.40413.34023.78629.8816.85679.54141.0705 1.02017-.19895 1.0728-.60306l.33487-2.57504c4.17419 8.60338 3.88175 8.02462 7.19697 14.88747-.52265 1.43781-2.27711 6.34333-2.90783 9.2139-.10265.46719-.27063.95487-.17828 1.42421.0986.50137.38945.93181.62063 1.38751 1.02573 2.0219 2.262 4.65041 3.47937 7.30188 3.65741 1.22458 6.71251.53898 9.56996-.7152 3.32705-1.46029 5.4944-4.46853 6.0017-6.74016-1.2948-2.74182-2.57436-5.86937-3.73413-7.94318-.22651-.40502-.55027-.81022-.88884-1.12758-.27295-.25587-.65035-.37181-.98857-.53176-3.02113-1.4287-9.22063-3.46438-9.22063-3.46438l-.1173.0439c-3.66792-7.58274-2.94056-6.08207-7.0559-14.59446l2.22622 1.33687c.34942.20976.85793.002 1.13895-.46612.28099-.46808.22536-1.0134-.12402-1.22318l-4.50619-2.70526 2.49442-19.15904c.0526-.40413-.34123-.78631-.88263-.85679zm7.845 1.06867-1.23507 2.80396c8.01358 3.52713 12.00204 12.54975 9.21701 20.85041l2.90421.97462c3.28023-9.77664-1.44768-20.47469-10.88615-24.62899zm-3.76618 8.97775-1.23404 2.80293c3.32789 1.46475 4.97544 5.19419 3.81889 8.64133l2.90474.9741c1.65181-4.92315-.73673-10.32644-5.48959-12.41836zm-36.861319 2.83548c-5.02242 14.96924 2.21007 31.33206 16.661519 37.69279l1.23507-2.80345c-13.026509-5.73355-19.519039-20.42146-14.991849-33.91472zm9.22941 3.56568c-3.28022 9.77663 1.44975 20.47468 10.888229 24.62898l1.23351-2.80396c-8.013539-3.52712-12.003039-12.54922-9.218039-20.84989zm9.163269 3.23287c-1.65181 4.92317.73673 10.32643 5.48958 12.41837l1.23352-2.80293c-3.32785-1.46477-4.9765-5.19471-3.81992-8.64185zm36.75641 32.5329c-.19014 3.60733-3.19892 5.84142-5.5764 7.07605-2.77972 1.44352-7.56782 2.26725-9.85883.48628.38929.85866 1.22988 2.9365 1.47639 3.48557.39418.84661.9492 1.19408 1.43092 1.39837.87577.54344 4.50402.9726 8.38554-.59893 2.59868-1.05213 4.98693-3.4999 6.31537-5.95364.35406-1.09185-.18078-2.0372-.47852-2.76159-.21978-.48287-1.3599-2.4074-1.69447-3.13211z" fill="#fff" stroke-width=".765775"/></g></svg>