<svg height="400" viewBox="0 0 200 200" width="400" xmlns="http://www.w3.org/2000/svg"><path d="m0 0h200v200h-200z" fill="#fff"/><path d="m5 5h190v190h-190z" fill="#085"/><path d="m97.666029 24.173881c-7.57267 1.259896-12.69084 8.414586-11.4336 15.983021.7096 4.246102 3.27139 7.784033 6.80664 9.795541-.22168.0056-.71815.0064-.7998.01366-4.62056.411117-9.61635.916335-13.46875 3.498756-2.98279 1.999458-5.26964 4.871347-6.34668 8.295517-.1895.602461-.30762 1.338994-.30762 1.338994l-5.94336 29.305619s-.0203.26674-.43457.585568c-1.19438.919307-3.21396 1.957588-3.28223 3.462653-.049 1.079415 1.4136 1.08736 2.03809 1.96945.12054.170222.29185.339214.30273.547502.20211 3.866678.85269 9.421948 6.16211 9.580828 4.73589.14172 5.53677-3.42585 6.46485-6.29287.81453-2.516237 1.20019-4.899235 1.20019-4.899235l4.72559-21.011086.26953 20.190317-.80762 9.960474-3.50195 58.14766s-.40496.0881-.75.20593c-2.17132.7414-3.73076 3.42515-3.83008 5.71611-.083 1.91344.95966 4.06064 2.77344 5.0339.4732.25392.99805.35037.99805.35037l14.91699.0312s.7116.0351 1.11133.002c1.00944-.0838 2.15965-.35005 2.82812-1.11062.73295-.83394.75513-2.12166.80762-3.23038.0266-.56152.0205-1.44634.0205-1.44634l.77734-56.43586.19824-.55825c.55925-.006 1.118481-.003 1.677741 0l.19824.55825.77734 56.43586s-.006.88482.0205 1.44634c.0525 1.10872.0747 2.39644.80762 3.23038.66847.76057 1.81868 1.02687 2.82812 1.11062.39973.0332 1.11133-.002 1.11133-.002l14.91699-.0312s.52485-.0964.99805-.35037c1.81378-.97326 2.85644-3.12046 2.77344-5.0339-.0993-2.29096-1.65876-4.97471-3.83008-5.71611-.34504-.11777-.75-.20593-.75-.20593l-3.50195-58.14766-.80762-9.960474.26953-20.190317 4.72559 21.011086s.38566 2.382998 1.20019 4.899235c.92808 2.86702 1.72896 6.43459 6.46485 6.29287 5.30942-.15888 5.96-5.71415 6.16211-9.580828.0109-.208288.18219-.37728.30273-.547502.62449-.88209 2.08709-.890035 2.03809-1.96945-.0683-1.505065-2.08785-2.543346-3.28223-3.462653-.41427-.318828-.43457-.585568-.43457-.585568l-5.94336-29.305619s-.11812-.736533-.30762-1.338994c-1.07704-3.42417-3.36389-6.296059-6.34668-8.295517-3.8524-2.582421-8.84819-3.087639-13.46875-3.498756-.0816-.0073-.57812-.0081-.7998-.01366 3.53525-2.011508 6.09704-5.549439 6.80664-9.795541 1.25724-7.568435-3.86093-14.723125-11.4336-15.983021-1.56563-.267412-3.120691-.193375-4.667961 0zm2.624021 6.552446c3.43568.142943 6.45166 2.493463 7.37402 5.867371l.0908-.01464c.001.0046.003.0091.004.01366l-.0918.01464c.0697.256551.12813.518847.17285.78661l-7.83984 1.307764 7.8418-1.294101c.34036 2.060451-.13487 4.141416-1.19141 5.805886-.95667 1.397556-2.32872 2.463904-3.91699 3.030304-.0919.03277-.2322.08973-.35547.132728-.30201.04493-.56318.08176-.76563.411848-.00092.0032-.001.0065-.002.0098-.0713.07106-.13616.14846-.18262.240083-.39945.75582-.38488 2.863035-.41601 4.35173-.004.108371-.0106.228801-.0146.332797v35.651201h-1.994141v-35.651203c-.004-.101865-.0105-.219899-.0146-.325965-.0313-1.488938-.016-3.601681-.41601-4.358562-.0465-.09162-.1113-.169014-.18262-.240083-.00092-.0032-.001-.0065-.002-.0098-.20223-.329737-.46306-.366986-.76465-.411848-.12344-.04306-.26445-.09992-.35645-.132728-1.58592-.565561-2.9556-1.629961-3.91211-3.024448-1.05919-1.665447-1.53706-3.748841-1.19629-5.811742l7.841801 1.294101-7.839841-1.307764c.0447-.267763.10315-.530059.17285-.78661l-.0918-.01464c.001-.0046.003-.0091.004-.01366l.0908.01464c.92237-3.373967 3.93924-5.724503 7.375-5.867371.19642-.01195.398001-.0027.578961-.000003z" fill="#fff" stroke-width="4.42925"/></svg>