<svg height="400" viewBox="0 0 200 200" width="400" xmlns="http://www.w3.org/2000/svg"><path d="m0 0h200v200h-200z" fill="#fff"/><path d="m5 5h190v190h-190z" fill="#085"/><path d="m131.17285 26.743164c-6.94441-.0054-10.74628 2.973112-15.1084 4.524414-1.1059.362755-2.22706.700823-3.35937 1.012695.3439.06288.68734.128312 1.03027.196289-4.22397-.762323-8.5086-1.138226-12.80078-1.123046-3.701022.02928-7.394024.349276-11.044922.957031-.903864.180938-1.804101.379543-2.700195.595703-.417409-.251042-.851396-.53714-1.322265-.873047-1.178439-.840659-2.522477-1.895417-4.328126-2.486328-3.076786-1.00691-6.321814-1.341778-9.457031-1.242187-3.280866.104221-6.383313.931633-9.28125 1.798828-4.452235 1.332318-8.833655 3.071311-12.957031 5.302734-2.034208 1.100839-4.140106 2.377255-5.964844 4.130859-2.770817 2.662795-4.690327 5.846539-6.578125 8.734375l-.06055.09375-.05078.09961c-2.840747 5.602108-5.569801 9.481962-9.873047 14.890625l-.123047.154297-.08984.175781c-1.485499 2.858863-2.296104 5.990722-2.689454 9.058594-.258539 2.016467-.513708 4.395619.275391 6.798828.55831 1.700304 1.657578 2.879342 2.560547 3.820312 1.425009 1.484983 3.090658 3.047061 5.191406 4.092774-1.843586 8.594709-2.067468 17.457935-.660156 26.134765.02733.12507.055.25008.08301.375-.827639.48909-1.70292 1.15564-2.290039 2.2998-1.199879 2.33835-.557537 4.61126-.404297 6.08985.10809 1.04236.383955 1.55033.390625 1.59765.428789 3.04226-.565414 6.86348.416015 11.03907.79437 3.37967 2.499773 6.27007 4.025391 8.92773 1.665778 2.90176 3.644579 5.5734 5.716797 8.08985l.002.002c2.641567 3.19898 4.493349 6.96374 7.003906 10.23047l.01172.0156.01367.0176c2.392688 2.98545 5.46595 5.45442 8.841797 7.20117 3.889556 2.01258 8.181895 2.94344 12.306641 3.44922l.146484.0176.146484-.002c1.585869-.0357 4.640443.0193 7.53125-.0645 1.445399-.0419 2.855938-.11784 4.091797-.26953 1.235889-.15169 2.219494-.23727 3.320313-.93164l.0293-.0176.02734-.0195c.49833-.33786.833573-.72775 1.067383-1.11719 9.40708 2.37581 19.202632 2.78902 28.776372 1.21387 1.35153-.2268 2.69617-.49286 4.03222-.79785.31672.2474.66459.4844 1.09473.67969 3.30327 1.49965 6.7725 1.38497 9.70508 1.51172 4.14767.17927 8.61266.34997 12.99609-.82813 3.7567-1.00965 7.15594-2.92361 10.17383-5.06836 2.95968-2.10339 5.44489-4.72718 7.63867-7.42187 2.89246-3.55288 5.16729-7.4819 7.25977-11.36719 1.58295-2.93921 3.04799-6.01649 4.13867-9.26953.81312-2.42524 1.69289-5.08019 1.8164-7.98828.0847-1.99346-.10669-4.13147-.89843-6.16016-.45352-1.16207-1.1314-2.04412-1.78418-2.79492 3.05653-10.24033 3.7507-21.04053 2.03027-31.587892-.006-.03803-.0154-.09695-.0214-.134766-.26812-1.275132-.54451-2.655757-.83789-3.850615.69579-.519145 1.40054-1.115388 2.0332-1.922852 1.18965-1.518364 2.41127-3.297082 3.02344-5.464844.55111-1.951495.43984-3.860092.25586-5.535156-.27045-2.462327-.97438-4.815412-1.84766-7.007813-1.28322-3.221559-3.14057-5.977804-4.70508-8.654296l-.0976-.167969-.13086-.148438c-2.84291-3.235221-3.81364-7.689822-6.00196-11.964843l-.007-.0098-.004-.0098c-1.66243-3.161244-3.5366-6.479946-6.25586-9.242187-2.02646-2.058509-4.44682-3.521325-6.78711-4.753906-3.3546-1.766803-6.9341-3.037069-10.52929-3.976563-2.11578-.5529-4.37243-.994965-6.72071-1.013672-.4917-.0282-.96796-.04159-1.43066-.04199zm-.69726 4.069336c.60792-.0196 1.24945-.01096 1.93066.0293l.0566.0039h.0547c1.86414.0079 3.81802.373688 5.78125.886719 3.36448.879206 6.65212 2.055323 9.66211 3.640625 2.17906 1.147663 4.22632 2.428269 5.7832 4.009765 2.21984 2.254932 3.9343 5.202046 5.54883 8.271485 1.78821 3.497975 2.85421 8.331301 6.33594 12.470703 1.64726 2.818059 3.3656 5.416369 4.4375 8.107422.7794 1.956702 1.36488 3.968196 1.58203 5.945312.1629 1.483074.18539 2.880276-.12696 3.986328-.37021 1.310932-1.22845 2.667383-2.25878 3.991211l.0225.0918c-7.28343-24.938742-27.6639-43.869757-53.07129-49.296875 1.36036.290121 2.71186.620343 4.05273.990235 3.32752-1.485875 5.95354-2.990752 10.20899-3.12793zm-58.264652 1.556641c2.752547-.08743 5.542695.217702 8.064453 1.042968.484139.158435.996825.431597 1.543945.775391-23.577739 6.848993-41.910682 25.445181-48.422852 49.118164-1.106549-.716304-2.182271-1.684775-3.21289-2.758789-.804169-.838008-1.41999-1.631223-1.63086-2.273437-.439599-1.338766-.347808-3.121626-.105468-5.011719.343429-2.678597 1.053436-5.321229 2.228515-7.613281 4.210296-5.306957 7.13589-9.484716 10.029297-15.152344 1.933678-2.958017 3.72731-5.850758 5.992188-8.027344 1.400648-1.346045 3.182023-2.458111 5.082031-3.486328 3.840366-2.078277 7.964734-3.720731 12.1875-4.984375 2.804237-.839156 5.576013-1.544149 8.244141-1.628906zm22.662109.625h.000976 5.499997s2.14683 5.34027 2.12793 11.583984c-.001.20141-.005.403307-.01.606445-.17967 6.928763-2.11914 13.333008-2.11914 13.333008h-5.500003s2.013203-7.432501 2.095703-13.333008c.0769-5.488318-2.095703-12.190429-2.095703-12.190429zm7.996093 0h.00098 5.5s2.14683 5.34027 2.12793 11.583984c-.001.20141-.005.403307-.01.606445-.17967 6.928763-2.11914 13.333008-2.11914 13.333008h-5.5s2.01224-7.432501 2.09473-13.333008c.0769-5.488318-2.09473-12.190429-2.09473-12.190429zm-2.79004 27.524414c21.73345 3.461455 39.18862 18.394447 42.38407 34.736333l.002.01563.003.02441h.00098c3.70939 22.607242-11.59151 43.947402-34.19336 47.689462-22.61788 3.74436-43.990646-11.54982-47.745117-34.16602-3.754661-22.616611 11.530481-43.996576 34.145508-47.760747 1.787416-.297388 3.59238-.47746 5.403319-.539062zm-56.024412 32.496093c.201409.0006.403305.0028.606445.0088 6.928773.179668 13.333008 2.11914 13.333008 2.11914v5.500002s-7.432494-2.012269-13.333008-2.094728c-5.488305-.0767-12.19043 2.094728-12.19043 2.094728v-5.500002s5.340261-2.14701 11.583985-2.12793zm100.939452 2.382813s6.7021 2.172403 12.19043 2.095703c5.9005-.0825 13.33301-2.095703 13.33301-2.095703v5.499999s-6.40426 1.93947-13.33301 2.11914c-.20314.005-.40504.008-.60645.009-6.2437.0191-11.58398-2.12793-11.58398-2.12793zm-100.939452 5.613279c.201409.001.403305.004.606445.009 6.928773.17967 13.333008 2.11914 13.333008 2.11914v5.5s-7.432494-2.0132-13.333008-2.0957c-5.488305-.0767-12.19043 2.0957-12.19043 2.0957v-5.5s5.340261-2.14703 11.583985-2.12793zm100.939452 2.38281s6.7021 2.17143 12.19043 2.09473c5.9005-.0825 13.33301-2.09473 13.33301-2.09473v5.5s-6.40426 1.93948-13.33301 2.11915c-.20314.005-.40504.008-.60645.009-6.2437.0191-11.58398-2.12793-11.58398-2.12793zm-111.967773 15.84961c5.804427 23.01923 22.779302 41.58587 45.1875 49.42481-.805509.0643-1.672879.11546-2.608398.14258-2.680778.0778-5.509983.0282-7.306641.0625-3.824326-.4755-7.612474-1.34085-10.83789-3.00977-2.868988-1.48449-5.511314-3.61222-7.519532-6.11133-2.146128-2.79587-4.066387-6.67116-7.083984-10.32617l-.002-.002c-1.980868-2.40569-3.819497-4.89931-5.328125-7.52735-1.529879-2.66504-2.983861-5.23907-3.59375-7.83398-.67571-2.87482.236326-6.54641-.345703-10.67578-.13947-.98955-.373117-1.45196-.373047-1.45117-.11183-1.07912-.194967-1.98552-.188477-2.69239zm134.436523 8.09278c.30614 1.13316.41938 2.40096.36523 3.67578-.0922 2.16984-.80684 4.47548-1.60937 6.86914-.98731 2.94474-2.34664 5.81868-3.86328 8.63476-2.0499 3.80624-4.21097 7.50657-6.83399 10.72852-2.05828 2.52826-4.30974 4.87574-6.83984 6.67383-2.76835 1.96738-5.77441 3.62231-8.87305 4.45508-3.60269.96827-7.65148.87118-11.76562.69336-1.27284-.055-2.49754-.10429-3.6709-.19727 19.80644-6.7784 35.58813-21.98962 43.09082-41.5332zm-72.844726 18.18164h.000977 5.499999s-2.171416 6.70209-2.094726 12.19043c.0825 5.9005 2.094726 13.33301 2.094726 13.33301h-5.499999s-1.939471-6.40425-2.119141-13.33301c-.005-.20314-.0088-.40504-.0098-.60645-.0191-6.2437 2.12793-11.58398 2.12793-11.58398zm7.996096 0h.00097 5.5s-2.1724 6.70209-2.0957 12.19043c.0825 5.9005 2.0957 13.33301 2.0957 13.33301h-5.5s-1.93948-6.40425-2.11914-13.33301c-.005-.20314-.009-.40504-.01-.60645-.0191-6.2437 2.12793-11.58398 2.12793-11.58398z" fill="#fff" stroke-width="1.90238"/></svg>