<svg height="105.83333mm" viewBox="0 0 105.82722 105.83333" width="105.82722mm" xmlns="http://www.w3.org/2000/svg"><g transform="translate(-124.86058 -95.760754)"><g transform="matrix(.35277777 0 0 .35277777 64.379632 75.463029)"><path d="m171.44206 357.53686h299.9827v-300.000001h-299.9827zm0 0" fill="#fff"/><path d="m179.93198 349.04692h283.00284v-283.020143h-283.00284zm0 0" fill="#237f52" fill-rule="evenodd"/></g><path d="m191.73639 106.74871c-1.91578 0-3.38791 1.47164-3.38791 3.39773 0 1.92952 1.47213 3.40186 3.38791 3.40186s3.38429-1.47234 3.38429-3.40186c0-1.92609-1.46851-3.39773-3.38429-3.39773zm-.40928 7.64191v.00036c-3.34655 0-10.02936.0103-10.02936.0103-1.4308.0447-1.68212.32657-2.23242 1.14515l-3.12952 5.23482c-.95274 2.03616 1.89152 3.43592 2.944 1.51671l2.55178-4.47105c.0481-.0825.12056-.10293.21343-.0997l3.52536.0413c-.96305 2.05679-1.92618 4.11012-2.88923 6.17378-.29578.77044-.38494 1.47583-.46405 2.49391-.12725 2.0499-.24085 4.11354-.36122 6.16345-.0378.27171-.12696.45371-.45372.45371-2.57614-.0103-7.50497-.0656-7.50497-.0656-2.55892.0997-4.13101 2.19454-4.13101 3.78013l13.79916-.031c1.22101-.0378 2.15337-.38864 2.26343-1.76785l.41961-7.96903c2.22531 4.47816 4.45729 8.95307 6.67917 13.43123.55375.97336 1.21064 2.0601 2.78588 2.02571l3.01325.0103-8.21345-16.58504c-.16509-.31298.0549-.71515.1478-.894.82549-1.75068 1.6061-3.29201 2.43499-5.1046l2.98897 3.5326c.49251.49251.6773.61432 1.13791.62271.0164.001 6.25233.008 6.25233.008.90349 0 1.63091-.72692 1.63091-1.63039 0-.90348-.72742-1.63091-1.63091-1.63091-1.78279-.0186-3.38153-.0387-4.98626-.0393-.45056.004-.55704-.0924-.7462-.31936-1.36202-1.60622-2.88911-3.44345-4.28553-5.16661-.51936-.55375-.64324-.89431-1.73013-.87024zm-51.54 14.95103c-2.29255-.0214-4.64433.13749-7.03161.46457v60.79991h19.02467l15.41922-15.41922c-11.07758-1.68037-24.29575-6.25299-25.53591-18.39629-.99481-14.38801 16.06794-17.18094 25.3416-8.81032l1.09348-.7183c-5.27297-12.43993-15.93174-17.80495-28.31145-17.92035zm67.5628 9.90431-51.36017 51.36017h66.80315v-51.36017z" fill="#fff"/></g></svg>