<svg height="105.83334mm" viewBox="0 0 105.83334 105.83334" width="105.83334mm" xmlns="http://www.w3.org/2000/svg"><g transform="translate(-87.495847 -116.40431)"><path d="m87.495847 116.40431h105.833334v105.833334h-105.833334z" fill="#fff" stroke-width=".52916667"/><path d="m90.14168035 119.05014335h100.5416673v100.5416673h-100.5416673z" fill="#085" stroke-width=".52916667"/><path d="m144.58191 163.41029c-.30215-.005-.60753.0586-.89402.2085-1.24.69568-1.25142 1.65509-1.1069 2.76831l3.60886 10.00678.26635.69208.37224.37225 1.01192.85145 8.88897 5.42966-5.8019 12.77509s3.07555-.45426 5.03982-.14845c1.59683.24857 5.49966 1.58612 5.49966 1.58612l4.52363-9.63453 5.49749 5.52462s.53061.52312.76849.8089c.15439.18547.3511.35669.42573.58619.0419 1.00241 0 2.02217 0 3.03358 0 0 1.49107-.21968 2.28351-.42904.69413-.1833 1.44636-.6575 1.44636-.6575.13211-.97214.29402-2.06656.10589-2.9801-.11058-.47149-.40821-.88591-.69209-1.27826-2.09198-2.78711-4.36675-5.12482-6.64134-7.53608 0 0-.40875-.49707-.64515-.71392-.35896-.3293-1.16474-.88311-1.16474-.88311l-8.25256-3.89267-8.2471-4.94826s-.15808-.0956-.23361-.14846c-.14902-.10429-.31519-.19269-.43227-.33185-.0951-.11311-.15257-.25529-.20632-.39298-1.0097-3.08679-2.20499-6.12348-3.32832-9.17388-.30285-.83394-1.18616-1.47788-2.09261-1.4944zm21.3868 8.81474c-.30821-.0137-.617.005-.92132.0557-2.40611.40046-4.03237 2.67517-3.63288 5.08144.39944 2.40599 2.67303 4.03313 5.07925 3.63505 2.4064-.39838 4.03459-2.6716 3.63725-5.07816l-4.3588.71937 4.3577-.72701c-.3432-2.05687-2.07795-3.59367-4.1612-3.68636zm-12.0328 25.34169c-2.69139.0211-5.07968 1.01656-7.30833 1.91468-2.22864.89812-4.2962 1.69925-6.29967 1.71492-1.95469.0154-3.97937-.70655-6.15776-1.52935-2.17838-.82278-4.50653-1.7463-7.11182-1.79787-2.78246-.0551-5.3247.81327-7.71658 1.59921-2.3919.78595-4.63184 1.48832-6.78653 1.42454-1.84489-.0544-4.97041-.86294-7.51682-1.68107-2.49903-.8029-4.4364-1.57133-4.50944-1.60029v2.94187c.85177.32022 2.05107.75595 3.66999 1.27609 2.64273.84908 5.78826 1.73957 8.2733 1.81316 2.78591.0825 5.33386-.77374 7.72968-1.56099 2.39583-.78724 4.64243-1.50551 6.80181-1.46277 1.96593.0389 4.00562.79633 6.19488 1.62323 2.18926.82689 4.53161 1.72444 7.14894 1.704 2.69138-.0211 5.0797-1.01656 7.30832-1.91468 2.22864-.89812 4.2984-1.69927 6.30186-1.71491 2.05013-.0161 4.17241.75925 6.45359 1.63195 2.28118.87269 4.71878 1.8423 7.44477 1.8459 2.6422.003 6.02136-.87191 8.8584-1.71928 1.40697-.42022 2.66612-.84015 3.58157-1.1571v-2.92005c-.61504.22561-2.14567.77806-4.36862 1.44201-2.73678.81742-6.08809 1.60704-8.06699 1.60466-2.05398-.002-4.18193-.79064-6.46669-1.66469-2.28477-.87405-4.72816-1.8345-7.45786-1.81317zm0 5.59122c-2.69139.0211-5.07968 1.01657-7.30833 1.91468-2.22864.89809-4.2962 1.69927-6.29967 1.71492-1.95469.0153-3.97937-.70547-6.15776-1.52826-2.17838-.82278-4.50653-1.7463-7.11182-1.79788-2.78246-.0552-5.3247.81216-7.71658 1.59812-2.3919.78593-4.63184 1.48943-6.78653 1.42564-1.84489-.0546-4.97041-.86401-7.51682-1.68217-2.49903-.8029-4.4364-1.57024-4.50944-1.59921v2.94079c.85177.32022 2.05107.75595 3.66999 1.2761 2.64273.84908 5.78826 1.74068 8.2733 1.81425 2.78591.0825 5.33386-.77377 7.72968-1.561 2.39583-.78725 4.64243-1.5055 6.80181-1.46276 1.96593.0389 4.00562.79524 6.19488 1.62214 2.18926.82689 4.53161 1.72444 7.14894 1.704 2.69138-.0211 5.0797-1.01656 7.30832-1.91468 2.22864-.89812 4.2984-1.69927 6.30186-1.71492 2.05013-.0161 4.17241.75926 6.45359 1.63195s4.71878 1.84232 7.44477 1.84592c2.6422.003 6.02136-.86978 8.8584-1.7171 1.40697-.42026 2.66612-.83961 3.58157-1.15711v-2.92224c-.61493.22614-2.14554.78021-4.36862 1.4442-2.73678.81741-6.08809 1.6049-8.06699 1.60249-2.05398-.002-4.18193-.78955-6.46669-1.66362-2.28477-.87406-4.72816-1.8356-7.45786-1.81425z" fill="#f5faf8" stroke-width=".356914"/><path d="m103.05586 129.29155v13.74552h3.65696v-1.99216h-1.66619v-9.76259h9.76258v9.76259h-2.16387v1.99216h4.15604v-13.74552zm6.87206 3.00081c-2.1387-.00019-3.87214 1.73395-3.87195 3.87265.00043 2.13827 1.73368 3.87144 3.87195 3.87125 2.13827.00019 3.87223-1.73298 3.87265-3.87125.00019-2.1387-1.73395-3.87284-3.87265-3.87265zm-1.0247 8.46985c-.87034 0-1.57125.73988-1.57125 1.65921v22.55111c-.25534.19457-.61038.40592-.96957.3916-.64546-.0257-.58983-.96956-.58983-.96956v-7.61895c.0238-1.30728-1.64766-2.37862-2.86329-2.50242-1.63975.0188-1.81069 1.32695-1.81069 1.32695v12.00325l5.35107 10.45363v1.71575h17.83874v-3.81751c1.28897-.58371 2.03568-1.56201 2.06057-3.15229v-16.4008c.0147-.58775-.68147-1.32961-1.65292-1.36115-1.51263.0436-2.10348 2.03062-2.34816 2.05777-.65068-.0327.93065-4.26543-2.55616-4.21258-1.84519.0305-1.55281 1.88315-2.22113 1.8742-.41829.005-.0516-3.80852-2.5101-3.8182-1.48429-.0178-2.8996 2.00263-2.8996 2.00263l-.28618-.25966v-10.26377c0-.91933-.70022-1.65921-1.57056-1.65921z" fill="#fff"/></g></svg>