<svg height="400" viewBox="0 0 200 200" width="400" xmlns="http://www.w3.org/2000/svg"><path d="m0 0h200v200h-200z" fill="#fff"/><path d="m5 5h190v190h-190z" fill="#085"/><g fill="#fff" transform="translate(-.666827 .151597)"><path d="m100.55696 23.576916-6.915037 7.080078.06153 4.74707 5.14453-5.268554.12109 10.411132 3.579097-.04199-.12207-10.413086 5.26465 5.141602-.0557-4.744141zm-51.794917 24.041992v103.809572h103.809567v-103.809572zm6.95215 6.571289h89.905277v90.666993h-89.905277zm43.25488 104.959963-.12109 10.41113-5.14453-5.26855-.06055 4.74707 6.915037 7.08008 7.07812-6.91211.0557-4.74414-5.26465 5.1416.12207-10.41309z"/><path d="m92.759503 72.242327c-3.08253 0-5.59054 2.491865-5.59054 5.591278 0 3.065632 2.50801 5.590531 5.59054 5.590531 3.09941 0 5.59127-2.524899 5.59127-5.590531 0-3.099413-2.5003-5.591278-5.59127-5.591278zm.36756 12.193164c-.0919.000253-.18408.0025-.27699.0075-2.98963.168907-5.24451 2.744522-5.10094 5.70881l.97916 16.975209c.24493 2.96429 2.7365 5.09239 5.69234 5.0755h18.123557l7.40664 12.83696c.88675 1.45258 2.94706 2.03573 4.4841 1.12364 1.53703-.93742 2.00194-2.86303 1.12363-4.46763l-9.53489-16.46841c-.59116-.9881-1.62988-1.54576-2.70244-1.57954h-13.985297l-.13554-4.222098h10.159967c1.38502-.08446 2.52502-1.140652 2.52502-2.559455 0-1.401914-1.10623-2.49082-2.52502-2.541491h-10.454927l-.36382-4.797017c-.19635-2.847107-2.56414-5.099829-5.4146-5.09196zm-7.86926 12.616123c-5.93703 3.707476-9.92342 10.244196-9.92342 17.760486 0 11.59535 9.40015 21.01165 21.01239 21.01165 8.546597 0 15.851217-5.14285 19.136407-12.46491l-2.95546-5.11816c-1.57926 7.50784-8.20016 13.18356-16.180947 13.18356-9.17156 0-16.61213-7.42369-16.61213-16.61214 0-5.03338 2.28008-9.51797 5.82709-12.56671z" stroke-width="2.11133"/></g></svg>