<?xml version="1.0" encoding="UTF-8"?>
<svg xmlns="http://www.w3.org/2000/svg" xmlns:xlink="http://www.w3.org/1999/xlink" width="131" height="131" viewBox="0 0 131 131">
<path fill-rule="nonzero" fill="rgb(2.745056%, 23.136902%, 39.99939%)" fill-opacity="1" d="M 56.554688 123.433594 L 52.527344 123.28125 L 52.601562 108.898438 L 52.714844 94.515625 L 58.550781 94.515625 C 66.3125 94.554688 68.382812 95.308594 69.886719 98.617188 C 71.242188 101.628906 70.601562 104.984375 68.304688 106.902344 C 67.097656 107.957031 67.0625 107.996094 67.777344 108.40625 C 69.398438 109.316406 71.242188 111.574219 71.730469 113.304688 C 72.671875 116.730469 71.015625 120.644531 67.964844 122.191406 C 66.648438 122.871094 62.015625 123.8125 61 123.625 C 60.8125 123.585938 58.816406 123.46875 56.554688 123.433594 Z M 65.257812 119.59375 C 67.363281 118.464844 68.269531 114.621094 66.984375 112.402344 C 65.855469 110.558594 64.429688 109.992188 60.433594 109.992188 L 56.859375 109.953125 L 56.742188 115.1875 L 56.628906 120.421875 L 60.507812 120.234375 C 62.65625 120.160156 64.765625 119.859375 65.257812 119.59375 Z M 64.578125 105.664062 C 67.023438 103.855469 66.796875 99.671875 64.199219 98.394531 C 63.257812 97.902344 61.980469 97.714844 59.796875 97.714844 L 56.667969 97.714844 L 56.667969 101.972656 C 56.667969 104.34375 56.742188 106.335938 56.816406 106.414062 C 56.933594 106.492188 58.476562 106.527344 60.320312 106.449219 C 62.84375 106.375 63.863281 106.1875 64.578125 105.664062 Z M 64.578125 105.664062 "/>
<path fill-rule="nonzero" fill="rgb(2.745056%, 23.136902%, 39.99939%)" fill-opacity="1" d="M 79 123.433594 L 78.132812 123.28125 L 78.132812 115.1875 C 78.132812 106.792969 77.945312 105.625 76.585938 105.625 C 75.683594 105.625 75.347656 104.832031 75.644531 103.554688 C 75.875 102.6875 76.0625 102.613281 78.132812 102.613281 C 81.972656 102.613281 81.898438 102.382812 81.898438 113.679688 L 81.898438 123.246094 L 81.070312 123.46875 C 80.582031 123.585938 80.128906 123.660156 80.015625 123.660156 C 79.902344 123.625 79.449219 123.507812 79 123.433594 Z M 79 123.433594 "/>
<path fill-rule="nonzero" fill="rgb(2.745056%, 23.136902%, 39.99939%)" fill-opacity="1" d="M 91.835938 123.171875 C 89.691406 122.492188 86.792969 120.988281 86.792969 120.570312 C 86.792969 119.894531 87.996094 117.671875 88.375 117.671875 C 88.601562 117.671875 89.878906 118.199219 91.273438 118.878906 C 93.382812 119.894531 94.210938 120.082031 96.621094 120.082031 C 99.859375 120.121094 101.25 119.59375 102.082031 117.976562 C 103.699219 114.808594 102.003906 112.851562 95.003906 109.953125 C 89.164062 107.507812 87.054688 104.378906 88.339844 99.863281 C 89.691406 94.933594 96.28125 92.820312 103.285156 95.042969 C 106.1875 95.980469 106.449219 96.324219 105.546875 98.28125 C 105.054688 99.410156 104.492188 99.410156 101.480469 98.28125 C 98.316406 97.113281 93.800781 97.753906 92.855469 99.523438 C 92.628906 99.976562 92.441406 100.957031 92.441406 101.785156 C 92.441406 103.78125 93.308594 104.492188 98.503906 106.753906 C 100.839844 107.808594 103.359375 109.125 104.074219 109.691406 C 105.996094 111.234375 106.9375 113.304688 106.863281 115.828125 C 106.789062 119.03125 105.28125 121.363281 102.304688 122.796875 C 100.496094 123.660156 94.0625 123.925781 91.835938 123.171875 Z M 91.835938 123.171875 "/>
<path fill-rule="nonzero" fill="rgb(2.745056%, 23.136902%, 39.99939%)" fill-opacity="1" d="M 113.265625 123.46875 C 112.886719 123.320312 112.773438 120.007812 112.773438 108.785156 L 112.773438 94.328125 L 118.535156 94.402344 C 124.144531 94.515625 124.375 94.554688 126.558594 95.644531 C 128.441406 96.625 128.925781 97.078125 129.867188 98.921875 C 131.828125 102.800781 131.1875 107.957031 128.363281 110.59375 C 126.632812 112.171875 124.597656 112.851562 120.609375 113.082031 L 116.917969 113.269531 L 116.917969 118.277344 C 116.917969 122.304688 116.804688 123.320312 116.390625 123.320312 C 116.125 123.320312 115.410156 123.394531 114.804688 123.507812 C 114.207031 123.585938 113.488281 123.585938 113.265625 123.46875 Z M 124.261719 108.863281 C 125.914062 107.769531 126.480469 106.492188 126.480469 103.78125 C 126.519531 99.484375 125.085938 98.132812 120.117188 97.789062 L 116.917969 97.601562 L 116.917969 109.878906 L 120.117188 109.691406 C 122.148438 109.539062 123.65625 109.242188 124.261719 108.863281 Z M 124.261719 108.863281 "/>
<path fill-rule="nonzero" fill="rgb(2.745056%, 23.136902%, 39.99939%)" fill-opacity="1" d="M 78.132812 98.886719 C 76.929688 98.542969 76.324219 96.964844 76.929688 95.644531 C 77.304688 94.816406 77.570312 94.703125 79.410156 94.703125 C 80.917969 94.703125 81.484375 94.851562 81.671875 95.308594 C 81.972656 96.136719 81.9375 97.828125 81.597656 98.355469 C 81.21875 98.960938 79.335938 99.261719 78.132812 98.886719 Z M 78.132812 98.886719 "/>
<path fill-rule="nonzero" fill="rgb(2.745056%, 23.136902%, 39.99939%)" fill-opacity="1" d="M 56.480469 73.917969 C 56.40625 73.65625 56.253906 69.890625 56.21875 65.519531 C 56.105469 57.875 56.066406 57.539062 55.125 55.503906 C 53.730469 52.53125 51.847656 50.609375 48.988281 49.214844 C 47.632812 48.578125 45.976562 47.523438 45.261719 46.921875 L 43.980469 45.792969 L 42.507812 46.507812 C 39.085938 48.199219 35.019531 48.199219 31.253906 46.546875 C 29.632812 45.828125 29.597656 45.828125 27.976562 46.621094 C 26.660156 47.296875 25.679688 47.445312 22.59375 47.445312 C 19.242188 47.445312 18.597656 47.332031 16.945312 46.433594 C 12.125 43.910156 9.152344 38.558594 9.789062 33.476562 C 10.242188 29.636719 13.441406 24.894531 16.492188 23.496094 C 17.058594 23.234375 17.773438 22.21875 18.410156 20.714844 C 20.257812 16.496094 24.023438 13.671875 28.617188 13.140625 C 30.5 12.917969 30.992188 12.691406 32.34375 11.296875 C 34.191406 9.457031 36.5625 8.246094 39.347656 7.722656 C 41.570312 7.304688 43.1875 7.457031 45.710938 8.363281 C 47.257812 8.925781 47.40625 8.890625 49.066406 8.097656 C 51.171875 7.042969 55.238281 6.667969 57.609375 7.34375 C 58.550781 7.609375 60.097656 8.328125 61.039062 8.925781 C 62.546875 9.867188 63.144531 10.019531 66.007812 10.09375 C 68.71875 10.171875 69.621094 10.398438 71.242188 11.222656 C 73.761719 12.542969 75.644531 14.199219 76.664062 16.007812 C 77.230469 16.988281 78.019531 17.699219 79.335938 18.304688 C 81.824219 19.46875 84.042969 21.726562 85.246094 24.289062 C 86.078125 26.023438 86.226562 26.925781 86.269531 29.75 C 86.304688 32.574219 86.492188 33.476562 87.320312 35.285156 C 89.28125 39.464844 88.976562 43.722656 86.378906 47.597656 C 85.589844 48.804688 84.910156 50.15625 84.910156 50.574219 C 84.910156 51.664062 83.59375 54.601562 82.386719 56.183594 C 81.824219 56.9375 79.976562 58.441406 78.246094 59.535156 C 73.277344 62.738281 70.714844 65.898438 69.285156 70.605469 C 68.078125 74.597656 68.230469 74.410156 65.78125 74.296875 L 63.636719 74.183594 L 63.523438 66.503906 C 63.375 55.429688 63.898438 53.773438 68.53125 50.460938 C 70.863281 48.804688 71.015625 48.765625 71.996094 49.289062 C 73.125 49.855469 75.875 52.457031 75.875 52.945312 C 75.875 53.136719 76.210938 53.433594 76.664062 53.660156 C 77.609375 54.1875 78.507812 53.585938 78.507812 52.417969 C 78.507812 51.664062 74.929688 47.863281 73.425781 47.03125 C 72.710938 46.621094 72.710938 46.621094 73.425781 44.960938 C 73.992188 43.722656 74.179688 42.511719 74.179688 39.839844 L 74.179688 36.339844 L 75.761719 35.8125 C 77.683594 35.136719 80.621094 33.179688 81.144531 32.199219 C 81.671875 31.214844 81.21875 30.316406 80.242188 30.316406 C 79.828125 30.316406 78.695312 30.917969 77.796875 31.632812 C 76.4375 32.722656 74.253906 33.703125 73.199219 33.703125 C 73.050781 33.703125 72.484375 33.023438 71.917969 32.199219 C 70.640625 30.355469 67.628906 28.320312 65.140625 27.566406 C 63.488281 27.113281 63.257812 26.925781 63.410156 26.132812 C 63.5625 25.003906 64.386719 23.347656 65.632812 21.691406 C 66.722656 20.261719 66.421875 19.207031 64.953125 19.207031 C 63.824219 19.207031 61.792969 22.144531 60.960938 24.894531 C 60.664062 26.023438 60.171875 26.925781 59.945312 26.925781 C 58.929688 26.925781 55.652344 25.042969 54.523438 23.875 C 53.019531 22.257812 51.8125 19.621094 51.773438 17.847656 C 51.773438 16.269531 51.023438 15.441406 49.890625 15.816406 C 49.289062 16.007812 49.140625 16.382812 49.140625 17.890625 C 49.140625 19.695312 49.066406 19.769531 47.632812 20.523438 C 43.792969 22.480469 40.140625 22.292969 36.671875 19.886719 C 34.679688 18.527344 33.324219 18.453125 33.324219 19.769531 C 33.324219 20.449219 36.035156 23.160156 36.710938 23.160156 C 37.316406 23.160156 37.128906 25.117188 36.335938 26.738281 C 35.621094 28.285156 34.90625 29.183594 33.398438 30.464844 L 32.53125 31.214844 L 30.761719 29.488281 C 27.5625 26.320312 24.097656 25.191406 24.097656 27.300781 C 24.097656 28.015625 24.433594 28.394531 25.679688 28.996094 C 27.300781 29.789062 29.558594 31.59375 29.558594 32.160156 C 29.558594 32.3125 28.316406 32.574219 26.773438 32.6875 C 21.199219 33.097656 16.042969 36.675781 18.679688 38.335938 C 19.128906 38.636719 19.621094 38.484375 20.59375 37.730469 C 22.550781 36.226562 24.285156 35.625 27.789062 35.25 C 31.855469 34.792969 34.117188 33.664062 36.671875 30.878906 C 38.070312 29.332031 38.785156 28.128906 39.234375 26.589844 L 39.875 24.480469 L 42.738281 24.4375 C 44.996094 24.4375 46.011719 24.214844 47.820312 23.386719 L 50.078125 22.367188 L 50.644531 23.234375 C 50.945312 23.683594 51.773438 24.742188 52.453125 25.492188 L 53.730469 26.925781 L 52.945312 28.203125 C 52.488281 28.921875 51.8125 30.390625 51.472656 31.445312 L 50.792969 33.367188 L 48.347656 33.476562 C 45.335938 33.628906 42.359375 34.832031 42.359375 35.886719 C 42.359375 37.09375 43.34375 37.65625 44.472656 37.132812 C 46.050781 36.414062 48.835938 35.921875 49.890625 36.152344 C 50.683594 36.339844 50.980469 36.753906 51.511719 38.449219 C 52.226562 40.785156 54.035156 43.640625 55.015625 44.019531 C 55.730469 44.285156 56.667969 43.640625 56.667969 42.855469 C 56.667969 42.554688 56.253906 41.757812 55.804688 41.121094 C 53.207031 37.617188 53.019531 32.910156 55.277344 29.414062 C 55.878906 28.546875 55.957031 28.507812 57.496094 28.996094 C 58.402344 29.257812 60.320312 29.601562 61.753906 29.75 C 64.691406 30.050781 66.910156 30.878906 68.382812 32.273438 C 69.960938 33.777344 71.355469 36.226562 71.582031 37.960938 L 71.804688 39.539062 L 68.679688 39.539062 C 65.257812 39.539062 63.375 40.179688 63.144531 41.382812 C 62.882812 42.628906 63.597656 42.855469 66.15625 42.363281 C 67.550781 42.101562 69.210938 41.988281 69.996094 42.136719 C 71.316406 42.402344 71.394531 42.476562 71.167969 43.417969 C 70.789062 45 69.324219 46.695312 66.761719 48.464844 C 64.273438 50.15625 62.277344 52.71875 61.527344 55.09375 C 61.261719 55.917969 60.960938 60.210938 60.851562 65.332031 L 60.621094 74.183594 L 58.625 74.296875 C 57.273438 74.371094 56.59375 74.257812 56.480469 73.917969 Z M 56.480469 73.917969 "/>
<path fill-rule="nonzero" fill="rgb(2.745056%, 23.136902%, 39.99939%)" fill-opacity="1" d="M 112.472656 48.351562 C 104.90625 44.585938 96.207031 30.125 96.058594 21.089844 C 95.980469 15.816406 96.207031 15.589844 104.492188 12.429688 C 108.746094 10.847656 109.386719 10.695312 111.269531 10.882812 C 112.398438 11.035156 114.09375 11.148438 115.035156 11.109375 C 116.238281 11.109375 117.066406 11.339844 117.933594 11.9375 C 119.214844 12.84375 127.5 22.179688 128.175781 23.460938 C 128.738281 24.554688 128.703125 26.023438 128.027344 27.300781 C 127.574219 28.167969 127.574219 28.582031 127.910156 29.636719 C 128.175781 30.316406 128.402344 32.648438 128.402344 34.832031 C 128.402344 40.144531 128.140625 40.628906 122.679688 45 C 116.238281 50.15625 116.125 50.199219 112.472656 48.351562 Z M 116.425781 47.445312 C 117.253906 46.882812 118.652344 43.492188 118.046875 43.492188 C 117.859375 43.492188 117.628906 43.832031 117.480469 44.207031 C 116.957031 45.941406 115.789062 46.882812 114.167969 46.882812 C 112.625 46.882812 112.585938 47.371094 114.09375 47.75 C 115.371094 48.050781 115.597656 48.011719 116.425781 47.445312 Z M 117.933594 39.652344 C 117.785156 38.746094 117.519531 37.429688 117.292969 36.675781 C 116.917969 35.398438 116.804688 35.285156 115.148438 35.097656 C 113.078125 34.871094 112.171875 34.003906 108.257812 28.546875 C 106.898438 26.664062 105.769531 25.15625 105.695312 25.230469 C 105.394531 25.53125 107.839844 30.691406 109.386719 33.0625 C 111.605469 36.414062 116.539062 41.160156 117.820312 41.234375 C 118.007812 41.234375 118.046875 40.519531 117.933594 39.652344 Z M 121.664062 27.792969 C 124.21875 26.171875 126.40625 24.628906 126.519531 24.328125 C 126.78125 23.648438 125.839844 22.367188 120.871094 16.644531 C 117.972656 13.257812 116.878906 12.28125 116.164062 12.242188 C 114.84375 12.242188 105.847656 16.570312 105.695312 17.324219 C 105.621094 17.660156 107.691406 20.789062 110.328125 24.289062 C 114.320312 29.601562 115.296875 30.691406 116.050781 30.691406 C 116.578125 30.691406 119.0625 29.414062 121.664062 27.792969 Z M 98.089844 19.207031 C 98.613281 17.285156 99.636719 16.382812 101.175781 16.382812 C 101.78125 16.382812 102.230469 16.234375 102.230469 16.007812 C 102.230469 15.515625 99.746094 15.515625 98.769531 16.046875 C 97.863281 16.53125 96.960938 18.566406 96.960938 20.148438 C 96.960938 21.726562 97.523438 21.277344 98.089844 19.207031 Z M 98.089844 19.207031 "/>
<path fill-rule="nonzero" fill="rgb(60.391235%, 1.960754%, 1.960754%)" fill-opacity="1" d="M 24.589844 123.359375 C 18.300781 120.835938 9.640625 111.535156 4.707031 101.972656 C 2.445312 97.675781 2.488281 97.601562 7.152344 96.023438 C 15.363281 93.273438 27.113281 86.496094 32.308594 81.484375 C 33.363281 80.46875 34.304688 79.640625 34.378906 79.640625 C 34.453125 79.640625 35.132812 80.167969 35.847656 80.773438 C 37.464844 82.203125 41.648438 84.347656 45.75 85.816406 C 49.554688 87.210938 49.628906 87.402344 48.386719 92.371094 C 45.449219 103.890625 40.402344 114.621094 35.46875 119.820312 C 31.816406 123.699219 28.28125 124.867188 24.589844 123.359375 Z M 24.589844 123.359375 "/>
<path fill-rule="nonzero" fill="rgb(60.391235%, 1.960754%, 1.960754%)" fill-opacity="1" d="M 1.769531 94.253906 C 0.828125 93.085938 0 87.664062 0 82.84375 C 0.0390625 75.386719 1.695312 70.457031 5.460938 66.425781 C 6.515625 65.332031 7.34375 64.316406 7.34375 64.203125 C 7.34375 64.054688 6.664062 62.28125 5.835938 60.25 C 4.140625 56.070312 3.953125 54.113281 5.082031 52.269531 C 7.039062 49.027344 12.089844 49.101562 14.082031 52.382812 C 14.421875 52.980469 15.289062 54.902344 16.003906 56.671875 C 16.679688 58.441406 17.359375 59.988281 17.46875 60.136719 C 17.621094 60.324219 19.242188 60.324219 21.085938 60.136719 L 24.433594 59.875 L 25.113281 56.558594 C 25.492188 54.714844 26.054688 52.71875 26.359375 52.113281 C 27.636719 49.667969 30.425781 48.992188 34.152344 50.230469 C 38.480469 51.664062 39.765625 53.921875 38.824219 58.40625 C 38.519531 59.832031 38.367188 61.117188 38.519531 61.230469 C 38.667969 61.339844 39.578125 61.679688 40.550781 61.945312 C 42.246094 62.394531 42.398438 62.359375 43 61.605469 C 44.015625 60.363281 46.273438 59.722656 48.15625 60.136719 C 51.773438 60.929688 52.980469 64.164062 51.4375 68.796875 C 50.71875 70.941406 50.683594 71.472656 51.0625 73.28125 C 51.511719 75.273438 51.359375 81.828125 50.832031 83.105469 C 50.417969 84.121094 49.441406 84.234375 47.21875 83.445312 C 41.378906 81.410156 37.503906 78.964844 36.410156 76.703125 C 35.886719 75.574219 35.582031 75.3125 34.679688 75.3125 C 33.773438 75.3125 33.511719 75.539062 33.210938 76.441406 C 32.71875 77.949219 31.480469 79.265625 28.050781 81.863281 C 21.878906 86.570312 12.539062 91.730469 6.628906 93.761719 C 3.503906 94.816406 2.332031 94.933594 1.769531 94.253906 Z M 1.769531 94.253906 "/>
<path fill-rule="nonzero" fill="rgb(60.391235%, 1.960754%, 1.960754%)" fill-opacity="1" d="M 106.226562 91.242188 C 105.957031 90.75 105.28125 88.53125 104.753906 86.230469 C 104.1875 83.972656 103.097656 79.304688 102.269531 75.875 C 101.480469 72.449219 100.308594 67.59375 99.746094 65.070312 C 99.144531 62.507812 98.578125 60.4375 98.464844 60.4375 C 98.351562 60.4375 97.109375 64.695312 95.71875 69.925781 C 94.324219 75.125 92.964844 79.640625 92.742188 79.90625 C 92.140625 80.625 90.632812 80.507812 90.222656 79.679688 C 89.992188 79.304688 89.28125 76.441406 88.636719 73.390625 C 87.054688 65.824219 87.019531 65.785156 86.269531 68.535156 C 85.058594 72.636719 85.328125 72.488281 79.035156 72.488281 C 73.574219 72.488281 73.574219 72.488281 73.6875 71.660156 C 73.804688 70.832031 73.992188 70.792969 78.46875 70.605469 L 83.140625 70.417969 L 84.949219 65.144531 C 86.566406 60.550781 87.433594 58.933594 88.300781 58.933594 C 89.316406 58.933594 89.953125 60.398438 91.273438 65.445312 C 92.066406 68.496094 92.777344 71.054688 92.855469 71.128906 C 92.964844 71.246094 94.175781 66.652344 95.601562 60.964844 C 98.128906 50.910156 98.769531 49.140625 99.746094 49.140625 C 101.175781 49.140625 101.519531 50.199219 105.242188 66.425781 C 107.316406 75.425781 109.082031 82.882812 109.199219 82.957031 C 109.273438 83.03125 109.460938 82.617188 109.613281 82.050781 C 110.554688 78.023438 112.4375 71.585938 112.8125 71.128906 C 113.191406 70.679688 114.617188 70.605469 120.453125 70.679688 C 127.347656 70.792969 127.648438 70.832031 127.648438 71.546875 C 127.648438 72.261719 127.347656 72.300781 121.019531 72.414062 L 114.394531 72.488281 L 111.875 81.449219 C 110.441406 86.34375 109.082031 90.75 108.78125 91.242188 C 108.484375 91.691406 107.917969 92.066406 107.503906 92.066406 C 107.085938 92.066406 106.523438 91.691406 106.226562 91.242188 Z M 106.226562 91.242188 "/>
<path fill-rule="nonzero" fill="rgb(60.391235%, 1.960754%, 1.960754%)" fill-opacity="1" d="M 115.410156 23.726562 C 113.414062 23.234375 112.023438 22.144531 112.023438 21.050781 C 112.023438 20.296875 113.414062 19.019531 114.242188 19.019531 C 114.65625 19.019531 115.261719 18.640625 115.558594 18.226562 C 116.238281 17.210938 117.972656 17.175781 118.6875 18.117188 C 119.289062 18.945312 119.324219 20.375 118.761719 22.070312 C 118.085938 24.101562 117.746094 24.25 115.410156 23.726562 Z M 115.410156 23.726562 "/>
</svg>
