<?xml version="1.0" encoding="UTF-8"?>
<svg xmlns="http://www.w3.org/2000/svg" xmlns:xlink="http://www.w3.org/1999/xlink" width="95" height="16" viewBox="0 0 95 16">
<path fill-rule="nonzero" fill="rgb(35.293579%, 35.293579%, 35.293579%)" fill-opacity="1" d="M 0 15.734375 L 0 0.265625 L 9.820312 0.265625 L 9.820312 2.089844 L 1.917969 2.089844 L 1.917969 6.878906 L 8.757812 6.878906 L 8.757812 8.707031 L 1.917969 8.707031 L 1.917969 15.734375 Z M 8.921875 15.734375 L 14.527344 0.265625 L 16.597656 0.265625 L 22.554688 15.734375 L 20.367188 15.734375 L 18.660156 11.046875 L 12.570312 11.046875 L 10.96875 15.734375 Z M 13.125 9.382812 L 18.070312 9.382812 L 16.550781 5.089844 C 16.085938 3.792969 15.742188 2.726562 15.515625 1.890625 C 15.328125 2.882812 15.0625 3.867188 14.726562 4.84375 Z M 23.339844 15.734375 L 23.339844 0.265625 L 25.261719 0.265625 L 25.261719 13.910156 L 32.429688 13.910156 L 32.429688 15.734375 Z M 33.402344 10.769531 L 35.214844 10.59375 C 35.300781 11.371094 35.5 12.007812 35.816406 12.511719 C 36.128906 13.003906 36.617188 13.402344 37.277344 13.710938 C 37.941406 14.007812 38.6875 14.15625 39.511719 14.15625 C 40.25 14.15625 40.894531 14.046875 41.457031 13.820312 C 42.019531 13.589844 42.4375 13.269531 42.714844 12.871094 C 43 12.464844 43.140625 12.015625 43.140625 11.53125 C 43.140625 11.050781 43.003906 10.632812 42.738281 10.269531 C 42.472656 9.90625 42.03125 9.601562 41.421875 9.355469 C 41.035156 9.191406 40.171875 8.9375 38.832031 8.59375 C 37.492188 8.253906 36.558594 7.929688 36.015625 7.628906 C 35.324219 7.25 34.804688 6.769531 34.460938 6.191406 C 34.125 5.617188 33.957031 4.976562 33.957031 4.265625 C 33.957031 3.484375 34.160156 2.753906 34.578125 2.078125 C 34.996094 1.398438 35.605469 0.875 36.40625 0.527344 C 37.207031 0.179688 38.09375 0 39.078125 0 C 40.160156 0 41.113281 0.191406 41.9375 0.5625 C 42.761719 0.933594 43.390625 1.472656 43.835938 2.191406 C 44.28125 2.910156 44.519531 3.722656 44.550781 4.628906 L 42.703125 4.765625 C 42.609375 3.792969 42.273438 3.054688 41.703125 2.550781 C 41.128906 2.054688 40.28125 1.804688 39.160156 1.804688 C 37.996094 1.804688 37.148438 2.03125 36.617188 2.488281 C 36.082031 2.941406 35.816406 3.488281 35.816406 4.128906 C 35.816406 4.6875 36.003906 5.148438 36.382812 5.503906 C 36.75 5.863281 37.714844 6.230469 39.277344 6.605469 C 40.847656 6.980469 41.921875 7.3125 42.503906 7.59375 C 43.351562 8.003906 43.976562 8.527344 44.375 9.171875 C 44.78125 9.804688 44.988281 10.539062 44.988281 11.371094 C 44.988281 12.191406 44.765625 12.96875 44.316406 13.695312 C 43.875 14.421875 43.238281 14.992188 42.410156 15.398438 C 41.578125 15.796875 40.644531 16 39.605469 16 C 38.289062 16 37.183594 15.792969 36.285156 15.386719 C 35.398438 14.980469 34.699219 14.363281 34.191406 13.546875 C 33.6875 12.730469 33.425781 11.804688 33.402344 10.769531 Z M 46.988281 15.734375 L 46.988281 0.265625 L 57.515625 0.265625 L 57.515625 2.089844 L 48.910156 2.089844 L 48.910156 6.828125 L 56.972656 6.828125 L 56.972656 8.644531 L 48.910156 8.644531 L 48.910156 13.910156 L 57.855469 13.910156 L 57.855469 15.734375 Z M 46.988281 15.734375 "/>
<path fill-rule="nonzero" fill="rgb(59.999084%, 59.999084%, 59.999084%)" fill-opacity="1" d="M 64.742188 15.609375 L 64.742188 0.140625 L 66.660156 0.140625 L 66.660156 13.785156 L 73.832031 13.785156 L 73.832031 15.609375 Z M 82.113281 14.222656 C 81.445312 14.820312 80.808594 15.25 80.195312 15.5 C 79.582031 15.738281 78.925781 15.859375 78.226562 15.859375 C 77.066406 15.859375 76.171875 15.558594 75.542969 14.957031 C 74.921875 14.359375 74.613281 13.59375 74.613281 12.660156 C 74.613281 12.109375 74.730469 11.609375 74.96875 11.15625 C 75.203125 10.703125 75.507812 10.332031 75.886719 10.058594 C 76.269531 9.785156 76.699219 9.578125 77.179688 9.433594 C 77.535156 9.339844 78.0625 9.25 78.769531 9.15625 C 80.210938 8.976562 81.277344 8.753906 81.960938 8.492188 C 81.964844 8.238281 81.972656 8.074219 81.972656 8.007812 C 81.972656 7.230469 81.800781 6.6875 81.464844 6.371094 C 81.011719 5.9375 80.328125 5.71875 79.429688 5.71875 C 78.585938 5.71875 77.96875 5.875 77.570312 6.191406 C 77.167969 6.503906 76.867188 7.054688 76.675781 7.855469 L 74.933594 7.605469 C 75.085938 6.804688 75.347656 6.164062 75.707031 5.679688 C 76.078125 5.191406 76.605469 4.8125 77.285156 4.554688 C 77.976562 4.289062 78.777344 4.152344 79.6875 4.152344 C 80.589844 4.152344 81.320312 4.265625 81.878906 4.492188 C 82.445312 4.71875 82.855469 5 83.113281 5.34375 C 83.378906 5.683594 83.566406 6.117188 83.679688 6.628906 C 83.742188 6.953125 83.773438 7.539062 83.773438 8.382812 L 83.773438 10.921875 C 83.773438 12.679688 83.808594 13.796875 83.878906 14.273438 C 83.957031 14.742188 84.109375 15.1875 84.339844 15.609375 L 82.46875 15.609375 C 82.277344 15.21875 82.160156 14.753906 82.113281 14.222656 Z M 81.960938 9.984375 C 81.308594 10.265625 80.335938 10.507812 79.039062 10.710938 C 78.300781 10.816406 77.78125 10.941406 77.476562 11.082031 C 77.175781 11.226562 76.9375 11.429688 76.769531 11.710938 C 76.605469 11.976562 76.519531 12.277344 76.519531 12.609375 C 76.519531 13.109375 76.699219 13.53125 77.0625 13.871094 C 77.421875 14.207031 77.953125 14.375 78.652344 14.375 C 79.339844 14.375 79.953125 14.214844 80.488281 13.898438 C 81.023438 13.574219 81.417969 13.132812 81.679688 12.585938 C 81.867188 12.152344 81.960938 11.519531 81.960938 10.683594 Z M 87.511719 15.609375 L 85.851562 15.609375 L 85.851562 0.140625 L 87.640625 0.140625 L 87.640625 5.65625 C 88.394531 4.65625 89.355469 4.152344 90.527344 4.152344 C 91.175781 4.152344 91.792969 4.289062 92.375 4.570312 C 92.953125 4.84375 93.429688 5.234375 93.800781 5.742188 C 94.175781 6.246094 94.46875 6.851562 94.683594 7.554688 C 94.894531 8.265625 95 9.023438 95 9.835938 C 95 11.757812 94.554688 13.246094 93.65625 14.300781 C 92.761719 15.339844 91.691406 15.859375 90.445312 15.859375 C 89.195312 15.859375 88.21875 15.3125 87.511719 14.210938 Z M 87.488281 9.921875 C 87.488281 11.265625 87.660156 12.230469 88.007812 12.835938 C 88.570312 13.808594 89.332031 14.300781 90.289062 14.300781 C 91.074219 14.300781 91.75 13.941406 92.316406 13.21875 C 92.886719 12.496094 93.175781 11.417969 93.175781 9.996094 C 93.175781 8.539062 92.898438 7.460938 92.351562 6.769531 C 91.808594 6.066406 91.148438 5.71875 90.375 5.71875 C 89.585938 5.71875 88.90625 6.078125 88.335938 6.804688 C 87.769531 7.523438 87.488281 8.5625 87.488281 9.921875 Z M 87.488281 9.921875 "/>
</svg>
