<svg viewBox="0 0 396.850393701 278.622047244" width="396.850393701pt" height="278.622047244pt" xmlns="http://www.w3.org/2000/svg" xmlns:xlink="http://www.w3.org/1999/xlink" xmlns:h5="http://www.w3.org/1999/xhtml"><path fill="#ffffff" fill-rule="nonzero" d="M 0 0v 278.622047244h 396.850393701v -278.622047244Z "/><g transform="translate(22.677165354 22.677165354)"><path fill="none" stroke="#000000" stroke-width="0.5" stroke-linecap="butt" stroke-linejoin="miter" stroke-miterlimit="4" d="M 0 0v 233.267716535h 293.402047244v -233.267716535Z "/><path fill="none" stroke="#000000" stroke-width="0.5" stroke-linecap="butt" stroke-linejoin="miter" stroke-miterlimit="4" transform="translate(93.543307087)" d="M 0 0v 233.267716535"/><path fill="none" stroke="#000000" stroke-width="0.5" stroke-linecap="butt" stroke-linejoin="miter" stroke-miterlimit="4" transform="translate(150.952992126)" d="M 0 0v 76.535433071"/><path fill="none" stroke="#000000" stroke-width="0.5" stroke-linecap="butt" stroke-linejoin="miter" stroke-miterlimit="4" transform="translate(150.952992126 126.88976378)" d="M 0 0v 56.023622047"/><path fill="none" stroke="#000000" stroke-width="0.5" stroke-linecap="butt" stroke-linejoin="miter" stroke-miterlimit="4" transform="translate(193.472677165)" d="M 0 0v 76.535433071"/><path fill="none" stroke="#000000" stroke-width="0.5" stroke-linecap="butt" stroke-linejoin="miter" stroke-miterlimit="4" transform="translate(193.472677165 126.88976378)" d="M 0 0v 56.023622047"/><path fill="none" stroke="#000000" stroke-width="0.5" stroke-linecap="butt" stroke-linejoin="miter" stroke-miterlimit="4" transform="translate(235.992362205)" d="M 0 0v 76.535433071"/><path fill="none" stroke="#000000" stroke-width="0.5" stroke-linecap="butt" stroke-linejoin="miter" stroke-miterlimit="4" transform="translate(235.992362205 126.88976378)" d="M 0 0v 56.023622047"/><g transform="translate(46.771653543 12.755905512)"><g transform="matrix(1 0 0 -1 -3.295 3.415)"><use xlink:href="#g52F20EB13BDA4703F72D162DFF428D80" x="0" y="0" fill="#000000" fill-rule="nonzero"/></g></g><g transform="translate(101.346692913)"><path fill="#ffffff" fill-rule="nonzero" d="M 0 0v 25.511811024h 14.173228346v -25.511811024Z "/></g><g transform="translate(96.213307087 9.275905512)"><path fill="#ffffff" fill-rule="nonzero" d="M 0 0v 6.96h 24.44v -6.96Z "/><g transform="matrix(1 0 0 -1 2 5.7)"><use xlink:href="#g7085472719A07A093BB22330C4F45DDC" x="0" y="0" fill="#000000" fill-rule="nonzero"/></g><g transform="matrix(1 0 0 -1 10.94 5.7)"><use xlink:href="#gFEE073C662D1C8F26E39A4E88570FBE5" x="0" y="0" fill="#000000" fill-rule="nonzero"/></g></g><g transform="translate(271.425433071)"><path fill="#ffffff" fill-rule="nonzero" d="M 0 0v 25.511811024h 14.173228346v -25.511811024Z "/></g><g transform="translate(266.292047244 7.925905512)"><path fill="#ffffff" fill-rule="nonzero" d="M 0 0v 9.66h 24.44v -9.66Z "/><g transform="matrix(1 0 0 -1 2 7.32)"><use xlink:href="#g6D1A703EC2DFE307D8AB09AA36359F35" x="0" y="0" fill="#000000" fill-rule="nonzero"/></g><g transform="matrix(1 0 0 -1 10.94 7.32)"><use xlink:href="#gFEE073C662D1C8F26E39A4E88570FBE5" x="0" y="0" fill="#000000" fill-rule="nonzero"/></g></g><g transform="translate(143.866377953)"><path fill="#ffffff" fill-rule="nonzero" d="M 0 0v 25.511811024h 14.173228346v -25.511811024Z "/></g><path fill="none" stroke="#000000" stroke-width="0.5" stroke-linecap="butt" stroke-linejoin="miter" stroke-miterlimit="4" stroke-dashoffset="0" stroke-dasharray="0.5 1" transform="translate(150.952992126)" d="M 0 0v 6.480905512"/><path fill="none" stroke="#000000" stroke-width="0.5" stroke-linecap="butt" stroke-linejoin="miter" stroke-miterlimit="4" stroke-dashoffset="0" stroke-dasharray="0.5 1" transform="translate(150.952992126 19.030905512)" d="M 0 0v 6.480905512"/><g transform="translate(141.607992126 8.480905512)"><path fill="#ffffff" fill-rule="nonzero" d="M 0 0v 8.55h 18.69v -8.55Z "/><g transform="matrix(1 0 0 -1 2 7.55)"><use xlink:href="#g7085472719A07A093BB22330C4F45DDC" x="0" y="0" fill="#000000" fill-rule="nonzero"/></g><g transform="matrix(1 0 0 -1 10.94 7.55)"><use xlink:href="#gE8BA3CF21E78D6C0004D523117C8036" x="0" y="0" fill="#000000" fill-rule="nonzero"/></g></g><g transform="translate(186.386062992)"><path fill="#ffffff" fill-rule="nonzero" d="M 0 0v 25.511811024h 14.173228346v -25.511811024Z "/></g><path fill="none" stroke="#000000" stroke-width="0.5" stroke-linecap="butt" stroke-linejoin="miter" stroke-miterlimit="4" stroke-dashoffset="0" stroke-dasharray="0.5 1" transform="translate(193.472677165)" d="M 0 0v 6.425905512"/><path fill="none" stroke="#000000" stroke-width="0.5" stroke-linecap="butt" stroke-linejoin="miter" stroke-miterlimit="4" stroke-dashoffset="0" stroke-dasharray="0.5 1" transform="translate(193.472677165 19.085905512)" d="M 0 0v 6.425905512"/><g transform="translate(188.597677165 8.425905512)"><path fill="#ffffff" fill-rule="nonzero" d="M 0 0v 8.66h 9.75v -8.66Z "/><g transform="matrix(1 0 0 -1 2 7.55)"><use xlink:href="#gD35910CC98D3E579CB0D84CB6ECB0BA0" x="0" y="0" fill="#000000" fill-rule="nonzero"/></g></g><g transform="translate(228.905748031)"><path fill="#ffffff" fill-rule="nonzero" d="M 0 0v 25.511811024h 14.173228346v -25.511811024Z "/></g><path fill="none" stroke="#000000" stroke-width="0.5" stroke-linecap="butt" stroke-linejoin="miter" stroke-miterlimit="4" stroke-dashoffset="0" stroke-dasharray="0.5 1" transform="translate(235.992362205)" d="M 0 0v 6.480905512"/><path fill="none" stroke="#000000" stroke-width="0.5" stroke-linecap="butt" stroke-linejoin="miter" stroke-miterlimit="4" stroke-dashoffset="0" stroke-dasharray="0.5 1" transform="translate(235.992362205 19.030905512)" d="M 0 0v 6.480905512"/><g transform="translate(231.117362205 8.480905512)"><path fill="#ffffff" fill-rule="nonzero" d="M 0 0v 8.55h 9.75v -8.55Z "/><g transform="matrix(1 0 0 -1 2 7.55)"><use xlink:href="#gE8BA3CF21E78D6C0004D523117C8036" x="0" y="0" fill="#000000" fill-rule="nonzero"/></g></g><g transform="translate(18.173228346 25.511811024)"><g transform="matrix(1 0 0 -1 17.403317148 16.170905512)"><use xlink:href="#gB84A6C1642B6010416D6F461FA023F19" x="0" y="0" fill="#000000" fill-rule="nonzero"/></g><g transform="matrix(1 0 0 -1 23.153317148 16.170905512)"><use xlink:href="#g52F20EB13BDA4703F72D162DFF428D80" x="0" y="0" fill="#000000" fill-rule="nonzero"/></g><g transform="matrix(1 0 0 -1 29.743317148 12.540905512)"><use xlink:href="#gF3D6817C4C2B364A6D0E4DCDDB115153" x="0" y="0" fill="#000000" fill-rule="nonzero"/></g><g transform="matrix(1 0 0 -1 37.05453937 16.170905512)"><use xlink:href="#g7085472719A07A093BB22330C4F45DDC" x="0" y="0" fill="#000000" fill-rule="nonzero"/></g><g transform="matrix(1 0 0 -1 48.216761592 16.170905512)"><use xlink:href="#gB84A6C1642B6010416D6F461FA023F19" x="0" y="0" fill="#000000" fill-rule="nonzero"/></g></g><g transform="translate(108.433307087 25.511811024)"><g transform="matrix(1 0 0 -1 17.36984252 16.170905512)"><use xlink:href="#gF0FB29C9C6195216D5F3788A30EA81BF" x="0" y="0" fill="#000000" fill-rule="nonzero"/></g></g><g transform="translate(150.952992126 25.511811024)"><g transform="matrix(1 0 0 -1 17.36984252 16.170905512)"><use xlink:href="#gE8ADFB55DBC888FEFF5896D44F418AFF" x="0" y="0" fill="#000000" fill-rule="nonzero"/></g></g><g transform="translate(193.472677165 25.511811024)"><g transform="matrix(1 0 0 -1 17.36984252 16.170905512)"><use xlink:href="#gE8ADFB55DBC888FEFF5896D44F418AFF" x="0" y="0" fill="#000000" fill-rule="nonzero"/></g></g><g transform="translate(235.992362205 25.511811024)"><g transform="matrix(1 0 0 -1 17.36984252 16.170905512)"><use xlink:href="#gF0FB29C9C6195216D5F3788A30EA81BF" x="0" y="0" fill="#000000" fill-rule="nonzero"/></g></g><g transform="translate(143.866377953 25.511811024)"><path fill="#ffffff" fill-rule="nonzero" d="M 0 0v 25.511811024h 14.173228346v -25.511811024Z "/></g><path fill="none" stroke="#000000" stroke-width="0.5" stroke-linecap="butt" stroke-linejoin="miter" stroke-miterlimit="4" stroke-dashoffset="0" stroke-dasharray="0.5 1" transform="translate(150.952992126 25.511811024)" d="M 0 0v 6.315905512"/><path fill="none" stroke="#000000" stroke-width="0.5" stroke-linecap="butt" stroke-linejoin="miter" stroke-miterlimit="4" stroke-dashoffset="0" stroke-dasharray="0.5 1" transform="translate(150.952992126 44.707716535)" d="M 0 0v 6.315905512"/><g transform="translate(146.452992126 33.827716535)"><path fill="#ffffff" fill-rule="nonzero" d="M 0 0v 8.88h 9v -8.88Z "/><g transform="matrix(1 0 0 -1 2 7.66)"><use xlink:href="#gAA84A9423BA34B701FF3D1FC1A0341B9" x="0" y="0" fill="#000000" fill-rule="nonzero"/></g></g><g transform="translate(228.905748031 25.511811024)"><path fill="#ffffff" fill-rule="nonzero" d="M 0 0v 25.511811024h 14.173228346v -25.511811024Z "/></g><path fill="none" stroke="#000000" stroke-width="0.5" stroke-linecap="butt" stroke-linejoin="miter" stroke-miterlimit="4" stroke-dashoffset="0" stroke-dasharray="0.5 1" transform="translate(235.992362205 25.511811024)" d="M 0 0v 6.315905512"/><path fill="none" stroke="#000000" stroke-width="0.5" stroke-linecap="butt" stroke-linejoin="miter" stroke-miterlimit="4" stroke-dashoffset="0" stroke-dasharray="0.5 1" transform="translate(235.992362205 44.707716535)" d="M 0 0v 6.315905512"/><g transform="translate(231.492362205 33.827716535)"><path fill="#ffffff" fill-rule="nonzero" d="M 0 0v 8.88h 9v -8.88Z "/><g transform="matrix(1 0 0 -1 2 7.66)"><use xlink:href="#gAA84A9423BA34B701FF3D1FC1A0341B9" x="0" y="0" fill="#000000" fill-rule="nonzero"/></g></g><g transform="translate(4 51.023622047)"><g transform="matrix(1 0 0 -1 30.012153543 16.170905512)"><use xlink:href="#g7B5A9E79C13FD3E4E58AC2CA88450F1C" x="0" y="0" fill="#000000" fill-rule="nonzero"/></g><g transform="matrix(1 0 0 -1 36.592153543 12.540905512)"><use xlink:href="#gDDBDDCFFD6E1A28943E2F2D04B59504A" x="0" y="0" fill="#000000" fill-rule="nonzero"/></g><g transform="matrix(1 0 0 -1 40.001153543 16.175905512)"><use xlink:href="#gA52D779196C8A1DEDF2BDD2746CE0CC7" x="0" y="0" fill="#000000" fill-rule="nonzero"/></g><g transform="matrix(1 0 0 -1 44.471153543 16.170905512)"><use xlink:href="#g52F20EB13BDA4703F72D162DFF428D80" x="0" y="0" fill="#000000" fill-rule="nonzero"/></g><g transform="matrix(1 0 0 -1 51.061153543 16.175905512)"><use xlink:href="#gB64F29D3D4401D567863F7C0E889A12E" x="0" y="0" fill="#000000" fill-rule="nonzero"/></g></g><g transform="translate(108.433307087 51.023622047)"><g transform="matrix(1 0 0 -1 17.36984252 16.170905512)"><use xlink:href="#gF0FB29C9C6195216D5F3788A30EA81BF" x="0" y="0" fill="#000000" fill-rule="nonzero"/></g></g><g transform="translate(150.952992126 51.023622047)"><g transform="matrix(1 0 0 -1 17.36984252 16.170905512)"><use xlink:href="#gE8ADFB55DBC888FEFF5896D44F418AFF" x="0" y="0" fill="#000000" fill-rule="nonzero"/></g></g><g transform="translate(193.472677165 51.023622047)"><g transform="matrix(1 0 0 -1 17.36984252 16.170905512)"><use xlink:href="#gE8ADFB55DBC888FEFF5896D44F418AFF" x="0" y="0" fill="#000000" fill-rule="nonzero"/></g></g><g transform="translate(235.992362205 51.023622047)"><g transform="matrix(1 0 0 -1 17.36984252 16.170905512)"><use xlink:href="#gF0FB29C9C6195216D5F3788A30EA81BF" x="0" y="0" fill="#000000" fill-rule="nonzero"/></g></g><g transform="translate(143.866377953 51.023622047)"><path fill="#ffffff" fill-rule="nonzero" d="M 0 0v 25.511811024h 14.173228346v -25.511811024Z "/></g><path fill="none" stroke="#000000" stroke-width="0.5" stroke-linecap="butt" stroke-linejoin="miter" stroke-miterlimit="4" stroke-dashoffset="0" stroke-dasharray="0.5 1" transform="translate(150.952992126 51.023622047)" d="M 0 0v 6.315905512"/><path fill="none" stroke="#000000" stroke-width="0.5" stroke-linecap="butt" stroke-linejoin="miter" stroke-miterlimit="4" stroke-dashoffset="0" stroke-dasharray="0.5 1" transform="translate(150.952992126 70.219527559)" d="M 0 0v 6.315905512"/><g transform="translate(146.452992126 59.339527559)"><path fill="#ffffff" fill-rule="nonzero" d="M 0 0v 8.88h 9v -8.88Z "/><g transform="matrix(1 0 0 -1 2 7.66)"><use xlink:href="#gAA84A9423BA34B701FF3D1FC1A0341B9" x="0" y="0" fill="#000000" fill-rule="nonzero"/></g></g><g transform="translate(186.386062992 51.023622047)"><path fill="#ffffff" fill-rule="nonzero" d="M 0 0v 25.511811024h 14.173228346v -25.511811024Z "/></g><path fill="none" stroke="#000000" stroke-width="0.5" stroke-linecap="butt" stroke-linejoin="miter" stroke-miterlimit="4" stroke-dashoffset="0" stroke-dasharray="0.5 1" transform="translate(193.472677165 51.023622047)" d="M 0 0v 6.315905512"/><path fill="none" stroke="#000000" stroke-width="0.5" stroke-linecap="butt" stroke-linejoin="miter" stroke-miterlimit="4" stroke-dashoffset="0" stroke-dasharray="0.5 1" transform="translate(193.472677165 70.219527559)" d="M 0 0v 6.315905512"/><g transform="translate(188.972677165 59.339527559)"><path fill="#ffffff" fill-rule="nonzero" d="M 0 0v 8.88h 9v -8.88Z "/><g transform="matrix(1 0 0 -1 2 7.66)"><use xlink:href="#gAA84A9423BA34B701FF3D1FC1A0341B9" x="0" y="0" fill="#000000" fill-rule="nonzero"/></g></g><g transform="translate(228.905748031 51.023622047)"><path fill="#ffffff" fill-rule="nonzero" d="M 0 0v 25.511811024h 14.173228346v -25.511811024Z "/></g><path fill="none" stroke="#000000" stroke-width="0.5" stroke-linecap="butt" stroke-linejoin="miter" stroke-miterlimit="4" stroke-dashoffset="0" stroke-dasharray="0.5 1" transform="translate(235.992362205 51.023622047)" d="M 0 0v 6.315905512"/><path fill="none" stroke="#000000" stroke-width="0.5" stroke-linecap="butt" stroke-linejoin="miter" stroke-miterlimit="4" stroke-dashoffset="0" stroke-dasharray="0.5 1" transform="translate(235.992362205 70.219527559)" d="M 0 0v 6.315905512"/><g transform="translate(231.492362205 59.339527559)"><path fill="#ffffff" fill-rule="nonzero" d="M 0 0v 8.88h 9v -8.88Z "/><g transform="matrix(1 0 0 -1 2 7.66)"><use xlink:href="#gAA84A9423BA34B701FF3D1FC1A0341B9" x="0" y="0" fill="#000000" fill-rule="nonzero"/></g></g><path fill="none" stroke="#000000" stroke-width="0.5" stroke-linecap="butt" stroke-linejoin="miter" stroke-miterlimit="4" transform="translate(14.173228346 25.511811024)" d="M 0 0v 25.511811024"/><g transform="translate(0 25.511811024)"><g transform="matrix(0 -1 -1 0 9.718614173 18.975905512)"><use xlink:href="#gBF93C332C8CE4775458A5DF0AC0CA4AF" x="0" y="0" fill="#000000" fill-rule="nonzero"/><use xlink:href="#g7CADDE05683A2F282E92796EAE7002E6" x="2.48" y="0" fill="#000000" fill-rule="nonzero"/><use xlink:href="#g903D50B8CD94CEB573691E7684D99C1C" x="6.136" y="0" fill="#000000" fill-rule="nonzero"/><use xlink:href="#g3078E795B3E2291E912DCDEB76EE36F" x="9.56" y="0" fill="#000000" fill-rule="nonzero"/><use xlink:href="#gDA9D104EDC10412DB2A75684B1270D2D" x="12.088" y="0" fill="#000000" fill-rule="nonzero"/></g></g><path fill="none" stroke="#000000" stroke-width="0.5" stroke-linecap="butt" stroke-linejoin="miter" stroke-miterlimit="4" transform="translate(0 25.511811024)" d="M 0 0h 293.402047244"/><path fill="none" stroke="#000000" stroke-width="0.5" stroke-linecap="butt" stroke-linejoin="miter" stroke-miterlimit="4" transform="translate(0 51.023622047)" d="M 0 0h 293.402047244"/><path fill="none" stroke="#000000" stroke-width="0.5" stroke-linecap="butt" stroke-linejoin="miter" stroke-miterlimit="4" transform="translate(0 76.535433071)" d="M 0 0h 293.402047244"/><g transform="translate(46.771653543 104.212598425)"><g transform="matrix(1 0 0 -1 -11.055 3.415)"><use xlink:href="#g7B5A9E79C13FD3E4E58AC2CA88450F1C" x="0" y="0" fill="#000000" fill-rule="nonzero"/></g><g transform="matrix(1 0 0 -1 -4.475 3.42)"><use xlink:href="#gA52D779196C8A1DEDF2BDD2746CE0CC7" x="0" y="0" fill="#000000" fill-rule="nonzero"/></g><g transform="matrix(1 0 0 -1 -0.005 3.415)"><use xlink:href="#g52F20EB13BDA4703F72D162DFF428D80" x="0" y="0" fill="#000000" fill-rule="nonzero"/></g><g transform="matrix(1 0 0 -1 6.585 3.42)"><use xlink:href="#gB64F29D3D4401D567863F7C0E889A12E" x="0" y="0" fill="#000000" fill-rule="nonzero"/></g></g><path fill="none" stroke="#000000" stroke-width="0.5" stroke-linecap="butt" stroke-linejoin="miter" stroke-miterlimit="4" transform="translate(0 81.535433071)" d="M 0 0h 293.402047244"/><path fill="none" stroke="#000000" stroke-width="0.5" stroke-linecap="butt" stroke-linejoin="miter" stroke-miterlimit="4" transform="translate(118.550461014 111.22976378)" d="M 0 0l 24.902531112 -16.419270097"/><path fill="none" stroke="#000000" stroke-width="0.5" stroke-linecap="butt" stroke-linejoin="miter" stroke-miterlimit="4" transform="translate(158.452992126 92.396113626)" d="M 0 0l 66.149370079 22.320389949"/><path fill="none" stroke="#000000" stroke-width="0.5" stroke-linecap="butt" stroke-linejoin="miter" stroke-miterlimit="4" transform="translate(247.109516132 111.22976378)" d="M 0 0l 21.285377184 -14.034330709"/><path fill="none" stroke="#000000" stroke-width="0.5" stroke-linecap="butt" stroke-linejoin="miter" stroke-miterlimit="4" stroke-dashoffset="0" stroke-dasharray="0.5 1" transform="translate(150.952992126 96.195433071)" d="M 0 0v 30.694330709"/><g transform="translate(146.452992126 85.535433071)"><path fill="#ffffff" fill-rule="nonzero" d="M 0 0v 8.66h 9v -8.66Z "/><g transform="matrix(1 0 0 -1 2 7.66)"><use xlink:href="#g187F960CD8D343F130EAFAB63E4BE0DE" x="0" y="0" fill="#000000" fill-rule="nonzero"/></g></g><path fill="none" stroke="#000000" stroke-width="0.5" stroke-linecap="butt" stroke-linejoin="miter" stroke-miterlimit="4" stroke-dashoffset="0" stroke-dasharray="0.5 1" transform="translate(235.992362205 81.535433071)" d="M 0 0v 30.694330709"/><g transform="translate(227.602362205 114.22976378)"><path fill="#ffffff" fill-rule="nonzero" d="M 0 0v 8.66h 16.78v -8.66Z "/><g transform="matrix(1 0 0 -1 2 7.66)"><use xlink:href="#gE8ADFB55DBC888FEFF5896D44F418AFF" x="0" y="0" fill="#000000" fill-rule="nonzero"/></g><g transform="matrix(1 0 0 -1 9.78 7.66)"><use xlink:href="#g187F960CD8D343F130EAFAB63E4BE0DE" x="0" y="0" fill="#000000" fill-rule="nonzero"/></g></g><g transform="translate(96.543307087 114.22976378)"><path fill="#ffffff" fill-rule="nonzero" d="M 0 0v 8.66h 21.78v -8.66Z "/><g transform="matrix(1 0 0 -1 2 6.83)"><use xlink:href="#gF0FB29C9C6195216D5F3788A30EA81BF" x="0" y="0" fill="#000000" fill-rule="nonzero"/></g><g transform="matrix(1 0 0 -1 9.78 6.83)"><use xlink:href="#g1CC773F66DB35E258393E16C1A678F1D" x="0" y="0" fill="#000000" fill-rule="nonzero"/></g></g><g transform="translate(268.622047244 85.535433071)"><path fill="#ffffff" fill-rule="nonzero" d="M 0 0v 8.66h 21.78v -8.66Z "/><g transform="matrix(1 0 0 -1 2 6.83)"><use xlink:href="#gF0FB29C9C6195216D5F3788A30EA81BF" x="0" y="0" fill="#000000" fill-rule="nonzero"/></g><g transform="matrix(1 0 0 -1 9.78 6.83)"><use xlink:href="#g1CC773F66DB35E258393E16C1A678F1D" x="0" y="0" fill="#000000" fill-rule="nonzero"/></g></g><path fill="#000000" fill-rule="nonzero" transform="translate(143.452992126 94.810493682)" d="M 0 0l -4.192657202 6.357800373l -3.302754931 -5.009172573Z "/><path fill="#000000" fill-rule="nonzero" transform="translate(224.602362205 114.716503576)" d="M 0 0l -7.591740695 0.604543808l 1.918284355 -5.685084444Z "/><path fill="#000000" fill-rule="nonzero" transform="translate(268.394893316 97.195433071)" d="M 0 0l -4.192657202 6.357800373l -3.302754931 -5.009172573Z "/><path fill="none" stroke="#000000" stroke-width="0.5" stroke-linecap="butt" stroke-linejoin="miter" stroke-miterlimit="4" transform="translate(0 126.88976378)" d="M 0 0h 293.402047244"/><path fill="none" stroke="#000000" stroke-width="0.5" stroke-linecap="butt" stroke-linejoin="miter" stroke-miterlimit="4" transform="translate(0 131.88976378)" d="M 0 0h 293.402047244"/><g transform="translate(18.173228346 131.88976378)"><g transform="matrix(1 0 0 -1 29.51503937 16.170905512)"><use xlink:href="#gC384398DC452DB4485AB1F0A30F247C4" x="0" y="0" fill="#000000" fill-rule="nonzero"/></g><g transform="matrix(1 0 0 -1 35.26503937 16.170905512)"><use xlink:href="#g52F20EB13BDA4703F72D162DFF428D80" x="0" y="0" fill="#000000" fill-rule="nonzero"/></g></g><g transform="translate(108.433307087 131.88976378)"><g transform="matrix(1 0 0 -1 17.36984252 16.170905512)"><use xlink:href="#gE8ADFB55DBC888FEFF5896D44F418AFF" x="0" y="0" fill="#000000" fill-rule="nonzero"/></g></g><g transform="translate(150.952992126 131.88976378)"><g transform="matrix(1 0 0 -1 17.36984252 16.170905512)"><use xlink:href="#gE8ADFB55DBC888FEFF5896D44F418AFF" x="0" y="0" fill="#000000" fill-rule="nonzero"/></g></g><g transform="translate(193.472677165 131.88976378)"><g transform="matrix(1 0 0 -1 17.36984252 16.170905512)"><use xlink:href="#gF0FB29C9C6195216D5F3788A30EA81BF" x="0" y="0" fill="#000000" fill-rule="nonzero"/></g></g><g transform="translate(235.992362205 131.88976378)"><g transform="matrix(1 0 0 -1 17.36984252 16.170905512)"><use xlink:href="#gF0FB29C9C6195216D5F3788A30EA81BF" x="0" y="0" fill="#000000" fill-rule="nonzero"/></g></g><g transform="translate(186.386062992 131.88976378)"><path fill="#ffffff" fill-rule="nonzero" d="M 0 0v 25.511811024h 14.173228346v -25.511811024Z "/></g><path fill="none" stroke="#000000" stroke-width="0.5" stroke-linecap="butt" stroke-linejoin="miter" stroke-miterlimit="4" stroke-dashoffset="0" stroke-dasharray="0.5 1" transform="translate(193.472677165 131.88976378)" d="M 0 0v 6.315905512"/><path fill="none" stroke="#000000" stroke-width="0.5" stroke-linecap="butt" stroke-linejoin="miter" stroke-miterlimit="4" stroke-dashoffset="0" stroke-dasharray="0.5 1" transform="translate(193.472677165 151.085669291)" d="M 0 0v 6.315905512"/><g transform="translate(188.972677165 140.205669291)"><path fill="#ffffff" fill-rule="nonzero" d="M 0 0v 8.88h 9v -8.88Z "/><g transform="matrix(1 0 0 -1 2 7.66)"><use xlink:href="#gAA84A9423BA34B701FF3D1FC1A0341B9" x="0" y="0" fill="#000000" fill-rule="nonzero"/></g></g><g transform="translate(4 157.401574803)"><g transform="matrix(1 0 0 -1 29.172153543 16.170905512)"><use xlink:href="#g7B5A9E79C13FD3E4E58AC2CA88450F1C" x="0" y="0" fill="#000000" fill-rule="nonzero"/></g><g transform="matrix(1 0 0 -1 35.752153543 12.540905512)"><use xlink:href="#g80CF6BDBE0920521FCD7A80E4E722D0D" x="0" y="0" fill="#000000" fill-rule="nonzero"/></g><g transform="matrix(1 0 0 -1 40.841153543 16.175905512)"><use xlink:href="#gA52D779196C8A1DEDF2BDD2746CE0CC7" x="0" y="0" fill="#000000" fill-rule="nonzero"/></g><g transform="matrix(1 0 0 -1 45.311153543 16.170905512)"><use xlink:href="#g52F20EB13BDA4703F72D162DFF428D80" x="0" y="0" fill="#000000" fill-rule="nonzero"/></g><g transform="matrix(1 0 0 -1 51.901153543 16.175905512)"><use xlink:href="#gB64F29D3D4401D567863F7C0E889A12E" x="0" y="0" fill="#000000" fill-rule="nonzero"/></g></g><g transform="translate(108.433307087 157.401574803)"><g transform="matrix(1 0 0 -1 17.36984252 16.170905512)"><use xlink:href="#gE8ADFB55DBC888FEFF5896D44F418AFF" x="0" y="0" fill="#000000" fill-rule="nonzero"/></g></g><g transform="translate(150.952992126 157.401574803)"><g transform="matrix(1 0 0 -1 17.36984252 16.170905512)"><use xlink:href="#gE8ADFB55DBC888FEFF5896D44F418AFF" x="0" y="0" fill="#000000" fill-rule="nonzero"/></g></g><g transform="translate(193.472677165 157.401574803)"><g transform="matrix(1 0 0 -1 17.36984252 16.170905512)"><use xlink:href="#gF0FB29C9C6195216D5F3788A30EA81BF" x="0" y="0" fill="#000000" fill-rule="nonzero"/></g></g><g transform="translate(235.992362205 157.401574803)"><g transform="matrix(1 0 0 -1 17.36984252 16.170905512)"><use xlink:href="#gF0FB29C9C6195216D5F3788A30EA81BF" x="0" y="0" fill="#000000" fill-rule="nonzero"/></g></g><g transform="translate(186.386062992 157.401574803)"><path fill="#ffffff" fill-rule="nonzero" d="M 0 0v 25.511811024h 14.173228346v -25.511811024Z "/></g><path fill="none" stroke="#000000" stroke-width="0.5" stroke-linecap="butt" stroke-linejoin="miter" stroke-miterlimit="4" stroke-dashoffset="0" stroke-dasharray="0.5 1" transform="translate(193.472677165 157.401574803)" d="M 0 0v 6.315905512"/><path fill="none" stroke="#000000" stroke-width="0.5" stroke-linecap="butt" stroke-linejoin="miter" stroke-miterlimit="4" stroke-dashoffset="0" stroke-dasharray="0.5 1" transform="translate(193.472677165 176.597480315)" d="M 0 0v 6.315905512"/><g transform="translate(188.972677165 165.717480315)"><path fill="#ffffff" fill-rule="nonzero" d="M 0 0v 8.88h 9v -8.88Z "/><g transform="matrix(1 0 0 -1 2 7.66)"><use xlink:href="#gAA84A9423BA34B701FF3D1FC1A0341B9" x="0" y="0" fill="#000000" fill-rule="nonzero"/></g></g><path fill="none" stroke="#000000" stroke-width="0.5" stroke-linecap="butt" stroke-linejoin="miter" stroke-miterlimit="4" transform="translate(14.173228346 131.88976378)" d="M 0 0v 25.511811024"/><g transform="translate(0 131.88976378)"><g transform="matrix(0 -1 -1 0 9.718614173 18.975905512)"><use xlink:href="#gBF93C332C8CE4775458A5DF0AC0CA4AF" x="0" y="0" fill="#000000" fill-rule="nonzero"/><use xlink:href="#g7CADDE05683A2F282E92796EAE7002E6" x="2.48" y="0" fill="#000000" fill-rule="nonzero"/><use xlink:href="#g903D50B8CD94CEB573691E7684D99C1C" x="6.136" y="0" fill="#000000" fill-rule="nonzero"/><use xlink:href="#g3078E795B3E2291E912DCDEB76EE36F" x="9.56" y="0" fill="#000000" fill-rule="nonzero"/><use xlink:href="#gDA9D104EDC10412DB2A75684B1270D2D" x="12.088" y="0" fill="#000000" fill-rule="nonzero"/></g></g><path fill="none" stroke="#000000" stroke-width="0.5" stroke-linecap="butt" stroke-linejoin="miter" stroke-miterlimit="4" transform="translate(0 131.88976378)" d="M 0 0h 293.402047244"/><path fill="none" stroke="#000000" stroke-width="0.5" stroke-linecap="butt" stroke-linejoin="miter" stroke-miterlimit="4" transform="translate(0 157.401574803)" d="M 0 0h 293.402047244"/><path fill="none" stroke="#000000" stroke-width="0.5" stroke-linecap="butt" stroke-linejoin="miter" stroke-miterlimit="4" transform="translate(0 182.913385827)" d="M 0 0h 293.402047244"/><path fill="none" stroke="#000000" stroke-width="0.5" stroke-linecap="butt" stroke-linejoin="miter" stroke-miterlimit="4" transform="translate(0 187.913385827)" d="M 0 0h 293.402047244"/><g transform="translate(46.771653543 210.590551181)"><g transform="matrix(1 0 0 -1 -11.055 3.415)"><use xlink:href="#g7B5A9E79C13FD3E4E58AC2CA88450F1C" x="0" y="0" fill="#000000" fill-rule="nonzero"/></g><g transform="matrix(1 0 0 -1 -4.475 3.42)"><use xlink:href="#gA52D779196C8A1DEDF2BDD2746CE0CC7" x="0" y="0" fill="#000000" fill-rule="nonzero"/></g><g transform="matrix(1 0 0 -1 -0.005 3.415)"><use xlink:href="#g52F20EB13BDA4703F72D162DFF428D80" x="0" y="0" fill="#000000" fill-rule="nonzero"/></g><g transform="matrix(1 0 0 -1 6.585 3.42)"><use xlink:href="#gB64F29D3D4401D567863F7C0E889A12E" x="0" y="0" fill="#000000" fill-rule="nonzero"/></g></g><g transform="translate(108.433307087 187.913385827)"><g transform="matrix(1 0 0 -1 17.92484252 26.092165354)"><use xlink:href="#g287828086E27F931FFECA7D29CB90F50" x="0" y="0" fill="#000000" fill-rule="nonzero"/></g></g><g transform="translate(150.952992126 187.913385827)"><g transform="matrix(1 0 0 -1 17.92484252 26.092165354)"><use xlink:href="#g287828086E27F931FFECA7D29CB90F50" x="0" y="0" fill="#000000" fill-rule="nonzero"/></g></g><g transform="translate(193.472677165 187.913385827)"><g transform="matrix(1 0 0 -1 17.92484252 26.092165354)"><use xlink:href="#g48D244DBC0AAC8375AEAF3FDA82F3634" x="0" y="0" fill="#000000" fill-rule="nonzero"/></g></g><g transform="translate(235.992362205 187.913385827)"><g transform="matrix(1 0 0 -1 17.92484252 26.092165354)"><use xlink:href="#g48D244DBC0AAC8375AEAF3FDA82F3634" x="0" y="0" fill="#000000" fill-rule="nonzero"/></g></g><path fill="none" stroke="#000000" stroke-width="0.5" stroke-linecap="butt" stroke-linejoin="miter" stroke-miterlimit="4" d="M 0 0v 233.267716535h 293.402047244v -233.267716535Z "/></g><defs><symbol id="g52F20EB13BDA4703F72D162DFF428D80" overflow="visible"><path d="M 0 0m 6.04 3.64c 0 0.53 -0.53 0.88 -1.14 0.88c -0.57 0 -0.94 -0.43 -1.07 -0.61c -0.25 0.42 -0.81 0.61 -1.38 0.61c -1.26 0 -1.94 -1.23 -1.94 -1.56c 0 -0.14 0.15 -0.14 0.24 -0.14c 0.12 0 0.19 0 0.23 0.13c 0.29 0.91 1.01 1.21 1.42 1.21c 0.38 0 0.56 -0.18 0.56 -0.5c 0 -0.19 -0.14 -0.74 -0.23 -1.1l -0.34 -1.37c -0.15 -0.61 -0.51 -0.91 -0.85 -0.91c -0.05 0 -0.28 0 -0.48 0.15c 0.36 0.1 0.54 0.44 0.54 0.69c 0 0.22 -0.17 0.46 -0.5 0.46c -0.35 0 -0.72 -0.29 -0.72 -0.78c 0 -0.53 0.53 -0.88 1.14 -0.88c 0.57 0 0.94 0.43 1.07 0.61c 0.25 -0.42 0.81 -0.61 1.38 -0.61c 1.26 0 1.94 1.23 1.94 1.56c 0 0.14 -0.15 0.14 -0.24 0.14c -0.12 0 -0.19 0 -0.23 -0.13c -0.29 -0.91 -1.01 -1.21 -1.42 -1.21c -0.38 0 -0.56 0.18 -0.56 0.5c 0 0.21 0.13 0.74 0.22 1.11l 0.35 1.36c 0.15 0.6 0.5 0.91 0.85 0.91c 0.05 0 0.28 0 0.48 -0.15c -0.36 -0.1 -0.54 -0.44 -0.54 -0.69c 0 -0.22 0.17 -0.46 0.5 -0.46c 0.35 0 0.72 0.29 0.72 0.78Z "/></symbol><symbol id="g7085472719A07A093BB22330C4F45DDC" overflow="visible"><path d="M 0 0m 7.98 2.16c 0.21 0 0.3 0.24 0.3 0.35c 0 0.11 -0.09 0.35 -0.3 0.35h -7.06c -0.209974365 0 -0.3 -0.24 -0.3 -0.35c 0 -0.11 0.090025635 -0.35 0.3 -0.35Z "/></symbol><symbol id="gFEE073C662D1C8F26E39A4E88570FBE5" overflow="visible"><path d="M 0 0m 4.99 1.9c -0.58 -0.78 -1.37 -1.38 -2.33 -1.38c -0.88 0 -1.52 0.79 -1.52 1.7c 0 0.81 0.67 1.45 1.48 1.45c 0.79 0 1.38 -0.62 1.9 -1.22Z m 5.37 0.32c 0 -0.81 -0.67 -1.45 -1.48 -1.45c -0.79 0 -1.38 0.62 -1.9 1.22l -0.47 0.55c 0.58 0.78 1.37 1.38 2.33 1.38c 0.88 0 1.52 -0.79 1.52 -1.7Z m 0.64 0c 0 1.35 -1.08 2.45 -2.43 2.45c -1.07 0 -1.99 -0.6 -2.67 -1.43l -0.2 0.23c -0.68 0.79 -1.69 1.23 -2.74 1.23c -1.36 0 -2.46 -1.11 -2.46 -2.48c 0 -1.35 1.08 -2.45 2.43 -2.45c 1.07 0 1.99 0.6 2.67 1.43l 0.2 -0.23c 0.68 -0.79 1.69 -1.23 2.74 -1.23c 1.36 0 2.46 1.11 2.46 2.48Z "/></symbol><symbol id="g6D1A703EC2DFE307D8AB09AA36359F35" overflow="visible"><path d="M 0 0m 0.92 2.16h 3.2v -3.2c 0 -0.21 0.24 -0.3 0.35 -0.3c 0.11 0 0.35 0.09 0.35 0.3v 3.2h 3.16c 0.21 0 0.3 0.24 0.3 0.35c 0 0.11 -0.09 0.35 -0.3 0.35h -3.16v 3.16c 0 0.21 -0.24 0.3 -0.35 0.3c -0.11 0 -0.35 -0.09 -0.35 -0.3v -3.16h -3.2c -0.21 0 -0.3 -0.24 -0.3 -0.35c 0 -0.11 0.09 -0.35 0.3 -0.35Z "/></symbol><symbol id="gE8BA3CF21E78D6C0004D523117C8036" overflow="visible"><path d="M 0 0m 4.94 0v 0.47h -1.4v 5.76c 0 0.22 0 0.32 -0.26 0.32c -0.11 0 -0.13 0 -0.22 -0.07c -0.77 -0.57 -1.8 -0.57 -2.01 -0.57h -0.2v -0.47h 0.2c 0.16 0 0.71 0.01 1.3 0.2v -5.17h -1.39v -0.47c 0.44 0.03 1.5 0.03 1.99 0.03c 0.49 0 1.55 0 1.99 -0.03Z "/></symbol><symbol id="gD35910CC98D3E579CB0D84CB6ECB0BA0" overflow="visible"><path d="M 0 0m 5.29 3.19c 0 0.97 -0.01 3.36 -2.42 3.36c -2.41 0 -2.42 -2.38 -2.42 -3.36c 0 -0.99 0.01 -3.3 2.42 -3.3c 2.4 0 2.42 2.3 2.42 3.3Z m -1.28 0.12c 0 -0.56 0 -1.47 -0.07 -1.99c -0.14 -0.93 -0.77 -1.07 -1.07 -1.07c -0.36 0 -0.92 0.22 -1.05 0.95c -0.09 0.52 -0.09 1.56 -0.09 2.11c 0 0.72 0 1.37 0.08 1.89c 0.12 0.89 0.82 0.99 1.06 0.99c 0.37 0 0.78 -0.19 0.97 -0.63c 0.17 -0.37 0.17 -1.43 0.17 -2.25Z "/></symbol><symbol id="gB84A6C1642B6010416D6F461FA023F19" overflow="visible"><path d="M 0 0m 5.26 1.8c 0 0.55 -0.29 1.41 -1.74 1.72c 0.69 0.21 1.42 0.78 1.42 1.64c 0 0.77 -0.76 1.39 -2.17 1.39c -1.19 0 -1.97 -0.64 -1.97 -1.44c 0 -0.43 0.31 -0.7 0.69 -0.7c 0.45 0 0.7 0.32 0.7 0.69c 0 0.58 -0.54 0.69 -0.58 0.7c 0.35 0.28 0.79 0.36 1.1 0.36c 0.83 0 0.86 -0.64 0.86 -0.97c 0 -0.13 -0.01 -1.44 -1.05 -1.5c -0.41 -0.02 -0.43 -0.03 -0.48 -0.04c -0.1 -0.01 -0.12 -0.11 -0.12 -0.17c 0 -0.18 0.1 -0.18 0.28 -0.18h 0.44c 1.09 0 1.09 -0.98 1.09 -1.49c 0 -0.47 0 -1.49 -1.04 -1.49c -0.26 0 -0.78 0.04 -1.26 0.34c 0.33 0.09 0.58 0.34 0.58 0.75c 0 0.45 -0.32 0.76 -0.76 0.76c -0.42 0 -0.77 -0.27 -0.77 -0.78c 0 -0.9 0.97 -1.5 2.26 -1.5c 1.79 0 2.52 1 2.52 1.91Z "/></symbol><symbol id="gF3D6817C4C2B364A6D0E4DCDDB115153" overflow="visible"><path d="M 0 0m 4.046 1.596h -0.441c -0.014 -0.084 -0.077 -0.581 -0.203 -0.609c -0.147 -0.028 -0.567 -0.028 -0.728 -0.028h -0.959c 0.385 0.287 0.777 0.574 1.183 0.833c 0.567 0.364 1.148 0.735 1.148 1.435c 0 0.84 -0.791 1.365 -1.904 1.365c -0.952 0 -1.666 -0.371 -1.666 -1.036c 0 -0.406 0.329 -0.553 0.539 -0.553c 0.252 0 0.546 0.175 0.546 0.546c 0 0.336 -0.259 0.476 -0.28 0.483c 0.252 0.161 0.574 0.168 0.658 0.168c 0.595 0 1.064 -0.378 1.064 -0.98c 0 -0.539 -0.364 -0.987 -0.77 -1.344l -1.666 -1.477c -0.084 -0.084 -0.091 -0.091 -0.091 -0.231v -0.168h 3.332Z "/></symbol><symbol id="gF0FB29C9C6195216D5F3788A30EA81BF" overflow="visible"><path d="M 0 0m 6.98 2.74h -2.85v 2.85c 0 0.16 -0.08 0.24 -0.24 0.24c -0.16 0 -0.24 -0.08 -0.24 -0.24v -2.85h -2.85c -0.16 0 -0.24 -0.08 -0.24 -0.24c 0 -0.16 0.08 -0.24 0.24 -0.24h 2.85v -2.85c 0 -0.16 0.08 -0.24 0.24 -0.24c 0.16 0 0.24 0.08 0.24 0.24v 2.85h 2.85c 0.16 0 0.24 0.08 0.24 0.24c 0 0.13 -0.11 0.24 -0.24 0.24Z "/></symbol><symbol id="gE8ADFB55DBC888FEFF5896D44F418AFF" overflow="visible"><path d="M 0 0m 6.98 2.7h -6.18c -0.16 0 -0.24 -0.07 -0.24 -0.2c 0 -0.13 0.08 -0.2 0.24 -0.2h 6.18c 0.16 0 0.24 0.07 0.24 0.2c 0 0.12 -0.12 0.2 -0.24 0.2Z "/></symbol><symbol id="gAA84A9423BA34B701FF3D1FC1A0341B9" overflow="visible"><path d="M 0 0m 2.49 -0.22c 1.41 0 2.11 1.14 2.11 3.42c 0 1.53 -0.32 2.55 -0.95 3.05c -0.35 0.27 -0.74 0.41 -1.15 0.41c -1.41 0 -2.11 -1.15 -2.11 -3.46c 0 -1.84 0.49 -3.42 2.1 -3.42Z m 1.12 5.46c 0.07 -0.35 0.1 -0.99 0.1 -1.92c 0 -0.92 -0.04 -1.6 -0.11 -2.04c -0.13 -0.8 -0.5 -1.2 -1.11 -1.2c -0.23 0 -0.46 0.09 -0.67 0.26c -0.27 0.23 -0.43 0.7 -0.5 1.42c -0.03 0.25 -0.04 0.77 -0.04 1.56c 0 0.87 0.03 1.48 0.08 1.81c 0.09 0.55 0.27 0.9 0.55 1.05c 0.22 0.12 0.41 0.18 0.58 0.18c 0.65 0 1.01 -0.53 1.12 -1.12Z "/></symbol><symbol id="g7B5A9E79C13FD3E4E58AC2CA88450F1C" overflow="visible"><path d="M 0 0m 6.26 6.22c 0 0.51 -0.52 0.8 -1.14 0.8c -0.47 0 -1.03 -0.19 -1.38 -0.75c -0.23 -0.37 -0.29 -0.76 -0.48 -1.83h -0.98c -0.19 0 -0.36 0 -0.36 -0.29c 0 -0.18 0.17 -0.18 0.33 -0.18h 0.92l -0.76 -4.26c -0.02 -0.09 -0.13 -0.72 -0.18 -0.86c -0.02 -0.05 -0.18 -0.51 -0.5 -0.51c -0.19 0 -0.27 0.03 -0.34 0.06c 0.25 0.12 0.44 0.38 0.44 0.66c 0 0.3 -0.24 0.46 -0.49 0.46c -0.41 0 -0.72 -0.36 -0.72 -0.74c 0 -0.54 0.57 -0.8 1.09 -0.8c 0.75 0 1.27 0.74 1.35 0.87c 0.43 0.66 0.66 1.93 0.69 2.1l 0.54 3.02h 1.17c 0.19 0 0.37 0 0.37 0.29c 0 0.18 -0.17 0.18 -0.34 0.18h -1.12l 0.33 1.81c 0.03 0.18 0.03 0.2 0.13 0.29c 0.13 0.12 0.24 0.12 0.29 0.12c 0.14 0 0.23 -0.02 0.35 -0.07c -0.24 -0.12 -0.42 -0.38 -0.42 -0.65c 0 -0.3 0.24 -0.46 0.49 -0.46c 0.41 0 0.72 0.36 0.72 0.74Z "/></symbol><symbol id="gDDBDDCFFD6E1A28943E2F2D04B59504A" overflow="visible"><path d="M 0 0m 2.492 3.528c 0 0.147 -0.35 0.315 -0.637 0.315c -0.245 0 -0.266518356 -0.158587769 -0.294 -0.238l -1.015 -2.933h 0.189l 1.659 2.639c 0.028628906 0.039607422 0.098 0.154 0.098 0.217Z "/></symbol><symbol id="gA52D779196C8A1DEDF2BDD2746CE0CC7" overflow="visible"><path d="M 0 0m 3.82 -2.35c 0 0.05 -0.03 0.1 -0.03 0.1c -0.29 0.27 -0.94 0.88 -1.36 2.16c -0.26 0.79 -0.38 1.71 -0.38 2.59c 0 1.97 0.51 3.54 1.61 4.65c 0.15 0.15 0.16 0.16 0.16 0.21c 0 0.11 -0.1 0.14 -0.18 0.14c -0.17 0 -0.59 -0.37 -0.77 -0.54c -1.56 -1.55 -1.79 -3.39 -1.79 -4.45c 0 -1.25 0.33 -2.35 0.8 -3.18c 0.66 -1.15 1.57 -1.82 1.76 -1.82c 0.08 0 0.18 0.03 0.18 0.14Z "/></symbol><symbol id="gB64F29D3D4401D567863F7C0E889A12E" overflow="visible"><path d="M 0 0m 3.38 2.5c 0 1.25 -0.33 2.35 -0.8 3.18c -0.66 1.15 -1.57 1.82 -1.76 1.82c -0.08 0 -0.18 -0.03 -0.18 -0.14c 0 -0.05 0 -0.07 0.17 -0.23c 1.26 -1.28 1.6 -3.05 1.6 -4.62c 0 -1.97 -0.51 -3.54 -1.61 -4.65c -0.15 -0.15 -0.16 -0.16 -0.16 -0.21c 0 -0.11 0.1 -0.14 0.18 -0.14c 0.17 0 0.59 0.37 0.77 0.54c 1.56 1.55 1.79 3.39 1.79 4.45Z "/></symbol><symbol id="gBF93C332C8CE4775458A5DF0AC0CA4AF" overflow="visible"><path d="M 0 0m 1.4 0.976v 2.144h 0.744c 0.072 0 0.184 0.032 0.184 0.104v 0.16c 0 0.032 -0.024 0.048 -0.064 0.048h -0.864v 0.456c 0 1.232 0.368 1.424 0.632 1.424c 0.24 0 0.368 -0.096 0.48 -0.376c 0.064 -0.144 0.152 -0.256 0.32 -0.256c 0.136 0 0.328 0.168 0.328 0.328c 0 0.136 -0.088 0.28 -0.256 0.408c -0.208 0.144 -0.416 0.168 -0.72 0.168c -0.672 0 -1.416 -0.584 -1.416 -1.832v -0.32h -0.408c -0.144 0 -0.184 -0.096 -0.184 -0.16v -0.104c 0 -0.04 0.008 -0.048 0.04 -0.048h 0.552v -2.144c 0 -0.664 -0.128 -0.696 -0.56 -0.728c -0.048 -0.048 -0.048 -0.216 0 -0.264c 0.28 0.008 0.56 0.016 0.88 0.016c 0.32 0 0.704 -0.008 0.984 -0.016c 0.048 0.048 0.048 0.216 0 0.264c -0.624 0.032 -0.672 0.064 -0.672 0.728Z "/></symbol><symbol id="g7CADDE05683A2F282E92796EAE7002E6" overflow="visible"><path d="M 0 0m 2.344 0.384c 0.048 -0.248 0.136 -0.464 0.536 -0.464c 0.304 0 0.592 0.136 0.76 0.296c -0.016 0.096 -0.048 0.168 -0.136 0.216c -0.056 -0.048 -0.192 -0.128 -0.296 -0.128c -0.232 0 -0.24 0.312 -0.24 0.68v 1.176c 0 1.136 -0.624 1.352 -1.208 1.352c -0.656 0 -1.32 -0.432 -1.32 -0.888c 0 -0.192 0.096 -0.288 0.28 -0.288c 0.232 0 0.376 0.168 0.376 0.272c 0 0.056 -0.008 0.112 -0.024 0.144c -0.008 0.024 -0.016 0.072 -0.016 0.16c 0 0.248 0.336 0.336 0.64 0.336c 0.272 0 0.648 -0.136 0.648 -1.04c 0 -0.056 -0.024 -0.088 -0.048 -0.096l -0.688 -0.168c -0.768 -0.192 -1.32 -0.616 -1.32 -1.16c 0 -0.656 0.448 -0.864 1.008 -0.864c 0.28 0 0.52 0.064 0.872 0.336l 0.16 0.128Z m 0 1.48v -1.056c 0 -0.104 -0.048 -0.16 -0.112 -0.208c -0.208 -0.168 -0.48 -0.352 -0.704 -0.352c -0.4 0 -0.576 0.32 -0.576 0.568c 0 0.36 0.168 0.728 0.76 0.88Z "/></symbol><symbol id="g903D50B8CD94CEB573691E7684D99C1C" overflow="visible"><path d="M 0 0m 3.184 0.728c -0.032 0.072 -0.096 0.104 -0.168 0.112c -0.272 -0.352 -0.616 -0.528 -0.96 -0.528c -0.584 0 -1.072 0.592 -1.072 1.528c 0 0.88 0.384 1.408 0.912 1.408c 0.472 0 0.536 -0.28 0.568 -0.56c 0.024 -0.216 0.136 -0.288 0.304 -0.288c 0.168 0 0.392 0.104 0.392 0.352c 0 0.44 -0.456 0.76 -1.224 0.76c -0.792 0 -1.64 -0.712 -1.64 -1.848c 0 -1.032 0.576 -1.744 1.584 -1.744c 0.48 0 0.904 0.152 1.304 0.808Z "/></symbol><symbol id="g3078E795B3E2291E912DCDEB76EE36F" overflow="visible"><path d="M 0 0m 0.344 3.432c -0.112 0 -0.144 -0.096 -0.144 -0.16v -0.104c 0 -0.04 0.008 -0.048 0.04 -0.048h 0.472v -2.408c 0 -0.568 0.248 -0.792 0.616 -0.792c 0.368 0 0.768 0.176 1.08 0.528c -0.016 0.08 -0.064 0.128 -0.144 0.136c -0.208 -0.16 -0.448 -0.224 -0.656 -0.224c -0.216 0 -0.264 0.24 -0.264 0.736v 2.024h 0.832c 0.08 0 0.192 0.032 0.192 0.104v 0.16c 0 0.032 -0.024 0.048 -0.064 0.048h -0.96v 0.312c 0 0.52 0.032 0.84 0.032 0.84c 0 0.048 -0.024 0.072 -0.064 0.072c -0.032 0 -0.104 -0.032 -0.176 -0.072c -0.088 -0.048 -0.168 -0.088 -0.272 -0.112c -0.096 -0.032 -0.176 -0.056 -0.176 -0.112c 0 -0.096 0.024 -0.04 0.024 -0.928Z "/></symbol><symbol id="gDA9D104EDC10412DB2A75684B1270D2D" overflow="visible"><path d="M 0 0m 0.456 0.344c 0 -0.232 0.192 -0.424 0.424 -0.424c 0.232 0 0.424 0.192 0.424 0.424c 0 0.232 -0.192 0.424 -0.424 0.424c -0.232 0 -0.424 -0.192 -0.424 -0.424Z "/></symbol><symbol id="g187F960CD8D343F130EAFAB63E4BE0DE" overflow="visible"><path d="M 0 0m 2.37 6.66c -0.51 0 -0.94 -0.18 -1.31 -0.54c -0.37 -0.36 -0.56 -0.78 -0.56 -1.29c 0 -0.34 0.25 -0.59 0.56 -0.59c 0.3 0 0.55 0.26 0.55 0.56c 0 0.33 -0.24 0.56 -0.56 0.56c -0.03 0 -0.05 0 -0.07 -0.01c 0.19 0.49 0.63 0.92 1.26 0.92c 0.82 0 1.28 -0.71 1.28 -1.57c 0 -0.67 -0.34 -1.39 -1.02 -2.15l -1.88 -2.12c -0.13 -0.15 -0.12 -0.14 -0.12 -0.43h 3.71l 0.29 1.8h -0.33c -0.08 -0.51 -0.15 -0.8 -0.21 -0.89c -0.05 -0.05 -0.35 -0.07 -0.9 -0.07h -1.67l 0.97 0.95c 0.68 0.64 1.54 1.33 1.83 1.86c 0.2 0.35 0.3 0.7 0.3 1.05c 0 1.18 -0.92 1.96 -2.12 1.96Z "/></symbol><symbol id="g1CC773F66DB35E258393E16C1A678F1D" overflow="visible"><path d="M 0 0m 7.49 -0.11c 0.58 0 1.06 0.24 1.43 0.71c 0.34 0.44 0.51 0.96 0.51 1.56c 0 0.59 -0.17 1.11 -0.5 1.55c -0.37 0.47 -0.84 0.71 -1.41 0.71c -0.68 0 -1.27 -0.26 -1.76 -0.78c -0.29 -0.32 -0.52 -0.61 -0.69 -0.86c -0.43 0.51 -0.72 0.83 -0.86 0.95c -0.54 0.46 -1.11 0.69 -1.71 0.69c -0.58 0 -1.06 -0.24 -1.43 -0.71c -0.34 -0.44 -0.51 -0.96 -0.51 -1.56c 0 -0.59 0.17 -1.11 0.5 -1.55c 0.37 -0.47 0.84 -0.71 1.41 -0.71c 0.68 0 1.27 0.26 1.76 0.78c 0.29 0.32 0.52 0.61 0.69 0.86c 0.43 -0.51 0.72 -0.83 0.86 -0.95c 0.54 -0.46 1.11 -0.69 1.71 -0.69Z m 1.64 2.27c 0 -0.28 -0.02 -0.48 -0.05 -0.6c -0.05 -0.19 -0.18 -0.39 -0.39 -0.62c -0.29 -0.33 -0.64 -0.5 -1.04 -0.5c -0.43 0 -0.85 0.23 -1.28 0.69c -0.45 0.55 -0.78 0.96 -0.99 1.24c 0.63 1.11 1.37 1.66 2.21 1.66c 0.93 0 1.54 -0.89 1.54 -1.87Z m -8.27 -0.01c 0 0.45 0.14 0.84 0.42 1.19c 0.28 0.35 0.63 0.53 1.06 0.53c 0.43 0 0.85 -0.23 1.28 -0.69c 0.45 -0.55 0.78 -0.96 0.99 -1.24c -0.63 -1.11 -1.37 -1.66 -2.21 -1.66c -0.93 0 -1.54 0.89 -1.54 1.87Z "/></symbol><symbol id="gC384398DC452DB4485AB1F0A30F247C4" overflow="visible"><path d="M 0 0m 5.26 2.05c 0 1.4 -1.01 2.13 -2.22 2.13c -0.22 0 -0.78 0 -1.2 -0.76v 0.19c 0 1.14 0.21 1.57 0.28 1.72c 0.24 0.47 0.78 0.83 1.39 0.83c 0.18 0 0.52 -0.03 0.75 -0.26c -0.36 -0.05 -0.54 -0.32 -0.54 -0.62c 0 -0.34 0.23 -0.62 0.62 -0.62c 0.39 0 0.63 0.26 0.63 0.64c 0 0.62 -0.42 1.25 -1.48 1.25c -1.36 0 -3.01 -0.86 -3.01 -3.38c 0 -0.79 0.09 -1.59 0.5 -2.28c 0.47 -0.76 1.23 -1 1.93 -1c 1.39 0 2.35 0.82 2.35 2.16Z m -1.36 0.02c 0 -1.01 0 -1.75 -1.01 -1.75c -0.52 0 -0.79 0.39 -0.87 0.55c -0.16 0.32 -0.16 1.05 -0.16 1.23c 0 1.25 0.54 1.72 1.09 1.72c 0.95 0 0.95 -0.75 0.95 -1.75Z "/></symbol><symbol id="g80CF6BDBE0920521FCD7A80E4E722D0D" overflow="visible"><path d="M 0 0m 4.172 3.528c 0 0.147 -0.35 0.315 -0.637 0.315c -0.245 0 -0.266519531 -0.158586914 -0.294 -0.238l -1.015 -2.933h 0.189l 1.659 2.639c 0.028628906 0.039607422 0.098 0.154 0.098 0.217Z m -1.68 0c 0 0.147 -0.35 0.315 -0.637 0.315c -0.245 0 -0.266519531 -0.158586914 -0.294 -0.238l -1.015 -2.933h 0.189l 1.659 2.639c 0.028628906 0.039607422 0.098 0.154 0.098 0.217Z "/></symbol><symbol id="g287828086E27F931FFECA7D29CB90F50" overflow="visible"><path d="M 0 0m 5.83 -0.2c 0.16 0 0.24 0.08 0.24 0.24v 3.77c 0 0.67 -0.3 1.22 -0.89 1.65c -0.53 0.39 -1.15 0.58 -1.84 0.58c -0.69 0 -1.31 -0.19 -1.84 -0.58c -0.59 -0.43 -0.89 -0.98 -0.89 -1.65v -3.77c 0 -0.16 0.08 -0.24 0.24 -0.24c 0.15 0 0.23 0.08 0.23 0.24v 3.77c 0 0.54 0.25 0.98 0.75 1.31c 0.45 0.3 0.95 0.45 1.51 0.45c 0.56 0 1.06 -0.15 1.51 -0.45c 0.5 -0.33 0.75 -0.77 0.75 -1.31v -3.77c 0 -0.16 0.08 -0.24 0.23 -0.24Z "/></symbol><symbol id="g48D244DBC0AAC8375AEAF3FDA82F3634" overflow="visible"><path d="M 0 0m 3.34 -0.2c 0.69 0 1.31 0.19 1.84 0.58c 0.59 0.43 0.89 0.98 0.89 1.65v 3.77c 0 0.16 -0.08 0.24 -0.24 0.24c -0.15 0 -0.23 -0.08 -0.23 -0.24v -3.77c 0 -0.54 -0.25 -0.98 -0.75 -1.31c -0.45 -0.3 -0.95 -0.45 -1.51 -0.45c -0.56 0 -1.06 0.15 -1.51 0.45c -0.5 0.33 -0.75 0.77 -0.75 1.31v 3.77c 0 0.16 -0.08 0.24 -0.23 0.24c -0.16 0 -0.24 -0.08 -0.24 -0.24v -3.77c 0 -0.67 0.3 -1.22 0.89 -1.65c 0.53 -0.39 1.15 -0.58 1.84 -0.58Z "/></symbol></defs></svg>