<svg xmlns="http://www.w3.org/2000/svg" xmlns:xlink="http://www.w3.org/1999/xlink" width="600" height="600" xmlns:v="https://vecta.io/nano"><defs><linearGradient id="A" gradientUnits="userSpaceOnUse" x1="498.738" y1="289.055" x2="500.626" y2="283.42"><stop stop-color="#510000" offset="0"/><stop stop-color="#8a0000" offset=".3"/><stop stop-color="#a00" offset="1"/></linearGradient><linearGradient id="B" gradientUnits="userSpaceOnUse" x1="501.444" y1="291.373" x2="502.927" y2="287.449"><stop stop-color="#ff2a2a" offset="0"/><stop stop-color="red" offset="1"/></linearGradient><linearGradient id="C" gradientUnits="userSpaceOnUse"><stop stop-color="#025" offset="0"/><stop stop-color="#04a" offset=".5"/><stop stop-color="#025" offset="1"/></linearGradient><clipPath id="D"><path d="M500 226.375l-63.702 110.332H563.7z"/></clipPath><linearGradient xlink:href="#C" id="E" x1="444.509" y1="317.486" x2="634.411" y2="317.486"/><linearGradient id="F" gradientUnits="userSpaceOnUse" x1="484.764" y1="311.709" x2="484.764" y2="317.647"><stop stop-color="#f5f549" offset="0"/><stop stop-color="#97c924" offset="1"/></linearGradient><linearGradient xlink:href="#C" id="G"/></defs><path d="M0 297.765l33.264 2.223.327-4.86-13.083-.873 1.013-16.033 13.87-10.057.413-6.16-14.627 10.62c-.493-3.46-2.407-7.023-5.883-8.227-3.043-1.1-6.773-1.293-9.41.883-3.343 2.46-3.947 6.86-4.38 10.69zm5.067-4.54l1.167-16.38c.413-2.693.907-5.807 3.267-7.523 2.133-1.413 5.28-.36 6.153 2.047 1.74 4.157.967 8.74.743 13.1l-.633 9.47-10.7-.713zm-.737-46.537l32.46 7.58 7.377-31.594-4.61-1.08-6.277 26.877-9.88-2.307 5.653-24.22-4.59-1.07-5.653 24.22-8.743-2.043 6.04-25.867-4.633-1.083zm11.693-43.59l31.484 10.95 1.6-4.6-12.383-4.307 4.873-14.28c1.067-3.923 1.89-8.507-.42-12.157-1.873-2.697-5.207-4.423-8.5-4.32-3.627.153-6.583 2.823-8.193 5.917-2.38 4.473-3.71 9.393-5.447 14.133zm6.083-3.04l5.033-14.18c1.133-2.497 2.517-5.457 5.39-6.25 2.36-.543 4.837 1.273 5.043 3.693.577 4.453-1.37 8.657-2.737 12.79l-2.6 7.47zm11.307-37.28l17.793 10.357c3.367 1.81 7.633 2.847 11.157.82 4.8-2.66 7.81-7.57 10.167-12.36 1.863-4.033 3.21-9.043.84-13.167-2.55-4.117-7.187-6.01-11.143-8.467l-11.523-6.74-2.447 4.18 16.953 9.953c2.69 1.637 4.917 4.6 4.453 7.897-.533 3.927-2.777 7.37-5.01 10.547-1.847 2.567-4.943 4.643-8.233 3.95-3.43-.657-6.217-2.9-9.23-4.523l-11.333-6.63zm24.01-39.237l26.473 20.257 12.337-16.08c2.373-3.407 4.56-7.833 2.953-12.013-1.463-3.327-4.887-5.9-8.56-6.067-1.657-.233-3.817 1.023-4.713 1.577.943-3.553-1.967-6.893-5.24-7.833-3.94-1.4-7.933 1.127-10.543 3.927-3.067 3.337-5.627 7.097-8.433 10.65zm6.713-.993l9.277-11.92c1.51-1.68 3.933-3.583 6.273-2.35 2.133.923 2.66 3.617 1.64 5.553-1.617 3.467-4.287 6.277-6.513 9.35l-3.633 4.753zm10.787 8.253l9.633-12.343c1.733-1.813 3.91-4.097 6.657-3.573 2.35.54 4.057 3.087 3.247 5.453-1.323 4.363-4.587 7.703-7.217 11.32l-4.133 5.407zm12.513-42.617l22.89 24.23 19.61-18.527-3.253-3.443-15.683 14.82-.4.38-.293-.307-19.35-20.48zm29.347-25.677l20.317 26.427 3.967-3.05-20.32-26.423zm29.853-20.273c-3.293 2.05-5.947 4.45-7.993 7.253s-3.137 5.7-3.297 8.74.653 5.98 2.443 8.857a17.15 17.15 0 0 0 6.587 6.147c2.733 1.463 5.687 2.003 8.92 1.643s6.85-1.783 10.9-4.307c3.883-2.42 6.633-5.207 8.333-8.413a14.367 14.367 0 0 0 1.387-9.827l-4.61 1.81c1.207 6.66-3.09 9.86-7.9 12.913-7.53 4.58-14.867 4.25-19.36-2.633-4.66-7.757.433-14.167 6.837-18.333 4.547-2.833 9.027-4.773 13.293-2.06l3.607-3.213c-2.483-1.713-5.307-2.507-8.517-2.333-3.373.187-6.897 1.43-10.63 3.757zm39.39-19.657l-3.49 37.354 5.19-2.093 1.05-11.58.02-.01 16.86-6.8 8.79 7.613 5.19-2.09-28.42-24.487-5.193 2.093zm4.56 3.83l11.083 9.59-12.41 5.007 1.327-14.6zm68.5-24.437l2.08 33.267 18.047-1.183c4.727-.543 9.797-1.77 13.027-5.533 4.17-4.623 4.763-11.537 2.937-17.293-1.533-5.067-6.09-8.903-11.25-9.877-5.083-.977-10.263-.203-15.38.027zm5.133 4.423l14.363-.747a12.25 12.25 0 0 1 7.627 2.337c3.333 2.28 5.293 6.387 4.857 10.417-.24 4.633-3.647 8.897-8.15 10.067-2.573.667-5.253.857-7.89 1.147l-9.32.583-1.49-23.8zM305.548 0l-1.9 33.28 32.39 1.85.267-4.727-27.553-1.573.58-10.133 24.83 1.42.267-4.703-24.83-1.42.513-8.963 26.52 1.513.273-4.75zm87.034 13.887l-12.053 31.077 4.287 1.667 9.557-24.643.497-1.28.533 1.423 11.493 33.06 5.613 2.177 12.053-31.077-4.3-1.667-9.55 24.63-.487 1.257-.527-1.407-11.513-33.044zm44.78 19.237l-15.153 29.69-4.453-2.273 15.153-29.69zm25.143 14.73c-3.237-2.133-6.527-3.55-9.927-4.237s-6.49-.473-9.317.65-5.167 3.087-7.033 5.917a17.15 17.15 0 0 0-2.837 8.55c-.187 3.093.55 6 2.23 8.79s4.48 5.483 8.457 8.107c3.823 2.523 7.503 3.86 11.127 4.067 3.477.193 6.637-.753 9.507-2.84l-3.567-3.433c-5.55 3.877-10.25 1.307-15.033-1.793-7.3-4.933-10.063-11.737-5.683-18.693 5.107-7.473 13.057-5.517 19.513-1.433 4.477 2.95 8.107 6.21 7.42 11.22l4.427 1.937c.52-2.973.067-5.867-1.437-8.713-1.577-2.987-4.173-5.67-7.847-8.093zm31.737 23.94l-34.847 13.9 4.23 3.667 10.787-4.337.017.017 13.73 11.917-2.777 11.29 4.227 3.67 8.86-36.454-4.227-3.667zm-1.333 5.803l-3.493 14.233-10.107-8.77zm26.51 17.357l-25.72 21.21 3.097 3.757 10.117-8.343 10.267 12.357-3.19 16.833 3.927 4.767 3.353-17.767c2.88 2.36 7.09 3.547 10.533 1.677 2.96-1.4 5.567-4.093 5.72-7.523.36-4.597-2.917-8.32-5.54-11.73zm-.567 6.78l10.82 13.327c1.583 2.36 3.56 5.673 1.743 8.427-1.5 2.357-4.783 2.15-6.8.623-4.08-2.747-6.777-6.957-9.963-10.613l-4.077-4.943zm39.56 46.27l-37.477 1.717 2.793 4.853 11.613-.567.01.02 9.067 15.757-6.32 9.76 2.79 4.85 20.313-31.54zm-3.16 5.047l-7.967 12.303-6.673-11.6 14.64-.7zm24.547 39.077c-2.083-5.657-5.37-11.447-10.933-14.273-6.187-3.11-14.427-1.6-18.813 3.85-3.823 4.533-4.02 10.937-3 16.507 1.207 6.393 4.14 12.48 8.543 17.287l-2.49.893 1.597 4.437 15.613-5.61-6.073-16.863-3.607 1.3 4.467 12.427-5.29 1.9c-4.667-4.01-7.267-9.933-8.62-15.827-1.003-4.423-1.043-9.723 2.31-13.2 3.85-4.007 10.673-5.25 15.29-1.833 4.557 3.333 7.13 8.737 8.43 14.11.887 3.533.743 7.733-1.937 10.49-.75.56.437 1.343.64 2.017l1.273 2.107a11.763 11.763 0 0 0 4.48-9.323c.093-3.547-.687-7.067-1.88-10.393zm9.573 26.03l-18.643 3.627c-3.457.673-6.05 1.767-7.78 3.227s-2.833 3.507-3.363 6.237c-.527 2.7-.453 6.01.323 10.033a.82.82 0 0 1 .017.097c.79 4.023 1.96 7.117 3.463 9.423 1.517 2.333 3.31 3.82 5.453 4.52s4.967.75 8.427.077l18.64-3.627-.923-4.757-18.193 3.54c-8.167 1.587-10.917-2.71-12.32-10.063l-.017-.093c-1.457-7.34-.517-12.357 7.65-13.947l18.193-3.537zm10.227 56.734l-34.494-14.75.403 5.583 10.707 4.54v.023l1.313 18.133-9.937 6.037.403 5.583 32.007-19.567zm-5.04 3.17l-12.523 7.617-.967-13.347 13.49 5.733zM25.84 361.119l-4.837 1.273 5.347 20.307 4.833-1.27zm548.44 0l4.833 1.273-5.343 20.307-4.833-1.273zM77.39 446.632l-37.267 4.287 3.117 4.65 11.547-1.363.013.02 10.13 15.1-5.64 10.167 3.12 4.65 18.1-32.86zm-2.807 5.253l-7.1 12.82-7.457-11.11zm17.073 15.11L67.9 489.213l3.173 3.393 20.02-18.723-10.503 28.9 3.637 3.89 28.707-8.713-19.66 18.387 3.17 3.39 23.757-22.213-4.817-5.153-29.17 8.713 10.92-28.23zm34.604 35.304l-20.053 26.627 25.92 19.517 2.847-3.783-22.047-16.6 6.103-8.107 19.867 14.96 2.837-3.763-19.867-14.96 5.4-7.173 21.22 15.98 2.867-3.8zm32.614 23.87l-15.7 29.41 4.293 2.293 6.177-11.567 14.2 7.513 3.463 16.78 5.447 2.907-3.667-17.7c3.563 1.083 7.907.573 10.377-2.467 2.1-2.35 3.527-5.643 2.52-8.8-1.17-4.343-5.447-6.617-9.057-8.723zm2.057 6.483l15.083 8.2c2.28 1.543 5.177 3.65 4.89 6.757-.253 2.727-3.193 4.18-5.677 3.6-4.867-.803-8.967-3.703-13.3-5.867l-6.047-3.23zm35.594 13.203l-12.597 30.864 4.633 1.887 12.593-30.86zm30.06 10.383c-3.683-1.223-7.223-1.733-10.687-1.517-3.447.217-6.39 1.23-8.83 3.05s-4.187 4.323-5.253 7.537a17.15 17.15 0 0 0-.52 8.997c.623 3.033 2.09 5.653 4.433 7.91s5.75 4.133 10.273 5.633c4.347 1.44 8.25 1.78 11.8 1.033 3.407-.713 6.213-2.447 8.447-5.207l-4.337-2.393c-4.353 5.187-9.56 3.927-14.983 2.173-8.333-2.867-12.767-8.72-10.343-16.577 2.99-8.54 11.177-8.717 18.473-6.45 5.087 1.687 9.44 3.893 10.077 8.91l4.777.72c-.267-3.007-1.46-5.683-3.647-8.04-2.3-2.477-5.503-4.393-9.68-5.78zm33.514 7.503l-21.8 30.534 5.54.8 6.73-9.483h.023l17.993 2.607 3.767 11 5.54.8-12.253-35.457zm2.017 5.6l4.753 13.867-13.243-1.917 8.49-11.947zm76.12-5.363c-3.81.733-7.147 2.023-10.06 3.907s-4.973 4.2-6.21 6.98-1.533 5.82-.89 9.147a17.15 17.15 0 0 0 3.947 8.1 14.9 14.9 0 0 0 7.74 4.727c3.133.817 7.033.787 11.717-.117 4.493-.867 8.06-2.483 10.793-4.87 2.623-2.293 4.223-5.18 4.817-8.677l-4.95.033c-1.26 6.657-6.417 8.103-12.003 9.233-8.67 1.577-15.4-1.36-17.133-9.397-1.573-8.913 5.48-13.073 12.953-14.667 5.26-1.017 10.137-1.223 13.147 2.84l4.52-1.71a13.267 13.267 0 0 0-7.117-5.227c-3.217-1.033-6.95-1.137-11.27-.303zm22.26-3.943l9.48 31.957 31.103-9.23-1.347-4.54-26.457 7.85-2.887-9.727 23.843-7.073-1.34-4.517-23.843 7.073-2.553-8.607 25.467-7.557-1.357-4.567zm36.06-11.333l13.993 30.254 4.173-1.933-11.67-25.23 32.28 14.88c.717.623 1.433.207 2.153-.177l4.197-1.94-13.993-30.254-4.183 1.933 11.657 25.2-33.154-15.257zm36.604-17.193l2.61 3.967 11.907-7.833.453-.3.223.343 15.49 23.533 4.047-2.663-15.49-23.533-.223-.343.46-.3 11.967-7.877-2.613-3.967zm33.54-22.967l22.59 24.517 3.583-3.3-8.887-9.64 11.773-10.93 16.983 2.26 4.54-4.183-17.92-2.373c2.2-3.007 3.15-7.277 1.093-10.61-1.56-2.877-4.393-5.333-7.827-5.3-4.607-.103-8.147 3.373-11.407 6.18zm6.8.193l12.713-11.533c2.267-1.713 5.467-3.867 8.32-2.207 2.433 1.367 2.41 4.66.993 6.753-2.52 4.233-6.583 7.157-10.06 10.543l-4.7 4.333zm31.98-39.007l14.91 34.424 3.547-4.333-4.653-10.657.013-.017 11.51-14.07 11.367 2.447 3.547-4.333-36.7-7.79-3.54 4.333zm5.84 1.163l14.333 3.077-8.477 10.357zm8.677-20.047l27.967 18.133 14.677-22.633-3.973-2.573-11.74 18.103-.3.467-.353-.233-23.64-15.327z" fill="#c8a400"/><g clip-path="url(#D)" transform="matrix(3.333352 0 0 3.333352 -1366.6743 -700.00389)"><path fill="#fff" d="M500.001 226.408l-31.479 54.535-15.42 26.702H546.9l-14.714-25.484-32.184-55.753z"/><g id="H"><g id="I"><path fill="#17c0eb" stroke="#17c0eb" stroke-width=".129" opacity=".62" d="M500.001 226.408l-2.357 4.082 2.357 54.977 2.357-54.977z"/><path fill="#fff" d="M500.001 277.475l-.134.003.134 3.111.134-3.111z"/></g><use xlink:href="#I" transform="rotate(72 500.001 285.467)"/><use xlink:href="#I" transform="rotate(144 500.001 285.467)"/><use xlink:href="#I" transform="rotate(216 500.001 285.467)"/><use xlink:href="#I" transform="rotate(288 500.001 285.467)"/></g><use xlink:href="#H" transform="rotate(8 500.001 285.467)"/><use xlink:href="#H" transform="rotate(16 500.001 285.467)"/><use xlink:href="#H" transform="rotate(24 500.001 285.467)"/><use xlink:href="#H" transform="rotate(32 500.001 285.467)"/><use xlink:href="#H" transform="rotate(40 500.001 285.467)"/><use xlink:href="#H" transform="rotate(48 500.001 285.467)"/><use xlink:href="#H" transform="rotate(56 500.001 285.467)"/><use xlink:href="#H" transform="rotate(64 500.001 285.467)"/><path fill="red" d="M500 265.844a44.236 44.236 0 0 0-28.969 10.75L456.375 302a44.728 44.728 0 0 0-.75 8.25h5.031c0-21.726 17.618-39.344 39.344-39.344s39.344 17.618 39.344 39.344h5.031a44.85 44.85 0 0 0-.75-8.25l-14.656-25.406A44.249 44.249 0 0 0 500 265.844z"/><path fill="#f60" d="M500 266.656c-11.764 0-22.44 4.675-30.281 12.25l-12.031 20.844a43.596 43.596 0 0 0-1.281 10.5h4.25c0-21.726 17.617-39.344 39.343-39.344s39.344 17.618 39.344 39.344h4.25c0-3.625-.447-7.164-1.281-10.531l-12.031-20.813c-7.841-7.574-18.518-12.25-30.282-12.25z"/><path fill="#ff0" d="M500 267.469c-12.702 0-24.1 5.522-31.938 14.313l-8.718 15.093a42.733 42.733 0 0 0-2.125 13.375h3.437c0-21.726 17.618-39.344 39.344-39.344s39.344 17.618 39.344 39.344h3.437c0-4.673-.74-9.165-2.125-13.375l-8.719-15.095c-7.836-8.788-19.237-14.312-31.938-14.312z"/><path fill="#0f0" d="M500 268.25c-14.55 0-27.372 7.414-34.906 18.656l-2.813 4.875a41.818 41.818 0 0 0-4.282 18.47h2.657c0-21.727 17.617-39.345 39.343-39.345s39.344 17.618 39.344 39.344H542a41.824 41.824 0 0 0-4.28-18.437l-2.845-4.937c-7.536-11.227-20.337-18.625-34.875-18.625z"/><path fill="#0cf" d="M500 269.062c-22.747 0-41.188 18.44-41.188 41.188h1.844c0-21.727 17.618-39.344 39.344-39.344s39.344 17.617 39.344 39.344h1.844c0-22.748-18.44-41.188-41.188-41.188z"/><path fill="#00f" d="M500 269.844c-22.306 0-40.375 18.1-40.375 40.406h1.344c0-21.56 17.472-39.031 39.031-39.031s39.031 17.472 39.031 39.031h1.375c0-22.306-18.1-40.406-40.406-40.406z"/><path fill="purple" d="M500.001 270.657c-21.864 0-39.589 17.725-39.589 39.589l.007.733h.801a35.827 35.827 0 0 1-.007-.733c0-21.422 17.366-38.788 38.788-38.788s38.788 17.366 38.788 38.788l-.007.733h.797l.007-.733c0-21.864-17.721-39.589-39.585-39.589z"/><path fill="#510000" d="M500.395 288.134c-.644-.124-1.226-.484-1.775-.61-.756.725-.835 1.457-.731 2.08.262.14.31.353.878.86s.496.773.462 1.965c-.015.503.07 1.581.579 1.682.548.11.932-.346 1.09-1.16.152-.79.417-1.216.698-1.702.306-1.852-.193-2.508-1.201-3.115z"/><path fill="red" d="M497.168 283.524c-.595.015-1.528 1.012-1.943.475-.239-.308-.279-.902-.037-1.4.559-1.151 1.124-1.716 2.167-2.33 2.378-1.401 3.89-.95 5.074 1.063 1.098 1.772 2.152 3.73 2.246 5.371.03.501.283 1.408-.156 1.86-1.348 1.39-4.596-1.435-6.497-.988-.64.15-1.377.617-1.98.218-.47-.31-.078-.997.272-1.294.612-.52 1.501-2.365 1.38-3.165-.067-.446-.08.179-.526.19z"/><path fill="url(#A)" d="M496.927 282.548c-1.083.445-.966 1.076-1.51 1.59.154.058.766.31 1.364-.301.258-.214.548-.293.677-.362-.305.221-.523.554-.684.684-.404.329-1.034 1.083-1.34 1.846s-.43 1.673-.376 1.782.426.78 1.566 1.232c2.03.807 2.417 2.439 4.477 2.439 1.614 0 1.355-1.056 2.646-.832 1.12.194 1.714-.696.636-1.232-1.371-.468-4.092-.192-5.372.033-.414-4.083-.056-2.65-.152-4.405s-.623-1.86.072-3.281c-.578.872-1.277.734-2.004.807z"/><path fill="#ff2a2a" d="M500.938 279.795c-.04.223-.077.516-.056.6l.278.994c.115.336.162.58.24.928.082.36.401.5.694.722.37.28.084 1.037.315 1.069.184.025.488-1.072.49-1.247a3.8 3.8 0 0 0-.037-.647 15.3 15.3 0 0 0-.426-.872 3.652 3.652 0 0 0-.203-.337 4.204 4.204 0 0 0-.786-.863l-.056-.047-.259-.187z"/><path fill="url(#B)" d="M501.249 287.398c-.718-.188-1.426-.543-2.037-.725-1.2-.359-2.48-1.134-3.366-.814-.317.14-.289.456-.39.91-.042.533-.596 1.32-.136 1.062.685-.383 2.49.733 3.095 1.106.287.177.892.524 1.082 1.022s.092 1.756.041 2.296c-.053.566.119 1.835.686 1.987.611.163 1.078-.323 1.316-1.23.23-.881.405-1.387.757-1.915s.756-.756 1.32-.863 1.382.462 1.382-.203c0-.437-.384-.855-.22-1.454.128-.472-.402-.378-.842-.572-1.036-.319-1.97-.42-2.688-.607z"/><path fill="#910000" d="M498.363 288.902c-.327-.178-2.315-1.478-3.043-1.071-.23.128-.317-.016-.32-.257s.109-.594.184-.866.195-.792.516-1.062c.687-.58 2.269.575 3.108.886z"/><path fill="#ff3a3a" d="M501.763 291.361c.916-1.603 1.508-1.397 2.613-1.374.369.008.477-.329.393-.667-.278.624-1.662-.07-2.415.263-1.573.692-1.28 3.77-2.027 4.07.776.651 1.124-1.746 1.436-2.292z"/><path fill="#fff" d="M453.103 307.645l-9.955 17.237h113.708l-9.956-17.237z"/><g id="J"><path id="K" d="M449.705 321.364c-1.658 0-3.197.167-4.71.353l-.486.846 7.14-.709c3.293.08 6.283.83 9.786.83h4.526c3.5 0 6.489-.75 9.783-.83 3.295.08 6.304.83 9.803.83h4.53c3.5 0 6.474-.75 9.765-.83 3.293.08 6.27.83 9.769.83h4.543c3.5 0 6.49-.75 9.787-.83 3.296.08 6.28.83 9.782.83h4.53c3.499 0 6.475-.75 9.765-.83 2.55.062 4.92.518 7.486.724l-.515-.893-4.368-.321c-1.529-.02-3.036.03-4.547 0-3.5 0-6.474.748-9.765.829-3.296-.08-6.283-.829-9.786-.829-1.513-.02-3.03.031-4.526 0-3.5 0-6.493.749-9.786.829-3.294-.08-6.284-.829-9.783-.829-1.522-.02-3.042.03-4.547 0-3.5 0-6.476.749-9.765.829-3.294-.08-6.27-.829-9.769-.829-1.522-.021-3.026.031-4.526 0-3.502 0-6.49.749-9.786.829-3.294-.08-6.283-.829-9.783-.829-1.52-.02-3.043.031-4.547 0z" fill="url(#E)"/><use xlink:href="#K" y="-1.113" fill="url(#E)"/><use xlink:href="#K" y="-2.23" fill="url(#E)"/></g><use xlink:href="#J" y="-3.344" fill="url(#E)"/><use xlink:href="#J" y="-6.691" fill="url(#E)"/><path d="M453.23 307.458l-.123.215h93.79l-.124-.215zm-.219.377l-.127.22h94.235l-.127-.22h-93.98zm-.2.346l-.205.356h94.792l-.205-.356H452.81zm-.318.55l-.25.434h95.518l-.25-.433h-95.018zm-.399.692l-.25.434h96.316l-.25-.434zm-.399.691l-.247.43h97.107l-.247-.43zm-.398.692l-.25.43h97.91l-.25-.43zm-.43.744l-.304.53h98.877l-.303-.53zm6.49.737c3.45.662 3.782 0 3.782 0zm81.503 0s.331.662 3.782 0z" fill="url(#E)"/><g fill="#ccd11e"><g id="L"><path fill="url(#F)" d="M530.631 297.043c-1.709 0-2.232.862-2.232.862-2.736 10.576-11.807 21.333-22.6 21.333h-8.08v10.768h61.514l-6.187-10.954c-9.707-1.449-17.64-11.373-20.166-21.147 0 0-.54-.862-2.25-.862z"/><path fill="#97c924" d="M530.631 297.465c-.784 0-1.26.18-1.538.355-.264.165-.315.276-.321.288 0 .007-.015.01-.018.016-1.4 5.323-4.352 10.669-8.334 14.707-4.012 4.07-9.07 6.83-14.605 6.83h-7.674v9.922h60.855l-5.68-10.058c-4.687-.612-8.973-3.163-12.458-6.694-3.986-4.038-6.932-9.384-8.334-14.707l-.017-.016c-.007-.012-.07-.105-.338-.271-.283-.176-.754-.372-1.538-.372z"/><path fill="#ede71f" d="M530.63 297.465c.147 0 .28.021.406.034V308.3c-.029 2.34-.83 4.223-2.012 6.441-.547 1.554-.986.963-2.35 2.857-1.83.654-3.186.909-5.138 1.216-2.517.398-8.121.75-10.887.136 3.641-1.068 6.961-3.27 9.771-6.12a30.57 30.57 0 0 0 2.13-2.4 33.663 33.663 0 0 0 3.01-4.48c.352-.626.686-1.248.997-1.893.467-.966.883-1.95 1.25-2.94.124-.331.245-.667.356-.998.222-.664.417-1.33.592-1.995.002-.006.015-.01.016-.017s.058-.122.321-.287a2.23 2.23 0 0 1 .575-.237h.017c.252-.067.554-.118.946-.118z"/><path fill="#c6cb24" d="M529.938 298.902c-.412 6.034-2.277 13.192-6.644 17.81-1.607 1.337-3.66 2.55-5.646 2.255 6.77-5.51 10.885-13.947 12.29-20.065z"/><path fill="#9ecb34" d="M524.494 309.281c-1.002 2.721-4.788 6.746-8.84 10.045-1.15.035-1.76.101-2.804.038 2.468-.225 8.221-5.083 11.644-10.083z"/></g><use xlink:href="#L" x="-15.341"/><g fill="#c6cb24"><path fill="url(#F)" d="M502.218 297.911c2.735 10.575 11.79 21.333 22.583 21.333h8.089v10.768h-65.812l-.017-10.768h8.072c10.792 0 19.863-10.758 22.6-21.333 0 0 .534-.866 2.243-.866s2.243.866 2.243.866z"/><path fill="#97c924" d="M499.975 297.465c.784 0 1.255.196 1.538.372.269.166.332.259.339.27l.017.017c1.401 5.323 4.348 10.669 8.333 14.707 4.017 4.07 9.087 6.83 14.623 6.83h7.64v9.922h-64.98v-9.923h7.675c5.535 0 10.593-2.76 14.605-6.83 3.982-4.037 6.934-9.383 8.334-14.706.003-.007.015-.01.017-.016.006-.012.057-.123.32-.288.28-.174.755-.355 1.539-.355z"/><path fill="#ede71f" d="M499.263 297.53a3.4 3.4 0 0 0-.242.055h-.018a2.184 2.184 0 0 0-.572.236c-.264.165-.314.274-.32.286-.003.006-.017.01-.018.017l-.593 1.997-.356.995-1.249 2.942a34.21 34.21 0 0 1-.998 1.894 33.634 33.634 0 0 1-3.01 4.477 30.73 30.73 0 0 1-2.13 2.403c-2.81 2.85-6.128 5.05-9.769 6.117 2.765.615 4.032-.056 6.549-.454 1.952-.308 4.21-.563 6.043-1.217 1.364-1.894.899-1.3 1.446-2.854 1.181-2.218 2.906-4.222 3.334-6.681 1.619-3.022 1.903-8.614 1.903-10.213z"/><path d="M499.275 298.902c-.412 6.034-2.277 13.192-6.644 17.81-1.606 1.337-3.66 2.55-5.646 2.255 6.77-5.51 10.885-13.947 12.29-20.065z"/><path fill="#9ecb34" d="M493.832 309.281c-1.002 2.721-4.788 6.747-8.84 10.045-1.15.035-1.76.101-2.804.038 2.467-.225 8.222-5.083 11.644-10.083z"/><path fill="#ede71f" d="M500.951 297.584h.018a2.21 2.21 0 0 1 .571.236c.264.165.315.274.321.286.002.006.016.011.018.018l.592 1.996.357.995 1.249 2.942.998 1.895a33.634 33.634 0 0 0 3.01 4.477 30.73 30.73 0 0 0 2.13 2.402c2.81 2.85 6.128 5.445 9.768 6.512-7.245.028-10.389-.63-13.022-4.016s-3.606-4.868-4.14-6.937-2.026-6.57-1.87-10.806z"/><path d="M501.476 298.902c.412 6.034 2.22 12.006 6.587 16.625 1.607 1.337 3.66 2.55 5.646 2.255-7.335-5.002-10.829-12.762-12.233-18.88z"/></g><g id="M"><path fill="url(#F)" d="M484.749 297.043c-1.71 0-2.248.862-2.248.862-2.523 9.747-11.825 22.318-21.497 23.811l-4.79 8.29h49.015v-11.348c-8.825-2.371-15.89-11.63-18.248-20.753 0 0-.523-.862-2.232-.862z"/><path fill="#97c924" d="M484.749 297.465c-.784 0-1.255.196-1.538.372-.269.166-.332.259-.338.27l-.017.017c-1.402 5.323-4.678 10.705-8.08 14.99s-9.72 8.617-14.042 9.076l-4.282 7.393h48.06V318.89c-3.554-1.091-6.8-3.267-9.552-6.06-3.982-4.037-6.934-9.383-8.334-14.706-.002-.007-.015-.01-.017-.016-.006-.012-.058-.123-.321-.288-.28-.174-.755-.355-1.539-.355z"/><path fill="#93bc30" d="M483.445 298.903c-.617 9.043-5.653 20.454-11.34 22.42-1.855.64-5.099.864-6.227 1.008 9.948-4.731 15.828-15.853 17.567-23.428z"/><path fill="#ede71f" d="M484.746 297.465c-.147 0-.28.021-.406.034V308.3c.03 2.34.831 4.223 2.012 6.441.069.194.136.354.203.49.41 1.086.713 1.463 2.282 2.654 4.987 3.787 11.17 4.353 14.808 4.04-1.14-.898-2.358-1.715-3.431-2.467 1.711-.056 3.35-.25 4.513-.508-3.64-1.067-6.96-3.27-9.77-6.12a30.523 30.523 0 0 1-1.403-1.554l-.592-.812c-1.118-1.4-2.263-2.947-3.145-4.513a34.164 34.164 0 0 1-.997-1.894 34.023 34.023 0 0 1-1.606-3.938 31.676 31.676 0 0 1-.592-1.995c-.002-.006-.015-.01-.017-.017s-.057-.122-.321-.287a2.207 2.207 0 0 0-.575-.237h-.017a3.614 3.614 0 0 0-.946-.118z"/><path d="M485.446 298.902c.412 6.034 2.277 13.192 6.644 17.81 1.606 1.337 3.66 2.55 5.646 2.255-6.77-5.51-10.886-13.947-12.29-20.065z"/><path fill="#9ecb34" d="M489.613 307.247c2.369 5.837 8.37 11.29 14.543 14.954 1.15.035 1.492.003 2.537-.06-4.419-2.371-11.539-5.754-17.08-14.894z"/></g><use xlink:href="#M" x="-15.43" fill="#c6cb24"/></g><path fill="#fff" d="M556.5 324.692c-.574.203-4.421-.19-6.433-.044l-1.28.336c-1.123-.008-2.238.024-3.33 0-3.602 0-6.649.948-10.075.948-3.433 0-6.47-.948-10.075-.948-1.12-.008-2.234.025-3.33 0-3.602 0-6.647.948-10.076.948s-6.473-.948-10.075-.948c-1.131-.007-2.242.023-3.348 0-3.602 0-6.632.948-10.058.948s-6.456-.948-10.058-.948c-.267 0-.516.009-.776.017l-.557-.017c-.12 0-.222-.003-.34 0-.116-.003-.236 0-.355 0-.181 0-.345.013-.523.017l-.78-.017c-3.605 0-6.642.949-10.075.948s-6.473-.948-10.075-.948c-.262 0-.522.01-.776.017-.18-.004-.339-.017-.522-.017-.124 0-.252-.003-.374 0-.117-.003-.237 0-.356 0-.181 0-.362.013-.54.017l-.776-.017c-2.88 0-6.218.607-8.936.85l-6.273 10.858 62.972-.007 64.375.007z"/><path fill="url(#G)" d="M547.993 323.111l-.596.007c-3.24.095-5.564 1.115-11.2 1.115s-6.219-1.019-12.584-.879c-5.947.131-8.443 1.262-11.67 1.217s-8.473-.697-12.51-.275-8.828 1.284-11.973 1.291c-3.909-.017-7.82-.73-11.906-.324s-5.997 1.5-11.063 1.485c-4.356-.013-9.083-.698-12.746-.695-3.435.003-7.267.957-10.086 1.443l-.843 1.464c2.247-.26 8.551-1.218 10.802-1.277 2.344-.061 10.717.483 15.335.325s5.158-1.172 10.618-1.172c3.801 0 6.666.399 10.566.399 2.434 0 4.643-1.242 8.343-1.242l2.794-.091c3.119-.515 8.384.045 12.048.232 3.315.173 5.457-.615 8.914-.73l4.474-.148c3.46-.115 6.422.64 9.68.624 3.25-.2 6.403-.922 9.86-1.037l4.49-.148c2.287-.076 5.837.078 8.273.501l-.84-1.45c-2.379-.076-5.311-.635-8.18-.635z"/><g id="N"><path id="O" fill="url(#G)" d="M450.312 334.748c-3.457 0-6.402.853-9.652.945-1.21-.033-2.367-.183-3.535-.345l-.49.85 1.488.063h4.474c3.457 0 6.382-.852 9.634-.945 3.254.092 6.206.945 9.666.945h4.474c3.457 0 6.412-.853 9.666-.945 3.256.092 6.23.945 9.687.945h4.47c3.457 0 6.401-.853 9.652-.945 3.253.092 6.191.945 9.649.945h4.49c3.458 0 6.41-.853 9.667-.945 3.257.092 6.21.945 9.67.945h4.47c3.456 0 6.4-.853 9.651-.945 3.253.092 6.21.945 9.666.945h4.474l1.778-.077-.463-.797-3.235.306c-3.254-.092-6.195-.945-9.652-.945-1.51-.02-2.997.03-4.49 0-3.458 0-6.397.853-9.649.945-3.257-.091-6.206-.945-9.666-.945-1.496-.02-2.993.03-4.473 0-3.458 0-6.413.853-9.667.945-3.254-.092-6.209-.945-9.666-.945-1.503-.02-3.003.03-4.49 0-3.458 0-6.4.853-9.65.945-3.253-.092-6.194-.945-9.651-.945-1.506-.02-2.99.03-4.474 0-3.46 0-6.409.854-9.666.945-3.254-.092-6.208-.945-9.666-.945-1.502-.02-3.006.03-4.49 0z"/><use xlink:href="#O" y="-1.289"/><use xlink:href="#O" y="-2.575"/></g><use xlink:href="#N" y="-3.867"/><use xlink:href="#N" y="-7.729"/><path fill="#97c924" d="M443.846 324.705l-2.427 4.191c2.839-.47 7.102-1.703 10.634-1.706 3.663-.003 8.082.903 12.438.916 5.066.014 6.976-1.079 11.063-1.485s7.998.527 11.906.545c3.145-.007 7.936-1.09 11.973-1.512s7.737.293 12.603.369 5.63-1.18 11.576-1.31c6.366-.141 6.947.877 12.584.877 4.242.229 7.883-.854 11.666-1.121s5.539.043 8.305.109l-1.838-3.253c-.03 0-.06.003-.092.004l-101.246 2.226z"/><path fill="#fff" d="M550.067 324.648l3.847.276a91.39 91.39 0 0 0 2.955.253l-.37-.485c-.573.203-4.42-.19-6.432-.044z"/></g><path fill="#c8a400" d="M300.002 49.58L192.861 235.201 83.334 424.866l214.328-.023 219.008.023-107.177-185.611zm0 10.007l105.167 182.174 102.834 178.094-210.341-.013-205.671.013 105.201-182.151z"/></svg>