<?xml version="1.0" standalone="no"?>
<!DOCTYPE svg PUBLIC "-//W3C//DTD SVG 20010904//EN"
 "http://www.w3.org/TR/2001/REC-SVG-20010904/DTD/svg10.dtd">
<svg version="1.0" xmlns="http://www.w3.org/2000/svg"
 width="1787.000000pt" height="375.000000pt" viewBox="0 0 1787.000000 375.000000"
 preserveAspectRatio="xMidYMid meet">

<g transform="translate(0.000000,375.000000) scale(0.100000,-0.100000)"
fill="#000000" stroke="none">
<path d="M3970 3496 c0 -77 49 -133 175 -201 75 -41 117 -56 258 -91 32 -8 67
-19 78 -24 14 -8 23 -6 39 10 25 25 25 41 -1 74 -26 34 -70 56 -108 56 -57 0
-225 75 -287 129 -56 48 -111 81 -135 81 -15 0 -19 -7 -19 -34z"/>
<path d="M1745 3415 c32 -41 31 -49 -7 -76 -18 -12 -44 -32 -58 -44 -48 -41
-309 -143 -464 -180 -38 -9 -97 -17 -130 -18 l-61 -2 -3 33 c-2 17 -6 32 -9
32 -3 0 -20 -16 -38 -36 l-33 -36 21 -47 c25 -55 41 -74 128 -158 l64 -62 125
-21 c130 -22 175 -22 277 5 76 20 81 16 71 -56 -4 -34 -10 -64 -13 -69 -3 -4
-22 -11 -42 -14 -21 -4 -69 -15 -108 -26 -38 -10 -128 -32 -200 -49 -71 -17
-179 -42 -240 -56 -60 -14 -128 -30 -150 -36 -22 -7 -65 -17 -95 -24 -30 -7
-75 -20 -99 -30 -108 -40 -231 -57 -414 -59 -177 -2 -179 -2 -197 -26 -22 -29
-18 -38 48 -111 27 -30 52 -64 56 -76 17 -52 122 -112 198 -113 58 0 92 12
135 50 19 17 60 43 91 59 59 30 318 98 329 87 6 -6 7 -42 4 -196 -2 -59 3
-100 14 -130 19 -51 29 -86 46 -150 17 -69 57 -140 107 -192 34 -35 43 -50 35
-60 -6 -7 -16 -33 -23 -58 -6 -25 -20 -57 -31 -72 -13 -19 -17 -36 -13 -53 7
-28 19 -37 84 -59 39 -13 47 -13 73 1 17 8 65 18 108 20 68 5 79 3 85 -11 10
-25 -41 -73 -90 -85 -22 -5 -66 -16 -96 -24 -30 -8 -82 -18 -115 -21 -33 -4
-87 -14 -120 -22 -104 -27 -246 -34 -271 -13 -7 6 -23 9 -36 7 -20 -3 -23 -9
-22 -43 0 -26 10 -54 27 -79 15 -21 27 -46 27 -56 0 -23 47 -65 95 -85 59 -24
99 -13 148 41 22 24 44 44 49 44 5 0 55 18 111 40 83 33 116 41 175 42 100 2
106 -8 46 -76 -39 -44 -55 -55 -80 -55 -17 -1 -37 -8 -44 -16 -11 -13 -16 -13
-48 1 -35 14 -37 14 -61 -10 l-24 -25 12 -108 c15 -128 33 -171 100 -237 l50
-49 58 17 c50 15 86 17 253 13 268 -7 413 -21 490 -46 91 -29 96 -28 114 26
29 84 23 107 -43 176 -45 46 -84 74 -154 109 -91 46 -97 48 -183 48 l-88 0 35
36 c18 20 62 58 96 85 86 69 108 106 97 166 -8 41 -15 50 -64 85 -80 56 -108
70 -170 82 -78 16 -81 54 -6 94 22 11 53 15 110 14 71 -2 83 0 117 23 42 30
55 62 34 85 -23 26 -19 36 43 103 78 84 165 194 187 237 10 19 32 54 50 76 42
56 59 111 51 166 -7 49 -59 138 -97 165 -68 50 -164 83 -243 83 -102 0 -195
12 -200 25 -7 20 19 96 38 110 36 26 146 38 300 32 206 -8 306 -34 416 -107
14 -9 45 -24 70 -32 25 -8 66 -24 92 -34 81 -31 121 9 85 87 -34 72 -94 139
-152 171 -171 93 -260 111 -558 113 l-238 2 -34 34 c-24 25 -35 47 -39 80 -6
43 -5 48 24 72 17 15 61 35 98 46 37 11 84 32 104 46 20 14 41 25 46 25 5 0
32 22 59 48 45 43 51 54 55 98 6 64 -7 96 -73 172 -63 73 -118 103 -246 134
l-62 16 24 -33z m-185 -1015 c0 -35 -52 -100 -80 -100 -11 0 -49 -11 -87 -24
-37 -14 -110 -37 -161 -52 -51 -15 -97 -33 -103 -40 -8 -10 -16 -11 -33 -3
-35 18 -76 61 -76 80 0 39 11 49 56 49 24 0 88 14 141 31 97 31 156 48 263 74
78 19 80 19 80 -15z m413 -266 c15 -10 26 -28 27 -39 0 -30 -53 -115 -97 -156
-22 -20 -45 -50 -52 -65 -8 -16 -43 -56 -80 -89 l-66 -60 -3 75 c-2 64 -6 78
-27 97 -22 21 -23 28 -18 100 6 92 28 144 63 155 14 4 70 6 126 4 80 -2 106
-6 127 -22z m-489 -113 c-4 -50 -12 -82 -23 -94 -11 -11 -48 -22 -103 -31
-126 -21 -150 -40 -113 -93 18 -25 100 -46 126 -32 24 12 59 11 59 -2 0 -6
-33 -46 -72 -90 -61 -66 -78 -79 -104 -79 -39 0 -50 13 -57 72 -7 48 -42 129
-79 178 -15 21 -17 31 -9 53 6 15 16 27 22 27 6 0 40 29 75 64 47 48 74 68
106 76 24 7 54 19 68 28 66 42 74 44 93 21 15 -19 17 -34 11 -98z"/>
<path d="M15830 3298 c0 -7 14 -33 31 -58 16 -25 35 -56 40 -69 16 -40 40
-252 33 -297 -3 -22 -1 -58 5 -80 5 -21 10 -138 10 -259 0 -334 1 -356 18
-388 9 -18 11 -33 5 -39 -14 -14 -126 -38 -150 -31 -26 6 -27 13 -7 39 18 24
19 77 1 140 -8 28 -17 125 -21 229 -4 99 -13 200 -21 225 -7 25 -21 75 -31
111 -34 115 -94 199 -143 199 -16 0 -12 -56 5 -70 14 -11 31 -65 53 -165 6
-27 14 -102 17 -165 4 -63 13 -191 21 -283 13 -160 15 -170 39 -189 24 -19 35
-71 18 -81 -7 -4 -123 -18 -247 -30 -12 -1 -25 7 -31 20 -44 86 -94 83 -130
-7 -3 -8 -12 -26 -20 -40 -10 -17 -15 -56 -15 -124 0 -71 -6 -119 -20 -165
-11 -36 -34 -115 -51 -176 -16 -60 -40 -126 -52 -145 -45 -69 -77 -156 -77
-206 0 -97 46 -161 117 -162 46 -1 64 25 73 110 5 40 14 87 20 103 23 57 41
130 49 203 6 50 20 95 44 145 20 39 41 95 47 122 14 65 32 91 67 98 118 22
194 40 228 57 24 12 89 25 165 34 106 13 142 22 239 62 63 25 142 50 175 55
102 14 259 29 302 29 26 0 51 7 67 20 30 24 92 26 144 5 19 -8 61 -15 92 -15
75 -1 133 -15 211 -53 146 -70 157 -87 120 -184 -23 -62 -18 -85 33 -130 48
-42 125 -67 185 -58 26 3 78 5 116 5 62 -1 73 2 120 33 34 23 59 50 75 81 l24
47 -23 50 c-26 55 -86 116 -170 172 -91 61 -104 69 -134 90 -16 11 -65 39
-109 61 -44 23 -93 49 -111 58 -20 10 -65 18 -125 22 -75 4 -98 9 -113 24 -19
18 -19 20 2 78 12 32 25 80 30 106 5 26 13 56 19 67 6 11 11 29 11 41 0 11 9
49 21 83 11 34 25 85 29 114 5 31 21 68 39 94 17 23 31 51 31 63 0 12 10 36
21 55 51 84 -2 193 -98 206 -134 17 -189 29 -250 55 -60 26 -100 29 -103 7 -2
-25 17 -61 50 -90 48 -44 155 -107 181 -107 30 0 34 -26 16 -99 -9 -36 -19
-81 -22 -98 -5 -23 -12 -33 -25 -33 -21 0 -95 53 -157 112 -39 38 -42 39 -52
21 -15 -29 10 -124 45 -170 43 -57 102 -113 119 -113 8 0 15 -8 15 -17 -1 -35
-47 -157 -63 -167 -20 -13 -65 10 -117 60 -36 34 -114 68 -137 60 -19 -8 -16
-31 12 -86 26 -52 123 -140 155 -140 56 0 33 -79 -35 -117 -28 -17 -53 -22
-85 -21 l-45 3 0 40 c0 39 -2 41 -80 93 -92 60 -158 118 -153 135 3 11 102
107 196 189 71 62 62 91 -71 225 -61 61 -88 96 -84 107 10 24 86 68 145 81 67
16 86 32 76 70 -4 18 -18 32 -41 41 -75 32 -82 30 -167 -46 -94 -83 -128 -91
-176 -40 -32 34 -68 50 -112 50 -28 0 -30 -2 -23 -27 11 -45 34 -89 61 -114
13 -12 24 -27 24 -33 0 -13 -139 -134 -177 -154 -14 -8 -28 -11 -31 -7 -4 4
-7 68 -7 143 0 124 -3 141 -24 182 -31 58 -56 90 -89 112 -31 21 -82 24 -82 6z
m604 -419 c25 -28 49 -62 52 -74 17 -67 -132 -208 -201 -191 -16 4 -55 33 -88
65 l-60 58 107 106 c122 121 114 120 190 36z m-279 -319 c15 0 55 -43 55 -60
0 -14 -27 -40 -103 -99 -9 -8 -20 -11 -24 -8 -3 4 -10 44 -15 89 -5 46 -12
103 -15 128 l-5 45 49 -47 c27 -27 53 -48 58 -48z m229 -180 c24 -22 46 -40
49 -40 4 0 32 -16 62 -36 48 -30 56 -39 53 -62 l-3 -27 -115 -6 c-63 -3 -131
-12 -150 -19 -19 -7 -66 -25 -105 -40 -86 -33 -125 -43 -125 -31 0 5 7 14 15
21 8 7 15 22 15 34 0 84 153 246 233 246 18 0 42 -13 71 -40z"/>
<path d="M12972 3249 c-79 -17 -67 -39 53 -99 47 -22 92 -48 100 -56 18 -18
20 -111 5 -164 -6 -19 -21 -87 -34 -150 -21 -103 -45 -173 -119 -342 -18 -43
-29 -53 -116 -102 -53 -30 -109 -60 -124 -65 -41 -16 -88 -13 -108 5 -20 18
-133 47 -188 48 -22 1 -37 -5 -45 -17 -9 -16 -4 -25 34 -59 57 -51 80 -86 80
-120 0 -43 35 -124 76 -178 43 -56 120 -100 177 -100 60 0 70 -19 65 -126 -7
-125 -37 -187 -128 -262 -117 -96 -189 -114 -271 -67 -24 14 -54 25 -65 25
-37 0 -116 72 -129 116 -10 36 -14 39 -46 40 -32 2 -38 -2 -52 -35 -13 -29
-15 -69 -13 -221 4 -200 14 -257 61 -321 13 -19 33 -50 44 -71 25 -45 92 -101
156 -129 37 -17 65 -21 119 -19 39 2 132 3 206 4 141 1 192 13 275 64 38 24
162 262 174 337 24 140 62 300 76 321 8 13 22 24 30 24 26 0 132 -47 179 -79
24 -17 50 -31 57 -31 7 0 43 -18 80 -40 37 -22 74 -40 83 -40 8 0 43 -23 78
-51 35 -28 79 -58 98 -66 19 -9 46 -21 60 -28 14 -7 54 -19 90 -25 100 -19
141 -28 187 -42 34 -10 55 -10 105 1 83 17 185 58 228 91 19 14 43 29 52 33
21 7 63 88 79 151 10 41 9 49 -6 66 -10 11 -24 20 -30 20 -7 0 -36 16 -65 36
-106 73 -117 76 -480 119 -131 16 -158 21 -340 64 -131 30 -244 75 -299 117
-56 43 -67 64 -52 93 14 26 73 61 102 61 23 0 122 25 219 55 25 8 80 23 123
34 43 11 82 23 87 26 16 10 31 84 25 123 -12 68 -45 230 -50 245 -8 19 -87 62
-145 78 -25 7 -89 13 -143 14 -56 1 -103 7 -109 13 -13 13 -6 38 36 137 19 45
26 77 26 132 0 114 -18 222 -48 283 -22 45 -36 60 -79 83 -84 45 -152 58 -288
56 -66 -1 -135 -6 -153 -10z"/>
<path d="M7390 3159 c-14 -4 -50 -7 -80 -8 -49 -1 -63 -7 -150 -64 -188 -125
-462 -263 -569 -286 -65 -14 -126 -45 -135 -68 -9 -23 17 -57 87 -114 65 -52
104 -67 208 -75 66 -6 77 -4 98 15 29 26 41 27 41 4 0 -41 -54 -305 -80 -388
-25 -79 -39 -135 -57 -237 -5 -26 -9 -28 -49 -28 -31 0 -57 9 -91 30 -62 40
-97 40 -113 0 -18 -44 3 -119 55 -188 80 -108 91 -149 65 -260 -25 -104 -46
-176 -59 -201 -6 -11 -20 -57 -31 -103 -11 -46 -29 -107 -40 -136 -11 -29 -20
-60 -20 -70 0 -9 -16 -49 -36 -89 -35 -72 -35 -72 -23 -135 10 -50 20 -70 48
-98 20 -19 40 -44 46 -55 12 -22 50 -30 102 -20 28 5 39 16 65 61 17 31 36 58
43 61 7 2 15 17 19 34 3 16 24 49 46 73 23 24 59 79 82 123 54 103 143 275
175 338 26 53 122 185 134 185 4 0 9 10 13 23 8 34 74 94 90 82 85 -64 113
-81 143 -86 61 -11 171 15 277 65 136 63 189 60 153 -11 -22 -41 -146 -173
-164 -173 -8 0 -50 -34 -93 -75 -43 -41 -86 -75 -94 -75 -25 0 -21 -111 8
-207 31 -104 55 -149 104 -196 l39 -38 99 4 c55 2 142 10 194 17 125 16 356 3
529 -30 87 -16 135 28 135 125 0 66 -39 151 -96 207 -35 35 -56 46 -113 61
-38 10 -80 20 -93 24 -13 3 -34 0 -47 -7 -27 -15 -212 -7 -228 9 -13 13 129
146 216 203 136 88 255 218 270 293 3 17 1 51 -5 78 -14 67 -57 110 -133 132
-54 15 -72 16 -180 5 -191 -20 -170 -27 -169 61 1 91 15 124 45 108 30 -15 95
-1 130 28 16 14 58 69 93 122 52 78 91 120 207 226 291 263 289 261 289 360 0
49 -46 134 -90 165 -50 36 -150 71 -240 86 -47 8 -112 26 -145 40 l-59 27
-126 -12 c-69 -7 -155 -21 -192 -32 -37 -11 -88 -22 -115 -25 -99 -12 -183
-48 -183 -79 0 -21 85 -92 118 -100 26 -5 42 0 90 30 75 46 125 61 234 70 74
6 95 4 145 -14 32 -11 96 -27 141 -35 92 -16 132 -36 132 -66 0 -11 -17 -46
-39 -78 -21 -31 -42 -67 -45 -79 -4 -13 -34 -43 -66 -68 -32 -25 -67 -59 -79
-77 -27 -45 -219 -234 -227 -225 -9 9 13 83 33 114 10 15 25 23 44 23 16 0 29
4 29 9 0 15 -43 85 -57 94 -19 12 -16 36 12 91 14 27 25 64 25 81 0 54 -79
145 -114 132 -15 -6 -30 -58 -46 -155 -8 -49 -20 -82 -35 -100 l-22 -26 -74
13 c-41 7 -94 16 -119 21 -25 4 -46 7 -48 6 -1 -2 8 -18 20 -36 29 -42 82 -70
150 -79 30 -4 60 -11 67 -15 21 -13 9 -203 -15 -253 -17 -34 -23 -38 -63 -41
-63 -5 -83 3 -129 48 -49 47 -68 89 -83 179 -5 36 -26 101 -45 144 -20 42 -38
94 -41 115 -3 20 -10 45 -15 55 -5 10 -15 55 -23 101 -10 67 -11 95 -1 142 14
69 7 116 -24 149 -26 28 -46 34 -80 24z m-39 -519 c15 -58 36 -125 47 -150
140 -309 186 -396 225 -428 23 -19 105 -27 132 -12 26 14 100 9 117 -8 13 -13
-4 -144 -25 -194 -12 -29 -28 -43 -78 -68 -34 -18 -94 -38 -133 -46 -39 -9
-86 -24 -105 -35 -28 -17 -44 -19 -90 -13 -31 4 -76 13 -101 20 -25 8 -57 14
-72 14 -33 0 -36 21 -13 77 8 19 15 40 15 45 0 15 -180 -171 -232 -240 -67
-87 -80 -83 -83 27 -1 37 -11 93 -23 128 -24 68 -27 119 -12 185 5 24 16 80
25 124 8 45 33 123 55 174 31 73 40 106 40 151 0 91 27 140 138 247 53 52 102
98 107 102 25 23 39 2 66 -100z m-131 -879 c0 -12 -47 -61 -60 -61 -16 0 -12
9 18 40 27 30 42 37 42 21z m18 -68 c-2 -9 -9 -18 -17 -21 -9 -3 -11 0 -6 8 5
9 4 11 -3 6 -7 -4 -17 -4 -23 0 -14 8 8 24 34 24 12 0 17 -6 15 -17z m22 -88
c0 -16 -79 -95 -95 -95 -5 1 0 9 13 19 12 11 22 23 22 27 0 8 50 64 57 64 2 0
3 -7 3 -15z"/>
<path d="M7230 1898 c-12 -22 -12 -22 6 -6 10 10 15 20 12 24 -4 3 -12 -5 -18
-18z"/>
<path d="M7275 1909 c-4 -6 -5 -12 -2 -15 2 -3 7 2 10 11 7 17 1 20 -8 4z"/>
<path d="M7171 1797 c-13 -21 -12 -21 5 -5 10 10 16 20 13 22 -3 3 -11 -5 -18
-17z"/>
<path d="M4745 3038 c-27 -4 -95 -12 -150 -17 -55 -5 -131 -19 -170 -31 -55
-17 -109 -23 -255 -29 -187 -9 -288 -23 -550 -81 -58 -13 -138 -3 -173 22 -33
23 -37 20 -54 -35 -13 -41 -12 -43 16 -68 38 -35 110 -46 171 -26 25 8 70 17
101 19 31 3 75 14 100 27 53 28 149 41 149 20 -1 -27 -38 -95 -77 -139 -21
-25 -50 -61 -63 -80 -13 -19 -41 -55 -62 -79 -21 -24 -38 -48 -38 -53 0 -5
-13 -28 -28 -51 -16 -23 -46 -69 -67 -102 -21 -33 -51 -78 -67 -100 -16 -22
-41 -62 -56 -89 -40 -71 -44 -78 -78 -121 -25 -33 -78 -111 -139 -206 -5 -9
-19 -29 -29 -45 -11 -16 -40 -60 -66 -99 -26 -38 -58 -87 -72 -107 -26 -38
-98 -222 -98 -251 0 -30 32 -112 56 -144 13 -18 27 -46 31 -63 5 -27 9 -31 27
-25 12 4 49 12 83 18 34 7 64 15 68 19 4 3 15 37 25 75 17 65 32 108 80 233
12 30 30 79 41 109 28 80 66 140 92 145 12 3 47 8 77 11 30 4 90 22 133 41 69
30 137 44 137 29 0 -4 -7 -19 -15 -35 -8 -16 -24 -76 -35 -132 -11 -57 -29
-141 -41 -188 -26 -102 -18 -150 36 -208 28 -31 37 -35 52 -26 36 22 46 80 32
184 -7 52 -12 99 -10 105 1 5 6 76 10 157 9 166 11 172 88 209 47 23 73 15 73
-21 0 -47 173 -255 245 -296 19 -10 17 -14 -28 -68 -62 -72 -77 -80 -126 -66
-43 11 -95 4 -129 -18 -22 -14 -23 -21 -21 -88 4 -84 -15 -131 -65 -160 -17
-10 -58 -44 -92 -76 -33 -31 -76 -64 -95 -72 -40 -17 -154 -133 -169 -171 -15
-38 -12 -98 6 -152 17 -50 49 -93 69 -93 7 0 34 25 61 56 27 31 88 87 137 126
48 38 104 90 124 115 21 25 56 54 78 63 22 10 57 34 79 54 25 23 48 36 66 36
41 0 104 -25 158 -62 26 -18 68 -43 93 -56 50 -24 99 -65 99 -81 0 -5 -43 -47
-96 -92 -52 -46 -100 -91 -105 -101 -12 -22 -177 -106 -244 -124 -70 -19 -113
-5 -177 56 -29 28 -56 50 -61 50 -4 0 17 -32 48 -72 39 -50 55 -78 51 -92 -6
-24 8 -52 47 -93 28 -30 36 -33 93 -33 83 0 160 17 210 46 50 28 247 232 320
331 30 40 57 73 61 73 11 0 137 -52 149 -61 7 -6 47 -22 90 -38 44 -15 95 -37
114 -49 47 -29 105 -36 187 -23 37 6 118 13 179 14 98 2 117 6 164 30 28 15
65 27 80 27 19 0 36 10 54 31 14 17 26 34 26 37 -1 4 -16 34 -34 67 -29 54
-40 63 -112 101 -43 23 -99 45 -124 49 -62 9 -294 61 -354 80 -27 8 -69 15
-92 15 -64 0 -135 22 -151 46 -12 19 -10 27 14 74 18 36 28 73 31 115 l4 62
99 6 c55 3 112 12 127 19 54 26 33 101 -43 148 -41 26 -142 149 -170 208 -17
36 -27 45 -65 56 l-45 14 54 52 c40 39 50 55 41 63 -17 18 -149 14 -189 -6
-18 -9 -55 -19 -81 -23 -46 -6 -50 -5 -94 36 -25 23 -46 47 -46 52 0 17 65 35
168 47 56 6 146 16 200 22 70 8 108 9 133 1 19 -5 46 -13 60 -16 14 -3 36 -15
50 -27 13 -11 30 -24 38 -29 22 -12 15 -65 -18 -136 l-30 -64 22 -11 c12 -7
33 -25 47 -40 42 -48 90 -52 272 -20 59 10 107 38 133 78 19 29 19 45 -5 122
-33 109 -138 202 -284 249 -77 25 -94 27 -163 20 -43 -4 -139 -12 -213 -18
-207 -16 -298 -30 -383 -57 -51 -16 -91 -23 -113 -20 -21 4 -39 1 -47 -7 -21
-21 -54 -36 -81 -36 -33 0 -219 -45 -331 -79 -49 -16 -112 -34 -139 -40 -26
-6 -68 -20 -91 -31 -49 -22 -144 -35 -163 -22 -16 11 21 80 77 143 21 24 42
55 46 69 31 104 73 195 116 250 15 19 44 78 64 130 27 67 50 108 78 137 l41
43 12 -28 c7 -15 22 -37 32 -49 19 -22 22 -22 73 -9 30 8 56 13 58 10 2 -2 5
-51 6 -109 2 -72 -1 -105 -9 -105 -28 -1 -87 -67 -101 -112 -17 -57 -11 -64
70 -79 61 -11 136 -5 196 16 20 7 80 21 135 30 54 9 108 22 119 28 11 6 48 10
81 9 46 -2 66 2 78 13 23 24 20 37 -16 72 -52 49 -72 56 -113 39 -19 -8 -35
-19 -35 -24 0 -28 -219 -58 -235 -32 -6 11 43 90 56 90 5 0 51 39 102 88 51
48 123 113 160 144 l67 57 78 -3 c42 -2 91 -10 107 -17 29 -12 74 -56 75 -71
0 -11 -101 -113 -132 -132 -14 -10 -58 -20 -97 -23 -74 -6 -84 -18 -25 -29 19
-3 39 -14 44 -24 20 -37 62 -44 157 -25 99 19 135 38 187 95 45 50 50 98 20
191 -19 59 -44 82 -124 112 -112 42 -128 46 -205 40 l-74 -6 -18 33 c-28 51
-46 69 -75 76 -27 6 -28 5 -28 -39 0 -28 -6 -49 -15 -57 -9 -7 -55 -16 -103
-20 -48 -4 -105 -13 -127 -20 -65 -19 -98 -11 -109 28 -11 41 -35 39 -49 -3
-15 -47 -27 -56 -66 -53 -35 3 -36 4 -33 43 1 22 -2 52 -7 67 -15 44 6 61 80
65 35 2 91 0 124 -4 43 -6 71 -5 100 5 22 8 74 17 115 22 41 4 107 16 145 25
53 13 103 16 205 13 l135 -3 12 27 c16 32 8 57 -24 69 -30 11 -159 10 -228 -3z
m-231 -407 c8 -12 -6 -26 -127 -132 -100 -86 -154 -126 -162 -117 -2 2 1 23 5
48 5 25 9 66 10 92 0 26 5 50 10 53 10 6 225 62 247 64 6 1 14 -3 17 -8z
m-165 -739 c-4 -50 25 -96 73 -118 31 -14 56 -16 137 -11 77 5 102 3 111 -7 6
-8 26 -17 46 -20 39 -8 72 -50 99 -125 22 -62 19 -89 -9 -102 -19 -9 -46 -4
-141 25 -65 20 -122 36 -127 36 -4 0 -26 13 -47 28 -22 16 -72 39 -111 51 -59
19 -81 32 -125 76 -55 55 -112 141 -101 152 12 13 132 50 164 52 33 1 33 0 31
-37z m317 -512 c93 -23 114 -42 114 -106 0 -52 -19 -101 -48 -128 -17 -15 -30
-17 -64 -12 -65 10 -152 44 -188 75 -38 32 -35 46 19 83 23 15 39 37 49 66 7
23 19 42 27 42 7 0 48 -9 91 -20z"/>
<path d="M10510 2925 c-34 -31 -81 -65 -104 -75 -66 -30 -266 -79 -366 -90
-173 -20 -210 -68 -154 -196 31 -72 28 -67 89 -147 28 -37 62 -72 78 -78 33
-14 77 -64 77 -88 0 -18 -25 -64 -114 -214 -27 -45 -62 -107 -77 -137 -30 -61
-100 -160 -163 -229 -22 -25 -46 -55 -52 -66 -12 -21 -41 -32 -91 -34 -58 -2
-66 -20 -61 -145 3 -97 7 -118 31 -163 15 -29 27 -60 27 -69 0 -38 55 -127
111 -179 69 -63 110 -78 219 -79 62 -1 83 3 125 25 28 15 97 36 155 49 57 12
140 35 184 52 55 20 113 32 181 38 55 5 126 14 157 20 73 14 211 30 311 37
l79 5 25 55 c21 45 24 64 19 105 -18 131 -86 277 -140 298 -13 5 -27 14 -31
20 -24 38 -190 84 -295 81 -94 -2 -334 -39 -381 -58 -65 -26 -74 9 -19 72 10
11 20 32 23 46 11 45 73 113 206 228 72 61 131 118 131 125 0 22 46 71 137
148 47 39 93 84 102 99 10 16 26 67 35 113 15 70 16 95 7 155 -14 90 -56 176
-112 225 -55 50 -159 97 -230 103 l-56 6 -63 -58z"/>
<path d="M16383 1950 c-24 -5 -73 -27 -110 -48 -38 -22 -79 -43 -93 -47 -14
-4 -47 -19 -75 -34 -27 -16 -72 -36 -100 -46 -27 -10 -68 -30 -90 -45 -22 -14
-49 -31 -60 -38 -50 -31 -113 -55 -172 -65 -38 -7 -63 -16 -63 -23 0 -18 90
-133 121 -157 19 -14 43 -19 86 -19 95 0 141 18 208 83 55 53 168 119 204 119
7 0 47 22 88 50 81 54 142 76 238 86 83 9 135 -1 135 -25 0 -11 -50 -66 -115
-128 l-115 -109 0 -49 c0 -30 6 -55 16 -66 14 -16 14 -18 -4 -28 -12 -6 -54
-15 -94 -20 -40 -5 -93 -16 -117 -25 -45 -17 -50 -17 -166 13 -65 17 -99 13
-123 -12 -32 -34 -27 -58 29 -144 56 -87 87 -123 104 -123 6 0 32 -15 56 -34
83 -64 155 -72 273 -31 61 21 92 26 137 23 81 -6 92 -18 87 -93 -4 -66 -73
-251 -112 -299 l-21 -27 -120 46 c-66 25 -138 58 -160 73 -36 25 -41 34 -53
92 -15 79 -51 154 -74 158 -14 3 -18 -3 -18 -27 0 -16 -4 -32 -9 -35 -4 -3
-14 -34 -21 -68 -6 -35 -22 -77 -36 -95 -18 -24 -24 -44 -24 -86 0 -96 22
-145 102 -230 40 -42 81 -77 92 -77 10 0 35 -13 55 -29 20 -16 81 -50 136 -76
55 -27 107 -54 115 -61 11 -9 28 -10 70 -2 131 23 165 90 210 415 11 78 27
159 35 180 9 21 18 70 20 108 5 83 14 110 49 147 43 45 121 63 276 63 74 0
161 -5 193 -11 55 -11 60 -10 87 12 36 31 54 75 46 116 -8 45 -126 169 -191
202 -45 23 -61 26 -160 25 -60 0 -157 -6 -215 -13 -63 -8 -112 -9 -122 -4 -43
21 -7 68 87 116 69 35 156 187 141 246 -9 34 -119 117 -206 153 -61 25 -76 27
-240 29 -96 2 -194 -1 -217 -6z"/>
<path d="M3866 465 c4 -8 11 -15 16 -15 6 0 5 6 -2 15 -7 8 -14 15 -16 15 -2
0 -1 -7 2 -15z"/>
</g>
</svg>
