<?xml version="1.0" encoding="UTF-8" standalone="no"?>
<!DOCTYPE svg PUBLIC "-//W3C//DTD SVG 1.1//EN" "http://www.w3.org/Graphics/SVG/1.1/DTD/svg11.dtd">
<svg xmlns="http://www.w3.org/2000/svg" xmlns:xlink="http://www.w3.org/1999/xlink" version="1.1" width="2338.5826pt" height="1315.4526pt" viewBox="0 0 2338.5826 1315.4526">
<g enable-background="new">
<path transform="matrix(2.7777777,0,0,2.7777777,0,0)" d="M 0 0 L 841.8898 0 L 841.8898 473.563 L 0 473.563 Z " fill="#ffffff"/>
<path transform="matrix(2.7777777,0,0,2.7777777,0,0)" d="M 0 0 L 841.8898 0 L 841.8898 26.929135 L 0 26.929135 Z " fill="#3059ab"/>
<symbol id="font_0_7">
<path d="M .503 .25800003 L .503 .15 L .42400003 .15 L .42400003 0 L .286 0 L .28500004 .15 L 0 .15 L 0 .246 L .194 .689 L .31400005 .64400008 L .147 .25800003 L .28700004 .25800003 L .30200003 .423 L .42400003 .423 L .42400003 .25800003 L .503 .25800003 Z "/>
</symbol>
<symbol id="font_0_8">
<path d="M .23500002 .924 L .358 .896 L .12400001 0 L 0 .029000007 L .23500002 .924 Z "/>
</symbol>
<symbol id="font_0_9">
<path d="M .37100003 .37800003 C .41700004 .35666669 .45100007 .331 .47300006 .30100004 C .4956667 .27166669 .507 .23733334 .507 .19800002 C .507 .16133334 .49666668 .12766667 .476 .097 C .45533336 .067 .4256667 .043333334 .38700003 .026 C .34833337 .008666667 .303 0 .25100003 0 C .20033336 0 .156 .008666667 .11800001 .026 C .080000009 .043333334 .05066667 .06666667 .030000002 .09600001 C .010000001 .126 0 .159 0 .19500001 C 0 .271 .042333336 .32766668 .127 .365 C .060333339 .40300004 .027000003 .456 .027000003 .524 C .027000003 .56 .037000006 .5913333 .057000005 .61800006 C .077 .64533337 .10400001 .6663333 .13800001 .681 C .17266667 .6956666 .21133334 .703 .254 .703 C .31933335 .703 .37333337 .68766668 .41600005 .657 C .45933334 .6263333 .48100005 .584 .481 .53 C .48100005 .46733333 .44433335 .41666667 .37100003 .37800003 M .25500003 .606 C .227 .606 .205 .59866669 .18900001 .584 C .17300003 .57 .16500002 .54933336 .16500002 .522 C .16500002 .49733339 .17233336 .47733335 .187 .462 C .20166667 .44733335 .22500003 .4336667 .25700004 .42100004 L .277 .41400004 C .30100004 .42933337 .31800006 .44533337 .32800005 .462 C .33800004 .47933338 .34300003 .4996667 .34300003 .523 C .34300003 .54833337 .33533336 .5683333 .32000003 .583 C .30466668 .59833338 .28300003 .606 .25500003 .606 M .25500003 .10400001 C .28966669 .10400001 .31633336 .112666677 .33500005 .13000001 C .35433338 .14733334 .364 .17033334 .36400003 .19900002 C .364 .22766668 .35566668 .25033335 .33900003 .26700003 C .32233335 .2836667 .29266668 .29966668 .25000004 .31500004 L .21800003 .326 C .16800003 .30000005 .143 .25833337 .143 .201 C .143 .171 .15300001 .14733334 .17300001 .13000001 C .193 .112666677 .22033334 .10400001 .25500003 .10400001 Z "/>
</symbol>
<use xlink:href="#font_0_7" transform="matrix(33.333333,0,0,-33.333333,2160.0985,46.850397)" fill="#ffffff"/>
<use xlink:href="#font_0_8" transform="matrix(33.333333,0,0,-33.333333,2179.665,50.517065)" fill="#ffffff"/>
<use xlink:href="#font_0_9" transform="matrix(33.333333,0,0,-33.333333,2194.5653,47.383729)" fill="#ffffff"/>
<symbol id="font_1_1c">
<path d="M .112 .22500001 C .14400001 .22500001 .17066668 .214 .19200002 .19200002 C .21333336 .17066668 .22400002 .14400001 .22400002 .112 C .22400002 .08 .21333336 .053333329 .19200002 .03199999 C .17066668 .010666664 .14400001 0 .112 0 C .080000009 0 .053333343 .010666664 .032 .03199999 C .0106666679 .053999988 0 .080999989 0 .11299999 C 0 .145 .0106666679 .17166667 .032 .193 C .053333343 .21433334 .080000009 .22500001 .112 .22500001 Z "/>
</symbol>
<use xlink:href="#font_1_1c" transform="matrix(55.555555,0,0,-55.555555,128.76203,276.4724)" fill="#3059ab"/>
<symbol id="font_1_1b">
<path d="M .49200005 .689 L .482 .60800006 L .291 .60800006 L .291 0 L .19600001 0 L .19600001 .60800006 L 0 .60800006 L 0 .689 L .49200005 .689 Z "/>
</symbol>
<symbol id="font_1_f">
<path d="M .24800003 .53900006 C .29600004 .53900006 .33333335 .5246667 .36 .49600003 C .38733337 .46733336 .40100003 .428 .40100003 .37800003 L .40100003 0 L .30900003 0 L .30900003 .365 C .30900003 .40233336 .3016667 .4286667 .28700004 .44400005 C .27300004 .45933334 .25233338 .467 .22500003 .467 C .19766669 .467 .17333335 .45900003 .15200001 .44300003 C .13066668 .42700006 .11066666 .40433336 .092 .37500004 L .092 0 L 0 0 L 0 .73800006 L .092 .748 L .092 .45400004 C .13333334 .51066669 .18533336 .53900006 .24800003 .53900006 Z "/>
</symbol>
<symbol id="font_1_3">
<path d="M .111 .527 L .111 0 L .019000002 0 L .019000002 .527 L .111 .527 M .063999999 .78000006 C .083333339 .78000006 .09900001 .774 .111 .762 C .123 .75 .12900001 .73499998 .12900001 .717 C .12900001 .69900009 .123 .684 .111 .67200008 C .09900001 .6606667 .083333339 .65500006 .063999999 .65500006 C .04533333 .65500006 .03 .6606667 .018 .67200008 C .0059999998 .684 0 .69900009 0 .717 C 0 .73499998 .0059999998 .75 .018 .762 C .03 .774 .04533333 .78000006 .063999999 .78000006 Z "/>
</symbol>
<symbol id="font_1_2">
<path d="M .213 .55100008 C .24900002 .55100008 .28133337 .54600009 .31 .5360001 C .33866669 .526 .36600004 .51100006 .39200003 .49100004 L .35300002 .43300004 C .329 .44833336 .306 .4596667 .284 .467 C .26266668 .47433339 .24000001 .47800002 .216 .47800002 C .186 .47800002 .16233333 .4716667 .145 .45900003 C .12766667 .44700004 .11900001 .43033336 .11900001 .409 C .11900001 .38766668 .12700002 .37100003 .143 .359 C .15966667 .347 .18933332 .33533336 .232 .324 C .29066668 .30933336 .33433334 .28933335 .363 .264 C .39233337 .23866667 .40699999 .204 .407 .16 C .40699999 .108 .3866667 .068333338 .34600003 .041 C .30600003 .013666667 .257 0 .199 0 C .118999999 0 .052666669 .023000002 0 .069000009 L .049000004 .125 C .09366667 .091 .143 .074 .19700001 .074 C .23166669 .074 .25900004 .081 .279 .095000009 C .29966668 .109666679 .31 .12933333 .31 .154 C .31 .172 .30633334 .18633335 .299 .197 C .29166667 .20833333 .279 .21800001 .261 .22600001 C .24299999 .23466666 .21666666 .2436667 .18200001 .25300003 C .126 .26766668 .08533334 .28733335 .060000004 .312 C .035333337 .33666668 .023 .36800004 .023 .40600003 C .023 .43333338 .031000004 .45800004 .047000007 .48000003 C .06366667 .5026667 .086333338 .52000007 .115 .53200009 C .14433335 .5446667 .177 .55100008 .213 .55100008 Z "/>
</symbol>
<symbol id="font_1_6">
<path d="M 0 0 Z "/>
</symbol>
<symbol id="font_1_b">
<path d="M .40500004 .135 C .40500007 .113666679 .4086667 .09766667 .416 .087000008 C .42333339 .077 .43433336 .06933334 .449 .064 L .42800004 0 C .4006667 .0033333332 .37866668 .011 .362 .023000002 C .34533335 .035 .333 .05366667 .325 .079 C .28966669 .026333334 .23733334 0 .16800002 0 C .116000007 0 .075 .014666666 .045 .044 C .015000001 .07333334 0 .11166667 0 .159 C 0 .21499999 .020000002 .25800003 .060000004 .28800003 C .10066667 .318 .158 .333 .23200001 .333 L .31300003 .333 L .31300003 .372 C .31300003 .40933336 .30400003 .43600003 .286 .45200003 C .268 .46800003 .24033334 .47599999 .20300001 .476 C .16433335 .47599999 .117000009 .4666667 .061000006 .448 L .038000004 .51500007 C .10333333 .53900006 .16400002 .55100008 .22000002 .55100008 C .28200004 .55100008 .32833336 .5356667 .35900004 .50500008 C .3896667 .47500003 .40500007 .432 .40500004 .37600003 L .40500004 .135 M .18900001 .069000009 C .24166668 .069000009 .28300003 .09633335 .31300003 .15100001 L .31300003 .272 L .244 .272 C .14666666 .272 .09800001 .23600002 .098000008 .164 C .09800001 .13266666 .105666678 .109000008 .12100001 .093 C .13633335 .077 .15900001 .069000009 .18900001 .069000009 Z "/>
</symbol>
<symbol id="font_1_16">
<path d="M .529 .53900006 C .57233336 .53900006 .607 .52433338 .633 .49500004 C .659 .46633337 .672 .42733336 .672 .37800003 L .672 0 L .58 0 L .58 .365 C .58 .433 .5553333 .467 .506 .467 C .48000003 .467 .45800004 .45933334 .44000004 .44400005 C .42200003 .42933337 .4026667 .40600003 .38200004 .374 L .38200004 0 L .29000003 0 L .29000003 .365 C .29000003 .433 .26533336 .467 .21600002 .467 C .18933337 .467 .16700001 .45933334 .14900002 .44400005 C .131 .4286667 .111999999 .40533338 .092 .374 L .092 0 L 0 0 L 0 .527 L .079 .527 L .087000008 .45000003 C .12633334 .5093334 .177 .53900006 .23900002 .53900006 C .27166669 .53900006 .29933337 .53066667 .32200004 .514 C .34533335 .49733339 .36200003 .474 .372 .44400005 C .3926667 .47466669 .41533337 .498 .44000004 .514 C .46533335 .53066667 .495 .53900006 .529 .53900006 Z "/>
</symbol>
<symbol id="font_1_10">
<path d="M .24200002 .75200006 C .30933336 .75200006 .3586667 .728 .39000003 .68 C .42133335 .632 .437 .5643334 .437 .477 C .437 .39433337 .419 .32766668 .38300003 .277 C .34700004 .22633334 .29600004 .20100002 .23000002 .20100002 C .17133336 .20100002 .12533336 .22100002 .092 .261 L .092 .011000007 L 0 0 L 0 .74 L .079 .74 L .086 .669 C .105333339 .69566676 .12866669 .7160001 .15600002 .73 C .18333335 .74466678 .21200001 .75200006 .24200002 .75200006 M .208 .27600003 C .29466669 .27600003 .33800004 .34300003 .33800004 .477 C .33800004 .6116667 .29833339 .6790001 .21900001 .679 C .193 .6790001 .16933334 .6713333 .148 .656 C .12666667 .64066669 .108 .621 .092 .597 L .092 .34000004 C .105333339 .31933335 .122000019 .30333338 .14200002 .29200004 C .16200002 .28133337 .18400002 .27600003 .208 .27600003 Z "/>
</symbol>
<symbol id="font_1_18">
<path d="M .11 0 C .076 0 .049 .010000001 .029 .030000002 C .009666666 .05066667 0 .079333338 0 .116000007 L 0 .75100007 L .09200001 .7620001 L .09200001 .11800001 C .09200001 .10333335 .09433334 .09266668 .09900001 .086 C .10433334 .079333338 .113000009 .076000008 .125 .076000008 C .13766667 .076000008 .149 .078 .15900001 .082 L .183 .018 C .161 .0059999998 .13666667 0 .11 0 Z "/>
</symbol>
<symbol id="font_1_1a">
<path d="M .43600003 .291 C .43600003 .27566669 .43533335 .26000003 .43400003 .244 L .098000008 .244 C .10200002 .186 .11666668 .14333333 .14200002 .116000007 C .16733337 .08866667 .20000004 .075 .24000003 .075 C .26533333 .075 .28866668 .078666668 .31 .086 C .33133335 .093333337 .35366667 .105 .377 .12100001 L .41700004 .066 C .36100004 .022 .29966668 0 .23300003 0 C .15966667 0 .102333348 .024000003 .061000009 .072000008 C .020333339 .12 .0000000037252905 .18599999 .0000000037252905 .27 C .0000000037252905 .32466666 .008666671 .373 .026000005 .41500003 C .044000005 .45766668 .069333348 .49100004 .10200001 .51500007 C .13533335 .53900006 .17433335 .55100008 .21900003 .55100008 C .289 .55100008 .34266667 .52800008 .38 .48200003 C .41733337 .43600003 .43600003 .37233339 .43600003 .291 M .345 .31800003 C .345 .37 .33466665 .40966667 .314 .437 C .29333333 .46433334 .26233334 .47800002 .22100003 .47800002 C .14566668 .47800002 .10466667 .42266668 .098000008 .312 L .345 .312 L .345 .31800003 Z "/>
</symbol>
<use xlink:href="#font_1_1b" transform="matrix(55.555555,0,0,-55.555555,172.59535,289.19465)"/>
<use xlink:href="#font_1_f" transform="matrix(55.555555,0,0,-55.555555,205.76203,289.19465)"/>
<use xlink:href="#font_1_3" transform="matrix(55.555555,0,0,-55.555555,237.26204,289.19465)"/>
<use xlink:href="#font_1_2" transform="matrix(55.555555,0,0,-55.555555,250.09537,289.8613)"/>
<use xlink:href="#font_1_6" transform="matrix(55.555555,0,0,-55.555555,274.6509,289.19465)"/>
<use xlink:href="#font_1_3" transform="matrix(55.555555,0,0,-55.555555,293.59538,289.19465)"/>
<use xlink:href="#font_1_2" transform="matrix(55.555555,0,0,-55.555555,306.42869,289.8613)"/>
<use xlink:href="#font_1_6" transform="matrix(55.555555,0,0,-55.555555,330.98426,289.19465)"/>
<use xlink:href="#font_1_b" transform="matrix(55.555555,0,0,-55.555555,348.20649,289.8613)"/>
<use xlink:href="#font_1_6" transform="matrix(55.555555,0,0,-55.555555,375.9287,289.19465)"/>
<use xlink:href="#font_1_2" transform="matrix(55.555555,0,0,-55.555555,392.03984,289.8613)"/>
<use xlink:href="#font_1_3" transform="matrix(55.555555,0,0,-55.555555,420.8176,289.19465)"/>
<use xlink:href="#font_1_16" transform="matrix(55.555555,0,0,-55.555555,437.53984,289.19465)"/>
<use xlink:href="#font_1_10" transform="matrix(55.555555,0,0,-55.555555,485.15095,301.02799)"/>
<use xlink:href="#font_1_18" transform="matrix(55.555555,0,0,-55.555555,517.87319,289.8613)"/>
<use xlink:href="#font_1_1a" transform="matrix(55.555555,0,0,-55.555555,532.03988,289.8613)"/>
<use xlink:href="#font_1_6" transform="matrix(55.555555,0,0,-55.555555,559.1509,289.19465)"/>
<symbol id="font_2_1">
<path d="M .37109376 .5419922 L .37109376 .45410157 C .3453776 .46907554 .3194987 .480306 .29345704 .48779298 C .26741538 .49527995 .24088542 .49902345 .21386719 .49902345 C .17317708 .49902345 .14274089 .49235026 .122558597 .4790039 C .10270182 .46598307 .09277344 .44596354 .09277344 .4189453 C .09277344 .39453126 .100260417 .3763021 .115234378 .3642578 C .13020833 .35221354 .16748047 .34049479 .22705078 .32910157 L .2631836 .32226563 C .30777995 .3138021 .34147135 .296875 .3642578 .27148438 C .38736979 .24609375 .39892579 .21305339 .39892579 .17236328 C .39892579 .11832682 .37972007 .07600912 .3413086 .045410158 C .30289714 .015136719 .24951172 0 .18115235 0 C .15413411 0 .1258138 .0029296876 .096191409 .0087890629 C .06656901 .014322917 .034505208 .022786459 0 .034179689 L 0 .12695313 C .033528646 .10970052 .065592449 .09667969 .096191409 .087890628 C .12679036 .079427089 .15576172 .07519531 .18310547 .07519531 C .22281902 .07519531 .25358073 .08317057 .27539063 .099121097 C .29720054 .11539713 .30810548 .13802083 .30810548 .16699219 C .30810548 .20865886 .26822917 .23746746 .18847656 .25341798 L .18457031 .25439454 L .1508789 .26123048 C .099121097 .27132163 .061360677 .2882487 .037597658 .31201173 C .013834636 .33610026 .001953125 .3688151 .001953125 .41015626 C .001953125 .4625651 .01969401 .5029297 .05517578 .53125 C .090657558 .5598958 .14127605 .57421877 .20703125 .57421877 C .23632813 .57421877 .2644857 .57145187 .2915039 .56591799 C .31852214 .56070968 .3450521 .5527344 .37109376 .5419922 Z "/>
</symbol>
<symbol id="font_2_2">
<path d="M .23388672 .19824219 C .23388672 .15787761 .24121094 .1274414 .25585938 .106933597 C .27083335 .08642578 .292806 .076171878 .32177735 .076171878 L .4267578 .076171878 L .4267578 0 L .31298829 0 C .25927735 0 .21761067 .017252604 .18798828 .051757814 C .1586914 .08626302 .14404297 .13509114 .14404297 .19824219 L .14404297 .6948242 L 0 .6948242 L 0 .7651367 L .23388672 .7651367 L .23388672 .19824219 Z "/>
</symbol>
<symbol id="font_2_3">
<path d="M .038085939 .546875 L .2680664 .546875 L .2680664 .06982422 L .44628907 .06982422 L .44628907 0 L 0 0 L 0 .06982422 L .17822266 .06982422 L .17822266 .47705079 L .038085939 .47705079 L .038085939 .546875 M .17822266 .7597656 L .2680664 .7597656 L .2680664 .6459961 L .17822266 .6459961 L .17822266 .7597656 Z "/>
</symbol>
<symbol id="font_2_4">
<path d="M .35888673 .49121095 L .35888673 .7739258 L .44873048 .7739258 L .44873048 .014160156 L .35888673 .014160156 L .35888673 .08300781 C .34391276 .055989583 .32389323 .03531901 .29882813 .020996094 C .27408854 .0069986979 .2454427 0 .21289063 0 C .14680989 0 .09472656 .025553385 .056640626 .076660159 C .018880209 .12809246 0 .19889324 0 .2890625 C 0 .3779297 .019042969 .44759117 .057128908 .49804688 C .095214847 .5488281 .14713542 .57421877 .21289063 .57421877 C .24576824 .57421877 .2747396 .5670573 .2998047 .5527344 C .32486979 .538737 .3445638 .5182292 .35888673 .49121095 M .09472656 .28710938 C .09472656 .21744792 .10579427 .1648763 .12792969 .12939453 C .15006511 .09391276 .18277996 .076171878 .22607422 .076171878 C .2693685 .076171878 .3022461 .09407552 .32470704 .12988281 C .3474935 .16569011 .35888673 .21809896 .35888673 .28710938 C .35888673 .3564453 .3474935 .40885417 .32470704 .44433595 C .3022461 .48014323 .2693685 .49804688 .22607422 .49804688 C .18277996 .49804688 .15006511 .480306 .12792969 .44482423 C .10579427 .40934245 .09472656 .35677085 .09472656 .28710938 Z "/>
</symbol>
<symbol id="font_2_5">
<path d="M .48291017 .3100586 L .48291017 .26611329 L .09375 .26611329 L .09375 .2631836 C .09375 .20361328 .10921224 .15755208 .14013672 .125 C .17138672 .092447917 .21533203 .076171878 .27197267 .076171878 C .3006185 .076171878 .3305664 .080729167 .3618164 .08984375 C .3930664 .098958339 .42643229 .11279297 .46191407 .13134766 L .46191407 .041992189 C .42773438 .027994791 .394694 .017578125 .36279298 .0107421879 C .33121745 .0035807293 .3006185 0 .2709961 0 C .18603516 0 .119628909 .025390625 .071777347 .076171878 C .023925782 .12727864 0 .19759114 0 .28710938 C 0 .37434898 .0234375 .4440104 .0703125 .49609376 C .1171875 .54817709 .1796875 .57421877 .2578125 .57421877 C .32747398 .57421877 .38232423 .55061849 .42236329 .50341799 C .46272788 .45621745 .48291017 .3917643 .48291017 .3100586 M .3930664 .33642579 C .3917643 .38916017 .37923179 .42919923 .35546876 .45654298 C .33203126 .48421226 .2981771 .49804688 .25390626 .49804688 C .21061199 .49804688 .17496746 .48372398 .14697266 .45507813 C .11897787 .42643229 .102376308 .38671876 .09716797 .3359375 L .3930664 .33642579 Z "/>
</symbol>
<use xlink:href="#font_2_1" transform="matrix(44.444444,0,0,-44.444444,578.49557,289.82398)"/>
<use xlink:href="#font_2_2" transform="matrix(44.444444,0,0,-44.444444,604.1009,289.19465)"/>
<use xlink:href="#font_2_3" transform="matrix(44.444444,0,0,-44.444444,631.24716,289.19465)"/>
<use xlink:href="#font_2_4" transform="matrix(44.444444,0,0,-44.444444,656.8091,289.82398)"/>
<use xlink:href="#font_2_5" transform="matrix(44.444444,0,0,-44.444444,683.56466,289.82398)"/>
<symbol id="font_1_1d">
<path d="M .67700007 .527 L .55700007 0 L .432 0 L .34 .44400005 L .24500002 0 L .123 0 L 0 .527 L .092 .527 L .18700002 .064 L .291 .527 L .39400003 .527 L .493 .064 L .58900007 .527 L .67700007 .527 Z "/>
</symbol>
<symbol id="font_1_8">
<path d="M .35200004 .036 C .31733335 .011999999 .27800004 0 .23400001 0 C .18933334 0 .15433334 .012666668 .12900001 .038000004 C .10433334 .064 .092 .10133334 .092 .15 L .092 .46800003 L 0 .46800003 L 0 .53900006 L .092 .53900006 L .092 .65800008 L .184 .669 L .184 .53900006 L .30900003 .53900006 L .29900003 .46800003 L .184 .46800003 L .184 .154 C .184 .12666667 .18866666 .10666668 .19800002 .094000007 C .20800002 .08200001 .22433335 .076000008 .24700001 .076000008 C .26766668 .076000008 .291 .083000008 .317 .097 L .35200004 .036 Z "/>
</symbol>
<symbol id="font_1_4">
<path d="M .24800003 .53900006 C .29600004 .53900006 .33333335 .5246667 .36 .49600003 C .38733337 .46733336 .40100003 .428 .40100003 .37800003 L .40100003 0 L .30900003 0 L .30900003 .365 C .30900003 .40233336 .30200003 .4286667 .28800003 .44400005 C .27400003 .45933334 .25333337 .467 .22600001 .467 C .19800002 .467 .17333335 .45900003 .15200001 .44300003 C .13066668 .42700006 .11066666 .40400005 .092 .374 L .092 0 L 0 0 L 0 .527 L .079 .527 L .087000008 .44900004 C .10566667 .47700004 .12866669 .49900005 .15600002 .51500007 C .18400002 .5310001 .21466668 .53900006 .24800003 .53900006 Z "/>
</symbol>
<symbol id="font_1_9">
<path d="M .23600002 .55100008 C .31 .55100008 .36733333 .5263334 .40800003 .47700004 C .44933335 .4276667 .47 .36066667 .47 .276 C .47 .22133334 .46066667 .173 .442 .131 C .42333333 .089666668 .39633335 .05733334 .361 .034 C .32566668 .011333334 .28366668 0 .23500003 0 C .16100002 0 .10333335 .024666667 .062000004 .074 C .02066667 .123333338 .0000000037252905 .19033332 .0000000037252905 .275 C .0000000037252905 .3296667 .009333336 .37766669 .028 .419 C .04666667 .461 .07366667 .49333335 .10900001 .51600006 C .14433335 .5393334 .18666668 .55100008 .23600002 .55100008 M .23600002 .47700004 C .14466667 .47700004 .09900001 .4096667 .09900001 .275 C .09900001 .141 .14433335 .074 .23500003 .074 C .3256667 .074 .37100003 .14133333 .37100003 .276 C .37100003 .41 .326 .47700004 .23600002 .47700004 Z "/>
</symbol>
<symbol id="font_1_15">
<path d="M .069000009 .139 C .08900001 .139 .105666678 .13233334 .11900002 .11900001 C .13233336 .105666678 .13900002 .08933333 .13900002 .07 C .13900002 .05066667 .13233336 .033999999 .11900002 .02 C .105666678 .0066666665 .08900001 0 .069000009 0 C .049666674 0 .033333336 .0066666665 .02 .02 C .0066666665 .033999999 0 .05066667 0 .07 C 0 .08933333 .0066666665 .105666678 .02 .11900001 C .033333336 .13233334 .049666674 .139 .069000009 .139 Z "/>
</symbol>
<use xlink:href="#font_1_6" transform="matrix(55.555555,0,0,-55.555555,707.6622,289.19465)"/>
<use xlink:href="#font_1_1d" transform="matrix(55.555555,0,0,-55.555555,723.4955,289.19465)"/>
<use xlink:href="#font_1_3" transform="matrix(55.555555,0,0,-55.555555,766.44,289.19465)"/>
<use xlink:href="#font_1_8" transform="matrix(55.555555,0,0,-55.555555,778.3844,289.8613)"/>
<use xlink:href="#font_1_f" transform="matrix(55.555555,0,0,-55.555555,803.2177,289.19465)"/>
<use xlink:href="#font_1_6" transform="matrix(55.555555,0,0,-55.555555,830.49557,289.19465)"/>
<use xlink:href="#font_1_4" transform="matrix(55.555555,0,0,-55.555555,850.49557,289.19465)"/>
<use xlink:href="#font_1_9" transform="matrix(55.555555,0,0,-55.555555,880.94,289.8613)"/>
<use xlink:href="#font_1_6" transform="matrix(55.555555,0,0,-55.555555,910.2177,289.19465)"/>
<use xlink:href="#font_1_8" transform="matrix(55.555555,0,0,-55.555555,925.43997,289.8613)"/>
<use xlink:href="#font_1_3" transform="matrix(55.555555,0,0,-55.555555,949.2177,289.19465)"/>
<use xlink:href="#font_1_8" transform="matrix(55.555555,0,0,-55.555555,961.1622,289.8613)"/>
<use xlink:href="#font_1_18" transform="matrix(55.555555,0,0,-55.555555,985.1622,289.8613)"/>
<use xlink:href="#font_1_1a" transform="matrix(55.555555,0,0,-55.555555,999.3288,289.8613)"/>
<use xlink:href="#font_1_15" transform="matrix(55.555555,0,0,-55.555555,1028.6621,289.8613)"/>
<use xlink:href="#font_1_1c" transform="matrix(55.555555,0,0,-55.555555,128.76203,350.8613)" fill="#3059ab"/>
<symbol id="font_0_a">
<path d="M .354 .36600004 C .40066669 .35733334 .43833337 .34033335 .467 .31500004 C .49633337 .29033337 .51100006 .25233338 .51100006 .201 C .51100006 .12833335 .48500005 .076666679 .43300004 .046000005 C .38100005 .015333335 .30866669 0 .21599999 0 L 0 0 L 0 .69200006 L .18900001 .69200006 C .28366668 .6920001 .35600005 .67800006 .40600003 .65000006 C .456 .62200006 .48100005 .5770001 .481 .51500007 C .48100005 .47433339 .46866668 .44133339 .444 .416 C .42 .39133335 .39000003 .3746667 .354 .36600004 M .14700002 .586 L .14700002 .411 L .21900001 .411 C .255 .411 .28266669 .41833339 .30200003 .43300004 C .32133333 .44833336 .331 .47133336 .331 .50200006 C .331 .5326667 .32066668 .5543334 .3 .56700006 C .27933333 .5796667 .247 .586 .20300001 .586 L .14700002 .586 M .21700001 .109000008 C .263 .109000008 .298 .115666668 .322 .12900001 C .346 .143 .358 .16900002 .358 .20700002 C .358 .27633337 .31533335 .31100003 .22999999 .31100003 L .14700002 .31100003 L .14700002 .109000008 L .21700001 .109000008 Z "/>
</symbol>
<symbol id="font_0_b">
<path d="M .255 .562 C .33433334 .562 .39633338 .537 .44100005 .48700003 C .48566667 .43766669 .508 .36900006 .508 .28100003 C .508 .22500003 .4976667 .17566668 .47700007 .133 C .45700003 .091 .42766667 .058333339 .389 .035000005 C .35099999 .011666668 .30600003 0 .254 0 C .17466669 0 .112333338 .024666667 .067 .074 C .022333334 .124000009 0 .193 0 .28100003 C 0 .337 .010000001 .386 .030000002 .42800004 C .05066667 .47066669 .080000009 .5036667 .118 .527 C .15666668 .5503333 .20233333 .562 .255 .562 M .255 .45600004 C .219 .456 .19200002 .4416667 .17400001 .41300003 C .15666668 .38500003 .148 .341 .148 .28100003 C .148 .22100002 .15666668 .17666668 .17400001 .148 C .19200002 .120000008 .21866668 .106000009 .254 .106000009 C .28933338 .106000009 .3156667 .120000008 .333 .148 C .35099999 .17666668 .36 .22100002 .36 .28100003 C .36 .341 .35133336 .38500003 .334 .41300003 C .3166667 .4416667 .29033337 .456 .255 .45600004 Z "/>
</symbol>
<symbol id="font_0_c">
<path d="M .137 0 C .09366667 0 .060000004 .0123333339 .036 .037 C .011999999 .062333336 0 .09800001 0 .14400001 L 0 .757 L .14200002 .773 L .14200002 .148 C .14200002 .12466667 .15166669 .113000009 .171 .113000009 C .18166667 .113000009 .191 .11500001 .199 .11900001 L .22800002 .018000002 C .20066667 .0060000007 .17033334 0 .137 0 Z "/>
</symbol>
<symbol id="font_0_d">
<path d="M .48600004 .757 L .48600004 .016 L .361 .016 L .35300002 .08100001 C .31566669 .027000003 .26500003 0 .20100002 0 C .13566669 0 .08566668 .025 .051000004 .075 C .017 .12566668 0 .19433336 0 .28100003 C 0 .33566667 .008666668 .38400004 .026000005 .42600004 C .044 .4686667 .06933334 .50200006 .10200001 .526 C .13466668 .55 .17233335 .562 .21500002 .562 C .26433335 .562 .30733336 .5443333 .344 .509 L .344 .773 L .48600004 .757 M .24300002 .106000009 C .26366667 .106000009 .28199999 .111 .298 .12100001 C .314 .13166668 .32933335 .14800002 .344 .17000002 L .344 .40700004 C .33 .4236667 .31566669 .43600003 .301 .44400005 C .287 .45266668 .2706667 .45700003 .252 .45700003 C .21933334 .45700003 .19366668 .44266669 .17500001 .41400004 C .15700002 .3853334 .14800002 .341 .14800002 .28100003 C .14800002 .21766667 .15600002 .17266667 .172 .14600002 C .18866669 .11933335 .21233334 .106000009 .24300002 .106000009 Z "/>
</symbol>
<symbol id="font_0_5">
<path d="M 0 0 Z "/>
</symbol>
<symbol id="font_0_e">
<path d="M .44400005 .163 C .44400005 .14233333 .44700004 .127 .45300005 .117000009 C .45900003 .10766667 .469 .10066667 .483 .09600001 L .45300005 .0020000004 C .4216667 .004666667 .39600004 .011999999 .37600003 .024 C .35666669 .036000004 .3416667 .05466667 .33100004 .080000009 C .29633335 .02666667 .24333334 0 .172 0 C .119333337 0 .07733334 .015000001 .046000005 .045 C .015333335 .07566667 0 .11533334 0 .164 C 0 .222 .021 .26633335 .063 .29700003 C .105 .32766668 .16533333 .34300003 .244 .34300003 L .30500005 .34300003 L .30500005 .36900003 C .30500005 .40166668 .2976667 .42433334 .28300003 .43700005 C .26833336 .4496667 .24400003 .456 .21000001 .45600004 C .17266667 .456 .126 .44666673 .07 .42800004 L .038000004 .523 C .10400001 .54899999 .16933334 .562 .23400001 .562 C .30600003 .562 .35900007 .5463333 .39300005 .515 C .42700006 .48433338 .44400005 .43833337 .44400005 .37700004 L .44400005 .163 M .21100001 .102000009 C .25100003 .102000009 .28233338 .12166667 .30500005 .16100002 L .30500005 .262 L .25800003 .262 C .18133335 .262 .143 .23333334 .143 .17600002 C .143 .15266668 .14866668 .13433333 .16000001 .12100001 C .172 .10833334 .18900001 .102000009 .21100001 .102000009 Z "/>
</symbol>
<symbol id="font_0_f">
<path d="M .29600004 .546 C .34266673 .546 .37900005 .5316667 .40500004 .503 C .431 .47500003 .444 .43600003 .444 .386 L .444 0 L .30200003 0 L .30200003 .36200003 C .30200003 .3906667 .29700003 .4106667 .28700004 .42200003 C .2776667 .43400003 .26333336 .44000004 .24400002 .44000004 C .22400002 .44000004 .20566668 .4336667 .18900001 .42100004 C .17300003 .40900005 .15733336 .3906667 .14200002 .36600004 L .14200002 0 L 0 0 L 0 .53000006 L .123 .53000006 L .134 .46300004 C .15600002 .49033336 .18000002 .511 .20600003 .52500006 C .23266669 .53900006 .2626667 .546 .29600004 .546 Z "/>
</symbol>
<symbol id="font_0_10">
<path d="M .25300003 .562 C .28833334 .562 .32 .5566667 .348 .546 C .3766667 .536 .4036667 .52000007 .42900003 .49800004 L .36700005 .41400004 C .34966669 .42733336 .33266668 .43700005 .31599999 .44300003 C .29999999 .44900004 .28233335 .45200003 .263 .45200003 C .18766667 .45200003 .15 .39400003 .15 .27800004 C .15 .21933335 .15966667 .17733336 .179 .15200001 C .19833334 .12666668 .22600001 .114 .26200003 .11400001 C .28066669 .114 .2976667 .116666678 .31300003 .12200001 C .32833336 .128 .34633336 .13766666 .36700005 .15100001 L .42900003 .062000008 C .37833337 .020666669 .32033337 0 .255 0 C .203 0 .15766667 .011333334 .119 .034 C .081 .056666674 .051666667 .08866668 .031000004 .13000001 C .010333334 .172 0 .221 0 .277 C 0 .33300004 .010333334 .38233338 .031000004 .425 C .051666667 .46833337 .081 .50200006 .119 .526 C .15766667 .55 .20233333 .562 .25300003 .562 Z "/>
</symbol>
<symbol id="font_0_11">
<path d="M .439 .016 L .316 .016 L .30900003 .087000008 C .29033337 .05766667 .2676667 .03566667 .24100003 .021000002 C .21433334 .0070000009 .18333334 0 .148 0 C .1 0 .06333333 .014333334 .038000004 .043 C .012666668 .072333339 0 .113000009 0 .165 L 0 .546 L .14200002 .546 L .14200002 .18300002 C .14200002 .15500002 .14666669 .135 .15600002 .12300001 C .16533335 .11166668 .18000002 .106000009 .20000002 .106000009 C .23800004 .106000009 .27033339 .12900001 .29700003 .17500001 L .29700003 .546 L .439 .546 L .439 .016 Z "/>
</symbol>
<symbol id="font_0_12">
<path d="M .27400003 .545 C .29000006 .545 .3076667 .54233339 .32700003 .537 L .30300004 .4 C .28433339 .40466667 .2686667 .40699999 .256 .407 C .22466667 .40699999 .20033336 .396 .18300003 .374 C .16566669 .352 .15200001 .3186667 .14200002 .27400003 L .14200002 0 L 0 0 L 0 .53000006 L .123 .53000006 L .136 .42700003 C .14866667 .46433334 .16700001 .49333335 .19100002 .514 C .2156667 .5346667 .24333334 .545 .27400003 .545 Z "/>
</symbol>
<symbol id="font_0_13">
<path d="M .48000003 .293 C .48000003 .28633336 .479 .26800005 .47700007 .23800002 L .14600002 .23800002 C .15066667 .19000001 .16366668 .156 .185 .136 C .20633336 .116000007 .23533337 .106000009 .272 .106000009 C .29466669 .106000009 .316 .109666679 .33600004 .117000009 C .35600005 .124333348 .37766669 .136 .40100003 .15200001 L .46000005 .072000008 C .40066669 .024000003 .33366666 0 .259 0 C .17566668 0 .11166667 .025 .067 .075 C .022333334 .125 0 .1926667 0 .27800004 C 0 .33200003 .009333332 .38033334 .027999998 .423 C .047333335 .46633337 .075 .50033339 .111 .525 C .14766668 .54966667 .191 .562 .24100001 .562 C .31633336 .562 .375 .53833338 .417 .49100004 C .45900003 .4436667 .48000003 .37766669 .48000003 .293 M .339 .333 C .339 .421 .30733333 .46500004 .244 .46500004 C .21466667 .46500004 .19166668 .45400004 .17500001 .432 C .15900001 .41066668 .14933335 .3756667 .14600002 .32700003 L .339 .32700003 L .339 .333 Z "/>
</symbol>
<use xlink:href="#font_0_a" transform="matrix(55.555555,0,0,-55.555555,175.81758,363.75019)" fill="#3059ab"/>
<use xlink:href="#font_0_b" transform="matrix(55.555555,0,0,-55.555555,208.0398,364.63908)" fill="#3059ab"/>
<use xlink:href="#font_0_c" transform="matrix(55.555555,0,0,-55.555555,241.98426,364.63908)" fill="#3059ab"/>
<use xlink:href="#font_0_d" transform="matrix(55.555555,0,0,-55.555555,256.92869,364.63908)" fill="#3059ab"/>
<use xlink:href="#font_0_5" transform="matrix(55.555555,0,0,-55.555555,287.81758,363.75019)" fill="#3059ab"/>
<use xlink:href="#font_0_e" transform="matrix(55.555555,0,0,-55.555555,303.09538,364.63908)" fill="#3059ab"/>
<use xlink:href="#font_0_f" transform="matrix(55.555555,0,0,-55.555555,335.6509,363.75019)" fill="#3059ab"/>
<use xlink:href="#font_0_d" transform="matrix(55.555555,0,0,-55.555555,366.3176,364.63908)" fill="#3059ab"/>
<use xlink:href="#font_0_5" transform="matrix(55.555555,0,0,-55.555555,397.20649,363.75019)" fill="#3059ab"/>
<use xlink:href="#font_0_10" transform="matrix(55.555555,0,0,-55.555555,412.87315,364.63908)" fill="#3059ab"/>
<use xlink:href="#font_0_b" transform="matrix(55.555555,0,0,-55.555555,438.3176,364.63908)" fill="#3059ab"/>
<use xlink:href="#font_0_c" transform="matrix(55.555555,0,0,-55.555555,472.26203,364.63908)" fill="#3059ab"/>
<use xlink:href="#font_0_b" transform="matrix(55.555555,0,0,-55.555555,486.92869,364.63908)" fill="#3059ab"/>
<use xlink:href="#font_0_11" transform="matrix(55.555555,0,0,-55.555555,520.8731,364.63908)" fill="#3059ab"/>
<use xlink:href="#font_0_12" transform="matrix(55.555555,0,0,-55.555555,553.0398,363.75019)" fill="#3059ab"/>
<use xlink:href="#font_0_13" transform="matrix(55.555555,0,0,-55.555555,571.6509,364.63908)" fill="#3059ab"/>
<use xlink:href="#font_0_d" transform="matrix(55.555555,0,0,-55.555555,602.5398,364.63908)" fill="#3059ab"/>
<symbol id="font_1_1e">
<path d="M .29200004 .282 L .47500003 0 L .36400003 0 L .23500002 .223 L .104 0 L 0 0 L .18400002 .27800004 L .021 .527 L .12900001 .527 L .23900002 .33400003 L .35000003 .527 L .45400004 .527 L .29200004 .282 Z "/>
</symbol>
<symbol id="font_1_14">
<path d="M .24100003 .55100008 C .30100004 .55100008 .3486667 .5266667 .38400004 .47800002 C .41933335 .43000005 .437 .3626667 .437 .276 C .437 .22133334 .42866669 .173 .41200004 .131 C .39533339 .089666668 .37133337 .05733334 .34000004 .034 C .30866669 .011333334 .272 0 .23000002 0 C .17466669 0 .128 .023333334 .089999999 .07 L .08100001 .012 L 0 .012 L 0 .75100007 L .092 .7620001 L .092 .47300003 C .13000001 .52500006 .17966669 .55100008 .24100003 .55100008 M .208 .07300001 C .24866669 .07300001 .28033338 .08933333 .30300004 .12200001 C .32633338 .15533334 .33800004 .20666667 .33800004 .276 C .33800004 .34733335 .32733337 .3986667 .30600003 .43 C .2846667 .462 .25433336 .47800002 .215 .47800002 C .16833334 .47800002 .12733335 .45066668 .092 .396 L .092 .144 C .106 .122 .123 .10466667 .143 .09200001 C .16366668 .07933334 .18533336 .07300001 .208 .07300001 Z "/>
</symbol>
<symbol id="font_1_17">
<path d="M .29600004 .21000001 C .27533338 .14866668 .24633335 .10033334 .209 .06500001 C .17233335 .029000009 .119666669 .0073333384 .051000004 0 L .041 .07200001 C .07566667 .07800002 .10333335 .08666668 .124000009 .09800001 C .14466667 .109333347 .161 .12400001 .17300001 .14200002 C .18566668 .15933335 .19733334 .18300002 .208 .21300002 L .177 .21300002 L 0 .74 L .098000008 .74 L .23900001 .28000004 L .37700004 .74 L .47200004 .74 L .29600004 .21000001 Z "/>
</symbol>
<symbol id="font_1_13">
<path d="M .397 .012 L .31800003 .012 L .31100003 .094000007 C .291 .06133334 .268 .037333337 .24200002 .022 C .216 .007333333 .18433334 0 .14700002 0 C .10100001 0 .065000008 .014000001 .039000006 .042000005 C .013000001 .07 0 .10966667 0 .161 L 0 .53900006 L .09200001 .53900006 L .09200001 .171 C .09200001 .135 .09833334 .10933334 .111 .094000007 C .123666677 .079333338 .14433335 .072000008 .17300001 .072000008 C .22433333 .072000008 .26833336 .10233334 .305 .163 L .305 .53900006 L .397 .53900006 L .397 .012 Z "/>
</symbol>
<symbol id="font_1_5">
<path d="M .49500004 .716 C .47500003 .70933338 .45299999 .705 .42900003 .703 C .405 .70100006 .3756667 .70000007 .34100003 .70000007 C .40300004 .6720001 .43400003 .6276667 .43400003 .56700006 C .43400003 .51433339 .416 .47133336 .38000003 .43800003 C .344 .40466667 .295 .388 .23300001 .388 C .209 .388 .18666668 .39133335 .16600001 .398 C .158 .39266668 .15166666 .38533334 .147 .37600003 C .14233333 .36733339 .14 .35833336 .14 .34900005 C .14 .32033337 .163 .30600003 .209 .30600003 L .293 .30600003 C .32833336 .30600003 .35966669 .29966668 .38700003 .287 C .41433335 .27433334 .43533335 .257 .45000003 .23500002 C .46533335 .21300002 .47300003 .18800001 .47300003 .16000001 C .47300003 .10866668 .45200003 .06933334 .41000004 .04200001 C .36800004 .014000003 .30666668 0 .22600001 0 C .16933334 0 .124333348 .0060000026 .091000009 .018000007 C .058333339 .029333344 .035000005 .046666679 .021000004 .07000001 C .007000001 .09333334 0 .12333334 0 .16000001 L .083000008 .16000001 C .083000008 .13866669 .087000008 .122000019 .095000009 .11000001 C .10300001 .09733334 .11733333 .088 .138 .082 C .15866667 .07533334 .18800001 .07200001 .22600001 .07200001 C .28133337 .07200001 .32066668 .07900001 .344 .09300001 C .36800004 .106333348 .38000003 .12666668 .38000003 .15400002 C .38000003 .17866667 .37066666 .19733334 .352 .21000001 C .33333335 .22266668 .30733336 .22900002 .27400003 .22900002 L .191 .22900002 C .14633334 .22900002 .112333338 .23833335 .08900001 .25700004 C .066333349 .27633337 .055000009 .30033336 .055000009 .32900004 C .055000009 .34633336 .060000007 .363 .07000001 .379 C .080000009 .395 .09433334 .40933336 .11300001 .42200003 C .08233335 .43800006 .059666676 .45766673 .045 .481 C .031000004 .50500008 .024000003 .534 .024000003 .568 C .024000003 .6033334 .03266667 .63500007 .050000006 .66300007 C .06800001 .69100007 .09233334 .7126667 .123 .72800007 C .15433334 .744 .18900001 .75200006 .227 .75200006 C .26833336 .7513334 .303 .7526667 .331 .75600007 C .359 .76000007 .382 .76500007 .4 .771 C .4186667 .77766677 .44133333 .787 .46800003 .799 L .49500004 .716 M .227 .68600007 C .19233334 .68600007 .16533333 .675 .146 .65300008 C .12733335 .6316667 .11800001 .6033334 .11800001 .568 C .11800001 .53200009 .12766667 .503 .147 .481 C .16633334 .4596667 .19366665 .44900004 .229 .44900004 C .26500003 .44900004 .29233337 .45933334 .31100003 .48000003 C .33033336 .50133338 .34 .531 .34 .569 C .34 .647 .30233334 .68600007 .227 .68600007 Z "/>
</symbol>
<use xlink:href="#font_1_6" transform="matrix(55.555555,0,0,-55.555555,633.42868,363.75019)"/>
<use xlink:href="#font_1_8" transform="matrix(55.555555,0,0,-55.555555,648.6509,364.41685)"/>
<use xlink:href="#font_1_1a" transform="matrix(55.555555,0,0,-55.555555,670.5398,364.41685)"/>
<use xlink:href="#font_1_1e" transform="matrix(55.555555,0,0,-55.555555,697.42868,363.75019)"/>
<use xlink:href="#font_1_8" transform="matrix(55.555555,0,0,-55.555555,724.59536,364.41685)"/>
<use xlink:href="#font_1_6" transform="matrix(55.555555,0,0,-55.555555,744.1509,363.75019)"/>
<use xlink:href="#font_1_14" transform="matrix(55.555555,0,0,-55.555555,764.1509,364.41685)"/>
<use xlink:href="#font_1_17" transform="matrix(55.555555,0,0,-55.555555,792.2064,375.58354)"/>
<use xlink:href="#font_1_6" transform="matrix(55.555555,0,0,-55.555555,818.9842,363.75019)"/>
<use xlink:href="#font_1_13" transform="matrix(55.555555,0,0,-55.555555,838.7065,364.41685)"/>
<use xlink:href="#font_1_2" transform="matrix(55.555555,0,0,-55.555555,867.4287,364.41685)"/>
<use xlink:href="#font_1_3" transform="matrix(55.555555,0,0,-55.555555,896.2064,363.75019)"/>
<use xlink:href="#font_1_4" transform="matrix(55.555555,0,0,-55.555555,912.9287,363.75019)"/>
<use xlink:href="#font_1_5" transform="matrix(55.555555,0,0,-55.555555,941.5954,375.58354)"/>
<use xlink:href="#font_1_6" transform="matrix(55.555555,0,0,-55.555555,969.09536,363.75019)"/>
<symbol id="font_2_6">
<path d="M .3330078 .71777346 L .28222657 .5151367 L .40185548 .5151367 L .453125 .71777346 L .53125 .71777346 L .47998048 .5151367 L .5991211 .5151367 L .5991211 .4399414 L .46191407 .4399414 L .42089845 .27685548 L .54296877 .27685548 L .54296877 .20214844 L .40185548 .20214844 L .35107423 0 L .27294923 0 L .32421876 .20214844 L .20410156 .20214844 L .15283203 0 L .07519531 0 L .12597656 .20214844 L 0 .20214844 L 0 .27685548 L .14501953 .27685548 L .18603516 .4399414 L .056152345 .4399414 L .056152345 .5151367 L .20410156 .5151367 L .2548828 .71777346 L .3330078 .71777346 M .38378907 .4399414 L .26416017 .4399414 L .22314453 .27685548 L .34326173 .27685548 L .38378907 .4399414 Z "/>
</symbol>
<symbol id="font_2_7">
<path d="M .23583985 .70214846 L .23583985 .546875 L .4399414 .546875 L .4399414 .47705079 L .23583985 .47705079 L .23583985 .18017578 C .23583985 .1398112 .24348958 .11165365 .25878907 .095703128 C .27408854 .0797526 .30078126 .071777347 .3388672 .071777347 L .4399414 .071777347 L .4399414 0 L .33007813 0 C .2626953 0 .21516927 .013509114 .1875 .040527345 C .15983074 .06754557 .1459961 .114095058 .1459961 .18017578 L .1459961 .47705079 L 0 .47705079 L 0 .546875 L .1459961 .546875 L .1459961 .70214846 L .23583985 .70214846 Z "/>
</symbol>
<symbol id="font_2_8">
<path d="M .38720704 .43408204 C .3680013 .449056 .34847007 .45996095 .32861329 .46679688 C .3087565 .4736328 .28694663 .47705079 .2631836 .47705079 C .20719402 .47705079 .16438802 .45947267 .13476563 .4243164 C .10514323 .38916017 .09033203 .3383789 .09033203 .27197267 L .09033203 0 L 0 0 L 0 .546875 L .09033203 .546875 L .09033203 .4399414 C .10530599 .47867839 .1282552 .5083008 .15917969 .5288086 C .19042969 .5496419 .2273763 .5600586 .27001954 .5600586 C .29215495 .5600586 .31282554 .5572917 .33203126 .5517578 C .35123698 .54622396 .3696289 .53759768 .38720704 .5258789 L .38720704 .43408204 Z "/>
</symbol>
<symbol id="font_2_9">
<path d="M .2241211 .890625 C .18082683 .81640627 .1484375 .7423503 .12695313 .66845706 C .10579427 .59488937 .095214847 .5206706 .095214847 .44580079 C .095214847 .3712565 .10579427 .29703776 .12695313 .22314453 C .1484375 .1492513 .18082683 .07486979 .2241211 0 L .1459961 0 C .096842449 .07747396 .060221357 .15283203 .036132814 .22607422 C .0120442709 .29964195 0 .37288413 0 .44580079 C 0 .5183919 .0120442709 .5914714 .036132814 .66503909 C .060221357 .73860678 .096842449 .81380209 .1459961 .890625 L .2241211 .890625 Z "/>
</symbol>
<symbol id="font_2_a">
<path d="M .50878909 .546875 L .31298829 .28515626 L .52783206 0 L .42382813 0 L .26367188 .21923828 L .104003909 0 L 0 0 L .21484375 .28515626 L .019042969 .546875 L .118652347 .546875 L .26367188 .3491211 L .40771485 .546875 L .50878909 .546875 Z "/>
</symbol>
<symbol id="font_2_b">
<path d="M 0 .890625 L .078125 .890625 C .12727864 .81380209 .16389974 .73860678 .18798828 .66503909 C .21207683 .5914714 .2241211 .5183919 .2241211 .44580079 C .2241211 .3725586 .21207683 .29915367 .18798828 .22558594 C .16389974 .15201824 .12727864 .076822917 .078125 0 L 0 0 C .04329427 .075520839 .075520839 .15022786 .09667969 .2241211 C .11816406 .2980143 .12890625 .37190757 .12890625 .44580079 C .12890625 .52001956 .11816406 .5940755 .09667969 .66796877 C .075520839 .741862 .04329427 .81608077 0 .890625 Z "/>
</symbol>
<use xlink:href="#font_2_6" transform="matrix(44.444444,0,0,-44.444444,983.86099,363.75019)"/>
<use xlink:href="#font_2_1" transform="matrix(44.444444,0,0,-44.444444,1015.19546,364.37953)"/>
<use xlink:href="#font_2_7" transform="matrix(44.444444,0,0,-44.444444,1040.1715,363.75019)"/>
<use xlink:href="#font_2_8" transform="matrix(44.444444,0,0,-44.444444,1071.9401,363.75019)"/>
<use xlink:href="#font_2_5" transform="matrix(44.444444,0,0,-44.444444,1093.5089,364.37953)"/>
<use xlink:href="#font_2_1" transform="matrix(44.444444,0,0,-44.444444,1122.2177,364.37953)"/>
<use xlink:href="#font_2_1" transform="matrix(44.444444,0,0,-44.444444,1148.973,364.37953)"/>
<use xlink:href="#font_2_9" transform="matrix(44.444444,0,0,-44.444444,1180.351,369.60957)"/>
<use xlink:href="#font_2_7" transform="matrix(44.444444,0,0,-44.444444,1200.7047,363.75019)"/>
<use xlink:href="#font_2_5" transform="matrix(44.444444,0,0,-44.444444,1227.2865,364.37953)"/>
<use xlink:href="#font_2_a" transform="matrix(44.444444,0,0,-44.444444,1253.0221,363.75019)"/>
<use xlink:href="#font_2_7" transform="matrix(44.444444,0,0,-44.444444,1280.9711,363.75019)"/>
<use xlink:href="#font_2_b" transform="matrix(44.444444,0,0,-44.444444,1312.4359,369.60957)"/>
<use xlink:href="#font_1_15" transform="matrix(55.555555,0,0,-55.555555,1334.447,364.41685)"/>
<use xlink:href="#font_1_1c" transform="matrix(55.555555,0,0,-55.555555,128.76203,425.41685)" fill="#3059ab"/>
<symbol id="font_1_1f">
<path d="M .245 .71300008 C .291 .71300008 .33033336 .7063334 .363 .6930001 C .3956667 .68033346 .42733336 .6603334 .458 .6330001 L .40600003 .57500007 C .38000003 .5956667 .3543333 .61066678 .329 .62000009 C .30433334 .63000008 .27766667 .63500007 .24900002 .63500007 C .21300002 .63500007 .18333334 .6266667 .16 .6100001 C .13666667 .5933334 .125 .56900009 .125 .53700008 C .125 .517 .129 .50000008 .137 .48600004 C .145 .4726667 .15966667 .46033336 .18100001 .449 C .20300001 .43766666 .23466666 .4256667 .27600003 .41300003 C .31933335 .39966668 .35533334 .38533334 .384 .37 C .41266669 .35466669 .43566669 .33333335 .453 .306 C .471 .27933333 .48 .24533333 .48 .204 C .48 .16399999 .47 .12866666 .45000003 .098000008 C .4306667 .06733333 .40233336 .043333334 .365 .026 C .32833336 .008666667 .28466667 0 .234 0 C .13866668 0 .06066667 .02966667 0 .08900001 L .05200001 .147 C .080000009 .124333348 .10833333 .107 .137 .095000009 C .16566667 .083666678 .19766669 .078 .23300001 .078 C .27566669 .078 .31100003 .08833334 .33900003 .109000008 C .367 .13033334 .381 .161 .381 .201 C .381 .22366667 .37666667 .24233334 .368 .257 C .35933338 .27233336 .34433333 .286 .323 .298 C .30233334 .31000004 .27199999 .32200004 .232 .33400003 C .16133334 .35533334 .10966667 .381 .07700001 .411 C .04433334 .441 .028000003 .4816667 .028000003 .53300008 C .028000003 .5676667 .037000006 .5986667 .055000009 .62600007 C .07366667 .65333339 .09933334 .6746667 .132 .69000008 C .16533335 .7053334 .20300001 .71300008 .245 .71300008 Z "/>
</symbol>
<symbol id="font_1_20">
<path d="M .092 .75000008 L .092 0 L 0 0 L 0 .739 L .092 .75000008 M .395 .527 L .201 .294 L .41700004 0 L .307 0 L .098 .28800003 L .29200004 .527 L .395 .527 Z "/>
</symbol>
<symbol id="font_1_11">
<path d="M .069000009 .139 C .08900001 .139 .105666678 .13233334 .11900002 .11900001 C .13233336 .105666678 .13900002 .08933333 .13900002 .07 C .13900002 .05066667 .13233336 .033999999 .11900002 .02 C .105666678 .0066666665 .08900001 0 .069000009 0 C .049666674 0 .033333336 .0066666665 .02 .02 C .0066666665 .033999999 0 .05066667 0 .07 C 0 .08933333 .0066666665 .105666678 .02 .11900001 C .033333336 .13233334 .049666674 .139 .069000009 .139 M .069000009 .507 C .08900001 .507 .105666678 .50033339 .11900002 .48700003 C .13233336 .47366668 .13900002 .45733334 .13900002 .43800003 C .13900002 .4186667 .13233336 .40200005 .11900002 .388 C .105666678 .3746667 .08900001 .368 .069000009 .368 C .049666674 .368 .033333336 .3746667 .02 .388 C .0066666665 .40200005 0 .4186667 0 .43800003 C 0 .45733334 .0066666665 .47366668 .02 .48700003 C .033333336 .50033339 .049666674 .507 .069000009 .507 Z "/>
</symbol>
<use xlink:href="#font_1_1f" transform="matrix(55.555555,0,0,-55.555555,173.15091,438.80574)"/>
<use xlink:href="#font_1_b" transform="matrix(55.555555,0,0,-55.555555,204.53981,438.80574)"/>
<use xlink:href="#font_1_16" transform="matrix(55.555555,0,0,-55.555555,237.5398,438.13908)"/>
<use xlink:href="#font_1_10" transform="matrix(55.555555,0,0,-55.555555,285.1509,449.9724)"/>
<use xlink:href="#font_1_18" transform="matrix(55.555555,0,0,-55.555555,317.87315,438.80574)"/>
<use xlink:href="#font_1_1a" transform="matrix(55.555555,0,0,-55.555555,332.0398,438.80574)"/>
<use xlink:href="#font_1_6" transform="matrix(55.555555,0,0,-55.555555,359.15095,438.13908)"/>
<use xlink:href="#font_1_18" transform="matrix(55.555555,0,0,-55.555555,378.87318,438.80574)"/>
<use xlink:href="#font_1_3" transform="matrix(55.555555,0,0,-55.555555,394.37318,438.13908)"/>
<use xlink:href="#font_1_4" transform="matrix(55.555555,0,0,-55.555555,411.09538,438.13908)"/>
<use xlink:href="#font_1_20" transform="matrix(55.555555,0,0,-55.555555,443.6509,438.13908)"/>
<use xlink:href="#font_1_11" transform="matrix(55.555555,0,0,-55.555555,469.8176,438.80574)"/>
<use xlink:href="#font_1_6" transform="matrix(55.555555,0,0,-55.555555,480.37318,438.13908)"/>
<use xlink:href="#font_1_8" transform="matrix(55.555555,0,0,-55.555555,495.59538,438.80574)" fill="#3059ab"/>
<use xlink:href="#font_1_17" transform="matrix(55.555555,0,0,-55.555555,515.4287,449.9724)" fill="#3059ab"/>
<use xlink:href="#font_1_10" transform="matrix(55.555555,0,0,-55.555555,547.4842,449.9724)" fill="#3059ab"/>
<use xlink:href="#font_1_2" transform="matrix(55.555555,0,0,-55.555555,576.59536,438.80574)" fill="#3059ab"/>
<use xlink:href="#font_1_8" transform="matrix(55.555555,0,0,-55.555555,601.6509,438.80574)" fill="#3059ab"/>
<use xlink:href="#font_1_15" transform="matrix(55.555555,0,0,-55.555555,624.2065,438.80574)" fill="#3059ab"/>
<use xlink:href="#font_1_b" transform="matrix(55.555555,0,0,-55.555555,637.262,438.80574)" fill="#3059ab"/>
<use xlink:href="#font_1_10" transform="matrix(55.555555,0,0,-55.555555,670.262,449.9724)" fill="#3059ab"/>
<use xlink:href="#font_1_10" transform="matrix(55.555555,0,0,-55.555555,703.262,449.9724)" fill="#3059ab"/>
<path transform="matrix(2.7777777,0,0,2.7777777,173.22835,493.2572)" d="M 0 4.6692917 C 0 2.090513 2.090513 0 4.6692917 0 L 712.49606 0 C 715.0748 0 717.16537 2.090513 717.16537 4.6692917 L 717.16537 69.906459 C 717.16537 72.48524 715.0748 74.575748 712.49606 74.575748 L 4.6692917 74.575748 C 2.090513 74.575748 0 72.48524 0 69.906459 Z " fill="#fbf7ee"/>
<path transform="matrix(2.7777777,0,0,2.7777777,173.22835,493.2572)" stroke-width="2" stroke-linecap="butt" stroke-miterlimit="4" stroke-linejoin="miter" fill="none" stroke="#000000" d="M 4.6692917 0 L 712.49606 0 C 715.0748 0 717.16537 2.090513 717.16537 4.6692917 L 717.16537 69.906459 C 717.16537 72.48524 715.0748 74.575748 712.49606 74.575748 L 4.6692917 74.575748 C 2.090513 74.575748 0 72.48524 0 69.906459 L 0 4.6692917 C 0 2.090513 2.090513 0 4.6692917 0 "/>
<symbol id="font_1_21">
<path d="M .229 .53900006 C .24766667 .53900006 .26500003 .537 .28100003 .53300008 L .26400004 .44300003 C .24800003 .44700004 .23266669 .44900004 .21800003 .44900004 C .18533333 .44900004 .159 .43700005 .139 .41300003 C .118999999 .38900004 .10333333 .3516667 .092 .30100004 L .092 0 L 0 0 L 0 .527 L .079 .527 L .08800001 .42000003 C .102000009 .45933334 .121000017 .489 .14500001 .509 C .16900003 .52900007 .19700003 .53900006 .229 .53900006 Z "/>
</symbol>
<use xlink:href="#font_1_1b" transform="matrix(55.555555,0,0,-55.555555,221.30577,578.77908)"/>
<use xlink:href="#font_1_f" transform="matrix(55.555555,0,0,-55.555555,254.47245,578.77908)"/>
<use xlink:href="#font_1_3" transform="matrix(55.555555,0,0,-55.555555,285.97245,578.77908)"/>
<use xlink:href="#font_1_2" transform="matrix(55.555555,0,0,-55.555555,298.80577,579.44577)"/>
<use xlink:href="#font_1_6" transform="matrix(55.555555,0,0,-55.555555,323.36134,578.77908)"/>
<use xlink:href="#font_1_8" transform="matrix(55.555555,0,0,-55.555555,338.3217,579.44577)"/>
<use xlink:href="#font_1_1a" transform="matrix(55.555555,0,0,-55.555555,360.21055,579.44577)"/>
<use xlink:href="#font_1_1e" transform="matrix(55.555555,0,0,-55.555555,387.09944,578.77908)"/>
<use xlink:href="#font_1_8" transform="matrix(55.555555,0,0,-55.555555,414.2661,579.44577)"/>
<use xlink:href="#font_1_6" transform="matrix(55.555555,0,0,-55.555555,433.82167,578.77908)"/>
<use xlink:href="#font_1_f" transform="matrix(55.555555,0,0,-55.555555,453.5598,578.77908)"/>
<use xlink:href="#font_1_b" transform="matrix(55.555555,0,0,-55.555555,483.3376,579.44577)"/>
<use xlink:href="#font_1_2" transform="matrix(55.555555,0,0,-55.555555,511.89317,579.44577)"/>
<use xlink:href="#font_1_6" transform="matrix(55.555555,0,0,-55.555555,536.4487,578.77908)"/>
<use xlink:href="#font_1_14" transform="matrix(55.555555,0,0,-55.555555,556.1869,579.44577)"/>
<use xlink:href="#font_1_1a" transform="matrix(55.555555,0,0,-55.555555,587.0758,579.44577)"/>
<use xlink:href="#font_1_1a" transform="matrix(55.555555,0,0,-55.555555,617.3536,579.44577)"/>
<use xlink:href="#font_1_4" transform="matrix(55.555555,0,0,-55.555555,649.7424,578.77908)"/>
<use xlink:href="#font_1_6" transform="matrix(55.555555,0,0,-55.555555,677.0202,578.77908)"/>
<use xlink:href="#font_1_1d" transform="matrix(55.555555,0,0,-55.555555,692.5916,578.77908)"/>
<use xlink:href="#font_1_21" transform="matrix(55.555555,0,0,-55.555555,736.5916,578.77908)"/>
<use xlink:href="#font_1_3" transform="matrix(55.555555,0,0,-55.555555,756.9805,578.77908)"/>
<use xlink:href="#font_1_8" transform="matrix(55.555555,0,0,-55.555555,768.925,579.44577)"/>
<use xlink:href="#font_1_8" transform="matrix(55.555555,0,0,-55.555555,788.9805,579.44577)"/>
<use xlink:href="#font_1_1a" transform="matrix(55.555555,0,0,-55.555555,810.86947,579.44577)"/>
<use xlink:href="#font_1_4" transform="matrix(55.555555,0,0,-55.555555,843.2583,578.77908)"/>
<use xlink:href="#font_1_6" transform="matrix(55.555555,0,0,-55.555555,870.5361,578.77908)"/>
<use xlink:href="#font_1_13" transform="matrix(55.555555,0,0,-55.555555,889.9964,579.44577)"/>
<use xlink:href="#font_1_2" transform="matrix(55.555555,0,0,-55.555555,918.7187,579.44577)"/>
<use xlink:href="#font_1_3" transform="matrix(55.555555,0,0,-55.555555,947.4964,578.77908)"/>
<use xlink:href="#font_1_4" transform="matrix(55.555555,0,0,-55.555555,964.2187,578.77908)"/>
<use xlink:href="#font_1_5" transform="matrix(55.555555,0,0,-55.555555,992.8854,590.61239)"/>
<use xlink:href="#font_1_6" transform="matrix(55.555555,0,0,-55.555555,1020.3853,578.77908)"/>
<symbol id="font_2_c">
<path d="M .42382813 .7597656 L .42382813 .6850586 L .32177735 .6850586 C .28955079 .6850586 .26708985 .67838546 .25439454 .66503909 C .24202474 .65201827 .23583985 .62874349 .23583985 .59521487 L .23583985 .546875 L .42382813 .546875 L .42382813 .47705079 L .23583985 .47705079 L .23583985 0 L .1459961 0 L .1459961 .47705079 L 0 .47705079 L 0 .546875 L .1459961 .546875 L .1459961 .58496096 C .1459961 .64485678 .15966797 .68896487 .18701172 .71728518 C .21468099 .74560549 .25764976 .7597656 .31591798 .7597656 L .42382813 .7597656 Z "/>
</symbol>
<symbol id="font_2_d">
<path d="M .27783204 .2890625 L .24804688 .2890625 C .19563802 .2890625 .15608724 .27978517 .12939453 .26123048 C .103027347 .2430013 .08984375 .21565755 .08984375 .17919922 C .08984375 .14632161 .09977213 .12076823 .119628909 .10253906 C .13948567 .0843099 .16699219 .07519531 .20214844 .07519531 C .2516276 .07519531 .29052735 .092285159 .31884767 .12646485 C .34716798 .16097005 .36149089 .2084961 .3618164 .26904298 L .3618164 .2890625 L .27783204 .2890625 M .45214845 .32617188 L .45214845 .014160156 L .3618164 .014160156 L .3618164 .095214847 C .3426107 .06266276 .31835938 .03857422 .2890625 .022949219 C .26009117 .0076497399 .22477214 0 .18310547 0 C .1274414 0 .08300781 .015625 .049804689 .046875 C .016601563 .07845052 0 .12060547 0 .17333985 C 0 .23421224 .020345053 .2804362 .061035158 .31201173 C .10205078 .34358726 .16210938 .359375 .24121094 .359375 L .3618164 .359375 L .3618164 .37353517 C .36149089 .41715495 .3504232 .44873048 .32861329 .46826173 C .30680339 .4881185 .27197267 .49804688 .2241211 .49804688 C .19352214 .49804688 .16259766 .49365235 .13134766 .48486329 C .100097659 .47607423 .06966146 .46321617 .040039064 .44628907 L .040039064 .5361328 C .07324219 .5488281 .10498047 .55826827 .1352539 .5644531 C .16585286 .57096359 .19547527 .57421877 .2241211 .57421877 C .2693685 .57421877 .30794273 .5675456 .33984376 .5541992 C .3720703 .54085287 .39811198 .5208333 .41796876 .49414063 C .43033854 .4778646 .4391276 .45768229 .44433595 .43359376 C .44954429 .40983073 .45214845 .37402345 .45214845 .32617188 Z "/>
</symbol>
<symbol id="font_2_e">
<path d="M .27685548 .49121095 C .2879232 .51464846 .30192057 .53190109 .31884767 .54296877 C .33610026 .554362 .35677085 .5600586 .38085938 .5600586 C .4248047 .5600586 .45572917 .54296877 .4736328 .50878909 C .49186198 .4749349 .50097659 .41097007 .50097659 .31689454 L .50097659 0 L .4189453 0 L .4189453 .31298829 C .4189453 .39013673 .41455079 .43798829 .40576173 .45654298 C .3972982 .4754232 .3816732 .48486329 .35888673 .48486329 C .33284507 .48486329 .3149414 .47477214 .30517579 .45458985 C .2957357 .43473307 .29101563 .38753257 .29101563 .31298829 L .29101563 0 L .20898438 0 L .20898438 .31298829 C .20898438 .39111329 .20426433 .43929038 .19482422 .45751954 C .18570964 .4757487 .16910808 .48486329 .14501953 .48486329 C .12125651 .48486329 .104654949 .47477214 .095214847 .45458985 C .08610026 .43473307 .08154297 .38753257 .08154297 .31298829 L .08154297 0 L 0 0 L 0 .546875 L .08154297 .546875 L .08154297 .5 C .092285159 .51953127 .10563151 .53434249 .12158203 .5444336 C .13785808 .5548503 .15625 .5600586 .17675781 .5600586 C .20149739 .5600586 .2220052 .554362 .23828125 .54296877 C .2548828 .5315755 .26774089 .51432296 .27685548 .49121095 Z "/>
</symbol>
<use xlink:href="#font_2_6" transform="matrix(44.444444,0,0,-44.444444,1034.8892,578.77908)"/>
<use xlink:href="#font_2_c" transform="matrix(44.444444,0,0,-44.444444,1065.833,578.77908)"/>
<use xlink:href="#font_2_8" transform="matrix(44.444444,0,0,-44.444444,1096.2127,578.77908)"/>
<use xlink:href="#font_2_d" transform="matrix(44.444444,0,0,-44.444444,1117.9985,579.4084)"/>
<use xlink:href="#font_2_e" transform="matrix(44.444444,0,0,-44.444444,1144.2333,578.77908)"/>
<use xlink:href="#font_2_5" transform="matrix(44.444444,0,0,-44.444444,1171.2926,579.4084)"/>
<use xlink:href="#font_2_4" transform="matrix(44.444444,0,0,-44.444444,1198.0481,579.4084)"/>
<use xlink:href="#font_2_9" transform="matrix(44.444444,0,0,-44.444444,1231.3792,584.6384)"/>
<use xlink:href="#font_2_7" transform="matrix(44.444444,0,0,-44.444444,1251.7328,578.77908)"/>
<use xlink:href="#font_2_5" transform="matrix(44.444444,0,0,-44.444444,1278.3147,579.4084)"/>
<use xlink:href="#font_2_a" transform="matrix(44.444444,0,0,-44.444444,1304.0503,578.77908)"/>
<use xlink:href="#font_2_7" transform="matrix(44.444444,0,0,-44.444444,1331.9994,578.77908)"/>
<use xlink:href="#font_2_b" transform="matrix(44.444444,0,0,-44.444444,1363.4641,584.6384)"/>
<symbol id="font_1_e">
<path d="M .23 .55100008 C .26133336 .55100008 .29 .5463334 .316 .53700008 C .342 .52833339 .367 .514 .391 .49400003 L .347 .43600003 C .32833336 .44933335 .31 .45900003 .292 .465 C .27466668 .4716667 .25533334 .47500003 .23400001 .47500003 C .19133336 .47500003 .158 .45800004 .13400002 .42400003 C .11066667 .39000003 .09900001 .3396667 .09900001 .273 C .09900001 .20633334 .11066667 .157 .13400002 .125 C .15733336 .09366667 .19066668 .078 .23400001 .078 C .2546667 .078 .27366669 .081 .291 .087000008 C .30833335 .09366667 .32766668 .104 .349 .11800001 L .391 .058000007 C .34300003 .019333335 .28933335 0 .23 0 C .15866667 0 .102333348 .024000003 .061000009 .072000008 C .020333339 .12 .0000000037252905 .18633335 .0000000037252905 .271 C .0000000037252905 .32700003 .009333336 .37600003 .028 .418 C .04666667 .46 .07300001 .4926667 .10700001 .51600006 C .14166667 .5393334 .18266668 .55100008 .23 .55100008 Z "/>
</symbol>
<symbol id="font_1_19">
<path d="M .441 .75100007 L .441 .012 L .36 .012 L .351 .08500001 C .33366669 .058333339 .312 .037333337 .286 .022 C .26000003 .007333333 .231 0 .199 0 C .13633333 0 .087333347 .024666667 .052000006 .074 C .017333335 .123333338 0 .18966668 0 .273 C 0 .327 .008333334 .375 .025000003 .41700004 C .041666669 .45900003 .06566667 .4916667 .097 .51500007 C .12833335 .53900006 .165 .55100008 .20700002 .55100008 C .261 .55100008 .30833338 .5293334 .349 .48600004 L .349 .7620001 L .441 .75100007 M .21900001 .07300001 C .24700003 .07300001 .271 .07933334 .291 .09200001 C .31100003 .105333339 .33033336 .125 .349 .15100001 L .349 .409 C .33166669 .4316667 .313 .4486667 .293 .46 C .27366666 .472 .25166667 .47800002 .227 .47800002 C .18633335 .47800002 .15466668 .461 .132 .42700003 C .11000001 .393 .09900001 .34233336 .09900001 .275 C .09900001 .20700002 .10933334 .15633334 .13 .12300001 C .15066667 .08966667 .18033333 .07300001 .21900001 .07300001 Z "/>
</symbol>
<symbol id="font_1_22">
<path d="M .26400004 .67600008 C .23600002 .67600008 .216 .6696667 .20400001 .657 C .19200002 .64500007 .186 .62600007 .186 .6 L .186 .527 L .314 .527 L .30400003 .45600004 L .186 .45600004 L .186 0 L .094000007 0 L .094000007 .45600004 L 0 .45600004 L 0 .527 L .094000007 .527 L .094000007 .59900006 C .094000007 .64433339 .10833333 .6806667 .137 .708 C .16633334 .73600009 .20700002 .75000008 .25900004 .75000008 C .28300003 .75000008 .30433337 .74766668 .323 .74300006 C .34233336 .739 .36300005 .73233339 .38500003 .72300007 L .35600005 .656 C .326 .6693334 .29533337 .67600008 .26400004 .67600008 Z "/>
</symbol>
<use xlink:href="#font_1_15" transform="matrix(55.555555,0,0,-55.555555,1385.4751,579.44577)"/>
<use xlink:href="#font_1_6" transform="matrix(55.555555,0,0,-55.555555,1396.0305,578.77908)"/>
<use xlink:href="#font_1_1b" transform="matrix(55.555555,0,0,-55.555555,1411.3242,578.77908)"/>
<use xlink:href="#font_1_f" transform="matrix(55.555555,0,0,-55.555555,1444.491,578.77908)"/>
<use xlink:href="#font_1_1a" transform="matrix(55.555555,0,0,-55.555555,1474.9353,579.44577)"/>
<use xlink:href="#font_1_6" transform="matrix(55.555555,0,0,-55.555555,1502.0464,578.77908)"/>
<use xlink:href="#font_1_14" transform="matrix(55.555555,0,0,-55.555555,1521.7846,579.44577)"/>
<use xlink:href="#font_1_b" transform="matrix(55.555555,0,0,-55.555555,1551.4512,579.44577)"/>
<use xlink:href="#font_1_e" transform="matrix(55.555555,0,0,-55.555555,1582.3401,579.44577)"/>
<use xlink:href="#font_1_20" transform="matrix(55.555555,0,0,-55.555555,1611.0068,578.77908)"/>
<use xlink:href="#font_1_5" transform="matrix(55.555555,0,0,-55.555555,1635.1735,590.61239)"/>
<use xlink:href="#font_1_21" transform="matrix(55.555555,0,0,-55.555555,1667.9513,578.77908)"/>
<use xlink:href="#font_1_9" transform="matrix(55.555555,0,0,-55.555555,1685.6179,579.44577)"/>
<use xlink:href="#font_1_13" transform="matrix(55.555555,0,0,-55.555555,1719.8956,579.44577)"/>
<use xlink:href="#font_1_4" transform="matrix(55.555555,0,0,-55.555555,1752.5068,578.77908)"/>
<use xlink:href="#font_1_19" transform="matrix(55.555555,0,0,-55.555555,1783.229,579.44577)"/>
<use xlink:href="#font_1_6" transform="matrix(55.555555,0,0,-55.555555,1813.0068,578.77908)"/>
<use xlink:href="#font_1_e" transform="matrix(55.555555,0,0,-55.555555,1830.6338,579.44577)"/>
<use xlink:href="#font_1_9" transform="matrix(55.555555,0,0,-55.555555,1856.0783,579.44577)"/>
<use xlink:href="#font_1_18" transform="matrix(55.555555,0,0,-55.555555,1890.356,579.44577)"/>
<use xlink:href="#font_1_9" transform="matrix(55.555555,0,0,-55.555555,1904.5227,579.44577)"/>
<use xlink:href="#font_1_21" transform="matrix(55.555555,0,0,-55.555555,1939.0783,578.77908)"/>
<use xlink:href="#font_1_6" transform="matrix(55.555555,0,0,-55.555555,1955.2449,578.77908)"/>
<use xlink:href="#font_1_9" transform="matrix(55.555555,0,0,-55.555555,1972.8718,579.44577)"/>
<use xlink:href="#font_1_22" transform="matrix(55.555555,0,0,-55.555555,2002.7052,578.77908)"/>
<use xlink:href="#font_1_6" transform="matrix(55.555555,0,0,-55.555555,2020.7609,578.77908)"/>
<use xlink:href="#font_1_8" transform="matrix(55.555555,0,0,-55.555555,2035.7212,579.44577)"/>
<use xlink:href="#font_1_f" transform="matrix(55.555555,0,0,-55.555555,2060.5545,578.77908)"/>
<use xlink:href="#font_1_1a" transform="matrix(55.555555,0,0,-55.555555,2090.9989,579.44577)"/>
<use xlink:href="#font_1_14" transform="matrix(55.555555,0,0,-55.555555,225.75022,653.83468)"/>
<use xlink:href="#font_1_9" transform="matrix(55.555555,0,0,-55.555555,256.6391,653.83468)"/>
<use xlink:href="#font_1_1e" transform="matrix(55.555555,0,0,-55.555555,285.69465,653.16799)"/>
<use xlink:href="#font_1_6" transform="matrix(55.555555,0,0,-55.555555,312.36134,653.16799)"/>
<use xlink:href="#font_1_3" transform="matrix(55.555555,0,0,-55.555555,331.3058,653.16799)"/>
<use xlink:href="#font_1_2" transform="matrix(55.555555,0,0,-55.555555,344.1391,653.83468)"/>
<use xlink:href="#font_1_6" transform="matrix(55.555555,0,0,-55.555555,368.69465,653.16799)"/>
<use xlink:href="#font_1_e" transform="matrix(55.555555,0,0,-55.555555,386.58354,653.83468)"/>
<use xlink:href="#font_1_13" transform="matrix(55.555555,0,0,-55.555555,414.41688,653.83468)"/>
<use xlink:href="#font_1_2" transform="matrix(55.555555,0,0,-55.555555,443.13914,653.83468)"/>
<use xlink:href="#font_1_8" transform="matrix(55.555555,0,0,-55.555555,468.19465,653.83468)"/>
<use xlink:href="#font_1_9" transform="matrix(55.555555,0,0,-55.555555,490.08354,653.83468)"/>
<use xlink:href="#font_1_16" transform="matrix(55.555555,0,0,-55.555555,524.6391,653.16799)"/>
<use xlink:href="#font_1_3" transform="matrix(55.555555,0,0,-55.555555,571.19467,653.16799)"/>
<use xlink:href="#font_1_2" transform="matrix(55.555555,0,0,-55.555555,584.028,653.83468)"/>
<use xlink:href="#font_1_b" transform="matrix(55.555555,0,0,-55.555555,610.528,653.83468)"/>
<use xlink:href="#font_1_14" transform="matrix(55.555555,0,0,-55.555555,643.528,653.83468)"/>
<use xlink:href="#font_1_18" transform="matrix(55.555555,0,0,-55.555555,676.25027,653.83468)"/>
<use xlink:href="#font_1_1a" transform="matrix(55.555555,0,0,-55.555555,690.4169,653.83468)"/>
<use xlink:href="#font_1_15" transform="matrix(55.555555,0,0,-55.555555,719.7502,653.83468)"/>
<path transform="matrix(2.7777777,0,0,2.7777777,173.22835,802.7743)" d="M 0 4.6692917 C 0 2.090513 2.090513 0 4.6692917 0 L 712.49606 0 C 715.0748 0 717.16537 2.090513 717.16537 4.6692917 L 717.16537 45.021104 L 0 45.021104 Z " fill="#3059ab"/>
<path transform="matrix(2.7777777,0,0,2.7777777,173.22835,802.7743)" d="M 4.6692917 1 L 4.6692917 -1 L 712.49606 -1 C 715.62716 -1 718.16537 1.5382282 718.16537 4.6692917 L 718.16537 46.021104 L -1 46.021104 L -1 4.6692917 C -1 1.5382282 1.5382282 -1 4.6692917 -1 L 4.6692917 1 C 2.6427978 1 1 2.6427978 1 4.6692917 L 1 44.021104 L 716.16537 44.021104 L 716.16537 4.6692917 C 716.16537 2.6427978 714.5226 1 712.49606 1 Z "/>
<symbol id="font_0_14">
<path d="M 0 0 L 0 .69200006 L .402 .69200006 L .386 .58500006 L .14700002 .58500006 L .14700002 .38900004 L .35500003 .38900004 L .35500003 .282 L .14700002 .282 L .14700002 0 L 0 0 Z "/>
</symbol>
<symbol id="font_0_15">
<path d="M .573 .546 C .615 .546 .6486667 .5316667 .674 .503 C .70000007 .47433339 .71300008 .43533335 .71300008 .386 L .71300008 0 L .57100006 0 L .57100006 .36200003 C .57100006 .41400004 .5536667 .44000004 .51900008 .44000004 C .50033339 .44000004 .48400007 .43400003 .47000004 .42200003 C .45600007 .41 .44166673 .39133335 .42700003 .36600004 L .42700003 0 L .28500004 0 L .28500004 .36200003 C .28500004 .41400004 .2676667 .44000004 .23300001 .44000004 C .21433334 .44000004 .19800002 .4336667 .18400002 .42100004 C .17000002 .40900005 .15600002 .3906667 .14200002 .36600004 L .14200002 0 L 0 0 L 0 .53000006 L .123 .53000006 L .134 .46400003 C .154 .49066667 .17633336 .511 .20100004 .52500006 C .22633337 .53900006 .25533334 .546 .28800003 .546 C .31800006 .546 .344 .53833338 .36600004 .523 C .388 .5083334 .40400005 .4873334 .41400004 .46 C .43600003 .48866669 .4596667 .51000007 .485 .52400007 C .51100006 .53866669 .54033336 .546 .573 .546 Z "/>
</symbol>
<symbol id="font_0_16">
<path d="M .725 .53000006 L .612 0 L .43900005 0 L .36300005 .40300004 L .28700004 0 L .116000007 0 L 0 .53000006 L .143 .53000006 L .208 .105000007 L .29600004 .53000006 L .43800003 .53000006 L .517 .105000007 L .589 .53000006 L .725 .53000006 Z "/>
</symbol>
<symbol id="font_0_17">
<path d="M .158 .53000006 L .158 0 L .015999999 0 L .015999999 .53000006 L .158 .53000006 M .085999999 .80300006 C .11133333 .80300006 .132 .7950001 .148 .77900007 C .16466667 .7636667 .17300003 .744 .17300001 .72 C .17300003 .69600006 .16466667 .67600008 .148 .66 C .132 .6446667 .11133333 .637 .085999999 .637 C .06066667 .637 .040000004 .6446667 .024 .66 C .008 .67600008 0 .69600006 0 .72 C 0 .744 .008 .7636667 .024 .77900007 C .040000004 .7950001 .06066667 .80300006 .085999999 .80300006 Z "/>
</symbol>
<symbol id="font_0_18">
<path d="M .38300003 .041 C .36366669 .027666668 .34166668 .017666668 .317 .011 C .293 .0036666666 .26900003 0 .24500002 0 C .19033335 .0006666668 .149 .016333335 .121 .047000003 C .093 .07766668 .079 .12266668 .079 .18200001 L .079 .446 L 0 .446 L 0 .546 L .079 .546 L .079 .662 L .22100002 .679 L .22100002 .546 L .343 .546 L .329 .446 L .22100002 .446 L .22100002 .18500002 C .22100002 .15966667 .22533335 .14133334 .23400001 .13000001 C .24266668 .11866667 .256 .113000009 .27400003 .113000009 C .29200004 .113000009 .312 .118999999 .33400003 .131 L .38300003 .041 Z "/>
</symbol>
<symbol id="font_0_19">
<path d="M .29600004 .546 C .34200005 .546 .37800003 .5316667 .40400005 .503 C .4306667 .47500003 .444 .43600003 .444 .386 L .444 0 L .30200003 0 L .30200003 .36200003 C .30200003 .3906667 .29700003 .4106667 .28700004 .42200003 C .27700005 .43400003 .26266668 .44000004 .24400002 .44000004 C .2066667 .44000004 .17266669 .4156667 .14200002 .367 L .14200002 0 L 0 0 L 0 .74100008 L .14200002 .75600007 L .14200002 .47000004 C .16333336 .49533335 .18633336 .5143333 .21100003 .527 C .23633336 .53966668 .26466669 .546 .29600004 .546 Z "/>
</symbol>
<use xlink:href="#font_0_14" transform="matrix(55.555555,0,0,-55.555555,224.528,884.5258)" fill="#ffffff"/>
<use xlink:href="#font_0_12" transform="matrix(55.555555,0,0,-55.555555,249.52799,884.5258)" fill="#ffffff"/>
<use xlink:href="#font_0_e" transform="matrix(55.555555,0,0,-55.555555,267.47245,885.41476)" fill="#ffffff"/>
<use xlink:href="#font_0_15" transform="matrix(55.555555,0,0,-55.555555,300.02799,884.5258)" fill="#ffffff"/>
<use xlink:href="#font_0_13" transform="matrix(55.555555,0,0,-55.555555,345.3613,885.41476)" fill="#ffffff"/>
<use xlink:href="#font_0_5" transform="matrix(55.555555,0,0,-55.555555,373.86134,884.5258)" fill="#ffffff"/>
<use xlink:href="#font_0_16" transform="matrix(55.555555,0,0,-55.555555,387.86134,884.5258)" fill="#ffffff"/>
<use xlink:href="#font_0_17" transform="matrix(55.555555,0,0,-55.555555,431.58357,884.5258)" fill="#ffffff"/>
<use xlink:href="#font_0_18" transform="matrix(55.555555,0,0,-55.555555,444.4724,885.41476)" fill="#ffffff"/>
<use xlink:href="#font_0_19" transform="matrix(55.555555,0,0,-55.555555,469.2502,884.5258)" fill="#ffffff"/>
<use xlink:href="#font_0_5" transform="matrix(55.555555,0,0,-55.555555,497.52796,884.5258)" fill="#ffffff"/>
<use xlink:href="#font_0_18" transform="matrix(55.555555,0,0,-55.555555,511.30574,885.41476)" fill="#ffffff"/>
<use xlink:href="#font_0_17" transform="matrix(55.555555,0,0,-55.555555,535.19467,884.5258)" fill="#ffffff"/>
<use xlink:href="#font_0_18" transform="matrix(55.555555,0,0,-55.555555,548.08358,885.41476)" fill="#ffffff"/>
<use xlink:href="#font_0_c" transform="matrix(55.555555,0,0,-55.555555,572.02798,885.41476)" fill="#ffffff"/>
<use xlink:href="#font_0_13" transform="matrix(55.555555,0,0,-55.555555,586.69467,885.41476)" fill="#ffffff"/>
<path transform="matrix(2.7777777,0,0,2.7777777,173.22835,927.8328)" d="M 0 0 L 717.16537 0 L 717.16537 43.126459 C 717.16537 45.705236 715.0748 47.79575 712.49606 47.79575 L 4.6692917 47.79575 C 2.090513 47.79575 0 45.705236 0 43.126459 Z " fill="#ffffff"/>
<path transform="matrix(2.7777777,0,0,2.7777777,173.22835,927.8328)" d="M 1 1 L -1 -1 L 718.16537 -1 L 718.16537 43.126459 C 718.16537 46.25752 715.62716 48.79575 712.49606 48.79575 L 4.6692917 48.79575 C 1.5382282 48.79575 -1 46.25752 -1 43.126459 L -1 -1 L 1 1 L 1 43.126459 C 1 45.15295 2.6427978 46.79575 4.6692917 46.79575 L 712.49606 46.79575 C 714.5226 46.79575 716.16537 45.15295 716.16537 43.126459 L 716.16537 1 Z "/>
<use xlink:href="#font_1_1b" transform="matrix(55.555555,0,0,-55.555555,221.30577,1013.3547)"/>
<use xlink:href="#font_1_f" transform="matrix(55.555555,0,0,-55.555555,254.47245,1013.3547)"/>
<use xlink:href="#font_1_3" transform="matrix(55.555555,0,0,-55.555555,285.97245,1013.3547)"/>
<use xlink:href="#font_1_2" transform="matrix(55.555555,0,0,-55.555555,298.80577,1014.02139)"/>
<use xlink:href="#font_1_6" transform="matrix(55.555555,0,0,-55.555555,323.36134,1013.3547)"/>
<use xlink:href="#font_1_8" transform="matrix(55.555555,0,0,-55.555555,338.58357,1014.02139)"/>
<use xlink:href="#font_1_1a" transform="matrix(55.555555,0,0,-55.555555,360.4724,1014.02139)"/>
<use xlink:href="#font_1_1e" transform="matrix(55.555555,0,0,-55.555555,387.3613,1013.3547)"/>
<use xlink:href="#font_1_8" transform="matrix(55.555555,0,0,-55.555555,414.52796,1014.02139)"/>
<use xlink:href="#font_1_6" transform="matrix(55.555555,0,0,-55.555555,434.0835,1013.3547)"/>
<use xlink:href="#font_1_f" transform="matrix(55.555555,0,0,-55.555555,454.0835,1013.3547)"/>
<use xlink:href="#font_1_b" transform="matrix(55.555555,0,0,-55.555555,483.86134,1014.02139)"/>
<use xlink:href="#font_1_2" transform="matrix(55.555555,0,0,-55.555555,512.41696,1014.02139)"/>
<use xlink:href="#font_1_6" transform="matrix(55.555555,0,0,-55.555555,536.9724,1013.3547)"/>
<use xlink:href="#font_1_14" transform="matrix(55.555555,0,0,-55.555555,556.9724,1014.02139)"/>
<use xlink:href="#font_1_1a" transform="matrix(55.555555,0,0,-55.555555,587.8614,1014.02139)"/>
<use xlink:href="#font_1_1a" transform="matrix(55.555555,0,0,-55.555555,618.1391,1014.02139)"/>
<use xlink:href="#font_1_4" transform="matrix(55.555555,0,0,-55.555555,650.52798,1013.3547)"/>
<use xlink:href="#font_1_6" transform="matrix(55.555555,0,0,-55.555555,677.8057,1013.3547)"/>
<use xlink:href="#font_1_1d" transform="matrix(55.555555,0,0,-55.555555,693.63906,1013.3547)"/>
<use xlink:href="#font_1_21" transform="matrix(55.555555,0,0,-55.555555,737.63906,1013.3547)"/>
<use xlink:href="#font_1_3" transform="matrix(55.555555,0,0,-55.555555,758.02798,1013.3547)"/>
<use xlink:href="#font_1_8" transform="matrix(55.555555,0,0,-55.555555,769.9724,1014.02139)"/>
<use xlink:href="#font_1_8" transform="matrix(55.555555,0,0,-55.555555,790.02798,1014.02139)"/>
<use xlink:href="#font_1_1a" transform="matrix(55.555555,0,0,-55.555555,811.9169,1014.02139)"/>
<use xlink:href="#font_1_4" transform="matrix(55.555555,0,0,-55.555555,844.3057,1013.3547)"/>
<use xlink:href="#font_1_6" transform="matrix(55.555555,0,0,-55.555555,871.5835,1013.3547)"/>
<use xlink:href="#font_1_13" transform="matrix(55.555555,0,0,-55.555555,891.30569,1014.02139)"/>
<use xlink:href="#font_1_2" transform="matrix(55.555555,0,0,-55.555555,920.02798,1014.02139)"/>
<use xlink:href="#font_1_3" transform="matrix(55.555555,0,0,-55.555555,948.8057,1013.3547)"/>
<use xlink:href="#font_1_4" transform="matrix(55.555555,0,0,-55.555555,965.52798,1013.3547)"/>
<use xlink:href="#font_1_5" transform="matrix(55.555555,0,0,-55.555555,994.19467,1025.188)"/>
<use xlink:href="#font_1_6" transform="matrix(55.555555,0,0,-55.555555,1021.69467,1013.3547)"/>
<symbol id="font_2_f">
<path d="M 0 .51904299 L .123046878 .51904299 L .123046878 .37109376 L 0 .37109376 L 0 .51904299 M 0 .14892578 L .123046878 .14892578 L .123046878 0 L 0 0 L 0 .14892578 Z "/>
</symbol>
<symbol id="font_2_10">
<path d="M .27197267 .2709961 L .27197267 0 L .18701172 0 L .18701172 .2709961 L .27197267 .2709961 M .08496094 .2709961 L .08496094 0 L 0 0 L 0 .2709961 L .08496094 .2709961 Z "/>
</symbol>
<symbol id="font_2_11">
<path d="M 0 .7290039 L .42919923 .7290039 L .42919923 .6459961 L .099121097 .6459961 L .099121097 .43115235 L .3984375 .43115235 L .3984375 .34814454 L .099121097 .34814454 L .099121097 0 L 0 0 L 0 .7290039 Z "/>
</symbol>
<symbol id="font_2_12">
<path d="M 0 0 Z "/>
</symbol>
<symbol id="font_2_13">
<path d="M 0 .546875 L .08886719 .546875 L .18408203 .10498047 L .26220704 .38720704 L .3388672 .38720704 L .41796876 .10498047 L .5131836 .546875 L .6020508 .546875 L .4741211 0 L .3881836 0 L .30078126 .2998047 L .21386719 0 L .12792969 0 L 0 .546875 Z "/>
</symbol>
<symbol id="font_2_14">
<path d="M .41796876 .3388672 L .41796876 0 L .32763673 0 L .32763673 .3388672 C .32763673 .38802085 .3190104 .42415367 .3017578 .44726563 C .28450523 .4703776 .25748698 .4819336 .22070313 .4819336 C .17871094 .4819336 .14632161 .46695964 .123535159 .43701173 C .10107422 .4073893 .08984375 .3647461 .08984375 .30908204 L .08984375 0 L 0 0 L 0 .7597656 L .08984375 .7597656 L .08984375 .46484376 C .10579427 .49609376 .1274414 .51969406 .15478516 .53564456 C .1821289 .5519206 .21451824 .5600586 .25195313 .5600586 C .3076172 .5600586 .3491211 .5416667 .37646485 .5048828 C .40413413 .46842448 .41796876 .41308595 .41796876 .3388672 Z "/>
</symbol>
<symbol id="font_2_15">
<path d="M 0 .89160159 L .20703125 .89160159 L .20703125 .82177737 L .08984375 .82177737 L .08984375 .06982422 L .20703125 .06982422 L .20703125 0 L 0 0 L 0 .89160159 Z "/>
</symbol>
<symbol id="font_2_16">
<path d="M .20703125 .89160159 L .20703125 0 L 0 0 L 0 .06982422 L .1171875 .06982422 L .1171875 .82177737 L 0 .82177737 L 0 .89160159 L .20703125 .89160159 Z "/>
</symbol>
<use xlink:href="#font_2_6" transform="matrix(44.444444,0,0,-44.444444,1036.4603,1013.3547)"/>
<use xlink:href="#font_2_c" transform="matrix(44.444444,0,0,-44.444444,1067.4042,1013.3547)"/>
<use xlink:href="#font_2_8" transform="matrix(44.444444,0,0,-44.444444,1097.7838,1013.3547)"/>
<use xlink:href="#font_2_d" transform="matrix(44.444444,0,0,-44.444444,1119.5696,1013.984)"/>
<use xlink:href="#font_2_e" transform="matrix(44.444444,0,0,-44.444444,1145.8045,1013.3547)"/>
<use xlink:href="#font_2_5" transform="matrix(44.444444,0,0,-44.444444,1172.8638,1013.984)"/>
<use xlink:href="#font_2_4" transform="matrix(44.444444,0,0,-44.444444,1199.6193,1013.984)"/>
<use xlink:href="#font_2_9" transform="matrix(44.444444,0,0,-44.444444,1232.9503,1019.21408)"/>
<use xlink:href="#font_2_7" transform="matrix(44.444444,0,0,-44.444444,1253.304,1013.3547)"/>
<use xlink:href="#font_2_3" transform="matrix(44.444444,0,0,-44.444444,1281.0794,1013.3547)"/>
<use xlink:href="#font_2_7" transform="matrix(44.444444,0,0,-44.444444,1306.815,1013.3547)"/>
<use xlink:href="#font_2_2" transform="matrix(44.444444,0,0,-44.444444,1334.1998,1013.3547)"/>
<use xlink:href="#font_2_5" transform="matrix(44.444444,0,0,-44.444444,1360.1525,1013.984)"/>
<use xlink:href="#font_2_f" transform="matrix(44.444444,0,0,-44.444444,1394.8506,1013.3547)"/>
<use xlink:href="#font_2_10" transform="matrix(44.444444,0,0,-44.444444,1418.3292,992.9988)"/>
<use xlink:href="#font_2_11" transform="matrix(44.444444,0,0,-44.444444,1442.8062,1013.3547)"/>
<use xlink:href="#font_2_8" transform="matrix(44.444444,0,0,-44.444444,1472.3612,1013.3547)"/>
<use xlink:href="#font_2_d" transform="matrix(44.444444,0,0,-44.444444,1494.147,1013.984)"/>
<use xlink:href="#font_2_e" transform="matrix(44.444444,0,0,-44.444444,1520.3817,1013.3547)"/>
<use xlink:href="#font_2_5" transform="matrix(44.444444,0,0,-44.444444,1547.4412,1013.984)"/>
<use xlink:href="#font_2_12" transform="matrix(44.444444,0,0,-44.444444,1571.5274,1013.3547)"/>
<use xlink:href="#font_2_13" transform="matrix(44.444444,0,0,-44.444444,1598.283,1013.3547)"/>
<use xlink:href="#font_2_3" transform="matrix(44.444444,0,0,-44.444444,1628.9014,1013.3547)"/>
<use xlink:href="#font_2_7" transform="matrix(44.444444,0,0,-44.444444,1654.6371,1013.3547)"/>
<use xlink:href="#font_2_14" transform="matrix(44.444444,0,0,-44.444444,1682.7816,1013.3547)"/>
<use xlink:href="#font_2_12" transform="matrix(44.444444,0,0,-44.444444,1705.3054,1013.3547)"/>
<use xlink:href="#font_2_7" transform="matrix(44.444444,0,0,-44.444444,1734.9038,1013.3547)"/>
<use xlink:href="#font_2_3" transform="matrix(44.444444,0,0,-44.444444,1762.6793,1013.3547)"/>
<use xlink:href="#font_2_7" transform="matrix(44.444444,0,0,-44.444444,1788.415,1013.3547)"/>
<use xlink:href="#font_2_2" transform="matrix(44.444444,0,0,-44.444444,1815.7999,1013.3547)"/>
<use xlink:href="#font_2_5" transform="matrix(44.444444,0,0,-44.444444,1841.7527,1013.984)"/>
<use xlink:href="#font_2_10" transform="matrix(44.444444,0,0,-44.444444,1873.1741,992.9988)"/>
<use xlink:href="#font_2_b" transform="matrix(44.444444,0,0,-44.444444,1900.1467,1019.21408)"/>
<use xlink:href="#font_2_15" transform="matrix(44.444444,0,0,-44.444444,1929.398,1019.21408)"/>
<use xlink:href="#font_2_7" transform="matrix(44.444444,0,0,-44.444444,1948.9487,1013.3547)"/>
<use xlink:href="#font_2_5" transform="matrix(44.444444,0,0,-44.444444,1975.5308,1013.984)"/>
<use xlink:href="#font_2_a" transform="matrix(44.444444,0,0,-44.444444,2001.2664,1013.3547)"/>
<use xlink:href="#font_2_7" transform="matrix(44.444444,0,0,-44.444444,2029.2156,1013.3547)"/>
<use xlink:href="#font_2_16" transform="matrix(44.444444,0,0,-44.444444,2060.637,1019.21408)"/>
<use xlink:href="#font_1_15" transform="matrix(55.555555,0,0,-55.555555,2082.7493,1014.02139)"/>
</g>
</svg>
