<svg width="160" height="36" xmlns="http://www.w3.org/2000/svg" xmlns:xlink="http://www.w3.org/1999/xlink" xml:space="preserve" overflow="hidden"><defs><clipPath id="clip0"><rect x="56" y="56" width="160" height="36"/></clipPath><clipPath id="clip1"><rect x="56" y="56" width="160" height="36"/></clipPath><clipPath id="clip2"><rect x="57" y="57" width="159" height="35"/></clipPath><clipPath id="clip3"><rect x="57" y="57" width="159" height="35"/></clipPath><clipPath id="clip4"><rect x="57" y="57" width="159" height="35"/></clipPath><clipPath id="clip5"><rect x="56" y="57" width="160" height="35"/></clipPath></defs><g clip-path="url(#clip0)" transform="translate(-56 -56)"><g clip-path="url(#clip1)"><g clip-path="url(#clip2)"><g clip-path="url(#clip3)"><g clip-path="url(#clip4)"><g clip-path="url(#clip5)"><path d="M118.55 19.2569C120.579 19.8781 125.199 21.3631 125.199 26.4297 125.205 28.6554 124.148 30.7503 122.355 32.069 119.667 34.2237 116.066 34.3596 114.231 34.3596 111.862 34.383 109.507 33.9786 107.282 33.1658L106.525 32.8843 106.272 32.4475C106.476 30.5839 106.476 30.3413 106.573 28.4292L107.078 28.2933C109.102 29.8335 111.59 30.641 114.134 30.5839 118.143 30.5839 119.618 28.4777 119.618 27.0024 119.618 24.7991 117.434 24.0906 114.338 23.1199L112.717 22.5958C110.63 21.9746 106.068 20.5867 106.068 15.6657 106.068 10.7447 110.63 8.29872 116.318 8.29872 118.815 8.29603 121.292 8.74998 123.627 9.63816L123.879 9.97788C123.675 11.7444 123.627 11.9191 123.471 13.7536L123.015 13.938C121.075 12.6566 118.798 11.9809 116.473 11.9967 115.738 11.9834 115.004 12.0651 114.289 12.2394 112.766 12.6179 111.494 13.6274 111.494 15.1512 111.494 17.2089 113.581 17.8301 116.726 18.7425Z" fill="#B4AEA6" fill-rule="nonzero" fill-opacity="1" transform="matrix(1.02857 0 0 1 57 57.2298)"/><path d="M154.579 20.9749C154.473 17.636 153.822 14.2874 151.483 11.7541 149.144 9.2208 145.854 8.30843 142.398 8.30843 137.322 8.30843 134.381 10.2496 132.964 11.657 129.567 14.86 129.46 19.5481 129.46 21.3631 129.46 22.9355 129.509 27.808 132.964 31.0692 134.585 32.6513 137.477 34.2723 142.039 34.2723 145.601 34.2723 148.591 33.4667 150.823 31.3604 152.489 29.799 153.64 27.7679 154.123 25.5368 154.457 24.0136 154.611 22.4563 154.579 20.8972M149.047 21.0914C149.161 23.2724 148.762 25.4498 147.882 27.4489 146.715 29.5439 144.453 30.7879 142.059 30.6519 141.026 30.6626 140.003 30.4507 139.059 30.0307 135.051 28.0895 135.002 23.2364 135.002 21.3728 135.002 19.5093 135.158 16.5974 136.526 14.6368 137.786 12.8136 139.893 11.7652 142.107 11.8609 144.276 11.7176 146.354 12.7616 147.533 14.5883 148.533 16.6085 149.038 18.8374 149.008 21.0914" fill="#B4AEA6" fill-rule="nonzero" fill-opacity="1" transform="matrix(1.02857 0 0 1 57 57.2298)"/><path d="M100.274 21.3728C100.274 23.04 98.9227 24.3914 97.2552 24.3914 95.5881 24.3914 94.2366 23.04 94.2366 21.3728 94.2366 19.7057 95.5881 18.3542 97.2552 18.3542 98.9227 18.3542 100.274 19.7057 100.274 21.3728L100.274 21.3728" fill="#B4AEA6" fill-rule="nonzero" fill-opacity="1" transform="matrix(1.02857 0 0 1 57 57.2298)"/><path d="M30.7489 0.359126C30.7489 4.04745 30.6519 6.28956 30.6519 9.63816 30.6519 17.6651 30.8072 25.6532 31.2051 33.6802L30.9528 33.9617C26.6433 33.9617 25.6241 33.9617 21.8193 34.1073L21.567 33.8258C21.8193 27.0315 21.8193 25.5076 21.7223 19.0531 19.6937 19.0531 17.6554 18.956 15.6268 18.956 13.5983 18.956 11.7444 19.0046 9.5411 19.1016 9.5411 26.0318 9.63816 27.7498 9.94876 33.6608L9.6964 33.9423C5.23159 33.9423 4.30951 33.9423 0.611485 34.0878L0.359126 33.8064C0.456187 29.788 0.562954 27.4489 0.562954 23.1297 0.562954 11.2785 0.252359 5.3966 0 0.475599L0.300889 0.184416C4.71717 0.184416 5.48395 0.184416 9.38581 0.0485305L9.63816 0.330008 9.5411 12.9479 14.9183 12.9479C17.2089 12.9479 19.4316 12.9479 21.7126 12.8509 21.7126 7.21164 21.7126 5.83337 21.3146 0.427069L21.567 0.135885C25.8279 0.135885 26.488 0.135885 30.5451 -4.84917e-16Z" fill="#00609C" fill-rule="nonzero" fill-opacity="1" transform="matrix(1.02857 0 0 1 57 57.2298)"/><path d="M60.1779 26.8956C57.7549 28.2406 55.029 28.9455 52.2577 28.9436 49.21 28.9436 47.1329 28.0409 45.9196 26.3133 45.3108 25.4508 44.9271 24.4499 44.8034 23.4014L61.1873 23.1102 61.4979 22.7802C61.5504 20.3795 61.2761 17.9828 60.6826 15.6559 58.9064 10.0167 54.9948 8.86168 53.2768 8.48314 52.1001 8.1848 50.8896 8.04123 49.6758 8.05607 41.7071 8.05607 36.427 12.9771 36.427 21.2467 36.3843 23.3989 36.7978 25.5358 37.6403 27.5168 40.5521 33.9617 47.492 34.5343 51.1415 34.5343 54.144 34.6079 57.126 34.0215 59.877 32.8163L60.1876 32.4378 60.537 27.0315ZM44.8034 18.3348C44.949 16.8498 45.3081 14.8503 47.2396 13.6953 47.8532 13.3337 48.5563 13.1521 49.2682 13.1712 50.5704 13.1154 51.8044 13.7545 52.51 14.8503 53.1086 15.8452 53.3802 17.0028 53.2865 18.1601Z" fill="#00609C" fill-rule="nonzero" fill-opacity="1" transform="matrix(1.02857 0 0 1 57 57.2298)"/><path d="M81.5895 18.3348C84.3849 19.3054 88.2867 20.7225 88.2867 25.9832 88.2937 26.3333 88.2775 26.6835 88.2382 27.0315 87.3258 33.8258 79.7162 34.5343 75.8532 34.5343 73.0022 34.5335 70.1779 33.9831 67.5351 32.9134L67.2827 32.4863C67.4866 30.0986 67.5351 29.5745 67.6321 27.08L68.0883 26.8956C68.7202 27.4106 69.4032 27.8594 70.1266 28.2351 71.8063 29.0495 73.6381 29.5025 75.5038 29.5648 78.338 29.5648 79.5124 28.2739 79.5124 27.08 79.5124 25.3621 77.2703 24.6438 75.9115 24.1682L73.9702 23.4985C71.5825 22.6346 67.3701 21.1108 67.3701 15.9957 67.3532 14.4796 67.8339 12.9999 68.7386 11.7832 71.3787 8.20166 76.3579 8.00754 78.8427 8.00754 81.4752 8.02731 84.0908 8.42946 86.6076 9.20139L86.8697 9.49257 86.3552 14.7048 85.899 14.8503C84.0333 13.5649 81.8265 12.8653 79.561 12.8412 76.4162 12.8412 76.0085 14.4136 76.0085 14.9862 76.0085 16.3257 77.3771 16.8498 79.1048 17.4225Z" fill="#00609C" fill-rule="nonzero" fill-opacity="1" transform="matrix(1.02857 0 0 1 57 57.2298)"/></g></g></g></g></g></g></svg>