<svg xmlns="http://www.w3.org/2000/svg" viewBox="0 0 283.46 82.75"><defs><style>.cls-1{fill:#e53516;}</style></defs><title>inr_logo_rouge</title><g id="Calque_2" data-name="Calque 2"><g id="Calque_1-2" data-name="Calque 1"><path class="cls-1" d="M56.72,10.71A58.93,58.93,0,0,0,68.17,1.62c2.8-2.84-9.52-1.57-12.49,1a82.94,82.94,0,0,0-9.47,9.25C44.46,13.88,52.88,13,56.72,10.71ZM282.06,74.64c2.19,1.32,2.1-5.53-2.31-8.28-15.79-9.83-59,7.31-75.35,9.26-3.07.37-4.19-.41-3.46-2.49,1.39-4,6.86-11.4,8-13.94s.9-10.78-11.45-10.78c-10.09,0-19.34,4.69-25.85,10.59-6.2,5.28-18.21,15.74-25.6,15.74-7.66,0,14.76-23.12,16-24.29,3.33-3.13-7.18-2.35-11.59,1-1.76,1.34-8.81,8.88-13.22,16.18-12.74,8.81-25.43,10.85-19.4,3.53,3.21-3.91,8.65-9.14,12.38-13.28,5.22-5.78,4.27-9.59-7.24-9.59-15.41,0-17.05,1.34-25.74,11.53-1.61,1.89-.78,6.64.89,5,10.43-10.32,10.19-9.48,24-9.48-2.22,2.36-6.18,4.71-12.89,13.23-6,7.6-2.07,13.74,6.43,13.74,4.69,0,11.71-2.2,18.12-6.72-.77,4,.82,6.8,6.87,6.8,7,0,15-4.17,21.64-8.81-.83,5,1.76,8.81,9.17,8.81,5.71,0,12.36-2.25,19.22-8.19,0,4.54,3.17,8.15,9.14,8.15C214.33,82.35,264.58,64.1,282.06,74.64Zm-106.73,1.2c-9.54,0,9.57-21.8,22-21.8C204.79,54,184.53,75.84,175.33,75.84Zm-7.56-33.72A98,98,0,0,0,182.51,30.5c2.8-2.85-9.52-1.58-12.49.95a122.22,122.22,0,0,0-11.5,11.14C156.77,44.64,163.92,44.43,167.77,42.12ZM92.45,65.34C88.72,69,80.54,75.1,73.39,75.1c-5.29,0,5.24-9.48,10.46-17.11,5-7.3.91-9.48-3.2-9.48-10.18,0-20.13,7.14-26.87,12.17C55.82,58,59,54.45,62.37,50c1.87-2.48-9.35-1.59-12.22,2.19-.92,1.2-1.93,2.54-3,4C37.41,67.87,22.69,75.77,15.47,75.77c-4,0-5.49-2.78-3-8,6-12.64,26.84-36.64,38.15-47.15,5.14-4.81-10.29-2.85-13.83.7C21.14,37.08,5.37,54.68.92,68.37-1.54,76,.73,82.75,10.14,82.75c7.72,0,16.28-3.83,23.55-8.37C31.9,76.82,30.27,79,29,80.81c-2.05,2.78,8.35,1.77,10.54-1,8.23-10.52,28-23.46,33.48-23.46,5,0-12.23,12.92-12.07,20.83.2,10.39,24.26,4,32.42-6.67C94.6,68.82,93.61,64.22,92.45,65.34Z"/></g></g></svg>