<svg xmlns="http://www.w3.org/2000/svg" xmlns:xlink="http://www.w3.org/1999/xlink" xmlns:inkscape="http://www.inkscape.org/namespaces/inkscape" version="1.1" width="589.238" height="143.887" viewBox="0 0 589.238 143.887">
<defs>
<clipPath id="clip_0">
<path transform="matrix(1,0,0,-1,0,143.887)" d="M0 0H589.238V143.887H0Z"/>
</clipPath>
</defs>
<g clip-path="url(#clip_0)">
<path transform="matrix(1,0,0,-1,247.6462,66.465099)" d="M0 0C-2.768-2.767-7.254-2.767-10.022 0L-60.132 50.11C-62.9 52.878-67.386 52.878-70.154 50.11L-90.198 30.066C-92.966 27.299-92.966 22.812-90.198 20.044L-10.022-60.132C-7.254-62.899-2.768-62.899 0-60.132L80.176 20.044C82.944 22.812 82.944 27.299 80.176 30.066L60.132 50.11C57.365 52.878 52.877 52.878 50.11 50.11Z" fill="#1b1b18"/>
<path transform="matrix(1,0,0,-1,202.149,101.54749)" d="M0 0-25.049-25.05C-27.817-27.817-32.304-27.817-35.071-25.05L-115.247 55.126C-118.015 57.894-118.015 62.381-115.247 65.148L-95.203 85.193C-92.436 87.96-87.949 87.96-85.182 85.193Z" fill="#1b1b18"/>
<path transform="matrix(1,0,0,-1,131.6024,101.54749)" d="M0 0-25.049-25.05C-27.817-27.817-32.304-27.817-35.071-25.05L-115.247 55.126C-118.015 57.894-118.015 62.381-115.247 65.148L-95.203 85.193C-92.436 87.96-87.949 87.96-85.181 85.193Z" fill="#1b1b18"/>
<path transform="matrix(1,0,0,-1,358.6969,129.0302)" d="M0 0H21.66V7.68H8.88V41.7H0ZM37.139 0H54.359V4.92L50.339 5.82V35.82L54.359 36.72V41.7H37.139V36.72L41.159 35.82V5.82L37.139 4.92ZM71.699 0H80.699V15.3H84.659C96.239 15.3 99.119 20.58 99.119 28.86 99.119 38.64 93.779 41.7 83.939 41.7H71.699ZM80.699 22.56V34.14H84.899C88.199 34.14 89.879 33 89.879 28.2 89.879 23.76 88.139 22.56 84.539 22.56ZM114.239 0H131.459V4.92L127.439 5.82V35.82L131.459 36.72V41.7H114.239V36.72L118.259 35.82V5.82L114.239 4.92ZM163.558-.78C169.018-.78 172.258 .96 174.778 3.24L170.878 9.78C169.138 7.98 166.918 6.84 163.918 6.84 158.818 6.84 156.718 9.66 156.718 21.3 156.718 32.22 158.038 34.86 163.858 34.86 166.498 34.86 168.718 33.96 170.578 32.4L174.118 39.24C171.838 41.16 168.118 42.48 163.378 42.48 152.758 42.48 146.818 36.9 146.818 20.76 146.818 5.7 152.098-.78 163.558-.78M201.897-.78C212.758-.78 216.478 4.56 216.478 12.48 216.478 21.66 210.777 23.88 204.057 25.92 200.277 27.12 199.317 28.14 199.317 30.96 199.317 33.54 200.997 34.92 204.117 34.92 207.117 34.92 208.917 34.44 211.497 32.88L214.677 39.6C211.557 41.46 208.438 42.48 203.397 42.48 195.597 42.48 190.197 38.7 190.197 30.24 190.197 21.96 194.577 19.32 201.477 17.16 205.317 15.96 207.057 15.06 207.057 11.76 207.057 8.7 205.257 6.84 201.057 6.84 197.637 6.84 194.397 7.98 191.517 10.02L188.517 3.06C191.277 .96 196.377-.78 201.897-.78" fill="#1b1b18"/>
</g>
</svg>
