<?xml version="1.0" encoding="UTF-8"?>
<svg xmlns="http://www.w3.org/2000/svg" xmlns:xlink="http://www.w3.org/1999/xlink" width="275.973pt" height="45.597pt" viewBox="0 0 275.973 45.597" version="1.1">
<defs>
<clipPath id="clip1">
  <path d="M 0.015625 1 L 132 1 L 132 36 L 0.015625 36 Z M 0.015625 1 "/>
</clipPath>
<clipPath id="clip2">
  <path d="M 11 0 L 49 0 L 49 45.582031 L 11 45.582031 Z M 11 0 "/>
</clipPath>
<clipPath id="clip3">
  <path d="M 207 13 L 275.972656 13 L 275.972656 23 L 207 23 Z M 207 13 "/>
</clipPath>
</defs>
<g id="surface1">
<g clip-path="url(#clip1)" clip-rule="nonzero">
<path style=" stroke:none;fill-rule:nonzero;fill:rgb(9.01947%,43.528748%,75.489807%);fill-opacity:1;" d="M 14.441406 1.789062 L 1.824219 1.789062 C 0.816406 1.789062 0 2.605469 0 3.609375 L 0 33.984375 C 0 34.992188 0.816406 35.808594 1.824219 35.808594 L 14.636719 35.808594 C 9.824219 31.757812 6.753906 25.601562 6.753906 18.714844 C 6.753906 11.917969 9.742188 5.84375 14.441406 1.789062 M 131.5 33.984375 L 131.5 3.609375 C 131.5 2.605469 130.683594 1.789062 129.675781 1.789062 L 44.433594 1.789062 C 49.128906 5.84375 52.117188 11.917969 52.117188 18.714844 C 52.117188 25.601562 49.046875 31.757812 44.234375 35.808594 L 129.675781 35.808594 C 130.683594 35.808594 131.5 34.992188 131.5 33.984375 "/>
</g>
<g clip-path="url(#clip2)" clip-rule="nonzero">
<path style=" stroke:none;fill-rule:nonzero;fill:rgb(13.729858%,12.159729%,12.548828%);fill-opacity:1;" d="M 28.097656 25.976562 C 28.097656 25.914062 27.945312 25.941406 27.878906 25.941406 C 27.789062 25.945312 27.757812 26.148438 27.6875 26.097656 C 27.507812 25.976562 27.304688 25.789062 27.296875 25.535156 L 26.746094 25.554688 C 26.742188 25.402344 26.402344 25.496094 26.453125 25.699219 C 26.519531 25.695312 26.773438 25.722656 26.773438 25.679688 C 27.003906 25.929688 27.242188 25.941406 27.335938 26.109375 C 27.476562 26.363281 27.398438 26.644531 27.601562 26.765625 C 27.648438 26.25 28.113281 26.339844 28.097656 25.976562 M 35.351562 14.628906 C 35.347656 14.457031 35.324219 14.414062 35.300781 14.222656 L 35.148438 14.394531 C 35.050781 14.363281 34.902344 13.992188 34.777344 13.847656 L 34.503906 13.894531 C 34.617188 14.234375 35.015625 14.332031 34.933594 14.613281 C 34.921875 14.660156 35.21875 14.714844 35.351562 14.628906 M 33.578125 14.726562 C 33.910156 16.21875 34.894531 16.261719 34.894531 16.261719 L 35.085938 16.0625 C 35.085938 16.0625 34.097656 16.015625 33.765625 14.523438 C 33.6875 14.570312 33.578125 14.726562 33.578125 14.726562 M 30.878906 16.097656 L 30.421875 16.105469 L 30.425781 16.296875 L 30.730469 16.292969 L 30.738281 16.574219 L 30.910156 16.570312 Z M 31.566406 14.867188 C 31.566406 14.867188 31.46875 15.640625 32.167969 15.5625 L 32.058594 15.652344 C 31.339844 15.707031 31.457031 14.957031 31.566406 14.867188 M 32.351562 15.070312 L 31.9375 15.078125 L 31.933594 14.84375 L 32.347656 14.835938 Z M 29.230469 15.296875 C 29.230469 15.382812 29.210938 15.488281 29.234375 15.617188 L 29.714844 15.632812 L 29.648438 15.460938 C 29.648438 15.460938 29.667969 15.355469 29.667969 15.289062 L 29.863281 15.199219 C 30.125 15.238281 30.234375 15.8125 30.777344 15.714844 C 30.800781 15.710938 30.765625 15.527344 30.765625 15.527344 C 30.261719 15.429688 30.234375 15.152344 30.234375 15.152344 C 30.597656 14.566406 31.210938 14.554688 31.210938 14.660156 L 31.148438 14.917969 C 31.160156 15.496094 31.300781 16.007812 31.976562 15.996094 C 32.460938 15.988281 32.847656 15.722656 32.972656 15.3125 C 33.085938 15.375 33.183594 15.511719 33.242188 15.652344 C 33.332031 15.863281 33.246094 15.886719 33.25 16.058594 C 33.25 16.121094 32.988281 16.105469 33.078125 16.402344 L 33.40625 16.417969 L 33.664062 16.007812 C 33.65625 15.472656 33.09375 14.648438 32.523438 14.445312 C 32.347656 14.382812 32.058594 14.261719 31.730469 14.246094 L 31.03125 14.257812 C 30.832031 14.28125 30.550781 14.480469 30.550781 14.480469 C 30.210938 14.570312 30.238281 14.1875 30.238281 14.1875 C 30.390625 13.984375 30.410156 13.929688 31.019531 13.746094 L 31.832031 13.6875 C 31.792969 13.621094 31.878906 13.449219 31.878906 13.449219 C 30.367188 13.457031 29.898438 14.101562 29.800781 14.195312 C 29.757812 14.238281 29.5 14.566406 29.503906 14.628906 C 29.503906 14.648438 29.789062 14.6875 29.789062 14.6875 L 29.871094 14.515625 C 29.984375 14.535156 30.136719 14.511719 30.136719 14.617188 C 30.140625 14.871094 29.941406 14.769531 29.949219 15.070312 L 29.773438 15.074219 C 29.511719 15.078125 29.222656 14.996094 29.230469 15.296875 M 28.824219 19.101562 L 28.625 19.109375 C 28.640625 19.238281 28.679688 19.304688 28.726562 19.425781 C 28.792969 19.609375 28.648438 19.707031 28.980469 19.867188 L 29.003906 20.464844 L 29.191406 20.46875 L 29.164062 19.679688 L 28.996094 19.695312 Z M 30.121094 12.328125 C 29.925781 12.308594 29.78125 12.828125 29.277344 12.878906 C 28.601562 12.949219 28.351562 12.425781 28.121094 11.980469 C 28.144531 11.9375 28.050781 11.53125 28.027344 11.488281 L 27.855469 11.578125 C 27.867188 12.285156 28.140625 13.113281 28.847656 13.335938 L 28.855469 13.933594 L 29.074219 13.910156 C 29.160156 13.90625 29.179688 13.628906 29.265625 13.457031 C 29.285156 13.414062 29.566406 13.195312 29.785156 13.148438 C 30.089844 13.097656 30.441406 13.027344 30.855469 13.019531 L 30.851562 12.765625 L 30.347656 12.773438 L 30.171875 12.691406 L 30.277344 12.433594 C 30.253906 12.390625 30.1875 12.332031 30.121094 12.328125 M 35.59375 13.871094 C 35.617188 13.957031 35.152344 13.113281 34.972656 12.878906 C 34.703125 12.542969 34.574219 12.542969 34.328125 12.230469 C 34.191406 12.039062 33.96875 11.425781 33.734375 11.410156 C 33.011719 11.359375 32.523438 11.789062 32.152344 11.820312 C 31.949219 11.835938 32.300781 11.582031 32.300781 11.582031 C 32.363281 11.386719 31.027344 11.328125 31.027344 11.328125 C 31.027344 11.328125 30.039062 11.324219 29.980469 11.773438 L 29.984375 11.945312 L 30.804688 12.082031 C 31.15625 12.183594 31.21875 12.054688 31.636719 12.109375 L 32.402344 12.097656 L 33.082031 11.890625 L 33.445312 11.925781 C 33.554688 11.921875 33.660156 12.074219 33.699219 12.15625 C 33.949219 12.644531 34.210938 12.703125 34.582031 13.058594 C 35.285156 13.738281 35.289062 14.007812 35.59375 13.871094 M 23.539062 14.597656 L 23.417969 14.882812 L 23.40625 14.601562 Z M 22.527344 14.546875 C 22.527344 14.546875 22.75 14.636719 22.820312 14.75 C 22.867188 14.824219 22.871094 14.964844 22.871094 14.964844 C 22.757812 15.140625 22.316406 14.769531 22.527344 14.546875 M 26.160156 23.214844 C 26.390625 22.972656 26.253906 22.777344 26.40625 22.800781 C 26.601562 22.828125 26.734375 23.203125 26.734375 23.203125 C 26.734375 23.203125 26.746094 23.355469 26.984375 23.574219 C 27.238281 23.8125 27.984375 23.847656 28.324219 24 L 29.035156 24.816406 C 28.695312 24.773438 28.410156 24.605469 28.191406 24.476562 C 27.199219 23.851562 26.480469 24.636719 26.480469 24.636719 C 25.828125 24.027344 25.550781 24.179688 24.378906 24.792969 C 24.054688 24.960938 23.855469 24.6875 24.179688 24.636719 C 24.269531 24.589844 24.632812 23.890625 24.878906 23.832031 C 25.265625 23.734375 25.824219 23.5625 26.160156 23.214844 M 40.5625 22.574219 C 39.90625 22.640625 39.535156 22.097656 39.535156 22.097656 C 38.710938 23.535156 37.933594 22.621094 37.933594 22.621094 C 37.9375 21.59375 36.625 27.847656 36.425781 28.804688 C 36.050781 29.515625 34.640625 32.070312 30.296875 33.367188 L 30.457031 33.28125 C 30.828125 33.066406 30.941406 32.75 31.203125 32.378906 C 31.429688 32.054688 31.621094 31.894531 31.738281 31.523438 C 31.761719 31.449219 31.675781 31.3125 31.570312 31.144531 C 31.765625 31.136719 32.398438 30.582031 32.589844 30.394531 C 33.15625 29.824219 33.644531 29.5 34.144531 28.910156 C 34.789062 28.136719 35.382812 27.707031 35.855469 26.9375 C 36.183594 26.394531 36.300781 25.984375 36.386719 25.308594 C 36.523438 24.324219 36.957031 23.085938 37.007812 22.042969 C 36.683594 22.625 36.542969 23.039062 36.429688 23.492188 C 36.238281 24.210938 36.210938 24.640625 36.015625 25.300781 C 35.820312 25.957031 35.753906 26.472656 35.335938 26.953125 C 34.980469 27.375 34.601562 27.671875 34.199219 27.972656 C 33.058594 28.835938 32.316406 30.140625 30.71875 30.472656 C 29.9375 29.890625 28.949219 29.304688 28.675781 29.339844 C 28.675781 29.339844 28.324219 29.4375 28.109375 29.445312 L 28.019531 30.003906 C 28.019531 30.003906 28.335938 30.132812 28.328125 30.058594 C 28.296875 29.714844 28.601562 29.691406 28.585938 29.855469 C 28.570312 30.027344 28.847656 31.089844 28.40625 31.640625 C 28.328125 31.738281 28.441406 30.183594 27.96875 30.371094 L 27.796875 31.082031 L 27.574219 31.089844 C 27.574219 31.089844 27.613281 30.9375 27.597656 30.488281 C 27.585938 30.058594 27.457031 29.691406 26.785156 29.351562 C 26.644531 29.277344 26.636719 30.226562 26.5 30.378906 L 26.003906 30.609375 C 25.914062 30.300781 25.78125 29.890625 25.933594 29.886719 C 26.394531 29.867188 26.1875 29.484375 26.304688 29.207031 C 26.382812 29.03125 26.511719 28.984375 26.484375 28.746094 C 26.363281 27.8125 26.5 26.644531 26.347656 26.648438 C 26.21875 26.652344 26.113281 26.722656 26.019531 26.640625 C 25.921875 26.554688 26.007812 26.320312 26.007812 26.320312 C 25.527344 26.378906 25.726562 28.363281 25.726562 28.363281 C 25.527344 28.644531 25.109375 28.925781 24.910156 29.125 C 24.910156 29.125 24.761719 29.238281 24.730469 29.222656 C 24.164062 29.21875 23.589844 30.179688 23.589844 30.179688 C 23.375 30.226562 22.625 28.882812 22.589844 28.90625 C 22.488281 28.460938 22.683594 28.761719 22.335938 27.800781 C 22.28125 27.433594 21.878906 25.957031 21.820312 25.871094 C 21.023438 25.066406 21.113281 21.488281 20.769531 20.589844 C 20.5625 20.050781 19.839844 19.871094 19.765625 19.238281 C 19.640625 18.117188 19.824219 17.628906 20.023438 16.621094 C 20.078125 16.332031 20.03125 16.144531 20.171875 15.882812 C 20.332031 15.578125 20.507812 15.328125 20.867188 15.3125 C 21.195312 15.296875 21.265625 15.617188 21.542969 15.78125 C 21.78125 15.921875 21.890625 16.09375 22.167969 16.121094 C 23.179688 16.238281 23.082031 15.917969 23.082031 15.917969 L 23.574219 15.644531 C 23.417969 15.542969 23.164062 15.722656 22.898438 15.734375 C 22.597656 15.746094 22.414062 15.769531 22.128906 15.675781 C 21.839844 15.578125 21.292969 15.398438 21.523438 15.203125 C 21.679688 15.066406 21.769531 15.453125 22.070312 15.226562 C 22.070312 15.226562 21.585938 14.816406 21.738281 14.488281 C 21.640625 14.394531 21.785156 14.261719 21.902344 14.183594 C 22.003906 14.121094 22.121094 14.113281 22.207031 14.109375 C 22.207031 14.109375 22.085938 14.558594 22.1875 14.816406 C 22.304688 15.109375 22.519531 15.253906 22.839844 15.328125 C 23.039062 15.375 23.171875 15.351562 23.363281 15.289062 C 23.648438 15.195312 23.863281 15.078125 23.917969 14.777344 C 23.949219 14.59375 23.929688 14.476562 23.988281 14.304688 C 23.988281 14.304688 24.171875 14.574219 24.355469 14.742188 C 24.46875 14.84375 24.351562 14.992188 24.433594 15.125 C 24.488281 15.214844 24.550781 15.253906 24.65625 15.285156 C 24.804688 15.328125 24.929688 15.320312 25.175781 15.097656 C 25.21875 15.015625 25.246094 14.972656 25.191406 14.863281 C 25.074219 14.628906 24.914062 15.085938 24.113281 14.105469 C 23.933594 13.886719 23.726562 13.859375 23.445312 13.789062 C 23.105469 13.699219 22.914062 13.679688 22.542969 13.734375 C 22.445312 13.769531 22.425781 13.726562 22.320312 13.550781 C 22.320312 13.550781 22.40625 13.4375 22.488281 13.394531 C 22.9375 13.152344 23.5625 13.417969 23.796875 13.21875 C 23.445312 13.144531 23.609375 13.066406 23.460938 13.039062 C 22.953125 12.949219 23.089844 12.988281 22.300781 13.015625 C 22.300781 13.015625 21.84375 13.09375 21.566406 13.339844 C 21.324219 13.554688 21.039062 13.914062 21.039062 13.914062 C 20.933594 13.972656 20.84375 13.746094 20.8125 13.707031 C 20.8125 13.707031 21.070312 13.109375 21.371094 12.832031 C 21.683594 12.546875 21.972656 12.46875 22.339844 12.308594 C 22.671875 12.160156 22.90625 12.339844 23.265625 12.402344 C 23.652344 12.46875 23.816406 12.554688 24.238281 12.667969 C 24.523438 12.746094 24.480469 13.097656 24.761719 13.207031 C 24.835938 13.234375 24.902344 13.191406 24.960938 13.242188 C 25.023438 13.300781 25 13.390625 24.945312 13.457031 C 24.820312 13.597656 24.640625 13.429688 24.460938 13.367188 C 24.355469 13.332031 24.324219 13.242188 24.214844 13.226562 C 24.136719 13.214844 24.09375 13.246094 24.015625 13.253906 C 23.753906 13.289062 24.351562 13.484375 24.535156 13.664062 C 24.75 13.878906 24.722656 14.171875 25.015625 14.269531 C 25.15625 14.3125 25.265625 14.226562 25.390625 14.296875 C 25.542969 14.386719 25.542969 14.53125 25.558594 14.699219 C 25.5625 14.769531 25.566406 14.832031 25.5625 14.890625 C 25.550781 15.371094 25.195312 15.53125 25.101562 15.632812 C 24.765625 15.992188 24.949219 17.535156 24.996094 18.207031 C 24.996094 18.207031 24.136719 19.703125 24.726562 20.457031 C 24.910156 20.691406 24.910156 20.695312 25.402344 21.128906 C 25.402344 21.128906 25.050781 22.144531 24.789062 22.210938 C 24.546875 22.15625 23.230469 22.625 22.957031 23.53125 L 22.921875 23.777344 C 22.925781 23.871094 22.242188 23.914062 21.738281 23.449219 C 21.597656 23.320312 21.5 24.382812 21.714844 24.96875 C 21.8125 25.25 21.960938 25.773438 22.691406 25.585938 C 22.941406 25.570312 23.457031 25.46875 23.636719 25.265625 C 23.679688 25.3125 24.878906 25.976562 25.375 25.960938 C 26.027344 25.9375 26.285156 25.535156 26.285156 25.441406 C 26.285156 25.441406 26.019531 25.429688 25.714844 25.460938 C 24.65625 25.570312 24.734375 24.980469 24.734375 24.980469 C 25.140625 24.730469 25.183594 24.671875 25.679688 24.746094 C 26.078125 24.808594 26.140625 24.832031 26.382812 24.953125 C 26.429688 24.960938 26.558594 24.960938 26.621094 24.9375 C 26.941406 24.824219 27.28125 24.609375 28.035156 24.738281 C 28.203125 24.765625 28.796875 25.144531 29.425781 24.902344 L 29.246094 24.824219 L 29.570312 24.835938 L 29.425781 24.902344 C 29.777344 25.035156 29.617188 24.863281 30.03125 24.882812 C 30.582031 24.90625 30.359375 26.132812 31.714844 25.9375 C 32.324219 25.847656 32.203125 23.648438 32.203125 23.648438 L 31.917969 23.660156 C 31.921875 24.410156 31.683594 24.910156 31.484375 24.929688 C 31.050781 24.964844 31.046875 24.460938 30.160156 24.085938 C 30.160156 24.085938 29.855469 23.699219 30.273438 23.746094 C 30.601562 23.785156 30.632812 24.386719 31.460938 24.195312 L 31.46875 23.523438 C 30.21875 23.570312 30.230469 22.394531 28.894531 22.414062 C 28.445312 22.425781 29.039062 22.796875 28.492188 22.835938 C 28.121094 22.867188 28.320312 22.632812 27.675781 22.738281 C 27.5 22.765625 27.21875 22.328125 27.257812 22.054688 C 27.292969 21.796875 27.539062 21.976562 27.59375 21.722656 C 27.59375 21.722656 27.28125 20.804688 27.898438 20.847656 C 28.195312 20.867188 28.738281 21.714844 29.03125 20.722656 C 29.1875 20.714844 28.898438 20.683594 28.898438 20.683594 C 28.824219 20.613281 28.847656 21.007812 28.601562 20.886719 C 28.199219 20.6875 28.347656 20.511719 27.714844 20.574219 C 26.792969 20.667969 27.058594 21.574219 26.800781 21.398438 C 25.429688 20.460938 24.84375 19.945312 25.683594 18.332031 L 25.804688 18.652344 C 25.75 17.6875 25.628906 16.085938 25.832031 15.609375 C 25.917969 15.40625 25.949219 15.023438 26 14.726562 C 26.15625 13.773438 26.148438 12.667969 25.8125 12.550781 C 24.757812 12.179688 25.011719 11.203125 23.921875 11.078125 L 21.925781 11.136719 C 21.925781 11.136719 21.648438 9.996094 22.949219 9.609375 C 22.949219 9.609375 22.796875 8.070312 23.230469 7.671875 C 23.570312 7.363281 24.195312 7.683594 23.941406 6.664062 C 23.894531 6.480469 23.769531 6.488281 23.667969 6.371094 C 23.425781 6.105469 23.3125 6.257812 23.074219 5.664062 C 22.921875 5.289062 23.785156 4.699219 23.785156 4.699219 C 26.824219 5.191406 27.855469 2.554688 27.855469 2.554688 C 28.980469 4.585938 31.503906 4.359375 31.503906 4.359375 C 32.113281 4.382812 32.765625 4.398438 33.355469 5.113281 C 33.757812 5.601562 33.84375 5.964844 34.480469 6.296875 C 35.144531 6.640625 35.695312 6.210938 35.695312 6.210938 C 34.996094 6.15625 34.511719 5.777344 34.214844 5.199219 C 33.136719 3.097656 32.101562 3.21875 31.8125 3.304688 C 32.070312 3.183594 32.054688 2.921875 32.980469 3.046875 C 34.324219 3.226562 34.980469 5.484375 35.847656 5.597656 C 37.167969 5.765625 37.132812 5.996094 36.824219 7.203125 C 36.441406 8.71875 36.371094 10.101562 36.8125 11.871094 C 37.082031 12.945312 37.863281 13.382812 37.957031 14.488281 C 38.105469 16.238281 37.347656 16.785156 37.925781 18.640625 C 38.320312 19.910156 37.671875 21.347656 39.097656 22.023438 L 39.261719 21.804688 C 37.878906 21.039062 38.757812 19.855469 38.757812 19.855469 C 38.742188 21.953125 40.457031 22.0625 40.457031 22.0625 C 39.886719 21.675781 40.34375 21.382812 40.34375 21.382812 C 41.082031 21.144531 41.488281 22.480469 40.5625 22.574219 M 24.023438 31.367188 C 24.03125 31.652344 24.082031 31.835938 24.050781 32.121094 C 23.976562 31.941406 23.769531 31.539062 23.769531 31.539062 C 23.8125 31.519531 23.96875 31.023438 23.964844 30.964844 C 24.035156 30.53125 24.175781 30.160156 24.519531 30.046875 C 24.480469 30.230469 24.347656 30.351562 24.195312 30.691406 C 24.03125 31.042969 24.011719 31.082031 24.023438 31.367188 M 22.457031 31.804688 C 23.007812 33.480469 25.015625 33.699219 25.632812 33.929688 C 25.84375 34.007812 26.175781 33.996094 26.175781 33.996094 L 25.84375 36.117188 C 21.652344 40.875 19.933594 44.246094 19.933594 44.246094 C 19.328125 41.453125 19.578125 35.851562 19.578125 35.851562 C 19.578125 35.851562 21.121094 33.648438 22.457031 31.804688 M 27.511719 36.226562 L 27.761719 34.363281 C 35.460938 33.460938 36.886719 29.234375 36.886719 29.234375 C 36.886719 29.234375 37.335938 28.523438 37.410156 28.75 C 38.484375 32.050781 40.445312 34.972656 40.445312 34.972656 L 34.75 44.503906 C 34.441406 44.144531 28.175781 36.527344 27.511719 36.226562 M 16.59375 24.085938 C 16.632812 25.15625 15.621094 25.746094 14.703125 25.78125 C 14.703125 25.78125 14.679688 25.675781 14.589844 25.613281 C 15.507812 25.582031 16.445312 25.101562 16.40625 24.03125 C 16.40625 24.03125 16.59375 24.003906 16.59375 24.085938 M 48.074219 19.976562 C 48.097656 17.535156 46.613281 18.355469 46.109375 17.113281 C 45.632812 15.933594 46.511719 14.769531 45.519531 13.925781 C 45.164062 13.621094 44.84375 13.613281 44.445312 13.363281 C 43.386719 12.691406 42.605469 11.777344 42.199219 11.128906 C 41.804688 10.5 42.230469 9.871094 41.824219 9.214844 C 41.609375 8.867188 41.28125 8.796875 41.117188 8.425781 C 40.953125 8.046875 41.3125 7.691406 41.039062 7.378906 C 40.582031 6.859375 40.152344 6.449219 39.78125 5.28125 C 38.660156 1.746094 37.21875 2.203125 36.90625 2 C 36.042969 1.441406 34.550781 0.761719 33.457031 0.472656 C 32.175781 0.132812 31.402344 0.0234375 30.414062 0 C 28.882812 -0.03125 28.582031 0.5 28.351562 0.480469 C 25.339844 0.222656 23.949219 1.148438 22.203125 2.023438 C 20.03125 3.109375 18.847656 5.070312 18.296875 6.847656 C 18.023438 7.730469 17.773438 8.214844 17.457031 9.125 C 17.257812 9.6875 16.917969 10.0625 16.445312 10.316406 C 16.015625 10.542969 15.71875 10.789062 15.128906 10.8125 C 14.621094 10.828125 13.96875 11.097656 13.832031 11.371094 L 13.863281 12.347656 C 13.863281 12.347656 14.148438 12.265625 14.613281 11.835938 C 14.976562 11.5 15.296875 11.855469 16.109375 11.953125 C 18.015625 12.015625 19.0625 10.832031 19.171875 10.582031 C 19.335938 10.234375 19.171875 9.277344 19.382812 9.121094 L 19.691406 9.109375 C 19.621094 9.683594 19.730469 10.363281 19.273438 10.988281 C 18.699219 11.769531 17.925781 11.972656 17.710938 12.046875 C 16.476562 12.488281 15.816406 12.3125 15.195312 12.234375 C 14.480469 12.144531 15.144531 13.265625 13.101562 13.042969 C 12.414062 12.96875 11.714844 13.589844 11.695312 14.164062 C 11.675781 14.777344 11.738281 17.09375 11.804688 17.25 L 12.808594 18.128906 C 12.808594 18.128906 12.582031 16.988281 13.339844 17.316406 C 14.394531 17.773438 16.210938 17.335938 16.382812 17.199219 C 16 17.558594 15.945312 17.953125 15.652344 18.328125 C 15 19.121094 13.667969 19.570312 13.992188 21.007812 C 14.660156 24 13.265625 23.847656 13.265625 23.847656 C 12.390625 23.878906 11.75 22.636719 11.75 22.636719 L 11.8125 23.960938 C 11.800781 24.648438 13.109375 26.183594 14.015625 25.808594 L 14.609375 26.972656 C 16.753906 27.320312 14.628906 28.949219 14.648438 29.546875 L 15.539062 31.414062 C 15.585938 31.261719 15.675781 29.441406 16.554688 29.519531 C 17.378906 29.589844 17.457031 30.34375 17.457031 30.34375 C 15.941406 31.480469 17.773438 33.359375 18.855469 33.933594 C 18.855469 33.933594 18.988281 33.6875 19.234375 33.636719 C 18.699219 33.441406 18.363281 33.042969 18.464844 32.671875 C 18.570312 32.289062 18.652344 32.351562 18.964844 32.253906 C 19.363281 32.128906 19.46875 32.238281 19.835938 32.054688 C 20.222656 31.855469 20.363281 32.40625 20.71875 32.300781 C 20.984375 32.21875 21.390625 31.882812 21.765625 31.628906 C 21.101562 32.488281 20.523438 33.710938 19.265625 35.386719 C 19.019531 35.710938 19 38.316406 19.125 40.824219 L 19.148438 41.234375 C 19.261719 43.242188 19.46875 45.109375 19.734375 45.578125 C 19.765625 45.636719 19.5625 45.664062 20.863281 43.710938 L 21.183594 43.21875 C 22.582031 41.003906 24.550781 38.324219 26.433594 36.589844 L 26.855469 33.953125 C 26.960938 33.976562 27.070312 33.988281 27.1875 33.984375 L 26.894531 36.585938 C 27.453125 36.738281 28.464844 38.085938 31.105469 41.308594 L 31.566406 41.871094 C 33.070312 43.703125 34.894531 45.6875 34.980469 45.554688 C 35.488281 44.773438 41.304688 35.109375 41.304688 35.109375 C 41.304688 35.109375 39.59375 32.695312 39.089844 31.101562 C 39.710938 30.488281 39.667969 31.082031 41.289062 32.136719 C 42.546875 32.953125 43.046875 32.203125 43.046875 32.203125 C 43.046875 32.203125 41.878906 31.515625 41.875 30.820312 C 41.867188 29.28125 42.496094 29.332031 42.824219 29.375 C 43.601562 29.476562 43.242188 30.175781 43.242188 30.175781 L 44.058594 30.164062 C 44.058594 30.164062 44.328125 30.007812 44.414062 29.832031 C 45.007812 28.617188 42.335938 27.953125 41.898438 27.570312 C 41.453125 27.183594 41.722656 26.421875 41.722656 26.421875 C 43.101562 28.125 43.972656 27.710938 45.394531 27.320312 L 46.847656 25.859375 C 45.304688 26.039062 43.644531 27.421875 42.453125 23.875 L 42.746094 23.609375 C 43.449219 24.871094 44.207031 25.359375 45.128906 25.410156 L 47.296875 23.148438 C 44.773438 24.90625 44.953125 21.648438 44.953125 21.648438 C 47.535156 21.515625 48.070312 20.484375 48.074219 19.976562 "/>
</g>
<path style=" stroke:none;fill-rule:nonzero;fill:rgb(100%,100%,100%);fill-opacity:1;" d="M 61.886719 31.121094 L 62.222656 31.121094 C 62.359375 31.121094 62.484375 31.027344 62.519531 30.886719 L 63.769531 26.636719 C 63.875 26.191406 63.992188 25.59375 64.074219 25.246094 C 64.0625 25.515625 64.011719 26.40625 64.011719 26.648438 L 63.992188 30.886719 C 64.003906 31.019531 64.121094 31.121094 64.246094 31.121094 L 64.761719 31.121094 C 64.898438 31.121094 65.015625 31.007812 65.015625 30.886719 L 65.015625 24.546875 C 65.015625 24.414062 64.898438 24.3125 64.761719 24.3125 L 63.617188 24.3125 C 63.492188 24.3125 63.355469 24.402344 63.324219 24.515625 L 62.003906 29.140625 C 61.941406 29.394531 61.898438 29.820312 61.871094 30.167969 C 61.839844 29.820312 61.800781 29.394531 61.738281 29.140625 L 60.417969 24.515625 C 60.386719 24.402344 60.25 24.3125 60.121094 24.3125 L 58.976562 24.3125 C 58.835938 24.3125 58.722656 24.414062 58.722656 24.546875 L 58.722656 30.886719 C 58.722656 31.007812 58.835938 31.121094 58.976562 31.121094 L 59.492188 31.121094 C 59.621094 31.121094 59.734375 31.019531 59.746094 30.886719 L 59.730469 26.648438 C 59.726562 26.40625 59.679688 25.515625 59.664062 25.246094 C 59.746094 25.59375 59.863281 26.191406 59.972656 26.636719 L 61.21875 30.886719 C 61.253906 31.027344 61.378906 31.121094 61.515625 31.121094 Z M 71.171875 28.472656 L 69.511719 28.472656 L 70.171875 25.816406 C 70.238281 25.535156 70.289062 25.148438 70.320312 24.867188 C 70.363281 25.140625 70.402344 25.546875 70.472656 25.816406 Z M 86.132812 27.734375 C 86.132812 29.765625 85.578125 30.191406 84.585938 30.191406 L 83.941406 30.191406 L 83.941406 25.210938 L 84.605469 25.210938 C 85.042969 25.210938 85.4375 25.363281 85.679688 25.675781 C 85.980469 26.070312 86.132812 26.65625 86.132812 27.734375 M 100.214844 26.160156 C 100.214844 26.734375 99.863281 27.121094 99.164062 27.121094 L 98.277344 27.121094 L 98.277344 25.210938 L 99.226562 25.210938 C 99.894531 25.210938 100.214844 25.5625 100.214844 26.160156 M 100.457031 29.070312 C 100.457031 29.757812 100.066406 30.179688 99.429688 30.179688 L 98.277344 30.179688 L 98.277344 27.96875 L 99.257812 27.96875 C 100.015625 27.96875 100.457031 28.453125 100.457031 29.070312 M 114.875 26.179688 C 114.875 26.816406 114.460938 27.238281 113.765625 27.238281 L 112.953125 27.238281 L 112.953125 25.253906 L 113.875 25.253906 C 114.550781 25.253906 114.875 25.695312 114.875 26.179688 M 73.019531 30.835938 L 71.078125 24.546875 C 71.027344 24.390625 70.90625 24.3125 70.777344 24.3125 L 69.886719 24.3125 C 69.757812 24.3125 69.613281 24.402344 69.574219 24.546875 L 67.765625 30.835938 C 67.726562 30.988281 67.796875 31.121094 67.949219 31.121094 L 68.605469 31.121094 C 68.746094 31.121094 68.867188 31.027344 68.898438 30.898438 L 69.28125 29.402344 L 71.410156 29.402344 L 71.816406 30.898438 C 71.855469 31.027344 71.988281 31.121094 72.128906 31.121094 L 72.835938 31.121094 C 72.988281 31.121094 73.066406 30.988281 73.019531 30.835938 M 79.644531 30.515625 L 79.644531 27.433594 C 79.644531 27.300781 79.53125 27.191406 79.402344 27.191406 L 77.695312 27.191406 C 77.5625 27.191406 77.453125 27.300781 77.453125 27.433594 L 77.453125 27.90625 C 77.453125 28.039062 77.5625 28.148438 77.695312 28.148438 L 78.582031 28.148438 L 78.582031 30.140625 C 78.382812 30.199219 78.167969 30.230469 77.9375 30.230469 C 76.867188 30.230469 76.230469 29.585938 76.230469 27.765625 C 76.230469 25.988281 76.773438 25.199219 77.855469 25.199219 C 78.382812 25.199219 78.734375 25.320312 79.089844 25.492188 C 79.210938 25.554688 79.332031 25.492188 79.382812 25.382812 L 79.582031 24.949219 C 79.644531 24.828125 79.601562 24.707031 79.472656 24.636719 C 79.027344 24.402344 78.453125 24.253906 77.855469 24.253906 C 76.097656 24.253906 75.089844 25.59375 75.089844 27.695312 C 75.089844 29.878906 75.917969 31.179688 77.835938 31.179688 C 78.382812 31.179688 78.945312 31.078125 79.332031 30.9375 C 79.574219 30.847656 79.644531 30.746094 79.644531 30.515625 M 87.265625 27.675781 C 87.265625 25.078125 86.152344 24.3125 84.71875 24.3125 L 83.113281 24.3125 C 82.980469 24.3125 82.871094 24.425781 82.871094 24.554688 L 82.871094 30.878906 C 82.871094 31.007812 82.980469 31.121094 83.113281 31.121094 L 84.757812 31.121094 C 86.679688 31.121094 87.265625 29.835938 87.265625 27.675781 M 93.894531 30.878906 L 93.894531 30.382812 C 93.894531 30.25 93.769531 30.140625 93.640625 30.140625 L 91.257812 30.140625 L 91.257812 27.976562 L 93.316406 27.976562 C 93.449219 27.976562 93.570312 27.867188 93.570312 27.726562 L 93.570312 27.300781 C 93.570312 27.171875 93.449219 27.070312 93.316406 27.070312 L 91.257812 27.070312 L 91.257812 25.261719 L 93.558594 25.261719 C 93.699219 25.261719 93.800781 25.140625 93.800781 25.011719 L 93.800781 24.554688 C 93.800781 24.425781 93.691406 24.3125 93.558594 24.3125 L 90.429688 24.3125 C 90.296875 24.3125 90.1875 24.425781 90.1875 24.554688 L 90.1875 30.878906 C 90.1875 31.007812 90.296875 31.121094 90.429688 31.121094 L 93.640625 31.121094 C 93.769531 31.121094 93.894531 31.007812 93.894531 30.878906 M 101.609375 29.199219 C 101.609375 28.351562 101.125 27.65625 100.207031 27.503906 C 100.984375 27.253906 101.316406 26.757812 101.316406 26.039062 C 101.316406 25.039062 100.628906 24.3125 99.460938 24.3125 L 97.449219 24.3125 C 97.316406 24.3125 97.207031 24.425781 97.207031 24.554688 L 97.207031 30.886719 C 97.207031 31.007812 97.316406 31.121094 97.449219 31.121094 L 99.570312 31.121094 C 100.863281 31.121094 101.609375 30.421875 101.609375 29.199219 M 108.742188 29.007812 L 108.742188 24.554688 C 108.742188 24.402344 108.640625 24.3125 108.5 24.3125 L 107.925781 24.3125 C 107.773438 24.3125 107.671875 24.390625 107.671875 24.554688 L 107.671875 28.960938 C 107.671875 29.988281 107.246094 30.292969 106.5 30.292969 C 105.671875 30.292969 105.378906 29.785156 105.378906 28.898438 L 105.378906 24.554688 C 105.378906 24.390625 105.289062 24.3125 105.136719 24.3125 L 104.550781 24.3125 C 104.410156 24.3125 104.316406 24.402344 104.316406 24.554688 L 104.316406 29.007812 C 104.316406 30.382812 105.023438 31.179688 106.519531 31.179688 C 107.972656 31.179688 108.742188 30.414062 108.742188 29.007812 M 116.410156 30.808594 C 116.117188 30 115.722656 29.019531 115.5625 28.675781 C 115.351562 28.230469 114.964844 27.808594 114.480469 27.707031 C 115.519531 27.546875 115.964844 26.839844 115.964844 26.039062 C 115.964844 25.363281 115.613281 24.3125 113.90625 24.3125 L 112.128906 24.3125 C 111.996094 24.3125 111.886719 24.425781 111.886719 24.554688 L 111.886719 30.886719 C 111.886719 31.007812 111.996094 31.121094 112.128906 31.121094 L 112.714844 31.121094 C 112.84375 31.121094 112.953125 31.007812 112.953125 30.886719 L 112.953125 28.109375 L 113.367188 28.109375 C 113.976562 28.109375 114.28125 28.515625 114.511719 28.960938 C 114.792969 29.492188 114.964844 30.210938 115.195312 30.90625 C 115.246094 31.078125 115.359375 31.121094 115.5 31.121094 L 116.238281 31.121094 C 116.449219 31.121094 116.480469 30.988281 116.410156 30.808594 M 123.289062 30.515625 L 123.289062 27.433594 C 123.289062 27.300781 123.179688 27.191406 123.046875 27.191406 L 121.339844 27.191406 C 121.207031 27.191406 121.097656 27.300781 121.097656 27.433594 L 121.097656 27.90625 C 121.097656 28.039062 121.207031 28.148438 121.339844 28.148438 L 122.230469 28.148438 L 122.230469 30.140625 C 122.027344 30.199219 121.8125 30.230469 121.582031 30.230469 C 120.511719 30.230469 119.875 29.585938 119.875 27.765625 C 119.875 25.988281 120.421875 25.199219 121.5 25.199219 C 122.027344 25.199219 122.378906 25.320312 122.734375 25.492188 C 122.855469 25.554688 122.976562 25.492188 123.027344 25.382812 L 123.226562 24.949219 C 123.289062 24.828125 123.246094 24.707031 123.117188 24.636719 C 122.671875 24.402344 122.097656 24.253906 121.5 24.253906 C 119.742188 24.253906 118.734375 25.59375 118.734375 27.695312 C 118.734375 29.878906 119.5625 31.179688 121.480469 31.179688 C 122.027344 31.179688 122.59375 31.078125 122.976562 30.9375 C 123.21875 30.847656 123.289062 30.746094 123.289062 30.515625 "/>
<path style=" stroke:none;fill-rule:nonzero;fill:rgb(100%,100%,100%);fill-opacity:1;" d="M 93.65625 17.257812 C 93.65625 17.894531 93.242188 18.320312 92.546875 18.320312 L 91.738281 18.320312 L 91.738281 16.328125 L 92.65625 16.328125 C 93.332031 16.328125 93.65625 16.773438 93.65625 17.257812 M 116.027344 19.550781 L 114.371094 19.550781 L 115.027344 16.894531 C 115.097656 16.613281 115.148438 16.226562 115.179688 15.945312 C 115.21875 16.21875 115.257812 16.621094 115.328125 16.894531 Z M 63.144531 20.085938 L 63.144531 15.632812 C 63.144531 15.480469 63.042969 15.390625 62.902344 15.390625 L 62.328125 15.390625 C 62.175781 15.390625 62.074219 15.472656 62.074219 15.632812 L 62.074219 20.035156 C 62.074219 21.066406 61.648438 21.367188 60.902344 21.367188 C 60.074219 21.367188 59.78125 20.863281 59.78125 19.976562 L 59.78125 15.632812 C 59.78125 15.472656 59.691406 15.390625 59.539062 15.390625 L 58.953125 15.390625 C 58.8125 15.390625 58.722656 15.480469 58.722656 15.632812 L 58.722656 20.085938 C 58.722656 21.460938 59.429688 22.257812 60.921875 22.257812 C 62.378906 22.257812 63.144531 21.488281 63.144531 20.085938 M 70.429688 21.964844 L 70.429688 15.621094 C 70.429688 15.5 70.308594 15.390625 70.179688 15.390625 L 69.664062 15.390625 C 69.53125 15.390625 69.421875 15.5 69.421875 15.621094 L 69.429688 19.550781 C 69.429688 20.027344 69.480469 20.652344 69.53125 21.175781 C 69.390625 20.683594 69.269531 20.1875 69.089844 19.742188 L 67.382812 15.570312 C 67.328125 15.460938 67.1875 15.390625 67.058594 15.390625 L 66.109375 15.390625 C 65.976562 15.390625 65.867188 15.492188 65.867188 15.621094 L 65.867188 21.964844 C 65.867188 22.085938 65.976562 22.195312 66.109375 22.195312 L 66.644531 22.195312 C 66.773438 22.195312 66.886719 22.085938 66.886719 21.964844 L 66.875 17.964844 C 66.875 17.59375 66.785156 16.78125 66.734375 16.269531 C 66.867188 16.78125 66.996094 17.347656 67.179688 17.773438 L 68.957031 22.003906 C 69.007812 22.125 69.097656 22.195312 69.230469 22.195312 L 70.179688 22.195312 C 70.308594 22.195312 70.429688 22.085938 70.429688 21.964844 M 74.488281 21.953125 L 74.488281 15.632812 C 74.488281 15.5 74.378906 15.390625 74.246094 15.390625 L 73.621094 15.390625 C 73.488281 15.390625 73.378906 15.5 73.378906 15.632812 L 73.378906 21.953125 C 73.378906 22.085938 73.488281 22.195312 73.621094 22.195312 L 74.246094 22.195312 C 74.378906 22.195312 74.488281 22.085938 74.488281 21.953125 M 81.988281 15.660156 C 82.03125 15.519531 81.949219 15.390625 81.796875 15.390625 L 81.191406 15.390625 C 81.03125 15.390625 80.929688 15.480469 80.890625 15.640625 L 79.726562 20.207031 C 79.648438 20.53125 79.574219 21.066406 79.515625 21.53125 C 79.476562 21.066406 79.382812 20.53125 79.304688 20.207031 L 78.140625 15.632812 C 78.101562 15.472656 77.988281 15.390625 77.828125 15.390625 L 77.132812 15.390625 C 76.980469 15.390625 76.898438 15.519531 76.941406 15.671875 L 78.808594 21.976562 C 78.847656 22.105469 78.980469 22.195312 79.113281 22.195312 L 79.878906 22.195312 C 80.011719 22.195312 80.140625 22.105469 80.183594 21.976562 Z M 88.054688 21.953125 L 88.054688 21.460938 C 88.054688 21.328125 87.933594 21.21875 87.800781 21.21875 L 85.417969 21.21875 L 85.417969 19.054688 L 87.476562 19.054688 C 87.609375 19.054688 87.730469 18.945312 87.730469 18.804688 L 87.730469 18.378906 C 87.730469 18.246094 87.609375 18.148438 87.476562 18.148438 L 85.417969 18.148438 L 85.417969 16.339844 L 87.71875 16.339844 C 87.863281 16.339844 87.964844 16.21875 87.964844 16.085938 L 87.964844 15.632812 C 87.964844 15.5 87.851562 15.390625 87.71875 15.390625 L 84.589844 15.390625 C 84.457031 15.390625 84.347656 15.5 84.347656 15.632812 L 84.347656 21.953125 C 84.347656 22.085938 84.457031 22.195312 84.589844 22.195312 L 87.800781 22.195312 C 87.933594 22.195312 88.054688 22.085938 88.054688 21.953125 M 95.191406 21.882812 C 94.898438 21.074219 94.503906 20.097656 94.34375 19.753906 C 94.132812 19.308594 93.746094 18.882812 93.261719 18.78125 C 94.304688 18.621094 94.746094 17.914062 94.746094 17.117188 C 94.746094 16.441406 94.394531 15.390625 92.6875 15.390625 L 90.910156 15.390625 C 90.777344 15.390625 90.667969 15.5 90.667969 15.632812 L 90.667969 21.964844 C 90.667969 22.085938 90.777344 22.195312 90.910156 22.195312 L 91.496094 22.195312 C 91.625 22.195312 91.738281 22.085938 91.738281 21.964844 L 91.738281 19.1875 L 92.152344 19.1875 C 92.757812 19.1875 93.058594 19.589844 93.292969 20.035156 C 93.574219 20.570312 93.746094 21.289062 93.980469 21.984375 C 94.03125 22.15625 94.140625 22.195312 94.28125 22.195312 L 95.019531 22.195312 C 95.230469 22.195312 95.261719 22.066406 95.191406 21.882812 M 101.222656 20.257812 C 101.222656 19.1875 100.605469 18.722656 99.890625 18.390625 L 99.34375 18.136719 C 98.808594 17.882812 98.355469 17.683594 98.355469 17.148438 C 98.355469 16.589844 98.6875 16.257812 99.34375 16.257812 C 99.800781 16.257812 100.070312 16.359375 100.394531 16.46875 C 100.527344 16.511719 100.636719 16.441406 100.667969 16.320312 L 100.777344 15.863281 C 100.808594 15.742188 100.769531 15.613281 100.648438 15.570312 C 100.304688 15.449219 99.808594 15.328125 99.324219 15.328125 C 98.03125 15.328125 97.265625 16.128906 97.265625 17.199219 C 97.265625 18.175781 97.828125 18.601562 98.457031 18.894531 L 98.871094 19.085938 C 99.496094 19.378906 100.121094 19.652344 100.121094 20.339844 C 100.121094 20.964844 99.636719 21.296875 98.972656 21.296875 C 98.464844 21.296875 98 21.148438 97.617188 21.003906 C 97.476562 20.953125 97.34375 21.023438 97.316406 21.15625 L 97.191406 21.660156 C 97.164062 21.78125 97.214844 21.914062 97.34375 21.964844 C 97.769531 22.125 98.40625 22.257812 98.992188 22.257812 C 100.394531 22.257812 101.222656 21.441406 101.222656 20.257812 M 104.753906 21.953125 L 104.753906 15.632812 C 104.753906 15.5 104.640625 15.390625 104.511719 15.390625 L 103.882812 15.390625 C 103.753906 15.390625 103.640625 15.5 103.640625 15.632812 L 103.640625 21.953125 C 103.640625 22.085938 103.753906 22.195312 103.882812 22.195312 L 104.511719 22.195312 C 104.640625 22.195312 104.753906 22.085938 104.753906 21.953125 M 111.304688 16.128906 L 111.304688 15.632812 C 111.304688 15.5 111.203125 15.390625 111.070312 15.390625 L 107.132812 15.390625 C 107.003906 15.390625 106.882812 15.5 106.882812 15.632812 L 106.882812 16.128906 C 106.882812 16.257812 107.003906 16.359375 107.132812 16.359375 L 108.566406 16.359375 L 108.566406 21.953125 C 108.566406 22.085938 108.679688 22.195312 108.808594 22.195312 L 109.398438 22.195312 C 109.527344 22.195312 109.640625 22.085938 109.640625 21.953125 L 109.640625 16.359375 L 111.070312 16.359375 C 111.203125 16.359375 111.304688 16.257812 111.304688 16.128906 M 116.835938 14.25 C 116.835938 13.914062 116.5625 13.660156 116.230469 13.660156 C 115.914062 13.660156 115.652344 13.914062 115.652344 14.25 C 115.652344 14.582031 115.914062 14.855469 116.238281 14.855469 C 116.574219 14.855469 116.835938 14.582031 116.835938 14.25 M 114.773438 14.25 C 114.773438 13.914062 114.503906 13.660156 114.167969 13.660156 C 113.855469 13.660156 113.59375 13.914062 113.59375 14.25 C 113.59375 14.582031 113.855469 14.855469 114.179688 14.855469 C 114.511719 14.855469 114.773438 14.582031 114.773438 14.25 M 117.875 21.914062 L 115.9375 15.621094 C 115.886719 15.472656 115.765625 15.390625 115.632812 15.390625 L 114.742188 15.390625 C 114.613281 15.390625 114.472656 15.480469 114.429688 15.621094 L 112.621094 21.914062 C 112.582031 22.066406 112.65625 22.195312 112.804688 22.195312 L 113.460938 22.195312 C 113.605469 22.195312 113.726562 22.105469 113.753906 21.976562 L 114.136719 20.480469 L 116.269531 20.480469 L 116.671875 21.976562 C 116.714844 22.105469 116.84375 22.195312 116.988281 22.195312 L 117.695312 22.195312 C 117.84375 22.195312 117.925781 22.066406 117.875 21.914062 M 123.472656 16.128906 L 123.472656 15.632812 C 123.472656 15.5 123.371094 15.390625 123.238281 15.390625 L 119.300781 15.390625 C 119.167969 15.390625 119.046875 15.5 119.046875 15.632812 L 119.046875 16.128906 C 119.046875 16.257812 119.167969 16.359375 119.300781 16.359375 L 120.734375 16.359375 L 120.734375 21.953125 C 120.734375 22.085938 120.84375 22.195312 120.976562 22.195312 L 121.5625 22.195312 C 121.695312 22.195312 121.804688 22.085938 121.804688 21.953125 L 121.804688 16.359375 L 123.238281 16.359375 C 123.371094 16.359375 123.472656 16.257812 123.472656 16.128906 "/>
<path style=" stroke:none;fill-rule:nonzero;fill:rgb(100%,100%,100%);fill-opacity:1;" d="M 123.289062 10.664062 L 123.289062 10.351562 C 123.289062 10.269531 123.210938 10.195312 123.128906 10.195312 L 121.609375 10.195312 L 121.609375 8.820312 L 122.921875 8.820312 C 123.007812 8.820312 123.082031 8.75 123.082031 8.660156 L 123.082031 8.390625 C 123.082031 8.308594 123.007812 8.242188 122.921875 8.242188 L 121.609375 8.242188 L 121.609375 7.09375 L 123.074219 7.09375 C 123.164062 7.09375 123.230469 7.015625 123.230469 6.933594 L 123.230469 6.644531 C 123.230469 6.558594 123.160156 6.488281 123.074219 6.488281 L 121.085938 6.488281 C 121 6.488281 120.929688 6.558594 120.929688 6.644531 L 120.929688 10.664062 C 120.929688 10.75 121 10.820312 121.085938 10.820312 L 123.128906 10.820312 C 123.210938 10.820312 123.289062 10.75 123.289062 10.664062 "/>
<path style=" stroke:none;fill-rule:nonzero;fill:rgb(100%,100%,100%);fill-opacity:1;" d="M 119.550781 10.640625 L 118.164062 8.421875 L 119.421875 6.667969 C 119.472656 6.589844 119.464844 6.488281 119.335938 6.488281 L 118.847656 6.488281 C 118.753906 6.488281 118.695312 6.515625 118.644531 6.589844 L 117.511719 8.308594 L 117.511719 6.644531 C 117.511719 6.558594 117.441406 6.488281 117.359375 6.488281 L 116.984375 6.488281 C 116.902344 6.488281 116.828125 6.558594 116.828125 6.644531 L 116.828125 10.671875 C 116.828125 10.75 116.902344 10.820312 116.984375 10.820312 L 117.359375 10.820312 C 117.441406 10.820312 117.511719 10.75 117.511719 10.671875 L 117.511719 8.570312 L 118.726562 10.703125 C 118.777344 10.792969 118.847656 10.820312 118.945312 10.820312 L 119.464844 10.820312 C 119.574219 10.820312 119.613281 10.742188 119.550781 10.640625 "/>
<path style=" stroke:none;fill-rule:nonzero;fill:rgb(100%,100%,100%);fill-opacity:1;" d="M 115.382812 10.484375 L 115.238281 10.179688 C 115.214844 10.113281 115.136719 10.085938 115.0625 10.121094 C 114.933594 10.179688 114.714844 10.242188 114.558594 10.242188 C 113.9375 10.242188 113.511719 9.785156 113.511719 8.640625 C 113.511719 7.503906 113.910156 7.046875 114.558594 7.046875 C 114.738281 7.046875 114.894531 7.09375 115.035156 7.15625 C 115.117188 7.195312 115.183594 7.171875 115.222656 7.097656 L 115.355469 6.835938 C 115.402344 6.753906 115.367188 6.667969 115.289062 6.625 C 115.054688 6.480469 114.757812 6.449219 114.507812 6.449219 C 113.46875 6.449219 112.789062 7.304688 112.789062 8.636719 C 112.789062 10.066406 113.429688 10.859375 114.480469 10.859375 C 114.835938 10.859375 115.097656 10.789062 115.324219 10.671875 C 115.382812 10.648438 115.421875 10.570312 115.382812 10.484375 "/>
<path style=" stroke:none;fill-rule:nonzero;fill:rgb(100%,100%,100%);fill-opacity:1;" d="M 111.152344 10.664062 L 111.152344 6.644531 C 111.152344 6.558594 111.085938 6.488281 111 6.488281 L 110.601562 6.488281 C 110.519531 6.488281 110.445312 6.558594 110.445312 6.644531 L 110.445312 10.664062 C 110.445312 10.75 110.519531 10.820312 110.601562 10.820312 L 111 10.820312 C 111.085938 10.820312 111.152344 10.75 111.152344 10.664062 "/>
<path style=" stroke:none;fill-rule:nonzero;fill:rgb(100%,100%,100%);fill-opacity:1;" d="M 107.296875 8.351562 L 106.78125 8.351562 L 106.78125 7.085938 L 107.367188 7.085938 C 107.796875 7.085938 108.003906 7.367188 108.003906 7.679688 C 108.003906 8.082031 107.738281 8.351562 107.296875 8.351562 M 107.753906 8.648438 C 108.414062 8.542969 108.695312 8.09375 108.695312 7.585938 C 108.695312 7.15625 108.472656 6.488281 107.386719 6.488281 L 106.253906 6.488281 C 106.171875 6.488281 106.101562 6.558594 106.101562 6.644531 L 106.101562 10.671875 C 106.101562 10.75 106.171875 10.820312 106.253906 10.820312 L 106.628906 10.820312 C 106.710938 10.820312 106.78125 10.75 106.78125 10.671875 L 106.78125 8.90625 L 107.046875 8.90625 C 107.429688 8.90625 107.621094 9.160156 107.769531 9.445312 C 107.949219 9.785156 108.058594 10.242188 108.207031 10.683594 C 108.242188 10.792969 108.3125 10.820312 108.402344 10.820312 L 108.871094 10.820312 C 109.003906 10.820312 109.023438 10.738281 108.980469 10.621094 C 108.792969 10.105469 108.542969 9.484375 108.441406 9.265625 C 108.304688 8.980469 108.058594 8.710938 107.753906 8.648438 "/>
<path style=" stroke:none;fill-rule:nonzero;fill:rgb(100%,100%,100%);fill-opacity:1;" d="M 104.476562 10.664062 L 104.476562 10.351562 C 104.476562 10.269531 104.398438 10.195312 104.316406 10.195312 L 102.800781 10.195312 L 102.800781 8.820312 L 104.109375 8.820312 C 104.195312 8.820312 104.269531 8.75 104.269531 8.660156 L 104.269531 8.390625 C 104.269531 8.308594 104.195312 8.242188 104.109375 8.242188 L 102.800781 8.242188 L 102.800781 7.09375 L 104.265625 7.09375 C 104.355469 7.09375 104.417969 7.015625 104.417969 6.933594 L 104.417969 6.644531 C 104.417969 6.558594 104.347656 6.488281 104.265625 6.488281 L 102.273438 6.488281 C 102.1875 6.488281 102.117188 6.558594 102.117188 6.644531 L 102.117188 10.664062 C 102.117188 10.75 102.1875 10.820312 102.273438 10.820312 L 104.316406 10.820312 C 104.398438 10.820312 104.476562 10.75 104.476562 10.664062 "/>
<path style=" stroke:none;fill-rule:nonzero;fill:rgb(100%,100%,100%);fill-opacity:1;" d="M 100.28125 9.476562 L 100.28125 6.644531 C 100.28125 6.546875 100.21875 6.488281 100.128906 6.488281 L 99.761719 6.488281 C 99.664062 6.488281 99.601562 6.539062 99.601562 6.644531 L 99.601562 9.445312 C 99.601562 10.101562 99.332031 10.292969 98.855469 10.292969 C 98.328125 10.292969 98.144531 9.972656 98.144531 9.40625 L 98.144531 6.644531 C 98.144531 6.539062 98.085938 6.488281 97.988281 6.488281 L 97.617188 6.488281 C 97.527344 6.488281 97.46875 6.546875 97.46875 6.644531 L 97.46875 9.476562 C 97.46875 10.351562 97.917969 10.859375 98.871094 10.859375 C 99.796875 10.859375 100.28125 10.371094 100.28125 9.476562 "/>
<path style=" stroke:none;fill-rule:nonzero;fill:rgb(100%,100%,100%);fill-opacity:1;" d="M 95.664062 10.433594 L 95.664062 8.472656 C 95.664062 8.390625 95.59375 8.320312 95.511719 8.320312 L 94.425781 8.320312 C 94.34375 8.320312 94.269531 8.390625 94.269531 8.472656 L 94.269531 8.777344 C 94.269531 8.859375 94.34375 8.929688 94.425781 8.929688 L 94.992188 8.929688 L 94.992188 10.195312 C 94.863281 10.234375 94.726562 10.253906 94.578125 10.253906 C 93.898438 10.253906 93.492188 9.84375 93.492188 8.6875 C 93.492188 7.554688 93.839844 7.054688 94.527344 7.054688 C 94.863281 7.054688 95.089844 7.132812 95.3125 7.242188 C 95.390625 7.28125 95.46875 7.242188 95.5 7.167969 L 95.628906 6.894531 C 95.664062 6.816406 95.640625 6.738281 95.558594 6.695312 C 95.273438 6.546875 94.90625 6.449219 94.527344 6.449219 C 93.410156 6.449219 92.769531 7.304688 92.769531 8.640625 C 92.769531 10.03125 93.296875 10.859375 94.515625 10.859375 C 94.863281 10.859375 95.222656 10.792969 95.46875 10.703125 C 95.621094 10.644531 95.664062 10.582031 95.664062 10.433594 "/>
<path style=" stroke:none;fill-rule:nonzero;fill:rgb(100%,100%,100%);fill-opacity:1;" d="M 88.5625 10.671875 L 88.5625 6.636719 C 88.5625 6.558594 88.484375 6.488281 88.402344 6.488281 L 88.074219 6.488281 C 87.992188 6.488281 87.921875 6.558594 87.921875 6.636719 L 87.925781 9.136719 C 87.925781 9.4375 87.960938 9.835938 87.992188 10.171875 C 87.902344 9.855469 87.824219 9.539062 87.707031 9.257812 L 86.621094 6.605469 C 86.589844 6.53125 86.5 6.488281 86.414062 6.488281 L 85.8125 6.488281 C 85.730469 6.488281 85.65625 6.550781 85.65625 6.636719 L 85.65625 10.671875 C 85.65625 10.75 85.730469 10.820312 85.8125 10.820312 L 86.152344 10.820312 C 86.238281 10.820312 86.308594 10.75 86.308594 10.671875 L 86.300781 8.128906 C 86.300781 7.890625 86.242188 7.375 86.210938 7.046875 C 86.292969 7.375 86.378906 7.734375 86.492188 8.003906 L 87.625 10.699219 C 87.65625 10.773438 87.714844 10.820312 87.796875 10.820312 L 88.402344 10.820312 C 88.484375 10.820312 88.5625 10.75 88.5625 10.671875 "/>
<path style=" stroke:none;fill-rule:nonzero;fill:rgb(100%,100%,100%);fill-opacity:1;" d="M 83.417969 8.65625 C 83.417969 9.65625 83.25 10.292969 82.613281 10.292969 C 82.011719 10.292969 81.816406 9.742188 81.816406 8.65625 C 81.816406 7.800781 81.902344 6.996094 82.613281 6.996094 C 83.277344 6.996094 83.417969 7.730469 83.417969 8.65625 M 84.125 8.675781 C 84.125 7.175781 83.609375 6.449219 82.621094 6.449219 C 81.609375 6.449219 81.105469 7.214844 81.105469 8.675781 C 81.105469 10.152344 81.617188 10.859375 82.621094 10.859375 C 83.617188 10.859375 84.125 10.136719 84.125 8.675781 "/>
<path style=" stroke:none;fill-rule:nonzero;fill:rgb(100%,100%,100%);fill-opacity:1;" d="M 80.035156 6.660156 C 80.058594 6.570312 80.007812 6.488281 79.910156 6.488281 L 79.527344 6.488281 C 79.421875 6.488281 79.359375 6.546875 79.332031 6.648438 L 78.59375 9.554688 C 78.542969 9.761719 78.496094 10.101562 78.460938 10.394531 C 78.433594 10.101562 78.375 9.761719 78.324219 9.554688 L 77.585938 6.644531 C 77.558594 6.539062 77.488281 6.488281 77.386719 6.488281 L 76.941406 6.488281 C 76.847656 6.488281 76.796875 6.570312 76.820312 6.667969 L 78.011719 10.679688 C 78.035156 10.761719 78.117188 10.820312 78.203125 10.820312 L 78.691406 10.820312 C 78.773438 10.820312 78.859375 10.761719 78.882812 10.679688 L 80.035156 6.660156 "/>
<path style=" stroke:none;fill-rule:nonzero;fill:rgb(100%,100%,100%);fill-opacity:1;" d="M 72.261719 8.65625 C 72.261719 9.65625 72.097656 10.292969 71.460938 10.292969 C 70.855469 10.292969 70.664062 9.742188 70.664062 8.65625 C 70.664062 7.800781 70.746094 6.996094 71.460938 6.996094 C 72.121094 6.996094 72.261719 7.730469 72.261719 8.65625 M 72.96875 8.675781 C 72.96875 7.175781 72.457031 6.449219 71.464844 6.449219 C 70.457031 6.449219 69.949219 7.214844 69.949219 8.675781 C 69.949219 10.152344 70.464844 10.859375 71.464844 10.859375 C 72.460938 10.859375 72.96875 10.136719 72.96875 8.675781 "/>
<path style=" stroke:none;fill-rule:nonzero;fill:rgb(100%,100%,100%);fill-opacity:1;" d="M 69.007812 6.957031 L 69.007812 6.640625 C 69.007812 6.558594 68.941406 6.488281 68.859375 6.488281 L 66.351562 6.488281 C 66.269531 6.488281 66.191406 6.558594 66.191406 6.640625 L 66.191406 6.957031 C 66.191406 7.039062 66.269531 7.105469 66.351562 7.105469 L 67.265625 7.105469 L 67.265625 10.664062 C 67.265625 10.75 67.335938 10.820312 67.417969 10.820312 L 67.789062 10.820312 C 67.875 10.820312 67.945312 10.75 67.945312 10.664062 L 67.945312 7.105469 L 68.859375 7.105469 C 68.941406 7.105469 69.007812 7.039062 69.007812 6.957031 "/>
<path style=" stroke:none;fill-rule:nonzero;fill:rgb(100%,100%,100%);fill-opacity:1;" d="M 65.246094 6.957031 L 65.246094 6.640625 C 65.246094 6.558594 65.183594 6.488281 65.101562 6.488281 L 62.59375 6.488281 C 62.511719 6.488281 62.433594 6.558594 62.433594 6.640625 L 62.433594 6.957031 C 62.433594 7.039062 62.511719 7.105469 62.59375 7.105469 L 63.507812 7.105469 L 63.507812 10.664062 C 63.507812 10.75 63.578125 10.820312 63.660156 10.820312 L 64.03125 10.820312 C 64.117188 10.820312 64.1875 10.75 64.1875 10.664062 L 64.1875 7.105469 L 65.101562 7.105469 C 65.183594 7.105469 65.246094 7.039062 65.246094 6.957031 "/>
<path style=" stroke:none;fill-rule:nonzero;fill:rgb(100%,100%,100%);fill-opacity:1;" d="M 60.851562 8.65625 C 60.851562 9.65625 60.683594 10.292969 60.046875 10.292969 C 59.441406 10.292969 59.25 9.742188 59.25 8.65625 C 59.25 7.800781 59.332031 6.996094 60.046875 6.996094 C 60.710938 6.996094 60.851562 7.730469 60.851562 8.65625 M 61.558594 8.675781 C 61.558594 7.175781 61.042969 6.449219 60.054688 6.449219 C 59.042969 6.449219 58.535156 7.214844 58.535156 8.675781 C 58.535156 10.152344 59.050781 10.859375 60.054688 10.859375 C 61.050781 10.859375 61.558594 10.136719 61.558594 8.675781 "/>
<path style=" stroke:none;fill-rule:nonzero;fill:rgb(9.01947%,43.528748%,75.489807%);fill-opacity:1;" d="M 198.425781 34.011719 L 198.425781 3.613281 C 198.425781 2.605469 197.609375 1.789062 196.601562 1.789062 L 141.542969 1.789062 C 140.535156 1.789062 139.71875 2.605469 139.71875 3.613281 L 139.71875 34.011719 C 139.71875 35.019531 140.535156 35.839844 141.542969 35.839844 L 196.601562 35.839844 C 197.609375 35.839844 198.425781 35.019531 198.425781 34.011719 "/>
<path style=" stroke:none;fill-rule:nonzero;fill:rgb(100%,100%,100%);fill-opacity:1;" d="M 176.773438 16.859375 L 176.773438 15.792969 C 176.773438 15.488281 176.515625 15.230469 176.207031 15.230469 L 169.125 15.230469 C 168.816406 15.230469 168.558594 15.488281 168.558594 15.792969 L 168.558594 30.574219 C 168.558594 30.785156 168.699219 31 168.886719 31.023438 C 168.933594 31.09375 169.527344 31.140625 169.621094 31.140625 C 169.714844 31.164062 170.660156 31.09375 170.707031 31.023438 C 170.894531 30.976562 171.058594 30.785156 171.058594 30.574219 L 171.058594 23.847656 L 175.617188 23.847656 C 175.925781 23.847656 176.207031 23.585938 176.207031 23.257812 L 176.207031 22.289062 C 176.207031 21.980469 175.925781 21.722656 175.617188 21.722656 L 171.058594 21.722656 L 171.058594 17.449219 L 176.207031 17.449219 C 176.539062 17.449219 176.773438 17.164062 176.773438 16.859375 M 163.671875 30.597656 L 163.671875 15.773438 C 163.671875 15.488281 163.386719 15.230469 163.078125 15.230469 L 161.878906 15.230469 C 161.570312 15.230469 161.308594 15.488281 161.308594 15.773438 L 161.335938 24.957031 C 161.335938 26.066406 161.449219 27.527344 161.570312 28.757812 C 161.238281 27.601562 160.957031 26.441406 160.53125 25.40625 L 156.539062 15.652344 C 156.421875 15.394531 156.09375 15.230469 155.785156 15.230469 L 153.566406 15.230469 C 153.257812 15.230469 153 15.464844 153 15.773438 L 153 30.597656 C 153 30.882812 153.257812 31.140625 153.566406 31.140625 L 154.816406 31.140625 C 155.125 31.140625 155.382812 30.882812 155.382812 30.597656 L 155.359375 21.25 C 155.359375 20.375 155.148438 18.488281 155.03125 17.28125 C 155.339844 18.488281 155.644531 19.808594 156.066406 20.800781 L 160.222656 30.691406 C 160.34375 30.976562 160.554688 31.140625 160.859375 31.140625 L 163.078125 31.140625 C 163.386719 31.140625 163.671875 30.882812 163.671875 30.597656 M 148.136719 30.574219 L 148.136719 15.792969 C 148.136719 15.488281 147.878906 15.230469 147.570312 15.230469 L 146.105469 15.230469 C 145.800781 15.230469 145.539062 15.488281 145.539062 15.792969 L 145.539062 30.574219 C 145.539062 30.882812 145.800781 31.140625 146.105469 31.140625 L 147.570312 31.140625 C 147.878906 31.140625 148.136719 30.882812 148.136719 30.574219 "/>
<path style=" stroke:none;fill-rule:nonzero;fill:rgb(13.729858%,12.159729%,12.548828%);fill-opacity:1;" d="M 266.734375 33.421875 L 264.507812 29.847656 L 266.527344 27.019531 C 266.609375 26.898438 266.601562 26.730469 266.394531 26.730469 L 265.605469 26.730469 C 265.449219 26.730469 265.355469 26.773438 265.273438 26.898438 L 263.453125 29.660156 L 263.453125 26.980469 C 263.453125 26.84375 263.339844 26.730469 263.203125 26.730469 L 262.605469 26.730469 C 262.46875 26.730469 262.355469 26.84375 262.355469 26.980469 L 262.355469 33.472656 C 262.355469 33.597656 262.46875 33.710938 262.605469 33.710938 L 263.203125 33.710938 C 263.339844 33.710938 263.453125 33.597656 263.453125 33.472656 L 263.453125 30.085938 L 265.410156 33.523438 C 265.492188 33.667969 265.605469 33.710938 265.761719 33.710938 L 266.601562 33.710938 C 266.777344 33.710938 266.839844 33.585938 266.734375 33.421875 M 259.714844 33.460938 L 259.714844 26.980469 C 259.714844 26.84375 259.601562 26.730469 259.46875 26.730469 L 258.824219 26.730469 C 258.691406 26.730469 258.578125 26.84375 258.578125 26.980469 L 258.578125 33.460938 C 258.578125 33.597656 258.691406 33.710938 258.824219 33.710938 L 259.46875 33.710938 C 259.601562 33.710938 259.714844 33.597656 259.714844 33.460938 M 256.574219 27.484375 L 256.574219 26.980469 C 256.574219 26.84375 256.472656 26.730469 256.335938 26.730469 L 252.300781 26.730469 C 252.164062 26.730469 252.039062 26.84375 252.039062 26.980469 L 252.039062 27.484375 C 252.039062 27.621094 252.164062 27.722656 252.300781 27.722656 L 253.769531 27.722656 L 253.769531 33.460938 C 253.769531 33.597656 253.882812 33.710938 254.019531 33.710938 L 254.617188 33.710938 C 254.753906 33.710938 254.867188 33.597656 254.867188 33.460938 L 254.867188 27.722656 L 256.335938 27.722656 C 256.472656 27.722656 256.574219 27.621094 256.574219 27.484375 M 249.285156 30.996094 L 247.585938 30.996094 L 248.257812 28.273438 C 248.332031 27.984375 248.382812 27.589844 248.414062 27.300781 C 248.457031 27.582031 248.496094 27.992188 248.570312 28.273438 Z M 251.179688 33.421875 L 249.191406 26.96875 C 249.140625 26.8125 249.015625 26.730469 248.878906 26.730469 L 247.96875 26.730469 C 247.835938 26.730469 247.6875 26.824219 247.648438 26.96875 L 245.796875 33.421875 C 245.753906 33.574219 245.824219 33.710938 245.980469 33.710938 L 246.652344 33.710938 C 246.800781 33.710938 246.921875 33.617188 246.953125 33.484375 L 247.347656 31.945312 L 249.53125 31.945312 L 249.945312 33.484375 C 249.988281 33.617188 250.121094 33.710938 250.269531 33.710938 L 250.992188 33.710938 C 251.148438 33.710938 251.230469 33.574219 251.179688 33.421875 M 243.859375 33.484375 L 243.320312 26.96875 C 243.308594 26.824219 243.1875 26.730469 243.050781 26.730469 L 242.097656 26.730469 C 241.976562 26.730469 241.839844 26.8125 241.808594 26.9375 L 240.824219 31.058594 C 240.753906 31.359375 240.710938 31.90625 240.679688 32.28125 C 240.648438 31.90625 240.609375 31.359375 240.535156 31.058594 L 239.570312 26.9375 C 239.539062 26.824219 239.40625 26.730469 239.28125 26.730469 L 238.308594 26.730469 C 238.175781 26.730469 238.039062 26.835938 238.03125 26.96875 L 237.480469 33.460938 C 237.472656 33.597656 237.5625 33.710938 237.6875 33.710938 L 238.351562 33.710938 C 238.472656 33.710938 238.589844 33.605469 238.597656 33.472656 L 238.824219 28.9375 C 238.835938 28.6875 238.835938 27.777344 238.835938 27.496094 C 238.898438 27.859375 238.972656 28.542969 239.0625 28.9375 L 240.007812 32.746094 C 240.039062 32.890625 240.160156 32.984375 240.296875 32.984375 L 241.03125 32.984375 C 241.167969 32.984375 241.269531 32.890625 241.3125 32.746094 L 242.285156 28.9375 C 242.378906 28.554688 242.453125 27.839844 242.503906 27.496094 C 242.503906 27.808594 242.503906 28.699219 242.515625 28.9375 L 242.71875 33.484375 C 242.730469 33.605469 242.84375 33.710938 242.980469 33.710938 L 243.660156 33.710938 C 243.796875 33.710938 243.867188 33.605469 243.859375 33.484375 M 233.921875 28.644531 C 233.921875 29.300781 233.496094 29.734375 232.78125 29.734375 L 231.953125 29.734375 L 231.953125 27.691406 L 232.898438 27.691406 C 233.589844 27.691406 233.921875 28.148438 233.921875 28.644531 M 235.496094 33.390625 C 235.195312 32.5625 234.792969 31.554688 234.628906 31.203125 C 234.410156 30.746094 234.015625 30.3125 233.519531 30.210938 C 233.527344 30.210938 233.570312 30.210938 233.601562 30.199219 C 234.585938 30.042969 235.039062 29.320312 235.039062 28.5 C 235.039062 27.808594 234.679688 26.730469 232.929688 26.730469 L 231.105469 26.730469 C 230.972656 26.730469 230.859375 26.84375 230.859375 26.980469 L 230.859375 33.472656 C 230.859375 33.597656 230.972656 33.710938 231.105469 33.710938 L 231.707031 33.710938 C 231.839844 33.710938 231.953125 33.597656 231.953125 33.472656 L 231.953125 30.621094 L 232.378906 30.621094 C 233.003906 30.621094 233.3125 31.035156 233.550781 31.492188 C 233.839844 32.042969 234.015625 32.777344 234.253906 33.492188 C 234.304688 33.667969 234.421875 33.710938 234.5625 33.710938 L 235.320312 33.710938 C 235.535156 33.710938 235.566406 33.574219 235.496094 33.390625 M 227.359375 30.21875 C 227.359375 31.835938 227.089844 32.859375 226.066406 32.859375 C 225.089844 32.859375 224.78125 31.972656 224.78125 30.21875 C 224.78125 28.84375 224.914062 27.546875 226.066406 27.546875 C 227.132812 27.546875 227.359375 28.730469 227.359375 30.21875 M 228.496094 30.25 C 228.496094 27.839844 227.671875 26.667969 226.074219 26.667969 C 224.449219 26.667969 223.632812 27.898438 223.632812 30.25 C 223.632812 32.632812 224.460938 33.769531 226.074219 33.769531 C 227.679688 33.769531 228.496094 32.613281 228.496094 30.25 M 221.851562 27.445312 L 221.851562 26.980469 C 221.851562 26.84375 221.738281 26.730469 221.605469 26.730469 L 218.496094 26.730469 C 218.363281 26.730469 218.25 26.84375 218.25 26.980469 L 218.25 33.460938 C 218.25 33.554688 218.3125 33.648438 218.394531 33.65625 C 218.414062 33.6875 218.675781 33.710938 218.714844 33.710938 C 218.757812 33.71875 219.171875 33.6875 219.191406 33.65625 C 219.273438 33.636719 219.347656 33.554688 219.347656 33.460938 L 219.347656 30.511719 L 221.34375 30.511719 C 221.480469 30.511719 221.605469 30.394531 221.605469 30.25 L 221.605469 29.824219 C 221.605469 29.691406 221.480469 29.578125 221.34375 29.578125 L 219.347656 29.578125 L 219.347656 27.703125 L 221.605469 27.703125 C 221.75 27.703125 221.851562 27.578125 221.851562 27.445312 M 215.59375 33.472656 L 215.59375 26.96875 C 215.59375 26.84375 215.46875 26.730469 215.335938 26.730469 L 214.808594 26.730469 C 214.671875 26.730469 214.558594 26.84375 214.558594 26.96875 L 214.570312 30.996094 C 214.570312 31.484375 214.621094 32.125 214.671875 32.664062 C 214.527344 32.15625 214.402344 31.648438 214.21875 31.191406 L 212.46875 26.917969 C 212.414062 26.804688 212.269531 26.730469 212.136719 26.730469 L 211.164062 26.730469 C 211.027344 26.730469 210.914062 26.835938 210.914062 26.96875 L 210.914062 33.472656 C 210.914062 33.597656 211.027344 33.710938 211.164062 33.710938 L 211.710938 33.710938 C 211.84375 33.710938 211.960938 33.597656 211.960938 33.472656 L 211.949219 29.371094 C 211.949219 28.988281 211.855469 28.160156 211.804688 27.632812 C 211.9375 28.160156 212.074219 28.738281 212.261719 29.175781 L 214.085938 33.515625 C 214.136719 33.636719 214.226562 33.710938 214.363281 33.710938 L 215.335938 33.710938 C 215.46875 33.710938 215.59375 33.597656 215.59375 33.472656 M 208.273438 33.460938 L 208.273438 26.980469 C 208.273438 26.84375 208.160156 26.730469 208.027344 26.730469 L 207.382812 26.730469 C 207.25 26.730469 207.136719 26.84375 207.136719 26.980469 L 207.136719 33.460938 C 207.136719 33.597656 207.25 33.710938 207.382812 33.710938 L 208.027344 33.710938 C 208.160156 33.710938 208.273438 33.597656 208.273438 33.460938 "/>
<g clip-path="url(#clip3)" clip-rule="nonzero">
<path style=" stroke:none;fill-rule:nonzero;fill:rgb(13.729858%,12.159729%,12.548828%);fill-opacity:1;" d="M 274.363281 17.171875 C 274.363281 17.824219 273.9375 18.261719 273.222656 18.261719 L 272.394531 18.261719 L 272.394531 16.21875 L 273.339844 16.21875 C 274.03125 16.21875 274.363281 16.675781 274.363281 17.171875 M 275.9375 21.914062 C 275.636719 21.085938 275.234375 20.082031 275.066406 19.730469 C 274.851562 19.273438 274.457031 18.839844 273.960938 18.734375 C 273.96875 18.734375 274.011719 18.734375 274.042969 18.726562 C 275.027344 18.570312 275.480469 17.847656 275.480469 17.027344 C 275.480469 16.332031 275.121094 15.257812 273.371094 15.257812 L 271.546875 15.257812 C 271.414062 15.257812 271.300781 15.371094 271.300781 15.507812 L 271.300781 21.996094 C 271.300781 22.121094 271.414062 22.234375 271.546875 22.234375 L 272.148438 22.234375 C 272.28125 22.234375 272.394531 22.121094 272.394531 21.996094 L 272.394531 19.148438 L 272.820312 19.148438 C 273.441406 19.148438 273.753906 19.5625 273.992188 20.019531 C 274.28125 20.566406 274.457031 21.304688 274.695312 22.019531 C 274.746094 22.191406 274.859375 22.234375 275.007812 22.234375 L 275.761719 22.234375 C 275.976562 22.234375 276.011719 22.101562 275.9375 21.914062 M 268.675781 20.070312 L 268.675781 15.503906 C 268.675781 15.347656 268.570312 15.257812 268.425781 15.257812 L 267.835938 15.257812 C 267.679688 15.257812 267.574219 15.339844 267.574219 15.503906 L 267.574219 20.019531 C 267.574219 21.074219 267.140625 21.386719 266.375 21.386719 C 265.523438 21.386719 265.226562 20.867188 265.226562 19.957031 L 265.226562 15.503906 C 265.226562 15.339844 265.132812 15.257812 264.976562 15.257812 L 264.378906 15.257812 C 264.230469 15.257812 264.140625 15.347656 264.140625 15.503906 L 264.140625 20.070312 C 264.140625 21.480469 264.863281 22.296875 266.394531 22.296875 C 267.886719 22.296875 268.675781 21.511719 268.675781 20.070312 M 265.980469 14.085938 C 265.980469 13.742188 265.699219 13.484375 265.359375 13.484375 C 265.039062 13.484375 264.769531 13.742188 264.769531 14.085938 C 264.769531 14.429688 265.039062 14.707031 265.371094 14.707031 C 265.710938 14.707031 265.980469 14.429688 265.980469 14.085938 M 268.09375 14.085938 C 268.09375 13.742188 267.8125 13.484375 267.472656 13.484375 C 267.152344 13.484375 266.882812 13.742188 266.882812 14.085938 C 266.882812 14.429688 267.152344 14.707031 267.484375 14.707031 C 267.824219 14.707031 268.09375 14.429688 268.09375 14.085938 M 262.054688 15.972656 L 262.054688 15.507812 C 262.054688 15.371094 261.9375 15.257812 261.804688 15.257812 L 258.699219 15.257812 C 258.5625 15.257812 258.449219 15.371094 258.449219 15.507812 L 258.449219 21.988281 C 258.449219 22.078125 258.511719 22.175781 258.59375 22.183594 C 258.613281 22.214844 258.875 22.234375 258.914062 22.234375 C 258.957031 22.246094 259.371094 22.214844 259.390625 22.183594 C 259.472656 22.160156 259.546875 22.078125 259.546875 21.988281 L 259.546875 19.035156 L 261.546875 19.035156 C 261.679688 19.035156 261.804688 18.921875 261.804688 18.777344 L 261.804688 18.351562 C 261.804688 18.21875 261.679688 18.105469 261.546875 18.105469 L 259.546875 18.105469 L 259.546875 16.230469 L 261.804688 16.230469 C 261.949219 16.230469 262.054688 16.105469 262.054688 15.972656 M 253.4375 16.011719 L 253.4375 15.507812 C 253.4375 15.371094 253.335938 15.257812 253.199219 15.257812 L 249.160156 15.257812 C 249.027344 15.257812 248.902344 15.371094 248.902344 15.507812 L 248.902344 16.011719 C 248.902344 16.148438 249.027344 16.25 249.160156 16.25 L 250.632812 16.25 L 250.632812 21.988281 C 250.632812 22.121094 250.746094 22.234375 250.882812 22.234375 L 251.480469 22.234375 C 251.613281 22.234375 251.726562 22.121094 251.726562 21.988281 L 251.726562 16.25 L 253.199219 16.25 C 253.335938 16.25 253.4375 16.148438 253.4375 16.011719 M 246.144531 19.523438 L 244.445312 19.523438 L 245.121094 16.800781 C 245.191406 16.511719 245.246094 16.113281 245.273438 15.824219 C 245.316406 16.105469 245.359375 16.519531 245.429688 16.800781 Z M 248.039062 21.945312 L 246.054688 15.492188 C 246.003906 15.339844 245.878906 15.257812 245.742188 15.257812 L 244.832031 15.257812 C 244.695312 15.257812 244.550781 15.351562 244.511719 15.492188 L 242.65625 21.945312 C 242.613281 22.101562 242.6875 22.234375 242.84375 22.234375 L 243.515625 22.234375 C 243.660156 22.234375 243.785156 22.144531 243.816406 22.007812 L 244.210938 20.472656 L 246.394531 20.472656 L 246.808594 22.007812 C 246.847656 22.144531 246.984375 22.234375 247.128906 22.234375 L 247.851562 22.234375 C 248.011719 22.234375 248.09375 22.101562 248.039062 21.945312 M 244.859375 14.085938 C 244.859375 13.742188 244.582031 13.484375 244.238281 13.484375 C 243.921875 13.484375 243.648438 13.742188 243.648438 14.085938 C 243.648438 14.429688 243.921875 14.707031 244.25 14.707031 C 244.59375 14.707031 244.859375 14.429688 244.859375 14.085938 M 246.972656 14.085938 C 246.972656 13.742188 246.695312 13.484375 246.351562 13.484375 C 246.03125 13.484375 245.761719 13.742188 245.761719 14.085938 C 245.761719 14.429688 246.03125 14.707031 246.363281 14.707031 C 246.703125 14.707031 246.972656 14.429688 246.972656 14.085938 M 241.824219 16.011719 L 241.824219 15.507812 C 241.824219 15.371094 241.71875 15.257812 241.585938 15.257812 L 237.546875 15.257812 C 237.414062 15.257812 237.289062 15.371094 237.289062 15.507812 L 237.289062 16.011719 C 237.289062 16.148438 237.414062 16.25 237.546875 16.25 L 239.019531 16.25 L 239.019531 21.988281 C 239.019531 22.121094 239.132812 22.234375 239.265625 22.234375 L 239.867188 22.234375 C 240 22.234375 240.113281 22.121094 240.113281 21.988281 L 240.113281 16.25 L 241.585938 16.25 C 241.71875 16.25 241.824219 16.148438 241.824219 16.011719 M 236.476562 21.984375 L 236.476562 21.488281 C 236.476562 21.367188 236.363281 21.242188 236.230469 21.242188 L 234.035156 21.242188 L 234.035156 15.507812 C 234.035156 15.371094 233.921875 15.257812 233.785156 15.257812 L 233.1875 15.257812 C 233.054688 15.257812 232.9375 15.371094 232.9375 15.507812 L 232.9375 21.984375 C 232.9375 22.121094 233.054688 22.234375 233.1875 22.234375 L 236.230469 22.234375 C 236.363281 22.234375 236.476562 22.121094 236.476562 21.984375 M 230.3125 20.070312 L 230.3125 15.507812 C 230.3125 15.351562 230.210938 15.257812 230.0625 15.257812 L 229.472656 15.257812 C 229.320312 15.257812 229.21875 15.339844 229.21875 15.507812 L 229.21875 20.019531 C 229.21875 21.074219 228.78125 21.386719 228.015625 21.386719 C 227.164062 21.386719 226.863281 20.867188 226.863281 19.957031 L 226.863281 15.507812 C 226.863281 15.339844 226.769531 15.257812 226.617188 15.257812 L 226.015625 15.257812 C 225.871094 15.257812 225.777344 15.351562 225.777344 15.507812 L 225.777344 20.070312 C 225.777344 21.480469 226.503906 22.296875 228.035156 22.296875 C 229.527344 22.296875 230.3125 21.511719 230.3125 20.070312 M 223.824219 21.945312 L 221.597656 18.371094 L 223.621094 15.546875 C 223.699219 15.421875 223.691406 15.257812 223.484375 15.257812 L 222.695312 15.257812 C 222.542969 15.257812 222.449219 15.300781 222.367188 15.421875 L 220.542969 18.1875 L 220.542969 15.507812 C 220.542969 15.371094 220.429688 15.257812 220.296875 15.257812 L 219.695312 15.257812 C 219.5625 15.257812 219.445312 15.371094 219.445312 15.507812 L 219.445312 21.996094 C 219.445312 22.121094 219.5625 22.234375 219.695312 22.234375 L 220.296875 22.234375 C 220.429688 22.234375 220.542969 22.121094 220.542969 21.996094 L 220.542969 18.609375 L 222.5 22.050781 C 222.585938 22.191406 222.695312 22.234375 222.851562 22.234375 L 223.691406 22.234375 C 223.867188 22.234375 223.929688 22.109375 223.824219 21.945312 M 215.449219 19.523438 L 213.753906 19.523438 L 214.425781 16.800781 C 214.5 16.511719 214.550781 16.117188 214.582031 15.824219 C 214.621094 16.105469 214.664062 16.519531 214.734375 16.800781 Z M 217.34375 21.945312 L 215.355469 15.496094 C 215.304688 15.339844 215.179688 15.257812 215.046875 15.257812 L 214.136719 15.257812 C 214.003906 15.257812 213.855469 15.351562 213.8125 15.496094 L 211.960938 21.945312 C 211.921875 22.101562 211.992188 22.234375 212.148438 22.234375 L 212.820312 22.234375 C 212.964844 22.234375 213.089844 22.144531 213.121094 22.007812 L 213.515625 20.472656 L 215.699219 20.472656 L 216.113281 22.007812 C 216.152344 22.144531 216.289062 22.234375 216.433594 22.234375 L 217.160156 22.234375 C 217.3125 22.234375 217.398438 22.101562 217.34375 21.945312 M 210.761719 15.972656 L 210.761719 15.507812 C 210.761719 15.371094 210.644531 15.257812 210.511719 15.257812 L 207.40625 15.257812 C 207.269531 15.257812 207.15625 15.371094 207.15625 15.507812 L 207.15625 21.988281 C 207.15625 22.078125 207.21875 22.175781 207.304688 22.183594 C 207.320312 22.214844 207.582031 22.234375 207.621094 22.234375 C 207.664062 22.246094 208.078125 22.214844 208.097656 22.183594 C 208.179688 22.160156 208.253906 22.078125 208.253906 21.988281 L 208.253906 19.035156 L 210.253906 19.035156 C 210.386719 19.035156 210.511719 18.921875 210.511719 18.777344 L 210.511719 18.351562 C 210.511719 18.21875 210.386719 18.105469 210.253906 18.105469 L 208.253906 18.105469 L 208.253906 16.230469 L 210.511719 16.230469 C 210.65625 16.230469 210.761719 16.105469 210.761719 15.972656 "/>
</g>
</g>
</svg>
