<?xml version="1.0" encoding="UTF-8" standalone="no"?><!DOCTYPE svg PUBLIC "-//W3C//DTD SVG 1.1//EN" "http://www.w3.org/Graphics/SVG/1.1/DTD/svg11.dtd"><svg width="100%" height="100%" viewBox="0 0 417 64" version="1.1" xmlns="http://www.w3.org/2000/svg" xmlns:xlink="http://www.w3.org/1999/xlink" xml:space="preserve" xmlns:serif="http://www.serif.com/" style="fill-rule:evenodd;clip-rule:evenodd;stroke-linejoin:round;stroke-miterlimit:2;"><g transform="matrix(1,0,0,1,-3866.58,-734.177)"><g transform="matrix(1.19796,0,0,0.291698,3303.65,910.179)"><g transform="matrix(8.46924,-1.69857e-14,0,34.7818,-3395.19,20594.9)"><path d="M458.284,-609.084c0.243,-0.244 0.573,-0.38 0.917,-0.38c0.344,-0 0.674,0.136 0.917,0.38l-0.917,0.917l-0.917,-0.917Zm0.512,2.155c0.164,-0 0.298,0.133 0.298,0.298c-0,0.164 -0.134,0.298 -0.298,0.298c-0.164,-0 -0.298,-0.134 -0.298,-0.298c0,-0.165 0.134,-0.298 0.298,-0.298Zm0.81,-0c0.165,-0 0.298,0.133 0.298,0.298c-0,0.164 -0.133,0.298 -0.298,0.298c-0.164,-0 -0.298,-0.134 -0.298,-0.298c0,-0.165 0.134,-0.298 0.298,-0.298Zm-2.408,2.301c-0.531,-0.531 -0.83,-1.252 -0.83,-2.003c0,-0.752 0.299,-1.472 0.83,-2.003l1.079,1.079c-0.245,0.245 -0.383,0.577 -0.383,0.924c0,0.346 0.138,0.679 0.383,0.924c0,-0 -1.027,1.027 -1.079,1.079Zm4.006,-0l-1.079,-1.079c0.245,-0.245 0.383,-0.578 0.383,-0.924c-0,-0.347 -0.138,-0.679 -0.383,-0.924l1.079,-1.079c0.171,0.17 0.317,0.36 0.437,0.564c0.25,0.422 0.393,0.914 0.393,1.439c-0,0.525 -0.143,1.017 -0.393,1.439c-0.12,0.204 -0.267,0.393 -0.437,0.564Zm2.451,-3.215c-0,-0.508 -0.104,-0.539 -0.533,-0.557c-0.037,-0.037 -0.037,-0.166 0,-0.202c0.245,0.006 0.563,0.012 0.79,0.012c0.245,-0 0.606,-0.043 0.839,-0.043c1.133,0 1.372,0.655 1.372,1.017c-0,0.52 -0.337,1.249 -1.452,1.249c-0.214,-0 -0.361,-0.019 -0.496,-0.061l0,1.041c0,0.508 0.147,0.532 0.625,0.557c0.037,0.037 0.037,0.165 -0,0.202c-0.306,-0.006 -0.667,-0.012 -0.882,-0.012c-0.22,-0 -0.52,0.006 -0.796,0.012c-0.037,-0.037 -0.037,-0.165 0,-0.202c0.429,-0.019 0.533,-0.049 0.533,-0.557l-0,-2.456Zm0.52,-0.19l0,1.427c0.068,0.018 0.313,0.031 0.466,0.031c0.594,-0 0.912,-0.27 0.912,-0.931c0,-0.778 -0.422,-0.919 -0.845,-0.919c-0.441,0 -0.533,0.215 -0.533,0.392Zm3.264,2.646c0,0.508 0.068,0.532 0.441,0.557c0.037,0.037 0.037,0.165 0,0.202c-0.202,-0.006 -0.435,-0.012 -0.68,-0.012c-0.244,-0 -0.483,0.006 -0.685,0.012c-0.037,-0.037 -0.037,-0.165 -0,-0.202c0.373,-0.031 0.441,-0.049 0.441,-0.557l-0,-1.195c-0,-0.349 -0.062,-0.385 -0.399,-0.416c-0.012,-0.037 -0.024,-0.135 -0.012,-0.171c0.423,-0.056 0.668,-0.111 0.839,-0.178c0.049,-0 0.08,0.018 0.08,0.043c-0,-0 -0.025,0.392 -0.025,0.698l0,1.219Zm-0.557,-2.921c0,-0.147 0.171,-0.294 0.318,-0.294c0.166,-0 0.294,0.171 0.294,0.318c0,0.129 -0.147,0.294 -0.318,0.294c-0.147,-0 -0.294,-0.159 -0.294,-0.318Zm3.827,1.298c-0.067,-0 -0.147,-0.061 -0.171,-0.11c-0.037,-0.056 -0.08,-0.074 -0.123,-0.074c-0.079,0 -0.202,0.086 -0.245,0.147c0.178,0.184 0.264,0.349 0.264,0.637c-0,0.6 -0.496,0.937 -1.035,0.937c-0.239,-0 -0.41,-0.043 -0.557,-0.129c-0.074,0.104 -0.111,0.233 -0.111,0.355c0,0.264 0.215,0.349 0.392,0.349c0.031,0 0.092,-0.006 0.184,-0.012c0.147,-0.018 0.3,-0.03 0.41,-0.03c0.227,-0 0.656,0.006 0.894,0.202c0.178,0.147 0.27,0.3 0.27,0.496c-0,0.661 -0.894,1.059 -1.721,1.059c-0.471,0 -0.974,-0.165 -0.974,-0.698c0,-0.263 0.172,-0.545 0.503,-0.741c-0.16,-0.08 -0.282,-0.251 -0.282,-0.472c-0,-0.208 0.098,-0.471 0.269,-0.618c-0.171,-0.165 -0.318,-0.355 -0.318,-0.686c-0,-0.563 0.502,-0.931 1.047,-0.931c0.361,0 0.563,0.123 0.637,0.172c0.159,-0.208 0.453,-0.313 0.612,-0.313c0.166,0 0.282,0.098 0.282,0.227c-0,0.123 -0.11,0.233 -0.227,0.233Zm-0.765,0.661c-0,-0.508 -0.208,-0.79 -0.594,-0.79c-0.337,0 -0.49,0.221 -0.49,0.649c-0,0.392 0.055,0.827 0.569,0.827c0.227,-0 0.515,-0.116 0.515,-0.686Zm-1.145,1.77c-0.178,0.214 -0.19,0.367 -0.19,0.575c-0,0.417 0.514,0.594 0.735,0.594c0.551,0 1.2,-0.232 1.2,-0.673c-0,-0.159 -0.074,-0.245 -0.312,-0.38c-0.178,-0.098 -0.435,-0.104 -0.741,-0.104c-0.086,0 -0.257,0.018 -0.447,0.018c-0.08,0 -0.178,-0.012 -0.245,-0.03Zm3.294,-2.254c0.006,0.074 0.043,0.031 0.074,0c0.257,-0.287 0.575,-0.496 0.931,-0.496c0.318,0 0.557,0.196 0.612,0.447c0.012,0.055 0.049,0.025 0.067,0.006c0.319,-0.336 0.698,-0.453 1.011,-0.453c0.539,0 0.63,0.429 0.63,0.974l0,0.968c0,0.502 0.055,0.532 0.392,0.557c0.031,0.037 0.031,0.165 0,0.202c-0.171,-0.006 -0.386,-0.012 -0.63,-0.012c-0.245,-0 -0.472,0.006 -0.625,0.012c-0.031,-0.037 -0.031,-0.165 -0,-0.202c0.318,-0.025 0.38,-0.055 0.38,-0.557l-0,-1.078c-0,-0.411 -0.135,-0.545 -0.368,-0.545c-0.239,-0 -0.514,0.079 -0.808,0.404c0.006,0.073 0.006,0.159 0.006,0.245l-0,0.974c-0,0.502 0.055,0.532 0.361,0.557c0.031,0.037 0.031,0.165 0,0.202c-0.153,-0.006 -0.355,-0.012 -0.6,-0.012c-0.245,-0 -0.471,0.006 -0.624,0.012c-0.031,-0.037 -0.031,-0.165 -0,-0.202c0.33,-0.025 0.379,-0.055 0.379,-0.557l0,-1.066c0,-0.41 -0.171,-0.557 -0.404,-0.557c-0.19,-0 -0.416,0.122 -0.661,0.361c-0.049,0.055 -0.104,0.129 -0.104,0.257l-0,1.005c-0,0.502 0.067,0.526 0.379,0.557c0.037,0.037 0.037,0.165 0,0.202c-0.183,-0.006 -0.373,-0.012 -0.618,-0.012c-0.245,-0 -0.478,0.006 -0.662,0.012c-0.036,-0.037 -0.036,-0.165 0,-0.202c0.337,-0.025 0.417,-0.055 0.417,-0.557l-0,-1.195c-0,-0.355 -0.068,-0.385 -0.398,-0.416c-0.012,-0.037 -0.025,-0.135 -0.012,-0.171c0.422,-0.056 0.581,-0.111 0.753,-0.178c0.049,-0 0.061,0.018 0.073,0.049c0.031,0.061 0.043,0.282 0.049,0.465Zm6.161,1.623c0.073,0.006 0.11,0.037 0.128,0.098c-0.245,0.319 -0.575,0.533 -1.041,0.533c-0.441,-0 -0.729,-0.147 -0.937,-0.392c-0.202,-0.233 -0.288,-0.563 -0.288,-0.906c0,-0.931 0.692,-1.439 1.225,-1.439c0.851,-0 1.035,0.551 1.035,1.065c0,0.067 -0.043,0.104 -0.116,0.104l-1.629,-0.012c-0,0.355 0.073,0.637 0.196,0.839c0.19,0.312 0.447,0.441 0.667,0.441c0.355,-0 0.533,-0.098 0.76,-0.331Zm-1.605,-1.157l1.109,-0.019c0.067,0 0.091,-0.03 0.091,-0.085c0,-0.515 -0.275,-0.643 -0.508,-0.643c-0.147,-0 -0.575,0.055 -0.692,0.747Zm3.105,-0.466c0.361,-0.416 0.704,-0.496 1.004,-0.496c0.215,0 0.404,0.074 0.508,0.209c0.141,0.189 0.166,0.483 0.166,0.82l-0,0.913c-0,0.502 0.067,0.526 0.41,0.557c0.031,0.037 0.031,0.165 0,0.202c-0.184,-0.006 -0.404,-0.012 -0.649,-0.012c-0.245,-0 -0.441,0.006 -0.625,0.012c-0.03,-0.037 -0.03,-0.165 0,-0.202c0.319,-0.031 0.38,-0.055 0.38,-0.557l0,-0.931c0,-0.184 -0.012,-0.349 -0.073,-0.472c-0.074,-0.141 -0.203,-0.22 -0.325,-0.22c-0.239,-0 -0.514,0.134 -0.747,0.361c-0.049,0.055 -0.104,0.129 -0.104,0.257l-0,1.005c-0,0.502 0.061,0.526 0.373,0.557c0.037,0.037 0.037,0.165 0,0.202c-0.183,-0.006 -0.367,-0.012 -0.612,-0.012c-0.245,-0 -0.49,0.006 -0.674,0.012c-0.036,-0.037 -0.036,-0.165 0,-0.202c0.368,-0.031 0.429,-0.055 0.429,-0.557l0,-1.195c0,-0.355 -0.067,-0.385 -0.398,-0.416c-0.012,-0.037 -0.025,-0.135 -0.012,-0.171c0.422,-0.056 0.581,-0.111 0.753,-0.178c0.049,-0 0.061,0.018 0.073,0.049c0.031,0.061 0.043,0.3 0.049,0.465c0,0.055 0.037,0.043 0.074,0Zm2.455,-0.434l0.282,-0c0,-0.68 -0.018,-0.637 -0.018,-0.711c-0,-0.043 0.061,-0.061 0.135,-0.085c0.079,-0.019 0.14,-0.049 0.208,-0.086c0.055,-0.031 0.11,-0.055 0.134,-0.055c0.031,-0 0.049,0.018 0.049,0.055c0,-0 -0.024,0.245 -0.024,0.643l-0,0.239l0.735,-0c0.03,-0 0.049,0.012 0.049,0.036l-0,0.123c-0,0.055 -0.086,0.079 -0.147,0.079l-0.637,0l-0,1.55c-0,0.379 0.037,0.563 0.202,0.563c0.159,0 0.343,-0.049 0.502,-0.171c0.061,0.006 0.098,0.042 0.11,0.104c-0.238,0.269 -0.545,0.404 -0.826,0.404c-0.282,-0 -0.472,-0.172 -0.472,-0.606l0,-1.844l-0.361,0c-0.025,0 -0.031,-0.006 -0.031,-0.036l0,-0.08c0,-0.049 0.025,-0.122 0.11,-0.122Zm2.628,0.373c0.006,0.061 0.03,0.061 0.067,0.025c0.245,-0.276 0.557,-0.46 0.839,-0.46c0.624,0 1.084,0.6 1.084,1.25c-0,0.496 -0.166,0.875 -0.453,1.157c-0.252,0.239 -0.558,0.343 -0.901,0.343c-0.196,-0 -0.379,-0.037 -0.532,-0.098c-0.062,-0.025 -0.086,-0.031 -0.086,0.049l-0,0.661c-0,0.508 0.067,0.533 0.502,0.557c0.037,0.037 0.037,0.166 0,0.203c-0.202,-0.007 -0.496,-0.013 -0.741,-0.013c-0.245,0 -0.471,0.006 -0.686,0.013c-0.037,-0.037 -0.037,-0.166 0,-0.203c0.374,-0.018 0.441,-0.049 0.441,-0.557l0,-2.615c0,-0.355 -0.067,-0.385 -0.398,-0.416c-0.012,-0.037 -0.024,-0.135 -0.012,-0.171c0.422,-0.056 0.582,-0.111 0.753,-0.178c0.049,-0 0.061,0.018 0.074,0.049c0.03,0.061 0.042,0.22 0.049,0.404Zm0.116,0.227c-0.074,0.085 -0.098,0.141 -0.098,0.269l-0,1.115c-0,0.22 0.024,0.257 0.147,0.367c0.11,0.098 0.324,0.129 0.435,0.129c0.685,-0 0.863,-0.625 0.863,-1.127c0,-0.692 -0.337,-1.133 -0.729,-1.133c-0.177,0 -0.459,0.184 -0.618,0.38Zm4.513,1.457c0.073,0.006 0.11,0.037 0.129,0.098c-0.245,0.319 -0.576,0.533 -1.041,0.533c-0.441,-0 -0.729,-0.147 -0.937,-0.392c-0.202,-0.233 -0.288,-0.563 -0.288,-0.906c-0,-0.931 0.692,-1.439 1.225,-1.439c0.851,-0 1.034,0.551 1.034,1.065c0,0.067 -0.042,0.104 -0.116,0.104l-1.629,-0.012c0,0.355 0.074,0.637 0.196,0.839c0.19,0.312 0.447,0.441 0.668,0.441c0.355,-0 0.532,-0.098 0.759,-0.331Zm-1.604,-1.157l1.108,-0.019c0.067,0 0.092,-0.03 0.092,-0.085c-0,-0.515 -0.276,-0.643 -0.508,-0.643c-0.147,-0 -0.576,0.055 -0.692,0.747Zm4.066,1.42c-0.3,0.245 -0.527,0.368 -0.766,0.368c-0.661,-0 -1.041,-0.551 -1.041,-1.304c0,-0.454 0.159,-0.815 0.423,-1.078c0.245,-0.233 0.514,-0.368 0.918,-0.368c0.202,0 0.453,0.104 0.478,0.104c0.043,0 0.055,-0.012 0.055,-0.055l0,-0.783c0,-0.484 -0.067,-0.484 -0.337,-0.503l-0.055,0c-0.037,-0.036 -0.049,-0.134 -0.037,-0.183c0.245,-0.019 0.705,-0.104 0.858,-0.166c0.055,0 0.079,0.019 0.079,0.062c0,-0 -0.024,0.244 -0.024,0.643l-0,2.774c-0,0.3 0.055,0.416 0.447,0.447c0.037,0.036 0.037,0.128 -0,0.165c-0.374,0.043 -0.588,0.135 -0.723,0.245c-0.036,0.012 -0.067,0.018 -0.116,-0c-0,-0 -0.049,-0.214 -0.067,-0.361c-0.007,-0.043 -0.062,-0.031 -0.092,-0.007Zm0.067,-0.453l0,-1.163c0,-0.19 -0.018,-0.233 -0.104,-0.331c-0.123,-0.141 -0.276,-0.22 -0.496,-0.22c-0.123,-0 -0.38,0.018 -0.57,0.306c-0.091,0.128 -0.177,0.373 -0.177,0.814c-0,0.766 0.343,1.127 0.673,1.127c0.154,0 0.349,-0.098 0.576,-0.294c0.086,-0.073 0.098,-0.122 0.098,-0.239Zm2.094,0.013c0,0.508 0.068,0.532 0.441,0.557c0.037,0.037 0.037,0.165 0,0.202c-0.202,-0.006 -0.435,-0.012 -0.679,-0.012c-0.245,-0 -0.484,0.006 -0.686,0.012c-0.037,-0.037 -0.037,-0.165 -0,-0.202c0.373,-0.031 0.441,-0.049 0.441,-0.557l-0,-1.195c-0,-0.349 -0.062,-0.385 -0.398,-0.416c-0.013,-0.037 -0.025,-0.135 -0.013,-0.171c0.423,-0.056 0.668,-0.111 0.839,-0.178c0.049,-0 0.08,0.018 0.08,0.043c-0,-0 -0.025,0.392 -0.025,0.698l0,1.219Zm-0.557,-2.921c0,-0.147 0.172,-0.294 0.319,-0.294c0.165,-0 0.293,0.171 0.293,0.318c0,0.129 -0.147,0.294 -0.318,0.294c-0.147,-0 -0.294,-0.159 -0.294,-0.318Zm2.903,3.374l-0.013,-0l-0.122,0.098c-0.269,0.208 -0.453,0.257 -0.668,0.257c-0.428,-0 -0.771,-0.159 -0.771,-0.662c-0,-0.416 0.422,-0.74 1.01,-0.887l0.527,-0.129c0.018,-0.006 0.037,-0.031 0.037,-0.074c-0,-0.691 -0.288,-0.796 -0.496,-0.796c-0.233,0 -0.49,0.068 -0.49,0.258c-0,0.067 0.006,0.104 0.012,0.122c0.012,0.025 0.018,0.067 0.018,0.11c0,0.08 -0.11,0.209 -0.287,0.209c-0.141,-0 -0.215,-0.074 -0.215,-0.221c0,-0.349 0.509,-0.68 1.011,-0.68c0.447,0 0.924,0.166 0.924,1.035l0,0.9c0,0.282 0.006,0.521 0.184,0.521c0.08,-0 0.184,-0.061 0.227,-0.098c0.067,0.037 0.091,0.092 0.104,0.165c-0.129,0.123 -0.349,0.227 -0.582,0.227c-0.306,-0 -0.374,-0.165 -0.41,-0.355Zm-0,-1.133l-0.484,0.128c-0.453,0.117 -0.582,0.398 -0.582,0.674c0,0.19 0.135,0.435 0.441,0.435c0.172,-0 0.38,-0.141 0.539,-0.27c0.049,-0.036 0.086,-0.079 0.086,-0.159l-0,-0.808Zm-28.188,-1.855l0.027,-0.219l-0.088,0l0,-0.11l0.102,0l0.015,-0.128l-0.093,-0l-0,-0.11l0.107,-0l0.024,-0.193l0.098,-0l-0.023,0.193l0.122,-0l0.024,-0.193l0.098,-0l-0.023,0.193l0.092,-0l0,0.11l-0.105,-0l-0.017,0.128l0.099,0l-0,0.11l-0.111,0l-0.027,0.219l-0.1,0l0.027,-0.219l-0.121,0l-0.027,0.219l-0.1,0Zm0.139,-0.329l0.123,0l0.015,-0.128l-0.121,-0l-0.017,0.128Zm0.543,0.329l0,-0.763l0.507,0l-0,0.146l-0.335,-0l0,0.176l0.285,0l0,0.145l-0.285,0l0,0.296l-0.172,0Zm0.91,0.014c-0.064,0 -0.118,-0.01 -0.164,-0.03c-0.045,-0.021 -0.083,-0.045 -0.113,-0.074l0.077,-0.109c0.025,0.021 0.052,0.038 0.08,0.052c0.029,0.015 0.061,0.022 0.096,0.022c0.042,-0 0.076,-0.01 0.103,-0.029c0.027,-0.02 0.04,-0.049 0.04,-0.087c0,-0.037 -0.012,-0.066 -0.038,-0.085c-0.026,-0.02 -0.058,-0.029 -0.097,-0.029c-0.024,-0 -0.045,0.002 -0.062,0.008c-0.017,0.005 -0.038,0.015 -0.063,0.029l-0.076,-0.049l0.019,-0.376l0.455,0l0,0.145l-0.306,0l-0.013,0.14c0.031,-0.012 0.064,-0.018 0.098,-0.018c0.046,0 0.089,0.008 0.127,0.025c0.039,0.016 0.07,0.041 0.093,0.075c0.024,0.034 0.035,0.077 0.035,0.13c0,0.055 -0.013,0.102 -0.041,0.141c-0.027,0.039 -0.062,0.068 -0.107,0.089c-0.044,0.02 -0.091,0.03 -0.143,0.03Zm0.458,-0.014l-0,-0.763l0.256,0c0.053,0 0.1,0.006 0.142,0.017c0.042,0.012 0.076,0.031 0.1,0.058c0.025,0.028 0.037,0.066 0.037,0.115c0,0.033 -0.01,0.066 -0.031,0.099c-0.021,0.032 -0.055,0.054 -0.1,0.066l0,0.005c0.055,0.01 0.096,0.029 0.124,0.059c0.028,0.029 0.042,0.069 0.042,0.12c0,0.052 -0.013,0.094 -0.038,0.127c-0.026,0.033 -0.061,0.057 -0.105,0.073c-0.044,0.016 -0.094,0.024 -0.149,0.024l-0.278,0Zm0.171,-0.456l0.076,-0c0.043,-0 0.073,-0.008 0.092,-0.025c0.018,-0.017 0.028,-0.04 0.028,-0.069c-0,-0.028 -0.01,-0.048 -0.029,-0.06c-0.019,-0.012 -0.049,-0.018 -0.089,-0.018l-0.078,-0l0,0.172Zm0,0.322l0.093,-0c0.092,-0 0.138,-0.035 0.138,-0.103c-0,-0.034 -0.011,-0.058 -0.033,-0.073c-0.023,-0.015 -0.058,-0.022 -0.105,-0.022l-0.093,-0l0,0.198Zm0.53,0.134l0,-0.763l0.257,0c0.053,0 0.1,0.006 0.142,0.017c0.042,0.012 0.076,0.031 0.1,0.058c0.025,0.028 0.037,0.066 0.037,0.115c0,0.033 -0.01,0.066 -0.032,0.099c-0.021,0.032 -0.054,0.054 -0.099,0.066l0,0.005c0.055,0.01 0.096,0.029 0.124,0.059c0.028,0.029 0.042,0.069 0.042,0.12c0,0.052 -0.013,0.094 -0.038,0.127c-0.026,0.033 -0.061,0.057 -0.105,0.073c-0.044,0.016 -0.094,0.024 -0.149,0.024l-0.279,0Zm0.172,-0.134l0.093,-0c0.092,-0 0.138,-0.035 0.138,-0.103c-0,-0.034 -0.011,-0.058 -0.034,-0.073c-0.022,-0.015 -0.057,-0.022 -0.104,-0.022l-0.093,-0l0,0.198Zm0,-0.322l0.076,-0c0.042,-0 0.073,-0.008 0.092,-0.025c0.018,-0.017 0.028,-0.04 0.028,-0.069c-0,-0.028 -0.01,-0.048 -0.029,-0.06c-0.019,-0.012 -0.049,-0.018 -0.09,-0.018l-0.077,-0l0,0.172Zm0.795,0.47c-0.086,0 -0.155,-0.033 -0.208,-0.1c-0.052,-0.067 -0.078,-0.163 -0.078,-0.288c0,-0.127 0.026,-0.222 0.078,-0.286c0.053,-0.065 0.122,-0.097 0.208,-0.097c0.085,0 0.154,0.032 0.207,0.097c0.052,0.064 0.078,0.159 0.078,0.286c-0,0.125 -0.026,0.221 -0.078,0.288c-0.053,0.067 -0.122,0.1 -0.207,0.1Zm-0,-0.133c0.024,-0 0.047,-0.008 0.067,-0.024c0.02,-0.015 0.035,-0.042 0.047,-0.079c0.012,-0.038 0.018,-0.088 0.018,-0.152c-0,-0.065 -0.006,-0.115 -0.018,-0.151c-0.012,-0.036 -0.027,-0.061 -0.047,-0.076c-0.02,-0.015 -0.043,-0.022 -0.067,-0.022c-0.025,-0 -0.047,0.007 -0.067,0.022c-0.02,0.015 -0.036,0.04 -0.048,0.076c-0.012,0.036 -0.018,0.086 -0.018,0.151c0,0.064 0.006,0.114 0.018,0.152c0.012,0.037 0.028,0.064 0.048,0.079c0.02,0.016 0.042,0.024 0.067,0.024Zm-0,-0.169c-0.025,0 -0.045,-0.008 -0.062,-0.024c-0.018,-0.017 -0.026,-0.038 -0.026,-0.065c-0,-0.027 0.008,-0.048 0.026,-0.064c0.017,-0.016 0.037,-0.024 0.062,-0.024c0.024,-0 0.045,0.008 0.062,0.024c0.017,0.016 0.025,0.037 0.025,0.064c0,0.027 -0.008,0.048 -0.025,0.065c-0.017,0.016 -0.038,0.024 -0.062,0.024Zm0.701,0.302c-0.085,0 -0.154,-0.033 -0.207,-0.1c-0.052,-0.067 -0.078,-0.163 -0.078,-0.288c-0,-0.127 0.026,-0.222 0.078,-0.286c0.053,-0.065 0.122,-0.097 0.207,-0.097c0.086,0 0.155,0.032 0.207,0.097c0.053,0.064 0.079,0.159 0.079,0.286c-0,0.125 -0.026,0.221 -0.079,0.288c-0.052,0.067 -0.121,0.1 -0.207,0.1Zm0,-0.133c0.025,-0 0.048,-0.008 0.068,-0.024c0.019,-0.015 0.035,-0.042 0.047,-0.079c0.012,-0.038 0.018,-0.088 0.018,-0.152c-0,-0.065 -0.006,-0.115 -0.018,-0.151c-0.012,-0.036 -0.028,-0.061 -0.047,-0.076c-0.02,-0.015 -0.043,-0.022 -0.068,-0.022c-0.024,-0 -0.046,0.007 -0.066,0.022c-0.021,0.015 -0.037,0.04 -0.048,0.076c-0.012,0.036 -0.018,0.086 -0.018,0.151c0,0.064 0.006,0.114 0.018,0.152c0.011,0.037 0.027,0.064 0.048,0.079c0.02,0.016 0.042,0.024 0.066,0.024Zm0,-0.169c-0.024,0 -0.045,-0.008 -0.062,-0.024c-0.017,-0.017 -0.025,-0.038 -0.025,-0.065c-0,-0.027 0.008,-0.048 0.025,-0.064c0.017,-0.016 0.038,-0.024 0.062,-0.024c0.025,-0 0.046,0.008 0.063,0.024c0.017,0.016 0.025,0.037 0.025,0.064c0,0.027 -0.008,0.048 -0.025,0.065c-0.017,0.016 -0.038,0.024 -0.063,0.024Zm13.473,5.027l0.027,-0.223l-0.089,0l-0,-0.112l0.103,0l0.016,-0.131l-0.096,0l0,-0.112l0.11,0l0.024,-0.196l0.1,-0l-0.024,0.196l0.125,0l0.024,-0.196l0.1,-0l-0.024,0.196l0.094,0l0,0.112l-0.107,0l-0.017,0.131l0.101,0l-0,0.112l-0.114,0l-0.027,0.223l-0.101,0l0.027,-0.223l-0.124,0l-0.027,0.223l-0.101,0Zm0.141,-0.335l0.125,0l0.016,-0.131l-0.124,0l-0.017,0.131Zm0.511,0.335l0,-0.777l0.215,0c0.075,0 0.141,0.014 0.197,0.041c0.056,0.027 0.099,0.069 0.13,0.126c0.031,0.056 0.047,0.129 0.047,0.218c-0,0.089 -0.015,0.163 -0.046,0.22c-0.031,0.058 -0.073,0.102 -0.128,0.13c-0.054,0.028 -0.117,0.042 -0.19,0.042l-0.225,0Zm0.177,-0.142l0.028,0c0.041,0 0.076,-0.008 0.107,-0.024c0.03,-0.015 0.054,-0.042 0.071,-0.078c0.017,-0.037 0.026,-0.086 0.026,-0.148c-0,-0.062 -0.009,-0.11 -0.026,-0.146c-0.017,-0.035 -0.041,-0.06 -0.071,-0.075c-0.031,-0.015 -0.066,-0.022 -0.107,-0.022l-0.028,0l-0,0.493Zm0.58,0.142l-0,-0.777l0.516,0l-0,0.148l-0.341,0l-0,0.18l0.291,-0l-0,0.148l-0.291,-0l-0,0.301l-0.175,0Zm0.996,0l-0,-0.181l-0.365,-0l0,-0.12l0.316,-0.455l0.212,-0l-0,0.442l0.095,-0l0,0.133l-0.095,-0l-0,0.181l-0.163,0Zm-0.196,-0.314l0.196,-0l-0,-0.128c-0,-0.024 0,-0.051 0.002,-0.083c0.002,-0.031 0.003,-0.059 0.004,-0.082l-0.005,-0c-0.013,0.021 -0.026,0.042 -0.041,0.064c-0.014,0.021 -0.028,0.043 -0.041,0.064l-0.115,0.165Zm0.588,0.314l-0,-0.777l0.214,0c0.075,0 0.141,0.014 0.197,0.041c0.056,0.027 0.1,0.069 0.131,0.126c0.031,0.056 0.046,0.129 0.046,0.218c0,0.089 -0.015,0.163 -0.046,0.22c-0.03,0.058 -0.073,0.102 -0.127,0.13c-0.055,0.028 -0.118,0.042 -0.19,0.042l-0.225,0Zm0.176,-0.142l0.028,0c0.041,0 0.076,-0.008 0.107,-0.024c0.031,-0.015 0.054,-0.042 0.072,-0.078c0.017,-0.037 0.025,-0.086 0.025,-0.148c0,-0.062 -0.008,-0.11 -0.025,-0.146c-0.018,-0.035 -0.041,-0.06 -0.072,-0.075c-0.031,-0.015 -0.066,-0.022 -0.107,-0.022l-0.028,0l-0,0.493Zm0.861,0.142l0,-0.181l-0.364,-0l-0,-0.12l0.315,-0.455l0.212,-0l0,0.442l0.096,-0l-0,0.133l-0.096,-0l0,0.181l-0.163,0Zm-0.195,-0.314l0.195,-0l0,-0.128c0,-0.024 0.001,-0.051 0.003,-0.083c0.001,-0.031 0.002,-0.059 0.003,-0.082l-0.005,-0c-0.012,0.021 -0.026,0.042 -0.04,0.064c-0.014,0.021 -0.028,0.043 -0.042,0.064l-0.114,0.165Zm0.587,0.314l0,-0.777l0.214,0c0.076,0 0.142,0.014 0.198,0.041c0.056,0.027 0.099,0.069 0.13,0.126c0.031,0.056 0.047,0.129 0.047,0.218c-0,0.089 -0.016,0.163 -0.046,0.22c-0.031,0.058 -0.073,0.102 -0.128,0.13c-0.054,0.028 -0.118,0.042 -0.19,0.042l-0.225,0Zm0.176,-0.142l0.029,0c0.04,0 0.076,-0.008 0.107,-0.024c0.03,-0.015 0.054,-0.042 0.071,-0.078c0.017,-0.037 0.026,-0.086 0.026,-0.148c-0,-0.062 -0.009,-0.11 -0.026,-0.146c-0.017,-0.035 -0.041,-0.06 -0.071,-0.075c-0.031,-0.015 -0.067,-0.022 -0.107,-0.022l-0.029,0l0,0.493Z" style="fill:white;"/></g></g></g></svg>