<?xml version="1.0" encoding="UTF-8" standalone="no"?>
<!-- Created with Inkscape (http://www.inkscape.org/) -->

<svg
   version="1.1"
   id="svg1"
   width="264.56668"
   height="98.268272"
   viewBox="0 0 264.56668 98.268272"
   xmlns="http://www.w3.org/2000/svg"
   xmlns:svg="http://www.w3.org/2000/svg">
  <defs
     id="defs1" />
  <g
     id="g1">
    <path
       id="path1"
       d="M 0,0 H 198.426 V 73.703 H 0 Z"
       style="fill:#da193b;fill-opacity:1;fill-rule:nonzero;stroke:none"
       transform="scale(1.3333333)" />
    <path
       id="path2"
       d="m 41.016,33.301 c 0.433,-0.258 0.953,-0.547 1.254,-0.797 0.375,-0.305 0.878,-0.977 0.882,-1.234 -0.57,-0.649 -0.476,-1.29 -0.507,-1.903 -0.008,-0.137 -0.18,-0.281 -0.422,-0.164 -0.657,0.317 -1.418,0.555 -1.418,0.555 0,0 -0.16,0.949 0.05,1.172 0.223,0.234 0.723,0.152 0.684,0.492 -0.027,0.219 -0.351,0.594 -0.562,0.758 -0.352,0.281 -0.778,0.515 -0.997,0.621 0,0 -0.644,-0.231 -1.523,-0.149 -0.348,0.036 -0.363,0.317 -0.363,0.317 0,0 -0.117,0.004 -0.207,0.043 -0.098,0.043 -0.168,0.14 -0.168,0.14 0,0 0.07,0.09 0.187,0.137 0.078,0.031 0.192,0.027 0.192,0.027 0.035,0.125 0.152,0.258 0.328,0.286 0.433,0.062 0.722,0.015 0.957,-0.043 0.133,-0.032 0.226,-0.012 0.262,0.093 0.031,0.102 -0.063,0.184 -0.149,0.239 -0.336,0.195 -0.57,0.343 -0.707,0.511 -0.137,0.164 -0.207,0.387 -0.141,0.559 -0.035,0.055 -0.082,0.117 -0.105,0.207 -0.023,0.09 -0.02,0.18 0.008,0.277 0.062,0 0.125,-0.007 0.195,-0.035 0.07,-0.027 0.141,-0.066 0.195,-0.148 0.172,0.054 0.403,0.015 0.571,-0.227 0.136,-0.203 0.304,-0.562 0.351,-0.711 0.047,-0.144 0.11,-0.176 0.192,-0.16 0.074,0.016 0.136,0.066 0.093,0.301 -0.031,0.168 -0.027,0.519 0.004,0.68 0.106,0.574 0.418,0.539 0.418,0.539 0,0 0.024,0.101 0.086,0.183 0.067,0.078 0.153,0.133 0.231,0.156 0.035,-0.078 0.066,-0.195 0.054,-0.293 -0.011,-0.097 -0.043,-0.164 -0.043,-0.164 0.079,-0.058 0.18,-0.179 0.133,-0.421 -0.086,-0.418 -0.25,-0.61 -0.371,-0.793 -0.074,-0.125 -0.047,-0.219 0.028,-0.27 0.074,-0.055 0.183,-0.039 0.281,0.102 0.109,0.16 0.261,0.375 0.562,0.519 0.203,0.098 0.364,0.063 0.461,-0.015 0,0 0.086,0.05 0.16,0.078 0.075,0.023 0.157,0.035 0.246,0.023 -0.015,-0.082 -0.039,-0.164 -0.07,-0.238 -0.035,-0.074 -0.074,-0.121 -0.129,-0.172 0.016,-0.113 -0.011,-0.328 -0.105,-0.422 -0.332,-0.332 -1.078,-0.656 -1.078,-0.656"
       style="fill:#ffffff;fill-opacity:1;fill-rule:evenodd;stroke:none"
       transform="scale(1.3333333)" />
    <path
       id="path3"
       d="m 37.625,19.605 c 0,0 0.492,0.653 0.77,0.454 0.222,-0.157 0.101,-0.418 -0.067,-0.598 -0.234,-0.242 -0.476,-0.066 -0.703,0.144 z m 9.707,15.11 c -0.09,0.012 -0.176,0 -0.246,-0.024 -0.074,-0.027 -0.164,-0.078 -0.164,-0.078 -0.094,0.082 -0.254,0.114 -0.457,0.016 -0.301,-0.145 -0.453,-0.359 -0.567,-0.52 -0.097,-0.136 -0.207,-0.156 -0.281,-0.101 -0.074,0.055 -0.097,0.148 -0.023,0.269 0.117,0.184 0.281,0.375 0.367,0.797 0.051,0.239 -0.055,0.364 -0.129,0.422 0,0 0.027,0.067 0.039,0.16 0.016,0.098 -0.016,0.215 -0.051,0.293 -0.078,-0.019 -0.164,-0.074 -0.23,-0.156 -0.067,-0.082 -0.09,-0.184 -0.09,-0.184 0,0 -0.312,0.039 -0.418,-0.535 -0.031,-0.164 -0.031,-0.515 0,-0.683 0.039,-0.235 -0.019,-0.286 -0.094,-0.301 -0.086,-0.02 -0.148,0.015 -0.195,0.16 -0.047,0.148 -0.215,0.508 -0.352,0.711 -0.168,0.246 -0.398,0.285 -0.57,0.227 -0.055,0.085 -0.125,0.121 -0.195,0.148 -0.071,0.027 -0.133,0.039 -0.196,0.035 -0.027,-0.098 -0.031,-0.187 -0.007,-0.273 0.023,-0.09 0.07,-0.153 0.105,-0.207 -0.066,-0.176 0,-0.399 0.141,-0.563 0.136,-0.168 0.371,-0.316 0.707,-0.512 0.086,-0.05 0.183,-0.136 0.148,-0.238 -0.035,-0.109 -0.129,-0.125 -0.261,-0.094 -0.231,0.059 -0.524,0.102 -0.958,0.043 -0.175,-0.023 -0.296,-0.16 -0.328,-0.289 0,0 -0.113,0.008 -0.191,-0.023 -0.117,-0.047 -0.188,-0.137 -0.188,-0.137 0,0 0.067,-0.098 0.168,-0.14 0.09,-0.04 0.204,-0.043 0.204,-0.043 0,0 0.015,-0.258 0.359,-0.309 0.668,-0.09 1.301,0.133 1.512,0.191 0.168,-0.386 0.39,-1.406 0.289,-1.988 -0.106,-0.605 -0.903,-0.437 -1.184,-1.004 -0.351,-0.707 -0.277,-1.777 -0.758,-1.871 -0.797,-0.148 -0.152,0.477 -2.957,1.164 -0.863,0.211 -1.531,0.09 -2.011,0.582 -0.188,0.195 -0.512,1.098 -0.973,1.684 -0.805,1.031 -1.41,1.332 -1.41,1.332 0.117,0.047 0.558,0.25 0.804,0.547 0.086,0.101 0.118,0.304 0.102,0.422 0.059,0.05 0.098,0.093 0.129,0.171 0.035,0.075 0.058,0.157 0.074,0.239 -0.09,0.008 -0.172,0 -0.246,-0.024 -0.074,-0.027 -0.16,-0.078 -0.16,-0.078 -0.098,0.078 -0.258,0.113 -0.461,0.016 -0.301,-0.145 -0.453,-0.364 -0.566,-0.52 -0.098,-0.14 -0.208,-0.156 -0.282,-0.105 -0.074,0.054 -0.101,0.148 -0.023,0.269 0.117,0.188 0.281,0.379 0.367,0.797 0.051,0.242 -0.055,0.363 -0.129,0.422 0,0 0.027,0.066 0.039,0.164 0.012,0.098 -0.015,0.215 -0.051,0.293 -0.078,-0.023 -0.164,-0.078 -0.23,-0.156 -0.066,-0.082 -0.094,-0.184 -0.094,-0.184 0,0 -0.308,0.035 -0.414,-0.539 -0.027,-0.16 -0.035,-0.515 -0.004,-0.683 0.043,-0.231 -0.019,-0.282 -0.094,-0.297 -0.082,-0.02 -0.144,0.015 -0.191,0.16 -0.051,0.144 -0.215,0.508 -0.352,0.711 -0.167,0.242 -0.398,0.281 -0.574,0.226 -0.054,0.082 -0.121,0.121 -0.191,0.149 -0.07,0.027 -0.133,0.039 -0.195,0.035 -0.028,-0.098 -0.036,-0.188 -0.012,-0.277 0.027,-0.09 0.074,-0.153 0.109,-0.207 -0.07,-0.172 0,-0.395 0.137,-0.563 0.141,-0.164 0.375,-0.312 0.711,-0.512 0.086,-0.05 0.183,-0.132 0.148,-0.238 -0.035,-0.105 -0.129,-0.125 -0.261,-0.09 -0.235,0.055 -0.524,0.102 -0.961,0.039 -0.172,-0.023 -0.293,-0.156 -0.325,-0.285 0,0 -0.113,0.004 -0.191,-0.027 -0.117,-0.047 -0.191,-0.137 -0.191,-0.137 0,0 0.07,-0.098 0.168,-0.141 0.093,-0.039 0.207,-0.043 0.207,-0.043 0,0 0.07,-0.273 0.394,-0.316 0.879,-0.117 1.641,0.195 1.641,0.195 0,0 1.066,-0.711 1.398,-1.195 0.266,-0.383 0.481,-0.84 0.551,-1.25 0.094,-0.508 -0.055,-0.559 -0.207,-0.68 -0.219,-0.16 -0.563,-0.379 -0.988,-0.882 -0.246,-0.286 -0.567,-0.997 -0.578,-1.692 -0.344,-0.301 -0.79,-0.82 -1.102,-1.234 0.008,0.187 0.027,0.554 -0.129,0.957 -0.047,0.125 -0.234,0.23 -0.344,0.262 -0.027,0.07 -0.054,0.125 -0.109,0.183 -0.055,0.063 -0.121,0.113 -0.195,0.16 -0.043,-0.078 -0.067,-0.156 -0.071,-0.234 -0.007,-0.082 0.008,-0.18 0.008,-0.18 -0.109,-0.058 -0.207,-0.191 -0.195,-0.418 0.019,-0.332 0.156,-0.558 0.258,-0.722 0.089,-0.145 0.062,-0.25 -0.016,-0.301 -0.078,-0.047 -0.176,-0.031 -0.254,0.086 -0.129,0.179 -0.238,0.406 -0.59,0.648 -0.207,0.141 -0.355,0.094 -0.441,0.043 0,0 -0.051,0.055 -0.133,0.102 -0.086,0.051 -0.207,0.07 -0.293,0.066 -0.008,-0.078 0.008,-0.18 0.055,-0.273 0.051,-0.094 0.133,-0.153 0.133,-0.153 0,0 -0.153,-0.273 0.332,-0.593 0.14,-0.09 0.464,-0.235 0.629,-0.274 0.23,-0.051 0.253,-0.125 0.238,-0.199 -0.016,-0.086 -0.071,-0.129 -0.223,-0.117 -0.152,0.015 -0.551,0.004 -0.793,-0.047 -0.289,-0.055 -0.414,-0.254 -0.43,-0.434 -0.097,-0.019 -0.16,-0.066 -0.21,-0.121 -0.055,-0.054 -0.09,-0.109 -0.114,-0.168 0.082,-0.062 0.16,-0.101 0.254,-0.113 0.09,-0.016 0.168,0.004 0.231,0.016 0.136,-0.133 0.367,-0.153 0.574,-0.09 0.207,0.058 0.433,0.218 0.746,0.449 0.082,0.059 0.195,0.117 0.277,0.043 0.086,-0.074 0.067,-0.164 -0.015,-0.274 -0.145,-0.195 -0.301,-0.441 -0.414,-0.867 -0.047,-0.172 0.031,-0.336 0.136,-0.414 0,0 -0.047,-0.101 -0.05,-0.183 -0.004,-0.129 0.05,-0.231 0.05,-0.231 0,0 0.121,0.028 0.2,0.102 0.066,0.066 0.117,0.172 0.117,0.172 0,0 0.332,-0.071 0.496,0.234 0.316,0.59 0.258,1.059 0.226,1.25 0.243,0.453 0.489,0.672 0.778,0.949 0.168,0.16 0.445,0.321 0.761,0.477 0.207,-0.328 0.497,-0.637 0.86,-0.996 0.426,-0.418 0.73,-0.602 1.051,-0.895 0.379,-0.351 0.57,-0.707 0.57,-0.707 0,0 -0.652,-0.195 -1.336,0.016 -0.078,-0.125 -0.219,-0.391 -0.094,-0.563 0.512,-0.211 1.27,-0.176 1.617,-0.07 0.114,-0.18 0.344,-0.617 0.071,-0.856 -0.356,-0.304 -1.25,-0.375 -1.891,-0.039 -0.16,-0.086 -0.383,-0.394 -0.23,-0.734 -0.352,-0.375 -0.121,-0.504 0.004,-0.555 0.398,-0.172 0.73,-0.109 1.101,-0.125 0.008,-0.152 0.008,-0.234 0.078,-0.41 0.172,-0.426 1.281,-0.289 1.696,-0.293 0.285,-0.004 0.527,-0.054 0.773,-0.105 0.332,-0.071 0.352,0.261 0.262,0.394 l -0.219,0.293 c 0.332,0.137 0.676,0.336 0.805,0.699 0.093,0.278 0.019,0.594 0.093,0.844 0.082,0.285 0.231,0.383 0.36,0.617 0.199,0.368 0.238,0.653 0.285,1.043 0.039,0.336 -0.289,0.34 -0.418,0.243 -0.07,-0.055 -0.27,-0.317 -0.492,-0.29 -0.137,0.016 -0.246,0.215 -0.301,0.36 0,0 0.316,0.558 0.418,1.039 0.086,0.41 0.051,0.746 0.004,1.082 -0.039,0.336 -0.383,0.246 -0.469,0.113 -0.066,-0.101 -0.172,-0.363 -0.394,-0.398 -0.235,-0.031 -0.442,0.226 -0.469,0.484 -0.031,0.281 0,0.528 0.156,0.75 0.68,0.992 3.781,-0.89 5.125,0.176 0.086,-0.359 0.125,-0.742 0.051,-1.066 -0.164,-0.719 -1.399,-1.063 -1.985,-1.879 v -0.004 c -0.113,-0.164 -0.207,-0.348 -0.257,-0.555 -0.223,-0.957 0.418,-2.285 0.746,-2.887 -0.258,-0.406 -0.137,-1.211 0.008,-1.562 0.175,-0.426 0.316,-0.641 0.523,-0.926 0.207,-0.285 0.719,-0.25 0.719,-0.078 0,0 -0.598,0.691 -0.371,0.934 0.199,0.218 1.3,-0.54 0.5,1.144 -0.285,0.602 -0.664,0.785 -0.977,0.742 -0.328,0.653 -0.73,1.676 -0.539,2.438 0.078,0.308 0.273,0.543 0.523,0.75 h 0.004 c 0.625,0.519 1.582,0.863 1.778,1.801 0.113,0.558 -0.051,1.3 -0.215,1.835 0.238,0.543 0.25,1.137 0.394,1.649 0.071,0.199 0.219,0.523 0.461,0.496 0.215,-0.023 0.328,-0.246 0.414,-0.375 0.11,-0.164 0.411,-0.195 0.461,0.137 0.051,0.336 0.176,0.664 0.176,1.023 -0.004,1.449 -0.473,2.59 -0.828,3.477 0,0 0.414,0.105 0.984,0.492 0.403,0.277 0.289,0.519 0.274,0.633 0.055,0.05 0.09,0.097 0.129,0.172 0.031,0.074 0.054,0.156 0.07,0.238"
       style="fill:#ffffff;fill-opacity:1;fill-rule:evenodd;stroke:none"
       transform="scale(1.3333333)" />
    <path
       id="path4"
       d="m 34.52,21.59 c 0.812,0.34 1.812,-0.188 1.812,-0.297 -1.242,0.18 -1.703,-0.172 -1.406,-0.781 -0.891,0.105 -0.817,0.902 -0.406,1.078"
       style="fill:#ffffff;fill-opacity:1;fill-rule:evenodd;stroke:none"
       transform="scale(1.3333333)" />
    <path
       id="path5"
       d="m 41.016,52.313 c 0.433,-0.254 0.953,-0.547 1.254,-0.793 0.375,-0.309 0.878,-0.977 0.882,-1.235 -0.57,-0.652 -0.476,-1.293 -0.507,-1.906 -0.008,-0.137 -0.18,-0.281 -0.422,-0.164 -0.657,0.316 -1.418,0.555 -1.418,0.555 0,0 -0.16,0.949 0.05,1.171 0.223,0.235 0.723,0.153 0.684,0.493 -0.027,0.218 -0.351,0.593 -0.562,0.761 -0.352,0.278 -0.778,0.516 -0.997,0.618 0,0 -0.644,-0.231 -1.523,-0.149 -0.348,0.035 -0.363,0.316 -0.363,0.316 0,0 -0.117,0.008 -0.207,0.043 -0.098,0.043 -0.168,0.141 -0.168,0.141 0,0 0.07,0.094 0.187,0.137 0.078,0.035 0.192,0.027 0.192,0.027 0.035,0.129 0.152,0.262 0.328,0.285 0.433,0.063 0.722,0.016 0.957,-0.039 0.133,-0.035 0.226,-0.015 0.262,0.09 0.031,0.106 -0.063,0.184 -0.149,0.238 -0.336,0.196 -0.57,0.344 -0.707,0.512 -0.137,0.168 -0.207,0.387 -0.141,0.563 -0.031,0.05 -0.082,0.117 -0.105,0.207 -0.023,0.089 -0.02,0.179 0.008,0.273 0.066,0.004 0.125,-0.008 0.195,-0.035 0.07,-0.027 0.141,-0.067 0.195,-0.149 0.172,0.059 0.403,0.016 0.571,-0.226 0.136,-0.203 0.301,-0.563 0.351,-0.707 0.047,-0.149 0.11,-0.18 0.192,-0.16 0.074,0.015 0.136,0.062 0.093,0.297 -0.031,0.168 -0.027,0.519 0.004,0.679 0.106,0.574 0.418,0.539 0.418,0.539 0,0 0.024,0.102 0.086,0.184 0.067,0.082 0.153,0.133 0.231,0.156 0.035,-0.078 0.066,-0.195 0.054,-0.293 -0.011,-0.094 -0.043,-0.16 -0.043,-0.16 0.079,-0.062 0.18,-0.18 0.133,-0.426 -0.086,-0.414 -0.25,-0.609 -0.371,-0.793 -0.074,-0.121 -0.047,-0.215 0.028,-0.269 0.074,-0.055 0.183,-0.035 0.281,0.105 0.109,0.156 0.261,0.371 0.562,0.516 0.203,0.098 0.364,0.066 0.461,-0.016 0,0 0.086,0.055 0.16,0.078 0.075,0.028 0.157,0.036 0.246,0.028 -0.015,-0.086 -0.039,-0.168 -0.07,-0.242 -0.035,-0.075 -0.074,-0.122 -0.129,-0.172 0.012,-0.114 -0.011,-0.325 -0.105,-0.418 -0.332,-0.336 -1.078,-0.66 -1.078,-0.66"
       style="fill:#ffffff;fill-opacity:1;fill-rule:evenodd;stroke:none"
       transform="scale(1.3333333)" />
    <path
       id="path6"
       d="m 38.395,39.074 c -0.278,0.196 -0.77,-0.453 -0.77,-0.453 0.227,-0.215 0.469,-0.391 0.703,-0.148 0.168,0.183 0.289,0.441 0.067,0.601 z m 8.867,14.414 c -0.039,-0.074 -0.074,-0.117 -0.129,-0.172 0.015,-0.113 0.129,-0.355 -0.274,-0.628 -0.566,-0.391 -0.984,-0.493 -0.984,-0.493 0.355,-0.89 0.82,-2.031 0.828,-3.476 0,-0.364 -0.125,-0.692 -0.176,-1.024 -0.05,-0.336 -0.351,-0.304 -0.461,-0.136 -0.086,0.129 -0.199,0.347 -0.418,0.375 -0.238,0.023 -0.386,-0.297 -0.457,-0.5 -0.113,-0.399 -0.156,-0.844 -0.277,-1.286 0.422,-0.093 0.762,-0.312 1.059,-0.562 0.547,-0.465 0.504,-1.188 0.207,-1.762 -0.239,-0.461 -0.539,-0.644 -1.996,-1.183 -0.579,-0.219 -1,-0.469 -1.297,-0.797 -0.114,-0.129 -0.227,-0.293 -0.301,-0.449 -0.152,-0.309 -0.039,-0.661 0.219,-0.895 0.058,-0.051 0.183,-0.145 0.332,-0.242 0.449,0.324 1.668,0.152 2.14,-0.016 0.547,-0.191 0.969,-0.441 1.356,-0.664 0.387,-0.226 0.324,-0.68 0.117,-0.68 0,0 -1.426,0.602 -1.668,0.364 -0.223,-0.215 0.277,-0.985 -1.234,-0.317 -0.543,0.239 -0.946,0.571 -0.922,0.887 -0.528,0.285 -1.035,0.75 -0.961,1.371 0.023,0.207 0.125,0.465 0.265,0.676 h 0.004 c 0.414,0.59 1.239,1.031 2.137,1.328 0.863,0.281 1.195,0.438 1.344,1.008 0.199,0.75 -0.207,1.207 -1.031,1.336 -0.098,-0.184 -0.215,-0.336 -0.321,-0.446 -1.164,-1.199 -4.519,0.809 -5.199,-0.183 -0.156,-0.223 -0.187,-0.469 -0.156,-0.75 0.027,-0.258 0.234,-0.516 0.469,-0.481 0.222,0.032 0.328,0.293 0.394,0.399 0.086,0.129 0.43,0.219 0.469,-0.113 0.047,-0.336 0.082,-0.672 -0.004,-1.082 -0.102,-0.485 -0.418,-1.043 -0.418,-1.043 0.055,-0.145 0.164,-0.344 0.301,-0.36 0.222,-0.027 0.422,0.235 0.492,0.289 0.129,0.102 0.457,0.094 0.418,-0.242 -0.047,-0.391 -0.086,-0.672 -0.285,-1.043 -0.129,-0.234 -0.278,-0.332 -0.36,-0.613 -0.074,-0.254 0,-0.567 -0.093,-0.848 -0.129,-0.359 -0.473,-0.562 -0.805,-0.699 l 0.219,-0.293 c 0.09,-0.133 0.07,-0.465 -0.262,-0.391 -0.246,0.047 -0.488,0.102 -0.773,0.102 -0.415,0.004 -1.524,-0.133 -1.696,0.293 -0.07,0.176 -0.07,0.262 -0.078,0.41 -0.371,0.016 -0.703,-0.047 -1.101,0.129 -0.125,0.051 -0.356,0.176 -0.004,0.551 -0.153,0.34 0.07,0.648 0.23,0.734 0.641,-0.336 1.535,-0.266 1.891,0.039 0.273,0.238 0.043,0.68 -0.071,0.856 -0.347,-0.106 -1.105,-0.137 -1.617,0.07 -0.125,0.172 0.016,0.437 0.094,0.566 0.684,-0.211 1.336,-0.015 1.336,-0.015 0,0 -0.191,0.355 -0.57,0.707 -0.321,0.289 -0.625,0.472 -1.051,0.894 -0.414,0.407 -0.731,0.754 -0.942,1.133 -0.527,-0.125 -1.023,-0.277 -1.3,-0.465 -0.336,-0.226 -0.614,-0.398 -0.926,-0.808 0,-0.192 -0.02,-0.664 -0.434,-1.192 -0.215,-0.273 -0.527,-0.148 -0.527,-0.148 0,0 -0.066,-0.098 -0.149,-0.153 -0.085,-0.058 -0.207,-0.066 -0.207,-0.066 0,0 -0.039,0.109 -0.011,0.234 0.011,0.082 0.078,0.176 0.078,0.176 -0.09,0.094 -0.137,0.27 -0.063,0.43 0.18,0.402 0.375,0.621 0.551,0.785 0.098,0.094 0.133,0.18 0.063,0.27 -0.071,0.086 -0.192,0.046 -0.282,0.004 -0.347,-0.176 -0.597,-0.293 -0.812,-0.321 -0.215,-0.027 -0.442,0.035 -0.551,0.188 -0.062,0 -0.144,-0.012 -0.23,0.019 -0.09,0.028 -0.161,0.082 -0.227,0.156 0.031,0.055 0.074,0.102 0.133,0.145 0.062,0.047 0.133,0.086 0.23,0.086 0.047,0.176 0.203,0.348 0.5,0.359 0.246,0.004 0.637,-0.05 0.789,-0.09 0.149,-0.035 0.207,-0.003 0.239,0.079 0.027,0.07 0.015,0.148 -0.203,0.238 -0.157,0.066 -0.454,0.262 -0.571,0.371 -0.429,0.398 -0.23,0.641 -0.23,0.641 0,0 -0.074,0.074 -0.106,0.175 -0.031,0.102 -0.031,0.2 -0.007,0.278 0.085,-0.012 0.199,-0.051 0.273,-0.114 0.074,-0.058 0.117,-0.121 0.117,-0.121 0.09,0.032 0.25,0.055 0.426,-0.117 0.305,-0.297 0.379,-0.543 0.473,-0.742 0.058,-0.129 0.156,-0.156 0.238,-0.125 0.086,0.035 0.129,0.137 0.066,0.297 -0.074,0.18 -0.172,0.422 -0.133,0.754 0.028,0.222 0.141,0.34 0.262,0.379 0,0 0,0.101 0.02,0.179 0.019,0.075 0.058,0.149 0.113,0.219 0.062,-0.058 0.117,-0.121 0.164,-0.191 0.043,-0.067 0.063,-0.125 0.074,-0.2 0.106,-0.05 0.274,-0.187 0.301,-0.316 0.082,-0.422 0.004,-0.781 -0.039,-0.961 0.477,0.442 1.176,1.012 1.551,1.164 0.023,0.008 0.043,0.02 0.062,0.028 0.067,0.621 0.348,1.21 0.567,1.468 0.425,0.504 0.769,0.723 0.988,0.887 0.152,0.117 0.301,0.168 0.207,0.676 -0.07,0.414 -0.285,0.867 -0.551,1.25 -0.332,0.484 -1.398,1.195 -1.398,1.195 0,0 -0.762,-0.312 -1.641,-0.195 -0.324,0.047 -0.394,0.316 -0.394,0.316 0,0 -0.114,0.008 -0.207,0.043 -0.098,0.047 -0.168,0.141 -0.168,0.141 0,0 0.074,0.094 0.191,0.14 0.078,0.032 0.191,0.024 0.191,0.024 0.032,0.129 0.153,0.262 0.325,0.289 0.437,0.062 0.726,0.012 0.961,-0.043 0.132,-0.031 0.226,-0.016 0.261,0.09 0.035,0.105 -0.062,0.187 -0.148,0.238 -0.336,0.199 -0.57,0.348 -0.711,0.516 -0.137,0.164 -0.207,0.386 -0.137,0.562 -0.035,0.051 -0.082,0.117 -0.109,0.207 -0.024,0.086 -0.016,0.18 0.012,0.274 0.062,0.004 0.125,-0.008 0.195,-0.035 0.07,-0.028 0.137,-0.067 0.191,-0.149 0.176,0.059 0.407,0.016 0.574,-0.226 0.137,-0.204 0.301,-0.563 0.352,-0.711 0.047,-0.145 0.109,-0.176 0.191,-0.161 0.075,0.016 0.137,0.067 0.094,0.301 -0.031,0.168 -0.023,0.52 0.004,0.68 0.106,0.578 0.414,0.539 0.414,0.539 0,0 0.028,0.102 0.094,0.184 0.066,0.078 0.152,0.136 0.23,0.156 0.036,-0.078 0.063,-0.196 0.051,-0.289 -0.012,-0.102 -0.039,-0.164 -0.039,-0.164 0.074,-0.063 0.18,-0.184 0.129,-0.426 -0.086,-0.418 -0.25,-0.609 -0.367,-0.793 -0.078,-0.125 -0.051,-0.219 0.023,-0.274 0.074,-0.05 0.184,-0.035 0.282,0.106 0.113,0.16 0.265,0.375 0.566,0.519 0.203,0.098 0.363,0.063 0.461,-0.015 0,0 0.086,0.051 0.16,0.078 0.074,0.027 0.156,0.031 0.246,0.027 -0.016,-0.086 -0.039,-0.168 -0.074,-0.242 -0.031,-0.074 -0.07,-0.121 -0.129,-0.172 0.016,-0.113 -0.016,-0.32 -0.102,-0.422 -0.246,-0.296 -0.687,-0.496 -0.804,-0.546 0,0 0.605,-0.297 1.414,-1.333 0.457,-0.585 0.781,-1.488 0.969,-1.679 0.48,-0.496 1.148,-0.375 2.011,-0.586 2.805,-0.688 2.16,-1.313 2.957,-1.16 0.481,0.09 0.407,1.164 0.758,1.867 0.281,0.566 1.078,0.398 1.184,1.008 0.101,0.582 -0.121,1.597 -0.289,1.988 -0.211,-0.063 -0.844,-0.285 -1.512,-0.195 -0.344,0.05 -0.359,0.308 -0.359,0.308 0,0 -0.114,0.004 -0.204,0.043 -0.101,0.043 -0.168,0.141 -0.168,0.141 0,0 0.071,0.09 0.188,0.137 0.078,0.031 0.191,0.027 0.191,0.027 0.032,0.125 0.153,0.262 0.328,0.285 0.434,0.063 0.723,0.016 0.958,-0.043 0.132,-0.031 0.226,-0.016 0.261,0.094 0.035,0.105 -0.062,0.187 -0.148,0.238 -0.336,0.199 -0.571,0.344 -0.707,0.512 -0.141,0.168 -0.211,0.387 -0.141,0.562 -0.035,0.055 -0.082,0.118 -0.105,0.207 -0.024,0.09 -0.02,0.18 0.007,0.278 0.063,0 0.125,-0.008 0.196,-0.039 0.07,-0.024 0.14,-0.063 0.195,-0.149 0.172,0.059 0.402,0.02 0.57,-0.222 0.137,-0.207 0.305,-0.567 0.352,-0.711 0.047,-0.149 0.109,-0.18 0.195,-0.164 0.075,0.019 0.133,0.066 0.094,0.3 -0.031,0.168 -0.031,0.524 0,0.684 0.106,0.574 0.418,0.539 0.418,0.539 0,0 0.023,0.098 0.09,0.18 0.066,0.082 0.152,0.136 0.23,0.156 0.035,-0.078 0.067,-0.195 0.051,-0.293 -0.012,-0.094 -0.039,-0.16 -0.039,-0.16 0.074,-0.059 0.18,-0.18 0.129,-0.422 -0.086,-0.418 -0.246,-0.613 -0.367,-0.797 -0.078,-0.121 -0.051,-0.215 0.023,-0.269 0.074,-0.051 0.184,-0.036 0.281,0.101 0.114,0.16 0.266,0.379 0.567,0.524 0.203,0.097 0.363,0.062 0.457,-0.02 0,0 0.09,0.055 0.164,0.078 0.07,0.027 0.156,0.035 0.246,0.027 -0.016,-0.082 -0.039,-0.164 -0.07,-0.242"
       style="fill:#ffffff;fill-opacity:1;fill-rule:evenodd;stroke:none"
       transform="scale(1.3333333)" />
    <path
       id="path7"
       d="m 34.52,40.602 c 0.816,0.328 1.812,-0.188 1.812,-0.297 -1.242,0.183 -1.703,-0.172 -1.406,-0.782 -0.891,0.106 -0.848,0.903 -0.406,1.079"
       style="fill:#ffffff;fill-opacity:1;fill-rule:evenodd;stroke:none"
       transform="scale(1.3333333)" />
    <path
       id="path8"
       d="m 61.16,25.113 c -0.027,-0.375 -0.285,-0.558 -1.586,-0.304 -1.558,0.222 -2.363,-0.399 -1.906,-1.102 -1.18,0.07 -1.23,1.66 0.051,1.707 1.281,0.043 2.043,-0.504 3.441,-0.301"
       style="fill:#ffffff;fill-opacity:1;fill-rule:nonzero;stroke:none"
       transform="scale(1.3333333)" />
    <path
       id="path9"
       d="M 62.863,40.07 C 62.656,40 62.008,39.793 62.008,39.793 c 0,0 -1.098,1.375 -3.098,2.062 -1.683,0.583 -2.437,1.075 -2.82,1.711 -0.324,0.543 -0.492,1.075 -0.516,1.407 -0.043,0.562 0.008,0.929 0.074,1.375 0.067,0.468 0.594,0.414 0.665,0.086 0.05,-0.239 0.207,-0.512 0.449,-0.539 0.238,-0.028 0.465,0.238 0.465,0.238 0,0 -0.239,0.984 -0.981,1.949 -0.234,0.305 -1.297,1.422 -1.691,1.621 -0.492,-0.226 -1.149,-0.465 -1.473,-0.5 -0.266,-0.031 -0.672,-0.051 -0.797,0.152 -0.18,-0.011 -0.355,0.075 -0.508,0.2 0.145,0.175 0.411,0.269 0.411,0.269 0.042,0.321 0.343,0.469 0.699,0.5 0.371,0.039 0.668,0.024 0.828,0.012 0.16,-0.012 0.258,0.078 0.273,0.184 0.024,0.113 -0.047,0.242 -0.226,0.265 -0.918,0.133 -1.246,0.598 -1.219,1.09 -0.102,0.117 -0.246,0.348 -0.219,0.59 0.145,0 0.434,-0.051 0.578,-0.188 0.602,0.082 1.028,-0.55 1.2,-0.879 0.086,-0.168 0.168,-0.246 0.3,-0.187 0.114,0.047 0.141,0.152 0.071,0.34 -0.082,0.226 -0.18,0.527 -0.184,0.797 -0.004,0.429 0.164,0.652 0.395,0.769 0,0 0.152,0.363 0.332,0.449 0.113,-0.175 0.097,-0.492 0.097,-0.492 0.207,-0.113 0.309,-0.465 0.266,-0.789 -0.027,-0.207 -0.164,-0.496 -0.277,-0.73 -0.067,-0.149 -0.039,-0.27 0.058,-0.313 0.117,-0.058 0.231,0.004 0.324,0.223 0.059,0.133 0.227,0.445 0.348,0.562 0.16,0.161 0.523,0.379 0.785,0.223 0,0 0.235,0.152 0.481,0.125 -0.004,-0.207 -0.082,-0.348 -0.2,-0.496 0.071,-0.234 0.079,-0.496 -0.25,-0.805 -0.273,-0.258 -0.597,-0.496 -0.953,-0.711 0.68,-0.222 1.75,-1.023 2.16,-1.508 0.356,-0.41 0.727,-1.14 0.727,-1.14 0.309,0.07 0.391,0.41 0.41,0.629 0.02,0.187 0.391,0.273 0.481,-0.059 0.086,-0.328 0.148,-0.66 0.136,-1.086 -0.007,-0.281 -0.039,-0.883 -0.312,-1.39 0.07,-0.153 0.176,-0.286 0.32,-0.274 0.223,0.016 0.375,0.285 0.434,0.414 0.187,0.403 0.734,0.266 0.722,-0.14 -0.011,-0.344 -0.015,-0.61 -0.128,-1.067 -0.055,-0.211 -0.293,-0.656 -0.497,-0.824 0.122,-0.773 0.625,-0.797 1.645,-1.613 0.383,-0.305 0.918,-0.742 1.305,-1.25 0.113,-0.149 0.297,-0.442 0.269,-0.664 C 63.348,40.23 63.09,40.145 62.863,40.07"
       style="fill:#ffffff;fill-opacity:1;fill-rule:nonzero;stroke:none"
       transform="scale(1.3333333)" />
    <path
       id="path10"
       d="m 61.223,22.426 c 0,0 0.562,0.91 0.992,0.633 0.305,-0.2 0.152,-0.551 -0.063,-0.789 -0.297,-0.336 -0.625,-0.114 -0.929,0.156 z m 7.812,16.058 c -0.18,0.914 -0.879,1.512 -1.828,1.899 0.047,1.726 -1.012,2.57 -1.031,3.176 -0.012,0.441 0.39,0.574 0.84,1.183 0.429,0.582 0.589,1.535 0.468,2.289 -0.093,0.555 -0.214,0.848 -0.433,1.242 -0.215,0.399 -0.692,0.239 -0.664,-0.07 0.078,-0.851 -0.528,-0.555 -0.528,-0.555 0,0 0.024,0.903 -0.597,2.11 -0.371,0.726 -1.414,1.683 -1.414,1.683 0,0 0.855,0.133 1.113,0.247 0.414,0.179 0.504,0.507 0.508,0.753 0.152,0.102 0.277,0.239 0.344,0.434 -0.184,0.07 -0.504,0 -0.504,0 0,0 -0.301,0.277 -0.844,-0.051 -0.199,-0.121 -0.36,-0.304 -0.457,-0.414 -0.141,-0.156 -0.274,-0.172 -0.371,-0.086 -0.078,0.071 -0.094,0.199 0.023,0.328 0.176,0.192 0.403,0.493 0.477,0.621 0.109,0.207 0.168,0.68 0.008,0.848 0,0 0.121,0.344 0.062,0.539 -0.195,-0.023 -0.469,-0.355 -0.469,-0.355 -0.261,-0.043 -0.511,-0.297 -0.582,-0.594 -0.082,-0.34 -0.035,-0.625 -0.031,-0.863 0.004,-0.219 -0.051,-0.325 -0.195,-0.336 -0.164,-0.012 -0.227,0.097 -0.246,0.265 -0.047,0.438 -0.356,1.141 -0.954,1.243 -0.097,0.171 -0.32,0.293 -0.46,0.335 -0.098,-0.222 -0.028,-0.484 0.035,-0.628 -0.172,-0.461 0.039,-0.934 0.843,-1.403 0.114,-0.066 0.168,-0.195 0.106,-0.304 -0.055,-0.094 -0.156,-0.118 -0.297,-0.071 -0.152,0.047 -0.422,0.121 -0.785,0.199 -0.344,0.071 -0.676,0.016 -0.817,-0.273 0,0 -0.277,-0.008 -0.468,-0.137 0.105,-0.164 0.25,-0.3 0.422,-0.34 0.062,-0.23 0.418,-0.398 0.683,-0.425 0.731,-0.078 1.66,0.086 1.66,0.086 0,0 0.481,-0.469 0.934,-1.207 0.582,-0.946 0.5,-1.989 0.5,-1.989 0,0 -0.117,-0.168 -0.316,-0.179 -0.223,-0.012 -0.383,0.211 -0.485,0.316 -0.113,0.113 -0.433,0.125 -0.43,-0.219 0,-0.203 0.032,-0.519 0.168,-0.926 0.086,-0.265 0.227,-0.5 0.446,-0.82 -0.114,-0.152 -0.317,-0.289 -0.446,-0.254 -0.183,0.055 -0.285,0.192 -0.347,0.375 -0.09,0.25 -0.496,0.293 -0.578,-0.074 C 62.023,45.75 62,45.438 62.051,45 c 0.082,-0.754 0.203,-1.523 1.047,-2.676 0.406,-0.558 1.367,-1.695 1.386,-2.383 0.02,-0.656 -2.191,-0.73 -3.828,-1.816 -1.351,-0.898 -1.668,-2.32 -1.668,-2.32 0,0 -0.48,0.633 -1.535,1.265 -0.695,0.418 -2.019,0.731 -2.019,0.731 0.234,0.301 0.414,0.664 0.519,0.969 0.16,0.472 0.043,0.73 -0.133,0.898 0.032,0.187 -0.027,0.391 -0.125,0.57 -0.179,-0.117 -0.297,-0.379 -0.297,-0.379 -0.304,0.012 -0.464,-0.168 -0.543,-0.535 -0.046,-0.207 -0.078,-0.551 -0.074,-0.699 0.004,-0.234 -0.074,-0.336 -0.187,-0.336 -0.102,0 -0.18,0.082 -0.192,0.234 -0.015,0.258 -0.062,0.625 -0.109,0.77 -0.07,0.223 -0.27,0.574 -0.508,0.574 0,0 -0.152,0.352 -0.336,0.449 -0.117,-0.16 -0.066,-0.586 -0.066,-0.586 -0.156,-0.121 -0.238,-0.386 -0.028,-0.863 0.157,-0.355 0.274,-0.449 0.434,-0.625 0.152,-0.16 0.215,-0.269 0.109,-0.375 -0.082,-0.086 -0.16,-0.058 -0.296,0.035 -0.309,0.207 -1.075,0.559 -1.563,0.196 -0.191,0.05 -0.383,-0.043 -0.512,-0.114 0.094,-0.226 0.297,-0.382 0.477,-0.41 0.211,-0.312 0.664,-0.504 1.594,-0.371 0.125,0.02 0.269,0.004 0.308,-0.125 0.035,-0.117 -0.004,-0.23 -0.164,-0.301 -0.14,-0.066 -0.387,-0.187 -0.691,-0.398 -0.293,-0.199 -0.485,-0.473 -0.375,-0.777 0,0 -0.188,-0.207 -0.227,-0.434 0.192,-0.035 0.391,-0.027 0.539,0.07 0.207,-0.117 0.567,-0.004 0.805,0.211 0.246,0.219 0.605,0.656 0.93,1.094 0,0 1.218,-0.16 2.175,-1.219 0.59,-0.648 0.711,-1.707 0.743,-2.636 0.007,-0.157 -0.055,-0.305 -0.184,-0.36 -0.207,-0.094 -0.434,0.063 -0.562,0.125 -0.149,0.07 -0.454,-0.027 -0.332,-0.348 0.121,-0.32 0.21,-0.492 0.492,-0.812 0.156,-0.18 0.511,-0.543 0.961,-0.789 -0.387,-0.289 -0.828,-0.688 -1.231,-1.082 -0.344,-0.336 -0.922,-1.219 -1.219,-1.906 -0.062,0.218 -0.128,0.519 -0.211,0.718 -0.171,0.418 -0.382,0.504 -0.628,0.524 -0.094,0.16 -0.27,0.277 -0.461,0.355 -0.063,-0.207 0.035,-0.515 0.035,-0.515 -0.238,-0.188 -0.192,-0.481 -0.067,-0.782 0.114,-0.265 0.262,-0.429 0.368,-0.535 0.171,-0.172 0.187,-0.301 0.093,-0.383 -0.093,-0.082 -0.211,-0.058 -0.316,0.071 -0.164,0.199 -0.453,0.437 -0.578,0.519 -0.199,0.125 -0.653,0.192 -0.832,0.039 0,0 -0.317,0.141 -0.516,0.098 0.008,-0.199 0.293,-0.465 0.293,-0.465 0.027,-0.258 0.078,-0.379 0.539,-0.621 0.211,-0.109 0.567,-0.187 0.805,-0.18 0.254,0.008 0.359,-0.105 0.359,-0.214 0,-0.133 -0.109,-0.215 -0.293,-0.207 -0.441,0.019 -1.176,-0.227 -1.316,-0.817 -0.18,-0.086 -0.266,-0.277 -0.317,-0.414 0.215,-0.113 0.485,-0.062 0.629,-0.008 0.45,-0.207 0.934,-0.027 1.457,0.739 0.137,0.199 0.489,0.089 0.364,-0.215 -0.059,-0.149 -0.153,-0.41 -0.25,-0.77 -0.098,-0.34 -0.067,-0.672 0.211,-0.832 0,0 -0.008,-0.281 0.105,-0.48 0.168,0.097 0.316,0.23 0.367,0.398 0.239,0.043 0.449,0.395 0.512,0.672 0.062,0.281 0.137,0.797 0.016,1.434 0.175,0.621 0.589,1.144 0.894,1.48 0.547,0.602 1.652,1.297 2.426,1.742 0.086,-0.094 0.18,-0.191 0.281,-0.285 0.082,-0.082 0.063,-0.215 0.008,-0.309 -0.109,-0.195 -0.387,-0.199 -0.527,-0.226 -0.161,-0.027 -0.344,-0.277 -0.063,-0.477 0.277,-0.199 0.598,-0.308 1.012,-0.406 0.281,-0.062 0.812,-0.141 1.422,0.02 0,0 0.343,-0.399 0.176,-0.528 -0.625,-0.484 -1.825,-0.183 -1.825,-0.183 -0.468,-0.641 -0.054,-0.809 0.606,-0.832 0.547,-0.02 1.148,0.07 1.785,0.3 0.426,-0.339 0.293,-1.339 -0.293,-1.613 -1.289,-0.613 -2.285,0.012 -2.285,0.012 -0.285,-0.043 -0.555,-0.184 -0.692,-0.496 -0.156,-0.352 -0.05,-0.742 -0.05,-0.742 -0.297,-0.211 -0.289,-0.872 1.656,-0.735 0,0 -0.203,-0.547 -0.055,-0.988 0.199,-0.582 2.313,-0.274 2.797,-0.383 0.125,-0.027 0.359,-0.109 0.481,-0.144 0.3,-0.09 0.402,0.203 0.304,0.375 -0.164,0.285 -0.219,0.652 -0.219,0.652 0,0 0.793,0.203 1.481,1.047 0.367,0.453 0.508,1.176 0.578,1.508 0.07,0.339 -0.277,0.367 -0.402,0.265 -0.11,-0.09 -0.297,-0.293 -0.52,-0.25 -0.129,0.024 -0.277,0.254 -0.324,0.391 0.766,0.41 1.047,1.34 1.109,1.726 0.067,0.418 0.051,0.754 0.008,1.098 -0.043,0.336 -0.379,0.254 -0.469,0.117 -0.074,-0.121 -0.187,-0.375 -0.406,-0.406 -0.203,-0.027 -0.344,0.137 -0.43,0.328 0.301,0.457 0.407,0.992 0.438,1.258 0.055,0.426 0.023,0.758 -0.031,1.098 -0.059,0.336 -0.391,0.242 -0.469,0.101 -0.074,-0.125 -0.176,-0.379 -0.395,-0.418 -0.214,-0.039 -0.39,0.207 -0.484,0.399 0.469,0.472 0.633,1.168 0.68,1.484 0.07,0.418 0.051,0.754 0.008,1.094 -0.043,0.34 -0.391,0.316 -0.469,0.121 -0.063,-0.168 -0.164,-0.395 -0.383,-0.426 -0.129,-0.019 -0.313,0.109 -0.391,0.199 -0.078,0.469 0.02,0.891 0.106,1.309 0.14,0.711 0.519,1.394 1.418,2.047 1,0.73 2.238,1.914 2.648,3.355 0.856,-0.379 1.641,-1.199 0.641,-2.574 C 66.742,35.422 65.98,35 65.574,33.441 65.336,32.535 65.492,31.582 66.266,30.59 66.16,30.43 66.109,30.223 66.094,29.996 c -0.024,-0.402 0.015,-0.965 0.398,-1.598 0.34,-0.578 0.961,-1.335 1.883,-1.75 0.23,0.133 0.25,0.575 0.199,0.672 -0.281,0.535 -1.344,1.305 -1.355,1.621 -0.008,0.18 0.418,0.446 0.57,0.395 0.289,-0.098 0.617,-0.879 0.738,-1.039 0.094,-0.129 0.457,-0.129 0.43,0.215 -0.027,0.34 -0.082,0.672 -0.234,1.07 -0.153,0.391 -0.66,1.168 -1.68,1.316 -0.113,0.016 -0.211,0.012 -0.301,-0.003 -0.605,0.832 -0.515,1.679 -0.429,2.164 0.179,1.007 0.855,1.574 1.738,2.707 0.797,1.023 1.203,1.597 0.984,2.718"
       style="fill:#ffffff;fill-opacity:1;fill-rule:nonzero;stroke:none"
       transform="scale(1.3333333)" />
    <path
       id="path11"
       d="m 53.387,16.012 c -0.301,-0.469 -0.703,-0.926 -1.039,-1.41 -0.368,-0.536 -0.305,-1.223 0.347,-1.352 0.2,-0.035 0.469,0.047 0.66,0.246 0.016,0.016 0.047,0.016 0.067,0 0.191,-0.199 0.461,-0.281 0.66,-0.246 0.652,0.129 0.715,0.816 0.344,1.352 -0.332,0.484 -0.735,0.941 -1.039,1.41"
       style="fill:#ffffff;fill-opacity:1;fill-rule:nonzero;stroke:none"
       transform="scale(1.3333333)" />
    <path
       id="path12"
       d="m 53.391,60.793 c -0.305,-0.465 -0.707,-0.922 -1.043,-1.406 -0.368,-0.539 -0.309,-1.227 0.347,-1.352 0.2,-0.035 0.469,0.047 0.66,0.246 0.016,0.016 0.047,0.016 0.067,0 0.191,-0.199 0.461,-0.281 0.66,-0.246 0.652,0.125 0.715,0.813 0.344,1.352 -0.332,0.484 -0.735,0.941 -1.035,1.406"
       style="fill:#ffffff;fill-opacity:1;fill-rule:nonzero;stroke:none"
       transform="scale(1.3333333)" />
    <path
       id="path13"
       d="m 58.164,58.59 c -0.305,-0.465 -0.707,-0.922 -1.039,-1.406 -0.371,-0.539 -0.309,-1.227 0.344,-1.352 0.199,-0.039 0.469,0.047 0.664,0.242 0.015,0.02 0.043,0.02 0.062,0 0.196,-0.195 0.465,-0.281 0.664,-0.242 0.653,0.125 0.715,0.813 0.344,1.352 -0.332,0.484 -0.734,0.941 -1.039,1.406"
       style="fill:#ffffff;fill-opacity:1;fill-rule:nonzero;stroke:none"
       transform="scale(1.3333333)" />
    <path
       id="path14"
       d="m 53.391,33.438 c -0.305,-0.469 -0.707,-0.926 -1.043,-1.411 -0.371,-0.535 -0.305,-1.222 0.347,-1.351 0.2,-0.039 0.465,0.047 0.66,0.242 0.016,0.02 0.047,0.02 0.067,0 0.191,-0.195 0.461,-0.281 0.66,-0.242 0.652,0.129 0.715,0.816 0.344,1.351 -0.332,0.485 -0.735,0.942 -1.035,1.411"
       style="fill:#ffffff;fill-opacity:1;fill-rule:nonzero;stroke:none"
       transform="scale(1.3333333)" />
    <path
       id="path15"
       d="m 58.164,18.543 c -0.305,-0.469 -0.707,-0.926 -1.039,-1.41 -0.371,-0.535 -0.309,-1.223 0.344,-1.348 0.199,-0.039 0.469,0.043 0.664,0.242 0.015,0.016 0.043,0.016 0.062,0 0.196,-0.199 0.465,-0.281 0.664,-0.242 0.653,0.125 0.715,0.813 0.344,1.348 -0.332,0.484 -0.734,0.941 -1.039,1.41"
       style="fill:#ffffff;fill-opacity:1;fill-rule:nonzero;stroke:none"
       transform="scale(1.3333333)" />
    <path
       id="path16"
       d="m 58.5,41.191 c -0.305,-0.464 -0.707,-0.921 -1.039,-1.41 -0.371,-0.535 -0.309,-1.222 0.344,-1.347 0.199,-0.039 0.468,0.043 0.664,0.242 0.015,0.019 0.043,0.019 0.062,0 0.196,-0.199 0.465,-0.281 0.664,-0.242 0.653,0.125 0.715,0.812 0.344,1.347 -0.332,0.489 -0.734,0.946 -1.039,1.41"
       style="fill:#ffffff;fill-opacity:1;fill-rule:nonzero;stroke:none"
       transform="scale(1.3333333)" />
    <path
       id="path17"
       d="m 49.406,12.906 c 0,0 0.254,0.028 0.387,0.074 v 47.825 c -0.266,0.086 -0.395,0.086 -0.395,0.086 0,0 -0.117,-0.004 -0.39,-0.086 V 12.98 c 0.125,-0.046 0.398,-0.074 0.398,-0.074"
       style="fill:#ffffff;fill-opacity:1;fill-rule:nonzero;stroke:none"
       transform="scale(1.3333333)" />
    <path
       id="path18"
       d="m 27.414,47.273 c -0.051,-0.156 -0.109,-0.308 -0.156,-0.464 l -1.176,0.371 0.121,0.386 c 0.11,0.348 0.488,0.418 0.789,0.325 0.289,-0.094 0.531,-0.278 0.422,-0.618 z m -1.66,0.5 -0.141,-0.445 -1.16,0.367 c -0.23,0.075 -0.226,0.172 -0.125,0.496 0.129,0.403 0.442,0.676 0.934,0.52 0.402,-0.129 0.621,-0.523 0.492,-0.938 z m -1.77,0.907 c -0.136,-0.43 -0.25,-0.856 -0.386,-1.285 l -0.438,-1.317 0.406,-0.125 0.286,0.707 3.035,-0.961 -0.274,-0.777 0.418,-0.133 c 0.317,0.797 0.629,1.609 0.887,2.426 0.285,0.89 0.078,1.644 -0.535,1.84 -0.395,0.125 -0.801,-0.098 -1.059,-0.399 0.02,0.528 -0.168,1.071 -0.711,1.242 -0.824,0.262 -1.406,-0.527 -1.629,-1.218"
       style="fill:#ffffff;fill-opacity:1;fill-rule:nonzero;stroke:none"
       transform="scale(1.3333333)" />
    <path
       id="path19"
       d="m 29.484,52.172 -0.113,-0.211 -1.41,0.742 0.09,0.176 c 0.234,0.445 0.699,0.473 1.074,0.277 0.328,-0.172 0.598,-0.531 0.359,-0.984 z m -2.554,4.019 -0.239,-0.734 c -0.214,-0.633 0.805,-1.934 1.102,-2.441 l -0.09,-0.176 -1.183,0.621 0.183,0.48 -0.383,0.204 -0.496,-1 -0.609,-1.102 0.383,-0.199 0.375,0.586 2.832,-1.492 -0.407,-0.715 0.387,-0.207 c 0.231,0.379 0.512,0.859 0.688,1.136 0.062,0.102 0.394,0.653 0.504,0.86 0.668,1.273 0.445,1.871 -0.188,2.203 -0.562,0.297 -1.047,0.199 -1.43,-0.293 -0.089,0.164 -1.089,1.648 -1.082,1.773 0.004,0.196 0.012,0.192 0.082,0.418 l -0.429,0.078"
       style="fill:#ffffff;fill-opacity:1;fill-rule:nonzero;stroke:none"
       transform="scale(1.3333333)" />
    <path
       id="path20"
       d="m 31.813,56.688 -1.297,0.39 0.582,0.735 z m -1.395,3.359 -0.863,-1.055 0.332,-0.262 0.414,0.434 0.527,-0.887 -0.848,-1.062 -0.992,0.305 0.418,0.605 -0.328,0.266 -0.582,-0.758 -0.492,-0.578 0.32,-0.258 0.285,0.258 3.789,-1.086 c 0.211,0.14 0.481,0.215 0.684,0.261 l 0.113,0.145 -2.14,3.738 0.218,0.371 -0.332,0.262 -0.523,-0.699"
       style="fill:#ffffff;fill-opacity:1;fill-rule:nonzero;stroke:none"
       transform="scale(1.3333333)" />
    <path
       id="path21"
       d="m 37.539,61.625 -1.402,1.68 c -0.649,0.777 -1.543,0.769 -2.481,-0.016 -0.875,-0.73 -1.168,-1.738 -0.629,-2.379 l 1.504,-1.801 -0.515,-0.5 0.269,-0.324 0.945,0.813 1.04,0.847 -0.27,0.325 -0.57,-0.411 -1.395,1.668 c -0.515,0.618 -0.207,1.164 0.07,1.399 0.29,0.238 1.047,0.57 1.555,-0.039 l 1.395,-1.668 -0.485,-0.473 0.274,-0.324 0.703,0.601 0.785,0.641 -0.273,0.328 -0.52,-0.367"
       style="fill:#ffffff;fill-opacity:1;fill-rule:nonzero;stroke:none"
       transform="scale(1.3333333)" />
    <path
       id="path22"
       d="m 43.051,64.441 -1.52,3.422 -0.668,-0.297 -1.019,-3.691 -0.989,2.223 0.563,0.308 -0.176,0.395 -0.812,-0.391 -0.926,-0.383 0.172,-0.386 0.605,0.211 1.262,-2.836 c -0.051,-0.164 -0.238,-0.278 -0.625,-0.45 l 0.176,-0.402 1.566,0.699 0.942,3.344 0.894,-2.012 -0.566,-0.308 0.172,-0.383 0.82,0.371 0.914,0.398 -0.172,0.387 -0.613,-0.219"
       style="fill:#ffffff;fill-opacity:1;fill-rule:nonzero;stroke:none"
       transform="scale(1.3333333)" />
    <path
       id="path23"
       d="m 45.93,68.949 c -0.379,-0.058 -0.637,-0.14 -1.106,-0.336 l -0.035,0.125 -0.437,-0.07 0.089,-0.289 0.204,-0.973 0.418,0.067 c -0.067,0.547 0.257,0.937 0.71,1.007 0.461,0.071 0.707,-0.144 0.758,-0.468 0.059,-0.383 -0.554,-0.731 -1.043,-1.199 -0.371,-0.356 -0.672,-0.786 -0.593,-1.29 0.113,-0.722 0.757,-1.05 1.699,-0.902 0.258,0.039 0.769,0.172 0.961,0.234 l 0.09,-0.167 0.394,0.062 -0.199,1.277 -0.422,-0.066 c 0.016,-0.496 -0.207,-0.801 -0.66,-0.871 -0.473,-0.074 -0.629,0.277 -0.66,0.465 -0.059,0.367 0.418,0.695 0.871,1.097 0.433,0.387 0.836,0.836 0.75,1.387 -0.121,0.777 -0.832,1.059 -1.789,0.91"
       style="fill:#ffffff;fill-opacity:1;fill-rule:nonzero;stroke:none"
       transform="scale(1.3333333)" />
    <path
       id="path24"
       d="m 51.863,69.094 c -1.394,0.129 -2.511,-0.66 -2.633,-1.949 -0.101,-1.106 0.661,-2.27 2.168,-2.411 0.692,-0.062 0.813,-0.058 1.266,-0.031 l 0.012,-0.164 0.414,-0.039 0.035,0.387 0.121,1.011 -0.414,0.036 c -0.109,-0.629 -0.656,-0.786 -1.266,-0.731 -0.648,0.063 -1.199,0.781 -1.105,1.785 0.09,0.961 0.832,1.672 1.5,1.61 0.652,-0.063 0.984,-0.258 0.984,-0.266 0.039,-0.125 0.043,-0.703 0.043,-0.809 l 0.414,-0.039 0.106,1.125 c -0.61,0.246 -0.797,0.403 -1.645,0.485"
       style="fill:#ffffff;fill-opacity:1;fill-rule:nonzero;stroke:none"
       transform="scale(1.3333333)" />
    <path
       id="path25"
       d="m 60,66.66 -1.211,0.52 -0.16,-0.391 0.625,-0.324 -0.524,-1.27 -1.867,0.774 0.528,1.265 0.66,-0.207 0.164,0.391 -1.176,0.465 -1.187,0.512 -0.161,-0.391 0.618,-0.32 -1.227,-2.965 -0.66,0.215 -0.16,-0.391 1.199,-0.477 1.16,-0.5 0.164,0.391 -0.621,0.313 0.512,1.242 1.867,-0.77 -0.516,-1.242 -0.668,0.219 -0.16,-0.391 1.164,-0.465 1.203,-0.515 0.161,0.39 -0.625,0.317 1.226,2.965 0.668,-0.211 0.164,0.39 L 60,66.66"
       style="fill:#ffffff;fill-opacity:1;fill-rule:nonzero;stroke:none"
       transform="scale(1.3333333)" />
    <path
       id="path26"
       d="m 65.418,58.156 1.332,3.86 -0.492,0.422 -1.762,-0.872 0.637,1.844 -0.535,0.461 -3.68,-1.824 -0.355,0.238 -0.278,-0.32 0.727,-0.602 0.758,-0.675 0.273,0.32 -0.219,0.246 2.477,1.277 -0.504,-1.308 -1.219,-0.61 -0.285,0.176 -0.277,-0.316 0.656,-0.543 0.871,-0.778 0.277,0.321 -0.371,0.375 2.469,1.285 -0.965,-2.574 -0.445,0.32 -0.278,-0.32 0.68,-0.567 0.516,-0.488 0.289,0.332 -0.297,0.32"
       style="fill:#ffffff;fill-opacity:1;fill-rule:nonzero;stroke:none"
       transform="scale(1.3333333)" />
    <path
       id="path27"
       d="m 70.324,57.652 -0.347,0.477 -0.786,1.133 -0.343,-0.246 0.386,-0.649 -2.621,-1.863 -0.457,0.523 -0.347,-0.246 0.781,-1.051 0.504,-0.734 0.562,-0.793 -0.168,-0.168 0.246,-0.347 0.274,0.195 0.851,0.574 -0.238,0.336 -0.578,-0.258 -0.73,1.031 1.058,0.754 0.547,-0.769 -0.348,-0.324 0.239,-0.34 1.203,0.855 -0.242,0.34 -0.442,-0.242 -0.547,0.769 0.992,0.704 c 0.055,0.039 0.11,0.082 0.122,0.078 0.058,-0.067 0.125,-0.125 0.242,-0.293 0.172,-0.243 0.414,-0.567 0.433,-0.598 0.071,-0.098 0.192,-0.27 0.184,-0.285 -0.012,-0.027 -0.391,-0.371 -0.469,-0.438 l 0.246,-0.347 0.91,0.648 -1.117,1.574"
       style="fill:#ffffff;fill-opacity:1;fill-rule:nonzero;stroke:none"
       transform="scale(1.3333333)" />
    <path
       id="path28"
       d="m 73.012,53.129 -0.555,1.164 -0.379,-0.188 0.254,-0.644 -2.879,-1.422 -0.355,0.598 -0.375,-0.188 0.582,-1.148 0.547,-1.141 0.378,0.188 -0.261,0.644 2.879,1.418 0.359,-0.594 0.379,0.188 -0.574,1.125"
       style="fill:#ffffff;fill-opacity:1;fill-rule:nonzero;stroke:none"
       transform="scale(1.3333333)" />
    <path
       id="path29"
       d="m 74.176,45.832 c 0.117,0.039 0.285,0.102 0.484,0.164 l 0.149,0.043 c 0.285,0.074 0.554,0.129 0.785,0.059 -0.156,0.504 -0.137,0.465 -0.207,0.894 -0.071,0.461 -0.082,0.629 -0.25,1.164 -0.539,1.723 -1.782,2.102 -2.867,1.762 -0.969,-0.305 -1.844,-1.387 -1.344,-2.973 0.14,-0.445 0.367,-0.965 0.512,-1.254 l -0.165,-0.105 0.118,-0.375 0.269,0.086 1.078,0.305 -0.125,0.394 c -0.617,-0.101 -0.984,0.328 -1.199,1.004 -0.172,0.543 0.305,1.449 1.227,1.738 0.988,0.309 1.863,-0.179 2.05,-0.765 0.094,-0.305 0.106,-0.52 0.079,-0.746 l -0.93,-0.293 -0.27,0.66 -0.402,-0.125 0.41,-1.25 0.324,-1.098 0.403,0.129 -0.129,0.582"
       style="fill:#ffffff;fill-opacity:1;fill-rule:nonzero;stroke:none"
       transform="scale(1.3333333)" />
    <path
       id="path30"
       d="m 26.465,37.441 c 0.035,1.411 -0.828,2.477 -2.121,2.508 -1.114,0.024 -2.223,-0.816 -2.258,-2.34 -0.016,-0.695 0,-0.816 0.059,-1.269 l -0.168,-0.024 -0.008,-0.418 0.386,-0.007 1.016,-0.051 0.012,0.418 c -0.637,0.066 -0.832,0.601 -0.817,1.219 0.016,0.652 0.696,1.253 1.704,1.23 0.964,-0.023 1.726,-0.723 1.71,-1.391 -0.015,-0.66 -0.187,-1.003 -0.199,-1.003 -0.121,-0.051 -0.699,-0.098 -0.804,-0.102 l -0.008,-0.418 1.129,-0.027 c 0.203,0.629 0.347,0.824 0.367,1.675"
       style="fill:#ffffff;fill-opacity:1;fill-rule:nonzero;stroke:none"
       transform="scale(1.3333333)" />
    <path
       id="path31"
       d="m 23.406,32.406 1.188,0.66 0.117,-0.933 z m 3.383,-1.351 -0.156,1.359 -0.418,-0.055 0.023,-0.601 -1.004,0.238 -0.171,1.356 0.91,0.503 0.144,-0.73 0.418,0.055 -0.137,0.945 -0.07,0.766 -0.414,-0.055 -0.008,-0.387 -3.422,-1.961 c -0.046,-0.25 -0.179,-0.496 -0.285,-0.675 l 0.02,-0.18 4.176,-1.082 0.113,-0.418 0.418,0.055 -0.137,0.867"
       style="fill:#ffffff;fill-opacity:1;fill-rule:nonzero;stroke:none"
       transform="scale(1.3333333)" />
    <path
       id="path32"
       d="m 24.219,26.098 -0.067,0.234 1.528,0.457 0.054,-0.191 c 0.149,-0.481 -0.164,-0.828 -0.57,-0.95 -0.355,-0.109 -0.797,-0.043 -0.945,0.45 z m 4.64,-1.086 -0.343,0.699 c -0.289,0.602 -1.93,0.816 -2.5,0.973 l -0.055,0.191 1.277,0.383 0.207,-0.473 0.414,0.125 -0.347,1.067 -0.34,1.214 -0.41,-0.125 0.14,-0.683 -3.066,-0.918 -0.211,0.797 -0.422,-0.125 c 0.102,-0.434 0.238,-0.973 0.309,-1.297 0.027,-0.121 0.179,-0.746 0.246,-0.973 0.414,-1.383 0.992,-1.652 1.676,-1.445 0.613,0.183 0.886,0.59 0.816,1.215 0.18,-0.055 1.934,-0.418 2.02,-0.512 0.132,-0.141 0.125,-0.145 0.23,-0.355 l 0.359,0.242"
       style="fill:#ffffff;fill-opacity:1;fill-rule:nonzero;stroke:none"
       transform="scale(1.3333333)" />
    <path
       id="path33"
       d="m 26.41,20.34 c -0.355,0.695 0.246,1.394 1.016,1.785 0.762,0.387 1.703,0.477 2.058,-0.219 0.352,-0.691 -0.3,-1.406 -1.039,-1.781 -0.73,-0.371 -1.683,-0.477 -2.035,0.215 z m 3.488,1.777 c -0.738,1.449 -2.078,1.606 -3.031,1.121 -0.953,-0.488 -1.609,-1.664 -0.871,-3.113 0.731,-1.434 2.063,-1.594 3.016,-1.105 0.929,0.472 1.617,1.664 0.886,3.097"
       style="fill:#ffffff;fill-opacity:1;fill-rule:nonzero;stroke:none"
       transform="scale(1.3333333)" />
    <path
       id="path34"
       d="m 33.621,16.273 -1.109,1.454 -0.364,0.464 -0.789,1.059 -0.336,-0.254 0.375,-0.59 -2.55,-1.945 -0.465,0.519 -0.336,-0.257 0.808,-1.032 0.747,-1.007 0.339,0.257 -0.382,0.586 2.586,1.973 c 0.043,-0.059 0.582,-0.793 0.609,-0.828 0.074,-0.098 0.18,-0.277 0.168,-0.309 -0.012,-0.027 -0.391,-0.57 -0.449,-0.648 l 0.265,-0.344 0.883,0.902"
       style="fill:#ffffff;fill-opacity:1;fill-rule:nonzero;stroke:none"
       transform="scale(1.3333333)" />
    <path
       id="path35"
       d="m 33.238,11.367 c -0.582,0.524 -0.269,1.391 0.305,2.035 0.566,0.637 1.414,1.059 1.996,0.539 0.578,-0.515 0.227,-1.418 -0.324,-2.035 -0.547,-0.609 -1.399,-1.054 -1.977,-0.539 z m 2.614,2.922 c -1.215,1.082 -2.52,0.746 -3.231,-0.055 -0.715,-0.796 -0.902,-2.129 0.309,-3.214 1.199,-1.071 2.5,-0.739 3.211,0.058 0.695,0.777 0.91,2.137 -0.289,3.211"
       style="fill:#ffffff;fill-opacity:1;fill-rule:nonzero;stroke:none"
       transform="scale(1.3333333)" />
    <path
       id="path36"
       d="m 37.492,10.922 -0.504,-0.832 1.879,-1.129 0.504,0.836 -1.879,1.125"
       style="fill:#ffffff;fill-opacity:1;fill-rule:nonzero;stroke:none"
       transform="scale(1.3333333)" />
    <path
       id="path37"
       d="M 44.746,5.375 44.539,9.449 43.922,9.66 42.609,8.195 42.508,10.145 41.844,10.375 39.098,7.313 38.676,7.402 38.539,7.004 39.441,6.711 40.398,6.367 40.535,6.766 40.238,6.914 42.066,9.02 42.09,7.617 41.176,6.602 40.848,6.656 40.711,6.258 41.523,5.996 42.629,5.602 42.766,6 l -0.489,0.215 1.821,2.109 0.066,-2.75 -0.535,0.129 -0.141,-0.398 0.848,-0.274 0.66,-0.265 0.145,0.418 -0.395,0.191"
       style="fill:#ffffff;fill-opacity:1;fill-rule:nonzero;stroke:none"
       transform="scale(1.3333333)" />
    <path
       id="path38"
       d="M 48.02,8.824 46.727,8.93 46.699,8.508 47.391,8.398 47.164,5.199 46.469,5.195 46.441,4.773 l 1.293,-0.074 1.262,-0.105 0.031,0.422 -0.691,0.101 0.223,3.199 0.699,0.012 0.031,0.422 -1.269,0.074"
       style="fill:#ffffff;fill-opacity:1;fill-rule:nonzero;stroke:none"
       transform="scale(1.3333333)" />
    <path
       id="path39"
       d="M 54.227,9.324 52.426,9.035 51.844,8.93 50.535,8.738 50.602,8.32 l 0.699,0.051 0.512,-3.168 -0.68,-0.16 0.07,-0.418 1.293,0.227 1.238,0.183 -0.066,0.418 -0.695,-0.062 -0.52,3.211 c 0.067,0.011 0.969,0.14 1.016,0.144 0.117,0.02 0.328,0.027 0.351,0.008 0.02,-0.024 0.317,-0.613 0.36,-0.703 l 0.429,0.07 -0.382,1.203"
       style="fill:#ffffff;fill-opacity:1;fill-rule:nonzero;stroke:none"
       transform="scale(1.3333333)" />
    <path
       id="path40"
       d="m 59.254,11.43 -1.199,-0.559 0.183,-0.379 0.66,0.25 0.594,-1.238 -1.828,-0.875 -0.59,1.234 0.598,0.356 -0.184,0.383 -1.136,-0.567 -1.176,-0.547 0.183,-0.383 0.657,0.25 1.39,-2.894 -0.605,-0.348 0.183,-0.379 1.161,0.575 1.148,0.535 -0.184,0.383 -0.648,-0.254 -0.582,1.211 1.828,0.879 0.582,-1.215 -0.613,-0.352 0.183,-0.379 1.129,0.563 1.192,0.55 -0.184,0.383 -0.656,-0.258 -1.391,2.891 0.606,0.359 -0.18,0.383 -1.121,-0.558"
       style="fill:#ffffff;fill-opacity:1;fill-rule:nonzero;stroke:none"
       transform="scale(1.3333333)" />
    <path
       id="path41"
       d="m 62.473,13.789 -0.446,-0.391 -1.066,-0.882 0.273,-0.321 0.618,0.442 2.078,-2.453 -0.485,-0.5 0.274,-0.325 0.984,0.871 0.695,0.567 0.743,0.629 0.183,-0.149 0.328,0.274 -0.218,0.258 -0.645,0.8 -0.32,-0.273 0.312,-0.551 -0.972,-0.82 -0.84,0.992 0.722,0.613 0.352,-0.32 0.32,0.27 -0.953,1.125 -0.32,-0.274 0.277,-0.418 -0.722,-0.613 -0.79,0.926 c -0.042,0.054 -0.085,0.105 -0.085,0.117 0.062,0.062 0.117,0.133 0.273,0.269 0.227,0.192 0.535,0.461 0.559,0.485 0.093,0.078 0.253,0.211 0.269,0.203 0.031,-0.008 0.406,-0.356 0.481,-0.43 l 0.324,0.278 -0.723,0.855 -1.48,-1.254"
       style="fill:#ffffff;fill-opacity:1;fill-rule:nonzero;stroke:none"
       transform="scale(1.3333333)" />
    <path
       id="path42"
       d="m 67.023,18.727 -1.14,-1.426 -0.363,-0.465 -0.84,-1.02 0.328,-0.265 0.484,0.504 2.5,-2.008 -0.394,-0.574 0.332,-0.266 0.804,1.035 0.801,0.969 -0.332,0.262 L 68.727,14.965 66.191,17 c 0.043,0.051 0.629,0.754 0.657,0.789 0.074,0.094 0.226,0.242 0.257,0.238 0.032,-0.004 0.649,-0.242 0.739,-0.281 l 0.269,0.34 -1.09,0.641"
       style="fill:#ffffff;fill-opacity:1;fill-rule:nonzero;stroke:none"
       transform="scale(1.3333333)" />
    <path
       id="path43"
       d="m 69.945,24.027 -0.504,-0.964 0.375,-0.188 0.27,0.418 2.398,-1.254 -3.703,0.063 2.059,-2.875 -2.27,1.054 0.207,0.528 -0.375,0.191 -0.3,-0.629 -0.508,-0.973 0.379,-0.191 0.34,0.563 2.929,-1.352 -0.269,-0.652 0.379,-0.192 0.488,0.992 0.316,0.61 -1.679,2.304 2.8,-0.074 0.243,0.5 0.675,1.317 -0.379,0.191 -0.375,-0.633 -2.839,1.539 0.285,0.676 -0.379,0.188 -0.563,-1.157"
       style="fill:#ffffff;fill-opacity:1;fill-rule:nonzero;stroke:none"
       transform="scale(1.3333333)" />
    <path
       id="path44"
       d="m 71.102,27.402 -0.387,-1.238 0.402,-0.117 0.258,0.648 3.078,-0.914 -0.152,-0.683 0.406,-0.118 0.352,1.247 0.379,1.211 -0.403,0.121 -0.25,-0.653 -3.074,0.914 0.141,0.684 -0.407,0.121 -0.343,-1.223"
       style="fill:#ffffff;fill-opacity:1;fill-rule:nonzero;stroke:none"
       transform="scale(1.3333333)" />
    <path
       id="path45"
       d="m 76.051,33.645 -3.707,0.515 -0.102,-0.722 2.594,-2.829 -2.41,0.336 0.039,0.645 -0.43,0.058 -0.097,-0.898 -0.165,-0.996 0.418,-0.059 0.141,0.629 3.074,-0.426 c 0.114,-0.128 0.11,-0.347 0.051,-0.769 l 0.438,-0.063 0.234,1.707 -2.34,2.571 2.176,-0.301 -0.035,-0.645 0.418,-0.058 0.117,0.898 0.144,0.989 -0.418,0.058 -0.14,-0.64"
       style="fill:#ffffff;fill-opacity:1;fill-rule:nonzero;stroke:none"
       transform="scale(1.3333333)" />
    <path
       id="path46"
       d="m 75.648,37.508 -1.246,-0.531 -0.019,0.941 z m -3.218,1.695 0.011,-1.367 0.422,0.012 0.039,0.601 0.977,-0.344 0.027,-1.367 -0.957,-0.402 -0.066,0.738 -0.422,-0.011 0.035,-0.954 -0.008,-0.765 0.414,0.008 0.051,0.382 3.606,1.594 c 0.074,0.246 0.23,0.477 0.355,0.645 l -0.004,0.183 -4.035,1.508 -0.07,0.426 -0.422,-0.008 0.047,-0.879"
       style="fill:#ffffff;fill-opacity:1;fill-rule:nonzero;stroke:none"
       transform="scale(1.3333333)" />
    <path
       id="path47"
       d="m 92.547,17.336 v 8.355 H 90.73 v -8.355 h -2.906 v -1.547 h 7.649 v 1.547 h -2.926"
       style="fill:#ffffff;fill-opacity:1;fill-rule:nonzero;stroke:none"
       transform="scale(1.3333333)" />
    <path
       id="path48"
       d="m 98.531,20.066 c -0.226,0 -0.703,0.164 -0.765,0.211 -0.028,0.028 -0.481,0.465 -0.567,1.094 h 2.699 C 99.836,20.59 99.703,20.066 98.531,20.066 Z m -1.394,2.43 c 0.043,0.93 0.718,1.844 1.769,1.844 0.723,0 1.516,-0.301 2.356,-0.988 l 0.164,1.769 c -0.809,0.481 -1.543,0.766 -2.879,0.766 -1.906,0 -3.328,-1.352 -3.328,-3.571 0,-2.25 1.379,-3.601 3.312,-3.601 2.324,0 3,1.23 3,3.781 h -4.394"
       style="fill:#ffffff;fill-opacity:1;fill-rule:nonzero;stroke:none"
       transform="scale(1.3333333)" />
    <path
       id="path49"
       d="m 106.543,25.887 c -1.98,0 -3.359,-1.336 -3.359,-3.645 0,-2.461 1.648,-3.527 3.179,-3.527 1.395,0 2.567,0.316 2.567,1.41 v 0.391 c 0,0.121 0,0.238 -0.016,0.39 h -1.758 c 0,-0.629 -0.164,-0.75 -0.644,-0.75 -0.317,0 -0.465,0.028 -0.571,0.074 -0.148,0.059 -0.839,0.434 -0.839,1.965 0,1.754 0.992,2.145 1.753,2.145 0.465,0 1.008,-0.031 1.997,-0.871 l 0.168,1.679 c -0.95,0.559 -1.637,0.739 -2.477,0.739"
       style="fill:#ffffff;fill-opacity:1;fill-rule:nonzero;stroke:none"
       transform="scale(1.3333333)" />
    <path
       id="path50"
       d="m 117.059,25.691 h -1.817 c 0.031,-1.726 0.059,-2.086 0.059,-3 0,-1.921 -0.059,-2.402 -0.809,-2.402 -0.285,0 -0.734,0.063 -0.855,0.152 -0.106,0.075 -0.586,0.434 -0.899,0.809 v 4.441 h -1.816 V 14.742 h 1.816 v 4.77 c 0.524,-0.528 1.125,-0.797 1.86,-0.797 2.324,0 2.535,1.441 2.535,2.953 0,0.273 -0.016,0.559 -0.016,0.828 -0.015,0.973 -0.015,1.484 -0.058,3.195"
       style="fill:#ffffff;fill-opacity:1;fill-rule:nonzero;stroke:none"
       transform="scale(1.3333333)" />
    <path
       id="path51"
       d="m 125.367,25.691 h -1.812 c 0.043,-1.98 0.058,-2.16 0.058,-3.449 0,-0.258 0,-0.558 -0.031,-0.844 -0.059,-0.867 -0.238,-1.109 -0.777,-1.109 -0.285,0 -0.766,0.063 -0.856,0.152 -0.105,0.075 -0.601,0.434 -0.902,0.809 v 4.441 h -1.813 v -4.785 c 0,-0.601 -0.105,-1.636 -0.179,-2.011 h 1.617 l 0.18,0.796 c 0.601,-0.675 1.277,-0.976 2.054,-0.976 2.324,0 2.535,1.441 2.535,2.953 v 0.828 c -0.011,0.973 -0.027,1.484 -0.074,3.195"
       style="fill:#ffffff;fill-opacity:1;fill-rule:nonzero;stroke:none"
       transform="scale(1.3333333)" />
    <path
       id="path52"
       d="m 127.484,25.691 v -6.796 h 1.813 v 6.796 z m 0.899,-8.086 c -0.57,0 -1.067,-0.496 -1.067,-1.093 0,-0.602 0.497,-1.082 1.067,-1.082 0.586,0 1.051,0.465 1.051,1.066 0,0.598 -0.465,1.109 -1.051,1.109"
       style="fill:#ffffff;fill-opacity:1;fill-rule:nonzero;stroke:none"
       transform="scale(1.3333333)" />
    <path
       id="path53"
       d="m 133.453,25.887 c -0.855,0 -1.726,-0.18 -2.488,-0.66 l 0.191,-1.5 c 0.797,0.464 1.262,0.671 2.25,0.671 0.871,0 1.067,-0.269 1.067,-0.492 0,-1.082 -3.528,-0.781 -3.528,-3.226 0,-1.215 1.024,-1.965 2.809,-1.965 0.867,0 1.394,0.18 2.34,0.601 l -0.211,1.59 c -0.914,-0.676 -1.727,-0.738 -2.219,-0.738 -0.301,0 -0.902,0.078 -0.902,0.453 0,1.02 3.554,0.856 3.554,3.133 0,1.141 -0.988,2.133 -2.863,2.133"
       style="fill:#ffffff;fill-opacity:1;fill-rule:nonzero;stroke:none"
       transform="scale(1.3333333)" />
    <path
       id="path54"
       d="m 141.117,25.887 c -1.98,0 -3.359,-1.336 -3.359,-3.645 0,-2.461 1.648,-3.527 3.18,-3.527 1.394,0 2.566,0.316 2.566,1.41 v 0.391 c 0,0.121 0,0.238 -0.016,0.39 h -1.758 c 0,-0.629 -0.164,-0.75 -0.644,-0.75 -0.316,0 -0.465,0.028 -0.57,0.074 -0.149,0.059 -0.84,0.434 -0.84,1.965 0,1.754 0.992,2.145 1.758,2.145 0.461,0 1.004,-0.031 1.992,-0.871 l 0.168,1.679 c -0.949,0.559 -1.637,0.739 -2.477,0.739"
       style="fill:#ffffff;fill-opacity:1;fill-rule:nonzero;stroke:none"
       transform="scale(1.3333333)" />
    <path
       id="path55"
       d="m 151.332,25.691 h -1.816 c 0.031,-1.726 0.058,-2.086 0.058,-3 0,-1.921 -0.058,-2.402 -0.808,-2.402 -0.286,0 -0.735,0.063 -0.856,0.152 -0.101,0.075 -0.586,0.434 -0.898,0.809 v 4.441 h -1.817 V 14.742 h 1.817 v 4.77 c 0.523,-0.528 1.125,-0.797 1.859,-0.797 2.324,0 2.535,1.441 2.535,2.953 0,0.273 -0.015,0.559 -0.015,0.828 -0.016,0.973 -0.016,1.484 -0.059,3.195"
       style="fill:#ffffff;fill-opacity:1;fill-rule:nonzero;stroke:none"
       transform="scale(1.3333333)" />
    <path
       id="path56"
       d="m 156.266,20.066 c -0.227,0 -0.703,0.164 -0.766,0.211 -0.027,0.028 -0.48,0.465 -0.566,1.094 h 2.699 c -0.063,-0.781 -0.195,-1.305 -1.367,-1.305 z m -1.395,2.43 c 0.043,0.93 0.719,1.844 1.77,1.844 0.718,0 1.515,-0.301 2.355,-0.988 l 0.164,1.769 c -0.808,0.481 -1.543,0.766 -2.879,0.766 -1.906,0 -3.332,-1.352 -3.332,-3.571 0,-2.25 1.383,-3.601 3.317,-3.601 2.324,0 3,1.23 3,3.781 h -4.395"
       style="fill:#ffffff;fill-opacity:1;fill-rule:nonzero;stroke:none"
       transform="scale(1.3333333)" />
    <path
       id="path57"
       d="m 96.91,38.164 c 0,2.582 -1.765,3.707 -4.199,3.707 -2.023,0 -3.941,-1.183 -3.941,-3.332 v -6.734 h 1.812 v 6.316 c 0,1.754 1.246,2.192 2.191,2.192 1.137,0 2.325,-0.454 2.325,-2.208 v -6.3 h 1.812 v 6.359"
       style="fill:#ffffff;fill-opacity:1;fill-rule:nonzero;stroke:none"
       transform="scale(1.3333333)" />
    <path
       id="path58"
       d="m 104.98,41.691 h -1.812 c 0.043,-1.98 0.059,-2.16 0.059,-3.449 0,-0.258 0,-0.554 -0.032,-0.84 -0.058,-0.871 -0.238,-1.113 -0.777,-1.113 -0.285,0 -0.766,0.063 -0.855,0.152 -0.106,0.075 -0.602,0.434 -0.903,0.809 v 4.441 h -1.812 v -4.785 c 0,-0.601 -0.106,-1.636 -0.18,-2.011 h 1.617 l 0.184,0.796 c 0.597,-0.675 1.273,-0.976 2.054,-0.976 2.325,0 2.536,1.441 2.536,2.957 v 0.824 c -0.016,0.973 -0.032,1.484 -0.079,3.195"
       style="fill:#ffffff;fill-opacity:1;fill-rule:nonzero;stroke:none"
       transform="scale(1.3333333)" />
    <path
       id="path59"
       d="m 107.203,41.691 v -6.796 h 1.813 v 6.796 z m 0.899,-8.086 c -0.571,0 -1.067,-0.496 -1.067,-1.093 0,-0.602 0.496,-1.082 1.067,-1.082 0.586,0 1.05,0.465 1.05,1.066 0,0.598 -0.464,1.109 -1.05,1.109"
       style="fill:#ffffff;fill-opacity:1;fill-rule:nonzero;stroke:none"
       transform="scale(1.3333333)" />
    <path
       id="path60"
       d="m 114.324,41.887 h -1.363 l -2.535,-6.992 h 1.953 l 1.305,4.14 1.332,-4.14 h 1.832 l -2.524,6.992"
       style="fill:#ffffff;fill-opacity:1;fill-rule:nonzero;stroke:none"
       transform="scale(1.3333333)" />
    <path
       id="path61"
       d="m 121.195,36.066 c -0.222,0 -0.703,0.164 -0.761,0.211 -0.032,0.028 -0.481,0.465 -0.571,1.094 h 2.7 c -0.059,-0.781 -0.196,-1.305 -1.368,-1.305 z m -1.394,2.43 c 0.047,0.93 0.719,1.844 1.769,1.844 0.723,0 1.516,-0.301 2.356,-0.988 l 0.168,1.769 c -0.813,0.481 -1.547,0.766 -2.883,0.766 -1.902,0 -3.328,-1.352 -3.328,-3.571 0,-2.25 1.379,-3.601 3.312,-3.601 2.325,0 3,1.23 3,3.781 h -4.394"
       style="fill:#ffffff;fill-opacity:1;fill-rule:nonzero;stroke:none"
       transform="scale(1.3333333)" />
    <path
       id="path62"
       d="m 128.922,36.938 c -0.016,-0.333 0.016,-0.708 -0.27,-0.708 -0.242,0 -0.422,0.317 -0.707,0.825 v 4.636 h -1.812 v -4.8 c 0,-0.661 -0.074,-1.336 -0.18,-1.996 h 1.617 l 0.184,0.812 c 0.254,-0.48 0.883,-0.977 1.437,-0.977 0.903,0 1.204,0.555 1.204,1.379 0,0.211 -0.016,0.438 -0.047,0.649 l -1.426,0.18"
       style="fill:#ffffff;fill-opacity:1;fill-rule:nonzero;stroke:none"
       transform="scale(1.3333333)" />
    <path
       id="path63"
       d="m 134.066,41.887 c -0.855,0 -1.722,-0.18 -2.488,-0.66 l 0.192,-1.5 c 0.796,0.464 1.261,0.675 2.25,0.675 0.871,0 1.066,-0.269 1.066,-0.496 0,-1.082 -3.523,-0.781 -3.523,-3.226 0,-1.215 1.019,-1.965 2.804,-1.965 0.871,0 1.395,0.18 2.34,0.601 l -0.211,1.59 c -0.914,-0.676 -1.726,-0.734 -2.219,-0.734 -0.3,0 -0.898,0.074 -0.898,0.449 0,1.02 3.555,0.856 3.555,3.137 0,1.137 -0.993,2.129 -2.868,2.129"
       style="fill:#ffffff;fill-opacity:1;fill-rule:nonzero;stroke:none"
       transform="scale(1.3333333)" />
    <path
       id="path64"
       d="m 138.809,41.691 v -6.796 h 1.812 v 6.796 z m 0.898,-8.086 c -0.57,0 -1.066,-0.496 -1.066,-1.093 0,-0.602 0.496,-1.082 1.066,-1.082 0.582,0 1.051,0.465 1.051,1.066 0,0.598 -0.469,1.109 -1.051,1.109"
       style="fill:#ffffff;fill-opacity:1;fill-rule:nonzero;stroke:none"
       transform="scale(1.3333333)" />
    <path
       id="path65"
       d="m 145.074,41.887 c -1.015,0 -1.765,-0.645 -1.765,-1.907 v -3.871 h -0.993 V 34.91 h 0.993 v -2.308 h 1.785 v 2.293 h 1.48 v 1.199 h -1.48 v 3.527 c 0,0.66 0.176,0.692 0.344,0.692 0.406,0 0.929,-0.301 1.257,-0.497 l 0.18,1.5 c -0.586,0.329 -1.23,0.571 -1.801,0.571"
       style="fill:#ffffff;fill-opacity:1;fill-rule:nonzero;stroke:none"
       transform="scale(1.3333333)" />
    <path
       id="path66"
       d="m 152.41,33.801 c -0.539,0 -0.961,-0.449 -0.961,-0.988 0,-0.555 0.391,-1.036 0.961,-1.036 0.539,0 0.961,0.481 0.961,1.02 0,0.555 -0.422,1.004 -0.961,1.004 z m -0.57,4.918 c -0.719,0.183 -1.11,0.301 -1.77,0.586 -0.074,0.211 -0.09,0.285 -0.09,0.511 0,0.391 0.09,0.719 0.54,0.719 0.332,0 0.796,-0.222 1.32,-0.808 z m -1.965,-4.918 c -0.539,0 -0.961,-0.449 -0.961,-0.988 0,-0.555 0.395,-1.036 0.961,-1.036 0.539,0 0.961,0.481 0.961,1.02 0,0.555 -0.422,1.004 -0.961,1.004 z m 2.387,7.89 c -0.09,-0.285 -0.106,-0.406 -0.18,-0.796 -0.332,0.48 -1.019,0.992 -1.891,0.992 -1.183,0 -1.98,-0.723 -1.98,-1.696 0,-0.601 0.121,-1.171 0.328,-1.425 0.363,-0.481 2.371,-1.036 3.301,-1.215 v -0.512 c 0,-0.734 -0.106,-0.973 -0.867,-0.973 -0.301,0 -0.871,0.016 -0.961,0.164 -0.09,0.165 -0.074,0.27 -0.09,0.528 l -1.473,0.133 c 0,-0.106 -0.011,-0.196 -0.011,-0.286 0,-0.375 0.058,-0.691 0.148,-1.019 0.074,-0.27 1.156,-0.871 2.535,-0.871 1.59,0 2.551,0.738 2.551,1.949 v 3.016 c 0,0.75 0.133,1.5 0.238,2.011 h -1.648"
       style="fill:#ffffff;fill-opacity:1;fill-rule:nonzero;stroke:none"
       transform="scale(1.3333333)" />
    <path
       id="path67"
       d="m 157.813,41.887 c -1.024,0 -1.774,-0.645 -1.774,-1.907 v -3.871 h -0.988 V 34.91 h 0.988 v -2.308 h 1.785 v 2.293 h 1.489 v 1.199 h -1.489 v 3.527 c 0,0.66 0.184,0.692 0.348,0.692 0.402,0 0.93,-0.301 1.258,-0.497 l 0.179,1.5 c -0.586,0.329 -1.226,0.571 -1.796,0.571"
       style="fill:#ffffff;fill-opacity:1;fill-rule:nonzero;stroke:none"
       transform="scale(1.3333333)" />
    <path
       id="path68"
       d="m 92.426,53.191 h -1.617 v 3.032 h 1.527 c 1.426,0 1.98,-0.465 1.98,-1.532 0,-1.003 -0.718,-1.5 -1.89,-1.5 z m -0.18,-3.988 -1.437,0.012 v 2.508 h 1.304 c 1.184,0 1.606,-0.512 1.606,-1.262 0,-0.691 -0.496,-1.258 -1.473,-1.258 z m 0.649,8.488 h -3.903 v -9.824 c 1.168,-0.078 2.34,-0.137 3.528,-0.137 2.234,0 3.132,1.231 3.132,2.52 0,0.855 -0.433,1.801 -1.257,2.117 1.125,0.149 1.859,1.231 1.859,2.52 0,1.679 -1.383,2.804 -3.359,2.804"
       style="fill:#ffffff;fill-opacity:1;fill-rule:nonzero;stroke:none"
       transform="scale(1.3333333)" />
    <path
       id="path69"
       d="m 100.691,52.938 c -0.015,-0.333 0.016,-0.708 -0.269,-0.708 -0.238,0 -0.418,0.317 -0.703,0.825 v 4.636 h -1.817 v -4.8 c 0,-0.661 -0.074,-1.336 -0.179,-1.996 h 1.621 l 0.179,0.812 c 0.254,-0.48 0.883,-0.977 1.438,-0.977 0.898,0 1.199,0.555 1.199,1.379 0,0.211 -0.015,0.438 -0.043,0.649 l -1.426,0.18"
       style="fill:#ffffff;fill-opacity:1;fill-rule:nonzero;stroke:none"
       transform="scale(1.3333333)" />
    <path
       id="path70"
       d="m 106.602,54.723 c -0.719,0.179 -1.11,0.297 -1.77,0.582 -0.074,0.211 -0.09,0.285 -0.09,0.511 0,0.391 0.09,0.719 0.539,0.719 0.332,0 0.797,-0.222 1.321,-0.808 z m 0.418,2.968 c -0.086,-0.285 -0.102,-0.406 -0.176,-0.796 -0.332,0.48 -1.024,0.992 -1.891,0.992 -1.187,0 -1.98,-0.723 -1.98,-1.696 0,-0.601 0.121,-1.171 0.328,-1.425 0.359,-0.481 2.371,-1.036 3.301,-1.215 v -0.512 c 0,-0.734 -0.106,-0.973 -0.872,-0.973 -0.296,0 -0.867,0.016 -0.957,0.164 -0.089,0.165 -0.078,0.27 -0.089,0.528 l -1.473,0.133 c 0,-0.106 -0.016,-0.196 -0.016,-0.286 0,-0.375 0.063,-0.691 0.153,-1.019 0.074,-0.27 1.156,-0.871 2.535,-0.871 1.59,0 2.551,0.738 2.551,1.949 v 3.016 c 0,0.75 0.132,1.5 0.238,2.011 h -1.652"
       style="fill:#ffffff;fill-opacity:1;fill-rule:nonzero;stroke:none"
       transform="scale(1.3333333)" />
    <path
       id="path71"
       d="m 115.074,57.691 -0.179,-0.796 c -0.54,0.632 -1.211,0.992 -2.055,0.992 -1.801,0 -2.457,-0.824 -2.457,-2.535 v -4.457 h 1.812 v 4.304 c 0,0.617 0.047,1.114 0.766,1.114 0.195,0 0.644,-0.032 0.824,-0.137 0.242,-0.18 0.707,-0.571 0.914,-0.824 v -4.457 h 1.817 v 4.785 c 0,0.675 0.074,1.351 0.179,2.011 h -1.621"
       style="fill:#ffffff;fill-opacity:1;fill-rule:nonzero;stroke:none"
       transform="scale(1.3333333)" />
    <path
       id="path72"
       d="m 124.691,57.691 h -1.812 c 0.043,-1.98 0.059,-2.16 0.059,-3.449 0,-0.258 0,-0.554 -0.032,-0.84 -0.058,-0.871 -0.238,-1.113 -0.777,-1.113 -0.285,0 -0.766,0.063 -0.856,0.152 -0.105,0.075 -0.601,0.434 -0.902,0.809 v 4.441 h -1.812 v -4.785 c 0,-0.601 -0.106,-1.636 -0.18,-2.011 h 1.617 l 0.18,0.796 c 0.601,-0.675 1.277,-0.976 2.054,-0.976 2.329,0 2.536,1.441 2.536,2.957 v 0.824 c -0.012,0.977 -0.028,1.484 -0.075,3.195"
       style="fill:#ffffff;fill-opacity:1;fill-rule:nonzero;stroke:none"
       transform="scale(1.3333333)" />
    <path
       id="path73"
       d="m 128.922,57.887 c -0.856,0 -1.727,-0.18 -2.488,-0.66 l 0.195,-1.5 c 0.793,0.464 1.258,0.675 2.25,0.675 0.867,0 1.062,-0.269 1.062,-0.496 0,-1.082 -3.523,-0.781 -3.523,-3.226 0,-1.215 1.02,-1.965 2.805,-1.965 0.871,0 1.394,0.18 2.34,0.601 l -0.211,1.59 c -0.914,-0.676 -1.723,-0.734 -2.219,-0.734 -0.301,0 -0.903,0.074 -0.903,0.449 0,1.02 3.555,0.856 3.555,3.137 0,1.137 -0.988,2.129 -2.863,2.129"
       style="fill:#ffffff;fill-opacity:1;fill-rule:nonzero;stroke:none"
       transform="scale(1.3333333)" />
    <path
       id="path74"
       d="m 136.242,57.887 c -1.98,0 -3.359,-1.336 -3.359,-3.645 0,-2.461 1.648,-3.527 3.18,-3.527 1.394,0 2.566,0.316 2.566,1.41 v 0.391 c 0,0.121 0,0.242 -0.016,0.39 h -1.758 c 0,-0.629 -0.164,-0.75 -0.644,-0.75 -0.316,0 -0.465,0.032 -0.57,0.074 -0.149,0.059 -0.84,0.434 -0.84,1.965 0,1.754 0.992,2.145 1.758,2.145 0.461,0 1.004,-0.027 1.992,-0.867 l 0.168,1.679 c -0.949,0.555 -1.637,0.735 -2.477,0.735"
       style="fill:#ffffff;fill-opacity:1;fill-rule:nonzero;stroke:none"
       transform="scale(1.3333333)" />
    <path
       id="path75"
       d="m 146.41,57.691 h -1.812 c 0.031,-1.726 0.058,-2.086 0.058,-3 0,-1.921 -0.058,-2.402 -0.808,-2.402 -0.285,0 -0.739,0.063 -0.856,0.152 -0.105,0.075 -0.586,0.434 -0.898,0.809 v 4.441 h -1.817 V 46.742 h 1.817 v 4.77 c 0.523,-0.528 1.125,-0.797 1.855,-0.797 2.328,0 2.535,1.441 2.535,2.957 0,0.269 -0.011,0.555 -0.011,0.824 -0.016,0.977 -0.016,1.484 -0.063,3.195"
       style="fill:#ffffff;fill-opacity:1;fill-rule:nonzero;stroke:none"
       transform="scale(1.3333333)" />
    <path
       id="path76"
       d="m 154.887,57.887 h -1.02 l -1.383,-3.196 -1.257,3.196 h -1.036 l -2.714,-6.992 h 1.918 l 1.441,3.918 1.648,-4.141 1.758,4.215 1.395,-3.992 h 1.754 l -2.504,6.992"
       style="fill:#ffffff;fill-opacity:1;fill-rule:nonzero;stroke:none"
       transform="scale(1.3333333)" />
    <path
       id="path77"
       d="m 161.219,52.066 c -0.227,0 -0.707,0.164 -0.77,0.211 -0.027,0.028 -0.476,0.465 -0.566,1.094 h 2.699 c -0.062,-0.781 -0.195,-1.305 -1.363,-1.305 z m -1.399,2.43 c 0.047,0.93 0.719,1.844 1.774,1.844 0.719,0 1.511,-0.301 2.351,-0.988 l 0.164,1.769 c -0.808,0.481 -1.543,0.766 -2.879,0.766 -1.906,0 -3.328,-1.352 -3.328,-3.571 0,-2.25 1.379,-3.601 3.317,-3.601 2.32,0 3,1.23 3,3.781 h -4.399"
       style="fill:#ffffff;fill-opacity:1;fill-rule:nonzero;stroke:none"
       transform="scale(1.3333333)" />
    <path
       id="path78"
       d="m 166.004,57.691 v -6.796 h 1.812 v 6.796 z m 0.898,-8.086 c -0.57,0 -1.066,-0.496 -1.066,-1.093 0,-0.602 0.496,-1.082 1.066,-1.082 0.582,0 1.047,0.465 1.047,1.066 0,0.598 -0.465,1.109 -1.047,1.109"
       style="fill:#ffffff;fill-opacity:1;fill-rule:nonzero;stroke:none"
       transform="scale(1.3333333)" />
    <path
       id="path79"
       d="m 172.723,52.082 c -0.481,0 -0.813,0.164 -0.887,0.238 -0.074,0.075 -0.344,0.465 -0.344,0.993 0,0.734 0.449,1.257 1.231,1.257 0.402,0 0.793,-0.195 0.851,-0.238 0.078,-0.074 0.348,-0.359 0.348,-1.019 0,-0.723 -0.332,-1.231 -1.199,-1.231 z m 0.957,6.285 c -0.719,0 -1.11,0.059 -1.797,0.074 -0.422,0.301 -0.738,0.598 -0.738,0.989 0,0.57 0.453,0.734 1.425,0.734 1.41,0 2.071,-0.762 2.071,-1.332 0,-0.391 -0.043,-0.465 -0.961,-0.465 z m 2.027,-5.851 c 0.09,0.269 0.133,0.449 0.133,0.781 0,1.605 -1.231,2.683 -3.164,2.683 -0.27,0 -0.539,-0.015 -0.899,-0.121 -0.242,0.243 -0.437,0.391 -0.437,0.692 0,0.254 0.226,0.332 0.375,0.332 0.75,0 1.394,-0.078 2.144,-0.078 1.621,0 2.625,0.226 2.625,1.8 0,1.965 -2.129,2.958 -4.093,2.958 -1.59,0 -2.942,-0.286 -2.942,-1.637 0,-0.988 0.739,-1.383 1.215,-1.649 -0.387,-0.121 -1.031,-0.422 -1.031,-1.203 0,-0.734 0.808,-1.094 1.363,-1.558 -0.887,-0.496 -1.426,-1.02 -1.426,-2.219 0,-1.484 1.278,-2.582 3.121,-2.582 0.946,0 1.395,0.242 1.817,0.496 0.344,0 1.422,0 2.324,-0.238 v 1.543 h -1.125"
       style="fill:#ffffff;fill-opacity:1;fill-rule:nonzero;stroke:none"
       transform="scale(1.3333333)" />
  </g>
</svg>
