<?xml version="1.0" encoding="UTF-8" standalone="no"?>
<!-- Created with Inkscape (http://www.inkscape.org/) -->

<svg
   version="1.1"
   id="svg1"
   width="793.33331"
   height="830.66669"
   viewBox="0 0 793.33331 830.66669"
   sodipodi:docname="01_UPAI.ai"
   xmlns:inkscape="http://www.inkscape.org/namespaces/inkscape"
   xmlns:sodipodi="http://sodipodi.sourceforge.net/DTD/sodipodi-0.dtd"
   xmlns="http://www.w3.org/2000/svg"
   xmlns:svg="http://www.w3.org/2000/svg">
  <defs
     id="defs1" />
  <sodipodi:namedview
     id="namedview1"
     pagecolor="#ffffff"
     bordercolor="#000000"
     borderopacity="0.25"
     inkscape:showpageshadow="2"
     inkscape:pageopacity="0.0"
     inkscape:pagecheckerboard="0"
     inkscape:deskcolor="#d1d1d1">
    <inkscape:page
       x="0"
       y="0"
       inkscape:label="1"
       id="page1"
       width="793.33331"
       height="830.66669"
       margin="36.066399 39.079426 34.710934 39.004559"
       bleed="0" />
  </sodipodi:namedview>
  <g
     id="g1"
     inkscape:groupmode="layer"
     inkscape:label="1">
    <g
       id="group-MC0">
      <path
         id="path2"
         d="m 47.20898,-402.43994 c 5.6836,1.83594 11.792,-1.26953 13.63282,-6.95313 1.84082,-5.68359 -1.26465,-11.78711 -6.94825,-13.63281 -5.68359,-1.85547 -11.78222,1.26953 -13.62304,6.95313 -1.85059,5.68359 1.25488,11.77734 6.93847,13.63281 z"
         style="fill:#102d57;fill-opacity:1;fill-rule:nonzero;stroke:none"
         transform="matrix(1.3333333,0,0,1.3333333,0,830.66667)" />
      <path
         id="path3"
         d="m 41.75,-268.74902 c 5.90332,-0.9375 9.93652,-6.47461 8.99902,-12.37305 -0.93261,-5.9082 -6.47461,-9.93164 -12.38281,-8.99414 -5.89844,0.9375 -9.92187,6.46484 -8.97461,12.38281 0.92774,5.89844 6.45996,9.91211 12.3584,8.98438 z"
         style="fill:#102d57;fill-opacity:1;fill-rule:nonzero;stroke:none"
         transform="matrix(1.3333333,0,0,1.3333333,0,830.66667)" />
      <path
         id="path4"
         d="m 97.59473,-147.14746 c 4.83398,-3.51563 5.9082,-10.2832 2.41211,-15.11719 -3.52539,-4.83398 -10.29297,-5.89844 -15.13672,-2.38281 -4.83399,3.49609 -5.88867,10.26367 -2.37305,15.10742 3.50586,4.83399 10.26367,5.9082 15.09766,2.39258 z"
         style="fill:#102d57;fill-opacity:1;fill-rule:nonzero;stroke:none"
         transform="matrix(1.3333333,0,0,1.3333333,0,830.66667)" />
      <path
         id="path5"
         d="m 202.5459,-64.14941 c 2.72461,-5.32227 0.60547,-11.84571 -4.70703,-14.56055 -5.3418,-2.71484 -11.84571,-0.58594 -14.57032,4.73633 -2.70507,5.32226 -0.58593,11.82617 4.75586,14.55078 5.32227,2.71484 11.80664,0.5957 14.52149,-4.72656 z"
         style="fill:#102d57;fill-opacity:1;fill-rule:nonzero;stroke:none"
         transform="matrix(1.3333333,0,0,1.3333333,0,830.66667)" />
      <path
         id="path6"
         d="m 333.75684,-37.85059 c 0,-5.98632 -4.82422,-10.82031 -10.80079,-10.82031 -5.99609,0 -10.83984,4.83399 -10.83984,10.82031 0,5.97657 4.84375,10.81055 10.83984,10.80079 5.9668,0.0098 10.80079,-4.82422 10.80079,-10.80079 z"
         style="fill:#102d57;fill-opacity:1;fill-rule:nonzero;stroke:none"
         transform="matrix(1.3333333,0,0,1.3333333,0,830.66667)" />
      <path
         id="path7"
         d="m 161.21777,-557.77197 c 0,0 -4.75586,4.04297 -4.75586,4.04297 0,0 20.55664,24.13086 20.55664,24.13086 5.77149,6.76757 7.08985,13.19335 4.25782,20.51757 -1.46485,3.66211 -3.86719,7.01172 -6.97266,9.65821 -9.17969,7.82226 -21.13281,7.50976 -28.20312,-0.79102 0,0 -22.07032,-25.89844 -22.07032,-25.89844 0,0 -4.74609,4.04297 -4.74609,4.04297 0,0 -1.99219,-2.34375 -1.99219,-2.34375 0,0 15.06836,-12.83203 15.06836,-12.83203 0,0 2.00195,2.34375 2.00195,2.34375 0,0 -4.75585,4.04297 -4.75585,4.04297 0,0 20.40039,23.94531 20.40039,23.94531 6.52343,7.65625 15.2832,8.82813 22.31445,2.8418 7.2168,-6.14258 7.72461,-15.42969 1.25,-23.03711 0,0 -20.3418,-23.86719 -20.3418,-23.86719 0,0 -4.74609,4.04297 -4.74609,4.04297 0,0 -1.99219,-2.34375 -1.99219,-2.34375 0,0 12.72461,-10.83984 12.72461,-10.83984 0,0 2.00195,2.34375 2.00195,2.34375 z"
         style="fill:#102d57;fill-opacity:1;fill-rule:nonzero;stroke:none"
         transform="matrix(1.3333333,0,0,1.3333333,0,830.66667)" />
      <path
         id="path8"
         d="m 235.00684,-538.90479 c 0,0 -16.6211,8.79883 -16.6211,8.79883 0,0 -1.43554,-2.72461 -1.43554,-2.72461 0,0 5.51757,-2.91015 5.51757,-2.91015 0,0 -11.40625,-21.54297 -11.40625,-21.54297 -2.07031,-3.90625 -5.33203,-5.2832 -8.57422,-3.57422 -3.15429,1.67969 -4.25781,4.04297 -6.75781,14.78516 0,0 10.11719,19.12109 10.11719,19.12109 0,0 5.58594,-2.95898 5.58594,-2.95898 0,0 1.44531,2.7246 1.44531,2.7246 0,0 -16.69922,8.82813 -16.69922,8.82813 0,0 -1.44531,-2.71484 -1.44531,-2.71484 0,0 5.58594,-2.95899 5.58594,-2.95899 0,0 -14.00391,-26.47461 -14.00391,-26.47461 0,0 -6.39648,3.38867 -6.39648,3.38867 0,0 -1.04493,-1.98242 -1.04493,-1.98242 0,0 9.0625,-8.47656 9.0625,-8.47656 0,0 1.32813,-0.70313 1.32813,-0.70313 0,0 4.35547,8.24219 4.35547,8.24219 2.1289,-9.3164 4.24804,-12.97851 8.94531,-15.46875 5.44922,-2.88086 10.70312,-1.14258 13.69141,4.53125 0,0 11.79687,22.27539 11.79687,22.27539 0,0 5.50781,-2.91992 5.50781,-2.91992 0,0 1.44532,2.71484 1.44532,2.71484 z"
         style="fill:#102d57;fill-opacity:1;fill-rule:nonzero;stroke:none"
         transform="matrix(1.3333333,0,0,1.3333333,0,830.66667)" />
      <path
         id="path9"
         d="m 229.54785,-596.71729 c 2.35352,-0.80078 4.79492,0.39063 5.57617,2.66602 0.80078,2.36328 -0.39062,4.79492 -2.74414,5.60547 -2.28515,0.78125 -4.71679,-0.41016 -5.51758,-2.77344 -0.79101,-2.27539 0.4004,-4.7168 2.68555,-5.49805 z m 27.82227,50.88868 c 0,0 -17.86133,6.12304 -17.86133,6.12304 0,0 -1.00586,-2.91015 -1.00586,-2.91015 0,0 5.98633,-2.05078 5.98633,-2.05078 0,0 -9.7168,-28.33985 -9.7168,-28.33985 0,0 -6.8457,2.36328 -6.8457,2.36328 0,0 -0.73242,-2.1289 -0.73242,-2.1289 0,0 10.2832,-6.96289 10.2832,-6.96289 0,0 1.41601,-0.47852 1.41601,-0.47852 0,0 11.50391,33.51563 11.50391,33.51563 0,0 5.97656,-2.04102 5.97656,-2.04102 0,0 0.9961,2.91016 0.9961,2.91016 z"
         style="fill:#102d57;fill-opacity:1;fill-rule:nonzero;stroke:none"
         transform="matrix(1.3333333,0,0,1.3333333,0,830.66667)" />
      <path
         id="path10"
         d="m 287.90723,-588.00635 c 0,0 -3.42774,0.70313 -3.42774,0.70313 0,0 -6.1914,37.67578 -6.1914,37.67578 0,0 -1.63086,0.33203 -1.63086,0.33203 0,0 -21.34766,-32.01172 -21.34766,-32.01172 0,0 -3.4375,0.61524 -3.4375,0.61524 0,0 -0.61523,-3.01758 -0.61523,-3.01758 0,0 15.82031,-3.20313 15.82031,-3.20313 0,0 0.60547,3.00781 0.60547,3.00781 0,0 -5.70313,1.16211 -5.70313,1.16211 0,0 14.58008,22.08985 14.58008,22.08985 0,0 4.24805,-25.90821 4.24805,-25.90821 0,0 -5.44922,1.11329 -5.44922,1.11329 0,0 -0.61524,-3.02735 -0.61524,-3.02735 0,0 12.54883,-2.54883 12.54883,-2.54883 0,0 0.61524,3.01758 0.61524,3.01758 z"
         style="fill:#102d57;fill-opacity:1;fill-rule:nonzero;stroke:none"
         transform="matrix(1.3333333,0,0,1.3333333,0,830.66667)" />
      <path
         id="path11"
         d="m 326.95996,-561.98096 c -4.53125,3.19336 -6.74805,4.11133 -10.07812,4.24805 -7.89063,0.32227 -13.67188,-6.67969 -14.10157,-17.07031 0,0 -0.0391,-0.91797 -0.0391,-0.91797 0,0 26.19141,-1.07422 26.19141,-1.07422 0,0 -0.0977,-2.24609 -0.0977,-2.24609 -0.37109,-8.98438 -6.77734,-14.88282 -15.75195,-14.51172 -10.30274,0.42968 -17.5293,9.21875 -17.04102,20.85937 0.46875,11.46485 8.28125,19.31641 18.84766,18.86719 4.81445,-0.19531 7.68555,-1.30859 13.76953,-5.13672 0,0 -1.69922,-3.01758 -1.69922,-3.01758 z m -24.27734,-17.06054 c 0.48828,-6.52344 4.56054,-10.77149 10.625,-11.01563 4.82422,-0.20508 8.3789,3.23242 8.59375,8.22266 0,0 0.0781,1.99218 0.0781,1.99218 0,0 -19.29687,0.80079 -19.29687,0.80079 z"
         style="fill:#102d57;fill-opacity:1;fill-rule:nonzero;stroke:none"
         transform="matrix(1.3333333,0,0,1.3333333,0,830.66667)" />
      <path
         id="path12"
         d="m 354.29395,-553.03564 c 0,0 -20.43946,-2.09961 -20.43946,-2.09961 0,0 0.3125,-3.06641 0.3125,-3.06641 0,0 6.28906,0.64453 6.28906,0.64453 0,0 3.06641,-29.78516 3.06641,-29.78516 0,0 -7.20703,-0.74218 -7.20703,-0.74218 0,0 0.23437,-2.2461 0.23437,-2.2461 0,0 12.2461,-1.99218 12.2461,-1.99218 0,0 1.48437,0.15625 1.48437,0.15625 0,0 -0.94726,9.26757 -0.94726,9.26757 6.74804,-7.00195 9.07226,-8.60351 12.06054,-8.30078 0.9961,0.10742 1.79688,0.43946 2.2461,0.98633 0,0 2.32422,2.5 2.32422,2.5 0,0 -5.39063,5.29297 -5.39063,5.29297 -1.49414,-1.73828 -2.57812,-2.59766 -3.39844,-2.69531 -1.5039,-0.14649 -3.125,1.11328 -8.24218,6.1914 0,0 -2.26563,22.01172 -2.26563,22.01172 0,0 7.93946,0.82031 7.93946,0.82031 0,0 -0.3125,3.05665 -0.3125,3.05665 z"
         style="fill:#102d57;fill-opacity:1;fill-rule:nonzero;stroke:none"
         transform="matrix(1.3333333,0,0,1.3333333,0,830.66667)" />
      <path
         id="path13"
         d="m 367.74121,-550.11572 c 0,0 -3.23242,-0.78125 -3.23242,-0.78125 0,0 2.7832,-11.48438 2.7832,-11.48438 0,0 3.72071,0.89844 3.72071,0.89844 0,0 -0.53711,2.1875 -0.53711,2.1875 -0.83985,3.47656 2.94921,7.64648 7.96875,8.86719 4.43359,1.07422 8.32031,-0.46875 9.10156,-3.70117 0.79101,-3.23243 -1.03516,-5.55665 -8.73047,-10.94727 -7.03125,-4.86328 -9.0625,-8.52539 -7.82227,-13.61328 1.53321,-6.3086 7.66602,-9.35547 15.10743,-7.5586 3.55468,0.85938 6.09375,2.42188 7.90039,4.82422 0,0 1.1914,-2.79297 1.1914,-2.79297 0,0 3.47657,0.83985 3.47657,0.83985 0,0 -4.7754,11.18164 -4.7754,11.18164 0,0 -3.46679,-0.84961 -3.46679,-0.84961 0.53711,-0.80078 0.94726,-1.81641 1.13281,-2.53906 0.77148,-3.16407 -2.24609,-6.63086 -6.61133,-7.68555 -4.19922,-1.02539 -7.5,0.57617 -8.34961,4.05273 -0.83984,3.47657 -0.38086,4.02344 8.44727,10.35157 7.16797,5.07812 9.02344,8.34961 7.76367,13.53515 -1.57227,6.46485 -7.68555,9.76563 -14.87305,8.02735 -4.53125,-1.09375 -7.67578,-2.96875 -9.49218,-5.72266 0,0 -0.70313,2.91016 -0.70313,2.91016 z"
         style="fill:#102d57;fill-opacity:1;fill-rule:nonzero;stroke:none"
         transform="matrix(1.3333333,0,0,1.3333333,0,830.66667)" />
      <path
         id="path14"
         d="m 424.62598,-593.67041 c 2.33398,0.87891 3.44726,3.34961 2.59765,5.60547 -0.88867,2.34375 -3.34961,3.45703 -5.68359,2.57812 -2.25586,-0.85937 -3.36914,-3.32031 -2.49024,-5.66406 0.85938,-2.25586 3.32032,-3.36914 5.57618,-2.51953 z m -11.00586,56.94336 c 0,0 -17.67578,-6.66992 -17.67578,-6.66992 0,0 1.09375,-2.88086 1.09375,-2.88086 0,0 5.91796,2.23633 5.91796,2.23633 0,0 10.57618,-28.02735 10.57618,-28.02735 0,0 -6.76758,-2.55859 -6.76758,-2.55859 0,0 0.78125,-2.08985 0.78125,-2.08985 0,0 12.36328,1.19141 12.36328,1.19141 0,0 1.40625,0.52734 1.40625,0.52734 0,0 -12.5293,33.16407 -12.5293,33.16407 0,0 5.90821,2.22656 5.90821,2.22656 z"
         style="fill:#102d57;fill-opacity:1;fill-rule:nonzero;stroke:none"
         transform="matrix(1.3333333,0,0,1.3333333,0,830.66667)" />
      <path
         id="path15"
         d="m 438.53223,-528.37744 c -5.49805,1.15234 -7.32422,1.07422 -10.08789,-0.30274 -4.30664,-2.1582 -5.56641,-6.14257 -3.30079,-10.67382 0,0 11.48438,-23.00782 11.48438,-23.00782 0,0 -6.46484,-3.22265 -6.46484,-3.22265 0,0 0.99609,-2.01172 0.99609,-2.01172 0,0 7.29492,1.60156 7.29492,1.60156 0,0 5.12695,-10.27344 5.12695,-10.27344 0,0 5.3711,2.67578 5.3711,2.67578 0,0 -5.25391,10.48829 -5.25391,10.48829 0,0 9.22852,4.61914 9.22852,4.61914 0,0 -1.70899,3.41797 -1.70899,3.41797 0,0 -9.22851,-4.60938 -9.22851,-4.60938 0,0 -11.16211,22.32422 -11.16211,22.32422 -1.40625,2.82226 -0.95703,4.3457 1.49414,5.58594 1.5625,0.77148 2.68555,0.96679 5.94726,0.73242 z"
         style="fill:#102d57;fill-opacity:1;fill-rule:nonzero;stroke:none"
         transform="matrix(1.3333333,0,0,1.3333333,0,830.66667)" />
      <path
         id="path16"
         d="m 461.82324,-518.76807 c -4.84375,0.60547 -7.30469,0.33203 -9.49219,-1.17187 -2.88085,-1.97266 -3.45703,-5.09766 -1.48437,-7.97852 0,0 2.36328,-3.42773 2.36328,-3.42773 0,0 13.60352,5.3125 13.60352,5.3125 0,0 -4.99024,7.26562 -4.99024,7.26562 z m 15.48828,-38.7207 c 1.31836,-1.92383 0.89844,-4.53125 -1.02539,-5.84961 -1.92383,-1.31836 -4.50195,-0.78125 -5.83008,1.14258 -1.26953,1.8457 -0.8496,4.46289 1.07422,5.78125 1.91407,1.31836 4.51172,0.78125 5.78125,-1.07422 z m -7.50976,49.44336 c 0,0 -5.28321,-3.63281 -5.28321,-3.63281 0,0 14.51172,-21.11328 14.51172,-21.11328 3.10547,-4.53125 1.20118,-10.27344 -4.83398,-14.42383 -6.24024,-4.28711 -12.86133,-4.50196 -15.5957,-0.51758 -0.51758,0.76172 -0.6836,1.15234 -0.77149,2.30469 0,0 7.33399,2.40234 7.33399,2.40234 0,0 2.26562,-3.29101 2.26562,-3.29101 2.63672,0.40039 3.67188,0.81054 5.03906,1.74804 2.75391,1.89453 3.4375,5.29297 1.5625,8.03711 0,0 -5.33203,7.74414 -5.33203,7.74414 0,0 -13.55469,-5.37109 -13.55469,-5.37109 -3.81835,-1.51367 -8.0664,-0.18555 -10.45898,3.32031 -3.1543,4.58984 -1.92383,10.2832 2.8125,13.53516 3.64258,2.49023 7.23633,2.84179 12.56836,1.25976 -0.19531,0.26367 -0.3418,0.47852 -0.48828,0.6836 -1.73828,2.52929 -1.54297,4.89257 0.58594,6.35742 0.54687,0.37109 1.66015,0.83008 2.73437,1.17187 0,0 5.58594,1.69922 5.58594,1.69922 0,0 1.31836,-1.91406 1.31836,-1.91406 z m 19.6582,-41.10352 c 1.30859,-1.92382 0.87891,-4.54101 -1.03516,-5.84961 -1.91406,-1.32812 -4.51171,-0.78125 -5.83007,1.13282 -1.2793,1.85547 -0.84961,4.47265 1.07422,5.78125 1.92382,1.32812 4.52148,0.78125 5.79101,-1.06446 z"
         style="fill:#102d57;fill-opacity:1;fill-rule:nonzero;stroke:none"
         transform="matrix(1.3333333,0,0,1.3333333,0,830.66667)" />
      <path
         id="path17"
         d="m 488.07324,-490.76025 c -5.60547,-0.33204 -7.35351,-0.87891 -9.64844,-2.92969 -3.59375,-3.22266 -3.76953,-7.39258 -0.39062,-11.17188 0,0 17.12891,-19.17968 17.12891,-19.17968 0,0 -5.41016,-4.82422 -5.41016,-4.82422 0,0 1.50391,-1.67969 1.50391,-1.67969 0,0 6.62109,3.4668 6.62109,3.4668 0,0 7.65625,-8.56446 7.65625,-8.56446 0,0 4.45312,3.98438 4.45312,3.98438 0,0 -7.8125,8.75 -7.8125,8.75 0,0 7.69532,6.875 7.69532,6.875 0,0 -2.54883,2.85156 -2.54883,2.85156 0,0 -7.68555,-6.86523 -7.68555,-6.86523 0,0 -16.64062,18.61328 -16.64062,18.61328 -2.10938,2.35351 -2.07032,3.94531 -0.0195,5.77148 1.28906,1.17188 2.32421,1.64063 5.54687,2.28516 0,0 -0.44922,2.61719 -0.44922,2.61719 z"
         style="fill:#102d57;fill-opacity:1;fill-rule:nonzero;stroke:none"
         transform="matrix(1.3333333,0,0,1.3333333,0,830.66667)" />
      <path
         id="path18"
         d="m 96.76465,-278.3584 c 0,0 -3.97461,-20.16601 -3.97461,-20.16601 0,0 3.01758,-0.59571 3.01758,-0.59571 0,0 1.21093,6.12305 1.21093,6.12305 0,0 47.83204,-9.42383 47.83204,-9.42383 0,0 -1.20118,-6.12305 -1.20118,-6.12305 0,0 3.01758,-0.5957 3.01758,-0.5957 0,0 4.60938,23.33985 4.60938,23.33985 1.85547,9.47265 -3.22266,17.26562 -12.36328,19.0625 -9.14063,1.80664 -17.77344,-4.55079 -19.76563,-14.66797 -0.3125,-1.5625 -0.40039,-2.47071 -0.41016,-4.67774 0,0 2.85157,-0.55664 2.85157,-0.55664 -0.0195,1.10352 0.0488,1.50391 0.19531,2.2461 1.37695,7.02148 8.39844,11.66015 15.66406,10.2246 6.53321,-1.27929 10.89844,-6.64062 9.84375,-12.02148 0,0 -1.75781,-8.90625 -1.75781,-8.90625 0,0 -47.08984,9.28711 -47.08984,9.28711 0,0 1.35742,6.93359 1.35742,6.93359 0,0 -3.03711,0.51758 -3.03711,0.51758 z"
         style="fill:#102d57;fill-opacity:1;fill-rule:nonzero;stroke:none"
         transform="matrix(1.3333333,0,0,1.3333333,0,830.66667)" />
      <path
         id="path19"
         d="m 111.08105,-230.05762 c 4.10157,9.18946 15.56641,12.99805 25.58594,8.53516 10.03906,-4.47266 14.84375,-15.54688 10.74219,-24.74609 -4.10156,-9.18946 -15.56641,-13.00782 -25.58594,-8.53516 -10.02929,4.47266 -14.84375,15.54687 -10.74219,24.74609 z m 33.125,-14.78515 c 2.54883,5.70312 -1.98242,13.0957 -10.41015,16.85547 -8.4375,3.76953 -16.97266,2.19726 -19.51172,-3.50586 -2.54883,-5.69336 2.08984,-13.04688 10.44922,-16.77735 8.4375,-3.75976 16.93359,-2.27539 19.47265,3.42774 z"
         style="fill:#102d57;fill-opacity:1;fill-rule:nonzero;stroke:none"
         transform="matrix(1.3333333,0,0,1.3333333,0,830.66667)" />
      <path
         id="path20"
         d="m 142.76074,-185.31152 c -5.38086,-1.65039 -6.94336,-2.58789 -8.6914,-5.12696 -2.73438,-3.97461 -1.9336,-8.0664 2.24609,-10.94726 0,0 21.17187,-14.58985 21.17187,-14.58985 0,0 -4.10156,-5.96679 -4.10156,-5.96679 0,0 1.83594,-1.2793 1.83594,-1.2793 0,0 5.61523,4.92188 5.61523,4.92188 0,0 9.46289,-6.51368 9.46289,-6.51368 0,0 3.39844,4.93164 3.39844,4.93164 0,0 -9.6582,6.66016 -9.6582,6.66016 0,0 5.84961,8.49609 5.84961,8.49609 0,0 -3.14453,2.16797 -3.14453,2.16797 0,0 -5.85938,-8.49609 -5.85938,-8.49609 0,0 -20.54687,14.17969 -20.54687,14.17969 -2.59766,1.78711 -2.94922,3.33984 -1.38672,5.60547 0.98633,1.42578 1.875,2.1289 4.85351,3.51562 0,0 -1.04492,2.44141 -1.04492,2.44141 z"
         style="fill:#102d57;fill-opacity:1;fill-rule:nonzero;stroke:none"
         transform="matrix(1.3333333,0,0,1.3333333,0,830.66667)" />
      <path
         id="path21"
         d="m 149.69434,-170.5166 c 0,0 -2.32422,-2.39258 -2.32422,-2.39258 0,0 8.49609,-8.21289 8.49609,-8.21289 0,0 2.65625,2.74414 2.65625,2.74414 0,0 -1.60156,1.5625 -1.60156,1.5625 -2.57813,2.49023 -1.61133,8.03711 1.97265,11.73828 3.1836,3.30078 7.28516,4.07227 9.6875,1.75781 2.38282,-2.31445 2.08008,-5.26367 -1.54296,-13.90625 -3.33985,-7.89062 -3.08594,-12.06054 0.67382,-15.70312 4.67774,-4.51172 11.48438,-3.80859 16.80664,1.69922 2.53907,2.62695 3.84766,5.29297 4.0918,8.30078 0,0 2.50977,-1.72852 2.50977,-1.72852 0,0 2.48047,2.57813 2.48047,2.57813 0,0 -10,6.89453 -10,6.89453 0,0 -2.49024,-2.57813 -2.49024,-2.57813 0.88867,-0.40039 1.78711,-1.02539 2.32422,-1.55273 2.33398,-2.24609 1.65039,-6.79687 -1.47461,-10.01953 -3.00781,-3.10547 -6.66016,-3.53516 -9.21875,-1.04492 -2.57812,2.49023 -2.4707,3.19336 1.60156,13.27148 3.33008,8.11524 3.14453,11.875 -0.68359,15.58594 -4.78516,4.62891 -11.71875,4.16016 -16.86523,-1.17188 -3.23243,-3.33984 -4.89258,-6.61132 -4.95118,-9.90234 z"
         style="fill:#102d57;fill-opacity:1;fill-rule:nonzero;stroke:none"
         transform="matrix(1.3333333,0,0,1.3333333,0,830.66667)" />
      <path
         id="path22"
         d="m 213.97168,-125.09668 c 0,0 -5.99609,-4.0625 -5.99609,-4.0625 0,0 31.77734,-46.91406 31.77734,-46.91406 0,0 -1.30859,-0.87891 -1.30859,-0.87891 0,0 -11.73829,-4.04297 -11.73829,-4.04297 0,0 -1.26953,1.86524 -1.26953,1.86524 0,0 5.9961,4.05273 5.9961,4.05273 0,0 -10.78125,15.91797 -10.78125,15.91797 -1.67969,-3.14453 -2.69532,-4.33594 -5.03907,-5.91797 -9.01367,-6.11328 -21.49414,-3.41797 -27.92968,6.09375 -5.97657,8.8086 -5.03907,19.58985 2.11914,24.45313 3.50586,2.38281 6.76758,2.77343 13.11523,1.54297 0,0 -3.26172,4.82421 -3.26172,4.82421 0,0 1.3086,0.88868 1.3086,0.88868 0,0 11.69922,4.10156 11.69922,4.10156 0,0 1.30859,-1.92383 1.30859,-1.92383 z m -11.875,-10.95703 c -3.67188,0.22461 -4.99023,-0.0586 -7.12891,-1.51367 -5.64453,-3.81836 -5.89843,-10.73242 -0.66406,-18.44727 5.37109,-7.91015 13.4375,-10.18555 20.11719,-5.66406 4.0625,2.75391 4.45312,5.13672 1.5625,9.41406 0,0 -10.82031,15.97656 -10.82031,15.97656 -1.36719,0.0781 -2.42188,0.16602 -3.06641,0.23438 z"
         style="fill:#102d57;fill-opacity:1;fill-rule:nonzero;stroke:none"
         transform="matrix(1.3333333,0,0,1.3333333,0,830.66667)" />
      <path
         id="path23"
         d="m 255.0459,-107.20605 c 0,0 -5.95703,-2.37305 -5.95703,-2.37305 0,0 9.49218,-23.79883 9.49218,-23.79883 2.03125,-5.10742 -1.09375,-10.29297 -7.89062,-13.00781 -7.03125,-2.79297 -13.53516,-1.54297 -15.33203,2.93945 -0.33203,0.84961 -0.41016,1.26953 -0.23438,2.41211 0,0 7.67578,0.73242 7.67578,0.73242 0,0 1.48438,-3.71094 1.48438,-3.71094 2.66602,-0.18554 3.76953,-0.0195 5.3125,0.59571 3.08594,1.23047 4.51172,4.40429 3.28125,7.49023 0,0 -3.48633,8.74024 -3.48633,8.74024 0,0 -14.41406,-2.26563 -14.41406,-2.26563 -4.05274,-0.625 -7.89063,1.60156 -9.46289,5.54688 -2.07031,5.17578 0.40039,10.45898 5.72265,12.58789 4.10157,1.63086 7.69532,1.18164 12.53907,-1.55274 -0.12696,0.3125 -0.22461,0.54688 -0.3125,0.78125 -1.13282,2.85157 -0.42969,5.11719 1.97265,6.07422 0.61524,0.23438 1.78711,0.43945 2.91993,0.52735 0,0 5.82031,0.44921 5.82031,0.44921 0,0 0.86914,-2.16796 0.86914,-2.16796 z m -10.15625,-8.70118 c -4.58985,1.66016 -7.03125,1.94336 -9.51172,0.94727 -3.24219,-1.28906 -4.49219,-4.20899 -3.20313,-7.46094 0,0 1.54297,-3.85742 1.54297,-3.85742 0,0 14.45313,2.17773 14.45313,2.17773 z"
         style="fill:#102d57;fill-opacity:1;fill-rule:nonzero;stroke:none"
         transform="matrix(1.3333333,0,0,1.3333333,0,830.66667)" />
      <path
         id="path24"
         d="m 334.96777,-91.38574 c 0,0 -18.71093,-1.81641 -18.71093,-1.81641 0,0 0.30273,-3.0664 0.30273,-3.0664 0,0 6.29883,0.60546 6.29883,0.60546 0,0 2.36328,-24.25781 2.36328,-24.25781 0.43945,-4.47265 -1.55273,-7.26562 -5.19531,-7.61719 -2.73438,-0.26367 -5,0.76172 -8.93555,4.22852 0,0 -4.85352,4.28711 -4.85352,4.28711 0,0 -2.0996,21.5332 -2.0996,21.5332 0,0 6.21093,0.60547 6.21093,0.60547 0,0 -0.30273,3.07617 -0.30273,3.07617 0,0 -18.71094,-1.83593 -18.71094,-1.83593 0,0 0.29297,-3.06641 0.29297,-3.06641 0,0 6.21094,0.60547 6.21094,0.60547 0,0 2.38281,-24.25781 2.38281,-24.25781 0.42969,-4.39454 -1.54297,-7.34375 -5.19531,-7.69532 -3.55469,-0.35156 -5.78125,1.01563 -13.79883,8.59375 0,0 -2.09961,21.53321 -2.09961,21.53321 0,0 6.29883,0.61523 6.29883,0.61523 0,0 -0.30274,3.06641 -0.30274,3.06641 0,0 -18.78906,-1.83594 -18.78906,-1.83594 0,0 0.29297,-3.06641 0.29297,-3.06641 0,0 6.28906,0.61524 6.28906,0.61524 0,0 2.91016,-29.81446 2.91016,-29.81446 0,0 -7.19727,-0.70312 -7.19727,-0.70312 0,0 0.22461,-2.23633 0.22461,-2.23633 0,0 12.22656,-2.06055 12.22656,-2.06055 0,0 1.49415,0.14649 1.49415,0.14649 0,0 -0.90821,9.26758 -0.90821,9.26758 6.91406,-6.5918 10.70313,-8.47657 15.9961,-7.96875 5.8789,0.58593 8.80859,3.96484 9.01367,10.41992 6.91406,-6.60156 10.69336,-8.48633 15.9082,-7.97852 6.13281,0.60547 9.55078,4.94141 8.93555,11.24024 0,0 -2.46094,25.16601 -2.46094,25.16601 0,0 6.21094,0.61524 6.21094,0.61524 0,0 -0.30274,3.05664 -0.30274,3.05664 z"
         style="fill:#102d57;fill-opacity:1;fill-rule:nonzero;stroke:none"
         transform="matrix(1.3333333,0,0,1.3333333,0,830.66667)" />
      <path
         id="path25"
         d="m 430.25098,-276.44434 c 0,0 0,-68.12451 0,-68.12451 0,0 -10.88868,0 -10.88868,0 0,0 0,68.12451 0,68.12451 z m 29.16992,0 c 0,0 0,-68.12451 0,-68.12451 0,0 -20.83985,0 -20.83985,0 0,0 0,68.12451 0,68.12451 z m -41.5918,45.625 c 0,0 62.36328,0 62.36328,0 0,0 0,-36.46484 0,-36.46484 0,0 -62.36328,0 -62.36328,0 0,0 0,36.46484 0,36.46484 z m -37.99805,-18.14453 c 0,7.57813 12.48047,14.27735 31.39649,18.125 0,0 0,-36.25 0,-36.25 -16.82617,3.4375 -31.39649,9.79492 -31.39649,18.125 z m -24.43359,-95.66357 c 0,0 -10.89844,0 -10.89844,0 0,0 0,68.22217 0,68.22217 0,0 10.89844,0 10.89844,0 z m 11.46484,68.22217 c 0,0 10.88868,0 10.88868,0 0,0 0,-68.22217 0,-68.22217 0,0 -10.88868,0 -10.88868,0 z m 22.26563,0 c 0,0 10.89844,0 10.89844,0 0,0 0,-68.22217 0,-68.22217 0,0 -10.89844,0 -10.89844,0 z m 22.09961,54.47265 c 0,0 0,22.77344 0,22.77344 -29.91211,-4.43359 -51.31836,-13.98437 -55.83008,-25.43945 0,0 -22.37305,0 -22.37305,0 0,0 0,-135.73194 0,-135.73194 0,0 78.19336,0 78.19336,0 0,0 0,83.90577 0,83.90577 -32.68554,4.6289 -55.58593,15.29296 -55.44922,27.38281 0.17579,13.73047 28.42774,23.4082 55.45899,27.10937 z m 67.41211,-54.51172 c 0,0 0,-68.12451 0,-68.12451 0,0 -10.89844,0 -10.89844,0 0,0 0,68.12451 0,68.12451 z m 39.53125,27.48047 c 0,-8.33008 -14.58985,-14.6875 -31.40625,-18.125 0,0 0,36.25 0,36.25 18.90625,-3.84765 31.40625,-10.54687 31.40625,-18.125 z m -20.21485,-27.4414 c 0,0 10.90821,0 10.90821,0 0,0 0,-68.22217 0,-68.22217 0,0 -10.90821,0 -10.90821,0 z m 22.2754,0 c 0,0 10.89843,0 10.89843,0 0,0 0,-68.22217 0,-68.22217 0,0 -10.89843,0 -10.89843,0 z m 22.35351,0 c 0,0 10.89844,0 10.89844,0 0,0 0,-68.22217 0,-68.22217 0,0 -10.89844,0 -10.89844,0 z m -55.80078,-83.9253 c 0,0 78.17383,0 78.17383,0 0,0 0,135.73194 0,135.73194 0,0 -22.36328,0 -22.36328,0 -4.52149,11.45508 -25.91797,21.00586 -55.83008,25.43945 0,0 0,-22.77344 0,-22.77344 27.03125,-3.70117 55.29297,-13.3789 55.44922,-27.10937 0.13672,-12.08985 -22.77344,-22.75391 -55.42969,-27.38281 0,0 0,-83.90577 0,-83.90577 z m -153.75977,-15.26367 c -0.41992,-1.18164 -0.73242,-2.83203 -0.73242,-4.69726 0,-3.57422 0.97656,-6.46485 2.1875,-6.46485 1.20117,0 2.17774,2.89063 2.17774,6.46485 0,1.86523 -0.28321,3.55468 -0.71289,4.72656 0,0 16.91406,0 16.91406,0 -0.41016,-1.17188 -0.69336,-2.86133 -0.69336,-4.72656 0,-3.57422 0.98633,-6.46485 2.17773,-6.46485 1.21094,0 2.1875,2.89063 2.1875,6.46485 0,1.86523 -0.27343,3.55468 -0.69336,4.72656 0,0 16.76758,0 16.76758,0 -0.42969,-1.17188 -0.68359,-2.86133 -0.68359,-4.72656 0,-3.57422 0.97656,-6.46485 2.17773,-6.46485 1.20117,0 2.17774,2.89063 2.17774,6.46485 0,1.86523 -0.27344,3.55468 -0.70313,4.72656 0,0 16.73828,0 16.73828,0 -0.41992,-1.17188 -0.68359,-2.86133 -0.68359,-4.72656 0,-3.57422 0.9668,-6.46485 2.16797,-6.46485 1.21094,0 2.1875,2.89063 2.1875,6.46485 0,1.86523 -0.27344,3.55468 -0.70313,4.72656 0,0 15.9375,0 15.9375,0 0,0 0,-23.95508 0,-23.95508 0,0 5.40039,0 5.40039,0 0.61524,-1.65039 1.5918,-4.61914 1.48438,-7.98828 -0.53711,-17.31445 8.79883,-31.61133 29.27734,-32.35352 -0.36133,-1.14257 -0.5957,-2.71484 -0.5957,-4.44336 0,-3.57421 1.00586,-6.46484 2.20703,-6.46484 1.21094,0 2.2168,2.89063 2.2168,6.46484 0,1.72852 -0.24414,3.30079 -0.61524,4.44336 20.48828,0.74219 29.82422,15.03907 29.29688,32.35352 -0.11719,3.36914 0.85937,6.33789 1.5039,7.98828 0,0 5.39063,0 5.39063,0 0,0 0,23.95508 0,23.95508 0,0 15.92773,0 15.92773,0 -0.42968,-1.17188 -0.69336,-2.86133 -0.69336,-4.72656 0,-3.57422 0.95704,-6.46485 2.16797,-6.46485 1.20118,0 2.1875,2.89063 2.1875,6.46485 0,1.86523 -0.27343,3.55468 -0.70312,4.72656 0,0 16.73828,0 16.73828,0 -0.41992,-1.17188 -0.68359,-2.86133 -0.68359,-4.72656 0,-3.57422 0.95703,-6.46485 2.1875,-6.46485 1.18164,0 2.16796,2.89063 2.16796,6.46485 0,1.86523 -0.27343,3.55468 -0.70312,4.72656 0,0 16.77734,0 16.77734,0 -0.42968,-1.17188 -0.70312,-2.86133 -0.70312,-4.72656 0,-3.57422 0.97656,-6.46485 2.1875,-6.46485 1.1914,0 2.1875,2.89063 2.1875,6.46485 0,1.86523 -0.2832,3.55468 -0.71289,4.72656 0,0 16.92383,0 16.92383,0 -0.43946,-1.17188 -0.70313,-2.86133 -0.70313,-4.72656 0,-3.57422 0.97656,-6.46485 2.1875,-6.46485 1.19141,0 2.16797,2.89063 2.16797,6.46485 0,1.86523 -0.30273,3.51562 -0.74219,4.69726 0,0 0,8.98438 0,8.98438 0,0 -78.16406,0 -78.16406,0 0,0 0,6.17187 0,6.17187 0,0 -75.56641,0 -75.56641,0 0,0 0,-6.17187 0,-6.17187 0,0 75.54688,0 75.54688,0 0,0 -37.77344,-20.25391 -37.77344,-20.25391 0,0 -37.77344,20.25391 -37.77344,20.25391 0,0 -78.19336,0 -78.19336,0 0,0 0,-8.98438 0,-8.98438 z"
         style="fill:#102d57;fill-opacity:1;fill-rule:nonzero;stroke:none"
         transform="matrix(1.3333333,0,0,1.3333333,0,830.66667)" />
    </g>
  </g>
</svg>
