<?xml version="1.0" encoding="UTF-8" standalone="no"?>
<!-- Created with Inkscape (http://www.inkscape.org/) -->

<svg
   version="1.1"
   id="svg2"
   width="326.97333"
   height="107.30667"
   viewBox="0 0 326.97333 107.30667"
   xmlns="http://www.w3.org/2000/svg"
   xmlns:svg="http://www.w3.org/2000/svg">
  <defs
     id="defs6" />
  <g
     id="g10"
     transform="matrix(1.3333333,0,0,-1.3333333,0,107.30667)">
    <g
       id="g12"
       transform="scale(0.1)">
      <path
         d="M 1067.12,782.57 H 1229.9 V 619.785 L 1067.12,782.57"
         style="fill:#00adef;fill-opacity:1;fill-rule:nonzero;stroke:none"
         id="path14" />
      <path
         d="M 1067.12,782.57 H 1229.9 V 619.785 Z"
         style="fill:none;stroke:#00adef;stroke-width:14.409;stroke-linecap:butt;stroke-linejoin:round;stroke-miterlimit:3.8637;stroke-dasharray:none;stroke-opacity:1"
         id="path16" />
      <path
         d="m 576.273,259.523 v 7.696 c 0,54.558 -42.273,96.054 -103.738,96.054 h -90.687 c -13.825,6.141 -20.743,13.829 -20.743,26.122 0,9.992 6.918,18.449 19.981,26.132 9.988,-0.769 17.668,-1.543 22.277,-1.543 80.7,0 138.332,56.875 138.332,130.633 v 129.887 c 0,5.379 -2.308,7.676 -7.695,7.676 h -46.105 c -5.379,0 -7.68,-2.297 -7.68,-7.676 v -9.231 c 0,-5.371 -2.309,-8.449 -5.379,-8.449 -10.754,0 -33.047,25.356 -71.473,25.356 -80.683,0 -138.312,-56.86 -138.312,-130.637 v -6.926 c 0,-28.426 8.449,-53.777 19.98,-68.379 18.442,-23.062 29.969,-33.816 29.969,-36.89 0,-5.383 -14.609,-18.442 -14.609,-49.953 0,-21.512 10.761,-35.352 10.761,-42.254 0,-5.383 -11.527,-12.305 -28.433,-29.973 -9.989,-10.762 -17.668,-29.973 -17.668,-49.949 v -7.696 c 0,-55.324 42.254,-96.054 103.734,-96.054 h 103.75 c 61.465,0 103.738,41.492 103.738,96.054 z M 472.535,544.617 c 0,-37.644 -30.746,-69.148 -69.172,-69.148 -39.187,0 -69.16,31.504 -69.16,69.148 v 6.926 c 0,37.648 29.973,69.16 69.16,69.16 38.426,0 69.172,-31.512 69.172,-69.16 z m 34.578,-285.094 c 0,-18.429 -16.144,-34.582 -34.578,-34.582 h -103.75 c -19.203,0 -34.582,16.153 -34.582,34.582 v 7.696 c 0,18.445 16.141,34.578 34.582,34.578 h 103.75 c 18.434,0 34.578,-16.133 34.578,-34.578 v -7.696"
         style="fill:#231f20;fill-opacity:1;fill-rule:nonzero;stroke:none"
         id="path18" />
      <path
         d="m 1083.34,344.055 v 207.488 c 0,76.074 -54.56,130.637 -130.633,130.637 -26.902,0 -48.418,-5.383 -66.09,-16.907 -17.672,-11.535 -25.363,-21.523 -29.211,-21.523 -3.07,0 -11.523,9.23 -28.422,20.762 -17.679,12.285 -36.89,17.668 -60.711,17.668 -36.882,0 -60.71,-26.125 -71.472,-26.125 -3.071,0 -5.371,3.066 -5.371,8.457 v 9.992 c 0,5.379 -2.309,7.676 -7.688,7.676 h -46.109 c -5.379,0 -7.68,-2.297 -7.68,-7.676 V 344.055 c 0,-5.371 2.301,-7.676 7.68,-7.676 h 53.797 c 5.371,0 7.683,2.305 7.683,7.676 v 207.488 c 0,36.887 30.742,69.16 61.477,69.16 31.504,0 61.476,-31.512 61.476,-69.16 V 344.055 c 0,-5.371 2.301,-7.676 7.68,-7.676 h 53.801 c 5.371,0 7.68,2.305 7.68,7.676 v 207.488 c 0,36.113 30.746,69.16 61.48,69.16 31.504,0 61.473,-31.512 61.473,-69.16 V 344.055 c 0,-5.371 2.3,-7.676 7.69,-7.676 h 53.79 c 5.38,0 7.68,2.305 7.68,7.676"
         style="fill:#231f20;fill-opacity:1;fill-rule:nonzero;stroke:none"
         id="path20" />
      <path
         d="m 733.844,68.1641 c 0,44.5389 -24.766,63.9259 -66.242,63.9259 -14.207,0 -28.797,-0.567 -38.782,-0.762 V 1.91406 c 9.598,0 19.774,-0.76172 32.832,-0.76172 42.43,0 72.192,22.65626 72.192,67.01176 z m -18.625,-1.1524 c 0,-35.1367 -21.313,-50.8906 -51.649,-50.8906 -5.179,0 -12.289,0.3945 -17.086,1.1562 v 99.8397 c 4.797,0.199 12.672,0.578 19.391,0.578 33.602,0 49.344,-17.668 49.344,-50.6833"
         style="fill:#231f20;fill-opacity:1;fill-rule:nonzero;stroke:none"
         id="path22" />
      <path
         d="m 779.098,124.414 c 0,6.34 -5.188,11.133 -11.524,11.133 -6.332,0 -11.519,-4.988 -11.519,-11.133 0,-6.34 5.187,-11.328 11.519,-11.328 6.336,0 11.524,5.187 11.524,11.328 z M 776.215,1.91406 V 97.3438 H 758.938 V 1.91406 h 17.277"
         style="fill:#231f20;fill-opacity:1;fill-rule:nonzero;stroke:none"
         id="path24" />
      <path
         d="m 881.191,58.9453 c 0,21.8828 -11.332,40.125 -38.211,40.125 -27.07,0 -42.625,-21.3047 -42.625,-49.9219 0,-33.6015 15.743,-48.9609 45.125,-48.9609 11.899,0 23.036,2.11719 32.254,5.95703 l -1.539,14.01177 c -7.679,-3.6407 -18.047,-5.9454 -27.84,-5.9454 -20.351,0 -30.91,10.9375 -30.14,36.4727 h 62.394 c 0.387,3.2695 0.582,5.957 0.582,8.2617 z m -17.664,4.0235 H 818.98 c 1.918,14.0234 10.75,23.4296 23.231,23.4296 13.437,0 21.695,-9.4062 21.316,-23.4296"
         style="fill:#231f20;fill-opacity:1;fill-rule:nonzero;stroke:none"
         id="path26" />
      <path
         d="m 1018.38,40.1289 c 0,40.5078 -58.564,30.332 -58.564,58.3672 0,12.1019 9.219,20.1559 26.879,20.1559 7.68,0 15.945,-1.336 23.435,-3.449 l 0.95,15.735 c -7.67,1.542 -15.553,2.316 -23.424,2.316 -29.179,0 -46.078,-15.363 -46.078,-36.6837 0,-41.2773 58.367,-29.7539 58.367,-58.9414 0,-15.9375 -12.863,-22.2695 -28.418,-22.2695 -9.023,0 -19.199,2.1133 -26.687,4.7969 L 943.883,3.26172 c 7.488,-1.92188 16.699,-3.07422 26.113,-3.07422 30.144,0 48.384,16.707 48.384,39.9414"
         style="fill:#231f20;fill-opacity:1;fill-rule:nonzero;stroke:none"
         id="path28" />
      <path
         d="m 1105.72,5.56641 -1.34,14.98049 c -6.15,-3.2696 -14.59,-5.1875 -22.66,-5.1875 -21.12,0 -27.26,14.789 -27.26,33.4101 0,21.6914 9.4,35.8985 28.61,35.8985 7.48,0 14.59,-1.7266 20.54,-4.0313 l 1.92,15.1758 c -6.72,1.9141 -14.21,3.0664 -21.7,3.0664 -31.87,0 -47.61,-21.6992 -47.61,-52.4141 0,-35.1367 19,-45.890581 41.85,-45.890581 11.14,0 21.31,2.492191 27.65,4.992191"
         style="fill:#231f20;fill-opacity:1;fill-rule:nonzero;stroke:none"
         id="path30" />
      <path
         d="M 1206.04,1.91406 V 68.7383 c 0,16.8984 -6.9,30.5312 -28.79,30.5312 -15.94,0 -27.65,-8.457 -33.22,-21.5039 l -0.38,0.1836 c 1.34,4.9922 1.73,12.8633 1.73,19.0156 V 142.078 H 1128.1 V 1.91406 h 17.28 V 47.8047 c 0,21.1211 11.32,37.0586 27.07,37.0586 12.67,0 16.32,-7.8711 16.32,-21.3086 V 1.91406 h 17.27"
         style="fill:#231f20;fill-opacity:1;fill-rule:nonzero;stroke:none"
         id="path32" />
      <path
         d="M 1316.23,1.91406 V 97.3438 h -17.09 V 51.4531 c 0,-21.1211 -11.52,-37.0508 -27.27,-37.0508 -12.48,0 -16.32,7.875 -16.32,21.3125 v 61.629 h -17.09 V 30.5273 C 1238.46,13.6328 1245.18,0 1267.08,0 c 16.31,0 28.02,8.82813 33.59,22.0781 l 0.39,-0.1914 c -0.96,-5.5703 -1.54,-14.39842 -1.54,-19.97264 h 16.71"
         style="fill:#231f20;fill-opacity:1;fill-rule:nonzero;stroke:none"
         id="path34" />
      <path
         d="M 1357.47,142.078 V 1.91406"
         style="fill:none;stroke:#231f20;stroke-width:17.279;stroke-linecap:butt;stroke-linejoin:round;stroke-miterlimit:3.8637;stroke-dasharray:none;stroke-opacity:1"
         id="path36" />
      <path
         d="m 1471.08,58.9453 c 0,21.8828 -11.33,40.125 -38.2,40.125 -27.07,0 -42.63,-21.3047 -42.63,-49.9219 0,-33.6015 15.75,-48.9609 45.13,-48.9609 11.89,0 23.02,2.11719 32.24,5.95703 l -1.52,14.01177 c -7.7,-3.6407 -18.06,-5.9454 -27.85,-5.9454 -20.35,0 -30.91,10.9375 -30.14,36.4727 h 62.4 c 0.38,3.2695 0.57,5.957 0.57,8.2617 z m -17.66,4.0235 h -44.55 c 1.93,14.0234 10.76,23.4296 23.24,23.4296 13.44,0 21.69,-9.4062 21.31,-23.4296"
         style="fill:#231f20;fill-opacity:1;fill-rule:nonzero;stroke:none"
         id="path38" />
      <path
         d="M 1612.31,1.91406 V 142.078 h -17.29 V 97.7266 c -5.76,0.5742 -10.94,0.957 -16.13,0.957 -30.13,0 -49.33,-20.1563 -49.33,-53.5664 0,-27.8399 11.7,-44.9297 35.13,-44.9297 14.97,0 26.68,8.45703 32.06,21.3164 l 0.38,-0.1953 c -1.15,-5.5664 -1.53,-14.01172 -1.53,-19.39454 z m -17.29,49.34764 c 0,-16.6992 -8.82,-36.8594 -26.11,-36.8594 -14.39,0 -21.11,11.711 -21.11,32.2461 0,27.461 12.09,38.4102 30.33,38.4102 5.37,0 11.13,-0.5859 16.89,-2.1172 V 51.2617"
         style="fill:#231f20;fill-opacity:1;fill-rule:nonzero;stroke:none"
         id="path40" />
      <path
         d="m 1717.25,58.9453 c 0,21.8828 -11.33,40.125 -38.2,40.125 -27.08,0 -42.64,-21.3047 -42.64,-49.9219 0,-33.6015 15.75,-48.9609 45.13,-48.9609 11.9,0 23.04,2.11719 32.25,5.95703 l -1.53,14.01177 c -7.68,-3.6407 -18.06,-5.9454 -27.84,-5.9454 -20.35,0 -30.92,10.9375 -30.14,36.4727 h 62.4 c 0.38,3.2695 0.57,5.957 0.57,8.2617 z m -17.67,4.0235 h -44.54 c 1.92,14.0234 10.76,23.4296 23.24,23.4296 13.43,0 21.69,-9.4062 21.3,-23.4296"
         style="fill:#231f20;fill-opacity:1;fill-rule:nonzero;stroke:none"
         id="path42" />
      <path
         d="m 1790.16,99.0703 c -19,2.1137 -28.79,-11.1406 -32.83,-24.3828 h -0.38 c 1.53,7.8711 2.12,16.7109 2.12,22.6563 h -16.71 V 1.91406 h 17.27 V 40.3203 c 0,30.5313 9.61,45.3164 29.77,41.8594 l 0.76,16.8906"
         style="fill:#231f20;fill-opacity:1;fill-rule:nonzero;stroke:none"
         id="path44" />
      <path
         d="m 1924.48,116.738 v 14.785 h -92.35 v -14.785 h 37.25 V 1.91406 h 17.66 V 116.738 h 37.44"
         style="fill:#231f20;fill-opacity:1;fill-rule:nonzero;stroke:none"
         id="path46" />
      <path
         d="m 1998.52,58.9453 c 0,21.8828 -11.34,40.125 -38.22,40.125 -27.07,0 -42.62,-21.3047 -42.62,-49.9219 0,-33.6015 15.74,-48.9609 45.12,-48.9609 11.9,0 23.04,2.11719 32.26,5.95703 l -1.54,14.01177 c -7.68,-3.6407 -18.05,-5.9454 -27.84,-5.9454 -20.35,0 -30.91,10.9375 -30.15,36.4727 h 62.4 c 0.4,3.2695 0.59,5.957 0.59,8.2617 z m -17.68,4.0235 h -44.54 c 1.93,14.0234 10.76,23.4296 23.24,23.4296 13.43,0 21.7,-9.4062 21.3,-23.4296"
         style="fill:#231f20;fill-opacity:1;fill-rule:nonzero;stroke:none"
         id="path48" />
      <path
         d="m 2084.67,5.56641 -1.34,14.98049 c -6.14,-3.2696 -14.59,-5.1875 -22.66,-5.1875 -21.11,0 -27.26,14.789 -27.26,33.4101 0,21.6914 9.41,35.8985 28.61,35.8985 7.49,0 14.59,-1.7266 20.54,-4.0313 l 1.92,15.1758 c -6.72,1.9141 -14.2,3.0664 -21.69,3.0664 -31.87,0 -47.62,-21.6992 -47.62,-52.4141 0,-35.1367 19.01,-45.890581 41.86,-45.890581 11.14,0 21.31,2.492191 27.64,4.992191"
         style="fill:#231f20;fill-opacity:1;fill-rule:nonzero;stroke:none"
         id="path50" />
      <path
         d="M 2185,1.91406 V 68.7383 c 0,16.8984 -6.91,30.5312 -28.8,30.5312 -15.93,0 -27.64,-8.457 -33.21,-21.5039 l -0.39,0.1836 c 1.35,4.9922 1.73,12.8633 1.73,19.0156 v 45.1132 h -17.27 V 1.91406 h 17.27 V 47.8047 c 0,21.1211 11.33,37.0586 27.07,37.0586 12.68,0 16.32,-7.8711 16.32,-21.3086 V 1.91406 H 2185"
         style="fill:#231f20;fill-opacity:1;fill-rule:nonzero;stroke:none"
         id="path52" />
      <path
         d="M 2295.38,1.91406 V 68.7383 c 0,16.8984 -6.92,30.5312 -28.81,30.5312 -16.32,0 -28.03,-8.8398 -33.6,-22.0898 l -0.39,0.1914 c 1.16,5.5703 1.55,14.4062 1.55,19.9727 h -16.7 V 1.91406 h 17.26 V 47.8047 c 0,21.1211 11.33,37.0586 27.07,37.0586 12.68,0 16.33,-7.8711 16.33,-21.3086 V 1.91406 h 17.29"
         style="fill:#231f20;fill-opacity:1;fill-rule:nonzero;stroke:none"
         id="path54" />
      <path
         d="m 2347.94,124.414 c 0,6.34 -5.18,11.133 -11.51,11.133 -6.35,0 -11.52,-4.988 -11.52,-11.133 0,-6.34 5.17,-11.328 11.52,-11.328 6.33,0 11.51,5.187 11.51,11.328 z M 2345.06,1.91406 V 97.3438 h -17.27 V 1.91406 h 17.27"
         style="fill:#231f20;fill-opacity:1;fill-rule:nonzero;stroke:none"
         id="path56" />
      <path
         d="m 2452.35,1.91406 -39.55,51.84764 36.66,43.5821 h -20.92 l -33.6,-41.8555 v 86.5897 h -17.28 V 1.91406 h 17.28 V 51.0742 l 35.32,-49.16014 h 22.09"
         style="fill:#231f20;fill-opacity:1;fill-rule:nonzero;stroke:none"
         id="path58" />
      <path
         d="m 121.656,735.324 c 0,5.371 -2.308,7.676 -7.695,7.676 H 60.7734 c -5.3867,0 -7.9023,-2.422 -7.9023,-7.793 v -15.559 l 0.043,-28.496 c 0,-5.39 -2.2969,-7.707 -7.6875,-7.707 l -22.5391,0.129 C 17.3086,683.574 15,681.277 15,675.891 v -45.84 c 0,-5.395 2.3086,-7.696 7.6875,-7.696 l 22.2734,-0.019 c 5.3829,0 7.6914,-2.297 7.6914,-7.68 V 460.969 c 0,-76.86 60.7067,-129.875 123.7187,-129.875 10.754,0 14.602,0.769 14.602,7.683 v 46.118 c 0,4.609 -2.309,6.14 -6.149,7.671 -23.051,9.993 -39.199,15.375 -46.101,23.832 -11.532,14.598 -16.91,28.438 -16.91,44.571 v 153.687 c 0,5.383 2.3,7.68 7.679,7.68 h 53.801 c 5.371,0 7.68,2.312 7.68,7.691 v 46.106 c 0,5.383 -2.309,7.676 -7.68,7.676 h -53.801 c -5.379,0 -7.679,2.312 -7.679,7.695"
         style="fill:#231f20;fill-opacity:1;fill-rule:nonzero;stroke:none"
         id="path60" />
    </g>
  </g>
</svg>
