<?xml version="1.0" encoding="UTF-8" standalone="no"?>
<svg
   width="164.258pt"
   height="39.507999pt"
   viewBox="-2 -2 164.258 39.507998"
   version="1.1"
   id="svg41"
   sodipodi:docname="HES-SO_logo_CMJN.eps"
   inkscape:version="1.2.2 (b0a8486541, 2022-12-01)"
   xmlns:inkscape="http://www.inkscape.org/namespaces/inkscape"
   xmlns:sodipodi="http://sodipodi.sourceforge.net/DTD/sodipodi-0.dtd"
   xmlns="http://www.w3.org/2000/svg"
   xmlns:svg="http://www.w3.org/2000/svg">
  <sodipodi:namedview
     id="namedview43"
     pagecolor="#ffffff"
     bordercolor="#000000"
     borderopacity="0.25"
     inkscape:showpageshadow="2"
     inkscape:pageopacity="0.0"
     inkscape:pagecheckerboard="0"
     inkscape:deskcolor="#d1d1d1"
     inkscape:document-units="pt"
     showgrid="false"
     inkscape:zoom="7.0842707"
     inkscape:cx="99.516243"
     inkscape:cy="35.642342"
     inkscape:window-width="5120"
     inkscape:window-height="2083"
     inkscape:window-x="0"
     inkscape:window-y="40"
     inkscape:window-maximized="1"
     inkscape:current-layer="svg41" />
  <defs
     id="defs17">
    <clipPath
       id="clip-0">
      <path
         clip-rule="nonzero"
         d="m 158,73 h 21 v 27.87109 h -21 z m 0,0"
         id="path2" />
    </clipPath>
    <clipPath
       id="clip-1">
      <path
         clip-rule="nonzero"
         d="m 182,73 h 26.35937 v 27.87109 H 182 Z m 0,0"
         id="path5" />
    </clipPath>
    <clipPath
       id="clip-2">
      <path
         clip-rule="nonzero"
         d="M 49.101562,65.363281 H 82 V 100.87109 H 49.101562 Z m 0,0"
         id="path8" />
    </clipPath>
    <clipPath
       id="clip-3">
      <path
         clip-rule="nonzero"
         d="m 86,73 h 27 v 27.87109 H 86 Z m 0,0"
         id="path11" />
    </clipPath>
    <clipPath
       id="clip-4">
      <path
         clip-rule="nonzero"
         d="m 118,73 h 23 v 27.87109 h -23 z m 0,0"
         id="path14" />
    </clipPath>
  </defs>
  <g
     clip-path="url(#clip-0)"
     id="g21"
     transform="translate(-49.101562,-65.363281)">
    <path
       fill-rule="nonzero"
       fill="#ab9f93"
       fill-opacity="1"
       d="m 171.23828,85.125 c 2.08984,0.640625 6.85156,2.167969 6.85156,7.390625 0,1.96875 -0.78515,4.183594 -2.92968,5.8125 -2.76954,2.214845 -6.48438,2.363285 -8.36719,2.363285 -2.82031,0 -5.17578,-0.49219 -7.16016,-1.234379 -0.26172,-0.09766 -0.52344,-0.195312 -0.78515,-0.292969 l -0.26172,-0.445312 c 0.21093,-1.921875 0.21093,-2.167969 0.3125,-4.136719 l 0.52343,-0.148437 c 0.94141,0.691406 3.24219,2.363281 7.26954,2.363281 4.1289,0 5.64843,-2.164063 5.64843,-3.691406 0,-2.265625 -2.25,-3.003907 -5.4414,-3.988281 l -1.67188,-0.542969 c -2.14453,-0.640625 -6.84765,-2.066407 -6.84765,-7.140625 0,-5.074219 4.70312,-7.585938 10.55859,-7.585938 3.87109,0 6.58594,1.035156 7.53125,1.378906 l 0.26172,0.347657 c -0.21094,1.820312 -0.26172,2.015625 -0.42188,3.890625 l -0.46875,0.195312 c -1.30859,-0.789062 -3.34765,-1.96875 -6.74609,-1.96875 -0.73047,0 -1.46094,0.04687 -2.24609,0.246094 -1.56641,0.390625 -2.875,1.425781 -2.875,2.953125 0,2.117187 2.14062,2.757813 5.38671,3.695313 l 1.87891,0.539062"
       id="path19" />
  </g>
  <g
     clip-path="url(#clip-1)"
     id="g25"
     transform="translate(-49.101562,-65.363281)">
    <path
       fill-rule="nonzero"
       fill="#ab9f93"
       fill-opacity="1"
       d="m 202.66016,87.097656 c 0.0547,1.03125 0,4.332032 -1.20313,6.550782 -1.51562,2.707031 -4.02344,3.296874 -5.95703,3.296874 -1.05078,0 -2.14844,-0.195312 -3.08984,-0.640624 -4.12891,-1.96875 -4.17969,-6.945313 -4.17969,-8.914063 0,-2.066406 0.16015,-4.921875 1.57031,-6.941406 1.82813,-2.757813 4.75781,-2.859375 5.75,-2.859375 2.92969,0 4.60156,1.28125 5.59375,2.808594 1.30469,2.167968 1.51563,5.464843 1.51563,6.699218 m 5.69921,-0.199218 c -0.10546,-3.445313 -0.78515,-6.894532 -3.1875,-9.503907 -2.30078,-2.460937 -5.80468,-3.546875 -9.35937,-3.546875 -5.23047,0 -8.25781,2.019532 -9.72656,3.449219 -3.5,3.300781 -3.60547,8.125 -3.60547,9.996094 0,1.625 0.0508,6.648437 3.60547,10.046875 1.67187,1.625 4.65234,3.300786 9.35937,3.300786 3.66016,0 6.7461,-0.839849 9.04297,-3.007818 1.73047,-1.621093 2.82422,-3.542968 3.39844,-5.957031 0.36719,-1.476562 0.47265,-3.101562 0.47265,-4.777343"
       id="path23" />
  </g>
  <path
     fill-rule="nonzero"
     fill="#ab9f93"
     fill-opacity="1"
     d="m 103.3125,21.941407 c 0,1.71875 -1.39453,3.113281 -3.11328,3.113281 -1.718752,0 -3.109372,-1.394531 -3.109372,-3.113281 0,-1.71875 1.39062,-3.113282 3.109372,-3.113282 1.71875,0 3.11328,1.394532 3.11328,3.113282"
     id="path27" />
  <g
     clip-path="url(#clip-2)"
     id="g31"
     transform="translate(-49.101562,-65.363281)">
    <path
       fill-rule="nonzero"
       fill="#1a619a"
       fill-opacity="1"
       d="m 80.785156,65.660156 c -0.05469,3.792969 -0.105468,6.105469 -0.105468,9.554688 0,8.273437 0.15625,16.496094 0.574218,24.769531 l -0.261718,0.296875 c -4.445313,-0.0508 -5.488282,0 -9.410157,0.14844 l -0.261719,-0.29688 c 0.261719,-6.94531 0.261719,-8.57031 0.15625,-15.214841 -2.089843,-0.05078 -4.183593,-0.101563 -6.273437,-0.101563 -2.039063,0 -3.972656,0.05078 -6.273437,0.148438 0.05078,7.140625 0.101562,8.914062 0.417968,15.019531 l -0.261718,0.296875 c -4.597657,-0.0508 -5.542969,0 -9.359376,0.14844 l -0.257812,-0.29688 c 0.101562,-4.136716 0.207031,-6.546872 0.207031,-10.980466 0,-12.214844 -0.3125,-18.269532 -0.574219,-23.34375 l 0.3125,-0.296875 c 4.550782,0 5.332032,0 9.359376,-0.148438 l 0.257812,0.296875 -0.101562,13 c 1.832031,0 3.710937,0.05078 5.539062,0.05078 2.355469,0 4.65625,-0.05078 6.957031,-0.09766 C 71.375,72.800781 71.375,71.371094 71.007812,65.808594 l 0.261719,-0.296875 c 4.390625,0 5.070313,0 9.253907,-0.148438 l 0.261718,0.296875"
       id="path29" />
  </g>
  <g
     clip-path="url(#clip-3)"
     id="g35"
     transform="translate(-49.101562,-65.363281)">
    <path
       fill-rule="nonzero"
       fill="#1a619a"
       fill-opacity="1"
       d="m 95.257812,84.175781 c 0.15625,-1.527343 0.519532,-3.59375 2.507813,-4.777343 0.628906,-0.390626 1.363281,-0.539063 2.089844,-0.539063 1.726561,0 2.769531,0.835937 3.347661,1.722656 0.73046,1.085938 0.78515,2.265625 0.78515,3.398438 z m 15.839848,8.816407 c -1.98828,0.984374 -4.33985,2.117187 -8.15625,2.117187 -3.136722,0 -5.281254,-0.933594 -6.53516,-2.707031 -0.785156,-1.035156 -0.941406,-2.019532 -1.148438,-3.003906 l 16.886718,-0.296876 0.3125,-0.34375 c -0.0508,-2.414062 -0.10547,-4.875 -0.83594,-7.339843 -1.83203,-5.8125 -5.85546,-6.992188 -7.63281,-7.386719 -1.30859,-0.34375 -2.51172,-0.441406 -3.71484,-0.441406 -8.207034,0 -13.644534,5.070312 -13.644534,13.589844 0,2.316406 0.417969,4.726562 1.253906,6.453124 3.035157,6.648438 10.144532,7.238278 13.910158,7.238278 4.33984,0 6.22266,-0.73828 8.99219,-1.773434 l 0.3125,-0.394531 0.36718,-5.5625 -0.36718,-0.148437"
       id="path33" />
  </g>
  <g
     clip-path="url(#clip-4)"
     id="g39"
     transform="translate(-49.101562,-65.363281)">
    <path
       fill-rule="nonzero"
       fill="#1a619a"
       fill-opacity="1"
       d="m 133.16016,84.175781 c 2.875,1.035157 6.90234,2.464844 6.90234,7.878907 0,0.347656 0,0.691406 -0.0547,1.085937 -0.9375,7.042965 -8.78125,7.730465 -12.7539,7.730465 -3.81641,0 -6.01563,-0.78515 -8.57422,-1.671871 l -0.26172,-0.445313 c 0.21094,-2.460937 0.26172,-3.003906 0.36719,-5.5625 l 0.46875,-0.199218 c 0.78125,0.59375 1.20312,0.9375 2.09375,1.378906 1.92968,0.9375 4.07812,1.378906 5.53906,1.378906 2.92578,0 4.1289,-1.328125 4.1289,-2.558594 0,-1.773437 -2.30078,-2.515625 -3.71093,-2.957031 l -1.98828,-0.691406 c -2.45703,-0.882813 -6.79297,-2.460938 -6.79297,-7.730469 0,-1.96875 0.73047,-3.445312 1.41015,-4.332031 2.71875,-3.695313 7.84375,-3.890625 10.40235,-3.890625 3.39843,0 5.54297,0.589844 8,1.230468 l 0.26172,0.292969 -0.52344,5.371094 -0.46875,0.148437 C 136.29686,79.84375 134.2578,78.5625 131.0703,78.5625 c -3.24218,0 -3.66015,1.625 -3.66015,2.214844 0,1.378906 1.41015,1.921875 3.1875,2.511718 l 2.5625,0.886719"
       id="path37" />
  </g>
</svg>
