<svg xmlns="http://www.w3.org/2000/svg" width="816.377" height="1145.197" viewBox="0 0 612.283 858.898"><g data-name="Figure"><g data-name="PlacedPDF"><clipPath id="a"><path transform="matrix(1 0 0 -1 0 858.898)" d="M42.52 782.362h339.85v34.016H42.52z"/></clipPath><g clip-path="url(#a)" fill="#00263d"><path d="M96.432 52.75v8.352c0 .953-.213 1.79-.64 2.507-.427.718-1.043 1.27-1.85 1.651-.806.383-1.76.574-2.861.574-1.66 0-2.95-.425-3.867-1.276-.918-.85-1.377-2.014-1.377-3.492V52.75h2.728v7.902c0 .995.2 1.725.6 2.19.4.465 1.063.698 1.987.698.895 0 1.544-.234 1.947-.703.403-.467.605-1.202.605-2.202V52.75zM102.074 65.658h-2.693v-9.871h2.693zm-2.808-12.423c0-.877.488-1.316 1.466-1.316.977 0 1.465.439 1.465 1.316 0 .418-.122.743-.366.976-.244.232-.611.349-1.099.349-.978 0-1.466-.442-1.466-1.325M110.453 65.658h-2.737V55.027h-3.505v-2.278h9.747v2.278h-3.505zM124.765 65.658h-1.501V54.082h-4.088v-1.333h9.677v1.333h-4.088zM137.197 65.658v-6.26c0-.79-.18-1.377-.54-1.766-.358-.388-.92-.583-1.685-.583-1.018 0-1.761.277-2.23.83-.467.554-.701 1.46-.701 2.72v5.059h-1.466v-13.74h1.466v4.16c0 .5-.024.916-.071 1.245h.088a2.993 2.993 0 0 1 1.232-1.1c.533-.267 1.14-.401 1.823-.401 1.183 0 2.07.28 2.662.843.592.562.888 1.456.888 2.68v6.313zM145.364 57.032c-.777 0-1.397.253-1.859.759-.462.507-.734 1.207-.816 2.102h5.06c0-.924-.207-1.632-.619-2.124-.412-.491-1-.737-1.766-.737m.397 8.803c-1.43 0-2.559-.436-3.386-1.307s-1.24-2.081-1.24-3.63c0-1.558.384-2.798 1.152-3.716.768-.918 1.8-1.377 3.095-1.377 1.212 0 2.171.399 2.878 1.196.706.798 1.06 1.85 1.06 3.157v.927h-6.667c.03 1.136.317 1.998.861 2.587.544.588 1.311.883 2.3.883a7.793 7.793 0 0 0 3.091-.654v1.307a7.755 7.755 0 0 1-1.47.48c-.463.098-1.02.147-1.674.147M162.775 60.201l-1.5-4a21.465 21.465 0 0 1-.6-1.863c-.13.565-.316 1.187-.557 1.863l-1.519 4zm2.075 5.457-1.607-4.106h-5.174l-1.589 4.106h-1.519l5.104-12.962h1.262l5.077 12.962zM172.373 55.804c.43 0 .815.036 1.157.106l-.204 1.36a4.946 4.946 0 0 0-1.06-.133c-.782 0-1.451.318-2.007.954-.557.636-.835 1.427-.835 2.375v5.192h-1.466v-9.677h1.21l.168 1.792h.07c.359-.63.792-1.115 1.298-1.457a2.926 2.926 0 0 1 1.669-.512M179.207 65.835c-1.401 0-2.486-.431-3.253-1.294-.77-.862-1.153-2.082-1.153-3.66 0-1.618.39-2.87 1.17-3.752.78-.883 1.89-1.324 3.333-1.324.465 0 .93.05 1.395.15.465.1.83.218 1.095.353l-.45 1.245a6.91 6.91 0 0 0-1.06-.322 4.685 4.685 0 0 0-1.016-.128c-1.965 0-2.948 1.254-2.948 3.76 0 1.19.24 2.102.719 2.738.48.636 1.19.954 2.132.954.807 0 1.634-.174 2.482-.521v1.298c-.648.335-1.463.503-2.446.503M187.074 64.625c.259 0 .509-.02.75-.057.242-.04.433-.078.575-.12v1.122c-.16.076-.393.139-.702.19-.31.05-.587.075-.835.075-1.872 0-2.808-.986-2.808-2.958V57.12h-1.386v-.706l1.386-.61.618-2.066h.848v2.243h2.808v1.139h-2.808v5.695c0 .583.138 1.03.415 1.342.277.312.656.468 1.139.468M191.798 65.658h-1.466v-9.677h1.466zm-1.589-12.3c0-.335.082-.581.247-.737a.865.865 0 0 1 .617-.234c.236 0 .439.08.61.239.17.159.256.403.256.732 0 .33-.086.576-.256.738a.856.856 0 0 1-.61.243.843.843 0 0 1-.617-.243c-.165-.162-.247-.408-.247-.738M198.773 65.835c-1.401 0-2.486-.431-3.253-1.294-.77-.862-1.153-2.082-1.153-3.66 0-1.618.39-2.87 1.17-3.752.78-.883 1.89-1.324 3.333-1.324.465 0 .93.05 1.395.15.465.1.83.218 1.095.353l-.45 1.245a6.91 6.91 0 0 0-1.06-.322 4.685 4.685 0 0 0-1.016-.128c-1.965 0-2.948 1.254-2.948 3.76 0 1.19.24 2.102.719 2.738.48.636 1.19.954 2.132.954.807 0 1.634-.174 2.482-.521v1.298c-.648.335-1.463.503-2.446.503M218.18 52.75v8.352c0 1.471-.444 2.628-1.333 3.47-.89.841-2.111 1.262-3.664 1.262-1.554 0-2.757-.424-3.607-1.27-.851-.849-1.276-2.015-1.276-3.498V52.75h1.5v8.423c0 1.078.295 1.904.884 2.481.588.577 1.454.866 2.596.866 1.088 0 1.927-.29 2.516-.87.589-.58.883-1.41.883-2.494V52.75zM227.998 65.658v-6.26c0-.79-.18-1.377-.539-1.766-.359-.388-.921-.583-1.686-.583-1.013 0-1.754.274-2.225.822-.471.547-.707 1.45-.707 2.71v5.077h-1.465V55.98h1.192l.238 1.324h.071c.3-.476.721-.846 1.263-1.108a4.096 4.096 0 0 1 1.809-.393c1.166 0 2.043.282 2.632.844.588.562.883 1.46.883 2.697v6.313zM233.94 65.658h-1.466v-9.677h1.466zm-1.589-12.3c0-.335.082-.581.247-.737a.869.869 0 0 1 .618-.234c.236 0 .439.08.609.239.171.159.256.403.256.732 0 .33-.085.576-.256.738a.852.852 0 0 1-.609.243.847.847 0 0 1-.618-.243c-.165-.162-.247-.408-.247-.738M239.167 65.658l-3.673-9.677h1.572l2.083 5.739c.47 1.342.748 2.213.83 2.614h.07c.066-.312.27-.958.615-1.938.344-.98 1.116-3.12 2.317-6.415h1.572l-3.673 9.677zM249.798 57.032c-.777 0-1.397.253-1.86.759-.461.507-.733 1.207-.816 2.102h5.06c0-.924-.206-1.632-.62-2.124-.41-.491-1-.737-1.764-.737m.397 8.803c-1.43 0-2.56-.436-3.386-1.307-.827-.871-1.241-2.081-1.241-3.63 0-1.558.385-2.798 1.153-3.716.768-.918 1.799-1.377 3.094-1.377 1.213 0 2.172.399 2.879 1.196.706.798 1.059 1.85 1.059 3.157v.927h-6.666c.03 1.136.316 1.998.86 2.587.545.588 1.312.883 2.3.883a7.793 7.793 0 0 0 3.092-.654v1.307a7.755 7.755 0 0 1-1.471.48c-.462.098-1.02.147-1.673.147M260.667 55.804c.43 0 .815.036 1.157.106l-.204 1.36a4.946 4.946 0 0 0-1.06-.133c-.782 0-1.451.318-2.007.954-.557.636-.835 1.427-.835 2.375v5.192h-1.466v-9.677h1.21l.168 1.792h.07c.359-.63.792-1.115 1.298-1.457a2.926 2.926 0 0 1 1.669-.512M269.876 63.018c0 .901-.336 1.595-1.007 2.084-.671.488-1.613.733-2.825.733-1.283 0-2.284-.204-3.002-.61v-1.36c.465.236.964.421 1.497.557a6.26 6.26 0 0 0 1.54.203c.765 0 1.354-.123 1.766-.367.412-.244.618-.616.618-1.116 0-.377-.163-.699-.49-.967-.326-.268-.964-.584-1.912-.949-.9-.336-1.54-.629-1.92-.879-.38-.25-.662-.534-.847-.852-.186-.318-.278-.698-.278-1.139 0-.789.32-1.41.962-1.867.64-.457 1.52-.685 2.64-.685 1.042 0 2.06.212 3.055.636l-.521 1.192c-.971-.4-1.852-.6-2.64-.6-.695 0-1.22.108-1.572.326-.353.218-.53.518-.53.901 0 .26.067.48.199.662.133.183.346.356.64.521.295.165.86.403 1.696.715 1.147.418 1.923.84 2.326 1.263.403.423.605.956.605 1.598M273.725 65.658h-1.466v-9.677h1.466zm-1.589-12.3c0-.335.082-.581.247-.737a.869.869 0 0 1 .618-.234c.235 0 .439.08.61.239.17.159.255.403.255.732 0 .33-.085.576-.255.738a.858.858 0 0 1-.61.243.847.847 0 0 1-.618-.243c-.165-.162-.247-.408-.247-.738M279.959 64.625c.259 0 .509-.02.75-.057.242-.04.433-.078.575-.12v1.122c-.16.076-.393.139-.702.19-.31.05-.587.075-.835.075-1.872 0-2.808-.986-2.808-2.958V57.12h-1.386v-.706l1.386-.61.618-2.066h.848v2.243h2.808v1.139h-2.808v5.695c0 .583.138 1.03.415 1.342.277.312.656.468 1.139.468M281.68 55.98h1.572l2.12 5.519c.464 1.26.752 2.17.864 2.729h.071c.076-.301.237-.814.481-1.541s1.043-2.962 2.397-6.706h1.572L286.598 67c-.412 1.089-.893 1.86-1.443 2.318-.55.456-1.226.684-2.027.684-.447 0-.889-.05-1.324-.15v-1.174c.324.07.685.106 1.086.106 1.006 0 1.724-.566 2.154-1.696l.54-1.377zM298.006 60.81c0 1.236.247 2.178.742 2.826.494.647 1.22.971 2.18.971.96 0 1.688-.323 2.186-.967.497-.645.746-1.588.746-2.83 0-1.23-.25-2.165-.746-2.803-.498-.639-1.232-.958-2.203-.958-.96 0-1.684.315-2.172.944-.49.63-.733 1.57-.733 2.817m7.373 0c0 1.577-.398 2.81-1.192 3.695-.795.886-1.893 1.33-3.294 1.33-.865 0-1.633-.204-2.304-.61-.671-.406-1.19-.989-1.554-1.748-.365-.76-.547-1.649-.547-2.667 0-1.577.394-2.806 1.182-3.686.789-.88 1.884-1.32 3.285-1.32 1.354 0 2.43.45 3.227 1.351.798.9 1.197 2.12 1.197 3.655M312.31 57.12h-2.464v8.538h-1.466V57.12h-1.73v-.662l1.73-.53v-.54c0-2.377 1.04-3.566 3.117-3.566.512 0 1.113.104 1.801.309l-.38 1.175c-.565-.183-1.047-.274-1.448-.274-.553 0-.962.184-1.227.552-.265.368-.397.958-.397 1.77v.627h2.463zM329.077 65.658h-1.713l-7.055-10.834h-.07c.094 1.272.14 2.437.14 3.497v7.337h-1.385v-12.91h1.695l7.037 10.79h.07c-.011-.158-.038-.67-.08-1.531-.04-.862-.055-1.48-.043-1.85V52.75h1.404zM333.385 60.81c0 1.236.247 2.178.742 2.826.494.647 1.221.971 2.181.971.959 0 1.687-.323 2.185-.967.497-.645.746-1.588.746-2.83 0-1.23-.249-2.165-.746-2.803-.498-.639-1.232-.958-2.203-.958-.959 0-1.684.315-2.172.944-.489.63-.733 1.57-.733 2.817m7.373 0c0 1.577-.398 2.81-1.192 3.695-.795.886-1.893 1.33-3.294 1.33-.865 0-1.633-.204-2.304-.61-.671-.406-1.189-.989-1.554-1.748-.365-.76-.547-1.649-.547-2.667 0-1.577.394-2.806 1.182-3.686.789-.88 1.884-1.32 3.285-1.32 1.354 0 2.43.45 3.227 1.351.798.9 1.197 2.12 1.197 3.655M347.742 55.804c.43 0 .816.036 1.157.106l-.203 1.36a4.961 4.961 0 0 0-1.06-.133c-.783 0-1.452.318-2.008.954-.557.636-.835 1.427-.835 2.375v5.192h-1.466v-9.677h1.21l.168 1.792h.07c.359-.63.792-1.115 1.298-1.457a2.928 2.928 0 0 1 1.669-.512M358.61 65.658l-1.774-5.677c-.112-.348-.321-1.136-.627-2.366h-.07c-.236 1.03-.442 1.824-.62 2.383l-1.826 5.66h-1.695l-2.64-9.677h1.536l1.426 5.554c.327 1.27.514 2.128.56 2.569h.07c.066-.336.17-.77.315-1.302.144-.533.269-.955.375-1.267l1.775-5.554h1.589l1.73 5.554c.33 1.012.554 1.862.67 2.552h.072c.023-.213.087-.54.19-.981.103-.441.716-2.816 1.84-7.125h1.52l-2.676 9.677zM367.414 64.625c.912 0 1.629-.25 2.15-.751.52-.5.78-1.2.78-2.101v-.874l-1.464.062c-1.166.04-2.006.222-2.521.543-.515.32-.773.82-.773 1.496 0 .53.16.934.48 1.21.322.277.77.415 1.348.415m3.31 1.033-.29-1.377h-.071c-.483.606-.964 1.016-1.444 1.23-.48.216-1.078.324-1.796.324-.96 0-1.712-.248-2.256-.742-.545-.494-.817-1.198-.817-2.11 0-1.954 1.563-2.978 4.688-3.073l1.642-.053v-.6c0-.76-.163-1.32-.49-1.682-.326-.362-.85-.543-1.567-.543-.806 0-1.718.247-2.737.74l-.45-1.12a6.882 6.882 0 0 1 1.567-.61 6.799 6.799 0 0 1 1.709-.22c1.153 0 2.008.256 2.565.768.556.512.834 1.334.834 2.464v6.604zM373.294 55.98h1.572l2.119 5.519c.464 1.26.753 2.17.865 2.729h.07c.077-.301.237-.814.482-1.541.244-.727 1.043-2.962 2.397-6.706h1.572L378.21 67c-.411 1.089-.893 1.86-1.443 2.318-.55.456-1.225.684-2.026.684-.447 0-.89-.05-1.324-.15v-1.174c.324.07.685.106 1.086.106 1.006 0 1.725-.566 2.154-1.696l.539-1.377zM65.33 54.21h3.232a8.632 8.632 0 0 0-.551-.85h-2.232c-.126-.246-.342-.594-.342-.594h2.106c-.297-.356-.62-.692-.963-1.006h-2.497l-2.612 1.624 2.27 1.814z"/><path d="M54.825 58.414H53.26l-.293-.49h-1.73c.575-.79 1.544-1.446 2.381-1.446h1.208zm1.451-1.936a.733.733 0 1 1 0 1.467.733.733 0 0 1 0-1.467m-5.733.982c-.226.274-.569.657-.569.93 0 .147.12.282.281.281h2.252l.373.62h11.394l.573-.852h5.098c-.035-.34-.086-.676-.153-1.005h-2.698c-.03-.198-.066-.423-.102-.594h2.663a10.476 10.476 0 0 0-.389-1.186h-5.905l-4.877-3.895h-6.103a10.3 10.3 0 0 0-.964 1.007h2.112c-.093.148-.254.426-.343.593h-2.23a8.46 8.46 0 0 0-.557.851h5.946l1.32 1.444h-3.7c-1.369 0-2.348.563-3.422 1.806M62.142 65.426a.733.733 0 1 1-1.465 0 .733.733 0 0 1 1.465 0m.718-.733h1.19c.761 0 1.633.604 2.163 1.332h-1.592l-.27.452h-1.49zm7.024-3.569c.055-.356.091-.719.108-1.085h-8.488l-6.26 3.893h-5.318c.173.374.353.711.567 1.06h2.353c.1.235.286.594.286.594h-2.248c.248.352.493.662.781.98H54.3l.552.72h9.907l.292-.57h2.022a.26.26 0 0 0 .26-.262c0-.25-.323-.664-.532-.917-.777-.94-1.708-1.605-3.118-1.605h-2.099l1.545-1.417h6.444c.083-.28.143-.517.203-.799h-2.694c.034-.225.06-.413.08-.592z"/><path d="m54.956 63.405 2.89-1.782-2.546-1.584h-6.322c.018.349.052.746.105 1.085h2.72c.03.264.08.593.08.593H49.19c.06.279.12.527.203.798h4.133zM52.56 74.468a.699.699 0 0 1-.35-.954.7.7 0 0 1 .958-.347.704.704 0 0 1 .352.96c-.18.384-.598.511-.96.341M55.8 74.92l.31-1.7.592.107-.298 1.642c-.088.486.083.757.458.825.376.068.631-.125.72-.611l.298-1.642.593.108-.309 1.702c-.142.783-.684 1.106-1.398.976-.71-.128-1.109-.622-.966-1.406M59.85 76.536h-.603v-2.821h.602zM60.623 73.647l2.431-.423.091.52-.919.16.405 2.33-.599.103-.405-2.329-.914.158zM66.35 74.472a.699.699 0 0 1-.954-.345.7.7 0 0 1 .349-.957.704.704 0 0 1 .962.347c.178.384.007.786-.356.955M50.05 73.696l-1.943-1.505.322-.416.734.57 1.442-1.862.478.371-1.442 1.861.73.566zM45.862 69.747l2.17-1.895.394.452-.912.796.858.982.912-.796.395.452-2.169 1.895-.395-.452.862-.753-.858-.982-.862.753zM44.254 67.125l.454-.263.684 1.181.544-.315-.62-1.07.442-.257.62 1.071.593-.343-.684-1.18.46-.267.978 1.693-2.492 1.442zM44.787 63.84l-.182-.68-.833.588zm-1.792-.199 2.496-1.81.158.588-.604.43.28 1.041.736.065.155.58-3.067-.319zM43.873 61.03l-.037-.553c-.02-.299-.19-.443-.428-.427-.243.016-.392.181-.372.481l.037.552zm.49-.034 1.073-.072.039.594-2.872.193-.08-1.184c-.04-.603.256-1.027.845-1.067.459-.03.766.203.89.598l1.063-.832.046.674-1.024.783zM42.59 57.275c.036-.312.148-.55.31-.72l.6.068a1.048 1.048 0 0 0-.36.686c-.06.513.27.89.834.955.56.064.967-.23 1.026-.743.03-.27-.028-.508-.195-.75l.602.07c.119.202.175.459.139.77-.095.83-.755 1.355-1.64 1.254-.886-.101-1.41-.76-1.316-1.59M42.87 55.745l.716-2.351.503.153-.271.889 2.252.686-.176.579-2.252-.687-.27.884zM46.801 53.325l-.252.544-2.613-1.21.253-.545zM45.263 50.138c.17-.265.373-.43.592-.512l.511.324a1.047 1.047 0 0 0-.625.459c-.277.435-.146.918.333 1.223.475.302.968.216 1.245-.22.146-.228.198-.467.154-.757l.511.325c.018.234-.045.489-.213.754-.448.704-1.27.887-2.022.408-.75-.478-.934-1.3-.486-2.004M48.268 49.099l-1.165-1.268.442-.406 1.124 1.223c.333.362.65.389.93.132s.28-.576-.053-.939l-1.123-1.222.442-.407 1.165 1.268c.536.584.467 1.209-.065 1.697-.53.486-1.16.506-1.697-.078M53.289 46.792l-.407.243-2.151-.95.984 1.647-.496.296-1.476-2.472.483-.288 2.024.91-.933-1.562.495-.296zM54.406 46.361l-.556.228-1.093-2.666.557-.228zM55.686 45.938l-1.76-2.523.615-.157 1.238 1.833.207-2.202.6-.154-.336 3.059zM59.323 42.52l.036.524-1.362.092.043.627 1.235-.084.034.51-1.235.084.047.683 1.36-.092.037.528-1.951.133-.195-2.873zM60.79 43.911l.55.062c.298.033.47-.108.497-.346.027-.242-.109-.418-.407-.45l-.55-.063zm-.055.49-.12 1.067-.592-.067.322-2.862 1.18.133c.6.068.965.434.9 1.022-.052.457-.337.717-.749.77l.631 1.194-.67-.075-.59-1.148zM62.84 44.99c.19.26.468.477.786.573.28.084.516.063.581-.152.055-.18-.042-.283-.225-.422l-.364-.257c-.367-.258-.573-.551-.434-1.01.155-.511.68-.656 1.218-.493.337.102.587.266.77.469l-.17.56a1.405 1.405 0 0 0-.73-.534c-.247-.075-.462-.047-.519.142-.05.17.04.272.215.393l.386.279c.415.297.55.613.425 1.022-.164.543-.71.676-1.293.499a1.802 1.802 0 0 1-.819-.502zM65.537 46.797l-.547-.247 1.185-2.625.547.247zM67.324 44.426l2.091 1.29-.276.448-.79-.488-1.237 2.003-.515-.318 1.237-2.003-.786-.485zM71.29 47.327l.472.421-1.97.637-.727.815-.444-.396.727-.816.417-2.023.486.434-.29 1.376zM73.37 50.662c-.245-.384-.732-.423-1.207-.12-.474.302-.644.761-.399 1.145.247.388.737.431 1.212.128s.641-.765.394-1.153m-2.057 1.313c-.43-.677-.202-1.486.522-1.947.728-.465 1.554-.33 1.986.346.432.677.208 1.487-.519 1.952-.724.461-1.557.325-1.989-.351M72.231 53.478l2.674-1.066.711 1.781-.488.195-.49-1.229-.679.271.453 1.137-.484.193-.453-1.137-1.024.408zM73.601 59.042l-.056-.47 1.744-1.577-1.904.226-.068-.572 2.86-.339.065.558-1.657 1.476 1.807-.214.068.573zM75.885 60.977c.04-.453-.322-.782-.882-.83-.56-.05-.975.21-1.014.662-.04.458.32.792.881.841.56.05.974-.215 1.015-.673m-2.429-.214c.07-.799.746-1.3 1.6-1.224.86.075 1.432.686 1.362 1.485-.07.8-.742 1.304-1.6 1.23-.856-.077-1.432-.693-1.362-1.49M74.62 63.501l-.156.531c-.084.288.025.482.255.55.234.068.43-.036.515-.324l.156-.53zm-.473-.138-1.03-.302.167-.572 2.763.81-.333 1.14c-.17.58-.594.875-1.161.71-.441-.13-.65-.455-.63-.87l-1.285.416.19-.649 1.23-.382zM74.184 67.98l-1.934-.509 1.462 1.356-.287.516-2.152-2.056.267-.479 1.906.481-1.413-1.367.267-.479 2.881.745-.294.53-1.921-.534 1.446 1.385zM71.146 69.4l-.467.525.949.372zm.82 1.605-2.885-1.087.404-.456.691.268.716-.807-.352-.65.399-.45 1.423 2.736zM69.445 73.267l-.495.393-.29-2.05-.678-.856.465-.37.68.856 1.921.757-.51.405-1.305-.522z"/></g></g></g></svg>