<?xml version="1.0" encoding="UTF-8" standalone="no"?>
<!-- Created with Inkscape (http://www.inkscape.org/) -->

<svg
   version="1.1"
   id="svg1"
   width="185.2"
   height="65.506668"
   viewBox="0 0 185.2 65.506668"
   sodipodi:docname="Uni of Bath logo (slate).svg"
   inkscape:version="1.4.2 (f4327f4, 2025-05-13)"
   xmlns:inkscape="http://www.inkscape.org/namespaces/inkscape"
   xmlns:sodipodi="http://sodipodi.sourceforge.net/DTD/sodipodi-0.dtd"
   xmlns="http://www.w3.org/2000/svg"
   xmlns:svg="http://www.w3.org/2000/svg">
  <defs
     id="defs1" />
  <sodipodi:namedview
     id="namedview1"
     pagecolor="#ffffff"
     bordercolor="#000000"
     borderopacity="0.25"
     inkscape:showpageshadow="2"
     inkscape:pageopacity="0.0"
     inkscape:pagecheckerboard="0"
     inkscape:deskcolor="#d1d1d1"
     inkscape:zoom="5.6568543"
     inkscape:cx="68.766134"
     inkscape:cy="49.939416"
     inkscape:window-width="3440"
     inkscape:window-height="1377"
     inkscape:window-x="-8"
     inkscape:window-y="-8"
     inkscape:window-maximized="1"
     inkscape:current-layer="group-R5">
    <inkscape:page
       x="0"
       y="0"
       inkscape:label="1"
       id="page1"
       width="185.2"
       height="65.506668"
       margin="0"
       bleed="0" />
  </sodipodi:namedview>
  <g
     id="g1"
     inkscape:groupmode="layer"
     inkscape:label="1">
    <g
       id="group-R5">
      <path
         id="path2"
         d="m 270.574,403.203 c 8.774,24.758 18.36,31.485 24.391,34.992 5.094,2.938 8.254,-3.507 4.133,-6.672 -2.95,-2.277 -11.739,-9.871 -11.739,-13.328 0,-2.226 2.176,-1.269 4.758,-1.269 2.578,0 1.578,-6.352 1.274,-11.43 -0.325,-5.074 -1.481,-9.84 -1.996,-16.031 -0.516,-6.192 -1.739,-17.727 -4.309,-21.328 -2.59,-3.614 -6.551,-7.199 -6.031,-2.043 0.511,5.156 0,9.289 -2.739,8.996 -4.007,-0.41 -5.421,-4.121 -8.511,-8.77 -3.094,-4.64 -7.996,-4.125 -8.504,3.614 -0.524,7.73 0.508,8.504 9.273,33.269 m -63.34,50.254 c 2.844,-5.156 17.032,-14.434 21.672,-20.625 4.641,-6.191 4.641,-26.824 3.09,-39.199 -1.547,-12.371 3.609,-19.082 7.223,-24.754 3.609,-5.676 8.769,-11.348 8.769,-13.41 0,-2.063 1.91,-4.746 4.918,-6.024 1.504,-0.636 11.602,-3.586 16.504,-5.39 4.469,-1.645 9.207,-6.985 14.914,-10.168 4.332,-2.395 20.153,-7.676 23.742,-7.293 12.118,1.289 6.707,4.636 6.192,6.187 -0.524,1.535 3.281,6.262 4.019,8.735 1.907,6.347 -3.808,3.804 -2.222,9.312 1.011,3.469 -1.539,6.195 -3.598,4.121 -2.07,-2.058 -1.832,-8.883 -2.43,-12.488 -0.589,-3.594 -6.339,-4.531 -8.402,-2.461 -2.07,2.063 1.652,3.762 3.961,7.219 1.898,2.859 -2.856,3.496 -6.031,3.094 -4.086,-0.516 -2.321,4.132 3.101,8.769 3.321,2.852 3.723,7.063 6.821,15.313 3.089,8.242 7.031,14.386 7.031,21.085 0,6.708 -5.153,2.168 -6.703,-0.664 -1.387,-2.57 -3.867,-8.828 -5.188,-14.074 -1.84,-7.351 -6.187,-16.062 -9.441,-14.961 -2.492,0.852 2.582,11.614 3.613,22.442 1.031,10.832 5.41,28.105 10.566,39.441 5.161,11.359 14.856,8.664 20.2,8.664 5.039,0 10.383,0 15.742,4.699 0.289,0.243 0.609,0.465 0.937,0.664 -20.277,10.426 -42.379,17.801 -65.707,21.504 -0.507,-3.886 -0.961,-8.527 -0.343,-9.14 1.582,-1.582 8.121,0 11.296,0.32 2.016,0.195 10.219,-0.879 10.786,-2.859 0.57,-1.993 -1.93,-4.297 -6.348,-4.77 -6.02,-0.625 -16.262,-1.414 -19.352,-3.484 -3.097,-2.063 -1.589,-7.024 -1.589,-8.574 0,-1.532 0.859,-0.301 -4.297,-12.684 -5.164,-12.387 -10.325,-26.816 -13.414,-26.301 -3.102,0.508 0.64,8.438 1.668,17.207 1.031,8.77 6.664,18.731 4.132,20.949 -1.347,1.18 -6.347,-4.433 -6.031,0.321 0.199,2.968 0.953,19.668 -0.316,26.648 -0.379,2.094 -1.16,3.695 -2.125,4.934 -2.957,0.105 -5.926,0.183 -8.914,0.183 -6.832,0 -13.594,-0.32 -20.266,-0.933 2.574,-2.793 9.504,-5.129 14.32,-5.879 6.7,-1.028 10.43,-6.828 10.954,-9.414 0.519,-2.571 1.269,-19.992 0.628,-25.071 -0.589,-4.707 -1.265,-9.863 -3.851,-15.535 -2.578,-5.683 -2.578,-21.152 -6.188,-21.152 -3.613,0 -2.668,5.027 -3.281,12.891 -0.629,8.015 1.27,12.382 1.27,12.382 0,0 8.972,14.696 4.851,26.305 -1.5,4.223 -6.262,10.863 -12.637,11.606 -3.574,0.418 -9.425,1.113 -14.023,1.824 -3.352,0.519 -8.703,8.41 -10.059,9.543 -0.031,0.027 -0.093,0.058 -0.132,0.086 -3.008,-0.528 -5.996,-1.121 -8.969,-1.778 3.59,-1.535 7.191,-4.16 8.937,-7.363"
         style="fill:#424a52;fill-opacity:1;fill-rule:nonzero;stroke:none"
         transform="matrix(0.13333333,0,0,-0.13333333,0,65.506667)" />
      <path
         id="path3"
         d="m 58.0625,252.336 c 0.9531,1.894 1.3398,6.777 1.5898,10.801 0.211,3.379 0.8399,6.98 -1.2695,7.605 -2.5,0.75 -5.2383,-0.808 -5.7226,-3.164 -0.4688,-2.375 -1.9375,-7.762 -4.1211,-7.305 -4.0196,0.84 -6.0274,-6.726 -6.0274,-8.886 0,-4.657 -8.7812,-5.399 -8.5703,-1.59 0.1289,2.266 4.1289,15.234 4.2344,20 0.0781,3.523 -3.711,6.746 -1.9024,10.367 1.4375,2.895 2.1485,13.734 2.5977,15.539 1.9102,3.488 10.4805,6.027 6.3477,-5.078 -1.2149,-3.289 -2.875,-7.52 0.7812,-8.984 2.1211,-0.852 3.4727,-0.774 6.8438,6.445 2.2187,4.758 10.4648,2.539 6.6601,-5.398 -3.2734,-6.829 4.3086,-5.833 5.9609,-6.543 1.6602,-0.723 1.9571,-3.977 1.6993,-6.145 -0.3711,-3.047 3.1172,-3.719 5.707,-3.164 2.582,0.535 13.5,6.328 20.0273,5.109 7.5746,-1.418 10.7736,-2.582 13.1406,-3.527 2.363,-0.945 6.152,-0.945 5.199,2.363 -0.933,3.313 2.625,9.348 3.102,11.699 0.473,2.375 5.074,4.856 4.234,7.415 -0.84,2.546 -8.984,5.73 -10.883,5.957 -2.16,0.281 -4.019,-7.09 -4.488,-11.348 -0.484,-4.262 -7.0702,-4.301 -8.4725,-0.551 -1.9102,5.078 -4.7578,5.402 -6.0313,12.063 -0.8789,4.582 -5.0781,4.757 -8.2539,7.297 -5.6562,4.519 -1.0312,7.925 -1.2656,9.843 -0.6797,5.528 -6.3867,6.239 -8.3164,3.992 -2,-2.332 -5.2813,0.325 -7.4102,0.567 -3.1484,0.351 -11.0429,-0.938 -14.4218,-1.387 -4.7579,-0.633 -5.379,-2.976 -6.0586,-4.875 -0.961,-2.715 -4.7188,-1.504 -7.5079,-0.133 -6.4335,-20.683 -9.9023,-42.675 -9.9023,-65.492 0,-4.617 0.1602,-9.187 0.4375,-13.738 1.0703,0.676 2.0313,1.047 2.2305,1.199 1.5937,1.262 14.9726,6.77 16.8242,7.617 3.0664,1.418 12.0586,9.535 13.0078,11.43"
         style="fill:#424a52;fill-opacity:1;fill-rule:nonzero;stroke:none"
         transform="matrix(0.13333333,0,0,-0.13333333,0,65.506667)" />
      <path
         id="path4"
         d="m 245.68,14.6797 c -127.684,0 -231.1644,103.4963 -231.1644,231.1603 0,127.668 103.4804,231.164 231.1644,231.164 127.668,0 231.144,-103.496 231.156,-231.164 C 476.824,118.176 373.348,14.6797 245.68,14.6797 m 0,476.6683 C 109.988,491.34 0.0117188,381.359 0,245.676 0.0117188,109.98 109.988,0 245.68,0 c 135.687,0 245.668,109.98 245.668,245.676 0,135.683 -109.981,245.664 -245.668,245.672"
         style="fill:#424a52;fill-opacity:1;fill-rule:nonzero;stroke:none"
         transform="matrix(0.13333333,0,0,-0.13333333,0,65.506667)" />
      <path
         id="path5"
         d="m 452.195,183.156 c -1.175,-1.664 -4.754,-5.715 -7.699,-2.394 -1.906,2.16 -7.797,7.804 -11.586,9.218 -3.777,1.426 -8.519,0.95 -9.703,0.95 -1.176,0 -0.707,3.074 -4.019,3.308 -3.309,0.246 -5.208,0.918 -6.661,1.289 -3.558,0.926 0.024,4.661 -1.582,6.036 -2.222,1.894 -7.234,-1.727 -8.433,-1.868 -2.121,-0.23 -7.203,2.278 -2.672,3.45 4.777,1.23 0.621,3.972 -1.27,5.402 -1.527,1.133 -5.019,-2.774 -6.992,-1.594 -1.578,0.949 1.914,4.445 -1.008,6.445 -0.992,0.684 -4.769,-2.871 -7.871,-4.539 -1.469,-0.793 -6.32,-2.785 -4.199,-4.679 2.129,-1.895 4.496,-1.192 5.449,-2.61 0.938,-1.414 3.539,-4.019 6.149,-5.672 2.601,-1.66 16.55,-7.097 19.16,-13.718 2.601,-6.621 8.332,-17.895 6.43,-28.782 -1.887,-10.878 -3.61,-10.585 -3.61,-16.492 0,-5.91 1.16,-9.582 2.578,-12.89 1.422,-3.321 0.621,-3.555 -1.027,-5.688 -1.66,-2.129 -2.281,-3.426 -2.043,-5.074 0.234,-1.66 -4.746,-3.41 -5.688,-0.344 -0.949,3.086 -5.296,19.121 -4.589,25.496 0.711,6.399 4.968,9.477 4.5,17.278 -0.481,7.812 -5.071,18.691 -9.797,21.523 -4.735,2.844 -14.903,10.176 -31.461,9.231 -11.871,-0.676 -10.094,-0.422 -14.203,-0.95 -3.2,-0.41 -8.258,-0.254 -7.09,4.739 0.543,2.304 15.629,0.625 13.738,1.812 -1.898,1.184 -3.246,4.613 -2.539,6.027 0.715,1.418 1.574,4.563 -0.078,5.52 -1.66,0.945 -8.758,-0.832 -10.649,-0.129 -1.89,0.715 -4.187,0.977 -5.14,2.863 -0.953,1.895 1.59,5.907 3.25,4.727 1.66,-1.192 4.019,-2.844 6.387,-2.617 2.363,0.242 5.675,1.425 3.539,4.019 -2.118,2.61 -6.614,2.844 -9.926,4.035 -3.309,1.18 -6.629,3.536 -3.793,4.727 2.844,1.184 4.742,2.117 8.281,0.234 3.551,-1.894 4.262,-3.078 7.34,-4.023 3.07,-0.938 4.73,0 7.57,-1.414 2.828,-1.43 5.442,-4.961 7.801,-4.492 2.371,0.468 16.09,9.461 24.129,10.164 8.043,0.715 13.961,1.648 20.82,-1.883 6.86,-3.559 13.313,-11.281 15.61,-12.317 2.129,-0.937 8.324,-10.214 9.269,-11.64 0.953,-1.406 1.903,-6.336 5.399,-8.699 2.011,-1.36 4.961,0.476 6.156,0.711 1.176,0.246 2.957,-3.036 1.773,-4.696 M 347.836,149.648 c 5.676,-2.597 12.062,-9.218 12.535,-11.113 0.477,-1.894 -2.125,-5.672 -3.785,-6.152 -1.66,-0.469 -4.02,3.547 -3.551,6.387 0.477,2.843 -3.406,3.984 -7.777,5.031 -5.528,1.328 -8.301,0.652 -10.899,0.887 -2.613,0.234 -7.574,3.078 -9.472,8.984 -1.891,5.918 -1.649,9.23 -4.258,8.762 -2.602,-0.469 -4.731,-3.079 -4.02,-6.153 0.711,-3.078 1.188,-6.386 -0.472,-6.855 -1.649,-0.481 -7.328,2.597 -7.098,6.148 0.238,3.539 0.949,7.793 3.551,9.457 2.601,1.649 5.922,4.492 8.039,6.864 2.129,2.351 3.922,3.664 3.684,6.496 -0.293,3.543 1.757,4.922 5.078,5.39 3.308,0.477 5.675,-1.476 5.199,-7.629 -0.469,-6.164 -2.36,-14.187 1.18,-18.925 3.55,-4.739 6.386,-4.969 12.066,-7.579 m 15.863,-40.886 c 1.141,-1.379 2.981,-6.887 2.981,-8.039 0,-1.1449 0.55,-10.4027 -1.153,-11.2386 -4.41,-2.168 -2.5,-4.4531 -5.996,-5.9766 -3.492,-1.5234 -6.41,0.0078 -6.66,2.5391 -0.32,3.1719 1.156,5.0976 2.539,7.6133 1.375,2.5234 -2.211,8.1168 -2.539,8.8908 -0.953,2.226 -3.633,5.058 -5,5.523 -1.383,0.461 -12.172,0.227 -14.465,-0.691 -3.207,-1.375 -3.664,0.461 -2.976,1.609 0.679,1.137 2.617,4.164 6.89,5.617 4.266,1.457 15.36,2.864 18.118,2.649 2.75,-0.235 3.902,-2.766 4.132,-4.145 0.231,-1.375 2.981,-2.984 4.129,-4.351 M 347.156,72.0781 c -2.859,-1.2656 -5.398,-0.9453 -7.297,-2.8476 -1.789,-1.7969 -3.371,-5.0899 -5.711,-6.2617 -2.335,-1.1602 -8.25,-3.125 -11.992,-4.2969 -3.758,-1.1719 -7.879,-3.7305 -9.285,-4.9024 -1.41,-1.1718 -3.941,-0.4882 -7.223,-0.2539 -3.281,0.2344 -6.289,0.0703 -9.8,-1.8047 -3.508,-1.875 -12.641,-2.2461 -20.371,-1.5429 -7.727,0.6914 -17.747,-0.8203 -22.442,-1.3008 -4.676,-0.4688 -9.816,-1.0625 -12.625,1.0351 -2.812,2.1094 -1.621,4.7383 0.258,5.6836 1.871,0.9297 4.992,0.8399 5.934,1.5313 0.925,0.7148 9.066,5.207 11.699,6.3984 1.207,0.5469 6.726,3.1172 9.211,3.8086 1.754,0.4883 4.816,2.6641 7.625,3.1367 2.812,0.4688 5.062,1.3086 6.172,2.4219 0.769,0.7695 1,2.625 -1.813,3.0938 -2.808,0.4765 -5.078,1.125 -6.957,2.0586 -1.871,0.9414 -4.57,2.414 -6.441,0.7734 -1.879,-1.6406 -2.996,-3.1133 -6.887,-4.1406 -3.551,-0.918 -7.023,-2.5664 -9.832,-3.0352 -2.813,-0.4726 -8.672,-3.5078 -11.481,-4.2109 -2.808,-0.711 -8.05,-2.8594 -11.332,-1.6875 -3.277,1.1797 -0.847,5.1836 0.325,7.2929 1.172,2.1211 4.57,9.0508 7.605,9.5235 3.055,0.4687 4.817,-0.3828 6.68,-0.3828 1.871,0 8.664,2.8125 11.476,4.6875 2.809,1.875 12.414,3.9726 17.567,2.5781 5.152,-1.4141 11.82,-5.0195 13.148,-6.4922 2.321,-2.5781 1.77,-6.2617 3.875,-6.9648 2.11,-0.7032 4.047,-0.3633 5.231,0.8007 1.164,1.1719 5.144,1.1719 5.144,3.9844 0,2.8125 -2.34,4.2188 -4.679,4.4531 -2.348,0.2344 -5.629,0.6915 -6.329,1.8633 -0.703,1.1836 -2.582,4.4649 -3.98,5.625 -1.399,1.1758 -3.75,5.1602 -1.637,5.1602 2.11,0 7.024,-0.707 8.426,-2.8125 1.402,-2.1094 4.219,-4.2227 5.859,-3.9766 1.641,0.2266 2.571,0.9375 3.743,1.3985 1.171,0.4687 3.519,-1.1719 4.921,-3.5079 1.407,-2.3437 1.164,-2.8125 2.11,-3.75 0.926,-0.9375 4.445,-4.4531 4.918,-7.0195 0.461,-2.582 0.988,-9.5351 2.16,-10.2461 1.168,-0.6914 4.941,-0.0781 7.219,0.2656 4.679,0.7032 7.715,3.418 10.519,4.8125 2.809,1.418 4.371,1.2891 6.242,2.918 1.871,1.6445 3.719,6.2617 3.387,8.832 -0.469,3.5157 6.344,2.586 6.344,0.9571 0,-1.6406 -0.703,-6.6797 0,-7.6211 0.699,-0.9453 2.301,-2.7305 2.531,-3.9024 0.238,-1.1836 -0.273,-1.2695 -2.215,-2.1328 M 232.281,108.262 c -1.582,2.539 -5.101,4.648 -6.984,4.441 -3.207,-0.359 -4.859,6.801 -2.539,7.934 1.961,0.957 4.133,1.609 6.031,3.496 1.508,1.48 5.238,1.64 5.707,-0.957 0.484,-2.602 1.754,-7.383 3.176,-9.758 1.414,-2.352 4.828,-2.734 5.535,-4.395 0.715,-1.652 3.148,-4.832 6.223,-6.25 3.082,-1.425 16.031,-3.4878 18.386,-3.7183 2.375,-0.2344 5.493,-3.7813 1.469,-4.0234 -4.015,-0.2266 -15.879,-0.254 -21.457,1.4921 -5.07,1.5821 -7.531,3.8206 -10.148,5.3906 -1.192,0.703 -3.871,3.906 -5.399,6.348 m -22.531,16.816 c -0.801,-2.187 -1.492,-5.058 -9.52,-6.023 -1.66,-0.207 -6.39,1.582 -8.253,1.582 -1.848,0 -5.438,-1.125 -7.297,-1.582 -1.852,-0.469 -2.45,2.097 -2.219,3.484 0.23,1.399 -3.738,2.41 -6.031,1.27 -3.172,-1.582 -1.102,-9.258 -0.629,-11.106 0.461,-1.851 -1.41,-5.457 -2.805,-6.394 -1.387,-0.918 -4.637,-0.918 -5.098,0.234 -0.472,1.16 -1.621,5.801 -2.089,7.422 -0.457,1.633 -1.391,5.32 0.699,10.898 2.082,5.559 9.504,6.258 12.281,6.028 2.777,-0.227 5.332,-0.696 5.332,-0.696 0,0 3.02,2.774 4.41,5.098 1.387,2.316 6.719,4.402 7.879,6.719 1.156,2.324 -0.465,3.711 -3.937,3.945 -3.485,0.234 -9.274,-4.18 -12.051,-5.332 -2.793,-1.16 -13.453,1.387 -14.84,2.09 -1.394,0.691 0,4.394 -1.164,5.098 -1.16,0.695 -3.25,-0.458 -7.422,-1.622 -4.168,-1.16 -9.965,-5.566 -10.656,-7.421 -0.699,-1.844 -0.242,-6.446 -2.781,-6.954 -2.321,-0.468 -3.618,-3.015 -3.618,-5.156 0,-1.844 3.539,-2.558 5.387,-3.484 1.852,-0.93 2.461,-6.621 5.082,-9.199 2.207,-2.2 1.797,-4.348 2.653,-6.965 0.714,-2.215 2.433,-1.692 3.933,-2.324 1.344,-0.555 1.324,-1.883 2.324,-3.7 0.707,-1.3005 2.875,-1.8552 4.727,-2.7732 1.859,-0.9296 1.762,-3.4882 3.625,-5.5664 1.848,-2.0898 5.324,-1.3984 7.176,0 1.863,1.375 2.148,3.5118 2.851,5.1446 0.699,1.6211 3.477,3.77 6.031,5.391 2.547,1.621 5.536,2.871 9.2,4.433 4.449,1.914 8.5,3.582 11.75,3.821 3.242,0.222 10.121,1.171 10.472,-2.852 0.336,-4.043 -4.761,-2.863 -5.992,-4.824 -1.058,-1.692 -1.39,-5.3323 -4.172,-6.719 -2.781,-1.3867 -4.636,-2.7852 -5.57,-5.0977 -0.918,-2.3281 -3.969,-6.9648 -4.898,-8.125 -0.93,-1.1523 -3.411,-0.8125 -4.832,-1.1445 -3.11,-0.75 -7.282,-1.961 -9.125,-2.6641 -1.864,-0.6875 -4.454,-4.4375 -5.485,-5.9179 -1.058,-1.5352 -7.242,-3.7735 -12.808,-5.6172 -5.559,-1.8555 -14,-1.961 -17.02,-1.0352 -3.008,0.9258 -1.691,2.7149 -0.531,4.8047 1.14,2.0625 6.953,2.3164 10.664,3.4687 3.703,1.1602 6.715,2.5469 6.715,4.8711 0,2.3164 -3.243,4.6407 -6.028,6.4844 -2.781,1.8672 -3.007,3.711 -3.941,5.8008 -0.918,2.0781 -3.242,2.5508 -5.563,3.4766 -2.32,0.9296 -3.707,1.6211 -4.636,3.4765 -0.918,1.8558 -0.231,3.2498 -1.395,4.4058 -1.156,1.161 -3.394,4.598 -3.777,6.883 -0.309,1.907 0.543,10.039 -0.621,12.364 -1.157,2.316 -3.942,1.843 -6.032,0.929 -2.089,-0.929 -3.937,-1.164 -5.792,0.457 -1.852,1.621 -4.176,11.133 -5.793,15.528 -1.622,4.414 -6.114,19.015 -5.883,20.859 0.246,1.863 1.203,7.461 2.23,10.789 1.063,3.469 1.332,5.219 3.422,7.531 2.082,2.325 4.402,7.188 4.871,10.207 0.457,3.004 2.117,4.461 4.399,7.977 1.879,2.891 6.211,2.91 10.152,2.219 3.937,-0.703 8.219,0.523 9.84,1.687 1.621,1.16 -1.34,5.742 7.41,4.871 4.617,-0.457 7.137,-4.234 10.621,-7.945 3.477,-3.715 1.156,-7.188 -0.23,-10.43 -1.391,-3.254 -0.934,-6.73 -0.473,-14.843 0.473,-8.11 -4.789,-8.125 -7.809,-9.524 -3.011,-1.387 -6.05,-0.383 -6.98,0.324 -0.93,0.692 -1.902,-0.304 -5.371,-0.539 -3.481,-0.234 -2.649,0.989 -2.879,3.078 -0.231,2.078 3.57,7.352 5.89,8.739 2.321,1.394 4.168,0.468 5.098,1.632 0.934,1.161 0.692,7.879 -0.23,10.204 -0.926,2.312 -4.477,2.539 -6.95,1.007 -3.5,-2.168 -7.976,-10.929 -9.839,-13.007 -1.848,-2.09 -6.161,-18.848 -6.86,-21.157 -0.691,-2.324 -2.09,-9.265 1.156,-12.058 3.254,-2.782 6.497,1.394 5.563,3.476 -0.918,2.09 0.711,3.782 1.41,6.563 0.699,2.785 9.223,2.219 13.649,2.219 6.343,0 9.863,2.742 12.375,3.496 3.175,0.957 6.668,1.265 9.515,1.902 2.051,0.449 4.895,0.852 9.524,3.176 4.636,2.324 8.851,1.004 10.476,0.32 1.621,-0.703 2.852,-6.348 4.254,-7.93 1.375,-1.55 3.957,-0.539 5.578,0.625 1.617,1.164 1.942,5.793 3.813,6.418 2.859,0.946 5.808,-1.711 8.816,-3.339 3.024,-1.622 6.832,-4.172 7.527,-4.629 0.696,-0.469 3.711,1.152 4.403,2.07 0.703,0.937 -1.617,2.559 -3.246,4.187 -1.621,1.614 -2.313,3.704 -3.473,5.098 -1.156,1.387 -3.711,1.16 -5.801,1.621 -2.082,0.469 -0.386,2.969 1.934,4.129 2.308,1.156 4.715,0.922 6.336,0 1.633,-0.934 2.347,-1.746 6.992,-1.266 4.629,0.457 6.559,-2.023 8.879,-3.183 2.316,-1.164 4.254,-0.395 8.883,0.32 4.129,0.637 10.148,-0.664 12.699,-1.582 2.547,-0.926 1.797,-6.726 2.891,-10.84 0.906,-3.437 0.906,-6.297 4.086,-13.925 1.382,-3.321 2.222,-7.93 2.011,-10.743 -0.133,-1.765 -1.461,-6.277 0.602,-8.086 1.5,-1.296 5,-3.379 9.027,-4.636 1.113,-0.356 5.953,-2.231 8.031,-2.231 2.09,0 3.629,-2.703 6.411,-5.254 2.781,-2.547 3.64,-9.566 3.871,-12.1169 0.226,-2.5508 -2.532,-1.3672 -4.383,0.2656 -1.86,1.6211 -2.297,1.7969 -4.391,4.1213 -2.09,2.312 -6.086,4.637 -7.476,4.637 -1.395,0 -10.633,-2.247 -13.411,-1.543 -2.785,0.695 -6.89,3.878 -7.593,4.816 -0.699,0.926 -4.578,1.258 -6.66,2.41 -2.09,1.16 -5.59,4.863 -8.137,9.27 -2.551,4.402 -5.328,12.285 -7.418,13.906 -2.082,1.629 -3.473,2.32 -5.793,1.387 -2.32,-0.918 -4.684,-4.414 -9.75,-2.539 -5.332,1.968 -10.16,-3.497 -12.379,-9.524 M 192.148,54.1992 c -1.898,-3.4844 -7.386,-3.1328 -11.109,-1.8945 -4.762,1.5742 -8.883,5.3906 -7.289,8.8789 0.93,2.0391 7.93,6.3477 12.828,4.2383 3.41,-1.4688 7.66,-7.4024 5.57,-11.2227 m -61.8,33.7617 c -2.532,1.1329 -16.321,9.9414 -18.45,12.7811 -2.128,2.844 -4.015,4.973 -8.519,7.332 -4.4923,2.367 -7.5782,6.203 -11.3595,6.203 -3.7929,0 -14.0429,-2.332 -13.3281,2.864 1.1758,4.265 2.8555,5.398 5.5274,6.543 2.2421,0.957 -0.5508,2.879 -0.4493,5.839 0.086,2.684 3.8086,2.86 11.0977,0.321 7.3008,-2.539 4.8828,-0.332 9.8398,-1.27 4.973,-0.957 7.844,-11.164 9.844,-12.707 3.066,-2.351 13.398,-17.7811 17.691,-22.9373 3.547,-4.2578 4.496,-7.8008 -1.894,-4.9688 M 67.2617,131.105 c 1.1563,3.465 8.5664,18.067 9,21.473 0.4649,3.781 -4.2422,6.985 3.586,7.473 2.3711,0.152 2.3593,2.129 1.1836,4.734 -1.1836,2.598 -5.4415,2.129 -4.0235,4.485 1.4219,2.371 2.1328,1.425 3.5547,4.968 1.4141,3.555 2.8359,13.723 5.668,17.508 3.2187,4.301 5.2109,2.609 7.8086,4.965 2.6015,2.371 4.0234,5.918 6.8589,6.394 2.84,0.469 8.52,0.235 10.649,-1.179 2.121,-1.43 2.832,-2.844 0.715,-4.024 -2.133,-1.191 -6.125,-1.281 -6.602,-3.644 -0.469,-2.363 2.356,-4.324 5.078,-5.399 2.719,-1.066 -4.129,-13.031 -5.078,-16.171 -1.422,-4.739 -4.051,-5.54 -8.3123,-7.903 -4.2579,-2.375 -5.1602,-2.976 -4.2579,-4.969 1.1875,-2.609 0.4805,-4.257 -2.121,-5.675 -2.6094,-1.426 -4.5,-3.321 -8.2774,-9.231 -3.7891,-5.918 -5.4492,-14.39 -9.7148,-18.875 -3.3086,-0.715 -6.6602,2.238 -5.7149,5.07 m -3.8047,19.676 c -0.6679,-4.441 -4.0586,-9.16 -6.0312,-7.293 -2.707,2.547 -0.2461,8.758 -2.4766,9.93 -4.4531,0.715 -7.3711,4.395 -4.6523,8.898 1.0039,1.649 0.6015,4.422 1.6914,6.336 2.9375,5.176 -2.0703,6.575 0.2617,10.696 0.9375,1.679 10.3398,12.976 12.3398,14.48 3.9219,2.981 10.7461,8.684 14.211,9.629 3.4687,0.957 5.3086,-1.199 4.3203,-3.809 -0.9922,-2.597 -6.3242,-6.914 -8.3008,-9.519 -1.9844,-2.598 -5.0586,-5.899 -5.3125,-10.149 -0.25,-4.257 -2.5898,-6.765 -5.3086,-10.789 -2.7187,-4.015 0.0781,-12.902 -0.7422,-18.41 M 96,212.109 c 1.3594,1.368 5.223,5.711 9.277,7.989 4.133,2.324 16.403,7.07 21.153,8.254 5.937,1.484 11.547,2.019 14.047,1.796 2.5,-0.238 4.66,-0.293 6.929,1.969 2.274,2.278 6.602,0.199 8.422,-0.484 1.824,-0.695 2.352,-5.844 0.992,-7.434 -1.359,-1.59 -4.308,-4.504 -5.89,-7.453 -1.59,-2.945 -11.844,-7.652 -21.149,-9.019 -9.312,-1.368 -23.062,2.128 -25.793,2.578 -2.718,0.457 -3.34,-0.149 -5.1482,-1.289 -1.8203,-1.133 -4.1992,1.726 -2.8398,3.093 m 80.316,65.086 c 4.266,4.258 10.192,2.129 12.282,0 1.652,-1.687 -0.239,-5.164 -1.508,-7.918 -1.422,-3.078 -4.492,-8.269 -6.86,-8.269 -2.359,0 -9.46,1.414 -10.41,6.14 -0.84,4.2 1.535,6.028 6.496,10.047 m 14.18,-28.777 c 3.313,-1.414 4.234,-1.902 7.402,-2.324 3.18,-0.418 13.829,-0.418 16.512,0.207 3.586,0.847 7.367,2.929 8.039,6.773 0.621,3.606 1.11,7.727 3.953,6.781 2.836,-0.949 5.828,-2.57 5.356,-6.359 -0.481,-3.801 -6.25,-7.363 -8.469,-11.008 -2.601,-4.254 1.262,-4.558 0.422,-6.265 -1.262,-2.61 -2.383,-7.844 -1.891,-12.539 0.481,-4.493 -8.281,-9.465 -8.281,-9.465 0,0 -4.969,-3.789 -1.648,-6.629 2.586,-2.207 5.668,-1.418 6.379,-4.727 0.671,-3.097 1.187,-9.687 -1.649,-12.062 -2.844,-2.363 -6.391,-4.024 -8.281,-2.598 -1.891,1.414 -4.301,5.203 -7.473,3.313 -4.09,-2.453 -2.23,-4.875 -2.23,-7.571 0,-2.695 -4.438,-4.922 -7.098,-6.621 -1.25,-0.808 -4.98,-1.418 -6.621,-0.957 -4.258,1.192 -6.609,5.891 -8.516,7.578 -2.125,1.883 -2.832,5.207 -0.472,4.727 2.371,-0.469 5.679,-1.414 8.988,-1.414 3.309,0 6.621,1.414 6.621,2.832 0,1.426 -1.891,4.265 -1.891,4.265 0,0 -0.468,2.833 2.372,2.833 2.839,0 7.089,-0.477 8.992,3.789 1.886,4.257 2.355,4.257 3.308,6.14 0.938,1.906 -1.422,5.688 -3.793,3.789 -2.359,-1.883 -5.199,-4.734 -6.617,-2.832 -1.879,2.512 -6.344,5.649 -7.097,6.145 -1.422,0.945 -5.055,0.207 -6.461,1.609 -1.422,1.438 -5.782,7.688 -7.204,9.106 -1.421,1.414 -4.015,7.183 -0.21,10.996 2.75,2.754 -0.348,4.59 -1.899,5.293 -2.609,1.187 0.16,7.304 3.469,6.347 3.308,-0.937 5.254,-3.937 7.531,-5.5 3.383,-2.324 12.711,-4.382 16.5,-4.875 3.781,-0.465 10.191,-0.816 12.691,-0.769 1.95,0.027 7.098,-1.887 6.805,2.859 -0.246,4.055 -3.664,3.098 -5.535,2.785 -1.918,-0.332 -8.031,-0.586 -12.062,-0.207 -6.77,0.625 -11.266,1.797 -12.688,2.746 -1.422,0.957 -0.562,5.235 2.746,3.809 m 7.195,11.934 c 4.969,4.023 7.336,3.554 5.918,-0.711 -0.898,-2.688 -1.191,-7.571 4.961,-7.102 6.16,0.469 5.207,4.746 4.266,6.633 -0.945,1.894 -0.477,4.734 1.894,3.789 2.36,-0.949 3.848,-2.609 4.02,-4.504 0.23,-2.598 -2.441,-7.078 -5.82,-8.348 -4.2,-1.562 -12.739,-0.429 -14.809,1.27 -2.613,2.137 -3.742,5.66 -0.43,8.973 m 38.969,-66.973 c 4.258,0.48 5.68,-0.938 7.102,0 1.418,0.957 4.199,2.949 6.144,2.844 4.254,-0.227 2.672,-10.332 5.914,-13.243 4.727,-4.257 0.828,-8.332 -2.375,-4.492 -2.355,2.832 -3.777,1.883 -5.668,1.883 -1.886,0 -2.129,1.66 -3.55,2.129 -1.418,0.48 -6.391,-1.887 -8.282,3.086 -1.183,3.113 -3.547,7.324 0.715,7.793 M 328.75,89.8555 c 4.73,-1.1836 3.73,-6.8672 -0.293,-7.336 -2.359,-0.2734 -7.246,-1.3281 -8.906,-0.9179 -2.543,0.6367 -6.031,5.1562 -6.985,6.3476 -0.945,1.1836 -3.035,4.9727 -3.168,7.6172 -0.32,6.3476 4.332,6.5746 6.981,6.6716 4.66,0.157 4.391,-1.672 5.387,-6.3591 0.953,-4.4336 3.761,-5.2148 6.984,-6.0234 m -45.102,59.7225 c 4.653,-1.004 7.954,-3.824 9.883,-4.187 2.508,-0.469 6.66,3.175 8.055,-0.118 1.363,-3.195 3.863,-8.398 8.414,-10.222 4.539,-1.817 14.297,-1.817 18.391,-0.676 4.089,1.121 5.449,-0.234 8.168,-1.141 2.726,-0.91 4.882,-1.398 6.468,-1.171 1.59,0.222 4.895,-0.188 6.02,-1.782 1.144,-1.59 2.281,-4.383 0.012,-5.515 -1.672,-0.84 -6.211,1.23 -8.25,0.312 -2.039,-0.906 -8.801,-2.683 -12.649,-4.785 -5,-2.734 -11.582,-2.949 -16.121,-2.949 -4.539,0 -11.301,0.683 -14.758,4.543 -2.051,2.265 -5.222,3.172 -5,4.754 0.231,1.601 0.68,4.093 -0.679,6.14 -1.364,2.043 -2.289,3.996 -3.786,3.403 -5.675,-2.266 -3.484,4.312 -4.168,5.234 -0.679,0.906 -3.859,3.621 -4.089,5.215 -0.219,1.59 -1.129,4.09 4.089,2.945 m 56.059,125.246 c 2.844,-0.234 5.914,0 11.363,3.078 5.258,2.977 9.93,0.946 16.317,-0.714 6.39,-1.653 12.394,-11.067 16.261,-12.254 1.934,-0.598 17.801,-1.692 19.223,-1.938 1.414,-0.23 0.859,-3.633 1.09,-5.047 0.238,-1.426 3.168,-1.094 9.32,-3 6.149,-1.883 3.778,-8.992 4.02,-11.355 0.226,-2.364 2.836,-4.258 3.547,-5.906 0.711,-1.661 0.711,-3.313 1.183,-4.739 0.469,-1.418 4.117,-5.066 -0.062,-6.535 -2.86,-1.004 -8.457,2.277 -11.996,2.746 -3.551,0.481 -9.696,0.363 -11.118,0.606 -1.414,0.234 -1.468,5.363 -4.007,5.683 -1.707,0.215 -6.172,-1.551 -11.852,-2.5 -5.676,-0.945 -10.766,-6.648 -13.008,-4.726 -2.687,2.285 -5.168,2.929 -8.23,1.261 -1.039,-0.57 -5.25,-3.183 -7.617,-3.183 -2.375,0 -5.075,2.547 -4.121,3.504 0.937,0.937 4.898,1.75 6.546,3.164 1.661,1.426 0.954,4.844 -4.015,4.133 -2.578,-0.372 -1.559,4.921 2.23,5.386 3.348,0.422 4.18,6.274 1.574,6.039 -2.593,-0.238 -6.007,-1.144 -8.367,0.743 -2.367,1.902 0,4.265 2.602,5.214 2.598,0.938 7.332,-1.418 9.937,-1.664 2.602,-0.23 4.235,1.313 6.383,2.602 2.778,1.68 6.61,1.844 6.801,5.484 0.191,3.645 -3.012,5.871 -4.203,6.582 -1.18,0.715 -8.602,4.985 -13.57,5.696 -4.969,0.695 -7.75,-2.039 -8.458,-2.754 -0.722,-0.703 -3.371,-2.395 -6.14,-3.172 -1.652,-0.481 -3.524,5.203 -1.633,7.566 m -65.859,-14.187 c 3.222,3.008 6.98,1.472 5.711,0 -0.692,-0.801 -3.172,-4.446 -0.969,-6.739 1.64,-1.718 6.258,-2.785 8.75,0 2.547,2.84 0.238,4.137 -0.231,5.094 -0.476,0.942 -0.07,2.649 2.36,1.887 2.371,-0.731 5.109,-2.09 5.109,-3.984 0,-4.454 -2.738,-6.29 -6.34,-7.559 -4.91,-1.746 -9.679,-0.145 -12.492,0.996 -2.738,1.113 -5.277,7.129 -1.898,10.305 m 182.601,-57.989 c -1.027,-3.617 -2.117,-6.488 -5.73,-6.488 -3.61,0 -2.617,1.488 -5.203,5.09 -2.578,3.613 -5.157,11.348 -5.676,12.902 -0.508,1.543 -3.61,3.094 -4.641,5.157 -1.027,2.058 -1.027,9.277 -1.027,9.277 l 0.469,3.113 c 0,0 -2.532,3.594 -5.11,5.149 -2.582,1.531 -3.613,7.722 -5.16,12.363 -1.555,4.648 2.836,6.719 6.957,4.648 4.133,-2.05 9.031,-11.855 10.582,-14.433 1.535,-2.578 1.067,-16.477 2.668,-17.871 2.07,-1.809 9.211,-2.539 9.965,0.586 0.535,2.246 -2.555,5.125 -3.195,6.812 -0.508,1.367 -0.926,3.762 -0.926,6.86 0,3.093 -1.813,5.144 -5.422,9.277 -3.613,4.121 -1.801,5.937 -0.773,6.961 1.031,1.035 7.531,-2.949 10.316,-8.504 2.574,-5.168 2.945,-14.594 6.758,-14.387 2.058,0.117 2.316,8.008 2.316,15.246 0,7.215 -3.179,11.629 -6.129,12.696 -5.293,1.902 -18.156,5.527 -22.289,6.558 -4.121,1.035 -7.726,2.074 -10.828,1.555 -3.094,-0.52 -4.902,-0.52 -5.933,2.062 -1.032,2.578 4.128,3.868 4.128,5.418 0,1.543 -3.968,2.727 -6.546,3.77 -2.582,1.023 -7.973,0.508 -9.52,0 -1.539,-0.527 -1.98,-2.481 -5.602,-4.031 -3.609,-1.555 -13.41,-0.508 -14.953,4.636 -1.547,5.168 2.832,10.84 1.805,11.875 -1.031,1.028 -5.93,-2.84 -9.02,-3.875 -3.101,-1.027 -9.035,-2.316 -9.542,0.25 -0.52,2.59 6.851,5.422 6.851,5.422 0,0 3.723,3.098 4.754,5.156 1.027,2.063 -0.523,8.86 -0.523,10.926 0,2.055 -5.29,2.512 -5.29,1.465 0,-1.023 -1.152,-5.426 -3.73,-7.488 -2.582,-2.071 -7.738,-4.129 -9.281,-4.641 -1.547,-0.515 -4.899,-0.515 -7.481,-0.515 -2.578,0 -9.547,-4.903 -12.636,-6.454 -3.09,-1.535 -1.555,3.36 0.515,4.903 2.063,1.551 4.121,3.094 6.699,3.094 2.582,0 3.645,3.574 5.684,5.167 2.457,1.922 7.32,0.438 10.711,1.922 1.945,0.852 2.66,10.84 3.168,12.903 0.519,2.066 3.129,7.343 4.68,10.437 1.55,3.098 0.593,5.41 -0.45,9.024 -1.027,3.625 3.813,4.648 3.813,7.218 0,2.586 -1.289,13.164 -1.813,17.286 -0.519,4.128 4.637,4.636 5.161,7.214 0.507,2.579 -1.622,7.2 -1.352,10.325 0.312,3.445 3.41,5.671 5.473,10.308 2.07,4.641 -2.582,5.16 -4.645,3.606 -2.055,-1.532 -5.156,-8.77 -6.187,-9.793 -1.028,-1.035 -2.352,-3.633 -2.782,-6.172 -0.297,-1.828 -0.871,-8.703 -1.898,-17.981 -1.031,-9.289 -3.313,-25.363 -5.383,-33.613 -2.055,-8.254 -3.855,-10.312 -8.496,-10.828 -4.652,-0.52 -3.621,1.551 -6.199,1.551 -2.121,0 -2.832,-2.332 -3.863,-3.36 -1.032,-1.035 -4.899,-3.347 -8,-3.347 -3.09,0 -2.059,2.578 -2.059,3.609 0,1.027 5.422,2.578 6.957,4.121 1.555,1.543 3.875,4.121 1.297,5.676 -2.586,1.555 -3.953,0.012 -6.195,-1.262 -7.708,-4.324 -6.192,0.559 -5.399,2.539 0.641,1.594 -5.941,3.11 -8.008,3.11 -2.058,0 -1.793,-4.289 -5.676,-5.676 -3.605,-1.289 -5.41,-0.266 -7.988,-0.77 -2.578,-0.519 -0.539,-3.672 0.774,-4.64 2.058,-1.551 0.765,-4.18 5.668,-5.977 1.738,-0.652 5.179,-5.508 7.3,-10.371 1.5,-3.437 2.223,-6.348 1.899,-14.598 -0.153,-4.054 -2.25,-9.804 -2.539,-11.855 -0.629,-4.434 2.961,-7.813 2.961,-10.148 0,-2.625 0.847,-5.079 1.726,-9.981 0.821,-4.57 0,-6.711 -1.547,-11.875 -1.546,-5.144 -1.621,-9.023 -1.031,-13.144 1.031,-7.215 -1.89,-15.274 -3.691,-19.911 -1.496,-3.847 -1.91,-9.746 -1.91,-10.793 0,-1.023 -2.661,-3.328 -3.168,-5.39 -0.524,-2.071 1.593,-4.481 1.593,-6.024 0,-1.554 -0.562,-9.707 -3.132,-9.707 -2.582,0 -8.258,-2.062 -9.29,-3.105 -1.031,-1.028 0.559,-5 -4.093,-6.555 -4.637,-1.543 -9.828,0.879 -14.465,3.985 -4.652,3.085 -8.293,10.097 -9.332,10.617 -1.031,0.523 -2.801,-0.305 -3.828,0.215 -1.032,0.507 -1.801,4.636 -3.352,11.851 -1.551,7.231 -1.551,11.098 2.059,11.098 3.609,0 9.652,-7.102 13.929,-11.614 4.903,-5.144 11.86,-13.41 14.442,-10.312 2.578,3.098 -0.262,5.422 -2.84,9.031 -2.57,3.606 -2.57,7.739 -4.121,9.797 -1.551,2.07 -7.289,2.942 -8,5.418 -0.512,1.801 -1.031,3.606 -3.348,5.93 -2.308,2.304 -4.211,2.812 -5.894,4.758 -1.899,2.234 -3.926,5.437 -4.438,6.992 -0.519,1.543 -2.301,5.523 -5.402,5.008 -2.539,-0.418 -1.289,-4.637 0.266,-6.7 1.546,-2.07 2.359,-6.289 1.328,-7.832 -1.032,-1.55 -5.754,-2.722 -9.102,-1.699 -2.48,0.774 -3.07,1.68 -6.98,2.332 -4.071,0.676 -4.7,-3.258 -8.559,-1.543 -2.324,1.028 -2.773,2.953 -3.289,4.504 -0.516,1.543 -0.422,5.496 -3.055,6.035 -2.777,0.578 -4.894,-0.254 -4.386,3.352 0.457,3.23 4.539,2.547 6.601,2.039 2.059,-0.52 2.746,3.555 2.746,6.133 0,2.578 -4.187,-0.164 -3.929,6.015 0.171,4.258 4.121,8 5.152,10.578 1.031,2.579 -2.024,6.543 -2.57,12.899 -0.52,5.93 0.507,12.637 3.601,13.144 3.102,0.52 8.258,-5.925 11.859,-11.601 3.618,-5.664 5.977,-10.93 9.028,-14.707 2.57,-3.172 6.269,-5.321 11.09,-6.961 3.718,-1.262 10.832,-0.684 14.441,0.523 3.098,1.028 5.551,5.246 8.133,5.766 2.578,0.516 2.91,-2.18 5.277,-3.184 1.801,-0.785 3.102,-0.785 4.129,1.278 1.031,2.07 -4.637,6.203 -6.707,7.226 -2.062,1.035 -8.773,9.539 -12.383,9.539 -4.64,0 -6.699,1.039 -7.218,2.582 -0.512,1.551 6.449,2.059 8.507,2.059 2.071,0 3.993,-2.391 5.543,-3.934 1.535,-1.554 6.602,-3.871 8.559,-1.914 1.547,1.551 0.707,4.375 0.961,7.625 0.258,3.352 3.14,4.063 1.898,7.293 -1.289,3.352 -10.3,-1.969 -23.797,-2.215 -13.414,-0.261 -19.722,3.731 -25.656,6.551 -4.644,2.238 -10.297,6.582 -15.469,6.977 -6.957,0.508 -20.628,-8.774 -23.976,-9.797 -3.762,-1.16 -13.152,-0.527 -17.789,0 -4.653,0.508 -11.094,3.605 -16.25,3.855 -4.75,0.246 -11.563,-6.226 -13.93,-3.855 -3.351,3.351 3.481,7.5 6.707,7.988 3.352,0.52 12.801,0.547 11.86,5.93 -1.028,5.926 -11.086,0.515 -16.25,-0.512 -5.149,-1.031 -2.079,3.203 1.273,4.746 2.727,1.262 8.418,3.977 12.687,7.934 3.61,3.355 4.629,9.734 5.079,10.801 2.543,6.023 6.66,14.589 12.382,18.718 4.309,3.118 10.879,9.375 19.641,10.157 3.098,0.261 9.469,2.976 13.93,5.402 2.84,1.551 -1.032,2.84 -5.418,3.875 -3.821,0.898 -5.414,5.422 -6.442,8.508 -1.043,3.093 -3.609,3.867 -5.679,5.418 -2.063,1.543 -3.864,19.082 -4.379,27.336 -0.524,8.25 0.515,13.672 4.125,13.406 5.14,-0.371 2.183,-8.34 3.144,-13.641 0.52,-2.843 5.008,-0.254 5.11,3.321 0.078,3.101 0,21.668 -2.844,25.527 -3.43,4.687 -19.84,16.402 -20.867,17.957 -1.043,1.543 -0.641,6.973 -3.504,8.242 -1.488,0.664 -2.77,-4.238 -3.797,-8.887 -1.039,-4.636 6.25,-9.05 8.832,-12.656 2.578,-3.613 5.668,-8.515 4.637,-13.164 -1.028,-4.637 -2.059,-31.457 -2.059,-34.043 0,-2.566 -1.547,-7.215 -4.641,-7.215 -3.097,0 -4.128,7.742 -4.64,10.321 -0.52,2.578 1.18,3.664 2.582,4.902 1.191,1.055 0.289,9.043 -1.555,9.277 -2.066,0.254 -4.644,-1.035 -5.418,3.867 -1.148,7.297 3.844,5.079 4.16,10.469 0.262,4.485 -2.539,9.524 -4.257,10.442 -1.711,0.925 -4.122,4.636 -4.02,10.027 0.078,4.336 -1.152,17.031 -0.391,23.098 -2.468,-0.649 -4.921,-1.328 -7.363,-2.051 -0.828,-5.156 -1.426,-11.211 -3.855,-15.879 -3.352,-6.445 -5.078,0.398 -7.719,4.832 -1.375,2.316 -1.543,4.738 -1.234,6.848 -7.192,-2.618 -14.215,-5.618 -21.04,-8.946 1.5,-0.879 2.844,-1.73 3.438,-2.238 2.633,-2.234 9.332,-8.184 14.754,-5.859 2.23,0.957 13.109,-7.547 14.66,-10.645 1.551,-3.094 0.785,-16.457 1.48,-18.406 0.555,-1.594 0.458,-3.906 1.586,-6.848 0,-5.41 3.786,-12.09 5.422,-20.633 2.582,-13.41 13.813,-24.406 12.891,-27.328 -0.859,-2.73 -4.352,-1.461 -7.52,2.035 -2.711,2.977 -8.98,13.438 -10.527,16.532 -1.555,3.097 -0.371,6.445 -1.535,9.804 -0.938,2.715 -3.625,4.375 -4.656,8.254 -1.012,3.789 -1.93,27.606 -2.961,31.727 -1.032,4.133 -7.02,8.019 -8.571,6.973 -1.55,-1.028 -3.011,-6.102 -0.949,-9.2 2.059,-3.086 5.551,-19.472 3.488,-28.23 -2.058,-8.77 -0.808,-34.543 3.059,-46.66 3.102,-9.731 -1.797,-9.809 -6.449,-3.614 -2.617,3.496 -8.246,42.813 -9.278,47.957 -1.031,5.157 -6.453,25.528 -8.769,28.633 -1.383,1.836 -5.02,4.414 -5.531,7 -0.52,2.582 -1.91,9.516 -5.813,10.278 -2.027,0.386 -4.066,-5.325 -5.621,-5.84 -0.719,-0.235 -2.93,1.629 -5.078,3.687 -5.238,-3.367 -10.332,-6.969 -15.258,-10.758 1.07,-0.41 2.219,-0.851 3.379,-1.3 4.438,-1.7 12.758,1.074 25.531,-24.95 12.77,-26.015 11.957,-46.593 14.801,-56.527 2.836,-9.93 13.961,-14.258 21.059,-16.141 7.101,-1.894 2.847,-7.312 0.949,-9.199 -1.891,-1.902 -12.07,1.692 -15.383,2.625 -3.305,0.949 -8.988,9.477 -10.879,11.828 -1.898,2.375 0.469,6.153 -0.945,8.528 -1.422,2.359 -5.211,4.726 -6.152,7.566 -0.95,2.844 1.886,9.465 1.886,11.348 0,1.894 -2.836,8.523 -2.836,8.523 0,0 -0.59,6.137 -0.59,9.446 0,3.308 -0.933,12.199 -3.394,12.695 -3.207,0.644 -3.168,-4.649 -3.168,-4.649 0,-2.371 -0.422,-10.398 -2.309,-14.648 -1.89,-4.266 -4.257,-14.68 -2.371,-31.231 1.903,-16.562 19.641,-28.398 23.418,-32.644 3.789,-4.262 5.926,-12.297 4.035,-13.254 -1.906,-0.945 -2.375,2.371 -3.793,4.27 -1.418,1.882 -12.371,10.632 -17.742,17.261 -10.168,12.532 -9.086,16.594 -11.586,25.785 -4.968,18.219 2.36,44.004 3.309,52.516 0.519,4.691 -1.731,6.953 -4.109,11.809 -2.079,4.25 -5.649,5.437 -9.731,3.496 -4.656,-2.227 -8.922,0.605 -11.43,6.25 -0.461,1.035 -1.5,1.554 -2.761,1.75 -3.7074,-3.254 -7.3285,-6.621 -10.8207,-10.11 -10.2656,-10.273 -19.5195,-21.562 -27.6093,-33.679 1.2383,-1.887 1.6484,-5.696 -1.3282,-9.903 -3.4101,-4.816 -13,-20.918 -15.871,-29.523 -1.7383,-5.223 6.9218,-4.578 8.5703,-1.27 1.0781,2.161 9.2265,18.457 13.0078,25.079 3.7929,6.621 12.6328,21.925 14.2812,25.703 1.6328,3.73 5.4102,7.324 7.3008,11.113 1.8906,3.777 8.082,4.109 5.707,-3.809 -2.3984,-8.054 -13.9804,-26.445 -16.8164,-30.468 -2.6992,-3.829 -11.2578,-18.899 -11.7422,-21.27 -0.4687,-2.352 -1.0976,-5.867 0.3204,-6.348 1.4218,-0.468 7.9414,1.934 9.8398,4.766 1.8906,2.832 8.832,21.121 11.1914,24.434 2.3672,3.308 7.5508,14.14 10.3906,17.453 2.8355,3.316 9.3715,-1.25 6.3395,-6.34 -6.9762,-11.738 -14.2184,-26.27 -17.1285,-30.145 -3.3985,-4.543 0.3164,-11.105 5.707,-5.714 4.7305,4.726 6.8398,10.343 9.1995,14.597 2.375,4.25 5.883,10.012 7.304,12.375 1.414,2.363 7.227,0.293 6.282,-3.484 -0.946,-3.781 -5.66,-12.09 -8.504,-14.922 -2.84,-2.832 -4.473,-6.359 -5.879,-9.199 -1.4181,-2.832 0,-5.285 2.961,-7.192 3.75,-2.41 5.621,-2.234 8.457,-5.078 2.84,-2.84 5.621,-6.187 8.461,-7.605 2.84,-1.426 6.859,-2.422 8.75,-6.2 1.89,-3.789 4.73,-10.656 9.703,-12.539 4.027,-1.543 5.211,-3.086 7.805,-6.398 3.722,-4.734 5.211,-5.867 8.511,-5.676 4.02,0.238 3.789,-4.734 4.504,-8.512 0.438,-2.367 -3.551,-9.453 -3.551,-13.242 0,-3.8 0.829,-14.433 -2.375,-16.093 -2.25,-1.172 -7.25,1.648 -9.226,-0.11 -1.899,-1.687 -6.574,-0.82 -7.832,1.055 -1.692,2.539 -5.078,2.754 -6.559,1.484 -2.539,-2.176 -5.789,-1.609 -7.609,0.207 -1.274,1.27 -4.66,0.211 -6.731,-0.683 -6.011,-2.61 -5.089,2.769 -5.089,2.769 0,0 1.671,4.707 3.8,4.707 1.7,0 4.239,-1.394 5.66,-0.918 1.348,0.453 3.129,4.438 5.106,5.989 2.012,1.562 4.613,2.128 3.387,5.285 -0.735,1.89 1.117,3.543 2.539,4.019 2.726,0.91 6.136,0.637 7.406,2.114 0.973,1.14 0.77,6.472 -2.539,9.304 -3.313,2.844 -12.188,0.363 -13.121,-6.347 -1.176,-8.504 -9.078,-11.946 -14.121,-13.25 -6.375,-1.661 -8.528,-0.012 -13.7268,2.832 -5.211,2.839 -16.211,2.937 -20.5704,1.289 -3.8437,-1.438 -6.1601,-7.364 -2.7773,-7.364 3.3867,0 11.4961,-1.496 15.125,-1.496 5.2031,0 9.5234,-1.902 11.4922,-6.004 2.2503,-4.707 2.1053,-4.687 -4.4883,-3.781 -13.6641,1.856 -27.043,-0.769 -34.6094,-2.898 -2.7461,-0.774 -12.2343,-9.133 -13.6445,-9.844 -1.0312,-0.512 -7.8984,-4.289 -12.6992,-7.934 -4.8008,-3.648 -4.0195,-7.789 -3.168,-12.379 0.207,-1.164 1.5586,-8.898 1.8985,-10.16 0,0 4.2265,4.66 5.3984,6.039 1.1641,1.375 9.8398,6.344 14.2851,11.746 4.0274,4.895 15.7774,11.629 19.3985,13.348 10.3164,4.848 22.0703,4.359 24.8398,3.344 2.7657,-1.028 8.4064,-5.07 4.8754,-8.645 -3.5199,-3.574 -9.559,-8.164 -12.0785,-9.687 -2.5195,-1.543 -5.0703,0.332 -6.8281,-1.453 -1.7696,-1.778 -6.5508,-5.903 -8.6328,-5.801 -6.668,0.32 -15.0157,-1.699 -17.461,-2.219 -4.4375,-0.945 -12.6875,-3.918 -15.8593,-6.133 -3.1758,-2.226 -5.9258,-5.925 -6.0274,-8.144 -0.1094,-2.227 6.9609,-4.863 5.0703,-7.93 -3.9492,-6.465 5.8906,-9.004 3.9805,-12.812 -0.9141,-1.825 -1.668,-3.778 -2.4688,-5.196 11.1563,-28.957 28.2579,-54.968 49.8164,-76.5349 1.8321,-1.8359 3.711,-3.6211 5.6133,-5.3867 -0.0312,3.5117 2.3555,12.4688 5.4374,10.0078 3.949,-3.164 -0.961,-7.6289 9.524,-13.0078 3.027,-1.5625 9.515,-4.4453 9.386,-9.3359 -0.047,-2.1602 -0.371,-4.6992 -0.703,-6.8555 4.914,-3.457 9.981,-6.707 15.172,-9.7578 1.672,1.5273 4.84,3.4101 9.391,1.75 2.109,-0.7539 11.543,-4.4727 20.062,-8.4961 8.508,-4.0234 14.52,-5.2734 19.668,-8.8789 1.957,-1.3828 3.988,-4.3125 4.973,-7.0078 7.48,-2.0039 15.105,-3.6328 22.879,-4.8438 -0.09,3.6602 0.777,8.0938 0.621,9.1992 -0.231,1.6094 -0.199,4.2266 -2.051,6.0704 -1.859,1.8476 -4.629,3.7031 -5.332,6.4882 -0.688,2.7618 -1.277,6.4727 -1.996,8.5352 -2.344,6.6875 -4.016,12.3828 -2.344,16.0742 1.692,3.7188 3.422,9.207 4.352,11.2891 0.922,2.0898 7.25,7.8984 11.418,9.5195 4.16,1.6211 8.968,3.9844 11.738,2.2266 2.555,-1.6211 4.637,-4.2578 5.094,-6.1133 0.64,-2.5586 -5.371,-4.0508 -7.223,-5.6641 -1.852,-1.6211 -3.988,-1.8945 -5.801,-5.6836 -1.816,-3.7773 -4.769,-9.2773 -4.769,-12.6289 0,-2.1367 0.644,-8.0742 1.801,-9.2265 1.164,-1.1602 2.55,-3.6993 2.082,-5.5664 -0.461,-1.8438 -2.282,-4.1993 -1.825,-5.586 0.465,-1.3867 3.563,-2.3242 9.582,-3.4844 6.02,-1.1445 8.606,-3.0117 12.289,-5.0195 1.672,-0.9101 6.543,-5.625 9.571,-5.8789 3.812,-0.3242 33.511,2.2266 37.453,2.2266 2.211,0 7.269,-1.8867 12.402,-3.0508 9.106,2.2578 17.988,5.0508 26.613,8.3906 0.555,13.75 25.735,14.8242 26.356,20.9961 0.305,3.1641 6.348,10.6367 8.566,11.9024 1.172,0.6757 6.102,5.871 7.032,7.0351 0.929,1.1602 9.82,1.875 8.199,5.1172 -1.621,3.2305 -3.008,2.7695 -2.547,6.25 0.457,3.4648 5.137,8.8164 5.137,14.8324 0,6.027 -1.903,14.093 -1.672,15.937 0.246,1.867 1.695,4.57 1.164,6.492 -0.91,3.266 -4.59,1.926 -6.93,6.282 -1.812,3.359 -0.84,6.933 -3.379,9.707 -2.554,2.785 -5.023,2.519 -7.343,3.679 -2.309,1.157 -3.84,3.965 -5.688,5.356 -1.852,1.386 -6.051,2.519 -6.289,5.761 -0.231,3.243 0.945,7.696 -2.77,10.641 -3.703,2.934 -5.769,2.738 -2.992,7.367 3.242,2.325 3.141,2.071 5.688,0.684 2.554,-1.399 7.699,-4.024 14.062,-5.363 5.18,-1.094 19.11,-0.606 21.199,-1.993 2.082,-1.375 2.54,-1.843 4.629,-2.539 2.082,-0.703 9.258,-4.929 10.184,-8.632 0.926,-3.711 0.98,-8.438 0.516,-10.059 -0.469,-1.621 -4.239,-0.996 -5.157,1.555 -0.929,2.539 -1.582,5.789 -4.129,4.636 -2.539,-1.164 -0.972,-11.375 -0.511,-13.925 0.457,-2.547 1.75,-6.219 1.289,-8.782 -0.473,-2.539 -2.84,-2.996 -2.84,-4.636 0,-1.844 3.25,-3.282 4.641,-4.891 1.39,-1.621 2.937,-5.02 3.097,-6.191 0.461,-3.45 5.184,-4.055 5.41,-5.676 0.231,-1.621 -2.64,-8.606 3.102,-7.727 4.238,0.637 7.207,-0.906 8.519,-3.043 4.09,4.696 7.981,9.559 11.661,14.586 -1.668,1.469 -2.918,7.903 -0.942,10.168 3.313,3.781 0.313,9.367 0.313,10.789 0,1.418 3.879,1.543 3.496,5.324 -0.348,3.508 -3.957,4.61 -2.969,7.961 1.672,5.692 0.773,16.063 -1.117,18.661 -1.891,2.597 -5.442,7.089 -6.152,8.996 -0.911,2.429 0.71,4.011 1.421,4.961 3.789,1.89 6.621,-1.426 7.813,-2.61 1.176,-1.172 1.648,-1.64 2.355,-1.883 0.711,-0.246 2.844,-3.312 3.551,-5.441 0.707,-2.129 1.66,-6.387 4.02,-9.941 2.375,-3.543 3.57,-3.758 4.281,-5.411 0.711,-1.648 -1.688,-6.921 -2.012,-9.043 -0.508,-3.289 1.102,-3.914 2.723,-5.828 10.308,19.375 17.808,40.465 21.961,62.75 -2.613,-0.308 -5.133,-1.043 -5.602,-2.672"
         style="fill:#424a52;fill-opacity:1;fill-rule:nonzero;stroke:none"
         transform="matrix(0.13333333,0,0,-0.13333333,0,65.506667)" />
      <path
         id="path6"
         d="m 398.738,96.7305 c 0.703,3.2422 -6.199,3.2815 -6.957,1.6601 -0.847,-1.7968 -0.988,-5.5586 -1.808,-7.7461 -0.825,-2.1679 -4.082,-6.375 -8.524,-9.8632 -1.308,-1.0352 -11.859,-7.168 -14.39,-9.3829 -1.575,-1.3789 -4.34,-5.9882 -2.758,-10.9882 13.398,8.582 25.812,18.582 37.023,29.7851 0.418,0.4297 0.84,0.8711 1.258,1.3086 -2.09,1.3867 -4.301,3.0859 -3.844,5.2266"
         style="fill:#424a52;fill-opacity:1;fill-rule:nonzero;stroke:none"
         transform="matrix(0.13333333,0,0,-0.13333333,0,65.506667)" />
      <path
         id="path7"
         d="m 228.113,35.1484 c -3.293,0 -5.304,-4.5429 -6.105,-8.1445 6.051,-0.6562 12.168,-1.0586 18.359,-1.2031 -2.406,3.5937 -4.523,9.3476 -12.254,9.3476"
         style="fill:#424a52;fill-opacity:1;fill-rule:nonzero;stroke:none"
         transform="matrix(0.13333333,0,0,-0.13333333,0,65.506667)" />
      <path
         id="path8"
         d="m 303.191,74.0547 c -0.468,1.6601 -2.593,2.1289 -3.308,0 -0.707,-2.1289 -6.625,-6.8672 -10.164,-8.2813 -3.551,-1.4179 -2.137,-0.4687 -4.504,-0.7148 -2.36,-0.2344 -7.09,-0.4688 -7.09,-0.4688 0,0 -0.707,-0.9453 -2.129,-2.1289 -1.422,-1.1796 -4.019,-1.8945 -5.922,-2.1289 -1.89,-0.2422 -3.508,-0.7304 -5.168,-1.9257 -1.66,-1.1797 -0.109,-2.5665 1.547,-2.5665 1.652,0 4.555,0.7735 6.442,0.7735 1.902,0 6.039,-0.5 7.234,-0.2656 1.176,0.2461 2.785,1.289 5.144,1.289 2.372,0 3.782,0.1172 5.672,1.3008 1.903,1.1797 4.86,1.6758 7.219,3.0938 2.371,1.414 5.981,0.8984 7.402,1.6132 1.411,0.711 1.411,1.6602 0.469,3.0664 -0.953,1.4336 -2.367,5.6836 -2.844,7.3438"
         style="fill:#424a52;fill-opacity:1;fill-rule:nonzero;stroke:none"
         transform="matrix(0.13333333,0,0,-0.13333333,0,65.506667)" />
      <path
         id="path9"
         d="m 248.992,141.477 c 2.844,0 5.356,5.761 5.113,7.644 -0.234,1.895 -4.921,3.84 -7.011,5.039 -3.492,2.012 -8.36,4.348 -11.961,-1.789 -2.102,-3.601 11.019,-10.894 13.859,-10.894"
         style="fill:#424a52;fill-opacity:1;fill-rule:nonzero;stroke:none"
         transform="matrix(0.13333333,0,0,-0.13333333,0,65.506667)" />
      <path
         id="path10"
         d="m 435.023,346.27 c 0.579,-1.36 1.809,-6.094 3.207,-9.832 1.415,-3.75 7.321,-17.817 8.254,-20.625 0.938,-2.817 2.789,-9.805 3.496,-12.383 0.684,-2.524 3.825,-8.301 4.75,-11.106 0.946,-2.812 3.524,-16.535 4.403,-20.047 0.719,-2.902 3.09,-3.527 5.445,-3.363 -3.465,33.274 -14.336,64.328 -30.937,91.508 -5.09,-2.473 0.48,-12.043 1.382,-14.152"
         style="fill:#424a52;fill-opacity:1;fill-rule:nonzero;stroke:none"
         transform="matrix(0.13333333,0,0,-0.13333333,0,65.506667)" />
      <path
         id="path11"
         d="m 378.754,421.16 c -5.688,-1.453 -14.16,-14.043 -15.988,-16.324 -1.868,-2.356 -1.868,-6.098 -3.278,-9.848 -1.402,-3.75 -8.902,-21.082 -10.304,-25.293 -1.407,-4.215 -4.688,-9.363 -6.555,-11.238 -1.883,-1.875 1.867,-4.219 2.336,-6.086 0.469,-1.875 -1.297,-3.883 -2.891,-5.777 -1.738,-2.102 -0.945,-4.77 -4.129,-7.805 -2.902,-2.762 0.989,-4.211 4.739,-4.668 2.953,1.77 5.289,4.102 6.632,8.469 0.68,2.246 4.821,1.465 5.961,3.691 0.661,1.317 0.93,4.688 3.27,7.489 2.351,2.812 3.277,6.562 1.41,7.031 -1.871,0.469 -3.75,-0.469 -4.68,1.863 -0.941,2.348 5,6.984 5.149,8.906 0.379,4.844 8.429,19.668 9.359,23.418 0.942,3.75 4.219,6.567 6.09,7.024 1.879,0.468 5.109,0.968 7.918,2.851 2.812,1.867 6.703,-2.011 8.102,-4.355 1.41,-2.344 6.898,-3.086 8.308,-6.367 1.402,-3.274 -3.719,-4.297 -7.461,-5.711 -3.75,-1.399 -7.726,-10.071 -7.254,-10.996 0.457,-0.942 8.106,-8.418 10.86,-10.528 2.097,-1.625 5.757,-1.426 7.625,-0.492 1.882,0.949 6.691,-1.98 7.035,-3.641 1.16,-5.644 -5.621,-5.476 -7.492,-5.476 -1.879,0 -7.578,3.379 -9.922,4.316 -2.34,0.938 -3.867,1.571 -7.617,0.625 -3.743,-0.929 -1.692,-3.8 -1.051,-5.918 0.57,-1.894 0.793,-5.121 -0.153,-7.004 -0.933,-1.867 -3.468,-1.933 -3.234,-5.683 0.156,-2.625 1.414,-4.363 1.836,-6.25 0.465,-2.11 1.867,-4.922 -1.406,-7.957 -1.727,-1.606 -2.344,-6.098 -1.871,-9.375 0.468,-3.281 4.211,-5.149 6.547,-8.43 2.347,-3.281 1.64,-10.312 5.39,-13.125 2.653,-1.973 5.668,-0.293 4.731,3.457 -0.93,3.75 -2.961,9.102 0.191,10.606 1.559,0.754 4.68,-2.356 5.949,-4.688 1.43,-2.629 2.938,-8.398 5.293,-11.211 2.336,-2.812 7.606,-0.847 6.559,1.906 -0.852,2.188 -4.723,7.645 -1.91,9.508 2.804,1.887 3.89,-1.035 5.289,-3.379 1.398,-2.332 5.008,-11.707 6.14,-15.543 1.282,-4.375 9.981,-5.175 9.516,-1.906 -0.477,3.281 -8.738,17.356 -12.016,22.981 -3.281,5.613 -5.621,4.675 -9.828,5.613 -4.226,0.93 -6.011,5.625 -11.164,11.711 -5.148,6.094 -5.14,9.558 -4.437,13.543 0.726,4.148 5.578,5.312 6.976,0.625 1.41,-4.68 5.543,-11.531 8.254,-15.02 2.375,-3.047 9.496,-9.687 11.84,-11.57 2.34,-1.867 5.012,-4.766 10.398,-12.5 4.614,-6.602 7.59,-19.191 7.868,-24.262 0.23,-4.207 2.004,-7.222 4.8,-9.84 1.715,-1.593 6.961,-0.754 6.032,1.582 -0.938,2.34 -3.969,9.012 -4.442,15.555 -0.707,9.832 -6.219,15.109 -7.621,17.449 -1.406,2.348 -5.105,7.043 -6.976,10.785 -1.872,3.75 -9.524,6.668 -12.403,10.372 -2.437,3.132 -7.258,13.113 -7.73,15.449 -0.469,2.344 2.996,4.129 5.211,2.105 2.582,-2.332 6.851,-11.953 8.254,-15.222 1.187,-2.762 9.398,-4.395 8.257,-1.914 -1.41,3.054 -2.093,8.515 -4.453,11.75 -2.707,3.71 -4.398,6.003 -3.738,12.05 0.66,6.075 -3.539,6.129 -6.348,8.004 -2.812,1.867 -0.621,4.953 -0.382,6.914 0.468,3.75 -4.657,5.766 -6.981,6.985 -2.711,1.418 -13.828,3.839 -15.23,5.714 -1.407,1.875 0.324,5.438 2.222,6.024 4.301,1.34 15.059,-2.606 21.93,-4.629 -6.348,8.477 -13.293,16.504 -20.77,23.984 -7.058,7.063 -14.601,13.625 -22.562,19.676"
         style="fill:#424a52;fill-opacity:1;fill-rule:nonzero;stroke:none"
         transform="matrix(0.13333333,0,0,-0.13333333,0,65.506667)" />
      <path
         id="path12"
         d="m 338.934,411.223 c -5.418,-16.25 -5.61,-24.524 -8.711,-40.508 -3.09,-15.996 -7.395,-29.895 -8.95,-34.531 -1.539,-4.641 5.68,-2.063 6.711,0.507 1.032,2.579 3.547,5.887 4.063,8.457 0.516,2.586 3.098,5.418 5.676,10.067 2.582,4.64 -0.516,7.734 0.515,12.89 1.039,5.157 3.094,8.77 5.68,15.481 2.574,6.695 2.117,8.301 2.117,10.879 0,2.574 0.973,5.105 2,6.648 1.031,1.543 4.012,15.371 6.188,18.047 1.898,2.356 9.543,6.778 14.246,9.387 -3.153,2.129 -6.375,4.156 -9.645,6.121 -6.109,-4.355 -16.386,-12.938 -19.89,-23.445"
         style="fill:#424a52;fill-opacity:1;fill-rule:nonzero;stroke:none"
         transform="matrix(0.13333333,0,0,-0.13333333,0,65.506667)" />
      <path
         id="path13"
         d="m 599.156,324.102 c 1.067,1.613 4.297,1.613 4.297,1.613 h 6.449 c 0,0 17.672,-0.102 31.442,-6.992 10.211,-5.102 17.726,-13.43 17.726,-34.114 0,-8.875 -4.558,-22.039 -9.398,-27.683 -6.699,-7.813 -17.359,-14.348 -21.231,-15.324 -5.371,-1.336 -12.355,-1.614 -12.355,-1.614 h -10.754 c 0,0 -4.027,0.801 -5.641,3.5 -1.168,1.961 -1.609,5.633 -1.609,5.633 l 0.262,71.492 c 0,0 -0.141,2.063 0.812,3.489 M 658.27,208.555 c 12.05,-10.645 19.703,-22.039 20.421,-42.727 0.543,-15.301 -3.457,-35.094 -17.468,-44.336 -11.821,-7.793 -26.598,-6.98 -26.598,-6.98 H 613.93 c 0,0 -4.555,0.539 -9.399,2.695 -2.418,1.066 -6.187,3.488 -6.187,5.906 v 15.578 81.418 h 16.672 c 0,0 29.55,0.536 43.254,-11.554 M 546.563,95.3906 c 0,0 12.281,0.9492 35.66,1.3867 28.222,0.5391 23.109,-2.4218 50.25,-3.496 30.121,-1.1797 54.289,3.496 72.562,32.7847 19.805,31.754 1.164,80.145 -13.972,93.77 -13.442,12.098 -33.059,16.394 -33.059,16.394 0,0 13.168,3.758 21.23,11.016 10.239,9.207 26.61,45.418 -4.3,79.277 -15.832,17.344 -56.161,18.809 -56.161,18.809 h -65.839 c 0,0 -11.289,1.613 -11.289,-4.297 0.269,-3.496 0.269,-4.57 4.839,-6.18 4.84,-1.621 18.539,-16.289 18.539,-33.324 0,-2.418 0.27,-4.832 0.27,-4.832 V 159.656 c 0,0 -0.27,-15.847 -2.148,-26.875 -1.469,-8.629 -5.172,-18.355 -10.754,-22.039 -8.004,-5.262 -13.188,-4.172 -14.278,-10.168 -1.109,-6.1013 8.45,-5.1834 8.45,-5.1834"
         style="fill:#424a52;fill-opacity:1;fill-rule:nonzero;stroke:none"
         transform="matrix(0.13333333,0,0,-0.13333333,0,65.506667)" />
      <path
         id="path14"
         d="m 825.426,302.578 30.625,-74.969 h -57.5 z M 704.496,99.1719 c 0,-5.6446 4.84,-4.3086 4.84,-4.3086 0,0 26.871,2.1601 43.004,1.6133 16.113,-0.5391 38.144,-1.3399 43.523,-1.3399 5.371,0 10.754,9.9413 3.762,10.4763 -6.992,0.539 -21.504,2.422 -26.875,8.86 -5.371,6.457 -5.371,19.629 -4.836,23.39 0.539,3.77 3.215,11.825 3.215,11.825 l 20.437,58.027 h 71.477 l 24.727,-61.262 c 0,0 5.457,-14.305 3.769,-22.027 -2.434,-11.02 -16.543,-16.242 -27.422,-18.274 -4.297,-0.8 -10,0.696 -12.09,-6.7184 -1.601,-5.6836 5.907,-5.1094 5.907,-5.1094 0,0 35.207,1.3399 54.289,1.6133 17.207,0.2539 37.07,-0.2734 42.449,-0.2734 6.73,0 12.629,10.8519 2.16,11.2889 -6.457,0.274 -12.09,5.117 -16.934,11.027 -12.558,15.34 -24.179,47.286 -24.179,47.286 l -73.086,180.039 -26.211,-8.469 c 0,0 -4.043,-1.063 -5.781,-1.465 -1.848,-0.43 -4.707,-0.808 -4.707,-0.808 0,0 0.683,-3.762 0.683,-7.532 0,-4.035 -0.812,-9.676 -0.812,-9.676 L 746.422,155.598 c 0,0 -3.867,-10.676 -6.445,-16.133 -5.118,-10.735 -10.489,-19.074 -18.282,-27.395 -10.586,-11.328 -15.632,-4.953 -17.199,-12.8981"
         style="fill:#424a52;fill-opacity:1;fill-rule:nonzero;stroke:none"
         transform="matrix(0.13333333,0,0,-0.13333333,0,65.506667)" />
      <path
         id="path15"
         d="m 940.973,310.906 c -2.793,-19.566 -6.446,-36.011 -6.446,-36.011 0,0 8.133,2.05 11.543,3.757 3.231,1.621 5.118,15.059 9.414,25.539 4.102,10.008 13.379,15.84 29.024,17.196 12.363,1.074 27.672,1.609 33.582,-4.844 3.49,-3.801 4.03,-15.051 4.03,-15.051 v -152.34 c 0,0 -1.34,-20.16 -10.47,-30.109 -8.8,-9.57 -22.103,-10.574 -26.666,-11.102 -8.562,-1.015 -10.906,-12.8238 -1.375,-12.5504 7.539,0.2149 27.771,1.6328 52.231,1.3555 16.66,-0.1836 50.78,-1.3438 50.78,-1.3438 0,0 5.87,0.7422 7.25,5.3787 2.07,6.875 -7.47,6.875 -7.47,6.875 0,0 -13.42,3.797 -21.81,10.047 -9.41,6.992 -8.87,27.414 -8.87,27.414 v 163.645 c 0,0 -0.54,7.519 3.22,10.203 3.77,2.695 18.01,3.496 26.6,2.961 8.61,-0.539 19.62,-0.266 28.75,-6.446 5.26,-3.566 7.53,-16.132 8.07,-23.925 0.41,-5.918 -1.6,-17.2 -1.6,-17.2 0,0 8.86,3.235 10.48,4.297 1.61,1.086 2.94,6.993 2.94,6.993 0,0 2.42,10.214 5.37,26.875 2.95,16.523 4.04,30.097 4.04,30.097 0,0 -18.85,-1.379 -31.17,-2.422 -15.86,-1.336 -31.7,-1.336 -31.7,-1.336 l -97.013,-0.273 c 0,0 -13.723,0.555 -22.316,1.07 -8.868,0.539 -15.848,1.078 -15.848,1.078 0,0 -2.695,-16.671 -4.57,-29.828"
         style="fill:#424a52;fill-opacity:1;fill-rule:nonzero;stroke:none"
         transform="matrix(0.13333333,0,0,-0.13333333,0,65.506667)" />
      <path
         id="path16"
         d="m 1380.58,108.75 c -4.47,1.602 -8.99,3.273 -12.8,9.27 -4.59,7.207 -3.3,22.793 -3.3,22.793 v 159.343 c 0,0 -0.81,15.313 4.3,22.84 5.61,8.274 7.79,7.258 12.62,8.867 6.38,2.129 7.81,11.555 2.16,11.02 -5.99,-0.567 -25.79,-1.789 -37.1,-1.613 -17.19,0.273 -35.7,1.25 -40.04,1.394 -7.89,0.277 -9.44,-11.988 -3.53,-11.988 6.46,0 17.04,-1.692 22.09,-9.024 5.38,-7.793 5.34,-22.035 5.11,-22.304 v -54.004 h -117.17 v 54.812 c 0,0 -0.54,18.543 7.79,24.18 5.97,4.043 11.55,4.309 18.54,5.383 6.99,1.07 11.03,13.437 3.5,12.89 -7.54,-0.531 -27.15,-0.531 -44.34,-0.531 -17.2,0 -27.14,0.277 -33.59,1.078 -8.34,0.606 -10.25,-11.117 -5.34,-12.218 5.98,-1.321 10.98,-0.418 16.36,-6.602 6.48,-7.441 4.83,-23.633 4.83,-23.633 V 152.91 c 0,0 0.02,-16.57 -1.07,-24.715 -1.62,-12.101 -6.86,-16.484 -13.32,-19.164 -5.76,-2.41 -10.35,-2.73 -11.13,-8.789 -0.76,-5.867 5.69,-5.1248 5.69,-5.1248 0,0 15.56,1.0937 35.99,1.3672 20.45,0.2734 41.52,-1.3672 47.98,-1.3672 6.45,0 10.36,10.3628 0.81,11.7188 -10.49,1.504 -20.6,3.34 -28.13,10.332 -5.85,5.43 -4.57,19.617 -4.57,19.617 v 87.59 h 117.17 v -87.59 c 0,0 -0.08,-19.629 -9.75,-22.859 -9.68,-3.211 -14.74,-3.535 -21.56,-4.629 -7.07,-1.133 -13.5,-14.1798 -5.44,-14.1798 8.06,0 33,1.9141 52.9,1.9141 11.56,0 30.28,-1.2383 32.99,-1.3672 5.98,-0.2735 8.46,2.3554 9.54,5.9959 1.36,4.641 -4.37,5.735 -8.19,7.09"
         style="fill:#424a52;fill-opacity:1;fill-rule:nonzero;stroke:none"
         transform="matrix(0.13333333,0,0,-0.13333333,0,65.506667)" />
      <path
         id="path17"
         d="m 558.883,446.414 v -32.723 c 0,-7.285 0.472,-12.863 4.16,-17.695 3.883,-4.91 10.879,-7.742 20.238,-7.742 17.782,0 24.973,7.652 24.973,24.969 v 32.812 l 1.332,1.613 5.766,0.575 v 4.629 h -21.469 v -4.629 l 6.051,-0.575 1.418,-1.613 v -31.863 c 0,-12.578 -3.879,-18.449 -14.379,-18.449 -11.348,0 -15.41,5.39 -15.41,17.59 v 33.101 l 1.32,1.32 5.863,0.489 v 4.629 h -27.144 v -4.629 l 5.961,-0.489 1.32,-1.32"
         style="fill:#424a52;fill-opacity:1;fill-rule:nonzero;stroke:none"
         transform="matrix(0.13333333,0,0,-0.13333333,0,65.506667)" />
      <path
         id="path18"
         d="m 637.5,446.414 v -50.035 l -1.699,-1.699 -5.582,-0.766 v -4.539 h 21.562 v 4.539 l -5.859,0.766 -1.524,1.699 v 43.797 l 32.731,-50.801 h 10.601 v 56.477 l 1.61,1.796 5.582,0.758 v 4.446 h -21.574 v -4.446 l 5.773,-0.758 1.699,-1.796 v -40.481 l -28.941,44.934 v 2.547 h -21.758 v -4.629 l 6.063,-0.489 1.316,-1.32"
         style="fill:#424a52;fill-opacity:1;fill-rule:nonzero;stroke:none"
         transform="matrix(0.13333333,0,0,-0.13333333,0,65.506667)" />
      <path
         id="path19"
         d="m 738.969,394.016 -6.336,0.468 -1.516,1.524 v 50.406 l 1.516,1.32 6.336,0.481 v 4.637 h -28.281 v -4.637 l 6.242,-0.481 1.504,-1.32 v -50.406 l -1.504,-1.524 -6.242,-0.468 v -4.629 h 28.281 v 4.629"
         style="fill:#424a52;fill-opacity:1;fill-rule:nonzero;stroke:none"
         transform="matrix(0.13333333,0,0,-0.13333333,0,65.506667)" />
      <path
         id="path20"
         d="m 778.375,389.191 h 9.551 l 20.996,57.793 6.152,1.231 v 4.637 h -20.722 v -4.637 l 5.683,-0.473 1.035,-1.422 -15.234,-43.125 -15.703,43.125 1.043,1.422 5.48,0.473 v 4.637 h -26.008 v -4.637 l 6.25,-1.137 21.477,-57.887"
         style="fill:#424a52;fill-opacity:1;fill-rule:nonzero;stroke:none"
         transform="matrix(0.13333333,0,0,-0.13333333,0,65.506667)" />
      <path
         id="path21"
         d="m 877.574,406.309 h -6.426 l -1.613,-10.028 -1.23,-1.504 h -21.942 v 24.586 h 12.293 l 1.321,-1.316 0.945,-6.817 h 5.578 v 21.946 h -5.578 l -0.945,-6.809 -1.321,-1.328 h -12.293 v 22.512 h 18.828 l 1.231,-1.231 1.414,-8.324 h 6.613 v 14.856 h -47.656 v -4.637 l 5.762,-0.473 1.511,-1.316 v -50.418 l -1.511,-1.516 -5.762,-0.476 v -4.629 h 50.781 v 16.922"
         style="fill:#424a52;fill-opacity:1;fill-rule:nonzero;stroke:none"
         transform="matrix(0.13333333,0,0,-0.13333333,0,65.506667)" />
      <path
         id="path22"
         d="m 914.117,447.461 h 4.336 c 9.199,0 14.012,-4.356 14.012,-12.098 0,-8.711 -4.813,-12.687 -14.949,-12.687 -1.036,0 -2.168,0 -3.399,0.09 z m 7.285,-53.445 -5.781,0.476 -1.504,1.516 v 21.277 h 1.61 c 9.543,0 12.003,-4.07 14.933,-13.055 1.512,-4.542 2.383,-8.789 7.285,-12.578 2.266,-1.797 5.77,-2.929 9.844,-2.929 2.93,0 6.152,0.281 9.453,0.761 v 4.532 h -1.23 c -6.34,0 -9.16,1.425 -11.153,6.621 -1.796,4.734 -2.558,9.843 -5.488,14.004 -2.187,3.023 -5.391,4.812 -9.941,5.855 10.683,1.992 16.269,7.484 16.269,16.184 0,10.5 -7.558,16.172 -22.226,16.172 h -28.75 v -4.637 l 5.566,-0.481 1.524,-1.32 v -50.406 l -1.524,-1.516 -5.566,-0.476 v -4.641 h 26.679 v 4.641"
         style="fill:#424a52;fill-opacity:1;fill-rule:nonzero;stroke:none"
         transform="matrix(0.13333333,0,0,-0.13333333,0,65.506667)" />
      <path
         id="path23"
         d="m 1015.5,407.734 c 0,5.579 -3.01,10.684 -8.5,14.192 -5.58,3.582 -10.598,5.008 -13.527,6.804 -5.02,3.028 -7.668,5.86 -7.668,10.215 0,5.207 4.269,8.985 11.164,8.985 3.027,0 5.211,-0.469 6.911,-1.317 l 1.31,-1.332 1.62,-9.84 h 6.81 v 15.332 c -5.97,2.079 -11.91,3.211 -17.784,3.211 -13.535,0 -22.324,-8.132 -22.324,-18.632 0,-4.637 2.273,-9.266 6.621,-12.957 4.16,-3.497 8.601,-5.11 12.402,-7.004 6.699,-3.399 10.115,-6.805 10.115,-11.914 0,-5.204 -4.548,-8.985 -12.205,-8.985 -2.929,0 -5.683,0.469 -8.32,1.321 l -1.23,1.425 -1.524,11.348 h -7.187 v -17.121 c 5.879,-2.078 12.207,-3.125 18.261,-3.125 15.505,0 25.055,8.137 25.055,19.394"
         style="fill:#424a52;fill-opacity:1;fill-rule:nonzero;stroke:none"
         transform="matrix(0.13333333,0,0,-0.13333333,0,65.506667)" />
      <path
         id="path24"
         d="m 1062.77,394.016 -6.33,0.468 -1.52,1.524 v 50.406 l 1.52,1.32 6.33,0.481 v 4.637 h -28.28 v -4.637 l 6.24,-0.481 1.51,-1.32 v -50.406 l -1.51,-1.524 -6.24,-0.468 v -4.629 h 28.28 v 4.629"
         style="fill:#424a52;fill-opacity:1;fill-rule:nonzero;stroke:none"
         transform="matrix(0.13333333,0,0,-0.13333333,0,65.506667)" />
      <path
         id="path25"
         d="m 1085.99,446.23 1.52,1.231 h 11.35 v -51.465 l -1.6,-1.504 -6.15,-0.469 v -4.648 h 28.28 v 4.648 l -6.15,0.469 -1.61,1.504 v 51.465 h 11.35 l 1.41,-1.231 1.62,-10.117 h 6.52 v 16.739 h -54.58 v -16.739 h 6.54 l 1.5,10.117"
         style="fill:#424a52;fill-opacity:1;fill-rule:nonzero;stroke:none"
         transform="matrix(0.13333333,0,0,-0.13333333,0,65.506667)" />
      <path
         id="path26"
         d="m 1167.98,414.355 v -18.449 l -1.51,-1.328 -6.34,-0.465 v -4.726 h 28.38 v 4.726 l -6.42,0.465 -1.53,1.328 v 20.715 l 17.97,30.547 5.59,1.047 v 4.637 h -20.62 v -4.539 l 5.68,-1.036 0.75,-1.523 -13.53,-23.176 -12.97,24.035 0.86,1.129 5.3,0.473 v 4.637 h -25.82 v -4.637 l 6.05,-0.938 18.16,-32.922"
         style="fill:#424a52;fill-opacity:1;fill-rule:nonzero;stroke:none"
         transform="matrix(0.13333333,0,0,-0.13333333,0,65.506667)" />
      <path
         id="path27"
         d="m 1277.24,448.215 c 10.31,0 17.7,-10.117 17.7,-27.617 0,-16.739 -7.47,-26.965 -17.88,-26.965 -10.12,0 -17.79,10.226 -17.79,27.617 0,16.945 7.48,26.965 17.97,26.965 m 0.47,-60.352 c 7.96,0 15.52,2.938 21.29,8.328 6.62,6.153 10.13,14.668 10.13,24.688 0,10.684 -3.98,19.766 -11.26,26.016 -5.77,4.914 -12.68,7.375 -20.81,7.375 -8.8,0 -16.19,-2.747 -22.13,-8.223 -6.44,-5.957 -9.76,-14.289 -9.76,-24.602 0,-20.144 12.97,-33.582 32.54,-33.582"
         style="fill:#424a52;fill-opacity:1;fill-rule:nonzero;stroke:none"
         transform="matrix(0.13333333,0,0,-0.13333333,0,65.506667)" />
      <path
         id="path28"
         d="m 1333.77,446.414 v -50.418 l -1.51,-1.504 -5.68,-0.469 v -4.648 h 27.9 v 4.648 l -6.61,0.469 -1.6,1.504 v 22.039 h 12.65 l 1.34,-1.226 0.94,-6.899 h 5.57 v 22.043 h -5.57 l -0.94,-6.914 -1.34,-1.23 h -12.65 v 23.562 h 18.24 l 1.23,-1.226 1.42,-9.18 h 6.52 v 15.887 h -47.48 v -4.629 l 6.06,-0.489 1.51,-1.32"
         style="fill:#424a52;fill-opacity:1;fill-rule:nonzero;stroke:none"
         transform="matrix(0.13333333,0,0,-0.13333333,0,65.506667)" />
      <path
         id="path29"
         d="M 541.934,27.2266 H 1384.78 V 46.3984 H 541.934 V 27.2266"
         style="fill:#424a52;fill-opacity:1;fill-rule:nonzero;stroke:none"
         transform="matrix(0.13333333,0,0,-0.13333333,0,65.506667)" />
    </g>
  </g>
</svg>
