<?xml version="1.0" encoding="utf-8"?>
<!-- Generator: Adobe Illustrator 28.0.0, SVG Export Plug-In . SVG Version: 6.00 Build 0)  -->
<svg version="1.1" id="_图层_2" xmlns="http://www.w3.org/2000/svg" xmlns:xlink="http://www.w3.org/1999/xlink" x="0px" y="0px"
	 viewBox="0 0 82.2 23.2" style="enable-background:new 0 0 82.2 23.2;" xml:space="preserve">
<style type="text/css">
	.st0{fill-rule:evenodd;clip-rule:evenodd;}
</style>
<g id="_图层_1-2">
	<g>
		<g>
			<g>
				<path class="st0" d="M2.7,1.4c0.1,0.4,0.4,0.3,0.6,0.4c0.3,0.1,0.4,0.3,0.8,0.6c0.1,0.1,0.3,0.3,0.6,0.4c0,0,0,0,0,0
					c0.4,0.4,0.5,0.5,0.8,0.6c0,0,0,0,0.1,0c0.1,0,0.3,0,0.6-0.2c0,0,0.1,0,0.1,0c0.4-0.1,1-0.4,1.2-0.8c0.1-0.2,0-0.4-0.1-0.5
					c0,0,0,0-0.1,0C7,1.5,6.7,1.6,6.5,1.4c0,0,0,0-0.1,0C6.2,1.1,5.9,1,5.7,0.8c0,0-0.1,0-0.1,0C4.9,0.7,4.4,0.6,3.6,0.6
					c0,0,0,0-0.1,0C2.8,0.9,2.8,1.1,2.7,1.4C2.8,1.3,2.8,1.4,2.7,1.4C2.8,1.4,2.8,1.4,2.7,1.4L2.7,1.4z"/>
				<path class="st0" d="M8.5,3.1C7.2,4.1,5.6,6,4.2,7c0,0-0.1,0-0.1,0.1C3.6,7.8,2.9,8.3,2.7,8.3c0,0-0.1,0-0.1,0
					C1.5,8.8,1.6,8.2,1,8.2c0,0,0,0,0,0C0.7,8.3,0.4,8.5,0.4,9.1c0,0,0,0,0,0c0.4,1.3,1.4,2.1,1.9,2c0,0,0.1,0,0.1,0
					c0.7,0,1.3-0.5,1.7-0.8c0,0,0,0,0,0l0,0c0,0,0,0,0,0c0.5-0.2,0.5,0.1,0.5,0.5c0,0,0,0,0,0.1c-0.1,0.4-0.3,0.6-0.4,0.8
					c0,0,0,0,0,0.1c-0.6,1.6-1.5,2.4-2,2.8c-1.1,1-2.2,1.3-2.1,3c0,0,0,0.1,0,0.1c0.3,1.1,0.8,1.6,1.1,1.5c0.7,0,1.1-1.2,1.6-1.9
					c0,0,0,0,0,0c0.2-0.4,0.4-0.7,0.8-1c1.2-0.6,1.1,0.5,1,0.9c-0.4,2.5,0.5,3.2,1,3.2c0,0,0,0,0.1,0c0.7-0.1,0.7-0.5,0.8-0.8
					c0,0,0-0.1,0-0.1c0-0.2,0.1-0.4,0.1-0.6c0-0.1,0-0.1,0-0.1c0-0.1,0-0.2,0-0.3c0,0,0-0.1,0-0.1c0-0.1,0.1-0.2,0.1-0.4
					c0-0.1,0-0.1,0-0.2c0-0.8-0.3-0.9-0.4-2.3c0-0.1,0-0.3-0.1-0.4c-0.3-1.1,0.6-0.9,1.2-0.9c0.2,0,0.4,0,0.6,0
					c0.6,0.1,0.7-0.3,1-0.5c0,0,0,0,0.1-0.1c0.4-0.4,1.2-1.7,0.4-2.2c-0.6-0.2-0.6,0.5-0.9,0.8c-0.1,0.1-0.1,0.1-0.1,0.2
					c-0.3,0.4-1.1,0.7-1.5,0c0,0,0,0,0,0c-0.2-0.2-0.4-0.4-0.4-0.9c0,0,0,0,0,0c0-0.3,0.1-0.4,0.2-0.6c0.2-0.4,0.4-0.6,0.8-1.4
					c0,0,0-0.1,0.1-0.1c0.2-0.2,0.2-0.6,0.4-0.9C8,8.4,8,8.3,8.1,8.1c0.1-0.2,0.1-0.4,0.2-0.6c0,0,0-0.1,0-0.1
					C8.4,7.3,8.5,7.2,8.5,7c0,0,0,0,0,0c0.1-0.4,0.2-0.7,0.3-0.9c0,0,0,0,0-0.1C9,5.3,10.4,3.4,9.7,3c0,0,0,0,0,0
					C9.2,2.9,9.1,2.7,8.5,3.1C8.5,3.1,8.5,3.1,8.5,3.1L8.5,3.1z"/>
				<path class="st0" d="M16.5,0.2c-0.8-0.4-1,0.1-1.3,0.3c0,0,0,0,0,0c-0.8,0.8-1.3,1.6-1.9,1.9c-0.9,0.4-2.2-0.1-2.5,1
					c0,0,0,0,0,0.1c0.1,0.6,0.6,0.8,1,0.8c0.4,0,0.7-0.3,1-0.2c0.4,0.1,0.3,0.5,0.2,0.7c-0.2,0.5-0.1,0.8-0.2,0.9c0,0,0,0,0,0.1
					c-0.1,0.2-0.3,0.4-0.4,0.7c0,0,0,0.1,0,0.1c-0.2,0.3-0.4,0.8-0.5,1.1c-0.1,0.3-0.3,0.6-0.5,0.9C11.2,8.8,11.1,8.8,11,9
					c-0.1,0.3-0.2,0.6-0.3,0.8c0,0,0,0.1-0.1,0.1c-0.1,0.3-0.2,0.5-0.2,0.9c-0.1,0.6-0.1,1.1-0.3,1.5c0,0,0,0.1,0,0.1
					c-0.1,0.8,0.1,1.4-0.2,2.4c-0.1,0.7-0.2,1.6-0.4,2c0,0,0,0.1,0,0.1c0,1.2,0.8,1.9,1.2,1.9c0.8-0.1,0.4-1.7,0.5-2.5
					c0.1-0.7,0.4-1.2,0.4-1.9c0.1-0.7-0.1-1.7,0-2.1c0.3-1.1,0.6-2.2,1.1-2.9c0.4-0.6,1.4-2.2,1.9-1.2c0.1,0.4-0.2,1.1-0.3,1.7
					c0,1.1-0.2,1.2-0.4,1.8c0.2,1.3,1.2,1.6,1.5,1.3c2.3-1.2,3.4-2.2,4.6-0.5c0.7,2.8,0.3,3.5,0,5.1c-0.5,1-1.6,2.3-2.5,1.8
					c-0.2-0.6,0.1-0.8,0-1.2c-0.1-0.2-0.5-0.3-0.5-0.6c0-0.5,0.1-0.6,0.3-1.2c0.2-0.7,0.4-1.6-0.4-1.7c-1.5-0.8-2.3,0.9-2.9,1.5
					c-0.2,0.2-0.4,0.5-0.9,0.2c-0.1-0.1-0.5-0.2-0.9,0.1c-0.5,0.3-0.4,1.1-0.4,1.7c0,0.3,0,0.7,0.2,0.8c0.4,0.4,1.1,0.9,1.4,1
					c0.6,0,0.9-0.3,1.4-0.5c0.6-0.1,0.6,0.6,0.2,1c-0.2,0.3-0.8,0.6-0.6,0.9c0.3,0.3,0.9-0.2,1.1-0.3c0.5-0.3,0.8,0,1,0.2
					c0,0,0,0,0,0c0.6,0.5,1.1,0.5,1.7,0.3c0,0,0,0,0,0c1-0.4,1.9-1.1,2.7-2.3c0.5-0.7,0.6-1.1,0.6-2.1c0-0.1,0-0.1,0-0.2
					c0.1-0.4,0.2-0.9,0.1-1.2c0,0,0,0,0-0.1c0.1-0.4,0.1-1,0.1-1.4c-0.2-1.4,0.3-3.2-1.7-4c-1.6-0.7-2.5,0.3-3.8,0.5c0,0,0,0-0.1,0
					c-0.1,0-0.4-0.1-0.4-0.4c0,0,0,0,0-0.1c0-0.2,0.2-0.3,0.3-0.5c0.1-0.2,0.2-0.4,0.2-0.8c0-0.4-0.4-0.6-0.2-1.1
					c0.2-0.7,0.9-1.5,0.3-2c-0.2-0.3-0.5-0.3-1.3-0.1c-0.4,0.1-0.9,0.3-1.1,0.1c-0.3-0.3,0.1-0.6,0.1-1c0,0,0,0,0-0.1
					c0.2-0.4,0.4-0.7,0.6-1.2c0.3-0.6,0.8-1.2,1.3-1.8C16.7,1.2,17.2,0.6,16.5,0.2L16.5,0.2z"/>
			</g>
			<path class="st0" d="M34.8,1.8c-0.6-0.2-1.2,1-1.7,1.6C33,3.4,33,3.5,33,3.6c-0.3,0.8-1.1,1.6-1.7,2.4c0,0,0,0.1-0.1,0.1
				c-0.4,1-0.9,2.3-1.4,3.1c0,0,0,0.1-0.1,0.1c-1,1-2.5,2.6-2.5,4.8c0,0.1,0,0.1,0,0.1c0.1,0.4,0.3,1.1,0.9,1.1c0,0,0.1,0,0.1,0
				c0.1-0.2,0.2-1.2,0.2-1.7c0-0.3,0.5-1.1,0.9-1.9c0.1-0.1,0.4-0.4,0.7-0.1c0.1,0.2,0.4,0.4,0.9-0.1c0.2-0.3,0.4-0.5,0.5-0.9
				c0-0.1,0-0.1,0-0.1c0-0.2,0.1-0.6,0.2-0.9c0.2-0.4,0.5-0.9,1.2-1.2C34.1,8,35.5,8,35.3,8.8c0,0,0,0.1,0,0.1
				c-0.4,1.9-1.6,3.4-2.4,4.6c-1.9,2.1-2.5,2.4-3.3,1.9c-0.4-0.2-0.9-0.1-1.1,0c-0.1,0-0.1,0.1-0.1,0.2c-0.2,0.8,0.2,1.1,0.4,1.3
				c0.1,0,0.1,0.1,0.2,0.1c0.9,0.7,2.1,0.3,2.7,0c0,0,0,0,0.1,0c1.8-1.4,2.8-2.2,3.9-4.8c0.1-0.2,0.2-0.4,0.2-0.5
				c0.3-0.4,0.6-0.7,0.6,0.2c0,0.5-0.2,1.2,0.3,1.8c0.2,0.2,0.2,0.3,0.3,0.6c0.1,0.2,0.2,0.4,0.5,0.6c0.1,0.1,0.2,0.1,0.3,0.2
				c0.1,0.1,0.2,0.1,0.3,0.2c0.8,0.5,1.5-0.7,1.7-1.2c0.3-0.6,0.5-1.4,0.2-2.2c-0.3-1.1,0.5-0.7,0.8-0.4c0.1,0.1,0.1,0.1,0.2,0.2
				c1.4,1.2,2.4,4,1.5,5.7c-1,2-3.4,1.5-3.4,1.9c-0.3,0.8,1.6,1.3,2.5,0.9c0.2-0.1,0.5-0.3,0.6-0.4c1-0.8,2.5-2.5,1.2-6.3
				c-0.8-1.9-2.3-3.8-4.4-4.5C39,9,38.7,8.7,38.5,8.5c-0.4-0.3-0.8-0.7-1.3-0.9c-0.3-0.2-0.4-0.4-0.5-0.6c0-0.1,0-0.1,0-0.2
				c0-0.2-0.1-0.5-0.2-0.8c0-0.1-0.1-0.2-0.1-0.2c-0.2-0.3-0.5-0.7-0.9-0.6C35,5.4,35,6,35,6.2c0.9,0.9-0.3,1.4-1.2,0.9
				c-0.7-0.2-0.8,0.3-1.2,0.3c-0.2,0-0.5-0.1-0.2-0.6C33.2,5.1,35.9,2.4,34.8,1.8L34.8,1.8L34.8,1.8z M37.7,11.3
				c0.4-1.4,1.1-0.7,1.2-0.4c0.3,0.6,0.3,1.2,0.2,1.4c-0.1,0.5-0.6,1.2-1.3,0.1c0,0,0,0,0-0.1C37.8,12,37.6,11.7,37.7,11.3
				L37.7,11.3L37.7,11.3z M36.6,8.8c0.3-0.7,1.2-0.1,0.9,0.6c-0.6,0.5-0.4,0.6-0.6,0.8c-0.2,0.3-0.8,0.6-0.6-0.2
				C36.7,9.4,36.5,9.2,36.6,8.8L36.6,8.8z"/>
			<path class="st0" d="M45.5,7.3c0,0.7,0.1,1,0.2,1.4c0.2,1-0.3,1.2-0.6,1.8c-0.6,1,0.3,0.8,0.7,0.5c0.1-0.1,0.2-0.1,0.2-0.2
				c0.4-0.4,0.6-0.8,1.1-1c0.2-0.1,0.3-0.1,0.4-0.2c0.4-0.3,1.1-1,0.5-1.3c-0.1,0-0.2-0.1-0.3-0.1c-0.3-0.2-0.7-0.3-0.8-0.8
				c0-0.1,0-0.2-0.1-0.3C46.4,5.9,45.6,6.6,45.5,7.3z"/>
			<g>
				<path class="st0" d="M58.3,7.1c0,3.8-0.3,3.9-1.2,4.2c-0.2,0.1-0.3,0.1-0.6,0.1c-2-0.4-2,0.3-2.3,0.9c-0.1,0.1-0.1,0.2-0.1,0.3
					c0.1,0.5,0.9,1.2,1.1,1.3c0.3,0.1,0.9,0,1.2,0.2c0.4,0.4,0,1-0.4,1.8c-0.3,0.6-0.4,1.3,0.7,1.8c0.4,0.1,0.9-0.5,1-0.6
					c0.2-0.9,0.2-3.5,2-4.1c0.1,0,0.1-0.1,0.2-0.1c1.5-0.7,3.1-1.4,6-1.5c0.1,0,0.2,0,0.3-0.1c0.8-0.6,0.7-1.6-0.9-2.3
					C65.2,9,65.1,9,65,9c-0.6,0-1.1,0.5-1.7,0.8c-0.7,0.4-1.5,0.5-2.1,0.8c-0.7,0.2-1.7,0.9-1.1-1.5c0-0.2,0.1-0.2,0.2-0.4
					c0.2-0.4-0.1-1.4-0.3-2.1c0-0.1,0-0.1-0.1-0.1c-0.2-0.3-0.7-1-1.5-0.1C58.2,6.7,58.3,6.8,58.3,7.1L58.3,7.1z"/>
				<path class="st0" d="M62.2,14.4c-1,1.5,0.3,2.6,0.9,3.1c0.2,0.1,1.4,0.2,1.9-0.9c0.1-0.3-0.1-0.9-1.2-1.7
					C63.3,14.6,62.6,13.9,62.2,14.4z"/>
			</g>
			<path class="st0" d="M71.5,1.3c-0.5,0.3-0.7,1.1-0.7,1.5c0,0.1,0,0.2,0,0.2c-0.2,1,0.2,1.2,0.6,1.5c0.7,0.5,1.1,0.7,1.7-0.3
				c0.3-0.5,0.8-0.8,0.1-1.7c0,0-0.1-0.1-0.1-0.2c-0.1-0.2-0.2-0.3-0.4-0.5c0,0-0.1,0-0.1-0.1c-0.1-0.3-0.4-0.6-0.9-0.6
				C71.7,1.2,71.6,1.2,71.5,1.3L71.5,1.3L71.5,1.3z M73.8,0.6c0.5-0.4,0.9,0,1.3,0.2c1.1,0.5,1.6,0.1,2.5,0c0.2,0,0.2,0,0.3-0.1
				c0.6-0.3,1.4-0.3,2.1-0.2c0.1,0,0.1,0,0.1,0c0.3,0.1,0.4,0.2,0.6,0.4c0,0,0,0,0.1,0c1.6,0.8,0.1,2.4-0.6,3.7c0,0,0,0.1-0.1,0.1
				c-0.3,0.4-0.3,0.6-0.5,0.8c-1.5,1.5,0.8,1.4,1.5,1.9c2.2,1.8,0,5.6-2,6.6c-0.7,0.2-0.9,0.1-1.6,1.5c0,0,0,0.1-0.1,0.1
				c-1.2,1.8,0.2,1.9,0.8,1.8c0.1,0,0.2,0,0.2,0c1.4-0.1,1.9-0.5,2.4-0.4c0,0,0.1,0,0.1,0c1.8,1.1,0.4,2.1-0.8,2.2
				c-1.7-0.1-0.8,1-1.6,2.4c-1,1.6-2.5,1.8-3.6,1c-0.5-0.5-1.1-0.8-1.5-1.5c0,0,0,0-0.1-0.1c-0.5-0.5-0.8-1.1-1.4-1.6
				c-0.1,0-0.1-0.1-0.1-0.1c-0.1-0.5,0-1.4,1.1-1c0.1,0,0.1,0,0.1,0c1.1,0,1.6-0.1,1.6-1c0-0.2,0-0.2,0.1-0.3
				c0.4-0.8,1.9-2.9,0.2-2.7c-0.1,0-0.1,0-0.1,0c-0.1,0-0.1,0-0.2,0c-0.7,0.1-2.2-0.5,0.3-1.6c2.1-0.2,2.8,0.9,4.5-1.6
				c0.8-1.9-0.8-3.7-3-2.3c-1.4,0.7-3.1,1.9-4.4,2.9c-0.7,0.5-1,0.9-1.2,1.6c-0.4,1.3-2.1,1-1.9-1.6c0-1,3.6-3.3,5.3-4.7
				c1.2-1,2.8-2.5,3.9-4.4C78.9,2,78.8,1,77.6,2c-1,0.5-1.7,1.9-2.5,1.8c-0.6-0.1-0.7-0.4-1.1-0.8c-0.3-0.2-0.5-0.4-0.6-0.8
				c0-0.1,0-0.1-0.1-0.2c-0.1-0.1-0.1-0.3-0.1-0.5C73.3,1.3,73.6,0.8,73.8,0.6L73.8,0.6L73.8,0.6z M76,19.6
				c-0.4,0.1-2.3-0.2-0.7,1.3c1.1,0.9,1.5,0.1,1.7,0.1C77.3,20.7,77.9,19.1,76,19.6L76,19.6L76,19.6z M73.9,0.6l-0.1,0.1L73.9,0.6z"
				/>
		</g>
	</g>
</g>
</svg>
