<?xml version="1.0" encoding="UTF-8" standalone="no"?>
<!DOCTYPE svg PUBLIC "-//W3C//DTD SVG 1.1//EN" "http://www.w3.org/Graphics/SVG/1.1/DTD/svg11.dtd">
<svg width="100%" height="100%" viewBox="0 0 590 166" version="1.1" xmlns="http://www.w3.org/2000/svg" xmlns:xlink="http://www.w3.org/1999/xlink" xml:space="preserve" xmlns:serif="http://www.serif.com/" style="fill-rule:evenodd;clip-rule:evenodd;stroke-linejoin:round;stroke-miterlimit:2;">
    <g transform="matrix(1,0,0,1,-5,-1)">
        <g transform="matrix(1,0,0,1,-35,-40)">
            <g transform="matrix(0.416667,0,0,0.416667,0,3.57917)">
                <path d="M474.191,284.191L474.191,404.129C473.738,449.89 439.969,477.219 383.852,477.219C327.738,477.219 293.969,449.89 293.52,404.121L293.52,284.191L344.27,284.191L344.27,401.48C344.27,426.711 359.43,442.379 383.852,442.379C408.27,442.379 423.441,426.711 423.441,401.48L423.441,284.191L474.191,284.191" style="fill:rgb(0,174,239);fill-rule:nonzero;"/>
            </g>
            <g transform="matrix(0.416667,0,0,0.416667,0,26.2079)">
                <path d="M709.949,354.613C709.949,320.562 725.879,284.16 770.59,284.16C806.039,284.16 828.07,307.8 828.07,345.863L828.07,357.21L733.359,357.21L733.359,358.331C733.359,389.203 746.262,406.902 768.762,406.902C788.852,406.902 798.77,398.71 801.941,379.871L826.078,379.871C821.852,407.171 801.059,422.941 768.48,422.941C717.559,422.941 709.949,380.132 709.949,354.613ZM733.93,340.831L733.922,341.96L803.789,341.96L803.789,340.831C803.789,314.632 791.352,300.21 768.762,300.21C746.121,300.21 734.102,320.64 733.93,340.831" style="fill:rgb(35,31,32);fill-rule:nonzero;"/>
            </g>
            <g transform="matrix(0,0.416667,0.416667,0,204.023,-202.085)">
                <path d="M777.785,394.145L966.875,394.145L966.875,371.203L777.785,371.203L777.785,394.145" style="fill:rgb(35,31,32);fill-rule:nonzero;"/>
            </g>
            <g transform="matrix(0.416667,0,0,0.416667,0,1.93667)">
                <path d="M266.32,288.141L266.32,323.012L206.93,323.012L206.93,477.211L156.18,477.211L156.18,323.012L96.801,323.012L96.801,288.141L266.32,288.141" style="fill:rgb(35,31,32);fill-rule:nonzero;"/>
            </g>
            <g transform="matrix(0.416667,0,0,0.416667,0,-162.251)">
                <path d="M150.879,644.684L150.539,643.083C140.809,598.723 164.281,563.473 220.289,538.333C232.262,532.973 245.828,529.505 258.949,526.153C281.941,520.282 305.719,514.204 322.211,497.712L325.879,491.602C327.398,491.825 327.32,494.891 325.609,499.524C321.898,509.462 307.852,519.294 292.961,529.692C274.32,542.731 255.039,556.212 255.031,571.415C255.012,578.704 257.25,584.051 261.68,587.313C266.68,590.993 274.359,591.602 282.719,588.973C288.539,587.153 295.621,582.891 301.672,577.583C301.672,577.575 302.809,576.524 302.809,576.524C303.539,575.833 305.059,574.383 305.5,574.493C305.898,574.801 305.961,576.294 304.922,578.712C294.66,614.364 257.43,665.032 214.121,667.801C214.078,667.801 208.211,667.774 208.211,667.774C208.16,667.255 210.762,666.173 213.059,665.212L220.762,661.133C238.219,647.551 243.309,633.825 247.059,611.673C247.48,609.173 248.219,603.255 245.98,602.473C243.891,601.743 242.648,603.993 240.781,607.391C235.531,616.614 223.711,625.524 214.391,624.934C209.379,624.614 205.672,621.622 203.352,616.032C200.031,608.005 205.41,600.184 211.629,591.133C216.488,584.075 222,576.051 224.129,566.622L224.66,559.692L223.059,559.575C221.531,559.434 219.422,561.614 216.809,566.051C211.191,575.575 201.25,583.012 190.711,590.891C173,604.141 154.68,617.852 154.988,643.153C155.031,647.692 155.078,655.294 153.93,655.942C153.422,655.423 152.301,651.614 150.879,644.684" style="fill:rgb(35,31,32);fill-rule:nonzero;"/>
            </g>
            <g transform="matrix(0.416667,0,0,0.416667,0,-57.1158)">
                <path d="M1159.47,431.726L1151.37,431.726L1151.37,475.348L1162.54,475.348C1176.13,475.348 1183.31,467.808 1183.31,453.547C1183.31,446.5 1181.37,441.039 1177.55,437.328C1173.48,433.379 1167.4,431.5 1159.47,431.726ZM1161.43,429.859C1177.41,429.859 1185.86,438.058 1185.86,453.547C1185.86,469.027 1177.41,477.219 1161.43,477.219L1149.16,477.219L1149.16,429.859L1161.43,429.859" style="fill:rgb(35,31,32);fill-rule:nonzero;"/>
            </g>
            <g transform="matrix(0.416667,0,0,0.416667,0,-50.8154)">
                <path d="M1196.3,443.059L1196.19,444.285L1220.7,444.285L1220.62,443.086C1220.05,435.105 1215.44,430.355 1208.29,430.355C1200.3,430.355 1196.84,437.195 1196.3,443.059ZM1193.96,445.977C1193.96,437.719 1198.42,428.828 1208.22,428.828C1219.75,428.828 1222.49,437.809 1222.72,445.816L1196.14,445.816L1196.17,446.957C1196.33,456.129 1201.22,461.605 1209.25,461.605C1214.24,461.605 1218.28,458.168 1219.78,453.355L1221.6,453.355C1219.39,459.727 1215.21,463.129 1207.94,463.129C1197.62,463.129 1193.96,453.887 1193.96,445.977" style="fill:rgb(35,31,32);fill-rule:nonzero;"/>
            </g>
            <g transform="matrix(0,0.416667,0.416667,0,324.952,-382.077)">
                <path d="M1209.76,454.485L1257.11,454.485L1257.11,452.616L1209.76,452.616L1209.76,454.485" style="fill:rgb(35,31,32);fill-rule:nonzero;"/>
            </g>
            <g transform="matrix(0.416667,0,0,0.416667,0,-57.4675)">
                <path d="M1248.67,445.82L1249.8,445.82L1249.8,437.332C1249.8,431.961 1251.81,429.871 1256.98,429.871L1259.54,430.332C1259.54,430.332 1259.59,430.934 1259.65,431.531C1259,431.461 1258.35,431.402 1258.35,431.402L1253.09,433.051C1251.55,434.652 1251.53,437.07 1251.66,440.332L1251.66,445.82L1259.5,445.82L1259.5,447.344L1251.66,447.344L1251.66,478.051L1249.8,478.051L1249.8,447.344L1242.85,447.344L1242.85,445.82L1248.67,445.82" style="fill:rgb(35,31,32);fill-rule:nonzero;"/>
            </g>
            <g transform="matrix(0.416667,0,0,0.416667,0,-53.9533)">
                <path d="M1273.33,428.84L1273.33,437.386L1281.16,437.386L1281.16,438.91L1273.33,438.91L1273.33,463.129C1273.33,463.097 1274.82,467.547 1274.82,467.547L1279.19,469.129C1279.19,469.129 1280.49,468.976 1281.64,468.84L1281.64,470.187C1280.61,470.34 1278.58,470.648 1278.58,470.648C1275.9,470.648 1274.07,470.109 1272.97,469.008C1271.43,467.457 1271.45,464.808 1271.46,462.238L1271.46,438.91L1264.59,438.91L1264.59,437.386L1271.46,437.386L1271.46,429.648C1271.98,429.418 1272.44,429.218 1273.33,428.84" style="fill:rgb(35,31,32);fill-rule:nonzero;"/>
            </g>
            <g transform="matrix(0.416667,0,0,0.416667,0,2.36625)">
                <path d="M1183.18,357.969L1183.18,388.993C1183.04,399.86 1176.68,406.352 1166.17,406.352C1155.66,406.352 1149.31,399.86 1149.16,388.981L1149.16,357.969L1151.37,357.969L1151.37,388.923C1151.74,398.54 1157.41,404.493 1166.17,404.493C1174.93,404.493 1180.61,398.54 1180.97,388.969L1180.97,357.969L1183.18,357.969" style="fill:rgb(35,31,32);fill-rule:nonzero;"/>
            </g>
            <g transform="matrix(0.416667,0,0,0.416667,0,7.8075)">
                <path d="M1198.34,364.684C1200.44,360.961 1203.83,359 1208.15,359C1217.27,359 1219.18,365.973 1219.18,371.821L1219.18,392.262L1217.31,392.262L1217.31,371.133C1217.31,364.582 1213.4,360.524 1207.11,360.524C1199.5,360.524 1196.1,367.051 1196.1,373.532L1196.1,392.262L1194.23,392.262L1194.23,366.66C1194.23,366.66 1193.96,360.121 1193.96,360.032L1195.93,360.032C1195.99,361.371 1196.26,367.981 1196.26,367.981L1198.34,364.684" style="fill:rgb(35,31,32);fill-rule:nonzero;"/>
            </g>
            <g transform="matrix(0,0.416667,0.416667,0,344.472,-361.061)">
                <path d="M1230.19,406.187L1233.09,406.187L1233.09,403.627L1230.19,403.627L1230.19,406.187" style="fill:rgb(35,31,32);fill-rule:nonzero;"/>
            </g>
            <g transform="matrix(0,0.416667,0.416667,0,356.888,-348.65)">
                <path d="M1215.53,376.05L1247.76,376.05L1247.76,374.18L1215.53,374.18L1215.53,376.05" style="fill:rgb(35,31,32);fill-rule:nonzero;"/>
            </g>
            <g transform="matrix(0.416667,0,0,0.416667,0,8.2375)">
                <path d="M1271,359C1269.91,361.761 1258.74,389.921 1258.22,391.23L1255.07,391.23C1254.55,389.941 1243.05,361.781 1241.91,359L1244.01,359C1244.56,360.332 1256.67,389.66 1256.67,389.66C1256.67,389.66 1268.35,360.359 1268.9,359L1271,359" style="fill:rgb(35,31,32);fill-rule:nonzero;"/>
            </g>
            <g transform="matrix(0.416667,0,0,0.416667,0,8.23708)">
                <path d="M1278.82,372.192L1278.71,373.422L1303.22,373.422L1303.13,372.211C1302.56,364.243 1297.95,359.493 1290.8,359.493C1283.32,359.493 1279.39,365.872 1278.82,372.192ZM1276.46,375.11C1276.46,366.86 1280.93,357.969 1290.72,357.969C1302.26,357.969 1305,366.942 1305.22,374.95L1278.66,374.95L1278.68,376.09C1278.84,385.262 1283.74,390.743 1291.77,390.743C1296.75,390.743 1300.79,387.301 1302.29,382.493L1304.12,382.493C1301.91,388.86 1297.72,392.262 1290.46,392.262C1280.13,392.262 1276.46,383.02 1276.46,375.11" style="fill:rgb(35,31,32);fill-rule:nonzero;"/>
            </g>
            <g transform="matrix(0.416667,0,0,0.416667,0,7.8075)">
                <path d="M1326.3,359C1326.31,359 1328.24,359.032 1329.25,359.043L1329.25,360.653C1328.84,360.614 1327.83,360.524 1327.83,360.524C1321.34,360.524 1317.38,365.043 1317.22,372.614L1317.22,392.262L1315.36,392.262L1315.36,366.66L1315.13,360.641C1315.13,360.641 1315.11,360.313 1315.09,360.032L1317.06,360.032C1317.11,361.371 1317.22,364.032 1317.22,364.032L1319.55,364.364C1320.64,361.274 1323.35,359.114 1326.3,359" style="fill:rgb(35,31,32);fill-rule:nonzero;"/>
            </g>
            <g transform="matrix(0.416667,0,0,0.416667,0,8.23708)">
                <path d="M1357.54,382.731C1357.54,377.231 1352.12,376.04 1346.88,374.879L1345.74,374.622C1340.05,373.262 1335.69,371.782 1335.69,366.461C1335.69,358.583 1344.51,357.969 1347.21,357.969C1353.78,357.969 1357.08,360.59 1358.06,365.262L1355.86,365.262C1354.93,361.719 1351.93,359.493 1346.8,359.493C1341.39,359.493 1337.9,362.11 1337.9,366.18C1337.9,370.629 1341.8,371.622 1347.2,372.981L1354.66,375.153C1357.8,376.231 1359.75,378.911 1359.75,382.122C1359.75,389.129 1353.04,392.262 1346.38,392.262C1341.34,392.262 1335.68,389.969 1334.82,384.071L1337.29,384.071C1338.16,388.219 1341.46,390.743 1347.41,390.743C1352.46,390.743 1357.54,388.262 1357.54,382.731" style="fill:rgb(35,31,32);fill-rule:nonzero;"/>
            </g>
            <g transform="matrix(0,0.416667,0.416667,0,402.506,-419.094)">
                <path d="M1369.48,406.187L1372.37,406.187L1372.37,403.626L1369.48,403.626L1369.48,406.187" style="fill:rgb(35,31,32);fill-rule:nonzero;"/>
            </g>
            <g transform="matrix(0,0.416667,0.416667,0,414.919,-406.681)">
                <path d="M1354.81,376.045L1387.04,376.045L1387.04,374.185L1354.81,374.185L1354.81,376.045" style="fill:rgb(35,31,32);fill-rule:nonzero;"/>
            </g>
            <g transform="matrix(0.416667,0,0,0.416667,0,5.10417)">
                <path d="M1390.04,357.969L1390.04,366.52L1397.88,366.52L1397.88,368.039L1390.04,368.039L1390.04,392.262C1390.04,392.23 1391.53,396.68 1391.53,396.68L1395.9,398.262C1395.9,398.262 1397.21,398.109 1398.35,397.969L1398.35,399.32C1397.32,399.48 1395.29,399.781 1395.29,399.781C1392.62,399.781 1390.78,399.238 1389.68,398.141C1388.14,396.59 1388.16,393.941 1388.17,391.371L1388.17,368.039L1381.3,368.039L1381.3,366.52L1388.17,366.52L1388.17,358.77C1388.69,358.551 1389.16,358.352 1390.04,357.969" style="fill:rgb(35,31,32);fill-rule:nonzero;"/>
            </g>
            <g transform="matrix(0.416667,0,0,0.416667,0,13.7337)">
                <path d="M1434.98,345.809C1433.84,348.668 1417.38,389.891 1416.85,391.23L1414.74,391.23C1415.7,388.82 1419.35,379.578 1419.35,379.578C1419.35,378.848 1408.48,352.519 1405.7,345.809L1408.27,345.809C1408.81,347.16 1420.64,376.57 1420.64,376.57C1420.64,376.57 1432.41,347.16 1432.95,345.809L1434.98,345.809" style="fill:rgb(35,31,32);fill-rule:nonzero;"/>
            </g>
            <g transform="matrix(0.416667,0,0,0.416667,0,8.23708)">
                <path d="M1462.72,375.11C1462.72,382.641 1466.7,390.743 1475.46,390.743C1484.21,390.743 1488.19,382.641 1488.19,375.11C1488.19,367.59 1484.21,359.493 1475.46,359.493C1466.7,359.493 1462.72,367.59 1462.72,375.11ZM1460.51,375.11C1460.51,366.583 1465.14,357.969 1475.46,357.969C1485.78,357.969 1490.41,366.583 1490.41,375.11C1490.41,383.653 1485.78,392.262 1475.46,392.262C1465.14,392.262 1460.51,383.653 1460.51,375.11" style="fill:rgb(35,31,32);fill-rule:nonzero;"/>
            </g>
            <g transform="matrix(0.416667,0,0,0.416667,0,1.59167)">
                <path d="M1501.15,374.95L1502.28,374.95L1502.28,366.461C1502.28,361.09 1504.29,359 1509.46,359L1512.03,359.461C1512.03,359.461 1512.08,360.059 1512.13,360.66C1511.49,360.59 1510.84,360.532 1510.84,360.532L1505.57,362.192C1504.04,363.782 1504.01,366.211 1504.15,369.461L1504.15,374.95L1511.98,374.95L1511.98,376.469L1504.15,376.469L1504.15,407.18L1502.28,407.18L1502.28,376.469L1495.34,376.469L1495.34,374.95L1501.15,374.95" style="fill:rgb(35,31,32);fill-rule:nonzero;"/>
            </g>
            <g transform="matrix(0.416667,0,0,0.416667,0,60.9879)">
                <path d="M1183.18,288.141L1183.18,290.008L1167.45,290.008L1167.45,335.488L1165.18,335.488L1165.18,290.008L1149.16,290.008L1149.16,288.141L1183.18,288.141" style="fill:rgb(35,31,32);fill-rule:nonzero;"/>
            </g>
            <g transform="matrix(0.416667,0,0,0.416667,0,67.2917)">
                <path d="M1182.92,301.328L1182.81,302.559L1207.32,302.559L1207.23,301.352C1206.66,293.379 1202.05,288.629 1194.91,288.629C1186.91,288.629 1183.45,295.469 1182.92,301.328ZM1180.57,304.25C1180.57,295.988 1185.03,287.102 1194.84,287.102C1206.36,287.102 1209.1,296.078 1209.33,304.09L1182.75,304.09L1182.78,305.23C1182.95,314.398 1187.84,319.879 1195.86,319.879C1200.85,319.879 1204.89,316.43 1206.4,311.629L1208.22,311.629C1206.01,318 1201.83,321.398 1194.56,321.398C1184.23,321.398 1180.57,312.16 1180.57,304.25" style="fill:rgb(35,31,32);fill-rule:nonzero;"/>
            </g>
            <g transform="matrix(0.416667,0,0,0.416667,0,67.2917)">
                <path d="M1217.74,304.25C1217.74,295.988 1222.2,287.102 1232,287.102C1238.39,287.102 1242.61,290.949 1243.51,296.461L1241.37,296.461C1240.54,291.57 1237.22,288.629 1231.31,288.629C1224.73,288.629 1219.95,295.172 1219.95,304.191C1219.95,313.281 1224.73,319.879 1231.31,319.879C1236.75,319.879 1240.43,316.57 1241.34,311.84L1243.47,311.84C1242.09,318.02 1238.44,321.398 1231.72,321.398C1221.4,321.398 1217.74,312.16 1217.74,304.25" style="fill:rgb(35,31,32);fill-rule:nonzero;"/>
            </g>
            <g transform="matrix(0.416667,0,0,0.416667,0,60.9879)">
                <path d="M1254.99,288.141L1254.99,311.668L1257.24,307.918C1259.33,304.199 1262.72,302.231 1267.04,302.231C1276.16,302.231 1278.07,309.207 1278.07,315.059L1278.07,335.488L1276.2,335.488L1276.2,314.359C1276.2,307.82 1272.3,303.758 1266.01,303.758C1258.4,303.758 1254.99,310.289 1254.99,316.758L1254.99,335.488L1253.13,335.488L1253.13,288.141L1254.99,288.141" style="fill:rgb(35,31,32);fill-rule:nonzero;"/>
            </g>
            <g transform="matrix(0.416667,0,0,0.416667,0,66.8587)">
                <path d="M1292.62,293.828C1294.72,290.109 1298.11,288.141 1302.42,288.141C1311.54,288.141 1313.46,295.117 1313.46,300.969L1313.46,321.398L1311.59,321.398L1311.59,300.269C1311.59,293.73 1307.69,289.668 1301.4,289.668C1293.78,289.668 1290.37,296.199 1290.37,302.668L1290.37,321.398L1288.51,321.398L1288.51,295.801C1288.51,295.801 1288.23,289.211 1288.23,289.18L1290.21,289.18C1290.26,290.519 1290.53,297.148 1290.53,297.148L1292.62,293.828" style="fill:rgb(35,31,32);fill-rule:nonzero;"/>
            </g>
            <g transform="matrix(0.416667,0,0,0.416667,0,67.2917)">
                <path d="M1325.54,304.25C1325.54,311.781 1329.53,319.879 1338.28,319.879C1347.04,319.879 1351.02,311.781 1351.02,304.25C1351.02,296.73 1347.04,288.629 1338.28,288.629C1329.53,288.629 1325.54,296.73 1325.54,304.25ZM1323.34,304.25C1323.34,295.719 1327.96,287.102 1338.28,287.102C1348.61,287.102 1353.23,295.719 1353.23,304.25C1353.23,312.781 1348.61,321.398 1338.28,321.398C1327.96,321.398 1323.34,312.781 1323.34,304.25" style="fill:rgb(35,31,32);fill-rule:nonzero;"/>
            </g>
            <g transform="matrix(0,0.416667,0.416667,0,438.192,-377.204)">
                <path d="M1339.8,312.75L1387.15,312.75L1387.15,310.88L1339.8,310.88L1339.8,312.75" style="fill:rgb(35,31,32);fill-rule:nonzero;"/>
            </g>
            <g transform="matrix(0.416667,0,0,0.416667,0,67.2917)">
                <path d="M1376.09,304.25C1376.09,311.781 1380.08,319.879 1388.84,319.879C1397.59,319.879 1401.57,311.781 1401.57,304.25C1401.57,296.73 1397.59,288.629 1388.84,288.629C1380.08,288.629 1376.09,296.73 1376.09,304.25ZM1373.89,304.25C1373.89,295.719 1378.52,287.102 1388.84,287.102C1399.16,287.102 1403.78,295.719 1403.78,304.25C1403.78,312.781 1399.16,321.398 1388.84,321.398C1378.52,321.398 1373.89,312.781 1373.89,304.25" style="fill:rgb(35,31,32);fill-rule:nonzero;"/>
            </g>
            <g transform="matrix(0.416667,0,0,0.416667,0,72.3588)">
                <path d="M1414.27,291.48C1414.27,298.968 1418.36,306.55 1426.18,306.55C1435.08,306.55 1438.24,298.359 1438.24,291.327C1438.24,283.941 1434.06,276.468 1426.05,276.468C1417.95,276.468 1414.27,284.237 1414.27,291.48ZM1412.07,291.808C1412.07,287.859 1413.05,274.941 1425.63,274.941C1429.96,274.941 1433.27,276.819 1436.05,280.839L1437.98,283.628L1438.24,279.98C1438.24,279.98 1438.34,277.327 1438.4,275.98L1440.39,275.98C1440.36,276.609 1440.11,282.601 1440.11,282.601L1440.11,304.308C1440.11,311.23 1439.82,316.948 1433.47,319.917C1433.46,319.929 1426.11,321.398 1426.11,321.398C1423.36,321.398 1415.04,320.659 1413.97,314.378L1416.47,314.378C1417.55,317.71 1421,319.87 1426.67,319.87C1432.23,319.87 1438.09,315.898 1438.24,309.23L1438.24,302.737L1435.96,302.237C1434.27,305.679 1430.08,308.077 1425.78,308.077C1417.19,308.077 1412.07,301.987 1412.07,291.808" style="fill:rgb(35,31,32);fill-rule:nonzero;"/>
            </g>
            <g transform="matrix(0.416667,0,0,0.416667,0,72.7917)">
                <path d="M1477.69,274.941C1476.55,277.788 1460.09,319.019 1459.56,320.359L1457.46,320.359C1458.42,317.948 1462.07,308.71 1462.07,308.71C1462.07,307.972 1451.19,281.652 1448.41,274.941L1450.98,274.941C1451.52,276.288 1463.36,305.698 1463.36,305.698C1463.36,305.698 1475.12,276.288 1475.66,274.941L1477.69,274.941" style="fill:rgb(35,31,32);fill-rule:nonzero;"/>
            </g>
            <g transform="matrix(0.416667,0,0,0.416667,0,0.278333)">
                <path d="M938.691,350.422L939.809,350.422L939.809,324.434C939.809,301.711 954.949,288.141 980.309,288.141C980.309,288.141 995.621,290.402 997.211,290.641L997.211,309.363C995.898,309.262 993.801,309.113 993.801,309.113L985.621,308.672C970.789,308.672 962.75,311.711 962.75,327.812L962.75,350.422L993.48,350.422L993.48,365.691L962.75,365.691L962.75,481.191L939.809,481.191L939.809,365.691L913.859,365.691L913.859,350.422L938.691,350.422" style="fill:rgb(35,31,32);fill-rule:nonzero;"/>
            </g>
            <g transform="matrix(0.416667,0,0,0.416667,0,12.9279)">
                <path d="M1055.95,284.172L1055.95,320.063L1086.69,320.063L1086.69,335.332L1055.95,335.332L1055.95,422.563C1055.95,431.774 1062.84,437.723 1073.5,437.723C1073.5,437.723 1083.39,436.543 1085.64,436.274L1085.64,453.332C1083.96,453.485 1069.54,454.801 1069.54,454.801C1033.01,454.801 1033.01,438.504 1033.01,421.235L1033.01,335.332L1010.21,335.332L1010.21,320.075L1033.01,320.094L1033.01,291.414C1034.4,290.973 1053.43,284.961 1055.95,284.172" style="fill:rgb(35,31,32);fill-rule:nonzero;"/>
            </g>
            <g transform="matrix(0.416667,0,0,0.416667,0,1.93333)">
                <path d="M594.07,308.669L553.75,308.669L553.75,456.7L594.07,456.7C633.961,456.7 657.77,429.04 657.77,382.7C657.77,336.34 633.961,308.669 594.07,308.669ZM594.059,288.141C676.91,288.141 683.359,360.52 683.359,382.7C683.359,404.872 676.91,477.219 594.059,477.219L529.449,477.219L529.449,288.141L594.059,288.141" style="fill:rgb(35,31,32);fill-rule:nonzero;"/>
            </g>
            <g transform="matrix(0.416667,0,0,0.416667,0,3.57875)">
                <path d="M383.852,441.251C408.77,441.251 422.309,424.7 422.309,401.481L422.309,283.059L475.32,283.059L475.32,404.13C474.789,457.423 432.102,478.352 383.852,478.352C335.602,478.352 292.922,457.423 292.391,404.13L292.391,283.059L345.398,283.059L345.398,401.481C345.398,424.7 358.93,441.251 383.852,441.251" style="fill:rgb(0,174,239);fill-rule:nonzero;"/>
            </g>
            <g transform="matrix(0.416667,0,0,0.416667,0,26.2079)">
                <path d="M829.199,358.331L829.199,345.863C829.199,309.031 808.328,283.031 770.59,283.031C728.449,283.031 708.82,315.652 708.82,354.613C708.82,393.851 725.809,424.07 768.48,424.07C800.301,424.07 823.621,408.972 827.602,378.749L801.102,378.749C798.172,398.089 788.371,405.781 768.762,405.781C743.02,405.781 734.488,382.89 734.488,358.331L829.199,358.331ZM735.051,340.831C735.23,320.081 747.801,301.331 768.762,301.331C793.129,301.331 802.66,318.042 802.66,340.831L735.051,340.831" style="fill:rgb(35,31,32);fill-rule:nonzero;"/>
            </g>
            <g transform="matrix(0.416667,0,0,0.416667,0,1.93667)">
                <rect x="859.73" y="287" width="25.199" height="191.352" style="fill:rgb(35,31,32);"/>
            </g>
            <g transform="matrix(0.416667,0,0,0.416667,0,1.93667)">
                <path d="M155.051,478.34L208.059,478.34L208.059,324.133L267.449,324.133L267.449,287.012L95.672,287.012L95.672,324.133L155.051,324.133L155.051,478.34" style="fill:rgb(35,31,32);fill-rule:nonzero;"/>
            </g>
            <g transform="matrix(0.416667,0,0,0.416667,0,-162.521)">
                <path d="M282.391,588.539C269.461,592.602 256.121,589.352 256.16,572.063C256.18,545.699 318.078,523.602 326.672,500.563C328.789,494.821 328.922,490.09 326.18,490.242C324.211,490.36 325.75,493.223 321.41,497.563C295.77,523.223 252.801,523.18 219.828,537.949C198.211,547.653 134.852,577.473 149.441,643.973C150.129,647.121 152.02,657.711 153.949,657.711C156.199,657.711 156.18,651.422 156.121,643.781C155.629,604.192 202.52,593.141 217.781,567.27C219.602,564.18 222.762,559.84 223.512,561.852C223.871,562.832 223.641,564.262 223.02,567.02C218.25,588.281 196.012,601.922 202.309,617.121C210.469,636.84 234.051,622.129 241.289,609.461C243.23,605.961 244.309,603.742 245.609,604.192C246.59,604.531 246.551,608.531 245.941,612.129C242.078,635.02 236.809,647.871 220.059,660.879C214.711,665.051 206.289,665.922 207.391,669.129C207.672,669.961 211.301,669.871 214.199,669.582C258.789,666.723 296.078,614.153 305.961,579.801C307,577.391 307.309,575.11 306.219,574.262C304.871,573.231 302.922,575.61 300.922,577.379C295.828,581.852 288.828,586.52 282.391,588.539" style="fill:rgb(35,31,32);fill-rule:nonzero;"/>
            </g>
            <g transform="matrix(0.416667,0,0,0.416667,0,-57.1208)">
                <path d="M1162.54,474.231C1176.48,474.231 1182.18,466.059 1182.18,453.559C1182.18,438.918 1173.59,432.461 1159.51,432.871L1152.5,432.871L1152.5,474.231L1162.54,474.231ZM1161.43,428.738C1177.72,428.738 1186.99,437.129 1186.99,453.559C1186.99,469.981 1177.72,478.352 1161.43,478.352L1148.03,478.352L1148.03,428.738L1161.43,428.738" style="fill:rgb(35,31,32);fill-rule:nonzero;"/>
            </g>
            <g transform="matrix(0.416667,0,0,0.416667,0,-50.8171)">
                <path d="M1219.49,443.172C1219.01,436.5 1215.43,431.492 1208.29,431.492C1201.55,431.492 1197.98,437.121 1197.43,443.172L1219.49,443.172ZM1197.3,446.941C1197.43,454.289 1200.8,460.481 1209.25,460.481C1214.13,460.481 1218.18,456.981 1219.21,452.231L1223.54,452.231C1221.41,460.481 1216.26,464.25 1207.94,464.25C1197.64,464.25 1192.83,455.391 1192.83,445.981C1192.83,436.641 1197.98,427.711 1208.22,427.711C1219.76,427.711 1223.95,436.16 1223.95,446.941L1197.3,446.941" style="fill:rgb(35,31,32);fill-rule:nonzero;"/>
            </g>
            <g transform="matrix(0.416667,0,0,0.416667,0,-57.1205)">
                <rect x="1231.37" y="428.738" width="4.117" height="49.613" style="fill:rgb(35,31,32);"/>
            </g>
            <g transform="matrix(0.416667,0,0,0.416667,0,-57.4708)">
                <path d="M1248.67,479.18L1248.67,448.481L1241.72,448.481L1241.72,444.7L1248.67,444.7L1248.67,437.34C1248.67,431.43 1251.06,428.75 1256.98,428.75C1258.29,428.75 1259.66,429.239 1260.89,429.508L1260.89,432.801C1260.07,432.668 1259.18,432.532 1258.35,432.532C1252.72,432.532 1252.59,435.36 1252.79,440.289L1252.79,444.7L1260.63,444.7L1260.63,448.481L1252.79,448.481L1252.79,479.18L1248.67,479.18" style="fill:rgb(35,31,32);fill-rule:nonzero;"/>
            </g>
            <g transform="matrix(0.416667,0,0,0.416667,0,-54.2042)">
                <path d="M1270.33,440.641L1263.46,440.641L1263.46,436.86L1270.33,436.86L1270.33,429.5L1274.45,427.719L1274.45,436.86L1282.29,436.86L1282.29,440.641L1274.45,440.641L1274.45,463.731C1274.38,466.879 1276.03,468.602 1279.19,468.602C1280.43,468.602 1281.67,468.531 1282.77,468.192L1282.77,471.762C1281.46,472.11 1279.95,472.371 1278.58,472.371C1269.85,472.371 1270.33,466.809 1270.33,462.141L1270.33,440.641" style="fill:rgb(35,31,32);fill-rule:nonzero;"/>
            </g>
            <g transform="matrix(0.416667,0,0,0.416667,0,2.36667)">
                <path d="M1152.5,356.84L1152.5,388.922C1152.85,397.929 1158,403.359 1166.17,403.359C1174.35,403.359 1179.5,397.929 1179.84,388.922L1179.84,356.84L1184.31,356.84L1184.31,388.992C1184.17,399.64 1178.19,407.48 1166.17,407.48C1154.14,407.48 1148.17,399.64 1148.03,388.992L1148.03,356.84L1152.5,356.84" style="fill:rgb(35,31,32);fill-rule:nonzero;"/>
            </g>
            <g transform="matrix(0.416667,0,0,0.416667,0,7.8075)">
                <path d="M1197.23,393.391L1193.1,393.391L1193.1,366.66C1193.1,363.981 1192.89,361.242 1192.76,358.903L1197.01,358.903L1197.23,363.981L1197.36,364.121C1199.77,359.864 1203.69,357.871 1208.15,357.871C1219.41,357.871 1220.31,367.832 1220.31,371.821L1220.31,393.391L1216.18,393.391L1216.18,371.133C1216.18,365.153 1212.75,361.653 1207.11,361.653C1200.31,361.653 1197.23,367.352 1197.23,373.532L1197.23,393.391" style="fill:rgb(35,31,32);fill-rule:nonzero;"/>
            </g>
            <g transform="matrix(0.416667,0,0,0.416667,0,1.93708)">
                <path d="M1229.58,372.992L1233.71,372.992L1233.71,407.48L1229.58,407.48L1229.58,372.992ZM1229.23,357.871L1234.05,357.871L1234.05,363.023L1229.23,363.023" style="fill:rgb(35,31,32);fill-rule:nonzero;"/>
            </g>
            <g transform="matrix(0.416667,0,0,0.416667,0,8.2375)">
                <path d="M1244.77,357.871L1256.65,386.66L1268.13,357.871L1272.67,357.871L1258.98,392.359L1254.32,392.359L1240.23,357.871L1244.77,357.871" style="fill:rgb(35,31,32);fill-rule:nonzero;"/>
            </g>
            <g transform="matrix(0.416667,0,0,0.416667,0,8.23708)">
                <path d="M1302,372.301C1301.52,365.629 1297.94,360.622 1290.8,360.622C1284.06,360.622 1280.49,366.251 1279.94,372.301L1302,372.301ZM1279.81,376.071C1279.94,383.43 1283.32,389.61 1291.77,389.61C1296.64,389.61 1300.7,386.11 1301.72,381.36L1306.04,381.36C1303.93,389.61 1298.77,393.391 1290.46,393.391C1280.16,393.391 1275.34,384.52 1275.34,375.11C1275.34,365.77 1280.49,356.84 1290.72,356.84C1302.28,356.84 1306.46,365.29 1306.46,376.071L1279.81,376.071" style="fill:rgb(35,31,32);fill-rule:nonzero;"/>
            </g>
            <g transform="matrix(0.416667,0,0,0.416667,0,7.77833)">
                <path d="M1318.35,393.461L1314.23,393.461L1314.23,366.73C1314.3,364.051 1314.02,361.312 1313.88,358.973L1318.14,358.973L1318.35,364.051L1318.49,364.051C1319.73,360.543 1322.82,358.07 1326.26,357.941C1327.63,357.871 1329,357.941 1330.38,358.004L1330.38,361.992C1329.55,361.922 1328.66,361.723 1327.83,361.723C1321.71,361.723 1318.49,366.113 1318.35,372.711L1318.35,393.461" style="fill:rgb(35,31,32);fill-rule:nonzero;"/>
            </g>
            <g transform="matrix(0.416667,0,0,0.416667,0,8.23708)">
                <path d="M1347.21,356.84C1353.74,356.84 1359.22,359.102 1359.79,366.391L1355.32,366.391C1354.9,362.059 1351.05,360.622 1346.8,360.622C1342.94,360.622 1339.03,362.122 1339.03,366.18C1339.03,371.27 1345.69,370.79 1355.03,374.083C1358.61,375.321 1360.88,378.411 1360.88,382.122C1360.88,389.891 1353.66,393.391 1346.38,393.391C1340.4,393.391 1333.53,390.571 1333.39,382.942L1337.86,382.942C1338.2,388.102 1342.74,389.61 1347.41,389.61C1351.81,389.61 1356.41,387.551 1356.41,382.731C1356.41,377.79 1350.99,376.969 1345.49,375.731C1340.06,374.422 1334.56,372.852 1334.56,366.461C1334.56,359.309 1341.15,356.84 1347.21,356.84" style="fill:rgb(35,31,32);fill-rule:nonzero;"/>
            </g>
            <g transform="matrix(0.416667,0,0,0.416667,0,1.93708)">
                <path d="M1368.86,372.992L1372.98,372.992L1372.98,407.48L1368.86,407.48L1368.86,372.992ZM1368.51,357.871L1373.33,357.871L1373.33,363.023L1368.51,363.023" style="fill:rgb(35,31,32);fill-rule:nonzero;"/>
            </g>
            <g transform="matrix(0.416667,0,0,0.416667,0,4.85833)">
                <path d="M1387.05,369.762L1380.17,369.762L1380.17,365.981L1387.05,365.981L1387.05,358.621L1391.17,356.84L1391.17,365.981L1399,365.981L1399,369.762L1391.17,369.762L1391.17,392.852C1391.1,396 1392.74,397.719 1395.9,397.719C1397.15,397.719 1398.39,397.649 1399.48,397.309L1399.48,400.879C1398.17,401.231 1396.67,401.5 1395.29,401.5C1386.56,401.5 1387.05,395.93 1387.05,391.262L1387.05,369.762" style="fill:rgb(35,31,32);fill-rule:nonzero;"/>
            </g>
            <g transform="matrix(0.416667,0,0,0.416667,0,13.7337)">
                <path d="M1409.03,344.68L1420.64,373.527L1432.18,344.68L1436.65,344.68L1417.61,392.359L1413.08,392.359L1418.3,379.168L1404.01,344.68L1409.03,344.68" style="fill:rgb(35,31,32);fill-rule:nonzero;"/>
            </g>
            <g transform="matrix(0.416667,0,0,0.416667,0,8.23708)">
                <path d="M1475.46,360.622C1467.14,360.622 1463.85,368.731 1463.85,375.11C1463.85,381.501 1467.14,389.61 1475.46,389.61C1483.77,389.61 1487.07,381.501 1487.07,375.11C1487.07,368.731 1483.77,360.622 1475.46,360.622ZM1491.53,375.11C1491.53,384.18 1486.45,393.391 1475.46,393.391C1464.46,393.391 1459.38,384.18 1459.38,375.11C1459.38,366.04 1464.46,356.84 1475.46,356.84C1486.45,356.84 1491.53,366.04 1491.53,375.11" style="fill:rgb(35,31,32);fill-rule:nonzero;"/>
            </g>
            <g transform="matrix(0.416667,0,0,0.416667,0,1.59167)">
                <path d="M1501.15,408.309L1501.15,377.602L1494.21,377.602L1494.21,373.821L1501.15,373.821L1501.15,366.461C1501.15,360.551 1503.55,357.871 1509.46,357.871C1510.77,357.871 1512.15,358.36 1513.37,358.629L1513.37,361.93C1512.56,361.789 1511.67,361.66 1510.84,361.66C1505.21,361.66 1505.07,364.481 1505.27,369.41L1505.27,373.821L1513.11,373.821L1513.11,377.602L1505.27,377.602L1505.27,408.309L1501.15,408.309" style="fill:rgb(35,31,32);fill-rule:nonzero;"/>
            </g>
            <g transform="matrix(0.416667,0,0,0.416667,0,60.9862)">
                <path d="M1164.05,291.145L1148.03,291.145L1148.03,287.012L1184.31,287.012L1184.31,291.145L1168.57,291.145L1168.57,336.621L1164.05,336.621L1164.05,291.145" style="fill:rgb(35,31,32);fill-rule:nonzero;"/>
            </g>
            <g transform="matrix(0.416667,0,0,0.416667,0,67.2917)">
                <path d="M1206.1,301.43C1205.63,294.762 1202.05,289.75 1194.91,289.75C1188.17,289.75 1184.59,295.391 1184.04,301.43L1206.1,301.43ZM1183.91,305.211C1184.04,312.57 1187.42,318.75 1195.86,318.75C1200.74,318.75 1204.8,315.25 1205.83,310.5L1210.15,310.5C1208.03,318.75 1202.88,322.52 1194.56,322.52C1184.26,322.52 1179.44,313.66 1179.44,304.25C1179.44,294.91 1184.59,285.98 1194.84,285.98C1206.37,285.98 1210.57,294.43 1210.57,305.211L1183.91,305.211" style="fill:rgb(35,31,32);fill-rule:nonzero;"/>
            </g>
            <g transform="matrix(0.416667,0,0,0.416667,0,67.2917)">
                <path d="M1240.73,297.59C1240.38,292.289 1237.02,289.75 1231.31,289.75C1224.99,289.75 1221.07,296.352 1221.07,304.191C1221.07,312.078 1224.99,318.75 1231.31,318.75C1236.67,318.75 1240.38,315.449 1240.73,310.711L1245.19,310.711C1244.09,318.609 1239.56,322.52 1231.72,322.52C1221.42,322.52 1216.61,313.66 1216.61,304.25C1216.61,294.91 1221.76,285.98 1232,285.98C1239.08,285.98 1244.85,290.238 1245.19,297.59L1240.73,297.59" style="fill:rgb(35,31,32);fill-rule:nonzero;"/>
            </g>
            <g transform="matrix(0.416667,0,0,0.416667,0,60.9862)">
                <path d="M1256.12,307.363L1256.26,307.363C1258.66,303.102 1262.58,301.113 1267.04,301.113C1278.31,301.113 1279.2,311.074 1279.2,315.063L1279.2,336.621L1275.07,336.621L1275.07,314.363C1275.07,308.395 1271.65,304.883 1266.01,304.883C1259.2,304.883 1256.12,310.594 1256.12,316.762L1256.12,336.621L1252,336.621L1252,287.012L1256.12,287.012L1256.12,307.363" style="fill:rgb(35,31,32);fill-rule:nonzero;"/>
            </g>
            <g transform="matrix(0.416667,0,0,0.416667,0,66.8617)">
                <path d="M1291.5,322.52L1287.38,322.52L1287.38,295.794C1287.38,293.122 1287.17,290.372 1287.03,288.044L1291.29,288.044L1291.5,293.122L1291.64,293.262C1294.04,289.001 1297.96,287.012 1302.42,287.012C1313.69,287.012 1314.58,296.973 1314.58,300.962L1314.58,322.52L1310.46,322.52L1310.46,300.262C1310.46,294.294 1307.03,290.782 1301.4,290.782C1294.59,290.782 1291.5,296.493 1291.5,302.661L1291.5,322.52" style="fill:rgb(35,31,32);fill-rule:nonzero;"/>
            </g>
            <g transform="matrix(0.416667,0,0,0.416667,0,67.2917)">
                <path d="M1338.28,289.75C1329.97,289.75 1326.67,297.859 1326.67,304.25C1326.67,310.641 1329.97,318.75 1338.28,318.75C1346.6,318.75 1349.89,310.641 1349.89,304.25C1349.89,297.859 1346.6,289.75 1338.28,289.75ZM1354.36,304.25C1354.36,313.309 1349.28,322.52 1338.28,322.52C1327.29,322.52 1322.21,313.309 1322.21,304.25C1322.21,295.18 1327.29,285.98 1338.28,285.98C1349.28,285.98 1354.36,295.18 1354.36,304.25" style="fill:rgb(35,31,32);fill-rule:nonzero;"/>
            </g>
            <g transform="matrix(0.416667,0,0,0.416667,0,60.9861)">
                <rect x="1361.42" y="287.012" width="4.117" height="49.609" style="fill:rgb(35,31,32);"/>
            </g>
            <g transform="matrix(0.416667,0,0,0.416667,0,67.2917)">
                <path d="M1388.84,289.75C1380.52,289.75 1377.22,297.859 1377.22,304.25C1377.22,310.641 1380.52,318.75 1388.84,318.75C1397.15,318.75 1400.44,310.641 1400.44,304.25C1400.44,297.859 1397.15,289.75 1388.84,289.75ZM1404.91,304.25C1404.91,313.309 1399.83,322.52 1388.84,322.52C1377.84,322.52 1372.76,313.309 1372.76,304.25C1372.76,295.18 1377.84,285.98 1388.84,285.98C1399.83,285.98 1404.91,295.18 1404.91,304.25" style="fill:rgb(35,31,32);fill-rule:nonzero;"/>
            </g>
            <g transform="matrix(0.416667,0,0,0.416667,0,72.3629)">
                <path d="M1426.05,277.579C1418.56,277.579 1415.4,285.138 1415.4,291.47C1415.4,297.778 1418.63,305.419 1426.18,305.419C1434.08,305.419 1437.11,298.059 1437.11,291.317C1437.11,284.727 1433.47,277.579 1426.05,277.579ZM1437.31,274.841L1441.58,274.841C1441.44,277.169 1441.24,279.919 1441.24,282.591L1441.24,303.278C1441.24,310.149 1441.58,317.36 1433.95,320.938C1431.2,322.251 1429.35,322.52 1426.11,322.52C1419.87,322.52 1412.45,320.388 1412.45,313.239L1416.91,313.239C1417.4,317.36 1422.27,318.739 1426.67,318.739C1432.03,318.739 1436.98,314.958 1437.11,309.2L1437.11,302.727L1436.98,302.727C1434.98,306.79 1430.24,309.2 1425.78,309.2C1415.4,309.2 1410.94,301.29 1410.94,291.798C1410.94,282.458 1415.13,273.809 1425.63,273.809C1430.65,273.809 1434.23,276.208 1436.98,280.188L1437.11,279.919L1437.31,274.841" style="fill:rgb(35,31,32);fill-rule:nonzero;"/>
            </g>
            <g transform="matrix(0.416667,0,0,0.416667,0,72.7929)">
                <path d="M1451.74,273.809L1463.35,302.656L1474.9,273.809L1479.36,273.809L1460.33,321.488L1455.8,321.488L1461.02,308.285L1446.72,273.809L1451.74,273.809" style="fill:rgb(35,31,32);fill-rule:nonzero;"/>
            </g>
            <g transform="matrix(0.416667,0,0,0.416667,0,0.278333)">
                <path d="M963.879,482.32L963.879,366.812L994.602,366.812L994.602,349.301L963.879,349.301L963.879,327.812C963.879,312.434 971.289,309.793 985.621,309.793C989.84,309.793 994.102,310.344 998.34,310.57L998.34,289.672C992.441,288.332 986.422,287.012 980.309,287.012C956.461,287.012 938.691,298.961 938.691,324.434L938.691,349.301L912.73,349.301L912.73,366.812L938.691,366.812L938.691,482.32L963.879,482.32" style="fill:rgb(35,31,32);fill-rule:nonzero;"/>
            </g>
            <g transform="matrix(0.416667,0,0,0.416667,0,12.7588)">
                <path d="M1009.08,319.348L1009.08,336.859L1031.88,336.859L1031.88,421.641C1031.88,439.34 1032.13,456.34 1069.54,456.34C1075.36,456.34 1080.83,455.801 1086.77,454.77L1086.77,435.418C1082.67,436.41 1077.49,437.008 1073.5,437.008C1064.49,437.008 1057.08,432.481 1057.08,422.969L1057.08,336.859L1087.82,336.859L1087.82,319.348L1057.08,319.348L1057.08,283.039L1031.88,290.988L1031.88,319.359L1009.08,319.348" style="fill:rgb(35,31,32);fill-rule:nonzero;"/>
            </g>
            <g transform="matrix(0.416667,0,0,0.416667,0,1.93167)">
                <path d="M554.871,309.794L594.07,309.794C638.301,309.794 656.648,343.165 656.648,382.704C656.648,422.235 638.301,455.575 594.07,455.575L554.871,455.575L554.871,309.794ZM528.328,478.352L594.059,478.352C675.891,478.352 684.48,409.094 684.48,382.704C684.48,356.313 675.891,287.012 594.059,287.012L528.328,287.012L528.328,478.352" style="fill:rgb(35,31,32);fill-rule:nonzero;"/>
            </g>
        </g>
    </g>
</svg>
