<?xml version="1.0" encoding="UTF-8" standalone="no"?>
<!-- Created with Inkscape (http://www.inkscape.org/) -->

<svg
   version="1.1"
   id="svg2"
   width="102.66667"
   height="102.66667"
   viewBox="0 0 102.66667 102.66667"
   sodipodi:docname="aau_logo_circle_en.eps"
   xmlns:inkscape="http://www.inkscape.org/namespaces/inkscape"
   xmlns:sodipodi="http://sodipodi.sourceforge.net/DTD/sodipodi-0.dtd"
   xmlns="http://www.w3.org/2000/svg"
   xmlns:svg="http://www.w3.org/2000/svg">
  <defs
     id="defs6" />
  <sodipodi:namedview
     id="namedview4"
     pagecolor="#ffffff"
     bordercolor="#000000"
     borderopacity="0.25"
     inkscape:showpageshadow="2"
     inkscape:pageopacity="0.0"
     inkscape:pagecheckerboard="0"
     inkscape:deskcolor="#d1d1d1" />
  <g
     id="g8"
     inkscape:groupmode="layer"
     inkscape:label="ink_ext_XXXXXX"
     transform="matrix(1.3333333,0,0,-1.3333333,0,102.66667)">
    <g
       id="g10"
       transform="scale(0.1)">
      <path
         d="M 765.078,383.59 C 765.078,173.52 594.801,3.23828 384.73,3.23828 174.648,3.23828 4.37891,173.52 4.37891,383.59 c 0,210.039 170.26909,380.359 380.35109,380.359 210.071,0 380.348,-170.32 380.348,-380.359 z"
         style="fill:#22234e;fill-opacity:1;fill-rule:nonzero;stroke:none"
         id="path12" />
      <path
         d="m 88.1602,288.238 9.4609,7.153 -0.082,0.16 -11.918,0.07 z m 17.5388,15.821 c 0.352,0 0.629,-0.149 0.75,-0.539 l 3.121,-9.141 c 0.121,-0.399 0,-0.668 -0.269,-0.899 L 80.5117,269.34 C 80.2695,269.102 80,269.219 79.8789,269.531 l -3.1601,9.258 c -0.1172,0.391 0,0.699 0.2695,0.902 l 4.6523,3.59 -4.2187,12.34 h -5.9024 c -0.3086,0 -0.5781,0.199 -0.7382,0.551 l -3.1211,9.219 c -0.1211,0.308 0.039,0.55 0.3906,0.55 l 37.6482,-1.882"
         style="fill:#fffffb;fill-opacity:1;fill-rule:nonzero;stroke:none"
         id="path14" />
      <path
         d="m 109.801,240.27 8.129,8.64 -0.078,0.149 -11.762,-1.95 z m 14.648,18.558 c 0.352,0.082 0.672,-0.039 0.86,-0.387 l 4.57,-8.519 c 0.199,-0.352 0.121,-0.66 -0.109,-0.902 l -24.34,-28.711 c -0.231,-0.231 -0.508,-0.188 -0.66,0.121 l -4.649,8.59 c -0.1991,0.359 -0.121,0.671 0.109,0.902 l 3.989,4.34 -6.1682,11.476 -5.8203,-0.968 c -0.3516,-0.079 -0.6289,0.031 -0.8203,0.39 l -4.6094,8.551 c -0.1992,0.309 -0.082,0.551 0.2695,0.59 l 37.3787,4.527"
         style="fill:#fffffb;fill-opacity:1;fill-rule:nonzero;stroke:none"
         id="path16" />
      <path
         d="m 143.949,226.129 c 0.231,0.199 0.539,0.121 0.781,-0.149 l 5.579,-7.351 c 0.203,-0.27 0.16,-0.578 -0.079,-0.777 L 128.75,201.48 c -0.16,-0.109 -0.16,-0.308 -0.039,-0.46 l 10.309,-13.559 c 0.242,-0.27 0.199,-0.582 -0.04,-0.781 l -5.781,-4.379 c -0.23,-0.192 -0.539,-0.153 -0.777,0.121 l -16.442,21.637 c -0.242,0.281 -0.199,0.589 0.071,0.781 l 27.898,21.289"
         style="fill:#fffffb;fill-opacity:1;fill-rule:nonzero;stroke:none"
         id="path18" />
      <path
         d="m 171.52,172.699 c 2.23,-2.187 4.3,-2.469 6.019,-0.711 1.801,1.883 1.441,3.793 -0.859,6.024 l -3.008,2.929 c -0.152,0.149 -0.313,0.149 -0.473,0 l -4.719,-4.89 c -0.16,-0.11 -0.16,-0.313 0,-0.461 z m -13.161,-7.578 3.403,-3.281 c 2.34,-2.27 4.527,-2.391 6.359,-0.469 1.758,1.789 1.649,4.059 -0.699,6.328 l -3.402,3.281 c -0.149,0.149 -0.348,0.149 -0.469,0 l -5.231,-5.359 c -0.16,-0.152 -0.121,-0.312 0.039,-0.5 z m 12.153,27.969 c 0.187,0.23 0.508,0.23 0.777,0 l 11.762,-11.41 c 6.48,-6.25 6.75,-11.91 2.73,-16.02 -2.582,-2.648 -5.742,-3.238 -8.902,-2.14 l -0.078,-0.079 c 1.398,-2.781 1.211,-6.839 -1.723,-9.851 -4.918,-5.07 -11.25,-3.59 -17.308,2.269 l -11.641,11.25 c -0.231,0.27 -0.27,0.59 -0.039,0.821 l 24.422,25.16"
         style="fill:#fffffb;fill-opacity:1;fill-rule:nonzero;stroke:none"
         id="path20" />
      <path
         d="m 206.84,130.078 c 1.09,0.742 2.14,1.992 4.609,5.512 2.5,3.512 3.321,4.961 3.672,6.211 0.578,2.07 -0.281,4.058 -2.391,5.578 -2.109,1.492 -4.289,1.57 -6.05,0.351 -1.09,-0.742 -2.11,-2.031 -4.61,-5.539 -2.461,-3.519 -3.32,-4.921 -3.629,-6.211 -0.589,-2.031 0.231,-4.07 2.34,-5.55 2.149,-1.481 4.297,-1.602 6.059,-0.352 z m -18.09,9.453 c 0.82,2.77 1.871,4.649 4.73,8.707 2.848,4.032 4.25,5.633 6.641,7.352 5.109,3.59 11.641,2.648 17.418,-1.41 5.82,-4.059 8.871,-9.879 7.231,-15.899 -0.79,-2.851 -1.879,-4.691 -4.731,-8.711 -2.848,-4.058 -4.219,-5.699 -6.641,-7.34 -5.117,-3.64 -11.636,-2.699 -17.418,1.36 -5.781,4.109 -8.871,9.89 -7.23,15.941"
         style="fill:#fffffb;fill-opacity:1;fill-rule:nonzero;stroke:none"
         id="path22" />
      <path
         d="m 256.949,117.031 c 1.02,2.11 0.082,4.219 -2.57,5.547 L 249.41,125 c -0.23,0.121 -0.39,0.078 -0.461,-0.121 l -3.09,-6.328 c -0.078,-0.192 -0.039,-0.313 0.192,-0.43 l 4.969,-2.461 c 2.652,-1.281 4.921,-0.738 5.929,1.371 z m -10.23,-22.1521 c -0.469,0.2422 -0.547,0.4727 -0.547,0.8594 l -0.082,13.7497 -3.43,1.723 c -0.199,0.078 -0.359,0.039 -0.43,-0.16 l -5.281,-10.781 c -0.148,-0.27 -0.469,-0.3911 -0.777,-0.231 l -8.281,4.063 c -0.313,0.16 -0.43,0.468 -0.27,0.738 l 15.348,31.531 c 0.152,0.27 0.472,0.391 0.781,0.231 l 14.691,-7.223 c 8.278,-4.027 10.86,-10.707 7.887,-16.801 -1.988,-4.058 -5.707,-6.328 -10.348,-6.168 l 0.579,-15.6287 c 0,-0.3516 -0.27,-0.5821 -0.661,-0.3907 l -9.179,4.4883"
         style="fill:#fffffb;fill-opacity:1;fill-rule:nonzero;stroke:none"
         id="path24" />
      <path
         d="m 279.301,100.551 c 1.437,4.758 2.301,6.719 4.019,9.097 3.75,5 10.2,6.172 17.032,4.063 7.07,-2.152 10.898,-6.52 11.679,-11.602 0.078,-0.39 -0.121,-0.66 -0.551,-0.738 l -8.16,-0.551 c -0.39,-0.039 -0.699,0.16 -0.781,0.469 -0.738,2.262 -1.988,3.633 -4.648,4.449 -2.582,0.782 -4.61,0.203 -5.86,-1.558 -0.859,-1.059 -1.41,-2.539 -2.691,-6.68 -1.25,-4.1016 -1.57,-5.7383 -1.531,-7.0312 0.16,-2.1485 1.57,-3.7891 4.339,-4.6485 2.461,-0.7422 4.762,-0.3906 5.903,1.211 0.429,0.5078 0.738,1.207 1.008,2.1484 0.082,0.1992 0,0.3086 -0.231,0.3906 l -4.18,1.25 c -0.347,0.1211 -0.507,0.3906 -0.386,0.6992 l 1.758,5.75 c 0.07,0.3086 0.351,0.4297 0.699,0.3086 l 13.711,-4.1797 c 0.351,-0.0781 0.511,-0.3476 0.429,-0.6679 l -0.82,-2.6094 c -1.019,-3.3203 -2.027,-5.8594 -3.48,-7.7422 -3.789,-5.1094 -10.149,-6.5586 -17.149,-4.4492 -6.832,2.0703 -11.519,6.6016 -11.832,12.8906 -0.117,2.9297 0.274,5.0391 1.723,9.7307"
         style="fill:#fffffb;fill-opacity:1;fill-rule:nonzero;stroke:none"
         id="path26" />
      <path
         d="m 353.398,79.4883 1.051,21.6017 c 0.039,0.32 0.281,0.512 0.629,0.512 l 9.223,-0.473 c 0.347,-0.039 0.539,-0.231 0.539,-0.578 l -1.09,-22.1916 c -0.16,-3.5899 1.949,-5.7813 5.309,-5.9375 3.519,-0.1914 5.671,1.7578 5.863,5.3867 L 376.02,100 c 0,0.309 0.23,0.512 0.582,0.512 l 9.218,-0.473 c 0.352,-0.039 0.59,-0.2382 0.551,-0.5898 l -1.062,-21.5976 c -0.469,-9.6133 -7.11,-14.2618 -16.637,-13.793 -9.723,0.5117 -15.742,5.8203 -15.274,15.4297"
         style="fill:#fffffb;fill-opacity:1;fill-rule:nonzero;stroke:none"
         id="path28" />
      <path
         d="m 402.148,99.9609 c -0.078,0.3091 0.153,0.5511 0.512,0.5901 l 8.629,0.929 c 0.43,0.04 0.859,-0.07 1.051,-0.39 l 14.301,-19.0587 h 0.199 l -2.192,20.3907 c -0.039,0.308 0.153,0.547 0.512,0.59 l 8.238,0.898 c 0.352,0.039 0.582,-0.16 0.622,-0.469 l 3.832,-34.9215 c 0.039,-0.3203 -0.192,-0.5507 -0.551,-0.5898 l -8.629,-0.9414 c -0.434,-0.0391 -0.82,0.082 -1.051,0.4336 l -14.141,18.9883 -0.359,-0.0391 2.188,-20.2813 c 0.043,-0.3085 -0.149,-0.5781 -0.508,-0.5781 l -8.199,-0.9023 c -0.391,-0.0391 -0.622,0.1211 -0.661,0.4297 l -3.793,34.9218"
         style="fill:#fffffb;fill-opacity:1;fill-rule:nonzero;stroke:none"
         id="path30" />
      <path
         d="m 450.16,106.988 c -0.082,0.313 0.07,0.59 0.43,0.672 l 8.98,2.141 c 0.309,0.078 0.629,-0.031 0.66,-0.352 l 8.25,-34.1404 C 468.59,75 468.398,74.7305 468.051,74.6484 l -8.949,-2.1875 c -0.352,-0.082 -0.622,0.0782 -0.704,0.3907 l -8.238,34.1364"
         style="fill:#fffffb;fill-opacity:1;fill-rule:nonzero;stroke:none"
         id="path32" />
      <path
         d="m 498.98,84.3008 c -0.39,-0.1602 -0.66,-0.1211 -0.89,0.1875 l -24.461,28.2107 c -0.231,0.231 -0.109,0.582 0.281,0.742 l 9.059,3.438 c 0.39,0.152 0.66,0.07 0.902,-0.238 l 14.449,-17.8129 0.16,0.0821 -1.332,22.8088 c 0,0.39 0.153,0.621 0.551,0.781 l 8.981,3.441 c 0.39,0.149 0.66,-0.043 0.66,-0.39 l 0.512,-37.3127 c 0.039,-0.4297 -0.153,-0.6172 -0.512,-0.7774 l -8.36,-3.1601"
         style="fill:#fffffb;fill-opacity:1;fill-rule:nonzero;stroke:none"
         id="path34" />
      <path
         d="m 519.379,131.641 c -0.16,0.269 -0.078,0.589 0.23,0.738 l 22.813,13.012 c 0.308,0.16 0.629,0.121 0.777,-0.192 l 3.403,-5.937 c 0.16,-0.282 0.078,-0.59 -0.231,-0.742 l -14.031,-7.969 c -0.192,-0.121 -0.231,-0.281 -0.11,-0.473 l 2.692,-4.726 c 0.117,-0.192 0.277,-0.231 0.469,-0.122 l 11.488,6.532 c 0.312,0.187 0.621,0.117 0.781,-0.16 l 3.32,-5.821 c 0.149,-0.269 0.04,-0.582 -0.242,-0.742 l -11.519,-6.559 c -0.199,-0.121 -0.239,-0.242 -0.117,-0.429 l 2.847,-5.039 c 0.121,-0.203 0.281,-0.203 0.473,-0.082 l 14.027,7.929 c 0.27,0.192 0.582,0.121 0.742,-0.16 l 3.399,-5.929 c 0.191,-0.282 0.07,-0.59 -0.238,-0.79 l -22.813,-12.96 c -0.309,-0.2 -0.629,-0.122 -0.777,0.152 l -17.383,30.469"
         style="fill:#fffffb;fill-opacity:1;fill-rule:nonzero;stroke:none"
         id="path36" />
      <path
         d="m 579.18,157.852 c -1.45,1.839 -3.75,1.918 -6.059,0.078 l -4.371,-3.481 c -0.16,-0.109 -0.199,-0.269 -0.078,-0.469 l 4.379,-5.5 c 0.109,-0.16 0.269,-0.16 0.429,0 l 4.372,3.43 c 2.308,1.84 2.808,4.11 1.328,5.942 z m 15.55,-18.832 c -0.39,-0.348 -0.671,-0.309 -1.019,-0.11 l -12.422,5.891 -3.008,-2.379 c -0.16,-0.152 -0.191,-0.313 -0.082,-0.473 l 7.461,-9.449 c 0.199,-0.23 0.121,-0.551 -0.148,-0.781 l -7.231,-5.699 c -0.269,-0.239 -0.582,-0.2 -0.781,0.031 l -21.762,27.539 c -0.187,0.281 -0.117,0.551 0.16,0.789 l 12.813,10.152 c 7.23,5.739 14.379,5.199 18.59,-0.152 2.82,-3.559 3.211,-7.899 1.058,-12.039 l 14.34,-6.211 c 0.313,-0.149 0.391,-0.508 0.031,-0.777 l -8,-6.332"
         style="fill:#fffffb;fill-opacity:1;fill-rule:nonzero;stroke:none"
         id="path38" />
      <path
         d="m 613.121,161.09 c -0.351,-0.07 -0.66,0.16 -0.66,0.551 l -0.512,7.738 c -0.039,0.351 0.199,0.582 0.512,0.621 3.051,0.512 6.879,2.109 9.57,5.039 2.539,2.731 2.848,5.121 1.367,6.481 -1.128,1.058 -2.66,0.902 -5.668,-1.68 l -1.64,-1.36 c -6.711,-5.628 -12.5,-6.718 -17.461,-2.109 -4.918,4.57 -4.289,11.91 1.883,18.59 3.789,4.059 8.437,6.84 12.648,7.809 0.36,0.082 0.59,-0.04 0.668,-0.43 l 1.25,-7.18 c 0.043,-0.359 -0.117,-0.629 -0.43,-0.75 -3.168,-0.89 -5.976,-2.422 -8.128,-4.762 -1.989,-2.187 -2.071,-4.097 -0.782,-5.308 1.172,-1.059 2.782,-0.82 5.711,1.711 l 1.641,1.371 c 6.789,5.699 12.379,6.598 17.422,1.957 4.918,-4.539 4.648,-12.039 -2.621,-19.891 -4.45,-4.84 -10.782,-7.968 -14.77,-8.398"
         style="fill:#fffffb;fill-opacity:1;fill-rule:nonzero;stroke:none"
         id="path40" />
      <path
         d="m 621.328,218.16 c -0.238,0.199 -0.277,0.512 -0.078,0.789 l 5.391,7.5 c 0.238,0.27 0.507,0.352 0.781,0.153 l 28.476,-20.473 c 0.274,-0.188 0.313,-0.508 0.122,-0.777 l -5.399,-7.5 c -0.191,-0.274 -0.5,-0.352 -0.781,-0.153 l -28.512,20.461"
         style="fill:#fffffb;fill-opacity:1;fill-rule:nonzero;stroke:none"
         id="path42" />
      <path
         d="m 672.148,230.859 -0.078,-0.16 c -0.082,-0.109 -0.16,-0.109 -0.269,-0.187 -0.082,0 -0.16,-0.043 -0.281,0 l -0.11,0.078 -23.64,13.082 c -0.149,0.078 -0.27,0.039 -0.43,-0.121 v -0.031 l -4.801,-8.641 -0.078,-0.149 c -0.039,-0.121 -0.121,-0.16 -0.191,-0.16 l -0.079,-0.039 c 0,0 -0.043,0.039 -0.082,0 -0.121,0 -0.199,0.039 -0.308,0.078 l -6.289,3.512 c -0.242,0.117 -0.352,0.399 -0.282,0.629 l 0.079,0.121 14.921,27.027 c 0.079,0.153 0.161,0.231 0.321,0.313 0,0 0.07,0 0.109,-0.039 0.078,0.039 0.199,0.039 0.32,0 l 6.29,-3.512 c 0.152,-0.082 0.269,-0.199 0.269,-0.359 0.039,-0.071 0.039,-0.192 0,-0.313 l -0.078,-0.109 -4.762,-8.641 c -0.039,-0.117 -0.078,-0.148 -0.078,-0.226 -0.043,-0.043 0.039,-0.082 0.039,-0.16 l 0.149,-0.082 23.601,-13.079 0.149,-0.082 c 0.121,-0.121 0.121,-0.199 0.121,-0.39 0.039,-0.078 0,-0.199 -0.078,-0.27 l -4.454,-8.09"
         style="fill:#fffffb;fill-opacity:1;fill-rule:nonzero;stroke:none"
         id="path44" />
      <path
         d="m 693.398,275.66 c -0.117,-0.308 -0.386,-0.461 -0.699,-0.351 l -12.621,4.652 -24.418,-3.981 c -0.351,-0.039 -0.539,0.231 -0.39,0.622 l 3.171,8.707 c 0.149,0.39 0.43,0.632 0.821,0.711 l 13.898,2.07 0.078,0.148 -9.289,10.473 c -0.277,0.309 -0.32,0.699 -0.16,1.059 l 3.121,8.55 c 0.16,0.43 0.469,0.469 0.711,0.231 l 16.051,-18.86 12.578,-4.613 c 0.309,-0.117 0.43,-0.43 0.309,-0.738 l -3.161,-8.68"
         style="fill:#fffffb;fill-opacity:1;fill-rule:nonzero;stroke:none"
         id="path46" />
      <path
         d="m 539.18,286.602 c -8.981,4.019 -18.399,7.378 -33.668,16.679 -42.973,26.207 -56.024,65.199 -31.883,133.168 13.992,39.371 20.711,72.571 17.269,108.391 -0.507,0.359 -0.976,0.629 -1.488,0.98 -2.262,-45 -18.82,-72.968 -48.551,-120.308 -62.929,-100.313 0.981,-173.832 31.332,-196.684 26.758,13.473 49.758,33.402 66.989,57.774"
         style="fill:#fffffb;fill-opacity:1;fill-rule:nonzero;stroke:none"
         id="path48" />
      <path
         d="m 411.719,429.18 c 48.511,57.109 64.301,83.48 67.582,122.769 -0.512,0.281 -1.063,0.59 -1.571,0.903 -11.25,-47.032 -39.449,-71.954 -113.75,-121.442 -80.031,-53.32 -76.441,-144.961 -56.05,-202 24.8,-12.73 52.89,-19.961 82.691,-19.961 6.367,0 12.66,0.321 18.828,0.981 -57.808,87.66 -53.75,152.808 2.27,218.75"
         style="fill:#fffffb;fill-opacity:1;fill-rule:nonzero;stroke:none"
         id="path50" />
      <path
         d="m 382.031,471.328 c 53.59,23.242 79.02,58.594 86.367,86.25 -0.468,0.231 -0.937,0.434 -1.41,0.66 C 443.629,509.41 397.07,501.289 317.422,490.59 270.199,484.262 233.48,457.23 211.289,423.75 c -1.758,-10.23 -2.738,-20.738 -2.738,-31.48 0,-43.52 15.199,-83.481 40.469,-114.848 -2.258,136.68 68.75,166.058 133.011,193.906"
         style="fill:#fffffb;fill-opacity:1;fill-rule:nonzero;stroke:none"
         id="path52" />
      <g
         id="g54"
         transform="scale(10)">
        <text
           xml:space="preserve"
           transform="matrix(0.42650569,0.91062939,0.88043834,-0.41322404,11.4305,48.757)"
           style="font-variant:normal;font-weight:300;font-size:5.15734px;font-family:DINAlternate;-inkscape-font-specification:DINAlternate-Light;writing-mode:lr-tb;fill:#ffffff;fill-opacity:1;fill-rule:nonzero;stroke:none"
           id="text58"><tspan
             x="0"
             y="0"
             id="tspan56">S</tspan></text>
        <text
           xml:space="preserve"
           transform="matrix(0.53492102,0.8507418,0.81910794,-0.52558386,13.1352,52.257)"
           style="font-variant:normal;font-weight:300;font-size:5.15734px;font-family:DINAlternate;-inkscape-font-specification:DINAlternate-Light;writing-mode:lr-tb;fill:#ffffff;fill-opacity:1;fill-rule:nonzero;stroke:none"
           id="text62"><tspan
             x="0"
             y="0"
             id="tspan60">T</tspan></text>
        <text
           xml:space="preserve"
           transform="matrix(0.64182247,0.77095103,0.73833761,-0.63689442,15.0988,55.3223)"
           style="font-variant:normal;font-weight:300;font-size:5.15734px;font-family:DINAlternate;-inkscape-font-specification:DINAlternate-Light;writing-mode:lr-tb;fill:#ffffff;fill-opacity:1;fill-rule:nonzero;stroke:none"
           id="text66"><tspan
             x="0"
             y="0"
             id="tspan64">U</tspan></text>
        <text
           xml:space="preserve"
           transform="matrix(0.74399617,0.66823725,0.63525304,-0.74394823,17.9625,58.6629)"
           style="font-variant:normal;font-weight:300;font-size:5.15735px;font-family:DINAlternate;-inkscape-font-specification:DINAlternate-Light;writing-mode:lr-tb;fill:#ffffff;fill-opacity:1;fill-rule:nonzero;stroke:none"
           id="text70"><tspan
             x="0"
             y="0"
             id="tspan68">D</tspan></text>
        <text
           xml:space="preserve"
           transform="matrix(0.82476283,0.5588325,0.52615948,-0.82928056,21.2344,61.5047)"
           style="font-variant:normal;font-weight:300;font-size:5.15735px;font-family:DINAlternate;-inkscape-font-specification:DINAlternate-Light;writing-mode:lr-tb;fill:#ffffff;fill-opacity:1;fill-rule:nonzero;stroke:none"
           id="text74"><tspan
             x="0"
             y="0"
             id="tspan72">E</tspan></text>
        <text
           xml:space="preserve"
           transform="matrix(0.8909778,0.43573045,0.40402708,-0.9000772,24.4902,63.6691)"
           style="font-variant:normal;font-weight:300;font-size:5.15734px;font-family:DINAlternate;-inkscape-font-specification:DINAlternate-Light;writing-mode:lr-tb;fill:#ffffff;fill-opacity:1;fill-rule:nonzero;stroke:none"
           id="text78"><tspan
             x="0"
             y="0"
             id="tspan76">N</tspan></text>
        <text
           xml:space="preserve"
           transform="matrix(0.93744395,0.30996204,0.27978128,-0.95074893,28.6668,65.6102)"
           style="font-variant:normal;font-weight:300;font-size:5.15735px;font-family:DINAlternate;-inkscape-font-specification:DINAlternate-Light;writing-mode:lr-tb;fill:#ffffff;fill-opacity:1;fill-rule:nonzero;stroke:none"
           id="text82"><tspan
             x="0"
             y="0"
             id="tspan80">T</tspan></text>
        <text
           xml:space="preserve"
           transform="matrix(0.97420232,0.11646024,0.08949413,-0.99319536,34.15,67.1441)"
           style="font-variant:normal;font-weight:300;font-size:5.15734px;font-family:DINAlternate;-inkscape-font-specification:DINAlternate-Light;writing-mode:lr-tb;fill:#ffffff;fill-opacity:1;fill-rule:nonzero;stroke:none"
           id="text86"><tspan
             x="0"
             y="0"
             id="tspan84">R</tspan></text>
        <text
           xml:space="preserve"
           transform="matrix(0.9774799,-0.0159315,-0.04014803,-0.99987309,38.2809,67.5715)"
           style="font-variant:normal;font-weight:300;font-size:5.15734px;font-family:DINAlternate;-inkscape-font-specification:DINAlternate-Light;writing-mode:lr-tb;fill:#ffffff;fill-opacity:1;fill-rule:nonzero;stroke:none"
           id="text90"><tspan
             x="0"
             y="0"
             id="tspan88">E</tspan></text>
        <text
           xml:space="preserve"
           transform="matrix(0.96403299,-0.14537923,-0.16648939,-0.989376,42.1133,67.4598)"
           style="font-variant:normal;font-weight:300;font-size:5.15734px;font-family:DINAlternate;-inkscape-font-specification:DINAlternate-Light;writing-mode:lr-tb;fill:#ffffff;fill-opacity:1;fill-rule:nonzero;stroke:none"
           id="text94"><tspan
             x="0"
             y="0"
             id="tspan92">P</tspan></text>
        <text
           xml:space="preserve"
           transform="matrix(0.93334974,-0.27559758,-0.29315156,-0.9612731,46.0512,66.8117)"
           style="font-variant:normal;font-weight:300;font-size:5.15734px;font-family:DINAlternate;-inkscape-font-specification:DINAlternate-Light;writing-mode:lr-tb;fill:#ffffff;fill-opacity:1;fill-rule:nonzero;stroke:none"
           id="text98"><tspan
             x="0"
             y="0"
             id="tspan96">O</tspan></text>
        <text
           xml:space="preserve"
           transform="matrix(0.8860699,-0.40099327,-0.41467801,-0.916081,49.9598,65.5992)"
           style="font-variant:normal;font-weight:300;font-size:5.15735px;font-family:DINAlternate;-inkscape-font-specification:DINAlternate-Light;writing-mode:lr-tb;fill:#ffffff;fill-opacity:1;fill-rule:nonzero;stroke:none"
           id="text102"><tspan
             x="0"
             y="0"
             id="tspan100">R</tspan></text>
        <text
           xml:space="preserve"
           transform="matrix(0.82735011,-0.51225239,-0.52208199,-0.85883496,53.6813,63.8367)"
           style="font-variant:normal;font-weight:300;font-size:5.15734px;font-family:DINAlternate;-inkscape-font-specification:DINAlternate-Light;writing-mode:lr-tb;fill:#ffffff;fill-opacity:1;fill-rule:nonzero;stroke:none"
           id="text106"><tspan
             x="0"
             y="0"
             id="tspan104">T</tspan></text>
      </g>
    </g>
  </g>
</svg>
