<svg xmlns="http://www.w3.org/2000/svg" xmlns:xlink="http://www.w3.org/1999/xlink" width="1122.52" height="631.417" viewBox="0 0 841.89 473.563"><path d="M0 0h841.89v473.563H0z" fill="#fff"/><path d="M0 0h841.89v45.354H0z" fill="#3059ab"/><symbol id="a"><path d="M.308.724C.118.724 0 .588 0 .362 0 .131.118 0 .308 0s.307.135.307.362c0 .232-.117.362-.307.362m0-.11C.407.614.46.543.46.362S.407.11.308.11C.212.11.155.181.155.362S.21.614.308.614z"/></symbol><symbol id="b"><path d="M.439.546H.297V.175C.272.132.239.106.2.106S.142.125.142.183v.363H0V.165C0 .063.05 0 .148 0c.071 0 .123.028.161.087L.316.016h.123v.53z"/></symbol><symbol id="c"><path d="M.334.131a.124.124 0 0 0-.06-.018c-.036 0-.053.02-.053.072v.261h.108l.014.1H.221v.133L.079.662V.546H0v-.1h.079V.182C.079.064.135.001.245 0a.25.25 0 0 1 .138.041l-.049.09z"/></symbol><symbol id="d"><path d="M.137 0c.036 0 .068.008.091.018L.199.119A.06.06 0 0 0 .171.113c-.02 0-.029.012-.029.035v.625L0 .757V.144C0 .052.051 0 .137 0z"/></symbol><symbol id="e"><path d="M.086.803C.035.803 0 .767 0 .72 0 .673.035.637.086.637c.051 0 .087.036.087.083 0 .047-.036.083-.087.083M.158.53H.016V0h.142v.53z"/></symbol><symbol id="f"><path d="M.296.546A.2.2 0 0 1 .134.463L.123.53H0V0h.142v.366C.171.413.203.44.244.44.28.44.302.423.302.362V0h.142v.386c0 .1-.055.16-.148.16z"/></symbol><symbol id="g"><path d="M.48.293C.48.462.391.562.241.562.086.562 0 .438 0 .278 0 .112.089 0 .259 0 .342 0 .408.03.46.072l-.059.08A.215.215 0 0 0 .272.106c-.068 0-.116.03-.126.132h.331L.48.293M.339.327H.146c.007.1.042.138.098.138.068 0 .095-.052.095-.132V.327z"/></symbol><symbol id="h"><path d="M.344.773V.509a.182.182 0 0 1-.129.053C.084.562 0 .445 0 .281 0 .112.068 0 .201 0c.071 0 .12.035.152.081L.361.016h.125v.741L.344.773M.243.106C.186.106.148.148.148.281c0 .124.042.176.104.176.039 0 .066-.019.092-.05V.17C.316.128.286.106.243.106z"/></symbol><symbol id="i"><path d="M0 0z"/></symbol><symbol id="j"><path d="M.235.562C.107.562.025.494.025.404c0-.08.05-.133.157-.163C.28.214.299.201.299.161.299.125.265.103.212.103A.233.233 0 0 0 .07.155L0 .077A.314.314 0 0 1 .216 0c.126 0 .229.062.229.172 0 .094-.06.138-.166.167C.186.366.168.38.168.411c0 .029.026.048.073.048A.245.245 0 0 0 .373.417l.054.081a.302.302 0 0 1-.192.064z"/></symbol><use xlink:href="#a" transform="matrix(24 0 0 -24 20.755 31.365)" fill="#fff"/><use xlink:href="#b" transform="matrix(24 0 0 -24 37.987 31.365)" fill="#fff"/><use xlink:href="#c" transform="matrix(24 0 0 -24 50.299 31.365)" fill="#fff"/><use xlink:href="#d" transform="matrix(24 0 0 -24 60.643 31.365)" fill="#fff"/><use xlink:href="#e" transform="matrix(24 0 0 -24 67.483 30.981)" fill="#fff"/><use xlink:href="#f" transform="matrix(24 0 0 -24 74.635 30.981)" fill="#fff"/><use xlink:href="#g" transform="matrix(24 0 0 -24 87.763 31.365)" fill="#fff"/><use xlink:href="#h" transform="matrix(24 0 0 -24 101.107 31.365)" fill="#fff"/><use xlink:href="#i" transform="matrix(24 0 0 -24 114.45 30.981)" fill="#fff"/><use xlink:href="#j" transform="matrix(24 0 0 -24 120.57 31.365)" fill="#fff"/><use xlink:href="#d" transform="matrix(24 0 0 -24 133.363 31.365)" fill="#fff"/><use xlink:href="#e" transform="matrix(24 0 0 -24 140.203 30.981)" fill="#fff"/><use xlink:href="#h" transform="matrix(24 0 0 -24 146.707 31.365)" fill="#fff"/><use xlink:href="#g" transform="matrix(24 0 0 -24 160.963 31.365)" fill="#fff"/><symbol id="k"><path d="M.425.689H0V.581h.278L.048.043.177 0l.248.591v.098z"/></symbol><symbol id="l"><path d="M.235.924 0 .029.124 0l.234.896-.123.028z"/></symbol><symbol id="m"><path d="M.242.714C.107.714 0 .625 0 .484 0 .347.086.263.191.263c.065 0 .11.028.142.069C.311.204.22.143.05.101L.08 0c.279.062.405.177.405.453 0 .154-.082.261-.243.261M.232.365c-.05 0-.09.032-.09.123 0 .081.039.123.1.123.071 0 .1-.048.098-.182C.312.388.275.365.232.365z"/></symbol><use xlink:href="#k" transform="matrix(12 0 0 -12 800.81 27.01)" fill="#fff"/><use xlink:href="#i" transform="matrix(12 0 0 -12 806.162 26.83)" fill="#fff"/><use xlink:href="#l" transform="matrix(12 0 0 -12 810.062 28.15)" fill="#fff"/><use xlink:href="#i" transform="matrix(12 0 0 -12 815.33 26.83)" fill="#fff"/><use xlink:href="#m" transform="matrix(12 0 0 -12 818.63 27.153)" fill="#fff"/><symbol id="n"><path d="M.103.207A.1.1 0 0 1 0 .104C0 .045.044 0 .103 0a.1.1 0 0 1 .103.103.101.101 0 0 1-.103.104z"/></symbol><use xlink:href="#n" transform="matrix(20 0 0 -20 46.454 113.606)"/><symbol id="o"><path d="M.284.712C.128.712 0 .59 0 .356 0 .125.12 0 .285 0 .376 0 .44.037.479.076L.436.131A.23.23 0 0 0 .288.074c-.11 0-.196.081-.196.282 0 .211.089.284.197.284C.339.64.38.624.424.589l.047.056a.267.267 0 0 1-.187.067z"/></symbol><symbol id="p"><path d="M.244.538a.194.194 0 0 1-.16-.087v.296L0 .737V0h.084v.376C.12.433.163.472.223.472.277.472.311.446.311.365V0h.084v.377c0 .099-.056.161-.151.161z"/></symbol><symbol id="q"><path d="M.43.292C.43.451.357.55.216.55.082.55 0 .435 0 .27 0 .103.085 0 .23 0a.28.28 0 0 1 .181.066l-.037.05A.224.224 0 0 0 .236.069c-.08 0-.138.05-.147.177h.339A.536.536 0 0 1 .43.292M.347.308H.089c.007.123.056.175.129.175.087 0 .129-.061.129-.167V.308z"/></symbol><symbol id="r"><path d="M.228.55C.087.55 0 .439 0 .271 0 .101.088 0 .228 0c.06 0 .113.02.158.058L.347.113A.189.189 0 0 0 .231.072c-.086 0-.141.06-.141.2C.09.413.145.48.231.48A.179.179 0 0 0 .345.441l.041.053A.23.23 0 0 1 .228.55z"/></symbol><symbol id="s"><path d="M.084.748 0 .738V0h.084v.748m.3-.222H.29L.09.287.306 0h.101L.184.293l.2.233z"/></symbol><symbol id="t"><path d="M0 0z"/></symbol><symbol id="u"><path d="M.232.55C.085.55 0 .439 0 .274 0 .107.084 0 .231 0c.147 0 .232.111.232.276C.463.444.38.55.232.55m0-.068C.323.482.373.415.373.276.373.135.322.068.231.068S.09.135.09.274c0 .141.052.208.142.208z"/></symbol><symbol id="v"><path d="M.391.538H.307V.161C.274.106.23.067.17.067.11.067.084.095.084.17v.368H0V.161C0 .058.054 0 .147 0c.076 0 .126.033.165.097L.319.012h.072v.526z"/></symbol><symbol id="w"><path d="M.314.092A.14.14 0 0 0 .241.07C.194.07.175.096.175.151v.322h.118l.009.065H.175v.13L.091.659V.538H0V.473h.091V.147C.091.051.143 0 .23 0c.044 0 .082.012.116.035L.314.092z"/></symbol><use xlink:href="#o" transform="matrix(20 0 0 -20 62.814 118.726)"/><use xlink:href="#p" transform="matrix(20 0 0 -20 74.574 118.486)"/><use xlink:href="#q" transform="matrix(20 0 0 -20 85.494 118.726)"/><use xlink:href="#r" transform="matrix(20 0 0 -20 96.354 118.726)"/><use xlink:href="#s" transform="matrix(20 0 0 -20 106.654 118.486)"/><use xlink:href="#t" transform="matrix(20 0 0 -20 114.814 118.486)"/><use xlink:href="#u" transform="matrix(20 0 0 -20 121.354 118.726)"/><use xlink:href="#v" transform="matrix(20 0 0 -20 133.654 118.726)"/><use xlink:href="#w" transform="matrix(20 0 0 -20 143.634 118.726)"/><use xlink:href="#t" transform="matrix(20 0 0 -20 150.534 118.486)"/><use xlink:href="#w" transform="matrix(20 0 0 -20 156.114 118.726)"/><use xlink:href="#p" transform="matrix(20 0 0 -20 164.974 118.486)"/><use xlink:href="#q" transform="matrix(20 0 0 -20 175.894 118.726)"/><use xlink:href="#t" transform="matrix(20 0 0 -20 185.574 118.486)"/><symbol id="x"><path d="M.3.77A.193.193 0 0 1 .147.694L.139.753H0V0l.158.017V.26A.166.166 0 0 1 .287.205c.131 0 .211.12.211.284C.498.661.437.77.3.77M.239.321C.206.321.18.336.158.368v.224C.181.631.213.654.25.654.302.654.334.619.334.487.334.368.298.321.239.321z"/></symbol><symbol id="y"><path d="M.288.546C.227.546.175.502.151.428L.138.531H0V0h.158v.263c.017.081.044.13.11.13A.192.192 0 0 0 .316.386l.025.153a.179.179 0 0 1-.053.007z"/></symbol><symbol id="z"><path d="M.26.565C.098.565 0 .453 0 .283 0 .104.099 0 .26 0c.162 0 .26.112.26.282C.52.461.422.565.26.565m0-.116C.324.449.356.4.356.282.356.167.324.116.26.116S.164.165.164.283c0 .115.032.166.096.166z"/></symbol><symbol id="A"><path d="M.508.839A.42.42 0 0 0 .258.77C.119.77.025.696.025.576.025.507.052.46.12.424.082.4.057.361.057.322.057.265.104.217.22.217h.077C.35.217.373.196.373.165c0-.034-.022-.06-.115-.06-.096 0-.116.02-.116.066H0C0 .066.053 0 .254 0c.182 0 .278.067.278.176C.532.265.453.33.329.33h-.08C.198.33.191.346.191.362c0 .012.006.024.017.03A.293.293 0 0 1 .269.386c.138 0 .223.075.223.178 0 .069-.033.108-.1.137.067 0 .116.006.153.021L.508.839M.262.666c.053 0 .08-.027.08-.086C.342.519.314.488.262.488c-.048 0-.08.032-.08.09 0 .055.031.088.08.088z"/></symbol><symbol id="B"><path d="M.493.293C.493.465.4.565.248.565.087.565 0 .439 0 .28 0 .114.09 0 .267 0c.086 0 .154.032.207.074L.409.162A.215.215 0 0 0 .282.115c-.065 0-.11.026-.121.121H.49a.53.53 0 0 1 .003.057M.338.331H.161C.168.426.199.46.252.46.315.46.337.41.338.338V.331z"/></symbol><symbol id="C"><path d="M.243.565C.109.565.026.494.026.403c0-.082.052-.136.157-.166C.279.21.295.199.295.163c0-.032-.029-.05-.077-.05a.233.233 0 0 0-.141.052L0 .079A.33.33 0 0 1 .222 0c.132 0 .236.065.236.175C.458.27.399.314.294.344.199.372.185.384.185.412c0 .024.021.04.064.04.046 0 .09-.015.131-.041L.438.5a.309.309 0 0 1-.195.065z"/></symbol><symbol id="D"><path d="M0 0z"/></symbol><symbol id="E"><path d="M.301.565A.175.175 0 0 1 .158.494v.282L0 .759V.017h.14l.008.051A.17.17 0 0 1 .287 0c.132 0 .211.118.211.282 0 .178-.07.283-.197.283m-.06-.45C.207.115.178.134.158.166v.221c.023.039.054.062.09.062.05 0 .086-.032.086-.167C.334.158.296.115.241.115z"/></symbol><symbol id="F"><path d="M.458.171v.206C.458.5.392.565.238.565a.6.6 0 0 1-.2-.039L.074.422A.478.478 0 0 0 .213.45c.065 0 .09-.019.09-.082V.345H.249C.088.345 0 .282 0 .166 0 .069.067 0 .173 0c.063 0 .122.021.16.08C.357.027.398.008.461.003l.033.103C.469.115.458.13.458.171M.219.113C.18.113.157.138.157.18c0 .053.035.078.107.078h.039V.164A.095.095 0 0 0 .219.113z"/></symbol><use xlink:href="#x" transform="matrix(20 0 0 -20 192.174 122.926)"/><use xlink:href="#y" transform="matrix(20 0 0 -20 204.114 118.486)"/><use xlink:href="#z" transform="matrix(20 0 0 -20 210.934 118.826)"/><use xlink:href="#A" transform="matrix(20 0 0 -20 222.094 122.926)"/><use xlink:href="#y" transform="matrix(20 0 0 -20 234.234 118.486)"/><use xlink:href="#B" transform="matrix(20 0 0 -20 241.054 118.826)"/><use xlink:href="#C" transform="matrix(20 0 0 -20 251.574 118.826)"/><use xlink:href="#C" transform="matrix(20 0 0 -20 261.094 118.826)"/><use xlink:href="#D" transform="matrix(20 0 0 -20 270.634 118.486)"/><use xlink:href="#E" transform="matrix(20 0 0 -20 276.614 118.826)"/><use xlink:href="#F" transform="matrix(20 0 0 -20 287.634 118.826)"/><use xlink:href="#y" transform="matrix(20 0 0 -20 299.314 118.486)"/><symbol id="G"><path d="M.398.133v.244C.398.486.341.55.216.55A.491.491 0 0 1 .038.514L.059.452a.442.442 0 0 0 .142.029c.076 0 .113-.03.113-.108V.331H.228C.084.331 0 .271 0 .159 0 .065.062 0 .166 0a.18.18 0 0 1 .158.081C.338.028.371.007.422 0l.02.059C.414.069.398.084.398.133M.185.064C.122.064.089.099.089.163c0 .075.052.112.15.112h.075V.15C.284.093.242.064.185.064z"/></symbol><symbol id="H"><path d="M.235.55A.18.18 0 0 1 .084.471V.76L0 .75V.012h.073l.009.059A.18.18 0 0 1 .224 0c.128 0 .205.11.205.276C.429.451.354.55.235.55M.205.067c-.05 0-.093.03-.121.073v.259c.028.044.068.084.128.084.077 0 .127-.056.127-.207C.339.13.285.067.205.067z"/></symbol><symbol id="I"><path d="M.524.538C.453.538.403.498.365.44a.131.131 0 0 1-.132.098C.165.538.116.501.079.447L.072.526H0V0h.084v.375C.12.433.155.472.213.472.256.472.29.446.29.365V0h.084v.375c.037.058.071.097.13.097.043 0 .077-.026.077-.107V0h.084v.377C.665.476.61.538.524.538z"/></symbol><symbol id="J"><path d="M.258.68A.226.226 0 0 0 .351.66l.027.061a.286.286 0 0 1-.125.027C.15.748.093.688.093.601V.526H0V.461h.093V0h.084v.461h.121l.009.065h-.13v.076c0 .053.022.078.081.078z"/></symbol><symbol id="K"><path d="M.209.55C.102.55.023.49.023.407c0-.074.045-.121.158-.151C.285.228.312.208.312.153.312.1.265.068.195.068a.243.243 0 0 0-.15.052L0 .069A.287.287 0 0 1 .197 0C.303 0 .4.051.4.158.4.25.338.292.227.321.14.344.11.364.11.409s.04.074.102.074c.05 0 .09-.015.137-.046L.385.49a.275.275 0 0 1-.176.06z"/></symbol><symbol id="L"><path d="M.105 0c.026 0 .051.007.07.017L.153.076A.09.09 0 0 0 .119.07C.094.07.084.085.084.114V.76L0 .75V.112C0 .039.041 0 .105 0z"/></symbol><symbol id="M"><path d="M.059.774A.056.056 0 0 1 0 .716C0 .683.024.658.059.658c.036 0 .06.025.06.058S.095.774.059.774M.102.526H.018V0h.084v.526z"/></symbol><symbol id="N"><path d="M.349.76V.484A.19.19 0 0 1 .206.55C.077.55 0 .434 0 .273 0 .108.071 0 .198 0c.067 0 .12.034.153.086L.36.012h.073V.75L.349.76M.215.067C.136.067.09.134.09.274c0 .14.052.209.134.209.055 0 .093-.028.125-.071V.15C.314.097.276.067.215.067z"/></symbol><symbol id="O"><path d="M.064.129A.064.064 0 0 1 0 .065C0 .029.028 0 .064 0c.038 0 .065.029.065.065a.063.063 0 0 1-.065.064z"/></symbol><use xlink:href="#t" transform="matrix(20 0 0 -20 306.094 118.486)"/><use xlink:href="#G" transform="matrix(20 0 0 -20 312.414 118.726)"/><use xlink:href="#w" transform="matrix(20 0 0 -20 322.514 118.726)"/><use xlink:href="#t" transform="matrix(20 0 0 -20 329.414 118.486)"/><use xlink:href="#w" transform="matrix(20 0 0 -20 334.994 118.726)"/><use xlink:href="#p" transform="matrix(20 0 0 -20 343.854 118.486)"/><use xlink:href="#q" transform="matrix(20 0 0 -20 354.774 118.726)"/><use xlink:href="#t" transform="matrix(20 0 0 -20 364.454 118.486)"/><use xlink:href="#H" transform="matrix(20 0 0 -20 371.774 118.726)"/><use xlink:href="#u" transform="matrix(20 0 0 -20 382.814 118.726)"/><use xlink:href="#w" transform="matrix(20 0 0 -20 393.474 118.726)"/><use xlink:href="#w" transform="matrix(20 0 0 -20 400.594 118.726)"/><use xlink:href="#u" transform="matrix(20 0 0 -20 408.394 118.726)"/><use xlink:href="#I" transform="matrix(20 0 0 -20 420.794 118.486)"/><use xlink:href="#t" transform="matrix(20 0 0 -20 435.954 118.486)"/><use xlink:href="#u" transform="matrix(20 0 0 -20 442.494 118.726)"/><use xlink:href="#J" transform="matrix(20 0 0 -20 453.194 118.486)"/><use xlink:href="#t" transform="matrix(20 0 0 -20 459.574 118.486)"/><use xlink:href="#w" transform="matrix(20 0 0 -20 465.154 118.726)"/><use xlink:href="#p" transform="matrix(20 0 0 -20 474.014 118.486)"/><use xlink:href="#q" transform="matrix(20 0 0 -20 484.934 118.726)"/><use xlink:href="#t" transform="matrix(20 0 0 -20 494.614 118.486)"/><use xlink:href="#K" transform="matrix(20 0 0 -20 500.534 118.726)"/><use xlink:href="#L" transform="matrix(20 0 0 -20 511.154 118.726)"/><use xlink:href="#M" transform="matrix(20 0 0 -20 516.714 118.486)"/><use xlink:href="#N" transform="matrix(20 0 0 -20 521.974 118.726)"/><use xlink:href="#q" transform="matrix(20 0 0 -20 533.774 118.726)"/><use xlink:href="#O" transform="matrix(20 0 0 -20 544.274 118.726)"/><symbol id="P"><path d="M.371.542V.454a.342.342 0 0 1-.078.034.287.287 0 0 1-.08.011.167.167 0 0 1-.09-.02C.103.466.093.446.093.419.093.395.1.376.115.364A.306.306 0 0 1 .227.33L.263.322a.175.175 0 0 0 .101-.05.142.142 0 0 0 .035-.1A.153.153 0 0 0 .34.045.253.253 0 0 0 .181 0a.438.438 0 0 0-.085.009A.746.746 0 0 0 0 .034v.093a.533.533 0 0 1 .096-.04.326.326 0 0 1 .087-.012c.04 0 .07.008.092.024a.08.08 0 0 1 .033.068c0 .042-.04.07-.12.086L.185.254.15.261a.216.216 0 0 0-.113.051.134.134 0 0 0-.036.098c0 .053.018.093.053.121a.236.236 0 0 0 .152.043.42.42 0 0 0 .164-.032z"/></symbol><symbol id="Q"><path d="M.418.339V0h-.09v.339c0 .049-.009.085-.026.108C.285.47.257.482.22.482A.115.115 0 0 1 .124.437.209.209 0 0 1 .09.309V0H0v.76h.09V.465a.168.168 0 0 0 .065.07C.182.553.215.56.252.56.308.56.349.542.376.505.404.468.418.413.418.339z"/></symbol><symbol id="R"><path d="M.234.498A.116.116 0 0 1 .13.445.288.288 0 0 1 .095.287.29.29 0 0 1 .13.13.116.116 0 0 1 .234.076c.046 0 .08.018.104.053a.29.29 0 0 1 .035.158c0 .07-.012.122-.035.158a.117.117 0 0 1-.104.053m0 .076C.31.574.368.55.408.5c.04-.049.06-.12.06-.213a.332.332 0 0 0-.06-.214C.368.024.31 0 .234 0 .158 0 .1.024.06.073.02.123 0 .193 0 .287 0 .38.02.451.06.5.1.55.158.574.234.574z"/></symbol><symbol id="S"><path d="M0 .547h.089L.184.105l.078.282H.34L.418.105l.095.442h.09L.473 0H.388L.301.3.214 0H.128L0 .547z"/></symbol><symbol id="T"><path d="M0 .08h.254V0H0v.08z"/></symbol><symbol id="U"><path d="M.09.277V0H0v.755h.09v-.07a.155.155 0 0 0 .06.062.171.171 0 0 0 .086.021.182.182 0 0 0 .156-.077A.351.351 0 0 0 .448.48a.344.344 0 0 0-.056-.21.183.183 0 0 0-.156-.075.152.152 0 0 0-.146.083M.354.48c0 .07-.011.122-.033.158a.107.107 0 0 1-.098.053.11.11 0 0 1-.099-.054A.297.297 0 0 1 .09.481C.09.411.102.36.124.324a.11.11 0 0 1 .1-.054C.265.27.298.288.32.323a.302.302 0 0 1 .033.158z"/></symbol><symbol id="V"><path d="M.387.434A.203.203 0 0 1 .33.467a.2.2 0 0 1-.066.01C.207.477.164.46.135.424.105.39.09.338.09.272V0H0v.547h.09V.44a.181.181 0 0 0 .18.12.198.198 0 0 0 .117-.034V.434z"/></symbol><symbol id="W"><path d="M.359.493a.288.288 0 0 1-.033.153.106.106 0 0 1-.096.053.113.113 0 0 1-.1-.053.278.278 0 0 1-.035-.153c0-.068.011-.12.034-.155A.115.115 0 0 1 .231.286c.041 0 .073.017.095.053a.293.293 0 0 1 .033.154M.449.25C.449.168.429.106.39.063.35.021.295 0 .22 0A.467.467 0 0 0 .06.027v.089A.553.553 0 0 1 .148.083.272.272 0 0 1 .22.072c.048 0 .084.013.106.04.022.026.033.068.033.125V.3A.153.153 0 0 0 .3.234.171.171 0 0 0 .21.211a.181.181 0 0 0-.153.077A.335.335 0 0 0 0 .493c0 .086.019.154.057.205A.181.181 0 0 0 .21.775.177.177 0 0 0 .3.754.155.155 0 0 0 .358.689v.07h.09V.25z"/></symbol><symbol id="X"><path d="M.483.31V.266h-.39V.263C.094.203.11.158.14.125A.174.174 0 0 1 .272.076a.32.32 0 0 1 .09.014c.031.009.064.023.1.041V.042A.587.587 0 0 0 .27 0a.26.26 0 0 0-.2.076A.296.296 0 0 0 0 .287a.3.3 0 0 0 .07.21.24.24 0 0 0 .188.077c.07 0 .124-.023.164-.07A.288.288 0 0 0 .482.31M.394.336a.186.186 0 0 1-.038.12C.332.485.298.499.254.499A.143.143 0 0 1 .147.455a.193.193 0 0 1-.05-.12l.296.001z"/></symbol><symbol id="Y"><path d="M0 .519h.123V.371H0V.52m0-.37h.123V0H0v.149z"/></symbol><symbol id="Z"><path d="M0 0z"/></symbol><symbol id="aa"><path d="M.236.702V.547H.44v-.07H.236V.18c0-.04.007-.068.023-.084C.274.08.3.072.339.072h.1V0H.33C.263 0 .215.014.187.04.16.069.146.115.146.18v.297H0v.07h.146v.155h.09z"/></symbol><symbol id="ab"><path d="M0 .221v.34h.09V.22C.09.172.098.136.116.113.133.09.16.078.196.078c.043 0 .075.015.098.045A.21.21 0 0 1 .328.25v.31h.09V.013h-.09v.082A.17.17 0 0 0 .166 0C.11 0 .068.018.041.055.014.09 0 .147 0 .22z"/></symbol><use xlink:href="#P" transform="matrix(16 0 0 -16 91.665 154.87)"/><use xlink:href="#Q" transform="matrix(16 0 0 -16 101.156 154.643)"/><use xlink:href="#R" transform="matrix(16 0 0 -16 110.335 154.87)"/><use xlink:href="#S" transform="matrix(16 0 0 -16 118.897 154.643)"/><use xlink:href="#T" transform="matrix(16 0 0 -16 131.31 150.9)"/><use xlink:href="#U" transform="matrix(16 0 0 -16 139.645 157.97)"/><use xlink:href="#V" transform="matrix(16 0 0 -16 150.62 154.643)"/><use xlink:href="#R" transform="matrix(16 0 0 -16 158.495 154.87)"/><use xlink:href="#W" transform="matrix(16 0 0 -16 168.018 158.08)"/><use xlink:href="#V" transform="matrix(16 0 0 -16 179.517 154.643)"/><use xlink:href="#X" transform="matrix(16 0 0 -16 187.282 154.87)"/><use xlink:href="#P" transform="matrix(16 0 0 -16 197.617 154.87)"/><use xlink:href="#P" transform="matrix(16 0 0 -16 207.249 154.87)"/><use xlink:href="#Y" transform="matrix(16 0 0 -16 219.037 154.643)"/><use xlink:href="#Z" transform="matrix(16 0 0 -16 224.849 154.643)"/><use xlink:href="#aa" transform="matrix(16 0 0 -16 235.504 154.643)"/><use xlink:href="#V" transform="matrix(16 0 0 -16 246.94 154.643)"/><use xlink:href="#ab" transform="matrix(16 0 0 -16 255.268 154.87)"/><use xlink:href="#X" transform="matrix(16 0 0 -16 264.338 154.87)"/><use xlink:href="#n" transform="matrix(20 0 0 -20 46.454 187.623)"/><symbol id="ac"><path d="M.288.712C.118.712 0 .581 0 .354 0 .124.117 0 .288 0 .46 0 .576.128.576.355c0 .232-.117.357-.288.357m0-.072C.409.64.484.556.484.355.484.154.408.072.288.072.172.072.092.154.092.354.092.556.17.64.288.64z"/></symbol><symbol id="ad"><path d="M.244.538A.2.2 0 0 1 .079.447L.072.526H0V0h.084v.375c.036.058.078.097.14.097.054 0 .087-.026.087-.107V0h.084v.377c0 .1-.055.161-.151.161z"/></symbol><symbol id="ae"><path d="M.67.526H.59L.49.059.386.526H.292L.184.059.085.526H0L.125 0h.112l.1.45L.434 0h.115L.67.526z"/></symbol><use xlink:href="#ac" transform="matrix(20 0 0 -20 62.814 192.643)"/><use xlink:href="#v" transform="matrix(20 0 0 -20 77.354 192.643)"/><use xlink:href="#w" transform="matrix(20 0 0 -20 87.334 192.643)"/><use xlink:href="#L" transform="matrix(20 0 0 -20 95.894 192.643)"/><use xlink:href="#M" transform="matrix(20 0 0 -20 101.454 192.403)"/><use xlink:href="#ad" transform="matrix(20 0 0 -20 107.394 192.403)"/><use xlink:href="#q" transform="matrix(20 0 0 -20 118.314 192.643)"/><use xlink:href="#t" transform="matrix(20 0 0 -20 127.994 192.403)"/><use xlink:href="#K" transform="matrix(20 0 0 -20 133.914 192.643)"/><use xlink:href="#L" transform="matrix(20 0 0 -20 144.534 192.643)"/><use xlink:href="#M" transform="matrix(20 0 0 -20 150.094 192.403)"/><use xlink:href="#N" transform="matrix(20 0 0 -20 155.354 192.643)"/><use xlink:href="#q" transform="matrix(20 0 0 -20 167.154 192.643)"/><use xlink:href="#K" transform="matrix(20 0 0 -20 177.394 192.643)"/><use xlink:href="#t" transform="matrix(20 0 0 -20 186.154 192.403)"/><use xlink:href="#ae" transform="matrix(20 0 0 -20 191.934 192.403)"/><use xlink:href="#M" transform="matrix(20 0 0 -20 207.374 192.403)"/><use xlink:href="#w" transform="matrix(20 0 0 -20 211.574 192.643)"/><use xlink:href="#p" transform="matrix(20 0 0 -20 220.434 192.403)"/><use xlink:href="#t" transform="matrix(20 0 0 -20 230.174 192.403)"/><symbol id="af"><path d="M.234.198c0-.04.007-.07.022-.091a.076.076 0 0 1 .066-.03h.105V0H.313a.156.156 0 0 0-.125.052.22.22 0 0 0-.044.146v.497H0v.07h.234V.198z"/></symbol><symbol id="ag"><path d="M.038.547h.23V.07h.178V0H0v.07h.178v.407h-.14v.07m.14.213h.09V.646h-.09V.76z"/></symbol><symbol id="ah"><path d="M.418.339V0h-.09v.339c0 .049-.009.085-.026.108C.285.47.257.482.22.482A.115.115 0 0 1 .124.437.209.209 0 0 1 .09.309V0H0v.547h.09V.465a.168.168 0 0 0 .065.07C.182.553.215.56.252.56.308.56.349.542.376.505.404.468.418.413.418.339z"/></symbol><symbol id="ai"><path d="M.359.491v.283h.09v-.76h-.09v.069A.157.157 0 0 0 .213 0a.184.184 0 0 0-.156.077A.352.352 0 0 0 0 .289a.34.34 0 0 0 .057.209c.038.05.09.076.156.076A.172.172 0 0 0 .3.553.148.148 0 0 0 .359.49M.095.287c0-.07.01-.122.033-.158A.108.108 0 0 1 .226.076.11.11 0 0 1 .325.13a.295.295 0 0 1 .034.157c0 .07-.012.122-.034.157a.11.11 0 0 1-.099.054.108.108 0 0 1-.098-.053.302.302 0 0 1-.033-.158z"/></symbol><use xlink:href="#R" transform="matrix(16 0 0 -16 236.605 192.63)"/><use xlink:href="#ab" transform="matrix(16 0 0 -16 246.69 192.63)"/><use xlink:href="#aa" transform="matrix(16 0 0 -16 255.822 192.403)"/><use xlink:href="#af" transform="matrix(16 0 0 -16 265.68 192.403)"/><use xlink:href="#ag" transform="matrix(16 0 0 -16 275.453 192.403)"/><use xlink:href="#ah" transform="matrix(16 0 0 -16 285.218 192.403)"/><use xlink:href="#X" transform="matrix(16 0 0 -16 294.287 192.63)"/><use xlink:href="#ai" transform="matrix(16 0 0 -16 303.92 192.63)"/><use xlink:href="#Y" transform="matrix(16 0 0 -16 316.41 192.403)"/><use xlink:href="#Z" transform="matrix(16 0 0 -16 322.222 192.403)"/><use xlink:href="#aa" transform="matrix(16 0 0 -16 332.878 192.403)"/><use xlink:href="#V" transform="matrix(16 0 0 -16 344.314 192.403)"/><use xlink:href="#ab" transform="matrix(16 0 0 -16 352.642 192.63)"/><use xlink:href="#X" transform="matrix(16 0 0 -16 361.711 192.63)"/><use xlink:href="#O" transform="matrix(20 0 0 -20 371.414 192.643)"/><path d="M167.418 223.584a5.67 5.67 0 0 1 5.67-5.67h495.715a5.67 5.67 0 0 1 5.669 5.67v50.528a5.67 5.67 0 0 1-5.67 5.669H173.088a5.67 5.67 0 0 1-5.67-5.67z" fill="#f3f2f0"/><symbol id="aj"><path d="M.487.688H0V.614h.198V0h.086v.614h.193l.01.074z"/></symbol><use xlink:href="#aj" transform="matrix(24 0 0 -24 192.682 257.104)"/><use xlink:href="#p" transform="matrix(24 0 0 -24 206.962 257.104)"/><use xlink:href="#M" transform="matrix(24 0 0 -24 220.57 257.104)"/><use xlink:href="#K" transform="matrix(24 0 0 -24 226.018 257.392)"/><use xlink:href="#t" transform="matrix(24 0 0 -24 236.53 257.104)"/><use xlink:href="#M" transform="matrix(24 0 0 -24 244.882 257.104)"/><use xlink:href="#K" transform="matrix(24 0 0 -24 250.33 257.392)"/><use xlink:href="#t" transform="matrix(24 0 0 -24 260.842 257.104)"/><use xlink:href="#G" transform="matrix(24 0 0 -24 268.426 257.392)"/><use xlink:href="#t" transform="matrix(24 0 0 -24 280.282 257.104)"/><symbol id="ak"><path d="M.333.718.283.515h.119l.051.203h.078L.48.515H.6V.44H.461L.42.277h.122V.202H.402L.352 0h-.08l.052.202h-.12L.153 0H.075l.051.202H0v.075h.145L.186.44h-.13v.075h.148l.05.203h.079M.383.44H.265L.224.277h.12l.04.163z"/></symbol><symbol id="al"><path d="M.278.29h-.03A.208.208 0 0 1 .129.26C.103.243.09.216.09.18.09.146.1.121.12.103A.117.117 0 0 1 .203.075c.05 0 .089.017.117.051A.22.22 0 0 1 .362.27v.02H.278m.174.037V.014h-.09v.081A.187.187 0 0 0 .289.023.225.225 0 0 0 .183 0C.127 0 .083.016.05.047A.166.166 0 0 0 0 .173C0 .234.02.28.061.312a.292.292 0 0 0 .18.047h.12v.015c0 .043-.01.075-.032.094-.022.02-.057.03-.105.03A.404.404 0 0 1 .04.446v.09a.609.609 0 0 0 .184.038.3.3 0 0 0 .116-.02.182.182 0 0 0 .078-.06.152.152 0 0 0 .026-.06.543.543 0 0 0 .008-.108z"/></symbol><symbol id="am"><path d="M.368.384a8.987 8.987 0 0 1-.057-.15A1.445 1.445 0 0 0 .246.075.153.153 0 0 0 .19.02.157.157 0 0 0 .11 0H.04v.075h.053C.12.075.14.083.154.098a.394.394 0 0 1 .057.119L0 .755h.095L.257.327l.16.428h.095L.368.384z"/></symbol><use xlink:href="#ak" transform="matrix(19.2 0 0 -19.2 286.733 257.104)"/><use xlink:href="#W" transform="matrix(19.2 0 0 -19.2 299.426 261.229)"/><use xlink:href="#V" transform="matrix(19.2 0 0 -19.2 313.225 257.104)"/><use xlink:href="#al" transform="matrix(19.2 0 0 -19.2 322.636 257.376)"/><use xlink:href="#am" transform="matrix(19.2 0 0 -19.2 333.923 261.097)"/><use xlink:href="#X" transform="matrix(19.2 0 0 -19.2 345.66 257.376)"/><use xlink:href="#ai" transform="matrix(19.2 0 0 -19.2 357.218 257.376)"/><symbol id="an"><path d="m.283.282.162.244H.35L.235.329.12.526H.022L.184.278 0 0h.095l.136.228L.365 0h.102L.283.282z"/></symbol><symbol id="ao"><path d="M.474.7H.386V.238C.386.13.339.074.236.074c-.102 0-.15.056-.15.164V.7H0V.231C0 .096.08 0 .236 0 .39 0 .474.096.474.231V.7z"/></symbol><symbol id="ap"><path d="M.222.538C.157.538.108.497.08.416l-.008.11H0V0h.084v.308c.024.101.062.148.129.148.019 0 .03-.002.046-.006l.015.082a.212.212 0 0 1-.052.006z"/></symbol><symbol id="aq"><path d="M.361.737.355.677a.193.193 0 0 1-.149.072C.077.749 0 .633 0 .472 0 .307.071.199.198.199c.065 0 .117.032.151.082V.01L.433 0v.737H.361M.216.266C.136.266.09.333.09.473c0 .14.052.209.134.209.055 0 .093-.028.125-.071V.349C.314.296.276.266.216.266z"/></symbol><use xlink:href="#t" transform="matrix(24 0 0 -24 367.63 257.104)"/><use xlink:href="#w" transform="matrix(24 0 0 -24 374.326 257.392)"/><use xlink:href="#q" transform="matrix(24 0 0 -24 383.686 257.392)"/><use xlink:href="#an" transform="matrix(24 0 0 -24 395.254 257.104)"/><use xlink:href="#w" transform="matrix(24 0 0 -24 406.87 257.392)"/><use xlink:href="#O" transform="matrix(24 0 0 -24 416.446 257.392)"/><use xlink:href="#t" transform="matrix(24 0 0 -24 420.79 257.104)"/><use xlink:href="#ao" transform="matrix(24 0 0 -24 429.454 257.392)"/><use xlink:href="#K" transform="matrix(24 0 0 -24 443.614 257.392)"/><use xlink:href="#q" transform="matrix(24 0 0 -24 455.542 257.392)"/><use xlink:href="#J" transform="matrix(24 0 0 -24 467.47 257.104)"/><use xlink:href="#v" transform="matrix(24 0 0 -24 477.358 257.392)"/><use xlink:href="#L" transform="matrix(24 0 0 -24 491.302 257.392)"/><use xlink:href="#t" transform="matrix(24 0 0 -24 496.054 257.104)"/><use xlink:href="#J" transform="matrix(24 0 0 -24 502.798 257.104)"/><use xlink:href="#u" transform="matrix(24 0 0 -24 511.63 257.392)"/><use xlink:href="#ap" transform="matrix(24 0 0 -24 526.51 257.104)"/><use xlink:href="#t" transform="matrix(24 0 0 -24 533.35 257.104)"/><use xlink:href="#q" transform="matrix(24 0 0 -24 541.198 257.392)"/><use xlink:href="#aq" transform="matrix(24 0 0 -24 554.35 262.168)"/><use xlink:href="#v" transform="matrix(24 0 0 -24 569.326 257.392)"/><use xlink:href="#G" transform="matrix(24 0 0 -24 582.19 257.392)"/><use xlink:href="#w" transform="matrix(24 0 0 -24 594.31 257.392)"/><use xlink:href="#M" transform="matrix(24 0 0 -24 604.51 257.104)"/><use xlink:href="#u" transform="matrix(24 0 0 -24 610.702 257.392)"/><use xlink:href="#ad" transform="matrix(24 0 0 -24 625.582 257.104)"/><use xlink:href="#K" transform="matrix(24 0 0 -24 637.942 257.392)"/><use xlink:href="#O" transform="matrix(24 0 0 -24 649.678 257.392)"/><path d="M292.67 310.962a5.67 5.67 0 0 1 5.669-5.67H543.55a5.67 5.67 0 0 1 5.67 5.67v89.156a5.67 5.67 0 0 1-5.67 5.669H298.339a5.67 5.67 0 0 1-5.67-5.67z" fill="#f3f2f0"/><symbol id="ar"><path d="M.515.683h-.32C.172.683.161.682.161.66c0-.011.011-.016.033-.016.02 0 .06.003.06-.013A.084.084 0 0 0 .25.613L.118.082C.112.06.102.047.088.042A.288.288 0 0 0 .032.039C.01.039 0 .037 0 .016 0 .005.006 0 .019 0l.125.003.064-.001L.272 0c.016 0 .024.008.024.024 0 .01-.011.015-.032.015-.04 0-.06.004-.06.013l.003.016.06.244h.165c.065 0 .127.02.185.059.065.043.097.096.097.159C.714.629.62.683.515.683M.484.644c.087 0 .13-.03.13-.09C.614.498.586.423.557.397a.216.216 0 0 0-.15-.051H.273L.339.61c.008.034.008.034.05.034h.095z"/></symbol><use xlink:href="#ar" transform="matrix(24 0 0 -24 316.307 360.202)"/><symbol id="as"><path d="M.338.426c0 .011-.011.017-.033.017H.217l.035.142.003.014c0 .024-.012.036-.037.036C.188.635.171.61.164.576L.132.443H.035C.012.443 0 .44 0 .418 0 .406.011.4.033.4h.088L.065.172A.469.469 0 0 1 .05.098C.05.039.099 0 .158 0c.051 0 .095.024.13.073.029.041.044.068.044.082 0 .011-.006.017-.019.017A.037.037 0 0 1 .301.17.072.072 0 0 1 .289.151C.267.102.221.036.161.036c-.02 0-.03.015-.03.044 0 .011.002.024.006.04L.206.4h.097C.326.4.338.405.338.426z"/></symbol><use xlink:href="#as" transform="matrix(16.8 0 0 -16.8 329.06 366.298)"/><symbol id="at"><path d="M.642.234H.024C.008.234 0 .226 0 .211S.008.188.024.188h.618c.016 0 .024.008.024.023 0 .012-.011.023-.024.023m0-.188H.024C.008.046 0 .038 0 .023S.008 0 .024 0h.618c.016 0 .024.008.024.023a.023.023 0 0 1-.024.023z"/></symbol><use xlink:href="#at" transform="matrix(24 0 0 -24 344.967 357.01)"/><symbol id="au"><path d="M.269.453A.25.25 0 0 1 .083.364.28.28 0 0 1 0 .17C0 .072.066 0 .164 0c.069 0 .137.027.205.08C.384.027.415 0 .461 0c.036 0 .087.038.087.074 0 .009-.005.013-.016.013C.525.087.519.083.516.075.508.054.487.029.464.029.447.029.438.061.438.126c0 .014.003.025.009.032a.512.512 0 0 1 .07.113c.025.054.04.094.044.12v.004C.558.402.552.405.545.405.54.404.534.396.527.382A.559.559 0 0 0 .438.197v.05C.438.363.38.453.269.453M.362.222c0-.059.001-.095.002-.108A.3.3 0 0 0 .166.029C.109.029.081.064.081.133c0 .058.033.166.056.202.038.059.082.089.131.089C.299.424.32.412.333.388.34.376.345.364.35.353A.56.56 0 0 0 .362.222z"/></symbol><use xlink:href="#au" transform="matrix(24 0 0 -24 369.946 360.466)"/><symbol id="av"><path d="M.642.04H.024C.008.04 0 .033 0 .02 0 .007.008 0 .024 0h.618c.016 0 .024.007.024.02 0 .012-.012.02-.024.02z"/></symbol><use xlink:href="#av" transform="matrix(24 0 0 -24 390.999 354.682)"/><symbol id="aw"><path d="M.18.666C.139.624.079.603 0 .603V.564c.052 0 .095.008.128.024V.082C.128.064.124.052.115.047A.204.204 0 0 0 .041.039H.006V0c.025.002.079.003.162.003S.305.002.33 0v.039H.295a.196.196 0 0 0-.074.008C.213.052.208.064.208.082v.554c0 .024-.002.03-.028.03z"/></symbol><use xlink:href="#aw" transform="matrix(24 0 0 -24 466.238 343.954)"/><symbol id="ax"><path d="M.774.958A.059.059 0 0 1 .78.976C.78.992.772 1 .756 1a.02.02 0 0 1-.02-.013C.593.701.522.557.522.555V.554C.522.547.454.402.317.117L.144.499C.139.51.134.515.128.515.125.515.119.512.111.506L.013.432C.004.425 0 .42 0 .415 0 .405.005.4.014.4.017.4.022.403.03.409l.048.035.194-.427C.277.006.284 0 .294 0c.012 0 .02.005.025.014l.455.944z"/></symbol><use xlink:href="#ax" transform="matrix(24 0 0 -24 417.812 382.81)"/><path stroke-width="1.152" fill="none" stroke="#000" d="M436.052 359.386h13.728"/><symbol id="ay"><path d="M.498.384C.498.43.453.453.403.453.36.453.326.43.3.384a.109.109 0 0 1-.107.069C.144.453.104.43.072.385.045.346.031.317.031.298c0-.009.005-.014.015-.014.009 0 .015.005.017.014.019.058.061.126.128.126C.224.424.24.403.24.362.24.341.222.263.187.129.17.062.14.029.097.029a.092.092 0 0 0-.038.008c.026.01.039.028.039.054S.085.13.058.13A.06.06 0 0 1 0 .069C0 .023.047 0 .096 0c.042 0 .076.023.103.069C.218.023.254 0 .306 0c.048 0 .088.023.12.068.027.039.041.068.041.087 0 .009-.005.014-.015.014C.443.169.438.164.435.155.418.098.373.029.308.029c-.033 0-.05.02-.05.061 0 .013.005.041.016.086l.034.135c.019.075.05.113.094.113A.092.092 0 0 0 .44.416C.413.407.4.389.4.362.4.336.414.323.441.323c.032 0 .057.029.057.061z"/></symbol><use xlink:href="#ay" transform="matrix(24 0 0 -24 436.748 377.422)"/><symbol id="az"><path d="M.642.357H.357v.285c0 .016-.008.024-.024.024S.309.658.309.642V.357H.024C.008.357 0 .349 0 .333S.008.309.024.309h.285V.024C.309.008.317 0 .333 0s.024.008.024.024v.285h.285c.016 0 .024.008.024.024a.024.024 0 0 1-.024.024z"/></symbol><use xlink:href="#az" transform="matrix(24 0 0 -24 456.458 379.15)"/><symbol id="aA"><path d="M.499.838C.499.882.456.91.409.91.347.91.304.87.281.791A2.663 2.663 0 0 1 .249.638H.184C.162.638.151.637.151.616.151.605.161.6.182.6h.06L.169.213a1.17 1.17 0 0 0-.03-.127C.127.049.11.03.088.03A.068.068 0 0 0 .05.041c.032.005.048.024.048.056 0 .026-.013.039-.04.039C.024.136 0 .106 0 .072 0 .028.041 0 .088 0c.025 0 .048.01.067.031.032.033.057.08.075.143.011.039.021.077.028.115L.316.6h.082C.421.6.431.601.431.624c0 .009-.01.014-.03.014H.324C.33.679.358.83.367.849.377.87.391.88.409.88A.071.071 0 0 0 .448.869C.417.862.401.844.401.813c0-.026.013-.039.04-.039.034 0 .058.03.058.064z"/></symbol><use xlink:href="#aA" transform="matrix(24 0 0 -24 480.391 382.078)"/><symbol id="aB"><path d="M.217 0c.009 0 .014.005.014.014 0 .003-.002.007-.005.011a.407.407 0 0 0-.125.197.721.721 0 0 0-.041.234V.54c0 .077.014.155.041.234a.407.407 0 0 0 .125.197.016.016 0 0 1 .005.011c0 .009-.005.014-.014.014A.52.52 0 0 1 .059.788.606.606 0 0 1 0 .54V.456C0 .377.02.295.059.208A.52.52 0 0 1 .217 0z"/></symbol><use xlink:href="#aB" transform="matrix(24 0 0 -24 495.463 383.11)"/><symbol id="aC"><path d="M.134.647C.089.647.054.622.029.572A.238.238 0 0 1 0 .491C0 .482.005.477.016.477c.014 0 .015.006.019.021.023.079.055.119.096.119.013 0 .02-.009.02-.027A.206.206 0 0 0 .135.522.762.762 0 0 1 .078.313c0-.076.047-.121.124-.121.033 0 .064.012.092.036C.259.096.204.03.129.03.095.03.072.041.06.063.1.065.12.084.12.12.12.145.107.158.08.158.043.158.021.127.021.09c0-.055.05-.09.108-.09.115 0 .209.106.234.204l.094.378a.097.097 0 0 1 .004.024c0 .02-.011.03-.032.03A.043.043 0 0 1 .391.613.736.736 0 0 1 .377.559L.313.302C.303.266.25.221.205.221.167.221.148.246.148.297a.61.61 0 0 0 .05.192.26.26 0 0 1 .02.073.082.082 0 0 1-.084.085z"/></symbol><use xlink:href="#aC" transform="matrix(24 0 0 -24 503.071 382.078)"/><symbol id="aD"><path d="M.021.003a.52.52 0 0 1 .151.205.606.606 0 0 1 .059.248V.54c0 .079-.02.161-.059.248a.52.52 0 0 1-.158.208C.005.996 0 .991 0 .982 0 .978.002.974.005.971A.407.407 0 0 0 .13.774.721.721 0 0 0 .171.54V.456A.721.721 0 0 0 .13.222.407.407 0 0 0 .005.025C.002.021 0 .017 0 .014 0 .005.005 0 .014 0l.007.003z"/></symbol><use xlink:href="#aD" transform="matrix(24 0 0 -24 516.175 383.11)"/><path stroke-width="1.152" fill="none" stroke="#000" d="M416.06 354.202h108.083"/><path d="M0 470.563h841.89v3H0z" fill="#c8c8c8" fill-opacity=".251"/><path d="M0 470.563h654.803v3H0z" fill="#3059ab"/></svg>