<?xml version="1.0" encoding="UTF-8"?>
<svg width="61px" height="61px" viewBox="0 0 61 61" version="1.1" xmlns="http://www.w3.org/2000/svg" xmlns:xlink="http://www.w3.org/1999/xlink">
    <!-- Generator: Sketch 46.2 (44496) - http://www.bohemiancoding.com/sketch -->
    <title>Shape</title>
    <desc>Created with Sketch.</desc>
    <defs></defs>
    <g id="Page-1" stroke="none" stroke-width="1" fill="none" fill-rule="evenodd">
        <g id="Logo" transform="translate(-1.000000, 0.000000)" fill-rule="nonzero" fill="#0078D7">
            <path d="M31.32,48.65 C21.23,48.65 16.62,43.51 16.62,39.74 C16.6186363,38.8406349 16.9877508,37.9804106 17.6404989,37.361719 C18.2932469,36.7430274 19.1719976,36.4204926 20.07,36.47 C24.39,36.47 23.26,42.95 31.32,42.95 C35.44,42.95 37.86,40.47 37.86,38.14 C37.86,36.74 37.06,35.14 34.34,34.5 L25.34,32.23 C18.11,30.39 16.85,26.37 16.85,22.64 C16.85,14.9 23.93,12.1 30.67,12.1 C36.88,12.1 44.26,15.53 44.26,20.17 C44.26,22.17 42.59,23.24 40.65,23.24 C36.96,23.24 37.58,18.06 30.16,18.06 C26.47,18.06 24.53,19.79 24.53,22.21 C24.53,24.63 27.4,25.45 29.92,26 L36.56,27.5 C43.84,29.14 45.78,33.41 45.78,37.5 C45.78,43.79 40.91,48.65 31.31,48.65 M59.18,35.34 C59.4682444,33.6889808 59.6121215,32.0159907 59.61,30.34 C59.645297,21.9211208 55.9461253,13.919872 49.509629,8.49306008 C43.0731327,3.06624813 34.5618239,0.772457691 26.27,2.23 C23.7213908,0.762631477 20.8308393,-0.00657256608 17.89,-8.8817842e-16 C11.8535995,0.0368750438 6.28948144,3.27207159 3.27129746,8.4998872 C0.253113478,13.7277028 0.233588823,20.1639692 3.22,25.41 C1.55360499,34.5663392 4.47263239,43.9586886 11.035525,50.5574658 C17.5984176,57.156243 26.9747103,60.1264421 36.14,58.51 C38.6854907,59.9761092 41.572489,60.7452856 44.51,60.74 C50.5433302,60.701132 56.1040397,57.4673111 59.1215855,52.2426578 C62.1391312,47.0180046 62.161362,40.5853851 59.18,35.34" id="Shape"></path>
        </g>
    </g>
</svg>