<svg xmlns="http://www.w3.org/2000/svg" xmlns:xlink="http://www.w3.org/1999/xlink" width="1122.52" height="631.417" viewBox="0 0 841.89 473.563"><path d="M0 0h841.89v473.563H0z" fill="#fff"/><path d="M0 0h841.89v26.93H0z" fill="#3059ab"/><symbol id="a"><path d="M.503.258H.424v.165H.302L.287.258h-.14l.167.386-.12.045L0 .246V.15h.285L.286 0h.138v.15h.079v.108z"/></symbol><symbol id="b"><path d="M0 0z"/></symbol><symbol id="c"><path d="M.235.924 0 .029.124 0l.234.896-.123.028z"/></symbol><symbol id="d"><path d="M.242.714C.107.714 0 .625 0 .484 0 .347.086.263.191.263c.065 0 .11.028.142.069C.311.204.22.143.05.101L.08 0c.279.062.405.177.405.453 0 .154-.082.261-.243.261M.232.365c-.05 0-.09.032-.09.123 0 .081.039.123.1.123.071 0 .1-.048.098-.182C.312.388.275.365.232.365z"/></symbol><use xlink:href="#a" transform="matrix(12 0 0 -12 799.85 17.517)" fill="#fff"/><use xlink:href="#b" transform="matrix(12 0 0 -12 806.162 17.517)" fill="#fff"/><use xlink:href="#c" transform="matrix(12 0 0 -12 810.062 18.837)" fill="#fff"/><use xlink:href="#b" transform="matrix(12 0 0 -12 815.33 17.517)" fill="#fff"/><use xlink:href="#d" transform="matrix(12 0 0 -12 818.63 17.84)" fill="#fff"/><symbol id="e"><path d="M.103.207A.1.1 0 0 1 0 .104C0 .045.044 0 .103 0a.1.1 0 0 1 .103.103.101.101 0 0 1-.103.104z"/></symbol><use xlink:href="#e" transform="matrix(20 0 0 -20 46.454 72.6)"/><symbol id="f"><path d="M.487.688H0V.614h.198V0h.086v.614h.193l.01.074z"/></symbol><symbol id="g"><path d="M.244.538a.194.194 0 0 1-.16-.087v.296L0 .737V0h.084v.376C.12.433.163.472.223.472.277.472.311.446.311.365V0h.084v.377c0 .099-.056.161-.151.161z"/></symbol><symbol id="h"><path d="M.059.774A.056.056 0 0 1 0 .716C0 .683.024.658.059.658c.036 0 .06.025.06.058S.095.774.059.774M.102.526H.018V0h.084v.526z"/></symbol><symbol id="i"><path d="M.209.55C.102.55.023.49.023.407c0-.074.045-.121.158-.151C.285.228.312.208.312.153.312.1.265.068.195.068a.243.243 0 0 0-.15.052L0 .069A.287.287 0 0 1 .197 0C.303 0 .4.051.4.158.4.25.338.292.227.321.14.344.11.364.11.409s.04.074.102.074c.05 0 .09-.015.137-.046L.385.49a.275.275 0 0 1-.176.06z"/></symbol><symbol id="j"><path d="M0 0z"/></symbol><symbol id="k"><path d="M.398.133v.244C.398.486.341.55.216.55A.491.491 0 0 1 .038.514L.059.452a.442.442 0 0 0 .142.029c.076 0 .113-.03.113-.108V.331H.228C.084.331 0 .271 0 .159 0 .065.062 0 .166 0a.18.18 0 0 1 .158.081C.338.028.371.007.422 0l.02.059C.414.069.398.084.398.133M.185.064C.122.064.089.099.089.163c0 .075.052.112.15.112h.075V.15C.284.093.242.064.185.064z"/></symbol><symbol id="l"><path d="M.524.538C.453.538.403.498.365.44a.131.131 0 0 1-.132.098C.165.538.116.501.079.447L.072.526H0V0h.084v.375C.12.433.155.472.213.472.256.472.29.446.29.365V0h.084v.375c.037.058.071.097.13.097.043 0 .077-.026.077-.107V0h.084v.377C.665.476.61.538.524.538z"/></symbol><symbol id="m"><path d="M.235.749A.19.19 0 0 1 .079.664L.072.737H0V0l.084.01v.251a.172.172 0 0 1 .14-.062c.135 0 .205.115.205.276 0 .167-.056.274-.194.274M.205.268a.142.142 0 0 0-.121.067v.263c.029.044.073.084.131.084.082 0 .124-.067.124-.207C.339.334.292.268.205.268z"/></symbol><symbol id="n"><path d="M.105 0c.026 0 .051.007.07.017L.153.076A.09.09 0 0 0 .119.07C.094.07.084.085.084.114V.76L0 .75V.112C0 .039.041 0 .105 0z"/></symbol><symbol id="o"><path d="M.43.292C.43.451.357.55.216.55.082.55 0 .435 0 .27 0 .103.085 0 .23 0a.28.28 0 0 1 .181.066l-.037.05A.224.224 0 0 0 .236.069c-.08 0-.138.05-.147.177h.339A.536.536 0 0 1 .43.292M.347.308H.089c.007.123.056.175.129.175.087 0 .129-.061.129-.167V.308z"/></symbol><use xlink:href="#f" transform="matrix(20 0 0 -20 61.954 77.38)"/><use xlink:href="#g" transform="matrix(20 0 0 -20 73.854 77.38)"/><use xlink:href="#h" transform="matrix(20 0 0 -20 85.194 77.38)"/><use xlink:href="#i" transform="matrix(20 0 0 -20 89.734 77.62)"/><use xlink:href="#j" transform="matrix(20 0 0 -20 98.494 77.38)"/><use xlink:href="#h" transform="matrix(20 0 0 -20 105.454 77.38)"/><use xlink:href="#i" transform="matrix(20 0 0 -20 109.994 77.62)"/><use xlink:href="#j" transform="matrix(20 0 0 -20 118.754 77.38)"/><use xlink:href="#k" transform="matrix(20 0 0 -20 125.074 77.62)"/><use xlink:href="#j" transform="matrix(20 0 0 -20 134.954 77.38)"/><use xlink:href="#i" transform="matrix(20 0 0 -20 140.874 77.62)"/><use xlink:href="#h" transform="matrix(20 0 0 -20 151.234 77.38)"/><use xlink:href="#l" transform="matrix(20 0 0 -20 157.174 77.38)"/><use xlink:href="#m" transform="matrix(20 0 0 -20 174.294 81.6)"/><use xlink:href="#n" transform="matrix(20 0 0 -20 186.014 77.62)"/><use xlink:href="#o" transform="matrix(20 0 0 -20 191.054 77.62)"/><use xlink:href="#j" transform="matrix(20 0 0 -20 200.734 77.38)"/><symbol id="p"><path d="M.371.542V.454a.342.342 0 0 1-.078.034.287.287 0 0 1-.08.011.167.167 0 0 1-.09-.02C.103.466.093.446.093.419.093.395.1.376.115.364A.306.306 0 0 1 .227.33L.263.322a.175.175 0 0 0 .101-.05.142.142 0 0 0 .035-.1A.153.153 0 0 0 .34.045.253.253 0 0 0 .181 0a.438.438 0 0 0-.085.009A.746.746 0 0 0 0 .034v.093a.533.533 0 0 1 .096-.04.326.326 0 0 1 .087-.012c.04 0 .07.008.092.024a.08.08 0 0 1 .033.068c0 .042-.04.07-.12.086L.185.254.15.261a.216.216 0 0 0-.113.051.134.134 0 0 0-.036.098c0 .053.018.093.053.121a.236.236 0 0 0 .152.043.42.42 0 0 0 .164-.032z"/></symbol><symbol id="q"><path d="M.234.198c0-.04.007-.07.022-.091a.076.076 0 0 1 .066-.03h.105V0H.313a.156.156 0 0 0-.125.052.22.22 0 0 0-.044.146v.497H0v.07h.234V.198z"/></symbol><symbol id="r"><path d="M.038.547h.23V.07h.178V0H0v.07h.178v.407h-.14v.07m.14.213h.09V.646h-.09V.76z"/></symbol><symbol id="s"><path d="M.359.491v.283h.09v-.76h-.09v.069A.157.157 0 0 0 .213 0a.184.184 0 0 0-.156.077A.352.352 0 0 0 0 .289a.34.34 0 0 0 .057.209c.038.05.09.076.156.076A.172.172 0 0 0 .3.553.148.148 0 0 0 .359.49M.095.287c0-.07.01-.122.033-.158A.108.108 0 0 1 .226.076.11.11 0 0 1 .325.13a.295.295 0 0 1 .034.157c0 .07-.012.122-.034.157a.11.11 0 0 1-.099.054.108.108 0 0 1-.098-.053.302.302 0 0 1-.033-.158z"/></symbol><symbol id="t"><path d="M.483.31V.266h-.39V.263C.094.203.11.158.14.125A.174.174 0 0 1 .272.076a.32.32 0 0 1 .09.014c.031.009.064.023.1.041V.042A.587.587 0 0 0 .27 0a.26.26 0 0 0-.2.076A.296.296 0 0 0 0 .287a.3.3 0 0 0 .07.21.24.24 0 0 0 .188.077c.07 0 .124-.023.164-.07A.288.288 0 0 0 .482.31M.394.336a.186.186 0 0 1-.038.12C.332.485.298.499.254.499A.143.143 0 0 1 .147.455a.193.193 0 0 1-.05-.12l.296.001z"/></symbol><use xlink:href="#p" transform="matrix(16 0 0 -16 207.758 77.607)"/><use xlink:href="#q" transform="matrix(16 0 0 -16 216.976 77.38)"/><use xlink:href="#r" transform="matrix(16 0 0 -16 226.749 77.38)"/><use xlink:href="#s" transform="matrix(16 0 0 -16 235.951 77.607)"/><use xlink:href="#t" transform="matrix(16 0 0 -16 245.583 77.607)"/><symbol id="u"><path d="M.67.526H.59L.49.059.386.526H.292L.184.059.085.526H0L.125 0h.112l.1.45L.434 0h.115L.67.526z"/></symbol><symbol id="v"><path d="M.314.092A.14.14 0 0 0 .241.07C.194.07.175.096.175.151v.322h.118l.009.065H.175v.13L.091.659V.538H0V.473h.091V.147C.091.051.143 0 .23 0c.044 0 .082.012.116.035L.314.092z"/></symbol><symbol id="w"><path d="M.244.538A.2.2 0 0 1 .079.447L.072.526H0V0h.084v.375c.036.058.078.097.14.097.054 0 .087-.026.087-.107V0h.084v.377c0 .1-.055.161-.151.161z"/></symbol><symbol id="x"><path d="M.232.55C.085.55 0 .439 0 .274 0 .107.084 0 .231 0c.147 0 .232.111.232.276C.463.444.38.55.232.55m0-.068C.323.482.373.415.373.276.373.135.322.068.231.068S.09.135.09.274c0 .141.052.208.142.208z"/></symbol><symbol id="y"><path d="M.064.129A.064.064 0 0 1 0 .065C0 .029.028 0 .064 0c.038 0 .065.029.065.065a.063.063 0 0 1-.065.064z"/></symbol><use xlink:href="#j" transform="matrix(20 0 0 -20 254.258 77.38)"/><use xlink:href="#u" transform="matrix(20 0 0 -20 260.038 77.38)"/><use xlink:href="#h" transform="matrix(20 0 0 -20 275.478 77.38)"/><use xlink:href="#v" transform="matrix(20 0 0 -20 279.678 77.62)"/><use xlink:href="#g" transform="matrix(20 0 0 -20 288.538 77.38)"/><use xlink:href="#j" transform="matrix(20 0 0 -20 298.278 77.38)"/><use xlink:href="#w" transform="matrix(20 0 0 -20 305.598 77.38)"/><use xlink:href="#x" transform="matrix(20 0 0 -20 316.518 77.62)"/><use xlink:href="#j" transform="matrix(20 0 0 -20 326.958 77.38)"/><use xlink:href="#v" transform="matrix(20 0 0 -20 332.538 77.62)"/><use xlink:href="#h" transform="matrix(20 0 0 -20 341.038 77.38)"/><use xlink:href="#v" transform="matrix(20 0 0 -20 345.238 77.62)"/><use xlink:href="#n" transform="matrix(20 0 0 -20 353.798 77.62)"/><use xlink:href="#o" transform="matrix(20 0 0 -20 358.838 77.62)"/><use xlink:href="#y" transform="matrix(20 0 0 -20 369.338 77.62)"/><use xlink:href="#e" transform="matrix(20 0 0 -20 46.454 99.36)"/><symbol id="z"><path d="M.354.366c.064.015.127.062.127.149C.481.643.37.692.189.692H0V0h.216c.17 0 .295.046.295.201 0 .113-.079.15-.157.165m-.151.22c.085 0 .128-.02.128-.084C.331.44.289.411.219.411H.147v.175h.056M.217.109h-.07v.202H.23C.304.311.358.284.358.207.358.125.299.109.217.109z"/></symbol><symbol id="A"><path d="M.255.562C.095.562 0 .45 0 .281 0 .105.096 0 .254 0c.159 0 .254.113.254.281 0 .176-.095.281-.253.281m0-.106C.324.456.36.403.36.281.36.16.324.106.254.106S.148.159.148.281c0 .121.036.175.107.175z"/></symbol><symbol id="B"><path d="M.137 0c.036 0 .068.008.091.018L.199.119A.06.06 0 0 0 .171.113c-.02 0-.029.012-.029.035v.625L0 .757V.144C0 .052.051 0 .137 0z"/></symbol><symbol id="C"><path d="M.344.773V.509a.182.182 0 0 1-.129.053C.084.562 0 .445 0 .281 0 .112.068 0 .201 0c.071 0 .12.035.152.081L.361.016h.125v.741L.344.773M.243.106C.186.106.148.148.148.281c0 .124.042.176.104.176.039 0 .066-.019.092-.05V.17C.316.128.286.106.243.106z"/></symbol><symbol id="D"><path d="M.444.163v.214c0 .12-.063.185-.21.185A.55.55 0 0 1 .038.523L.07.428a.484.484 0 0 0 .14.028C.277.456.305.435.305.369V.343H.244C.087.343 0 .28 0 .164 0 .068.066 0 .172 0a.18.18 0 0 1 .159.08C.353.027.393.007.453.002l.03.094C.457.105.444.12.444.163M.211.102C.167.102.143.129.143.176c0 .058.038.086.115.086h.047V.161C.283.123.252.102.211.102z"/></symbol><symbol id="E"><path d="M.296.546A.2.2 0 0 1 .134.463L.123.53H0V0h.142v.366C.171.413.203.44.244.44.28.44.302.423.302.362V0h.142v.386c0 .1-.055.16-.148.16z"/></symbol><symbol id="F"><path d="M.253.562C.098.562 0 .445 0 .277 0 .108.097 0 .255 0c.07 0 .126.023.174.062L.367.151A.18.18 0 0 0 .262.114C.195.114.15.155.15.278s.042.174.113.174C.302.452.333.44.367.414l.062.084a.254.254 0 0 1-.176.064z"/></symbol><symbol id="G"><path d="M.439.546H.297V.175C.272.132.239.106.2.106S.142.125.142.183v.363H0V.165C0 .063.05 0 .148 0c.071 0 .123.028.161.087L.316.016h.123v.53z"/></symbol><symbol id="H"><path d="M.274.545C.212.545.161.501.136.427L.123.53H0V0h.142v.274c.019.085.049.133.114.133A.178.178 0 0 0 .303.4l.024.137a.189.189 0 0 1-.053.008z"/></symbol><symbol id="I"><path d="M.48.293C.48.462.391.562.241.562.086.562 0 .438 0 .278 0 .112.089 0 .259 0 .342 0 .408.03.46.072l-.059.08A.215.215 0 0 0 .272.106c-.068 0-.116.03-.126.132h.331L.48.293M.339.327H.146c.007.1.042.138.098.138.068 0 .095-.052.095-.132V.327z"/></symbol><use xlink:href="#z" transform="matrix(20 0 0 -20 63.114 104.22)" fill="#3059ab"/><use xlink:href="#A" transform="matrix(20 0 0 -20 74.714 104.54)" fill="#3059ab"/><use xlink:href="#B" transform="matrix(20 0 0 -20 86.934 104.54)" fill="#3059ab"/><use xlink:href="#C" transform="matrix(20 0 0 -20 92.314 104.54)" fill="#3059ab"/><use xlink:href="#b" transform="matrix(20 0 0 -20 103.434 104.22)" fill="#3059ab"/><use xlink:href="#D" transform="matrix(20 0 0 -20 108.934 104.54)" fill="#3059ab"/><use xlink:href="#E" transform="matrix(20 0 0 -20 120.654 104.22)" fill="#3059ab"/><use xlink:href="#C" transform="matrix(20 0 0 -20 131.694 104.54)" fill="#3059ab"/><use xlink:href="#b" transform="matrix(20 0 0 -20 142.814 104.22)" fill="#3059ab"/><use xlink:href="#F" transform="matrix(20 0 0 -20 148.454 104.54)" fill="#3059ab"/><use xlink:href="#A" transform="matrix(20 0 0 -20 157.614 104.54)" fill="#3059ab"/><use xlink:href="#B" transform="matrix(20 0 0 -20 169.834 104.54)" fill="#3059ab"/><use xlink:href="#A" transform="matrix(20 0 0 -20 175.114 104.54)" fill="#3059ab"/><use xlink:href="#G" transform="matrix(20 0 0 -20 187.334 104.54)" fill="#3059ab"/><use xlink:href="#H" transform="matrix(20 0 0 -20 198.914 104.22)" fill="#3059ab"/><use xlink:href="#I" transform="matrix(20 0 0 -20 205.614 104.54)" fill="#3059ab"/><use xlink:href="#C" transform="matrix(20 0 0 -20 216.734 104.54)" fill="#3059ab"/><symbol id="J"><path d="m.283.282.162.244H.35L.235.329.12.526H.022L.184.278 0 0h.095l.136.228L.365 0h.102L.283.282z"/></symbol><symbol id="K"><path d="M.235.55A.18.18 0 0 1 .084.471V.76L0 .75V.012h.073l.009.059A.18.18 0 0 1 .224 0c.128 0 .205.11.205.276C.429.451.354.55.235.55M.205.067c-.05 0-.093.03-.121.073v.259c.028.044.068.084.128.084.077 0 .127-.056.127-.207C.339.13.285.067.205.067z"/></symbol><symbol id="L"><path d="M.464.737H.377L.235.272.09.737H0L.178.211h.029C.176.127.147.086.04.066L.05 0c.141.018.2.096.237.208l.177.529z"/></symbol><symbol id="M"><path d="M.391.538H.307V.161C.274.106.23.067.17.067.11.067.084.095.084.17v.368H0V.161C0 .058.054 0 .147 0c.076 0 .126.033.165.097L.319.012h.072v.526z"/></symbol><symbol id="N"><path d="M.462.793A.444.444 0 0 0 .224.749c-.116 0-.2-.075-.2-.182C.024.498.052.452.112.42.075.396.055.363.055.328.055.276.097.23.189.23h.083C.34.23.381.204.381.152.381.097.34.066.224.066.106.066.076.094.076.157H0C0 .051.055 0 .224 0c.161 0 .242.057.242.158 0 .082-.07.143-.177.143H.205c-.056 0-.072.02-.072.045 0 .021.011.04.029.052a.209.209 0 0 1 .067-.01c.124 0 .198.074.198.177C.427.629.396.673.335.7c.061.001.11.003.152.016L.462.793M.224.688C.302.688.341.645.341.567S.301.444.226.444C.152.444.11.493.11.567c0 .07.039.121.114.121z"/></symbol><use xlink:href="#j" transform="matrix(20 0 0 -20 227.854 104.22)"/><use xlink:href="#v" transform="matrix(20 0 0 -20 233.434 104.46)"/><use xlink:href="#o" transform="matrix(20 0 0 -20 241.234 104.46)"/><use xlink:href="#J" transform="matrix(20 0 0 -20 250.874 104.22)"/><use xlink:href="#v" transform="matrix(20 0 0 -20 260.554 104.46)"/><use xlink:href="#j" transform="matrix(20 0 0 -20 267.454 104.22)"/><use xlink:href="#K" transform="matrix(20 0 0 -20 274.774 104.46)"/><use xlink:href="#L" transform="matrix(20 0 0 -20 284.794 108.44)"/><use xlink:href="#j" transform="matrix(20 0 0 -20 294.294 104.22)"/><use xlink:href="#M" transform="matrix(20 0 0 -20 301.514 104.46)"/><use xlink:href="#i" transform="matrix(20 0 0 -20 311.834 104.46)"/><use xlink:href="#h" transform="matrix(20 0 0 -20 322.194 104.22)"/><use xlink:href="#w" transform="matrix(20 0 0 -20 328.134 104.22)"/><use xlink:href="#N" transform="matrix(20 0 0 -20 338.414 108.44)"/><use xlink:href="#j" transform="matrix(20 0 0 -20 348.194 104.22)"/><symbol id="O"><path d="M.333.718.283.515h.119l.051.203h.078L.48.515H.6V.44H.461L.42.277h.122V.202H.402L.352 0h-.08l.052.202h-.12L.153 0H.075l.051.202H0v.075h.145L.186.44h-.13v.075h.148l.05.203h.079M.383.44H.265L.224.277h.12l.04.163z"/></symbol><symbol id="P"><path d="M.236.702V.547H.44v-.07H.236V.18c0-.04.007-.068.023-.084C.274.08.3.072.339.072h.1V0H.33C.263 0 .215.014.187.04.16.069.146.115.146.18v.297H0v.07h.146v.155h.09z"/></symbol><symbol id="Q"><path d="M.387.434A.203.203 0 0 1 .33.467a.2.2 0 0 1-.066.01C.207.477.164.46.135.424.105.39.09.338.09.272V0H0v.547h.09V.44a.181.181 0 0 0 .18.12.198.198 0 0 0 .117-.034V.434z"/></symbol><symbol id="R"><path d="M.224.89A.99.99 0 0 1 .127.669a.802.802 0 0 1 0-.445A1.01 1.01 0 0 1 .224 0H.146a1.02 1.02 0 0 0-.11.226.703.703 0 0 0 0 .439c.024.074.06.149.11.226h.078z"/></symbol><symbol id="S"><path d="M.509.547.313.285.528 0H.424l-.16.22L.104 0H0l.215.285-.196.262h.1L.264.349l.144.198h.1z"/></symbol><symbol id="T"><path d="M0 .89h.078a.996.996 0 0 0 .11-.225.701.701 0 0 0 0-.44A.996.996 0 0 0 .078 0H0c.043.076.076.15.097.224a.79.79 0 0 1 0 .444A.983.983 0 0 1 0 .891z"/></symbol><use xlink:href="#O" transform="matrix(16 0 0 -16 353.57 104.22)"/><use xlink:href="#p" transform="matrix(16 0 0 -16 364.85 104.447)"/><use xlink:href="#P" transform="matrix(16 0 0 -16 373.842 104.22)"/><use xlink:href="#Q" transform="matrix(16 0 0 -16 385.278 104.22)"/><use xlink:href="#t" transform="matrix(16 0 0 -16 393.043 104.447)"/><use xlink:href="#p" transform="matrix(16 0 0 -16 403.378 104.447)"/><use xlink:href="#p" transform="matrix(16 0 0 -16 413.01 104.447)"/><use xlink:href="#R" transform="matrix(16 0 0 -16 424.306 106.33)"/><use xlink:href="#P" transform="matrix(16 0 0 -16 431.634 104.22)"/><use xlink:href="#t" transform="matrix(16 0 0 -16 441.203 104.447)"/><use xlink:href="#S" transform="matrix(16 0 0 -16 450.468 104.22)"/><use xlink:href="#P" transform="matrix(16 0 0 -16 460.53 104.22)"/><use xlink:href="#T" transform="matrix(16 0 0 -16 471.857 106.33)"/><use xlink:href="#y" transform="matrix(20 0 0 -20 479.8 104.46)"/><use xlink:href="#e" transform="matrix(20 0 0 -20 46.454 126.2)"/><symbol id="U"><path d="M.241.712C.116.712.028.638.028.535.028.43.095.379.23.338.348.302.382.271.382.2.382.115.314.072.23.072a.269.269 0 0 0-.182.07L0 .088A.32.32 0 0 1 .231 0c.151 0 .241.083.241.203C.472.332.383.376.27.41.146.448.117.477.117.538c0 .067.055.102.128.102A.237.237 0 0 0 .403.58L.45.633a.283.283 0 0 1-.209.079z"/></symbol><symbol id="V"><path d="M.084.748 0 .738V0h.084v.748m.3-.222H.29L.09.287.306 0h.101L.184.293l.2.233z"/></symbol><symbol id="W"><path d="M.064.502A.064.064 0 0 1 0 .438C0 .402.028.373.064.373c.038 0 .065.029.065.065a.063.063 0 0 1-.065.064m0-.373A.064.064 0 0 1 0 .065C0 .029.028 0 .064 0c.038 0 .065.029.065.065a.063.063 0 0 1-.065.064z"/></symbol><use xlink:href="#U" transform="matrix(20 0 0 -20 62.214 131.22)"/><use xlink:href="#k" transform="matrix(20 0 0 -20 73.494 131.22)"/><use xlink:href="#l" transform="matrix(20 0 0 -20 85.334 130.98)"/><use xlink:href="#m" transform="matrix(20 0 0 -20 102.454 135.2)"/><use xlink:href="#n" transform="matrix(20 0 0 -20 114.174 131.22)"/><use xlink:href="#o" transform="matrix(20 0 0 -20 119.214 131.22)"/><use xlink:href="#j" transform="matrix(20 0 0 -20 128.894 130.98)"/><use xlink:href="#n" transform="matrix(20 0 0 -20 136.114 131.22)"/><use xlink:href="#h" transform="matrix(20 0 0 -20 141.674 130.98)"/><use xlink:href="#w" transform="matrix(20 0 0 -20 147.614 130.98)"/><use xlink:href="#V" transform="matrix(20 0 0 -20 159.314 130.98)"/><use xlink:href="#W" transform="matrix(20 0 0 -20 168.554 131.22)"/><use xlink:href="#j" transform="matrix(20 0 0 -20 172.174 130.98)"/><use xlink:href="#v" transform="matrix(20 0 0 -20 177.754 131.22)" fill="#3059ab"/><use xlink:href="#L" transform="matrix(20 0 0 -20 184.774 135.2)" fill="#3059ab"/><use xlink:href="#m" transform="matrix(20 0 0 -20 196.234 135.2)" fill="#3059ab"/><use xlink:href="#i" transform="matrix(20 0 0 -20 206.654 131.22)" fill="#3059ab"/><use xlink:href="#v" transform="matrix(20 0 0 -20 215.634 131.22)" fill="#3059ab"/><use xlink:href="#y" transform="matrix(20 0 0 -20 223.614 131.22)" fill="#3059ab"/><use xlink:href="#k" transform="matrix(20 0 0 -20 228.194 131.22)" fill="#3059ab"/><use xlink:href="#m" transform="matrix(20 0 0 -20 240.034 135.2)" fill="#3059ab"/><use xlink:href="#m" transform="matrix(20 0 0 -20 251.854 135.2)" fill="#3059ab"/><use xlink:href="#y" transform="matrix(20 0 0 -20 262.734 131.22)"/><symbol id="X"><path d="m0 0 .264.148L0 .296V0z"/></symbol><use xlink:href="#X" transform="matrix(20 0 0 -20 63.114 155.46)"/><symbol id="Y"><path d="M.086.688H0V0h.36l.01.076H.086v.612z"/></symbol><use xlink:href="#Y" transform="matrix(20 0 0 -20 81.214 157.74)"/><use xlink:href="#h" transform="matrix(20 0 0 -20 90.614 157.74)"/><use xlink:href="#w" transform="matrix(20 0 0 -20 96.554 157.74)"/><use xlink:href="#V" transform="matrix(20 0 0 -20 108.254 157.74)"/><use xlink:href="#j" transform="matrix(20 0 0 -20 116.414 157.74)"/><use xlink:href="#i" transform="matrix(20 0 0 -20 122.334 157.98)"/><use xlink:href="#v" transform="matrix(20 0 0 -20 131.314 157.98)"/><use xlink:href="#L" transform="matrix(20 0 0 -20 138.334 161.96)"/><use xlink:href="#n" transform="matrix(20 0 0 -20 149.694 157.98)"/><use xlink:href="#h" transform="matrix(20 0 0 -20 155.254 157.74)"/><use xlink:href="#w" transform="matrix(20 0 0 -20 161.194 157.74)"/><use xlink:href="#N" transform="matrix(20 0 0 -20 171.474 161.96)"/><use xlink:href="#j" transform="matrix(20 0 0 -20 181.254 157.74)"/><use xlink:href="#M" transform="matrix(20 0 0 -20 188.474 157.98)"/><use xlink:href="#i" transform="matrix(20 0 0 -20 198.794 157.98)"/><use xlink:href="#h" transform="matrix(20 0 0 -20 209.154 157.74)"/><use xlink:href="#w" transform="matrix(20 0 0 -20 215.094 157.74)"/><use xlink:href="#N" transform="matrix(20 0 0 -20 225.374 161.96)"/><use xlink:href="#j" transform="matrix(20 0 0 -20 235.154 157.74)"/><symbol id="Z"><path d="M.418.339V0h-.09v.339c0 .049-.009.085-.026.108C.285.47.257.482.22.482A.115.115 0 0 1 .124.437.209.209 0 0 1 .09.309V0H0v.547h.09V.465a.168.168 0 0 0 .065.07C.182.553.215.56.252.56.308.56.349.542.376.505.404.468.418.413.418.339z"/></symbol><symbol id="aa"><path d="M0 .76h.093V.32l.236.227h.109L.223.34.472 0h-.11L.16.282.093.22V0H0v.76z"/></symbol><symbol id="ab"><path d="M0 .08h.254V0H0v.08z"/></symbol><symbol id="ac"><path d="M.368.384a8.987 8.987 0 0 1-.057-.15A1.445 1.445 0 0 0 .246.075.153.153 0 0 0 .19.02.157.157 0 0 0 .11 0H.04v.075h.053C.12.075.14.083.154.098a.394.394 0 0 1 .057.119L0 .755h.095L.257.327l.16.428h.095L.368.384z"/></symbol><use xlink:href="#q" transform="matrix(16 0 0 -16 241.764 157.74)"/><use xlink:href="#r" transform="matrix(16 0 0 -16 251.537 157.74)"/><use xlink:href="#Z" transform="matrix(16 0 0 -16 261.302 157.74)"/><use xlink:href="#aa" transform="matrix(16 0 0 -16 271.254 157.74)"/><use xlink:href="#ab" transform="matrix(16 0 0 -16 281.824 153.998)"/><use xlink:href="#p" transform="matrix(16 0 0 -16 290.338 157.967)"/><use xlink:href="#P" transform="matrix(16 0 0 -16 299.33 157.74)"/><use xlink:href="#ac" transform="matrix(16 0 0 -16 308.75 161.068)"/><use xlink:href="#q" transform="matrix(16 0 0 -16 318.82 157.74)"/><use xlink:href="#t" transform="matrix(16 0 0 -16 328.163 157.967)"/><use xlink:href="#W" transform="matrix(20 0 0 -20 337.862 157.98)"/><use xlink:href="#j" transform="matrix(20 0 0 -20 341.482 157.74)"/><symbol id="ad"><path d="M.272.271V0H.187v.271h.085m-.187 0V0H0v.271h.085z"/></symbol><symbol id="ae"><path d="M.423.042A.303.303 0 0 0 .27 0a.26.26 0 0 0-.199.076A.297.297 0 0 0 0 .287c0 .09.024.16.071.211A.26.26 0 0 0 .27.574.292.292 0 0 0 .423.532V.438a.218.218 0 0 1-.153.06.16.16 0 0 1-.13-.055.238.238 0 0 1-.045-.156A.24.24 0 0 1 .14.131.16.16 0 0 1 .27.076c.031 0 .06.005.084.014.025.01.048.025.069.045V.042z"/></symbol><symbol id="af"><path d="M.234.498A.116.116 0 0 1 .13.445.288.288 0 0 1 .095.287.29.29 0 0 1 .13.13.116.116 0 0 1 .234.076c.046 0 .08.018.104.053a.29.29 0 0 1 .035.158c0 .07-.012.122-.035.158a.117.117 0 0 1-.104.053m0 .076C.31.574.368.55.408.5c.04-.049.06-.12.06-.213a.332.332 0 0 0-.06-.214C.368.024.31 0 .234 0 .158 0 .1.024.06.073.02.123 0 .193 0 .287 0 .38.02.451.06.5.1.55.158.574.234.574z"/></symbol><use xlink:href="#ad" transform="matrix(16 0 0 -16 349.483 150.412)"/><use xlink:href="#ae" transform="matrix(16 0 0 -16 357.998 157.967)"/><use xlink:href="#af" transform="matrix(16 0 0 -16 367.177 157.967)"/><use xlink:href="#q" transform="matrix(16 0 0 -16 376.988 157.74)"/><use xlink:href="#af" transform="matrix(16 0 0 -16 386.44 157.967)"/><use xlink:href="#Q" transform="matrix(16 0 0 -16 397.83 157.74)"/><use xlink:href="#ad" transform="matrix(16 0 0 -16 407.275 150.412)"/><symbol id="ag"><path d="M.077.28A.064.064 0 0 1 .013.216C.013.194.024.174.04.162L0 0h.06l.065.149a.157.157 0 0 1 .017.067.063.063 0 0 1-.065.064z"/></symbol><use xlink:href="#ag" transform="matrix(20 0 0 -20 415.032 161)"/><use xlink:href="#j" transform="matrix(20 0 0 -20 418.912 157.74)"/><symbol id="ah"><path d="M0 .221v.34h.09V.22C.09.172.098.136.116.113.133.09.16.078.196.078c.043 0 .075.015.098.045A.21.21 0 0 1 .328.25v.31h.09V.013h-.09v.082A.17.17 0 0 0 .166 0C.11 0 .068.018.041.055.014.09 0 .147 0 .22z"/></symbol><use xlink:href="#ad" transform="matrix(16 0 0 -16 426.913 150.412)"/><use xlink:href="#ah" transform="matrix(16 0 0 -16 435.428 157.967)"/><use xlink:href="#Z" transform="matrix(16 0 0 -16 445.06 157.74)"/><use xlink:href="#s" transform="matrix(16 0 0 -16 454.129 157.967)"/><use xlink:href="#t" transform="matrix(16 0 0 -16 463.761 157.967)"/><use xlink:href="#Q" transform="matrix(16 0 0 -16 475.26 157.74)"/><use xlink:href="#q" transform="matrix(16 0 0 -16 483.314 157.74)"/><use xlink:href="#r" transform="matrix(16 0 0 -16 493.087 157.74)"/><use xlink:href="#Z" transform="matrix(16 0 0 -16 502.851 157.74)"/><use xlink:href="#t" transform="matrix(16 0 0 -16 511.921 157.967)"/><use xlink:href="#ad" transform="matrix(16 0 0 -16 523.233 150.412)"/><use xlink:href="#ag" transform="matrix(20 0 0 -20 530.993 161)"/><use xlink:href="#j" transform="matrix(20 0 0 -20 534.873 157.74)"/><symbol id="ai"><path d="M.354.287c0 .07-.011.122-.033.158a.108.108 0 0 1-.098.053.11.11 0 0 1-.1-.054A.297.297 0 0 1 .09.287C.09.218.1.166.124.13A.11.11 0 0 1 .223.076C.266.076.299.094.32.13a.302.302 0 0 1 .033.158M.09.491a.152.152 0 0 0 .059.062.176.176 0 0 0 .088.021.183.183 0 0 0 .155-.076A.342.342 0 0 0 .45.289.35.35 0 0 0 .392.077.183.183 0 0 0 .236 0a.174.174 0 0 0-.087.021.159.159 0 0 0-.06.062V.014H0v.76h.09V.49z"/></symbol><symbol id="aj"><path d="M.418.339V0h-.09v.339c0 .049-.009.085-.026.108C.285.47.257.482.22.482A.115.115 0 0 1 .124.437.209.209 0 0 1 .09.309V0H0v.76h.09V.465a.168.168 0 0 0 .065.07C.182.553.215.56.252.56.308.56.349.542.376.505.404.468.418.413.418.339z"/></symbol><use xlink:href="#ad" transform="matrix(16 0 0 -16 542.874 150.412)"/><use xlink:href="#ai" transform="matrix(16 0 0 -16 551.373 157.967)"/><use xlink:href="#af" transform="matrix(16 0 0 -16 560.567 157.967)"/><use xlink:href="#P" transform="matrix(16 0 0 -16 570.152 157.74)"/><use xlink:href="#aj" transform="matrix(16 0 0 -16 580.284 157.74)"/><use xlink:href="#ad" transform="matrix(16 0 0 -16 591.034 150.412)"/><use xlink:href="#e" transform="matrix(20 0 0 -20 46.454 179.72)"/><symbol id="ak"><path d="M0 0h.086v.307h.228v.069H.086v.242H.35l.01.07H0V0z"/></symbol><symbol id="al"><path d="M.228.55C.087.55 0 .439 0 .271 0 .101.088 0 .228 0c.06 0 .113.02.158.058L.347.113A.189.189 0 0 0 .231.072c-.086 0-.141.06-.141.2C.09.413.145.48.231.48A.179.179 0 0 0 .345.441l.041.053A.23.23 0 0 1 .228.55z"/></symbol><use xlink:href="#ak" transform="matrix(20 0 0 -20 63.714 184.5)"/><use xlink:href="#x" transform="matrix(20 0 0 -20 71.914 184.74)"/><use xlink:href="#w" transform="matrix(20 0 0 -20 84.314 184.5)"/><use xlink:href="#v" transform="matrix(20 0 0 -20 94.274 184.74)"/><use xlink:href="#j" transform="matrix(20 0 0 -20 101.174 184.5)"/><use xlink:href="#i" transform="matrix(20 0 0 -20 107.094 184.74)"/><use xlink:href="#o" transform="matrix(20 0 0 -20 117.034 184.74)"/><use xlink:href="#n" transform="matrix(20 0 0 -20 128.574 184.74)"/><use xlink:href="#o" transform="matrix(20 0 0 -20 133.614 184.74)"/><use xlink:href="#al" transform="matrix(20 0 0 -20 144.474 184.74)"/><use xlink:href="#v" transform="matrix(20 0 0 -20 153.034 184.74)"/><use xlink:href="#h" transform="matrix(20 0 0 -20 161.534 184.5)"/><use xlink:href="#x" transform="matrix(20 0 0 -20 166.694 184.74)"/><use xlink:href="#w" transform="matrix(20 0 0 -20 179.094 184.5)"/><use xlink:href="#j" transform="matrix(20 0 0 -20 188.834 184.5)"/><use xlink:href="#M" transform="matrix(20 0 0 -20 196.054 184.74)"/><use xlink:href="#i" transform="matrix(20 0 0 -20 206.374 184.74)"/><use xlink:href="#h" transform="matrix(20 0 0 -20 216.734 184.5)"/><use xlink:href="#w" transform="matrix(20 0 0 -20 222.674 184.5)"/><use xlink:href="#N" transform="matrix(20 0 0 -20 232.954 188.72)"/><use xlink:href="#j" transform="matrix(20 0 0 -20 242.734 184.5)"/><symbol id="am"><path d="M.424.76V.685H.322C.29.685.267.678.254.665.242.652.236.629.236.595V.547h.188v-.07H.236V0h-.09v.477H0v.07h.146v.038c0 .06.014.104.041.132.028.029.07.043.129.043h.108z"/></symbol><symbol id="an"><path d="M0 .519h.123V.371H0V.52m0-.37h.123V0H0v.149z"/></symbol><symbol id="ao"><path d="M0 0z"/></symbol><symbol id="ap"><path d="M0 .729h.43V.646H.1V.431h.298V.348H.1V0H0v.729z"/></symbol><symbol id="aq"><path d="M.278.29h-.03A.208.208 0 0 1 .129.26C.103.243.09.216.09.18.09.146.1.121.12.103A.117.117 0 0 1 .203.075c.05 0 .089.017.117.051A.22.22 0 0 1 .362.27v.02H.278m.174.037V.014h-.09v.081A.187.187 0 0 0 .289.023.225.225 0 0 0 .183 0C.127 0 .083.016.05.047A.166.166 0 0 0 0 .173C0 .234.02.28.061.312a.292.292 0 0 0 .18.047h.12v.015c0 .043-.01.075-.032.094-.022.02-.057.03-.105.03A.404.404 0 0 1 .04.446v.09a.609.609 0 0 0 .184.038.3.3 0 0 0 .116-.02.182.182 0 0 0 .078-.06.152.152 0 0 0 .026-.06.543.543 0 0 0 .008-.108z"/></symbol><symbol id="ar"><path d="M.426.718v-.1a.389.389 0 0 1-.09.044.291.291 0 0 1-.09.014.17.17 0 0 1-.111-.032.106.106 0 0 1-.04-.088C.094.524.102.5.12.482A.225.225 0 0 1 .22.44L.271.428a.286.286 0 0 0 .15-.075.2.2 0 0 0 .046-.14C.468.144.447.091.404.055.36.018.298 0 .216 0A.564.564 0 0 0 .01.044v.105A.489.489 0 0 1 .115.097.32.32 0 0 1 .216.08c.05 0 .089.011.117.033a.114.114 0 0 1 .041.094c0 .036-.01.064-.029.084a.2.2 0 0 1-.099.044L.193.347a.297.297 0 0 0-.147.07A.17.17 0 0 0 0 .54a.2.2 0 0 0 .065.156c.044.04.103.06.175.06A.645.645 0 0 0 .426.718z"/></symbol><use xlink:href="#am" transform="matrix(16 0 0 -16 249.618 184.5)"/><use xlink:href="#af" transform="matrix(16 0 0 -16 258.797 184.727)"/><use xlink:href="#Z" transform="matrix(16 0 0 -16 268.882 184.5)"/><use xlink:href="#P" transform="matrix(16 0 0 -16 278.014 184.5)"/><use xlink:href="#an" transform="matrix(16 0 0 -16 290.443 184.5)"/><use xlink:href="#ao" transform="matrix(16 0 0 -16 296.254 184.5)"/><use xlink:href="#ad" transform="matrix(16 0 0 -16 308.527 177.172)"/><use xlink:href="#ap" transform="matrix(16 0 0 -16 317.339 184.5)"/><use xlink:href="#r" transform="matrix(16 0 0 -16 326.541 184.5)"/><use xlink:href="#Q" transform="matrix(16 0 0 -16 337.61 184.5)"/><use xlink:href="#aq" transform="matrix(16 0 0 -16 345.453 184.727)"/><use xlink:href="#ao" transform="matrix(16 0 0 -16 354.046 184.5)"/><use xlink:href="#ar" transform="matrix(16 0 0 -16 364.764 184.727)"/><use xlink:href="#aq" transform="matrix(16 0 0 -16 374.35 184.727)"/><use xlink:href="#Z" transform="matrix(16 0 0 -16 384.466 184.5)"/><use xlink:href="#p" transform="matrix(16 0 0 -16 394.238 184.727)"/><use xlink:href="#ad" transform="matrix(16 0 0 -16 404.847 177.172)"/><use xlink:href="#ag" transform="matrix(20 0 0 -20 412.612 187.76)"/><use xlink:href="#j" transform="matrix(20 0 0 -20 416.492 184.5)"/><symbol id="as"><path d="M.012.548h.397V.466L.095.073h.314V0H0v.083l.314.393H.012v.072z"/></symbol><symbol id="at"><path d="M.108.083h.335V0H0v.083a20.136 20.136 0 0 1 .254.274c.032.04.054.072.066.096A.18.18 0 0 1 .337.53C.337.569.325.6.3.625a.135.135 0 0 1-.098.034.297.297 0 0 1-.094-.016.523.523 0 0 1-.103-.049v.1A.535.535 0 0 0 .104.73a.396.396 0 0 0 .097.012.25.25 0 0 0 .172-.057.187.187 0 0 0 .065-.149.22.22 0 0 0-.022-.094.455.455 0 0 0-.07-.103A15.72 15.72 0 0 0 .108.083z"/></symbol><symbol id="au"><path d="M.012.083h.153V.64L0 .603v.09l.164.036h.099V.083h.151V0H.012v.083z"/></symbol><symbol id="av"><path d="M.09.277V0H0v.755h.09v-.07a.155.155 0 0 0 .06.062.171.171 0 0 0 .086.021.182.182 0 0 0 .156-.077A.351.351 0 0 0 .448.48a.344.344 0 0 0-.056-.21.183.183 0 0 0-.156-.075.152.152 0 0 0-.146.083M.354.48c0 .07-.011.122-.033.158a.107.107 0 0 1-.098.053.11.11 0 0 1-.099-.054A.297.297 0 0 1 .09.481C.09.411.102.36.124.324a.11.11 0 0 1 .1-.054C.265.27.298.288.32.323a.302.302 0 0 1 .033.158z"/></symbol><use xlink:href="#p" transform="matrix(16 0 0 -16 423.516 184.727)"/><use xlink:href="#r" transform="matrix(16 0 0 -16 432.875 184.5)"/><use xlink:href="#as" transform="matrix(16 0 0 -16 442.702 184.5)"/><use xlink:href="#t" transform="matrix(16 0 0 -16 451.71 184.727)"/><use xlink:href="#an" transform="matrix(16 0 0 -16 464.2 184.5)"/><use xlink:href="#ao" transform="matrix(16 0 0 -16 470.012 184.5)"/><use xlink:href="#at" transform="matrix(16 0 0 -16 480.832 184.5)"/><use xlink:href="#au" transform="matrix(16 0 0 -16 491.198 184.5)"/><use xlink:href="#av" transform="matrix(16 0 0 -16 500.392 187.828)"/><use xlink:href="#P" transform="matrix(16 0 0 -16 509.563 184.5)"/><use xlink:href="#y" transform="matrix(20 0 0 -20 519.2 184.74)"/><path d="M45.354 209.012a4.67 4.67 0 0 1 4.67-4.67h706.723a4.67 4.67 0 0 1 4.67 4.67v65.197a4.67 4.67 0 0 1-4.67 4.67H50.024a4.67 4.67 0 0 1-4.67-4.67z" fill="#fbf7ee"/><path stroke-width="2" fill="none" stroke="#000" d="M50.024 204.343h706.723a4.67 4.67 0 0 1 4.67 4.669v65.197a4.67 4.67 0 0 1-4.67 4.67H50.024a4.67 4.67 0 0 1-4.67-4.67v-65.197a4.67 4.67 0 0 1 4.67-4.67"/><symbol id="aw"><path d="M.222.538C.157.538.108.497.08.416l-.008.11H0V0h.084v.308c.024.101.062.148.129.148.019 0 .03-.002.046-.006l.015.082a.212.212 0 0 1-.052.006z"/></symbol><use xlink:href="#f" transform="matrix(20 0 0 -20 62.662 235.11)"/><use xlink:href="#g" transform="matrix(20 0 0 -20 74.562 235.11)"/><use xlink:href="#h" transform="matrix(20 0 0 -20 85.902 235.11)"/><use xlink:href="#i" transform="matrix(20 0 0 -20 90.442 235.35)"/><use xlink:href="#j" transform="matrix(20 0 0 -20 99.202 235.11)"/><use xlink:href="#v" transform="matrix(20 0 0 -20 104.782 235.35)"/><use xlink:href="#o" transform="matrix(20 0 0 -20 112.582 235.35)"/><use xlink:href="#J" transform="matrix(20 0 0 -20 122.222 235.11)"/><use xlink:href="#v" transform="matrix(20 0 0 -20 131.902 235.35)"/><use xlink:href="#j" transform="matrix(20 0 0 -20 138.802 235.11)"/><use xlink:href="#g" transform="matrix(20 0 0 -20 146.122 235.11)"/><use xlink:href="#k" transform="matrix(20 0 0 -20 156.822 235.35)"/><use xlink:href="#i" transform="matrix(20 0 0 -20 167.062 235.35)"/><use xlink:href="#j" transform="matrix(20 0 0 -20 175.822 235.11)"/><use xlink:href="#K" transform="matrix(20 0 0 -20 183.142 235.35)"/><use xlink:href="#o" transform="matrix(20 0 0 -20 194.182 235.35)"/><use xlink:href="#o" transform="matrix(20 0 0 -20 205.042 235.35)"/><use xlink:href="#w" transform="matrix(20 0 0 -20 216.682 235.11)"/><use xlink:href="#j" transform="matrix(20 0 0 -20 226.422 235.11)"/><use xlink:href="#u" transform="matrix(20 0 0 -20 232.202 235.11)"/><use xlink:href="#aw" transform="matrix(20 0 0 -20 248.002 235.11)"/><use xlink:href="#h" transform="matrix(20 0 0 -20 255.302 235.11)"/><use xlink:href="#v" transform="matrix(20 0 0 -20 259.502 235.35)"/><use xlink:href="#v" transform="matrix(20 0 0 -20 266.622 235.35)"/><use xlink:href="#o" transform="matrix(20 0 0 -20 274.422 235.35)"/><use xlink:href="#w" transform="matrix(20 0 0 -20 286.062 235.11)"/><use xlink:href="#j" transform="matrix(20 0 0 -20 295.802 235.11)"/><use xlink:href="#M" transform="matrix(20 0 0 -20 303.022 235.35)"/><use xlink:href="#i" transform="matrix(20 0 0 -20 313.342 235.35)"/><use xlink:href="#h" transform="matrix(20 0 0 -20 323.702 235.11)"/><use xlink:href="#w" transform="matrix(20 0 0 -20 329.642 235.11)"/><use xlink:href="#N" transform="matrix(20 0 0 -20 339.922 239.33)"/><use xlink:href="#j" transform="matrix(20 0 0 -20 349.702 235.11)"/><symbol id="ax"><path d="M.277.491c.01.024.025.04.042.052A.11.11 0 0 0 .38.56C.425.56.456.543.474.51A.454.454 0 0 0 .5.317V0H.419v.313a.45.45 0 0 1-.013.144C.397.475.382.485.359.485.333.485.315.475.305.455A.422.422 0 0 1 .291.313V0H.209v.313a.422.422 0 0 1-.014.145C.185.476.169.485.145.485c-.024 0-.04-.01-.05-.03A.436.436 0 0 1 .082.313V0H0v.547h.082V.5c.01.02.024.034.04.044A.1.1 0 0 0 .177.56.105.105 0 0 0 .238.543.109.109 0 0 0 .277.491z"/></symbol><use xlink:href="#O" transform="matrix(16 0 0 -16 355.078 235.11)"/><use xlink:href="#am" transform="matrix(16 0 0 -16 366.218 235.11)"/><use xlink:href="#Q" transform="matrix(16 0 0 -16 377.154 235.11)"/><use xlink:href="#aq" transform="matrix(16 0 0 -16 384.997 235.337)"/><use xlink:href="#ax" transform="matrix(16 0 0 -16 394.442 235.11)"/><use xlink:href="#t" transform="matrix(16 0 0 -16 404.183 235.337)"/><use xlink:href="#s" transform="matrix(16 0 0 -16 413.815 235.337)"/><use xlink:href="#R" transform="matrix(16 0 0 -16 425.814 237.22)"/><use xlink:href="#P" transform="matrix(16 0 0 -16 433.142 235.11)"/><use xlink:href="#t" transform="matrix(16 0 0 -16 442.711 235.337)"/><use xlink:href="#S" transform="matrix(16 0 0 -16 451.976 235.11)"/><use xlink:href="#P" transform="matrix(16 0 0 -16 462.038 235.11)"/><use xlink:href="#T" transform="matrix(16 0 0 -16 473.365 237.22)"/><symbol id="ay"><path d="M.349.76V.484A.19.19 0 0 1 .206.55C.077.55 0 .434 0 .273 0 .108.071 0 .198 0c.067 0 .12.034.153.086L.36.012h.073V.75L.349.76M.215.067C.136.067.09.134.09.274c0 .14.052.209.134.209.055 0 .093-.028.125-.071V.15C.314.097.276.067.215.067z"/></symbol><symbol id="az"><path d="M.258.68A.226.226 0 0 0 .351.66l.027.061a.286.286 0 0 1-.125.027C.15.748.093.688.093.601V.526H0V.461h.093V0h.084v.461h.121l.009.065h-.13v.076c0 .053.022.078.081.078z"/></symbol><use xlink:href="#y" transform="matrix(20 0 0 -20 481.309 235.35)"/><use xlink:href="#j" transform="matrix(20 0 0 -20 484.929 235.11)"/><use xlink:href="#f" transform="matrix(20 0 0 -20 490.589 235.11)"/><use xlink:href="#g" transform="matrix(20 0 0 -20 502.489 235.11)"/><use xlink:href="#o" transform="matrix(20 0 0 -20 513.409 235.35)"/><use xlink:href="#j" transform="matrix(20 0 0 -20 523.089 235.11)"/><use xlink:href="#K" transform="matrix(20 0 0 -20 530.409 235.35)"/><use xlink:href="#k" transform="matrix(20 0 0 -20 541.029 235.35)"/><use xlink:href="#al" transform="matrix(20 0 0 -20 552.089 235.35)"/><use xlink:href="#V" transform="matrix(20 0 0 -20 562.389 235.11)"/><use xlink:href="#N" transform="matrix(20 0 0 -20 570.949 239.33)"/><use xlink:href="#aw" transform="matrix(20 0 0 -20 582.689 235.11)"/><use xlink:href="#x" transform="matrix(20 0 0 -20 588.969 235.35)"/><use xlink:href="#M" transform="matrix(20 0 0 -20 601.269 235.35)"/><use xlink:href="#w" transform="matrix(20 0 0 -20 612.989 235.11)"/><use xlink:href="#ay" transform="matrix(20 0 0 -20 624.009 235.35)"/><use xlink:href="#j" transform="matrix(20 0 0 -20 634.629 235.11)"/><use xlink:href="#al" transform="matrix(20 0 0 -20 641.169 235.35)"/><use xlink:href="#x" transform="matrix(20 0 0 -20 650.309 235.35)"/><use xlink:href="#n" transform="matrix(20 0 0 -20 662.609 235.35)"/><use xlink:href="#x" transform="matrix(20 0 0 -20 667.649 235.35)"/><use xlink:href="#aw" transform="matrix(20 0 0 -20 680.049 235.11)"/><use xlink:href="#j" transform="matrix(20 0 0 -20 685.749 235.11)"/><use xlink:href="#x" transform="matrix(20 0 0 -20 692.289 235.35)"/><use xlink:href="#az" transform="matrix(20 0 0 -20 702.989 235.11)"/><use xlink:href="#j" transform="matrix(20 0 0 -20 709.369 235.11)"/><use xlink:href="#v" transform="matrix(20 0 0 -20 714.949 235.35)"/><use xlink:href="#g" transform="matrix(20 0 0 -20 723.809 235.11)"/><use xlink:href="#o" transform="matrix(20 0 0 -20 734.729 235.35)"/><use xlink:href="#K" transform="matrix(20 0 0 -20 64.322 262.11)"/><use xlink:href="#x" transform="matrix(20 0 0 -20 75.362 262.11)"/><use xlink:href="#J" transform="matrix(20 0 0 -20 85.762 261.87)"/><use xlink:href="#j" transform="matrix(20 0 0 -20 95.222 261.87)"/><use xlink:href="#h" transform="matrix(20 0 0 -20 102.182 261.87)"/><use xlink:href="#i" transform="matrix(20 0 0 -20 106.722 262.11)"/><use xlink:href="#j" transform="matrix(20 0 0 -20 115.482 261.87)"/><use xlink:href="#al" transform="matrix(20 0 0 -20 122.022 262.11)"/><use xlink:href="#M" transform="matrix(20 0 0 -20 132.022 262.11)"/><use xlink:href="#i" transform="matrix(20 0 0 -20 142.342 262.11)"/><use xlink:href="#v" transform="matrix(20 0 0 -20 151.322 262.11)"/><use xlink:href="#x" transform="matrix(20 0 0 -20 159.122 262.11)"/><use xlink:href="#l" transform="matrix(20 0 0 -20 171.522 261.87)"/><use xlink:href="#h" transform="matrix(20 0 0 -20 188.282 261.87)"/><use xlink:href="#i" transform="matrix(20 0 0 -20 192.822 262.11)"/><use xlink:href="#k" transform="matrix(20 0 0 -20 202.342 262.11)"/><use xlink:href="#K" transform="matrix(20 0 0 -20 214.182 262.11)"/><use xlink:href="#n" transform="matrix(20 0 0 -20 225.902 262.11)"/><use xlink:href="#o" transform="matrix(20 0 0 -20 230.942 262.11)"/><use xlink:href="#y" transform="matrix(20 0 0 -20 241.442 262.11)"/><path d="M62.362 320.398a4.67 4.67 0 0 1 4.67-4.67h707.826a4.67 4.67 0 0 1 4.67 4.67v40.352H62.362z" fill="#3059ab"/><path d="M67.031 316.729v-2h707.827a5.67 5.67 0 0 1 5.67 5.669v41.352H61.362v-41.352a5.67 5.67 0 0 1 5.67-5.67v2a3.67 3.67 0 0 0-3.67 3.67v39.352h715.166v-39.352a3.67 3.67 0 0 0-3.67-3.67z"/><symbol id="aA"><path d="M0 0h.147v.282h.208v.107H.147v.196h.239l.016.107H0V0z"/></symbol><symbol id="aB"><path d="M.573.546C.505.546.456.515.414.46a.127.127 0 0 1-.126.086.183.183 0 0 1-.154-.082L.123.53H0V0h.142v.366C.168.413.194.44.233.44.262.44.285.423.285.362V0h.142v.366C.454.413.48.44.519.44.547.44.571.423.571.362V0h.142v.386c0 .1-.057.16-.14.16z"/></symbol><symbol id="aC"><path d="M.725.53H.589L.517.105.438.53H.296L.208.105.143.53H0L.116 0h.171l.076.403L.439 0h.173l.113.53z"/></symbol><symbol id="aD"><path d="M.086.803C.035.803 0 .767 0 .72 0 .673.035.637.086.637c.051 0 .087.036.087.083 0 .047-.036.083-.087.083M.158.53H.016V0h.142v.53z"/></symbol><symbol id="aE"><path d="M.334.131a.124.124 0 0 0-.06-.018c-.036 0-.053.02-.053.072v.261h.108l.014.1H.221v.133L.079.662V.546H0v-.1h.079V.182C.079.064.135.001.245 0a.25.25 0 0 1 .138.041l-.049.09z"/></symbol><symbol id="aF"><path d="M.296.546A.193.193 0 0 1 .142.47v.286L0 .741V0h.142v.367C.171.413.204.44.244.44.279.44.302.423.302.362V0h.142v.386c0 .1-.056.16-.148.16z"/></symbol><use xlink:href="#aA" transform="matrix(20 0 0 -20 80.83 345.16)" fill="#fff"/><use xlink:href="#H" transform="matrix(20 0 0 -20 89.83 345.16)" fill="#fff"/><use xlink:href="#D" transform="matrix(20 0 0 -20 96.29 345.48)" fill="#fff"/><use xlink:href="#aB" transform="matrix(20 0 0 -20 108.01 345.16)" fill="#fff"/><use xlink:href="#I" transform="matrix(20 0 0 -20 124.33 345.48)" fill="#fff"/><use xlink:href="#b" transform="matrix(20 0 0 -20 134.59 345.16)" fill="#fff"/><use xlink:href="#aC" transform="matrix(20 0 0 -20 139.63 345.16)" fill="#fff"/><use xlink:href="#aD" transform="matrix(20 0 0 -20 155.37 345.16)" fill="#fff"/><use xlink:href="#aE" transform="matrix(20 0 0 -20 160.01 345.48)" fill="#fff"/><use xlink:href="#aF" transform="matrix(20 0 0 -20 168.93 345.16)" fill="#fff"/><use xlink:href="#b" transform="matrix(20 0 0 -20 179.11 345.16)" fill="#fff"/><use xlink:href="#aE" transform="matrix(20 0 0 -20 184.07 345.48)" fill="#fff"/><use xlink:href="#aD" transform="matrix(20 0 0 -20 192.67 345.16)" fill="#fff"/><use xlink:href="#aE" transform="matrix(20 0 0 -20 197.31 345.48)" fill="#fff"/><use xlink:href="#B" transform="matrix(20 0 0 -20 205.93 345.48)" fill="#fff"/><use xlink:href="#I" transform="matrix(20 0 0 -20 211.21 345.48)" fill="#fff"/><path d="M62.362 360.75h717.166v43.106a4.67 4.67 0 0 1-4.67 4.67H67.031a4.67 4.67 0 0 1-4.669-4.67z" fill="#fff"/><path d="m63.362 361.75-2-2h719.166v44.106a5.67 5.67 0 0 1-5.67 5.67H67.031a5.67 5.67 0 0 1-5.669-5.67V359.75l2 2v42.106a3.67 3.67 0 0 0 3.67 3.67h707.826a3.67 3.67 0 0 0 3.67-3.67V361.75z"/><use xlink:href="#f" transform="matrix(20 0 0 -20 79.67 391.518)"/><use xlink:href="#g" transform="matrix(20 0 0 -20 91.57 391.518)"/><use xlink:href="#h" transform="matrix(20 0 0 -20 102.91 391.518)"/><use xlink:href="#i" transform="matrix(20 0 0 -20 107.45 391.758)"/><use xlink:href="#j" transform="matrix(20 0 0 -20 116.21 391.518)"/><use xlink:href="#v" transform="matrix(20 0 0 -20 121.79 391.758)"/><use xlink:href="#o" transform="matrix(20 0 0 -20 129.59 391.758)"/><use xlink:href="#J" transform="matrix(20 0 0 -20 139.23 391.518)"/><use xlink:href="#v" transform="matrix(20 0 0 -20 148.91 391.758)"/><use xlink:href="#j" transform="matrix(20 0 0 -20 155.81 391.518)"/><use xlink:href="#g" transform="matrix(20 0 0 -20 163.13 391.518)"/><use xlink:href="#k" transform="matrix(20 0 0 -20 173.83 391.758)"/><use xlink:href="#i" transform="matrix(20 0 0 -20 184.07 391.758)"/><use xlink:href="#j" transform="matrix(20 0 0 -20 192.83 391.518)"/><use xlink:href="#K" transform="matrix(20 0 0 -20 200.15 391.758)"/><use xlink:href="#o" transform="matrix(20 0 0 -20 211.19 391.758)"/><use xlink:href="#o" transform="matrix(20 0 0 -20 222.05 391.758)"/><use xlink:href="#w" transform="matrix(20 0 0 -20 233.69 391.518)"/><use xlink:href="#j" transform="matrix(20 0 0 -20 243.43 391.518)"/><use xlink:href="#u" transform="matrix(20 0 0 -20 249.21 391.518)"/><use xlink:href="#aw" transform="matrix(20 0 0 -20 265.01 391.518)"/><use xlink:href="#h" transform="matrix(20 0 0 -20 272.31 391.518)"/><use xlink:href="#v" transform="matrix(20 0 0 -20 276.51 391.758)"/><use xlink:href="#v" transform="matrix(20 0 0 -20 283.63 391.758)"/><use xlink:href="#o" transform="matrix(20 0 0 -20 291.43 391.758)"/><use xlink:href="#w" transform="matrix(20 0 0 -20 303.07 391.518)"/><use xlink:href="#j" transform="matrix(20 0 0 -20 312.81 391.518)"/><use xlink:href="#M" transform="matrix(20 0 0 -20 320.03 391.758)"/><use xlink:href="#i" transform="matrix(20 0 0 -20 330.35 391.758)"/><use xlink:href="#h" transform="matrix(20 0 0 -20 340.71 391.518)"/><use xlink:href="#w" transform="matrix(20 0 0 -20 346.65 391.518)"/><use xlink:href="#N" transform="matrix(20 0 0 -20 356.93 395.738)"/><use xlink:href="#j" transform="matrix(20 0 0 -20 366.71 391.518)"/><symbol id="aG"><path d="M0 .547h.089L.184.105l.078.282H.34L.418.105l.095.442h.09L.473 0H.388L.301.3.214 0H.128L0 .547z"/></symbol><symbol id="aH"><path d="M0 .892h.207v-.07H.09V.07h.117V0H0v.892z"/></symbol><symbol id="aI"><path d="M.207.892V0H0v.07h.117v.752H0v.07h.207z"/></symbol><use xlink:href="#O" transform="matrix(16 0 0 -16 372.086 391.518)"/><use xlink:href="#am" transform="matrix(16 0 0 -16 383.226 391.518)"/><use xlink:href="#Q" transform="matrix(16 0 0 -16 394.162 391.518)"/><use xlink:href="#aq" transform="matrix(16 0 0 -16 402.005 391.744)"/><use xlink:href="#ax" transform="matrix(16 0 0 -16 411.45 391.518)"/><use xlink:href="#t" transform="matrix(16 0 0 -16 421.191 391.744)"/><use xlink:href="#s" transform="matrix(16 0 0 -16 430.823 391.744)"/><use xlink:href="#R" transform="matrix(16 0 0 -16 442.822 393.627)"/><use xlink:href="#P" transform="matrix(16 0 0 -16 450.15 391.518)"/><use xlink:href="#r" transform="matrix(16 0 0 -16 460.149 391.518)"/><use xlink:href="#P" transform="matrix(16 0 0 -16 469.413 391.518)"/><use xlink:href="#q" transform="matrix(16 0 0 -16 479.272 391.518)"/><use xlink:href="#t" transform="matrix(16 0 0 -16 488.615 391.744)"/><use xlink:href="#an" transform="matrix(16 0 0 -16 501.106 391.518)"/><use xlink:href="#ad" transform="matrix(16 0 0 -16 509.559 384.19)"/><use xlink:href="#ap" transform="matrix(16 0 0 -16 518.37 391.518)"/><use xlink:href="#Q" transform="matrix(16 0 0 -16 529.01 391.518)"/><use xlink:href="#aq" transform="matrix(16 0 0 -16 536.853 391.744)"/><use xlink:href="#ax" transform="matrix(16 0 0 -16 546.297 391.518)"/><use xlink:href="#t" transform="matrix(16 0 0 -16 556.039 391.744)"/><use xlink:href="#ao" transform="matrix(16 0 0 -16 564.71 391.518)"/><use xlink:href="#aG" transform="matrix(16 0 0 -16 574.342 391.518)"/><use xlink:href="#r" transform="matrix(16 0 0 -16 585.364 391.518)"/><use xlink:href="#P" transform="matrix(16 0 0 -16 594.63 391.518)"/><use xlink:href="#aj" transform="matrix(16 0 0 -16 604.761 391.518)"/><use xlink:href="#ao" transform="matrix(16 0 0 -16 612.87 391.518)"/><use xlink:href="#P" transform="matrix(16 0 0 -16 623.525 391.518)"/><use xlink:href="#r" transform="matrix(16 0 0 -16 633.525 391.518)"/><use xlink:href="#P" transform="matrix(16 0 0 -16 642.79 391.518)"/><use xlink:href="#q" transform="matrix(16 0 0 -16 652.648 391.518)"/><use xlink:href="#t" transform="matrix(16 0 0 -16 661.99 391.744)"/><use xlink:href="#ad" transform="matrix(16 0 0 -16 673.303 384.19)"/><use xlink:href="#T" transform="matrix(16 0 0 -16 683.013 393.627)"/><use xlink:href="#aH" transform="matrix(16 0 0 -16 693.543 393.627)"/><use xlink:href="#P" transform="matrix(16 0 0 -16 700.582 391.518)"/><use xlink:href="#t" transform="matrix(16 0 0 -16 710.151 391.744)"/><use xlink:href="#S" transform="matrix(16 0 0 -16 719.416 391.518)"/><use xlink:href="#P" transform="matrix(16 0 0 -16 729.478 391.518)"/><use xlink:href="#aI" transform="matrix(16 0 0 -16 740.79 393.627)"/><use xlink:href="#y" transform="matrix(20 0 0 -20 748.77 391.758)"/><path d="M0 470.563h841.89v3H0z" fill="#c8c8c8" fill-opacity=".251"/><path d="M0 470.563h374.173v3H0z" fill="#3059ab"/></svg>