<svg xmlns="http://www.w3.org/2000/svg" xmlns:xlink="http://www.w3.org/1999/xlink" xmlns:inkscape="http://www.inkscape.org/namespaces/inkscape" version="1.1" width="841.8898" height="473.563" viewBox="0 0 841.8898 473.563">
<g>
<path d="M0 0H841.8898V473.563H0Z" fill="#ffffff"/>
<path d="M0 0H841.8898V45.354333H0Z" fill="#3059ab"/>
<text fill="#ffffff" xml:space="preserve" transform="matrix(1 0 0 1 0 0)" font-size="24" font-family="FiraSans" font-weight="bold"><tspan y="30.981165" x="19.84252 33.06652 47.08252 54.18652 67.96252 88.314517 102.21052">Columns</tspan></text>
<text fill="#ffffff" xml:space="preserve" transform="matrix(1 0 0 1 0 0)" font-size="12" font-family="FiraSans" font-weight="bold"><tspan y="26.829165" x="799.27389 806.16189 809.08987 815.32986 818.2578">8 / 9</tspan></text>
<path transform="matrix(1,0,0,1,70.21808,109.58378)" d="M0 5.6692917C0 2.5382283 2.5382283 0 5.6692917 0H213.07567C216.20673 0 218.74495 2.5382283 218.74495 5.6692917V118.49654C218.74495 121.6276 216.20673 124.16583 213.07567 124.16583H5.6692917C2.5382283 124.16583 0 121.6276 0 118.49654Z" fill="#f3f2f0"/>
<text xml:space="preserve" transform="matrix(1 0 0 1 70.21808 109.58378)" font-size="24" font-family="FiraSans"><tspan y="39.189168" x="23.440478 36.352479 50.29648 57.28048 71.22448 91.76848 105.80848 116.99248 123.42448 134.60848 147.61647 161.65647 168.08847 182.27248">Columns can be</tspan></text>
<text xml:space="preserve" transform="matrix(1 0 0 1 70.21808 109.58378)" font-size="24" font-family="FiraSans"><tspan y="71.30116" x="29.692479 36.388479 50.42848 61.852479 68.83648 82.78048 97.06048 110.09248 124.37248 130.80449 144.74849 155.9325 162.6285 176.66849">included using</tspan></text>
<text xml:space="preserve" transform="matrix(1 0 0 1 70.21808 109.58378)" font-size="19.2" font-family="DejaVuSansMono"><tspan y="101.48866" x="22.677166 34.235567 45.79397 57.35237 68.910778 80.46918 92.02758 103.58598 115.14439 126.70279 138.26119 149.81958 161.37798 172.93637 184.49477">#cols[...][...]</tspan></text>
<path transform="matrix(1,0,0,1,365.87974,124.67753)" d="M0 5.6692917C0 2.5382283 2.5382283 0 5.6692917 0H104.46104C107.5921 0 110.13033 2.5382283 110.13033 5.6692917V88.30904C110.13033 91.4401 107.5921 93.97833 104.46104 93.97833H5.6692917C2.5382283 93.97833 0 91.4401 0 88.30904Z" fill="#f3f2f0"/>
<text xml:space="preserve" transform="matrix(1 0 0 1 365.87974 124.67753)" font-size="24" font-family="FiraSans"><tspan y="39.189168" x="34.053167 47.757165 61.797166">And</tspan></text>
<text xml:space="preserve" transform="matrix(1 0 0 1 365.87974 124.67753)" font-size="24" font-family="FiraSans"><tspan y="71.30116" x="22.677166 31.221167 45.26117 51.95717 63.141168 69.573169 76.269168">this is</tspan></text>
<path transform="matrix(1,0,0,1,574.414,140.73352)" d="M0 5.6692917C0 2.5382283 2.5382283 0 5.6692917 0H170.10105C173.2321 0 175.77033 2.5382283 175.77033 5.6692917V56.19704C175.77033 59.328104 173.2321 61.86633 170.10105 61.86633H5.6692917C2.5382283 61.86633 0 59.328104 0 56.19704Z" fill="#f3f2f0"/>
<text xml:space="preserve" transform="matrix(1 0 0 1 574.414 140.73352)" font-size="24" font-family="FiraSans"><tspan y="39.189168" x="24.904366 37.91237 51.95237 58.38437 71.224369 82.36037 95.36837 115.91237 130.09638 136.96038 149.75237">an example.</tspan></text>
<text xml:space="preserve" transform="matrix(1 0 0 1 45.354333 70.86614)" font-size="20" font-family="FiraSans"><tspan y="200.64347" x="0">&#x2022;</tspan></text>
<text xml:space="preserve" transform="matrix(1 0 0 1 45.354333 70.86614)" font-size="20" font-family="FiraSans"><tspan y="200.64347" x="16.3 27.119999 38.739999 48.059999 54.899999 66.52 83.64 89 98.32 109.94 120.78001 130.3 135.88 147.58 157.90001 162.54001">Custom spacing: </tspan></text>
<text xml:space="preserve" transform="matrix(1 0 0 1 45.354333 70.86614)" font-size="16" font-family="DejaVuSansMono"><tspan y="200.64347" x="167.9 177.532 187.164 196.796 206.42801 216.06002 225.69202 235.32402 244.95603 254.58803 264.22004 273.85203 283.484 293.116 302.748 312.37998 322.01197 331.64396 341.27595 350.90794 360.53993 370.1719 379.8039 389.43589 399.06788 408.69987 418.33186 427.96385 437.59584 447.2278 456.8598 466.4918 476.12379 485.75578 495.38777 505.01976 514.65176 524.28378 533.9158 543.5478 553.1798 562.8118 572.44387 582.07589 591.7079 601.3399 610.9719 620.60397 630.23599">#cols(columns: (2fr, 1fr, 2fr), gutter: 2em)[...]</tspan></text>
<text xml:space="preserve" transform="matrix(1 0 0 1 45.354333 70.86614)" font-size="20" font-family="FiraSans"><tspan y="238.40348" x="0">&#x2022;</tspan></text>
<text xml:space="preserve" transform="matrix(1 0 0 1 61.65433 295.5096)" font-size="20" font-family="FiraSans"><tspan y="13.76" x="0 10.880001 21.720002 38.840005 50.660005 56.380006 67.240009 72.600009 79.66001 90.52001 96.960018 107.820018 114.88002 125.74002 137.44002 146.58002 157.44002 166.76003 171.40003">Sample references: </tspan></text>
<text fill="#3059ab" xml:space="preserve" transform="matrix(1 0 0 1 61.65433 295.5096)" font-size="20" font-family="FiraSans"><tspan y="13.76" x="176.76 182.62 191.18">[1]</tspan></text>
<text xml:space="preserve" transform="matrix(1 0 0 1 61.65433 295.5096)" font-size="20" font-family="FiraSans"><tspan y="13.76" x="197.6 202.24">, </tspan></text>
<text fill="#3059ab" xml:space="preserve" transform="matrix(1 0 0 1 61.65433 295.5096)" font-size="20" font-family="FiraSans"><tspan y="13.76" x="207.6 214.02 223.84001">[2]</tspan></text>
<text xml:space="preserve" transform="matrix(1 0 0 1 61.65433 295.5096)" font-size="20" font-family="FiraSans"><tspan y="13.76" x="230.26">.</tspan></text>
<text xml:space="preserve" transform="matrix(1 0 0 1 61.65433 322.26963)" font-size="20" font-family="LibertinusSerif"><tspan y="13.16" x="0">&#x2023;</tspan></text>
<text xml:space="preserve" transform="matrix(1 0 0 1 61.65433 322.26963)" font-size="20" font-family="FiraSans"><tspan y="13.84" x="17.5 28.920002 40.820005 52.720006 58.080007 68.920009">Add a </tspan></text>
<text fill="#3059ab" xml:space="preserve" transform="matrix(1 0 0 1 61.65433 322.26963)" font-size="20" font-family="FiraSans" font-weight="bold"><tspan y="13.84" x="74.28 86.2 91.84 103.759998 109.67999 115.31999 126.99999 137.87999 145.12 156.06 167.98 179.44 189.68001 194.56002 204.14002 210.06002 215.70001 227.68001">bibliography slide</tspan></text>
<text xml:space="preserve" transform="matrix(1 0 0 1 61.65433 322.26963)" font-size="20" font-family="FiraSans"><tspan y="13.84" x="238.7">&#x2026;</tspan></text>
<text xml:space="preserve" transform="matrix(1 0 0 1 61.65433 360.10963)" font-size="20" font-family="FiraSans" font-weight="bold"><tspan y="13.86" x="1.06 10.34">1.</tspan></text>
<text xml:space="preserve" transform="matrix(1 0 0 1 61.65433 360.10963)" font-size="16" font-family="DejaVuSansMono"><tspan y="13.008125" x="25.14 34.772 44.404 54.036 63.668 73.3 82.93201 92.56401 102.196018 111.82802 121.46002 131.09203 140.72403 150.35604 159.98804 169.62004 179.25205 188.88405 198.51605 208.14806 217.78006 227.41207 237.04407 246.67607 256.30809 265.94007 275.57206 285.20405 294.83604 304.46803 314.1 323.732 333.36399 342.99598 352.62797 362.25996 371.89195 381.52394 391.1559 400.7879 410.4199 420.05189 429.68388 439.31587 448.94786 458.57984 468.21183 477.8438 487.4758 497.1078 506.73979 516.37179">#let bib = bibliography("you_bibliography_file.bib")</tspan></text>
<text xml:space="preserve" transform="matrix(1 0 0 1 61.65433 360.10963)" font-size="20" font-family="FiraSans" font-weight="bold"><tspan y="40.72" x="0 10.34">2.</tspan></text>
<text xml:space="preserve" transform="matrix(1 0 0 1 61.65433 360.10963)" font-size="16" font-family="DejaVuSansMono"><tspan y="39.868127" x="25.14 34.772 44.404 54.036 63.668 73.3 82.93201 92.56401 102.196018 111.82802 121.46002 131.09203 140.72403 150.35604 159.98804 169.62004 179.25205 188.88405 198.51605 208.14806 217.78006 227.41207 237.04407 246.67607">#bibliography-slide(bib)</tspan></text>
<path d="M0 470.563H841.8898V473.563H0Z" fill="#c8c8c8" fill-opacity=".2509804"/>
<path d="M0 470.563H748.34646V473.563H0Z" fill="#3059ab"/>
</g>
</svg>
