<svg xmlns="http://www.w3.org/2000/svg" xmlns:xlink="http://www.w3.org/1999/xlink" xmlns:inkscape="http://www.inkscape.org/namespaces/inkscape" version="1.1" width="841.8898" height="473.563" viewBox="0 0 841.8898 473.563">
<g>
<path d="M0 0H841.8898V473.563H0Z" fill="#ffffff"/>
<text fill="#3059ab" xml:space="preserve" transform="matrix(1 0 0 1 799.48989 0)" font-size="12" font-family="FiraSans" font-weight="bold"><tspan y="25.311875" x="0 6.672001 9.600001 15.840002 18.768002">6 / 9</tspan></text>
<text xml:space="preserve" transform="matrix(1 0 0 1 56.376546 63.159978)" font-size="20" font-family="FiraSans"><tspan y="13.76" x="0">&#x2022;</tspan></text>
<text xml:space="preserve" transform="matrix(1 0 0 1 56.376546 63.159978)" font-size="20" font-family="FiraSans"><tspan y="13.76" x="16.3 26.54 38.24 43.820005 53.140005 58.500005 64.08 73.4 78.76 89.600009">This is a </tspan></text>
<text xml:space="preserve" transform="matrix(1 0 0 1 56.376546 63.159978)" font-size="16" font-family="DejaVuSansMono"><tspan y="13.76" x="94.96 104.592 114.22401 123.85601 133.488 143.12001 152.75202 162.38402 172.01602 181.64803 191.28003 200.91204">#blank-slide</tspan></text>
<text xml:space="preserve" transform="matrix(1 0 0 1 56.376546 63.159978)" font-size="20" font-family="FiraSans"><tspan y="13.76" x="210.55376">.</tspan></text>
<text xml:space="preserve" transform="matrix(1 0 0 1 56.376546 63.159978)" font-size="20" font-family="FiraSans"><tspan y="51.52" x="0">&#x2022;</tspan></text>
<text xml:space="preserve" transform="matrix(1 0 0 1 72.676548 100.919979)" font-size="20" font-family="FiraSans"><tspan y="13.84" x="0 11.420001 20.860003 31.700005 37.280008 43.000009 53.840009 65.66001 71.38001 82.24001">Available </tspan></text>
<text fill="#3059ab" xml:space="preserve" transform="matrix(1 0 0 1 72.676548 100.919979)" font-size="20" font-family="FiraSans" font-weight="bold"><tspan y="13.84" x="87.6 95.2 106.78 117.8 134.76001 145.78002">themes</tspan></text>
<text fill="#3059ab" xml:space="preserve" transform="matrix(1 0 0 1 72.676548 100.919979)" font-size="20" font-family="FiraSans"><tspan y="13.84" x="155.36">&#x00b9;</tspan></text>
<text xml:space="preserve" transform="matrix(1 0 0 1 72.676548 100.919979)" font-size="20" font-family="FiraSans"><tspan y="13.84" x="163.36">:</tspan></text>
<path transform="matrix(1,0,0,1,56.376546,134.6025)" d="M0 4.6692917C0 2.090513 2.090513 0 4.6692917 0H457.64646C460.22526 0 462.31575 2.090513 462.31575 4.6692917V43.106458C462.31575 45.685235 460.22526 47.77575 457.64646 47.77575H4.6692917C2.090513 47.77575 0 45.685235 0 43.106458Z" fill="#ffffff"/>
<path transform="matrix(1,0,0,1,56.376546,134.6025)" stroke-width="2" stroke-linecap="butt" stroke-miterlimit="4" stroke-linejoin="miter" fill="none" stroke="#000000" d="M4.6692917 0H457.64646C460.22526 0 462.31575 2.090513 462.31575 4.6692917V43.106458C462.31575 45.685235 460.22526 47.77575 457.64646 47.77575H4.6692917C2.090513 47.77575 0 45.685235 0 43.106458V4.6692917C0 2.090513 2.090513 0 4.6692917 0"/>
<text fill="#3059ab" xml:space="preserve" transform="matrix(1 0 0 1 56.376546 134.6025)" font-size="20" font-family="FiraSans"><tspan y="30.767874" x="17.007874 28.827874 34.647874 46.267877 57.067876">bluey</tspan></text>
<text xml:space="preserve" transform="matrix(1 0 0 1 56.376546 134.6025)" font-size="20" font-family="FiraSans"><tspan y="30.767874" x="66.78787 71.42787">, </tspan></text>
<text fill="#bf3d3d" xml:space="preserve" transform="matrix(1 0 0 1 56.376546 134.6025)" font-size="20" font-family="FiraSans"><tspan y="30.767874" x="76.78787 83.84788 94.70788 106.60788 118.50788">reddy</tspan></text>
<text xml:space="preserve" transform="matrix(1 0 0 1 56.376546 134.6025)" font-size="20" font-family="FiraSans"><tspan y="30.767874" x="128.22788 132.86788">, </tspan></text>
<text fill="#28842f" xml:space="preserve" transform="matrix(1 0 0 1 56.376546 134.6025)" font-size="20" font-family="FiraSans"><tspan y="30.767874" x="138.22788 148.54788 155.60788 166.46788 177.32788 188.88788">greeny</tspan></text>
<text xml:space="preserve" transform="matrix(1 0 0 1 56.376546 134.6025)" font-size="20" font-family="FiraSans"><tspan y="30.767874" x="198.60788 203.24788">, </tspan></text>
<text fill="#c4853d" xml:space="preserve" transform="matrix(1 0 0 1 56.376546 134.6025)" font-size="20" font-family="FiraSans"><tspan y="30.767874" x="208.60788 218.26789 229.12789 234.94789 240.5679">yelly</tspan></text>
<text xml:space="preserve" transform="matrix(1 0 0 1 56.376546 134.6025)" font-size="20" font-family="FiraSans"><tspan y="30.767874" x="250.28787 254.92787">, </tspan></text>
<text fill="#862a70" xml:space="preserve" transform="matrix(1 0 0 1 56.376546 134.6025)" font-size="20" font-family="FiraSans"><tspan y="30.767874" x="260.28788 272.10789 283.72789 291.38789 303.2079 308.82789">purply</tspan></text>
<text xml:space="preserve" transform="matrix(1 0 0 1 56.376546 134.6025)" font-size="20" font-family="FiraSans"><tspan y="30.767874" x="318.54789 323.1879">, </tspan></text>
<text fill="#1f4289" xml:space="preserve" transform="matrix(1 0 0 1 56.376546 134.6025)" font-size="20" font-family="FiraSans"><tspan y="30.767874" x="328.54789 340.44789 352.06788 361.38789 371.50788">dusky</tspan></text>
<text xml:space="preserve" transform="matrix(1 0 0 1 56.376546 134.6025)" font-size="20" font-family="FiraSans"><tspan y="30.767874" x="381.22789 385.8679 391.22789 403.12788 413.96788 421.62788 431.74787 440.66789">, darky.</tspan></text>
<text fill="#d73a49" xml:space="preserve" transform="matrix(1 0 0 1 56.376546 202.22077)" font-size="16" font-family="DejaVuSansMono"><tspan y="12.15625" x="0">#</tspan></text>
<text fill="#d73a49" xml:space="preserve" transform="matrix(1 0 0 1 56.376546 202.22077)" font-size="16" font-family="DejaVuSansMono"><tspan y="12.15625" x="9.6328129 19.264813 28.896813 38.528814">show</tspan></text>
<text xml:space="preserve" transform="matrix(1 0 0 1 56.376546 202.22077)" font-size="16" font-family="DejaVuSansMono"><tspan y="12.15625" x="48.164064 57.796064 67.42806 77.06007 86.69207 96.32407 105.95608 115.58808 125.220088 134.85208 144.48409 154.11609">: typslides.</tspan></text>
<text fill="#4b69c6" xml:space="preserve" transform="matrix(1 0 0 1 56.376546 202.22077)" font-size="16" font-family="DejaVuSansMono"><tspan y="12.15625" x="163.75782 173.38982 183.02182 192.65383">with</tspan></text>
<text xml:space="preserve" transform="matrix(1 0 0 1 56.376546 202.22077)" font-size="16" font-family="DejaVuSansMono"><tspan y="12.15625" x="202.28907">(</tspan></text>
<text xml:space="preserve" transform="matrix(1 0 0 1 56.376546 224.77701)" font-size="16" font-family="DejaVuSansMono"><tspan y="12.15625" x="0 9.632001">  </tspan></text>
<text xml:space="preserve" transform="matrix(1 0 0 1 56.376546 224.77701)" font-size="16" font-family="DejaVuSansMono"><tspan y="12.15625" x="19.265625 28.897625 38.529626 48.161626 57.793626">ratio</tspan></text>
<text xml:space="preserve" transform="matrix(1 0 0 1 56.376546 224.77701)" font-size="16" font-family="DejaVuSansMono"><tspan y="12.15625" x="67.42969">:</tspan></text>
<text xml:space="preserve" transform="matrix(1 0 0 1 56.376546 224.77701)" font-size="16" font-family="DejaVuSansMono"><tspan y="12.15625" x="77.0625"> </tspan></text>
<text fill="#298e0d" xml:space="preserve" transform="matrix(1 0 0 1 56.376546 224.77701)" font-size="16" font-family="DejaVuSansMono"><tspan y="12.15625" x="86.69531 96.32732 105.95932 115.591327 125.22333 134.85533">"16-9"</tspan></text>
<text xml:space="preserve" transform="matrix(1 0 0 1 56.376546 224.77701)" font-size="16" font-family="DejaVuSansMono"><tspan y="12.15625" x="144.49219">,</tspan></text>
<text xml:space="preserve" transform="matrix(1 0 0 1 56.376546 247.33327)" font-size="16" font-family="DejaVuSansMono"><tspan y="12.15625" x="0 9.632001">  </tspan></text>
<text xml:space="preserve" transform="matrix(1 0 0 1 56.376546 247.33327)" font-size="16" font-family="DejaVuSansMono"><tspan y="12.15625" x="19.265625 28.897625 38.529626 48.161626 57.793626">theme</tspan></text>
<text xml:space="preserve" transform="matrix(1 0 0 1 56.376546 247.33327)" font-size="16" font-family="DejaVuSansMono"><tspan y="12.15625" x="67.42969">:</tspan></text>
<text xml:space="preserve" transform="matrix(1 0 0 1 56.376546 247.33327)" font-size="16" font-family="DejaVuSansMono"><tspan y="12.15625" x="77.0625"> </tspan></text>
<text fill="#298e0d" xml:space="preserve" transform="matrix(1 0 0 1 56.376546 247.33327)" font-size="16" font-family="DejaVuSansMono"><tspan y="12.15625" x="86.69531 96.32732 105.95932 115.591327 125.22333 134.85533 144.48734">"bluey"</tspan></text>
<text xml:space="preserve" transform="matrix(1 0 0 1 56.376546 247.33327)" font-size="16" font-family="DejaVuSansMono"><tspan y="12.15625" x="154.125">,</tspan></text>
<text xml:space="preserve" transform="matrix(1 0 0 1 56.376546 202.22077)" font-size="16" font-family="DejaVuSansMono"><tspan y="79.825" x="0 9.632001">  </tspan></text>
<text fill="#d73a49" xml:space="preserve" transform="matrix(1 0 0 1 56.376546 202.22077)" font-size="16" font-family="DejaVuSansMono"><tspan y="79.825" x="19.265625 28.897625">..</tspan></text>
<text xml:space="preserve" transform="matrix(1 0 0 1 56.376546 202.22077)" font-size="16" font-family="DejaVuSansMono"><tspan y="79.825" x="38.53125">.</tspan></text>
<text xml:space="preserve" transform="matrix(1 0 0 1 56.376546 202.22077)" font-size="16" font-family="DejaVuSansMono"><tspan y="102.38125" x="0">)</tspan></text>
<text xml:space="preserve" transform="matrix(1 0 0 1 56.376546 328.60203)" font-size="20" font-family="FiraSans"><tspan y="13.76" x="0">&#x2022;</tspan></text>
<text xml:space="preserve" transform="matrix(1 0 0 1 56.376546 328.60203)" font-size="20" font-family="FiraSans"><tspan y="13.86" x="16.3 30.14 37.8 43.16 48.72 60.340005 69.66 76.78001 82.14001 93.76001 103.08001 113.94001">Or just use </tspan></text>
<text xml:space="preserve" transform="matrix(1 0 0 1 56.376546 328.60203)" font-size="20" font-family="FiraSans" font-weight="bold"><tspan y="13.86" x="119.3 129.5 141.18001 152.62001 160.64002 165.38002 177.06003 192.04003 203.58002 208.32003 216.04003 227.58002 238.62003 255.52002 266.56004 271.30003 280.48 292.16 298 309.68">your own theme color</tspan></text>
<text xml:space="preserve" transform="matrix(1 0 0 1 56.376546 328.60203)" font-size="20" font-family="FiraSans"><tspan y="13.86" x="317.7">:</tspan></text>
<text xml:space="preserve" transform="matrix(1 0 0 1 56.376546 328.60203)" font-size="20" font-family="LibertinusSerif"><tspan y="40.02" x="16.3">&#x2023;</tspan></text>
<text xml:space="preserve" transform="matrix(1 0 0 1 56.376546 328.60203)" font-size="16" font-family="DejaVuSansMono"><tspan y="39.518125" x="33.8 43.432 53.064 62.696 72.328 81.96001 91.59201 101.224018 110.85602 120.48802 130.12003 139.75203 149.38404 159.01604 168.64804 178.28005 187.91205 197.54405 207.17606 216.80806">theme: rgb("30500B")</tspan></text>
<path transform="matrix(1,0,0,1,56.376546,56.376546)" stroke-width=".5" stroke-linecap="butt" stroke-miterlimit="4" stroke-linejoin="miter" fill="none" stroke="#000000" d="M0 339.0289H218.741"/>
<text xml:space="preserve" transform="matrix(1 0 0 1 56.376546 405.40547)" font-size="17" font-family="FiraSans"><tspan y="11.781" x="17">&#x00b9;</tspan></text>
<text xml:space="preserve" transform="matrix(1 0 0 1 56.376546 405.40547)" font-size="17" font-family="FiraSans"><tspan y="11.781" x="24.65 35.785 43.707 52.938005 57.494005 63.546007 73.491008 82.72201 97.27401 101.83001 110.87401 118.796009">Use them as </tspan></text>
<text xml:space="preserve" transform="matrix(1 0 0 1 56.376546 405.40547)" font-size="17" font-family="FiraSans" font-weight="bold"><tspan y="11.781" x="123.352 131.155 141.083 146.04698 155.97498">color</tspan></text>
<text xml:space="preserve" transform="matrix(1 0 0 1 56.376546 405.40547)" font-size="17" font-family="FiraSans"><tspan y="11.781" x="162.792 167.348 172.992 182.869 192.81401 200.906 206.95801 211.701 221.578 231.52301 239.445 243.542 248.098 257.159 260.93299 269.705 273.649 277.593"> functions! e.g., </tspan></text>
<text xml:space="preserve" transform="matrix(1 0 0 1 56.376546 405.40547)" font-size="13.6" font-family="DejaVuSansMono"><tspan y="11.781" x="282.149 290.33619 298.52339 306.71058 314.89778 323.08497 331.27217 339.45936 347.64656 355.83375 364.02095 372.20814 380.39533 388.58253 396.7697 404.9569 413.1441 421.3313 429.5185">#reddy("your text")</tspan></text>
<path d="M0 470.563H841.8898V473.563H0Z" fill="#c8c8c8" fill-opacity=".2509804"/>
<path d="M0 470.563H561.2598V473.563H0Z" fill="#3059ab"/>
</g>
</svg>
