<svg version="1.1" id="Calque_1" xmlns="http://www.w3.org/2000/svg" xmlns:xlink="http://www.w3.org/1999/xlink" x="0px" y="0px" width="306.142px" height="116.371px" viewBox="0 0 306.142 116.371" enable-background="new 0 0 306.142 116.371" xml:space="preserve">
<g>
	<polygon fill="#FFFFFF" points="0.938,0.687 0.938,58.187 38.607,58.187 38.607,64.979 38.607,115.686 305.564,115.686    305.564,58.187 260.064,58.187 260.064,53.979 260.064,0.687  "/>
	<g>
		<g>
			<path d="M38.386,18.3v12.278c0,5.039-2.08,8.639-8.238,8.639c-6.199,0-8.238-3.6-8.238-8.639V18.3h4.799v12.278     c0,3.359,1.119,4.599,3.439,4.599c2.279,0,3.439-1.28,3.439-4.599V18.3H38.386z"/>
			<path d="M51.427,21.74c4.639,0,6.078,3.56,6.078,7.519v9.519h-4.799v-9.519c0-2.48-0.799-3.359-2.479-3.359     c-1.68,0-2.961,1-2.961,3.28v9.598h-4.799V22.18h3.56l0.52,1.8C47.628,22.62,49.227,21.74,51.427,21.74z"/>
			<path d="M64.067,13.141l3.561,3.56l-3.561,3.559l-3.559-3.559L64.067,13.141z M66.468,22.18v16.597h-4.799V22.18H66.468z"/>
			<path d="M86.345,22.18l-5.479,16.597h-6.359L69.028,22.18h4.959l3.719,11.918l3.68-11.918H86.345z"/>
			<path d="M95.427,21.74c4.559,0,7.518,2.6,7.518,7.639c0,1.16-0.039,1.8-0.119,2.799H92.667c0,2.24,1.08,3.36,3.439,3.36     c1.439,0,3.359-0.56,4.279-0.96l1.561,3.359c-1.641,0.8-3.439,1.28-6.199,1.28c-5.039,0-7.84-2.6-7.84-7.439v-2.599     C87.907,24.339,90.708,21.74,95.427,21.74z M95.427,25.219c-1.84,0-2.76,1.16-2.76,3.439v0.16h5.559v-0.16     C98.226,26.379,97.347,25.219,95.427,25.219z"/>
			<path d="M115.665,21.86c0.602,0,1.24,0.08,1.92,0.24l-0.799,4.639c-0.441-0.08-0.92-0.16-1.6-0.16     c-1.881,0-3.961,1.04-3.961,4.639v7.559h-4.799V22.18h3.561l0.799,2.68C111.827,22.899,113.507,21.86,115.665,21.86z"/>
			<path d="M125.106,21.74c2.119,0,4.359,0.52,6.039,1.4l-1.721,3.599c-1-0.48-2.6-1.12-4.078-1.12c-1.281,0-1.76,0.44-1.76,1.08     c0,0.64,0.359,0.8,2.559,1.88c3.519,1.72,5.039,2.759,5.039,5.719c0,3.559-3.318,4.919-6.399,4.919     c-2.719,0-4.439-0.48-6.199-1.12l1.4-3.76c1.559,0.6,3.119,1,4.639,1c1.16,0,1.92-0.44,1.92-1.16c0-0.84-0.68-1.08-2.561-1.96     c-2.559-1.2-5.158-2.319-5.158-5.399C118.827,23.379,121.946,21.74,125.106,21.74z"/>
			<path d="M136.987,13.141l3.559,3.56l-3.559,3.559l-3.561-3.559L136.987,13.141z M139.386,22.18v16.597h-4.799V22.18H139.386z"/>
			<path d="M149.905,18.3v3.879h2.959v3.879h-2.959v6.519c0,1.839,0.799,2.239,2,2.239c0.279,0,0.52,0,0.879-0.04l0.4,4.2     c-0.6,0.08-1.16,0.12-1.68,0.12c-4.52,0-6.398-2.839-6.398-6.399v-6.639h-2.961V22.18h0.801c1.641,0,2.959-0.32,3.32-3.879     H149.905z"/>
			<path d="M162.704,21.74c4.561,0,7.52,2.6,7.52,7.639c0,1.16-0.039,1.8-0.119,2.799h-10.158c0,2.24,1.078,3.36,3.439,3.36     c1.439,0,3.359-0.56,4.279-0.96l1.559,3.359c-1.639,0.8-3.439,1.28-6.199,1.28c-5.039,0-7.838-2.6-7.838-7.439v-2.599     C155.186,24.339,157.985,21.74,162.704,21.74z M164.905,12.981l2.199,3.439l-6.279,3.76l-1.92-2.96L164.905,12.981z      M162.704,25.219c-1.838,0-2.758,1.16-2.758,3.439v0.16h5.559v-0.16C165.505,26.379,164.624,25.219,162.704,25.219z"/>
		</g>
		<path d="M103.874,72.505v23.756h-2.039l-0.52-1.76c-1,1.359-2.561,2.199-4.561,2.199c-4.279,0-5.918-3.039-5.918-6.398v-4.6    c0-3.68,1.959-6.398,6.158-6.398c1.08,0,2.039,0.24,2.879,0.561l-0.398,2c-0.721-0.16-1.361-0.281-2.121-0.281    c-2.398,0-3.879,1.279-3.879,4.119v4.6c0,2.84,1.48,4.08,3.68,4.08c2.6,0,4.08-1.801,4.08-4.641V72.505H103.874z M115.354,79.304    c4.56,0,6.52,2.879,6.52,6.559c0,1.52-0.041,2.439-0.119,3.279h-10.279v1.16c0,2.84,1.279,4.08,4.279,4.08    c1.24,0,2.76-0.48,4.32-1.121l0.998,2.201c-1.439,0.639-3.078,1.238-5.318,1.238c-5.158,0-6.918-2.719-6.918-6.398v-4.439    C108.837,82.183,110.796,79.304,115.354,79.304z M115.354,81.545c-2.399,0-3.879,1.398-3.879,4.318v1h7.76v-1    C119.235,82.943,117.755,81.545,115.354,81.545z M138.796,75.505c2.52,0,4.039,1,5.998,2.559c1.561,1.24,2.641,1.68,4.119,1.68    c1.201,0,2.4-0.439,2.76-3.799h1.959v3.799h3.361v2.24h-3.361v9.199c0,2.318,0.84,2.998,2.281,2.998    c0.279,0,0.719-0.039,1.039-0.08l0.24,2.359c-0.359,0.041-0.961,0.08-1.4,0.08c-3.639,0-4.799-2.279-4.799-5.358v-9.199h-1.52    c-2.279,0-3.6-0.4-5.76-2.08c-1.76-1.359-2.998-2.039-4.639-2.039c-2,0-3.279,1.119-3.279,2.959c0,2.16,1.879,2.92,3.68,3.879    c3.879,2.041,6.158,3.279,6.199,6.639c0.039,3.76-2.961,5.359-6.959,5.359c-1.84,0-3.641-0.359-5.76-1.119l0.84-2.279    c1.801,0.639,3.279,1,5.119,1c2.4,0,4.16-0.76,4.119-2.92c-0.039-2.08-2-2.92-4.279-4.199c-3.039-1.721-5.6-2.92-5.6-6.158    C133.155,77.425,135.796,75.505,138.796,75.505z M168.354,79.304c1.199,0,2.199,0.32,2.84,0.641l-1.08,2.318    c-0.719-0.32-1.439-0.479-2.16-0.479c-2.199,0-4.078,1.6-4.078,4.838v9.639h-2.641V79.744h2.041l0.6,2.041    C164.876,80.224,166.395,79.304,168.354,79.304z M179.274,79.304c3.92,0,5.879,2.359,5.879,5.92v11.037h-2.039l-0.52-1.799    c-1.08,1.238-2.52,2.238-4.719,2.238c-3.801,0-5.4-2.238-5.4-5.078c0-4.08,3.359-5.479,10.039-5.519v-0.879    c0-2.721-1.48-3.6-3.561-3.6c-1.68,0-3.119,0.479-4.438,1.039l-0.881-2.16C175.315,79.785,176.755,79.304,179.274,79.304z     M182.515,88.142c-5.398,0.08-7.398,0.84-7.398,3.48c0,2,1.359,2.76,2.918,2.76c2.041,0,4.48-1.041,4.48-4.16V88.142z     M194.716,79.304c1.959,0,3.838,0.439,5.439,1.24l-1.041,2.199c-1.08-0.52-2.559-1.119-4.359-1.119c-1.879,0-2.92,0.84-2.92,2.078    c0,1.602,1.4,2.041,3.68,3.16c3.279,1.6,4.84,2.879,4.84,5.398c0,2.961-2.641,4.439-5.92,4.439c-2.078,0-3.879-0.52-5.438-1.119    l0.84-2.24c1.559,0.6,3.119,1,4.559,1c2.398,0,3.318-0.799,3.318-2.119c0-1.32-0.6-1.92-3.678-3.439    c-2.801-1.4-4.84-2.199-4.84-5.039C189.196,80.904,191.835,79.304,194.716,79.304z M207.235,72.505v17.236    c0,2.84,1.481,4.641,3.959,4.641c2.32,0,3.799-1.24,3.799-4.08v-4.6c0-2.84-1.359-4.119-3.558-4.119c-0.84,0-1.641,0.24-2.16,0.48    l-0.92-1.76c1-0.6,2.201-1,3.439-1c4.32,0,5.84,3.039,5.84,6.398v4.6c0,3.359-1.92,6.398-6.039,6.398    c-1.959,0-3.48-0.84-4.439-2.158l-0.52,1.719h-2.039V72.505H207.235z M228.714,79.304c4.641,0,6.6,2.879,6.6,6.559v4.279    c0,3.68-1.959,6.559-6.6,6.559c-4.639,0-6.598-2.879-6.598-6.559v-4.279C222.116,82.183,224.075,79.304,228.714,79.304z     M228.714,81.584c-2.479,0-3.959,1.359-3.959,4.279v4.279c0,2.92,1.48,4.279,3.959,4.279c2.48,0,3.961-1.359,3.961-4.279v-4.279    C232.675,82.943,231.194,81.584,228.714,81.584z M253.034,79.744v16.518h-2.041l-0.52-1.76c-1,1.359-2.559,2.199-4.559,2.199    c-4.279,0-5.92-3.039-5.92-6.398V79.744h2.641v10.559c0,2.84,1.479,4.08,3.68,4.08c2.6,0,4.078-1.801,4.078-4.641v-9.998H253.034z     M265.595,79.304c1.199,0,2.199,0.32,2.84,0.641l-1.08,2.318c-0.721-0.32-1.44-0.479-2.16-0.479c-2.199,0-4.078,1.6-4.078,4.838    v9.639h-2.641V79.744h2.039l0.602,2.041C262.114,80.224,263.636,79.304,265.595,79.304z M276.311,79.304    c1.959,0,3.478,0.84,4.438,2.16l0.522-1.721h2.039v16.758c0,3.92-1.48,7.279-6.799,7.279c-1.279,0-2.76-0.281-4.359-0.801    l0.84-2.24c1.039,0.361,2.279,0.682,3.52,0.682c3.32,0,4.16-1.92,4.16-4.92V86.263c0-2.84-1.48-4.639-3.961-4.639    c-2.318,0-3.799,1.238-3.799,4.078v4.6c0,2.84,1.48,4.119,3.68,4.119c0.84,0,1.519-0.24,2.039-0.48l0.92,1.76    c-0.92,0.641-2.08,1-3.318,1c-4.32,0-5.959-3.039-5.959-6.398v-4.6C270.272,82.343,272.192,79.304,276.311,79.304z"/>
		<path d="M306.142,57.485h-45.637V0h-20.977h-1.418h-24.66h-1.418h-9.355h-1.416h-11.127v0.001H0.001v58.886h37.377v57.541h20.352    h1.418h10.771v-0.059h236.223V57.485z M259.104,1.4v56.084h-19.576V1.4H259.104z M238.11,1.4v56.084h-24.66V1.4H238.11z     M212.032,1.4v56.084h-9.355V1.4H212.032z M191.534,1.4h9.727v56.084h-9.727V1.4z M1.401,1.401h188.693v56.083H68.487    L1.401,57.487V1.401z M38.778,115.028V58.944h18.951v56.084H38.778z M59.147,58.944h9.34v56.084h-9.34V58.944z M304.741,114.969    H69.919V58.887l234.822-0.002V114.969z"/>
	</g>
</g>
</svg>