<svg width="400" height="200" xmlns="http://www.w3.org/2000/svg">
  <style>
    .label { font: bold 14px sans-serif; fill: #333; }
    .caption { font: 12px sans-serif; fill: #666; }
    .line { stroke: #555; stroke-width: 1; }
    .area { fill: #eee; }
    .highlight { fill: #c00; } /* Changed fill for highlight text */
    .highlight-stroke { stroke: #c00; } /* Added for highlighted shapes */
  </style>

  <rect x="1" y="1" width="398" height="198" fill="none" stroke="#ccc"/>

  <!-- T0 声带示意 -->
  <g transform="translate(50, 50)">
    <path d="M 0,0 C 20,20 80,20 100,0 C 80,-20 20,-20 0,0 Z" fill="#ddd" stroke="#aaa" stroke-width="1"/>
    <text x="50" y="-25" text-anchor="middle" class="label">T0 (给药前)</text>
    <text x="50" y="30" text-anchor="middle" class="caption">黏膜较厚</text>
    <text x="50" y="45" text-anchor="middle" class="caption">长度较长</text>
  </g>

  <!-- T+1m 声带示意 -->
  <g transform="translate(250, 50)">
     <!-- Use a slightly different shape/color to indicate change -->
     <path d="M 0,0 C 15,15 65,15 80,0 C 65,-15 15,-15 0,0 Z" fill="#fcc" class="highlight-stroke" stroke-width="1"/>
     <!-- Optional: Add visual element for vibration change -->
     <path d="M 10,5 C 20,0 30,10 40,5 C 50,0 60,10 70,5" fill="none" stroke="#c00" stroke-width="0.5" stroke-dasharray="3,2"/>
     <text x="40" y="-25" text-anchor="middle" class="label">T+1m (给药后)</text>
     <text x="40" y="30" text-anchor="middle" class="caption highlight">黏膜变薄</text>
     <text x="40" y="45" text-anchor="middle" class="caption highlight">长度缩短</text>
     <text x="40" y="60" text-anchor="middle" class="caption highlight">振动模式改变</text>
  </g>

  <!-- 箭头 -->
  <defs>
    <marker id="arrowhead" markerWidth="10" markerHeight="7" refX="8" refY="3.5" orient="auto" markerUnits="strokeWidth">
      <path d="M0,0 L10,3.5 L0,7 z" fill="#000"/>
    </marker>
  </defs>
  <line x1="160" y1="100" x2="240" y2="100" stroke="#000" stroke-width="2" marker-end="url(#arrowhead)"/>

</svg>
