<svg xmlns="http://www.w3.org/2000/svg" width="302.361" height="302.363" xmlns:v="https://vecta.io/nano"><defs><clipPath id="A"><path d="M0 283.465h283.465V0H0z" transform="translate(-162.111 -104.261)"/></clipPath><clipPath id="B"><path d="M0 283.465h283.465V0H0z" transform="translate(-54.549 -112.976)"/></clipPath><clipPath id="C"><path d="M0 283.465h283.465V0H0z" transform="translate(-67.95 -93.649)"/></clipPath><clipPath id="D"><path d="M0 283.465h283.465V0H0z" transform="translate(-84.773 -68.389)"/></clipPath><clipPath id="E"><path d="M0 283.465h283.465V0H0z" transform="translate(-119.942 -41.866)"/></clipPath><clipPath id="F"><path d="M0 283.465h283.465V0H0z" transform="translate(-137.913 -53.751)"/></clipPath><clipPath id="G"><path d="M0 283.465h283.465V0H0z" transform="translate(-187.479 -52.896)"/></clipPath><clipPath id="H"><path d="M0 283.465h283.465V0H0z" transform="translate(-211.197 -61.942)"/></clipPath><clipPath id="I"><path d="M0 283.465h283.465V0H0z" transform="translate(-214.448 -92.173)"/></clipPath><clipPath id="J"><path d="M0 283.465h283.465V0H0z" transform="translate(-242.061 -108.067)"/></clipPath></defs><g fill="#231f20" transform="translate(-37.796 -37.795)"><path d="M0 0c-1.102 1.265-2.699.909-2.699.909.075.91-.031 1.098-.038 1.784.277 0 .853.017.914.651.069.724-1.041.546-1.041.546a14.81 14.81 0 0 1-.793 2.971c1.691-.098 2.762-.465 3.414-1.75C.437 3.775.548 1.452 0 0m-2.181-5.175c-.973-.743-1.941-.766-2.328-.658l-.017.054c.106.031 1.027.699 1.475 1.739.596 1.381.283 3.317.283 3.317s1.697.082 2.01-.987c.238-1.258-.502-2.761-1.423-3.465M-9.849-.848c.249 1.895.527 2.51.527 2.51a1.15 1.15 0 0 0 .902.543c.619.033 1.185.39 1.162.902-.03.712-1.668.471-1.668.471s.465 2.177-.774 4.727c.594.471 1.758.497 2.968.098 1.97-1.134 2.656-7.094 1.92-9.924C-6.52.794-9.001.025-9.849-.848m-1.167 3.66s-.72.545-1.703.717c-1.325.23-1.427-.893-.588-1.127.924-.258 1.473-.504 1.94-1.166-.038-1.225-.428-3.063-.428-3.063-1.178 1.559-3.202 1.518-4.454.182-.852 3.628.049 4.791 1.586 7.159 1.374 2.12 1.35 2.047 1.7 2.151.375.112 1.123.239 1.123.239s1.057-.664 1.075-2.486-.251-2.606-.251-2.606m-13.493-4.457c-1.252 1.336-3.276 1.377-4.453-.182 0 0-.39 1.838-.429 3.063.467.662 1.016.908 1.94 1.166.839.234.737 1.357-.587 1.127-.984-.172-1.703-.717-1.703-.717s-.27.784-.252 2.606 1.076 2.486 1.076 2.486.747-.127 1.122-.239c.35-.104.326-.031 1.701-2.151 1.537-2.368 2.438-3.531 1.585-7.159m-11.437.124c-.735 2.83-.049 8.79 1.921 9.924 1.209.399 2.373.373 2.967-.098-1.238-2.55-.774-4.727-.774-4.727s-1.638.241-1.668-.471c-.022-.512.543-.869 1.162-.902s.902-.543.902-.543.279-.615.528-2.51c-.848.873-3.33 1.642-5.038-.673m-.303-4.312c-.387-.108-1.355-.085-2.328.658-.921.704-1.661 2.207-1.422 3.465.312 1.069 2.009.987 2.009.987s-.313-1.936.283-3.317c.449-1.04 1.37-1.707 1.476-1.739zm-4.266 10.944c.652 1.285 1.723 1.652 3.415 1.75-.379-1.051-.591-1.749-.794-2.971 0 0-1.11.178-1.04-.546.06-.634.637-.651.913-.651-.007-.686-.112-.874-.038-1.784 0 0-1.597.356-2.698-.909-.548 1.452-.438 3.775.242 5.111m30.887-12.68l.016.161s.883.861.845 2.471c-.038 1.532-.652 2.402-.652 2.402s.656 1.021 1.969.593 1.273-1.482 1.271-1.854c-.008-2.626-2.876-3.7-3.449-3.773m-2.69-.089c-1.314.376-2.78 1.766-3.23 2.715-.375.792-.146 1.98.688 2.334 1.234.525 2.028-.519 1.953-1.268-.293-2.922.692-3.714.692-3.714zM-25.21-4.943c-.45-.949-1.916-2.339-3.229-2.715l-.104.067s.986.792.692 3.714a1.34 1.34 0 0 0 1.953 1.268c.834-.354 1.063-1.542.688-2.334m-9.369 1.147c-.001.372-.042 1.427 1.271 1.854s1.97-.593 1.97-.593-.615-.87-.652-2.402c-.039-1.61.844-2.471.844-2.471l.016-.161c-.573.073-3.44 1.147-3.449 3.773m-15.934 54.421c.593.428 1.45 1.207 1.869 1.664a15.29 15.29 0 0 0 .783.796s.652.224.827.175.234-.185.234-.185-.676-1.418-1.562-2.743-1.635-1.947-1.635-1.947c-.087-.068-.672-.048-1.013.633s-.097 1.178.497 1.607m.254 11.736s3.808 2.072 5.307 3.99 2.697 4.654 2.944 4.996.892.607.797-.152-1.887-5.932-3.159-7.659-4.352-3.396-4.902-3.547c-.911.588-1.177 1.936-.987 2.372m2.577 7.148c.076.763.158 2.494.57 3.305.105.109.428.27.548.346.099-.155.141-.485.162-.726.04-.467.588-4.082.588-4.082s.041-.326-.629-.65-1.036-.305-1.117-.244c0 0-.203 1.239-.122 2.051m2.454 21.727c.25.139 1.161-.398 1.794-.451.351-.029.644.491.644.739 0 .373.125.17-1.683 1.217-.57.329-.412 1.346-.066 1.901.271.434.837-.159 1.201-.448s.971-.734 1.163-.659.443.991.35 1.206c-.197.452-1.411.795-1.744 1.547-.254.571.069.988.328 1.548.128.276 1.151.675 1.657.844.444.148 2.811-.528 3.204-.889.478-.439.552-1.104 1.086-2.172s1.244-1.871 1.446-2.157c.363-.513-1.156-1.141-1.692-.851-.819.445-1.485 1.036-2.104 1.592s-.946-.453-.786-.891.567-1.029 1.478-1.717c.665-.501.598-.674.423-1.1-.2-.491-.524-1.446-.655-2.14-.099-.526-.349-.743-.715-.663-3.302.724-4.747-.212-4.794-.672-.055-.523 1.264-.265 2.583-.46 1.803-.266 1.67-.429 1.965-.738.86-.903.875-2.924.774-3.128-.181-.363-.615-.551-1.612-1.293-.986-.734-.938-.972-.98-1.843-.04-.836.483-1.001.986-.155.449.755 1.812 1.856 2.527 2.006s1.322-.678 1.322-.678.194-.218-.379-.79c-1.228-1.225-1.553-2.77-1.182-2.936.269-.121.374.404 1.163 1.497.833 1.156 1.546 1.332 1.546 1.332s.651-.096 1.419-.331 1.348-.651 1.348-.651-.658-4.703.137-4.838c.594-.1.961 4.506 1.644 4.56s.982-1.356 1.399-1.281.008 1.852.416 1.986c1.24.403 1.873 1.045 2.513 1.75.653.72 1.256.204 1.256.204s.054-2.371-.288-2.253-.267.747-.811.395.502-2.168.854-2.691.341-1.111-.492-.684-1.014 2.072-1.42 1.132.246-2.082.886-2.669 1.377-.703 1.377-.703.366-1.059-.255-1.587c-.932-.794-1.773-.864-1.773-.864s-1.738 1.878-1.847 3.926c-.32.182-.494-.12-.573-.633-.184-1.182.214-3.662-.386-3.865-.327-.111-1.451-.147-2.318-.097-.725.042-.927.361-1.099.917s.043 1.347-.183 1.39c-.4.076-.748-.395-.929-1.004s-.418-.697-1.055-.659c-.402.023-.869.209-1.694.704-1.082.65.624 3.767.998 4.344s-.043.822-.758.106-1.463-2.317-1.751-2.904-.641-.577-1.303-.032-1.602.716-2.029 1.655-.192 1.313.107 1.816.213.672-.064.672-.64-.555-.64-.555-.441-.083-.703.278c-.941 1.302-1.098 3.558-1.058 4.048.057.697 1.291.986 2.039 1.135s.779 1.252.149 1.22a14.73 14.73 0 0 1-1.839-.205c-.891-.144-1.071 2.195-1.136 4.141-.063 1.89.278 3.341.614 3.529m-1.524 14.27c-.045 1.074.326 2.309.537 2.626.266.398.222.091.843-1.172.487-.992 1.602-1.627 2.449-1.837 1.371-.339 2.403.038 4.94-.276s3.653-1.592 4.627-2.496c1.214-1.127 2.897-2.189 2.674-2.388-.355-.315-1.655-.163-3.25 1.36-1.095 1.045-2.003 1.337-2.359.825-.467-.672 2.413-2.912 2.129-3.241s-1.936 1.403-2.352 1.062c-.199-.163-.145-.43-.025-.699s.909-1.313.487-1.674c-.384-.327-.971.717-1.417 1.373-.493.724-1.318.903-2.074.903-.568 0-2.926.032-4.851 1.435s-2.313 3.124-2.358 4.199m18.243.346c1.961.565 3.513-.804 3.706-1.614-.24-.552-.59-.592-1.189-.31-1.138.537-2.713.359-3.451-1.513-.159-.406-.529-.399-1.024-.21-.375.742-.039 3.072 1.958 3.647m4.304-4.678c-.072-.595-.56-.772-.933-.565-.898.499-1.857.142-2.118-.921-.134-.545-.495-.692-1.114-.398-.434.736-.264 2.58 1.178 3.113 1.38.511 2.702-.464 2.987-1.229m3.843 5.606c1.209 0 2.838-.699 3.085-2.428-.14-.739-.685-.638-.959-.292-.473.598-1.166.995-2.126.995s-1.654-.397-2.127-.995c-.275-.346-.82-.447-.96.292.247 1.729 1.877 2.428 3.087 2.428m6.828-4.377c1.441-.533 1.694-2.456 1.178-3.113-.62-.294-.981-.147-1.115.398-.26 1.063-1.22 1.42-2.118.921-.372-.207-.86-.03-.933.565.285.765 1.607 1.74 2.988 1.229m1.316 3.449c1.998-.575 2.334-2.905 1.958-3.647-.495-.189-.864-.196-1.024.21-.737 1.872-2.312 2.05-3.45 1.513-.6-.282-.95-.242-1.189.31.193.81 1.744 2.179 3.705 1.614m4.844-3.501c.973.904 2.089 2.183 4.626 2.496s3.569-.063 4.94.276c.847.21 1.962.845 2.449 1.837.622 1.263.577 1.57.843 1.172.211-.317.582-1.552.537-2.626s-.432-2.797-2.358-4.199-4.283-1.435-4.85-1.435c-.757 0-1.583-.179-2.075-.903-.446-.656-1.033-1.7-1.418-1.373-.421.361.37 1.405.489 1.674s.173.536-.026.699c-.416.341-2.068-1.39-2.352-1.062s2.595 2.569 2.129 3.241c-.356.512-1.264.22-2.359-.825-1.594-1.523-2.895-1.675-3.25-1.36-.223.199 1.46 1.261 2.675 2.388M5.113 87.707c-.065-1.946-.245-4.285-1.136-4.141-.776.126-1.209.173-1.838.205s-.599-1.071.148-1.22 1.982-.438 2.039-1.135c.04-.49-.117-2.747-1.057-4.048-.262-.361-.703-.278-.703-.278s-.363.555-.641.555-.363-.171-.064-.672.534-.876.107-1.816-1.367-1.111-2.029-1.655-1.014-.555-1.302.032-1.036 2.189-1.751 2.904-1.132.47-.758-.106 2.079-3.694.997-4.344c-.825-.495-1.291-.681-1.694-.704-.636-.038-.873.05-1.055.659s-.53 1.08-.929 1.004c-.226-.043-.012-.835-.184-1.39s-.372-.875-1.098-.917c-.866-.05-1.991-.014-2.317.097-.601.203-.203 2.683-.386 3.865-.08.513-.254.815-.574.633-.109-2.048-1.847-3.926-1.847-3.926s-.841.07-1.773.864c-.621.528-.255 1.587-.255 1.587s.736.116 1.377.703 1.292 1.73.886 2.669-.587-.705-1.42-1.132-.843.161-.491.684 1.398 2.338.854 2.691-.47-.278-.811-.395-.289 2.253-.289 2.253.603.515 1.256-.204c.64-.705 1.273-1.347 2.513-1.75.409-.134 0-1.911.417-1.987s.715 1.335 1.398 1.282 1.05-4.66 1.645-4.56c.795.135.136 4.838.136 4.838a5.15 5.15 0 0 0 1.348.651c.769.235 1.42.331 1.42.331s.712-.176 1.545-1.332c.789-1.093.894-1.618 1.164-1.497.37.166.045 1.711-1.182 2.935-.574.573-.379.791-.379.791s.606.827 1.321.678 2.078-1.251 2.528-2.006c.502-.846 1.025-.681.985.155-.042.871.006 1.109-.979 1.843-.998.742-1.432.93-1.612 1.293-.102.204-.087 2.225.774 3.128.294.309.161.472 1.964.738 1.319.195 2.638-.063 2.584.46-.048.46-1.492 1.396-4.794.672-.366-.08-.617.137-.716.663-.131.694-.455 1.649-.655 2.14-.175.426-.242.599.423 1.1.911.688 1.318 1.279 1.478 1.717s-.166 1.446-.785.891-1.285-1.147-2.105-1.592c-.536-.29-2.055.338-1.692.85.203.287.912 1.091 1.446 2.158s.608 1.733 1.086 2.172c.392.361 2.76 1.037 3.204.889.507-.169 1.53-.568 1.657-.844.26-.56.582-.977.329-1.548-.334-.752-1.548-1.095-1.745-1.547-.093-.215.158-1.132.35-1.206s.801.371 1.164.659.93.882 1.2.448c.346-.555.503-1.572-.066-1.901-1.808-1.047-1.682-.844-1.682-1.217 0-.248.293-.768.643-.739.634.053 1.545.59 1.794.451.336-.188.677-1.639.614-3.529m.722-14.547c.121-.076.444-.237.548-.346.413-.811.495-2.542.57-3.305.082-.812-.121-2.051-.121-2.051-.081-.061-.447-.081-1.118.244s-.629.65-.629.65l.589 4.082c.021.241.063.571.161.726M9.53 62.361c.19-.436-.076-1.784-.987-2.372-.55.151-3.63 1.819-4.902 3.547s-3.064 6.9-3.158 7.659.55.493.796.152 1.444-3.079 2.944-4.996 5.307-3.99 5.307-3.99m.255-11.736c.593-.429.837-.925.496-1.607s-.925-.701-1.013-.633c0 0-.749.624-1.635 1.947s-1.562 2.743-1.562 2.743.059.136.234.185.827-.176.827-.176.365-.337.783-.795 1.276-1.236 1.87-1.664M-.255 8.781c-.34-.267-.854-.603-1.286-.285 5.279 15.359 7.234 38.163 7.45 40.515 0 0-.08.282.257.189s1.216-1.586 1.819-2.217S5.121 19.929-.255 8.781m-11.254 2.463c-1.547-1.445-1.7-.818-3.861-2.481-2.05-1.576-1.931-3.043-2.621-3.222 0 0-.435 2.289.703 4.104s3.503 3.133 4.386 4.131 1.508 1.675 1.688 2.506.703.268.728-.039.724-3.368-1.023-4.999m-7.379-1.224c-.202.367-.202.898-.074 2.402s.697 2.028 1.321 2.358 2.161 1.179 3.356 3.027c1.619 2.504 1.374 4.112 1.374 4.112l.165.129s.803-.745.701-2.846c-.111-2.29-.779-4.09-3.14-5.772-2.719-1.936-3.447-3.355-3.447-3.355s-.054-.422-.256-.055m-1.476 7.365c-1.582 0-2.935 1.234-3.135 2.686-.16 1.162.206 2.481.732 3.679s1.464 2.109 1.464 2.109.172-.57.195-1.499c.039-1.546-.597-2.928-.909-3.385.059-.392.361-.567.602-.556.757.036.541 1.798 1.188 1.798.424-1.876-.36-2.307-.536-2.664.269-.206.424-.355.711-.263 1.14.365 1.559 1.658 1.409 2.601-.197 1.232-.972 1.757-1.22 2.437.008.93.438 1.531.438 1.531s.997-.708 1.524-1.905.831-2.721.672-3.883c-.2-1.452-1.553-2.686-3.135-2.686m-1.475-7.365c-.202-.367-.256.055-.256.055s-.728 1.419-3.447 3.355c-2.362 1.682-3.03 3.482-3.14 5.772-.102 2.101.701 2.846.701 2.846l.165-.129s-.245-1.608 1.374-4.112c1.195-1.848 2.733-2.697 3.356-3.027s1.192-.855 1.32-2.358.129-2.035-.073-2.402m-.898-4.479c-.691.179-.572 1.646-2.622 3.222-2.161 1.663-2.314 1.036-3.861 2.481-1.746 1.631-1.049 4.693-1.023 4.999s.55.87.729.039.805-1.509 1.687-2.506 3.248-2.315 4.387-4.131.703-4.104.703-4.104m-21.644 51.488c-1.386-1.328-4.018-2.194-4.018-2.194s-.538-.268-.823.32-.185 2.352-.185 2.352 3.692 1.468 5.363 3.518c1.179 1.448 1.533 2.577 1.666 3.051s.569.835.588.342-.127-5.026-2.591-7.389m3.975 2.551c.019.046.51.439.501.304-1.28-18.73 4.004-47.507 4.095-47.979.254-1.304-1.083-3.07-1.238-2.699-4.055 9.699-6.967 38.673-7.029 42.42-.025 1.516 1.827 3.427 3.671 7.954m12.391 32.079c-.276.721 1.061 1.233 1.793 1.385.999.208 1.858-.056 2.488-.313.29-.118.676-.617.013-.693s-1.025-.052-1.658-.185c-1.053-.222-2.348-.944-2.636-.194m-2.259-.124c2.816-.952 3.866-4.192 2.904-7.037s-3.863-4.303-6.679-3.35-4.028 4.118-3.066 6.962 4.024 4.378 6.841 3.425m2.135 4.696c-.226.034-1.762.669-4.374-.396-1.175-.479-2.033-.308-2.188-.045-.691 1.171 2.782 1.85 3.665 1.888 2.136.09 2.88-.791 3.066-1.052.169-.237.057-.429-.169-.395m2.218-1.475c.394-.218.292-.75-.396-.681-1.029.103-1.312.135-3.06-.436-1.983-.648-2.753-.092-2.95.031s-.658.951.062.953c1.592.002 2.554.532 3.688.645s2.211-.264 2.656-.512m2.906 3.101c.076-.482-.232-.812-.524-.658-.428.892-2.083.259-1.533-.905-.023-.268-.45-.586-.915-.228-.661.509-1.097 2.041.294 2.855 1.097.642 2.506.019 2.678-1.064m4.379 3.171c-.389.291-.854.768-1.726.768s-1.338-.477-1.728-.768c-.522-.39-.796.001-1.007.297.099.931 1.33 2.137 2.735 2.137s2.634-1.206 2.733-2.137c-.21-.296-.485-.687-1.007-.297m3.903-4.957c-.464-.36-.892-.044-.916.224.545 1.166-1.113 1.792-1.537.898-.292-.155-.601.174-.527.657.167 1.083 1.574 1.712 2.673 1.075 1.395-.809.966-2.341.307-2.854m2.58-.803c1.134-.113 2.095-.643 3.688-.645.72-.002.259-.831.061-.953s-.966-.679-2.95-.031c-1.747.571-2.03.539-3.059.436-.688-.069-.789.463-.397.681.446.248 1.523.625 2.657.512m6.124.522c-.155-.263-1.013-.434-2.189.045-2.611 1.065-4.147.43-4.373.396s-.338.158-.169.395c.186.261.931 1.142 3.066 1.052.882-.038 4.357-.717 3.665-1.888m-4.426-4.255c2.817.953 5.88-.581 6.841-3.425s-.249-6.01-3.066-6.962-5.717.506-6.679 3.35.087 6.085 2.904 7.037m-4.896.318c-.634.133-.996.108-1.658.185s-.277.575.013.693c.63.257 1.489.521 2.487.313.734-.152 2.07-.664 1.794-1.385-.288-.75-1.583-.028-2.636.194m9.902-45.147c-.066.559-.151 1.48.324 1.627.613-.325 1.299-1.261 1.79-2.346.765-1.695 1.086-3.85-.256-4.445-2.411-1.07-4.335 2.077-4.742 4.056-.345 1.681.714 2.078.714 2.078s.552-1.282 1.007-2.058c.543-.927 1.303-1.908 1.811-1.744s-.474 1.362-.648 2.832m-11.237 3.569a1 1 0 0 0 .772.88s.409-2.166.962-3.439 1.889-2.744 2.506-2.449-.143 1.021-.62 2.574c-.572 1.865-.206 3.535-.206 3.535s.474.15.729-.563c1.284-3.593 1.756-3.357 2.619-5.085.843-1.686.354-3.477-1.635-3.841-4.904-.896-5.286 7.178-5.127 8.388m-1.155-18.448s1.667-3.86 2.673-3.437c.585.245-1.353 2.1-1.385 4.249.223.414.741.31.741.31s.52-.776 1.253-1.337c1.05-.803 3.699-5.611.815-6.795-3.103-1.272-5.124 3.501-5.036 5.26s.939 1.75.939 1.75m-6.629 7.985c.214 4.803 1.77 6.321 1.77 6.321s.35-.453.309-.932c-.028-.351-.594-2.536-.607-3.708s.363-1.524.78-1.355-.337 1.641.65 1.727c.667.058.956-1.674.98-3.379.027-1.834-.402-2.541-.402-2.541.678-.551 1.486.523 1.652 2.351.152 1.665-.085 2.71.339 2.71.391 0 .374-.683.359-1.505-.013-.647-.053-1.396.17-1.544.375-.249.957 1.403.957 2.867 0 1.172-.401 2.396-.431 2.747-.04.479.151.887.151.887s1.32.157 1.534-4.646c.137-3.063-1.34-6.833-4.105-6.833s-4.243 3.77-4.106 6.833m-1.701-8.2c.733.561 1.253 1.337 1.253 1.337s.518.104.74-.31c-.031-2.149-1.969-4.004-1.384-4.249 1.006-.423 2.673 3.437 2.673 3.437s.852.008.939-1.75-1.933-6.532-5.037-5.26c-2.883 1.184-.234 5.992.816 6.795m1.922 32.614c.359.735.884.27.884.27s-.476-1.73-.271-3.62c.137-1.255.48-2.039.935-2.012.514.031.481.979.496 1.934.006.367.516.544.593.188.278-1.276-.346-3.533.294-5.838.248-.896 1.254-1.909 1.62-1.454.159.198.136.52.053.886-.077.343-.202.727-.284 1.084-.59 2.545.258 6.064.782 7.486.126.342.631-.419.598-1.144-.034-.778-.186-2.52.204-4.429.175-.859.865-.352 1.225 1.105.537 2.178-.244 5.814-.244 5.814s.524.465.885-.27 1.439-6.043.6-9.462c-.552-2.245-1.615-4.435-4.485-4.435h-.001c-2.87 0-3.933 2.19-4.484 4.435-.84 3.419.239 8.727.6 9.462m2.255 27.548c.221-.118.163-.32.018-.523-.785-1.095-1.86-2.375-2.849-1.68-.328.231-.094.953 1.031 1.626.363.218 1.357.816 1.8.577m3.487 6.478c-.152-.916-.386-1.166-.568-1.389-.115-.14-.444.01-.38.213s.209 1.493-.909 1.493-.974-1.289-.911-1.493-.265-.353-.379-.213c-.183.223-.416.473-.569 1.389s.61 2.078 1.859 2.078 2.01-1.161 1.857-2.078m-.247-7.001c-.146.203-.203.405.018.523.443.239 1.436-.359 1.8-.577 1.125-.673 1.359-1.395 1.031-1.626-.989-.695-2.064.585-2.849 1.68m-3.173-2.205c.013.214.352 2.318 1.562 2.318s1.548-2.104 1.563-2.318c.028-.434-.305-.774-.705-.612-.626.253-.189 1.605-.858 1.605s-.233-1.352-.858-1.605c-.4-.162-.733.178-.704.612m.518-5.357c.255-1.073.264-2.946.264-6.256 0-2.105.508-3.826.78-3.826s.78 1.721.78 3.826c0 3.31.009 5.183.264 6.256.051.216 1.132.083 2.283-.863s.514-5.016.103-6.928c-.353-1.641-1.546-5.172-3.43-6.484-1.883 1.312-3.077 4.843-3.429 6.484-.412 1.912-1.049 5.982.102 6.928s2.231 1.079 2.283.863m-7.762-41.802c-1.988.364-2.478 2.155-1.635 3.841.864 1.728 1.336 1.492 2.62 5.085.255.713.728.563.728.563s.366-1.67-.206-3.535c-.476-1.553-1.237-2.278-.62-2.574s1.954 1.177 2.507 2.449.962 3.439.962 3.439.671-.118.771-.88c.16-1.21-.222-9.284-5.127-8.388m-6.758 1.987c.508-.164 1.268.817 1.811 1.744.455.776 1.007 2.058 1.007 2.058s1.059-.397.714-2.078c-.407-1.979-2.332-5.126-4.742-4.056-1.342.595-1.021 2.75-.256 4.445.491 1.085 1.177 2.021 1.79 2.346.475-.147.39-1.068.324-1.627-.174-1.47-1.156-2.668-.648-2.832m5.495-10.351c-1.82-1.935-3.66-2.455-4.715-1.742-1.88 1.272-1.281 3.316 1.493 6.332l2.53 2.682s.319.125.416-.125c0 0-.755-2.672-1.1-3.211s-.96-1.674-.912-1.81.37-.428.688-.124 1.019 1.62 1.503 2.076c.454.428 1.357 1.791 1.855 2.062 0 0 .165 0 .212-.027.324-.525.09-3.922-1.97-6.113m-1.588-19.539c0-1.379-.387-2.23-.994-2.23s-.993.875-.993 2.219c0 1.54.511 5.956.696 7.002h.297s.994-5.612.994-6.991m-2.376 10.004c-.944.944-.573 2.504.359 3.73.855 1.122 2.192 1.984 2.444 2.153.529.352.648.149.75.039 0 0-2.282-3.379-1.585-3.9s2.693 2.586 2.693 2.586c.242-.272.272-.441.095-.954-.05-.147-.541-1.459-1.44-2.558-.968-1.187-2.378-2.034-3.316-1.096m24.102 9.535c-2.06 2.191-2.293 5.588-1.969 6.113.046.027.211.027.211.027.498-.271 1.401-1.634 1.855-2.062.484-.456 1.185-1.771 1.503-2.076s.64-.009.688.124-.566 1.271-.912 1.81-1.1 3.211-1.1 3.211c.098.25.415.125.415.125s.941-.954 2.531-2.682c2.775-3.016 3.373-5.06 1.493-6.332-1.055-.713-2.895-.193-4.715 1.742m3.575-19.55c0-1.344-.386-2.219-.993-2.219s-.994.851-.994 2.23.994 6.991.994 6.991h.298c.184-1.046.695-5.462.695-7.002m-2.928 11.111a9.54 9.54 0 0 0-1.439 2.558c-.176.513-.147.682.095.954 0 0 1.996-3.107 2.693-2.586s-1.584 3.9-1.584 3.9c.101.11.22.313.749-.039.253-.169 1.589-1.031 2.444-2.153.932-1.226 1.303-2.786.359-3.73-.938-.938-2.348-.091-3.317 1.096m10.71 39.334c.019.493.455.133.588-.342s.487-1.603 1.667-3.051c1.67-2.05 5.363-3.519 5.363-3.519s.099-1.762-.185-2.351-.824-.32-.824-.32-2.632.866-4.018 2.194c-2.463 2.363-2.61 6.895-2.591 7.389m2.287-12.792C3.287 47.879.374 18.905-3.681 9.206c-.154-.371-1.492 1.395-1.238 2.699.091.472 5.376 29.249 4.095 47.979-.009.135.483-.258.501-.304 1.844-4.527 3.696-6.438 3.671-7.954m-6.25 17.998c.198.373.697.054.919-.162.488-.477 3.118-4.878.872-5.894-2.315-1.047-4.292 3.486-4.525 4.8-.187 1.059.547.814.547.814s1.709-2.755 2.361-2.453c.637.296-.174 2.895-.174 2.895m-2.876-7.152c-.269.87-.104 1.71-.104 1.71.255.224 1.095-.9 1.095-.9s.105-.855.509-1.53 1.664-2.624.645-3.254-2.295-.311-3.494 1.784c-1.244 2.175-1.23 5.384-1.11 5.714s.45.21.51-.165.33-1.739 1.11-3.374 1.215-1.32 1.215-1.32-.105.465-.376 1.335m-2.498-5.909c-.435 1.215-.406 1.89-.406 1.89s.406.315.811-.42 1.514-1.74 3.074-2.85c1.239-.881 1.68-3.104.15-4.318-.969-.769-2.88-.615-4.754 1.364s-2.535 5.129-2.549 5.669.299.495.299.495 1.185-1.65 2.175-2.715 1.53-1.574 2.249-1.559-.614 1.23-1.049 2.444m-4.399 11.046s.265.042.658-.231c.598-.416 1.466-1.353 1.911-2.62.675-1.919-.008-2.783-.78-3.149-1.169-.555-4.458 1.132-4.843 5.758-.045.54.539.536.539.536s1.556-4.065 3.06-3.533c.719.255-.545 3.239-.545 3.239m-15.923-3.239c1.503-.532 3.062 3.534 3.062 3.534s.582.003.537-.537c-.386-4.626-3.675-6.313-4.844-5.758-.772.366-1.454 1.23-.78 3.149.445 1.267 1.313 2.204 1.912 2.62.392.273.657.231.657.231s-1.264-2.984-.544-3.239m-4.904-10.251c.72-.015 1.26.495 2.249 1.56s2.175 2.714 2.175 2.714.315.045.3-.495-.675-3.689-2.549-5.669-3.786-2.133-4.755-1.364c-1.53 1.214-1.089 3.437.151 4.318 1.559 1.11 2.669 2.115 3.074 2.85s.81.42.81.42.03-.675-.405-1.89-1.77-2.429-1.05-2.444m-.609 8.338c.78 1.635 1.049 2.999 1.11 3.374s.389.495.509.165.135-3.539-1.11-5.714c-1.199-2.095-2.474-2.414-3.494-1.784s.24 2.579.645 3.254.51 1.53.51 1.53.84 1.124 1.094.9c0 0 .165-.84-.104-1.71s-.375-1.335-.375-1.335.435-.315 1.215 1.32m-3.89 4.272c.652-.302 2.361 2.453 2.361 2.453s.734.245.547-.814c-.233-1.314-2.21-5.847-4.524-4.8-2.248 1.016.383 5.417.872 5.894.221.216.721.535.918.162 0 0-.811-2.599-.174-2.895m-10.713-19.746c.602.631 1.481 2.124 1.819 2.217s.258-.189.258-.189c.216-2.352 2.17-25.156 7.449-40.515-.432-.318-.9-.231-1.241.035-5.458 12.394-8.888 37.82-8.285 38.452m-2.867 4.656c-.394-.601-1.296-1.318-1.319-2.451s1.585-2.067 1.892-2.584c.808-8.6 5.264-32.202 9.41-39.743-1.528-2.197-1.727-4.105-1.196-7.467a13.38 13.38 0 0 1-1.962-1.196l-3.44-2.531a18.72 18.72 0 0 0 5.647-2.83l14.704-10.822c2.265 1.372 4.836 2.586 7.514 2.586 3.122 0 5.144-1.373 7.976-3.284l7.148-4.823 3.463 2.286-21.014 15.072c.271.584.706 1.69.73 2.847-.919 1.965-1.158 4.962-.843 5.417.179.26 1.066-.462 1.774-1.574.567-.89.732-.856.732-.856s.166-.034.733.856c.708 1.112 1.595 1.834 1.774 1.574.314-.455.075-3.452-.843-5.417.024-1.158.478-2.469.751-2.945l8.709-6.409 2.068-1.537 8.994 7.029c1.712 1.3 3.636 2.217 5.646 2.83l-3.44 2.531c-.626.461-1.284.857-1.962 1.196.531 3.362.332 5.27-1.196 7.467 4.145 7.541 8.602 31.143 9.41 39.743.307.517 1.915 1.45 1.891 2.584s-.924 1.85-1.318 2.451-.277.948-.393 2.683.093 3.585.093 3.585 1.342 1.688 1.11 3.515-1.92 3.099-1.92 3.099l-1.156 8.164c-.601 4.579-1.55 8.048-1.55 8.048s.512 2.996.255 6.337c-.332 4.315-2.713 8.293-2.538 9.873.304 2.73 1.441 2.492 2.076 7.196.534 3.957-1.781 6.66-1.781 6.66s-.694-3.353-2.336-4.001-2.313-.069-4.164-.185a10.15 10.15 0 0 1-4.278-1.133c-3.168 1.85-4.139 1.688-6.892 1.549s-2.937.046-5.319.625c-.291.07-1.44.35-2.424.321-.983.029-2.133-.251-2.424-.321-2.381-.579-2.566-.764-5.318-.625s-3.724.301-6.892-1.549a10.15 10.15 0 0 1-4.278 1.133c-1.851.116-2.522-.462-4.164.185s-2.336 4.001-2.336 4.001-2.315-2.703-1.781-6.66c.635-4.704 1.772-4.466 2.075-7.196.176-1.58-2.205-5.558-2.537-9.873-.257-3.341.255-6.337.255-6.337s-.949-3.469-1.551-8.048l-1.156-8.164s-1.688-1.272-1.919-3.099 1.11-3.515 1.11-3.515.208-1.85.092-3.585 0-2.081-.392-2.683m9.903 50.357c2.625.016 3.253-.477 3.905-1.072.106-.098.46.364.155.79-.386.541-.863 1.292-1.154 1.436-.632.313-1.48.378-2.161.378-1.229 0-1.965.132-2.844.459-.565.21-.897.44-1.329.831-.237-.034-.232-.375-.13-.572.073-.141.966-2.265 3.558-2.25M-6.759 82.96c1.76.784 2.319 2.972 1.49 4.833-.336.753-1.044 1.077-.875.699.681-1.529.222-3.327-1.224-3.971s-3.081.038-3.762 1.567c-.308.692-.706-.099-.206-1.221.828-1.861 2.817-2.692 4.577-1.907m3.804 17.964c.651.595 1.279 1.088 3.904 1.072 2.592-.015 3.486 2.109 3.558 2.25.103.197.107.538-.13.572-.432-.391-.764-.621-1.329-.831-.879-.327-1.614-.459-2.844-.459-.681 0-1.528-.065-2.16-.378-.291-.144-.768-.895-1.155-1.436-.305-.426.049-.888.156-.79M-73.859-17.76a77.16 77.16 0 0 1 11.047-8.899l7.169 5.276c2.515 1.851 5.496 2.83 8.618 2.83a14.44 14.44 0 0 0 8.618-2.83l2.918-2.147 5.175 3.808-14.288 9.713c-5.756 3.913-13.242 4.126-18.848 0l-10.628-7.543.219-.208M-33.97 82.96c1.76-.785 3.749.046 4.578 1.907.5 1.122.101 1.913-.207 1.221-.681-1.529-2.315-2.212-3.761-1.567s-1.906 2.442-1.225 3.971c.169.378-.539.054-.875-.699-.829-1.861-.27-4.049 1.49-4.833m15.943-122.34l-22.077 15.243c-4.206 2.904-9.585 2.83-13.842 0l-6.284-4.176c12.605-7.66 27.442-11.598 42.203-11.067m-9.225 18.357l-5.822-4.285 18.949-13.857c6.948.553 13.759 2.053 20.296 4.429l-19.94 13.639c-4.219 2.885-9.367 3.103-13.483.074m22.206 5.206l5.438-4.04c1.845.823 3.841 1.258 5.904 1.258 3.123 0 5.313-1.276 8.146-3.124l7.606-4.959a77.34 77.34 0 0 1 11.273 9.103l-11.31 7.524c-5.606 4.126-13.152 4-18.849.001zm4.421-8.32l-1.812-1.408L8.698-33.74c3.894 1.554 7.633 3.494 11.178 5.666l-7.91 4.723c-4.389 2.62-8.474 2.244-12.591-.786m-19.753 172.728c-61.272 0-111.12-49.848-111.12-111.119S-81.65-73.647-20.378-73.647 90.74-23.8 90.74 37.472 40.893 148.591-20.378 148.591m0-224.505c-62.522 0-113.386 50.865-113.386 113.386S-82.9 150.858-20.378 150.858 93.007 99.993 93.007 37.472 42.142-75.914-20.378-75.914M60.691 50.095c-.413 2.838.205 4.755.483 5.451.683.514 3.018 1.303 4.595 1.601.261-.134.403-.631.22-.796-1.649-.757-4.757-2.624-4.187-6.542.414-2.838 2.473-3.951 4.499-3.656 1.486.216 3.097.761 4.325 3.458l1.627 3.514c.869 1.85 2.509 4.09 5.278 4.493 3.209.467 6.174-1.653 6.813-6.043.153-1.048.127-2.292.018-3.205-.071-.459-.07-.942-.03-1.212-.767-.422-2.613-1.001-4.032-1.208-.223.105-.403.631-.224.83 1.557.675 3.619 1.906 3.147 5.148-.482 3.311-2.78 3.701-4.335 3.474-1.958-.285-3.141-2.113-3.735-3.476l-1.296-2.948c-1.007-2.319-2.661-4.699-5.869-5.167-3.716-.541-6.657 1.894-7.297 6.284m1.566 31.357c-.825-.098-.841-.144-.423-1.003l1.834-3.774c.433-.89.585-.892 1.279-.213l4.197 4.087c.617.604 1.311 1.282 1.59 1.645l-.03.062c-.198.018-1.084-.033-2.168-.143zm.222-7.403c.57.542.603.71.156 1.63l-2.252 4.634c-.373.767-.554.906-1.303.808l-3.744-.492c-1.604-.21-2.538-.398-2.875-.563-.368-.179-.478-.421-.181-1.187l.4-1.058c-.049-.289-.54-.528-.797-.313-.326.829-.789 1.78-1.459 3.237-.492 1.013-1.09 2.088-1.523 2.902.033.244.494.544.737.434l.584-.968c.419-.707 1.085-1.218 2.398-1.11 1.68.133 4.092.244 8.155.624l9.806.897c1.314.107 1.986.206 2.432.537.573-.632 1.379-.885 1.942-1.028.089-.185.132-.429-.053-.596-1.156-1.054-2.329-2.231-3.456-3.348L61.154 68.891c-2.206-2.172-2.473-2.795-1.985-4.189l.311-.873c-.049-.29-.57-.467-.768-.377A78.43 78.43 0 0 1 57 67.211c-.716 1.473-1.343 2.609-1.807 3.487.004.305.48.574.738.434l.524-.846c.375-.613.767-.954 1.074-.805.338.164.815.586 1.433 1.189zM44.619 96.36c-2.619-2.446-2.946-2.845-1.72-4.407l.671-.868c.04-.243-.456-.612-.67-.533l-2.977 3.337c-.931.997-1.771 1.847-3.311 3.396-.065.22.312.665.623.582l.913-.828c1.452-1.304 1.943-1.08 4.561 1.366l11.146 10.41c.773.723.798.746.099 1.494l-1.281 1.371c-1.001 1.073-2.332 2.397-3.488 2.485-1.107.086-1.889-.177-2.769-.485-.336.06-.537.525-.431.811 1.495.65 3.441 1.766 4.601 2.523.12-.028.447-.329.442-.473-.658-.896.136-1.695 1.207-2.843l9.433-10.098c1.257-1.346 1.517-1.524 2.514-1.293.167-.078.398-.376.345-.519-1.279-.68-3.462-2.392-4.139-3.166-.293-.086-.689.338-.656.602.554.658 1.313 1.694 1.238 2.323-.112.971-.797 2.104-2.078 3.475l-1.654 1.77c-.698.749-.7.701-1.523-.067zm-13.506 26.758c1.91 3.072 2.158 3.6.538 4.808l-.688.509c-.102.223.28.709.508.685 1.413-.959 2.381-1.6 3.598-2.358 1.159-.72 2.162-1.303 3.647-2.144.12-.194-.147-.752-.393-.76l-.76.392c-1.8.918-2.164.462-4.074-2.61l-6.414-10.316c-1.91-3.071-2.104-3.513-.521-4.779l.671-.538c.102-.223-.281-.709-.508-.687-1.413.958-2.381 1.599-3.54 2.321a100.68 100.68 0 0 1-3.705 2.183c-.12.195.11.694.392.76l.779-.364c1.836-.86 2.146-.49 4.056 2.582zm-27.444-7.192c-2.734.862-4.192 2.252-4.697 2.806-.165.839.141 3.283.558 4.833.235.177.744.087.813-.149-.036-1.813.292-5.424 4.067-6.615 2.734-.863 4.633.506 5.249 2.459.452 1.432.662 3.119-1.231 5.398l-2.455 2.994c-1.288 1.587-2.591 4.038-1.748 6.706.975 3.092 4.174 4.839 8.405 3.504 1.009-.319 2.119-.884 2.893-1.379.382-.264.818-.472 1.078-.555.046-.873-.236-2.788-.667-4.155-.192-.154-.744-.087-.845.159.07 1.696-.141 4.089-3.265 5.075-3.19 1.006-4.541-.894-5.013-2.391-.596-1.887.535-3.748 1.503-4.876l2.09-2.449c1.65-1.916 3.072-4.441 2.096-7.532-1.129-3.58-4.601-5.168-8.831-3.833m-26.995 16.666c-.009-.615-.016-.99.084-1.128.101-.104.611-.181 2.351-.208 1.228-.021 2.527.095 3.529.829.932.702 1.736 1.883 1.774 4.202.043 2.695-1.586 5.281-5.373 5.343-2.115.034-2.219-.101-2.235-1.056zm-2.718 4.923c.053 3.241-.04 3.823-1.436 4.015l-1.089.155c-.236.174-.228.72.048.852 1.913.14 4.268.204 7.611.149 2.115-.034 4.125-.237 5.68-1.115 1.624-.88 2.793-2.434 2.754-4.822-.052-3.241-2.64-4.973-4.356-5.628-.174-.202-.009-.546.157-.822 2.658-4.444 4.422-7.203 6.71-9.184.571-.522 1.418-.911 2.338-.994.169-.071.199-.344.026-.478-.308-.097-.855-.156-1.504-.147-2.899.048-4.625.929-6.991 4.413-.867 1.277-2.227 3.653-3.26 5.206-.499.758-1.04 1.109-2.404 1.13-1.535.026-1.604-.008-1.615-.724l-.07-4.298c-.058-3.582.003-3.992 1.977-4.297l.715-.114c.202-.174.124-.753-.082-.852-1.534.093-2.693.146-4.058.168-1.432.024-2.661.009-4.266-.033-.203.106-.262.618-.054.854l.855.088c1.982.207 2.058.649 2.116 4.232zm-28.353-5.837c-1.015 3.4-1.228 3.871-3.225 3.524l-.542-.09c-.236.071-.346.679-.179.837a79.97 79.97 0 0 1 3.887 1.054l6.148 1.835c2.092.624 4.022 1.2 4.385 1.415.362-.497 1.261-2.793 1.821-4.192-.072-.235-.576-.457-.797-.31-.95 1.39-1.586 2.447-3.413 2.364-.736-.041-1.792-.32-3.23-.75l-2.355-.703c-.981-.293-.961-.358-.59-1.601l1.952-6.539c.274-.916.372-.887 1.352-.594l1.897.566c1.373.41 2.368.778 2.721 1.026s.524.513.443 1.379l-.139 1.418c.105.245.661.412.86.219.234-.784.484-2.099.856-3.341.351-1.177.853-2.381 1.067-3.098-.062-.267-.618-.434-.84-.286l-.675 1.187c-.306.549-.682.972-1.385.94-.497-.006-1.291-.208-2.566-.588l-1.897-.566c-.981-.293-1.069-.355-.815-1.205l1.376-4.611c.518-1.733.948-2.816 1.637-3.215.51-.276 1.304-.43 4.181.429 2.518.752 3.427 1.166 4.039 1.74.491.503 1.032 1.911 1.375 3.865a.63.63 0 0 0 .885.015c.113-1.212.047-3.974-.114-4.985l-8.793-2.517-2.943-.879c-1.406-.42-2.508-.784-4.417-1.426-.226.04-.448.544-.31.798l1.05.421c1.815.72 1.832 1.259.807 4.692zm-26.908-12.637c-1.683 1.197-2.498 1.531-3.831.892l-.556-.269c-.311.046-.537.468-.397.762a50.66 50.66 0 0 1 3.056 1.807c1.271.8 2.263 1.467 3.44 2.284.275.012.605-.385.512-.685l-.396-.331c-1.006-.836-1.128-1.154-1.011-1.404.239-.252 1.713-1.502 3.991-3.132l10.379-7.375c-.306 2.469-.968 6.207-1.269 8.156l-1.392 8.16c-.151.752-.322 1.088-.45 1.289s-.561.252-1.645-.27l-.556-.27c-.312.047-.526.516-.397.763.845.452 1.96 1.115 3.057 1.806.953.601 1.829 1.195 2.746 1.848.275.012.566-.45.512-.685l-.829-.604c-.657-.495-.871-1.114-.864-1.957.047-1.866.395-4.915.953-8.679l.679-4.533c.52-3.385 1.275-7.589 1.748-9.429a.69.69 0 0 0-.262-.287 1.37 1.37 0 0 0-.488-.186c-1.082 1.012-2.494 2.099-3.749 3.003zm-11.538-12.775c-2.587 2.528-3.05 2.885-4.579 1.563l-.645-.562c-.24-.051-.632.427-.563.644 1.242 1.173 2.076 1.98 3.078 3.005.954.976 1.74 1.83 2.883 3.099.217.075.704-.306.659-.548l-.547-.657c-1.285-1.561-.918-2.014 1.67-4.542l8.69-8.488c2.588-2.527 2.978-2.813 4.555-1.539l.67.539c.24.051.632-.427.562-.646-1.241-1.172-2.076-1.979-3.029-2.955a97.56 97.56 0 0 1-2.931-3.148c-.217-.074-.655.258-.659.548l.523.682c1.236 1.607.942 1.99-1.646 4.517zm-.319-17.78c.895-.496 4.446-2.467 5.272-2.808.146-.159.195-.421.013-.749-.706-.077-2.23-.362-6.625-1.32l-11.719-2.551-5.948-1.226-.034-.06c.293-.318.962-.729 1.857-1.226l6.505-3.609c1.403-.778 5.299-2.9 6.475-2.89.428-.003.938.495 1.411 1.207l.603.876c.338.046.68-.182.713-.476-.805-1.309-1.414-2.336-2.027-3.44a56.26 56.26 0 0 1-1.632-3.153c-.265-.126-.7.076-.779.355l.357.855c.292.736.378 1.313.132 1.645-.842 1.013-4.5 3.003-5.932 3.797l-8.623 4.786c-.836.463-1.479.781-2.513.535-.649-.186-1.256-.786-1.743-1.452l-.34-.474c-.279-.08-.727.168-.713.473.784 1.203 1.662 2.784 1.96 3.322.265.477.517 1 .672 1.422 1.853-.247 7.746 1.088 9.396 1.46l4.859 1.091 8.132 1.926.033.06c-.083.202-.56.466-1.187.815l-6.385 3.543c-1.403.778-5.298 2.9-6.508 2.83-.368-.03-.812-.408-1.623-1.519l-.342-.474c-.295-.109-.755.185-.713.47.822 1.339 1.415 2.337 2.044 3.471a51.61 51.61 0 0 1 1.615 3.127c.282.157.7-.076.78-.354l-.173-.451c-.38-1.038-.472-1.767-.3-2.019.793-1.103 4.526-3.096 5.899-3.858zm-21.029-26.817c-2.086.357-5.965.95-7.072.551-.444-.167-.783-.731-.994-1.561l-.211-.829c-.27-.162-.696-.02-.796.204a72.4 72.4 0 0 1 .756 3.818c.242 1.412.363 2.326.503 3.549.214.241.646.133.819-.07l-.071-.82c-.076-.852.117-1.542.52-1.819 1.03-.661 4.898-1.322 6.782-1.644l3.8-.649c2.927-.501 5.941-1.501 7.637-3.729 1.334-1.717 1.783-4.356 1.357-6.845-.397-2.32-1.23-4.566-2.925-5.973-1.784-1.53-4.384-1.951-8.387-1.267l-7.938 1.356c-3.498.599-4.081.629-4.583-1.293l-.211-.83c-.169-.178-.729-.014-.796.206.355 1.67.584 2.808.814 4.154a95.22 95.22 0 0 1 .607 4.154c.135.185.718.154.818-.07l-.071-.82c-.165-1.979.395-2.144 3.894-2.742l7.265-1.242c5.416-.925 9.269.147 10.148 5.293.834 4.878-2.684 7.383-7.797 8.257z" transform="matrix(1.333333 0 0 -1.333333 216.14787 238.93933)" clip-path="url(#A)"/><path d="M0 0c-.894-.329-.945-.385-.282-1.988 1.326-3.208 2.929-4.61 5.928-3.506C8.773-4.342 9.096-1.578 8.203.847c-.259.701-.498 1.156-.731 1.397-.214.283-.42.352-.994.141zm-7.402-2.726c-1.149-.423-2.752-1.086-3.231-1.951-.511-.876-.317-1.892.034-2.849 1.046-2.84 3.121-4.539 6.312-3.365 2.521.929 4.986 3.286 3.118 8.359-.635 1.723-.873 1.78-1.511 1.545zM3.28 4.179c2.362.869 2.92 1.22 2.52 2.703l-.28 1.056c.097.326.587.47.809.262.794-1.664 1.689-3.799 2.781-6.766.741-2.01 1.286-3.983 1.08-5.689-.165-1.619-1.052-3.141-3.095-3.893-2.297-.847-3.971.059-5.57 1.644-.318-.118-.32-.408-.254-.782.315-1.841-.34-4.981-3.754-6.238-3.702-1.363-7.201.465-9.316 6.21-.341.925-.82 2.523-1.314 3.863-.517 1.404-.98 2.465-1.447 3.633.026.226.512.478.774.357l.307-.539c.911-1.585 1.285-1.52 4.635-.286z" transform="matrix(1.333333 0 0 -1.333333 72.732 227.318)" clip-path="url(#B)"/><path d="M0 0c2.833 2.117 3.201 2.477 2.19 4.226l-.271.477c-.013.244.518.556.722.454l2.32-3.275 3.827-5.121 2.829-3.615c-.341-.51-2.179-2.139-3.297-3.144-.244-.013-.625.382-.563.641.975 1.365 1.745 2.322 1.041 4.003-.291.674-.915 1.566-1.812 2.765L5.521-.628c-.611.816-.665.776-1.7.003l-5.447-4.072c-.763-.57-.702-.651-.091-1.469l1.18-1.579c.855-1.144 1.541-1.948 1.894-2.193s.659-.314 1.442.059l1.279.616c.266-.014.611-.477.502-.728l-2.832-1.947-2.533-2.063c-.273-.034-.618.429-.557.688l.879 1.039c.409.475.675.971.404 1.617-.175.463-.637 1.137-1.431 2.199l-1.181 1.58c-.61.817-.698.878-1.407.349l-3.84-2.869c-1.443-1.08-2.309-1.853-2.446-2.635-.082-.571.046-1.367 1.837-3.764 1.567-2.097 2.266-2.806 3.013-3.181.639-.287 2.142-.31 4.088.041a.63.63 0 0 0 .318-.824c-1.096-.522-3.702-1.408-4.702-1.603l-5.374 7.36-1.832 2.451-2.849 3.644c-.041.224.354.604.639.563l.754-.838c1.296-1.45 1.807-1.281 4.667.856z" transform="matrix(1.333333 0 0 -1.333333 90.600533 253.08827)" clip-path="url(#C)"/><path d="M0 0c-.356-.498-.573-.802-.569-.972.023-.143.399-.494 1.809-1.502.996-.712 2.127-1.352 3.364-1.316 1.162.047 2.49.561 3.834 2.442 1.56 2.186 1.687 5.229-1.384 7.422-1.715 1.225-1.877 1.174-2.43.399zm.557 5.576c1.878 2.628 2.131 3.158 1.094 4.106l-.805.743c-.095.277.22.72.521.672 1.648-.968 3.616-2.248 6.327-4.185 1.715-1.225 3.248-2.529 4.028-4.13.834-1.64.913-3.576-.471-5.513-1.877-2.628-4.98-2.584-6.758-2.15-.257-.067-.316-.443-.336-.763-.336-5.149-.45-8.41.305-11.33.174-.751.647-1.549 1.355-2.138.099-.154-.032-.395-.249-.407-.308.095-.791.355-1.316.731-2.352 1.68-3.269 3.379-3.236 7.576.011 1.537.241 4.256.272 6.114.02.905-.226 1.497-1.332 2.288-1.245.889-1.319.901-1.734.32l-2.491-3.486c-2.075-2.904-2.256-3.276-.81-4.643l.522-.498c.067-.257-.324-.688-.549-.652a85.91 85.91 0 0 1-3.233 2.434 94.29 94.29 0 0 1-3.517 2.387c-.107.202.134.656.438.731l.751-.41c1.743-.953 2.056-.633 4.13 2.272z" transform="matrix(1.333333 0 0 -1.333333 113.03013 286.76787)" clip-path="url(#D)"/><path d="M0 0c-.41-1.297-.462-2.137.05-2.548.066-.128.005-.323-.155-.379-.39.123-1.014.178-1.682.211-1.861.089-4.319.438-6.07.992-3.859 1.221-7.055 3.408-8.751 6.727-1.331 2.56-1.559 5.45-.657 8.304.872 2.755 2.662 5.257 5.349 6.761 2.891 1.583 6.582 2.092 11.479.544 1.848-.585 3.454-1.485 3.963-1.789.576-.324 1.509-.869 1.918-.927-.338-1.071-.676-2.818-1-4.856-.179-.228-.773-.077-.906.18.199 3.789-1.884 5.66-5.191 6.706-6.29 1.989-10.461-1.614-11.999-6.478-1.969-6.225-.308-12.136 6.21-14.198 2.01-.635 3.343-.593 3.874-.155.234.176.581.708.909 1.746l.41 1.297c.861 2.724.825 2.949-1.113 3.812l-1.375.613c-.219.212-.002.785.256.809.919-.363 2.693-.959 4.606-1.564 1.265-.4 2.377-.716 3.468-.988.185-.201.064-.697-.224-.82l-.54.099C1.416 4.367 1.097 3.47.574 1.816z" transform="matrix(1.333333 0 0 -1.333333 159.92213 322.13253)" clip-path="url(#E)"/><path d="M0 0c-.057 3.536-.133 4.044-2.143 4.25l-.545.059c-.207.133-.148.746.054.851l4.014-.037 6.391.103 4.587.176c.214-.574.457-3.019.618-4.512-.133-.206-.675-.283-.849-.082-.536 1.589-.861 2.775-2.636 3.188-.717.158-1.805.175-3.301.15l-2.448-.039c-1.019-.017-1.018-.085-.998-1.377l.11-6.799c.016-.952.118-.95 1.137-.933l1.972.031c1.429.023 2.481.109 2.887.251s.64.35.796 1.203l.25 1.398c.167.207.745.217.884-.022l-.08-3.435.189-3.259c-.132-.241-.71-.25-.884-.049l-.327 1.321c-.146.61-.392 1.116-1.074 1.275-.479.128-1.295.149-2.622.127l-1.971-.031c-1.02-.017-1.121-.053-1.108-.936l.078-4.794c.03-1.802.15-2.956.704-3.525.414-.402 1.133-.764 4.126-.716 2.617.043 3.601.195 4.343.58.606.351 1.505 1.555 2.361 3.337.235.174.713.08.853-.224-.219-1.194-1.026-3.825-1.454-4.75a412.04 412.04 0 0 1-9.112-.045l-3.06-.05-4.622-.177c-.205.099-.282.642-.082.849l1.121.121c1.935.201 2.097.713 2.039 4.283z" transform="matrix(1.333333 0 0 -1.333333 183.8844 306.2848)" clip-path="url(#F)"/><path d="M0 0l2.313-5.484c.013-.215-.113-.449-.459-.588C1.259-5.687-.1-4.951-4.101-2.93l-10.668 5.388-5.372 2.79-.063-.026c.026-.429.286-1.167.667-2.114l2.764-6.879c.595-1.483 2.276-5.573 3.192-6.304.329-.271 1.036-.207 1.851.047l1.016.299c.291-.177.411-.568.254-.814l-3.73-1.39-3.244-1.413c-.284.069-.493.498-.38.763l.814.437c.688.387 1.116.779 1.135 1.19-.015 1.313-1.593 5.15-2.202 6.665l-3.664 9.12c-.356.883-.654 1.533-1.608 1.992-.619.264-1.465.181-2.261-.029l-.561-.152c-.266.113-.456.587-.254.814l3.603 1.338a10.87 10.87 0 0 1 1.414.679c1.278-1.356 6.675-4.025 8.185-4.774l4.443-2.21 7.502-3.619.063.025c.063.209-.14.713-.406 1.376l-2.713 6.753c-.597 1.483-2.277 5.573-3.256 6.278-.304.208-.885.195-2.21-.154l-.563-.153c-.296.1-.467.618-.253.813l3.761 1.402 3.212 1.401c.317-.056.494-.498.381-.763l-.417-.241c-.946-.563-1.476-1.069-1.501-1.373-.079-1.351 1.556-5.238 2.14-6.69z" transform="matrix(1.333333 0 0 -1.333333 249.9716 307.4248)" clip-path="url(#G)"/><path d="M0 0c-2.142-1.89-4.078-2.42-4.811-2.567-.8.291-2.73 1.808-3.838 2.962-.031.291.307.679.544.616 1.53-.963 4.782-2.538 7.739.072 2.141 1.891 1.949 4.216.599 5.746-.991 1.122-2.323 2.169-5.242 1.724l-3.817-.557c-2.018-.284-4.779-.136-6.625 1.954-2.139 2.423-1.985 6.051 1.33 8.977.79.698 1.844 1.355 2.664 1.762.421.19.823.455 1.027.635.77-.409 2.26-1.635 3.205-2.706.033-.243-.307-.68-.57-.639-1.412.931-3.563 1.981-6.011-.18-2.499-2.205-1.571-4.335-.536-5.508 1.306-1.479 3.475-1.47 4.936-1.223l3.165.525c2.484.424 5.37.341 7.509-2.082C3.743 6.707 3.314 2.926 0 0" transform="matrix(1.333333 0 0 -1.333333 281.59653 295.3636)" clip-path="url(#H)"/><path d="M0 0c-3.007 1.986-3.526 2.248-4.773.668l-.526-.672c-.225-.095-.699.299-.672.525l2.447 3.519 2.238 3.573c.197.114.746-.167.747-.412l-.412-.746c-.964-1.768-.519-2.143 2.488-4.129l10.098-6.671c3.007-1.986 3.441-2.192 4.746-.649l.553.653c.226.095.699-.299.671-.525l-2.408-3.461-2.276-3.631c-.197-.114-.689.129-.746.412l.383.765c.907 1.805.547 2.124-2.459 4.11z" transform="matrix(1.333333 0 0 -1.333333 285.9312 255.0564)" clip-path="url(#I)"/><path d="M0 0c-.891-2.714-2.293-4.15-2.85-4.647-.838-.154-3.269.179-4.808.612-.174.236-.079.742.157.807 1.807-.056 5.407.229 6.637 3.977.891 2.713-.45 4.621-2.389 5.257-1.422.467-3.1.695-5.392-1.164l-3.01-2.411c-1.596-1.266-4.053-2.535-6.701-1.665-3.07 1.007-4.772 4.214-3.393 8.414.328 1.001.904 2.1 1.406 2.866.267.377.48.808.565 1.067.871.036 2.775-.267 4.132-.713.151-.192.079-.741-.168-.839-1.689.089-4.075-.094-5.093-3.195-1.039-3.165.838-4.533 2.324-5.021 1.873-.615 3.739.49 4.874 1.442l2.464 2.053c1.928 1.622 4.459 3.01 7.527 2.002C-.164 7.676 1.378 4.199 0 0" transform="matrix(1.333333 0 0 -1.333333 322.7476 233.8636)" clip-path="url(#J)"/></g></svg>