<?xml version="1.0" encoding="UTF-8"?>
<svg xmlns="http://www.w3.org/2000/svg" xmlns:xlink="http://www.w3.org/1999/xlink" width="121pt" height="22pt" viewBox="0 0 121 22" version="1.1">
<g>
<path fill="#F1A42B" d="
M25.773,12.922h4.121v1.059h-2.875v2.699h2.32v1.043h-2.32v2.961h2.875v1.055h-4.121Z
M31.535,12.922h1.438l2.781,7.027c-0.094,-0.719,-0.176,-1.559,-0.176,-2.348v-4.68h1.195v8.816h-1.441l-2.805,-7.051c0.105,0.719,0.203,1.574,0.203,2.371v4.68h-1.195Z
M40.641,12.922h1.25l0.719,4.344c0.121,0.703,0.27,2.086,0.352,3.145c0.082,-1.059,0.23,-2.43,0.352,-3.145l0.734,-4.344h1.273l0.734,4.344c0.121,0.703,0.258,2.074,0.34,3.117c0.078,-1.043,0.242,-2.414,0.363,-3.117l0.719,-4.344h1.207l-1.68,8.816h-1.289l-0.719,-4.34c-0.109,-0.652,-0.258,-1.883,-0.34,-2.902c-0.082,1.02,-0.215,2.25,-0.324,2.902l-0.734,4.34h-1.273Z
M49.902,12.922h1.25v5.238h-1.25ZM49.902,21.457v-1.102c0.312,0.191,0.977,0.449,1.805,0.449c1.344,0,1.926,-0.543,1.926,-2.047v-5.836h1.25v5.969c0,1.996,-0.938,3.012,-3.039,3.012c-1.043,0,-1.711,-0.285,-1.941,-0.445
M63.223,17.832v2.879h0.719c0.988,0,1.68,-0.082,1.68,-1.426c0,-1.355,-0.703,-1.453,-1.68,-1.453ZM63.223,13.953v2.879h0.434c0.988,0,1.695,-0.098,1.695,-1.453c0,-1.344,-0.707,-1.426,-1.695,-1.426ZM61.973,12.922h1.723c1.738,0,2.945,0.449,2.945,2.418c0,1.016,-0.406,1.598,-0.992,1.926c0.734,0.281,1.262,0.895,1.262,2.059c0,1.941,-1.191,2.414,-2.93,2.414h-2.008v-8.816
M68.387,12.922h4.125v1.059h-2.875v2.699h2.32v1.043h-2.32v2.961h2.875v1.055h-4.125Z
M73.609,17.332c0,-3.473,0.922,-4.57,3.215,-4.57c0.652,0,1.344,0.176,1.641,0.352v1.152c-0.324,-0.188,-0.949,-0.395,-1.547,-0.395c-1.465,0,-2.02,0.543,-2.02,3.461c0,2.887,0.395,3.484,1.668,3.484c0.395,0,0.719,-0.051,0.965,-0.121v-2.941h-1.305v-1.059h2.551v4.762c-0.258,0.16,-1.289,0.445,-2.195,0.445c-2.391,0,-2.973,-1.246,-2.973,-4.57
M80.621,12.922h4.125v1.059h-2.879v2.699h2.32v1.043h-2.32v2.961h2.879v1.055h-4.125Z
M86.387,12.922h4.121v1.059h-2.875v2.699h2.32v1.043h-2.32v2.961h2.875v1.055h-4.121Z
M93.395,13.98v3.109h0.668c0.977,0,1.625,-0.207,1.625,-1.562c0,-1.344,-0.648,-1.547,-1.625,-1.547ZM92.148,12.922h2.035c1.629,0,2.793,0.609,2.793,2.605c0,1.398,-0.676,2.074,-1.531,2.387l1.871,3.824h-1.422l-1.656,-3.594h-0.844v3.594h-1.246v-8.816
M97.477,12.922h5.062v1.059h-1.914v7.758h-1.246v-7.758h-1.902Z
M103.582,12.922h4.121v1.059h-2.875v2.699h2.32v1.043h-2.32v2.961h2.875v1.055h-4.121Z
M25.773,0.48h3.988v1.059h-2.742v2.699h2.199v1.043h-2.199v4.016h-1.246Z
M31.633,6.246h1.938l-0.367,-1.465c-0.188,-0.734,-0.434,-1.859,-0.582,-2.836c-0.164,0.977,-0.422,2.102,-0.609,2.836ZM31.969,0.48h1.289l2.348,8.816h-1.301l-0.516,-1.992h-2.402l-0.5,1.992h-1.266l2.348,-8.816
M36.242,4.891c0,-3.297,0.719,-4.574,2.859,-4.574c0.652,0,1.238,0.164,1.52,0.328v1.152c-0.324,-0.176,-0.895,-0.352,-1.438,-0.352c-1.285,0,-1.652,0.582,-1.652,3.445c0,2.887,0.391,3.457,1.652,3.457c0.559,0,1.195,-0.191,1.52,-0.379v1.152c-0.285,0.164,-0.961,0.34,-1.57,0.34c-2.32,0.012,-2.891,-1.277,-2.891,-4.57
M41.918,6.641v-6.16h1.246v6.215c0,1.301,0.449,1.68,1.359,1.68c0.906,0,1.355,-0.379,1.355,-1.68v-6.215h1.25v6.16c0,2.008,-0.844,2.82,-2.605,2.82c-1.793,0,-2.605,-0.789,-2.605,-2.82
M49.023,0.48h1.25v7.758h2.738v1.059h-3.988Z
M52.578,0.48h5.059v1.059h-1.914v7.758h-1.246v-7.758h-1.898Z
M58.68,0.48h4.125v1.059h-2.875v2.699h2.316v1.043h-2.316v2.957h2.875v1.059h-4.125Z
M64.445,9.297h1.246v-8.816h-1.246Z
M66.734,0.48h5.059v1.059h-1.91v7.758h-1.246v-7.758h-1.902Z
M75.23,0.48h1.246v7.758h2.742v1.059h-3.988Z
M80.41,0.48h4.125v1.059h-2.879v2.699h2.324v1.043h-2.324v2.957h2.879v1.059h-4.125Z
M85.266,0.48h5.059v1.059h-1.914v7.758h-1.25v-7.758h-1.895Z
M90.891,0.48h5.059v1.059h-1.914v7.758h-1.246v-7.758h-1.898Z
M96.992,0.48h4.125v1.059h-2.875v2.699h2.32v1.043h-2.32v2.957h2.875v1.059h-4.125Z
M104.008,1.539v3.105h0.664c0.973,0,1.625,-0.203,1.625,-1.559c0,-1.344,-0.652,-1.547,-1.625,-1.547ZM102.758,0.48h2.031c1.633,0,2.797,0.609,2.797,2.605c0,1.395,-0.68,2.074,-1.531,2.387l1.871,3.824h-1.422l-1.656,-3.594h-0.84v3.594h-1.25v-8.816
M109.277,0.48h4.125v1.059h-2.875v2.699h2.32v1.043h-2.32v2.957h2.875v1.059h-4.125Z
M115.043,0.48h1.438l2.781,7.027c-0.094,-0.719,-0.176,-1.559,-0.176,-2.348v-4.68h1.191v8.816h-1.434l-2.812,-7.055c0.113,0.723,0.207,1.574,0.207,2.375v4.68h-1.195Z
M58.996,13.832c0.551,-0.004,1.07,0.18,1.309,0.367v-1.125c-0.238,-0.148,-0.824,-0.309,-1.418,-0.309c-1.656,0,-2.566,0.941,-2.566,2.305c0,1.141,0.484,1.688,1.262,2.355l0.707,0.613c0.586,0.492,0.949,0.867,0.949,1.602c0,0.855,-0.566,1.199,-1.414,1.199c-0.648,0,-1.18,-0.184,-1.488,-0.395v1.145c0.27,0.156,0.836,0.316,1.598,0.316c1.652,-0.004,2.562,-0.941,2.562,-2.309c0.004,-1.137,-0.48,-1.688,-1.258,-2.355l-0.707,-0.613c-0.59,-0.5,-0.953,-0.863,-0.949,-1.598c0,-0.863,0.562,-1.199,1.414,-1.199
M11.516,14.531c0.363,-0.211,0.789,-0.332,1.246,-0.332h7.512v-12.473h-7.512c-0.688,0,-1.25,0.559,-1.25,1.246ZM10.266,2.973c0,-0.688,-0.559,-1.246,-1.246,-1.246h-7.512v12.473h7.512c0.453,0,0.879,0.121,1.246,0.332ZM9.02,15.445h-8.758v-14.965h8.758c0.75,0,1.414,0.336,1.871,0.859c0.457,-0.523,1.121,-0.859,1.871,-0.859h8.758v14.965h-8.758c-0.746,0,-1.414,0.328,-1.871,0.844c-0.457,-0.516,-1.125,-0.844,-1.871,-0.844
M9.02,16.691c0.746,0,1.414,0.328,1.871,0.844c0.457,-0.516,1.125,-0.844,1.871,-0.844h8.762l-1.25,1.246l-7.512,0.004c-0.746,0,-1.414,0.324,-1.871,0.84c-0.457,-0.516,-1.125,-0.84,-1.871,-0.84l-7.512,-0.004l-1.246,-1.246Z
M2.754,5.469h6.266v-1.25h-6.266Z
M2.754,7.965h6.266v-1.25h-6.266Z
M2.754,10.457h6.266v-1.25h-6.266Z
"/>
</g>
</svg>
