<?xml version="1.0" encoding="UTF-8"?>
<svg xmlns="http://www.w3.org/2000/svg" xmlns:xlink="http://www.w3.org/1999/xlink" width="130pt" height="32pt" viewBox="0 0 130 32" version="1.1">
<g>
<path fill="#825491" d="
M24.797,12.922h1.301l1.113,4.586c0.164,0.691,0.367,1.859,0.488,2.781c0.125,-0.922,0.328,-2.09,0.516,-2.781l1.102,-4.586h1.262l-2.238,8.816h-1.305Z
M31.566,12.922h4.125v1.059h-2.879v2.699h2.32v1.043h-2.32v2.961h2.879v1.055h-4.125Z
M36.418,12.922h5.059v1.059h-1.91v7.758h-1.25v-7.758h-1.898Z
M42.523,12.922h4.121v1.059h-2.875v2.699h2.32v1.043h-2.32v2.961h2.875v1.055h-4.121Z
M49.531,13.98v3.109h0.668c0.977,0,1.629,-0.207,1.629,-1.562c0,-1.344,-0.652,-1.547,-1.629,-1.547ZM48.285,12.922h2.035c1.629,0,2.793,0.609,2.793,2.605c0,1.398,-0.68,2.074,-1.531,2.387l1.871,3.824h-1.422l-1.656,-3.594h-0.844v3.594h-1.246v-8.816
M54.809,21.738h1.25v-8.816h-1.25Z
M58.023,12.922h1.438l2.777,7.027c-0.09,-0.719,-0.172,-1.559,-0.172,-2.348v-4.68h1.191v8.816h-1.438l-2.809,-7.051c0.109,0.719,0.203,1.574,0.203,2.371v4.68h-1.191Z
M66.238,18.688h1.941l-0.363,-1.465c-0.191,-0.734,-0.438,-1.859,-0.586,-2.836c-0.16,0.977,-0.422,2.102,-0.609,2.836ZM66.582,12.922h1.285l2.348,8.816h-1.301l-0.516,-1.992h-2.402l-0.504,1.992h-1.262l2.352,-8.816
M72.438,13.98v3.109h0.664c0.98,0,1.629,-0.207,1.629,-1.562c0,-1.344,-0.648,-1.547,-1.629,-1.547ZM71.191,12.922h2.031c1.629,0,2.797,0.609,2.797,2.605c0,1.398,-0.676,2.074,-1.535,2.387l1.875,3.824h-1.426l-1.652,-3.594h-0.844v3.594h-1.246v-8.816
M78.73,18.078l-2.414,-5.156h1.371l1.043,2.375c0.242,0.57,0.477,1.18,0.625,1.723c0.164,-0.543,0.406,-1.152,0.652,-1.723l1.043,-2.375h1.332l-2.402,5.156v3.66h-1.25Z
M85.762,12.922h1.609l1.551,4.641l1.559,-4.641h1.559v8.816h-1.191v-4.582c0,-0.977,0.066,-1.996,0.148,-2.781l-1.602,4.746h-0.992l-1.613,-4.762c0.082,0.789,0.164,1.82,0.164,2.797v4.582h-1.191Z
M94.004,12.922h4.125v1.059h-2.875v2.699h2.316v1.043h-2.316v2.961h2.875v1.055h-4.125Z
M101.016,13.953v6.758h0.965c1.273,0,1.656,-0.586,1.656,-3.379c0,-2.797,-0.383,-3.379,-1.656,-3.379ZM99.77,12.922h2.305c2.309,0,2.852,1.234,2.852,4.41c0,3.133,-0.559,4.406,-2.852,4.406h-2.305v-8.816
M106.551,21.738h1.246v-8.816h-1.246Z
M109.426,17.332c0,-3.297,0.719,-4.57,2.859,-4.57c0.652,0,1.234,0.16,1.52,0.324v1.152c-0.324,-0.176,-0.895,-0.352,-1.438,-0.352c-1.289,0,-1.652,0.582,-1.652,3.445c0,2.887,0.391,3.457,1.652,3.457c0.559,0,1.195,-0.188,1.52,-0.379v1.152c-0.285,0.164,-0.961,0.34,-1.574,0.34c-2.32,0.016,-2.887,-1.273,-2.887,-4.57
M115.312,21.738h1.246v-8.816h-1.246Z
M118.523,12.922h1.438l2.781,7.027c-0.094,-0.719,-0.176,-1.559,-0.176,-2.348v-4.68h1.195v8.816h-1.441l-2.805,-7.051c0.105,0.719,0.203,1.574,0.203,2.371v4.68h-1.195Z
M125.727,12.922h4.125v1.059h-2.879v2.699h2.32v1.043h-2.32v2.961h2.879v1.055h-4.125Z
M25.773,0.48h3.988v1.059h-2.742v2.699h2.199v1.043h-2.199v4.016h-1.246Z
M31.633,6.246h1.938l-0.363,-1.465c-0.191,-0.734,-0.438,-1.859,-0.586,-2.836c-0.16,0.977,-0.418,2.102,-0.609,2.836ZM31.969,0.48h1.289l2.348,8.816h-1.301l-0.516,-1.992h-2.402l-0.5,1.992h-1.266l2.348,-8.816
M36.242,4.891c0,-3.297,0.719,-4.574,2.859,-4.574c0.656,0,1.238,0.164,1.52,0.328v1.152c-0.324,-0.176,-0.895,-0.352,-1.438,-0.352c-1.285,0,-1.652,0.582,-1.652,3.445c0,2.887,0.391,3.457,1.652,3.457c0.559,0,1.195,-0.191,1.523,-0.379v1.152c-0.289,0.164,-0.965,0.34,-1.574,0.34c-2.32,0.012,-2.891,-1.277,-2.891,-4.57
M41.918,6.641v-6.16h1.25v6.215c0,1.301,0.445,1.68,1.355,1.68c0.91,0,1.355,-0.379,1.355,-1.68v-6.215h1.25v6.16c0,2.008,-0.844,2.82,-2.605,2.82c-1.793,0,-2.605,-0.789,-2.605,-2.82
M49.023,0.48h1.25v7.758h2.738v1.059h-3.988Z
M52.578,0.48h5.059v1.059h-1.91v7.758h-1.25v-7.758h-1.898Z
M60.535,5.637l-2.414,-5.156h1.371l1.043,2.375c0.246,0.566,0.477,1.18,0.625,1.723c0.164,-0.543,0.406,-1.156,0.652,-1.723l1.043,-2.375h1.328l-2.398,5.156v3.66h-1.25Z
M71.348,4.891c0,-2.77,-0.281,-3.488,-1.422,-3.488c-1.141,0,-1.41,0.719,-1.41,3.488c0,2.766,0.27,3.484,1.41,3.484c1.141,0,1.422,-0.719,1.422,-3.484ZM67.227,4.891c0,-3.652,0.867,-4.574,2.699,-4.574c1.887,0,2.711,0.883,2.711,4.574c0,3.66,-0.867,4.57,-2.711,4.57c-1.871,0,-2.699,-0.867,-2.699,-4.57
M74.266,0.48h3.988v1.059h-2.742v2.699h2.199v1.043h-2.199v4.016h-1.246Z
M27.367,29.707v-1.117c-0.18,-0.137,-0.402,-0.25,-0.688,-0.25c-0.469,0,-0.609,0.27,-0.609,0.809c0,0.543,0.141,0.812,0.609,0.812c0.285,0,0.508,-0.113,0.688,-0.254M27.426,30.02c-0.223,0.195,-0.5,0.312,-0.828,0.312c-0.746,0,-0.984,-0.453,-0.984,-1.184c0,-0.727,0.254,-1.188,0.984,-1.188c0.293,0,0.555,0.113,0.77,0.277v-0.484c0,-0.613,-0.188,-0.934,-0.797,-0.934c-0.359,0,-0.68,0.164,-0.797,0.246v-0.426c0.133,-0.09,0.445,-0.219,0.848,-0.219c0.82,0,1.184,0.434,1.184,1.246v2.574h-0.316l-0.062,-0.223
M28.656,28.379c0,-1.598,0.512,-1.957,1.23,-1.957c0.297,0,0.492,0.062,0.625,0.137v0.426c-0.098,-0.07,-0.352,-0.156,-0.582,-0.156c-0.543,0,-0.816,0.281,-0.816,1.551c0,1.238,0.234,1.551,0.773,1.551c0.273,0,0.535,-0.098,0.652,-0.172v0.426c-0.133,0.074,-0.402,0.148,-0.691,0.148c-0.816,0,-1.191,-0.461,-1.191,-1.953
M31.105,28.379c0,-1.598,0.516,-1.957,1.234,-1.957c0.297,0,0.492,0.062,0.625,0.137v0.426c-0.098,-0.07,-0.352,-0.156,-0.582,-0.156c-0.543,0,-0.812,0.281,-0.812,1.551c0,1.238,0.23,1.551,0.77,1.551c0.273,0,0.535,-0.098,0.656,-0.172v0.426c-0.137,0.074,-0.402,0.148,-0.695,0.148c-0.812,0,-1.195,-0.461,-1.195,-1.953
M33.766,26.516h0.328l0.059,0.289c0.273,-0.203,0.605,-0.344,1.074,-0.344v0.441c-0.426,0,-0.738,0.059,-1.016,0.199v3.141h-0.445Z
M36.156,28.102h1.375c-0.02,-0.961,-0.188,-1.289,-0.688,-1.289c-0.508,0,-0.664,0.328,-0.688,1.289M35.703,28.387c0,-1.531,0.359,-1.965,1.141,-1.965c0.801,0,1.141,0.422,1.141,1.957v0.102h-1.828c0.016,1.18,0.254,1.449,0.875,1.449c0.328,0,0.68,-0.133,0.797,-0.215v0.426c-0.125,0.082,-0.453,0.191,-0.848,0.191c-0.883,0,-1.277,-0.43,-1.277,-1.945
M40.551,29.742v-2.719c-0.156,-0.117,-0.371,-0.203,-0.602,-0.203c-0.582,0,-0.754,0.328,-0.754,1.559c0,1.23,0.172,1.559,0.754,1.559c0.23,0,0.445,-0.09,0.602,-0.195M40.637,30.047c-0.203,0.184,-0.473,0.285,-0.762,0.285c-0.805,0,-1.145,-0.402,-1.145,-1.953c0,-1.531,0.359,-1.957,1.137,-1.957c0.27,0,0.5,0.094,0.684,0.227v-1.254h0.449v4.848h-0.32l-0.043,-0.195
M42.039,26.516h0.445v3.727h-0.445ZM41.984,25.746c0,-0.18,0.113,-0.289,0.305,-0.289c0.203,0,0.309,0.109,0.309,0.289c0,0.176,-0.105,0.289,-0.309,0.289c-0.191,0,-0.305,-0.113,-0.305,-0.289
M43.141,26.516h0.531v-1.121h0.445v1.121h0.762v0.379h-0.762v2.508c0,0.426,0.16,0.492,0.523,0.492h0.164v0.379h-0.273c-0.441,0,-0.859,-0.113,-0.859,-0.82v-2.559h-0.531Z
M45.926,28.102h1.371c-0.02,-0.961,-0.188,-1.289,-0.688,-1.289c-0.508,0,-0.664,0.328,-0.684,1.289M45.469,28.387c0,-1.531,0.359,-1.965,1.141,-1.965c0.797,0,1.145,0.422,1.145,1.957v0.102h-1.828c0.016,1.18,0.25,1.449,0.871,1.449c0.328,0,0.68,-0.133,0.797,-0.215v0.426c-0.125,0.082,-0.453,0.191,-0.848,0.191c-0.883,0,-1.277,-0.43,-1.277,-1.945
M50.32,29.742v-2.719c-0.16,-0.117,-0.375,-0.203,-0.605,-0.203c-0.582,0,-0.754,0.328,-0.754,1.559c0,1.23,0.172,1.559,0.754,1.559c0.23,0,0.445,-0.09,0.605,-0.195M50.402,30.047c-0.203,0.184,-0.473,0.285,-0.762,0.285c-0.805,0,-1.145,-0.402,-1.145,-1.953c0,-1.531,0.359,-1.957,1.137,-1.957c0.27,0,0.5,0.094,0.688,0.227v-1.254h0.445v4.848h-0.32l-0.043,-0.195
M53.773,27.023v2.719c0.156,0.113,0.371,0.195,0.609,0.195c0.586,0,0.758,-0.328,0.758,-1.559c0,-1.23,-0.172,-1.559,-0.758,-1.559c-0.238,0,-0.453,0.086,-0.609,0.203M53.324,25.395h0.449v1.266c0.18,-0.137,0.418,-0.238,0.688,-0.238c0.805,0,1.137,0.406,1.137,1.957c0,1.527,-0.355,1.953,-1.129,1.953c-0.301,0,-0.578,-0.098,-0.777,-0.266l-0.039,0.176h-0.328v-4.848
M57.094,30.215l-1.023,-3.699h0.461l0.57,2.168c0.082,0.312,0.18,0.719,0.23,1.035c0.043,-0.316,0.141,-0.723,0.223,-1.035l0.574,-2.168h0.449l-1.262,4.848h-0.461Z
M60.762,25.395h2.066v0.402h-1.605v1.746h1.289v0.402h-1.289v1.895h1.605v0.402h-2.066Z
M64.09,28.656h1.309l-0.254,-0.988c-0.145,-0.559,-0.312,-1.227,-0.395,-1.719c-0.078,0.492,-0.242,1.16,-0.391,1.719ZM64.516,25.395h0.477l1.324,4.848h-0.492l-0.324,-1.188h-1.508l-0.32,1.188h-0.477l1.32,-4.848
M66.965,25.395h2.066v0.402h-1.605v1.746h1.289v0.402h-1.289v1.895h1.605v0.402h-2.066Z
M69.414,25.395h0.484l0.688,2.672c0.141,0.559,0.281,1.188,0.348,1.617c0.07,-0.43,0.203,-1.059,0.352,-1.617l0.688,-2.672h0.477l-1.273,4.848h-0.492Z
M73.105,25.395h2.066v0.402h-1.602v1.746h1.289v0.402h-1.289v1.895h1.602v0.402h-2.066Z
M9.488,13.52c-2.391,2.008,-3.988,4.922,-4.242,8.219h1.25c0.25,-2.918,1.68,-5.5,3.801,-7.273Z
M11.398,9.43c-4.836,2.109,-8.293,6.785,-8.645,12.309h1.246c0.348,-5.023,3.512,-9.266,7.918,-11.172Z
M16.832,1.684l-4.125,4.656c-6.902,1.875,-12.047,8,-12.445,15.398h1.246c0.402,-6.957,5.332,-12.699,11.895,-14.305l2.793,-3.152l3.727,14.992h-3.113l-2.945,-3.539l-0.961,0.797l3.324,3.988h5.293Z
"/>
</g>
</svg>
