<?xml version="1.0" encoding="UTF-8"?>
<svg xmlns="http://www.w3.org/2000/svg" xmlns:xlink="http://www.w3.org/1999/xlink" width="147pt" height="22pt" viewBox="0 0 147 22" version="1.1">
<g>
<path fill="#27ABAD" d="
M27.02,17.832v2.879h0.719c0.988,0,1.684,-0.082,1.684,-1.426c0,-1.355,-0.707,-1.453,-1.684,-1.453ZM27.02,13.953v2.879h0.434c0.992,0,1.699,-0.098,1.699,-1.453c0,-1.344,-0.707,-1.426,-1.699,-1.426ZM25.773,12.922h1.719c1.738,0,2.945,0.449,2.945,2.418c0,1.016,-0.406,1.598,-0.988,1.926c0.73,0.285,1.262,0.895,1.262,2.059c0,1.941,-1.195,2.418,-2.93,2.418h-2.008v-8.82
M32.188,21.742h1.246v-8.82h-1.246Z
M39.184,17.332c0,-2.766,-0.281,-3.484,-1.422,-3.484c-1.141,0,-1.414,0.719,-1.414,3.484c0,2.766,0.273,3.484,1.414,3.484c1.141,0,1.422,-0.719,1.422,-3.484ZM35.062,17.332c0,-3.648,0.867,-4.57,2.699,-4.57c1.887,0,2.711,0.879,2.711,4.57c0,3.664,-0.867,4.57,-2.711,4.57c-1.871,0,-2.699,-0.867,-2.699,-4.57
M46.957,17.332c0,-3.297,0.715,-4.57,2.859,-4.57c0.652,0,1.234,0.16,1.52,0.324v1.152c-0.324,-0.176,-0.895,-0.352,-1.438,-0.352c-1.289,0,-1.656,0.582,-1.656,3.445c0,2.891,0.395,3.461,1.656,3.461c0.559,0,1.195,-0.191,1.52,-0.383v1.152c-0.285,0.164,-0.961,0.34,-1.574,0.34c-2.32,0.016,-2.887,-1.273,-2.887,-4.57
M52.84,21.742h1.25v-8.82h-1.25Z
M56.055,12.922h4.125v1.059h-2.879v2.699h2.32v1.047h-2.32v2.957h2.879v1.059h-4.125Z
M61.82,12.922h1.438l2.777,7.027c-0.094,-0.719,-0.176,-1.559,-0.176,-2.348v-4.68h1.195v8.82h-1.438l-2.809,-7.055c0.109,0.719,0.203,1.574,0.203,2.375v4.68h-1.191Z
M68.68,17.332c0,-3.297,0.719,-4.57,2.863,-4.57c0.652,0,1.234,0.16,1.52,0.324v1.152c-0.328,-0.176,-0.898,-0.352,-1.438,-0.352c-1.289,0,-1.656,0.582,-1.656,3.445c0,2.891,0.395,3.461,1.656,3.461c0.555,0,1.195,-0.191,1.52,-0.383v1.152c-0.285,0.164,-0.965,0.34,-1.574,0.34c-2.32,0.016,-2.891,-1.273,-2.891,-4.57
M74.566,12.922h4.125v1.059h-2.875v2.699h2.32v1.047h-2.32v2.957h2.875v1.059h-4.125Z
M83.129,12.922h4.125v1.059h-2.879v2.699h2.32v1.047h-2.32v2.957h2.879v1.059h-4.125Z
M88.891,12.922h1.438l2.781,7.027c-0.094,-0.719,-0.176,-1.559,-0.176,-2.348v-4.68h1.195v8.82h-1.441l-2.805,-7.055c0.105,0.719,0.203,1.574,0.203,2.375v4.68h-1.195Z
M95.754,17.332c0,-3.473,0.922,-4.57,3.215,-4.57c0.648,0,1.344,0.176,1.641,0.352v1.152c-0.324,-0.188,-0.949,-0.395,-1.547,-0.395c-1.465,0,-2.02,0.543,-2.02,3.461c0,2.891,0.395,3.484,1.668,3.484c0.395,0,0.719,-0.051,0.965,-0.121v-2.941h-1.305v-1.059h2.551v4.762c-0.258,0.16,-1.289,0.445,-2.195,0.445c-2.391,0,-2.973,-1.246,-2.973,-4.57
M102.766,21.742h1.25v-8.82h-1.25Z
M105.98,12.922h1.438l2.777,7.027c-0.09,-0.719,-0.176,-1.559,-0.176,-2.348v-4.68h1.195v8.82h-1.438l-2.809,-7.055c0.109,0.719,0.203,1.574,0.203,2.375v4.68h-1.191Z
M113.18,12.922h4.125v1.059h-2.875v2.699h2.316v1.047h-2.316v2.957h2.875v1.059h-4.125Z
M118.941,12.922h4.125v1.059h-2.875v2.699h2.32v1.047h-2.32v2.957h2.875v1.059h-4.125Z
M125.953,13.98v3.109h0.668c0.977,0,1.625,-0.207,1.625,-1.562c0,-1.344,-0.648,-1.547,-1.625,-1.547ZM124.707,12.922h2.035c1.629,0,2.793,0.613,2.793,2.605c0,1.398,-0.676,2.074,-1.531,2.387l1.871,3.828h-1.426l-1.652,-3.598h-0.844v3.598h-1.246v-8.82
M131.23,21.742h1.25v-8.82h-1.25Z
M134.445,12.922h1.438l2.781,7.027c-0.098,-0.719,-0.18,-1.559,-0.18,-2.348v-4.68h1.195v8.82h-1.438l-2.809,-7.055c0.109,0.719,0.207,1.574,0.207,2.375v4.68h-1.195Z
M141.309,17.332c0,-3.473,0.922,-4.57,3.211,-4.57c0.652,0,1.344,0.176,1.641,0.352v1.152c-0.32,-0.188,-0.945,-0.395,-1.543,-0.395c-1.465,0,-2.02,0.543,-2.02,3.461c0,2.891,0.391,3.484,1.668,3.484c0.391,0,0.715,-0.051,0.961,-0.121v-2.941h-1.301v-1.059h2.551v4.762c-0.258,0.16,-1.289,0.445,-2.199,0.445c-2.387,0,-2.969,-1.246,-2.969,-4.57
M25.773,0.48h3.988v1.059h-2.742v2.699h2.199v1.043h-2.199v4.016h-1.246Z
M31.633,6.246h1.938l-0.363,-1.465c-0.191,-0.734,-0.438,-1.859,-0.586,-2.836c-0.16,0.977,-0.418,2.102,-0.609,2.836ZM31.969,0.48h1.289l2.348,8.816h-1.301l-0.516,-1.992h-2.402l-0.5,1.992h-1.266l2.348,-8.816
M36.242,4.891c0,-3.297,0.719,-4.574,2.859,-4.574c0.656,0,1.238,0.164,1.52,0.328v1.152c-0.324,-0.176,-0.895,-0.352,-1.438,-0.352c-1.285,0,-1.652,0.582,-1.652,3.445c0,2.887,0.391,3.457,1.652,3.457c0.559,0,1.195,-0.191,1.523,-0.379v1.152c-0.289,0.164,-0.965,0.34,-1.574,0.34c-2.32,0.012,-2.891,-1.277,-2.891,-4.57
M41.918,6.637v-6.156h1.25v6.211c0,1.305,0.445,1.684,1.355,1.684c0.91,0,1.355,-0.379,1.355,-1.684v-6.211h1.25v6.156c0,2.008,-0.844,2.824,-2.605,2.824c-1.793,0,-2.605,-0.789,-2.605,-2.824
M49.023,0.48h1.25v7.758h2.738v1.059h-3.988Z
M52.578,0.48h5.059v1.059h-1.91v7.758h-1.25v-7.758h-1.898Z
M60.535,5.637l-2.414,-5.156h1.371l1.043,2.375c0.246,0.57,0.477,1.18,0.625,1.723c0.164,-0.543,0.406,-1.152,0.652,-1.723l1.043,-2.375h1.328l-2.398,5.156v3.66h-1.25Z
M71.348,4.891c0,-2.77,-0.281,-3.488,-1.422,-3.488c-1.141,0,-1.41,0.719,-1.41,3.488c0,2.766,0.27,3.484,1.41,3.484c1.141,0,1.422,-0.719,1.422,-3.484ZM67.227,4.891c0,-3.648,0.867,-4.574,2.699,-4.574c1.887,0,2.711,0.883,2.711,4.574c0,3.66,-0.867,4.57,-2.711,4.57c-1.871,0,-2.699,-0.867,-2.699,-4.57
M74.266,0.48h3.988v1.059h-2.742v2.699h2.199v1.043h-2.199v4.016h-1.246Z
M44.32,13.832c0.547,-0.004,1.07,0.176,1.309,0.363v-1.121c-0.238,-0.148,-0.828,-0.312,-1.418,-0.312c-1.656,0,-2.566,0.941,-2.566,2.309c0,1.137,0.48,1.684,1.258,2.355l0.707,0.613c0.59,0.488,0.949,0.867,0.949,1.602c0,0.855,-0.566,1.195,-1.414,1.195c-0.645,0,-1.18,-0.176,-1.488,-0.391v1.145c0.27,0.156,0.836,0.316,1.598,0.316c1.652,-0.004,2.562,-0.945,2.566,-2.309c0,-1.137,-0.484,-1.684,-1.262,-2.355l-0.707,-0.613c-0.586,-0.504,-0.953,-0.867,-0.949,-1.598c0,-0.863,0.562,-1.199,1.418,-1.199
M10.891,8.539c-1.422,0,-2.574,1.152,-2.574,2.57c0,1.422,1.152,2.574,2.574,2.574c1.418,0,2.57,-1.152,2.57,-2.574c0,-1.418,-1.152,-2.57,-2.57,-2.57ZM12.215,11.109c0,0.734,-0.594,1.324,-1.324,1.324c-0.734,0,-1.324,-0.59,-1.324,-1.324c0,-0.73,0.59,-1.324,1.324,-1.324c0.73,0,1.324,0.594,1.324,1.324
M16.27,1.641c-1.418,0,-2.57,1.152,-2.57,2.57c0,1.422,1.152,2.574,2.57,2.574c1.422,0,2.574,-1.152,2.574,-2.574c0,-1.418,-1.152,-2.57,-2.574,-2.57ZM17.594,4.211c0,0.734,-0.59,1.328,-1.324,1.328c-0.73,0,-1.324,-0.594,-1.324,-1.328c0,-0.73,0.594,-1.324,1.324,-1.324c0.734,0,1.324,0.594,1.324,1.324
M10.891,1.727c0.289,0,0.574,0.02,0.855,0.043l0.113,-1.238c-0.32,-0.031,-0.641,-0.051,-0.969,-0.051c-5.871,0,-10.629,4.758,-10.629,10.629c0,5.871,4.758,10.633,10.629,10.633c5.871,0,10.629,-4.762,10.629,-10.633c0,-1.23,-0.219,-2.406,-0.605,-3.504l-1.176,0.41c0.34,0.973,0.535,2.008,0.535,3.094c0,5.184,-4.203,9.383,-9.383,9.383c-5.184,0,-9.383,-4.199,-9.383,-9.383c0,-5.18,4.199,-9.383,9.383,-9.383
M10.891,4.223c0.211,0,0.418,0.012,0.629,0.031l0.113,-1.242c-0.246,-0.02,-0.492,-0.035,-0.742,-0.035c-4.492,0,-8.137,3.641,-8.137,8.133c0,4.492,3.645,8.137,8.137,8.137c4.492,0,8.137,-3.645,8.137,-8.137c0,-0.941,-0.172,-1.84,-0.465,-2.684l-1.176,0.414c0.25,0.711,0.391,1.473,0.391,2.27c0,3.805,-3.082,6.891,-6.887,6.891c-3.805,0,-6.891,-3.086,-6.891,-6.891c0,-3.805,3.086,-6.887,6.891,-6.887
"/>
</g>
</svg>
