<svg viewBox="0 0 368.503937008 145.863748031" width="368.503937008pt" height="145.863748031pt" xmlns="http://www.w3.org/2000/svg" xmlns:xlink="http://www.w3.org/1999/xlink" xmlns:h5="http://www.w3.org/1999/xhtml"><path fill="#ffffff" fill-rule="nonzero" d="M 0 0v 145.863748031h 368.503937008v -145.863748031Z "/><g transform="translate(17.007874016 17.007874016)"><g transform="matrix(1 0 0 -1 0 8.514)"><use xlink:href="#g176C29A21F88031F35D9636899652C0D" x="0" y="0" fill="#000000" fill-rule="nonzero"/><use xlink:href="#g489A14AC9D4233C26CC9E520DD834A83" x="13.5696" y="0" fill="#000000" fill-rule="nonzero"/><use xlink:href="#g7E36569BD456FFBB71649A22C7DD8BCF" x="17.82" y="0" fill="#000000" fill-rule="nonzero"/><use xlink:href="#gF84E97C9781EC8D8E3FAE71DBFAB2EDA" x="22.5456" y="0" fill="#000000" fill-rule="nonzero"/><use xlink:href="#g16FFC50EEB46FED95CB8D2D70DE025B2" x="30.7164" y="0" fill="#000000" fill-rule="nonzero"/><use xlink:href="#g71CE1B9F6FD9E035F8C0F2AFF5C46164" x="37.9896" y="0" fill="#000000" fill-rule="nonzero"/><use xlink:href="#g7E36569BD456FFBB71649A22C7DD8BCF" x="45.8832" y="0" fill="#000000" fill-rule="nonzero"/><use xlink:href="#g8EA8C068C9191756C238CFDE05E8292D" x="53.9088" y="0" fill="#000000" fill-rule="nonzero"/><use xlink:href="#gAB7A56E2DF20A7C8C7BC9B85DB7E88D7" x="61.0632" y="0" fill="#000000" fill-rule="nonzero"/><use xlink:href="#g3C74A4D05653FE58EC9F9D18E132A9C" x="66.6072" y="0" fill="#000000" fill-rule="nonzero"/><use xlink:href="#g6F4F505D1A9622063A992E03DE7AB033" x="73.062" y="0" fill="#000000" fill-rule="nonzero"/><use xlink:href="#g7E36569BD456FFBB71649A22C7DD8BCF" x="79.7412" y="0" fill="#000000" fill-rule="nonzero"/><use xlink:href="#gF84E97C9781EC8D8E3FAE71DBFAB2EDA" x="84.4668" y="0" fill="#000000" fill-rule="nonzero"/><use xlink:href="#g3C74A4D05653FE58EC9F9D18E132A9C" x="92.6376" y="0" fill="#000000" fill-rule="nonzero"/><use xlink:href="#gAB7A56E2DF20A7C8C7BC9B85DB7E88D7" x="99.0924" y="0" fill="#000000" fill-rule="nonzero"/></g></g><g transform="matrix(1 0 0 -1 17.007874016 44.045874016)"><use xlink:href="#gDD78C4AC18CD51C41481EB0565E89892" x="0" y="0" fill="#000000" fill-rule="nonzero"/></g><g transform="matrix(1 0 0 -1 28.313429571 44.045874016)"><use xlink:href="#g2389F7618E8CE27CC7151A1D8E5DEAD4" x="0" y="0" fill="#000000" fill-rule="nonzero"/></g><g transform="matrix(1 0 0 -1 41.026985127 36.598874016)"><use xlink:href="#gA754BD559092BEFA127826A2A25BC17" x="0" y="0" fill="#000000" fill-rule="nonzero"/></g><g transform="matrix(1 0 0 -1 41.026985127 51.591874016)"><use xlink:href="#g8894C0A608DBD285706C131FF554A2B1" x="0" y="0" fill="#000000" fill-rule="nonzero"/></g><path fill="none" stroke="#000000" stroke-width="0.528" stroke-linecap="butt" stroke-linejoin="miter" stroke-miterlimit="4" transform="translate(41.026985127 41.295874016)" d="M 0 0h 5.5"/><g transform="matrix(1 0 0 -1 50.071429571 44.045874016)"><use xlink:href="#g6CA3708905D5D56BD06755CEABD69DE1" x="0" y="0" fill="#000000" fill-rule="nonzero"/></g><g transform="matrix(1 0 0 -1 62.173874016 36.598874016)"><use xlink:href="#gAE482DA578200FA3765B7A490E273D69" x="0" y="0" fill="#000000" fill-rule="nonzero"/></g><g transform="matrix(1 0 0 -1 62.173874016 51.591874016)"><use xlink:href="#g8894C0A608DBD285706C131FF554A2B1" x="0" y="0" fill="#000000" fill-rule="nonzero"/></g><path fill="none" stroke="#000000" stroke-width="0.528" stroke-linecap="butt" stroke-linejoin="miter" stroke-miterlimit="4" transform="translate(62.173874016 41.295874016)" d="M 0 0h 5.5"/><g transform="matrix(1 0 0 -1 71.21831846 44.045874016)"><use xlink:href="#g72FDBB830EBBF5B5860CF87A1202F235" x="0" y="0" fill="#000000" fill-rule="nonzero"/></g><g transform="matrix(1 0 0 -1 77.820762905 36.598874016)"><use xlink:href="#g8894C0A608DBD285706C131FF554A2B1" x="0" y="0" fill="#000000" fill-rule="nonzero"/></g><g transform="matrix(1 0 0 -1 77.820762905 51.591874016)"><use xlink:href="#g38D01286548D526A8BD5E8724FB2369F" x="0" y="0" fill="#000000" fill-rule="nonzero"/></g><path fill="none" stroke="#000000" stroke-width="0.528" stroke-linecap="butt" stroke-linejoin="miter" stroke-miterlimit="4" transform="translate(77.820762905 41.295874016)" d="M 0 0h 5.5"/><g transform="matrix(1 0 0 -1 17.007874016 64.087874016)"><use xlink:href="#gDD78C4AC18CD51C41481EB0565E89892" x="0" y="0" fill="#000000" fill-rule="nonzero"/></g><g transform="matrix(1 0 0 -1 28.313429571 64.087874016)"><use xlink:href="#g2389F7618E8CE27CC7151A1D8E5DEAD4" x="0" y="0" fill="#000000" fill-rule="nonzero"/></g><g transform="matrix(1 0 0 -1 41.026985127 56.640874016)"><use xlink:href="#g8894C0A608DBD285706C131FF554A2B1" x="0" y="0" fill="#000000" fill-rule="nonzero"/></g><g transform="matrix(1 0 0 -1 46.526985127 56.640874016)"><use xlink:href="#gAE482DA578200FA3765B7A490E273D69" x="0" y="0" fill="#000000" fill-rule="nonzero"/></g><g transform="matrix(1 0 0 -1 41.026985127 71.633874016)"><use xlink:href="#gAE482DA578200FA3765B7A490E273D69" x="0" y="0" fill="#000000" fill-rule="nonzero"/></g><g transform="matrix(1 0 0 -1 46.526985127 71.633874016)"><use xlink:href="#g8894C0A608DBD285706C131FF554A2B1" x="0" y="0" fill="#000000" fill-rule="nonzero"/></g><path fill="none" stroke="#000000" stroke-width="0.528" stroke-linecap="butt" stroke-linejoin="miter" stroke-miterlimit="4" transform="translate(41.026985127 61.337874016)" d="M 0 0h 11"/><g transform="matrix(1 0 0 -1 55.571429571 64.087874016)"><use xlink:href="#g6CA3708905D5D56BD06755CEABD69DE1" x="0" y="0" fill="#000000" fill-rule="nonzero"/></g><g transform="matrix(1 0 0 -1 67.673874016 56.640874016)"><use xlink:href="#g847DCE2A3EE7D23E3D551BDE0EE8A683" x="0" y="0" fill="#000000" fill-rule="nonzero"/></g><g transform="matrix(1 0 0 -1 73.173874016 56.640874016)"><use xlink:href="#g5DF7FDD026DB928A9BECE5CB45FEF99F" x="0" y="0" fill="#000000" fill-rule="nonzero"/></g><g transform="matrix(1 0 0 -1 67.673874016 71.633874016)"><use xlink:href="#gAE482DA578200FA3765B7A490E273D69" x="0" y="0" fill="#000000" fill-rule="nonzero"/></g><g transform="matrix(1 0 0 -1 73.173874016 71.633874016)"><use xlink:href="#g8894C0A608DBD285706C131FF554A2B1" x="0" y="0" fill="#000000" fill-rule="nonzero"/></g><path fill="none" stroke="#000000" stroke-width="0.528" stroke-linecap="butt" stroke-linejoin="miter" stroke-miterlimit="4" transform="translate(67.673874016 61.337874016)" d="M 0 0h 11"/><g transform="matrix(1 0 0 -1 17.007874016 84.129874016)"><use xlink:href="#gDD78C4AC18CD51C41481EB0565E89892" x="0" y="0" fill="#000000" fill-rule="nonzero"/></g><g transform="matrix(1 0 0 -1 28.313429571 84.129874016)"><use xlink:href="#g2389F7618E8CE27CC7151A1D8E5DEAD4" x="0" y="0" fill="#000000" fill-rule="nonzero"/></g><g transform="matrix(1 0 0 -1 41.026985127 76.682874016)"><use xlink:href="#g93E2B88EAD8DFDF0BE4D6467DB923DB5" x="0" y="0" fill="#000000" fill-rule="nonzero"/></g><g transform="matrix(1 0 0 -1 46.526985127 76.682874016)"><use xlink:href="#gAE482DA578200FA3765B7A490E273D69" x="0" y="0" fill="#000000" fill-rule="nonzero"/></g><g transform="matrix(1 0 0 -1 41.026985127 91.675874016)"><use xlink:href="#gAE482DA578200FA3765B7A490E273D69" x="0" y="0" fill="#000000" fill-rule="nonzero"/></g><g transform="matrix(1 0 0 -1 46.526985127 91.675874016)"><use xlink:href="#g8894C0A608DBD285706C131FF554A2B1" x="0" y="0" fill="#000000" fill-rule="nonzero"/></g><path fill="none" stroke="#000000" stroke-width="0.528" stroke-linecap="butt" stroke-linejoin="miter" stroke-miterlimit="4" transform="translate(41.026985127 81.379874016)" d="M 0 0h 11"/><g transform="matrix(1 0 0 -1 17.007874016 101.135874016)"><use xlink:href="#g14CB754CE297B694D18D364D9C1BAD84" x="0" y="0" fill="#000000" fill-rule="nonzero"/><use xlink:href="#gB38329E71763B8BD4CF776D24C5AFFE1" x="6.127" y="0" fill="#000000" fill-rule="nonzero"/><use xlink:href="#g1E471D2E98C4E85A3CE47F56E86025C4" x="12.353" y="0" fill="#000000" fill-rule="nonzero"/><use xlink:href="#g5E76F8DBE7C3C7A9A461E8EC1D70F6FB" x="17.732" y="0" fill="#000000" fill-rule="nonzero"/><use xlink:href="#gDD50B131DFBA2C7EA73123CA4C98C33" x="23.276" y="0" fill="#000000" fill-rule="nonzero"/><use xlink:href="#g36F90904A4043C6A677E73471A30013F" x="26.257" y="0" fill="#000000" fill-rule="nonzero"/><use xlink:href="#gF67C713431A76E10A7998B4384A85B5" x="29.161" y="0" fill="#000000" fill-rule="nonzero"/><use xlink:href="#g4C1ED41FE02ABB1BA3896D4213CC7460" x="33.968" y="0" fill="#000000" fill-rule="nonzero"/></g><g transform="translate(195.590551181 17.007874016)"><g transform="matrix(1 0 0 -1 0 8.514)"><use xlink:href="#g176C29A21F88031F35D9636899652C0D" x="0" y="0" fill="#000000" fill-rule="nonzero"/><use xlink:href="#g489A14AC9D4233C26CC9E520DD834A83" x="13.5696" y="0" fill="#000000" fill-rule="nonzero"/><use xlink:href="#g7E36569BD456FFBB71649A22C7DD8BCF" x="17.82" y="0" fill="#000000" fill-rule="nonzero"/><use xlink:href="#gF84E97C9781EC8D8E3FAE71DBFAB2EDA" x="22.5456" y="0" fill="#000000" fill-rule="nonzero"/><use xlink:href="#g8EA8C068C9191756C238CFDE05E8292D" x="34.0164" y="0" fill="#000000" fill-rule="nonzero"/><use xlink:href="#gAB7A56E2DF20A7C8C7BC9B85DB7E88D7" x="41.1708" y="0" fill="#000000" fill-rule="nonzero"/><use xlink:href="#g3C74A4D05653FE58EC9F9D18E132A9C" x="46.7148" y="0" fill="#000000" fill-rule="nonzero"/><use xlink:href="#g6F4F505D1A9622063A992E03DE7AB033" x="53.1696" y="0" fill="#000000" fill-rule="nonzero"/><use xlink:href="#g7E36569BD456FFBB71649A22C7DD8BCF" x="59.8488" y="0" fill="#000000" fill-rule="nonzero"/><use xlink:href="#gF84E97C9781EC8D8E3FAE71DBFAB2EDA" x="64.5744" y="0" fill="#000000" fill-rule="nonzero"/><use xlink:href="#g3C74A4D05653FE58EC9F9D18E132A9C" x="72.7452" y="0" fill="#000000" fill-rule="nonzero"/><use xlink:href="#gAB7A56E2DF20A7C8C7BC9B85DB7E88D7" x="79.2" y="0" fill="#000000" fill-rule="nonzero"/></g></g><g transform="matrix(1 0 0 -1 195.590551181 48.665874016)"><use xlink:href="#gDD78C4AC18CD51C41481EB0565E89892" x="0" y="0" fill="#000000" fill-rule="nonzero"/></g><g transform="matrix(1 0 0 -1 206.896106737 48.665874016)"><use xlink:href="#g2389F7618E8CE27CC7151A1D8E5DEAD4" x="0" y="0" fill="#000000" fill-rule="nonzero"/></g><g transform="matrix(1 0 0 -1 219.609662292 41.218874016)"><use xlink:href="#gA754BD559092BEFA127826A2A25BC17" x="0" y="0" fill="#000000" fill-rule="nonzero"/></g><g transform="matrix(1 0 0 -1 219.609662292 56.211874016)"><use xlink:href="#g8894C0A608DBD285706C131FF554A2B1" x="0" y="0" fill="#000000" fill-rule="nonzero"/></g><path fill="none" stroke="#000000" stroke-width="0.528" stroke-linecap="butt" stroke-linejoin="miter" stroke-miterlimit="4" transform="translate(219.609662292 45.915874016)" d="M 0 0h 5.5"/><g transform="matrix(1 0 0 -1 228.654106737 48.665874016)"><use xlink:href="#g6CA3708905D5D56BD06755CEABD69DE1" x="0" y="0" fill="#000000" fill-rule="nonzero"/></g><g transform="matrix(1 0 0 -1 240.756551181 41.218874016)"><use xlink:href="#gAE482DA578200FA3765B7A490E273D69" x="0" y="0" fill="#000000" fill-rule="nonzero"/></g><g transform="matrix(1 0 0 -1 240.756551181 56.211874016)"><use xlink:href="#g8894C0A608DBD285706C131FF554A2B1" x="0" y="0" fill="#000000" fill-rule="nonzero"/></g><path fill="none" stroke="#000000" stroke-width="0.528" stroke-linecap="butt" stroke-linejoin="miter" stroke-miterlimit="4" transform="translate(240.756551181 45.915874016)" d="M 0 0h 5.5"/><g transform="matrix(1 0 0 -1 249.800995626 48.665874016)"><use xlink:href="#g72FDBB830EBBF5B5860CF87A1202F235" x="0" y="0" fill="#000000" fill-rule="nonzero"/></g><g transform="matrix(1 0 0 -1 256.40344007 41.218874016)"><use xlink:href="#g8894C0A608DBD285706C131FF554A2B1" x="0" y="0" fill="#000000" fill-rule="nonzero"/></g><g transform="matrix(1 0 0 -1 256.40344007 56.211874016)"><use xlink:href="#g38D01286548D526A8BD5E8724FB2369F" x="0" y="0" fill="#000000" fill-rule="nonzero"/></g><path fill="none" stroke="#000000" stroke-width="0.528" stroke-linecap="butt" stroke-linejoin="miter" stroke-miterlimit="4" transform="translate(256.40344007 45.915874016)" d="M 0 0h 5.5"/><g transform="matrix(1 0 0 -1 195.590551181 77.947874016)"><use xlink:href="#gDD78C4AC18CD51C41481EB0565E89892" x="0" y="0" fill="#000000" fill-rule="nonzero"/></g><g transform="matrix(1 0 0 -1 206.896106737 77.947874016)"><use xlink:href="#g2389F7618E8CE27CC7151A1D8E5DEAD4" x="0" y="0" fill="#000000" fill-rule="nonzero"/></g><g transform="matrix(1 0 0 -1 219.609662292 70.500874016)"><use xlink:href="#g8894C0A608DBD285706C131FF554A2B1" x="0" y="0" fill="#000000" fill-rule="nonzero"/></g><g transform="matrix(1 0 0 -1 225.109662292 70.500874016)"><use xlink:href="#gAE482DA578200FA3765B7A490E273D69" x="0" y="0" fill="#000000" fill-rule="nonzero"/></g><g transform="matrix(1 0 0 -1 219.609662292 85.493874016)"><use xlink:href="#gAE482DA578200FA3765B7A490E273D69" x="0" y="0" fill="#000000" fill-rule="nonzero"/></g><g transform="matrix(1 0 0 -1 225.109662292 85.493874016)"><use xlink:href="#g8894C0A608DBD285706C131FF554A2B1" x="0" y="0" fill="#000000" fill-rule="nonzero"/></g><path fill="none" stroke="#000000" stroke-width="0.528" stroke-linecap="butt" stroke-linejoin="miter" stroke-miterlimit="4" transform="translate(219.609662292 75.197874016)" d="M 0 0h 11"/><g transform="matrix(1 0 0 -1 234.154106737 77.947874016)"><use xlink:href="#g6CA3708905D5D56BD06755CEABD69DE1" x="0" y="0" fill="#000000" fill-rule="nonzero"/></g><g transform="matrix(1 0 0 -1 246.256551181 70.500874016)"><use xlink:href="#g847DCE2A3EE7D23E3D551BDE0EE8A683" x="0" y="0" fill="#000000" fill-rule="nonzero"/></g><g transform="matrix(1 0 0 -1 251.756551181 70.500874016)"><use xlink:href="#g5DF7FDD026DB928A9BECE5CB45FEF99F" x="0" y="0" fill="#000000" fill-rule="nonzero"/></g><g transform="matrix(1 0 0 -1 246.256551181 85.493874016)"><use xlink:href="#gAE482DA578200FA3765B7A490E273D69" x="0" y="0" fill="#000000" fill-rule="nonzero"/></g><g transform="matrix(1 0 0 -1 251.756551181 85.493874016)"><use xlink:href="#g8894C0A608DBD285706C131FF554A2B1" x="0" y="0" fill="#000000" fill-rule="nonzero"/></g><path fill="none" stroke="#000000" stroke-width="0.528" stroke-linecap="butt" stroke-linejoin="miter" stroke-miterlimit="4" transform="translate(246.256551181 75.197874016)" d="M 0 0h 11"/><g transform="matrix(1 0 0 -1 195.590551181 107.229874016)"><use xlink:href="#gDD78C4AC18CD51C41481EB0565E89892" x="0" y="0" fill="#000000" fill-rule="nonzero"/></g><g transform="matrix(1 0 0 -1 206.896106737 107.229874016)"><use xlink:href="#g2389F7618E8CE27CC7151A1D8E5DEAD4" x="0" y="0" fill="#000000" fill-rule="nonzero"/></g><g transform="matrix(1 0 0 -1 219.609662292 99.782874016)"><use xlink:href="#g93E2B88EAD8DFDF0BE4D6467DB923DB5" x="0" y="0" fill="#000000" fill-rule="nonzero"/></g><g transform="matrix(1 0 0 -1 225.109662292 99.782874016)"><use xlink:href="#gAE482DA578200FA3765B7A490E273D69" x="0" y="0" fill="#000000" fill-rule="nonzero"/></g><g transform="matrix(1 0 0 -1 219.609662292 114.775874016)"><use xlink:href="#gAE482DA578200FA3765B7A490E273D69" x="0" y="0" fill="#000000" fill-rule="nonzero"/></g><g transform="matrix(1 0 0 -1 225.109662292 114.775874016)"><use xlink:href="#g8894C0A608DBD285706C131FF554A2B1" x="0" y="0" fill="#000000" fill-rule="nonzero"/></g><path fill="none" stroke="#000000" stroke-width="0.528" stroke-linecap="butt" stroke-linejoin="miter" stroke-miterlimit="4" transform="translate(219.609662292 104.479874016)" d="M 0 0h 11"/><g transform="matrix(1 0 0 -1 195.590551181 128.855874016)"><use xlink:href="#g14CB754CE297B694D18D364D9C1BAD84" x="0" y="0" fill="#000000" fill-rule="nonzero"/><use xlink:href="#gB38329E71763B8BD4CF776D24C5AFFE1" x="6.127" y="0" fill="#000000" fill-rule="nonzero"/><use xlink:href="#g1E471D2E98C4E85A3CE47F56E86025C4" x="12.353" y="0" fill="#000000" fill-rule="nonzero"/><use xlink:href="#g5E76F8DBE7C3C7A9A461E8EC1D70F6FB" x="17.732" y="0" fill="#000000" fill-rule="nonzero"/><use xlink:href="#gDD50B131DFBA2C7EA73123CA4C98C33" x="23.276" y="0" fill="#000000" fill-rule="nonzero"/><use xlink:href="#g36F90904A4043C6A677E73471A30013F" x="26.257" y="0" fill="#000000" fill-rule="nonzero"/><use xlink:href="#gF67C713431A76E10A7998B4384A85B5" x="29.161" y="0" fill="#000000" fill-rule="nonzero"/><use xlink:href="#g4C1ED41FE02ABB1BA3896D4213CC7460" x="33.968" y="0" fill="#000000" fill-rule="nonzero"/></g><defs><symbol id="g176C29A21F88031F35D9636899652C0D" overflow="visible"><path d="M 0 0m 7.59 8.0916c -0.2508 -0.0528 -0.6204 -0.0528 -0.792 0l -1.8876 -5.3196l -0.0924 -0.3432l -0.132 0.4224l -1.4388 4.7124c -0.132 0.4356 0.3432 0.4884 0.9768 0.528c 0.0792 0.0792 0.0792 0.3696 0 0.4488c -0.4884 -0.0132 -1.8084 -0.0264 -2.3232 -0.0264c -0.5412 0 -1.2804 0.0132 -1.7688 0.0264c -0.0792 -0.0792 -0.0792 -0.3696 0 -0.4488c 0.5148 -0.0528 0.99 -0.1452 1.188 -0.7128l 2.4816 -7.2336c 0.0924 -0.2772 0.2904 -0.3036 0.4356 -0.3036c 0.132 0 0.3432 0.0264 0.4488 0.3036l 1.98 5.2668l 2.0196 -5.2668c 0.0924 -0.2508 0.2376 -0.3036 0.4356 -0.3036c 0.1716 0 0.3564 0.066 0.4488 0.3036l 2.4816 6.7584c 0.2772 0.7788 0.8052 1.1484 1.386 1.188c 0.0792 0.0792 0.0792 0.3696 0 0.4488c -0.4356 -0.0132 -0.8844 -0.0264 -1.3464 -0.0264c -0.5412 0 -1.1616 0.0132 -1.65 0.0264c -0.0792 -0.0792 -0.0792 -0.3696 0 -0.4488c 0.7524 -0.1188 1.0032 -0.396 0.8448 -0.8844l -1.4916 -4.4352l -0.1584 -0.4752l -0.198 0.5544Z "/></symbol><symbol id="g489A14AC9D4233C26CC9E520DD834A83" overflow="visible"><path d="M 0 0m 3.0624 1.6104v 2.6268c 0 0.66 0.0528 1.3992 0.0528 1.3992c 0 0.1452 -0.1188 0.2244 -0.3036 0.2244c -0.3696 -0.1452 -1.4388 -0.2508 -2.3496 -0.3696c -0.0264 -0.0792 0 -0.3432 0.0264 -0.4224c 0.726 -0.066 0.858 -0.1716 0.858 -0.924v -2.5344c 0 -1.0956 -0.1452 -1.122 -0.9504 -1.188c -0.0792 -0.0792 -0.0792 -0.3696 0 -0.4488c 0.5544 0.0132 1.1088 0.0264 1.8084 0.0264c 0.6996 0 1.2408 -0.0132 1.8084 -0.0264c 0.0792 0.0792 0.0792 0.3696 0 0.4488c -0.8052 0.0528 -0.9504 0.0924 -0.9504 1.188Z m -1.782 6.2568c 0 -0.4356 0.3168 -0.8712 0.8448 -0.8712c 0.594 0 0.9372 0.4752 0.9372 0.8184c 0 0.396 -0.3036 0.8712 -0.858 0.8712c -0.6204 0 -0.924 -0.4224 -0.924 -0.8184Z "/></symbol><symbol id="g7E36569BD456FFBB71649A22C7DD8BCF" overflow="visible"><path d="M 0 0m 0.8316 5.7288c -0.1848 0 -0.3828 -0.0528 -0.5544 -0.198v -0.3828c 0 -0.066 0.0132 -0.0792 0.066 -0.0792h 0.858c -0.0264 -1.3332 -0.0396 -3.0228 -0.0396 -3.6828c 0 -0.462 0.1188 -0.9108 0.396 -1.1484c 0.3036 -0.2508 0.7788 -0.3696 1.0956 -0.3696c 0.726 0 1.5312 0.3696 1.7952 0.7392c 0 0.1584 -0.0792 0.2376 -0.2376 0.3696c -0.1716 -0.132 -0.5016 -0.1848 -0.7524 -0.1848c -0.2904 0 -0.5808 0.2244 -0.5808 0.8844c 0 0.66 -0.0132 2.0724 -0.0132 3.3924h 1.3332c 0.132 0 0.3168 0.0528 0.3168 0.1716v 0.4092c 0 0.0528 -0.0396 0.0792 -0.1056 0.0792h -1.5444l 0.0132 0.4488c 0.0264 0.8844 0.066 1.4916 0.066 1.4916c 0 0.0792 -0.0396 0.1188 -0.1056 0.1188c -0.0924 0 -0.5808 -0.1452 -0.792 -0.2376c -0.2244 -0.0924 -0.6072 -0.1716 -0.6996 -0.2904c -0.0924 -0.1188 -0.1452 -0.4752 -0.1452 -1.5312Z "/></symbol><symbol id="gF84E97C9781EC8D8E3FAE71DBFAB2EDA" overflow="visible"><path d="M 0 0m 6.9696 1.6896v 2.0592c 0 1.452 -0.6204 2.112 -1.7556 2.112c -0.4884 0 -1.4256 -0.4884 -2.178 -0.9504v 2.7852c 0 0.858 0.0396 1.3464 0.0396 1.3464c 0 0.1188 -0.0924 0.1716 -0.2112 0.1716c -0.4884 -0.1584 -1.5444 -0.3036 -2.4816 -0.3432c -0.0396 -0.1584 -0.0264 -0.3036 0.0396 -0.4224c 0.8316 -0.066 0.8976 -0.0792 0.8976 -0.99v -5.7816c 0 -1.0956 -0.2112 -1.2144 -1.0164 -1.254c -0.0792 -0.0792 -0.0792 -0.3696 0 -0.4488c 0.5544 0.0132 1.1484 0.0264 1.8744 0.0264c 0.6336 0 1.0428 -0.0132 1.6104 -0.0264c 0.0792 0.0792 0.0792 0.3696 0 0.4488c -0.5544 0.0396 -0.7524 0.1584 -0.7524 1.254v 2.706c 0.5544 0.3432 0.99 0.5016 1.2276 0.5016c 0.528 0 0.99 -0.2376 0.99 -0.99v -2.2044c 0 -1.1088 -0.2112 -1.2276 -0.7524 -1.2672c -0.0792 -0.0792 -0.0792 -0.3696 0 -0.4488c 0.5544 0.0132 0.9768 0.0264 1.6104 0.0264c 0.726 0 1.3068 -0.0132 1.8744 -0.0264c 0.0792 0.0792 0.0792 0.3696 0 0.4488c -0.8052 0.0396 -1.0164 0.1584 -1.0164 1.2672Z "/></symbol><symbol id="g16FFC50EEB46FED95CB8D2D70DE025B2" overflow="visible"><path d="M 0 0m 0.4884 2.7324c 0 -1.7292 1.3728 -2.8644 3.1416 -2.8644c 0.9372 0 1.716 0.264 2.2572 0.7524c 0.6732 0.594 0.8976 1.4916 0.8976 2.2308c 0 1.7292 -1.1748 3.0096 -3.1416 3.0096c -1.0956 0 -1.914 -0.3828 -2.4288 -0.9768c -0.5016 -0.5808 -0.726 -1.3728 -0.726 -2.1516Z m 2.9436 2.574c 0.8976 0 1.5048 -1.0692 1.5048 -2.8776c 0 -1.584 -0.6204 -2.0064 -1.0956 -2.0064c -1.0824 0 -1.5048 1.6236 -1.5048 2.6004c 0 1.2144 0.2112 2.2836 1.0956 2.2836Z "/></symbol><symbol id="g71CE1B9F6FD9E035F8C0F2AFF5C46164" overflow="visible"><path d="M 0 0m 6.732 1.7556v 2.2836c 0 1.1088 0.0264 0.9504 0.0264 1.2672c 0 0.2244 -0.0528 0.3696 -0.132 0.4488c -0.2376 -0.0132 -0.5016 -0.0264 -0.7524 -0.0264c -0.3696 0 -1.2276 0.0132 -1.7424 0.0264c -0.0792 -0.0792 -0.0792 -0.3696 0 -0.4488c 0.6732 -0.066 0.8844 -0.1584 0.8844 -1.2672v -2.442c 0 -0.132 0 -0.264 0.0132 -0.396c -0.5412 -0.33 -0.9768 -0.3564 -1.2144 -0.3564c -0.528 0 -0.924 0.066 -0.924 0.99v 2.2044c 0 1.1088 0.0264 0.9504 0.0264 1.2672c 0 0.2244 -0.0528 0.3696 -0.132 0.4488c -0.2376 -0.0132 -0.5148 -0.0264 -0.7524 -0.0264c -0.6732 0 -1.1748 0.0132 -1.7424 0.0264c -0.0792 -0.0792 -0.0792 -0.3696 0 -0.4488c 0.6072 -0.0264 0.8844 -0.1584 0.8844 -1.2672v -2.0592c 0 -1.3992 0.5544 -2.112 1.6896 -2.112c 0.4752 0 1.4388 0.3828 2.2044 0.8052c 0.0264 -0.33 0.0528 -0.5808 0.0528 -0.5808c 0.0132 -0.1584 0.1188 -0.2244 0.3036 -0.2244c 0.4884 0.132 1.2804 0.3168 2.1912 0.4356c 0.0264 0.0792 0 0.3432 -0.0264 0.4224c -0.7128 0.066 -0.858 0.2772 -0.858 1.0296Z "/></symbol><symbol id="g8EA8C068C9191756C238CFDE05E8292D" overflow="visible"><path d="M 0 0m 0.9768 1.6764c 0 -1.0956 -0.0264 -1.254 -0.0792 -1.7556c 0.1584 -0.0528 0.3036 -0.0924 0.4488 -0.0924c 0.1716 0.1452 0.3036 0.33 0.4224 0.5676c 0.5148 -0.396 1.32 -0.528 1.9272 -0.528c 1.4652 0 3.0096 1.452 3.0096 3.3396c 0 0.7524 -0.2904 1.4916 -0.7128 1.98c -0.4752 0.5412 -1.1088 0.6732 -1.8084 0.6732c -0.4092 0 -1.1088 -0.462 -1.4916 -0.7392v 2.574c 0 0.858 0.0396 1.3464 0.0396 1.3464c 0 0.1188 -0.0924 0.1716 -0.2112 0.1716c -0.4884 -0.1584 -1.5444 -0.3036 -2.4816 -0.3432c -0.0396 -0.1584 -0.0264 -0.3036 0.0396 -0.4224c 0.8316 -0.066 0.8976 -0.0792 0.8976 -0.99Z m 1.716 2.9172c 0.4356 0.2904 0.726 0.33 1.0296 0.33c 0.6468 0 1.1352 -0.594 1.1352 -1.8876c 0 -1.0824 -0.1848 -2.6136 -1.2276 -2.6136c -0.3828 0 -0.6864 0.1584 -0.9372 0.462Z "/></symbol><symbol id="gAB7A56E2DF20A7C8C7BC9B85DB7E88D7" overflow="visible"><path d="M 0 0m 3.0096 3.5376c 0 0.4752 0.1452 0.6732 0.3168 0.8712c 0.1056 0.132 0.2244 0.2244 0.4224 0.2244c 0.1188 0 0.264 -0.1188 0.3696 -0.2508c 0.0924 -0.1056 0.3168 -0.2112 0.6204 -0.2112c 0.3828 0 0.7524 0.396 0.7524 0.9504c 0 0.3432 -0.396 0.7392 -0.8712 0.7392c -0.462 0 -0.9636 -0.396 -1.5708 -1.2672h -0.0528c -0.0264 0.396 -0.0924 1.0428 -0.0924 1.0428c -0.0132 0.1188 -0.1188 0.2244 -0.3036 0.2244c -0.6204 -0.1584 -1.32 -0.3432 -2.1912 -0.4356c -0.0264 -0.0792 0 -0.33 0.0264 -0.4092c 0.726 -0.066 0.858 -0.1848 0.858 -0.9372v -2.4684c 0 -1.0956 -0.1452 -1.122 -0.9504 -1.188c -0.0792 -0.0792 -0.0792 -0.3696 0 -0.4488c 0.5544 0.0132 1.1088 0.0264 1.8084 0.0264c 0.6996 0 1.2408 -0.0132 1.8084 -0.0264c 0.0792 0.0792 0.0792 0.3696 0 0.4488c -0.8052 0.0528 -0.9504 0.0924 -0.9504 1.188Z "/></symbol><symbol id="g3C74A4D05653FE58EC9F9D18E132A9C" overflow="visible"><path d="M 0 0m 5.6892 1.7028c -0.5412 -0.5544 -1.254 -0.6996 -1.7556 -0.6996c -1.0296 0 -1.6632 0.594 -1.6632 1.8876c 0 0.0924 0.0132 0.1452 0.0132 0.2112h 3.168c 0.3168 0 0.3828 0.2244 0.3828 0.4092c 0 1.122 -0.4356 2.3496 -2.376 2.3496c -1.386 0 -2.97 -1.2276 -2.97 -3.2472c 0 -0.7656 0.2772 -1.5708 0.8448 -2.0856c 0.5016 -0.4488 1.1484 -0.66 2.0856 -0.66c 0.9108 0 1.8084 0.462 2.4684 1.4256c 0 0.1716 -0.066 0.4092 -0.198 0.4092Z m -3.3528 1.9272c 0.0132 0.462 0.0792 0.9636 0.264 1.2276c 0.2112 0.3168 0.5676 0.4488 0.7128 0.4488c 0.3564 0 0.8448 -0.3432 0.8448 -1.3992c 0 -0.0792 0 -0.2508 -0.0264 -0.2772Z "/></symbol><symbol id="g6F4F505D1A9622063A992E03DE7AB033" overflow="visible"><path d="M 0 0m 3.894 0.6468c 0.0924 -0.5412 0.4488 -0.7788 1.0296 -0.7788c 0.726 0 1.2408 0.2772 1.7292 0.7392c -0.0264 0.1584 -0.0792 0.264 -0.2376 0.3696c -0.1716 -0.132 -0.3036 -0.1848 -0.5544 -0.1848c -0.2904 0 -0.3696 0.2376 -0.3696 0.8844l 0.0264 1.9008c 0 1.9008 -1.1748 2.2836 -2.2572 2.2836c -0.9636 0 -2.442 -0.5544 -2.442 -1.4256c 0 -0.3696 0.1584 -0.66 0.6732 -0.66c 0.4752 0 0.8184 0.2904 0.8184 0.6072c 0 0.066 -0.0132 0.1452 -0.0264 0.2244c -0.0264 0.132 -0.0528 0.264 -0.0264 0.396c 0.0132 0.1452 0.1188 0.3036 0.5544 0.3036c 0.5544 0 1.0164 -0.2376 1.0164 -1.914l -0.8844 -0.2772c -1.386 -0.4356 -2.3628 -0.8184 -2.3628 -1.8612c 0 -0.9108 0.5016 -1.386 1.65 -1.386c 0.3828 0 1.1484 0.4224 1.584 0.7656Z m -0.066 2.2308v -1.7424c -0.33 -0.264 -0.66 -0.4752 -0.8976 -0.4752c -0.5676 0 -0.7656 0.3828 -0.7656 0.792c 0 0.4884 0.0396 0.8976 0.9768 1.2012Z "/></symbol><symbol id="gDD78C4AC18CD51C41481EB0565E89892" overflow="visible"><path d="M 0 0m 1.507 0.033c 0.198 0 0.88 -0.033 1.089 -0.033c 0.165 0 0.242 0.088 0.242 0.253c 0 0.099 -0.066 0.165 -0.209 0.176c -0.319 0.011 -0.473 0.121 -0.473 0.33c 0 0.099 0.099 0.319 0.308 0.649c 0.297 0.495 0.506 0.858 0.649 1.1h 2.673c 0 -0.077 0.011 -0.231 0.044 -0.473c 0.077 -0.803 0.121 -1.243 0.121 -1.298c 0 -0.209 -0.242 -0.308 -0.737 -0.308c -0.209 0 -0.308 -0.088 -0.308 -0.264c 0 -0.11 0.066 -0.165 0.198 -0.165c 0.264 0 1.1 0.033 1.364 0.033c 0.22 0 1.001 -0.033 1.221 -0.033c 0.165 0 0.242 0.088 0.242 0.264c 0 0.11 -0.099 0.165 -0.297 0.165c -0.308 0 -0.495 0.022 -0.55 0.055c -0.055 0.033 -0.099 0.132 -0.11 0.297l -0.66 6.798c -0.033 0.209 -0.022 0.297 -0.253 0.297c -0.132 0 -0.242 -0.066 -0.319 -0.209l -3.784 -6.347c -0.33 -0.55 -0.77 -0.847 -1.309 -0.891c -0.176 -0.011 -0.264 -0.099 -0.264 -0.264c 0 -0.11 0.066 -0.165 0.187 -0.165c 0.176 0 0.759 0.033 0.935 0.033Z m 3.905 6.314l 0.33 -3.41h -2.365Z "/></symbol><symbol id="g2389F7618E8CE27CC7151A1D8E5DEAD4" overflow="visible"><path d="M 0 0m 7.678 4.037h -6.798c -0.176 0 -0.264 -0.088 -0.264 -0.253c 0 -0.165 0.088 -0.253 0.264 -0.253h 6.798c 0.176 0 0.264 0.088 0.264 0.253c 0 0.132 -0.121 0.253 -0.264 0.253Z m 0 -2.068h -6.798c -0.176 0 -0.264 -0.088 -0.264 -0.253c 0 -0.165 0.088 -0.253 0.264 -0.253h 6.798c 0.176 0 0.264 0.088 0.264 0.253c 0 0.143 -0.121 0.253 -0.264 0.253Z "/></symbol><symbol id="gA754BD559092BEFA127826A2A25BC17" overflow="visible"><path d="M 0 0m 4.213 5.544c 0.363 0 0.539 0.187 0.539 0.561c 0 0.792 -0.594 1.221 -1.408 1.221c -0.913 0 -1.639 -0.429 -2.178 -1.298c -0.473 -0.748 -0.704 -1.595 -0.704 -2.552c 0 -1.397 0.253 -2.376 0.77 -2.959c 0.44 -0.506 0.946 -0.759 1.529 -0.759c 0.671 0 1.221 0.253 1.65 0.759c 0.407 0.484 0.616 1.067 0.616 1.738c 0 0.671 -0.198 1.243 -0.594 1.716c -0.418 0.506 -0.957 0.77 -1.606 0.77c -0.572 0 -1.012 -0.319 -1.309 -0.935v 0.066c 0 1.243 0.308 2.299 0.968 2.783c 0.286 0.209 0.583 0.308 0.88 0.308c 0.396 0 0.682 -0.11 0.869 -0.341c -0.374 0 -0.561 -0.209 -0.561 -0.539c 0 -0.308 0.231 -0.539 0.539 -0.539Z m -0.429 -1.804c 0.121 -0.253 0.187 -0.748 0.187 -1.474c 0 -0.715 -0.055 -1.188 -0.176 -1.43c -0.22 -0.451 -0.561 -0.682 -1.034 -0.682c -0.319 0 -0.561 0.11 -0.737 0.33c -0.143 0.176 -0.242 0.33 -0.286 0.451c -0.132 0.341 -0.198 0.858 -0.198 1.562c 0 0.308 0.044 0.605 0.121 0.891c 0.143 0.517 0.55 1.001 1.155 1.001c 0.429 0 0.759 -0.22 0.968 -0.649Z "/></symbol><symbol id="g8894C0A608DBD285706C131FF554A2B1" overflow="visible"><path d="M 0 0m 1.298 3.465c 0.055 0 0.121 0.044 0.176 0.121c 0.33 0.495 0.781 0.737 1.353 0.737c 0.385 0 0.682 -0.22 0.88 -0.671c 0.121 -0.297 0.187 -0.748 0.187 -1.353c 0 -0.693 -0.088 -1.177 -0.253 -1.463c -0.275 -0.451 -0.649 -0.682 -1.122 -0.682c -0.737 0 -1.32 0.528 -1.518 1.1c 0.033 -0.011 0.055 0 0.099 0c 0.33 0 0.605 0.253 0.605 0.583c 0 0.341 -0.275 0.572 -0.605 0.572c -0.385 0 -0.55 -0.209 -0.55 -0.616c 0 -1.1 0.891 -2.035 1.991 -2.035c 0.671 0 1.243 0.242 1.705 0.726c 0.462 0.484 0.693 1.067 0.693 1.738c 0 0.638 -0.187 1.188 -0.561 1.661c -0.407 0.517 -0.913 0.77 -1.529 0.77c -0.517 0 -0.968 -0.165 -1.331 -0.495v 1.958c 0.297 -0.088 0.583 -0.132 0.88 -0.132c 0.506 0 0.946 0.121 1.32 0.374c 0.341 0.209 0.572 0.418 0.704 0.616c 0.066 0.088 0.099 0.154 0.099 0.187c 0 0.11 -0.055 0.165 -0.165 0.165c -0.605 -0.231 -1.122 -0.352 -1.54 -0.352c -0.495 0 -0.968 0.099 -1.419 0.308c -0.055 0.022 -0.099 0.033 -0.143 0.033c -0.099 0 -0.154 -0.099 -0.154 -0.308v -3.212c 0 -0.231 0 -0.33 0.198 -0.33Z "/></symbol><symbol id="g6CA3708905D5D56BD06755CEABD69DE1" overflow="visible"><path d="M 0 0m 7.678 2.97h -6.798c -0.176 0 -0.264 -0.077 -0.264 -0.22c 0 -0.143 0.088 -0.22 0.264 -0.22h 6.798c 0.176 0 0.264 0.077 0.264 0.22c 0 0.132 -0.132 0.22 -0.264 0.22Z "/></symbol><symbol id="gAE482DA578200FA3765B7A490E273D69" overflow="visible"><path d="M 0 0m 3.883 7.447c -0.099 0 -0.187 -0.055 -0.253 -0.154l -3.322 -5.104v -0.396h 2.871v -0.902c 0 -0.198 -0.044 -0.33 -0.121 -0.385c -0.077 -0.055 -0.286 -0.077 -0.649 -0.077h -0.275v -0.429c 0.319 0.022 0.825 0.033 1.507 0.033c 0.682 0 1.188 -0.011 1.507 -0.033v 0.429h -0.275c -0.363 0 -0.572 0.022 -0.649 0.077c -0.077 0.055 -0.121 0.187 -0.121 0.385v 0.902h 1.078v 0.429h -1.078v 5.038c 0 0.11 -0.077 0.187 -0.22 0.187Z m -0.638 -1.364v -3.861h -2.508Z "/></symbol><symbol id="g72FDBB830EBBF5B5860CF87A1202F235" overflow="visible"><path d="M 0 0m 2.112 2.75c 0 0.319 -0.264 0.583 -0.583 0.583c -0.319 0 -0.583 -0.264 -0.583 -0.583c 0 -0.319 0.264 -0.583 0.583 -0.583c 0.319 0 0.583 0.264 0.583 0.583Z "/></symbol><symbol id="g38D01286548D526A8BD5E8724FB2369F" overflow="visible"><path d="M 0 0m 1.276 1.54c -0.363 0 -0.539 -0.187 -0.539 -0.561c 0 -0.825 0.671 -1.221 1.54 -1.221c 0.88 0 1.584 0.44 2.101 1.331c 0.429 0.737 0.649 1.584 0.649 2.53c 0 1.397 -0.253 2.387 -0.759 2.97c -0.429 0.495 -0.924 0.737 -1.485 0.737c -0.649 0 -1.188 -0.231 -1.617 -0.704c -0.473 -0.495 -0.704 -1.089 -0.704 -1.782c 0 -0.671 0.198 -1.243 0.594 -1.716c 0.418 -0.506 0.957 -0.759 1.606 -0.759c 0.572 0 1.012 0.308 1.309 0.924v -0.143c 0 -1.199 -0.209 -2.013 -0.638 -2.453c -0.341 -0.363 -0.704 -0.539 -1.067 -0.539c -0.44 0 -0.759 0.099 -0.968 0.308c 0.341 0 0.517 0.198 0.517 0.539c 0 0.308 -0.231 0.539 -0.539 0.539Z m 1.397 1.166c -0.429 0 -0.748 0.22 -0.968 0.66c -0.121 0.253 -0.187 0.748 -0.187 1.463c 0 0.715 0.077 1.199 0.22 1.474c 0.242 0.44 0.594 0.66 1.045 0.66c 0.451 0 0.781 -0.275 0.99 -0.825c 0.121 -0.297 0.198 -0.803 0.198 -1.518c 0 -0.957 -0.429 -1.914 -1.298 -1.914Z "/></symbol><symbol id="g847DCE2A3EE7D23E3D551BDE0EE8A683" overflow="visible"><path d="M 0 0m 2.607 7.326c -0.561 0 -1.034 -0.198 -1.441 -0.594c -0.407 -0.396 -0.616 -0.858 -0.616 -1.419c 0 -0.374 0.275 -0.649 0.616 -0.649c 0.33 0 0.605 0.286 0.605 0.616c 0 0.363 -0.264 0.616 -0.616 0.616c -0.033 0 -0.055 0 -0.077 -0.011c 0.209 0.539 0.693 1.012 1.386 1.012c 0.902 0 1.408 -0.781 1.408 -1.727c 0 -0.737 -0.374 -1.529 -1.122 -2.365l -2.068 -2.332c -0.143 -0.165 -0.132 -0.154 -0.132 -0.473h 4.081l 0.319 1.98h -0.363c -0.088 -0.561 -0.165 -0.88 -0.231 -0.979c -0.055 -0.055 -0.385 -0.077 -0.99 -0.077h -1.837l 1.067 1.045c 0.748 0.704 1.694 1.463 2.013 2.046c 0.22 0.385 0.33 0.77 0.33 1.155c 0 1.298 -1.012 2.156 -2.332 2.156Z "/></symbol><symbol id="g5DF7FDD026DB928A9BECE5CB45FEF99F" overflow="visible"><path d="M 0 0m 2.739 -0.242c 1.551 0 2.321 1.254 2.321 3.762c 0 1.683 -0.352 2.805 -1.045 3.355c -0.385 0.297 -0.814 0.451 -1.265 0.451c -1.551 0 -2.321 -1.265 -2.321 -3.806c 0 -2.024 0.539 -3.762 2.31 -3.762Z m 1.232 6.006c 0.077 -0.385 0.11 -1.089 0.11 -2.112c 0 -1.012 -0.044 -1.76 -0.121 -2.244c -0.143 -0.88 -0.55 -1.32 -1.221 -1.32c -0.253 0 -0.506 0.099 -0.737 0.286c -0.297 0.253 -0.473 0.77 -0.55 1.562c -0.033 0.275 -0.044 0.847 -0.044 1.716c 0 0.957 0.033 1.628 0.088 1.991c 0.099 0.605 0.297 0.99 0.605 1.155c 0.242 0.132 0.451 0.198 0.638 0.198c 0.715 0 1.111 -0.583 1.232 -1.232Z "/></symbol><symbol id="g93E2B88EAD8DFDF0BE4D6467DB923DB5" overflow="visible"><path d="M 0 0m 3.333 3.883c 0.726 0.275 1.408 0.968 1.408 1.903c 0 0.473 -0.231 0.858 -0.682 1.155c -0.396 0.253 -0.847 0.385 -1.353 0.385c -0.495 0 -0.924 -0.132 -1.309 -0.385c -0.429 -0.286 -0.649 -0.66 -0.649 -1.133c 0 -0.363 0.242 -0.616 0.594 -0.616c 0.352 0 0.594 0.253 0.594 0.605c 0 0.363 -0.209 0.561 -0.627 0.583c 0.286 0.385 0.737 0.583 1.353 0.583c 0.66 0 0.99 -0.385 0.99 -1.166c 0 -0.462 -0.088 -0.847 -0.253 -1.166c -0.297 -0.528 -0.704 -0.627 -1.386 -0.627c -0.132 -0.022 -0.198 -0.077 -0.198 -0.176c 0 -0.165 0.077 -0.165 0.297 -0.165h 0.473c 0.825 0 1.243 -0.583 1.243 -1.76c 0 -0.935 -0.341 -1.749 -1.177 -1.749c -0.715 0 -1.243 0.242 -1.562 0.726c 0.385 -0.011 0.671 0.275 0.671 0.649c 0 0.374 -0.275 0.649 -0.649 0.649c -0.429 0 -0.649 -0.22 -0.649 -0.671c 0 -0.539 0.242 -0.968 0.726 -1.309c 0.429 -0.297 0.935 -0.44 1.496 -0.44c 0.627 0 1.166 0.209 1.639 0.616c 0.473 0.407 0.704 0.913 0.704 1.529c 0 1.034 -0.814 1.749 -1.694 1.98Z "/></symbol><symbol id="g14CB754CE297B694D18D364D9C1BAD84" overflow="visible"><path d="M 0 0m 3.091 3.971h -1.001v 1.98c 0 0.484 0.132 0.704 0.726 0.704h 0.825c 0.825 0 1.001 -0.44 1.243 -1.199c 0.132 -0.022 0.253 0 0.363 0.055c -0.055 0.451 -0.22 1.507 -0.242 1.595c 0 0.022 -0.011 0.033 -0.044 0.033c -0.187 -0.033 -0.275 -0.044 -0.539 -0.044h -2.805c -0.33 0 -0.979 0.011 -1.419 0.022c -0.066 -0.066 -0.066 -0.297 0 -0.363c 0.77 -0.033 0.957 -0.088 0.957 -1.001v -4.411c 0 -0.913 -0.187 -0.968 -0.957 -1.001c -0.066 -0.066 -0.066 -0.297 0 -0.363c 0.407 0.011 1.067 0.022 1.43 0.022h 2.365c 0.528 0 1.408 -0.022 1.408 -0.022c 0.154 0.55 0.319 1.276 0.407 1.837c -0.11 0.066 -0.242 0.088 -0.385 0.055c -0.22 -0.792 -0.605 -1.441 -1.441 -1.441h -1.276c -0.462 0 -0.616 0.176 -0.616 0.693v 2.431h 1.001c 0.935 0 0.968 -0.253 1.001 -0.748c 0.066 -0.066 0.297 -0.066 0.363 0c -0.011 0.286 -0.022 0.594 -0.022 0.968c 0 0.308 0.011 0.682 0.022 0.946c -0.066 0.066 -0.297 0.066 -0.363 0c -0.033 -0.605 -0.066 -0.748 -1.001 -0.748Z "/></symbol><symbol id="gB38329E71763B8BD4CF776D24C5AFFE1" overflow="visible"><path d="M 0 0m 0.473 4.719c -0.154 0 -0.198 -0.132 -0.198 -0.22v -0.143c 0 -0.055 0.011 -0.066 0.055 -0.066h 0.649v -3.311c 0 -0.781 0.341 -1.089 0.847 -1.089c 0.506 0 1.056 0.242 1.485 0.726c -0.022 0.11 -0.088 0.176 -0.198 0.187c -0.286 -0.22 -0.616 -0.308 -0.902 -0.308c -0.297 0 -0.363 0.33 -0.363 1.012v 2.783h 1.144c 0.11 0 0.264 0.044 0.264 0.143v 0.22c 0 0.044 -0.033 0.066 -0.088 0.066h -1.32v 0.429c 0 0.715 0.044 1.155 0.044 1.155c 0 0.066 -0.033 0.099 -0.088 0.099c -0.044 0 -0.143 -0.044 -0.242 -0.099c -0.121 -0.066 -0.231 -0.121 -0.374 -0.154c -0.132 -0.044 -0.242 -0.077 -0.242 -0.154c 0 -0.132 0.033 -0.055 0.033 -1.276Z "/></symbol><symbol id="g1E471D2E98C4E85A3CE47F56E86025C4" overflow="visible"><path d="M 0 0m 3.575 4.378c 0.594 -0.044 0.66 -0.176 0.429 -0.737l -0.891 -2.156c -0.176 -0.429 -0.231 -0.429 -0.407 0.033l -0.792 2.123c -0.198 0.528 -0.242 0.66 0.341 0.737c 0.066 0.066 0.066 0.297 0 0.363c -0.363 -0.011 -0.748 -0.022 -1.111 -0.022c -0.363 0 -0.693 0.011 -1.023 0.022c -0.066 -0.066 -0.066 -0.297 0 -0.363c 0.583 -0.066 0.66 -0.242 0.88 -0.803l 1.408 -3.476c 0.066 -0.165 0.132 -0.231 0.275 -0.231c 0.11 0 0.187 0.066 0.264 0.253l 1.463 3.443c 0.209 0.484 0.33 0.759 0.946 0.814c 0.066 0.066 0.066 0.297 0 0.363c -0.22 -0.011 -0.484 -0.022 -0.77 -0.022c -0.363 0 -0.737 0.011 -1.012 0.022c -0.066 -0.066 -0.066 -0.297 0 -0.363Z "/></symbol><symbol id="g5E76F8DBE7C3C7A9A461E8EC1D70F6FB" overflow="visible"><path d="M 0 0m 0.451 2.255c 0 -1.122 0.748 -2.365 2.31 -2.365c 0.704 0 1.243 0.253 1.617 0.616c 0.495 0.484 0.715 1.177 0.715 1.848c 0 1.144 -0.627 2.475 -2.31 2.475c -0.726 0 -1.32 -0.297 -1.727 -0.77c -0.396 -0.473 -0.605 -1.111 -0.605 -1.804Z m 2.167 2.189c 0.946 0 1.529 -0.858 1.529 -2.442c 0 -1.386 -0.715 -1.727 -1.232 -1.727c -1.144 0 -1.518 1.386 -1.518 2.233c 0 0.957 0.231 1.936 1.221 1.936Z "/></symbol><symbol id="gDD50B131DFBA2C7EA73123CA4C98C33" overflow="visible"><path d="M 0 0m 1.991 1.342v 2.189c 0 0.55 0.044 1.254 0.044 1.254c 0 0.044 -0.055 0.077 -0.143 0.077c -0.308 -0.121 -0.748 -0.22 -1.507 -0.319c -0.022 -0.066 0 -0.242 0.022 -0.308c 0.605 -0.055 0.715 -0.121 0.715 -0.748v -2.145c 0 -0.913 -0.121 -0.946 -0.792 -1.001c -0.066 -0.066 -0.066 -0.297 0 -0.363c 0.363 0.011 0.792 0.022 1.232 0.022c 0.44 0 0.858 -0.011 1.221 -0.022c 0.066 0.066 0.066 0.297 0 0.363c -0.671 0.044 -0.792 0.088 -0.792 1.001Z m -1.001 5.247c 0 -0.286 0.264 -0.572 0.528 -0.572c 0.308 0 0.572 0.297 0.572 0.528c 0 0.264 -0.231 0.572 -0.528 0.572c -0.264 0 -0.572 -0.264 -0.572 -0.528Z "/></symbol><symbol id="g36F90904A4043C6A677E73471A30013F" overflow="visible"><path d="M 0 0m 1.045 1.342c 0 -0.913 -0.121 -0.968 -0.792 -1.001c -0.066 -0.066 -0.066 -0.297 0 -0.363c 0.385 0.011 0.792 0.022 1.232 0.022c 0.44 0 0.858 -0.011 1.221 -0.022c 0.066 0.066 0.066 0.297 0 0.363c -0.671 0.033 -0.792 0.088 -0.792 1.001v 5.071c 0 0.715 0.044 1.155 0.044 1.155c 0 0.077 -0.044 0.11 -0.143 0.11c -0.275 -0.11 -1.1 -0.264 -1.54 -0.297c -0.022 -0.088 0 -0.264 0.066 -0.33c 0.638 -0.044 0.704 -0.077 0.704 -0.902Z "/></symbol><symbol id="gF67C713431A76E10A7998B4384A85B5" overflow="visible"><path d="M 0 0m 3.223 0.528c 0.066 -0.341 0.187 -0.638 0.737 -0.638c 0.418 0 0.814 0.187 1.045 0.407c -0.022 0.132 -0.066 0.231 -0.187 0.297c -0.077 -0.066 -0.264 -0.176 -0.407 -0.176c -0.319 0 -0.33 0.429 -0.33 0.935v 1.617c 0 1.562 -0.858 1.859 -1.661 1.859c -0.902 0 -1.815 -0.594 -1.815 -1.221c 0 -0.264 0.132 -0.396 0.385 -0.396c 0.319 0 0.517 0.231 0.517 0.374c 0 0.077 -0.011 0.154 -0.033 0.198c -0.011 0.033 -0.022 0.099 -0.022 0.22c 0 0.341 0.462 0.462 0.88 0.462c 0.374 0 0.891 -0.187 0.891 -1.43c 0 -0.077 -0.033 -0.121 -0.066 -0.132l -0.946 -0.231c -1.056 -0.264 -1.815 -0.847 -1.815 -1.595c 0 -0.902 0.616 -1.188 1.386 -1.188c 0.385 0 0.715 0.088 1.199 0.462l 0.22 0.176Z m 0 2.035v -1.452c 0 -0.143 -0.066 -0.22 -0.154 -0.286c -0.286 -0.231 -0.66 -0.484 -0.968 -0.484c -0.55 0 -0.792 0.44 -0.792 0.781c 0 0.495 0.231 1.001 1.045 1.21Z m -1.067 4.818c -0.044 0.011 -0.11 0.022 -0.165 0.022c -0.374 0 -0.627 -0.187 -0.715 -0.253l -0.022 -0.121l 1.254 -1.199c 0.176 -0.165 0.253 -0.22 0.319 -0.22c 0.088 0 0.165 0.066 0.165 0.121c 0 0.077 -0.011 0.154 -0.066 0.264Z "/></symbol><symbol id="g4C1ED41FE02ABB1BA3896D4213CC7460" overflow="visible"><path d="M 0 0m 0.627 0.473c 0 -0.319 0.264 -0.583 0.583 -0.583c 0.319 0 0.583 0.264 0.583 0.583c 0 0.319 -0.264 0.583 -0.583 0.583c -0.319 0 -0.583 -0.264 -0.583 -0.583Z "/></symbol></defs></svg>