<svg viewBox="0 0 368.503937008 314.471748031" width="368.503937008pt" height="314.471748031pt" xmlns="http://www.w3.org/2000/svg" xmlns:xlink="http://www.w3.org/1999/xlink" xmlns:h5="http://www.w3.org/1999/xhtml"><path fill="#ffffff" fill-rule="nonzero" d="M 0 0v 314.471748031h 368.503937008v -314.471748031Z "/><g transform="translate(17.007874016 17.007874016)"><g transform="matrix(1 0 0 -1 0 8.514)"><use xlink:href="#gED6DB94908824FF2D47F78E156E0422D" x="0" y="0" fill="#000000" fill-rule="nonzero"/><use xlink:href="#g6C1791E4DA901DE04C0C85DE4AB428E4" x="6.35765625" y="0" fill="#000000" fill-rule="nonzero"/><use xlink:href="#gB0FAA638F14A07410BA26B95DC055701" x="12.7153125" y="0" fill="#000000" fill-rule="nonzero"/><use xlink:href="#gCBF1B34B3815648480DAF39C88C8AB08" x="19.07296875" y="0" fill="#000000" fill-rule="nonzero"/><use xlink:href="#g185FDCE3EB2EB31805F193B5584EDB96" x="25.430625" y="0" fill="#000000" fill-rule="nonzero"/><use xlink:href="#g675B7A779B4DCBD316F1810B5F4CFB2D" x="38.1459375" y="0" fill="#000000" fill-rule="nonzero"/><use xlink:href="#g9D4AC3D62A1F6DDAD89B9FB50F95BA35" x="44.50359375" y="0" fill="#000000" fill-rule="nonzero"/><use xlink:href="#g377E444AE5D448E49BF97B8ADA54CF5A" x="50.86125" y="0" fill="#000000" fill-rule="nonzero"/><use xlink:href="#g692196DC9E7A70368C5F390944EBA7EE" x="57.21890625" y="0" fill="#000000" fill-rule="nonzero"/><use xlink:href="#g1C486601046DC6BD2AFA525AF8655197" x="63.5765625" y="0" fill="#000000" fill-rule="nonzero"/><use xlink:href="#g4D63F335A471DF3577B686D9EDCBDF1D" x="69.93421875" y="0" fill="#000000" fill-rule="nonzero"/><use xlink:href="#g3E84C1780D0B7E1B308447F87BC9DDFD" x="76.291875" y="0" fill="#000000" fill-rule="nonzero"/><use xlink:href="#g9D4AC3D62A1F6DDAD89B9FB50F95BA35" x="82.64953125" y="0" fill="#000000" fill-rule="nonzero"/><use xlink:href="#g3F5A44D8288CD0338599951E933AD1FA" x="89.0071875" y="0" fill="#000000" fill-rule="nonzero"/></g><g transform="matrix(1 0 0 -1 95.36484375 8.514)"><use xlink:href="#g1E5E86B19CE1DDAFC537B5520313E6CB" x="3.3" y="0" fill="#000000" fill-rule="nonzero"/><use xlink:href="#g4B2EA561B9BA468D1F7682AEFBF394A8" x="16.3944" y="0" fill="#000000" fill-rule="nonzero"/><use xlink:href="#gAB7A56E2DF20A7C8C7BC9B85DB7E88D7" x="21.5556" y="0" fill="#000000" fill-rule="nonzero"/><use xlink:href="#g6F4F505D1A9622063A992E03DE7AB033" x="27.2052" y="0" fill="#000000" fill-rule="nonzero"/><use xlink:href="#g6151B457BEE4F4F54666E14A6443B417" x="33.8844" y="0" fill="#000000" fill-rule="nonzero"/><use xlink:href="#g7E36569BD456FFBB71649A22C7DD8BCF" x="39.9036" y="0" fill="#000000" fill-rule="nonzero"/><use xlink:href="#g489A14AC9D4233C26CC9E520DD834A83" x="44.6292" y="0" fill="#000000" fill-rule="nonzero"/><use xlink:href="#g16FFC50EEB46FED95CB8D2D70DE025B2" x="48.8796" y="0" fill="#000000" fill-rule="nonzero"/><use xlink:href="#gC5024760CEB9DA3D8ADD16735C3DAB83" x="56.1528" y="0" fill="#000000" fill-rule="nonzero"/><use xlink:href="#gDC2D39740434C691032F59BEC232B74F" x="64.284" y="0" fill="#000000" fill-rule="nonzero"/><use xlink:href="#gAE8FDAB087B5120780943FB927104302" x="73.2204" y="0" fill="#000000" fill-rule="nonzero"/><use xlink:href="#g3C74A4D05653FE58EC9F9D18E132A9C" x="80.0976" y="0" fill="#000000" fill-rule="nonzero"/><use xlink:href="#g7E36569BD456FFBB71649A22C7DD8BCF" x="86.5524" y="0" fill="#000000" fill-rule="nonzero"/><use xlink:href="#gAB7A56E2DF20A7C8C7BC9B85DB7E88D7" x="94.578" y="0" fill="#000000" fill-rule="nonzero"/><use xlink:href="#g16FFC50EEB46FED95CB8D2D70DE025B2" x="100.122" y="0" fill="#000000" fill-rule="nonzero"/><use xlink:href="#g16FFC50EEB46FED95CB8D2D70DE025B2" x="107.4876" y="0" fill="#000000" fill-rule="nonzero"/><use xlink:href="#g14C7D4F03964F2792AD15D5E624684AF" x="114.7608" y="0" fill="#000000" fill-rule="nonzero"/><use xlink:href="#g30AD553A7B6BD630DAFB2CA02D9B15E2" x="126.7068" y="0" fill="#000000" fill-rule="nonzero"/><use xlink:href="#g14C7D4F03964F2792AD15D5E624684AF" x="133.2276" y="0" fill="#000000" fill-rule="nonzero"/><use xlink:href="#g6F4F505D1A9622063A992E03DE7AB033" x="145.1736" y="0" fill="#000000" fill-rule="nonzero"/><use xlink:href="#g7E36569BD456FFBB71649A22C7DD8BCF" x="151.8528" y="0" fill="#000000" fill-rule="nonzero"/><use xlink:href="#gAB7A56E2DF20A7C8C7BC9B85DB7E88D7" x="156.5784" y="0" fill="#000000" fill-rule="nonzero"/><use xlink:href="#g489A14AC9D4233C26CC9E520DD834A83" x="162.228" y="0" fill="#000000" fill-rule="nonzero"/><use xlink:href="#g6151B457BEE4F4F54666E14A6443B417" x="166.4784" y="0" fill="#000000" fill-rule="nonzero"/><use xlink:href="#g3C74A4D05653FE58EC9F9D18E132A9C" x="172.4976" y="0" fill="#000000" fill-rule="nonzero"/><use xlink:href="#gDC2D39740434C691032F59BEC232B74F" x="178.9524" y="0" fill="#000000" fill-rule="nonzero"/><use xlink:href="#g6F4F505D1A9622063A992E03DE7AB033" x="187.8888" y="0" fill="#000000" fill-rule="nonzero"/><use xlink:href="#gAB7A56E2DF20A7C8C7BC9B85DB7E88D7" x="194.568" y="0" fill="#000000" fill-rule="nonzero"/><use xlink:href="#g3C74A4D05653FE58EC9F9D18E132A9C" x="200.112" y="0" fill="#000000" fill-rule="nonzero"/><use xlink:href="#g3EE5FCB8C53F0B32CE565FC030BC4E05" x="209.8668" y="0" fill="#000000" fill-rule="nonzero"/><use xlink:href="#g3C74A4D05653FE58EC9F9D18E132A9C" x="214.1568" y="0" fill="#000000" fill-rule="nonzero"/><use xlink:href="#gC26104223453DAA03B0ED83ECC690CFA" x="220.6116" y="0" fill="#000000" fill-rule="nonzero"/></g><g transform="matrix(1 0 0 -1 0 24.948)"><use xlink:href="#g6F4F505D1A9622063A992E03DE7AB033" x="0" y="0" fill="#000000" fill-rule="nonzero"/><use xlink:href="#g3EE5FCB8C53F0B32CE565FC030BC4E05" x="6.6792" y="0" fill="#000000" fill-rule="nonzero"/><use xlink:href="#g16FFC50EEB46FED95CB8D2D70DE025B2" x="10.9692" y="0" fill="#000000" fill-rule="nonzero"/><use xlink:href="#gC5024760CEB9DA3D8ADD16735C3DAB83" x="18.2424" y="0" fill="#000000" fill-rule="nonzero"/><use xlink:href="#g3C74A4D05653FE58EC9F9D18E132A9C" x="26.3736" y="0" fill="#000000" fill-rule="nonzero"/></g></g><g transform="matrix(1 0 0 -1 17.007874016 65.099874016)"><use xlink:href="#gDD78C4AC18CD51C41481EB0565E89892" x="0" y="0" fill="#000000" fill-rule="nonzero"/></g><g transform="matrix(1 0 0 -1 28.313429571 65.099874016)"><use xlink:href="#g2389F7618E8CE27CC7151A1D8E5DEAD4" x="0" y="0" fill="#000000" fill-rule="nonzero"/></g><g transform="matrix(1 0 0 -1 41.026985127 57.652874016)"><use xlink:href="#g8894C0A608DBD285706C131FF554A2B1" x="0" y="0" fill="#000000" fill-rule="nonzero"/></g><g transform="matrix(1 0 0 -1 46.526985127 57.652874016)"><use xlink:href="#gAE482DA578200FA3765B7A490E273D69" x="0" y="0" fill="#000000" fill-rule="nonzero"/></g><g transform="matrix(1 0 0 -1 41.026985127 72.645874016)"><use xlink:href="#gAE482DA578200FA3765B7A490E273D69" x="0" y="0" fill="#000000" fill-rule="nonzero"/></g><g transform="matrix(1 0 0 -1 46.526985127 72.645874016)"><use xlink:href="#g8894C0A608DBD285706C131FF554A2B1" x="0" y="0" fill="#000000" fill-rule="nonzero"/></g><path fill="none" stroke="#000000" stroke-width="0.528" stroke-linecap="butt" stroke-linejoin="miter" stroke-miterlimit="4" transform="translate(41.026985127 62.349874016)" d="M 0 0h 11"/><g transform="matrix(1 0 0 -1 55.571429571 65.099874016)"><use xlink:href="#g6CA3708905D5D56BD06755CEABD69DE1" x="0" y="0" fill="#000000" fill-rule="nonzero"/></g><g transform="matrix(1 0 0 -1 67.673874016 57.652874016)"><use xlink:href="#g847DCE2A3EE7D23E3D551BDE0EE8A683" x="0" y="0" fill="#000000" fill-rule="nonzero"/></g><g transform="matrix(1 0 0 -1 73.173874016 57.652874016)"><use xlink:href="#g5DF7FDD026DB928A9BECE5CB45FEF99F" x="0" y="0" fill="#000000" fill-rule="nonzero"/></g><g transform="matrix(1 0 0 -1 67.673874016 72.645874016)"><use xlink:href="#gAE482DA578200FA3765B7A490E273D69" x="0" y="0" fill="#000000" fill-rule="nonzero"/></g><g transform="matrix(1 0 0 -1 73.173874016 72.645874016)"><use xlink:href="#g8894C0A608DBD285706C131FF554A2B1" x="0" y="0" fill="#000000" fill-rule="nonzero"/></g><path fill="none" stroke="#000000" stroke-width="0.528" stroke-linecap="butt" stroke-linejoin="miter" stroke-miterlimit="4" transform="translate(67.673874016 62.349874016)" d="M 0 0h 11"/><g transform="matrix(1 0 0 -1 17.007874016 87.473874016)"><use xlink:href="#g607FDD17CE03D2E71672FF3245E08E8" x="0" y="0" fill="#000000" fill-rule="nonzero"/></g><g transform="matrix(1 0 0 -1 31.855429571 87.473874016)"><use xlink:href="#g2389F7618E8CE27CC7151A1D8E5DEAD4" x="0" y="0" fill="#000000" fill-rule="nonzero"/></g><g transform="matrix(1 0 0 -1 43.468985127 87.473874016)"><use xlink:href="#g93ED3F78F0B9002134410B06E9C883DB" x="0" y="0" fill="#000000" fill-rule="nonzero"/></g><g transform="matrix(1 0 0 -1 50.035985127 81.714274016)"><use xlink:href="#gBFCC2410A697C41E2DD3187C83DA8F3" x="0" y="0" fill="#000000" fill-rule="nonzero"/></g><g transform="matrix(1 0 0 -1 50.035985127 91.583474016)"><use xlink:href="#g777C235EA19CAB599B58B593B0044621" x="0" y="0" fill="#000000" fill-rule="nonzero"/></g><g transform="matrix(1 0 0 -1 59.917285127 81.714274016)"><use xlink:href="#g25B224D96CA3F5CCC7E774117FEA026D" x="0" y="0" fill="#000000" fill-rule="nonzero"/></g><g transform="matrix(1 0 0 -1 59.917285127 91.583474016)"><use xlink:href="#g72ED4E8BDD8DFFE80EC72D6074F65D44" x="0" y="0" fill="#000000" fill-rule="nonzero"/></g><g transform="matrix(1 0 0 -1 64.298585127 87.473874016)"><use xlink:href="#g8CDCBC3CA855F158AD4E20BF34FF49EC" x="0" y="0" fill="#000000" fill-rule="nonzero"/></g><g transform="matrix(1 0 0 -1 17.007874016 104.545874016)"><use xlink:href="#g9B78A0965D22CB5A552C6587CA83704" x="0" y="0" fill="#000000" fill-rule="nonzero"/></g><g transform="matrix(1 0 0 -1 30.062429571 104.545874016)"><use xlink:href="#g2389F7618E8CE27CC7151A1D8E5DEAD4" x="0" y="0" fill="#000000" fill-rule="nonzero"/></g><g transform="matrix(1 0 0 -1 41.675985127 104.545874016)"><use xlink:href="#g93ED3F78F0B9002134410B06E9C883DB" x="0" y="0" fill="#000000" fill-rule="nonzero"/></g><g transform="matrix(1 0 0 -1 48.258385127 98.786274016)"><use xlink:href="#g7F7F5D7A7456D7D887B32CBF92952997" x="0" y="0" fill="#000000" fill-rule="nonzero"/></g><g transform="matrix(1 0 0 -1 48.242985127 108.655474016)"><use xlink:href="#gCE14D0ABAF4B7840EB3A45FBDCEAD52C" x="0" y="0" fill="#000000" fill-rule="nonzero"/></g><g transform="matrix(1 0 0 -1 58.155085127 98.786274016)"><use xlink:href="#g70B30A4830674231F06EA6B44C92BA71" x="0" y="0" fill="#000000" fill-rule="nonzero"/></g><g transform="matrix(1 0 0 -1 58.155085127 108.655474016)"><use xlink:href="#g1BC1413A0D1A666A74F6DDFF82EB418B" x="0" y="0" fill="#000000" fill-rule="nonzero"/></g><g transform="matrix(1 0 0 -1 62.536385127 104.545874016)"><use xlink:href="#g8CDCBC3CA855F158AD4E20BF34FF49EC" x="0" y="0" fill="#000000" fill-rule="nonzero"/></g><g transform="translate(17.007874016 122.871874016)"><g transform="matrix(1 0 0 -1 0 8.514)"><use xlink:href="#g68334FE969FA066B27A4624FA85F6E3E" x="0" y="0" fill="#000000" fill-rule="nonzero"/><use xlink:href="#g3E84C1780D0B7E1B308447F87BC9DDFD" x="6.35765625" y="0" fill="#000000" fill-rule="nonzero"/><use xlink:href="#g74A2B48A7BFD15DBE93B245B64406013" x="12.7153125" y="0" fill="#000000" fill-rule="nonzero"/><use xlink:href="#g9D4AC3D62A1F6DDAD89B9FB50F95BA35" x="19.07296875" y="0" fill="#000000" fill-rule="nonzero"/><use xlink:href="#g377E444AE5D448E49BF97B8ADA54CF5A" x="25.430625" y="0" fill="#000000" fill-rule="nonzero"/><use xlink:href="#g692196DC9E7A70368C5F390944EBA7EE" x="31.78828125" y="0" fill="#000000" fill-rule="nonzero"/><use xlink:href="#g74A2B48A7BFD15DBE93B245B64406013" x="38.1459375" y="0" fill="#000000" fill-rule="nonzero"/><use xlink:href="#gF628BE4649DCDBAE81259A82F22CF6CD" x="44.50359375" y="0" fill="#000000" fill-rule="nonzero"/><use xlink:href="#gED6DB94908824FF2D47F78E156E0422D" x="50.86125" y="0" fill="#000000" fill-rule="nonzero"/><use xlink:href="#g6C1791E4DA901DE04C0C85DE4AB428E4" x="57.21890625" y="0" fill="#000000" fill-rule="nonzero"/><use xlink:href="#g3CD525072C3EED923B1D4A462AE596D5" x="63.5765625" y="0" fill="#000000" fill-rule="nonzero"/><use xlink:href="#gED6DB94908824FF2D47F78E156E0422D" x="69.93421875" y="0" fill="#000000" fill-rule="nonzero"/><use xlink:href="#g6C1791E4DA901DE04C0C85DE4AB428E4" x="76.291875" y="0" fill="#000000" fill-rule="nonzero"/><use xlink:href="#gB0FAA638F14A07410BA26B95DC055701" x="82.64953125" y="0" fill="#000000" fill-rule="nonzero"/><use xlink:href="#gCBF1B34B3815648480DAF39C88C8AB08" x="89.0071875" y="0" fill="#000000" fill-rule="nonzero"/><use xlink:href="#g185FDCE3EB2EB31805F193B5584EDB96" x="95.36484375" y="0" fill="#000000" fill-rule="nonzero"/><use xlink:href="#g6C1791E4DA901DE04C0C85DE4AB428E4" x="108.08015625" y="0" fill="#000000" fill-rule="nonzero"/><use xlink:href="#gED6DB94908824FF2D47F78E156E0422D" x="114.4378125" y="0" fill="#000000" fill-rule="nonzero"/><use xlink:href="#g6C1791E4DA901DE04C0C85DE4AB428E4" x="120.79546875" y="0" fill="#000000" fill-rule="nonzero"/><use xlink:href="#g74A2B48A7BFD15DBE93B245B64406013" x="127.153125" y="0" fill="#000000" fill-rule="nonzero"/><use xlink:href="#gEB3DE2EC1AF526CB1A27C4E834D23AD4" x="133.51078125" y="0" fill="#000000" fill-rule="nonzero"/><use xlink:href="#g377E444AE5D448E49BF97B8ADA54CF5A" x="146.22609375" y="0" fill="#000000" fill-rule="nonzero"/><use xlink:href="#g692196DC9E7A70368C5F390944EBA7EE" x="152.58375" y="0" fill="#000000" fill-rule="nonzero"/><use xlink:href="#g3E84C1780D0B7E1B308447F87BC9DDFD" x="158.94140625" y="0" fill="#000000" fill-rule="nonzero"/><use xlink:href="#g74A2B48A7BFD15DBE93B245B64406013" x="165.2990625" y="0" fill="#000000" fill-rule="nonzero"/><use xlink:href="#gB8B5B48C46853DE19620E4D5699B9817" x="171.65671875" y="0" fill="#000000" fill-rule="nonzero"/><use xlink:href="#g692196DC9E7A70368C5F390944EBA7EE" x="178.014375" y="0" fill="#000000" fill-rule="nonzero"/><use xlink:href="#gED6DB94908824FF2D47F78E156E0422D" x="184.37203125" y="0" fill="#000000" fill-rule="nonzero"/><use xlink:href="#gB0FAA638F14A07410BA26B95DC055701" x="190.7296875" y="0" fill="#000000" fill-rule="nonzero"/><use xlink:href="#gCB56DAF33CEB714EEFF5A38086069B27" x="197.08734375" y="0" fill="#000000" fill-rule="nonzero"/><use xlink:href="#g185FDCE3EB2EB31805F193B5584EDB96" x="203.445" y="0" fill="#000000" fill-rule="nonzero"/><use xlink:href="#gCC840E9EFB1A60DB84768DA327EE719" x="216.1603125" y="0" fill="#000000" fill-rule="nonzero"/><use xlink:href="#g1C486601046DC6BD2AFA525AF8655197" x="222.51796875" y="0" fill="#000000" fill-rule="nonzero"/><use xlink:href="#gD155476917C9EC87AE0F2A8E117525CC" x="228.875625" y="0" fill="#000000" fill-rule="nonzero"/><use xlink:href="#g74A2B48A7BFD15DBE93B245B64406013" x="235.23328125" y="0" fill="#000000" fill-rule="nonzero"/><use xlink:href="#g675B7A779B4DCBD316F1810B5F4CFB2D" x="241.5909375" y="0" fill="#000000" fill-rule="nonzero"/><use xlink:href="#gDF94D8EAB938869CFB56C8C08C1C80D7" x="247.94859375" y="0" fill="#000000" fill-rule="nonzero"/></g><g transform="matrix(1 0 0 -1 254.30625 8.514)"><use xlink:href="#g1E5E86B19CE1DDAFC537B5520313E6CB" x="3.3" y="0" fill="#000000" fill-rule="nonzero"/></g><g transform="matrix(1 0 0 -1 0 24.948)"><use xlink:href="#g3C74A4D05653FE58EC9F9D18E132A9C" x="0" y="0" fill="#000000" fill-rule="nonzero"/><use xlink:href="#gA2BEE706933ABB318B89FBA72F9CF1EB" x="6.3624" y="0" fill="#000000" fill-rule="nonzero"/><use xlink:href="#g3C74A4D05653FE58EC9F9D18E132A9C" x="13.2396" y="0" fill="#000000" fill-rule="nonzero"/><use xlink:href="#gAB7A56E2DF20A7C8C7BC9B85DB7E88D7" x="19.6944" y="0" fill="#000000" fill-rule="nonzero"/><use xlink:href="#gF7CA4A5FFFD5DD80BC4D0E05FA659D75" x="25.542" y="0" fill="#000000" fill-rule="nonzero"/><use xlink:href="#g7E36569BD456FFBB71649A22C7DD8BCF" x="32.9076" y="0" fill="#000000" fill-rule="nonzero"/><use xlink:href="#gF84E97C9781EC8D8E3FAE71DBFAB2EDA" x="37.6332" y="0" fill="#000000" fill-rule="nonzero"/><use xlink:href="#g489A14AC9D4233C26CC9E520DD834A83" x="45.804" y="0" fill="#000000" fill-rule="nonzero"/><use xlink:href="#gC5024760CEB9DA3D8ADD16735C3DAB83" x="50.0544" y="0" fill="#000000" fill-rule="nonzero"/><use xlink:href="#gAE8FDAB087B5120780943FB927104302" x="58.1856" y="0" fill="#000000" fill-rule="nonzero"/><use xlink:href="#g30AD553A7B6BD630DAFB2CA02D9B15E2" x="65.0628" y="0" fill="#000000" fill-rule="nonzero"/><use xlink:href="#gF84E97C9781EC8D8E3FAE71DBFAB2EDA" x="71.5836" y="0" fill="#000000" fill-rule="nonzero"/><use xlink:href="#g489A14AC9D4233C26CC9E520DD834A83" x="79.7544" y="0" fill="#000000" fill-rule="nonzero"/><use xlink:href="#gAE8FDAB087B5120780943FB927104302" x="84.0048" y="0" fill="#000000" fill-rule="nonzero"/><use xlink:href="#gF84E97C9781EC8D8E3FAE71DBFAB2EDA" x="90.882" y="0" fill="#000000" fill-rule="nonzero"/><use xlink:href="#g3C74A4D05653FE58EC9F9D18E132A9C" x="99.0528" y="0" fill="#000000" fill-rule="nonzero"/><use xlink:href="#gAB7A56E2DF20A7C8C7BC9B85DB7E88D7" x="105.5076" y="0" fill="#000000" fill-rule="nonzero"/><use xlink:href="#g8EA8C068C9191756C238CFDE05E8292D" x="114.4572" y="0" fill="#000000" fill-rule="nonzero"/><use xlink:href="#g6F4F505D1A9622063A992E03DE7AB033" x="121.6116" y="0" fill="#000000" fill-rule="nonzero"/><use xlink:href="#gAB7A56E2DF20A7C8C7BC9B85DB7E88D7" x="128.2908" y="0" fill="#000000" fill-rule="nonzero"/></g></g><g transform="matrix(1 0 0 -1 17.007874016 170.963874016)"><use xlink:href="#gDD78C4AC18CD51C41481EB0565E89892" x="0" y="0" fill="#000000" fill-rule="nonzero"/></g><g transform="matrix(1 0 0 -1 28.313429571 170.963874016)"><use xlink:href="#g2389F7618E8CE27CC7151A1D8E5DEAD4" x="0" y="0" fill="#000000" fill-rule="nonzero"/></g><g transform="matrix(1 0 0 -1 41.026985127 163.516874016)"><use xlink:href="#g8894C0A608DBD285706C131FF554A2B1" x="0" y="0" fill="#000000" fill-rule="nonzero"/></g><g transform="matrix(1 0 0 -1 46.526985127 163.516874016)"><use xlink:href="#gAE482DA578200FA3765B7A490E273D69" x="0" y="0" fill="#000000" fill-rule="nonzero"/></g><g transform="matrix(1 0 0 -1 41.026985127 178.509874016)"><use xlink:href="#gAE482DA578200FA3765B7A490E273D69" x="0" y="0" fill="#000000" fill-rule="nonzero"/></g><g transform="matrix(1 0 0 -1 46.526985127 178.509874016)"><use xlink:href="#g8894C0A608DBD285706C131FF554A2B1" x="0" y="0" fill="#000000" fill-rule="nonzero"/></g><path fill="none" stroke="#000000" stroke-width="0.528" stroke-linecap="butt" stroke-linejoin="miter" stroke-miterlimit="4" transform="translate(41.026985127 168.213874016)" d="M 0 0h 11"/><g transform="matrix(1 0 0 -1 55.571429571 170.963874016)"><use xlink:href="#g6CA3708905D5D56BD06755CEABD69DE1" x="0" y="0" fill="#000000" fill-rule="nonzero"/></g><g transform="matrix(1 0 0 -1 67.673874016 163.516874016)"><use xlink:href="#g847DCE2A3EE7D23E3D551BDE0EE8A683" x="0" y="0" fill="#000000" fill-rule="nonzero"/></g><g transform="matrix(1 0 0 -1 73.173874016 163.516874016)"><use xlink:href="#g5DF7FDD026DB928A9BECE5CB45FEF99F" x="0" y="0" fill="#000000" fill-rule="nonzero"/></g><g transform="matrix(1 0 0 -1 67.673874016 178.509874016)"><use xlink:href="#gAE482DA578200FA3765B7A490E273D69" x="0" y="0" fill="#000000" fill-rule="nonzero"/></g><g transform="matrix(1 0 0 -1 73.173874016 178.509874016)"><use xlink:href="#g8894C0A608DBD285706C131FF554A2B1" x="0" y="0" fill="#000000" fill-rule="nonzero"/></g><path fill="none" stroke="#000000" stroke-width="0.528" stroke-linecap="butt" stroke-linejoin="miter" stroke-miterlimit="4" transform="translate(67.673874016 168.213874016)" d="M 0 0h 11"/><g transform="matrix(1 0 0 -1 17.007874016 197.957874016)"><use xlink:href="#g607FDD17CE03D2E71672FF3245E08E8" x="0" y="0" fill="#000000" fill-rule="nonzero"/></g><g transform="matrix(1 0 0 -1 31.855429571 197.957874016)"><use xlink:href="#g2389F7618E8CE27CC7151A1D8E5DEAD4" x="0" y="0" fill="#000000" fill-rule="nonzero"/></g><g transform="matrix(1 0 0 -1 43.468985127 197.957874016)"><use xlink:href="#g93ED3F78F0B9002134410B06E9C883DB" x="0" y="0" fill="#000000" fill-rule="nonzero"/></g><g transform="matrix(1 0 0 -1 50.035985127 192.198274016)"><use xlink:href="#gBFCC2410A697C41E2DD3187C83DA8F3" x="0" y="0" fill="#000000" fill-rule="nonzero"/></g><g transform="matrix(1 0 0 -1 50.035985127 202.067474016)"><use xlink:href="#g777C235EA19CAB599B58B593B0044621" x="0" y="0" fill="#000000" fill-rule="nonzero"/></g><g transform="matrix(1 0 0 -1 59.917285127 192.198274016)"><use xlink:href="#g25B224D96CA3F5CCC7E774117FEA026D" x="0" y="0" fill="#000000" fill-rule="nonzero"/></g><g transform="matrix(1 0 0 -1 59.917285127 202.067474016)"><use xlink:href="#g72ED4E8BDD8DFFE80EC72D6074F65D44" x="0" y="0" fill="#000000" fill-rule="nonzero"/></g><g transform="matrix(1 0 0 -1 64.298585127 197.957874016)"><use xlink:href="#g8CDCBC3CA855F158AD4E20BF34FF49EC" x="0" y="0" fill="#000000" fill-rule="nonzero"/></g><g transform="matrix(1 0 0 -1 17.007874016 224.269874016)"><use xlink:href="#g9B78A0965D22CB5A552C6587CA83704" x="0" y="0" fill="#000000" fill-rule="nonzero"/></g><g transform="matrix(1 0 0 -1 30.062429571 224.269874016)"><use xlink:href="#g2389F7618E8CE27CC7151A1D8E5DEAD4" x="0" y="0" fill="#000000" fill-rule="nonzero"/></g><g transform="matrix(1 0 0 -1 41.675985127 224.269874016)"><use xlink:href="#g93ED3F78F0B9002134410B06E9C883DB" x="0" y="0" fill="#000000" fill-rule="nonzero"/></g><g transform="matrix(1 0 0 -1 48.258385127 218.510274016)"><use xlink:href="#g7F7F5D7A7456D7D887B32CBF92952997" x="0" y="0" fill="#000000" fill-rule="nonzero"/></g><g transform="matrix(1 0 0 -1 48.242985127 228.379474016)"><use xlink:href="#gCE14D0ABAF4B7840EB3A45FBDCEAD52C" x="0" y="0" fill="#000000" fill-rule="nonzero"/></g><g transform="matrix(1 0 0 -1 58.155085127 218.510274016)"><use xlink:href="#g70B30A4830674231F06EA6B44C92BA71" x="0" y="0" fill="#000000" fill-rule="nonzero"/></g><g transform="matrix(1 0 0 -1 58.155085127 228.379474016)"><use xlink:href="#g1BC1413A0D1A666A74F6DDFF82EB418B" x="0" y="0" fill="#000000" fill-rule="nonzero"/></g><g transform="matrix(1 0 0 -1 62.536385127 224.269874016)"><use xlink:href="#g8CDCBC3CA855F158AD4E20BF34FF49EC" x="0" y="0" fill="#000000" fill-rule="nonzero"/></g><g transform="translate(17.007874016 247.215874016)"><g transform="matrix(1 0 0 -1 0 8.514)"><use xlink:href="#g68334FE969FA066B27A4624FA85F6E3E" x="0" y="0" fill="#000000" fill-rule="nonzero"/><use xlink:href="#g3E84C1780D0B7E1B308447F87BC9DDFD" x="6.35765625" y="0" fill="#000000" fill-rule="nonzero"/><use xlink:href="#g74A2B48A7BFD15DBE93B245B64406013" x="12.7153125" y="0" fill="#000000" fill-rule="nonzero"/><use xlink:href="#g9D4AC3D62A1F6DDAD89B9FB50F95BA35" x="19.07296875" y="0" fill="#000000" fill-rule="nonzero"/><use xlink:href="#g377E444AE5D448E49BF97B8ADA54CF5A" x="25.430625" y="0" fill="#000000" fill-rule="nonzero"/><use xlink:href="#g692196DC9E7A70368C5F390944EBA7EE" x="31.78828125" y="0" fill="#000000" fill-rule="nonzero"/><use xlink:href="#g74A2B48A7BFD15DBE93B245B64406013" x="38.1459375" y="0" fill="#000000" fill-rule="nonzero"/><use xlink:href="#gF628BE4649DCDBAE81259A82F22CF6CD" x="44.50359375" y="0" fill="#000000" fill-rule="nonzero"/><use xlink:href="#gED6DB94908824FF2D47F78E156E0422D" x="50.86125" y="0" fill="#000000" fill-rule="nonzero"/><use xlink:href="#g4D63F335A471DF3577B686D9EDCBDF1D" x="57.21890625" y="0" fill="#000000" fill-rule="nonzero"/><use xlink:href="#g4D63F335A471DF3577B686D9EDCBDF1D" x="63.5765625" y="0" fill="#000000" fill-rule="nonzero"/><use xlink:href="#g3CD525072C3EED923B1D4A462AE596D5" x="69.93421875" y="0" fill="#000000" fill-rule="nonzero"/><use xlink:href="#gDF94D8EAB938869CFB56C8C08C1C80D7" x="76.291875" y="0" fill="#000000" fill-rule="nonzero"/></g><g transform="matrix(1 0 0 -1 82.64953125 8.514)"><use xlink:href="#g1E5E86B19CE1DDAFC537B5520313E6CB" x="3.3" y="0" fill="#000000" fill-rule="nonzero"/><use xlink:href="#g8EA8C068C9191756C238CFDE05E8292D" x="16.3944" y="0" fill="#000000" fill-rule="nonzero"/><use xlink:href="#g6F4F505D1A9622063A992E03DE7AB033" x="23.5488" y="0" fill="#000000" fill-rule="nonzero"/><use xlink:href="#g6151B457BEE4F4F54666E14A6443B417" x="30.228" y="0" fill="#000000" fill-rule="nonzero"/><use xlink:href="#g323E815CA41959B09CFE3C1ABB2B5444" x="36.2472" y="0" fill="#000000" fill-rule="nonzero"/><use xlink:href="#g7E36569BD456FFBB71649A22C7DD8BCF" x="47.6388" y="0" fill="#000000" fill-rule="nonzero"/><use xlink:href="#g16FFC50EEB46FED95CB8D2D70DE025B2" x="52.3644" y="0" fill="#000000" fill-rule="nonzero"/><use xlink:href="#gC1E20F65E9676D8A6E88C770A2E0C378" x="62.9376" y="0" fill="#000000" fill-rule="nonzero"/><use xlink:href="#gF7CA4A5FFFD5DD80BC4D0E05FA659D75" x="70.8972" y="0" fill="#000000" fill-rule="nonzero"/><use xlink:href="#g48A46752393624141BE6B54DA9819182" x="78.2628" y="0" fill="#000000" fill-rule="nonzero"/><use xlink:href="#gDC2D39740434C691032F59BEC232B74F" x="85.932" y="0" fill="#000000" fill-rule="nonzero"/><use xlink:href="#g7E36569BD456FFBB71649A22C7DD8BCF" x="91.5684" y="0" fill="#000000" fill-rule="nonzero"/><use xlink:href="#gF51E0EC40BDFC35A80D5D46DB553D6FC" x="96.294" y="0" fill="#000000" fill-rule="nonzero"/><use xlink:href="#gDC2D39740434C691032F59BEC232B74F" x="99.6336" y="0" fill="#000000" fill-rule="nonzero"/><use xlink:href="#g93BCD9A004ECA1FDE0182538D75E2CF8" x="108.57" y="0" fill="#000000" fill-rule="nonzero"/><use xlink:href="#g3C74A4D05653FE58EC9F9D18E132A9C" x="115.9752" y="0" fill="#000000" fill-rule="nonzero"/><use xlink:href="#g4B2EA561B9BA468D1F7682AEFBF394A8" x="122.43" y="0" fill="#000000" fill-rule="nonzero"/><use xlink:href="#g6F4F505D1A9622063A992E03DE7AB033" x="127.5912" y="0" fill="#000000" fill-rule="nonzero"/><use xlink:href="#g71CE1B9F6FD9E035F8C0F2AFF5C46164" x="134.2704" y="0" fill="#000000" fill-rule="nonzero"/><use xlink:href="#g3EE5FCB8C53F0B32CE565FC030BC4E05" x="142.164" y="0" fill="#000000" fill-rule="nonzero"/><use xlink:href="#g7E36569BD456FFBB71649A22C7DD8BCF" x="146.454" y="0" fill="#000000" fill-rule="nonzero"/><use xlink:href="#g8EA8C068C9191756C238CFDE05E8292D" x="154.4796" y="0" fill="#000000" fill-rule="nonzero"/><use xlink:href="#g3C74A4D05653FE58EC9F9D18E132A9C" x="161.766" y="0" fill="#000000" fill-rule="nonzero"/><use xlink:href="#gF84E97C9781EC8D8E3FAE71DBFAB2EDA" x="168.2208" y="0" fill="#000000" fill-rule="nonzero"/><use xlink:href="#g6F4F505D1A9622063A992E03DE7AB033" x="176.3916" y="0" fill="#000000" fill-rule="nonzero"/><use xlink:href="#gA2BEE706933ABB318B89FBA72F9CF1EB" x="183.0708" y="0" fill="#000000" fill-rule="nonzero"/><use xlink:href="#g489A14AC9D4233C26CC9E520DD834A83" x="190.0536" y="0" fill="#000000" fill-rule="nonzero"/><use xlink:href="#g16FFC50EEB46FED95CB8D2D70DE025B2" x="194.304" y="0" fill="#000000" fill-rule="nonzero"/><use xlink:href="#g71CE1B9F6FD9E035F8C0F2AFF5C46164" x="201.5772" y="0" fill="#000000" fill-rule="nonzero"/><use xlink:href="#gAB7A56E2DF20A7C8C7BC9B85DB7E88D7" x="209.4708" y="0" fill="#000000" fill-rule="nonzero"/></g></g><g transform="matrix(1 0 0 -1 17.007874016 274.253874016)"><use xlink:href="#gDD78C4AC18CD51C41481EB0565E89892" x="0" y="0" fill="#000000" fill-rule="nonzero"/></g><g transform="matrix(1 0 0 -1 28.313429571 274.253874016)"><use xlink:href="#g2389F7618E8CE27CC7151A1D8E5DEAD4" x="0" y="0" fill="#000000" fill-rule="nonzero"/></g><g transform="matrix(1 0 0 -1 41.026985127 266.806874016)"><use xlink:href="#g8894C0A608DBD285706C131FF554A2B1" x="0" y="0" fill="#000000" fill-rule="nonzero"/></g><g transform="matrix(1 0 0 -1 46.526985127 266.806874016)"><use xlink:href="#gAE482DA578200FA3765B7A490E273D69" x="0" y="0" fill="#000000" fill-rule="nonzero"/></g><g transform="matrix(1 0 0 -1 41.026985127 281.799874016)"><use xlink:href="#gAE482DA578200FA3765B7A490E273D69" x="0" y="0" fill="#000000" fill-rule="nonzero"/></g><g transform="matrix(1 0 0 -1 46.526985127 281.799874016)"><use xlink:href="#g8894C0A608DBD285706C131FF554A2B1" x="0" y="0" fill="#000000" fill-rule="nonzero"/></g><path fill="none" stroke="#000000" stroke-width="0.528" stroke-linecap="butt" stroke-linejoin="miter" stroke-miterlimit="4" transform="translate(41.026985127 271.503874016)" d="M 0 0h 11"/><g transform="matrix(1 0 0 -1 55.571429571 274.253874016)"><use xlink:href="#g6CA3708905D5D56BD06755CEABD69DE1" x="0" y="0" fill="#000000" fill-rule="nonzero"/></g><g transform="matrix(1 0 0 -1 67.673874016 266.806874016)"><use xlink:href="#g847DCE2A3EE7D23E3D551BDE0EE8A683" x="0" y="0" fill="#000000" fill-rule="nonzero"/></g><g transform="matrix(1 0 0 -1 73.173874016 266.806874016)"><use xlink:href="#g5DF7FDD026DB928A9BECE5CB45FEF99F" x="0" y="0" fill="#000000" fill-rule="nonzero"/></g><g transform="matrix(1 0 0 -1 67.673874016 281.799874016)"><use xlink:href="#gAE482DA578200FA3765B7A490E273D69" x="0" y="0" fill="#000000" fill-rule="nonzero"/></g><g transform="matrix(1 0 0 -1 73.173874016 281.799874016)"><use xlink:href="#g8894C0A608DBD285706C131FF554A2B1" x="0" y="0" fill="#000000" fill-rule="nonzero"/></g><path fill="none" stroke="#000000" stroke-width="0.528" stroke-linecap="butt" stroke-linejoin="miter" stroke-miterlimit="4" transform="translate(67.673874016 271.503874016)" d="M 0 0h 11"/><g transform="matrix(1 0 0 -1 17.007874016 294.295874016)"><use xlink:href="#gDD78C4AC18CD51C41481EB0565E89892" x="0" y="0" fill="#000000" fill-rule="nonzero"/></g><g transform="matrix(1 0 0 -1 28.313429571 294.295874016)"><use xlink:href="#g2389F7618E8CE27CC7151A1D8E5DEAD4" x="0" y="0" fill="#000000" fill-rule="nonzero"/></g><g transform="matrix(1 0 0 -1 41.026985127 286.848874016)"><use xlink:href="#g93E2B88EAD8DFDF0BE4D6467DB923DB5" x="0" y="0" fill="#000000" fill-rule="nonzero"/></g><g transform="matrix(1 0 0 -1 46.526985127 286.848874016)"><use xlink:href="#gAE482DA578200FA3765B7A490E273D69" x="0" y="0" fill="#000000" fill-rule="nonzero"/></g><g transform="matrix(1 0 0 -1 41.026985127 301.841874016)"><use xlink:href="#gAE482DA578200FA3765B7A490E273D69" x="0" y="0" fill="#000000" fill-rule="nonzero"/></g><g transform="matrix(1 0 0 -1 46.526985127 301.841874016)"><use xlink:href="#g8894C0A608DBD285706C131FF554A2B1" x="0" y="0" fill="#000000" fill-rule="nonzero"/></g><path fill="none" stroke="#000000" stroke-width="0.528" stroke-linecap="butt" stroke-linejoin="miter" stroke-miterlimit="4" transform="translate(41.026985127 291.545874016)" d="M 0 0h 11"/><defs><symbol id="gED6DB94908824FF2D47F78E156E0422D" overflow="visible"><path d="M 0 0m 3.17625 4.68703125q -0.54140625 0 -0.85078125 -0.476953125q -0.309375 -0.476953125 -0.309375 -1.327734375q 0 -0.85078125 0.309375 -1.327734375q 0.309375 -0.476953125 0.85078125 -0.476953125q 0.5465625 0 0.8559375 0.476953125q 0.309375 0.476953125 0.309375 1.327734375q 0 0.85078125 -0.309375 1.327734375q -0.309375 0.476953125 -0.8559375 0.476953125Z m -2.6709375 -1.8046875q 0 1.39734375 0.724453125 2.214609375q 0.724453125 0.817265625 1.946484375 0.817265625q 1.2271875 0 1.951640625 -0.817265625q 0.724453125 -0.817265625 0.724453125 -2.214609375q 0 -1.39734375 -0.724453125 -2.214609375q -0.724453125 -0.817265625 -1.951640625 -0.817265625q -1.22203125 0 -1.946484375 0.817265625q -0.724453125 0.817265625 -0.724453125 2.214609375Z "/></symbol><symbol id="g6C1791E4DA901DE04C0C85DE4AB428E4" overflow="visible"><path d="M 0 0m 5.52234375 3.74859375v -3.74859375h -1.50046875v 3.5165625q 0 0.6290625 -0.177890625 0.899765625q -0.177890625 0.270703125 -0.580078125 0.270703125q -0.40734375 0 -0.641953125 -0.36609375q -0.234609375 -0.36609375 -0.234609375 -1.01578125v -3.30515625h -1.50046875v 5.775h 1.50046875v -0.86625q 0.15984375 0.47953125 0.5465625 0.7425q 0.38671875 0.26296875 0.93328125 0.26296875q 0.81984375 0 1.2375 -0.543984375q 0.41765625 -0.543984375 0.41765625 -1.621640625Z "/></symbol><symbol id="gB0FAA638F14A07410BA26B95DC055701" overflow="visible"><path d="M 0 0m 1.99546875 2.40796875v 4.455h -1.53140625v 1.16015625h 3.0421875v -5.61515625q 0 -0.680625 0.21140625 -0.96421875q 0.21140625 -0.28359375 0.71671875 -0.28359375h 1.2065625v -1.16015625h -1.629375q -1.07765625 0 -1.546875 0.556875q -0.46921875 0.556875 -0.46921875 1.85109375Z "/></symbol><symbol id="gCBF1B34B3815648480DAF39C88C8AB08" overflow="visible"><path d="M 0 0m 3.66609375 -0.62390625q -0.30421875 -0.8146875 -0.729609375 -1.188515625q -0.425390625 -0.373828125 -1.033828125 -0.373828125h -1.2478125v 1.14984375h 0.61359375q 0.4640625 0 0.680625 0.157265625q 0.2165625 0.157265625 0.43828125 0.729609375l 0.1134375 0.309375l -2.1965625 5.61515625h 1.588125l 1.32 -3.74859375l 1.26328125 3.74859375h 1.588125l -2.39765625 -6.39890625Z "/></symbol><symbol id="g185FDCE3EB2EB31805F193B5584EDB96" overflow="visible"><path d="M 0 0m 2.31515625 5.48109375h 1.71703125v -1.88203125h -1.71703125v 1.88203125Z m 0 -3.58875h 1.71703125v -1.89234375h -1.71703125v 1.89234375Z "/></symbol><symbol id="g675B7A779B4DCBD316F1810B5F4CFB2D" overflow="visible"><path d="M 0 0m 3.5578125 5.1975q 0.17015625 0.36609375 0.433125 0.54140625q 0.26296875 0.1753125 0.64453125 0.1753125q 0.74765625 0 1.033828125 -0.515625q 0.286171875 -0.515625 0.286171875 -2.145v -3.25359375h -1.2375v 3.70734375q 0 0.64453125 -0.09796875 0.86109375q -0.09796875 0.2165625 -0.35578125 0.2165625q -0.2578125 0 -0.3609375 -0.22171875q -0.103125 -0.22171875 -0.103125 -0.8559375v -3.70734375h -1.22203125v 3.70734375q 0 0.63421875 -0.103125 0.8559375q -0.103125 0.22171875 -0.3609375 0.22171875q -0.2578125 0 -0.35578125 -0.2165625q -0.09796875 -0.2165625 -0.09796875 -0.86109375v -3.70734375h -1.2375v 5.775h 1.09828125v -0.598125q 0.12890625 0.3403125 0.4125 0.538828125q 0.28359375 0.198515625 0.63421875 0.198515625q 0.350625 0 0.639375 -0.208828125q 0.28875 -0.208828125 0.350625 -0.507890625Z "/></symbol><symbol id="g9D4AC3D62A1F6DDAD89B9FB50F95BA35" overflow="visible"><path d="M 0 0m 3.609375 2.7121875q -0.845625 0 -1.18078125 -0.2165625q -0.33515625 -0.2165625 -0.33515625 -0.7425q 0 -0.391875 0.23203125 -0.62390625q 0.23203125 -0.23203125 0.6290625 -0.23203125q 0.598125 0 0.928125 0.451171875q 0.33 0.451171875 0.33 1.260703125v 0.103125h -0.60328125Z m 2.10375 0.58265625v -3.29484375h -1.50046875v 0.64453125q -0.27328125 -0.3815625 -0.70125 -0.5878125q -0.42796875 -0.20625 -0.94359375 -0.20625q -0.98484375 0 -1.533984375 0.52078125q -0.549140625 0.52078125 -0.549140625 1.4540625q 0 1.010625 0.65484375 1.492734375q 0.65484375 0.482109375 2.02640625 0.482109375h 1.04671875v 0.25265625q 0 0.36609375 -0.265546875 0.554296875q -0.265546875 0.188203125 -0.781171875 0.188203125q -0.54140625 0 -1.049296875 -0.136640625q -0.507890625 -0.136640625 -1.059609375 -0.435703125v 1.2890625q 0.50015625 0.20625 1.01578125 0.30421875q 0.515625 0.09796875 1.093125 0.09796875q 1.40765625 0 1.977421875 -0.57234375q 0.569765625 -0.57234375 0.569765625 -2.04703125Z "/></symbol><symbol id="g377E444AE5D448E49BF97B8ADA54CF5A" overflow="visible"><path d="M 0 0m 3.5578125 7.4146875v -1.6396875h 1.97484375v -1.16015625h -1.97484375v -2.7328125q 0 -0.38671875 0.188203125 -0.554296875q 0.188203125 -0.167578125 0.626484375 -0.167578125h 1.16015625v -1.16015625h -1.2684375q -1.299375 0 -1.75828125 0.415078125q -0.45890625 0.415078125 -0.45890625 1.539140625v 2.660625h -1.4746875v 1.16015625h 1.4746875v 1.6396875h 1.51078125Z "/></symbol><symbol id="g692196DC9E7A70368C5F390944EBA7EE" overflow="visible"><path d="M 0 0m 5.52234375 3.74859375v -3.74859375h -1.50046875v 3.5165625q 0 0.62390625 -0.177890625 0.89203125q -0.177890625 0.268125 -0.580078125 0.268125q -0.4125 0 -0.64453125 -0.363515625q -0.23203125 -0.363515625 -0.23203125 -1.008046875v -3.30515625h -1.50046875v 8.023125h 1.50046875v -3.114375q 0.15984375 0.47953125 0.5465625 0.7425q 0.38671875 0.26296875 0.93328125 0.26296875q 0.81984375 0 1.2375 -0.543984375q 0.41765625 -0.543984375 0.41765625 -1.621640625Z "/></symbol><symbol id="g1C486601046DC6BD2AFA525AF8655197" overflow="visible"><path d="M 0 0m 2.31515625 1.89234375h 1.71703125v -1.89234375h -1.71703125v 1.89234375Z "/></symbol><symbol id="g4D63F335A471DF3577B686D9EDCBDF1D" overflow="visible"><path d="M 0 0m 3.81046875 6.2803125v -0.5053125h 1.77375v -1.16015625h -1.77375v -4.61484375h -1.51078125v 4.61484375h -1.4025v 1.16015625h 1.4025v 0.4021875q 0 1.0415625 0.433125 1.44375q 0.433125 0.4021875 1.60875 0.4021875h 1.24265625v -1.16015625h -1.18078125q -0.3403125 0 -0.461484375 -0.12375q -0.121171875 -0.12375 -0.131484375 -0.45890625Z "/></symbol><symbol id="g3E84C1780D0B7E1B308447F87BC9DDFD" overflow="visible"><path d="M 0 0m 5.93484375 4.18171875q -0.2475 0.226875 -0.580078125 0.3403125q -0.332578125 0.1134375 -0.729609375 0.1134375q -0.47953125 0 -0.837890625 -0.167578125q -0.358359375 -0.167578125 -0.554296875 -0.487265625q -0.12375 -0.1959375 -0.172734375 -0.474375q -0.048984375 -0.2784375 -0.048984375 -0.845625v -2.660625h -1.51078125v 5.775h 1.51078125v -0.8971875q 0.22171875 0.495 0.680625 0.765703125q 0.45890625 0.270703125 1.0725 0.270703125q 0.309375 0 0.605859375 -0.074765625q 0.296484375 -0.074765625 0.564609375 -0.219140625v -1.43859375Z "/></symbol><symbol id="g3F5A44D8288CD0338599951E933AD1FA" overflow="visible"><path d="M 0 0m 5.47078125 0.29390625q -0.3815625 -0.22171875 -0.81984375 -0.332578125q -0.43828125 -0.110859375 -0.94359375 -0.110859375q -1.33546875 0 -2.08828125 0.804375q -0.7528125 0.804375 -0.7528125 2.2275q 0 1.42828125 0.75796875 2.235234375q 0.75796875 0.806953125 2.0934375 0.806953125q 0.4640625 0 0.894609375 -0.10828125q 0.430546875 -0.10828125 0.858515625 -0.33515625v -1.381875q -0.33 0.28359375 -0.724453125 0.435703125q -0.394453125 0.152109375 -0.817265625 0.152109375q -0.73734375 0 -1.134375 -0.46921875q -0.39703125 -0.46921875 -0.39703125 -1.33546875q 0 -0.86625 0.39703125 -1.3303125q 0.39703125 -0.4640625 1.134375 -0.4640625q 0.43828125 0 0.81984375 0.146953125q 0.3815625 0.146953125 0.721875 0.446015625v -1.38703125Z "/></symbol><symbol id="g1E5E86B19CE1DDAFC537B5520313E6CB" overflow="visible"><path d="M 0 0m 0.3828 3.8544v -0.7788h 9.0288v 0.7788Z "/></symbol><symbol id="g4B2EA561B9BA468D1F7682AEFBF394A8" overflow="visible"><path d="M 0 0m 3.036 1.6896v 3.3792h 1.1352c 0.2376 0 0.462 0.066 0.462 0.2244v 0.3036c 0 0.0792 -0.0132 0.132 -0.264 0.132h -1.3332v 0.6732c 0 1.9668 0.5412 2.2572 0.8316 2.2572c 0.2244 0 0.2772 -0.198 0.3696 -0.5148c 0.1188 -0.4224 0.462 -0.7524 0.9372 -0.7524c 0.4356 0 0.7524 0.2772 0.7524 0.8448c 0 0.3564 -0.4092 0.9768 -1.8084 0.9768c -0.6204 0 -1.3596 -0.2244 -1.8612 -0.7656c -0.4884 -0.528 -0.9372 -1.188 -0.9372 -2.4552v -0.264h -0.0264c -0.4488 0 -0.99 -0.066 -0.99 -0.1716v -0.3564c 0 -0.0924 0.0528 -0.132 0.3564 -0.132h 0.66v -3.4056c 0 -1.0824 -0.2112 -1.2012 -1.0164 -1.2408c -0.0792 -0.0792 -0.0792 -0.3696 0 -0.4488c 0.5544 0.0132 1.1484 0.0264 1.8744 0.0264c 0.726 0 1.3068 -0.0132 1.8744 -0.0264c 0.0792 0.0792 0.0792 0.3696 0 0.4488c -0.8052 0.0396 -1.0164 0.1584 -1.0164 1.2672Z "/></symbol><symbol id="gAB7A56E2DF20A7C8C7BC9B85DB7E88D7" overflow="visible"><path d="M 0 0m 3.0096 3.5376c 0 0.4752 0.1452 0.6732 0.3168 0.8712c 0.1056 0.132 0.2244 0.2244 0.4224 0.2244c 0.1188 0 0.264 -0.1188 0.3696 -0.2508c 0.0924 -0.1056 0.3168 -0.2112 0.6204 -0.2112c 0.3828 0 0.7524 0.396 0.7524 0.9504c 0 0.3432 -0.396 0.7392 -0.8712 0.7392c -0.462 0 -0.9636 -0.396 -1.5708 -1.2672h -0.0528c -0.0264 0.396 -0.0924 1.0428 -0.0924 1.0428c -0.0132 0.1188 -0.1188 0.2244 -0.3036 0.2244c -0.6204 -0.1584 -1.32 -0.3432 -2.1912 -0.4356c -0.0264 -0.0792 0 -0.33 0.0264 -0.4092c 0.726 -0.066 0.858 -0.1848 0.858 -0.9372v -2.4684c 0 -1.0956 -0.1452 -1.122 -0.9504 -1.188c -0.0792 -0.0792 -0.0792 -0.3696 0 -0.4488c 0.5544 0.0132 1.1088 0.0264 1.8084 0.0264c 0.6996 0 1.2408 -0.0132 1.8084 -0.0264c 0.0792 0.0792 0.0792 0.3696 0 0.4488c -0.8052 0.0528 -0.9504 0.0924 -0.9504 1.188Z "/></symbol><symbol id="g6F4F505D1A9622063A992E03DE7AB033" overflow="visible"><path d="M 0 0m 3.894 0.6468c 0.0924 -0.5412 0.4488 -0.7788 1.0296 -0.7788c 0.726 0 1.2408 0.2772 1.7292 0.7392c -0.0264 0.1584 -0.0792 0.264 -0.2376 0.3696c -0.1716 -0.132 -0.3036 -0.1848 -0.5544 -0.1848c -0.2904 0 -0.3696 0.2376 -0.3696 0.8844l 0.0264 1.9008c 0 1.9008 -1.1748 2.2836 -2.2572 2.2836c -0.9636 0 -2.442 -0.5544 -2.442 -1.4256c 0 -0.3696 0.1584 -0.66 0.6732 -0.66c 0.4752 0 0.8184 0.2904 0.8184 0.6072c 0 0.066 -0.0132 0.1452 -0.0264 0.2244c -0.0264 0.132 -0.0528 0.264 -0.0264 0.396c 0.0132 0.1452 0.1188 0.3036 0.5544 0.3036c 0.5544 0 1.0164 -0.2376 1.0164 -1.914l -0.8844 -0.2772c -1.386 -0.4356 -2.3628 -0.8184 -2.3628 -1.8612c 0 -0.9108 0.5016 -1.386 1.65 -1.386c 0.3828 0 1.1484 0.4224 1.584 0.7656Z m -0.066 2.2308v -1.7424c -0.33 -0.264 -0.66 -0.4752 -0.8976 -0.4752c -0.5676 0 -0.7656 0.3828 -0.7656 0.792c 0 0.4884 0.0396 0.8976 0.9768 1.2012Z "/></symbol><symbol id="g6151B457BEE4F4F54666E14A6443B417" overflow="visible"><path d="M 0 0m 5.5704 1.1484c 0 0.1584 -0.0264 0.4092 -0.1716 0.4092c -0.528 -0.4884 -0.9768 -0.7392 -1.3596 -0.7392c -0.99 0 -1.7688 0.7128 -1.7688 2.2968c 0 1.4652 0.33 2.1912 1.0296 2.1912c 0.4884 0 0.6864 -0.5148 0.726 -0.9372c 0.0396 -0.3564 0.396 -0.6204 0.8184 -0.6204c 0.4224 0 0.726 0.33 0.726 0.7392c 0 0.594 -0.7128 1.3728 -2.1516 1.3728c -1.5576 0 -2.9304 -1.254 -2.9304 -3.2076c 0 -0.858 0.3036 -1.6104 0.8184 -2.0988c 0.5148 -0.4884 1.122 -0.6864 2.0592 -0.6864c 0.792 0 1.7028 0.5544 2.2044 1.2804Z "/></symbol><symbol id="g7E36569BD456FFBB71649A22C7DD8BCF" overflow="visible"><path d="M 0 0m 0.8316 5.7288c -0.1848 0 -0.3828 -0.0528 -0.5544 -0.198v -0.3828c 0 -0.066 0.0132 -0.0792 0.066 -0.0792h 0.858c -0.0264 -1.3332 -0.0396 -3.0228 -0.0396 -3.6828c 0 -0.462 0.1188 -0.9108 0.396 -1.1484c 0.3036 -0.2508 0.7788 -0.3696 1.0956 -0.3696c 0.726 0 1.5312 0.3696 1.7952 0.7392c 0 0.1584 -0.0792 0.2376 -0.2376 0.3696c -0.1716 -0.132 -0.5016 -0.1848 -0.7524 -0.1848c -0.2904 0 -0.5808 0.2244 -0.5808 0.8844c 0 0.66 -0.0132 2.0724 -0.0132 3.3924h 1.3332c 0.132 0 0.3168 0.0528 0.3168 0.1716v 0.4092c 0 0.0528 -0.0396 0.0792 -0.1056 0.0792h -1.5444l 0.0132 0.4488c 0.0264 0.8844 0.066 1.4916 0.066 1.4916c 0 0.0792 -0.0396 0.1188 -0.1056 0.1188c -0.0924 0 -0.5808 -0.1452 -0.792 -0.2376c -0.2244 -0.0924 -0.6072 -0.1716 -0.6996 -0.2904c -0.0924 -0.1188 -0.1452 -0.4752 -0.1452 -1.5312Z "/></symbol><symbol id="g489A14AC9D4233C26CC9E520DD834A83" overflow="visible"><path d="M 0 0m 3.0624 1.6104v 2.6268c 0 0.66 0.0528 1.3992 0.0528 1.3992c 0 0.1452 -0.1188 0.2244 -0.3036 0.2244c -0.3696 -0.1452 -1.4388 -0.2508 -2.3496 -0.3696c -0.0264 -0.0792 0 -0.3432 0.0264 -0.4224c 0.726 -0.066 0.858 -0.1716 0.858 -0.924v -2.5344c 0 -1.0956 -0.1452 -1.122 -0.9504 -1.188c -0.0792 -0.0792 -0.0792 -0.3696 0 -0.4488c 0.5544 0.0132 1.1088 0.0264 1.8084 0.0264c 0.6996 0 1.2408 -0.0132 1.8084 -0.0264c 0.0792 0.0792 0.0792 0.3696 0 0.4488c -0.8052 0.0528 -0.9504 0.0924 -0.9504 1.188Z m -1.782 6.2568c 0 -0.4356 0.3168 -0.8712 0.8448 -0.8712c 0.594 0 0.9372 0.4752 0.9372 0.8184c 0 0.396 -0.3036 0.8712 -0.858 0.8712c -0.6204 0 -0.924 -0.4224 -0.924 -0.8184Z "/></symbol><symbol id="g16FFC50EEB46FED95CB8D2D70DE025B2" overflow="visible"><path d="M 0 0m 0.4884 2.7324c 0 -1.7292 1.3728 -2.8644 3.1416 -2.8644c 0.9372 0 1.716 0.264 2.2572 0.7524c 0.6732 0.594 0.8976 1.4916 0.8976 2.2308c 0 1.7292 -1.1748 3.0096 -3.1416 3.0096c -1.0956 0 -1.914 -0.3828 -2.4288 -0.9768c -0.5016 -0.5808 -0.726 -1.3728 -0.726 -2.1516Z m 2.9436 2.574c 0.8976 0 1.5048 -1.0692 1.5048 -2.8776c 0 -1.584 -0.6204 -2.0064 -1.0956 -2.0064c -1.0824 0 -1.5048 1.6236 -1.5048 2.6004c 0 1.2144 0.2112 2.2836 1.0956 2.2836Z "/></symbol><symbol id="gC5024760CEB9DA3D8ADD16735C3DAB83" overflow="visible"><path d="M 0 0m 3.0096 1.6104v 2.6532c 0.528 0.3564 1.056 0.6204 1.2936 0.6204c 0.528 0 0.924 -0.2376 0.924 -0.99v -2.2044c 0 -1.1088 -0.2112 -1.2276 -0.7524 -1.2672c -0.0792 -0.0792 -0.0792 -0.3696 0 -0.4488c 0.5544 0.0132 0.9768 0.0264 1.6104 0.0264c 0.726 0 1.3068 -0.0132 1.8744 -0.0264c 0.0792 0.0792 0.0792 0.3696 0 0.4488c -0.8052 0.0396 -1.0164 0.1584 -1.0164 1.2672v 2.0592c 0 1.452 -0.6204 2.112 -1.7556 2.112c -0.528 0 -1.4652 -0.5808 -2.1912 -1.0824c -0.0396 0.462 -0.0924 0.858 -0.0924 0.858c -0.0132 0.1584 -0.1188 0.2244 -0.3036 0.2244c -0.4884 -0.132 -1.2804 -0.3168 -2.1912 -0.4356c -0.0264 -0.0792 0 -0.3432 0.0264 -0.4224c 0.726 -0.066 0.858 -0.1716 0.858 -0.924v -2.4684c 0 -1.0956 -0.1452 -1.122 -0.9504 -1.188c -0.0792 -0.0792 -0.0792 -0.3696 0 -0.4488c 0.5544 0.0132 1.1088 0.0264 1.8084 0.0264c 0.6072 0 0.9768 -0.0132 1.5444 -0.0264c 0.0792 0.0792 0.0792 0.3696 0 0.4488c -0.5544 0.0528 -0.6864 0.0924 -0.6864 1.188Z "/></symbol><symbol id="gDC2D39740434C691032F59BEC232B74F" overflow="visible"><path d="M 0 0m 0.6336 1.9272c 0.0528 -0.6468 0.1188 -1.2672 0.2244 -1.7688c 0.2508 -0.0792 1.0956 -0.2904 1.8348 -0.2904c 1.0164 0 2.2836 0.5544 2.2836 1.7028c 0 0.4488 -0.1056 0.8052 -0.4092 1.1352c -0.3696 0.4224 -0.924 0.7524 -1.5312 1.0164c -0.528 0.2244 -0.7128 0.6468 -0.7128 1.0296c 0 0.3036 0.2508 0.5544 0.6336 0.5544c 0.462 0 0.9108 -0.4224 1.2408 -1.2276c 0.2376 -0.0396 0.3828 -0.0264 0.5148 0.066c 0 0.4752 -0.0528 0.9768 -0.1716 1.3992c -0.4224 0.1848 -0.7524 0.3168 -1.4784 0.3168c -0.6996 0 -1.3596 -0.264 -1.782 -0.6864c -0.3036 -0.3036 -0.4488 -0.6732 -0.4488 -1.0296c 0 -0.396 0.1584 -0.7128 0.4092 -0.99c 0.4092 -0.4488 1.1352 -0.9108 1.5312 -1.0956c 0.528 -0.2376 0.6732 -0.7128 0.6732 -1.0296c 0 -0.4224 -0.4224 -0.6468 -0.7788 -0.6468c -0.594 0 -1.2276 0.6072 -1.5048 1.5708c -0.2112 0.0396 -0.3168 0.0264 -0.528 -0.0264Z "/></symbol><symbol id="gAE8FDAB087B5120780943FB927104302" overflow="visible"><path d="M 0 0m 6.1644 5.2008c 0.3696 0 0.5808 0.1584 0.5808 0.6468c 0 0.2508 -0.3432 0.6336 -0.8448 0.6336c -0.5808 0 -1.3464 -0.4356 -1.7292 -0.7788c -0.2376 0.132 -0.5148 0.1584 -1.1088 0.1584c -0.5676 0 -1.122 -0.132 -1.5576 -0.4224c -0.5412 -0.3432 -0.8976 -0.858 -0.8976 -1.5312c 0 -0.6468 0.3828 -1.3464 1.0164 -1.6896c -0.4092 -0.3564 -1.0428 -1.056 -1.0428 -1.32c 0 -0.2508 0.0396 -0.4092 0.1716 -0.6072c 0.1188 -0.1848 0.2772 -0.2904 0.5412 -0.3696c -0.5676 -0.3432 -1.1484 -1.0956 -1.1484 -1.32c 0 -0.4884 0.1584 -1.056 0.5148 -1.3068c 0.5148 -0.3564 1.386 -0.4356 2.0196 -0.4356c 1.8348 0 3.9336 0.9636 3.9336 2.4156c 0 0.2772 -0.132 0.8448 -0.66 1.2012c -0.5148 0.3432 -2.4948 0.4356 -3.4716 0.4356c -0.2376 0 -0.594 0.0264 -0.594 0.5544c 0 0.2112 0.132 0.396 0.198 0.5544c 0.2772 -0.132 0.5544 -0.1452 0.9636 -0.1452c 0.6732 0 1.2936 0.1716 1.7424 0.5676c 0.3828 0.3432 0.6468 0.8052 0.6468 1.3992c 0 0.7392 -0.3696 1.2276 -0.8184 1.5972c 0.1056 0.132 0.5412 0.3696 0.6732 0.3696c 0.1188 0 0.2112 -0.0792 0.2508 -0.1584c 0.0528 -0.1716 0.2904 -0.4488 0.6204 -0.4488Z m -3.8544 -5.5308c 1.0164 0 2.97 -0.0396 2.97 -0.7392c 0 -0.4752 -0.2112 -1.0164 -0.6468 -1.254c -0.4092 -0.2376 -1.0824 -0.264 -1.584 -0.264c -0.8712 0 -1.4652 0.6468 -1.4652 1.32c 0 0.4488 0 0.7524 0.1452 1.0164c 0.132 -0.0528 0.3036 -0.0792 0.5808 -0.0792Z m 1.518 4.1316c 0 -1.2672 -0.3696 -1.4256 -0.7128 -1.4256c -0.8184 0 -0.924 0.9768 -0.924 1.65c 0 0.9768 0.2376 1.3332 0.7524 1.3332c 0.6204 0 0.8844 -0.5148 0.8844 -1.5576Z "/></symbol><symbol id="g3C74A4D05653FE58EC9F9D18E132A9C" overflow="visible"><path d="M 0 0m 5.6892 1.7028c -0.5412 -0.5544 -1.254 -0.6996 -1.7556 -0.6996c -1.0296 0 -1.6632 0.594 -1.6632 1.8876c 0 0.0924 0.0132 0.1452 0.0132 0.2112h 3.168c 0.3168 0 0.3828 0.2244 0.3828 0.4092c 0 1.122 -0.4356 2.3496 -2.376 2.3496c -1.386 0 -2.97 -1.2276 -2.97 -3.2472c 0 -0.7656 0.2772 -1.5708 0.8448 -2.0856c 0.5016 -0.4488 1.1484 -0.66 2.0856 -0.66c 0.9108 0 1.8084 0.462 2.4684 1.4256c 0 0.1716 -0.066 0.4092 -0.198 0.4092Z m -3.3528 1.9272c 0.0132 0.462 0.0792 0.9636 0.264 1.2276c 0.2112 0.3168 0.5676 0.4488 0.7128 0.4488c 0.3564 0 0.8448 -0.3432 0.8448 -1.3992c 0 -0.0792 0 -0.2508 -0.0264 -0.2772Z "/></symbol><symbol id="g14C7D4F03964F2792AD15D5E624684AF" overflow="visible"><path d="M 0 0m 3.0096 1.6104v 2.6268c 0 0.066 0 0.132 0 0.198c 0.5148 0.3168 0.9768 0.4488 1.2012 0.4488c 0.528 0 0.924 -0.2376 0.924 -0.99v -2.2044c 0 -1.1088 -0.2112 -1.2276 -0.7524 -1.2672c -0.0792 -0.0792 -0.0792 -0.3696 0 -0.4488c 0.5544 0.0132 0.9768 0.0264 1.6104 0.0264c 0.6336 0 1.0428 -0.0132 1.6104 -0.0264c 0.0792 0.0792 0.0792 0.3696 0 0.4488c -0.528 0.0396 -0.7524 0.1584 -0.7524 1.2672v 2.0592c 0 0.33 -0.0132 0.594 -0.0528 0.726c 0.5016 0.2508 1.0692 0.4092 1.2804 0.4092c 0.528 0 0.8976 -0.2376 0.8976 -0.99v -2.2044c 0 -1.1088 -0.2112 -1.2276 -0.7524 -1.2672c -0.0792 -0.0792 -0.0792 -0.3696 0 -0.4488c 0.5544 0.0132 0.9768 0.0264 1.6104 0.0264c 0.726 0 1.3068 -0.0132 1.8744 -0.0264c 0.0792 0.0792 0.0792 0.3696 0 0.4488c -0.8052 0.0396 -1.0164 0.1584 -1.0164 1.2672v 2.0592c 0 1.452 -0.528 2.112 -1.6632 2.112c -0.4884 0 -1.5972 -0.528 -2.3628 -0.9504c -0.198 0.5676 -0.726 0.9504 -1.5048 0.9504c -0.4752 0 -1.4256 -0.5016 -2.178 -0.924c -0.0396 0.396 -0.0792 0.6996 -0.0792 0.6996c -0.0132 0.1584 -0.1188 0.2244 -0.3036 0.2244c -0.4884 -0.132 -1.2804 -0.3168 -2.1912 -0.4356c -0.0264 -0.0792 0 -0.3432 0.0264 -0.4224c 0.726 -0.066 0.858 -0.1716 0.858 -0.924v -2.4684c 0 -1.0956 -0.1452 -1.122 -0.9504 -1.188c -0.0792 -0.0792 -0.0792 -0.3696 0 -0.4488c 0.5544 0.0132 1.1088 0.0264 1.8084 0.0264c 0.6072 0 0.9768 -0.0132 1.5444 -0.0264c 0.0792 0.0792 0.0792 0.3696 0 0.4488c -0.5544 0.0528 -0.6864 0.0924 -0.6864 1.188Z "/></symbol><symbol id="g30AD553A7B6BD630DAFB2CA02D9B15E2" overflow="visible"><path d="M 0 0m 1.4784 1.6764c -0.3432 0 -0.8316 -0.528 -0.8316 -0.8316c 0 -0.33 0.2772 -0.6996 0.528 -0.7656c 0.1716 -0.0396 0.4752 -0.1452 0.4752 -0.4356c 0 -0.3432 -0.6732 -1.2804 -1.2672 -1.4388c -0.066 -0.1716 -0.0528 -0.3036 0.0924 -0.4092c 0.4884 0.0792 1.0692 0.4092 1.4388 0.7788c 0.3696 0.3696 0.7128 1.0164 0.7128 1.4784c 0 1.0824 -0.4356 1.6236 -1.1484 1.6236Z "/></symbol><symbol id="g3EE5FCB8C53F0B32CE565FC030BC4E05" overflow="visible"><path d="M 0 0m 1.32 1.6764c 0 -1.0956 -0.2112 -1.2144 -1.0164 -1.254c -0.0792 -0.0792 -0.0792 -0.3696 0 -0.4488c 0.5544 0.0132 1.1484 0.0264 1.8744 0.0264c 0.726 0 1.3068 -0.0132 1.8744 -0.0264c 0.0792 0.0792 0.0792 0.3696 0 0.4488c -0.8052 0.0396 -1.0164 0.1584 -1.0164 1.254v 6.0192c 0 0.858 0.0396 1.3464 0.0396 1.3464c 0 0.1188 -0.0924 0.1716 -0.2112 0.1716c -0.4884 -0.1584 -1.5444 -0.3036 -2.4816 -0.3432c -0.0396 -0.1584 -0.0264 -0.3036 0.0396 -0.4224c 0.8316 -0.066 0.8976 -0.0792 0.8976 -0.99Z "/></symbol><symbol id="gC26104223453DAA03B0ED83ECC690CFA" overflow="visible"><path d="M 0 0m 5.478 5.0688v -3.6828c 0 -0.462 0.1188 -0.9108 0.396 -1.1484c 0.3036 -0.2508 0.7788 -0.3696 1.0956 -0.3696c 0.726 0 1.4652 0.3696 1.7292 0.7392c 0 0.1584 -0.0792 0.2376 -0.2376 0.3696c -0.1716 -0.132 -0.4356 -0.1848 -0.6864 -0.1848c -0.2904 0 -0.5808 0.2244 -0.5808 0.8844v 3.3924h 1.188c 0.2376 0 0.3564 0.066 0.3564 0.2244v 0.3036c 0 0.0792 -0.0396 0.132 -0.2904 0.132h -1.254v 1.9932c 0 0.1452 -0.7392 1.1616 -1.7028 1.3992c -0.3168 0.0792 -0.5544 0.0924 -0.8448 0.0924c -0.8184 0 -1.6632 -0.198 -2.1516 -0.6732c -0.6072 -0.594 -1.1088 -1.1484 -1.1088 -2.64v -0.1716h -0.1584c -0.4488 0 -0.9372 -0.198 -0.9372 -0.3036v -0.2244c 0 -0.0924 0.0528 -0.132 0.3564 -0.132h 0.7392v -3.4056c 0 -1.0824 -0.2112 -1.2012 -1.0164 -1.2408c -0.0792 -0.0792 -0.0792 -0.3696 0 -0.4488c 0.5544 0.0132 1.1484 0.0264 1.8744 0.0264c 0.6864 0 1.1748 -0.0132 1.7424 -0.0264c 0.0792 0.0792 0.0792 0.3696 0 0.4488c -0.6864 0.0528 -0.8844 0.1584 -0.8844 1.2672v 3.3792Z m -0.3828 0.66h -1.9932v 0.5808c 0 1.9668 1.0032 2.3496 1.2936 2.3496c 0.5808 0 1.3596 -0.7788 1.3596 -1.3992c 0 -0.7392 -0.0396 -1.5312 -0.66 -1.5312Z "/></symbol><symbol id="gDD78C4AC18CD51C41481EB0565E89892" overflow="visible"><path d="M 0 0m 1.507 0.033c 0.198 0 0.88 -0.033 1.089 -0.033c 0.165 0 0.242 0.088 0.242 0.253c 0 0.099 -0.066 0.165 -0.209 0.176c -0.319 0.011 -0.473 0.121 -0.473 0.33c 0 0.099 0.099 0.319 0.308 0.649c 0.297 0.495 0.506 0.858 0.649 1.1h 2.673c 0 -0.077 0.011 -0.231 0.044 -0.473c 0.077 -0.803 0.121 -1.243 0.121 -1.298c 0 -0.209 -0.242 -0.308 -0.737 -0.308c -0.209 0 -0.308 -0.088 -0.308 -0.264c 0 -0.11 0.066 -0.165 0.198 -0.165c 0.264 0 1.1 0.033 1.364 0.033c 0.22 0 1.001 -0.033 1.221 -0.033c 0.165 0 0.242 0.088 0.242 0.264c 0 0.11 -0.099 0.165 -0.297 0.165c -0.308 0 -0.495 0.022 -0.55 0.055c -0.055 0.033 -0.099 0.132 -0.11 0.297l -0.66 6.798c -0.033 0.209 -0.022 0.297 -0.253 0.297c -0.132 0 -0.242 -0.066 -0.319 -0.209l -3.784 -6.347c -0.33 -0.55 -0.77 -0.847 -1.309 -0.891c -0.176 -0.011 -0.264 -0.099 -0.264 -0.264c 0 -0.11 0.066 -0.165 0.187 -0.165c 0.176 0 0.759 0.033 0.935 0.033Z m 3.905 6.314l 0.33 -3.41h -2.365Z "/></symbol><symbol id="g2389F7618E8CE27CC7151A1D8E5DEAD4" overflow="visible"><path d="M 0 0m 7.678 4.037h -6.798c -0.176 0 -0.264 -0.088 -0.264 -0.253c 0 -0.165 0.088 -0.253 0.264 -0.253h 6.798c 0.176 0 0.264 0.088 0.264 0.253c 0 0.132 -0.121 0.253 -0.264 0.253Z m 0 -2.068h -6.798c -0.176 0 -0.264 -0.088 -0.264 -0.253c 0 -0.165 0.088 -0.253 0.264 -0.253h 6.798c 0.176 0 0.264 0.088 0.264 0.253c 0 0.143 -0.121 0.253 -0.264 0.253Z "/></symbol><symbol id="g8894C0A608DBD285706C131FF554A2B1" overflow="visible"><path d="M 0 0m 1.298 3.465c 0.055 0 0.121 0.044 0.176 0.121c 0.33 0.495 0.781 0.737 1.353 0.737c 0.385 0 0.682 -0.22 0.88 -0.671c 0.121 -0.297 0.187 -0.748 0.187 -1.353c 0 -0.693 -0.088 -1.177 -0.253 -1.463c -0.275 -0.451 -0.649 -0.682 -1.122 -0.682c -0.737 0 -1.32 0.528 -1.518 1.1c 0.033 -0.011 0.055 0 0.099 0c 0.33 0 0.605 0.253 0.605 0.583c 0 0.341 -0.275 0.572 -0.605 0.572c -0.385 0 -0.55 -0.209 -0.55 -0.616c 0 -1.1 0.891 -2.035 1.991 -2.035c 0.671 0 1.243 0.242 1.705 0.726c 0.462 0.484 0.693 1.067 0.693 1.738c 0 0.638 -0.187 1.188 -0.561 1.661c -0.407 0.517 -0.913 0.77 -1.529 0.77c -0.517 0 -0.968 -0.165 -1.331 -0.495v 1.958c 0.297 -0.088 0.583 -0.132 0.88 -0.132c 0.506 0 0.946 0.121 1.32 0.374c 0.341 0.209 0.572 0.418 0.704 0.616c 0.066 0.088 0.099 0.154 0.099 0.187c 0 0.11 -0.055 0.165 -0.165 0.165c -0.605 -0.231 -1.122 -0.352 -1.54 -0.352c -0.495 0 -0.968 0.099 -1.419 0.308c -0.055 0.022 -0.099 0.033 -0.143 0.033c -0.099 0 -0.154 -0.099 -0.154 -0.308v -3.212c 0 -0.231 0 -0.33 0.198 -0.33Z "/></symbol><symbol id="gAE482DA578200FA3765B7A490E273D69" overflow="visible"><path d="M 0 0m 3.883 7.447c -0.099 0 -0.187 -0.055 -0.253 -0.154l -3.322 -5.104v -0.396h 2.871v -0.902c 0 -0.198 -0.044 -0.33 -0.121 -0.385c -0.077 -0.055 -0.286 -0.077 -0.649 -0.077h -0.275v -0.429c 0.319 0.022 0.825 0.033 1.507 0.033c 0.682 0 1.188 -0.011 1.507 -0.033v 0.429h -0.275c -0.363 0 -0.572 0.022 -0.649 0.077c -0.077 0.055 -0.121 0.187 -0.121 0.385v 0.902h 1.078v 0.429h -1.078v 5.038c 0 0.11 -0.077 0.187 -0.22 0.187Z m -0.638 -1.364v -3.861h -2.508Z "/></symbol><symbol id="g6CA3708905D5D56BD06755CEABD69DE1" overflow="visible"><path d="M 0 0m 7.678 2.97h -6.798c -0.176 0 -0.264 -0.077 -0.264 -0.22c 0 -0.143 0.088 -0.22 0.264 -0.22h 6.798c 0.176 0 0.264 0.077 0.264 0.22c 0 0.132 -0.132 0.22 -0.264 0.22Z "/></symbol><symbol id="g847DCE2A3EE7D23E3D551BDE0EE8A683" overflow="visible"><path d="M 0 0m 2.607 7.326c -0.561 0 -1.034 -0.198 -1.441 -0.594c -0.407 -0.396 -0.616 -0.858 -0.616 -1.419c 0 -0.374 0.275 -0.649 0.616 -0.649c 0.33 0 0.605 0.286 0.605 0.616c 0 0.363 -0.264 0.616 -0.616 0.616c -0.033 0 -0.055 0 -0.077 -0.011c 0.209 0.539 0.693 1.012 1.386 1.012c 0.902 0 1.408 -0.781 1.408 -1.727c 0 -0.737 -0.374 -1.529 -1.122 -2.365l -2.068 -2.332c -0.143 -0.165 -0.132 -0.154 -0.132 -0.473h 4.081l 0.319 1.98h -0.363c -0.088 -0.561 -0.165 -0.88 -0.231 -0.979c -0.055 -0.055 -0.385 -0.077 -0.99 -0.077h -1.837l 1.067 1.045c 0.748 0.704 1.694 1.463 2.013 2.046c 0.22 0.385 0.33 0.77 0.33 1.155c 0 1.298 -1.012 2.156 -2.332 2.156Z "/></symbol><symbol id="g5DF7FDD026DB928A9BECE5CB45FEF99F" overflow="visible"><path d="M 0 0m 2.739 -0.242c 1.551 0 2.321 1.254 2.321 3.762c 0 1.683 -0.352 2.805 -1.045 3.355c -0.385 0.297 -0.814 0.451 -1.265 0.451c -1.551 0 -2.321 -1.265 -2.321 -3.806c 0 -2.024 0.539 -3.762 2.31 -3.762Z m 1.232 6.006c 0.077 -0.385 0.11 -1.089 0.11 -2.112c 0 -1.012 -0.044 -1.76 -0.121 -2.244c -0.143 -0.88 -0.55 -1.32 -1.221 -1.32c -0.253 0 -0.506 0.099 -0.737 0.286c -0.297 0.253 -0.473 0.77 -0.55 1.562c -0.033 0.275 -0.044 0.847 -0.044 1.716c 0 0.957 0.033 1.628 0.088 1.991c 0.099 0.605 0.297 0.99 0.605 1.155c 0.242 0.132 0.451 0.198 0.638 0.198c 0.715 0 1.111 -0.583 1.232 -1.232Z "/></symbol><symbol id="g607FDD17CE03D2E71672FF3245E08E8" overflow="visible"><path d="M 0 0m 6.534 0.176c 0 -0.121 0.066 -0.176 0.209 -0.176l 1.353 0.033c 0.253 0.011 1.144 -0.033 1.353 -0.033c 0.165 0 0.253 0.088 0.253 0.264c 0 0.11 -0.11 0.165 -0.341 0.165c -0.451 0 -0.671 0.044 -0.671 0.143c 0 0.033 0.022 0.11 0.055 0.253l 1.452 5.797c 0.055 0.231 0.165 0.374 0.308 0.429c 0.066 0.022 0.264 0.033 0.583 0.033c 0.275 0 0.396 0.011 0.396 0.264c 0 0.11 -0.11 0.165 -0.341 0.165h -1.441c -0.319 0 -0.319 -0.022 -0.462 -0.231l -3.916 -6.094l -0.836 6.039c -0.044 0.275 -0.066 0.286 -0.385 0.286h -1.496c -0.242 0 -0.363 -0.011 -0.363 -0.253c 0 -0.121 0.121 -0.176 0.352 -0.176c 0.22 0 0.671 0.033 0.671 -0.143c 0 -0.022 -0.011 -0.088 -0.044 -0.198l -1.386 -5.533c -0.099 -0.418 -0.352 -0.671 -0.737 -0.748c -0.275 -0.033 -0.638 0.011 -0.638 -0.286c 0 -0.121 0.066 -0.176 0.198 -0.176c 0.198 0 0.891 0.033 1.089 0.033c 0.209 0 0.913 -0.033 1.122 -0.033c 0.165 0 0.242 0.088 0.242 0.264c 0 0.099 -0.077 0.154 -0.242 0.165c -0.462 0 -0.693 0.143 -0.693 0.429c 0 0.044 0.011 0.121 0.044 0.242l 1.43 5.731l 0.913 -6.545c 0.033 -0.187 0.099 -0.286 0.209 -0.286c 0.088 0 0.176 0.077 0.275 0.22l 4.279 6.677l -1.496 -5.995c -0.066 -0.242 -0.176 -0.385 -0.341 -0.44c -0.066 -0.022 -0.275 -0.033 -0.616 -0.033c -0.231 0 -0.341 -0.022 -0.341 -0.253Z "/></symbol><symbol id="g93ED3F78F0B9002134410B06E9C883DB" overflow="visible"><path d="M 0 0m 5.731 -7.106c 0.132 0 0.198 0.066 0.198 0.198c 0 0.066 -0.022 0.121 -0.066 0.165c -0.957 0.737 -1.727 1.991 -2.299 3.762c -0.495 1.507 -0.737 2.992 -0.737 4.444v 2.574c 0 1.452 0.242 2.937 0.737 4.444c 0.572 1.771 1.342 3.025 2.299 3.762c 0.044 0.044 0.066 0.099 0.066 0.165c 0 0.132 -0.066 0.198 -0.198 0.198c -0.022 0 -0.055 -0.011 -0.11 -0.022c -1.089 -0.836 -1.98 -2.134 -2.684 -3.883c -0.649 -1.617 -0.968 -3.179 -0.968 -4.664v -2.574c 0 -1.485 0.319 -3.047 0.968 -4.664c 0.704 -1.749 1.595 -3.047 2.684 -3.883c 0.055 -0.011 0.088 -0.022 0.11 -0.022Z "/></symbol><symbol id="gBFCC2410A697C41E2DD3187C83DA8F3" overflow="visible"><path d="M 0 0m 2.3331 5.1128c -0.3311 -0.3234 -0.8239 -0.4851 -1.4938 -0.4851v -0.3388c 0.4543 0 0.8162 0.0693 1.0934 0.2002v -3.8346c 0 -0.1001 -0.0077 -0.1617 -0.0308 -0.1925c -0.0385 -0.0847 -0.2695 -0.1309 -0.693 -0.1309h -0.3157v -0.3311l 1.3706 0.0308l 1.3783 -0.0308v 0.3311h -0.3157c -0.4235 0 -0.6545 0.0462 -0.7007 0.1309c -0.0154 0.0308 -0.0231 0.0924 -0.0231 0.1925v 4.2119c 0 0.2079 -0.0308 0.2464 -0.2695 0.2464Z "/></symbol><symbol id="g777C235EA19CAB599B58B593B0044621" overflow="visible"><path d="M 0 0m 2.7181 2.7181c 0.5159 0.2079 1.0087 0.6622 1.0087 1.3167c 0 0.3465 -0.1848 0.6237 -0.5467 0.8239c -0.3003 0.1694 -0.6391 0.2541 -1.0164 0.2541c -0.3773 0 -0.7084 -0.077 -0.9933 -0.2387c -0.3465 -0.1925 -0.5236 -0.462 -0.5236 -0.8085c 0 -0.2926 0.1463 -0.4389 0.4312 -0.4389c 0.2387 0 0.4158 0.1848 0.4158 0.4235c 0 0.2387 -0.1232 0.3773 -0.3619 0.4158c 0.2233 0.2387 0.5544 0.3619 1.0087 0.3619c 0.5005 0 0.7854 -0.3003 0.7854 -0.7931c 0 -0.3619 -0.1001 -0.6545 -0.2926 -0.8855c -0.2156 -0.2541 -0.3696 -0.2926 -0.8162 -0.3234c -0.2079 -0.0154 -0.3465 0.0077 -0.3465 -0.1463c 0 -0.0924 0.077 -0.1386 0.2233 -0.1386h 0.4081c 0.6622 0 0.9856 -0.5005 0.9856 -1.1935c 0 -0.6776 -0.308 -1.1935 -0.9548 -1.1935c -0.5621 0 -0.9702 0.154 -1.2243 0.4697c 0.2695 0.0308 0.4081 0.1848 0.4081 0.4543c 0 0.2541 -0.1925 0.4466 -0.4466 0.4466c -0.3003 0 -0.4543 -0.154 -0.4543 -0.4697c 0 -0.3927 0.2002 -0.7084 0.5929 -0.9317c 0.3311 -0.1848 0.7084 -0.2772 1.1396 -0.2772c 0.4697 0 0.8778 0.1309 1.232 0.3927c 0.385 0.2849 0.5775 0.6545 0.5775 1.1088c 0 0.7161 -0.6237 1.2089 -1.2397 1.3706Z "/></symbol><symbol id="g25B224D96CA3F5CCC7E774117FEA026D" overflow="visible"><path d="M 0 0m 0.9163 3.2648c 0.2464 0 0.4312 0.1848 0.4312 0.4312c 0 0.2772 -0.1463 0.4235 -0.4312 0.4312c 0.1694 0.3619 0.5544 0.6545 1.0549 0.6545c 0.6776 0 1.1242 -0.5082 1.1242 -1.1858c 0 -0.3696 -0.1309 -0.7238 -0.4004 -1.0703c -0.1309 -0.1771 -0.231 -0.3003 -0.3003 -0.3696l -1.8249 -1.8095c -0.1001 -0.0924 -0.0847 -0.1155 -0.0847 -0.3465h 3.1724l 0.2387 1.4476h -0.3234c -0.0539 -0.4081 -0.1155 -0.6468 -0.1848 -0.7007c -0.0385 -0.0231 -0.2772 -0.0385 -0.7315 -0.0385h -1.309c 0.5159 0.4543 0.9933 0.8624 1.4476 1.2243c 0.3465 0.2695 0.5929 0.5082 0.7469 0.7161c 0.231 0.3003 0.3465 0.616 0.3465 0.9471c 0 0.4774 -0.1848 0.8547 -0.5621 1.1319c -0.3311 0.2541 -0.7469 0.385 -1.2397 0.385c -0.4235 0 -0.7854 -0.1232 -1.1011 -0.3696c -0.3311 -0.2695 -0.5005 -0.6083 -0.5005 -1.0241c 0 -0.2618 0.1925 -0.4543 0.4312 -0.4543Z "/></symbol><symbol id="g72ED4E8BDD8DFFE80EC72D6074F65D44" overflow="visible"><path d="M 0 0m 3.0338 5.1898c -0.0847 0 -0.1617 -0.0385 -0.2233 -0.1155l -2.5102 -3.5112v -0.3157h 2.2253v -0.5929c 0 -0.1309 -0.0231 -0.2233 -0.077 -0.2618c -0.0539 -0.0385 -0.2233 -0.0616 -0.5005 -0.0616h -0.2387v -0.3311l 1.1627 0.0308l 1.1781 -0.0308v 0.3311h -0.231c -0.2849 0 -0.4543 0.0231 -0.5082 0.0616c -0.0539 0.0385 -0.077 0.1309 -0.077 0.2618v 0.5929h 0.8393v 0.3388h -0.8393v 3.3572c 0 0.1848 -0.0231 0.2464 -0.2002 0.2464Z m -0.4543 -0.9471v -2.6565h -1.9096Z "/></symbol><symbol id="g8CDCBC3CA855F158AD4E20BF34FF49EC" overflow="visible"><path d="M 0 0m 0.946 -7.084c 1.089 0.836 1.98 2.134 2.684 3.883c 0.649 1.617 0.968 3.179 0.968 4.664v 2.574c 0 1.485 -0.319 3.047 -0.968 4.664c -0.704 1.749 -1.595 3.047 -2.684 3.883c -0.055 0.011 -0.088 0.022 -0.11 0.022c -0.132 0 -0.198 -0.066 -0.198 -0.198c 0 -0.066 0.022 -0.121 0.066 -0.165c 0.957 -0.737 1.727 -1.991 2.299 -3.762c 0.495 -1.507 0.737 -2.992 0.737 -4.444v -2.574c 0 -1.452 -0.242 -2.937 -0.737 -4.444c -0.572 -1.771 -1.342 -3.025 -2.299 -3.762c -0.044 -0.044 -0.066 -0.099 -0.066 -0.165c 0 -0.132 0.066 -0.198 0.198 -0.198c 0.022 0 0.055 0.011 0.11 0.022Z "/></symbol><symbol id="g9B78A0965D22CB5A552C6587CA83704" overflow="visible"><path d="M 0 0m 9.504 7.513c -0.209 0 -0.891 -0.033 -1.1 -0.033c -0.209 0 -0.902 0.033 -1.111 0.033c -0.165 0 -0.242 -0.088 -0.242 -0.264c 0 -0.099 0.077 -0.154 0.242 -0.165c 0.462 0 0.693 -0.143 0.693 -0.429c 0 -0.066 -0.011 -0.143 -0.022 -0.22l -1.188 -4.708l -2.365 5.555c -0.088 0.209 -0.11 0.231 -0.385 0.231h -1.463c -0.264 0 -0.363 -0.022 -0.363 -0.264c 0 -0.11 0.121 -0.165 0.352 -0.165c 0.462 0 0.693 -0.011 0.704 -0.044l -1.463 -5.83c -0.099 -0.429 -0.352 -0.671 -0.748 -0.748c -0.286 -0.033 -0.616 0.011 -0.616 -0.297c 0 -0.11 0.066 -0.165 0.187 -0.165c 0.198 0 0.88 0.033 1.089 0.033c 0.209 0 0.913 -0.033 1.122 -0.033c 0.165 0 0.242 0.088 0.242 0.264c 0 0.099 -0.088 0.154 -0.264 0.165c -0.451 0.011 -0.671 0.154 -0.671 0.429c 0 0.055 0.011 0.132 0.033 0.242l 1.419 5.621l 2.75 -6.49c 0.066 -0.154 0.154 -0.231 0.253 -0.231c 0.099 0 0.165 0.088 0.209 0.264l 1.529 6.05c 0.143 0.561 0.451 0.759 1.133 0.77c 0.154 0.011 0.231 0.099 0.231 0.275c -0.033 0.099 -0.044 0.154 -0.187 0.154Z "/></symbol><symbol id="g7F7F5D7A7456D7D887B32CBF92952997" overflow="visible"><path d="M 0 0m 1.0626 2.3793c 0.0539 0 0.1078 0.0385 0.1694 0.1155c 0.2464 0.3157 0.5929 0.4697 1.0318 0.4697c 0.5621 0 0.847 -0.462 0.847 -1.3783c 0 -0.4466 -0.077 -0.7777 -0.2233 -0.9933c -0.2079 -0.2926 -0.4928 -0.4389 -0.8624 -0.4389c -0.539 0 -0.9702 0.308 -1.1396 0.7084c 0.2464 0 0.4158 0.1617 0.4158 0.4081c 0 0.2464 -0.1617 0.4158 -0.4081 0.4158c -0.2541 -0.0385 -0.4081 -0.1617 -0.4081 -0.4389c 0 -0.4081 0.1617 -0.7469 0.4851 -1.0164c 0.3003 -0.2541 0.6622 -0.385 1.0703 -0.385c 0.5005 0 0.9317 0.1694 1.3013 0.4928c 0.3696 0.3234 0.5467 0.7315 0.5467 1.2166c 0 0.4697 -0.1617 0.8624 -0.4697 1.1935c -0.308 0.3311 -0.693 0.4928 -1.1473 0.4928c -0.4081 0 -0.7469 -0.1155 -1.0318 -0.3388v 1.3321c 0.2464 -0.0616 0.4851 -0.0924 0.7084 -0.0924c 0.3003 0 0.5852 0.0616 0.8547 0.1925c 0.2156 0.1001 0.7623 0.4158 0.7623 0.6391c 0 0.0924 -0.0462 0.1386 -0.1309 0.1386c -0.4235 -0.1617 -0.8239 -0.2464 -1.1935 -0.2464c -0.3773 0 -0.7469 0.0693 -1.0934 0.2079c -0.0539 0.0231 -0.0847 0.0385 -0.1078 0.0385c -0.0847 0 -0.1309 -0.077 -0.1309 -0.2387v -2.2407c 0 -0.154 0.0077 -0.2541 0.154 -0.2541Z "/></symbol><symbol id="gCE14D0ABAF4B7840EB3A45FBDCEAD52C" overflow="visible"><path d="M 0 0m 4.1965 4.9588h -2.0174c -0.6314 0 -0.9702 0.0385 -1.0241 0.1232c -0.0154 0.0231 -0.0308 0.0616 -0.0385 0.1232h -0.308l -0.2772 -1.6863h 0.3234c 0.0539 0.4081 0.1232 0.6391 0.2002 0.693c 0.0385 0.0231 0.3003 0.0385 0.77 0.0385h 1.5862l -0.7469 -0.9548c -0.7238 -0.924 -1.0857 -1.9173 -1.0857 -2.9876c 0 -0.308 0.1309 -0.462 0.385 -0.462c 0.2618 0 0.3927 0.154 0.3927 0.4697v 0.308c 0 1.1704 0.2079 2.0174 0.6237 2.5487l 1.1319 1.4322c 0.0924 0.1232 0.0847 0.1155 0.0847 0.3542Z "/></symbol><symbol id="g70B30A4830674231F06EA6B44C92BA71" overflow="visible"><path d="M 0 0m 2.6488 5.1128c -0.6699 0 -1.2243 -0.2849 -1.6478 -0.8547c -0.3927 -0.5159 -0.5852 -1.1242 -0.5852 -1.8172c 0 -0.9548 0.1925 -1.6401 0.5775 -2.0482c 0.3465 -0.3619 0.7469 -0.5467 1.2089 -0.5467c 0.4928 0 0.9086 0.1694 1.2474 0.5005c 0.3388 0.3311 0.5082 0.7469 0.5082 1.232c 0 0.4774 -0.1617 0.8855 -0.4851 1.2166c -0.3234 0.3311 -0.7238 0.5005 -1.1935 0.5005c -0.4697 0 -0.8239 -0.2156 -1.078 -0.6545c 0.0154 0.6699 0.1309 1.1704 0.3388 1.5092c 0.2849 0.4543 0.6545 0.6776 1.1242 0.6776c 0.2849 0 0.4928 -0.0693 0.6237 -0.2079c -0.2156 -0.0462 -0.3234 -0.1771 -0.3234 -0.3927c 0 -0.2541 0.1309 -0.385 0.385 -0.385c 0.2618 0 0.3927 0.1309 0.3927 0.4004c 0 0.5852 -0.4774 0.8701 -1.0934 0.8701Z m -1.4245 -3.3726c 0 0.6622 0.3927 1.2782 1.0164 1.2782c 0.2387 0 0.4389 -0.077 0.6006 -0.231c 0.2926 -0.2772 0.3311 -0.6237 0.3311 -1.2089c 0 -0.4928 -0.0693 -0.8393 -0.2002 -1.0318c -0.1848 -0.2618 -0.4389 -0.3927 -0.77 -0.3927c -0.7469 0 -0.9779 0.7007 -0.9779 1.5862Z "/></symbol><symbol id="g1BC1413A0D1A666A74F6DDFF82EB418B" overflow="visible"><path d="M 0 0m 2.1945 5.1128c -0.4081 0 -0.7546 -0.1155 -1.0549 -0.3388c -0.3311 -0.2541 -0.4928 -0.5698 -0.4928 -0.9625c 0 -0.4312 0.2695 -0.8162 0.5929 -1.0318c 0.0308 -0.0231 0.1386 -0.0847 0.3157 -0.1925c -0.7623 -0.3388 -1.1396 -0.8008 -1.1396 -1.3937c 0 -0.4312 0.1925 -0.77 0.5775 -1.0241c 0.3388 -0.2156 0.7315 -0.3234 1.1858 -0.3234c 0.462 0 0.8624 0.1232 1.2089 0.3773c 0.3773 0.2849 0.5698 0.6468 0.5698 1.0934c 0 0.5159 -0.2926 0.9009 -0.6314 1.1396c -0.0462 0.0308 -0.2233 0.1386 -0.539 0.3157c 0.6237 0.3157 0.9394 0.7084 0.9394 1.1781c 0 0.7315 -0.7469 1.1627 -1.5323 1.1627Z m 1.0703 -1.1627c 0 -0.1232 -0.0308 -0.2387 -0.0847 -0.3542c -0.0924 -0.1848 -0.2387 -0.3465 -0.4312 -0.4774c -0.0847 -0.0616 -0.1463 -0.1001 -0.1848 -0.1232l -0.077 -0.0308l -0.9779 0.5621c -0.2695 0.154 -0.4004 0.3465 -0.4004 0.5775c 0 0.4697 0.5544 0.7238 1.0703 0.7238c 0.5621 0 1.0857 -0.3542 1.0857 -0.8778Z m -2.3331 -2.7566c 0 0.5159 0.308 0.924 0.9317 1.2166c 0.3773 -0.2233 0.7161 -0.4158 1.0164 -0.5929c 0.3773 -0.2233 0.5621 -0.4774 0.5621 -0.77c 0 -0.2849 -0.1386 -0.5159 -0.4235 -0.6853c -0.2387 -0.1386 -0.5159 -0.2079 -0.8239 -0.2079c -0.6545 0 -1.2628 0.4235 -1.2628 1.0395Z "/></symbol><symbol id="g68334FE969FA066B27A4624FA85F6E3E" overflow="visible"><path d="M 0 0m 4.3828125 2.87203125q 0 0.8353125 -0.2784375 1.3096875q -0.2784375 0.474375 -0.76828125 0.474375q -0.48984375 0 -0.7734375 -0.474375q -0.28359375 -0.474375 -0.28359375 -1.3096875q 0 -0.8353125 0.28359375 -1.3096875q 0.28359375 -0.474375 0.7734375 -0.474375q 0.48984375 0 0.76828125 0.474375q 0.2784375 0.474375 0.2784375 1.3096875Z m -2.10375 2.083125q 0.2784375 0.47953125 0.647109375 0.719296875q 0.368671875 0.239765625 0.832734375 0.239765625q 1.02609375 0 1.580390625 -0.78375q 0.554296875 -0.78375 0.554296875 -2.248125q 0 -1.44375 -0.5465625 -2.2378125q -0.5465625 -0.7940625 -1.5365625 -0.7940625q -0.52078125 0 -0.9075 0.25265625q -0.38671875 0.25265625 -0.62390625 0.7528125v -0.8559375h -1.505625v 8.023125h 1.505625v -3.06796875Z "/></symbol><symbol id="g74A2B48A7BFD15DBE93B245B64406013" overflow="visible"><path d="M 0 0m 5.6821875 0.28359375q -0.5259375 -0.2165625 -1.0725 -0.32484375q -0.5465625 -0.10828125 -1.155 -0.10828125q -1.44890625 0 -2.214609375 0.776015625q -0.765703125 0.776015625 -0.765703125 2.235234375q 0 1.4128125 0.73734375 2.23265625q 0.73734375 0.81984375 2.0109375 0.81984375q 1.28390625 0 1.992890625 -0.760546875q 0.708984375 -0.760546875 0.708984375 -2.142421875v -0.61359375h -3.91359375q 0.00515625 -0.680625 0.4021875 -1.01578125q 0.39703125 -0.33515625 1.1859375 -0.33515625q 0.52078125 0 1.02609375 0.14953125q 0.5053125 0.14953125 1.05703125 0.474375v -1.38703125Z m -1.27875 3.2484375q -0.0103125 0.598125 -0.306796875 0.904921875q -0.296484375 0.306796875 -0.873984375 0.306796875q -0.52078125 0 -0.83015625 -0.317109375q -0.309375 -0.317109375 -0.36609375 -0.899765625l 2.37703125 0.00515625Z "/></symbol><symbol id="gF628BE4649DCDBAE81259A82F22CF6CD" overflow="visible"><path d="M 0 0m 1.55203125 3.78984375h 3.25359375v -1.50046875h -3.25359375v 1.50046875Z "/></symbol><symbol id="g3CD525072C3EED923B1D4A462AE596D5" overflow="visible"><path d="M 0 0m 4.764375 8.0128125q -0.680625 -1.23234375 -1.010625 -2.38734375q -0.33 -1.155 -0.33 -2.31q 0 -1.1446875 0.33 -2.307421875q 0.33 -1.162734375 1.010625 -2.400234375h -1.175625q -0.81984375 1.19109375 -1.216875 2.348671875q -0.39703125 1.157578125 -0.39703125 2.358984375q 0 1.19625 0.399609375 2.358984375q 0.399609375 1.162734375 1.214296875 2.338359375h 1.175625Z "/></symbol><symbol id="gEB3DE2EC1AF526CB1A27C4E834D23AD4" overflow="visible"><path d="M 0 0m 2.37703125 1.89234375h 1.61390625v -1.39734375l -1.010625 -1.97484375h -1.11375l 0.51046875 1.97484375v 1.39734375Z "/></symbol><symbol id="gB8B5B48C46853DE19620E4D5699B9817" overflow="visible"><path d="M 0 0m 5.10984375 5.59453125v -1.32q -0.41765625 0.268125 -0.868828125 0.404765625q -0.451171875 0.136640625 -0.904921875 0.136640625q -0.5053125 0 -0.763125 -0.146953125q -0.2578125 -0.146953125 -0.2578125 -0.435703125q 0 -0.4125 1.1034375 -0.6703125l 0.05671875 -0.01546875l 0.433125 -0.103125q 0.825 -0.1959375 1.209140625 -0.631640625q 0.384140625 -0.435703125 0.384140625 -1.178203125q 0 -0.89203125 -0.585234375 -1.338046875q -0.585234375 -0.446015625 -1.760859375 -0.446015625q -0.52078125 0 -1.06734375 0.090234375q -0.5465625 0.090234375 -1.10859375 0.270703125v 1.32q 0.50015625 -0.28359375 1.018359375 -0.433125q 0.518203125 -0.14953125 1.002890625 -0.14953125q 0.53109375 0 0.804375 0.1546875q 0.27328125 0.1546875 0.27328125 0.44859375q 0 0.28875 -0.193359375 0.4434375q -0.193359375 0.1546875 -0.920390625 0.33l -0.41765625 0.0928125q -0.86625 0.1959375 -1.26328125 0.61359375q -0.39703125 0.41765625 -0.39703125 1.11890625q 0 0.8353125 0.60328125 1.299375q 0.60328125 0.4640625 1.69640625 0.4640625q 0.48984375 0 0.977109375 -0.079921875q 0.487265625 -0.079921875 0.946171875 -0.239765625Z "/></symbol><symbol id="gCB56DAF33CEB714EEFF5A38086069B27" overflow="visible"><path d="M 0 0m 4.07859375 4.95515625v 3.06796875h 1.505625v -8.023125h -1.505625v 0.8559375q -0.24234375 -0.50015625 -0.626484375 -0.7528125q -0.384140625 -0.25265625 -0.904921875 -0.25265625q -0.99 0 -1.5365625 0.7940625q -0.5465625 0.7940625 -0.5465625 2.2378125q 0 1.464375 0.554296875 2.248125q 0.554296875 0.78375 1.580390625 0.78375q 0.4640625 0 0.832734375 -0.239765625q 0.368671875 -0.239765625 0.647109375 -0.719296875Z m -2.10375 -2.083125q 0 -0.8353125 0.2784375 -1.3096875q 0.2784375 -0.474375 0.76828125 -0.474375q 0.48984375 0 0.7734375 0.474375q 0.28359375 0.474375 0.28359375 1.3096875q 0 0.8353125 -0.28359375 1.3096875q -0.28359375 0.474375 -0.7734375 0.474375q -0.48984375 0 -0.76828125 -0.474375q -0.2784375 -0.474375 -0.2784375 -1.3096875Z "/></symbol><symbol id="gCC840E9EFB1A60DB84768DA327EE719" overflow="visible"><path d="M 0 0m 0.969375 1.340625h 1.7015625v 4.99640625l -1.58296875 -0.391875v 1.3715625l 1.59328125 0.3815625h 1.46953125v -6.35765625h 1.7015625v -1.340625h -4.88296875v 1.340625Z "/></symbol><symbol id="gD155476917C9EC87AE0F2A8E117525CC" overflow="visible"><path d="M 0 0m 3.5784375 6.00703125l -1.94390625 -3.0421875h 1.94390625v 3.0421875Z m -0.1340625 1.69125h 1.59328125v -4.7334375h 0.845625v -1.30453125h -0.845625v -1.6603125h -1.45921875v 1.6603125h -3.0525v 1.4746875l 2.9184375 4.56328125Z "/></symbol><symbol id="gDF94D8EAB938869CFB56C8C08C1C80D7" overflow="visible"><path d="M 0 0m 1.59328125 8.0128125h 1.175625q 0.8146875 -1.175625 1.214296875 -2.338359375q 0.399609375 -1.162734375 0.399609375 -2.358984375q 0 -1.20140625 -0.39703125 -2.358984375q -0.39703125 -1.157578125 -1.216875 -2.348671875h -1.175625q 0.680625 1.2375 1.010625 2.400234375q 0.33 1.162734375 0.33 2.307421875q 0 1.155 -0.33 2.31q -0.33 1.155 -1.010625 2.38734375Z "/></symbol><symbol id="gA2BEE706933ABB318B89FBA72F9CF1EB" overflow="visible"><path d="M 0 0m 4.5144 5.3064c 0.7128 -0.0528 0.8052 -0.264 0.5148 -0.9372l -1.0428 -2.4156c -0.0528 -0.1188 -0.1056 -0.0264 -0.1452 0.066l -0.8316 2.3496c -0.0264 0.066 -0.0528 0.132 -0.066 0.1848c -0.1848 0.5016 -0.264 0.6864 0.4752 0.7524c 0.0792 0.0792 0.0792 0.3696 0 0.4488c -0.4884 -0.0132 -1.0164 -0.0264 -1.6632 -0.0264c -0.462 0 -1.1352 0.0132 -1.6236 0.0264c -0.0792 -0.0792 -0.0792 -0.3696 0 -0.4488c 0.7656 -0.0924 0.792 -0.3564 1.056 -1.0164l 1.7292 -4.1712c 0.0792 -0.198 0.3036 -0.2772 0.4752 -0.2772c 0.132 0 0.396 0.0264 0.5148 0.3036l 1.8084 4.1316c 0.264 0.594 0.4356 0.9636 1.1352 1.0296c 0.0792 0.0792 0.0792 0.3696 0 0.4488c -0.2904 -0.0132 -0.7128 -0.0264 -1.0032 -0.0264c -0.4884 0 -0.9768 0.0132 -1.3332 0.0264c -0.0792 -0.0792 -0.0792 -0.3696 0 -0.4488Z "/></symbol><symbol id="gF7CA4A5FFFD5DD80BC4D0E05FA659D75" overflow="visible"><path d="M 0 0m 3.1944 -2.2176c 0.2112 0.3696 0.4092 0.8448 0.5676 1.2408c 1.056 2.5476 1.7028 3.9732 2.4024 5.4516c 0.1848 0.3828 0.5808 0.792 1.0692 0.8316c 0.0792 0.0792 0.0792 0.3696 0 0.4488c -0.33 -0.0132 -0.5676 -0.0264 -0.9372 -0.0264c -0.462 0 -0.9108 0.0132 -1.3992 0.0264c -0.0792 -0.0792 -0.0792 -0.3696 0 -0.4488c 0.4224 -0.0396 0.8448 -0.1056 0.6336 -0.5808l -1.3596 -3.0492c 0 -0.0132 0 -0.0132 -0.0132 -0.0264c 0 0.0132 0 0.0264 -0.0132 0.0528l -1.2276 2.7588c -0.0132 0.0132 -0.0132 0.0264 -0.0132 0.0396c -0.2376 0.5148 -0.33 0.7392 0.4488 0.8052c 0.0792 0.0792 0.0792 0.3696 0 0.4488c -0.4884 -0.0132 -1.2804 -0.0264 -1.7556 -0.0264c -0.4488 0 -1.2012 0.0132 -1.4652 0.0264c -0.0792 -0.0792 -0.0792 -0.3696 0 -0.4488c 0.5808 -0.0528 0.6864 -0.1452 1.0428 -0.9768l 1.7028 -3.9072c 0.0396 -0.066 0.0924 -0.1188 0.132 -0.1716c 0.1716 -0.2376 0.3168 -0.4356 0.2376 -0.6204l -0.3168 -0.726c -0.1716 -0.4092 -0.33 -0.6468 -0.6996 -0.6468c -0.2376 0 -0.2772 0.0528 -0.462 0.0528c -0.5016 0 -0.792 -0.3432 -0.792 -0.6072c 0 -0.1716 0.0396 -0.3828 0.1584 -0.528c 0.1188 -0.1452 0.3432 -0.2376 0.5148 -0.2376c 0.1716 0 0.5676 0.0528 0.7524 0.132c 0.2772 0.132 0.6468 0.4488 0.792 0.7128Z "/></symbol><symbol id="gF84E97C9781EC8D8E3FAE71DBFAB2EDA" overflow="visible"><path d="M 0 0m 6.9696 1.6896v 2.0592c 0 1.452 -0.6204 2.112 -1.7556 2.112c -0.4884 0 -1.4256 -0.4884 -2.178 -0.9504v 2.7852c 0 0.858 0.0396 1.3464 0.0396 1.3464c 0 0.1188 -0.0924 0.1716 -0.2112 0.1716c -0.4884 -0.1584 -1.5444 -0.3036 -2.4816 -0.3432c -0.0396 -0.1584 -0.0264 -0.3036 0.0396 -0.4224c 0.8316 -0.066 0.8976 -0.0792 0.8976 -0.99v -5.7816c 0 -1.0956 -0.2112 -1.2144 -1.0164 -1.254c -0.0792 -0.0792 -0.0792 -0.3696 0 -0.4488c 0.5544 0.0132 1.1484 0.0264 1.8744 0.0264c 0.6336 0 1.0428 -0.0132 1.6104 -0.0264c 0.0792 0.0792 0.0792 0.3696 0 0.4488c -0.5544 0.0396 -0.7524 0.1584 -0.7524 1.254v 2.706c 0.5544 0.3432 0.99 0.5016 1.2276 0.5016c 0.528 0 0.99 -0.2376 0.99 -0.99v -2.2044c 0 -1.1088 -0.2112 -1.2276 -0.7524 -1.2672c -0.0792 -0.0792 -0.0792 -0.3696 0 -0.4488c 0.5544 0.0132 0.9768 0.0264 1.6104 0.0264c 0.726 0 1.3068 -0.0132 1.8744 -0.0264c 0.0792 0.0792 0.0792 0.3696 0 0.4488c -0.8052 0.0396 -1.0164 0.1584 -1.0164 1.2672Z "/></symbol><symbol id="g8EA8C068C9191756C238CFDE05E8292D" overflow="visible"><path d="M 0 0m 0.9768 1.6764c 0 -1.0956 -0.0264 -1.254 -0.0792 -1.7556c 0.1584 -0.0528 0.3036 -0.0924 0.4488 -0.0924c 0.1716 0.1452 0.3036 0.33 0.4224 0.5676c 0.5148 -0.396 1.32 -0.528 1.9272 -0.528c 1.4652 0 3.0096 1.452 3.0096 3.3396c 0 0.7524 -0.2904 1.4916 -0.7128 1.98c -0.4752 0.5412 -1.1088 0.6732 -1.8084 0.6732c -0.4092 0 -1.1088 -0.462 -1.4916 -0.7392v 2.574c 0 0.858 0.0396 1.3464 0.0396 1.3464c 0 0.1188 -0.0924 0.1716 -0.2112 0.1716c -0.4884 -0.1584 -1.5444 -0.3036 -2.4816 -0.3432c -0.0396 -0.1584 -0.0264 -0.3036 0.0396 -0.4224c 0.8316 -0.066 0.8976 -0.0792 0.8976 -0.99Z m 1.716 2.9172c 0.4356 0.2904 0.726 0.33 1.0296 0.33c 0.6468 0 1.1352 -0.594 1.1352 -1.8876c 0 -1.0824 -0.1848 -2.6136 -1.2276 -2.6136c -0.3828 0 -0.6864 0.1584 -0.9372 0.462Z "/></symbol><symbol id="g323E815CA41959B09CFE3C1ABB2B5444" overflow="visible"><path d="M 0 0m 1.32 1.6764c 0 -1.0956 -0.2112 -1.2144 -1.0164 -1.254c -0.0792 -0.0792 -0.0792 -0.3696 0 -0.4488c 0.5544 0.0132 1.1484 0.0264 1.8744 0.0264c 0.5808 0 1.1616 -0.0132 1.4784 -0.0264c 0.0792 0.0792 0.0792 0.3696 0 0.4488c -0.396 0.0528 -0.6204 0.1584 -0.6204 1.254v 1.0824c 0.3696 0 0.7788 -0.0396 0.9108 -0.2508c 0.3036 -0.4488 0.6732 -0.99 0.8976 -1.4784c 0.1716 -0.3696 0.2112 -0.4884 0.2112 -0.6864v -0.3432l 0.0264 -0.0264c 0 0 0.594 0.0264 1.056 0.0264c 0.5412 0 1.2804 -0.0132 1.7688 -0.0264c 0.0792 0.0792 0.0792 0.3696 0 0.4488c -0.5148 0.0528 -0.8052 0.0132 -1.2012 0.6072l -1.5312 2.2572c -0.066 0.0924 -0.0924 0.198 -0.0396 0.264l 0.66 0.726c 0.4224 0.462 0.7788 0.924 1.782 1.0296c 0.0792 0.0792 0.0792 0.3696 0 0.4488c -0.2904 -0.0132 -1.122 -0.0264 -1.4652 -0.0264c -0.4884 0 -1.1088 0.0132 -1.5972 0.0264c -0.0792 -0.0792 -0.0792 -0.3696 0 -0.4488c 0.7128 -0.0528 0.924 -0.1716 0.5412 -0.6996c -0.2904 -0.396 -0.5808 -0.7128 -0.8448 -0.9504c -0.1716 -0.1452 -0.7788 -0.3696 -1.1748 -0.3696v 4.4088c 0 0.858 0.0396 1.3464 0.0396 1.3464c 0 0.1188 -0.0924 0.1716 -0.2112 0.1716c -0.4884 -0.1584 -1.5444 -0.3036 -2.4816 -0.3432c -0.0396 -0.1584 -0.0264 -0.3036 0.0396 -0.4224c 0.8316 -0.066 0.8976 -0.0792 0.8976 -0.99Z "/></symbol><symbol id="gC1E20F65E9676D8A6E88C770A2E0C378" overflow="visible"><path d="M 0 0m 5.346 1.6236v 5.016c 0 0.8448 0.132 1.3332 0.6072 1.3332h 0.2904c 0.99 0 1.5444 -0.33 1.7688 -1.3464c 0.1452 0 0.396 0.0132 0.5148 0.066c -0.0924 0.6072 -0.1584 1.2936 -0.1716 1.8876c 0 0.0132 -0.0264 0.0396 -0.0396 0.0396c -0.4488 -0.0396 -1.914 -0.1056 -2.9568 -0.1056h -1.8612c -1.0164 0 -2.574 0.066 -3.0756 0.1056c -0.0264 0 -0.0528 -0.0264 -0.0528 -0.0396c -0.0528 -0.594 -0.1848 -1.2936 -0.33 -1.9272c 0.132 -0.0528 0.3564 -0.066 0.5148 -0.066c 0.264 1.056 0.8052 1.386 1.6764 1.386h 0.6468c 0.4884 0 0.6204 -0.4884 0.6204 -1.2936v -5.0556c 0 -1.0956 -0.2244 -1.1616 -1.2804 -1.2012c -0.0792 -0.0792 -0.0792 -0.3696 0 -0.4488c 0.6468 0.0132 1.3332 0.0264 2.178 0.0264c 0.8712 0 1.5708 -0.0132 2.2308 -0.0264c 0.0792 0.0792 0.0792 0.3696 0 0.4488c -1.056 0.0396 -1.2804 0.1056 -1.2804 1.2012Z "/></symbol><symbol id="g48A46752393624141BE6B54DA9819182" overflow="visible"><path d="M 0 0m 1.254 4.0788v -5.5308c 0 -1.0956 -0.1452 -1.122 -0.9504 -1.188c -0.0792 -0.0792 -0.0792 -0.3696 0 -0.4488c 0.5544 0.0132 1.1088 0.0264 1.8084 0.0264c 0.6996 0 1.2408 -0.0132 1.8084 -0.0264c 0.0792 0.0792 0.0792 0.3696 0 0.4488c -0.8052 0.0528 -0.9504 0.0924 -0.9504 1.188v 1.5444c 0.2904 -0.1452 0.5676 -0.2244 0.8844 -0.2244c 2.0064 0 3.3132 1.32 3.3132 3.2604c 0 0.7392 -0.2772 1.5576 -0.792 2.0724c -0.462 0.462 -1.122 0.66 -1.8084 0.66c -0.3828 0 -1.0956 -0.462 -1.5576 -0.8844h -0.0792c -0.0264 0.3696 -0.066 0.66 -0.066 0.66c -0.0132 0.1584 -0.1188 0.2244 -0.3036 0.2244c -0.4884 -0.132 -1.2804 -0.3168 -2.1912 -0.4356c -0.0264 -0.0792 0 -0.3432 0.0264 -0.4224c 0.726 -0.066 0.858 -0.1716 0.858 -0.924Z m 1.716 -3.2208v 3.3792c 0 0.0792 0 0.1452 0 0.2244c 0.3828 0.3432 0.8712 0.5148 1.1748 0.5148c 0.5412 0 1.1748 -0.66 1.1748 -2.2044c 0 -1.1088 -0.396 -2.3496 -1.5444 -2.3496c -0.1452 0 -0.4752 0.0792 -0.8052 0.4356Z "/></symbol><symbol id="gF51E0EC40BDFC35A80D5D46DB553D6FC" overflow="visible"><path d="M 0 0m 1.6104 9.2136c -0.3432 0 -0.8316 -0.528 -0.8316 -0.8316c 0 -0.33 0.2772 -0.6996 0.528 -0.7656c 0.1716 -0.0396 0.4752 -0.1452 0.4752 -0.4356c 0 -0.3432 -0.6732 -1.2804 -1.2672 -1.4388c -0.066 -0.1716 -0.0528 -0.3036 0.0924 -0.4092c 0.4884 0.0792 1.0692 0.4092 1.4388 0.7788c 0.3696 0.3696 0.7128 1.0164 0.7128 1.4784c 0 1.0824 -0.4356 1.6236 -1.1484 1.6236Z "/></symbol><symbol id="g93BCD9A004ECA1FDE0182538D75E2CF8" overflow="visible"><path d="M 0 0m 4.686 0.6336c 0.0264 -0.3168 0.0528 -0.5412 0.0528 -0.5412c 0.0132 -0.1584 0.1188 -0.2244 0.3036 -0.2244c 0.4884 0.132 1.2804 0.3168 2.1912 0.4356c 0.0264 0.0792 0 0.3432 -0.0264 0.4224c -0.7128 0.066 -0.858 0.2772 -0.858 1.0296v 5.94c 0 0.858 0.0396 1.3464 0.0396 1.3464c 0 0.1188 -0.0924 0.1716 -0.2112 0.1716c -0.4884 -0.1584 -1.5444 -0.3036 -2.4816 -0.3432c -0.0396 -0.1584 -0.0264 -0.33 0.0396 -0.4488c 0.8316 -0.066 0.8976 -0.0792 0.8976 -0.99v -1.716c -0.2508 0.0792 -0.5676 0.1452 -0.9504 0.1452c -1.7028 0 -3.1944 -1.4916 -3.1944 -3.2472c 0 -0.7788 0.2772 -1.6896 0.924 -2.1912c 0.4752 -0.3696 0.8052 -0.5544 1.5444 -0.5544c 0.3564 0 1.3332 0.5808 1.6104 0.7656Z m -0.0396 0.6204c -0.2772 -0.2244 -0.9768 -0.5148 -1.1352 -0.5148c -0.66 0 -1.1748 0.7392 -1.1748 2.2836c 0 0.6996 0.0792 1.3068 0.33 1.716c 0.2244 0.3564 0.5808 0.5676 0.9768 0.5676c 0.3432 0 0.6732 -0.0396 0.99 -0.4752v -3.2472c 0 -0.1056 0 -0.2244 0.0132 -0.33Z "/></symbol><symbol id="g71CE1B9F6FD9E035F8C0F2AFF5C46164" overflow="visible"><path d="M 0 0m 6.732 1.7556v 2.2836c 0 1.1088 0.0264 0.9504 0.0264 1.2672c 0 0.2244 -0.0528 0.3696 -0.132 0.4488c -0.2376 -0.0132 -0.5016 -0.0264 -0.7524 -0.0264c -0.3696 0 -1.2276 0.0132 -1.7424 0.0264c -0.0792 -0.0792 -0.0792 -0.3696 0 -0.4488c 0.6732 -0.066 0.8844 -0.1584 0.8844 -1.2672v -2.442c 0 -0.132 0 -0.264 0.0132 -0.396c -0.5412 -0.33 -0.9768 -0.3564 -1.2144 -0.3564c -0.528 0 -0.924 0.066 -0.924 0.99v 2.2044c 0 1.1088 0.0264 0.9504 0.0264 1.2672c 0 0.2244 -0.0528 0.3696 -0.132 0.4488c -0.2376 -0.0132 -0.5148 -0.0264 -0.7524 -0.0264c -0.6732 0 -1.1748 0.0132 -1.7424 0.0264c -0.0792 -0.0792 -0.0792 -0.3696 0 -0.4488c 0.6072 -0.0264 0.8844 -0.1584 0.8844 -1.2672v -2.0592c 0 -1.3992 0.5544 -2.112 1.6896 -2.112c 0.4752 0 1.4388 0.3828 2.2044 0.8052c 0.0264 -0.33 0.0528 -0.5808 0.0528 -0.5808c 0.0132 -0.1584 0.1188 -0.2244 0.3036 -0.2244c 0.4884 0.132 1.2804 0.3168 2.1912 0.4356c 0.0264 0.0792 0 0.3432 -0.0264 0.4224c -0.7128 0.066 -0.858 0.2772 -0.858 1.0296Z "/></symbol><symbol id="g93E2B88EAD8DFDF0BE4D6467DB923DB5" overflow="visible"><path d="M 0 0m 3.333 3.883c 0.726 0.275 1.408 0.968 1.408 1.903c 0 0.473 -0.231 0.858 -0.682 1.155c -0.396 0.253 -0.847 0.385 -1.353 0.385c -0.495 0 -0.924 -0.132 -1.309 -0.385c -0.429 -0.286 -0.649 -0.66 -0.649 -1.133c 0 -0.363 0.242 -0.616 0.594 -0.616c 0.352 0 0.594 0.253 0.594 0.605c 0 0.363 -0.209 0.561 -0.627 0.583c 0.286 0.385 0.737 0.583 1.353 0.583c 0.66 0 0.99 -0.385 0.99 -1.166c 0 -0.462 -0.088 -0.847 -0.253 -1.166c -0.297 -0.528 -0.704 -0.627 -1.386 -0.627c -0.132 -0.022 -0.198 -0.077 -0.198 -0.176c 0 -0.165 0.077 -0.165 0.297 -0.165h 0.473c 0.825 0 1.243 -0.583 1.243 -1.76c 0 -0.935 -0.341 -1.749 -1.177 -1.749c -0.715 0 -1.243 0.242 -1.562 0.726c 0.385 -0.011 0.671 0.275 0.671 0.649c 0 0.374 -0.275 0.649 -0.649 0.649c -0.429 0 -0.649 -0.22 -0.649 -0.671c 0 -0.539 0.242 -0.968 0.726 -1.309c 0.429 -0.297 0.935 -0.44 1.496 -0.44c 0.627 0 1.166 0.209 1.639 0.616c 0.473 0.407 0.704 0.913 0.704 1.529c 0 1.034 -0.814 1.749 -1.694 1.98Z "/></symbol></defs></svg>