<svg xmlns="http://www.w3.org/2000/svg" width="128" height="128" viewBox="0 0 128 128">
    <path fill="#421f5f"
          d="M60.613 8.012a56.04 56.04 0 0 0-27.34 9.062c-3.437 2.262-5.847 4.238-8.91 7.29c-4.652 4.66-8.011 9.363-10.863 15.199c-7.937 16.312-7.375 35.937 1.488 51.75c2.598 4.624 5.512 8.46 9.375 12.324c3.063 3.05 5.473 5.039 8.899 7.277a56.01 56.01 0 0 0 61.476 0c3.426-2.238 5.836-4.227 8.899-7.277c3.863-3.864 6.777-7.7 9.375-12.324c8.863-15.813 9.426-35.438 1.488-51.75c-2.852-5.836-6.21-10.54-10.863-15.2c-3.063-3.05-5.473-5.027-8.91-7.289a55.97 55.97 0 0 0-34.114-9.062m27.325 21.914c4.574 1.187 7.55 4.523 7.773 8.699c.187 3.336-1.563 5.96-4.625 6.95c-.848.277-1.262.323-2.398.323c-1.665.016-2.551-.109-6.665-.898c-3.875-.75-5.41-.96-8.46-1.125c-7.461-.398-11.461.262-12.387 2.023c-.477.914.086 2.204 1.648 3.852c.84.863 3.2 2.738 11.176 8.836c5.574 4.25 10.05 7.738 9.96 7.75c-.073.027-4.698.203-10.272.414c-10.227.387-11.239.46-13.551 1.012c-4.285 1.011-8.364 2.925-10.035 4.715c-2.227 2.375-1.551 4.734 2.023 7.136c3.5 2.336 9.313 4.301 19.688 6.637c9.726 2.188 14.062 3.602 16.949 5.477c.988.648 1.55 1.21 1.812 1.859c.688 1.613-1.836 3.176-6.597 4.102c-3.188.613-5.29.75-11.727.75c-10.336-.012-20.613-.836-26.46-2.137c-2.767-.614-2.704-.664.71-.59c6.676.152 23.324-.586 26.05-1.148c1.575-.325 2.063-.864 1.337-1.477c-.801-.672-2.098-.984-4.95-1.211c-5.55-.437-11.726-1.852-17.148-3.95C43.637 84.79 37.352 80.314 34 75.274c-3.602-5.41-1.562-10.023 5.7-12.937c4.788-1.922 11.76-3 18.175-2.785c4.836.148 8.074.71 11.75 2.035c.102.039-.512-.348-1.375-.86c-10.324-6.124-16.187-11.5-19.312-17.714c-.626-1.25-1.063-2.723-1.063-3.575c0-1.437.8-2.648 2.176-3.3c1.363-.649 2.472-.825 5.136-.825c2.637.012 3.239.075 8.188.876c4.512.726 7.398 1.136 9.625 1.363c4.773.5 9.602.562 10.96.148c.79-.25 1.29-.785 1.29-1.398c0-1.664-4.96-3.54-13.875-5.239c-3.54-.675-3.914-.789-2.75-.812c.45-.012 3.762-.176 7.375-.375c7.938-.437 10.113-.426 11.938.05m0 0"/>
</svg>