<svg xmlns="http://www.w3.org/2000/svg" width="32" height="32" viewBox="0 0 32 32">
    <defs>
        <linearGradient id="vscodeIconsFileTypeLightSystemverilog0" x1="2" x2="25.625" y1="26.221" y2="26.221"
                        gradientUnits="userSpaceOnUse">
            <stop offset="0" stop-color="#1a348f"/>
            <stop offset="1" stop-color="#e5e9c6"/>
        </linearGradient>
        <linearGradient id="vscodeIconsFileTypeLightSystemverilog1" x1="6.375" x2="30" y1="5.779" y2="5.779"
                        gradientUnits="userSpaceOnUse">
            <stop offset="0" stop-color="#e5e9c6"/>
            <stop offset="1" stop-color="#1a348f"/>
        </linearGradient>
    </defs>
    <path fill="#2c087e"
          d="M13.264 17.289a4.4 4.4 0 0 0-.9-1.514a14 14 0 0 0-1.858-1.575A9 9 0 0 1 8.5 12.419a1.97 1.97 0 0 1-.337-1.113a2.23 2.23 0 0 1 .5-1.434a1.6 1.6 0 0 1 1.323-.642a1.65 1.65 0 0 1 1.323.648a4.5 4.5 0 0 1 .78 2.138l.035.223l.28.079a.4.4 0 0 0 .22-.076l.121-.077l.024-.187c.011-.09.028-.279.043-.884l.032-1.034q0-.12-.065-.913l-.013-.156l-.096-.091a3.4 3.4 0 0 0-.955-.727a3.6 3.6 0 0 0-1.475-.279a3.06 3.06 0 0 0-2.511 1.192a4.64 4.64 0 0 0-.96 2.963a4.9 4.9 0 0 0 .278 1.72A5.9 5.9 0 0 0 8.113 15.5a13.7 13.7 0 0 0 1.821 1.529a6.8 6.8 0 0 1 1.747 1.7a2.8 2.8 0 0 1 .394 1.459a3.1 3.1 0 0 1-.263 1.2a2.14 2.14 0 0 1-.724.956a1.78 1.78 0 0 1-1.046.34a2.06 2.06 0 0 1-1.666-1.004a4.24 4.24 0 0 1-.83-2.3a1.1 1.1 0 0 0-.118-.475a.346.346 0 0 0-.638.052a2.4 2.4 0 0 0-.093.813c-.005.567-.045 1.3-.117 2.18q-.018.221-.018.362a1.1 1.1 0 0 0 .2.642a2.06 2.06 0 0 0 .8.567a4.76 4.76 0 0 0 2.142.512a3.5 3.5 0 0 0 2.093-.583a3.97 3.97 0 0 0 1.296-1.75a6.5 6.5 0 0 0 .476-2.484a5.8 5.8 0 0 0-.305-1.927M25.409 8.4l-.147-.073a1.6 1.6 0 0 0-.671-.1l-3.6.037l-.06.234l-.039.216a.8.8 0 0 0 .136.435l.063.1l.682.119a4 4 0 0 1 .571.122a.54.54 0 0 1 .237.186a.3.3 0 0 1 .046.113a21 21 0 0 1-.762 3.739c-.046.246-.073.391-.081.426l-.55 2.146q-.42 1.594-.834 3.009l-.3 1.043a261 261 0 0 0-1.106-3.96l-1.63-5.367a4.3 4.3 0 0 1-.239-1.242c.017-.018.122-.112.539-.164a5 5 0 0 1 .71-.05h.064a.45.45 0 0 0 .452-.288l.059-.43l-.032-.1a.53.53 0 0 0-.185-.268l-.1-.038a24 24 0 0 0-1.029-.024a34 34 0 0 0-2.131.046h-.256q-.647-.023-1.295-.023h-.167l-.153.536l.026.124a.72.72 0 0 0 .205.386a1.4 1.4 0 0 0 .367.145a3.1 3.1 0 0 1 .824.341a3 3 0 0 1 .317.712l2.435 7.93c.4 1.28.915 3.1 1.538 5.422l.049.181l.133.041a1 1 0 0 0 .252.044a.48.48 0 0 0 .306-.146l.077-.069l.26-1.122c.269-1.2.733-2.941 1.381-5.167l2.08-7.407a1.4 1.4 0 0 1 .252-.522a1.65 1.65 0 0 1 .712-.208a1.4 1.4 0 0 0 .4-.131l.1-.049l.046-.14a1.3 1.3 0 0 0 .069-.436Z"/>
    <path fill="url(#vscodeIconsFileTypeLightSystemverilog0)"
          d="M25.625 23.961c-4.462 6.4-18.148 5.853-20.732-1.52H2c2.062 9.602 19.439 9.998 23.625 1.52"/>
    <path fill="url(#vscodeIconsFileTypeLightSystemverilog1)"
          d="M30 9.559c-2.062-9.6-19.439-10-23.625-1.52c4.462-6.4 18.148-5.853 20.732 1.52Z"/>
</svg>