<?xml version="1.0" encoding="UTF-8"?>
<svg id="typo" xmlns="http://www.w3.org/2000/svg" viewBox="0 0 1200 1200">
  <defs>
    <style>
      .cls-1 {
        fill: #c31b31;
        stroke-width: 0px;
      }
    </style>
  </defs>
  <g>
    <path class="cls-1" d="M600,986.31c-52.15,0-102.74-10.21-150.37-30.36-46-19.46-87.32-47.31-122.79-82.79-35.48-35.48-63.33-76.79-82.79-122.79-20.14-47.63-30.36-98.22-30.36-150.37s10.21-102.74,30.36-150.37c19.46-46,47.31-87.32,82.79-122.79,35.48-35.48,76.79-63.33,122.79-82.79,47.63-20.15,98.22-30.36,150.37-30.36s102.74,10.21,150.37,30.36c46,19.46,87.32,47.31,122.79,82.79,35.48,35.48,63.33,76.79,82.79,122.79,20.14,47.63,30.36,98.22,30.36,150.37s-10.21,102.74-30.36,150.37c-19.46,46-47.31,87.32-82.79,122.79-35.48,35.48-76.79,63.33-122.79,82.79-47.63,20.15-98.22,30.36-150.37,30.36ZM600,218.69c-51.48,0-101.42,10.08-148.42,29.96-45.41,19.21-86.19,46.7-121.21,81.72-35.02,35.02-62.51,75.8-81.72,121.21-19.88,47.01-29.96,96.95-29.96,148.42s10.08,101.42,29.96,148.42c19.21,45.41,46.7,86.19,81.72,121.21,35.02,35.02,75.8,62.51,121.21,81.72,47.01,19.88,96.95,29.96,148.42,29.96s101.42-10.08,148.42-29.96c45.41-19.21,86.19-46.7,121.21-81.72,35.02-35.02,62.51-75.8,81.72-121.21,19.88-47.01,29.96-96.95,29.96-148.42s-10.08-101.42-29.96-148.42c-19.21-45.41-46.7-86.19-81.72-121.21-35.02-35.02-75.8-62.51-121.21-81.72-47.01-19.88-96.95-29.96-148.42-29.96Z"/>
    <path class="cls-1" d="M600,1010.73c-55.45,0-109.24-10.86-159.88-32.28-48.91-20.69-92.83-50.3-130.55-88.02-37.72-37.72-67.33-81.64-88.02-130.55-21.42-50.64-32.28-104.43-32.28-159.88s10.86-109.24,32.28-159.88c20.69-48.91,50.3-92.83,88.02-130.55,37.72-37.72,81.64-67.33,130.55-88.02,50.64-21.42,104.43-32.28,159.88-32.28s109.24,10.86,159.88,32.28c48.91,20.69,92.83,50.3,130.55,88.02,37.72,37.72,67.33,81.64,88.02,130.55,21.42,50.64,32.28,104.43,32.28,159.88s-10.86,109.24-32.28,159.88c-20.69,48.91-50.3,92.83-88.02,130.55-37.72,37.72-81.64,67.33-130.55,88.02-50.64,21.42-104.43,32.28-159.88,32.28ZM600,197.27c-54.37,0-107.11,10.65-156.76,31.65-47.96,20.28-91.03,49.32-128.01,86.31-36.99,36.99-66.03,80.06-86.31,128.01-21,49.65-31.65,102.39-31.65,156.76s10.65,107.11,31.65,156.76c20.28,47.96,49.32,91.03,86.31,128.01,36.99,36.99,80.06,66.03,128.01,86.31,49.65,21,102.39,31.65,156.76,31.65s107.11-10.65,156.76-31.65c47.96-20.28,91.03-49.32,128.01-86.31,36.99-36.99,66.03-80.06,86.31-128.01,21-49.65,31.65-102.39,31.65-156.76s-10.65-107.11-31.65-156.76c-20.28-47.96-49.32-91.03-86.31-128.01-36.99-36.99-80.06-66.03-128.01-86.31-49.65-21-102.39-31.65-156.76-31.65Z"/>
  </g>
  <g>
    <path class="cls-1" d="M460.47,607.59c5.65,3.77,14.79,9.77,13.84,17.77-1.17,6.97-2.72,13.7-4.57,20.47-9.23,33.61-29.64,67.14-62.69,81.59-6.61,2.87-13.55,5.06-20.78,5.67,0,0,.73-4.75.73-4.75,10.57,3.61,21.29,8.21,30.65,14.49,34.39,23.1,61.25,55.19,87.6,86.64,18.05,22.71,37.08,45.92,63.4,59.01,12.44,6.21,26.78,9.59,40.43,6.61,20.23-4.06,35.89-23.44,36-43.93.1-5.31-1.24-10.63-1.83-15.99-2.16-16.98-3.46-35,2.25-51.54,2.46-7.24,6.21-13.92,9.37-20.68,6.34-13.15,9.16-27.26,11.11-41.67,1.11-8.01,1.88-18.51,10.4-22.76,7.71-3.83,15.09-4.29,23.08-5.52,7.25-.96,14.84-1.67,22.08-2.61,18.62-2.69,44.88-9.69,54.16-27.44,2.34-4.83,2.26-10.18-.87-14.43-.33-.44-1.19-1.53-1.78-2.47-2.46-3.93-3.57-8.42-3.4-13,.12-4.53,2.27-10.58,7.55-11.86,1.7-.4,3.75-1.06,5.05-1.94,3.18-1.81,3.99-5.72,2.39-8.87,0,0-.08-.14-.08-.14.07.09.15.16.19.19.2.13.08,0-.12-.1-2.59-1.08-5.56-1.17-8.44-1.39-3.62-.21-7.33-.28-10.96-.28,0,0-.35-3.33-.35-3.33,4.55-1.14,8.96-2.51,13.08-4.36,3.91-1.73,7.91-3.93,10.86-6.87,1.68-1.75,2.89-3.29,2.2-4.87-.15-.26-.4-.61-.68-.89-4.39-4.54-5.73-10.51-5.74-16.46-.12-1.03.67-1.96,1.7-2.01,8.49-.81,24.97-1.42,28.3-10.42,1.74-6.12-2.18-13.78-4.95-19.52-5.42-10.67-10.46-21.63-14.24-33.08-5.03-15.36-7.74-31.25-9.24-47.09-.75-7.87-1.84-15.53-3.57-23.15-1.72-7.61-3.81-15.28-5.58-23.01-.28-1.18.46-2.37,1.64-2.64,1.17-.27,2.33.45,2.62,1.61,1.89,7.64,4.08,15.19,5.98,22.96,3.74,15.36,4.54,31.34,8.35,46.67,3.34,15.3,8.64,29.72,15.79,43.68,5.74,12.17,18.74,30.53,5.55,42.25-8.8,6.75-20.93,6-30.74,5.12,0,0,1.7-2.01,1.7-2.01,1.96,3.66,3.88,8.22,6.64,11.02.15.15.3.28.45.41l.22.17c2.41,1.9,3.98,5.21,3.49,8.34-2.37,12.76-22.54,18.11-33.51,17.47-.9.19-1.78-.39-1.97-1.29-.25-1.04.6-1.95,1.62-2.04,3.75-.78,7.45-1.36,11.27-1.68,2.97-.2,5.99-.38,9.05.1,1.72.29,3.45.82,4.77,2.4,4.8,6.02,3.38,15.57-3.09,19.8-2.22,1.64-5.61,2.96-7.59,3.35,0,.02-.07.03-.16.16-.09.1-.2.27-.32.47-1.77,3.46-.98,8.59,1.04,11.87.4.63.7.99,1.49,2.03,2.01,2.77,3.4,6.03,3.86,9.45,1.64,13.36-8.68,24.02-18.92,30.62-13.2,8.37-28.34,12.45-43.54,14.73-7.26,1.01-14.93,1.69-22.17,2.67-3.64.48-7.26.99-10.74,1.67-4.71,1.09-9.36,1.72-12.13,5.25-2.47,4-2.53,9.2-3.39,14.21-1,7.41-2.29,14.94-4.11,22.32-1.79,7.47-4.45,14.83-7.7,21.74-3.23,6.93-6.81,13.28-9.04,19.87-2.3,6.57-3.31,13.52-3.55,20.66-.31,8.92.5,18.11,1.68,27.07.65,5.69,2.05,11.34,1.9,17.18-.2,24.49-18.64,47.11-42.61,51.97-15.62,3.42-31.91-.33-45.88-7.3-34.59-17.04-56-49.96-80.25-78.33-21.6-24.97-43.94-49.83-70.8-69.21-8.99-6.57-18.74-11.15-29-15.54-1.24-.58-1.77-2.05-1.2-3.28.39-.83,1.18-1.34,2.03-1.42,1.51-.3,3.13-.77,4.65-1.22,4.73-1.47,9.33-3.4,13.74-5.66,36.63-18.66,56.08-58.25,64.63-96.92.46-2.12-1.77-4.99-3.33-6.73-2.14-2.35-4.7-4.51-7.38-6.51-.95-.7-1.15-2.05-.45-2.99.67-.9,1.92-1.11,2.85-.52h0Z"/>
    <path class="cls-1" d="M761.03,557.99c.38,4,4.55,8.32,8.59,8.58,2.19.22,4.09-1.36,6.11-2.13,2.88-1.12,5.83-2.06,8.93-2.6,4.09-.68,8.15-.17,12.11.49,1.75.3,1.54,2.91-.24,2.91-3.79.03-7.5.23-10.72,1.38-2.48.82-4.79,2.31-7,3.79-.4.22-1.39.87-1.78,1.08-7.13,4.38-15.92.12-18.85-7.18-.89-1.74-2.27-8.9,1.56-8.21.86.25,1.3,1.06,1.27,1.88h0Z"/>
    <path class="cls-1" d="M693.09,468.39c24.99-21.53,46.33-28.29,79.17-26.59,2.21.1,3.92,1.97,3.82,4.17-.09,2.29-2.13,4.05-4.41,3.8-6.82-.65-13.65-1-20.43-.74-13.61.41-26.82,3.96-38.66,10.79-5.95,3.36-11.64,7.32-17.18,11.5-1.92,1.4-4.16-1.33-2.33-2.93h0Z"/>
    <path class="cls-1" d="M754.73,495.88c.52-6.54,1.82-13.54,1.98-19.89-.02-.81-.02-1.74-.23-2.19.02.08.04.15.2.41.06.08.03.04.02.04-.5-.39-1.06-.4-1.88-.44-2.62.03-5.8.97-8.5,1.83-12.88,4.2-24.68,12.58-38.13,15.83-2.14.42-2.96-2.74-.83-3.38,6.19-2.16,12.02-6.02,17.78-9.33,7.66-4.38,15.06-9.35,23.55-12.25,5.16-1.8,12.94-1.65,15.35,4.51.64,1.93.52,3.74.34,5.46-.49,3.88-1.53,7.23-2.71,10.58-1.23,3.32-2.6,6.53-4.34,9.64-.72,1.32-2.79.65-2.62-.83h0Z"/>
    <path class="cls-1" d="M725.14,489.87c4.07,2.85,9.82,3.64,14.82,4.24,4.91.48,9.92.73,14.81.17,0,0,.7-.14.7-.14,2.42-.57,4.85.98,5.32,3.42.47,2.37-1.08,4.68-3.46,5.14-.96.16-2.36.11-3.34.06-8.07-.68-15.97-2.45-23.48-5.51-1.71-.78-10.37-4.64-7.71-7.34.65-.64,1.67-.62,2.33-.05h0Z"/>
    <path class="cls-1" d="M758.33,484.96c-4.4-1.2-8.31-1.75-12.63-.33-.55.15-1.12-.18-1.26-.74-.11-.41.05-.83.37-1.07,3.79-3.38,8.83-4.83,13.76-5.5,2.13-.37,4.15,1.06,4.51,3.19.52,2.69-2.11,5.13-4.75,4.45h0Z"/>
    <path class="cls-1" d="M547.5,548.15c4.75,10.82,14.34,19.57,24.85,24.68,1.93.86,3.72.84,5.63,1.37,6.77,1.6,13.15,5.5,18.27,9.77.84.66,1.82,1.53,2.16,1.75,3.39,2.07,8.62,2.26,12.15.53,5.27-2.78,2.22-9.59.01-13.72-.45-.84-.14-1.88.7-2.33.76-.41,1.69-.19,2.19.48,1.34,1.79,2.58,3.71,3.52,5.9,4.03,8.84-1.53,16.11-10.75,17.08-4.4.52-9.5-.12-13.15-2.93-5.33-3.86-10.68-7.36-16.96-8.8-2.19-.46-4.91-.74-6.83-1.63-11.67-4.92-22.91-18.8-25.71-30.95-.52-2.44,2.96-3.53,3.9-1.21h0Z"/>
    <path class="cls-1" d="M649.79,810.97c3.28,4.69,5.26,9.7,7.41,14.87,3.9,9.91,6.93,20.1,8.89,30.57.96,5.33,1.69,10.54,1.81,16.01.43,16.77-8.37,33.2-23.56,40.77-4.85,2.54-10.1,4.11-15.39,5.05-1.09.19-2.12-.53-2.32-1.62-.19-1.08.52-2.1,1.58-2.31,4.91-1.04,9.69-2.64,14-5.07,13.21-7.07,20.6-21.89,19.71-36.65-1.08-15.11-5.75-29.97-11.64-43.87-1.97-4.37-4.04-9.07-6.83-12.88-3.22-4.28,2.99-9.12,6.35-4.87h0Z"/>
    <path class="cls-1" d="M648.75,809.6c29.82,29.23,56.33,67.8,58.72,110.7.24,7.23-.66,14.71-3.14,21.56-1.19,3.43-2.69,6.68-4.04,9.81-1.33,3.14-2.48,6.2-2.8,9.36-.11,1.08-1.07,1.88-2.16,1.77-1.04-.11-1.8-1-1.77-2.03.28-7.36,3.99-13.73,5.84-20.49,7.24-24.82-5.88-55.29-18.43-76.6-10.57-17.6-23.66-33.62-37.87-48.43-3.46-3.77,1.77-9.16,5.65-5.66h0Z"/>
    <path class="cls-1" d="M755.66,950.78c-12.06-27.92-39.6-56.63-64.26-74.23-1.77-1.28-3.6-2.41-5.36-3.69l4.24-6.78c7.93,4.84,14.93,10.82,21.73,17.05,13.38,12.45,25.51,26.17,35.67,41.39,5.03,7.64,9.57,15.68,12.85,24.39l-4.87,1.88h0Z"/>
    <path class="cls-1" d="M510.54,931.27c22.71,7.47,42.01,22.88,64.84,29.59,17.32,5.16,39.35,3.48,55.9-3.52,17.92-7.31,30.86-22.86,38.34-40.5.46-1.04,1.68-1.51,2.72-1.05.96.43,1.43,1.5,1.14,2.48-2.36,7.79-5.76,15.39-10.49,22.24-14.32,21.56-39.87,31.48-65.09,31.14-8.34.11-16.78-1.04-24.69-3.62-23.25-7.29-42.02-23.39-64.11-32.79-2.42-1.03-1.2-4.75,1.45-3.98h0Z"/>
    <path class="cls-1" d="M729.24,702.76c32.65,5.91,65.9,20.51,88.04,46.08,14.78,17.42,18.65,39.61,7.41,60.05-11.09,22.02-32.77,25.82-55.08,24.61-9.94-.39-19.44-1.5-29.24-1.49-12.79.93-28,15.8-34.24,26.56-2.49,4.6-3.93,9.46-7.5,13.6-1.7,2.09-4.89,4.32-8,3.39-2.71-.62-4.21-3.92-2.49-6.28,1.27-1.81,3.76-2.24,5.57-.97-.74-.47-1.23-.64-1.97-.52-.23.05-.23.08-.17.02.14-.09.53-.45.88-.88,2.84-3.53,4.07-8.42,6.32-12.44,3.5-6.3,8-11.61,12.97-16.44,7.84-7.21,17.18-14.44,28.41-15.13,20.36-.5,47.46,6.33,65.03-5.35,9.5-6.59,15.28-18.81,16.55-30.01,1.2-12.04-3.92-23.63-11.54-32.92-20.88-24.59-52.34-36.66-82.08-47.46-2.59-.89-1.65-4.86,1.13-4.42h0Z"/>
    <path class="cls-1" d="M586.86,544.62c1.79,4.82,4.75,8.71,9.22,11.31,1.89,1.01,1.12,3.92-1,3.86-7.2-.17-13.28-7.97-11.72-15.04.41-1.79,2.96-1.85,3.49-.13h0Z"/>
    <path class="cls-1" d="M443.31,671.88c-20.35,2.3-40.7,5.46-60.65,10.11-2.97.71-8.94,2.25-11.88,3.05-7.87,2.19-15.63,4.71-23.17,7.78-1.15.48-2.47-.07-2.94-1.22-.43-1.05,0-2.23.95-2.78,14.72-8.38,31.1-13.21,47.54-16.75,16.44-3.39,33.21-5.46,50.03-4.79,2.81.17,2.96,4.27.13,4.61h0Z"/>
    <path class="cls-1" d="M586.32,421.05c10.92-20.07,23.85-29.61,45.86-35.42,11.08-3.15,21.94-6.09,33.19-8.62,2.05-1.09,4.15,1.53,2.62,3.29-5.62,6.41-11.89,13.14-17.47,19.57-5.85,6.9-13.15,12.57-21.32,16.48-5.31,2.64-10.75,4.76-16.27,6.63-2.54.84-4.13-2.74-1.8-4.06,9.7-5.66,19.82-10.46,28.01-18.18,3.88-3.69,7.64-8.17,11.9-12.24,4.25-4.07,8.78-7.84,13.67-11.09l2.23,3.73c-10.22,5.71-21.52,8.83-32.68,11.83-10.64,2.88-21.13,6.45-29.5,13.8-5.53,4.7-10.25,10.54-14.7,16.64-1.61,2.21-5.05.1-3.74-2.36h0Z"/>
    <path class="cls-1" d="M650.26,367.62c16.6-13.37,27.24-26.98,49.57-32.86,8.02-2.17,16.44-3.48,24.73-3.68,9.42-.22,17.93-.19,27.31.04,1.96-.04,2.86,2.54,1.23,3.68-15.17,10.1-28.58,22.9-45.37,30.6-3.56,1.76-7.48,3.19-11.42,3.72-7.71,1.15-15.16-.72-22.49-1.66-1.12-.13-1.92-1.15-1.78-2.27.11-.93.83-1.63,1.71-1.77,3.82-.6,7.57-.59,11.1-.75,5.22-.21,9.9-.79,14.52-2.76,4.7-2.16,9.2-4.87,13.64-7.51,12.36-7.25,24.41-16.68,38.38-21.11,0,0,1.23,3.68,1.23,3.68-4.41,1.93-9.17,2.97-13.91,3.46-4.75.5-9.42.34-13.9.47-6.73.16-13.28,1-19.83,2.4-6.41,1.36-12.78,3.46-18.64,6.44-8.01,4.09-15.11,9.64-22.24,15.25-3.66,2.83-7.41,5.7-11.52,8.14-1,.59-2.28.26-2.87-.73-.56-.94-.3-2.14.57-2.76h0Z"/>
    <path class="cls-1" d="M692.53,326.56c5.2-5.26,8.45-12.8,13.23-19.67,4.67-7.08,11.14-13.52,18.76-17.49,11.35-6.01,23.08-8.18,34.75-12.02,3.77-1.21,7.42-2.6,11.11-4.18,1.85-.75,3.61,1.49,2.46,3.11-5.86,8.28-9.57,17.81-16.29,25.62-8.87,10.32-21.83,19.06-35.11,22.32-3.47.82-7.05,1.17-10.24,1.46-1.15.11-2.17-.74-2.28-1.89-.09-.93.45-1.78,1.27-2.13,1.67-.71,3.25-1.25,4.79-1.81,7.6-2.67,14.38-6.53,20.87-11.33,5.18-3.72,10.3-7.5,14.75-12.02,6.95-7.02,11.72-16.2,19.17-22.91,0,0,2.7,3.02,2.7,3.02-11.94,11.58-30.58,12.1-44.46,19.37-3.36,1.72-6.43,3.78-9.26,6.24-5.89,5.14-10.14,11.73-14.76,18.18-2.42,3.32-5.1,6.73-8.61,9.46-2.19,1.65-4.85-1.4-2.84-3.34h0Z"/>
    <path class="cls-1" d="M555.24,425.88c1.99-7.33,1.06-14.79,2.07-22.43,1.16-12.27,7.93-24.06,17.14-32.13,3-2.68,6-5.04,8.87-7.42,5.75-4.71,10.77-10.02,15.84-15.74.75-1.08,2.15-1.55,3.23-.6.73.65.88,1.7.42,2.51-2.09,9.75-4.76,18.82-5.85,28.54-.59,4.87-.31,10.35-1.62,15.44-2.38,8.9-9.65,15.28-16.24,21.16-2.71,2.27-5.3,4.34-8.41,6.17-2.15,1.22-4.22-1.74-2.33-3.33,1.17-.97,2.35-2.17,3.53-3.33,3.41-3.46,6.76-7.13,9.76-10.9,2.79-3.51,5.48-7.15,6.41-11.53.88-4.7.51-9.4,1.07-14.47.95-10.36,4.53-20.49,9.83-29.3,0,0,3.65,1.91,3.65,1.91-3.41,7.12-8.35,13.71-14.16,19.19-5.45,5.29-11.48,9.52-15.81,15.56-2.06,2.77-3.96,6-5.39,9.14-3.89,8.47-3.77,18.19-5.88,27.33-.5,2-1.19,4-2.13,5.93-.53,1.08-1.83,1.52-2.91.99-1.01-.49-1.45-1.66-1.09-2.69h0Z"/>
    <path class="cls-1" d="M605.36,384.49c1.81-3.59,1.87-8.2,2.49-12.96,1.06-12.36,7.52-23.97,16.3-32.59,8.38-8.78,19.24-15.67,30.35-19.95,8.69-3.39,16.54-6.71,23.68-12.69,2-2.08,5.16.38,3.41,2.76-3.31,6.54-6.05,13.02-8.84,19.83-2.36,5.18-4.6,11.22-8.39,15.63-5.95,6.27-13.79,9.67-20.34,14.86-3.16,3.21-5.65,6.8-9.09,10.09-2.79,2.76-6.13,5.21-9.77,6.74-1.11.47-2.4-.05-2.87-1.17-.42-1-.04-2.14.85-2.7,2.91-1.83,5.37-4.11,7.59-6.78,2.2-2.68,4.32-5.64,6.56-8.65,1.15-1.68,2.84-3.34,4.4-4.55,4.31-3.43,9.05-6.56,13.15-9.95,1.82-1.55,3.58-3.01,4.76-4.85,6.05-10.28,10.26-21.74,18.33-30.94,0,0,3.41,2.76,3.41,2.76-5.8,7.84-15.2,12.92-23.92,16.53-8.48,3.56-16.24,7.67-23.24,13.58-6.92,5.79-13.2,12.4-17.04,20.26-3.1,6.03-4,12.88-5.44,19.62-.55,2.4-1.41,4.93-2.88,7.2-.6.94-1.85,1.21-2.79.6-.9-.58-1.18-1.74-.68-2.66h0Z"/>
    <path class="cls-1" d="M553.89,443.71c5.32-7.31,14.71-11.79,23.5-12.85,4.35-.67,8.47-.93,12.32-1.63,3.86-.68,7.46-1.87,11.06-3.69,3.97-2.29,3.96,4.21,3.27,6.47-1.91,6.84-6.37,12.51-11.33,17.34-2,1.82-4.12,3.51-6.63,4.8-1.06.54-2.36.12-2.9-.94-.35-.68-.3-1.46.06-2.07,2.58-4.52,5.87-8.41,9.12-12.37,2.71-3.5,6.13-7.08,7.6-11.16,0,0,3.25,1.25,3.25,1.25-6.23,6.55-16.36,8.24-24.66,9.41-8.15,1.13-14.92,3.79-21.61,8.6-2.05,1.48-4.61-1.16-3.07-3.16h0Z"/>
    <path class="cls-1" d="M799.59,337.96c11.06,2.62,22.31,16.03,22.97,27.36.12,6.36-1.03,13.35-4.17,19.07-1.41,3.05-3.53,5-3.1,8.09,0,0,.08.43.08.43,0,.1-.13,0-.07.12,1.06.8,3.17.96,4.86,1.92,2.78,1.28,4.08,4.83,3.61,7.67-.24,2.8-2.33,5.99-2.69,8.14-.08.6-.04,1.04.25,1.57.28.53.86,1.1,1.53,1.59,1.47,1.08.1,3.42-1.57,2.64-3.99-1.71-5-5.44-3.78-9.34.33-1.34,1.16-3.72,1.09-5,0-.65-.15-1.15-.37-1.6-.2-.27-.22-.23-.65-.4-1.79-.58-3.73-.4-5.95-1.76-3.78-2.42-4.27-8.14-2.81-12.03,1.52-4,3.29-6.52,4.43-10.27,1.05-3.18,1.53-6.6,1.61-10.15.13-8.63-8.84-20.49-16.58-23.87-2.47-1-1.34-4.74,1.29-4.17h0Z"/>
    <path class="cls-1" d="M757.89,326.18c9.72-4.15,21.22-.37,28.31,7,2.39,2.54,4.29,5.63,5.43,9.01,1.49,4.51,1.38,9.42,2.59,13.97.42,1.72.82,3.18,1.53,4.58,9.36,12.43,8.3,24.49-.71,36.66-1.93,2.79-4.19,5.83-2.6,9.07,1.16,1.66,4.13,2.23,6.36,2.9,6.14,1.47,10.97,4.79,10.6,11.93-.13,5.33-3.63,8.78-4.09,13.09,0,1.07.62,1.88,1.42,2.65.79.77.81,2.03.05,2.82-1.79,1.67-3.65-.49-4.71-2.03-1.79-2.47-1.05-6.34-.09-8.61,1.76-4.5,4.36-10.56-.77-12.95-3.49-1.49-7.9-1.52-11.4-3.76-4.85-2.85-5.46-9.94-3.07-14.52,2.07-4.22,5.15-7.79,6.63-11.91.94-2.44,1.5-5.08,1.47-7.68,0-5.28-3.15-9.86-5.78-14.32-.98-2.05-1.49-4.45-1.85-6.49-.94-4.5-.62-9.08-1.66-13.51-.7-2.53-1.96-4.92-3.7-6.99-5.2-6.1-14.57-9.76-22.35-7.05-2.49.91-4.01-2.71-1.6-3.86h0Z"/>
    <path class="cls-1" d="M757.92,318.31c2.61-5.17,5.28-10.43,8.3-15.43,2.14-3.54,4.32-7.29,7.5-10.06,4.28-3.99,9.72-5.63,13.31-10.16,1.02-1.9,3.97-1.09,3.89,1.04-.34,5.36,1.63,9.68,3.37,14.71,3.79,11.14-2,20.04-11.34,25.73-.99.62-2.31.32-2.93-.67-.49-.78-.41-1.75.12-2.44,2.3-3.46,4.83-6.66,6.09-10.29.55-1.98,1.04-4.22,1.22-6.23.27-3.17-.64-6.25-1.19-9.6-.65-3.77-.59-7.99.56-11.66,0,0,3.89,1.29,3.89,1.29-1.14,4.16-4.81,7.59-7.97,10.08-3.04,2.39-5.42,4.55-7.39,7.34l-3.3,4.71c-3.4,4.83-6.65,9.64-10.76,14.04-1.64,1.74-4.48-.27-3.39-2.39h0Z"/>
    <path class="cls-1" d="M703.37,436.37c4.42-1.05,6.15-3.89,6.93-8.21,1.19-6.73,1.31-16.56,7.3-22.24,3.89-3.8,8.97-5.8,13.84-7.88,10.86-4.19,18.34-9,23.14-20.03.59-1.46,1.43-3.25,1.85-4.77,1.07-3.06,2.1-6.62,2.37-9.84.49-4.55-.08-8.92-1.36-13.38-.33-1.16.35-2.37,1.51-2.7,1.07-.3,2.18.25,2.6,1.25.99,2.25,1.91,4.75,2.45,7.31,1.14,5.12.98,10.56-.14,15.66-.35,1.38-1.05,4.25-1.44,5.56-.33.92-.97,2.74-1.31,3.66-2.08,5.57-5.51,10.84-9.84,14.91-2.97,2.66-6.4,4.88-9.97,6.6-5.24,2.6-10.21,4.04-14.77,6.53-5.61,2.57-7.5,7.66-8.61,13.55-1.28,6.28-2.73,14.77-9.73,17.35-2.12.66-6,2.13-6.56-.96-.13-1.14.65-2.15,1.74-2.36h0Z"/>
    <path class="cls-1" d="M646.59,556.26c-4.35-5.77.82-13.91,2.46-19.65,2.13-5.99-3.9-6.96-8.52-7.94-9.43-1.27-12.87-10.6-9.42-18.68,1.73-4.09,4.8-7.33,8.48-9.65,13.88-7.49,17.5-20.63,21.73-34.78,2.49-8.14,6.26-16.22,10.98-23.28,2.31-3.54,4.6-6.77,6.31-10.21,1.72-3.43,3.03-7.08,3.99-10.93,2.01-8.37,5-17.23,11.6-23.37,3.35-3.15,7.52-5.24,11.69-6.5,1.16-.36,2.39.3,2.74,1.46.33,1.1-.25,2.27-1.31,2.67-7.45,2.7-12.62,8.34-15.33,15.7-3.06,7.67-3.35,16.38-7.11,23.98-1.86,4.05-4.22,7.7-6.35,11.14-4.34,6.82-7.44,13.96-9.82,21.65-2.41,8.21-4.81,16.5-9.39,23.92-2.32,3.85-5.41,7.42-8.99,10.27-2.18,1.72-4.51,3.16-6.89,4.5-2.48,1.45-4.67,3.66-5.86,6.23-1.72,3.41-1.15,8.37,2.98,9.32,0,0,1.42.39,1.42.39,8.2,1.74,15.69,6.14,12.11,15.79-1.39,4.26-6.54,11.71-4.47,15.58,1.4,1.96-1.38,4.24-3.03,2.4h0Z"/>
    <path class="cls-1" d="M508.08,339.16c-14.67,5.94-22.48,22.31-23.07,37.52-.24,3.89.21,8.04.58,11.92,1.22,12.47-.4,25.33-2.17,37.5-.8,5.86-1.52,11.54-1.13,17.34.12,3.14-1.04,5.25-2,7.76-1.59,3.78-2.9,7.32-3.56,11.04-3.2,18.46,8.72,39.12,24.86,47.99,3.37,1.95,6.92,3.46,10.78,5.13,1.54.69,3.54,1.56,4.93,2.76,2.16,1.88,3.82,4.36,5.48,6.2,7.72,9.43,18.61,11.86,30.31,11.29,11.92-.41,24.15-1.4,35.62-4.6,3.38-1,7.1-2.39,9.66-4.58,1.29-1.2,2.27-2.63,3.27-4.1,5.59-8.6,8.23-18.2,14.58-27.22,2.39-3.56,5.71-6.47,8.87-9.36,2.89-2.75,5.66-5.68,8.3-8.72,2.64-3.04,5.24-6.13,7.6-9.36,2.18-3.02,4.77-6.56,5.86-9.93.79-2.56,4.68-1.67,4.21,1.04-1.03,4.68-3.33,8.06-5.69,11.91-5.21,7.94-11.28,15.21-18.15,21.78-8.43,7.37-11.31,17.68-16.52,27.99-2.02,3.94-4.33,8.08-7.57,11.22-1.94,1.75-4.01,2.91-6.07,3.89-13.91,5.96-28.98,6.81-43.74,7.56-8.87.39-17.96-.65-25.84-5.18-4.01-2.26-7.5-5.41-10.34-8.73-1.84-2.05-3.11-4.1-4.93-5.63-4.52-2.49-9.59-4.16-14.27-7.03-3.76-2.19-7.33-4.81-10.54-7.81-12.4-11.9-20.56-30.47-17.33-47.75.98-5.44,3.22-10.24,5.16-15.05.44-1.23.53-1.63.48-2.45-.04-.77-.05-1.76-.08-2.48,0,0,.09-3.26.09-3.26.83-12.39,3.95-24.49,4.29-36.71.37-6.06-.21-12.18-.61-18.22-.44-10.77,1.99-21.72,7.63-31,4.55-7.42,11.19-13.8,19.51-16.82,2.77-.89,4.22,3.05,1.55,4.16h0Z"/>
    <path class="cls-1" d="M498.8,286.55c3.11-10.35-11.05-11.52-17.64-8.12-5.58,2.68-8.27,10.07-6.94,16.01.69,3.01,2.03,4.91,4.74,5.49,9.5,2.24,18.47-2.97,28.04-4.65,4.35-.97,9.32.18,13.29,2.25,10.5,5.24,16.77,16.91,16.39,28.44-.23,11.09-6.5,21.44-13.87,29.18-5.09,5.59-10.64,9.84-13.59,16.43-2.78,6.44-.94,13.42.98,19.97,1.41,4.86,2.72,10,3.21,15.31.49,5.31.03,10.77-1.45,15.87-.33,1.13-1.51,1.78-2.64,1.45-1.06-.31-1.7-1.38-1.49-2.45.93-4.71,1-9.51.25-14.24-1.27-10.07-7.19-19.47-7.03-29.96-.11-11.74,9.17-19.82,16.22-27.46,9.28-9.8,15.84-24.15,8.68-36.88-3.08-5.56-8.51-9.85-14.8-10.76-6.94.14-13.87,3.61-21.32,4.6-5.63.84-12.52.86-17.35-2.82-4.99-4.22-5.71-11.42-4.35-17.33,1.54-7.25,7.42-13.53,14.89-14.72,10.45-2.54,24.04,2.9,19.68,15.66-.95,2.5-4.62,1.25-3.9-1.28h0Z"/>
    <path class="cls-1" d="M511.49,312.82c-2.07,1.51-4.36,2.78-6.72,3.74-4.31,1.83-8.93,2.68-12.6,5.3-3.29,2.41-5.96,5.98-7.7,9.72-1.74,4.4-2.23,9.59-4.56,14.06-2.36,4.44-6.52,7.34-8.82,11.23-5.74,10.3-1.95,35.37,3.08,45.78.58,1.08.15,2.45-.95,2.98-1.01.49-2.21.12-2.79-.81-2.75-4.44-4.39-9.11-5.77-13.87-2.9-10.77-5.63-27.54-.15-37.77,2.38-4.55,6.58-7.31,8.97-11.24,2.17-4.06,2.77-8.61,4.84-13.04,3.48-7.14,10.15-13.21,17.95-15.05,4.66-1.23,8.89-2.12,12.95-4.55,2.28-1.28,4.41,1.94,2.3,3.53h0Z"/>
    <path class="cls-1" d="M529.51,358.29c1.58,4.87,1.7,10.19,1.56,15.16.03,3.31-.31,6.47,1.26,9.08,2.07,2.67,4.56,3.17,7.93,5.2,3.92,2.13,6.57,6.5,7.44,10.78,4.43,15.69-16.95,28.71-6.44,43.28,3.52,5.66,8.58,10.24,14.33,13.65,18.7,10.95,40.48,8.8,52.5-10.36,3.99-6.47,9.66-12.56,16.42-16.23,4.51-2.52,8.96-4.26,12.98-6.58,4.05-2.29,7.73-5.15,11.05-8.49.81-.81,2.13-.81,2.94,0,.78.78.81,2.02.1,2.84-3.25,3.87-7.09,7.35-11.34,10.12-4.25,2.79-8.77,4.89-12.63,7.31-3.82,2.37-7.16,5.48-9.85,8.99-2.9,3.8-5.07,8.34-8.34,12.15-14.74,17.78-39.03,18.23-57.8,6.94-8.98-5.47-17.3-13.67-20.26-24.05-1.44-5.5.03-11.62,2.33-16.53,2.14-4.74,4.81-8.84,6.47-12.91,1.03-2.54,1.59-4.7,1.3-7.13-.43-3.38-1.4-6.61-4.5-8.47-9.65-5.12-12.13-8.5-11.09-19.79.35-4.85.55-9.4-.52-13.79-.59-2.65,3.25-3.8,4.15-1.16h0Z"/>
    <path class="cls-1" d="M512.5,457.44c3.6,21.68,27.85,35.92,48.48,37.13,7.4.53,14.65-.23,21.98-1.76,2.38-.49,3.64,2.83,1.53,4.03-22.24,12.34-51.66,2.62-67.23-16.17-5.28-6.43-9.04-14.52-9.1-22.98.02-2.72,4.01-2.96,4.35-.26h0Z"/>
    <path class="cls-1" d="M540.92,306.52c19.52-11.81,42.1-18.86,64.92-20.41,8.86-.57,18.06-.56,26.75,1.35,9.66,1.98,19.23,5.26,28.99,2.96,3.27-.75,6.82-1.96,10.3-2.45,3.71-.55,7.43-.58,11.14-.2,5.59.66,10.88,2.57,15.64,5.46,1.62,1.01,3.04,2,4.53,3.29.89.77.98,2.11.21,3-.75.87-2.03.96-2.92.28-5.96-3.88-13.22-6.13-20.32-5.98-5.94,0-11.18,1.79-16.85,3.56-13.92,3.99-28.52-2.83-41.98-3.79-6.54-.4-13.51-.17-20.07.32-20.24,1.75-39.96,7.39-58.27,16.37-2.34,1.14-4.41-2.24-2.06-3.75h0Z"/>
    <path class="cls-1" d="M466.81,338.41c-12.22-3.44-20.18-16.48-19.03-28.94.18-5.12,3.48-9.59,4.96-14.16,1.33-4.16,1.04-9.02,1.59-13.65.5-5.66,3.9-11.17,8.29-14.66,8.35-6.73,17.85-10.64,28.38-11.79,3.76-.46,7.88.86,11.02,2.7,7.23,4.16,16.33,11.14,18.62,19.53.66,2.83,1.18,5.69,1.48,8.58.17,1.68.29,3.27.28,5.1,0,1.21-.99,2.18-2.19,2.17-1.21,0-2.16-.99-2.18-2.17-.35-4.39-1.31-9.05-2.69-13.27-3.23-6.76-13.02-13.52-20.12-15.64-7.9-1.04-21.41,5.83-27.48,10.85-4.9,3.93-6,7.79-6.25,14.16-.27,4.85-1.46,10.82-4.07,15.25-7.59,10.96-1.25,27.21,10.79,31.86,2.52,1.03,1.23,4.8-1.39,4.08h0Z"/>
    <path class="cls-1" d="M526.17,278.91c7.19-9.67,25.37-19.35,37.37-14.48,6.77,3.35,11.35,10.63,11.41,18.13-.1,2.02.47,6.34-2.68,5.98-1.06-.19-1.73-1.15-1.69-2.17-.07-2.13-.59-4.48-1.44-6.45-1.55-3.77-4.47-6.47-8.13-7.98-8.39-3.81-18.51.55-26.04,5.14-2.04,1.31-4.02,2.82-5.4,4.46-1.78,2.02-4.9-.37-3.41-2.63h0Z"/>
    <path class="cls-1" d="M550.44,280.29c-4.94,1.51-10.16,6.69-8.91,12.07.35,1.48,1.35,2.95,2.64,4.57,1.54,1.68-.42,4.27-2.44,3.27-9.2-4.66-7.01-16.04.95-20.67,1.51-1.07,8.83-3.88,8.87-.56-.03.66-.5,1.18-1.11,1.33h0Z"/>
    <path class="cls-1" d="M458.99,344.87c-5.91,2.38-11.28,6.46-15.96,11.08-3.48,3.5-6.7,7.08-9.1,11.37-1.64,2.75-5.4,10.57-6.92,13.57-1.75,3.33-3.16,6.34-5.61,9.47-2.42,2.8-4.55,4.89-6.71,7.66-5.07,6.38-8.57,13.85-11.3,21.5-2.78,7.07-1.93,16.67-2.36,24.27-.14,3.5-.32,7.06-1.15,10.78-.37,1.57-.76,3.26-1.01,4.86-1.3,8.02-1.18,16.57,1.32,24.24.4,1.16-.23,2.43-1.39,2.81-1.12.37-2.33-.22-2.74-1.32-2.55-6.82-3.32-14.06-3.05-21.17.12-3.55.59-7.1,1.28-10.58.52-3.01.54-6.34.49-9.67-.11-7.05-.91-13.85.06-21.1.52-3.7,1.95-7.15,3.26-10.59,3.83-9.9,10.32-18.9,17.88-26.25,3.91-5.12,6.64-11.47,9.98-17.12,5.02-9.53,12.82-17.43,21.89-23.15,3.03-1.9,6.3-3.53,9.82-4.59,1.1-.33,2.25.29,2.58,1.39.32,1.06-.25,2.18-1.27,2.55h0Z"/>
    <path class="cls-1" d="M445.29,294.51c-11.02-3.75-22.83,2.74-29.39,11.59-4.49,6.15-4.73,14.51-1.58,21.48.49,1.08.01,2.35-1.06,2.84-.88.4-1.9.15-2.5-.54-2.02-2.32-3.39-5.08-4.24-7.99-3.78-13.02,3.73-24.18,14.76-30.58,7.83-4.39,18.22-5.59,26.01-.44,2.05,1.44.29,4.59-2,3.64h0Z"/>
    <path class="cls-1" d="M435.84,299.97c3.53,1.02,5.5,5.4,5.01,8.83-.29,3.22-1.67,5.97-3.27,8.65-2.81,4.5-6.83,7.62-9.63,12-4.96,7.2-6.22,18.84.82,25.11,2.02,1.58-.14,4.72-2.34,3.4-11.84-7.8-10.2-25.79-2.44-35.94,3.51-4.66,9.21-8.65,11.05-14.18.61-1.89.43-3.44-1.08-4.75-1.44-1.33.07-3.78,1.89-3.12h0Z"/>
    <path class="cls-1" d="M409.92,524.14c2.44-7.44-.98-16.77-6.49-22.08-3.95-3.74-9.22-5.6-14.64-5.92-2.82-.23-5.02-.05-7.6.94-13.08,5.29-28.78,23.68-32.72,37.26-2.28,11.15-1.8,22.95.85,33.97,2.45,9.92,7.12,19.26,14.31,26.53,4.86,4.55,10.72,7.43,17.14,10.25,4.87,2.17,10.25,4.2,14.73,7.33,5.35,3.84,9.5,8.74,15.83,10.37,2.34.59,4.83,1.19,7.26.62,8.21-2.26,15-8.18,22.64-12.54,5.59-3.15,13.08-7.63,19.28-3.28.94.72,1.12,2.06.4,3-.68.9-1.94,1.1-2.86.5-6.29-4.04-22.3,11.21-28.92,14.59-2.7,1.61-5.56,3.16-9.02,4.09-1.77.44-3.74.65-5.59.42-4.99-.42-10.08-2.17-14.18-5-2.76-1.85-5.06-3.93-7.29-5.61-4.52-3.56-9.93-5.28-15.25-7.65-6.61-2.82-13.81-6.36-19.39-11.62-12.75-12.75-18.39-31.18-18.66-48.87-.02-15.04,1.75-23.86,10.77-35.87,7.63-9.96,16.69-19.45,28.63-24.14,6.36-2.28,13.49-1.21,19.68,1.31,9.25,3.86,15.4,13.35,16.18,23.21.28,2.3.17,12.68-4.15,10.91-1.02-.5-1.41-1.74-.92-2.74h0Z"/>
    <path class="cls-1" d="M387.01,459.56c-7.93,2.61-14.55,7.32-19.34,14.07-3.15,4.17-4.86,8.4-5.75,13.35-.58,3.2-.92,6.53-1.86,9.77-.61,2.12-3.77,1.82-3.97-.37-.21-2.16-.43-4.32-.53-6.6-.26-4.82.37-9.82,2.52-14.23,3.28-6.45,8.3-12.05,14.61-15.73,4.19-2.41,8.86-3.87,13.51-4.24,1.12-.09,2.11.75,2.2,1.87.08.96-.52,1.82-1.4,2.1h0Z"/>
    <path class="cls-1" d="M390.9,510.53c-24.73,6.63-26.54,42.6-11.19,59.25,10.43,11.44,25.48,11.78,38.28,3.84,2.37-1.4,4.69,1.89,2.57,3.64-8.53,7.15-20.99,10.62-31.87,6.91-22.62-7.26-31.24-35.78-23.16-56.69,3.83-10.46,13.34-19.74,24.79-20.59,2.26-.15,2.75,3.09.58,3.63h0Z"/>
    <path class="cls-1" d="M417.3,548.35c-2.59-1.1-5.49-1-8.42-1.27-.94.09-1.83.5-3,1.07-4.57,2.29-8.89,5.57-14.69,5.77-9.69.17-14.95-12.34-11.15-20.3,1.13-2.59,2.91-4.71,4.87-6.42.64-.56,1.62-.49,2.18.15.51.58.5,1.43.02,2-1.45,1.8-2.61,3.73-3.25,5.73-1.29,3.88-.14,8.42,2.59,11.3,3.03,3,6.55,1.24,10.09-.55,3.37-1.7,6.72-4.14,10.89-4.9.81-.13,1.75-.15,2.6,0,2.02.46,4.06.92,5.97,1.87,1.34.66,2.57,1.62,3.48,2.69,1.28,1.47-.46,3.7-2.19,2.86h0Z"/>
    <path class="cls-1" d="M425.19,533.41c1.17-14.17,13.7-22.14,26.9-23.48,6.11-.67,11.31,3.68,16.86,3.89,8.5-.91,17.72,1.9,23.24,8.78,3.48,3.77,7.93,6.17,13.25,5.37,1.16-.16,2.23.65,2.39,1.81.15,1.06-.52,2.05-1.53,2.32-2.06.57-4.31.83-6.56.58-4.43-.42-8.52-2.87-11.69-5.76-1.31-1.21-2.45-2.35-4.04-3.12-4.46-2.37-10.03-2.41-15.02-1.98-4.56.08-8.57-2.21-12.3-3.62-2.42-.91-4.32-1.05-6.68-.62-2.59.39-5.2,1-7.62,1.93-6.63,2.42-11.4,7.66-13,14.63-.67,2.51-4.41,1.87-4.2-.72h0Z"/>
    <path class="cls-1" d="M443.89,532.28c12.81,5.39,9.33,21.89,11.96,32.11,1.14,4.86,4.43,8.12,8.7,10.26,9.64,5.18,20.73,2.34,31.52,1.5,5.76-.52,11.8-.14,17.5.12,11.25.66,21.47-.59,27.24-11.16.53-.97,1.77-1.32,2.73-.76.89.51,1.23,1.62.82,2.54-3.83,9.24-12.25,14.42-22.01,15.35-5.84.71-11.68.41-17.42.48-8.68.03-16.42,2.01-25.45,2.44-9.47.47-19.93-2.45-26.38-9.82-6.42-7.34-5.1-18.66-5.29-26.84-.13-5.21-1.25-9.9-5.7-12.97-1.78-1.25-.26-4.11,1.79-3.25h0Z"/>
    <path class="cls-1" d="M478.12,598.81c-20.5,7.51-43.92-7.05-50.94-26.7-2.02-5.4-.6-11.82.64-17.29.89-3.41,1.1-6.54.93-10.05-.05-.9.65-1.68,1.56-1.71.8-.03,1.49.52,1.65,1.28.86,3.58,1.05,7.67.51,11.3-.47,3.48-.76,6.74-.7,10.2,1.82,11.84,14.76,23.52,25.65,27.49,6.18,2.31,12.93,2.8,19.56,1.43,2.54-.5,3.6,3.14,1.15,4.06h0Z"/>
    <path class="cls-1" d="M495.41,591.95c-13.27,15.17-11.69,44.85.42,60.15,4.46,5.34,10.45,8.21,17.47,9.53,2.4.46,4.96.89,7.66,1.53,8.93,1.92,17.52,8.55,15.81,18.6-.41,2.47-4.05,2.22-4.11-.28-.04-7.33-6.72-10.56-13.1-11.52-5.06-.76-10.6-1.09-15.68-2.93-8.24-2.85-14.97-9.26-18.78-17.01-9.25-18.28-8.74-46.83,7.31-61.18,2.08-1.72,4.82,1.11,3.01,3.12h0Z"/>
    <path class="cls-1" d="M550.41,655.08c14.63,8.44,5.34,28.71-5.56,36.14-5.6,4.23-12.8,6.65-20.05,6.42-11.93-.36-24.51-1.82-35.75,2.75-5.77,2.38-10.11,7.03-12.52,12.76-2.01,7.45.33,15.92-2.84,23.38-1.16,2.57-3.05,4.61-5.12,6.39-1.6,1.23-2.91,2.28-4.98,2.89-2.56.57-3.53-3.16-.97-3.88-.07,0,.29-.18.52-.35,2.37-1.76,4.59-4.24,5.61-7.01,1.81-6.71-.3-13.69.58-20.73.16-1.78.89-3.83,1.66-5.52,1.45-3.21,3.46-6.28,6.02-8.86,12.59-12.38,32.11-10.49,48.13-9.58,8.23.59,16.64-3.72,21.93-10.09,3.45-4.1,6.23-9.69,5.37-15.02-.42-2.52-1.83-4.79-4.09-6.41-1.93-1.42-.05-4.39,2.06-3.27h0Z"/>
    <path class="cls-1" d="M469.81,530.99c5.45,3.35,9.24,9.1,12.39,14.36,6.24,10.94,14.57,15.52,27.03,16.89,5.68.6,11.52.49,17.01-.86,1.09-.3,2.22.36,2.49,1.45.23.94-.24,1.89-1.08,2.29-2.96,1.41-6.12,2.27-9.29,2.76-11.21,1.63-23.65-.34-32.46-7.89-6.15-5.15-8.97-13.06-12.92-19.57-1.51-2.44-3.28-4.63-5.37-6.59-1.56-1.48.37-4,2.21-2.85h0Z"/>
    <path class="cls-1" d="M538.31,749.91c.08-1.47.52-3.09,1.29-4.41,1.09-1.9,2.13-2.75,2.65-4.49.47-1.49.24-2.63-.23-4.29-1.1-3.43-3.18-8.6-1.25-12.69,1.82-4.15,6.15-7.21,10.21-8.48,2.63-.89,5.04-1.43,7.17-2.23,4.36-1.49,7.46-4.59,10.04-8.25,10.54-15.28,9.14-38.03-1.91-52.53-5.65-7.15-13.6-12.19-22.97-11.78-3.7-.02-8.07.3-12.01-.47-7.17-1.59-14.23-5.58-17.56-12.48-5.14-11.13,2.04-24.48,12.51-29.43,4.69-2.2,10.24-1.95,14.95-3.74,4.37-1.41,7.92-4.32,8.99-8.9.2-.84,1.05-1.35,1.88-1.14.77.19,1.26.94,1.16,1.72-.6,5.74-5.22,10.46-10.39,12.5-4.62,2.17-9.68,2.29-14.13,4.49-5.54,3.08-9.77,9.41-9.97,15.78-.17,6.57,4.59,10.91,10.88,13.06,4.55,1.66,8.75,1.04,13.7,1.04,5.46-.12,11.57.96,16.43,3.78,24.36,13.91,29.88,49.96,13.78,71.97-3.28,4.55-7.97,8.51-13.38,10.11-4.65,1.59-9.39,1.68-12.84,4.92-5.12,4.25.32,10.38-.41,16.12-.21,1.65-.78,3.11-1.68,4.44-1.54,2.26-3,3.15-3.32,5.71-.32,2.2-3.66,2.03-3.6-.33h0Z"/>
    <path class="cls-1" d="M573.71,586.79c1.52,9.73-8.89,15.74-13.6,22.55-1.24,1.81-2.17,3.63-1.83,5.71.33,1.9,1.23,3.91,2.92,4.99,4.86,3.15,11.57,1.89,16.13,6.19,2.42,2.51,3.34,6.45,2.12,9.73-.1.25-.16.4-.35.75-.4.8-1.37,1.13-2.17.73-.8-.4-1.13-1.37-.73-2.17-.03.03.02-.17.02-.26.15-1.85-.62-4.02-2.13-5.15-1.82-1.23-4.57-1.36-6.95-1.72-4.94-.49-10.76-2.17-13.38-6.96-7.14-12.72,6.63-19.92,13.82-27.66,1.74-1.96,2.96-4.06,3.06-6.5.09-1.78,2.7-2,3.06-.24h0Z"/>
    <path class="cls-1" d="M525.39,776.89c.11-.79.16-1.84.11-2.6-.22-1.7-.87-2.57-2.18-3.75-2.25-1.79-4.75-4.38-5.24-7.53-.07-.66-.25-1.38-.21-2.05-.08-1.46.39-3.06,1.04-4.32,1.32-2.62,4.17-4.83,4.72-7.14.31-.92.27-2.23.15-3.24-.19-1.56-1.33-2.18-2.82-2.83-3.9-1.57-8.59-2.27-12.16-5.65-3.77-3.7-5.03-9.64-3.59-14.7,3.83-11.61,17.64-15.1,28.37-14.77.85.03,1.51.75,1.48,1.6-.03.76-.6,1.37-1.33,1.47-8.31,1.31-19.87,4.43-22.54,13.34-.59,2.27-.03,4.67.99,6.74,1.11,2.05,2.88,2.78,5.38,3.7,2.91,1.08,6.71,1.86,9.5,4.17,3.54,2.79,3.98,8,2.69,12.1-.86,3.29-3.88,5.62-5.62,8.07-1.04,1.72-.56,3.85.69,5.41,3.88,4.11,6,6.88,4.08,12.87-.68,2.25-3.95,1.43-3.53-.88h0Z"/>
    <path class="cls-1" d="M479.27,766.53c-5.22-3.61-6.1-11.31-2.23-16.34,2.17-2.95,5.8-4.14,8.25-5.85,2.97-2.24,3.62-6.43,3.41-10.06-.12-.98.61-1.88,1.6-1.94,2.25-.12,3.15,4.31,3.4,6.11.44,3.99-.79,8.53-4.07,11.21-2.6,2.25-5.48,3.01-7.67,4.87-3.07,2.56-3,6.3-.49,9.78,1.06,1.44-.77,3.27-2.21,2.24h0Z"/>
    <path class="cls-1" d="M420.62,518.62c-1.03-7.28-.37-15,2.35-21.9,2.57-7,6.78-13,8.83-18.87.59-1.66,1.21-3.46,2.04-5.01,0,0,1.37-2.49,1.37-2.49,2.4-3.96,5.47-7.76,8.69-10.91,4.78-4.94,10.87-8.81,13.76-14.97.93-1.98,3.99-.86,3.37,1.27-.76,9.8-.65,19.07-1.06,28.84-.24,3.85-.98,8.13-2.6,11.8-1.54,3.49-3.69,6.83-5.82,9.89-1.39,2-2.76,3.9-3.75,5.73-.51,1.12-1.86,1.6-2.95,1.01-.82-.44-1.23-1.35-1.09-2.22.48-2.84,1.59-5.19,2.56-7.44,1-2.25,1.99-4.39,2.9-6.55,4.02-8.65,2.4-17.99,4.08-27.42.78-4.99,2.11-9.93,4.2-14.52l3.46,1.06c-1.18,3.73-3.44,6.92-5.74,9.68-4.5,5.25-9.15,10.08-12.25,16.11-1.04,1.98-2.07,4.54-2.83,6.63-1.68,4.24-4.19,8.49-6.48,12.03-5.76,8.61-9.43,17.38-8.9,27.87.11,2.64-3.76,3.03-4.15.38h0Z"/>
    <path class="cls-1" d="M456.19,503.15c1.99-5.73,8.56-8.99,14.32-9.28,2.3-.05,3.29,3.06,1.44,4.36-1.77,1.3-4.37,2.85-6.23,4.06-2.09,1.35-4,2.61-6.31,3.64-1.75.86-3.81-.95-3.22-2.78h0Z"/>
    <path class="cls-1" d="M408.09,492.93c-1.51-5.38-.19-10.85.94-16.08.77-3.1,2.91-11.28,3.74-14.48.87-3.18,1.78-6.3,3-9.55.29-.79,1.17-1.19,1.95-.89.41.15.71.46.87.83.81,1.92,1.43,3.85,2.1,5.75l1.91,5.65c1.07,3.02,2.72,7.68,3.81,10.57.54,1.12.06,2.5-1.13,2.95-1.98.67-3.44-1.59-4.48-2.83-4.3-6.27-5.3-14.22-5.06-21.63,0,0,2.87-.19,2.87-.19,2.71,10.08-2.25,20.73-5,30.24-.95,3.15-1.83,6.22-1.87,9.18-.04,2.11-3.07,2.51-3.66.5h0Z"/>
    <path class="cls-1" d="M253.36,766.47c7.34-6.79,16.14-11.89,25.15-16.04,4.44-2.09,9.01-3.95,13.06-6.07,4.21-2.19,7.43-5.48,11.2-8.4,13.25-10.77,25.29-15.47,42.45-14.61,4.98.13,9.91.48,14.82.97l-2.21.47c2.54-1.41,4.34-4.77,6.53-7.25,2.93-3.65,8.15-5.49,12.73-5.19,2.92.14,5.71-3.08,9.54-3.64,1.85-.32,3.98.13,5.58,1.1.97.59,1.91,1.08,3.24,1.63,4.94,2.21,10.33,3.78,13.91,8.26,2.07,2.37,3.06,8.5-1.56,8.39-1.2-.11-2.18-.91-2.57-1.98l-.38-1.05c-.14-.38-.25-.59-.73-1.06-2.22-1.89-5.2-2.86-8.21-4.07-2.72-1.01-5.23-1.98-7.91-3.55-.09-.02-.09-.04-.23-.02-1.61.39-3.77,2.05-5.88,2.75-3.05,1.45-7.12.09-10.06,1.8-2.26,1.21-4.38,5.18-6.68,7.38-1.55,1.4-3.56,3.5-5.87,3.31-13.77-1.37-28.32-3.03-40.88,3.78-4.1,2.06-7.96,4.69-11.73,7.58-3.94,2.95-7.8,6.56-12.32,8.75-8.98,4.3-17.91,7.15-26.33,12.15-4.09,2.36-7.96,5.08-11.52,8.15-2.24,1.91-5.38-1.34-3.12-3.51h0Z"/>
    <path class="cls-1" d="M226.74,501.46c15.73-17.21,42.43-25.52,64.6-16.76,15.45,6.24,26.23,20.32,32.49,35.24,8.28,19.32,11.19,40.63,12.38,61.33.2,3.36.3,7.13.21,10.52-.11,7.04-.86,14.15-2.33,21.07-1.42,6.93-3.57,13.55-5.1,19.95-4.43,18.65-2.45,40.24,7.52,56.54,3.52,5.7,8.07,10.5,12.33,15.86,4.59,5.56,8.21,12.75,8.95,20.07.39,4.02-5.58,5.07-6.35.83-.85-6.37-3.82-11.69-7.94-16.65-4.15-5.05-9.13-10.18-13.02-16.28-8.9-13.64-11.71-30.24-11.33-46.26.29-12.12,4.79-24.2,7.15-35.67,2.01-9.69,2.35-19.68,1.79-29.55-.93-16.55-3.05-33.73-8.22-49.32-8.17-25.81-25.33-46.55-54.71-43.25-12.68,1.6-25.37,6.97-34.88,15.65-2.21,2.15-5.55-.97-3.55-3.33h0Z"/>
    <path class="cls-1" d="M334.24,737.84c11.24-3.6,23.18-1.85,34.6-1.44,1.84-.03,3.54.05,5.1-.78,3.25-1.56,6.34-4.69,9.22-7.31l-.67,3.38h0c.04.08.03-.04.03-.08,0-.2-.03-.41-.07-.62-.4-2.17-1.6-4.09-3.85-4.86-.9-.34-1.36-1.35-1.03-2.25.25-.67.86-1.09,1.53-1.13,3.7-.28,7.47,2.14,9.51,5.23.35.54.65.96.91,1.59.42,1.22.07,2.44-.67,3.38-1.5,2.14-3.22,3.87-5.25,5.48-2.23,1.74-4.88,3.33-7.75,4.32-2.34.81-5,.72-7.32.57-6.85-.57-13.54-1.95-20.27-2.22-4.39-.22-8.76-.05-12.98.82-2.58.48-3.57-3.21-1.06-4.07h0Z"/>
    <path class="cls-1" d="M269.58,768.37c4.19-2.1,8.81-3.2,13.15-4,5.58-.96,10.17-1.94,14.52-4.8,11.76-6.93,24.89-12.94,38.88-12.69,10.28.72,20.82,2.56,29.95,7.67,2.05,1.23,4.05,2.71,5.67,4.63.75.9.63,2.23-.26,2.98-.79.67-1.93.65-2.7.02-3.03-2.32-6.97-3.58-10.97-4.53-8.03-1.74-16.57-2.52-24.82-2.32-8.24.24-16.36,2.39-23.99,5.69-3.96,1.64-7.95,3.85-11.87,5.64-8.68,3.64-17.54,2.09-25.81,5.56-2.48.97-4.16-2.59-1.75-3.86h0Z"/>
    <path class="cls-1" d="M376.26,736.73c3.64,1.89,8.81,2.46,12.88,4.23,2.54,1.14,4.92,2.67,6.89,4.87,1.89,1.82,5.96,9.45,1.56,10.12-.86.06-1.62-.41-2.01-1.12-2.21-3.69-5.37-5.76-9.22-7.44-2.94-1.18-7.15-2.35-10.19-4.33-1.84-1.12-5.61-4.21-2.77-6.4.9-.64,2.01-.49,2.86.07h0Z"/>
    <path class="cls-1" d="M427.27,787.31c5.8,8.77,13.85,16.62,21.08,24.42,11.35,11.89,22.95,23.65,33.57,36.3,3.58,4.33,7.09,8.89,9.76,13.9,10.85,18.15,24.53,35.76,40.39,49.76,4.89,4.19,10.23,7.88,16.32,9.87,0,0,3.84,1.46,3.84,1.46,22.1,8.1,46.08,18.02,69.76,12.66,2.46-.65,3.81,3.01,1.26,4.02-8.09,2.92-16.81,3.56-25.31,2.95-19.6-1.47-38.11-8.67-56.22-15.54-5.45-2.44-10.09-5.91-14.54-9.68-8.53-7.35-15.94-15.69-22.88-24.47-6.87-8.81-13.3-17.81-18.73-27.64-2.38-4.71-5.54-8.94-8.82-13.09-15.39-19.16-33.3-36.28-48.47-55.71-1.67-2.24-3.31-4.52-4.73-7.11-.57-1.04-.2-2.34.84-2.91,1.03-.57,2.31-.2,2.89.81h0Z"/>
    <path class="cls-1" d="M474.76,939.74c-14.82-6.98-22.13-31.52-28.72-45.66-3.52-8.14-7.09-16.22-11.45-23.77-8.72-15.46-20.72-28.33-31.32-42.64-8.06-10.89-15.3-22.96-19.66-35.96-1.58-4.32-2.69-9.49-2.5-14.18.05-3.46.59-6.26.02-9.37-.58-3.18-2.34-5.21-3.81-8.48-1.1-2.36-1.84-5.2-1.33-7.89,0,0,.57,1.88.57,1.88-.7-.75-1.69-1.39-2.66-1.77-1.06-.43-2.19-.56-3.34-.47-1.11.14-2.14-.69-2.19-1.81,0-3.07,4.94-2.22,6.86-1.74,1.71.52,5.51,2.21,5.29,4.39-.49,4.71,4.05,8.2,5.6,12.76,2.28,6.01.39,12.52,2,18.47,4.2,14.49,12.36,27.43,21.49,39.45,10.85,14.07,22.23,28.38,30.45,44.39,4.18,8.09,7.7,16.38,11,24.68,5.07,12.19,9.05,24.97,16.43,35.83,2.42,3.26,5.29,6.48,8.99,8.25,1,.49,1.42,1.7.93,2.7-.48.99-1.66,1.41-2.65.95h0Z"/>
    <path class="cls-1" d="M398.28,807.86c3.11,13.14,8.21,26.14,10.84,39.51,2.07,9.37,2.68,19.94-1.06,29.12-1.69,4.64-4.08,8.77-6.08,12.7-2.98,5.59-4.95,11.18-5.34,17.38-.15,2.31.13,4.76.44,7.2.29,2.49-3.28,3.3-4.06.89-2.46-6.9-2.26-14.77-.12-21.78,1.16-4.04,3.6-9.19,5.31-13.03,2.54-5.77,4.47-11.72,4.33-18.05-.77-18-8.36-35.02-10.55-52.96-.36-3.98,5.44-4.93,6.31-.97h0Z"/>
    <path class="cls-1" d="M350.17,762.45c14.8.4,34.66,11.85,36.64,27.65.21,2.15-2.85,2.85-3.59.83-5.29-12.74-20.45-21.31-33.39-24.71-2.26-.42-1.96-3.78.34-3.78h0Z"/>
    <path class="cls-1" d="M424.68,885.79c1.69,11.45,7.03,22.1,12.06,32.55,5.21,10.94,11.22,21.5,13.76,33.66.26,1.34-.61,2.64-1.95,2.9-1.21.24-2.39-.46-2.8-1.59l-.06-.15-.72-2c-6.12-16-15.67-30.42-21.06-46.84-1.93-5.81-3.41-11.94-3.43-18.29,0-1.16.94-2.11,2.1-2.11,1.09,0,1.98.82,2.1,1.87h0Z"/>
    <path class="cls-1" d="M386.93,861.38c.24,8.66-3.17,17.1-6.69,24.72-3.21,7.2-6.74,14.16-6.28,22.05.12,2.8-3.86,3.46-4.66.78-3.24-12.22,4.59-23.22,9.24-33.76,2.08-4.51,3.7-9.19,4.55-14.07.41-2.26,3.77-2.01,3.83.28h0Z"/>
    <path class="cls-1" d="M716.98,768.67c20.61-9.16,49.46-9.82,65,8.91.76.95.6,2.34-.36,3.1-.76.6-1.78.62-2.55.13-4.62-2.78-9.19-5.15-14.02-6.96-9.69-3.84-20.4-4.85-30.77-3.8-5.32.49-10.63,1.48-15.98,2.67-2.5.52-3.65-2.99-1.32-4.04h0Z"/>
    <path class="cls-1" d="M763.75,751.84c14.49-4.5,33.99-1.32,41.82,13,.9,1.67-1.12,3.51-2.68,2.47-5.94-3.82-11.37-7.26-18.04-9.33-6.62-2.07-13.58-2.59-20.6-2.76-1.95-.02-2.36-2.81-.5-3.39h0Z"/>
    <path class="cls-1" d="M731.63,734.33c9.47-3.86,26.94-3.65,35.76,1.68,1.68,1.08,6.49,4.73,3.46,6.82-.71.4-1.48.26-2.12-.12-5.1-2.26-11.58-3.45-17.28-4.31-6.16-.78-12.68-1.28-18.82-.68-2.06.34-2.91-2.58-1-3.4h0Z"/>
    <path class="cls-1" d="M704.08,715.56c8.64-3.64,23.48-4.7,30.83,2.19,1.49,1.51,4.5,5.5,1.36,6.78-.61.19-1.2.03-1.72-.27-4.63-2.27-8.55-4.03-13.67-4.78-5.22-.8-10.61-.72-15.96-.42-2.04.15-2.72-2.73-.84-3.51h0Z"/>
    <path class="cls-1" d="M287.86,603.14c-11.28,9.34-17.81,19.88-22.53,33.55-1.62,4.42-3.07,8.96-4.62,13.51-.69,2.02-3.76,1.36-3.54-.77,2.17-18.74,8.98-43.05,29.05-49.38,1.84-.53,3.11,1.88,1.64,3.09h0Z"/>
    <path class="cls-1" d="M289.61,640.25c-2.29,2.26-4.87,4.49-7.09,6.79-7.13,6.76-11.54,15.45-15.26,24.49-.75,1.8-3.48,1.08-3.25-.85,1.29-10.6,5.98-21.29,14.33-28.26,2.82-2.31,5.97-4.17,9.35-5.35.99-.34,2.07.18,2.42,1.17.25.73.03,1.5-.49,2.01h0Z"/>
    <path class="cls-1" d="M295.48,679.56c-2.99,4.75-6.45,8.12-8.91,13.03-2.49,4.81-3.89,10.04-5.04,15.42-.35,1.83-3.03,1.76-3.29-.07-1.76-11.07,3.26-28.04,15.28-31.31,1.66-.42,2.98,1.58,1.96,2.94h0Z"/>
    <path class="cls-1" d="M287.44,578.45c-7.64,4.57-13.56,11.45-18.07,19.1-1.59,2.67-3.04,5.45-4.29,8.32-.89,2.02-3.98,1.14-3.67-1.04,1.49-11.2,12.4-31.29,25.54-30.12,2.03.25,2.34,2.95.5,3.75h0Z"/>
    <path class="cls-1" d="M285.85,547.73c-3.09,3.86-6.73,6.27-10.04,9.8-2.91,2.93-6.81,7.68-9.52,10.91-1.17,1.42-3.47.09-2.84-1.63,2.75-7.32,7.32-13.99,13.42-18.98,1.56-1.35,8.87-5.34,9.45-1.45.04.52-.15.98-.47,1.35h0Z"/>
    <path class="cls-1" d="M278.16,524.27c-4.77,4.44-10.88,7.88-15.4,12.65-.66.77-1.84.84-2.57.13-.53-.52-.67-1.29-.4-1.94.79-1.89,1.92-3.47,3.13-4.94,2.46-2.87,5.25-5.35,8.45-7.36,1.65-.94,3.39-1.76,5.64-1.95,1.95-.12,2.68,2.29,1.15,3.41h0Z"/>
    <path class="cls-1" d="M253.9,524.42c-2.11,2.82-5.31,4.41-8.15,6.29,0,0-2.77,1.72-2.77,1.72l-.24.15c-1.31.88-3.1-.51-2.62-1.98,1.33-4.02,4.72-6.89,8.45-8.53,1.71-.67,5.73-1.68,5.74,1.31-.03.4-.18.75-.42,1.04h0Z"/>
  </g>
  <g>
    <path class="cls-1" d="M180.72,714.63c.17.81-.35,1.61-1.16,1.78l-66.54,14.01c-.81.17-1.61-.35-1.78-1.16l-4.35-20.65c-.17-.81-.37-2.14-.45-2.96,0,0-1.16-12.35.9-17.93,2.06-5.58,5.46-10.16,10.19-13.74,4.73-3.58,10.29-6.05,16.68-7.4,7.05-1.48,13.46-1.42,19.25.19,5.79,1.61,10.64,4.61,14.57,8.99,3.92,4.39,7.55,15.33,7.55,15.33.26.78.61,2.08.78,2.89l4.35,20.65ZM135.66,673.43c-5.54,1.17-10.25,3.23-14.13,6.19s-6.62,6.66-8.24,11.09c-1.62,4.43-.78,13.66-.78,13.66.08.82.28,2.15.45,2.96l2.91,13.8c.17.81.97,1.33,1.78,1.16l54.41-11.46c.81-.17,1.33-.97,1.16-1.78l-2.91-13.8c-.17-.81-.53-2.11-.79-2.89,0,0-3.01-8.88-6.38-12.26-3.37-3.38-7.43-5.62-12.2-6.73-4.76-1.11-9.85-1.09-15.27.05Z"/>
    <path class="cls-1" d="M166.7,596.05c-.08,5-1.15,9.52-3.22,13.55-2.07,4.03-4.84,7.49-8.32,10.37-3.48,2.88-7.38,5.08-11.71,6.61-4.33,1.53-8.75,2.26-13.29,2.19-4.73-.08-9.24-.98-13.51-2.72-4.27-1.74-8.07-4.15-11.38-7.24-3.32-3.09-5.93-6.68-7.83-10.78-1.9-4.1-2.81-8.51-2.74-13.25.08-5,1.19-9.51,3.32-13.55,2.13-4.03,4.96-7.47,8.47-10.31,3.51-2.84,7.42-5.03,11.71-6.56,4.29-1.53,8.67-2.26,13.14-2.19,4.73.08,9.24.98,13.51,2.72,4.27,1.74,8.07,4.13,11.38,7.19,3.32,3.05,5.91,6.63,7.78,10.73,1.87,4.1,2.76,8.51,2.69,13.25ZM130.28,621.76c3.87.06,7.59-.51,11.18-1.72,3.59-1.21,6.78-2.96,9.59-5.25,2.8-2.29,5.05-5.03,6.74-8.24,1.69-3.21,2.56-6.74,2.62-10.61.07-4.07-.72-7.73-2.37-10.99-1.65-3.26-3.87-6.06-6.67-8.41-2.79-2.35-5.95-4.15-9.46-5.4-3.51-1.26-7.1-1.92-10.77-1.98-3.87-.06-7.58.51-11.13,1.72-3.55,1.21-6.75,2.98-9.59,5.3-2.84,2.32-5.08,5.07-6.73,8.24-1.65,3.17-2.51,6.69-2.57,10.56-.07,4,.71,7.63,2.32,10.89,1.61,3.26,3.82,6.06,6.61,8.41,2.8,2.35,5.95,4.16,9.46,5.45,3.51,1.29,7.1,1.97,10.77,2.02Z"/>
    <path class="cls-1" d="M135.09,524.79c-4.22-.96-8.2-2.63-11.93-5.02-3.73-2.39-6.95-5.36-9.66-8.91-2.71-3.56-4.59-7.61-5.65-12.15-1.05-4.55-.99-9.42.2-14.62,1.4-6.18,4.02-11.14,7.84-14.88,3.83-3.75,11.67-6.7,11.67-6.7.77-.29,1.62.11,1.89.89l1.12,3.28c.27.78-.15,1.64-.93,1.9,0,0-4.82,1.65-7.13,3.52-2.3,1.87-4.14,4-5.5,6.39-1.36,2.39-2.33,4.85-2.91,7.39-.95,4.16-.95,8.02-.02,11.58.93,3.56,2.54,6.75,4.8,9.55,2.27,2.81,4.98,5.15,8.14,7.03,3.16,1.88,6.5,3.22,10.01,4.02,3.84.87,7.66,1.06,11.46.55,3.81-.5,7.32-1.62,10.55-3.34,3.23-1.73,6-3.98,8.31-6.78,2.31-2.79,3.88-6.04,4.73-9.74.59-2.6.74-5.37.45-8.31-.29-2.94-1.11-5.81-2.45-8.61-1.35-2.8-4.94-6.32-4.94-6.32-.59-.58-.64-1.56-.11-2.19l2.28-2.7c.53-.63,1.46-.69,2.07-.13,0,0,4.44,4.08,6.16,7.61,1.73,3.54,2.79,7.28,3.19,11.24.4,3.95.2,7.69-.6,11.2-1.08,4.75-3.09,8.87-6.04,12.37-2.95,3.5-6.46,6.31-10.53,8.43-4.07,2.12-8.41,3.47-13.03,4.06-4.61.59-9.1.39-13.45-.6Z"/>
    <path class="cls-1" d="M208.88,396.71c.34-.75,1.23-1.09,1.98-.75l2.92,1.32c.75.34,1.09,1.23.75,1.98l-18.39,40.74c-.34.75-1.23,1.09-1.98.75l-61.98-27.97c-.75-.34-1.09-1.23-.75-1.98l18.02-39.92c.34-.75,1.23-1.09,1.98-.75l2.92,1.32c.75.34,1.09,1.23.75,1.98l-15.14,33.54c-.34.75,0,1.64.75,1.98l20.6,9.3c.75.34,1.64,0,1.98-.75l13.04-28.89c.34-.75,1.23-1.09,1.98-.75l2.64,1.19c.75.34,1.09,1.23.75,1.98l-13.04,28.89c-.34.75,0,1.64.75,1.98l21.97,9.91c.75.34,1.64,0,1.98-.75l15.51-34.36Z"/>
    <path class="cls-1" d="M207.85,288.26c.67.48.84,1.42.36,2.09l-12.86,18.22c-.48.67-.31,1.61.36,2.09l50.48,35.65c.67.48.84,1.42.36,2.09l-2.31,3.27c-.48.67-1.42.84-2.09.36l-50.48-35.65c-.67-.48-1.61-.31-2.09.36l-12.86,18.22c-.48.67-1.42.84-2.09.36l-2.61-1.85c-.67-.48-.84-1.42-.36-2.09l31.5-44.6c.48-.67,1.42-.84,2.09-.36l2.61,1.85Z"/>
    <path class="cls-1" d="M409.86,210.52c-4.49,2.2-9,3.29-13.54,3.28-4.53-.01-8.87-.91-13.01-2.71-4.14-1.79-7.88-4.27-11.2-7.43-3.33-3.16-5.99-6.78-7.98-10.85-2.08-4.25-3.32-8.68-3.71-13.27-.39-4.59.04-9.07,1.28-13.43,1.25-4.36,3.26-8.31,6.05-11.86,2.79-3.55,6.31-6.37,10.56-8.45,4.49-2.2,9.02-3.26,13.58-3.19,4.56.07,8.91,1.03,13.03,2.87,4.13,1.84,7.85,4.33,11.16,7.46,3.31,3.13,5.95,6.7,7.91,10.71,2.08,4.25,3.31,8.68,3.71,13.27.39,4.6-.02,9.06-1.24,13.41-1.22,4.34-3.23,8.28-6.03,11.8-2.8,3.52-6.33,6.32-10.58,8.4ZM370.42,189.73c1.7,3.47,3.9,6.54,6.6,9.18,2.7,2.65,5.71,4.7,9.02,6.16,3.31,1.46,6.78,2.21,10.4,2.26,3.62.05,7.17-.78,10.64-2.48,3.65-1.79,6.56-4.15,8.72-7.1,2.16-2.95,3.65-6.2,4.47-9.75.82-3.56,1-7.18.52-10.89-.47-3.7-1.52-7.2-3.13-10.49-1.7-3.47-3.89-6.52-6.58-9.14-2.69-2.62-5.71-4.66-9.07-6.14-3.36-1.48-6.82-2.23-10.4-2.26-3.58-.03-7.1.8-10.58,2.5-3.59,1.76-6.48,4.1-8.65,7.01-2.17,2.92-3.67,6.15-4.49,9.71-.82,3.56-1.01,7.19-.57,10.91.44,3.72,1.47,7.22,3.08,10.51Z"/>
    <path class="cls-1" d="M534.85,170.03c-.81.18-1.61-.34-1.79-1.14l-11.81-53.51c-.18-.81-.52-.82-.77-.03l-14.53,46.52c-.25.79-1.11,1.58-1.91,1.76l-1.37.3c-.81.18-1.92-.18-2.47-.79l-32.85-36.07c-.56-.61-.86-.45-.69.36l11.81,53.51c.18.81-.34,1.61-1.14,1.79l-3.91.86c-.81.18-1.61-.34-1.79-1.14l-14.65-66.4c-.18-.81.34-1.61,1.14-1.79l4.1-.9c.81-.18,1.92.18,2.47.79l35.51,39.26c.55.61,1.21.47,1.46-.32l15.87-50.61c.25-.79,1.11-1.58,1.91-1.75l4-.88c.81-.18,1.61.34,1.79,1.14l14.65,66.4c.18.81-.34,1.61-1.14,1.79l-3.91.86Z"/>
    <path class="cls-1" d="M588.14,108.93c-.5-.66-.92-.52-.94.3l-1.09,55.09c-.02.82-.7,1.49-1.53,1.47l-4-.08c-.82-.02-1.49-.7-1.47-1.53l1.35-67.99c.02-.82.7-1.49,1.53-1.47l2.8.06c.82.02,1.91.57,2.4,1.23l43.61,57.72c.5.66.92.52.93-.3l1.11-56.09c.02-.82.7-1.49,1.53-1.47l4,.08c.82.02,1.49.7,1.47,1.53l-1.35,67.89c-.02.82-.7,1.49-1.53,1.47l-3.5-.07c-.82-.02-1.91-.57-2.41-1.22l-42.93-56.61Z"/>
    <path class="cls-1" d="M723.85,176.93c.8.19,1.31,1,1.12,1.8l-.72,3.12c-.19.8-1,1.31-1.8,1.12l-43.54-10.1c-.8-.19-1.31-1-1.12-1.8l15.37-66.24c.19-.8,1-1.31,1.8-1.12l42.67,9.9c.8.19,1.31,1,1.12,1.8l-.72,3.12c-.19.8-1,1.31-1.8,1.12l-35.85-8.32c-.8-.19-1.61.32-1.8,1.12l-5.11,22.02c-.19.8.32,1.61,1.12,1.8l30.88,7.16c.8.19,1.31,1,1.12,1.8l-.66,2.82c-.19.8-1,1.31-1.8,1.12l-30.88-7.16c-.8-.19-1.61.32-1.8,1.12l-5.45,23.48c-.19.8.32,1.61,1.12,1.8l36.72,8.52Z"/>
    <path class="cls-1" d="M819.23,158.05c-.68.47-1.48.23-1.78-.54,0,0-.56-1.45-1.41-2.81-.85-1.36-1.91-2.69-3.16-3.98-1.25-1.29-2.66-2.5-4.24-3.64-1.57-1.14-3.94-2.33-3.94-2.33-.74-.37-1.98-.88-2.77-1.13,0,0-8.87-2.83-12.48-1.85s-6.24,3.32-7.89,7.03c-1.14,2.56-1.41,4.84-.81,6.85.6,2.01,2.03,4.07,4.31,6.18,2.27,2.11,5.26,4.57,8.97,7.38,4.19,3.03,7.67,5.96,10.43,8.79,2.75,2.83,4.54,5.79,5.35,8.88.81,3.09.35,6.59-1.38,10.48-1.33,2.98-3.06,5.31-5.19,6.98-2.13,1.67-4.56,2.78-7.28,3.32-2.72.54-5.67.52-8.84-.06-3.17-.57-6.47-1.62-9.88-3.14-3.35-1.49-6.41-3.27-9.17-5.34-2.77-2.07-5.21-4.4-7.34-6.99s-4.64-7.34-4.64-7.34c-.38-.73-.14-1.71.54-2.18l3.04-2.09c.68-.47,1.5-.23,1.83.53,0,0,.9,2.11,2.04,3.9,1.14,1.78,2.51,3.54,4.11,5.28,1.6,1.73,3.44,3.34,5.52,4.81,2.08,1.47,5.44,3.16,5.44,3.16.74.37,1.98.88,2.77,1.14,0,0,8.21,2.69,11.94,2.09,3.73-.6,6.42-2.75,8.07-6.46,1.19-2.68,1.41-5.14.67-7.41-.74-2.26-2.35-4.56-4.81-6.9-2.46-2.33-5.61-4.94-9.44-7.81-4.05-3.04-7.34-5.89-9.88-8.55-2.54-2.66-4.12-5.38-4.74-8.17s-.16-5.92,1.39-9.38c1.79-4.01,4.29-6.96,7.5-8.85,3.21-1.89,6.87-2.77,10.98-2.66,4.11.12,11.51,2.69,11.51,2.69.78.27,2.02.8,2.75,1.17,0,0,4.06,2.07,6.27,3.74,2.21,1.68,4.12,3.53,5.73,5.56,1.61,2.03,3.37,5.4,3.37,5.4.38.73.14,1.71-.54,2.19l-2.92,2.02Z"/>
    <path class="cls-1" d="M925.22,313.65c-3.7-4.2-6.08-8.41-7.14-12.64-1.06-4.22-1.07-8.3-.04-12.22,1.03-3.93,2.8-7.69,5.32-11.28,2.52-3.6,7.81-8.84,7.81-8.84.59-.58,1.57-1.5,2.19-2.05l24.61-21.69c.62-.55,1.57-.49,2.12.13l2.58,2.93c.55.62.49,1.57-.13,2.12l-24.61,21.69c-.62.55-1.61,1.46-2.2,2.04,0,0-4.13,4.04-6.27,6.95-2.14,2.91-3.69,5.94-4.65,9.09-.95,3.15-1.08,6.37-.36,9.65.71,3.28,2.53,6.57,5.44,9.87,3,3.4,6.11,5.65,9.35,6.75,3.24,1.1,6.47,1.36,9.69.79,3.22-.58,6.39-1.75,9.5-3.51,3.11-1.76,7.54-5.28,7.54-5.28.65-.51,1.68-1.38,2.3-1.92l24.61-21.69c.62-.55,1.57-.49,2.12.13l2.65,3c.55.62.49,1.57-.13,2.12l-24.61,21.69c-.62.55-1.66,1.41-2.31,1.92,0,0-6.13,4.8-10.08,6.87-3.96,2.06-7.94,3.29-11.96,3.67-4.02.38-8-.21-11.97-1.78-3.96-1.57-7.75-4.41-11.37-8.51Z"/>
    <path class="cls-1" d="M1009.01,404.93c-3.08,1.73-6.27,2.48-9.57,2.26-3.29-.22-6.36-1.27-9.21-3.15-2.85-1.88-6.03-6.32-6.03-6.32-.48-.67-1.2-1.81-1.61-2.53l-14.89-26.62c-.4-.72-.14-1.64.58-2.04l59.35-33.19c.72-.4,1.64-.14,2.04.58l15.23,27.23c.4.72.98,1.94,1.27,2.71,0,0,1.72,4.46,1.37,7.44-.35,2.99-1.42,5.72-3.2,8.21-1.78,2.49-3.98,4.46-6.6,5.92-3.08,1.73-6.37,2.53-9.87,2.43-3.5-.11-8.18-2.58-8.18-2.58-.73-.38-1.28-.03-1.22.8,0,0,.45,6.54-1.24,10.2-1.7,3.66-4.44,6.55-8.22,8.66ZM1006.64,398.24c2.09-1.17,3.77-2.72,5.02-4.64,1.25-1.92,1.99-3.99,2.2-6.21.21-2.22-.85-4.98-.85-4.98-.3-.77-.87-1.99-1.27-2.71l-11.81-21.12c-.4-.72-1.32-.98-2.04-.58l-20.86,11.67c-.72.4-.98,1.32-.58,2.04l11.47,20.51c.4.72,1.14,1.85,1.64,2.51,0,0,1.88,2.48,3.93,3.55,2.05,1.07,4.24,1.62,6.59,1.64,2.34.02,4.53-.53,6.57-1.67ZM1027.77,343c-.4-.72-1.32-.98-2.04-.58l-20.25,11.32c-.72.4-.98,1.32-.58,2.04l10.45,18.68c.4.72,1.14,1.85,1.64,2.5,0,0,1.78,2.34,3.73,3.31,1.95.97,4.07,1.43,6.33,1.39,2.27-.05,4.39-.62,6.37-1.73,2.09-1.17,3.76-2.67,4.98-4.51,1.23-1.83,1.94-3.8,2.14-5.9.2-2.1-.77-4.63-.77-4.63-.3-.77-.87-1.99-1.27-2.71l-10.74-19.2Z"/>
    <path class="cls-1" d="M1006.6,448.42c-.28-.77.12-1.64.89-1.93l63.82-23.47c.77-.28,1.64.12,1.93.89l1.38,3.75c.28.77-.12,1.64-.89,1.93l-63.82,23.47c-.77.28-1.64-.12-1.93-.89l-1.38-3.75Z"/>
    <path class="cls-1" d="M1025.9,519.77c-.92-4.91-.76-9.56.49-13.93,1.25-4.37,3.28-8.31,6.08-11.82,2.8-3.51,6.17-6.45,10.1-8.81,3.93-2.36,8.12-3.96,12.58-4.8,4.65-.87,9.25-.88,13.78-.04,4.53.85,8.73,2.45,12.6,4.81,3.87,2.36,7.14,5.36,9.82,9,2.68,3.63,4.46,7.78,5.33,12.43.92,4.91.74,9.56-.54,13.94-1.28,4.38-3.36,8.31-6.23,11.8-2.87,3.49-6.26,6.41-10.16,8.77-3.9,2.36-8.04,3.95-12.43,4.77-4.65.87-9.25.88-13.78.04-4.53-.85-8.73-2.43-12.59-4.76-3.86-2.33-7.12-5.31-9.77-8.96-2.65-3.64-4.41-7.79-5.28-12.44ZM1048.05,523.11c.52-.64,1.07-.5,1.22.31l.72,3.83c.15.81-.15,2-.67,2.64l-16.14,19.78c-.52.64-1.07.5-1.22-.31l-.72-3.83c-.15-.81.15-2,.67-2.64l16.14-19.78ZM1032.09,518.61c.75,4,2.26,7.43,4.52,10.29,2.27,2.86,5,5.17,8.21,6.91,3.21,1.74,6.66,2.87,10.35,3.4,3.69.53,7.34.46,10.95-.22,3.8-.71,7.34-2.02,10.61-3.92,3.27-1.9,6.05-4.27,8.33-7.11,2.28-2.84,3.93-5.98,4.95-9.42,1.02-3.45,1.17-7.07.46-10.87-.74-3.93-2.24-7.33-4.5-10.19-2.27-2.87-5-5.17-8.21-6.91-3.21-1.74-6.66-2.89-10.36-3.45-3.7-.56-7.35-.5-10.96.17-3.8.71-7.34,2.02-10.61,3.92-3.27,1.9-6.05,4.25-8.34,7.06-2.29,2.8-3.94,5.94-4.95,9.42-1.01,3.48-1.16,7.12-.45,10.92Z"/>
    <path class="cls-1" d="M1033.04,615.65c.2-5.6,1.36-10.29,3.5-14.08,2.14-3.79,4.92-6.76,8.37-8.91,3.44-2.15,7.32-3.66,11.62-4.54,4.3-.88,11.75-1.05,11.75-1.05.82-.02,2.17,0,3,.02l32.78,1.16c.82.03,1.48.73,1.45,1.55l-.14,3.9c-.03.82-.73,1.48-1.55,1.45l-32.78-1.16c-.82-.03-2.17-.04-3-.03,0,0-5.78.1-9.33.74-3.56.64-6.77,1.78-9.63,3.41-2.86,1.63-5.16,3.89-6.89,6.76-1.74,2.87-2.68,6.51-2.84,10.91-.16,4.53.56,8.31,2.15,11.33,1.59,3.02,3.76,5.44,6.5,7.23,2.74,1.8,5.84,3.12,9.32,3.98,3.47.86,9.11,1.35,9.11,1.35.82.07,2.17.15,2.99.18l32.78,1.16c.82.03,1.48.73,1.45,1.55l-.14,4c-.03.82-.73,1.48-1.55,1.45l-32.78-1.16c-.82-.03-2.17-.12-2.99-.19,0,0-7.75-.72-12.04-1.94-4.29-1.22-8.03-3.07-11.21-5.55-3.18-2.48-5.67-5.65-7.47-9.52-1.8-3.87-2.6-8.53-2.41-13.99Z"/>
    <path class="cls-1" d="M1021.31,729.71c-.2.8-1.01,1.29-1.82,1.1l-3.11-.77c-.8-.2-1.29-1.01-1.1-1.82l10.71-43.4c.2-.8,1.01-1.29,1.82-1.1l66.02,16.29c.8.2,1.29,1.01,1.1,1.82l-10.49,42.52c-.2.8-1.01,1.29-1.82,1.1l-3.11-.77c-.8-.2-1.29-1.01-1.1-1.82l8.82-35.73c.2-.8-.3-1.62-1.1-1.82l-21.94-5.41c-.8-.2-1.62.3-1.82,1.1l-7.6,30.78c-.2.8-1.01,1.29-1.82,1.1l-2.81-.69c-.8-.2-1.29-1.01-1.1-1.82l7.59-30.78c.2-.8-.3-1.62-1.1-1.82l-23.4-5.77c-.8-.2-1.62.3-1.82,1.1l-9.03,36.6Z"/>
  </g>
</svg>