<svg width="25" height="25" viewBox="0 0 25 25" xmlns="http://www.w3.org/2000/svg" xmlns:svg="http://www.w3.org/2000/svg">
  <g id="typst-logo" transform="translate(6, 0)">
    <path d="m 7.88785,18.1481 c 0,1.1324 0.16248,1.8923 0.48745,2.2797 0.32496,0.3874 0.91581,0.5811 1.7725,0.5811 0.8863,0 2.0237,-0.447 3.4122,-1.341 l 0.8863,1.4751 c -2.5998,2.1754 -4.74159,3.2631 -6.42551,3.2631 -1.68392,0 -3.01334,-0.4023 -3.98824,-1.2069 C 3.05765,22.3648 2.5702,20.9046 2.5702,18.8186 V 7.10728 H 0.35451 L 0,5.45338 2.5702,4.64879 V 2.45849 L 7.88785,0 V 4.91699 L 13.1169,4.51469 12.6294,7.42018 7.88785,7.24138 Z" fill="#FFF" id="t"/>
  </g>
</svg>
