<svg viewBox="0 0 408.085275591 195.067283465" width="408.085275591pt" height="195.067283465pt" xmlns="http://www.w3.org/2000/svg" xmlns:xlink="http://www.w3.org/1999/xlink" xmlns:h5="http://www.w3.org/1999/xhtml"><path fill="#ffffff" fill-rule="nonzero" d="M 0 0v 195.067283465h 408.085275591v -195.067283465Z "/><g transform="translate(17.007874016 17.007874016)"><path fill="none" stroke="#000000" stroke-width="0.8" stroke-linecap="butt" stroke-linejoin="miter" stroke-miterlimit="4" transform="translate(24.717322835 143.28492126)" d="M 0 0h 152.427728634"/><path fill="#000000" fill-rule="nonzero" stroke="#000000" stroke-width="0.8" stroke-linecap="butt" stroke-linejoin="miter" stroke-miterlimit="4" stroke-dashoffset="0" stroke-dasharray="" transform="translate(176.365523909 142.115629921)" d="M 0 0m 3.118110236 1.169291339l -3.118110236 -1.169291339l 0.779527559 1.169291339l -0.779527559 1.169291339l 3.118110236 -1.169291339Z "/><path fill="none" stroke="#000000" stroke-width="0.8" stroke-linecap="butt" stroke-linejoin="miter" stroke-miterlimit="4" transform="translate(24.717322835 5.030420972)" d="M 0 0m 0 138.254500288v -138.254500288"/><path fill="#000000" fill-rule="nonzero" stroke="#000000" stroke-width="0.8" stroke-linecap="butt" stroke-linejoin="miter" stroke-miterlimit="4" stroke-dashoffset="0" stroke-dasharray="" transform="translate(23.548031496 2.691838296)" d="M 0 0m 1.169291339 0l -1.169291339 3.118110236l 1.169291339 -0.779527559l 1.169291339 0.779527559l -1.169291339 -3.118110236Z "/><path fill="none" stroke="#000000" stroke-width="0.6" stroke-linecap="butt" stroke-linejoin="miter" stroke-miterlimit="4" transform="translate(24.717322835 140.450275591)" d="M 0 0m 0 5.669291339v -5.669291339"/><path fill="none" stroke="#000000" stroke-width="0.6" stroke-linecap="butt" stroke-linejoin="miter" stroke-miterlimit="4" transform="translate(53.063779528 140.450275591)" d="M 0 0m 0 5.669291339v -5.669291339"/><path fill="none" transform="translate(48.738779528 150.371535433)" d="M 0 0h 8.65v 10.6h -8.65v -10.6Z "/><g transform="translate(48.738779496 150.371535354)"><g transform="matrix(1 0 0 -1 2 8.58)"><use xlink:href="#g90E80DFA2ED72D656149A2EAA0923C99" x="0" y="0" fill="#000000" fill-rule="nonzero"/></g></g><path fill="none" stroke="#000000" stroke-width="0.6" stroke-linecap="butt" stroke-linejoin="miter" stroke-miterlimit="4" transform="translate(81.41023622 140.450275591)" d="M 0 0m 0 5.669291339v -5.669291339"/><path fill="none" transform="translate(77.08523622 150.371535433)" d="M 0 0h 8.65v 10.6h -8.65v -10.6Z "/><g transform="translate(77.085236189 150.371535354)"><g transform="matrix(1 0 0 -1 2 8.58)"><use xlink:href="#gD51D1BA75A4578B9DA0C9BBB90D056B7" x="0" y="0" fill="#000000" fill-rule="nonzero"/></g></g><path fill="none" stroke="#000000" stroke-width="0.6" stroke-linecap="butt" stroke-linejoin="miter" stroke-miterlimit="4" transform="translate(109.756692913 140.450275591)" d="M 0 0m 0 5.669291339v -5.669291339"/><path fill="none" transform="translate(105.431692913 150.371535433)" d="M 0 0h 8.65v 10.68h -8.65v -10.68Z "/><g transform="translate(105.431692882 150.371535386)"><g transform="matrix(1 0 0 -1 2 8.58)"><use xlink:href="#gEC79FC52D225D04391F52749EE46159D" x="0" y="0" fill="#000000" fill-rule="nonzero"/></g></g><path fill="none" stroke="#000000" stroke-width="0.6" stroke-linecap="butt" stroke-linejoin="miter" stroke-miterlimit="4" transform="translate(138.103149606 140.450275591)" d="M 0 0m 0 5.669291339v -5.669291339"/><path fill="none" transform="translate(133.778149606 150.371535433)" d="M 0 0h 8.65v 10.6h -8.65v -10.6Z "/><g transform="translate(133.778149575 150.371535354)"><g transform="matrix(1 0 0 -1 2 8.58)"><use xlink:href="#g9FDA399337BA5CEE43DE6885B462BE24" x="0" y="0" fill="#000000" fill-rule="nonzero"/></g></g><path fill="none" stroke="#000000" stroke-width="0.6" stroke-linecap="butt" stroke-linejoin="miter" stroke-miterlimit="4" transform="translate(21.882677165 143.28492126)" d="M 0 0h 5.669291339"/><path fill="none" stroke="#000000" stroke-width="0.6" stroke-linecap="butt" stroke-linejoin="miter" stroke-miterlimit="4" transform="translate(21.882677165 14.437390838)" d="M 0 0h 5.669291339"/><path fill="none" transform="translate(8.980708661 9.137390838)" d="M 0 0h 8.65v 10.6h -8.65v -10.6Z "/><g transform="translate(8.98070863 9.137390759)"><g transform="matrix(1 0 0 -1 2 8.58)"><use xlink:href="#g90E80DFA2ED72D656149A2EAA0923C99" x="0" y="0" fill="#000000" fill-rule="nonzero"/></g></g><path fill="none" transform="translate(11.815354331 147.536889764)" d="M 0 0h 8.65v 10.68h -8.65v -10.68Z "/><g transform="translate(11.815354299 147.536889717)"><g transform="matrix(1 0 0 -1 2 8.58)"><use xlink:href="#g6DFAD7171EBFBAC7EAFD0C61FA59A787" x="0" y="0" fill="#000000" fill-rule="nonzero"/></g></g><path fill="none" transform="translate(170.660472441 144.702244094)" d="M 0 0h 9.72v 10.94h -9.72v -10.94Z "/><g transform="translate(170.660472441 144.702244079)"><g transform="matrix(1 0 0 -1 2 8.83)"><use xlink:href="#g8F3B43BF00419FE170D741E9CC615A47" x="0" y="0" fill="#000000" fill-rule="nonzero"/></g></g><path fill="none" d="M 0 0h 23.3v 13.31h -23.3v -13.31Z "/><g transform="translate(-1.1e-7 -1.1e-7)"><g transform="matrix(1 0 0 -1 2 8.83)"><use xlink:href="#g6517459F2F5EC831542E8F502CD2457A" x="0" y="0" fill="#000000" fill-rule="nonzero"/></g><g transform="matrix(1 0 0 -1 7.8 8.83)"><use xlink:href="#gA5379C297008FE083E855C8E8B850A03" x="0" y="0" fill="#000000" fill-rule="nonzero"/></g><g transform="matrix(1 0 0 -1 11.69 8.83)"><use xlink:href="#g8F3B43BF00419FE170D741E9CC615A47" x="0" y="0" fill="#000000" fill-rule="nonzero"/></g><g transform="matrix(1 0 0 -1 17.41 8.83)"><use xlink:href="#g62817012A814A947D74F91B268BA3C0F" x="0" y="0" fill="#000000" fill-rule="nonzero"/></g></g><path fill="none" stroke="#0074d9" stroke-width="1.2" stroke-linecap="butt" stroke-linejoin="miter" stroke-miterlimit="4" transform="translate(24.717322835 16.988742881)" d="M 0 0m 0 24.056414929l 0.566929134 -24.056414929"/><path fill="none" stroke="#0074d9" stroke-width="1.2" stroke-linecap="butt" stroke-linejoin="miter" stroke-miterlimit="4" transform="translate(25.284251969 16.988742881)" d="M 0 0l 2.976377953 12.588631875"/><path fill="none" stroke="#0074d9" stroke-width="1.2" stroke-linecap="butt" stroke-linejoin="miter" stroke-miterlimit="4" transform="translate(28.260629921 29.577374756)" d="M 0 0l 2.976377953 11.333853983"/><path fill="none" stroke="#0074d9" stroke-width="1.2" stroke-linecap="butt" stroke-linejoin="miter" stroke-miterlimit="4" transform="translate(31.237007874 40.91122874)" d="M 0 0l 2.976377953 10.204146677"/><path fill="none" stroke="#0074d9" stroke-width="1.2" stroke-linecap="butt" stroke-linejoin="miter" stroke-miterlimit="4" transform="translate(34.213385827 51.115375416)" d="M 0 0l 2.976377953 9.187043485"/><path fill="none" stroke="#0074d9" stroke-width="1.2" stroke-linecap="butt" stroke-linejoin="miter" stroke-miterlimit="4" transform="translate(37.18976378 60.302418901)" d="M 0 0l 2.976377953 8.27132054"/><path fill="none" stroke="#0074d9" stroke-width="1.2" stroke-linecap="butt" stroke-linejoin="miter" stroke-miterlimit="4" transform="translate(40.166141732 68.573739441)" d="M 0 0l 2.976377953 7.446872716"/><path fill="none" stroke="#0074d9" stroke-width="1.2" stroke-linecap="butt" stroke-linejoin="miter" stroke-miterlimit="4" transform="translate(43.142519685 76.020612157)" d="M 0 0l 2.976377953 6.704602123"/><path fill="none" stroke="#0074d9" stroke-width="1.2" stroke-linecap="butt" stroke-linejoin="miter" stroke-miterlimit="4" transform="translate(46.118897638 82.72521428)" d="M 0 0l 2.976377953 6.036317705"/><path fill="none" stroke="#0074d9" stroke-width="1.2" stroke-linecap="butt" stroke-linejoin="miter" stroke-miterlimit="4" transform="translate(49.095275591 88.761531985)" d="M 0 0l 2.976377953 5.434644856"/><path fill="none" stroke="#0074d9" stroke-width="1.2" stroke-linecap="butt" stroke-linejoin="miter" stroke-miterlimit="4" transform="translate(52.071653543 94.196176841)" d="M 0 0l 2.976377953 4.892944036"/><path fill="none" stroke="#0074d9" stroke-width="1.2" stroke-linecap="butt" stroke-linejoin="miter" stroke-miterlimit="4" transform="translate(55.048031496 99.089120877)" d="M 0 0l 2.976377953 4.405237503"/><path fill="none" stroke="#0074d9" stroke-width="1.2" stroke-linecap="butt" stroke-linejoin="miter" stroke-miterlimit="4" transform="translate(58.024409449 103.494358379)" d="M 0 0l 2.976377953 3.966143352"/><path fill="none" stroke="#0074d9" stroke-width="1.2" stroke-linecap="butt" stroke-linejoin="miter" stroke-miterlimit="4" transform="translate(61.000787402 107.460501731)" d="M 0 0l 2.976377953 3.57081612"/><path fill="none" stroke="#0074d9" stroke-width="1.2" stroke-linecap="butt" stroke-linejoin="miter" stroke-miterlimit="4" transform="translate(63.977165354 111.031317851)" d="M 0 0l 2.976377953 3.214893318"/><path fill="none" stroke="#0074d9" stroke-width="1.2" stroke-linecap="butt" stroke-linejoin="miter" stroke-miterlimit="4" transform="translate(66.953543307 114.246211169)" d="M 0 0l 2.976377953 2.894447292"/><path fill="none" stroke="#0074d9" stroke-width="1.2" stroke-linecap="butt" stroke-linejoin="miter" stroke-miterlimit="4" transform="translate(69.92992126 117.140658461)" d="M 0 0l 2.976377953 2.605941876"/><path fill="none" stroke="#0074d9" stroke-width="1.2" stroke-linecap="butt" stroke-linejoin="miter" stroke-miterlimit="4" transform="translate(72.906299213 119.746600337)" d="M 0 0l 2.976377953 2.346193376"/><path fill="none" stroke="#0074d9" stroke-width="1.2" stroke-linecap="butt" stroke-linejoin="miter" stroke-miterlimit="4" transform="translate(75.882677165 122.092793712)" d="M 0 0l 2.976377953 2.112335431"/><path fill="none" stroke="#0074d9" stroke-width="1.2" stroke-linecap="butt" stroke-linejoin="miter" stroke-miterlimit="4" transform="translate(78.859055118 124.205129143)" d="M 0 0l 2.976377953 1.901787388"/><path fill="none" stroke="#0074d9" stroke-width="1.2" stroke-linecap="butt" stroke-linejoin="miter" stroke-miterlimit="4" transform="translate(81.835433071 126.106916531)" d="M 0 0l 2.976377953 1.712225822"/><path fill="none" stroke="#0074d9" stroke-width="1.2" stroke-linecap="butt" stroke-linejoin="miter" stroke-miterlimit="4" transform="translate(84.811811024 127.819142354)" d="M 0 0l 2.976377953 1.541558896"/><path fill="none" stroke="#0074d9" stroke-width="1.2" stroke-linecap="butt" stroke-linejoin="miter" stroke-miterlimit="4" transform="translate(87.788188976 129.36070125)" d="M 0 0l 2.976377953 1.387903277"/><path fill="none" stroke="#0074d9" stroke-width="1.2" stroke-linecap="butt" stroke-linejoin="miter" stroke-miterlimit="4" transform="translate(90.764566929 130.748604527)" d="M 0 0l 2.976377953 1.249563355"/><path fill="none" stroke="#0074d9" stroke-width="1.2" stroke-linecap="butt" stroke-linejoin="miter" stroke-miterlimit="4" transform="translate(93.740944882 131.998167882)" d="M 0 0l 2.976377953 1.125012531"/><path fill="none" stroke="#0074d9" stroke-width="1.2" stroke-linecap="butt" stroke-linejoin="miter" stroke-miterlimit="4" transform="translate(96.717322835 133.123180414)" d="M 0 0l 2.976377953 1.01287637"/><path fill="none" stroke="#0074d9" stroke-width="1.2" stroke-linecap="butt" stroke-linejoin="miter" stroke-miterlimit="4" transform="translate(99.693700787 134.136056784)" d="M 0 0l 2.976377953 0.911917434"/><path fill="none" stroke="#0074d9" stroke-width="1.2" stroke-linecap="butt" stroke-linejoin="miter" stroke-miterlimit="4" transform="translate(102.67007874 135.047974218)" d="M 0 0l 2.976377953 0.821021629"/><path fill="none" stroke="#0074d9" stroke-width="1.2" stroke-linecap="butt" stroke-linejoin="miter" stroke-miterlimit="4" transform="translate(105.646456693 135.868995847)" d="M 0 0l 2.976377953 0.739185906"/><path fill="none" stroke="#0074d9" stroke-width="1.2" stroke-linecap="butt" stroke-linejoin="miter" stroke-miterlimit="4" transform="translate(108.622834646 136.608181753)" d="M 0 0l 2.976377953 0.665507198"/><path fill="none" stroke="#0074d9" stroke-width="1.2" stroke-linecap="butt" stroke-linejoin="miter" stroke-miterlimit="4" transform="translate(111.599212598 137.273688951)" d="M 0 0l 2.976377953 0.59917245"/><path fill="none" stroke="#0074d9" stroke-width="1.2" stroke-linecap="butt" stroke-linejoin="miter" stroke-miterlimit="4" transform="translate(114.575590551 137.872861401)" d="M 0 0l 2.976377953 0.53944965"/><path fill="none" stroke="#0074d9" stroke-width="1.2" stroke-linecap="butt" stroke-linejoin="miter" stroke-miterlimit="4" transform="translate(117.551968504 138.412311051)" d="M 0 0l 2.976377953 0.485679749"/><path fill="none" stroke="#0074d9" stroke-width="1.2" stroke-linecap="butt" stroke-linejoin="miter" stroke-miterlimit="4" transform="translate(120.528346457 138.8979908)" d="M 0 0l 2.976377953 0.437269388"/><path fill="none" stroke="#0074d9" stroke-width="1.2" stroke-linecap="butt" stroke-linejoin="miter" stroke-miterlimit="4" transform="translate(123.504724409 139.335260188)" d="M 0 0l 2.976377953 0.393684353"/><path fill="none" stroke="#0074d9" stroke-width="1.2" stroke-linecap="butt" stroke-linejoin="miter" stroke-miterlimit="4" transform="translate(126.481102362 139.728944541)" d="M 0 0l 2.976377953 0.354443677"/><path fill="none" stroke="#0074d9" stroke-width="1.2" stroke-linecap="butt" stroke-linejoin="miter" stroke-miterlimit="4" transform="translate(129.457480315 140.083388218)" d="M 0 0l 2.976377953 0.319114334"/><path fill="none" stroke="#0074d9" stroke-width="1.2" stroke-linecap="butt" stroke-linejoin="miter" stroke-miterlimit="4" transform="translate(132.433858268 140.402502553)" d="M 0 0l 2.976377953 0.287306461"/><path fill="none" stroke="#0074d9" stroke-width="1.2" stroke-linecap="butt" stroke-linejoin="miter" stroke-miterlimit="4" transform="translate(135.41023622 140.689809013)" d="M 0 0l 2.976377953 0.258669052"/><path fill="none" stroke="#0074d9" stroke-width="1.2" stroke-linecap="butt" stroke-linejoin="miter" stroke-miterlimit="4" transform="translate(138.386614173 140.948478065)" d="M 0 0l 2.976377953 0.232886091"/><path fill="none" stroke="#0074d9" stroke-width="1.2" stroke-linecap="butt" stroke-linejoin="miter" stroke-miterlimit="4" transform="translate(141.362992126 141.181364156)" d="M 0 0l 2.976377953 0.209673059"/><path fill="none" stroke="#0074d9" stroke-width="1.2" stroke-linecap="butt" stroke-linejoin="miter" stroke-miterlimit="4" transform="translate(144.339370079 141.391037215)" d="M 0 0l 2.976377953 0.188773796"/><path fill="none" stroke="#0074d9" stroke-width="1.2" stroke-linecap="butt" stroke-linejoin="miter" stroke-miterlimit="4" transform="translate(147.315748031 141.579811011)" d="M 0 0l 2.976377953 0.169957678"/><path fill="none" stroke="#0074d9" stroke-width="1.2" stroke-linecap="butt" stroke-linejoin="miter" stroke-miterlimit="4" transform="translate(150.292125984 141.749768689)" d="M 0 0l 2.976377953 0.153017065"/><path fill="none" stroke="#0074d9" stroke-width="1.2" stroke-linecap="butt" stroke-linejoin="miter" stroke-miterlimit="4" transform="translate(153.268503937 141.902785755)" d="M 0 0l 2.976377953 0.137765016"/><path fill="none" stroke="#0074d9" stroke-width="1.2" stroke-linecap="butt" stroke-linejoin="miter" stroke-miterlimit="4" transform="translate(156.24488189 142.040550771)" d="M 0 0l 2.976377953 0.124033223"/><path fill="none" stroke="#0074d9" stroke-width="1.2" stroke-linecap="butt" stroke-linejoin="miter" stroke-miterlimit="4" transform="translate(159.221259843 142.164583994)" d="M 0 0l 2.976377953 0.111670152"/><path fill="none" stroke="#0074d9" stroke-width="1.2" stroke-linecap="butt" stroke-linejoin="miter" stroke-miterlimit="4" transform="translate(162.197637795 142.276254145)" d="M 0 0l 2.976377953 0.100539376"/><path fill="none" stroke="#0074d9" stroke-width="1.2" stroke-linecap="butt" stroke-linejoin="miter" stroke-miterlimit="4" transform="translate(165.174015748 142.376793522)" d="M 0 0l 1.275590551 0.038793457"/></g><g transform="translate(208.726929134 17.007874016)"><path fill="none" stroke="#000000" stroke-width="0.8" stroke-linecap="butt" stroke-linejoin="miter" stroke-miterlimit="4" transform="translate(26.687322835 143.28492126)" d="M 0 0h 152.427728634"/><path fill="#000000" fill-rule="nonzero" stroke="#000000" stroke-width="0.8" stroke-linecap="butt" stroke-linejoin="miter" stroke-miterlimit="4" stroke-dashoffset="0" stroke-dasharray="" transform="translate(178.335523909 142.115629921)" d="M 0 0m 3.118110236 1.169291339l -3.118110236 -1.169291339l 0.779527559 1.169291339l -0.779527559 1.169291339l 3.118110236 -1.169291339Z "/><path fill="none" stroke="#000000" stroke-width="0.8" stroke-linecap="butt" stroke-linejoin="miter" stroke-miterlimit="4" transform="translate(26.687322835 5.030420972)" d="M 0 0m 0 138.254500288v -138.254500288"/><path fill="#000000" fill-rule="nonzero" stroke="#000000" stroke-width="0.8" stroke-linecap="butt" stroke-linejoin="miter" stroke-miterlimit="4" stroke-dashoffset="0" stroke-dasharray="" transform="translate(25.518031496 2.691838296)" d="M 0 0m 1.169291339 0l -1.169291339 3.118110236l 1.169291339 -0.779527559l 1.169291339 0.779527559l -1.169291339 -3.118110236Z "/><path fill="none" stroke="#000000" stroke-width="0.6" stroke-linecap="butt" stroke-linejoin="miter" stroke-miterlimit="4" transform="translate(26.687322835 140.450275591)" d="M 0 0m 0 5.669291339v -5.669291339"/><path fill="none" stroke="#000000" stroke-width="0.6" stroke-linecap="butt" stroke-linejoin="miter" stroke-miterlimit="4" transform="translate(55.033779528 140.450275591)" d="M 0 0m 0 5.669291339v -5.669291339"/><path fill="none" transform="translate(50.708779528 150.371535433)" d="M 0 0h 8.65v 10.6h -8.65v -10.6Z "/><g transform="translate(50.708779496 150.371535354)"><g transform="matrix(1 0 0 -1 2 8.58)"><use xlink:href="#g90E80DFA2ED72D656149A2EAA0923C99" x="0" y="0" fill="#000000" fill-rule="nonzero"/></g></g><path fill="none" stroke="#000000" stroke-width="0.6" stroke-linecap="butt" stroke-linejoin="miter" stroke-miterlimit="4" transform="translate(83.38023622 140.450275591)" d="M 0 0m 0 5.669291339v -5.669291339"/><path fill="none" transform="translate(79.05523622 150.371535433)" d="M 0 0h 8.65v 10.6h -8.65v -10.6Z "/><g transform="translate(79.055236189 150.371535354)"><g transform="matrix(1 0 0 -1 2 8.58)"><use xlink:href="#gD51D1BA75A4578B9DA0C9BBB90D056B7" x="0" y="0" fill="#000000" fill-rule="nonzero"/></g></g><path fill="none" stroke="#000000" stroke-width="0.6" stroke-linecap="butt" stroke-linejoin="miter" stroke-miterlimit="4" transform="translate(111.726692913 140.450275591)" d="M 0 0m 0 5.669291339v -5.669291339"/><path fill="none" transform="translate(107.401692913 150.371535433)" d="M 0 0h 8.65v 10.68h -8.65v -10.68Z "/><g transform="translate(107.401692882 150.371535386)"><g transform="matrix(1 0 0 -1 2 8.58)"><use xlink:href="#gEC79FC52D225D04391F52749EE46159D" x="0" y="0" fill="#000000" fill-rule="nonzero"/></g></g><path fill="none" stroke="#000000" stroke-width="0.6" stroke-linecap="butt" stroke-linejoin="miter" stroke-miterlimit="4" transform="translate(140.073149606 140.450275591)" d="M 0 0m 0 5.669291339v -5.669291339"/><path fill="none" transform="translate(135.748149606 150.371535433)" d="M 0 0h 8.65v 10.6h -8.65v -10.6Z "/><g transform="translate(135.748149575 150.371535354)"><g transform="matrix(1 0 0 -1 2 8.58)"><use xlink:href="#g9FDA399337BA5CEE43DE6885B462BE24" x="0" y="0" fill="#000000" fill-rule="nonzero"/></g></g><path fill="none" stroke="#000000" stroke-width="0.6" stroke-linecap="butt" stroke-linejoin="miter" stroke-miterlimit="4" transform="translate(23.852677165 143.28492126)" d="M 0 0h 5.669291339"/><path fill="none" stroke="#000000" stroke-width="0.6" stroke-linecap="butt" stroke-linejoin="miter" stroke-miterlimit="4" transform="translate(23.852677165 14.437390838)" d="M 0 0h 5.669291339"/><path fill="none" transform="translate(10.950708661 9.137390838)" d="M 0 0h 8.65v 10.6h -8.65v -10.6Z "/><g transform="translate(10.95070863 9.137390759)"><g transform="matrix(1 0 0 -1 2 8.58)"><use xlink:href="#g90E80DFA2ED72D656149A2EAA0923C99" x="0" y="0" fill="#000000" fill-rule="nonzero"/></g></g><path fill="none" transform="translate(13.785354331 147.536889764)" d="M 0 0h 8.65v 10.68h -8.65v -10.68Z "/><g transform="translate(13.785354299 147.536889717)"><g transform="matrix(1 0 0 -1 2 8.58)"><use xlink:href="#g6DFAD7171EBFBAC7EAFD0C61FA59A787" x="0" y="0" fill="#000000" fill-rule="nonzero"/></g></g><path fill="none" transform="translate(172.630472441 144.702244094)" d="M 0 0h 9.72v 10.94h -9.72v -10.94Z "/><g transform="translate(172.630472441 144.702244079)"><g transform="matrix(1 0 0 -1 2 8.83)"><use xlink:href="#g8F3B43BF00419FE170D741E9CC615A47" x="0" y="0" fill="#000000" fill-rule="nonzero"/></g></g><path fill="none" d="M 0 0h 25.27v 13.31h -25.27v -13.31Z "/><g transform="translate(-7.9e-8 -1.1e-7)"><g transform="matrix(1 0 0 -1 2 8.83)"><use xlink:href="#g3CFE6150D025C9FE5B65497FBD971DC1" x="0" y="0" fill="#000000" fill-rule="nonzero"/></g><g transform="matrix(1 0 0 -1 9.77 8.83)"><use xlink:href="#gA5379C297008FE083E855C8E8B850A03" x="0" y="0" fill="#000000" fill-rule="nonzero"/></g><g transform="matrix(1 0 0 -1 13.66 8.83)"><use xlink:href="#g8F3B43BF00419FE170D741E9CC615A47" x="0" y="0" fill="#000000" fill-rule="nonzero"/></g><g transform="matrix(1 0 0 -1 19.38 8.83)"><use xlink:href="#g62817012A814A947D74F91B268BA3C0F" x="0" y="0" fill="#000000" fill-rule="nonzero"/></g></g><path fill="none" stroke="#0074d9" stroke-width="1.2" stroke-linecap="butt" stroke-linejoin="miter" stroke-miterlimit="4" transform="translate(26.687322835 140.733569216)" d="M 0 0m 0 0.485971818l 0.566929134 -0.485971818"/><path fill="none" stroke="#0074d9" stroke-width="1.2" stroke-linecap="butt" stroke-linejoin="miter" stroke-miterlimit="4" transform="translate(27.254251969 128.144937341)" d="M 0 0m 0 12.588631875l 2.976377953 -12.588631875"/><path fill="none" stroke="#0074d9" stroke-width="1.2" stroke-linecap="butt" stroke-linejoin="miter" stroke-miterlimit="4" transform="translate(30.230629921 116.811083358)" d="M 0 0m 0 11.333853983l 2.976377953 -11.333853983"/><path fill="none" stroke="#0074d9" stroke-width="1.2" stroke-linecap="butt" stroke-linejoin="miter" stroke-miterlimit="4" transform="translate(33.207007874 106.606936681)" d="M 0 0m 0 10.204146677l 2.976377953 -10.204146677"/><path fill="none" stroke="#0074d9" stroke-width="1.2" stroke-linecap="butt" stroke-linejoin="miter" stroke-miterlimit="4" transform="translate(36.183385827 97.419893196)" d="M 0 0m 0 9.187043485l 2.976377953 -9.187043485"/><path fill="none" stroke="#0074d9" stroke-width="1.2" stroke-linecap="butt" stroke-linejoin="miter" stroke-miterlimit="4" transform="translate(39.15976378 89.148572657)" d="M 0 0m 0 8.27132054l 2.976377953 -8.27132054"/><path fill="none" stroke="#0074d9" stroke-width="1.2" stroke-linecap="butt" stroke-linejoin="miter" stroke-miterlimit="4" transform="translate(42.136141732 81.701699941)" d="M 0 0m 0 7.446872716l 2.976377953 -7.446872716"/><path fill="none" stroke="#0074d9" stroke-width="1.2" stroke-linecap="butt" stroke-linejoin="miter" stroke-miterlimit="4" transform="translate(45.112519685 74.997097818)" d="M 0 0m 0 6.704602123l 2.976377953 -6.704602123"/><path fill="none" stroke="#0074d9" stroke-width="1.2" stroke-linecap="butt" stroke-linejoin="miter" stroke-miterlimit="4" transform="translate(48.088897638 68.960780113)" d="M 0 0m 0 6.036317705l 2.976377953 -6.036317705"/><path fill="none" stroke="#0074d9" stroke-width="1.2" stroke-linecap="butt" stroke-linejoin="miter" stroke-miterlimit="4" transform="translate(51.065275591 63.526135256)" d="M 0 0m 0 5.434644856l 2.976377953 -5.434644856"/><path fill="none" stroke="#0074d9" stroke-width="1.2" stroke-linecap="butt" stroke-linejoin="miter" stroke-miterlimit="4" transform="translate(54.041653543 58.633191221)" d="M 0 0m 0 4.892944036l 2.976377953 -4.892944036"/><path fill="none" stroke="#0074d9" stroke-width="1.2" stroke-linecap="butt" stroke-linejoin="miter" stroke-miterlimit="4" transform="translate(57.018031496 54.227953718)" d="M 0 0m 0 4.405237503l 2.976377953 -4.405237503"/><path fill="none" stroke="#0074d9" stroke-width="1.2" stroke-linecap="butt" stroke-linejoin="miter" stroke-miterlimit="4" transform="translate(59.994409449 50.261810366)" d="M 0 0m 0 3.966143352l 2.976377953 -3.966143352"/><path fill="none" stroke="#0074d9" stroke-width="1.2" stroke-linecap="butt" stroke-linejoin="miter" stroke-miterlimit="4" transform="translate(62.970787402 46.690994247)" d="M 0 0m 0 3.57081612l 2.976377953 -3.57081612"/><path fill="none" stroke="#0074d9" stroke-width="1.2" stroke-linecap="butt" stroke-linejoin="miter" stroke-miterlimit="4" transform="translate(65.947165354 43.476100928)" d="M 0 0m 0 3.214893318l 2.976377953 -3.214893318"/><path fill="none" stroke="#0074d9" stroke-width="1.2" stroke-linecap="butt" stroke-linejoin="miter" stroke-miterlimit="4" transform="translate(68.923543307 40.581653637)" d="M 0 0m 0 2.894447292l 2.976377953 -2.894447292"/><path fill="none" stroke="#0074d9" stroke-width="1.2" stroke-linecap="butt" stroke-linejoin="miter" stroke-miterlimit="4" transform="translate(71.89992126 37.975711761)" d="M 0 0m 0 2.605941876l 2.976377953 -2.605941876"/><path fill="none" stroke="#0074d9" stroke-width="1.2" stroke-linecap="butt" stroke-linejoin="miter" stroke-miterlimit="4" transform="translate(74.876299213 35.629518385)" d="M 0 0m 0 2.346193376l 2.976377953 -2.346193376"/><path fill="none" stroke="#0074d9" stroke-width="1.2" stroke-linecap="butt" stroke-linejoin="miter" stroke-miterlimit="4" transform="translate(77.852677165 33.517182954)" d="M 0 0m 0 2.112335431l 2.976377953 -2.112335431"/><path fill="none" stroke="#0074d9" stroke-width="1.2" stroke-linecap="butt" stroke-linejoin="miter" stroke-miterlimit="4" transform="translate(80.829055118 31.615395566)" d="M 0 0m 0 1.901787388l 2.976377953 -1.901787388"/><path fill="none" stroke="#0074d9" stroke-width="1.2" stroke-linecap="butt" stroke-linejoin="miter" stroke-miterlimit="4" transform="translate(83.805433071 29.903169744)" d="M 0 0m 0 1.712225822l 2.976377953 -1.712225822"/><path fill="none" stroke="#0074d9" stroke-width="1.2" stroke-linecap="butt" stroke-linejoin="miter" stroke-miterlimit="4" transform="translate(86.781811024 28.361610848)" d="M 0 0m 0 1.541558896l 2.976377953 -1.541558896"/><path fill="none" stroke="#0074d9" stroke-width="1.2" stroke-linecap="butt" stroke-linejoin="miter" stroke-miterlimit="4" transform="translate(89.758188976 26.973707571)" d="M 0 0m 0 1.387903277l 2.976377953 -1.387903277"/><path fill="none" stroke="#0074d9" stroke-width="1.2" stroke-linecap="butt" stroke-linejoin="miter" stroke-miterlimit="4" transform="translate(92.734566929 25.724144215)" d="M 0 0m 0 1.249563355l 2.976377953 -1.249563355"/><path fill="none" stroke="#0074d9" stroke-width="1.2" stroke-linecap="butt" stroke-linejoin="miter" stroke-miterlimit="4" transform="translate(95.710944882 24.599131684)" d="M 0 0m 0 1.125012531l 2.976377953 -1.125012531"/><path fill="none" stroke="#0074d9" stroke-width="1.2" stroke-linecap="butt" stroke-linejoin="miter" stroke-miterlimit="4" transform="translate(98.687322835 23.586255314)" d="M 0 0m 0 1.01287637l 2.976377953 -1.01287637"/><path fill="none" stroke="#0074d9" stroke-width="1.2" stroke-linecap="butt" stroke-linejoin="miter" stroke-miterlimit="4" transform="translate(101.663700787 22.674337879)" d="M 0 0m 0 0.911917434l 2.976377953 -0.911917434"/><path fill="none" stroke="#0074d9" stroke-width="1.2" stroke-linecap="butt" stroke-linejoin="miter" stroke-miterlimit="4" transform="translate(104.64007874 21.85331625)" d="M 0 0m 0 0.821021629l 2.976377953 -0.821021629"/><path fill="none" stroke="#0074d9" stroke-width="1.2" stroke-linecap="butt" stroke-linejoin="miter" stroke-miterlimit="4" transform="translate(107.616456693 21.114130344)" d="M 0 0m 0 0.739185906l 2.976377953 -0.739185906"/><path fill="none" stroke="#0074d9" stroke-width="1.2" stroke-linecap="butt" stroke-linejoin="miter" stroke-miterlimit="4" transform="translate(110.592834646 20.448623146)" d="M 0 0m 0 0.665507198l 2.976377953 -0.665507198"/><path fill="none" stroke="#0074d9" stroke-width="1.2" stroke-linecap="butt" stroke-linejoin="miter" stroke-miterlimit="4" transform="translate(113.569212598 19.849450696)" d="M 0 0m 0 0.59917245l 2.976377953 -0.59917245"/><path fill="none" stroke="#0074d9" stroke-width="1.2" stroke-linecap="butt" stroke-linejoin="miter" stroke-miterlimit="4" transform="translate(116.545590551 19.310001046)" d="M 0 0m 0 0.53944965l 2.976377953 -0.53944965"/><path fill="none" stroke="#0074d9" stroke-width="1.2" stroke-linecap="butt" stroke-linejoin="miter" stroke-miterlimit="4" transform="translate(119.521968504 18.824321297)" d="M 0 0m 0 0.485679749l 2.976377953 -0.485679749"/><path fill="none" stroke="#0074d9" stroke-width="1.2" stroke-linecap="butt" stroke-linejoin="miter" stroke-miterlimit="4" transform="translate(122.498346457 18.387051909)" d="M 0 0m 0 0.437269388l 2.976377953 -0.437269388"/><path fill="none" stroke="#0074d9" stroke-width="1.2" stroke-linecap="butt" stroke-linejoin="miter" stroke-miterlimit="4" transform="translate(125.474724409 17.993367556)" d="M 0 0m 0 0.393684353l 2.976377953 -0.393684353"/><path fill="none" stroke="#0074d9" stroke-width="1.2" stroke-linecap="butt" stroke-linejoin="miter" stroke-miterlimit="4" transform="translate(128.451102362 17.638923879)" d="M 0 0m 0 0.354443677l 2.976377953 -0.354443677"/><path fill="none" stroke="#0074d9" stroke-width="1.2" stroke-linecap="butt" stroke-linejoin="miter" stroke-miterlimit="4" transform="translate(131.427480315 17.319809545)" d="M 0 0m 0 0.319114334l 2.976377953 -0.319114334"/><path fill="none" stroke="#0074d9" stroke-width="1.2" stroke-linecap="butt" stroke-linejoin="miter" stroke-miterlimit="4" transform="translate(134.403858268 17.032503084)" d="M 0 0m 0 0.287306461l 2.976377953 -0.287306461"/><path fill="none" stroke="#0074d9" stroke-width="1.2" stroke-linecap="butt" stroke-linejoin="miter" stroke-miterlimit="4" transform="translate(137.38023622 16.773834032)" d="M 0 0m 0 0.258669052l 2.976377953 -0.258669052"/><path fill="none" stroke="#0074d9" stroke-width="1.2" stroke-linecap="butt" stroke-linejoin="miter" stroke-miterlimit="4" transform="translate(140.356614173 16.540947941)" d="M 0 0m 0 0.232886091l 2.976377953 -0.232886091"/><path fill="none" stroke="#0074d9" stroke-width="1.2" stroke-linecap="butt" stroke-linejoin="miter" stroke-miterlimit="4" transform="translate(143.332992126 16.331274883)" d="M 0 0m 0 0.209673059l 2.976377953 -0.209673059"/><path fill="none" stroke="#0074d9" stroke-width="1.2" stroke-linecap="butt" stroke-linejoin="miter" stroke-miterlimit="4" transform="translate(146.309370079 16.142501086)" d="M 0 0m 0 0.188773796l 2.976377953 -0.188773796"/><path fill="none" stroke="#0074d9" stroke-width="1.2" stroke-linecap="butt" stroke-linejoin="miter" stroke-miterlimit="4" transform="translate(149.285748031 15.972543408)" d="M 0 0m 0 0.169957678l 2.976377953 -0.169957678"/><path fill="none" stroke="#0074d9" stroke-width="1.2" stroke-linecap="butt" stroke-linejoin="miter" stroke-miterlimit="4" transform="translate(152.262125984 15.819526343)" d="M 0 0m 0 0.153017065l 2.976377953 -0.153017065"/><path fill="none" stroke="#0074d9" stroke-width="1.2" stroke-linecap="butt" stroke-linejoin="miter" stroke-miterlimit="4" transform="translate(155.238503937 15.681761326)" d="M 0 0m 0 0.137765016l 2.976377953 -0.137765016"/><path fill="none" stroke="#0074d9" stroke-width="1.2" stroke-linecap="butt" stroke-linejoin="miter" stroke-miterlimit="4" transform="translate(158.21488189 15.557728104)" d="M 0 0m 0 0.124033223l 2.976377953 -0.124033223"/><path fill="none" stroke="#0074d9" stroke-width="1.2" stroke-linecap="butt" stroke-linejoin="miter" stroke-miterlimit="4" transform="translate(161.191259843 15.446057952)" d="M 0 0m 0 0.111670152l 2.976377953 -0.111670152"/><path fill="none" stroke="#0074d9" stroke-width="1.2" stroke-linecap="butt" stroke-linejoin="miter" stroke-miterlimit="4" transform="translate(164.167637795 15.345518576)" d="M 0 0m 0 0.100539376l 2.976377953 -0.100539376"/><path fill="none" stroke="#0074d9" stroke-width="1.2" stroke-linecap="butt" stroke-linejoin="miter" stroke-miterlimit="4" transform="translate(167.144015748 15.306725119)" d="M 0 0m 0 0.038793457l 1.275590551 -0.038793457"/></g><defs><symbol id="g90E80DFA2ED72D656149A2EAA0923C99" overflow="visible"><path d="M 0 0m 2.88 1.22v 3.47c 0 0.6 0.01 1.21 0.03 1.34c 0 0.05 -0.02 0.05 -0.06 0.05c -0.55 -0.34 -1.08 -0.59 -1.96 -1c 0.02 -0.11 0.06 -0.21 0.15 -0.27c 0.46 0.19 0.68 0.25 0.87 0.25c 0.17 0 0.2 -0.24 0.2 -0.58v -3.26c 0 -0.83 -0.27 -0.88 -0.97 -0.91c -0.06 -0.06 -0.06 -0.27 0 -0.33c 0.49 0.01 0.85 0.02 1.39 0.02c 0.48 0 0.72 -0.01 1.22 -0.02c 0.06 0.06 0.06 0.27 0 0.33c -0.7 0.03 -0.87 0.08 -0.87 0.91Z "/></symbol><symbol id="gD51D1BA75A4578B9DA0C9BBB90D056B7" overflow="visible"><path d="M 0 0m 0.61 4.68c 0 -0.21 0.19 -0.39 0.4 -0.39c 0.17 0 0.47 0.18 0.47 0.4c 0 0.08 -0.02 0.14 -0.04 0.21c -0.02 0.07 -0.08 0.16 -0.08 0.24c 0 0.25 0.26 0.61 0.99 0.61c 0.36 0 0.87 -0.25 0.87 -1.21c 0 -0.64 -0.23 -1.16 -0.82 -1.76l -0.74 -0.73c -0.98 -1 -1.14 -1.48 -1.14 -2.07c 0 0 0.51 0.02 0.83 0.02h 1.75c 0.32 0 0.78 -0.02 0.78 -0.02c 0.13 0.53 0.23 1.28 0.24 1.58c -0.06 0.05 -0.19 0.07 -0.29 0.05c -0.17 -0.71 -0.34 -0.96 -0.7 -0.96h -1.78c 0 0.48 0.69 1.16 0.74 1.21l 1.01 0.97c 0.57 0.55 1 0.99 1 1.75c 0 1.08 -0.88 1.52 -1.69 1.52c -1.11 0 -1.8 -0.82 -1.8 -1.42Z "/></symbol><symbol id="gEC79FC52D225D04391F52749EE46159D" overflow="visible"><path d="M 0 0m 2.15 5.75c 0.43 0 0.83 -0.26 0.83 -0.9c 0 -0.5 -0.58 -1.27 -1.57 -1.41l 0.05 -0.32c 0.17 0.02 0.35 0.02 0.48 0.02c 0.57 0 1.31 -0.16 1.31 -1.29c 0 -1.33 -0.89 -1.6 -1.24 -1.6c -0.51 0 -0.6 0.23 -0.72 0.41c -0.1 0.14 -0.23 0.26 -0.43 0.26c -0.21 0 -0.42 -0.19 -0.42 -0.35c 0 -0.4 0.84 -0.67 1.44 -0.67c 1.19 0 2.25 0.77 2.25 2.09c 0 1.09 -0.82 1.48 -1.41 1.58l -0.01 0.02c 0.82 0.39 1.05 0.8 1.05 1.33c 0 0.3 -0.07 0.54 -0.31 0.79c -0.22 0.22 -0.57 0.39 -1.09 0.39c -1.47 0 -1.89 -0.96 -1.89 -1.29c 0 -0.14 0.1 -0.34 0.34 -0.34c 0.35 0 0.39 0.33 0.39 0.52c 0 0.64 0.69 0.76 0.95 0.76Z "/></symbol><symbol id="g9FDA399337BA5CEE43DE6885B462BE24" overflow="visible"><path d="M 0 0m 4.3 2.19h -0.83v 2.92c 0 0.5 0 0.89 0.02 0.97l -0.02 0.02h -0.32c -0.07 0 -0.12 -0.06 -0.16 -0.11c -0.63 -0.77 -1.79 -2.42 -2.71 -3.85c 0.03 -0.15 0.09 -0.42 0.39 -0.42h 2.04v -0.92c 0 -0.46 -0.38 -0.46 -0.81 -0.49c -0.06 -0.06 -0.06 -0.27 0 -0.33c 0.32 0.01 0.72 0.02 1.18 0.02c 0.39 0 0.77 -0.01 1.09 -0.02c 0.06 0.06 0.06 0.27 0 0.33c -0.49 0.04 -0.7 0.02 -0.7 0.49v 0.92h 0.69c 0.14 0 0.29 0.19 0.29 0.31c 0 0.1 -0.04 0.16 -0.15 0.16Z m -1.59 2.88v -2.88h -1.91c 0.51 0.82 1.22 1.94 1.91 2.88Z "/></symbol><symbol id="g6DFAD7171EBFBAC7EAFD0C61FA59A787" overflow="visible"><path d="M 0 0m 2.28 -0.1c 0.77 0 1.94 0.78 1.94 3.13c 0 0.99 -0.24 1.84 -0.68 2.42c -0.26 0.35 -0.68 0.65 -1.22 0.65c -0.99 0 -1.93 -1.18 -1.93 -3.16c 0 -1.07 0.33 -2.07 0.88 -2.62c 0.28 -0.28 0.62 -0.42 1.01 -0.42Z m 0.04 5.85c 0.17 0 0.33 -0.06 0.45 -0.17c 0.31 -0.26 0.58 -1.02 0.58 -2.36c 0 -0.92 -0.03 -1.55 -0.17 -2.06c -0.22 -0.82 -0.71 -0.91 -0.89 -0.91c -0.93 0 -1.03 1.71 -1.03 2.58c 0 2.46 0.61 2.92 1.06 2.92Z "/></symbol><symbol id="g8F3B43BF00419FE170D741E9CC615A47" overflow="visible"><path d="M 0 0m 5.27 3.73c 0 0.46 -0.45 0.69 -0.95 0.69c -0.43 0 -0.77 -0.23 -1.03 -0.69c -0.21 0.46 -0.56 0.69 -1.07 0.69c -0.49 0 -0.89 -0.23 -1.21 -0.68c -0.27 -0.39 -0.41 -0.68 -0.41 -0.87c 0 -0.09 0.05 -0.14 0.15 -0.14c 0.09 0 0.15 0.05 0.17 0.14c 0.19 0.58 0.61 1.26 1.28 1.26c 0.33 0 0.49 -0.21 0.49 -0.62c 0 -0.21 -0.18 -0.99 -0.53 -2.33c -0.17 -0.67 -0.47 -1 -0.9 -1c -0.14 0 -0.27 0.03 -0.38 0.08c 0.26 0.1 0.39 0.28 0.39 0.54c 0 0.26 -0.13 0.39 -0.4 0.39c -0.33 0 -0.58 -0.28 -0.58 -0.61c 0 -0.46 0.47 -0.69 0.96 -0.69c 0.42 0 0.76 0.23 1.03 0.69c 0.19 -0.46 0.55 -0.69 1.07 -0.69c 0.48 0 0.88 0.23 1.2 0.68c 0.27 0.39 0.41 0.68 0.41 0.87c 0 0.09 -0.05 0.14 -0.15 0.14c -0.09 0 -0.14 -0.05 -0.17 -0.14c -0.17 -0.57 -0.62 -1.26 -1.27 -1.26c -0.33 0 -0.5 0.2 -0.5 0.61c 0 0.13 0.05 0.41 0.16 0.86l 0.34 1.35c 0.19 0.75 0.5 1.13 0.94 1.13c 0.14 0 0.27 -0.03 0.38 -0.08c -0.27 -0.09 -0.4 -0.27 -0.4 -0.54c 0 -0.26 0.14 -0.39 0.41 -0.39c 0.32 0 0.57 0.29 0.57 0.61Z "/></symbol><symbol id="g6517459F2F5EC831542E8F502CD2457A" overflow="visible"><path d="M 0 0m 5.52 6.33c 0 0.44 -0.43 0.72 -0.9 0.72c -0.62 0 -1.05 -0.4 -1.28 -1.19c -0.05 -0.18 -0.16 -0.69 -0.32 -1.53h -0.65c -0.22 0 -0.33 -0.01 -0.33 -0.22c 0 -0.11 0.1 -0.16 0.31 -0.16h 0.6l -0.73 -3.87c -0.11 -0.57 -0.21 -0.99 -0.3 -1.27c -0.12 -0.37 -0.29 -0.56 -0.51 -0.56c -0.15 0 -0.27 0.04 -0.38 0.11c 0.32 0.05 0.48 0.24 0.48 0.56c 0 0.26 -0.13 0.39 -0.4 0.39c -0.34 0 -0.58 -0.3 -0.58 -0.64c 0 -0.44 0.41 -0.72 0.88 -0.72c 0.25 0 0.48 0.1 0.67 0.31c 0.32 0.33 0.57 0.8 0.75 1.43c 0.11 0.39 0.21 0.77 0.28 1.15l 0.58 3.11h 0.82c 0.23 0 0.33 0.01 0.33 0.24c 0 0.09 -0.1 0.14 -0.3 0.14h -0.77c 0.06 0.41 0.34 1.92 0.43 2.11c 0.1 0.21 0.24 0.31 0.42 0.31c 0.15 0 0.28 -0.04 0.39 -0.11c -0.31 -0.07 -0.47 -0.25 -0.47 -0.56c 0 -0.26 0.13 -0.39 0.4 -0.39c 0.34 0 0.58 0.3 0.58 0.64Z "/></symbol><symbol id="gA5379C297008FE083E855C8E8B850A03" overflow="visible"><path d="M 0 0m 3.18 -2.48c 0.09 0 0.14 0.05 0.14 0.14c 0 0.03 -0.02 0.07 -0.05 0.11c -0.52 0.4 -0.94 1.06 -1.25 1.97c -0.27 0.79 -0.41 1.57 -0.41 2.34v 0.84c 0 0.77 0.14 1.55 0.41 2.34c 0.31 0.91 0.73 1.57 1.25 1.97c 0.03 0.03 0.05 0.07 0.05 0.11c 0 0.09 -0.05 0.14 -0.14 0.14c -0.01 0 -0.04 -0.01 -0.07 -0.03c -0.6 -0.46 -1.1 -1.14 -1.51 -2.05c -0.39 -0.87 -0.59 -1.69 -0.59 -2.48v -0.84c 0 -0.79 0.2 -1.61 0.59 -2.48c 0.41 -0.91 0.91 -1.59 1.51 -2.05c 0.03 -0.02 0.06 -0.03 0.07 -0.03Z "/></symbol><symbol id="g62817012A814A947D74F91B268BA3C0F" overflow="visible"><path d="M 0 0m 0.78 -2.45c 0.6 0.46 1.1 1.14 1.51 2.05c 0.39 0.87 0.59 1.69 0.59 2.48v 0.84c 0 0.79 -0.2 1.61 -0.59 2.48c -0.41 0.91 -0.91 1.59 -1.51 2.05c -0.03 0.02 -0.06 0.03 -0.07 0.03c -0.09 0 -0.14 -0.05 -0.14 -0.14c 0 -0.04 0.02 -0.08 0.05 -0.11c 0.52 -0.4 0.94 -1.06 1.25 -1.97c 0.27 -0.79 0.41 -1.57 0.41 -2.34v -0.84c 0 -0.77 -0.14 -1.55 -0.41 -2.34c -0.31 -0.91 -0.73 -1.57 -1.25 -1.97c -0.03 -0.04 -0.05 -0.08 -0.05 -0.11c 0 -0.09 0.05 -0.14 0.14 -0.14c 0.01 0 0.04 0.01 0.07 0.03Z "/></symbol><symbol id="g3CFE6150D025C9FE5B65497FBD971DC1" overflow="visible"><path d="M 0 0m 1.99 6.56c 0 -0.1 0.11 -0.15 0.32 -0.15c 0.4 0 0.6 -0.04 0.6 -0.13c 0 -0.03 -0.02 -0.1 -0.05 -0.23l -1.3 -5.23c -0.06 -0.22 -0.16 -0.35 -0.3 -0.4c -0.07 -0.02 -0.25 -0.03 -0.56 -0.03c -0.22 0 -0.32 -0.02 -0.32 -0.23c 0 -0.11 0.06 -0.16 0.19 -0.16l 1.3 0.03l 1.48 -0.03c 0.16 0 0.24 0.08 0.24 0.23c 0 0.17 -0.11 0.16 -0.37 0.16c -0.44 0 -0.69 0.02 -0.75 0.07c -0.03 0.01 -0.04 0.05 -0.04 0.1l 0.64 2.65h 0.93c 0.46 0 0.78 -0.02 0.78 -0.4c 0 -0.13 -0.02 -0.29 -0.07 -0.48c -0.01 -0.03 -0.02 -0.07 -0.03 -0.11c 0 -0.11 0.05 -0.16 0.16 -0.16c 0.05 0.01 0.12 0.08 0.19 0.23l 0.54 2.15c 0.02 0.08 0.03 0.14 0.03 0.17c -0.03 0.09 -0.09 0.14 -0.16 0.14c -0.08 0 -0.14 -0.08 -0.18 -0.23c -0.1 -0.38 -0.24 -0.62 -0.4 -0.74c -0.16 -0.12 -0.44 -0.18 -0.84 -0.18h -0.85l 0.62 2.46c 0.08 0.34 0.08 0.35 0.5 0.35h 1.3c 0.97 0 1.41 -0.15 1.41 -1.04c 0 -0.2 -0.01 -0.38 -0.03 -0.53c -0.01 -0.11 -0.02 -0.17 -0.02 -0.18c 0 -0.11 0.05 -0.16 0.15 -0.16c 0.1 0 0.16 0.09 0.18 0.28l 0.2 1.71c 0.03 0.28 -0.04 0.31 -0.31 0.31h -4.84c -0.23 0 -0.34 -0.01 -0.34 -0.24Z "/></symbol></defs></svg>