<svg viewBox="0 0 391.54984252 195.097283465" width="391.54984252pt" height="195.097283465pt" xmlns="http://www.w3.org/2000/svg" xmlns:xlink="http://www.w3.org/1999/xlink" xmlns:h5="http://www.w3.org/1999/xhtml"><path fill="#ffffff" fill-rule="nonzero" d="M 0 0v 195.097283465h 391.54984252v -195.097283465Z "/><g transform="translate(17.007874016 17.007874016)"><path fill="none" stroke="#000000" stroke-width="0.8" stroke-linecap="butt" stroke-linejoin="miter" stroke-miterlimit="4" transform="translate(24.717322835 143.28492126)" d="M 0 0h 144.160012099"/><path fill="#000000" fill-rule="nonzero" stroke="#000000" stroke-width="0.8" stroke-linecap="butt" stroke-linejoin="miter" stroke-miterlimit="4" stroke-dashoffset="0" stroke-dasharray="" transform="translate(168.097807373 142.115629921)" d="M 0 0m 3.118110236 1.169291339l -3.118110236 -1.169291339l 0.779527559 1.169291339l -0.779527559 1.169291339l 3.118110236 -1.169291339Z "/><path fill="none" stroke="#000000" stroke-width="0.8" stroke-linecap="butt" stroke-linejoin="miter" stroke-miterlimit="4" transform="translate(24.717322835 5.030420972)" d="M 0 0m 0 138.254500288v -138.254500288"/><path fill="#000000" fill-rule="nonzero" stroke="#000000" stroke-width="0.8" stroke-linecap="butt" stroke-linejoin="miter" stroke-miterlimit="4" stroke-dashoffset="0" stroke-dasharray="" transform="translate(23.548031496 2.691838296)" d="M 0 0m 1.169291339 0l -1.169291339 3.118110236l 1.169291339 -0.779527559l 1.169291339 0.779527559l -1.169291339 -3.118110236Z "/><path fill="none" stroke="#000000" stroke-width="0.6" stroke-linecap="butt" stroke-linejoin="miter" stroke-miterlimit="4" transform="translate(24.717322835 140.450275591)" d="M 0 0m 0 5.669291339v -5.669291339"/><path fill="none" stroke="#000000" stroke-width="0.6" stroke-linecap="butt" stroke-linejoin="miter" stroke-miterlimit="4" transform="translate(36.528346457 140.450275591)" d="M 0 0m 0 5.669291339v -5.669291339"/><path fill="none" transform="translate(32.203346457 150.371535433)" d="M 0 0h 8.65v 10.6h -8.65v -10.6Z "/><g transform="translate(32.203346425 150.371535354)"><g transform="matrix(1 0 0 -1 2 8.58)"><use xlink:href="#g90E80DFA2ED72D656149A2EAA0923C99" x="0" y="0" fill="#000000" fill-rule="nonzero"/></g></g><path fill="none" stroke="#000000" stroke-width="0.6" stroke-linecap="butt" stroke-linejoin="miter" stroke-miterlimit="4" transform="translate(48.339370079 140.450275591)" d="M 0 0m 0 5.669291339v -5.669291339"/><path fill="none" transform="translate(44.014370079 150.371535433)" d="M 0 0h 8.65v 10.6h -8.65v -10.6Z "/><g transform="translate(44.014370047 150.371535354)"><g transform="matrix(1 0 0 -1 2 8.58)"><use xlink:href="#gD51D1BA75A4578B9DA0C9BBB90D056B7" x="0" y="0" fill="#000000" fill-rule="nonzero"/></g></g><path fill="none" stroke="#000000" stroke-width="0.6" stroke-linecap="butt" stroke-linejoin="miter" stroke-miterlimit="4" transform="translate(60.150393701 140.450275591)" d="M 0 0m 0 5.669291339v -5.669291339"/><path fill="none" transform="translate(55.825393701 150.371535433)" d="M 0 0h 8.65v 10.68h -8.65v -10.68Z "/><g transform="translate(55.825393669 150.371535386)"><g transform="matrix(1 0 0 -1 2 8.58)"><use xlink:href="#gEC79FC52D225D04391F52749EE46159D" x="0" y="0" fill="#000000" fill-rule="nonzero"/></g></g><path fill="none" stroke="#000000" stroke-width="0.6" stroke-linecap="butt" stroke-linejoin="miter" stroke-miterlimit="4" transform="translate(71.961417323 140.450275591)" d="M 0 0m 0 5.669291339v -5.669291339"/><path fill="none" transform="translate(67.636417323 150.371535433)" d="M 0 0h 8.65v 10.6h -8.65v -10.6Z "/><g transform="translate(67.636417291 150.371535354)"><g transform="matrix(1 0 0 -1 2 8.58)"><use xlink:href="#g9FDA399337BA5CEE43DE6885B462BE24" x="0" y="0" fill="#000000" fill-rule="nonzero"/></g></g><path fill="none" stroke="#000000" stroke-width="0.6" stroke-linecap="butt" stroke-linejoin="miter" stroke-miterlimit="4" transform="translate(83.772440945 140.450275591)" d="M 0 0m 0 5.669291339v -5.669291339"/><path fill="none" transform="translate(79.447440945 150.371535433)" d="M 0 0h 8.65v 10.69h -8.65v -10.69Z "/><g transform="translate(79.447440913 150.371535354)"><g transform="matrix(1 0 0 -1 2 8.58)"><use xlink:href="#g53E88946A301F5C1DCEA2C720F6596D3" x="0" y="0" fill="#000000" fill-rule="nonzero"/></g></g><path fill="none" stroke="#000000" stroke-width="0.6" stroke-linecap="butt" stroke-linejoin="miter" stroke-miterlimit="4" transform="translate(95.583464567 140.450275591)" d="M 0 0m 0 5.669291339v -5.669291339"/><path fill="none" transform="translate(91.258464567 150.371535433)" d="M 0 0h 8.65v 10.69h -8.65v -10.69Z "/><g transform="translate(91.258464535 150.371535354)"><g transform="matrix(1 0 0 -1 2 8.58)"><use xlink:href="#g9CDE2E24D779DEC8C09236644F4BDC06" x="0" y="0" fill="#000000" fill-rule="nonzero"/></g></g><path fill="none" stroke="#000000" stroke-width="0.6" stroke-linecap="butt" stroke-linejoin="miter" stroke-miterlimit="4" transform="translate(107.394488189 140.450275591)" d="M 0 0m 0 5.669291339v -5.669291339"/><path fill="none" transform="translate(103.069488189 150.371535433)" d="M 0 0h 8.65v 10.71h -8.65v -10.71Z "/><g transform="translate(103.069488157 150.371535433)"><g transform="matrix(1 0 0 -1 2 8.58)"><use xlink:href="#gB053ABF9EF71983F202CCECD8EE25F6D" x="0" y="0" fill="#000000" fill-rule="nonzero"/></g></g><path fill="none" stroke="#000000" stroke-width="0.6" stroke-linecap="butt" stroke-linejoin="miter" stroke-miterlimit="4" transform="translate(119.205511811 140.450275591)" d="M 0 0m 0 5.669291339v -5.669291339"/><path fill="none" transform="translate(114.880511811 150.371535433)" d="M 0 0h 8.65v 10.68h -8.65v -10.68Z "/><g transform="translate(114.88051178 150.371535386)"><g transform="matrix(1 0 0 -1 2 8.58)"><use xlink:href="#g570774105255CD33C8B695C543E4AB5D" x="0" y="0" fill="#000000" fill-rule="nonzero"/></g></g><path fill="none" stroke="#000000" stroke-width="0.6" stroke-linecap="butt" stroke-linejoin="miter" stroke-miterlimit="4" transform="translate(131.016535433 140.450275591)" d="M 0 0m 0 5.669291339v -5.669291339"/><path fill="none" transform="translate(126.691535433 150.371535433)" d="M 0 0h 8.65v 10.7h -8.65v -10.7Z "/><g transform="translate(126.691535402 150.371535323)"><g transform="matrix(1 0 0 -1 2 8.58)"><use xlink:href="#g3822A2BEAC8DE8C499593DEB879DF18A" x="0" y="0" fill="#000000" fill-rule="nonzero"/></g></g><path fill="none" stroke="#000000" stroke-width="0.6" stroke-linecap="butt" stroke-linejoin="miter" stroke-miterlimit="4" transform="translate(142.827559055 140.450275591)" d="M 0 0m 0 5.669291339v -5.669291339"/><path fill="none" transform="translate(136.177559055 150.371535433)" d="M 0 0h 13.3v 10.68h -13.3v -10.68Z "/><g transform="translate(136.177558976 150.371535386)"><g transform="matrix(1 0 0 -1 2 8.58)"><use xlink:href="#g90E80DFA2ED72D656149A2EAA0923C99" x="0" y="0" fill="#000000" fill-rule="nonzero"/><use xlink:href="#g6DFAD7171EBFBAC7EAFD0C61FA59A787" x="4.65" y="0" fill="#000000" fill-rule="nonzero"/></g></g><path fill="none" stroke="#000000" stroke-width="0.6" stroke-linecap="butt" stroke-linejoin="miter" stroke-miterlimit="4" transform="translate(154.638582677 140.450275591)" d="M 0 0m 0 5.669291339v -5.669291339"/><path fill="none" transform="translate(147.988582677 150.371535433)" d="M 0 0h 13.3v 10.6h -13.3v -10.6Z "/><g transform="translate(147.988582598 150.371535354)"><g transform="matrix(1 0 0 -1 2 8.58)"><use xlink:href="#g90E80DFA2ED72D656149A2EAA0923C99" x="0" y="0" fill="#000000" fill-rule="nonzero"/><use xlink:href="#g90E80DFA2ED72D656149A2EAA0923C99" x="4.65" y="0" fill="#000000" fill-rule="nonzero"/></g></g><path fill="none" stroke="#000000" stroke-width="0.6" stroke-linecap="butt" stroke-linejoin="miter" stroke-miterlimit="4" transform="translate(21.882677165 143.28492126)" d="M 0 0h 5.669291339"/><path fill="none" transform="translate(11.815354331 147.536889764)" d="M 0 0h 8.65v 10.68h -8.65v -10.68Z "/><g transform="translate(11.815354299 147.536889717)"><g transform="matrix(1 0 0 -1 2 8.58)"><use xlink:href="#g6DFAD7171EBFBAC7EAFD0C61FA59A787" x="0" y="0" fill="#000000" fill-rule="nonzero"/></g></g><path fill="none" transform="translate(162.392755906 144.702244094)" d="M 0 0h 9.72v 10.94h -9.72v -10.94Z "/><g transform="translate(162.392755906 144.702244079)"><g transform="matrix(1 0 0 -1 2 8.83)"><use xlink:href="#g8F3B43BF00419FE170D741E9CC615A47" x="0" y="0" fill="#000000" fill-rule="nonzero"/></g></g><path fill="none" d="M 0 0h 23.3v 13.31h -23.3v -13.31Z "/><g transform="translate(-1.1e-7 -1.1e-7)"><g transform="matrix(1 0 0 -1 2 8.83)"><use xlink:href="#g6517459F2F5EC831542E8F502CD2457A" x="0" y="0" fill="#000000" fill-rule="nonzero"/></g><g transform="matrix(1 0 0 -1 7.8 8.83)"><use xlink:href="#gA5379C297008FE083E855C8E8B850A03" x="0" y="0" fill="#000000" fill-rule="nonzero"/></g><g transform="matrix(1 0 0 -1 11.69 8.83)"><use xlink:href="#g8F3B43BF00419FE170D741E9CC615A47" x="0" y="0" fill="#000000" fill-rule="nonzero"/></g><g transform="matrix(1 0 0 -1 17.41 8.83)"><use xlink:href="#g62817012A814A947D74F91B268BA3C0F" x="0" y="0" fill="#000000" fill-rule="nonzero"/></g></g><path fill="none" stroke="#0074d9" stroke-width="1.2" stroke-linecap="butt" stroke-linejoin="miter" stroke-miterlimit="4" transform="translate(24.805905493 124.372256699)" d="M 0 0m 0 18.912664561l 1.387795294 -18.912664561"/><path fill="none" stroke="#0074d9" stroke-width="1.2" stroke-linecap="butt" stroke-linejoin="miter" stroke-miterlimit="4" transform="translate(26.193700787 93.757769055)" d="M 0 0m 0 30.614487644l 2.893700787 -30.614487644"/><path fill="none" stroke="#0074d9" stroke-width="1.2" stroke-linecap="butt" stroke-linejoin="miter" stroke-miterlimit="4" transform="translate(29.087401575 70.45402162)" d="M 0 0m 0 23.303747435l 2.893700787 -23.303747435"/><path fill="none" stroke="#0074d9" stroke-width="1.2" stroke-linecap="butt" stroke-linejoin="miter" stroke-miterlimit="4" transform="translate(31.981102362 53.18219411)" d="M 0 0m 0 17.27182751l 2.893700787 -17.27182751"/><path fill="none" stroke="#0074d9" stroke-width="1.2" stroke-linecap="butt" stroke-linejoin="miter" stroke-miterlimit="4" transform="translate(34.87480315 40.861167409)" d="M 0 0m 0 12.3210267l 2.893700787 -12.3210267"/><path fill="none" stroke="#0074d9" stroke-width="1.2" stroke-linecap="butt" stroke-linejoin="miter" stroke-miterlimit="4" transform="translate(37.768503937 32.578935033)" d="M 0 0m 0 8.282232377l 2.893700787 -8.282232377"/><path fill="none" stroke="#0074d9" stroke-width="1.2" stroke-linecap="butt" stroke-linejoin="miter" stroke-miterlimit="4" transform="translate(40.662204724 27.567978767)" d="M 0 0m 0 5.010956266l 2.893700787 -5.010956266"/><path fill="none" stroke="#0074d9" stroke-width="1.2" stroke-linecap="butt" stroke-linejoin="miter" stroke-miterlimit="4" transform="translate(43.555905512 25.184074439)" d="M 0 0m 0 2.383904328l 2.893700787 -2.383904328"/><path fill="none" stroke="#0074d9" stroke-width="1.2" stroke-linecap="butt" stroke-linejoin="miter" stroke-miterlimit="4" transform="translate(46.449606299 24.888064178)" d="M 0 0m 0 0.296010261l 2.893700787 -0.296010261"/><path fill="none" stroke="#0074d9" stroke-width="1.2" stroke-linecap="butt" stroke-linejoin="miter" stroke-miterlimit="4" transform="translate(49.343307087 24.888064178)" d="M 0 0l 2.893700787 1.342128685"/><path fill="none" stroke="#0074d9" stroke-width="1.2" stroke-linecap="butt" stroke-linejoin="miter" stroke-miterlimit="4" transform="translate(52.237007874 26.230192863)" d="M 0 0l 2.893700787 2.60646692"/><path fill="none" stroke="#0074d9" stroke-width="1.2" stroke-linecap="butt" stroke-linejoin="miter" stroke-miterlimit="4" transform="translate(55.130708661 28.836659783)" d="M 0 0l 2.893700787 3.561423137"/><path fill="none" stroke="#0074d9" stroke-width="1.2" stroke-linecap="butt" stroke-linejoin="miter" stroke-miterlimit="4" transform="translate(58.024409449 32.39808292)" d="M 0 0l 2.893700787 4.261530672"/><path fill="none" stroke="#0074d9" stroke-width="1.2" stroke-linecap="butt" stroke-linejoin="miter" stroke-miterlimit="4" transform="translate(60.918110236 36.659613592)" d="M 0 0l 2.893700787 4.752860648"/><path fill="none" stroke="#0074d9" stroke-width="1.2" stroke-linecap="butt" stroke-linejoin="miter" stroke-miterlimit="4" transform="translate(63.811811024 41.41247424)" d="M 0 0l 2.893700787 5.074248364"/><path fill="none" stroke="#0074d9" stroke-width="1.2" stroke-linecap="butt" stroke-linejoin="miter" stroke-miterlimit="4" transform="translate(66.705511811 46.486722604)" d="M 0 0l 2.893700787 5.258349382"/><path fill="none" stroke="#0074d9" stroke-width="1.2" stroke-linecap="butt" stroke-linejoin="miter" stroke-miterlimit="4" transform="translate(69.599212598 51.745071986)" d="M 0 0l 2.893700787 5.332548275"/><path fill="none" stroke="#0074d9" stroke-width="1.2" stroke-linecap="butt" stroke-linejoin="miter" stroke-miterlimit="4" transform="translate(72.492913386 57.077620261)" d="M 0 0l 2.893700787 5.31973997"/><path fill="none" stroke="#0074d9" stroke-width="1.2" stroke-linecap="butt" stroke-linejoin="miter" stroke-miterlimit="4" transform="translate(75.386614173 62.397360231)" d="M 0 0l 2.893700787 5.239000993"/><path fill="none" stroke="#0074d9" stroke-width="1.2" stroke-linecap="butt" stroke-linejoin="miter" stroke-miterlimit="4" transform="translate(78.280314961 67.636361224)" d="M 0 0l 2.893700787 5.106165612"/><path fill="none" stroke="#0074d9" stroke-width="1.2" stroke-linecap="butt" stroke-linejoin="miter" stroke-miterlimit="4" transform="translate(81.174015748 72.742526836)" d="M 0 0l 2.893700787 4.934319884"/><path fill="none" stroke="#0074d9" stroke-width="1.2" stroke-linecap="butt" stroke-linejoin="miter" stroke-miterlimit="4" transform="translate(84.067716535 77.67684672)" d="M 0 0l 2.893700787 4.734224879"/><path fill="none" stroke="#0074d9" stroke-width="1.2" stroke-linecap="butt" stroke-linejoin="miter" stroke-miterlimit="4" transform="translate(86.961417323 82.411071599)" d="M 0 0l 2.893700787 4.514678845"/><path fill="none" stroke="#0074d9" stroke-width="1.2" stroke-linecap="butt" stroke-linejoin="miter" stroke-miterlimit="4" transform="translate(89.85511811 86.925750444)" d="M 0 0l 2.893700787 4.282826769"/><path fill="none" stroke="#0074d9" stroke-width="1.2" stroke-linecap="butt" stroke-linejoin="miter" stroke-miterlimit="4" transform="translate(92.748818898 91.208577213)" d="M 0 0l 2.893700787 4.044424644"/><path fill="none" stroke="#0074d9" stroke-width="1.2" stroke-linecap="butt" stroke-linejoin="miter" stroke-miterlimit="4" transform="translate(95.642519685 95.253001857)" d="M 0 0l 2.893700787 3.80406478"/><path fill="none" stroke="#0074d9" stroke-width="1.2" stroke-linecap="butt" stroke-linejoin="miter" stroke-miterlimit="4" transform="translate(98.536220472 99.057066637)" d="M 0 0l 2.893700787 3.565367624"/><path fill="none" stroke="#0074d9" stroke-width="1.2" stroke-linecap="butt" stroke-linejoin="miter" stroke-miterlimit="4" transform="translate(101.42992126 102.622434262)" d="M 0 0l 2.893700787 3.331144814"/><path fill="none" stroke="#0074d9" stroke-width="1.2" stroke-linecap="butt" stroke-linejoin="miter" stroke-miterlimit="4" transform="translate(104.323622047 105.953579076)" d="M 0 0l 2.893700787 3.103537554"/><path fill="none" stroke="#0074d9" stroke-width="1.2" stroke-linecap="butt" stroke-linejoin="miter" stroke-miterlimit="4" transform="translate(107.217322835 109.05711663)" d="M 0 0l 2.893700787 2.884133837"/><path fill="none" stroke="#0074d9" stroke-width="1.2" stroke-linecap="butt" stroke-linejoin="miter" stroke-miterlimit="4" transform="translate(110.111023622 111.941250467)" d="M 0 0l 2.893700787 2.674067545"/><path fill="none" stroke="#0074d9" stroke-width="1.2" stroke-linecap="butt" stroke-linejoin="miter" stroke-miterlimit="4" transform="translate(113.004724409 114.615318012)" d="M 0 0l 2.893700787 2.474102051"/><path fill="none" stroke="#0074d9" stroke-width="1.2" stroke-linecap="butt" stroke-linejoin="miter" stroke-miterlimit="4" transform="translate(115.898425197 117.089420063)" d="M 0 0l 2.893700787 2.284700585"/><path fill="none" stroke="#0074d9" stroke-width="1.2" stroke-linecap="butt" stroke-linejoin="miter" stroke-miterlimit="4" transform="translate(118.792125984 119.374120648)" d="M 0 0l 2.893700787 2.106085294"/><path fill="none" stroke="#0074d9" stroke-width="1.2" stroke-linecap="butt" stroke-linejoin="miter" stroke-miterlimit="4" transform="translate(121.685826772 121.480205942)" d="M 0 0l 2.893700787 1.938286675"/><path fill="none" stroke="#0074d9" stroke-width="1.2" stroke-linecap="butt" stroke-linejoin="miter" stroke-miterlimit="4" transform="translate(124.579527559 123.418492617)" d="M 0 0l 2.893700787 1.781184816"/><path fill="none" stroke="#0074d9" stroke-width="1.2" stroke-linecap="butt" stroke-linejoin="miter" stroke-miterlimit="4" transform="translate(127.473228346 125.199677433)" d="M 0 0l 2.893700787 1.634543672"/><path fill="none" stroke="#0074d9" stroke-width="1.2" stroke-linecap="butt" stroke-linejoin="miter" stroke-miterlimit="4" transform="translate(130.366929134 126.834221105)" d="M 0 0l 2.893700787 1.498039439"/><path fill="none" stroke="#0074d9" stroke-width="1.2" stroke-linecap="butt" stroke-linejoin="miter" stroke-miterlimit="4" transform="translate(133.260629921 128.332260544)" d="M 0 0l 2.893700787 1.371283924"/><path fill="none" stroke="#0074d9" stroke-width="1.2" stroke-linecap="butt" stroke-linejoin="miter" stroke-miterlimit="4" transform="translate(136.154330709 129.703544468)" d="M 0 0l 2.893700787 1.253843703"/><path fill="none" stroke="#0074d9" stroke-width="1.2" stroke-linecap="butt" stroke-linejoin="miter" stroke-miterlimit="4" transform="translate(139.048031496 130.957388172)" d="M 0 0l 2.893700787 1.145255705"/><path fill="none" stroke="#0074d9" stroke-width="1.2" stroke-linecap="butt" stroke-linejoin="miter" stroke-miterlimit="4" transform="translate(141.941732283 132.102643877)" d="M 0 0l 2.893700787 1.045039814"/><path fill="none" stroke="#0074d9" stroke-width="1.2" stroke-linecap="butt" stroke-linejoin="miter" stroke-miterlimit="4" transform="translate(144.835433071 133.14768369)" d="M 0 0l 2.893700787 0.95270895"/><path fill="none" stroke="#0074d9" stroke-width="1.2" stroke-linecap="butt" stroke-linejoin="miter" stroke-miterlimit="4" transform="translate(147.729133858 134.100392641)" d="M 0 0l 2.893700787 0.867777063"/><path fill="none" stroke="#0074d9" stroke-width="1.2" stroke-linecap="butt" stroke-linejoin="miter" stroke-miterlimit="4" transform="translate(150.622834646 134.968169703)" d="M 0 0l 2.893700787 0.789765365"/><path fill="none" stroke="#0074d9" stroke-width="1.2" stroke-linecap="butt" stroke-linejoin="miter" stroke-miterlimit="4" transform="translate(153.516535433 135.757935068)" d="M 0 0l 2.893700787 0.718207118"/><path fill="none" stroke="#0074d9" stroke-width="1.2" stroke-linecap="butt" stroke-linejoin="miter" stroke-miterlimit="4" transform="translate(156.41023622 136.476142186)" d="M 0 0l 2.893700787 0.652651221"/><path fill="none" stroke="#0074d9" stroke-width="1.2" stroke-linecap="butt" stroke-linejoin="miter" stroke-miterlimit="4" transform="translate(159.303937008 137.128793407)" d="M 0 0l 2.893700787 0.592664808"/><path fill="none" stroke="#0074d9" stroke-width="1.2" stroke-linecap="butt" stroke-linejoin="miter" stroke-miterlimit="4" transform="translate(162.197637795 137.721458215)" d="M 0 0l 2.893700787 0.537835038"/><path fill="none" stroke="#0074d9" stroke-width="1.2" stroke-linecap="butt" stroke-linejoin="miter" stroke-miterlimit="4" transform="translate(165.091338583 138.259293252)" d="M 0 0l 1.358267717 0.228953375"/></g><g transform="translate(200.459212598 17.007874016)"><path fill="none" stroke="#000000" stroke-width="0.8" stroke-linecap="butt" stroke-linejoin="miter" stroke-miterlimit="4" transform="translate(26.687322835 143.28492126)" d="M 0 0h 144.160012099"/><path fill="#000000" fill-rule="nonzero" stroke="#000000" stroke-width="0.8" stroke-linecap="butt" stroke-linejoin="miter" stroke-miterlimit="4" stroke-dashoffset="0" stroke-dasharray="" transform="translate(170.067807373 142.115629921)" d="M 0 0m 3.118110236 1.169291339l -3.118110236 -1.169291339l 0.779527559 1.169291339l -0.779527559 1.169291339l 3.118110236 -1.169291339Z "/><path fill="none" stroke="#000000" stroke-width="0.8" stroke-linecap="butt" stroke-linejoin="miter" stroke-miterlimit="4" transform="translate(26.687322835 5.030420972)" d="M 0 0m 0 138.254500288v -138.254500288"/><path fill="#000000" fill-rule="nonzero" stroke="#000000" stroke-width="0.8" stroke-linecap="butt" stroke-linejoin="miter" stroke-miterlimit="4" stroke-dashoffset="0" stroke-dasharray="" transform="translate(25.518031496 2.691838296)" d="M 0 0m 1.169291339 0l -1.169291339 3.118110236l 1.169291339 -0.779527559l 1.169291339 0.779527559l -1.169291339 -3.118110236Z "/><path fill="none" stroke="#000000" stroke-width="0.6" stroke-linecap="butt" stroke-linejoin="miter" stroke-miterlimit="4" transform="translate(26.687322835 140.450275591)" d="M 0 0m 0 5.669291339v -5.669291339"/><path fill="none" stroke="#000000" stroke-width="0.6" stroke-linecap="butt" stroke-linejoin="miter" stroke-miterlimit="4" transform="translate(38.498346457 140.450275591)" d="M 0 0m 0 5.669291339v -5.669291339"/><path fill="none" transform="translate(34.173346457 150.371535433)" d="M 0 0h 8.65v 10.6h -8.65v -10.6Z "/><g transform="translate(34.173346425 150.371535354)"><g transform="matrix(1 0 0 -1 2 8.58)"><use xlink:href="#g90E80DFA2ED72D656149A2EAA0923C99" x="0" y="0" fill="#000000" fill-rule="nonzero"/></g></g><path fill="none" stroke="#000000" stroke-width="0.6" stroke-linecap="butt" stroke-linejoin="miter" stroke-miterlimit="4" transform="translate(50.309370079 140.450275591)" d="M 0 0m 0 5.669291339v -5.669291339"/><path fill="none" transform="translate(45.984370079 150.371535433)" d="M 0 0h 8.65v 10.6h -8.65v -10.6Z "/><g transform="translate(45.984370047 150.371535354)"><g transform="matrix(1 0 0 -1 2 8.58)"><use xlink:href="#gD51D1BA75A4578B9DA0C9BBB90D056B7" x="0" y="0" fill="#000000" fill-rule="nonzero"/></g></g><path fill="none" stroke="#000000" stroke-width="0.6" stroke-linecap="butt" stroke-linejoin="miter" stroke-miterlimit="4" transform="translate(62.120393701 140.450275591)" d="M 0 0m 0 5.669291339v -5.669291339"/><path fill="none" transform="translate(57.795393701 150.371535433)" d="M 0 0h 8.65v 10.68h -8.65v -10.68Z "/><g transform="translate(57.795393669 150.371535386)"><g transform="matrix(1 0 0 -1 2 8.58)"><use xlink:href="#gEC79FC52D225D04391F52749EE46159D" x="0" y="0" fill="#000000" fill-rule="nonzero"/></g></g><path fill="none" stroke="#000000" stroke-width="0.6" stroke-linecap="butt" stroke-linejoin="miter" stroke-miterlimit="4" transform="translate(73.931417323 140.450275591)" d="M 0 0m 0 5.669291339v -5.669291339"/><path fill="none" transform="translate(69.606417323 150.371535433)" d="M 0 0h 8.65v 10.6h -8.65v -10.6Z "/><g transform="translate(69.606417291 150.371535354)"><g transform="matrix(1 0 0 -1 2 8.58)"><use xlink:href="#g9FDA399337BA5CEE43DE6885B462BE24" x="0" y="0" fill="#000000" fill-rule="nonzero"/></g></g><path fill="none" stroke="#000000" stroke-width="0.6" stroke-linecap="butt" stroke-linejoin="miter" stroke-miterlimit="4" transform="translate(85.742440945 140.450275591)" d="M 0 0m 0 5.669291339v -5.669291339"/><path fill="none" transform="translate(81.417440945 150.371535433)" d="M 0 0h 8.65v 10.69h -8.65v -10.69Z "/><g transform="translate(81.417440913 150.371535354)"><g transform="matrix(1 0 0 -1 2 8.58)"><use xlink:href="#g53E88946A301F5C1DCEA2C720F6596D3" x="0" y="0" fill="#000000" fill-rule="nonzero"/></g></g><path fill="none" stroke="#000000" stroke-width="0.6" stroke-linecap="butt" stroke-linejoin="miter" stroke-miterlimit="4" transform="translate(97.553464567 140.450275591)" d="M 0 0m 0 5.669291339v -5.669291339"/><path fill="none" transform="translate(93.228464567 150.371535433)" d="M 0 0h 8.65v 10.69h -8.65v -10.69Z "/><g transform="translate(93.228464535 150.371535354)"><g transform="matrix(1 0 0 -1 2 8.58)"><use xlink:href="#g9CDE2E24D779DEC8C09236644F4BDC06" x="0" y="0" fill="#000000" fill-rule="nonzero"/></g></g><path fill="none" stroke="#000000" stroke-width="0.6" stroke-linecap="butt" stroke-linejoin="miter" stroke-miterlimit="4" transform="translate(109.364488189 140.450275591)" d="M 0 0m 0 5.669291339v -5.669291339"/><path fill="none" transform="translate(105.039488189 150.371535433)" d="M 0 0h 8.65v 10.71h -8.65v -10.71Z "/><g transform="translate(105.039488157 150.371535433)"><g transform="matrix(1 0 0 -1 2 8.58)"><use xlink:href="#gB053ABF9EF71983F202CCECD8EE25F6D" x="0" y="0" fill="#000000" fill-rule="nonzero"/></g></g><path fill="none" stroke="#000000" stroke-width="0.6" stroke-linecap="butt" stroke-linejoin="miter" stroke-miterlimit="4" transform="translate(121.175511811 140.450275591)" d="M 0 0m 0 5.669291339v -5.669291339"/><path fill="none" transform="translate(116.850511811 150.371535433)" d="M 0 0h 8.65v 10.68h -8.65v -10.68Z "/><g transform="translate(116.85051178 150.371535386)"><g transform="matrix(1 0 0 -1 2 8.58)"><use xlink:href="#g570774105255CD33C8B695C543E4AB5D" x="0" y="0" fill="#000000" fill-rule="nonzero"/></g></g><path fill="none" stroke="#000000" stroke-width="0.6" stroke-linecap="butt" stroke-linejoin="miter" stroke-miterlimit="4" transform="translate(132.986535433 140.450275591)" d="M 0 0m 0 5.669291339v -5.669291339"/><path fill="none" transform="translate(128.661535433 150.371535433)" d="M 0 0h 8.65v 10.7h -8.65v -10.7Z "/><g transform="translate(128.661535402 150.371535323)"><g transform="matrix(1 0 0 -1 2 8.58)"><use xlink:href="#g3822A2BEAC8DE8C499593DEB879DF18A" x="0" y="0" fill="#000000" fill-rule="nonzero"/></g></g><path fill="none" stroke="#000000" stroke-width="0.6" stroke-linecap="butt" stroke-linejoin="miter" stroke-miterlimit="4" transform="translate(144.797559055 140.450275591)" d="M 0 0m 0 5.669291339v -5.669291339"/><path fill="none" transform="translate(138.147559055 150.371535433)" d="M 0 0h 13.3v 10.68h -13.3v -10.68Z "/><g transform="translate(138.147558976 150.371535386)"><g transform="matrix(1 0 0 -1 2 8.58)"><use xlink:href="#g90E80DFA2ED72D656149A2EAA0923C99" x="0" y="0" fill="#000000" fill-rule="nonzero"/><use xlink:href="#g6DFAD7171EBFBAC7EAFD0C61FA59A787" x="4.65" y="0" fill="#000000" fill-rule="nonzero"/></g></g><path fill="none" stroke="#000000" stroke-width="0.6" stroke-linecap="butt" stroke-linejoin="miter" stroke-miterlimit="4" transform="translate(156.608582677 140.450275591)" d="M 0 0m 0 5.669291339v -5.669291339"/><path fill="none" transform="translate(149.958582677 150.371535433)" d="M 0 0h 13.3v 10.6h -13.3v -10.6Z "/><g transform="translate(149.958582598 150.371535354)"><g transform="matrix(1 0 0 -1 2 8.58)"><use xlink:href="#g90E80DFA2ED72D656149A2EAA0923C99" x="0" y="0" fill="#000000" fill-rule="nonzero"/><use xlink:href="#g90E80DFA2ED72D656149A2EAA0923C99" x="4.65" y="0" fill="#000000" fill-rule="nonzero"/></g></g><path fill="none" stroke="#000000" stroke-width="0.6" stroke-linecap="butt" stroke-linejoin="miter" stroke-miterlimit="4" transform="translate(23.852677165 143.28492126)" d="M 0 0h 5.669291339"/><path fill="none" stroke="#000000" stroke-width="0.6" stroke-linecap="butt" stroke-linejoin="miter" stroke-miterlimit="4" transform="translate(23.852677165 14.437390838)" d="M 0 0h 5.669291339"/><path fill="none" transform="translate(10.950708661 9.137390838)" d="M 0 0h 8.65v 10.6h -8.65v -10.6Z "/><g transform="translate(10.95070863 9.137390759)"><g transform="matrix(1 0 0 -1 2 8.58)"><use xlink:href="#g90E80DFA2ED72D656149A2EAA0923C99" x="0" y="0" fill="#000000" fill-rule="nonzero"/></g></g><path fill="none" transform="translate(13.785354331 147.536889764)" d="M 0 0h 8.65v 10.68h -8.65v -10.68Z "/><g transform="translate(13.785354299 147.536889717)"><g transform="matrix(1 0 0 -1 2 8.58)"><use xlink:href="#g6DFAD7171EBFBAC7EAFD0C61FA59A787" x="0" y="0" fill="#000000" fill-rule="nonzero"/></g></g><path fill="none" transform="translate(164.362755906 144.702244094)" d="M 0 0h 9.72v 10.94h -9.72v -10.94Z "/><g transform="translate(164.362755906 144.702244079)"><g transform="matrix(1 0 0 -1 2 8.83)"><use xlink:href="#g8F3B43BF00419FE170D741E9CC615A47" x="0" y="0" fill="#000000" fill-rule="nonzero"/></g></g><path fill="none" d="M 0 0h 25.27v 13.31h -25.27v -13.31Z "/><g transform="translate(-7.9e-8 -1.1e-7)"><g transform="matrix(1 0 0 -1 2 8.83)"><use xlink:href="#g3CFE6150D025C9FE5B65497FBD971DC1" x="0" y="0" fill="#000000" fill-rule="nonzero"/></g><g transform="matrix(1 0 0 -1 9.77 8.83)"><use xlink:href="#gA5379C297008FE083E855C8E8B850A03" x="0" y="0" fill="#000000" fill-rule="nonzero"/></g><g transform="matrix(1 0 0 -1 13.66 8.83)"><use xlink:href="#g8F3B43BF00419FE170D741E9CC615A47" x="0" y="0" fill="#000000" fill-rule="nonzero"/></g><g transform="matrix(1 0 0 -1 19.38 8.83)"><use xlink:href="#g62817012A814A947D74F91B268BA3C0F" x="0" y="0" fill="#000000" fill-rule="nonzero"/></g></g><path fill="none" stroke="#0074d9" stroke-width="1.2" stroke-linecap="butt" stroke-linejoin="miter" stroke-miterlimit="4" transform="translate(28.163700787 141.333986217)" d="M 0 0m 0 1.709523635l 2.893700787 -1.709523635"/><path fill="none" stroke="#0074d9" stroke-width="1.2" stroke-linecap="butt" stroke-linejoin="miter" stroke-miterlimit="4" transform="translate(31.057401575 138.309132339)" d="M 0 0m 0 3.024853879l 2.893700787 -3.024853879"/><path fill="none" stroke="#0074d9" stroke-width="1.2" stroke-linecap="butt" stroke-linejoin="miter" stroke-miterlimit="4" transform="translate(33.951102362 134.29497207)" d="M 0 0m 0 4.014160269l 2.893700787 -4.014160269"/><path fill="none" stroke="#0074d9" stroke-width="1.2" stroke-linecap="butt" stroke-linejoin="miter" stroke-miterlimit="4" transform="translate(36.84480315 129.559836342)" d="M 0 0m 0 4.735135728l 2.893700787 -4.735135728"/><path fill="none" stroke="#0074d9" stroke-width="1.2" stroke-linecap="butt" stroke-linejoin="miter" stroke-miterlimit="4" transform="translate(39.738503937 124.323332722)" d="M 0 0m 0 5.236503619l 2.893700787 -5.236503619"/><path fill="none" stroke="#0074d9" stroke-width="1.2" stroke-linecap="butt" stroke-linejoin="miter" stroke-miterlimit="4" transform="translate(42.632204724 118.7640136)" d="M 0 0m 0 5.559319123l 2.893700787 -5.559319123"/><path fill="none" stroke="#0074d9" stroke-width="1.2" stroke-linecap="butt" stroke-linejoin="miter" stroke-miterlimit="4" transform="translate(45.525905512 113.025923836)" d="M 0 0m 0 5.738089764l 2.893700787 -5.738089764"/><path fill="none" stroke="#0074d9" stroke-width="1.2" stroke-linecap="butt" stroke-linejoin="miter" stroke-miterlimit="4" transform="translate(48.419606299 107.224184349)" d="M 0 0m 0 5.801739487l 2.893700787 -5.801739487"/><path fill="none" stroke="#0074d9" stroke-width="1.2" stroke-linecap="butt" stroke-linejoin="miter" stroke-miterlimit="4" transform="translate(51.313307087 101.449746882)" d="M 0 0m 0 5.774437467l 2.893700787 -5.774437467"/><path fill="none" stroke="#0074d9" stroke-width="1.2" stroke-linecap="butt" stroke-linejoin="miter" stroke-miterlimit="4" transform="translate(54.207007874 95.773436858)" d="M 0 0m 0 5.676310024l 2.893700787 -5.676310024"/><path fill="none" stroke="#0074d9" stroke-width="1.2" stroke-linecap="butt" stroke-linejoin="miter" stroke-miterlimit="4" transform="translate(57.100708661 90.249385277)" d="M 0 0m 0 5.524051581l 2.893700787 -5.524051581"/><path fill="none" stroke="#0074d9" stroke-width="1.2" stroke-linecap="butt" stroke-linejoin="miter" stroke-miterlimit="4" transform="translate(59.994409449 84.917936787)" d="M 0 0m 0 5.33144849l 2.893700787 -5.33144849"/><path fill="none" stroke="#0074d9" stroke-width="1.2" stroke-linecap="butt" stroke-linejoin="miter" stroke-miterlimit="4" transform="translate(62.888110236 79.808109106)" d="M 0 0m 0 5.10982768l 2.893700787 -5.10982768"/><path fill="none" stroke="#0074d9" stroke-width="1.2" stroke-linecap="butt" stroke-linejoin="miter" stroke-miterlimit="4" transform="translate(65.781811024 74.939668591)" d="M 0 0m 0 4.868440515l 2.893700787 -4.868440515"/><path fill="none" stroke="#0074d9" stroke-width="1.2" stroke-linecap="butt" stroke-linejoin="miter" stroke-miterlimit="4" transform="translate(68.675511811 70.324877763)" d="M 0 0m 0 4.614790829l 2.893700787 -4.614790829"/><path fill="none" stroke="#0074d9" stroke-width="1.2" stroke-linecap="butt" stroke-linejoin="miter" stroke-miterlimit="4" transform="translate(71.569212598 65.969962856)" d="M 0 0m 0 4.354914907l 2.893700787 -4.354914907"/><path fill="none" stroke="#0074d9" stroke-width="1.2" stroke-linecap="butt" stroke-linejoin="miter" stroke-miterlimit="4" transform="translate(74.462913386 61.876342713)" d="M 0 0m 0 4.093620142l 2.893700787 -4.093620142"/><path fill="none" stroke="#0074d9" stroke-width="1.2" stroke-linecap="butt" stroke-linejoin="miter" stroke-miterlimit="4" transform="translate(77.356614173 58.041654549)" d="M 0 0m 0 3.834688164l 2.893700787 -3.834688164"/><path fill="none" stroke="#0074d9" stroke-width="1.2" stroke-linecap="butt" stroke-linejoin="miter" stroke-miterlimit="4" transform="translate(80.250314961 54.460607088)" d="M 0 0m 0 3.581047461l 2.893700787 -3.581047461"/><path fill="none" stroke="#0074d9" stroke-width="1.2" stroke-linecap="butt" stroke-linejoin="miter" stroke-miterlimit="4" transform="translate(83.144015748 51.125687247)" d="M 0 0m 0 3.334919841l 2.893700787 -3.334919841"/><path fill="none" stroke="#0074d9" stroke-width="1.2" stroke-linecap="butt" stroke-linejoin="miter" stroke-miterlimit="4" transform="translate(86.037716535 48.027742795)" d="M 0 0m 0 3.097944452l 2.893700787 -3.097944452"/><path fill="none" stroke="#0074d9" stroke-width="1.2" stroke-linecap="butt" stroke-linejoin="miter" stroke-miterlimit="4" transform="translate(88.931417323 45.156460189)" d="M 0 0m 0 2.871282606l 2.893700787 -2.871282606"/><path fill="none" stroke="#0074d9" stroke-width="1.2" stroke-linecap="butt" stroke-linejoin="miter" stroke-miterlimit="4" transform="translate(91.82511811 42.500754018)" d="M 0 0m 0 2.65570617l 2.893700787 -2.65570617"/><path fill="none" stroke="#0074d9" stroke-width="1.2" stroke-linecap="butt" stroke-linejoin="miter" stroke-miterlimit="4" transform="translate(94.718818898 40.049082083)" d="M 0 0m 0 2.451671935l 2.893700787 -2.451671935"/><path fill="none" stroke="#0074d9" stroke-width="1.2" stroke-linecap="butt" stroke-linejoin="miter" stroke-miterlimit="4" transform="translate(97.612519685 37.789698078)" d="M 0 0m 0 2.259384005l 2.893700787 -2.259384005"/><path fill="none" stroke="#0074d9" stroke-width="1.2" stroke-linecap="butt" stroke-linejoin="miter" stroke-miterlimit="4" transform="translate(100.506220472 35.710852088)" d="M 0 0m 0 2.078845991l 2.893700787 -2.078845991"/><path fill="none" stroke="#0074d9" stroke-width="1.2" stroke-linecap="butt" stroke-linejoin="miter" stroke-miterlimit="4" transform="translate(103.39992126 33.800947555)" d="M 0 0m 0 1.909904533l 2.893700787 -1.909904533"/><path fill="none" stroke="#0074d9" stroke-width="1.2" stroke-linecap="butt" stroke-linejoin="miter" stroke-miterlimit="4" transform="translate(106.293622047 32.04866211)" d="M 0 0m 0 1.752285445l 2.893700787 -1.752285445"/><path fill="none" stroke="#0074d9" stroke-width="1.2" stroke-linecap="butt" stroke-linejoin="miter" stroke-miterlimit="4" transform="translate(109.187322835 30.443038495)" d="M 0 0m 0 1.605623615l 2.893700787 -1.605623615"/><path fill="none" stroke="#0074d9" stroke-width="1.2" stroke-linecap="butt" stroke-linejoin="miter" stroke-miterlimit="4" transform="translate(112.081023622 28.973550879)" d="M 0 0m 0 1.469487617l 2.893700787 -1.469487617"/><path fill="none" stroke="#0074d9" stroke-width="1.2" stroke-linecap="butt" stroke-linejoin="miter" stroke-miterlimit="4" transform="translate(114.974724409 27.630151026)" d="M 0 0m 0 1.343399853l 2.893700787 -1.343399853"/><path fill="none" stroke="#0074d9" stroke-width="1.2" stroke-linecap="butt" stroke-linejoin="miter" stroke-miterlimit="4" transform="translate(117.868425197 26.403298086)" d="M 0 0m 0 1.226852939l 2.893700787 -1.226852939"/><path fill="none" stroke="#0074d9" stroke-width="1.2" stroke-linecap="butt" stroke-linejoin="miter" stroke-miterlimit="4" transform="translate(120.762125984 25.283975169)" d="M 0 0m 0 1.119322918l 2.893700787 -1.119322918"/><path fill="none" stroke="#0074d9" stroke-width="1.2" stroke-linecap="butt" stroke-linejoin="miter" stroke-miterlimit="4" transform="translate(123.655826772 24.263695342)" d="M 0 0m 0 1.020279827l 2.893700787 -1.020279827"/><path fill="none" stroke="#0074d9" stroke-width="1.2" stroke-linecap="butt" stroke-linejoin="miter" stroke-miterlimit="4" transform="translate(126.549527559 23.334499295)" d="M 0 0m 0 0.929196047l 2.893700787 -0.929196047"/><path fill="none" stroke="#0074d9" stroke-width="1.2" stroke-linecap="butt" stroke-linejoin="miter" stroke-miterlimit="4" transform="translate(129.443228346 22.488946486)" d="M 0 0m 0 0.845552809l 2.893700787 -0.845552809"/><path fill="none" stroke="#0074d9" stroke-width="1.2" stroke-linecap="butt" stroke-linejoin="miter" stroke-miterlimit="4" transform="translate(132.336929134 21.720101323)" d="M 0 0m 0 0.768845163l 2.893700787 -0.768845163"/><path fill="none" stroke="#0074d9" stroke-width="1.2" stroke-linecap="butt" stroke-linejoin="miter" stroke-miterlimit="4" transform="translate(135.230629921 21.021515633)" d="M 0 0m 0 0.69858569l 2.893700787 -0.69858569"/><path fill="none" stroke="#0074d9" stroke-width="1.2" stroke-linecap="butt" stroke-linejoin="miter" stroke-miterlimit="4" transform="translate(138.124330709 20.38720846)" d="M 0 0m 0 0.634307173l 2.893700787 -0.634307173"/><path fill="none" stroke="#0074d9" stroke-width="1.2" stroke-linecap="butt" stroke-linejoin="miter" stroke-miterlimit="4" transform="translate(141.018031496 19.811644048)" d="M 0 0m 0 0.575564412l 2.893700787 -0.575564412"/><path fill="none" stroke="#0074d9" stroke-width="1.2" stroke-linecap="butt" stroke-linejoin="miter" stroke-miterlimit="4" transform="translate(143.911732283 19.289708683)" d="M 0 0m 0 0.521935365l 2.893700787 -0.521935365"/><path fill="none" stroke="#0074d9" stroke-width="1.2" stroke-linecap="butt" stroke-linejoin="miter" stroke-miterlimit="4" transform="translate(146.805433071 18.816686961)" d="M 0 0m 0 0.473021722l 2.893700787 -0.473021722"/><path fill="none" stroke="#0074d9" stroke-width="1.2" stroke-linecap="butt" stroke-linejoin="miter" stroke-miterlimit="4" transform="translate(149.699133858 18.388237918)" d="M 0 0m 0 0.428449042l 2.893700787 -0.428449042"/><path fill="none" stroke="#0074d9" stroke-width="1.2" stroke-linecap="butt" stroke-linejoin="miter" stroke-miterlimit="4" transform="translate(152.592834646 18.000371371)" d="M 0 0m 0 0.387866547l 2.893700787 -0.387866547"/><path fill="none" stroke="#0074d9" stroke-width="1.2" stroke-linecap="butt" stroke-linejoin="miter" stroke-miterlimit="4" transform="translate(155.486535433 17.649424733)" d="M 0 0m 0 0.350946639l 2.893700787 -0.350946639"/><path fill="none" stroke="#0074d9" stroke-width="1.2" stroke-linecap="butt" stroke-linejoin="miter" stroke-miterlimit="4" transform="translate(158.38023622 17.332040512)" d="M 0 0m 0 0.317384221l 2.893700787 -0.317384221"/><path fill="none" stroke="#0074d9" stroke-width="1.2" stroke-linecap="butt" stroke-linejoin="miter" stroke-miterlimit="4" transform="translate(161.273937008 17.04514465)" d="M 0 0m 0 0.286895862l 2.893700787 -0.286895862"/><path fill="none" stroke="#0074d9" stroke-width="1.2" stroke-linecap="butt" stroke-linejoin="miter" stroke-miterlimit="4" transform="translate(164.167637795 16.785925794)" d="M 0 0m 0 0.259218856l 2.893700787 -0.259218856"/><path fill="none" stroke="#0074d9" stroke-width="1.2" stroke-linecap="butt" stroke-linejoin="miter" stroke-miterlimit="4" transform="translate(167.061338583 16.676037327)" d="M 0 0m 0 0.109888467l 1.358267717 -0.109888467"/></g><defs><symbol id="g90E80DFA2ED72D656149A2EAA0923C99" overflow="visible"><path d="M 0 0m 2.88 1.22v 3.47c 0 0.6 0.01 1.21 0.03 1.34c 0 0.05 -0.02 0.05 -0.06 0.05c -0.55 -0.34 -1.08 -0.59 -1.96 -1c 0.02 -0.11 0.06 -0.21 0.15 -0.27c 0.46 0.19 0.68 0.25 0.87 0.25c 0.17 0 0.2 -0.24 0.2 -0.58v -3.26c 0 -0.83 -0.27 -0.88 -0.97 -0.91c -0.06 -0.06 -0.06 -0.27 0 -0.33c 0.49 0.01 0.85 0.02 1.39 0.02c 0.48 0 0.72 -0.01 1.22 -0.02c 0.06 0.06 0.06 0.27 0 0.33c -0.7 0.03 -0.87 0.08 -0.87 0.91Z "/></symbol><symbol id="gD51D1BA75A4578B9DA0C9BBB90D056B7" overflow="visible"><path d="M 0 0m 0.61 4.68c 0 -0.21 0.19 -0.39 0.4 -0.39c 0.17 0 0.47 0.18 0.47 0.4c 0 0.08 -0.02 0.14 -0.04 0.21c -0.02 0.07 -0.08 0.16 -0.08 0.24c 0 0.25 0.26 0.61 0.99 0.61c 0.36 0 0.87 -0.25 0.87 -1.21c 0 -0.64 -0.23 -1.16 -0.82 -1.76l -0.74 -0.73c -0.98 -1 -1.14 -1.48 -1.14 -2.07c 0 0 0.51 0.02 0.83 0.02h 1.75c 0.32 0 0.78 -0.02 0.78 -0.02c 0.13 0.53 0.23 1.28 0.24 1.58c -0.06 0.05 -0.19 0.07 -0.29 0.05c -0.17 -0.71 -0.34 -0.96 -0.7 -0.96h -1.78c 0 0.48 0.69 1.16 0.74 1.21l 1.01 0.97c 0.57 0.55 1 0.99 1 1.75c 0 1.08 -0.88 1.52 -1.69 1.52c -1.11 0 -1.8 -0.82 -1.8 -1.42Z "/></symbol><symbol id="gEC79FC52D225D04391F52749EE46159D" overflow="visible"><path d="M 0 0m 2.15 5.75c 0.43 0 0.83 -0.26 0.83 -0.9c 0 -0.5 -0.58 -1.27 -1.57 -1.41l 0.05 -0.32c 0.17 0.02 0.35 0.02 0.48 0.02c 0.57 0 1.31 -0.16 1.31 -1.29c 0 -1.33 -0.89 -1.6 -1.24 -1.6c -0.51 0 -0.6 0.23 -0.72 0.41c -0.1 0.14 -0.23 0.26 -0.43 0.26c -0.21 0 -0.42 -0.19 -0.42 -0.35c 0 -0.4 0.84 -0.67 1.44 -0.67c 1.19 0 2.25 0.77 2.25 2.09c 0 1.09 -0.82 1.48 -1.41 1.58l -0.01 0.02c 0.82 0.39 1.05 0.8 1.05 1.33c 0 0.3 -0.07 0.54 -0.31 0.79c -0.22 0.22 -0.57 0.39 -1.09 0.39c -1.47 0 -1.89 -0.96 -1.89 -1.29c 0 -0.14 0.1 -0.34 0.34 -0.34c 0.35 0 0.39 0.33 0.39 0.52c 0 0.64 0.69 0.76 0.95 0.76Z "/></symbol><symbol id="g9FDA399337BA5CEE43DE6885B462BE24" overflow="visible"><path d="M 0 0m 4.3 2.19h -0.83v 2.92c 0 0.5 0 0.89 0.02 0.97l -0.02 0.02h -0.32c -0.07 0 -0.12 -0.06 -0.16 -0.11c -0.63 -0.77 -1.79 -2.42 -2.71 -3.85c 0.03 -0.15 0.09 -0.42 0.39 -0.42h 2.04v -0.92c 0 -0.46 -0.38 -0.46 -0.81 -0.49c -0.06 -0.06 -0.06 -0.27 0 -0.33c 0.32 0.01 0.72 0.02 1.18 0.02c 0.39 0 0.77 -0.01 1.09 -0.02c 0.06 0.06 0.06 0.27 0 0.33c -0.49 0.04 -0.7 0.02 -0.7 0.49v 0.92h 0.69c 0.14 0 0.29 0.19 0.29 0.31c 0 0.1 -0.04 0.16 -0.15 0.16Z m -1.59 2.88v -2.88h -1.91c 0.51 0.82 1.22 1.94 1.91 2.88Z "/></symbol><symbol id="g53E88946A301F5C1DCEA2C720F6596D3" overflow="visible"><path d="M 0 0m 3.19 1.89c 0 -0.95 -0.5 -1.65 -1.1 -1.65c -0.38 0 -0.51 0.25 -0.66 0.45c -0.13 0.17 -0.3 0.32 -0.51 0.32c -0.19 0 -0.38 -0.17 -0.38 -0.37c 0 -0.41 0.85 -0.75 1.42 -0.75c 1.24 0 2.12 0.92 2.12 2.18c 0 0.97 -0.67 1.84 -1.79 1.84c -0.43 0 -0.8 -0.09 -0.98 -0.16l 0.2 1.67c 0.37 -0.04 0.69 -0.09 1.17 -0.09c 0.3 0 0.64 0.02 1.05 0.06l 0.16 0.68l -0.07 0.04c -0.57 -0.06 -1.11 -0.11 -1.64 -0.11c -0.37 0 -0.73 0.02 -1.08 0.05l -0.34 -2.88c 0.53 0.2 0.91 0.24 1.27 0.24c 0.65 0 1.16 -0.43 1.16 -1.52Z "/></symbol><symbol id="g9CDE2E24D779DEC8C09236644F4BDC06" overflow="visible"><path d="M 0 0m 1.44 3.43c 0.27 0.91 0.91 1.92 2.24 2.42c 0 0.12 -0.04 0.21 -0.12 0.26c -1.01 -0.3 -1.63 -0.72 -2.19 -1.37c -0.62 -0.72 -0.93 -1.63 -0.93 -2.42c 0 -2.03 1.15 -2.43 1.92 -2.43c 1.31 0 1.85 1.27 1.85 2.13c 0 0.86 -0.46 1.63 -1.82 1.63c -0.26 0 -0.65 -0.08 -0.95 -0.22Z m -0.09 -0.36c 0.33 0.22 0.66 0.23 0.83 0.23c 0.98 0 1.2 -0.96 1.2 -1.46c 0 -1.1 -0.42 -1.6 -0.91 -1.6c -0.63 0 -1.2 0.34 -1.2 2.05c 0 0.23 0.02 0.49 0.08 0.78Z "/></symbol><symbol id="gB053ABF9EF71983F202CCECD8EE25F6D" overflow="visible"><path d="M 0 0m 1.7 5.35h 1.79c -0.78 -1.94 -1.57 -3.89 -2.25 -5.41l 0.08 -0.07l 0.68 0.03c 0.57 1.7 1.12 3.36 2.24 6.09l -0.16 0.12c -0.17 -0.05 -0.39 -0.11 -0.77 -0.11h -2.06c -0.34 0 -0.32 0.1 -0.5 0.14c -0.03 0 -0.04 0 -0.04 -0.03c -0.01 -0.48 -0.12 -1.08 -0.2 -1.6c 0.11 -0.03 0.21 -0.04 0.32 -0.03c 0.22 0.8 0.55 0.87 0.87 0.87Z "/></symbol><symbol id="g570774105255CD33C8B695C543E4AB5D" overflow="visible"><path d="M 0 0m 3.93 4.85c 0 0.72 -0.56 1.25 -1.54 1.25c -1.02 0 -1.68 -0.61 -1.68 -1.38c 0 -0.56 0.27 -0.97 0.88 -1.35l 0.26 -0.16c -0.29 -0.15 -0.56 -0.33 -0.81 -0.55c -0.41 -0.36 -0.58 -0.81 -0.58 -1.2c 0 -1.02 0.72 -1.56 1.78 -1.56c 1.31 0 1.95 0.96 1.95 1.72c 0 0.58 -0.25 1.09 -0.78 1.41l -0.71 0.43c 0.47 0.23 1.23 0.75 1.23 1.39Z m -1.67 -4.6c -0.45 0 -1.13 0.31 -1.13 1.21c 0 0.3 0.13 1 0.99 1.57l 0.47 -0.28c 0.62 -0.38 0.87 -0.85 0.87 -1.33c 0 -1 -0.75 -1.17 -1.2 -1.17Z m 0.08 5.5c 0.65 0 0.89 -0.43 0.89 -0.89c 0 -0.54 -0.53 -0.99 -0.8 -1.19l -0.31 0.19c -0.63 0.41 -0.7 0.74 -0.7 1.05c 0 0.46 0.32 0.84 0.92 0.84Z "/></symbol><symbol id="g3822A2BEAC8DE8C499593DEB879DF18A" overflow="visible"><path d="M 0 0m 3.27 2.56c -0.27 -0.91 -0.91 -1.92 -2.24 -2.42c 0 -0.12 0.04 -0.21 0.12 -0.26c 1.01 0.3 1.63 0.72 2.19 1.37c 0.62 0.72 0.93 1.63 0.93 2.42c 0 2.03 -1.15 2.43 -1.92 2.43c -1.31 0 -1.85 -1.27 -1.85 -2.13c 0 -0.86 0.46 -1.63 1.82 -1.63c 0.26 0 0.65 0.08 0.95 0.22Z m 0.09 0.36c -0.33 -0.22 -0.66 -0.23 -0.83 -0.23c -0.98 0 -1.2 0.96 -1.2 1.46c 0 1.1 0.42 1.6 0.91 1.6c 0.63 0 1.2 -0.34 1.2 -2.05c 0 -0.22 -0.02 -0.49 -0.08 -0.78Z "/></symbol><symbol id="g6DFAD7171EBFBAC7EAFD0C61FA59A787" overflow="visible"><path d="M 0 0m 2.28 -0.1c 0.77 0 1.94 0.78 1.94 3.13c 0 0.99 -0.24 1.84 -0.68 2.42c -0.26 0.35 -0.68 0.65 -1.22 0.65c -0.99 0 -1.93 -1.18 -1.93 -3.16c 0 -1.07 0.33 -2.07 0.88 -2.62c 0.28 -0.28 0.62 -0.42 1.01 -0.42Z m 0.04 5.85c 0.17 0 0.33 -0.06 0.45 -0.17c 0.31 -0.26 0.58 -1.02 0.58 -2.36c 0 -0.92 -0.03 -1.55 -0.17 -2.06c -0.22 -0.82 -0.71 -0.91 -0.89 -0.91c -0.93 0 -1.03 1.71 -1.03 2.58c 0 2.46 0.61 2.92 1.06 2.92Z "/></symbol><symbol id="g8F3B43BF00419FE170D741E9CC615A47" overflow="visible"><path d="M 0 0m 5.27 3.73c 0 0.46 -0.45 0.69 -0.95 0.69c -0.43 0 -0.77 -0.23 -1.03 -0.69c -0.21 0.46 -0.56 0.69 -1.07 0.69c -0.49 0 -0.89 -0.23 -1.21 -0.68c -0.27 -0.39 -0.41 -0.68 -0.41 -0.87c 0 -0.09 0.05 -0.14 0.15 -0.14c 0.09 0 0.15 0.05 0.17 0.14c 0.19 0.58 0.61 1.26 1.28 1.26c 0.33 0 0.49 -0.21 0.49 -0.62c 0 -0.21 -0.18 -0.99 -0.53 -2.33c -0.17 -0.67 -0.47 -1 -0.9 -1c -0.14 0 -0.27 0.03 -0.38 0.08c 0.26 0.1 0.39 0.28 0.39 0.54c 0 0.26 -0.13 0.39 -0.4 0.39c -0.33 0 -0.58 -0.28 -0.58 -0.61c 0 -0.46 0.47 -0.69 0.96 -0.69c 0.42 0 0.76 0.23 1.03 0.69c 0.19 -0.46 0.55 -0.69 1.07 -0.69c 0.48 0 0.88 0.23 1.2 0.68c 0.27 0.39 0.41 0.68 0.41 0.87c 0 0.09 -0.05 0.14 -0.15 0.14c -0.09 0 -0.14 -0.05 -0.17 -0.14c -0.17 -0.57 -0.62 -1.26 -1.27 -1.26c -0.33 0 -0.5 0.2 -0.5 0.61c 0 0.13 0.05 0.41 0.16 0.86l 0.34 1.35c 0.19 0.75 0.5 1.13 0.94 1.13c 0.14 0 0.27 -0.03 0.38 -0.08c -0.27 -0.09 -0.4 -0.27 -0.4 -0.54c 0 -0.26 0.14 -0.39 0.41 -0.39c 0.32 0 0.57 0.29 0.57 0.61Z "/></symbol><symbol id="g6517459F2F5EC831542E8F502CD2457A" overflow="visible"><path d="M 0 0m 5.52 6.33c 0 0.44 -0.43 0.72 -0.9 0.72c -0.62 0 -1.05 -0.4 -1.28 -1.19c -0.05 -0.18 -0.16 -0.69 -0.32 -1.53h -0.65c -0.22 0 -0.33 -0.01 -0.33 -0.22c 0 -0.11 0.1 -0.16 0.31 -0.16h 0.6l -0.73 -3.87c -0.11 -0.57 -0.21 -0.99 -0.3 -1.27c -0.12 -0.37 -0.29 -0.56 -0.51 -0.56c -0.15 0 -0.27 0.04 -0.38 0.11c 0.32 0.05 0.48 0.24 0.48 0.56c 0 0.26 -0.13 0.39 -0.4 0.39c -0.34 0 -0.58 -0.3 -0.58 -0.64c 0 -0.44 0.41 -0.72 0.88 -0.72c 0.25 0 0.48 0.1 0.67 0.31c 0.32 0.33 0.57 0.8 0.75 1.43c 0.11 0.39 0.21 0.77 0.28 1.15l 0.58 3.11h 0.82c 0.23 0 0.33 0.01 0.33 0.24c 0 0.09 -0.1 0.14 -0.3 0.14h -0.77c 0.06 0.41 0.34 1.92 0.43 2.11c 0.1 0.21 0.24 0.31 0.42 0.31c 0.15 0 0.28 -0.04 0.39 -0.11c -0.31 -0.07 -0.47 -0.25 -0.47 -0.56c 0 -0.26 0.13 -0.39 0.4 -0.39c 0.34 0 0.58 0.3 0.58 0.64Z "/></symbol><symbol id="gA5379C297008FE083E855C8E8B850A03" overflow="visible"><path d="M 0 0m 3.18 -2.48c 0.09 0 0.14 0.05 0.14 0.14c 0 0.03 -0.02 0.07 -0.05 0.11c -0.52 0.4 -0.94 1.06 -1.25 1.97c -0.27 0.79 -0.41 1.57 -0.41 2.34v 0.84c 0 0.77 0.14 1.55 0.41 2.34c 0.31 0.91 0.73 1.57 1.25 1.97c 0.03 0.03 0.05 0.07 0.05 0.11c 0 0.09 -0.05 0.14 -0.14 0.14c -0.01 0 -0.04 -0.01 -0.07 -0.03c -0.6 -0.46 -1.1 -1.14 -1.51 -2.05c -0.39 -0.87 -0.59 -1.69 -0.59 -2.48v -0.84c 0 -0.79 0.2 -1.61 0.59 -2.48c 0.41 -0.91 0.91 -1.59 1.51 -2.05c 0.03 -0.02 0.06 -0.03 0.07 -0.03Z "/></symbol><symbol id="g62817012A814A947D74F91B268BA3C0F" overflow="visible"><path d="M 0 0m 0.78 -2.45c 0.6 0.46 1.1 1.14 1.51 2.05c 0.39 0.87 0.59 1.69 0.59 2.48v 0.84c 0 0.79 -0.2 1.61 -0.59 2.48c -0.41 0.91 -0.91 1.59 -1.51 2.05c -0.03 0.02 -0.06 0.03 -0.07 0.03c -0.09 0 -0.14 -0.05 -0.14 -0.14c 0 -0.04 0.02 -0.08 0.05 -0.11c 0.52 -0.4 0.94 -1.06 1.25 -1.97c 0.27 -0.79 0.41 -1.57 0.41 -2.34v -0.84c 0 -0.77 -0.14 -1.55 -0.41 -2.34c -0.31 -0.91 -0.73 -1.57 -1.25 -1.97c -0.03 -0.04 -0.05 -0.08 -0.05 -0.11c 0 -0.09 0.05 -0.14 0.14 -0.14c 0.01 0 0.04 0.01 0.07 0.03Z "/></symbol><symbol id="g3CFE6150D025C9FE5B65497FBD971DC1" overflow="visible"><path d="M 0 0m 1.99 6.56c 0 -0.1 0.11 -0.15 0.32 -0.15c 0.4 0 0.6 -0.04 0.6 -0.13c 0 -0.03 -0.02 -0.1 -0.05 -0.23l -1.3 -5.23c -0.06 -0.22 -0.16 -0.35 -0.3 -0.4c -0.07 -0.02 -0.25 -0.03 -0.56 -0.03c -0.22 0 -0.32 -0.02 -0.32 -0.23c 0 -0.11 0.06 -0.16 0.19 -0.16l 1.3 0.03l 1.48 -0.03c 0.16 0 0.24 0.08 0.24 0.23c 0 0.17 -0.11 0.16 -0.37 0.16c -0.44 0 -0.69 0.02 -0.75 0.07c -0.03 0.01 -0.04 0.05 -0.04 0.1l 0.64 2.65h 0.93c 0.46 0 0.78 -0.02 0.78 -0.4c 0 -0.13 -0.02 -0.29 -0.07 -0.48c -0.01 -0.03 -0.02 -0.07 -0.03 -0.11c 0 -0.11 0.05 -0.16 0.16 -0.16c 0.05 0.01 0.12 0.08 0.19 0.23l 0.54 2.15c 0.02 0.08 0.03 0.14 0.03 0.17c -0.03 0.09 -0.09 0.14 -0.16 0.14c -0.08 0 -0.14 -0.08 -0.18 -0.23c -0.1 -0.38 -0.24 -0.62 -0.4 -0.74c -0.16 -0.12 -0.44 -0.18 -0.84 -0.18h -0.85l 0.62 2.46c 0.08 0.34 0.08 0.35 0.5 0.35h 1.3c 0.97 0 1.41 -0.15 1.41 -1.04c 0 -0.2 -0.01 -0.38 -0.03 -0.53c -0.01 -0.11 -0.02 -0.17 -0.02 -0.18c 0 -0.11 0.05 -0.16 0.15 -0.16c 0.1 0 0.16 0.09 0.18 0.28l 0.2 1.71c 0.03 0.28 -0.04 0.31 -0.31 0.31h -4.84c -0.23 0 -0.34 -0.01 -0.34 -0.24Z "/></symbol></defs></svg>