<?xml version="1.0" encoding="UTF-8" standalone="no"?>
<!-- Created with Inkscape (http://www.inkscape.org/) -->

<svg
   version="1.1"
   id="svg2"
   xml:space="preserve"
   width="300.668"
   height="75.983444"
   viewBox="0 0 300.668 75.983441"
   sodipodi:docname="swufefull.svg"
   inkscape:version="1.1.2 (0a00cf5339, 2022-02-04, custom)"
   xmlns:inkscape="http://www.inkscape.org/namespaces/inkscape"
   xmlns:sodipodi="http://sodipodi.sourceforge.net/DTD/sodipodi-0.dtd"
   xmlns="http://www.w3.org/2000/svg"
   xmlns:svg="http://www.w3.org/2000/svg"><defs
     id="defs6"><clipPath
       clipPathUnits="userSpaceOnUse"
       id="clipPath16"><path
         d="M 0,432.584 H 506.58 V 0 H 0 Z"
         id="path14" /></clipPath></defs><sodipodi:namedview
     id="namedview4"
     pagecolor="#ffffff"
     bordercolor="#666666"
     borderopacity="1.0"
     inkscape:pageshadow="2"
     inkscape:pageopacity="0.0"
     inkscape:pagecheckerboard="0"
     showgrid="false"
     fit-margin-top="0"
     fit-margin-left="0"
     fit-margin-right="0"
     fit-margin-bottom="0"
     inkscape:zoom="1.3397168"
     inkscape:cx="-13.435675"
     inkscape:cy="174.66378"
     inkscape:window-width="1920"
     inkscape:window-height="1020"
     inkscape:window-x="0"
     inkscape:window-y="34"
     inkscape:window-maximized="1"
     inkscape:current-layer="g8"
     lock-margins="false" /><g
     id="g8"
     inkscape:groupmode="layer"
     inkscape:label="西南财经大学2"
     transform="matrix(1.3333333,0,0,-1.3333333,-113.38546,462.72611)"><g
       id="g1935"
       transform="matrix(0.67013473,0,0,0.67013473,28.051442,114.47795)"
       inkscape:export-filename="/home/zhongpu/Downloads/g1935.png"
       inkscape:export-xdpi="600"
       inkscape:export-ydpi="600"><g
         id="g18"
         transform="translate(119.8252,334.3456)"><path
           d="M 0,0 C -0.11,0.12 -0.159,0.261 -0.122,0.432 0.012,0.612 0.192,0.708 0.418,0.719 0.65,0.642 0.782,0.471 0.691,0.097 0.414,-0.041 0.183,-0.073 0,0 M -2.159,2.766 C -2.203,2.976 -2.246,3.187 -2.29,3.397 -2.013,3.5 -1.762,3.565 -1.69,3.367 -1.617,3.092 -1.812,2.905 -2.159,2.766 M 3.534,7.145 C 3.506,7.9 2.97,7.834 2.325,7.688 L 2.092,7.636 2.117,7.522 C 2.14,7.422 2.39,6.987 2.457,6.925 L 3.06,4.443 2.846,4.203 2.818,4.231 2.798,4.11 C 2.45,4.019 2.428,3.769 2.241,3.576 2.213,3.548 1.487,3.216 1.419,3.2 1.383,3.111 1.325,3.076 1.345,2.985 L 1.396,2.759 C 1.437,2.581 1.797,2.056 1.955,2.092 l 0.194,0.044 c 0.148,0.033 0.485,0.471 0.52,0.593 L 2.689,2.696 3.355,3.099 C 3.404,3.004 3.423,3.007 3.446,2.904 L 3.642,2.036 C 3.454,1.978 2.808,0.901 2.564,0.841 2.501,0.618 1.857,0.205 1.54,0.134 L 1.501,0.125 C 1.394,0.101 1.401,0.134 1.359,0.211 L 1.165,0.168 C 1.144,0.27 1.237,0.859 1.33,0.88 L 1.603,0.941 C 1.627,1.124 1.712,0.997 1.677,1.157 L 1.463,2.1 1.347,2.074 c -0.09,-0.021 -0.123,0 -0.142,0.087 L 0.992,3.104 0.629,5.163 0.782,5.536 0.736,5.862 C 0.681,6.11 -0.003,6.489 -0.25,6.433 L -0.522,6.372 C -0.677,6.337 -0.734,6.135 -0.842,6.047 -0.874,6.021 -1.247,5.783 -1.254,5.779 -1.56,5.605 -1.863,5.441 -1.777,5.057 l 0.026,-0.113 0.116,0.026 c 0.171,0.039 0.218,0.327 0.562,0.405 l 0.195,0.043 c 0.301,0.068 0.615,-0.194 0.68,-0.481 L 0.117,3.541 C 0.192,3.207 0.322,2.647 0.342,2.33 0.351,2.19 0.18,1.493 0.055,1.464 L -0.022,1.447 C -0.144,1.419 -0.283,1.514 -0.315,1.658 L -0.35,1.81 c 0.098,0.049 0.21,0.158 0.183,0.279 l -0.061,0.264 c -0.023,0.105 -0.274,0.204 -0.408,0.185 l 0.069,0.084 -0.299,0.004 c -0.427,-0.077 -0.318,0.11 -0.516,0.14 L -1.416,2.917 C -1.445,3.047 -1.421,3.07 -1.437,3.19 l 0.338,0.124 0.47,0.098 -0.026,0.113 c 0.124,0.031 0.197,0.032 0.169,0.157 L -0.529,3.871 C -0.59,4.142 -0.689,4.064 -0.748,4.298 -0.96,4.304 -1.127,4.438 -1.497,4.368 -1.801,4.311 -2.126,4.224 -2.431,4.156 -2.574,4.209 -2.673,4.22 -2.883,4.172 L -3.233,4.093 C -3.421,4.051 -3.481,3.915 -3.532,3.788 -3.373,3.083 -3.214,2.379 -3.055,1.675 -2.977,1.331 -2.944,0.914 -2.864,0.646 -2.758,0.289 -2.456,0.361 -2.17,0.289 -2.368,-0.407 -4.068,-0.531 -3.956,-1.027 l 0.018,-0.076 c 0.042,-0.187 0.651,-0.488 0.952,-0.42 l 0.272,0.062 c 0.193,0.043 0.45,0.3 0.773,0.373 0.006,0.14 0.617,0.847 0.857,0.907 0.066,-0.294 -0.123,-0.995 -0.332,-1.066 0.029,-0.25 -0.355,-0.297 -0.316,-0.587 l -0.665,-0.59 0.029,-0.03 c -0.135,-0.031 -0.238,-0.029 -0.207,-0.166 0.025,-0.11 0.274,-0.175 0.401,-0.147 l 0.349,0.079 c 0.471,0.106 0.797,0.75 1.022,1.035 0.179,0.226 0.207,0.471 0.349,0.631 0.127,0.142 0.356,0.396 0.366,0.59 0.443,0.063 0.523,-0.264 0.813,-0.48 0.171,-0.128 0.548,-0.602 0.767,-0.552 l 0.116,0.027 c 0.157,0.035 0.229,0.577 0.245,0.761 0.046,0.524 -0.15,0.41 0.519,0.561 0.145,0.15 0.61,0.351 0.831,0.501 C 3.409,0.525 3.77,0.945 3.88,0.979 L 4.083,0.513 4.248,-0.286 C 4.272,-0.396 4.119,-0.633 4.005,-0.658 L 3.927,-0.676 c -0.383,-0.087 -0.46,0.149 -0.759,0.107 l 0.043,-0.189 c 0.062,-0.276 0.64,-0.507 0.841,-0.641 0.154,-0.104 0.261,-0.13 0.443,-0.287 0.071,-0.063 0.373,-0.284 0.456,-0.266 l 0.116,0.027 c 0.002,0.042 0.269,0.467 0.332,0.611 0.079,0.178 0.004,0.572 -0.088,0.829 C 5.126,0.032 4.968,0.68 4.834,1.274 L 4.698,1.878 C 4.623,2.209 5.472,2.793 5.426,2.995 L 5.375,3.221 5.169,3.312 4.827,3.304 4.75,3.278 C 4.611,3.247 4.626,3.114 4.654,2.979 4.529,2.954 4.462,2.923 4.434,3.048 L 4.281,3.728 C 4.237,3.923 5.448,4.523 5.324,5.074 L 5.282,5.262 C 5.251,5.396 5.106,5.738 4.977,5.709 L 4.821,5.674 C 4.664,5.638 4.628,5.594 4.622,5.471 L 4.467,5.436 C 4.498,5.208 4.271,5.035 4.039,4.982 3.991,4.971 3.904,5.034 3.888,5.106 L 3.82,5.408 C 3.721,5.845 3.549,6.735 3.534,7.145 M -1.899,1.618 -1.474,1.407 c 0.159,0.026 0.603,-0.001 0.636,-0.144 L -0.813,1.149 C -0.76,0.916 -1.137,0.68 -1.272,0.649 L -1.388,0.623 C -1.522,0.593 -1.545,0.617 -1.668,0.599 Z"
           style="fill:#3c73b5;fill-opacity:1;fill-rule:evenodd;stroke:none"
           id="path20" /></g><g
         id="g22"
         transform="translate(108.3389,329.6703)"><path
           d="M 0,0 C 0.084,0.208 0.146,0.237 0.188,0.087 0.224,-0.14 0.306,-0.235 0.466,-0.08 0.567,-0.135 0.653,-0.204 0.623,-0.357 0.594,-0.501 0.518,-0.65 0.38,-0.759 0.273,-0.844 0.181,-0.862 0.112,-0.83 0.021,-0.551 -0.083,-0.272 0,0 m -2.071,5.586 c -0.311,0.361 -0.775,0.28 -0.962,0.526 -0.28,-0.109 -0.582,0.426 -1.451,-0.204 0.034,-0.081 0.02,-0.094 0.08,-0.177 l 0.067,-0.092 c 0.157,-0.216 0.73,-0.205 1.052,-0.65 L -2.838,4.371 C -2.665,4.133 -3.183,3.526 -3.324,3.282 -3.465,3.038 -3.862,2.453 -4.122,2.265 l 0.049,-0.15 C -4.192,1.973 -5.104,1.28 -4.988,1.12 l 0.022,-0.031 c 0.061,-0.083 0.492,-0.164 0.604,-0.194 0.14,-0.039 0.494,-0.046 0.651,0.068 l 0.253,0.184 c -0.021,0.091 0.171,0.452 0.257,0.515 l 0.159,0.115 0.336,-0.464 C -2.629,1.208 -2.449,0.842 -2.553,0.767 L -2.68,0.675 C -2.652,0.559 -3.175,-0.061 -3.327,-0.17 l -0.381,-0.277 c 0.039,-0.162 -0.133,-0.15 -0.024,-0.3 l 0.044,-0.062 c 0.091,-0.126 0.238,0.007 0.427,-0.255 0.093,-0.128 0.342,-0.839 0.282,-0.925 l 0.76,-1.049 c 0.258,-0.356 0.847,-0.893 1.192,-0.643 l 0.096,0.069 c 0.223,0.161 0.23,0.64 0.109,0.786 l -1.486,1.843 c -0.202,0.04 -0.433,0.179 -0.645,0.095 l -0.089,0.123 c 0.194,0.167 0.532,0.621 0.651,0.707 l 0.254,0.184 c 0.086,0.062 0.098,0.049 0.181,0.085 l 0.049,-0.15 c 0.088,-0.024 0.112,-0.005 0.162,-0.075 l 0.089,-0.123 0.304,0.021 -0.128,-0.129 c -0.118,-0.086 -0.055,-0.46 0.058,-0.616 l 0.134,-0.185 c 0.097,-0.133 0.437,-0.107 0.583,-0.002 l 0.286,0.207 c -0.042,0.114 -0.028,0.169 0.101,0.262 l 0.095,0.069 0.067,-0.596 c -0.182,-0.174 -0.23,-0.248 -0.061,-0.482 0.244,-0.337 0.75,-0.343 0.941,-0.496 l 0.127,0.092 0.103,-0.063 0.123,0.085 c 0.134,0.098 -0.003,0.281 0.215,0.439 l 0.032,0.023 c 0.139,0.101 0.609,-0.239 0.733,-0.41 0.209,0.062 0.356,-0.307 0.586,-0.141 l 0.031,0.023 c 0.056,0.041 0.183,0.752 0.097,0.871 L 2.436,-0.703 2.5,-0.657 2.27,-0.26 C 2.257,-0.026 2.15,-0.105 2.263,0.069 2.349,0.203 2.332,0.202 2.374,0.356 2.431,0.566 2.371,0.791 2.209,1.015 2.156,1.088 2.067,1.101 1.992,1.047 L 1.579,0.748 1.535,0.809 1.408,0.717 C 1.285,0.859 1.262,0.784 1.165,0.918 L 1.12,0.98 C 1.07,1.049 1.097,1.066 1.094,1.149 L 1.483,1.555 1.312,1.87 C 1.169,1.808 1.109,1.798 1.01,1.936 0.852,2.153 0.997,2.532 1.003,2.737 1.011,3.028 1.006,3.25 1.337,3.49 L 1.38,3.622 2.235,4.388 2.623,4.657 C 2.748,4.747 2.66,4.613 2.858,4.733 2.996,4.544 3.118,4.482 3.226,4.293 L 3.479,3.866 3.677,2.913 3.822,2.516 3.736,2.451 3.901,1.645 3.867,1.211 3.819,0.948 3.861,0.942 C 3.801,0.875 3.811,0.857 3.725,0.795 L 3.566,0.68 C 3.475,0.753 3.081,0.841 2.907,0.721 3.009,0.585 3.506,0.363 3.661,0.273 3.822,0.18 3.856,0.01 4.019,-0.062 4.147,-0.118 4.25,-0.081 4.417,-0.162 l 0.16,0.116 c 0.084,0.004 0.1,-0.021 0.171,0.03 L 5.002,0.169 C 5.197,0.31 5.089,0.593 5.214,0.746 L 5.103,0.9 C 5.217,1.065 5.032,1.985 5.035,2.291 5.038,2.47 4.768,3.537 4.653,3.727 L 4.749,3.796 C 4.554,4.065 4.584,4.424 4.402,4.675 L 4.157,5.014 C 4.037,5.18 3.969,5.074 3.793,5.315 L 3.698,5.247 C 3.583,5.38 2.918,5.623 2.774,5.519 L 2.647,5.427 C 2.576,5.475 2.484,5.497 2.399,5.435 L 2.082,5.205 1.564,4.718 1.51,4.597 1.023,4.191 C 0.938,4.131 0.581,4.662 0.384,4.706 0.255,4.735 -0.185,4.741 -0.321,4.642 L -0.353,4.619 C -0.427,4.565 -0.442,4.476 -0.391,4.403 l 0.202,-0.278 0.04,-0.48 C -0.35,3.463 -0.058,3.332 -0.207,3.106 -0.229,3.072 -0.625,2.633 -0.647,2.618 l -0.414,-0.3 -0.066,0.093 c -0.034,0.047 -0.179,0.721 -0.168,0.798 0.046,0.334 -0.098,0.508 0.021,0.743 -0.118,0.171 -0.173,0.414 -0.088,0.565 0.042,0.074 0.305,0.437 0.353,0.473 l -0.028,0.118 c 0.211,0.163 0.4,0.445 0.543,0.636 0.057,0.075 0.298,0.599 0.236,0.684 L -0.325,6.521 C -0.365,6.576 -1.103,6.71 -1.16,6.669 L -1.573,6.37 C -1.693,6.283 -1.672,6.209 -1.811,6.045 -1.897,5.946 -1.987,5.835 -1.912,5.701 Z M -2.94,2.039 c -0.083,0.113 0.415,0.842 0.589,0.991 l 0.09,-0.124 c 0.108,-0.149 0.142,-0.99 0.267,-1.171 L -2.007,1.694 -2.819,1.916 Z m 1.921,-0.915 c 0.11,0.218 0.567,0.693 0.851,0.899 l 0.159,0.115 C 0.19,1.849 0.058,1.547 0.184,1.337 L -0.599,0.614 -0.767,0.508 Z"
           style="fill:#3c73b5;fill-opacity:1;fill-rule:evenodd;stroke:none"
           id="path24" /></g><g
         id="g26"
         transform="translate(159.3794,322.163)"><path
           d="M 0,0 C -0.321,0.214 -0.366,0.472 -0.022,0.703 0.277,0.582 0.576,0.47 0.874,0.374 0.999,0.347 1.059,0.469 1.123,0.583 1.273,0.768 1.412,0.73 1.538,0.37 1.597,0.173 1.549,0.038 1.268,0.04 0.837,0.053 0.415,0.04 0,0 m -1.281,0.871 c -0.108,0.045 -0.181,0.198 -0.251,0.368 0.156,0.116 0.32,0.195 0.491,0.248 0.133,-0.104 0.224,-0.238 0.27,-0.404 C -0.854,0.861 -1.034,0.809 -1.281,0.871 M -1.323,0.119 c 0.083,0.189 0.236,0.246 0.42,0.241 0.133,-0.071 0.231,-0.183 0.245,-0.387 -0.025,-0.341 -0.094,-0.523 -0.261,-0.359 -0.18,0.128 -0.318,0.294 -0.404,0.505 m -1.866,2.315 c 0.131,-0.034 0.22,-0.12 0.25,-0.278 -0.082,-0.117 -0.192,-0.171 -0.33,-0.162 -0.149,0.058 -0.209,0.171 -0.237,0.303 0.084,0.1 0.177,0.177 0.317,0.137 M 0.353,2.477 C 0.412,2.508 0.721,2.45 0.979,2.622 L 1.406,2.896 C 1.392,3.061 1.778,3.28 1.526,3.765 1.454,3.905 0.496,3.26 0.292,3.439 -0.005,3.285 -0.344,3.334 -0.665,3.168 L -0.803,3.096 C -0.784,2.918 -1.113,2.764 -1.016,2.579 -0.949,2.449 -0.833,2.417 -0.698,2.473 -0.624,2.384 -0.464,2.276 -0.447,2.242 -0.417,2.183 -0.486,2.075 -0.511,2.028 L -1.257,1.85 -1.315,1.972 c -0.068,0.13 -0.047,0.484 -0.008,0.591 0.101,0.274 -0.072,0.322 -0.218,0.602 l 0.691,0.359 c -0.041,0.181 0.076,0.361 -0.014,0.534 L -0.956,4.236 C -1.042,4.402 -1.274,4.522 -1.452,4.43 L -1.486,4.412 C -1.56,4.374 -1.504,3.815 -1.73,3.698 L -1.834,3.645 -4.019,2.617 -4.187,2.619 -4.335,2.887 c 0.225,0.116 0.256,0.042 0.452,0.144 l 0.344,0.179 0.428,0.274 -0.032,0.033 0.241,0.23 0.026,0.159 0.123,0.073 c 0.155,0.081 0.376,0.358 0.335,0.537 L -3.009,4.302 -3.096,4.39 C -3.386,4.239 -3.533,4.297 -3.844,4.136 L -3.913,4.1 -4.617,3.681 C -4.594,3.57 -4.737,3.22 -4.799,3.188 -4.893,3.139 -5.61,3.736 -5.657,3.826 c -0.05,0.096 0.553,0.709 0.449,0.911 L -5.264,4.843 C -5.447,4.798 -5.68,4.734 -5.809,4.877 -6.012,4.777 -6.165,4.827 -6.451,4.678 L -6.624,4.588 -7.327,4.169 -7.293,4.105 -7.397,4.051 C -7.476,4.011 -7.459,3.983 -7.5,3.908 -8.066,3.613 -7.844,3.405 -8.18,3.193 l 0.055,-0.107 -0.103,-0.053 0.092,-0.178 0.023,0.032 0.186,-0.137 0.365,0.045 0.01,-0.053 1.339,0.633 0.285,-0.548 c 0.132,-0.253 0.381,-0.188 0.549,-0.307 0.181,-0.129 0.305,-0.269 0.493,-0.399 0.221,-0.154 0.327,-0.16 0.514,-0.425 0.003,-0.005 0.471,-0.407 0.487,-0.416 0.392,-0.225 0.661,-0.445 1.043,-0.704 0.155,-0.105 0.355,-0.258 0.501,-0.37 0.165,-0.128 0.102,-0.145 0.226,-0.313 0.076,-0.102 0.198,-0.14 0.231,-0.205 l 0.13,-0.249 c 0.116,0.011 0.158,-0.051 0.233,-0.194 l 0.055,-0.107 c 0.044,-0.083 0.017,-0.172 -0.065,-0.214 -0.081,-0.043 -0.373,0.083 -0.45,0.149 -0.103,0.087 -0.327,0.323 -0.386,0.366 -0.084,0.061 -0.146,0.041 -0.232,0.103 -0.089,0.063 -0.077,0.097 -0.183,0.169 -0.075,0.053 -0.173,0.089 -0.223,0.129 -0.061,0.05 -0.107,0.127 -0.179,0.182 C -3.322,0.13 -3.927,0.558 -3.991,0.635 -4.136,0.811 -4.61,1.372 -4.767,1.353 -4.844,1.501 -5.074,1.961 -5.22,1.885 L -5.358,1.813 C -5.343,1.777 -5.398,1.16 -5.407,1.065 L -5.229,0.616 -5.201,0.585 C -5.094,0.378 -4.96,0.457 -4.805,0.158 l 0.203,-0.095 0.083,-0.118 c 0.071,-0.136 0.393,-0.02 0.644,-0.478 l -0.138,-0.071 c -0.025,-0.013 -0.726,0.049 -0.795,0.072 -0.213,0.071 -0.535,0.207 -0.674,0.474 l -0.104,-0.054 c -0.097,-0.05 -0.002,-0.363 -0.336,-0.536 l -0.345,-0.18 c -0.083,-0.043 -0.327,0.038 -0.372,0.124 l -0.055,0.107 C -6.868,-0.612 -7.737,0.227 -7.88,0.503 -8.013,0.578 -8.121,0.63 -8.221,0.822 L -8.387,1.143 C -8.498,1.115 -8.465,1.147 -8.544,1.106 -8.665,1.043 -8.612,0.809 -8.691,0.713 c 0.19,-0.366 0.04,-0.325 0.138,-0.605 0.067,-0.19 0.142,-0.402 -0.037,-0.516 0.023,-0.09 0.007,-0.1 0.057,-0.196 l 0.055,-0.107 c 0.164,-0.313 0.235,-0.014 0.546,-0.321 0.172,-0.171 0.322,-0.251 0.458,-0.513 l 0.056,-0.106 -0.622,-0.323 -0.037,0.071 -0.069,-0.036 -0.051,-10e-4 -0.03,0.642 -1.288,-0.791 c -0.061,-0.073 -0.184,-0.239 -0.124,-0.355 0.143,-0.276 0.27,-0.271 0.46,-0.409 0.192,-0.136 0.353,0.014 0.536,-0.157 l 0.104,0.053 c 0.109,0.058 0.099,-0.044 0.325,0.014 0.216,0.056 0.113,0.067 0.304,0.043 l 1.318,0.587 0.034,-0.066 0.103,0.054 c 0.161,-0.188 0.58,-0.523 0.649,-0.657 l 0.277,-0.534 C -5.351,-3.5 -5.297,-3.757 -5,-3.602 l 0.552,0.287 c 0.182,0.095 0.166,0.258 0.323,0.393 l -0.204,0.392 c -0.102,0.196 -0.833,0.591 -0.895,0.709 l -0.074,0.142 c -0.058,0.113 0.246,0.355 0.253,0.357 l 0.297,0.102 c 0.036,-0.035 0.617,-0.221 0.712,-0.237 0.146,-0.024 0.655,-0.039 0.798,0.036 l 0.207,0.107 c 0.213,0.111 0.144,0.277 0.357,0.412 l 0.168,-0.111 0.121,-0.191 0.138,-0.025 c 0.146,-0.27 0.29,-0.331 0.479,-0.539 0.148,-0.162 0.281,-0.439 0.424,-0.63 0.331,-0.439 0.5,-0.896 1.039,-0.616 l 0.104,0.054 c 0.292,0.152 0.715,0.49 0.504,0.804 l -0.505,0.775 -0.008,0.043 c -0.058,0.112 -0.136,0.312 -0.009,0.356 l 0.955,0.355 c 0.233,-0.128 0.99,0.074 1.285,-0.276 l 0.138,0.072 C 2.612,-0.595 3.026,0.287 2.8,0.722 2.74,0.837 2.178,1.075 2.09,1.076 L 1.242,1.926 1.086,2.026 0.997,1.999 C 0.902,1.95 0.661,1.477 0.681,1.338 L 0.543,1.266 C 0.346,1.164 -0.349,1.04 -0.437,1.209 L -0.474,1.28 c -0.059,0.115 0.034,0.243 0.15,0.303 l 0.173,0.09 C 0.082,1.794 0.104,1.58 0.425,1.747 L 0.563,1.819 0.249,2.423 Z m -2.856,0.007 c 0.162,0.084 0.506,0.125 0.616,-0.087 L -1.851,2.326 C -1.809,2.247 -1.837,2.234 -1.845,2.148 -1.781,2.024 -1.714,1.945 -1.838,1.881 L -1.977,1.809 C -2.028,1.782 -2.589,1.637 -2.622,1.699 -2.824,2.089 -2.695,2.143 -2.745,2.358 Z"
           style="fill:#3c73b5;fill-opacity:1;fill-rule:evenodd;stroke:none"
           id="path28" /></g><g
         id="g30"
         transform="translate(148.9521,334.4409)"><path
           d="M 0,0 C -0.11,0.225 0.073,0.123 -0.124,0.414 -0.199,0.526 -0.359,0.701 -0.485,0.791 L -0.519,0.814 C -0.609,0.878 -0.714,0.823 -0.768,0.747 -0.878,0.591 -1.026,0.361 -0.932,0.229 L -1.385,-0.57 c -0.111,-0.184 -0.414,-0.421 -0.581,-0.663 -0.396,-0.575 -0.374,-0.017 -0.612,-0.299 -0.121,0.082 -0.554,0.252 -0.696,0.309 -0.174,0.069 -0.543,0.313 -0.681,0.227 -0.294,0.207 -0.542,0.237 -0.738,0.376 l -0.168,0.118 -0.046,-0.065 -0.368,0.259 c -0.135,0.096 -0.326,0.178 -0.416,0.051 l -0.046,-0.065 c -0.25,-0.354 -0.002,-0.488 -0.179,-0.751 0.069,-0.133 0.151,-0.496 0.285,-0.591 l 0.2,-0.142 c 0.055,-0.038 0.261,-0.108 0.412,-0.185 0.29,-0.147 0.188,0.017 0.339,0.051 0.05,0.011 0.716,-0.22 0.776,-0.262 l 0.167,-0.118 0.069,0.098 c 0.087,-0.036 0.1,-0.023 0.189,-0.087 l 0.269,-0.189 c 0.077,-0.054 0.084,-0.093 0.031,-0.168 l -0.207,-0.292 -0.781,-0.361 c -0.049,0.003 -0.991,-0.13 -1.156,-0.151 -0.523,-0.065 -0.712,0.03 -1.199,0.048 -0.318,0.224 -0.4,0.088 -0.728,0.319 l -0.134,0.095 -0.046,-0.065 -0.335,0.236 c -0.111,0.079 -0.138,0.011 -0.214,-0.09 0.16,-0.179 0.281,-0.784 0.459,-0.911 l 0.101,-0.071 -0.046,-0.065 0.339,-0.299 c 0.421,-0.369 0.682,-0.289 0.996,-0.318 0.171,-0.015 0.324,-0.087 0.48,-0.082 0.101,0.003 0.332,0.019 0.435,0.005 0.224,-0.033 0.716,0.015 0.91,0.101 0.101,0.045 0.8,0.329 0.845,0.296 l 0.134,-0.094 -0.069,-0.097 c 0.067,-0.057 0.353,-1.002 0.423,-1.177 0.2,-0.141 0.3,-0.244 0.196,-0.431 0.299,-0.25 0.21,-0.513 0.352,-0.638 l -0.161,-0.228 c -0.166,0.069 -0.637,0.376 -0.717,0.264 -0.124,-0.178 0.623,-0.807 0.718,-1.044 l 0.167,-0.118 c -0.001,-0.11 0.11,-0.37 0.23,-0.455 l 0.435,-0.308 c 0.146,-0.103 0.412,-0.197 0.506,-0.065 l 0.069,0.098 c 0.206,0.292 0.168,0.45 0.359,0.721 -0.109,0.209 -0.414,0.659 -0.337,0.872 l -0.134,0.095 c 0.013,0.103 -0.187,0.708 -0.253,0.826 -0.131,0.232 -0.033,0.217 -0.109,0.417 -0.048,0.125 -0.109,0.211 -0.169,0.378 -0.058,0.165 -0.06,0.231 -0.132,0.412 -0.051,0.129 -0.124,0.244 -0.19,0.404 -0.078,0.184 -0.22,0.161 -0.254,0.394 -0.022,0.148 -0.126,0.321 -0.076,0.392 l 0.183,0.26 c 0.402,0.569 0.63,0.218 1.096,0.201 l 0.134,-0.095 c 0.2,-0.007 0.993,-0.304 1.243,-0.437 C 0.319,-3.796 0.58,-3.903 0.82,-4.022 1.164,-4.193 1.212,-3.955 1.397,-4 l 0.184,0.26 c 0.197,0.28 0.288,0.674 0.012,0.869 l -0.134,0.095 c -0.024,0.017 -0.375,0.017 -0.535,0.067 -0.195,0.061 -0.327,0.072 -0.525,0.164 -0.265,0.123 -0.861,0.515 -1.061,0.39 l -0.2,0.141 c -0.165,0.117 0.212,0.479 0.349,0.621 0.045,0.047 0.213,0.235 0.271,0.256 0.112,0.04 0.166,-0.048 0.295,0.134 l 0.092,0.13 C 0.22,-0.766 0.05,-0.103 0,0"
           style="fill:#3c73b5;fill-opacity:1;fill-rule:evenodd;stroke:none"
           id="path32" /></g><g
         id="g34"
         transform="translate(98.2686,316.0678)"><path
           d="M 0,0 C 0.355,0.003 0.682,0.168 0.998,0.25 1.274,0.322 1.187,0.344 1.512,0.37 1.775,0.39 1.782,0.393 2.035,0.462 2.263,0.525 2.294,0.458 2.54,0.614 2.699,0.714 2.909,0.755 2.981,0.89 L 3.038,0.995 C 3.115,1.137 2.886,1.363 3.032,1.633 L 3.126,1.808 3.247,1.786 3.51,2.03 3.535,1.996 3.762,2.417 C 3.85,2.579 3.756,2.556 3.865,2.769 L 3.763,2.824 4.08,3.513 4.145,3.615 4.077,3.651 4.437,4.318 C 4.516,4.465 5.021,4.901 5.14,4.889 L 5.292,5.17 C 5.422,5.411 4.987,6.034 5.02,6.366 5.034,6.514 4.727,7.424 4.638,7.527 4.368,7.842 3.696,9.449 3.908,9.859 3.751,10.008 3.806,10.367 3.653,10.45 3.167,10.712 2.852,10.366 2.467,10.357 1.909,10.344 2.31,10.287 1.912,10.176 1.71,10.119 1.5,10.212 1.366,9.963 L 1.271,9.787 1.102,9.381 1.165,9.346 1.051,9.135 C 0.993,9.028 1.027,8.421 0.957,8.145 0.921,8.007 0.873,7.148 0.624,7.282 L 0.487,7.356 C 0.238,7.491 0.372,7.69 0.056,7.861 L -0.013,7.897 C -0.269,8.036 -0.365,7.806 -0.535,7.599 -0.574,7.55 -1.007,7.197 -1.02,7.173 L -1.153,6.927 -1.055,6.783 C -0.578,6.526 0.224,6.01 0.436,5.709 0.542,5.56 0.478,5.176 0.458,4.959 0.439,4.749 0.355,4.73 0.309,4.533 0.271,4.369 0.32,4.276 0.244,4.134 0.234,4.116 0.154,4.083 0.12,4.065 -1.199,4.777 -0.881,3.654 -1.232,3.844 -1.4,3.935 -1.537,4.55 -1.456,4.735 l -0.04,-0.013 -0.167,0.589 0.04,0.012 c -0.152,0.1 -0.506,0.854 -0.427,1.001 l 0.473,0.877 c 0.193,0.358 0.385,0.603 0.548,0.93 0.079,0.158 0.193,0.755 0.05,0.831 L -1.216,9.091 C -1.472,9.229 -2.108,9.315 -2.228,9.093 L -2.36,8.848 -2.795,7.86 -2.736,7.827 -2.925,7.476 -3.828,5.518 -4.357,4.579 C -4.292,4.521 -4.289,4.491 -4.242,4.463 L -3.74,4.255 c 0.101,0.065 0.595,0.136 0.792,0.244 0.087,0.16 0.203,0.524 0.368,0.435 0.076,-0.041 0.059,-0.068 0.098,-0.143 l 0.17,-0.092 C -2.222,4.522 -2.048,4.118 -1.984,3.928 -1.857,3.549 -1.921,3.55 -1.679,3.179 L -1.717,3.109 -1.615,3.054 -1.702,2.698 -1.468,2.514 -1.419,2.242 C -1.577,1.884 -1.262,1.828 -1.512,1.368 -1.863,0.722 -1.629,0.829 -1.726,0.485 l 0.153,-0.238 0.147,-0.104 c 0.006,-0.074 -0.012,-0.13 0.079,-0.179 l 0.307,-0.166 c 0.191,0.22 0.273,0.155 0.504,0.156 C -0.361,-0.044 -0.128,-0.001 0,0 M 2.123,8.104 C 2.111,8.147 2.1,8.224 2.131,8.281 L 2.207,8.421 2.343,8.348 C 2.434,8.298 2.416,8.243 2.422,8.169 2.639,8.052 2.887,7.379 2.903,7.184 3.088,7.084 3.32,6.62 3.409,6.441 3.491,6.278 3.548,6.198 3.626,6.043 3.722,5.855 3.632,5.709 3.782,5.713 3.74,5.543 3.817,5.615 3.755,5.501 L 3.698,5.396 C 3.65,5.308 3.477,5.292 3.33,4.96 3.25,4.777 3.206,4.646 3.081,4.416 L 3.005,4.275 C 2.961,4.194 2.924,4.183 2.846,4.225 2.77,4.266 2.854,4.6 2.607,4.762 L 2.645,4.921 C 2.471,5.037 2.229,5.5 2.116,5.655 1.943,5.896 1.522,6.093 1.684,6.393 L 1.741,6.498 C 1.684,6.567 1.782,7.134 1.799,7.274 1.835,7.549 1.954,7.79 2.123,8.104 M -0.862,1.922 c -0.015,0.191 -0.028,0.436 0.099,0.672 0.01,0.018 0.091,0.051 0.125,0.068 0.253,-0.137 0.34,-0.047 0.5,-0.134 C -0.02,2.464 -0.139,1.957 -0.165,1.909 L -0.317,1.628 C -0.362,1.543 -0.749,1.544 -0.79,1.566 L -0.858,1.603 C -0.934,1.644 -0.917,1.671 -0.957,1.747 Z M 1.096,3.674 C 0.963,3.746 1.249,4.772 1.324,4.911 1.34,4.942 1.399,4.96 1.43,4.944 1.782,4.754 2.66,3.718 2.498,3.416 L 2.422,3.276 1.741,3.469 C 1.626,3.488 1.347,3.539 1.198,3.619 Z M 0.562,1.788 C 0.666,2.021 0.581,2.23 0.657,2.371 l 0.038,0.07 c 0.053,0.1 0.166,0.073 0.265,0.084 L 1.445,2.373 1.537,2.437 C 1.679,2.367 2.153,2.424 2.209,2.394 2.302,2.344 2.294,2.326 2.36,2.267 2.238,2.028 2.354,2.009 2.254,1.826 2.205,1.734 0.882,1.615 0.767,1.678 Z"
           style="fill:#3c73b5;fill-opacity:1;fill-rule:evenodd;stroke:none"
           id="path36" /></g><g
         id="g38"
         transform="translate(137.4785,336.999)"><path
           d="M 0,0 C 0.319,0.073 0.674,0.058 1.077,-0.076 1.247,-0.237 1.246,-0.375 1.072,-0.489 0.818,-0.677 0.368,-0.662 -0.135,-0.58 -0.146,-0.43 -0.092,-0.239 0,0 m -3.167,-3.245 c -0.137,0.145 1.277,0.589 1.239,0.442 l -0.171,-0.661 c -0.406,0.039 -0.775,0.123 -1.068,0.219 m -2.495,4.714 c 0.127,0.405 0.962,0.902 1.27,1.055 0.108,0.054 1.485,0.564 1.506,0.562 l 0.047,0.146 c 0.02,0.064 -0.073,0.203 -0.1,0.32 C -2.967,3.675 -2.94,3.767 -2.979,3.869 -3.023,3.984 -3.198,4.303 -3.355,4.356 -3.351,4.48 -3.496,4.601 -3.636,4.645 -3.759,4.684 -4.547,3.797 -4.979,3.782 L -5.013,3.673 C -5.076,3.473 -6.617,2.541 -6.81,2.551 L -6.844,2.441 C -6.974,2.027 -6.889,1.959 -6.798,1.665 -6.855,1.484 -6.842,1.318 -6.676,1.266 L -6.6,1.242 c 0.164,-0.052 0.16,0.03 0.323,-0.021 L -5.976,1.127 C -6.17,0.505 -6.716,0.741 -6.872,0.244 l -0.034,-0.11 0.075,-0.023 -0.068,-0.219 c -0.12,-0.381 0.097,-0.428 0.054,-0.619 0.211,-0.122 0.061,-0.179 0.293,-0.252 l 0.037,-0.011 c 0.168,-0.053 0.903,0.378 0.932,0.469 l 0.057,0.184 c 0.219,0.007 0.26,0.233 0.543,0.15 -0.188,-0.314 -0.301,-0.261 0.096,-0.351 l -0.374,-0.599 -0.825,-0.656 -0.134,0.029 0.115,0.365 c 0.032,0.104 0.007,0.07 -0.042,0.133 l -0.972,-1.29 c 0.266,-0.197 0.009,-0.493 0.528,-0.656 l -0.023,-0.073 0.587,-0.232 c 0.215,-0.08 0.781,0.751 0.906,0.991 0.199,0.382 0.444,1.075 0.582,1.519 l 0.058,0.182 c 0.287,-0.014 0.915,0.235 0.938,0.228 l 0.037,-0.012 c 0.145,-0.045 0.077,-0.305 0.372,-0.397 l 0.075,-0.023 c 0.112,-0.035 0.261,0.081 0.306,0.184 l 0.225,-0.07 c -0.042,-0.609 0.165,-0.876 0.801,-1.133 l -0.091,-0.293 -0.113,0.036 -0.521,-0.426 -0.139,0.031 c -0.091,0.028 -0.725,-0.222 -0.824,-0.265 -0.187,-0.083 -0.666,-0.047 -0.947,0.018 -0.045,-0.077 -0.064,-0.073 -0.095,-0.172 L -4.468,-3.155 C -4.545,-3.402 -4.5,-3.987 -4.182,-4.086 l 0.376,-0.119 c 0.359,-0.111 1.144,-0.037 1.257,-0.073 l 0.189,-0.058 0.07,0.099 c 0.245,-0.078 0.424,-0.014 0.487,-0.034 l 0.827,-0.259 c 0.551,-0.172 0.23,-0.352 0.447,-0.42 l 0.413,-0.129 0.463,-0.102 c 0.103,0.026 0.313,0.074 0.354,0.207 l 0.114,0.365 c 0.024,0.076 -0.011,0.405 -0.148,0.448 l -0.414,0.13 -1.405,0.39 0.197,0.629 0.16,0.051 0.363,-0.094 c 0.226,-0.071 0.645,0.082 0.713,0.298 l 0.034,0.11 c 0.045,0.143 -0.056,0.021 -0.006,0.242 -0.19,0.111 -0.061,0.195 -0.375,0.426 -0.098,0.072 -0.425,0.317 -0.394,0.417 l 0.138,0.437 c 0.024,0.079 0.116,0.136 0.196,0.1 l 0.724,-0.32 0.193,-0.048 0.35,-0.065 c 0.22,0.209 0.184,-0.087 0.427,0.246 0.121,0.165 0.165,0.361 0.339,0.353 L 2.01,-0.532 H 2.134 L 2.429,0.259 C 2.496,0.449 2.418,0.905 2.23,0.964 1.862,1.079 1.193,0.847 0.713,0.998 0.656,0.953 0.629,0.904 0.528,0.935 L 0.34,0.994 0.466,1.396 C 0.52,1.566 0.276,1.558 0.354,1.831 0.534,1.795 0.599,1.956 0.788,1.896 0.976,1.838 1.227,1.738 1.396,1.649 1.633,1.526 1.711,1.598 1.928,1.58 l 0.08,0.255 C 2.072,2.041 2.003,2.189 2.017,2.394 L 1.905,2.429 C 1.949,2.63 1.822,2.736 1.608,2.803 L 1.533,2.826 C 1.296,2.9 0.962,2.859 0.659,2.884 0.202,2.921 0.189,3.042 -0.209,2.931 L -2.058,3.357 C -2.105,3.273 -2.124,3.277 -2.155,3.179 L -2.224,2.959 C -2.307,2.692 -2.175,2.182 -1.914,2.101 L -1.688,2.03 C -1.751,1.83 -1.945,1.593 -2.112,1.602 L -2.157,1.455 C -2.539,1.39 -2.101,1.229 -2.712,1.212 -2.718,1.212 -3.01,1.173 -3.033,1.169 -3.136,1.153 -3.222,1.089 -3.263,0.958 L -3.354,0.667 -3.279,0.644 -3.37,0.351 -3.483,0.386 -3.541,0.204 -3.623,-0.211 -4.069,-0.372 -4.321,-0.314 c -0.043,0.014 -0.265,0.255 -0.357,0.313 l 0.069,0.219 c 0.031,0.099 0.843,0.484 0.894,0.482 l 0.172,0.548 C -3.532,1.287 -3.835,1.925 -3.864,2.07 L -4.339,2.265 -4.419,2.167 -4.564,2.208 -4.644,1.953 -4.756,1.988 C -4.894,1.654 -5.258,1.676 -5.437,1.398 Z m 4.211,0.527 c 0.148,0.026 0.287,0.03 0.485,-0.032 l 0.151,-0.047 c 0.127,-0.04 0.242,-0.147 0.206,-0.265 l -0.195,-0.621 -0.438,0.04 c -0.143,-0.024 -0.254,-0.064 -0.458,0 l -0.263,0.083 0.435,0.673 z M -2.294,0.095 c 0.076,0.242 0.378,0.177 0.601,0.157 0.172,-0.015 0.664,-0.072 0.607,-0.255 l -0.297,-0.95 C -1.422,-1.075 -1.53,-1.187 -1.652,-1.15 l -0.3,0.094 c -0.482,0.151 -0.548,0.494 -0.4,0.968 z"
           style="fill:#3c73b5;fill-opacity:1;fill-rule:evenodd;stroke:none"
           id="path40" /></g><g
         id="g42"
         transform="translate(127.5591,345.3876)"><path
           d="m 0,0 c -22.532,0 -40.863,-18.331 -40.863,-40.863 0,-22.531 18.331,-40.862 40.863,-40.862 22.532,0 40.863,18.331 40.863,40.862 C 40.863,-18.331 22.532,0 0,0 m 0,-83.382 c -11.357,0 -22.035,4.423 -30.066,12.454 -8.031,8.031 -12.454,18.708 -12.454,30.065 0,11.358 4.423,22.035 12.454,30.066 8.031,8.031 18.709,12.454 30.066,12.454 11.357,0 22.035,-4.423 30.066,-12.454 8.031,-8.031 12.453,-18.708 12.453,-30.066 0,-11.357 -4.422,-22.034 -12.453,-30.065 C 22.035,-78.959 11.357,-83.382 0,-83.382"
           style="fill:#3c73b5;fill-opacity:1;fill-rule:nonzero;stroke:none"
           id="path44" /></g><g
         id="g46"
         transform="translate(93.6611,307.3305)"><path
           d="m 0,0 c 0.07,-0.008 0.139,-0.013 0.204,-0.013 0.244,0 0.455,0.058 0.629,0.173 0.196,0.132 0.369,0.358 0.514,0.668 0.046,0.089 0.094,0.176 0.15,0.275 C 1.539,1.218 1.623,1.325 1.743,1.42 1.856,1.508 1.998,1.541 2.168,1.521 2.378,1.496 2.537,1.422 2.651,1.292 2.753,1.178 2.794,1.045 2.776,0.889 2.756,0.72 2.675,0.592 2.526,0.495 2.364,0.386 2.151,0.345 1.897,0.371 L 1.825,0.378 1.769,-0.104 1.843,-0.112 c 0.07,-0.007 0.139,-0.011 0.205,-0.011 0.301,0 0.559,0.074 0.769,0.219 C 3.068,0.27 3.213,0.511 3.248,0.814 3.282,1.106 3.204,1.37 3.016,1.598 2.825,1.828 2.561,1.964 2.23,2.002 1.913,2.039 1.65,1.983 1.449,1.834 1.286,1.713 1.131,1.498 0.976,1.176 0.832,0.876 0.694,0.678 0.564,0.584 0.437,0.489 0.25,0.455 0.013,0.482 -0.2,0.507 -0.362,0.59 -0.482,0.736 c -0.116,0.133 -0.163,0.281 -0.143,0.451 0.024,0.21 0.122,0.369 0.299,0.485 0.186,0.126 0.423,0.172 0.706,0.14 L 0.453,1.803 0.509,2.286 0.41,2.297 C -0.01,2.346 -0.361,2.272 -0.634,2.077 -0.901,1.886 -1.057,1.607 -1.099,1.246 -1.135,0.938 -1.053,0.662 -0.854,0.427 -0.65,0.186 -0.363,0.042 0,0"
           style="fill:#3c73b5;fill-opacity:1;fill-rule:nonzero;stroke:none"
           id="path48" /></g><g
         id="g50"
         transform="translate(92.832,305.9384)"><path
           d="M 0,0 C 0.008,0.192 0.154,0.337 0.445,0.444 0.711,0.539 1.063,0.587 1.489,0.587 1.57,0.587 1.653,0.585 1.74,0.582 2.281,0.561 2.711,0.478 3.018,0.338 3.297,0.208 3.429,0.054 3.421,-0.135 3.414,-0.328 3.27,-0.477 2.98,-0.589 2.667,-0.711 2.231,-0.763 1.687,-0.741 1.145,-0.72 0.715,-0.634 0.41,-0.488 0.126,-0.353 -0.007,-0.193 0,0 m 0.105,-0.846 c 0.381,-0.216 0.907,-0.34 1.563,-0.366 0.082,-0.003 0.162,-0.004 0.239,-0.004 0.551,0 1.007,0.082 1.355,0.246 0.405,0.19 0.617,0.465 0.631,0.816 C 3.907,0.194 3.716,0.482 3.326,0.701 2.946,0.908 2.418,1.026 1.758,1.053 1.101,1.079 0.568,1.002 0.172,0.826 -0.241,0.639 -0.458,0.367 -0.472,0.019 c -0.013,-0.352 0.18,-0.643 0.577,-0.865"
           style="fill:#3c73b5;fill-opacity:1;fill-rule:nonzero;stroke:none"
           id="path52" /></g><g
         id="g54"
         transform="translate(93.5225,302.2534)"><path
           d="m 0,0 c 0.023,0 0.046,0 0.07,0.001 l 3.069,0.11 -0.016,0.471 -3.07,-0.11 c -0.24,-0.009 -0.427,0.043 -0.555,0.155 -0.12,0.102 -0.181,0.24 -0.187,0.42 -0.007,0.181 0.044,0.322 0.156,0.432 C -0.41,1.6 -0.228,1.665 0.01,1.674 L 3.08,1.784 3.063,2.255 -0.006,2.145 C -0.383,2.131 -0.68,2.014 -0.889,1.797 -1.084,1.595 -1.178,1.337 -1.167,1.03 -1.156,0.727 -1.044,0.476 -0.834,0.286 -0.625,0.096 -0.344,0 0,0"
           style="fill:#3c73b5;fill-opacity:1;fill-rule:nonzero;stroke:none"
           id="path56" /></g><g
         id="g58"
         transform="translate(96.4468,299.8989)"><path
           d="M 0,0 0.475,0.053 0.226,2.291 -0.249,2.238 -0.151,1.355 -3.807,0.949 -3.755,0.481 -0.099,0.887 Z"
           style="fill:#3c73b5;fill-opacity:1;fill-rule:nonzero;stroke:none"
           id="path60" /></g><g
         id="g62"
         transform="translate(97.2939,297.976)"><path
           d="m 0,0 -1.711,-0.334 -0.228,1.166 1.712,0.334 -0.09,0.462 -4.079,-0.795 0.089,-0.463 1.904,0.372 0.228,-1.166 -1.904,-0.372 0.09,-0.462 4.079,0.795 z"
           style="fill:#3c73b5;fill-opacity:1;fill-rule:nonzero;stroke:none"
           id="path64" /></g><g
         id="g66"
         transform="translate(98.3975,294.039)"><path
           d="m 0,0 -2.84,-0.489 2.575,1.335 -0.217,0.692 -2.882,-0.355 2.617,1.201 -0.191,0.609 -3.771,-1.863 0.188,-0.603 3.087,0.346 -2.742,-1.445 0.2,-0.639 4.16,0.624 z"
           style="fill:#3c73b5;fill-opacity:1;fill-rule:nonzero;stroke:none"
           id="path68" /></g><g
         id="g70"
         transform="translate(96.7705,292.0102)"><path
           d="M 0,0 0.574,-1.342 1.013,-1.155 0.439,0.188 1.644,0.703 2.287,-0.8 2.726,-0.612 1.897,1.324 -1.924,-0.311 -1.071,-2.305 -0.632,-2.117 -1.3,-0.556 Z"
           style="fill:#3c73b5;fill-opacity:1;fill-rule:nonzero;stroke:none"
           id="path72" /></g><g
         id="g74"
         transform="translate(98.501,288.4638)"><path
           d="m 0,0 c 0.089,0.219 0.106,0.503 0.052,0.841 -0.01,0.1 -0.02,0.2 -0.03,0.312 C -0.006,1.272 0.003,1.407 0.05,1.554 0.094,1.69 0.191,1.795 0.346,1.875 0.531,1.971 0.708,1.999 0.873,1.956 1.023,1.918 1.131,1.831 1.204,1.691 1.281,1.541 1.286,1.389 1.217,1.225 1.143,1.044 0.99,0.891 0.764,0.771 L 0.7,0.736 0.924,0.305 0.99,0.34 C 1.335,0.527 1.568,0.768 1.681,1.057 1.792,1.341 1.777,1.623 1.636,1.894 1.5,2.155 1.289,2.33 1.005,2.413 0.719,2.497 0.422,2.462 0.127,2.309 -0.155,2.163 -0.341,1.969 -0.426,1.732 -0.493,1.541 -0.501,1.276 -0.45,0.922 -0.401,0.594 -0.404,0.352 -0.459,0.201 -0.512,0.051 -0.646,-0.081 -0.86,-0.191 c -0.188,-0.098 -0.369,-0.121 -0.553,-0.067 -0.17,0.046 -0.291,0.141 -0.37,0.293 -0.097,0.189 -0.105,0.375 -0.024,0.57 0.084,0.207 0.255,0.38 0.508,0.511 L -1.234,1.149 -1.457,1.581 -1.546,1.535 C -1.922,1.34 -2.171,1.083 -2.288,0.769 c -0.114,-0.308 -0.087,-0.627 0.079,-0.95 0.143,-0.275 0.366,-0.457 0.662,-0.541 0.103,-0.029 0.208,-0.044 0.313,-0.044 0.206,0 0.419,0.057 0.633,0.167 0.298,0.155 0.5,0.356 0.601,0.599"
           style="fill:#3c73b5;fill-opacity:1;fill-rule:nonzero;stroke:none"
           id="path76" /></g><g
         id="g78"
         transform="translate(101.4634,286.957)"><path
           d="m 0,0 0.406,0.252 -1.192,1.912 -0.405,-0.254 0.47,-0.753 -3.122,-1.946 0.25,-0.4 3.121,1.946 z"
           style="fill:#3c73b5;fill-opacity:1;fill-rule:nonzero;stroke:none"
           id="path80" /></g><g
         id="g82"
         transform="translate(99.3979,284.3486)"><path
           d="M 0,0 1.134,0.844 2.006,-0.327 2.389,-0.042 1.517,1.129 2.568,1.912 3.544,0.6 3.927,0.885 2.669,2.574 -0.664,0.093 l 1.295,-1.74 0.383,0.285 z"
           style="fill:#3c73b5;fill-opacity:1;fill-rule:nonzero;stroke:none"
           id="path84" /></g><g
         id="g86"
         transform="translate(103.27,284.5629)"><path
           d="M 0,0 0.416,-0.487 C 0.501,-0.588 0.535,-0.711 0.518,-0.866 0.5,-1.049 0.414,-1.203 0.256,-1.338 c -0.196,-0.168 -0.38,-0.246 -0.56,-0.231 -0.152,0.011 -0.301,0.101 -0.443,0.267 l -0.328,0.384 z m -0.551,-2.353 c 0.064,0.118 0.086,0.246 0.065,0.38 0.148,-0.049 0.3,-0.061 0.458,-0.034 0.207,0.036 0.412,0.14 0.609,0.308 0.265,0.226 0.407,0.5 0.421,0.811 0.013,0.284 -0.077,0.54 -0.267,0.763 l -0.678,0.793 -3.161,-2.699 0.307,-0.358 1.359,1.16 0.39,-0.456 c 0.111,-0.13 0.152,-0.246 0.124,-0.343 -0.024,-0.076 -0.115,-0.228 -0.41,-0.521 l -0.381,-0.37 c -0.069,-0.072 -0.126,-0.136 -0.168,-0.189 -0.048,-0.06 -0.082,-0.113 -0.106,-0.161 l -0.02,-0.044 0.314,-0.367 0.12,0.102 0.003,0.03 c 0.002,0.034 0.017,0.073 0.041,0.113 0.034,0.053 0.082,0.11 0.143,0.17 l 0.431,0.426 c 0.22,0.218 0.353,0.379 0.406,0.486"
           style="fill:#3c73b5;fill-opacity:1;fill-rule:nonzero;stroke:none"
           id="path88" /></g><g
         id="g90"
         transform="translate(106.0864,282.2211)"><path
           d="m 0,0 -2.112,-2.113 0.961,2.249 0.323,0.692 -0.332,0.331 -2.938,-2.939 0.316,-0.316 2.118,2.118 -0.978,-2.241 -0.299,-0.718 0.323,-0.322 2.938,2.94 z"
           style="fill:#3c73b5;fill-opacity:1;fill-rule:nonzero;stroke:none"
           id="path92" /></g><g
         id="g94"
         transform="translate(109.3335,279.4804)"><path
           d="m 0,0 -0.371,0.291 -1.893,-2.419 c -0.148,-0.19 -0.308,-0.298 -0.476,-0.325 -0.154,-0.026 -0.299,0.015 -0.442,0.127 -0.142,0.112 -0.217,0.242 -0.23,0.399 -0.013,0.171 0.055,0.353 0.202,0.54 l 1.892,2.419 -0.371,0.29 -1.893,-2.419 c -0.232,-0.297 -0.333,-0.599 -0.301,-0.898 0.028,-0.279 0.165,-0.518 0.407,-0.707 0.199,-0.156 0.416,-0.235 0.644,-0.235 0.046,0 0.092,0.003 0.139,0.01 0.299,0.04 0.568,0.212 0.8,0.509 z"
           style="fill:#3c73b5;fill-opacity:1;fill-rule:nonzero;stroke:none"
           id="path96" /></g><g
         id="g98"
         transform="translate(110.9751,278.3779)"><path
           d="m 0,0 -1.65,-2.491 0.494,2.396 0.18,0.742 -0.391,0.259 -2.296,-3.465 0.373,-0.246 1.655,2.497 -0.513,-2.391 -0.152,-0.762 0.381,-0.253 2.296,3.464 z"
           style="fill:#3c73b5;fill-opacity:1;fill-rule:nonzero;stroke:none"
           id="path100" /></g><g
         id="g102"
         transform="translate(111.8647,277.8388)"><path
           d="m 0,0 -2.081,-3.598 0.408,-0.236 2.081,3.598 z"
           style="fill:#3c73b5;fill-opacity:1;fill-rule:nonzero;stroke:none"
           id="path104" /></g><g
         id="g106"
         transform="translate(114.5776,273.9326)"><path
           d="M 0,0 1.354,-0.547 1.533,-0.104 0.179,0.442 0.67,1.658 2.186,1.045 2.365,1.488 0.412,2.276 0.411,2.272 0.06,2.445 -2.092,-0.116 -1.365,3.146 -1.81,3.365 -2.706,-0.826 -2.286,-1.033 0.3,2 l -1.445,-3.577 2.011,-0.812 0.179,0.443 -1.574,0.635 z"
           style="fill:#3c73b5;fill-opacity:1;fill-rule:nonzero;stroke:none"
           id="path108" /></g><g
         id="g110"
         transform="translate(117.9946,273.2617)"><path
           d="m 0,0 c -0.137,-0.071 -0.311,-0.072 -0.519,-0.006 l -0.48,0.154 0.432,1.346 0.609,-0.196 C 0.168,1.258 0.262,1.17 0.329,1.03 0.409,0.865 0.417,0.688 0.354,0.491 0.275,0.245 0.156,0.08 0,0 m 0.057,-0.439 c 0.151,0.036 0.288,0.106 0.408,0.211 0.157,0.14 0.276,0.335 0.355,0.582 0.107,0.333 0.084,0.64 -0.068,0.913 -0.138,0.247 -0.35,0.418 -0.628,0.507 l -0.994,0.319 -1.269,-3.958 0.449,-0.144 0.545,1.702 0.573,-0.184 c 0.162,-0.051 0.258,-0.128 0.285,-0.226 0.02,-0.077 0.022,-0.254 -0.075,-0.659 l -0.129,-0.515 c -0.021,-0.098 -0.035,-0.182 -0.043,-0.25 -0.01,-0.075 -0.011,-0.138 -0.006,-0.192 l 0.006,-0.046 0.461,-0.148 0.048,0.15 -0.014,0.026 c -0.015,0.031 -0.023,0.071 -0.024,0.119 0.001,0.063 0.012,0.136 0.032,0.219 l 0.143,0.588 c 0.072,0.301 0.101,0.508 0.089,0.628 -0.007,0.135 -0.055,0.255 -0.144,0.358"
           style="fill:#3c73b5;fill-opacity:1;fill-rule:nonzero;stroke:none"
           id="path112" /></g><g
         id="g114"
         transform="translate(120.3032,274.5244)"><path
           d="m 0,0 c -0.286,0.068 -0.558,0.022 -0.806,-0.137 -0.251,-0.161 -0.418,-0.407 -0.496,-0.732 -0.075,-0.309 -0.051,-0.577 0.073,-0.795 0.1,-0.176 0.295,-0.356 0.597,-0.549 0.279,-0.178 0.46,-0.34 0.538,-0.479 0.078,-0.138 0.09,-0.327 0.034,-0.56 -0.05,-0.208 -0.151,-0.359 -0.311,-0.461 -0.147,-0.1 -0.299,-0.128 -0.465,-0.088 -0.206,0.05 -0.352,0.166 -0.446,0.355 -0.102,0.2 -0.12,0.442 -0.053,0.719 l 0.017,0.071 -0.472,0.114 -0.024,-0.098 c -0.099,-0.411 -0.068,-0.768 0.093,-1.062 0.158,-0.288 0.416,-0.477 0.769,-0.562 0.09,-0.022 0.18,-0.033 0.267,-0.033 0.202,0 0.396,0.061 0.576,0.178 0.264,0.174 0.441,0.441 0.526,0.797 0.079,0.325 0.059,0.609 -0.059,0.844 -0.107,0.211 -0.31,0.411 -0.601,0.592 -0.082,0.056 -0.164,0.115 -0.255,0.181 -0.108,0.057 -0.205,0.152 -0.285,0.284 -0.073,0.123 -0.089,0.265 -0.049,0.434 0.05,0.205 0.143,0.353 0.285,0.451 0.127,0.088 0.263,0.113 0.416,0.077 C 0.034,-0.5 0.152,-0.596 0.23,-0.755 0.318,-0.93 0.334,-1.145 0.277,-1.396 L 0.261,-1.465 0.734,-1.579 0.75,-1.507 C 0.835,-1.124 0.806,-0.79 0.661,-0.515 0.519,-0.245 0.296,-0.071 0,0"
           style="fill:#3c73b5;fill-opacity:1;fill-rule:nonzero;stroke:none"
           id="path116" /></g><g
         id="g118"
         transform="translate(121.1636,269.9921)"><path
           d="M 0,0 0.464,-0.082 1.187,4.011 0.724,4.093 Z"
           style="fill:#3c73b5;fill-opacity:1;fill-rule:nonzero;stroke:none"
           id="path120" /></g><g
         id="g122"
         transform="translate(122.8408,273.4218)"><path
           d="M 0,0 0.882,-0.101 0.465,-3.755 0.933,-3.809 1.35,-0.154 2.237,-0.255 2.292,0.219 0.054,0.475 Z"
           style="fill:#3c73b5;fill-opacity:1;fill-rule:nonzero;stroke:none"
           id="path124" /></g><g
         id="g126"
         transform="translate(126.6919,271.7963)"><path
           d="m 0,0 -0.726,1.803 -0.54,0.013 1.02,-2.362 -0.046,-1.82 0.471,-0.012 0.046,1.82 1.112,2.309 -0.535,0.013 z"
           style="fill:#3c73b5;fill-opacity:1;fill-rule:nonzero;stroke:none"
           id="path128" /></g><g
         id="g130"
         transform="translate(131.6108,270.437)"><path
           d="m 0,0 c -0.094,-0.3 -0.233,-0.455 -0.424,-0.475 -0.19,-0.021 -0.358,0.106 -0.503,0.377 -0.157,0.297 -0.265,0.722 -0.322,1.261 -0.056,0.539 -0.036,0.977 0.06,1.3 0.087,0.295 0.222,0.447 0.41,0.467 0.014,10e-4 0.027,0.002 0.041,0.002 0.172,0 0.331,-0.126 0.472,-0.374 C -0.101,2.265 0.012,1.842 0.068,1.3 0.125,0.762 0.102,0.324 0,0 M 0.07,2.891 C -0.176,3.264 -0.479,3.437 -0.828,3.399 -1.174,3.364 -1.432,3.134 -1.593,2.716 -1.744,2.31 -1.785,1.771 -1.717,1.114 c 0.068,-0.654 0.219,-1.17 0.451,-1.538 0.223,-0.349 0.493,-0.526 0.804,-0.526 0.028,0 0.057,0.002 0.087,0.005 0.349,0.036 0.609,0.27 0.773,0.694 0.16,0.408 0.207,0.946 0.139,1.6 C 0.469,2.006 0.312,2.525 0.07,2.891"
           style="fill:#3c73b5;fill-opacity:1;fill-rule:nonzero;stroke:none"
           id="path132" /></g><g
         id="g134"
         transform="translate(134.3667,272.4882)"><path
           d="m 0,0 -1.417,-0.262 -0.237,1.283 1.593,0.294 -0.086,0.47 -2.057,-0.379 0.755,-4.088 0.463,0.085 -0.345,1.866 1.418,0.261 z"
           style="fill:#3c73b5;fill-opacity:1;fill-rule:nonzero;stroke:none"
           id="path136" /></g><g
         id="g138"
         transform="translate(137.9287,273.4536)"><path
           d="m 0,0 -1.378,-0.419 -0.381,1.247 1.551,0.472 -0.14,0.457 -2.001,-0.61 1.212,-3.975 0.45,0.137 -0.552,1.814 1.378,0.42 z"
           style="fill:#3c73b5;fill-opacity:1;fill-rule:nonzero;stroke:none"
           id="path140" /></g><g
         id="g142"
         transform="translate(137.8892,275.3344)"><path
           d="M 0,0 1.417,-3.907 1.86,-3.747 0.443,0.16 Z"
           style="fill:#3c73b5;fill-opacity:1;fill-rule:nonzero;stroke:none"
           id="path144" /></g><g
         id="g146"
         transform="translate(140.2554,276.2773)"><path
           d="m 0,0 1.173,-2.747 -1.729,1.729 -0.521,0.559 -0.431,-0.185 1.632,-3.822 0.411,0.175 -1.177,2.755 1.715,-1.743 0.554,-0.545 0.42,0.179 -1.631,3.823 z"
           style="fill:#3c73b5;fill-opacity:1;fill-rule:nonzero;stroke:none"
           id="path148" /></g><g
         id="g150"
         transform="translate(143.6606,275.2143)"><path
           d="m 0,0 -0.642,-0.344 -0.44,1.582 z m -1.716,1.978 1.12,-4.203 0.407,0.219 -0.335,1.208 0.834,0.447 0.843,-0.935 0.41,0.22 -2.904,3.245 z"
           style="fill:#3c73b5;fill-opacity:1;fill-rule:nonzero;stroke:none"
           id="path152" /></g><g
         id="g154"
         transform="translate(144.7104,278.7431)"><path
           d="m 0,0 1.609,-2.517 -1.99,1.422 -0.605,0.464 -0.395,-0.253 2.238,-3.501 0.377,0.24 -1.614,2.524 1.979,-1.436 0.636,-0.447 0.384,0.246 -2.239,3.501 z"
           style="fill:#3c73b5;fill-opacity:1;fill-rule:nonzero;stroke:none"
           id="path156" /></g><g
         id="g158"
         transform="translate(148.7134,278.3193)"><path
           d="M 0,0 -0.377,-0.283 -0.34,-0.34 c 0.17,-0.262 0.261,-0.514 0.271,-0.752 0.013,-0.21 -0.036,-0.354 -0.151,-0.44 -0.174,-0.131 -0.397,-0.122 -0.676,0.024 -0.31,0.161 -0.633,0.465 -0.962,0.903 -0.327,0.435 -0.528,0.822 -0.596,1.15 -0.057,0.303 0,0.513 0.174,0.644 0.101,0.076 0.24,0.089 0.421,0.04 0.209,-0.056 0.405,-0.183 0.586,-0.377 l 0.045,-0.048 0.37,0.279 -0.05,0.059 C -1.157,1.439 -1.444,1.629 -1.762,1.708 -2.074,1.784 -2.347,1.737 -2.567,1.571 -2.862,1.349 -2.984,1.011 -2.928,0.565 c 0.057,-0.444 0.287,-0.938 0.685,-1.466 0.4,-0.532 0.811,-0.894 1.222,-1.077 0.188,-0.085 0.368,-0.128 0.533,-0.128 0.199,0 0.382,0.062 0.544,0.183 0.232,0.175 0.35,0.437 0.351,0.777 0.001,0.345 -0.122,0.709 -0.364,1.081 z"
           style="fill:#3c73b5;fill-opacity:1;fill-rule:nonzero;stroke:none"
           id="path160" /></g><g
         id="g162"
         transform="translate(149.9561,278.0995)"><path
           d="M 0,0 -0.933,1.061 0.164,2.025 -0.151,2.384 -1.249,1.42 -2.113,2.404 -0.885,3.483 -1.2,3.842 -2.782,2.452 -0.039,-0.67 1.591,0.762 1.275,1.121 Z"
           style="fill:#3c73b5;fill-opacity:1;fill-rule:nonzero;stroke:none"
           id="path164" /></g><g
         id="g166"
         transform="translate(152.7422,282.5331)"><path
           d="m 0,0 -0.485,-0.544 -0.956,1.336 z m -2.29,1.269 2.493,-3.563 0.307,0.344 -0.729,1.02 0.631,0.706 1.112,-0.589 0.31,0.347 -3.84,2.053 z"
           style="fill:#3c73b5;fill-opacity:1;fill-rule:nonzero;stroke:none"
           id="path168" /></g><g
         id="g170"
         transform="translate(152.5181,286.205)"><path
           d="m 0,0 2.374,-1.815 -2.357,0.655 -0.728,0.23 -0.285,-0.373 3.302,-2.524 0.271,0.355 -2.38,1.819 2.351,-0.673 0.751,-0.203 0.277,0.363 -3.301,2.525 z"
           style="fill:#3c73b5;fill-opacity:1;fill-rule:nonzero;stroke:none"
           id="path172" /></g><g
         id="g174"
         transform="translate(153.5791,286.8769)"><path
           d="M 0,0 0.207,0.317 C 0.354,0.543 0.562,0.654 0.844,0.654 L 0.883,0.653 C 1.204,0.644 1.594,0.491 2.042,0.199 2.5,-0.099 2.8,-0.396 2.936,-0.683 3.062,-0.943 3.047,-1.187 2.89,-1.429 L 2.683,-1.746 Z M 2.298,0.611 C 1.763,0.96 1.265,1.137 0.819,1.137 0.386,1.133 0.061,0.968 -0.149,0.647 l -0.508,-0.781 3.483,-2.267 0.508,0.781 c 0.211,0.324 0.23,0.689 0.057,1.084 -0.178,0.405 -0.545,0.791 -1.093,1.147"
           style="fill:#3c73b5;fill-opacity:1;fill-rule:nonzero;stroke:none"
           id="path176" /></g><g
         id="g178"
         transform="translate(158.5176,288.9745)"><path
           d="M 0,0 -1.273,0.614 -0.64,1.93 -1.07,2.137 -1.703,0.821 -2.884,1.39 -2.174,2.863 -2.604,3.07 -3.519,1.173 0.226,-0.632 1.167,1.323 0.737,1.53 Z"
           style="fill:#3c73b5;fill-opacity:1;fill-rule:nonzero;stroke:none"
           id="path180" /></g><g
         id="g182"
         transform="translate(159.353,293.1635)"><path
           d="m 0,0 -0.071,0.034 -0.174,-0.438 0.061,-0.03 c 0.282,-0.135 0.491,-0.303 0.623,-0.501 0.12,-0.173 0.153,-0.321 0.1,-0.455 -0.081,-0.201 -0.273,-0.31 -0.591,-0.331 -0.347,-0.023 -0.781,0.069 -1.291,0.271 -0.505,0.201 -0.878,0.428 -1.106,0.672 -0.206,0.23 -0.268,0.439 -0.187,0.641 0.047,0.117 0.157,0.2 0.339,0.253 0.207,0.06 0.441,0.055 0.696,-0.017 l 0.063,-0.018 0.171,0.43 -0.072,0.025 C -1.806,0.66 -2.15,0.674 -2.463,0.576 -2.77,0.478 -2.977,0.297 -3.08,0.04 c -0.136,-0.343 -0.065,-0.696 0.214,-1.047 0.281,-0.35 0.734,-0.652 1.349,-0.896 0.5,-0.2 0.951,-0.301 1.339,-0.301 0.091,0 0.18,0.006 0.264,0.017 0.454,0.056 0.753,0.261 0.891,0.607 0.107,0.271 0.072,0.556 -0.104,0.846 C 0.695,-0.439 0.401,-0.192 0,0"
           style="fill:#3c73b5;fill-opacity:1;fill-rule:nonzero;stroke:none"
           id="path184" /></g><g
         id="g186"
         transform="translate(160.75,294.1918)"><path
           d="m 0,0 c -0.057,-0.184 -0.236,-0.286 -0.544,-0.313 -0.336,-0.026 -0.768,0.041 -1.286,0.203 -0.518,0.16 -0.912,0.352 -1.171,0.567 -0.237,0.197 -0.324,0.38 -0.268,0.561 0.058,0.185 0.236,0.291 0.544,0.325 0.062,0.006 0.128,0.01 0.195,0.01 0.301,0 0.67,-0.067 1.093,-0.2 0.518,-0.161 0.91,-0.355 1.168,-0.576 C -0.03,0.373 0.058,0.184 0,0 M -1.296,1.604 C -1.928,1.8 -2.465,1.86 -2.897,1.783 -3.339,1.704 -3.615,1.494 -3.719,1.159 c -0.104,-0.333 0.005,-0.66 0.325,-0.973 0.314,-0.299 0.793,-0.55 1.424,-0.747 0.466,-0.145 0.883,-0.218 1.239,-0.218 0.123,0 0.241,0.008 0.351,0.026 0.448,0.074 0.727,0.28 0.831,0.612 0.104,0.336 -0.007,0.667 -0.332,0.985 -0.312,0.308 -0.788,0.564 -1.415,0.76"
           style="fill:#3c73b5;fill-opacity:1;fill-rule:nonzero;stroke:none"
           id="path188" /></g><g
         id="g190"
         transform="translate(157.8701,298.1757)"><path
           d="M 0,0 2.913,-0.667 0.497,-1.048 -0.261,-1.142 -0.365,-1.598 3.686,-2.526 3.786,-2.09 0.865,-1.421 3.284,-1.06 4.05,-0.932 4.153,-0.487 0.102,0.44 Z"
           style="fill:#3c73b5;fill-opacity:1;fill-rule:nonzero;stroke:none"
           id="path192" /></g><g
         id="g194"
         transform="translate(161.9321,299.3544)"><path
           d="m 0,0 c -0.028,-0.19 -0.189,-0.319 -0.49,-0.393 -0.327,-0.078 -0.766,-0.076 -1.302,0.004 -0.536,0.079 -0.954,0.208 -1.244,0.381 -0.263,0.158 -0.378,0.327 -0.35,0.513 0.029,0.192 0.188,0.324 0.489,0.405 0.168,0.045 0.369,0.069 0.596,0.069 0.21,0 0.447,-0.021 0.705,-0.059 C -1.061,0.84 -0.643,0.709 -0.354,0.53 -0.087,0.364 0.029,0.191 0,0 M -0.012,0.852 C -0.367,1.109 -0.877,1.289 -1.526,1.386 -2.18,1.484 -2.721,1.461 -3.136,1.319 -3.56,1.173 -3.801,0.923 -3.853,0.576 c -0.051,-0.345 0.106,-0.652 0.471,-0.912 0.356,-0.247 0.868,-0.422 1.521,-0.519 0.275,-0.041 0.532,-0.062 0.764,-0.062 h 10e-4 c 0.316,0 0.597,0.039 0.836,0.115 0.431,0.141 0.676,0.387 0.727,0.732 0.053,0.348 -0.109,0.658 -0.479,0.922"
           style="fill:#3c73b5;fill-opacity:1;fill-rule:nonzero;stroke:none"
           id="path196" /></g><g
         id="g198"
         transform="translate(162.6895,303.7206)"><path
           d="m 0,0 -4.148,0.252 -0.04,-0.648 0.884,-0.287 2.045,-0.619 -3.017,-0.548 -0.04,-0.655 4.148,-0.252 0.032,0.521 -2.598,0.158 2.636,0.46 0.029,0.478 -2.56,0.777 2.598,-0.158 z"
           style="fill:#3c73b5;fill-opacity:1;fill-rule:nonzero;stroke:none"
           id="path200" /></g><g
         id="g202"
         transform="translate(158.5142,304.8002)"><path
           d="M 0,0 4.156,0.075 4.147,0.546 -0.008,0.471 Z"
           style="fill:#3c73b5;fill-opacity:1;fill-rule:nonzero;stroke:none"
           id="path204" /></g><g
         id="g206"
         transform="translate(161.1313,308.3369)"><path
           d="m 0,0 -0.112,-0.001 0.037,-0.47 0.088,0.001 c 0.303,0 0.558,-0.059 0.759,-0.176 0.185,-0.102 0.279,-0.221 0.29,-0.364 0.017,-0.216 -0.108,-0.399 -0.383,-0.557 -0.303,-0.174 -0.732,-0.284 -1.278,-0.327 -0.543,-0.042 -0.979,-0.002 -1.291,0.116 -0.285,0.114 -0.433,0.276 -0.45,0.493 -0.009,0.126 0.054,0.248 0.194,0.376 0.158,0.146 0.371,0.244 0.631,0.292 l 0.065,0.012 -0.036,0.461 -0.076,-0.01 c -0.384,-0.05 -0.7,-0.19 -0.937,-0.415 -0.231,-0.223 -0.338,-0.477 -0.316,-0.753 0.028,-0.368 0.248,-0.653 0.653,-0.845 0.319,-0.15 0.723,-0.227 1.2,-0.227 0.129,0 0.266,0.006 0.406,0.017 0.663,0.052 1.189,0.204 1.564,0.452 0.382,0.25 0.561,0.566 0.532,0.938 -0.023,0.291 -0.18,0.53 -0.467,0.713 C 0.791,-0.092 0.43,0 0,0"
           style="fill:#3c73b5;fill-opacity:1;fill-rule:nonzero;stroke:none"
           id="path208" /></g><g
         id="g210"
         transform="translate(158.4858,308.5659)"><path
           d="m 0,0 c 0.189,-0.132 0.405,-0.199 0.645,-0.199 0.071,0 0.145,0.006 0.22,0.017 0.315,0.049 0.553,0.174 0.708,0.37 C 1.698,0.348 1.79,0.597 1.854,0.949 1.913,1.275 1.993,1.503 2.093,1.628 2.191,1.754 2.361,1.836 2.599,1.873 2.81,1.906 2.988,1.869 3.144,1.76 3.291,1.663 3.375,1.533 3.4,1.364 3.433,1.154 3.381,0.975 3.242,0.816 3.096,0.646 2.879,0.538 2.597,0.494 L 2.525,0.483 2.599,0.002 2.698,0.018 C 3.116,0.083 3.435,0.247 3.645,0.507 3.852,0.762 3.929,1.073 3.874,1.432 3.826,1.739 3.673,1.983 3.419,2.157 3.159,2.335 2.843,2.397 2.482,2.342 2.151,2.291 1.896,2.165 1.723,1.966 1.568,1.787 1.461,1.523 1.404,1.186 1.383,1.088 1.36,0.99 1.333,0.881 1.322,0.759 1.271,0.634 1.18,0.509 1.093,0.395 0.968,0.326 0.796,0.299 0.59,0.268 0.414,0.298 0.271,0.391 0.141,0.475 0.066,0.592 0.042,0.747 0.017,0.915 0.061,1.06 0.179,1.193 0.306,1.341 0.499,1.438 0.752,1.48 L 0.823,1.492 0.75,1.973 0.676,1.96 C 0.289,1.893 -0.008,1.738 -0.208,1.5 -0.403,1.267 -0.479,0.996 -0.433,0.694 -0.388,0.403 -0.242,0.169 0,0"
           style="fill:#3c73b5;fill-opacity:1;fill-rule:nonzero;stroke:none"
           id="path212" /></g><g
         id="g214"
         transform="translate(125.6348,311.7841)"><path
           d="M 0,0 C 0.526,0.424 1.195,0.68 1.924,0.68 2.653,0.68 3.322,0.424 3.848,0 V 8.083 H 0 Z"
           style="fill:#3c73b5;fill-opacity:1;fill-rule:nonzero;stroke:none"
           id="path216" /></g><g
         id="g218"
         transform="translate(126.1938,283.8144)"><path
           d="m 0,0 c -0.197,0.013 -0.354,-0.08 -0.473,-0.276 -0.099,-0.163 -0.157,-0.37 -0.173,-0.621 -0.013,-0.208 0.015,-0.399 0.082,-0.572 0.103,-0.264 0.283,-0.404 0.54,-0.42 0.141,-0.009 0.305,0.04 0.492,0.146 0.047,0.187 0.075,0.35 0.084,0.491 0.024,0.369 -0.016,0.667 -0.118,0.894 C 0.332,-0.131 0.187,-0.012 0,0"
           style="fill:#3c73b5;fill-opacity:1;fill-rule:nonzero;stroke:none"
           id="path220" /></g><g
         id="g222"
         transform="translate(116.9858,291.3261)"><path
           d="M 0,0 H 3.158 7.322 V 24.5 H 3.158 V 8.547 C 3.158,5.284 1.969,2.299 0,0"
           style="fill:#3c73b5;fill-opacity:1;fill-rule:nonzero;stroke:none"
           id="path224" /></g><g
         id="g226"
         transform="translate(118.3535,302.187)"><path
           d="m 0,0 v 4.676 h -10.137 c 1.156,9.657 9.374,17.144 19.342,17.144 8.584,0 15.87,-5.551 18.466,-13.26 H 34.06 C 31.28,19.702 21.208,27.957 9.205,27.957 c -13.36,0 -24.33,-10.228 -25.511,-23.281 -0.07,-0.77 -0.107,-1.55 -0.107,-2.338 0,-0.788 0.037,-1.567 0.107,-2.338 h 6.169 z"
           style="fill:#3c73b5;fill-opacity:1;fill-rule:nonzero;stroke:none"
           id="path228" /></g><g
         id="g230"
         transform="translate(132.876,281.0029)"><path
           d="m 0,0 c -0.284,-0.287 -0.586,-0.463 -0.909,-0.527 -0.198,-0.04 -0.369,-0.032 -0.514,0.023 -0.145,0.054 -0.229,0.142 -0.253,0.263 -0.04,0.198 0.047,0.318 0.259,0.36 0.094,0.019 0.222,-0.011 0.383,-0.091 0.161,-0.08 0.305,-0.107 0.431,-0.082 0.158,0.032 0.281,0.116 0.37,0.255 0.099,0.155 0.127,0.345 0.082,0.57 -0.134,0.674 -0.741,0.946 -1.821,0.818 L -1.558,3.292 -0.135,3.575 -0.268,2.958 -1.401,2.732 -1.493,2.321 C -1.196,2.38 -0.878,2.337 -0.54,2.192 -0.091,1.999 0.179,1.67 0.271,1.206 0.374,0.689 0.284,0.288 0,0 M -2.581,-0.756 C -3.12,-0.771 -3.542,-0.792 -3.848,-0.818 -4.282,-0.854 -4.605,-0.894 -4.816,-0.936 l -0.079,0.158 c 1.047,1.117 1.551,1.967 1.512,2.549 C -3.401,2.048 -3.49,2.254 -3.648,2.39 -3.793,2.515 -3.979,2.569 -4.203,2.554 -4.508,2.534 -4.699,2.325 -4.776,1.928 l -0.193,0.044 c 0.049,0.362 0.183,0.64 0.402,0.835 0.171,0.15 0.369,0.233 0.592,0.248 0.309,0.02 0.576,-0.059 0.8,-0.239 0.239,-0.194 0.371,-0.459 0.393,-0.793 0.036,-0.531 -0.422,-1.309 -1.371,-2.331 l 0.016,-0.014 c 0.142,0.03 0.322,0.052 0.538,0.067 0.02,0.001 0.093,0.002 0.219,0.003 0.125,0.001 0.2,0.002 0.225,0.003 0.209,0.015 0.363,0.052 0.46,0.112 0.08,0.048 0.159,0.142 0.236,0.28 L -2.323,0.091 C -2.421,-0.16 -2.507,-0.442 -2.581,-0.756 m -3.582,0.636 c -0.468,-0.51 -1.051,-0.757 -1.749,-0.738 l -0.044,0.139 c 0.441,0.056 0.795,0.218 1.065,0.486 0.224,0.221 0.411,0.543 0.561,0.965 -0.262,-0.107 -0.503,-0.154 -0.721,-0.14 -0.307,0.019 -0.545,0.154 -0.714,0.404 -0.145,0.219 -0.209,0.471 -0.19,0.757 0.025,0.402 0.174,0.728 0.447,0.978 0.257,0.234 0.55,0.341 0.879,0.32 C -6.298,3.03 -6.025,2.892 -5.812,2.635 -5.565,2.337 -5.458,1.936 -5.49,1.433 -5.527,0.847 -5.751,0.33 -6.163,-0.12 M -9.038,2.626 -9.517,0.197 c -0.041,-0.213 -0.042,-0.352 -0.003,-0.418 0.04,-0.066 0.169,-0.13 0.388,-0.194 L -9.2,-0.602 c -0.265,0.073 -0.533,0.136 -0.804,0.19 -0.176,0.035 -0.418,0.072 -0.728,0.112 l 0.017,0.205 c 0.203,-0.04 0.345,-0.033 0.426,0.02 0.081,0.054 0.143,0.183 0.183,0.389 l 0.427,2.169 c 0.051,0.257 0.013,0.399 -0.113,0.424 -0.015,0.002 -0.086,-0.004 -0.215,-0.02 l -0.029,0.188 c 0.292,0.055 0.647,0.153 1.064,0.295 L -8.879,3.274 C -8.957,2.983 -9.01,2.767 -9.038,2.626 M 20.194,25.86 H 14.025 3.888 V 21.184 H 14.025 C 12.87,11.527 4.651,4.041 -5.317,4.041 c -8.583,0 -15.87,5.551 -18.465,13.259 h -6.389 c 2.78,-11.141 12.852,-19.396 24.854,-19.396 13.361,0 24.33,10.227 25.511,23.28 0.07,0.771 0.108,1.55 0.108,2.338 0,0.789 -0.038,1.568 -0.108,2.338"
           style="fill:#3c73b5;fill-opacity:1;fill-rule:nonzero;stroke:none"
           id="path232" /></g><g
         id="g234"
         transform="translate(130.8101,315.8256)"><path
           d="m 0,0 v -24.5 h 4.164 3.158 c -1.968,2.299 -3.158,5.285 -3.158,8.548 V 0 Z"
           style="fill:#3c73b5;fill-opacity:1;fill-rule:nonzero;stroke:none"
           id="path236" /></g><g
         id="g238"
         transform="translate(180.8335,283.0995)"><path
           d="m 0,0 h 1.01 c 0.038,-0.273 0.149,-0.475 0.334,-0.606 0.184,-0.132 0.451,-0.198 0.8,-0.198 0.297,0 0.522,0.053 0.672,0.159 0.151,0.105 0.226,0.262 0.226,0.469 0,0.301 -0.433,0.552 -1.3,0.75 C 1.731,0.576 1.721,0.579 1.712,0.581 1.689,0.585 1.655,0.593 1.607,0.604 1.143,0.706 0.812,0.819 0.614,0.945 0.439,1.058 0.305,1.209 0.212,1.4 0.12,1.589 0.074,1.814 0.074,2.073 c 0,0.484 0.164,0.855 0.493,1.113 0.329,0.257 0.804,0.387 1.425,0.387 0.581,0 1.035,-0.138 1.363,-0.412 0.328,-0.275 0.5,-0.662 0.518,-1.162 H 2.891 C 2.873,2.24 2.78,2.423 2.613,2.549 2.447,2.676 2.209,2.738 1.901,2.738 1.633,2.738 1.427,2.686 1.281,2.582 1.136,2.477 1.063,2.328 1.063,2.134 1.063,1.871 1.346,1.674 1.911,1.543 2.064,1.507 2.184,1.479 2.269,1.458 2.631,1.366 2.889,1.294 3.041,1.243 3.193,1.191 3.325,1.133 3.438,1.07 3.64,0.958 3.792,0.809 3.894,0.623 3.995,0.437 4.045,0.215 4.045,-0.044 4.045,-0.562 3.871,-0.963 3.522,-1.248 3.173,-1.533 2.681,-1.675 2.046,-1.675 1.42,-1.675 0.929,-1.53 0.574,-1.24 0.218,-0.949 0.027,-0.536 0,0"
           style="fill:#3b6eab;fill-opacity:1;fill-rule:nonzero;stroke:none"
           id="path240" /></g><g
         id="g242"
         transform="translate(187.1943,284.0449)"><path
           d="m 0,0 c 0,-0.547 0.122,-0.972 0.365,-1.275 0.243,-0.303 0.583,-0.454 1.02,-0.454 0.441,0 0.784,0.151 1.03,0.454 C 2.66,-0.972 2.783,-0.547 2.783,0 2.783,0.547 2.66,0.972 2.415,1.274 2.169,1.578 1.826,1.729 1.385,1.729 0.948,1.729 0.608,1.578 0.365,1.276 0.122,0.975 0,0.549 0,0 m -1.043,0 c 0,0.804 0.219,1.441 0.657,1.913 C 0.052,2.385 0.642,2.621 1.385,2.621 2.128,2.621 2.72,2.384 3.16,1.912 3.6,1.438 3.82,0.801 3.82,0 3.82,-0.802 3.6,-1.439 3.16,-1.912 2.72,-2.384 2.128,-2.621 1.385,-2.621 c -0.743,0 -1.333,0.237 -1.771,0.709 -0.438,0.473 -0.657,1.11 -0.657,1.912"
           style="fill:#3b6eab;fill-opacity:1;fill-rule:nonzero;stroke:none"
           id="path244" /></g><g
         id="g246"
         transform="translate(192.4858,286.5502)"><path
           d="m 0,0 h 1.033 v -3.12 c 0,-0.385 0.076,-0.666 0.23,-0.843 0.153,-0.177 0.396,-0.265 0.73,-0.265 0.337,0 0.583,0.088 0.737,0.264 0.154,0.175 0.231,0.457 0.231,0.844 V 0 H 3.985 V -3.231 C 3.985,-3.842 3.814,-4.31 3.473,-4.636 3.132,-4.963 2.641,-5.126 2,-5.126 1.353,-5.126 0.858,-4.964 0.515,-4.638 0.171,-4.312 0,-3.844 0,-3.231 Z"
           style="fill:#3b6eab;fill-opacity:1;fill-rule:nonzero;stroke:none"
           id="path248" /></g><g
         id="g250"
         transform="translate(199.1948,281.5624)"><path
           d="M 0,0 V 4.086 H -1.476 V 4.975 H 2.489 V 4.086 H 1.023 V 0 Z"
           style="fill:#3b6eab;fill-opacity:1;fill-rule:nonzero;stroke:none"
           id="path252" /></g><g
         id="g254"
         transform="translate(202.9663,281.5624)"><path
           d="M 0,0 V 4.975 H 1.03 V 3.121 h 2.053 v 1.854 h 1.03 V 0 H 3.083 V 2.206 H 1.03 V 0 Z"
           style="fill:#3b6eab;fill-opacity:1;fill-rule:nonzero;stroke:none"
           id="path256" /></g><g
         id="g258"
         transform="translate(209.7642,281.5624)"><path
           d="m 0,0 -1.425,4.975 h 1.06 L 0.487,1.466 1.206,4.975 h 1.09 l 0.72,-3.509 0.851,3.509 h 1.05 L 3.496,0 H 2.52 L 1.75,3.81 0.976,0 Z"
           style="fill:#3b6eab;fill-opacity:1;fill-rule:nonzero;stroke:none"
           id="path260" /></g><g
         id="g262"
         transform="translate(215.9507,281.5624)"><path
           d="M 0,0 V 4.975 H 3.613 V 4.11 H 1.01 V 3.05 H 3.39 V 2.199 H 1.01 V 0.919 H 3.735 V 0 Z"
           style="fill:#3b6eab;fill-opacity:1;fill-rule:nonzero;stroke:none"
           id="path264" /></g><g
         id="g266"
         transform="translate(220.9277,283.0995)"><path
           d="m 0,0 h 1.01 c 0.038,-0.273 0.15,-0.475 0.334,-0.606 0.184,-0.132 0.451,-0.198 0.8,-0.198 0.297,0 0.522,0.053 0.672,0.159 0.151,0.105 0.226,0.262 0.226,0.469 0,0.301 -0.433,0.552 -1.3,0.75 C 1.731,0.576 1.721,0.579 1.712,0.581 1.689,0.585 1.655,0.593 1.607,0.604 1.144,0.706 0.812,0.819 0.614,0.945 0.439,1.058 0.305,1.209 0.212,1.4 0.121,1.589 0.074,1.814 0.074,2.073 c 0,0.484 0.164,0.855 0.493,1.113 0.329,0.257 0.804,0.387 1.426,0.387 0.58,0 1.034,-0.138 1.362,-0.412 0.328,-0.275 0.5,-0.662 0.519,-1.162 H 2.891 C 2.873,2.24 2.78,2.423 2.614,2.549 2.447,2.676 2.209,2.738 1.901,2.738 1.633,2.738 1.427,2.686 1.281,2.582 1.136,2.477 1.063,2.328 1.063,2.134 1.063,1.871 1.346,1.674 1.911,1.543 2.064,1.507 2.184,1.479 2.269,1.458 2.632,1.366 2.889,1.294 3.041,1.243 3.193,1.191 3.325,1.133 3.438,1.07 3.641,0.958 3.792,0.809 3.894,0.623 3.995,0.437 4.046,0.215 4.046,-0.044 4.046,-0.562 3.871,-0.963 3.522,-1.248 3.173,-1.533 2.681,-1.675 2.046,-1.675 1.42,-1.675 0.93,-1.53 0.574,-1.24 0.218,-0.949 0.027,-0.536 0,0"
           style="fill:#3b6eab;fill-opacity:1;fill-rule:nonzero;stroke:none"
           id="path268" /></g><g
         id="g270"
         transform="translate(227.4917,281.5624)"><path
           d="M 0,0 V 4.086 H -1.476 V 4.975 H 2.489 V 4.086 H 1.023 V 0 Z"
           style="fill:#3b6eab;fill-opacity:1;fill-rule:nonzero;stroke:none"
           id="path272" /></g><g
         id="g274"
         transform="translate(231.2632,281.5624)"><path
           d="M 0,0 V 4.975 H 3.613 V 4.11 H 1.01 V 3.05 H 3.39 V 2.199 H 1.01 V 0.919 H 3.735 V 0 Z"
           style="fill:#3b6eab;fill-opacity:1;fill-rule:nonzero;stroke:none"
           id="path276" /></g><g
         id="g278"
         transform="translate(237.4932,284.3622)"><path
           d="M 0,0 H 1.202 C 1.463,0 1.655,0.053 1.778,0.159 1.9,0.265 1.961,0.431 1.961,0.659 1.961,0.875 1.902,1.039 1.783,1.15 1.664,1.261 1.486,1.317 1.249,1.317 H 0 Z M -1.023,-2.8 V 2.175 H 1.388 C 1.93,2.175 2.332,2.059 2.593,1.827 2.854,1.595 2.985,1.241 2.985,0.764 2.985,0.459 2.921,0.206 2.794,0.003 2.667,-0.199 2.484,-0.338 2.246,-0.412 2.462,-0.488 2.616,-0.605 2.707,-0.763 2.797,-0.921 2.85,-1.167 2.864,-1.5 l 0.02,-0.587 v -0.02 C 2.891,-2.405 2.955,-2.585 3.076,-2.648 V -2.8 H 1.955 c -0.036,0.071 -0.063,0.156 -0.082,0.259 -0.02,0.102 -0.032,0.225 -0.036,0.366 l -0.013,0.524 c -0.012,0.308 -0.07,0.516 -0.175,0.624 -0.105,0.108 -0.293,0.163 -0.566,0.163 H 0 V -2.8 Z"
           style="fill:#3b6eab;fill-opacity:1;fill-rule:nonzero;stroke:none"
           id="path280" /></g><g
         id="g282"
         transform="translate(242.0986,281.5624)"><path
           d="M 0,0 V 4.975 H 1.07 L 3.09,1.557 V 4.975 H 4.1 V 0 H 3.043 L 1.01,3.418 V 0 Z"
           style="fill:#3b6eab;fill-opacity:1;fill-rule:nonzero;stroke:none"
           id="path284" /></g><g
         id="g286"
         transform="translate(250.562,286.5502)"><path
           d="m 0,0 h 1.033 v -3.12 c 0,-0.385 0.076,-0.666 0.23,-0.843 0.153,-0.177 0.396,-0.265 0.73,-0.265 0.337,0 0.583,0.088 0.737,0.264 0.154,0.175 0.231,0.457 0.231,0.844 V 0 H 3.985 V -3.231 C 3.985,-3.842 3.814,-4.31 3.473,-4.636 3.132,-4.963 2.641,-5.126 2,-5.126 1.353,-5.126 0.858,-4.964 0.515,-4.638 0.171,-4.312 0,-3.844 0,-3.231 Z"
           style="fill:#3b6eab;fill-opacity:1;fill-rule:nonzero;stroke:none"
           id="path288" /></g><g
         id="g290"
         transform="translate(256.2412,281.5624)"><path
           d="M 0,0 V 4.975 H 1.07 L 3.09,1.557 V 4.975 H 4.1 V 0 H 3.043 L 1.01,3.418 V 0 Z"
           style="fill:#3b6eab;fill-opacity:1;fill-rule:nonzero;stroke:none"
           id="path292" /></g><path
         d="m 262.093,286.537 h 1.022 v -4.975 h -1.022 z"
         style="fill:#3b6eab;fill-opacity:1;fill-rule:nonzero;stroke:none"
         id="path294" /><g
         id="g296"
         transform="translate(266.0435,281.5624)"><path
           d="m 0,0 -1.716,4.975 h 1.135 L 0.476,1.253 1.553,4.975 H 2.674 L 0.979,0 Z"
           style="fill:#3b6eab;fill-opacity:1;fill-rule:nonzero;stroke:none"
           id="path298" /></g><g
         id="g300"
         transform="translate(269.8892,281.5624)"><path
           d="M 0,0 V 4.975 H 3.613 V 4.11 H 1.01 V 3.05 H 3.39 V 2.199 H 1.01 V 0.919 H 3.735 V 0 Z"
           style="fill:#3b6eab;fill-opacity:1;fill-rule:nonzero;stroke:none"
           id="path302" /></g><g
         id="g304"
         transform="translate(276.1196,284.3622)"><path
           d="m 0,0 h 1.202 c 0.261,0 0.453,0.053 0.576,0.159 0.122,0.106 0.184,0.272 0.184,0.5 0,0.216 -0.06,0.38 -0.179,0.491 C 1.664,1.261 1.486,1.317 1.249,1.317 H 0 Z M -1.023,-2.8 V 2.175 H 1.388 C 1.93,2.175 2.332,2.059 2.594,1.827 2.854,1.595 2.985,1.241 2.985,0.764 2.985,0.459 2.921,0.206 2.794,0.003 2.667,-0.199 2.484,-0.338 2.246,-0.412 2.462,-0.488 2.616,-0.605 2.707,-0.763 2.798,-0.921 2.85,-1.167 2.864,-1.5 l 0.02,-0.587 v -0.02 C 2.891,-2.405 2.955,-2.585 3.076,-2.648 V -2.8 h -1.12 c -0.037,0.071 -0.064,0.156 -0.083,0.259 -0.02,0.102 -0.032,0.225 -0.036,0.366 l -0.013,0.524 c -0.012,0.308 -0.07,0.516 -0.175,0.624 -0.104,0.108 -0.293,0.163 -0.566,0.163 H 0 V -2.8 Z"
           style="fill:#3b6eab;fill-opacity:1;fill-rule:nonzero;stroke:none"
           id="path306" /></g><g
         id="g308"
         transform="translate(280.4956,283.0995)"><path
           d="m 0,0 h 1.01 c 0.038,-0.273 0.15,-0.475 0.334,-0.606 0.185,-0.132 0.451,-0.198 0.801,-0.198 0.296,0 0.521,0.053 0.671,0.159 0.151,0.105 0.226,0.262 0.226,0.469 0,0.301 -0.433,0.552 -1.299,0.75 C 1.731,0.576 1.721,0.579 1.712,0.581 1.689,0.585 1.655,0.593 1.607,0.604 1.144,0.706 0.812,0.819 0.614,0.945 0.439,1.058 0.305,1.209 0.212,1.4 0.121,1.589 0.074,1.814 0.074,2.073 c 0,0.484 0.164,0.855 0.493,1.113 0.329,0.257 0.804,0.387 1.426,0.387 0.58,0 1.034,-0.138 1.362,-0.412 0.328,-0.275 0.5,-0.662 0.519,-1.162 H 2.891 C 2.873,2.24 2.781,2.423 2.614,2.549 2.447,2.676 2.209,2.738 1.901,2.738 1.633,2.738 1.427,2.686 1.281,2.582 1.136,2.477 1.063,2.328 1.063,2.134 1.063,1.871 1.346,1.674 1.911,1.543 2.064,1.507 2.184,1.479 2.269,1.458 2.632,1.366 2.889,1.294 3.041,1.243 3.193,1.191 3.325,1.133 3.438,1.07 3.641,0.958 3.792,0.809 3.894,0.623 3.995,0.437 4.046,0.215 4.046,-0.044 4.046,-0.562 3.871,-0.963 3.522,-1.248 3.173,-1.533 2.681,-1.675 2.046,-1.675 1.42,-1.675 0.93,-1.53 0.574,-1.24 0.218,-0.949 0.027,-0.536 0,0"
           style="fill:#3b6eab;fill-opacity:1;fill-rule:nonzero;stroke:none"
           id="path310" /></g><path
         d="m 286.063,286.537 h 1.023 v -4.975 h -1.023 z"
         style="fill:#3b6eab;fill-opacity:1;fill-rule:nonzero;stroke:none"
         id="path312" /><g
         id="g314"
         transform="translate(289.875,281.5624)"><path
           d="M 0,0 V 4.086 H -1.476 V 4.975 H 2.489 V 4.086 H 1.023 V 0 Z"
           style="fill:#3b6eab;fill-opacity:1;fill-rule:nonzero;stroke:none"
           id="path316" /></g><g
         id="g318"
         transform="translate(295.8721,281.5624)"><path
           d="M 0,0 H -1.023 V 1.854 L -2.83,4.975 h 1.253 L -0.513,2.83 0.47,4.975 H 1.638 L 0,1.854 Z"
           style="fill:#3b6eab;fill-opacity:1;fill-rule:nonzero;stroke:none"
           id="path320" /></g><g
         id="g322"
         transform="translate(302.1436,284.0449)"><path
           d="m 0,0 c 0,-0.547 0.122,-0.972 0.364,-1.275 0.244,-0.303 0.584,-0.454 1.021,-0.454 0.441,0 0.785,0.151 1.029,0.454 C 2.66,-0.972 2.782,-0.547 2.782,0 2.782,0.547 2.66,0.972 2.414,1.274 2.17,1.578 1.826,1.729 1.385,1.729 0.948,1.729 0.608,1.578 0.364,1.276 0.122,0.975 0,0.549 0,0 m -1.043,0 c 0,0.804 0.218,1.441 0.656,1.913 0.438,0.472 1.029,0.708 1.772,0.708 0.742,0 1.334,-0.237 1.774,-0.709 C 3.6,1.438 3.82,0.801 3.82,0 3.82,-0.802 3.6,-1.439 3.159,-1.912 2.719,-2.384 2.127,-2.621 1.385,-2.621 c -0.743,0 -1.334,0.237 -1.772,0.709 -0.438,0.473 -0.656,1.11 -0.656,1.912"
           style="fill:#3b6eab;fill-opacity:1;fill-rule:nonzero;stroke:none"
           id="path324" /></g><g
         id="g326"
         transform="translate(307.4648,281.5624)"><path
           d="M 0,0 V 4.975 H 3.473 V 4.11 H 1.011 V 2.982 H 3.168 V 2.118 H 1.011 V 0 Z"
           style="fill:#3b6eab;fill-opacity:1;fill-rule:nonzero;stroke:none"
           id="path328" /></g><g
         id="g330"
         transform="translate(314.9687,281.5624)"><path
           d="M 0,0 V 4.975 H 3.473 V 4.11 H 1.011 V 2.982 H 3.168 V 2.118 H 1.011 V 0 Z"
           style="fill:#3b6eab;fill-opacity:1;fill-rule:nonzero;stroke:none"
           id="path332" /></g><path
         d="m 319.832,286.537 h 1.022 v -4.975 h -1.022 z"
         style="fill:#3b6eab;fill-opacity:1;fill-rule:nonzero;stroke:none"
         id="path334" /><g
         id="g336"
         transform="translate(322.6133,281.5624)"><path
           d="M 0,0 V 4.975 H 1.07 L 3.09,1.557 V 4.975 H 4.101 V 0 H 3.043 L 1.01,3.418 V 0 Z"
           style="fill:#3b6eab;fill-opacity:1;fill-rule:nonzero;stroke:none"
           id="path338" /></g><g
         id="g340"
         transform="translate(330.2822,285.541)"><path
           d="M 0,0 -0.689,-2.118 H 0.692 Z M -0.594,0.996 H 0.588 L 2.381,-3.979 H 1.307 l -0.338,1.024 h -1.928 l -0.327,-1.024 h -1.078 z"
           style="fill:#3b6eab;fill-opacity:1;fill-rule:nonzero;stroke:none"
           id="path342" /></g><g
         id="g344"
         transform="translate(333.8672,281.5624)"><path
           d="M 0,0 V 4.975 H 1.07 L 3.09,1.557 V 4.975 H 4.101 V 0 H 3.043 L 1.01,3.418 V 0 Z"
           style="fill:#3b6eab;fill-opacity:1;fill-rule:nonzero;stroke:none"
           id="path346" /></g><g
         id="g348"
         transform="translate(344.0146,283.2714)"><path
           d="m 0,0 c -0.038,-0.565 -0.255,-1.014 -0.652,-1.348 -0.398,-0.333 -0.917,-0.499 -1.556,-0.499 -0.736,0 -1.309,0.229 -1.717,0.689 -0.409,0.459 -0.614,1.103 -0.614,1.931 0,0.847 0.209,1.496 0.626,1.946 0.416,0.45 1.015,0.675 1.796,0.675 0.636,0 1.137,-0.155 1.505,-0.464 0.368,-0.31 0.57,-0.747 0.605,-1.313 h -1.009 c -0.043,0.282 -0.158,0.497 -0.344,0.644 -0.187,0.147 -0.44,0.221 -0.757,0.221 -0.45,0 -0.792,-0.145 -1.027,-0.436 -0.234,-0.29 -0.35,-0.714 -0.35,-1.273 0,-0.54 0.116,-0.958 0.349,-1.252 0.233,-0.295 0.564,-0.443 0.995,-0.443 0.31,0 0.564,0.08 0.762,0.238 0.199,0.159 0.327,0.387 0.386,0.684 z"
           style="fill:#3b6eab;fill-opacity:1;fill-rule:nonzero;stroke:none"
           id="path350" /></g><g
         id="g352"
         transform="translate(345.5244,281.5624)"><path
           d="M 0,0 V 4.975 H 3.614 V 4.11 H 1.01 V 3.05 H 3.391 V 2.199 H 1.01 V 0.919 H 3.735 V 0 Z"
           style="fill:#3b6eab;fill-opacity:1;fill-rule:nonzero;stroke:none"
           id="path354" /></g><g
         id="g356"
         transform="translate(355.2568,285.541)"><path
           d="m 0,0 -0.688,-2.118 h 1.38 z M -0.594,0.996 H 0.588 L 2.381,-3.979 H 1.307 L 0.97,-2.955 h -1.929 l -0.327,-1.024 h -1.077 z"
           style="fill:#3b6eab;fill-opacity:1;fill-rule:nonzero;stroke:none"
           id="path358" /></g><g
         id="g360"
         transform="translate(358.8428,281.5624)"><path
           d="M 0,0 V 4.975 H 1.071 L 3.09,1.557 V 4.975 H 4.101 V 0 H 3.043 L 1.01,3.418 V 0 Z"
           style="fill:#3b6eab;fill-opacity:1;fill-rule:nonzero;stroke:none"
           id="path362" /></g><g
         id="g364"
         transform="translate(365.6631,282.4609)"><path
           d="M 0,0 H 0.82 C 1.297,0 1.64,0.125 1.853,0.373 2.065,0.622 2.172,1.026 2.172,1.584 2.172,2.14 2.072,2.549 1.875,2.81 1.676,3.071 1.367,3.202 0.946,3.202 H 0 Z M -1.003,-0.898 V 4.076 H 0.946 C 1.71,4.076 2.278,3.87 2.653,3.458 3.028,3.046 3.215,2.421 3.215,1.584 3.215,1.129 3.146,0.728 3.008,0.382 2.869,0.035 2.669,-0.244 2.404,-0.456 2.207,-0.613 1.981,-0.727 1.729,-0.795 1.478,-0.864 1.124,-0.898 0.669,-0.898 Z"
           style="fill:#3b6eab;fill-opacity:1;fill-rule:nonzero;stroke:none"
           id="path366" /></g><g
         id="g368"
         transform="translate(373.0557,281.5624)"><path
           d="M 0,0 V 4.975 H 3.614 V 4.11 H 1.011 V 3.05 h 2.38 V 2.199 H 1.011 V 0.919 H 3.735 V 0 Z"
           style="fill:#3b6eab;fill-opacity:1;fill-rule:nonzero;stroke:none"
           id="path370" /></g><g
         id="g372"
         transform="translate(382.5928,283.2714)"><path
           d="m 0,0 c -0.038,-0.565 -0.255,-1.014 -0.652,-1.348 -0.398,-0.333 -0.917,-0.499 -1.556,-0.499 -0.736,0 -1.309,0.229 -1.717,0.689 -0.409,0.459 -0.614,1.103 -0.614,1.931 0,0.847 0.209,1.496 0.626,1.946 0.416,0.45 1.015,0.675 1.796,0.675 0.636,0 1.137,-0.155 1.505,-0.464 0.368,-0.31 0.57,-0.747 0.605,-1.313 h -1.009 c -0.043,0.282 -0.158,0.497 -0.344,0.644 -0.187,0.147 -0.44,0.221 -0.757,0.221 -0.45,0 -0.792,-0.145 -1.027,-0.436 -0.234,-0.29 -0.35,-0.714 -0.35,-1.273 0,-0.54 0.116,-0.958 0.349,-1.252 0.233,-0.295 0.564,-0.443 0.995,-0.443 0.31,0 0.564,0.08 0.762,0.238 0.199,0.159 0.327,0.387 0.386,0.684 z"
           style="fill:#3b6eab;fill-opacity:1;fill-rule:nonzero;stroke:none"
           id="path374" /></g><g
         id="g376"
         transform="translate(384.9297,284.0449)"><path
           d="m 0,0 c 0,-0.547 0.121,-0.972 0.364,-1.275 0.243,-0.303 0.583,-0.454 1.02,-0.454 0.441,0 0.785,0.151 1.03,0.454 C 2.659,-0.972 2.782,-0.547 2.782,0 2.782,0.547 2.659,0.972 2.414,1.274 2.169,1.578 1.825,1.729 1.384,1.729 0.947,1.729 0.607,1.578 0.364,1.276 0.121,0.975 0,0.549 0,0 m -1.044,0 c 0,0.804 0.219,1.441 0.657,1.913 0.438,0.472 1.028,0.708 1.771,0.708 0.743,0 1.334,-0.237 1.774,-0.709 C 3.6,1.438 3.819,0.801 3.819,0 3.819,-0.802 3.6,-1.439 3.158,-1.912 2.718,-2.384 2.127,-2.621 1.384,-2.621 c -0.743,0 -1.333,0.237 -1.771,0.709 -0.438,0.473 -0.657,1.11 -0.657,1.912"
           style="fill:#3b6eab;fill-opacity:1;fill-rule:nonzero;stroke:none"
           id="path378" /></g><g
         id="g380"
         transform="translate(390.251,281.5624)"><path
           d="M 0,0 V 4.975 H 1.07 L 3.09,1.557 V 4.975 H 4.101 V 0 H 3.043 L 1.01,3.418 V 0 Z"
           style="fill:#3b6eab;fill-opacity:1;fill-rule:nonzero;stroke:none"
           id="path382" /></g><g
         id="g384"
         transform="translate(396.8965,284.0449)"><path
           d="m 0,0 c 0,-0.547 0.121,-0.972 0.364,-1.275 0.243,-0.303 0.583,-0.454 1.02,-0.454 0.441,0 0.785,0.151 1.03,0.454 C 2.659,-0.972 2.781,-0.547 2.781,0 2.781,0.547 2.659,0.972 2.414,1.274 2.169,1.578 1.825,1.729 1.384,1.729 0.947,1.729 0.607,1.578 0.364,1.276 0.121,0.975 0,0.549 0,0 m -1.044,0 c 0,0.804 0.219,1.441 0.657,1.913 0.438,0.472 1.028,0.708 1.771,0.708 0.743,0 1.334,-0.237 1.774,-0.709 C 3.599,1.438 3.819,0.801 3.819,0 c 0,-0.802 -0.22,-1.439 -0.661,-1.912 -0.44,-0.472 -1.031,-0.709 -1.774,-0.709 -0.743,0 -1.333,0.237 -1.771,0.709 -0.438,0.473 -0.657,1.11 -0.657,1.912"
           style="fill:#3b6eab;fill-opacity:1;fill-rule:nonzero;stroke:none"
           id="path386" /></g><g
         id="g388"
         transform="translate(402.2178,281.5624)"><path
           d="M 0,0 V 4.975 H 1.513 L 2.503,1.189 3.479,4.975 H 4.998 V 0 H 4.039 V 4.012 L 3.029,0 H 1.982 L 0.959,4.012 V 0 Z"
           style="fill:#3b6eab;fill-opacity:1;fill-rule:nonzero;stroke:none"
           id="path390" /></g><path
         d="m 408.976,286.537 h 1.022 v -4.975 h -1.022 z"
         style="fill:#3b6eab;fill-opacity:1;fill-rule:nonzero;stroke:none"
         id="path392" /><g
         id="g394"
         transform="translate(416.0859,283.2714)"><path
           d="m 0,0 c -0.038,-0.565 -0.256,-1.014 -0.653,-1.348 -0.398,-0.333 -0.916,-0.499 -1.555,-0.499 -0.736,0 -1.31,0.229 -1.717,0.689 -0.409,0.459 -0.614,1.103 -0.614,1.931 0,0.847 0.209,1.496 0.626,1.946 0.416,0.45 1.015,0.675 1.796,0.675 0.635,0 1.137,-0.155 1.504,-0.464 0.368,-0.31 0.571,-0.747 0.606,-1.313 H -1.016 C -1.06,1.899 -1.174,2.114 -1.36,2.261 -1.548,2.408 -1.8,2.482 -2.117,2.482 c -0.45,0 -0.792,-0.145 -1.028,-0.436 -0.233,-0.29 -0.349,-0.714 -0.349,-1.273 0,-0.54 0.116,-0.958 0.348,-1.252 0.234,-0.295 0.565,-0.443 0.996,-0.443 0.31,0 0.564,0.08 0.762,0.238 0.199,0.159 0.326,0.387 0.386,0.684 z"
           style="fill:#3b6eab;fill-opacity:1;fill-rule:nonzero;stroke:none"
           id="path396" /></g><g
         id="g398"
         transform="translate(417.4941,283.0995)"><path
           d="m 0,0 h 1.01 c 0.038,-0.273 0.149,-0.475 0.335,-0.606 0.183,-0.132 0.451,-0.198 0.801,-0.198 0.295,0 0.52,0.053 0.67,0.159 0.152,0.105 0.227,0.262 0.227,0.469 0,0.301 -0.434,0.552 -1.3,0.75 C 1.731,0.576 1.722,0.579 1.712,0.581 1.689,0.585 1.654,0.593 1.607,0.604 1.144,0.706 0.812,0.819 0.615,0.945 0.438,1.058 0.305,1.209 0.213,1.4 0.121,1.589 0.075,1.814 0.075,2.073 c 0,0.484 0.164,0.855 0.492,1.113 0.329,0.257 0.804,0.387 1.425,0.387 0.582,0 1.036,-0.138 1.362,-0.412 C 3.683,2.886 3.856,2.499 3.874,1.999 H 2.891 C 2.873,2.24 2.78,2.423 2.614,2.549 2.447,2.676 2.21,2.738 1.901,2.738 1.633,2.738 1.427,2.686 1.281,2.582 1.137,2.477 1.064,2.328 1.064,2.134 1.064,1.871 1.347,1.674 1.911,1.543 2.064,1.507 2.185,1.479 2.27,1.458 2.632,1.366 2.889,1.294 3.042,1.243 3.193,1.191 3.325,1.133 3.438,1.07 3.641,0.958 3.793,0.809 3.895,0.623 3.995,0.437 4.046,0.215 4.046,-0.044 4.046,-0.562 3.872,-0.963 3.522,-1.248 3.174,-1.533 2.682,-1.675 2.046,-1.675 1.421,-1.675 0.931,-1.53 0.574,-1.24 0.219,-0.949 0.026,-0.536 0,0"
           style="fill:#3b6eab;fill-opacity:1;fill-rule:nonzero;stroke:none"
           id="path400" /></g><g
         id="g402"
         transform="translate(413.6875,324.8954)"><path
           d="M 0,0 C -1.046,-0.596 -1.819,-0.342 -1.964,0.972 -1.203,1.64 -0.471,2.32 0.223,3.021 0.475,3.334 0.225,3.685 0.004,4.034 -0.291,4.728 0.009,5.069 1.18,4.894 1.806,4.771 2.108,4.438 1.701,3.646 1.051,2.447 0.484,1.232 0,0 m -4.224,-2.345 c -0.275,-0.238 -0.806,-0.221 -1.373,-0.169 -0.095,0.611 -0.076,1.192 0.021,1.754 0.475,0.225 0.975,0.281 1.5,0.168 0.489,-0.558 0.377,-1.146 -0.148,-1.753 m 2.006,-1.225 c -0.401,0.514 -0.338,1.028 -0.063,1.542 0.387,0.276 0.835,0.384 1.416,0.127 0.901,-0.572 1.304,-1.037 0.612,-1.267 -0.608,-0.323 -1.261,-0.468 -1.965,-0.402 m -9.031,-1.878 c 0.284,0.322 0.645,0.451 1.121,0.299 0.205,-0.405 0.196,-0.795 -0.025,-1.171 -0.372,-0.333 -0.767,-0.338 -1.17,-0.224 -0.157,0.385 -0.234,0.761 0.074,1.096 m 4.942,10.087 c 0,0.213 0.603,1.004 0.497,1.987 l -0.143,1.612 c -0.473,0.2 -0.526,1.616 -2.216,1.616 -0.489,0 -0.087,-3.658 -0.87,-3.973 0,-1.067 -0.62,-1.953 -0.62,-3.104 V 2.28 c 0.517,-0.209 0.47,-1.365 1.117,-1.365 0.454,0 0.707,0.279 0.745,0.745 0.353,0.082 0.877,0.372 0.994,0.372 0.205,0 0.404,-0.357 0.496,-0.497 l -0.574,-2.37 -0.419,0.011 c -0.455,0 -1.397,0.579 -1.636,0.848 -0.609,0.69 -0.988,0.27 -1.965,0.27 v 2.483 c -0.558,0.149 -0.886,0.745 -1.491,0.745 h -0.62 c -0.581,0 -1.242,-0.48 -1.242,-1.118 V 2.28 c 0,-0.263 1.614,-0.929 1.614,-1.738 V 0.169 l -0.297,-7.695 -0.243,-0.472 -0.95,-0.027 c 0,0.811 0.248,0.788 0.248,1.49 v 1.241 l -0.143,1.612 -0.135,-0.041 -0.286,1.018 -0.403,0.31 -0.026,0.454 c 0,0.559 -0.446,1.592 -0.994,1.738 l -0.258,-1.985 -0.365,-0.119 c 0.002,-1.043 -0.37,-1.374 -0.37,-2.49 v -0.248 l 0.148,-2.606 c 0.338,-0.099 1.094,-1.021 1.094,-1.244 0,-0.337 -2.666,-1.489 -2.982,-1.489 -0.334,0 -1.156,2.607 -1.862,2.607 h -0.373 c -0.136,-0.584 -0.292,-1.336 -0.869,-1.49 -0.016,-0.721 -0.372,-1.078 -0.372,-2.11 v -0.621 l 0.147,-2.606 0.225,-0.001 v -0.373 c 0,-0.279 0.099,-0.273 0.248,-0.497 0,-2.038 0.889,-1.717 0.994,-2.98 h 0.372 v -0.373 h 0.621 l -0.057,0.116 0.644,0.324 0.397,1.1 0.16,-0.05 0.172,4.72 1.914,-10e-4 c 0.885,0 1.062,0.801 1.63,1.101 0.611,0.325 1.173,0.47 1.799,0.809 0.739,0.398 0.907,0.692 1.903,0.83 0.016,0.002 1.792,0.733 1.841,0.766 1.179,0.78 2.166,1.218 3.424,1.916 0.511,0.283 1.216,0.627 1.734,0.874 0.588,0.28 0.545,0.078 1.184,0.181 0.386,0.062 0.666,0.352 0.891,0.352 h 0.869 c 0.14,0.346 0.368,0.372 0.869,0.372 h 0.373 c 0.291,0 0.496,-0.206 0.496,-0.497 0,-0.294 -0.761,-0.934 -1.053,-1.057 -0.386,-0.163 -1.356,-0.445 -1.56,-0.551 -0.284,-0.147 -0.319,-0.353 -0.612,-0.505 -0.301,-0.158 -0.377,-0.077 -0.727,-0.266 -0.252,-0.137 -0.491,-0.361 -0.674,-0.444 -0.223,-0.1 -0.5,-0.119 -0.754,-0.24 -0.496,-0.233 -2.536,-1.315 -2.839,-1.383 -0.691,-0.152 -2.911,-0.669 -3.081,-1.141 -0.52,0 -2.112,0.026 -2.112,-0.496 v -0.497 c 0.119,-0.013 1.738,-1.075 1.988,-1.242 l 1.486,-0.156 0.127,0.032 c 0.721,0 0.696,0.497 1.739,0.497 l 0.552,0.433 0.441,0.063 c 0.477,0 0.617,1.082 2.236,1.118 v -0.497 c 0,-0.087 -1.171,-1.979 -1.334,-2.143 -0.498,-0.499 -1.334,-1.21 -2.268,-1.21 v -0.372 c 0,-0.347 0.994,-0.537 0.994,-1.738 v -1.242 c 0,-0.299 -0.569,-0.868 -0.869,-0.868 H -7.92 c -0.209,-0.516 -3.756,-1.739 -4.72,-1.739 -0.395,-0.265 -0.694,-0.496 -1.366,-0.496 h -1.118 c -0.082,-0.353 -0.124,-0.213 -0.124,-0.497 0,-0.434 0.723,-0.63 0.87,-0.993 1.279,0 0.952,-0.367 1.86,-0.499 0.62,-0.091 1.312,-0.191 1.369,-0.867 0.278,-0.065 0.285,-0.124 0.621,-0.124 h 0.372 c 1.094,0 0.372,0.643 1.662,1.07 0.716,0.236 1.148,0.544 2.063,0.544 h 0.373 v -2.235 h -0.249 v -0.248 l -0.068,-0.146 -1.809,0.859 0.335,-4.807 c 0.114,-0.28 0.393,-0.873 0.798,-0.873 0.965,0 1.133,0.366 1.78,0.703 0.651,0.34 0.468,1.018 1.2,1.283 v 0.373 c 0,0.393 0.267,0.216 0.427,0.939 0.155,0.697 -0.02,0.418 0.319,0.923 l 0.269,4.593 0.227,0.002 v 0.372 c 0.747,0.174 2.267,0.869 2.732,0.869 h 1.864 c 0.212,0.525 0.993,0.298 0.993,1.366 v 1.987 c 0,0.656 -0.472,0.85 -0.621,1.489 H 0.772 c -0.685,0 -2.815,-1.489 -3.228,-1.489 h -0.497 c -0.395,0 -0.625,1.217 -0.621,1.241 l 0.145,0.99 c 0.149,0.048 1.49,1.42 1.669,1.667 0.276,0.379 1.042,1.793 1.042,2.31 v 0.744 c 0,0.761 -0.554,0.815 -0.621,1.614 l 0.546,0.313 0.696,0.06 0.267,0.358 c 0.948,0.015 1.325,0.333 2.166,0.562 0.656,0.179 1.607,0.146 2.337,0.272 1.68,0.289 3.179,0.098 3.179,2.036 v 0.373 c 0,1.048 -0.326,2.741 -1.491,2.608 L 3.51,-2.602 3.381,-2.562 c -0.392,0 -1.053,0.073 -0.993,0.497 l 0.386,3.226 c 0.685,0.47 1.212,2.908 2.594,3.23 v 0.497 c 0,1.63 -1.833,4.097 -3.353,4.097 -0.403,0 -1.857,-1.244 -1.988,-1.49 L -3.521,6.347 -4.02,6.053 -4.071,5.757 c 0,-0.337 0.958,-1.715 1.366,-1.862 V 3.397 c 0,-0.706 -0.65,-2.855 -1.241,-2.855 h -0.249 c -0.402,0 -0.62,0.451 -0.62,0.869 v 0.621 c 0,0.836 0.62,0.584 0.62,1.738 v 0.497 h -2.112 z m -4.097,-8.07 c 0,0.581 0.377,1.614 1.118,1.614 h 0.247 c 0.279,0 0.273,-0.098 0.497,-0.248 0.433,0 0.745,0.076 0.745,-0.373 v -0.497 c 0,-0.183 -0.402,-1.986 -0.62,-1.986 -1.361,0 -1.325,0.444 -1.987,0.621 z"
           style="fill:#3c73b5;fill-opacity:1;fill-rule:evenodd;stroke:none"
           id="path404" /></g><g
         id="g406"
         transform="translate(368.6846,322.5873)"><path
           d="m 0,0 c -0.665,0.375 -0.035,0.441 -1.029,0.833 -0.384,0.15 -1.085,0.308 -1.556,0.308 h -0.124 c -0.336,0 -0.497,-0.331 -0.497,-0.621 0,-0.597 0.034,-1.447 0.497,-1.615 l 0.276,-2.852 c 0.048,-0.67 -0.287,-1.819 -0.275,-2.736 0.026,-2.176 -0.899,-0.714 -0.994,-1.861 -0.443,-0.01 -1.811,-0.359 -2.264,-0.47 -0.551,-0.134 -1.893,-0.178 -2.084,-0.648 -1.088,0 -1.755,-0.373 -2.483,-0.373 h -0.621 v -0.247 h -1.367 c -0.502,0 -1.117,-0.135 -1.117,-0.621 v -0.248 c 0,-1.351 0.847,-1.246 0.869,-2.236 0.404,-0.213 1.243,-0.993 1.739,-0.993 h 0.745 c 0.203,0 0.836,0.195 1.344,0.272 0.975,0.146 0.437,0.38 0.751,0.738 0.104,0.12 2.157,0.728 2.376,0.728 h 0.621 v 0.372 c 0.279,0.065 0.285,0.125 0.621,0.125 h 0.994 c 0.285,0 0.372,-0.086 0.372,-0.372 v -1.118 l -1.304,-2.326 c -0.127,-0.083 -2.224,-2.114 -2.597,-2.465 -1.179,-1.11 -1.814,-1.208 -3.053,-2.038 -1.178,0 -1.14,-0.496 -2.361,-0.496 h -0.497 v -0.249 h -1.241 c -0.413,0 -0.363,-0.223 -0.372,-0.621 0.709,-0.165 2.068,-1.49 2.732,-1.49 h 0.373 v -0.248 l 1.362,-0.152 c 1.685,-0.182 2.191,0.494 3.02,0.984 0.452,0.266 0.953,0.363 1.333,0.655 0.247,0.189 0.789,0.647 1.069,0.794 0.61,0.322 1.747,1.329 2.076,1.898 0.17,0.294 1.403,2.277 1.571,2.277 h 0.497 v -0.372 c 0.266,-0.022 2.627,-1.915 3.105,-2.235 0.742,0 1.17,-0.084 1.242,-0.745 1.176,-0.098 1.416,-0.931 1.986,-0.993 v -0.87 C 5.202,-22.451 3.5,-22.515 3.5,-22.947 c 0,-0.677 2.953,-0.931 3.602,-1.366 h 0.622 c 0.189,-0.284 0.919,-0.745 1.366,-0.745 h 1.613 c 0.541,0 1.366,0.238 1.366,0.745 v 0.373 c 0,1.115 -0.372,1.446 -0.372,2.483 -0.636,0.336 -2.177,0.932 -2.36,1.614 H 8.841 c -0.152,0.285 -1.704,1.47 -2.075,1.651 -0.728,0.353 -0.457,0.491 -0.998,0.864 -0.338,0.233 -0.64,0.342 -1.078,0.661 -0.434,0.318 -0.553,0.479 -1.05,0.813 -0.351,0.235 -0.732,0.4 -1.177,0.685 -0.514,0.329 -0.825,0.016 -1.317,0.546 -0.315,0.339 -0.875,0.593 -0.875,0.864 v 0.993 c 0,2.172 1.175,1.69 2.361,2.484 h 0.496 c 0.509,0.34 2.989,1.013 3.843,1.124 0.461,0.06 1.294,0.26 2.096,0.387 1.15,0.183 0.852,0.879 1.388,1.096 v 0.993 c 0,1.068 -0.463,2.235 -1.49,2.235 H 8.468 C 8.376,-4.447 7.51,-5.078 7.026,-5.24 6.44,-5.436 6.094,-5.644 5.441,-5.767 4.568,-5.932 2.407,-6.005 2.135,-6.682 H 1.39 c -0.616,0 -0.312,1.599 -0.223,2.209 0.03,0.201 0.116,0.981 0.226,1.14 0.205,0.302 0.493,0.179 0.493,0.873 v 0.496 C 1.886,-1.556 0.305,-0.172 0,0"
           style="fill:#3c73b5;fill-opacity:1;fill-rule:evenodd;stroke:none"
           id="path408" /></g><g
         id="g410"
         transform="translate(336.1348,312.9462)"><path
           d="M 0,0 C 0.892,0.536 1.974,0.832 3.311,0.81 3.974,0.475 4.099,0.046 3.687,-0.475 3.097,-1.303 1.73,-1.695 0.139,-1.927 -0.033,-1.471 -0.052,-0.828 0,0 m -6.471,-13.119 c -0.55,0.318 3.287,3.063 3.312,2.57 l 0.107,-2.21 c -1.26,-0.275 -2.447,-0.371 -3.419,-0.36 m -11.946,12.18 c 0,1.375 2.045,3.722 2.828,4.498 0.274,0.27 3.936,3.182 4.002,3.2 v 0.497 c 0,0.217 -0.408,0.556 -0.599,0.891 -0.199,0.355 -0.208,0.664 -0.421,0.944 -0.242,0.313 -1.067,1.133 -1.587,1.145 -0.104,0.387 -0.658,0.62 -1.119,0.62 -0.405,0 -1.945,-3.508 -3.229,-3.973 V 6.511 c 0,-0.678 -3.757,-5.057 -4.346,-5.215 V 0.923 c 0,-1.407 0.319,-1.537 0.869,-2.359 0,-0.616 0.194,-1.117 0.746,-1.117 h 0.248 c 0.543,0 0.451,0.248 0.994,0.248 h 0.993 c 0,-2.113 -1.863,-1.909 -1.863,-3.6 v -0.373 h 0.249 v -0.745 c 0,-1.292 0.692,-1.228 0.744,-1.863 0.751,-0.174 0.352,-0.496 1.118,-0.496 h 0.125 c 0.555,0 2.358,2.047 2.358,2.359 v 0.621 c 0.656,0.236 0.566,0.972 1.492,0.993 -0.27,-1.156 -0.659,-1.1 0.621,-0.993 l -0.562,-2.217 -1.864,-2.834 -0.431,-0.04 v 1.242 c 0,0.355 -0.04,0.227 -0.249,0.373 l -1.709,-4.936 c 0.986,-0.353 0.492,-1.521 2.206,-1.521 v -0.248 l 1.986,-0.15 c 0.717,-0.038 1.641,3.083 1.791,3.947 0.237,1.376 0.322,3.758 0.322,5.266 v 0.622 c 0.877,0.233 2.534,1.614 2.608,1.614 h 0.123 c 0.479,0 0.519,-0.87 1.491,-0.87 h 0.249 c 0.369,0 0.706,0.508 0.745,0.87 h 0.745 c 0.449,-1.928 1.319,-2.552 3.477,-2.733 V -9.01 h -0.372 l -1.168,-1.826 -0.447,-0.036 c -0.297,0 -1.971,-1.39 -2.228,-1.621 -0.484,-0.436 -1.958,-0.787 -2.864,-0.862 -0.064,-0.279 -0.124,-0.286 -0.124,-0.621 v -0.125 c 0,-0.839 0.685,-2.607 1.739,-2.607 h 1.242 c 1.184,0 3.476,0.994 3.85,0.994 h 0.62 l 0.118,0.375 c 0.811,-0.003 1.291,0.37 1.498,0.37 h 2.731 c 1.818,0 1.024,-0.869 1.739,-0.869 h 1.367 l 1.488,0.135 c 0.286,0.179 0.871,0.528 0.871,0.982 v 1.242 c 0,0.256 -0.415,1.241 -0.869,1.241 H 4.559 l -4.594,-0.151 -0.002,2.138 0.434,0.311 1.18,0.062 c 0.746,0 1.863,0.876 1.863,1.613 v 0.373 c 0,0.486 -0.187,0.014 -0.248,0.745 -0.673,0.157 -0.366,0.546 -1.528,0.956 -0.36,0.126 -1.576,0.568 -1.576,0.907 v 1.489 c 0,0.266 0.223,0.533 0.496,0.497 l 2.479,-0.288 0.626,0.04 1.116,0.139 c 0.466,0.862 0.636,-0.091 1.052,1.17 0.209,0.633 0.158,1.28 0.688,1.422 V 0.303 L 6.921,0.42 7.063,3.157 C 7.084,3.808 6.421,5.145 5.8,5.145 4.587,5.145 2.79,3.779 1.205,3.779 1.076,3.586 1.041,3.407 0.708,3.407 h -0.62 v 1.365 c 0,0.58 -0.725,0.319 -0.746,1.242 0.574,0.063 0.617,0.621 1.242,0.621 0.619,0 1.468,-0.066 2.063,-0.176 0.829,-0.151 0.996,0.145 1.663,0.3 v 0.869 c 0,0.699 -0.346,1.091 -0.497,1.739 H 3.44 C 3.385,10.032 2.902,10.236 2.199,10.236 H 1.95 C 1.168,10.236 0.202,9.784 -0.734,9.567 -2.144,9.24 -2.297,9.602 -3.39,8.87 L -9.354,8.399 C -9.416,8.095 -9.476,8.088 -9.476,7.752 V 7.007 c 0,-0.909 0.876,-2.359 1.74,-2.359 h 0.744 c 0,-0.681 -0.36,-1.602 -0.869,-1.738 V 2.414 C -8.946,1.84 -7.476,1.768 -9.302,1.123 -9.317,1.117 -10.16,0.713 -10.226,0.68 -10.521,0.53 -10.718,0.25 -10.718,-0.193 v -0.994 h 0.249 V -2.18 h -0.373 v -0.621 l 0.142,-1.364 -1.191,-0.93 -0.813,-0.066 c -0.145,0 -1.036,0.533 -1.366,0.621 v 0.745 c 0,0.34 2.08,2.318 2.235,2.359 v 1.863 c 0,0.133 -1.518,1.817 -1.739,2.235 l -1.613,0.144 -0.149,-0.384 -0.474,-0.008 v -0.87 h -0.372 c -0.097,-1.169 -1.215,-1.452 -1.49,-2.483 z m 12.171,5.711 c 0.422,0.224 0.837,0.373 1.49,0.373 h 0.496 c 0.419,0 0.87,-0.22 0.87,-0.621 V 2.414 L -4.743,2.112 C -5.151,1.9 -5.45,1.668 -6.122,1.668 h -0.87 l 0.676,2.506 z m -0.746,-6.704 c 0,0.826 0.973,0.919 1.66,1.072 0.533,0.119 2.066,0.42 2.066,-0.203 v -3.228 c 0,-0.419 -0.219,-0.87 -0.621,-0.87 H -4.88 c -1.592,0 -2.112,0.998 -2.112,2.608 z"
           style="fill:#3c73b5;fill-opacity:1;fill-rule:evenodd;stroke:none"
           id="path412" /></g><g
         id="g414"
         transform="translate(282.7153,303.2885)"><path
           d="M 0,0 C -0.252,0.454 -0.307,0.931 -0.074,1.439 0.457,1.908 1.07,2.08 1.764,1.956 2.418,1.549 2.701,0.923 2.168,-0.185 1.229,-0.419 0.506,-0.357 0,0 m -4.669,10.186 c 0.012,0.688 0.024,1.377 0.037,2.066 0.912,0.126 1.719,0.154 1.801,-0.517 0.036,-0.911 -0.688,-1.36 -1.838,-1.549 m 20.323,9.682 c 0.435,2.385 -1.243,2.558 -3.304,2.558 h -0.746 v -0.373 c 0,-0.332 0.46,-1.87 0.621,-2.11 l 0.131,-8.195 -0.816,-0.599 -0.066,0.105 -0.141,-0.366 C 10.21,10.853 9.973,10.083 9.271,9.611 9.167,9.542 6.73,9.017 6.512,9.017 6.341,8.761 6.14,8.694 6.14,8.396 V 7.651 c 0,-0.588 0.736,-2.484 1.242,-2.484 h 0.621 c 0.473,0 1.799,1.134 1.987,1.49 L 10.031,6.54 12.332,7.331 C 12.415,7 12.474,6.993 12.474,6.657 V 3.802 C 11.863,3.751 9.157,0.839 8.375,0.821 8.03,0.168 5.789,-0.668 4.774,-0.668 H 4.65 c -0.344,0 -0.299,0.095 -0.373,0.372 H 3.656 C 3.664,0.036 4.35,1.815 4.65,1.815 H 5.519 C 5.72,2.37 5.892,1.91 5.892,2.436 V 5.54 H 5.519 c -0.286,0 -0.373,0.086 -0.373,0.372 v 3.105 l 0.312,6.701 0.72,1.061 0.086,1.053 c 0,0.814 -1.818,2.483 -2.608,2.483 H 2.787 c -0.495,0 -0.808,-0.592 -1.196,-0.791 -0.115,-0.059 -1.412,-0.539 -1.439,-0.547 -1.048,-0.328 -2.085,-0.628 -2.085,-1.89 v -0.373 h 0.373 c 0.544,0 0.888,0.87 1.987,0.87 h 0.621 c 0.962,0 1.739,-1.042 1.739,-1.987 V 11.003 C 2.787,9.902 2.794,8.059 2.64,7.053 2.571,6.61 1.571,4.546 1.172,4.546 H 0.924 c -0.387,0 -0.745,0.393 -0.745,0.87 V 5.912 C 0.509,6 0.924,6.261 0.924,6.657 v 0.87 c 0,0.348 -0.695,0.833 -1.118,0.869 l 0.27,0.213 -0.908,0.227 c -1.35,0.056 -0.89,0.565 -1.473,0.801 v 0.497 c 0,0.428 0.092,0.48 0.124,0.869 l 1.114,0.152 1.494,-0.028 V 11.5 c 0.398,0.009 0.621,-0.041 0.621,0.372 v 0.621 c 0,0.891 -0.355,0.716 -0.373,1.49 -0.639,0.17 -1.056,0.708 -2.23,0.749 -0.963,0.035 -2.012,-0.004 -2.986,-0.004 -0.399,0.268 -0.693,0.373 -1.366,0.373 h -1.117 c -0.599,0 -0.878,-0.387 -1.118,-0.746 V 7.402 c 0,-1.131 -0.186,-2.463 -0.128,-3.355 0.08,-1.194 1.048,-1.179 1.867,-1.611 -1.079,-2.039 -6.334,-1.22 -6.334,-2.856 v -0.248 c 0,-0.615 1.645,-1.987 2.609,-1.987 h 0.869 c 0.617,0 1.576,0.621 2.607,0.621 0.116,0.434 2.458,2.218 3.229,2.235 0,-0.967 -1.056,-3.03 -1.738,-3.104 -0.089,-0.803 -1.288,-0.677 -1.366,-1.615 l -2.431,-1.375 0.071,-0.114 c -0.432,0 -0.745,0.075 -0.745,-0.373 0,-0.366 0.715,-0.745 1.117,-0.745 h 1.118 c 1.507,0 2.939,1.783 3.817,2.517 0.7,0.584 0.954,1.329 1.497,1.731 0.482,0.355 1.355,0.984 1.517,1.588 1.394,-0.116 1.41,-1.197 2.144,-2.078 0.434,-0.522 1.252,-2.268 1.954,-2.268 h 0.373 c 0.499,0 1.09,1.647 1.265,2.212 0.499,1.605 -0.175,1.389 1.963,1.389 0.545,0.365 2.098,0.666 2.872,0.979 0.721,0.291 2.107,1.349 2.469,1.38 l 0.297,-1.606 -0.049,-2.615 c 0,-0.365 -0.629,-0.994 -0.993,-0.994 H 11.48 c -1.223,0 -1.297,0.791 -2.235,0.869 v -0.62 c 0,-0.91 1.598,-2.04 2.116,-2.604 0.397,-0.432 0.707,-0.588 1.151,-1.208 0.176,-0.245 0.94,-1.155 1.204,-1.155 h 0.372 c 0.036,0.133 1.139,1.274 1.428,1.676 0.363,0.505 0.404,1.791 0.303,2.661 -0.206,1.751 -0.24,3.891 -0.24,5.844 V 2.56 c 0,1.09 2.98,2.317 2.98,2.98 V 6.285 L 17.994,6.713 16.949,6.933 16.697,6.905 C 16.254,6.905 16.209,6.481 16.2,6.037 15.801,6.045 15.579,5.996 15.579,6.409 v 2.235 c 0,0.643 4.097,1.667 4.097,3.477 v 0.621 c 0,0.438 -0.207,1.613 -0.62,1.613 h -0.497 c -0.503,0 -0.642,-0.115 -0.745,-0.496 h -0.497 c -0.061,-0.734 -0.868,-1.117 -1.614,-1.117 -0.152,0 -0.372,0.256 -0.372,0.496 v 0.993 c 0,1.437 0.086,4.343 0.323,5.637 M -4.665,6.409 -3.517,5.448 c 0.5,-0.032 1.833,-0.429 1.833,-0.902 V 4.174 c 0,-0.77 -1.308,-1.242 -1.739,-1.242 h -0.372 c -0.429,0 -0.481,0.092 -0.87,0.125 z"
           style="fill:#3c73b5;fill-opacity:1;fill-rule:evenodd;stroke:none"
           id="path416" /></g><g
         id="g418"
         transform="translate(239.1572,304.1)"><path
           d="M 0,0 C 0.6,0.387 0.814,0.344 0.644,-0.129 0.313,-0.797 0.346,-1.206 1.046,-1.098 1.202,-1.442 1.293,-1.787 0.933,-2.132 0.592,-2.458 0.12,-2.705 -0.435,-2.729 -0.868,-2.75 -1.137,-2.622 -1.255,-2.407 -0.973,-1.494 -0.719,-0.56 0,0 M 5.063,18.697 C 4.935,20.242 3.596,20.915 3.573,21.925 2.653,22.17 2.874,24.16 -0.525,24.16 -0.59,23.881 -0.649,23.875 -0.649,23.539 v -0.373 c 0,-0.868 1.49,-1.933 1.49,-3.725 v -2.483 c 0,-0.96 -2.455,-1.573 -3.27,-1.946 -0.815,-0.373 -2.919,-1.158 -3.933,-1.158 l -0.151,-0.489 c -0.571,-0.147 -4.195,-0.233 -4.195,-0.877 v -0.124 c 0,-0.335 0.956,-1.373 1.187,-1.668 0.288,-0.366 1.181,-1.063 1.793,-1.063 h 0.994 c 0.114,0.284 1.276,0.868 1.614,0.868 h 0.621 V 8.64 c 0,-0.429 -0.217,-1.739 -0.621,-1.739 H -5.617 C -5.762,6.542 -8.253,5.908 -8.846,5.908 h -1.49 c -0.203,-0.503 -0.621,-0.14 -0.621,-0.745 V 4.915 c 0,-0.507 0.621,-0.44 0.621,-1.49 0,-0.515 -0.682,-2.867 -0.994,-2.981 v -4.221 c 0,-1.431 0.514,-3.973 1.863,-3.973 h 0.373 c 0.87,0 1.778,1.248 1.739,1.862 l -0.39,7.705 C -8.187,2.31 -8.521,3.114 -9.218,3.3 v 0.497 c 0.805,0.067 2.515,0.621 2.98,0.621 h 0.994 c 0.335,0 0.342,-0.06 0.62,-0.125 L -4.774,3.804 C -4.597,3.573 -4.499,3.579 -4.499,3.3 V 2.804 L -3.68,2.279 -4.25,2.183 c -0.462,0 -0.994,-1.109 -0.994,-1.739 V -0.3 c 0,-0.535 0.922,-1.117 1.49,-1.117 h 1.118 c 0.102,0.381 0.241,0.496 0.745,0.496 h 0.373 L -2.456,-2.62 c -0.788,-0.11 -1.05,-0.217 -1.05,-1.157 0,-1.357 1.285,-2.334 1.491,-3.104 h 0.497 l 0.147,-0.364 0.474,-0.008 c 0.527,0 0.515,0.745 1.366,0.745 h 0.124 c 0.546,0 1.117,-1.793 1.117,-2.484 0.652,-0.236 0.345,-1.49 1.243,-1.49 h 0.124 c 0.216,0 1.862,1.635 1.862,2.111 v 1.863 h 0.249 l 0.148,1.487 c 0.403,0.639 -0.021,0.633 0.591,0.878 0.47,0.188 0.427,0.221 0.82,0.545 0.535,0.445 0.8,1.151 0.8,2.056 0,0.291 -0.205,0.497 -0.496,0.497 H 5.437 v 0.248 H 4.939 c -0.05,0.61 -0.248,0.455 -0.248,0.993 v 0.248 c 0,0.279 0.099,0.273 0.248,0.497 l 1.75,0.326 0.146,1.16 C 6.353,2.536 6.181,2.625 6.181,3.176 c 0,0.88 1.074,1.599 1.472,2.13 0.561,0.749 0.96,1.347 2.254,1.347 l 0.358,0.266 3.612,0.387 1.495,-0.033 c 0.486,0 0.013,-0.187 0.745,-0.248 0,-0.759 0.199,-1.158 0.124,-1.862 L 16.098,3.551 14.834,0.658 14.47,-0.665 14.129,-0.673 13.055,-3.118 12.163,-4.195 11.55,-4.798 11.646,-4.894 c -0.278,-0.065 -0.285,-0.125 -0.621,-0.125 h -0.621 c -0.097,0.365 -0.944,1.352 -1.614,1.367 0.012,-0.553 0.87,-2.091 1.102,-2.623 0.241,-0.555 0.014,-1.068 0.296,-1.567 0.223,-0.396 0.556,-0.494 0.837,-1.025 h 0.621 c 0.224,-0.151 0.218,-0.249 0.497,-0.249 h 0.993 c 0.76,0 1.011,0.956 1.615,1.117 v 0.621 c 0.602,0.218 1.835,2.999 2.41,3.799 0.338,0.47 1.629,3.801 1.688,4.52 h 0.373 c 0,1.082 0.744,1.97 0.744,2.98 v 1.366 c 0,0.668 -0.372,0.516 -0.372,1.49 H 19.222 C 19.174,7.348 17.921,9.26 17.359,9.26 H 16.862 C 16.767,9.523 16.575,9.757 16.241,9.757 H 15 L 12.771,9.461 12.406,9.242 10.407,9.104 C 10.075,9.107 10.146,11.19 9.723,11.683 9.446,12.006 8.33,12.861 7.796,12.861 H 7.672 c -0.291,0 -0.497,-0.206 -0.497,-0.497 V 11.247 L 6.384,9.903 C 5.532,9.806 6.037,8.9 5.237,8.59 5.118,8.544 3.285,8.143 3.201,8.143 H 1.586 v 0.372 c 0,0.188 0.882,2.245 1.051,2.426 0.741,0.794 0.695,1.53 1.433,1.92 0.015,0.678 0.326,1.424 0.824,1.659 0.245,0.115 1.595,0.572 1.784,0.575 l 0.148,0.364 c 0.845,0.029 1.853,0.411 2.573,0.642 0.285,0.09 1.874,1.01 1.874,1.354 v 0.373 c 0,0.22 -1.641,1.986 -1.862,1.986 H 7.796 C 7.325,19.814 7.241,19.578 6.582,19.413 6.177,19.312 5.739,19.194 5.685,18.697 Z m -8.817,-7.698 c 0,0.456 2.63,1.429 3.354,1.489 v -0.496 c 0,-0.601 -1.475,-2.889 -1.491,-3.601 L -2,8.306 -3.67,10.443 Z m 3.229,-6.084 c 0.686,0.362 2.742,0.744 3.85,0.744 H 3.946 C 3.92,4.515 3.019,3.973 2.953,3.176 l -3.349,-0.412 -0.626,0.04 z"
           style="fill:#3c73b5;fill-opacity:1;fill-rule:evenodd;stroke:none"
           id="path420" /></g><g
         id="g422"
         transform="translate(182.9258,303.7812)"><path
           d="m 0,0 c 0.535,-0.999 1.468,-1.667 2.16,-2.435 0.607,-0.673 0.541,-0.391 1.09,-1.269 0.443,-0.71 0.462,-0.728 1.026,-1.334 0.511,-0.548 0.375,-0.737 1.164,-1.194 0.512,-0.297 0.934,-0.827 1.409,-0.827 h 0.373 c 0.501,0 0.784,0.994 1.738,0.994 h 0.621 l 0.118,-0.375 1.056,-0.37 -0.056,-0.125 h 1.49 c 0.576,0 0.374,0.232 1.119,0.248 v 0.374 l 2.357,0.153 0.375,-0.029 v 0.248 h 2.359 c 0.52,0 2.465,-0.764 2.608,-1.118 H 22 c 0.855,0 1.917,2.178 2.874,2.59 0.43,0.186 2.468,2.439 2.62,2.844 0.464,1.242 3.875,5.585 5.312,5.617 0.177,0.663 1.241,1.058 1.241,1.613 0,1.771 -1.415,2.136 -2.008,3.208 -0.861,1.554 -0.424,0.337 -1.319,1.289 -0.454,0.484 -0.507,1.215 -1.392,1.215 h -0.621 l -1.364,-0.142 -0.002,-0.23 h -0.745 c -0.382,0 -1.994,-1.02 -2.857,-1.242 C 23.311,9.592 20.883,8.425 20.883,9.331 v 0.497 c 0,0.907 0.745,0.836 0.745,1.986 v 0.248 c 0,0.931 -0.773,0.855 -1.591,1.018 -0.192,0.038 -1.801,0.72 -1.887,0.72 h -0.869 l -0.25,-0.495 C 17.033,11.568 16.804,8.52 16.294,7.462 16.042,6.938 14.893,6.534 14.27,6.258 13.667,5.991 13.488,6.202 12.881,6.032 12.375,5.891 12.192,5.605 11.693,5.605 c -0.066,0 -0.273,0.18 -0.373,0.249 0,4.803 -2.608,2.195 -2.608,3.477 0,0.612 1.486,1.934 2.112,1.986 l -0.095,0.095 1.366,1.366 0.094,-0.095 c 0.049,0.585 1.592,2.732 2.112,2.732 h 3.105 c 1.264,0 2.219,-0.167 3.358,-0.13 0.549,0.019 2.354,0.605 2.354,1.123 v 0.869 c 0,0.93 -0.703,2.856 -1.49,2.856 h -0.87 l -3.35,-0.276 -0.002,-0.221 H 16.164 L 9.462,19.201 6.104,19.264 C 6.041,18.991 5.962,18.94 5.955,18.765 l 0.174,-1.734 c 0.329,-0.189 1.254,-1.473 1.838,-1.864 0.568,0 1.739,0.226 1.739,-0.373 0,-0.278 -0.099,-0.273 -0.248,-0.497 V 13.676 C 9.107,13.154 8.257,12.049 7.83,11.579 6.981,10.645 6.888,10.826 6.228,9.579 H 5.98 V 9.207 L 4.877,8.908 4.717,7.969 4.044,7.417 C 2.831,7.315 3.142,6.343 1.512,6.348 -0.777,6.355 -0.14,5.858 -1.223,5.605 L -1.653,4.813 -1.72,4.24 C -1.914,4.111 -2.092,4.076 -2.092,3.744 V 2.626 C -1.208,2.42 -1.265,2.09 -0.919,1.44 -0.655,0.947 -0.193,0.36 0,0 m 25.354,6.351 c 0.102,0.099 0.295,0.248 0.497,0.248 h 0.496 V 6.103 c 0,-0.333 -0.179,-0.368 -0.372,-0.498 0,-0.79 -1.476,-2.513 -1.987,-2.855 0,-0.674 -0.931,-2.035 -1.289,-2.56 -0.326,-0.478 -0.462,-0.763 -0.769,-1.218 -0.373,-0.555 -0.909,-0.523 -0.675,-0.94 -0.526,-0.14 -0.217,-0.248 -0.621,-0.248 h -0.372 c -0.311,0 -0.613,0.464 -1.74,0.373 -0.621,-0.049 -1.044,-0.125 -1.861,-0.125 h -0.497 c -0.287,0 -0.373,0.086 -0.373,0.372 0,0.279 1.04,0.549 1.118,1.491 l 0.492,0.139 c 0.061,0.664 0.971,2.053 1.232,2.607 0.402,0.854 0.32,2.344 1.381,2.344 h 0.372 C 20.493,5.25 22.19,5.839 22.6,6 c 0.807,0.317 1.642,0.351 2.754,0.351 M 3.993,5.357 c 0.501,0.336 1.154,0.746 1.987,0.746 0.066,0 0.272,-0.18 0.373,-0.249 0,-0.923 0.372,-1.033 0.372,-1.614 0,-0.431 -1.567,-0.869 -1.739,-0.869 H 3.993 c -0.299,0 -0.869,1.093 -0.869,1.241 v 0.249 c 0,0.278 0.098,0.272 0.248,0.496 z m 7.7,-2.855 c 0,0.484 3.233,1.242 3.725,1.242 0.111,0 0.249,-0.139 0.249,-0.249 0,-1.284 -1.542,-5.339 -2.608,-5.339 H 12.562 L 12.083,0.37 c -0.116,0.353 -0.39,1.219 -0.39,1.759 z M 5.731,1.136 C 6.524,1.202 6.972,1.757 7.47,1.757 h 0.249 c 0.351,0 0.444,-0.358 0.62,-0.621 L 8.643,-0.466 8.952,-0.625 C 8.973,-1.134 9.83,-2.384 9.83,-2.589 9.83,-2.924 9.771,-2.931 9.706,-3.209 8.871,-3.228 8.988,-3.582 8.339,-3.582 c -0.325,0 -2.608,3.55 -2.608,3.973 z"
           style="fill:#3b6eab;fill-opacity:1;fill-rule:evenodd;stroke:none"
           id="path424" /></g></g></g></svg>
