<?xml version="1.0" encoding="UTF-8"?>
<!-- Generator: Adobe Illustrator 18.0.0, SVG Export Plug-In . SVG Version: 6.00 Build 0)  -->
<!DOCTYPE svg PUBLIC "-//W3C//DTD SVG 1.1//EN" "http://www.w3.org/Graphics/SVG/1.1/DTD/svg11.dtd">
<svg version="1.1" id="Ebene_1" xmlns="http://www.w3.org/2000/svg" xmlns:xlink="http://www.w3.org/1999/xlink" x="0px" y="0px" viewBox="0 0 242 28" enable-background="new 0 0 242 28" xml:space="preserve">
<g>
	<path fill="#E11A27" d="M12.2,15.5c0,3.1-2.7,4.6-6,4.6c-3.2,0-6.2-1.9-6.2-5.5h3.4c0,2,1.2,2.7,2.9,2.7c1.4,0,2.5-0.5,2.5-1.8   c0-1.4-1.5-1.5-4.7-2.8C2,12,0.5,11.2,0.5,8.6c0-2.9,2.6-4.4,5.7-4.4c3.2,0,5.8,2.2,5.8,5.1H8.5C8.5,7.9,7.8,7,6.1,7   C4.9,7,3.9,7.6,3.9,8.6c0,1.3,1.4,1.5,4.2,2.5C10.2,12,12.2,12.7,12.2,15.5"/>
</g>
<polygon fill="#E11A27" points="25.8,8.4 21.8,19.7 19.5,19.7 13.6,4.6 17.4,4.6 20.7,14.2 24.1,4.6 27.6,4.6 31,14.2 34.3,4.6   38.1,4.6 32.2,19.7 29.8,19.7 "/>
<g>
	<path fill="#E11A27" d="M41.2,4.6h3.5v15.1h-3.5V4.6z M42.9,22.8c1.5,0,2.6,1.2,2.6,2.6c0,1.4-1.2,2.6-2.6,2.6   c-1.4,0-2.6-1.2-2.6-2.6C40.3,23.9,41.5,22.8,42.9,22.8"/>
	<path fill="#E11A27" d="M60.8,15.5c0,3.1-2.7,4.6-6,4.6c-3.3,0-6.2-1.9-6.2-5.5H52c0,2,1.2,2.7,2.9,2.7c1.4,0,2.5-0.5,2.5-1.8   c0-1.4-1.5-1.5-4.7-2.8c-2.1-0.8-3.6-1.6-3.6-4.2c0-2.9,2.6-4.4,5.7-4.4c3.2,0,5.8,2.2,5.8,5.1h-3.4c0-1.4-0.7-2.3-2.4-2.3   c-1.2,0-2.2,0.6-2.2,1.7c0,1.3,1.4,1.5,4.2,2.5C58.8,12,60.8,12.7,60.8,15.5"/>
	<path fill="#E11A27" d="M75.7,15.5c0,3.1-2.7,4.6-6,4.6c-3.3,0-6.2-1.9-6.2-5.5h3.4c0,2,1.2,2.7,2.9,2.7c1.4,0,2.5-0.5,2.5-1.8   c0-1.4-1.5-1.5-4.7-2.8C65.5,12,64,11.2,64,8.6c0-2.9,2.6-4.4,5.7-4.4c3.2,0,5.8,2.2,5.8,5.1H72C72,7.9,71.3,7,69.6,7   c-1.2,0-2.2,0.6-2.2,1.7c0,1.3,1.4,1.5,4.2,2.5C73.7,12,75.7,12.7,75.7,15.5"/>
	<path fill="#E11A27" d="M93.2,4.6v15.1h-3.5v-2.1c-0.9,1.6-2.7,2.5-4.9,2.5c-2.2,0-3.7-0.8-4.6-2c-0.7-1.1-1-2.4-1-4.5v-9h3.5v7.8   c0,2.6,0.7,4.6,3.3,4.6c2.5,0,3.6-2,3.6-4.6V4.6H93.2z"/>
	<path fill="#E11A27" d="M97.9,4.6h3.5v2.1c0.9-1.6,2.7-2.5,4.9-2.5c2.2,0,3.7,0.8,4.5,2c0.7,1.1,1,2.4,1,4.5v9h-3.5v-7.8   c0-2.6-0.7-4.6-3.3-4.6c-2.5,0-3.6,2-3.6,4.6v7.8h-3.5V4.6z"/>
	<path fill="#E11A27" d="M116.3,4.6h3.5v15.1h-3.5V4.6z M118,22.8c1.5,0,2.6,1.2,2.6,2.6c0,1.4-1.2,2.6-2.6,2.6   c-1.4,0-2.6-1.2-2.6-2.6C115.4,23.9,116.6,22.8,118,22.8"/>
</g>
<polygon fill="#E11A27" points="126.5,4.6 130.6,14.6 134.9,4.6 138.7,4.6 131.8,19.7 129.4,19.7 122.7,4.6 "/>
<g>
	<path fill="#E11A27" d="M142.8,10.6h7.4c0-2.1-1.5-3.4-3.7-3.4C144.5,7.1,142.8,8.3,142.8,10.6 M142.8,13.2c0,2.2,1.1,3.9,4,3.9   c2,0,2.8-0.9,3.2-2h3.6c-0.5,2.6-2.9,4.9-6.8,4.9c-5.1,0-7.6-3.8-7.6-8c0-4.5,2.7-8,7.5-8c3.9,0,7,3,7,6.8c0,0.5,0,1.2-0.2,2.2   H142.8z"/>
	<path fill="#E11A27" d="M167.2,7.9c-0.6-0.1-0.8-0.2-1.4-0.2c-3,0-4.7,1.7-4.7,5.5v6.5h-3.5V4.6h3.5V7c0.7-1.4,2.7-2.6,4.7-2.6   c0.6,0,1,0.1,1.4,0.2V7.9z"/>
	<path fill="#E11A27" d="M180.8,15.5c0,3.1-2.7,4.6-6,4.6c-3.2,0-6.2-1.9-6.2-5.5h3.4c0,2,1.2,2.7,2.9,2.7c1.4,0,2.5-0.5,2.5-1.8   c0-1.4-1.5-1.5-4.7-2.8c-2.1-0.8-3.6-1.6-3.6-4.2c0-2.9,2.6-4.4,5.7-4.4c3.2,0,5.8,2.2,5.8,5.1h-3.4c0-1.4-0.7-2.3-2.4-2.3   c-1.2,0-2.2,0.6-2.2,1.7c0,1.3,1.4,1.5,4.2,2.5C178.8,12,180.8,12.7,180.8,15.5"/>
	<path fill="#E11A27" d="M184.5,4.6h3.5v15.1h-3.5V4.6z M186.3,22.8c1.5,0,2.6,1.2,2.6,2.6c0,1.4-1.2,2.6-2.6,2.6   c-1.4,0-2.6-1.2-2.6-2.6C183.7,23.9,184.8,22.8,186.3,22.8"/>
	<path fill="#E11A27" d="M201.4,19.7c-0.6,0.1-1.6,0.2-2.6,0.2c-1.7,0-4.9-0.2-4.9-5.3v-7h-2.6v-3h2.6V0h3.5v4.6h3.5v3h-3.5v6.2   c0,2.6,0.8,3,2.2,3c0.6,0,1.4-0.1,1.8-0.1V19.7z"/>
	<path fill="#E11A27" d="M205.3,4.6h3.5v15.1h-3.5V4.6z M207,22.8c1.5,0,2.6,1.2,2.6,2.6c0,1.4-1.2,2.6-2.6,2.6   c-1.4,0-2.6-1.2-2.6-2.6C204.4,23.9,205.6,22.8,207,22.8"/>
	<path fill="#E11A27" d="M216.3,10.6h7.4c0-2.1-1.5-3.4-3.7-3.4C217.9,7.1,216.3,8.3,216.3,10.6 M216.2,13.2c0,2.2,1.1,3.9,4,3.9   c2,0,2.8-0.9,3.2-2h3.6c-0.5,2.6-2.9,4.9-6.8,4.9c-5.1,0-7.6-3.8-7.6-8c0-4.5,2.7-8,7.5-8c3.9,0,7,3,7,6.8c0,0.5,0,1.2-0.2,2.2   H216.2z"/>
	<path fill="#E11A27" d="M242,15.5c0,3.1-2.7,4.6-6,4.6c-3.2,0-6.2-1.9-6.2-5.5h3.4c0,2,1.2,2.7,2.9,2.7c1.4,0,2.5-0.5,2.5-1.8   c0-1.4-1.5-1.5-4.7-2.8c-2.1-0.8-3.6-1.6-3.6-4.2c0-2.9,2.6-4.4,5.7-4.4c3.2,0,5.8,2.2,5.8,5.1h-3.4c0-1.4-0.7-2.3-2.4-2.3   c-1.2,0-2.2,0.6-2.2,1.7c0,1.3,1.4,1.5,4.2,2.5C240,12,242,12.7,242,15.5"/>
</g>
</svg>