<?xml version="1.0" encoding="UTF-8" standalone="no"?>
<svg
   xmlns:dc="http://purl.org/dc/elements/1.1/"
   xmlns:cc="http://creativecommons.org/ns#"
   xmlns:rdf="http://www.w3.org/1999/02/22-rdf-syntax-ns#"
   xmlns:svg="http://www.w3.org/2000/svg"
   xmlns="http://www.w3.org/2000/svg"
   xmlns:sodipodi="http://sodipodi.sourceforge.net/DTD/sodipodi-0.dtd"
   xmlns:inkscape="http://www.inkscape.org/namespaces/inkscape"
   version="1.1"
   id="layer"
   x="0px"
   y="0px"
   viewBox="0 0 500 500"
   xml:space="preserve"
   sodipodi:docname="valais-excellence-logo.svg"
   width="500"
   height="500"
   inkscape:version="1.0.1 (3bc2e813f5, 2020-09-07)"><metadata
   id="metadata89"><rdf:RDF><cc:Work
       rdf:about=""><dc:format>image/svg+xml</dc:format><dc:type
         rdf:resource="http://purl.org/dc/dcmitype/StillImage" /><dc:title></dc:title></cc:Work></rdf:RDF></metadata><defs
   id="defs87" /><sodipodi:namedview
   pagecolor="#ffffff"
   bordercolor="#666666"
   borderopacity="1"
   objecttolerance="10"
   gridtolerance="10"
   guidetolerance="10"
   inkscape:pageopacity="0"
   inkscape:pageshadow="2"
   inkscape:window-width="1000"
   inkscape:window-height="480"
   id="namedview85"
   showgrid="false"
   showguides="true"
   inkscape:guide-bbox="true"
   inkscape:zoom="0.19249958"
   inkscape:cx="257.20096"
   inkscape:cy="173.917"
   inkscape:window-x="1342"
   inkscape:window-y="262"
   inkscape:window-maximized="0"
   inkscape:current-layer="layer"><sodipodi:guide
     position="1066.0596,-291.13435"
     orientation="1,0"
     id="guide914" /></sodipodi:namedview>
<style
   type="text/css"
   id="style2">
	.st0{fill:#E50012;}
	.st1{fill:#B2A8A2;}
	.st2{fill:#9B867D;}
	.st3{fill:#FFFFFF;}
	.st4{fill:#AC0003;}
</style>
<g
   id="g8"
   transform="translate(-76.8,-76.4)">
	<path
   class="st0"
   d="M 467,328.7 C 467,406.2 404.2,469 326.7,469 249.2,469 186.4,406.2 186.4,328.7 c 0,-77.5 62.8,-140.3 140.3,-140.3 77.5,0 140.3,62.8 140.3,140.3"
   id="path4" />
	<path
   class="st0"
   d="M 81.5,326.4 C 81.5,191.2 191.5,81.1 326.7,81.1 462,81.2 572,191.2 572,326.4 572,461.6 462,571.6 326.8,571.6 191.6,571.6 81.5,461.6 81.5,326.4 m -4.7,0 c 0,137.8 112.1,250 250,250 137.9,0 250,-112.1 250,-250 0,-137.9 -112.1,-250 -250,-250 -137.9,0 -250,112.2 -250,250"
   id="path6" />
</g>
<polygon
   class="st0"
   points="340.5,142.8 349.6,177.7 328.2,151.6 308.8,164.2 314.9,142.8 291.3,129.4 320,129.4 328.2,96.9 336.5,129.4 358.1,129.4 "
   id="polygon10"
   transform="translate(-76.8,-76.4)" />
<g
   id="g20"
   transform="translate(-76.8,-76.4)">
	<path
   class="st1"
   d="m 434.2,459.1 c -29.4,23.8 -66.8,38.1 -107.5,38.1 -41.3,0 -79.3,-14.8 -108.8,-39.3 -20.6,2 -46.5,23.9 -46.5,23.9 39.8,39.8 94.8,64.4 155.4,64.4 60,0 114.5,-24.2 154.2,-63.3 0,0.2 -26.1,-22 -46.8,-23.8"
   id="path12" />
	<path
   class="st2"
   d="m 263.5,134.4 c -7.4,2.4 -9.7,8.8 -7.2,17.5 l 23.4,-7.6 c -2.7,-7.9 -7.5,-12.7 -16.2,-9.9 m -5.4,23.5 c 5.8,13.1 15.7,10.4 22.1,8.3 4,-1.3 7.5,-3 11.6,-5.1 l 1.9,6 c -4.8,3 -9.3,4.8 -14.1,6.3 -15.5,5 -26.9,-1.1 -31.7,-16.1 -5,-15.5 2.4,-25.1 13.7,-28.8 15.1,-4.9 24.3,2.4 28.8,16.6 l 0.7,2.2 z"
   id="path14" />
	<path
   class="st2"
   d="m 378.8,175.4 c -14.3,-4.2 -22,-15.1 -17.2,-31.2 4.2,-14.2 17.1,-19.1 30.4,-15.2 4.6,1.4 7.3,2.4 11.3,4.4 l -1.9,6.6 c -3.4,-1.6 -5.6,-2.7 -8.4,-3.5 -10,-3.1 -19,-0.9 -22.4,10.4 -3.4,11.5 1.7,19.2 12.7,22.4 2.5,0.6 5.2,1.3 9.3,1.7 l -1.9,6.5 c -4.7,-0.2 -8.3,-1 -11.9,-2.1"
   id="path16" />
	<path
   class="st2"
   d="m 436.8,157.9 c -6.6,-4.3 -13,-2.1 -18.1,5.4 l 20.6,13.5 c 4.4,-7.1 5.3,-13.9 -2.5,-18.9 m -21.6,10.6 c -6.5,12.8 1.8,18.8 7.4,22.4 3.5,2.3 7.1,4 11.3,5.8 l -3.4,5.2 c -5.4,-1.9 -9.5,-4.2 -13.8,-7 -13.6,-8.9 -16,-21.6 -7.4,-34.8 8.9,-13.6 21.1,-13.9 31,-7.4 13.3,8.7 13.4,20.4 5.2,32.9 l -1.3,1.9 z"
   id="path18" />
</g>
<rect
   x="167.85394"
   y="349.28809"
   transform="rotate(-43.760095)"
   class="st2"
   width="65.996155"
   height="8.7994871"
   id="rect22"
   style="stroke-width:0.999942" />
<polygon
   class="st2"
   points="513.1,197.9 459.6,236.5 454.5,229.4 508,190.7 "
   id="polygon24"
   transform="translate(-76.8,-76.4)" />
<g
   id="g36"
   transform="translate(-76.8,-76.4)">
	<path
   class="st2"
   d="m 513,249.8 c -3,-7.2 -9.6,-9 -18,-5.7 l 9.5,22.7 c 7.7,-3.4 12.1,-8.5 8.5,-17 m -23.8,-3.4 c -12.6,6.9 -9,16.5 -6.4,22.7 1.6,3.9 3.6,7.3 6.1,11.1 l -5.8,2.4 c -3.4,-4.6 -5.5,-8.9 -7.5,-13.6 -6.3,-15 -1.1,-26.9 13.4,-33 15,-6.3 25.2,0.3 29.8,11.3 6.1,14.7 -0.4,24.4 -14.1,30.1 l -2.1,0.9 z"
   id="path26" />
	<path
   class="st2"
   d="m 488,328.2 29.4,-2 c 4.9,-0.3 10.3,-0.8 9.7,-8.7 -0.3,-4.5 -3.3,-10.9 -5.2,-14.7 l -35.5,2.4 -0.6,-8.7 46.2,-3.1 0.5,8.1 -4.2,0.3 c 4.7,8.9 5.9,11.9 6.4,18.3 0.4,6.6 -2.9,14.1 -13.1,14.8 l -33,2.2 z"
   id="path28" />
	<path
   class="st2"
   d="m 480.5,372.5 c 3.5,-14.6 13.9,-22.7 30.2,-18.9 14.4,3.4 20,16 16.8,29.5 -1.1,4.7 -2,7.4 -3.8,11.5 L 517,393 c 1.5,-3.5 2.4,-5.8 3,-8.6 2.5,-10.2 -0.1,-19 -11.7,-21.7 -11.6,-2.8 -19.1,2.8 -21.7,13.9 -0.5,2.5 -1,5.3 -1.2,9.4 l -6.6,-1.6 c 0.2,-4.5 0.8,-8.2 1.7,-11.9"
   id="path30" />
	<path
   class="st2"
   d="m 501.2,429.5 c 3.9,-6.8 1.3,-13 -6.4,-17.8 L 482.4,433 c 7.4,4.1 14.1,4.5 18.8,-3.5 m -11.8,-21 c -13.1,-5.9 -18.6,2.8 -22,8.6 -2.1,3.7 -3.6,7.3 -5.2,11.5 l -5.4,-3.1 c 1.6,-5.5 3.7,-9.7 6.3,-14.2 8.2,-14.1 20.7,-17.2 34.3,-9.3 14.1,8.2 15,20.3 9.1,30.6 -8,13.8 -19.6,14.4 -32.5,7 l -2,-1.2 z"
   id="path32" />
	<path
   class="st3"
   d="m 212.5,498 c -4.8,-3.3 -6.2,-8.5 -2.9,-13.3 3.3,-4.9 8.4,-5.8 13.4,-2.4 1.4,1 3,2.1 4.2,3.4 l -1.9,2.8 c 0,0 -1.5,-1.5 -3,-2.5 -3.1,-2.1 -5.7,-2.2 -8.2,1.5 -2.5,3.6 -1.5,6 1.6,8.2 1.5,1 3.6,2 3.6,2 l -1.9,2.7 c -1.8,-0.5 -3.4,-1.3 -4.9,-2.4"
   id="path34" />
</g>
<polygon
   class="st3"
   points="249.2,497.3 247.7,500.3 239.7,496.3 237.9,499.9 243.6,502.7 242.1,505.6 236.4,502.8 234.5,506.7 242.8,510.9 241.3,513.9 228.4,507.5 236.7,491 "
   id="polygon38"
   transform="translate(-76.8,-76.4)" />
<g
   id="g42"
   transform="translate(-76.8,-76.4)">
	<path
   class="st3"
   d="m 265.8,507.2 -2.5,-0.8 -1.8,5.3 2.5,0.8 c 1.9,0.6 3.1,0.3 3.8,-1.7 0.7,-2.1 0,-3 -2,-3.6 m 1.7,8.9 2.3,8.3 -5.5,-1.8 -1.6,-7 -2.2,-0.7 -2,5.9 -4.8,-1.6 5.8,-17.5 8.6,2.9 c 3.7,1.2 6.1,3.5 4.7,7.7 -1.4,4.1 -5.3,3.6 -5.3,3.6 z"
   id="path40" />
</g>
<polygon
   class="st3"
   points="288.1,513.3 282.6,512.2 283.2,508.8 299.2,511.8 298.6,515.2 293.1,514.2 290.3,528.9 285.3,528 "
   id="polygon44"
   transform="translate(-76.8,-76.4)" />
<polygon
   class="st3"
   points="315.1,513.2 310,512.9 308.7,531.2 313.8,531.6 "
   id="polygon46"
   transform="translate(-76.8,-76.4)" />
<polygon
   class="st3"
   points="340,521.4 340.1,524.9 333.5,525.2 333.8,531.8 328.7,532 327.9,513.6 342.2,512.9 342.3,516.4 333.1,516.8 333.3,521.7 "
   id="polygon48"
   transform="translate(-76.8,-76.4)" />
<polygon
   class="st3"
   points="361.5,528.8 358.5,510.6 353.5,511.4 356.5,529.6 "
   id="polygon50"
   transform="translate(-76.8,-76.4)" />
<polygon
   class="st3"
   points="384.5,504.1 385.4,507.3 376.8,509.8 377.9,513.7 384,512 384.9,515.1 378.8,516.9 380,521.1 389,518.5 389.9,521.7 376.1,525.7 371,508 "
   id="polygon52"
   transform="translate(-76.8,-76.4)" />
<g
   id="g58"
   transform="translate(-76.8,-76.4)">
	<path
   class="st3"
   d="m 402.3,500.5 -1.4,0.7 5,10.8 1.4,-0.6 c 4,-1.7 5,-3.5 2.9,-7.9 -2,-4.5 -4,-5 -7.9,-3 m 8.1,13.1 -7.7,3.5 -7.7,-16.8 7.7,-3.5 c 4.8,-2.2 9.3,-2 12.3,4.4 2.6,5.7 0.4,10 -4.6,12.4"
   id="path54" />
	<path
   class="st3"
   d="m 431.5,486.9 -0.9,0.6 1.9,2.9 0.9,-0.6 c 1.1,-0.7 1.5,-1.6 0.8,-2.6 -0.7,-1 -1.6,-1 -2.7,-0.3 m 7,6 c -1.7,-0.7 -3.1,-1.3 -4.3,-1.8 l -0.8,0.6 2.2,3.2 -1.8,1.2 -5.8,-8.6 3.1,-2.1 c 2,-1.3 3.7,-1.5 5,0.5 0.7,1.1 0.8,2.4 -0.2,3.7 1.1,0.4 4.9,1.8 4.9,1.8 z m -8.6,-9 c -3.4,2.3 -4.3,6.8 -2.1,10.1 2.2,3.3 6.8,4.2 10.2,1.9 3.4,-2.3 4.4,-6.8 2.1,-10.2 -2.3,-3.3 -6.8,-4.1 -10.2,-1.8 m 9.3,13.9 c -4.4,3 -10.4,1.8 -13.3,-2.5 -2.9,-4.4 -1.7,-10.3 2.8,-13.3 4.4,-3 10.4,-1.9 13.4,2.5 2.8,4.3 1.5,10.3 -2.9,13.3"
   id="path56" />
</g>
<polygon
   class="st3"
   points="336.2,238.5 343.6,267 326.1,245.6 310.2,256 315.2,238.5 296,227.5 319.4,227.5 326.1,201 332.8,227.5 350.5,227.5 "
   id="polygon60"
   transform="translate(-76.8,-76.4)" />
<g
   id="g64"
   transform="translate(-76.8,-76.4)">
	<path
   class="st0"
   d="m 155.7,260.6 c -0.6,1.5 -2.1,5.7 -2.6,7 -1.8,5.1 -3,9.7 3,11.8 6,2.1 7.9,-2.3 9.7,-7.3 0.9,-2.6 1.4,-4.7 2,-7.2 z m 17.5,15.7 c -4,10.9 -9.3,20.1 -21.9,15.7 -14.3,-5 -7.9,-21.5 -3.4,-34.2 -7.1,-2.5 -10.3,-3.5 -14.2,7.6 -2.1,6 -3.3,12.5 -3.7,15.8 l -8.5,-3 c 0.5,-4.1 2.2,-11.7 3.9,-16.5 3.7,-10.8 9.1,-22.3 23,-17.5 l 30.9,10.8 c -1.8,8.2 -3.6,14.7 -6.1,21.3"
   id="path62" />
</g>
<polygon
   class="st0"
   points="169.2,404.7 130.8,440.5 139.4,451.5 184.2,406.6 176.8,391.5 107.7,400.7 116.3,411.8 168.7,403.6 "
   id="polygon66"
   transform="translate(-76.8,-76.4)" />
<g
   id="g72"
   transform="translate(-76.8,-76.4)">
	<path
   class="st0"
   d="m 195.6,187.6 c -4,2.6 -9.5,7 -12.6,3.8 -3.1,-3.2 0.9,-8.2 3.9,-11.1 3,-2.9 6.6,-5.6 9,-7.3 l -3.7,-7.7 c -1.7,1.3 -6.4,4.3 -13,10.7 -6.3,6.1 -13.2,16.8 -4.9,25.4 7.8,8.1 18.2,1 20.5,-0.4 6.7,-4.1 10.4,-7.4 13.6,-4.2 3.2,3.3 -0.8,8.8 -4.3,12.2 -4.1,4 -8.5,6.7 -12.8,9.3 l 6.3,6.5 c 4.1,-2.6 9.2,-6.3 14,-10.9 10.1,-9.9 12.5,-20.5 5.4,-27.9 -7.2,-7.1 -16.2,-1.8 -21.4,1.6"
   id="path68" />
	<path
   class="st0"
   d="m 153.1,363.2 c -6.3,0.9 -7.4,-3.7 -8.1,-9 -0.2,-1.4 -0.8,-5.8 -1,-7.4 l 12.7,-1.8 c 0.7,2.5 1.2,4.6 1.6,7.3 0.8,5.3 1.1,10 -5.2,10.9 m 13.7,-10.5 C 166,345.6 164.5,339 162.4,331 l -32.4,4.7 c -14.6,2.1 -14.1,14.9 -12.3,26.1 0.7,5 2.6,12.5 4.1,16.3 l 9,-1.2 c -1.2,-3.1 -3.1,-9.4 -4,-15.7 -1.7,-11.7 1.6,-12.2 9,-13.3 2,13.4 3.9,31 18.8,28.8 13.2,-1.9 13.7,-12.5 12.2,-24"
   id="path70" />
</g>
<polygon
   class="st0"
   points="93.5,299.1 165.2,305.8 164,318.7 94.9,312.3 "
   id="polygon74"
   transform="translate(-76.8,-76.4)" />
<path
   class="st0"
   d="m 109.5,168.5 -40,-26.4 7.1,-10.8 40,26.4 z m -47.2,-31.1 -9.1,-6 4.9,-12.3 11.3,7.5 z"
   id="path76" />
<g
   id="g82"
   transform="translate(-76.8,-76.4)">
	<path
   class="st3"
   d="M 442.8,407.4 C 430.1,396 404.5,373 404.5,373 l -1.6,0.5 c -4,1.4 -10.2,0.5 -12,-0.1 -0.4,-0.5 -2.2,-3.3 -2.2,-3.3 -3.3,-5.1 -6,-9.1 -8.3,-10.8 l -2.8,-1.2 c -1.9,-0.7 -5.4,-1.9 -6.2,-3.4 -0.7,-1 -1.2,-2.7 -1.2,-4.9 0,-2.1 0.5,-4.5 1.9,-7.1 l 0.7,-1.4 -0.8,-1.3 c -1.3,-2.3 -5.3,-10.5 -8.9,-17.7 l -6.3,-12.7 -0.4,-0.3 c -6.7,-6 -13.1,-10.9 -14.6,-12 -6.7,-9.7 -14.8,-12.2 -22.6,-14.6 l -6.6,-2.1 -1.2,1.8 -11.6,18 v 0.8 c 0,0 -0.3,12.1 -0.4,15.8 -1.5,0.1 -4.2,0.4 -4.2,0.4 0,0 -4.7,6.6 -5.8,8.1 -1.2,0.2 -5.1,0.8 -5.1,0.8 v 2.2 c -0.5,7.7 -2.2,14.2 -3.7,19.9 -1.1,4.3 -2.2,8.5 -2.6,12.5 -9.7,7.8 -55.4,46.1 -62.6,52.6 -0.1,0 -0.1,0 -0.1,0.1 1.1,1.5 2.3,3 3.5,4.4 5.3,-4.7 54.8,-46.4 63.6,-53.4 l 1,-0.8 0.1,-1.2 c 0.3,-4 1.3,-8.1 2.6,-12.8 1.4,-5.4 3,-11.5 3.6,-18.7 0.9,-0.1 2.9,-0.5 2.9,-0.5 l 0.8,-1 c 0,0 3.9,-5.4 5,-7 1.5,-0.1 6.6,-0.6 6.6,-0.6 0,0 0.5,-18.5 0.5,-19.9 0.7,-1.1 7.8,-12.2 9.6,-14.9 1.3,0.4 2.7,0.8 2.7,0.8 7.7,2.3 14.3,4.3 19.9,12.8 l 0.3,0.4 0.4,0.3 c 0.1,0.1 7.1,5.2 14.1,11.5 0.4,0.8 5.8,11.6 5.8,11.6 3.4,6.8 6.7,13.7 8.4,16.8 -1.3,2.9 -2,5.7 -2,8.3 0,3.2 0.8,6 2.1,7.8 1.8,3.1 6.2,4.7 9.1,5.7 l 1.5,0.6 c 1.5,1.1 4.8,6.1 6.7,9.1 2.4,3.8 3,4.7 4.1,5.2 1.6,0.8 9.1,2.1 15,0.8 1.5,1.3 24,21.6 36.5,32.8 1,-1.2 2.1,-2.7 3.1,-4.3"
   id="path78" />
	<path
   class="st4"
   d="m 441.2,409.7 c -0.4,0.6 -0.8,1.2 -1.3,1.8 0.5,-0.6 0.9,-1.2 1.3,-1.8 0,0 0,0 0,0 m -53.1,-31.3 c -1,-0.5 -1.6,-1.4 -4.1,-5.2 -2,-3 -5.2,-8.1 -6.7,-9.2 l -1.5,-0.6 c -2.9,-1 -7.3,-2.6 -9.1,-5.7 -1.2,-1.8 -2.1,-4.6 -2.1,-7.8 0,-0.1 0,-0.2 0,-0.4 0,-0.2 0,-0.2 0,-0.4 0,-2.4 0.6,-5.2 1.8,-7.9 -1.7,-3.2 -5,-9.9 -8.2,-16.5 0,0 -5.4,-10.9 -5.8,-11.6 -7,-6.3 -14,-11.4 -14.1,-11.5 l -0.4,-0.3 -0.3,-0.4 c -5.7,-8.5 -12.3,-10.5 -19.9,-12.8 0,0 -1.4,-0.4 -2.7,-0.8 0,0 0,0 0,0.1 3.4,4.7 8.7,11.1 10.6,16 0.9,2.3 1.1,2.1 1.2,6.8 4.9,2.6 11.2,5.6 11.2,5.6 0,0 -4.9,3.9 -8.6,5.5 -4.6,9.5 -8.2,30.5 -6.3,40.4 -6.4,8.5 -10.3,14.2 -15.1,22.1 -0.4,0.6 2.3,4.8 1.6,5.6 -4.7,5 -21.1,13.8 -34.6,31.4 l -23.8,25.9 c 21.8,14 47.8,22.1 75.6,22.1 38.9,0 74.1,-15.9 99.5,-41.5 v 0 c 0.8,-0.8 1.6,-1.6 2.4,-2.5 0.1,-0.1 0.1,-0.2 0.2,-0.2 3.8,-4.1 7.4,-8.3 10.7,-12.8 -12.5,-11.2 -35,-31.5 -36.5,-32.8 -5.9,1.5 -13.5,0.2 -15,-0.6"
   id="path80" />
</g>
</svg>
